<?xml version="1.0" encoding="utf-8" standalone="no"?>
<!DOCTYPE svg PUBLIC "-//W3C//DTD SVG 1.1//EN"
  "http://www.w3.org/Graphics/SVG/1.1/DTD/svg11.dtd">
<svg xmlns:xlink="http://www.w3.org/1999/xlink" width="460.8pt" height="345.6pt" viewBox="0 0 460.8 345.6" xmlns="http://www.w3.org/2000/svg" version="1.1">
 <metadata>
  <rdf:RDF xmlns:dc="http://purl.org/dc/elements/1.1/" xmlns:cc="http://creativecommons.org/ns#" xmlns:rdf="http://www.w3.org/1999/02/22-rdf-syntax-ns#">
   <cc:Work>
    <dc:type rdf:resource="http://purl.org/dc/dcmitype/StillImage"/>
    <dc:date>2022-06-20T20:26:29.357101</dc:date>
    <dc:format>image/svg+xml</dc:format>
    <dc:creator>
     <cc:Agent>
      <dc:title>Matplotlib v3.5.2, https://matplotlib.org/</dc:title>
     </cc:Agent>
    </dc:creator>
   </cc:Work>
  </rdf:RDF>
 </metadata>
 <defs>
  <style type="text/css">*{stroke-linejoin: round; stroke-linecap: butt}</style>
 </defs>
 <g id="figure_1">
  <g id="patch_1">
   <path d="M 0 345.6 
L 460.8 345.6 
L 460.8 0 
L 0 0 
z
" style="fill: #ffffff"/>
  </g>
  <g id="axes_1">
   <g id="patch_2">
    <path d="M 57.6 307.584 
L 414.72 307.584 
L 414.72 41.472 
L 57.6 41.472 
z
" style="fill: #ffffff"/>
   </g>
   <g id="PolyCollection_1">
    <path d="M 109.603203 246.499876 
L 106.410576 246.499876 
L 106.181708 245.213571 
L 105.940957 243.927266 
L 105.686148 242.640961 
L 105.414122 241.354657 
L 105.12134 240.068352 
L 104.804577 238.782047 
L 104.461437 237.495742 
L 104.090521 236.209437 
L 103.691062 234.923132 
L 103.262066 233.636827 
L 102.801083 232.350523 
L 102.302929 231.064218 
L 101.758732 229.777913 
L 101.155674 228.491608 
L 100.477694 227.205303 
L 99.707203 225.918998 
L 98.82763 224.632693 
L 97.82638 223.346389 
L 96.697629 222.060084 
L 95.444372 220.773779 
L 94.079241 219.487474 
L 92.623844 218.201169 
L 91.106718 216.914864 
L 89.56026 215.628559 
L 88.017218 214.342255 
L 86.50743 213.05595 
L 85.055371 211.769645 
L 83.678878 210.48334 
L 82.389118 209.197035 
L 81.191616 207.91073 
L 80.087934 206.624425 
L 79.077556 205.338121 
L 78.159549 204.051816 
L 77.333744 202.765511 
L 76.601276 201.479206 
L 75.964514 200.192901 
L 75.42645 198.906596 
L 74.98969 197.620292 
L 74.65519 196.333987 
L 74.420901 195.047682 
L 74.280555 193.761377 
L 74.222817 192.475072 
L 74.231089 191.188767 
L 74.284192 189.902462 
L 74.358014 188.616158 
L 74.428041 187.329853 
L 74.472469 186.043548 
L 74.475358 184.757243 
L 74.429254 183.470938 
L 74.336667 182.184633 
L 74.210042 180.898328 
L 74.070098 179.612024 
L 73.942791 178.325719 
L 73.855436 177.039414 
L 73.832727 175.753109 
L 73.893404 174.466804 
L 74.048181 173.180499 
L 74.299273 171.894194 
L 74.641491 170.60789 
L 75.064571 169.321585 
L 75.556159 168.03528 
L 76.104775 166.748975 
L 76.702139 165.46267 
L 77.344428 164.176365 
L 78.032287 162.89006 
L 78.769695 161.603756 
L 79.56201 160.317451 
L 80.41366 159.031146 
L 81.325997 157.744841 
L 82.295737 156.458536 
L 83.314308 155.172231 
L 84.368221 153.885926 
L 85.440394 152.599622 
L 86.51219 151.313317 
L 87.565824 150.027012 
L 88.586715 148.740707 
L 89.565385 147.454402 
L 90.498582 146.168097 
L 91.389406 144.881792 
L 92.246412 143.595488 
L 93.081827 142.309183 
L 93.909158 141.022878 
L 94.740623 139.736573 
L 95.584841 138.450268 
L 96.445196 137.163963 
L 97.319164 135.877658 
L 98.198694 134.591354 
L 99.071545 133.305049 
L 99.92328 132.018744 
L 100.739525 130.732439 
L 101.508039 129.446134 
L 102.220247 128.159829 
L 102.871992 126.873524 
L 103.463453 125.58722 
L 103.998357 124.300915 
L 104.482707 123.01461 
L 104.923353 121.728305 
L 105.326689 120.442 
L 105.697706 119.155695 
L 110.316074 119.155695 
L 110.316074 119.155695 
L 110.687091 120.442 
L 111.090427 121.728305 
L 111.531073 123.01461 
L 112.015423 124.300915 
L 112.550327 125.58722 
L 113.141788 126.873524 
L 113.793533 128.159829 
L 114.505741 129.446134 
L 115.274255 130.732439 
L 116.090499 132.018744 
L 116.942235 133.305049 
L 117.815086 134.591354 
L 118.694616 135.877658 
L 119.568584 137.163963 
L 120.428939 138.450268 
L 121.273156 139.736573 
L 122.104622 141.022878 
L 122.931953 142.309183 
L 123.767368 143.595488 
L 124.624374 144.881792 
L 125.515197 146.168097 
L 126.448394 147.454402 
L 127.427065 148.740707 
L 128.447956 150.027012 
L 129.50159 151.313317 
L 130.573386 152.599622 
L 131.645559 153.885926 
L 132.699472 155.172231 
L 133.718043 156.458536 
L 134.687783 157.744841 
L 135.60012 159.031146 
L 136.45177 160.317451 
L 137.244085 161.603756 
L 137.981493 162.89006 
L 138.669352 164.176365 
L 139.311641 165.46267 
L 139.909005 166.748975 
L 140.457621 168.03528 
L 140.949209 169.321585 
L 141.372289 170.60789 
L 141.714507 171.894194 
L 141.965599 173.180499 
L 142.120376 174.466804 
L 142.181053 175.753109 
L 142.158344 177.039414 
L 142.070989 178.325719 
L 141.943682 179.612024 
L 141.803738 180.898328 
L 141.677113 182.184633 
L 141.584526 183.470938 
L 141.538422 184.757243 
L 141.541311 186.043548 
L 141.585739 187.329853 
L 141.655766 188.616158 
L 141.729588 189.902462 
L 141.782691 191.188767 
L 141.790963 192.475072 
L 141.733224 193.761377 
L 141.592879 195.047682 
L 141.35859 196.333987 
L 141.02409 197.620292 
L 140.58733 198.906596 
L 140.049266 200.192901 
L 139.412504 201.479206 
L 138.680036 202.765511 
L 137.854231 204.051816 
L 136.936224 205.338121 
L 135.925845 206.624425 
L 134.822164 207.91073 
L 133.624662 209.197035 
L 132.334902 210.48334 
L 130.958409 211.769645 
L 129.50635 213.05595 
L 127.996562 214.342255 
L 126.45352 215.628559 
L 124.907061 216.914864 
L 123.389936 218.201169 
L 121.934539 219.487474 
L 120.569408 220.773779 
L 119.316151 222.060084 
L 118.1874 223.346389 
L 117.18615 224.632693 
L 116.306577 225.918998 
L 115.536086 227.205303 
L 114.858106 228.491608 
L 114.255048 229.777913 
L 113.710851 231.064218 
L 113.212697 232.350523 
L 112.751714 233.636827 
L 112.322718 234.923132 
L 111.923259 236.209437 
L 111.552342 237.495742 
L 111.209203 238.782047 
L 110.892439 240.068352 
L 110.599658 241.354657 
L 110.327632 242.640961 
L 110.072823 243.927266 
L 109.832072 245.213571 
L 109.603203 246.499876 
z
" clip-path="url(#pab08344b6d)" style="fill: #1f77b4; fill-opacity: 0.3"/>
   </g>
   <g id="PolyCollection_2">
    <path d="M 195.445084 260.548744 
L 191.439509 260.548744 
L 191.074119 258.706164 
L 190.691421 256.863584 
L 190.292249 255.021004 
L 189.873105 253.178424 
L 189.425843 251.335844 
L 188.938289 249.493263 
L 188.395773 247.650683 
L 187.783321 245.808103 
L 187.088054 243.965523 
L 186.301259 242.122943 
L 185.419614 240.280363 
L 184.445282 238.437783 
L 183.384884 236.595202 
L 182.247759 234.752622 
L 181.044252 232.910042 
L 179.784834 231.067462 
L 178.480675 229.224882 
L 177.145779 227.382302 
L 175.800083 225.539721 
L 174.472325 223.697141 
L 173.201173 221.854561 
L 172.033351 220.011981 
L 171.018285 218.169401 
L 170.199878 216.326821 
L 169.607164 214.484241 
L 169.246185 212.64166 
L 169.095414 210.79908 
L 169.106183 208.9565 
L 169.208312 207.11392 
L 169.319738 205.27134 
L 169.358043 203.42876 
L 169.251498 201.586179 
L 168.94772 199.743599 
L 168.418913 197.901019 
L 167.663633 196.058439 
L 166.705682 194.215859 
L 165.590933 192.373279 
L 164.382739 190.530699 
L 163.156194 188.688118 
L 161.991347 186.845538 
L 160.965469 185.002958 
L 160.144884 183.160378 
L 159.577349 181.317798 
L 159.286276 179.475218 
L 159.268134 177.632638 
L 159.493841 175.790057 
L 159.914203 173.947477 
L 160.468503 172.104897 
L 161.094632 170.262317 
L 161.738825 168.419737 
L 162.363201 166.577157 
L 162.9499 164.734576 
L 163.501398 162.891996 
L 164.037384 161.049416 
L 164.589202 159.206836 
L 165.193177 157.364256 
L 165.884111 155.521676 
L 166.689978 153.679096 
L 167.62841 151.836515 
L 168.705115 149.993935 
L 169.91401 148.151355 
L 171.238629 146.308775 
L 172.654296 144.466195 
L 174.13063 142.623615 
L 175.634058 140.781035 
L 177.130178 138.938454 
L 178.585902 137.095874 
L 179.971376 135.253294 
L 181.261697 133.410714 
L 182.438364 131.568134 
L 183.490402 129.725554 
L 184.415011 127.882973 
L 185.217574 126.040393 
L 185.910908 124.197813 
L 186.513704 122.355233 
L 187.048255 120.512653 
L 187.537727 118.670073 
L 188.003352 116.827493 
L 188.461991 114.984912 
L 188.924456 113.142332 
L 189.394851 111.299752 
L 189.870958 109.457172 
L 190.345514 107.614592 
L 190.808038 105.772012 
L 191.246831 103.929432 
L 191.650793 102.086851 
L 192.01083 100.244271 
L 192.320718 98.401691 
L 192.577465 96.559111 
L 192.781239 94.716531 
L 192.935013 92.873951 
L 193.044024 91.03137 
L 193.115165 89.18879 
L 193.156341 87.34621 
L 193.175838 85.50363 
L 193.181712 83.66105 
L 193.181218 81.81847 
L 193.180325 79.97589 
L 193.183355 78.133309 
L 193.701238 78.133309 
L 193.701238 78.133309 
L 193.704268 79.97589 
L 193.703375 81.81847 
L 193.702882 83.66105 
L 193.708755 85.50363 
L 193.728252 87.34621 
L 193.769428 89.18879 
L 193.840569 91.03137 
L 193.949581 92.873951 
L 194.103354 94.716531 
L 194.307129 96.559111 
L 194.563875 98.401691 
L 194.873763 100.244271 
L 195.2338 102.086851 
L 195.637763 103.929432 
L 196.076555 105.772012 
L 196.53908 107.614592 
L 197.013636 109.457172 
L 197.489743 111.299752 
L 197.960137 113.142332 
L 198.422602 114.984912 
L 198.881241 116.827493 
L 199.346867 118.670073 
L 199.836339 120.512653 
L 200.370889 122.355233 
L 200.973685 124.197813 
L 201.667019 126.040393 
L 202.469582 127.882973 
L 203.394191 129.725554 
L 204.446229 131.568134 
L 205.622896 133.410714 
L 206.913217 135.253294 
L 208.298692 137.095874 
L 209.754415 138.938454 
L 211.250536 140.781035 
L 212.753964 142.623615 
L 214.230297 144.466195 
L 215.645964 146.308775 
L 216.970583 148.151355 
L 218.179479 149.993935 
L 219.256184 151.836515 
L 220.194615 153.679096 
L 221.000482 155.521676 
L 221.691416 157.364256 
L 222.295391 159.206836 
L 222.84721 161.049416 
L 223.383196 162.891996 
L 223.934694 164.734576 
L 224.521392 166.577157 
L 225.145768 168.419737 
L 225.789961 170.262317 
L 226.41609 172.104897 
L 226.97039 173.947477 
L 227.390752 175.790057 
L 227.616459 177.632638 
L 227.598317 179.475218 
L 227.307244 181.317798 
L 226.739709 183.160378 
L 225.919125 185.002958 
L 224.893246 186.845538 
L 223.728399 188.688118 
L 222.501855 190.530699 
L 221.29366 192.373279 
L 220.178912 194.215859 
L 219.220961 196.058439 
L 218.465681 197.901019 
L 217.936873 199.743599 
L 217.633095 201.586179 
L 217.52655 203.42876 
L 217.564855 205.27134 
L 217.676282 207.11392 
L 217.77841 208.9565 
L 217.789179 210.79908 
L 217.638408 212.64166 
L 217.27743 214.484241 
L 216.684715 216.326821 
L 215.866308 218.169401 
L 214.851242 220.011981 
L 213.68342 221.854561 
L 212.412268 223.697141 
L 211.08451 225.539721 
L 209.738814 227.382302 
L 208.403918 229.224882 
L 207.099759 231.067462 
L 205.840341 232.910042 
L 204.636834 234.752622 
L 203.499709 236.595202 
L 202.439311 238.437783 
L 201.46498 240.280363 
L 200.583335 242.122943 
L 199.796539 243.965523 
L 199.101273 245.808103 
L 198.48882 247.650683 
L 197.946304 249.493263 
L 197.45875 251.335844 
L 197.011489 253.178424 
L 196.592345 255.021004 
L 196.193172 256.863584 
L 195.810474 258.706164 
L 195.445084 260.548744 
z
" clip-path="url(#pab08344b6d)" style="fill: #1f77b4; fill-opacity: 0.3"/>
   </g>
   <g id="PolyCollection_3">
    <path d="M 280.660545 282.074992 
L 277.094862 282.074992 
L 276.605174 279.766841 
L 276.019505 277.458689 
L 275.332031 275.150538 
L 274.54127 272.842386 
L 273.651091 270.534235 
L 272.671052 268.226084 
L 271.615884 265.917932 
L 270.504109 263.609781 
L 269.356056 261.301629 
L 268.191744 258.993478 
L 267.029171 256.685326 
L 265.883445 254.377175 
L 264.76689 252.069024 
L 263.689893 249.760872 
L 262.661919 247.452721 
L 261.692021 245.144569 
L 260.788311 242.836418 
L 259.956291 240.528266 
L 259.196436 238.220115 
L 258.501871 235.911963 
L 257.857113 233.603812 
L 257.238642 231.295661 
L 256.617553 228.987509 
L 255.963868 226.679358 
L 255.25159 224.371206 
L 254.463283 222.063055 
L 253.593156 219.754903 
L 252.648031 217.446752 
L 251.646198 215.138601 
L 250.614661 212.830449 
L 249.585566 210.522298 
L 248.5926 208.214146 
L 247.667904 205.905995 
L 246.839734 203.597843 
L 246.130852 201.289692 
L 245.557502 198.98154 
L 245.128902 196.673389 
L 244.847268 194.365238 
L 244.70849 192.057086 
L 244.703541 189.748935 
L 244.820523 187.440783 
L 245.047052 185.132632 
L 245.37248 182.82448 
L 245.789422 180.516329 
L 246.294207 178.208178 
L 246.886133 175.900026 
L 247.565798 173.591875 
L 248.333004 171.283723 
L 249.184857 168.975572 
L 250.114575 166.66742 
L 251.111257 164.359269 
L 252.160615 162.051118 
L 253.246371 159.742966 
L 254.351986 157.434815 
L 255.462354 155.126663 
L 256.565243 152.818512 
L 257.652327 150.51036 
L 258.719738 148.202209 
L 259.768052 145.894057 
L 260.801623 143.585906 
L 261.827247 141.277755 
L 262.85223 138.969603 
L 263.882142 136.661452 
L 264.918707 134.3533 
L 265.958313 132.045149 
L 266.991564 129.736997 
L 268.004043 127.428846 
L 268.978113 125.120695 
L 269.895348 122.812543 
L 270.738995 120.504392 
L 271.495942 118.19624 
L 272.15783 115.888089 
L 272.721267 113.579937 
L 273.187333 111.271786 
L 273.560712 108.963634 
L 273.848839 106.655483 
L 274.061273 104.347332 
L 274.209399 102.03918 
L 274.306333 99.731029 
L 274.366842 97.422877 
L 274.407056 95.114726 
L 274.443807 92.806574 
L 274.493584 90.498423 
L 274.571185 88.190272 
L 274.688297 85.88212 
L 274.852256 83.573969 
L 275.065246 81.265817 
L 275.324137 78.957666 
L 275.621005 76.649514 
L 275.944288 74.341363 
L 276.280373 72.033211 
L 276.615351 69.72506 
L 276.936646 67.416909 
L 277.23427 65.108757 
L 277.501547 62.800606 
L 277.73525 60.492454 
L 277.935247 58.184303 
L 278.10376 55.876151 
L 278.244481 53.568 
L 279.510926 53.568 
L 279.510926 53.568 
L 279.651647 55.876151 
L 279.82016 58.184303 
L 280.020156 60.492454 
L 280.25386 62.800606 
L 280.521136 65.108757 
L 280.818761 67.416909 
L 281.140056 69.72506 
L 281.475034 72.033211 
L 281.811119 74.341363 
L 282.134402 76.649514 
L 282.43127 78.957666 
L 282.690161 81.265817 
L 282.903151 83.573969 
L 283.067109 85.88212 
L 283.184222 88.190272 
L 283.261823 90.498423 
L 283.311599 92.806574 
L 283.348351 95.114726 
L 283.388564 97.422877 
L 283.449074 99.731029 
L 283.546008 102.03918 
L 283.694134 104.347332 
L 283.906568 106.655483 
L 284.194695 108.963634 
L 284.568074 111.271786 
L 285.034139 113.579937 
L 285.597577 115.888089 
L 286.259465 118.19624 
L 287.016411 120.504392 
L 287.860059 122.812543 
L 288.777293 125.120695 
L 289.751363 127.428846 
L 290.763842 129.736997 
L 291.797094 132.045149 
L 292.8367 134.3533 
L 293.873265 136.661452 
L 294.903177 138.969603 
L 295.928159 141.277755 
L 296.953784 143.585906 
L 297.987355 145.894057 
L 299.035669 148.202209 
L 300.10308 150.51036 
L 301.190164 152.818512 
L 302.293053 155.126663 
L 303.403421 157.434815 
L 304.509035 159.742966 
L 305.594792 162.051118 
L 306.64415 164.359269 
L 307.640832 166.66742 
L 308.570549 168.975572 
L 309.422403 171.283723 
L 310.189609 173.591875 
L 310.869274 175.900026 
L 311.461199 178.208178 
L 311.965984 180.516329 
L 312.382927 182.82448 
L 312.708355 185.132632 
L 312.934884 187.440783 
L 313.051866 189.748935 
L 313.046917 192.057086 
L 312.908139 194.365238 
L 312.626504 196.673389 
L 312.197904 198.98154 
L 311.624555 201.289692 
L 310.915673 203.597843 
L 310.087503 205.905995 
L 309.162807 208.214146 
L 308.169841 210.522298 
L 307.140746 212.830449 
L 306.109209 215.138601 
L 305.107376 217.446752 
L 304.162251 219.754903 
L 303.292124 222.063055 
L 302.503817 224.371206 
L 301.791538 226.679358 
L 301.137854 228.987509 
L 300.516765 231.295661 
L 299.898294 233.603812 
L 299.253535 235.911963 
L 298.55897 238.220115 
L 297.799115 240.528266 
L 296.967096 242.836418 
L 296.063386 245.144569 
L 295.093488 247.452721 
L 294.065514 249.760872 
L 292.988517 252.069024 
L 291.871962 254.377175 
L 290.726236 256.685326 
L 289.563663 258.993478 
L 288.399351 261.301629 
L 287.251298 263.609781 
L 286.139522 265.917932 
L 285.084355 268.226084 
L 284.104316 270.534235 
L 283.214137 272.842386 
L 282.423376 275.150538 
L 281.735901 277.458689 
L 281.150233 279.766841 
L 280.660545 282.074992 
z
" clip-path="url(#pab08344b6d)" style="fill: #1f77b4; fill-opacity: 0.3"/>
   </g>
   <g id="PolyCollection_4">
    <path d="M 366.116503 295.488 
L 362.509717 295.488 
L 362.139345 293.210305 
L 361.695415 290.93261 
L 361.161245 288.654915 
L 360.519214 286.37722 
L 359.752622 284.099525 
L 358.847987 281.82183 
L 357.797493 279.544135 
L 356.601236 277.26644 
L 355.268847 274.988745 
L 353.820173 272.71105 
L 352.284739 270.433355 
L 350.699941 268.15566 
L 349.108066 265.877965 
L 347.55245 263.60027 
L 346.073234 261.322575 
L 344.703282 259.04488 
L 343.464823 256.767185 
L 342.367358 254.48949 
L 341.407165 252.211795 
L 340.568576 249.9341 
L 339.826866 247.656405 
L 339.152385 245.37871 
L 338.515275 243.101015 
L 337.890031 240.82332 
L 337.25914 238.545625 
L 336.61521 236.26793 
L 335.961271 233.990236 
L 335.309295 231.712541 
L 334.677318 229.434846 
L 334.085782 227.157151 
L 333.553842 224.879456 
L 333.096278 222.601761 
L 332.721464 220.324066 
L 332.430581 218.046371 
L 332.217972 215.768676 
L 332.072348 213.490981 
L 331.97848 211.213286 
L 331.919008 208.935591 
L 331.876132 206.657896 
L 331.833053 204.380201 
L 331.775162 202.102506 
L 331.691023 199.824811 
L 331.573208 197.547116 
L 331.418985 195.269421 
L 331.230817 192.991726 
L 331.016567 190.714031 
L 330.789286 188.436336 
L 330.566504 186.158641 
L 330.369007 183.880946 
L 330.21916 181.603251 
L 330.138947 179.325556 
L 330.147959 177.047861 
L 330.261594 174.770166 
L 330.489738 172.492471 
L 330.836109 170.214776 
L 331.298366 167.937081 
L 331.86896 165.659386 
L 332.536553 163.381691 
L 333.287749 161.103996 
L 334.108828 158.826301 
L 334.987164 156.548606 
L 335.912128 154.270911 
L 336.875351 151.993216 
L 337.870412 149.715521 
L 338.892095 147.437826 
L 339.935458 145.160131 
L 340.994955 142.882436 
L 342.0638 140.604741 
L 343.133713 138.327046 
L 344.195051 136.049351 
L 345.237311 133.771656 
L 346.249898 131.493961 
L 347.223046 129.216266 
L 348.148773 126.938571 
L 349.021722 124.660876 
L 349.839786 122.383181 
L 350.604375 120.105486 
L 351.32026 117.827791 
L 351.994959 115.550097 
L 352.637721 113.272402 
L 353.258228 110.994707 
L 353.865247 108.717012 
L 354.465448 106.439317 
L 355.062615 104.161622 
L 355.657392 101.883927 
L 356.247601 99.606232 
L 356.82903 97.328537 
L 357.396522 95.050842 
L 357.945102 92.773147 
L 358.47092 90.495452 
L 358.971826 88.217757 
L 359.447496 85.940062 
L 359.899144 83.662367 
L 360.328919 81.384672 
L 360.73917 79.106977 
L 361.131742 76.829282 
L 361.507471 74.551587 
L 361.86594 72.273892 
L 362.205537 69.996197 
L 366.420683 69.996197 
L 366.420683 69.996197 
L 366.76028 72.273892 
L 367.118749 74.551587 
L 367.494478 76.829282 
L 367.88705 79.106977 
L 368.297301 81.384672 
L 368.727076 83.662367 
L 369.178724 85.940062 
L 369.654395 88.217757 
L 370.1553 90.495452 
L 370.681118 92.773147 
L 371.229698 95.050842 
L 371.79719 97.328537 
L 372.378619 99.606232 
L 372.968828 101.883927 
L 373.563605 104.161622 
L 374.160772 106.439317 
L 374.760973 108.717012 
L 375.367992 110.994707 
L 375.988499 113.272402 
L 376.631261 115.550097 
L 377.305961 117.827791 
L 378.021845 120.105486 
L 378.786434 122.383181 
L 379.604498 124.660876 
L 380.477447 126.938571 
L 381.403174 129.216266 
L 382.376323 131.493961 
L 383.388909 133.771656 
L 384.431169 136.049351 
L 385.492507 138.327046 
L 386.56242 140.604741 
L 387.631265 142.882436 
L 388.690762 145.160131 
L 389.734125 147.437826 
L 390.755808 149.715521 
L 391.750869 151.993216 
L 392.714092 154.270911 
L 393.639056 156.548606 
L 394.517392 158.826301 
L 395.338471 161.103996 
L 396.089667 163.381691 
L 396.75726 165.659386 
L 397.327854 167.937081 
L 397.790111 170.214776 
L 398.136482 172.492471 
L 398.364626 174.770166 
L 398.478262 177.047861 
L 398.487273 179.325556 
L 398.40706 181.603251 
L 398.257213 183.880946 
L 398.059716 186.158641 
L 397.836934 188.436336 
L 397.609653 190.714031 
L 397.395403 192.991726 
L 397.207235 195.269421 
L 397.053012 197.547116 
L 396.935197 199.824811 
L 396.851058 202.102506 
L 396.793167 204.380201 
L 396.750088 206.657896 
L 396.707212 208.935591 
L 396.64774 211.213286 
L 396.553872 213.490981 
L 396.408249 215.768676 
L 396.195639 218.046371 
L 395.904756 220.324066 
L 395.529942 222.601761 
L 395.072378 224.879456 
L 394.540438 227.157151 
L 393.948902 229.434846 
L 393.316925 231.712541 
L 392.664949 233.990236 
L 392.01101 236.26793 
L 391.36708 238.545625 
L 390.736189 240.82332 
L 390.110945 243.101015 
L 389.473835 245.37871 
L 388.799354 247.656405 
L 388.057645 249.9341 
L 387.219055 252.211795 
L 386.258863 254.48949 
L 385.161397 256.767185 
L 383.922938 259.04488 
L 382.552986 261.322575 
L 381.07377 263.60027 
L 379.518154 265.877965 
L 377.926279 268.15566 
L 376.341481 270.433355 
L 374.806047 272.71105 
L 373.357373 274.988745 
L 372.024984 277.26644 
L 370.828727 279.544135 
L 369.778233 281.82183 
L 368.873598 284.099525 
L 368.107006 286.37722 
L 367.464975 288.654915 
L 366.930805 290.93261 
L 366.486875 293.210305 
L 366.116503 295.488 
z
" clip-path="url(#pab08344b6d)" style="fill: #1f77b4; fill-opacity: 0.3"/>
   </g>
   <g id="matplotlib.axis_1">
    <g id="xtick_1">
     <g id="line2d_1">
      <path d="M 79.528421 307.584 
L 79.528421 41.472 
" clip-path="url(#pab08344b6d)" style="fill: none; stroke-dasharray: 2.96,1.28; stroke-dashoffset: 0; stroke: #b0b0b0; stroke-width: 0.8"/>
     </g>
     <g id="line2d_2">
      <defs>
       <path id="m6062f9e80b" d="M 0 0 
L 0 3.5 
" style="stroke: #000000; stroke-width: 0.8"/>
      </defs>
      <g>
       <use xlink:href="#m6062f9e80b" x="79.528421" y="307.584" style="stroke: #000000; stroke-width: 0.8"/>
      </g>
     </g>
     <g id="text_1">
      <!-- 1000 -->
      <g transform="translate(66.803421 322.182437)scale(0.1 -0.1)">
       <defs>
        <path id="DejaVuSans-31" d="M 794 531 
L 1825 531 
L 1825 4091 
L 703 3866 
L 703 4441 
L 1819 4666 
L 2450 4666 
L 2450 531 
L 3481 531 
L 3481 0 
L 794 0 
L 794 531 
z
" transform="scale(0.015625)"/>
        <path id="DejaVuSans-30" d="M 2034 4250 
Q 1547 4250 1301 3770 
Q 1056 3291 1056 2328 
Q 1056 1369 1301 889 
Q 1547 409 2034 409 
Q 2525 409 2770 889 
Q 3016 1369 3016 2328 
Q 3016 3291 2770 3770 
Q 2525 4250 2034 4250 
z
M 2034 4750 
Q 2819 4750 3233 4129 
Q 3647 3509 3647 2328 
Q 3647 1150 3233 529 
Q 2819 -91 2034 -91 
Q 1250 -91 836 529 
Q 422 1150 422 2328 
Q 422 3509 836 4129 
Q 1250 4750 2034 4750 
z
" transform="scale(0.015625)"/>
       </defs>
       <use xlink:href="#DejaVuSans-31"/>
       <use xlink:href="#DejaVuSans-30" x="63.623047"/>
       <use xlink:href="#DejaVuSans-30" x="127.246094"/>
       <use xlink:href="#DejaVuSans-30" x="190.869141"/>
      </g>
     </g>
    </g>
    <g id="xtick_2">
     <g id="line2d_3">
      <path d="M 136.485359 307.584 
L 136.485359 41.472 
" clip-path="url(#pab08344b6d)" style="fill: none; stroke-dasharray: 2.96,1.28; stroke-dashoffset: 0; stroke: #b0b0b0; stroke-width: 0.8"/>
     </g>
     <g id="line2d_4">
      <g>
       <use xlink:href="#m6062f9e80b" x="136.485359" y="307.584" style="stroke: #000000; stroke-width: 0.8"/>
      </g>
     </g>
     <g id="text_2">
      <!-- 2000 -->
      <g transform="translate(123.760359 322.182437)scale(0.1 -0.1)">
       <defs>
        <path id="DejaVuSans-32" d="M 1228 531 
L 3431 531 
L 3431 0 
L 469 0 
L 469 531 
Q 828 903 1448 1529 
Q 2069 2156 2228 2338 
Q 2531 2678 2651 2914 
Q 2772 3150 2772 3378 
Q 2772 3750 2511 3984 
Q 2250 4219 1831 4219 
Q 1534 4219 1204 4116 
Q 875 4013 500 3803 
L 500 4441 
Q 881 4594 1212 4672 
Q 1544 4750 1819 4750 
Q 2544 4750 2975 4387 
Q 3406 4025 3406 3419 
Q 3406 3131 3298 2873 
Q 3191 2616 2906 2266 
Q 2828 2175 2409 1742 
Q 1991 1309 1228 531 
z
" transform="scale(0.015625)"/>
       </defs>
       <use xlink:href="#DejaVuSans-32"/>
       <use xlink:href="#DejaVuSans-30" x="63.623047"/>
       <use xlink:href="#DejaVuSans-30" x="127.246094"/>
       <use xlink:href="#DejaVuSans-30" x="190.869141"/>
      </g>
     </g>
    </g>
    <g id="xtick_3">
     <g id="line2d_5">
      <path d="M 193.442297 307.584 
L 193.442297 41.472 
" clip-path="url(#pab08344b6d)" style="fill: none; stroke-dasharray: 2.96,1.28; stroke-dashoffset: 0; stroke: #b0b0b0; stroke-width: 0.8"/>
     </g>
     <g id="line2d_6">
      <g>
       <use xlink:href="#m6062f9e80b" x="193.442297" y="307.584" style="stroke: #000000; stroke-width: 0.8"/>
      </g>
     </g>
     <g id="text_3">
      <!-- 3000 -->
      <g transform="translate(180.717297 322.182437)scale(0.1 -0.1)">
       <defs>
        <path id="DejaVuSans-33" d="M 2597 2516 
Q 3050 2419 3304 2112 
Q 3559 1806 3559 1356 
Q 3559 666 3084 287 
Q 2609 -91 1734 -91 
Q 1441 -91 1130 -33 
Q 819 25 488 141 
L 488 750 
Q 750 597 1062 519 
Q 1375 441 1716 441 
Q 2309 441 2620 675 
Q 2931 909 2931 1356 
Q 2931 1769 2642 2001 
Q 2353 2234 1838 2234 
L 1294 2234 
L 1294 2753 
L 1863 2753 
Q 2328 2753 2575 2939 
Q 2822 3125 2822 3475 
Q 2822 3834 2567 4026 
Q 2313 4219 1838 4219 
Q 1578 4219 1281 4162 
Q 984 4106 628 3988 
L 628 4550 
Q 988 4650 1302 4700 
Q 1616 4750 1894 4750 
Q 2613 4750 3031 4423 
Q 3450 4097 3450 3541 
Q 3450 3153 3228 2886 
Q 3006 2619 2597 2516 
z
" transform="scale(0.015625)"/>
       </defs>
       <use xlink:href="#DejaVuSans-33"/>
       <use xlink:href="#DejaVuSans-30" x="63.623047"/>
       <use xlink:href="#DejaVuSans-30" x="127.246094"/>
       <use xlink:href="#DejaVuSans-30" x="190.869141"/>
      </g>
     </g>
    </g>
    <g id="xtick_4">
     <g id="line2d_7">
      <path d="M 250.399234 307.584 
L 250.399234 41.472 
" clip-path="url(#pab08344b6d)" style="fill: none; stroke-dasharray: 2.96,1.28; stroke-dashoffset: 0; stroke: #b0b0b0; stroke-width: 0.8"/>
     </g>
     <g id="line2d_8">
      <g>
       <use xlink:href="#m6062f9e80b" x="250.399234" y="307.584" style="stroke: #000000; stroke-width: 0.8"/>
      </g>
     </g>
     <g id="text_4">
      <!-- 4000 -->
      <g transform="translate(237.674234 322.182437)scale(0.1 -0.1)">
       <defs>
        <path id="DejaVuSans-34" d="M 2419 4116 
L 825 1625 
L 2419 1625 
L 2419 4116 
z
M 2253 4666 
L 3047 4666 
L 3047 1625 
L 3713 1625 
L 3713 1100 
L 3047 1100 
L 3047 0 
L 2419 0 
L 2419 1100 
L 313 1100 
L 313 1709 
L 2253 4666 
z
" transform="scale(0.015625)"/>
       </defs>
       <use xlink:href="#DejaVuSans-34"/>
       <use xlink:href="#DejaVuSans-30" x="63.623047"/>
       <use xlink:href="#DejaVuSans-30" x="127.246094"/>
       <use xlink:href="#DejaVuSans-30" x="190.869141"/>
      </g>
     </g>
    </g>
    <g id="xtick_5">
     <g id="line2d_9">
      <path d="M 307.356172 307.584 
L 307.356172 41.472 
" clip-path="url(#pab08344b6d)" style="fill: none; stroke-dasharray: 2.96,1.28; stroke-dashoffset: 0; stroke: #b0b0b0; stroke-width: 0.8"/>
     </g>
     <g id="line2d_10">
      <g>
       <use xlink:href="#m6062f9e80b" x="307.356172" y="307.584" style="stroke: #000000; stroke-width: 0.8"/>
      </g>
     </g>
     <g id="text_5">
      <!-- 5000 -->
      <g transform="translate(294.631172 322.182437)scale(0.1 -0.1)">
       <defs>
        <path id="DejaVuSans-35" d="M 691 4666 
L 3169 4666 
L 3169 4134 
L 1269 4134 
L 1269 2991 
Q 1406 3038 1543 3061 
Q 1681 3084 1819 3084 
Q 2600 3084 3056 2656 
Q 3513 2228 3513 1497 
Q 3513 744 3044 326 
Q 2575 -91 1722 -91 
Q 1428 -91 1123 -41 
Q 819 9 494 109 
L 494 744 
Q 775 591 1075 516 
Q 1375 441 1709 441 
Q 2250 441 2565 725 
Q 2881 1009 2881 1497 
Q 2881 1984 2565 2268 
Q 2250 2553 1709 2553 
Q 1456 2553 1204 2497 
Q 953 2441 691 2322 
L 691 4666 
z
" transform="scale(0.015625)"/>
       </defs>
       <use xlink:href="#DejaVuSans-35"/>
       <use xlink:href="#DejaVuSans-30" x="63.623047"/>
       <use xlink:href="#DejaVuSans-30" x="127.246094"/>
       <use xlink:href="#DejaVuSans-30" x="190.869141"/>
      </g>
     </g>
    </g>
    <g id="xtick_6">
     <g id="line2d_11">
      <path d="M 364.31311 307.584 
L 364.31311 41.472 
" clip-path="url(#pab08344b6d)" style="fill: none; stroke-dasharray: 2.96,1.28; stroke-dashoffset: 0; stroke: #b0b0b0; stroke-width: 0.8"/>
     </g>
     <g id="line2d_12">
      <g>
       <use xlink:href="#m6062f9e80b" x="364.31311" y="307.584" style="stroke: #000000; stroke-width: 0.8"/>
      </g>
     </g>
     <g id="text_6">
      <!-- 6000 -->
      <g transform="translate(351.58811 322.182437)scale(0.1 -0.1)">
       <defs>
        <path id="DejaVuSans-36" d="M 2113 2584 
Q 1688 2584 1439 2293 
Q 1191 2003 1191 1497 
Q 1191 994 1439 701 
Q 1688 409 2113 409 
Q 2538 409 2786 701 
Q 3034 994 3034 1497 
Q 3034 2003 2786 2293 
Q 2538 2584 2113 2584 
z
M 3366 4563 
L 3366 3988 
Q 3128 4100 2886 4159 
Q 2644 4219 2406 4219 
Q 1781 4219 1451 3797 
Q 1122 3375 1075 2522 
Q 1259 2794 1537 2939 
Q 1816 3084 2150 3084 
Q 2853 3084 3261 2657 
Q 3669 2231 3669 1497 
Q 3669 778 3244 343 
Q 2819 -91 2113 -91 
Q 1303 -91 875 529 
Q 447 1150 447 2328 
Q 447 3434 972 4092 
Q 1497 4750 2381 4750 
Q 2619 4750 2861 4703 
Q 3103 4656 3366 4563 
z
" transform="scale(0.015625)"/>
       </defs>
       <use xlink:href="#DejaVuSans-36"/>
       <use xlink:href="#DejaVuSans-30" x="63.623047"/>
       <use xlink:href="#DejaVuSans-30" x="127.246094"/>
       <use xlink:href="#DejaVuSans-30" x="190.869141"/>
      </g>
     </g>
    </g>
    <g id="text_7">
     <!-- Learned Episodes -->
     <g transform="translate(192.102187 335.860562)scale(0.1 -0.1)">
      <defs>
       <path id="DejaVuSans-4c" d="M 628 4666 
L 1259 4666 
L 1259 531 
L 3531 531 
L 3531 0 
L 628 0 
L 628 4666 
z
" transform="scale(0.015625)"/>
       <path id="DejaVuSans-65" d="M 3597 1894 
L 3597 1613 
L 953 1613 
Q 991 1019 1311 708 
Q 1631 397 2203 397 
Q 2534 397 2845 478 
Q 3156 559 3463 722 
L 3463 178 
Q 3153 47 2828 -22 
Q 2503 -91 2169 -91 
Q 1331 -91 842 396 
Q 353 884 353 1716 
Q 353 2575 817 3079 
Q 1281 3584 2069 3584 
Q 2775 3584 3186 3129 
Q 3597 2675 3597 1894 
z
M 3022 2063 
Q 3016 2534 2758 2815 
Q 2500 3097 2075 3097 
Q 1594 3097 1305 2825 
Q 1016 2553 972 2059 
L 3022 2063 
z
" transform="scale(0.015625)"/>
       <path id="DejaVuSans-61" d="M 2194 1759 
Q 1497 1759 1228 1600 
Q 959 1441 959 1056 
Q 959 750 1161 570 
Q 1363 391 1709 391 
Q 2188 391 2477 730 
Q 2766 1069 2766 1631 
L 2766 1759 
L 2194 1759 
z
M 3341 1997 
L 3341 0 
L 2766 0 
L 2766 531 
Q 2569 213 2275 61 
Q 1981 -91 1556 -91 
Q 1019 -91 701 211 
Q 384 513 384 1019 
Q 384 1609 779 1909 
Q 1175 2209 1959 2209 
L 2766 2209 
L 2766 2266 
Q 2766 2663 2505 2880 
Q 2244 3097 1772 3097 
Q 1472 3097 1187 3025 
Q 903 2953 641 2809 
L 641 3341 
Q 956 3463 1253 3523 
Q 1550 3584 1831 3584 
Q 2591 3584 2966 3190 
Q 3341 2797 3341 1997 
z
" transform="scale(0.015625)"/>
       <path id="DejaVuSans-72" d="M 2631 2963 
Q 2534 3019 2420 3045 
Q 2306 3072 2169 3072 
Q 1681 3072 1420 2755 
Q 1159 2438 1159 1844 
L 1159 0 
L 581 0 
L 581 3500 
L 1159 3500 
L 1159 2956 
Q 1341 3275 1631 3429 
Q 1922 3584 2338 3584 
Q 2397 3584 2469 3576 
Q 2541 3569 2628 3553 
L 2631 2963 
z
" transform="scale(0.015625)"/>
       <path id="DejaVuSans-6e" d="M 3513 2113 
L 3513 0 
L 2938 0 
L 2938 2094 
Q 2938 2591 2744 2837 
Q 2550 3084 2163 3084 
Q 1697 3084 1428 2787 
Q 1159 2491 1159 1978 
L 1159 0 
L 581 0 
L 581 3500 
L 1159 3500 
L 1159 2956 
Q 1366 3272 1645 3428 
Q 1925 3584 2291 3584 
Q 2894 3584 3203 3211 
Q 3513 2838 3513 2113 
z
" transform="scale(0.015625)"/>
       <path id="DejaVuSans-64" d="M 2906 2969 
L 2906 4863 
L 3481 4863 
L 3481 0 
L 2906 0 
L 2906 525 
Q 2725 213 2448 61 
Q 2172 -91 1784 -91 
Q 1150 -91 751 415 
Q 353 922 353 1747 
Q 353 2572 751 3078 
Q 1150 3584 1784 3584 
Q 2172 3584 2448 3432 
Q 2725 3281 2906 2969 
z
M 947 1747 
Q 947 1113 1208 752 
Q 1469 391 1925 391 
Q 2381 391 2643 752 
Q 2906 1113 2906 1747 
Q 2906 2381 2643 2742 
Q 2381 3103 1925 3103 
Q 1469 3103 1208 2742 
Q 947 2381 947 1747 
z
" transform="scale(0.015625)"/>
       <path id="DejaVuSans-20" transform="scale(0.015625)"/>
       <path id="DejaVuSans-45" d="M 628 4666 
L 3578 4666 
L 3578 4134 
L 1259 4134 
L 1259 2753 
L 3481 2753 
L 3481 2222 
L 1259 2222 
L 1259 531 
L 3634 531 
L 3634 0 
L 628 0 
L 628 4666 
z
" transform="scale(0.015625)"/>
       <path id="DejaVuSans-70" d="M 1159 525 
L 1159 -1331 
L 581 -1331 
L 581 3500 
L 1159 3500 
L 1159 2969 
Q 1341 3281 1617 3432 
Q 1894 3584 2278 3584 
Q 2916 3584 3314 3078 
Q 3713 2572 3713 1747 
Q 3713 922 3314 415 
Q 2916 -91 2278 -91 
Q 1894 -91 1617 61 
Q 1341 213 1159 525 
z
M 3116 1747 
Q 3116 2381 2855 2742 
Q 2594 3103 2138 3103 
Q 1681 3103 1420 2742 
Q 1159 2381 1159 1747 
Q 1159 1113 1420 752 
Q 1681 391 2138 391 
Q 2594 391 2855 752 
Q 3116 1113 3116 1747 
z
" transform="scale(0.015625)"/>
       <path id="DejaVuSans-69" d="M 603 3500 
L 1178 3500 
L 1178 0 
L 603 0 
L 603 3500 
z
M 603 4863 
L 1178 4863 
L 1178 4134 
L 603 4134 
L 603 4863 
z
" transform="scale(0.015625)"/>
       <path id="DejaVuSans-73" d="M 2834 3397 
L 2834 2853 
Q 2591 2978 2328 3040 
Q 2066 3103 1784 3103 
Q 1356 3103 1142 2972 
Q 928 2841 928 2578 
Q 928 2378 1081 2264 
Q 1234 2150 1697 2047 
L 1894 2003 
Q 2506 1872 2764 1633 
Q 3022 1394 3022 966 
Q 3022 478 2636 193 
Q 2250 -91 1575 -91 
Q 1294 -91 989 -36 
Q 684 19 347 128 
L 347 722 
Q 666 556 975 473 
Q 1284 391 1588 391 
Q 1994 391 2212 530 
Q 2431 669 2431 922 
Q 2431 1156 2273 1281 
Q 2116 1406 1581 1522 
L 1381 1569 
Q 847 1681 609 1914 
Q 372 2147 372 2553 
Q 372 3047 722 3315 
Q 1072 3584 1716 3584 
Q 2034 3584 2315 3537 
Q 2597 3491 2834 3397 
z
" transform="scale(0.015625)"/>
       <path id="DejaVuSans-6f" d="M 1959 3097 
Q 1497 3097 1228 2736 
Q 959 2375 959 1747 
Q 959 1119 1226 758 
Q 1494 397 1959 397 
Q 2419 397 2687 759 
Q 2956 1122 2956 1747 
Q 2956 2369 2687 2733 
Q 2419 3097 1959 3097 
z
M 1959 3584 
Q 2709 3584 3137 3096 
Q 3566 2609 3566 1747 
Q 3566 888 3137 398 
Q 2709 -91 1959 -91 
Q 1206 -91 779 398 
Q 353 888 353 1747 
Q 353 2609 779 3096 
Q 1206 3584 1959 3584 
z
" transform="scale(0.015625)"/>
      </defs>
      <use xlink:href="#DejaVuSans-4c"/>
      <use xlink:href="#DejaVuSans-65" x="53.962891"/>
      <use xlink:href="#DejaVuSans-61" x="115.486328"/>
      <use xlink:href="#DejaVuSans-72" x="176.765625"/>
      <use xlink:href="#DejaVuSans-6e" x="216.128906"/>
      <use xlink:href="#DejaVuSans-65" x="279.507812"/>
      <use xlink:href="#DejaVuSans-64" x="341.03125"/>
      <use xlink:href="#DejaVuSans-20" x="404.507812"/>
      <use xlink:href="#DejaVuSans-45" x="436.294922"/>
      <use xlink:href="#DejaVuSans-70" x="499.478516"/>
      <use xlink:href="#DejaVuSans-69" x="562.955078"/>
      <use xlink:href="#DejaVuSans-73" x="590.738281"/>
      <use xlink:href="#DejaVuSans-6f" x="642.837891"/>
      <use xlink:href="#DejaVuSans-64" x="704.019531"/>
      <use xlink:href="#DejaVuSans-65" x="767.496094"/>
      <use xlink:href="#DejaVuSans-73" x="829.019531"/>
     </g>
    </g>
   </g>
   <g id="matplotlib.axis_2">
    <g id="ytick_1">
     <g id="line2d_13">
      <path d="M 57.6 303.756345 
L 414.72 303.756345 
" clip-path="url(#pab08344b6d)" style="fill: none; stroke-dasharray: 2.96,1.28; stroke-dashoffset: 0; stroke: #b0b0b0; stroke-width: 0.8"/>
     </g>
     <g id="line2d_14">
      <defs>
       <path id="mf355431017" d="M 0 0 
L -3.5 0 
" style="stroke: #000000; stroke-width: 0.8"/>
      </defs>
      <g>
       <use xlink:href="#mf355431017" x="57.6" y="303.756345" style="stroke: #000000; stroke-width: 0.8"/>
      </g>
     </g>
     <g id="text_8">
      <!-- 100 -->
      <g transform="translate(31.5125 307.555563)scale(0.1 -0.1)">
       <use xlink:href="#DejaVuSans-31"/>
       <use xlink:href="#DejaVuSans-30" x="63.623047"/>
       <use xlink:href="#DejaVuSans-30" x="127.246094"/>
      </g>
     </g>
    </g>
    <g id="ytick_2">
     <g id="line2d_15">
      <path d="M 57.6 272.416711 
L 414.72 272.416711 
" clip-path="url(#pab08344b6d)" style="fill: none; stroke-dasharray: 2.96,1.28; stroke-dashoffset: 0; stroke: #b0b0b0; stroke-width: 0.8"/>
     </g>
     <g id="line2d_16">
      <g>
       <use xlink:href="#mf355431017" x="57.6" y="272.416711" style="stroke: #000000; stroke-width: 0.8"/>
      </g>
     </g>
     <g id="text_9">
      <!-- 200 -->
      <g transform="translate(31.5125 276.215929)scale(0.1 -0.1)">
       <use xlink:href="#DejaVuSans-32"/>
       <use xlink:href="#DejaVuSans-30" x="63.623047"/>
       <use xlink:href="#DejaVuSans-30" x="127.246094"/>
      </g>
     </g>
    </g>
    <g id="ytick_3">
     <g id="line2d_17">
      <path d="M 57.6 241.077077 
L 414.72 241.077077 
" clip-path="url(#pab08344b6d)" style="fill: none; stroke-dasharray: 2.96,1.28; stroke-dashoffset: 0; stroke: #b0b0b0; stroke-width: 0.8"/>
     </g>
     <g id="line2d_18">
      <g>
       <use xlink:href="#mf355431017" x="57.6" y="241.077077" style="stroke: #000000; stroke-width: 0.8"/>
      </g>
     </g>
     <g id="text_10">
      <!-- 300 -->
      <g transform="translate(31.5125 244.876296)scale(0.1 -0.1)">
       <use xlink:href="#DejaVuSans-33"/>
       <use xlink:href="#DejaVuSans-30" x="63.623047"/>
       <use xlink:href="#DejaVuSans-30" x="127.246094"/>
      </g>
     </g>
    </g>
    <g id="ytick_4">
     <g id="line2d_19">
      <path d="M 57.6 209.737443 
L 414.72 209.737443 
" clip-path="url(#pab08344b6d)" style="fill: none; stroke-dasharray: 2.96,1.28; stroke-dashoffset: 0; stroke: #b0b0b0; stroke-width: 0.8"/>
     </g>
     <g id="line2d_20">
      <g>
       <use xlink:href="#mf355431017" x="57.6" y="209.737443" style="stroke: #000000; stroke-width: 0.8"/>
      </g>
     </g>
     <g id="text_11">
      <!-- 400 -->
      <g transform="translate(31.5125 213.536662)scale(0.1 -0.1)">
       <use xlink:href="#DejaVuSans-34"/>
       <use xlink:href="#DejaVuSans-30" x="63.623047"/>
       <use xlink:href="#DejaVuSans-30" x="127.246094"/>
      </g>
     </g>
    </g>
    <g id="ytick_5">
     <g id="line2d_21">
      <path d="M 57.6 178.397809 
L 414.72 178.397809 
" clip-path="url(#pab08344b6d)" style="fill: none; stroke-dasharray: 2.96,1.28; stroke-dashoffset: 0; stroke: #b0b0b0; stroke-width: 0.8"/>
     </g>
     <g id="line2d_22">
      <g>
       <use xlink:href="#mf355431017" x="57.6" y="178.397809" style="stroke: #000000; stroke-width: 0.8"/>
      </g>
     </g>
     <g id="text_12">
      <!-- 500 -->
      <g transform="translate(31.5125 182.197028)scale(0.1 -0.1)">
       <use xlink:href="#DejaVuSans-35"/>
       <use xlink:href="#DejaVuSans-30" x="63.623047"/>
       <use xlink:href="#DejaVuSans-30" x="127.246094"/>
      </g>
     </g>
    </g>
    <g id="ytick_6">
     <g id="line2d_23">
      <path d="M 57.6 147.058176 
L 414.72 147.058176 
" clip-path="url(#pab08344b6d)" style="fill: none; stroke-dasharray: 2.96,1.28; stroke-dashoffset: 0; stroke: #b0b0b0; stroke-width: 0.8"/>
     </g>
     <g id="line2d_24">
      <g>
       <use xlink:href="#mf355431017" x="57.6" y="147.058176" style="stroke: #000000; stroke-width: 0.8"/>
      </g>
     </g>
     <g id="text_13">
      <!-- 600 -->
      <g transform="translate(31.5125 150.857394)scale(0.1 -0.1)">
       <use xlink:href="#DejaVuSans-36"/>
       <use xlink:href="#DejaVuSans-30" x="63.623047"/>
       <use xlink:href="#DejaVuSans-30" x="127.246094"/>
      </g>
     </g>
    </g>
    <g id="ytick_7">
     <g id="line2d_25">
      <path d="M 57.6 115.718542 
L 414.72 115.718542 
" clip-path="url(#pab08344b6d)" style="fill: none; stroke-dasharray: 2.96,1.28; stroke-dashoffset: 0; stroke: #b0b0b0; stroke-width: 0.8"/>
     </g>
     <g id="line2d_26">
      <g>
       <use xlink:href="#mf355431017" x="57.6" y="115.718542" style="stroke: #000000; stroke-width: 0.8"/>
      </g>
     </g>
     <g id="text_14">
      <!-- 700 -->
      <g transform="translate(31.5125 119.517761)scale(0.1 -0.1)">
       <defs>
        <path id="DejaVuSans-37" d="M 525 4666 
L 3525 4666 
L 3525 4397 
L 1831 0 
L 1172 0 
L 2766 4134 
L 525 4134 
L 525 4666 
z
" transform="scale(0.015625)"/>
       </defs>
       <use xlink:href="#DejaVuSans-37"/>
       <use xlink:href="#DejaVuSans-30" x="63.623047"/>
       <use xlink:href="#DejaVuSans-30" x="127.246094"/>
      </g>
     </g>
    </g>
    <g id="ytick_8">
     <g id="line2d_27">
      <path d="M 57.6 84.378908 
L 414.72 84.378908 
" clip-path="url(#pab08344b6d)" style="fill: none; stroke-dasharray: 2.96,1.28; stroke-dashoffset: 0; stroke: #b0b0b0; stroke-width: 0.8"/>
     </g>
     <g id="line2d_28">
      <g>
       <use xlink:href="#mf355431017" x="57.6" y="84.378908" style="stroke: #000000; stroke-width: 0.8"/>
      </g>
     </g>
     <g id="text_15">
      <!-- 800 -->
      <g transform="translate(31.5125 88.178127)scale(0.1 -0.1)">
       <defs>
        <path id="DejaVuSans-38" d="M 2034 2216 
Q 1584 2216 1326 1975 
Q 1069 1734 1069 1313 
Q 1069 891 1326 650 
Q 1584 409 2034 409 
Q 2484 409 2743 651 
Q 3003 894 3003 1313 
Q 3003 1734 2745 1975 
Q 2488 2216 2034 2216 
z
M 1403 2484 
Q 997 2584 770 2862 
Q 544 3141 544 3541 
Q 544 4100 942 4425 
Q 1341 4750 2034 4750 
Q 2731 4750 3128 4425 
Q 3525 4100 3525 3541 
Q 3525 3141 3298 2862 
Q 3072 2584 2669 2484 
Q 3125 2378 3379 2068 
Q 3634 1759 3634 1313 
Q 3634 634 3220 271 
Q 2806 -91 2034 -91 
Q 1263 -91 848 271 
Q 434 634 434 1313 
Q 434 1759 690 2068 
Q 947 2378 1403 2484 
z
M 1172 3481 
Q 1172 3119 1398 2916 
Q 1625 2713 2034 2713 
Q 2441 2713 2670 2916 
Q 2900 3119 2900 3481 
Q 2900 3844 2670 4047 
Q 2441 4250 2034 4250 
Q 1625 4250 1398 4047 
Q 1172 3844 1172 3481 
z
" transform="scale(0.015625)"/>
       </defs>
       <use xlink:href="#DejaVuSans-38"/>
       <use xlink:href="#DejaVuSans-30" x="63.623047"/>
       <use xlink:href="#DejaVuSans-30" x="127.246094"/>
      </g>
     </g>
    </g>
    <g id="ytick_9">
     <g id="line2d_29">
      <path d="M 57.6 53.039274 
L 414.72 53.039274 
" clip-path="url(#pab08344b6d)" style="fill: none; stroke-dasharray: 2.96,1.28; stroke-dashoffset: 0; stroke: #b0b0b0; stroke-width: 0.8"/>
     </g>
     <g id="line2d_30">
      <g>
       <use xlink:href="#mf355431017" x="57.6" y="53.039274" style="stroke: #000000; stroke-width: 0.8"/>
      </g>
     </g>
     <g id="text_16">
      <!-- 900 -->
      <g transform="translate(31.5125 56.838493)scale(0.1 -0.1)">
       <defs>
        <path id="DejaVuSans-39" d="M 703 97 
L 703 672 
Q 941 559 1184 500 
Q 1428 441 1663 441 
Q 2288 441 2617 861 
Q 2947 1281 2994 2138 
Q 2813 1869 2534 1725 
Q 2256 1581 1919 1581 
Q 1219 1581 811 2004 
Q 403 2428 403 3163 
Q 403 3881 828 4315 
Q 1253 4750 1959 4750 
Q 2769 4750 3195 4129 
Q 3622 3509 3622 2328 
Q 3622 1225 3098 567 
Q 2575 -91 1691 -91 
Q 1453 -91 1209 -44 
Q 966 3 703 97 
z
M 1959 2075 
Q 2384 2075 2632 2365 
Q 2881 2656 2881 3163 
Q 2881 3666 2632 3958 
Q 2384 4250 1959 4250 
Q 1534 4250 1286 3958 
Q 1038 3666 1038 3163 
Q 1038 2656 1286 2365 
Q 1534 2075 1959 2075 
z
" transform="scale(0.015625)"/>
       </defs>
       <use xlink:href="#DejaVuSans-39"/>
       <use xlink:href="#DejaVuSans-30" x="63.623047"/>
       <use xlink:href="#DejaVuSans-30" x="127.246094"/>
      </g>
     </g>
    </g>
    <g id="text_17">
     <!-- Reward Density -->
     <g transform="translate(25.432812 213.74675)rotate(-90)scale(0.1 -0.1)">
      <defs>
       <path id="DejaVuSans-52" d="M 2841 2188 
Q 3044 2119 3236 1894 
Q 3428 1669 3622 1275 
L 4263 0 
L 3584 0 
L 2988 1197 
Q 2756 1666 2539 1819 
Q 2322 1972 1947 1972 
L 1259 1972 
L 1259 0 
L 628 0 
L 628 4666 
L 2053 4666 
Q 2853 4666 3247 4331 
Q 3641 3997 3641 3322 
Q 3641 2881 3436 2590 
Q 3231 2300 2841 2188 
z
M 1259 4147 
L 1259 2491 
L 2053 2491 
Q 2509 2491 2742 2702 
Q 2975 2913 2975 3322 
Q 2975 3731 2742 3939 
Q 2509 4147 2053 4147 
L 1259 4147 
z
" transform="scale(0.015625)"/>
       <path id="DejaVuSans-77" d="M 269 3500 
L 844 3500 
L 1563 769 
L 2278 3500 
L 2956 3500 
L 3675 769 
L 4391 3500 
L 4966 3500 
L 4050 0 
L 3372 0 
L 2619 2869 
L 1863 0 
L 1184 0 
L 269 3500 
z
" transform="scale(0.015625)"/>
       <path id="DejaVuSans-44" d="M 1259 4147 
L 1259 519 
L 2022 519 
Q 2988 519 3436 956 
Q 3884 1394 3884 2338 
Q 3884 3275 3436 3711 
Q 2988 4147 2022 4147 
L 1259 4147 
z
M 628 4666 
L 1925 4666 
Q 3281 4666 3915 4102 
Q 4550 3538 4550 2338 
Q 4550 1131 3912 565 
Q 3275 0 1925 0 
L 628 0 
L 628 4666 
z
" transform="scale(0.015625)"/>
       <path id="DejaVuSans-74" d="M 1172 4494 
L 1172 3500 
L 2356 3500 
L 2356 3053 
L 1172 3053 
L 1172 1153 
Q 1172 725 1289 603 
Q 1406 481 1766 481 
L 2356 481 
L 2356 0 
L 1766 0 
Q 1100 0 847 248 
Q 594 497 594 1153 
L 594 3053 
L 172 3053 
L 172 3500 
L 594 3500 
L 594 4494 
L 1172 4494 
z
" transform="scale(0.015625)"/>
       <path id="DejaVuSans-79" d="M 2059 -325 
Q 1816 -950 1584 -1140 
Q 1353 -1331 966 -1331 
L 506 -1331 
L 506 -850 
L 844 -850 
Q 1081 -850 1212 -737 
Q 1344 -625 1503 -206 
L 1606 56 
L 191 3500 
L 800 3500 
L 1894 763 
L 2988 3500 
L 3597 3500 
L 2059 -325 
z
" transform="scale(0.015625)"/>
      </defs>
      <use xlink:href="#DejaVuSans-52"/>
      <use xlink:href="#DejaVuSans-65" x="64.982422"/>
      <use xlink:href="#DejaVuSans-77" x="126.505859"/>
      <use xlink:href="#DejaVuSans-61" x="208.292969"/>
      <use xlink:href="#DejaVuSans-72" x="269.572266"/>
      <use xlink:href="#DejaVuSans-64" x="308.935547"/>
      <use xlink:href="#DejaVuSans-20" x="372.412109"/>
      <use xlink:href="#DejaVuSans-44" x="404.199219"/>
      <use xlink:href="#DejaVuSans-65" x="481.201172"/>
      <use xlink:href="#DejaVuSans-6e" x="542.724609"/>
      <use xlink:href="#DejaVuSans-73" x="606.103516"/>
      <use xlink:href="#DejaVuSans-69" x="658.203125"/>
      <use xlink:href="#DejaVuSans-74" x="685.986328"/>
      <use xlink:href="#DejaVuSans-79" x="725.195312"/>
     </g>
    </g>
   </g>
   <g id="LineCollection_1">
    <path d="M 90.919809 180.966839 
L 125.093971 180.966839 
" clip-path="url(#pab08344b6d)" style="fill: none; stroke: #1f77b4; stroke-width: 1.5"/>
    <path d="M 176.355215 181.550294 
L 210.529378 181.550294 
" clip-path="url(#pab08344b6d)" style="fill: none; stroke: #1f77b4; stroke-width: 1.5"/>
    <path d="M 261.790622 187.269836 
L 295.964785 187.269836 
" clip-path="url(#pab08344b6d)" style="fill: none; stroke: #1f77b4; stroke-width: 1.5"/>
    <path d="M 347.226029 190.312224 
L 381.400191 190.312224 
" clip-path="url(#pab08344b6d)" style="fill: none; stroke: #1f77b4; stroke-width: 1.5"/>
   </g>
   <g id="LineCollection_2">
    <path d="M 90.919809 119.155695 
L 125.093971 119.155695 
" clip-path="url(#pab08344b6d)" style="fill: none; stroke: #1f77b4; stroke-width: 1.5"/>
    <path d="M 176.355215 78.133309 
L 210.529378 78.133309 
" clip-path="url(#pab08344b6d)" style="fill: none; stroke: #1f77b4; stroke-width: 1.5"/>
    <path d="M 261.790622 53.568 
L 295.964785 53.568 
" clip-path="url(#pab08344b6d)" style="fill: none; stroke: #1f77b4; stroke-width: 1.5"/>
    <path d="M 347.226029 69.996197 
L 381.400191 69.996197 
" clip-path="url(#pab08344b6d)" style="fill: none; stroke: #1f77b4; stroke-width: 1.5"/>
   </g>
   <g id="LineCollection_3">
    <path d="M 90.919809 246.499876 
L 125.093971 246.499876 
" clip-path="url(#pab08344b6d)" style="fill: none; stroke: #1f77b4; stroke-width: 1.5"/>
    <path d="M 176.355215 260.548744 
L 210.529378 260.548744 
" clip-path="url(#pab08344b6d)" style="fill: none; stroke: #1f77b4; stroke-width: 1.5"/>
    <path d="M 261.790622 282.074992 
L 295.964785 282.074992 
" clip-path="url(#pab08344b6d)" style="fill: none; stroke: #1f77b4; stroke-width: 1.5"/>
    <path d="M 347.226029 295.488 
L 381.400191 295.488 
" clip-path="url(#pab08344b6d)" style="fill: none; stroke: #1f77b4; stroke-width: 1.5"/>
   </g>
   <g id="LineCollection_4">
    <path d="M 108.00689 246.499876 
L 108.00689 119.155695 
" clip-path="url(#pab08344b6d)" style="fill: none; stroke: #1f77b4; stroke-width: 1.5"/>
    <path d="M 193.442297 260.548744 
L 193.442297 78.133309 
" clip-path="url(#pab08344b6d)" style="fill: none; stroke: #1f77b4; stroke-width: 1.5"/>
    <path d="M 278.877703 282.074992 
L 278.877703 53.568 
" clip-path="url(#pab08344b6d)" style="fill: none; stroke: #1f77b4; stroke-width: 1.5"/>
    <path d="M 364.31311 295.488 
L 364.31311 69.996197 
" clip-path="url(#pab08344b6d)" style="fill: none; stroke: #1f77b4; stroke-width: 1.5"/>
   </g>
   <g id="line2d_31">
    <path d="M 108.00689 180.966839 
L 193.442297 181.550294 
L 278.877703 187.269836 
L 364.31311 190.312224 
" clip-path="url(#pab08344b6d)" style="fill: none; stroke: #4682b4; stroke-width: 1.5; stroke-linecap: square"/>
   </g>
   <g id="line2d_32">
    <path d="M 108.00689 180.966839 
L 193.442297 181.550294 
L 278.877703 187.269836 
L 364.31311 190.312224 
" clip-path="url(#pab08344b6d)" style="fill: none; stroke: #4682b4; stroke-width: 1.5; stroke-linecap: square"/>
   </g>
   <g id="patch_3">
    <path d="M 57.6 307.584 
L 57.6 41.472 
" style="fill: none; stroke: #000000; stroke-width: 0.8; stroke-linejoin: miter; stroke-linecap: square"/>
   </g>
   <g id="patch_4">
    <path d="M 414.72 307.584 
L 414.72 41.472 
" style="fill: none; stroke: #000000; stroke-width: 0.8; stroke-linejoin: miter; stroke-linecap: square"/>
   </g>
   <g id="patch_5">
    <path d="M 57.6 307.584 
L 414.72 307.584 
" style="fill: none; stroke: #000000; stroke-width: 0.8; stroke-linejoin: miter; stroke-linecap: square"/>
   </g>
   <g id="patch_6">
    <path d="M 57.6 41.472 
L 414.72 41.472 
" style="fill: none; stroke: #000000; stroke-width: 0.8; stroke-linejoin: miter; stroke-linecap: square"/>
   </g>
   <g id="text_18">
    <!-- Violinplot for progress of profits/by_selling_new -->
    <g transform="translate(94.379063 35.472)scale(0.12 -0.12)">
     <defs>
      <path id="DejaVuSans-56" d="M 1831 0 
L 50 4666 
L 709 4666 
L 2188 738 
L 3669 4666 
L 4325 4666 
L 2547 0 
L 1831 0 
z
" transform="scale(0.015625)"/>
      <path id="DejaVuSans-6c" d="M 603 4863 
L 1178 4863 
L 1178 0 
L 603 0 
L 603 4863 
z
" transform="scale(0.015625)"/>
      <path id="DejaVuSans-66" d="M 2375 4863 
L 2375 4384 
L 1825 4384 
Q 1516 4384 1395 4259 
Q 1275 4134 1275 3809 
L 1275 3500 
L 2222 3500 
L 2222 3053 
L 1275 3053 
L 1275 0 
L 697 0 
L 697 3053 
L 147 3053 
L 147 3500 
L 697 3500 
L 697 3744 
Q 697 4328 969 4595 
Q 1241 4863 1831 4863 
L 2375 4863 
z
" transform="scale(0.015625)"/>
      <path id="DejaVuSans-67" d="M 2906 1791 
Q 2906 2416 2648 2759 
Q 2391 3103 1925 3103 
Q 1463 3103 1205 2759 
Q 947 2416 947 1791 
Q 947 1169 1205 825 
Q 1463 481 1925 481 
Q 2391 481 2648 825 
Q 2906 1169 2906 1791 
z
M 3481 434 
Q 3481 -459 3084 -895 
Q 2688 -1331 1869 -1331 
Q 1566 -1331 1297 -1286 
Q 1028 -1241 775 -1147 
L 775 -588 
Q 1028 -725 1275 -790 
Q 1522 -856 1778 -856 
Q 2344 -856 2625 -561 
Q 2906 -266 2906 331 
L 2906 616 
Q 2728 306 2450 153 
Q 2172 0 1784 0 
Q 1141 0 747 490 
Q 353 981 353 1791 
Q 353 2603 747 3093 
Q 1141 3584 1784 3584 
Q 2172 3584 2450 3431 
Q 2728 3278 2906 2969 
L 2906 3500 
L 3481 3500 
L 3481 434 
z
" transform="scale(0.015625)"/>
      <path id="DejaVuSans-2f" d="M 1625 4666 
L 2156 4666 
L 531 -594 
L 0 -594 
L 1625 4666 
z
" transform="scale(0.015625)"/>
      <path id="DejaVuSans-62" d="M 3116 1747 
Q 3116 2381 2855 2742 
Q 2594 3103 2138 3103 
Q 1681 3103 1420 2742 
Q 1159 2381 1159 1747 
Q 1159 1113 1420 752 
Q 1681 391 2138 391 
Q 2594 391 2855 752 
Q 3116 1113 3116 1747 
z
M 1159 2969 
Q 1341 3281 1617 3432 
Q 1894 3584 2278 3584 
Q 2916 3584 3314 3078 
Q 3713 2572 3713 1747 
Q 3713 922 3314 415 
Q 2916 -91 2278 -91 
Q 1894 -91 1617 61 
Q 1341 213 1159 525 
L 1159 0 
L 581 0 
L 581 4863 
L 1159 4863 
L 1159 2969 
z
" transform="scale(0.015625)"/>
      <path id="DejaVuSans-5f" d="M 3263 -1063 
L 3263 -1509 
L -63 -1509 
L -63 -1063 
L 3263 -1063 
z
" transform="scale(0.015625)"/>
     </defs>
     <use xlink:href="#DejaVuSans-56"/>
     <use xlink:href="#DejaVuSans-69" x="66.158203"/>
     <use xlink:href="#DejaVuSans-6f" x="93.941406"/>
     <use xlink:href="#DejaVuSans-6c" x="155.123047"/>
     <use xlink:href="#DejaVuSans-69" x="182.90625"/>
     <use xlink:href="#DejaVuSans-6e" x="210.689453"/>
     <use xlink:href="#DejaVuSans-70" x="274.068359"/>
     <use xlink:href="#DejaVuSans-6c" x="337.544922"/>
     <use xlink:href="#DejaVuSans-6f" x="365.328125"/>
     <use xlink:href="#DejaVuSans-74" x="426.509766"/>
     <use xlink:href="#DejaVuSans-20" x="465.71875"/>
     <use xlink:href="#DejaVuSans-66" x="497.505859"/>
     <use xlink:href="#DejaVuSans-6f" x="532.710938"/>
     <use xlink:href="#DejaVuSans-72" x="593.892578"/>
     <use xlink:href="#DejaVuSans-20" x="635.005859"/>
     <use xlink:href="#DejaVuSans-70" x="666.792969"/>
     <use xlink:href="#DejaVuSans-72" x="730.269531"/>
     <use xlink:href="#DejaVuSans-6f" x="769.132812"/>
     <use xlink:href="#DejaVuSans-67" x="830.314453"/>
     <use xlink:href="#DejaVuSans-72" x="893.791016"/>
     <use xlink:href="#DejaVuSans-65" x="932.654297"/>
     <use xlink:href="#DejaVuSans-73" x="994.177734"/>
     <use xlink:href="#DejaVuSans-73" x="1046.277344"/>
     <use xlink:href="#DejaVuSans-20" x="1098.376953"/>
     <use xlink:href="#DejaVuSans-6f" x="1130.164062"/>
     <use xlink:href="#DejaVuSans-66" x="1191.345703"/>
     <use xlink:href="#DejaVuSans-20" x="1226.550781"/>
     <use xlink:href="#DejaVuSans-70" x="1258.337891"/>
     <use xlink:href="#DejaVuSans-72" x="1321.814453"/>
     <use xlink:href="#DejaVuSans-6f" x="1360.677734"/>
     <use xlink:href="#DejaVuSans-66" x="1421.859375"/>
     <use xlink:href="#DejaVuSans-69" x="1457.064453"/>
     <use xlink:href="#DejaVuSans-74" x="1484.847656"/>
     <use xlink:href="#DejaVuSans-73" x="1524.056641"/>
     <use xlink:href="#DejaVuSans-2f" x="1576.15625"/>
     <use xlink:href="#DejaVuSans-62" x="1609.847656"/>
     <use xlink:href="#DejaVuSans-79" x="1673.324219"/>
     <use xlink:href="#DejaVuSans-5f" x="1732.503906"/>
     <use xlink:href="#DejaVuSans-73" x="1782.503906"/>
     <use xlink:href="#DejaVuSans-65" x="1834.603516"/>
     <use xlink:href="#DejaVuSans-6c" x="1896.126953"/>
     <use xlink:href="#DejaVuSans-6c" x="1923.910156"/>
     <use xlink:href="#DejaVuSans-69" x="1951.693359"/>
     <use xlink:href="#DejaVuSans-6e" x="1979.476562"/>
     <use xlink:href="#DejaVuSans-67" x="2042.855469"/>
     <use xlink:href="#DejaVuSans-5f" x="2106.332031"/>
     <use xlink:href="#DejaVuSans-6e" x="2156.332031"/>
     <use xlink:href="#DejaVuSans-65" x="2219.710938"/>
     <use xlink:href="#DejaVuSans-77" x="2281.234375"/>
    </g>
   </g>
   <g id="legend_1">
    <g id="patch_7">
     <path d="M 276.25125 64.150125 
L 407.72 64.150125 
Q 409.72 64.150125 409.72 62.150125 
L 409.72 48.472 
Q 409.72 46.472 407.72 46.472 
L 276.25125 46.472 
Q 274.25125 46.472 274.25125 48.472 
L 274.25125 62.150125 
Q 274.25125 64.150125 276.25125 64.150125 
z
" style="fill: #ffffff; opacity: 0.8; stroke: #cccccc; stroke-linejoin: miter"/>
    </g>
    <g id="line2d_33">
     <path d="M 278.25125 54.570438 
L 288.25125 54.570438 
L 298.25125 54.570438 
" style="fill: none; stroke: #4682b4; stroke-width: 1.5; stroke-linecap: square"/>
    </g>
    <g id="text_19">
     <!-- StableBaselinesSAC -->
     <g transform="translate(306.25125 58.070438)scale(0.1 -0.1)">
      <defs>
       <path id="DejaVuSans-53" d="M 3425 4513 
L 3425 3897 
Q 3066 4069 2747 4153 
Q 2428 4238 2131 4238 
Q 1616 4238 1336 4038 
Q 1056 3838 1056 3469 
Q 1056 3159 1242 3001 
Q 1428 2844 1947 2747 
L 2328 2669 
Q 3034 2534 3370 2195 
Q 3706 1856 3706 1288 
Q 3706 609 3251 259 
Q 2797 -91 1919 -91 
Q 1588 -91 1214 -16 
Q 841 59 441 206 
L 441 856 
Q 825 641 1194 531 
Q 1563 422 1919 422 
Q 2459 422 2753 634 
Q 3047 847 3047 1241 
Q 3047 1584 2836 1778 
Q 2625 1972 2144 2069 
L 1759 2144 
Q 1053 2284 737 2584 
Q 422 2884 422 3419 
Q 422 4038 858 4394 
Q 1294 4750 2059 4750 
Q 2388 4750 2728 4690 
Q 3069 4631 3425 4513 
z
" transform="scale(0.015625)"/>
       <path id="DejaVuSans-42" d="M 1259 2228 
L 1259 519 
L 2272 519 
Q 2781 519 3026 730 
Q 3272 941 3272 1375 
Q 3272 1813 3026 2020 
Q 2781 2228 2272 2228 
L 1259 2228 
z
M 1259 4147 
L 1259 2741 
L 2194 2741 
Q 2656 2741 2882 2914 
Q 3109 3088 3109 3444 
Q 3109 3797 2882 3972 
Q 2656 4147 2194 4147 
L 1259 4147 
z
M 628 4666 
L 2241 4666 
Q 2963 4666 3353 4366 
Q 3744 4066 3744 3513 
Q 3744 3084 3544 2831 
Q 3344 2578 2956 2516 
Q 3422 2416 3680 2098 
Q 3938 1781 3938 1306 
Q 3938 681 3513 340 
Q 3088 0 2303 0 
L 628 0 
L 628 4666 
z
" transform="scale(0.015625)"/>
       <path id="DejaVuSans-41" d="M 2188 4044 
L 1331 1722 
L 3047 1722 
L 2188 4044 
z
M 1831 4666 
L 2547 4666 
L 4325 0 
L 3669 0 
L 3244 1197 
L 1141 1197 
L 716 0 
L 50 0 
L 1831 4666 
z
" transform="scale(0.015625)"/>
       <path id="DejaVuSans-43" d="M 4122 4306 
L 4122 3641 
Q 3803 3938 3442 4084 
Q 3081 4231 2675 4231 
Q 1875 4231 1450 3742 
Q 1025 3253 1025 2328 
Q 1025 1406 1450 917 
Q 1875 428 2675 428 
Q 3081 428 3442 575 
Q 3803 722 4122 1019 
L 4122 359 
Q 3791 134 3420 21 
Q 3050 -91 2638 -91 
Q 1578 -91 968 557 
Q 359 1206 359 2328 
Q 359 3453 968 4101 
Q 1578 4750 2638 4750 
Q 3056 4750 3426 4639 
Q 3797 4528 4122 4306 
z
" transform="scale(0.015625)"/>
      </defs>
      <use xlink:href="#DejaVuSans-53"/>
      <use xlink:href="#DejaVuSans-74" x="63.476562"/>
      <use xlink:href="#DejaVuSans-61" x="102.685547"/>
      <use xlink:href="#DejaVuSans-62" x="163.964844"/>
      <use xlink:href="#DejaVuSans-6c" x="227.441406"/>
      <use xlink:href="#DejaVuSans-65" x="255.224609"/>
      <use xlink:href="#DejaVuSans-42" x="316.748047"/>
      <use xlink:href="#DejaVuSans-61" x="385.351562"/>
      <use xlink:href="#DejaVuSans-73" x="446.630859"/>
      <use xlink:href="#DejaVuSans-65" x="498.730469"/>
      <use xlink:href="#DejaVuSans-6c" x="560.253906"/>
      <use xlink:href="#DejaVuSans-69" x="588.037109"/>
      <use xlink:href="#DejaVuSans-6e" x="615.820312"/>
      <use xlink:href="#DejaVuSans-65" x="679.199219"/>
      <use xlink:href="#DejaVuSans-73" x="740.722656"/>
      <use xlink:href="#DejaVuSans-53" x="792.822266"/>
      <use xlink:href="#DejaVuSans-41" x="858.173828"/>
      <use xlink:href="#DejaVuSans-43" x="924.832031"/>
     </g>
    </g>
   </g>
  </g>
 </g>
 <defs>
  <clipPath id="pab08344b6d">
   <rect x="57.6" y="41.472" width="357.12" height="266.112"/>
  </clipPath>
 </defs>
</svg>
