<?xml version="1.0" encoding="utf-8" standalone="no"?>
<!DOCTYPE svg PUBLIC "-//W3C//DTD SVG 1.1//EN"
  "http://www.w3.org/Graphics/SVG/1.1/DTD/svg11.dtd">
<svg xmlns:xlink="http://www.w3.org/1999/xlink" width="460.8pt" height="345.6pt" viewBox="0 0 460.8 345.6" xmlns="http://www.w3.org/2000/svg" version="1.1">
 <metadata>
  <rdf:RDF xmlns:dc="http://purl.org/dc/elements/1.1/" xmlns:cc="http://creativecommons.org/ns#" xmlns:rdf="http://www.w3.org/1999/02/22-rdf-syntax-ns#">
   <cc:Work>
    <dc:type rdf:resource="http://purl.org/dc/dcmitype/StillImage"/>
    <dc:date>2022-06-20T20:26:29.538101</dc:date>
    <dc:format>image/svg+xml</dc:format>
    <dc:creator>
     <cc:Agent>
      <dc:title>Matplotlib v3.5.2, https://matplotlib.org/</dc:title>
     </cc:Agent>
    </dc:creator>
   </cc:Work>
  </rdf:RDF>
 </metadata>
 <defs>
  <style type="text/css">*{stroke-linejoin: round; stroke-linecap: butt}</style>
 </defs>
 <g id="figure_1">
  <g id="patch_1">
   <path d="M 0 345.6 
L 460.8 345.6 
L 460.8 0 
L 0 0 
z
" style="fill: #ffffff"/>
  </g>
  <g id="axes_1">
   <g id="patch_2">
    <path d="M 57.6 307.584 
L 414.72 307.584 
L 414.72 41.472 
L 57.6 41.472 
z
" style="fill: #ffffff"/>
   </g>
   <g id="PolyCollection_1">
    <path d="M 109.00455 267.923162 
L 107.009229 267.923162 
L 106.801079 266.212534 
L 106.568031 264.501906 
L 106.310549 262.791278 
L 106.029132 261.08065 
L 105.72381 259.370022 
L 105.393639 257.659394 
L 105.036315 255.948766 
L 104.64806 254.238138 
L 104.223877 252.52751 
L 103.758148 250.816882 
L 103.245478 249.106254 
L 102.681577 247.395626 
L 102.063974 245.684997 
L 101.392377 243.974369 
L 100.668627 242.263741 
L 99.896295 240.553113 
L 99.080092 238.842485 
L 98.225318 237.131857 
L 97.337547 235.421229 
L 96.422672 233.710601 
L 95.487302 231.999973 
L 94.539405 230.289345 
L 93.588978 228.578717 
L 92.648537 226.868089 
L 91.73318 225.157461 
L 90.860102 223.446833 
L 90.047466 221.736205 
L 89.312696 220.025576 
L 88.670319 218.314948 
L 88.129624 216.60432 
L 87.692495 214.893692 
L 87.351809 213.183064 
L 87.09078 211.472436 
L 86.883544 209.761808 
L 86.697075 208.05118 
L 86.494309 206.340552 
L 86.238101 204.629924 
L 85.89546 202.919296 
L 85.441412 201.208668 
L 84.861865 199.49804 
L 84.155037 197.787412 
L 83.33125 196.076784 
L 82.41122 194.366155 
L 81.423231 192.655527 
L 80.399793 190.944899 
L 79.374394 189.234271 
L 78.378835 187.523643 
L 77.441435 185.813015 
L 76.586053 184.102387 
L 75.831705 182.391759 
L 75.192422 180.681131 
L 74.67706 178.970503 
L 74.288958 177.259875 
L 74.025553 175.549247 
L 73.878232 173.838619 
L 73.832727 172.127991 
L 73.870257 170.417363 
L 73.969398 168.706734 
L 74.108436 166.996106 
L 74.267796 165.285478 
L 74.432114 163.57485 
L 74.591623 161.864222 
L 74.742729 160.153594 
L 74.887874 158.442966 
L 75.034905 156.732338 
L 75.196246 155.02171 
L 75.388097 153.311082 
L 75.629732 151.600454 
L 75.942862 149.889826 
L 76.350858 148.179198 
L 76.877665 146.46857 
L 77.546224 144.757942 
L 78.376421 143.047314 
L 79.38268 141.336685 
L 80.571547 139.626057 
L 81.939664 137.915429 
L 83.47259 136.204801 
L 85.144831 134.494173 
L 86.921243 132.783545 
L 88.759727 131.072917 
L 90.614886 129.362289 
L 92.442087 127.651661 
L 94.201289 125.941033 
L 95.860055 124.230405 
L 97.395323 122.519777 
L 98.7938 120.809149 
L 100.051106 119.098521 
L 101.170007 117.387893 
L 102.158214 115.677264 
L 103.026204 113.966636 
L 103.785402 112.256008 
L 104.446944 110.54538 
L 105.021028 108.834752 
L 105.516753 107.124124 
L 105.942275 105.413496 
L 106.305085 103.702868 
L 106.612252 101.99224 
L 106.870565 100.281612 
L 107.086517 98.570984 
L 108.927263 98.570984 
L 108.927263 98.570984 
L 109.143215 100.281612 
L 109.401527 101.99224 
L 109.708695 103.702868 
L 110.071504 105.413496 
L 110.497027 107.124124 
L 110.992752 108.834752 
L 111.566835 110.54538 
L 112.228378 112.256008 
L 112.987576 113.966636 
L 113.855565 115.677264 
L 114.843773 117.387893 
L 115.962674 119.098521 
L 117.219979 120.809149 
L 118.618457 122.519777 
L 120.153725 124.230405 
L 121.812491 125.941033 
L 123.571693 127.651661 
L 125.398894 129.362289 
L 127.254053 131.072917 
L 129.092537 132.783545 
L 130.868949 134.494173 
L 132.54119 136.204801 
L 134.074116 137.915429 
L 135.442233 139.626057 
L 136.6311 141.336685 
L 137.637359 143.047314 
L 138.467556 144.757942 
L 139.136115 146.46857 
L 139.662922 148.179198 
L 140.070918 149.889826 
L 140.384048 151.600454 
L 140.625683 153.311082 
L 140.817534 155.02171 
L 140.978875 156.732338 
L 141.125906 158.442966 
L 141.271051 160.153594 
L 141.422157 161.864222 
L 141.581665 163.57485 
L 141.745984 165.285478 
L 141.905344 166.996106 
L 142.044382 168.706734 
L 142.143523 170.417363 
L 142.181053 172.127991 
L 142.135548 173.838619 
L 141.988227 175.549247 
L 141.724822 177.259875 
L 141.33672 178.970503 
L 140.821358 180.681131 
L 140.182075 182.391759 
L 139.427727 184.102387 
L 138.572345 185.813015 
L 137.634945 187.523643 
L 136.639386 189.234271 
L 135.613986 190.944899 
L 134.590549 192.655527 
L 133.60256 194.366155 
L 132.68253 196.076784 
L 131.858743 197.787412 
L 131.151915 199.49804 
L 130.572367 201.208668 
L 130.118319 202.919296 
L 129.775679 204.629924 
L 129.51947 206.340552 
L 129.316704 208.05118 
L 129.130236 209.761808 
L 128.923 211.472436 
L 128.661971 213.183064 
L 128.321285 214.893692 
L 127.884156 216.60432 
L 127.343461 218.314948 
L 126.701084 220.025576 
L 125.966314 221.736205 
L 125.153678 223.446833 
L 124.280599 225.157461 
L 123.365243 226.868089 
L 122.424802 228.578717 
L 121.474375 230.289345 
L 120.526478 231.999973 
L 119.591108 233.710601 
L 118.676233 235.421229 
L 117.788462 237.131857 
L 116.933688 238.842485 
L 116.117485 240.553113 
L 115.345153 242.263741 
L 114.621403 243.974369 
L 113.949806 245.684997 
L 113.332202 247.395626 
L 112.768302 249.106254 
L 112.255632 250.816882 
L 111.789903 252.52751 
L 111.36572 254.238138 
L 110.977465 255.948766 
L 110.620141 257.659394 
L 110.28997 259.370022 
L 109.984648 261.08065 
L 109.70323 262.791278 
L 109.445749 264.501906 
L 109.212701 266.212534 
L 109.00455 267.923162 
z
" clip-path="url(#p2c43faf1b4)" style="fill: #1f77b4; fill-opacity: 0.3"/>
   </g>
   <g id="PolyCollection_2">
    <path d="M 195.13042 281.519985 
L 191.754173 281.519985 
L 191.487371 279.432289 
L 191.208216 277.344594 
L 190.918584 275.256899 
L 190.619589 273.169203 
L 190.311458 271.081508 
L 189.993438 268.993813 
L 189.663696 266.906118 
L 189.319184 264.818422 
L 188.955481 262.730727 
L 188.566702 260.643032 
L 188.145547 258.555336 
L 187.683624 256.467641 
L 187.172098 254.379946 
L 186.602632 252.29225 
L 185.968509 250.204555 
L 185.265688 248.11686 
L 184.493569 246.029165 
L 183.65524 243.941469 
L 182.75714 241.853774 
L 181.8082 239.766079 
L 180.818712 237.678383 
L 179.799229 235.590688 
L 178.75982 233.502993 
L 177.709831 231.415297 
L 176.658185 229.327602 
L 175.613991 227.239907 
L 174.587198 225.152212 
L 173.588951 223.064516 
L 172.631454 220.976821 
L 171.72729 218.889126 
L 170.888321 216.80143 
L 170.124396 214.713735 
L 169.442139 212.62604 
L 168.843985 210.538344 
L 168.327592 208.450649 
L 167.885618 206.362954 
L 167.505844 204.275258 
L 167.171616 202.187563 
L 166.86266 200.099868 
L 166.556329 198.012173 
L 166.229343 195.924477 
L 165.860004 193.836782 
L 165.430727 191.749087 
L 164.930548 189.661391 
L 164.35721 187.573696 
L 163.718347 185.486001 
L 163.031457 183.398305 
L 162.322497 181.31061 
L 161.623259 179.222915 
L 160.967867 177.13522 
L 160.388972 175.047524 
L 159.914231 172.959829 
L 159.563596 170.872134 
L 159.347795 168.784438 
L 159.268134 166.696743 
L 159.317546 164.609048 
L 159.482642 162.521352 
L 159.746373 160.433657 
L 160.090864 158.345962 
L 160.500002 156.258267 
L 160.961404 154.170571 
L 161.467512 152.082876 
L 162.015718 149.995181 
L 162.607572 147.907485 
L 163.247289 145.81979 
L 163.939891 143.732095 
L 164.689375 141.644399 
L 165.497243 139.556704 
L 166.361674 137.469009 
L 167.277419 135.381314 
L 168.236356 133.293618 
L 169.228524 131.205923 
L 170.243363 129.118228 
L 171.270918 127.030532 
L 172.302815 124.942837 
L 173.332905 122.855142 
L 174.357567 120.767446 
L 175.375686 118.679751 
L 176.388353 116.592056 
L 177.398316 114.504361 
L 178.409195 112.416665 
L 179.424528 110.32897 
L 180.446707 108.241275 
L 181.475971 106.153579 
L 182.509618 104.065884 
L 183.541613 101.978189 
L 184.562703 99.890493 
L 185.56107 97.802798 
L 186.523413 95.715103 
L 187.43629 93.627407 
L 188.287477 91.539712 
L 189.067131 89.452017 
L 189.768595 87.364322 
L 190.388751 85.276626 
L 190.92795 83.188931 
L 191.389565 81.101236 
L 191.779318 79.01354 
L 192.104487 76.925845 
L 192.373116 74.83815 
L 194.511477 74.83815 
L 194.511477 74.83815 
L 194.780107 76.925845 
L 195.105275 79.01354 
L 195.495029 81.101236 
L 195.956644 83.188931 
L 196.495842 85.276626 
L 197.115999 87.364322 
L 197.817462 89.452017 
L 198.597116 91.539712 
L 199.448303 93.627407 
L 200.36118 95.715103 
L 201.323524 97.802798 
L 202.32189 99.890493 
L 203.34298 101.978189 
L 204.374975 104.065884 
L 205.408623 106.153579 
L 206.437887 108.241275 
L 207.460065 110.32897 
L 208.475398 112.416665 
L 209.486277 114.504361 
L 210.49624 116.592056 
L 211.508908 118.679751 
L 212.527026 120.767446 
L 213.551688 122.855142 
L 214.581778 124.942837 
L 215.613675 127.030532 
L 216.641231 129.118228 
L 217.656069 131.205923 
L 218.648237 133.293618 
L 219.607174 135.381314 
L 220.522919 137.469009 
L 221.38735 139.556704 
L 222.195218 141.644399 
L 222.944702 143.732095 
L 223.637305 145.81979 
L 224.277022 147.907485 
L 224.868875 149.995181 
L 225.417082 152.082876 
L 225.923189 154.170571 
L 226.384591 156.258267 
L 226.793729 158.345962 
L 227.13822 160.433657 
L 227.401951 162.521352 
L 227.567048 164.609048 
L 227.616459 166.696743 
L 227.536798 168.784438 
L 227.320997 170.872134 
L 226.970363 172.959829 
L 226.495621 175.047524 
L 225.916727 177.13522 
L 225.261335 179.222915 
L 224.562096 181.31061 
L 223.853137 183.398305 
L 223.166246 185.486001 
L 222.527383 187.573696 
L 221.954045 189.661391 
L 221.453867 191.749087 
L 221.024589 193.836782 
L 220.65525 195.924477 
L 220.328264 198.012173 
L 220.021933 200.099868 
L 219.712978 202.187563 
L 219.378749 204.275258 
L 218.998975 206.362954 
L 218.557002 208.450649 
L 218.040609 210.538344 
L 217.442454 212.62604 
L 216.760197 214.713735 
L 215.996273 216.80143 
L 215.157303 218.889126 
L 214.253139 220.976821 
L 213.295642 223.064516 
L 212.297395 225.152212 
L 211.270602 227.239907 
L 210.226408 229.327602 
L 209.174762 231.415297 
L 208.124774 233.502993 
L 207.085364 235.590688 
L 206.065882 237.678383 
L 205.076393 239.766079 
L 204.127454 241.853774 
L 203.229354 243.941469 
L 202.391025 246.029165 
L 201.618905 248.11686 
L 200.916084 250.204555 
L 200.281961 252.29225 
L 199.712496 254.379946 
L 199.200969 256.467641 
L 198.739046 258.555336 
L 198.317891 260.643032 
L 197.929112 262.730727 
L 197.56541 264.818422 
L 197.220897 266.906118 
L 196.891155 268.993813 
L 196.573135 271.081508 
L 196.265004 273.169203 
L 195.96601 275.256899 
L 195.676377 277.344594 
L 195.397222 279.432289 
L 195.13042 281.519985 
z
" clip-path="url(#p2c43faf1b4)" style="fill: #1f77b4; fill-opacity: 0.3"/>
   </g>
   <g id="PolyCollection_3">
    <path d="M 283.770112 295.488 
L 273.985294 295.488 
L 273.723048 293.300641 
L 273.548224 291.113281 
L 273.463438 288.925922 
L 273.464818 286.738562 
L 273.542726 284.551203 
L 273.683089 282.363843 
L 273.869105 280.176484 
L 274.083025 277.989124 
L 274.307754 275.801765 
L 274.52808 273.614406 
L 274.731413 271.427046 
L 274.908058 269.239687 
L 275.051073 267.052327 
L 275.15586 264.864968 
L 275.219615 262.677608 
L 275.24075 260.490249 
L 275.218369 258.302889 
L 275.15183 256.11553 
L 275.040406 253.928171 
L 274.883028 251.740811 
L 274.678102 249.553452 
L 274.42341 247.366092 
L 274.116085 245.178733 
L 273.752717 242.991373 
L 273.329576 240.804014 
L 272.842975 238.616654 
L 272.289767 236.429295 
L 271.667916 234.241936 
L 270.977097 232.054576 
L 270.219248 229.867217 
L 269.398985 227.679857 
L 268.523809 225.492498 
L 267.604052 223.305138 
L 266.652528 221.117779 
L 265.683889 218.930419 
L 264.713741 216.74306 
L 263.757587 214.555701 
L 262.829699 212.368341 
L 261.94207 210.180982 
L 261.103545 207.993622 
L 260.31926 205.806263 
L 259.590456 203.618903 
L 258.914693 201.431544 
L 258.286409 199.244184 
L 257.697744 197.056825 
L 257.139493 194.869466 
L 256.602046 192.682106 
L 256.076184 190.494747 
L 255.553658 188.307387 
L 255.027512 186.120028 
L 254.492184 183.932668 
L 253.943431 181.745309 
L 253.378176 179.557949 
L 252.79434 177.37059 
L 252.190738 175.18323 
L 251.567065 172.995871 
L 250.924007 170.808512 
L 250.263479 168.621152 
L 249.588986 166.433793 
L 248.90608 164.246433 
L 248.222865 162.059074 
L 247.550462 159.871714 
L 246.90333 157.684355 
L 246.299311 155.496995 
L 245.759275 153.309636 
L 245.306293 151.122277 
L 244.964338 148.934917 
L 244.756591 146.747558 
L 244.703541 144.560198 
L 244.821106 142.372839 
L 245.119047 140.185479 
L 245.5999 137.99812 
L 246.258628 135.81076 
L 247.083028 133.623401 
L 248.054896 131.436042 
L 249.151781 129.248682 
L 250.349109 127.061323 
L 251.622409 124.873963 
L 252.949332 122.686604 
L 254.311213 120.499244 
L 255.693975 118.311885 
L 257.088285 116.124525 
L 258.48896 113.937166 
L 259.893768 111.749807 
L 261.301835 109.562447 
L 262.711934 107.375088 
L 264.120964 105.187728 
L 265.522854 103.000369 
L 266.908077 100.813009 
L 268.26384 98.62565 
L 269.574895 96.43829 
L 270.824817 94.250931 
L 271.997531 92.063572 
L 273.078843 89.876212 
L 274.057727 87.688853 
L 274.927218 85.501493 
L 275.684803 83.314134 
L 276.332312 81.126774 
L 276.875375 78.939415 
L 280.880032 78.939415 
L 280.880032 78.939415 
L 281.423095 81.126774 
L 282.070603 83.314134 
L 282.828189 85.501493 
L 283.69768 87.688853 
L 284.676563 89.876212 
L 285.757875 92.063572 
L 286.93059 94.250931 
L 288.180512 96.43829 
L 289.491566 98.62565 
L 290.84733 100.813009 
L 292.232553 103.000369 
L 293.634442 105.187728 
L 295.043473 107.375088 
L 296.453572 109.562447 
L 297.861638 111.749807 
L 299.266447 113.937166 
L 300.667122 116.124525 
L 302.061432 118.311885 
L 303.444194 120.499244 
L 304.806075 122.686604 
L 306.132998 124.873963 
L 307.406298 127.061323 
L 308.603626 129.248682 
L 309.70051 131.436042 
L 310.672378 133.623401 
L 311.496779 135.81076 
L 312.155506 137.99812 
L 312.63636 140.185479 
L 312.9343 142.372839 
L 313.051866 144.560198 
L 312.998816 146.747558 
L 312.791069 148.934917 
L 312.449113 151.122277 
L 311.996132 153.309636 
L 311.456096 155.496995 
L 310.852077 157.684355 
L 310.204945 159.871714 
L 309.532541 162.059074 
L 308.849326 164.246433 
L 308.166421 166.433793 
L 307.491928 168.621152 
L 306.8314 170.808512 
L 306.188341 172.995871 
L 305.564668 175.18323 
L 304.961067 177.37059 
L 304.377231 179.557949 
L 303.811976 181.745309 
L 303.263223 183.932668 
L 302.727894 186.120028 
L 302.201749 188.307387 
L 301.679222 190.494747 
L 301.15336 192.682106 
L 300.615914 194.869466 
L 300.057663 197.056825 
L 299.468998 199.244184 
L 298.840713 201.431544 
L 298.164951 203.618903 
L 297.436147 205.806263 
L 296.651862 207.993622 
L 295.813336 210.180982 
L 294.925708 212.368341 
L 293.99782 214.555701 
L 293.041665 216.74306 
L 292.071518 218.930419 
L 291.102879 221.117779 
L 290.151354 223.305138 
L 289.231598 225.492498 
L 288.356422 227.679857 
L 287.536159 229.867217 
L 286.77831 232.054576 
L 286.087491 234.241936 
L 285.46564 236.429295 
L 284.912432 238.616654 
L 284.425831 240.804014 
L 284.002689 242.991373 
L 283.639322 245.178733 
L 283.331997 247.366092 
L 283.077304 249.553452 
L 282.872379 251.740811 
L 282.715001 253.928171 
L 282.603576 256.11553 
L 282.537037 258.302889 
L 282.514656 260.490249 
L 282.535792 262.677608 
L 282.599547 264.864968 
L 282.704334 267.052327 
L 282.847349 269.239687 
L 283.023993 271.427046 
L 283.227327 273.614406 
L 283.447652 275.801765 
L 283.672382 277.989124 
L 283.886302 280.176484 
L 284.072318 282.363843 
L 284.212681 284.551203 
L 284.290589 286.738562 
L 284.291969 288.925922 
L 284.207183 291.113281 
L 284.032358 293.300641 
L 283.770112 295.488 
z
" clip-path="url(#p2c43faf1b4)" style="fill: #1f77b4; fill-opacity: 0.3"/>
   </g>
   <g id="PolyCollection_4">
    <path d="M 370.770951 295.488 
L 357.855269 295.488 
L 357.312354 293.044364 
L 356.855791 290.600727 
L 356.504369 288.157091 
L 356.271287 285.713455 
L 356.163018 283.269818 
L 356.178765 280.826182 
L 356.310564 278.382545 
L 356.544005 275.938909 
L 356.859441 273.495273 
L 357.233545 271.051636 
L 357.640996 268.608 
L 358.056099 266.164364 
L 358.454177 263.720727 
L 358.81262 261.277091 
L 359.111525 258.833455 
L 359.333975 256.389818 
L 359.465992 253.946182 
L 359.496318 251.502545 
L 359.416128 249.058909 
L 359.218818 246.615273 
L 358.899954 244.171636 
L 358.457429 241.728 
L 357.891826 239.284364 
L 357.206906 236.840727 
L 356.410118 234.397091 
L 355.512986 231.953455 
L 354.53123 229.509818 
L 353.484511 227.066182 
L 352.395732 224.622545 
L 351.289887 222.178909 
L 350.192556 219.735273 
L 349.128171 217.291636 
L 348.118258 214.848 
L 347.179876 212.404364 
L 346.324446 209.960727 
L 345.557151 207.517091 
L 344.876971 205.073455 
L 344.277345 202.629818 
L 343.747369 200.186182 
L 343.273311 197.742545 
L 342.840237 195.298909 
L 342.433486 192.855273 
L 342.039794 190.411636 
L 341.647937 187.968 
L 341.248878 185.524364 
L 340.835483 183.080727 
L 340.401985 180.637091 
L 339.943396 178.193455 
L 339.455091 175.749818 
L 338.932712 173.306182 
L 338.372475 170.862545 
L 337.771838 168.418909 
L 337.130412 165.975273 
L 336.450893 163.531636 
L 335.739798 161.088 
L 335.007799 158.644364 
L 334.2695 156.200727 
L 333.542642 153.757091 
L 332.846791 151.313455 
L 332.201691 148.869818 
L 331.625517 146.426182 
L 331.133302 143.982545 
L 330.735753 141.538909 
L 330.43865 139.095273 
L 330.242886 136.651636 
L 330.145127 134.208 
L 330.138947 131.764364 
L 330.216269 129.320727 
L 330.368856 126.877091 
L 330.589657 124.433455 
L 330.873822 121.989818 
L 331.219289 119.546182 
L 331.626898 117.102545 
L 332.100093 114.658909 
L 332.644283 112.215273 
L 333.265992 109.771636 
L 333.971933 107.328 
L 334.768089 104.884364 
L 335.658911 102.440727 
L 336.646665 99.997091 
L 337.730956 97.553455 
L 338.908438 95.109818 
L 340.172688 92.666182 
L 341.51426 90.222545 
L 342.920886 87.778909 
L 344.377838 85.335273 
L 345.868425 82.891636 
L 347.374623 80.448 
L 348.877784 78.004364 
L 350.359403 75.560727 
L 351.801863 73.117091 
L 353.18912 70.673455 
L 354.507265 68.229818 
L 355.744923 65.786182 
L 356.893481 63.342545 
L 357.947133 60.898909 
L 358.902778 58.455273 
L 359.759791 56.011636 
L 360.519719 53.568 
L 368.106501 53.568 
L 368.106501 53.568 
L 368.866429 56.011636 
L 369.723442 58.455273 
L 370.679087 60.898909 
L 371.732739 63.342545 
L 372.881297 65.786182 
L 374.118955 68.229818 
L 375.4371 70.673455 
L 376.824357 73.117091 
L 378.266817 75.560727 
L 379.748436 78.004364 
L 381.251598 80.448 
L 382.757795 82.891636 
L 384.248382 85.335273 
L 385.705334 87.778909 
L 387.11196 90.222545 
L 388.453532 92.666182 
L 389.717783 95.109818 
L 390.895264 97.553455 
L 391.979555 99.997091 
L 392.967309 102.440727 
L 393.858131 104.884364 
L 394.654287 107.328 
L 395.360228 109.771636 
L 395.981938 112.215273 
L 396.526127 114.658909 
L 396.999322 117.102545 
L 397.406931 119.546182 
L 397.752398 121.989818 
L 398.036563 124.433455 
L 398.257364 126.877091 
L 398.409951 129.320727 
L 398.487273 131.764364 
L 398.481093 134.208 
L 398.383334 136.651636 
L 398.18757 139.095273 
L 397.890467 141.538909 
L 397.492918 143.982545 
L 397.000703 146.426182 
L 396.42453 148.869818 
L 395.779429 151.313455 
L 395.083578 153.757091 
L 394.35672 156.200727 
L 393.618421 158.644364 
L 392.886422 161.088 
L 392.175327 163.531636 
L 391.495808 165.975273 
L 390.854382 168.418909 
L 390.253746 170.862545 
L 389.693508 173.306182 
L 389.17113 175.749818 
L 388.682825 178.193455 
L 388.224235 180.637091 
L 387.790737 183.080727 
L 387.377342 185.524364 
L 386.978283 187.968 
L 386.586426 190.411636 
L 386.192734 192.855273 
L 385.785983 195.298909 
L 385.352909 197.742545 
L 384.878851 200.186182 
L 384.348875 202.629818 
L 383.749249 205.073455 
L 383.069069 207.517091 
L 382.301774 209.960727 
L 381.446344 212.404364 
L 380.507962 214.848 
L 379.498049 217.291636 
L 378.433665 219.735273 
L 377.336334 222.178909 
L 376.230488 224.622545 
L 375.141709 227.066182 
L 374.09499 229.509818 
L 373.113234 231.953455 
L 372.216102 234.397091 
L 371.419314 236.840727 
L 370.734395 239.284364 
L 370.168791 241.728 
L 369.726266 244.171636 
L 369.407402 246.615273 
L 369.210092 249.058909 
L 369.129902 251.502545 
L 369.160228 253.946182 
L 369.292245 256.389818 
L 369.514695 258.833455 
L 369.813601 261.277091 
L 370.172043 263.720727 
L 370.570121 266.164364 
L 370.985224 268.608 
L 371.392675 271.051636 
L 371.766779 273.495273 
L 372.082215 275.938909 
L 372.315656 278.382545 
L 372.447456 280.826182 
L 372.463202 283.269818 
L 372.354933 285.713455 
L 372.121851 288.157091 
L 371.770429 290.600727 
L 371.313866 293.044364 
L 370.770951 295.488 
z
" clip-path="url(#p2c43faf1b4)" style="fill: #1f77b4; fill-opacity: 0.3"/>
   </g>
   <g id="matplotlib.axis_1">
    <g id="xtick_1">
     <g id="line2d_1">
      <path d="M 79.528421 307.584 
L 79.528421 41.472 
" clip-path="url(#p2c43faf1b4)" style="fill: none; stroke-dasharray: 2.96,1.28; stroke-dashoffset: 0; stroke: #b0b0b0; stroke-width: 0.8"/>
     </g>
     <g id="line2d_2">
      <defs>
       <path id="m017b25b0f9" d="M 0 0 
L 0 3.5 
" style="stroke: #000000; stroke-width: 0.8"/>
      </defs>
      <g>
       <use xlink:href="#m017b25b0f9" x="79.528421" y="307.584" style="stroke: #000000; stroke-width: 0.8"/>
      </g>
     </g>
     <g id="text_1">
      <!-- 1000 -->
      <g transform="translate(66.803421 322.182437)scale(0.1 -0.1)">
       <defs>
        <path id="DejaVuSans-31" d="M 794 531 
L 1825 531 
L 1825 4091 
L 703 3866 
L 703 4441 
L 1819 4666 
L 2450 4666 
L 2450 531 
L 3481 531 
L 3481 0 
L 794 0 
L 794 531 
z
" transform="scale(0.015625)"/>
        <path id="DejaVuSans-30" d="M 2034 4250 
Q 1547 4250 1301 3770 
Q 1056 3291 1056 2328 
Q 1056 1369 1301 889 
Q 1547 409 2034 409 
Q 2525 409 2770 889 
Q 3016 1369 3016 2328 
Q 3016 3291 2770 3770 
Q 2525 4250 2034 4250 
z
M 2034 4750 
Q 2819 4750 3233 4129 
Q 3647 3509 3647 2328 
Q 3647 1150 3233 529 
Q 2819 -91 2034 -91 
Q 1250 -91 836 529 
Q 422 1150 422 2328 
Q 422 3509 836 4129 
Q 1250 4750 2034 4750 
z
" transform="scale(0.015625)"/>
       </defs>
       <use xlink:href="#DejaVuSans-31"/>
       <use xlink:href="#DejaVuSans-30" x="63.623047"/>
       <use xlink:href="#DejaVuSans-30" x="127.246094"/>
       <use xlink:href="#DejaVuSans-30" x="190.869141"/>
      </g>
     </g>
    </g>
    <g id="xtick_2">
     <g id="line2d_3">
      <path d="M 136.485359 307.584 
L 136.485359 41.472 
" clip-path="url(#p2c43faf1b4)" style="fill: none; stroke-dasharray: 2.96,1.28; stroke-dashoffset: 0; stroke: #b0b0b0; stroke-width: 0.8"/>
     </g>
     <g id="line2d_4">
      <g>
       <use xlink:href="#m017b25b0f9" x="136.485359" y="307.584" style="stroke: #000000; stroke-width: 0.8"/>
      </g>
     </g>
     <g id="text_2">
      <!-- 2000 -->
      <g transform="translate(123.760359 322.182437)scale(0.1 -0.1)">
       <defs>
        <path id="DejaVuSans-32" d="M 1228 531 
L 3431 531 
L 3431 0 
L 469 0 
L 469 531 
Q 828 903 1448 1529 
Q 2069 2156 2228 2338 
Q 2531 2678 2651 2914 
Q 2772 3150 2772 3378 
Q 2772 3750 2511 3984 
Q 2250 4219 1831 4219 
Q 1534 4219 1204 4116 
Q 875 4013 500 3803 
L 500 4441 
Q 881 4594 1212 4672 
Q 1544 4750 1819 4750 
Q 2544 4750 2975 4387 
Q 3406 4025 3406 3419 
Q 3406 3131 3298 2873 
Q 3191 2616 2906 2266 
Q 2828 2175 2409 1742 
Q 1991 1309 1228 531 
z
" transform="scale(0.015625)"/>
       </defs>
       <use xlink:href="#DejaVuSans-32"/>
       <use xlink:href="#DejaVuSans-30" x="63.623047"/>
       <use xlink:href="#DejaVuSans-30" x="127.246094"/>
       <use xlink:href="#DejaVuSans-30" x="190.869141"/>
      </g>
     </g>
    </g>
    <g id="xtick_3">
     <g id="line2d_5">
      <path d="M 193.442297 307.584 
L 193.442297 41.472 
" clip-path="url(#p2c43faf1b4)" style="fill: none; stroke-dasharray: 2.96,1.28; stroke-dashoffset: 0; stroke: #b0b0b0; stroke-width: 0.8"/>
     </g>
     <g id="line2d_6">
      <g>
       <use xlink:href="#m017b25b0f9" x="193.442297" y="307.584" style="stroke: #000000; stroke-width: 0.8"/>
      </g>
     </g>
     <g id="text_3">
      <!-- 3000 -->
      <g transform="translate(180.717297 322.182437)scale(0.1 -0.1)">
       <defs>
        <path id="DejaVuSans-33" d="M 2597 2516 
Q 3050 2419 3304 2112 
Q 3559 1806 3559 1356 
Q 3559 666 3084 287 
Q 2609 -91 1734 -91 
Q 1441 -91 1130 -33 
Q 819 25 488 141 
L 488 750 
Q 750 597 1062 519 
Q 1375 441 1716 441 
Q 2309 441 2620 675 
Q 2931 909 2931 1356 
Q 2931 1769 2642 2001 
Q 2353 2234 1838 2234 
L 1294 2234 
L 1294 2753 
L 1863 2753 
Q 2328 2753 2575 2939 
Q 2822 3125 2822 3475 
Q 2822 3834 2567 4026 
Q 2313 4219 1838 4219 
Q 1578 4219 1281 4162 
Q 984 4106 628 3988 
L 628 4550 
Q 988 4650 1302 4700 
Q 1616 4750 1894 4750 
Q 2613 4750 3031 4423 
Q 3450 4097 3450 3541 
Q 3450 3153 3228 2886 
Q 3006 2619 2597 2516 
z
" transform="scale(0.015625)"/>
       </defs>
       <use xlink:href="#DejaVuSans-33"/>
       <use xlink:href="#DejaVuSans-30" x="63.623047"/>
       <use xlink:href="#DejaVuSans-30" x="127.246094"/>
       <use xlink:href="#DejaVuSans-30" x="190.869141"/>
      </g>
     </g>
    </g>
    <g id="xtick_4">
     <g id="line2d_7">
      <path d="M 250.399234 307.584 
L 250.399234 41.472 
" clip-path="url(#p2c43faf1b4)" style="fill: none; stroke-dasharray: 2.96,1.28; stroke-dashoffset: 0; stroke: #b0b0b0; stroke-width: 0.8"/>
     </g>
     <g id="line2d_8">
      <g>
       <use xlink:href="#m017b25b0f9" x="250.399234" y="307.584" style="stroke: #000000; stroke-width: 0.8"/>
      </g>
     </g>
     <g id="text_4">
      <!-- 4000 -->
      <g transform="translate(237.674234 322.182437)scale(0.1 -0.1)">
       <defs>
        <path id="DejaVuSans-34" d="M 2419 4116 
L 825 1625 
L 2419 1625 
L 2419 4116 
z
M 2253 4666 
L 3047 4666 
L 3047 1625 
L 3713 1625 
L 3713 1100 
L 3047 1100 
L 3047 0 
L 2419 0 
L 2419 1100 
L 313 1100 
L 313 1709 
L 2253 4666 
z
" transform="scale(0.015625)"/>
       </defs>
       <use xlink:href="#DejaVuSans-34"/>
       <use xlink:href="#DejaVuSans-30" x="63.623047"/>
       <use xlink:href="#DejaVuSans-30" x="127.246094"/>
       <use xlink:href="#DejaVuSans-30" x="190.869141"/>
      </g>
     </g>
    </g>
    <g id="xtick_5">
     <g id="line2d_9">
      <path d="M 307.356172 307.584 
L 307.356172 41.472 
" clip-path="url(#p2c43faf1b4)" style="fill: none; stroke-dasharray: 2.96,1.28; stroke-dashoffset: 0; stroke: #b0b0b0; stroke-width: 0.8"/>
     </g>
     <g id="line2d_10">
      <g>
       <use xlink:href="#m017b25b0f9" x="307.356172" y="307.584" style="stroke: #000000; stroke-width: 0.8"/>
      </g>
     </g>
     <g id="text_5">
      <!-- 5000 -->
      <g transform="translate(294.631172 322.182437)scale(0.1 -0.1)">
       <defs>
        <path id="DejaVuSans-35" d="M 691 4666 
L 3169 4666 
L 3169 4134 
L 1269 4134 
L 1269 2991 
Q 1406 3038 1543 3061 
Q 1681 3084 1819 3084 
Q 2600 3084 3056 2656 
Q 3513 2228 3513 1497 
Q 3513 744 3044 326 
Q 2575 -91 1722 -91 
Q 1428 -91 1123 -41 
Q 819 9 494 109 
L 494 744 
Q 775 591 1075 516 
Q 1375 441 1709 441 
Q 2250 441 2565 725 
Q 2881 1009 2881 1497 
Q 2881 1984 2565 2268 
Q 2250 2553 1709 2553 
Q 1456 2553 1204 2497 
Q 953 2441 691 2322 
L 691 4666 
z
" transform="scale(0.015625)"/>
       </defs>
       <use xlink:href="#DejaVuSans-35"/>
       <use xlink:href="#DejaVuSans-30" x="63.623047"/>
       <use xlink:href="#DejaVuSans-30" x="127.246094"/>
       <use xlink:href="#DejaVuSans-30" x="190.869141"/>
      </g>
     </g>
    </g>
    <g id="xtick_6">
     <g id="line2d_11">
      <path d="M 364.31311 307.584 
L 364.31311 41.472 
" clip-path="url(#p2c43faf1b4)" style="fill: none; stroke-dasharray: 2.96,1.28; stroke-dashoffset: 0; stroke: #b0b0b0; stroke-width: 0.8"/>
     </g>
     <g id="line2d_12">
      <g>
       <use xlink:href="#m017b25b0f9" x="364.31311" y="307.584" style="stroke: #000000; stroke-width: 0.8"/>
      </g>
     </g>
     <g id="text_6">
      <!-- 6000 -->
      <g transform="translate(351.58811 322.182437)scale(0.1 -0.1)">
       <defs>
        <path id="DejaVuSans-36" d="M 2113 2584 
Q 1688 2584 1439 2293 
Q 1191 2003 1191 1497 
Q 1191 994 1439 701 
Q 1688 409 2113 409 
Q 2538 409 2786 701 
Q 3034 994 3034 1497 
Q 3034 2003 2786 2293 
Q 2538 2584 2113 2584 
z
M 3366 4563 
L 3366 3988 
Q 3128 4100 2886 4159 
Q 2644 4219 2406 4219 
Q 1781 4219 1451 3797 
Q 1122 3375 1075 2522 
Q 1259 2794 1537 2939 
Q 1816 3084 2150 3084 
Q 2853 3084 3261 2657 
Q 3669 2231 3669 1497 
Q 3669 778 3244 343 
Q 2819 -91 2113 -91 
Q 1303 -91 875 529 
Q 447 1150 447 2328 
Q 447 3434 972 4092 
Q 1497 4750 2381 4750 
Q 2619 4750 2861 4703 
Q 3103 4656 3366 4563 
z
" transform="scale(0.015625)"/>
       </defs>
       <use xlink:href="#DejaVuSans-36"/>
       <use xlink:href="#DejaVuSans-30" x="63.623047"/>
       <use xlink:href="#DejaVuSans-30" x="127.246094"/>
       <use xlink:href="#DejaVuSans-30" x="190.869141"/>
      </g>
     </g>
    </g>
    <g id="text_7">
     <!-- Learned Episodes -->
     <g transform="translate(192.102187 335.860562)scale(0.1 -0.1)">
      <defs>
       <path id="DejaVuSans-4c" d="M 628 4666 
L 1259 4666 
L 1259 531 
L 3531 531 
L 3531 0 
L 628 0 
L 628 4666 
z
" transform="scale(0.015625)"/>
       <path id="DejaVuSans-65" d="M 3597 1894 
L 3597 1613 
L 953 1613 
Q 991 1019 1311 708 
Q 1631 397 2203 397 
Q 2534 397 2845 478 
Q 3156 559 3463 722 
L 3463 178 
Q 3153 47 2828 -22 
Q 2503 -91 2169 -91 
Q 1331 -91 842 396 
Q 353 884 353 1716 
Q 353 2575 817 3079 
Q 1281 3584 2069 3584 
Q 2775 3584 3186 3129 
Q 3597 2675 3597 1894 
z
M 3022 2063 
Q 3016 2534 2758 2815 
Q 2500 3097 2075 3097 
Q 1594 3097 1305 2825 
Q 1016 2553 972 2059 
L 3022 2063 
z
" transform="scale(0.015625)"/>
       <path id="DejaVuSans-61" d="M 2194 1759 
Q 1497 1759 1228 1600 
Q 959 1441 959 1056 
Q 959 750 1161 570 
Q 1363 391 1709 391 
Q 2188 391 2477 730 
Q 2766 1069 2766 1631 
L 2766 1759 
L 2194 1759 
z
M 3341 1997 
L 3341 0 
L 2766 0 
L 2766 531 
Q 2569 213 2275 61 
Q 1981 -91 1556 -91 
Q 1019 -91 701 211 
Q 384 513 384 1019 
Q 384 1609 779 1909 
Q 1175 2209 1959 2209 
L 2766 2209 
L 2766 2266 
Q 2766 2663 2505 2880 
Q 2244 3097 1772 3097 
Q 1472 3097 1187 3025 
Q 903 2953 641 2809 
L 641 3341 
Q 956 3463 1253 3523 
Q 1550 3584 1831 3584 
Q 2591 3584 2966 3190 
Q 3341 2797 3341 1997 
z
" transform="scale(0.015625)"/>
       <path id="DejaVuSans-72" d="M 2631 2963 
Q 2534 3019 2420 3045 
Q 2306 3072 2169 3072 
Q 1681 3072 1420 2755 
Q 1159 2438 1159 1844 
L 1159 0 
L 581 0 
L 581 3500 
L 1159 3500 
L 1159 2956 
Q 1341 3275 1631 3429 
Q 1922 3584 2338 3584 
Q 2397 3584 2469 3576 
Q 2541 3569 2628 3553 
L 2631 2963 
z
" transform="scale(0.015625)"/>
       <path id="DejaVuSans-6e" d="M 3513 2113 
L 3513 0 
L 2938 0 
L 2938 2094 
Q 2938 2591 2744 2837 
Q 2550 3084 2163 3084 
Q 1697 3084 1428 2787 
Q 1159 2491 1159 1978 
L 1159 0 
L 581 0 
L 581 3500 
L 1159 3500 
L 1159 2956 
Q 1366 3272 1645 3428 
Q 1925 3584 2291 3584 
Q 2894 3584 3203 3211 
Q 3513 2838 3513 2113 
z
" transform="scale(0.015625)"/>
       <path id="DejaVuSans-64" d="M 2906 2969 
L 2906 4863 
L 3481 4863 
L 3481 0 
L 2906 0 
L 2906 525 
Q 2725 213 2448 61 
Q 2172 -91 1784 -91 
Q 1150 -91 751 415 
Q 353 922 353 1747 
Q 353 2572 751 3078 
Q 1150 3584 1784 3584 
Q 2172 3584 2448 3432 
Q 2725 3281 2906 2969 
z
M 947 1747 
Q 947 1113 1208 752 
Q 1469 391 1925 391 
Q 2381 391 2643 752 
Q 2906 1113 2906 1747 
Q 2906 2381 2643 2742 
Q 2381 3103 1925 3103 
Q 1469 3103 1208 2742 
Q 947 2381 947 1747 
z
" transform="scale(0.015625)"/>
       <path id="DejaVuSans-20" transform="scale(0.015625)"/>
       <path id="DejaVuSans-45" d="M 628 4666 
L 3578 4666 
L 3578 4134 
L 1259 4134 
L 1259 2753 
L 3481 2753 
L 3481 2222 
L 1259 2222 
L 1259 531 
L 3634 531 
L 3634 0 
L 628 0 
L 628 4666 
z
" transform="scale(0.015625)"/>
       <path id="DejaVuSans-70" d="M 1159 525 
L 1159 -1331 
L 581 -1331 
L 581 3500 
L 1159 3500 
L 1159 2969 
Q 1341 3281 1617 3432 
Q 1894 3584 2278 3584 
Q 2916 3584 3314 3078 
Q 3713 2572 3713 1747 
Q 3713 922 3314 415 
Q 2916 -91 2278 -91 
Q 1894 -91 1617 61 
Q 1341 213 1159 525 
z
M 3116 1747 
Q 3116 2381 2855 2742 
Q 2594 3103 2138 3103 
Q 1681 3103 1420 2742 
Q 1159 2381 1159 1747 
Q 1159 1113 1420 752 
Q 1681 391 2138 391 
Q 2594 391 2855 752 
Q 3116 1113 3116 1747 
z
" transform="scale(0.015625)"/>
       <path id="DejaVuSans-69" d="M 603 3500 
L 1178 3500 
L 1178 0 
L 603 0 
L 603 3500 
z
M 603 4863 
L 1178 4863 
L 1178 4134 
L 603 4134 
L 603 4863 
z
" transform="scale(0.015625)"/>
       <path id="DejaVuSans-73" d="M 2834 3397 
L 2834 2853 
Q 2591 2978 2328 3040 
Q 2066 3103 1784 3103 
Q 1356 3103 1142 2972 
Q 928 2841 928 2578 
Q 928 2378 1081 2264 
Q 1234 2150 1697 2047 
L 1894 2003 
Q 2506 1872 2764 1633 
Q 3022 1394 3022 966 
Q 3022 478 2636 193 
Q 2250 -91 1575 -91 
Q 1294 -91 989 -36 
Q 684 19 347 128 
L 347 722 
Q 666 556 975 473 
Q 1284 391 1588 391 
Q 1994 391 2212 530 
Q 2431 669 2431 922 
Q 2431 1156 2273 1281 
Q 2116 1406 1581 1522 
L 1381 1569 
Q 847 1681 609 1914 
Q 372 2147 372 2553 
Q 372 3047 722 3315 
Q 1072 3584 1716 3584 
Q 2034 3584 2315 3537 
Q 2597 3491 2834 3397 
z
" transform="scale(0.015625)"/>
       <path id="DejaVuSans-6f" d="M 1959 3097 
Q 1497 3097 1228 2736 
Q 959 2375 959 1747 
Q 959 1119 1226 758 
Q 1494 397 1959 397 
Q 2419 397 2687 759 
Q 2956 1122 2956 1747 
Q 2956 2369 2687 2733 
Q 2419 3097 1959 3097 
z
M 1959 3584 
Q 2709 3584 3137 3096 
Q 3566 2609 3566 1747 
Q 3566 888 3137 398 
Q 2709 -91 1959 -91 
Q 1206 -91 779 398 
Q 353 888 353 1747 
Q 353 2609 779 3096 
Q 1206 3584 1959 3584 
z
" transform="scale(0.015625)"/>
      </defs>
      <use xlink:href="#DejaVuSans-4c"/>
      <use xlink:href="#DejaVuSans-65" x="53.962891"/>
      <use xlink:href="#DejaVuSans-61" x="115.486328"/>
      <use xlink:href="#DejaVuSans-72" x="176.765625"/>
      <use xlink:href="#DejaVuSans-6e" x="216.128906"/>
      <use xlink:href="#DejaVuSans-65" x="279.507812"/>
      <use xlink:href="#DejaVuSans-64" x="341.03125"/>
      <use xlink:href="#DejaVuSans-20" x="404.507812"/>
      <use xlink:href="#DejaVuSans-45" x="436.294922"/>
      <use xlink:href="#DejaVuSans-70" x="499.478516"/>
      <use xlink:href="#DejaVuSans-69" x="562.955078"/>
      <use xlink:href="#DejaVuSans-73" x="590.738281"/>
      <use xlink:href="#DejaVuSans-6f" x="642.837891"/>
      <use xlink:href="#DejaVuSans-64" x="704.019531"/>
      <use xlink:href="#DejaVuSans-65" x="767.496094"/>
      <use xlink:href="#DejaVuSans-73" x="829.019531"/>
     </g>
    </g>
   </g>
   <g id="matplotlib.axis_2">
    <g id="ytick_1">
     <g id="line2d_13">
      <path d="M 57.6 295.488 
L 414.72 295.488 
" clip-path="url(#p2c43faf1b4)" style="fill: none; stroke-dasharray: 2.96,1.28; stroke-dashoffset: 0; stroke: #b0b0b0; stroke-width: 0.8"/>
     </g>
     <g id="line2d_14">
      <defs>
       <path id="mbcf31fdf25" d="M 0 0 
L -3.5 0 
" style="stroke: #000000; stroke-width: 0.8"/>
      </defs>
      <g>
       <use xlink:href="#mbcf31fdf25" x="57.6" y="295.488" style="stroke: #000000; stroke-width: 0.8"/>
      </g>
     </g>
     <g id="text_8">
      <!-- 0 -->
      <g transform="translate(44.2375 299.287219)scale(0.1 -0.1)">
       <use xlink:href="#DejaVuSans-30"/>
      </g>
     </g>
    </g>
    <g id="ytick_2">
     <g id="line2d_15">
      <path d="M 57.6 257.829814 
L 414.72 257.829814 
" clip-path="url(#p2c43faf1b4)" style="fill: none; stroke-dasharray: 2.96,1.28; stroke-dashoffset: 0; stroke: #b0b0b0; stroke-width: 0.8"/>
     </g>
     <g id="line2d_16">
      <g>
       <use xlink:href="#mbcf31fdf25" x="57.6" y="257.829814" style="stroke: #000000; stroke-width: 0.8"/>
      </g>
     </g>
     <g id="text_9">
      <!-- 100 -->
      <g transform="translate(31.5125 261.629033)scale(0.1 -0.1)">
       <use xlink:href="#DejaVuSans-31"/>
       <use xlink:href="#DejaVuSans-30" x="63.623047"/>
       <use xlink:href="#DejaVuSans-30" x="127.246094"/>
      </g>
     </g>
    </g>
    <g id="ytick_3">
     <g id="line2d_17">
      <path d="M 57.6 220.171628 
L 414.72 220.171628 
" clip-path="url(#p2c43faf1b4)" style="fill: none; stroke-dasharray: 2.96,1.28; stroke-dashoffset: 0; stroke: #b0b0b0; stroke-width: 0.8"/>
     </g>
     <g id="line2d_18">
      <g>
       <use xlink:href="#mbcf31fdf25" x="57.6" y="220.171628" style="stroke: #000000; stroke-width: 0.8"/>
      </g>
     </g>
     <g id="text_10">
      <!-- 200 -->
      <g transform="translate(31.5125 223.970847)scale(0.1 -0.1)">
       <use xlink:href="#DejaVuSans-32"/>
       <use xlink:href="#DejaVuSans-30" x="63.623047"/>
       <use xlink:href="#DejaVuSans-30" x="127.246094"/>
      </g>
     </g>
    </g>
    <g id="ytick_4">
     <g id="line2d_19">
      <path d="M 57.6 182.513443 
L 414.72 182.513443 
" clip-path="url(#p2c43faf1b4)" style="fill: none; stroke-dasharray: 2.96,1.28; stroke-dashoffset: 0; stroke: #b0b0b0; stroke-width: 0.8"/>
     </g>
     <g id="line2d_20">
      <g>
       <use xlink:href="#mbcf31fdf25" x="57.6" y="182.513443" style="stroke: #000000; stroke-width: 0.8"/>
      </g>
     </g>
     <g id="text_11">
      <!-- 300 -->
      <g transform="translate(31.5125 186.312661)scale(0.1 -0.1)">
       <use xlink:href="#DejaVuSans-33"/>
       <use xlink:href="#DejaVuSans-30" x="63.623047"/>
       <use xlink:href="#DejaVuSans-30" x="127.246094"/>
      </g>
     </g>
    </g>
    <g id="ytick_5">
     <g id="line2d_21">
      <path d="M 57.6 144.855257 
L 414.72 144.855257 
" clip-path="url(#p2c43faf1b4)" style="fill: none; stroke-dasharray: 2.96,1.28; stroke-dashoffset: 0; stroke: #b0b0b0; stroke-width: 0.8"/>
     </g>
     <g id="line2d_22">
      <g>
       <use xlink:href="#mbcf31fdf25" x="57.6" y="144.855257" style="stroke: #000000; stroke-width: 0.8"/>
      </g>
     </g>
     <g id="text_12">
      <!-- 400 -->
      <g transform="translate(31.5125 148.654476)scale(0.1 -0.1)">
       <use xlink:href="#DejaVuSans-34"/>
       <use xlink:href="#DejaVuSans-30" x="63.623047"/>
       <use xlink:href="#DejaVuSans-30" x="127.246094"/>
      </g>
     </g>
    </g>
    <g id="ytick_6">
     <g id="line2d_23">
      <path d="M 57.6 107.197071 
L 414.72 107.197071 
" clip-path="url(#p2c43faf1b4)" style="fill: none; stroke-dasharray: 2.96,1.28; stroke-dashoffset: 0; stroke: #b0b0b0; stroke-width: 0.8"/>
     </g>
     <g id="line2d_24">
      <g>
       <use xlink:href="#mbcf31fdf25" x="57.6" y="107.197071" style="stroke: #000000; stroke-width: 0.8"/>
      </g>
     </g>
     <g id="text_13">
      <!-- 500 -->
      <g transform="translate(31.5125 110.99629)scale(0.1 -0.1)">
       <use xlink:href="#DejaVuSans-35"/>
       <use xlink:href="#DejaVuSans-30" x="63.623047"/>
       <use xlink:href="#DejaVuSans-30" x="127.246094"/>
      </g>
     </g>
    </g>
    <g id="ytick_7">
     <g id="line2d_25">
      <path d="M 57.6 69.538885 
L 414.72 69.538885 
" clip-path="url(#p2c43faf1b4)" style="fill: none; stroke-dasharray: 2.96,1.28; stroke-dashoffset: 0; stroke: #b0b0b0; stroke-width: 0.8"/>
     </g>
     <g id="line2d_26">
      <g>
       <use xlink:href="#mbcf31fdf25" x="57.6" y="69.538885" style="stroke: #000000; stroke-width: 0.8"/>
      </g>
     </g>
     <g id="text_14">
      <!-- 600 -->
      <g transform="translate(31.5125 73.338104)scale(0.1 -0.1)">
       <use xlink:href="#DejaVuSans-36"/>
       <use xlink:href="#DejaVuSans-30" x="63.623047"/>
       <use xlink:href="#DejaVuSans-30" x="127.246094"/>
      </g>
     </g>
    </g>
    <g id="text_15">
     <!-- Reward Density -->
     <g transform="translate(25.432812 213.74675)rotate(-90)scale(0.1 -0.1)">
      <defs>
       <path id="DejaVuSans-52" d="M 2841 2188 
Q 3044 2119 3236 1894 
Q 3428 1669 3622 1275 
L 4263 0 
L 3584 0 
L 2988 1197 
Q 2756 1666 2539 1819 
Q 2322 1972 1947 1972 
L 1259 1972 
L 1259 0 
L 628 0 
L 628 4666 
L 2053 4666 
Q 2853 4666 3247 4331 
Q 3641 3997 3641 3322 
Q 3641 2881 3436 2590 
Q 3231 2300 2841 2188 
z
M 1259 4147 
L 1259 2491 
L 2053 2491 
Q 2509 2491 2742 2702 
Q 2975 2913 2975 3322 
Q 2975 3731 2742 3939 
Q 2509 4147 2053 4147 
L 1259 4147 
z
" transform="scale(0.015625)"/>
       <path id="DejaVuSans-77" d="M 269 3500 
L 844 3500 
L 1563 769 
L 2278 3500 
L 2956 3500 
L 3675 769 
L 4391 3500 
L 4966 3500 
L 4050 0 
L 3372 0 
L 2619 2869 
L 1863 0 
L 1184 0 
L 269 3500 
z
" transform="scale(0.015625)"/>
       <path id="DejaVuSans-44" d="M 1259 4147 
L 1259 519 
L 2022 519 
Q 2988 519 3436 956 
Q 3884 1394 3884 2338 
Q 3884 3275 3436 3711 
Q 2988 4147 2022 4147 
L 1259 4147 
z
M 628 4666 
L 1925 4666 
Q 3281 4666 3915 4102 
Q 4550 3538 4550 2338 
Q 4550 1131 3912 565 
Q 3275 0 1925 0 
L 628 0 
L 628 4666 
z
" transform="scale(0.015625)"/>
       <path id="DejaVuSans-74" d="M 1172 4494 
L 1172 3500 
L 2356 3500 
L 2356 3053 
L 1172 3053 
L 1172 1153 
Q 1172 725 1289 603 
Q 1406 481 1766 481 
L 2356 481 
L 2356 0 
L 1766 0 
Q 1100 0 847 248 
Q 594 497 594 1153 
L 594 3053 
L 172 3053 
L 172 3500 
L 594 3500 
L 594 4494 
L 1172 4494 
z
" transform="scale(0.015625)"/>
       <path id="DejaVuSans-79" d="M 2059 -325 
Q 1816 -950 1584 -1140 
Q 1353 -1331 966 -1331 
L 506 -1331 
L 506 -850 
L 844 -850 
Q 1081 -850 1212 -737 
Q 1344 -625 1503 -206 
L 1606 56 
L 191 3500 
L 800 3500 
L 1894 763 
L 2988 3500 
L 3597 3500 
L 2059 -325 
z
" transform="scale(0.015625)"/>
      </defs>
      <use xlink:href="#DejaVuSans-52"/>
      <use xlink:href="#DejaVuSans-65" x="64.982422"/>
      <use xlink:href="#DejaVuSans-77" x="126.505859"/>
      <use xlink:href="#DejaVuSans-61" x="208.292969"/>
      <use xlink:href="#DejaVuSans-72" x="269.572266"/>
      <use xlink:href="#DejaVuSans-64" x="308.935547"/>
      <use xlink:href="#DejaVuSans-20" x="372.412109"/>
      <use xlink:href="#DejaVuSans-44" x="404.199219"/>
      <use xlink:href="#DejaVuSans-65" x="481.201172"/>
      <use xlink:href="#DejaVuSans-6e" x="542.724609"/>
      <use xlink:href="#DejaVuSans-73" x="606.103516"/>
      <use xlink:href="#DejaVuSans-69" x="658.203125"/>
      <use xlink:href="#DejaVuSans-74" x="685.986328"/>
      <use xlink:href="#DejaVuSans-79" x="725.195312"/>
     </g>
    </g>
   </g>
   <g id="LineCollection_1">
    <path d="M 90.919809 176.898319 
L 125.093971 176.898319 
" clip-path="url(#p2c43faf1b4)" style="fill: none; stroke: #1f77b4; stroke-width: 1.5"/>
    <path d="M 176.355215 173.905882 
L 210.529378 173.905882 
" clip-path="url(#p2c43faf1b4)" style="fill: none; stroke: #1f77b4; stroke-width: 1.5"/>
    <path d="M 261.790622 169.147309 
L 295.964785 169.147309 
" clip-path="url(#p2c43faf1b4)" style="fill: none; stroke: #1f77b4; stroke-width: 1.5"/>
    <path d="M 347.226029 157.087634 
L 381.400191 157.087634 
" clip-path="url(#p2c43faf1b4)" style="fill: none; stroke: #1f77b4; stroke-width: 1.5"/>
   </g>
   <g id="LineCollection_2">
    <path d="M 90.919809 98.570984 
L 125.093971 98.570984 
" clip-path="url(#p2c43faf1b4)" style="fill: none; stroke: #1f77b4; stroke-width: 1.5"/>
    <path d="M 176.355215 74.83815 
L 210.529378 74.83815 
" clip-path="url(#p2c43faf1b4)" style="fill: none; stroke: #1f77b4; stroke-width: 1.5"/>
    <path d="M 261.790622 78.939415 
L 295.964785 78.939415 
" clip-path="url(#p2c43faf1b4)" style="fill: none; stroke: #1f77b4; stroke-width: 1.5"/>
    <path d="M 347.226029 53.568 
L 381.400191 53.568 
" clip-path="url(#p2c43faf1b4)" style="fill: none; stroke: #1f77b4; stroke-width: 1.5"/>
   </g>
   <g id="LineCollection_3">
    <path d="M 90.919809 267.923162 
L 125.093971 267.923162 
" clip-path="url(#p2c43faf1b4)" style="fill: none; stroke: #1f77b4; stroke-width: 1.5"/>
    <path d="M 176.355215 281.519985 
L 210.529378 281.519985 
" clip-path="url(#p2c43faf1b4)" style="fill: none; stroke: #1f77b4; stroke-width: 1.5"/>
    <path d="M 261.790622 295.488 
L 295.964785 295.488 
" clip-path="url(#p2c43faf1b4)" style="fill: none; stroke: #1f77b4; stroke-width: 1.5"/>
    <path d="M 347.226029 295.488 
L 381.400191 295.488 
" clip-path="url(#p2c43faf1b4)" style="fill: none; stroke: #1f77b4; stroke-width: 1.5"/>
   </g>
   <g id="LineCollection_4">
    <path d="M 108.00689 267.923162 
L 108.00689 98.570984 
" clip-path="url(#p2c43faf1b4)" style="fill: none; stroke: #1f77b4; stroke-width: 1.5"/>
    <path d="M 193.442297 281.519985 
L 193.442297 74.83815 
" clip-path="url(#p2c43faf1b4)" style="fill: none; stroke: #1f77b4; stroke-width: 1.5"/>
    <path d="M 278.877703 295.488 
L 278.877703 78.939415 
" clip-path="url(#p2c43faf1b4)" style="fill: none; stroke: #1f77b4; stroke-width: 1.5"/>
    <path d="M 364.31311 295.488 
L 364.31311 53.568 
" clip-path="url(#p2c43faf1b4)" style="fill: none; stroke: #1f77b4; stroke-width: 1.5"/>
   </g>
   <g id="line2d_27">
    <path d="M 108.00689 176.898319 
L 193.442297 173.905882 
L 278.877703 169.147309 
L 364.31311 157.087634 
" clip-path="url(#p2c43faf1b4)" style="fill: none; stroke: #4682b4; stroke-width: 1.5; stroke-linecap: square"/>
   </g>
   <g id="line2d_28">
    <path d="M 108.00689 176.898319 
L 193.442297 173.905882 
L 278.877703 169.147309 
L 364.31311 157.087634 
" clip-path="url(#p2c43faf1b4)" style="fill: none; stroke: #4682b4; stroke-width: 1.5; stroke-linecap: square"/>
   </g>
   <g id="patch_3">
    <path d="M 57.6 307.584 
L 57.6 41.472 
" style="fill: none; stroke: #000000; stroke-width: 0.8; stroke-linejoin: miter; stroke-linecap: square"/>
   </g>
   <g id="patch_4">
    <path d="M 414.72 307.584 
L 414.72 41.472 
" style="fill: none; stroke: #000000; stroke-width: 0.8; stroke-linejoin: miter; stroke-linecap: square"/>
   </g>
   <g id="patch_5">
    <path d="M 57.6 307.584 
L 414.72 307.584 
" style="fill: none; stroke: #000000; stroke-width: 0.8; stroke-linejoin: miter; stroke-linecap: square"/>
   </g>
   <g id="patch_6">
    <path d="M 57.6 41.472 
L 414.72 41.472 
" style="fill: none; stroke: #000000; stroke-width: 0.8; stroke-linejoin: miter; stroke-linecap: square"/>
   </g>
   <g id="text_16">
    <!-- Violinplot for progress of profits/by_selling_refurbished -->
    <g transform="translate(72.470625 35.472)scale(0.12 -0.12)">
     <defs>
      <path id="DejaVuSans-56" d="M 1831 0 
L 50 4666 
L 709 4666 
L 2188 738 
L 3669 4666 
L 4325 4666 
L 2547 0 
L 1831 0 
z
" transform="scale(0.015625)"/>
      <path id="DejaVuSans-6c" d="M 603 4863 
L 1178 4863 
L 1178 0 
L 603 0 
L 603 4863 
z
" transform="scale(0.015625)"/>
      <path id="DejaVuSans-66" d="M 2375 4863 
L 2375 4384 
L 1825 4384 
Q 1516 4384 1395 4259 
Q 1275 4134 1275 3809 
L 1275 3500 
L 2222 3500 
L 2222 3053 
L 1275 3053 
L 1275 0 
L 697 0 
L 697 3053 
L 147 3053 
L 147 3500 
L 697 3500 
L 697 3744 
Q 697 4328 969 4595 
Q 1241 4863 1831 4863 
L 2375 4863 
z
" transform="scale(0.015625)"/>
      <path id="DejaVuSans-67" d="M 2906 1791 
Q 2906 2416 2648 2759 
Q 2391 3103 1925 3103 
Q 1463 3103 1205 2759 
Q 947 2416 947 1791 
Q 947 1169 1205 825 
Q 1463 481 1925 481 
Q 2391 481 2648 825 
Q 2906 1169 2906 1791 
z
M 3481 434 
Q 3481 -459 3084 -895 
Q 2688 -1331 1869 -1331 
Q 1566 -1331 1297 -1286 
Q 1028 -1241 775 -1147 
L 775 -588 
Q 1028 -725 1275 -790 
Q 1522 -856 1778 -856 
Q 2344 -856 2625 -561 
Q 2906 -266 2906 331 
L 2906 616 
Q 2728 306 2450 153 
Q 2172 0 1784 0 
Q 1141 0 747 490 
Q 353 981 353 1791 
Q 353 2603 747 3093 
Q 1141 3584 1784 3584 
Q 2172 3584 2450 3431 
Q 2728 3278 2906 2969 
L 2906 3500 
L 3481 3500 
L 3481 434 
z
" transform="scale(0.015625)"/>
      <path id="DejaVuSans-2f" d="M 1625 4666 
L 2156 4666 
L 531 -594 
L 0 -594 
L 1625 4666 
z
" transform="scale(0.015625)"/>
      <path id="DejaVuSans-62" d="M 3116 1747 
Q 3116 2381 2855 2742 
Q 2594 3103 2138 3103 
Q 1681 3103 1420 2742 
Q 1159 2381 1159 1747 
Q 1159 1113 1420 752 
Q 1681 391 2138 391 
Q 2594 391 2855 752 
Q 3116 1113 3116 1747 
z
M 1159 2969 
Q 1341 3281 1617 3432 
Q 1894 3584 2278 3584 
Q 2916 3584 3314 3078 
Q 3713 2572 3713 1747 
Q 3713 922 3314 415 
Q 2916 -91 2278 -91 
Q 1894 -91 1617 61 
Q 1341 213 1159 525 
L 1159 0 
L 581 0 
L 581 4863 
L 1159 4863 
L 1159 2969 
z
" transform="scale(0.015625)"/>
      <path id="DejaVuSans-5f" d="M 3263 -1063 
L 3263 -1509 
L -63 -1509 
L -63 -1063 
L 3263 -1063 
z
" transform="scale(0.015625)"/>
      <path id="DejaVuSans-75" d="M 544 1381 
L 544 3500 
L 1119 3500 
L 1119 1403 
Q 1119 906 1312 657 
Q 1506 409 1894 409 
Q 2359 409 2629 706 
Q 2900 1003 2900 1516 
L 2900 3500 
L 3475 3500 
L 3475 0 
L 2900 0 
L 2900 538 
Q 2691 219 2414 64 
Q 2138 -91 1772 -91 
Q 1169 -91 856 284 
Q 544 659 544 1381 
z
M 1991 3584 
L 1991 3584 
z
" transform="scale(0.015625)"/>
      <path id="DejaVuSans-68" d="M 3513 2113 
L 3513 0 
L 2938 0 
L 2938 2094 
Q 2938 2591 2744 2837 
Q 2550 3084 2163 3084 
Q 1697 3084 1428 2787 
Q 1159 2491 1159 1978 
L 1159 0 
L 581 0 
L 581 4863 
L 1159 4863 
L 1159 2956 
Q 1366 3272 1645 3428 
Q 1925 3584 2291 3584 
Q 2894 3584 3203 3211 
Q 3513 2838 3513 2113 
z
" transform="scale(0.015625)"/>
     </defs>
     <use xlink:href="#DejaVuSans-56"/>
     <use xlink:href="#DejaVuSans-69" x="66.158203"/>
     <use xlink:href="#DejaVuSans-6f" x="93.941406"/>
     <use xlink:href="#DejaVuSans-6c" x="155.123047"/>
     <use xlink:href="#DejaVuSans-69" x="182.90625"/>
     <use xlink:href="#DejaVuSans-6e" x="210.689453"/>
     <use xlink:href="#DejaVuSans-70" x="274.068359"/>
     <use xlink:href="#DejaVuSans-6c" x="337.544922"/>
     <use xlink:href="#DejaVuSans-6f" x="365.328125"/>
     <use xlink:href="#DejaVuSans-74" x="426.509766"/>
     <use xlink:href="#DejaVuSans-20" x="465.71875"/>
     <use xlink:href="#DejaVuSans-66" x="497.505859"/>
     <use xlink:href="#DejaVuSans-6f" x="532.710938"/>
     <use xlink:href="#DejaVuSans-72" x="593.892578"/>
     <use xlink:href="#DejaVuSans-20" x="635.005859"/>
     <use xlink:href="#DejaVuSans-70" x="666.792969"/>
     <use xlink:href="#DejaVuSans-72" x="730.269531"/>
     <use xlink:href="#DejaVuSans-6f" x="769.132812"/>
     <use xlink:href="#DejaVuSans-67" x="830.314453"/>
     <use xlink:href="#DejaVuSans-72" x="893.791016"/>
     <use xlink:href="#DejaVuSans-65" x="932.654297"/>
     <use xlink:href="#DejaVuSans-73" x="994.177734"/>
     <use xlink:href="#DejaVuSans-73" x="1046.277344"/>
     <use xlink:href="#DejaVuSans-20" x="1098.376953"/>
     <use xlink:href="#DejaVuSans-6f" x="1130.164062"/>
     <use xlink:href="#DejaVuSans-66" x="1191.345703"/>
     <use xlink:href="#DejaVuSans-20" x="1226.550781"/>
     <use xlink:href="#DejaVuSans-70" x="1258.337891"/>
     <use xlink:href="#DejaVuSans-72" x="1321.814453"/>
     <use xlink:href="#DejaVuSans-6f" x="1360.677734"/>
     <use xlink:href="#DejaVuSans-66" x="1421.859375"/>
     <use xlink:href="#DejaVuSans-69" x="1457.064453"/>
     <use xlink:href="#DejaVuSans-74" x="1484.847656"/>
     <use xlink:href="#DejaVuSans-73" x="1524.056641"/>
     <use xlink:href="#DejaVuSans-2f" x="1576.15625"/>
     <use xlink:href="#DejaVuSans-62" x="1609.847656"/>
     <use xlink:href="#DejaVuSans-79" x="1673.324219"/>
     <use xlink:href="#DejaVuSans-5f" x="1732.503906"/>
     <use xlink:href="#DejaVuSans-73" x="1782.503906"/>
     <use xlink:href="#DejaVuSans-65" x="1834.603516"/>
     <use xlink:href="#DejaVuSans-6c" x="1896.126953"/>
     <use xlink:href="#DejaVuSans-6c" x="1923.910156"/>
     <use xlink:href="#DejaVuSans-69" x="1951.693359"/>
     <use xlink:href="#DejaVuSans-6e" x="1979.476562"/>
     <use xlink:href="#DejaVuSans-67" x="2042.855469"/>
     <use xlink:href="#DejaVuSans-5f" x="2106.332031"/>
     <use xlink:href="#DejaVuSans-72" x="2156.332031"/>
     <use xlink:href="#DejaVuSans-65" x="2195.195312"/>
     <use xlink:href="#DejaVuSans-66" x="2256.71875"/>
     <use xlink:href="#DejaVuSans-75" x="2291.923828"/>
     <use xlink:href="#DejaVuSans-72" x="2355.302734"/>
     <use xlink:href="#DejaVuSans-62" x="2396.416016"/>
     <use xlink:href="#DejaVuSans-69" x="2459.892578"/>
     <use xlink:href="#DejaVuSans-73" x="2487.675781"/>
     <use xlink:href="#DejaVuSans-68" x="2539.775391"/>
     <use xlink:href="#DejaVuSans-65" x="2603.154297"/>
     <use xlink:href="#DejaVuSans-64" x="2664.677734"/>
    </g>
   </g>
   <g id="legend_1">
    <g id="patch_7">
     <path d="M 276.25125 64.150125 
L 407.72 64.150125 
Q 409.72 64.150125 409.72 62.150125 
L 409.72 48.472 
Q 409.72 46.472 407.72 46.472 
L 276.25125 46.472 
Q 274.25125 46.472 274.25125 48.472 
L 274.25125 62.150125 
Q 274.25125 64.150125 276.25125 64.150125 
z
" style="fill: #ffffff; opacity: 0.8; stroke: #cccccc; stroke-linejoin: miter"/>
    </g>
    <g id="line2d_29">
     <path d="M 278.25125 54.570438 
L 288.25125 54.570438 
L 298.25125 54.570438 
" style="fill: none; stroke: #4682b4; stroke-width: 1.5; stroke-linecap: square"/>
    </g>
    <g id="text_17">
     <!-- StableBaselinesSAC -->
     <g transform="translate(306.25125 58.070438)scale(0.1 -0.1)">
      <defs>
       <path id="DejaVuSans-53" d="M 3425 4513 
L 3425 3897 
Q 3066 4069 2747 4153 
Q 2428 4238 2131 4238 
Q 1616 4238 1336 4038 
Q 1056 3838 1056 3469 
Q 1056 3159 1242 3001 
Q 1428 2844 1947 2747 
L 2328 2669 
Q 3034 2534 3370 2195 
Q 3706 1856 3706 1288 
Q 3706 609 3251 259 
Q 2797 -91 1919 -91 
Q 1588 -91 1214 -16 
Q 841 59 441 206 
L 441 856 
Q 825 641 1194 531 
Q 1563 422 1919 422 
Q 2459 422 2753 634 
Q 3047 847 3047 1241 
Q 3047 1584 2836 1778 
Q 2625 1972 2144 2069 
L 1759 2144 
Q 1053 2284 737 2584 
Q 422 2884 422 3419 
Q 422 4038 858 4394 
Q 1294 4750 2059 4750 
Q 2388 4750 2728 4690 
Q 3069 4631 3425 4513 
z
" transform="scale(0.015625)"/>
       <path id="DejaVuSans-42" d="M 1259 2228 
L 1259 519 
L 2272 519 
Q 2781 519 3026 730 
Q 3272 941 3272 1375 
Q 3272 1813 3026 2020 
Q 2781 2228 2272 2228 
L 1259 2228 
z
M 1259 4147 
L 1259 2741 
L 2194 2741 
Q 2656 2741 2882 2914 
Q 3109 3088 3109 3444 
Q 3109 3797 2882 3972 
Q 2656 4147 2194 4147 
L 1259 4147 
z
M 628 4666 
L 2241 4666 
Q 2963 4666 3353 4366 
Q 3744 4066 3744 3513 
Q 3744 3084 3544 2831 
Q 3344 2578 2956 2516 
Q 3422 2416 3680 2098 
Q 3938 1781 3938 1306 
Q 3938 681 3513 340 
Q 3088 0 2303 0 
L 628 0 
L 628 4666 
z
" transform="scale(0.015625)"/>
       <path id="DejaVuSans-41" d="M 2188 4044 
L 1331 1722 
L 3047 1722 
L 2188 4044 
z
M 1831 4666 
L 2547 4666 
L 4325 0 
L 3669 0 
L 3244 1197 
L 1141 1197 
L 716 0 
L 50 0 
L 1831 4666 
z
" transform="scale(0.015625)"/>
       <path id="DejaVuSans-43" d="M 4122 4306 
L 4122 3641 
Q 3803 3938 3442 4084 
Q 3081 4231 2675 4231 
Q 1875 4231 1450 3742 
Q 1025 3253 1025 2328 
Q 1025 1406 1450 917 
Q 1875 428 2675 428 
Q 3081 428 3442 575 
Q 3803 722 4122 1019 
L 4122 359 
Q 3791 134 3420 21 
Q 3050 -91 2638 -91 
Q 1578 -91 968 557 
Q 359 1206 359 2328 
Q 359 3453 968 4101 
Q 1578 4750 2638 4750 
Q 3056 4750 3426 4639 
Q 3797 4528 4122 4306 
z
" transform="scale(0.015625)"/>
      </defs>
      <use xlink:href="#DejaVuSans-53"/>
      <use xlink:href="#DejaVuSans-74" x="63.476562"/>
      <use xlink:href="#DejaVuSans-61" x="102.685547"/>
      <use xlink:href="#DejaVuSans-62" x="163.964844"/>
      <use xlink:href="#DejaVuSans-6c" x="227.441406"/>
      <use xlink:href="#DejaVuSans-65" x="255.224609"/>
      <use xlink:href="#DejaVuSans-42" x="316.748047"/>
      <use xlink:href="#DejaVuSans-61" x="385.351562"/>
      <use xlink:href="#DejaVuSans-73" x="446.630859"/>
      <use xlink:href="#DejaVuSans-65" x="498.730469"/>
      <use xlink:href="#DejaVuSans-6c" x="560.253906"/>
      <use xlink:href="#DejaVuSans-69" x="588.037109"/>
      <use xlink:href="#DejaVuSans-6e" x="615.820312"/>
      <use xlink:href="#DejaVuSans-65" x="679.199219"/>
      <use xlink:href="#DejaVuSans-73" x="740.722656"/>
      <use xlink:href="#DejaVuSans-53" x="792.822266"/>
      <use xlink:href="#DejaVuSans-41" x="858.173828"/>
      <use xlink:href="#DejaVuSans-43" x="924.832031"/>
     </g>
    </g>
   </g>
  </g>
 </g>
 <defs>
  <clipPath id="p2c43faf1b4">
   <rect x="57.6" y="41.472" width="357.12" height="266.112"/>
  </clipPath>
 </defs>
</svg>
