<?xml version="1.0" encoding="utf-8" standalone="no"?>
<!DOCTYPE svg PUBLIC "-//W3C//DTD SVG 1.1//EN"
  "http://www.w3.org/Graphics/SVG/1.1/DTD/svg11.dtd">
<svg xmlns:xlink="http://www.w3.org/1999/xlink" width="460.8pt" height="345.6pt" viewBox="0 0 460.8 345.6" xmlns="http://www.w3.org/2000/svg" version="1.1">
 <metadata>
  <rdf:RDF xmlns:dc="http://purl.org/dc/elements/1.1/" xmlns:cc="http://creativecommons.org/ns#" xmlns:rdf="http://www.w3.org/1999/02/22-rdf-syntax-ns#">
   <cc:Work>
    <dc:type rdf:resource="http://purl.org/dc/dcmitype/StillImage"/>
    <dc:date>2022-06-20T20:26:29.713102</dc:date>
    <dc:format>image/svg+xml</dc:format>
    <dc:creator>
     <cc:Agent>
      <dc:title>Matplotlib v3.5.2, https://matplotlib.org/</dc:title>
     </cc:Agent>
    </dc:creator>
   </cc:Work>
  </rdf:RDF>
 </metadata>
 <defs>
  <style type="text/css">*{stroke-linejoin: round; stroke-linecap: butt}</style>
 </defs>
 <g id="figure_1">
  <g id="patch_1">
   <path d="M 0 345.6 
L 460.8 345.6 
L 460.8 0 
L 0 0 
z
" style="fill: #ffffff"/>
  </g>
  <g id="axes_1">
   <g id="patch_2">
    <path d="M 57.6 307.584 
L 414.72 307.584 
L 414.72 41.472 
L 57.6 41.472 
z
" style="fill: #ffffff"/>
   </g>
   <g id="PolyCollection_1">
    <path d="M 108.206952 131.546351 
L 107.806828 131.546351 
L 107.80066 130.824978 
L 107.795999 130.103604 
L 107.788914 129.38223 
L 107.774508 128.660856 
L 107.74764 127.939482 
L 107.703801 127.218108 
L 107.640002 126.496734 
L 107.555493 125.77536 
L 107.452139 125.053987 
L 107.334333 124.332613 
L 107.208377 123.611239 
L 107.081416 122.889865 
L 106.960125 122.168491 
L 106.84947 121.447117 
L 106.751901 120.725743 
L 106.667218 120.004369 
L 106.593189 119.282996 
L 106.526688 118.561622 
L 106.464954 117.840248 
L 106.406463 117.118874 
L 106.351042 116.3975 
L 106.299131 115.676126 
L 106.250453 114.954752 
L 106.202617 114.233378 
L 106.150241 113.512004 
L 106.085 112.790631 
L 105.996702 112.069257 
L 105.875072 111.347883 
L 105.711759 110.626509 
L 105.501991 109.905135 
L 105.245533 109.183761 
L 104.946842 108.462387 
L 104.614573 107.741013 
L 104.260679 107.01964 
L 103.899315 106.298266 
L 103.545632 105.576892 
L 103.214426 104.855518 
L 102.918626 104.134144 
L 102.667717 103.41277 
L 102.466329 102.691396 
L 102.313346 101.970022 
L 102.201835 101.248649 
L 102.119864 100.527275 
L 102.052037 99.805901 
L 101.981305 99.084527 
L 101.890552 98.363153 
L 101.763585 97.641779 
L 101.585416 96.920405 
L 101.342075 96.199031 
L 101.020372 95.477658 
L 100.608061 94.756284 
L 100.094712 94.03491 
L 99.473236 93.313536 
L 98.741764 92.592162 
L 97.905309 91.870788 
L 96.976633 91.149414 
L 95.975859 90.42804 
L 94.928604 89.706667 
L 93.862776 88.985293 
L 92.804436 88.263919 
L 91.77344 87.542545 
L 90.779698 86.821171 
L 89.820868 86.099797 
L 88.882158 85.378423 
L 87.938504 84.657049 
L 86.958965 83.935675 
L 85.912709 83.214302 
L 84.77564 82.492928 
L 83.536542 81.771554 
L 82.201696 81.05018 
L 80.797098 80.328806 
L 79.367745 79.607432 
L 77.973894 78.886058 
L 76.684711 78.164684 
L 75.570315 77.443311 
L 74.693666 76.721937 
L 74.103942 76.000563 
L 73.832727 75.279189 
L 73.893569 74.557815 
L 74.284493 73.836441 
L 74.992176 73.115067 
L 75.99615 72.393693 
L 77.271715 71.67232 
L 78.791002 70.950946 
L 80.522578 70.229572 
L 82.430542 69.508198 
L 84.474171 68.786824 
L 86.608731 68.06545 
L 88.787438 67.344076 
L 90.964053 66.622702 
L 93.095369 65.901329 
L 95.143052 65.179955 
L 97.074642 64.458581 
L 98.863869 63.737207 
L 100.490647 63.015833 
L 101.941057 62.294459 
L 103.207445 61.573085 
L 104.288569 60.851711 
L 105.189547 60.130337 
L 110.824233 60.130337 
L 110.824233 60.130337 
L 111.725211 60.851711 
L 112.806334 61.573085 
L 114.072723 62.294459 
L 115.523133 63.015833 
L 117.149911 63.737207 
L 118.939138 64.458581 
L 120.870728 65.179955 
L 122.918411 65.901329 
L 125.049726 66.622702 
L 127.226342 67.344076 
L 129.405049 68.06545 
L 131.539609 68.786824 
L 133.583238 69.508198 
L 135.491202 70.229572 
L 137.222778 70.950946 
L 138.742065 71.67232 
L 140.01763 72.393693 
L 141.021604 73.115067 
L 141.729287 73.836441 
L 142.120211 74.557815 
L 142.181053 75.279189 
L 141.909838 76.000563 
L 141.320114 76.721937 
L 140.443465 77.443311 
L 139.329068 78.164684 
L 138.039886 78.886058 
L 136.646035 79.607432 
L 135.216682 80.328806 
L 133.812084 81.05018 
L 132.477238 81.771554 
L 131.23814 82.492928 
L 130.101071 83.214302 
L 129.054815 83.935675 
L 128.075276 84.657049 
L 127.131622 85.378423 
L 126.192912 86.099797 
L 125.234082 86.821171 
L 124.24034 87.542545 
L 123.209344 88.263919 
L 122.151004 88.985293 
L 121.085175 89.706667 
L 120.037921 90.42804 
L 119.037147 91.149414 
L 118.108471 91.870788 
L 117.272016 92.592162 
L 116.540544 93.313536 
L 115.919068 94.03491 
L 115.405719 94.756284 
L 114.993408 95.477658 
L 114.671705 96.199031 
L 114.428364 96.920405 
L 114.250195 97.641779 
L 114.123227 98.363153 
L 114.032475 99.084527 
L 113.961743 99.805901 
L 113.893916 100.527275 
L 113.811945 101.248649 
L 113.700434 101.970022 
L 113.547451 102.691396 
L 113.346063 103.41277 
L 113.095154 104.134144 
L 112.799354 104.855518 
L 112.468148 105.576892 
L 112.114465 106.298266 
L 111.753101 107.01964 
L 111.399207 107.741013 
L 111.066938 108.462387 
L 110.768247 109.183761 
L 110.511789 109.905135 
L 110.302021 110.626509 
L 110.138708 111.347883 
L 110.017078 112.069257 
L 109.92878 112.790631 
L 109.863539 113.512004 
L 109.811163 114.233378 
L 109.763327 114.954752 
L 109.714649 115.676126 
L 109.662738 116.3975 
L 109.607317 117.118874 
L 109.548826 117.840248 
L 109.487092 118.561622 
L 109.420591 119.282996 
L 109.346562 120.004369 
L 109.261879 120.725743 
L 109.16431 121.447117 
L 109.053655 122.168491 
L 108.932364 122.889865 
L 108.805403 123.611239 
L 108.679447 124.332613 
L 108.561641 125.053987 
L 108.458287 125.77536 
L 108.373777 126.496734 
L 108.309979 127.218108 
L 108.26614 127.939482 
L 108.239272 128.660856 
L 108.224866 129.38223 
L 108.217781 130.103604 
L 108.21312 130.824978 
L 108.206952 131.546351 
z
" clip-path="url(#p06cf55395a)" style="fill: #1f77b4; fill-opacity: 0.3"/>
   </g>
   <g id="PolyCollection_2">
    <path d="M 193.637299 162.702919 
L 193.247295 162.702919 
L 193.253253 161.668885 
L 193.270063 160.634851 
L 193.294661 159.600816 
L 193.322843 158.566782 
L 193.350206 157.532748 
L 193.372884 156.498713 
L 193.387864 155.464679 
L 193.392896 154.430644 
L 193.386197 153.39661 
L 193.366233 152.362576 
L 193.331832 151.328541 
L 193.282664 150.294507 
L 193.219991 149.260473 
L 193.14736 148.226438 
L 193.070861 147.192404 
L 192.998664 146.158369 
L 192.939716 145.124335 
L 192.901837 144.090301 
L 192.88969 143.056266 
L 192.903223 142.022232 
L 192.93712 140.988198 
L 192.981461 139.954163 
L 193.023453 138.920129 
L 193.049777 137.886094 
L 193.048967 136.85206 
L 193.013319 135.818026 
L 192.940039 134.783991 
L 192.831543 133.749957 
L 192.694964 132.715923 
L 192.540995 131.681888 
L 192.382221 130.647854 
L 192.231128 129.61382 
L 192.098071 128.579785 
L 191.989537 127.545751 
L 191.90702 126.511716 
L 191.84674 125.477682 
L 191.800281 124.443648 
L 191.756034 123.409613 
L 191.701216 122.375579 
L 191.624089 121.341545 
L 191.515922 120.30751 
L 191.372161 119.273476 
L 191.192317 118.239441 
L 190.978337 117.205407 
L 190.731742 116.171373 
L 190.450456 115.137338 
L 190.126719 114.103304 
L 189.747445 113.06927 
L 189.297625 112.035235 
L 188.766111 111.001201 
L 188.151772 109.967166 
L 187.4674 108.933132 
L 186.73918 107.899098 
L 186.001136 106.865063 
L 185.285964 105.831029 
L 184.615311 104.796995 
L 183.992934 103.76296 
L 183.403185 102.728926 
L 182.815383 101.694891 
L 182.192642 100.660857 
L 181.502377 99.626823 
L 180.725315 98.592788 
L 179.860347 97.558754 
L 178.923689 96.52472 
L 177.942482 95.490685 
L 176.944698 94.456651 
L 175.948524 93.422616 
L 174.954753 92.388582 
L 173.944745 91.354548 
L 172.884692 90.320513 
L 171.735026 89.286479 
L 170.462532 88.252445 
L 169.05233 87.21841 
L 167.517091 86.184376 
L 165.90124 85.150341 
L 164.278663 84.116307 
L 162.743617 83.082273 
L 161.396472 82.048238 
L 160.327806 81.014204 
L 159.605427 79.98017 
L 159.268134 78.946135 
L 159.32754 77.912101 
L 159.776075 76.878067 
L 160.596919 75.844032 
L 161.77125 74.809998 
L 163.279984 73.775963 
L 165.100162 72.741929 
L 167.198716 71.707895 
L 169.527365 70.67386 
L 172.021442 69.639826 
L 174.603376 68.605792 
L 177.189548 67.571757 
L 179.69834 66.537723 
L 182.057416 65.503688 
L 184.209201 64.469654 
L 186.114211 63.43562 
L 187.752211 62.401585 
L 189.121229 61.367551 
L 190.234611 60.333517 
L 196.649982 60.333517 
L 196.649982 60.333517 
L 197.763364 61.367551 
L 199.132382 62.401585 
L 200.770382 63.43562 
L 202.675392 64.469654 
L 204.827177 65.503688 
L 207.186253 66.537723 
L 209.695045 67.571757 
L 212.281218 68.605792 
L 214.863151 69.639826 
L 217.357228 70.67386 
L 219.685877 71.707895 
L 221.784431 72.741929 
L 223.604609 73.775963 
L 225.113344 74.809998 
L 226.287674 75.844032 
L 227.108519 76.878067 
L 227.557054 77.912101 
L 227.616459 78.946135 
L 227.279166 79.98017 
L 226.556787 81.014204 
L 225.488121 82.048238 
L 224.140977 83.082273 
L 222.605931 84.116307 
L 220.983353 85.150341 
L 219.367502 86.184376 
L 217.832263 87.21841 
L 216.422062 88.252445 
L 215.149567 89.286479 
L 213.999901 90.320513 
L 212.939848 91.354548 
L 211.92984 92.388582 
L 210.936069 93.422616 
L 209.939895 94.456651 
L 208.942111 95.490685 
L 207.960904 96.52472 
L 207.024246 97.558754 
L 206.159278 98.592788 
L 205.382217 99.626823 
L 204.691951 100.660857 
L 204.06921 101.694891 
L 203.481408 102.728926 
L 202.891659 103.76296 
L 202.269282 104.796995 
L 201.598629 105.831029 
L 200.883457 106.865063 
L 200.145413 107.899098 
L 199.417194 108.933132 
L 198.732821 109.967166 
L 198.118482 111.001201 
L 197.586968 112.035235 
L 197.137149 113.06927 
L 196.757875 114.103304 
L 196.434138 115.137338 
L 196.152852 116.171373 
L 195.906256 117.205407 
L 195.692276 118.239441 
L 195.512433 119.273476 
L 195.368672 120.30751 
L 195.260504 121.341545 
L 195.183377 122.375579 
L 195.128559 123.409613 
L 195.084313 124.443648 
L 195.037853 125.477682 
L 194.977573 126.511716 
L 194.895056 127.545751 
L 194.786523 128.579785 
L 194.653466 129.61382 
L 194.502372 130.647854 
L 194.343598 131.681888 
L 194.189629 132.715923 
L 194.05305 133.749957 
L 193.944554 134.783991 
L 193.871275 135.818026 
L 193.835626 136.85206 
L 193.834816 137.886094 
L 193.861141 138.920129 
L 193.903132 139.954163 
L 193.947473 140.988198 
L 193.98137 142.022232 
L 193.994904 143.056266 
L 193.982756 144.090301 
L 193.944877 145.124335 
L 193.885929 146.158369 
L 193.813732 147.192404 
L 193.737234 148.226438 
L 193.664602 149.260473 
L 193.601929 150.294507 
L 193.552761 151.328541 
L 193.51836 152.362576 
L 193.498397 153.39661 
L 193.491697 154.430644 
L 193.496729 155.464679 
L 193.51171 156.498713 
L 193.534388 157.532748 
L 193.561751 158.566782 
L 193.589933 159.600816 
L 193.61453 160.634851 
L 193.63134 161.668885 
L 193.637299 162.702919 
z
" clip-path="url(#p06cf55395a)" style="fill: #1f77b4; fill-opacity: 0.3"/>
   </g>
   <g id="PolyCollection_3">
    <path d="M 279.036197 295.488 
L 278.71921 295.488 
L 278.719732 293.062339 
L 278.725042 290.636678 
L 278.731427 288.211017 
L 278.733874 285.785355 
L 278.726795 283.359694 
L 278.704896 280.934033 
L 278.664037 278.508372 
L 278.602002 276.082711 
L 278.519103 273.65705 
L 278.418553 271.231389 
L 278.306518 268.805728 
L 278.191777 266.380066 
L 278.08491 263.954405 
L 277.997034 261.528744 
L 277.938169 259.103083 
L 277.915504 256.677422 
L 277.931904 254.251761 
L 277.985106 251.8261 
L 278.0679 249.400439 
L 278.169424 246.974777 
L 278.277289 244.549116 
L 278.380022 242.123455 
L 278.469131 239.697794 
L 278.540247 237.272133 
L 278.593063 234.846472 
L 278.630215 232.420811 
L 278.655547 229.99515 
L 278.672338 227.569488 
L 278.682032 225.143827 
L 278.683758 222.718166 
L 278.674687 220.292505 
L 278.650999 217.866844 
L 278.609078 215.441183 
L 278.546553 213.015522 
L 278.462831 210.589861 
L 278.358977 208.164199 
L 278.237015 205.738538 
L 278.098924 203.312877 
L 277.945768 200.887216 
L 277.777387 198.461555 
L 277.592836 196.035894 
L 277.391466 193.610233 
L 277.174183 191.184572 
L 276.944296 188.75891 
L 276.707484 186.333249 
L 276.470798 183.907588 
L 276.241014 181.481927 
L 276.022983 179.056266 
L 275.818601 176.630605 
L 275.626785 174.204944 
L 275.44442 171.779283 
L 275.267875 169.353621 
L 275.094487 166.92796 
L 274.92346 164.502299 
L 274.755871 162.076638 
L 274.593807 159.650977 
L 274.438953 157.225316 
L 274.291114 154.799655 
L 274.147056 152.373994 
L 273.999873 149.948332 
L 273.838835 147.522671 
L 273.649612 145.09701 
L 273.414813 142.671349 
L 273.114942 140.245688 
L 272.729871 137.820027 
L 272.240762 135.394366 
L 271.63202 132.968704 
L 270.892675 130.543043 
L 270.016694 128.117382 
L 269.002196 125.691721 
L 267.850101 123.26606 
L 266.562992 120.840399 
L 265.144831 118.414738 
L 263.601615 115.989077 
L 261.942535 113.563415 
L 260.181033 111.137754 
L 258.335428 108.712093 
L 256.429336 106.286432 
L 254.492472 103.860771 
L 252.562376 101.43511 
L 250.687008 99.009449 
L 248.927373 96.583788 
L 247.358744 94.158126 
L 246.068989 91.732465 
L 245.153045 89.306804 
L 244.703541 86.881143 
L 244.798597 84.455482 
L 245.488791 82.029821 
L 246.785833 79.60416 
L 248.655639 77.178499 
L 251.017982 74.752837 
L 253.753678 72.327176 
L 256.718527 69.901515 
L 259.761336 67.475854 
L 262.742152 65.050193 
L 265.546698 62.624532 
L 268.094283 60.198871 
L 270.338578 57.77321 
L 272.262764 55.347548 
L 285.492642 55.347548 
L 285.492642 55.347548 
L 287.416829 57.77321 
L 289.661124 60.198871 
L 292.208708 62.624532 
L 295.013254 65.050193 
L 297.994071 67.475854 
L 301.03688 69.901515 
L 304.001728 72.327176 
L 306.737425 74.752837 
L 309.099767 77.178499 
L 310.969573 79.60416 
L 312.266615 82.029821 
L 312.95681 84.455482 
L 313.051866 86.881143 
L 312.602362 89.306804 
L 311.686418 91.732465 
L 310.396662 94.158126 
L 308.828034 96.583788 
L 307.068399 99.009449 
L 305.193031 101.43511 
L 303.262935 103.860771 
L 301.326071 106.286432 
L 299.419979 108.712093 
L 297.574374 111.137754 
L 295.812871 113.563415 
L 294.153791 115.989077 
L 292.610576 118.414738 
L 291.192415 120.840399 
L 289.905306 123.26606 
L 288.753211 125.691721 
L 287.738713 128.117382 
L 286.862731 130.543043 
L 286.123387 132.968704 
L 285.514645 135.394366 
L 285.025535 137.820027 
L 284.640464 140.245688 
L 284.340593 142.671349 
L 284.105795 145.09701 
L 283.916572 147.522671 
L 283.755534 149.948332 
L 283.60835 152.373994 
L 283.464293 154.799655 
L 283.316454 157.225316 
L 283.1616 159.650977 
L 282.999535 162.076638 
L 282.831947 164.502299 
L 282.66092 166.92796 
L 282.487532 169.353621 
L 282.310987 171.779283 
L 282.128622 174.204944 
L 281.936806 176.630605 
L 281.732424 179.056266 
L 281.514393 181.481927 
L 281.284609 183.907588 
L 281.047923 186.333249 
L 280.811111 188.75891 
L 280.581223 191.184572 
L 280.363941 193.610233 
L 280.162571 196.035894 
L 279.97802 198.461555 
L 279.809638 200.887216 
L 279.656483 203.312877 
L 279.518391 205.738538 
L 279.39643 208.164199 
L 279.292576 210.589861 
L 279.208853 213.015522 
L 279.146329 215.441183 
L 279.104408 217.866844 
L 279.080719 220.292505 
L 279.071649 222.718166 
L 279.073375 225.143827 
L 279.083068 227.569488 
L 279.09986 229.99515 
L 279.125192 232.420811 
L 279.162344 234.846472 
L 279.21516 237.272133 
L 279.286276 239.697794 
L 279.375385 242.123455 
L 279.478117 244.549116 
L 279.585982 246.974777 
L 279.687506 249.400439 
L 279.770301 251.8261 
L 279.823502 254.251761 
L 279.839903 256.677422 
L 279.817237 259.103083 
L 279.758373 261.528744 
L 279.670496 263.954405 
L 279.56363 266.380066 
L 279.448889 268.805728 
L 279.336854 271.231389 
L 279.236304 273.65705 
L 279.153405 276.082711 
L 279.09137 278.508372 
L 279.05051 280.934033 
L 279.028611 283.359694 
L 279.021533 285.785355 
L 279.023979 288.211017 
L 279.030365 290.636678 
L 279.035675 293.062339 
L 279.036197 295.488 
z
" clip-path="url(#p06cf55395a)" style="fill: #1f77b4; fill-opacity: 0.3"/>
   </g>
   <g id="PolyCollection_4">
    <path d="M 365.091979 294.195272 
L 363.534241 294.195272 
L 363.466422 291.764694 
L 363.412472 289.334115 
L 363.373155 286.903537 
L 363.347806 284.472958 
L 363.334635 282.04238 
L 363.331183 279.611801 
L 363.33484 277.181223 
L 363.343262 274.750644 
L 363.354605 272.320066 
L 363.367509 269.889487 
L 363.380844 267.458909 
L 363.393303 265.02833 
L 363.402932 262.597752 
L 363.406762 260.167173 
L 363.400628 257.736595 
L 363.379271 255.306016 
L 363.336727 252.875438 
L 363.266972 250.444859 
L 363.164701 248.014281 
L 363.026102 245.583702 
L 362.849431 243.153124 
L 362.635259 240.722545 
L 362.386275 238.291967 
L 362.106684 235.861388 
L 361.801342 233.43081 
L 361.474874 231.000231 
L 361.131059 228.569653 
L 360.772695 226.139074 
L 360.402 223.708496 
L 360.021385 221.277917 
L 359.634271 218.847339 
L 359.245506 216.41676 
L 358.861035 213.986182 
L 358.486702 211.555603 
L 358.126338 209.125025 
L 357.779636 206.694446 
L 357.440426 204.263868 
L 357.095985 201.833289 
L 356.727765 199.402711 
L 356.313571 196.972132 
L 355.830872 194.541554 
L 355.260582 192.110975 
L 354.590553 189.680397 
L 353.818056 187.249818 
L 352.950768 184.81924 
L 352.006092 182.388661 
L 351.008978 179.958082 
L 349.988692 177.527504 
L 348.975113 175.096925 
L 347.99515 172.666347 
L 347.069757 170.235768 
L 346.211861 167.80519 
L 345.425346 165.374611 
L 344.705106 162.944033 
L 344.038102 160.513454 
L 343.405311 158.082876 
L 342.78439 155.652297 
L 342.152777 153.221719 
L 341.49085 150.79114 
L 340.784677 148.360562 
L 340.027878 145.929983 
L 339.222211 143.499405 
L 338.376736 141.068826 
L 337.505702 138.638248 
L 336.62563 136.207669 
L 335.752322 133.777091 
L 334.89864 131.346512 
L 334.073772 128.915934 
L 333.28435 126.485355 
L 332.537305 124.054777 
L 331.843747 121.624198 
L 331.222755 119.19362 
L 330.703803 116.763041 
L 330.326762 114.332463 
L 330.138947 111.901884 
L 330.189464 109.471306 
L 330.521772 107.040727 
L 331.165935 104.610149 
L 332.132134 102.17957 
L 333.406752 99.748992 
L 334.951847 97.318413 
L 336.708126 94.887835 
L 338.600928 92.457256 
L 340.548305 90.026678 
L 342.47 87.596099 
L 344.296097 85.165521 
L 345.974213 82.734942 
L 347.474284 80.304364 
L 348.790306 77.873785 
L 349.938773 75.443207 
L 350.954026 73.012628 
L 351.881217 70.58205 
L 352.768041 68.151471 
L 353.656605 65.720893 
L 354.576835 63.290314 
L 355.542478 60.859736 
L 356.550257 58.429157 
L 357.582036 55.998579 
L 358.609327 53.568 
L 370.016893 53.568 
L 370.016893 53.568 
L 371.044184 55.998579 
L 372.075963 58.429157 
L 373.083742 60.859736 
L 374.049385 63.290314 
L 374.969615 65.720893 
L 375.858179 68.151471 
L 376.745003 70.58205 
L 377.672194 73.012628 
L 378.687447 75.443207 
L 379.835914 77.873785 
L 381.151936 80.304364 
L 382.652007 82.734942 
L 384.330123 85.165521 
L 386.15622 87.596099 
L 388.077915 90.026678 
L 390.025292 92.457256 
L 391.918094 94.887835 
L 393.674373 97.318413 
L 395.219469 99.748992 
L 396.494086 102.17957 
L 397.460285 104.610149 
L 398.104449 107.040727 
L 398.436756 109.471306 
L 398.487273 111.901884 
L 398.299458 114.332463 
L 397.922417 116.763041 
L 397.403465 119.19362 
L 396.782473 121.624198 
L 396.088915 124.054777 
L 395.34187 126.485355 
L 394.552449 128.915934 
L 393.72758 131.346512 
L 392.873898 133.777091 
L 392.00059 136.207669 
L 391.120518 138.638248 
L 390.249484 141.068826 
L 389.404009 143.499405 
L 388.598342 145.929983 
L 387.841543 148.360562 
L 387.13537 150.79114 
L 386.473443 153.221719 
L 385.84183 155.652297 
L 385.220909 158.082876 
L 384.588118 160.513454 
L 383.921114 162.944033 
L 383.200874 165.374611 
L 382.414359 167.80519 
L 381.556463 170.235768 
L 380.63107 172.666347 
L 379.651107 175.096925 
L 378.637529 177.527504 
L 377.617243 179.958082 
L 376.620128 182.388661 
L 375.675452 184.81924 
L 374.808164 187.249818 
L 374.035667 189.680397 
L 373.365638 192.110975 
L 372.795348 194.541554 
L 372.312649 196.972132 
L 371.898455 199.402711 
L 371.530235 201.833289 
L 371.185795 204.263868 
L 370.846585 206.694446 
L 370.499882 209.125025 
L 370.139518 211.555603 
L 369.765185 213.986182 
L 369.380715 216.41676 
L 368.991949 218.847339 
L 368.604835 221.277917 
L 368.224221 223.708496 
L 367.853525 226.139074 
L 367.495161 228.569653 
L 367.151346 231.000231 
L 366.824878 233.43081 
L 366.519536 235.861388 
L 366.239945 238.291967 
L 365.990961 240.722545 
L 365.776789 243.153124 
L 365.600119 245.583702 
L 365.461519 248.014281 
L 365.359248 250.444859 
L 365.289493 252.875438 
L 365.246949 255.306016 
L 365.225592 257.736595 
L 365.219458 260.167173 
L 365.223288 262.597752 
L 365.232917 265.02833 
L 365.245376 267.458909 
L 365.258711 269.889487 
L 365.271615 272.320066 
L 365.282958 274.750644 
L 365.29138 277.181223 
L 365.295037 279.611801 
L 365.291585 282.04238 
L 365.278414 284.472958 
L 365.253066 286.903537 
L 365.213748 289.334115 
L 365.159798 291.764694 
L 365.091979 294.195272 
z
" clip-path="url(#p06cf55395a)" style="fill: #1f77b4; fill-opacity: 0.3"/>
   </g>
   <g id="matplotlib.axis_1">
    <g id="xtick_1">
     <g id="line2d_1">
      <path d="M 79.528421 307.584 
L 79.528421 41.472 
" clip-path="url(#p06cf55395a)" style="fill: none; stroke-dasharray: 2.96,1.28; stroke-dashoffset: 0; stroke: #b0b0b0; stroke-width: 0.8"/>
     </g>
     <g id="line2d_2">
      <defs>
       <path id="m35f9e124bc" d="M 0 0 
L 0 3.5 
" style="stroke: #000000; stroke-width: 0.8"/>
      </defs>
      <g>
       <use xlink:href="#m35f9e124bc" x="79.528421" y="307.584" style="stroke: #000000; stroke-width: 0.8"/>
      </g>
     </g>
     <g id="text_1">
      <!-- 1000 -->
      <g transform="translate(66.803421 322.182437)scale(0.1 -0.1)">
       <defs>
        <path id="DejaVuSans-31" d="M 794 531 
L 1825 531 
L 1825 4091 
L 703 3866 
L 703 4441 
L 1819 4666 
L 2450 4666 
L 2450 531 
L 3481 531 
L 3481 0 
L 794 0 
L 794 531 
z
" transform="scale(0.015625)"/>
        <path id="DejaVuSans-30" d="M 2034 4250 
Q 1547 4250 1301 3770 
Q 1056 3291 1056 2328 
Q 1056 1369 1301 889 
Q 1547 409 2034 409 
Q 2525 409 2770 889 
Q 3016 1369 3016 2328 
Q 3016 3291 2770 3770 
Q 2525 4250 2034 4250 
z
M 2034 4750 
Q 2819 4750 3233 4129 
Q 3647 3509 3647 2328 
Q 3647 1150 3233 529 
Q 2819 -91 2034 -91 
Q 1250 -91 836 529 
Q 422 1150 422 2328 
Q 422 3509 836 4129 
Q 1250 4750 2034 4750 
z
" transform="scale(0.015625)"/>
       </defs>
       <use xlink:href="#DejaVuSans-31"/>
       <use xlink:href="#DejaVuSans-30" x="63.623047"/>
       <use xlink:href="#DejaVuSans-30" x="127.246094"/>
       <use xlink:href="#DejaVuSans-30" x="190.869141"/>
      </g>
     </g>
    </g>
    <g id="xtick_2">
     <g id="line2d_3">
      <path d="M 136.485359 307.584 
L 136.485359 41.472 
" clip-path="url(#p06cf55395a)" style="fill: none; stroke-dasharray: 2.96,1.28; stroke-dashoffset: 0; stroke: #b0b0b0; stroke-width: 0.8"/>
     </g>
     <g id="line2d_4">
      <g>
       <use xlink:href="#m35f9e124bc" x="136.485359" y="307.584" style="stroke: #000000; stroke-width: 0.8"/>
      </g>
     </g>
     <g id="text_2">
      <!-- 2000 -->
      <g transform="translate(123.760359 322.182437)scale(0.1 -0.1)">
       <defs>
        <path id="DejaVuSans-32" d="M 1228 531 
L 3431 531 
L 3431 0 
L 469 0 
L 469 531 
Q 828 903 1448 1529 
Q 2069 2156 2228 2338 
Q 2531 2678 2651 2914 
Q 2772 3150 2772 3378 
Q 2772 3750 2511 3984 
Q 2250 4219 1831 4219 
Q 1534 4219 1204 4116 
Q 875 4013 500 3803 
L 500 4441 
Q 881 4594 1212 4672 
Q 1544 4750 1819 4750 
Q 2544 4750 2975 4387 
Q 3406 4025 3406 3419 
Q 3406 3131 3298 2873 
Q 3191 2616 2906 2266 
Q 2828 2175 2409 1742 
Q 1991 1309 1228 531 
z
" transform="scale(0.015625)"/>
       </defs>
       <use xlink:href="#DejaVuSans-32"/>
       <use xlink:href="#DejaVuSans-30" x="63.623047"/>
       <use xlink:href="#DejaVuSans-30" x="127.246094"/>
       <use xlink:href="#DejaVuSans-30" x="190.869141"/>
      </g>
     </g>
    </g>
    <g id="xtick_3">
     <g id="line2d_5">
      <path d="M 193.442297 307.584 
L 193.442297 41.472 
" clip-path="url(#p06cf55395a)" style="fill: none; stroke-dasharray: 2.96,1.28; stroke-dashoffset: 0; stroke: #b0b0b0; stroke-width: 0.8"/>
     </g>
     <g id="line2d_6">
      <g>
       <use xlink:href="#m35f9e124bc" x="193.442297" y="307.584" style="stroke: #000000; stroke-width: 0.8"/>
      </g>
     </g>
     <g id="text_3">
      <!-- 3000 -->
      <g transform="translate(180.717297 322.182437)scale(0.1 -0.1)">
       <defs>
        <path id="DejaVuSans-33" d="M 2597 2516 
Q 3050 2419 3304 2112 
Q 3559 1806 3559 1356 
Q 3559 666 3084 287 
Q 2609 -91 1734 -91 
Q 1441 -91 1130 -33 
Q 819 25 488 141 
L 488 750 
Q 750 597 1062 519 
Q 1375 441 1716 441 
Q 2309 441 2620 675 
Q 2931 909 2931 1356 
Q 2931 1769 2642 2001 
Q 2353 2234 1838 2234 
L 1294 2234 
L 1294 2753 
L 1863 2753 
Q 2328 2753 2575 2939 
Q 2822 3125 2822 3475 
Q 2822 3834 2567 4026 
Q 2313 4219 1838 4219 
Q 1578 4219 1281 4162 
Q 984 4106 628 3988 
L 628 4550 
Q 988 4650 1302 4700 
Q 1616 4750 1894 4750 
Q 2613 4750 3031 4423 
Q 3450 4097 3450 3541 
Q 3450 3153 3228 2886 
Q 3006 2619 2597 2516 
z
" transform="scale(0.015625)"/>
       </defs>
       <use xlink:href="#DejaVuSans-33"/>
       <use xlink:href="#DejaVuSans-30" x="63.623047"/>
       <use xlink:href="#DejaVuSans-30" x="127.246094"/>
       <use xlink:href="#DejaVuSans-30" x="190.869141"/>
      </g>
     </g>
    </g>
    <g id="xtick_4">
     <g id="line2d_7">
      <path d="M 250.399234 307.584 
L 250.399234 41.472 
" clip-path="url(#p06cf55395a)" style="fill: none; stroke-dasharray: 2.96,1.28; stroke-dashoffset: 0; stroke: #b0b0b0; stroke-width: 0.8"/>
     </g>
     <g id="line2d_8">
      <g>
       <use xlink:href="#m35f9e124bc" x="250.399234" y="307.584" style="stroke: #000000; stroke-width: 0.8"/>
      </g>
     </g>
     <g id="text_4">
      <!-- 4000 -->
      <g transform="translate(237.674234 322.182437)scale(0.1 -0.1)">
       <defs>
        <path id="DejaVuSans-34" d="M 2419 4116 
L 825 1625 
L 2419 1625 
L 2419 4116 
z
M 2253 4666 
L 3047 4666 
L 3047 1625 
L 3713 1625 
L 3713 1100 
L 3047 1100 
L 3047 0 
L 2419 0 
L 2419 1100 
L 313 1100 
L 313 1709 
L 2253 4666 
z
" transform="scale(0.015625)"/>
       </defs>
       <use xlink:href="#DejaVuSans-34"/>
       <use xlink:href="#DejaVuSans-30" x="63.623047"/>
       <use xlink:href="#DejaVuSans-30" x="127.246094"/>
       <use xlink:href="#DejaVuSans-30" x="190.869141"/>
      </g>
     </g>
    </g>
    <g id="xtick_5">
     <g id="line2d_9">
      <path d="M 307.356172 307.584 
L 307.356172 41.472 
" clip-path="url(#p06cf55395a)" style="fill: none; stroke-dasharray: 2.96,1.28; stroke-dashoffset: 0; stroke: #b0b0b0; stroke-width: 0.8"/>
     </g>
     <g id="line2d_10">
      <g>
       <use xlink:href="#m35f9e124bc" x="307.356172" y="307.584" style="stroke: #000000; stroke-width: 0.8"/>
      </g>
     </g>
     <g id="text_5">
      <!-- 5000 -->
      <g transform="translate(294.631172 322.182437)scale(0.1 -0.1)">
       <defs>
        <path id="DejaVuSans-35" d="M 691 4666 
L 3169 4666 
L 3169 4134 
L 1269 4134 
L 1269 2991 
Q 1406 3038 1543 3061 
Q 1681 3084 1819 3084 
Q 2600 3084 3056 2656 
Q 3513 2228 3513 1497 
Q 3513 744 3044 326 
Q 2575 -91 1722 -91 
Q 1428 -91 1123 -41 
Q 819 9 494 109 
L 494 744 
Q 775 591 1075 516 
Q 1375 441 1709 441 
Q 2250 441 2565 725 
Q 2881 1009 2881 1497 
Q 2881 1984 2565 2268 
Q 2250 2553 1709 2553 
Q 1456 2553 1204 2497 
Q 953 2441 691 2322 
L 691 4666 
z
" transform="scale(0.015625)"/>
       </defs>
       <use xlink:href="#DejaVuSans-35"/>
       <use xlink:href="#DejaVuSans-30" x="63.623047"/>
       <use xlink:href="#DejaVuSans-30" x="127.246094"/>
       <use xlink:href="#DejaVuSans-30" x="190.869141"/>
      </g>
     </g>
    </g>
    <g id="xtick_6">
     <g id="line2d_11">
      <path d="M 364.31311 307.584 
L 364.31311 41.472 
" clip-path="url(#p06cf55395a)" style="fill: none; stroke-dasharray: 2.96,1.28; stroke-dashoffset: 0; stroke: #b0b0b0; stroke-width: 0.8"/>
     </g>
     <g id="line2d_12">
      <g>
       <use xlink:href="#m35f9e124bc" x="364.31311" y="307.584" style="stroke: #000000; stroke-width: 0.8"/>
      </g>
     </g>
     <g id="text_6">
      <!-- 6000 -->
      <g transform="translate(351.58811 322.182437)scale(0.1 -0.1)">
       <defs>
        <path id="DejaVuSans-36" d="M 2113 2584 
Q 1688 2584 1439 2293 
Q 1191 2003 1191 1497 
Q 1191 994 1439 701 
Q 1688 409 2113 409 
Q 2538 409 2786 701 
Q 3034 994 3034 1497 
Q 3034 2003 2786 2293 
Q 2538 2584 2113 2584 
z
M 3366 4563 
L 3366 3988 
Q 3128 4100 2886 4159 
Q 2644 4219 2406 4219 
Q 1781 4219 1451 3797 
Q 1122 3375 1075 2522 
Q 1259 2794 1537 2939 
Q 1816 3084 2150 3084 
Q 2853 3084 3261 2657 
Q 3669 2231 3669 1497 
Q 3669 778 3244 343 
Q 2819 -91 2113 -91 
Q 1303 -91 875 529 
Q 447 1150 447 2328 
Q 447 3434 972 4092 
Q 1497 4750 2381 4750 
Q 2619 4750 2861 4703 
Q 3103 4656 3366 4563 
z
" transform="scale(0.015625)"/>
       </defs>
       <use xlink:href="#DejaVuSans-36"/>
       <use xlink:href="#DejaVuSans-30" x="63.623047"/>
       <use xlink:href="#DejaVuSans-30" x="127.246094"/>
       <use xlink:href="#DejaVuSans-30" x="190.869141"/>
      </g>
     </g>
    </g>
    <g id="text_7">
     <!-- Learned Episodes -->
     <g transform="translate(192.102187 335.860562)scale(0.1 -0.1)">
      <defs>
       <path id="DejaVuSans-4c" d="M 628 4666 
L 1259 4666 
L 1259 531 
L 3531 531 
L 3531 0 
L 628 0 
L 628 4666 
z
" transform="scale(0.015625)"/>
       <path id="DejaVuSans-65" d="M 3597 1894 
L 3597 1613 
L 953 1613 
Q 991 1019 1311 708 
Q 1631 397 2203 397 
Q 2534 397 2845 478 
Q 3156 559 3463 722 
L 3463 178 
Q 3153 47 2828 -22 
Q 2503 -91 2169 -91 
Q 1331 -91 842 396 
Q 353 884 353 1716 
Q 353 2575 817 3079 
Q 1281 3584 2069 3584 
Q 2775 3584 3186 3129 
Q 3597 2675 3597 1894 
z
M 3022 2063 
Q 3016 2534 2758 2815 
Q 2500 3097 2075 3097 
Q 1594 3097 1305 2825 
Q 1016 2553 972 2059 
L 3022 2063 
z
" transform="scale(0.015625)"/>
       <path id="DejaVuSans-61" d="M 2194 1759 
Q 1497 1759 1228 1600 
Q 959 1441 959 1056 
Q 959 750 1161 570 
Q 1363 391 1709 391 
Q 2188 391 2477 730 
Q 2766 1069 2766 1631 
L 2766 1759 
L 2194 1759 
z
M 3341 1997 
L 3341 0 
L 2766 0 
L 2766 531 
Q 2569 213 2275 61 
Q 1981 -91 1556 -91 
Q 1019 -91 701 211 
Q 384 513 384 1019 
Q 384 1609 779 1909 
Q 1175 2209 1959 2209 
L 2766 2209 
L 2766 2266 
Q 2766 2663 2505 2880 
Q 2244 3097 1772 3097 
Q 1472 3097 1187 3025 
Q 903 2953 641 2809 
L 641 3341 
Q 956 3463 1253 3523 
Q 1550 3584 1831 3584 
Q 2591 3584 2966 3190 
Q 3341 2797 3341 1997 
z
" transform="scale(0.015625)"/>
       <path id="DejaVuSans-72" d="M 2631 2963 
Q 2534 3019 2420 3045 
Q 2306 3072 2169 3072 
Q 1681 3072 1420 2755 
Q 1159 2438 1159 1844 
L 1159 0 
L 581 0 
L 581 3500 
L 1159 3500 
L 1159 2956 
Q 1341 3275 1631 3429 
Q 1922 3584 2338 3584 
Q 2397 3584 2469 3576 
Q 2541 3569 2628 3553 
L 2631 2963 
z
" transform="scale(0.015625)"/>
       <path id="DejaVuSans-6e" d="M 3513 2113 
L 3513 0 
L 2938 0 
L 2938 2094 
Q 2938 2591 2744 2837 
Q 2550 3084 2163 3084 
Q 1697 3084 1428 2787 
Q 1159 2491 1159 1978 
L 1159 0 
L 581 0 
L 581 3500 
L 1159 3500 
L 1159 2956 
Q 1366 3272 1645 3428 
Q 1925 3584 2291 3584 
Q 2894 3584 3203 3211 
Q 3513 2838 3513 2113 
z
" transform="scale(0.015625)"/>
       <path id="DejaVuSans-64" d="M 2906 2969 
L 2906 4863 
L 3481 4863 
L 3481 0 
L 2906 0 
L 2906 525 
Q 2725 213 2448 61 
Q 2172 -91 1784 -91 
Q 1150 -91 751 415 
Q 353 922 353 1747 
Q 353 2572 751 3078 
Q 1150 3584 1784 3584 
Q 2172 3584 2448 3432 
Q 2725 3281 2906 2969 
z
M 947 1747 
Q 947 1113 1208 752 
Q 1469 391 1925 391 
Q 2381 391 2643 752 
Q 2906 1113 2906 1747 
Q 2906 2381 2643 2742 
Q 2381 3103 1925 3103 
Q 1469 3103 1208 2742 
Q 947 2381 947 1747 
z
" transform="scale(0.015625)"/>
       <path id="DejaVuSans-20" transform="scale(0.015625)"/>
       <path id="DejaVuSans-45" d="M 628 4666 
L 3578 4666 
L 3578 4134 
L 1259 4134 
L 1259 2753 
L 3481 2753 
L 3481 2222 
L 1259 2222 
L 1259 531 
L 3634 531 
L 3634 0 
L 628 0 
L 628 4666 
z
" transform="scale(0.015625)"/>
       <path id="DejaVuSans-70" d="M 1159 525 
L 1159 -1331 
L 581 -1331 
L 581 3500 
L 1159 3500 
L 1159 2969 
Q 1341 3281 1617 3432 
Q 1894 3584 2278 3584 
Q 2916 3584 3314 3078 
Q 3713 2572 3713 1747 
Q 3713 922 3314 415 
Q 2916 -91 2278 -91 
Q 1894 -91 1617 61 
Q 1341 213 1159 525 
z
M 3116 1747 
Q 3116 2381 2855 2742 
Q 2594 3103 2138 3103 
Q 1681 3103 1420 2742 
Q 1159 2381 1159 1747 
Q 1159 1113 1420 752 
Q 1681 391 2138 391 
Q 2594 391 2855 752 
Q 3116 1113 3116 1747 
z
" transform="scale(0.015625)"/>
       <path id="DejaVuSans-69" d="M 603 3500 
L 1178 3500 
L 1178 0 
L 603 0 
L 603 3500 
z
M 603 4863 
L 1178 4863 
L 1178 4134 
L 603 4134 
L 603 4863 
z
" transform="scale(0.015625)"/>
       <path id="DejaVuSans-73" d="M 2834 3397 
L 2834 2853 
Q 2591 2978 2328 3040 
Q 2066 3103 1784 3103 
Q 1356 3103 1142 2972 
Q 928 2841 928 2578 
Q 928 2378 1081 2264 
Q 1234 2150 1697 2047 
L 1894 2003 
Q 2506 1872 2764 1633 
Q 3022 1394 3022 966 
Q 3022 478 2636 193 
Q 2250 -91 1575 -91 
Q 1294 -91 989 -36 
Q 684 19 347 128 
L 347 722 
Q 666 556 975 473 
Q 1284 391 1588 391 
Q 1994 391 2212 530 
Q 2431 669 2431 922 
Q 2431 1156 2273 1281 
Q 2116 1406 1581 1522 
L 1381 1569 
Q 847 1681 609 1914 
Q 372 2147 372 2553 
Q 372 3047 722 3315 
Q 1072 3584 1716 3584 
Q 2034 3584 2315 3537 
Q 2597 3491 2834 3397 
z
" transform="scale(0.015625)"/>
       <path id="DejaVuSans-6f" d="M 1959 3097 
Q 1497 3097 1228 2736 
Q 959 2375 959 1747 
Q 959 1119 1226 758 
Q 1494 397 1959 397 
Q 2419 397 2687 759 
Q 2956 1122 2956 1747 
Q 2956 2369 2687 2733 
Q 2419 3097 1959 3097 
z
M 1959 3584 
Q 2709 3584 3137 3096 
Q 3566 2609 3566 1747 
Q 3566 888 3137 398 
Q 2709 -91 1959 -91 
Q 1206 -91 779 398 
Q 353 888 353 1747 
Q 353 2609 779 3096 
Q 1206 3584 1959 3584 
z
" transform="scale(0.015625)"/>
      </defs>
      <use xlink:href="#DejaVuSans-4c"/>
      <use xlink:href="#DejaVuSans-65" x="53.962891"/>
      <use xlink:href="#DejaVuSans-61" x="115.486328"/>
      <use xlink:href="#DejaVuSans-72" x="176.765625"/>
      <use xlink:href="#DejaVuSans-6e" x="216.128906"/>
      <use xlink:href="#DejaVuSans-65" x="279.507812"/>
      <use xlink:href="#DejaVuSans-64" x="341.03125"/>
      <use xlink:href="#DejaVuSans-20" x="404.507812"/>
      <use xlink:href="#DejaVuSans-45" x="436.294922"/>
      <use xlink:href="#DejaVuSans-70" x="499.478516"/>
      <use xlink:href="#DejaVuSans-69" x="562.955078"/>
      <use xlink:href="#DejaVuSans-73" x="590.738281"/>
      <use xlink:href="#DejaVuSans-6f" x="642.837891"/>
      <use xlink:href="#DejaVuSans-64" x="704.019531"/>
      <use xlink:href="#DejaVuSans-65" x="767.496094"/>
      <use xlink:href="#DejaVuSans-73" x="829.019531"/>
     </g>
    </g>
   </g>
   <g id="matplotlib.axis_2">
    <g id="ytick_1">
     <g id="line2d_13">
      <path d="M 57.6 299.065284 
L 414.72 299.065284 
" clip-path="url(#p06cf55395a)" style="fill: none; stroke-dasharray: 2.96,1.28; stroke-dashoffset: 0; stroke: #b0b0b0; stroke-width: 0.8"/>
     </g>
     <g id="line2d_14">
      <defs>
       <path id="ma1ba44d380" d="M 0 0 
L -3.5 0 
" style="stroke: #000000; stroke-width: 0.8"/>
      </defs>
      <g>
       <use xlink:href="#ma1ba44d380" x="57.6" y="299.065284" style="stroke: #000000; stroke-width: 0.8"/>
      </g>
     </g>
     <g id="text_8">
      <!-- −140 -->
      <g transform="translate(23.132812 302.864503)scale(0.1 -0.1)">
       <defs>
        <path id="DejaVuSans-2212" d="M 678 2272 
L 4684 2272 
L 4684 1741 
L 678 1741 
L 678 2272 
z
" transform="scale(0.015625)"/>
       </defs>
       <use xlink:href="#DejaVuSans-2212"/>
       <use xlink:href="#DejaVuSans-31" x="83.789062"/>
       <use xlink:href="#DejaVuSans-34" x="147.412109"/>
       <use xlink:href="#DejaVuSans-30" x="211.035156"/>
      </g>
     </g>
    </g>
    <g id="ytick_2">
     <g id="line2d_15">
      <path d="M 57.6 263.953188 
L 414.72 263.953188 
" clip-path="url(#p06cf55395a)" style="fill: none; stroke-dasharray: 2.96,1.28; stroke-dashoffset: 0; stroke: #b0b0b0; stroke-width: 0.8"/>
     </g>
     <g id="line2d_16">
      <g>
       <use xlink:href="#ma1ba44d380" x="57.6" y="263.953188" style="stroke: #000000; stroke-width: 0.8"/>
      </g>
     </g>
     <g id="text_9">
      <!-- −120 -->
      <g transform="translate(23.132812 267.752406)scale(0.1 -0.1)">
       <use xlink:href="#DejaVuSans-2212"/>
       <use xlink:href="#DejaVuSans-31" x="83.789062"/>
       <use xlink:href="#DejaVuSans-32" x="147.412109"/>
       <use xlink:href="#DejaVuSans-30" x="211.035156"/>
      </g>
     </g>
    </g>
    <g id="ytick_3">
     <g id="line2d_17">
      <path d="M 57.6 228.841091 
L 414.72 228.841091 
" clip-path="url(#p06cf55395a)" style="fill: none; stroke-dasharray: 2.96,1.28; stroke-dashoffset: 0; stroke: #b0b0b0; stroke-width: 0.8"/>
     </g>
     <g id="line2d_18">
      <g>
       <use xlink:href="#ma1ba44d380" x="57.6" y="228.841091" style="stroke: #000000; stroke-width: 0.8"/>
      </g>
     </g>
     <g id="text_10">
      <!-- −100 -->
      <g transform="translate(23.132812 232.64031)scale(0.1 -0.1)">
       <use xlink:href="#DejaVuSans-2212"/>
       <use xlink:href="#DejaVuSans-31" x="83.789062"/>
       <use xlink:href="#DejaVuSans-30" x="147.412109"/>
       <use xlink:href="#DejaVuSans-30" x="211.035156"/>
      </g>
     </g>
    </g>
    <g id="ytick_4">
     <g id="line2d_19">
      <path d="M 57.6 193.728994 
L 414.72 193.728994 
" clip-path="url(#p06cf55395a)" style="fill: none; stroke-dasharray: 2.96,1.28; stroke-dashoffset: 0; stroke: #b0b0b0; stroke-width: 0.8"/>
     </g>
     <g id="line2d_20">
      <g>
       <use xlink:href="#ma1ba44d380" x="57.6" y="193.728994" style="stroke: #000000; stroke-width: 0.8"/>
      </g>
     </g>
     <g id="text_11">
      <!-- −80 -->
      <g transform="translate(29.495313 197.528213)scale(0.1 -0.1)">
       <defs>
        <path id="DejaVuSans-38" d="M 2034 2216 
Q 1584 2216 1326 1975 
Q 1069 1734 1069 1313 
Q 1069 891 1326 650 
Q 1584 409 2034 409 
Q 2484 409 2743 651 
Q 3003 894 3003 1313 
Q 3003 1734 2745 1975 
Q 2488 2216 2034 2216 
z
M 1403 2484 
Q 997 2584 770 2862 
Q 544 3141 544 3541 
Q 544 4100 942 4425 
Q 1341 4750 2034 4750 
Q 2731 4750 3128 4425 
Q 3525 4100 3525 3541 
Q 3525 3141 3298 2862 
Q 3072 2584 2669 2484 
Q 3125 2378 3379 2068 
Q 3634 1759 3634 1313 
Q 3634 634 3220 271 
Q 2806 -91 2034 -91 
Q 1263 -91 848 271 
Q 434 634 434 1313 
Q 434 1759 690 2068 
Q 947 2378 1403 2484 
z
M 1172 3481 
Q 1172 3119 1398 2916 
Q 1625 2713 2034 2713 
Q 2441 2713 2670 2916 
Q 2900 3119 2900 3481 
Q 2900 3844 2670 4047 
Q 2441 4250 2034 4250 
Q 1625 4250 1398 4047 
Q 1172 3844 1172 3481 
z
" transform="scale(0.015625)"/>
       </defs>
       <use xlink:href="#DejaVuSans-2212"/>
       <use xlink:href="#DejaVuSans-38" x="83.789062"/>
       <use xlink:href="#DejaVuSans-30" x="147.412109"/>
      </g>
     </g>
    </g>
    <g id="ytick_5">
     <g id="line2d_21">
      <path d="M 57.6 158.616898 
L 414.72 158.616898 
" clip-path="url(#p06cf55395a)" style="fill: none; stroke-dasharray: 2.96,1.28; stroke-dashoffset: 0; stroke: #b0b0b0; stroke-width: 0.8"/>
     </g>
     <g id="line2d_22">
      <g>
       <use xlink:href="#ma1ba44d380" x="57.6" y="158.616898" style="stroke: #000000; stroke-width: 0.8"/>
      </g>
     </g>
     <g id="text_12">
      <!-- −60 -->
      <g transform="translate(29.495313 162.416117)scale(0.1 -0.1)">
       <use xlink:href="#DejaVuSans-2212"/>
       <use xlink:href="#DejaVuSans-36" x="83.789062"/>
       <use xlink:href="#DejaVuSans-30" x="147.412109"/>
      </g>
     </g>
    </g>
    <g id="ytick_6">
     <g id="line2d_23">
      <path d="M 57.6 123.504801 
L 414.72 123.504801 
" clip-path="url(#p06cf55395a)" style="fill: none; stroke-dasharray: 2.96,1.28; stroke-dashoffset: 0; stroke: #b0b0b0; stroke-width: 0.8"/>
     </g>
     <g id="line2d_24">
      <g>
       <use xlink:href="#ma1ba44d380" x="57.6" y="123.504801" style="stroke: #000000; stroke-width: 0.8"/>
      </g>
     </g>
     <g id="text_13">
      <!-- −40 -->
      <g transform="translate(29.495313 127.30402)scale(0.1 -0.1)">
       <use xlink:href="#DejaVuSans-2212"/>
       <use xlink:href="#DejaVuSans-34" x="83.789062"/>
       <use xlink:href="#DejaVuSans-30" x="147.412109"/>
      </g>
     </g>
    </g>
    <g id="ytick_7">
     <g id="line2d_25">
      <path d="M 57.6 88.392705 
L 414.72 88.392705 
" clip-path="url(#p06cf55395a)" style="fill: none; stroke-dasharray: 2.96,1.28; stroke-dashoffset: 0; stroke: #b0b0b0; stroke-width: 0.8"/>
     </g>
     <g id="line2d_26">
      <g>
       <use xlink:href="#ma1ba44d380" x="57.6" y="88.392705" style="stroke: #000000; stroke-width: 0.8"/>
      </g>
     </g>
     <g id="text_14">
      <!-- −20 -->
      <g transform="translate(29.495313 92.191923)scale(0.1 -0.1)">
       <use xlink:href="#DejaVuSans-2212"/>
       <use xlink:href="#DejaVuSans-32" x="83.789062"/>
       <use xlink:href="#DejaVuSans-30" x="147.412109"/>
      </g>
     </g>
    </g>
    <g id="ytick_8">
     <g id="line2d_27">
      <path d="M 57.6 53.280608 
L 414.72 53.280608 
" clip-path="url(#p06cf55395a)" style="fill: none; stroke-dasharray: 2.96,1.28; stroke-dashoffset: 0; stroke: #b0b0b0; stroke-width: 0.8"/>
     </g>
     <g id="line2d_28">
      <g>
       <use xlink:href="#ma1ba44d380" x="57.6" y="53.280608" style="stroke: #000000; stroke-width: 0.8"/>
      </g>
     </g>
     <g id="text_15">
      <!-- 0 -->
      <g transform="translate(44.2375 57.079827)scale(0.1 -0.1)">
       <use xlink:href="#DejaVuSans-30"/>
      </g>
     </g>
    </g>
    <g id="text_16">
     <!-- Reward Density -->
     <g transform="translate(17.053125 213.74675)rotate(-90)scale(0.1 -0.1)">
      <defs>
       <path id="DejaVuSans-52" d="M 2841 2188 
Q 3044 2119 3236 1894 
Q 3428 1669 3622 1275 
L 4263 0 
L 3584 0 
L 2988 1197 
Q 2756 1666 2539 1819 
Q 2322 1972 1947 1972 
L 1259 1972 
L 1259 0 
L 628 0 
L 628 4666 
L 2053 4666 
Q 2853 4666 3247 4331 
Q 3641 3997 3641 3322 
Q 3641 2881 3436 2590 
Q 3231 2300 2841 2188 
z
M 1259 4147 
L 1259 2491 
L 2053 2491 
Q 2509 2491 2742 2702 
Q 2975 2913 2975 3322 
Q 2975 3731 2742 3939 
Q 2509 4147 2053 4147 
L 1259 4147 
z
" transform="scale(0.015625)"/>
       <path id="DejaVuSans-77" d="M 269 3500 
L 844 3500 
L 1563 769 
L 2278 3500 
L 2956 3500 
L 3675 769 
L 4391 3500 
L 4966 3500 
L 4050 0 
L 3372 0 
L 2619 2869 
L 1863 0 
L 1184 0 
L 269 3500 
z
" transform="scale(0.015625)"/>
       <path id="DejaVuSans-44" d="M 1259 4147 
L 1259 519 
L 2022 519 
Q 2988 519 3436 956 
Q 3884 1394 3884 2338 
Q 3884 3275 3436 3711 
Q 2988 4147 2022 4147 
L 1259 4147 
z
M 628 4666 
L 1925 4666 
Q 3281 4666 3915 4102 
Q 4550 3538 4550 2338 
Q 4550 1131 3912 565 
Q 3275 0 1925 0 
L 628 0 
L 628 4666 
z
" transform="scale(0.015625)"/>
       <path id="DejaVuSans-74" d="M 1172 4494 
L 1172 3500 
L 2356 3500 
L 2356 3053 
L 1172 3053 
L 1172 1153 
Q 1172 725 1289 603 
Q 1406 481 1766 481 
L 2356 481 
L 2356 0 
L 1766 0 
Q 1100 0 847 248 
Q 594 497 594 1153 
L 594 3053 
L 172 3053 
L 172 3500 
L 594 3500 
L 594 4494 
L 1172 4494 
z
" transform="scale(0.015625)"/>
       <path id="DejaVuSans-79" d="M 2059 -325 
Q 1816 -950 1584 -1140 
Q 1353 -1331 966 -1331 
L 506 -1331 
L 506 -850 
L 844 -850 
Q 1081 -850 1212 -737 
Q 1344 -625 1503 -206 
L 1606 56 
L 191 3500 
L 800 3500 
L 1894 763 
L 2988 3500 
L 3597 3500 
L 2059 -325 
z
" transform="scale(0.015625)"/>
      </defs>
      <use xlink:href="#DejaVuSans-52"/>
      <use xlink:href="#DejaVuSans-65" x="64.982422"/>
      <use xlink:href="#DejaVuSans-77" x="126.505859"/>
      <use xlink:href="#DejaVuSans-61" x="208.292969"/>
      <use xlink:href="#DejaVuSans-72" x="269.572266"/>
      <use xlink:href="#DejaVuSans-64" x="308.935547"/>
      <use xlink:href="#DejaVuSans-20" x="372.412109"/>
      <use xlink:href="#DejaVuSans-44" x="404.199219"/>
      <use xlink:href="#DejaVuSans-65" x="481.201172"/>
      <use xlink:href="#DejaVuSans-6e" x="542.724609"/>
      <use xlink:href="#DejaVuSans-73" x="606.103516"/>
      <use xlink:href="#DejaVuSans-69" x="658.203125"/>
      <use xlink:href="#DejaVuSans-74" x="685.986328"/>
      <use xlink:href="#DejaVuSans-79" x="725.195312"/>
     </g>
    </g>
   </g>
   <g id="LineCollection_1">
    <path d="M 90.919809 80.736216 
L 125.093971 80.736216 
" clip-path="url(#p06cf55395a)" style="fill: none; stroke: #1f77b4; stroke-width: 1.5"/>
    <path d="M 176.355215 85.146882 
L 210.529378 85.146882 
" clip-path="url(#p06cf55395a)" style="fill: none; stroke: #1f77b4; stroke-width: 1.5"/>
    <path d="M 261.790622 102.476371 
L 295.964785 102.476371 
" clip-path="url(#p06cf55395a)" style="fill: none; stroke: #1f77b4; stroke-width: 1.5"/>
    <path d="M 347.226029 131.348332 
L 381.400191 131.348332 
" clip-path="url(#p06cf55395a)" style="fill: none; stroke: #1f77b4; stroke-width: 1.5"/>
   </g>
   <g id="LineCollection_2">
    <path d="M 90.919809 60.130337 
L 125.093971 60.130337 
" clip-path="url(#p06cf55395a)" style="fill: none; stroke: #1f77b4; stroke-width: 1.5"/>
    <path d="M 176.355215 60.333517 
L 210.529378 60.333517 
" clip-path="url(#p06cf55395a)" style="fill: none; stroke: #1f77b4; stroke-width: 1.5"/>
    <path d="M 261.790622 55.347548 
L 295.964785 55.347548 
" clip-path="url(#p06cf55395a)" style="fill: none; stroke: #1f77b4; stroke-width: 1.5"/>
    <path d="M 347.226029 53.568 
L 381.400191 53.568 
" clip-path="url(#p06cf55395a)" style="fill: none; stroke: #1f77b4; stroke-width: 1.5"/>
   </g>
   <g id="LineCollection_3">
    <path d="M 90.919809 131.546351 
L 125.093971 131.546351 
" clip-path="url(#p06cf55395a)" style="fill: none; stroke: #1f77b4; stroke-width: 1.5"/>
    <path d="M 176.355215 162.702919 
L 210.529378 162.702919 
" clip-path="url(#p06cf55395a)" style="fill: none; stroke: #1f77b4; stroke-width: 1.5"/>
    <path d="M 261.790622 295.488 
L 295.964785 295.488 
" clip-path="url(#p06cf55395a)" style="fill: none; stroke: #1f77b4; stroke-width: 1.5"/>
    <path d="M 347.226029 294.195272 
L 381.400191 294.195272 
" clip-path="url(#p06cf55395a)" style="fill: none; stroke: #1f77b4; stroke-width: 1.5"/>
   </g>
   <g id="LineCollection_4">
    <path d="M 108.00689 131.546351 
L 108.00689 60.130337 
" clip-path="url(#p06cf55395a)" style="fill: none; stroke: #1f77b4; stroke-width: 1.5"/>
    <path d="M 193.442297 162.702919 
L 193.442297 60.333517 
" clip-path="url(#p06cf55395a)" style="fill: none; stroke: #1f77b4; stroke-width: 1.5"/>
    <path d="M 278.877703 295.488 
L 278.877703 55.347548 
" clip-path="url(#p06cf55395a)" style="fill: none; stroke: #1f77b4; stroke-width: 1.5"/>
    <path d="M 364.31311 294.195272 
L 364.31311 53.568 
" clip-path="url(#p06cf55395a)" style="fill: none; stroke: #1f77b4; stroke-width: 1.5"/>
   </g>
   <g id="line2d_29">
    <path d="M 108.00689 80.736216 
L 193.442297 85.146882 
L 278.877703 102.476371 
L 364.31311 131.348332 
" clip-path="url(#p06cf55395a)" style="fill: none; stroke: #4682b4; stroke-width: 1.5; stroke-linecap: square"/>
   </g>
   <g id="line2d_30">
    <path d="M 108.00689 80.736216 
L 193.442297 85.146882 
L 278.877703 102.476371 
L 364.31311 131.348332 
" clip-path="url(#p06cf55395a)" style="fill: none; stroke: #4682b4; stroke-width: 1.5; stroke-linecap: square"/>
   </g>
   <g id="patch_3">
    <path d="M 57.6 307.584 
L 57.6 41.472 
" style="fill: none; stroke: #000000; stroke-width: 0.8; stroke-linejoin: miter; stroke-linecap: square"/>
   </g>
   <g id="patch_4">
    <path d="M 414.72 307.584 
L 414.72 41.472 
" style="fill: none; stroke: #000000; stroke-width: 0.8; stroke-linejoin: miter; stroke-linecap: square"/>
   </g>
   <g id="patch_5">
    <path d="M 57.6 307.584 
L 414.72 307.584 
" style="fill: none; stroke: #000000; stroke-width: 0.8; stroke-linejoin: miter; stroke-linecap: square"/>
   </g>
   <g id="patch_6">
    <path d="M 57.6 41.472 
L 414.72 41.472 
" style="fill: none; stroke: #000000; stroke-width: 0.8; stroke-linejoin: miter; stroke-linecap: square"/>
   </g>
   <g id="text_17">
    <!-- Violinplot for progress of profits/rebuy_cost -->
    <g transform="translate(106.935937 35.472)scale(0.12 -0.12)">
     <defs>
      <path id="DejaVuSans-56" d="M 1831 0 
L 50 4666 
L 709 4666 
L 2188 738 
L 3669 4666 
L 4325 4666 
L 2547 0 
L 1831 0 
z
" transform="scale(0.015625)"/>
      <path id="DejaVuSans-6c" d="M 603 4863 
L 1178 4863 
L 1178 0 
L 603 0 
L 603 4863 
z
" transform="scale(0.015625)"/>
      <path id="DejaVuSans-66" d="M 2375 4863 
L 2375 4384 
L 1825 4384 
Q 1516 4384 1395 4259 
Q 1275 4134 1275 3809 
L 1275 3500 
L 2222 3500 
L 2222 3053 
L 1275 3053 
L 1275 0 
L 697 0 
L 697 3053 
L 147 3053 
L 147 3500 
L 697 3500 
L 697 3744 
Q 697 4328 969 4595 
Q 1241 4863 1831 4863 
L 2375 4863 
z
" transform="scale(0.015625)"/>
      <path id="DejaVuSans-67" d="M 2906 1791 
Q 2906 2416 2648 2759 
Q 2391 3103 1925 3103 
Q 1463 3103 1205 2759 
Q 947 2416 947 1791 
Q 947 1169 1205 825 
Q 1463 481 1925 481 
Q 2391 481 2648 825 
Q 2906 1169 2906 1791 
z
M 3481 434 
Q 3481 -459 3084 -895 
Q 2688 -1331 1869 -1331 
Q 1566 -1331 1297 -1286 
Q 1028 -1241 775 -1147 
L 775 -588 
Q 1028 -725 1275 -790 
Q 1522 -856 1778 -856 
Q 2344 -856 2625 -561 
Q 2906 -266 2906 331 
L 2906 616 
Q 2728 306 2450 153 
Q 2172 0 1784 0 
Q 1141 0 747 490 
Q 353 981 353 1791 
Q 353 2603 747 3093 
Q 1141 3584 1784 3584 
Q 2172 3584 2450 3431 
Q 2728 3278 2906 2969 
L 2906 3500 
L 3481 3500 
L 3481 434 
z
" transform="scale(0.015625)"/>
      <path id="DejaVuSans-2f" d="M 1625 4666 
L 2156 4666 
L 531 -594 
L 0 -594 
L 1625 4666 
z
" transform="scale(0.015625)"/>
      <path id="DejaVuSans-62" d="M 3116 1747 
Q 3116 2381 2855 2742 
Q 2594 3103 2138 3103 
Q 1681 3103 1420 2742 
Q 1159 2381 1159 1747 
Q 1159 1113 1420 752 
Q 1681 391 2138 391 
Q 2594 391 2855 752 
Q 3116 1113 3116 1747 
z
M 1159 2969 
Q 1341 3281 1617 3432 
Q 1894 3584 2278 3584 
Q 2916 3584 3314 3078 
Q 3713 2572 3713 1747 
Q 3713 922 3314 415 
Q 2916 -91 2278 -91 
Q 1894 -91 1617 61 
Q 1341 213 1159 525 
L 1159 0 
L 581 0 
L 581 4863 
L 1159 4863 
L 1159 2969 
z
" transform="scale(0.015625)"/>
      <path id="DejaVuSans-75" d="M 544 1381 
L 544 3500 
L 1119 3500 
L 1119 1403 
Q 1119 906 1312 657 
Q 1506 409 1894 409 
Q 2359 409 2629 706 
Q 2900 1003 2900 1516 
L 2900 3500 
L 3475 3500 
L 3475 0 
L 2900 0 
L 2900 538 
Q 2691 219 2414 64 
Q 2138 -91 1772 -91 
Q 1169 -91 856 284 
Q 544 659 544 1381 
z
M 1991 3584 
L 1991 3584 
z
" transform="scale(0.015625)"/>
      <path id="DejaVuSans-5f" d="M 3263 -1063 
L 3263 -1509 
L -63 -1509 
L -63 -1063 
L 3263 -1063 
z
" transform="scale(0.015625)"/>
      <path id="DejaVuSans-63" d="M 3122 3366 
L 3122 2828 
Q 2878 2963 2633 3030 
Q 2388 3097 2138 3097 
Q 1578 3097 1268 2742 
Q 959 2388 959 1747 
Q 959 1106 1268 751 
Q 1578 397 2138 397 
Q 2388 397 2633 464 
Q 2878 531 3122 666 
L 3122 134 
Q 2881 22 2623 -34 
Q 2366 -91 2075 -91 
Q 1284 -91 818 406 
Q 353 903 353 1747 
Q 353 2603 823 3093 
Q 1294 3584 2113 3584 
Q 2378 3584 2631 3529 
Q 2884 3475 3122 3366 
z
" transform="scale(0.015625)"/>
     </defs>
     <use xlink:href="#DejaVuSans-56"/>
     <use xlink:href="#DejaVuSans-69" x="66.158203"/>
     <use xlink:href="#DejaVuSans-6f" x="93.941406"/>
     <use xlink:href="#DejaVuSans-6c" x="155.123047"/>
     <use xlink:href="#DejaVuSans-69" x="182.90625"/>
     <use xlink:href="#DejaVuSans-6e" x="210.689453"/>
     <use xlink:href="#DejaVuSans-70" x="274.068359"/>
     <use xlink:href="#DejaVuSans-6c" x="337.544922"/>
     <use xlink:href="#DejaVuSans-6f" x="365.328125"/>
     <use xlink:href="#DejaVuSans-74" x="426.509766"/>
     <use xlink:href="#DejaVuSans-20" x="465.71875"/>
     <use xlink:href="#DejaVuSans-66" x="497.505859"/>
     <use xlink:href="#DejaVuSans-6f" x="532.710938"/>
     <use xlink:href="#DejaVuSans-72" x="593.892578"/>
     <use xlink:href="#DejaVuSans-20" x="635.005859"/>
     <use xlink:href="#DejaVuSans-70" x="666.792969"/>
     <use xlink:href="#DejaVuSans-72" x="730.269531"/>
     <use xlink:href="#DejaVuSans-6f" x="769.132812"/>
     <use xlink:href="#DejaVuSans-67" x="830.314453"/>
     <use xlink:href="#DejaVuSans-72" x="893.791016"/>
     <use xlink:href="#DejaVuSans-65" x="932.654297"/>
     <use xlink:href="#DejaVuSans-73" x="994.177734"/>
     <use xlink:href="#DejaVuSans-73" x="1046.277344"/>
     <use xlink:href="#DejaVuSans-20" x="1098.376953"/>
     <use xlink:href="#DejaVuSans-6f" x="1130.164062"/>
     <use xlink:href="#DejaVuSans-66" x="1191.345703"/>
     <use xlink:href="#DejaVuSans-20" x="1226.550781"/>
     <use xlink:href="#DejaVuSans-70" x="1258.337891"/>
     <use xlink:href="#DejaVuSans-72" x="1321.814453"/>
     <use xlink:href="#DejaVuSans-6f" x="1360.677734"/>
     <use xlink:href="#DejaVuSans-66" x="1421.859375"/>
     <use xlink:href="#DejaVuSans-69" x="1457.064453"/>
     <use xlink:href="#DejaVuSans-74" x="1484.847656"/>
     <use xlink:href="#DejaVuSans-73" x="1524.056641"/>
     <use xlink:href="#DejaVuSans-2f" x="1576.15625"/>
     <use xlink:href="#DejaVuSans-72" x="1609.847656"/>
     <use xlink:href="#DejaVuSans-65" x="1648.710938"/>
     <use xlink:href="#DejaVuSans-62" x="1710.234375"/>
     <use xlink:href="#DejaVuSans-75" x="1773.710938"/>
     <use xlink:href="#DejaVuSans-79" x="1837.089844"/>
     <use xlink:href="#DejaVuSans-5f" x="1896.269531"/>
     <use xlink:href="#DejaVuSans-63" x="1946.269531"/>
     <use xlink:href="#DejaVuSans-6f" x="2001.25"/>
     <use xlink:href="#DejaVuSans-73" x="2062.431641"/>
     <use xlink:href="#DejaVuSans-74" x="2114.53125"/>
    </g>
   </g>
   <g id="legend_1">
    <g id="patch_7">
     <path d="M 276.25125 64.150125 
L 407.72 64.150125 
Q 409.72 64.150125 409.72 62.150125 
L 409.72 48.472 
Q 409.72 46.472 407.72 46.472 
L 276.25125 46.472 
Q 274.25125 46.472 274.25125 48.472 
L 274.25125 62.150125 
Q 274.25125 64.150125 276.25125 64.150125 
z
" style="fill: #ffffff; opacity: 0.8; stroke: #cccccc; stroke-linejoin: miter"/>
    </g>
    <g id="line2d_31">
     <path d="M 278.25125 54.570438 
L 288.25125 54.570438 
L 298.25125 54.570438 
" style="fill: none; stroke: #4682b4; stroke-width: 1.5; stroke-linecap: square"/>
    </g>
    <g id="text_18">
     <!-- StableBaselinesSAC -->
     <g transform="translate(306.25125 58.070438)scale(0.1 -0.1)">
      <defs>
       <path id="DejaVuSans-53" d="M 3425 4513 
L 3425 3897 
Q 3066 4069 2747 4153 
Q 2428 4238 2131 4238 
Q 1616 4238 1336 4038 
Q 1056 3838 1056 3469 
Q 1056 3159 1242 3001 
Q 1428 2844 1947 2747 
L 2328 2669 
Q 3034 2534 3370 2195 
Q 3706 1856 3706 1288 
Q 3706 609 3251 259 
Q 2797 -91 1919 -91 
Q 1588 -91 1214 -16 
Q 841 59 441 206 
L 441 856 
Q 825 641 1194 531 
Q 1563 422 1919 422 
Q 2459 422 2753 634 
Q 3047 847 3047 1241 
Q 3047 1584 2836 1778 
Q 2625 1972 2144 2069 
L 1759 2144 
Q 1053 2284 737 2584 
Q 422 2884 422 3419 
Q 422 4038 858 4394 
Q 1294 4750 2059 4750 
Q 2388 4750 2728 4690 
Q 3069 4631 3425 4513 
z
" transform="scale(0.015625)"/>
       <path id="DejaVuSans-42" d="M 1259 2228 
L 1259 519 
L 2272 519 
Q 2781 519 3026 730 
Q 3272 941 3272 1375 
Q 3272 1813 3026 2020 
Q 2781 2228 2272 2228 
L 1259 2228 
z
M 1259 4147 
L 1259 2741 
L 2194 2741 
Q 2656 2741 2882 2914 
Q 3109 3088 3109 3444 
Q 3109 3797 2882 3972 
Q 2656 4147 2194 4147 
L 1259 4147 
z
M 628 4666 
L 2241 4666 
Q 2963 4666 3353 4366 
Q 3744 4066 3744 3513 
Q 3744 3084 3544 2831 
Q 3344 2578 2956 2516 
Q 3422 2416 3680 2098 
Q 3938 1781 3938 1306 
Q 3938 681 3513 340 
Q 3088 0 2303 0 
L 628 0 
L 628 4666 
z
" transform="scale(0.015625)"/>
       <path id="DejaVuSans-41" d="M 2188 4044 
L 1331 1722 
L 3047 1722 
L 2188 4044 
z
M 1831 4666 
L 2547 4666 
L 4325 0 
L 3669 0 
L 3244 1197 
L 1141 1197 
L 716 0 
L 50 0 
L 1831 4666 
z
" transform="scale(0.015625)"/>
       <path id="DejaVuSans-43" d="M 4122 4306 
L 4122 3641 
Q 3803 3938 3442 4084 
Q 3081 4231 2675 4231 
Q 1875 4231 1450 3742 
Q 1025 3253 1025 2328 
Q 1025 1406 1450 917 
Q 1875 428 2675 428 
Q 3081 428 3442 575 
Q 3803 722 4122 1019 
L 4122 359 
Q 3791 134 3420 21 
Q 3050 -91 2638 -91 
Q 1578 -91 968 557 
Q 359 1206 359 2328 
Q 359 3453 968 4101 
Q 1578 4750 2638 4750 
Q 3056 4750 3426 4639 
Q 3797 4528 4122 4306 
z
" transform="scale(0.015625)"/>
      </defs>
      <use xlink:href="#DejaVuSans-53"/>
      <use xlink:href="#DejaVuSans-74" x="63.476562"/>
      <use xlink:href="#DejaVuSans-61" x="102.685547"/>
      <use xlink:href="#DejaVuSans-62" x="163.964844"/>
      <use xlink:href="#DejaVuSans-6c" x="227.441406"/>
      <use xlink:href="#DejaVuSans-65" x="255.224609"/>
      <use xlink:href="#DejaVuSans-42" x="316.748047"/>
      <use xlink:href="#DejaVuSans-61" x="385.351562"/>
      <use xlink:href="#DejaVuSans-73" x="446.630859"/>
      <use xlink:href="#DejaVuSans-65" x="498.730469"/>
      <use xlink:href="#DejaVuSans-6c" x="560.253906"/>
      <use xlink:href="#DejaVuSans-69" x="588.037109"/>
      <use xlink:href="#DejaVuSans-6e" x="615.820312"/>
      <use xlink:href="#DejaVuSans-65" x="679.199219"/>
      <use xlink:href="#DejaVuSans-73" x="740.722656"/>
      <use xlink:href="#DejaVuSans-53" x="792.822266"/>
      <use xlink:href="#DejaVuSans-41" x="858.173828"/>
      <use xlink:href="#DejaVuSans-43" x="924.832031"/>
     </g>
    </g>
   </g>
  </g>
 </g>
 <defs>
  <clipPath id="p06cf55395a">
   <rect x="57.6" y="41.472" width="357.12" height="266.112"/>
  </clipPath>
 </defs>
</svg>
