<?xml version="1.0" encoding="utf-8" standalone="no"?>
<!DOCTYPE svg PUBLIC "-//W3C//DTD SVG 1.1//EN"
  "http://www.w3.org/Graphics/SVG/1.1/DTD/svg11.dtd">
<svg xmlns:xlink="http://www.w3.org/1999/xlink" width="460.8pt" height="345.6pt" viewBox="0 0 460.8 345.6" xmlns="http://www.w3.org/2000/svg" version="1.1">
 <metadata>
  <rdf:RDF xmlns:dc="http://purl.org/dc/elements/1.1/" xmlns:cc="http://creativecommons.org/ns#" xmlns:rdf="http://www.w3.org/1999/02/22-rdf-syntax-ns#">
   <cc:Work>
    <dc:type rdf:resource="http://purl.org/dc/dcmitype/StillImage"/>
    <dc:date>2022-06-20T20:26:29.893101</dc:date>
    <dc:format>image/svg+xml</dc:format>
    <dc:creator>
     <cc:Agent>
      <dc:title>Matplotlib v3.5.2, https://matplotlib.org/</dc:title>
     </cc:Agent>
    </dc:creator>
   </cc:Work>
  </rdf:RDF>
 </metadata>
 <defs>
  <style type="text/css">*{stroke-linejoin: round; stroke-linecap: butt}</style>
 </defs>
 <g id="figure_1">
  <g id="patch_1">
   <path d="M 0 345.6 
L 460.8 345.6 
L 460.8 0 
L 0 0 
z
" style="fill: #ffffff"/>
  </g>
  <g id="axes_1">
   <g id="patch_2">
    <path d="M 57.6 307.584 
L 414.72 307.584 
L 414.72 41.472 
L 57.6 41.472 
z
" style="fill: #ffffff"/>
   </g>
   <g id="PolyCollection_1">
    <path d="M 108.750057 208.256408 
L 107.263723 208.256408 
L 107.219268 206.823603 
L 107.18047 205.390799 
L 107.141253 203.957994 
L 107.093159 202.52519 
L 107.026091 201.092385 
L 106.929372 199.659581 
L 106.792959 198.226776 
L 106.608649 196.793972 
L 106.371102 195.361167 
L 106.078547 193.928363 
L 105.733072 192.495558 
L 105.340476 191.062754 
L 104.909707 189.629949 
L 104.451962 188.197145 
L 103.979593 186.76434 
L 103.504946 185.331536 
L 103.039298 183.898732 
L 102.592018 182.465927 
L 102.170013 181.033123 
L 101.777483 179.600318 
L 101.415935 178.167514 
L 101.084388 176.734709 
L 100.779656 175.301905 
L 100.496678 173.8691 
L 100.228851 172.436296 
L 99.968406 171.003491 
L 99.706862 169.570687 
L 99.435623 168.137882 
L 99.146699 166.705078 
L 98.833512 165.272273 
L 98.491679 163.839469 
L 98.119626 162.406664 
L 97.718889 160.97386 
L 97.293967 159.541055 
L 96.851691 158.108251 
L 96.400099 156.675446 
L 95.946953 155.242642 
L 95.498081 153.809837 
L 95.055816 152.377033 
L 94.617841 150.944229 
L 94.176712 149.511424 
L 93.720252 148.07862 
L 93.232877 146.645815 
L 92.697682 145.213011 
L 92.098989 143.780206 
L 91.424883 142.347402 
L 90.669245 140.914597 
L 89.83288 139.481793 
L 88.923527 138.048988 
L 87.954783 136.616184 
L 86.944232 135.183379 
L 85.91121 133.750575 
L 84.874699 132.31777 
L 83.851746 130.884966 
L 82.856613 129.452161 
L 81.900669 128.019357 
L 80.99282 126.586552 
L 80.140199 125.153748 
L 79.348815 123.720943 
L 78.623904 122.288139 
L 77.969906 120.855334 
L 77.390031 119.42253 
L 76.88555 117.989726 
L 76.454987 116.556921 
L 76.093421 115.124117 
L 75.792143 113.691312 
L 75.538874 112.258508 
L 75.318707 110.825703 
L 75.115831 109.392899 
L 74.91594 107.960094 
L 74.709086 106.52729 
L 74.492559 105.094485 
L 74.273289 103.661681 
L 74.069261 102.228876 
L 73.909542 100.796072 
L 73.832727 99.363267 
L 73.883876 97.930463 
L 74.11025 96.497658 
L 74.55637 95.064854 
L 75.259007 93.632049 
L 76.242728 92.199245 
L 77.516528 90.76644 
L 79.071965 89.333636 
L 80.882999 87.900831 
L 82.907599 86.468027 
L 85.090931 85.035223 
L 87.369784 83.602418 
L 89.67772 82.169614 
L 91.950332 80.736809 
L 94.12999 79.304005 
L 96.169527 77.8712 
L 98.034504 76.438396 
L 99.703929 75.005591 
L 101.169535 73.572787 
L 102.433931 72.139982 
L 103.50807 70.707178 
L 104.408476 69.274373 
L 105.154655 67.841569 
L 105.766943 66.408764 
L 110.246837 66.408764 
L 110.246837 66.408764 
L 110.859125 67.841569 
L 111.605304 69.274373 
L 112.50571 70.707178 
L 113.579849 72.139982 
L 114.844245 73.572787 
L 116.309851 75.005591 
L 117.979276 76.438396 
L 119.844253 77.8712 
L 121.88379 79.304005 
L 124.063448 80.736809 
L 126.33606 82.169614 
L 128.643996 83.602418 
L 130.922849 85.035223 
L 133.106181 86.468027 
L 135.130781 87.900831 
L 136.941815 89.333636 
L 138.497251 90.76644 
L 139.771052 92.199245 
L 140.754773 93.632049 
L 141.45741 95.064854 
L 141.90353 96.497658 
L 142.129904 97.930463 
L 142.181053 99.363267 
L 142.104238 100.796072 
L 141.944519 102.228876 
L 141.740491 103.661681 
L 141.521221 105.094485 
L 141.304694 106.52729 
L 141.09784 107.960094 
L 140.897948 109.392899 
L 140.695073 110.825703 
L 140.474906 112.258508 
L 140.221637 113.691312 
L 139.920358 115.124117 
L 139.558793 116.556921 
L 139.12823 117.989726 
L 138.623749 119.42253 
L 138.043874 120.855334 
L 137.389875 122.288139 
L 136.664965 123.720943 
L 135.87358 125.153748 
L 135.02096 126.586552 
L 134.113111 128.019357 
L 133.157166 129.452161 
L 132.162034 130.884966 
L 131.139081 132.31777 
L 130.10257 133.750575 
L 129.069548 135.183379 
L 128.058997 136.616184 
L 127.090253 138.048988 
L 126.1809 139.481793 
L 125.344535 140.914597 
L 124.588897 142.347402 
L 123.914791 143.780206 
L 123.316098 145.213011 
L 122.780903 146.645815 
L 122.293527 148.07862 
L 121.837068 149.511424 
L 121.395939 150.944229 
L 120.957964 152.377033 
L 120.515699 153.809837 
L 120.066827 155.242642 
L 119.613681 156.675446 
L 119.162089 158.108251 
L 118.719813 159.541055 
L 118.294891 160.97386 
L 117.894153 162.406664 
L 117.522101 163.839469 
L 117.180268 165.272273 
L 116.867081 166.705078 
L 116.578157 168.137882 
L 116.306918 169.570687 
L 116.045374 171.003491 
L 115.784928 172.436296 
L 115.517102 173.8691 
L 115.234124 175.301905 
L 114.929392 176.734709 
L 114.597845 178.167514 
L 114.236297 179.600318 
L 113.843767 181.033123 
L 113.421762 182.465927 
L 112.974482 183.898732 
L 112.508834 185.331536 
L 112.034186 186.76434 
L 111.561817 188.197145 
L 111.104073 189.629949 
L 110.673303 191.062754 
L 110.280708 192.495558 
L 109.935233 193.928363 
L 109.642678 195.361167 
L 109.405131 196.793972 
L 109.220821 198.226776 
L 109.084408 199.659581 
L 108.987689 201.092385 
L 108.920621 202.52519 
L 108.872527 203.957994 
L 108.83331 205.390799 
L 108.794512 206.823603 
L 108.750057 208.256408 
z
" clip-path="url(#pea0c37a524)" style="fill: #1f77b4; fill-opacity: 0.3"/>
   </g>
   <g id="PolyCollection_2">
    <path d="M 196.049108 249.090038 
L 190.835485 249.090038 
L 190.4835 247.115068 
L 190.132318 245.140098 
L 189.787703 243.165128 
L 189.453753 241.190158 
L 189.132489 239.215188 
L 188.823695 237.240218 
L 188.524997 235.265248 
L 188.232123 233.290278 
L 187.939267 231.315307 
L 187.639459 229.340337 
L 187.324859 227.365367 
L 186.986987 225.390397 
L 186.6169 223.415427 
L 186.205433 221.440457 
L 185.743599 219.465487 
L 185.223219 217.490517 
L 184.637791 215.515547 
L 183.98348 213.540577 
L 183.260062 211.565607 
L 182.471579 209.590637 
L 181.626475 207.615666 
L 180.737111 205.640696 
L 179.818624 203.665726 
L 178.887308 201.690756 
L 177.958782 199.715786 
L 177.046259 197.740816 
L 176.159237 195.765846 
L 175.302817 193.790876 
L 174.477704 191.815906 
L 173.68082 189.840936 
L 172.906333 187.865966 
L 172.146851 185.890996 
L 171.394574 183.916025 
L 170.642239 181.941055 
L 169.883816 179.966085 
L 169.114985 177.991115 
L 168.33348 176.016145 
L 167.53937 174.041175 
L 166.735313 172.066205 
L 165.926754 170.091235 
L 165.121953 168.116265 
L 164.331744 166.141295 
L 163.568914 164.166325 
L 162.847195 162.191355 
L 162.179939 160.216384 
L 161.578658 158.241414 
L 161.051669 156.266444 
L 160.603122 154.291474 
L 160.232614 152.316504 
L 159.935542 150.341534 
L 159.704171 148.366564 
L 159.529297 146.391594 
L 159.402242 144.416624 
L 159.316848 142.441654 
L 159.271111 140.466684 
L 159.268134 138.491714 
L 159.316173 136.516743 
L 159.427686 134.541773 
L 159.617465 132.566803 
L 159.900118 130.591833 
L 160.287258 128.616863 
L 160.784909 126.641893 
L 161.391553 124.666923 
L 162.097244 122.691953 
L 162.883955 120.716983 
L 163.727201 118.742013 
L 164.598675 116.767043 
L 165.469506 114.792073 
L 166.313616 112.817102 
L 167.110632 110.842132 
L 167.847927 108.867162 
L 168.521509 106.892192 
L 169.135691 104.917222 
L 169.701711 102.942252 
L 170.235596 100.967282 
L 170.755682 98.992312 
L 171.280227 97.017342 
L 171.825439 95.042372 
L 172.404165 93.067402 
L 173.025313 91.092432 
L 173.693927 89.117461 
L 174.411757 87.142491 
L 175.178081 85.167521 
L 175.990537 83.192551 
L 176.845801 81.217581 
L 177.739975 79.242611 
L 178.668687 77.267641 
L 179.62696 75.292671 
L 180.608953 73.317701 
L 181.607702 71.342731 
L 182.614977 69.367761 
L 183.621317 67.392791 
L 184.616265 65.41782 
L 185.588778 63.44285 
L 186.527743 61.46788 
L 187.422551 59.49291 
L 188.263635 57.51794 
L 189.042933 55.54297 
L 189.754244 53.568 
L 197.130349 53.568 
L 197.130349 53.568 
L 197.841661 55.54297 
L 198.620959 57.51794 
L 199.462042 59.49291 
L 200.35685 61.46788 
L 201.295816 63.44285 
L 202.268328 65.41782 
L 203.263276 67.392791 
L 204.269616 69.367761 
L 205.276891 71.342731 
L 206.27564 73.317701 
L 207.257633 75.292671 
L 208.215907 77.267641 
L 209.144619 79.242611 
L 210.038792 81.217581 
L 210.894056 83.192551 
L 211.706513 85.167521 
L 212.472836 87.142491 
L 213.190666 89.117461 
L 213.85928 91.092432 
L 214.480428 93.067402 
L 215.059155 95.042372 
L 215.604366 97.017342 
L 216.128911 98.992312 
L 216.648997 100.967282 
L 217.182882 102.942252 
L 217.748903 104.917222 
L 218.363085 106.892192 
L 219.036666 108.867162 
L 219.773961 110.842132 
L 220.570977 112.817102 
L 221.415087 114.792073 
L 222.285918 116.767043 
L 223.157392 118.742013 
L 224.000638 120.716983 
L 224.787349 122.691953 
L 225.49304 124.666923 
L 226.099685 126.641893 
L 226.597335 128.616863 
L 226.984476 130.591833 
L 227.267128 132.566803 
L 227.456908 134.541773 
L 227.56842 136.516743 
L 227.616459 138.491714 
L 227.613483 140.466684 
L 227.567745 142.441654 
L 227.482351 144.416624 
L 227.355296 146.391594 
L 227.180422 148.366564 
L 226.949051 150.341534 
L 226.651979 152.316504 
L 226.281471 154.291474 
L 225.832924 156.266444 
L 225.305935 158.241414 
L 224.704654 160.216384 
L 224.037398 162.191355 
L 223.315679 164.166325 
L 222.552849 166.141295 
L 221.76264 168.116265 
L 220.957839 170.091235 
L 220.14928 172.066205 
L 219.345224 174.041175 
L 218.551113 176.016145 
L 217.769608 177.991115 
L 217.000778 179.966085 
L 216.242355 181.941055 
L 215.490019 183.916025 
L 214.737742 185.890996 
L 213.97826 187.865966 
L 213.203773 189.840936 
L 212.406889 191.815906 
L 211.581776 193.790876 
L 210.725356 195.765846 
L 209.838335 197.740816 
L 208.925811 199.715786 
L 207.997285 201.690756 
L 207.06597 203.665726 
L 206.147482 205.640696 
L 205.258118 207.615666 
L 204.413015 209.590637 
L 203.624531 211.565607 
L 202.901114 213.540577 
L 202.246802 215.515547 
L 201.661374 217.490517 
L 201.140995 219.465487 
L 200.67916 221.440457 
L 200.267693 223.415427 
L 199.897606 225.390397 
L 199.559734 227.365367 
L 199.245135 229.340337 
L 198.945326 231.315307 
L 198.652471 233.290278 
L 198.359596 235.265248 
L 198.060898 237.240218 
L 197.752105 239.215188 
L 197.430841 241.190158 
L 197.09689 243.165128 
L 196.752276 245.140098 
L 196.401094 247.115068 
L 196.049108 249.090038 
z
" clip-path="url(#pea0c37a524)" style="fill: #1f77b4; fill-opacity: 0.3"/>
   </g>
   <g id="PolyCollection_3">
    <path d="M 279.204885 285.044178 
L 278.550521 285.044178 
L 278.522448 282.823634 
L 278.487187 280.60309 
L 278.438806 278.382545 
L 278.369954 276.162001 
L 278.272179 273.941457 
L 278.136398 271.720913 
L 277.953486 269.500368 
L 277.714967 267.279824 
L 277.413746 265.05928 
L 277.044836 262.838735 
L 276.606018 260.618191 
L 276.098356 258.397647 
L 275.526483 256.177102 
L 274.898587 253.956558 
L 274.226018 251.736014 
L 273.522493 249.51547 
L 272.802924 247.294925 
L 272.081957 245.074381 
L 271.372403 242.853837 
L 270.683771 240.633292 
L 270.021171 238.412748 
L 269.384812 236.192204 
L 268.770244 233.97166 
L 268.169382 231.751115 
L 267.572187 229.530571 
L 266.968735 227.310027 
L 266.351315 225.089482 
L 265.716115 222.868938 
L 265.064165 220.648394 
L 264.401288 218.427849 
L 263.737027 216.207305 
L 263.082713 213.986761 
L 262.449059 211.766217 
L 261.843726 209.545672 
L 261.269378 207.325128 
L 260.722624 205.104584 
L 260.194078 202.884039 
L 259.669566 200.663495 
L 259.132243 198.442951 
L 258.565265 196.222406 
L 257.954499 194.001862 
L 257.290808 191.781318 
L 256.571513 189.560774 
L 255.800801 187.340229 
L 254.989054 185.119685 
L 254.151252 182.899141 
L 253.304759 180.678596 
L 252.466885 178.458052 
L 251.652635 176.237508 
L 250.873006 174.016964 
L 250.134107 171.796419 
L 249.437228 169.575875 
L 248.779866 167.355331 
L 248.157517 165.134786 
L 247.56596 162.914242 
L 247.003576 160.693698 
L 246.473262 158.473153 
L 245.983468 156.252609 
L 245.548047 154.032065 
L 245.184769 151.811521 
L 244.912667 149.590976 
L 244.748583 147.370432 
L 244.703541 145.149888 
L 244.779642 142.929343 
L 244.96814 140.708799 
L 245.249178 138.488255 
L 245.593368 136.26771 
L 245.965068 134.047166 
L 246.326901 131.826622 
L 246.6448 129.606078 
L 246.892796 127.385533 
L 247.056771 125.164989 
L 247.136572 122.944445 
L 247.14617 120.7239 
L 247.111849 118.503356 
L 247.068741 116.282812 
L 247.056296 114.062268 
L 247.113413 111.841723 
L 247.273999 109.621179 
L 247.56361 107.400635 
L 247.997602 105.18009 
L 248.580938 102.959546 
L 249.309482 100.739002 
L 250.172382 98.518457 
L 251.154983 96.297913 
L 252.241666 94.077369 
L 253.418124 91.856825 
L 254.672713 89.63628 
L 255.996767 87.415736 
L 257.383952 85.195192 
L 258.828906 82.974647 
L 260.325531 80.754103 
L 261.86532 78.533559 
L 263.436079 76.313014 
L 265.021299 74.09247 
L 266.600318 71.871926 
L 268.149262 69.651382 
L 269.642633 67.430837 
L 271.055285 65.210293 
L 286.700121 65.210293 
L 286.700121 65.210293 
L 288.112774 67.430837 
L 289.606145 69.651382 
L 291.155089 71.871926 
L 292.734107 74.09247 
L 294.319327 76.313014 
L 295.890087 78.533559 
L 297.429876 80.754103 
L 298.926501 82.974647 
L 300.371454 85.195192 
L 301.758639 87.415736 
L 303.082694 89.63628 
L 304.337282 91.856825 
L 305.51374 94.077369 
L 306.600424 96.297913 
L 307.583025 98.518457 
L 308.445925 100.739002 
L 309.174468 102.959546 
L 309.757804 105.18009 
L 310.191797 107.400635 
L 310.481408 109.621179 
L 310.641994 111.841723 
L 310.699111 114.062268 
L 310.686666 116.282812 
L 310.643558 118.503356 
L 310.609236 120.7239 
L 310.618835 122.944445 
L 310.698636 125.164989 
L 310.862611 127.385533 
L 311.110607 129.606078 
L 311.428506 131.826622 
L 311.790338 134.047166 
L 312.162039 136.26771 
L 312.506228 138.488255 
L 312.787266 140.708799 
L 312.975765 142.929343 
L 313.051866 145.149888 
L 313.006824 147.370432 
L 312.84274 149.590976 
L 312.570638 151.811521 
L 312.20736 154.032065 
L 311.771938 156.252609 
L 311.282145 158.473153 
L 310.751831 160.693698 
L 310.189447 162.914242 
L 309.597889 165.134786 
L 308.975541 167.355331 
L 308.318178 169.575875 
L 307.6213 171.796419 
L 306.8824 174.016964 
L 306.102772 176.237508 
L 305.288522 178.458052 
L 304.450648 180.678596 
L 303.604155 182.899141 
L 302.766353 185.119685 
L 301.954606 187.340229 
L 301.183894 189.560774 
L 300.464599 191.781318 
L 299.800908 194.001862 
L 299.190141 196.222406 
L 298.623164 198.442951 
L 298.085841 200.663495 
L 297.561328 202.884039 
L 297.032783 205.104584 
L 296.486028 207.325128 
L 295.911681 209.545672 
L 295.306348 211.766217 
L 294.672694 213.986761 
L 294.01838 216.207305 
L 293.354118 218.427849 
L 292.691242 220.648394 
L 292.039292 222.868938 
L 291.404092 225.089482 
L 290.786671 227.310027 
L 290.18322 229.530571 
L 289.586024 231.751115 
L 288.985162 233.97166 
L 288.370595 236.192204 
L 287.734236 238.412748 
L 287.071636 240.633292 
L 286.383004 242.853837 
L 285.673449 245.074381 
L 284.952483 247.294925 
L 284.232914 249.51547 
L 283.529389 251.736014 
L 282.85682 253.956558 
L 282.228924 256.177102 
L 281.657051 258.397647 
L 281.149388 260.618191 
L 280.710571 262.838735 
L 280.341661 265.05928 
L 280.04044 267.279824 
L 279.801921 269.500368 
L 279.619009 271.720913 
L 279.483227 273.941457 
L 279.385453 276.162001 
L 279.316601 278.382545 
L 279.268219 280.60309 
L 279.232959 282.823634 
L 279.204885 285.044178 
z
" clip-path="url(#pea0c37a524)" style="fill: #1f77b4; fill-opacity: 0.3"/>
   </g>
   <g id="PolyCollection_4">
    <path d="M 366.312619 295.488 
L 362.313601 295.488 
L 361.941794 293.142939 
L 361.52001 290.797878 
L 361.043298 288.452818 
L 360.506542 286.107757 
L 359.904803 283.762696 
L 359.233785 281.417635 
L 358.490381 279.072574 
L 357.673238 276.727514 
L 356.783268 274.382453 
L 355.824011 272.037392 
L 354.801783 269.692331 
L 353.725558 267.34727 
L 352.606586 265.00221 
L 351.457763 262.657149 
L 350.292861 260.312088 
L 349.125712 257.967027 
L 347.969474 255.621966 
L 346.836109 253.276906 
L 345.736133 250.931845 
L 344.678679 248.586784 
L 343.671829 246.241723 
L 342.723106 243.896662 
L 341.839994 241.551602 
L 341.030298 239.206541 
L 340.302233 236.86148 
L 339.664116 234.516419 
L 339.123673 232.171358 
L 338.68704 229.826298 
L 338.357617 227.481237 
L 338.134995 225.136176 
L 338.014204 222.791115 
L 337.98546 220.446054 
L 338.034549 218.100994 
L 338.143832 215.755933 
L 338.29377 213.410872 
L 338.464733 211.065811 
L 338.638809 208.72075 
L 338.801305 206.37569 
L 338.941694 204.030629 
L 339.053841 201.685568 
L 339.135503 199.340507 
L 339.18722 196.995446 
L 339.210832 194.650386 
L 339.207937 192.305325 
L 339.178615 189.960264 
L 339.120678 187.615203 
L 339.029599 185.270142 
L 338.899137 182.925082 
L 338.722522 180.580021 
L 338.493964 178.23496 
L 338.210159 175.889899 
L 337.87149 173.544838 
L 337.482663 171.199778 
L 337.05265 168.854717 
L 336.593909 166.509656 
L 336.121036 164.164595 
L 335.649042 161.819534 
L 335.191564 159.474474 
L 334.759285 157.129413 
L 334.358796 154.784352 
L 333.992067 152.439291 
L 333.656571 150.09423 
L 333.346033 147.74917 
L 333.051675 145.404109 
L 332.763784 143.059048 
L 332.473411 140.713987 
L 332.173995 138.368926 
L 331.862749 136.023866 
L 331.541652 133.678805 
L 331.217958 131.333744 
L 330.904178 128.988683 
L 330.617525 126.643622 
L 330.37889 124.298562 
L 330.211433 121.953501 
L 330.138947 119.60844 
L 330.184152 117.263379 
L 330.367093 114.918318 
L 330.703804 112.573258 
L 331.205362 110.228197 
L 331.877382 107.883136 
L 332.719966 105.538075 
L 333.728041 103.193014 
L 334.891977 100.847954 
L 336.198351 98.502893 
L 337.630733 96.157832 
L 339.17039 93.812771 
L 340.796873 91.46771 
L 342.488458 89.12265 
L 344.222514 86.777589 
L 345.975843 84.432528 
L 347.725075 82.087467 
L 349.44716 79.742406 
L 351.119975 77.397346 
L 352.723015 75.052285 
L 354.238113 72.707224 
L 355.650106 70.362163 
L 356.947362 68.017102 
L 358.122108 65.672042 
L 359.170521 63.326981 
L 369.455699 63.326981 
L 369.455699 63.326981 
L 370.504112 65.672042 
L 371.678858 68.017102 
L 372.976114 70.362163 
L 374.388107 72.707224 
L 375.903205 75.052285 
L 377.506246 77.397346 
L 379.17906 79.742406 
L 380.901145 82.087467 
L 382.650377 84.432528 
L 384.403706 86.777589 
L 386.137762 89.12265 
L 387.829347 91.46771 
L 389.45583 93.812771 
L 390.995488 96.157832 
L 392.427869 98.502893 
L 393.734243 100.847954 
L 394.898179 103.193014 
L 395.906255 105.538075 
L 396.748838 107.883136 
L 397.420858 110.228197 
L 397.922416 112.573258 
L 398.259127 114.918318 
L 398.442068 117.263379 
L 398.487273 119.60844 
L 398.414787 121.953501 
L 398.24733 124.298562 
L 398.008695 126.643622 
L 397.722042 128.988683 
L 397.408262 131.333744 
L 397.084568 133.678805 
L 396.763471 136.023866 
L 396.452225 138.368926 
L 396.15281 140.713987 
L 395.862436 143.059048 
L 395.574545 145.404109 
L 395.280187 147.74917 
L 394.969649 150.09423 
L 394.634153 152.439291 
L 394.267424 154.784352 
L 393.866935 157.129413 
L 393.434656 159.474474 
L 392.977179 161.819534 
L 392.505184 164.164595 
L 392.032311 166.509656 
L 391.573571 168.854717 
L 391.143557 171.199778 
L 390.75473 173.544838 
L 390.416061 175.889899 
L 390.132256 178.23496 
L 389.903699 180.580021 
L 389.727084 182.925082 
L 389.596621 185.270142 
L 389.505542 187.615203 
L 389.447605 189.960264 
L 389.418283 192.305325 
L 389.415388 194.650386 
L 389.439 196.995446 
L 389.490717 199.340507 
L 389.572379 201.685568 
L 389.684526 204.030629 
L 389.824915 206.37569 
L 389.987412 208.72075 
L 390.161487 211.065811 
L 390.33245 213.410872 
L 390.482388 215.755933 
L 390.591671 218.100994 
L 390.64076 220.446054 
L 390.612016 222.791115 
L 390.491225 225.136176 
L 390.268603 227.481237 
L 389.93918 229.826298 
L 389.502547 232.171358 
L 388.962104 234.516419 
L 388.323987 236.86148 
L 387.595922 239.206541 
L 386.786227 241.551602 
L 385.903114 243.896662 
L 384.954391 246.241723 
L 383.947541 248.586784 
L 382.890087 250.931845 
L 381.790111 253.276906 
L 380.656746 255.621966 
L 379.500508 257.967027 
L 378.333359 260.312088 
L 377.168457 262.657149 
L 376.019634 265.00221 
L 374.900662 267.34727 
L 373.824438 269.692331 
L 372.802209 272.037392 
L 371.842952 274.382453 
L 370.952982 276.727514 
L 370.135839 279.072574 
L 369.392435 281.417635 
L 368.721417 283.762696 
L 368.119678 286.107757 
L 367.582922 288.452818 
L 367.10621 290.797878 
L 366.684426 293.142939 
L 366.312619 295.488 
z
" clip-path="url(#pea0c37a524)" style="fill: #1f77b4; fill-opacity: 0.3"/>
   </g>
   <g id="matplotlib.axis_1">
    <g id="xtick_1">
     <g id="line2d_1">
      <path d="M 79.528421 307.584 
L 79.528421 41.472 
" clip-path="url(#pea0c37a524)" style="fill: none; stroke-dasharray: 2.96,1.28; stroke-dashoffset: 0; stroke: #b0b0b0; stroke-width: 0.8"/>
     </g>
     <g id="line2d_2">
      <defs>
       <path id="mc899c02809" d="M 0 0 
L 0 3.5 
" style="stroke: #000000; stroke-width: 0.8"/>
      </defs>
      <g>
       <use xlink:href="#mc899c02809" x="79.528421" y="307.584" style="stroke: #000000; stroke-width: 0.8"/>
      </g>
     </g>
     <g id="text_1">
      <!-- 1000 -->
      <g transform="translate(66.803421 322.182437)scale(0.1 -0.1)">
       <defs>
        <path id="DejaVuSans-31" d="M 794 531 
L 1825 531 
L 1825 4091 
L 703 3866 
L 703 4441 
L 1819 4666 
L 2450 4666 
L 2450 531 
L 3481 531 
L 3481 0 
L 794 0 
L 794 531 
z
" transform="scale(0.015625)"/>
        <path id="DejaVuSans-30" d="M 2034 4250 
Q 1547 4250 1301 3770 
Q 1056 3291 1056 2328 
Q 1056 1369 1301 889 
Q 1547 409 2034 409 
Q 2525 409 2770 889 
Q 3016 1369 3016 2328 
Q 3016 3291 2770 3770 
Q 2525 4250 2034 4250 
z
M 2034 4750 
Q 2819 4750 3233 4129 
Q 3647 3509 3647 2328 
Q 3647 1150 3233 529 
Q 2819 -91 2034 -91 
Q 1250 -91 836 529 
Q 422 1150 422 2328 
Q 422 3509 836 4129 
Q 1250 4750 2034 4750 
z
" transform="scale(0.015625)"/>
       </defs>
       <use xlink:href="#DejaVuSans-31"/>
       <use xlink:href="#DejaVuSans-30" x="63.623047"/>
       <use xlink:href="#DejaVuSans-30" x="127.246094"/>
       <use xlink:href="#DejaVuSans-30" x="190.869141"/>
      </g>
     </g>
    </g>
    <g id="xtick_2">
     <g id="line2d_3">
      <path d="M 136.485359 307.584 
L 136.485359 41.472 
" clip-path="url(#pea0c37a524)" style="fill: none; stroke-dasharray: 2.96,1.28; stroke-dashoffset: 0; stroke: #b0b0b0; stroke-width: 0.8"/>
     </g>
     <g id="line2d_4">
      <g>
       <use xlink:href="#mc899c02809" x="136.485359" y="307.584" style="stroke: #000000; stroke-width: 0.8"/>
      </g>
     </g>
     <g id="text_2">
      <!-- 2000 -->
      <g transform="translate(123.760359 322.182437)scale(0.1 -0.1)">
       <defs>
        <path id="DejaVuSans-32" d="M 1228 531 
L 3431 531 
L 3431 0 
L 469 0 
L 469 531 
Q 828 903 1448 1529 
Q 2069 2156 2228 2338 
Q 2531 2678 2651 2914 
Q 2772 3150 2772 3378 
Q 2772 3750 2511 3984 
Q 2250 4219 1831 4219 
Q 1534 4219 1204 4116 
Q 875 4013 500 3803 
L 500 4441 
Q 881 4594 1212 4672 
Q 1544 4750 1819 4750 
Q 2544 4750 2975 4387 
Q 3406 4025 3406 3419 
Q 3406 3131 3298 2873 
Q 3191 2616 2906 2266 
Q 2828 2175 2409 1742 
Q 1991 1309 1228 531 
z
" transform="scale(0.015625)"/>
       </defs>
       <use xlink:href="#DejaVuSans-32"/>
       <use xlink:href="#DejaVuSans-30" x="63.623047"/>
       <use xlink:href="#DejaVuSans-30" x="127.246094"/>
       <use xlink:href="#DejaVuSans-30" x="190.869141"/>
      </g>
     </g>
    </g>
    <g id="xtick_3">
     <g id="line2d_5">
      <path d="M 193.442297 307.584 
L 193.442297 41.472 
" clip-path="url(#pea0c37a524)" style="fill: none; stroke-dasharray: 2.96,1.28; stroke-dashoffset: 0; stroke: #b0b0b0; stroke-width: 0.8"/>
     </g>
     <g id="line2d_6">
      <g>
       <use xlink:href="#mc899c02809" x="193.442297" y="307.584" style="stroke: #000000; stroke-width: 0.8"/>
      </g>
     </g>
     <g id="text_3">
      <!-- 3000 -->
      <g transform="translate(180.717297 322.182437)scale(0.1 -0.1)">
       <defs>
        <path id="DejaVuSans-33" d="M 2597 2516 
Q 3050 2419 3304 2112 
Q 3559 1806 3559 1356 
Q 3559 666 3084 287 
Q 2609 -91 1734 -91 
Q 1441 -91 1130 -33 
Q 819 25 488 141 
L 488 750 
Q 750 597 1062 519 
Q 1375 441 1716 441 
Q 2309 441 2620 675 
Q 2931 909 2931 1356 
Q 2931 1769 2642 2001 
Q 2353 2234 1838 2234 
L 1294 2234 
L 1294 2753 
L 1863 2753 
Q 2328 2753 2575 2939 
Q 2822 3125 2822 3475 
Q 2822 3834 2567 4026 
Q 2313 4219 1838 4219 
Q 1578 4219 1281 4162 
Q 984 4106 628 3988 
L 628 4550 
Q 988 4650 1302 4700 
Q 1616 4750 1894 4750 
Q 2613 4750 3031 4423 
Q 3450 4097 3450 3541 
Q 3450 3153 3228 2886 
Q 3006 2619 2597 2516 
z
" transform="scale(0.015625)"/>
       </defs>
       <use xlink:href="#DejaVuSans-33"/>
       <use xlink:href="#DejaVuSans-30" x="63.623047"/>
       <use xlink:href="#DejaVuSans-30" x="127.246094"/>
       <use xlink:href="#DejaVuSans-30" x="190.869141"/>
      </g>
     </g>
    </g>
    <g id="xtick_4">
     <g id="line2d_7">
      <path d="M 250.399234 307.584 
L 250.399234 41.472 
" clip-path="url(#pea0c37a524)" style="fill: none; stroke-dasharray: 2.96,1.28; stroke-dashoffset: 0; stroke: #b0b0b0; stroke-width: 0.8"/>
     </g>
     <g id="line2d_8">
      <g>
       <use xlink:href="#mc899c02809" x="250.399234" y="307.584" style="stroke: #000000; stroke-width: 0.8"/>
      </g>
     </g>
     <g id="text_4">
      <!-- 4000 -->
      <g transform="translate(237.674234 322.182437)scale(0.1 -0.1)">
       <defs>
        <path id="DejaVuSans-34" d="M 2419 4116 
L 825 1625 
L 2419 1625 
L 2419 4116 
z
M 2253 4666 
L 3047 4666 
L 3047 1625 
L 3713 1625 
L 3713 1100 
L 3047 1100 
L 3047 0 
L 2419 0 
L 2419 1100 
L 313 1100 
L 313 1709 
L 2253 4666 
z
" transform="scale(0.015625)"/>
       </defs>
       <use xlink:href="#DejaVuSans-34"/>
       <use xlink:href="#DejaVuSans-30" x="63.623047"/>
       <use xlink:href="#DejaVuSans-30" x="127.246094"/>
       <use xlink:href="#DejaVuSans-30" x="190.869141"/>
      </g>
     </g>
    </g>
    <g id="xtick_5">
     <g id="line2d_9">
      <path d="M 307.356172 307.584 
L 307.356172 41.472 
" clip-path="url(#pea0c37a524)" style="fill: none; stroke-dasharray: 2.96,1.28; stroke-dashoffset: 0; stroke: #b0b0b0; stroke-width: 0.8"/>
     </g>
     <g id="line2d_10">
      <g>
       <use xlink:href="#mc899c02809" x="307.356172" y="307.584" style="stroke: #000000; stroke-width: 0.8"/>
      </g>
     </g>
     <g id="text_5">
      <!-- 5000 -->
      <g transform="translate(294.631172 322.182437)scale(0.1 -0.1)">
       <defs>
        <path id="DejaVuSans-35" d="M 691 4666 
L 3169 4666 
L 3169 4134 
L 1269 4134 
L 1269 2991 
Q 1406 3038 1543 3061 
Q 1681 3084 1819 3084 
Q 2600 3084 3056 2656 
Q 3513 2228 3513 1497 
Q 3513 744 3044 326 
Q 2575 -91 1722 -91 
Q 1428 -91 1123 -41 
Q 819 9 494 109 
L 494 744 
Q 775 591 1075 516 
Q 1375 441 1709 441 
Q 2250 441 2565 725 
Q 2881 1009 2881 1497 
Q 2881 1984 2565 2268 
Q 2250 2553 1709 2553 
Q 1456 2553 1204 2497 
Q 953 2441 691 2322 
L 691 4666 
z
" transform="scale(0.015625)"/>
       </defs>
       <use xlink:href="#DejaVuSans-35"/>
       <use xlink:href="#DejaVuSans-30" x="63.623047"/>
       <use xlink:href="#DejaVuSans-30" x="127.246094"/>
       <use xlink:href="#DejaVuSans-30" x="190.869141"/>
      </g>
     </g>
    </g>
    <g id="xtick_6">
     <g id="line2d_11">
      <path d="M 364.31311 307.584 
L 364.31311 41.472 
" clip-path="url(#pea0c37a524)" style="fill: none; stroke-dasharray: 2.96,1.28; stroke-dashoffset: 0; stroke: #b0b0b0; stroke-width: 0.8"/>
     </g>
     <g id="line2d_12">
      <g>
       <use xlink:href="#mc899c02809" x="364.31311" y="307.584" style="stroke: #000000; stroke-width: 0.8"/>
      </g>
     </g>
     <g id="text_6">
      <!-- 6000 -->
      <g transform="translate(351.58811 322.182437)scale(0.1 -0.1)">
       <defs>
        <path id="DejaVuSans-36" d="M 2113 2584 
Q 1688 2584 1439 2293 
Q 1191 2003 1191 1497 
Q 1191 994 1439 701 
Q 1688 409 2113 409 
Q 2538 409 2786 701 
Q 3034 994 3034 1497 
Q 3034 2003 2786 2293 
Q 2538 2584 2113 2584 
z
M 3366 4563 
L 3366 3988 
Q 3128 4100 2886 4159 
Q 2644 4219 2406 4219 
Q 1781 4219 1451 3797 
Q 1122 3375 1075 2522 
Q 1259 2794 1537 2939 
Q 1816 3084 2150 3084 
Q 2853 3084 3261 2657 
Q 3669 2231 3669 1497 
Q 3669 778 3244 343 
Q 2819 -91 2113 -91 
Q 1303 -91 875 529 
Q 447 1150 447 2328 
Q 447 3434 972 4092 
Q 1497 4750 2381 4750 
Q 2619 4750 2861 4703 
Q 3103 4656 3366 4563 
z
" transform="scale(0.015625)"/>
       </defs>
       <use xlink:href="#DejaVuSans-36"/>
       <use xlink:href="#DejaVuSans-30" x="63.623047"/>
       <use xlink:href="#DejaVuSans-30" x="127.246094"/>
       <use xlink:href="#DejaVuSans-30" x="190.869141"/>
      </g>
     </g>
    </g>
    <g id="text_7">
     <!-- Learned Episodes -->
     <g transform="translate(192.102187 335.860562)scale(0.1 -0.1)">
      <defs>
       <path id="DejaVuSans-4c" d="M 628 4666 
L 1259 4666 
L 1259 531 
L 3531 531 
L 3531 0 
L 628 0 
L 628 4666 
z
" transform="scale(0.015625)"/>
       <path id="DejaVuSans-65" d="M 3597 1894 
L 3597 1613 
L 953 1613 
Q 991 1019 1311 708 
Q 1631 397 2203 397 
Q 2534 397 2845 478 
Q 3156 559 3463 722 
L 3463 178 
Q 3153 47 2828 -22 
Q 2503 -91 2169 -91 
Q 1331 -91 842 396 
Q 353 884 353 1716 
Q 353 2575 817 3079 
Q 1281 3584 2069 3584 
Q 2775 3584 3186 3129 
Q 3597 2675 3597 1894 
z
M 3022 2063 
Q 3016 2534 2758 2815 
Q 2500 3097 2075 3097 
Q 1594 3097 1305 2825 
Q 1016 2553 972 2059 
L 3022 2063 
z
" transform="scale(0.015625)"/>
       <path id="DejaVuSans-61" d="M 2194 1759 
Q 1497 1759 1228 1600 
Q 959 1441 959 1056 
Q 959 750 1161 570 
Q 1363 391 1709 391 
Q 2188 391 2477 730 
Q 2766 1069 2766 1631 
L 2766 1759 
L 2194 1759 
z
M 3341 1997 
L 3341 0 
L 2766 0 
L 2766 531 
Q 2569 213 2275 61 
Q 1981 -91 1556 -91 
Q 1019 -91 701 211 
Q 384 513 384 1019 
Q 384 1609 779 1909 
Q 1175 2209 1959 2209 
L 2766 2209 
L 2766 2266 
Q 2766 2663 2505 2880 
Q 2244 3097 1772 3097 
Q 1472 3097 1187 3025 
Q 903 2953 641 2809 
L 641 3341 
Q 956 3463 1253 3523 
Q 1550 3584 1831 3584 
Q 2591 3584 2966 3190 
Q 3341 2797 3341 1997 
z
" transform="scale(0.015625)"/>
       <path id="DejaVuSans-72" d="M 2631 2963 
Q 2534 3019 2420 3045 
Q 2306 3072 2169 3072 
Q 1681 3072 1420 2755 
Q 1159 2438 1159 1844 
L 1159 0 
L 581 0 
L 581 3500 
L 1159 3500 
L 1159 2956 
Q 1341 3275 1631 3429 
Q 1922 3584 2338 3584 
Q 2397 3584 2469 3576 
Q 2541 3569 2628 3553 
L 2631 2963 
z
" transform="scale(0.015625)"/>
       <path id="DejaVuSans-6e" d="M 3513 2113 
L 3513 0 
L 2938 0 
L 2938 2094 
Q 2938 2591 2744 2837 
Q 2550 3084 2163 3084 
Q 1697 3084 1428 2787 
Q 1159 2491 1159 1978 
L 1159 0 
L 581 0 
L 581 3500 
L 1159 3500 
L 1159 2956 
Q 1366 3272 1645 3428 
Q 1925 3584 2291 3584 
Q 2894 3584 3203 3211 
Q 3513 2838 3513 2113 
z
" transform="scale(0.015625)"/>
       <path id="DejaVuSans-64" d="M 2906 2969 
L 2906 4863 
L 3481 4863 
L 3481 0 
L 2906 0 
L 2906 525 
Q 2725 213 2448 61 
Q 2172 -91 1784 -91 
Q 1150 -91 751 415 
Q 353 922 353 1747 
Q 353 2572 751 3078 
Q 1150 3584 1784 3584 
Q 2172 3584 2448 3432 
Q 2725 3281 2906 2969 
z
M 947 1747 
Q 947 1113 1208 752 
Q 1469 391 1925 391 
Q 2381 391 2643 752 
Q 2906 1113 2906 1747 
Q 2906 2381 2643 2742 
Q 2381 3103 1925 3103 
Q 1469 3103 1208 2742 
Q 947 2381 947 1747 
z
" transform="scale(0.015625)"/>
       <path id="DejaVuSans-20" transform="scale(0.015625)"/>
       <path id="DejaVuSans-45" d="M 628 4666 
L 3578 4666 
L 3578 4134 
L 1259 4134 
L 1259 2753 
L 3481 2753 
L 3481 2222 
L 1259 2222 
L 1259 531 
L 3634 531 
L 3634 0 
L 628 0 
L 628 4666 
z
" transform="scale(0.015625)"/>
       <path id="DejaVuSans-70" d="M 1159 525 
L 1159 -1331 
L 581 -1331 
L 581 3500 
L 1159 3500 
L 1159 2969 
Q 1341 3281 1617 3432 
Q 1894 3584 2278 3584 
Q 2916 3584 3314 3078 
Q 3713 2572 3713 1747 
Q 3713 922 3314 415 
Q 2916 -91 2278 -91 
Q 1894 -91 1617 61 
Q 1341 213 1159 525 
z
M 3116 1747 
Q 3116 2381 2855 2742 
Q 2594 3103 2138 3103 
Q 1681 3103 1420 2742 
Q 1159 2381 1159 1747 
Q 1159 1113 1420 752 
Q 1681 391 2138 391 
Q 2594 391 2855 752 
Q 3116 1113 3116 1747 
z
" transform="scale(0.015625)"/>
       <path id="DejaVuSans-69" d="M 603 3500 
L 1178 3500 
L 1178 0 
L 603 0 
L 603 3500 
z
M 603 4863 
L 1178 4863 
L 1178 4134 
L 603 4134 
L 603 4863 
z
" transform="scale(0.015625)"/>
       <path id="DejaVuSans-73" d="M 2834 3397 
L 2834 2853 
Q 2591 2978 2328 3040 
Q 2066 3103 1784 3103 
Q 1356 3103 1142 2972 
Q 928 2841 928 2578 
Q 928 2378 1081 2264 
Q 1234 2150 1697 2047 
L 1894 2003 
Q 2506 1872 2764 1633 
Q 3022 1394 3022 966 
Q 3022 478 2636 193 
Q 2250 -91 1575 -91 
Q 1294 -91 989 -36 
Q 684 19 347 128 
L 347 722 
Q 666 556 975 473 
Q 1284 391 1588 391 
Q 1994 391 2212 530 
Q 2431 669 2431 922 
Q 2431 1156 2273 1281 
Q 2116 1406 1581 1522 
L 1381 1569 
Q 847 1681 609 1914 
Q 372 2147 372 2553 
Q 372 3047 722 3315 
Q 1072 3584 1716 3584 
Q 2034 3584 2315 3537 
Q 2597 3491 2834 3397 
z
" transform="scale(0.015625)"/>
       <path id="DejaVuSans-6f" d="M 1959 3097 
Q 1497 3097 1228 2736 
Q 959 2375 959 1747 
Q 959 1119 1226 758 
Q 1494 397 1959 397 
Q 2419 397 2687 759 
Q 2956 1122 2956 1747 
Q 2956 2369 2687 2733 
Q 2419 3097 1959 3097 
z
M 1959 3584 
Q 2709 3584 3137 3096 
Q 3566 2609 3566 1747 
Q 3566 888 3137 398 
Q 2709 -91 1959 -91 
Q 1206 -91 779 398 
Q 353 888 353 1747 
Q 353 2609 779 3096 
Q 1206 3584 1959 3584 
z
" transform="scale(0.015625)"/>
      </defs>
      <use xlink:href="#DejaVuSans-4c"/>
      <use xlink:href="#DejaVuSans-65" x="53.962891"/>
      <use xlink:href="#DejaVuSans-61" x="115.486328"/>
      <use xlink:href="#DejaVuSans-72" x="176.765625"/>
      <use xlink:href="#DejaVuSans-6e" x="216.128906"/>
      <use xlink:href="#DejaVuSans-65" x="279.507812"/>
      <use xlink:href="#DejaVuSans-64" x="341.03125"/>
      <use xlink:href="#DejaVuSans-20" x="404.507812"/>
      <use xlink:href="#DejaVuSans-45" x="436.294922"/>
      <use xlink:href="#DejaVuSans-70" x="499.478516"/>
      <use xlink:href="#DejaVuSans-69" x="562.955078"/>
      <use xlink:href="#DejaVuSans-73" x="590.738281"/>
      <use xlink:href="#DejaVuSans-6f" x="642.837891"/>
      <use xlink:href="#DejaVuSans-64" x="704.019531"/>
      <use xlink:href="#DejaVuSans-65" x="767.496094"/>
      <use xlink:href="#DejaVuSans-73" x="829.019531"/>
     </g>
    </g>
   </g>
   <g id="matplotlib.axis_2">
    <g id="ytick_1">
     <g id="line2d_13">
      <path d="M 57.6 293.519083 
L 414.72 293.519083 
" clip-path="url(#pea0c37a524)" style="fill: none; stroke-dasharray: 2.96,1.28; stroke-dashoffset: 0; stroke: #b0b0b0; stroke-width: 0.8"/>
     </g>
     <g id="line2d_14">
      <defs>
       <path id="md0acf134f3" d="M 0 0 
L -3.5 0 
" style="stroke: #000000; stroke-width: 0.8"/>
      </defs>
      <g>
       <use xlink:href="#md0acf134f3" x="57.6" y="293.519083" style="stroke: #000000; stroke-width: 0.8"/>
      </g>
     </g>
     <g id="text_8">
      <!-- −300 -->
      <g transform="translate(23.132812 297.318302)scale(0.1 -0.1)">
       <defs>
        <path id="DejaVuSans-2212" d="M 678 2272 
L 4684 2272 
L 4684 1741 
L 678 1741 
L 678 2272 
z
" transform="scale(0.015625)"/>
       </defs>
       <use xlink:href="#DejaVuSans-2212"/>
       <use xlink:href="#DejaVuSans-33" x="83.789062"/>
       <use xlink:href="#DejaVuSans-30" x="147.412109"/>
       <use xlink:href="#DejaVuSans-30" x="211.035156"/>
      </g>
     </g>
    </g>
    <g id="ytick_2">
     <g id="line2d_15">
      <path d="M 57.6 250.716535 
L 414.72 250.716535 
" clip-path="url(#pea0c37a524)" style="fill: none; stroke-dasharray: 2.96,1.28; stroke-dashoffset: 0; stroke: #b0b0b0; stroke-width: 0.8"/>
     </g>
     <g id="line2d_16">
      <g>
       <use xlink:href="#md0acf134f3" x="57.6" y="250.716535" style="stroke: #000000; stroke-width: 0.8"/>
      </g>
     </g>
     <g id="text_9">
      <!-- −250 -->
      <g transform="translate(23.132812 254.515754)scale(0.1 -0.1)">
       <use xlink:href="#DejaVuSans-2212"/>
       <use xlink:href="#DejaVuSans-32" x="83.789062"/>
       <use xlink:href="#DejaVuSans-35" x="147.412109"/>
       <use xlink:href="#DejaVuSans-30" x="211.035156"/>
      </g>
     </g>
    </g>
    <g id="ytick_3">
     <g id="line2d_17">
      <path d="M 57.6 207.913987 
L 414.72 207.913987 
" clip-path="url(#pea0c37a524)" style="fill: none; stroke-dasharray: 2.96,1.28; stroke-dashoffset: 0; stroke: #b0b0b0; stroke-width: 0.8"/>
     </g>
     <g id="line2d_18">
      <g>
       <use xlink:href="#md0acf134f3" x="57.6" y="207.913987" style="stroke: #000000; stroke-width: 0.8"/>
      </g>
     </g>
     <g id="text_10">
      <!-- −200 -->
      <g transform="translate(23.132812 211.713206)scale(0.1 -0.1)">
       <use xlink:href="#DejaVuSans-2212"/>
       <use xlink:href="#DejaVuSans-32" x="83.789062"/>
       <use xlink:href="#DejaVuSans-30" x="147.412109"/>
       <use xlink:href="#DejaVuSans-30" x="211.035156"/>
      </g>
     </g>
    </g>
    <g id="ytick_4">
     <g id="line2d_19">
      <path d="M 57.6 165.111439 
L 414.72 165.111439 
" clip-path="url(#pea0c37a524)" style="fill: none; stroke-dasharray: 2.96,1.28; stroke-dashoffset: 0; stroke: #b0b0b0; stroke-width: 0.8"/>
     </g>
     <g id="line2d_20">
      <g>
       <use xlink:href="#md0acf134f3" x="57.6" y="165.111439" style="stroke: #000000; stroke-width: 0.8"/>
      </g>
     </g>
     <g id="text_11">
      <!-- −150 -->
      <g transform="translate(23.132812 168.910658)scale(0.1 -0.1)">
       <use xlink:href="#DejaVuSans-2212"/>
       <use xlink:href="#DejaVuSans-31" x="83.789062"/>
       <use xlink:href="#DejaVuSans-35" x="147.412109"/>
       <use xlink:href="#DejaVuSans-30" x="211.035156"/>
      </g>
     </g>
    </g>
    <g id="ytick_5">
     <g id="line2d_21">
      <path d="M 57.6 122.308892 
L 414.72 122.308892 
" clip-path="url(#pea0c37a524)" style="fill: none; stroke-dasharray: 2.96,1.28; stroke-dashoffset: 0; stroke: #b0b0b0; stroke-width: 0.8"/>
     </g>
     <g id="line2d_22">
      <g>
       <use xlink:href="#md0acf134f3" x="57.6" y="122.308892" style="stroke: #000000; stroke-width: 0.8"/>
      </g>
     </g>
     <g id="text_12">
      <!-- −100 -->
      <g transform="translate(23.132812 126.10811)scale(0.1 -0.1)">
       <use xlink:href="#DejaVuSans-2212"/>
       <use xlink:href="#DejaVuSans-31" x="83.789062"/>
       <use xlink:href="#DejaVuSans-30" x="147.412109"/>
       <use xlink:href="#DejaVuSans-30" x="211.035156"/>
      </g>
     </g>
    </g>
    <g id="ytick_6">
     <g id="line2d_23">
      <path d="M 57.6 79.506344 
L 414.72 79.506344 
" clip-path="url(#pea0c37a524)" style="fill: none; stroke-dasharray: 2.96,1.28; stroke-dashoffset: 0; stroke: #b0b0b0; stroke-width: 0.8"/>
     </g>
     <g id="line2d_24">
      <g>
       <use xlink:href="#md0acf134f3" x="57.6" y="79.506344" style="stroke: #000000; stroke-width: 0.8"/>
      </g>
     </g>
     <g id="text_13">
      <!-- −50 -->
      <g transform="translate(29.495313 83.305563)scale(0.1 -0.1)">
       <use xlink:href="#DejaVuSans-2212"/>
       <use xlink:href="#DejaVuSans-35" x="83.789062"/>
       <use xlink:href="#DejaVuSans-30" x="147.412109"/>
      </g>
     </g>
    </g>
    <g id="text_14">
     <!-- Reward Density -->
     <g transform="translate(17.053125 213.74675)rotate(-90)scale(0.1 -0.1)">
      <defs>
       <path id="DejaVuSans-52" d="M 2841 2188 
Q 3044 2119 3236 1894 
Q 3428 1669 3622 1275 
L 4263 0 
L 3584 0 
L 2988 1197 
Q 2756 1666 2539 1819 
Q 2322 1972 1947 1972 
L 1259 1972 
L 1259 0 
L 628 0 
L 628 4666 
L 2053 4666 
Q 2853 4666 3247 4331 
Q 3641 3997 3641 3322 
Q 3641 2881 3436 2590 
Q 3231 2300 2841 2188 
z
M 1259 4147 
L 1259 2491 
L 2053 2491 
Q 2509 2491 2742 2702 
Q 2975 2913 2975 3322 
Q 2975 3731 2742 3939 
Q 2509 4147 2053 4147 
L 1259 4147 
z
" transform="scale(0.015625)"/>
       <path id="DejaVuSans-77" d="M 269 3500 
L 844 3500 
L 1563 769 
L 2278 3500 
L 2956 3500 
L 3675 769 
L 4391 3500 
L 4966 3500 
L 4050 0 
L 3372 0 
L 2619 2869 
L 1863 0 
L 1184 0 
L 269 3500 
z
" transform="scale(0.015625)"/>
       <path id="DejaVuSans-44" d="M 1259 4147 
L 1259 519 
L 2022 519 
Q 2988 519 3436 956 
Q 3884 1394 3884 2338 
Q 3884 3275 3436 3711 
Q 2988 4147 2022 4147 
L 1259 4147 
z
M 628 4666 
L 1925 4666 
Q 3281 4666 3915 4102 
Q 4550 3538 4550 2338 
Q 4550 1131 3912 565 
Q 3275 0 1925 0 
L 628 0 
L 628 4666 
z
" transform="scale(0.015625)"/>
       <path id="DejaVuSans-74" d="M 1172 4494 
L 1172 3500 
L 2356 3500 
L 2356 3053 
L 1172 3053 
L 1172 1153 
Q 1172 725 1289 603 
Q 1406 481 1766 481 
L 2356 481 
L 2356 0 
L 1766 0 
Q 1100 0 847 248 
Q 594 497 594 1153 
L 594 3053 
L 172 3053 
L 172 3500 
L 594 3500 
L 594 4494 
L 1172 4494 
z
" transform="scale(0.015625)"/>
       <path id="DejaVuSans-79" d="M 2059 -325 
Q 1816 -950 1584 -1140 
Q 1353 -1331 966 -1331 
L 506 -1331 
L 506 -850 
L 844 -850 
Q 1081 -850 1212 -737 
Q 1344 -625 1503 -206 
L 1606 56 
L 191 3500 
L 800 3500 
L 1894 763 
L 2988 3500 
L 3597 3500 
L 2059 -325 
z
" transform="scale(0.015625)"/>
      </defs>
      <use xlink:href="#DejaVuSans-52"/>
      <use xlink:href="#DejaVuSans-65" x="64.982422"/>
      <use xlink:href="#DejaVuSans-77" x="126.505859"/>
      <use xlink:href="#DejaVuSans-61" x="208.292969"/>
      <use xlink:href="#DejaVuSans-72" x="269.572266"/>
      <use xlink:href="#DejaVuSans-64" x="308.935547"/>
      <use xlink:href="#DejaVuSans-20" x="372.412109"/>
      <use xlink:href="#DejaVuSans-44" x="404.199219"/>
      <use xlink:href="#DejaVuSans-65" x="481.201172"/>
      <use xlink:href="#DejaVuSans-6e" x="542.724609"/>
      <use xlink:href="#DejaVuSans-73" x="606.103516"/>
      <use xlink:href="#DejaVuSans-69" x="658.203125"/>
      <use xlink:href="#DejaVuSans-74" x="685.986328"/>
      <use xlink:href="#DejaVuSans-79" x="725.195312"/>
     </g>
    </g>
   </g>
   <g id="LineCollection_1">
    <path d="M 90.919809 119.341305 
L 125.093971 119.341305 
" clip-path="url(#pea0c37a524)" style="fill: none; stroke: #1f77b4; stroke-width: 1.5"/>
    <path d="M 176.355215 142.95102 
L 210.529378 142.95102 
" clip-path="url(#pea0c37a524)" style="fill: none; stroke: #1f77b4; stroke-width: 1.5"/>
    <path d="M 261.790622 148.381636 
L 295.964785 148.381636 
" clip-path="url(#pea0c37a524)" style="fill: none; stroke: #1f77b4; stroke-width: 1.5"/>
    <path d="M 347.226029 167.034301 
L 381.400191 167.034301 
" clip-path="url(#pea0c37a524)" style="fill: none; stroke: #1f77b4; stroke-width: 1.5"/>
   </g>
   <g id="LineCollection_2">
    <path d="M 90.919809 66.408764 
L 125.093971 66.408764 
" clip-path="url(#pea0c37a524)" style="fill: none; stroke: #1f77b4; stroke-width: 1.5"/>
    <path d="M 176.355215 53.568 
L 210.529378 53.568 
" clip-path="url(#pea0c37a524)" style="fill: none; stroke: #1f77b4; stroke-width: 1.5"/>
    <path d="M 261.790622 65.210293 
L 295.964785 65.210293 
" clip-path="url(#pea0c37a524)" style="fill: none; stroke: #1f77b4; stroke-width: 1.5"/>
    <path d="M 347.226029 63.326981 
L 381.400191 63.326981 
" clip-path="url(#pea0c37a524)" style="fill: none; stroke: #1f77b4; stroke-width: 1.5"/>
   </g>
   <g id="LineCollection_3">
    <path d="M 90.919809 208.256408 
L 125.093971 208.256408 
" clip-path="url(#pea0c37a524)" style="fill: none; stroke: #1f77b4; stroke-width: 1.5"/>
    <path d="M 176.355215 249.090038 
L 210.529378 249.090038 
" clip-path="url(#pea0c37a524)" style="fill: none; stroke: #1f77b4; stroke-width: 1.5"/>
    <path d="M 261.790622 285.044178 
L 295.964785 285.044178 
" clip-path="url(#pea0c37a524)" style="fill: none; stroke: #1f77b4; stroke-width: 1.5"/>
    <path d="M 347.226029 295.488 
L 381.400191 295.488 
" clip-path="url(#pea0c37a524)" style="fill: none; stroke: #1f77b4; stroke-width: 1.5"/>
   </g>
   <g id="LineCollection_4">
    <path d="M 108.00689 208.256408 
L 108.00689 66.408764 
" clip-path="url(#pea0c37a524)" style="fill: none; stroke: #1f77b4; stroke-width: 1.5"/>
    <path d="M 193.442297 249.090038 
L 193.442297 53.568 
" clip-path="url(#pea0c37a524)" style="fill: none; stroke: #1f77b4; stroke-width: 1.5"/>
    <path d="M 278.877703 285.044178 
L 278.877703 65.210293 
" clip-path="url(#pea0c37a524)" style="fill: none; stroke: #1f77b4; stroke-width: 1.5"/>
    <path d="M 364.31311 295.488 
L 364.31311 63.326981 
" clip-path="url(#pea0c37a524)" style="fill: none; stroke: #1f77b4; stroke-width: 1.5"/>
   </g>
   <g id="line2d_25">
    <path d="M 108.00689 119.341305 
L 193.442297 142.95102 
L 278.877703 148.381636 
L 364.31311 167.034301 
" clip-path="url(#pea0c37a524)" style="fill: none; stroke: #4682b4; stroke-width: 1.5; stroke-linecap: square"/>
   </g>
   <g id="line2d_26">
    <path d="M 108.00689 119.341305 
L 193.442297 142.95102 
L 278.877703 148.381636 
L 364.31311 167.034301 
" clip-path="url(#pea0c37a524)" style="fill: none; stroke: #4682b4; stroke-width: 1.5; stroke-linecap: square"/>
   </g>
   <g id="patch_3">
    <path d="M 57.6 307.584 
L 57.6 41.472 
" style="fill: none; stroke: #000000; stroke-width: 0.8; stroke-linejoin: miter; stroke-linecap: square"/>
   </g>
   <g id="patch_4">
    <path d="M 414.72 307.584 
L 414.72 41.472 
" style="fill: none; stroke: #000000; stroke-width: 0.8; stroke-linejoin: miter; stroke-linecap: square"/>
   </g>
   <g id="patch_5">
    <path d="M 57.6 307.584 
L 414.72 307.584 
" style="fill: none; stroke: #000000; stroke-width: 0.8; stroke-linejoin: miter; stroke-linecap: square"/>
   </g>
   <g id="patch_6">
    <path d="M 57.6 41.472 
L 414.72 41.472 
" style="fill: none; stroke: #000000; stroke-width: 0.8; stroke-linejoin: miter; stroke-linecap: square"/>
   </g>
   <g id="text_15">
    <!-- Violinplot for progress of profits/storage_cost -->
    <g transform="translate(101.32875 35.472)scale(0.12 -0.12)">
     <defs>
      <path id="DejaVuSans-56" d="M 1831 0 
L 50 4666 
L 709 4666 
L 2188 738 
L 3669 4666 
L 4325 4666 
L 2547 0 
L 1831 0 
z
" transform="scale(0.015625)"/>
      <path id="DejaVuSans-6c" d="M 603 4863 
L 1178 4863 
L 1178 0 
L 603 0 
L 603 4863 
z
" transform="scale(0.015625)"/>
      <path id="DejaVuSans-66" d="M 2375 4863 
L 2375 4384 
L 1825 4384 
Q 1516 4384 1395 4259 
Q 1275 4134 1275 3809 
L 1275 3500 
L 2222 3500 
L 2222 3053 
L 1275 3053 
L 1275 0 
L 697 0 
L 697 3053 
L 147 3053 
L 147 3500 
L 697 3500 
L 697 3744 
Q 697 4328 969 4595 
Q 1241 4863 1831 4863 
L 2375 4863 
z
" transform="scale(0.015625)"/>
      <path id="DejaVuSans-67" d="M 2906 1791 
Q 2906 2416 2648 2759 
Q 2391 3103 1925 3103 
Q 1463 3103 1205 2759 
Q 947 2416 947 1791 
Q 947 1169 1205 825 
Q 1463 481 1925 481 
Q 2391 481 2648 825 
Q 2906 1169 2906 1791 
z
M 3481 434 
Q 3481 -459 3084 -895 
Q 2688 -1331 1869 -1331 
Q 1566 -1331 1297 -1286 
Q 1028 -1241 775 -1147 
L 775 -588 
Q 1028 -725 1275 -790 
Q 1522 -856 1778 -856 
Q 2344 -856 2625 -561 
Q 2906 -266 2906 331 
L 2906 616 
Q 2728 306 2450 153 
Q 2172 0 1784 0 
Q 1141 0 747 490 
Q 353 981 353 1791 
Q 353 2603 747 3093 
Q 1141 3584 1784 3584 
Q 2172 3584 2450 3431 
Q 2728 3278 2906 2969 
L 2906 3500 
L 3481 3500 
L 3481 434 
z
" transform="scale(0.015625)"/>
      <path id="DejaVuSans-2f" d="M 1625 4666 
L 2156 4666 
L 531 -594 
L 0 -594 
L 1625 4666 
z
" transform="scale(0.015625)"/>
      <path id="DejaVuSans-5f" d="M 3263 -1063 
L 3263 -1509 
L -63 -1509 
L -63 -1063 
L 3263 -1063 
z
" transform="scale(0.015625)"/>
      <path id="DejaVuSans-63" d="M 3122 3366 
L 3122 2828 
Q 2878 2963 2633 3030 
Q 2388 3097 2138 3097 
Q 1578 3097 1268 2742 
Q 959 2388 959 1747 
Q 959 1106 1268 751 
Q 1578 397 2138 397 
Q 2388 397 2633 464 
Q 2878 531 3122 666 
L 3122 134 
Q 2881 22 2623 -34 
Q 2366 -91 2075 -91 
Q 1284 -91 818 406 
Q 353 903 353 1747 
Q 353 2603 823 3093 
Q 1294 3584 2113 3584 
Q 2378 3584 2631 3529 
Q 2884 3475 3122 3366 
z
" transform="scale(0.015625)"/>
     </defs>
     <use xlink:href="#DejaVuSans-56"/>
     <use xlink:href="#DejaVuSans-69" x="66.158203"/>
     <use xlink:href="#DejaVuSans-6f" x="93.941406"/>
     <use xlink:href="#DejaVuSans-6c" x="155.123047"/>
     <use xlink:href="#DejaVuSans-69" x="182.90625"/>
     <use xlink:href="#DejaVuSans-6e" x="210.689453"/>
     <use xlink:href="#DejaVuSans-70" x="274.068359"/>
     <use xlink:href="#DejaVuSans-6c" x="337.544922"/>
     <use xlink:href="#DejaVuSans-6f" x="365.328125"/>
     <use xlink:href="#DejaVuSans-74" x="426.509766"/>
     <use xlink:href="#DejaVuSans-20" x="465.71875"/>
     <use xlink:href="#DejaVuSans-66" x="497.505859"/>
     <use xlink:href="#DejaVuSans-6f" x="532.710938"/>
     <use xlink:href="#DejaVuSans-72" x="593.892578"/>
     <use xlink:href="#DejaVuSans-20" x="635.005859"/>
     <use xlink:href="#DejaVuSans-70" x="666.792969"/>
     <use xlink:href="#DejaVuSans-72" x="730.269531"/>
     <use xlink:href="#DejaVuSans-6f" x="769.132812"/>
     <use xlink:href="#DejaVuSans-67" x="830.314453"/>
     <use xlink:href="#DejaVuSans-72" x="893.791016"/>
     <use xlink:href="#DejaVuSans-65" x="932.654297"/>
     <use xlink:href="#DejaVuSans-73" x="994.177734"/>
     <use xlink:href="#DejaVuSans-73" x="1046.277344"/>
     <use xlink:href="#DejaVuSans-20" x="1098.376953"/>
     <use xlink:href="#DejaVuSans-6f" x="1130.164062"/>
     <use xlink:href="#DejaVuSans-66" x="1191.345703"/>
     <use xlink:href="#DejaVuSans-20" x="1226.550781"/>
     <use xlink:href="#DejaVuSans-70" x="1258.337891"/>
     <use xlink:href="#DejaVuSans-72" x="1321.814453"/>
     <use xlink:href="#DejaVuSans-6f" x="1360.677734"/>
     <use xlink:href="#DejaVuSans-66" x="1421.859375"/>
     <use xlink:href="#DejaVuSans-69" x="1457.064453"/>
     <use xlink:href="#DejaVuSans-74" x="1484.847656"/>
     <use xlink:href="#DejaVuSans-73" x="1524.056641"/>
     <use xlink:href="#DejaVuSans-2f" x="1576.15625"/>
     <use xlink:href="#DejaVuSans-73" x="1609.847656"/>
     <use xlink:href="#DejaVuSans-74" x="1661.947266"/>
     <use xlink:href="#DejaVuSans-6f" x="1701.15625"/>
     <use xlink:href="#DejaVuSans-72" x="1762.337891"/>
     <use xlink:href="#DejaVuSans-61" x="1803.451172"/>
     <use xlink:href="#DejaVuSans-67" x="1864.730469"/>
     <use xlink:href="#DejaVuSans-65" x="1928.207031"/>
     <use xlink:href="#DejaVuSans-5f" x="1989.730469"/>
     <use xlink:href="#DejaVuSans-63" x="2039.730469"/>
     <use xlink:href="#DejaVuSans-6f" x="2094.710938"/>
     <use xlink:href="#DejaVuSans-73" x="2155.892578"/>
     <use xlink:href="#DejaVuSans-74" x="2207.992188"/>
    </g>
   </g>
   <g id="legend_1">
    <g id="patch_7">
     <path d="M 276.25125 64.150125 
L 407.72 64.150125 
Q 409.72 64.150125 409.72 62.150125 
L 409.72 48.472 
Q 409.72 46.472 407.72 46.472 
L 276.25125 46.472 
Q 274.25125 46.472 274.25125 48.472 
L 274.25125 62.150125 
Q 274.25125 64.150125 276.25125 64.150125 
z
" style="fill: #ffffff; opacity: 0.8; stroke: #cccccc; stroke-linejoin: miter"/>
    </g>
    <g id="line2d_27">
     <path d="M 278.25125 54.570438 
L 288.25125 54.570438 
L 298.25125 54.570438 
" style="fill: none; stroke: #4682b4; stroke-width: 1.5; stroke-linecap: square"/>
    </g>
    <g id="text_16">
     <!-- StableBaselinesSAC -->
     <g transform="translate(306.25125 58.070438)scale(0.1 -0.1)">
      <defs>
       <path id="DejaVuSans-53" d="M 3425 4513 
L 3425 3897 
Q 3066 4069 2747 4153 
Q 2428 4238 2131 4238 
Q 1616 4238 1336 4038 
Q 1056 3838 1056 3469 
Q 1056 3159 1242 3001 
Q 1428 2844 1947 2747 
L 2328 2669 
Q 3034 2534 3370 2195 
Q 3706 1856 3706 1288 
Q 3706 609 3251 259 
Q 2797 -91 1919 -91 
Q 1588 -91 1214 -16 
Q 841 59 441 206 
L 441 856 
Q 825 641 1194 531 
Q 1563 422 1919 422 
Q 2459 422 2753 634 
Q 3047 847 3047 1241 
Q 3047 1584 2836 1778 
Q 2625 1972 2144 2069 
L 1759 2144 
Q 1053 2284 737 2584 
Q 422 2884 422 3419 
Q 422 4038 858 4394 
Q 1294 4750 2059 4750 
Q 2388 4750 2728 4690 
Q 3069 4631 3425 4513 
z
" transform="scale(0.015625)"/>
       <path id="DejaVuSans-62" d="M 3116 1747 
Q 3116 2381 2855 2742 
Q 2594 3103 2138 3103 
Q 1681 3103 1420 2742 
Q 1159 2381 1159 1747 
Q 1159 1113 1420 752 
Q 1681 391 2138 391 
Q 2594 391 2855 752 
Q 3116 1113 3116 1747 
z
M 1159 2969 
Q 1341 3281 1617 3432 
Q 1894 3584 2278 3584 
Q 2916 3584 3314 3078 
Q 3713 2572 3713 1747 
Q 3713 922 3314 415 
Q 2916 -91 2278 -91 
Q 1894 -91 1617 61 
Q 1341 213 1159 525 
L 1159 0 
L 581 0 
L 581 4863 
L 1159 4863 
L 1159 2969 
z
" transform="scale(0.015625)"/>
       <path id="DejaVuSans-42" d="M 1259 2228 
L 1259 519 
L 2272 519 
Q 2781 519 3026 730 
Q 3272 941 3272 1375 
Q 3272 1813 3026 2020 
Q 2781 2228 2272 2228 
L 1259 2228 
z
M 1259 4147 
L 1259 2741 
L 2194 2741 
Q 2656 2741 2882 2914 
Q 3109 3088 3109 3444 
Q 3109 3797 2882 3972 
Q 2656 4147 2194 4147 
L 1259 4147 
z
M 628 4666 
L 2241 4666 
Q 2963 4666 3353 4366 
Q 3744 4066 3744 3513 
Q 3744 3084 3544 2831 
Q 3344 2578 2956 2516 
Q 3422 2416 3680 2098 
Q 3938 1781 3938 1306 
Q 3938 681 3513 340 
Q 3088 0 2303 0 
L 628 0 
L 628 4666 
z
" transform="scale(0.015625)"/>
       <path id="DejaVuSans-41" d="M 2188 4044 
L 1331 1722 
L 3047 1722 
L 2188 4044 
z
M 1831 4666 
L 2547 4666 
L 4325 0 
L 3669 0 
L 3244 1197 
L 1141 1197 
L 716 0 
L 50 0 
L 1831 4666 
z
" transform="scale(0.015625)"/>
       <path id="DejaVuSans-43" d="M 4122 4306 
L 4122 3641 
Q 3803 3938 3442 4084 
Q 3081 4231 2675 4231 
Q 1875 4231 1450 3742 
Q 1025 3253 1025 2328 
Q 1025 1406 1450 917 
Q 1875 428 2675 428 
Q 3081 428 3442 575 
Q 3803 722 4122 1019 
L 4122 359 
Q 3791 134 3420 21 
Q 3050 -91 2638 -91 
Q 1578 -91 968 557 
Q 359 1206 359 2328 
Q 359 3453 968 4101 
Q 1578 4750 2638 4750 
Q 3056 4750 3426 4639 
Q 3797 4528 4122 4306 
z
" transform="scale(0.015625)"/>
      </defs>
      <use xlink:href="#DejaVuSans-53"/>
      <use xlink:href="#DejaVuSans-74" x="63.476562"/>
      <use xlink:href="#DejaVuSans-61" x="102.685547"/>
      <use xlink:href="#DejaVuSans-62" x="163.964844"/>
      <use xlink:href="#DejaVuSans-6c" x="227.441406"/>
      <use xlink:href="#DejaVuSans-65" x="255.224609"/>
      <use xlink:href="#DejaVuSans-42" x="316.748047"/>
      <use xlink:href="#DejaVuSans-61" x="385.351562"/>
      <use xlink:href="#DejaVuSans-73" x="446.630859"/>
      <use xlink:href="#DejaVuSans-65" x="498.730469"/>
      <use xlink:href="#DejaVuSans-6c" x="560.253906"/>
      <use xlink:href="#DejaVuSans-69" x="588.037109"/>
      <use xlink:href="#DejaVuSans-6e" x="615.820312"/>
      <use xlink:href="#DejaVuSans-65" x="679.199219"/>
      <use xlink:href="#DejaVuSans-73" x="740.722656"/>
      <use xlink:href="#DejaVuSans-53" x="792.822266"/>
      <use xlink:href="#DejaVuSans-41" x="858.173828"/>
      <use xlink:href="#DejaVuSans-43" x="924.832031"/>
     </g>
    </g>
   </g>
  </g>
 </g>
 <defs>
  <clipPath id="pea0c37a524">
   <rect x="57.6" y="41.472" width="357.12" height="266.112"/>
  </clipPath>
 </defs>
</svg>
