<?xml version="1.0" encoding="utf-8" standalone="no"?>
<!DOCTYPE svg PUBLIC "-//W3C//DTD SVG 1.1//EN"
  "http://www.w3.org/Graphics/SVG/1.1/DTD/svg11.dtd">
<svg xmlns:xlink="http://www.w3.org/1999/xlink" width="460.8pt" height="345.6pt" viewBox="0 0 460.8 345.6" xmlns="http://www.w3.org/2000/svg" version="1.1">
 <metadata>
  <rdf:RDF xmlns:dc="http://purl.org/dc/elements/1.1/" xmlns:cc="http://creativecommons.org/ns#" xmlns:rdf="http://www.w3.org/1999/02/22-rdf-syntax-ns#">
   <cc:Work>
    <dc:type rdf:resource="http://purl.org/dc/dcmitype/StillImage"/>
    <dc:date>2022-06-21T09:12:10.971773</dc:date>
    <dc:format>image/svg+xml</dc:format>
    <dc:creator>
     <cc:Agent>
      <dc:title>Matplotlib v3.5.2, https://matplotlib.org/</dc:title>
     </cc:Agent>
    </dc:creator>
   </cc:Work>
  </rdf:RDF>
 </metadata>
 <defs>
  <style type="text/css">*{stroke-linejoin: round; stroke-linecap: butt}</style>
 </defs>
 <g id="figure_1">
  <g id="patch_1">
   <path d="M 0 345.6 
L 460.8 345.6 
L 460.8 0 
L 0 0 
L 0 345.6 
z
" style="fill: none"/>
  </g>
  <g id="axes_1">
   <g id="patch_2">
    <path d="M 57.6 307.584 
L 414.72 307.584 
L 414.72 41.472 
L 57.6 41.472 
L 57.6 307.584 
z
" style="fill: none"/>
   </g>
   <g id="matplotlib.axis_1">
    <g id="xtick_1">
     <g id="line2d_1">
      <path d="M 72.200477 307.584 
L 72.200477 41.472 
" clip-path="url(#pd0c078fb34)" style="fill: none; stroke-dasharray: 2.96,1.28; stroke-dashoffset: 0; stroke: #b0b0b0; stroke-width: 0.8"/>
     </g>
     <g id="line2d_2">
      <defs>
       <path id="m676e2eccec" d="M 0 0 
L 0 3.5 
" style="stroke: #000000; stroke-width: 0.8"/>
      </defs>
      <g>
       <use xlink:href="#m676e2eccec" x="72.200477" y="307.584" style="stroke: #000000; stroke-width: 0.8"/>
      </g>
     </g>
     <g id="text_1">
      <!-- 0 -->
      <g transform="translate(69.019227 322.182437)scale(0.1 -0.1)">
       <defs>
        <path id="DejaVuSans-30" d="M 2034 4250 
Q 1547 4250 1301 3770 
Q 1056 3291 1056 2328 
Q 1056 1369 1301 889 
Q 1547 409 2034 409 
Q 2525 409 2770 889 
Q 3016 1369 3016 2328 
Q 3016 3291 2770 3770 
Q 2525 4250 2034 4250 
z
M 2034 4750 
Q 2819 4750 3233 4129 
Q 3647 3509 3647 2328 
Q 3647 1150 3233 529 
Q 2819 -91 2034 -91 
Q 1250 -91 836 529 
Q 422 1150 422 2328 
Q 422 3509 836 4129 
Q 1250 4750 2034 4750 
z
" transform="scale(0.015625)"/>
       </defs>
       <use xlink:href="#DejaVuSans-30"/>
      </g>
     </g>
    </g>
    <g id="xtick_2">
     <g id="line2d_3">
      <path d="M 113.00673 307.584 
L 113.00673 41.472 
" clip-path="url(#pd0c078fb34)" style="fill: none; stroke-dasharray: 2.96,1.28; stroke-dashoffset: 0; stroke: #b0b0b0; stroke-width: 0.8"/>
     </g>
     <g id="line2d_4">
      <g>
       <use xlink:href="#m676e2eccec" x="113.00673" y="307.584" style="stroke: #000000; stroke-width: 0.8"/>
      </g>
     </g>
     <g id="text_2">
      <!-- 250 -->
      <g transform="translate(103.46298 322.182437)scale(0.1 -0.1)">
       <defs>
        <path id="DejaVuSans-32" d="M 1228 531 
L 3431 531 
L 3431 0 
L 469 0 
L 469 531 
Q 828 903 1448 1529 
Q 2069 2156 2228 2338 
Q 2531 2678 2651 2914 
Q 2772 3150 2772 3378 
Q 2772 3750 2511 3984 
Q 2250 4219 1831 4219 
Q 1534 4219 1204 4116 
Q 875 4013 500 3803 
L 500 4441 
Q 881 4594 1212 4672 
Q 1544 4750 1819 4750 
Q 2544 4750 2975 4387 
Q 3406 4025 3406 3419 
Q 3406 3131 3298 2873 
Q 3191 2616 2906 2266 
Q 2828 2175 2409 1742 
Q 1991 1309 1228 531 
z
" transform="scale(0.015625)"/>
        <path id="DejaVuSans-35" d="M 691 4666 
L 3169 4666 
L 3169 4134 
L 1269 4134 
L 1269 2991 
Q 1406 3038 1543 3061 
Q 1681 3084 1819 3084 
Q 2600 3084 3056 2656 
Q 3513 2228 3513 1497 
Q 3513 744 3044 326 
Q 2575 -91 1722 -91 
Q 1428 -91 1123 -41 
Q 819 9 494 109 
L 494 744 
Q 775 591 1075 516 
Q 1375 441 1709 441 
Q 2250 441 2565 725 
Q 2881 1009 2881 1497 
Q 2881 1984 2565 2268 
Q 2250 2553 1709 2553 
Q 1456 2553 1204 2497 
Q 953 2441 691 2322 
L 691 4666 
z
" transform="scale(0.015625)"/>
       </defs>
       <use xlink:href="#DejaVuSans-32"/>
       <use xlink:href="#DejaVuSans-35" x="63.623047"/>
       <use xlink:href="#DejaVuSans-30" x="127.246094"/>
      </g>
     </g>
    </g>
    <g id="xtick_3">
     <g id="line2d_5">
      <path d="M 153.812982 307.584 
L 153.812982 41.472 
" clip-path="url(#pd0c078fb34)" style="fill: none; stroke-dasharray: 2.96,1.28; stroke-dashoffset: 0; stroke: #b0b0b0; stroke-width: 0.8"/>
     </g>
     <g id="line2d_6">
      <g>
       <use xlink:href="#m676e2eccec" x="153.812982" y="307.584" style="stroke: #000000; stroke-width: 0.8"/>
      </g>
     </g>
     <g id="text_3">
      <!-- 500 -->
      <g transform="translate(144.269232 322.182437)scale(0.1 -0.1)">
       <use xlink:href="#DejaVuSans-35"/>
       <use xlink:href="#DejaVuSans-30" x="63.623047"/>
       <use xlink:href="#DejaVuSans-30" x="127.246094"/>
      </g>
     </g>
    </g>
    <g id="xtick_4">
     <g id="line2d_7">
      <path d="M 194.619235 307.584 
L 194.619235 41.472 
" clip-path="url(#pd0c078fb34)" style="fill: none; stroke-dasharray: 2.96,1.28; stroke-dashoffset: 0; stroke: #b0b0b0; stroke-width: 0.8"/>
     </g>
     <g id="line2d_8">
      <g>
       <use xlink:href="#m676e2eccec" x="194.619235" y="307.584" style="stroke: #000000; stroke-width: 0.8"/>
      </g>
     </g>
     <g id="text_4">
      <!-- 750 -->
      <g transform="translate(185.075485 322.182437)scale(0.1 -0.1)">
       <defs>
        <path id="DejaVuSans-37" d="M 525 4666 
L 3525 4666 
L 3525 4397 
L 1831 0 
L 1172 0 
L 2766 4134 
L 525 4134 
L 525 4666 
z
" transform="scale(0.015625)"/>
       </defs>
       <use xlink:href="#DejaVuSans-37"/>
       <use xlink:href="#DejaVuSans-35" x="63.623047"/>
       <use xlink:href="#DejaVuSans-30" x="127.246094"/>
      </g>
     </g>
    </g>
    <g id="xtick_5">
     <g id="line2d_9">
      <path d="M 235.425487 307.584 
L 235.425487 41.472 
" clip-path="url(#pd0c078fb34)" style="fill: none; stroke-dasharray: 2.96,1.28; stroke-dashoffset: 0; stroke: #b0b0b0; stroke-width: 0.8"/>
     </g>
     <g id="line2d_10">
      <g>
       <use xlink:href="#m676e2eccec" x="235.425487" y="307.584" style="stroke: #000000; stroke-width: 0.8"/>
      </g>
     </g>
     <g id="text_5">
      <!-- 1000 -->
      <g transform="translate(222.700487 322.182437)scale(0.1 -0.1)">
       <defs>
        <path id="DejaVuSans-31" d="M 794 531 
L 1825 531 
L 1825 4091 
L 703 3866 
L 703 4441 
L 1819 4666 
L 2450 4666 
L 2450 531 
L 3481 531 
L 3481 0 
L 794 0 
L 794 531 
z
" transform="scale(0.015625)"/>
       </defs>
       <use xlink:href="#DejaVuSans-31"/>
       <use xlink:href="#DejaVuSans-30" x="63.623047"/>
       <use xlink:href="#DejaVuSans-30" x="127.246094"/>
       <use xlink:href="#DejaVuSans-30" x="190.869141"/>
      </g>
     </g>
    </g>
    <g id="xtick_6">
     <g id="line2d_11">
      <path d="M 276.23174 307.584 
L 276.23174 41.472 
" clip-path="url(#pd0c078fb34)" style="fill: none; stroke-dasharray: 2.96,1.28; stroke-dashoffset: 0; stroke: #b0b0b0; stroke-width: 0.8"/>
     </g>
     <g id="line2d_12">
      <g>
       <use xlink:href="#m676e2eccec" x="276.23174" y="307.584" style="stroke: #000000; stroke-width: 0.8"/>
      </g>
     </g>
     <g id="text_6">
      <!-- 1250 -->
      <g transform="translate(263.50674 322.182437)scale(0.1 -0.1)">
       <use xlink:href="#DejaVuSans-31"/>
       <use xlink:href="#DejaVuSans-32" x="63.623047"/>
       <use xlink:href="#DejaVuSans-35" x="127.246094"/>
       <use xlink:href="#DejaVuSans-30" x="190.869141"/>
      </g>
     </g>
    </g>
    <g id="xtick_7">
     <g id="line2d_13">
      <path d="M 317.037993 307.584 
L 317.037993 41.472 
" clip-path="url(#pd0c078fb34)" style="fill: none; stroke-dasharray: 2.96,1.28; stroke-dashoffset: 0; stroke: #b0b0b0; stroke-width: 0.8"/>
     </g>
     <g id="line2d_14">
      <g>
       <use xlink:href="#m676e2eccec" x="317.037993" y="307.584" style="stroke: #000000; stroke-width: 0.8"/>
      </g>
     </g>
     <g id="text_7">
      <!-- 1500 -->
      <g transform="translate(304.312993 322.182437)scale(0.1 -0.1)">
       <use xlink:href="#DejaVuSans-31"/>
       <use xlink:href="#DejaVuSans-35" x="63.623047"/>
       <use xlink:href="#DejaVuSans-30" x="127.246094"/>
       <use xlink:href="#DejaVuSans-30" x="190.869141"/>
      </g>
     </g>
    </g>
    <g id="xtick_8">
     <g id="line2d_15">
      <path d="M 357.844245 307.584 
L 357.844245 41.472 
" clip-path="url(#pd0c078fb34)" style="fill: none; stroke-dasharray: 2.96,1.28; stroke-dashoffset: 0; stroke: #b0b0b0; stroke-width: 0.8"/>
     </g>
     <g id="line2d_16">
      <g>
       <use xlink:href="#m676e2eccec" x="357.844245" y="307.584" style="stroke: #000000; stroke-width: 0.8"/>
      </g>
     </g>
     <g id="text_8">
      <!-- 1750 -->
      <g transform="translate(345.119245 322.182437)scale(0.1 -0.1)">
       <use xlink:href="#DejaVuSans-31"/>
       <use xlink:href="#DejaVuSans-37" x="63.623047"/>
       <use xlink:href="#DejaVuSans-35" x="127.246094"/>
       <use xlink:href="#DejaVuSans-30" x="190.869141"/>
      </g>
     </g>
    </g>
    <g id="xtick_9">
     <g id="line2d_17">
      <path d="M 398.650498 307.584 
L 398.650498 41.472 
" clip-path="url(#pd0c078fb34)" style="fill: none; stroke-dasharray: 2.96,1.28; stroke-dashoffset: 0; stroke: #b0b0b0; stroke-width: 0.8"/>
     </g>
     <g id="line2d_18">
      <g>
       <use xlink:href="#m676e2eccec" x="398.650498" y="307.584" style="stroke: #000000; stroke-width: 0.8"/>
      </g>
     </g>
     <g id="text_9">
      <!-- 2000 -->
      <g transform="translate(385.925498 322.182437)scale(0.1 -0.1)">
       <use xlink:href="#DejaVuSans-32"/>
       <use xlink:href="#DejaVuSans-30" x="63.623047"/>
       <use xlink:href="#DejaVuSans-30" x="127.246094"/>
       <use xlink:href="#DejaVuSans-30" x="190.869141"/>
      </g>
     </g>
    </g>
    <g id="text_10">
     <!-- Episode -->
     <g transform="translate(216.5225 335.860562)scale(0.1 -0.1)">
      <defs>
       <path id="DejaVuSans-45" d="M 628 4666 
L 3578 4666 
L 3578 4134 
L 1259 4134 
L 1259 2753 
L 3481 2753 
L 3481 2222 
L 1259 2222 
L 1259 531 
L 3634 531 
L 3634 0 
L 628 0 
L 628 4666 
z
" transform="scale(0.015625)"/>
       <path id="DejaVuSans-70" d="M 1159 525 
L 1159 -1331 
L 581 -1331 
L 581 3500 
L 1159 3500 
L 1159 2969 
Q 1341 3281 1617 3432 
Q 1894 3584 2278 3584 
Q 2916 3584 3314 3078 
Q 3713 2572 3713 1747 
Q 3713 922 3314 415 
Q 2916 -91 2278 -91 
Q 1894 -91 1617 61 
Q 1341 213 1159 525 
z
M 3116 1747 
Q 3116 2381 2855 2742 
Q 2594 3103 2138 3103 
Q 1681 3103 1420 2742 
Q 1159 2381 1159 1747 
Q 1159 1113 1420 752 
Q 1681 391 2138 391 
Q 2594 391 2855 752 
Q 3116 1113 3116 1747 
z
" transform="scale(0.015625)"/>
       <path id="DejaVuSans-69" d="M 603 3500 
L 1178 3500 
L 1178 0 
L 603 0 
L 603 3500 
z
M 603 4863 
L 1178 4863 
L 1178 4134 
L 603 4134 
L 603 4863 
z
" transform="scale(0.015625)"/>
       <path id="DejaVuSans-73" d="M 2834 3397 
L 2834 2853 
Q 2591 2978 2328 3040 
Q 2066 3103 1784 3103 
Q 1356 3103 1142 2972 
Q 928 2841 928 2578 
Q 928 2378 1081 2264 
Q 1234 2150 1697 2047 
L 1894 2003 
Q 2506 1872 2764 1633 
Q 3022 1394 3022 966 
Q 3022 478 2636 193 
Q 2250 -91 1575 -91 
Q 1294 -91 989 -36 
Q 684 19 347 128 
L 347 722 
Q 666 556 975 473 
Q 1284 391 1588 391 
Q 1994 391 2212 530 
Q 2431 669 2431 922 
Q 2431 1156 2273 1281 
Q 2116 1406 1581 1522 
L 1381 1569 
Q 847 1681 609 1914 
Q 372 2147 372 2553 
Q 372 3047 722 3315 
Q 1072 3584 1716 3584 
Q 2034 3584 2315 3537 
Q 2597 3491 2834 3397 
z
" transform="scale(0.015625)"/>
       <path id="DejaVuSans-6f" d="M 1959 3097 
Q 1497 3097 1228 2736 
Q 959 2375 959 1747 
Q 959 1119 1226 758 
Q 1494 397 1959 397 
Q 2419 397 2687 759 
Q 2956 1122 2956 1747 
Q 2956 2369 2687 2733 
Q 2419 3097 1959 3097 
z
M 1959 3584 
Q 2709 3584 3137 3096 
Q 3566 2609 3566 1747 
Q 3566 888 3137 398 
Q 2709 -91 1959 -91 
Q 1206 -91 779 398 
Q 353 888 353 1747 
Q 353 2609 779 3096 
Q 1206 3584 1959 3584 
z
" transform="scale(0.015625)"/>
       <path id="DejaVuSans-64" d="M 2906 2969 
L 2906 4863 
L 3481 4863 
L 3481 0 
L 2906 0 
L 2906 525 
Q 2725 213 2448 61 
Q 2172 -91 1784 -91 
Q 1150 -91 751 415 
Q 353 922 353 1747 
Q 353 2572 751 3078 
Q 1150 3584 1784 3584 
Q 2172 3584 2448 3432 
Q 2725 3281 2906 2969 
z
M 947 1747 
Q 947 1113 1208 752 
Q 1469 391 1925 391 
Q 2381 391 2643 752 
Q 2906 1113 2906 1747 
Q 2906 2381 2643 2742 
Q 2381 3103 1925 3103 
Q 1469 3103 1208 2742 
Q 947 2381 947 1747 
z
" transform="scale(0.015625)"/>
       <path id="DejaVuSans-65" d="M 3597 1894 
L 3597 1613 
L 953 1613 
Q 991 1019 1311 708 
Q 1631 397 2203 397 
Q 2534 397 2845 478 
Q 3156 559 3463 722 
L 3463 178 
Q 3153 47 2828 -22 
Q 2503 -91 2169 -91 
Q 1331 -91 842 396 
Q 353 884 353 1716 
Q 353 2575 817 3079 
Q 1281 3584 2069 3584 
Q 2775 3584 3186 3129 
Q 3597 2675 3597 1894 
z
M 3022 2063 
Q 3016 2534 2758 2815 
Q 2500 3097 2075 3097 
Q 1594 3097 1305 2825 
Q 1016 2553 972 2059 
L 3022 2063 
z
" transform="scale(0.015625)"/>
      </defs>
      <use xlink:href="#DejaVuSans-45"/>
      <use xlink:href="#DejaVuSans-70" x="63.183594"/>
      <use xlink:href="#DejaVuSans-69" x="126.660156"/>
      <use xlink:href="#DejaVuSans-73" x="154.443359"/>
      <use xlink:href="#DejaVuSans-6f" x="206.542969"/>
      <use xlink:href="#DejaVuSans-64" x="267.724609"/>
      <use xlink:href="#DejaVuSans-65" x="331.201172"/>
     </g>
    </g>
   </g>
   <g id="matplotlib.axis_2">
    <g id="ytick_1">
     <g id="line2d_19">
      <path d="M 57.6 301.563322 
L 414.72 301.563322 
" clip-path="url(#pd0c078fb34)" style="fill: none; stroke-dasharray: 2.96,1.28; stroke-dashoffset: 0; stroke: #b0b0b0; stroke-width: 0.8"/>
     </g>
     <g id="line2d_20">
      <defs>
       <path id="m125e8053fd" d="M 0 0 
L -3.5 0 
" style="stroke: #000000; stroke-width: 0.8"/>
      </defs>
      <g>
       <use xlink:href="#m125e8053fd" x="57.6" y="301.563322" style="stroke: #000000; stroke-width: 0.8"/>
      </g>
     </g>
     <g id="text_11">
      <!-- 120 -->
      <g transform="translate(31.5125 305.362541)scale(0.1 -0.1)">
       <use xlink:href="#DejaVuSans-31"/>
       <use xlink:href="#DejaVuSans-32" x="63.623047"/>
       <use xlink:href="#DejaVuSans-30" x="127.246094"/>
      </g>
     </g>
    </g>
    <g id="ytick_2">
     <g id="line2d_21">
      <path d="M 57.6 266.266065 
L 414.72 266.266065 
" clip-path="url(#pd0c078fb34)" style="fill: none; stroke-dasharray: 2.96,1.28; stroke-dashoffset: 0; stroke: #b0b0b0; stroke-width: 0.8"/>
     </g>
     <g id="line2d_22">
      <g>
       <use xlink:href="#m125e8053fd" x="57.6" y="266.266065" style="stroke: #000000; stroke-width: 0.8"/>
      </g>
     </g>
     <g id="text_12">
      <!-- 140 -->
      <g transform="translate(31.5125 270.065283)scale(0.1 -0.1)">
       <defs>
        <path id="DejaVuSans-34" d="M 2419 4116 
L 825 1625 
L 2419 1625 
L 2419 4116 
z
M 2253 4666 
L 3047 4666 
L 3047 1625 
L 3713 1625 
L 3713 1100 
L 3047 1100 
L 3047 0 
L 2419 0 
L 2419 1100 
L 313 1100 
L 313 1709 
L 2253 4666 
z
" transform="scale(0.015625)"/>
       </defs>
       <use xlink:href="#DejaVuSans-31"/>
       <use xlink:href="#DejaVuSans-34" x="63.623047"/>
       <use xlink:href="#DejaVuSans-30" x="127.246094"/>
      </g>
     </g>
    </g>
    <g id="ytick_3">
     <g id="line2d_23">
      <path d="M 57.6 230.968807 
L 414.72 230.968807 
" clip-path="url(#pd0c078fb34)" style="fill: none; stroke-dasharray: 2.96,1.28; stroke-dashoffset: 0; stroke: #b0b0b0; stroke-width: 0.8"/>
     </g>
     <g id="line2d_24">
      <g>
       <use xlink:href="#m125e8053fd" x="57.6" y="230.968807" style="stroke: #000000; stroke-width: 0.8"/>
      </g>
     </g>
     <g id="text_13">
      <!-- 160 -->
      <g transform="translate(31.5125 234.768026)scale(0.1 -0.1)">
       <defs>
        <path id="DejaVuSans-36" d="M 2113 2584 
Q 1688 2584 1439 2293 
Q 1191 2003 1191 1497 
Q 1191 994 1439 701 
Q 1688 409 2113 409 
Q 2538 409 2786 701 
Q 3034 994 3034 1497 
Q 3034 2003 2786 2293 
Q 2538 2584 2113 2584 
z
M 3366 4563 
L 3366 3988 
Q 3128 4100 2886 4159 
Q 2644 4219 2406 4219 
Q 1781 4219 1451 3797 
Q 1122 3375 1075 2522 
Q 1259 2794 1537 2939 
Q 1816 3084 2150 3084 
Q 2853 3084 3261 2657 
Q 3669 2231 3669 1497 
Q 3669 778 3244 343 
Q 2819 -91 2113 -91 
Q 1303 -91 875 529 
Q 447 1150 447 2328 
Q 447 3434 972 4092 
Q 1497 4750 2381 4750 
Q 2619 4750 2861 4703 
Q 3103 4656 3366 4563 
z
" transform="scale(0.015625)"/>
       </defs>
       <use xlink:href="#DejaVuSans-31"/>
       <use xlink:href="#DejaVuSans-36" x="63.623047"/>
       <use xlink:href="#DejaVuSans-30" x="127.246094"/>
      </g>
     </g>
    </g>
    <g id="ytick_4">
     <g id="line2d_25">
      <path d="M 57.6 195.67155 
L 414.72 195.67155 
" clip-path="url(#pd0c078fb34)" style="fill: none; stroke-dasharray: 2.96,1.28; stroke-dashoffset: 0; stroke: #b0b0b0; stroke-width: 0.8"/>
     </g>
     <g id="line2d_26">
      <g>
       <use xlink:href="#m125e8053fd" x="57.6" y="195.67155" style="stroke: #000000; stroke-width: 0.8"/>
      </g>
     </g>
     <g id="text_14">
      <!-- 180 -->
      <g transform="translate(31.5125 199.470768)scale(0.1 -0.1)">
       <defs>
        <path id="DejaVuSans-38" d="M 2034 2216 
Q 1584 2216 1326 1975 
Q 1069 1734 1069 1313 
Q 1069 891 1326 650 
Q 1584 409 2034 409 
Q 2484 409 2743 651 
Q 3003 894 3003 1313 
Q 3003 1734 2745 1975 
Q 2488 2216 2034 2216 
z
M 1403 2484 
Q 997 2584 770 2862 
Q 544 3141 544 3541 
Q 544 4100 942 4425 
Q 1341 4750 2034 4750 
Q 2731 4750 3128 4425 
Q 3525 4100 3525 3541 
Q 3525 3141 3298 2862 
Q 3072 2584 2669 2484 
Q 3125 2378 3379 2068 
Q 3634 1759 3634 1313 
Q 3634 634 3220 271 
Q 2806 -91 2034 -91 
Q 1263 -91 848 271 
Q 434 634 434 1313 
Q 434 1759 690 2068 
Q 947 2378 1403 2484 
z
M 1172 3481 
Q 1172 3119 1398 2916 
Q 1625 2713 2034 2713 
Q 2441 2713 2670 2916 
Q 2900 3119 2900 3481 
Q 2900 3844 2670 4047 
Q 2441 4250 2034 4250 
Q 1625 4250 1398 4047 
Q 1172 3844 1172 3481 
z
" transform="scale(0.015625)"/>
       </defs>
       <use xlink:href="#DejaVuSans-31"/>
       <use xlink:href="#DejaVuSans-38" x="63.623047"/>
       <use xlink:href="#DejaVuSans-30" x="127.246094"/>
      </g>
     </g>
    </g>
    <g id="ytick_5">
     <g id="line2d_27">
      <path d="M 57.6 160.374292 
L 414.72 160.374292 
" clip-path="url(#pd0c078fb34)" style="fill: none; stroke-dasharray: 2.96,1.28; stroke-dashoffset: 0; stroke: #b0b0b0; stroke-width: 0.8"/>
     </g>
     <g id="line2d_28">
      <g>
       <use xlink:href="#m125e8053fd" x="57.6" y="160.374292" style="stroke: #000000; stroke-width: 0.8"/>
      </g>
     </g>
     <g id="text_15">
      <!-- 200 -->
      <g transform="translate(31.5125 164.173511)scale(0.1 -0.1)">
       <use xlink:href="#DejaVuSans-32"/>
       <use xlink:href="#DejaVuSans-30" x="63.623047"/>
       <use xlink:href="#DejaVuSans-30" x="127.246094"/>
      </g>
     </g>
    </g>
    <g id="ytick_6">
     <g id="line2d_29">
      <path d="M 57.6 125.077035 
L 414.72 125.077035 
" clip-path="url(#pd0c078fb34)" style="fill: none; stroke-dasharray: 2.96,1.28; stroke-dashoffset: 0; stroke: #b0b0b0; stroke-width: 0.8"/>
     </g>
     <g id="line2d_30">
      <g>
       <use xlink:href="#m125e8053fd" x="57.6" y="125.077035" style="stroke: #000000; stroke-width: 0.8"/>
      </g>
     </g>
     <g id="text_16">
      <!-- 220 -->
      <g transform="translate(31.5125 128.876254)scale(0.1 -0.1)">
       <use xlink:href="#DejaVuSans-32"/>
       <use xlink:href="#DejaVuSans-32" x="63.623047"/>
       <use xlink:href="#DejaVuSans-30" x="127.246094"/>
      </g>
     </g>
    </g>
    <g id="ytick_7">
     <g id="line2d_31">
      <path d="M 57.6 89.779777 
L 414.72 89.779777 
" clip-path="url(#pd0c078fb34)" style="fill: none; stroke-dasharray: 2.96,1.28; stroke-dashoffset: 0; stroke: #b0b0b0; stroke-width: 0.8"/>
     </g>
     <g id="line2d_32">
      <g>
       <use xlink:href="#m125e8053fd" x="57.6" y="89.779777" style="stroke: #000000; stroke-width: 0.8"/>
      </g>
     </g>
     <g id="text_17">
      <!-- 240 -->
      <g transform="translate(31.5125 93.578996)scale(0.1 -0.1)">
       <use xlink:href="#DejaVuSans-32"/>
       <use xlink:href="#DejaVuSans-34" x="63.623047"/>
       <use xlink:href="#DejaVuSans-30" x="127.246094"/>
      </g>
     </g>
    </g>
    <g id="ytick_8">
     <g id="line2d_33">
      <path d="M 57.6 54.48252 
L 414.72 54.48252 
" clip-path="url(#pd0c078fb34)" style="fill: none; stroke-dasharray: 2.96,1.28; stroke-dashoffset: 0; stroke: #b0b0b0; stroke-width: 0.8"/>
     </g>
     <g id="line2d_34">
      <g>
       <use xlink:href="#m125e8053fd" x="57.6" y="54.48252" style="stroke: #000000; stroke-width: 0.8"/>
      </g>
     </g>
     <g id="text_18">
      <!-- 260 -->
      <g transform="translate(31.5125 58.281739)scale(0.1 -0.1)">
       <use xlink:href="#DejaVuSans-32"/>
       <use xlink:href="#DejaVuSans-36" x="63.623047"/>
       <use xlink:href="#DejaVuSans-30" x="127.246094"/>
      </g>
     </g>
    </g>
    <g id="text_19">
     <!-- state/in_circulation -->
     <g transform="translate(25.154687 221.9655)rotate(-90)scale(0.1 -0.1)">
      <defs>
       <path id="DejaVuSans-74" d="M 1172 4494 
L 1172 3500 
L 2356 3500 
L 2356 3053 
L 1172 3053 
L 1172 1153 
Q 1172 725 1289 603 
Q 1406 481 1766 481 
L 2356 481 
L 2356 0 
L 1766 0 
Q 1100 0 847 248 
Q 594 497 594 1153 
L 594 3053 
L 172 3053 
L 172 3500 
L 594 3500 
L 594 4494 
L 1172 4494 
z
" transform="scale(0.015625)"/>
       <path id="DejaVuSans-61" d="M 2194 1759 
Q 1497 1759 1228 1600 
Q 959 1441 959 1056 
Q 959 750 1161 570 
Q 1363 391 1709 391 
Q 2188 391 2477 730 
Q 2766 1069 2766 1631 
L 2766 1759 
L 2194 1759 
z
M 3341 1997 
L 3341 0 
L 2766 0 
L 2766 531 
Q 2569 213 2275 61 
Q 1981 -91 1556 -91 
Q 1019 -91 701 211 
Q 384 513 384 1019 
Q 384 1609 779 1909 
Q 1175 2209 1959 2209 
L 2766 2209 
L 2766 2266 
Q 2766 2663 2505 2880 
Q 2244 3097 1772 3097 
Q 1472 3097 1187 3025 
Q 903 2953 641 2809 
L 641 3341 
Q 956 3463 1253 3523 
Q 1550 3584 1831 3584 
Q 2591 3584 2966 3190 
Q 3341 2797 3341 1997 
z
" transform="scale(0.015625)"/>
       <path id="DejaVuSans-2f" d="M 1625 4666 
L 2156 4666 
L 531 -594 
L 0 -594 
L 1625 4666 
z
" transform="scale(0.015625)"/>
       <path id="DejaVuSans-6e" d="M 3513 2113 
L 3513 0 
L 2938 0 
L 2938 2094 
Q 2938 2591 2744 2837 
Q 2550 3084 2163 3084 
Q 1697 3084 1428 2787 
Q 1159 2491 1159 1978 
L 1159 0 
L 581 0 
L 581 3500 
L 1159 3500 
L 1159 2956 
Q 1366 3272 1645 3428 
Q 1925 3584 2291 3584 
Q 2894 3584 3203 3211 
Q 3513 2838 3513 2113 
z
" transform="scale(0.015625)"/>
       <path id="DejaVuSans-5f" d="M 3263 -1063 
L 3263 -1509 
L -63 -1509 
L -63 -1063 
L 3263 -1063 
z
" transform="scale(0.015625)"/>
       <path id="DejaVuSans-63" d="M 3122 3366 
L 3122 2828 
Q 2878 2963 2633 3030 
Q 2388 3097 2138 3097 
Q 1578 3097 1268 2742 
Q 959 2388 959 1747 
Q 959 1106 1268 751 
Q 1578 397 2138 397 
Q 2388 397 2633 464 
Q 2878 531 3122 666 
L 3122 134 
Q 2881 22 2623 -34 
Q 2366 -91 2075 -91 
Q 1284 -91 818 406 
Q 353 903 353 1747 
Q 353 2603 823 3093 
Q 1294 3584 2113 3584 
Q 2378 3584 2631 3529 
Q 2884 3475 3122 3366 
z
" transform="scale(0.015625)"/>
       <path id="DejaVuSans-72" d="M 2631 2963 
Q 2534 3019 2420 3045 
Q 2306 3072 2169 3072 
Q 1681 3072 1420 2755 
Q 1159 2438 1159 1844 
L 1159 0 
L 581 0 
L 581 3500 
L 1159 3500 
L 1159 2956 
Q 1341 3275 1631 3429 
Q 1922 3584 2338 3584 
Q 2397 3584 2469 3576 
Q 2541 3569 2628 3553 
L 2631 2963 
z
" transform="scale(0.015625)"/>
       <path id="DejaVuSans-75" d="M 544 1381 
L 544 3500 
L 1119 3500 
L 1119 1403 
Q 1119 906 1312 657 
Q 1506 409 1894 409 
Q 2359 409 2629 706 
Q 2900 1003 2900 1516 
L 2900 3500 
L 3475 3500 
L 3475 0 
L 2900 0 
L 2900 538 
Q 2691 219 2414 64 
Q 2138 -91 1772 -91 
Q 1169 -91 856 284 
Q 544 659 544 1381 
z
M 1991 3584 
L 1991 3584 
z
" transform="scale(0.015625)"/>
       <path id="DejaVuSans-6c" d="M 603 4863 
L 1178 4863 
L 1178 0 
L 603 0 
L 603 4863 
z
" transform="scale(0.015625)"/>
      </defs>
      <use xlink:href="#DejaVuSans-73"/>
      <use xlink:href="#DejaVuSans-74" x="52.099609"/>
      <use xlink:href="#DejaVuSans-61" x="91.308594"/>
      <use xlink:href="#DejaVuSans-74" x="152.587891"/>
      <use xlink:href="#DejaVuSans-65" x="191.796875"/>
      <use xlink:href="#DejaVuSans-2f" x="253.320312"/>
      <use xlink:href="#DejaVuSans-69" x="287.011719"/>
      <use xlink:href="#DejaVuSans-6e" x="314.794922"/>
      <use xlink:href="#DejaVuSans-5f" x="378.173828"/>
      <use xlink:href="#DejaVuSans-63" x="428.173828"/>
      <use xlink:href="#DejaVuSans-69" x="483.154297"/>
      <use xlink:href="#DejaVuSans-72" x="510.9375"/>
      <use xlink:href="#DejaVuSans-63" x="549.800781"/>
      <use xlink:href="#DejaVuSans-75" x="604.78125"/>
      <use xlink:href="#DejaVuSans-6c" x="668.160156"/>
      <use xlink:href="#DejaVuSans-61" x="695.943359"/>
      <use xlink:href="#DejaVuSans-74" x="757.222656"/>
      <use xlink:href="#DejaVuSans-69" x="796.431641"/>
      <use xlink:href="#DejaVuSans-6f" x="824.214844"/>
      <use xlink:href="#DejaVuSans-6e" x="885.396484"/>
     </g>
    </g>
   </g>
   <g id="line2d_35">
    <path d="M 73.832727 53.568 
L 74.159177 78.286447 
L 74.485627 100.867822 
L 74.812077 92.451987 
L 74.975302 110.936561 
L 75.138527 111.879576 
L 75.301752 113.48718 
L 75.464977 116.316592 
L 75.954652 132.220317 
L 76.117877 132.581232 
L 76.281102 133.404472 
L 76.444327 133.40588 
L 76.934002 146.994278 
L 77.097227 147.78228 
L 77.423677 157.649986 
L 77.586903 157.951239 
L 77.750128 159.016861 
L 77.913353 162.737247 
L 78.076578 163.772369 
L 78.403028 168.786805 
L 78.729478 166.981767 
L 78.892703 168.095987 
L 79.219153 177.451747 
L 80.035278 195.16154 
L 80.361728 197.677264 
L 80.524953 195.749611 
L 80.688178 196.663869 
L 80.851403 195.759793 
L 81.014628 196.601472 
L 81.341078 202.926684 
L 81.504303 199.960166 
L 81.667528 203.880854 
L 81.830753 204.414092 
L 81.993978 203.813643 
L 82.157203 204.863639 
L 82.320428 204.318817 
L 82.810103 212.033433 
L 82.973328 211.980463 
L 83.136553 211.367929 
L 83.299778 214.511589 
L 83.626228 213.469819 
L 84.115903 220.166415 
L 84.279128 221.165112 
L 84.442353 220.909553 
L 84.605578 222.800013 
L 84.768803 223.379444 
L 84.932028 222.345553 
L 85.095253 219.941503 
L 85.258478 220.075028 
L 85.911378 225.260202 
L 86.074603 226.055921 
L 86.237828 225.433223 
L 86.401053 226.067302 
L 86.890728 232.270539 
L 87.053953 232.175053 
L 87.380403 234.658873 
L 87.543628 234.628947 
L 88.033303 239.514705 
L 88.196528 240.095109 
L 88.359753 241.979787 
L 88.522978 241.685544 
L 88.849428 246.318571 
L 89.012653 249.202462 
L 89.175878 247.422921 
L 89.502328 251.093486 
L 89.992003 260.6877 
L 90.318453 260.986503 
L 90.481678 260.257143 
L 90.808128 265.135154 
L 90.971353 264.538596 
L 91.297803 271.262549 
L 91.461028 270.1236 
L 91.787478 274.679393 
L 91.950703 275.258827 
L 92.113928 274.826523 
L 92.277153 276.232123 
L 92.440378 276.658136 
L 92.603603 276.609209 
L 92.930053 281.945735 
L 93.093278 281.038491 
L 93.256503 282.156121 
L 93.419729 281.62841 
L 93.582954 283.042047 
L 93.746179 281.23315 
L 93.909404 281.333101 
L 94.072629 283.241949 
L 94.235854 282.725071 
L 94.399079 282.862066 
L 94.888754 285.752946 
L 95.215204 288.666193 
L 95.378429 289.663953 
L 95.541654 288.52151 
L 95.868104 290.096956 
L 96.031329 288.998197 
L 96.194554 289.030699 
L 96.521004 288.857358 
L 96.684229 289.343831 
L 97.173904 293.220588 
L 97.337129 293.349895 
L 97.500354 292.645348 
L 97.826804 292.44964 
L 97.990029 294.633876 
L 98.316479 292.522681 
L 98.479704 294.454944 
L 98.642929 294.2498 
L 98.806154 294.887248 
L 99.132604 292.581743 
L 99.295829 292.087931 
L 99.459054 291.175095 
L 99.622279 292.581743 
L 99.785504 289.934099 
L 99.948729 290.653324 
L 100.111954 290.597058 
L 100.275179 289.978832 
L 100.438404 290.779835 
L 100.601629 289.907539 
L 100.764854 290.509689 
L 100.928079 293.002863 
L 101.091304 292.20885 
L 101.254529 292.491927 
L 101.580979 295.265383 
L 101.744204 295.488 
L 101.907429 293.738514 
L 102.070654 294.004467 
L 102.233879 294.539867 
L 102.397104 293.455437 
L 102.560329 293.462077 
L 102.723554 294.040463 
L 102.886779 293.616546 
L 103.050004 290.226612 
L 103.213229 290.540443 
L 103.376454 289.206836 
L 103.702904 289.656264 
L 104.192579 287.069779 
L 104.519029 283.067909 
L 104.682254 283.365314 
L 104.845479 282.039395 
L 105.171929 284.58604 
L 105.335154 284.618192 
L 105.498379 285.297577 
L 105.661604 288.041327 
L 105.824829 287.220404 
L 105.988054 289.568895 
L 106.151279 289.91348 
L 106.314504 288.551215 
L 106.640954 292.122529 
L 106.804179 290.647034 
L 106.967404 292.075699 
L 107.130629 291.137351 
L 107.293854 287.719808 
L 107.457079 288.385213 
L 107.620304 287.233334 
L 107.946754 288.368788 
L 108.273204 285.668373 
L 108.436429 284.812502 
L 108.599654 286.685703 
L 108.762879 287.026793 
L 108.926104 285.460084 
L 109.089329 287.357399 
L 109.41578 284.809007 
L 109.579005 286.201676 
L 109.74223 283.921683 
L 110.06868 284.710454 
L 110.231905 286.686751 
L 110.39513 285.478606 
L 110.558355 283.418435 
L 110.72158 286.002474 
L 111.04803 285.533824 
L 111.37448 282.657971 
L 111.537705 282.905052 
L 111.70093 283.654332 
L 112.02738 281.638195 
L 112.190605 281.533002 
L 112.35383 278.284955 
L 112.517055 278.535531 
L 112.68028 276.915003 
L 112.843505 277.249103 
L 113.00673 276.081847 
L 113.169955 276.516947 
L 113.33318 275.980149 
L 113.496405 276.964978 
L 113.65963 274.90236 
L 113.98608 278.063387 
L 114.149305 277.775417 
L 114.31253 278.005024 
L 114.63898 276.913255 
L 114.96543 278.267831 
L 115.29188 279.41307 
L 115.455105 278.867185 
L 115.781555 276.806315 
L 115.94478 279.478422 
L 116.108005 278.222049 
L 116.27123 280.171087 
L 116.434455 279.370434 
L 116.59768 280.653017 
L 116.760905 280.208132 
L 117.57703 273.169649 
L 117.740255 273.182929 
L 117.90348 272.310982 
L 118.066705 274.966314 
L 118.393155 273.045934 
L 118.55638 273.516331 
L 118.719605 271.077325 
L 118.88283 270.673329 
L 119.372505 267.272211 
L 119.53573 267.161077 
L 119.86218 263.743534 
L 120.025405 264.184575 
L 120.18863 263.353866 
L 120.51508 265.179189 
L 120.678305 264.404746 
L 120.84153 266.868914 
L 121.004755 265.584583 
L 121.331205 266.933917 
L 121.82088 264.642391 
L 121.984105 264.560962 
L 122.14733 265.247686 
L 122.310555 264.069597 
L 122.47378 263.823564 
L 122.637005 263.795606 
L 122.80023 264.118524 
L 122.963455 264.868852 
L 123.12668 264.911489 
L 123.45313 266.204906 
L 123.616355 263.892062 
L 123.77958 264.536149 
L 123.942805 264.559914 
L 124.269255 261.503731 
L 124.43248 261.545668 
L 124.595705 261.184308 
L 124.75893 260.355347 
L 124.922155 262.901292 
L 125.085381 262.566493 
L 125.248606 260.220099 
L 125.411831 260.490594 
L 125.575056 259.289439 
L 125.738281 260.342416 
L 125.901506 260.32599 
L 126.064731 261.234283 
L 126.391181 264.864659 
L 126.554406 264.005642 
L 126.717631 264.269847 
L 127.044081 268.968227 
L 127.370531 266.290528 
L 127.860206 267.612253 
L 128.023431 266.398517 
L 128.186656 266.226574 
L 128.349881 267.631474 
L 128.513106 267.36657 
L 128.676331 265.295215 
L 128.839556 265.438152 
L 129.329231 266.999269 
L 129.492456 269.760493 
L 129.818906 266.296819 
L 129.982131 265.221126 
L 130.145356 266.867865 
L 130.308581 265.293817 
L 130.471806 264.953775 
L 130.798256 263.55901 
L 130.961481 265.642247 
L 131.124706 265.674399 
L 131.287931 265.991375 
L 131.614381 262.456058 
L 131.777606 262.940434 
L 131.940831 261.674625 
L 132.430506 264.283477 
L 132.593731 264.28173 
L 132.756956 263.478979 
L 132.920181 265.77365 
L 133.083406 266.074201 
L 133.409856 264.832856 
L 133.736306 269.413112 
L 133.899531 268.534525 
L 134.062756 268.950404 
L 134.225981 266.898969 
L 134.389206 268.593237 
L 134.552431 265.845643 
L 134.715656 266.156678 
L 134.878881 268.969625 
L 135.042106 266.800416 
L 135.368556 270.685561 
L 135.531781 270.45176 
L 135.695006 270.633139 
L 135.858231 270.009321 
L 136.184681 274.531913 
L 136.347906 274.16636 
L 136.674356 271.668292 
L 136.837581 269.015406 
L 137.164031 267.867022 
L 137.327256 267.210354 
L 137.490481 268.251098 
L 137.653706 265.904355 
L 137.816931 266.098315 
L 137.980156 265.174645 
L 138.143381 265.184081 
L 138.469831 268.461135 
L 138.633056 267.141856 
L 138.796281 267.321138 
L 138.959506 265.822577 
L 139.285956 267.054137 
L 139.612406 265.17849 
L 139.775631 266.629172 
L 139.938856 266.478547 
L 140.102081 268.971722 
L 140.265306 268.516003 
L 140.428531 267.465472 
L 140.754981 271.803191 
L 141.081432 270.928448 
L 141.244657 273.24234 
L 141.407882 272.592661 
L 141.571107 272.725113 
L 141.734332 273.527864 
L 141.897557 272.414078 
L 142.060782 274.397364 
L 142.387232 273.545687 
L 142.550457 272.763905 
L 142.876907 267.667471 
L 143.040132 268.062031 
L 143.203357 265.659721 
L 143.366582 265.096362 
L 143.693032 260.810716 
L 143.856257 262.926455 
L 144.019482 260.619901 
L 144.182707 262.144673 
L 144.345932 260.254697 
L 144.509157 260.460539 
L 144.835607 259.048999 
L 144.998832 259.53652 
L 145.325282 261.080164 
L 145.814957 253.586661 
L 145.978182 252.84437 
L 146.141407 255.10619 
L 146.304632 255.489218 
L 146.467857 256.904603 
L 146.794307 253.597844 
L 146.957532 253.783766 
L 147.120757 255.061457 
L 147.447207 250.359932 
L 147.610432 250.800624 
L 147.773657 249.078048 
L 147.936882 250.514052 
L 148.100107 250.762531 
L 148.263332 248.286131 
L 148.426557 248.450385 
L 148.589782 248.288577 
L 148.753007 245.04752 
L 148.916232 244.570832 
L 149.079457 245.125104 
L 149.242682 244.797294 
L 149.569132 242.505069 
L 149.732357 242.599778 
L 149.895582 243.048507 
L 150.058807 241.430425 
L 150.222032 238.454622 
L 150.385257 238.8373 
L 150.548482 239.538003 
L 150.711707 241.148396 
L 150.874932 238.417577 
L 151.038157 238.376688 
L 151.201382 239.344741 
L 151.364607 237.18427 
L 151.527832 237.543533 
L 151.854282 232.540758 
L 152.017507 234.401378 
L 152.180732 234.705424 
L 152.343957 236.499643 
L 152.507182 236.617766 
L 152.670407 235.292197 
L 152.833632 236.325603 
L 152.996857 235.578419 
L 153.323307 236.700942 
L 153.649757 238.919776 
L 153.976207 236.049166 
L 154.139432 236.646773 
L 154.302657 235.581565 
L 154.465882 236.50838 
L 154.629107 235.595544 
L 154.792332 233.885199 
L 154.955557 233.399775 
L 155.118782 233.722692 
L 155.771682 228.548324 
L 155.934907 227.622557 
L 156.098132 225.817155 
L 156.424582 220.623915 
L 156.587807 219.228101 
L 156.751032 219.909233 
L 156.914258 219.070486 
L 157.240708 214.670211 
L 157.403933 214.460175 
L 157.567158 216.090139 
L 157.730383 213.43306 
L 157.893608 212.717679 
L 158.220058 210.395399 
L 158.383283 210.698396 
L 158.709733 206.538562 
L 158.872958 206.142254 
L 159.525858 202.821865 
L 159.689083 203.234599 
L 159.852308 201.942929 
L 160.015533 202.565698 
L 160.178758 204.158618 
L 160.341983 203.442538 
L 160.505208 204.884833 
L 160.668433 203.4345 
L 160.831658 204.877843 
L 161.484558 200.492246 
L 161.647783 200.479316 
L 161.811008 199.47282 
L 161.974233 200.264037 
L 162.137458 202.582124 
L 162.300683 203.275138 
L 162.627133 198.562081 
L 162.790358 198.376857 
L 162.953583 197.066665 
L 163.280033 200.331836 
L 163.443258 199.392789 
L 163.606483 197.242452 
L 163.769708 197.629674 
L 163.932933 197.349742 
L 164.096158 194.724814 
L 164.259383 194.055914 
L 164.422608 194.179279 
L 164.585833 193.132593 
L 164.749058 194.729008 
L 165.075508 195.153973 
L 165.238733 196.385183 
L 165.565183 192.690854 
L 165.728408 192.908928 
L 165.891633 191.942971 
L 166.054858 191.697288 
L 166.218083 190.947309 
L 166.381308 189.645853 
L 166.544533 189.617895 
L 166.707758 189.706313 
L 167.034208 187.554928 
L 167.197433 186.01408 
L 167.360658 186.69032 
L 167.523883 188.377249 
L 168.013558 182.489946 
L 168.340008 182.941821 
L 168.503233 179.645896 
L 168.666458 179.685736 
L 169.482583 171.726379 
L 169.645808 171.461825 
L 169.809033 170.807602 
L 169.972258 168.492312 
L 170.135483 167.805239 
L 170.298708 169.322671 
L 170.461933 168.502447 
L 170.788383 164.717952 
L 170.951608 162.338707 
L 171.114833 162.769963 
L 171.278058 164.133625 
L 171.604508 159.228355 
L 171.767733 159.786121 
L 171.930958 158.850918 
L 172.094183 159.526809 
L 172.257408 157.268833 
L 172.420633 156.896639 
L 172.583858 157.558899 
L 172.747084 159.286018 
L 172.910309 159.013775 
L 173.073534 158.199142 
L 173.236759 156.390944 
L 173.563209 158.36794 
L 173.889659 153.735961 
L 174.052884 151.645735 
L 174.216109 151.596458 
L 174.379334 148.861096 
L 174.705784 147.731583 
L 174.869009 148.270478 
L 175.032234 148.320803 
L 175.521909 144.966166 
L 175.848359 146.943162 
L 176.011584 145.716494 
L 176.174809 145.602914 
L 176.338034 144.465014 
L 176.501259 145.663024 
L 176.664484 144.042146 
L 176.827709 144.851187 
L 177.154159 142.79486 
L 177.317384 140.239129 
L 177.643834 140.029093 
L 177.807059 140.179019 
L 177.970284 139.154 
L 178.133509 137.246551 
L 178.459959 136.542003 
L 178.786409 131.673079 
L 179.112859 130.724246 
L 179.276084 128.206259 
L 179.602534 127.547493 
L 179.765759 125.535899 
L 180.092209 124.422812 
L 180.418659 121.389695 
L 180.745109 123.602588 
L 181.071559 119.862127 
L 181.234784 118.030514 
L 181.398009 117.512588 
L 181.887684 112.376313 
L 182.050909 113.216108 
L 182.214134 111.644856 
L 182.377359 111.540012 
L 182.703809 110.442303 
L 182.867034 110.92598 
L 183.030259 108.957371 
L 183.193484 109.104152 
L 183.356709 108.459366 
L 183.519934 106.497747 
L 183.683159 106.539335 
L 184.009609 104.892246 
L 184.499284 109.153079 
L 184.662509 109.794021 
L 184.825734 108.836802 
L 185.315409 111.885646 
L 185.478634 110.185436 
L 185.968309 112.448655 
L 186.131534 111.466622 
L 186.294759 112.462634 
L 186.457984 114.360298 
L 186.784434 112.028932 
L 186.947659 113.189897 
L 187.110884 112.402873 
L 187.274109 113.491147 
L 187.437334 113.04032 
L 187.600559 113.706425 
L 187.763784 111.00636 
L 187.927009 110.97246 
L 188.090234 111.215347 
L 188.416684 110.197319 
L 188.743135 107.303642 
L 189.069585 105.681367 
L 189.23281 105.916216 
L 189.396035 104.696888 
L 189.55926 104.564086 
L 189.722485 105.600987 
L 190.048935 103.291288 
L 190.21216 104.415558 
L 190.375385 104.182806 
L 190.53861 102.659781 
L 191.028285 106.74972 
L 191.354735 106.533743 
L 191.681185 107.181675 
L 191.84441 106.601542 
L 192.007635 106.955563 
L 192.334085 104.29359 
L 192.49731 104.249905 
L 192.660535 103.271018 
L 192.82376 102.987941 
L 192.986985 100.447238 
L 193.15021 100.2047 
L 193.313435 96.030887 
L 193.47666 95.173618 
L 193.639885 96.227643 
L 193.80311 98.144528 
L 193.966335 97.957558 
L 194.12956 97.465493 
L 194.292785 98.675735 
L 194.45601 98.098048 
L 194.78246 99.574242 
L 194.945685 98.767997 
L 195.598585 100.547538 
L 195.76181 102.615747 
L 196.08826 100.515036 
L 196.251485 101.194072 
L 196.41471 100.725422 
L 196.577935 99.904499 
L 196.74116 102.475257 
L 196.904385 102.68739 
L 197.06761 103.707865 
L 197.230835 103.800827 
L 197.72051 105.498939 
L 197.883735 105.483213 
L 198.04696 107.439589 
L 198.210185 107.353268 
L 198.37341 107.453918 
L 198.536635 108.251077 
L 198.69986 108.183977 
L 198.863085 107.418621 
L 199.02631 107.444831 
L 199.35276 105.940679 
L 199.515985 108.575043 
L 199.67921 109.101356 
L 199.842435 109.243244 
L 200.00566 110.001262 
L 200.168885 109.300559 
L 200.33211 109.374298 
L 200.495335 107.618172 
L 200.65856 107.282674 
L 200.98501 105.738681 
L 201.31146 105.843175 
L 201.474685 105.288204 
L 201.63791 103.568424 
L 201.801135 103.58415 
L 202.127585 105.865541 
L 202.29081 106.708482 
L 202.61726 105.728197 
L 202.780485 105.713518 
L 202.94371 103.288143 
L 203.106935 103.337069 
L 203.27016 102.089783 
L 203.433385 101.714095 
L 203.59661 101.918539 
L 203.759835 100.98089 
L 203.92306 102.525931 
L 204.086285 101.30905 
L 204.412735 103.561784 
L 204.902411 106.732596 
L 205.065636 106.777678 
L 205.228861 109.510245 
L 205.392086 109.56721 
L 205.555311 110.187184 
L 205.718536 109.763966 
L 206.044986 110.272107 
L 206.208211 109.563715 
L 206.371436 110.059624 
L 206.697886 108.284277 
L 206.861111 109.514439 
L 207.024336 109.541349 
L 207.514011 106.983521 
L 207.677236 105.865541 
L 207.840461 106.848972 
L 208.003686 105.881967 
L 208.166911 105.695346 
L 208.493361 106.263597 
L 208.656586 106.613424 
L 208.819811 106.218514 
L 208.983036 107.57309 
L 209.146261 107.393109 
L 209.309486 107.804095 
L 209.962386 112.501076 
L 210.125611 111.602918 
L 210.452061 109.461668 
L 210.615286 108.810241 
L 210.778511 108.687575 
L 210.941736 108.758169 
L 211.104961 107.329154 
L 211.268186 108.515631 
L 211.594636 107.982328 
L 211.757861 109.090872 
L 211.921086 108.352775 
L 212.084311 108.560714 
L 212.247536 107.139388 
L 212.410761 107.545831 
L 212.573986 107.602446 
L 212.737211 107.911384 
L 213.063661 109.777945 
L 213.226886 109.402956 
L 213.390111 108.674294 
L 213.553336 106.802142 
L 213.716561 106.774883 
L 213.879786 105.628595 
L 214.043011 105.488105 
L 214.206236 105.690453 
L 214.369461 106.699745 
L 214.532686 105.474126 
L 214.695911 106.279673 
L 214.859136 107.821918 
L 215.022361 106.71652 
L 215.185586 107.515775 
L 215.348811 107.352569 
L 215.512036 108.227662 
L 215.675261 108.353124 
L 215.838486 109.229964 
L 216.164936 108.664509 
L 216.328161 108.219274 
L 216.654611 111.374709 
L 216.981061 113.447812 
L 217.144286 111.706364 
L 217.307511 113.208769 
L 217.633961 111.325433 
L 217.797186 113.209118 
L 217.960411 112.810714 
L 218.123636 114.244621 
L 218.286861 112.139367 
L 218.450086 112.476613 
L 218.613311 111.59488 
L 218.939761 108.825269 
L 219.102986 109.122674 
L 219.266211 109.006648 
L 219.429436 109.120927 
L 219.592661 108.334951 
L 219.755886 108.645987 
L 219.919111 108.363609 
L 220.082336 109.257922 
L 220.245561 109.05837 
L 220.572012 106.752865 
L 220.735237 106.058453 
L 220.898462 106.637887 
L 221.224912 102.3131 
L 221.388137 103.45065 
L 221.551362 103.586597 
L 222.041037 99.286272 
L 222.204262 98.184718 
L 222.367487 98.938542 
L 222.530712 97.821611 
L 222.693937 98.593957 
L 223.183612 97.242876 
L 223.346837 97.483666 
L 223.510062 99.490367 
L 223.836512 100.056521 
L 223.999737 98.643583 
L 224.162962 101.139204 
L 224.489412 99.646584 
L 224.652637 100.475895 
L 224.815862 99.126211 
L 224.979087 99.174439 
L 225.305537 102.511952 
L 225.468762 101.646645 
L 225.631987 102.122984 
L 225.958437 101.086782 
L 226.121662 99.178284 
L 226.284887 99.130755 
L 226.448112 97.399442 
L 226.611337 97.61472 
L 226.774562 98.04947 
L 226.937787 99.563408 
L 227.101012 99.74933 
L 227.264237 99.502599 
L 227.427462 99.714732 
L 227.590687 101.15528 
L 227.753912 100.155773 
L 227.917137 100.999412 
L 228.243587 99.897858 
L 228.406812 99.896111 
L 228.570037 98.584171 
L 228.733262 98.663503 
L 229.059712 100.61289 
L 229.222937 100.750584 
L 229.386162 100.632461 
L 229.549387 100.797065 
L 229.712612 101.713046 
L 229.875837 101.775253 
L 230.039062 103.327634 
L 230.202287 102.518243 
L 230.365512 102.977806 
L 230.528737 104.042665 
L 231.344862 99.284525 
L 231.671312 101.026672 
L 231.834537 101.825927 
L 231.997762 100.703055 
L 232.160987 101.814744 
L 232.487437 99.01333 
L 232.650662 97.78841 
L 233.140337 97.021307 
L 233.303562 96.951761 
L 233.466787 95.520999 
L 233.630012 97.430895 
L 233.793237 96.576421 
L 233.956462 98.41782 
L 234.119687 98.580327 
L 234.282912 97.764297 
L 234.446137 98.980829 
L 234.609362 97.227848 
L 234.772587 99.513083 
L 234.935812 98.048771 
L 235.099037 100.923576 
L 235.425487 101.960127 
L 235.588712 102.937966 
L 235.751937 102.838365 
L 235.915162 104.610217 
L 236.078387 105.085507 
L 236.241613 106.637188 
L 236.568063 106.127999 
L 236.731288 106.706385 
L 237.057738 109.890128 
L 237.220963 109.341098 
L 237.384188 109.274348 
L 237.547413 111.546652 
L 237.710638 111.642409 
L 237.873863 111.600122 
L 238.037088 113.244416 
L 238.363538 117.738351 
L 238.526763 119.003111 
L 238.689988 119.044699 
L 238.853213 119.627627 
L 239.016438 121.36628 
L 239.179663 121.583655 
L 239.342888 120.902173 
L 239.669338 122.427993 
L 239.832563 120.765527 
L 239.995788 121.233128 
L 240.159013 119.51894 
L 240.322238 119.467567 
L 240.485463 118.626723 
L 240.648688 118.538305 
L 240.811913 117.090069 
L 240.975138 119.431221 
L 241.138363 118.825925 
L 241.301588 120.578207 
L 241.464813 119.549344 
L 241.791263 115.271037 
L 241.954488 117.192816 
L 242.117713 117.304649 
L 242.280938 116.916379 
L 242.444163 117.190369 
L 242.933838 121.64027 
L 243.097063 121.758743 
L 243.260288 122.33643 
L 243.423513 120.944809 
L 243.586738 121.26528 
L 243.749963 121.124091 
L 243.913188 121.357193 
L 244.076413 123.632993 
L 244.239638 123.154208 
L 244.402863 123.126599 
L 244.566088 124.784871 
L 244.729313 122.961296 
L 244.892538 122.620555 
L 245.218988 125.151823 
L 245.708663 122.00163 
L 245.871888 122.056149 
L 246.035113 121.134925 
L 246.198338 119.297021 
L 246.851238 122.67123 
L 247.014463 123.03923 
L 247.177688 125.069696 
L 247.340913 125.072492 
L 247.504138 127.460823 
L 247.667363 126.530163 
L 247.830588 127.400014 
L 247.993813 125.716929 
L 248.157038 125.607892 
L 248.646713 124.331948 
L 248.809938 123.165042 
L 248.973163 124.788017 
L 249.299613 125.708192 
L 249.626063 123.616218 
L 249.789288 122.720506 
L 249.952513 123.48062 
L 250.115738 122.316859 
L 250.278963 123.127298 
L 250.605413 123.389406 
L 250.768638 123.70149 
L 250.931863 123.753562 
L 251.095088 124.072286 
L 251.258313 123.010573 
L 251.421538 122.800536 
L 251.584763 120.618747 
L 251.747988 121.055594 
L 251.911213 121.094036 
L 252.074439 121.694439 
L 252.237664 121.800331 
L 252.564114 121.387598 
L 252.727339 120.125284 
L 253.053789 122.164836 
L 253.217014 122.716312 
L 253.380239 122.262341 
L 253.543464 121.408217 
L 253.706689 122.878819 
L 253.869914 123.017912 
L 254.033139 122.730641 
L 254.196364 123.713372 
L 254.359589 122.991351 
L 254.686039 119.632171 
L 254.849264 120.373064 
L 255.012489 119.575905 
L 255.175714 119.476304 
L 255.338939 119.53886 
L 255.502164 117.453876 
L 255.828614 119.330571 
L 255.991839 118.475749 
L 256.155064 119.381945 
L 256.318289 120.938169 
L 256.481514 119.177151 
L 256.644739 122.089349 
L 256.807964 121.659491 
L 256.971189 123.272331 
L 257.134414 122.539826 
L 257.297639 123.89545 
L 257.460864 122.837931 
L 257.624089 123.493551 
L 257.950539 121.882808 
L 258.276989 126.442095 
L 258.440214 124.977434 
L 258.603439 124.64508 
L 258.766664 125.671846 
L 258.929889 125.964009 
L 259.582789 122.51711 
L 259.746014 122.53738 
L 259.909239 121.890846 
L 260.072464 123.595249 
L 260.235689 124.117019 
L 260.398914 123.737137 
L 260.562139 120.098374 
L 260.725364 121.411013 
L 260.888589 121.552901 
L 261.051814 120.093481 
L 261.215039 120.535571 
L 261.541489 122.319305 
L 261.704714 120.202868 
L 261.867939 120.130876 
L 262.031164 119.587787 
L 262.194389 119.624832 
L 262.357614 120.599176 
L 262.684064 123.718615 
L 263.010514 123.512772 
L 263.173739 122.676821 
L 263.336964 123.208377 
L 263.663414 119.802017 
L 263.826639 119.72653 
L 263.989864 119.334416 
L 264.153089 121.263883 
L 264.316314 121.064331 
L 264.479539 122.338876 
L 264.805989 119.83312 
L 264.969214 119.742955 
L 265.132439 119.419688 
L 265.295664 121.125839 
L 265.458889 121.092289 
L 265.622114 121.22544 
L 265.948564 122.293095 
L 266.111789 121.637824 
L 266.438239 124.638091 
L 266.601464 125.296507 
L 266.927914 122.721205 
L 267.091139 124.060404 
L 267.254364 122.426246 
L 267.417589 123.161896 
L 267.580814 123.161547 
L 267.744039 123.536886 
L 268.07049 126.873001 
L 268.233715 126.815337 
L 268.39694 127.584188 
L 268.560165 127.133362 
L 268.72339 127.582791 
L 268.886615 127.002308 
L 269.213065 129.087991 
L 269.37629 128.601518 
L 269.539515 128.611304 
L 269.70274 129.453196 
L 270.02919 127.820785 
L 270.192415 128.108056 
L 270.35564 128.629477 
L 270.518865 127.87111 
L 270.68209 127.692177 
L 270.845315 128.781499 
L 271.00854 128.647649 
L 271.171765 128.70776 
L 271.33499 126.98728 
L 271.66144 129.23617 
L 271.824665 128.759482 
L 271.98789 130.196535 
L 272.151115 128.623885 
L 272.31434 128.592432 
L 272.64079 131.72585 
L 272.804015 131.813569 
L 272.96724 133.225809 
L 273.130465 131.471779 
L 273.29369 133.573189 
L 273.456915 133.723814 
L 273.62014 132.534891 
L 273.783365 132.673284 
L 273.94659 133.679431 
L 274.109815 133.502944 
L 274.27304 133.564103 
L 274.436265 134.65727 
L 274.59949 134.271446 
L 274.762715 132.045273 
L 274.92594 132.894504 
L 275.089165 133.131799 
L 275.25239 133.834599 
L 275.415615 133.743036 
L 275.57884 132.766245 
L 275.742065 133.544532 
L 275.90529 133.100695 
L 276.068515 134.48987 
L 276.23174 134.088669 
L 276.394965 134.684878 
L 276.721415 132.995503 
L 276.88464 134.156118 
L 277.047865 136.19602 
L 277.21109 136.234113 
L 277.374315 136.636712 
L 277.700765 139.913416 
L 277.86399 139.855752 
L 278.027215 139.798088 
L 278.19044 141.565048 
L 278.353665 141.410229 
L 278.51689 141.431897 
L 278.680115 142.263654 
L 278.84334 142.324113 
L 279.16979 143.064307 
L 279.333015 144.83581 
L 279.49624 144.299711 
L 279.659465 144.857828 
L 279.82269 144.733413 
L 280.14914 143.971901 
L 280.312365 145.411051 
L 280.47559 145.76647 
L 280.638815 145.575305 
L 280.80204 144.799115 
L 280.965265 145.298868 
L 281.12849 146.58949 
L 281.291715 146.896332 
L 281.45494 147.847261 
L 281.618165 149.816218 
L 281.78139 150.090209 
L 281.944615 149.212321 
L 282.10784 149.264393 
L 282.271065 147.80777 
L 282.43429 147.783656 
L 282.597515 147.878714 
L 282.76074 147.241616 
L 282.923965 147.126987 
L 283.08719 146.518895 
L 283.250415 146.734523 
L 283.41364 147.394337 
L 283.576865 145.834268 
L 283.74009 147.110561 
L 283.903316 146.057235 
L 284.066541 148.027242 
L 284.719441 142.504095 
L 284.882666 142.589367 
L 285.045891 142.103942 
L 285.372341 139.882662 
L 285.535566 140.45266 
L 285.862016 136.673058 
L 286.025241 136.726877 
L 286.188466 135.459321 
L 286.351691 138.024139 
L 286.514916 138.589943 
L 287.004591 134.203647 
L 287.331041 132.298294 
L 287.494266 133.772042 
L 287.657491 133.129003 
L 287.820716 135.882189 
L 287.983941 136.052035 
L 288.147166 135.088875 
L 288.310391 135.096214 
L 288.473616 134.112434 
L 288.636841 136.012195 
L 288.800066 135.62043 
L 289.289741 132.713824 
L 289.452966 132.998997 
L 289.616191 132.960555 
L 289.779416 131.315563 
L 290.105866 130.839574 
L 290.269091 130.124543 
L 290.432316 127.064864 
L 290.595541 127.213742 
L 290.921991 128.468018 
L 291.085216 128.403364 
L 291.248441 130.487999 
L 291.574891 129.451448 
L 291.738116 129.158935 
L 291.901341 127.847695 
L 292.227791 129.49024 
L 292.391016 130.014807 
L 292.554241 128.748648 
L 292.717466 129.042559 
L 292.880691 129.5839 
L 293.043916 128.869218 
L 293.207141 128.748648 
L 293.370366 129.026483 
L 293.533591 128.589636 
L 293.696816 128.645553 
L 294.023266 129.862434 
L 294.512941 126.241145 
L 294.676166 126.24464 
L 294.839391 126.760469 
L 295.165841 125.05327 
L 295.329066 124.9998 
L 295.492291 122.424498 
L 295.655516 123.120658 
L 295.818741 121.355795 
L 295.981966 121.60672 
L 296.308416 119.962078 
L 296.634866 123.403735 
L 297.124541 118.304854 
L 297.287766 119.435065 
L 297.614216 118.478894 
L 297.940666 120.04071 
L 298.267116 116.755968 
L 298.593566 117.289621 
L 298.756791 116.858365 
L 298.920016 116.800702 
L 299.083241 117.771201 
L 299.572916 113.487652 
L 299.736142 113.978319 
L 299.899367 113.228689 
L 300.062592 113.905278 
L 300.225817 113.694193 
L 300.389042 114.471782 
L 300.552267 112.263082 
L 301.205167 116.936299 
L 301.858067 118.242297 
L 302.021292 116.981382 
L 302.184517 117.751281 
L 302.347742 117.700956 
L 302.510967 117.953279 
L 302.674192 118.592474 
L 302.837417 117.15612 
L 303.000642 117.543342 
L 303.163867 118.507551 
L 303.327092 118.628121 
L 303.490317 120.559685 
L 303.653542 120.931529 
L 303.816767 120.672916 
L 303.979992 120.856391 
L 304.143217 120.337766 
L 304.306442 117.307794 
L 304.469667 117.244189 
L 304.959342 118.580941 
L 305.122567 116.550475 
L 305.285792 117.983684 
L 305.449017 117.95293 
L 305.612242 117.750582 
L 305.775467 119.400467 
L 305.938692 116.904846 
L 306.101917 117.512937 
L 306.428367 119.789785 
L 306.591592 121.088095 
L 306.754817 121.311761 
L 306.918042 122.306724 
L 307.081267 121.803476 
L 307.244492 120.922093 
L 307.407717 121.063981 
L 307.897392 119.046795 
L 308.060617 120.655092 
L 308.223842 119.351191 
L 308.387067 119.985143 
L 308.550292 119.300167 
L 308.713517 117.847038 
L 308.876742 117.49127 
L 309.039967 118.251384 
L 309.203192 118.417036 
L 309.366417 117.480436 
L 309.529642 117.497211 
L 309.692867 117.341344 
L 309.856092 114.779322 
L 310.019317 114.416564 
L 310.345767 110.676453 
L 310.508992 110.124627 
L 310.672217 110.595024 
L 310.998667 112.941768 
L 311.161892 112.615705 
L 311.325117 111.953095 
L 311.488342 112.733828 
L 311.651567 112.640867 
L 311.814792 111.847553 
L 311.978017 112.505619 
L 312.141242 110.806458 
L 312.304467 112.04361 
L 312.467692 110.918641 
L 312.794142 110.816943 
L 313.283817 109.32607 
L 313.447042 108.953877 
L 313.610267 110.137208 
L 313.773492 109.931017 
L 313.936717 109.518982 
L 314.099942 107.978135 
L 314.263167 108.471947 
L 314.426392 106.981773 
L 314.752842 108.991271 
L 314.916067 107.719521 
L 315.405742 110.103659 
L 315.568968 109.503256 
L 315.732193 110.124627 
L 316.058643 113.471576 
L 316.221868 113.644568 
L 316.385093 113.278664 
L 317.037993 115.30948 
L 317.364443 115.152564 
L 317.854118 110.9459 
L 318.017343 110.393376 
L 318.180568 110.379047 
L 318.343793 110.679598 
L 318.507018 110.621934 
L 318.670243 110.14944 
L 318.833468 110.575104 
L 318.996693 110.030618 
L 319.159918 109.076194 
L 319.323143 109.008395 
L 319.486368 109.497315 
L 319.649593 109.079689 
L 319.812818 110.3434 
L 319.976043 110.35668 
L 320.139268 110.672259 
L 320.302493 111.954143 
L 320.465718 110.474804 
L 320.628943 110.187883 
L 320.792168 111.779405 
L 320.955393 110.429022 
L 321.118618 111.154538 
L 321.281843 109.52038 
L 321.608293 112.427686 
L 321.771518 111.244704 
L 321.934743 111.237714 
L 322.097968 111.455089 
L 322.261193 110.161672 
L 322.424418 111.605365 
L 322.914093 108.181531 
L 323.077318 108.331107 
L 323.240543 109.062564 
L 323.403768 110.464669 
L 323.566993 110.340255 
L 323.730218 109.662618 
L 323.893443 109.491024 
L 324.219893 107.538841 
L 324.546343 105.858202 
L 324.872793 109.405402 
L 325.036018 109.245691 
L 325.199243 108.713785 
L 325.362468 110.640456 
L 325.525693 109.373599 
L 326.341818 113.043466 
L 326.505043 112.041163 
L 326.668268 112.181304 
L 326.994718 112.9872 
L 327.157943 112.928837 
L 327.321168 113.307671 
L 327.647618 112.02334 
L 327.810843 111.766474 
L 328.300518 114.034235 
L 328.463743 113.310816 
L 328.626968 113.860545 
L 328.790193 112.62584 
L 328.953418 113.727743 
L 329.116643 113.825597 
L 329.279868 112.255743 
L 329.443093 112.199127 
L 329.606318 112.427686 
L 329.769543 114.989358 
L 329.932768 115.407683 
L 330.095993 115.151516 
L 330.259218 114.620659 
L 330.422443 114.846422 
L 330.585668 115.817621 
L 330.748893 115.01522 
L 330.912118 115.287113 
L 331.075343 114.842577 
L 331.238568 113.419504 
L 331.401794 113.389449 
L 331.565019 111.860833 
L 331.728244 112.064928 
L 331.891469 111.316347 
L 332.054694 111.993634 
L 332.217919 113.728792 
L 332.381144 111.764377 
L 332.544369 111.565874 
L 333.034044 113.057794 
L 333.197269 112.981608 
L 333.360494 111.175507 
L 333.686944 112.427336 
L 333.850169 111.659534 
L 334.013394 111.671066 
L 334.176619 110.96582 
L 334.339844 112.053046 
L 334.503069 111.221988 
L 334.829519 112.594037 
L 334.992744 112.215902 
L 335.155969 112.27112 
L 335.319194 112.972172 
L 335.482419 112.889696 
L 335.645644 113.064085 
L 335.808869 113.617658 
L 335.972094 112.604172 
L 336.135319 112.789745 
L 336.298544 111.387291 
L 336.624994 113.256647 
L 336.788219 111.744107 
L 336.951444 111.924787 
L 337.114669 112.487796 
L 337.277894 112.358839 
L 337.441119 113.275519 
L 337.604344 111.980354 
L 337.767569 112.121893 
L 338.094019 110.781296 
L 338.257244 111.906964 
L 338.420469 111.395678 
L 338.583694 109.940802 
L 339.073369 111.714402 
L 339.236594 110.421334 
L 339.399819 110.858531 
L 339.563044 111.746554 
L 339.889494 110.115191 
L 340.052719 109.866713 
L 340.215944 110.419936 
L 340.379169 109.748589 
L 340.705619 111.368419 
L 340.868844 111.276506 
L 341.032069 111.422588 
L 341.195294 110.673657 
L 341.358519 111.008107 
L 341.521744 111.05319 
L 341.684969 111.570417 
L 341.848194 111.105611 
L 342.011419 111.359682 
L 342.174644 109.764316 
L 342.337869 110.114842 
L 342.501094 109.942899 
L 342.664319 111.257634 
L 342.990769 110.424479 
L 343.317219 112.259238 
L 343.806894 109.296365 
L 344.133344 110.521634 
L 344.296569 110.748795 
L 344.459794 108.42267 
L 344.623019 107.771244 
L 344.786244 106.430297 
L 344.949469 107.211031 
L 345.112694 107.266947 
L 345.275919 108.619077 
L 345.602369 106.210126 
L 345.765594 107.526609 
L 345.928819 107.574138 
L 346.092044 106.987715 
L 346.255269 105.422403 
L 346.418494 106.054609 
L 346.744944 108.680585 
L 346.908169 108.289519 
L 347.071394 109.603556 
L 347.234619 107.654169 
L 347.56107 108.885379 
L 347.88752 111.648001 
L 348.54042 110.238208 
L 348.703645 108.405895 
L 348.86687 108.908444 
L 349.19332 107.668148 
L 349.356545 106.918168 
L 349.51977 105.147714 
L 349.84622 107.030351 
L 350.009445 106.931449 
L 350.17267 104.54137 
L 350.335895 105.952561 
L 350.49912 105.510821 
L 350.662345 105.551361 
L 350.988795 106.476778 
L 351.15202 105.097739 
L 351.315245 105.907828 
L 351.47847 107.534647 
L 351.641695 107.383673 
L 351.80492 107.99491 
L 351.968145 107.396953 
L 352.13137 108.638298 
L 352.294595 107.854769 
L 352.45782 109.157622 
L 352.621045 108.281481 
L 352.78427 108.067601 
L 352.947495 105.496493 
L 353.11072 104.828291 
L 353.273945 105.569883 
L 353.43717 105.119756 
L 353.600395 105.577222 
L 353.76362 105.001632 
L 353.926845 104.952006 
L 354.253295 106.912926 
L 354.41652 106.802841 
L 354.74297 104.990798 
L 355.06942 107.610134 
L 355.232645 106.886366 
L 355.39587 105.303232 
L 355.559095 105.647118 
L 355.72232 107.373887 
L 356.04877 106.196497 
L 356.211995 106.700094 
L 356.70167 110.630671 
L 356.864895 110.224228 
L 357.191345 107.812133 
L 357.35457 107.614678 
L 357.844245 102.971166 
L 358.00747 103.004367 
L 358.170695 105.436732 
L 358.33392 104.05979 
L 358.66037 105.841427 
L 358.823595 104.691296 
L 358.98682 104.43408 
L 359.150045 102.451842 
L 359.476495 103.425487 
L 359.63972 103.354543 
L 359.96617 104.968082 
L 360.29262 108.497808 
L 360.455845 107.668847 
L 360.782295 107.88063 
L 360.94552 108.679886 
L 361.27197 111.670368 
L 361.435195 111.654991 
L 361.59842 112.387146 
L 361.761645 110.88544 
L 362.25132 114.083512 
L 362.414545 113.460742 
L 362.57777 114.467937 
L 362.740995 114.612971 
L 362.90422 115.531049 
L 363.067445 115.534893 
L 363.230671 114.616116 
L 363.557121 114.988659 
L 363.720346 118.718286 
L 363.883571 118.602609 
L 364.210021 115.961256 
L 364.373246 117.060014 
L 364.536471 116.840892 
L 364.699696 117.093913 
L 364.862921 117.139695 
L 365.189371 115.827406 
L 365.352596 116.553621 
L 365.515821 116.720322 
L 365.679046 116.197503 
L 365.842271 116.285222 
L 366.005496 118.497766 
L 366.168721 116.394259 
L 366.495171 116.529507 
L 366.658396 118.711297 
L 366.821621 118.701511 
L 367.148071 120.955643 
L 367.311296 119.564023 
L 367.637746 121.114655 
L 367.964196 118.888132 
L 368.127421 120.463928 
L 368.617096 117.141792 
L 368.780321 118.251733 
L 368.943546 116.377484 
L 369.269996 117.505948 
L 369.433221 119.508805 
L 369.759671 120.517048 
L 369.922896 121.362086 
L 370.086121 120.833675 
L 370.249346 120.702971 
L 370.412571 120.85045 
L 370.575796 121.522846 
L 370.739021 121.398082 
L 370.902246 120.855692 
L 371.065471 122.448962 
L 371.391921 121.561638 
L 371.555146 120.735123 
L 371.718371 120.72988 
L 371.881596 120.917201 
L 372.044821 119.716045 
L 372.208046 120.46253 
L 372.371271 121.750006 
L 372.534496 120.802921 
L 372.697721 121.020646 
L 372.860946 120.405216 
L 373.187396 117.182681 
L 373.350621 116.94888 
L 374.003521 121.124091 
L 374.329971 124.455314 
L 374.493196 124.583223 
L 374.656421 122.69779 
L 374.819646 123.291553 
L 374.982871 122.446865 
L 375.146096 122.353205 
L 375.798996 125.848682 
L 375.962221 126.203402 
L 376.125446 125.312583 
L 376.451896 125.411485 
L 376.778346 124.086615 
L 376.941571 124.013923 
L 377.104796 123.682618 
L 377.268021 124.599299 
L 377.431246 124.806888 
L 377.594471 122.904681 
L 377.757696 122.799488 
L 377.920921 122.961296 
L 378.084146 120.922443 
L 378.247371 122.810671 
L 378.410596 122.727845 
L 378.737046 121.841569 
L 378.900271 123.476426 
L 379.063497 121.964236 
L 379.226722 122.803682 
L 379.389947 122.91866 
L 379.553172 121.60008 
L 379.716397 122.842474 
L 380.042847 121.840171 
L 380.206072 119.564023 
L 380.369297 120.195529 
L 380.532522 120.07426 
L 380.695747 120.758887 
L 380.858972 119.098868 
L 381.185422 122.157847 
L 381.675097 124.781377 
L 381.838322 125.09381 
L 382.001547 126.59272 
L 382.164772 126.469704 
L 382.327997 127.246942 
L 382.491222 124.935147 
L 382.654447 124.705889 
L 382.980897 122.439176 
L 383.144122 121.039518 
L 383.307347 121.564084 
L 383.470572 121.276813 
L 383.797022 122.332935 
L 383.960247 122.669133 
L 384.286697 120.252144 
L 384.449922 121.517254 
L 384.613147 120.150097 
L 384.776372 120.673615 
L 384.939597 120.004365 
L 385.102822 118.487281 
L 385.266047 118.569409 
L 385.592497 117.766309 
L 385.755722 119.030719 
L 385.918947 118.504056 
L 386.245397 115.367493 
L 386.735072 117.450031 
L 386.898297 116.566202 
L 387.061522 113.402379 
L 387.224747 114.239379 
L 387.387972 114.284811 
L 387.551197 115.163049 
L 387.714422 116.909739 
L 387.877647 116.003193 
L 388.204097 118.464915 
L 388.530547 122.46364 
L 388.856997 123.101437 
L 389.020222 122.481813 
L 389.183447 121.205869 
L 389.346672 121.600779 
L 389.509897 122.643621 
L 389.673122 122.837581 
L 389.836347 124.935147 
L 389.999572 124.824712 
L 390.162797 125.110934 
L 390.815697 118.780144 
L 390.978922 119.107255 
L 391.142147 118.854583 
L 391.305372 120.123187 
L 392.284722 116.188766 
L 392.447947 118.431015 
L 392.611172 117.566757 
L 392.774397 115.009628 
L 392.937622 115.083018 
L 393.100847 115.531748 
L 393.264072 114.721658 
L 393.590522 117.409841 
L 393.753747 116.908341 
L 393.916972 118.943699 
L 394.080197 119.341405 
L 394.243422 118.219931 
L 394.406647 118.838856 
L 394.569872 120.346154 
L 394.733097 120.066572 
L 394.896323 118.412144 
L 395.059548 118.687882 
L 395.222773 118.39467 
L 395.385998 118.759175 
L 395.549223 120.164775 
L 395.712448 119.893231 
L 396.038898 118.222727 
L 396.365348 118.368109 
L 396.528573 118.140599 
L 396.691798 120.005413 
L 397.018248 116.629807 
L 397.181473 116.16605 
L 397.344698 116.774491 
L 397.507923 118.283885 
L 397.671148 118.226222 
L 397.834373 118.340151 
L 398.160823 119.875058 
L 398.324048 120.098724 
L 398.487273 118.085382 
L 398.487273 118.085382 
" clip-path="url(#pd0c078fb34)" style="fill: none; stroke: #1f77b4; stroke-width: 1.5; stroke-linecap: square"/>
   </g>
   <g id="patch_3">
    <path d="M 57.6 307.584 
L 57.6 41.472 
" style="fill: none; stroke: #000000; stroke-width: 0.8; stroke-linejoin: miter; stroke-linecap: square"/>
   </g>
   <g id="patch_4">
    <path d="M 414.72 307.584 
L 414.72 41.472 
" style="fill: none; stroke: #000000; stroke-width: 0.8; stroke-linejoin: miter; stroke-linecap: square"/>
   </g>
   <g id="patch_5">
    <path d="M 57.6 307.584 
L 414.72 307.584 
" style="fill: none; stroke: #000000; stroke-width: 0.8; stroke-linejoin: miter; stroke-linecap: square"/>
   </g>
   <g id="patch_6">
    <path d="M 57.6 41.472 
L 414.72 41.472 
" style="fill: none; stroke: #000000; stroke-width: 0.8; stroke-linejoin: miter; stroke-linecap: square"/>
   </g>
   <g id="text_20">
    <!-- Rolling average training progress of state/in_circulation -->
    <g transform="translate(70.03125 35.472)scale(0.12 -0.12)">
     <defs>
      <path id="DejaVuSans-52" d="M 2841 2188 
Q 3044 2119 3236 1894 
Q 3428 1669 3622 1275 
L 4263 0 
L 3584 0 
L 2988 1197 
Q 2756 1666 2539 1819 
Q 2322 1972 1947 1972 
L 1259 1972 
L 1259 0 
L 628 0 
L 628 4666 
L 2053 4666 
Q 2853 4666 3247 4331 
Q 3641 3997 3641 3322 
Q 3641 2881 3436 2590 
Q 3231 2300 2841 2188 
z
M 1259 4147 
L 1259 2491 
L 2053 2491 
Q 2509 2491 2742 2702 
Q 2975 2913 2975 3322 
Q 2975 3731 2742 3939 
Q 2509 4147 2053 4147 
L 1259 4147 
z
" transform="scale(0.015625)"/>
      <path id="DejaVuSans-67" d="M 2906 1791 
Q 2906 2416 2648 2759 
Q 2391 3103 1925 3103 
Q 1463 3103 1205 2759 
Q 947 2416 947 1791 
Q 947 1169 1205 825 
Q 1463 481 1925 481 
Q 2391 481 2648 825 
Q 2906 1169 2906 1791 
z
M 3481 434 
Q 3481 -459 3084 -895 
Q 2688 -1331 1869 -1331 
Q 1566 -1331 1297 -1286 
Q 1028 -1241 775 -1147 
L 775 -588 
Q 1028 -725 1275 -790 
Q 1522 -856 1778 -856 
Q 2344 -856 2625 -561 
Q 2906 -266 2906 331 
L 2906 616 
Q 2728 306 2450 153 
Q 2172 0 1784 0 
Q 1141 0 747 490 
Q 353 981 353 1791 
Q 353 2603 747 3093 
Q 1141 3584 1784 3584 
Q 2172 3584 2450 3431 
Q 2728 3278 2906 2969 
L 2906 3500 
L 3481 3500 
L 3481 434 
z
" transform="scale(0.015625)"/>
      <path id="DejaVuSans-20" transform="scale(0.015625)"/>
      <path id="DejaVuSans-76" d="M 191 3500 
L 800 3500 
L 1894 563 
L 2988 3500 
L 3597 3500 
L 2284 0 
L 1503 0 
L 191 3500 
z
" transform="scale(0.015625)"/>
      <path id="DejaVuSans-66" d="M 2375 4863 
L 2375 4384 
L 1825 4384 
Q 1516 4384 1395 4259 
Q 1275 4134 1275 3809 
L 1275 3500 
L 2222 3500 
L 2222 3053 
L 1275 3053 
L 1275 0 
L 697 0 
L 697 3053 
L 147 3053 
L 147 3500 
L 697 3500 
L 697 3744 
Q 697 4328 969 4595 
Q 1241 4863 1831 4863 
L 2375 4863 
z
" transform="scale(0.015625)"/>
     </defs>
     <use xlink:href="#DejaVuSans-52"/>
     <use xlink:href="#DejaVuSans-6f" x="64.982422"/>
     <use xlink:href="#DejaVuSans-6c" x="126.164062"/>
     <use xlink:href="#DejaVuSans-6c" x="153.947266"/>
     <use xlink:href="#DejaVuSans-69" x="181.730469"/>
     <use xlink:href="#DejaVuSans-6e" x="209.513672"/>
     <use xlink:href="#DejaVuSans-67" x="272.892578"/>
     <use xlink:href="#DejaVuSans-20" x="336.369141"/>
     <use xlink:href="#DejaVuSans-61" x="368.15625"/>
     <use xlink:href="#DejaVuSans-76" x="429.435547"/>
     <use xlink:href="#DejaVuSans-65" x="488.615234"/>
     <use xlink:href="#DejaVuSans-72" x="550.138672"/>
     <use xlink:href="#DejaVuSans-61" x="591.251953"/>
     <use xlink:href="#DejaVuSans-67" x="652.53125"/>
     <use xlink:href="#DejaVuSans-65" x="716.007812"/>
     <use xlink:href="#DejaVuSans-20" x="777.53125"/>
     <use xlink:href="#DejaVuSans-74" x="809.318359"/>
     <use xlink:href="#DejaVuSans-72" x="848.527344"/>
     <use xlink:href="#DejaVuSans-61" x="889.640625"/>
     <use xlink:href="#DejaVuSans-69" x="950.919922"/>
     <use xlink:href="#DejaVuSans-6e" x="978.703125"/>
     <use xlink:href="#DejaVuSans-69" x="1042.082031"/>
     <use xlink:href="#DejaVuSans-6e" x="1069.865234"/>
     <use xlink:href="#DejaVuSans-67" x="1133.244141"/>
     <use xlink:href="#DejaVuSans-20" x="1196.720703"/>
     <use xlink:href="#DejaVuSans-70" x="1228.507812"/>
     <use xlink:href="#DejaVuSans-72" x="1291.984375"/>
     <use xlink:href="#DejaVuSans-6f" x="1330.847656"/>
     <use xlink:href="#DejaVuSans-67" x="1392.029297"/>
     <use xlink:href="#DejaVuSans-72" x="1455.505859"/>
     <use xlink:href="#DejaVuSans-65" x="1494.369141"/>
     <use xlink:href="#DejaVuSans-73" x="1555.892578"/>
     <use xlink:href="#DejaVuSans-73" x="1607.992188"/>
     <use xlink:href="#DejaVuSans-20" x="1660.091797"/>
     <use xlink:href="#DejaVuSans-6f" x="1691.878906"/>
     <use xlink:href="#DejaVuSans-66" x="1753.060547"/>
     <use xlink:href="#DejaVuSans-20" x="1788.265625"/>
     <use xlink:href="#DejaVuSans-73" x="1820.052734"/>
     <use xlink:href="#DejaVuSans-74" x="1872.152344"/>
     <use xlink:href="#DejaVuSans-61" x="1911.361328"/>
     <use xlink:href="#DejaVuSans-74" x="1972.640625"/>
     <use xlink:href="#DejaVuSans-65" x="2011.849609"/>
     <use xlink:href="#DejaVuSans-2f" x="2073.373047"/>
     <use xlink:href="#DejaVuSans-69" x="2107.064453"/>
     <use xlink:href="#DejaVuSans-6e" x="2134.847656"/>
     <use xlink:href="#DejaVuSans-5f" x="2198.226562"/>
     <use xlink:href="#DejaVuSans-63" x="2248.226562"/>
     <use xlink:href="#DejaVuSans-69" x="2303.207031"/>
     <use xlink:href="#DejaVuSans-72" x="2330.990234"/>
     <use xlink:href="#DejaVuSans-63" x="2369.853516"/>
     <use xlink:href="#DejaVuSans-75" x="2424.833984"/>
     <use xlink:href="#DejaVuSans-6c" x="2488.212891"/>
     <use xlink:href="#DejaVuSans-61" x="2515.996094"/>
     <use xlink:href="#DejaVuSans-74" x="2577.275391"/>
     <use xlink:href="#DejaVuSans-69" x="2616.484375"/>
     <use xlink:href="#DejaVuSans-6f" x="2644.267578"/>
     <use xlink:href="#DejaVuSans-6e" x="2705.449219"/>
    </g>
   </g>
  </g>
 </g>
 <defs>
  <clipPath id="pd0c078fb34">
   <rect x="57.6" y="41.472" width="357.12" height="266.112"/>
  </clipPath>
 </defs>
</svg>
