<?xml version="1.0" encoding="utf-8" standalone="no"?>
<!DOCTYPE svg PUBLIC "-//W3C//DTD SVG 1.1//EN"
  "http://www.w3.org/Graphics/SVG/1.1/DTD/svg11.dtd">
<svg xmlns:xlink="http://www.w3.org/1999/xlink" width="460.8pt" height="345.6pt" viewBox="0 0 460.8 345.6" xmlns="http://www.w3.org/2000/svg" version="1.1">
 <metadata>
  <rdf:RDF xmlns:dc="http://purl.org/dc/elements/1.1/" xmlns:cc="http://creativecommons.org/ns#" xmlns:rdf="http://www.w3.org/1999/02/22-rdf-syntax-ns#">
   <cc:Work>
    <dc:type rdf:resource="http://purl.org/dc/dcmitype/StillImage"/>
    <dc:date>2022-06-21T09:12:09.306774</dc:date>
    <dc:format>image/svg+xml</dc:format>
    <dc:creator>
     <cc:Agent>
      <dc:title>Matplotlib v3.5.2, https://matplotlib.org/</dc:title>
     </cc:Agent>
    </dc:creator>
   </cc:Work>
  </rdf:RDF>
 </metadata>
 <defs>
  <style type="text/css">*{stroke-linejoin: round; stroke-linecap: butt}</style>
 </defs>
 <g id="figure_1">
  <g id="patch_1">
   <path d="M 0 345.6 
L 460.8 345.6 
L 460.8 0 
L 0 0 
L 0 345.6 
z
" style="fill: none"/>
  </g>
  <g id="axes_1">
   <g id="patch_2">
    <path d="M 57.6 307.584 
L 414.72 307.584 
L 414.72 41.472 
L 57.6 41.472 
L 57.6 307.584 
z
" style="fill: none"/>
   </g>
   <g id="matplotlib.axis_1">
    <g id="xtick_1">
     <g id="line2d_1">
      <path d="M 72.200477 307.584 
L 72.200477 41.472 
" clip-path="url(#pc107013c0a)" style="fill: none; stroke-dasharray: 2.96,1.28; stroke-dashoffset: 0; stroke: #b0b0b0; stroke-width: 0.8"/>
     </g>
     <g id="line2d_2">
      <defs>
       <path id="ma9af5d9b9a" d="M 0 0 
L 0 3.5 
" style="stroke: #000000; stroke-width: 0.8"/>
      </defs>
      <g>
       <use xlink:href="#ma9af5d9b9a" x="72.200477" y="307.584" style="stroke: #000000; stroke-width: 0.8"/>
      </g>
     </g>
     <g id="text_1">
      <!-- 0 -->
      <g transform="translate(69.019227 322.182437)scale(0.1 -0.1)">
       <defs>
        <path id="DejaVuSans-30" d="M 2034 4250 
Q 1547 4250 1301 3770 
Q 1056 3291 1056 2328 
Q 1056 1369 1301 889 
Q 1547 409 2034 409 
Q 2525 409 2770 889 
Q 3016 1369 3016 2328 
Q 3016 3291 2770 3770 
Q 2525 4250 2034 4250 
z
M 2034 4750 
Q 2819 4750 3233 4129 
Q 3647 3509 3647 2328 
Q 3647 1150 3233 529 
Q 2819 -91 2034 -91 
Q 1250 -91 836 529 
Q 422 1150 422 2328 
Q 422 3509 836 4129 
Q 1250 4750 2034 4750 
z
" transform="scale(0.015625)"/>
       </defs>
       <use xlink:href="#DejaVuSans-30"/>
      </g>
     </g>
    </g>
    <g id="xtick_2">
     <g id="line2d_3">
      <path d="M 113.00673 307.584 
L 113.00673 41.472 
" clip-path="url(#pc107013c0a)" style="fill: none; stroke-dasharray: 2.96,1.28; stroke-dashoffset: 0; stroke: #b0b0b0; stroke-width: 0.8"/>
     </g>
     <g id="line2d_4">
      <g>
       <use xlink:href="#ma9af5d9b9a" x="113.00673" y="307.584" style="stroke: #000000; stroke-width: 0.8"/>
      </g>
     </g>
     <g id="text_2">
      <!-- 250 -->
      <g transform="translate(103.46298 322.182437)scale(0.1 -0.1)">
       <defs>
        <path id="DejaVuSans-32" d="M 1228 531 
L 3431 531 
L 3431 0 
L 469 0 
L 469 531 
Q 828 903 1448 1529 
Q 2069 2156 2228 2338 
Q 2531 2678 2651 2914 
Q 2772 3150 2772 3378 
Q 2772 3750 2511 3984 
Q 2250 4219 1831 4219 
Q 1534 4219 1204 4116 
Q 875 4013 500 3803 
L 500 4441 
Q 881 4594 1212 4672 
Q 1544 4750 1819 4750 
Q 2544 4750 2975 4387 
Q 3406 4025 3406 3419 
Q 3406 3131 3298 2873 
Q 3191 2616 2906 2266 
Q 2828 2175 2409 1742 
Q 1991 1309 1228 531 
z
" transform="scale(0.015625)"/>
        <path id="DejaVuSans-35" d="M 691 4666 
L 3169 4666 
L 3169 4134 
L 1269 4134 
L 1269 2991 
Q 1406 3038 1543 3061 
Q 1681 3084 1819 3084 
Q 2600 3084 3056 2656 
Q 3513 2228 3513 1497 
Q 3513 744 3044 326 
Q 2575 -91 1722 -91 
Q 1428 -91 1123 -41 
Q 819 9 494 109 
L 494 744 
Q 775 591 1075 516 
Q 1375 441 1709 441 
Q 2250 441 2565 725 
Q 2881 1009 2881 1497 
Q 2881 1984 2565 2268 
Q 2250 2553 1709 2553 
Q 1456 2553 1204 2497 
Q 953 2441 691 2322 
L 691 4666 
z
" transform="scale(0.015625)"/>
       </defs>
       <use xlink:href="#DejaVuSans-32"/>
       <use xlink:href="#DejaVuSans-35" x="63.623047"/>
       <use xlink:href="#DejaVuSans-30" x="127.246094"/>
      </g>
     </g>
    </g>
    <g id="xtick_3">
     <g id="line2d_5">
      <path d="M 153.812982 307.584 
L 153.812982 41.472 
" clip-path="url(#pc107013c0a)" style="fill: none; stroke-dasharray: 2.96,1.28; stroke-dashoffset: 0; stroke: #b0b0b0; stroke-width: 0.8"/>
     </g>
     <g id="line2d_6">
      <g>
       <use xlink:href="#ma9af5d9b9a" x="153.812982" y="307.584" style="stroke: #000000; stroke-width: 0.8"/>
      </g>
     </g>
     <g id="text_3">
      <!-- 500 -->
      <g transform="translate(144.269232 322.182437)scale(0.1 -0.1)">
       <use xlink:href="#DejaVuSans-35"/>
       <use xlink:href="#DejaVuSans-30" x="63.623047"/>
       <use xlink:href="#DejaVuSans-30" x="127.246094"/>
      </g>
     </g>
    </g>
    <g id="xtick_4">
     <g id="line2d_7">
      <path d="M 194.619235 307.584 
L 194.619235 41.472 
" clip-path="url(#pc107013c0a)" style="fill: none; stroke-dasharray: 2.96,1.28; stroke-dashoffset: 0; stroke: #b0b0b0; stroke-width: 0.8"/>
     </g>
     <g id="line2d_8">
      <g>
       <use xlink:href="#ma9af5d9b9a" x="194.619235" y="307.584" style="stroke: #000000; stroke-width: 0.8"/>
      </g>
     </g>
     <g id="text_4">
      <!-- 750 -->
      <g transform="translate(185.075485 322.182437)scale(0.1 -0.1)">
       <defs>
        <path id="DejaVuSans-37" d="M 525 4666 
L 3525 4666 
L 3525 4397 
L 1831 0 
L 1172 0 
L 2766 4134 
L 525 4134 
L 525 4666 
z
" transform="scale(0.015625)"/>
       </defs>
       <use xlink:href="#DejaVuSans-37"/>
       <use xlink:href="#DejaVuSans-35" x="63.623047"/>
       <use xlink:href="#DejaVuSans-30" x="127.246094"/>
      </g>
     </g>
    </g>
    <g id="xtick_5">
     <g id="line2d_9">
      <path d="M 235.425487 307.584 
L 235.425487 41.472 
" clip-path="url(#pc107013c0a)" style="fill: none; stroke-dasharray: 2.96,1.28; stroke-dashoffset: 0; stroke: #b0b0b0; stroke-width: 0.8"/>
     </g>
     <g id="line2d_10">
      <g>
       <use xlink:href="#ma9af5d9b9a" x="235.425487" y="307.584" style="stroke: #000000; stroke-width: 0.8"/>
      </g>
     </g>
     <g id="text_5">
      <!-- 1000 -->
      <g transform="translate(222.700487 322.182437)scale(0.1 -0.1)">
       <defs>
        <path id="DejaVuSans-31" d="M 794 531 
L 1825 531 
L 1825 4091 
L 703 3866 
L 703 4441 
L 1819 4666 
L 2450 4666 
L 2450 531 
L 3481 531 
L 3481 0 
L 794 0 
L 794 531 
z
" transform="scale(0.015625)"/>
       </defs>
       <use xlink:href="#DejaVuSans-31"/>
       <use xlink:href="#DejaVuSans-30" x="63.623047"/>
       <use xlink:href="#DejaVuSans-30" x="127.246094"/>
       <use xlink:href="#DejaVuSans-30" x="190.869141"/>
      </g>
     </g>
    </g>
    <g id="xtick_6">
     <g id="line2d_11">
      <path d="M 276.23174 307.584 
L 276.23174 41.472 
" clip-path="url(#pc107013c0a)" style="fill: none; stroke-dasharray: 2.96,1.28; stroke-dashoffset: 0; stroke: #b0b0b0; stroke-width: 0.8"/>
     </g>
     <g id="line2d_12">
      <g>
       <use xlink:href="#ma9af5d9b9a" x="276.23174" y="307.584" style="stroke: #000000; stroke-width: 0.8"/>
      </g>
     </g>
     <g id="text_6">
      <!-- 1250 -->
      <g transform="translate(263.50674 322.182437)scale(0.1 -0.1)">
       <use xlink:href="#DejaVuSans-31"/>
       <use xlink:href="#DejaVuSans-32" x="63.623047"/>
       <use xlink:href="#DejaVuSans-35" x="127.246094"/>
       <use xlink:href="#DejaVuSans-30" x="190.869141"/>
      </g>
     </g>
    </g>
    <g id="xtick_7">
     <g id="line2d_13">
      <path d="M 317.037993 307.584 
L 317.037993 41.472 
" clip-path="url(#pc107013c0a)" style="fill: none; stroke-dasharray: 2.96,1.28; stroke-dashoffset: 0; stroke: #b0b0b0; stroke-width: 0.8"/>
     </g>
     <g id="line2d_14">
      <g>
       <use xlink:href="#ma9af5d9b9a" x="317.037993" y="307.584" style="stroke: #000000; stroke-width: 0.8"/>
      </g>
     </g>
     <g id="text_7">
      <!-- 1500 -->
      <g transform="translate(304.312993 322.182437)scale(0.1 -0.1)">
       <use xlink:href="#DejaVuSans-31"/>
       <use xlink:href="#DejaVuSans-35" x="63.623047"/>
       <use xlink:href="#DejaVuSans-30" x="127.246094"/>
       <use xlink:href="#DejaVuSans-30" x="190.869141"/>
      </g>
     </g>
    </g>
    <g id="xtick_8">
     <g id="line2d_15">
      <path d="M 357.844245 307.584 
L 357.844245 41.472 
" clip-path="url(#pc107013c0a)" style="fill: none; stroke-dasharray: 2.96,1.28; stroke-dashoffset: 0; stroke: #b0b0b0; stroke-width: 0.8"/>
     </g>
     <g id="line2d_16">
      <g>
       <use xlink:href="#ma9af5d9b9a" x="357.844245" y="307.584" style="stroke: #000000; stroke-width: 0.8"/>
      </g>
     </g>
     <g id="text_8">
      <!-- 1750 -->
      <g transform="translate(345.119245 322.182437)scale(0.1 -0.1)">
       <use xlink:href="#DejaVuSans-31"/>
       <use xlink:href="#DejaVuSans-37" x="63.623047"/>
       <use xlink:href="#DejaVuSans-35" x="127.246094"/>
       <use xlink:href="#DejaVuSans-30" x="190.869141"/>
      </g>
     </g>
    </g>
    <g id="xtick_9">
     <g id="line2d_17">
      <path d="M 398.650498 307.584 
L 398.650498 41.472 
" clip-path="url(#pc107013c0a)" style="fill: none; stroke-dasharray: 2.96,1.28; stroke-dashoffset: 0; stroke: #b0b0b0; stroke-width: 0.8"/>
     </g>
     <g id="line2d_18">
      <g>
       <use xlink:href="#ma9af5d9b9a" x="398.650498" y="307.584" style="stroke: #000000; stroke-width: 0.8"/>
      </g>
     </g>
     <g id="text_9">
      <!-- 2000 -->
      <g transform="translate(385.925498 322.182437)scale(0.1 -0.1)">
       <use xlink:href="#DejaVuSans-32"/>
       <use xlink:href="#DejaVuSans-30" x="63.623047"/>
       <use xlink:href="#DejaVuSans-30" x="127.246094"/>
       <use xlink:href="#DejaVuSans-30" x="190.869141"/>
      </g>
     </g>
    </g>
    <g id="text_10">
     <!-- Episode -->
     <g transform="translate(216.5225 335.860562)scale(0.1 -0.1)">
      <defs>
       <path id="DejaVuSans-45" d="M 628 4666 
L 3578 4666 
L 3578 4134 
L 1259 4134 
L 1259 2753 
L 3481 2753 
L 3481 2222 
L 1259 2222 
L 1259 531 
L 3634 531 
L 3634 0 
L 628 0 
L 628 4666 
z
" transform="scale(0.015625)"/>
       <path id="DejaVuSans-70" d="M 1159 525 
L 1159 -1331 
L 581 -1331 
L 581 3500 
L 1159 3500 
L 1159 2969 
Q 1341 3281 1617 3432 
Q 1894 3584 2278 3584 
Q 2916 3584 3314 3078 
Q 3713 2572 3713 1747 
Q 3713 922 3314 415 
Q 2916 -91 2278 -91 
Q 1894 -91 1617 61 
Q 1341 213 1159 525 
z
M 3116 1747 
Q 3116 2381 2855 2742 
Q 2594 3103 2138 3103 
Q 1681 3103 1420 2742 
Q 1159 2381 1159 1747 
Q 1159 1113 1420 752 
Q 1681 391 2138 391 
Q 2594 391 2855 752 
Q 3116 1113 3116 1747 
z
" transform="scale(0.015625)"/>
       <path id="DejaVuSans-69" d="M 603 3500 
L 1178 3500 
L 1178 0 
L 603 0 
L 603 3500 
z
M 603 4863 
L 1178 4863 
L 1178 4134 
L 603 4134 
L 603 4863 
z
" transform="scale(0.015625)"/>
       <path id="DejaVuSans-73" d="M 2834 3397 
L 2834 2853 
Q 2591 2978 2328 3040 
Q 2066 3103 1784 3103 
Q 1356 3103 1142 2972 
Q 928 2841 928 2578 
Q 928 2378 1081 2264 
Q 1234 2150 1697 2047 
L 1894 2003 
Q 2506 1872 2764 1633 
Q 3022 1394 3022 966 
Q 3022 478 2636 193 
Q 2250 -91 1575 -91 
Q 1294 -91 989 -36 
Q 684 19 347 128 
L 347 722 
Q 666 556 975 473 
Q 1284 391 1588 391 
Q 1994 391 2212 530 
Q 2431 669 2431 922 
Q 2431 1156 2273 1281 
Q 2116 1406 1581 1522 
L 1381 1569 
Q 847 1681 609 1914 
Q 372 2147 372 2553 
Q 372 3047 722 3315 
Q 1072 3584 1716 3584 
Q 2034 3584 2315 3537 
Q 2597 3491 2834 3397 
z
" transform="scale(0.015625)"/>
       <path id="DejaVuSans-6f" d="M 1959 3097 
Q 1497 3097 1228 2736 
Q 959 2375 959 1747 
Q 959 1119 1226 758 
Q 1494 397 1959 397 
Q 2419 397 2687 759 
Q 2956 1122 2956 1747 
Q 2956 2369 2687 2733 
Q 2419 3097 1959 3097 
z
M 1959 3584 
Q 2709 3584 3137 3096 
Q 3566 2609 3566 1747 
Q 3566 888 3137 398 
Q 2709 -91 1959 -91 
Q 1206 -91 779 398 
Q 353 888 353 1747 
Q 353 2609 779 3096 
Q 1206 3584 1959 3584 
z
" transform="scale(0.015625)"/>
       <path id="DejaVuSans-64" d="M 2906 2969 
L 2906 4863 
L 3481 4863 
L 3481 0 
L 2906 0 
L 2906 525 
Q 2725 213 2448 61 
Q 2172 -91 1784 -91 
Q 1150 -91 751 415 
Q 353 922 353 1747 
Q 353 2572 751 3078 
Q 1150 3584 1784 3584 
Q 2172 3584 2448 3432 
Q 2725 3281 2906 2969 
z
M 947 1747 
Q 947 1113 1208 752 
Q 1469 391 1925 391 
Q 2381 391 2643 752 
Q 2906 1113 2906 1747 
Q 2906 2381 2643 2742 
Q 2381 3103 1925 3103 
Q 1469 3103 1208 2742 
Q 947 2381 947 1747 
z
" transform="scale(0.015625)"/>
       <path id="DejaVuSans-65" d="M 3597 1894 
L 3597 1613 
L 953 1613 
Q 991 1019 1311 708 
Q 1631 397 2203 397 
Q 2534 397 2845 478 
Q 3156 559 3463 722 
L 3463 178 
Q 3153 47 2828 -22 
Q 2503 -91 2169 -91 
Q 1331 -91 842 396 
Q 353 884 353 1716 
Q 353 2575 817 3079 
Q 1281 3584 2069 3584 
Q 2775 3584 3186 3129 
Q 3597 2675 3597 1894 
z
M 3022 2063 
Q 3016 2534 2758 2815 
Q 2500 3097 2075 3097 
Q 1594 3097 1305 2825 
Q 1016 2553 972 2059 
L 3022 2063 
z
" transform="scale(0.015625)"/>
      </defs>
      <use xlink:href="#DejaVuSans-45"/>
      <use xlink:href="#DejaVuSans-70" x="63.183594"/>
      <use xlink:href="#DejaVuSans-69" x="126.660156"/>
      <use xlink:href="#DejaVuSans-73" x="154.443359"/>
      <use xlink:href="#DejaVuSans-6f" x="206.542969"/>
      <use xlink:href="#DejaVuSans-64" x="267.724609"/>
      <use xlink:href="#DejaVuSans-65" x="331.201172"/>
     </g>
    </g>
   </g>
   <g id="matplotlib.axis_2">
    <g id="ytick_1">
     <g id="line2d_19">
      <path d="M 57.6 251.834744 
L 414.72 251.834744 
" clip-path="url(#pc107013c0a)" style="fill: none; stroke-dasharray: 2.96,1.28; stroke-dashoffset: 0; stroke: #b0b0b0; stroke-width: 0.8"/>
     </g>
     <g id="line2d_20">
      <defs>
       <path id="m33801c6bb5" d="M 0 0 
L -3.5 0 
" style="stroke: #000000; stroke-width: 0.8"/>
      </defs>
      <g>
       <use xlink:href="#m33801c6bb5" x="57.6" y="251.834744" style="stroke: #000000; stroke-width: 0.8"/>
      </g>
     </g>
     <g id="text_11">
      <!-- 6 -->
      <g transform="translate(44.2375 255.633963)scale(0.1 -0.1)">
       <defs>
        <path id="DejaVuSans-36" d="M 2113 2584 
Q 1688 2584 1439 2293 
Q 1191 2003 1191 1497 
Q 1191 994 1439 701 
Q 1688 409 2113 409 
Q 2538 409 2786 701 
Q 3034 994 3034 1497 
Q 3034 2003 2786 2293 
Q 2538 2584 2113 2584 
z
M 3366 4563 
L 3366 3988 
Q 3128 4100 2886 4159 
Q 2644 4219 2406 4219 
Q 1781 4219 1451 3797 
Q 1122 3375 1075 2522 
Q 1259 2794 1537 2939 
Q 1816 3084 2150 3084 
Q 2853 3084 3261 2657 
Q 3669 2231 3669 1497 
Q 3669 778 3244 343 
Q 2819 -91 2113 -91 
Q 1303 -91 875 529 
Q 447 1150 447 2328 
Q 447 3434 972 4092 
Q 1497 4750 2381 4750 
Q 2619 4750 2861 4703 
Q 3103 4656 3366 4563 
z
" transform="scale(0.015625)"/>
       </defs>
       <use xlink:href="#DejaVuSans-36"/>
      </g>
     </g>
    </g>
    <g id="ytick_2">
     <g id="line2d_21">
      <path d="M 57.6 195.011757 
L 414.72 195.011757 
" clip-path="url(#pc107013c0a)" style="fill: none; stroke-dasharray: 2.96,1.28; stroke-dashoffset: 0; stroke: #b0b0b0; stroke-width: 0.8"/>
     </g>
     <g id="line2d_22">
      <g>
       <use xlink:href="#m33801c6bb5" x="57.6" y="195.011757" style="stroke: #000000; stroke-width: 0.8"/>
      </g>
     </g>
     <g id="text_12">
      <!-- 7 -->
      <g transform="translate(44.2375 198.810976)scale(0.1 -0.1)">
       <use xlink:href="#DejaVuSans-37"/>
      </g>
     </g>
    </g>
    <g id="ytick_3">
     <g id="line2d_23">
      <path d="M 57.6 138.188771 
L 414.72 138.188771 
" clip-path="url(#pc107013c0a)" style="fill: none; stroke-dasharray: 2.96,1.28; stroke-dashoffset: 0; stroke: #b0b0b0; stroke-width: 0.8"/>
     </g>
     <g id="line2d_24">
      <g>
       <use xlink:href="#m33801c6bb5" x="57.6" y="138.188771" style="stroke: #000000; stroke-width: 0.8"/>
      </g>
     </g>
     <g id="text_13">
      <!-- 8 -->
      <g transform="translate(44.2375 141.98799)scale(0.1 -0.1)">
       <defs>
        <path id="DejaVuSans-38" d="M 2034 2216 
Q 1584 2216 1326 1975 
Q 1069 1734 1069 1313 
Q 1069 891 1326 650 
Q 1584 409 2034 409 
Q 2484 409 2743 651 
Q 3003 894 3003 1313 
Q 3003 1734 2745 1975 
Q 2488 2216 2034 2216 
z
M 1403 2484 
Q 997 2584 770 2862 
Q 544 3141 544 3541 
Q 544 4100 942 4425 
Q 1341 4750 2034 4750 
Q 2731 4750 3128 4425 
Q 3525 4100 3525 3541 
Q 3525 3141 3298 2862 
Q 3072 2584 2669 2484 
Q 3125 2378 3379 2068 
Q 3634 1759 3634 1313 
Q 3634 634 3220 271 
Q 2806 -91 2034 -91 
Q 1263 -91 848 271 
Q 434 634 434 1313 
Q 434 1759 690 2068 
Q 947 2378 1403 2484 
z
M 1172 3481 
Q 1172 3119 1398 2916 
Q 1625 2713 2034 2713 
Q 2441 2713 2670 2916 
Q 2900 3119 2900 3481 
Q 2900 3844 2670 4047 
Q 2441 4250 2034 4250 
Q 1625 4250 1398 4047 
Q 1172 3844 1172 3481 
z
" transform="scale(0.015625)"/>
       </defs>
       <use xlink:href="#DejaVuSans-38"/>
      </g>
     </g>
    </g>
    <g id="ytick_4">
     <g id="line2d_25">
      <path d="M 57.6 81.365784 
L 414.72 81.365784 
" clip-path="url(#pc107013c0a)" style="fill: none; stroke-dasharray: 2.96,1.28; stroke-dashoffset: 0; stroke: #b0b0b0; stroke-width: 0.8"/>
     </g>
     <g id="line2d_26">
      <g>
       <use xlink:href="#m33801c6bb5" x="57.6" y="81.365784" style="stroke: #000000; stroke-width: 0.8"/>
      </g>
     </g>
     <g id="text_14">
      <!-- 9 -->
      <g transform="translate(44.2375 85.165003)scale(0.1 -0.1)">
       <defs>
        <path id="DejaVuSans-39" d="M 703 97 
L 703 672 
Q 941 559 1184 500 
Q 1428 441 1663 441 
Q 2288 441 2617 861 
Q 2947 1281 2994 2138 
Q 2813 1869 2534 1725 
Q 2256 1581 1919 1581 
Q 1219 1581 811 2004 
Q 403 2428 403 3163 
Q 403 3881 828 4315 
Q 1253 4750 1959 4750 
Q 2769 4750 3195 4129 
Q 3622 3509 3622 2328 
Q 3622 1225 3098 567 
Q 2575 -91 1691 -91 
Q 1453 -91 1209 -44 
Q 966 3 703 97 
z
M 1959 2075 
Q 2384 2075 2632 2365 
Q 2881 2656 2881 3163 
Q 2881 3666 2632 3958 
Q 2384 4250 1959 4250 
Q 1534 4250 1286 3958 
Q 1038 3666 1038 3163 
Q 1038 2656 1286 2365 
Q 1534 2075 1959 2075 
z
" transform="scale(0.015625)"/>
       </defs>
       <use xlink:href="#DejaVuSans-39"/>
      </g>
     </g>
    </g>
    <g id="text_15">
     <!-- actions/price_new -->
     <g transform="translate(37.879687 219.486594)rotate(-90)scale(0.1 -0.1)">
      <defs>
       <path id="DejaVuSans-61" d="M 2194 1759 
Q 1497 1759 1228 1600 
Q 959 1441 959 1056 
Q 959 750 1161 570 
Q 1363 391 1709 391 
Q 2188 391 2477 730 
Q 2766 1069 2766 1631 
L 2766 1759 
L 2194 1759 
z
M 3341 1997 
L 3341 0 
L 2766 0 
L 2766 531 
Q 2569 213 2275 61 
Q 1981 -91 1556 -91 
Q 1019 -91 701 211 
Q 384 513 384 1019 
Q 384 1609 779 1909 
Q 1175 2209 1959 2209 
L 2766 2209 
L 2766 2266 
Q 2766 2663 2505 2880 
Q 2244 3097 1772 3097 
Q 1472 3097 1187 3025 
Q 903 2953 641 2809 
L 641 3341 
Q 956 3463 1253 3523 
Q 1550 3584 1831 3584 
Q 2591 3584 2966 3190 
Q 3341 2797 3341 1997 
z
" transform="scale(0.015625)"/>
       <path id="DejaVuSans-63" d="M 3122 3366 
L 3122 2828 
Q 2878 2963 2633 3030 
Q 2388 3097 2138 3097 
Q 1578 3097 1268 2742 
Q 959 2388 959 1747 
Q 959 1106 1268 751 
Q 1578 397 2138 397 
Q 2388 397 2633 464 
Q 2878 531 3122 666 
L 3122 134 
Q 2881 22 2623 -34 
Q 2366 -91 2075 -91 
Q 1284 -91 818 406 
Q 353 903 353 1747 
Q 353 2603 823 3093 
Q 1294 3584 2113 3584 
Q 2378 3584 2631 3529 
Q 2884 3475 3122 3366 
z
" transform="scale(0.015625)"/>
       <path id="DejaVuSans-74" d="M 1172 4494 
L 1172 3500 
L 2356 3500 
L 2356 3053 
L 1172 3053 
L 1172 1153 
Q 1172 725 1289 603 
Q 1406 481 1766 481 
L 2356 481 
L 2356 0 
L 1766 0 
Q 1100 0 847 248 
Q 594 497 594 1153 
L 594 3053 
L 172 3053 
L 172 3500 
L 594 3500 
L 594 4494 
L 1172 4494 
z
" transform="scale(0.015625)"/>
       <path id="DejaVuSans-6e" d="M 3513 2113 
L 3513 0 
L 2938 0 
L 2938 2094 
Q 2938 2591 2744 2837 
Q 2550 3084 2163 3084 
Q 1697 3084 1428 2787 
Q 1159 2491 1159 1978 
L 1159 0 
L 581 0 
L 581 3500 
L 1159 3500 
L 1159 2956 
Q 1366 3272 1645 3428 
Q 1925 3584 2291 3584 
Q 2894 3584 3203 3211 
Q 3513 2838 3513 2113 
z
" transform="scale(0.015625)"/>
       <path id="DejaVuSans-2f" d="M 1625 4666 
L 2156 4666 
L 531 -594 
L 0 -594 
L 1625 4666 
z
" transform="scale(0.015625)"/>
       <path id="DejaVuSans-72" d="M 2631 2963 
Q 2534 3019 2420 3045 
Q 2306 3072 2169 3072 
Q 1681 3072 1420 2755 
Q 1159 2438 1159 1844 
L 1159 0 
L 581 0 
L 581 3500 
L 1159 3500 
L 1159 2956 
Q 1341 3275 1631 3429 
Q 1922 3584 2338 3584 
Q 2397 3584 2469 3576 
Q 2541 3569 2628 3553 
L 2631 2963 
z
" transform="scale(0.015625)"/>
       <path id="DejaVuSans-5f" d="M 3263 -1063 
L 3263 -1509 
L -63 -1509 
L -63 -1063 
L 3263 -1063 
z
" transform="scale(0.015625)"/>
       <path id="DejaVuSans-77" d="M 269 3500 
L 844 3500 
L 1563 769 
L 2278 3500 
L 2956 3500 
L 3675 769 
L 4391 3500 
L 4966 3500 
L 4050 0 
L 3372 0 
L 2619 2869 
L 1863 0 
L 1184 0 
L 269 3500 
z
" transform="scale(0.015625)"/>
      </defs>
      <use xlink:href="#DejaVuSans-61"/>
      <use xlink:href="#DejaVuSans-63" x="61.279297"/>
      <use xlink:href="#DejaVuSans-74" x="116.259766"/>
      <use xlink:href="#DejaVuSans-69" x="155.46875"/>
      <use xlink:href="#DejaVuSans-6f" x="183.251953"/>
      <use xlink:href="#DejaVuSans-6e" x="244.433594"/>
      <use xlink:href="#DejaVuSans-73" x="307.8125"/>
      <use xlink:href="#DejaVuSans-2f" x="359.912109"/>
      <use xlink:href="#DejaVuSans-70" x="393.603516"/>
      <use xlink:href="#DejaVuSans-72" x="457.080078"/>
      <use xlink:href="#DejaVuSans-69" x="498.193359"/>
      <use xlink:href="#DejaVuSans-63" x="525.976562"/>
      <use xlink:href="#DejaVuSans-65" x="580.957031"/>
      <use xlink:href="#DejaVuSans-5f" x="642.480469"/>
      <use xlink:href="#DejaVuSans-6e" x="692.480469"/>
      <use xlink:href="#DejaVuSans-65" x="755.859375"/>
      <use xlink:href="#DejaVuSans-77" x="817.382812"/>
     </g>
    </g>
   </g>
   <g id="line2d_27">
    <path d="M 73.832727 295.488 
L 74.159177 284.945458 
L 74.485627 277.015988 
L 75.791427 229.485745 
L 75.954652 226.190413 
L 76.281102 214.264331 
L 76.607552 208.053625 
L 77.260452 195.354947 
L 77.913353 184.457104 
L 78.076578 183.03059 
L 78.239803 183.507603 
L 78.403028 180.578166 
L 78.566253 181.272836 
L 78.729478 180.178808 
L 79.055928 174.881594 
L 80.035278 159.681774 
L 80.851403 150.003221 
L 81.341078 144.724702 
L 81.504303 144.585622 
L 83.136553 130.287886 
L 83.463003 128.204311 
L 84.279128 122.722605 
L 84.442353 122.486008 
L 84.932028 119.511485 
L 85.095253 119.661539 
L 86.564278 111.939592 
L 87.706853 107.011226 
L 87.870078 106.665381 
L 88.522978 104.188274 
L 89.992003 81.295499 
L 91.297803 69.26258 
L 91.624253 68.236589 
L 91.950703 66.23663 
L 92.440378 64.196569 
L 92.603603 64.291403 
L 92.766828 63.946263 
L 93.093278 62.39679 
L 93.256503 61.96294 
L 93.582954 60.682145 
L 93.909404 59.653661 
L 94.235854 58.229748 
L 94.399079 58.402129 
L 94.562304 57.596368 
L 94.725529 56.178742 
L 94.888754 56.065483 
L 95.215204 53.883606 
L 95.378429 53.568 
L 95.541654 54.023472 
L 96.031329 54.013935 
L 96.194554 54.102103 
L 96.521004 55.228455 
L 96.684229 55.270182 
L 96.847454 55.660733 
L 97.010679 55.201251 
L 97.337129 55.413137 
L 97.663579 55.539076 
L 97.826804 55.580152 
L 97.990029 54.830804 
L 98.806154 55.305785 
L 99.622279 56.189146 
L 99.785504 55.924967 
L 100.438404 56.274171 
L 100.601629 56.94749 
L 100.764854 57.106052 
L 100.928079 56.652368 
L 101.254529 57.08172 
L 101.417754 57.19216 
L 101.580979 56.387755 
L 101.907429 56.738748 
L 102.070654 57.343948 
L 102.233879 57.460296 
L 102.886779 58.497504 
L 103.213229 58.982348 
L 103.376454 59.286682 
L 103.539679 59.331606 
L 104.192579 60.101167 
L 104.355804 60.14983 
L 104.845479 60.876473 
L 105.498379 61.976271 
L 105.661604 61.633732 
L 105.988054 62.304883 
L 106.151279 62.588625 
L 106.314504 62.494984 
L 106.477729 62.545977 
L 106.804179 63.126847 
L 106.967404 62.947747 
L 107.293854 63.1534 
L 107.457079 63.462774 
L 107.620304 64.140428 
L 107.783529 64.203397 
L 108.762879 65.586451 
L 108.926104 65.408651 
L 109.089329 65.417918 
L 109.905455 66.259661 
L 110.06868 66.429548 
L 110.39513 67.077668 
L 110.72158 67.489463 
L 110.884805 67.409098 
L 111.04803 67.564625 
L 111.211255 67.500409 
L 111.37448 67.597952 
L 111.537705 67.551023 
L 111.864155 67.925806 
L 112.02738 67.656153 
L 112.190605 67.80198 
L 112.35383 67.790058 
L 112.68028 68.054996 
L 112.843505 67.607869 
L 113.00673 67.512819 
L 113.169955 67.792226 
L 113.33318 67.628353 
L 113.822855 68.132705 
L 114.149305 68.27837 
L 114.31253 68.979 
L 114.475755 68.993469 
L 114.96543 69.522966 
L 115.128655 69.870436 
L 115.29188 69.913951 
L 115.455105 69.812344 
L 115.94478 70.070725 
L 116.434455 71.637321 
L 116.92413 71.888603 
L 117.087355 71.496913 
L 117.413805 71.786996 
L 117.57703 71.727007 
L 117.740255 72.68721 
L 118.22993 73.396295 
L 118.393155 73.912081 
L 118.55638 73.799419 
L 119.20928 74.243457 
L 119.372505 74.111936 
L 120.51508 75.218617 
L 120.84153 75.231243 
L 121.16798 75.425788 
L 121.331205 75.376312 
L 121.49443 76.101003 
L 121.657655 76.262166 
L 121.984105 76.277556 
L 122.14733 76.335486 
L 122.310555 76.025028 
L 122.47378 76.139424 
L 122.637005 75.921307 
L 122.80023 75.902069 
L 122.963455 76.172805 
L 123.12668 76.107126 
L 123.289905 76.385504 
L 123.45313 76.237346 
L 123.77958 76.448311 
L 123.942805 76.555554 
L 124.10603 75.974468 
L 124.43248 76.124034 
L 124.595705 75.908735 
L 124.75893 75.960487 
L 124.922155 76.177141 
L 125.085381 76.837345 
L 125.411831 76.940199 
L 125.738281 77.498525 
L 126.064731 77.569623 
L 126.554406 78.326937 
L 126.717631 78.183819 
L 126.880856 78.274751 
L 127.044081 78.20891 
L 127.370531 78.701665 
L 127.533756 78.718681 
L 127.696981 79.087069 
L 127.860206 79.161472 
L 128.023431 79.698935 
L 128.349881 79.716276 
L 128.676331 80.615569 
L 128.839556 80.86994 
L 129.002781 80.86826 
L 129.166006 81.0052 
L 129.329231 81.53914 
L 129.655681 81.623461 
L 130.145356 81.983666 
L 130.308581 81.86824 
L 130.635031 82.436103 
L 130.961481 82.60637 
L 131.124706 82.970206 
L 131.451156 83.080159 
L 131.614381 82.807743 
L 131.777606 82.876673 
L 132.104056 83.305375 
L 132.267281 83.300769 
L 132.430506 83.145025 
L 132.593731 82.506985 
L 132.756956 82.494954 
L 132.920181 82.042896 
L 133.573081 82.801077 
L 133.736306 82.733285 
L 134.062756 83.368832 
L 134.225981 82.669502 
L 134.552431 82.47848 
L 134.715656 82.698982 
L 135.042106 82.533484 
L 136.184681 83.843326 
L 136.347906 83.530212 
L 136.511131 84.154055 
L 136.674356 84.114712 
L 137.000806 84.568938 
L 137.164031 84.388592 
L 137.327256 84.4553 
L 137.816931 85.470562 
L 137.980156 84.60259 
L 138.633056 85.824914 
L 139.285956 87.004048 
L 139.449181 87.091511 
L 139.612406 87.379426 
L 139.775631 87.304047 
L 140.102081 88.055834 
L 140.428531 88.633289 
L 140.591756 88.748119 
L 141.407882 90.270821 
L 141.571107 89.930341 
L 141.897557 90.442009 
L 142.060782 90.315908 
L 142.713682 90.90393 
L 142.876907 90.836192 
L 143.203357 91.753585 
L 143.529807 92.646213 
L 143.693032 92.711458 
L 144.019482 93.706181 
L 144.182707 93.74948 
L 144.345932 94.083457 
L 144.509157 93.997727 
L 144.835607 94.570251 
L 144.998832 93.886853 
L 145.162057 93.737937 
L 145.488507 94.068012 
L 145.651732 94.36579 
L 145.814957 94.011546 
L 146.304632 95.478215 
L 146.794307 96.827236 
L 146.957532 96.988778 
L 147.120757 97.390223 
L 147.283982 97.155198 
L 147.610432 97.64649 
L 147.773657 97.804185 
L 148.100107 99.2152 
L 148.753007 100.383821 
L 149.569132 103.427817 
L 149.895582 103.936829 
L 151.201382 107.000875 
L 151.364607 106.948852 
L 151.691057 107.504902 
L 151.854282 107.555787 
L 152.343957 108.997366 
L 152.507182 108.842977 
L 152.670407 108.897005 
L 152.833632 109.765572 
L 152.996857 109.539327 
L 153.323307 110.281576 
L 153.486532 110.748916 
L 153.649757 111.947179 
L 154.955557 114.474358 
L 155.445232 116.298144 
L 155.608457 116.412811 
L 156.261357 118.311921 
L 156.424582 118.272958 
L 156.751032 119.341652 
L 156.914258 119.300413 
L 157.077483 119.575484 
L 157.403933 120.674578 
L 157.567158 120.785723 
L 157.893608 121.32427 
L 158.546508 123.258712 
L 158.709733 123.538878 
L 159.036183 124.93369 
L 159.689083 127.100123 
L 161.158108 131.751846 
L 161.484558 133.178198 
L 161.974233 135.408521 
L 162.137458 135.535327 
L 162.300683 136.46979 
L 162.627133 137.017712 
L 163.443258 139.95357 
L 164.259383 143.307996 
L 164.585833 142.651667 
L 164.912283 144.137845 
L 165.075508 144.046696 
L 165.401958 145.622261 
L 165.565183 145.946998 
L 165.891633 147.265673 
L 166.054858 147.072213 
L 166.381308 148.343281 
L 167.034208 150.264962 
L 167.197433 150.634108 
L 167.360658 151.473494 
L 167.523883 151.453877 
L 168.176783 153.763454 
L 168.340008 153.677318 
L 168.666458 154.906686 
L 168.829683 155.444853 
L 169.156133 157.048164 
L 169.319358 157.349789 
L 169.972258 159.965571 
L 170.135483 160.405057 
L 170.625158 162.566368 
L 170.788383 162.859187 
L 171.114833 164.402943 
L 171.441283 164.295239 
L 171.604508 164.511487 
L 171.767733 165.238156 
L 171.930958 165.410915 
L 172.257408 166.391522 
L 173.073534 169.698261 
L 173.236759 170.107563 
L 173.399984 171.239334 
L 173.563209 171.536894 
L 173.726434 171.558733 
L 173.889659 171.938609 
L 174.052884 172.819153 
L 174.216109 172.875538 
L 174.542559 173.562486 
L 174.705784 174.171507 
L 174.869009 174.280674 
L 175.195459 175.312653 
L 175.358684 175.578404 
L 176.011584 177.530404 
L 176.338034 178.433003 
L 176.501259 179.061235 
L 176.827709 178.502313 
L 177.154159 179.549628 
L 177.317384 179.660367 
L 178.133509 182.146876 
L 178.296734 182.276907 
L 178.786409 183.633786 
L 179.276084 183.675865 
L 179.765759 184.905342 
L 179.928984 185.002966 
L 180.092209 184.706164 
L 180.418659 185.211031 
L 180.908334 187.408678 
L 181.234784 188.999064 
L 181.398009 189.05591 
L 181.561234 190.268154 
L 181.724459 190.190662 
L 181.887684 190.246071 
L 182.050909 190.990488 
L 182.214134 191.190099 
L 182.377359 190.765651 
L 182.540584 191.704341 
L 182.703809 191.76498 
L 183.356709 192.920541 
L 183.519934 193.020848 
L 183.846384 194.023727 
L 184.172834 195.942888 
L 184.499284 196.412775 
L 184.988959 198.139478 
L 185.152184 198.206132 
L 185.315409 198.736631 
L 185.478634 198.882566 
L 185.968309 200.420876 
L 186.131534 200.592741 
L 186.294759 201.057561 
L 186.784434 200.321057 
L 186.947659 200.571498 
L 187.600559 202.849889 
L 187.763784 203.127751 
L 187.927009 203.642102 
L 188.090234 203.551116 
L 188.253459 203.779963 
L 188.743135 205.273754 
L 188.90636 205.16727 
L 189.069585 205.282371 
L 189.23281 205.621252 
L 189.396035 205.588087 
L 189.55926 205.726327 
L 189.722485 206.13441 
L 189.88571 205.957992 
L 190.21216 207.072314 
L 190.53861 206.862949 
L 190.86506 208.281605 
L 191.028285 208.553804 
L 191.19151 208.111771 
L 191.51796 209.396143 
L 191.681185 209.761226 
L 192.007635 209.850667 
L 192.334085 209.314586 
L 192.49731 209.329272 
L 192.660535 209.649701 
L 192.986985 209.377664 
L 193.313435 210.737524 
L 193.47666 210.214801 
L 193.639885 210.503935 
L 193.80311 211.108296 
L 193.966335 210.659733 
L 194.45601 211.219441 
L 194.619235 211.164302 
L 194.78246 211.771291 
L 194.945685 211.34893 
L 195.272135 211.165494 
L 195.76181 213.040192 
L 195.925035 212.23603 
L 196.08826 212.117325 
L 196.251485 212.205575 
L 196.904385 213.125894 
L 197.06761 213.148925 
L 197.230835 212.985513 
L 197.39406 213.148302 
L 197.557285 212.854074 
L 197.72051 212.910134 
L 197.883735 213.187834 
L 198.04696 212.934114 
L 198.37341 212.839172 
L 198.69986 212.677088 
L 198.863085 213.655743 
L 199.02631 213.3736 
L 199.189535 213.49981 
L 199.35276 212.957389 
L 199.67921 213.380509 
L 200.00566 213.209267 
L 200.168885 213.287003 
L 200.495335 212.316232 
L 200.821785 212.149135 
L 201.31146 212.14835 
L 201.63791 212.53378 
L 201.801135 212.127324 
L 201.96436 212.56998 
L 202.127585 212.398087 
L 202.29081 212.661399 
L 202.454035 212.246137 
L 202.61726 212.242831 
L 202.780485 212.084242 
L 202.94371 212.291982 
L 203.27016 212.129112 
L 203.433385 212.089444 
L 203.92306 211.010834 
L 204.086285 210.903483 
L 204.24951 211.763894 
L 204.412735 211.889047 
L 204.575961 212.169674 
L 204.739186 212.02512 
L 205.065636 211.451567 
L 205.228861 211.286854 
L 205.555311 211.924461 
L 205.881761 211.7339 
L 206.044986 211.872384 
L 206.208211 211.065106 
L 206.371436 211.269811 
L 206.697886 210.689077 
L 207.024336 211.190016 
L 207.187561 210.902507 
L 207.350786 210.385854 
L 207.514011 210.418314 
L 207.677236 210.929413 
L 207.840461 210.630606 
L 208.003686 210.596574 
L 208.656586 211.20275 
L 208.819811 211.354349 
L 208.983036 211.662666 
L 209.472711 211.031237 
L 209.635936 211.262333 
L 209.799161 210.76424 
L 209.962386 211.451892 
L 210.125611 211.341505 
L 210.288836 210.701812 
L 210.452061 211.161999 
L 210.778511 210.499166 
L 210.941736 210.435249 
L 211.104961 210.980352 
L 211.268186 211.10201 
L 211.594636 210.878772 
L 211.757861 211.239979 
L 211.921086 210.835392 
L 212.900436 213.441744 
L 213.063661 213.359808 
L 213.553336 212.829715 
L 213.716561 212.898538 
L 213.879786 212.578352 
L 214.043011 212.968525 
L 214.206236 212.645196 
L 214.369461 212.800778 
L 214.695911 212.375137 
L 214.859136 213.334122 
L 215.022361 213.524466 
L 215.185586 214.037868 
L 215.348811 213.39048 
L 215.512036 213.918974 
L 215.675261 213.96341 
L 215.838486 214.517916 
L 216.164936 214.814041 
L 216.491386 216.035985 
L 216.654611 215.992145 
L 216.981061 217.030545 
L 217.144286 216.404942 
L 217.470736 217.197236 
L 217.633961 216.874937 
L 217.797186 217.162012 
L 217.960411 216.639696 
L 218.123636 216.662293 
L 218.613311 215.954943 
L 218.939761 215.126883 
L 219.429436 214.480199 
L 219.592661 214.726008 
L 219.919111 214.181419 
L 220.245561 214.154297 
L 220.735237 212.433826 
L 220.898462 212.530366 
L 221.224912 212.24023 
L 221.388137 212.448918 
L 221.551362 212.317722 
L 222.041037 210.519461 
L 222.204262 210.426334 
L 222.367487 210.580073 
L 222.530712 209.929135 
L 222.693937 210.657945 
L 222.857162 210.351009 
L 223.020387 210.396584 
L 223.183612 210.888309 
L 223.510062 211.157853 
L 223.673287 211.439618 
L 223.836512 211.207086 
L 223.999737 210.46275 
L 224.326187 211.099328 
L 224.489412 210.572134 
L 224.652637 210.740911 
L 224.979087 210.409373 
L 225.305537 211.747366 
L 225.468762 211.844476 
L 225.631987 211.590295 
L 225.795212 211.917091 
L 225.958437 211.76281 
L 226.121662 211.190774 
L 226.284887 211.467742 
L 226.448112 211.110139 
L 226.774562 211.917064 
L 226.937787 212.008917 
L 227.101012 211.649823 
L 227.264237 212.036202 
L 227.590687 212.034495 
L 227.917137 212.410686 
L 228.243587 213.321441 
L 228.406812 213.334176 
L 228.733262 212.588079 
L 228.896487 212.798637 
L 229.059712 212.285723 
L 229.222937 212.251149 
L 229.386162 212.636878 
L 229.549387 212.648231 
L 229.712612 212.982912 
L 229.875837 212.912464 
L 230.039062 212.993371 
L 230.202287 212.810261 
L 230.365512 212.836137 
L 230.528737 212.717974 
L 230.691962 212.445097 
L 230.855187 211.826728 
L 231.181637 212.488016 
L 231.671312 210.894487 
L 231.834537 211.449643 
L 231.997762 211.124499 
L 232.160987 211.493077 
L 232.813887 210.062878 
L 232.977112 210.085665 
L 233.303562 209.561506 
L 233.466787 208.977927 
L 233.630012 209.530672 
L 233.956462 209.237419 
L 234.119687 209.437247 
L 234.282912 209.417738 
L 234.446137 210.361739 
L 234.609362 210.06808 
L 234.772587 210.53187 
L 234.935812 210.061469 
L 235.099037 210.308172 
L 235.425487 211.608638 
L 235.588712 211.777984 
L 235.751937 211.670063 
L 235.915162 212.472572 
L 236.078387 212.160895 
L 236.241613 212.801347 
L 236.404838 212.632001 
L 237.057738 214.60416 
L 237.220963 214.393819 
L 237.384188 214.411729 
L 237.547413 214.9299 
L 237.710638 214.99753 
L 237.873863 215.266072 
L 238.037088 215.942831 
L 238.363538 216.350968 
L 238.526763 216.562528 
L 238.853213 216.369447 
L 239.016438 217.038728 
L 239.179663 217.185341 
L 239.506113 217.139821 
L 239.669338 217.203847 
L 239.832563 216.602873 
L 240.159013 216.79823 
L 240.322238 216.924711 
L 240.485463 217.414242 
L 240.648688 217.292151 
L 240.811913 216.868326 
L 240.975138 217.137355 
L 241.138363 216.59003 
L 241.301588 216.674296 
L 241.464813 216.61298 
L 241.791263 215.709568 
L 241.954488 215.315873 
L 242.117713 215.36524 
L 242.280938 214.763697 
L 242.770613 215.754139 
L 242.933838 215.832391 
L 243.097063 215.467742 
L 243.260288 215.659956 
L 243.423513 215.384343 
L 243.586738 215.633647 
L 243.749963 215.214157 
L 243.913188 215.179123 
L 244.076413 214.459065 
L 244.239638 214.247342 
L 244.402863 214.257909 
L 244.566088 214.456816 
L 244.892538 213.505391 
L 245.055763 213.619842 
L 245.218988 213.411289 
L 245.382213 212.904824 
L 245.545438 212.969446 
L 245.871888 211.696752 
L 246.035113 211.559677 
L 246.198338 211.214049 
L 246.361563 211.747204 
L 246.524788 211.718076 
L 246.688013 211.912729 
L 246.851238 212.389579 
L 247.014463 212.460623 
L 247.177688 212.995376 
L 247.340913 212.98722 
L 247.504138 213.303152 
L 247.667363 212.932678 
L 247.830588 213.155238 
L 247.993813 212.966384 
L 248.157038 213.161335 
L 248.320263 212.635686 
L 248.483488 212.528253 
L 248.809938 211.55816 
L 248.973163 212.273151 
L 249.626063 211.230388 
L 249.952513 211.981551 
L 250.115738 211.635246 
L 250.442188 212.033709 
L 250.768638 211.638606 
L 250.931863 211.151188 
L 251.258313 211.141759 
L 251.584763 211.548514 
L 251.911213 210.709074 
L 252.074439 210.766218 
L 252.237664 211.068764 
L 252.400889 211.083802 
L 252.564114 211.334406 
L 252.727339 210.822115 
L 252.890564 211.336303 
L 253.053789 210.920905 
L 253.217014 210.864086 
L 253.543464 210.399998 
L 253.869914 211.134633 
L 254.033139 211.036656 
L 254.359589 210.179469 
L 254.522814 209.431069 
L 254.686039 209.931465 
L 254.849264 209.854325 
L 255.012489 209.468217 
L 255.175714 209.572696 
L 255.338939 210.078485 
L 255.502164 209.253703 
L 255.665389 209.151337 
L 255.828614 209.59757 
L 256.318289 209.246631 
L 256.644739 208.378958 
L 256.807964 208.624306 
L 256.971189 208.278245 
L 257.134414 208.436373 
L 257.297639 208.375653 
L 257.460864 207.97933 
L 257.624089 208.205548 
L 257.787314 208.137756 
L 257.950539 207.896337 
L 258.113764 208.275725 
L 258.440214 208.20926 
L 258.603439 208.228146 
L 258.766664 208.609187 
L 259.093114 208.021842 
L 259.256339 208.30488 
L 259.582789 207.528328 
L 259.746014 207.636899 
L 259.909239 207.352019 
L 260.398914 208.232915 
L 260.562139 208.793706 
L 261.215039 207.772294 
L 261.378264 208.192326 
L 261.704714 207.570976 
L 261.867939 207.858647 
L 262.357614 207.21302 
L 262.684064 208.034848 
L 262.847289 207.292057 
L 263.010514 207.728644 
L 263.336964 207.608286 
L 263.663414 206.712651 
L 263.826639 206.591941 
L 263.989864 205.799295 
L 264.153089 206.27582 
L 264.316314 205.681132 
L 264.479539 206.115145 
L 264.805989 204.736481 
L 264.969214 204.366414 
L 265.132439 204.481514 
L 265.295664 205.221379 
L 265.458889 204.771028 
L 265.785339 205.073872 
L 265.948564 204.974134 
L 266.111789 205.060325 
L 266.275014 204.835975 
L 266.601464 204.711689 
L 266.927914 203.807329 
L 267.091139 204.197014 
L 267.254364 203.881408 
L 267.417589 203.945217 
L 267.580814 203.809632 
L 267.907265 203.079088 
L 268.07049 202.991787 
L 268.233715 202.547776 
L 268.39694 202.65315 
L 268.560165 202.280481 
L 268.72339 202.25531 
L 268.886615 201.429255 
L 269.04984 201.696144 
L 269.213065 202.201607 
L 269.539515 201.838069 
L 269.70274 202.183886 
L 269.865965 202.169363 
L 270.02919 201.839776 
L 270.35564 201.586218 
L 270.518865 200.623332 
L 270.68209 200.574831 
L 270.845315 200.706027 
L 271.00854 200.30946 
L 271.171765 200.30778 
L 271.33499 199.988868 
L 271.498215 200.797392 
L 271.66144 200.622817 
L 271.824665 200.242236 
L 271.98789 200.823539 
L 272.31434 199.673235 
L 272.477565 200.038696 
L 272.64079 199.764871 
L 272.804015 199.888561 
L 272.96724 200.182247 
L 273.29369 200.131931 
L 273.456915 200.504871 
L 273.62014 199.336115 
L 274.92594 197.154509 
L 275.57884 197.980049 
L 275.742065 197.150878 
L 275.90529 197.160145 
L 276.068515 197.971324 
L 276.23174 198.019364 
L 276.721415 197.546605 
L 277.21109 197.444293 
L 277.374315 197.546117 
L 277.700765 197.981268 
L 277.86399 197.901418 
L 278.19044 198.577202 
L 278.51689 198.431917 
L 278.84334 198.594814 
L 279.006565 198.300505 
L 279.16979 198.355319 
L 279.333015 199.026036 
L 279.49624 198.454352 
L 279.659465 198.52732 
L 279.82269 198.363827 
L 279.985915 198.627329 
L 280.14914 198.316003 
L 280.47559 199.085592 
L 280.965265 198.777545 
L 281.618165 201.094248 
L 282.10784 201.05263 
L 282.271065 200.628101 
L 282.43429 200.712096 
L 282.597515 200.403697 
L 282.76074 200.461627 
L 282.923965 200.379772 
L 283.08719 200.437268 
L 283.250415 200.148595 
L 283.41364 200.626014 
L 283.576865 200.224543 
L 283.74009 200.786554 
L 283.903316 200.739164 
L 284.229766 201.408256 
L 284.392991 201.343688 
L 284.719441 201.591935 
L 285.045891 202.146739 
L 285.209116 201.859908 
L 285.535566 202.047678 
L 285.698791 201.56232 
L 286.025241 201.35878 
L 286.188466 200.788965 
L 286.351691 200.904364 
L 286.514916 201.262592 
L 286.678141 201.029491 
L 286.841366 200.304881 
L 287.167816 201.031089 
L 287.331041 200.81243 
L 287.494266 201.65122 
L 287.657491 201.156649 
L 287.820716 201.298439 
L 287.983941 201.068779 
L 288.147166 201.247147 
L 288.473616 200.539987 
L 289.126516 202.037436 
L 289.289741 202.199114 
L 289.452966 201.997145 
L 289.616191 202.320528 
L 289.942641 201.660649 
L 290.432316 203.299075 
L 290.758766 204.671642 
L 291.085216 204.21151 
L 291.411666 204.721145 
L 291.738116 203.952126 
L 291.901341 204.014527 
L 292.391016 204.598458 
L 292.554241 203.435392 
L 292.717466 203.185817 
L 292.880691 203.269677 
L 293.043916 202.985772 
L 293.207141 202.392466 
L 293.370366 202.492312 
L 293.533591 202.015733 
L 293.860041 202.281402 
L 294.186491 202.033101 
L 294.512941 201.823058 
L 294.676166 201.47575 
L 294.839391 201.389912 
L 295.165841 201.886895 
L 295.329066 202.248888 
L 295.492291 201.890661 
L 295.655516 201.201248 
L 295.818741 201.284566 
L 295.981966 201.63396 
L 296.308416 200.544403 
L 296.634866 201.739767 
L 297.124541 200.127786 
L 297.287766 200.317995 
L 297.940666 201.796098 
L 298.103891 201.558581 
L 298.267116 200.975219 
L 298.756791 201.195531 
L 299.083241 201.689505 
L 299.572916 200.360345 
L 299.736142 200.690637 
L 299.899367 200.458105 
L 300.062592 200.48501 
L 300.225817 200.360968 
L 300.389042 200.528363 
L 300.552267 199.822909 
L 300.715492 199.812857 
L 300.878717 199.397404 
L 301.041942 199.559191 
L 301.368392 200.333927 
L 301.531617 200.102939 
L 301.858067 200.45339 
L 302.021292 199.690792 
L 302.184517 200.103454 
L 302.347742 199.962071 
L 302.674192 200.328399 
L 303.000642 199.953211 
L 303.327092 200.600816 
L 303.490317 200.956902 
L 303.653542 200.924171 
L 303.816767 201.865273 
L 304.143217 202.208137 
L 304.306442 202.002917 
L 304.796117 203.310726 
L 304.959342 203.323325 
L 305.122567 203.107538 
L 305.285792 203.222016 
L 305.449017 202.596602 
L 305.612242 202.503746 
L 305.938692 203.076731 
L 306.101917 203.007232 
L 306.754817 204.590004 
L 307.244492 203.022378 
L 307.570942 203.720488 
L 307.734167 203.931696 
L 307.897392 203.853608 
L 308.060617 204.366007 
L 308.387067 203.725826 
L 308.550292 203.615413 
L 308.713517 203.302977 
L 308.876742 203.499039 
L 309.203192 204.238307 
L 309.366417 204.168103 
L 309.692867 204.916503 
L 309.856092 204.606939 
L 310.019317 205.080863 
L 310.508992 204.035092 
L 310.835442 204.615718 
L 310.998667 204.502703 
L 311.325117 205.055583 
L 311.488342 204.842776 
L 311.651567 205.068616 
L 311.814792 204.857597 
L 311.978017 205.138467 
L 312.141242 205.839179 
L 312.304467 205.819291 
L 312.630917 204.496254 
L 312.794142 204.675978 
L 312.957367 203.985806 
L 313.120592 204.064247 
L 313.283817 205.219401 
L 313.447042 205.342495 
L 313.773492 206.976966 
L 314.099942 206.137661 
L 314.426392 205.658372 
L 314.589617 205.600551 
L 314.752842 205.779705 
L 314.916067 205.301906 
L 315.079292 205.168462 
L 315.242517 205.728793 
L 315.405742 205.441041 
L 315.732193 205.707144 
L 316.058643 206.651117 
L 316.385093 205.866058 
L 316.711543 206.37824 
L 316.874768 205.961406 
L 317.037993 206.199737 
L 317.201218 206.221088 
L 317.364443 206.785348 
L 317.690893 205.398853 
L 317.854118 204.515655 
L 318.180568 205.538692 
L 318.343793 204.944086 
L 318.507018 205.518858 
L 318.833468 205.013125 
L 318.996693 205.405465 
L 319.159918 205.353279 
L 319.323143 205.542404 
L 319.486368 206.146088 
L 319.649593 205.641817 
L 319.812818 205.653007 
L 320.302493 204.768942 
L 320.628943 203.658711 
L 320.792168 203.941857 
L 320.955393 202.841652 
L 321.118618 202.69214 
L 321.281843 201.86698 
L 321.445068 202.144083 
L 321.608293 202.045998 
L 321.771518 201.486345 
L 321.934743 201.657208 
L 322.097968 201.392568 
L 322.261193 200.887376 
L 322.424418 201.256332 
L 322.587643 201.133266 
L 322.750868 200.31198 
L 322.914093 200.586482 
L 323.077318 200.083891 
L 323.403768 200.327099 
L 323.566993 200.285697 
L 323.730218 200.556488 
L 323.893443 200.374841 
L 324.056668 200.400066 
L 324.383118 199.842039 
L 324.546343 199.974372 
L 324.872793 200.760244 
L 325.036018 200.545839 
L 325.362468 201.714758 
L 325.525693 201.770358 
L 325.688918 201.538476 
L 325.852143 202.082821 
L 326.015368 202.049548 
L 326.178593 202.336297 
L 326.341818 202.348544 
L 326.831493 201.506964 
L 326.994718 202.179334 
L 327.321168 201.255465 
L 327.647618 201.051004 
L 327.810843 200.533944 
L 327.974068 201.067072 
L 328.137293 200.809043 
L 328.463743 200.713315 
L 328.790193 199.225756 
L 329.116643 200.011357 
L 329.279868 200.314716 
L 329.606318 200.107789 
L 329.769543 199.612054 
L 329.932768 199.685319 
L 330.259218 198.635809 
L 330.422443 199.25724 
L 330.748893 199.335979 
L 330.912118 198.978321 
L 331.075343 199.214023 
L 331.238568 199.129838 
L 331.401794 199.434119 
L 331.565019 199.345192 
L 331.891469 198.904514 
L 332.054694 199.031943 
L 332.217919 199.408107 
L 332.381144 199.397865 
L 332.544369 199.093043 
L 333.034044 199.763598 
L 333.360494 199.007232 
L 333.850169 198.199683 
L 334.013394 198.276065 
L 334.339844 199.747693 
L 334.666294 199.229251 
L 334.829519 199.507059 
L 335.155969 198.932449 
L 335.319194 199.248489 
L 335.645644 198.310124 
L 335.808869 198.771774 
L 335.972094 197.666746 
L 336.461769 197.285244 
L 336.624994 197.829209 
L 336.788219 197.379535 
L 336.951444 197.424703 
L 337.114669 197.784231 
L 337.277894 197.639379 
L 337.441119 198.015598 
L 337.604344 197.43145 
L 337.930794 198.084474 
L 338.094019 198.191311 
L 338.257244 198.589368 
L 338.420469 198.531899 
L 338.583694 198.330229 
L 338.746919 198.627762 
L 339.073369 197.802547 
L 339.236594 198.506917 
L 339.726269 197.35263 
L 340.215944 198.018578 
L 340.379169 197.994518 
L 341.195294 195.927389 
L 341.358519 195.949228 
L 341.521744 195.430597 
L 341.684969 194.484564 
L 341.848194 194.365209 
L 342.174644 194.838727 
L 342.337869 194.575794 
L 342.501094 194.094527 
L 342.827544 193.894184 
L 342.990769 193.922959 
L 343.317219 194.95754 
L 343.480444 194.889991 
L 343.643669 195.212425 
L 343.806894 195.010105 
L 343.970119 195.304631 
L 344.459794 194.656619 
L 344.623019 194.852979 
L 344.786244 194.220114 
L 345.112694 194.33554 
L 345.275919 195.035114 
L 345.439144 194.715497 
L 345.602369 195.264692 
L 345.765594 195.049826 
L 345.928819 195.022812 
L 346.092044 194.813853 
L 346.581719 193.787727 
L 346.744944 194.498843 
L 346.908169 194.034213 
L 347.071394 194.025082 
L 347.234619 193.702783 
L 347.397845 193.828966 
L 347.56107 193.793498 
L 347.724295 194.332505 
L 348.050745 193.93862 
L 348.54042 194.26119 
L 348.703645 194.649954 
L 349.030095 194.060522 
L 349.19332 193.897598 
L 349.51977 192.909405 
L 349.682995 193.216178 
L 349.84622 192.982454 
L 350.335895 194.115526 
L 350.662345 193.773745 
L 350.988795 194.245123 
L 351.15202 193.786968 
L 351.315245 193.794338 
L 351.641695 194.99401 
L 351.968145 194.411081 
L 352.13137 195.128023 
L 352.294595 194.967484 
L 352.78427 196.426485 
L 353.11072 196.239581 
L 353.273945 196.642299 
L 353.43717 196.562991 
L 353.76362 197.564271 
L 353.926845 197.249234 
L 354.253295 198.366834 
L 354.41652 198.128125 
L 354.579745 198.198952 
L 354.74297 197.24666 
L 355.06942 198.401814 
L 355.39587 197.548393 
L 355.72232 198.204019 
L 355.885545 198.08377 
L 356.04877 198.310395 
L 356.211995 198.317304 
L 356.538445 198.92283 
L 356.70167 198.71062 
L 356.864895 198.211876 
L 357.191345 199.251686 
L 357.35457 199.478528 
L 357.517795 199.316986 
L 357.68102 199.313138 
L 357.844245 199.098408 
L 358.170695 200.514869 
L 358.33392 200.062459 
L 358.497145 199.999815 
L 358.66037 199.686024 
L 358.98682 200.768888 
L 359.150045 200.575482 
L 359.63972 202.21678 
L 359.802945 201.751364 
L 360.455845 202.287282 
L 360.61907 202.340199 
L 360.782295 202.938274 
L 361.108745 202.601208 
L 361.27197 203.293466 
L 361.435195 203.04129 
L 361.59842 203.173976 
L 361.761645 202.696096 
L 361.92487 203.210446 
L 362.088095 203.026876 
L 362.25132 203.343891 
L 362.414545 203.335871 
L 363.067445 205.082597 
L 363.230671 203.812531 
L 363.557121 204.559684 
L 363.720346 204.124046 
L 363.883571 204.456939 
L 364.046796 203.993338 
L 364.210021 203.124175 
L 364.699696 204.410064 
L 364.862921 204.289626 
L 365.026146 204.343816 
L 365.189371 203.940611 
L 365.352596 204.434071 
L 365.515821 204.170244 
L 366.005496 205.249477 
L 366.168721 204.446128 
L 366.331946 205.386417 
L 366.495171 205.43321 
L 366.984846 206.063203 
L 367.148071 205.808887 
L 367.311296 205.80214 
L 367.637746 205.251076 
L 367.800971 205.297165 
L 367.964196 204.755069 
L 368.290646 204.787556 
L 368.453871 204.923222 
L 368.780321 203.675483 
L 368.943546 203.638823 
L 369.269996 202.493532 
L 369.433221 202.836965 
L 369.596446 202.743648 
L 369.759671 202.248454 
L 369.922896 202.266093 
L 370.086121 201.980644 
L 370.249346 200.742985 
L 370.412571 200.792054 
L 370.739021 200.192191 
L 370.902246 200.554997 
L 371.065471 200.300871 
L 371.228696 200.53156 
L 371.555146 200.432987 
L 371.881596 201.801436 
L 372.044821 201.769057 
L 372.208046 201.314723 
L 372.371271 202.27956 
L 373.024171 202.890098 
L 373.187396 202.115064 
L 373.350621 202.509653 
L 373.840296 202.386532 
L 374.003521 202.539052 
L 374.329971 203.535834 
L 374.493196 203.097513 
L 374.656421 203.201478 
L 374.819646 203.154738 
L 374.982871 202.918467 
L 375.146096 202.892158 
L 375.472546 202.064802 
L 375.635771 202.287661 
L 375.962221 201.992431 
L 376.125446 201.577493 
L 376.288671 202.009284 
L 376.451896 201.961786 
L 376.615121 201.676743 
L 376.778346 201.802195 
L 376.941571 201.556115 
L 377.104796 201.542378 
L 377.268021 201.712834 
L 377.431246 201.658833 
L 378.084146 202.393116 
L 378.247371 202.911693 
L 378.410596 202.838834 
L 378.573821 202.554469 
L 378.737046 201.801328 
L 378.900271 202.239838 
L 379.063497 201.679588 
L 379.226722 201.985359 
L 379.389947 201.803224 
L 379.553172 201.843 
L 379.716397 202.742537 
L 379.879622 202.027953 
L 380.042847 202.187842 
L 380.206072 202.792826 
L 380.369297 202.236424 
L 380.532522 202.178088 
L 380.695747 202.393414 
L 380.858972 202.161939 
L 381.022197 202.166545 
L 381.185422 201.938105 
L 381.348647 202.060955 
L 381.675097 201.536959 
L 381.838322 201.231811 
L 382.001547 202.305869 
L 382.164772 201.910115 
L 382.327997 202.519082 
L 382.491222 202.160666 
L 382.654447 202.442999 
L 382.817672 202.29495 
L 382.980897 201.851535 
L 383.470572 199.903247 
L 383.633797 200.366441 
L 383.797022 200.318997 
L 383.960247 200.481271 
L 384.123472 200.38828 
L 384.286697 200.761735 
L 384.449922 200.690582 
L 384.776372 200.155071 
L 385.592497 201.780383 
L 385.755722 202.49467 
L 385.918947 202.434843 
L 386.082172 202.23935 
L 386.245397 201.499188 
L 386.408622 202.093388 
L 386.571847 202.239242 
L 386.898297 203.438372 
L 387.061522 203.68055 
L 387.387972 203.238246 
L 387.714422 204.235083 
L 388.040872 202.592131 
L 388.204097 202.843684 
L 388.367322 202.32237 
L 388.530547 202.58235 
L 388.693772 203.235916 
L 389.346672 200.970423 
L 389.509897 201.083627 
L 389.673122 201.033338 
L 389.999572 201.369916 
L 390.162797 201.155375 
L 390.326022 201.198376 
L 390.489247 200.924876 
L 390.815697 199.507276 
L 391.142147 199.185817 
L 391.305372 199.367031 
L 391.631822 199.308722 
L 391.795047 199.909668 
L 391.958272 199.315577 
L 392.121497 199.486846 
L 392.447947 198.901154 
L 392.611172 198.954965 
L 392.937622 198.339766 
L 393.100847 198.473021 
L 393.264072 198.11436 
L 393.427297 198.21109 
L 393.753747 198.856338 
L 393.916972 199.085104 
L 394.243422 197.424676 
L 394.406647 197.996821 
L 394.569872 197.834439 
L 394.896323 197.911796 
L 395.059548 198.251408 
L 395.712448 198.045646 
L 395.875673 197.540427 
L 396.202123 196.17924 
L 396.365348 195.68746 
L 396.528573 195.671339 
L 396.691798 195.296448 
L 397.018248 196.231263 
L 397.671148 195.252635 
L 397.834373 195.444984 
L 397.997598 194.921178 
L 398.160823 195.373344 
L 398.324048 195.421222 
L 398.487273 195.240415 
L 398.487273 195.240415 
" clip-path="url(#pc107013c0a)" style="fill: none; stroke: #1f77b4; stroke-width: 1.5; stroke-linecap: square"/>
   </g>
   <g id="line2d_28">
    <path d="M 73.832727 238.808149 
L 74.159177 231.996215 
L 74.975302 215.514703 
L 75.464977 206.819197 
L 76.607552 188.456791 
L 77.423677 179.622072 
L 77.586903 179.108348 
L 77.913353 176.081835 
L 78.076578 176.28915 
L 78.239803 177.326446 
L 78.403028 176.146988 
L 78.566253 177.526135 
L 78.729478 177.673238 
L 78.892703 177.01573 
L 79.382378 172.878647 
L 80.361728 165.313369 
L 80.524953 164.985546 
L 81.341078 160.222594 
L 81.504303 160.697293 
L 83.626228 151.563619 
L 84.115903 149.779106 
L 84.279128 149.189343 
L 84.442353 149.208426 
L 84.932028 147.569279 
L 85.095253 147.968919 
L 86.890728 142.735517 
L 88.522978 139.463012 
L 89.012653 134.276084 
L 89.339103 132.364107 
L 89.992003 127.537776 
L 90.971353 123.204695 
L 91.134578 122.981273 
L 91.461028 122.076801 
L 91.624253 121.911375 
L 91.950703 121.06943 
L 92.277153 120.478129 
L 92.440378 120.350405 
L 92.603603 120.596296 
L 92.766828 120.567965 
L 93.093278 119.994342 
L 93.256503 119.841929 
L 93.419729 119.445106 
L 93.746179 119.271671 
L 93.909404 119.049626 
L 94.235854 118.293609 
L 94.399079 118.48371 
L 95.215204 115.058276 
L 95.378429 114.749801 
L 95.541654 115.176417 
L 96.031329 115.181271 
L 96.194554 115.271469 
L 96.521004 116.267465 
L 96.684229 116.302662 
L 96.847454 116.690063 
L 97.010679 116.280377 
L 97.337129 116.466621 
L 97.663579 116.573765 
L 97.826804 116.614363 
L 97.990029 115.975317 
L 98.806154 116.434792 
L 99.459054 117.196496 
L 99.622279 117.301668 
L 99.785504 117.05471 
L 100.438404 117.413665 
L 100.601629 118.064345 
L 100.764854 118.220701 
L 100.928079 117.928088 
L 101.254529 118.359828 
L 101.417754 118.468844 
L 101.580979 117.802284 
L 101.907429 118.13894 
L 102.070654 118.689308 
L 102.233879 118.805264 
L 102.723554 119.527647 
L 103.376454 120.575687 
L 103.539679 120.620708 
L 104.192579 121.373649 
L 104.355804 121.414685 
L 104.845479 122.091784 
L 105.498379 123.289833 
L 105.661604 122.978072 
L 105.988054 123.58421 
L 106.151279 123.866382 
L 106.314504 123.753929 
L 106.477729 123.810377 
L 106.804179 124.346929 
L 106.967404 124.233556 
L 107.293854 124.431303 
L 107.457079 124.736658 
L 107.620304 125.377369 
L 107.783529 125.431739 
L 108.762879 126.798373 
L 108.926104 126.606608 
L 109.089329 126.610416 
L 109.74223 127.215281 
L 110.72158 128.584672 
L 110.884805 128.487135 
L 111.04803 128.648211 
L 111.211255 128.578333 
L 111.37448 128.675973 
L 111.537705 128.62064 
L 111.864155 128.9442 
L 112.02738 128.69542 
L 112.190605 128.840265 
L 112.35383 128.819623 
L 112.68028 129.078955 
L 112.843505 128.720148 
L 113.00673 128.655066 
L 113.169955 128.945381 
L 113.33318 128.785603 
L 113.822855 129.263704 
L 114.149305 129.429297 
L 114.31253 130.020528 
L 114.475755 130.03236 
L 114.96543 130.539791 
L 115.128655 130.868522 
L 115.29188 130.907261 
L 115.455105 130.802252 
L 115.94478 131.068017 
L 116.434455 132.604919 
L 116.92413 132.833912 
L 117.087355 132.46357 
L 117.413805 132.753811 
L 117.57703 132.70246 
L 117.740255 133.633615 
L 117.90348 133.815738 
L 118.393155 134.758471 
L 118.55638 134.667732 
L 119.20928 135.067895 
L 119.372505 134.966034 
L 120.51508 136.058726 
L 121.004755 136.215475 
L 121.331205 136.263984 
L 121.49443 136.878079 
L 121.657655 137.025185 
L 121.984105 137.058236 
L 122.14733 137.111896 
L 122.310555 136.844423 
L 122.47378 136.958024 
L 122.637005 136.745103 
L 122.80023 136.756296 
L 122.963455 136.995106 
L 123.12668 136.915801 
L 123.289905 137.212614 
L 123.45313 137.058281 
L 123.942805 137.335045 
L 124.10603 136.810752 
L 124.43248 136.957203 
L 124.595705 136.7519 
L 124.75893 136.801033 
L 124.922155 136.975986 
L 125.085381 137.559888 
L 125.411831 137.696416 
L 125.738281 138.25042 
L 126.227956 138.508658 
L 126.391181 138.876095 
L 126.554406 138.96853 
L 126.717631 138.862747 
L 126.880856 138.972508 
L 127.044081 138.89853 
L 127.370531 139.379459 
L 127.533756 139.393169 
L 127.696981 139.764619 
L 127.860206 139.812832 
L 128.023431 140.368727 
L 128.349881 140.430651 
L 128.676331 141.297505 
L 128.839556 141.516056 
L 129.002781 141.514896 
L 129.166006 141.635819 
L 129.329231 142.172423 
L 129.818906 142.377208 
L 130.145356 142.592093 
L 130.308581 142.474049 
L 130.635031 143.018717 
L 131.451156 143.78257 
L 131.614381 143.525756 
L 131.777606 143.598026 
L 132.104056 144.005234 
L 132.267281 144.016845 
L 132.430506 143.856312 
L 132.593731 143.209156 
L 132.756956 143.19953 
L 132.920181 142.75103 
L 133.573081 143.477602 
L 133.736306 143.394738 
L 134.062756 144.025984 
L 134.225981 143.346955 
L 134.552431 143.204303 
L 134.715656 143.429728 
L 135.042106 143.28942 
L 136.184681 144.6463 
L 136.347906 144.342294 
L 136.511131 144.967478 
L 136.674356 144.917285 
L 137.000806 145.313014 
L 137.164031 145.134346 
L 137.327256 145.218322 
L 137.816931 146.237532 
L 137.980156 145.461913 
L 138.469831 146.248841 
L 138.796281 146.971928 
L 138.959506 147.042183 
L 139.122731 147.757358 
L 139.449181 147.882507 
L 139.612406 148.199035 
L 139.775631 148.11754 
L 140.102081 148.92375 
L 140.428531 149.492375 
L 140.591756 149.578692 
L 141.244657 150.713322 
L 141.407882 151.082949 
L 141.571107 150.817394 
L 141.897557 151.291749 
L 142.060782 151.121785 
L 142.387232 151.31202 
L 142.550457 151.795247 
L 142.876907 151.681498 
L 143.366582 153.029093 
L 143.529807 153.487769 
L 143.693032 153.571631 
L 144.019482 154.466573 
L 144.182707 154.505058 
L 144.345932 154.855517 
L 144.509157 154.753942 
L 144.835607 155.290935 
L 144.998832 154.645606 
L 145.162057 154.497654 
L 145.488507 154.836398 
L 145.651732 155.14767 
L 145.814957 154.780705 
L 146.304632 156.206556 
L 146.794307 157.460407 
L 146.957532 157.613895 
L 147.120757 158.012935 
L 147.283982 157.79066 
L 147.610432 158.258164 
L 147.773657 158.407477 
L 148.100107 159.657041 
L 148.753007 160.774258 
L 149.569132 163.729295 
L 149.895582 164.240302 
L 150.711707 166.204803 
L 151.201382 167.1822 
L 151.364607 167.145385 
L 151.691057 167.692353 
L 151.854282 167.716572 
L 152.343957 169.026476 
L 152.507182 168.894582 
L 152.670407 168.909641 
L 152.833632 169.75728 
L 152.996857 169.511939 
L 153.323307 170.223429 
L 153.486532 170.687561 
L 153.649757 171.826931 
L 153.976207 172.289067 
L 154.139432 172.49772 
L 154.629107 173.620211 
L 154.792332 173.763545 
L 155.282007 175.246012 
L 155.445232 175.958025 
L 155.608457 176.066272 
L 156.261357 177.869072 
L 156.424582 177.791261 
L 156.751032 178.825415 
L 156.914258 178.750595 
L 157.077483 179.03 
L 157.403933 180.091243 
L 157.730383 180.437225 
L 157.893608 180.660495 
L 161.321333 191.251898 
L 161.974233 194.26836 
L 162.137458 194.355994 
L 162.300683 195.274544 
L 162.627133 195.803111 
L 163.443258 198.728424 
L 164.259383 201.970736 
L 164.585833 201.456211 
L 164.912283 202.836107 
L 165.075508 202.757298 
L 165.401958 204.341914 
L 165.565183 204.647538 
L 165.891633 205.945955 
L 166.054858 205.764938 
L 166.544533 207.543427 
L 166.870983 208.773048 
L 167.034208 208.862628 
L 167.197433 209.211754 
L 167.360658 210.025777 
L 167.523883 209.999542 
L 168.829683 213.908326 
L 169.156133 215.43073 
L 169.319358 215.696715 
L 170.625158 220.775064 
L 170.788383 221.054941 
L 171.114833 222.567721 
L 171.441283 222.46765 
L 171.604508 222.701153 
L 171.767733 223.367425 
L 171.930958 223.5209 
L 172.257408 224.458683 
L 173.073534 227.665418 
L 173.236759 228.051314 
L 173.399984 229.184189 
L 173.563209 229.481026 
L 173.726434 229.500408 
L 173.889659 229.88809 
L 174.052884 230.727948 
L 174.216109 230.795918 
L 174.542559 231.489881 
L 174.705784 232.043663 
L 174.869009 232.134869 
L 175.195459 233.127669 
L 175.358684 233.375411 
L 176.011584 235.172562 
L 176.338034 235.933109 
L 176.501259 236.537379 
L 176.827709 235.918294 
L 176.990934 236.696859 
L 177.317384 236.988142 
L 178.133509 239.391066 
L 178.296734 239.512326 
L 178.786409 240.777009 
L 179.276084 240.789619 
L 179.602534 242.024359 
L 179.765759 241.954407 
L 179.928984 242.063051 
L 180.092209 241.797053 
L 180.581884 242.781591 
L 180.908334 244.205667 
L 181.234784 245.770748 
L 181.398009 245.847491 
L 181.561234 246.98253 
L 181.724459 246.872324 
L 181.887684 246.929799 
L 182.050909 247.636464 
L 182.214134 247.827822 
L 182.377359 247.373494 
L 182.540584 248.280288 
L 182.703809 248.279776 
L 183.356709 249.333718 
L 183.519934 249.463784 
L 183.846384 250.387446 
L 184.172834 252.238708 
L 184.499284 252.643914 
L 185.315409 254.730142 
L 185.478634 254.873436 
L 185.968309 256.369225 
L 186.131534 256.542735 
L 186.294759 256.932288 
L 186.784434 256.210761 
L 186.947659 256.450934 
L 187.600559 258.635629 
L 187.927009 259.384288 
L 188.090234 259.250009 
L 188.253459 259.461414 
L 188.743135 260.848903 
L 189.069585 260.750939 
L 189.23281 261.059725 
L 189.396035 261.074985 
L 189.55926 261.214311 
L 189.722485 261.562122 
L 189.88571 261.355166 
L 190.21216 262.427361 
L 190.53861 262.182225 
L 190.86506 263.58465 
L 191.028285 263.805525 
L 191.19151 263.380209 
L 191.51796 264.632185 
L 191.681185 264.970315 
L 192.007635 265.109923 
L 192.334085 264.603934 
L 192.49731 264.608592 
L 192.660535 264.952576 
L 192.986985 264.730685 
L 193.313435 266.099113 
L 193.47666 265.579086 
L 193.80311 266.454808 
L 193.966335 266.012639 
L 194.45601 266.571311 
L 194.619235 266.503983 
L 194.78246 267.094796 
L 194.945685 266.681377 
L 195.272135 266.457603 
L 195.76181 268.283915 
L 195.925035 267.486785 
L 196.08826 267.311002 
L 196.251485 267.406374 
L 196.904385 268.305855 
L 197.06761 268.390584 
L 197.230835 268.247763 
L 197.39406 268.4269 
L 197.557285 268.125116 
L 197.72051 268.184576 
L 197.883735 268.423504 
L 198.04696 268.207286 
L 198.37341 268.072091 
L 198.69986 267.883731 
L 198.863085 268.814996 
L 199.02631 268.521784 
L 199.189535 268.660476 
L 199.35276 268.153037 
L 199.67921 268.518496 
L 200.00566 268.374151 
L 200.168885 268.435138 
L 200.495335 267.494642 
L 200.821785 267.328182 
L 201.31146 267.306701 
L 201.474685 267.42237 
L 201.63791 267.704907 
L 201.801135 267.334628 
L 201.96436 267.767554 
L 202.127585 267.613907 
L 202.29081 267.885689 
L 202.454035 267.498324 
L 203.106935 267.380962 
L 203.433385 267.242425 
L 203.92306 266.111612 
L 204.086285 265.992014 
L 204.24951 266.827796 
L 204.412735 266.95778 
L 204.575961 267.27205 
L 204.739186 267.164559 
L 205.065636 266.64688 
L 205.228861 266.516769 
L 205.555311 267.213997 
L 205.881761 266.996979 
L 206.044986 267.132812 
L 206.208211 266.394285 
L 206.371436 266.589552 
L 206.697886 266.003046 
L 207.024336 266.535208 
L 207.514011 265.794211 
L 207.677236 266.297889 
L 208.003686 265.943399 
L 208.493361 266.547008 
L 208.656586 266.51504 
L 208.983036 266.924878 
L 209.472711 266.30537 
L 209.635936 266.549845 
L 209.799161 266.062349 
L 209.962386 266.715411 
L 210.125611 266.574364 
L 210.288836 265.996237 
L 210.452061 266.434747 
L 210.778511 265.785297 
L 210.941736 265.657941 
L 211.104961 266.162938 
L 211.268186 266.258698 
L 211.594636 266.080586 
L 211.757861 266.433028 
L 211.921086 266.026939 
L 212.573986 267.639263 
L 212.737211 268.360431 
L 212.900436 268.40096 
L 213.226886 268.070308 
L 213.390111 267.943728 
L 213.553336 267.675267 
L 213.716561 267.747775 
L 213.879786 267.403203 
L 214.043011 267.737069 
L 214.206236 267.395642 
L 214.369461 267.564421 
L 214.695911 267.163188 
L 214.859136 268.024209 
L 215.022361 268.181976 
L 215.185586 268.669054 
L 215.348811 268.077425 
L 215.512036 268.597615 
L 215.675261 268.633801 
L 216.001711 269.38799 
L 216.164936 269.49296 
L 216.491386 270.643837 
L 216.654611 270.5802 
L 216.981061 271.518335 
L 217.144286 270.910642 
L 217.470736 271.692097 
L 217.633961 271.432021 
L 217.797186 271.688537 
L 217.960411 271.213593 
L 218.123636 271.224778 
L 218.613311 270.558845 
L 218.939761 269.688704 
L 219.429436 269.106857 
L 219.592661 269.374226 
L 219.919111 268.881911 
L 220.245561 268.895158 
L 220.735237 267.258014 
L 220.898462 267.32436 
L 221.224912 267.032598 
L 221.388137 267.241847 
L 221.551362 267.103823 
L 222.041037 265.238346 
L 222.204262 265.166677 
L 222.367487 265.313696 
L 222.530712 264.695318 
L 222.693937 265.401248 
L 222.857162 265.106488 
L 223.020387 265.169289 
L 223.183612 265.664464 
L 223.673287 266.123281 
L 223.836512 265.896102 
L 223.999737 265.176781 
L 224.326187 265.808562 
L 224.489412 265.352018 
L 224.652637 265.511694 
L 224.979087 265.159976 
L 225.305537 266.382127 
L 225.468762 266.527172 
L 225.631987 266.269152 
L 225.795212 266.567069 
L 225.958437 266.406533 
L 226.121662 265.847163 
L 226.284887 266.133504 
L 226.448112 265.761277 
L 226.774562 266.533501 
L 226.937787 266.582142 
L 227.101012 266.246009 
L 227.264237 266.672269 
L 227.590687 266.720503 
L 228.080362 267.558847 
L 228.243587 268.012112 
L 228.406812 268.04294 
L 228.733262 267.375365 
L 228.896487 267.648851 
L 229.059712 267.169872 
L 229.222937 267.114723 
L 229.386162 267.463193 
L 229.549387 267.495213 
L 229.712612 267.839738 
L 229.875837 267.767641 
L 230.039062 267.925837 
L 230.202287 267.742379 
L 230.365512 267.807477 
L 230.528737 267.738539 
L 230.691962 267.470545 
L 230.855187 266.859097 
L 231.181637 267.545884 
L 231.671312 266.094209 
L 231.834537 266.628869 
L 231.997762 266.325274 
L 232.160987 266.735513 
L 232.813887 265.30501 
L 232.977112 265.327546 
L 233.303562 264.934173 
L 233.466787 264.361693 
L 233.630012 264.875847 
L 233.956462 264.593538 
L 234.119687 264.788041 
L 234.282912 264.801686 
L 234.446137 265.656147 
L 234.609362 265.388764 
L 234.772587 265.796553 
L 234.935812 265.347943 
L 235.099037 265.557741 
L 235.425487 266.842946 
L 235.588712 267.001712 
L 235.751937 266.903333 
L 235.915162 267.600904 
L 236.078387 267.270848 
L 236.241613 267.83534 
L 236.404838 267.721267 
L 236.731288 268.514901 
L 237.057738 269.55007 
L 237.220963 269.359265 
L 237.384188 269.43093 
L 237.547413 269.901158 
L 237.710638 269.934456 
L 237.873863 270.210518 
L 238.037088 270.86997 
L 238.200313 270.981046 
L 238.526763 271.458385 
L 238.853213 271.298548 
L 239.016438 271.937802 
L 239.342888 271.992997 
L 239.669338 272.080025 
L 239.832563 271.478772 
L 239.995788 271.679709 
L 240.322238 271.743535 
L 240.485463 272.207453 
L 240.648688 272.102611 
L 240.811913 271.651484 
L 240.975138 271.901224 
L 241.138363 271.325057 
L 241.301588 271.437936 
L 241.464813 271.408834 
L 241.791263 270.605391 
L 241.954488 270.210325 
L 242.117713 270.223403 
L 242.280938 269.661577 
L 242.770613 270.617421 
L 242.933838 270.66994 
L 243.097063 270.323943 
L 243.260288 270.545509 
L 243.423513 270.273761 
L 243.586738 270.554167 
L 243.749963 270.12827 
L 243.913188 270.082322 
L 244.239638 269.133169 
L 244.402863 269.158077 
L 244.566088 269.371898 
L 244.892538 268.36806 
L 245.055763 268.492817 
L 245.218988 268.312095 
L 245.382213 267.817012 
L 245.545438 267.875763 
L 245.871888 266.695742 
L 246.035113 266.552766 
L 246.198338 266.20718 
L 246.361563 266.733777 
L 246.524788 266.672099 
L 246.688013 266.858387 
L 246.851238 267.335528 
L 247.014463 267.365646 
L 247.177688 267.929336 
L 247.340913 267.935906 
L 247.504138 268.238685 
L 247.667363 267.878849 
L 247.830588 268.134798 
L 247.993813 267.933298 
L 248.157038 268.118835 
L 248.320263 267.588326 
L 248.483488 267.466352 
L 248.809938 266.454154 
L 248.973163 267.151147 
L 249.626063 266.205297 
L 249.789288 266.424002 
L 249.952513 266.882969 
L 250.115738 266.586488 
L 250.442188 267.022725 
L 250.768638 266.634357 
L 250.931863 266.199544 
L 251.258313 266.274219 
L 251.584763 266.65132 
L 251.911213 265.828579 
L 252.074439 265.870866 
L 252.564114 266.5171 
L 252.727339 266.07716 
L 252.890564 266.510343 
L 253.053789 266.129891 
L 253.217014 266.097344 
L 253.543464 265.635237 
L 253.869914 266.332751 
L 254.033139 266.289056 
L 254.196364 266.026297 
L 254.522814 264.789941 
L 254.686039 265.318377 
L 254.849264 265.272236 
L 255.012489 264.89018 
L 255.175714 264.979048 
L 255.338939 265.438399 
L 255.502164 264.640111 
L 255.665389 264.572801 
L 255.828614 265.030483 
L 256.318289 264.687641 
L 256.644739 263.908263 
L 256.807964 264.157288 
L 256.971189 263.83636 
L 257.134414 263.987961 
L 257.297639 263.950577 
L 257.460864 263.600546 
L 257.624089 263.864043 
L 257.787314 263.783072 
L 257.950539 263.507307 
L 258.113764 263.853576 
L 258.440214 263.794836 
L 258.603439 263.850584 
L 258.766664 264.218106 
L 258.929889 264.016138 
L 259.093114 263.614913 
L 259.256339 263.915275 
L 259.582789 263.181596 
L 259.746014 263.251556 
L 259.909239 263.033324 
L 260.235689 263.591404 
L 260.398914 263.867344 
L 260.562139 264.417466 
L 261.215039 263.466871 
L 261.378264 263.955774 
L 261.704714 263.384864 
L 261.867939 263.632201 
L 262.031164 263.476032 
L 262.357614 263.032258 
L 262.684064 263.845973 
L 262.847289 263.07628 
L 263.010514 263.476064 
L 263.336964 263.241618 
L 263.663414 262.422218 
L 263.826639 262.304704 
L 263.989864 261.530365 
L 264.153089 261.977958 
L 264.316314 261.364615 
L 264.479539 261.77995 
L 264.805989 260.463945 
L 264.969214 260.105611 
L 265.132439 260.253344 
L 265.295664 260.985454 
L 265.458889 260.522992 
L 265.785339 260.820208 
L 265.948564 260.735563 
L 266.111789 260.822932 
L 266.275014 260.651797 
L 266.438239 260.644148 
L 266.601464 260.494327 
L 266.927914 259.577196 
L 267.091139 259.947249 
L 267.254364 259.621755 
L 267.417589 259.704553 
L 267.580814 259.514928 
L 267.907265 258.831239 
L 268.07049 258.774149 
L 268.233715 258.381043 
L 268.39694 258.490543 
L 268.560165 258.152564 
L 268.72339 258.13063 
L 268.886615 257.298655 
L 269.04984 257.574523 
L 269.213065 258.076104 
L 269.539515 257.747018 
L 269.70274 258.093547 
L 269.865965 258.089182 
L 270.02919 257.796076 
L 270.192415 257.757953 
L 270.35564 257.568047 
L 270.518865 256.585727 
L 270.68209 256.532985 
L 270.845315 256.651208 
L 271.00854 256.25276 
L 271.171765 256.231392 
L 271.33499 255.909953 
L 271.498215 256.707801 
L 271.66144 256.561261 
L 271.824665 256.23665 
L 271.98789 256.789141 
L 272.31434 255.61613 
L 272.477565 255.938147 
L 272.64079 255.673599 
L 272.804015 255.798869 
L 272.96724 256.092781 
L 273.29369 256.12301 
L 273.456915 256.522809 
L 273.62014 255.401077 
L 274.92594 253.366372 
L 275.57884 254.22197 
L 275.742065 253.400568 
L 275.90529 253.403939 
L 276.068515 254.197796 
L 276.23174 254.248246 
L 276.55819 253.913625 
L 276.88464 253.722888 
L 277.374315 253.80928 
L 277.700765 254.248214 
L 277.86399 254.185785 
L 278.19044 254.793278 
L 278.353665 254.784346 
L 278.51689 254.647121 
L 278.84334 254.78426 
L 279.006565 254.504414 
L 279.16979 254.555542 
L 279.333015 255.240953 
L 279.49624 254.728385 
L 279.659465 254.842391 
L 279.82269 254.767424 
L 279.985915 254.991179 
L 280.14914 254.674683 
L 280.47559 255.422682 
L 280.965265 255.208229 
L 281.618165 257.425764 
L 282.10784 257.353695 
L 282.271065 256.955229 
L 282.43429 257.026451 
L 282.597515 256.734494 
L 282.76074 256.809449 
L 282.923965 256.704231 
L 283.08719 256.751022 
L 283.250415 256.493106 
L 283.41364 256.952432 
L 283.576865 256.597306 
L 283.74009 257.157989 
L 283.903316 257.149173 
L 284.229766 257.789744 
L 284.556216 257.7543 
L 284.882666 258.065975 
L 285.045891 258.370356 
L 285.209116 258.106527 
L 285.535566 258.278621 
L 285.862016 257.604255 
L 286.025241 257.55202 
L 286.188466 257.031045 
L 286.351691 257.116289 
L 286.514916 257.450491 
L 286.678141 257.195785 
L 286.841366 256.462202 
L 287.167816 257.168701 
L 287.331041 256.990003 
L 287.494266 257.794144 
L 287.657491 257.357613 
L 287.820716 257.529416 
L 287.983941 257.335711 
L 288.147166 257.482153 
L 288.473616 256.790218 
L 289.126516 258.266071 
L 289.289741 258.428689 
L 289.452966 258.225583 
L 289.616191 258.521028 
L 289.942641 257.795512 
L 290.432316 259.3361 
L 290.758766 260.65619 
L 291.085216 260.175761 
L 291.411666 260.697703 
L 291.738116 259.962866 
L 292.064566 260.271578 
L 292.227791 260.627288 
L 292.391016 260.580259 
L 292.554241 259.47313 
L 292.717466 259.247021 
L 292.880691 259.37694 
L 293.043916 259.077012 
L 293.207141 258.505207 
L 293.370366 258.570674 
L 293.533591 258.082143 
L 293.860041 258.338789 
L 294.186491 258.070203 
L 294.512941 257.856978 
L 294.839391 257.414558 
L 295.165841 257.883339 
L 295.329066 258.236928 
L 295.492291 257.869302 
L 295.655516 257.223078 
L 295.818741 257.312115 
L 295.981966 257.655115 
L 296.308416 256.529783 
L 296.634866 257.626527 
L 297.124541 256.063405 
L 297.287766 256.224941 
L 297.940666 257.70931 
L 298.103891 257.486441 
L 298.267116 256.91649 
L 298.593566 257.120231 
L 298.756791 257.101543 
L 299.083241 257.598405 
L 299.572916 256.293743 
L 299.736142 256.610549 
L 299.899367 256.38334 
L 300.062592 256.392256 
L 300.225817 256.24241 
L 300.389042 256.3665 
L 300.552267 255.690052 
L 300.715492 255.676731 
L 300.878717 255.28126 
L 301.041942 255.501823 
L 301.368392 256.296417 
L 301.531617 256.073081 
L 301.858067 256.428848 
L 302.021292 255.65729 
L 302.184517 256.103119 
L 302.347742 255.988065 
L 302.674192 256.342075 
L 303.000642 256.032268 
L 303.327092 256.659497 
L 303.490317 256.957312 
L 303.653542 256.898329 
L 303.816767 257.777721 
L 304.143217 258.035207 
L 304.306442 257.798977 
L 304.796117 258.923749 
L 304.959342 258.968661 
L 305.122567 258.740814 
L 305.285792 258.844624 
L 305.449017 258.254487 
L 305.612242 258.202339 
L 306.428367 259.310455 
L 306.591592 260.191721 
L 306.754817 260.18658 
L 307.244492 258.626116 
L 307.570942 259.288975 
L 307.734167 259.438189 
L 307.897392 259.435511 
L 308.060617 259.922541 
L 308.387067 259.235623 
L 308.550292 259.169762 
L 308.713517 258.854612 
L 308.876742 259.020001 
L 309.203192 259.744288 
L 309.366417 259.617257 
L 309.692867 260.303383 
L 309.856092 260.024088 
L 310.019317 260.51213 
L 310.508992 259.476691 
L 310.835442 260.024121 
L 310.998667 259.906159 
L 311.325117 260.424793 
L 311.488342 260.230637 
L 311.651567 260.446294 
L 311.814792 260.246124 
L 311.978017 260.524438 
L 312.141242 261.171602 
L 312.304467 261.144676 
L 312.630917 259.873455 
L 312.794142 260.085518 
L 312.957367 259.445652 
L 313.120592 259.573788 
L 313.283817 260.705233 
L 313.447042 260.834504 
L 313.773492 262.412318 
L 314.099942 261.594516 
L 314.426392 261.152964 
L 314.589617 261.066058 
L 314.752842 261.27915 
L 314.916067 260.794631 
L 315.079292 260.702724 
L 315.242517 261.261975 
L 315.405742 260.9635 
L 315.732193 261.261259 
L 316.058643 262.246325 
L 316.385093 261.478572 
L 316.711543 261.934986 
L 316.874768 261.539777 
L 317.037993 261.750627 
L 317.201218 261.775273 
L 317.364443 262.32137 
L 317.690893 260.955964 
L 317.854118 260.05264 
L 318.180568 261.047925 
L 318.343793 260.454999 
L 318.507018 261.031558 
L 318.833468 260.543827 
L 318.996693 260.946281 
L 319.159918 260.89014 
L 319.323143 261.055634 
L 319.486368 261.62841 
L 319.649593 261.173965 
L 319.812818 261.200361 
L 319.976043 261.000143 
L 320.628943 259.358483 
L 320.792168 259.624153 
L 320.955393 258.596502 
L 321.118618 258.462144 
L 321.281843 257.719904 
L 321.445068 258.00673 
L 321.608293 257.940535 
L 321.771518 257.392391 
L 321.934743 257.504192 
L 322.097968 257.236859 
L 322.261193 256.748893 
L 322.424418 257.044341 
L 322.587643 256.909655 
L 322.750868 256.078808 
L 322.914093 256.372936 
L 323.077318 255.954515 
L 323.403768 256.162118 
L 323.566993 256.147011 
L 323.730218 256.353519 
L 324.383118 255.663102 
L 324.546343 255.782145 
L 324.872793 256.546335 
L 325.036018 256.321099 
L 325.362468 257.492534 
L 325.525693 257.564315 
L 325.688918 257.343286 
L 325.852143 257.911577 
L 326.015368 257.927661 
L 326.178593 258.234045 
L 326.341818 258.24697 
L 326.831493 257.362307 
L 326.994718 258.036802 
L 327.321168 257.149402 
L 327.810843 256.521499 
L 327.974068 257.06066 
L 328.137293 256.807937 
L 328.463743 256.753634 
L 328.790193 255.330472 
L 329.116643 256.099689 
L 329.279868 256.393246 
L 329.606318 256.14905 
L 329.769543 255.630348 
L 329.932768 255.71093 
L 330.259218 254.698627 
L 330.422443 255.281438 
L 330.748893 255.387586 
L 330.912118 255.013173 
L 331.075343 255.279023 
L 331.238568 255.184708 
L 331.401794 255.507374 
L 331.728244 255.177141 
L 331.891469 254.983191 
L 332.054694 255.15491 
L 332.217919 255.499229 
L 332.381144 255.449597 
L 332.544369 255.097453 
L 333.034044 255.761967 
L 333.360494 255.114188 
L 333.850169 254.375455 
L 334.013394 254.426614 
L 334.339844 255.878118 
L 334.666294 255.432474 
L 334.829519 255.707141 
L 335.155969 255.159765 
L 335.319194 255.407188 
L 335.645644 254.480471 
L 335.808869 254.925385 
L 335.972094 253.874699 
L 336.461769 253.507193 
L 336.624994 254.024903 
L 336.788219 253.672765 
L 336.951444 253.697876 
L 337.114669 254.081954 
L 337.277894 253.947717 
L 337.441119 254.312451 
L 337.604344 253.77842 
L 337.930794 254.388306 
L 338.094019 254.498539 
L 338.257244 254.921468 
L 338.420469 254.878522 
L 338.583694 254.665789 
L 338.746919 254.981228 
L 339.073369 254.214164 
L 339.236594 254.953606 
L 339.726269 253.889548 
L 340.379169 254.51921 
L 341.521744 252.055585 
L 341.684969 251.099718 
L 341.848194 250.997548 
L 342.174644 251.40167 
L 342.337869 251.139447 
L 342.501094 250.65446 
L 342.827544 250.485848 
L 342.990769 250.554002 
L 343.643669 251.929465 
L 343.806894 251.717483 
L 343.970119 251.956416 
L 344.459794 251.302709 
L 344.623019 251.522099 
L 344.786244 250.916355 
L 345.112694 251.082895 
L 345.275919 251.758654 
L 345.439144 251.420502 
L 345.602369 251.98297 
L 345.765594 251.761882 
L 345.928819 251.737935 
L 346.092044 251.551443 
L 346.581719 250.551045 
L 346.744944 251.227505 
L 346.908169 250.762389 
L 347.071394 250.768057 
L 347.234619 250.469668 
L 347.397845 250.574506 
L 347.56107 250.543833 
L 347.724295 251.083037 
L 348.050745 250.72345 
L 348.54042 251.020185 
L 348.703645 251.386503 
L 349.030095 250.84073 
L 349.19332 250.675121 
L 349.51977 249.725094 
L 349.682995 250.012153 
L 349.84622 249.74841 
L 350.335895 250.788739 
L 350.49912 250.751815 
L 350.662345 250.587786 
L 350.988795 251.011386 
L 351.15202 250.505751 
L 351.315245 250.54229 
L 351.641695 251.678472 
L 351.968145 251.115505 
L 352.13137 251.783074 
L 352.294595 251.636775 
L 352.78427 253.125056 
L 353.11072 252.9381 
L 353.273945 253.342515 
L 353.43717 253.284224 
L 353.76362 254.206895 
L 353.926845 253.88987 
L 354.253295 254.984666 
L 354.41652 254.720907 
L 354.579745 254.818401 
L 354.74297 253.873305 
L 355.06942 255.04553 
L 355.39587 254.199647 
L 355.72232 254.839728 
L 355.885545 254.656098 
L 356.04877 254.900209 
L 356.211995 254.914219 
L 356.538445 255.581297 
L 356.70167 255.362132 
L 356.864895 254.889513 
L 357.191345 255.938658 
L 357.35457 256.168607 
L 357.517795 255.972146 
L 357.68102 255.990812 
L 357.844245 255.778132 
L 358.170695 257.202345 
L 358.33392 256.748069 
L 358.497145 256.700383 
L 358.66037 256.387079 
L 358.98682 257.444981 
L 359.150045 257.250268 
L 359.63972 258.825572 
L 359.802945 258.354514 
L 360.129395 258.564572 
L 360.29262 258.921176 
L 360.61907 258.936283 
L 360.782295 259.547036 
L 361.108745 259.21301 
L 361.27197 259.855101 
L 361.435195 259.587648 
L 361.59842 259.732835 
L 361.761645 259.243602 
L 361.92487 259.756279 
L 362.088095 259.592849 
L 362.25132 259.929357 
L 362.414545 259.968243 
L 363.067445 261.677474 
L 363.230671 260.454023 
L 363.557121 261.158887 
L 363.720346 260.705069 
L 363.883571 261.07282 
L 364.046796 260.595879 
L 364.210021 259.740919 
L 364.699696 261.003225 
L 364.862921 260.859619 
L 365.026146 260.912557 
L 365.189371 260.529347 
L 365.352596 261.013718 
L 365.515821 260.768708 
L 366.005496 261.837679 
L 366.168721 261.04505 
L 366.331946 261.970197 
L 366.495171 262.041637 
L 366.984846 262.698673 
L 367.148071 262.414749 
L 367.311296 262.408724 
L 367.474521 262.009503 
L 367.800971 261.950419 
L 367.964196 261.417731 
L 368.290646 261.514381 
L 368.453871 261.666569 
L 368.780321 260.509642 
L 368.943546 260.443568 
L 369.269996 259.265028 
L 369.433221 259.605115 
L 369.596446 259.536943 
L 369.759671 259.009155 
L 369.922896 259.001812 
L 370.086121 258.756646 
L 370.249346 257.554499 
L 370.412571 257.60229 
L 370.739021 256.99727 
L 370.902246 257.349575 
L 371.065471 257.081907 
L 371.228696 257.319746 
L 371.555146 257.239946 
L 371.881596 258.535099 
L 372.044821 258.467611 
L 372.208046 258.038853 
L 372.371271 258.991145 
L 373.024171 259.481384 
L 373.187396 258.753667 
L 373.350621 259.1398 
L 373.840296 258.983247 
L 374.003521 259.202784 
L 374.329971 260.153242 
L 374.493196 259.709231 
L 374.656421 259.822326 
L 374.819646 259.794581 
L 374.982871 259.594522 
L 375.146096 259.610288 
L 375.472546 258.814037 
L 375.635771 259.044928 
L 375.962221 258.781583 
L 376.125446 258.361633 
L 376.288671 258.790112 
L 376.451896 258.7382 
L 376.615121 258.462135 
L 376.778346 258.566306 
L 376.941571 258.328632 
L 377.104796 258.338063 
L 377.268021 258.513462 
L 377.431246 258.432819 
L 377.757696 258.81969 
L 378.084146 259.111204 
L 378.247371 259.665969 
L 378.410596 259.554261 
L 378.573821 259.2214 
L 378.737046 258.474379 
L 378.900271 258.907693 
L 379.063497 258.34897 
L 379.226722 258.635745 
L 379.389947 258.462819 
L 379.553172 258.523142 
L 379.716397 259.368906 
L 379.879622 258.732492 
L 380.042847 258.906995 
L 380.206072 259.499917 
L 380.369297 258.959654 
L 380.532522 258.869627 
L 380.695747 259.084194 
L 380.858972 258.87878 
L 381.022197 258.862202 
L 381.185422 258.612449 
L 381.348647 258.787901 
L 381.675097 258.295559 
L 381.838322 258.000135 
L 382.001547 259.046984 
L 382.164772 258.66257 
L 382.327997 259.288803 
L 382.491222 258.924353 
L 382.654447 259.197755 
L 382.817672 259.011701 
L 382.980897 258.545177 
L 383.307347 256.673767 
L 383.470572 256.529001 
L 383.633797 256.96827 
L 383.797022 256.898796 
L 383.960247 257.068619 
L 384.123472 256.945896 
L 384.286697 257.311528 
L 384.449922 257.269716 
L 384.776372 256.745844 
L 385.592497 258.353121 
L 385.755722 259.070552 
L 385.918947 259.040945 
L 386.082172 258.827461 
L 386.245397 258.124064 
L 386.408622 258.72776 
L 386.571847 258.866989 
L 386.898297 260.072856 
L 387.061522 260.317903 
L 387.387972 259.94842 
L 387.714422 260.950372 
L 388.040872 259.338925 
L 388.204097 259.541991 
L 388.367322 259.08531 
L 388.530547 259.362118 
L 388.693772 259.950048 
L 389.346672 257.841906 
L 389.509897 257.960044 
L 389.673122 257.91892 
L 389.999572 258.247798 
L 390.162797 258.063028 
L 390.326022 258.11236 
L 390.489247 257.805132 
L 390.815697 256.43182 
L 391.142147 256.144674 
L 391.305372 256.322121 
L 391.631822 256.225248 
L 391.795047 256.825678 
L 391.958272 256.233474 
L 392.121497 256.395354 
L 392.447947 255.757956 
L 392.611172 255.836809 
L 392.937622 255.224846 
L 393.100847 255.373469 
L 393.264072 255.043622 
L 393.427297 255.114287 
L 393.753747 255.736819 
L 393.916972 255.959987 
L 394.243422 254.358886 
L 394.406647 254.908362 
L 394.733097 254.762506 
L 394.896323 254.888537 
L 395.059548 255.237011 
L 395.712448 255.056495 
L 395.875673 254.571545 
L 396.202123 253.261898 
L 396.365348 252.7468 
L 396.528573 252.718577 
L 396.691798 252.362197 
L 397.018248 253.298393 
L 397.671148 252.348916 
L 397.834373 252.501402 
L 397.997598 251.976118 
L 398.160823 252.393442 
L 398.324048 252.467041 
L 398.487273 252.311057 
L 398.487273 252.311057 
" clip-path="url(#pc107013c0a)" style="fill: none; stroke: #ff7f0e; stroke-width: 1.5; stroke-linecap: square"/>
   </g>
   <g id="patch_3">
    <path d="M 57.6 307.584 
L 57.6 41.472 
" style="fill: none; stroke: #000000; stroke-width: 0.8; stroke-linejoin: miter; stroke-linecap: square"/>
   </g>
   <g id="patch_4">
    <path d="M 414.72 307.584 
L 414.72 41.472 
" style="fill: none; stroke: #000000; stroke-width: 0.8; stroke-linejoin: miter; stroke-linecap: square"/>
   </g>
   <g id="patch_5">
    <path d="M 57.6 307.584 
L 414.72 307.584 
" style="fill: none; stroke: #000000; stroke-width: 0.8; stroke-linejoin: miter; stroke-linecap: square"/>
   </g>
   <g id="patch_6">
    <path d="M 57.6 41.472 
L 414.72 41.472 
" style="fill: none; stroke: #000000; stroke-width: 0.8; stroke-linejoin: miter; stroke-linecap: square"/>
   </g>
   <g id="text_16">
    <!-- Rolling average training progress of actions/price_new -->
    <g transform="translate(73.005938 35.472)scale(0.12 -0.12)">
     <defs>
      <path id="DejaVuSans-52" d="M 2841 2188 
Q 3044 2119 3236 1894 
Q 3428 1669 3622 1275 
L 4263 0 
L 3584 0 
L 2988 1197 
Q 2756 1666 2539 1819 
Q 2322 1972 1947 1972 
L 1259 1972 
L 1259 0 
L 628 0 
L 628 4666 
L 2053 4666 
Q 2853 4666 3247 4331 
Q 3641 3997 3641 3322 
Q 3641 2881 3436 2590 
Q 3231 2300 2841 2188 
z
M 1259 4147 
L 1259 2491 
L 2053 2491 
Q 2509 2491 2742 2702 
Q 2975 2913 2975 3322 
Q 2975 3731 2742 3939 
Q 2509 4147 2053 4147 
L 1259 4147 
z
" transform="scale(0.015625)"/>
      <path id="DejaVuSans-6c" d="M 603 4863 
L 1178 4863 
L 1178 0 
L 603 0 
L 603 4863 
z
" transform="scale(0.015625)"/>
      <path id="DejaVuSans-67" d="M 2906 1791 
Q 2906 2416 2648 2759 
Q 2391 3103 1925 3103 
Q 1463 3103 1205 2759 
Q 947 2416 947 1791 
Q 947 1169 1205 825 
Q 1463 481 1925 481 
Q 2391 481 2648 825 
Q 2906 1169 2906 1791 
z
M 3481 434 
Q 3481 -459 3084 -895 
Q 2688 -1331 1869 -1331 
Q 1566 -1331 1297 -1286 
Q 1028 -1241 775 -1147 
L 775 -588 
Q 1028 -725 1275 -790 
Q 1522 -856 1778 -856 
Q 2344 -856 2625 -561 
Q 2906 -266 2906 331 
L 2906 616 
Q 2728 306 2450 153 
Q 2172 0 1784 0 
Q 1141 0 747 490 
Q 353 981 353 1791 
Q 353 2603 747 3093 
Q 1141 3584 1784 3584 
Q 2172 3584 2450 3431 
Q 2728 3278 2906 2969 
L 2906 3500 
L 3481 3500 
L 3481 434 
z
" transform="scale(0.015625)"/>
      <path id="DejaVuSans-20" transform="scale(0.015625)"/>
      <path id="DejaVuSans-76" d="M 191 3500 
L 800 3500 
L 1894 563 
L 2988 3500 
L 3597 3500 
L 2284 0 
L 1503 0 
L 191 3500 
z
" transform="scale(0.015625)"/>
      <path id="DejaVuSans-66" d="M 2375 4863 
L 2375 4384 
L 1825 4384 
Q 1516 4384 1395 4259 
Q 1275 4134 1275 3809 
L 1275 3500 
L 2222 3500 
L 2222 3053 
L 1275 3053 
L 1275 0 
L 697 0 
L 697 3053 
L 147 3053 
L 147 3500 
L 697 3500 
L 697 3744 
Q 697 4328 969 4595 
Q 1241 4863 1831 4863 
L 2375 4863 
z
" transform="scale(0.015625)"/>
     </defs>
     <use xlink:href="#DejaVuSans-52"/>
     <use xlink:href="#DejaVuSans-6f" x="64.982422"/>
     <use xlink:href="#DejaVuSans-6c" x="126.164062"/>
     <use xlink:href="#DejaVuSans-6c" x="153.947266"/>
     <use xlink:href="#DejaVuSans-69" x="181.730469"/>
     <use xlink:href="#DejaVuSans-6e" x="209.513672"/>
     <use xlink:href="#DejaVuSans-67" x="272.892578"/>
     <use xlink:href="#DejaVuSans-20" x="336.369141"/>
     <use xlink:href="#DejaVuSans-61" x="368.15625"/>
     <use xlink:href="#DejaVuSans-76" x="429.435547"/>
     <use xlink:href="#DejaVuSans-65" x="488.615234"/>
     <use xlink:href="#DejaVuSans-72" x="550.138672"/>
     <use xlink:href="#DejaVuSans-61" x="591.251953"/>
     <use xlink:href="#DejaVuSans-67" x="652.53125"/>
     <use xlink:href="#DejaVuSans-65" x="716.007812"/>
     <use xlink:href="#DejaVuSans-20" x="777.53125"/>
     <use xlink:href="#DejaVuSans-74" x="809.318359"/>
     <use xlink:href="#DejaVuSans-72" x="848.527344"/>
     <use xlink:href="#DejaVuSans-61" x="889.640625"/>
     <use xlink:href="#DejaVuSans-69" x="950.919922"/>
     <use xlink:href="#DejaVuSans-6e" x="978.703125"/>
     <use xlink:href="#DejaVuSans-69" x="1042.082031"/>
     <use xlink:href="#DejaVuSans-6e" x="1069.865234"/>
     <use xlink:href="#DejaVuSans-67" x="1133.244141"/>
     <use xlink:href="#DejaVuSans-20" x="1196.720703"/>
     <use xlink:href="#DejaVuSans-70" x="1228.507812"/>
     <use xlink:href="#DejaVuSans-72" x="1291.984375"/>
     <use xlink:href="#DejaVuSans-6f" x="1330.847656"/>
     <use xlink:href="#DejaVuSans-67" x="1392.029297"/>
     <use xlink:href="#DejaVuSans-72" x="1455.505859"/>
     <use xlink:href="#DejaVuSans-65" x="1494.369141"/>
     <use xlink:href="#DejaVuSans-73" x="1555.892578"/>
     <use xlink:href="#DejaVuSans-73" x="1607.992188"/>
     <use xlink:href="#DejaVuSans-20" x="1660.091797"/>
     <use xlink:href="#DejaVuSans-6f" x="1691.878906"/>
     <use xlink:href="#DejaVuSans-66" x="1753.060547"/>
     <use xlink:href="#DejaVuSans-20" x="1788.265625"/>
     <use xlink:href="#DejaVuSans-61" x="1820.052734"/>
     <use xlink:href="#DejaVuSans-63" x="1881.332031"/>
     <use xlink:href="#DejaVuSans-74" x="1936.3125"/>
     <use xlink:href="#DejaVuSans-69" x="1975.521484"/>
     <use xlink:href="#DejaVuSans-6f" x="2003.304688"/>
     <use xlink:href="#DejaVuSans-6e" x="2064.486328"/>
     <use xlink:href="#DejaVuSans-73" x="2127.865234"/>
     <use xlink:href="#DejaVuSans-2f" x="2179.964844"/>
     <use xlink:href="#DejaVuSans-70" x="2213.65625"/>
     <use xlink:href="#DejaVuSans-72" x="2277.132812"/>
     <use xlink:href="#DejaVuSans-69" x="2318.246094"/>
     <use xlink:href="#DejaVuSans-63" x="2346.029297"/>
     <use xlink:href="#DejaVuSans-65" x="2401.009766"/>
     <use xlink:href="#DejaVuSans-5f" x="2462.533203"/>
     <use xlink:href="#DejaVuSans-6e" x="2512.533203"/>
     <use xlink:href="#DejaVuSans-65" x="2575.912109"/>
     <use xlink:href="#DejaVuSans-77" x="2637.435547"/>
    </g>
   </g>
   <g id="legend_1">
    <g id="patch_7">
     <path d="M 188.2825 78.82825 
L 407.72 78.82825 
Q 409.72 78.82825 409.72 76.82825 
L 409.72 48.472 
Q 409.72 46.472 407.72 46.472 
L 188.2825 46.472 
Q 186.2825 46.472 186.2825 48.472 
L 186.2825 76.82825 
Q 186.2825 78.82825 188.2825 78.82825 
z
" style="fill: #ffffff; opacity: 0.8; stroke: #cccccc; stroke-linejoin: miter"/>
    </g>
    <g id="line2d_29">
     <path d="M 190.2825 54.570437 
L 200.2825 54.570437 
L 210.2825 54.570437 
" style="fill: none; stroke: #1f77b4; stroke-width: 1.5; stroke-linecap: square"/>
    </g>
    <g id="text_17">
     <!-- StableBaselinesSAC -->
     <g transform="translate(218.2825 58.070437)scale(0.1 -0.1)">
      <defs>
       <path id="DejaVuSans-53" d="M 3425 4513 
L 3425 3897 
Q 3066 4069 2747 4153 
Q 2428 4238 2131 4238 
Q 1616 4238 1336 4038 
Q 1056 3838 1056 3469 
Q 1056 3159 1242 3001 
Q 1428 2844 1947 2747 
L 2328 2669 
Q 3034 2534 3370 2195 
Q 3706 1856 3706 1288 
Q 3706 609 3251 259 
Q 2797 -91 1919 -91 
Q 1588 -91 1214 -16 
Q 841 59 441 206 
L 441 856 
Q 825 641 1194 531 
Q 1563 422 1919 422 
Q 2459 422 2753 634 
Q 3047 847 3047 1241 
Q 3047 1584 2836 1778 
Q 2625 1972 2144 2069 
L 1759 2144 
Q 1053 2284 737 2584 
Q 422 2884 422 3419 
Q 422 4038 858 4394 
Q 1294 4750 2059 4750 
Q 2388 4750 2728 4690 
Q 3069 4631 3425 4513 
z
" transform="scale(0.015625)"/>
       <path id="DejaVuSans-62" d="M 3116 1747 
Q 3116 2381 2855 2742 
Q 2594 3103 2138 3103 
Q 1681 3103 1420 2742 
Q 1159 2381 1159 1747 
Q 1159 1113 1420 752 
Q 1681 391 2138 391 
Q 2594 391 2855 752 
Q 3116 1113 3116 1747 
z
M 1159 2969 
Q 1341 3281 1617 3432 
Q 1894 3584 2278 3584 
Q 2916 3584 3314 3078 
Q 3713 2572 3713 1747 
Q 3713 922 3314 415 
Q 2916 -91 2278 -91 
Q 1894 -91 1617 61 
Q 1341 213 1159 525 
L 1159 0 
L 581 0 
L 581 4863 
L 1159 4863 
L 1159 2969 
z
" transform="scale(0.015625)"/>
       <path id="DejaVuSans-42" d="M 1259 2228 
L 1259 519 
L 2272 519 
Q 2781 519 3026 730 
Q 3272 941 3272 1375 
Q 3272 1813 3026 2020 
Q 2781 2228 2272 2228 
L 1259 2228 
z
M 1259 4147 
L 1259 2741 
L 2194 2741 
Q 2656 2741 2882 2914 
Q 3109 3088 3109 3444 
Q 3109 3797 2882 3972 
Q 2656 4147 2194 4147 
L 1259 4147 
z
M 628 4666 
L 2241 4666 
Q 2963 4666 3353 4366 
Q 3744 4066 3744 3513 
Q 3744 3084 3544 2831 
Q 3344 2578 2956 2516 
Q 3422 2416 3680 2098 
Q 3938 1781 3938 1306 
Q 3938 681 3513 340 
Q 3088 0 2303 0 
L 628 0 
L 628 4666 
z
" transform="scale(0.015625)"/>
       <path id="DejaVuSans-41" d="M 2188 4044 
L 1331 1722 
L 3047 1722 
L 2188 4044 
z
M 1831 4666 
L 2547 4666 
L 4325 0 
L 3669 0 
L 3244 1197 
L 1141 1197 
L 716 0 
L 50 0 
L 1831 4666 
z
" transform="scale(0.015625)"/>
       <path id="DejaVuSans-43" d="M 4122 4306 
L 4122 3641 
Q 3803 3938 3442 4084 
Q 3081 4231 2675 4231 
Q 1875 4231 1450 3742 
Q 1025 3253 1025 2328 
Q 1025 1406 1450 917 
Q 1875 428 2675 428 
Q 3081 428 3442 575 
Q 3803 722 4122 1019 
L 4122 359 
Q 3791 134 3420 21 
Q 3050 -91 2638 -91 
Q 1578 -91 968 557 
Q 359 1206 359 2328 
Q 359 3453 968 4101 
Q 1578 4750 2638 4750 
Q 3056 4750 3426 4639 
Q 3797 4528 4122 4306 
z
" transform="scale(0.015625)"/>
      </defs>
      <use xlink:href="#DejaVuSans-53"/>
      <use xlink:href="#DejaVuSans-74" x="63.476562"/>
      <use xlink:href="#DejaVuSans-61" x="102.685547"/>
      <use xlink:href="#DejaVuSans-62" x="163.964844"/>
      <use xlink:href="#DejaVuSans-6c" x="227.441406"/>
      <use xlink:href="#DejaVuSans-65" x="255.224609"/>
      <use xlink:href="#DejaVuSans-42" x="316.748047"/>
      <use xlink:href="#DejaVuSans-61" x="385.351562"/>
      <use xlink:href="#DejaVuSans-73" x="446.630859"/>
      <use xlink:href="#DejaVuSans-65" x="498.730469"/>
      <use xlink:href="#DejaVuSans-6c" x="560.253906"/>
      <use xlink:href="#DejaVuSans-69" x="588.037109"/>
      <use xlink:href="#DejaVuSans-6e" x="615.820312"/>
      <use xlink:href="#DejaVuSans-65" x="679.199219"/>
      <use xlink:href="#DejaVuSans-73" x="740.722656"/>
      <use xlink:href="#DejaVuSans-53" x="792.822266"/>
      <use xlink:href="#DejaVuSans-41" x="858.173828"/>
      <use xlink:href="#DejaVuSans-43" x="924.832031"/>
     </g>
    </g>
    <g id="line2d_30">
     <path d="M 190.2825 69.248562 
L 200.2825 69.248562 
L 210.2825 69.248562 
" style="fill: none; stroke: #ff7f0e; stroke-width: 1.5; stroke-linecap: square"/>
    </g>
    <g id="text_18">
     <!-- RuleBasedCERebuyAgentCompetitive -->
     <g transform="translate(218.2825 72.748562)scale(0.1 -0.1)">
      <defs>
       <path id="DejaVuSans-75" d="M 544 1381 
L 544 3500 
L 1119 3500 
L 1119 1403 
Q 1119 906 1312 657 
Q 1506 409 1894 409 
Q 2359 409 2629 706 
Q 2900 1003 2900 1516 
L 2900 3500 
L 3475 3500 
L 3475 0 
L 2900 0 
L 2900 538 
Q 2691 219 2414 64 
Q 2138 -91 1772 -91 
Q 1169 -91 856 284 
Q 544 659 544 1381 
z
M 1991 3584 
L 1991 3584 
z
" transform="scale(0.015625)"/>
       <path id="DejaVuSans-79" d="M 2059 -325 
Q 1816 -950 1584 -1140 
Q 1353 -1331 966 -1331 
L 506 -1331 
L 506 -850 
L 844 -850 
Q 1081 -850 1212 -737 
Q 1344 -625 1503 -206 
L 1606 56 
L 191 3500 
L 800 3500 
L 1894 763 
L 2988 3500 
L 3597 3500 
L 2059 -325 
z
" transform="scale(0.015625)"/>
       <path id="DejaVuSans-6d" d="M 3328 2828 
Q 3544 3216 3844 3400 
Q 4144 3584 4550 3584 
Q 5097 3584 5394 3201 
Q 5691 2819 5691 2113 
L 5691 0 
L 5113 0 
L 5113 2094 
Q 5113 2597 4934 2840 
Q 4756 3084 4391 3084 
Q 3944 3084 3684 2787 
Q 3425 2491 3425 1978 
L 3425 0 
L 2847 0 
L 2847 2094 
Q 2847 2600 2669 2842 
Q 2491 3084 2119 3084 
Q 1678 3084 1418 2786 
Q 1159 2488 1159 1978 
L 1159 0 
L 581 0 
L 581 3500 
L 1159 3500 
L 1159 2956 
Q 1356 3278 1631 3431 
Q 1906 3584 2284 3584 
Q 2666 3584 2933 3390 
Q 3200 3197 3328 2828 
z
" transform="scale(0.015625)"/>
      </defs>
      <use xlink:href="#DejaVuSans-52"/>
      <use xlink:href="#DejaVuSans-75" x="64.982422"/>
      <use xlink:href="#DejaVuSans-6c" x="128.361328"/>
      <use xlink:href="#DejaVuSans-65" x="156.144531"/>
      <use xlink:href="#DejaVuSans-42" x="217.667969"/>
      <use xlink:href="#DejaVuSans-61" x="286.271484"/>
      <use xlink:href="#DejaVuSans-73" x="347.550781"/>
      <use xlink:href="#DejaVuSans-65" x="399.650391"/>
      <use xlink:href="#DejaVuSans-64" x="461.173828"/>
      <use xlink:href="#DejaVuSans-43" x="524.650391"/>
      <use xlink:href="#DejaVuSans-45" x="594.474609"/>
      <use xlink:href="#DejaVuSans-52" x="657.658203"/>
      <use xlink:href="#DejaVuSans-65" x="722.640625"/>
      <use xlink:href="#DejaVuSans-62" x="784.164062"/>
      <use xlink:href="#DejaVuSans-75" x="847.640625"/>
      <use xlink:href="#DejaVuSans-79" x="911.019531"/>
      <use xlink:href="#DejaVuSans-41" x="970.199219"/>
      <use xlink:href="#DejaVuSans-67" x="1038.607422"/>
      <use xlink:href="#DejaVuSans-65" x="1102.083984"/>
      <use xlink:href="#DejaVuSans-6e" x="1163.607422"/>
      <use xlink:href="#DejaVuSans-74" x="1226.986328"/>
      <use xlink:href="#DejaVuSans-43" x="1266.195312"/>
      <use xlink:href="#DejaVuSans-6f" x="1336.019531"/>
      <use xlink:href="#DejaVuSans-6d" x="1397.201172"/>
      <use xlink:href="#DejaVuSans-70" x="1494.613281"/>
      <use xlink:href="#DejaVuSans-65" x="1558.089844"/>
      <use xlink:href="#DejaVuSans-74" x="1619.613281"/>
      <use xlink:href="#DejaVuSans-69" x="1658.822266"/>
      <use xlink:href="#DejaVuSans-74" x="1686.605469"/>
      <use xlink:href="#DejaVuSans-69" x="1725.814453"/>
      <use xlink:href="#DejaVuSans-76" x="1753.597656"/>
      <use xlink:href="#DejaVuSans-65" x="1812.777344"/>
     </g>
    </g>
   </g>
  </g>
 </g>
 <defs>
  <clipPath id="pc107013c0a">
   <rect x="57.6" y="41.472" width="357.12" height="266.112"/>
  </clipPath>
 </defs>
</svg>
