<?xml version="1.0" encoding="utf-8" standalone="no"?>
<!DOCTYPE svg PUBLIC "-//W3C//DTD SVG 1.1//EN"
  "http://www.w3.org/Graphics/SVG/1.1/DTD/svg11.dtd">
<svg xmlns:xlink="http://www.w3.org/1999/xlink" width="460.8pt" height="345.6pt" viewBox="0 0 460.8 345.6" xmlns="http://www.w3.org/2000/svg" version="1.1">
 <metadata>
  <rdf:RDF xmlns:dc="http://purl.org/dc/elements/1.1/" xmlns:cc="http://creativecommons.org/ns#" xmlns:rdf="http://www.w3.org/1999/02/22-rdf-syntax-ns#">
   <cc:Work>
    <dc:type rdf:resource="http://purl.org/dc/dcmitype/StillImage"/>
    <dc:date>2022-06-21T09:12:09.412774</dc:date>
    <dc:format>image/svg+xml</dc:format>
    <dc:creator>
     <cc:Agent>
      <dc:title>Matplotlib v3.5.2, https://matplotlib.org/</dc:title>
     </cc:Agent>
    </dc:creator>
   </cc:Work>
  </rdf:RDF>
 </metadata>
 <defs>
  <style type="text/css">*{stroke-linejoin: round; stroke-linecap: butt}</style>
 </defs>
 <g id="figure_1">
  <g id="patch_1">
   <path d="M 0 345.6 
L 460.8 345.6 
L 460.8 0 
L 0 0 
L 0 345.6 
z
" style="fill: none"/>
  </g>
  <g id="axes_1">
   <g id="patch_2">
    <path d="M 57.6 307.584 
L 414.72 307.584 
L 414.72 41.472 
L 57.6 41.472 
L 57.6 307.584 
z
" style="fill: none"/>
   </g>
   <g id="matplotlib.axis_1">
    <g id="xtick_1">
     <g id="line2d_1">
      <path d="M 72.200477 307.584 
L 72.200477 41.472 
" clip-path="url(#p0b863eaa48)" style="fill: none; stroke-dasharray: 2.96,1.28; stroke-dashoffset: 0; stroke: #b0b0b0; stroke-width: 0.8"/>
     </g>
     <g id="line2d_2">
      <defs>
       <path id="mef617cb2fd" d="M 0 0 
L 0 3.5 
" style="stroke: #000000; stroke-width: 0.8"/>
      </defs>
      <g>
       <use xlink:href="#mef617cb2fd" x="72.200477" y="307.584" style="stroke: #000000; stroke-width: 0.8"/>
      </g>
     </g>
     <g id="text_1">
      <!-- 0 -->
      <g transform="translate(69.019227 322.182437)scale(0.1 -0.1)">
       <defs>
        <path id="DejaVuSans-30" d="M 2034 4250 
Q 1547 4250 1301 3770 
Q 1056 3291 1056 2328 
Q 1056 1369 1301 889 
Q 1547 409 2034 409 
Q 2525 409 2770 889 
Q 3016 1369 3016 2328 
Q 3016 3291 2770 3770 
Q 2525 4250 2034 4250 
z
M 2034 4750 
Q 2819 4750 3233 4129 
Q 3647 3509 3647 2328 
Q 3647 1150 3233 529 
Q 2819 -91 2034 -91 
Q 1250 -91 836 529 
Q 422 1150 422 2328 
Q 422 3509 836 4129 
Q 1250 4750 2034 4750 
z
" transform="scale(0.015625)"/>
       </defs>
       <use xlink:href="#DejaVuSans-30"/>
      </g>
     </g>
    </g>
    <g id="xtick_2">
     <g id="line2d_3">
      <path d="M 113.00673 307.584 
L 113.00673 41.472 
" clip-path="url(#p0b863eaa48)" style="fill: none; stroke-dasharray: 2.96,1.28; stroke-dashoffset: 0; stroke: #b0b0b0; stroke-width: 0.8"/>
     </g>
     <g id="line2d_4">
      <g>
       <use xlink:href="#mef617cb2fd" x="113.00673" y="307.584" style="stroke: #000000; stroke-width: 0.8"/>
      </g>
     </g>
     <g id="text_2">
      <!-- 250 -->
      <g transform="translate(103.46298 322.182437)scale(0.1 -0.1)">
       <defs>
        <path id="DejaVuSans-32" d="M 1228 531 
L 3431 531 
L 3431 0 
L 469 0 
L 469 531 
Q 828 903 1448 1529 
Q 2069 2156 2228 2338 
Q 2531 2678 2651 2914 
Q 2772 3150 2772 3378 
Q 2772 3750 2511 3984 
Q 2250 4219 1831 4219 
Q 1534 4219 1204 4116 
Q 875 4013 500 3803 
L 500 4441 
Q 881 4594 1212 4672 
Q 1544 4750 1819 4750 
Q 2544 4750 2975 4387 
Q 3406 4025 3406 3419 
Q 3406 3131 3298 2873 
Q 3191 2616 2906 2266 
Q 2828 2175 2409 1742 
Q 1991 1309 1228 531 
z
" transform="scale(0.015625)"/>
        <path id="DejaVuSans-35" d="M 691 4666 
L 3169 4666 
L 3169 4134 
L 1269 4134 
L 1269 2991 
Q 1406 3038 1543 3061 
Q 1681 3084 1819 3084 
Q 2600 3084 3056 2656 
Q 3513 2228 3513 1497 
Q 3513 744 3044 326 
Q 2575 -91 1722 -91 
Q 1428 -91 1123 -41 
Q 819 9 494 109 
L 494 744 
Q 775 591 1075 516 
Q 1375 441 1709 441 
Q 2250 441 2565 725 
Q 2881 1009 2881 1497 
Q 2881 1984 2565 2268 
Q 2250 2553 1709 2553 
Q 1456 2553 1204 2497 
Q 953 2441 691 2322 
L 691 4666 
z
" transform="scale(0.015625)"/>
       </defs>
       <use xlink:href="#DejaVuSans-32"/>
       <use xlink:href="#DejaVuSans-35" x="63.623047"/>
       <use xlink:href="#DejaVuSans-30" x="127.246094"/>
      </g>
     </g>
    </g>
    <g id="xtick_3">
     <g id="line2d_5">
      <path d="M 153.812982 307.584 
L 153.812982 41.472 
" clip-path="url(#p0b863eaa48)" style="fill: none; stroke-dasharray: 2.96,1.28; stroke-dashoffset: 0; stroke: #b0b0b0; stroke-width: 0.8"/>
     </g>
     <g id="line2d_6">
      <g>
       <use xlink:href="#mef617cb2fd" x="153.812982" y="307.584" style="stroke: #000000; stroke-width: 0.8"/>
      </g>
     </g>
     <g id="text_3">
      <!-- 500 -->
      <g transform="translate(144.269232 322.182437)scale(0.1 -0.1)">
       <use xlink:href="#DejaVuSans-35"/>
       <use xlink:href="#DejaVuSans-30" x="63.623047"/>
       <use xlink:href="#DejaVuSans-30" x="127.246094"/>
      </g>
     </g>
    </g>
    <g id="xtick_4">
     <g id="line2d_7">
      <path d="M 194.619235 307.584 
L 194.619235 41.472 
" clip-path="url(#p0b863eaa48)" style="fill: none; stroke-dasharray: 2.96,1.28; stroke-dashoffset: 0; stroke: #b0b0b0; stroke-width: 0.8"/>
     </g>
     <g id="line2d_8">
      <g>
       <use xlink:href="#mef617cb2fd" x="194.619235" y="307.584" style="stroke: #000000; stroke-width: 0.8"/>
      </g>
     </g>
     <g id="text_4">
      <!-- 750 -->
      <g transform="translate(185.075485 322.182437)scale(0.1 -0.1)">
       <defs>
        <path id="DejaVuSans-37" d="M 525 4666 
L 3525 4666 
L 3525 4397 
L 1831 0 
L 1172 0 
L 2766 4134 
L 525 4134 
L 525 4666 
z
" transform="scale(0.015625)"/>
       </defs>
       <use xlink:href="#DejaVuSans-37"/>
       <use xlink:href="#DejaVuSans-35" x="63.623047"/>
       <use xlink:href="#DejaVuSans-30" x="127.246094"/>
      </g>
     </g>
    </g>
    <g id="xtick_5">
     <g id="line2d_9">
      <path d="M 235.425487 307.584 
L 235.425487 41.472 
" clip-path="url(#p0b863eaa48)" style="fill: none; stroke-dasharray: 2.96,1.28; stroke-dashoffset: 0; stroke: #b0b0b0; stroke-width: 0.8"/>
     </g>
     <g id="line2d_10">
      <g>
       <use xlink:href="#mef617cb2fd" x="235.425487" y="307.584" style="stroke: #000000; stroke-width: 0.8"/>
      </g>
     </g>
     <g id="text_5">
      <!-- 1000 -->
      <g transform="translate(222.700487 322.182437)scale(0.1 -0.1)">
       <defs>
        <path id="DejaVuSans-31" d="M 794 531 
L 1825 531 
L 1825 4091 
L 703 3866 
L 703 4441 
L 1819 4666 
L 2450 4666 
L 2450 531 
L 3481 531 
L 3481 0 
L 794 0 
L 794 531 
z
" transform="scale(0.015625)"/>
       </defs>
       <use xlink:href="#DejaVuSans-31"/>
       <use xlink:href="#DejaVuSans-30" x="63.623047"/>
       <use xlink:href="#DejaVuSans-30" x="127.246094"/>
       <use xlink:href="#DejaVuSans-30" x="190.869141"/>
      </g>
     </g>
    </g>
    <g id="xtick_6">
     <g id="line2d_11">
      <path d="M 276.23174 307.584 
L 276.23174 41.472 
" clip-path="url(#p0b863eaa48)" style="fill: none; stroke-dasharray: 2.96,1.28; stroke-dashoffset: 0; stroke: #b0b0b0; stroke-width: 0.8"/>
     </g>
     <g id="line2d_12">
      <g>
       <use xlink:href="#mef617cb2fd" x="276.23174" y="307.584" style="stroke: #000000; stroke-width: 0.8"/>
      </g>
     </g>
     <g id="text_6">
      <!-- 1250 -->
      <g transform="translate(263.50674 322.182437)scale(0.1 -0.1)">
       <use xlink:href="#DejaVuSans-31"/>
       <use xlink:href="#DejaVuSans-32" x="63.623047"/>
       <use xlink:href="#DejaVuSans-35" x="127.246094"/>
       <use xlink:href="#DejaVuSans-30" x="190.869141"/>
      </g>
     </g>
    </g>
    <g id="xtick_7">
     <g id="line2d_13">
      <path d="M 317.037993 307.584 
L 317.037993 41.472 
" clip-path="url(#p0b863eaa48)" style="fill: none; stroke-dasharray: 2.96,1.28; stroke-dashoffset: 0; stroke: #b0b0b0; stroke-width: 0.8"/>
     </g>
     <g id="line2d_14">
      <g>
       <use xlink:href="#mef617cb2fd" x="317.037993" y="307.584" style="stroke: #000000; stroke-width: 0.8"/>
      </g>
     </g>
     <g id="text_7">
      <!-- 1500 -->
      <g transform="translate(304.312993 322.182437)scale(0.1 -0.1)">
       <use xlink:href="#DejaVuSans-31"/>
       <use xlink:href="#DejaVuSans-35" x="63.623047"/>
       <use xlink:href="#DejaVuSans-30" x="127.246094"/>
       <use xlink:href="#DejaVuSans-30" x="190.869141"/>
      </g>
     </g>
    </g>
    <g id="xtick_8">
     <g id="line2d_15">
      <path d="M 357.844245 307.584 
L 357.844245 41.472 
" clip-path="url(#p0b863eaa48)" style="fill: none; stroke-dasharray: 2.96,1.28; stroke-dashoffset: 0; stroke: #b0b0b0; stroke-width: 0.8"/>
     </g>
     <g id="line2d_16">
      <g>
       <use xlink:href="#mef617cb2fd" x="357.844245" y="307.584" style="stroke: #000000; stroke-width: 0.8"/>
      </g>
     </g>
     <g id="text_8">
      <!-- 1750 -->
      <g transform="translate(345.119245 322.182437)scale(0.1 -0.1)">
       <use xlink:href="#DejaVuSans-31"/>
       <use xlink:href="#DejaVuSans-37" x="63.623047"/>
       <use xlink:href="#DejaVuSans-35" x="127.246094"/>
       <use xlink:href="#DejaVuSans-30" x="190.869141"/>
      </g>
     </g>
    </g>
    <g id="xtick_9">
     <g id="line2d_17">
      <path d="M 398.650498 307.584 
L 398.650498 41.472 
" clip-path="url(#p0b863eaa48)" style="fill: none; stroke-dasharray: 2.96,1.28; stroke-dashoffset: 0; stroke: #b0b0b0; stroke-width: 0.8"/>
     </g>
     <g id="line2d_18">
      <g>
       <use xlink:href="#mef617cb2fd" x="398.650498" y="307.584" style="stroke: #000000; stroke-width: 0.8"/>
      </g>
     </g>
     <g id="text_9">
      <!-- 2000 -->
      <g transform="translate(385.925498 322.182437)scale(0.1 -0.1)">
       <use xlink:href="#DejaVuSans-32"/>
       <use xlink:href="#DejaVuSans-30" x="63.623047"/>
       <use xlink:href="#DejaVuSans-30" x="127.246094"/>
       <use xlink:href="#DejaVuSans-30" x="190.869141"/>
      </g>
     </g>
    </g>
    <g id="text_10">
     <!-- Episode -->
     <g transform="translate(216.5225 335.860562)scale(0.1 -0.1)">
      <defs>
       <path id="DejaVuSans-45" d="M 628 4666 
L 3578 4666 
L 3578 4134 
L 1259 4134 
L 1259 2753 
L 3481 2753 
L 3481 2222 
L 1259 2222 
L 1259 531 
L 3634 531 
L 3634 0 
L 628 0 
L 628 4666 
z
" transform="scale(0.015625)"/>
       <path id="DejaVuSans-70" d="M 1159 525 
L 1159 -1331 
L 581 -1331 
L 581 3500 
L 1159 3500 
L 1159 2969 
Q 1341 3281 1617 3432 
Q 1894 3584 2278 3584 
Q 2916 3584 3314 3078 
Q 3713 2572 3713 1747 
Q 3713 922 3314 415 
Q 2916 -91 2278 -91 
Q 1894 -91 1617 61 
Q 1341 213 1159 525 
z
M 3116 1747 
Q 3116 2381 2855 2742 
Q 2594 3103 2138 3103 
Q 1681 3103 1420 2742 
Q 1159 2381 1159 1747 
Q 1159 1113 1420 752 
Q 1681 391 2138 391 
Q 2594 391 2855 752 
Q 3116 1113 3116 1747 
z
" transform="scale(0.015625)"/>
       <path id="DejaVuSans-69" d="M 603 3500 
L 1178 3500 
L 1178 0 
L 603 0 
L 603 3500 
z
M 603 4863 
L 1178 4863 
L 1178 4134 
L 603 4134 
L 603 4863 
z
" transform="scale(0.015625)"/>
       <path id="DejaVuSans-73" d="M 2834 3397 
L 2834 2853 
Q 2591 2978 2328 3040 
Q 2066 3103 1784 3103 
Q 1356 3103 1142 2972 
Q 928 2841 928 2578 
Q 928 2378 1081 2264 
Q 1234 2150 1697 2047 
L 1894 2003 
Q 2506 1872 2764 1633 
Q 3022 1394 3022 966 
Q 3022 478 2636 193 
Q 2250 -91 1575 -91 
Q 1294 -91 989 -36 
Q 684 19 347 128 
L 347 722 
Q 666 556 975 473 
Q 1284 391 1588 391 
Q 1994 391 2212 530 
Q 2431 669 2431 922 
Q 2431 1156 2273 1281 
Q 2116 1406 1581 1522 
L 1381 1569 
Q 847 1681 609 1914 
Q 372 2147 372 2553 
Q 372 3047 722 3315 
Q 1072 3584 1716 3584 
Q 2034 3584 2315 3537 
Q 2597 3491 2834 3397 
z
" transform="scale(0.015625)"/>
       <path id="DejaVuSans-6f" d="M 1959 3097 
Q 1497 3097 1228 2736 
Q 959 2375 959 1747 
Q 959 1119 1226 758 
Q 1494 397 1959 397 
Q 2419 397 2687 759 
Q 2956 1122 2956 1747 
Q 2956 2369 2687 2733 
Q 2419 3097 1959 3097 
z
M 1959 3584 
Q 2709 3584 3137 3096 
Q 3566 2609 3566 1747 
Q 3566 888 3137 398 
Q 2709 -91 1959 -91 
Q 1206 -91 779 398 
Q 353 888 353 1747 
Q 353 2609 779 3096 
Q 1206 3584 1959 3584 
z
" transform="scale(0.015625)"/>
       <path id="DejaVuSans-64" d="M 2906 2969 
L 2906 4863 
L 3481 4863 
L 3481 0 
L 2906 0 
L 2906 525 
Q 2725 213 2448 61 
Q 2172 -91 1784 -91 
Q 1150 -91 751 415 
Q 353 922 353 1747 
Q 353 2572 751 3078 
Q 1150 3584 1784 3584 
Q 2172 3584 2448 3432 
Q 2725 3281 2906 2969 
z
M 947 1747 
Q 947 1113 1208 752 
Q 1469 391 1925 391 
Q 2381 391 2643 752 
Q 2906 1113 2906 1747 
Q 2906 2381 2643 2742 
Q 2381 3103 1925 3103 
Q 1469 3103 1208 2742 
Q 947 2381 947 1747 
z
" transform="scale(0.015625)"/>
       <path id="DejaVuSans-65" d="M 3597 1894 
L 3597 1613 
L 953 1613 
Q 991 1019 1311 708 
Q 1631 397 2203 397 
Q 2534 397 2845 478 
Q 3156 559 3463 722 
L 3463 178 
Q 3153 47 2828 -22 
Q 2503 -91 2169 -91 
Q 1331 -91 842 396 
Q 353 884 353 1716 
Q 353 2575 817 3079 
Q 1281 3584 2069 3584 
Q 2775 3584 3186 3129 
Q 3597 2675 3597 1894 
z
M 3022 2063 
Q 3016 2534 2758 2815 
Q 2500 3097 2075 3097 
Q 1594 3097 1305 2825 
Q 1016 2553 972 2059 
L 3022 2063 
z
" transform="scale(0.015625)"/>
      </defs>
      <use xlink:href="#DejaVuSans-45"/>
      <use xlink:href="#DejaVuSans-70" x="63.183594"/>
      <use xlink:href="#DejaVuSans-69" x="126.660156"/>
      <use xlink:href="#DejaVuSans-73" x="154.443359"/>
      <use xlink:href="#DejaVuSans-6f" x="206.542969"/>
      <use xlink:href="#DejaVuSans-64" x="267.724609"/>
      <use xlink:href="#DejaVuSans-65" x="331.201172"/>
     </g>
    </g>
   </g>
   <g id="matplotlib.axis_2">
    <g id="ytick_1">
     <g id="line2d_19">
      <path d="M 57.6 304.736527 
L 414.72 304.736527 
" clip-path="url(#p0b863eaa48)" style="fill: none; stroke-dasharray: 2.96,1.28; stroke-dashoffset: 0; stroke: #b0b0b0; stroke-width: 0.8"/>
     </g>
     <g id="line2d_20">
      <defs>
       <path id="m134eb5fdce" d="M 0 0 
L -3.5 0 
" style="stroke: #000000; stroke-width: 0.8"/>
      </defs>
      <g>
       <use xlink:href="#m134eb5fdce" x="57.6" y="304.736527" style="stroke: #000000; stroke-width: 0.8"/>
      </g>
     </g>
     <g id="text_11">
      <!-- 0 -->
      <g transform="translate(44.2375 308.535746)scale(0.1 -0.1)">
       <use xlink:href="#DejaVuSans-30"/>
      </g>
     </g>
    </g>
    <g id="ytick_2">
     <g id="line2d_21">
      <path d="M 57.6 250.588461 
L 414.72 250.588461 
" clip-path="url(#p0b863eaa48)" style="fill: none; stroke-dasharray: 2.96,1.28; stroke-dashoffset: 0; stroke: #b0b0b0; stroke-width: 0.8"/>
     </g>
     <g id="line2d_22">
      <g>
       <use xlink:href="#m134eb5fdce" x="57.6" y="250.588461" style="stroke: #000000; stroke-width: 0.8"/>
      </g>
     </g>
     <g id="text_12">
      <!-- 1 -->
      <g transform="translate(44.2375 254.38768)scale(0.1 -0.1)">
       <use xlink:href="#DejaVuSans-31"/>
      </g>
     </g>
    </g>
    <g id="ytick_3">
     <g id="line2d_23">
      <path d="M 57.6 196.440395 
L 414.72 196.440395 
" clip-path="url(#p0b863eaa48)" style="fill: none; stroke-dasharray: 2.96,1.28; stroke-dashoffset: 0; stroke: #b0b0b0; stroke-width: 0.8"/>
     </g>
     <g id="line2d_24">
      <g>
       <use xlink:href="#m134eb5fdce" x="57.6" y="196.440395" style="stroke: #000000; stroke-width: 0.8"/>
      </g>
     </g>
     <g id="text_13">
      <!-- 2 -->
      <g transform="translate(44.2375 200.239614)scale(0.1 -0.1)">
       <use xlink:href="#DejaVuSans-32"/>
      </g>
     </g>
    </g>
    <g id="ytick_4">
     <g id="line2d_25">
      <path d="M 57.6 142.292329 
L 414.72 142.292329 
" clip-path="url(#p0b863eaa48)" style="fill: none; stroke-dasharray: 2.96,1.28; stroke-dashoffset: 0; stroke: #b0b0b0; stroke-width: 0.8"/>
     </g>
     <g id="line2d_26">
      <g>
       <use xlink:href="#m134eb5fdce" x="57.6" y="142.292329" style="stroke: #000000; stroke-width: 0.8"/>
      </g>
     </g>
     <g id="text_14">
      <!-- 3 -->
      <g transform="translate(44.2375 146.091548)scale(0.1 -0.1)">
       <defs>
        <path id="DejaVuSans-33" d="M 2597 2516 
Q 3050 2419 3304 2112 
Q 3559 1806 3559 1356 
Q 3559 666 3084 287 
Q 2609 -91 1734 -91 
Q 1441 -91 1130 -33 
Q 819 25 488 141 
L 488 750 
Q 750 597 1062 519 
Q 1375 441 1716 441 
Q 2309 441 2620 675 
Q 2931 909 2931 1356 
Q 2931 1769 2642 2001 
Q 2353 2234 1838 2234 
L 1294 2234 
L 1294 2753 
L 1863 2753 
Q 2328 2753 2575 2939 
Q 2822 3125 2822 3475 
Q 2822 3834 2567 4026 
Q 2313 4219 1838 4219 
Q 1578 4219 1281 4162 
Q 984 4106 628 3988 
L 628 4550 
Q 988 4650 1302 4700 
Q 1616 4750 1894 4750 
Q 2613 4750 3031 4423 
Q 3450 4097 3450 3541 
Q 3450 3153 3228 2886 
Q 3006 2619 2597 2516 
z
" transform="scale(0.015625)"/>
       </defs>
       <use xlink:href="#DejaVuSans-33"/>
      </g>
     </g>
    </g>
    <g id="ytick_5">
     <g id="line2d_27">
      <path d="M 57.6 88.144263 
L 414.72 88.144263 
" clip-path="url(#p0b863eaa48)" style="fill: none; stroke-dasharray: 2.96,1.28; stroke-dashoffset: 0; stroke: #b0b0b0; stroke-width: 0.8"/>
     </g>
     <g id="line2d_28">
      <g>
       <use xlink:href="#m134eb5fdce" x="57.6" y="88.144263" style="stroke: #000000; stroke-width: 0.8"/>
      </g>
     </g>
     <g id="text_15">
      <!-- 4 -->
      <g transform="translate(44.2375 91.943482)scale(0.1 -0.1)">
       <defs>
        <path id="DejaVuSans-34" d="M 2419 4116 
L 825 1625 
L 2419 1625 
L 2419 4116 
z
M 2253 4666 
L 3047 4666 
L 3047 1625 
L 3713 1625 
L 3713 1100 
L 3047 1100 
L 3047 0 
L 2419 0 
L 2419 1100 
L 313 1100 
L 313 1709 
L 2253 4666 
z
" transform="scale(0.015625)"/>
       </defs>
       <use xlink:href="#DejaVuSans-34"/>
      </g>
     </g>
    </g>
    <g id="text_16">
     <!-- actions/price_rebuy -->
     <g transform="translate(37.879687 223.474094)rotate(-90)scale(0.1 -0.1)">
      <defs>
       <path id="DejaVuSans-61" d="M 2194 1759 
Q 1497 1759 1228 1600 
Q 959 1441 959 1056 
Q 959 750 1161 570 
Q 1363 391 1709 391 
Q 2188 391 2477 730 
Q 2766 1069 2766 1631 
L 2766 1759 
L 2194 1759 
z
M 3341 1997 
L 3341 0 
L 2766 0 
L 2766 531 
Q 2569 213 2275 61 
Q 1981 -91 1556 -91 
Q 1019 -91 701 211 
Q 384 513 384 1019 
Q 384 1609 779 1909 
Q 1175 2209 1959 2209 
L 2766 2209 
L 2766 2266 
Q 2766 2663 2505 2880 
Q 2244 3097 1772 3097 
Q 1472 3097 1187 3025 
Q 903 2953 641 2809 
L 641 3341 
Q 956 3463 1253 3523 
Q 1550 3584 1831 3584 
Q 2591 3584 2966 3190 
Q 3341 2797 3341 1997 
z
" transform="scale(0.015625)"/>
       <path id="DejaVuSans-63" d="M 3122 3366 
L 3122 2828 
Q 2878 2963 2633 3030 
Q 2388 3097 2138 3097 
Q 1578 3097 1268 2742 
Q 959 2388 959 1747 
Q 959 1106 1268 751 
Q 1578 397 2138 397 
Q 2388 397 2633 464 
Q 2878 531 3122 666 
L 3122 134 
Q 2881 22 2623 -34 
Q 2366 -91 2075 -91 
Q 1284 -91 818 406 
Q 353 903 353 1747 
Q 353 2603 823 3093 
Q 1294 3584 2113 3584 
Q 2378 3584 2631 3529 
Q 2884 3475 3122 3366 
z
" transform="scale(0.015625)"/>
       <path id="DejaVuSans-74" d="M 1172 4494 
L 1172 3500 
L 2356 3500 
L 2356 3053 
L 1172 3053 
L 1172 1153 
Q 1172 725 1289 603 
Q 1406 481 1766 481 
L 2356 481 
L 2356 0 
L 1766 0 
Q 1100 0 847 248 
Q 594 497 594 1153 
L 594 3053 
L 172 3053 
L 172 3500 
L 594 3500 
L 594 4494 
L 1172 4494 
z
" transform="scale(0.015625)"/>
       <path id="DejaVuSans-6e" d="M 3513 2113 
L 3513 0 
L 2938 0 
L 2938 2094 
Q 2938 2591 2744 2837 
Q 2550 3084 2163 3084 
Q 1697 3084 1428 2787 
Q 1159 2491 1159 1978 
L 1159 0 
L 581 0 
L 581 3500 
L 1159 3500 
L 1159 2956 
Q 1366 3272 1645 3428 
Q 1925 3584 2291 3584 
Q 2894 3584 3203 3211 
Q 3513 2838 3513 2113 
z
" transform="scale(0.015625)"/>
       <path id="DejaVuSans-2f" d="M 1625 4666 
L 2156 4666 
L 531 -594 
L 0 -594 
L 1625 4666 
z
" transform="scale(0.015625)"/>
       <path id="DejaVuSans-72" d="M 2631 2963 
Q 2534 3019 2420 3045 
Q 2306 3072 2169 3072 
Q 1681 3072 1420 2755 
Q 1159 2438 1159 1844 
L 1159 0 
L 581 0 
L 581 3500 
L 1159 3500 
L 1159 2956 
Q 1341 3275 1631 3429 
Q 1922 3584 2338 3584 
Q 2397 3584 2469 3576 
Q 2541 3569 2628 3553 
L 2631 2963 
z
" transform="scale(0.015625)"/>
       <path id="DejaVuSans-5f" d="M 3263 -1063 
L 3263 -1509 
L -63 -1509 
L -63 -1063 
L 3263 -1063 
z
" transform="scale(0.015625)"/>
       <path id="DejaVuSans-62" d="M 3116 1747 
Q 3116 2381 2855 2742 
Q 2594 3103 2138 3103 
Q 1681 3103 1420 2742 
Q 1159 2381 1159 1747 
Q 1159 1113 1420 752 
Q 1681 391 2138 391 
Q 2594 391 2855 752 
Q 3116 1113 3116 1747 
z
M 1159 2969 
Q 1341 3281 1617 3432 
Q 1894 3584 2278 3584 
Q 2916 3584 3314 3078 
Q 3713 2572 3713 1747 
Q 3713 922 3314 415 
Q 2916 -91 2278 -91 
Q 1894 -91 1617 61 
Q 1341 213 1159 525 
L 1159 0 
L 581 0 
L 581 4863 
L 1159 4863 
L 1159 2969 
z
" transform="scale(0.015625)"/>
       <path id="DejaVuSans-75" d="M 544 1381 
L 544 3500 
L 1119 3500 
L 1119 1403 
Q 1119 906 1312 657 
Q 1506 409 1894 409 
Q 2359 409 2629 706 
Q 2900 1003 2900 1516 
L 2900 3500 
L 3475 3500 
L 3475 0 
L 2900 0 
L 2900 538 
Q 2691 219 2414 64 
Q 2138 -91 1772 -91 
Q 1169 -91 856 284 
Q 544 659 544 1381 
z
M 1991 3584 
L 1991 3584 
z
" transform="scale(0.015625)"/>
       <path id="DejaVuSans-79" d="M 2059 -325 
Q 1816 -950 1584 -1140 
Q 1353 -1331 966 -1331 
L 506 -1331 
L 506 -850 
L 844 -850 
Q 1081 -850 1212 -737 
Q 1344 -625 1503 -206 
L 1606 56 
L 191 3500 
L 800 3500 
L 1894 763 
L 2988 3500 
L 3597 3500 
L 2059 -325 
z
" transform="scale(0.015625)"/>
      </defs>
      <use xlink:href="#DejaVuSans-61"/>
      <use xlink:href="#DejaVuSans-63" x="61.279297"/>
      <use xlink:href="#DejaVuSans-74" x="116.259766"/>
      <use xlink:href="#DejaVuSans-69" x="155.46875"/>
      <use xlink:href="#DejaVuSans-6f" x="183.251953"/>
      <use xlink:href="#DejaVuSans-6e" x="244.433594"/>
      <use xlink:href="#DejaVuSans-73" x="307.8125"/>
      <use xlink:href="#DejaVuSans-2f" x="359.912109"/>
      <use xlink:href="#DejaVuSans-70" x="393.603516"/>
      <use xlink:href="#DejaVuSans-72" x="457.080078"/>
      <use xlink:href="#DejaVuSans-69" x="498.193359"/>
      <use xlink:href="#DejaVuSans-63" x="525.976562"/>
      <use xlink:href="#DejaVuSans-65" x="580.957031"/>
      <use xlink:href="#DejaVuSans-5f" x="642.480469"/>
      <use xlink:href="#DejaVuSans-72" x="692.480469"/>
      <use xlink:href="#DejaVuSans-65" x="731.34375"/>
      <use xlink:href="#DejaVuSans-62" x="792.867188"/>
      <use xlink:href="#DejaVuSans-75" x="856.34375"/>
      <use xlink:href="#DejaVuSans-79" x="919.722656"/>
     </g>
    </g>
   </g>
   <g id="line2d_29">
    <path d="M 73.832727 53.568 
L 74.648852 96.89683 
L 74.975302 112.176864 
L 75.464977 134.373587 
L 76.117877 154.746462 
L 76.934002 178.842374 
L 77.750128 194.975727 
L 78.566253 208.570109 
L 79.055928 214.412512 
L 79.545603 218.665209 
L 81.667528 233.698058 
L 82.157203 236.165554 
L 83.463003 241.882686 
L 84.115903 244.191383 
L 84.768803 246.11261 
L 85.584928 248.241104 
L 86.890728 251.282029 
L 87.706853 252.941578 
L 87.870078 253.034113 
L 88.522978 253.981203 
L 90.318453 278.044324 
L 90.644903 279.64735 
L 90.808128 280.412486 
L 90.971353 281.789631 
L 91.134578 281.217378 
L 91.297803 281.281053 
L 91.461028 281.915394 
L 91.787478 281.958884 
L 92.113928 282.088451 
L 92.277153 282.433183 
L 92.603603 282.514609 
L 93.582954 280.938106 
L 93.746179 281.209364 
L 93.909404 281.016206 
L 94.235854 280.091927 
L 94.888754 278.613016 
L 95.704879 277.014894 
L 96.194554 276.560572 
L 96.357779 275.900485 
L 96.684229 275.65622 
L 97.010679 274.842051 
L 97.990029 273.713309 
L 99.132604 273.073436 
L 99.459054 272.727034 
L 99.622279 272.577737 
L 99.785504 272.631665 
L 100.275179 272.114833 
L 100.438404 271.623753 
L 100.601629 271.630622 
L 100.764854 271.501932 
L 101.254529 270.746638 
L 101.417754 270.599346 
L 101.580979 270.621971 
L 102.070654 270.269556 
L 102.233879 269.815812 
L 102.560329 269.691108 
L 102.723554 269.645501 
L 102.886779 269.370255 
L 103.050004 269.442402 
L 103.213229 269.222576 
L 103.376454 269.237077 
L 103.866129 268.968305 
L 104.192579 268.703297 
L 104.355804 268.915727 
L 104.519029 268.896087 
L 104.682254 268.334829 
L 104.845479 268.46031 
L 105.008704 268.170535 
L 105.498379 267.970989 
L 105.824829 267.701928 
L 105.988054 267.33325 
L 106.477729 267.417238 
L 106.640954 267.299636 
L 106.967404 267.612459 
L 107.130629 267.705488 
L 107.293854 267.932624 
L 107.457079 267.477941 
L 107.620304 268.000359 
L 107.783529 267.781801 
L 108.436429 268.081353 
L 108.762879 267.575656 
L 109.089329 267.417693 
L 109.252555 267.530529 
L 109.579005 267.232778 
L 109.905455 267.314543 
L 110.06868 267.349277 
L 110.39513 267.120069 
L 110.558355 267.579122 
L 110.72158 267.389301 
L 111.211255 267.463575 
L 111.37448 267.835248 
L 111.537705 267.872435 
L 111.70093 268.119428 
L 111.864155 268.134225 
L 112.190605 268.367427 
L 112.35383 268.828901 
L 112.517055 268.578155 
L 113.00673 269.305935 
L 113.169955 269.299428 
L 113.33318 269.794578 
L 113.496405 269.773403 
L 113.822855 269.98497 
L 114.802205 270.230384 
L 114.96543 270.121657 
L 115.781555 270.407473 
L 115.94478 270.240531 
L 116.434455 270.396751 
L 116.760905 270.591613 
L 116.92413 270.961672 
L 117.25058 271.113932 
L 117.57703 271.723211 
L 117.740255 271.747537 
L 117.90348 271.91166 
L 118.55638 271.752301 
L 118.719605 272.181161 
L 119.20928 272.212913 
L 119.372505 272.453102 
L 119.53573 272.475468 
L 119.86218 272.829129 
L 120.351855 272.641025 
L 121.004755 272.800475 
L 121.16798 273.265448 
L 121.657655 273.470218 
L 122.310555 274.109065 
L 122.47378 274.430412 
L 122.80023 274.50415 
L 123.12668 274.327252 
L 123.45313 274.351097 
L 124.43248 275.345592 
L 124.595705 275.352347 
L 124.75893 275.47349 
L 124.922155 275.321021 
L 125.575056 276.311553 
L 125.738281 276.224692 
L 126.064731 276.526809 
L 126.391181 276.197517 
L 126.554406 276.280505 
L 127.044081 276.166358 
L 127.370531 276.430805 
L 127.533756 276.456241 
L 127.696981 276.337447 
L 128.676331 276.732335 
L 128.839556 276.709675 
L 129.002781 276.973334 
L 129.492456 276.421842 
L 129.818906 276.789862 
L 129.982131 276.910802 
L 130.145356 276.836105 
L 130.635031 277.262658 
L 130.961481 277.087425 
L 131.287931 276.99347 
L 131.614381 277.220049 
L 131.777606 277.184185 
L 131.940831 277.340656 
L 132.430506 277.381219 
L 133.246631 277.610067 
L 133.573081 277.649184 
L 134.062756 277.530706 
L 134.225981 277.604586 
L 134.389206 277.447418 
L 134.715656 277.602853 
L 134.878881 277.273902 
L 135.042106 277.596082 
L 136.347906 277.515437 
L 137.000806 278.361762 
L 137.327256 278.542882 
L 137.490481 278.553253 
L 137.653706 278.722542 
L 137.816931 278.67897 
L 137.980156 278.917028 
L 138.306606 278.891973 
L 138.469831 278.650447 
L 138.796281 278.822483 
L 138.959506 278.94509 
L 139.122731 278.857551 
L 139.285956 278.901001 
L 139.612406 279.367968 
L 139.938856 279.445773 
L 140.265306 279.431724 
L 140.428531 279.527375 
L 140.754981 279.512983 
L 141.571107 279.996259 
L 141.734332 279.939877 
L 141.897557 280.033722 
L 142.060782 279.837779 
L 142.387232 280.097943 
L 142.550457 280.181431 
L 142.876907 280.914278 
L 143.040132 280.93885 
L 143.366582 281.355185 
L 144.998832 282.52463 
L 145.325282 282.523573 
L 145.488507 282.613786 
L 145.978182 283.362753 
L 146.141407 283.223958 
L 146.304632 283.282806 
L 146.467857 283.147904 
L 146.794307 283.360723 
L 146.957532 283.407013 
L 147.120757 283.286913 
L 147.610432 284.032993 
L 147.773657 284.157594 
L 147.936882 284.072868 
L 148.589782 284.353196 
L 148.753007 284.591091 
L 148.916232 284.576238 
L 149.079457 284.393242 
L 149.242682 284.385362 
L 149.405907 284.565969 
L 149.732357 284.66404 
L 150.058807 284.887472 
L 150.385257 285.136199 
L 150.548482 285.036509 
L 151.201382 285.335436 
L 151.364607 285.85384 
L 152.017507 286.169916 
L 152.180732 286.156241 
L 152.343957 286.017823 
L 153.486532 286.113453 
L 153.649757 285.894248 
L 153.976207 286.104348 
L 154.139432 286.129807 
L 154.302657 286.289176 
L 154.629107 286.267933 
L 154.792332 286.317067 
L 154.955557 286.53842 
L 155.282007 286.473978 
L 157.077483 287.251642 
L 157.240708 287.446896 
L 157.403933 287.378674 
L 157.567158 287.083941 
L 158.056833 287.271226 
L 158.220058 287.453322 
L 158.383283 287.4357 
L 158.546508 287.657523 
L 159.036183 287.689446 
L 160.015533 287.858508 
L 160.178758 287.747155 
L 160.505208 287.72409 
L 161.484558 287.778503 
L 161.811008 287.936396 
L 162.300683 287.855003 
L 162.627133 288.135515 
L 162.790358 288.135056 
L 162.953583 288.320209 
L 163.443258 288.166243 
L 163.606483 288.421571 
L 164.096158 288.464537 
L 164.422608 288.538977 
L 164.749058 288.423153 
L 165.401958 288.49163 
L 165.565183 288.722843 
L 165.891633 288.726326 
L 166.218083 288.716963 
L 166.544533 288.751113 
L 166.707758 288.749149 
L 167.034208 289.155216 
L 167.360658 289.20949 
L 167.523883 289.064491 
L 167.850333 289.342724 
L 168.503233 289.402932 
L 168.829683 289.642055 
L 169.319358 289.931467 
L 169.972258 289.989078 
L 170.135483 290.183165 
L 170.461933 290.089722 
L 170.788383 290.1767 
L 171.114833 290.329744 
L 171.441283 290.352745 
L 171.767733 290.493009 
L 172.583858 290.632109 
L 172.747084 290.551327 
L 173.073534 290.660254 
L 173.399984 290.660569 
L 173.726434 290.568732 
L 173.889659 290.696979 
L 174.052884 291.010895 
L 174.216109 290.914674 
L 174.705784 291.067395 
L 175.195459 291.125035 
L 175.521909 291.28397 
L 176.174809 291.221194 
L 176.338034 291.235089 
L 176.501259 291.112486 
L 176.664484 291.219275 
L 176.827709 291.1491 
L 177.154159 291.285116 
L 179.276084 291.715687 
L 180.418659 291.975134 
L 180.745109 291.944899 
L 181.071559 292.318538 
L 181.398009 292.38726 
L 181.561234 292.540473 
L 182.050909 292.609959 
L 182.214134 292.733124 
L 182.377359 292.641223 
L 182.703809 292.745834 
L 183.356709 292.743374 
L 184.009609 292.775401 
L 184.662509 292.722344 
L 184.988959 292.833986 
L 185.152184 292.864961 
L 185.478634 292.804155 
L 186.294759 292.820171 
L 186.457984 292.713068 
L 187.437334 292.860489 
L 187.763784 292.858498 
L 188.253459 293.059308 
L 188.416684 293.016696 
L 188.743135 293.264074 
L 189.88571 293.319947 
L 190.21216 293.383833 
L 190.86506 293.524139 
L 191.354735 293.456727 
L 191.681185 293.434459 
L 192.17086 293.556307 
L 193.15021 293.823347 
L 193.47666 294.039923 
L 197.72051 294.227249 
L 198.210185 294.238696 
L 199.35276 294.335948 
L 199.67921 294.301689 
L 201.63791 294.610013 
L 202.127585 294.54939 
L 202.29081 294.403266 
L 202.780485 294.481392 
L 203.106935 294.634545 
L 205.065636 294.570742 
L 205.228861 294.485083 
L 206.371436 294.68775 
L 208.330136 294.871792 
L 208.656586 294.826575 
L 211.757861 294.795009 
L 212.900436 294.874034 
L 213.390111 294.858486 
L 214.043011 294.942812 
L 216.164936 294.889594 
L 216.328161 294.889226 
L 216.654611 294.676031 
L 217.307511 294.649007 
L 217.633961 294.69437 
L 217.960411 294.5847 
L 218.123636 294.590401 
L 218.450086 294.789179 
L 218.613311 294.824562 
L 218.939761 295.042264 
L 219.592661 295.065817 
L 220.245561 295.064834 
L 220.572012 295.25332 
L 221.061687 295.354671 
L 222.204262 295.441538 
L 223.836512 295.402703 
L 223.999737 295.421171 
L 224.162962 295.269002 
L 224.489412 295.322815 
L 225.142312 295.280677 
L 225.958437 295.239705 
L 226.448112 295.379098 
L 227.264237 295.41354 
L 229.059712 295.343411 
L 230.855187 295.120446 
L 231.834537 295.08318 
L 232.324212 295.106464 
L 232.977112 295.271754 
L 234.609362 295.378755 
L 234.935812 295.255932 
L 235.099037 294.095176 
L 238.037088 293.670928 
L 238.200313 292.089315 
L 240.485463 292.043634 
L 240.811913 292.155042 
L 241.138363 292.062975 
L 241.791263 292.22426 
L 241.954488 291.265053 
L 243.097063 291.238295 
L 243.913188 291.200913 
L 244.076413 289.37119 
L 245.871888 289.431826 
L 246.688013 289.619691 
L 247.177688 289.585782 
L 247.993813 289.632127 
L 248.483488 289.603477 
L 248.809938 289.61029 
L 248.973163 289.248291 
L 249.299613 289.202747 
L 249.626063 289.342061 
L 251.421538 289.507688 
L 251.584763 290.633864 
L 252.727339 290.680506 
L 252.890564 290.142683 
L 253.380239 290.132252 
L 253.869914 290.189665 
L 254.359589 290.186925 
L 254.522814 290.311958 
L 254.686039 291.904574 
L 256.155064 291.829738 
L 256.318289 291.798192 
L 256.481514 291.910736 
L 256.644739 291.507739 
L 258.113764 291.676409 
L 258.276989 291.295036 
L 258.440214 292.20721 
L 260.398914 292.090111 
L 260.562139 293.926337 
L 261.541489 293.881951 
L 262.031164 293.954803 
L 262.357614 293.912318 
L 262.684064 293.626021 
L 263.336964 293.706831 
L 265.295664 293.766676 
L 265.458889 294.147416 
L 266.111789 294.141432 
L 266.438239 293.574848 
L 267.907265 293.442499 
L 268.233715 293.351915 
L 268.39694 293.313518 
L 268.72339 293.390685 
L 269.213065 293.407137 
L 269.37629 293.966234 
L 270.192415 293.847165 
L 270.35564 293.509019 
L 271.00854 293.475651 
L 272.804015 293.215131 
L 272.96724 293.064194 
L 273.130465 293.463452 
L 274.59949 293.304065 
L 274.762715 293.651283 
L 276.394965 293.580591 
L 276.721415 293.718357 
L 276.88464 293.348603 
L 277.86399 293.271389 
L 278.353665 293.193277 
L 278.84334 293.216003 
L 279.006565 292.996627 
L 279.16979 293.046641 
L 279.333015 292.860756 
L 279.82269 292.838136 
L 280.965265 292.819222 
L 282.10784 292.708578 
L 282.597515 292.706459 
L 282.923965 293.231881 
L 283.250415 293.268196 
L 283.41364 293.035903 
L 283.903316 293.124479 
L 284.066541 292.974709 
L 286.188466 293.104037 
L 286.351691 292.606924 
L 286.678141 292.639039 
L 286.841366 292.947411 
L 287.657491 292.959731 
L 287.820716 292.593372 
L 288.473616 292.612626 
L 288.636841 292.129449 
L 288.963291 292.112802 
L 289.126516 292.346491 
L 289.942641 292.21716 
L 290.432316 292.294048 
L 291.085216 292.330876 
L 291.248441 292.245271 
L 291.901341 292.302757 
L 292.391016 292.338993 
L 292.717466 292.433526 
L 293.370366 292.357522 
L 294.023266 292.336683 
L 294.839391 292.359523 
L 295.165841 292.369725 
L 295.329066 292.208417 
L 295.492291 292.617595 
L 295.655516 292.488283 
L 295.818741 292.660991 
L 296.471641 292.561288 
L 296.798091 292.51084 
L 297.614216 292.507304 
L 297.940666 292.419499 
L 298.267116 292.5014 
L 299.246466 292.45739 
L 300.878717 292.871082 
L 301.694842 292.741441 
L 302.347742 292.735269 
L 302.674192 292.663811 
L 302.837417 293.208757 
L 304.143217 293.184652 
L 304.306442 293.54338 
L 304.632892 293.434465 
L 304.959342 293.418223 
L 305.122567 293.905955 
L 305.775467 293.91258 
L 305.938692 294.120359 
L 306.265142 294.03326 
L 306.918042 294.048751 
L 307.570942 293.956881 
L 307.897392 294.021983 
L 308.060617 293.759002 
L 309.692867 293.678231 
L 309.856092 294.059985 
L 310.345767 294.054855 
L 311.651567 294.069518 
L 311.814792 294.22639 
L 311.978017 294.193358 
L 312.141242 294.339265 
L 312.630917 294.170482 
L 313.283817 294.293041 
L 314.099942 294.344489 
L 314.263167 294.156709 
L 314.589617 294.232295 
L 315.242517 294.197231 
L 317.201218 293.905484 
L 317.690893 293.857085 
L 318.996693 293.785807 
L 319.976043 293.737991 
L 320.139268 293.721429 
L 320.302493 293.255795 
L 320.628943 293.217341 
L 320.792168 293.184408 
L 320.955393 293.284983 
L 321.281843 293.245165 
L 321.445068 292.910104 
L 322.097968 292.891048 
L 323.893443 292.829044 
L 324.383118 292.837741 
L 324.546343 293.041648 
L 325.525693 292.804061 
L 325.852143 292.671787 
L 327.810843 292.690374 
L 328.137293 292.578226 
L 328.626968 292.573422 
L 329.116643 292.713094 
L 329.606318 292.730419 
L 329.769543 292.483093 
L 330.585668 292.410942 
L 330.748893 292.629158 
L 331.075343 292.521036 
L 331.565019 292.566652 
L 332.054694 292.537852 
L 332.217919 292.172657 
L 332.381144 292.293985 
L 333.850169 292.191637 
L 334.503069 292.202323 
L 335.319194 292.216705 
L 335.972094 292.300799 
L 336.298544 292.243029 
L 336.461769 291.93652 
L 336.624994 291.911411 
L 336.788219 292.316754 
L 337.604344 292.301137 
L 340.379169 292.311177 
L 341.032069 292.276995 
L 341.195294 292.307665 
L 341.521744 292.264836 
L 342.011419 292.367782 
L 342.174644 292.524095 
L 343.317219 292.275225 
L 345.439144 292.257804 
L 346.092044 292.237096 
L 346.255269 292.450326 
L 346.418494 292.381188 
L 346.581719 291.970675 
L 347.56107 291.895875 
L 347.88752 291.726501 
L 348.377195 291.775356 
L 348.54042 291.728625 
L 348.703645 292.103855 
L 349.030095 292.084637 
L 349.51977 292.068299 
L 349.682995 291.827812 
L 350.009445 291.890864 
L 350.662345 291.83518 
L 350.82557 291.315 
L 352.78427 291.325887 
L 352.947495 291.622085 
L 353.11072 291.630147 
L 353.43717 291.464848 
L 354.253295 291.443564 
L 354.41652 291.728686 
L 354.74297 291.68314 
L 355.06942 291.386735 
L 355.72232 291.252552 
L 356.211995 291.294874 
L 356.70167 290.552243 
L 358.00747 290.562957 
L 358.170695 289.909501 
L 360.129395 289.680034 
L 360.29262 289.359821 
L 360.94552 289.251872 
L 362.90422 289.153368 
L 363.230671 288.944303 
L 363.393896 288.940083 
L 363.720346 288.00615 
L 364.046796 288.021024 
L 364.536471 288.043553 
L 365.352596 288.104451 
L 365.679046 288.070207 
L 365.842271 288.108409 
L 366.005496 287.91119 
L 366.168721 288.112003 
L 367.148071 288.080534 
L 367.311296 288.589623 
L 369.922896 288.763106 
L 370.575796 288.752907 
L 370.902246 288.715265 
L 371.065471 288.772256 
L 371.228696 288.679132 
L 371.555146 288.889635 
L 372.371271 288.800143 
L 372.697721 288.801242 
L 373.187396 289.670106 
L 373.513846 289.588215 
L 374.166746 289.584179 
L 374.493196 289.491499 
L 374.656421 290.130267 
L 376.125446 290.218007 
L 376.288671 289.890154 
L 377.594471 290.282731 
L 377.920921 290.278147 
L 378.084146 290.309661 
L 378.247371 289.882213 
L 379.389947 289.992831 
L 379.553172 290.583976 
L 379.879622 290.608285 
L 380.369297 291.475949 
L 380.532522 291.422372 
L 380.858972 291.523173 
L 381.022197 291.474195 
L 381.185422 291.174008 
L 382.327997 290.926325 
L 382.654447 291.179426 
L 384.449922 290.987452 
L 384.776372 290.907043 
L 385.266047 290.804101 
L 385.592497 290.68507 
L 385.755722 290.495293 
L 387.387972 290.448464 
L 387.714422 290.165333 
L 388.204097 290.185896 
L 388.367322 289.781727 
L 389.183447 289.632927 
L 389.836347 289.437537 
L 390.489247 289.408418 
L 391.305372 289.310159 
L 392.284722 289.211825 
L 392.611172 288.858609 
L 392.774397 289.234277 
L 393.264072 289.283058 
L 393.427297 288.747159 
L 393.753747 288.723021 
L 393.916972 288.180808 
L 394.569872 288.044819 
L 395.059548 287.947289 
L 395.222773 287.906499 
L 395.385998 287.695677 
L 395.549223 287.721711 
L 395.875673 287.620856 
L 396.365348 287.49141 
L 396.528573 287.592652 
L 396.855023 287.375753 
L 397.181473 287.420991 
L 397.344698 287.348289 
L 397.507923 286.87332 
L 397.671148 287.113317 
L 398.487273 287.139642 
L 398.487273 287.139642 
" clip-path="url(#p0b863eaa48)" style="fill: none; stroke: #1f77b4; stroke-width: 1.5; stroke-linecap: square"/>
   </g>
   <g id="line2d_30">
    <path d="M 73.832727 118.008299 
L 75.464977 177.938504 
L 76.117877 192.947716 
L 76.281102 195.273624 
L 76.770777 204.59016 
L 77.260452 212.509832 
L 77.750128 220.166243 
L 77.913353 220.620236 
L 78.729478 230.678857 
L 79.055928 232.885894 
L 79.382378 233.490869 
L 79.872053 232.12391 
L 80.035278 232.698611 
L 80.198503 232.784109 
L 80.361728 233.287116 
L 80.524953 234.640317 
L 80.688178 234.711909 
L 80.851403 234.510691 
L 81.341078 235.030116 
L 81.504303 236.213279 
L 81.667528 236.355972 
L 81.830753 236.250242 
L 81.993978 237.220678 
L 82.320428 237.265916 
L 82.483653 236.836917 
L 82.646878 237.333576 
L 82.810103 236.901548 
L 83.299778 238.136626 
L 83.626228 238.067092 
L 83.789453 237.73655 
L 84.115903 237.627712 
L 84.279128 237.351912 
L 84.442353 238.198963 
L 84.932028 237.340126 
L 85.095253 238.155213 
L 85.258478 238.023471 
L 85.421703 237.734627 
L 85.584928 237.830616 
L 85.748153 238.321319 
L 85.911378 238.456725 
L 86.074603 238.839503 
L 86.237828 239.531589 
L 86.401053 239.555878 
L 86.727503 238.906829 
L 86.890728 238.479575 
L 87.053953 238.520009 
L 87.217178 238.297992 
L 87.380403 238.509738 
L 87.543628 238.349627 
L 87.706853 237.997932 
L 87.870078 237.985493 
L 88.196528 237.791835 
L 88.522978 237.643161 
L 90.481678 253.389952 
L 90.644903 252.866531 
L 90.808128 252.735729 
L 90.971353 253.207901 
L 91.134578 253.095071 
L 91.297803 252.494945 
L 91.461028 252.921513 
L 91.624253 252.285704 
L 91.950703 252.092983 
L 92.440378 250.980146 
L 92.766828 251.672337 
L 93.093278 250.022864 
L 93.582954 248.258209 
L 93.746179 248.198657 
L 93.909404 247.339044 
L 94.072629 247.09293 
L 94.235854 246.483097 
L 94.399079 246.658521 
L 95.051979 244.103246 
L 95.215204 243.986167 
L 95.378429 243.378701 
L 95.868104 243.19066 
L 96.031329 243.450306 
L 96.194554 243.20067 
L 96.357779 243.88108 
L 96.684229 243.58777 
L 96.847454 243.410022 
L 97.010679 242.566035 
L 97.337129 242.912463 
L 97.500354 243.459362 
L 97.663579 243.494832 
L 97.826804 244.035211 
L 98.153254 243.260847 
L 98.316479 243.5598 
L 98.642929 242.851257 
L 98.969379 243.850648 
L 99.132604 243.695897 
L 99.295829 243.796842 
L 99.459054 243.752661 
L 99.622279 243.441629 
L 99.948729 243.916115 
L 100.275179 243.70307 
L 100.438404 243.142031 
L 100.601629 243.844941 
L 100.764854 243.890866 
L 100.928079 242.613014 
L 101.254529 243.556621 
L 101.417754 243.602392 
L 101.580979 243.394623 
L 102.070654 244.290908 
L 102.233879 243.952284 
L 102.397104 244.062305 
L 102.886779 243.161336 
L 103.050004 244.031894 
L 103.213229 243.887251 
L 103.376454 244.447513 
L 103.539679 244.286795 
L 103.702904 244.587129 
L 103.866129 244.098199 
L 104.192579 244.699076 
L 104.845479 246.04679 
L 105.008704 246.069389 
L 105.171929 245.481491 
L 105.498379 246.581524 
L 105.661604 246.309749 
L 105.824829 247.044175 
L 105.988054 246.4024 
L 106.151279 246.648283 
L 106.314504 246.372686 
L 106.640954 246.901052 
L 106.967404 246.361396 
L 107.293854 247.293573 
L 107.457079 247.926174 
L 107.620304 247.889923 
L 108.599654 249.885594 
L 108.926104 251.018981 
L 109.252555 250.19097 
L 109.74223 251.052164 
L 110.06868 251.739523 
L 110.231905 251.531967 
L 110.39513 251.738187 
L 110.558355 251.746428 
L 110.72158 251.955963 
L 110.884805 251.857831 
L 111.04803 252.244145 
L 111.211255 252.312713 
L 111.37448 252.936843 
L 111.537705 252.985689 
L 111.70093 252.240668 
L 111.864155 252.887427 
L 112.190605 252.500275 
L 112.35383 252.827485 
L 112.68028 253.913673 
L 112.843505 253.567297 
L 113.00673 253.754611 
L 113.169955 254.465508 
L 113.33318 254.450184 
L 113.496405 255.100926 
L 113.65963 255.090649 
L 113.822855 255.233813 
L 113.98608 254.873528 
L 114.475755 254.91206 
L 114.63898 255.315104 
L 114.802205 255.23008 
L 114.96543 254.730223 
L 115.29188 255.349583 
L 115.455105 255.054593 
L 115.61833 255.062023 
L 116.108005 256.326641 
L 116.27123 255.829929 
L 116.434455 256.388923 
L 116.760905 256.636132 
L 116.92413 257.487541 
L 117.087355 256.968155 
L 117.25058 257.526642 
L 117.413805 258.823561 
L 117.57703 258.640041 
L 117.90348 259.380373 
L 118.066705 258.628114 
L 118.22993 258.69223 
L 118.393155 259.216672 
L 118.55638 258.677821 
L 118.719605 258.95271 
L 119.20928 258.936295 
L 119.372505 259.426388 
L 119.53573 259.11777 
L 119.698955 259.472729 
L 120.025405 259.379274 
L 120.18863 259.537179 
L 120.51508 260.943906 
L 120.678305 261.294982 
L 121.16798 260.628567 
L 121.331205 260.711104 
L 121.49443 261.437977 
L 121.657655 261.6397 
L 121.82088 261.333865 
L 121.984105 261.34496 
L 122.310555 260.331793 
L 122.47378 261.20432 
L 122.637005 261.129712 
L 122.80023 261.763967 
L 122.963455 261.282508 
L 123.12668 261.260751 
L 123.289905 261.069521 
L 123.45313 260.572092 
L 123.77958 261.153323 
L 123.942805 260.495078 
L 124.269255 261.117473 
L 124.595705 260.163991 
L 124.75893 260.510627 
L 124.922155 260.117472 
L 125.085381 260.022727 
L 125.575056 259.277842 
L 125.738281 259.107142 
L 125.901506 259.12801 
L 126.064731 258.667044 
L 126.227956 258.730848 
L 126.391181 258.98957 
L 126.554406 258.636196 
L 126.880856 258.962656 
L 127.044081 259.150633 
L 127.370531 259.747222 
L 127.533756 259.396977 
L 127.696981 259.886401 
L 128.023431 259.383874 
L 128.186656 260.036907 
L 128.349881 260.056443 
L 128.676331 261.086679 
L 128.839556 260.819373 
L 129.002781 260.022077 
L 129.166006 260.630319 
L 129.329231 260.77379 
L 129.655681 259.810613 
L 129.818906 260.037745 
L 129.982131 259.526159 
L 130.145356 259.425582 
L 130.308581 259.840387 
L 130.961481 259.08179 
L 131.124706 259.6034 
L 131.287931 259.243421 
L 131.614381 260.00558 
L 131.777606 259.592761 
L 132.104056 259.929705 
L 132.267281 259.474995 
L 132.430506 259.444187 
L 132.756956 259.791791 
L 132.920181 259.432549 
L 133.083406 259.611144 
L 133.246631 259.970102 
L 133.736306 258.769733 
L 134.062756 258.657829 
L 134.225981 258.246199 
L 134.389206 258.154306 
L 134.552431 259.125289 
L 134.715656 259.084934 
L 134.878881 257.849364 
L 135.042106 258.49526 
L 135.368556 257.909494 
L 135.531781 257.819626 
L 135.695006 258.140151 
L 135.858231 257.779211 
L 136.184681 258.011767 
L 136.347906 258.340527 
L 136.511131 259.173167 
L 136.674356 259.071016 
L 137.000806 258.315975 
L 137.164031 258.588826 
L 137.490481 258.708911 
L 137.653706 259.201342 
L 137.816931 259.264749 
L 137.980156 259.074128 
L 138.143381 259.322864 
L 138.306606 259.321641 
L 138.469831 259.022315 
L 138.796281 259.938895 
L 138.959506 259.584276 
L 139.122731 259.654335 
L 139.449181 260.005445 
L 139.612406 259.886616 
L 140.102081 260.425617 
L 140.265306 260.152025 
L 140.428531 260.542485 
L 140.754981 259.807613 
L 140.918206 260.446649 
L 141.081432 260.604408 
L 141.244657 260.158275 
L 141.407882 260.229411 
L 141.571107 259.868544 
L 141.734332 260.33709 
L 142.224007 260.284724 
L 142.550457 261.364637 
L 142.713682 261.715859 
L 142.876907 261.328304 
L 143.203357 261.313299 
L 143.529807 261.39674 
L 143.693032 260.956592 
L 143.856257 261.015844 
L 144.019482 261.306917 
L 144.182707 261.024776 
L 144.509157 261.44933 
L 144.998832 260.655311 
L 145.651732 261.90128 
L 145.814957 262.099381 
L 145.978182 262.7663 
L 146.141407 262.692589 
L 146.304632 262.846195 
L 146.467857 262.771348 
L 146.631082 262.910471 
L 146.794307 262.468286 
L 146.957532 262.649398 
L 147.120757 262.474327 
L 147.447207 262.970283 
L 147.610432 262.538167 
L 147.936882 263.666859 
L 148.100107 263.37655 
L 148.263332 263.448337 
L 148.589782 263.73736 
L 148.753007 264.351448 
L 148.916232 263.646029 
L 149.079457 263.721625 
L 149.569132 263.402808 
L 149.732357 263.573445 
L 150.058807 264.729231 
L 150.222032 265.086035 
L 150.385257 264.503236 
L 150.874932 265.122636 
L 151.038157 264.738617 
L 151.201382 265.068771 
L 151.364607 266.320518 
L 151.527832 266.33079 
L 152.017507 268.004132 
L 152.180732 267.75049 
L 152.670407 269.155728 
L 152.833632 269.015013 
L 152.996857 268.621422 
L 153.812982 269.13828 
L 154.139432 269.473927 
L 154.302657 269.15783 
L 154.465882 269.363287 
L 154.629107 269.245264 
L 154.955557 269.924166 
L 155.118782 269.37224 
L 155.282007 269.309075 
L 155.445232 269.466757 
L 155.608457 269.956277 
L 155.771682 269.919462 
L 156.098132 270.524359 
L 156.261357 270.573491 
L 156.587807 271.340292 
L 157.077483 271.88872 
L 157.240708 272.04116 
L 157.403933 271.988842 
L 157.567158 271.800588 
L 157.893608 272.221914 
L 158.056833 272.534426 
L 158.220058 272.221262 
L 158.383283 272.286143 
L 158.709733 272.697838 
L 158.872958 272.470385 
L 159.036183 272.957014 
L 159.199408 272.919486 
L 159.362633 273.046197 
L 159.689083 273.628457 
L 159.852308 273.668666 
L 160.015533 273.436743 
L 160.178758 273.673096 
L 160.341983 273.583254 
L 160.505208 273.932799 
L 160.994883 273.957326 
L 161.321333 274.317488 
L 161.647783 273.896204 
L 161.974233 273.919937 
L 162.137458 273.210312 
L 162.463908 273.026252 
L 162.790358 273.169173 
L 163.116808 274.118745 
L 163.280033 273.987445 
L 163.443258 274.071968 
L 163.606483 274.546671 
L 163.769708 274.573477 
L 163.932933 274.431405 
L 164.259383 274.612728 
L 164.422608 274.644426 
L 164.585833 275.133187 
L 164.749058 275.155913 
L 164.912283 275.051369 
L 165.075508 275.295354 
L 165.238733 275.310343 
L 165.401958 275.819929 
L 165.565183 275.554011 
L 165.891633 276.200118 
L 166.054858 276.785209 
L 166.381308 276.602278 
L 167.034208 277.49858 
L 167.197433 277.45301 
L 167.360658 277.625014 
L 167.523883 278.007231 
L 167.850333 277.39881 
L 168.013558 277.455103 
L 168.176783 277.17364 
L 168.340008 277.268642 
L 168.503233 277.187203 
L 168.666458 277.318454 
L 168.992908 276.876011 
L 169.319358 276.401965 
L 169.645808 276.581713 
L 169.972258 276.430793 
L 170.135483 276.117524 
L 170.461933 276.089324 
L 170.625158 275.810725 
L 170.788383 275.883405 
L 170.951608 275.563204 
L 171.114833 275.653841 
L 171.278058 275.565381 
L 171.441283 275.302534 
L 171.767733 275.785384 
L 172.094183 275.710175 
L 172.257408 275.40137 
L 172.747084 275.330477 
L 173.073534 274.896402 
L 173.236759 275.027751 
L 173.399984 274.9035 
L 173.563209 275.118864 
L 173.889659 274.949893 
L 174.216109 275.574304 
L 174.542559 275.33037 
L 174.869009 275.228453 
L 175.032234 275.368575 
L 175.685134 274.943622 
L 175.848359 274.954827 
L 176.011584 275.194965 
L 176.174809 275.110762 
L 176.338034 275.228709 
L 176.664484 274.647048 
L 176.827709 274.930888 
L 177.154159 274.443201 
L 177.480609 274.589575 
L 177.807059 274.770291 
L 177.970284 274.71328 
L 178.133509 274.482749 
L 178.459959 274.489711 
L 178.623184 274.945013 
L 178.786409 274.92893 
L 178.949634 275.087085 
L 179.112859 275.066124 
L 179.602534 274.487792 
L 179.928984 274.819744 
L 180.092209 274.615479 
L 180.581884 274.628882 
L 180.908334 274.151677 
L 181.071559 273.796946 
L 181.398009 274.013173 
L 181.724459 273.549487 
L 181.887684 273.457573 
L 182.050909 273.527268 
L 182.214134 273.290895 
L 182.377359 273.424033 
L 182.867034 272.862374 
L 183.193484 272.72439 
L 183.519934 272.325796 
L 183.846384 272.33756 
L 184.172834 272.032184 
L 184.499284 272.005198 
L 184.662509 271.935502 
L 184.825734 271.574608 
L 185.152184 271.602758 
L 185.315409 271.296526 
L 185.641859 271.335513 
L 186.294759 271.584607 
L 186.621209 271.944639 
L 186.784434 271.968621 
L 186.947659 271.864191 
L 187.274109 272.147941 
L 187.437334 272.201553 
L 187.763784 271.967292 
L 187.927009 272.288941 
L 188.253459 272.112598 
L 188.416684 272.231613 
L 188.57991 271.951635 
L 188.743135 272.130961 
L 189.722485 272.014862 
L 189.88571 271.998771 
L 190.048935 271.869863 
L 190.375385 272.073588 
L 190.53861 272.078949 
L 190.701835 271.728355 
L 190.86506 271.642576 
L 191.028285 271.787328 
L 191.19151 271.7498 
L 191.354735 271.855001 
L 191.51796 271.812111 
L 191.84441 271.989778 
L 192.82376 271.857609 
L 193.15021 272.401624 
L 193.313435 272.235986 
L 193.639885 272.435456 
L 194.12956 272.303175 
L 194.292785 272.328274 
L 194.619235 272.206914 
L 195.598585 272.032011 
L 195.76181 272.149957 
L 195.925035 272.120471 
L 196.251485 271.93338 
L 196.41471 271.877169 
L 196.577935 272.185977 
L 196.904385 271.950228 
L 197.39406 272.215552 
L 197.557285 272.29597 
L 197.883735 272.080884 
L 198.210185 272.048796 
L 198.37341 272.072921 
L 198.536635 271.885279 
L 198.69986 271.971058 
L 199.02631 271.483783 
L 199.67921 271.410181 
L 200.168885 271.700052 
L 200.495335 271.344144 
L 200.65856 271.427681 
L 200.98501 271.240904 
L 201.31146 271.49716 
L 201.63791 271.668718 
L 201.801135 272.050591 
L 201.96436 272.040165 
L 203.106935 271.106976 
L 203.92306 271.118036 
L 204.086285 271.206727 
L 204.739186 270.731489 
L 205.065636 270.759907 
L 205.228861 270.50304 
L 206.044986 270.624898 
L 206.208211 270.415811 
L 206.697886 270.40051 
L 207.024336 270.301328 
L 207.350786 270.524927 
L 207.514011 270.436467 
L 207.677236 270.500801 
L 207.840461 270.411251 
L 208.166911 270.488242 
L 208.330136 270.448033 
L 208.493361 270.58746 
L 208.656586 270.531167 
L 208.983036 270.27383 
L 209.309486 270.250141 
L 209.472711 270.126506 
L 209.635936 269.836396 
L 210.452061 269.770358 
L 210.615286 269.615071 
L 210.941736 269.747098 
L 211.268186 269.957276 
L 211.594636 269.919337 
L 212.410761 270.323139 
L 212.573986 270.588518 
L 212.900436 270.660813 
L 213.063661 270.437787 
L 213.226886 270.458443 
L 213.390111 270.619278 
L 213.879786 270.536286 
L 214.043011 270.412979 
L 214.369461 270.421875 
L 214.859136 270.475435 
L 215.348811 270.635677 
L 215.675261 270.739344 
L 216.001711 270.620915 
L 216.328161 270.59922 
L 216.491386 270.398245 
L 217.307511 270.71103 
L 217.960411 270.797721 
L 218.450086 270.261746 
L 218.613311 270.357126 
L 218.776536 270.653597 
L 218.939761 270.546588 
L 219.266211 270.794036 
L 219.592661 270.76819 
L 220.735237 270.243424 
L 221.224912 270.652731 
L 221.551362 270.489214 
L 222.857162 270.564695 
L 223.183612 270.685322 
L 223.510062 270.484017 
L 224.162962 270.184033 
L 224.326187 270.460491 
L 224.489412 270.35259 
L 224.815862 270.435689 
L 224.979087 270.247895 
L 226.284887 270.680531 
L 226.448112 270.817241 
L 226.774562 270.758268 
L 227.101012 270.728057 
L 227.264237 270.592664 
L 227.753912 270.619798 
L 228.080362 270.437517 
L 228.406812 270.603078 
L 229.222937 270.436396 
L 229.875837 270.633334 
L 230.202287 270.477813 
L 230.528737 270.496197 
L 230.691962 270.313917 
L 230.855187 270.362168 
L 231.181637 270.624866 
L 231.508087 270.442229 
L 231.671312 270.321602 
L 231.834537 270.482438 
L 232.160987 270.472416 
L 232.487437 270.716117 
L 232.977112 270.681507 
L 233.303562 270.343752 
L 233.466787 270.370558 
L 233.630012 270.081053 
L 233.793237 270.167104 
L 234.282912 269.853562 
L 234.609362 270.073371 
L 234.772587 269.973695 
L 234.935812 270.102364 
L 235.099037 269.115209 
L 235.262262 269.119511 
L 235.425487 269.301791 
L 236.078387 268.903106 
L 236.404838 268.835495 
L 236.568063 269.054316 
L 238.037088 269.238115 
L 238.200313 267.88982 
L 238.363538 267.986204 
L 238.526763 267.92455 
L 238.689988 268.090747 
L 239.669338 268.157342 
L 240.159013 268.579819 
L 240.322238 268.512804 
L 240.648688 268.611969 
L 240.975138 268.459203 
L 241.138363 268.207211 
L 241.301588 268.180405 
L 241.464813 268.346718 
L 241.791263 268.390828 
L 241.954488 267.266492 
L 242.280938 267.351552 
L 242.607388 267.156395 
L 242.933838 266.673846 
L 243.423513 266.511054 
L 243.586738 266.661389 
L 243.913188 266.53004 
L 244.076413 264.795928 
L 244.239638 264.763761 
L 244.402863 264.996973 
L 244.566088 264.994292 
L 245.545438 264.353362 
L 245.708663 264.28285 
L 246.035113 263.995338 
L 246.851238 263.987268 
L 247.177688 264.187477 
L 247.340913 263.978344 
L 247.504138 264.000203 
L 247.667363 263.812561 
L 247.993813 264.081029 
L 248.320263 264.058597 
L 249.136388 263.821545 
L 249.462838 264.046406 
L 249.789288 263.928117 
L 250.768638 263.816091 
L 251.095088 263.491738 
L 251.421538 263.44775 
L 251.584763 264.351806 
L 252.237664 264.113044 
L 252.727339 264.235852 
L 253.053789 263.727452 
L 253.217014 263.732813 
L 253.380239 263.577604 
L 253.706689 263.673511 
L 254.196364 263.288247 
L 254.359589 263.392496 
L 254.522814 263.100787 
L 254.686039 264.39815 
L 255.338939 264.200678 
L 255.991839 264.152847 
L 256.318289 263.944165 
L 256.481514 264.127764 
L 256.644739 263.53886 
L 256.807964 263.579069 
L 257.297639 263.396517 
L 258.113764 263.216957 
L 258.276989 262.817703 
L 258.440214 263.856258 
L 258.929889 263.640128 
L 259.093114 263.68586 
L 259.419564 264.117276 
L 259.746014 264.239138 
L 259.909239 264.259482 
L 260.072464 264.074739 
L 260.398914 264.340118 
L 260.562139 266.071549 
L 260.725364 266.044743 
L 260.888589 265.774003 
L 261.378264 266.221663 
L 261.541489 266.143925 
L 261.704714 266.365627 
L 262.031164 266.265186 
L 262.194389 266.413553 
L 262.520839 266.129525 
L 262.684064 266.327688 
L 262.847289 266.173502 
L 263.173739 266.564705 
L 263.500189 266.254615 
L 263.826639 266.300233 
L 264.153089 265.883215 
L 264.316314 265.601219 
L 264.969214 265.424757 
L 265.132439 265.296089 
L 265.458889 265.503585 
L 265.948564 265.441404 
L 266.275014 265.537884 
L 266.601464 265.31696 
L 266.764689 265.389197 
L 267.254364 265.047039 
L 267.580814 265.142791 
L 267.744039 265.338475 
L 267.907265 265.137098 
L 268.07049 265.204908 
L 268.233715 265.148616 
L 268.39694 264.940306 
L 268.72339 265.138686 
L 268.886615 265.06392 
L 269.213065 265.449267 
L 269.37629 265.853124 
L 269.539515 265.794477 
L 269.865965 265.890841 
L 270.518865 265.487741 
L 270.68209 265.562798 
L 270.845315 265.509706 
L 271.171765 265.804571 
L 271.498215 265.841036 
L 272.151115 265.488461 
L 272.31434 265.253256 
L 272.477565 265.312229 
L 272.96724 265.018757 
L 273.130465 265.336921 
L 273.456915 265.150497 
L 273.783365 265.080744 
L 274.59949 264.95565 
L 274.762715 265.277694 
L 274.92594 265.130264 
L 275.415615 265.42781 
L 275.57884 265.489828 
L 275.742065 265.251078 
L 276.068515 265.240537 
L 276.394965 265.300611 
L 276.55819 265.284088 
L 276.88464 264.679073 
L 277.047865 264.402972 
L 277.21109 264.405079 
L 277.374315 264.536429 
L 278.027215 264.223489 
L 278.19044 264.00368 
L 278.51689 264.293185 
L 278.680115 264.121626 
L 278.84334 264.153793 
L 279.006565 263.895595 
L 279.16979 263.857343 
L 279.82269 263.32884 
L 280.47559 263.370592 
L 280.80204 263.780425 
L 282.271065 263.438727 
L 282.43429 263.308035 
L 283.903316 263.780048 
L 284.229766 263.732395 
L 284.556216 264.075048 
L 285.045891 264.158 
L 285.372341 264.22275 
L 285.698791 263.945812 
L 285.862016 264.098606 
L 286.025241 264.041988 
L 286.188466 263.800161 
L 286.351691 263.273052 
L 286.678141 263.299074 
L 287.004591 263.652225 
L 287.331041 263.667788 
L 287.657491 263.591816 
L 287.820716 263.122631 
L 288.473616 263.144118 
L 288.636841 262.687983 
L 289.126516 263.079887 
L 289.289741 263.165666 
L 289.452966 262.963064 
L 289.779416 263.193595 
L 290.105866 263.306653 
L 290.269091 263.362946 
L 290.595541 263.90106 
L 291.085216 263.919236 
L 291.574891 263.624489 
L 291.738116 263.452931 
L 291.901341 263.519946 
L 292.064566 263.460973 
L 292.227791 263.55229 
L 292.717466 263.058634 
L 293.207141 263.077398 
L 293.370366 263.068409 
L 293.696816 263.179941 
L 294.023266 262.764443 
L 294.186491 262.780527 
L 294.512941 263.020718 
L 294.676166 263.070994 
L 294.839391 262.754683 
L 295.002616 262.813657 
L 295.165841 263.025424 
L 295.329066 262.990365 
L 295.492291 263.361393 
L 295.655516 263.137611 
L 295.981966 263.7238 
L 296.308416 263.752635 
L 296.634866 264.080694 
L 296.798091 264.009601 
L 297.124541 264.008732 
L 297.450991 264.14627 
L 297.777441 264.585435 
L 297.940666 264.651447 
L 298.103891 264.566639 
L 298.430341 264.710047 
L 298.593566 264.800747 
L 298.756791 264.750573 
L 298.920016 264.992163 
L 299.083241 264.93319 
L 299.899367 265.413547 
L 300.389042 265.248439 
L 301.041942 264.838253 
L 301.368392 265.309442 
L 301.694842 265.160801 
L 301.858067 265.217882 
L 302.184517 265.079328 
L 302.510967 264.944145 
L 303.000642 266.001185 
L 303.490317 265.819456 
L 303.653542 265.741719 
L 303.979992 266.060976 
L 304.143217 266.066986 
L 304.306442 266.569215 
L 304.469667 266.452205 
L 304.632892 266.663967 
L 304.796117 266.50135 
L 304.959342 266.529511 
L 305.122567 266.987694 
L 305.449017 266.720901 
L 305.612242 266.814682 
L 305.775467 266.689974 
L 305.938692 267.024475 
L 306.101917 267.032085 
L 306.591592 266.793506 
L 306.754817 266.806909 
L 307.081267 266.590122 
L 307.570942 266.601037 
L 308.223842 267.011519 
L 308.387067 266.952546 
L 309.039967 267.391376 
L 309.203192 267.90337 
L 309.366417 267.828314 
L 309.692867 268.168749 
L 309.856092 268.710376 
L 310.019317 268.740786 
L 310.182542 268.599167 
L 310.508992 268.807315 
L 310.672217 268.635757 
L 311.325117 268.911901 
L 311.814792 268.831694 
L 311.978017 268.925741 
L 312.141242 269.179009 
L 312.304467 268.841458 
L 312.794142 268.552799 
L 312.957367 268.341078 
L 313.120592 268.456344 
L 313.283817 268.78044 
L 313.773492 268.917616 
L 314.426392 268.465981 
L 314.589617 268.554441 
L 314.916067 268.309148 
L 315.242517 268.53088 
L 315.405742 268.319113 
L 315.568968 268.345919 
L 316.711543 267.813691 
L 317.201218 267.706426 
L 317.364443 268.012014 
L 317.527668 267.919419 
L 317.854118 267.365057 
L 318.180568 267.723798 
L 318.343793 267.680119 
L 318.670243 267.865552 
L 318.833468 267.800532 
L 318.996693 268.068995 
L 319.323143 267.751895 
L 319.812818 267.956371 
L 320.139268 267.724385 
L 320.465718 267.11417 
L 320.955393 266.810058 
L 321.118618 266.847587 
L 321.281843 267.026287 
L 321.608293 266.680016 
L 322.587643 266.200026 
L 323.240543 266.260287 
L 323.566993 266.036507 
L 324.056668 266.416934 
L 324.383118 266.300667 
L 324.546343 266.559983 
L 324.709568 266.263944 
L 324.872793 266.210332 
L 325.199243 266.015584 
L 325.362468 266.057618 
L 325.525693 265.896783 
L 325.688918 265.402172 
L 325.852143 265.52816 
L 326.341818 265.206488 
L 326.831493 265.511243 
L 326.994718 265.696204 
L 327.157943 265.67744 
L 327.321168 265.410668 
L 327.484393 265.377823 
L 327.647618 265.718259 
L 327.810843 265.610018 
L 327.974068 265.751793 
L 328.300518 265.618189 
L 328.463743 265.649315 
L 328.626968 265.421055 
L 328.953418 265.404182 
L 329.116643 265.51731 
L 329.279868 265.857093 
L 329.443093 265.891847 
L 329.606318 265.649875 
L 329.769543 265.088707 
L 330.259218 264.795479 
L 330.422443 264.908064 
L 330.585668 264.810544 
L 330.748893 265.092783 
L 330.912118 265.007095 
L 331.238568 265.450992 
L 331.401794 265.593064 
L 332.054694 265.060376 
L 332.217919 264.786048 
L 332.381144 264.874271 
L 332.707594 264.881865 
L 333.034044 265.100794 
L 333.197269 264.916767 
L 333.523719 265.146117 
L 333.686944 265.199571 
L 333.850169 264.845732 
L 334.013394 264.871224 
L 334.176619 265.021972 
L 334.339844 265.491553 
L 334.666294 265.333124 
L 334.992744 265.323589 
L 335.155969 265.148879 
L 335.482419 265.158357 
L 335.972094 264.79715 
L 336.135319 264.630949 
L 336.298544 264.750396 
L 336.624994 264.371275 
L 336.788219 265.061908 
L 337.114669 265.121664 
L 337.441119 265.177816 
L 337.767569 264.955326 
L 337.930794 264.926247 
L 338.257244 265.241013 
L 338.583694 265.292241 
L 338.746919 265.442355 
L 339.073369 265.088665 
L 339.236594 265.546772 
L 339.889494 265.213974 
L 340.215944 265.334355 
L 340.379169 265.227744 
L 340.705619 264.894246 
L 340.868844 264.911973 
L 341.032069 264.635871 
L 341.195294 264.725504 
L 342.011419 264.502998 
L 342.174644 264.775119 
L 342.664319 264.12823 
L 342.827544 264.141633 
L 342.990769 264.290279 
L 343.153994 264.193777 
L 343.317219 264.496032 
L 343.480444 264.321793 
L 343.806894 264.886111 
L 343.970119 264.692873 
L 344.133344 264.191602 
L 344.296569 264.312229 
L 344.459794 264.181176 
L 344.623019 264.365712 
L 344.949469 264.266984 
L 345.602369 264.681537 
L 345.765594 264.368007 
L 346.092044 264.413885 
L 346.255269 264.814218 
L 346.418494 264.759842 
L 346.581719 264.218782 
L 346.744944 264.609162 
L 347.071394 264.435636 
L 347.234619 264.371302 
L 347.397845 264.439889 
L 347.724295 263.804452 
L 348.050745 263.755949 
L 348.54042 264.056376 
L 348.703645 264.494497 
L 348.86687 264.287048 
L 349.030095 264.375508 
L 349.682995 264.226755 
L 349.84622 264.014988 
L 350.009445 264.09931 
L 350.49912 264.784714 
L 350.662345 264.76863 
L 350.82557 263.950225 
L 350.988795 263.934141 
L 351.315245 263.594927 
L 351.641695 263.825459 
L 352.13137 263.540694 
L 352.45782 263.845567 
L 352.78427 264.487413 
L 353.11072 265.14853 
L 353.273945 264.747358 
L 354.253295 265.185343 
L 354.41652 265.408074 
L 354.579745 265.410828 
L 354.906195 265.188453 
L 355.06942 265.316931 
L 355.232645 265.249916 
L 355.39587 265.35163 
L 355.559095 265.280687 
L 355.885545 264.886653 
L 356.04877 264.836854 
L 356.211995 264.925035 
L 356.37522 264.705465 
L 356.538445 264.269975 
L 356.70167 264.293962 
L 356.864895 264.173335 
L 357.35457 264.89166 
L 357.68102 265.19556 
L 358.00747 265.270065 
L 358.170695 264.502744 
L 358.497145 264.584001 
L 358.66037 264.314426 
L 358.823595 264.557735 
L 358.98682 265.099471 
L 359.63972 265.607284 
L 359.802945 265.184094 
L 359.96617 265.137351 
L 360.29262 264.435794 
L 360.61907 264.809341 
L 360.782295 264.920035 
L 360.94552 264.853572 
L 361.108745 264.603198 
L 361.27197 264.649036 
L 361.59842 264.415 
L 361.761645 264.288062 
L 361.92487 264.540059 
L 362.088095 264.397987 
L 362.25132 264.61259 
L 362.740995 264.43133 
L 363.067445 264.589856 
L 363.230671 264.105128 
L 363.393896 264.217714 
L 363.557121 263.870629 
L 363.720346 263.248473 
L 364.046796 263.372208 
L 364.210021 263.543354 
L 364.373246 263.443414 
L 364.699696 263.694269 
L 364.862921 263.689329 
L 365.026146 263.994917 
L 365.189371 263.839443 
L 365.352596 263.99328 
L 365.679046 263.958134 
L 365.842271 264.060178 
L 366.005496 263.885661 
L 366.168721 264.05337 
L 366.331946 264.425973 
L 366.495171 264.364319 
L 366.821621 263.978815 
L 366.984846 264.056552 
L 367.148071 263.882313 
L 367.311296 264.371792 
L 367.474521 264.377153 
L 367.800971 264.55173 
L 367.964196 264.323104 
L 368.290646 264.352089 
L 368.453871 264.442672 
L 368.943546 264.301779 
L 369.269996 263.701325 
L 369.922896 263.263299 
L 370.086121 263.365677 
L 370.249346 263.128948 
L 370.412571 263.141153 
L 370.739021 262.752843 
L 370.902246 262.796321 
L 371.228696 262.63928 
L 371.391921 262.924495 
L 371.555146 262.806001 
L 372.044821 263.014315 
L 372.208046 263.089086 
L 372.371271 263.507259 
L 372.697721 263.581234 
L 373.024171 264.891309 
L 373.187396 264.67432 
L 373.350621 264.688967 
L 373.513846 264.520089 
L 373.677071 264.136693 
L 374.003521 264.226458 
L 374.329971 264.403025 
L 374.493196 264.32416 
L 374.656421 265.096843 
L 375.309321 265.016336 
L 375.635771 264.668565 
L 375.962221 264.430683 
L 376.451896 264.21717 
L 376.615121 264.305846 
L 376.778346 264.667078 
L 376.941571 264.53853 
L 377.104796 264.62121 
L 377.431246 264.37254 
L 377.757696 264.558311 
L 378.084146 264.706357 
L 378.410596 263.995407 
L 378.573821 263.987735 
L 378.737046 263.572425 
L 379.063497 263.689606 
L 379.389947 263.463843 
L 379.553172 264.078265 
L 379.716397 264.182348 
L 379.879622 264.021756 
L 380.206072 264.739 
L 380.532522 264.365391 
L 380.695747 264.367439 
L 380.858972 264.488823 
L 381.022197 264.390522 
L 381.185422 264.112945 
L 381.348647 264.071576 
L 381.511872 263.824961 
L 381.838322 263.783877 
L 382.327997 263.693726 
L 382.817672 263.931546 
L 382.980897 263.912782 
L 383.307347 263.421823 
L 383.470572 263.367573 
L 383.797022 263.49262 
L 384.123472 263.285118 
L 384.286697 263.475648 
L 384.449922 263.327664 
L 384.776372 263.543183 
L 385.102822 264.006645 
L 385.755722 263.84729 
L 386.082172 264.116841 
L 386.898297 264.213451 
L 387.061522 264.452496 
L 387.387972 264.113885 
L 387.714422 264.334868 
L 388.040872 264.156246 
L 388.204097 264.187877 
L 388.530547 263.733924 
L 388.693772 263.822339 
L 388.856997 263.414948 
L 389.183447 263.342953 
L 389.509897 262.879281 
L 389.836347 262.688294 
L 389.999572 262.853743 
L 390.326022 262.665005 
L 390.978922 262.283628 
L 391.468597 262.402221 
L 391.631822 262.479958 
L 391.795047 262.75399 
L 391.958272 262.677268 
L 392.121497 262.91048 
L 392.611172 262.385179 
L 392.774397 262.72223 
L 393.100847 262.853364 
L 393.264072 262.622481 
L 393.427297 262.198382 
L 393.753747 262.290388 
L 394.080197 261.95769 
L 394.243422 262.000381 
L 394.406647 262.162081 
L 394.569872 261.966388 
L 395.222773 262.627379 
L 395.549223 262.360798 
L 395.875673 262.396263 
L 396.038898 262.136241 
L 396.365348 262.150427 
L 396.528573 262.349725 
L 396.691798 262.319772 
L 397.018248 263.127376 
L 397.344698 262.950986 
L 397.507923 262.436356 
L 397.834373 262.534455 
L 398.160823 262.271065 
L 398.487273 262.526527 
L 398.487273 262.526527 
" clip-path="url(#p0b863eaa48)" style="fill: none; stroke: #ff7f0e; stroke-width: 1.5; stroke-linecap: square"/>
   </g>
   <g id="patch_3">
    <path d="M 57.6 307.584 
L 57.6 41.472 
" style="fill: none; stroke: #000000; stroke-width: 0.8; stroke-linejoin: miter; stroke-linecap: square"/>
   </g>
   <g id="patch_4">
    <path d="M 414.72 307.584 
L 414.72 41.472 
" style="fill: none; stroke: #000000; stroke-width: 0.8; stroke-linejoin: miter; stroke-linecap: square"/>
   </g>
   <g id="patch_5">
    <path d="M 57.6 307.584 
L 414.72 307.584 
" style="fill: none; stroke: #000000; stroke-width: 0.8; stroke-linejoin: miter; stroke-linecap: square"/>
   </g>
   <g id="patch_6">
    <path d="M 57.6 41.472 
L 414.72 41.472 
" style="fill: none; stroke: #000000; stroke-width: 0.8; stroke-linejoin: miter; stroke-linecap: square"/>
   </g>
   <g id="text_17">
    <!-- Rolling average training progress of actions/price_rebuy -->
    <g transform="translate(68.220937 35.472)scale(0.12 -0.12)">
     <defs>
      <path id="DejaVuSans-52" d="M 2841 2188 
Q 3044 2119 3236 1894 
Q 3428 1669 3622 1275 
L 4263 0 
L 3584 0 
L 2988 1197 
Q 2756 1666 2539 1819 
Q 2322 1972 1947 1972 
L 1259 1972 
L 1259 0 
L 628 0 
L 628 4666 
L 2053 4666 
Q 2853 4666 3247 4331 
Q 3641 3997 3641 3322 
Q 3641 2881 3436 2590 
Q 3231 2300 2841 2188 
z
M 1259 4147 
L 1259 2491 
L 2053 2491 
Q 2509 2491 2742 2702 
Q 2975 2913 2975 3322 
Q 2975 3731 2742 3939 
Q 2509 4147 2053 4147 
L 1259 4147 
z
" transform="scale(0.015625)"/>
      <path id="DejaVuSans-6c" d="M 603 4863 
L 1178 4863 
L 1178 0 
L 603 0 
L 603 4863 
z
" transform="scale(0.015625)"/>
      <path id="DejaVuSans-67" d="M 2906 1791 
Q 2906 2416 2648 2759 
Q 2391 3103 1925 3103 
Q 1463 3103 1205 2759 
Q 947 2416 947 1791 
Q 947 1169 1205 825 
Q 1463 481 1925 481 
Q 2391 481 2648 825 
Q 2906 1169 2906 1791 
z
M 3481 434 
Q 3481 -459 3084 -895 
Q 2688 -1331 1869 -1331 
Q 1566 -1331 1297 -1286 
Q 1028 -1241 775 -1147 
L 775 -588 
Q 1028 -725 1275 -790 
Q 1522 -856 1778 -856 
Q 2344 -856 2625 -561 
Q 2906 -266 2906 331 
L 2906 616 
Q 2728 306 2450 153 
Q 2172 0 1784 0 
Q 1141 0 747 490 
Q 353 981 353 1791 
Q 353 2603 747 3093 
Q 1141 3584 1784 3584 
Q 2172 3584 2450 3431 
Q 2728 3278 2906 2969 
L 2906 3500 
L 3481 3500 
L 3481 434 
z
" transform="scale(0.015625)"/>
      <path id="DejaVuSans-20" transform="scale(0.015625)"/>
      <path id="DejaVuSans-76" d="M 191 3500 
L 800 3500 
L 1894 563 
L 2988 3500 
L 3597 3500 
L 2284 0 
L 1503 0 
L 191 3500 
z
" transform="scale(0.015625)"/>
      <path id="DejaVuSans-66" d="M 2375 4863 
L 2375 4384 
L 1825 4384 
Q 1516 4384 1395 4259 
Q 1275 4134 1275 3809 
L 1275 3500 
L 2222 3500 
L 2222 3053 
L 1275 3053 
L 1275 0 
L 697 0 
L 697 3053 
L 147 3053 
L 147 3500 
L 697 3500 
L 697 3744 
Q 697 4328 969 4595 
Q 1241 4863 1831 4863 
L 2375 4863 
z
" transform="scale(0.015625)"/>
     </defs>
     <use xlink:href="#DejaVuSans-52"/>
     <use xlink:href="#DejaVuSans-6f" x="64.982422"/>
     <use xlink:href="#DejaVuSans-6c" x="126.164062"/>
     <use xlink:href="#DejaVuSans-6c" x="153.947266"/>
     <use xlink:href="#DejaVuSans-69" x="181.730469"/>
     <use xlink:href="#DejaVuSans-6e" x="209.513672"/>
     <use xlink:href="#DejaVuSans-67" x="272.892578"/>
     <use xlink:href="#DejaVuSans-20" x="336.369141"/>
     <use xlink:href="#DejaVuSans-61" x="368.15625"/>
     <use xlink:href="#DejaVuSans-76" x="429.435547"/>
     <use xlink:href="#DejaVuSans-65" x="488.615234"/>
     <use xlink:href="#DejaVuSans-72" x="550.138672"/>
     <use xlink:href="#DejaVuSans-61" x="591.251953"/>
     <use xlink:href="#DejaVuSans-67" x="652.53125"/>
     <use xlink:href="#DejaVuSans-65" x="716.007812"/>
     <use xlink:href="#DejaVuSans-20" x="777.53125"/>
     <use xlink:href="#DejaVuSans-74" x="809.318359"/>
     <use xlink:href="#DejaVuSans-72" x="848.527344"/>
     <use xlink:href="#DejaVuSans-61" x="889.640625"/>
     <use xlink:href="#DejaVuSans-69" x="950.919922"/>
     <use xlink:href="#DejaVuSans-6e" x="978.703125"/>
     <use xlink:href="#DejaVuSans-69" x="1042.082031"/>
     <use xlink:href="#DejaVuSans-6e" x="1069.865234"/>
     <use xlink:href="#DejaVuSans-67" x="1133.244141"/>
     <use xlink:href="#DejaVuSans-20" x="1196.720703"/>
     <use xlink:href="#DejaVuSans-70" x="1228.507812"/>
     <use xlink:href="#DejaVuSans-72" x="1291.984375"/>
     <use xlink:href="#DejaVuSans-6f" x="1330.847656"/>
     <use xlink:href="#DejaVuSans-67" x="1392.029297"/>
     <use xlink:href="#DejaVuSans-72" x="1455.505859"/>
     <use xlink:href="#DejaVuSans-65" x="1494.369141"/>
     <use xlink:href="#DejaVuSans-73" x="1555.892578"/>
     <use xlink:href="#DejaVuSans-73" x="1607.992188"/>
     <use xlink:href="#DejaVuSans-20" x="1660.091797"/>
     <use xlink:href="#DejaVuSans-6f" x="1691.878906"/>
     <use xlink:href="#DejaVuSans-66" x="1753.060547"/>
     <use xlink:href="#DejaVuSans-20" x="1788.265625"/>
     <use xlink:href="#DejaVuSans-61" x="1820.052734"/>
     <use xlink:href="#DejaVuSans-63" x="1881.332031"/>
     <use xlink:href="#DejaVuSans-74" x="1936.3125"/>
     <use xlink:href="#DejaVuSans-69" x="1975.521484"/>
     <use xlink:href="#DejaVuSans-6f" x="2003.304688"/>
     <use xlink:href="#DejaVuSans-6e" x="2064.486328"/>
     <use xlink:href="#DejaVuSans-73" x="2127.865234"/>
     <use xlink:href="#DejaVuSans-2f" x="2179.964844"/>
     <use xlink:href="#DejaVuSans-70" x="2213.65625"/>
     <use xlink:href="#DejaVuSans-72" x="2277.132812"/>
     <use xlink:href="#DejaVuSans-69" x="2318.246094"/>
     <use xlink:href="#DejaVuSans-63" x="2346.029297"/>
     <use xlink:href="#DejaVuSans-65" x="2401.009766"/>
     <use xlink:href="#DejaVuSans-5f" x="2462.533203"/>
     <use xlink:href="#DejaVuSans-72" x="2512.533203"/>
     <use xlink:href="#DejaVuSans-65" x="2551.396484"/>
     <use xlink:href="#DejaVuSans-62" x="2612.919922"/>
     <use xlink:href="#DejaVuSans-75" x="2676.396484"/>
     <use xlink:href="#DejaVuSans-79" x="2739.775391"/>
    </g>
   </g>
   <g id="legend_1">
    <g id="patch_7">
     <path d="M 188.2825 78.82825 
L 407.72 78.82825 
Q 409.72 78.82825 409.72 76.82825 
L 409.72 48.472 
Q 409.72 46.472 407.72 46.472 
L 188.2825 46.472 
Q 186.2825 46.472 186.2825 48.472 
L 186.2825 76.82825 
Q 186.2825 78.82825 188.2825 78.82825 
z
" style="fill: #ffffff; opacity: 0.8; stroke: #cccccc; stroke-linejoin: miter"/>
    </g>
    <g id="line2d_31">
     <path d="M 190.2825 54.570437 
L 200.2825 54.570437 
L 210.2825 54.570437 
" style="fill: none; stroke: #1f77b4; stroke-width: 1.5; stroke-linecap: square"/>
    </g>
    <g id="text_18">
     <!-- StableBaselinesSAC -->
     <g transform="translate(218.2825 58.070437)scale(0.1 -0.1)">
      <defs>
       <path id="DejaVuSans-53" d="M 3425 4513 
L 3425 3897 
Q 3066 4069 2747 4153 
Q 2428 4238 2131 4238 
Q 1616 4238 1336 4038 
Q 1056 3838 1056 3469 
Q 1056 3159 1242 3001 
Q 1428 2844 1947 2747 
L 2328 2669 
Q 3034 2534 3370 2195 
Q 3706 1856 3706 1288 
Q 3706 609 3251 259 
Q 2797 -91 1919 -91 
Q 1588 -91 1214 -16 
Q 841 59 441 206 
L 441 856 
Q 825 641 1194 531 
Q 1563 422 1919 422 
Q 2459 422 2753 634 
Q 3047 847 3047 1241 
Q 3047 1584 2836 1778 
Q 2625 1972 2144 2069 
L 1759 2144 
Q 1053 2284 737 2584 
Q 422 2884 422 3419 
Q 422 4038 858 4394 
Q 1294 4750 2059 4750 
Q 2388 4750 2728 4690 
Q 3069 4631 3425 4513 
z
" transform="scale(0.015625)"/>
       <path id="DejaVuSans-42" d="M 1259 2228 
L 1259 519 
L 2272 519 
Q 2781 519 3026 730 
Q 3272 941 3272 1375 
Q 3272 1813 3026 2020 
Q 2781 2228 2272 2228 
L 1259 2228 
z
M 1259 4147 
L 1259 2741 
L 2194 2741 
Q 2656 2741 2882 2914 
Q 3109 3088 3109 3444 
Q 3109 3797 2882 3972 
Q 2656 4147 2194 4147 
L 1259 4147 
z
M 628 4666 
L 2241 4666 
Q 2963 4666 3353 4366 
Q 3744 4066 3744 3513 
Q 3744 3084 3544 2831 
Q 3344 2578 2956 2516 
Q 3422 2416 3680 2098 
Q 3938 1781 3938 1306 
Q 3938 681 3513 340 
Q 3088 0 2303 0 
L 628 0 
L 628 4666 
z
" transform="scale(0.015625)"/>
       <path id="DejaVuSans-41" d="M 2188 4044 
L 1331 1722 
L 3047 1722 
L 2188 4044 
z
M 1831 4666 
L 2547 4666 
L 4325 0 
L 3669 0 
L 3244 1197 
L 1141 1197 
L 716 0 
L 50 0 
L 1831 4666 
z
" transform="scale(0.015625)"/>
       <path id="DejaVuSans-43" d="M 4122 4306 
L 4122 3641 
Q 3803 3938 3442 4084 
Q 3081 4231 2675 4231 
Q 1875 4231 1450 3742 
Q 1025 3253 1025 2328 
Q 1025 1406 1450 917 
Q 1875 428 2675 428 
Q 3081 428 3442 575 
Q 3803 722 4122 1019 
L 4122 359 
Q 3791 134 3420 21 
Q 3050 -91 2638 -91 
Q 1578 -91 968 557 
Q 359 1206 359 2328 
Q 359 3453 968 4101 
Q 1578 4750 2638 4750 
Q 3056 4750 3426 4639 
Q 3797 4528 4122 4306 
z
" transform="scale(0.015625)"/>
      </defs>
      <use xlink:href="#DejaVuSans-53"/>
      <use xlink:href="#DejaVuSans-74" x="63.476562"/>
      <use xlink:href="#DejaVuSans-61" x="102.685547"/>
      <use xlink:href="#DejaVuSans-62" x="163.964844"/>
      <use xlink:href="#DejaVuSans-6c" x="227.441406"/>
      <use xlink:href="#DejaVuSans-65" x="255.224609"/>
      <use xlink:href="#DejaVuSans-42" x="316.748047"/>
      <use xlink:href="#DejaVuSans-61" x="385.351562"/>
      <use xlink:href="#DejaVuSans-73" x="446.630859"/>
      <use xlink:href="#DejaVuSans-65" x="498.730469"/>
      <use xlink:href="#DejaVuSans-6c" x="560.253906"/>
      <use xlink:href="#DejaVuSans-69" x="588.037109"/>
      <use xlink:href="#DejaVuSans-6e" x="615.820312"/>
      <use xlink:href="#DejaVuSans-65" x="679.199219"/>
      <use xlink:href="#DejaVuSans-73" x="740.722656"/>
      <use xlink:href="#DejaVuSans-53" x="792.822266"/>
      <use xlink:href="#DejaVuSans-41" x="858.173828"/>
      <use xlink:href="#DejaVuSans-43" x="924.832031"/>
     </g>
    </g>
    <g id="line2d_32">
     <path d="M 190.2825 69.248562 
L 200.2825 69.248562 
L 210.2825 69.248562 
" style="fill: none; stroke: #ff7f0e; stroke-width: 1.5; stroke-linecap: square"/>
    </g>
    <g id="text_19">
     <!-- RuleBasedCERebuyAgentCompetitive -->
     <g transform="translate(218.2825 72.748562)scale(0.1 -0.1)">
      <defs>
       <path id="DejaVuSans-6d" d="M 3328 2828 
Q 3544 3216 3844 3400 
Q 4144 3584 4550 3584 
Q 5097 3584 5394 3201 
Q 5691 2819 5691 2113 
L 5691 0 
L 5113 0 
L 5113 2094 
Q 5113 2597 4934 2840 
Q 4756 3084 4391 3084 
Q 3944 3084 3684 2787 
Q 3425 2491 3425 1978 
L 3425 0 
L 2847 0 
L 2847 2094 
Q 2847 2600 2669 2842 
Q 2491 3084 2119 3084 
Q 1678 3084 1418 2786 
Q 1159 2488 1159 1978 
L 1159 0 
L 581 0 
L 581 3500 
L 1159 3500 
L 1159 2956 
Q 1356 3278 1631 3431 
Q 1906 3584 2284 3584 
Q 2666 3584 2933 3390 
Q 3200 3197 3328 2828 
z
" transform="scale(0.015625)"/>
      </defs>
      <use xlink:href="#DejaVuSans-52"/>
      <use xlink:href="#DejaVuSans-75" x="64.982422"/>
      <use xlink:href="#DejaVuSans-6c" x="128.361328"/>
      <use xlink:href="#DejaVuSans-65" x="156.144531"/>
      <use xlink:href="#DejaVuSans-42" x="217.667969"/>
      <use xlink:href="#DejaVuSans-61" x="286.271484"/>
      <use xlink:href="#DejaVuSans-73" x="347.550781"/>
      <use xlink:href="#DejaVuSans-65" x="399.650391"/>
      <use xlink:href="#DejaVuSans-64" x="461.173828"/>
      <use xlink:href="#DejaVuSans-43" x="524.650391"/>
      <use xlink:href="#DejaVuSans-45" x="594.474609"/>
      <use xlink:href="#DejaVuSans-52" x="657.658203"/>
      <use xlink:href="#DejaVuSans-65" x="722.640625"/>
      <use xlink:href="#DejaVuSans-62" x="784.164062"/>
      <use xlink:href="#DejaVuSans-75" x="847.640625"/>
      <use xlink:href="#DejaVuSans-79" x="911.019531"/>
      <use xlink:href="#DejaVuSans-41" x="970.199219"/>
      <use xlink:href="#DejaVuSans-67" x="1038.607422"/>
      <use xlink:href="#DejaVuSans-65" x="1102.083984"/>
      <use xlink:href="#DejaVuSans-6e" x="1163.607422"/>
      <use xlink:href="#DejaVuSans-74" x="1226.986328"/>
      <use xlink:href="#DejaVuSans-43" x="1266.195312"/>
      <use xlink:href="#DejaVuSans-6f" x="1336.019531"/>
      <use xlink:href="#DejaVuSans-6d" x="1397.201172"/>
      <use xlink:href="#DejaVuSans-70" x="1494.613281"/>
      <use xlink:href="#DejaVuSans-65" x="1558.089844"/>
      <use xlink:href="#DejaVuSans-74" x="1619.613281"/>
      <use xlink:href="#DejaVuSans-69" x="1658.822266"/>
      <use xlink:href="#DejaVuSans-74" x="1686.605469"/>
      <use xlink:href="#DejaVuSans-69" x="1725.814453"/>
      <use xlink:href="#DejaVuSans-76" x="1753.597656"/>
      <use xlink:href="#DejaVuSans-65" x="1812.777344"/>
     </g>
    </g>
   </g>
  </g>
 </g>
 <defs>
  <clipPath id="p0b863eaa48">
   <rect x="57.6" y="41.472" width="357.12" height="266.112"/>
  </clipPath>
 </defs>
</svg>
