<?xml version="1.0" encoding="utf-8" standalone="no"?>
<!DOCTYPE svg PUBLIC "-//W3C//DTD SVG 1.1//EN"
  "http://www.w3.org/Graphics/SVG/1.1/DTD/svg11.dtd">
<svg xmlns:xlink="http://www.w3.org/1999/xlink" width="460.8pt" height="345.6pt" viewBox="0 0 460.8 345.6" xmlns="http://www.w3.org/2000/svg" version="1.1">
 <metadata>
  <rdf:RDF xmlns:dc="http://purl.org/dc/elements/1.1/" xmlns:cc="http://creativecommons.org/ns#" xmlns:rdf="http://www.w3.org/1999/02/22-rdf-syntax-ns#">
   <cc:Work>
    <dc:type rdf:resource="http://purl.org/dc/dcmitype/StillImage"/>
    <dc:date>2022-06-16T12:01:51.098424</dc:date>
    <dc:format>image/svg+xml</dc:format>
    <dc:creator>
     <cc:Agent>
      <dc:title>Matplotlib v3.5.2, https://matplotlib.org/</dc:title>
     </cc:Agent>
    </dc:creator>
   </cc:Work>
  </rdf:RDF>
 </metadata>
 <defs>
  <style type="text/css">*{stroke-linejoin: round; stroke-linecap: butt}</style>
 </defs>
 <g id="figure_1">
  <g id="patch_1">
   <path d="M 0 345.6 
L 460.8 345.6 
L 460.8 0 
L 0 0 
z
" style="fill: #ffffff"/>
  </g>
  <g id="axes_1">
   <g id="patch_2">
    <path d="M 57.6 307.584 
L 414.72 307.584 
L 414.72 41.472 
L 57.6 41.472 
z
" style="fill: #ffffff"/>
   </g>
   <g id="matplotlib.axis_1">
    <g id="xtick_1">
     <g id="line2d_1">
      <defs>
       <path id="m6ed49396ec" d="M 0 0 
L 0 3.5 
" style="stroke: #000000; stroke-width: 0.8"/>
      </defs>
      <g>
       <use xlink:href="#m6ed49396ec" x="71.378182" y="307.584" style="stroke: #000000; stroke-width: 0.8"/>
      </g>
     </g>
     <g id="text_1">
      <!-- 0 -->
      <g transform="translate(68.196932 322.182437)scale(0.1 -0.1)">
       <defs>
        <path id="DejaVuSans-30" d="M 2034 4250 
Q 1547 4250 1301 3770 
Q 1056 3291 1056 2328 
Q 1056 1369 1301 889 
Q 1547 409 2034 409 
Q 2525 409 2770 889 
Q 3016 1369 3016 2328 
Q 3016 3291 2770 3770 
Q 2525 4250 2034 4250 
z
M 2034 4750 
Q 2819 4750 3233 4129 
Q 3647 3509 3647 2328 
Q 3647 1150 3233 529 
Q 2819 -91 2034 -91 
Q 1250 -91 836 529 
Q 422 1150 422 2328 
Q 422 3509 836 4129 
Q 1250 4750 2034 4750 
z
" transform="scale(0.015625)"/>
       </defs>
       <use xlink:href="#DejaVuSans-30"/>
      </g>
     </g>
    </g>
    <g id="xtick_2">
     <g id="line2d_2">
      <g>
       <use xlink:href="#m6ed49396ec" x="112.287273" y="307.584" style="stroke: #000000; stroke-width: 0.8"/>
      </g>
     </g>
     <g id="text_2">
      <!-- 250 -->
      <g transform="translate(102.743523 322.182437)scale(0.1 -0.1)">
       <defs>
        <path id="DejaVuSans-32" d="M 1228 531 
L 3431 531 
L 3431 0 
L 469 0 
L 469 531 
Q 828 903 1448 1529 
Q 2069 2156 2228 2338 
Q 2531 2678 2651 2914 
Q 2772 3150 2772 3378 
Q 2772 3750 2511 3984 
Q 2250 4219 1831 4219 
Q 1534 4219 1204 4116 
Q 875 4013 500 3803 
L 500 4441 
Q 881 4594 1212 4672 
Q 1544 4750 1819 4750 
Q 2544 4750 2975 4387 
Q 3406 4025 3406 3419 
Q 3406 3131 3298 2873 
Q 3191 2616 2906 2266 
Q 2828 2175 2409 1742 
Q 1991 1309 1228 531 
z
" transform="scale(0.015625)"/>
        <path id="DejaVuSans-35" d="M 691 4666 
L 3169 4666 
L 3169 4134 
L 1269 4134 
L 1269 2991 
Q 1406 3038 1543 3061 
Q 1681 3084 1819 3084 
Q 2600 3084 3056 2656 
Q 3513 2228 3513 1497 
Q 3513 744 3044 326 
Q 2575 -91 1722 -91 
Q 1428 -91 1123 -41 
Q 819 9 494 109 
L 494 744 
Q 775 591 1075 516 
Q 1375 441 1709 441 
Q 2250 441 2565 725 
Q 2881 1009 2881 1497 
Q 2881 1984 2565 2268 
Q 2250 2553 1709 2553 
Q 1456 2553 1204 2497 
Q 953 2441 691 2322 
L 691 4666 
z
" transform="scale(0.015625)"/>
       </defs>
       <use xlink:href="#DejaVuSans-32"/>
       <use xlink:href="#DejaVuSans-35" x="63.623047"/>
       <use xlink:href="#DejaVuSans-30" x="127.246094"/>
      </g>
     </g>
    </g>
    <g id="xtick_3">
     <g id="line2d_3">
      <g>
       <use xlink:href="#m6ed49396ec" x="153.196364" y="307.584" style="stroke: #000000; stroke-width: 0.8"/>
      </g>
     </g>
     <g id="text_3">
      <!-- 500 -->
      <g transform="translate(143.652614 322.182437)scale(0.1 -0.1)">
       <use xlink:href="#DejaVuSans-35"/>
       <use xlink:href="#DejaVuSans-30" x="63.623047"/>
       <use xlink:href="#DejaVuSans-30" x="127.246094"/>
      </g>
     </g>
    </g>
    <g id="xtick_4">
     <g id="line2d_4">
      <g>
       <use xlink:href="#m6ed49396ec" x="194.105455" y="307.584" style="stroke: #000000; stroke-width: 0.8"/>
      </g>
     </g>
     <g id="text_4">
      <!-- 750 -->
      <g transform="translate(184.561705 322.182437)scale(0.1 -0.1)">
       <defs>
        <path id="DejaVuSans-37" d="M 525 4666 
L 3525 4666 
L 3525 4397 
L 1831 0 
L 1172 0 
L 2766 4134 
L 525 4134 
L 525 4666 
z
" transform="scale(0.015625)"/>
       </defs>
       <use xlink:href="#DejaVuSans-37"/>
       <use xlink:href="#DejaVuSans-35" x="63.623047"/>
       <use xlink:href="#DejaVuSans-30" x="127.246094"/>
      </g>
     </g>
    </g>
    <g id="xtick_5">
     <g id="line2d_5">
      <g>
       <use xlink:href="#m6ed49396ec" x="235.014545" y="307.584" style="stroke: #000000; stroke-width: 0.8"/>
      </g>
     </g>
     <g id="text_5">
      <!-- 1000 -->
      <g transform="translate(222.289545 322.182437)scale(0.1 -0.1)">
       <defs>
        <path id="DejaVuSans-31" d="M 794 531 
L 1825 531 
L 1825 4091 
L 703 3866 
L 703 4441 
L 1819 4666 
L 2450 4666 
L 2450 531 
L 3481 531 
L 3481 0 
L 794 0 
L 794 531 
z
" transform="scale(0.015625)"/>
       </defs>
       <use xlink:href="#DejaVuSans-31"/>
       <use xlink:href="#DejaVuSans-30" x="63.623047"/>
       <use xlink:href="#DejaVuSans-30" x="127.246094"/>
       <use xlink:href="#DejaVuSans-30" x="190.869141"/>
      </g>
     </g>
    </g>
    <g id="xtick_6">
     <g id="line2d_6">
      <g>
       <use xlink:href="#m6ed49396ec" x="275.923636" y="307.584" style="stroke: #000000; stroke-width: 0.8"/>
      </g>
     </g>
     <g id="text_6">
      <!-- 1250 -->
      <g transform="translate(263.198636 322.182437)scale(0.1 -0.1)">
       <use xlink:href="#DejaVuSans-31"/>
       <use xlink:href="#DejaVuSans-32" x="63.623047"/>
       <use xlink:href="#DejaVuSans-35" x="127.246094"/>
       <use xlink:href="#DejaVuSans-30" x="190.869141"/>
      </g>
     </g>
    </g>
    <g id="xtick_7">
     <g id="line2d_7">
      <g>
       <use xlink:href="#m6ed49396ec" x="316.832727" y="307.584" style="stroke: #000000; stroke-width: 0.8"/>
      </g>
     </g>
     <g id="text_7">
      <!-- 1500 -->
      <g transform="translate(304.107727 322.182437)scale(0.1 -0.1)">
       <use xlink:href="#DejaVuSans-31"/>
       <use xlink:href="#DejaVuSans-35" x="63.623047"/>
       <use xlink:href="#DejaVuSans-30" x="127.246094"/>
       <use xlink:href="#DejaVuSans-30" x="190.869141"/>
      </g>
     </g>
    </g>
    <g id="xtick_8">
     <g id="line2d_8">
      <g>
       <use xlink:href="#m6ed49396ec" x="357.741818" y="307.584" style="stroke: #000000; stroke-width: 0.8"/>
      </g>
     </g>
     <g id="text_8">
      <!-- 1750 -->
      <g transform="translate(345.016818 322.182437)scale(0.1 -0.1)">
       <use xlink:href="#DejaVuSans-31"/>
       <use xlink:href="#DejaVuSans-37" x="63.623047"/>
       <use xlink:href="#DejaVuSans-35" x="127.246094"/>
       <use xlink:href="#DejaVuSans-30" x="190.869141"/>
      </g>
     </g>
    </g>
    <g id="xtick_9">
     <g id="line2d_9">
      <g>
       <use xlink:href="#m6ed49396ec" x="398.650909" y="307.584" style="stroke: #000000; stroke-width: 0.8"/>
      </g>
     </g>
     <g id="text_9">
      <!-- 2000 -->
      <g transform="translate(385.925909 322.182437)scale(0.1 -0.1)">
       <use xlink:href="#DejaVuSans-32"/>
       <use xlink:href="#DejaVuSans-30" x="63.623047"/>
       <use xlink:href="#DejaVuSans-30" x="127.246094"/>
       <use xlink:href="#DejaVuSans-30" x="190.869141"/>
      </g>
     </g>
    </g>
    <g id="text_10">
     <!-- Episode -->
     <g transform="translate(216.5225 335.860562)scale(0.1 -0.1)">
      <defs>
       <path id="DejaVuSans-45" d="M 628 4666 
L 3578 4666 
L 3578 4134 
L 1259 4134 
L 1259 2753 
L 3481 2753 
L 3481 2222 
L 1259 2222 
L 1259 531 
L 3634 531 
L 3634 0 
L 628 0 
L 628 4666 
z
" transform="scale(0.015625)"/>
       <path id="DejaVuSans-70" d="M 1159 525 
L 1159 -1331 
L 581 -1331 
L 581 3500 
L 1159 3500 
L 1159 2969 
Q 1341 3281 1617 3432 
Q 1894 3584 2278 3584 
Q 2916 3584 3314 3078 
Q 3713 2572 3713 1747 
Q 3713 922 3314 415 
Q 2916 -91 2278 -91 
Q 1894 -91 1617 61 
Q 1341 213 1159 525 
z
M 3116 1747 
Q 3116 2381 2855 2742 
Q 2594 3103 2138 3103 
Q 1681 3103 1420 2742 
Q 1159 2381 1159 1747 
Q 1159 1113 1420 752 
Q 1681 391 2138 391 
Q 2594 391 2855 752 
Q 3116 1113 3116 1747 
z
" transform="scale(0.015625)"/>
       <path id="DejaVuSans-69" d="M 603 3500 
L 1178 3500 
L 1178 0 
L 603 0 
L 603 3500 
z
M 603 4863 
L 1178 4863 
L 1178 4134 
L 603 4134 
L 603 4863 
z
" transform="scale(0.015625)"/>
       <path id="DejaVuSans-73" d="M 2834 3397 
L 2834 2853 
Q 2591 2978 2328 3040 
Q 2066 3103 1784 3103 
Q 1356 3103 1142 2972 
Q 928 2841 928 2578 
Q 928 2378 1081 2264 
Q 1234 2150 1697 2047 
L 1894 2003 
Q 2506 1872 2764 1633 
Q 3022 1394 3022 966 
Q 3022 478 2636 193 
Q 2250 -91 1575 -91 
Q 1294 -91 989 -36 
Q 684 19 347 128 
L 347 722 
Q 666 556 975 473 
Q 1284 391 1588 391 
Q 1994 391 2212 530 
Q 2431 669 2431 922 
Q 2431 1156 2273 1281 
Q 2116 1406 1581 1522 
L 1381 1569 
Q 847 1681 609 1914 
Q 372 2147 372 2553 
Q 372 3047 722 3315 
Q 1072 3584 1716 3584 
Q 2034 3584 2315 3537 
Q 2597 3491 2834 3397 
z
" transform="scale(0.015625)"/>
       <path id="DejaVuSans-6f" d="M 1959 3097 
Q 1497 3097 1228 2736 
Q 959 2375 959 1747 
Q 959 1119 1226 758 
Q 1494 397 1959 397 
Q 2419 397 2687 759 
Q 2956 1122 2956 1747 
Q 2956 2369 2687 2733 
Q 2419 3097 1959 3097 
z
M 1959 3584 
Q 2709 3584 3137 3096 
Q 3566 2609 3566 1747 
Q 3566 888 3137 398 
Q 2709 -91 1959 -91 
Q 1206 -91 779 398 
Q 353 888 353 1747 
Q 353 2609 779 3096 
Q 1206 3584 1959 3584 
z
" transform="scale(0.015625)"/>
       <path id="DejaVuSans-64" d="M 2906 2969 
L 2906 4863 
L 3481 4863 
L 3481 0 
L 2906 0 
L 2906 525 
Q 2725 213 2448 61 
Q 2172 -91 1784 -91 
Q 1150 -91 751 415 
Q 353 922 353 1747 
Q 353 2572 751 3078 
Q 1150 3584 1784 3584 
Q 2172 3584 2448 3432 
Q 2725 3281 2906 2969 
z
M 947 1747 
Q 947 1113 1208 752 
Q 1469 391 1925 391 
Q 2381 391 2643 752 
Q 2906 1113 2906 1747 
Q 2906 2381 2643 2742 
Q 2381 3103 1925 3103 
Q 1469 3103 1208 2742 
Q 947 2381 947 1747 
z
" transform="scale(0.015625)"/>
       <path id="DejaVuSans-65" d="M 3597 1894 
L 3597 1613 
L 953 1613 
Q 991 1019 1311 708 
Q 1631 397 2203 397 
Q 2534 397 2845 478 
Q 3156 559 3463 722 
L 3463 178 
Q 3153 47 2828 -22 
Q 2503 -91 2169 -91 
Q 1331 -91 842 396 
Q 353 884 353 1716 
Q 353 2575 817 3079 
Q 1281 3584 2069 3584 
Q 2775 3584 3186 3129 
Q 3597 2675 3597 1894 
z
M 3022 2063 
Q 3016 2534 2758 2815 
Q 2500 3097 2075 3097 
Q 1594 3097 1305 2825 
Q 1016 2553 972 2059 
L 3022 2063 
z
" transform="scale(0.015625)"/>
      </defs>
      <use xlink:href="#DejaVuSans-45"/>
      <use xlink:href="#DejaVuSans-70" x="63.183594"/>
      <use xlink:href="#DejaVuSans-69" x="126.660156"/>
      <use xlink:href="#DejaVuSans-73" x="154.443359"/>
      <use xlink:href="#DejaVuSans-6f" x="206.542969"/>
      <use xlink:href="#DejaVuSans-64" x="267.724609"/>
      <use xlink:href="#DejaVuSans-65" x="331.201172"/>
     </g>
    </g>
   </g>
   <g id="matplotlib.axis_2">
    <g id="ytick_1">
     <g id="line2d_10">
      <defs>
       <path id="m0c08406c08" d="M 0 0 
L -3.5 0 
" style="stroke: #000000; stroke-width: 0.8"/>
      </defs>
      <g>
       <use xlink:href="#m0c08406c08" x="57.6" y="285.18283" style="stroke: #000000; stroke-width: 0.8"/>
      </g>
     </g>
     <g id="text_11">
      <!-- 40 -->
      <g transform="translate(37.875 288.982049)scale(0.1 -0.1)">
       <defs>
        <path id="DejaVuSans-34" d="M 2419 4116 
L 825 1625 
L 2419 1625 
L 2419 4116 
z
M 2253 4666 
L 3047 4666 
L 3047 1625 
L 3713 1625 
L 3713 1100 
L 3047 1100 
L 3047 0 
L 2419 0 
L 2419 1100 
L 313 1100 
L 313 1709 
L 2253 4666 
z
" transform="scale(0.015625)"/>
       </defs>
       <use xlink:href="#DejaVuSans-34"/>
       <use xlink:href="#DejaVuSans-30" x="63.623047"/>
      </g>
     </g>
    </g>
    <g id="ytick_2">
     <g id="line2d_11">
      <g>
       <use xlink:href="#m0c08406c08" x="57.6" y="227.329243" style="stroke: #000000; stroke-width: 0.8"/>
      </g>
     </g>
     <g id="text_12">
      <!-- 60 -->
      <g transform="translate(37.875 231.128462)scale(0.1 -0.1)">
       <defs>
        <path id="DejaVuSans-36" d="M 2113 2584 
Q 1688 2584 1439 2293 
Q 1191 2003 1191 1497 
Q 1191 994 1439 701 
Q 1688 409 2113 409 
Q 2538 409 2786 701 
Q 3034 994 3034 1497 
Q 3034 2003 2786 2293 
Q 2538 2584 2113 2584 
z
M 3366 4563 
L 3366 3988 
Q 3128 4100 2886 4159 
Q 2644 4219 2406 4219 
Q 1781 4219 1451 3797 
Q 1122 3375 1075 2522 
Q 1259 2794 1537 2939 
Q 1816 3084 2150 3084 
Q 2853 3084 3261 2657 
Q 3669 2231 3669 1497 
Q 3669 778 3244 343 
Q 2819 -91 2113 -91 
Q 1303 -91 875 529 
Q 447 1150 447 2328 
Q 447 3434 972 4092 
Q 1497 4750 2381 4750 
Q 2619 4750 2861 4703 
Q 3103 4656 3366 4563 
z
" transform="scale(0.015625)"/>
       </defs>
       <use xlink:href="#DejaVuSans-36"/>
       <use xlink:href="#DejaVuSans-30" x="63.623047"/>
      </g>
     </g>
    </g>
    <g id="ytick_3">
     <g id="line2d_12">
      <g>
       <use xlink:href="#m0c08406c08" x="57.6" y="169.475656" style="stroke: #000000; stroke-width: 0.8"/>
      </g>
     </g>
     <g id="text_13">
      <!-- 80 -->
      <g transform="translate(37.875 173.274875)scale(0.1 -0.1)">
       <defs>
        <path id="DejaVuSans-38" d="M 2034 2216 
Q 1584 2216 1326 1975 
Q 1069 1734 1069 1313 
Q 1069 891 1326 650 
Q 1584 409 2034 409 
Q 2484 409 2743 651 
Q 3003 894 3003 1313 
Q 3003 1734 2745 1975 
Q 2488 2216 2034 2216 
z
M 1403 2484 
Q 997 2584 770 2862 
Q 544 3141 544 3541 
Q 544 4100 942 4425 
Q 1341 4750 2034 4750 
Q 2731 4750 3128 4425 
Q 3525 4100 3525 3541 
Q 3525 3141 3298 2862 
Q 3072 2584 2669 2484 
Q 3125 2378 3379 2068 
Q 3634 1759 3634 1313 
Q 3634 634 3220 271 
Q 2806 -91 2034 -91 
Q 1263 -91 848 271 
Q 434 634 434 1313 
Q 434 1759 690 2068 
Q 947 2378 1403 2484 
z
M 1172 3481 
Q 1172 3119 1398 2916 
Q 1625 2713 2034 2713 
Q 2441 2713 2670 2916 
Q 2900 3119 2900 3481 
Q 2900 3844 2670 4047 
Q 2441 4250 2034 4250 
Q 1625 4250 1398 4047 
Q 1172 3844 1172 3481 
z
" transform="scale(0.015625)"/>
       </defs>
       <use xlink:href="#DejaVuSans-38"/>
       <use xlink:href="#DejaVuSans-30" x="63.623047"/>
      </g>
     </g>
    </g>
    <g id="ytick_4">
     <g id="line2d_13">
      <g>
       <use xlink:href="#m0c08406c08" x="57.6" y="111.62207" style="stroke: #000000; stroke-width: 0.8"/>
      </g>
     </g>
     <g id="text_14">
      <!-- 100 -->
      <g transform="translate(31.5125 115.421288)scale(0.1 -0.1)">
       <use xlink:href="#DejaVuSans-31"/>
       <use xlink:href="#DejaVuSans-30" x="63.623047"/>
       <use xlink:href="#DejaVuSans-30" x="127.246094"/>
      </g>
     </g>
    </g>
    <g id="ytick_5">
     <g id="line2d_14">
      <g>
       <use xlink:href="#m0c08406c08" x="57.6" y="53.768483" style="stroke: #000000; stroke-width: 0.8"/>
      </g>
     </g>
     <g id="text_15">
      <!-- 120 -->
      <g transform="translate(31.5125 57.567701)scale(0.1 -0.1)">
       <use xlink:href="#DejaVuSans-31"/>
       <use xlink:href="#DejaVuSans-32" x="63.623047"/>
       <use xlink:href="#DejaVuSans-30" x="127.246094"/>
      </g>
     </g>
    </g>
    <g id="text_16">
     <!-- owner/throw_away -->
     <g transform="translate(25.154687 221.558469)rotate(-90)scale(0.1 -0.1)">
      <defs>
       <path id="DejaVuSans-77" d="M 269 3500 
L 844 3500 
L 1563 769 
L 2278 3500 
L 2956 3500 
L 3675 769 
L 4391 3500 
L 4966 3500 
L 4050 0 
L 3372 0 
L 2619 2869 
L 1863 0 
L 1184 0 
L 269 3500 
z
" transform="scale(0.015625)"/>
       <path id="DejaVuSans-6e" d="M 3513 2113 
L 3513 0 
L 2938 0 
L 2938 2094 
Q 2938 2591 2744 2837 
Q 2550 3084 2163 3084 
Q 1697 3084 1428 2787 
Q 1159 2491 1159 1978 
L 1159 0 
L 581 0 
L 581 3500 
L 1159 3500 
L 1159 2956 
Q 1366 3272 1645 3428 
Q 1925 3584 2291 3584 
Q 2894 3584 3203 3211 
Q 3513 2838 3513 2113 
z
" transform="scale(0.015625)"/>
       <path id="DejaVuSans-72" d="M 2631 2963 
Q 2534 3019 2420 3045 
Q 2306 3072 2169 3072 
Q 1681 3072 1420 2755 
Q 1159 2438 1159 1844 
L 1159 0 
L 581 0 
L 581 3500 
L 1159 3500 
L 1159 2956 
Q 1341 3275 1631 3429 
Q 1922 3584 2338 3584 
Q 2397 3584 2469 3576 
Q 2541 3569 2628 3553 
L 2631 2963 
z
" transform="scale(0.015625)"/>
       <path id="DejaVuSans-2f" d="M 1625 4666 
L 2156 4666 
L 531 -594 
L 0 -594 
L 1625 4666 
z
" transform="scale(0.015625)"/>
       <path id="DejaVuSans-74" d="M 1172 4494 
L 1172 3500 
L 2356 3500 
L 2356 3053 
L 1172 3053 
L 1172 1153 
Q 1172 725 1289 603 
Q 1406 481 1766 481 
L 2356 481 
L 2356 0 
L 1766 0 
Q 1100 0 847 248 
Q 594 497 594 1153 
L 594 3053 
L 172 3053 
L 172 3500 
L 594 3500 
L 594 4494 
L 1172 4494 
z
" transform="scale(0.015625)"/>
       <path id="DejaVuSans-68" d="M 3513 2113 
L 3513 0 
L 2938 0 
L 2938 2094 
Q 2938 2591 2744 2837 
Q 2550 3084 2163 3084 
Q 1697 3084 1428 2787 
Q 1159 2491 1159 1978 
L 1159 0 
L 581 0 
L 581 4863 
L 1159 4863 
L 1159 2956 
Q 1366 3272 1645 3428 
Q 1925 3584 2291 3584 
Q 2894 3584 3203 3211 
Q 3513 2838 3513 2113 
z
" transform="scale(0.015625)"/>
       <path id="DejaVuSans-5f" d="M 3263 -1063 
L 3263 -1509 
L -63 -1509 
L -63 -1063 
L 3263 -1063 
z
" transform="scale(0.015625)"/>
       <path id="DejaVuSans-61" d="M 2194 1759 
Q 1497 1759 1228 1600 
Q 959 1441 959 1056 
Q 959 750 1161 570 
Q 1363 391 1709 391 
Q 2188 391 2477 730 
Q 2766 1069 2766 1631 
L 2766 1759 
L 2194 1759 
z
M 3341 1997 
L 3341 0 
L 2766 0 
L 2766 531 
Q 2569 213 2275 61 
Q 1981 -91 1556 -91 
Q 1019 -91 701 211 
Q 384 513 384 1019 
Q 384 1609 779 1909 
Q 1175 2209 1959 2209 
L 2766 2209 
L 2766 2266 
Q 2766 2663 2505 2880 
Q 2244 3097 1772 3097 
Q 1472 3097 1187 3025 
Q 903 2953 641 2809 
L 641 3341 
Q 956 3463 1253 3523 
Q 1550 3584 1831 3584 
Q 2591 3584 2966 3190 
Q 3341 2797 3341 1997 
z
" transform="scale(0.015625)"/>
       <path id="DejaVuSans-79" d="M 2059 -325 
Q 1816 -950 1584 -1140 
Q 1353 -1331 966 -1331 
L 506 -1331 
L 506 -850 
L 844 -850 
Q 1081 -850 1212 -737 
Q 1344 -625 1503 -206 
L 1606 56 
L 191 3500 
L 800 3500 
L 1894 763 
L 2988 3500 
L 3597 3500 
L 2059 -325 
z
" transform="scale(0.015625)"/>
      </defs>
      <use xlink:href="#DejaVuSans-6f"/>
      <use xlink:href="#DejaVuSans-77" x="61.181641"/>
      <use xlink:href="#DejaVuSans-6e" x="142.96875"/>
      <use xlink:href="#DejaVuSans-65" x="206.347656"/>
      <use xlink:href="#DejaVuSans-72" x="267.871094"/>
      <use xlink:href="#DejaVuSans-2f" x="308.984375"/>
      <use xlink:href="#DejaVuSans-74" x="342.675781"/>
      <use xlink:href="#DejaVuSans-68" x="381.884766"/>
      <use xlink:href="#DejaVuSans-72" x="445.263672"/>
      <use xlink:href="#DejaVuSans-6f" x="484.126953"/>
      <use xlink:href="#DejaVuSans-77" x="545.308594"/>
      <use xlink:href="#DejaVuSans-5f" x="627.095703"/>
      <use xlink:href="#DejaVuSans-61" x="677.095703"/>
      <use xlink:href="#DejaVuSans-77" x="738.375"/>
      <use xlink:href="#DejaVuSans-61" x="820.162109"/>
      <use xlink:href="#DejaVuSans-79" x="881.441406"/>
     </g>
    </g>
   </g>
   <g id="line2d_15">
    <path d="M 73.832727 295.488 
L 74.323636 286.4008 
L 74.487273 290.245019 
L 74.814545 276.241821 
L 75.141818 280.000113 
L 75.305455 282.290151 
L 75.469091 281.95638 
L 75.796364 266.690344 
L 76.287273 253.176733 
L 76.450909 254.176923 
L 76.614545 256.606664 
L 76.778182 250.555757 
L 76.941818 253.115413 
L 77.105455 250.470678 
L 77.269091 244.450778 
L 77.432727 246.131659 
L 77.596364 245.427032 
L 77.76 249.024338 
L 77.923636 245.179191 
L 78.087273 245.925039 
L 78.250909 244.079875 
L 78.414545 239.820358 
L 78.578182 241.471231 
L 78.741818 239.780341 
L 78.905455 241.177176 
L 79.232727 244.803388 
L 79.56 246.160018 
L 79.887273 243.102532 
L 80.050909 244.524615 
L 80.214545 243.949001 
L 80.378182 242.360845 
L 80.541818 239.255202 
L 80.705455 238.700465 
L 81.032727 232.487855 
L 81.523636 235.226717 
L 81.687273 233.566583 
L 82.178182 237.086639 
L 82.341818 236.432675 
L 82.669091 232.288122 
L 82.832727 233.155344 
L 82.996364 230.221922 
L 83.16 230.221922 
L 83.323636 228.580131 
L 83.487273 229.373403 
L 83.814545 225.86412 
L 83.978182 227.217986 
L 84.305455 223.894186 
L 84.469091 222.758095 
L 84.632727 224.119075 
L 84.796364 222.519728 
L 84.96 223.265717 
L 85.123636 221.543884 
L 85.287273 223.091131 
L 85.450909 223.139845 
L 85.614545 224.042107 
L 85.941818 220.804644 
L 86.269091 219.280048 
L 86.596364 220.805328 
L 86.76 220.90445 
L 87.087273 219.456384 
L 87.250909 220.599336 
L 87.414545 220.492001 
L 87.578182 219.085107 
L 87.741818 219.653619 
L 88.56 211.892073 
L 88.887273 207.853778 
L 89.050909 207.911059 
L 89.378182 203.55772 
L 89.541818 203.729562 
L 89.705455 200.693681 
L 89.869091 200.321356 
L 90.032727 199.089819 
L 90.196364 196.741307 
L 90.36 196.655386 
L 90.523636 195.796174 
L 90.687273 193.504943 
L 90.850909 193.619505 
L 91.014545 190.068096 
L 91.178182 190.239939 
L 91.341818 191.04187 
L 91.505455 190.841387 
L 91.669091 191.09915 
L 91.832727 190.125377 
L 91.996364 190.898668 
L 92.323636 195.45249 
L 92.487273 195.252007 
L 92.814545 196.025297 
L 92.978182 194.707839 
L 93.141818 194.306874 
L 93.305455 195.080164 
L 93.469091 194.994243 
L 93.632727 194.707839 
L 93.796364 195.738893 
L 94.450909 193.619505 
L 94.614545 193.905909 
L 94.778182 193.132618 
L 94.941818 195.366568 
L 95.105455 192.731653 
L 95.269091 194.220953 
L 95.432727 194.077751 
L 95.923636 191.586037 
L 96.087273 191.643318 
L 96.414545 194.679199 
L 96.741818 190.268579 
L 97.069091 190.640904 
L 97.232727 190.32586 
L 97.396364 190.383141 
L 97.56 193.189899 
L 97.723636 193.476303 
L 97.887273 193.533583 
L 98.050909 192.445249 
L 98.214545 192.216126 
L 98.378182 189.552569 
L 98.541818 189.208885 
L 98.705455 189.266165 
L 98.869091 189.122963 
L 99.196364 191.757879 
L 99.36 191.929722 
L 99.523636 194.507357 
L 99.687273 194.02047 
L 99.850909 194.478716 
L 100.014545 194.335514 
L 100.341818 197.285474 
L 100.505455 195.652972 
L 100.669091 198.173327 
L 100.996364 196.626746 
L 101.16 195.996657 
L 101.323636 197.801002 
L 101.487273 197.543238 
L 101.650909 197.514598 
L 101.814545 195.939376 
L 101.978182 196.426263 
L 102.141818 194.936963 
L 102.305455 194.994243 
L 102.469091 195.910736 
L 102.632727 195.194726 
L 102.796364 197.142273 
L 102.96 194.679199 
L 103.123636 195.108805 
L 103.287273 194.278234 
L 103.614545 194.650559 
L 103.778182 193.676785 
L 103.941818 194.908322 
L 104.105455 197.71508 
L 104.269091 196.94179 
L 104.76 199.519425 
L 104.923636 198.201967 
L 105.087273 198.574292 
L 105.250909 198.373809 
L 105.414545 199.949031 
L 105.578182 200.378637 
L 105.741818 201.667454 
L 106.069091 201.151927 
L 106.232727 201.35241 
L 106.396364 202.154341 
L 106.723636 205.362064 
L 106.887273 204.789257 
L 107.050909 205.01838 
L 107.214545 206.335838 
L 107.378182 206.708163 
L 107.541818 208.798911 
L 107.869091 209.45764 
L 108.032727 207.366892 
L 108.196364 206.937286 
L 108.523636 204.731976 
L 108.850909 202.784429 
L 109.014545 203.815483 
L 109.178182 204.130528 
L 109.341818 205.07566 
L 109.505455 205.104301 
L 109.669091 204.130528 
L 109.832727 205.190222 
L 109.996364 203.185395 
L 110.16 203.099474 
L 110.323636 203.443158 
L 110.487273 201.953858 
L 110.650909 202.1257 
L 110.814545 200.894164 
L 110.978182 202.669868 
L 111.141818 200.66504 
L 111.305455 203.013552 
L 111.469091 202.297543 
L 111.632727 204.416931 
L 112.123636 198.373809 
L 112.287273 197.915563 
L 112.614545 195.968017 
L 112.778182 196.397622 
L 112.941818 194.822401 
L 113.269091 197.68644 
L 113.432727 196.798588 
L 113.596364 198.832056 
L 113.76 198.889336 
L 113.923636 199.17574 
L 114.087273 197.428676 
L 114.250909 197.314115 
L 114.414545 197.371396 
L 114.578182 198.259248 
L 114.741818 198.087405 
L 114.905455 198.45973 
L 115.069091 198.345169 
L 115.232727 195.051524 
L 115.396364 196.25442 
L 115.723636 196.168499 
L 115.887273 195.423849 
L 116.050909 195.824815 
L 116.214545 196.94179 
L 116.378182 196.483544 
L 116.541818 196.741307 
L 116.705455 195.223366 
L 116.869091 195.252007 
L 117.032727 196.311701 
L 117.36 196.483544 
L 117.523636 197.400036 
L 117.850909 195.681613 
L 118.014545 195.108805 
L 118.178182 197.142273 
L 118.341818 197.68644 
L 118.505455 195.337928 
L 118.669091 195.910736 
L 118.832727 197.084992 
L 118.996364 196.368982 
L 119.16 197.6578 
L 119.323636 197.428676 
L 119.487273 199.347583 
L 119.650909 199.1471 
L 119.814545 198.173327 
L 119.978182 198.43109 
L 120.305455 200.435917 
L 120.632727 198.259248 
L 120.796364 198.517011 
L 120.96 198.087405 
L 121.123636 198.058765 
L 121.287273 199.576706 
L 121.450909 199.89175 
L 121.778182 202.927631 
L 121.941818 202.669868 
L 122.105455 198.889336 
L 122.269091 199.433504 
L 122.432727 199.290302 
L 122.596364 197.915563 
L 122.76 199.17574 
L 122.923636 197.543238 
L 123.087273 197.285474 
L 123.250909 195.595692 
L 123.414545 196.913149 
L 123.578182 196.111219 
L 123.741818 196.111219 
L 123.905455 195.738893 
L 124.069091 196.798588 
L 124.232727 196.855869 
L 124.396364 195.337928 
L 124.56 197.285474 
L 124.723636 196.655386 
L 124.887273 198.517011 
L 125.050909 198.832056 
L 125.214545 200.407277 
L 125.378182 200.808242 
L 125.541818 200.063592 
L 125.705455 201.037366 
L 125.869091 199.576706 
L 126.032727 200.6364 
L 126.196364 199.519425 
L 126.36 199.233021 
L 126.687273 201.867937 
L 127.341818 204.445572 
L 127.505455 202.211621 
L 127.669091 202.06842 
L 127.832727 199.605346 
L 127.996364 199.261661 
L 128.16 199.318942 
L 128.323636 198.602932 
L 128.487273 199.003898 
L 128.650909 201.38105 
L 128.814545 201.123287 
L 128.978182 202.1257 
L 129.141818 201.409691 
L 129.305455 198.40245 
L 129.632727 196.855869 
L 129.96 199.404863 
L 130.123636 199.519425 
L 130.287273 199.89175 
L 130.614545 201.610173 
L 130.941818 198.488371 
L 131.105455 198.144686 
L 131.432727 198.631573 
L 131.596364 197.772361 
L 131.76 199.633986 
L 132.087273 195.337928 
L 132.250909 196.540824 
L 132.414545 196.769947 
L 132.578182 196.684026 
L 132.741818 196.111219 
L 132.905455 197.170913 
L 133.069091 195.223366 
L 133.232727 196.25442 
L 133.723636 193.762707 
L 133.887273 193.99183 
L 134.050909 194.507357 
L 134.214545 196.139859 
L 134.378182 196.340342 
L 134.705455 195.280647 
L 134.869091 195.910736 
L 135.032727 197.743721 
L 135.196364 197.199553 
L 135.36 195.366568 
L 135.523636 195.45249 
L 136.178182 190.182658 
L 136.505455 193.333101 
L 136.832727 187.977348 
L 136.996364 189.552569 
L 137.16 186.516688 
L 137.323636 187.490461 
L 137.487273 186.516688 
L 137.814545 182.879359 
L 137.978182 182.96528 
L 138.469091 179.528433 
L 138.632727 181.647822 
L 138.796364 182.106068 
L 139.123636 184.196816 
L 139.287273 183.652649 
L 139.614545 180.78861 
L 139.778182 182.306551 
L 139.941818 180.874531 
L 140.105455 180.874531 
L 140.269091 180.702689 
L 140.596364 178.812423 
L 140.76 176.922158 
L 141.087273 177.265842 
L 141.414545 174.287242 
L 141.905455 170.105745 
L 142.069091 170.306228 
L 142.232727 167.843154 
L 142.723636 168.931489 
L 142.887273 168.358681 
L 143.214545 165.609204 
L 143.378182 165.150957 
L 143.705455 163.174771 
L 143.869091 162.057795 
L 144.36 166.955302 
L 144.687273 165.036396 
L 145.014545 168.530523 
L 145.341818 166.353854 
L 145.505455 166.09609 
L 145.669091 166.640258 
L 145.832727 166.153371 
L 145.996364 166.869381 
L 146.814545 161.800032 
L 147.141818 162.029155 
L 147.305455 162.487401 
L 147.632727 159.852485 
L 147.96 162.630603 
L 148.123636 161.857313 
L 148.287273 161.828672 
L 148.450909 162.057795 
L 148.614545 161.971874 
L 148.778182 161.055382 
L 148.941818 161.313145 
L 149.105455 160.711697 
L 149.269091 160.597136 
L 149.432727 159.995687 
L 149.76 161.026741 
L 149.923636 160.511214 
L 150.087273 160.625776 
L 150.250909 161.055382 
L 150.414545 162.458761 
L 150.741818 162.229638 
L 150.905455 161.771392 
L 151.069091 162.344199 
L 151.232727 160.052968 
L 151.396364 159.881126 
L 151.56 159.909766 
L 151.887273 162.029155 
L 152.378182 164.349027 
L 152.541818 164.921834 
L 152.705455 162.573322 
L 152.869091 162.229638 
L 153.032727 161.513628 
L 153.36 164.005342 
L 153.523636 161.599549 
L 153.687273 161.370426 
L 153.850909 160.625776 
L 154.178182 164.63543 
L 154.341818 164.492229 
L 154.505455 165.695125 
L 154.669091 165.981529 
L 154.832727 164.205825 
L 154.996364 164.291746 
L 155.16 164.864554 
L 155.323636 162.258278 
L 155.650909 161.62819 
L 155.814545 162.315559 
L 156.141818 164.263105 
L 156.305455 162.37284 
L 156.796364 167.241706 
L 156.96 167.241706 
L 157.123636 166.09609 
L 157.287273 168.845568 
L 157.614545 166.926662 
L 157.778182 169.618858 
L 158.105455 168.673725 
L 158.269091 168.100918 
L 158.596364 170.764474 
L 158.76 173.657153 
L 159.087273 172.167853 
L 159.414545 172.482897 
L 159.578182 172.482897 
L 159.905455 171.910089 
L 160.069091 171.738247 
L 160.232727 172.396976 
L 160.396364 171.852809 
L 160.723636 172.826582 
L 160.887273 169.303814 
L 161.050909 170.277587 
L 161.541818 167.699952 
L 161.869091 168.960129 
L 162.523636 172.053291 
L 162.687273 171.337282 
L 162.850909 171.595045 
L 163.014545 172.597459 
L 163.178182 171.365922 
L 163.341818 172.626099 
L 163.505455 171.795528 
L 163.832727 173.39939 
L 163.996364 175.089173 
L 164.16 175.031892 
L 164.323636 172.769301 
L 164.487273 173.657153 
L 164.650909 173.227547 
L 164.814545 173.39939 
L 164.978182 172.941143 
L 165.141818 174.17268 
L 165.305455 172.71202 
L 165.796364 171.423203 
L 165.96 170.621272 
L 166.123636 168.788287 
L 166.450909 169.876622 
L 166.614545 169.303814 
L 166.778182 169.905262 
L 166.941818 168.358681 
L 167.105455 169.160612 
L 167.269091 167.614031 
L 167.432727 167.55675 
L 167.596364 165.781046 
L 167.76 168.530523 
L 167.923636 166.955302 
L 168.087273 167.327627 
L 168.250909 164.434948 
L 168.578182 166.09609 
L 168.905455 166.955302 
L 169.069091 166.468415 
L 169.232727 167.52811 
L 169.56 164.692711 
L 170.050909 166.84074 
L 170.214545 168.616445 
L 170.541818 165.236879 
L 170.705455 165.408721 
L 170.869091 166.010169 
L 171.032727 165.35144 
L 171.196364 165.637844 
L 171.523636 168.616445 
L 171.687273 167.52811 
L 171.850909 169.447016 
L 172.014545 168.559164 
L 172.178182 168.415962 
L 172.341818 167.041223 
L 172.505455 168.330041 
L 172.669091 167.356267 
L 172.832727 167.728593 
L 173.16 163.604376 
L 173.323636 163.919421 
L 173.650909 166.182011 
L 173.814545 165.208238 
L 173.978182 166.210652 
L 174.141818 164.60679 
L 174.305455 161.68547 
L 174.469091 162.487401 
L 174.632727 162.115076 
L 175.123636 159.336958 
L 175.287273 158.993274 
L 175.614545 159.193756 
L 175.778182 156.845245 
L 175.941818 157.21757 
L 176.105455 157.24621 
L 176.269091 156.902525 
L 176.432727 157.360772 
L 176.596364 156.129235 
L 176.76 156.759323 
L 176.923636 157.933579 
L 177.250909 155.355944 
L 177.414545 158.248624 
L 177.578182 156.644762 
L 177.741818 156.644762 
L 177.905455 157.160289 
L 178.069091 156.50156 
L 178.232727 156.329718 
L 178.396364 156.587481 
L 178.723636 152.291423 
L 178.887273 152.606467 
L 179.050909 151.145807 
L 179.378182 154.811777 
L 179.541818 154.353531 
L 179.705455 154.382171 
L 179.869091 152.892871 
L 180.032727 153.694802 
L 180.196364 151.059886 
L 180.36 150.544359 
L 180.687273 149.370103 
L 180.850909 150.458438 
L 181.014545 146.21966 
L 181.178182 146.420143 
L 181.341818 145.961897 
L 181.505455 147.995364 
L 181.669091 146.2483 
L 181.832727 147.70896 
L 181.996364 146.821108 
L 182.16 146.591985 
L 182.323636 147.336635 
L 182.487273 147.537118 
L 182.650909 148.081285 
L 182.814545 145.217246 
L 182.978182 145.389089 
L 183.305455 141.465355 
L 183.469091 141.952242 
L 183.796364 139.202765 
L 183.96 138.257632 
L 184.123636 140.377021 
L 184.450909 136.825612 
L 184.614545 135.393593 
L 184.778182 137.083376 
L 185.105455 134.792145 
L 185.76 132.128588 
L 185.923636 133.274204 
L 186.087273 132.844598 
L 186.741818 126.973318 
L 187.069091 127.632047 
L 187.887273 119.297694 
L 188.214545 120.443309 
L 188.378182 119.813221 
L 188.541818 119.956423 
L 188.705455 118.237999 
L 188.869091 119.7273 
L 189.032727 118.581684 
L 189.196364 119.097211 
L 189.36 117.980236 
L 189.523636 118.180719 
L 189.687273 119.068571 
L 189.850909 116.605497 
L 190.014545 115.889488 
L 190.505455 111.65071 
L 190.669091 111.364306 
L 190.832727 112.223518 
L 190.996364 112.452641 
L 191.650909 106.982326 
L 191.814545 105.321184 
L 191.978182 105.263903 
L 192.141818 104.519253 
L 192.305455 107.326011 
L 192.469091 104.891578 
L 192.632727 104.748376 
L 192.796364 105.206622 
L 192.96 103.201795 
L 193.123636 105.206622 
L 193.287273 104.662455 
L 193.450909 104.777016 
L 193.614545 103.631401 
L 193.941818 104.633814 
L 194.105455 106.266317 
L 194.269091 105.321184 
L 194.432727 103.259076 
L 194.596364 103.488199 
L 194.76 102.657628 
L 194.923636 100.566879 
L 195.250909 102.08482 
L 195.741818 100.967845 
L 195.905455 98.332929 
L 196.069091 97.788761 
L 196.232727 98.017884 
L 196.56 95.411609 
L 196.723636 97.044111 
L 196.887273 96.442663 
L 197.050909 96.328102 
L 197.214545 97.645559 
L 197.378182 97.215954 
L 197.705455 100.967845 
L 197.869091 100.423677 
L 198.032727 99.306702 
L 198.196364 99.793589 
L 198.687273 96.070338 
L 198.850909 96.013057 
L 199.178182 97.330515 
L 199.341818 97.788761 
L 199.505455 96.156259 
L 199.832727 97.130032 
L 199.996364 96.585865 
L 200.16 96.671786 
L 200.487273 96.070338 
L 200.650909 93.693186 
L 200.978182 94.78152 
L 201.305455 93.549984 
L 201.469091 94.180072 
L 201.632727 91.373314 
L 201.796364 92.203885 
L 201.96 91.08691 
L 202.123636 91.258753 
L 202.287273 91.716999 
L 202.450909 91.545156 
L 202.614545 92.862614 
L 202.941818 90.485462 
L 203.269091 92.089324 
L 203.432727 91.05827 
L 203.596364 90.743226 
L 203.76 89.511689 
L 204.087273 89.110723 
L 204.414545 88.10831 
L 204.578182 86.303965 
L 204.741818 85.988921 
L 204.905455 85.21563 
L 205.069091 85.101069 
L 205.232727 85.960281 
L 205.396364 84.900586 
L 205.723636 84.642823 
L 205.887273 86.361246 
L 206.050909 85.330192 
L 206.214545 85.416113 
L 206.378182 86.218044 
L 206.541818 83.869532 
L 206.869091 84.528261 
L 207.032727 83.72633 
L 207.196364 83.955453 
L 207.36 84.728744 
L 207.523636 83.325365 
L 207.850909 84.528261 
L 208.014545 86.848133 
L 208.178182 86.733571 
L 208.341818 88.537916 
L 208.505455 88.337433 
L 208.669091 88.509275 
L 208.832727 86.160763 
L 208.996364 87.449581 
L 209.323636 86.475808 
L 209.487273 88.566556 
L 209.650909 86.619009 
L 209.814545 86.475808 
L 209.978182 85.15835 
L 210.141818 86.189404 
L 210.632727 81.606941 
L 210.796364 80.690449 
L 211.123636 81.091414 
L 211.287273 81.635582 
L 211.450909 84.070015 
L 211.778182 84.528261 
L 211.941818 84.012734 
L 212.105455 85.759798 
L 212.269091 84.957867 
L 212.432727 85.444754 
L 212.76 85.244271 
L 212.923636 86.762211 
L 213.087273 85.702517 
L 213.414545 82.351591 
L 213.578182 82.523434 
L 213.741818 81.263257 
L 213.905455 81.921986 
L 214.232727 80.890932 
L 214.396364 80.833651 
L 214.723636 79.602114 
L 214.887273 80.232203 
L 215.050909 79.716676 
L 215.214545 79.859878 
L 215.541818 75.878863 
L 215.705455 76.480312 
L 216.032727 78.084173 
L 216.36 76.766715 
L 216.523636 76.308469 
L 216.687273 75.477898 
L 216.850909 76.079346 
L 217.178182 78.256016 
L 217.341818 78.256016 
L 217.669091 78.972025 
L 217.996364 77.339523 
L 218.16 79.229789 
L 218.323636 77.540006 
L 218.650909 77.82641 
L 218.978182 77.282243 
L 219.141818 77.740489 
L 219.469091 82.26567 
L 219.796364 80.232203 
L 219.96 80.976853 
L 220.123636 80.547247 
L 220.287273 81.148695 
L 220.450909 79.716676 
L 220.614545 83.411286 
L 220.778182 82.666636 
L 220.941818 83.955453 
L 221.105455 84.012734 
L 221.269091 84.413699 
L 221.432727 84.299138 
L 221.596364 84.585542 
L 221.76 85.15835 
L 222.087273 85.272911 
L 222.250909 84.556901 
L 222.414545 84.757384 
L 222.578182 86.619009 
L 222.905455 85.559315 
L 223.232727 87.3923 
L 223.396364 87.306379 
L 223.56 89.798093 
L 223.723636 90.113137 
L 223.887273 89.282566 
L 224.050909 89.339846 
L 224.378182 90.284979 
L 224.541818 90.370901 
L 224.705455 90.657304 
L 225.032727 88.394714 
L 225.196364 87.735985 
L 225.36 89.798093 
L 225.523636 90.113137 
L 225.687273 88.767039 
L 225.850909 88.8816 
L 226.014545 88.280152 
L 226.178182 88.566556 
L 226.341818 88.222871 
L 226.505455 88.738398 
L 226.669091 88.337433 
L 226.832727 90.399541 
L 226.996364 90.743226 
L 227.323636 94.581038 
L 227.487273 94.380555 
L 227.650909 95.354328 
L 227.814545 95.440249 
L 228.305455 91.459235 
L 228.469091 92.003403 
L 228.796364 88.681118 
L 228.96 90.141777 
L 229.123636 89.740812 
L 229.287273 88.85296 
L 229.450909 87.163177 
L 229.614545 87.535502 
L 229.941818 91.000989 
L 230.105455 89.62625 
L 230.269091 89.855373 
L 230.432727 89.769452 
L 230.76 86.762211 
L 230.923636 86.590369 
L 231.250909 88.280152 
L 231.414545 86.848133 
L 231.578182 87.764625 
L 231.741818 87.249098 
L 231.905455 88.022389 
L 232.069091 87.678704 
L 232.232727 87.678704 
L 232.56 86.64765 
L 232.887273 88.394714 
L 233.050909 89.454408 
L 233.214545 89.769452 
L 233.705455 87.907827 
L 233.869091 87.650064 
L 234.032727 86.819492 
L 234.196364 87.306379 
L 234.36 86.561729 
L 235.014545 92.261166 
L 235.178182 92.089324 
L 235.341818 92.662132 
L 235.996364 88.595196 
L 236.16 90.227699 
L 236.323636 89.884014 
L 236.487273 88.967521 
L 236.650909 89.56897 
L 236.814545 89.139364 
L 236.978182 91.000989 
L 237.141818 89.454408 
L 237.632727 91.08691 
L 237.796364 89.454408 
L 237.96 89.483048 
L 238.287273 87.678704 
L 238.450909 87.506862 
L 238.778182 86.361246 
L 238.941818 84.585542 
L 239.432727 85.616596 
L 239.596364 85.330192 
L 239.76 83.869532 
L 239.923636 83.869532 
L 240.250909 81.377818 
L 240.414545 82.036547 
L 240.578182 83.354005 
L 240.741818 82.179749 
L 240.905455 82.26567 
L 241.232727 79.802597 
L 241.396364 79.344351 
L 241.56 79.372991 
L 242.050909 77.08176 
L 242.214545 78.427858 
L 242.378182 78.5997 
L 242.541818 77.85505 
L 242.705455 78.972025 
L 243.032727 76.107987 
L 243.36 74.590046 
L 243.523636 74.87645 
L 243.687273 72.69978 
L 243.850909 72.613859 
L 244.014545 73.788115 
L 244.178182 73.558992 
L 244.341818 72.556578 
L 244.832727 75.134213 
L 244.996364 74.246361 
L 245.16 74.246361 
L 245.323636 74.418204 
L 245.487273 72.413376 
L 245.650909 72.241534 
L 245.978182 75.220134 
L 246.141818 74.761888 
L 246.305455 72.842982 
L 246.469091 72.928903 
L 246.796364 73.616273 
L 246.96 73.329869 
L 247.123636 73.329869 
L 247.287273 74.446844 
L 247.614545 73.702194 
L 247.941818 73.186667 
L 248.105455 72.871623 
L 248.269091 74.303642 
L 248.432727 74.303642 
L 248.596364 73.988598 
L 248.76 73.186667 
L 248.923636 71.668726 
L 249.087273 71.353682 
L 249.414545 69.434776 
L 249.578182 67.830914 
L 249.905455 69.835741 
L 250.069091 69.864382 
L 250.232727 70.093505 
L 250.396364 69.00517 
L 250.56 70.46583 
L 250.723636 70.322628 
L 250.887273 72.184253 
L 251.378182 69.291574 
L 251.541818 69.434776 
L 251.705455 70.379909 
L 251.869091 68.060037 
L 252.032727 68.346441 
L 252.196364 69.03381 
L 252.36 68.28916 
L 252.523636 68.174599 
L 252.850909 66.943062 
L 253.178182 65.854727 
L 253.341818 66.885781 
L 253.505455 66.857141 
L 253.669091 65.625604 
L 253.832727 65.854727 
L 253.996364 64.59455 
L 254.16 65.3392 
L 254.323636 66.885781 
L 254.487273 66.169771 
L 254.650909 66.341614 
L 255.305455 62.475161 
L 255.469091 62.790205 
L 255.96 58.923753 
L 256.287273 58.465507 
L 256.450909 59.152876 
L 256.941818 62.704284 
L 257.105455 61.730511 
L 257.269091 61.444107 
L 257.596364 61.558669 
L 257.923636 63.87854 
L 258.087273 62.274678 
L 258.250909 62.41788 
L 258.414545 61.902353 
L 258.578182 62.188757 
L 258.741818 60.728097 
L 258.905455 60.814019 
L 259.232727 57.062128 
L 259.396364 58.952393 
L 259.56 59.210157 
L 259.723636 58.637349 
L 259.887273 59.525201 
L 260.050909 59.124236 
L 260.214545 59.496561 
L 260.378182 58.780551 
L 260.705455 56.288837 
L 261.032727 55.343704 
L 261.196364 56.918926 
L 261.36 56.031073 
L 261.523636 56.288837 
L 261.687273 55.973793 
L 261.850909 55.916512 
L 262.014545 56.174275 
L 262.341818 53.568 
L 262.832727 56.775724 
L 262.996364 56.403399 
L 263.16 57.491733 
L 263.487273 53.797123 
L 263.650909 55.80195 
L 263.814545 54.971379 
L 263.978182 54.942739 
L 264.141818 53.854404 
L 264.305455 55.000019 
L 264.469091 54.599054 
L 264.632727 55.486906 
L 264.796364 54.026246 
L 264.96 53.797123 
L 265.287273 58.093182 
L 265.614545 60.126649 
L 265.778182 59.725684 
L 265.941818 60.269851 
L 266.269091 62.790205 
L 266.432727 63.248452 
L 266.596364 64.079023 
L 266.76 63.87854 
L 266.923636 65.31056 
L 267.087273 64.680471 
L 267.250909 62.904767 
L 267.414545 63.477575 
L 267.578182 62.131476 
L 267.741818 63.076609 
L 268.232727 59.009674 
L 268.396364 60.92858 
L 268.887273 58.981034 
L 269.214545 62.016915 
L 269.378182 62.647003 
L 269.705455 65.3392 
L 269.869091 64.56591 
L 270.032727 62.732925 
L 270.196364 62.790205 
L 270.36 61.100422 
L 270.687273 60.126649 
L 270.850909 58.150462 
L 271.014545 60.498974 
L 271.178182 60.298492 
L 271.505455 62.188757 
L 271.669091 62.41788 
L 271.832727 63.420294 
L 272.16 65.912008 
L 272.323636 66.513456 
L 272.814545 70.895436 
L 272.978182 69.663899 
L 273.141818 69.606618 
L 273.469091 67.54451 
L 273.632727 67.458589 
L 273.796364 67.916835 
L 273.96 67.859554 
L 274.123636 67.57315 
L 274.287273 67.888195 
L 274.450909 67.630431 
L 274.614545 68.518283 
L 274.778182 70.208066 
L 275.105455 69.807101 
L 275.596364 77.425444 
L 275.76 77.139041 
L 275.923636 75.821583 
L 276.087273 75.792942 
L 276.250909 76.451671 
L 276.578182 73.587632 
L 276.741818 75.248775 
L 276.905455 74.90509 
L 277.069091 75.477898 
L 277.56 74.275002 
L 277.723636 72.384736 
L 277.887273 72.986184 
L 278.050909 74.647327 
L 278.214545 74.561406 
L 278.378182 75.792942 
L 278.541818 75.363336 
L 278.869091 77.654568 
L 279.36 73.702194 
L 279.687273 73.845396 
L 279.850909 76.480312 
L 280.014545 76.909917 
L 280.178182 75.248775 
L 280.341818 75.506538 
L 280.669091 77.024479 
L 280.832727 75.878863 
L 280.996364 77.396804 
L 281.16 75.306056 
L 281.323636 75.792942 
L 281.487273 77.368164 
L 281.650909 76.652154 
L 281.814545 72.928903 
L 282.141818 75.6211 
L 282.305455 76.222548 
L 282.469091 76.136627 
L 282.796364 73.158026 
L 282.96 72.356096 
L 283.123636 70.437189 
L 283.287273 70.236707 
L 283.450909 69.492057 
L 283.614545 68.174599 
L 283.778182 69.921662 
L 283.941818 69.692539 
L 284.105455 69.864382 
L 284.269091 69.291574 
L 284.432727 70.236707 
L 284.596364 69.77846 
L 284.76 70.379909 
L 284.923636 70.551751 
L 285.087273 71.468243 
L 285.250909 70.46583 
L 285.414545 70.981357 
L 285.578182 69.77846 
L 285.741818 69.406135 
L 285.905455 70.036224 
L 286.232727 68.747406 
L 286.396364 69.549337 
L 286.723636 72.585219 
L 286.887273 73.301228 
L 287.050909 73.358509 
L 287.214545 73.931317 
L 287.378182 75.420617 
L 287.541818 74.991011 
L 287.869091 76.881277 
L 288.032727 77.139041 
L 288.196364 79.057947 
L 288.36 79.430272 
L 288.687273 77.711848 
L 288.850909 78.427858 
L 289.178182 74.847809 
L 289.341818 75.134213 
L 289.505455 77.253602 
L 289.669091 76.33711 
L 289.832727 76.165267 
L 289.996364 77.139041 
L 290.16 77.167681 
L 290.650909 81.091414 
L 290.978182 79.430272 
L 291.141818 79.974439 
L 291.305455 79.31571 
L 291.469091 79.344351 
L 291.632727 79.859878 
L 291.96 75.707021 
L 292.123636 75.878863 
L 292.287273 78.656981 
L 292.450909 78.742902 
L 292.614545 79.029306 
L 292.941818 81.664222 
L 293.105455 81.406459 
L 293.269091 80.432685 
L 293.596364 80.375405 
L 293.76 81.320537 
L 293.923636 80.547247 
L 294.087273 82.351591 
L 294.250909 82.208389 
L 294.578182 80.74773 
L 294.741818 81.692862 
L 294.905455 81.49238 
L 295.069091 83.525847 
L 295.56 79.974439 
L 295.887273 82.924399 
L 296.214545 81.291897 
L 296.378182 79.802597 
L 296.705455 80.948212 
L 296.869091 80.77637 
L 297.032727 81.578301 
L 297.196364 80.833651 
L 297.36 80.919572 
L 297.523636 80.203562 
L 297.687273 82.151109 
L 298.178182 78.857464 
L 298.341818 81.435099 
L 298.669091 80.633168 
L 298.996364 81.377818 
L 299.16 82.23703 
L 299.323636 81.463739 
L 299.650909 83.067601 
L 299.814545 83.325365 
L 299.978182 84.642823 
L 300.141818 83.583128 
L 300.305455 83.268084 
L 300.469091 83.239444 
L 300.632727 83.525847 
L 300.96 82.695276 
L 301.123636 83.325365 
L 301.450909 82.322951 
L 301.614545 82.351591 
L 301.941818 83.354005 
L 302.105455 83.955453 
L 302.432727 81.349178 
L 302.596364 82.093828 
L 302.76 81.807424 
L 303.087273 80.948212 
L 303.250909 79.000666 
L 303.578182 80.461326 
L 303.741818 79.28707 
L 303.905455 79.659395 
L 304.069091 77.597287 
L 304.232727 77.654568 
L 304.723636 72.442017 
L 304.887273 71.382322 
L 305.050909 72.212894 
L 305.214545 71.95513 
L 305.378182 71.468243 
L 305.541818 72.556578 
L 305.705455 72.67114 
L 305.869091 72.184253 
L 306.032727 69.950303 
L 306.196364 70.036224 
L 306.36 70.379909 
L 306.523636 69.921662 
L 306.687273 69.864382 
L 306.850909 69.549337 
L 307.014545 67.286747 
L 307.178182 67.315387 
L 307.505455 68.97653 
L 307.669091 69.348855 
L 307.832727 68.690126 
L 307.996364 70.093505 
L 308.16 68.489643 
L 308.487273 71.611445 
L 308.650909 70.179426 
L 308.814545 70.007584 
L 308.978182 70.752234 
L 309.141818 70.093505 
L 309.469091 67.258106 
L 309.632727 67.51587 
L 309.796364 67.51587 
L 309.96 69.062451 
L 310.123636 69.320214 
L 310.287273 68.346441 
L 310.450909 69.950303 
L 310.614545 69.148372 
L 310.778182 69.091091 
L 310.941818 69.291574 
L 311.105455 68.947889 
L 311.269091 69.577978 
L 311.596364 67.143545 
L 311.76 67.945476 
L 311.923636 70.49447 
L 312.087273 70.609032 
L 312.250909 71.296401 
L 312.414545 71.21048 
L 312.578182 71.897849 
L 312.741818 71.697367 
L 312.905455 70.208066 
L 313.069091 69.921662 
L 313.232727 70.49447 
L 313.396364 71.897849 
L 313.56 70.122145 
L 313.723636 70.351268 
L 313.887273 71.582805 
L 314.050909 71.439603 
L 314.214545 70.46583 
L 314.378182 71.353682 
L 314.541818 71.124559 
L 314.705455 72.442017 
L 314.869091 72.842982 
L 315.523636 66.742579 
L 315.850909 68.231879 
L 316.014545 68.546924 
L 316.505455 65.854727 
L 316.669091 67.429949 
L 316.832727 66.971702 
L 316.996364 65.768806 
L 317.323636 67.172185 
L 317.487273 66.08385 
L 317.650909 67.57315 
L 318.141818 64.479988 
L 318.469091 65.31056 
L 318.632727 64.823673 
L 318.96 66.141131 
L 319.123636 66.08385 
L 319.287273 64.451348 
L 319.450909 65.740166 
L 319.614545 65.883367 
L 319.778182 66.370254 
L 319.941818 64.966875 
L 320.105455 65.453762 
L 320.269091 65.081437 
L 320.432727 64.336786 
L 320.596364 64.422708 
L 320.923636 64.909594 
L 321.087273 64.880954 
L 321.250909 67.286747 
L 321.414545 67.028983 
L 321.578182 66.169771 
L 321.741818 67.172185 
L 322.069091 67.716352 
L 322.396364 67.000343 
L 322.723636 68.690126 
L 322.887273 69.577978 
L 323.214545 67.51587 
L 323.378182 65.024156 
L 323.541818 66.427535 
L 323.705455 66.484816 
L 324.032727 65.854727 
L 324.523636 62.904767 
L 324.687273 64.766392 
L 325.014545 62.532442 
L 325.178182 62.331959 
L 325.505455 61.386826 
L 325.832727 62.246038 
L 325.996364 62.274678 
L 326.16 62.446521 
L 326.323636 61.930994 
L 326.487273 60.613536 
L 326.650909 60.699457 
L 326.978182 58.322305 
L 327.141818 58.121822 
L 327.469091 59.754324 
L 327.632727 59.152876 
L 328.123636 59.095595 
L 328.287273 59.754324 
L 328.450909 59.181516 
L 328.614545 58.179103 
L 328.778182 58.093182 
L 328.941818 58.895112 
L 329.105455 58.952393 
L 329.269091 59.754324 
L 329.432727 62.561082 
L 329.596364 62.704284 
L 329.923636 61.701871 
L 330.087273 62.618363 
L 330.250909 62.732925 
L 330.414545 62.160117 
L 331.069091 64.537269 
L 331.396364 62.331959 
L 331.56 62.618363 
L 331.887273 65.797446 
L 332.050909 65.596964 
L 332.214545 64.479988 
L 332.378182 64.508629 
L 332.541818 62.933407 
L 332.869091 66.398894 
L 333.032727 66.628018 
L 333.196364 68.088677 
L 333.36 67.974116 
L 333.850909 65.740166 
L 334.014545 66.570737 
L 334.178182 64.079023 
L 334.669091 64.59455 
L 334.832727 63.678057 
L 335.16 60.556255 
L 335.487273 59.410639 
L 335.650909 57.835418 
L 335.814545 60.040728 
L 336.141818 57.94998 
L 336.469091 59.324718 
L 336.632727 59.353359 
L 336.96 58.121822 
L 337.123636 59.038314 
L 337.287273 56.976206 
L 337.614545 59.038314 
L 337.778182 58.00726 
L 337.941818 58.780551 
L 338.269091 57.434453 
L 338.432727 57.434453 
L 338.596364 57.23397 
L 339.250909 60.384413 
L 339.414545 58.72327 
L 339.578182 58.436866 
L 340.069091 62.761565 
L 340.232727 62.160117 
L 340.396364 60.642176 
L 340.56 60.18393 
L 340.723636 60.298492 
L 341.050909 63.506215 
L 341.214545 63.248452 
L 341.378182 63.305732 
L 341.541818 64.737752 
L 341.705455 64.680471 
L 342.032727 61.930994 
L 342.196364 61.759151 
L 342.36 61.243624 
L 342.523636 62.074196 
L 342.687273 61.501388 
L 343.014545 62.246038 
L 343.178182 63.13389 
L 343.341818 64.766392 
L 343.505455 64.479988 
L 343.669091 65.253279 
L 343.832727 65.138717 
L 343.996364 65.969289 
L 344.16 65.997929 
L 344.323636 66.79986 
L 344.487273 68.403722 
L 344.650909 67.172185 
L 344.814545 67.601791 
L 344.978182 66.885781 
L 345.141818 68.690126 
L 345.469091 66.05521 
L 345.632727 65.482402 
L 346.123636 62.188757 
L 346.287273 62.160117 
L 346.450909 61.902353 
L 346.614545 62.102836 
L 346.778182 63.10525 
L 346.941818 62.618363 
L 347.269091 62.847486 
L 347.432727 62.847486 
L 347.596364 62.446521 
L 347.76 63.563496 
L 347.923636 62.904767 
L 348.087273 65.052796 
L 348.414545 62.876127 
L 348.578182 64.451348 
L 348.741818 64.479988 
L 348.905455 65.482402 
L 349.069091 65.425121 
L 349.232727 64.308146 
L 349.56 65.138717 
L 349.887273 63.477575 
L 350.050909 65.224639 
L 350.214545 64.995515 
L 350.378182 65.081437 
L 350.541818 64.966875 
L 350.869091 66.599377 
L 351.196364 67.487229 
L 351.523636 69.950303 
L 351.687273 72.098332 
L 352.014545 73.043465 
L 352.178182 75.076933 
L 352.341818 75.220134 
L 352.505455 76.766715 
L 352.669091 77.024479 
L 352.832727 75.735661 
L 352.996364 76.852637 
L 353.16 77.024479 
L 353.487273 80.518607 
L 353.650909 80.604528 
L 353.814545 82.007907 
L 353.978182 80.260843 
L 354.141818 79.802597 
L 354.632727 82.867118 
L 354.796364 82.924399 
L 354.96 82.637995 
L 355.123636 83.096242 
L 355.778182 77.683208 
L 356.105455 80.260843 
L 356.432727 75.964785 
L 356.76 75.306056 
L 356.923636 75.59246 
L 357.087273 75.563819 
L 357.250909 75.391977 
L 357.414545 72.270174 
L 357.578182 72.327455 
L 358.069091 69.893022 
L 358.396364 71.811928 
L 358.56 73.072105 
L 358.723636 72.900263 
L 358.887273 73.043465 
L 359.214545 72.928903 
L 359.541818 73.41579 
L 359.869091 71.582805 
L 360.032727 71.554165 
L 360.523636 65.740166 
L 360.687273 65.997929 
L 360.850909 63.391654 
L 361.014545 62.589723 
L 361.178182 64.880954 
L 361.341818 63.620777 
L 361.832727 62.331959 
L 362.16 61.787792 
L 362.323636 63.363013 
L 362.487273 62.446521 
L 362.814545 65.568323 
L 362.978182 65.654244 
L 363.305455 61.730511 
L 363.469091 61.730511 
L 363.632727 62.38924 
L 363.796364 61.415467 
L 363.96 62.303319 
L 364.123636 62.016915 
L 364.287273 60.785378 
L 364.450909 62.41788 
L 364.614545 60.21257 
L 364.941818 62.876127 
L 365.105455 62.790205 
L 365.269091 62.045555 
L 365.432727 60.470334 
L 365.596364 61.014501 
L 365.76 62.074196 
L 366.087273 59.095595 
L 366.250909 60.040728 
L 366.414545 62.618363 
L 366.578182 62.274678 
L 366.905455 63.649417 
L 367.069091 63.993102 
L 367.396364 66.05521 
L 367.723636 62.561082 
L 367.887273 62.331959 
L 368.050909 61.787792 
L 368.378182 61.902353 
L 368.541818 62.675644 
L 368.705455 62.532442 
L 369.032727 60.21257 
L 369.196364 60.15529 
L 369.36 60.556255 
L 369.523636 59.983447 
L 369.687273 60.470334 
L 370.014545 57.921339 
L 370.178182 58.121822 
L 370.341818 57.749497 
L 370.505455 59.124236 
L 370.832727 56.51796 
L 370.996364 56.861645 
L 371.16 56.546601 
L 371.323636 57.377172 
L 371.487273 57.405812 
L 371.650909 55.544187 
L 371.814545 55.114581 
L 371.978182 55.143221 
L 372.141818 54.198089 
L 372.305455 54.140808 
L 372.469091 53.739842 
L 372.632727 53.739842 
L 372.96 57.577655 
L 373.123636 56.174275 
L 373.287273 57.004847 
L 373.450909 58.981034 
L 373.614545 59.066955 
L 373.778182 59.668403 
L 373.941818 61.300905 
L 374.105455 60.95722 
L 374.596364 62.904767 
L 374.76 63.678057 
L 374.923636 63.735338 
L 375.087273 64.107663 
L 375.250909 63.821259 
L 375.741818 66.169771 
L 375.905455 66.255693 
L 376.232727 64.394067 
L 376.396364 64.56591 
L 376.723636 63.019329 
L 376.887273 64.050383 
L 377.050909 64.308146 
L 377.214545 64.193585 
L 377.541818 67.458589 
L 377.705455 65.654244 
L 378.196364 68.461003 
L 378.36 68.088677 
L 378.523636 67.372668 
L 378.850909 69.377495 
L 379.178182 66.570737 
L 379.341818 67.143545 
L 379.505455 67.114904 
L 379.832727 68.776047 
L 379.996364 66.427535 
L 380.16 66.77122 
L 380.323636 66.513456 
L 380.487273 64.823673 
L 380.814545 65.768806 
L 380.978182 65.453762 
L 381.141818 65.682885 
L 381.632727 62.074196 
L 381.796364 62.303319 
L 382.123636 65.195998 
L 382.287273 63.13389 
L 382.450909 63.363013 
L 382.614545 64.479988 
L 382.941818 62.016915 
L 383.105455 60.441693 
L 383.269091 60.327132 
L 383.596364 61.67323 
L 383.923636 60.384413 
L 384.250909 62.3606 
L 384.578182 62.904767 
L 384.741818 60.670817 
L 384.905455 60.785378 
L 385.069091 61.558669 
L 385.232727 61.186344 
L 385.396364 62.532442 
L 385.723636 60.985861 
L 386.050909 60.098009 
L 386.214545 58.837832 
L 386.378182 58.69463 
L 386.541818 60.413053 
L 386.705455 59.954807 
L 386.869091 60.327132 
L 387.032727 59.639763 
L 387.196364 61.358186 
L 387.36 61.64459 
L 387.687273 60.642176 
L 387.850909 61.787792 
L 388.014545 61.988275 
L 388.505455 65.31056 
L 388.669091 65.711525 
L 388.832727 66.77122 
L 388.996364 65.740166 
L 389.16 65.940648 
L 389.323636 66.713939 
L 389.487273 66.08385 
L 389.650909 67.372668 
L 390.305455 62.675644 
L 390.632727 63.191171 
L 390.796364 62.704284 
L 391.287273 58.494147 
L 391.450909 58.522787 
L 391.614545 58.00726 
L 391.778182 59.095595 
L 392.105455 56.804364 
L 392.432727 57.749497 
L 392.596364 57.033487 
L 392.76 57.692216 
L 392.923636 57.405812 
L 393.414545 64.193585 
L 393.578182 64.164944 
L 394.069091 64.823673 
L 394.396364 66.08385 
L 394.723636 64.823673 
L 395.050909 67.57315 
L 395.214545 65.912008 
L 395.378182 66.284333 
L 395.541818 68.403722 
L 395.705455 67.802274 
L 396.032727 63.047969 
L 396.196364 63.907181 
L 396.36 64.107663 
L 396.523636 66.656658 
L 396.687273 66.255693 
L 396.850909 68.690126 
L 397.014545 68.575564 
L 397.505455 66.971702 
L 397.669091 65.596964 
L 397.996364 66.885781 
L 398.16 66.77122 
L 398.323636 68.403722 
L 398.487273 68.489643 
L 398.487273 68.489643 
" clip-path="url(#p7519e8aac8)" style="fill: none; stroke: #1f77b4; stroke-width: 1.5; stroke-linecap: square"/>
   </g>
   <g id="patch_3">
    <path d="M 57.6 307.584 
L 57.6 41.472 
" style="fill: none; stroke: #000000; stroke-width: 0.8; stroke-linejoin: miter; stroke-linecap: square"/>
   </g>
   <g id="patch_4">
    <path d="M 414.72 307.584 
L 414.72 41.472 
" style="fill: none; stroke: #000000; stroke-width: 0.8; stroke-linejoin: miter; stroke-linecap: square"/>
   </g>
   <g id="patch_5">
    <path d="M 57.6 307.584 
L 414.72 307.584 
" style="fill: none; stroke: #000000; stroke-width: 0.8; stroke-linejoin: miter; stroke-linecap: square"/>
   </g>
   <g id="patch_6">
    <path d="M 57.6 41.472 
L 414.72 41.472 
" style="fill: none; stroke: #000000; stroke-width: 0.8; stroke-linejoin: miter; stroke-linecap: square"/>
   </g>
   <g id="text_17">
    <!-- Rolling average training progress of owner/throw_away -->
    <g transform="translate(70.519688 35.472)scale(0.12 -0.12)">
     <defs>
      <path id="DejaVuSans-52" d="M 2841 2188 
Q 3044 2119 3236 1894 
Q 3428 1669 3622 1275 
L 4263 0 
L 3584 0 
L 2988 1197 
Q 2756 1666 2539 1819 
Q 2322 1972 1947 1972 
L 1259 1972 
L 1259 0 
L 628 0 
L 628 4666 
L 2053 4666 
Q 2853 4666 3247 4331 
Q 3641 3997 3641 3322 
Q 3641 2881 3436 2590 
Q 3231 2300 2841 2188 
z
M 1259 4147 
L 1259 2491 
L 2053 2491 
Q 2509 2491 2742 2702 
Q 2975 2913 2975 3322 
Q 2975 3731 2742 3939 
Q 2509 4147 2053 4147 
L 1259 4147 
z
" transform="scale(0.015625)"/>
      <path id="DejaVuSans-6c" d="M 603 4863 
L 1178 4863 
L 1178 0 
L 603 0 
L 603 4863 
z
" transform="scale(0.015625)"/>
      <path id="DejaVuSans-67" d="M 2906 1791 
Q 2906 2416 2648 2759 
Q 2391 3103 1925 3103 
Q 1463 3103 1205 2759 
Q 947 2416 947 1791 
Q 947 1169 1205 825 
Q 1463 481 1925 481 
Q 2391 481 2648 825 
Q 2906 1169 2906 1791 
z
M 3481 434 
Q 3481 -459 3084 -895 
Q 2688 -1331 1869 -1331 
Q 1566 -1331 1297 -1286 
Q 1028 -1241 775 -1147 
L 775 -588 
Q 1028 -725 1275 -790 
Q 1522 -856 1778 -856 
Q 2344 -856 2625 -561 
Q 2906 -266 2906 331 
L 2906 616 
Q 2728 306 2450 153 
Q 2172 0 1784 0 
Q 1141 0 747 490 
Q 353 981 353 1791 
Q 353 2603 747 3093 
Q 1141 3584 1784 3584 
Q 2172 3584 2450 3431 
Q 2728 3278 2906 2969 
L 2906 3500 
L 3481 3500 
L 3481 434 
z
" transform="scale(0.015625)"/>
      <path id="DejaVuSans-20" transform="scale(0.015625)"/>
      <path id="DejaVuSans-76" d="M 191 3500 
L 800 3500 
L 1894 563 
L 2988 3500 
L 3597 3500 
L 2284 0 
L 1503 0 
L 191 3500 
z
" transform="scale(0.015625)"/>
      <path id="DejaVuSans-66" d="M 2375 4863 
L 2375 4384 
L 1825 4384 
Q 1516 4384 1395 4259 
Q 1275 4134 1275 3809 
L 1275 3500 
L 2222 3500 
L 2222 3053 
L 1275 3053 
L 1275 0 
L 697 0 
L 697 3053 
L 147 3053 
L 147 3500 
L 697 3500 
L 697 3744 
Q 697 4328 969 4595 
Q 1241 4863 1831 4863 
L 2375 4863 
z
" transform="scale(0.015625)"/>
     </defs>
     <use xlink:href="#DejaVuSans-52"/>
     <use xlink:href="#DejaVuSans-6f" x="64.982422"/>
     <use xlink:href="#DejaVuSans-6c" x="126.164062"/>
     <use xlink:href="#DejaVuSans-6c" x="153.947266"/>
     <use xlink:href="#DejaVuSans-69" x="181.730469"/>
     <use xlink:href="#DejaVuSans-6e" x="209.513672"/>
     <use xlink:href="#DejaVuSans-67" x="272.892578"/>
     <use xlink:href="#DejaVuSans-20" x="336.369141"/>
     <use xlink:href="#DejaVuSans-61" x="368.15625"/>
     <use xlink:href="#DejaVuSans-76" x="429.435547"/>
     <use xlink:href="#DejaVuSans-65" x="488.615234"/>
     <use xlink:href="#DejaVuSans-72" x="550.138672"/>
     <use xlink:href="#DejaVuSans-61" x="591.251953"/>
     <use xlink:href="#DejaVuSans-67" x="652.53125"/>
     <use xlink:href="#DejaVuSans-65" x="716.007812"/>
     <use xlink:href="#DejaVuSans-20" x="777.53125"/>
     <use xlink:href="#DejaVuSans-74" x="809.318359"/>
     <use xlink:href="#DejaVuSans-72" x="848.527344"/>
     <use xlink:href="#DejaVuSans-61" x="889.640625"/>
     <use xlink:href="#DejaVuSans-69" x="950.919922"/>
     <use xlink:href="#DejaVuSans-6e" x="978.703125"/>
     <use xlink:href="#DejaVuSans-69" x="1042.082031"/>
     <use xlink:href="#DejaVuSans-6e" x="1069.865234"/>
     <use xlink:href="#DejaVuSans-67" x="1133.244141"/>
     <use xlink:href="#DejaVuSans-20" x="1196.720703"/>
     <use xlink:href="#DejaVuSans-70" x="1228.507812"/>
     <use xlink:href="#DejaVuSans-72" x="1291.984375"/>
     <use xlink:href="#DejaVuSans-6f" x="1330.847656"/>
     <use xlink:href="#DejaVuSans-67" x="1392.029297"/>
     <use xlink:href="#DejaVuSans-72" x="1455.505859"/>
     <use xlink:href="#DejaVuSans-65" x="1494.369141"/>
     <use xlink:href="#DejaVuSans-73" x="1555.892578"/>
     <use xlink:href="#DejaVuSans-73" x="1607.992188"/>
     <use xlink:href="#DejaVuSans-20" x="1660.091797"/>
     <use xlink:href="#DejaVuSans-6f" x="1691.878906"/>
     <use xlink:href="#DejaVuSans-66" x="1753.060547"/>
     <use xlink:href="#DejaVuSans-20" x="1788.265625"/>
     <use xlink:href="#DejaVuSans-6f" x="1820.052734"/>
     <use xlink:href="#DejaVuSans-77" x="1881.234375"/>
     <use xlink:href="#DejaVuSans-6e" x="1963.021484"/>
     <use xlink:href="#DejaVuSans-65" x="2026.400391"/>
     <use xlink:href="#DejaVuSans-72" x="2087.923828"/>
     <use xlink:href="#DejaVuSans-2f" x="2129.037109"/>
     <use xlink:href="#DejaVuSans-74" x="2162.728516"/>
     <use xlink:href="#DejaVuSans-68" x="2201.9375"/>
     <use xlink:href="#DejaVuSans-72" x="2265.316406"/>
     <use xlink:href="#DejaVuSans-6f" x="2304.179688"/>
     <use xlink:href="#DejaVuSans-77" x="2365.361328"/>
     <use xlink:href="#DejaVuSans-5f" x="2447.148438"/>
     <use xlink:href="#DejaVuSans-61" x="2497.148438"/>
     <use xlink:href="#DejaVuSans-77" x="2558.427734"/>
     <use xlink:href="#DejaVuSans-61" x="2640.214844"/>
     <use xlink:href="#DejaVuSans-79" x="2701.494141"/>
    </g>
   </g>
  </g>
 </g>
 <defs>
  <clipPath id="p7519e8aac8">
   <rect x="57.6" y="41.472" width="357.12" height="266.112"/>
  </clipPath>
 </defs>
</svg>
