<?xml version="1.0" encoding="utf-8" standalone="no"?>
<!DOCTYPE svg PUBLIC "-//W3C//DTD SVG 1.1//EN"
  "http://www.w3.org/Graphics/SVG/1.1/DTD/svg11.dtd">
<svg xmlns:xlink="http://www.w3.org/1999/xlink" width="460.8pt" height="345.6pt" viewBox="0 0 460.8 345.6" xmlns="http://www.w3.org/2000/svg" version="1.1">
 <metadata>
  <rdf:RDF xmlns:dc="http://purl.org/dc/elements/1.1/" xmlns:cc="http://creativecommons.org/ns#" xmlns:rdf="http://www.w3.org/1999/02/22-rdf-syntax-ns#">
   <cc:Work>
    <dc:type rdf:resource="http://purl.org/dc/dcmitype/StillImage"/>
    <dc:date>2022-06-21T20:55:05.698556</dc:date>
    <dc:format>image/svg+xml</dc:format>
    <dc:creator>
     <cc:Agent>
      <dc:title>Matplotlib v3.5.2, https://matplotlib.org/</dc:title>
     </cc:Agent>
    </dc:creator>
   </cc:Work>
  </rdf:RDF>
 </metadata>
 <defs>
  <style type="text/css">*{stroke-linejoin: round; stroke-linecap: butt}</style>
 </defs>
 <g id="figure_1">
  <g id="patch_1">
   <path d="M 0 345.6 
L 460.8 345.6 
L 460.8 0 
L 0 0 
z
" style="fill: #ffffff"/>
  </g>
  <g id="axes_1">
   <g id="patch_2">
    <path d="M 57.6 307.584 
L 414.72 307.584 
L 414.72 41.472 
L 57.6 41.472 
z
" style="fill: #ffffff"/>
   </g>
   <g id="PolyCollection_1">
    <path d="M 114.051994 265.984541 
L 101.857624 265.984541 
L 100.762943 264.779068 
L 99.589411 263.573595 
L 98.353281 262.368122 
L 97.072741 261.162649 
L 95.766686 259.957177 
L 94.453551 258.751704 
L 93.150355 257.546231 
L 91.872097 256.340758 
L 90.631536 255.135285 
L 89.439326 253.929812 
L 88.304368 252.72434 
L 87.234219 251.518867 
L 86.235376 250.313394 
L 85.313304 249.107921 
L 84.472178 247.902448 
L 83.714368 246.696976 
L 83.039837 245.491503 
L 82.445628 244.28603 
L 81.925661 243.080557 
L 81.470991 241.875084 
L 81.07059 240.669612 
L 80.712605 239.464139 
L 80.385929 238.258666 
L 80.081827 237.053193 
L 79.795343 235.84772 
L 79.526187 234.642247 
L 79.278913 233.436775 
L 79.062266 232.231302 
L 78.887743 231.025829 
L 78.767522 229.820356 
L 78.712046 228.614883 
L 78.727614 227.409411 
L 78.814357 226.203938 
L 78.964959 224.998465 
L 79.164343 223.792992 
L 79.390478 222.587519 
L 79.616212 221.382047 
L 79.811956 220.176574 
L 79.948846 218.971101 
L 80.001952 217.765628 
L 79.953089 216.560155 
L 79.792821 215.354683 
L 79.521389 214.14921 
L 79.148449 212.943737 
L 78.691685 211.738264 
L 78.174547 210.532791 
L 77.623452 209.327318 
L 77.064889 208.121846 
L 76.52283 206.916373 
L 76.016759 205.7109 
L 75.560537 204.505427 
L 75.162147 203.299954 
L 74.824217 202.094482 
L 74.545126 200.889009 
L 74.320439 199.683536 
L 74.1444 198.478063 
L 74.011281 197.27259 
L 73.916446 196.067118 
L 73.857101 194.861645 
L 73.832727 193.656172 
L 73.845288 192.450699 
L 73.899258 191.245226 
L 74.001535 190.039753 
L 74.161219 188.834281 
L 74.389253 187.628808 
L 74.69788 186.423335 
L 75.099888 185.217862 
L 75.60766 184.012389 
L 76.23209 182.806917 
L 76.981474 181.601444 
L 77.860493 180.395971 
L 78.869424 179.190498 
L 80.003675 177.985025 
L 81.253688 176.779553 
L 82.605222 175.57408 
L 84.039955 174.368607 
L 85.536366 173.163134 
L 87.070778 171.957661 
L 88.61851 170.752188 
L 90.155062 169.546716 
L 91.657261 168.341243 
L 93.104307 167.13577 
L 94.47868 165.930297 
L 95.766819 164.724824 
L 96.959549 163.519352 
L 98.052198 162.313879 
L 99.044412 161.108406 
L 99.939667 159.902933 
L 100.744539 158.69746 
L 101.467811 157.491988 
L 102.119504 156.286515 
L 102.709924 155.081042 
L 103.248833 153.875569 
L 103.744779 152.670096 
L 104.204666 151.464623 
L 104.633541 150.259151 
L 105.034612 149.053678 
L 105.409451 147.848205 
L 105.758337 146.642732 
L 110.151281 146.642732 
L 110.151281 146.642732 
L 110.500167 147.848205 
L 110.875006 149.053678 
L 111.276077 150.259151 
L 111.704951 151.464623 
L 112.164838 152.670096 
L 112.660785 153.875569 
L 113.199693 155.081042 
L 113.790114 156.286515 
L 114.441807 157.491988 
L 115.165079 158.69746 
L 115.969951 159.902933 
L 116.865206 161.108406 
L 117.85742 162.313879 
L 118.950069 163.519352 
L 120.142798 164.724824 
L 121.430938 165.930297 
L 122.80531 167.13577 
L 124.252357 168.341243 
L 125.754555 169.546716 
L 127.291108 170.752188 
L 128.83884 171.957661 
L 130.373251 173.163134 
L 131.869662 174.368607 
L 133.304396 175.57408 
L 134.655929 176.779553 
L 135.905943 177.985025 
L 137.040194 179.190498 
L 138.049125 180.395971 
L 138.928144 181.601444 
L 139.677528 182.806917 
L 140.301958 184.012389 
L 140.80973 185.217862 
L 141.211737 186.423335 
L 141.520365 187.628808 
L 141.748399 188.834281 
L 141.908082 190.039753 
L 142.010359 191.245226 
L 142.06433 192.450699 
L 142.07689 193.656172 
L 142.052517 194.861645 
L 141.993172 196.067118 
L 141.898337 197.27259 
L 141.765218 198.478063 
L 141.589179 199.683536 
L 141.364492 200.889009 
L 141.085401 202.094482 
L 140.74747 203.299954 
L 140.349081 204.505427 
L 139.892859 205.7109 
L 139.386788 206.916373 
L 138.844728 208.121846 
L 138.286166 209.327318 
L 137.73507 210.532791 
L 137.217932 211.738264 
L 136.761169 212.943737 
L 136.388229 214.14921 
L 136.116796 215.354683 
L 135.956528 216.560155 
L 135.907665 217.765628 
L 135.960772 218.971101 
L 136.097662 220.176574 
L 136.293406 221.382047 
L 136.51914 222.587519 
L 136.745274 223.792992 
L 136.944659 224.998465 
L 137.09526 226.203938 
L 137.182004 227.409411 
L 137.197571 228.614883 
L 137.142096 229.820356 
L 137.021875 231.025829 
L 136.847352 232.231302 
L 136.630705 233.436775 
L 136.383431 234.642247 
L 136.114275 235.84772 
L 135.827791 237.053193 
L 135.523689 238.258666 
L 135.197013 239.464139 
L 134.839028 240.669612 
L 134.438627 241.875084 
L 133.983957 243.080557 
L 133.46399 244.28603 
L 132.86978 245.491503 
L 132.195249 246.696976 
L 131.43744 247.902448 
L 130.596314 249.107921 
L 129.674242 250.313394 
L 128.675398 251.518867 
L 127.60525 252.72434 
L 126.470292 253.929812 
L 125.278082 255.135285 
L 124.037521 256.340758 
L 122.759263 257.546231 
L 121.456067 258.751704 
L 120.142932 259.957177 
L 118.836877 261.162649 
L 117.556336 262.368122 
L 116.320207 263.573595 
L 115.146675 264.779068 
L 114.051994 265.984541 
z
" clip-path="url(#pefa703aa3a)" style="fill: #1f77b4; fill-opacity: 0.3"/>
   </g>
   <g id="PolyCollection_2">
    <path d="M 198.023156 287.745952 
L 188.496869 287.745952 
L 187.765269 285.843779 
L 186.995148 283.941606 
L 186.193185 282.039433 
L 185.365703 280.13726 
L 184.518287 278.235087 
L 183.655493 276.332914 
L 182.780717 274.430741 
L 181.896247 272.528568 
L 181.003568 270.626395 
L 180.103886 268.724222 
L 179.198845 266.822048 
L 178.291303 264.919875 
L 177.386013 263.017702 
L 176.490028 261.115529 
L 175.612694 259.213356 
L 174.765142 257.311183 
L 173.959323 255.40901 
L 173.206718 253.506837 
L 172.516938 251.604664 
L 171.896468 249.702491 
L 171.347779 247.800318 
L 170.868975 245.898145 
L 170.454009 243.995972 
L 170.093431 242.093799 
L 169.77551 240.191626 
L 169.487546 238.289453 
L 169.217168 236.38728 
L 168.953442 234.485107 
L 168.687677 232.582934 
L 168.413859 230.680761 
L 168.128726 228.778588 
L 167.831512 226.876415 
L 167.523452 224.974242 
L 167.207113 223.072069 
L 166.88566 221.169896 
L 166.562122 219.267722 
L 166.238744 217.365549 
L 165.916478 215.463376 
L 165.594658 213.561203 
L 165.270907 211.65903 
L 164.941282 209.756857 
L 164.600668 207.854684 
L 164.243392 205.952511 
L 163.864021 204.050338 
L 163.458271 202.148165 
L 163.023947 200.245992 
L 162.561824 198.343819 
L 162.076365 196.441646 
L 161.576187 194.539473 
L 161.074199 192.6373 
L 160.587346 190.735127 
L 160.135932 188.832954 
L 159.742526 186.930781 
L 159.430509 185.028608 
L 159.222372 183.126435 
L 159.137931 181.224262 
L 159.192659 179.322089 
L 159.396353 177.419916 
L 159.752322 175.517743 
L 160.257216 173.615569 
L 160.901536 171.713396 
L 161.670738 169.811223 
L 162.546777 167.90905 
L 163.509867 166.006877 
L 164.540209 164.104704 
L 165.619471 162.202531 
L 166.731877 160.300358 
L 167.864811 158.398185 
L 169.008947 156.496012 
L 170.157962 154.593839 
L 171.307947 152.691666 
L 172.456628 150.789493 
L 173.602546 148.88732 
L 174.744286 146.985147 
L 175.879852 145.082974 
L 177.006247 143.180801 
L 178.119267 141.278628 
L 179.213531 139.376455 
L 180.282697 137.474282 
L 181.319847 135.572109 
L 182.31797 133.669936 
L 183.270503 131.767763 
L 184.171851 129.86559 
L 185.017834 127.963416 
L 185.806001 126.061243 
L 186.535756 124.15907 
L 187.208298 122.256897 
L 187.826345 120.354724 
L 188.393718 118.452551 
L 188.914816 116.550378 
L 189.394098 114.648205 
L 189.835627 112.746032 
L 190.242761 110.843859 
L 190.618007 108.941686 
L 190.963056 107.039513 
L 191.278942 105.13734 
L 191.566284 103.235167 
L 191.825551 101.332994 
L 192.057278 99.430821 
L 194.462748 99.430821 
L 194.462748 99.430821 
L 194.694475 101.332994 
L 194.953741 103.235167 
L 195.241084 105.13734 
L 195.55697 107.039513 
L 195.902018 108.941686 
L 196.277265 110.843859 
L 196.684399 112.746032 
L 197.125928 114.648205 
L 197.60521 116.550378 
L 198.126308 118.452551 
L 198.69368 120.354724 
L 199.311728 122.256897 
L 199.98427 124.15907 
L 200.714025 126.061243 
L 201.502191 127.963416 
L 202.348175 129.86559 
L 203.249523 131.767763 
L 204.202056 133.669936 
L 205.200179 135.572109 
L 206.237328 137.474282 
L 207.306495 139.376455 
L 208.400759 141.278628 
L 209.513779 143.180801 
L 210.640174 145.082974 
L 211.77574 146.985147 
L 212.91748 148.88732 
L 214.063398 150.789493 
L 215.212079 152.691666 
L 216.362063 154.593839 
L 217.511079 156.496012 
L 218.655215 158.398185 
L 219.788149 160.300358 
L 220.900555 162.202531 
L 221.979817 164.104704 
L 223.010158 166.006877 
L 223.973249 167.90905 
L 224.849288 169.811223 
L 225.61849 171.713396 
L 226.26281 173.615569 
L 226.767704 175.517743 
L 227.123673 177.419916 
L 227.327367 179.322089 
L 227.382095 181.224262 
L 227.297654 183.126435 
L 227.089517 185.028608 
L 226.7775 186.930781 
L 226.384094 188.832954 
L 225.93268 190.735127 
L 225.445827 192.6373 
L 224.943839 194.539473 
L 224.443661 196.441646 
L 223.958202 198.343819 
L 223.496079 200.245992 
L 223.061755 202.148165 
L 222.656005 204.050338 
L 222.276634 205.952511 
L 221.919358 207.854684 
L 221.578744 209.756857 
L 221.249119 211.65903 
L 220.925368 213.561203 
L 220.603548 215.463376 
L 220.281281 217.365549 
L 219.957904 219.267722 
L 219.634366 221.169896 
L 219.312912 223.072069 
L 218.996574 224.974242 
L 218.688513 226.876415 
L 218.3913 228.778588 
L 218.106167 230.680761 
L 217.832349 232.582934 
L 217.566584 234.485107 
L 217.302858 236.38728 
L 217.03248 238.289453 
L 216.744516 240.191626 
L 216.426594 242.093799 
L 216.066016 243.995972 
L 215.651051 245.898145 
L 215.172247 247.800318 
L 214.623558 249.702491 
L 214.003087 251.604664 
L 213.313308 253.506837 
L 212.560703 255.40901 
L 211.754884 257.311183 
L 210.907332 259.213356 
L 210.029998 261.115529 
L 209.134013 263.017702 
L 208.228723 264.919875 
L 207.321181 266.822048 
L 206.41614 268.724222 
L 205.516458 270.626395 
L 204.623778 272.528568 
L 203.739309 274.430741 
L 202.864533 276.332914 
L 202.001739 278.235087 
L 201.154323 280.13726 
L 200.326841 282.039433 
L 199.524878 283.941606 
L 198.754757 285.843779 
L 198.023156 287.745952 
z
" clip-path="url(#pefa703aa3a)" style="fill: #1f77b4; fill-opacity: 0.3"/>
   </g>
   <g id="PolyCollection_3">
    <path d="M 280.994021 295.488 
L 276.136413 295.488 
L 275.568831 293.436917 
L 274.915049 291.385834 
L 274.172281 289.33475 
L 273.339603 287.283667 
L 272.418085 285.232584 
L 271.410844 283.181501 
L 270.323015 281.130418 
L 269.161691 279.079334 
L 267.935844 277.028251 
L 266.656254 274.977168 
L 265.335444 272.926085 
L 263.98757 270.875002 
L 262.628221 268.823918 
L 261.274044 266.772835 
L 259.942142 264.721752 
L 258.649236 262.670669 
L 257.410637 260.619586 
L 256.239174 258.568502 
L 255.144245 256.517419 
L 254.131226 254.466336 
L 253.201384 252.415253 
L 252.35239 250.36417 
L 251.579368 248.313086 
L 250.876312 246.262003 
L 250.237562 244.21092 
L 249.659059 242.159837 
L 249.139077 240.108754 
L 248.678286 238.057671 
L 248.27913 236.006587 
L 247.944634 233.955504 
L 247.676878 231.904421 
L 247.475434 229.853338 
L 247.336058 227.802255 
L 247.249901 225.751171 
L 247.203422 223.700088 
L 247.179104 221.649005 
L 247.156934 219.597922 
L 247.116499 217.546839 
L 247.039434 215.495755 
L 246.911846 213.444672 
L 246.726325 211.393589 
L 246.48318 209.342506 
L 246.190678 207.291423 
L 245.864224 205.240339 
L 245.524636 203.189256 
L 245.195833 201.138173 
L 244.902329 199.08709 
L 244.666936 197.036007 
L 244.508977 194.984923 
L 244.443135 192.93384 
L 244.47897 190.882757 
L 244.620944 188.831674 
L 244.868811 186.780591 
L 245.218208 184.729507 
L 245.661353 182.678424 
L 246.187811 180.627341 
L 246.785369 178.576258 
L 247.440999 176.525175 
L 248.14193 174.474091 
L 248.876716 172.423008 
L 249.636194 170.371925 
L 250.414187 168.320842 
L 251.207811 166.269759 
L 252.01735 164.218675 
L 252.845719 162.167592 
L 253.697607 160.116509 
L 254.578469 158.065426 
L 255.493518 156.014343 
L 256.446843 153.963259 
L 257.440731 151.912176 
L 258.475189 149.861093 
L 259.547642 147.81001 
L 260.65277 145.758927 
L 261.782446 143.707844 
L 262.925825 141.65676 
L 264.069616 139.605677 
L 265.198632 137.554594 
L 266.296654 135.503511 
L 267.347589 133.452428 
L 268.336837 131.401344 
L 269.25268 129.350261 
L 270.087454 127.299178 
L 270.838308 125.248095 
L 271.507363 123.197012 
L 272.101221 121.145928 
L 272.629907 119.094845 
L 273.10541 117.043762 
L 273.540088 114.992679 
L 273.945204 112.941596 
L 274.329824 110.890512 
L 274.700197 108.839429 
L 275.059658 106.788346 
L 275.40898 104.737263 
L 275.747009 102.68618 
L 276.071431 100.635096 
L 276.379503 98.584013 
L 276.668619 96.53293 
L 276.936681 94.481847 
L 277.182254 92.430764 
L 279.94818 92.430764 
L 279.94818 92.430764 
L 280.193753 94.481847 
L 280.461815 96.53293 
L 280.750931 98.584013 
L 281.059003 100.635096 
L 281.383425 102.68618 
L 281.721453 104.737263 
L 282.070775 106.788346 
L 282.430237 108.839429 
L 282.80061 110.890512 
L 283.185229 112.941596 
L 283.590346 114.992679 
L 284.025024 117.043762 
L 284.500527 119.094845 
L 285.029213 121.145928 
L 285.623071 123.197012 
L 286.292126 125.248095 
L 287.04298 127.299178 
L 287.877754 129.350261 
L 288.793596 131.401344 
L 289.782845 133.452428 
L 290.83378 135.503511 
L 291.931801 137.554594 
L 293.060818 139.605677 
L 294.204609 141.65676 
L 295.347987 143.707844 
L 296.477664 145.758927 
L 297.582792 147.81001 
L 298.655245 149.861093 
L 299.689703 151.912176 
L 300.683591 153.963259 
L 301.636916 156.014343 
L 302.551965 158.065426 
L 303.432827 160.116509 
L 304.284715 162.167592 
L 305.113084 164.218675 
L 305.922623 166.269759 
L 306.716246 168.320842 
L 307.494239 170.371925 
L 308.253718 172.423008 
L 308.988504 174.474091 
L 309.689435 176.525175 
L 310.345065 178.576258 
L 310.942623 180.627341 
L 311.469081 182.678424 
L 311.912225 184.729507 
L 312.261623 186.780591 
L 312.50949 188.831674 
L 312.651463 190.882757 
L 312.687299 192.93384 
L 312.621457 194.984923 
L 312.463497 197.036007 
L 312.228105 199.08709 
L 311.934601 201.138173 
L 311.605797 203.189256 
L 311.26621 205.240339 
L 310.939756 207.291423 
L 310.647254 209.342506 
L 310.404109 211.393589 
L 310.218587 213.444672 
L 310.090999 215.495755 
L 310.013935 217.546839 
L 309.9735 219.597922 
L 309.95133 221.649005 
L 309.927012 223.700088 
L 309.880533 225.751171 
L 309.794376 227.802255 
L 309.655 229.853338 
L 309.453556 231.904421 
L 309.1858 233.955504 
L 308.851304 236.006587 
L 308.452148 238.057671 
L 307.991357 240.108754 
L 307.471374 242.159837 
L 306.892872 244.21092 
L 306.254122 246.262003 
L 305.551066 248.313086 
L 304.778044 250.36417 
L 303.92905 252.415253 
L 302.999208 254.466336 
L 301.986189 256.517419 
L 300.89126 258.568502 
L 299.719797 260.619586 
L 298.481198 262.670669 
L 297.188292 264.721752 
L 295.85639 266.772835 
L 294.502213 268.823918 
L 293.142864 270.875002 
L 291.79499 272.926085 
L 290.47418 274.977168 
L 289.19459 277.028251 
L 287.968742 279.079334 
L 286.807419 281.130418 
L 285.71959 283.181501 
L 284.712349 285.232584 
L 283.790831 287.283667 
L 282.958153 289.33475 
L 282.215385 291.385834 
L 281.561603 293.436917 
L 280.994021 295.488 
z
" clip-path="url(#pefa703aa3a)" style="fill: #1f77b4; fill-opacity: 0.3"/>
   </g>
   <g id="PolyCollection_4">
    <path d="M 367.654394 283.874224 
L 360.086448 283.874224 
L 359.461978 281.690942 
L 358.778134 279.50766 
L 358.033494 277.324378 
L 357.22715 275.141096 
L 356.358992 272.957814 
L 355.429998 270.774531 
L 354.442463 268.591249 
L 353.400191 266.407967 
L 352.308672 264.224685 
L 351.175242 262.041403 
L 350.009266 259.858121 
L 348.822277 257.674838 
L 347.628014 255.491556 
L 346.442244 253.308274 
L 345.282282 251.124992 
L 344.166133 248.94171 
L 343.111312 246.758427 
L 342.133451 244.575145 
L 341.244915 242.391863 
L 340.453683 240.208581 
L 339.762734 238.025299 
L 339.170083 235.842017 
L 338.669492 233.658734 
L 338.251722 231.475452 
L 337.906057 229.29217 
L 337.621786 227.108888 
L 337.389305 224.925606 
L 337.200629 222.742324 
L 337.049228 220.559041 
L 336.929271 218.375759 
L 336.83455 216.192477 
L 336.757385 214.009195 
L 336.687871 211.825913 
L 336.613721 209.642631 
L 336.520814 207.459348 
L 336.3944 205.276066 
L 336.220733 203.092784 
L 335.988811 200.909502 
L 335.691882 198.72622 
L 335.328403 196.542938 
L 334.902302 194.359655 
L 334.422503 192.176373 
L 333.901868 189.993091 
L 333.355789 187.809809 
L 332.800731 185.626527 
L 332.252998 183.443244 
L 331.727914 181.259962 
L 331.239487 179.07668 
L 330.8005 176.893398 
L 330.422858 174.710116 
L 330.117979 172.526834 
L 329.896991 170.343551 
L 329.770566 168.160269 
L 329.748339 165.976987 
L 329.837944 163.793705 
L 330.043851 161.610423 
L 330.366247 159.427141 
L 330.800225 157.243858 
L 331.335539 155.060576 
L 331.957044 152.877294 
L 332.645885 150.694012 
L 333.381275 148.51073 
L 334.142675 146.327448 
L 334.912013 144.144165 
L 335.675636 141.960883 
L 336.425662 139.777601 
L 337.16054 137.594319 
L 337.884724 135.411037 
L 338.607532 133.227754 
L 339.341392 131.044472 
L 340.099773 128.86119 
L 340.895117 126.677908 
L 341.737094 124.494626 
L 342.631394 122.311344 
L 343.57916 120.128061 
L 344.57706 117.944779 
L 345.617872 115.761497 
L 346.691401 113.578215 
L 347.785534 111.394933 
L 348.887268 109.211651 
L 349.983596 107.028368 
L 351.0622 104.845086 
L 352.111959 102.661804 
L 353.123291 100.478522 
L 354.088388 98.29524 
L 355.00135 96.111958 
L 355.858231 93.928675 
L 356.657004 91.745393 
L 357.397411 89.562111 
L 358.080722 87.378829 
L 358.709394 85.195547 
L 359.286687 83.012265 
L 359.816256 80.828982 
L 360.301779 78.6457 
L 360.746662 76.462418 
L 361.153838 74.279136 
L 361.525676 72.095854 
L 361.863988 69.912571 
L 362.170124 67.729289 
L 365.570718 67.729289 
L 365.570718 67.729289 
L 365.876854 69.912571 
L 366.215166 72.095854 
L 366.587004 74.279136 
L 366.99418 76.462418 
L 367.439063 78.6457 
L 367.924586 80.828982 
L 368.454155 83.012265 
L 369.031448 85.195547 
L 369.66012 87.378829 
L 370.34343 89.562111 
L 371.083838 91.745393 
L 371.882611 93.928675 
L 372.739492 96.111958 
L 373.652454 98.29524 
L 374.617551 100.478522 
L 375.628883 102.661804 
L 376.678641 104.845086 
L 377.757246 107.028368 
L 378.853574 109.211651 
L 379.955308 111.394933 
L 381.049441 113.578215 
L 382.122969 115.761497 
L 383.163782 117.944779 
L 384.161682 120.128061 
L 385.109448 122.311344 
L 386.003748 124.494626 
L 386.845725 126.677908 
L 387.641069 128.86119 
L 388.39945 131.044472 
L 389.13331 133.227754 
L 389.856118 135.411037 
L 390.580302 137.594319 
L 391.31518 139.777601 
L 392.065206 141.960883 
L 392.828829 144.144165 
L 393.598167 146.327448 
L 394.359567 148.51073 
L 395.094957 150.694012 
L 395.783797 152.877294 
L 396.405303 155.060576 
L 396.940616 157.243858 
L 397.374595 159.427141 
L 397.69699 161.610423 
L 397.902898 163.793705 
L 397.992503 165.976987 
L 397.970276 168.160269 
L 397.843851 170.343551 
L 397.622863 172.526834 
L 397.317984 174.710116 
L 396.940342 176.893398 
L 396.501354 179.07668 
L 396.012928 181.259962 
L 395.487844 183.443244 
L 394.940111 185.626527 
L 394.385053 187.809809 
L 393.838974 189.993091 
L 393.318339 192.176373 
L 392.83854 194.359655 
L 392.412439 196.542938 
L 392.04896 198.72622 
L 391.752031 200.909502 
L 391.520109 203.092784 
L 391.346442 205.276066 
L 391.220028 207.459348 
L 391.127121 209.642631 
L 391.05297 211.825913 
L 390.983456 214.009195 
L 390.906291 216.192477 
L 390.811571 218.375759 
L 390.691614 220.559041 
L 390.540212 222.742324 
L 390.351537 224.925606 
L 390.119056 227.108888 
L 389.834785 229.29217 
L 389.48912 231.475452 
L 389.07135 233.658734 
L 388.570759 235.842017 
L 387.978108 238.025299 
L 387.287159 240.208581 
L 386.495927 242.391863 
L 385.60739 244.575145 
L 384.629529 246.758427 
L 383.574709 248.94171 
L 382.45856 251.124992 
L 381.298598 253.308274 
L 380.112828 255.491556 
L 378.918565 257.674838 
L 377.731576 259.858121 
L 376.5656 262.041403 
L 375.43217 264.224685 
L 374.340651 266.407967 
L 373.298379 268.591249 
L 372.310844 270.774531 
L 371.38185 272.957814 
L 370.513692 275.141096 
L 369.707347 277.324378 
L 368.962708 279.50766 
L 368.278864 281.690942 
L 367.654394 283.874224 
z
" clip-path="url(#pefa703aa3a)" style="fill: #1f77b4; fill-opacity: 0.3"/>
   </g>
   <g id="PolyCollection_5">
    <path d="M 367.957629 282.489196 
L 360.772753 282.489196 
L 360.025358 280.176861 
L 359.201702 277.864525 
L 358.309939 275.55219 
L 357.360118 273.239855 
L 356.363297 270.927519 
L 355.330611 268.615184 
L 354.272495 266.302849 
L 353.198187 263.990513 
L 352.115637 261.678178 
L 351.031804 259.365843 
L 349.95326 257.053507 
L 348.886915 254.741172 
L 347.840647 252.428837 
L 346.823605 250.116502 
L 345.846059 247.804166 
L 344.918758 245.491831 
L 344.051896 243.179496 
L 343.253916 240.86716 
L 342.530406 238.554825 
L 341.883371 236.24249 
L 341.311031 233.930154 
L 340.808205 231.617819 
L 340.367167 229.305484 
L 339.978765 226.993148 
L 339.633541 224.680813 
L 339.322618 222.368478 
L 339.038223 220.056142 
L 338.773817 217.743807 
L 338.523935 215.431472 
L 338.283891 213.119137 
L 338.049509 210.806801 
L 337.817012 208.494466 
L 337.583089 206.182131 
L 337.3451 203.869795 
L 337.101301 201.55746 
L 336.850969 199.245125 
L 336.594326 196.932789 
L 336.332209 194.620454 
L 336.065547 192.308119 
L 335.794718 189.995783 
L 335.51895 187.683448 
L 335.235925 185.371113 
L 334.941713 183.058777 
L 334.631118 180.746442 
L 334.298458 178.434107 
L 333.938686 176.121772 
L 333.548729 173.809436 
L 333.128835 171.497101 
L 332.683706 169.184766 
L 332.223222 166.87243 
L 331.762572 164.560095 
L 331.321732 162.24776 
L 330.924269 159.935424 
L 330.59561 157.623089 
L 330.360955 155.310754 
L 330.24311 152.998418 
L 330.260516 150.686083 
L 330.425749 148.373748 
L 330.744671 146.061412 
L 331.216323 143.749077 
L 331.833531 141.436742 
L 332.584057 139.124407 
L 333.452097 136.812071 
L 334.419852 134.499736 
L 335.468947 132.187401 
L 336.581548 129.875065 
L 337.741083 127.56273 
L 338.932588 125.250395 
L 340.142744 122.938059 
L 341.359712 120.625724 
L 342.572869 118.313389 
L 343.772553 116.001053 
L 344.949881 113.688718 
L 346.096696 111.376383 
L 347.20567 109.064047 
L 348.270568 106.751712 
L 349.286636 104.439377 
L 350.251042 102.127042 
L 351.163274 99.814706 
L 352.025354 97.502371 
L 352.841776 95.190036 
L 353.619079 92.8777 
L 354.365076 90.565365 
L 355.087822 88.25303 
L 355.794467 85.940694 
L 356.490215 83.628359 
L 357.177557 81.316024 
L 357.855935 79.003688 
L 358.521873 76.691353 
L 359.169553 74.379018 
L 359.791709 72.066682 
L 360.380666 69.754347 
L 360.929347 67.442012 
L 361.4321 65.129677 
L 361.885233 62.817341 
L 362.287232 60.505006 
L 362.638673 58.192671 
L 362.9419 55.880335 
L 363.200563 53.568 
L 365.529819 53.568 
L 365.529819 53.568 
L 365.788483 55.880335 
L 366.091709 58.192671 
L 366.44315 60.505006 
L 366.845149 62.817341 
L 367.298282 65.129677 
L 367.801035 67.442012 
L 368.349716 69.754347 
L 368.938673 72.066682 
L 369.560829 74.379018 
L 370.20851 76.691353 
L 370.874447 79.003688 
L 371.552825 81.316024 
L 372.240168 83.628359 
L 372.935916 85.940694 
L 373.642561 88.25303 
L 374.365306 90.565365 
L 375.111304 92.8777 
L 375.888606 95.190036 
L 376.705028 97.502371 
L 377.567108 99.814706 
L 378.47934 102.127042 
L 379.443747 104.439377 
L 380.459814 106.751712 
L 381.524712 109.064047 
L 382.633686 111.376383 
L 383.780501 113.688718 
L 384.957829 116.001053 
L 386.157513 118.313389 
L 387.37067 120.625724 
L 388.587638 122.938059 
L 389.797794 125.250395 
L 390.989299 127.56273 
L 392.148835 129.875065 
L 393.261436 132.187401 
L 394.310531 134.499736 
L 395.278285 136.812071 
L 396.146326 139.124407 
L 396.896852 141.436742 
L 397.514059 143.749077 
L 397.985712 146.061412 
L 398.304633 148.373748 
L 398.469866 150.686083 
L 398.487273 152.998418 
L 398.369428 155.310754 
L 398.134773 157.623089 
L 397.806113 159.935424 
L 397.40865 162.24776 
L 396.96781 164.560095 
L 396.507161 166.87243 
L 396.046676 169.184766 
L 395.601547 171.497101 
L 395.181653 173.809436 
L 394.791696 176.121772 
L 394.431924 178.434107 
L 394.099264 180.746442 
L 393.788669 183.058777 
L 393.494457 185.371113 
L 393.211433 187.683448 
L 392.935665 189.995783 
L 392.664835 192.308119 
L 392.398173 194.620454 
L 392.136057 196.932789 
L 391.879413 199.245125 
L 391.629081 201.55746 
L 391.385282 203.869795 
L 391.147293 206.182131 
L 390.91337 208.494466 
L 390.680873 210.806801 
L 390.446491 213.119137 
L 390.206447 215.431472 
L 389.956566 217.743807 
L 389.692159 220.056142 
L 389.407764 222.368478 
L 389.096841 224.680813 
L 388.751617 226.993148 
L 388.363215 229.305484 
L 387.922177 231.617819 
L 387.419351 233.930154 
L 386.847011 236.24249 
L 386.199976 238.554825 
L 385.476467 240.86716 
L 384.678486 243.179496 
L 383.811624 245.491831 
L 382.884323 247.804166 
L 381.906777 250.116502 
L 380.889735 252.428837 
L 379.843467 254.741172 
L 378.777122 257.053507 
L 377.698578 259.365843 
L 376.614745 261.678178 
L 375.532195 263.990513 
L 374.457888 266.302849 
L 373.399771 268.615184 
L 372.367086 270.927519 
L 371.370264 273.239855 
L 370.420444 275.55219 
L 369.52868 277.864525 
L 368.705024 280.176861 
L 367.957629 282.489196 
z
" clip-path="url(#pefa703aa3a)" style="fill: #1f77b4; fill-opacity: 0.3"/>
   </g>
   <g id="matplotlib.axis_1">
    <g id="xtick_1">
     <g id="line2d_1">
      <path d="M 65.302207 307.584 
L 65.302207 41.472 
" clip-path="url(#pefa703aa3a)" style="fill: none; stroke-dasharray: 2.96,1.28; stroke-dashoffset: 0; stroke: #b0b0b0; stroke-width: 0.8"/>
     </g>
     <g id="line2d_2">
      <defs>
       <path id="m6a14522f52" d="M 0 0 
L 0 3.5 
" style="stroke: #000000; stroke-width: 0.8"/>
      </defs>
      <g>
       <use xlink:href="#m6a14522f52" x="65.302207" y="307.584" style="stroke: #000000; stroke-width: 0.8"/>
      </g>
     </g>
     <g id="text_1">
      <!-- 2500 -->
      <g transform="translate(52.577207 322.182437)scale(0.1 -0.1)">
       <defs>
        <path id="DejaVuSans-32" d="M 1228 531 
L 3431 531 
L 3431 0 
L 469 0 
L 469 531 
Q 828 903 1448 1529 
Q 2069 2156 2228 2338 
Q 2531 2678 2651 2914 
Q 2772 3150 2772 3378 
Q 2772 3750 2511 3984 
Q 2250 4219 1831 4219 
Q 1534 4219 1204 4116 
Q 875 4013 500 3803 
L 500 4441 
Q 881 4594 1212 4672 
Q 1544 4750 1819 4750 
Q 2544 4750 2975 4387 
Q 3406 4025 3406 3419 
Q 3406 3131 3298 2873 
Q 3191 2616 2906 2266 
Q 2828 2175 2409 1742 
Q 1991 1309 1228 531 
z
" transform="scale(0.015625)"/>
        <path id="DejaVuSans-35" d="M 691 4666 
L 3169 4666 
L 3169 4134 
L 1269 4134 
L 1269 2991 
Q 1406 3038 1543 3061 
Q 1681 3084 1819 3084 
Q 2600 3084 3056 2656 
Q 3513 2228 3513 1497 
Q 3513 744 3044 326 
Q 2575 -91 1722 -91 
Q 1428 -91 1123 -41 
Q 819 9 494 109 
L 494 744 
Q 775 591 1075 516 
Q 1375 441 1709 441 
Q 2250 441 2565 725 
Q 2881 1009 2881 1497 
Q 2881 1984 2565 2268 
Q 2250 2553 1709 2553 
Q 1456 2553 1204 2497 
Q 953 2441 691 2322 
L 691 4666 
z
" transform="scale(0.015625)"/>
        <path id="DejaVuSans-30" d="M 2034 4250 
Q 1547 4250 1301 3770 
Q 1056 3291 1056 2328 
Q 1056 1369 1301 889 
Q 1547 409 2034 409 
Q 2525 409 2770 889 
Q 3016 1369 3016 2328 
Q 3016 3291 2770 3770 
Q 2525 4250 2034 4250 
z
M 2034 4750 
Q 2819 4750 3233 4129 
Q 3647 3509 3647 2328 
Q 3647 1150 3233 529 
Q 2819 -91 2034 -91 
Q 1250 -91 836 529 
Q 422 1150 422 2328 
Q 422 3509 836 4129 
Q 1250 4750 2034 4750 
z
" transform="scale(0.015625)"/>
       </defs>
       <use xlink:href="#DejaVuSans-32"/>
       <use xlink:href="#DejaVuSans-35" x="63.623047"/>
       <use xlink:href="#DejaVuSans-30" x="127.246094"/>
       <use xlink:href="#DejaVuSans-30" x="190.869141"/>
      </g>
     </g>
    </g>
    <g id="xtick_2">
     <g id="line2d_3">
      <path d="M 107.954809 307.584 
L 107.954809 41.472 
" clip-path="url(#pefa703aa3a)" style="fill: none; stroke-dasharray: 2.96,1.28; stroke-dashoffset: 0; stroke: #b0b0b0; stroke-width: 0.8"/>
     </g>
     <g id="line2d_4">
      <g>
       <use xlink:href="#m6a14522f52" x="107.954809" y="307.584" style="stroke: #000000; stroke-width: 0.8"/>
      </g>
     </g>
     <g id="text_2">
      <!-- 5000 -->
      <g transform="translate(95.229809 322.182437)scale(0.1 -0.1)">
       <use xlink:href="#DejaVuSans-35"/>
       <use xlink:href="#DejaVuSans-30" x="63.623047"/>
       <use xlink:href="#DejaVuSans-30" x="127.246094"/>
       <use xlink:href="#DejaVuSans-30" x="190.869141"/>
      </g>
     </g>
    </g>
    <g id="xtick_3">
     <g id="line2d_5">
      <path d="M 150.607411 307.584 
L 150.607411 41.472 
" clip-path="url(#pefa703aa3a)" style="fill: none; stroke-dasharray: 2.96,1.28; stroke-dashoffset: 0; stroke: #b0b0b0; stroke-width: 0.8"/>
     </g>
     <g id="line2d_6">
      <g>
       <use xlink:href="#m6a14522f52" x="150.607411" y="307.584" style="stroke: #000000; stroke-width: 0.8"/>
      </g>
     </g>
     <g id="text_3">
      <!-- 7500 -->
      <g transform="translate(137.882411 322.182437)scale(0.1 -0.1)">
       <defs>
        <path id="DejaVuSans-37" d="M 525 4666 
L 3525 4666 
L 3525 4397 
L 1831 0 
L 1172 0 
L 2766 4134 
L 525 4134 
L 525 4666 
z
" transform="scale(0.015625)"/>
       </defs>
       <use xlink:href="#DejaVuSans-37"/>
       <use xlink:href="#DejaVuSans-35" x="63.623047"/>
       <use xlink:href="#DejaVuSans-30" x="127.246094"/>
       <use xlink:href="#DejaVuSans-30" x="190.869141"/>
      </g>
     </g>
    </g>
    <g id="xtick_4">
     <g id="line2d_7">
      <path d="M 193.260013 307.584 
L 193.260013 41.472 
" clip-path="url(#pefa703aa3a)" style="fill: none; stroke-dasharray: 2.96,1.28; stroke-dashoffset: 0; stroke: #b0b0b0; stroke-width: 0.8"/>
     </g>
     <g id="line2d_8">
      <g>
       <use xlink:href="#m6a14522f52" x="193.260013" y="307.584" style="stroke: #000000; stroke-width: 0.8"/>
      </g>
     </g>
     <g id="text_4">
      <!-- 10000 -->
      <g transform="translate(177.353763 322.182437)scale(0.1 -0.1)">
       <defs>
        <path id="DejaVuSans-31" d="M 794 531 
L 1825 531 
L 1825 4091 
L 703 3866 
L 703 4441 
L 1819 4666 
L 2450 4666 
L 2450 531 
L 3481 531 
L 3481 0 
L 794 0 
L 794 531 
z
" transform="scale(0.015625)"/>
       </defs>
       <use xlink:href="#DejaVuSans-31"/>
       <use xlink:href="#DejaVuSans-30" x="63.623047"/>
       <use xlink:href="#DejaVuSans-30" x="127.246094"/>
       <use xlink:href="#DejaVuSans-30" x="190.869141"/>
       <use xlink:href="#DejaVuSans-30" x="254.492188"/>
      </g>
     </g>
    </g>
    <g id="xtick_5">
     <g id="line2d_9">
      <path d="M 235.912615 307.584 
L 235.912615 41.472 
" clip-path="url(#pefa703aa3a)" style="fill: none; stroke-dasharray: 2.96,1.28; stroke-dashoffset: 0; stroke: #b0b0b0; stroke-width: 0.8"/>
     </g>
     <g id="line2d_10">
      <g>
       <use xlink:href="#m6a14522f52" x="235.912615" y="307.584" style="stroke: #000000; stroke-width: 0.8"/>
      </g>
     </g>
     <g id="text_5">
      <!-- 12500 -->
      <g transform="translate(220.006365 322.182437)scale(0.1 -0.1)">
       <use xlink:href="#DejaVuSans-31"/>
       <use xlink:href="#DejaVuSans-32" x="63.623047"/>
       <use xlink:href="#DejaVuSans-35" x="127.246094"/>
       <use xlink:href="#DejaVuSans-30" x="190.869141"/>
       <use xlink:href="#DejaVuSans-30" x="254.492188"/>
      </g>
     </g>
    </g>
    <g id="xtick_6">
     <g id="line2d_11">
      <path d="M 278.565217 307.584 
L 278.565217 41.472 
" clip-path="url(#pefa703aa3a)" style="fill: none; stroke-dasharray: 2.96,1.28; stroke-dashoffset: 0; stroke: #b0b0b0; stroke-width: 0.8"/>
     </g>
     <g id="line2d_12">
      <g>
       <use xlink:href="#m6a14522f52" x="278.565217" y="307.584" style="stroke: #000000; stroke-width: 0.8"/>
      </g>
     </g>
     <g id="text_6">
      <!-- 15000 -->
      <g transform="translate(262.658967 322.182437)scale(0.1 -0.1)">
       <use xlink:href="#DejaVuSans-31"/>
       <use xlink:href="#DejaVuSans-35" x="63.623047"/>
       <use xlink:href="#DejaVuSans-30" x="127.246094"/>
       <use xlink:href="#DejaVuSans-30" x="190.869141"/>
       <use xlink:href="#DejaVuSans-30" x="254.492188"/>
      </g>
     </g>
    </g>
    <g id="xtick_7">
     <g id="line2d_13">
      <path d="M 321.217819 307.584 
L 321.217819 41.472 
" clip-path="url(#pefa703aa3a)" style="fill: none; stroke-dasharray: 2.96,1.28; stroke-dashoffset: 0; stroke: #b0b0b0; stroke-width: 0.8"/>
     </g>
     <g id="line2d_14">
      <g>
       <use xlink:href="#m6a14522f52" x="321.217819" y="307.584" style="stroke: #000000; stroke-width: 0.8"/>
      </g>
     </g>
     <g id="text_7">
      <!-- 17500 -->
      <g transform="translate(305.311569 322.182437)scale(0.1 -0.1)">
       <use xlink:href="#DejaVuSans-31"/>
       <use xlink:href="#DejaVuSans-37" x="63.623047"/>
       <use xlink:href="#DejaVuSans-35" x="127.246094"/>
       <use xlink:href="#DejaVuSans-30" x="190.869141"/>
       <use xlink:href="#DejaVuSans-30" x="254.492188"/>
      </g>
     </g>
    </g>
    <g id="xtick_8">
     <g id="line2d_15">
      <path d="M 363.870421 307.584 
L 363.870421 41.472 
" clip-path="url(#pefa703aa3a)" style="fill: none; stroke-dasharray: 2.96,1.28; stroke-dashoffset: 0; stroke: #b0b0b0; stroke-width: 0.8"/>
     </g>
     <g id="line2d_16">
      <g>
       <use xlink:href="#m6a14522f52" x="363.870421" y="307.584" style="stroke: #000000; stroke-width: 0.8"/>
      </g>
     </g>
     <g id="text_8">
      <!-- 20000 -->
      <g transform="translate(347.964171 322.182437)scale(0.1 -0.1)">
       <use xlink:href="#DejaVuSans-32"/>
       <use xlink:href="#DejaVuSans-30" x="63.623047"/>
       <use xlink:href="#DejaVuSans-30" x="127.246094"/>
       <use xlink:href="#DejaVuSans-30" x="190.869141"/>
       <use xlink:href="#DejaVuSans-30" x="254.492188"/>
      </g>
     </g>
    </g>
    <g id="xtick_9">
     <g id="line2d_17">
      <path d="M 406.523023 307.584 
L 406.523023 41.472 
" clip-path="url(#pefa703aa3a)" style="fill: none; stroke-dasharray: 2.96,1.28; stroke-dashoffset: 0; stroke: #b0b0b0; stroke-width: 0.8"/>
     </g>
     <g id="line2d_18">
      <g>
       <use xlink:href="#m6a14522f52" x="406.523023" y="307.584" style="stroke: #000000; stroke-width: 0.8"/>
      </g>
     </g>
     <g id="text_9">
      <!-- 22500 -->
      <g transform="translate(390.616773 322.182437)scale(0.1 -0.1)">
       <use xlink:href="#DejaVuSans-32"/>
       <use xlink:href="#DejaVuSans-32" x="63.623047"/>
       <use xlink:href="#DejaVuSans-35" x="127.246094"/>
       <use xlink:href="#DejaVuSans-30" x="190.869141"/>
       <use xlink:href="#DejaVuSans-30" x="254.492188"/>
      </g>
     </g>
    </g>
    <g id="text_10">
     <!-- Learned Episodes -->
     <g transform="translate(192.102187 335.860562)scale(0.1 -0.1)">
      <defs>
       <path id="DejaVuSans-4c" d="M 628 4666 
L 1259 4666 
L 1259 531 
L 3531 531 
L 3531 0 
L 628 0 
L 628 4666 
z
" transform="scale(0.015625)"/>
       <path id="DejaVuSans-65" d="M 3597 1894 
L 3597 1613 
L 953 1613 
Q 991 1019 1311 708 
Q 1631 397 2203 397 
Q 2534 397 2845 478 
Q 3156 559 3463 722 
L 3463 178 
Q 3153 47 2828 -22 
Q 2503 -91 2169 -91 
Q 1331 -91 842 396 
Q 353 884 353 1716 
Q 353 2575 817 3079 
Q 1281 3584 2069 3584 
Q 2775 3584 3186 3129 
Q 3597 2675 3597 1894 
z
M 3022 2063 
Q 3016 2534 2758 2815 
Q 2500 3097 2075 3097 
Q 1594 3097 1305 2825 
Q 1016 2553 972 2059 
L 3022 2063 
z
" transform="scale(0.015625)"/>
       <path id="DejaVuSans-61" d="M 2194 1759 
Q 1497 1759 1228 1600 
Q 959 1441 959 1056 
Q 959 750 1161 570 
Q 1363 391 1709 391 
Q 2188 391 2477 730 
Q 2766 1069 2766 1631 
L 2766 1759 
L 2194 1759 
z
M 3341 1997 
L 3341 0 
L 2766 0 
L 2766 531 
Q 2569 213 2275 61 
Q 1981 -91 1556 -91 
Q 1019 -91 701 211 
Q 384 513 384 1019 
Q 384 1609 779 1909 
Q 1175 2209 1959 2209 
L 2766 2209 
L 2766 2266 
Q 2766 2663 2505 2880 
Q 2244 3097 1772 3097 
Q 1472 3097 1187 3025 
Q 903 2953 641 2809 
L 641 3341 
Q 956 3463 1253 3523 
Q 1550 3584 1831 3584 
Q 2591 3584 2966 3190 
Q 3341 2797 3341 1997 
z
" transform="scale(0.015625)"/>
       <path id="DejaVuSans-72" d="M 2631 2963 
Q 2534 3019 2420 3045 
Q 2306 3072 2169 3072 
Q 1681 3072 1420 2755 
Q 1159 2438 1159 1844 
L 1159 0 
L 581 0 
L 581 3500 
L 1159 3500 
L 1159 2956 
Q 1341 3275 1631 3429 
Q 1922 3584 2338 3584 
Q 2397 3584 2469 3576 
Q 2541 3569 2628 3553 
L 2631 2963 
z
" transform="scale(0.015625)"/>
       <path id="DejaVuSans-6e" d="M 3513 2113 
L 3513 0 
L 2938 0 
L 2938 2094 
Q 2938 2591 2744 2837 
Q 2550 3084 2163 3084 
Q 1697 3084 1428 2787 
Q 1159 2491 1159 1978 
L 1159 0 
L 581 0 
L 581 3500 
L 1159 3500 
L 1159 2956 
Q 1366 3272 1645 3428 
Q 1925 3584 2291 3584 
Q 2894 3584 3203 3211 
Q 3513 2838 3513 2113 
z
" transform="scale(0.015625)"/>
       <path id="DejaVuSans-64" d="M 2906 2969 
L 2906 4863 
L 3481 4863 
L 3481 0 
L 2906 0 
L 2906 525 
Q 2725 213 2448 61 
Q 2172 -91 1784 -91 
Q 1150 -91 751 415 
Q 353 922 353 1747 
Q 353 2572 751 3078 
Q 1150 3584 1784 3584 
Q 2172 3584 2448 3432 
Q 2725 3281 2906 2969 
z
M 947 1747 
Q 947 1113 1208 752 
Q 1469 391 1925 391 
Q 2381 391 2643 752 
Q 2906 1113 2906 1747 
Q 2906 2381 2643 2742 
Q 2381 3103 1925 3103 
Q 1469 3103 1208 2742 
Q 947 2381 947 1747 
z
" transform="scale(0.015625)"/>
       <path id="DejaVuSans-20" transform="scale(0.015625)"/>
       <path id="DejaVuSans-45" d="M 628 4666 
L 3578 4666 
L 3578 4134 
L 1259 4134 
L 1259 2753 
L 3481 2753 
L 3481 2222 
L 1259 2222 
L 1259 531 
L 3634 531 
L 3634 0 
L 628 0 
L 628 4666 
z
" transform="scale(0.015625)"/>
       <path id="DejaVuSans-70" d="M 1159 525 
L 1159 -1331 
L 581 -1331 
L 581 3500 
L 1159 3500 
L 1159 2969 
Q 1341 3281 1617 3432 
Q 1894 3584 2278 3584 
Q 2916 3584 3314 3078 
Q 3713 2572 3713 1747 
Q 3713 922 3314 415 
Q 2916 -91 2278 -91 
Q 1894 -91 1617 61 
Q 1341 213 1159 525 
z
M 3116 1747 
Q 3116 2381 2855 2742 
Q 2594 3103 2138 3103 
Q 1681 3103 1420 2742 
Q 1159 2381 1159 1747 
Q 1159 1113 1420 752 
Q 1681 391 2138 391 
Q 2594 391 2855 752 
Q 3116 1113 3116 1747 
z
" transform="scale(0.015625)"/>
       <path id="DejaVuSans-69" d="M 603 3500 
L 1178 3500 
L 1178 0 
L 603 0 
L 603 3500 
z
M 603 4863 
L 1178 4863 
L 1178 4134 
L 603 4134 
L 603 4863 
z
" transform="scale(0.015625)"/>
       <path id="DejaVuSans-73" d="M 2834 3397 
L 2834 2853 
Q 2591 2978 2328 3040 
Q 2066 3103 1784 3103 
Q 1356 3103 1142 2972 
Q 928 2841 928 2578 
Q 928 2378 1081 2264 
Q 1234 2150 1697 2047 
L 1894 2003 
Q 2506 1872 2764 1633 
Q 3022 1394 3022 966 
Q 3022 478 2636 193 
Q 2250 -91 1575 -91 
Q 1294 -91 989 -36 
Q 684 19 347 128 
L 347 722 
Q 666 556 975 473 
Q 1284 391 1588 391 
Q 1994 391 2212 530 
Q 2431 669 2431 922 
Q 2431 1156 2273 1281 
Q 2116 1406 1581 1522 
L 1381 1569 
Q 847 1681 609 1914 
Q 372 2147 372 2553 
Q 372 3047 722 3315 
Q 1072 3584 1716 3584 
Q 2034 3584 2315 3537 
Q 2597 3491 2834 3397 
z
" transform="scale(0.015625)"/>
       <path id="DejaVuSans-6f" d="M 1959 3097 
Q 1497 3097 1228 2736 
Q 959 2375 959 1747 
Q 959 1119 1226 758 
Q 1494 397 1959 397 
Q 2419 397 2687 759 
Q 2956 1122 2956 1747 
Q 2956 2369 2687 2733 
Q 2419 3097 1959 3097 
z
M 1959 3584 
Q 2709 3584 3137 3096 
Q 3566 2609 3566 1747 
Q 3566 888 3137 398 
Q 2709 -91 1959 -91 
Q 1206 -91 779 398 
Q 353 888 353 1747 
Q 353 2609 779 3096 
Q 1206 3584 1959 3584 
z
" transform="scale(0.015625)"/>
      </defs>
      <use xlink:href="#DejaVuSans-4c"/>
      <use xlink:href="#DejaVuSans-65" x="53.962891"/>
      <use xlink:href="#DejaVuSans-61" x="115.486328"/>
      <use xlink:href="#DejaVuSans-72" x="176.765625"/>
      <use xlink:href="#DejaVuSans-6e" x="216.128906"/>
      <use xlink:href="#DejaVuSans-65" x="279.507812"/>
      <use xlink:href="#DejaVuSans-64" x="341.03125"/>
      <use xlink:href="#DejaVuSans-20" x="404.507812"/>
      <use xlink:href="#DejaVuSans-45" x="436.294922"/>
      <use xlink:href="#DejaVuSans-70" x="499.478516"/>
      <use xlink:href="#DejaVuSans-69" x="562.955078"/>
      <use xlink:href="#DejaVuSans-73" x="590.738281"/>
      <use xlink:href="#DejaVuSans-6f" x="642.837891"/>
      <use xlink:href="#DejaVuSans-64" x="704.019531"/>
      <use xlink:href="#DejaVuSans-65" x="767.496094"/>
      <use xlink:href="#DejaVuSans-73" x="829.019531"/>
     </g>
    </g>
   </g>
   <g id="matplotlib.axis_2">
    <g id="ytick_1">
     <g id="line2d_19">
      <path d="M 57.6 277.285022 
L 414.72 277.285022 
" clip-path="url(#pefa703aa3a)" style="fill: none; stroke-dasharray: 2.96,1.28; stroke-dashoffset: 0; stroke: #b0b0b0; stroke-width: 0.8"/>
     </g>
     <g id="line2d_20">
      <defs>
       <path id="m14f64c84ee" d="M 0 0 
L -3.5 0 
" style="stroke: #000000; stroke-width: 0.8"/>
      </defs>
      <g>
       <use xlink:href="#m14f64c84ee" x="57.6" y="277.285022" style="stroke: #000000; stroke-width: 0.8"/>
      </g>
     </g>
     <g id="text_11">
      <!-- 2.0 -->
      <g transform="translate(34.696875 281.084241)scale(0.1 -0.1)">
       <defs>
        <path id="DejaVuSans-2e" d="M 684 794 
L 1344 794 
L 1344 0 
L 684 0 
L 684 794 
z
" transform="scale(0.015625)"/>
       </defs>
       <use xlink:href="#DejaVuSans-32"/>
       <use xlink:href="#DejaVuSans-2e" x="63.623047"/>
       <use xlink:href="#DejaVuSans-30" x="95.410156"/>
      </g>
     </g>
    </g>
    <g id="ytick_2">
     <g id="line2d_21">
      <path d="M 57.6 228.238071 
L 414.72 228.238071 
" clip-path="url(#pefa703aa3a)" style="fill: none; stroke-dasharray: 2.96,1.28; stroke-dashoffset: 0; stroke: #b0b0b0; stroke-width: 0.8"/>
     </g>
     <g id="line2d_22">
      <g>
       <use xlink:href="#m14f64c84ee" x="57.6" y="228.238071" style="stroke: #000000; stroke-width: 0.8"/>
      </g>
     </g>
     <g id="text_12">
      <!-- 2.5 -->
      <g transform="translate(34.696875 232.03729)scale(0.1 -0.1)">
       <use xlink:href="#DejaVuSans-32"/>
       <use xlink:href="#DejaVuSans-2e" x="63.623047"/>
       <use xlink:href="#DejaVuSans-35" x="95.410156"/>
      </g>
     </g>
    </g>
    <g id="ytick_3">
     <g id="line2d_23">
      <path d="M 57.6 179.19112 
L 414.72 179.19112 
" clip-path="url(#pefa703aa3a)" style="fill: none; stroke-dasharray: 2.96,1.28; stroke-dashoffset: 0; stroke: #b0b0b0; stroke-width: 0.8"/>
     </g>
     <g id="line2d_24">
      <g>
       <use xlink:href="#m14f64c84ee" x="57.6" y="179.19112" style="stroke: #000000; stroke-width: 0.8"/>
      </g>
     </g>
     <g id="text_13">
      <!-- 3.0 -->
      <g transform="translate(34.696875 182.990339)scale(0.1 -0.1)">
       <defs>
        <path id="DejaVuSans-33" d="M 2597 2516 
Q 3050 2419 3304 2112 
Q 3559 1806 3559 1356 
Q 3559 666 3084 287 
Q 2609 -91 1734 -91 
Q 1441 -91 1130 -33 
Q 819 25 488 141 
L 488 750 
Q 750 597 1062 519 
Q 1375 441 1716 441 
Q 2309 441 2620 675 
Q 2931 909 2931 1356 
Q 2931 1769 2642 2001 
Q 2353 2234 1838 2234 
L 1294 2234 
L 1294 2753 
L 1863 2753 
Q 2328 2753 2575 2939 
Q 2822 3125 2822 3475 
Q 2822 3834 2567 4026 
Q 2313 4219 1838 4219 
Q 1578 4219 1281 4162 
Q 984 4106 628 3988 
L 628 4550 
Q 988 4650 1302 4700 
Q 1616 4750 1894 4750 
Q 2613 4750 3031 4423 
Q 3450 4097 3450 3541 
Q 3450 3153 3228 2886 
Q 3006 2619 2597 2516 
z
" transform="scale(0.015625)"/>
       </defs>
       <use xlink:href="#DejaVuSans-33"/>
       <use xlink:href="#DejaVuSans-2e" x="63.623047"/>
       <use xlink:href="#DejaVuSans-30" x="95.410156"/>
      </g>
     </g>
    </g>
    <g id="ytick_4">
     <g id="line2d_25">
      <path d="M 57.6 130.144169 
L 414.72 130.144169 
" clip-path="url(#pefa703aa3a)" style="fill: none; stroke-dasharray: 2.96,1.28; stroke-dashoffset: 0; stroke: #b0b0b0; stroke-width: 0.8"/>
     </g>
     <g id="line2d_26">
      <g>
       <use xlink:href="#m14f64c84ee" x="57.6" y="130.144169" style="stroke: #000000; stroke-width: 0.8"/>
      </g>
     </g>
     <g id="text_14">
      <!-- 3.5 -->
      <g transform="translate(34.696875 133.943388)scale(0.1 -0.1)">
       <use xlink:href="#DejaVuSans-33"/>
       <use xlink:href="#DejaVuSans-2e" x="63.623047"/>
       <use xlink:href="#DejaVuSans-35" x="95.410156"/>
      </g>
     </g>
    </g>
    <g id="ytick_5">
     <g id="line2d_27">
      <path d="M 57.6 81.097218 
L 414.72 81.097218 
" clip-path="url(#pefa703aa3a)" style="fill: none; stroke-dasharray: 2.96,1.28; stroke-dashoffset: 0; stroke: #b0b0b0; stroke-width: 0.8"/>
     </g>
     <g id="line2d_28">
      <g>
       <use xlink:href="#m14f64c84ee" x="57.6" y="81.097218" style="stroke: #000000; stroke-width: 0.8"/>
      </g>
     </g>
     <g id="text_15">
      <!-- 4.0 -->
      <g transform="translate(34.696875 84.896437)scale(0.1 -0.1)">
       <defs>
        <path id="DejaVuSans-34" d="M 2419 4116 
L 825 1625 
L 2419 1625 
L 2419 4116 
z
M 2253 4666 
L 3047 4666 
L 3047 1625 
L 3713 1625 
L 3713 1100 
L 3047 1100 
L 3047 0 
L 2419 0 
L 2419 1100 
L 313 1100 
L 313 1709 
L 2253 4666 
z
" transform="scale(0.015625)"/>
       </defs>
       <use xlink:href="#DejaVuSans-34"/>
       <use xlink:href="#DejaVuSans-2e" x="63.623047"/>
       <use xlink:href="#DejaVuSans-30" x="95.410156"/>
      </g>
     </g>
    </g>
    <g id="text_16">
     <!-- Reward Density -->
     <g transform="translate(28.617187 213.74675)rotate(-90)scale(0.1 -0.1)">
      <defs>
       <path id="DejaVuSans-52" d="M 2841 2188 
Q 3044 2119 3236 1894 
Q 3428 1669 3622 1275 
L 4263 0 
L 3584 0 
L 2988 1197 
Q 2756 1666 2539 1819 
Q 2322 1972 1947 1972 
L 1259 1972 
L 1259 0 
L 628 0 
L 628 4666 
L 2053 4666 
Q 2853 4666 3247 4331 
Q 3641 3997 3641 3322 
Q 3641 2881 3436 2590 
Q 3231 2300 2841 2188 
z
M 1259 4147 
L 1259 2491 
L 2053 2491 
Q 2509 2491 2742 2702 
Q 2975 2913 2975 3322 
Q 2975 3731 2742 3939 
Q 2509 4147 2053 4147 
L 1259 4147 
z
" transform="scale(0.015625)"/>
       <path id="DejaVuSans-77" d="M 269 3500 
L 844 3500 
L 1563 769 
L 2278 3500 
L 2956 3500 
L 3675 769 
L 4391 3500 
L 4966 3500 
L 4050 0 
L 3372 0 
L 2619 2869 
L 1863 0 
L 1184 0 
L 269 3500 
z
" transform="scale(0.015625)"/>
       <path id="DejaVuSans-44" d="M 1259 4147 
L 1259 519 
L 2022 519 
Q 2988 519 3436 956 
Q 3884 1394 3884 2338 
Q 3884 3275 3436 3711 
Q 2988 4147 2022 4147 
L 1259 4147 
z
M 628 4666 
L 1925 4666 
Q 3281 4666 3915 4102 
Q 4550 3538 4550 2338 
Q 4550 1131 3912 565 
Q 3275 0 1925 0 
L 628 0 
L 628 4666 
z
" transform="scale(0.015625)"/>
       <path id="DejaVuSans-74" d="M 1172 4494 
L 1172 3500 
L 2356 3500 
L 2356 3053 
L 1172 3053 
L 1172 1153 
Q 1172 725 1289 603 
Q 1406 481 1766 481 
L 2356 481 
L 2356 0 
L 1766 0 
Q 1100 0 847 248 
Q 594 497 594 1153 
L 594 3053 
L 172 3053 
L 172 3500 
L 594 3500 
L 594 4494 
L 1172 4494 
z
" transform="scale(0.015625)"/>
       <path id="DejaVuSans-79" d="M 2059 -325 
Q 1816 -950 1584 -1140 
Q 1353 -1331 966 -1331 
L 506 -1331 
L 506 -850 
L 844 -850 
Q 1081 -850 1212 -737 
Q 1344 -625 1503 -206 
L 1606 56 
L 191 3500 
L 800 3500 
L 1894 763 
L 2988 3500 
L 3597 3500 
L 2059 -325 
z
" transform="scale(0.015625)"/>
      </defs>
      <use xlink:href="#DejaVuSans-52"/>
      <use xlink:href="#DejaVuSans-65" x="64.982422"/>
      <use xlink:href="#DejaVuSans-77" x="126.505859"/>
      <use xlink:href="#DejaVuSans-61" x="208.292969"/>
      <use xlink:href="#DejaVuSans-72" x="269.572266"/>
      <use xlink:href="#DejaVuSans-64" x="308.935547"/>
      <use xlink:href="#DejaVuSans-20" x="372.412109"/>
      <use xlink:href="#DejaVuSans-44" x="404.199219"/>
      <use xlink:href="#DejaVuSans-65" x="481.201172"/>
      <use xlink:href="#DejaVuSans-6e" x="542.724609"/>
      <use xlink:href="#DejaVuSans-73" x="606.103516"/>
      <use xlink:href="#DejaVuSans-69" x="658.203125"/>
      <use xlink:href="#DejaVuSans-74" x="685.986328"/>
      <use xlink:href="#DejaVuSans-79" x="725.195312"/>
     </g>
    </g>
   </g>
   <g id="LineCollection_1">
    <path d="M 90.893768 210.25867 
L 125.01585 210.25867 
" clip-path="url(#pefa703aa3a)" style="fill: none; stroke: #1f77b4; stroke-width: 1.5"/>
    <path d="M 176.198972 200.628559 
L 210.321054 200.628559 
" clip-path="url(#pefa703aa3a)" style="fill: none; stroke: #1f77b4; stroke-width: 1.5"/>
    <path d="M 261.504176 203.189847 
L 295.626258 203.189847 
" clip-path="url(#pefa703aa3a)" style="fill: none; stroke: #1f77b4; stroke-width: 1.5"/>
    <path d="M 346.80938 181.839983 
L 380.931462 181.839983 
" clip-path="url(#pefa703aa3a)" style="fill: none; stroke: #1f77b4; stroke-width: 1.5"/>
    <path d="M 347.30415 175.915227 
L 381.426232 175.915227 
" clip-path="url(#pefa703aa3a)" style="fill: none; stroke: #1f77b4; stroke-width: 1.5"/>
   </g>
   <g id="LineCollection_2">
    <path d="M 90.893768 146.642732 
L 125.01585 146.642732 
" clip-path="url(#pefa703aa3a)" style="fill: none; stroke: #1f77b4; stroke-width: 1.5"/>
    <path d="M 176.198972 99.430821 
L 210.321054 99.430821 
" clip-path="url(#pefa703aa3a)" style="fill: none; stroke: #1f77b4; stroke-width: 1.5"/>
    <path d="M 261.504176 92.430764 
L 295.626258 92.430764 
" clip-path="url(#pefa703aa3a)" style="fill: none; stroke: #1f77b4; stroke-width: 1.5"/>
    <path d="M 346.80938 67.729289 
L 380.931462 67.729289 
" clip-path="url(#pefa703aa3a)" style="fill: none; stroke: #1f77b4; stroke-width: 1.5"/>
    <path d="M 347.30415 53.568 
L 381.426232 53.568 
" clip-path="url(#pefa703aa3a)" style="fill: none; stroke: #1f77b4; stroke-width: 1.5"/>
   </g>
   <g id="LineCollection_3">
    <path d="M 90.893768 265.984541 
L 125.01585 265.984541 
" clip-path="url(#pefa703aa3a)" style="fill: none; stroke: #1f77b4; stroke-width: 1.5"/>
    <path d="M 176.198972 287.745952 
L 210.321054 287.745952 
" clip-path="url(#pefa703aa3a)" style="fill: none; stroke: #1f77b4; stroke-width: 1.5"/>
    <path d="M 261.504176 295.488 
L 295.626258 295.488 
" clip-path="url(#pefa703aa3a)" style="fill: none; stroke: #1f77b4; stroke-width: 1.5"/>
    <path d="M 346.80938 283.874224 
L 380.931462 283.874224 
" clip-path="url(#pefa703aa3a)" style="fill: none; stroke: #1f77b4; stroke-width: 1.5"/>
    <path d="M 347.30415 282.489196 
L 381.426232 282.489196 
" clip-path="url(#pefa703aa3a)" style="fill: none; stroke: #1f77b4; stroke-width: 1.5"/>
   </g>
   <g id="LineCollection_4">
    <path d="M 107.954809 265.984541 
L 107.954809 146.642732 
" clip-path="url(#pefa703aa3a)" style="fill: none; stroke: #1f77b4; stroke-width: 1.5"/>
    <path d="M 193.260013 287.745952 
L 193.260013 99.430821 
" clip-path="url(#pefa703aa3a)" style="fill: none; stroke: #1f77b4; stroke-width: 1.5"/>
    <path d="M 278.565217 295.488 
L 278.565217 92.430764 
" clip-path="url(#pefa703aa3a)" style="fill: none; stroke: #1f77b4; stroke-width: 1.5"/>
    <path d="M 363.870421 283.874224 
L 363.870421 67.729289 
" clip-path="url(#pefa703aa3a)" style="fill: none; stroke: #1f77b4; stroke-width: 1.5"/>
    <path d="M 364.365191 282.489196 
L 364.365191 53.568 
" clip-path="url(#pefa703aa3a)" style="fill: none; stroke: #1f77b4; stroke-width: 1.5"/>
   </g>
   <g id="line2d_29">
    <path d="M 107.954809 210.25867 
L 193.260013 200.628559 
L 278.565217 203.189847 
L 363.870421 181.839983 
L 364.365191 175.915227 
" clip-path="url(#pefa703aa3a)" style="fill: none; stroke: #4682b4; stroke-width: 1.5; stroke-linecap: square"/>
   </g>
   <g id="line2d_30">
    <path d="M 107.954809 210.25867 
L 193.260013 200.628559 
L 278.565217 203.189847 
L 363.870421 181.839983 
L 364.365191 175.915227 
" clip-path="url(#pefa703aa3a)" style="fill: none; stroke: #4682b4; stroke-width: 1.5; stroke-linecap: square"/>
   </g>
   <g id="patch_3">
    <path d="M 57.6 307.584 
L 57.6 41.472 
" style="fill: none; stroke: #000000; stroke-width: 0.8; stroke-linejoin: miter; stroke-linecap: square"/>
   </g>
   <g id="patch_4">
    <path d="M 414.72 307.584 
L 414.72 41.472 
" style="fill: none; stroke: #000000; stroke-width: 0.8; stroke-linejoin: miter; stroke-linecap: square"/>
   </g>
   <g id="patch_5">
    <path d="M 57.6 307.584 
L 414.72 307.584 
" style="fill: none; stroke: #000000; stroke-width: 0.8; stroke-linejoin: miter; stroke-linecap: square"/>
   </g>
   <g id="patch_6">
    <path d="M 57.6 41.472 
L 414.72 41.472 
" style="fill: none; stroke: #000000; stroke-width: 0.8; stroke-linejoin: miter; stroke-linecap: square"/>
   </g>
   <g id="text_17">
    <!-- Violinplot for progress of actions/price_refurbished -->
    <g transform="translate(84.801562 35.472)scale(0.12 -0.12)">
     <defs>
      <path id="DejaVuSans-56" d="M 1831 0 
L 50 4666 
L 709 4666 
L 2188 738 
L 3669 4666 
L 4325 4666 
L 2547 0 
L 1831 0 
z
" transform="scale(0.015625)"/>
      <path id="DejaVuSans-6c" d="M 603 4863 
L 1178 4863 
L 1178 0 
L 603 0 
L 603 4863 
z
" transform="scale(0.015625)"/>
      <path id="DejaVuSans-66" d="M 2375 4863 
L 2375 4384 
L 1825 4384 
Q 1516 4384 1395 4259 
Q 1275 4134 1275 3809 
L 1275 3500 
L 2222 3500 
L 2222 3053 
L 1275 3053 
L 1275 0 
L 697 0 
L 697 3053 
L 147 3053 
L 147 3500 
L 697 3500 
L 697 3744 
Q 697 4328 969 4595 
Q 1241 4863 1831 4863 
L 2375 4863 
z
" transform="scale(0.015625)"/>
      <path id="DejaVuSans-67" d="M 2906 1791 
Q 2906 2416 2648 2759 
Q 2391 3103 1925 3103 
Q 1463 3103 1205 2759 
Q 947 2416 947 1791 
Q 947 1169 1205 825 
Q 1463 481 1925 481 
Q 2391 481 2648 825 
Q 2906 1169 2906 1791 
z
M 3481 434 
Q 3481 -459 3084 -895 
Q 2688 -1331 1869 -1331 
Q 1566 -1331 1297 -1286 
Q 1028 -1241 775 -1147 
L 775 -588 
Q 1028 -725 1275 -790 
Q 1522 -856 1778 -856 
Q 2344 -856 2625 -561 
Q 2906 -266 2906 331 
L 2906 616 
Q 2728 306 2450 153 
Q 2172 0 1784 0 
Q 1141 0 747 490 
Q 353 981 353 1791 
Q 353 2603 747 3093 
Q 1141 3584 1784 3584 
Q 2172 3584 2450 3431 
Q 2728 3278 2906 2969 
L 2906 3500 
L 3481 3500 
L 3481 434 
z
" transform="scale(0.015625)"/>
      <path id="DejaVuSans-63" d="M 3122 3366 
L 3122 2828 
Q 2878 2963 2633 3030 
Q 2388 3097 2138 3097 
Q 1578 3097 1268 2742 
Q 959 2388 959 1747 
Q 959 1106 1268 751 
Q 1578 397 2138 397 
Q 2388 397 2633 464 
Q 2878 531 3122 666 
L 3122 134 
Q 2881 22 2623 -34 
Q 2366 -91 2075 -91 
Q 1284 -91 818 406 
Q 353 903 353 1747 
Q 353 2603 823 3093 
Q 1294 3584 2113 3584 
Q 2378 3584 2631 3529 
Q 2884 3475 3122 3366 
z
" transform="scale(0.015625)"/>
      <path id="DejaVuSans-2f" d="M 1625 4666 
L 2156 4666 
L 531 -594 
L 0 -594 
L 1625 4666 
z
" transform="scale(0.015625)"/>
      <path id="DejaVuSans-5f" d="M 3263 -1063 
L 3263 -1509 
L -63 -1509 
L -63 -1063 
L 3263 -1063 
z
" transform="scale(0.015625)"/>
      <path id="DejaVuSans-75" d="M 544 1381 
L 544 3500 
L 1119 3500 
L 1119 1403 
Q 1119 906 1312 657 
Q 1506 409 1894 409 
Q 2359 409 2629 706 
Q 2900 1003 2900 1516 
L 2900 3500 
L 3475 3500 
L 3475 0 
L 2900 0 
L 2900 538 
Q 2691 219 2414 64 
Q 2138 -91 1772 -91 
Q 1169 -91 856 284 
Q 544 659 544 1381 
z
M 1991 3584 
L 1991 3584 
z
" transform="scale(0.015625)"/>
      <path id="DejaVuSans-62" d="M 3116 1747 
Q 3116 2381 2855 2742 
Q 2594 3103 2138 3103 
Q 1681 3103 1420 2742 
Q 1159 2381 1159 1747 
Q 1159 1113 1420 752 
Q 1681 391 2138 391 
Q 2594 391 2855 752 
Q 3116 1113 3116 1747 
z
M 1159 2969 
Q 1341 3281 1617 3432 
Q 1894 3584 2278 3584 
Q 2916 3584 3314 3078 
Q 3713 2572 3713 1747 
Q 3713 922 3314 415 
Q 2916 -91 2278 -91 
Q 1894 -91 1617 61 
Q 1341 213 1159 525 
L 1159 0 
L 581 0 
L 581 4863 
L 1159 4863 
L 1159 2969 
z
" transform="scale(0.015625)"/>
      <path id="DejaVuSans-68" d="M 3513 2113 
L 3513 0 
L 2938 0 
L 2938 2094 
Q 2938 2591 2744 2837 
Q 2550 3084 2163 3084 
Q 1697 3084 1428 2787 
Q 1159 2491 1159 1978 
L 1159 0 
L 581 0 
L 581 4863 
L 1159 4863 
L 1159 2956 
Q 1366 3272 1645 3428 
Q 1925 3584 2291 3584 
Q 2894 3584 3203 3211 
Q 3513 2838 3513 2113 
z
" transform="scale(0.015625)"/>
     </defs>
     <use xlink:href="#DejaVuSans-56"/>
     <use xlink:href="#DejaVuSans-69" x="66.158203"/>
     <use xlink:href="#DejaVuSans-6f" x="93.941406"/>
     <use xlink:href="#DejaVuSans-6c" x="155.123047"/>
     <use xlink:href="#DejaVuSans-69" x="182.90625"/>
     <use xlink:href="#DejaVuSans-6e" x="210.689453"/>
     <use xlink:href="#DejaVuSans-70" x="274.068359"/>
     <use xlink:href="#DejaVuSans-6c" x="337.544922"/>
     <use xlink:href="#DejaVuSans-6f" x="365.328125"/>
     <use xlink:href="#DejaVuSans-74" x="426.509766"/>
     <use xlink:href="#DejaVuSans-20" x="465.71875"/>
     <use xlink:href="#DejaVuSans-66" x="497.505859"/>
     <use xlink:href="#DejaVuSans-6f" x="532.710938"/>
     <use xlink:href="#DejaVuSans-72" x="593.892578"/>
     <use xlink:href="#DejaVuSans-20" x="635.005859"/>
     <use xlink:href="#DejaVuSans-70" x="666.792969"/>
     <use xlink:href="#DejaVuSans-72" x="730.269531"/>
     <use xlink:href="#DejaVuSans-6f" x="769.132812"/>
     <use xlink:href="#DejaVuSans-67" x="830.314453"/>
     <use xlink:href="#DejaVuSans-72" x="893.791016"/>
     <use xlink:href="#DejaVuSans-65" x="932.654297"/>
     <use xlink:href="#DejaVuSans-73" x="994.177734"/>
     <use xlink:href="#DejaVuSans-73" x="1046.277344"/>
     <use xlink:href="#DejaVuSans-20" x="1098.376953"/>
     <use xlink:href="#DejaVuSans-6f" x="1130.164062"/>
     <use xlink:href="#DejaVuSans-66" x="1191.345703"/>
     <use xlink:href="#DejaVuSans-20" x="1226.550781"/>
     <use xlink:href="#DejaVuSans-61" x="1258.337891"/>
     <use xlink:href="#DejaVuSans-63" x="1319.617188"/>
     <use xlink:href="#DejaVuSans-74" x="1374.597656"/>
     <use xlink:href="#DejaVuSans-69" x="1413.806641"/>
     <use xlink:href="#DejaVuSans-6f" x="1441.589844"/>
     <use xlink:href="#DejaVuSans-6e" x="1502.771484"/>
     <use xlink:href="#DejaVuSans-73" x="1566.150391"/>
     <use xlink:href="#DejaVuSans-2f" x="1618.25"/>
     <use xlink:href="#DejaVuSans-70" x="1651.941406"/>
     <use xlink:href="#DejaVuSans-72" x="1715.417969"/>
     <use xlink:href="#DejaVuSans-69" x="1756.53125"/>
     <use xlink:href="#DejaVuSans-63" x="1784.314453"/>
     <use xlink:href="#DejaVuSans-65" x="1839.294922"/>
     <use xlink:href="#DejaVuSans-5f" x="1900.818359"/>
     <use xlink:href="#DejaVuSans-72" x="1950.818359"/>
     <use xlink:href="#DejaVuSans-65" x="1989.681641"/>
     <use xlink:href="#DejaVuSans-66" x="2051.205078"/>
     <use xlink:href="#DejaVuSans-75" x="2086.410156"/>
     <use xlink:href="#DejaVuSans-72" x="2149.789062"/>
     <use xlink:href="#DejaVuSans-62" x="2190.902344"/>
     <use xlink:href="#DejaVuSans-69" x="2254.378906"/>
     <use xlink:href="#DejaVuSans-73" x="2282.162109"/>
     <use xlink:href="#DejaVuSans-68" x="2334.261719"/>
     <use xlink:href="#DejaVuSans-65" x="2397.640625"/>
     <use xlink:href="#DejaVuSans-64" x="2459.164062"/>
    </g>
   </g>
   <g id="legend_1">
    <g id="patch_7">
     <path d="M 276.504375 64.150125 
L 407.72 64.150125 
Q 409.72 64.150125 409.72 62.150125 
L 409.72 48.472 
Q 409.72 46.472 407.72 46.472 
L 276.504375 46.472 
Q 274.504375 46.472 274.504375 48.472 
L 274.504375 62.150125 
Q 274.504375 64.150125 276.504375 64.150125 
z
" style="fill: #ffffff; opacity: 0.8; stroke: #cccccc; stroke-linejoin: miter"/>
    </g>
    <g id="line2d_31">
     <path d="M 278.504375 54.570438 
L 288.504375 54.570438 
L 298.504375 54.570438 
" style="fill: none; stroke: #4682b4; stroke-width: 1.5; stroke-linecap: square"/>
    </g>
    <g id="text_18">
     <!-- StableBaselinesPPO -->
     <g transform="translate(306.504375 58.070438)scale(0.1 -0.1)">
      <defs>
       <path id="DejaVuSans-53" d="M 3425 4513 
L 3425 3897 
Q 3066 4069 2747 4153 
Q 2428 4238 2131 4238 
Q 1616 4238 1336 4038 
Q 1056 3838 1056 3469 
Q 1056 3159 1242 3001 
Q 1428 2844 1947 2747 
L 2328 2669 
Q 3034 2534 3370 2195 
Q 3706 1856 3706 1288 
Q 3706 609 3251 259 
Q 2797 -91 1919 -91 
Q 1588 -91 1214 -16 
Q 841 59 441 206 
L 441 856 
Q 825 641 1194 531 
Q 1563 422 1919 422 
Q 2459 422 2753 634 
Q 3047 847 3047 1241 
Q 3047 1584 2836 1778 
Q 2625 1972 2144 2069 
L 1759 2144 
Q 1053 2284 737 2584 
Q 422 2884 422 3419 
Q 422 4038 858 4394 
Q 1294 4750 2059 4750 
Q 2388 4750 2728 4690 
Q 3069 4631 3425 4513 
z
" transform="scale(0.015625)"/>
       <path id="DejaVuSans-42" d="M 1259 2228 
L 1259 519 
L 2272 519 
Q 2781 519 3026 730 
Q 3272 941 3272 1375 
Q 3272 1813 3026 2020 
Q 2781 2228 2272 2228 
L 1259 2228 
z
M 1259 4147 
L 1259 2741 
L 2194 2741 
Q 2656 2741 2882 2914 
Q 3109 3088 3109 3444 
Q 3109 3797 2882 3972 
Q 2656 4147 2194 4147 
L 1259 4147 
z
M 628 4666 
L 2241 4666 
Q 2963 4666 3353 4366 
Q 3744 4066 3744 3513 
Q 3744 3084 3544 2831 
Q 3344 2578 2956 2516 
Q 3422 2416 3680 2098 
Q 3938 1781 3938 1306 
Q 3938 681 3513 340 
Q 3088 0 2303 0 
L 628 0 
L 628 4666 
z
" transform="scale(0.015625)"/>
       <path id="DejaVuSans-50" d="M 1259 4147 
L 1259 2394 
L 2053 2394 
Q 2494 2394 2734 2622 
Q 2975 2850 2975 3272 
Q 2975 3691 2734 3919 
Q 2494 4147 2053 4147 
L 1259 4147 
z
M 628 4666 
L 2053 4666 
Q 2838 4666 3239 4311 
Q 3641 3956 3641 3272 
Q 3641 2581 3239 2228 
Q 2838 1875 2053 1875 
L 1259 1875 
L 1259 0 
L 628 0 
L 628 4666 
z
" transform="scale(0.015625)"/>
       <path id="DejaVuSans-4f" d="M 2522 4238 
Q 1834 4238 1429 3725 
Q 1025 3213 1025 2328 
Q 1025 1447 1429 934 
Q 1834 422 2522 422 
Q 3209 422 3611 934 
Q 4013 1447 4013 2328 
Q 4013 3213 3611 3725 
Q 3209 4238 2522 4238 
z
M 2522 4750 
Q 3503 4750 4090 4092 
Q 4678 3434 4678 2328 
Q 4678 1225 4090 567 
Q 3503 -91 2522 -91 
Q 1538 -91 948 565 
Q 359 1222 359 2328 
Q 359 3434 948 4092 
Q 1538 4750 2522 4750 
z
" transform="scale(0.015625)"/>
      </defs>
      <use xlink:href="#DejaVuSans-53"/>
      <use xlink:href="#DejaVuSans-74" x="63.476562"/>
      <use xlink:href="#DejaVuSans-61" x="102.685547"/>
      <use xlink:href="#DejaVuSans-62" x="163.964844"/>
      <use xlink:href="#DejaVuSans-6c" x="227.441406"/>
      <use xlink:href="#DejaVuSans-65" x="255.224609"/>
      <use xlink:href="#DejaVuSans-42" x="316.748047"/>
      <use xlink:href="#DejaVuSans-61" x="385.351562"/>
      <use xlink:href="#DejaVuSans-73" x="446.630859"/>
      <use xlink:href="#DejaVuSans-65" x="498.730469"/>
      <use xlink:href="#DejaVuSans-6c" x="560.253906"/>
      <use xlink:href="#DejaVuSans-69" x="588.037109"/>
      <use xlink:href="#DejaVuSans-6e" x="615.820312"/>
      <use xlink:href="#DejaVuSans-65" x="679.199219"/>
      <use xlink:href="#DejaVuSans-73" x="740.722656"/>
      <use xlink:href="#DejaVuSans-50" x="792.822266"/>
      <use xlink:href="#DejaVuSans-50" x="853.125"/>
      <use xlink:href="#DejaVuSans-4f" x="913.427734"/>
     </g>
    </g>
   </g>
  </g>
 </g>
 <defs>
  <clipPath id="pefa703aa3a">
   <rect x="57.6" y="41.472" width="357.12" height="266.112"/>
  </clipPath>
 </defs>
</svg>
