<?xml version="1.0" encoding="utf-8" standalone="no"?>
<!DOCTYPE svg PUBLIC "-//W3C//DTD SVG 1.1//EN"
  "http://www.w3.org/Graphics/SVG/1.1/DTD/svg11.dtd">
<svg xmlns:xlink="http://www.w3.org/1999/xlink" width="460.8pt" height="345.6pt" viewBox="0 0 460.8 345.6" xmlns="http://www.w3.org/2000/svg" version="1.1">
 <metadata>
  <rdf:RDF xmlns:dc="http://purl.org/dc/elements/1.1/" xmlns:cc="http://creativecommons.org/ns#" xmlns:rdf="http://www.w3.org/1999/02/22-rdf-syntax-ns#">
   <cc:Work>
    <dc:type rdf:resource="http://purl.org/dc/dcmitype/StillImage"/>
    <dc:date>2022-06-21T20:55:07.949556</dc:date>
    <dc:format>image/svg+xml</dc:format>
    <dc:creator>
     <cc:Agent>
      <dc:title>Matplotlib v3.5.2, https://matplotlib.org/</dc:title>
     </cc:Agent>
    </dc:creator>
   </cc:Work>
  </rdf:RDF>
 </metadata>
 <defs>
  <style type="text/css">*{stroke-linejoin: round; stroke-linecap: butt}</style>
 </defs>
 <g id="figure_1">
  <g id="patch_1">
   <path d="M 0 345.6 
L 460.8 345.6 
L 460.8 0 
L 0 0 
z
" style="fill: #ffffff"/>
  </g>
  <g id="axes_1">
   <g id="patch_2">
    <path d="M 57.6 307.584 
L 414.72 307.584 
L 414.72 41.472 
L 57.6 41.472 
z
" style="fill: #ffffff"/>
   </g>
   <g id="PolyCollection_1">
    <path d="M 111.0466 295.488 
L 104.863017 295.488 
L 104.176829 293.33185 
L 103.366325 291.175701 
L 102.409864 289.019551 
L 101.286035 286.863401 
L 99.976886 284.707251 
L 98.471899 282.551102 
L 96.772058 280.394952 
L 94.892987 278.238802 
L 92.866033 276.082652 
L 90.73654 273.926503 
L 88.559414 271.770353 
L 86.393071 269.614203 
L 84.293531 267.458053 
L 82.310293 265.301904 
L 80.484728 263.145754 
L 78.850429 260.989604 
L 77.434014 258.833455 
L 76.254864 256.677305 
L 75.323215 254.521155 
L 74.637339 252.365005 
L 74.181522 250.208856 
L 73.926454 248.052706 
L 73.832727 245.896556 
L 73.856793 243.740406 
L 73.957829 241.584257 
L 74.103849 239.428107 
L 74.275902 237.271957 
L 74.469902 235.115807 
L 74.696058 232.959658 
L 74.975993 230.803508 
L 75.337767 228.647358 
L 75.809394 226.491209 
L 76.412042 224.335059 
L 77.154597 222.178909 
L 78.031118 220.022759 
L 79.021881 217.86661 
L 80.097465 215.71046 
L 81.224329 213.55431 
L 82.370088 211.39816 
L 83.507217 209.242011 
L 84.614801 207.085861 
L 85.678756 204.929711 
L 86.691165 202.773561 
L 87.649248 200.617412 
L 88.554154 198.461262 
L 89.409654 196.305112 
L 90.220843 194.148963 
L 90.99311 191.992813 
L 91.731572 189.836663 
L 92.441006 187.680513 
L 93.126026 185.524364 
L 93.791204 183.368214 
L 94.440946 181.212064 
L 95.07917 179.055914 
L 95.709019 176.899765 
L 96.332751 174.743615 
L 96.951786 172.587465 
L 97.56672 170.431316 
L 98.177111 168.275166 
L 98.781051 166.119016 
L 99.374753 163.962866 
L 99.952495 161.806717 
L 100.507115 159.650567 
L 101.031024 157.494417 
L 101.517436 155.338267 
L 101.961452 153.182118 
L 102.360725 151.025968 
L 102.715604 148.869818 
L 103.028872 146.713668 
L 103.305215 144.557519 
L 103.550598 142.401369 
L 103.771664 140.245219 
L 103.975225 138.08907 
L 104.167893 135.93292 
L 104.355837 133.77677 
L 104.544625 131.62062 
L 104.739038 129.464471 
L 104.942785 127.308321 
L 105.158106 125.152171 
L 105.385379 122.996021 
L 105.62289 120.839872 
L 105.866939 118.683722 
L 106.112312 116.527572 
L 106.353032 114.371422 
L 106.583165 112.215273 
L 106.797493 110.059123 
L 106.991887 107.902973 
L 107.163408 105.746824 
L 107.310224 103.590674 
L 107.431495 101.434524 
L 107.52733 99.278374 
L 107.598838 97.122225 
L 107.648215 94.966075 
L 107.678764 92.809925 
L 107.694751 90.653775 
L 107.701073 88.497626 
L 107.702749 86.341476 
L 107.704333 84.185326 
L 107.709377 82.029176 
L 108.200241 82.029176 
L 108.200241 82.029176 
L 108.205285 84.185326 
L 108.206868 86.341476 
L 108.208545 88.497626 
L 108.214867 90.653775 
L 108.230854 92.809925 
L 108.261402 94.966075 
L 108.31078 97.122225 
L 108.382288 99.278374 
L 108.478123 101.434524 
L 108.599394 103.590674 
L 108.746209 105.746824 
L 108.917731 107.902973 
L 109.112125 110.059123 
L 109.326453 112.215273 
L 109.556586 114.371422 
L 109.797305 116.527572 
L 110.042679 118.683722 
L 110.286728 120.839872 
L 110.524239 122.996021 
L 110.751512 125.152171 
L 110.966833 127.308321 
L 111.17058 129.464471 
L 111.364993 131.62062 
L 111.553781 133.77677 
L 111.741725 135.93292 
L 111.934392 138.08907 
L 112.137954 140.245219 
L 112.35902 142.401369 
L 112.604403 144.557519 
L 112.880745 146.713668 
L 113.194014 148.869818 
L 113.548893 151.025968 
L 113.948166 153.182118 
L 114.392182 155.338267 
L 114.878594 157.494417 
L 115.402503 159.650567 
L 115.957123 161.806717 
L 116.534865 163.962866 
L 117.128567 166.119016 
L 117.732507 168.275166 
L 118.342898 170.431316 
L 118.957832 172.587465 
L 119.576867 174.743615 
L 120.200599 176.899765 
L 120.830448 179.055914 
L 121.468672 181.212064 
L 122.118413 183.368214 
L 122.783592 185.524364 
L 123.468612 187.680513 
L 124.178046 189.836663 
L 124.916508 191.992813 
L 125.688774 194.148963 
L 126.499964 196.305112 
L 127.355464 198.461262 
L 128.26037 200.617412 
L 129.218452 202.773561 
L 130.230861 204.929711 
L 131.294816 207.085861 
L 132.402401 209.242011 
L 133.53953 211.39816 
L 134.685289 213.55431 
L 135.812152 215.71046 
L 136.887736 217.86661 
L 137.8785 220.022759 
L 138.755021 222.178909 
L 139.497576 224.335059 
L 140.100224 226.491209 
L 140.571851 228.647358 
L 140.933625 230.803508 
L 141.21356 232.959658 
L 141.439716 235.115807 
L 141.633716 237.271957 
L 141.805769 239.428107 
L 141.951789 241.584257 
L 142.052825 243.740406 
L 142.07689 245.896556 
L 141.983163 248.052706 
L 141.728095 250.208856 
L 141.272278 252.365005 
L 140.586403 254.521155 
L 139.654753 256.677305 
L 138.475604 258.833455 
L 137.059188 260.989604 
L 135.42489 263.145754 
L 133.599325 265.301904 
L 131.616087 267.458053 
L 129.516546 269.614203 
L 127.350204 271.770353 
L 125.173078 273.926503 
L 123.043585 276.082652 
L 121.016631 278.238802 
L 119.13756 280.394952 
L 117.437719 282.551102 
L 115.932731 284.707251 
L 114.623583 286.863401 
L 113.499754 289.019551 
L 112.543292 291.175701 
L 111.732789 293.33185 
L 111.0466 295.488 
z
" clip-path="url(#p7fa78e0d35)" style="fill: #1f77b4; fill-opacity: 0.3"/>
   </g>
   <g id="PolyCollection_2">
    <path d="M 196.808304 295.488 
L 189.711721 295.488 
L 188.872815 293.044364 
L 187.937706 290.600727 
L 186.917884 288.157091 
L 185.82638 285.713455 
L 184.673995 283.269818 
L 183.465796 280.826182 
L 182.199264 278.382545 
L 180.864877 275.938909 
L 179.449038 273.495273 
L 177.938667 271.051636 
L 176.326568 268.608 
L 174.616654 266.164364 
L 172.827923 263.720727 
L 170.99578 261.277091 
L 169.169397 258.833455 
L 167.404968 256.389818 
L 165.756504 253.946182 
L 164.267333 251.502545 
L 162.965358 249.058909 
L 161.863221 246.615273 
L 160.961995 244.171636 
L 160.255615 241.728 
L 159.733864 239.284364 
L 159.383674 236.840727 
L 159.190051 234.397091 
L 159.137931 231.953455 
L 159.214992 229.509818 
L 159.414228 227.066182 
L 159.73514 224.622545 
L 160.183305 222.178909 
L 160.768888 219.735273 
L 161.504377 217.291636 
L 162.400966 214.848 
L 163.46285 212.404364 
L 164.679885 209.960727 
L 166.0211 207.517091 
L 167.432692 205.073455 
L 168.843163 202.629818 
L 170.175491 200.186182 
L 171.363151 197.742545 
L 172.365106 195.298909 
L 173.175193 192.855273 
L 173.823179 190.411636 
L 174.367064 187.968 
L 174.878475 185.524364 
L 175.424737 183.080727 
L 176.052324 180.637091 
L 176.776283 178.193455 
L 177.578698 175.749818 
L 178.416423 173.306182 
L 179.235401 170.862545 
L 179.986954 168.418909 
L 180.641314 165.975273 
L 181.195012 163.531636 
L 181.670855 161.088 
L 182.111181 158.644364 
L 182.566612 156.200727 
L 183.083395 153.757091 
L 183.692722 151.313455 
L 184.404745 148.869818 
L 185.208478 146.426182 
L 186.07683 143.982545 
L 186.974355 141.538909 
L 187.864847 139.095273 
L 188.716644 136.651636 
L 189.505022 134.208 
L 190.21239 131.764364 
L 190.827568 129.320727 
L 191.345119 126.877091 
L 191.765032 124.433455 
L 192.092455 121.989818 
L 192.337047 119.546182 
L 192.511743 117.102545 
L 192.631104 114.658909 
L 192.70961 112.215273 
L 192.760324 109.771636 
L 192.794111 107.328 
L 192.81942 104.884364 
L 192.842436 102.440727 
L 192.867373 99.997091 
L 192.896725 97.553455 
L 192.931439 95.109818 
L 192.971046 92.666182 
L 193.013874 90.222545 
L 193.057383 87.778909 
L 193.098626 85.335273 
L 193.134723 82.891636 
L 193.163247 80.448 
L 193.182451 78.004364 
L 193.191338 75.560727 
L 193.189658 73.117091 
L 193.177917 70.673455 
L 193.15744 68.229818 
L 193.130454 65.786182 
L 193.100101 63.342545 
L 193.07024 60.898909 
L 193.045001 58.455273 
L 193.028119 56.011636 
L 193.022227 53.568 
L 193.497799 53.568 
L 193.497799 53.568 
L 193.491907 56.011636 
L 193.475025 58.455273 
L 193.449785 60.898909 
L 193.419925 63.342545 
L 193.389572 65.786182 
L 193.362586 68.229818 
L 193.342108 70.673455 
L 193.330368 73.117091 
L 193.328688 75.560727 
L 193.337575 78.004364 
L 193.356779 80.448 
L 193.385303 82.891636 
L 193.421399 85.335273 
L 193.462642 87.778909 
L 193.506152 90.222545 
L 193.54898 92.666182 
L 193.588587 95.109818 
L 193.6233 97.553455 
L 193.652653 99.997091 
L 193.677589 102.440727 
L 193.700606 104.884364 
L 193.725915 107.328 
L 193.759702 109.771636 
L 193.810416 112.215273 
L 193.888922 114.658909 
L 194.008282 117.102545 
L 194.182979 119.546182 
L 194.427571 121.989818 
L 194.754994 124.433455 
L 195.174907 126.877091 
L 195.692458 129.320727 
L 196.307636 131.764364 
L 197.015004 134.208 
L 197.803382 136.651636 
L 198.655179 139.095273 
L 199.545671 141.538909 
L 200.443196 143.982545 
L 201.311548 146.426182 
L 202.115281 148.869818 
L 202.827304 151.313455 
L 203.436631 153.757091 
L 203.953414 156.200727 
L 204.408844 158.644364 
L 204.849171 161.088 
L 205.325013 163.531636 
L 205.878711 165.975273 
L 206.533072 168.418909 
L 207.284625 170.862545 
L 208.103603 173.306182 
L 208.941328 175.749818 
L 209.743743 178.193455 
L 210.467702 180.637091 
L 211.095288 183.080727 
L 211.641551 185.524364 
L 212.152961 187.968 
L 212.696846 190.411636 
L 213.344832 192.855273 
L 214.15492 195.298909 
L 215.156875 197.742545 
L 216.344535 200.186182 
L 217.676863 202.629818 
L 219.087334 205.073455 
L 220.498926 207.517091 
L 221.840141 209.960727 
L 223.057175 212.404364 
L 224.11906 214.848 
L 225.015649 217.291636 
L 225.751137 219.735273 
L 226.336721 222.178909 
L 226.784886 224.622545 
L 227.105798 227.066182 
L 227.305034 229.509818 
L 227.382095 231.953455 
L 227.329975 234.397091 
L 227.136351 236.840727 
L 226.786162 239.284364 
L 226.264411 241.728 
L 225.558031 244.171636 
L 224.656805 246.615273 
L 223.554668 249.058909 
L 222.252693 251.502545 
L 220.763522 253.946182 
L 219.115057 256.389818 
L 217.350629 258.833455 
L 215.524246 261.277091 
L 213.692102 263.720727 
L 211.903372 266.164364 
L 210.193457 268.608 
L 208.581359 271.051636 
L 207.070988 273.495273 
L 205.655148 275.938909 
L 204.320762 278.382545 
L 203.05423 280.826182 
L 201.846031 283.269818 
L 200.693646 285.713455 
L 199.602142 288.157091 
L 198.58232 290.600727 
L 197.64721 293.044364 
L 196.808304 295.488 
z
" clip-path="url(#p7fa78e0d35)" style="fill: #1f77b4; fill-opacity: 0.3"/>
   </g>
   <g id="PolyCollection_3">
    <path d="M 281.611101 295.488 
L 275.519333 295.488 
L 274.956633 293.475594 
L 274.324927 291.463187 
L 273.617043 289.450781 
L 272.825673 287.438374 
L 271.944109 285.425968 
L 270.967199 283.413561 
L 269.892497 281.401155 
L 268.721444 279.388749 
L 267.460258 277.376342 
L 266.120197 275.363936 
L 264.716954 273.351529 
L 263.269285 271.339123 
L 261.797276 269.326717 
L 260.320848 267.31431 
L 258.858992 265.301904 
L 257.429801 263.289497 
L 256.050902 261.277091 
L 254.739595 259.264684 
L 253.512106 257.252278 
L 252.381858 255.239872 
L 251.357266 253.227465 
L 250.439983 251.215059 
L 249.624411 249.202652 
L 248.898861 247.190246 
L 248.24803 245.17784 
L 247.656057 243.165433 
L 247.109343 241.153027 
L 246.598653 239.14062 
L 246.120419 237.128214 
L 245.677359 235.115807 
L 245.278438 233.103401 
L 244.938001 231.090995 
L 244.673801 229.078588 
L 244.503928 227.066182 
L 244.443135 225.053775 
L 244.499548 223.041369 
L 244.672792 221.028963 
L 244.954171 219.016556 
L 245.328772 217.00415 
L 245.778647 214.991743 
L 246.286006 212.979337 
L 246.83556 210.96693 
L 247.415748 208.954524 
L 248.019067 206.942118 
L 248.641929 204.929711 
L 249.284252 202.917305 
L 249.948775 200.904898 
L 250.639892 198.892492 
L 251.362024 196.880086 
L 252.117839 194.867679 
L 252.906936 192.855273 
L 253.725504 190.842866 
L 254.567151 188.83046 
L 255.424594 186.818053 
L 256.291581 184.805647 
L 257.164423 182.793241 
L 258.0428 180.780834 
L 258.92982 178.768428 
L 259.831515 176.756021 
L 260.755915 174.743615 
L 261.711668 172.731209 
L 262.706145 170.718802 
L 263.743066 168.706396 
L 264.820025 166.693989 
L 265.92661 164.681583 
L 267.043872 162.669176 
L 268.145637 160.65677 
L 269.201636 158.644364 
L 270.181852 156.631957 
L 271.061076 154.619551 
L 271.822641 152.607144 
L 272.460551 150.594738 
L 272.979679 148.582332 
L 273.394186 146.569925 
L 273.724649 144.557519 
L 273.994575 142.545112 
L 274.22697 140.532706 
L 274.441553 138.520299 
L 274.652959 136.507893 
L 274.870098 134.495487 
L 275.096549 132.48308 
L 275.331688 130.470674 
L 275.572146 128.458267 
L 275.813212 126.445861 
L 276.049911 124.433455 
L 276.277659 122.421048 
L 276.492562 120.408642 
L 276.691492 118.396235 
L 276.87212 116.383829 
L 277.032964 114.371422 
L 277.173504 112.359016 
L 277.294298 110.34661 
L 277.397034 108.334203 
L 277.48447 106.321797 
L 277.560215 104.30939 
L 277.628369 102.296984 
L 277.693053 100.284578 
L 277.757898 98.272171 
L 277.825581 96.259765 
L 279.304853 96.259765 
L 279.304853 96.259765 
L 279.372535 98.272171 
L 279.437381 100.284578 
L 279.502065 102.296984 
L 279.570219 104.30939 
L 279.645964 106.321797 
L 279.7334 108.334203 
L 279.836136 110.34661 
L 279.956929 112.359016 
L 280.09747 114.371422 
L 280.258314 116.383829 
L 280.438941 118.396235 
L 280.637872 120.408642 
L 280.852774 122.421048 
L 281.080523 124.433455 
L 281.317222 126.445861 
L 281.558288 128.458267 
L 281.798745 130.470674 
L 282.033885 132.48308 
L 282.260336 134.495487 
L 282.477475 136.507893 
L 282.688881 138.520299 
L 282.903463 140.532706 
L 283.135859 142.545112 
L 283.405784 144.557519 
L 283.736247 146.569925 
L 284.150754 148.582332 
L 284.669883 150.594738 
L 285.307793 152.607144 
L 286.069358 154.619551 
L 286.948582 156.631957 
L 287.928798 158.644364 
L 288.984797 160.65677 
L 290.086561 162.669176 
L 291.203824 164.681583 
L 292.310409 166.693989 
L 293.387368 168.706396 
L 294.424289 170.718802 
L 295.418766 172.731209 
L 296.374519 174.743615 
L 297.298918 176.756021 
L 298.200614 178.768428 
L 299.087634 180.780834 
L 299.966011 182.793241 
L 300.838853 184.805647 
L 301.705839 186.818053 
L 302.563283 188.83046 
L 303.40493 190.842866 
L 304.223498 192.855273 
L 305.012595 194.867679 
L 305.76841 196.880086 
L 306.490542 198.892492 
L 307.181659 200.904898 
L 307.846182 202.917305 
L 308.488505 204.929711 
L 309.111366 206.942118 
L 309.714686 208.954524 
L 310.294873 210.96693 
L 310.844427 212.979337 
L 311.351787 214.991743 
L 311.801662 217.00415 
L 312.176263 219.016556 
L 312.457642 221.028963 
L 312.630885 223.041369 
L 312.687299 225.053775 
L 312.626506 227.066182 
L 312.456633 229.078588 
L 312.192433 231.090995 
L 311.851995 233.103401 
L 311.453074 235.115807 
L 311.010014 237.128214 
L 310.531781 239.14062 
L 310.021091 241.153027 
L 309.474377 243.165433 
L 308.882404 245.17784 
L 308.231573 247.190246 
L 307.506023 249.202652 
L 306.690451 251.215059 
L 305.773167 253.227465 
L 304.748576 255.239872 
L 303.618328 257.252278 
L 302.390839 259.264684 
L 301.079532 261.277091 
L 299.700633 263.289497 
L 298.271442 265.301904 
L 296.809586 267.31431 
L 295.333158 269.326717 
L 293.861149 271.339123 
L 292.41348 273.351529 
L 291.010237 275.363936 
L 289.670176 277.376342 
L 288.40899 279.388749 
L 287.237937 281.401155 
L 286.163235 283.413561 
L 285.186325 285.425968 
L 284.304761 287.438374 
L 283.513391 289.450781 
L 282.805507 291.463187 
L 282.173801 293.475594 
L 281.611101 295.488 
z
" clip-path="url(#p7fa78e0d35)" style="fill: #1f77b4; fill-opacity: 0.3"/>
   </g>
   <g id="PolyCollection_4">
    <path d="M 366.412705 295.488 
L 361.328137 295.488 
L 360.704133 293.188107 
L 359.990404 290.888214 
L 359.189074 288.588321 
L 358.305011 286.288428 
L 357.345257 283.988535 
L 356.318589 281.688642 
L 355.235383 279.388749 
L 354.10758 277.088856 
L 352.948199 274.788963 
L 351.769887 272.48907 
L 350.582408 270.189176 
L 349.389696 267.889283 
L 348.187584 265.58939 
L 346.96335 263.289497 
L 345.697701 260.989604 
L 344.36909 258.689711 
L 342.959622 256.389818 
L 341.461492 254.089925 
L 339.882727 251.790032 
L 338.250882 249.490139 
L 336.613267 247.190246 
L 335.032678 244.890353 
L 333.578647 242.59046 
L 332.315885 240.290567 
L 331.293013 237.990674 
L 330.534982 235.690781 
L 330.041409 233.390888 
L 329.790777 231.090995 
L 329.748339 228.791102 
L 329.874688 226.491209 
L 330.132547 224.191316 
L 330.490826 221.891422 
L 330.926206 219.591529 
L 331.422948 217.291636 
L 331.971371 214.991743 
L 332.565174 212.69185 
L 333.198011 210.391957 
L 333.860255 208.092064 
L 334.537254 205.792171 
L 335.210003 203.492278 
L 335.85824 201.192385 
L 336.464978 198.892492 
L 337.021038 196.592599 
L 337.528342 194.292706 
L 338.001206 191.992813 
L 338.46534 189.69292 
L 338.954496 187.393027 
L 339.505079 185.093134 
L 340.149554 182.793241 
L 340.910177 180.493348 
L 341.79482 178.193455 
L 342.796119 175.893561 
L 343.894001 173.593668 
L 345.060345 171.293775 
L 346.263917 168.993882 
L 347.474072 166.693989 
L 348.662766 164.394096 
L 349.805387 162.094203 
L 350.881362 159.79431 
L 351.875199 157.494417 
L 352.777958 155.194524 
L 353.588653 152.894631 
L 354.314888 150.594738 
L 354.972252 148.294845 
L 355.582285 145.994952 
L 356.169204 143.695059 
L 356.755834 141.395166 
L 357.359499 139.095273 
L 357.98878 136.79538 
L 358.642023 134.495487 
L 359.308065 132.195594 
L 359.969006 129.895701 
L 360.604238 127.595807 
L 361.194531 125.295914 
L 361.725133 122.996021 
L 362.18728 120.696128 
L 362.578136 118.396235 
L 362.89965 116.096342 
L 363.156966 113.796449 
L 363.356926 111.496556 
L 363.506941 109.196663 
L 363.614261 106.89677 
L 363.685576 104.596877 
L 363.726814 102.296984 
L 363.74309 99.997091 
L 363.738751 97.697198 
L 363.71751 95.397305 
L 363.682636 93.097412 
L 363.637135 90.797519 
L 363.583909 88.497626 
L 363.525867 86.197733 
L 363.466008 83.89784 
L 363.407495 81.597947 
L 363.353716 79.298053 
L 363.308276 76.99816 
L 363.274858 74.698267 
L 363.256871 72.398374 
L 363.256926 70.098481 
L 363.276244 67.798588 
L 364.464598 67.798588 
L 364.464598 67.798588 
L 364.483916 70.098481 
L 364.483971 72.398374 
L 364.465984 74.698267 
L 364.432566 76.99816 
L 364.387126 79.298053 
L 364.333347 81.597947 
L 364.274834 83.89784 
L 364.214975 86.197733 
L 364.156933 88.497626 
L 364.103707 90.797519 
L 364.058206 93.097412 
L 364.023331 95.397305 
L 364.002091 97.697198 
L 363.997752 99.997091 
L 364.014027 102.296984 
L 364.055266 104.596877 
L 364.126581 106.89677 
L 364.233901 109.196663 
L 364.383915 111.496556 
L 364.583876 113.796449 
L 364.841192 116.096342 
L 365.162706 118.396235 
L 365.553562 120.696128 
L 366.015709 122.996021 
L 366.546311 125.295914 
L 367.136604 127.595807 
L 367.771836 129.895701 
L 368.432777 132.195594 
L 369.098819 134.495487 
L 369.752062 136.79538 
L 370.381343 139.095273 
L 370.985008 141.395166 
L 371.571638 143.695059 
L 372.158557 145.994952 
L 372.76859 148.294845 
L 373.425953 150.594738 
L 374.152189 152.894631 
L 374.962884 155.194524 
L 375.865643 157.494417 
L 376.85948 159.79431 
L 377.935455 162.094203 
L 379.078076 164.394096 
L 380.26677 166.693989 
L 381.476925 168.993882 
L 382.680497 171.293775 
L 383.846841 173.593668 
L 384.944723 175.893561 
L 385.946021 178.193455 
L 386.830665 180.493348 
L 387.591288 182.793241 
L 388.235763 185.093134 
L 388.786346 187.393027 
L 389.275502 189.69292 
L 389.739635 191.992813 
L 390.2125 194.292706 
L 390.719804 196.592599 
L 391.275864 198.892492 
L 391.882602 201.192385 
L 392.530838 203.492278 
L 393.203587 205.792171 
L 393.880587 208.092064 
L 394.542831 210.391957 
L 395.175668 212.69185 
L 395.769471 214.991743 
L 396.317894 217.291636 
L 396.814636 219.591529 
L 397.250016 221.891422 
L 397.608295 224.191316 
L 397.866154 226.491209 
L 397.992503 228.791102 
L 397.950065 231.090995 
L 397.699433 233.390888 
L 397.20586 235.690781 
L 396.447829 237.990674 
L 395.424956 240.290567 
L 394.162195 242.59046 
L 392.708163 244.890353 
L 391.127575 247.190246 
L 389.48996 249.490139 
L 387.858115 251.790032 
L 386.27935 254.089925 
L 384.78122 256.389818 
L 383.371752 258.689711 
L 382.043141 260.989604 
L 380.777492 263.289497 
L 379.553258 265.58939 
L 378.351146 267.889283 
L 377.158434 270.189176 
L 375.970955 272.48907 
L 374.792643 274.788963 
L 373.633262 277.088856 
L 372.505459 279.388749 
L 371.422253 281.688642 
L 370.395585 283.988535 
L 369.435831 286.288428 
L 368.551768 288.588321 
L 367.750438 290.888214 
L 367.036709 293.188107 
L 366.412705 295.488 
z
" clip-path="url(#p7fa78e0d35)" style="fill: #1f77b4; fill-opacity: 0.3"/>
   </g>
   <g id="PolyCollection_5">
    <path d="M 367.663177 295.488 
L 361.067205 295.488 
L 360.479677 293.33185 
L 359.839766 291.175701 
L 359.148328 289.019551 
L 358.405973 286.863401 
L 357.612711 284.707251 
L 356.767653 282.551102 
L 355.868913 280.394952 
L 354.913834 278.238802 
L 353.899582 276.082652 
L 352.824098 273.926503 
L 351.687298 271.770353 
L 350.492379 269.614203 
L 349.246992 267.458053 
L 347.964009 265.301904 
L 346.661525 263.145754 
L 345.361819 260.989604 
L 344.08916 258.833455 
L 342.866668 256.677305 
L 341.712802 254.521155 
L 340.638286 252.365005 
L 339.644336 250.208856 
L 338.722744 248.052706 
L 337.857936 245.896556 
L 337.030636 243.740406 
L 336.222345 241.584257 
L 335.419753 239.428107 
L 334.618178 237.271957 
L 333.823384 235.115807 
L 333.051371 232.959658 
L 332.32612 230.803508 
L 331.675647 228.647358 
L 331.127143 226.491209 
L 330.702261 224.335059 
L 330.413596 222.178909 
L 330.263166 220.022759 
L 330.24311 217.86661 
L 330.338254 215.71046 
L 330.529749 213.55431 
L 330.79885 211.39816 
L 331.130061 209.242011 
L 331.513177 207.085861 
L 331.944069 204.929711 
L 332.424263 202.773561 
L 332.959526 200.617412 
L 333.557775 198.461262 
L 334.226721 196.305112 
L 334.971716 194.148963 
L 335.794203 191.992813 
L 336.690966 189.836663 
L 337.654116 187.680513 
L 338.671529 185.524364 
L 339.727438 183.368214 
L 340.803002 181.212064 
L 341.876925 179.055914 
L 342.926385 176.899765 
L 343.928499 174.743615 
L 344.862389 172.587465 
L 345.711633 170.431316 
L 346.466658 168.275166 
L 347.126513 166.119016 
L 347.69957 163.962866 
L 348.20289 161.806717 
L 348.660261 159.650567 
L 349.09923 157.494417 
L 349.547625 155.338267 
L 350.030208 153.182118 
L 350.566031 151.025968 
L 351.166886 148.869818 
L 351.836935 146.713668 
L 352.57329 144.557519 
L 353.367168 142.401369 
L 354.205176 140.245219 
L 355.0705 138.08907 
L 355.943958 135.93292 
L 356.805079 133.77677 
L 357.633384 131.62062 
L 358.409948 129.464471 
L 359.119134 127.308321 
L 359.75017 125.152171 
L 360.298245 122.996021 
L 360.764796 120.839872 
L 361.156895 118.683722 
L 361.485819 116.527572 
L 361.765093 114.371422 
L 362.008385 112.215273 
L 362.227644 110.059123 
L 362.431793 107.902973 
L 362.626148 105.746824 
L 362.81257 103.590674 
L 362.99021 101.434524 
L 363.156609 99.278374 
L 363.308883 97.122225 
L 363.444718 94.966075 
L 363.563038 92.809925 
L 363.664241 90.653775 
L 363.750073 88.497626 
L 363.82321 86.341476 
L 363.886712 84.185326 
L 363.943482 82.029176 
L 364.7869 82.029176 
L 364.7869 82.029176 
L 364.84367 84.185326 
L 364.907172 86.341476 
L 364.980309 88.497626 
L 365.066141 90.653775 
L 365.167345 92.809925 
L 365.285664 94.966075 
L 365.421499 97.122225 
L 365.573773 99.278374 
L 365.740172 101.434524 
L 365.917812 103.590674 
L 366.104234 105.746824 
L 366.29859 107.902973 
L 366.502739 110.059123 
L 366.721997 112.215273 
L 366.965289 114.371422 
L 367.244563 116.527572 
L 367.573487 118.683722 
L 367.965586 120.839872 
L 368.432137 122.996021 
L 368.980212 125.152171 
L 369.611249 127.308321 
L 370.320434 129.464471 
L 371.096999 131.62062 
L 371.925303 133.77677 
L 372.786424 135.93292 
L 373.659883 138.08907 
L 374.525206 140.245219 
L 375.363214 142.401369 
L 376.157092 144.557519 
L 376.893448 146.713668 
L 377.563496 148.869818 
L 378.164351 151.025968 
L 378.700174 153.182118 
L 379.182757 155.338267 
L 379.631152 157.494417 
L 380.070122 159.650567 
L 380.527493 161.806717 
L 381.030812 163.962866 
L 381.603869 166.119016 
L 382.263724 168.275166 
L 383.018749 170.431316 
L 383.867993 172.587465 
L 384.801883 174.743615 
L 385.803997 176.899765 
L 386.853458 179.055914 
L 387.927381 181.212064 
L 389.002944 183.368214 
L 390.058853 185.524364 
L 391.076267 187.680513 
L 392.039416 189.836663 
L 392.936179 191.992813 
L 393.758666 194.148963 
L 394.503662 196.305112 
L 395.172608 198.461262 
L 395.770857 200.617412 
L 396.306119 202.773561 
L 396.786313 204.929711 
L 397.217205 207.085861 
L 397.600321 209.242011 
L 397.931532 211.39816 
L 398.200633 213.55431 
L 398.392128 215.71046 
L 398.487273 217.86661 
L 398.467217 220.022759 
L 398.316787 222.178909 
L 398.028121 224.335059 
L 397.603239 226.491209 
L 397.054735 228.647358 
L 396.404262 230.803508 
L 395.679011 232.959658 
L 394.906999 235.115807 
L 394.112204 237.271957 
L 393.310629 239.428107 
L 392.508037 241.584257 
L 391.699747 243.740406 
L 390.872446 245.896556 
L 390.007639 248.052706 
L 389.086046 250.208856 
L 388.092097 252.365005 
L 387.017581 254.521155 
L 385.863714 256.677305 
L 384.641222 258.833455 
L 383.368563 260.989604 
L 382.068857 263.145754 
L 380.766373 265.301904 
L 379.48339 267.458053 
L 378.238004 269.614203 
L 377.043084 271.770353 
L 375.906285 273.926503 
L 374.830801 276.082652 
L 373.816549 278.238802 
L 372.861469 280.394952 
L 371.962729 282.551102 
L 371.117671 284.707251 
L 370.324409 286.863401 
L 369.582054 289.019551 
L 368.890616 291.175701 
L 368.250705 293.33185 
L 367.663177 295.488 
z
" clip-path="url(#p7fa78e0d35)" style="fill: #1f77b4; fill-opacity: 0.3"/>
   </g>
   <g id="matplotlib.axis_1">
    <g id="xtick_1">
     <g id="line2d_1">
      <path d="M 65.302207 307.584 
L 65.302207 41.472 
" clip-path="url(#p7fa78e0d35)" style="fill: none; stroke-dasharray: 2.96,1.28; stroke-dashoffset: 0; stroke: #b0b0b0; stroke-width: 0.8"/>
     </g>
     <g id="line2d_2">
      <defs>
       <path id="m32435742cc" d="M 0 0 
L 0 3.5 
" style="stroke: #000000; stroke-width: 0.8"/>
      </defs>
      <g>
       <use xlink:href="#m32435742cc" x="65.302207" y="307.584" style="stroke: #000000; stroke-width: 0.8"/>
      </g>
     </g>
     <g id="text_1">
      <!-- 2500 -->
      <g transform="translate(52.577207 322.182437)scale(0.1 -0.1)">
       <defs>
        <path id="DejaVuSans-32" d="M 1228 531 
L 3431 531 
L 3431 0 
L 469 0 
L 469 531 
Q 828 903 1448 1529 
Q 2069 2156 2228 2338 
Q 2531 2678 2651 2914 
Q 2772 3150 2772 3378 
Q 2772 3750 2511 3984 
Q 2250 4219 1831 4219 
Q 1534 4219 1204 4116 
Q 875 4013 500 3803 
L 500 4441 
Q 881 4594 1212 4672 
Q 1544 4750 1819 4750 
Q 2544 4750 2975 4387 
Q 3406 4025 3406 3419 
Q 3406 3131 3298 2873 
Q 3191 2616 2906 2266 
Q 2828 2175 2409 1742 
Q 1991 1309 1228 531 
z
" transform="scale(0.015625)"/>
        <path id="DejaVuSans-35" d="M 691 4666 
L 3169 4666 
L 3169 4134 
L 1269 4134 
L 1269 2991 
Q 1406 3038 1543 3061 
Q 1681 3084 1819 3084 
Q 2600 3084 3056 2656 
Q 3513 2228 3513 1497 
Q 3513 744 3044 326 
Q 2575 -91 1722 -91 
Q 1428 -91 1123 -41 
Q 819 9 494 109 
L 494 744 
Q 775 591 1075 516 
Q 1375 441 1709 441 
Q 2250 441 2565 725 
Q 2881 1009 2881 1497 
Q 2881 1984 2565 2268 
Q 2250 2553 1709 2553 
Q 1456 2553 1204 2497 
Q 953 2441 691 2322 
L 691 4666 
z
" transform="scale(0.015625)"/>
        <path id="DejaVuSans-30" d="M 2034 4250 
Q 1547 4250 1301 3770 
Q 1056 3291 1056 2328 
Q 1056 1369 1301 889 
Q 1547 409 2034 409 
Q 2525 409 2770 889 
Q 3016 1369 3016 2328 
Q 3016 3291 2770 3770 
Q 2525 4250 2034 4250 
z
M 2034 4750 
Q 2819 4750 3233 4129 
Q 3647 3509 3647 2328 
Q 3647 1150 3233 529 
Q 2819 -91 2034 -91 
Q 1250 -91 836 529 
Q 422 1150 422 2328 
Q 422 3509 836 4129 
Q 1250 4750 2034 4750 
z
" transform="scale(0.015625)"/>
       </defs>
       <use xlink:href="#DejaVuSans-32"/>
       <use xlink:href="#DejaVuSans-35" x="63.623047"/>
       <use xlink:href="#DejaVuSans-30" x="127.246094"/>
       <use xlink:href="#DejaVuSans-30" x="190.869141"/>
      </g>
     </g>
    </g>
    <g id="xtick_2">
     <g id="line2d_3">
      <path d="M 107.954809 307.584 
L 107.954809 41.472 
" clip-path="url(#p7fa78e0d35)" style="fill: none; stroke-dasharray: 2.96,1.28; stroke-dashoffset: 0; stroke: #b0b0b0; stroke-width: 0.8"/>
     </g>
     <g id="line2d_4">
      <g>
       <use xlink:href="#m32435742cc" x="107.954809" y="307.584" style="stroke: #000000; stroke-width: 0.8"/>
      </g>
     </g>
     <g id="text_2">
      <!-- 5000 -->
      <g transform="translate(95.229809 322.182437)scale(0.1 -0.1)">
       <use xlink:href="#DejaVuSans-35"/>
       <use xlink:href="#DejaVuSans-30" x="63.623047"/>
       <use xlink:href="#DejaVuSans-30" x="127.246094"/>
       <use xlink:href="#DejaVuSans-30" x="190.869141"/>
      </g>
     </g>
    </g>
    <g id="xtick_3">
     <g id="line2d_5">
      <path d="M 150.607411 307.584 
L 150.607411 41.472 
" clip-path="url(#p7fa78e0d35)" style="fill: none; stroke-dasharray: 2.96,1.28; stroke-dashoffset: 0; stroke: #b0b0b0; stroke-width: 0.8"/>
     </g>
     <g id="line2d_6">
      <g>
       <use xlink:href="#m32435742cc" x="150.607411" y="307.584" style="stroke: #000000; stroke-width: 0.8"/>
      </g>
     </g>
     <g id="text_3">
      <!-- 7500 -->
      <g transform="translate(137.882411 322.182437)scale(0.1 -0.1)">
       <defs>
        <path id="DejaVuSans-37" d="M 525 4666 
L 3525 4666 
L 3525 4397 
L 1831 0 
L 1172 0 
L 2766 4134 
L 525 4134 
L 525 4666 
z
" transform="scale(0.015625)"/>
       </defs>
       <use xlink:href="#DejaVuSans-37"/>
       <use xlink:href="#DejaVuSans-35" x="63.623047"/>
       <use xlink:href="#DejaVuSans-30" x="127.246094"/>
       <use xlink:href="#DejaVuSans-30" x="190.869141"/>
      </g>
     </g>
    </g>
    <g id="xtick_4">
     <g id="line2d_7">
      <path d="M 193.260013 307.584 
L 193.260013 41.472 
" clip-path="url(#p7fa78e0d35)" style="fill: none; stroke-dasharray: 2.96,1.28; stroke-dashoffset: 0; stroke: #b0b0b0; stroke-width: 0.8"/>
     </g>
     <g id="line2d_8">
      <g>
       <use xlink:href="#m32435742cc" x="193.260013" y="307.584" style="stroke: #000000; stroke-width: 0.8"/>
      </g>
     </g>
     <g id="text_4">
      <!-- 10000 -->
      <g transform="translate(177.353763 322.182437)scale(0.1 -0.1)">
       <defs>
        <path id="DejaVuSans-31" d="M 794 531 
L 1825 531 
L 1825 4091 
L 703 3866 
L 703 4441 
L 1819 4666 
L 2450 4666 
L 2450 531 
L 3481 531 
L 3481 0 
L 794 0 
L 794 531 
z
" transform="scale(0.015625)"/>
       </defs>
       <use xlink:href="#DejaVuSans-31"/>
       <use xlink:href="#DejaVuSans-30" x="63.623047"/>
       <use xlink:href="#DejaVuSans-30" x="127.246094"/>
       <use xlink:href="#DejaVuSans-30" x="190.869141"/>
       <use xlink:href="#DejaVuSans-30" x="254.492188"/>
      </g>
     </g>
    </g>
    <g id="xtick_5">
     <g id="line2d_9">
      <path d="M 235.912615 307.584 
L 235.912615 41.472 
" clip-path="url(#p7fa78e0d35)" style="fill: none; stroke-dasharray: 2.96,1.28; stroke-dashoffset: 0; stroke: #b0b0b0; stroke-width: 0.8"/>
     </g>
     <g id="line2d_10">
      <g>
       <use xlink:href="#m32435742cc" x="235.912615" y="307.584" style="stroke: #000000; stroke-width: 0.8"/>
      </g>
     </g>
     <g id="text_5">
      <!-- 12500 -->
      <g transform="translate(220.006365 322.182437)scale(0.1 -0.1)">
       <use xlink:href="#DejaVuSans-31"/>
       <use xlink:href="#DejaVuSans-32" x="63.623047"/>
       <use xlink:href="#DejaVuSans-35" x="127.246094"/>
       <use xlink:href="#DejaVuSans-30" x="190.869141"/>
       <use xlink:href="#DejaVuSans-30" x="254.492188"/>
      </g>
     </g>
    </g>
    <g id="xtick_6">
     <g id="line2d_11">
      <path d="M 278.565217 307.584 
L 278.565217 41.472 
" clip-path="url(#p7fa78e0d35)" style="fill: none; stroke-dasharray: 2.96,1.28; stroke-dashoffset: 0; stroke: #b0b0b0; stroke-width: 0.8"/>
     </g>
     <g id="line2d_12">
      <g>
       <use xlink:href="#m32435742cc" x="278.565217" y="307.584" style="stroke: #000000; stroke-width: 0.8"/>
      </g>
     </g>
     <g id="text_6">
      <!-- 15000 -->
      <g transform="translate(262.658967 322.182437)scale(0.1 -0.1)">
       <use xlink:href="#DejaVuSans-31"/>
       <use xlink:href="#DejaVuSans-35" x="63.623047"/>
       <use xlink:href="#DejaVuSans-30" x="127.246094"/>
       <use xlink:href="#DejaVuSans-30" x="190.869141"/>
       <use xlink:href="#DejaVuSans-30" x="254.492188"/>
      </g>
     </g>
    </g>
    <g id="xtick_7">
     <g id="line2d_13">
      <path d="M 321.217819 307.584 
L 321.217819 41.472 
" clip-path="url(#p7fa78e0d35)" style="fill: none; stroke-dasharray: 2.96,1.28; stroke-dashoffset: 0; stroke: #b0b0b0; stroke-width: 0.8"/>
     </g>
     <g id="line2d_14">
      <g>
       <use xlink:href="#m32435742cc" x="321.217819" y="307.584" style="stroke: #000000; stroke-width: 0.8"/>
      </g>
     </g>
     <g id="text_7">
      <!-- 17500 -->
      <g transform="translate(305.311569 322.182437)scale(0.1 -0.1)">
       <use xlink:href="#DejaVuSans-31"/>
       <use xlink:href="#DejaVuSans-37" x="63.623047"/>
       <use xlink:href="#DejaVuSans-35" x="127.246094"/>
       <use xlink:href="#DejaVuSans-30" x="190.869141"/>
       <use xlink:href="#DejaVuSans-30" x="254.492188"/>
      </g>
     </g>
    </g>
    <g id="xtick_8">
     <g id="line2d_15">
      <path d="M 363.870421 307.584 
L 363.870421 41.472 
" clip-path="url(#p7fa78e0d35)" style="fill: none; stroke-dasharray: 2.96,1.28; stroke-dashoffset: 0; stroke: #b0b0b0; stroke-width: 0.8"/>
     </g>
     <g id="line2d_16">
      <g>
       <use xlink:href="#m32435742cc" x="363.870421" y="307.584" style="stroke: #000000; stroke-width: 0.8"/>
      </g>
     </g>
     <g id="text_8">
      <!-- 20000 -->
      <g transform="translate(347.964171 322.182437)scale(0.1 -0.1)">
       <use xlink:href="#DejaVuSans-32"/>
       <use xlink:href="#DejaVuSans-30" x="63.623047"/>
       <use xlink:href="#DejaVuSans-30" x="127.246094"/>
       <use xlink:href="#DejaVuSans-30" x="190.869141"/>
       <use xlink:href="#DejaVuSans-30" x="254.492188"/>
      </g>
     </g>
    </g>
    <g id="xtick_9">
     <g id="line2d_17">
      <path d="M 406.523023 307.584 
L 406.523023 41.472 
" clip-path="url(#p7fa78e0d35)" style="fill: none; stroke-dasharray: 2.96,1.28; stroke-dashoffset: 0; stroke: #b0b0b0; stroke-width: 0.8"/>
     </g>
     <g id="line2d_18">
      <g>
       <use xlink:href="#m32435742cc" x="406.523023" y="307.584" style="stroke: #000000; stroke-width: 0.8"/>
      </g>
     </g>
     <g id="text_9">
      <!-- 22500 -->
      <g transform="translate(390.616773 322.182437)scale(0.1 -0.1)">
       <use xlink:href="#DejaVuSans-32"/>
       <use xlink:href="#DejaVuSans-32" x="63.623047"/>
       <use xlink:href="#DejaVuSans-35" x="127.246094"/>
       <use xlink:href="#DejaVuSans-30" x="190.869141"/>
       <use xlink:href="#DejaVuSans-30" x="254.492188"/>
      </g>
     </g>
    </g>
    <g id="text_10">
     <!-- Learned Episodes -->
     <g transform="translate(192.102187 335.860562)scale(0.1 -0.1)">
      <defs>
       <path id="DejaVuSans-4c" d="M 628 4666 
L 1259 4666 
L 1259 531 
L 3531 531 
L 3531 0 
L 628 0 
L 628 4666 
z
" transform="scale(0.015625)"/>
       <path id="DejaVuSans-65" d="M 3597 1894 
L 3597 1613 
L 953 1613 
Q 991 1019 1311 708 
Q 1631 397 2203 397 
Q 2534 397 2845 478 
Q 3156 559 3463 722 
L 3463 178 
Q 3153 47 2828 -22 
Q 2503 -91 2169 -91 
Q 1331 -91 842 396 
Q 353 884 353 1716 
Q 353 2575 817 3079 
Q 1281 3584 2069 3584 
Q 2775 3584 3186 3129 
Q 3597 2675 3597 1894 
z
M 3022 2063 
Q 3016 2534 2758 2815 
Q 2500 3097 2075 3097 
Q 1594 3097 1305 2825 
Q 1016 2553 972 2059 
L 3022 2063 
z
" transform="scale(0.015625)"/>
       <path id="DejaVuSans-61" d="M 2194 1759 
Q 1497 1759 1228 1600 
Q 959 1441 959 1056 
Q 959 750 1161 570 
Q 1363 391 1709 391 
Q 2188 391 2477 730 
Q 2766 1069 2766 1631 
L 2766 1759 
L 2194 1759 
z
M 3341 1997 
L 3341 0 
L 2766 0 
L 2766 531 
Q 2569 213 2275 61 
Q 1981 -91 1556 -91 
Q 1019 -91 701 211 
Q 384 513 384 1019 
Q 384 1609 779 1909 
Q 1175 2209 1959 2209 
L 2766 2209 
L 2766 2266 
Q 2766 2663 2505 2880 
Q 2244 3097 1772 3097 
Q 1472 3097 1187 3025 
Q 903 2953 641 2809 
L 641 3341 
Q 956 3463 1253 3523 
Q 1550 3584 1831 3584 
Q 2591 3584 2966 3190 
Q 3341 2797 3341 1997 
z
" transform="scale(0.015625)"/>
       <path id="DejaVuSans-72" d="M 2631 2963 
Q 2534 3019 2420 3045 
Q 2306 3072 2169 3072 
Q 1681 3072 1420 2755 
Q 1159 2438 1159 1844 
L 1159 0 
L 581 0 
L 581 3500 
L 1159 3500 
L 1159 2956 
Q 1341 3275 1631 3429 
Q 1922 3584 2338 3584 
Q 2397 3584 2469 3576 
Q 2541 3569 2628 3553 
L 2631 2963 
z
" transform="scale(0.015625)"/>
       <path id="DejaVuSans-6e" d="M 3513 2113 
L 3513 0 
L 2938 0 
L 2938 2094 
Q 2938 2591 2744 2837 
Q 2550 3084 2163 3084 
Q 1697 3084 1428 2787 
Q 1159 2491 1159 1978 
L 1159 0 
L 581 0 
L 581 3500 
L 1159 3500 
L 1159 2956 
Q 1366 3272 1645 3428 
Q 1925 3584 2291 3584 
Q 2894 3584 3203 3211 
Q 3513 2838 3513 2113 
z
" transform="scale(0.015625)"/>
       <path id="DejaVuSans-64" d="M 2906 2969 
L 2906 4863 
L 3481 4863 
L 3481 0 
L 2906 0 
L 2906 525 
Q 2725 213 2448 61 
Q 2172 -91 1784 -91 
Q 1150 -91 751 415 
Q 353 922 353 1747 
Q 353 2572 751 3078 
Q 1150 3584 1784 3584 
Q 2172 3584 2448 3432 
Q 2725 3281 2906 2969 
z
M 947 1747 
Q 947 1113 1208 752 
Q 1469 391 1925 391 
Q 2381 391 2643 752 
Q 2906 1113 2906 1747 
Q 2906 2381 2643 2742 
Q 2381 3103 1925 3103 
Q 1469 3103 1208 2742 
Q 947 2381 947 1747 
z
" transform="scale(0.015625)"/>
       <path id="DejaVuSans-20" transform="scale(0.015625)"/>
       <path id="DejaVuSans-45" d="M 628 4666 
L 3578 4666 
L 3578 4134 
L 1259 4134 
L 1259 2753 
L 3481 2753 
L 3481 2222 
L 1259 2222 
L 1259 531 
L 3634 531 
L 3634 0 
L 628 0 
L 628 4666 
z
" transform="scale(0.015625)"/>
       <path id="DejaVuSans-70" d="M 1159 525 
L 1159 -1331 
L 581 -1331 
L 581 3500 
L 1159 3500 
L 1159 2969 
Q 1341 3281 1617 3432 
Q 1894 3584 2278 3584 
Q 2916 3584 3314 3078 
Q 3713 2572 3713 1747 
Q 3713 922 3314 415 
Q 2916 -91 2278 -91 
Q 1894 -91 1617 61 
Q 1341 213 1159 525 
z
M 3116 1747 
Q 3116 2381 2855 2742 
Q 2594 3103 2138 3103 
Q 1681 3103 1420 2742 
Q 1159 2381 1159 1747 
Q 1159 1113 1420 752 
Q 1681 391 2138 391 
Q 2594 391 2855 752 
Q 3116 1113 3116 1747 
z
" transform="scale(0.015625)"/>
       <path id="DejaVuSans-69" d="M 603 3500 
L 1178 3500 
L 1178 0 
L 603 0 
L 603 3500 
z
M 603 4863 
L 1178 4863 
L 1178 4134 
L 603 4134 
L 603 4863 
z
" transform="scale(0.015625)"/>
       <path id="DejaVuSans-73" d="M 2834 3397 
L 2834 2853 
Q 2591 2978 2328 3040 
Q 2066 3103 1784 3103 
Q 1356 3103 1142 2972 
Q 928 2841 928 2578 
Q 928 2378 1081 2264 
Q 1234 2150 1697 2047 
L 1894 2003 
Q 2506 1872 2764 1633 
Q 3022 1394 3022 966 
Q 3022 478 2636 193 
Q 2250 -91 1575 -91 
Q 1294 -91 989 -36 
Q 684 19 347 128 
L 347 722 
Q 666 556 975 473 
Q 1284 391 1588 391 
Q 1994 391 2212 530 
Q 2431 669 2431 922 
Q 2431 1156 2273 1281 
Q 2116 1406 1581 1522 
L 1381 1569 
Q 847 1681 609 1914 
Q 372 2147 372 2553 
Q 372 3047 722 3315 
Q 1072 3584 1716 3584 
Q 2034 3584 2315 3537 
Q 2597 3491 2834 3397 
z
" transform="scale(0.015625)"/>
       <path id="DejaVuSans-6f" d="M 1959 3097 
Q 1497 3097 1228 2736 
Q 959 2375 959 1747 
Q 959 1119 1226 758 
Q 1494 397 1959 397 
Q 2419 397 2687 759 
Q 2956 1122 2956 1747 
Q 2956 2369 2687 2733 
Q 2419 3097 1959 3097 
z
M 1959 3584 
Q 2709 3584 3137 3096 
Q 3566 2609 3566 1747 
Q 3566 888 3137 398 
Q 2709 -91 1959 -91 
Q 1206 -91 779 398 
Q 353 888 353 1747 
Q 353 2609 779 3096 
Q 1206 3584 1959 3584 
z
" transform="scale(0.015625)"/>
      </defs>
      <use xlink:href="#DejaVuSans-4c"/>
      <use xlink:href="#DejaVuSans-65" x="53.962891"/>
      <use xlink:href="#DejaVuSans-61" x="115.486328"/>
      <use xlink:href="#DejaVuSans-72" x="176.765625"/>
      <use xlink:href="#DejaVuSans-6e" x="216.128906"/>
      <use xlink:href="#DejaVuSans-65" x="279.507812"/>
      <use xlink:href="#DejaVuSans-64" x="341.03125"/>
      <use xlink:href="#DejaVuSans-20" x="404.507812"/>
      <use xlink:href="#DejaVuSans-45" x="436.294922"/>
      <use xlink:href="#DejaVuSans-70" x="499.478516"/>
      <use xlink:href="#DejaVuSans-69" x="562.955078"/>
      <use xlink:href="#DejaVuSans-73" x="590.738281"/>
      <use xlink:href="#DejaVuSans-6f" x="642.837891"/>
      <use xlink:href="#DejaVuSans-64" x="704.019531"/>
      <use xlink:href="#DejaVuSans-65" x="767.496094"/>
      <use xlink:href="#DejaVuSans-73" x="829.019531"/>
     </g>
    </g>
   </g>
   <g id="matplotlib.axis_2">
    <g id="ytick_1">
     <g id="line2d_19">
      <path d="M 57.6 295.488 
L 414.72 295.488 
" clip-path="url(#p7fa78e0d35)" style="fill: none; stroke-dasharray: 2.96,1.28; stroke-dashoffset: 0; stroke: #b0b0b0; stroke-width: 0.8"/>
     </g>
     <g id="line2d_20">
      <defs>
       <path id="mbc9fed7df0" d="M 0 0 
L -3.5 0 
" style="stroke: #000000; stroke-width: 0.8"/>
      </defs>
      <g>
       <use xlink:href="#mbc9fed7df0" x="57.6" y="295.488" style="stroke: #000000; stroke-width: 0.8"/>
      </g>
     </g>
     <g id="text_11">
      <!-- 0.0 -->
      <g transform="translate(34.696875 299.287219)scale(0.1 -0.1)">
       <defs>
        <path id="DejaVuSans-2e" d="M 684 794 
L 1344 794 
L 1344 0 
L 684 0 
L 684 794 
z
" transform="scale(0.015625)"/>
       </defs>
       <use xlink:href="#DejaVuSans-30"/>
       <use xlink:href="#DejaVuSans-2e" x="63.623047"/>
       <use xlink:href="#DejaVuSans-30" x="95.410156"/>
      </g>
     </g>
    </g>
    <g id="ytick_2">
     <g id="line2d_21">
      <path d="M 57.6 259.911529 
L 414.72 259.911529 
" clip-path="url(#p7fa78e0d35)" style="fill: none; stroke-dasharray: 2.96,1.28; stroke-dashoffset: 0; stroke: #b0b0b0; stroke-width: 0.8"/>
     </g>
     <g id="line2d_22">
      <g>
       <use xlink:href="#mbc9fed7df0" x="57.6" y="259.911529" style="stroke: #000000; stroke-width: 0.8"/>
      </g>
     </g>
     <g id="text_12">
      <!-- 2.5 -->
      <g transform="translate(34.696875 263.710748)scale(0.1 -0.1)">
       <use xlink:href="#DejaVuSans-32"/>
       <use xlink:href="#DejaVuSans-2e" x="63.623047"/>
       <use xlink:href="#DejaVuSans-35" x="95.410156"/>
      </g>
     </g>
    </g>
    <g id="ytick_3">
     <g id="line2d_23">
      <path d="M 57.6 224.335059 
L 414.72 224.335059 
" clip-path="url(#p7fa78e0d35)" style="fill: none; stroke-dasharray: 2.96,1.28; stroke-dashoffset: 0; stroke: #b0b0b0; stroke-width: 0.8"/>
     </g>
     <g id="line2d_24">
      <g>
       <use xlink:href="#mbc9fed7df0" x="57.6" y="224.335059" style="stroke: #000000; stroke-width: 0.8"/>
      </g>
     </g>
     <g id="text_13">
      <!-- 5.0 -->
      <g transform="translate(34.696875 228.134278)scale(0.1 -0.1)">
       <use xlink:href="#DejaVuSans-35"/>
       <use xlink:href="#DejaVuSans-2e" x="63.623047"/>
       <use xlink:href="#DejaVuSans-30" x="95.410156"/>
      </g>
     </g>
    </g>
    <g id="ytick_4">
     <g id="line2d_25">
      <path d="M 57.6 188.758588 
L 414.72 188.758588 
" clip-path="url(#p7fa78e0d35)" style="fill: none; stroke-dasharray: 2.96,1.28; stroke-dashoffset: 0; stroke: #b0b0b0; stroke-width: 0.8"/>
     </g>
     <g id="line2d_26">
      <g>
       <use xlink:href="#mbc9fed7df0" x="57.6" y="188.758588" style="stroke: #000000; stroke-width: 0.8"/>
      </g>
     </g>
     <g id="text_14">
      <!-- 7.5 -->
      <g transform="translate(34.696875 192.557807)scale(0.1 -0.1)">
       <use xlink:href="#DejaVuSans-37"/>
       <use xlink:href="#DejaVuSans-2e" x="63.623047"/>
       <use xlink:href="#DejaVuSans-35" x="95.410156"/>
      </g>
     </g>
    </g>
    <g id="ytick_5">
     <g id="line2d_27">
      <path d="M 57.6 153.182118 
L 414.72 153.182118 
" clip-path="url(#p7fa78e0d35)" style="fill: none; stroke-dasharray: 2.96,1.28; stroke-dashoffset: 0; stroke: #b0b0b0; stroke-width: 0.8"/>
     </g>
     <g id="line2d_28">
      <g>
       <use xlink:href="#mbc9fed7df0" x="57.6" y="153.182118" style="stroke: #000000; stroke-width: 0.8"/>
      </g>
     </g>
     <g id="text_15">
      <!-- 10.0 -->
      <g transform="translate(28.334375 156.981336)scale(0.1 -0.1)">
       <use xlink:href="#DejaVuSans-31"/>
       <use xlink:href="#DejaVuSans-30" x="63.623047"/>
       <use xlink:href="#DejaVuSans-2e" x="127.246094"/>
       <use xlink:href="#DejaVuSans-30" x="159.033203"/>
      </g>
     </g>
    </g>
    <g id="ytick_6">
     <g id="line2d_29">
      <path d="M 57.6 117.605647 
L 414.72 117.605647 
" clip-path="url(#p7fa78e0d35)" style="fill: none; stroke-dasharray: 2.96,1.28; stroke-dashoffset: 0; stroke: #b0b0b0; stroke-width: 0.8"/>
     </g>
     <g id="line2d_30">
      <g>
       <use xlink:href="#mbc9fed7df0" x="57.6" y="117.605647" style="stroke: #000000; stroke-width: 0.8"/>
      </g>
     </g>
     <g id="text_16">
      <!-- 12.5 -->
      <g transform="translate(28.334375 121.404866)scale(0.1 -0.1)">
       <use xlink:href="#DejaVuSans-31"/>
       <use xlink:href="#DejaVuSans-32" x="63.623047"/>
       <use xlink:href="#DejaVuSans-2e" x="127.246094"/>
       <use xlink:href="#DejaVuSans-35" x="159.033203"/>
      </g>
     </g>
    </g>
    <g id="ytick_7">
     <g id="line2d_31">
      <path d="M 57.6 82.029176 
L 414.72 82.029176 
" clip-path="url(#p7fa78e0d35)" style="fill: none; stroke-dasharray: 2.96,1.28; stroke-dashoffset: 0; stroke: #b0b0b0; stroke-width: 0.8"/>
     </g>
     <g id="line2d_32">
      <g>
       <use xlink:href="#mbc9fed7df0" x="57.6" y="82.029176" style="stroke: #000000; stroke-width: 0.8"/>
      </g>
     </g>
     <g id="text_17">
      <!-- 15.0 -->
      <g transform="translate(28.334375 85.828395)scale(0.1 -0.1)">
       <use xlink:href="#DejaVuSans-31"/>
       <use xlink:href="#DejaVuSans-35" x="63.623047"/>
       <use xlink:href="#DejaVuSans-2e" x="127.246094"/>
       <use xlink:href="#DejaVuSans-30" x="159.033203"/>
      </g>
     </g>
    </g>
    <g id="ytick_8">
     <g id="line2d_33">
      <path d="M 57.6 46.452706 
L 414.72 46.452706 
" clip-path="url(#p7fa78e0d35)" style="fill: none; stroke-dasharray: 2.96,1.28; stroke-dashoffset: 0; stroke: #b0b0b0; stroke-width: 0.8"/>
     </g>
     <g id="line2d_34">
      <g>
       <use xlink:href="#mbc9fed7df0" x="57.6" y="46.452706" style="stroke: #000000; stroke-width: 0.8"/>
      </g>
     </g>
     <g id="text_18">
      <!-- 17.5 -->
      <g transform="translate(28.334375 50.251925)scale(0.1 -0.1)">
       <use xlink:href="#DejaVuSans-31"/>
       <use xlink:href="#DejaVuSans-37" x="63.623047"/>
       <use xlink:href="#DejaVuSans-2e" x="127.246094"/>
       <use xlink:href="#DejaVuSans-35" x="159.033203"/>
      </g>
     </g>
    </g>
    <g id="text_19">
     <!-- Reward Density -->
     <g transform="translate(22.254687 213.74675)rotate(-90)scale(0.1 -0.1)">
      <defs>
       <path id="DejaVuSans-52" d="M 2841 2188 
Q 3044 2119 3236 1894 
Q 3428 1669 3622 1275 
L 4263 0 
L 3584 0 
L 2988 1197 
Q 2756 1666 2539 1819 
Q 2322 1972 1947 1972 
L 1259 1972 
L 1259 0 
L 628 0 
L 628 4666 
L 2053 4666 
Q 2853 4666 3247 4331 
Q 3641 3997 3641 3322 
Q 3641 2881 3436 2590 
Q 3231 2300 2841 2188 
z
M 1259 4147 
L 1259 2491 
L 2053 2491 
Q 2509 2491 2742 2702 
Q 2975 2913 2975 3322 
Q 2975 3731 2742 3939 
Q 2509 4147 2053 4147 
L 1259 4147 
z
" transform="scale(0.015625)"/>
       <path id="DejaVuSans-77" d="M 269 3500 
L 844 3500 
L 1563 769 
L 2278 3500 
L 2956 3500 
L 3675 769 
L 4391 3500 
L 4966 3500 
L 4050 0 
L 3372 0 
L 2619 2869 
L 1863 0 
L 1184 0 
L 269 3500 
z
" transform="scale(0.015625)"/>
       <path id="DejaVuSans-44" d="M 1259 4147 
L 1259 519 
L 2022 519 
Q 2988 519 3436 956 
Q 3884 1394 3884 2338 
Q 3884 3275 3436 3711 
Q 2988 4147 2022 4147 
L 1259 4147 
z
M 628 4666 
L 1925 4666 
Q 3281 4666 3915 4102 
Q 4550 3538 4550 2338 
Q 4550 1131 3912 565 
Q 3275 0 1925 0 
L 628 0 
L 628 4666 
z
" transform="scale(0.015625)"/>
       <path id="DejaVuSans-74" d="M 1172 4494 
L 1172 3500 
L 2356 3500 
L 2356 3053 
L 1172 3053 
L 1172 1153 
Q 1172 725 1289 603 
Q 1406 481 1766 481 
L 2356 481 
L 2356 0 
L 1766 0 
Q 1100 0 847 248 
Q 594 497 594 1153 
L 594 3053 
L 172 3053 
L 172 3500 
L 594 3500 
L 594 4494 
L 1172 4494 
z
" transform="scale(0.015625)"/>
       <path id="DejaVuSans-79" d="M 2059 -325 
Q 1816 -950 1584 -1140 
Q 1353 -1331 966 -1331 
L 506 -1331 
L 506 -850 
L 844 -850 
Q 1081 -850 1212 -737 
Q 1344 -625 1503 -206 
L 1606 56 
L 191 3500 
L 800 3500 
L 1894 763 
L 2988 3500 
L 3597 3500 
L 2059 -325 
z
" transform="scale(0.015625)"/>
      </defs>
      <use xlink:href="#DejaVuSans-52"/>
      <use xlink:href="#DejaVuSans-65" x="64.982422"/>
      <use xlink:href="#DejaVuSans-77" x="126.505859"/>
      <use xlink:href="#DejaVuSans-61" x="208.292969"/>
      <use xlink:href="#DejaVuSans-72" x="269.572266"/>
      <use xlink:href="#DejaVuSans-64" x="308.935547"/>
      <use xlink:href="#DejaVuSans-20" x="372.412109"/>
      <use xlink:href="#DejaVuSans-44" x="404.199219"/>
      <use xlink:href="#DejaVuSans-65" x="481.201172"/>
      <use xlink:href="#DejaVuSans-6e" x="542.724609"/>
      <use xlink:href="#DejaVuSans-73" x="606.103516"/>
      <use xlink:href="#DejaVuSans-69" x="658.203125"/>
      <use xlink:href="#DejaVuSans-74" x="685.986328"/>
      <use xlink:href="#DejaVuSans-79" x="725.195312"/>
     </g>
    </g>
   </g>
   <g id="LineCollection_1">
    <path d="M 90.893768 224.534287 
L 125.01585 224.534287 
" clip-path="url(#p7fa78e0d35)" style="fill: none; stroke: #1f77b4; stroke-width: 1.5"/>
    <path d="M 176.198972 219.439736 
L 210.321054 219.439736 
" clip-path="url(#p7fa78e0d35)" style="fill: none; stroke: #1f77b4; stroke-width: 1.5"/>
    <path d="M 261.504176 217.959755 
L 295.626258 217.959755 
" clip-path="url(#p7fa78e0d35)" style="fill: none; stroke: #1f77b4; stroke-width: 1.5"/>
    <path d="M 346.80938 213.491351 
L 380.931462 213.491351 
" clip-path="url(#p7fa78e0d35)" style="fill: none; stroke: #1f77b4; stroke-width: 1.5"/>
    <path d="M 347.30415 210.047548 
L 381.426232 210.047548 
" clip-path="url(#p7fa78e0d35)" style="fill: none; stroke: #1f77b4; stroke-width: 1.5"/>
   </g>
   <g id="LineCollection_2">
    <path d="M 90.893768 82.029176 
L 125.01585 82.029176 
" clip-path="url(#p7fa78e0d35)" style="fill: none; stroke: #1f77b4; stroke-width: 1.5"/>
    <path d="M 176.198972 53.568 
L 210.321054 53.568 
" clip-path="url(#p7fa78e0d35)" style="fill: none; stroke: #1f77b4; stroke-width: 1.5"/>
    <path d="M 261.504176 96.259765 
L 295.626258 96.259765 
" clip-path="url(#p7fa78e0d35)" style="fill: none; stroke: #1f77b4; stroke-width: 1.5"/>
    <path d="M 346.80938 67.798588 
L 380.931462 67.798588 
" clip-path="url(#p7fa78e0d35)" style="fill: none; stroke: #1f77b4; stroke-width: 1.5"/>
    <path d="M 347.30415 82.029176 
L 381.426232 82.029176 
" clip-path="url(#p7fa78e0d35)" style="fill: none; stroke: #1f77b4; stroke-width: 1.5"/>
   </g>
   <g id="LineCollection_3">
    <path d="M 90.893768 295.488 
L 125.01585 295.488 
" clip-path="url(#p7fa78e0d35)" style="fill: none; stroke: #1f77b4; stroke-width: 1.5"/>
    <path d="M 176.198972 295.488 
L 210.321054 295.488 
" clip-path="url(#p7fa78e0d35)" style="fill: none; stroke: #1f77b4; stroke-width: 1.5"/>
    <path d="M 261.504176 295.488 
L 295.626258 295.488 
" clip-path="url(#p7fa78e0d35)" style="fill: none; stroke: #1f77b4; stroke-width: 1.5"/>
    <path d="M 346.80938 295.488 
L 380.931462 295.488 
" clip-path="url(#p7fa78e0d35)" style="fill: none; stroke: #1f77b4; stroke-width: 1.5"/>
    <path d="M 347.30415 295.488 
L 381.426232 295.488 
" clip-path="url(#p7fa78e0d35)" style="fill: none; stroke: #1f77b4; stroke-width: 1.5"/>
   </g>
   <g id="LineCollection_4">
    <path d="M 107.954809 295.488 
L 107.954809 82.029176 
" clip-path="url(#p7fa78e0d35)" style="fill: none; stroke: #1f77b4; stroke-width: 1.5"/>
    <path d="M 193.260013 295.488 
L 193.260013 53.568 
" clip-path="url(#p7fa78e0d35)" style="fill: none; stroke: #1f77b4; stroke-width: 1.5"/>
    <path d="M 278.565217 295.488 
L 278.565217 96.259765 
" clip-path="url(#p7fa78e0d35)" style="fill: none; stroke: #1f77b4; stroke-width: 1.5"/>
    <path d="M 363.870421 295.488 
L 363.870421 67.798588 
" clip-path="url(#p7fa78e0d35)" style="fill: none; stroke: #1f77b4; stroke-width: 1.5"/>
    <path d="M 364.365191 295.488 
L 364.365191 82.029176 
" clip-path="url(#p7fa78e0d35)" style="fill: none; stroke: #1f77b4; stroke-width: 1.5"/>
   </g>
   <g id="line2d_35">
    <path d="M 107.954809 224.534287 
L 193.260013 219.439736 
L 278.565217 217.959755 
L 363.870421 213.491351 
L 364.365191 210.047548 
" clip-path="url(#p7fa78e0d35)" style="fill: none; stroke: #4682b4; stroke-width: 1.5; stroke-linecap: square"/>
   </g>
   <g id="line2d_36">
    <path d="M 107.954809 224.534287 
L 193.260013 219.439736 
L 278.565217 217.959755 
L 363.870421 213.491351 
L 364.365191 210.047548 
" clip-path="url(#p7fa78e0d35)" style="fill: none; stroke: #4682b4; stroke-width: 1.5; stroke-linecap: square"/>
   </g>
   <g id="patch_3">
    <path d="M 57.6 307.584 
L 57.6 41.472 
" style="fill: none; stroke: #000000; stroke-width: 0.8; stroke-linejoin: miter; stroke-linecap: square"/>
   </g>
   <g id="patch_4">
    <path d="M 414.72 307.584 
L 414.72 41.472 
" style="fill: none; stroke: #000000; stroke-width: 0.8; stroke-linejoin: miter; stroke-linecap: square"/>
   </g>
   <g id="patch_5">
    <path d="M 57.6 307.584 
L 414.72 307.584 
" style="fill: none; stroke: #000000; stroke-width: 0.8; stroke-linejoin: miter; stroke-linecap: square"/>
   </g>
   <g id="patch_6">
    <path d="M 57.6 41.472 
L 414.72 41.472 
" style="fill: none; stroke: #000000; stroke-width: 0.8; stroke-linejoin: miter; stroke-linecap: square"/>
   </g>
   <g id="text_20">
    <!-- Violinplot for progress of owner/throw_away -->
    <g transform="translate(104.22375 35.472)scale(0.12 -0.12)">
     <defs>
      <path id="DejaVuSans-56" d="M 1831 0 
L 50 4666 
L 709 4666 
L 2188 738 
L 3669 4666 
L 4325 4666 
L 2547 0 
L 1831 0 
z
" transform="scale(0.015625)"/>
      <path id="DejaVuSans-6c" d="M 603 4863 
L 1178 4863 
L 1178 0 
L 603 0 
L 603 4863 
z
" transform="scale(0.015625)"/>
      <path id="DejaVuSans-66" d="M 2375 4863 
L 2375 4384 
L 1825 4384 
Q 1516 4384 1395 4259 
Q 1275 4134 1275 3809 
L 1275 3500 
L 2222 3500 
L 2222 3053 
L 1275 3053 
L 1275 0 
L 697 0 
L 697 3053 
L 147 3053 
L 147 3500 
L 697 3500 
L 697 3744 
Q 697 4328 969 4595 
Q 1241 4863 1831 4863 
L 2375 4863 
z
" transform="scale(0.015625)"/>
      <path id="DejaVuSans-67" d="M 2906 1791 
Q 2906 2416 2648 2759 
Q 2391 3103 1925 3103 
Q 1463 3103 1205 2759 
Q 947 2416 947 1791 
Q 947 1169 1205 825 
Q 1463 481 1925 481 
Q 2391 481 2648 825 
Q 2906 1169 2906 1791 
z
M 3481 434 
Q 3481 -459 3084 -895 
Q 2688 -1331 1869 -1331 
Q 1566 -1331 1297 -1286 
Q 1028 -1241 775 -1147 
L 775 -588 
Q 1028 -725 1275 -790 
Q 1522 -856 1778 -856 
Q 2344 -856 2625 -561 
Q 2906 -266 2906 331 
L 2906 616 
Q 2728 306 2450 153 
Q 2172 0 1784 0 
Q 1141 0 747 490 
Q 353 981 353 1791 
Q 353 2603 747 3093 
Q 1141 3584 1784 3584 
Q 2172 3584 2450 3431 
Q 2728 3278 2906 2969 
L 2906 3500 
L 3481 3500 
L 3481 434 
z
" transform="scale(0.015625)"/>
      <path id="DejaVuSans-2f" d="M 1625 4666 
L 2156 4666 
L 531 -594 
L 0 -594 
L 1625 4666 
z
" transform="scale(0.015625)"/>
      <path id="DejaVuSans-68" d="M 3513 2113 
L 3513 0 
L 2938 0 
L 2938 2094 
Q 2938 2591 2744 2837 
Q 2550 3084 2163 3084 
Q 1697 3084 1428 2787 
Q 1159 2491 1159 1978 
L 1159 0 
L 581 0 
L 581 4863 
L 1159 4863 
L 1159 2956 
Q 1366 3272 1645 3428 
Q 1925 3584 2291 3584 
Q 2894 3584 3203 3211 
Q 3513 2838 3513 2113 
z
" transform="scale(0.015625)"/>
      <path id="DejaVuSans-5f" d="M 3263 -1063 
L 3263 -1509 
L -63 -1509 
L -63 -1063 
L 3263 -1063 
z
" transform="scale(0.015625)"/>
     </defs>
     <use xlink:href="#DejaVuSans-56"/>
     <use xlink:href="#DejaVuSans-69" x="66.158203"/>
     <use xlink:href="#DejaVuSans-6f" x="93.941406"/>
     <use xlink:href="#DejaVuSans-6c" x="155.123047"/>
     <use xlink:href="#DejaVuSans-69" x="182.90625"/>
     <use xlink:href="#DejaVuSans-6e" x="210.689453"/>
     <use xlink:href="#DejaVuSans-70" x="274.068359"/>
     <use xlink:href="#DejaVuSans-6c" x="337.544922"/>
     <use xlink:href="#DejaVuSans-6f" x="365.328125"/>
     <use xlink:href="#DejaVuSans-74" x="426.509766"/>
     <use xlink:href="#DejaVuSans-20" x="465.71875"/>
     <use xlink:href="#DejaVuSans-66" x="497.505859"/>
     <use xlink:href="#DejaVuSans-6f" x="532.710938"/>
     <use xlink:href="#DejaVuSans-72" x="593.892578"/>
     <use xlink:href="#DejaVuSans-20" x="635.005859"/>
     <use xlink:href="#DejaVuSans-70" x="666.792969"/>
     <use xlink:href="#DejaVuSans-72" x="730.269531"/>
     <use xlink:href="#DejaVuSans-6f" x="769.132812"/>
     <use xlink:href="#DejaVuSans-67" x="830.314453"/>
     <use xlink:href="#DejaVuSans-72" x="893.791016"/>
     <use xlink:href="#DejaVuSans-65" x="932.654297"/>
     <use xlink:href="#DejaVuSans-73" x="994.177734"/>
     <use xlink:href="#DejaVuSans-73" x="1046.277344"/>
     <use xlink:href="#DejaVuSans-20" x="1098.376953"/>
     <use xlink:href="#DejaVuSans-6f" x="1130.164062"/>
     <use xlink:href="#DejaVuSans-66" x="1191.345703"/>
     <use xlink:href="#DejaVuSans-20" x="1226.550781"/>
     <use xlink:href="#DejaVuSans-6f" x="1258.337891"/>
     <use xlink:href="#DejaVuSans-77" x="1319.519531"/>
     <use xlink:href="#DejaVuSans-6e" x="1401.306641"/>
     <use xlink:href="#DejaVuSans-65" x="1464.685547"/>
     <use xlink:href="#DejaVuSans-72" x="1526.208984"/>
     <use xlink:href="#DejaVuSans-2f" x="1567.322266"/>
     <use xlink:href="#DejaVuSans-74" x="1601.013672"/>
     <use xlink:href="#DejaVuSans-68" x="1640.222656"/>
     <use xlink:href="#DejaVuSans-72" x="1703.601562"/>
     <use xlink:href="#DejaVuSans-6f" x="1742.464844"/>
     <use xlink:href="#DejaVuSans-77" x="1803.646484"/>
     <use xlink:href="#DejaVuSans-5f" x="1885.433594"/>
     <use xlink:href="#DejaVuSans-61" x="1935.433594"/>
     <use xlink:href="#DejaVuSans-77" x="1996.712891"/>
     <use xlink:href="#DejaVuSans-61" x="2078.5"/>
     <use xlink:href="#DejaVuSans-79" x="2139.779297"/>
    </g>
   </g>
  </g>
 </g>
 <defs>
  <clipPath id="p7fa78e0d35">
   <rect x="57.6" y="41.472" width="357.12" height="266.112"/>
  </clipPath>
 </defs>
</svg>
