<?xml version="1.0" encoding="utf-8" standalone="no"?>
<!DOCTYPE svg PUBLIC "-//W3C//DTD SVG 1.1//EN"
  "http://www.w3.org/Graphics/SVG/1.1/DTD/svg11.dtd">
<svg xmlns:xlink="http://www.w3.org/1999/xlink" width="460.8pt" height="345.6pt" viewBox="0 0 460.8 345.6" xmlns="http://www.w3.org/2000/svg" version="1.1">
 <metadata>
  <rdf:RDF xmlns:dc="http://purl.org/dc/elements/1.1/" xmlns:cc="http://creativecommons.org/ns#" xmlns:rdf="http://www.w3.org/1999/02/22-rdf-syntax-ns#">
   <cc:Work>
    <dc:type rdf:resource="http://purl.org/dc/dcmitype/StillImage"/>
    <dc:date>2022-06-21T20:55:06.177556</dc:date>
    <dc:format>image/svg+xml</dc:format>
    <dc:creator>
     <cc:Agent>
      <dc:title>Matplotlib v3.5.2, https://matplotlib.org/</dc:title>
     </cc:Agent>
    </dc:creator>
   </cc:Work>
  </rdf:RDF>
 </metadata>
 <defs>
  <style type="text/css">*{stroke-linejoin: round; stroke-linecap: butt}</style>
 </defs>
 <g id="figure_1">
  <g id="patch_1">
   <path d="M 0 345.6 
L 460.8 345.6 
L 460.8 0 
L 0 0 
z
" style="fill: #ffffff"/>
  </g>
  <g id="axes_1">
   <g id="patch_2">
    <path d="M 57.6 307.584 
L 414.72 307.584 
L 414.72 41.472 
L 57.6 41.472 
z
" style="fill: #ffffff"/>
   </g>
   <g id="PolyCollection_1">
    <path d="M 108.21045 295.488 
L 107.699168 295.488 
L 107.692676 293.509818 
L 107.688682 291.531636 
L 107.68089 289.553455 
L 107.660897 287.575273 
L 107.618946 285.597091 
L 107.544868 283.618909 
L 107.429105 281.640727 
L 107.263702 279.662545 
L 107.043206 277.684364 
L 106.76535 275.706182 
L 106.431383 273.728 
L 106.045852 271.749818 
L 105.61567 269.771636 
L 105.148428 267.793455 
L 104.65017 265.815273 
L 104.123139 263.837091 
L 103.564215 261.858909 
L 102.964798 259.880727 
L 102.312539 257.902545 
L 101.594749 255.924364 
L 100.802622 253.946182 
L 99.934892 251.968 
L 98.999525 249.989818 
L 98.012527 248.011636 
L 96.993933 246.033455 
L 95.962003 244.055273 
L 94.927387 242.077091 
L 93.889057 240.098909 
L 92.833345 238.120727 
L 91.736484 236.142545 
L 90.570114 234.164364 
L 89.308436 232.186182 
L 87.935372 230.208 
L 86.450108 228.229818 
L 84.869829 226.251636 
L 83.229114 224.273455 
L 81.576291 222.295273 
L 79.96768 220.317091 
L 78.461111 218.338909 
L 77.110018 216.360727 
L 75.959026 214.382545 
L 75.041329 212.404364 
L 74.377628 210.426182 
L 73.976077 208.448 
L 73.832727 206.469818 
L 73.932188 204.491636 
L 74.248528 202.513455 
L 74.746667 200.535273 
L 75.384565 198.557091 
L 76.11635 196.578909 
L 76.896237 194.600727 
L 77.682771 192.622545 
L 78.442718 190.644364 
L 79.153936 188.666182 
L 79.80678 186.688 
L 80.403924 184.709818 
L 80.958807 182.731636 
L 81.49303 180.753455 
L 82.033072 178.775273 
L 82.606575 176.797091 
L 83.238505 174.818909 
L 83.947549 172.840727 
L 84.743321 170.862545 
L 85.62493 168.884364 
L 86.58135 166.906182 
L 87.593625 164.928 
L 88.638477 162.949818 
L 89.692559 160.971636 
L 90.736412 158.993455 
L 91.757282 157.015273 
L 92.750238 155.037091 
L 93.717389 153.058909 
L 94.665427 151.080727 
L 95.602156 149.102545 
L 96.532986 147.124364 
L 97.458388 145.146182 
L 98.373088 143.168 
L 99.267141 141.189818 
L 100.128401 139.211636 
L 100.945425 137.233455 
L 101.709787 135.255273 
L 102.417147 133.277091 
L 103.066984 131.298909 
L 103.661424 129.320727 
L 104.203775 127.342545 
L 104.697336 125.364364 
L 105.144724 123.386182 
L 105.547712 121.408 
L 105.907405 119.429818 
L 106.224582 117.451636 
L 106.500087 115.473455 
L 106.735229 113.495273 
L 106.93213 111.517091 
L 107.093978 109.538909 
L 107.225093 107.560727 
L 107.330751 105.582545 
L 107.416743 103.604364 
L 107.488758 101.626182 
L 107.551723 99.648 
L 108.357895 99.648 
L 108.357895 99.648 
L 108.42086 101.626182 
L 108.492875 103.604364 
L 108.578867 105.582545 
L 108.684524 107.560727 
L 108.81564 109.538909 
L 108.977488 111.517091 
L 109.174388 113.495273 
L 109.409531 115.473455 
L 109.685036 117.451636 
L 110.002212 119.429818 
L 110.361905 121.408 
L 110.764893 123.386182 
L 111.212282 125.364364 
L 111.705843 127.342545 
L 112.248194 129.320727 
L 112.842633 131.298909 
L 113.492471 133.277091 
L 114.199831 135.255273 
L 114.964193 137.233455 
L 115.781217 139.211636 
L 116.642477 141.189818 
L 117.53653 143.168 
L 118.45123 145.146182 
L 119.376632 147.124364 
L 120.307462 149.102545 
L 121.244191 151.080727 
L 122.192229 153.058909 
L 123.15938 155.037091 
L 124.152336 157.015273 
L 125.173205 158.993455 
L 126.217058 160.971636 
L 127.271141 162.949818 
L 128.315993 164.928 
L 129.328268 166.906182 
L 130.284688 168.884364 
L 131.166297 170.862545 
L 131.962068 172.840727 
L 132.671113 174.818909 
L 133.303042 176.797091 
L 133.876546 178.775273 
L 134.416588 180.753455 
L 134.950811 182.731636 
L 135.505693 184.709818 
L 136.102838 186.688 
L 136.755682 188.666182 
L 137.4669 190.644364 
L 138.226847 192.622545 
L 139.01338 194.600727 
L 139.793268 196.578909 
L 140.525053 198.557091 
L 141.162951 200.535273 
L 141.66109 202.513455 
L 141.97743 204.491636 
L 142.07689 206.469818 
L 141.933541 208.448 
L 141.531989 210.426182 
L 140.868289 212.404364 
L 139.950592 214.382545 
L 138.799599 216.360727 
L 137.448507 218.338909 
L 135.941938 220.317091 
L 134.333327 222.295273 
L 132.680504 224.273455 
L 131.039789 226.251636 
L 129.45951 228.229818 
L 127.974246 230.208 
L 126.601182 232.186182 
L 125.339503 234.164364 
L 124.173133 236.142545 
L 123.076273 238.120727 
L 122.020561 240.098909 
L 120.982231 242.077091 
L 119.947615 244.055273 
L 118.915685 246.033455 
L 117.89709 248.011636 
L 116.910093 249.989818 
L 115.974726 251.968 
L 115.106996 253.946182 
L 114.314869 255.924364 
L 113.597079 257.902545 
L 112.94482 259.880727 
L 112.345403 261.858909 
L 111.786479 263.837091 
L 111.259447 265.815273 
L 110.76119 267.793455 
L 110.293948 269.771636 
L 109.863766 271.749818 
L 109.478235 273.728 
L 109.144268 275.706182 
L 108.866412 277.684364 
L 108.645916 279.662545 
L 108.480513 281.640727 
L 108.364749 283.618909 
L 108.290672 285.597091 
L 108.248721 287.575273 
L 108.228728 289.553455 
L 108.220935 291.531636 
L 108.216942 293.509818 
L 108.21045 295.488 
z
" clip-path="url(#p258d71cc62)" style="fill: #1f77b4; fill-opacity: 0.3"/>
   </g>
   <g id="PolyCollection_2">
    <path d="M 195.46629 257.088 
L 191.053736 257.088 
L 190.722912 255.420121 
L 190.396315 253.752242 
L 190.079519 252.084364 
L 189.77509 250.416485 
L 189.482089 248.748606 
L 189.195908 247.080727 
L 188.90843 245.412848 
L 188.608458 243.74497 
L 188.282401 242.077091 
L 187.915192 240.409212 
L 187.491361 238.741333 
L 186.996164 237.073455 
L 186.416554 235.405576 
L 185.741814 233.737697 
L 184.963741 232.069818 
L 184.076419 230.401939 
L 183.075831 228.734061 
L 181.95967 227.066182 
L 180.727721 225.398303 
L 179.382956 223.730424 
L 177.933217 222.062545 
L 176.392975 220.394667 
L 174.784482 218.726788 
L 173.137635 217.058909 
L 171.488188 215.39103 
L 169.874409 213.723152 
L 168.332789 212.055273 
L 166.893768 210.387394 
L 165.578519 208.719515 
L 164.397572 207.051636 
L 163.35159 205.383758 
L 162.434059 203.715879 
L 161.635148 202.048 
L 160.945768 200.380121 
L 160.360789 198.712242 
L 159.880683 197.044364 
L 159.511152 195.376485 
L 159.260882 193.708606 
L 159.137931 192.040727 
L 159.145738 190.372848 
L 159.279838 188.70497 
L 159.526364 187.037091 
L 159.86296 185.369212 
L 160.262138 183.701333 
L 160.696376 182.033455 
L 161.143669 180.365576 
L 161.592053 178.697697 
L 162.041826 177.029818 
L 162.504877 175.361939 
L 163.00131 173.694061 
L 163.554333 172.026182 
L 164.184745 170.358303 
L 164.906352 168.690424 
L 165.723187 167.022545 
L 166.628834 165.354667 
L 167.607519 163.686788 
L 168.636364 162.018909 
L 169.688106 160.35103 
L 170.733841 158.683152 
L 171.745623 157.015273 
L 172.698964 155.347394 
L 173.575257 153.679515 
L 174.36398 152.011636 
L 175.064286 150.343758 
L 175.685483 148.675879 
L 176.246011 147.008 
L 176.770914 145.340121 
L 177.288216 143.672242 
L 177.824995 142.004364 
L 178.403993 140.336485 
L 179.041394 138.668606 
L 179.745969 137.000727 
L 180.519332 135.332848 
L 181.356833 133.66497 
L 182.248587 131.997091 
L 183.180391 130.329212 
L 184.134549 128.661333 
L 185.090842 126.993455 
L 186.027835 125.325576 
L 186.924589 123.657697 
L 187.762547 121.989818 
L 188.527235 120.321939 
L 189.209383 118.654061 
L 189.805222 116.986182 
L 190.315969 115.318303 
L 190.746715 113.650424 
L 191.10508 111.982545 
L 191.399959 110.314667 
L 191.64058 108.646788 
L 191.835942 106.978909 
L 191.994539 105.31103 
L 192.124255 103.643152 
L 192.232287 101.975273 
L 192.325035 100.307394 
L 192.407935 98.639515 
L 192.485297 96.971636 
L 192.560182 95.303758 
L 192.634373 93.635879 
L 192.708463 91.968 
L 193.811563 91.968 
L 193.811563 91.968 
L 193.885652 93.635879 
L 193.959844 95.303758 
L 194.034728 96.971636 
L 194.11209 98.639515 
L 194.194991 100.307394 
L 194.287738 101.975273 
L 194.395771 103.643152 
L 194.525487 105.31103 
L 194.684084 106.978909 
L 194.879446 108.646788 
L 195.120067 110.314667 
L 195.414945 111.982545 
L 195.773311 113.650424 
L 196.204057 115.318303 
L 196.714804 116.986182 
L 197.310643 118.654061 
L 197.992791 120.321939 
L 198.757479 121.989818 
L 199.595437 123.657697 
L 200.492191 125.325576 
L 201.429184 126.993455 
L 202.385477 128.661333 
L 203.339635 130.329212 
L 204.271439 131.997091 
L 205.163193 133.66497 
L 206.000694 135.332848 
L 206.774057 137.000727 
L 207.478632 138.668606 
L 208.116033 140.336485 
L 208.695031 142.004364 
L 209.23181 143.672242 
L 209.749112 145.340121 
L 210.274014 147.008 
L 210.834543 148.675879 
L 211.45574 150.343758 
L 212.156046 152.011636 
L 212.944769 153.679515 
L 213.821062 155.347394 
L 214.774403 157.015273 
L 215.786185 158.683152 
L 216.83192 160.35103 
L 217.883661 162.018909 
L 218.912506 163.686788 
L 219.891192 165.354667 
L 220.796838 167.022545 
L 221.613674 168.690424 
L 222.33528 170.358303 
L 222.965693 172.026182 
L 223.518716 173.694061 
L 224.015149 175.361939 
L 224.4782 177.029818 
L 224.927973 178.697697 
L 225.376356 180.365576 
L 225.82365 182.033455 
L 226.257888 183.701333 
L 226.657066 185.369212 
L 226.993662 187.037091 
L 227.240188 188.70497 
L 227.374288 190.372848 
L 227.382095 192.040727 
L 227.259144 193.708606 
L 227.008873 195.376485 
L 226.639343 197.044364 
L 226.159236 198.712242 
L 225.574258 200.380121 
L 224.884877 202.048 
L 224.085967 203.715879 
L 223.168435 205.383758 
L 222.122454 207.051636 
L 220.941507 208.719515 
L 219.626258 210.387394 
L 218.187237 212.055273 
L 216.645617 213.723152 
L 215.031838 215.39103 
L 213.382391 217.058909 
L 211.735544 218.726788 
L 210.127051 220.394667 
L 208.586809 222.062545 
L 207.13707 223.730424 
L 205.792305 225.398303 
L 204.560355 227.066182 
L 203.444195 228.734061 
L 202.443607 230.401939 
L 201.556285 232.069818 
L 200.778212 233.737697 
L 200.103472 235.405576 
L 199.523861 237.073455 
L 199.028664 238.741333 
L 198.604834 240.409212 
L 198.237624 242.077091 
L 197.911568 243.74497 
L 197.611596 245.412848 
L 197.324118 247.080727 
L 197.037937 248.748606 
L 196.744936 250.416485 
L 196.440507 252.084364 
L 196.123711 253.752242 
L 195.797114 255.420121 
L 195.46629 257.088 
z
" clip-path="url(#p258d71cc62)" style="fill: #1f77b4; fill-opacity: 0.3"/>
   </g>
   <g id="PolyCollection_3">
    <path d="M 279.099447 272.448 
L 278.030986 272.448 
L 277.898017 270.508606 
L 277.729099 268.569212 
L 277.516643 266.629818 
L 277.254949 264.690424 
L 276.941617 262.75103 
L 276.578511 260.811636 
L 276.171983 258.872242 
L 275.73219 256.932848 
L 275.271591 254.993455 
L 274.802826 253.054061 
L 274.336364 251.114667 
L 273.878319 249.175273 
L 273.428804 247.235879 
L 272.981121 245.296485 
L 272.52193 243.357091 
L 272.032406 241.417697 
L 271.490236 239.478303 
L 270.872159 237.538909 
L 270.156644 235.599515 
L 269.326285 233.660121 
L 268.369543 231.720727 
L 267.281662 229.781333 
L 266.064751 227.841939 
L 264.727285 225.902545 
L 263.283312 223.963152 
L 261.751647 222.023758 
L 260.155197 220.084364 
L 258.520331 218.14497 
L 256.876089 216.205576 
L 255.253009 214.266182 
L 253.681447 212.326788 
L 252.189512 210.387394 
L 250.800991 208.448 
L 249.533776 206.508606 
L 248.399334 204.569212 
L 247.403464 202.629818 
L 246.54823 200.690424 
L 245.834417 198.75103 
L 245.26362 196.811636 
L 244.839076 194.872242 
L 244.56478 192.932848 
L 244.443135 190.993455 
L 244.472024 189.054061 
L 244.642506 187.114667 
L 244.938123 185.175273 
L 245.336132 183.235879 
L 245.810228 181.296485 
L 246.333773 179.357091 
L 246.882533 177.417697 
L 247.436405 175.478303 
L 247.980221 173.538909 
L 248.504208 171.599515 
L 249.00467 169.660121 
L 249.485055 167.720727 
L 249.956982 165.781333 
L 250.440371 163.841939 
L 250.961882 161.902545 
L 251.551348 159.963152 
L 252.236685 158.023758 
L 253.038407 156.084364 
L 253.965192 154.14497 
L 255.011709 152.205576 
L 256.159258 150.266182 
L 257.378945 148.326788 
L 258.636436 146.387394 
L 259.896993 144.448 
L 261.129653 142.508606 
L 262.309849 140.569212 
L 263.420395 138.629818 
L 264.451243 136.690424 
L 265.398637 134.75103 
L 266.264197 132.811636 
L 267.054211 130.872242 
L 267.779026 128.932848 
L 268.45226 126.993455 
L 269.089526 125.054061 
L 269.706573 123.114667 
L 270.317047 121.175273 
L 270.930338 119.235879 
L 271.550097 117.296485 
L 272.173879 115.357091 
L 272.794064 113.417697 
L 273.399837 111.478303 
L 273.979663 109.538909 
L 274.523591 107.599515 
L 275.024804 105.660121 
L 275.480135 103.720727 
L 275.889602 101.781333 
L 276.255327 99.841939 
L 276.580313 97.902545 
L 276.867505 95.963152 
L 277.119358 94.023758 
L 277.337916 92.084364 
L 277.52521 90.14497 
L 277.68372 88.205576 
L 277.816649 86.266182 
L 277.9279 84.326788 
L 278.021753 82.387394 
L 278.102364 80.448 
L 279.02807 80.448 
L 279.02807 80.448 
L 279.108681 82.387394 
L 279.202534 84.326788 
L 279.313785 86.266182 
L 279.446714 88.205576 
L 279.605224 90.14497 
L 279.792518 92.084364 
L 280.011075 94.023758 
L 280.262928 95.963152 
L 280.55012 97.902545 
L 280.875107 99.841939 
L 281.240832 101.781333 
L 281.650299 103.720727 
L 282.10563 105.660121 
L 282.606843 107.599515 
L 283.15077 109.538909 
L 283.730596 111.478303 
L 284.33637 113.417697 
L 284.956555 115.357091 
L 285.580336 117.296485 
L 286.200095 119.235879 
L 286.813386 121.175273 
L 287.42386 123.114667 
L 288.040908 125.054061 
L 288.678174 126.993455 
L 289.351408 128.932848 
L 290.076223 130.872242 
L 290.866237 132.811636 
L 291.731797 134.75103 
L 292.67919 136.690424 
L 293.710039 138.629818 
L 294.820585 140.569212 
L 296.000781 142.508606 
L 297.233441 144.448 
L 298.493998 146.387394 
L 299.751489 148.326788 
L 300.971176 150.266182 
L 302.118725 152.205576 
L 303.165242 154.14497 
L 304.092027 156.084364 
L 304.893749 158.023758 
L 305.579086 159.963152 
L 306.168552 161.902545 
L 306.690063 163.841939 
L 307.173452 165.781333 
L 307.645379 167.720727 
L 308.125764 169.660121 
L 308.626226 171.599515 
L 309.150213 173.538909 
L 309.694029 175.478303 
L 310.247901 177.417697 
L 310.796661 179.357091 
L 311.320206 181.296485 
L 311.794302 183.235879 
L 312.192311 185.175273 
L 312.487927 187.114667 
L 312.65841 189.054061 
L 312.687299 190.993455 
L 312.565654 192.932848 
L 312.291358 194.872242 
L 311.866814 196.811636 
L 311.296017 198.75103 
L 310.582204 200.690424 
L 309.72697 202.629818 
L 308.7311 204.569212 
L 307.596658 206.508606 
L 306.329443 208.448 
L 304.940922 210.387394 
L 303.448987 212.326788 
L 301.877424 214.266182 
L 300.254345 216.205576 
L 298.610103 218.14497 
L 296.975237 220.084364 
L 295.378787 222.023758 
L 293.847122 223.963152 
L 292.403148 225.902545 
L 291.065683 227.841939 
L 289.848772 229.781333 
L 288.76089 231.720727 
L 287.804149 233.660121 
L 286.973789 235.599515 
L 286.258275 237.538909 
L 285.640198 239.478303 
L 285.098028 241.417697 
L 284.608504 243.357091 
L 284.149313 245.296485 
L 283.70163 247.235879 
L 283.252115 249.175273 
L 282.79407 251.114667 
L 282.327608 253.054061 
L 281.858843 254.993455 
L 281.398244 256.932848 
L 280.958451 258.872242 
L 280.551922 260.811636 
L 280.188817 262.75103 
L 279.875485 264.690424 
L 279.61379 266.629818 
L 279.401334 268.569212 
L 279.232417 270.508606 
L 279.099447 272.448 
z
" clip-path="url(#p258d71cc62)" style="fill: #1f77b4; fill-opacity: 0.3"/>
   </g>
   <g id="PolyCollection_4">
    <path d="M 364.910015 260.928 
L 362.830827 260.928 
L 362.725792 258.91103 
L 362.636582 256.894061 
L 362.557595 254.877091 
L 362.477802 252.860121 
L 362.381694 250.843152 
L 362.25085 248.826182 
L 362.065767 246.809212 
L 361.807622 244.792242 
L 361.459825 242.775273 
L 361.009359 240.758303 
L 360.447998 238.741333 
L 359.773415 236.724364 
L 358.990084 234.707394 
L 358.109724 232.690424 
L 357.151008 230.673455 
L 356.138296 228.656485 
L 355.099325 226.639515 
L 354.061989 224.622545 
L 353.050594 222.605576 
L 352.082141 220.588606 
L 351.163334 218.571636 
L 350.289007 216.554667 
L 349.44249 214.537697 
L 348.598121 212.520727 
L 347.725582 210.503758 
L 346.795296 208.486788 
L 345.783719 206.469818 
L 344.67737 204.452848 
L 343.474699 202.435879 
L 342.185585 200.418909 
L 340.828914 198.401939 
L 339.429323 196.38497 
L 338.014332 194.368 
L 336.61278 192.35103 
L 335.254794 190.334061 
L 333.972674 188.317091 
L 332.801516 186.300121 
L 331.778326 184.283152 
L 330.938877 182.266182 
L 330.312502 180.249212 
L 329.915983 178.232242 
L 329.748339 176.215273 
L 329.788344 174.198303 
L 329.995974 172.181333 
L 330.317949 170.164364 
L 330.696369 168.147394 
L 331.078637 166.130424 
L 331.426577 164.113455 
L 331.722941 162.096485 
L 331.974192 160.079515 
L 332.209257 158.062545 
L 332.474643 156.045576 
L 332.82677 154.028606 
L 333.322662 152.011636 
L 334.010313 149.994667 
L 334.920189 147.977697 
L 336.059334 145.960727 
L 337.409299 143.943758 
L 338.928521 141.926788 
L 340.558843 139.909818 
L 342.234909 137.892848 
L 343.8944 135.875879 
L 345.486907 133.858909 
L 346.979631 131.841939 
L 348.358953 129.82497 
L 349.628029 127.808 
L 350.801413 125.79103 
L 351.898298 123.774061 
L 352.93603 121.757091 
L 353.925253 119.740121 
L 354.867535 117.723152 
L 355.755662 115.706182 
L 356.576252 113.689212 
L 357.3139 111.672242 
L 357.955789 109.655273 
L 358.49568 107.638303 
L 358.936378 105.621333 
L 359.290101 103.604364 
L 359.576715 101.587394 
L 359.820265 99.570424 
L 360.044669 97.553455 
L 360.269625 95.536485 
L 360.50766 93.519515 
L 360.762954 91.502545 
L 361.032021 89.485576 
L 361.305897 87.468606 
L 361.573116 85.451636 
L 361.822664 83.434667 
L 362.046241 81.417697 
L 362.239479 79.400727 
L 362.402077 77.383758 
L 362.537128 75.366788 
L 362.649991 73.349818 
L 362.747082 71.332848 
L 362.834817 69.315879 
L 362.918803 67.298909 
L 363.00328 65.281939 
L 363.090784 63.26497 
L 363.182031 61.248 
L 364.558811 61.248 
L 364.558811 61.248 
L 364.650058 63.26497 
L 364.737562 65.281939 
L 364.822038 67.298909 
L 364.906025 69.315879 
L 364.99376 71.332848 
L 365.090851 73.349818 
L 365.203713 75.366788 
L 365.338765 77.383758 
L 365.501363 79.400727 
L 365.694601 81.417697 
L 365.918178 83.434667 
L 366.167726 85.451636 
L 366.434945 87.468606 
L 366.708821 89.485576 
L 366.977888 91.502545 
L 367.233181 93.519515 
L 367.471217 95.536485 
L 367.696173 97.553455 
L 367.920577 99.570424 
L 368.164126 101.587394 
L 368.450741 103.604364 
L 368.804464 105.621333 
L 369.245161 107.638303 
L 369.785053 109.655273 
L 370.426941 111.672242 
L 371.16459 113.689212 
L 371.98518 115.706182 
L 372.873306 117.723152 
L 373.815589 119.740121 
L 374.804812 121.757091 
L 375.842544 123.774061 
L 376.939429 125.79103 
L 378.112813 127.808 
L 379.381889 129.82497 
L 380.761211 131.841939 
L 382.253935 133.858909 
L 383.846442 135.875879 
L 385.505933 137.892848 
L 387.181999 139.909818 
L 388.812321 141.926788 
L 390.331543 143.943758 
L 391.681508 145.960727 
L 392.820653 147.977697 
L 393.730529 149.994667 
L 394.41818 152.011636 
L 394.914072 154.028606 
L 395.266199 156.045576 
L 395.531585 158.062545 
L 395.76665 160.079515 
L 396.017901 162.096485 
L 396.314265 164.113455 
L 396.662205 166.130424 
L 397.044473 168.147394 
L 397.422893 170.164364 
L 397.744868 172.181333 
L 397.952498 174.198303 
L 397.992503 176.215273 
L 397.824859 178.232242 
L 397.42834 180.249212 
L 396.801965 182.266182 
L 395.962516 184.283152 
L 394.939326 186.300121 
L 393.768168 188.317091 
L 392.486048 190.334061 
L 391.128062 192.35103 
L 389.72651 194.368 
L 388.311519 196.38497 
L 386.911928 198.401939 
L 385.555257 200.418909 
L 384.266143 202.435879 
L 383.063472 204.452848 
L 381.957122 206.469818 
L 380.945546 208.486788 
L 380.01526 210.503758 
L 379.142721 212.520727 
L 378.298352 214.537697 
L 377.451835 216.554667 
L 376.577508 218.571636 
L 375.658701 220.588606 
L 374.690248 222.605576 
L 373.678853 224.622545 
L 372.641517 226.639515 
L 371.602546 228.656485 
L 370.589834 230.673455 
L 369.631118 232.690424 
L 368.750758 234.707394 
L 367.967427 236.724364 
L 367.292844 238.741333 
L 366.731483 240.758303 
L 366.281017 242.775273 
L 365.93322 244.792242 
L 365.675075 246.809212 
L 365.489992 248.826182 
L 365.359148 250.843152 
L 365.26304 252.860121 
L 365.183247 254.877091 
L 365.10426 256.894061 
L 365.01505 258.91103 
L 364.910015 260.928 
z
" clip-path="url(#p258d71cc62)" style="fill: #1f77b4; fill-opacity: 0.3"/>
   </g>
   <g id="PolyCollection_5">
    <path d="M 365.024473 253.248 
L 363.70591 253.248 
L 363.523744 251.23103 
L 363.292805 249.214061 
L 363.003064 247.197091 
L 362.64555 245.180121 
L 362.213465 243.163152 
L 361.702976 241.146182 
L 361.113554 239.129212 
L 360.447822 237.112242 
L 359.711024 235.095273 
L 358.910274 233.078303 
L 358.0537 231.061333 
L 357.149517 229.044364 
L 356.205021 227.027394 
L 355.225521 225.010424 
L 354.21335 222.993455 
L 353.167269 220.976485 
L 352.082581 218.959515 
L 350.952187 216.942545 
L 349.768457 214.925576 
L 348.525446 212.908606 
L 347.22078 210.891636 
L 345.856589 208.874667 
L 344.439261 206.857697 
L 342.978335 204.840727 
L 341.485313 202.823758 
L 339.973303 200.806788 
L 338.458069 198.789818 
L 336.960405 196.772848 
L 335.508936 194.755879 
L 334.141946 192.738909 
L 332.906737 190.721939 
L 331.855652 188.70497 
L 331.038852 186.688 
L 330.495155 184.67103 
L 330.24311 182.654061 
L 330.27476 180.637091 
L 330.554084 178.620121 
L 331.020992 176.603152 
L 331.60033 174.586182 
L 332.214026 172.569212 
L 332.793745 170.552242 
L 333.291299 168.535273 
L 333.684738 166.518303 
L 333.979176 164.501333 
L 334.202708 162.484364 
L 334.39884 160.467394 
L 334.61748 158.450424 
L 334.906455 156.433455 
L 335.305031 154.416485 
L 335.840049 152.399515 
L 336.524531 150.382545 
L 337.358184 148.365576 
L 338.329112 146.348606 
L 339.416321 144.331636 
L 340.592773 142.314667 
L 341.828885 140.297697 
L 343.096143 138.280727 
L 344.370305 136.263758 
L 345.633501 134.246788 
L 346.874708 132.229818 
L 348.088551 130.212848 
L 349.272859 128.195879 
L 350.42586 126.178909 
L 351.543878 124.161939 
L 352.620168 122.14497 
L 353.64504 120.128 
L 354.606983 118.11103 
L 355.494318 116.094061 
L 356.296868 114.077091 
L 357.007371 112.060121 
L 357.622501 110.043152 
L 358.143553 108.026182 
L 358.576811 106.009212 
L 358.933564 103.992242 
L 359.229633 101.975273 
L 359.484266 99.958303 
L 359.718317 97.941333 
L 359.95185 95.924364 
L 360.201504 93.907394 
L 360.478142 91.890424 
L 360.78534 89.873455 
L 361.119102 87.856485 
L 361.468912 85.839515 
L 361.819871 83.822545 
L 362.155434 81.805576 
L 362.460117 79.788606 
L 362.721693 77.771636 
L 362.932574 75.754667 
L 363.090354 73.737697 
L 363.197641 71.720727 
L 363.261373 69.703758 
L 363.291811 67.686788 
L 363.301283 65.669818 
L 363.302769 63.652848 
L 363.308408 61.635879 
L 363.328085 59.618909 
L 363.368306 57.601939 
L 363.431576 55.58497 
L 363.516419 53.568 
L 365.213963 53.568 
L 365.213963 53.568 
L 365.298807 55.58497 
L 365.362076 57.601939 
L 365.402297 59.618909 
L 365.421974 61.635879 
L 365.427613 63.652848 
L 365.429099 65.669818 
L 365.438571 67.686788 
L 365.469009 69.703758 
L 365.532742 71.720727 
L 365.640028 73.737697 
L 365.797809 75.754667 
L 366.00869 77.771636 
L 366.270265 79.788606 
L 366.574948 81.805576 
L 366.910511 83.822545 
L 367.261471 85.839515 
L 367.61128 87.856485 
L 367.945042 89.873455 
L 368.252241 91.890424 
L 368.528878 93.907394 
L 368.778532 95.924364 
L 369.012065 97.941333 
L 369.246116 99.958303 
L 369.500749 101.975273 
L 369.796818 103.992242 
L 370.153571 106.009212 
L 370.586829 108.026182 
L 371.107881 110.043152 
L 371.723011 112.060121 
L 372.433514 114.077091 
L 373.236065 116.094061 
L 374.123399 118.11103 
L 375.085342 120.128 
L 376.110214 122.14497 
L 377.186505 124.161939 
L 378.304522 126.178909 
L 379.457523 128.195879 
L 380.641832 130.212848 
L 381.855674 132.229818 
L 383.096882 134.246788 
L 384.360077 136.263758 
L 385.634239 138.280727 
L 386.901497 140.297697 
L 388.137609 142.314667 
L 389.314062 144.331636 
L 390.40127 146.348606 
L 391.372198 148.365576 
L 392.205851 150.382545 
L 392.890333 152.399515 
L 393.425351 154.416485 
L 393.823928 156.433455 
L 394.112902 158.450424 
L 394.331542 160.467394 
L 394.527675 162.484364 
L 394.751206 164.501333 
L 395.045645 166.518303 
L 395.439083 168.535273 
L 395.936637 170.552242 
L 396.516356 172.569212 
L 397.130053 174.586182 
L 397.70939 176.603152 
L 398.176299 178.620121 
L 398.455623 180.637091 
L 398.487273 182.654061 
L 398.235228 184.67103 
L 397.69153 186.688 
L 396.87473 188.70497 
L 395.823645 190.721939 
L 394.588437 192.738909 
L 393.221446 194.755879 
L 391.769977 196.772848 
L 390.272313 198.789818 
L 388.75708 200.806788 
L 387.245069 202.823758 
L 385.752047 204.840727 
L 384.291121 206.857697 
L 382.873793 208.874667 
L 381.509603 210.891636 
L 380.204936 212.908606 
L 378.961925 214.925576 
L 377.778195 216.942545 
L 376.647802 218.959515 
L 375.563114 220.976485 
L 374.517032 222.993455 
L 373.504862 225.010424 
L 372.525361 227.027394 
L 371.580866 229.044364 
L 370.676682 231.061333 
L 369.820108 233.078303 
L 369.019358 235.095273 
L 368.28256 237.112242 
L 367.616828 239.129212 
L 367.027407 241.146182 
L 366.516917 243.163152 
L 366.084832 245.180121 
L 365.727318 247.197091 
L 365.437577 249.214061 
L 365.206638 251.23103 
L 365.024473 253.248 
z
" clip-path="url(#p258d71cc62)" style="fill: #1f77b4; fill-opacity: 0.3"/>
   </g>
   <g id="matplotlib.axis_1">
    <g id="xtick_1">
     <g id="line2d_1">
      <path d="M 65.302207 307.584 
L 65.302207 41.472 
" clip-path="url(#p258d71cc62)" style="fill: none; stroke-dasharray: 2.96,1.28; stroke-dashoffset: 0; stroke: #b0b0b0; stroke-width: 0.8"/>
     </g>
     <g id="line2d_2">
      <defs>
       <path id="mf745882f0b" d="M 0 0 
L 0 3.5 
" style="stroke: #000000; stroke-width: 0.8"/>
      </defs>
      <g>
       <use xlink:href="#mf745882f0b" x="65.302207" y="307.584" style="stroke: #000000; stroke-width: 0.8"/>
      </g>
     </g>
     <g id="text_1">
      <!-- 2500 -->
      <g transform="translate(52.577207 322.182437)scale(0.1 -0.1)">
       <defs>
        <path id="DejaVuSans-32" d="M 1228 531 
L 3431 531 
L 3431 0 
L 469 0 
L 469 531 
Q 828 903 1448 1529 
Q 2069 2156 2228 2338 
Q 2531 2678 2651 2914 
Q 2772 3150 2772 3378 
Q 2772 3750 2511 3984 
Q 2250 4219 1831 4219 
Q 1534 4219 1204 4116 
Q 875 4013 500 3803 
L 500 4441 
Q 881 4594 1212 4672 
Q 1544 4750 1819 4750 
Q 2544 4750 2975 4387 
Q 3406 4025 3406 3419 
Q 3406 3131 3298 2873 
Q 3191 2616 2906 2266 
Q 2828 2175 2409 1742 
Q 1991 1309 1228 531 
z
" transform="scale(0.015625)"/>
        <path id="DejaVuSans-35" d="M 691 4666 
L 3169 4666 
L 3169 4134 
L 1269 4134 
L 1269 2991 
Q 1406 3038 1543 3061 
Q 1681 3084 1819 3084 
Q 2600 3084 3056 2656 
Q 3513 2228 3513 1497 
Q 3513 744 3044 326 
Q 2575 -91 1722 -91 
Q 1428 -91 1123 -41 
Q 819 9 494 109 
L 494 744 
Q 775 591 1075 516 
Q 1375 441 1709 441 
Q 2250 441 2565 725 
Q 2881 1009 2881 1497 
Q 2881 1984 2565 2268 
Q 2250 2553 1709 2553 
Q 1456 2553 1204 2497 
Q 953 2441 691 2322 
L 691 4666 
z
" transform="scale(0.015625)"/>
        <path id="DejaVuSans-30" d="M 2034 4250 
Q 1547 4250 1301 3770 
Q 1056 3291 1056 2328 
Q 1056 1369 1301 889 
Q 1547 409 2034 409 
Q 2525 409 2770 889 
Q 3016 1369 3016 2328 
Q 3016 3291 2770 3770 
Q 2525 4250 2034 4250 
z
M 2034 4750 
Q 2819 4750 3233 4129 
Q 3647 3509 3647 2328 
Q 3647 1150 3233 529 
Q 2819 -91 2034 -91 
Q 1250 -91 836 529 
Q 422 1150 422 2328 
Q 422 3509 836 4129 
Q 1250 4750 2034 4750 
z
" transform="scale(0.015625)"/>
       </defs>
       <use xlink:href="#DejaVuSans-32"/>
       <use xlink:href="#DejaVuSans-35" x="63.623047"/>
       <use xlink:href="#DejaVuSans-30" x="127.246094"/>
       <use xlink:href="#DejaVuSans-30" x="190.869141"/>
      </g>
     </g>
    </g>
    <g id="xtick_2">
     <g id="line2d_3">
      <path d="M 107.954809 307.584 
L 107.954809 41.472 
" clip-path="url(#p258d71cc62)" style="fill: none; stroke-dasharray: 2.96,1.28; stroke-dashoffset: 0; stroke: #b0b0b0; stroke-width: 0.8"/>
     </g>
     <g id="line2d_4">
      <g>
       <use xlink:href="#mf745882f0b" x="107.954809" y="307.584" style="stroke: #000000; stroke-width: 0.8"/>
      </g>
     </g>
     <g id="text_2">
      <!-- 5000 -->
      <g transform="translate(95.229809 322.182437)scale(0.1 -0.1)">
       <use xlink:href="#DejaVuSans-35"/>
       <use xlink:href="#DejaVuSans-30" x="63.623047"/>
       <use xlink:href="#DejaVuSans-30" x="127.246094"/>
       <use xlink:href="#DejaVuSans-30" x="190.869141"/>
      </g>
     </g>
    </g>
    <g id="xtick_3">
     <g id="line2d_5">
      <path d="M 150.607411 307.584 
L 150.607411 41.472 
" clip-path="url(#p258d71cc62)" style="fill: none; stroke-dasharray: 2.96,1.28; stroke-dashoffset: 0; stroke: #b0b0b0; stroke-width: 0.8"/>
     </g>
     <g id="line2d_6">
      <g>
       <use xlink:href="#mf745882f0b" x="150.607411" y="307.584" style="stroke: #000000; stroke-width: 0.8"/>
      </g>
     </g>
     <g id="text_3">
      <!-- 7500 -->
      <g transform="translate(137.882411 322.182437)scale(0.1 -0.1)">
       <defs>
        <path id="DejaVuSans-37" d="M 525 4666 
L 3525 4666 
L 3525 4397 
L 1831 0 
L 1172 0 
L 2766 4134 
L 525 4134 
L 525 4666 
z
" transform="scale(0.015625)"/>
       </defs>
       <use xlink:href="#DejaVuSans-37"/>
       <use xlink:href="#DejaVuSans-35" x="63.623047"/>
       <use xlink:href="#DejaVuSans-30" x="127.246094"/>
       <use xlink:href="#DejaVuSans-30" x="190.869141"/>
      </g>
     </g>
    </g>
    <g id="xtick_4">
     <g id="line2d_7">
      <path d="M 193.260013 307.584 
L 193.260013 41.472 
" clip-path="url(#p258d71cc62)" style="fill: none; stroke-dasharray: 2.96,1.28; stroke-dashoffset: 0; stroke: #b0b0b0; stroke-width: 0.8"/>
     </g>
     <g id="line2d_8">
      <g>
       <use xlink:href="#mf745882f0b" x="193.260013" y="307.584" style="stroke: #000000; stroke-width: 0.8"/>
      </g>
     </g>
     <g id="text_4">
      <!-- 10000 -->
      <g transform="translate(177.353763 322.182437)scale(0.1 -0.1)">
       <defs>
        <path id="DejaVuSans-31" d="M 794 531 
L 1825 531 
L 1825 4091 
L 703 3866 
L 703 4441 
L 1819 4666 
L 2450 4666 
L 2450 531 
L 3481 531 
L 3481 0 
L 794 0 
L 794 531 
z
" transform="scale(0.015625)"/>
       </defs>
       <use xlink:href="#DejaVuSans-31"/>
       <use xlink:href="#DejaVuSans-30" x="63.623047"/>
       <use xlink:href="#DejaVuSans-30" x="127.246094"/>
       <use xlink:href="#DejaVuSans-30" x="190.869141"/>
       <use xlink:href="#DejaVuSans-30" x="254.492188"/>
      </g>
     </g>
    </g>
    <g id="xtick_5">
     <g id="line2d_9">
      <path d="M 235.912615 307.584 
L 235.912615 41.472 
" clip-path="url(#p258d71cc62)" style="fill: none; stroke-dasharray: 2.96,1.28; stroke-dashoffset: 0; stroke: #b0b0b0; stroke-width: 0.8"/>
     </g>
     <g id="line2d_10">
      <g>
       <use xlink:href="#mf745882f0b" x="235.912615" y="307.584" style="stroke: #000000; stroke-width: 0.8"/>
      </g>
     </g>
     <g id="text_5">
      <!-- 12500 -->
      <g transform="translate(220.006365 322.182437)scale(0.1 -0.1)">
       <use xlink:href="#DejaVuSans-31"/>
       <use xlink:href="#DejaVuSans-32" x="63.623047"/>
       <use xlink:href="#DejaVuSans-35" x="127.246094"/>
       <use xlink:href="#DejaVuSans-30" x="190.869141"/>
       <use xlink:href="#DejaVuSans-30" x="254.492188"/>
      </g>
     </g>
    </g>
    <g id="xtick_6">
     <g id="line2d_11">
      <path d="M 278.565217 307.584 
L 278.565217 41.472 
" clip-path="url(#p258d71cc62)" style="fill: none; stroke-dasharray: 2.96,1.28; stroke-dashoffset: 0; stroke: #b0b0b0; stroke-width: 0.8"/>
     </g>
     <g id="line2d_12">
      <g>
       <use xlink:href="#mf745882f0b" x="278.565217" y="307.584" style="stroke: #000000; stroke-width: 0.8"/>
      </g>
     </g>
     <g id="text_6">
      <!-- 15000 -->
      <g transform="translate(262.658967 322.182437)scale(0.1 -0.1)">
       <use xlink:href="#DejaVuSans-31"/>
       <use xlink:href="#DejaVuSans-35" x="63.623047"/>
       <use xlink:href="#DejaVuSans-30" x="127.246094"/>
       <use xlink:href="#DejaVuSans-30" x="190.869141"/>
       <use xlink:href="#DejaVuSans-30" x="254.492188"/>
      </g>
     </g>
    </g>
    <g id="xtick_7">
     <g id="line2d_13">
      <path d="M 321.217819 307.584 
L 321.217819 41.472 
" clip-path="url(#p258d71cc62)" style="fill: none; stroke-dasharray: 2.96,1.28; stroke-dashoffset: 0; stroke: #b0b0b0; stroke-width: 0.8"/>
     </g>
     <g id="line2d_14">
      <g>
       <use xlink:href="#mf745882f0b" x="321.217819" y="307.584" style="stroke: #000000; stroke-width: 0.8"/>
      </g>
     </g>
     <g id="text_7">
      <!-- 17500 -->
      <g transform="translate(305.311569 322.182437)scale(0.1 -0.1)">
       <use xlink:href="#DejaVuSans-31"/>
       <use xlink:href="#DejaVuSans-37" x="63.623047"/>
       <use xlink:href="#DejaVuSans-35" x="127.246094"/>
       <use xlink:href="#DejaVuSans-30" x="190.869141"/>
       <use xlink:href="#DejaVuSans-30" x="254.492188"/>
      </g>
     </g>
    </g>
    <g id="xtick_8">
     <g id="line2d_15">
      <path d="M 363.870421 307.584 
L 363.870421 41.472 
" clip-path="url(#p258d71cc62)" style="fill: none; stroke-dasharray: 2.96,1.28; stroke-dashoffset: 0; stroke: #b0b0b0; stroke-width: 0.8"/>
     </g>
     <g id="line2d_16">
      <g>
       <use xlink:href="#mf745882f0b" x="363.870421" y="307.584" style="stroke: #000000; stroke-width: 0.8"/>
      </g>
     </g>
     <g id="text_8">
      <!-- 20000 -->
      <g transform="translate(347.964171 322.182437)scale(0.1 -0.1)">
       <use xlink:href="#DejaVuSans-32"/>
       <use xlink:href="#DejaVuSans-30" x="63.623047"/>
       <use xlink:href="#DejaVuSans-30" x="127.246094"/>
       <use xlink:href="#DejaVuSans-30" x="190.869141"/>
       <use xlink:href="#DejaVuSans-30" x="254.492188"/>
      </g>
     </g>
    </g>
    <g id="xtick_9">
     <g id="line2d_17">
      <path d="M 406.523023 307.584 
L 406.523023 41.472 
" clip-path="url(#p258d71cc62)" style="fill: none; stroke-dasharray: 2.96,1.28; stroke-dashoffset: 0; stroke: #b0b0b0; stroke-width: 0.8"/>
     </g>
     <g id="line2d_18">
      <g>
       <use xlink:href="#mf745882f0b" x="406.523023" y="307.584" style="stroke: #000000; stroke-width: 0.8"/>
      </g>
     </g>
     <g id="text_9">
      <!-- 22500 -->
      <g transform="translate(390.616773 322.182437)scale(0.1 -0.1)">
       <use xlink:href="#DejaVuSans-32"/>
       <use xlink:href="#DejaVuSans-32" x="63.623047"/>
       <use xlink:href="#DejaVuSans-35" x="127.246094"/>
       <use xlink:href="#DejaVuSans-30" x="190.869141"/>
       <use xlink:href="#DejaVuSans-30" x="254.492188"/>
      </g>
     </g>
    </g>
    <g id="text_10">
     <!-- Learned Episodes -->
     <g transform="translate(192.102187 335.860562)scale(0.1 -0.1)">
      <defs>
       <path id="DejaVuSans-4c" d="M 628 4666 
L 1259 4666 
L 1259 531 
L 3531 531 
L 3531 0 
L 628 0 
L 628 4666 
z
" transform="scale(0.015625)"/>
       <path id="DejaVuSans-65" d="M 3597 1894 
L 3597 1613 
L 953 1613 
Q 991 1019 1311 708 
Q 1631 397 2203 397 
Q 2534 397 2845 478 
Q 3156 559 3463 722 
L 3463 178 
Q 3153 47 2828 -22 
Q 2503 -91 2169 -91 
Q 1331 -91 842 396 
Q 353 884 353 1716 
Q 353 2575 817 3079 
Q 1281 3584 2069 3584 
Q 2775 3584 3186 3129 
Q 3597 2675 3597 1894 
z
M 3022 2063 
Q 3016 2534 2758 2815 
Q 2500 3097 2075 3097 
Q 1594 3097 1305 2825 
Q 1016 2553 972 2059 
L 3022 2063 
z
" transform="scale(0.015625)"/>
       <path id="DejaVuSans-61" d="M 2194 1759 
Q 1497 1759 1228 1600 
Q 959 1441 959 1056 
Q 959 750 1161 570 
Q 1363 391 1709 391 
Q 2188 391 2477 730 
Q 2766 1069 2766 1631 
L 2766 1759 
L 2194 1759 
z
M 3341 1997 
L 3341 0 
L 2766 0 
L 2766 531 
Q 2569 213 2275 61 
Q 1981 -91 1556 -91 
Q 1019 -91 701 211 
Q 384 513 384 1019 
Q 384 1609 779 1909 
Q 1175 2209 1959 2209 
L 2766 2209 
L 2766 2266 
Q 2766 2663 2505 2880 
Q 2244 3097 1772 3097 
Q 1472 3097 1187 3025 
Q 903 2953 641 2809 
L 641 3341 
Q 956 3463 1253 3523 
Q 1550 3584 1831 3584 
Q 2591 3584 2966 3190 
Q 3341 2797 3341 1997 
z
" transform="scale(0.015625)"/>
       <path id="DejaVuSans-72" d="M 2631 2963 
Q 2534 3019 2420 3045 
Q 2306 3072 2169 3072 
Q 1681 3072 1420 2755 
Q 1159 2438 1159 1844 
L 1159 0 
L 581 0 
L 581 3500 
L 1159 3500 
L 1159 2956 
Q 1341 3275 1631 3429 
Q 1922 3584 2338 3584 
Q 2397 3584 2469 3576 
Q 2541 3569 2628 3553 
L 2631 2963 
z
" transform="scale(0.015625)"/>
       <path id="DejaVuSans-6e" d="M 3513 2113 
L 3513 0 
L 2938 0 
L 2938 2094 
Q 2938 2591 2744 2837 
Q 2550 3084 2163 3084 
Q 1697 3084 1428 2787 
Q 1159 2491 1159 1978 
L 1159 0 
L 581 0 
L 581 3500 
L 1159 3500 
L 1159 2956 
Q 1366 3272 1645 3428 
Q 1925 3584 2291 3584 
Q 2894 3584 3203 3211 
Q 3513 2838 3513 2113 
z
" transform="scale(0.015625)"/>
       <path id="DejaVuSans-64" d="M 2906 2969 
L 2906 4863 
L 3481 4863 
L 3481 0 
L 2906 0 
L 2906 525 
Q 2725 213 2448 61 
Q 2172 -91 1784 -91 
Q 1150 -91 751 415 
Q 353 922 353 1747 
Q 353 2572 751 3078 
Q 1150 3584 1784 3584 
Q 2172 3584 2448 3432 
Q 2725 3281 2906 2969 
z
M 947 1747 
Q 947 1113 1208 752 
Q 1469 391 1925 391 
Q 2381 391 2643 752 
Q 2906 1113 2906 1747 
Q 2906 2381 2643 2742 
Q 2381 3103 1925 3103 
Q 1469 3103 1208 2742 
Q 947 2381 947 1747 
z
" transform="scale(0.015625)"/>
       <path id="DejaVuSans-20" transform="scale(0.015625)"/>
       <path id="DejaVuSans-45" d="M 628 4666 
L 3578 4666 
L 3578 4134 
L 1259 4134 
L 1259 2753 
L 3481 2753 
L 3481 2222 
L 1259 2222 
L 1259 531 
L 3634 531 
L 3634 0 
L 628 0 
L 628 4666 
z
" transform="scale(0.015625)"/>
       <path id="DejaVuSans-70" d="M 1159 525 
L 1159 -1331 
L 581 -1331 
L 581 3500 
L 1159 3500 
L 1159 2969 
Q 1341 3281 1617 3432 
Q 1894 3584 2278 3584 
Q 2916 3584 3314 3078 
Q 3713 2572 3713 1747 
Q 3713 922 3314 415 
Q 2916 -91 2278 -91 
Q 1894 -91 1617 61 
Q 1341 213 1159 525 
z
M 3116 1747 
Q 3116 2381 2855 2742 
Q 2594 3103 2138 3103 
Q 1681 3103 1420 2742 
Q 1159 2381 1159 1747 
Q 1159 1113 1420 752 
Q 1681 391 2138 391 
Q 2594 391 2855 752 
Q 3116 1113 3116 1747 
z
" transform="scale(0.015625)"/>
       <path id="DejaVuSans-69" d="M 603 3500 
L 1178 3500 
L 1178 0 
L 603 0 
L 603 3500 
z
M 603 4863 
L 1178 4863 
L 1178 4134 
L 603 4134 
L 603 4863 
z
" transform="scale(0.015625)"/>
       <path id="DejaVuSans-73" d="M 2834 3397 
L 2834 2853 
Q 2591 2978 2328 3040 
Q 2066 3103 1784 3103 
Q 1356 3103 1142 2972 
Q 928 2841 928 2578 
Q 928 2378 1081 2264 
Q 1234 2150 1697 2047 
L 1894 2003 
Q 2506 1872 2764 1633 
Q 3022 1394 3022 966 
Q 3022 478 2636 193 
Q 2250 -91 1575 -91 
Q 1294 -91 989 -36 
Q 684 19 347 128 
L 347 722 
Q 666 556 975 473 
Q 1284 391 1588 391 
Q 1994 391 2212 530 
Q 2431 669 2431 922 
Q 2431 1156 2273 1281 
Q 2116 1406 1581 1522 
L 1381 1569 
Q 847 1681 609 1914 
Q 372 2147 372 2553 
Q 372 3047 722 3315 
Q 1072 3584 1716 3584 
Q 2034 3584 2315 3537 
Q 2597 3491 2834 3397 
z
" transform="scale(0.015625)"/>
       <path id="DejaVuSans-6f" d="M 1959 3097 
Q 1497 3097 1228 2736 
Q 959 2375 959 1747 
Q 959 1119 1226 758 
Q 1494 397 1959 397 
Q 2419 397 2687 759 
Q 2956 1122 2956 1747 
Q 2956 2369 2687 2733 
Q 2419 3097 1959 3097 
z
M 1959 3584 
Q 2709 3584 3137 3096 
Q 3566 2609 3566 1747 
Q 3566 888 3137 398 
Q 2709 -91 1959 -91 
Q 1206 -91 779 398 
Q 353 888 353 1747 
Q 353 2609 779 3096 
Q 1206 3584 1959 3584 
z
" transform="scale(0.015625)"/>
      </defs>
      <use xlink:href="#DejaVuSans-4c"/>
      <use xlink:href="#DejaVuSans-65" x="53.962891"/>
      <use xlink:href="#DejaVuSans-61" x="115.486328"/>
      <use xlink:href="#DejaVuSans-72" x="176.765625"/>
      <use xlink:href="#DejaVuSans-6e" x="216.128906"/>
      <use xlink:href="#DejaVuSans-65" x="279.507812"/>
      <use xlink:href="#DejaVuSans-64" x="341.03125"/>
      <use xlink:href="#DejaVuSans-20" x="404.507812"/>
      <use xlink:href="#DejaVuSans-45" x="436.294922"/>
      <use xlink:href="#DejaVuSans-70" x="499.478516"/>
      <use xlink:href="#DejaVuSans-69" x="562.955078"/>
      <use xlink:href="#DejaVuSans-73" x="590.738281"/>
      <use xlink:href="#DejaVuSans-6f" x="642.837891"/>
      <use xlink:href="#DejaVuSans-64" x="704.019531"/>
      <use xlink:href="#DejaVuSans-65" x="767.496094"/>
      <use xlink:href="#DejaVuSans-73" x="829.019531"/>
     </g>
    </g>
   </g>
   <g id="matplotlib.axis_2">
    <g id="ytick_1">
     <g id="line2d_19">
      <path d="M 57.6 291.648 
L 414.72 291.648 
" clip-path="url(#p258d71cc62)" style="fill: none; stroke-dasharray: 2.96,1.28; stroke-dashoffset: 0; stroke: #b0b0b0; stroke-width: 0.8"/>
     </g>
     <g id="line2d_20">
      <defs>
       <path id="m8c64101735" d="M 0 0 
L -3.5 0 
" style="stroke: #000000; stroke-width: 0.8"/>
      </defs>
      <g>
       <use xlink:href="#m8c64101735" x="57.6" y="291.648" style="stroke: #000000; stroke-width: 0.8"/>
      </g>
     </g>
     <g id="text_11">
      <!-- 30 -->
      <g transform="translate(37.875 295.447219)scale(0.1 -0.1)">
       <defs>
        <path id="DejaVuSans-33" d="M 2597 2516 
Q 3050 2419 3304 2112 
Q 3559 1806 3559 1356 
Q 3559 666 3084 287 
Q 2609 -91 1734 -91 
Q 1441 -91 1130 -33 
Q 819 25 488 141 
L 488 750 
Q 750 597 1062 519 
Q 1375 441 1716 441 
Q 2309 441 2620 675 
Q 2931 909 2931 1356 
Q 2931 1769 2642 2001 
Q 2353 2234 1838 2234 
L 1294 2234 
L 1294 2753 
L 1863 2753 
Q 2328 2753 2575 2939 
Q 2822 3125 2822 3475 
Q 2822 3834 2567 4026 
Q 2313 4219 1838 4219 
Q 1578 4219 1281 4162 
Q 984 4106 628 3988 
L 628 4550 
Q 988 4650 1302 4700 
Q 1616 4750 1894 4750 
Q 2613 4750 3031 4423 
Q 3450 4097 3450 3541 
Q 3450 3153 3228 2886 
Q 3006 2619 2597 2516 
z
" transform="scale(0.015625)"/>
       </defs>
       <use xlink:href="#DejaVuSans-33"/>
       <use xlink:href="#DejaVuSans-30" x="63.623047"/>
      </g>
     </g>
    </g>
    <g id="ytick_2">
     <g id="line2d_21">
      <path d="M 57.6 253.248 
L 414.72 253.248 
" clip-path="url(#p258d71cc62)" style="fill: none; stroke-dasharray: 2.96,1.28; stroke-dashoffset: 0; stroke: #b0b0b0; stroke-width: 0.8"/>
     </g>
     <g id="line2d_22">
      <g>
       <use xlink:href="#m8c64101735" x="57.6" y="253.248" style="stroke: #000000; stroke-width: 0.8"/>
      </g>
     </g>
     <g id="text_12">
      <!-- 40 -->
      <g transform="translate(37.875 257.047219)scale(0.1 -0.1)">
       <defs>
        <path id="DejaVuSans-34" d="M 2419 4116 
L 825 1625 
L 2419 1625 
L 2419 4116 
z
M 2253 4666 
L 3047 4666 
L 3047 1625 
L 3713 1625 
L 3713 1100 
L 3047 1100 
L 3047 0 
L 2419 0 
L 2419 1100 
L 313 1100 
L 313 1709 
L 2253 4666 
z
" transform="scale(0.015625)"/>
       </defs>
       <use xlink:href="#DejaVuSans-34"/>
       <use xlink:href="#DejaVuSans-30" x="63.623047"/>
      </g>
     </g>
    </g>
    <g id="ytick_3">
     <g id="line2d_23">
      <path d="M 57.6 214.848 
L 414.72 214.848 
" clip-path="url(#p258d71cc62)" style="fill: none; stroke-dasharray: 2.96,1.28; stroke-dashoffset: 0; stroke: #b0b0b0; stroke-width: 0.8"/>
     </g>
     <g id="line2d_24">
      <g>
       <use xlink:href="#m8c64101735" x="57.6" y="214.848" style="stroke: #000000; stroke-width: 0.8"/>
      </g>
     </g>
     <g id="text_13">
      <!-- 50 -->
      <g transform="translate(37.875 218.647219)scale(0.1 -0.1)">
       <use xlink:href="#DejaVuSans-35"/>
       <use xlink:href="#DejaVuSans-30" x="63.623047"/>
      </g>
     </g>
    </g>
    <g id="ytick_4">
     <g id="line2d_25">
      <path d="M 57.6 176.448 
L 414.72 176.448 
" clip-path="url(#p258d71cc62)" style="fill: none; stroke-dasharray: 2.96,1.28; stroke-dashoffset: 0; stroke: #b0b0b0; stroke-width: 0.8"/>
     </g>
     <g id="line2d_26">
      <g>
       <use xlink:href="#m8c64101735" x="57.6" y="176.448" style="stroke: #000000; stroke-width: 0.8"/>
      </g>
     </g>
     <g id="text_14">
      <!-- 60 -->
      <g transform="translate(37.875 180.247219)scale(0.1 -0.1)">
       <defs>
        <path id="DejaVuSans-36" d="M 2113 2584 
Q 1688 2584 1439 2293 
Q 1191 2003 1191 1497 
Q 1191 994 1439 701 
Q 1688 409 2113 409 
Q 2538 409 2786 701 
Q 3034 994 3034 1497 
Q 3034 2003 2786 2293 
Q 2538 2584 2113 2584 
z
M 3366 4563 
L 3366 3988 
Q 3128 4100 2886 4159 
Q 2644 4219 2406 4219 
Q 1781 4219 1451 3797 
Q 1122 3375 1075 2522 
Q 1259 2794 1537 2939 
Q 1816 3084 2150 3084 
Q 2853 3084 3261 2657 
Q 3669 2231 3669 1497 
Q 3669 778 3244 343 
Q 2819 -91 2113 -91 
Q 1303 -91 875 529 
Q 447 1150 447 2328 
Q 447 3434 972 4092 
Q 1497 4750 2381 4750 
Q 2619 4750 2861 4703 
Q 3103 4656 3366 4563 
z
" transform="scale(0.015625)"/>
       </defs>
       <use xlink:href="#DejaVuSans-36"/>
       <use xlink:href="#DejaVuSans-30" x="63.623047"/>
      </g>
     </g>
    </g>
    <g id="ytick_5">
     <g id="line2d_27">
      <path d="M 57.6 138.048 
L 414.72 138.048 
" clip-path="url(#p258d71cc62)" style="fill: none; stroke-dasharray: 2.96,1.28; stroke-dashoffset: 0; stroke: #b0b0b0; stroke-width: 0.8"/>
     </g>
     <g id="line2d_28">
      <g>
       <use xlink:href="#m8c64101735" x="57.6" y="138.048" style="stroke: #000000; stroke-width: 0.8"/>
      </g>
     </g>
     <g id="text_15">
      <!-- 70 -->
      <g transform="translate(37.875 141.847219)scale(0.1 -0.1)">
       <use xlink:href="#DejaVuSans-37"/>
       <use xlink:href="#DejaVuSans-30" x="63.623047"/>
      </g>
     </g>
    </g>
    <g id="ytick_6">
     <g id="line2d_29">
      <path d="M 57.6 99.648 
L 414.72 99.648 
" clip-path="url(#p258d71cc62)" style="fill: none; stroke-dasharray: 2.96,1.28; stroke-dashoffset: 0; stroke: #b0b0b0; stroke-width: 0.8"/>
     </g>
     <g id="line2d_30">
      <g>
       <use xlink:href="#m8c64101735" x="57.6" y="99.648" style="stroke: #000000; stroke-width: 0.8"/>
      </g>
     </g>
     <g id="text_16">
      <!-- 80 -->
      <g transform="translate(37.875 103.447219)scale(0.1 -0.1)">
       <defs>
        <path id="DejaVuSans-38" d="M 2034 2216 
Q 1584 2216 1326 1975 
Q 1069 1734 1069 1313 
Q 1069 891 1326 650 
Q 1584 409 2034 409 
Q 2484 409 2743 651 
Q 3003 894 3003 1313 
Q 3003 1734 2745 1975 
Q 2488 2216 2034 2216 
z
M 1403 2484 
Q 997 2584 770 2862 
Q 544 3141 544 3541 
Q 544 4100 942 4425 
Q 1341 4750 2034 4750 
Q 2731 4750 3128 4425 
Q 3525 4100 3525 3541 
Q 3525 3141 3298 2862 
Q 3072 2584 2669 2484 
Q 3125 2378 3379 2068 
Q 3634 1759 3634 1313 
Q 3634 634 3220 271 
Q 2806 -91 2034 -91 
Q 1263 -91 848 271 
Q 434 634 434 1313 
Q 434 1759 690 2068 
Q 947 2378 1403 2484 
z
M 1172 3481 
Q 1172 3119 1398 2916 
Q 1625 2713 2034 2713 
Q 2441 2713 2670 2916 
Q 2900 3119 2900 3481 
Q 2900 3844 2670 4047 
Q 2441 4250 2034 4250 
Q 1625 4250 1398 4047 
Q 1172 3844 1172 3481 
z
" transform="scale(0.015625)"/>
       </defs>
       <use xlink:href="#DejaVuSans-38"/>
       <use xlink:href="#DejaVuSans-30" x="63.623047"/>
      </g>
     </g>
    </g>
    <g id="ytick_7">
     <g id="line2d_31">
      <path d="M 57.6 61.248 
L 414.72 61.248 
" clip-path="url(#p258d71cc62)" style="fill: none; stroke-dasharray: 2.96,1.28; stroke-dashoffset: 0; stroke: #b0b0b0; stroke-width: 0.8"/>
     </g>
     <g id="line2d_32">
      <g>
       <use xlink:href="#m8c64101735" x="57.6" y="61.248" style="stroke: #000000; stroke-width: 0.8"/>
      </g>
     </g>
     <g id="text_17">
      <!-- 90 -->
      <g transform="translate(37.875 65.047219)scale(0.1 -0.1)">
       <defs>
        <path id="DejaVuSans-39" d="M 703 97 
L 703 672 
Q 941 559 1184 500 
Q 1428 441 1663 441 
Q 2288 441 2617 861 
Q 2947 1281 2994 2138 
Q 2813 1869 2534 1725 
Q 2256 1581 1919 1581 
Q 1219 1581 811 2004 
Q 403 2428 403 3163 
Q 403 3881 828 4315 
Q 1253 4750 1959 4750 
Q 2769 4750 3195 4129 
Q 3622 3509 3622 2328 
Q 3622 1225 3098 567 
Q 2575 -91 1691 -91 
Q 1453 -91 1209 -44 
Q 966 3 703 97 
z
M 1959 2075 
Q 2384 2075 2632 2365 
Q 2881 2656 2881 3163 
Q 2881 3666 2632 3958 
Q 2384 4250 1959 4250 
Q 1534 4250 1286 3958 
Q 1038 3666 1038 3163 
Q 1038 2656 1286 2365 
Q 1534 2075 1959 2075 
z
" transform="scale(0.015625)"/>
       </defs>
       <use xlink:href="#DejaVuSans-39"/>
       <use xlink:href="#DejaVuSans-30" x="63.623047"/>
      </g>
     </g>
    </g>
    <g id="text_18">
     <!-- Reward Density -->
     <g transform="translate(31.795312 213.74675)rotate(-90)scale(0.1 -0.1)">
      <defs>
       <path id="DejaVuSans-52" d="M 2841 2188 
Q 3044 2119 3236 1894 
Q 3428 1669 3622 1275 
L 4263 0 
L 3584 0 
L 2988 1197 
Q 2756 1666 2539 1819 
Q 2322 1972 1947 1972 
L 1259 1972 
L 1259 0 
L 628 0 
L 628 4666 
L 2053 4666 
Q 2853 4666 3247 4331 
Q 3641 3997 3641 3322 
Q 3641 2881 3436 2590 
Q 3231 2300 2841 2188 
z
M 1259 4147 
L 1259 2491 
L 2053 2491 
Q 2509 2491 2742 2702 
Q 2975 2913 2975 3322 
Q 2975 3731 2742 3939 
Q 2509 4147 2053 4147 
L 1259 4147 
z
" transform="scale(0.015625)"/>
       <path id="DejaVuSans-77" d="M 269 3500 
L 844 3500 
L 1563 769 
L 2278 3500 
L 2956 3500 
L 3675 769 
L 4391 3500 
L 4966 3500 
L 4050 0 
L 3372 0 
L 2619 2869 
L 1863 0 
L 1184 0 
L 269 3500 
z
" transform="scale(0.015625)"/>
       <path id="DejaVuSans-44" d="M 1259 4147 
L 1259 519 
L 2022 519 
Q 2988 519 3436 956 
Q 3884 1394 3884 2338 
Q 3884 3275 3436 3711 
Q 2988 4147 2022 4147 
L 1259 4147 
z
M 628 4666 
L 1925 4666 
Q 3281 4666 3915 4102 
Q 4550 3538 4550 2338 
Q 4550 1131 3912 565 
Q 3275 0 1925 0 
L 628 0 
L 628 4666 
z
" transform="scale(0.015625)"/>
       <path id="DejaVuSans-74" d="M 1172 4494 
L 1172 3500 
L 2356 3500 
L 2356 3053 
L 1172 3053 
L 1172 1153 
Q 1172 725 1289 603 
Q 1406 481 1766 481 
L 2356 481 
L 2356 0 
L 1766 0 
Q 1100 0 847 248 
Q 594 497 594 1153 
L 594 3053 
L 172 3053 
L 172 3500 
L 594 3500 
L 594 4494 
L 1172 4494 
z
" transform="scale(0.015625)"/>
       <path id="DejaVuSans-79" d="M 2059 -325 
Q 1816 -950 1584 -1140 
Q 1353 -1331 966 -1331 
L 506 -1331 
L 506 -850 
L 844 -850 
Q 1081 -850 1212 -737 
Q 1344 -625 1503 -206 
L 1606 56 
L 191 3500 
L 800 3500 
L 1894 763 
L 2988 3500 
L 3597 3500 
L 2059 -325 
z
" transform="scale(0.015625)"/>
      </defs>
      <use xlink:href="#DejaVuSans-52"/>
      <use xlink:href="#DejaVuSans-65" x="64.982422"/>
      <use xlink:href="#DejaVuSans-77" x="126.505859"/>
      <use xlink:href="#DejaVuSans-61" x="208.292969"/>
      <use xlink:href="#DejaVuSans-72" x="269.572266"/>
      <use xlink:href="#DejaVuSans-64" x="308.935547"/>
      <use xlink:href="#DejaVuSans-20" x="372.412109"/>
      <use xlink:href="#DejaVuSans-44" x="404.199219"/>
      <use xlink:href="#DejaVuSans-65" x="481.201172"/>
      <use xlink:href="#DejaVuSans-6e" x="542.724609"/>
      <use xlink:href="#DejaVuSans-73" x="606.103516"/>
      <use xlink:href="#DejaVuSans-69" x="658.203125"/>
      <use xlink:href="#DejaVuSans-74" x="685.986328"/>
      <use xlink:href="#DejaVuSans-79" x="725.195312"/>
     </g>
    </g>
   </g>
   <g id="LineCollection_1">
    <path d="M 90.893768 196.73856 
L 125.01585 196.73856 
" clip-path="url(#p258d71cc62)" style="fill: none; stroke: #1f77b4; stroke-width: 1.5"/>
    <path d="M 176.198972 182.92224 
L 210.321054 182.92224 
" clip-path="url(#p258d71cc62)" style="fill: none; stroke: #1f77b4; stroke-width: 1.5"/>
    <path d="M 261.504176 180.7872 
L 295.626258 180.7872 
" clip-path="url(#p258d71cc62)" style="fill: none; stroke: #1f77b4; stroke-width: 1.5"/>
    <path d="M 346.80938 169.15968 
L 380.931462 169.15968 
" clip-path="url(#p258d71cc62)" style="fill: none; stroke: #1f77b4; stroke-width: 1.5"/>
    <path d="M 347.30415 168.29952 
L 381.426232 168.29952 
" clip-path="url(#p258d71cc62)" style="fill: none; stroke: #1f77b4; stroke-width: 1.5"/>
   </g>
   <g id="LineCollection_2">
    <path d="M 90.893768 99.648 
L 125.01585 99.648 
" clip-path="url(#p258d71cc62)" style="fill: none; stroke: #1f77b4; stroke-width: 1.5"/>
    <path d="M 176.198972 91.968 
L 210.321054 91.968 
" clip-path="url(#p258d71cc62)" style="fill: none; stroke: #1f77b4; stroke-width: 1.5"/>
    <path d="M 261.504176 80.448 
L 295.626258 80.448 
" clip-path="url(#p258d71cc62)" style="fill: none; stroke: #1f77b4; stroke-width: 1.5"/>
    <path d="M 346.80938 61.248 
L 380.931462 61.248 
" clip-path="url(#p258d71cc62)" style="fill: none; stroke: #1f77b4; stroke-width: 1.5"/>
    <path d="M 347.30415 53.568 
L 381.426232 53.568 
" clip-path="url(#p258d71cc62)" style="fill: none; stroke: #1f77b4; stroke-width: 1.5"/>
   </g>
   <g id="LineCollection_3">
    <path d="M 90.893768 295.488 
L 125.01585 295.488 
" clip-path="url(#p258d71cc62)" style="fill: none; stroke: #1f77b4; stroke-width: 1.5"/>
    <path d="M 176.198972 257.088 
L 210.321054 257.088 
" clip-path="url(#p258d71cc62)" style="fill: none; stroke: #1f77b4; stroke-width: 1.5"/>
    <path d="M 261.504176 272.448 
L 295.626258 272.448 
" clip-path="url(#p258d71cc62)" style="fill: none; stroke: #1f77b4; stroke-width: 1.5"/>
    <path d="M 346.80938 260.928 
L 380.931462 260.928 
" clip-path="url(#p258d71cc62)" style="fill: none; stroke: #1f77b4; stroke-width: 1.5"/>
    <path d="M 347.30415 253.248 
L 381.426232 253.248 
" clip-path="url(#p258d71cc62)" style="fill: none; stroke: #1f77b4; stroke-width: 1.5"/>
   </g>
   <g id="LineCollection_4">
    <path d="M 107.954809 295.488 
L 107.954809 99.648 
" clip-path="url(#p258d71cc62)" style="fill: none; stroke: #1f77b4; stroke-width: 1.5"/>
    <path d="M 193.260013 257.088 
L 193.260013 91.968 
" clip-path="url(#p258d71cc62)" style="fill: none; stroke: #1f77b4; stroke-width: 1.5"/>
    <path d="M 278.565217 272.448 
L 278.565217 80.448 
" clip-path="url(#p258d71cc62)" style="fill: none; stroke: #1f77b4; stroke-width: 1.5"/>
    <path d="M 363.870421 260.928 
L 363.870421 61.248 
" clip-path="url(#p258d71cc62)" style="fill: none; stroke: #1f77b4; stroke-width: 1.5"/>
    <path d="M 364.365191 253.248 
L 364.365191 53.568 
" clip-path="url(#p258d71cc62)" style="fill: none; stroke: #1f77b4; stroke-width: 1.5"/>
   </g>
   <g id="line2d_33">
    <path d="M 107.954809 196.73856 
L 193.260013 182.92224 
L 278.565217 180.7872 
L 363.870421 169.15968 
L 364.365191 168.29952 
" clip-path="url(#p258d71cc62)" style="fill: none; stroke: #4682b4; stroke-width: 1.5; stroke-linecap: square"/>
   </g>
   <g id="line2d_34">
    <path d="M 107.954809 196.73856 
L 193.260013 182.92224 
L 278.565217 180.7872 
L 363.870421 169.15968 
L 364.365191 168.29952 
" clip-path="url(#p258d71cc62)" style="fill: none; stroke: #4682b4; stroke-width: 1.5; stroke-linecap: square"/>
   </g>
   <g id="patch_3">
    <path d="M 57.6 307.584 
L 57.6 41.472 
" style="fill: none; stroke: #000000; stroke-width: 0.8; stroke-linejoin: miter; stroke-linecap: square"/>
   </g>
   <g id="patch_4">
    <path d="M 414.72 307.584 
L 414.72 41.472 
" style="fill: none; stroke: #000000; stroke-width: 0.8; stroke-linejoin: miter; stroke-linecap: square"/>
   </g>
   <g id="patch_5">
    <path d="M 57.6 307.584 
L 414.72 307.584 
" style="fill: none; stroke: #000000; stroke-width: 0.8; stroke-linejoin: miter; stroke-linecap: square"/>
   </g>
   <g id="patch_6">
    <path d="M 57.6 41.472 
L 414.72 41.472 
" style="fill: none; stroke: #000000; stroke-width: 0.8; stroke-linejoin: miter; stroke-linecap: square"/>
   </g>
   <g id="text_19">
    <!-- Violinplot for progress of customer/buy_nothing -->
    <g transform="translate(93.315937 35.472)scale(0.12 -0.12)">
     <defs>
      <path id="DejaVuSans-56" d="M 1831 0 
L 50 4666 
L 709 4666 
L 2188 738 
L 3669 4666 
L 4325 4666 
L 2547 0 
L 1831 0 
z
" transform="scale(0.015625)"/>
      <path id="DejaVuSans-6c" d="M 603 4863 
L 1178 4863 
L 1178 0 
L 603 0 
L 603 4863 
z
" transform="scale(0.015625)"/>
      <path id="DejaVuSans-66" d="M 2375 4863 
L 2375 4384 
L 1825 4384 
Q 1516 4384 1395 4259 
Q 1275 4134 1275 3809 
L 1275 3500 
L 2222 3500 
L 2222 3053 
L 1275 3053 
L 1275 0 
L 697 0 
L 697 3053 
L 147 3053 
L 147 3500 
L 697 3500 
L 697 3744 
Q 697 4328 969 4595 
Q 1241 4863 1831 4863 
L 2375 4863 
z
" transform="scale(0.015625)"/>
      <path id="DejaVuSans-67" d="M 2906 1791 
Q 2906 2416 2648 2759 
Q 2391 3103 1925 3103 
Q 1463 3103 1205 2759 
Q 947 2416 947 1791 
Q 947 1169 1205 825 
Q 1463 481 1925 481 
Q 2391 481 2648 825 
Q 2906 1169 2906 1791 
z
M 3481 434 
Q 3481 -459 3084 -895 
Q 2688 -1331 1869 -1331 
Q 1566 -1331 1297 -1286 
Q 1028 -1241 775 -1147 
L 775 -588 
Q 1028 -725 1275 -790 
Q 1522 -856 1778 -856 
Q 2344 -856 2625 -561 
Q 2906 -266 2906 331 
L 2906 616 
Q 2728 306 2450 153 
Q 2172 0 1784 0 
Q 1141 0 747 490 
Q 353 981 353 1791 
Q 353 2603 747 3093 
Q 1141 3584 1784 3584 
Q 2172 3584 2450 3431 
Q 2728 3278 2906 2969 
L 2906 3500 
L 3481 3500 
L 3481 434 
z
" transform="scale(0.015625)"/>
      <path id="DejaVuSans-63" d="M 3122 3366 
L 3122 2828 
Q 2878 2963 2633 3030 
Q 2388 3097 2138 3097 
Q 1578 3097 1268 2742 
Q 959 2388 959 1747 
Q 959 1106 1268 751 
Q 1578 397 2138 397 
Q 2388 397 2633 464 
Q 2878 531 3122 666 
L 3122 134 
Q 2881 22 2623 -34 
Q 2366 -91 2075 -91 
Q 1284 -91 818 406 
Q 353 903 353 1747 
Q 353 2603 823 3093 
Q 1294 3584 2113 3584 
Q 2378 3584 2631 3529 
Q 2884 3475 3122 3366 
z
" transform="scale(0.015625)"/>
      <path id="DejaVuSans-75" d="M 544 1381 
L 544 3500 
L 1119 3500 
L 1119 1403 
Q 1119 906 1312 657 
Q 1506 409 1894 409 
Q 2359 409 2629 706 
Q 2900 1003 2900 1516 
L 2900 3500 
L 3475 3500 
L 3475 0 
L 2900 0 
L 2900 538 
Q 2691 219 2414 64 
Q 2138 -91 1772 -91 
Q 1169 -91 856 284 
Q 544 659 544 1381 
z
M 1991 3584 
L 1991 3584 
z
" transform="scale(0.015625)"/>
      <path id="DejaVuSans-6d" d="M 3328 2828 
Q 3544 3216 3844 3400 
Q 4144 3584 4550 3584 
Q 5097 3584 5394 3201 
Q 5691 2819 5691 2113 
L 5691 0 
L 5113 0 
L 5113 2094 
Q 5113 2597 4934 2840 
Q 4756 3084 4391 3084 
Q 3944 3084 3684 2787 
Q 3425 2491 3425 1978 
L 3425 0 
L 2847 0 
L 2847 2094 
Q 2847 2600 2669 2842 
Q 2491 3084 2119 3084 
Q 1678 3084 1418 2786 
Q 1159 2488 1159 1978 
L 1159 0 
L 581 0 
L 581 3500 
L 1159 3500 
L 1159 2956 
Q 1356 3278 1631 3431 
Q 1906 3584 2284 3584 
Q 2666 3584 2933 3390 
Q 3200 3197 3328 2828 
z
" transform="scale(0.015625)"/>
      <path id="DejaVuSans-2f" d="M 1625 4666 
L 2156 4666 
L 531 -594 
L 0 -594 
L 1625 4666 
z
" transform="scale(0.015625)"/>
      <path id="DejaVuSans-62" d="M 3116 1747 
Q 3116 2381 2855 2742 
Q 2594 3103 2138 3103 
Q 1681 3103 1420 2742 
Q 1159 2381 1159 1747 
Q 1159 1113 1420 752 
Q 1681 391 2138 391 
Q 2594 391 2855 752 
Q 3116 1113 3116 1747 
z
M 1159 2969 
Q 1341 3281 1617 3432 
Q 1894 3584 2278 3584 
Q 2916 3584 3314 3078 
Q 3713 2572 3713 1747 
Q 3713 922 3314 415 
Q 2916 -91 2278 -91 
Q 1894 -91 1617 61 
Q 1341 213 1159 525 
L 1159 0 
L 581 0 
L 581 4863 
L 1159 4863 
L 1159 2969 
z
" transform="scale(0.015625)"/>
      <path id="DejaVuSans-5f" d="M 3263 -1063 
L 3263 -1509 
L -63 -1509 
L -63 -1063 
L 3263 -1063 
z
" transform="scale(0.015625)"/>
      <path id="DejaVuSans-68" d="M 3513 2113 
L 3513 0 
L 2938 0 
L 2938 2094 
Q 2938 2591 2744 2837 
Q 2550 3084 2163 3084 
Q 1697 3084 1428 2787 
Q 1159 2491 1159 1978 
L 1159 0 
L 581 0 
L 581 4863 
L 1159 4863 
L 1159 2956 
Q 1366 3272 1645 3428 
Q 1925 3584 2291 3584 
Q 2894 3584 3203 3211 
Q 3513 2838 3513 2113 
z
" transform="scale(0.015625)"/>
     </defs>
     <use xlink:href="#DejaVuSans-56"/>
     <use xlink:href="#DejaVuSans-69" x="66.158203"/>
     <use xlink:href="#DejaVuSans-6f" x="93.941406"/>
     <use xlink:href="#DejaVuSans-6c" x="155.123047"/>
     <use xlink:href="#DejaVuSans-69" x="182.90625"/>
     <use xlink:href="#DejaVuSans-6e" x="210.689453"/>
     <use xlink:href="#DejaVuSans-70" x="274.068359"/>
     <use xlink:href="#DejaVuSans-6c" x="337.544922"/>
     <use xlink:href="#DejaVuSans-6f" x="365.328125"/>
     <use xlink:href="#DejaVuSans-74" x="426.509766"/>
     <use xlink:href="#DejaVuSans-20" x="465.71875"/>
     <use xlink:href="#DejaVuSans-66" x="497.505859"/>
     <use xlink:href="#DejaVuSans-6f" x="532.710938"/>
     <use xlink:href="#DejaVuSans-72" x="593.892578"/>
     <use xlink:href="#DejaVuSans-20" x="635.005859"/>
     <use xlink:href="#DejaVuSans-70" x="666.792969"/>
     <use xlink:href="#DejaVuSans-72" x="730.269531"/>
     <use xlink:href="#DejaVuSans-6f" x="769.132812"/>
     <use xlink:href="#DejaVuSans-67" x="830.314453"/>
     <use xlink:href="#DejaVuSans-72" x="893.791016"/>
     <use xlink:href="#DejaVuSans-65" x="932.654297"/>
     <use xlink:href="#DejaVuSans-73" x="994.177734"/>
     <use xlink:href="#DejaVuSans-73" x="1046.277344"/>
     <use xlink:href="#DejaVuSans-20" x="1098.376953"/>
     <use xlink:href="#DejaVuSans-6f" x="1130.164062"/>
     <use xlink:href="#DejaVuSans-66" x="1191.345703"/>
     <use xlink:href="#DejaVuSans-20" x="1226.550781"/>
     <use xlink:href="#DejaVuSans-63" x="1258.337891"/>
     <use xlink:href="#DejaVuSans-75" x="1313.318359"/>
     <use xlink:href="#DejaVuSans-73" x="1376.697266"/>
     <use xlink:href="#DejaVuSans-74" x="1428.796875"/>
     <use xlink:href="#DejaVuSans-6f" x="1468.005859"/>
     <use xlink:href="#DejaVuSans-6d" x="1529.1875"/>
     <use xlink:href="#DejaVuSans-65" x="1626.599609"/>
     <use xlink:href="#DejaVuSans-72" x="1688.123047"/>
     <use xlink:href="#DejaVuSans-2f" x="1729.236328"/>
     <use xlink:href="#DejaVuSans-62" x="1762.927734"/>
     <use xlink:href="#DejaVuSans-75" x="1826.404297"/>
     <use xlink:href="#DejaVuSans-79" x="1889.783203"/>
     <use xlink:href="#DejaVuSans-5f" x="1948.962891"/>
     <use xlink:href="#DejaVuSans-6e" x="1998.962891"/>
     <use xlink:href="#DejaVuSans-6f" x="2062.341797"/>
     <use xlink:href="#DejaVuSans-74" x="2123.523438"/>
     <use xlink:href="#DejaVuSans-68" x="2162.732422"/>
     <use xlink:href="#DejaVuSans-69" x="2226.111328"/>
     <use xlink:href="#DejaVuSans-6e" x="2253.894531"/>
     <use xlink:href="#DejaVuSans-67" x="2317.273438"/>
    </g>
   </g>
  </g>
 </g>
 <defs>
  <clipPath id="p258d71cc62">
   <rect x="57.6" y="41.472" width="357.12" height="266.112"/>
  </clipPath>
 </defs>
</svg>
