<?xml version="1.0" encoding="utf-8" standalone="no"?>
<!DOCTYPE svg PUBLIC "-//W3C//DTD SVG 1.1//EN"
  "http://www.w3.org/Graphics/SVG/1.1/DTD/svg11.dtd">
<svg xmlns:xlink="http://www.w3.org/1999/xlink" width="460.8pt" height="345.6pt" viewBox="0 0 460.8 345.6" xmlns="http://www.w3.org/2000/svg" version="1.1">
 <metadata>
  <rdf:RDF xmlns:dc="http://purl.org/dc/elements/1.1/" xmlns:cc="http://creativecommons.org/ns#" xmlns:rdf="http://www.w3.org/1999/02/22-rdf-syntax-ns#">
   <cc:Work>
    <dc:type rdf:resource="http://purl.org/dc/dcmitype/StillImage"/>
    <dc:date>2022-06-21T20:55:10.565557</dc:date>
    <dc:format>image/svg+xml</dc:format>
    <dc:creator>
     <cc:Agent>
      <dc:title>Matplotlib v3.5.2, https://matplotlib.org/</dc:title>
     </cc:Agent>
    </dc:creator>
   </cc:Work>
  </rdf:RDF>
 </metadata>
 <defs>
  <style type="text/css">*{stroke-linejoin: round; stroke-linecap: butt}</style>
 </defs>
 <g id="figure_1">
  <g id="patch_1">
   <path d="M 0 345.6 
L 460.8 345.6 
L 460.8 0 
L 0 0 
z
" style="fill: #ffffff"/>
  </g>
  <g id="axes_1">
   <g id="patch_2">
    <path d="M 57.6 307.584 
L 414.72 307.584 
L 414.72 41.472 
L 57.6 41.472 
z
" style="fill: #ffffff"/>
   </g>
   <g id="PolyCollection_1">
    <path d="M 115.264397 285.156346 
L 100.645221 285.156346 
L 99.45869 282.817069 
L 98.172643 280.477793 
L 96.796464 278.138517 
L 95.342759 275.799241 
L 93.827076 273.459965 
L 92.267445 271.120688 
L 90.683729 268.781412 
L 89.096838 266.442136 
L 87.527834 264.10286 
L 85.997018 261.763583 
L 84.523035 259.424307 
L 83.122108 257.085031 
L 81.807436 254.745755 
L 80.588843 252.406479 
L 79.472682 250.067202 
L 78.462038 247.727926 
L 77.55719 245.38865 
L 76.756302 243.049374 
L 76.056264 240.710098 
L 75.453611 238.370821 
L 74.945407 236.031545 
L 74.530014 233.692269 
L 74.207652 231.352993 
L 73.980686 229.013716 
L 73.853612 226.67444 
L 73.832727 224.335164 
L 73.925522 221.995888 
L 74.139845 219.656612 
L 74.482929 217.317335 
L 74.960369 214.978059 
L 75.575159 212.638783 
L 76.326871 210.299507 
L 77.211063 207.96023 
L 78.218966 205.620954 
L 79.337475 203.281678 
L 80.54944 200.942402 
L 81.834234 198.603126 
L 83.16854 196.263849 
L 84.527294 193.924573 
L 85.884715 191.585297 
L 87.215332 189.246021 
L 88.494958 186.906744 
L 89.70155 184.567468 
L 90.815898 182.228192 
L 91.822143 179.888916 
L 92.708082 177.54964 
L 93.465293 175.210363 
L 94.08907 172.871087 
L 94.578208 170.531811 
L 94.934656 168.192535 
L 95.163078 165.853259 
L 95.270343 163.513982 
L 95.265 161.174706 
L 95.156738 158.83543 
L 94.955881 156.496154 
L 94.672936 154.156877 
L 94.318206 151.817601 
L 93.901485 149.478325 
L 93.431841 147.139049 
L 92.91749 144.799773 
L 92.36575 142.460496 
L 91.783066 140.12122 
L 91.175093 137.781944 
L 90.546821 135.442668 
L 89.902726 133.103391 
L 89.246928 130.764115 
L 88.583361 128.424839 
L 87.915931 126.085563 
L 87.248678 123.746287 
L 86.585935 121.40701 
L 85.932494 119.067734 
L 85.293769 116.728458 
L 84.675974 114.389182 
L 84.086278 112.049905 
L 83.532948 109.710629 
L 83.025442 107.371353 
L 82.574421 105.032077 
L 82.191661 102.692801 
L 81.889845 100.353524 
L 81.6822 98.014248 
L 81.582012 95.674972 
L 81.601994 93.335696 
L 81.753588 90.99642 
L 82.046198 88.657143 
L 82.486461 86.317867 
L 83.077585 83.978591 
L 83.818831 81.639315 
L 84.705199 79.300038 
L 85.727332 76.960762 
L 86.871689 74.621486 
L 88.120951 72.28221 
L 89.454663 69.942934 
L 90.850047 67.603657 
L 92.282946 65.264381 
L 93.728821 62.925105 
L 95.163742 60.585829 
L 96.565305 58.246552 
L 97.913421 55.907276 
L 99.190937 53.568 
L 116.718681 53.568 
L 116.718681 53.568 
L 117.996197 55.907276 
L 119.344313 58.246552 
L 120.745875 60.585829 
L 122.180796 62.925105 
L 123.626672 65.264381 
L 125.05957 67.603657 
L 126.454955 69.942934 
L 127.788667 72.28221 
L 129.037929 74.621486 
L 130.182286 76.960762 
L 131.204419 79.300038 
L 132.090786 81.639315 
L 132.832033 83.978591 
L 133.423157 86.317867 
L 133.86342 88.657143 
L 134.15603 90.99642 
L 134.307623 93.335696 
L 134.327606 95.674972 
L 134.227417 98.014248 
L 134.019773 100.353524 
L 133.717956 102.692801 
L 133.335197 105.032077 
L 132.884175 107.371353 
L 132.376669 109.710629 
L 131.82334 112.049905 
L 131.233644 114.389182 
L 130.615848 116.728458 
L 129.977124 119.067734 
L 129.323683 121.40701 
L 128.66094 123.746287 
L 127.993687 126.085563 
L 127.326257 128.424839 
L 126.66269 130.764115 
L 126.006892 133.103391 
L 125.362797 135.442668 
L 124.734525 137.781944 
L 124.126552 140.12122 
L 123.543868 142.460496 
L 122.992128 144.799773 
L 122.477777 147.139049 
L 122.008133 149.478325 
L 121.591412 151.817601 
L 121.236682 154.156877 
L 120.953737 156.496154 
L 120.75288 158.83543 
L 120.644618 161.174706 
L 120.639275 163.513982 
L 120.74654 165.853259 
L 120.974961 168.192535 
L 121.33141 170.531811 
L 121.820548 172.871087 
L 122.444325 175.210363 
L 123.201535 177.54964 
L 124.087475 179.888916 
L 125.093719 182.228192 
L 126.208068 184.567468 
L 127.41466 186.906744 
L 128.694286 189.246021 
L 130.024902 191.585297 
L 131.382323 193.924573 
L 132.741078 196.263849 
L 134.075384 198.603126 
L 135.360177 200.942402 
L 136.572142 203.281678 
L 137.690651 205.620954 
L 138.698555 207.96023 
L 139.582747 210.299507 
L 140.334459 212.638783 
L 140.949248 214.978059 
L 141.426689 217.317335 
L 141.769773 219.656612 
L 141.984096 221.995888 
L 142.07689 224.335164 
L 142.056006 226.67444 
L 141.928932 229.013716 
L 141.701966 231.352993 
L 141.379604 233.692269 
L 140.964211 236.031545 
L 140.456007 238.370821 
L 139.853354 240.710098 
L 139.153316 243.049374 
L 138.352428 245.38865 
L 137.44758 247.727926 
L 136.436936 250.067202 
L 135.320775 252.406479 
L 134.102181 254.745755 
L 132.78751 257.085031 
L 131.386583 259.424307 
L 129.9126 261.763583 
L 128.381783 264.10286 
L 126.81278 266.442136 
L 125.225889 268.781412 
L 123.642173 271.120688 
L 122.082542 273.459965 
L 120.566859 275.799241 
L 119.113153 278.138517 
L 117.736975 280.477793 
L 116.450928 282.817069 
L 115.264397 285.156346 
z
" clip-path="url(#pb037f76e9e)" style="fill: #1f77b4; fill-opacity: 0.3"/>
   </g>
   <g id="PolyCollection_2">
    <path d="M 200.742393 290.17837 
L 185.777633 290.17837 
L 184.598646 287.824122 
L 183.324291 285.469873 
L 181.963748 283.115624 
L 180.529386 280.761376 
L 179.036598 278.407127 
L 177.503443 276.052878 
L 175.950096 273.69863 
L 174.398117 271.344381 
L 172.869567 268.990132 
L 171.386002 266.635884 
L 169.967431 264.281635 
L 168.631287 261.927386 
L 167.391512 259.573138 
L 166.257832 257.218889 
L 165.235298 254.86464 
L 164.324173 252.510392 
L 163.520187 250.156143 
L 162.81519 247.801895 
L 162.198164 245.447646 
L 161.656539 243.093397 
L 161.177707 240.739149 
L 160.750605 238.3849 
L 160.367208 236.030651 
L 160.023782 233.676403 
L 159.721734 231.322154 
L 159.467951 228.967905 
L 159.274554 226.613657 
L 159.158049 224.259408 
L 159.137931 221.905159 
L 159.234861 219.550911 
L 159.468569 217.196662 
L 159.855713 214.842413 
L 160.407897 212.488165 
L 161.130051 210.133916 
L 162.019361 207.779667 
L 163.064837 205.425419 
L 164.247586 203.07117 
L 165.541734 200.716921 
L 166.915909 198.362673 
L 168.335137 196.008424 
L 169.762942 193.654175 
L 171.163471 191.299927 
L 172.503446 188.945678 
L 173.75379 186.591429 
L 174.890817 184.237181 
L 175.896939 181.882932 
L 176.760872 179.528683 
L 177.477403 177.174435 
L 178.046791 174.820186 
L 178.473907 172.465937 
L 178.767218 170.111689 
L 178.937729 167.75744 
L 178.997975 165.403191 
L 178.961115 163.048943 
L 178.840191 160.694694 
L 178.647562 158.340445 
L 178.394511 155.986197 
L 178.091022 153.631948 
L 177.745684 151.277699 
L 177.365711 148.923451 
L 176.95704 146.569202 
L 176.524481 144.214953 
L 176.071905 141.860705 
L 175.602455 139.506456 
L 175.118758 137.152208 
L 174.623154 134.797959 
L 174.11791 132.44371 
L 173.605446 130.089462 
L 173.088537 127.735213 
L 172.57052 125.380964 
L 172.055467 123.026716 
L 171.548344 120.672467 
L 171.055136 118.318218 
L 170.582929 115.96397 
L 170.139939 113.609721 
L 169.735487 111.255472 
L 169.379895 108.901224 
L 169.084314 106.546975 
L 168.860462 104.192726 
L 168.720275 101.838478 
L 168.675479 99.484229 
L 168.737095 97.12998 
L 168.914887 94.775732 
L 169.216794 92.421483 
L 169.648371 90.067234 
L 170.212284 87.712986 
L 170.907906 85.358737 
L 171.731045 83.004488 
L 172.673845 80.65024 
L 173.724872 78.295991 
L 174.869409 75.941742 
L 176.089928 73.587494 
L 177.36674 71.233245 
L 178.678758 68.878996 
L 180.004342 66.524748 
L 181.322158 64.170499 
L 182.612005 61.81625 
L 183.855546 59.462002 
L 185.036909 57.107753 
L 201.483117 57.107753 
L 201.483117 57.107753 
L 202.66448 59.462002 
L 203.908021 61.81625 
L 205.197868 64.170499 
L 206.515684 66.524748 
L 207.841267 68.878996 
L 209.153285 71.233245 
L 210.430098 73.587494 
L 211.650617 75.941742 
L 212.795154 78.295991 
L 213.846181 80.65024 
L 214.788981 83.004488 
L 215.61212 85.358737 
L 216.307742 87.712986 
L 216.871655 90.067234 
L 217.303232 92.421483 
L 217.605139 94.775732 
L 217.782931 97.12998 
L 217.844547 99.484229 
L 217.799751 101.838478 
L 217.659564 104.192726 
L 217.435712 106.546975 
L 217.140131 108.901224 
L 216.784539 111.255472 
L 216.380086 113.609721 
L 215.937097 115.96397 
L 215.464889 118.318218 
L 214.971682 120.672467 
L 214.464559 123.026716 
L 213.949506 125.380964 
L 213.431488 127.735213 
L 212.91458 130.089462 
L 212.402116 132.44371 
L 211.896872 134.797959 
L 211.401267 137.152208 
L 210.917571 139.506456 
L 210.448121 141.860705 
L 209.995545 144.214953 
L 209.562986 146.569202 
L 209.154314 148.923451 
L 208.774342 151.277699 
L 208.429004 153.631948 
L 208.125514 155.986197 
L 207.872464 158.340445 
L 207.679834 160.694694 
L 207.558911 163.048943 
L 207.522051 165.403191 
L 207.582297 167.75744 
L 207.752808 170.111689 
L 208.046119 172.465937 
L 208.473234 174.820186 
L 209.042623 177.174435 
L 209.759154 179.528683 
L 210.623086 181.882932 
L 211.629208 184.237181 
L 212.766236 186.591429 
L 214.01658 188.945678 
L 215.356555 191.299927 
L 216.757084 193.654175 
L 218.184889 196.008424 
L 219.604116 198.362673 
L 220.978292 200.716921 
L 222.272439 203.07117 
L 223.455189 205.425419 
L 224.500665 207.779667 
L 225.389974 210.133916 
L 226.112129 212.488165 
L 226.664312 214.842413 
L 227.051457 217.196662 
L 227.285165 219.550911 
L 227.382095 221.905159 
L 227.361977 224.259408 
L 227.245472 226.613657 
L 227.052075 228.967905 
L 226.798292 231.322154 
L 226.496243 233.676403 
L 226.152818 236.030651 
L 225.769421 238.3849 
L 225.342318 240.739149 
L 224.863486 243.093397 
L 224.321861 245.447646 
L 223.704836 247.801895 
L 222.999839 250.156143 
L 222.195853 252.510392 
L 221.284728 254.86464 
L 220.262194 257.218889 
L 219.128513 259.573138 
L 217.888739 261.927386 
L 216.552595 264.281635 
L 215.134024 266.635884 
L 213.650459 268.990132 
L 212.121908 271.344381 
L 210.56993 273.69863 
L 209.016583 276.052878 
L 207.483427 278.407127 
L 205.99064 280.761376 
L 204.556278 283.115624 
L 203.195735 285.469873 
L 201.92138 287.824122 
L 200.742393 290.17837 
z
" clip-path="url(#pb037f76e9e)" style="fill: #1f77b4; fill-opacity: 0.3"/>
   </g>
   <g id="PolyCollection_3">
    <path d="M 284.494159 295.488 
L 272.636274 295.488 
L 271.60709 293.065146 
L 270.478785 290.642293 
L 269.257182 288.219439 
L 267.951099 285.796585 
L 266.572286 283.373731 
L 265.135214 280.950878 
L 263.656706 278.528024 
L 262.155398 276.10517 
L 260.651075 273.682316 
L 259.163868 271.259463 
L 257.713389 268.836609 
L 256.317821 266.413755 
L 254.993045 263.990902 
L 253.751855 261.568048 
L 252.603336 259.145194 
L 251.552477 256.72234 
L 250.600055 254.299487 
L 249.742864 251.876633 
L 248.974273 249.453779 
L 248.285123 247.030926 
L 247.664899 244.608072 
L 247.103101 242.185218 
L 246.590706 239.762364 
L 246.121556 237.339511 
L 245.69355 234.916657 
L 245.309474 232.493803 
L 244.977351 230.070949 
L 244.710237 227.648096 
L 244.52543 225.225242 
L 244.443135 222.802388 
L 244.484691 220.379535 
L 244.670517 217.956681 
L 245.017982 215.533827 
L 245.539415 213.110973 
L 246.240461 210.68812 
L 247.118957 208.265266 
L 248.164448 205.842412 
L 249.358387 203.419559 
L 250.674993 200.996705 
L 252.082673 198.573851 
L 253.545851 196.150997 
L 255.027033 193.728144 
L 256.488903 191.30529 
L 257.896274 188.882436 
L 259.217745 186.459582 
L 260.426962 184.036729 
L 261.503432 181.613875 
L 262.432878 179.191021 
L 263.207192 176.768168 
L 263.824035 174.345314 
L 264.286184 171.92246 
L 264.6007 169.499606 
L 264.778009 167.076753 
L 264.830958 164.653899 
L 264.773892 162.231045 
L 264.621795 159.808192 
L 264.389524 157.385338 
L 264.091133 154.962484 
L 263.73933 152.53963 
L 263.345065 150.116777 
L 262.917261 147.693923 
L 262.46272 145.271069 
L 261.986196 142.848215 
L 261.490635 140.425362 
L 260.977586 138.002508 
L 260.447741 135.579654 
L 259.901562 133.156801 
L 259.33996 130.733947 
L 258.76494 128.311093 
L 258.180175 125.888239 
L 257.591429 123.465386 
L 257.006809 121.042532 
L 256.43679 118.619678 
L 255.894034 116.196825 
L 255.392994 113.773971 
L 254.949347 111.351117 
L 254.5793 108.928263 
L 254.298818 106.50541 
L 254.122855 104.082556 
L 254.064605 101.659702 
L 254.134867 99.236848 
L 254.341514 96.813995 
L 254.689123 94.391141 
L 255.178752 91.968287 
L 255.807873 89.545434 
L 256.570444 87.12258 
L 257.45711 84.699726 
L 258.455514 82.276872 
L 259.550697 79.854019 
L 260.725579 77.431165 
L 261.961498 75.008311 
L 263.238795 72.585458 
L 264.537423 70.162604 
L 265.837571 67.73975 
L 267.12026 65.316896 
L 268.367908 62.894043 
L 269.564823 60.471189 
L 270.697606 58.048335 
L 271.755447 55.625481 
L 285.374987 55.625481 
L 285.374987 55.625481 
L 286.432828 58.048335 
L 287.565611 60.471189 
L 288.762526 62.894043 
L 290.010174 65.316896 
L 291.292863 67.73975 
L 292.593011 70.162604 
L 293.891639 72.585458 
L 295.168936 75.008311 
L 296.404855 77.431165 
L 297.579737 79.854019 
L 298.67492 82.276872 
L 299.673324 84.699726 
L 300.55999 87.12258 
L 301.322561 89.545434 
L 301.951682 91.968287 
L 302.441311 94.391141 
L 302.78892 96.813995 
L 302.995567 99.236848 
L 303.065829 101.659702 
L 303.007579 104.082556 
L 302.831615 106.50541 
L 302.551134 108.928263 
L 302.181086 111.351117 
L 301.73744 113.773971 
L 301.2364 116.196825 
L 300.693644 118.619678 
L 300.123625 121.042532 
L 299.539004 123.465386 
L 298.950259 125.888239 
L 298.365493 128.311093 
L 297.790474 130.733947 
L 297.228871 133.156801 
L 296.682693 135.579654 
L 296.152847 138.002508 
L 295.639799 140.425362 
L 295.144238 142.848215 
L 294.667714 145.271069 
L 294.213173 147.693923 
L 293.785369 150.116777 
L 293.391103 152.53963 
L 293.039301 154.962484 
L 292.74091 157.385338 
L 292.508638 159.808192 
L 292.356542 162.231045 
L 292.299476 164.653899 
L 292.352425 167.076753 
L 292.529734 169.499606 
L 292.84425 171.92246 
L 293.306398 174.345314 
L 293.923242 176.768168 
L 294.697556 179.191021 
L 295.627002 181.613875 
L 296.703471 184.036729 
L 297.912689 186.459582 
L 299.23416 188.882436 
L 300.641531 191.30529 
L 302.103401 193.728144 
L 303.584583 196.150997 
L 305.047761 198.573851 
L 306.455441 200.996705 
L 307.772047 203.419559 
L 308.965986 205.842412 
L 310.011477 208.265266 
L 310.889973 210.68812 
L 311.591019 213.110973 
L 312.112452 215.533827 
L 312.459917 217.956681 
L 312.645743 220.379535 
L 312.687299 222.802388 
L 312.605004 225.225242 
L 312.420197 227.648096 
L 312.153083 230.070949 
L 311.82096 232.493803 
L 311.436884 234.916657 
L 311.008878 237.339511 
L 310.539728 239.762364 
L 310.027333 242.185218 
L 309.465535 244.608072 
L 308.84531 247.030926 
L 308.156161 249.453779 
L 307.38757 251.876633 
L 306.530379 254.299487 
L 305.577957 256.72234 
L 304.527097 259.145194 
L 303.378579 261.568048 
L 302.137389 263.990902 
L 300.812613 266.413755 
L 299.417045 268.836609 
L 297.966565 271.259463 
L 296.479359 273.682316 
L 294.975035 276.10517 
L 293.473728 278.528024 
L 291.99522 280.950878 
L 290.558148 283.373731 
L 289.179335 285.796585 
L 287.873252 288.219439 
L 286.651649 290.642293 
L 285.523344 293.065146 
L 284.494159 295.488 
z
" clip-path="url(#pb037f76e9e)" style="fill: #1f77b4; fill-opacity: 0.3"/>
   </g>
   <g id="PolyCollection_4">
    <path d="M 371.822926 290.886321 
L 355.917916 290.886321 
L 354.737843 288.556877 
L 353.478413 286.227434 
L 352.150575 283.89799 
L 350.767658 281.568547 
L 349.345022 279.239103 
L 347.899586 276.90966 
L 346.449243 274.580216 
L 345.012189 272.250772 
L 343.606189 269.921329 
L 342.247835 267.591885 
L 340.951819 265.262442 
L 339.730279 262.932998 
L 338.592273 260.603555 
L 337.543409 258.274111 
L 336.585689 255.944667 
L 335.717588 253.615224 
L 334.934382 251.28578 
L 334.228739 248.956337 
L 333.591535 246.626893 
L 333.012861 244.29745 
L 332.48316 241.968006 
L 331.994395 239.638562 
L 331.541167 237.309119 
L 331.121655 234.979675 
L 330.738287 232.650232 
L 330.398052 230.320788 
L 330.112375 227.991345 
L 329.896541 225.661901 
L 329.768674 223.332457 
L 329.748339 221.003014 
L 329.854867 218.67357 
L 330.105551 216.344127 
L 330.513874 214.014683 
L 331.087942 211.68524 
L 331.829271 209.355796 
L 332.732062 207.026352 
L 333.783039 204.696909 
L 334.961864 202.367465 
L 336.242113 200.038022 
L 337.592712 197.708578 
L 338.979699 195.379135 
L 340.368177 193.049691 
L 341.724257 190.720247 
L 343.016858 188.390804 
L 344.219216 186.06136 
L 345.309995 183.731917 
L 346.273951 181.402473 
L 347.10213 179.07303 
L 347.791619 176.743586 
L 348.344928 174.414142 
L 348.769063 172.084699 
L 349.074421 169.755255 
L 349.273591 167.425812 
L 349.380174 165.096368 
L 349.4077 162.766925 
L 349.368726 160.437481 
L 349.27415 158.108037 
L 349.132777 155.778594 
L 348.951137 153.44915 
L 348.73353 151.119707 
L 348.482281 148.790263 
L 348.198144 146.46082 
L 347.880814 144.131376 
L 347.529478 141.801932 
L 347.143368 139.472489 
L 346.722258 137.143045 
L 346.266881 134.813602 
L 345.779237 132.484158 
L 345.262784 130.154715 
L 344.722524 127.825271 
L 344.164985 125.495827 
L 343.598131 123.166384 
L 343.031215 120.83694 
L 342.474606 118.507497 
L 341.939591 116.178053 
L 341.438177 113.84861 
L 340.982889 111.519166 
L 340.58655 109.189722 
L 340.262043 106.860279 
L 340.022038 104.530835 
L 339.878662 102.201392 
L 339.843125 99.871948 
L 339.92529 97.542505 
L 340.133212 95.213061 
L 340.47266 92.883617 
L 340.946674 90.554174 
L 341.555187 88.22473 
L 342.294746 85.895287 
L 343.158391 83.565843 
L 344.135698 81.2364 
L 345.213005 78.906956 
L 346.373826 76.577512 
L 347.599419 74.248069 
L 348.86949 71.918625 
L 350.162971 69.589182 
L 351.458835 67.259738 
L 352.73688 64.930295 
L 353.978458 62.600851 
L 355.16707 60.271407 
L 372.573772 60.271407 
L 372.573772 60.271407 
L 373.762384 62.600851 
L 375.003961 64.930295 
L 376.282007 67.259738 
L 377.57787 69.589182 
L 378.871352 71.918625 
L 380.141423 74.248069 
L 381.367016 76.577512 
L 382.527837 78.906956 
L 383.605144 81.2364 
L 384.582451 83.565843 
L 385.446096 85.895287 
L 386.185655 88.22473 
L 386.794167 90.554174 
L 387.268182 92.883617 
L 387.60763 95.213061 
L 387.815552 97.542505 
L 387.897717 99.871948 
L 387.86218 102.201392 
L 387.718804 104.530835 
L 387.478799 106.860279 
L 387.154292 109.189722 
L 386.757953 111.519166 
L 386.302665 113.84861 
L 385.801251 116.178053 
L 385.266236 118.507497 
L 384.709627 120.83694 
L 384.142711 123.166384 
L 383.575857 125.495827 
L 383.018317 127.825271 
L 382.478057 130.154715 
L 381.961605 132.484158 
L 381.473961 134.813602 
L 381.018584 137.143045 
L 380.597474 139.472489 
L 380.211364 141.801932 
L 379.860028 144.131376 
L 379.542698 146.46082 
L 379.258561 148.790263 
L 379.007312 151.119707 
L 378.789705 153.44915 
L 378.608065 155.778594 
L 378.466692 158.108037 
L 378.372116 160.437481 
L 378.333142 162.766925 
L 378.360668 165.096368 
L 378.467251 167.425812 
L 378.666421 169.755255 
L 378.971779 172.084699 
L 379.395914 174.414142 
L 379.949222 176.743586 
L 380.638712 179.07303 
L 381.466891 181.402473 
L 382.430847 183.731917 
L 383.521626 186.06136 
L 384.723983 188.390804 
L 386.016585 190.720247 
L 387.372665 193.049691 
L 388.761143 195.379135 
L 390.14813 197.708578 
L 391.498728 200.038022 
L 392.778978 202.367465 
L 393.957803 204.696909 
L 395.00878 207.026352 
L 395.911571 209.355796 
L 396.6529 211.68524 
L 397.226967 214.014683 
L 397.635291 216.344127 
L 397.885974 218.67357 
L 397.992503 221.003014 
L 397.972168 223.332457 
L 397.844301 225.661901 
L 397.628467 227.991345 
L 397.34279 230.320788 
L 397.002555 232.650232 
L 396.619187 234.979675 
L 396.199674 237.309119 
L 395.746447 239.638562 
L 395.257682 241.968006 
L 394.727981 244.29745 
L 394.149307 246.626893 
L 393.512103 248.956337 
L 392.80646 251.28578 
L 392.023254 253.615224 
L 391.155152 255.944667 
L 390.197433 258.274111 
L 389.148569 260.603555 
L 388.010563 262.932998 
L 386.789023 265.262442 
L 385.493006 267.591885 
L 384.134653 269.921329 
L 382.728653 272.250772 
L 381.291599 274.580216 
L 379.841256 276.90966 
L 378.39582 279.239103 
L 376.973184 281.568547 
L 375.590267 283.89799 
L 374.262429 286.227434 
L 373.002999 288.556877 
L 371.822926 290.886321 
z
" clip-path="url(#pb037f76e9e)" style="fill: #1f77b4; fill-opacity: 0.3"/>
   </g>
   <g id="PolyCollection_5">
    <path d="M 371.636054 292.855309 
L 357.094328 292.855309 
L 355.943296 290.461953 
L 354.701118 288.068597 
L 353.377965 285.675241 
L 351.98727 283.281886 
L 350.545462 280.88853 
L 349.071484 278.495174 
L 347.586093 276.101818 
L 346.110972 273.708462 
L 344.667689 271.315107 
L 343.276576 268.921751 
L 341.955611 266.528395 
L 340.719393 264.135039 
L 339.578296 261.741684 
L 338.537906 259.348328 
L 337.598796 256.954972 
L 336.75669 254.561616 
L 336.003032 252.16826 
L 335.325932 249.774905 
L 334.711435 247.381549 
L 334.145026 244.988193 
L 333.613242 242.594837 
L 333.105272 240.201481 
L 332.614377 237.808126 
L 332.139016 235.41477 
L 331.683539 233.021414 
L 331.258352 230.628058 
L 330.879528 228.234703 
L 330.567836 225.841347 
L 330.347259 223.447991 
L 330.24311 221.054635 
L 330.279887 218.661279 
L 330.479068 216.267924 
L 330.857035 213.874568 
L 331.423329 211.481212 
L 332.179409 209.087856 
L 333.118023 206.694501 
L 334.223269 204.301145 
L 335.471324 201.907789 
L 336.831778 199.514433 
L 338.269437 197.121077 
L 339.746423 194.727722 
L 341.224366 192.334366 
L 342.666518 189.94101 
L 344.03959 187.547654 
L 345.315198 185.154299 
L 346.470838 182.760943 
L 347.490343 180.367587 
L 348.363877 177.974231 
L 349.087503 175.580875 
L 349.662443 173.18752 
L 350.094131 170.794164 
L 350.391174 168.400808 
L 350.564324 166.007452 
L 350.625539 163.614097 
L 350.58718 161.220741 
L 350.461388 158.827385 
L 350.259629 156.434029 
L 349.9924 154.040673 
L 349.66907 151.647318 
L 349.297823 149.253962 
L 348.885675 146.860606 
L 348.438546 144.46725 
L 347.961357 142.073895 
L 347.458162 139.680539 
L 346.932307 137.287183 
L 346.386608 134.893827 
L 345.823584 132.500471 
L 345.245709 130.107116 
L 344.65572 127.71376 
L 344.056942 125.320404 
L 343.453634 122.927048 
L 342.851325 120.533692 
L 342.257115 118.140337 
L 341.679896 115.746981 
L 341.130478 113.353625 
L 340.621567 110.960269 
L 340.167589 108.566914 
L 339.784327 106.173558 
L 339.48839 103.780202 
L 339.296513 101.386846 
L 339.224732 98.99349 
L 339.287483 96.600135 
L 339.496681 94.206779 
L 339.86086 91.813423 
L 340.38444 89.420067 
L 341.067185 87.026712 
L 341.903916 84.633356 
L 342.884499 82.24 
L 343.994132 79.846644 
L 345.213907 77.453288 
L 346.521607 75.059933 
L 347.892699 72.666577 
L 349.301415 70.273221 
L 350.721885 67.879865 
L 352.129205 65.48651 
L 353.500409 63.093154 
L 354.815253 60.699798 
L 356.056804 58.306442 
L 357.211804 55.913086 
L 371.518579 55.913086 
L 371.518579 55.913086 
L 372.673578 58.306442 
L 373.915129 60.699798 
L 375.229973 63.093154 
L 376.601177 65.48651 
L 378.008498 67.879865 
L 379.428967 70.273221 
L 380.837683 72.666577 
L 382.208775 75.059933 
L 383.516476 77.453288 
L 384.73625 79.846644 
L 385.845883 82.24 
L 386.826466 84.633356 
L 387.663197 87.026712 
L 388.345942 89.420067 
L 388.869522 91.813423 
L 389.233702 94.206779 
L 389.442899 96.600135 
L 389.50565 98.99349 
L 389.433869 101.386846 
L 389.241992 103.780202 
L 388.946055 106.173558 
L 388.562793 108.566914 
L 388.108815 110.960269 
L 387.599905 113.353625 
L 387.050486 115.746981 
L 386.473268 118.140337 
L 385.879057 120.533692 
L 385.276749 122.927048 
L 384.67344 125.320404 
L 384.074662 127.71376 
L 383.484673 130.107116 
L 382.906798 132.500471 
L 382.343774 134.893827 
L 381.798076 137.287183 
L 381.27222 139.680539 
L 380.769025 142.073895 
L 380.291836 144.46725 
L 379.844707 146.860606 
L 379.432559 149.253962 
L 379.061312 151.647318 
L 378.737982 154.040673 
L 378.470753 156.434029 
L 378.268994 158.827385 
L 378.143203 161.220741 
L 378.104844 163.614097 
L 378.166058 166.007452 
L 378.339209 168.400808 
L 378.636252 170.794164 
L 379.067939 173.18752 
L 379.642879 175.580875 
L 380.366505 177.974231 
L 381.240039 180.367587 
L 382.259544 182.760943 
L 383.415184 185.154299 
L 384.690792 187.547654 
L 386.063864 189.94101 
L 387.506016 192.334366 
L 388.98396 194.727722 
L 390.460945 197.121077 
L 391.898604 199.514433 
L 393.259058 201.907789 
L 394.507113 204.301145 
L 395.612359 206.694501 
L 396.550973 209.087856 
L 397.307053 211.481212 
L 397.873348 213.874568 
L 398.251314 216.267924 
L 398.450495 218.661279 
L 398.487273 221.054635 
L 398.383124 223.447991 
L 398.162547 225.841347 
L 397.850854 228.234703 
L 397.47203 230.628058 
L 397.046844 233.021414 
L 396.591366 235.41477 
L 396.116006 237.808126 
L 395.625111 240.201481 
L 395.11714 242.594837 
L 394.585356 244.988193 
L 394.018947 247.381549 
L 393.40445 249.774905 
L 392.72735 252.16826 
L 391.973692 254.561616 
L 391.131587 256.954972 
L 390.192476 259.348328 
L 389.152086 261.741684 
L 388.010989 264.135039 
L 386.774771 266.528395 
L 385.453807 268.921751 
L 384.062693 271.315107 
L 382.61941 273.708462 
L 381.144289 276.101818 
L 379.658899 278.495174 
L 378.18492 280.88853 
L 376.743112 283.281886 
L 375.352417 285.675241 
L 374.029264 288.068597 
L 372.787086 290.461953 
L 371.636054 292.855309 
z
" clip-path="url(#pb037f76e9e)" style="fill: #1f77b4; fill-opacity: 0.3"/>
   </g>
   <g id="matplotlib.axis_1">
    <g id="xtick_1">
     <g id="line2d_1">
      <path d="M 65.302207 307.584 
L 65.302207 41.472 
" clip-path="url(#pb037f76e9e)" style="fill: none; stroke-dasharray: 2.96,1.28; stroke-dashoffset: 0; stroke: #b0b0b0; stroke-width: 0.8"/>
     </g>
     <g id="line2d_2">
      <defs>
       <path id="m4cf4a0f9a6" d="M 0 0 
L 0 3.5 
" style="stroke: #000000; stroke-width: 0.8"/>
      </defs>
      <g>
       <use xlink:href="#m4cf4a0f9a6" x="65.302207" y="307.584" style="stroke: #000000; stroke-width: 0.8"/>
      </g>
     </g>
     <g id="text_1">
      <!-- 2500 -->
      <g transform="translate(52.577207 322.182437)scale(0.1 -0.1)">
       <defs>
        <path id="DejaVuSans-32" d="M 1228 531 
L 3431 531 
L 3431 0 
L 469 0 
L 469 531 
Q 828 903 1448 1529 
Q 2069 2156 2228 2338 
Q 2531 2678 2651 2914 
Q 2772 3150 2772 3378 
Q 2772 3750 2511 3984 
Q 2250 4219 1831 4219 
Q 1534 4219 1204 4116 
Q 875 4013 500 3803 
L 500 4441 
Q 881 4594 1212 4672 
Q 1544 4750 1819 4750 
Q 2544 4750 2975 4387 
Q 3406 4025 3406 3419 
Q 3406 3131 3298 2873 
Q 3191 2616 2906 2266 
Q 2828 2175 2409 1742 
Q 1991 1309 1228 531 
z
" transform="scale(0.015625)"/>
        <path id="DejaVuSans-35" d="M 691 4666 
L 3169 4666 
L 3169 4134 
L 1269 4134 
L 1269 2991 
Q 1406 3038 1543 3061 
Q 1681 3084 1819 3084 
Q 2600 3084 3056 2656 
Q 3513 2228 3513 1497 
Q 3513 744 3044 326 
Q 2575 -91 1722 -91 
Q 1428 -91 1123 -41 
Q 819 9 494 109 
L 494 744 
Q 775 591 1075 516 
Q 1375 441 1709 441 
Q 2250 441 2565 725 
Q 2881 1009 2881 1497 
Q 2881 1984 2565 2268 
Q 2250 2553 1709 2553 
Q 1456 2553 1204 2497 
Q 953 2441 691 2322 
L 691 4666 
z
" transform="scale(0.015625)"/>
        <path id="DejaVuSans-30" d="M 2034 4250 
Q 1547 4250 1301 3770 
Q 1056 3291 1056 2328 
Q 1056 1369 1301 889 
Q 1547 409 2034 409 
Q 2525 409 2770 889 
Q 3016 1369 3016 2328 
Q 3016 3291 2770 3770 
Q 2525 4250 2034 4250 
z
M 2034 4750 
Q 2819 4750 3233 4129 
Q 3647 3509 3647 2328 
Q 3647 1150 3233 529 
Q 2819 -91 2034 -91 
Q 1250 -91 836 529 
Q 422 1150 422 2328 
Q 422 3509 836 4129 
Q 1250 4750 2034 4750 
z
" transform="scale(0.015625)"/>
       </defs>
       <use xlink:href="#DejaVuSans-32"/>
       <use xlink:href="#DejaVuSans-35" x="63.623047"/>
       <use xlink:href="#DejaVuSans-30" x="127.246094"/>
       <use xlink:href="#DejaVuSans-30" x="190.869141"/>
      </g>
     </g>
    </g>
    <g id="xtick_2">
     <g id="line2d_3">
      <path d="M 107.954809 307.584 
L 107.954809 41.472 
" clip-path="url(#pb037f76e9e)" style="fill: none; stroke-dasharray: 2.96,1.28; stroke-dashoffset: 0; stroke: #b0b0b0; stroke-width: 0.8"/>
     </g>
     <g id="line2d_4">
      <g>
       <use xlink:href="#m4cf4a0f9a6" x="107.954809" y="307.584" style="stroke: #000000; stroke-width: 0.8"/>
      </g>
     </g>
     <g id="text_2">
      <!-- 5000 -->
      <g transform="translate(95.229809 322.182437)scale(0.1 -0.1)">
       <use xlink:href="#DejaVuSans-35"/>
       <use xlink:href="#DejaVuSans-30" x="63.623047"/>
       <use xlink:href="#DejaVuSans-30" x="127.246094"/>
       <use xlink:href="#DejaVuSans-30" x="190.869141"/>
      </g>
     </g>
    </g>
    <g id="xtick_3">
     <g id="line2d_5">
      <path d="M 150.607411 307.584 
L 150.607411 41.472 
" clip-path="url(#pb037f76e9e)" style="fill: none; stroke-dasharray: 2.96,1.28; stroke-dashoffset: 0; stroke: #b0b0b0; stroke-width: 0.8"/>
     </g>
     <g id="line2d_6">
      <g>
       <use xlink:href="#m4cf4a0f9a6" x="150.607411" y="307.584" style="stroke: #000000; stroke-width: 0.8"/>
      </g>
     </g>
     <g id="text_3">
      <!-- 7500 -->
      <g transform="translate(137.882411 322.182437)scale(0.1 -0.1)">
       <defs>
        <path id="DejaVuSans-37" d="M 525 4666 
L 3525 4666 
L 3525 4397 
L 1831 0 
L 1172 0 
L 2766 4134 
L 525 4134 
L 525 4666 
z
" transform="scale(0.015625)"/>
       </defs>
       <use xlink:href="#DejaVuSans-37"/>
       <use xlink:href="#DejaVuSans-35" x="63.623047"/>
       <use xlink:href="#DejaVuSans-30" x="127.246094"/>
       <use xlink:href="#DejaVuSans-30" x="190.869141"/>
      </g>
     </g>
    </g>
    <g id="xtick_4">
     <g id="line2d_7">
      <path d="M 193.260013 307.584 
L 193.260013 41.472 
" clip-path="url(#pb037f76e9e)" style="fill: none; stroke-dasharray: 2.96,1.28; stroke-dashoffset: 0; stroke: #b0b0b0; stroke-width: 0.8"/>
     </g>
     <g id="line2d_8">
      <g>
       <use xlink:href="#m4cf4a0f9a6" x="193.260013" y="307.584" style="stroke: #000000; stroke-width: 0.8"/>
      </g>
     </g>
     <g id="text_4">
      <!-- 10000 -->
      <g transform="translate(177.353763 322.182437)scale(0.1 -0.1)">
       <defs>
        <path id="DejaVuSans-31" d="M 794 531 
L 1825 531 
L 1825 4091 
L 703 3866 
L 703 4441 
L 1819 4666 
L 2450 4666 
L 2450 531 
L 3481 531 
L 3481 0 
L 794 0 
L 794 531 
z
" transform="scale(0.015625)"/>
       </defs>
       <use xlink:href="#DejaVuSans-31"/>
       <use xlink:href="#DejaVuSans-30" x="63.623047"/>
       <use xlink:href="#DejaVuSans-30" x="127.246094"/>
       <use xlink:href="#DejaVuSans-30" x="190.869141"/>
       <use xlink:href="#DejaVuSans-30" x="254.492188"/>
      </g>
     </g>
    </g>
    <g id="xtick_5">
     <g id="line2d_9">
      <path d="M 235.912615 307.584 
L 235.912615 41.472 
" clip-path="url(#pb037f76e9e)" style="fill: none; stroke-dasharray: 2.96,1.28; stroke-dashoffset: 0; stroke: #b0b0b0; stroke-width: 0.8"/>
     </g>
     <g id="line2d_10">
      <g>
       <use xlink:href="#m4cf4a0f9a6" x="235.912615" y="307.584" style="stroke: #000000; stroke-width: 0.8"/>
      </g>
     </g>
     <g id="text_5">
      <!-- 12500 -->
      <g transform="translate(220.006365 322.182437)scale(0.1 -0.1)">
       <use xlink:href="#DejaVuSans-31"/>
       <use xlink:href="#DejaVuSans-32" x="63.623047"/>
       <use xlink:href="#DejaVuSans-35" x="127.246094"/>
       <use xlink:href="#DejaVuSans-30" x="190.869141"/>
       <use xlink:href="#DejaVuSans-30" x="254.492188"/>
      </g>
     </g>
    </g>
    <g id="xtick_6">
     <g id="line2d_11">
      <path d="M 278.565217 307.584 
L 278.565217 41.472 
" clip-path="url(#pb037f76e9e)" style="fill: none; stroke-dasharray: 2.96,1.28; stroke-dashoffset: 0; stroke: #b0b0b0; stroke-width: 0.8"/>
     </g>
     <g id="line2d_12">
      <g>
       <use xlink:href="#m4cf4a0f9a6" x="278.565217" y="307.584" style="stroke: #000000; stroke-width: 0.8"/>
      </g>
     </g>
     <g id="text_6">
      <!-- 15000 -->
      <g transform="translate(262.658967 322.182437)scale(0.1 -0.1)">
       <use xlink:href="#DejaVuSans-31"/>
       <use xlink:href="#DejaVuSans-35" x="63.623047"/>
       <use xlink:href="#DejaVuSans-30" x="127.246094"/>
       <use xlink:href="#DejaVuSans-30" x="190.869141"/>
       <use xlink:href="#DejaVuSans-30" x="254.492188"/>
      </g>
     </g>
    </g>
    <g id="xtick_7">
     <g id="line2d_13">
      <path d="M 321.217819 307.584 
L 321.217819 41.472 
" clip-path="url(#pb037f76e9e)" style="fill: none; stroke-dasharray: 2.96,1.28; stroke-dashoffset: 0; stroke: #b0b0b0; stroke-width: 0.8"/>
     </g>
     <g id="line2d_14">
      <g>
       <use xlink:href="#m4cf4a0f9a6" x="321.217819" y="307.584" style="stroke: #000000; stroke-width: 0.8"/>
      </g>
     </g>
     <g id="text_7">
      <!-- 17500 -->
      <g transform="translate(305.311569 322.182437)scale(0.1 -0.1)">
       <use xlink:href="#DejaVuSans-31"/>
       <use xlink:href="#DejaVuSans-37" x="63.623047"/>
       <use xlink:href="#DejaVuSans-35" x="127.246094"/>
       <use xlink:href="#DejaVuSans-30" x="190.869141"/>
       <use xlink:href="#DejaVuSans-30" x="254.492188"/>
      </g>
     </g>
    </g>
    <g id="xtick_8">
     <g id="line2d_15">
      <path d="M 363.870421 307.584 
L 363.870421 41.472 
" clip-path="url(#pb037f76e9e)" style="fill: none; stroke-dasharray: 2.96,1.28; stroke-dashoffset: 0; stroke: #b0b0b0; stroke-width: 0.8"/>
     </g>
     <g id="line2d_16">
      <g>
       <use xlink:href="#m4cf4a0f9a6" x="363.870421" y="307.584" style="stroke: #000000; stroke-width: 0.8"/>
      </g>
     </g>
     <g id="text_8">
      <!-- 20000 -->
      <g transform="translate(347.964171 322.182437)scale(0.1 -0.1)">
       <use xlink:href="#DejaVuSans-32"/>
       <use xlink:href="#DejaVuSans-30" x="63.623047"/>
       <use xlink:href="#DejaVuSans-30" x="127.246094"/>
       <use xlink:href="#DejaVuSans-30" x="190.869141"/>
       <use xlink:href="#DejaVuSans-30" x="254.492188"/>
      </g>
     </g>
    </g>
    <g id="xtick_9">
     <g id="line2d_17">
      <path d="M 406.523023 307.584 
L 406.523023 41.472 
" clip-path="url(#pb037f76e9e)" style="fill: none; stroke-dasharray: 2.96,1.28; stroke-dashoffset: 0; stroke: #b0b0b0; stroke-width: 0.8"/>
     </g>
     <g id="line2d_18">
      <g>
       <use xlink:href="#m4cf4a0f9a6" x="406.523023" y="307.584" style="stroke: #000000; stroke-width: 0.8"/>
      </g>
     </g>
     <g id="text_9">
      <!-- 22500 -->
      <g transform="translate(390.616773 322.182437)scale(0.1 -0.1)">
       <use xlink:href="#DejaVuSans-32"/>
       <use xlink:href="#DejaVuSans-32" x="63.623047"/>
       <use xlink:href="#DejaVuSans-35" x="127.246094"/>
       <use xlink:href="#DejaVuSans-30" x="190.869141"/>
       <use xlink:href="#DejaVuSans-30" x="254.492188"/>
      </g>
     </g>
    </g>
    <g id="text_10">
     <!-- Learned Episodes -->
     <g transform="translate(192.102187 335.860562)scale(0.1 -0.1)">
      <defs>
       <path id="DejaVuSans-4c" d="M 628 4666 
L 1259 4666 
L 1259 531 
L 3531 531 
L 3531 0 
L 628 0 
L 628 4666 
z
" transform="scale(0.015625)"/>
       <path id="DejaVuSans-65" d="M 3597 1894 
L 3597 1613 
L 953 1613 
Q 991 1019 1311 708 
Q 1631 397 2203 397 
Q 2534 397 2845 478 
Q 3156 559 3463 722 
L 3463 178 
Q 3153 47 2828 -22 
Q 2503 -91 2169 -91 
Q 1331 -91 842 396 
Q 353 884 353 1716 
Q 353 2575 817 3079 
Q 1281 3584 2069 3584 
Q 2775 3584 3186 3129 
Q 3597 2675 3597 1894 
z
M 3022 2063 
Q 3016 2534 2758 2815 
Q 2500 3097 2075 3097 
Q 1594 3097 1305 2825 
Q 1016 2553 972 2059 
L 3022 2063 
z
" transform="scale(0.015625)"/>
       <path id="DejaVuSans-61" d="M 2194 1759 
Q 1497 1759 1228 1600 
Q 959 1441 959 1056 
Q 959 750 1161 570 
Q 1363 391 1709 391 
Q 2188 391 2477 730 
Q 2766 1069 2766 1631 
L 2766 1759 
L 2194 1759 
z
M 3341 1997 
L 3341 0 
L 2766 0 
L 2766 531 
Q 2569 213 2275 61 
Q 1981 -91 1556 -91 
Q 1019 -91 701 211 
Q 384 513 384 1019 
Q 384 1609 779 1909 
Q 1175 2209 1959 2209 
L 2766 2209 
L 2766 2266 
Q 2766 2663 2505 2880 
Q 2244 3097 1772 3097 
Q 1472 3097 1187 3025 
Q 903 2953 641 2809 
L 641 3341 
Q 956 3463 1253 3523 
Q 1550 3584 1831 3584 
Q 2591 3584 2966 3190 
Q 3341 2797 3341 1997 
z
" transform="scale(0.015625)"/>
       <path id="DejaVuSans-72" d="M 2631 2963 
Q 2534 3019 2420 3045 
Q 2306 3072 2169 3072 
Q 1681 3072 1420 2755 
Q 1159 2438 1159 1844 
L 1159 0 
L 581 0 
L 581 3500 
L 1159 3500 
L 1159 2956 
Q 1341 3275 1631 3429 
Q 1922 3584 2338 3584 
Q 2397 3584 2469 3576 
Q 2541 3569 2628 3553 
L 2631 2963 
z
" transform="scale(0.015625)"/>
       <path id="DejaVuSans-6e" d="M 3513 2113 
L 3513 0 
L 2938 0 
L 2938 2094 
Q 2938 2591 2744 2837 
Q 2550 3084 2163 3084 
Q 1697 3084 1428 2787 
Q 1159 2491 1159 1978 
L 1159 0 
L 581 0 
L 581 3500 
L 1159 3500 
L 1159 2956 
Q 1366 3272 1645 3428 
Q 1925 3584 2291 3584 
Q 2894 3584 3203 3211 
Q 3513 2838 3513 2113 
z
" transform="scale(0.015625)"/>
       <path id="DejaVuSans-64" d="M 2906 2969 
L 2906 4863 
L 3481 4863 
L 3481 0 
L 2906 0 
L 2906 525 
Q 2725 213 2448 61 
Q 2172 -91 1784 -91 
Q 1150 -91 751 415 
Q 353 922 353 1747 
Q 353 2572 751 3078 
Q 1150 3584 1784 3584 
Q 2172 3584 2448 3432 
Q 2725 3281 2906 2969 
z
M 947 1747 
Q 947 1113 1208 752 
Q 1469 391 1925 391 
Q 2381 391 2643 752 
Q 2906 1113 2906 1747 
Q 2906 2381 2643 2742 
Q 2381 3103 1925 3103 
Q 1469 3103 1208 2742 
Q 947 2381 947 1747 
z
" transform="scale(0.015625)"/>
       <path id="DejaVuSans-20" transform="scale(0.015625)"/>
       <path id="DejaVuSans-45" d="M 628 4666 
L 3578 4666 
L 3578 4134 
L 1259 4134 
L 1259 2753 
L 3481 2753 
L 3481 2222 
L 1259 2222 
L 1259 531 
L 3634 531 
L 3634 0 
L 628 0 
L 628 4666 
z
" transform="scale(0.015625)"/>
       <path id="DejaVuSans-70" d="M 1159 525 
L 1159 -1331 
L 581 -1331 
L 581 3500 
L 1159 3500 
L 1159 2969 
Q 1341 3281 1617 3432 
Q 1894 3584 2278 3584 
Q 2916 3584 3314 3078 
Q 3713 2572 3713 1747 
Q 3713 922 3314 415 
Q 2916 -91 2278 -91 
Q 1894 -91 1617 61 
Q 1341 213 1159 525 
z
M 3116 1747 
Q 3116 2381 2855 2742 
Q 2594 3103 2138 3103 
Q 1681 3103 1420 2742 
Q 1159 2381 1159 1747 
Q 1159 1113 1420 752 
Q 1681 391 2138 391 
Q 2594 391 2855 752 
Q 3116 1113 3116 1747 
z
" transform="scale(0.015625)"/>
       <path id="DejaVuSans-69" d="M 603 3500 
L 1178 3500 
L 1178 0 
L 603 0 
L 603 3500 
z
M 603 4863 
L 1178 4863 
L 1178 4134 
L 603 4134 
L 603 4863 
z
" transform="scale(0.015625)"/>
       <path id="DejaVuSans-73" d="M 2834 3397 
L 2834 2853 
Q 2591 2978 2328 3040 
Q 2066 3103 1784 3103 
Q 1356 3103 1142 2972 
Q 928 2841 928 2578 
Q 928 2378 1081 2264 
Q 1234 2150 1697 2047 
L 1894 2003 
Q 2506 1872 2764 1633 
Q 3022 1394 3022 966 
Q 3022 478 2636 193 
Q 2250 -91 1575 -91 
Q 1294 -91 989 -36 
Q 684 19 347 128 
L 347 722 
Q 666 556 975 473 
Q 1284 391 1588 391 
Q 1994 391 2212 530 
Q 2431 669 2431 922 
Q 2431 1156 2273 1281 
Q 2116 1406 1581 1522 
L 1381 1569 
Q 847 1681 609 1914 
Q 372 2147 372 2553 
Q 372 3047 722 3315 
Q 1072 3584 1716 3584 
Q 2034 3584 2315 3537 
Q 2597 3491 2834 3397 
z
" transform="scale(0.015625)"/>
       <path id="DejaVuSans-6f" d="M 1959 3097 
Q 1497 3097 1228 2736 
Q 959 2375 959 1747 
Q 959 1119 1226 758 
Q 1494 397 1959 397 
Q 2419 397 2687 759 
Q 2956 1122 2956 1747 
Q 2956 2369 2687 2733 
Q 2419 3097 1959 3097 
z
M 1959 3584 
Q 2709 3584 3137 3096 
Q 3566 2609 3566 1747 
Q 3566 888 3137 398 
Q 2709 -91 1959 -91 
Q 1206 -91 779 398 
Q 353 888 353 1747 
Q 353 2609 779 3096 
Q 1206 3584 1959 3584 
z
" transform="scale(0.015625)"/>
      </defs>
      <use xlink:href="#DejaVuSans-4c"/>
      <use xlink:href="#DejaVuSans-65" x="53.962891"/>
      <use xlink:href="#DejaVuSans-61" x="115.486328"/>
      <use xlink:href="#DejaVuSans-72" x="176.765625"/>
      <use xlink:href="#DejaVuSans-6e" x="216.128906"/>
      <use xlink:href="#DejaVuSans-65" x="279.507812"/>
      <use xlink:href="#DejaVuSans-64" x="341.03125"/>
      <use xlink:href="#DejaVuSans-20" x="404.507812"/>
      <use xlink:href="#DejaVuSans-45" x="436.294922"/>
      <use xlink:href="#DejaVuSans-70" x="499.478516"/>
      <use xlink:href="#DejaVuSans-69" x="562.955078"/>
      <use xlink:href="#DejaVuSans-73" x="590.738281"/>
      <use xlink:href="#DejaVuSans-6f" x="642.837891"/>
      <use xlink:href="#DejaVuSans-64" x="704.019531"/>
      <use xlink:href="#DejaVuSans-65" x="767.496094"/>
      <use xlink:href="#DejaVuSans-73" x="829.019531"/>
     </g>
    </g>
   </g>
   <g id="matplotlib.axis_2">
    <g id="ytick_1">
     <g id="line2d_19">
      <path d="M 57.6 271.085827 
L 414.72 271.085827 
" clip-path="url(#pb037f76e9e)" style="fill: none; stroke-dasharray: 2.96,1.28; stroke-dashoffset: 0; stroke: #b0b0b0; stroke-width: 0.8"/>
     </g>
     <g id="line2d_20">
      <defs>
       <path id="ma5ba8d2788" d="M 0 0 
L -3.5 0 
" style="stroke: #000000; stroke-width: 0.8"/>
      </defs>
      <g>
       <use xlink:href="#ma5ba8d2788" x="57.6" y="271.085827" style="stroke: #000000; stroke-width: 0.8"/>
      </g>
     </g>
     <g id="text_11">
      <!-- 150 -->
      <g transform="translate(31.5125 274.885046)scale(0.1 -0.1)">
       <use xlink:href="#DejaVuSans-31"/>
       <use xlink:href="#DejaVuSans-35" x="63.623047"/>
       <use xlink:href="#DejaVuSans-30" x="127.246094"/>
      </g>
     </g>
    </g>
    <g id="ytick_2">
     <g id="line2d_21">
      <path d="M 57.6 215.777185 
L 414.72 215.777185 
" clip-path="url(#pb037f76e9e)" style="fill: none; stroke-dasharray: 2.96,1.28; stroke-dashoffset: 0; stroke: #b0b0b0; stroke-width: 0.8"/>
     </g>
     <g id="line2d_22">
      <g>
       <use xlink:href="#ma5ba8d2788" x="57.6" y="215.777185" style="stroke: #000000; stroke-width: 0.8"/>
      </g>
     </g>
     <g id="text_12">
      <!-- 200 -->
      <g transform="translate(31.5125 219.576404)scale(0.1 -0.1)">
       <use xlink:href="#DejaVuSans-32"/>
       <use xlink:href="#DejaVuSans-30" x="63.623047"/>
       <use xlink:href="#DejaVuSans-30" x="127.246094"/>
      </g>
     </g>
    </g>
    <g id="ytick_3">
     <g id="line2d_23">
      <path d="M 57.6 160.468543 
L 414.72 160.468543 
" clip-path="url(#pb037f76e9e)" style="fill: none; stroke-dasharray: 2.96,1.28; stroke-dashoffset: 0; stroke: #b0b0b0; stroke-width: 0.8"/>
     </g>
     <g id="line2d_24">
      <g>
       <use xlink:href="#ma5ba8d2788" x="57.6" y="160.468543" style="stroke: #000000; stroke-width: 0.8"/>
      </g>
     </g>
     <g id="text_13">
      <!-- 250 -->
      <g transform="translate(31.5125 164.267762)scale(0.1 -0.1)">
       <use xlink:href="#DejaVuSans-32"/>
       <use xlink:href="#DejaVuSans-35" x="63.623047"/>
       <use xlink:href="#DejaVuSans-30" x="127.246094"/>
      </g>
     </g>
    </g>
    <g id="ytick_4">
     <g id="line2d_25">
      <path d="M 57.6 105.159901 
L 414.72 105.159901 
" clip-path="url(#pb037f76e9e)" style="fill: none; stroke-dasharray: 2.96,1.28; stroke-dashoffset: 0; stroke: #b0b0b0; stroke-width: 0.8"/>
     </g>
     <g id="line2d_26">
      <g>
       <use xlink:href="#ma5ba8d2788" x="57.6" y="105.159901" style="stroke: #000000; stroke-width: 0.8"/>
      </g>
     </g>
     <g id="text_14">
      <!-- 300 -->
      <g transform="translate(31.5125 108.95912)scale(0.1 -0.1)">
       <defs>
        <path id="DejaVuSans-33" d="M 2597 2516 
Q 3050 2419 3304 2112 
Q 3559 1806 3559 1356 
Q 3559 666 3084 287 
Q 2609 -91 1734 -91 
Q 1441 -91 1130 -33 
Q 819 25 488 141 
L 488 750 
Q 750 597 1062 519 
Q 1375 441 1716 441 
Q 2309 441 2620 675 
Q 2931 909 2931 1356 
Q 2931 1769 2642 2001 
Q 2353 2234 1838 2234 
L 1294 2234 
L 1294 2753 
L 1863 2753 
Q 2328 2753 2575 2939 
Q 2822 3125 2822 3475 
Q 2822 3834 2567 4026 
Q 2313 4219 1838 4219 
Q 1578 4219 1281 4162 
Q 984 4106 628 3988 
L 628 4550 
Q 988 4650 1302 4700 
Q 1616 4750 1894 4750 
Q 2613 4750 3031 4423 
Q 3450 4097 3450 3541 
Q 3450 3153 3228 2886 
Q 3006 2619 2597 2516 
z
" transform="scale(0.015625)"/>
       </defs>
       <use xlink:href="#DejaVuSans-33"/>
       <use xlink:href="#DejaVuSans-30" x="63.623047"/>
       <use xlink:href="#DejaVuSans-30" x="127.246094"/>
      </g>
     </g>
    </g>
    <g id="ytick_5">
     <g id="line2d_27">
      <path d="M 57.6 49.851259 
L 414.72 49.851259 
" clip-path="url(#pb037f76e9e)" style="fill: none; stroke-dasharray: 2.96,1.28; stroke-dashoffset: 0; stroke: #b0b0b0; stroke-width: 0.8"/>
     </g>
     <g id="line2d_28">
      <g>
       <use xlink:href="#ma5ba8d2788" x="57.6" y="49.851259" style="stroke: #000000; stroke-width: 0.8"/>
      </g>
     </g>
     <g id="text_15">
      <!-- 350 -->
      <g transform="translate(31.5125 53.650478)scale(0.1 -0.1)">
       <use xlink:href="#DejaVuSans-33"/>
       <use xlink:href="#DejaVuSans-35" x="63.623047"/>
       <use xlink:href="#DejaVuSans-30" x="127.246094"/>
      </g>
     </g>
    </g>
    <g id="text_16">
     <!-- Reward Density -->
     <g transform="translate(25.432812 213.74675)rotate(-90)scale(0.1 -0.1)">
      <defs>
       <path id="DejaVuSans-52" d="M 2841 2188 
Q 3044 2119 3236 1894 
Q 3428 1669 3622 1275 
L 4263 0 
L 3584 0 
L 2988 1197 
Q 2756 1666 2539 1819 
Q 2322 1972 1947 1972 
L 1259 1972 
L 1259 0 
L 628 0 
L 628 4666 
L 2053 4666 
Q 2853 4666 3247 4331 
Q 3641 3997 3641 3322 
Q 3641 2881 3436 2590 
Q 3231 2300 2841 2188 
z
M 1259 4147 
L 1259 2491 
L 2053 2491 
Q 2509 2491 2742 2702 
Q 2975 2913 2975 3322 
Q 2975 3731 2742 3939 
Q 2509 4147 2053 4147 
L 1259 4147 
z
" transform="scale(0.015625)"/>
       <path id="DejaVuSans-77" d="M 269 3500 
L 844 3500 
L 1563 769 
L 2278 3500 
L 2956 3500 
L 3675 769 
L 4391 3500 
L 4966 3500 
L 4050 0 
L 3372 0 
L 2619 2869 
L 1863 0 
L 1184 0 
L 269 3500 
z
" transform="scale(0.015625)"/>
       <path id="DejaVuSans-44" d="M 1259 4147 
L 1259 519 
L 2022 519 
Q 2988 519 3436 956 
Q 3884 1394 3884 2338 
Q 3884 3275 3436 3711 
Q 2988 4147 2022 4147 
L 1259 4147 
z
M 628 4666 
L 1925 4666 
Q 3281 4666 3915 4102 
Q 4550 3538 4550 2338 
Q 4550 1131 3912 565 
Q 3275 0 1925 0 
L 628 0 
L 628 4666 
z
" transform="scale(0.015625)"/>
       <path id="DejaVuSans-74" d="M 1172 4494 
L 1172 3500 
L 2356 3500 
L 2356 3053 
L 1172 3053 
L 1172 1153 
Q 1172 725 1289 603 
Q 1406 481 1766 481 
L 2356 481 
L 2356 0 
L 1766 0 
Q 1100 0 847 248 
Q 594 497 594 1153 
L 594 3053 
L 172 3053 
L 172 3500 
L 594 3500 
L 594 4494 
L 1172 4494 
z
" transform="scale(0.015625)"/>
       <path id="DejaVuSans-79" d="M 2059 -325 
Q 1816 -950 1584 -1140 
Q 1353 -1331 966 -1331 
L 506 -1331 
L 506 -850 
L 844 -850 
Q 1081 -850 1212 -737 
Q 1344 -625 1503 -206 
L 1606 56 
L 191 3500 
L 800 3500 
L 1894 763 
L 2988 3500 
L 3597 3500 
L 2059 -325 
z
" transform="scale(0.015625)"/>
      </defs>
      <use xlink:href="#DejaVuSans-52"/>
      <use xlink:href="#DejaVuSans-65" x="64.982422"/>
      <use xlink:href="#DejaVuSans-77" x="126.505859"/>
      <use xlink:href="#DejaVuSans-61" x="208.292969"/>
      <use xlink:href="#DejaVuSans-72" x="269.572266"/>
      <use xlink:href="#DejaVuSans-64" x="308.935547"/>
      <use xlink:href="#DejaVuSans-20" x="372.412109"/>
      <use xlink:href="#DejaVuSans-44" x="404.199219"/>
      <use xlink:href="#DejaVuSans-65" x="481.201172"/>
      <use xlink:href="#DejaVuSans-6e" x="542.724609"/>
      <use xlink:href="#DejaVuSans-73" x="606.103516"/>
      <use xlink:href="#DejaVuSans-69" x="658.203125"/>
      <use xlink:href="#DejaVuSans-74" x="685.986328"/>
      <use xlink:href="#DejaVuSans-79" x="725.195312"/>
     </g>
    </g>
   </g>
   <g id="LineCollection_1">
    <path d="M 90.893768 173.542975 
L 125.01585 173.542975 
" clip-path="url(#pb037f76e9e)" style="fill: none; stroke: #1f77b4; stroke-width: 1.5"/>
    <path d="M 176.198972 179.674447 
L 210.321054 179.674447 
" clip-path="url(#pb037f76e9e)" style="fill: none; stroke: #1f77b4; stroke-width: 1.5"/>
    <path d="M 261.504176 181.374546 
L 295.626258 181.374546 
" clip-path="url(#pb037f76e9e)" style="fill: none; stroke: #1f77b4; stroke-width: 1.5"/>
    <path d="M 346.80938 181.909845 
L 380.931462 181.909845 
" clip-path="url(#pb037f76e9e)" style="fill: none; stroke: #1f77b4; stroke-width: 1.5"/>
    <path d="M 347.30415 180.738851 
L 381.426232 180.738851 
" clip-path="url(#pb037f76e9e)" style="fill: none; stroke: #1f77b4; stroke-width: 1.5"/>
   </g>
   <g id="LineCollection_2">
    <path d="M 90.893768 53.568 
L 125.01585 53.568 
" clip-path="url(#pb037f76e9e)" style="fill: none; stroke: #1f77b4; stroke-width: 1.5"/>
    <path d="M 176.198972 57.107753 
L 210.321054 57.107753 
" clip-path="url(#pb037f76e9e)" style="fill: none; stroke: #1f77b4; stroke-width: 1.5"/>
    <path d="M 261.504176 55.625481 
L 295.626258 55.625481 
" clip-path="url(#pb037f76e9e)" style="fill: none; stroke: #1f77b4; stroke-width: 1.5"/>
    <path d="M 346.80938 60.271407 
L 380.931462 60.271407 
" clip-path="url(#pb037f76e9e)" style="fill: none; stroke: #1f77b4; stroke-width: 1.5"/>
    <path d="M 347.30415 55.913086 
L 381.426232 55.913086 
" clip-path="url(#pb037f76e9e)" style="fill: none; stroke: #1f77b4; stroke-width: 1.5"/>
   </g>
   <g id="LineCollection_3">
    <path d="M 90.893768 285.156346 
L 125.01585 285.156346 
" clip-path="url(#pb037f76e9e)" style="fill: none; stroke: #1f77b4; stroke-width: 1.5"/>
    <path d="M 176.198972 290.17837 
L 210.321054 290.17837 
" clip-path="url(#pb037f76e9e)" style="fill: none; stroke: #1f77b4; stroke-width: 1.5"/>
    <path d="M 261.504176 295.488 
L 295.626258 295.488 
" clip-path="url(#pb037f76e9e)" style="fill: none; stroke: #1f77b4; stroke-width: 1.5"/>
    <path d="M 346.80938 290.886321 
L 380.931462 290.886321 
" clip-path="url(#pb037f76e9e)" style="fill: none; stroke: #1f77b4; stroke-width: 1.5"/>
    <path d="M 347.30415 292.855309 
L 381.426232 292.855309 
" clip-path="url(#pb037f76e9e)" style="fill: none; stroke: #1f77b4; stroke-width: 1.5"/>
   </g>
   <g id="LineCollection_4">
    <path d="M 107.954809 285.156346 
L 107.954809 53.568 
" clip-path="url(#pb037f76e9e)" style="fill: none; stroke: #1f77b4; stroke-width: 1.5"/>
    <path d="M 193.260013 290.17837 
L 193.260013 57.107753 
" clip-path="url(#pb037f76e9e)" style="fill: none; stroke: #1f77b4; stroke-width: 1.5"/>
    <path d="M 278.565217 295.488 
L 278.565217 55.625481 
" clip-path="url(#pb037f76e9e)" style="fill: none; stroke: #1f77b4; stroke-width: 1.5"/>
    <path d="M 363.870421 290.886321 
L 363.870421 60.271407 
" clip-path="url(#pb037f76e9e)" style="fill: none; stroke: #1f77b4; stroke-width: 1.5"/>
    <path d="M 364.365191 292.855309 
L 364.365191 55.913086 
" clip-path="url(#pb037f76e9e)" style="fill: none; stroke: #1f77b4; stroke-width: 1.5"/>
   </g>
   <g id="line2d_29">
    <path d="M 107.954809 173.542975 
L 193.260013 179.674447 
L 278.565217 181.374546 
L 363.870421 181.909845 
L 364.365191 180.738851 
" clip-path="url(#pb037f76e9e)" style="fill: none; stroke: #4682b4; stroke-width: 1.5; stroke-linecap: square"/>
   </g>
   <g id="line2d_30">
    <path d="M 107.954809 173.542975 
L 193.260013 179.674447 
L 278.565217 181.374546 
L 363.870421 181.909845 
L 364.365191 180.738851 
" clip-path="url(#pb037f76e9e)" style="fill: none; stroke: #4682b4; stroke-width: 1.5; stroke-linecap: square"/>
   </g>
   <g id="patch_3">
    <path d="M 57.6 307.584 
L 57.6 41.472 
" style="fill: none; stroke: #000000; stroke-width: 0.8; stroke-linejoin: miter; stroke-linecap: square"/>
   </g>
   <g id="patch_4">
    <path d="M 414.72 307.584 
L 414.72 41.472 
" style="fill: none; stroke: #000000; stroke-width: 0.8; stroke-linejoin: miter; stroke-linecap: square"/>
   </g>
   <g id="patch_5">
    <path d="M 57.6 307.584 
L 414.72 307.584 
" style="fill: none; stroke: #000000; stroke-width: 0.8; stroke-linejoin: miter; stroke-linecap: square"/>
   </g>
   <g id="patch_6">
    <path d="M 57.6 41.472 
L 414.72 41.472 
" style="fill: none; stroke: #000000; stroke-width: 0.8; stroke-linejoin: miter; stroke-linecap: square"/>
   </g>
   <g id="text_17">
    <!-- Violinplot for progress of state/in_circulation -->
    <g transform="translate(103.735312 35.472)scale(0.12 -0.12)">
     <defs>
      <path id="DejaVuSans-56" d="M 1831 0 
L 50 4666 
L 709 4666 
L 2188 738 
L 3669 4666 
L 4325 4666 
L 2547 0 
L 1831 0 
z
" transform="scale(0.015625)"/>
      <path id="DejaVuSans-6c" d="M 603 4863 
L 1178 4863 
L 1178 0 
L 603 0 
L 603 4863 
z
" transform="scale(0.015625)"/>
      <path id="DejaVuSans-66" d="M 2375 4863 
L 2375 4384 
L 1825 4384 
Q 1516 4384 1395 4259 
Q 1275 4134 1275 3809 
L 1275 3500 
L 2222 3500 
L 2222 3053 
L 1275 3053 
L 1275 0 
L 697 0 
L 697 3053 
L 147 3053 
L 147 3500 
L 697 3500 
L 697 3744 
Q 697 4328 969 4595 
Q 1241 4863 1831 4863 
L 2375 4863 
z
" transform="scale(0.015625)"/>
      <path id="DejaVuSans-67" d="M 2906 1791 
Q 2906 2416 2648 2759 
Q 2391 3103 1925 3103 
Q 1463 3103 1205 2759 
Q 947 2416 947 1791 
Q 947 1169 1205 825 
Q 1463 481 1925 481 
Q 2391 481 2648 825 
Q 2906 1169 2906 1791 
z
M 3481 434 
Q 3481 -459 3084 -895 
Q 2688 -1331 1869 -1331 
Q 1566 -1331 1297 -1286 
Q 1028 -1241 775 -1147 
L 775 -588 
Q 1028 -725 1275 -790 
Q 1522 -856 1778 -856 
Q 2344 -856 2625 -561 
Q 2906 -266 2906 331 
L 2906 616 
Q 2728 306 2450 153 
Q 2172 0 1784 0 
Q 1141 0 747 490 
Q 353 981 353 1791 
Q 353 2603 747 3093 
Q 1141 3584 1784 3584 
Q 2172 3584 2450 3431 
Q 2728 3278 2906 2969 
L 2906 3500 
L 3481 3500 
L 3481 434 
z
" transform="scale(0.015625)"/>
      <path id="DejaVuSans-2f" d="M 1625 4666 
L 2156 4666 
L 531 -594 
L 0 -594 
L 1625 4666 
z
" transform="scale(0.015625)"/>
      <path id="DejaVuSans-5f" d="M 3263 -1063 
L 3263 -1509 
L -63 -1509 
L -63 -1063 
L 3263 -1063 
z
" transform="scale(0.015625)"/>
      <path id="DejaVuSans-63" d="M 3122 3366 
L 3122 2828 
Q 2878 2963 2633 3030 
Q 2388 3097 2138 3097 
Q 1578 3097 1268 2742 
Q 959 2388 959 1747 
Q 959 1106 1268 751 
Q 1578 397 2138 397 
Q 2388 397 2633 464 
Q 2878 531 3122 666 
L 3122 134 
Q 2881 22 2623 -34 
Q 2366 -91 2075 -91 
Q 1284 -91 818 406 
Q 353 903 353 1747 
Q 353 2603 823 3093 
Q 1294 3584 2113 3584 
Q 2378 3584 2631 3529 
Q 2884 3475 3122 3366 
z
" transform="scale(0.015625)"/>
      <path id="DejaVuSans-75" d="M 544 1381 
L 544 3500 
L 1119 3500 
L 1119 1403 
Q 1119 906 1312 657 
Q 1506 409 1894 409 
Q 2359 409 2629 706 
Q 2900 1003 2900 1516 
L 2900 3500 
L 3475 3500 
L 3475 0 
L 2900 0 
L 2900 538 
Q 2691 219 2414 64 
Q 2138 -91 1772 -91 
Q 1169 -91 856 284 
Q 544 659 544 1381 
z
M 1991 3584 
L 1991 3584 
z
" transform="scale(0.015625)"/>
     </defs>
     <use xlink:href="#DejaVuSans-56"/>
     <use xlink:href="#DejaVuSans-69" x="66.158203"/>
     <use xlink:href="#DejaVuSans-6f" x="93.941406"/>
     <use xlink:href="#DejaVuSans-6c" x="155.123047"/>
     <use xlink:href="#DejaVuSans-69" x="182.90625"/>
     <use xlink:href="#DejaVuSans-6e" x="210.689453"/>
     <use xlink:href="#DejaVuSans-70" x="274.068359"/>
     <use xlink:href="#DejaVuSans-6c" x="337.544922"/>
     <use xlink:href="#DejaVuSans-6f" x="365.328125"/>
     <use xlink:href="#DejaVuSans-74" x="426.509766"/>
     <use xlink:href="#DejaVuSans-20" x="465.71875"/>
     <use xlink:href="#DejaVuSans-66" x="497.505859"/>
     <use xlink:href="#DejaVuSans-6f" x="532.710938"/>
     <use xlink:href="#DejaVuSans-72" x="593.892578"/>
     <use xlink:href="#DejaVuSans-20" x="635.005859"/>
     <use xlink:href="#DejaVuSans-70" x="666.792969"/>
     <use xlink:href="#DejaVuSans-72" x="730.269531"/>
     <use xlink:href="#DejaVuSans-6f" x="769.132812"/>
     <use xlink:href="#DejaVuSans-67" x="830.314453"/>
     <use xlink:href="#DejaVuSans-72" x="893.791016"/>
     <use xlink:href="#DejaVuSans-65" x="932.654297"/>
     <use xlink:href="#DejaVuSans-73" x="994.177734"/>
     <use xlink:href="#DejaVuSans-73" x="1046.277344"/>
     <use xlink:href="#DejaVuSans-20" x="1098.376953"/>
     <use xlink:href="#DejaVuSans-6f" x="1130.164062"/>
     <use xlink:href="#DejaVuSans-66" x="1191.345703"/>
     <use xlink:href="#DejaVuSans-20" x="1226.550781"/>
     <use xlink:href="#DejaVuSans-73" x="1258.337891"/>
     <use xlink:href="#DejaVuSans-74" x="1310.4375"/>
     <use xlink:href="#DejaVuSans-61" x="1349.646484"/>
     <use xlink:href="#DejaVuSans-74" x="1410.925781"/>
     <use xlink:href="#DejaVuSans-65" x="1450.134766"/>
     <use xlink:href="#DejaVuSans-2f" x="1511.658203"/>
     <use xlink:href="#DejaVuSans-69" x="1545.349609"/>
     <use xlink:href="#DejaVuSans-6e" x="1573.132812"/>
     <use xlink:href="#DejaVuSans-5f" x="1636.511719"/>
     <use xlink:href="#DejaVuSans-63" x="1686.511719"/>
     <use xlink:href="#DejaVuSans-69" x="1741.492188"/>
     <use xlink:href="#DejaVuSans-72" x="1769.275391"/>
     <use xlink:href="#DejaVuSans-63" x="1808.138672"/>
     <use xlink:href="#DejaVuSans-75" x="1863.119141"/>
     <use xlink:href="#DejaVuSans-6c" x="1926.498047"/>
     <use xlink:href="#DejaVuSans-61" x="1954.28125"/>
     <use xlink:href="#DejaVuSans-74" x="2015.560547"/>
     <use xlink:href="#DejaVuSans-69" x="2054.769531"/>
     <use xlink:href="#DejaVuSans-6f" x="2082.552734"/>
     <use xlink:href="#DejaVuSans-6e" x="2143.734375"/>
    </g>
   </g>
  </g>
 </g>
 <defs>
  <clipPath id="pb037f76e9e">
   <rect x="57.6" y="41.472" width="357.12" height="266.112"/>
  </clipPath>
 </defs>
</svg>
