<?xml version="1.0" encoding="utf-8" standalone="no"?>
<!DOCTYPE svg PUBLIC "-//W3C//DTD SVG 1.1//EN"
  "http://www.w3.org/Graphics/SVG/1.1/DTD/svg11.dtd">
<svg xmlns:xlink="http://www.w3.org/1999/xlink" width="460.8pt" height="345.6pt" viewBox="0 0 460.8 345.6" xmlns="http://www.w3.org/2000/svg" version="1.1">
 <metadata>
  <rdf:RDF xmlns:dc="http://purl.org/dc/elements/1.1/" xmlns:cc="http://creativecommons.org/ns#" xmlns:rdf="http://www.w3.org/1999/02/22-rdf-syntax-ns#">
   <cc:Work>
    <dc:type rdf:resource="http://purl.org/dc/dcmitype/StillImage"/>
    <dc:date>2022-06-16T12:02:59.147290</dc:date>
    <dc:format>image/svg+xml</dc:format>
    <dc:creator>
     <cc:Agent>
      <dc:title>Matplotlib v3.5.2, https://matplotlib.org/</dc:title>
     </cc:Agent>
    </dc:creator>
   </cc:Work>
  </rdf:RDF>
 </metadata>
 <defs>
  <style type="text/css">*{stroke-linejoin: round; stroke-linecap: butt}</style>
 </defs>
 <g id="figure_1">
  <g id="patch_1">
   <path d="M 0 345.6 
L 460.8 345.6 
L 460.8 0 
L 0 0 
z
" style="fill: #ffffff"/>
  </g>
  <g id="axes_1">
   <g id="patch_2">
    <path d="M 57.6 307.584 
L 414.72 307.584 
L 414.72 41.472 
L 57.6 41.472 
z
" style="fill: #ffffff"/>
   </g>
   <g id="PolyCollection_1">
    <path d="M 120.751462 295.488 
L 101.872713 295.488 
L 100.735346 293.208183 
L 99.551985 290.928366 
L 98.33102 288.648549 
L 97.081561 286.368731 
L 95.81344 284.088914 
L 94.537196 281.809097 
L 93.264016 279.52928 
L 92.005566 277.249463 
L 90.773691 274.969646 
L 89.579969 272.689828 
L 88.43514 270.410011 
L 87.348437 268.130194 
L 86.326914 265.850377 
L 85.374836 263.57056 
L 84.493234 261.290743 
L 83.679718 259.010925 
L 82.928585 256.731108 
L 82.231261 254.451291 
L 81.577058 252.171474 
L 80.954173 249.891657 
L 80.350854 247.61184 
L 79.756591 245.332022 
L 79.163236 243.052205 
L 78.565912 240.772388 
L 77.963641 238.492571 
L 77.359616 236.212754 
L 76.761115 233.932937 
L 76.17906 231.653119 
L 75.627286 229.373302 
L 75.121577 227.093485 
L 74.678574 224.813668 
L 74.314612 222.533851 
L 74.044594 220.254034 
L 73.880948 217.974216 
L 73.832727 215.694399 
L 73.904886 213.414582 
L 74.097763 211.134765 
L 74.406784 208.854948 
L 74.822405 206.575131 
L 75.330296 204.295313 
L 75.911782 202.015496 
L 76.544552 199.735679 
L 77.203595 197.455862 
L 77.86239 195.176045 
L 78.494258 192.896228 
L 79.073841 190.61641 
L 79.578612 188.336593 
L 79.990297 186.056776 
L 80.296107 183.776959 
L 80.489653 181.497142 
L 80.571458 179.217325 
L 80.548992 176.937507 
L 80.436207 174.65769 
L 80.252609 172.377873 
L 80.021924 170.098056 
L 79.770505 167.818239 
L 79.52559 165.538422 
L 79.313605 163.258604 
L 79.158634 160.978787 
L 79.081193 158.69897 
L 79.097384 156.419153 
L 79.218465 154.139336 
L 79.450821 151.859519 
L 79.796282 149.579701 
L 80.252715 147.299884 
L 80.814776 145.020067 
L 81.474733 142.74025 
L 82.223277 140.460433 
L 83.050246 138.180616 
L 83.945213 135.900798 
L 84.897931 133.620981 
L 85.898613 131.341164 
L 86.938076 129.061347 
L 88.007755 126.78153 
L 89.09963 124.501713 
L 90.206089 122.221895 
L 91.319768 119.942078 
L 92.43339 117.662261 
L 93.539644 115.382444 
L 94.631139 113.102627 
L 95.700423 110.82281 
L 96.740113 108.542992 
L 97.743109 106.263175 
L 98.702883 103.983358 
L 99.613819 101.703541 
L 100.471549 99.423724 
L 101.273259 97.143907 
L 102.017905 94.864089 
L 102.706305 92.584272 
L 103.341082 90.304455 
L 103.926464 88.024638 
L 104.467924 85.744821 
L 104.971726 83.465004 
L 105.4444 81.185186 
L 105.892207 78.905369 
L 106.320655 76.625552 
L 106.734111 74.345735 
L 107.135542 72.065918 
L 107.52642 69.786101 
L 115.097755 69.786101 
L 115.097755 69.786101 
L 115.488633 72.065918 
L 115.890064 74.345735 
L 116.303519 76.625552 
L 116.731968 78.905369 
L 117.179775 81.185186 
L 117.652448 83.465004 
L 118.156251 85.744821 
L 118.697711 88.024638 
L 119.283092 90.304455 
L 119.91787 92.584272 
L 120.606269 94.864089 
L 121.350915 97.143907 
L 122.152626 99.423724 
L 123.010356 101.703541 
L 123.921291 103.983358 
L 124.881066 106.263175 
L 125.884062 108.542992 
L 126.923752 110.82281 
L 127.993035 113.102627 
L 129.08453 115.382444 
L 130.190785 117.662261 
L 131.304406 119.942078 
L 132.418085 122.221895 
L 133.524545 124.501713 
L 134.61642 126.78153 
L 135.686099 129.061347 
L 136.725562 131.341164 
L 137.726244 133.620981 
L 138.678962 135.900798 
L 139.573929 138.180616 
L 140.400897 140.460433 
L 141.149442 142.74025 
L 141.809399 145.020067 
L 142.37146 147.299884 
L 142.827893 149.579701 
L 143.173354 151.859519 
L 143.405709 154.139336 
L 143.52679 156.419153 
L 143.542982 158.69897 
L 143.465541 160.978787 
L 143.31057 163.258604 
L 143.098584 165.538422 
L 142.85367 167.818239 
L 142.60225 170.098056 
L 142.371566 172.377873 
L 142.187967 174.65769 
L 142.075183 176.937507 
L 142.052717 179.217325 
L 142.134522 181.497142 
L 142.328068 183.776959 
L 142.633877 186.056776 
L 143.045563 188.336593 
L 143.550334 190.61641 
L 144.129917 192.896228 
L 144.761784 195.176045 
L 145.420579 197.455862 
L 146.079623 199.735679 
L 146.712392 202.015496 
L 147.293879 204.295313 
L 147.801769 206.575131 
L 148.21739 208.854948 
L 148.526412 211.134765 
L 148.719289 213.414582 
L 148.791447 215.694399 
L 148.743226 217.974216 
L 148.579581 220.254034 
L 148.309563 222.533851 
L 147.945601 224.813668 
L 147.502597 227.093485 
L 146.996889 229.373302 
L 146.445114 231.653119 
L 145.863059 233.932937 
L 145.264558 236.212754 
L 144.660534 238.492571 
L 144.058263 240.772388 
L 143.460939 243.052205 
L 142.867584 245.332022 
L 142.273321 247.61184 
L 141.670001 249.891657 
L 141.047117 252.171474 
L 140.392914 254.451291 
L 139.69559 256.731108 
L 138.944457 259.010925 
L 138.130941 261.290743 
L 137.249339 263.57056 
L 136.29726 265.850377 
L 135.275737 268.130194 
L 134.189035 270.410011 
L 133.044205 272.689828 
L 131.850484 274.969646 
L 130.618608 277.249463 
L 129.360158 279.52928 
L 128.086979 281.809097 
L 126.810735 284.088914 
L 125.542613 286.368731 
L 124.293155 288.648549 
L 123.07219 290.928366 
L 121.888828 293.208183 
L 120.751462 295.488 
z
" clip-path="url(#p4a2cd33e7c)" style="fill: #1f77b4; fill-opacity: 0.3"/>
   </g>
   <g id="PolyCollection_2">
    <path d="M 195.853054 252.690235 
L 193.346054 252.690235 
L 193.138071 250.701652 
L 192.905478 248.713069 
L 192.646648 246.724486 
L 192.360323 244.735902 
L 192.045718 242.747319 
L 191.702553 240.758736 
L 191.331028 238.770153 
L 190.931754 236.78157 
L 190.505681 234.792987 
L 190.054062 232.804404 
L 189.578486 230.815821 
L 189.080997 228.827238 
L 188.564255 226.838655 
L 188.031711 224.850072 
L 187.487696 222.861489 
L 186.93738 220.872906 
L 186.38652 218.884323 
L 185.841006 216.89574 
L 185.306219 214.907157 
L 184.786281 212.918574 
L 184.283294 210.929991 
L 183.79666 208.941408 
L 183.322594 206.952825 
L 182.853874 204.964242 
L 182.379863 202.975659 
L 181.886811 200.987076 
L 181.35842 198.998493 
L 180.776652 197.00991 
L 180.12276 195.021327 
L 179.378536 193.032744 
L 178.527724 191.04416 
L 177.557575 189.055577 
L 176.460422 187.066994 
L 175.235152 185.078411 
L 173.888382 183.089828 
L 172.435123 181.101245 
L 170.898738 179.112662 
L 169.310042 177.124079 
L 167.705504 175.135496 
L 166.124653 173.146913 
L 164.606945 171.15833 
L 163.188487 169.169747 
L 161.899088 167.181164 
L 160.760116 165.192581 
L 159.783513 163.203998 
L 158.972146 161.215415 
L 158.321414 159.226832 
L 157.82178 157.238249 
L 157.461721 155.249666 
L 157.230497 153.261083 
L 157.120194 151.2725 
L 157.126665 149.283917 
L 157.249234 147.295334 
L 157.489321 145.306751 
L 157.848353 143.318168 
L 158.325483 141.329585 
L 158.915637 139.341002 
L 159.608345 137.352418 
L 160.387589 135.363835 
L 161.232716 133.375252 
L 162.120231 131.386669 
L 163.02615 129.398086 
L 163.928483 127.409503 
L 164.809456 125.42092 
L 165.657135 123.432337 
L 166.466231 121.443754 
L 167.238048 119.455171 
L 167.979619 117.466588 
L 168.702241 115.478005 
L 169.419638 113.489422 
L 170.146041 111.500839 
L 170.894425 109.512256 
L 171.675103 107.523673 
L 172.49479 105.53509 
L 173.356186 103.546507 
L 174.258036 101.557924 
L 175.195581 99.569341 
L 176.161299 97.580758 
L 177.145784 95.592175 
L 178.138669 93.603592 
L 179.129488 91.615009 
L 180.108408 89.626426 
L 181.066801 87.637843 
L 181.997635 85.64926 
L 182.895684 83.660676 
L 183.757576 81.672093 
L 184.581693 79.68351 
L 185.367945 77.694927 
L 186.117444 75.706344 
L 186.832111 73.717761 
L 187.514242 71.729178 
L 188.166081 69.740595 
L 188.789439 67.752012 
L 189.38541 65.763429 
L 189.954192 63.774846 
L 190.495064 61.786263 
L 191.006492 59.79768 
L 191.48635 57.809097 
L 191.932236 55.820514 
L 197.266872 55.820514 
L 197.266872 55.820514 
L 197.712758 57.809097 
L 198.192616 59.79768 
L 198.704044 61.786263 
L 199.244916 63.774846 
L 199.813699 65.763429 
L 200.409669 67.752012 
L 201.033028 69.740595 
L 201.684866 71.729178 
L 202.366997 73.717761 
L 203.081664 75.706344 
L 203.831163 77.694927 
L 204.617415 79.68351 
L 205.441532 81.672093 
L 206.303424 83.660676 
L 207.201473 85.64926 
L 208.132307 87.637843 
L 209.0907 89.626426 
L 210.06962 91.615009 
L 211.060439 93.603592 
L 212.053325 95.592175 
L 213.03781 97.580758 
L 214.003527 99.569341 
L 214.941073 101.557924 
L 215.842922 103.546507 
L 216.704318 105.53509 
L 217.524006 107.523673 
L 218.304683 109.512256 
L 219.053067 111.500839 
L 219.77947 113.489422 
L 220.496867 115.478005 
L 221.219489 117.466588 
L 221.96106 119.455171 
L 222.732877 121.443754 
L 223.541973 123.432337 
L 224.389652 125.42092 
L 225.270625 127.409503 
L 226.172958 129.398086 
L 227.078877 131.386669 
L 227.966392 133.375252 
L 228.811519 135.363835 
L 229.590763 137.352418 
L 230.283471 139.341002 
L 230.873626 141.329585 
L 231.350755 143.318168 
L 231.709788 145.306751 
L 231.949875 147.295334 
L 232.072443 149.283917 
L 232.078914 151.2725 
L 231.968611 153.261083 
L 231.737387 155.249666 
L 231.377328 157.238249 
L 230.877694 159.226832 
L 230.226962 161.215415 
L 229.415596 163.203998 
L 228.438992 165.192581 
L 227.30002 167.181164 
L 226.010621 169.169747 
L 224.592163 171.15833 
L 223.074455 173.146913 
L 221.493604 175.135496 
L 219.889066 177.124079 
L 218.30037 179.112662 
L 216.763985 181.101245 
L 215.310726 183.089828 
L 213.963956 185.078411 
L 212.738686 187.066994 
L 211.641533 189.055577 
L 210.671384 191.04416 
L 209.820572 193.032744 
L 209.076348 195.021327 
L 208.422457 197.00991 
L 207.840688 198.998493 
L 207.312297 200.987076 
L 206.819245 202.975659 
L 206.345234 204.964242 
L 205.876514 206.952825 
L 205.402449 208.941408 
L 204.915815 210.929991 
L 204.412827 212.918574 
L 203.89289 214.907157 
L 203.358102 216.89574 
L 202.812588 218.884323 
L 202.261728 220.872906 
L 201.711412 222.861489 
L 201.167397 224.850072 
L 200.634853 226.838655 
L 200.118112 228.827238 
L 199.620622 230.815821 
L 199.145047 232.804404 
L 198.693427 234.792987 
L 198.267354 236.78157 
L 197.868081 238.770153 
L 197.496555 240.758736 
L 197.15339 242.747319 
L 196.838785 244.735902 
L 196.55246 246.724486 
L 196.29363 248.713069 
L 196.061037 250.701652 
L 195.853054 252.690235 
z
" clip-path="url(#p4a2cd33e7c)" style="fill: #1f77b4; fill-opacity: 0.3"/>
   </g>
   <g id="PolyCollection_3">
    <path d="M 279.119669 259.898279 
L 276.654372 259.898279 
L 276.404056 258.096268 
L 276.100204 256.294257 
L 275.730046 254.492246 
L 275.279679 252.690235 
L 274.734951 250.888223 
L 274.082616 249.086212 
L 273.311648 247.284201 
L 272.414601 245.48219 
L 271.388793 243.680179 
L 270.237136 241.878168 
L 268.968412 240.076156 
L 267.596898 238.274145 
L 266.141343 236.472134 
L 264.62346 234.670123 
L 263.066177 232.868112 
L 261.491993 231.066101 
L 259.921723 229.264089 
L 258.373823 227.462078 
L 256.864314 225.660067 
L 255.40714 223.858056 
L 254.014668 222.056045 
L 252.698008 220.254034 
L 251.466878 218.452022 
L 250.328938 216.650011 
L 249.288686 214.848 
L 248.346233 213.045989 
L 247.496349 211.243978 
L 246.728211 209.441966 
L 246.026133 207.639955 
L 245.371378 205.837944 
L 244.74488 204.035933 
L 244.13051 202.233922 
L 243.518339 200.431911 
L 242.907313 198.629899 
L 242.306826 196.827888 
L 241.736818 195.025877 
L 241.226288 193.223866 
L 240.810317 191.421855 
L 240.525982 189.619844 
L 240.407661 187.817832 
L 240.482364 186.015821 
L 240.765729 184.21381 
L 241.259207 182.411799 
L 241.948874 180.609788 
L 242.806041 178.807777 
L 243.789667 177.005765 
L 244.850313 175.203754 
L 245.935196 173.401743 
L 246.993723 171.599732 
L 247.982808 169.797721 
L 248.871273 167.995709 
L 249.642729 166.193698 
L 250.296562 164.391687 
L 250.84691 162.589676 
L 251.319853 160.787665 
L 251.74929 158.985654 
L 252.172193 157.183642 
L 252.623976 155.381631 
L 253.134611 153.57962 
L 253.725955 151.777609 
L 254.410456 149.975598 
L 255.191191 148.173587 
L 256.062948 146.371575 
L 257.014002 144.569564 
L 258.028197 142.767553 
L 259.087028 140.965542 
L 260.171496 139.163531 
L 261.263617 137.36152 
L 262.347546 135.559508 
L 263.410308 133.757497 
L 264.442159 131.955486 
L 265.436587 130.153475 
L 266.390009 128.351464 
L 267.301175 126.549453 
L 268.170389 124.747441 
L 268.998627 122.94543 
L 269.78672 121.143419 
L 270.534709 119.341408 
L 271.241528 117.539397 
L 271.905039 115.737385 
L 272.522437 113.935374 
L 273.090885 112.133363 
L 273.608257 110.331352 
L 274.073772 108.529341 
L 274.488385 106.72733 
L 274.854827 104.925318 
L 275.177303 103.123307 
L 275.460929 101.321296 
L 275.711067 99.519285 
L 275.932715 97.717274 
L 276.130091 95.915263 
L 276.306487 94.113251 
L 276.464372 92.31124 
L 276.605673 90.509229 
L 276.732114 88.707218 
L 276.845493 86.905207 
L 276.947814 85.103196 
L 277.04125 83.301184 
L 277.127955 81.499173 
L 278.646087 81.499173 
L 278.646087 81.499173 
L 278.732792 83.301184 
L 278.826228 85.103196 
L 278.928549 86.905207 
L 279.041928 88.707218 
L 279.168368 90.509229 
L 279.309669 92.31124 
L 279.467554 94.113251 
L 279.643951 95.915263 
L 279.841327 97.717274 
L 280.062974 99.519285 
L 280.313112 101.321296 
L 280.596739 103.123307 
L 280.919214 104.925318 
L 281.285657 106.72733 
L 281.70027 108.529341 
L 282.165785 110.331352 
L 282.683156 112.133363 
L 283.251605 113.935374 
L 283.869002 115.737385 
L 284.532514 117.539397 
L 285.239332 119.341408 
L 285.987322 121.143419 
L 286.775414 122.94543 
L 287.603653 124.747441 
L 288.472867 126.549453 
L 289.384033 128.351464 
L 290.337454 130.153475 
L 291.331883 131.955486 
L 292.363733 133.757497 
L 293.426496 135.559508 
L 294.510425 137.36152 
L 295.602546 139.163531 
L 296.687013 140.965542 
L 297.745845 142.767553 
L 298.76004 144.569564 
L 299.711094 146.371575 
L 300.582851 148.173587 
L 301.363586 149.975598 
L 302.048087 151.777609 
L 302.63943 153.57962 
L 303.150066 155.381631 
L 303.601849 157.183642 
L 304.024752 158.985654 
L 304.454188 160.787665 
L 304.927131 162.589676 
L 305.47748 164.391687 
L 306.131312 166.193698 
L 306.902768 167.995709 
L 307.791233 169.797721 
L 308.780319 171.599732 
L 309.838846 173.401743 
L 310.923729 175.203754 
L 311.984375 177.005765 
L 312.968001 178.807777 
L 313.825168 180.609788 
L 314.514835 182.411799 
L 315.008313 184.21381 
L 315.291677 186.015821 
L 315.366381 187.817832 
L 315.248059 189.619844 
L 314.963725 191.421855 
L 314.547754 193.223866 
L 314.037223 195.025877 
L 313.467216 196.827888 
L 312.866729 198.629899 
L 312.255703 200.431911 
L 311.643532 202.233922 
L 311.029162 204.035933 
L 310.402664 205.837944 
L 309.747908 207.639955 
L 309.045831 209.441966 
L 308.277693 211.243978 
L 307.427808 213.045989 
L 306.485355 214.848 
L 305.445104 216.650011 
L 304.307163 218.452022 
L 303.076033 220.254034 
L 301.759373 222.056045 
L 300.366902 223.858056 
L 298.909728 225.660067 
L 297.400219 227.462078 
L 295.852319 229.264089 
L 294.282049 231.066101 
L 292.707865 232.868112 
L 291.150581 234.670123 
L 289.632698 236.472134 
L 288.177144 238.274145 
L 286.80563 240.076156 
L 285.536906 241.878168 
L 284.385249 243.680179 
L 283.359441 245.48219 
L 282.462394 247.284201 
L 281.691426 249.086212 
L 281.039091 250.888223 
L 280.494363 252.690235 
L 280.043996 254.492246 
L 279.673838 256.294257 
L 279.369985 258.096268 
L 279.119669 259.898279 
z
" clip-path="url(#p4a2cd33e7c)" style="fill: #1f77b4; fill-opacity: 0.3"/>
   </g>
   <g id="PolyCollection_4">
    <path d="M 364.515513 239.625654 
L 357.500312 239.625654 
L 357.021805 237.746283 
L 356.530006 235.866913 
L 356.031723 233.987543 
L 355.533594 232.108173 
L 355.041575 230.228802 
L 354.560358 228.349432 
L 354.092756 226.470062 
L 353.63912 224.590692 
L 353.196839 222.711321 
L 352.760027 220.831951 
L 352.319443 218.952581 
L 351.86269 217.073211 
L 351.374712 215.193841 
L 350.83854 213.31447 
L 350.236247 211.4351 
L 349.550031 209.55573 
L 348.763337 207.67636 
L 347.861977 205.796989 
L 346.835165 203.917619 
L 345.676466 202.038249 
L 344.384614 200.158879 
L 342.964188 198.279508 
L 341.426097 196.400138 
L 339.787817 194.520768 
L 338.073299 192.641398 
L 336.312449 190.762027 
L 334.540116 188.882657 
L 332.794554 187.003287 
L 331.115418 185.123917 
L 329.541437 183.244546 
L 328.10798 181.365176 
L 326.844835 179.485806 
L 325.774465 177.606436 
L 324.911 175.727066 
L 324.260062 173.847695 
L 323.819412 171.968325 
L 323.580201 170.088955 
L 323.528553 168.209585 
L 323.647125 166.330214 
L 323.916376 164.450844 
L 324.315373 162.571474 
L 324.822162 160.692104 
L 325.413852 158.812733 
L 326.066676 156.933363 
L 326.756289 155.053993 
L 327.458504 153.174623 
L 328.150476 151.295252 
L 328.812231 149.415882 
L 329.428248 147.536512 
L 329.988772 145.657142 
L 330.490562 143.777771 
L 330.93687 141.898401 
L 331.336629 140.019031 
L 331.702991 138.139661 
L 332.051483 136.260291 
L 332.398115 134.38092 
L 332.757754 132.50155 
L 333.14299 130.62218 
L 333.563606 128.74281 
L 334.026597 126.863439 
L 334.536617 124.984069 
L 335.096633 123.104699 
L 335.708582 121.225329 
L 336.373836 119.345958 
L 337.093407 117.466588 
L 337.867848 115.587218 
L 338.69692 113.707848 
L 339.579134 111.828477 
L 340.511307 109.949107 
L 341.488223 108.069737 
L 342.502503 106.190367 
L 343.544711 104.310996 
L 344.603678 102.431626 
L 345.667022 100.552256 
L 346.721783 98.672886 
L 347.755132 96.793515 
L 348.755088 94.914145 
L 349.711189 93.034775 
L 350.615088 91.155405 
L 351.461021 89.276035 
L 352.246089 87.396664 
L 352.970324 85.517294 
L 353.636492 83.637924 
L 354.249625 81.758554 
L 354.816314 79.879183 
L 355.343833 77.999813 
L 355.83921 76.120443 
L 356.308384 74.241073 
L 356.755572 72.361702 
L 357.182953 70.482332 
L 357.590702 68.602962 
L 357.977358 66.723592 
L 358.340427 64.844221 
L 358.6771 62.964851 
L 358.984939 61.085481 
L 359.262414 59.206111 
L 359.509201 57.32674 
L 359.726232 55.44737 
L 359.915515 53.568 
L 362.10031 53.568 
L 362.10031 53.568 
L 362.289593 55.44737 
L 362.506624 57.32674 
L 362.753411 59.206111 
L 363.030886 61.085481 
L 363.338725 62.964851 
L 363.675398 64.844221 
L 364.038467 66.723592 
L 364.425123 68.602962 
L 364.832873 70.482332 
L 365.260253 72.361702 
L 365.707441 74.241073 
L 366.176615 76.120443 
L 366.671992 77.999813 
L 367.199511 79.879183 
L 367.7662 81.758554 
L 368.379334 83.637924 
L 369.045502 85.517294 
L 369.769736 87.396664 
L 370.554804 89.276035 
L 371.400737 91.155405 
L 372.304637 93.034775 
L 373.260737 94.914145 
L 374.260693 96.793515 
L 375.294043 98.672886 
L 376.348804 100.552256 
L 377.412147 102.431626 
L 378.471115 104.310996 
L 379.513322 106.190367 
L 380.527603 108.069737 
L 381.504518 109.949107 
L 382.436691 111.828477 
L 383.318906 113.707848 
L 384.147977 115.587218 
L 384.922418 117.466588 
L 385.64199 119.345958 
L 386.307244 121.225329 
L 386.919192 123.104699 
L 387.479209 124.984069 
L 387.989229 126.863439 
L 388.452219 128.74281 
L 388.872835 130.62218 
L 389.258072 132.50155 
L 389.61771 134.38092 
L 389.964342 136.260291 
L 390.312834 138.139661 
L 390.679196 140.019031 
L 391.078955 141.898401 
L 391.525263 143.777771 
L 392.027054 145.657142 
L 392.587578 147.536512 
L 393.203594 149.415882 
L 393.86535 151.295252 
L 394.557322 153.174623 
L 395.259536 155.053993 
L 395.949149 156.933363 
L 396.601973 158.812733 
L 397.193664 160.692104 
L 397.700453 162.571474 
L 398.099449 164.450844 
L 398.3687 166.330214 
L 398.487273 168.209585 
L 398.435625 170.088955 
L 398.196414 171.968325 
L 397.755763 173.847695 
L 397.104826 175.727066 
L 396.24136 177.606436 
L 395.170991 179.485806 
L 393.907846 181.365176 
L 392.474389 183.244546 
L 390.900407 185.123917 
L 389.221272 187.003287 
L 387.47571 188.882657 
L 385.703376 190.762027 
L 383.942527 192.641398 
L 382.228009 194.520768 
L 380.589728 196.400138 
L 379.051637 198.279508 
L 377.631211 200.158879 
L 376.33936 202.038249 
L 375.180661 203.917619 
L 374.153849 205.796989 
L 373.252488 207.67636 
L 372.465795 209.55573 
L 371.779578 211.4351 
L 371.177286 213.31447 
L 370.641114 215.193841 
L 370.153135 217.073211 
L 369.696383 218.952581 
L 369.255798 220.831951 
L 368.818986 222.711321 
L 368.376706 224.590692 
L 367.923069 226.470062 
L 367.455468 228.349432 
L 366.97425 230.228802 
L 366.482231 232.108173 
L 365.984103 233.987543 
L 365.48582 235.866913 
L 364.99402 237.746283 
L 364.515513 239.625654 
z
" clip-path="url(#p4a2cd33e7c)" style="fill: #1f77b4; fill-opacity: 0.3"/>
   </g>
   <g id="matplotlib.axis_1">
    <g id="xtick_1">
     <g id="line2d_1">
      <defs>
       <path id="md2f654a943" d="M 0 0 
L 0 3.5 
" style="stroke: #000000; stroke-width: 0.8"/>
      </defs>
      <g>
       <use xlink:href="#md2f654a943" x="69.668354" y="307.584" style="stroke: #000000; stroke-width: 0.8"/>
      </g>
     </g>
     <g id="text_1">
      <!-- 250 -->
      <g transform="translate(60.124604 322.182437)scale(0.1 -0.1)">
       <defs>
        <path id="DejaVuSans-32" d="M 1228 531 
L 3431 531 
L 3431 0 
L 469 0 
L 469 531 
Q 828 903 1448 1529 
Q 2069 2156 2228 2338 
Q 2531 2678 2651 2914 
Q 2772 3150 2772 3378 
Q 2772 3750 2511 3984 
Q 2250 4219 1831 4219 
Q 1534 4219 1204 4116 
Q 875 4013 500 3803 
L 500 4441 
Q 881 4594 1212 4672 
Q 1544 4750 1819 4750 
Q 2544 4750 2975 4387 
Q 3406 4025 3406 3419 
Q 3406 3131 3298 2873 
Q 3191 2616 2906 2266 
Q 2828 2175 2409 1742 
Q 1991 1309 1228 531 
z
" transform="scale(0.015625)"/>
        <path id="DejaVuSans-35" d="M 691 4666 
L 3169 4666 
L 3169 4134 
L 1269 4134 
L 1269 2991 
Q 1406 3038 1543 3061 
Q 1681 3084 1819 3084 
Q 2600 3084 3056 2656 
Q 3513 2228 3513 1497 
Q 3513 744 3044 326 
Q 2575 -91 1722 -91 
Q 1428 -91 1123 -41 
Q 819 9 494 109 
L 494 744 
Q 775 591 1075 516 
Q 1375 441 1709 441 
Q 2250 441 2565 725 
Q 2881 1009 2881 1497 
Q 2881 1984 2565 2268 
Q 2250 2553 1709 2553 
Q 1456 2553 1204 2497 
Q 953 2441 691 2322 
L 691 4666 
z
" transform="scale(0.015625)"/>
        <path id="DejaVuSans-30" d="M 2034 4250 
Q 1547 4250 1301 3770 
Q 1056 3291 1056 2328 
Q 1056 1369 1301 889 
Q 1547 409 2034 409 
Q 2525 409 2770 889 
Q 3016 1369 3016 2328 
Q 3016 3291 2770 3770 
Q 2525 4250 2034 4250 
z
M 2034 4750 
Q 2819 4750 3233 4129 
Q 3647 3509 3647 2328 
Q 3647 1150 3233 529 
Q 2819 -91 2034 -91 
Q 1250 -91 836 529 
Q 422 1150 422 2328 
Q 422 3509 836 4129 
Q 1250 4750 2034 4750 
z
" transform="scale(0.015625)"/>
       </defs>
       <use xlink:href="#DejaVuSans-32"/>
       <use xlink:href="#DejaVuSans-35" x="63.623047"/>
       <use xlink:href="#DejaVuSans-30" x="127.246094"/>
      </g>
     </g>
    </g>
    <g id="xtick_2">
     <g id="line2d_2">
      <g>
       <use xlink:href="#md2f654a943" x="111.312087" y="307.584" style="stroke: #000000; stroke-width: 0.8"/>
      </g>
     </g>
     <g id="text_2">
      <!-- 500 -->
      <g transform="translate(101.768337 322.182437)scale(0.1 -0.1)">
       <use xlink:href="#DejaVuSans-35"/>
       <use xlink:href="#DejaVuSans-30" x="63.623047"/>
       <use xlink:href="#DejaVuSans-30" x="127.246094"/>
      </g>
     </g>
    </g>
    <g id="xtick_3">
     <g id="line2d_3">
      <g>
       <use xlink:href="#md2f654a943" x="152.955821" y="307.584" style="stroke: #000000; stroke-width: 0.8"/>
      </g>
     </g>
     <g id="text_3">
      <!-- 750 -->
      <g transform="translate(143.412071 322.182437)scale(0.1 -0.1)">
       <defs>
        <path id="DejaVuSans-37" d="M 525 4666 
L 3525 4666 
L 3525 4397 
L 1831 0 
L 1172 0 
L 2766 4134 
L 525 4134 
L 525 4666 
z
" transform="scale(0.015625)"/>
       </defs>
       <use xlink:href="#DejaVuSans-37"/>
       <use xlink:href="#DejaVuSans-35" x="63.623047"/>
       <use xlink:href="#DejaVuSans-30" x="127.246094"/>
      </g>
     </g>
    </g>
    <g id="xtick_4">
     <g id="line2d_4">
      <g>
       <use xlink:href="#md2f654a943" x="194.599554" y="307.584" style="stroke: #000000; stroke-width: 0.8"/>
      </g>
     </g>
     <g id="text_4">
      <!-- 1000 -->
      <g transform="translate(181.874554 322.182437)scale(0.1 -0.1)">
       <defs>
        <path id="DejaVuSans-31" d="M 794 531 
L 1825 531 
L 1825 4091 
L 703 3866 
L 703 4441 
L 1819 4666 
L 2450 4666 
L 2450 531 
L 3481 531 
L 3481 0 
L 794 0 
L 794 531 
z
" transform="scale(0.015625)"/>
       </defs>
       <use xlink:href="#DejaVuSans-31"/>
       <use xlink:href="#DejaVuSans-30" x="63.623047"/>
       <use xlink:href="#DejaVuSans-30" x="127.246094"/>
       <use xlink:href="#DejaVuSans-30" x="190.869141"/>
      </g>
     </g>
    </g>
    <g id="xtick_5">
     <g id="line2d_5">
      <g>
       <use xlink:href="#md2f654a943" x="236.243287" y="307.584" style="stroke: #000000; stroke-width: 0.8"/>
      </g>
     </g>
     <g id="text_5">
      <!-- 1250 -->
      <g transform="translate(223.518287 322.182437)scale(0.1 -0.1)">
       <use xlink:href="#DejaVuSans-31"/>
       <use xlink:href="#DejaVuSans-32" x="63.623047"/>
       <use xlink:href="#DejaVuSans-35" x="127.246094"/>
       <use xlink:href="#DejaVuSans-30" x="190.869141"/>
      </g>
     </g>
    </g>
    <g id="xtick_6">
     <g id="line2d_6">
      <g>
       <use xlink:href="#md2f654a943" x="277.887021" y="307.584" style="stroke: #000000; stroke-width: 0.8"/>
      </g>
     </g>
     <g id="text_6">
      <!-- 1500 -->
      <g transform="translate(265.162021 322.182437)scale(0.1 -0.1)">
       <use xlink:href="#DejaVuSans-31"/>
       <use xlink:href="#DejaVuSans-35" x="63.623047"/>
       <use xlink:href="#DejaVuSans-30" x="127.246094"/>
       <use xlink:href="#DejaVuSans-30" x="190.869141"/>
      </g>
     </g>
    </g>
    <g id="xtick_7">
     <g id="line2d_7">
      <g>
       <use xlink:href="#md2f654a943" x="319.530754" y="307.584" style="stroke: #000000; stroke-width: 0.8"/>
      </g>
     </g>
     <g id="text_7">
      <!-- 1750 -->
      <g transform="translate(306.805754 322.182437)scale(0.1 -0.1)">
       <use xlink:href="#DejaVuSans-31"/>
       <use xlink:href="#DejaVuSans-37" x="63.623047"/>
       <use xlink:href="#DejaVuSans-35" x="127.246094"/>
       <use xlink:href="#DejaVuSans-30" x="190.869141"/>
      </g>
     </g>
    </g>
    <g id="xtick_8">
     <g id="line2d_8">
      <g>
       <use xlink:href="#md2f654a943" x="361.174488" y="307.584" style="stroke: #000000; stroke-width: 0.8"/>
      </g>
     </g>
     <g id="text_8">
      <!-- 2000 -->
      <g transform="translate(348.449488 322.182437)scale(0.1 -0.1)">
       <use xlink:href="#DejaVuSans-32"/>
       <use xlink:href="#DejaVuSans-30" x="63.623047"/>
       <use xlink:href="#DejaVuSans-30" x="127.246094"/>
       <use xlink:href="#DejaVuSans-30" x="190.869141"/>
      </g>
     </g>
    </g>
    <g id="xtick_9">
     <g id="line2d_9">
      <g>
       <use xlink:href="#md2f654a943" x="402.818221" y="307.584" style="stroke: #000000; stroke-width: 0.8"/>
      </g>
     </g>
     <g id="text_9">
      <!-- 2250 -->
      <g transform="translate(390.093221 322.182437)scale(0.1 -0.1)">
       <use xlink:href="#DejaVuSans-32"/>
       <use xlink:href="#DejaVuSans-32" x="63.623047"/>
       <use xlink:href="#DejaVuSans-35" x="127.246094"/>
       <use xlink:href="#DejaVuSans-30" x="190.869141"/>
      </g>
     </g>
    </g>
    <g id="text_10">
     <!-- Learned Episodes -->
     <g transform="translate(192.102187 335.860562)scale(0.1 -0.1)">
      <defs>
       <path id="DejaVuSans-4c" d="M 628 4666 
L 1259 4666 
L 1259 531 
L 3531 531 
L 3531 0 
L 628 0 
L 628 4666 
z
" transform="scale(0.015625)"/>
       <path id="DejaVuSans-65" d="M 3597 1894 
L 3597 1613 
L 953 1613 
Q 991 1019 1311 708 
Q 1631 397 2203 397 
Q 2534 397 2845 478 
Q 3156 559 3463 722 
L 3463 178 
Q 3153 47 2828 -22 
Q 2503 -91 2169 -91 
Q 1331 -91 842 396 
Q 353 884 353 1716 
Q 353 2575 817 3079 
Q 1281 3584 2069 3584 
Q 2775 3584 3186 3129 
Q 3597 2675 3597 1894 
z
M 3022 2063 
Q 3016 2534 2758 2815 
Q 2500 3097 2075 3097 
Q 1594 3097 1305 2825 
Q 1016 2553 972 2059 
L 3022 2063 
z
" transform="scale(0.015625)"/>
       <path id="DejaVuSans-61" d="M 2194 1759 
Q 1497 1759 1228 1600 
Q 959 1441 959 1056 
Q 959 750 1161 570 
Q 1363 391 1709 391 
Q 2188 391 2477 730 
Q 2766 1069 2766 1631 
L 2766 1759 
L 2194 1759 
z
M 3341 1997 
L 3341 0 
L 2766 0 
L 2766 531 
Q 2569 213 2275 61 
Q 1981 -91 1556 -91 
Q 1019 -91 701 211 
Q 384 513 384 1019 
Q 384 1609 779 1909 
Q 1175 2209 1959 2209 
L 2766 2209 
L 2766 2266 
Q 2766 2663 2505 2880 
Q 2244 3097 1772 3097 
Q 1472 3097 1187 3025 
Q 903 2953 641 2809 
L 641 3341 
Q 956 3463 1253 3523 
Q 1550 3584 1831 3584 
Q 2591 3584 2966 3190 
Q 3341 2797 3341 1997 
z
" transform="scale(0.015625)"/>
       <path id="DejaVuSans-72" d="M 2631 2963 
Q 2534 3019 2420 3045 
Q 2306 3072 2169 3072 
Q 1681 3072 1420 2755 
Q 1159 2438 1159 1844 
L 1159 0 
L 581 0 
L 581 3500 
L 1159 3500 
L 1159 2956 
Q 1341 3275 1631 3429 
Q 1922 3584 2338 3584 
Q 2397 3584 2469 3576 
Q 2541 3569 2628 3553 
L 2631 2963 
z
" transform="scale(0.015625)"/>
       <path id="DejaVuSans-6e" d="M 3513 2113 
L 3513 0 
L 2938 0 
L 2938 2094 
Q 2938 2591 2744 2837 
Q 2550 3084 2163 3084 
Q 1697 3084 1428 2787 
Q 1159 2491 1159 1978 
L 1159 0 
L 581 0 
L 581 3500 
L 1159 3500 
L 1159 2956 
Q 1366 3272 1645 3428 
Q 1925 3584 2291 3584 
Q 2894 3584 3203 3211 
Q 3513 2838 3513 2113 
z
" transform="scale(0.015625)"/>
       <path id="DejaVuSans-64" d="M 2906 2969 
L 2906 4863 
L 3481 4863 
L 3481 0 
L 2906 0 
L 2906 525 
Q 2725 213 2448 61 
Q 2172 -91 1784 -91 
Q 1150 -91 751 415 
Q 353 922 353 1747 
Q 353 2572 751 3078 
Q 1150 3584 1784 3584 
Q 2172 3584 2448 3432 
Q 2725 3281 2906 2969 
z
M 947 1747 
Q 947 1113 1208 752 
Q 1469 391 1925 391 
Q 2381 391 2643 752 
Q 2906 1113 2906 1747 
Q 2906 2381 2643 2742 
Q 2381 3103 1925 3103 
Q 1469 3103 1208 2742 
Q 947 2381 947 1747 
z
" transform="scale(0.015625)"/>
       <path id="DejaVuSans-20" transform="scale(0.015625)"/>
       <path id="DejaVuSans-45" d="M 628 4666 
L 3578 4666 
L 3578 4134 
L 1259 4134 
L 1259 2753 
L 3481 2753 
L 3481 2222 
L 1259 2222 
L 1259 531 
L 3634 531 
L 3634 0 
L 628 0 
L 628 4666 
z
" transform="scale(0.015625)"/>
       <path id="DejaVuSans-70" d="M 1159 525 
L 1159 -1331 
L 581 -1331 
L 581 3500 
L 1159 3500 
L 1159 2969 
Q 1341 3281 1617 3432 
Q 1894 3584 2278 3584 
Q 2916 3584 3314 3078 
Q 3713 2572 3713 1747 
Q 3713 922 3314 415 
Q 2916 -91 2278 -91 
Q 1894 -91 1617 61 
Q 1341 213 1159 525 
z
M 3116 1747 
Q 3116 2381 2855 2742 
Q 2594 3103 2138 3103 
Q 1681 3103 1420 2742 
Q 1159 2381 1159 1747 
Q 1159 1113 1420 752 
Q 1681 391 2138 391 
Q 2594 391 2855 752 
Q 3116 1113 3116 1747 
z
" transform="scale(0.015625)"/>
       <path id="DejaVuSans-69" d="M 603 3500 
L 1178 3500 
L 1178 0 
L 603 0 
L 603 3500 
z
M 603 4863 
L 1178 4863 
L 1178 4134 
L 603 4134 
L 603 4863 
z
" transform="scale(0.015625)"/>
       <path id="DejaVuSans-73" d="M 2834 3397 
L 2834 2853 
Q 2591 2978 2328 3040 
Q 2066 3103 1784 3103 
Q 1356 3103 1142 2972 
Q 928 2841 928 2578 
Q 928 2378 1081 2264 
Q 1234 2150 1697 2047 
L 1894 2003 
Q 2506 1872 2764 1633 
Q 3022 1394 3022 966 
Q 3022 478 2636 193 
Q 2250 -91 1575 -91 
Q 1294 -91 989 -36 
Q 684 19 347 128 
L 347 722 
Q 666 556 975 473 
Q 1284 391 1588 391 
Q 1994 391 2212 530 
Q 2431 669 2431 922 
Q 2431 1156 2273 1281 
Q 2116 1406 1581 1522 
L 1381 1569 
Q 847 1681 609 1914 
Q 372 2147 372 2553 
Q 372 3047 722 3315 
Q 1072 3584 1716 3584 
Q 2034 3584 2315 3537 
Q 2597 3491 2834 3397 
z
" transform="scale(0.015625)"/>
       <path id="DejaVuSans-6f" d="M 1959 3097 
Q 1497 3097 1228 2736 
Q 959 2375 959 1747 
Q 959 1119 1226 758 
Q 1494 397 1959 397 
Q 2419 397 2687 759 
Q 2956 1122 2956 1747 
Q 2956 2369 2687 2733 
Q 2419 3097 1959 3097 
z
M 1959 3584 
Q 2709 3584 3137 3096 
Q 3566 2609 3566 1747 
Q 3566 888 3137 398 
Q 2709 -91 1959 -91 
Q 1206 -91 779 398 
Q 353 888 353 1747 
Q 353 2609 779 3096 
Q 1206 3584 1959 3584 
z
" transform="scale(0.015625)"/>
      </defs>
      <use xlink:href="#DejaVuSans-4c"/>
      <use xlink:href="#DejaVuSans-65" x="53.962891"/>
      <use xlink:href="#DejaVuSans-61" x="115.486328"/>
      <use xlink:href="#DejaVuSans-72" x="176.765625"/>
      <use xlink:href="#DejaVuSans-6e" x="216.128906"/>
      <use xlink:href="#DejaVuSans-65" x="279.507812"/>
      <use xlink:href="#DejaVuSans-64" x="341.03125"/>
      <use xlink:href="#DejaVuSans-20" x="404.507812"/>
      <use xlink:href="#DejaVuSans-45" x="436.294922"/>
      <use xlink:href="#DejaVuSans-70" x="499.478516"/>
      <use xlink:href="#DejaVuSans-69" x="562.955078"/>
      <use xlink:href="#DejaVuSans-73" x="590.738281"/>
      <use xlink:href="#DejaVuSans-6f" x="642.837891"/>
      <use xlink:href="#DejaVuSans-64" x="704.019531"/>
      <use xlink:href="#DejaVuSans-65" x="767.496094"/>
      <use xlink:href="#DejaVuSans-73" x="829.019531"/>
     </g>
    </g>
   </g>
   <g id="matplotlib.axis_2">
    <g id="ytick_1">
     <g id="line2d_10">
      <defs>
       <path id="m1351cfcfed" d="M 0 0 
L -3.5 0 
" style="stroke: #000000; stroke-width: 0.8"/>
      </defs>
      <g>
       <use xlink:href="#m1351cfcfed" x="57.6" y="271.611352" style="stroke: #000000; stroke-width: 0.8"/>
      </g>
     </g>
     <g id="text_11">
      <!-- 300 -->
      <g transform="translate(31.5125 275.410571)scale(0.1 -0.1)">
       <defs>
        <path id="DejaVuSans-33" d="M 2597 2516 
Q 3050 2419 3304 2112 
Q 3559 1806 3559 1356 
Q 3559 666 3084 287 
Q 2609 -91 1734 -91 
Q 1441 -91 1130 -33 
Q 819 25 488 141 
L 488 750 
Q 750 597 1062 519 
Q 1375 441 1716 441 
Q 2309 441 2620 675 
Q 2931 909 2931 1356 
Q 2931 1769 2642 2001 
Q 2353 2234 1838 2234 
L 1294 2234 
L 1294 2753 
L 1863 2753 
Q 2328 2753 2575 2939 
Q 2822 3125 2822 3475 
Q 2822 3834 2567 4026 
Q 2313 4219 1838 4219 
Q 1578 4219 1281 4162 
Q 984 4106 628 3988 
L 628 4550 
Q 988 4650 1302 4700 
Q 1616 4750 1894 4750 
Q 2613 4750 3031 4423 
Q 3450 4097 3450 3541 
Q 3450 3153 3228 2886 
Q 3006 2619 2597 2516 
z
" transform="scale(0.015625)"/>
       </defs>
       <use xlink:href="#DejaVuSans-33"/>
       <use xlink:href="#DejaVuSans-30" x="63.623047"/>
       <use xlink:href="#DejaVuSans-30" x="127.246094"/>
      </g>
     </g>
    </g>
    <g id="ytick_2">
     <g id="line2d_11">
      <g>
       <use xlink:href="#m1351cfcfed" x="57.6" y="226.561073" style="stroke: #000000; stroke-width: 0.8"/>
      </g>
     </g>
     <g id="text_12">
      <!-- 400 -->
      <g transform="translate(31.5125 230.360291)scale(0.1 -0.1)">
       <defs>
        <path id="DejaVuSans-34" d="M 2419 4116 
L 825 1625 
L 2419 1625 
L 2419 4116 
z
M 2253 4666 
L 3047 4666 
L 3047 1625 
L 3713 1625 
L 3713 1100 
L 3047 1100 
L 3047 0 
L 2419 0 
L 2419 1100 
L 313 1100 
L 313 1709 
L 2253 4666 
z
" transform="scale(0.015625)"/>
       </defs>
       <use xlink:href="#DejaVuSans-34"/>
       <use xlink:href="#DejaVuSans-30" x="63.623047"/>
       <use xlink:href="#DejaVuSans-30" x="127.246094"/>
      </g>
     </g>
    </g>
    <g id="ytick_3">
     <g id="line2d_12">
      <g>
       <use xlink:href="#m1351cfcfed" x="57.6" y="181.510793" style="stroke: #000000; stroke-width: 0.8"/>
      </g>
     </g>
     <g id="text_13">
      <!-- 500 -->
      <g transform="translate(31.5125 185.310012)scale(0.1 -0.1)">
       <use xlink:href="#DejaVuSans-35"/>
       <use xlink:href="#DejaVuSans-30" x="63.623047"/>
       <use xlink:href="#DejaVuSans-30" x="127.246094"/>
      </g>
     </g>
    </g>
    <g id="ytick_4">
     <g id="line2d_13">
      <g>
       <use xlink:href="#m1351cfcfed" x="57.6" y="136.460514" style="stroke: #000000; stroke-width: 0.8"/>
      </g>
     </g>
     <g id="text_14">
      <!-- 600 -->
      <g transform="translate(31.5125 140.259733)scale(0.1 -0.1)">
       <defs>
        <path id="DejaVuSans-36" d="M 2113 2584 
Q 1688 2584 1439 2293 
Q 1191 2003 1191 1497 
Q 1191 994 1439 701 
Q 1688 409 2113 409 
Q 2538 409 2786 701 
Q 3034 994 3034 1497 
Q 3034 2003 2786 2293 
Q 2538 2584 2113 2584 
z
M 3366 4563 
L 3366 3988 
Q 3128 4100 2886 4159 
Q 2644 4219 2406 4219 
Q 1781 4219 1451 3797 
Q 1122 3375 1075 2522 
Q 1259 2794 1537 2939 
Q 1816 3084 2150 3084 
Q 2853 3084 3261 2657 
Q 3669 2231 3669 1497 
Q 3669 778 3244 343 
Q 2819 -91 2113 -91 
Q 1303 -91 875 529 
Q 447 1150 447 2328 
Q 447 3434 972 4092 
Q 1497 4750 2381 4750 
Q 2619 4750 2861 4703 
Q 3103 4656 3366 4563 
z
" transform="scale(0.015625)"/>
       </defs>
       <use xlink:href="#DejaVuSans-36"/>
       <use xlink:href="#DejaVuSans-30" x="63.623047"/>
       <use xlink:href="#DejaVuSans-30" x="127.246094"/>
      </g>
     </g>
    </g>
    <g id="ytick_5">
     <g id="line2d_14">
      <g>
       <use xlink:href="#m1351cfcfed" x="57.6" y="91.410235" style="stroke: #000000; stroke-width: 0.8"/>
      </g>
     </g>
     <g id="text_15">
      <!-- 700 -->
      <g transform="translate(31.5125 95.209453)scale(0.1 -0.1)">
       <use xlink:href="#DejaVuSans-37"/>
       <use xlink:href="#DejaVuSans-30" x="63.623047"/>
       <use xlink:href="#DejaVuSans-30" x="127.246094"/>
      </g>
     </g>
    </g>
    <g id="ytick_6">
     <g id="line2d_15">
      <g>
       <use xlink:href="#m1351cfcfed" x="57.6" y="46.359955" style="stroke: #000000; stroke-width: 0.8"/>
      </g>
     </g>
     <g id="text_16">
      <!-- 800 -->
      <g transform="translate(31.5125 50.159174)scale(0.1 -0.1)">
       <defs>
        <path id="DejaVuSans-38" d="M 2034 2216 
Q 1584 2216 1326 1975 
Q 1069 1734 1069 1313 
Q 1069 891 1326 650 
Q 1584 409 2034 409 
Q 2484 409 2743 651 
Q 3003 894 3003 1313 
Q 3003 1734 2745 1975 
Q 2488 2216 2034 2216 
z
M 1403 2484 
Q 997 2584 770 2862 
Q 544 3141 544 3541 
Q 544 4100 942 4425 
Q 1341 4750 2034 4750 
Q 2731 4750 3128 4425 
Q 3525 4100 3525 3541 
Q 3525 3141 3298 2862 
Q 3072 2584 2669 2484 
Q 3125 2378 3379 2068 
Q 3634 1759 3634 1313 
Q 3634 634 3220 271 
Q 2806 -91 2034 -91 
Q 1263 -91 848 271 
Q 434 634 434 1313 
Q 434 1759 690 2068 
Q 947 2378 1403 2484 
z
M 1172 3481 
Q 1172 3119 1398 2916 
Q 1625 2713 2034 2713 
Q 2441 2713 2670 2916 
Q 2900 3119 2900 3481 
Q 2900 3844 2670 4047 
Q 2441 4250 2034 4250 
Q 1625 4250 1398 4047 
Q 1172 3844 1172 3481 
z
" transform="scale(0.015625)"/>
       </defs>
       <use xlink:href="#DejaVuSans-38"/>
       <use xlink:href="#DejaVuSans-30" x="63.623047"/>
       <use xlink:href="#DejaVuSans-30" x="127.246094"/>
      </g>
     </g>
    </g>
    <g id="text_17">
     <!-- Reward Density -->
     <g transform="translate(25.432812 213.74675)rotate(-90)scale(0.1 -0.1)">
      <defs>
       <path id="DejaVuSans-52" d="M 2841 2188 
Q 3044 2119 3236 1894 
Q 3428 1669 3622 1275 
L 4263 0 
L 3584 0 
L 2988 1197 
Q 2756 1666 2539 1819 
Q 2322 1972 1947 1972 
L 1259 1972 
L 1259 0 
L 628 0 
L 628 4666 
L 2053 4666 
Q 2853 4666 3247 4331 
Q 3641 3997 3641 3322 
Q 3641 2881 3436 2590 
Q 3231 2300 2841 2188 
z
M 1259 4147 
L 1259 2491 
L 2053 2491 
Q 2509 2491 2742 2702 
Q 2975 2913 2975 3322 
Q 2975 3731 2742 3939 
Q 2509 4147 2053 4147 
L 1259 4147 
z
" transform="scale(0.015625)"/>
       <path id="DejaVuSans-77" d="M 269 3500 
L 844 3500 
L 1563 769 
L 2278 3500 
L 2956 3500 
L 3675 769 
L 4391 3500 
L 4966 3500 
L 4050 0 
L 3372 0 
L 2619 2869 
L 1863 0 
L 1184 0 
L 269 3500 
z
" transform="scale(0.015625)"/>
       <path id="DejaVuSans-44" d="M 1259 4147 
L 1259 519 
L 2022 519 
Q 2988 519 3436 956 
Q 3884 1394 3884 2338 
Q 3884 3275 3436 3711 
Q 2988 4147 2022 4147 
L 1259 4147 
z
M 628 4666 
L 1925 4666 
Q 3281 4666 3915 4102 
Q 4550 3538 4550 2338 
Q 4550 1131 3912 565 
Q 3275 0 1925 0 
L 628 0 
L 628 4666 
z
" transform="scale(0.015625)"/>
       <path id="DejaVuSans-74" d="M 1172 4494 
L 1172 3500 
L 2356 3500 
L 2356 3053 
L 1172 3053 
L 1172 1153 
Q 1172 725 1289 603 
Q 1406 481 1766 481 
L 2356 481 
L 2356 0 
L 1766 0 
Q 1100 0 847 248 
Q 594 497 594 1153 
L 594 3053 
L 172 3053 
L 172 3500 
L 594 3500 
L 594 4494 
L 1172 4494 
z
" transform="scale(0.015625)"/>
       <path id="DejaVuSans-79" d="M 2059 -325 
Q 1816 -950 1584 -1140 
Q 1353 -1331 966 -1331 
L 506 -1331 
L 506 -850 
L 844 -850 
Q 1081 -850 1212 -737 
Q 1344 -625 1503 -206 
L 1606 56 
L 191 3500 
L 800 3500 
L 1894 763 
L 2988 3500 
L 3597 3500 
L 2059 -325 
z
" transform="scale(0.015625)"/>
      </defs>
      <use xlink:href="#DejaVuSans-52"/>
      <use xlink:href="#DejaVuSans-65" x="64.982422"/>
      <use xlink:href="#DejaVuSans-77" x="126.505859"/>
      <use xlink:href="#DejaVuSans-61" x="208.292969"/>
      <use xlink:href="#DejaVuSans-72" x="269.572266"/>
      <use xlink:href="#DejaVuSans-64" x="308.935547"/>
      <use xlink:href="#DejaVuSans-20" x="372.412109"/>
      <use xlink:href="#DejaVuSans-44" x="404.199219"/>
      <use xlink:href="#DejaVuSans-65" x="481.201172"/>
      <use xlink:href="#DejaVuSans-6e" x="542.724609"/>
      <use xlink:href="#DejaVuSans-73" x="606.103516"/>
      <use xlink:href="#DejaVuSans-69" x="658.203125"/>
      <use xlink:href="#DejaVuSans-74" x="685.986328"/>
      <use xlink:href="#DejaVuSans-79" x="725.195312"/>
     </g>
    </g>
   </g>
   <g id="LineCollection_1">
    <path d="M 92.572407 195.359249 
L 130.051767 195.359249 
" clip-path="url(#p4a2cd33e7c)" style="fill: none; stroke: #1f77b4; stroke-width: 1.5"/>
    <path d="M 175.859874 146.396804 
L 213.339234 146.396804 
" clip-path="url(#p4a2cd33e7c)" style="fill: none; stroke: #1f77b4; stroke-width: 1.5"/>
    <path d="M 259.147341 182.379363 
L 296.626701 182.379363 
" clip-path="url(#p4a2cd33e7c)" style="fill: none; stroke: #1f77b4; stroke-width: 1.5"/>
    <path d="M 342.268233 154.046341 
L 379.747593 154.046341 
" clip-path="url(#p4a2cd33e7c)" style="fill: none; stroke: #1f77b4; stroke-width: 1.5"/>
   </g>
   <g id="LineCollection_2">
    <path d="M 92.572407 69.786101 
L 130.051767 69.786101 
" clip-path="url(#p4a2cd33e7c)" style="fill: none; stroke: #1f77b4; stroke-width: 1.5"/>
    <path d="M 175.859874 55.820514 
L 213.339234 55.820514 
" clip-path="url(#p4a2cd33e7c)" style="fill: none; stroke: #1f77b4; stroke-width: 1.5"/>
    <path d="M 259.147341 81.499173 
L 296.626701 81.499173 
" clip-path="url(#p4a2cd33e7c)" style="fill: none; stroke: #1f77b4; stroke-width: 1.5"/>
    <path d="M 342.268233 53.568 
L 379.747593 53.568 
" clip-path="url(#p4a2cd33e7c)" style="fill: none; stroke: #1f77b4; stroke-width: 1.5"/>
   </g>
   <g id="LineCollection_3">
    <path d="M 92.572407 295.488 
L 130.051767 295.488 
" clip-path="url(#p4a2cd33e7c)" style="fill: none; stroke: #1f77b4; stroke-width: 1.5"/>
    <path d="M 175.859874 252.690235 
L 213.339234 252.690235 
" clip-path="url(#p4a2cd33e7c)" style="fill: none; stroke: #1f77b4; stroke-width: 1.5"/>
    <path d="M 259.147341 259.898279 
L 296.626701 259.898279 
" clip-path="url(#p4a2cd33e7c)" style="fill: none; stroke: #1f77b4; stroke-width: 1.5"/>
    <path d="M 342.268233 239.625654 
L 379.747593 239.625654 
" clip-path="url(#p4a2cd33e7c)" style="fill: none; stroke: #1f77b4; stroke-width: 1.5"/>
   </g>
   <g id="LineCollection_4">
    <path d="M 111.312087 295.488 
L 111.312087 69.786101 
" clip-path="url(#p4a2cd33e7c)" style="fill: none; stroke: #1f77b4; stroke-width: 1.5"/>
    <path d="M 194.599554 252.690235 
L 194.599554 55.820514 
" clip-path="url(#p4a2cd33e7c)" style="fill: none; stroke: #1f77b4; stroke-width: 1.5"/>
    <path d="M 277.887021 259.898279 
L 277.887021 81.499173 
" clip-path="url(#p4a2cd33e7c)" style="fill: none; stroke: #1f77b4; stroke-width: 1.5"/>
    <path d="M 361.007913 239.625654 
L 361.007913 53.568 
" clip-path="url(#p4a2cd33e7c)" style="fill: none; stroke: #1f77b4; stroke-width: 1.5"/>
   </g>
   <g id="line2d_16">
    <path d="M 111.312087 195.359249 
L 194.599554 146.396804 
L 277.887021 182.379363 
L 361.007913 154.046341 
" clip-path="url(#p4a2cd33e7c)" style="fill: none; stroke: #4682b4; stroke-width: 1.5; stroke-linecap: square"/>
   </g>
   <g id="patch_3">
    <path d="M 57.6 307.584 
L 57.6 41.472 
" style="fill: none; stroke: #000000; stroke-width: 0.8; stroke-linejoin: miter; stroke-linecap: square"/>
   </g>
   <g id="patch_4">
    <path d="M 414.72 307.584 
L 414.72 41.472 
" style="fill: none; stroke: #000000; stroke-width: 0.8; stroke-linejoin: miter; stroke-linecap: square"/>
   </g>
   <g id="patch_5">
    <path d="M 57.6 307.584 
L 414.72 307.584 
" style="fill: none; stroke: #000000; stroke-width: 0.8; stroke-linejoin: miter; stroke-linecap: square"/>
   </g>
   <g id="patch_6">
    <path d="M 57.6 41.472 
L 414.72 41.472 
" style="fill: none; stroke: #000000; stroke-width: 0.8; stroke-linejoin: miter; stroke-linecap: square"/>
   </g>
   <g id="text_18">
    <!-- Violinplot for progress of profits/by_selling_new -->
    <g transform="translate(94.379063 35.472)scale(0.12 -0.12)">
     <defs>
      <path id="DejaVuSans-56" d="M 1831 0 
L 50 4666 
L 709 4666 
L 2188 738 
L 3669 4666 
L 4325 4666 
L 2547 0 
L 1831 0 
z
" transform="scale(0.015625)"/>
      <path id="DejaVuSans-6c" d="M 603 4863 
L 1178 4863 
L 1178 0 
L 603 0 
L 603 4863 
z
" transform="scale(0.015625)"/>
      <path id="DejaVuSans-66" d="M 2375 4863 
L 2375 4384 
L 1825 4384 
Q 1516 4384 1395 4259 
Q 1275 4134 1275 3809 
L 1275 3500 
L 2222 3500 
L 2222 3053 
L 1275 3053 
L 1275 0 
L 697 0 
L 697 3053 
L 147 3053 
L 147 3500 
L 697 3500 
L 697 3744 
Q 697 4328 969 4595 
Q 1241 4863 1831 4863 
L 2375 4863 
z
" transform="scale(0.015625)"/>
      <path id="DejaVuSans-67" d="M 2906 1791 
Q 2906 2416 2648 2759 
Q 2391 3103 1925 3103 
Q 1463 3103 1205 2759 
Q 947 2416 947 1791 
Q 947 1169 1205 825 
Q 1463 481 1925 481 
Q 2391 481 2648 825 
Q 2906 1169 2906 1791 
z
M 3481 434 
Q 3481 -459 3084 -895 
Q 2688 -1331 1869 -1331 
Q 1566 -1331 1297 -1286 
Q 1028 -1241 775 -1147 
L 775 -588 
Q 1028 -725 1275 -790 
Q 1522 -856 1778 -856 
Q 2344 -856 2625 -561 
Q 2906 -266 2906 331 
L 2906 616 
Q 2728 306 2450 153 
Q 2172 0 1784 0 
Q 1141 0 747 490 
Q 353 981 353 1791 
Q 353 2603 747 3093 
Q 1141 3584 1784 3584 
Q 2172 3584 2450 3431 
Q 2728 3278 2906 2969 
L 2906 3500 
L 3481 3500 
L 3481 434 
z
" transform="scale(0.015625)"/>
      <path id="DejaVuSans-2f" d="M 1625 4666 
L 2156 4666 
L 531 -594 
L 0 -594 
L 1625 4666 
z
" transform="scale(0.015625)"/>
      <path id="DejaVuSans-62" d="M 3116 1747 
Q 3116 2381 2855 2742 
Q 2594 3103 2138 3103 
Q 1681 3103 1420 2742 
Q 1159 2381 1159 1747 
Q 1159 1113 1420 752 
Q 1681 391 2138 391 
Q 2594 391 2855 752 
Q 3116 1113 3116 1747 
z
M 1159 2969 
Q 1341 3281 1617 3432 
Q 1894 3584 2278 3584 
Q 2916 3584 3314 3078 
Q 3713 2572 3713 1747 
Q 3713 922 3314 415 
Q 2916 -91 2278 -91 
Q 1894 -91 1617 61 
Q 1341 213 1159 525 
L 1159 0 
L 581 0 
L 581 4863 
L 1159 4863 
L 1159 2969 
z
" transform="scale(0.015625)"/>
      <path id="DejaVuSans-5f" d="M 3263 -1063 
L 3263 -1509 
L -63 -1509 
L -63 -1063 
L 3263 -1063 
z
" transform="scale(0.015625)"/>
     </defs>
     <use xlink:href="#DejaVuSans-56"/>
     <use xlink:href="#DejaVuSans-69" x="66.158203"/>
     <use xlink:href="#DejaVuSans-6f" x="93.941406"/>
     <use xlink:href="#DejaVuSans-6c" x="155.123047"/>
     <use xlink:href="#DejaVuSans-69" x="182.90625"/>
     <use xlink:href="#DejaVuSans-6e" x="210.689453"/>
     <use xlink:href="#DejaVuSans-70" x="274.068359"/>
     <use xlink:href="#DejaVuSans-6c" x="337.544922"/>
     <use xlink:href="#DejaVuSans-6f" x="365.328125"/>
     <use xlink:href="#DejaVuSans-74" x="426.509766"/>
     <use xlink:href="#DejaVuSans-20" x="465.71875"/>
     <use xlink:href="#DejaVuSans-66" x="497.505859"/>
     <use xlink:href="#DejaVuSans-6f" x="532.710938"/>
     <use xlink:href="#DejaVuSans-72" x="593.892578"/>
     <use xlink:href="#DejaVuSans-20" x="635.005859"/>
     <use xlink:href="#DejaVuSans-70" x="666.792969"/>
     <use xlink:href="#DejaVuSans-72" x="730.269531"/>
     <use xlink:href="#DejaVuSans-6f" x="769.132812"/>
     <use xlink:href="#DejaVuSans-67" x="830.314453"/>
     <use xlink:href="#DejaVuSans-72" x="893.791016"/>
     <use xlink:href="#DejaVuSans-65" x="932.654297"/>
     <use xlink:href="#DejaVuSans-73" x="994.177734"/>
     <use xlink:href="#DejaVuSans-73" x="1046.277344"/>
     <use xlink:href="#DejaVuSans-20" x="1098.376953"/>
     <use xlink:href="#DejaVuSans-6f" x="1130.164062"/>
     <use xlink:href="#DejaVuSans-66" x="1191.345703"/>
     <use xlink:href="#DejaVuSans-20" x="1226.550781"/>
     <use xlink:href="#DejaVuSans-70" x="1258.337891"/>
     <use xlink:href="#DejaVuSans-72" x="1321.814453"/>
     <use xlink:href="#DejaVuSans-6f" x="1360.677734"/>
     <use xlink:href="#DejaVuSans-66" x="1421.859375"/>
     <use xlink:href="#DejaVuSans-69" x="1457.064453"/>
     <use xlink:href="#DejaVuSans-74" x="1484.847656"/>
     <use xlink:href="#DejaVuSans-73" x="1524.056641"/>
     <use xlink:href="#DejaVuSans-2f" x="1576.15625"/>
     <use xlink:href="#DejaVuSans-62" x="1609.847656"/>
     <use xlink:href="#DejaVuSans-79" x="1673.324219"/>
     <use xlink:href="#DejaVuSans-5f" x="1732.503906"/>
     <use xlink:href="#DejaVuSans-73" x="1782.503906"/>
     <use xlink:href="#DejaVuSans-65" x="1834.603516"/>
     <use xlink:href="#DejaVuSans-6c" x="1896.126953"/>
     <use xlink:href="#DejaVuSans-6c" x="1923.910156"/>
     <use xlink:href="#DejaVuSans-69" x="1951.693359"/>
     <use xlink:href="#DejaVuSans-6e" x="1979.476562"/>
     <use xlink:href="#DejaVuSans-67" x="2042.855469"/>
     <use xlink:href="#DejaVuSans-5f" x="2106.332031"/>
     <use xlink:href="#DejaVuSans-6e" x="2156.332031"/>
     <use xlink:href="#DejaVuSans-65" x="2219.710938"/>
     <use xlink:href="#DejaVuSans-77" x="2281.234375"/>
    </g>
   </g>
   <g id="legend_1">
    <g id="patch_7">
     <path d="M 284.430938 64.150125 
L 407.72 64.150125 
Q 409.72 64.150125 409.72 62.150125 
L 409.72 48.472 
Q 409.72 46.472 407.72 46.472 
L 284.430938 46.472 
Q 282.430938 46.472 282.430938 48.472 
L 282.430938 62.150125 
Q 282.430938 64.150125 284.430938 64.150125 
z
" style="fill: #ffffff; opacity: 0.8; stroke: #cccccc; stroke-linejoin: miter"/>
    </g>
    <g id="line2d_17">
     <path d="M 286.430938 54.570438 
L 296.430938 54.570438 
L 306.430938 54.570438 
" style="fill: none; stroke: #4682b4; stroke-width: 1.5; stroke-linecap: square"/>
    </g>
    <g id="text_19">
     <!-- Storage-Minimizer -->
     <g transform="translate(314.430938 58.070438)scale(0.1 -0.1)">
      <defs>
       <path id="DejaVuSans-53" d="M 3425 4513 
L 3425 3897 
Q 3066 4069 2747 4153 
Q 2428 4238 2131 4238 
Q 1616 4238 1336 4038 
Q 1056 3838 1056 3469 
Q 1056 3159 1242 3001 
Q 1428 2844 1947 2747 
L 2328 2669 
Q 3034 2534 3370 2195 
Q 3706 1856 3706 1288 
Q 3706 609 3251 259 
Q 2797 -91 1919 -91 
Q 1588 -91 1214 -16 
Q 841 59 441 206 
L 441 856 
Q 825 641 1194 531 
Q 1563 422 1919 422 
Q 2459 422 2753 634 
Q 3047 847 3047 1241 
Q 3047 1584 2836 1778 
Q 2625 1972 2144 2069 
L 1759 2144 
Q 1053 2284 737 2584 
Q 422 2884 422 3419 
Q 422 4038 858 4394 
Q 1294 4750 2059 4750 
Q 2388 4750 2728 4690 
Q 3069 4631 3425 4513 
z
" transform="scale(0.015625)"/>
       <path id="DejaVuSans-2d" d="M 313 2009 
L 1997 2009 
L 1997 1497 
L 313 1497 
L 313 2009 
z
" transform="scale(0.015625)"/>
       <path id="DejaVuSans-4d" d="M 628 4666 
L 1569 4666 
L 2759 1491 
L 3956 4666 
L 4897 4666 
L 4897 0 
L 4281 0 
L 4281 4097 
L 3078 897 
L 2444 897 
L 1241 4097 
L 1241 0 
L 628 0 
L 628 4666 
z
" transform="scale(0.015625)"/>
       <path id="DejaVuSans-6d" d="M 3328 2828 
Q 3544 3216 3844 3400 
Q 4144 3584 4550 3584 
Q 5097 3584 5394 3201 
Q 5691 2819 5691 2113 
L 5691 0 
L 5113 0 
L 5113 2094 
Q 5113 2597 4934 2840 
Q 4756 3084 4391 3084 
Q 3944 3084 3684 2787 
Q 3425 2491 3425 1978 
L 3425 0 
L 2847 0 
L 2847 2094 
Q 2847 2600 2669 2842 
Q 2491 3084 2119 3084 
Q 1678 3084 1418 2786 
Q 1159 2488 1159 1978 
L 1159 0 
L 581 0 
L 581 3500 
L 1159 3500 
L 1159 2956 
Q 1356 3278 1631 3431 
Q 1906 3584 2284 3584 
Q 2666 3584 2933 3390 
Q 3200 3197 3328 2828 
z
" transform="scale(0.015625)"/>
       <path id="DejaVuSans-7a" d="M 353 3500 
L 3084 3500 
L 3084 2975 
L 922 459 
L 3084 459 
L 3084 0 
L 275 0 
L 275 525 
L 2438 3041 
L 353 3041 
L 353 3500 
z
" transform="scale(0.015625)"/>
      </defs>
      <use xlink:href="#DejaVuSans-53"/>
      <use xlink:href="#DejaVuSans-74" x="63.476562"/>
      <use xlink:href="#DejaVuSans-6f" x="102.685547"/>
      <use xlink:href="#DejaVuSans-72" x="163.867188"/>
      <use xlink:href="#DejaVuSans-61" x="204.980469"/>
      <use xlink:href="#DejaVuSans-67" x="266.259766"/>
      <use xlink:href="#DejaVuSans-65" x="329.736328"/>
      <use xlink:href="#DejaVuSans-2d" x="391.259766"/>
      <use xlink:href="#DejaVuSans-4d" x="427.34375"/>
      <use xlink:href="#DejaVuSans-69" x="513.623047"/>
      <use xlink:href="#DejaVuSans-6e" x="541.40625"/>
      <use xlink:href="#DejaVuSans-69" x="604.785156"/>
      <use xlink:href="#DejaVuSans-6d" x="632.568359"/>
      <use xlink:href="#DejaVuSans-69" x="729.980469"/>
      <use xlink:href="#DejaVuSans-7a" x="757.763672"/>
      <use xlink:href="#DejaVuSans-65" x="810.253906"/>
      <use xlink:href="#DejaVuSans-72" x="871.777344"/>
     </g>
    </g>
   </g>
  </g>
 </g>
 <defs>
  <clipPath id="p4a2cd33e7c">
   <rect x="57.6" y="41.472" width="357.12" height="266.112"/>
  </clipPath>
 </defs>
</svg>
