<?xml version="1.0" encoding="utf-8" standalone="no"?>
<!DOCTYPE svg PUBLIC "-//W3C//DTD SVG 1.1//EN"
  "http://www.w3.org/Graphics/SVG/1.1/DTD/svg11.dtd">
<svg xmlns:xlink="http://www.w3.org/1999/xlink" width="460.8pt" height="345.6pt" viewBox="0 0 460.8 345.6" xmlns="http://www.w3.org/2000/svg" version="1.1">
 <metadata>
  <rdf:RDF xmlns:dc="http://purl.org/dc/elements/1.1/" xmlns:cc="http://creativecommons.org/ns#" xmlns:rdf="http://www.w3.org/1999/02/22-rdf-syntax-ns#">
   <cc:Work>
    <dc:type rdf:resource="http://purl.org/dc/dcmitype/StillImage"/>
    <dc:date>2022-06-16T12:02:59.512681</dc:date>
    <dc:format>image/svg+xml</dc:format>
    <dc:creator>
     <cc:Agent>
      <dc:title>Matplotlib v3.5.2, https://matplotlib.org/</dc:title>
     </cc:Agent>
    </dc:creator>
   </cc:Work>
  </rdf:RDF>
 </metadata>
 <defs>
  <style type="text/css">*{stroke-linejoin: round; stroke-linecap: butt}</style>
 </defs>
 <g id="figure_1">
  <g id="patch_1">
   <path d="M 0 345.6 
L 460.8 345.6 
L 460.8 0 
L 0 0 
z
" style="fill: #ffffff"/>
  </g>
  <g id="axes_1">
   <g id="patch_2">
    <path d="M 57.6 307.584 
L 414.72 307.584 
L 414.72 41.472 
L 57.6 41.472 
z
" style="fill: #ffffff"/>
   </g>
   <g id="PolyCollection_1">
    <path d="M 113.539433 295.488 
L 109.084742 295.488 
L 108.847631 293.044364 
L 108.596289 290.600727 
L 108.328285 288.157091 
L 108.040793 285.713455 
L 107.730856 283.269818 
L 107.395698 280.826182 
L 107.033029 278.382545 
L 106.641322 275.938909 
L 106.219995 273.495273 
L 105.769493 271.051636 
L 105.291231 268.608 
L 104.787417 266.164364 
L 104.260779 263.720727 
L 103.714239 261.277091 
L 103.150581 258.833455 
L 102.572181 256.389818 
L 101.980826 253.946182 
L 101.377671 251.502545 
L 100.763313 249.058909 
L 100.137992 246.615273 
L 99.501849 244.171636 
L 98.855206 241.728 
L 98.198798 239.284364 
L 97.533912 236.840727 
L 96.8624 234.397091 
L 96.186552 231.953455 
L 95.508854 229.509818 
L 94.83168 227.066182 
L 94.15696 224.622545 
L 93.485904 222.178909 
L 92.818831 219.735273 
L 92.155141 217.291636 
L 91.493443 214.848 
L 90.831823 212.404364 
L 90.168206 209.960727 
L 89.500738 207.517091 
L 88.828143 205.073455 
L 88.149959 202.629818 
L 87.46663 200.186182 
L 86.779417 197.742545 
L 86.09015 195.298909 
L 85.40086 192.855273 
L 84.713359 190.411636 
L 84.02885 187.968 
L 83.347645 185.524364 
L 82.669067 183.080727 
L 81.991563 180.637091 
L 81.313058 178.193455 
L 80.631494 175.749818 
L 79.945518 173.306182 
L 79.255216 170.862545 
L 78.562799 168.418909 
L 77.873147 165.975273 
L 77.194114 163.531636 
L 76.536556 161.088 
L 75.914048 158.644364 
L 75.342309 156.200727 
L 74.838388 153.757091 
L 74.419691 151.313455 
L 74.102933 148.869818 
L 73.903134 146.426182 
L 73.832727 143.982545 
L 73.900874 141.538909 
L 74.11301 139.095273 
L 74.47065 136.651636 
L 74.971442 134.208 
L 75.609413 131.764364 
L 76.375382 129.320727 
L 77.257451 126.877091 
L 78.241539 124.433455 
L 79.311895 121.989818 
L 80.451551 119.546182 
L 81.642717 117.102545 
L 82.867085 114.658909 
L 84.106086 112.215273 
L 85.3411 109.771636 
L 86.553662 107.328 
L 87.725694 104.884364 
L 88.839791 102.440727 
L 89.879586 99.997091 
L 90.830218 97.553455 
L 91.67889 95.109818 
L 92.41551 92.666182 
L 93.033383 90.222545 
L 93.529907 87.778909 
L 93.907184 85.335273 
L 94.172503 82.891636 
L 94.33857 80.448 
L 94.42343 78.004364 
L 94.450015 75.560727 
L 94.445276 73.117091 
L 94.438911 70.673455 
L 94.461756 68.229818 
L 94.543914 65.786182 
L 94.712791 63.342545 
L 94.991204 60.898909 
L 95.39573 58.455273 
L 95.935481 56.011636 
L 96.611431 53.568 
L 126.012744 53.568 
L 126.012744 53.568 
L 126.688694 56.011636 
L 127.228445 58.455273 
L 127.63297 60.898909 
L 127.911383 63.342545 
L 128.080261 65.786182 
L 128.162418 68.229818 
L 128.185263 70.673455 
L 128.178899 73.117091 
L 128.174159 75.560727 
L 128.200745 78.004364 
L 128.285605 80.448 
L 128.451671 82.891636 
L 128.716991 85.335273 
L 129.094268 87.778909 
L 129.590791 90.222545 
L 130.208665 92.666182 
L 130.945285 95.109818 
L 131.793957 97.553455 
L 132.744589 99.997091 
L 133.784384 102.440727 
L 134.89848 104.884364 
L 136.070512 107.328 
L 137.283075 109.771636 
L 138.518089 112.215273 
L 139.75709 114.658909 
L 140.981458 117.102545 
L 142.172623 119.546182 
L 143.31228 121.989818 
L 144.382636 124.433455 
L 145.366724 126.877091 
L 146.248793 129.320727 
L 147.014761 131.764364 
L 147.652733 134.208 
L 148.153524 136.651636 
L 148.511165 139.095273 
L 148.723301 141.538909 
L 148.791447 143.982545 
L 148.721041 146.426182 
L 148.521241 148.869818 
L 148.204484 151.313455 
L 147.785786 153.757091 
L 147.281866 156.200727 
L 146.710127 158.644364 
L 146.087619 161.088 
L 145.430061 163.531636 
L 144.751028 165.975273 
L 144.061375 168.418909 
L 143.368959 170.862545 
L 142.678657 173.306182 
L 141.99268 175.749818 
L 141.311116 178.193455 
L 140.632611 180.637091 
L 139.955108 183.080727 
L 139.276529 185.524364 
L 138.595324 187.968 
L 137.910815 190.411636 
L 137.223315 192.855273 
L 136.534025 195.298909 
L 135.844758 197.742545 
L 135.157545 200.186182 
L 134.474216 202.629818 
L 133.796032 205.073455 
L 133.123437 207.517091 
L 132.455969 209.960727 
L 131.792351 212.404364 
L 131.130732 214.848 
L 130.469034 217.291636 
L 129.805343 219.735273 
L 129.13827 222.178909 
L 128.467214 224.622545 
L 127.792495 227.066182 
L 127.115321 229.509818 
L 126.437623 231.953455 
L 125.761774 234.397091 
L 125.090262 236.840727 
L 124.425377 239.284364 
L 123.768969 241.728 
L 123.122325 244.171636 
L 122.486182 246.615273 
L 121.860861 249.058909 
L 121.246504 251.502545 
L 120.643348 253.946182 
L 120.051994 256.389818 
L 119.473594 258.833455 
L 118.909936 261.277091 
L 118.363395 263.720727 
L 117.836757 266.164364 
L 117.332943 268.608 
L 116.854681 271.051636 
L 116.40418 273.495273 
L 115.982853 275.938909 
L 115.591145 278.382545 
L 115.228477 280.826182 
L 114.893318 283.269818 
L 114.583382 285.713455 
L 114.295889 288.157091 
L 114.027885 290.600727 
L 113.776544 293.044364 
L 113.539433 295.488 
z
" clip-path="url(#p8b6ce5cb8d)" style="fill: #1f77b4; fill-opacity: 0.3"/>
   </g>
   <g id="PolyCollection_2">
    <path d="M 195.743951 285.423532 
L 193.455157 285.423532 
L 193.407825 283.081557 
L 193.362117 280.739581 
L 193.312494 278.397606 
L 193.252203 276.055631 
L 193.173705 273.713656 
L 193.069205 271.371681 
L 192.93124 269.029706 
L 192.753253 266.687731 
L 192.530119 264.345756 
L 192.258548 262.003781 
L 191.937341 259.661806 
L 191.567479 257.319831 
L 191.15203 254.977856 
L 190.695901 252.635881 
L 190.205462 250.293906 
L 189.688077 247.951931 
L 189.151607 245.609955 
L 188.60391 243.26798 
L 188.052404 240.926005 
L 187.503696 238.58403 
L 186.963302 236.242055 
L 186.435457 233.90008 
L 185.922987 231.558105 
L 185.427227 229.21613 
L 184.947971 226.874155 
L 184.483417 224.53218 
L 184.030139 222.190205 
L 183.583069 219.84823 
L 183.135539 217.506255 
L 182.679396 215.16428 
L 182.205233 212.822305 
L 181.702735 210.480329 
L 181.161151 208.138354 
L 180.569856 205.796379 
L 179.918966 203.454404 
L 179.19995 201.112429 
L 178.406189 198.770454 
L 177.533425 196.428479 
L 176.580083 194.086504 
L 175.54744 191.744529 
L 174.439661 189.402554 
L 173.263711 187.060579 
L 172.029178 184.718604 
L 170.748029 182.376629 
L 169.434328 180.034654 
L 168.103913 177.692679 
L 166.774063 175.350703 
L 165.46312 173.008728 
L 164.19009 170.666753 
L 162.974183 168.324778 
L 161.834318 165.982803 
L 160.788543 163.640828 
L 159.853412 161.298853 
L 159.043277 158.956878 
L 158.369535 156.614903 
L 157.839847 154.272928 
L 157.457365 151.930953 
L 157.220054 149.588978 
L 157.120194 147.247003 
L 157.144172 144.905028 
L 157.27268 142.563053 
L 157.481413 140.221077 
L 157.742321 137.879102 
L 158.025399 135.537127 
L 158.300929 133.195152 
L 158.541991 130.853177 
L 158.727005 128.511202 
L 158.842003 126.169227 
L 158.882353 123.827252 
L 158.853653 121.485277 
L 158.771657 119.143302 
L 158.66115 116.801327 
L 158.553862 114.459352 
L 158.485615 112.117377 
L 158.493 109.775402 
L 158.609949 107.433427 
L 158.864554 105.091451 
L 159.276466 102.749476 
L 159.855112 100.407501 
L 160.59888 98.065526 
L 161.495288 95.723551 
L 162.522099 93.381576 
L 163.64921 91.039601 
L 164.841152 88.697626 
L 166.059976 86.355651 
L 167.2683 84.013676 
L 168.432318 81.671701 
L 169.524535 79.329726 
L 170.526044 76.987751 
L 171.428131 74.645776 
L 172.233039 72.303801 
L 172.953764 69.961825 
L 173.612823 67.61985 
L 174.240033 65.277875 
L 174.869465 62.9359 
L 175.535865 60.593925 
L 176.270907 58.25195 
L 177.09972 55.909975 
L 178.038104 53.568 
L 211.161004 53.568 
L 211.161004 53.568 
L 212.099389 55.909975 
L 212.928201 58.25195 
L 213.663243 60.593925 
L 214.329643 62.9359 
L 214.959075 65.277875 
L 215.586285 67.61985 
L 216.245344 69.961825 
L 216.96607 72.303801 
L 217.770977 74.645776 
L 218.673064 76.987751 
L 219.674573 79.329726 
L 220.766791 81.671701 
L 221.930808 84.013676 
L 223.139133 86.355651 
L 224.357956 88.697626 
L 225.549898 91.039601 
L 226.677009 93.381576 
L 227.70382 95.723551 
L 228.600228 98.065526 
L 229.343996 100.407501 
L 229.922643 102.749476 
L 230.334554 105.091451 
L 230.589159 107.433427 
L 230.706108 109.775402 
L 230.713493 112.117377 
L 230.645246 114.459352 
L 230.537958 116.801327 
L 230.427452 119.143302 
L 230.345456 121.485277 
L 230.316755 123.827252 
L 230.357105 126.169227 
L 230.472103 128.511202 
L 230.657117 130.853177 
L 230.898179 133.195152 
L 231.173709 135.537127 
L 231.456787 137.879102 
L 231.717695 140.221077 
L 231.926428 142.563053 
L 232.054936 144.905028 
L 232.078914 147.247003 
L 231.979055 149.588978 
L 231.741744 151.930953 
L 231.359261 154.272928 
L 230.829573 156.614903 
L 230.155831 158.956878 
L 229.345696 161.298853 
L 228.410565 163.640828 
L 227.364791 165.982803 
L 226.224925 168.324778 
L 225.009019 170.666753 
L 223.735988 173.008728 
L 222.425045 175.350703 
L 221.095195 177.692679 
L 219.764781 180.034654 
L 218.451079 182.376629 
L 217.16993 184.718604 
L 215.935397 187.060579 
L 214.759447 189.402554 
L 213.651668 191.744529 
L 212.619025 194.086504 
L 211.665683 196.428479 
L 210.792919 198.770454 
L 209.999158 201.112429 
L 209.280142 203.454404 
L 208.629252 205.796379 
L 208.037957 208.138354 
L 207.496373 210.480329 
L 206.993875 212.822305 
L 206.519712 215.16428 
L 206.063569 217.506255 
L 205.616039 219.84823 
L 205.168969 222.190205 
L 204.715691 224.53218 
L 204.251137 226.874155 
L 203.771881 229.21613 
L 203.276122 231.558105 
L 202.763651 233.90008 
L 202.235806 236.242055 
L 201.695412 238.58403 
L 201.146704 240.926005 
L 200.595198 243.26798 
L 200.047501 245.609955 
L 199.511031 247.951931 
L 198.993646 250.293906 
L 198.503207 252.635881 
L 198.047078 254.977856 
L 197.631629 257.319831 
L 197.261767 259.661806 
L 196.94056 262.003781 
L 196.668989 264.345756 
L 196.445855 266.687731 
L 196.267868 269.029706 
L 196.129903 271.371681 
L 196.025403 273.713656 
L 195.946905 276.055631 
L 195.886614 278.397606 
L 195.836991 280.739581 
L 195.791283 283.081557 
L 195.743951 285.423532 
z
" clip-path="url(#p8b6ce5cb8d)" style="fill: #1f77b4; fill-opacity: 0.3"/>
   </g>
   <g id="PolyCollection_3">
    <path d="M 279.636988 245.538416 
L 276.137054 245.538416 
L 276.021502 243.599321 
L 275.917351 241.660226 
L 275.822529 239.721131 
L 275.733085 237.782036 
L 275.643342 235.84294 
L 275.546255 233.903845 
L 275.433956 231.96475 
L 275.298417 230.025655 
L 275.132193 228.08656 
L 274.92914 226.147465 
L 274.685032 224.20837 
L 274.397996 222.269275 
L 274.068691 220.33018 
L 273.700201 218.391084 
L 273.297633 216.451989 
L 272.867467 214.512894 
L 272.416713 212.573799 
L 271.952001 210.634704 
L 271.478719 208.695609 
L 271.000325 206.756514 
L 270.51795 204.817419 
L 270.030365 202.878324 
L 269.534326 200.939228 
L 269.02527 199.000133 
L 268.498254 197.061038 
L 267.949006 195.121943 
L 267.374906 193.182848 
L 266.775734 191.243753 
L 266.154046 189.304658 
L 265.5151 187.365563 
L 264.866319 185.426468 
L 264.216366 183.487372 
L 263.573959 181.548277 
L 262.946608 179.609182 
L 262.339465 177.670087 
L 261.75446 175.730992 
L 261.189835 173.791897 
L 260.640129 171.852802 
L 260.096603 169.913707 
L 259.548007 167.974612 
L 258.981569 166.035516 
L 258.38407 164.096421 
L 257.742875 162.157326 
L 257.046839 160.218231 
L 256.28703 158.279136 
L 255.457285 156.340041 
L 254.554614 154.400946 
L 253.579502 152.461851 
L 252.536144 150.522756 
L 251.432614 148.58366 
L 250.280949 146.644565 
L 249.097103 144.70547 
L 247.90069 142.766375 
L 246.714474 140.82728 
L 245.563552 138.888185 
L 244.474251 136.94909 
L 243.472779 135.009995 
L 242.583748 133.0709 
L 241.828699 131.131804 
L 241.224796 129.192709 
L 240.78381 127.253614 
L 240.511534 125.314519 
L 240.407661 123.375424 
L 240.466134 121.436329 
L 240.675909 119.497234 
L 241.022016 117.558139 
L 241.486796 115.619044 
L 242.051159 113.679948 
L 242.695752 111.740853 
L 243.401938 109.801758 
L 244.152526 107.862663 
L 244.932245 105.923568 
L 245.727969 103.984473 
L 246.528743 102.045378 
L 247.325669 100.106283 
L 248.111702 98.167188 
L 248.881415 96.228092 
L 249.630786 94.288997 
L 250.357029 92.349902 
L 251.058487 90.410807 
L 251.734598 88.471712 
L 252.385929 86.532617 
L 253.014242 84.593522 
L 253.622591 82.654427 
L 254.215394 80.715332 
L 254.79847 78.776236 
L 255.378991 76.837141 
L 255.965346 74.898046 
L 256.566879 72.958951 
L 257.19352 71.019856 
L 257.855293 69.080761 
L 258.561732 67.141666 
L 259.32122 65.202571 
L 260.140299 63.263476 
L 261.022999 61.32438 
L 261.970233 59.385285 
L 262.979348 57.44619 
L 264.043876 55.507095 
L 265.153554 53.568 
L 290.620487 53.568 
L 290.620487 53.568 
L 291.730165 55.507095 
L 292.794694 57.44619 
L 293.803809 59.385285 
L 294.751043 61.32438 
L 295.633742 63.263476 
L 296.452822 65.202571 
L 297.21231 67.141666 
L 297.918749 69.080761 
L 298.580522 71.019856 
L 299.207163 72.958951 
L 299.808696 74.898046 
L 300.39505 76.837141 
L 300.975572 78.776236 
L 301.558648 80.715332 
L 302.151451 82.654427 
L 302.7598 84.593522 
L 303.388113 86.532617 
L 304.039444 88.471712 
L 304.715555 90.410807 
L 305.417012 92.349902 
L 306.143255 94.288997 
L 306.892627 96.228092 
L 307.66234 98.167188 
L 308.448373 100.106283 
L 309.245299 102.045378 
L 310.046073 103.984473 
L 310.841796 105.923568 
L 311.621515 107.862663 
L 312.372104 109.801758 
L 313.07829 111.740853 
L 313.722883 113.679948 
L 314.287245 115.619044 
L 314.752025 117.558139 
L 315.098133 119.497234 
L 315.307908 121.436329 
L 315.366381 123.375424 
L 315.262508 125.314519 
L 314.990232 127.253614 
L 314.549246 129.192709 
L 313.945342 131.131804 
L 313.190294 133.0709 
L 312.301262 135.009995 
L 311.29979 136.94909 
L 310.21049 138.888185 
L 309.059568 140.82728 
L 307.873352 142.766375 
L 306.676939 144.70547 
L 305.493093 146.644565 
L 304.341428 148.58366 
L 303.237898 150.522756 
L 302.19454 152.461851 
L 301.219428 154.400946 
L 300.316756 156.340041 
L 299.487012 158.279136 
L 298.727203 160.218231 
L 298.031167 162.157326 
L 297.389972 164.096421 
L 296.792472 166.035516 
L 296.226034 167.974612 
L 295.677439 169.913707 
L 295.133913 171.852802 
L 294.584207 173.791897 
L 294.019581 175.730992 
L 293.434577 177.670087 
L 292.827434 179.609182 
L 292.200082 181.548277 
L 291.557675 183.487372 
L 290.907723 185.426468 
L 290.258942 187.365563 
L 289.619996 189.304658 
L 288.998307 191.243753 
L 288.399135 193.182848 
L 287.825036 195.121943 
L 287.275788 197.061038 
L 286.748772 199.000133 
L 286.239715 200.939228 
L 285.743677 202.878324 
L 285.256092 204.817419 
L 284.773717 206.756514 
L 284.295323 208.695609 
L 283.82204 210.634704 
L 283.357329 212.573799 
L 282.906575 214.512894 
L 282.476409 216.451989 
L 282.073841 218.391084 
L 281.705351 220.33018 
L 281.376046 222.269275 
L 281.08901 224.20837 
L 280.844902 226.147465 
L 280.641849 228.08656 
L 280.475624 230.025655 
L 280.340086 231.96475 
L 280.227787 233.903845 
L 280.1307 235.84294 
L 280.040956 237.782036 
L 279.951512 239.721131 
L 279.856691 241.660226 
L 279.75254 243.599321 
L 279.636988 245.538416 
z
" clip-path="url(#p8b6ce5cb8d)" style="fill: #1f77b4; fill-opacity: 0.3"/>
   </g>
   <g id="PolyCollection_4">
    <path d="M 362.501072 278.713886 
L 359.514753 278.713886 
L 359.43864 276.439685 
L 359.38326 274.165484 
L 359.348292 271.891283 
L 359.331514 269.617083 
L 359.328915 267.342882 
L 359.334987 265.068681 
L 359.343178 262.79448 
L 359.346444 260.520279 
L 359.337825 258.246078 
L 359.31097 255.971877 
L 359.260548 253.697676 
L 359.182485 251.423476 
L 359.074018 249.149275 
L 358.933573 246.875074 
L 358.760494 244.600873 
L 358.5547 242.326672 
L 358.316326 240.052471 
L 358.045424 237.77827 
L 357.741773 235.504069 
L 357.404841 233.229869 
L 357.033874 230.955668 
L 356.62811 228.681467 
L 356.187038 226.407266 
L 355.710639 224.133065 
L 355.199537 221.858864 
L 354.654995 219.584663 
L 354.078728 217.310463 
L 353.472531 215.036262 
L 352.837779 212.762061 
L 352.174867 210.48786 
L 351.482694 208.213659 
L 350.758304 205.939458 
L 349.996766 203.665257 
L 349.191363 201.391056 
L 348.334089 199.116856 
L 347.416444 196.842655 
L 346.430429 194.568454 
L 345.369648 192.294253 
L 344.230395 190.020052 
L 343.012612 187.745851 
L 341.720607 185.47165 
L 340.363477 183.19745 
L 338.955171 180.923249 
L 337.514177 178.649048 
L 336.062831 176.374847 
L 334.626266 174.100646 
L 333.23105 171.826445 
L 331.903577 169.552244 
L 330.66831 167.278043 
L 329.546025 165.003843 
L 328.55221 162.729642 
L 327.695801 160.455441 
L 326.978436 158.18124 
L 326.394354 155.907039 
L 325.931011 153.632838 
L 325.570402 151.358637 
L 325.290963 149.084436 
L 325.069852 146.810236 
L 324.885334 144.536035 
L 324.71895 142.261834 
L 324.557209 139.987633 
L 324.392562 137.713432 
L 324.223553 135.439231 
L 324.054158 133.16503 
L 323.892464 130.89083 
L 323.748906 128.616629 
L 323.634384 126.342428 
L 323.558554 124.068227 
L 323.528553 121.794026 
L 323.548309 119.519825 
L 323.618498 117.245624 
L 323.737057 114.971423 
L 323.900077 112.697223 
L 324.102884 110.423022 
L 324.341028 108.148821 
L 324.611038 105.87462 
L 324.910785 103.600419 
L 325.239456 101.326218 
L 325.597184 99.052017 
L 325.984453 96.777817 
L 326.401458 94.503616 
L 326.84757 92.229415 
L 327.321045 89.955214 
L 327.819076 87.681013 
L 328.338214 85.406812 
L 328.875123 83.132611 
L 329.42759 80.85841 
L 329.995638 78.58421 
L 330.582575 76.310009 
L 331.195777 74.035808 
L 331.847009 71.761607 
L 332.552147 69.487406 
L 333.330193 67.213205 
L 334.201608 64.939004 
L 335.18607 62.664803 
L 336.299906 60.390603 
L 337.553508 58.116402 
L 338.94912 55.842201 
L 340.479331 53.568 
L 381.536494 53.568 
L 381.536494 53.568 
L 383.066705 55.842201 
L 384.462317 58.116402 
L 385.71592 60.390603 
L 386.829755 62.664803 
L 387.814218 64.939004 
L 388.685633 67.213205 
L 389.463679 69.487406 
L 390.168816 71.761607 
L 390.820048 74.035808 
L 391.43325 76.310009 
L 392.020188 78.58421 
L 392.588236 80.85841 
L 393.140702 83.132611 
L 393.677611 85.406812 
L 394.196749 87.681013 
L 394.694781 89.955214 
L 395.168256 92.229415 
L 395.614367 94.503616 
L 396.031372 96.777817 
L 396.418641 99.052017 
L 396.776369 101.326218 
L 397.105041 103.600419 
L 397.404787 105.87462 
L 397.674797 108.148821 
L 397.912941 110.423022 
L 398.115748 112.697223 
L 398.278769 114.971423 
L 398.397327 117.245624 
L 398.467517 119.519825 
L 398.487273 121.794026 
L 398.457271 124.068227 
L 398.381441 126.342428 
L 398.266919 128.616629 
L 398.123361 130.89083 
L 397.961667 133.16503 
L 397.792273 135.439231 
L 397.623263 137.713432 
L 397.458616 139.987633 
L 397.296876 142.261834 
L 397.130492 144.536035 
L 396.945973 146.810236 
L 396.724863 149.084436 
L 396.445423 151.358637 
L 396.084814 153.632838 
L 395.621472 155.907039 
L 395.03739 158.18124 
L 394.320025 160.455441 
L 393.463616 162.729642 
L 392.4698 165.003843 
L 391.347515 167.278043 
L 390.112249 169.552244 
L 388.784775 171.826445 
L 387.38956 174.100646 
L 385.952995 176.374847 
L 384.501648 178.649048 
L 383.060654 180.923249 
L 381.652349 183.19745 
L 380.295219 185.47165 
L 379.003214 187.745851 
L 377.78543 190.020052 
L 376.646178 192.294253 
L 375.585397 194.568454 
L 374.599382 196.842655 
L 373.681737 199.116856 
L 372.824463 201.391056 
L 372.019059 203.665257 
L 371.257522 205.939458 
L 370.533132 208.213659 
L 369.840959 210.48786 
L 369.178047 212.762061 
L 368.543295 215.036262 
L 367.937098 217.310463 
L 367.36083 219.584663 
L 366.816288 221.858864 
L 366.305187 224.133065 
L 365.828788 226.407266 
L 365.387715 228.681467 
L 364.981952 230.955668 
L 364.610985 233.229869 
L 364.274052 235.504069 
L 363.970402 237.77827 
L 363.699499 240.052471 
L 363.461125 242.326672 
L 363.255331 244.600873 
L 363.082252 246.875074 
L 362.941807 249.149275 
L 362.833341 251.423476 
L 362.755277 253.697676 
L 362.704855 255.971877 
L 362.678001 258.246078 
L 362.669381 260.520279 
L 362.672647 262.79448 
L 362.680838 265.068681 
L 362.68691 267.342882 
L 362.684311 269.617083 
L 362.667533 271.891283 
L 362.632565 274.165484 
L 362.577186 276.439685 
L 362.501072 278.713886 
z
" clip-path="url(#p8b6ce5cb8d)" style="fill: #1f77b4; fill-opacity: 0.3"/>
   </g>
   <g id="matplotlib.axis_1">
    <g id="xtick_1">
     <g id="line2d_1">
      <defs>
       <path id="m187e3fd35a" d="M 0 0 
L 0 3.5 
" style="stroke: #000000; stroke-width: 0.8"/>
      </defs>
      <g>
       <use xlink:href="#m187e3fd35a" x="69.668354" y="307.584" style="stroke: #000000; stroke-width: 0.8"/>
      </g>
     </g>
     <g id="text_1">
      <!-- 250 -->
      <g transform="translate(60.124604 322.182437)scale(0.1 -0.1)">
       <defs>
        <path id="DejaVuSans-32" d="M 1228 531 
L 3431 531 
L 3431 0 
L 469 0 
L 469 531 
Q 828 903 1448 1529 
Q 2069 2156 2228 2338 
Q 2531 2678 2651 2914 
Q 2772 3150 2772 3378 
Q 2772 3750 2511 3984 
Q 2250 4219 1831 4219 
Q 1534 4219 1204 4116 
Q 875 4013 500 3803 
L 500 4441 
Q 881 4594 1212 4672 
Q 1544 4750 1819 4750 
Q 2544 4750 2975 4387 
Q 3406 4025 3406 3419 
Q 3406 3131 3298 2873 
Q 3191 2616 2906 2266 
Q 2828 2175 2409 1742 
Q 1991 1309 1228 531 
z
" transform="scale(0.015625)"/>
        <path id="DejaVuSans-35" d="M 691 4666 
L 3169 4666 
L 3169 4134 
L 1269 4134 
L 1269 2991 
Q 1406 3038 1543 3061 
Q 1681 3084 1819 3084 
Q 2600 3084 3056 2656 
Q 3513 2228 3513 1497 
Q 3513 744 3044 326 
Q 2575 -91 1722 -91 
Q 1428 -91 1123 -41 
Q 819 9 494 109 
L 494 744 
Q 775 591 1075 516 
Q 1375 441 1709 441 
Q 2250 441 2565 725 
Q 2881 1009 2881 1497 
Q 2881 1984 2565 2268 
Q 2250 2553 1709 2553 
Q 1456 2553 1204 2497 
Q 953 2441 691 2322 
L 691 4666 
z
" transform="scale(0.015625)"/>
        <path id="DejaVuSans-30" d="M 2034 4250 
Q 1547 4250 1301 3770 
Q 1056 3291 1056 2328 
Q 1056 1369 1301 889 
Q 1547 409 2034 409 
Q 2525 409 2770 889 
Q 3016 1369 3016 2328 
Q 3016 3291 2770 3770 
Q 2525 4250 2034 4250 
z
M 2034 4750 
Q 2819 4750 3233 4129 
Q 3647 3509 3647 2328 
Q 3647 1150 3233 529 
Q 2819 -91 2034 -91 
Q 1250 -91 836 529 
Q 422 1150 422 2328 
Q 422 3509 836 4129 
Q 1250 4750 2034 4750 
z
" transform="scale(0.015625)"/>
       </defs>
       <use xlink:href="#DejaVuSans-32"/>
       <use xlink:href="#DejaVuSans-35" x="63.623047"/>
       <use xlink:href="#DejaVuSans-30" x="127.246094"/>
      </g>
     </g>
    </g>
    <g id="xtick_2">
     <g id="line2d_2">
      <g>
       <use xlink:href="#m187e3fd35a" x="111.312087" y="307.584" style="stroke: #000000; stroke-width: 0.8"/>
      </g>
     </g>
     <g id="text_2">
      <!-- 500 -->
      <g transform="translate(101.768337 322.182437)scale(0.1 -0.1)">
       <use xlink:href="#DejaVuSans-35"/>
       <use xlink:href="#DejaVuSans-30" x="63.623047"/>
       <use xlink:href="#DejaVuSans-30" x="127.246094"/>
      </g>
     </g>
    </g>
    <g id="xtick_3">
     <g id="line2d_3">
      <g>
       <use xlink:href="#m187e3fd35a" x="152.955821" y="307.584" style="stroke: #000000; stroke-width: 0.8"/>
      </g>
     </g>
     <g id="text_3">
      <!-- 750 -->
      <g transform="translate(143.412071 322.182437)scale(0.1 -0.1)">
       <defs>
        <path id="DejaVuSans-37" d="M 525 4666 
L 3525 4666 
L 3525 4397 
L 1831 0 
L 1172 0 
L 2766 4134 
L 525 4134 
L 525 4666 
z
" transform="scale(0.015625)"/>
       </defs>
       <use xlink:href="#DejaVuSans-37"/>
       <use xlink:href="#DejaVuSans-35" x="63.623047"/>
       <use xlink:href="#DejaVuSans-30" x="127.246094"/>
      </g>
     </g>
    </g>
    <g id="xtick_4">
     <g id="line2d_4">
      <g>
       <use xlink:href="#m187e3fd35a" x="194.599554" y="307.584" style="stroke: #000000; stroke-width: 0.8"/>
      </g>
     </g>
     <g id="text_4">
      <!-- 1000 -->
      <g transform="translate(181.874554 322.182437)scale(0.1 -0.1)">
       <defs>
        <path id="DejaVuSans-31" d="M 794 531 
L 1825 531 
L 1825 4091 
L 703 3866 
L 703 4441 
L 1819 4666 
L 2450 4666 
L 2450 531 
L 3481 531 
L 3481 0 
L 794 0 
L 794 531 
z
" transform="scale(0.015625)"/>
       </defs>
       <use xlink:href="#DejaVuSans-31"/>
       <use xlink:href="#DejaVuSans-30" x="63.623047"/>
       <use xlink:href="#DejaVuSans-30" x="127.246094"/>
       <use xlink:href="#DejaVuSans-30" x="190.869141"/>
      </g>
     </g>
    </g>
    <g id="xtick_5">
     <g id="line2d_5">
      <g>
       <use xlink:href="#m187e3fd35a" x="236.243287" y="307.584" style="stroke: #000000; stroke-width: 0.8"/>
      </g>
     </g>
     <g id="text_5">
      <!-- 1250 -->
      <g transform="translate(223.518287 322.182437)scale(0.1 -0.1)">
       <use xlink:href="#DejaVuSans-31"/>
       <use xlink:href="#DejaVuSans-32" x="63.623047"/>
       <use xlink:href="#DejaVuSans-35" x="127.246094"/>
       <use xlink:href="#DejaVuSans-30" x="190.869141"/>
      </g>
     </g>
    </g>
    <g id="xtick_6">
     <g id="line2d_6">
      <g>
       <use xlink:href="#m187e3fd35a" x="277.887021" y="307.584" style="stroke: #000000; stroke-width: 0.8"/>
      </g>
     </g>
     <g id="text_6">
      <!-- 1500 -->
      <g transform="translate(265.162021 322.182437)scale(0.1 -0.1)">
       <use xlink:href="#DejaVuSans-31"/>
       <use xlink:href="#DejaVuSans-35" x="63.623047"/>
       <use xlink:href="#DejaVuSans-30" x="127.246094"/>
       <use xlink:href="#DejaVuSans-30" x="190.869141"/>
      </g>
     </g>
    </g>
    <g id="xtick_7">
     <g id="line2d_7">
      <g>
       <use xlink:href="#m187e3fd35a" x="319.530754" y="307.584" style="stroke: #000000; stroke-width: 0.8"/>
      </g>
     </g>
     <g id="text_7">
      <!-- 1750 -->
      <g transform="translate(306.805754 322.182437)scale(0.1 -0.1)">
       <use xlink:href="#DejaVuSans-31"/>
       <use xlink:href="#DejaVuSans-37" x="63.623047"/>
       <use xlink:href="#DejaVuSans-35" x="127.246094"/>
       <use xlink:href="#DejaVuSans-30" x="190.869141"/>
      </g>
     </g>
    </g>
    <g id="xtick_8">
     <g id="line2d_8">
      <g>
       <use xlink:href="#m187e3fd35a" x="361.174488" y="307.584" style="stroke: #000000; stroke-width: 0.8"/>
      </g>
     </g>
     <g id="text_8">
      <!-- 2000 -->
      <g transform="translate(348.449488 322.182437)scale(0.1 -0.1)">
       <use xlink:href="#DejaVuSans-32"/>
       <use xlink:href="#DejaVuSans-30" x="63.623047"/>
       <use xlink:href="#DejaVuSans-30" x="127.246094"/>
       <use xlink:href="#DejaVuSans-30" x="190.869141"/>
      </g>
     </g>
    </g>
    <g id="xtick_9">
     <g id="line2d_9">
      <g>
       <use xlink:href="#m187e3fd35a" x="402.818221" y="307.584" style="stroke: #000000; stroke-width: 0.8"/>
      </g>
     </g>
     <g id="text_9">
      <!-- 2250 -->
      <g transform="translate(390.093221 322.182437)scale(0.1 -0.1)">
       <use xlink:href="#DejaVuSans-32"/>
       <use xlink:href="#DejaVuSans-32" x="63.623047"/>
       <use xlink:href="#DejaVuSans-35" x="127.246094"/>
       <use xlink:href="#DejaVuSans-30" x="190.869141"/>
      </g>
     </g>
    </g>
    <g id="text_10">
     <!-- Learned Episodes -->
     <g transform="translate(192.102187 335.860562)scale(0.1 -0.1)">
      <defs>
       <path id="DejaVuSans-4c" d="M 628 4666 
L 1259 4666 
L 1259 531 
L 3531 531 
L 3531 0 
L 628 0 
L 628 4666 
z
" transform="scale(0.015625)"/>
       <path id="DejaVuSans-65" d="M 3597 1894 
L 3597 1613 
L 953 1613 
Q 991 1019 1311 708 
Q 1631 397 2203 397 
Q 2534 397 2845 478 
Q 3156 559 3463 722 
L 3463 178 
Q 3153 47 2828 -22 
Q 2503 -91 2169 -91 
Q 1331 -91 842 396 
Q 353 884 353 1716 
Q 353 2575 817 3079 
Q 1281 3584 2069 3584 
Q 2775 3584 3186 3129 
Q 3597 2675 3597 1894 
z
M 3022 2063 
Q 3016 2534 2758 2815 
Q 2500 3097 2075 3097 
Q 1594 3097 1305 2825 
Q 1016 2553 972 2059 
L 3022 2063 
z
" transform="scale(0.015625)"/>
       <path id="DejaVuSans-61" d="M 2194 1759 
Q 1497 1759 1228 1600 
Q 959 1441 959 1056 
Q 959 750 1161 570 
Q 1363 391 1709 391 
Q 2188 391 2477 730 
Q 2766 1069 2766 1631 
L 2766 1759 
L 2194 1759 
z
M 3341 1997 
L 3341 0 
L 2766 0 
L 2766 531 
Q 2569 213 2275 61 
Q 1981 -91 1556 -91 
Q 1019 -91 701 211 
Q 384 513 384 1019 
Q 384 1609 779 1909 
Q 1175 2209 1959 2209 
L 2766 2209 
L 2766 2266 
Q 2766 2663 2505 2880 
Q 2244 3097 1772 3097 
Q 1472 3097 1187 3025 
Q 903 2953 641 2809 
L 641 3341 
Q 956 3463 1253 3523 
Q 1550 3584 1831 3584 
Q 2591 3584 2966 3190 
Q 3341 2797 3341 1997 
z
" transform="scale(0.015625)"/>
       <path id="DejaVuSans-72" d="M 2631 2963 
Q 2534 3019 2420 3045 
Q 2306 3072 2169 3072 
Q 1681 3072 1420 2755 
Q 1159 2438 1159 1844 
L 1159 0 
L 581 0 
L 581 3500 
L 1159 3500 
L 1159 2956 
Q 1341 3275 1631 3429 
Q 1922 3584 2338 3584 
Q 2397 3584 2469 3576 
Q 2541 3569 2628 3553 
L 2631 2963 
z
" transform="scale(0.015625)"/>
       <path id="DejaVuSans-6e" d="M 3513 2113 
L 3513 0 
L 2938 0 
L 2938 2094 
Q 2938 2591 2744 2837 
Q 2550 3084 2163 3084 
Q 1697 3084 1428 2787 
Q 1159 2491 1159 1978 
L 1159 0 
L 581 0 
L 581 3500 
L 1159 3500 
L 1159 2956 
Q 1366 3272 1645 3428 
Q 1925 3584 2291 3584 
Q 2894 3584 3203 3211 
Q 3513 2838 3513 2113 
z
" transform="scale(0.015625)"/>
       <path id="DejaVuSans-64" d="M 2906 2969 
L 2906 4863 
L 3481 4863 
L 3481 0 
L 2906 0 
L 2906 525 
Q 2725 213 2448 61 
Q 2172 -91 1784 -91 
Q 1150 -91 751 415 
Q 353 922 353 1747 
Q 353 2572 751 3078 
Q 1150 3584 1784 3584 
Q 2172 3584 2448 3432 
Q 2725 3281 2906 2969 
z
M 947 1747 
Q 947 1113 1208 752 
Q 1469 391 1925 391 
Q 2381 391 2643 752 
Q 2906 1113 2906 1747 
Q 2906 2381 2643 2742 
Q 2381 3103 1925 3103 
Q 1469 3103 1208 2742 
Q 947 2381 947 1747 
z
" transform="scale(0.015625)"/>
       <path id="DejaVuSans-20" transform="scale(0.015625)"/>
       <path id="DejaVuSans-45" d="M 628 4666 
L 3578 4666 
L 3578 4134 
L 1259 4134 
L 1259 2753 
L 3481 2753 
L 3481 2222 
L 1259 2222 
L 1259 531 
L 3634 531 
L 3634 0 
L 628 0 
L 628 4666 
z
" transform="scale(0.015625)"/>
       <path id="DejaVuSans-70" d="M 1159 525 
L 1159 -1331 
L 581 -1331 
L 581 3500 
L 1159 3500 
L 1159 2969 
Q 1341 3281 1617 3432 
Q 1894 3584 2278 3584 
Q 2916 3584 3314 3078 
Q 3713 2572 3713 1747 
Q 3713 922 3314 415 
Q 2916 -91 2278 -91 
Q 1894 -91 1617 61 
Q 1341 213 1159 525 
z
M 3116 1747 
Q 3116 2381 2855 2742 
Q 2594 3103 2138 3103 
Q 1681 3103 1420 2742 
Q 1159 2381 1159 1747 
Q 1159 1113 1420 752 
Q 1681 391 2138 391 
Q 2594 391 2855 752 
Q 3116 1113 3116 1747 
z
" transform="scale(0.015625)"/>
       <path id="DejaVuSans-69" d="M 603 3500 
L 1178 3500 
L 1178 0 
L 603 0 
L 603 3500 
z
M 603 4863 
L 1178 4863 
L 1178 4134 
L 603 4134 
L 603 4863 
z
" transform="scale(0.015625)"/>
       <path id="DejaVuSans-73" d="M 2834 3397 
L 2834 2853 
Q 2591 2978 2328 3040 
Q 2066 3103 1784 3103 
Q 1356 3103 1142 2972 
Q 928 2841 928 2578 
Q 928 2378 1081 2264 
Q 1234 2150 1697 2047 
L 1894 2003 
Q 2506 1872 2764 1633 
Q 3022 1394 3022 966 
Q 3022 478 2636 193 
Q 2250 -91 1575 -91 
Q 1294 -91 989 -36 
Q 684 19 347 128 
L 347 722 
Q 666 556 975 473 
Q 1284 391 1588 391 
Q 1994 391 2212 530 
Q 2431 669 2431 922 
Q 2431 1156 2273 1281 
Q 2116 1406 1581 1522 
L 1381 1569 
Q 847 1681 609 1914 
Q 372 2147 372 2553 
Q 372 3047 722 3315 
Q 1072 3584 1716 3584 
Q 2034 3584 2315 3537 
Q 2597 3491 2834 3397 
z
" transform="scale(0.015625)"/>
       <path id="DejaVuSans-6f" d="M 1959 3097 
Q 1497 3097 1228 2736 
Q 959 2375 959 1747 
Q 959 1119 1226 758 
Q 1494 397 1959 397 
Q 2419 397 2687 759 
Q 2956 1122 2956 1747 
Q 2956 2369 2687 2733 
Q 2419 3097 1959 3097 
z
M 1959 3584 
Q 2709 3584 3137 3096 
Q 3566 2609 3566 1747 
Q 3566 888 3137 398 
Q 2709 -91 1959 -91 
Q 1206 -91 779 398 
Q 353 888 353 1747 
Q 353 2609 779 3096 
Q 1206 3584 1959 3584 
z
" transform="scale(0.015625)"/>
      </defs>
      <use xlink:href="#DejaVuSans-4c"/>
      <use xlink:href="#DejaVuSans-65" x="53.962891"/>
      <use xlink:href="#DejaVuSans-61" x="115.486328"/>
      <use xlink:href="#DejaVuSans-72" x="176.765625"/>
      <use xlink:href="#DejaVuSans-6e" x="216.128906"/>
      <use xlink:href="#DejaVuSans-65" x="279.507812"/>
      <use xlink:href="#DejaVuSans-64" x="341.03125"/>
      <use xlink:href="#DejaVuSans-20" x="404.507812"/>
      <use xlink:href="#DejaVuSans-45" x="436.294922"/>
      <use xlink:href="#DejaVuSans-70" x="499.478516"/>
      <use xlink:href="#DejaVuSans-69" x="562.955078"/>
      <use xlink:href="#DejaVuSans-73" x="590.738281"/>
      <use xlink:href="#DejaVuSans-6f" x="642.837891"/>
      <use xlink:href="#DejaVuSans-64" x="704.019531"/>
      <use xlink:href="#DejaVuSans-65" x="767.496094"/>
      <use xlink:href="#DejaVuSans-73" x="829.019531"/>
     </g>
    </g>
   </g>
   <g id="matplotlib.axis_2">
    <g id="ytick_1">
     <g id="line2d_10">
      <defs>
       <path id="m7fdea5c6cb" d="M 0 0 
L -3.5 0 
" style="stroke: #000000; stroke-width: 0.8"/>
      </defs>
      <g>
       <use xlink:href="#m7fdea5c6cb" x="57.6" y="277.222854" style="stroke: #000000; stroke-width: 0.8"/>
      </g>
     </g>
     <g id="text_11">
      <!-- −600 -->
      <g transform="translate(23.132812 281.022072)scale(0.1 -0.1)">
       <defs>
        <path id="DejaVuSans-2212" d="M 678 2272 
L 4684 2272 
L 4684 1741 
L 678 1741 
L 678 2272 
z
" transform="scale(0.015625)"/>
        <path id="DejaVuSans-36" d="M 2113 2584 
Q 1688 2584 1439 2293 
Q 1191 2003 1191 1497 
Q 1191 994 1439 701 
Q 1688 409 2113 409 
Q 2538 409 2786 701 
Q 3034 994 3034 1497 
Q 3034 2003 2786 2293 
Q 2538 2584 2113 2584 
z
M 3366 4563 
L 3366 3988 
Q 3128 4100 2886 4159 
Q 2644 4219 2406 4219 
Q 1781 4219 1451 3797 
Q 1122 3375 1075 2522 
Q 1259 2794 1537 2939 
Q 1816 3084 2150 3084 
Q 2853 3084 3261 2657 
Q 3669 2231 3669 1497 
Q 3669 778 3244 343 
Q 2819 -91 2113 -91 
Q 1303 -91 875 529 
Q 447 1150 447 2328 
Q 447 3434 972 4092 
Q 1497 4750 2381 4750 
Q 2619 4750 2861 4703 
Q 3103 4656 3366 4563 
z
" transform="scale(0.015625)"/>
       </defs>
       <use xlink:href="#DejaVuSans-2212"/>
       <use xlink:href="#DejaVuSans-36" x="83.789062"/>
       <use xlink:href="#DejaVuSans-30" x="147.412109"/>
       <use xlink:href="#DejaVuSans-30" x="211.035156"/>
      </g>
     </g>
    </g>
    <g id="ytick_2">
     <g id="line2d_11">
      <g>
       <use xlink:href="#m7fdea5c6cb" x="57.6" y="239.947045" style="stroke: #000000; stroke-width: 0.8"/>
      </g>
     </g>
     <g id="text_12">
      <!-- −500 -->
      <g transform="translate(23.132812 243.746263)scale(0.1 -0.1)">
       <use xlink:href="#DejaVuSans-2212"/>
       <use xlink:href="#DejaVuSans-35" x="83.789062"/>
       <use xlink:href="#DejaVuSans-30" x="147.412109"/>
       <use xlink:href="#DejaVuSans-30" x="211.035156"/>
      </g>
     </g>
    </g>
    <g id="ytick_3">
     <g id="line2d_12">
      <g>
       <use xlink:href="#m7fdea5c6cb" x="57.6" y="202.671236" style="stroke: #000000; stroke-width: 0.8"/>
      </g>
     </g>
     <g id="text_13">
      <!-- −400 -->
      <g transform="translate(23.132812 206.470454)scale(0.1 -0.1)">
       <defs>
        <path id="DejaVuSans-34" d="M 2419 4116 
L 825 1625 
L 2419 1625 
L 2419 4116 
z
M 2253 4666 
L 3047 4666 
L 3047 1625 
L 3713 1625 
L 3713 1100 
L 3047 1100 
L 3047 0 
L 2419 0 
L 2419 1100 
L 313 1100 
L 313 1709 
L 2253 4666 
z
" transform="scale(0.015625)"/>
       </defs>
       <use xlink:href="#DejaVuSans-2212"/>
       <use xlink:href="#DejaVuSans-34" x="83.789062"/>
       <use xlink:href="#DejaVuSans-30" x="147.412109"/>
       <use xlink:href="#DejaVuSans-30" x="211.035156"/>
      </g>
     </g>
    </g>
    <g id="ytick_4">
     <g id="line2d_13">
      <g>
       <use xlink:href="#m7fdea5c6cb" x="57.6" y="165.395427" style="stroke: #000000; stroke-width: 0.8"/>
      </g>
     </g>
     <g id="text_14">
      <!-- −300 -->
      <g transform="translate(23.132812 169.194646)scale(0.1 -0.1)">
       <defs>
        <path id="DejaVuSans-33" d="M 2597 2516 
Q 3050 2419 3304 2112 
Q 3559 1806 3559 1356 
Q 3559 666 3084 287 
Q 2609 -91 1734 -91 
Q 1441 -91 1130 -33 
Q 819 25 488 141 
L 488 750 
Q 750 597 1062 519 
Q 1375 441 1716 441 
Q 2309 441 2620 675 
Q 2931 909 2931 1356 
Q 2931 1769 2642 2001 
Q 2353 2234 1838 2234 
L 1294 2234 
L 1294 2753 
L 1863 2753 
Q 2328 2753 2575 2939 
Q 2822 3125 2822 3475 
Q 2822 3834 2567 4026 
Q 2313 4219 1838 4219 
Q 1578 4219 1281 4162 
Q 984 4106 628 3988 
L 628 4550 
Q 988 4650 1302 4700 
Q 1616 4750 1894 4750 
Q 2613 4750 3031 4423 
Q 3450 4097 3450 3541 
Q 3450 3153 3228 2886 
Q 3006 2619 2597 2516 
z
" transform="scale(0.015625)"/>
       </defs>
       <use xlink:href="#DejaVuSans-2212"/>
       <use xlink:href="#DejaVuSans-33" x="83.789062"/>
       <use xlink:href="#DejaVuSans-30" x="147.412109"/>
       <use xlink:href="#DejaVuSans-30" x="211.035156"/>
      </g>
     </g>
    </g>
    <g id="ytick_5">
     <g id="line2d_14">
      <g>
       <use xlink:href="#m7fdea5c6cb" x="57.6" y="128.119618" style="stroke: #000000; stroke-width: 0.8"/>
      </g>
     </g>
     <g id="text_15">
      <!-- −200 -->
      <g transform="translate(23.132812 131.918837)scale(0.1 -0.1)">
       <use xlink:href="#DejaVuSans-2212"/>
       <use xlink:href="#DejaVuSans-32" x="83.789062"/>
       <use xlink:href="#DejaVuSans-30" x="147.412109"/>
       <use xlink:href="#DejaVuSans-30" x="211.035156"/>
      </g>
     </g>
    </g>
    <g id="ytick_6">
     <g id="line2d_15">
      <g>
       <use xlink:href="#m7fdea5c6cb" x="57.6" y="90.843809" style="stroke: #000000; stroke-width: 0.8"/>
      </g>
     </g>
     <g id="text_16">
      <!-- −100 -->
      <g transform="translate(23.132812 94.643028)scale(0.1 -0.1)">
       <use xlink:href="#DejaVuSans-2212"/>
       <use xlink:href="#DejaVuSans-31" x="83.789062"/>
       <use xlink:href="#DejaVuSans-30" x="147.412109"/>
       <use xlink:href="#DejaVuSans-30" x="211.035156"/>
      </g>
     </g>
    </g>
    <g id="ytick_7">
     <g id="line2d_16">
      <g>
       <use xlink:href="#m7fdea5c6cb" x="57.6" y="53.568" style="stroke: #000000; stroke-width: 0.8"/>
      </g>
     </g>
     <g id="text_17">
      <!-- 0 -->
      <g transform="translate(44.2375 57.367219)scale(0.1 -0.1)">
       <use xlink:href="#DejaVuSans-30"/>
      </g>
     </g>
    </g>
    <g id="text_18">
     <!-- Reward Density -->
     <g transform="translate(17.053125 213.74675)rotate(-90)scale(0.1 -0.1)">
      <defs>
       <path id="DejaVuSans-52" d="M 2841 2188 
Q 3044 2119 3236 1894 
Q 3428 1669 3622 1275 
L 4263 0 
L 3584 0 
L 2988 1197 
Q 2756 1666 2539 1819 
Q 2322 1972 1947 1972 
L 1259 1972 
L 1259 0 
L 628 0 
L 628 4666 
L 2053 4666 
Q 2853 4666 3247 4331 
Q 3641 3997 3641 3322 
Q 3641 2881 3436 2590 
Q 3231 2300 2841 2188 
z
M 1259 4147 
L 1259 2491 
L 2053 2491 
Q 2509 2491 2742 2702 
Q 2975 2913 2975 3322 
Q 2975 3731 2742 3939 
Q 2509 4147 2053 4147 
L 1259 4147 
z
" transform="scale(0.015625)"/>
       <path id="DejaVuSans-77" d="M 269 3500 
L 844 3500 
L 1563 769 
L 2278 3500 
L 2956 3500 
L 3675 769 
L 4391 3500 
L 4966 3500 
L 4050 0 
L 3372 0 
L 2619 2869 
L 1863 0 
L 1184 0 
L 269 3500 
z
" transform="scale(0.015625)"/>
       <path id="DejaVuSans-44" d="M 1259 4147 
L 1259 519 
L 2022 519 
Q 2988 519 3436 956 
Q 3884 1394 3884 2338 
Q 3884 3275 3436 3711 
Q 2988 4147 2022 4147 
L 1259 4147 
z
M 628 4666 
L 1925 4666 
Q 3281 4666 3915 4102 
Q 4550 3538 4550 2338 
Q 4550 1131 3912 565 
Q 3275 0 1925 0 
L 628 0 
L 628 4666 
z
" transform="scale(0.015625)"/>
       <path id="DejaVuSans-74" d="M 1172 4494 
L 1172 3500 
L 2356 3500 
L 2356 3053 
L 1172 3053 
L 1172 1153 
Q 1172 725 1289 603 
Q 1406 481 1766 481 
L 2356 481 
L 2356 0 
L 1766 0 
Q 1100 0 847 248 
Q 594 497 594 1153 
L 594 3053 
L 172 3053 
L 172 3500 
L 594 3500 
L 594 4494 
L 1172 4494 
z
" transform="scale(0.015625)"/>
       <path id="DejaVuSans-79" d="M 2059 -325 
Q 1816 -950 1584 -1140 
Q 1353 -1331 966 -1331 
L 506 -1331 
L 506 -850 
L 844 -850 
Q 1081 -850 1212 -737 
Q 1344 -625 1503 -206 
L 1606 56 
L 191 3500 
L 800 3500 
L 1894 763 
L 2988 3500 
L 3597 3500 
L 2059 -325 
z
" transform="scale(0.015625)"/>
      </defs>
      <use xlink:href="#DejaVuSans-52"/>
      <use xlink:href="#DejaVuSans-65" x="64.982422"/>
      <use xlink:href="#DejaVuSans-77" x="126.505859"/>
      <use xlink:href="#DejaVuSans-61" x="208.292969"/>
      <use xlink:href="#DejaVuSans-72" x="269.572266"/>
      <use xlink:href="#DejaVuSans-64" x="308.935547"/>
      <use xlink:href="#DejaVuSans-20" x="372.412109"/>
      <use xlink:href="#DejaVuSans-44" x="404.199219"/>
      <use xlink:href="#DejaVuSans-65" x="481.201172"/>
      <use xlink:href="#DejaVuSans-6e" x="542.724609"/>
      <use xlink:href="#DejaVuSans-73" x="606.103516"/>
      <use xlink:href="#DejaVuSans-69" x="658.203125"/>
      <use xlink:href="#DejaVuSans-74" x="685.986328"/>
      <use xlink:href="#DejaVuSans-79" x="725.195312"/>
     </g>
    </g>
   </g>
   <g id="LineCollection_1">
    <path d="M 92.572407 151.242548 
L 130.051767 151.242548 
" clip-path="url(#p8b6ce5cb8d)" style="fill: none; stroke: #1f77b4; stroke-width: 1.5"/>
    <path d="M 175.859874 134.562369 
L 213.339234 134.562369 
" clip-path="url(#p8b6ce5cb8d)" style="fill: none; stroke: #1f77b4; stroke-width: 1.5"/>
    <path d="M 259.147341 124.204167 
L 296.626701 124.204167 
" clip-path="url(#p8b6ce5cb8d)" style="fill: none; stroke: #1f77b4; stroke-width: 1.5"/>
    <path d="M 342.268233 125.959112 
L 379.747593 125.959112 
" clip-path="url(#p8b6ce5cb8d)" style="fill: none; stroke: #1f77b4; stroke-width: 1.5"/>
   </g>
   <g id="LineCollection_2">
    <path d="M 92.572407 53.568 
L 130.051767 53.568 
" clip-path="url(#p8b6ce5cb8d)" style="fill: none; stroke: #1f77b4; stroke-width: 1.5"/>
    <path d="M 175.859874 53.568 
L 213.339234 53.568 
" clip-path="url(#p8b6ce5cb8d)" style="fill: none; stroke: #1f77b4; stroke-width: 1.5"/>
    <path d="M 259.147341 53.568 
L 296.626701 53.568 
" clip-path="url(#p8b6ce5cb8d)" style="fill: none; stroke: #1f77b4; stroke-width: 1.5"/>
    <path d="M 342.268233 53.568 
L 379.747593 53.568 
" clip-path="url(#p8b6ce5cb8d)" style="fill: none; stroke: #1f77b4; stroke-width: 1.5"/>
   </g>
   <g id="LineCollection_3">
    <path d="M 92.572407 295.488 
L 130.051767 295.488 
" clip-path="url(#p8b6ce5cb8d)" style="fill: none; stroke: #1f77b4; stroke-width: 1.5"/>
    <path d="M 175.859874 285.423532 
L 213.339234 285.423532 
" clip-path="url(#p8b6ce5cb8d)" style="fill: none; stroke: #1f77b4; stroke-width: 1.5"/>
    <path d="M 259.147341 245.538416 
L 296.626701 245.538416 
" clip-path="url(#p8b6ce5cb8d)" style="fill: none; stroke: #1f77b4; stroke-width: 1.5"/>
    <path d="M 342.268233 278.713886 
L 379.747593 278.713886 
" clip-path="url(#p8b6ce5cb8d)" style="fill: none; stroke: #1f77b4; stroke-width: 1.5"/>
   </g>
   <g id="LineCollection_4">
    <path d="M 111.312087 295.488 
L 111.312087 53.568 
" clip-path="url(#p8b6ce5cb8d)" style="fill: none; stroke: #1f77b4; stroke-width: 1.5"/>
    <path d="M 194.599554 285.423532 
L 194.599554 53.568 
" clip-path="url(#p8b6ce5cb8d)" style="fill: none; stroke: #1f77b4; stroke-width: 1.5"/>
    <path d="M 277.887021 245.538416 
L 277.887021 53.568 
" clip-path="url(#p8b6ce5cb8d)" style="fill: none; stroke: #1f77b4; stroke-width: 1.5"/>
    <path d="M 361.007913 278.713886 
L 361.007913 53.568 
" clip-path="url(#p8b6ce5cb8d)" style="fill: none; stroke: #1f77b4; stroke-width: 1.5"/>
   </g>
   <g id="line2d_17">
    <path d="M 111.312087 151.242548 
L 194.599554 134.562369 
L 277.887021 124.204167 
L 361.007913 125.959112 
" clip-path="url(#p8b6ce5cb8d)" style="fill: none; stroke: #4682b4; stroke-width: 1.5; stroke-linecap: square"/>
   </g>
   <g id="patch_3">
    <path d="M 57.6 307.584 
L 57.6 41.472 
" style="fill: none; stroke: #000000; stroke-width: 0.8; stroke-linejoin: miter; stroke-linecap: square"/>
   </g>
   <g id="patch_4">
    <path d="M 414.72 307.584 
L 414.72 41.472 
" style="fill: none; stroke: #000000; stroke-width: 0.8; stroke-linejoin: miter; stroke-linecap: square"/>
   </g>
   <g id="patch_5">
    <path d="M 57.6 307.584 
L 414.72 307.584 
" style="fill: none; stroke: #000000; stroke-width: 0.8; stroke-linejoin: miter; stroke-linecap: square"/>
   </g>
   <g id="patch_6">
    <path d="M 57.6 41.472 
L 414.72 41.472 
" style="fill: none; stroke: #000000; stroke-width: 0.8; stroke-linejoin: miter; stroke-linecap: square"/>
   </g>
   <g id="text_19">
    <!-- Violinplot for progress of profits/rebuy_cost -->
    <g transform="translate(106.935937 35.472)scale(0.12 -0.12)">
     <defs>
      <path id="DejaVuSans-56" d="M 1831 0 
L 50 4666 
L 709 4666 
L 2188 738 
L 3669 4666 
L 4325 4666 
L 2547 0 
L 1831 0 
z
" transform="scale(0.015625)"/>
      <path id="DejaVuSans-6c" d="M 603 4863 
L 1178 4863 
L 1178 0 
L 603 0 
L 603 4863 
z
" transform="scale(0.015625)"/>
      <path id="DejaVuSans-66" d="M 2375 4863 
L 2375 4384 
L 1825 4384 
Q 1516 4384 1395 4259 
Q 1275 4134 1275 3809 
L 1275 3500 
L 2222 3500 
L 2222 3053 
L 1275 3053 
L 1275 0 
L 697 0 
L 697 3053 
L 147 3053 
L 147 3500 
L 697 3500 
L 697 3744 
Q 697 4328 969 4595 
Q 1241 4863 1831 4863 
L 2375 4863 
z
" transform="scale(0.015625)"/>
      <path id="DejaVuSans-67" d="M 2906 1791 
Q 2906 2416 2648 2759 
Q 2391 3103 1925 3103 
Q 1463 3103 1205 2759 
Q 947 2416 947 1791 
Q 947 1169 1205 825 
Q 1463 481 1925 481 
Q 2391 481 2648 825 
Q 2906 1169 2906 1791 
z
M 3481 434 
Q 3481 -459 3084 -895 
Q 2688 -1331 1869 -1331 
Q 1566 -1331 1297 -1286 
Q 1028 -1241 775 -1147 
L 775 -588 
Q 1028 -725 1275 -790 
Q 1522 -856 1778 -856 
Q 2344 -856 2625 -561 
Q 2906 -266 2906 331 
L 2906 616 
Q 2728 306 2450 153 
Q 2172 0 1784 0 
Q 1141 0 747 490 
Q 353 981 353 1791 
Q 353 2603 747 3093 
Q 1141 3584 1784 3584 
Q 2172 3584 2450 3431 
Q 2728 3278 2906 2969 
L 2906 3500 
L 3481 3500 
L 3481 434 
z
" transform="scale(0.015625)"/>
      <path id="DejaVuSans-2f" d="M 1625 4666 
L 2156 4666 
L 531 -594 
L 0 -594 
L 1625 4666 
z
" transform="scale(0.015625)"/>
      <path id="DejaVuSans-62" d="M 3116 1747 
Q 3116 2381 2855 2742 
Q 2594 3103 2138 3103 
Q 1681 3103 1420 2742 
Q 1159 2381 1159 1747 
Q 1159 1113 1420 752 
Q 1681 391 2138 391 
Q 2594 391 2855 752 
Q 3116 1113 3116 1747 
z
M 1159 2969 
Q 1341 3281 1617 3432 
Q 1894 3584 2278 3584 
Q 2916 3584 3314 3078 
Q 3713 2572 3713 1747 
Q 3713 922 3314 415 
Q 2916 -91 2278 -91 
Q 1894 -91 1617 61 
Q 1341 213 1159 525 
L 1159 0 
L 581 0 
L 581 4863 
L 1159 4863 
L 1159 2969 
z
" transform="scale(0.015625)"/>
      <path id="DejaVuSans-75" d="M 544 1381 
L 544 3500 
L 1119 3500 
L 1119 1403 
Q 1119 906 1312 657 
Q 1506 409 1894 409 
Q 2359 409 2629 706 
Q 2900 1003 2900 1516 
L 2900 3500 
L 3475 3500 
L 3475 0 
L 2900 0 
L 2900 538 
Q 2691 219 2414 64 
Q 2138 -91 1772 -91 
Q 1169 -91 856 284 
Q 544 659 544 1381 
z
M 1991 3584 
L 1991 3584 
z
" transform="scale(0.015625)"/>
      <path id="DejaVuSans-5f" d="M 3263 -1063 
L 3263 -1509 
L -63 -1509 
L -63 -1063 
L 3263 -1063 
z
" transform="scale(0.015625)"/>
      <path id="DejaVuSans-63" d="M 3122 3366 
L 3122 2828 
Q 2878 2963 2633 3030 
Q 2388 3097 2138 3097 
Q 1578 3097 1268 2742 
Q 959 2388 959 1747 
Q 959 1106 1268 751 
Q 1578 397 2138 397 
Q 2388 397 2633 464 
Q 2878 531 3122 666 
L 3122 134 
Q 2881 22 2623 -34 
Q 2366 -91 2075 -91 
Q 1284 -91 818 406 
Q 353 903 353 1747 
Q 353 2603 823 3093 
Q 1294 3584 2113 3584 
Q 2378 3584 2631 3529 
Q 2884 3475 3122 3366 
z
" transform="scale(0.015625)"/>
     </defs>
     <use xlink:href="#DejaVuSans-56"/>
     <use xlink:href="#DejaVuSans-69" x="66.158203"/>
     <use xlink:href="#DejaVuSans-6f" x="93.941406"/>
     <use xlink:href="#DejaVuSans-6c" x="155.123047"/>
     <use xlink:href="#DejaVuSans-69" x="182.90625"/>
     <use xlink:href="#DejaVuSans-6e" x="210.689453"/>
     <use xlink:href="#DejaVuSans-70" x="274.068359"/>
     <use xlink:href="#DejaVuSans-6c" x="337.544922"/>
     <use xlink:href="#DejaVuSans-6f" x="365.328125"/>
     <use xlink:href="#DejaVuSans-74" x="426.509766"/>
     <use xlink:href="#DejaVuSans-20" x="465.71875"/>
     <use xlink:href="#DejaVuSans-66" x="497.505859"/>
     <use xlink:href="#DejaVuSans-6f" x="532.710938"/>
     <use xlink:href="#DejaVuSans-72" x="593.892578"/>
     <use xlink:href="#DejaVuSans-20" x="635.005859"/>
     <use xlink:href="#DejaVuSans-70" x="666.792969"/>
     <use xlink:href="#DejaVuSans-72" x="730.269531"/>
     <use xlink:href="#DejaVuSans-6f" x="769.132812"/>
     <use xlink:href="#DejaVuSans-67" x="830.314453"/>
     <use xlink:href="#DejaVuSans-72" x="893.791016"/>
     <use xlink:href="#DejaVuSans-65" x="932.654297"/>
     <use xlink:href="#DejaVuSans-73" x="994.177734"/>
     <use xlink:href="#DejaVuSans-73" x="1046.277344"/>
     <use xlink:href="#DejaVuSans-20" x="1098.376953"/>
     <use xlink:href="#DejaVuSans-6f" x="1130.164062"/>
     <use xlink:href="#DejaVuSans-66" x="1191.345703"/>
     <use xlink:href="#DejaVuSans-20" x="1226.550781"/>
     <use xlink:href="#DejaVuSans-70" x="1258.337891"/>
     <use xlink:href="#DejaVuSans-72" x="1321.814453"/>
     <use xlink:href="#DejaVuSans-6f" x="1360.677734"/>
     <use xlink:href="#DejaVuSans-66" x="1421.859375"/>
     <use xlink:href="#DejaVuSans-69" x="1457.064453"/>
     <use xlink:href="#DejaVuSans-74" x="1484.847656"/>
     <use xlink:href="#DejaVuSans-73" x="1524.056641"/>
     <use xlink:href="#DejaVuSans-2f" x="1576.15625"/>
     <use xlink:href="#DejaVuSans-72" x="1609.847656"/>
     <use xlink:href="#DejaVuSans-65" x="1648.710938"/>
     <use xlink:href="#DejaVuSans-62" x="1710.234375"/>
     <use xlink:href="#DejaVuSans-75" x="1773.710938"/>
     <use xlink:href="#DejaVuSans-79" x="1837.089844"/>
     <use xlink:href="#DejaVuSans-5f" x="1896.269531"/>
     <use xlink:href="#DejaVuSans-63" x="1946.269531"/>
     <use xlink:href="#DejaVuSans-6f" x="2001.25"/>
     <use xlink:href="#DejaVuSans-73" x="2062.431641"/>
     <use xlink:href="#DejaVuSans-74" x="2114.53125"/>
    </g>
   </g>
   <g id="legend_1">
    <g id="patch_7">
     <path d="M 284.430938 64.150125 
L 407.72 64.150125 
Q 409.72 64.150125 409.72 62.150125 
L 409.72 48.472 
Q 409.72 46.472 407.72 46.472 
L 284.430938 46.472 
Q 282.430938 46.472 282.430938 48.472 
L 282.430938 62.150125 
Q 282.430938 64.150125 284.430938 64.150125 
z
" style="fill: #ffffff; opacity: 0.8; stroke: #cccccc; stroke-linejoin: miter"/>
    </g>
    <g id="line2d_18">
     <path d="M 286.430938 54.570438 
L 296.430938 54.570438 
L 306.430938 54.570438 
" style="fill: none; stroke: #4682b4; stroke-width: 1.5; stroke-linecap: square"/>
    </g>
    <g id="text_20">
     <!-- Storage-Minimizer -->
     <g transform="translate(314.430938 58.070438)scale(0.1 -0.1)">
      <defs>
       <path id="DejaVuSans-53" d="M 3425 4513 
L 3425 3897 
Q 3066 4069 2747 4153 
Q 2428 4238 2131 4238 
Q 1616 4238 1336 4038 
Q 1056 3838 1056 3469 
Q 1056 3159 1242 3001 
Q 1428 2844 1947 2747 
L 2328 2669 
Q 3034 2534 3370 2195 
Q 3706 1856 3706 1288 
Q 3706 609 3251 259 
Q 2797 -91 1919 -91 
Q 1588 -91 1214 -16 
Q 841 59 441 206 
L 441 856 
Q 825 641 1194 531 
Q 1563 422 1919 422 
Q 2459 422 2753 634 
Q 3047 847 3047 1241 
Q 3047 1584 2836 1778 
Q 2625 1972 2144 2069 
L 1759 2144 
Q 1053 2284 737 2584 
Q 422 2884 422 3419 
Q 422 4038 858 4394 
Q 1294 4750 2059 4750 
Q 2388 4750 2728 4690 
Q 3069 4631 3425 4513 
z
" transform="scale(0.015625)"/>
       <path id="DejaVuSans-2d" d="M 313 2009 
L 1997 2009 
L 1997 1497 
L 313 1497 
L 313 2009 
z
" transform="scale(0.015625)"/>
       <path id="DejaVuSans-4d" d="M 628 4666 
L 1569 4666 
L 2759 1491 
L 3956 4666 
L 4897 4666 
L 4897 0 
L 4281 0 
L 4281 4097 
L 3078 897 
L 2444 897 
L 1241 4097 
L 1241 0 
L 628 0 
L 628 4666 
z
" transform="scale(0.015625)"/>
       <path id="DejaVuSans-6d" d="M 3328 2828 
Q 3544 3216 3844 3400 
Q 4144 3584 4550 3584 
Q 5097 3584 5394 3201 
Q 5691 2819 5691 2113 
L 5691 0 
L 5113 0 
L 5113 2094 
Q 5113 2597 4934 2840 
Q 4756 3084 4391 3084 
Q 3944 3084 3684 2787 
Q 3425 2491 3425 1978 
L 3425 0 
L 2847 0 
L 2847 2094 
Q 2847 2600 2669 2842 
Q 2491 3084 2119 3084 
Q 1678 3084 1418 2786 
Q 1159 2488 1159 1978 
L 1159 0 
L 581 0 
L 581 3500 
L 1159 3500 
L 1159 2956 
Q 1356 3278 1631 3431 
Q 1906 3584 2284 3584 
Q 2666 3584 2933 3390 
Q 3200 3197 3328 2828 
z
" transform="scale(0.015625)"/>
       <path id="DejaVuSans-7a" d="M 353 3500 
L 3084 3500 
L 3084 2975 
L 922 459 
L 3084 459 
L 3084 0 
L 275 0 
L 275 525 
L 2438 3041 
L 353 3041 
L 353 3500 
z
" transform="scale(0.015625)"/>
      </defs>
      <use xlink:href="#DejaVuSans-53"/>
      <use xlink:href="#DejaVuSans-74" x="63.476562"/>
      <use xlink:href="#DejaVuSans-6f" x="102.685547"/>
      <use xlink:href="#DejaVuSans-72" x="163.867188"/>
      <use xlink:href="#DejaVuSans-61" x="204.980469"/>
      <use xlink:href="#DejaVuSans-67" x="266.259766"/>
      <use xlink:href="#DejaVuSans-65" x="329.736328"/>
      <use xlink:href="#DejaVuSans-2d" x="391.259766"/>
      <use xlink:href="#DejaVuSans-4d" x="427.34375"/>
      <use xlink:href="#DejaVuSans-69" x="513.623047"/>
      <use xlink:href="#DejaVuSans-6e" x="541.40625"/>
      <use xlink:href="#DejaVuSans-69" x="604.785156"/>
      <use xlink:href="#DejaVuSans-6d" x="632.568359"/>
      <use xlink:href="#DejaVuSans-69" x="729.980469"/>
      <use xlink:href="#DejaVuSans-7a" x="757.763672"/>
      <use xlink:href="#DejaVuSans-65" x="810.253906"/>
      <use xlink:href="#DejaVuSans-72" x="871.777344"/>
     </g>
    </g>
   </g>
  </g>
 </g>
 <defs>
  <clipPath id="p8b6ce5cb8d">
   <rect x="57.6" y="41.472" width="357.12" height="266.112"/>
  </clipPath>
 </defs>
</svg>
