<?xml version="1.0" encoding="utf-8" standalone="no"?>
<!DOCTYPE svg PUBLIC "-//W3C//DTD SVG 1.1//EN"
  "http://www.w3.org/Graphics/SVG/1.1/DTD/svg11.dtd">
<svg xmlns:xlink="http://www.w3.org/1999/xlink" width="460.8pt" height="345.6pt" viewBox="0 0 460.8 345.6" xmlns="http://www.w3.org/2000/svg" version="1.1">
 <metadata>
  <rdf:RDF xmlns:dc="http://purl.org/dc/elements/1.1/" xmlns:cc="http://creativecommons.org/ns#" xmlns:rdf="http://www.w3.org/1999/02/22-rdf-syntax-ns#">
   <cc:Work>
    <dc:type rdf:resource="http://purl.org/dc/dcmitype/StillImage"/>
    <dc:date>2022-06-16T12:02:59.077243</dc:date>
    <dc:format>image/svg+xml</dc:format>
    <dc:creator>
     <cc:Agent>
      <dc:title>Matplotlib v3.5.2, https://matplotlib.org/</dc:title>
     </cc:Agent>
    </dc:creator>
   </cc:Work>
  </rdf:RDF>
 </metadata>
 <defs>
  <style type="text/css">*{stroke-linejoin: round; stroke-linecap: butt}</style>
 </defs>
 <g id="figure_1">
  <g id="patch_1">
   <path d="M 0 345.6 
L 460.8 345.6 
L 460.8 0 
L 0 0 
z
" style="fill: #ffffff"/>
  </g>
  <g id="axes_1">
   <g id="patch_2">
    <path d="M 57.6 307.584 
L 414.72 307.584 
L 414.72 41.472 
L 57.6 41.472 
z
" style="fill: #ffffff"/>
   </g>
   <g id="PolyCollection_1">
    <path d="M 124.72734 295.488 
L 97.896834 295.488 
L 95.779668 294.113673 
L 93.571617 292.739346 
L 91.314726 291.365019 
L 89.054563 289.990692 
L 86.83765 288.616365 
L 84.708807 287.242038 
L 82.708703 285.867711 
L 80.871881 284.493384 
L 79.225463 283.119057 
L 77.788654 281.744731 
L 76.573027 280.370404 
L 75.583485 278.996077 
L 74.819668 277.62175 
L 74.277554 276.247423 
L 73.950961 274.873096 
L 73.832727 273.498769 
L 73.915399 272.124442 
L 74.191387 270.750115 
L 74.652632 269.375788 
L 75.289921 268.001461 
L 76.092061 266.627134 
L 77.045115 265.252807 
L 78.131887 263.87848 
L 79.331806 262.504153 
L 80.62125 261.129826 
L 81.974298 259.755499 
L 83.363821 258.381172 
L 84.76278 257.006846 
L 86.14557 255.632519 
L 87.489265 254.258192 
L 88.774643 252.883865 
L 89.98689 251.509538 
L 91.115959 250.135211 
L 92.15656 248.760884 
L 93.107816 247.386557 
L 93.972637 246.01223 
L 94.756895 244.637903 
L 95.468471 243.263576 
L 96.11628 241.889249 
L 96.709361 240.514922 
L 97.256116 239.140595 
L 97.763753 237.766268 
L 98.237964 236.391941 
L 98.682857 235.017614 
L 99.10108 233.643287 
L 99.494105 232.26896 
L 99.862592 230.894634 
L 100.206759 229.520307 
L 100.526712 228.14598 
L 100.822684 226.771653 
L 101.095189 225.397326 
L 101.345081 224.022999 
L 101.573567 222.648672 
L 101.782185 221.274345 
L 101.972785 219.900018 
L 102.147531 218.525691 
L 102.308916 217.151364 
L 102.459811 215.777037 
L 102.603495 214.40271 
L 102.743681 213.028383 
L 102.884484 211.654056 
L 103.030337 210.279729 
L 103.185824 208.905402 
L 103.355436 207.531075 
L 103.543277 206.156748 
L 103.752717 204.782422 
L 103.986074 203.408095 
L 104.244344 202.033768 
L 104.527049 200.659441 
L 104.832236 199.285114 
L 105.156645 197.910787 
L 105.496026 196.53646 
L 105.845578 195.162133 
L 106.20042 193.787806 
L 106.556032 192.413479 
L 106.908577 191.039152 
L 107.25506 189.664825 
L 107.593305 188.290498 
L 107.921759 186.916171 
L 108.239189 185.541844 
L 108.544351 184.167517 
L 108.835691 182.79319 
L 109.111175 181.418863 
L 109.36827 180.044537 
L 109.604085 178.67021 
L 109.815665 177.295883 
L 110.000364 175.921556 
L 110.156245 174.547229 
L 110.282437 173.172902 
L 110.379388 171.798575 
L 110.448973 170.424248 
L 110.494445 169.049921 
L 110.520224 167.675594 
L 110.531561 166.301267 
L 110.534107 164.92694 
L 110.533446 163.552613 
L 110.534646 162.178286 
L 110.54187 160.803959 
L 110.558104 159.429632 
L 112.066071 159.429632 
L 112.066071 159.429632 
L 112.082305 160.803959 
L 112.089529 162.178286 
L 112.090729 163.552613 
L 112.090068 164.92694 
L 112.092614 166.301267 
L 112.103951 167.675594 
L 112.12973 169.049921 
L 112.175202 170.424248 
L 112.244787 171.798575 
L 112.341737 173.172902 
L 112.467929 174.547229 
L 112.623811 175.921556 
L 112.80851 177.295883 
L 113.02009 178.67021 
L 113.255905 180.044537 
L 113.512999 181.418863 
L 113.788484 182.79319 
L 114.079824 184.167517 
L 114.384986 185.541844 
L 114.702416 186.916171 
L 115.030869 188.290498 
L 115.369114 189.664825 
L 115.715598 191.039152 
L 116.068142 192.413479 
L 116.423754 193.787806 
L 116.778596 195.162133 
L 117.128149 196.53646 
L 117.46753 197.910787 
L 117.791938 199.285114 
L 118.097126 200.659441 
L 118.379831 202.033768 
L 118.6381 203.408095 
L 118.871457 204.782422 
L 119.080898 206.156748 
L 119.268738 207.531075 
L 119.438351 208.905402 
L 119.593837 210.279729 
L 119.73969 211.654056 
L 119.880494 213.028383 
L 120.020679 214.40271 
L 120.164364 215.777037 
L 120.315258 217.151364 
L 120.476644 218.525691 
L 120.651389 219.900018 
L 120.84199 221.274345 
L 121.050608 222.648672 
L 121.279094 224.022999 
L 121.528986 225.397326 
L 121.80149 226.771653 
L 122.097463 228.14598 
L 122.417416 229.520307 
L 122.761583 230.894634 
L 123.130069 232.26896 
L 123.523094 233.643287 
L 123.941317 235.017614 
L 124.38621 236.391941 
L 124.860422 237.766268 
L 125.368058 239.140595 
L 125.914814 240.514922 
L 126.507895 241.889249 
L 127.155704 243.263576 
L 127.867279 244.637903 
L 128.651538 246.01223 
L 129.516359 247.386557 
L 130.467614 248.760884 
L 131.508215 250.135211 
L 132.637285 251.509538 
L 133.849532 252.883865 
L 135.134909 254.258192 
L 136.478605 255.632519 
L 137.861395 257.006846 
L 139.260354 258.381172 
L 140.649877 259.755499 
L 142.002925 261.129826 
L 143.292369 262.504153 
L 144.492288 263.87848 
L 145.57906 265.252807 
L 146.532113 266.627134 
L 147.334254 268.001461 
L 147.971543 269.375788 
L 148.432787 270.750115 
L 148.708776 272.124442 
L 148.791447 273.498769 
L 148.673213 274.873096 
L 148.346621 276.247423 
L 147.804506 277.62175 
L 147.04069 278.996077 
L 146.051148 280.370404 
L 144.835521 281.744731 
L 143.398712 283.119057 
L 141.752294 284.493384 
L 139.915471 285.867711 
L 137.915368 287.242038 
L 135.786525 288.616365 
L 133.569612 289.990692 
L 131.309449 291.365019 
L 129.052557 292.739346 
L 126.844506 294.113673 
L 124.72734 295.488 
z
" clip-path="url(#pc28bda79a9)" style="fill: #1f77b4; fill-opacity: 0.3"/>
   </g>
   <g id="PolyCollection_2">
    <path d="M 197.43939 241.529836 
L 191.759719 241.529836 
L 191.340169 240.03063 
L 190.8786 238.531424 
L 190.37189 237.032218 
L 189.817114 235.533012 
L 189.211848 234.033806 
L 188.55446 232.5346 
L 187.844304 231.035395 
L 187.081795 229.536189 
L 186.268315 228.036983 
L 185.405959 226.537777 
L 184.49714 225.038571 
L 183.544135 223.539365 
L 182.548642 222.040159 
L 181.511475 220.540953 
L 180.432457 219.041747 
L 179.310614 217.542541 
L 178.14466 216.043336 
L 176.933767 214.54413 
L 175.678523 213.044924 
L 174.38194 211.545718 
L 173.050368 210.046512 
L 171.69413 208.547306 
L 170.327739 207.0481 
L 168.969613 205.548894 
L 167.641234 204.049688 
L 166.365823 202.550483 
L 165.166642 201.051277 
L 164.065095 199.552071 
L 163.078861 198.052865 
L 162.220274 196.553659 
L 161.49515 195.054453 
L 160.902213 193.555247 
L 160.433203 192.056041 
L 160.073663 190.556835 
L 159.804325 189.057629 
L 159.602947 187.558424 
L 159.446387 186.059218 
L 159.312688 184.560012 
L 159.18295 183.060806 
L 159.042769 181.5616 
L 158.883123 180.062394 
L 158.700609 178.563188 
L 158.497065 177.063982 
L 158.278652 175.564776 
L 158.054557 174.06557 
L 157.835519 172.566365 
L 157.63238 171.067159 
L 157.454856 169.567953 
L 157.310677 168.068747 
L 157.205173 166.569541 
L 157.14132 165.070335 
L 157.120194 163.571129 
L 157.141711 162.071923 
L 157.205508 160.572717 
L 157.311808 159.073512 
L 157.462111 157.574306 
L 157.659592 156.0751 
L 157.909143 154.575894 
L 158.217032 153.076688 
L 158.590218 151.577482 
L 159.035406 150.078276 
L 159.557971 148.57907 
L 160.160888 147.079864 
L 160.843818 145.580658 
L 161.602499 144.081453 
L 162.428527 142.582247 
L 163.309619 141.083041 
L 164.23033 139.583835 
L 165.173214 138.084629 
L 166.120283 136.585423 
L 167.054629 135.086217 
L 167.96201 133.587011 
L 168.832207 132.087805 
L 169.659965 130.588599 
L 170.445401 129.089394 
L 171.193793 127.590188 
L 171.914795 126.090982 
L 172.621162 124.591776 
L 173.327151 123.09257 
L 174.046834 121.593364 
L 174.792524 120.094158 
L 175.573518 118.594952 
L 176.395296 117.095746 
L 177.25924 115.596541 
L 178.162844 114.097335 
L 179.100331 112.598129 
L 180.063531 111.098923 
L 181.042851 109.599717 
L 182.028199 108.100511 
L 183.009734 106.601305 
L 183.978382 105.102099 
L 184.926108 103.602893 
L 185.84597 102.103687 
L 186.732036 100.604482 
L 187.579221 99.105276 
L 188.383127 97.60607 
L 189.139932 96.106864 
L 189.846355 94.607658 
L 190.499696 93.108452 
L 198.699412 93.108452 
L 198.699412 93.108452 
L 199.352753 94.607658 
L 200.059176 96.106864 
L 200.815981 97.60607 
L 201.619887 99.105276 
L 202.467072 100.604482 
L 203.353138 102.103687 
L 204.273 103.602893 
L 205.220726 105.102099 
L 206.189374 106.601305 
L 207.170909 108.100511 
L 208.156257 109.599717 
L 209.135577 111.098923 
L 210.098777 112.598129 
L 211.036264 114.097335 
L 211.939868 115.596541 
L 212.803812 117.095746 
L 213.62559 118.594952 
L 214.406584 120.094158 
L 215.152274 121.593364 
L 215.871957 123.09257 
L 216.577946 124.591776 
L 217.284313 126.090982 
L 218.005316 127.590188 
L 218.753708 129.089394 
L 219.539143 130.588599 
L 220.366901 132.087805 
L 221.237098 133.587011 
L 222.144479 135.086217 
L 223.078825 136.585423 
L 224.025894 138.084629 
L 224.968778 139.583835 
L 225.88949 141.083041 
L 226.770581 142.582247 
L 227.59661 144.081453 
L 228.35529 145.580658 
L 229.03822 147.079864 
L 229.641137 148.57907 
L 230.163702 150.078276 
L 230.60889 151.577482 
L 230.982076 153.076688 
L 231.289965 154.575894 
L 231.539517 156.0751 
L 231.736997 157.574306 
L 231.8873 159.073512 
L 231.993601 160.572717 
L 232.057398 162.071923 
L 232.078914 163.571129 
L 232.057788 165.070335 
L 231.993935 166.569541 
L 231.888431 168.068747 
L 231.744253 169.567953 
L 231.566729 171.067159 
L 231.363589 172.566365 
L 231.144551 174.06557 
L 230.920456 175.564776 
L 230.702043 177.063982 
L 230.498499 178.563188 
L 230.315985 180.062394 
L 230.156339 181.5616 
L 230.016158 183.060806 
L 229.88642 184.560012 
L 229.752721 186.059218 
L 229.596161 187.558424 
L 229.394783 189.057629 
L 229.125446 190.556835 
L 228.765905 192.056041 
L 228.296895 193.555247 
L 227.703958 195.054453 
L 226.978834 196.553659 
L 226.120247 198.052865 
L 225.134014 199.552071 
L 224.032466 201.051277 
L 222.833285 202.550483 
L 221.557875 204.049688 
L 220.229495 205.548894 
L 218.871369 207.0481 
L 217.504978 208.547306 
L 216.14874 210.046512 
L 214.817168 211.545718 
L 213.520585 213.044924 
L 212.265341 214.54413 
L 211.054448 216.043336 
L 209.888494 217.542541 
L 208.766651 219.041747 
L 207.687633 220.540953 
L 206.650466 222.040159 
L 205.654974 223.539365 
L 204.701968 225.038571 
L 203.79315 226.537777 
L 202.930793 228.036983 
L 202.117314 229.536189 
L 201.354804 231.035395 
L 200.644648 232.5346 
L 199.98726 234.033806 
L 199.381995 235.533012 
L 198.827218 237.032218 
L 198.320508 238.531424 
L 197.85894 240.03063 
L 197.43939 241.529836 
z
" clip-path="url(#pc28bda79a9)" style="fill: #1f77b4; fill-opacity: 0.3"/>
   </g>
   <g id="PolyCollection_3">
    <path d="M 279.505899 215.431013 
L 276.268143 215.431013 
L 275.99531 213.796033 
L 275.690632 212.161053 
L 275.351381 210.526073 
L 274.974332 208.891093 
L 274.555551 207.256113 
L 274.090136 205.621134 
L 273.571997 203.986154 
L 272.993729 202.351174 
L 272.346676 200.716194 
L 271.621256 199.081214 
L 270.807596 197.446234 
L 269.896479 195.811254 
L 268.88055 194.176274 
L 267.755657 192.541294 
L 266.522181 190.906314 
L 265.186144 189.271334 
L 263.759918 187.636354 
L 262.26235 186.001374 
L 260.718206 184.366394 
L 259.156903 182.731415 
L 257.61058 181.096435 
L 256.111701 179.461455 
L 254.690417 177.826475 
L 253.372016 176.191495 
L 252.174775 174.556515 
L 251.108519 172.921535 
L 250.174095 171.286555 
L 249.36384 169.651575 
L 248.662996 168.016595 
L 248.051841 166.381615 
L 247.508248 164.746635 
L 247.010255 163.111655 
L 246.53831 161.476675 
L 246.076877 159.841695 
L 245.615258 158.206716 
L 245.147626 156.571736 
L 244.672419 154.936756 
L 244.191356 153.301776 
L 243.708368 151.666796 
L 243.228731 150.031816 
L 242.758555 148.396836 
L 242.304698 146.761856 
L 241.875 145.126876 
L 241.47864 143.491896 
L 241.12637 141.856916 
L 240.830402 140.221936 
L 240.603777 138.586956 
L 240.459235 136.951976 
L 240.407661 135.316997 
L 240.456384 133.682017 
L 240.607608 132.047037 
L 240.857302 130.412057 
L 241.194808 128.777077 
L 241.603313 127.142097 
L 242.061205 125.507117 
L 242.544176 123.872137 
L 243.027852 122.237157 
L 243.490601 120.602177 
L 243.916188 118.967197 
L 244.295932 117.332217 
L 244.630097 115.697237 
L 244.928339 114.062257 
L 245.20915 112.427277 
L 245.498341 110.792298 
L 245.826738 109.157318 
L 246.22732 107.522338 
L 246.732109 105.887358 
L 247.369114 104.252378 
L 248.159643 102.617398 
L 249.116219 100.982418 
L 250.2413 99.347438 
L 251.526886 97.712458 
L 252.955028 96.077478 
L 254.499166 94.442498 
L 256.126133 92.807518 
L 257.798628 91.172538 
L 259.47792 89.537558 
L 261.126514 87.902579 
L 262.71056 86.267599 
L 264.201804 84.632619 
L 265.578932 82.997639 
L 266.828244 81.362659 
L 267.943668 79.727679 
L 268.926171 78.092699 
L 269.782703 76.457719 
L 270.524832 74.822739 
L 271.167223 73.187759 
L 271.726139 71.552779 
L 272.218067 69.917799 
L 272.658577 68.282819 
L 273.061451 66.647839 
L 273.438106 65.01286 
L 273.797296 63.37788 
L 274.145059 61.7429 
L 274.484867 60.10792 
L 274.817939 58.47294 
L 275.143656 56.83796 
L 275.460038 55.20298 
L 275.764247 53.568 
L 280.009795 53.568 
L 280.009795 53.568 
L 280.314003 55.20298 
L 280.630386 56.83796 
L 280.956103 58.47294 
L 281.289175 60.10792 
L 281.628983 61.7429 
L 281.976746 63.37788 
L 282.335936 65.01286 
L 282.712591 66.647839 
L 283.115465 68.282819 
L 283.555974 69.917799 
L 284.047903 71.552779 
L 284.606819 73.187759 
L 285.24921 74.822739 
L 285.991338 76.457719 
L 286.847871 78.092699 
L 287.830374 79.727679 
L 288.945798 81.362659 
L 290.19511 82.997639 
L 291.572237 84.632619 
L 293.063481 86.267599 
L 294.647528 87.902579 
L 296.296121 89.537558 
L 297.975414 91.172538 
L 299.647909 92.807518 
L 301.274875 94.442498 
L 302.819013 96.077478 
L 304.247156 97.712458 
L 305.532741 99.347438 
L 306.657823 100.982418 
L 307.614399 102.617398 
L 308.404927 104.252378 
L 309.041933 105.887358 
L 309.546722 107.522338 
L 309.947304 109.157318 
L 310.2757 110.792298 
L 310.564892 112.427277 
L 310.845703 114.062257 
L 311.143945 115.697237 
L 311.47811 117.332217 
L 311.857854 118.967197 
L 312.283441 120.602177 
L 312.74619 122.237157 
L 313.229866 123.872137 
L 313.712837 125.507117 
L 314.170728 127.142097 
L 314.579234 128.777077 
L 314.91674 130.412057 
L 315.166434 132.047037 
L 315.317658 133.682017 
L 315.366381 135.316997 
L 315.314807 136.951976 
L 315.170264 138.586956 
L 314.94364 140.221936 
L 314.647671 141.856916 
L 314.295402 143.491896 
L 313.899042 145.126876 
L 313.469343 146.761856 
L 313.015486 148.396836 
L 312.54531 150.031816 
L 312.065673 151.666796 
L 311.582686 153.301776 
L 311.101622 154.936756 
L 310.626415 156.571736 
L 310.158783 158.206716 
L 309.697165 159.841695 
L 309.235732 161.476675 
L 308.763787 163.111655 
L 308.265794 164.746635 
L 307.7222 166.381615 
L 307.111046 168.016595 
L 306.410201 169.651575 
L 305.599947 171.286555 
L 304.665523 172.921535 
L 303.599267 174.556515 
L 302.402026 176.191495 
L 301.083625 177.826475 
L 299.662341 179.461455 
L 298.163462 181.096435 
L 296.617139 182.731415 
L 295.055835 184.366394 
L 293.511692 186.001374 
L 292.014124 187.636354 
L 290.587897 189.271334 
L 289.251861 190.906314 
L 288.018384 192.541294 
L 286.893492 194.176274 
L 285.877562 195.811254 
L 284.966446 197.446234 
L 284.152786 199.081214 
L 283.427366 200.716194 
L 282.780313 202.351174 
L 282.202045 203.986154 
L 281.683905 205.621134 
L 281.21849 207.256113 
L 280.799709 208.891093 
L 280.422661 210.526073 
L 280.083409 212.161053 
L 279.778732 213.796033 
L 279.505899 215.431013 
z
" clip-path="url(#pc28bda79a9)" style="fill: #1f77b4; fill-opacity: 0.3"/>
   </g>
   <g id="PolyCollection_4">
    <path d="M 365.659143 232.228449 
L 356.356682 232.228449 
L 355.652693 230.439172 
L 354.891031 228.649895 
L 354.07497 226.860619 
L 353.209371 225.071342 
L 352.300663 223.282065 
L 351.356671 221.492789 
L 350.386265 219.703512 
L 349.398854 217.914235 
L 348.403763 216.124959 
L 347.409551 214.335682 
L 346.423381 212.546405 
L 345.450533 210.757129 
L 344.49415 208.967852 
L 343.555267 207.178575 
L 342.633163 205.389299 
L 341.725965 203.600022 
L 340.831444 201.810745 
L 339.947877 200.021469 
L 339.074821 198.232192 
L 338.213691 196.442916 
L 337.368027 194.653639 
L 336.543421 192.864362 
L 335.747089 191.075086 
L 334.987186 189.285809 
L 334.271943 187.496532 
L 333.608784 185.707256 
L 333.003528 183.917979 
L 332.459808 182.128702 
L 331.978751 180.339426 
L 331.558957 178.550149 
L 331.196736 176.760872 
L 330.886543 174.971596 
L 330.621528 173.182319 
L 330.39409 171.393042 
L 330.196372 169.603766 
L 330.020632 167.814489 
L 329.859458 166.025212 
L 329.705845 164.235936 
L 329.553166 162.446659 
L 329.395089 160.657382 
L 329.225516 158.868106 
L 329.038574 157.078829 
L 328.828731 155.289552 
L 328.591015 153.500276 
L 328.321359 151.710999 
L 328.017017 149.921722 
L 327.677001 148.132446 
L 327.302493 146.343169 
L 326.897158 144.553892 
L 326.46731 142.764616 
L 326.021908 140.975339 
L 325.572346 139.186062 
L 325.132058 137.396786 
L 324.715952 135.607509 
L 324.3397 133.818232 
L 324.018946 132.028956 
L 323.768477 130.239679 
L 323.601425 128.450402 
L 323.528553 126.661126 
L 323.557694 124.871849 
L 323.693398 123.082572 
L 323.936821 121.293296 
L 324.285873 119.504019 
L 324.735644 117.714742 
L 325.279052 115.925466 
L 325.907662 114.136189 
L 326.612593 112.346913 
L 327.385407 110.557636 
L 328.218876 108.768359 
L 329.107515 106.979083 
L 330.047843 105.189806 
L 331.038297 103.400529 
L 332.078843 101.611253 
L 333.170313 99.821976 
L 334.313577 98.032699 
L 335.508652 96.243423 
L 336.753877 94.454146 
L 338.045263 92.664869 
L 339.376113 90.875593 
L 340.73695 89.086316 
L 342.115772 87.297039 
L 343.498594 85.507763 
L 344.870208 83.718486 
L 346.215075 81.929209 
L 347.518246 80.139933 
L 348.766213 78.350656 
L 349.947616 76.561379 
L 351.053747 74.772103 
L 352.078818 72.982826 
L 353.020003 71.193549 
L 353.877259 69.404273 
L 354.652981 67.614996 
L 355.351537 65.825719 
L 355.978723 64.036443 
L 356.541212 62.247166 
L 357.046026 60.457889 
L 357.50007 58.668613 
L 357.909755 56.879336 
L 358.280735 55.090059 
L 363.73509 55.090059 
L 363.73509 55.090059 
L 364.106071 56.879336 
L 364.515756 58.668613 
L 364.969799 60.457889 
L 365.474613 62.247166 
L 366.037103 64.036443 
L 366.664289 65.825719 
L 367.362844 67.614996 
L 368.138567 69.404273 
L 368.995822 71.193549 
L 369.937007 72.982826 
L 370.962079 74.772103 
L 372.06821 76.561379 
L 373.249613 78.350656 
L 374.49758 80.139933 
L 375.80075 81.929209 
L 377.145617 83.718486 
L 378.517231 85.507763 
L 379.900053 87.297039 
L 381.278875 89.086316 
L 382.639712 90.875593 
L 383.970562 92.664869 
L 385.261948 94.454146 
L 386.507173 96.243423 
L 387.702249 98.032699 
L 388.845513 99.821976 
L 389.936983 101.611253 
L 390.977528 103.400529 
L 391.967982 105.189806 
L 392.90831 106.979083 
L 393.79695 108.768359 
L 394.630418 110.557636 
L 395.403233 112.346913 
L 396.108164 114.136189 
L 396.736773 115.925466 
L 397.280181 117.714742 
L 397.729953 119.504019 
L 398.079005 121.293296 
L 398.322427 123.082572 
L 398.458132 124.871849 
L 398.487273 126.661126 
L 398.4144 128.450402 
L 398.247348 130.239679 
L 397.99688 132.028956 
L 397.676126 133.818232 
L 397.299873 135.607509 
L 396.883767 137.396786 
L 396.44348 139.186062 
L 395.993917 140.975339 
L 395.548515 142.764616 
L 395.118668 144.553892 
L 394.713332 146.343169 
L 394.338825 148.132446 
L 393.998809 149.921722 
L 393.694466 151.710999 
L 393.42481 153.500276 
L 393.187094 155.289552 
L 392.977251 157.078829 
L 392.79031 158.868106 
L 392.620736 160.657382 
L 392.46266 162.446659 
L 392.30998 164.235936 
L 392.156367 166.025212 
L 391.995193 167.814489 
L 391.819454 169.603766 
L 391.621736 171.393042 
L 391.394297 173.182319 
L 391.129282 174.971596 
L 390.81909 176.760872 
L 390.456868 178.550149 
L 390.037074 180.339426 
L 389.556017 182.128702 
L 389.012297 183.917979 
L 388.407041 185.707256 
L 387.743882 187.496532 
L 387.02864 189.285809 
L 386.268737 191.075086 
L 385.472405 192.864362 
L 384.647798 194.653639 
L 383.802135 196.442916 
L 382.941004 198.232192 
L 382.067948 200.021469 
L 381.184381 201.810745 
L 380.289861 203.600022 
L 379.382662 205.389299 
L 378.460558 207.178575 
L 377.521676 208.967852 
L 376.565292 210.757129 
L 375.592445 212.546405 
L 374.606275 214.335682 
L 373.612062 216.124959 
L 372.616971 217.914235 
L 371.629561 219.703512 
L 370.659154 221.492789 
L 369.715162 223.282065 
L 368.806454 225.071342 
L 367.940855 226.860619 
L 367.124794 228.649895 
L 366.363133 230.439172 
L 365.659143 232.228449 
z
" clip-path="url(#pc28bda79a9)" style="fill: #1f77b4; fill-opacity: 0.3"/>
   </g>
   <g id="matplotlib.axis_1">
    <g id="xtick_1">
     <g id="line2d_1">
      <defs>
       <path id="m4978ca9f58" d="M 0 0 
L 0 3.5 
" style="stroke: #000000; stroke-width: 0.8"/>
      </defs>
      <g>
       <use xlink:href="#m4978ca9f58" x="69.668354" y="307.584" style="stroke: #000000; stroke-width: 0.8"/>
      </g>
     </g>
     <g id="text_1">
      <!-- 250 -->
      <g transform="translate(60.124604 322.182437)scale(0.1 -0.1)">
       <defs>
        <path id="DejaVuSans-32" d="M 1228 531 
L 3431 531 
L 3431 0 
L 469 0 
L 469 531 
Q 828 903 1448 1529 
Q 2069 2156 2228 2338 
Q 2531 2678 2651 2914 
Q 2772 3150 2772 3378 
Q 2772 3750 2511 3984 
Q 2250 4219 1831 4219 
Q 1534 4219 1204 4116 
Q 875 4013 500 3803 
L 500 4441 
Q 881 4594 1212 4672 
Q 1544 4750 1819 4750 
Q 2544 4750 2975 4387 
Q 3406 4025 3406 3419 
Q 3406 3131 3298 2873 
Q 3191 2616 2906 2266 
Q 2828 2175 2409 1742 
Q 1991 1309 1228 531 
z
" transform="scale(0.015625)"/>
        <path id="DejaVuSans-35" d="M 691 4666 
L 3169 4666 
L 3169 4134 
L 1269 4134 
L 1269 2991 
Q 1406 3038 1543 3061 
Q 1681 3084 1819 3084 
Q 2600 3084 3056 2656 
Q 3513 2228 3513 1497 
Q 3513 744 3044 326 
Q 2575 -91 1722 -91 
Q 1428 -91 1123 -41 
Q 819 9 494 109 
L 494 744 
Q 775 591 1075 516 
Q 1375 441 1709 441 
Q 2250 441 2565 725 
Q 2881 1009 2881 1497 
Q 2881 1984 2565 2268 
Q 2250 2553 1709 2553 
Q 1456 2553 1204 2497 
Q 953 2441 691 2322 
L 691 4666 
z
" transform="scale(0.015625)"/>
        <path id="DejaVuSans-30" d="M 2034 4250 
Q 1547 4250 1301 3770 
Q 1056 3291 1056 2328 
Q 1056 1369 1301 889 
Q 1547 409 2034 409 
Q 2525 409 2770 889 
Q 3016 1369 3016 2328 
Q 3016 3291 2770 3770 
Q 2525 4250 2034 4250 
z
M 2034 4750 
Q 2819 4750 3233 4129 
Q 3647 3509 3647 2328 
Q 3647 1150 3233 529 
Q 2819 -91 2034 -91 
Q 1250 -91 836 529 
Q 422 1150 422 2328 
Q 422 3509 836 4129 
Q 1250 4750 2034 4750 
z
" transform="scale(0.015625)"/>
       </defs>
       <use xlink:href="#DejaVuSans-32"/>
       <use xlink:href="#DejaVuSans-35" x="63.623047"/>
       <use xlink:href="#DejaVuSans-30" x="127.246094"/>
      </g>
     </g>
    </g>
    <g id="xtick_2">
     <g id="line2d_2">
      <g>
       <use xlink:href="#m4978ca9f58" x="111.312087" y="307.584" style="stroke: #000000; stroke-width: 0.8"/>
      </g>
     </g>
     <g id="text_2">
      <!-- 500 -->
      <g transform="translate(101.768337 322.182437)scale(0.1 -0.1)">
       <use xlink:href="#DejaVuSans-35"/>
       <use xlink:href="#DejaVuSans-30" x="63.623047"/>
       <use xlink:href="#DejaVuSans-30" x="127.246094"/>
      </g>
     </g>
    </g>
    <g id="xtick_3">
     <g id="line2d_3">
      <g>
       <use xlink:href="#m4978ca9f58" x="152.955821" y="307.584" style="stroke: #000000; stroke-width: 0.8"/>
      </g>
     </g>
     <g id="text_3">
      <!-- 750 -->
      <g transform="translate(143.412071 322.182437)scale(0.1 -0.1)">
       <defs>
        <path id="DejaVuSans-37" d="M 525 4666 
L 3525 4666 
L 3525 4397 
L 1831 0 
L 1172 0 
L 2766 4134 
L 525 4134 
L 525 4666 
z
" transform="scale(0.015625)"/>
       </defs>
       <use xlink:href="#DejaVuSans-37"/>
       <use xlink:href="#DejaVuSans-35" x="63.623047"/>
       <use xlink:href="#DejaVuSans-30" x="127.246094"/>
      </g>
     </g>
    </g>
    <g id="xtick_4">
     <g id="line2d_4">
      <g>
       <use xlink:href="#m4978ca9f58" x="194.599554" y="307.584" style="stroke: #000000; stroke-width: 0.8"/>
      </g>
     </g>
     <g id="text_4">
      <!-- 1000 -->
      <g transform="translate(181.874554 322.182437)scale(0.1 -0.1)">
       <defs>
        <path id="DejaVuSans-31" d="M 794 531 
L 1825 531 
L 1825 4091 
L 703 3866 
L 703 4441 
L 1819 4666 
L 2450 4666 
L 2450 531 
L 3481 531 
L 3481 0 
L 794 0 
L 794 531 
z
" transform="scale(0.015625)"/>
       </defs>
       <use xlink:href="#DejaVuSans-31"/>
       <use xlink:href="#DejaVuSans-30" x="63.623047"/>
       <use xlink:href="#DejaVuSans-30" x="127.246094"/>
       <use xlink:href="#DejaVuSans-30" x="190.869141"/>
      </g>
     </g>
    </g>
    <g id="xtick_5">
     <g id="line2d_5">
      <g>
       <use xlink:href="#m4978ca9f58" x="236.243287" y="307.584" style="stroke: #000000; stroke-width: 0.8"/>
      </g>
     </g>
     <g id="text_5">
      <!-- 1250 -->
      <g transform="translate(223.518287 322.182437)scale(0.1 -0.1)">
       <use xlink:href="#DejaVuSans-31"/>
       <use xlink:href="#DejaVuSans-32" x="63.623047"/>
       <use xlink:href="#DejaVuSans-35" x="127.246094"/>
       <use xlink:href="#DejaVuSans-30" x="190.869141"/>
      </g>
     </g>
    </g>
    <g id="xtick_6">
     <g id="line2d_6">
      <g>
       <use xlink:href="#m4978ca9f58" x="277.887021" y="307.584" style="stroke: #000000; stroke-width: 0.8"/>
      </g>
     </g>
     <g id="text_6">
      <!-- 1500 -->
      <g transform="translate(265.162021 322.182437)scale(0.1 -0.1)">
       <use xlink:href="#DejaVuSans-31"/>
       <use xlink:href="#DejaVuSans-35" x="63.623047"/>
       <use xlink:href="#DejaVuSans-30" x="127.246094"/>
       <use xlink:href="#DejaVuSans-30" x="190.869141"/>
      </g>
     </g>
    </g>
    <g id="xtick_7">
     <g id="line2d_7">
      <g>
       <use xlink:href="#m4978ca9f58" x="319.530754" y="307.584" style="stroke: #000000; stroke-width: 0.8"/>
      </g>
     </g>
     <g id="text_7">
      <!-- 1750 -->
      <g transform="translate(306.805754 322.182437)scale(0.1 -0.1)">
       <use xlink:href="#DejaVuSans-31"/>
       <use xlink:href="#DejaVuSans-37" x="63.623047"/>
       <use xlink:href="#DejaVuSans-35" x="127.246094"/>
       <use xlink:href="#DejaVuSans-30" x="190.869141"/>
      </g>
     </g>
    </g>
    <g id="xtick_8">
     <g id="line2d_8">
      <g>
       <use xlink:href="#m4978ca9f58" x="361.174488" y="307.584" style="stroke: #000000; stroke-width: 0.8"/>
      </g>
     </g>
     <g id="text_8">
      <!-- 2000 -->
      <g transform="translate(348.449488 322.182437)scale(0.1 -0.1)">
       <use xlink:href="#DejaVuSans-32"/>
       <use xlink:href="#DejaVuSans-30" x="63.623047"/>
       <use xlink:href="#DejaVuSans-30" x="127.246094"/>
       <use xlink:href="#DejaVuSans-30" x="190.869141"/>
      </g>
     </g>
    </g>
    <g id="xtick_9">
     <g id="line2d_9">
      <g>
       <use xlink:href="#m4978ca9f58" x="402.818221" y="307.584" style="stroke: #000000; stroke-width: 0.8"/>
      </g>
     </g>
     <g id="text_9">
      <!-- 2250 -->
      <g transform="translate(390.093221 322.182437)scale(0.1 -0.1)">
       <use xlink:href="#DejaVuSans-32"/>
       <use xlink:href="#DejaVuSans-32" x="63.623047"/>
       <use xlink:href="#DejaVuSans-35" x="127.246094"/>
       <use xlink:href="#DejaVuSans-30" x="190.869141"/>
      </g>
     </g>
    </g>
    <g id="text_10">
     <!-- Learned Episodes -->
     <g transform="translate(192.102187 335.860562)scale(0.1 -0.1)">
      <defs>
       <path id="DejaVuSans-4c" d="M 628 4666 
L 1259 4666 
L 1259 531 
L 3531 531 
L 3531 0 
L 628 0 
L 628 4666 
z
" transform="scale(0.015625)"/>
       <path id="DejaVuSans-65" d="M 3597 1894 
L 3597 1613 
L 953 1613 
Q 991 1019 1311 708 
Q 1631 397 2203 397 
Q 2534 397 2845 478 
Q 3156 559 3463 722 
L 3463 178 
Q 3153 47 2828 -22 
Q 2503 -91 2169 -91 
Q 1331 -91 842 396 
Q 353 884 353 1716 
Q 353 2575 817 3079 
Q 1281 3584 2069 3584 
Q 2775 3584 3186 3129 
Q 3597 2675 3597 1894 
z
M 3022 2063 
Q 3016 2534 2758 2815 
Q 2500 3097 2075 3097 
Q 1594 3097 1305 2825 
Q 1016 2553 972 2059 
L 3022 2063 
z
" transform="scale(0.015625)"/>
       <path id="DejaVuSans-61" d="M 2194 1759 
Q 1497 1759 1228 1600 
Q 959 1441 959 1056 
Q 959 750 1161 570 
Q 1363 391 1709 391 
Q 2188 391 2477 730 
Q 2766 1069 2766 1631 
L 2766 1759 
L 2194 1759 
z
M 3341 1997 
L 3341 0 
L 2766 0 
L 2766 531 
Q 2569 213 2275 61 
Q 1981 -91 1556 -91 
Q 1019 -91 701 211 
Q 384 513 384 1019 
Q 384 1609 779 1909 
Q 1175 2209 1959 2209 
L 2766 2209 
L 2766 2266 
Q 2766 2663 2505 2880 
Q 2244 3097 1772 3097 
Q 1472 3097 1187 3025 
Q 903 2953 641 2809 
L 641 3341 
Q 956 3463 1253 3523 
Q 1550 3584 1831 3584 
Q 2591 3584 2966 3190 
Q 3341 2797 3341 1997 
z
" transform="scale(0.015625)"/>
       <path id="DejaVuSans-72" d="M 2631 2963 
Q 2534 3019 2420 3045 
Q 2306 3072 2169 3072 
Q 1681 3072 1420 2755 
Q 1159 2438 1159 1844 
L 1159 0 
L 581 0 
L 581 3500 
L 1159 3500 
L 1159 2956 
Q 1341 3275 1631 3429 
Q 1922 3584 2338 3584 
Q 2397 3584 2469 3576 
Q 2541 3569 2628 3553 
L 2631 2963 
z
" transform="scale(0.015625)"/>
       <path id="DejaVuSans-6e" d="M 3513 2113 
L 3513 0 
L 2938 0 
L 2938 2094 
Q 2938 2591 2744 2837 
Q 2550 3084 2163 3084 
Q 1697 3084 1428 2787 
Q 1159 2491 1159 1978 
L 1159 0 
L 581 0 
L 581 3500 
L 1159 3500 
L 1159 2956 
Q 1366 3272 1645 3428 
Q 1925 3584 2291 3584 
Q 2894 3584 3203 3211 
Q 3513 2838 3513 2113 
z
" transform="scale(0.015625)"/>
       <path id="DejaVuSans-64" d="M 2906 2969 
L 2906 4863 
L 3481 4863 
L 3481 0 
L 2906 0 
L 2906 525 
Q 2725 213 2448 61 
Q 2172 -91 1784 -91 
Q 1150 -91 751 415 
Q 353 922 353 1747 
Q 353 2572 751 3078 
Q 1150 3584 1784 3584 
Q 2172 3584 2448 3432 
Q 2725 3281 2906 2969 
z
M 947 1747 
Q 947 1113 1208 752 
Q 1469 391 1925 391 
Q 2381 391 2643 752 
Q 2906 1113 2906 1747 
Q 2906 2381 2643 2742 
Q 2381 3103 1925 3103 
Q 1469 3103 1208 2742 
Q 947 2381 947 1747 
z
" transform="scale(0.015625)"/>
       <path id="DejaVuSans-20" transform="scale(0.015625)"/>
       <path id="DejaVuSans-45" d="M 628 4666 
L 3578 4666 
L 3578 4134 
L 1259 4134 
L 1259 2753 
L 3481 2753 
L 3481 2222 
L 1259 2222 
L 1259 531 
L 3634 531 
L 3634 0 
L 628 0 
L 628 4666 
z
" transform="scale(0.015625)"/>
       <path id="DejaVuSans-70" d="M 1159 525 
L 1159 -1331 
L 581 -1331 
L 581 3500 
L 1159 3500 
L 1159 2969 
Q 1341 3281 1617 3432 
Q 1894 3584 2278 3584 
Q 2916 3584 3314 3078 
Q 3713 2572 3713 1747 
Q 3713 922 3314 415 
Q 2916 -91 2278 -91 
Q 1894 -91 1617 61 
Q 1341 213 1159 525 
z
M 3116 1747 
Q 3116 2381 2855 2742 
Q 2594 3103 2138 3103 
Q 1681 3103 1420 2742 
Q 1159 2381 1159 1747 
Q 1159 1113 1420 752 
Q 1681 391 2138 391 
Q 2594 391 2855 752 
Q 3116 1113 3116 1747 
z
" transform="scale(0.015625)"/>
       <path id="DejaVuSans-69" d="M 603 3500 
L 1178 3500 
L 1178 0 
L 603 0 
L 603 3500 
z
M 603 4863 
L 1178 4863 
L 1178 4134 
L 603 4134 
L 603 4863 
z
" transform="scale(0.015625)"/>
       <path id="DejaVuSans-73" d="M 2834 3397 
L 2834 2853 
Q 2591 2978 2328 3040 
Q 2066 3103 1784 3103 
Q 1356 3103 1142 2972 
Q 928 2841 928 2578 
Q 928 2378 1081 2264 
Q 1234 2150 1697 2047 
L 1894 2003 
Q 2506 1872 2764 1633 
Q 3022 1394 3022 966 
Q 3022 478 2636 193 
Q 2250 -91 1575 -91 
Q 1294 -91 989 -36 
Q 684 19 347 128 
L 347 722 
Q 666 556 975 473 
Q 1284 391 1588 391 
Q 1994 391 2212 530 
Q 2431 669 2431 922 
Q 2431 1156 2273 1281 
Q 2116 1406 1581 1522 
L 1381 1569 
Q 847 1681 609 1914 
Q 372 2147 372 2553 
Q 372 3047 722 3315 
Q 1072 3584 1716 3584 
Q 2034 3584 2315 3537 
Q 2597 3491 2834 3397 
z
" transform="scale(0.015625)"/>
       <path id="DejaVuSans-6f" d="M 1959 3097 
Q 1497 3097 1228 2736 
Q 959 2375 959 1747 
Q 959 1119 1226 758 
Q 1494 397 1959 397 
Q 2419 397 2687 759 
Q 2956 1122 2956 1747 
Q 2956 2369 2687 2733 
Q 2419 3097 1959 3097 
z
M 1959 3584 
Q 2709 3584 3137 3096 
Q 3566 2609 3566 1747 
Q 3566 888 3137 398 
Q 2709 -91 1959 -91 
Q 1206 -91 779 398 
Q 353 888 353 1747 
Q 353 2609 779 3096 
Q 1206 3584 1959 3584 
z
" transform="scale(0.015625)"/>
      </defs>
      <use xlink:href="#DejaVuSans-4c"/>
      <use xlink:href="#DejaVuSans-65" x="53.962891"/>
      <use xlink:href="#DejaVuSans-61" x="115.486328"/>
      <use xlink:href="#DejaVuSans-72" x="176.765625"/>
      <use xlink:href="#DejaVuSans-6e" x="216.128906"/>
      <use xlink:href="#DejaVuSans-65" x="279.507812"/>
      <use xlink:href="#DejaVuSans-64" x="341.03125"/>
      <use xlink:href="#DejaVuSans-20" x="404.507812"/>
      <use xlink:href="#DejaVuSans-45" x="436.294922"/>
      <use xlink:href="#DejaVuSans-70" x="499.478516"/>
      <use xlink:href="#DejaVuSans-69" x="562.955078"/>
      <use xlink:href="#DejaVuSans-73" x="590.738281"/>
      <use xlink:href="#DejaVuSans-6f" x="642.837891"/>
      <use xlink:href="#DejaVuSans-64" x="704.019531"/>
      <use xlink:href="#DejaVuSans-65" x="767.496094"/>
      <use xlink:href="#DejaVuSans-73" x="829.019531"/>
     </g>
    </g>
   </g>
   <g id="matplotlib.axis_2">
    <g id="ytick_1">
     <g id="line2d_10">
      <defs>
       <path id="m1c3160279f" d="M 0 0 
L -3.5 0 
" style="stroke: #000000; stroke-width: 0.8"/>
      </defs>
      <g>
       <use xlink:href="#m1c3160279f" x="57.6" y="295.488" style="stroke: #000000; stroke-width: 0.8"/>
      </g>
     </g>
     <g id="text_11">
      <!-- 0 -->
      <g transform="translate(44.2375 299.287219)scale(0.1 -0.1)">
       <use xlink:href="#DejaVuSans-30"/>
      </g>
     </g>
    </g>
    <g id="ytick_2">
     <g id="line2d_11">
      <g>
       <use xlink:href="#m1c3160279f" x="57.6" y="249.311515" style="stroke: #000000; stroke-width: 0.8"/>
      </g>
     </g>
     <g id="text_12">
      <!-- 100 -->
      <g transform="translate(31.5125 253.110734)scale(0.1 -0.1)">
       <use xlink:href="#DejaVuSans-31"/>
       <use xlink:href="#DejaVuSans-30" x="63.623047"/>
       <use xlink:href="#DejaVuSans-30" x="127.246094"/>
      </g>
     </g>
    </g>
    <g id="ytick_3">
     <g id="line2d_12">
      <g>
       <use xlink:href="#m1c3160279f" x="57.6" y="203.13503" style="stroke: #000000; stroke-width: 0.8"/>
      </g>
     </g>
     <g id="text_13">
      <!-- 200 -->
      <g transform="translate(31.5125 206.934249)scale(0.1 -0.1)">
       <use xlink:href="#DejaVuSans-32"/>
       <use xlink:href="#DejaVuSans-30" x="63.623047"/>
       <use xlink:href="#DejaVuSans-30" x="127.246094"/>
      </g>
     </g>
    </g>
    <g id="ytick_4">
     <g id="line2d_13">
      <g>
       <use xlink:href="#m1c3160279f" x="57.6" y="156.958545" style="stroke: #000000; stroke-width: 0.8"/>
      </g>
     </g>
     <g id="text_14">
      <!-- 300 -->
      <g transform="translate(31.5125 160.757764)scale(0.1 -0.1)">
       <defs>
        <path id="DejaVuSans-33" d="M 2597 2516 
Q 3050 2419 3304 2112 
Q 3559 1806 3559 1356 
Q 3559 666 3084 287 
Q 2609 -91 1734 -91 
Q 1441 -91 1130 -33 
Q 819 25 488 141 
L 488 750 
Q 750 597 1062 519 
Q 1375 441 1716 441 
Q 2309 441 2620 675 
Q 2931 909 2931 1356 
Q 2931 1769 2642 2001 
Q 2353 2234 1838 2234 
L 1294 2234 
L 1294 2753 
L 1863 2753 
Q 2328 2753 2575 2939 
Q 2822 3125 2822 3475 
Q 2822 3834 2567 4026 
Q 2313 4219 1838 4219 
Q 1578 4219 1281 4162 
Q 984 4106 628 3988 
L 628 4550 
Q 988 4650 1302 4700 
Q 1616 4750 1894 4750 
Q 2613 4750 3031 4423 
Q 3450 4097 3450 3541 
Q 3450 3153 3228 2886 
Q 3006 2619 2597 2516 
z
" transform="scale(0.015625)"/>
       </defs>
       <use xlink:href="#DejaVuSans-33"/>
       <use xlink:href="#DejaVuSans-30" x="63.623047"/>
       <use xlink:href="#DejaVuSans-30" x="127.246094"/>
      </g>
     </g>
    </g>
    <g id="ytick_5">
     <g id="line2d_14">
      <g>
       <use xlink:href="#m1c3160279f" x="57.6" y="110.78206" style="stroke: #000000; stroke-width: 0.8"/>
      </g>
     </g>
     <g id="text_15">
      <!-- 400 -->
      <g transform="translate(31.5125 114.581279)scale(0.1 -0.1)">
       <defs>
        <path id="DejaVuSans-34" d="M 2419 4116 
L 825 1625 
L 2419 1625 
L 2419 4116 
z
M 2253 4666 
L 3047 4666 
L 3047 1625 
L 3713 1625 
L 3713 1100 
L 3047 1100 
L 3047 0 
L 2419 0 
L 2419 1100 
L 313 1100 
L 313 1709 
L 2253 4666 
z
" transform="scale(0.015625)"/>
       </defs>
       <use xlink:href="#DejaVuSans-34"/>
       <use xlink:href="#DejaVuSans-30" x="63.623047"/>
       <use xlink:href="#DejaVuSans-30" x="127.246094"/>
      </g>
     </g>
    </g>
    <g id="ytick_6">
     <g id="line2d_15">
      <g>
       <use xlink:href="#m1c3160279f" x="57.6" y="64.605575" style="stroke: #000000; stroke-width: 0.8"/>
      </g>
     </g>
     <g id="text_16">
      <!-- 500 -->
      <g transform="translate(31.5125 68.404794)scale(0.1 -0.1)">
       <use xlink:href="#DejaVuSans-35"/>
       <use xlink:href="#DejaVuSans-30" x="63.623047"/>
       <use xlink:href="#DejaVuSans-30" x="127.246094"/>
      </g>
     </g>
    </g>
    <g id="text_17">
     <!-- Reward Density -->
     <g transform="translate(25.432812 213.74675)rotate(-90)scale(0.1 -0.1)">
      <defs>
       <path id="DejaVuSans-52" d="M 2841 2188 
Q 3044 2119 3236 1894 
Q 3428 1669 3622 1275 
L 4263 0 
L 3584 0 
L 2988 1197 
Q 2756 1666 2539 1819 
Q 2322 1972 1947 1972 
L 1259 1972 
L 1259 0 
L 628 0 
L 628 4666 
L 2053 4666 
Q 2853 4666 3247 4331 
Q 3641 3997 3641 3322 
Q 3641 2881 3436 2590 
Q 3231 2300 2841 2188 
z
M 1259 4147 
L 1259 2491 
L 2053 2491 
Q 2509 2491 2742 2702 
Q 2975 2913 2975 3322 
Q 2975 3731 2742 3939 
Q 2509 4147 2053 4147 
L 1259 4147 
z
" transform="scale(0.015625)"/>
       <path id="DejaVuSans-77" d="M 269 3500 
L 844 3500 
L 1563 769 
L 2278 3500 
L 2956 3500 
L 3675 769 
L 4391 3500 
L 4966 3500 
L 4050 0 
L 3372 0 
L 2619 2869 
L 1863 0 
L 1184 0 
L 269 3500 
z
" transform="scale(0.015625)"/>
       <path id="DejaVuSans-44" d="M 1259 4147 
L 1259 519 
L 2022 519 
Q 2988 519 3436 956 
Q 3884 1394 3884 2338 
Q 3884 3275 3436 3711 
Q 2988 4147 2022 4147 
L 1259 4147 
z
M 628 4666 
L 1925 4666 
Q 3281 4666 3915 4102 
Q 4550 3538 4550 2338 
Q 4550 1131 3912 565 
Q 3275 0 1925 0 
L 628 0 
L 628 4666 
z
" transform="scale(0.015625)"/>
       <path id="DejaVuSans-74" d="M 1172 4494 
L 1172 3500 
L 2356 3500 
L 2356 3053 
L 1172 3053 
L 1172 1153 
Q 1172 725 1289 603 
Q 1406 481 1766 481 
L 2356 481 
L 2356 0 
L 1766 0 
Q 1100 0 847 248 
Q 594 497 594 1153 
L 594 3053 
L 172 3053 
L 172 3500 
L 594 3500 
L 594 4494 
L 1172 4494 
z
" transform="scale(0.015625)"/>
       <path id="DejaVuSans-79" d="M 2059 -325 
Q 1816 -950 1584 -1140 
Q 1353 -1331 966 -1331 
L 506 -1331 
L 506 -850 
L 844 -850 
Q 1081 -850 1212 -737 
Q 1344 -625 1503 -206 
L 1606 56 
L 191 3500 
L 800 3500 
L 1894 763 
L 2988 3500 
L 3597 3500 
L 2059 -325 
z
" transform="scale(0.015625)"/>
      </defs>
      <use xlink:href="#DejaVuSans-52"/>
      <use xlink:href="#DejaVuSans-65" x="64.982422"/>
      <use xlink:href="#DejaVuSans-77" x="126.505859"/>
      <use xlink:href="#DejaVuSans-61" x="208.292969"/>
      <use xlink:href="#DejaVuSans-72" x="269.572266"/>
      <use xlink:href="#DejaVuSans-64" x="308.935547"/>
      <use xlink:href="#DejaVuSans-20" x="372.412109"/>
      <use xlink:href="#DejaVuSans-44" x="404.199219"/>
      <use xlink:href="#DejaVuSans-65" x="481.201172"/>
      <use xlink:href="#DejaVuSans-6e" x="542.724609"/>
      <use xlink:href="#DejaVuSans-73" x="606.103516"/>
      <use xlink:href="#DejaVuSans-69" x="658.203125"/>
      <use xlink:href="#DejaVuSans-74" x="685.986328"/>
      <use xlink:href="#DejaVuSans-79" x="725.195312"/>
     </g>
    </g>
   </g>
   <g id="LineCollection_1">
    <path d="M 92.572407 257.328127 
L 130.051767 257.328127 
" clip-path="url(#pc28bda79a9)" style="fill: none; stroke: #1f77b4; stroke-width: 1.5"/>
    <path d="M 175.859874 166.182693 
L 213.339234 166.182693 
" clip-path="url(#pc28bda79a9)" style="fill: none; stroke: #1f77b4; stroke-width: 1.5"/>
    <path d="M 259.147341 135.338415 
L 296.626701 135.338415 
" clip-path="url(#pc28bda79a9)" style="fill: none; stroke: #1f77b4; stroke-width: 1.5"/>
    <path d="M 342.268233 145.196771 
L 379.747593 145.196771 
" clip-path="url(#pc28bda79a9)" style="fill: none; stroke: #1f77b4; stroke-width: 1.5"/>
   </g>
   <g id="LineCollection_2">
    <path d="M 92.572407 159.429632 
L 130.051767 159.429632 
" clip-path="url(#pc28bda79a9)" style="fill: none; stroke: #1f77b4; stroke-width: 1.5"/>
    <path d="M 175.859874 93.108452 
L 213.339234 93.108452 
" clip-path="url(#pc28bda79a9)" style="fill: none; stroke: #1f77b4; stroke-width: 1.5"/>
    <path d="M 259.147341 53.568 
L 296.626701 53.568 
" clip-path="url(#pc28bda79a9)" style="fill: none; stroke: #1f77b4; stroke-width: 1.5"/>
    <path d="M 342.268233 55.090059 
L 379.747593 55.090059 
" clip-path="url(#pc28bda79a9)" style="fill: none; stroke: #1f77b4; stroke-width: 1.5"/>
   </g>
   <g id="LineCollection_3">
    <path d="M 92.572407 295.488 
L 130.051767 295.488 
" clip-path="url(#pc28bda79a9)" style="fill: none; stroke: #1f77b4; stroke-width: 1.5"/>
    <path d="M 175.859874 241.529836 
L 213.339234 241.529836 
" clip-path="url(#pc28bda79a9)" style="fill: none; stroke: #1f77b4; stroke-width: 1.5"/>
    <path d="M 259.147341 215.431013 
L 296.626701 215.431013 
" clip-path="url(#pc28bda79a9)" style="fill: none; stroke: #1f77b4; stroke-width: 1.5"/>
    <path d="M 342.268233 232.228449 
L 379.747593 232.228449 
" clip-path="url(#pc28bda79a9)" style="fill: none; stroke: #1f77b4; stroke-width: 1.5"/>
   </g>
   <g id="LineCollection_4">
    <path d="M 111.312087 295.488 
L 111.312087 159.429632 
" clip-path="url(#pc28bda79a9)" style="fill: none; stroke: #1f77b4; stroke-width: 1.5"/>
    <path d="M 194.599554 241.529836 
L 194.599554 93.108452 
" clip-path="url(#pc28bda79a9)" style="fill: none; stroke: #1f77b4; stroke-width: 1.5"/>
    <path d="M 277.887021 215.431013 
L 277.887021 53.568 
" clip-path="url(#pc28bda79a9)" style="fill: none; stroke: #1f77b4; stroke-width: 1.5"/>
    <path d="M 361.007913 232.228449 
L 361.007913 55.090059 
" clip-path="url(#pc28bda79a9)" style="fill: none; stroke: #1f77b4; stroke-width: 1.5"/>
   </g>
   <g id="line2d_16">
    <path d="M 111.312087 257.328127 
L 194.599554 166.182693 
L 277.887021 135.338415 
L 361.007913 145.196771 
" clip-path="url(#pc28bda79a9)" style="fill: none; stroke: #4682b4; stroke-width: 1.5; stroke-linecap: square"/>
   </g>
   <g id="patch_3">
    <path d="M 57.6 307.584 
L 57.6 41.472 
" style="fill: none; stroke: #000000; stroke-width: 0.8; stroke-linejoin: miter; stroke-linecap: square"/>
   </g>
   <g id="patch_4">
    <path d="M 414.72 307.584 
L 414.72 41.472 
" style="fill: none; stroke: #000000; stroke-width: 0.8; stroke-linejoin: miter; stroke-linecap: square"/>
   </g>
   <g id="patch_5">
    <path d="M 57.6 307.584 
L 414.72 307.584 
" style="fill: none; stroke: #000000; stroke-width: 0.8; stroke-linejoin: miter; stroke-linecap: square"/>
   </g>
   <g id="patch_6">
    <path d="M 57.6 41.472 
L 414.72 41.472 
" style="fill: none; stroke: #000000; stroke-width: 0.8; stroke-linejoin: miter; stroke-linecap: square"/>
   </g>
   <g id="text_18">
    <!-- Violinplot for progress of profits/by_selling_new -->
    <g transform="translate(94.379063 35.472)scale(0.12 -0.12)">
     <defs>
      <path id="DejaVuSans-56" d="M 1831 0 
L 50 4666 
L 709 4666 
L 2188 738 
L 3669 4666 
L 4325 4666 
L 2547 0 
L 1831 0 
z
" transform="scale(0.015625)"/>
      <path id="DejaVuSans-6c" d="M 603 4863 
L 1178 4863 
L 1178 0 
L 603 0 
L 603 4863 
z
" transform="scale(0.015625)"/>
      <path id="DejaVuSans-66" d="M 2375 4863 
L 2375 4384 
L 1825 4384 
Q 1516 4384 1395 4259 
Q 1275 4134 1275 3809 
L 1275 3500 
L 2222 3500 
L 2222 3053 
L 1275 3053 
L 1275 0 
L 697 0 
L 697 3053 
L 147 3053 
L 147 3500 
L 697 3500 
L 697 3744 
Q 697 4328 969 4595 
Q 1241 4863 1831 4863 
L 2375 4863 
z
" transform="scale(0.015625)"/>
      <path id="DejaVuSans-67" d="M 2906 1791 
Q 2906 2416 2648 2759 
Q 2391 3103 1925 3103 
Q 1463 3103 1205 2759 
Q 947 2416 947 1791 
Q 947 1169 1205 825 
Q 1463 481 1925 481 
Q 2391 481 2648 825 
Q 2906 1169 2906 1791 
z
M 3481 434 
Q 3481 -459 3084 -895 
Q 2688 -1331 1869 -1331 
Q 1566 -1331 1297 -1286 
Q 1028 -1241 775 -1147 
L 775 -588 
Q 1028 -725 1275 -790 
Q 1522 -856 1778 -856 
Q 2344 -856 2625 -561 
Q 2906 -266 2906 331 
L 2906 616 
Q 2728 306 2450 153 
Q 2172 0 1784 0 
Q 1141 0 747 490 
Q 353 981 353 1791 
Q 353 2603 747 3093 
Q 1141 3584 1784 3584 
Q 2172 3584 2450 3431 
Q 2728 3278 2906 2969 
L 2906 3500 
L 3481 3500 
L 3481 434 
z
" transform="scale(0.015625)"/>
      <path id="DejaVuSans-2f" d="M 1625 4666 
L 2156 4666 
L 531 -594 
L 0 -594 
L 1625 4666 
z
" transform="scale(0.015625)"/>
      <path id="DejaVuSans-62" d="M 3116 1747 
Q 3116 2381 2855 2742 
Q 2594 3103 2138 3103 
Q 1681 3103 1420 2742 
Q 1159 2381 1159 1747 
Q 1159 1113 1420 752 
Q 1681 391 2138 391 
Q 2594 391 2855 752 
Q 3116 1113 3116 1747 
z
M 1159 2969 
Q 1341 3281 1617 3432 
Q 1894 3584 2278 3584 
Q 2916 3584 3314 3078 
Q 3713 2572 3713 1747 
Q 3713 922 3314 415 
Q 2916 -91 2278 -91 
Q 1894 -91 1617 61 
Q 1341 213 1159 525 
L 1159 0 
L 581 0 
L 581 4863 
L 1159 4863 
L 1159 2969 
z
" transform="scale(0.015625)"/>
      <path id="DejaVuSans-5f" d="M 3263 -1063 
L 3263 -1509 
L -63 -1509 
L -63 -1063 
L 3263 -1063 
z
" transform="scale(0.015625)"/>
     </defs>
     <use xlink:href="#DejaVuSans-56"/>
     <use xlink:href="#DejaVuSans-69" x="66.158203"/>
     <use xlink:href="#DejaVuSans-6f" x="93.941406"/>
     <use xlink:href="#DejaVuSans-6c" x="155.123047"/>
     <use xlink:href="#DejaVuSans-69" x="182.90625"/>
     <use xlink:href="#DejaVuSans-6e" x="210.689453"/>
     <use xlink:href="#DejaVuSans-70" x="274.068359"/>
     <use xlink:href="#DejaVuSans-6c" x="337.544922"/>
     <use xlink:href="#DejaVuSans-6f" x="365.328125"/>
     <use xlink:href="#DejaVuSans-74" x="426.509766"/>
     <use xlink:href="#DejaVuSans-20" x="465.71875"/>
     <use xlink:href="#DejaVuSans-66" x="497.505859"/>
     <use xlink:href="#DejaVuSans-6f" x="532.710938"/>
     <use xlink:href="#DejaVuSans-72" x="593.892578"/>
     <use xlink:href="#DejaVuSans-20" x="635.005859"/>
     <use xlink:href="#DejaVuSans-70" x="666.792969"/>
     <use xlink:href="#DejaVuSans-72" x="730.269531"/>
     <use xlink:href="#DejaVuSans-6f" x="769.132812"/>
     <use xlink:href="#DejaVuSans-67" x="830.314453"/>
     <use xlink:href="#DejaVuSans-72" x="893.791016"/>
     <use xlink:href="#DejaVuSans-65" x="932.654297"/>
     <use xlink:href="#DejaVuSans-73" x="994.177734"/>
     <use xlink:href="#DejaVuSans-73" x="1046.277344"/>
     <use xlink:href="#DejaVuSans-20" x="1098.376953"/>
     <use xlink:href="#DejaVuSans-6f" x="1130.164062"/>
     <use xlink:href="#DejaVuSans-66" x="1191.345703"/>
     <use xlink:href="#DejaVuSans-20" x="1226.550781"/>
     <use xlink:href="#DejaVuSans-70" x="1258.337891"/>
     <use xlink:href="#DejaVuSans-72" x="1321.814453"/>
     <use xlink:href="#DejaVuSans-6f" x="1360.677734"/>
     <use xlink:href="#DejaVuSans-66" x="1421.859375"/>
     <use xlink:href="#DejaVuSans-69" x="1457.064453"/>
     <use xlink:href="#DejaVuSans-74" x="1484.847656"/>
     <use xlink:href="#DejaVuSans-73" x="1524.056641"/>
     <use xlink:href="#DejaVuSans-2f" x="1576.15625"/>
     <use xlink:href="#DejaVuSans-62" x="1609.847656"/>
     <use xlink:href="#DejaVuSans-79" x="1673.324219"/>
     <use xlink:href="#DejaVuSans-5f" x="1732.503906"/>
     <use xlink:href="#DejaVuSans-73" x="1782.503906"/>
     <use xlink:href="#DejaVuSans-65" x="1834.603516"/>
     <use xlink:href="#DejaVuSans-6c" x="1896.126953"/>
     <use xlink:href="#DejaVuSans-6c" x="1923.910156"/>
     <use xlink:href="#DejaVuSans-69" x="1951.693359"/>
     <use xlink:href="#DejaVuSans-6e" x="1979.476562"/>
     <use xlink:href="#DejaVuSans-67" x="2042.855469"/>
     <use xlink:href="#DejaVuSans-5f" x="2106.332031"/>
     <use xlink:href="#DejaVuSans-6e" x="2156.332031"/>
     <use xlink:href="#DejaVuSans-65" x="2219.710938"/>
     <use xlink:href="#DejaVuSans-77" x="2281.234375"/>
    </g>
   </g>
   <g id="legend_1">
    <g id="patch_7">
     <path d="M 276.25125 64.150125 
L 407.72 64.150125 
Q 409.72 64.150125 409.72 62.150125 
L 409.72 48.472 
Q 409.72 46.472 407.72 46.472 
L 276.25125 46.472 
Q 274.25125 46.472 274.25125 48.472 
L 274.25125 62.150125 
Q 274.25125 64.150125 276.25125 64.150125 
z
" style="fill: #ffffff; opacity: 0.8; stroke: #cccccc; stroke-linejoin: miter"/>
    </g>
    <g id="line2d_17">
     <path d="M 278.25125 54.570438 
L 288.25125 54.570438 
L 298.25125 54.570438 
" style="fill: none; stroke: #4682b4; stroke-width: 1.5; stroke-linecap: square"/>
    </g>
    <g id="text_19">
     <!-- StableBaselinesSAC -->
     <g transform="translate(306.25125 58.070438)scale(0.1 -0.1)">
      <defs>
       <path id="DejaVuSans-53" d="M 3425 4513 
L 3425 3897 
Q 3066 4069 2747 4153 
Q 2428 4238 2131 4238 
Q 1616 4238 1336 4038 
Q 1056 3838 1056 3469 
Q 1056 3159 1242 3001 
Q 1428 2844 1947 2747 
L 2328 2669 
Q 3034 2534 3370 2195 
Q 3706 1856 3706 1288 
Q 3706 609 3251 259 
Q 2797 -91 1919 -91 
Q 1588 -91 1214 -16 
Q 841 59 441 206 
L 441 856 
Q 825 641 1194 531 
Q 1563 422 1919 422 
Q 2459 422 2753 634 
Q 3047 847 3047 1241 
Q 3047 1584 2836 1778 
Q 2625 1972 2144 2069 
L 1759 2144 
Q 1053 2284 737 2584 
Q 422 2884 422 3419 
Q 422 4038 858 4394 
Q 1294 4750 2059 4750 
Q 2388 4750 2728 4690 
Q 3069 4631 3425 4513 
z
" transform="scale(0.015625)"/>
       <path id="DejaVuSans-42" d="M 1259 2228 
L 1259 519 
L 2272 519 
Q 2781 519 3026 730 
Q 3272 941 3272 1375 
Q 3272 1813 3026 2020 
Q 2781 2228 2272 2228 
L 1259 2228 
z
M 1259 4147 
L 1259 2741 
L 2194 2741 
Q 2656 2741 2882 2914 
Q 3109 3088 3109 3444 
Q 3109 3797 2882 3972 
Q 2656 4147 2194 4147 
L 1259 4147 
z
M 628 4666 
L 2241 4666 
Q 2963 4666 3353 4366 
Q 3744 4066 3744 3513 
Q 3744 3084 3544 2831 
Q 3344 2578 2956 2516 
Q 3422 2416 3680 2098 
Q 3938 1781 3938 1306 
Q 3938 681 3513 340 
Q 3088 0 2303 0 
L 628 0 
L 628 4666 
z
" transform="scale(0.015625)"/>
       <path id="DejaVuSans-41" d="M 2188 4044 
L 1331 1722 
L 3047 1722 
L 2188 4044 
z
M 1831 4666 
L 2547 4666 
L 4325 0 
L 3669 0 
L 3244 1197 
L 1141 1197 
L 716 0 
L 50 0 
L 1831 4666 
z
" transform="scale(0.015625)"/>
       <path id="DejaVuSans-43" d="M 4122 4306 
L 4122 3641 
Q 3803 3938 3442 4084 
Q 3081 4231 2675 4231 
Q 1875 4231 1450 3742 
Q 1025 3253 1025 2328 
Q 1025 1406 1450 917 
Q 1875 428 2675 428 
Q 3081 428 3442 575 
Q 3803 722 4122 1019 
L 4122 359 
Q 3791 134 3420 21 
Q 3050 -91 2638 -91 
Q 1578 -91 968 557 
Q 359 1206 359 2328 
Q 359 3453 968 4101 
Q 1578 4750 2638 4750 
Q 3056 4750 3426 4639 
Q 3797 4528 4122 4306 
z
" transform="scale(0.015625)"/>
      </defs>
      <use xlink:href="#DejaVuSans-53"/>
      <use xlink:href="#DejaVuSans-74" x="63.476562"/>
      <use xlink:href="#DejaVuSans-61" x="102.685547"/>
      <use xlink:href="#DejaVuSans-62" x="163.964844"/>
      <use xlink:href="#DejaVuSans-6c" x="227.441406"/>
      <use xlink:href="#DejaVuSans-65" x="255.224609"/>
      <use xlink:href="#DejaVuSans-42" x="316.748047"/>
      <use xlink:href="#DejaVuSans-61" x="385.351562"/>
      <use xlink:href="#DejaVuSans-73" x="446.630859"/>
      <use xlink:href="#DejaVuSans-65" x="498.730469"/>
      <use xlink:href="#DejaVuSans-6c" x="560.253906"/>
      <use xlink:href="#DejaVuSans-69" x="588.037109"/>
      <use xlink:href="#DejaVuSans-6e" x="615.820312"/>
      <use xlink:href="#DejaVuSans-65" x="679.199219"/>
      <use xlink:href="#DejaVuSans-73" x="740.722656"/>
      <use xlink:href="#DejaVuSans-53" x="792.822266"/>
      <use xlink:href="#DejaVuSans-41" x="858.173828"/>
      <use xlink:href="#DejaVuSans-43" x="924.832031"/>
     </g>
    </g>
   </g>
  </g>
 </g>
 <defs>
  <clipPath id="pc28bda79a9">
   <rect x="57.6" y="41.472" width="357.12" height="266.112"/>
  </clipPath>
 </defs>
</svg>
