<?xml version="1.0" encoding="utf-8" standalone="no"?>
<!DOCTYPE svg PUBLIC "-//W3C//DTD SVG 1.1//EN"
  "http://www.w3.org/Graphics/SVG/1.1/DTD/svg11.dtd">
<svg xmlns:xlink="http://www.w3.org/1999/xlink" width="460.8pt" height="345.6pt" viewBox="0 0 460.8 345.6" xmlns="http://www.w3.org/2000/svg" version="1.1">
 <metadata>
  <rdf:RDF xmlns:dc="http://purl.org/dc/elements/1.1/" xmlns:cc="http://creativecommons.org/ns#" xmlns:rdf="http://www.w3.org/1999/02/22-rdf-syntax-ns#">
   <cc:Work>
    <dc:type rdf:resource="http://purl.org/dc/dcmitype/StillImage"/>
    <dc:date>2022-06-16T12:02:59.641682</dc:date>
    <dc:format>image/svg+xml</dc:format>
    <dc:creator>
     <cc:Agent>
      <dc:title>Matplotlib v3.5.2, https://matplotlib.org/</dc:title>
     </cc:Agent>
    </dc:creator>
   </cc:Work>
  </rdf:RDF>
 </metadata>
 <defs>
  <style type="text/css">*{stroke-linejoin: round; stroke-linecap: butt}</style>
 </defs>
 <g id="figure_1">
  <g id="patch_1">
   <path d="M 0 345.6 
L 460.8 345.6 
L 460.8 0 
L 0 0 
z
" style="fill: #ffffff"/>
  </g>
  <g id="axes_1">
   <g id="patch_2">
    <path d="M 57.6 307.584 
L 414.72 307.584 
L 414.72 41.472 
L 57.6 41.472 
z
" style="fill: #ffffff"/>
   </g>
   <g id="PolyCollection_1">
    <path d="M 111.56265 289.227072 
L 111.061525 289.227072 
L 111.064956 286.846677 
L 111.076323 284.466283 
L 111.093764 282.085888 
L 111.114614 279.705493 
L 111.135777 277.325099 
L 111.15414 274.944704 
L 111.16697 272.564309 
L 111.172229 270.183915 
L 111.168766 267.80352 
L 111.156391 265.423125 
L 111.135799 263.042731 
L 111.10838 260.662336 
L 111.075921 258.281941 
L 111.040239 255.901547 
L 111.002807 253.521152 
L 110.964428 251.140757 
L 110.925043 248.760363 
L 110.883724 246.379968 
L 110.838866 243.999573 
L 110.788568 241.619179 
L 110.731124 239.238784 
L 110.66554 236.858389 
L 110.591956 234.477995 
L 110.511904 232.0976 
L 110.428313 229.717205 
L 110.345271 227.336811 
L 110.267543 224.956416 
L 110.199945 222.576021 
L 110.146673 220.195627 
L 110.110722 217.815232 
L 110.093507 215.434837 
L 110.094741 213.054443 
L 110.112582 210.674048 
L 110.143953 208.293653 
L 110.184912 205.913259 
L 110.230962 203.532864 
L 110.27721 201.152469 
L 110.318402 198.772075 
L 110.348933 196.39168 
L 110.362971 194.011285 
L 110.35481 191.630891 
L 110.319513 189.250496 
L 110.253762 186.870101 
L 110.156747 184.489707 
L 110.030855 182.109312 
L 109.881942 179.728917 
L 109.719027 177.348523 
L 109.553383 174.968128 
L 109.397126 172.587733 
L 109.261503 170.207339 
L 109.155189 167.826944 
L 109.082865 165.446549 
L 109.044387 163.066155 
L 109.034678 160.68576 
L 109.044432 158.305365 
L 109.061476 155.924971 
L 109.072564 153.544576 
L 109.065224 151.164181 
L 109.029298 148.783787 
L 108.957878 146.403392 
L 108.847505 144.022997 
L 108.697663 141.642603 
L 108.509813 139.262208 
L 108.286258 136.881813 
L 108.029151 134.501419 
L 107.739867 132.121024 
L 107.418769 129.740629 
L 107.0653 127.360235 
L 106.678167 124.97984 
L 106.255402 122.599445 
L 105.794105 120.219051 
L 105.289793 117.838656 
L 104.735445 115.458261 
L 104.120441 113.077867 
L 103.429705 110.697472 
L 102.643383 108.317077 
L 101.737334 105.936683 
L 100.684575 103.556288 
L 99.457662 101.175893 
L 98.031777 98.795499 
L 96.388233 96.415104 
L 94.518062 94.034709 
L 92.425469 91.654315 
L 90.131048 89.27392 
L 87.674723 86.893525 
L 85.118262 84.513131 
L 82.546951 82.132736 
L 80.069599 79.752341 
L 77.815775 77.371947 
L 75.929181 74.991552 
L 74.55659 72.611157 
L 73.832727 70.230763 
L 73.862813 67.850368 
L 74.705588 65.469973 
L 76.360329 63.089579 
L 78.761095 60.709184 
L 81.780258 58.328789 
L 85.241434 55.948395 
L 88.939874 53.568 
L 133.6843 53.568 
L 133.6843 53.568 
L 137.382741 55.948395 
L 140.843917 58.328789 
L 143.863079 60.709184 
L 146.263846 63.089579 
L 147.918586 65.469973 
L 148.761361 67.850368 
L 148.791447 70.230763 
L 148.067585 72.611157 
L 146.694993 74.991552 
L 144.8084 77.371947 
L 142.554575 79.752341 
L 140.077224 82.132736 
L 137.505913 84.513131 
L 134.949452 86.893525 
L 132.493126 89.27392 
L 130.198706 91.654315 
L 128.106113 94.034709 
L 126.235942 96.415104 
L 124.592398 98.795499 
L 123.166513 101.175893 
L 121.939599 103.556288 
L 120.886841 105.936683 
L 119.980791 108.317077 
L 119.19447 110.697472 
L 118.503734 113.077867 
L 117.88873 115.458261 
L 117.334382 117.838656 
L 116.830069 120.219051 
L 116.368772 122.599445 
L 115.946008 124.97984 
L 115.558875 127.360235 
L 115.205405 129.740629 
L 114.884308 132.121024 
L 114.595023 134.501419 
L 114.337917 136.881813 
L 114.114362 139.262208 
L 113.926512 141.642603 
L 113.77667 144.022997 
L 113.666296 146.403392 
L 113.594877 148.783787 
L 113.55895 151.164181 
L 113.55161 153.544576 
L 113.562699 155.924971 
L 113.579743 158.305365 
L 113.589496 160.68576 
L 113.579788 163.066155 
L 113.541309 165.446549 
L 113.468986 167.826944 
L 113.362671 170.207339 
L 113.227049 172.587733 
L 113.070791 174.968128 
L 112.905148 177.348523 
L 112.742232 179.728917 
L 112.593319 182.109312 
L 112.467427 184.489707 
L 112.370412 186.870101 
L 112.304662 189.250496 
L 112.269365 191.630891 
L 112.261204 194.011285 
L 112.275241 196.39168 
L 112.305773 198.772075 
L 112.346965 201.152469 
L 112.393212 203.532864 
L 112.439263 205.913259 
L 112.480222 208.293653 
L 112.511592 210.674048 
L 112.529434 213.054443 
L 112.530668 215.434837 
L 112.513452 217.815232 
L 112.477502 220.195627 
L 112.42423 222.576021 
L 112.356631 224.956416 
L 112.278903 227.336811 
L 112.195861 229.717205 
L 112.112271 232.0976 
L 112.032218 234.477995 
L 111.958635 236.858389 
L 111.89305 239.238784 
L 111.835607 241.619179 
L 111.785309 243.999573 
L 111.740451 246.379968 
L 111.699131 248.760363 
L 111.659747 251.140757 
L 111.621367 253.521152 
L 111.583936 255.901547 
L 111.548254 258.281941 
L 111.515795 260.662336 
L 111.488376 263.042731 
L 111.467784 265.423125 
L 111.455408 267.80352 
L 111.451946 270.183915 
L 111.457204 272.564309 
L 111.470035 274.944704 
L 111.488398 277.325099 
L 111.509561 279.705493 
L 111.530411 282.085888 
L 111.547851 284.466283 
L 111.559219 286.846677 
L 111.56265 289.227072 
z
" clip-path="url(#p0f207bb4ab)" style="fill: #1f77b4; fill-opacity: 0.3"/>
   </g>
   <g id="PolyCollection_2">
    <path d="M 194.895356 294.811143 
L 194.303752 294.811143 
L 194.286278 292.396564 
L 194.272238 289.981984 
L 194.260779 287.567405 
L 194.250849 285.152825 
L 194.241402 282.738246 
L 194.231572 280.323667 
L 194.220754 277.909087 
L 194.208611 275.494508 
L 194.195034 273.079929 
L 194.180103 270.665349 
L 194.164075 268.25077 
L 194.147427 265.836191 
L 194.130917 263.421611 
L 194.115627 261.007032 
L 194.102922 258.592452 
L 194.094306 256.177873 
L 194.091151 253.763294 
L 194.094359 251.348714 
L 194.104 248.934135 
L 194.119027 246.519556 
L 194.137136 244.104976 
L 194.154819 241.690397 
L 194.167631 239.275817 
L 194.170652 236.861238 
L 194.159069 234.446659 
L 194.128827 232.032079 
L 194.077231 229.6175 
L 194.003428 227.202921 
L 193.908684 224.788341 
L 193.7964 222.373762 
L 193.671859 219.959183 
L 193.541721 217.544603 
L 193.413323 215.130024 
L 193.293895 212.715444 
L 193.189791 210.300865 
L 193.105869 207.886286 
L 193.045096 205.471706 
L 193.008424 203.057127 
L 192.994928 200.642548 
L 193.002134 198.227968 
L 193.026431 195.813389 
L 193.063485 193.398809 
L 193.10856 190.98423 
L 193.156734 188.569651 
L 193.203026 186.155071 
L 193.242483 183.740492 
L 193.270285 181.325913 
L 193.281924 178.911333 
L 193.27344 176.496754 
L 193.241715 174.082175 
L 193.184772 171.667595 
L 193.102038 169.253016 
L 192.994523 166.838436 
L 192.864868 164.423857 
L 192.71725 162.009278 
L 192.557097 159.594698 
L 192.390607 157.180119 
L 192.224101 154.76554 
L 192.06325 152.35096 
L 191.912276 149.936381 
L 191.77325 147.521801 
L 191.645621 145.107222 
L 191.526073 142.692643 
L 191.408771 140.278063 
L 191.285975 137.863484 
L 191.148929 135.448905 
L 190.988827 133.034325 
L 190.797675 130.619746 
L 190.568771 128.205167 
L 190.296661 125.790587 
L 189.976456 123.376008 
L 189.602566 120.961428 
L 189.167045 118.546849 
L 188.657875 116.13227 
L 188.057605 113.71769 
L 187.342739 111.303111 
L 186.484215 108.888532 
L 185.449153 106.473952 
L 184.203872 104.059373 
L 182.71798 101.644793 
L 180.969204 99.230214 
L 178.94851 96.815635 
L 176.665008 94.401055 
L 174.150133 91.986476 
L 171.460554 89.571897 
L 168.679289 87.157317 
L 165.914486 84.742738 
L 163.295399 82.328159 
L 160.96527 79.913579 
L 159.071139 77.499 
L 157.751105 75.08442 
L 157.120194 72.669841 
L 157.256541 70.255262 
L 158.190019 67.840682 
L 159.895446 65.426103 
L 162.291994 63.011524 
L 165.249542 60.596944 
L 168.601406 58.182365 
L 172.161698 55.767785 
L 217.03741 55.767785 
L 217.03741 55.767785 
L 220.597702 58.182365 
L 223.949566 60.596944 
L 226.907114 63.011524 
L 229.303662 65.426103 
L 231.009089 67.840682 
L 231.942568 70.255262 
L 232.078914 72.669841 
L 231.448003 75.08442 
L 230.127969 77.499 
L 228.233838 79.913579 
L 225.903709 82.328159 
L 223.284622 84.742738 
L 220.519819 87.157317 
L 217.738555 89.571897 
L 215.048976 91.986476 
L 212.5341 94.401055 
L 210.250599 96.815635 
L 208.229904 99.230214 
L 206.481129 101.644793 
L 204.995236 104.059373 
L 203.749955 106.473952 
L 202.714893 108.888532 
L 201.856369 111.303111 
L 201.141503 113.71769 
L 200.541233 116.13227 
L 200.032064 118.546849 
L 199.596542 120.961428 
L 199.222652 123.376008 
L 198.902447 125.790587 
L 198.630337 128.205167 
L 198.401433 130.619746 
L 198.210281 133.034325 
L 198.05018 135.448905 
L 197.913133 137.863484 
L 197.790338 140.278063 
L 197.673035 142.692643 
L 197.553487 145.107222 
L 197.425858 147.521801 
L 197.286832 149.936381 
L 197.135858 152.35096 
L 196.975007 154.76554 
L 196.808501 157.180119 
L 196.642011 159.594698 
L 196.481858 162.009278 
L 196.334241 164.423857 
L 196.204586 166.838436 
L 196.09707 169.253016 
L 196.014336 171.667595 
L 195.957393 174.082175 
L 195.925668 176.496754 
L 195.917184 178.911333 
L 195.928823 181.325913 
L 195.956626 183.740492 
L 195.996082 186.155071 
L 196.042374 188.569651 
L 196.090549 190.98423 
L 196.135623 193.398809 
L 196.172677 195.813389 
L 196.196974 198.227968 
L 196.20418 200.642548 
L 196.190685 203.057127 
L 196.154013 205.471706 
L 196.093239 207.886286 
L 196.009317 210.300865 
L 195.905213 212.715444 
L 195.785785 215.130024 
L 195.657387 217.544603 
L 195.527249 219.959183 
L 195.402708 222.373762 
L 195.290424 224.788341 
L 195.19568 227.202921 
L 195.121877 229.6175 
L 195.070281 232.032079 
L 195.040039 234.446659 
L 195.028456 236.861238 
L 195.031477 239.275817 
L 195.04429 241.690397 
L 195.061972 244.104976 
L 195.080081 246.519556 
L 195.095108 248.934135 
L 195.104749 251.348714 
L 195.107957 253.763294 
L 195.104803 256.177873 
L 195.096186 258.592452 
L 195.083481 261.007032 
L 195.068191 263.421611 
L 195.051681 265.836191 
L 195.035033 268.25077 
L 195.019005 270.665349 
L 195.004074 273.079929 
L 194.990498 275.494508 
L 194.978355 277.909087 
L 194.967536 280.323667 
L 194.957706 282.738246 
L 194.94826 285.152825 
L 194.938329 287.567405 
L 194.92687 289.981984 
L 194.91283 292.396564 
L 194.895356 294.811143 
z
" clip-path="url(#p0f207bb4ab)" style="fill: #1f77b4; fill-opacity: 0.3"/>
   </g>
   <g id="PolyCollection_3">
    <path d="M 278.137679 295.488 
L 277.636363 295.488 
L 277.643356 293.098489 
L 277.663187 290.708979 
L 277.69271 288.319468 
L 277.727596 285.929958 
L 277.763346 283.540447 
L 277.796182 281.150936 
L 277.823551 278.761426 
L 277.844172 276.371915 
L 277.857703 273.982405 
L 277.864201 271.592894 
L 277.863589 269.203384 
L 277.855283 266.813873 
L 277.838099 264.424362 
L 277.810503 262.034852 
L 277.771191 259.645341 
L 277.719894 257.255831 
L 277.658213 254.86632 
L 277.590169 252.476809 
L 277.522177 250.087299 
L 277.462261 247.697788 
L 277.418586 245.308278 
L 277.397657 242.918767 
L 277.402738 240.529256 
L 277.433015 238.139746 
L 277.48379 235.750235 
L 277.547644 233.360725 
L 277.616139 230.971214 
L 277.681496 228.581704 
L 277.737763 226.192193 
L 277.781218 223.802682 
L 277.810081 221.413172 
L 277.823816 219.023661 
L 277.822401 216.634151 
L 277.805886 214.24464 
L 277.774403 211.855129 
L 277.728616 209.465619 
L 277.670374 207.076108 
L 277.603248 204.686598 
L 277.532607 202.297087 
L 277.464996 199.907577 
L 277.406871 197.518066 
L 277.363017 195.128555 
L 277.335202 192.739045 
L 277.321614 190.349534 
L 277.317382 187.960024 
L 277.316057 185.570513 
L 277.311492 183.181002 
L 277.299377 180.791492 
L 277.277796 178.401981 
L 277.246625 176.012471 
L 277.206115 173.62296 
L 277.155452 171.233449 
L 277.092119 168.843939 
L 277.012533 166.454428 
L 276.913824 164.064918 
L 276.795967 161.675407 
L 276.663206 159.285897 
L 276.523829 156.896386 
L 276.388035 154.506875 
L 276.264472 152.117365 
L 276.156771 149.727854 
L 276.061576 147.338344 
L 275.969124 144.948833 
L 275.866397 142.559322 
L 275.741676 140.169812 
L 275.588609 137.780301 
L 275.407967 135.390791 
L 275.206236 133.00128 
L 274.991655 130.611769 
L 274.769462 128.222259 
L 274.538459 125.832748 
L 274.290183 123.443238 
L 274.010581 121.053727 
L 273.68277 118.664217 
L 273.289045 116.274706 
L 272.810972 113.885195 
L 272.227741 111.495685 
L 271.514111 109.106174 
L 270.639668 106.716664 
L 269.570341 104.327153 
L 268.271965 101.937642 
L 266.714626 99.548132 
L 264.876529 97.158621 
L 262.747004 94.769111 
L 260.32956 92.3796 
L 257.646577 89.990089 
L 254.746661 87.600579 
L 251.713916 85.211068 
L 248.676143 82.821558 
L 245.807533 80.432047 
L 243.321563 78.042537 
L 241.451796 75.653026 
L 240.421638 73.263515 
L 240.407661 70.874005 
L 241.503919 68.484494 
L 243.695888 66.094984 
L 246.851572 63.705473 
L 250.734057 61.315962 
L 255.034603 58.926452 
L 300.739439 58.926452 
L 300.739439 58.926452 
L 305.039984 61.315962 
L 308.922469 63.705473 
L 312.078154 66.094984 
L 314.270122 68.484494 
L 315.366381 70.874005 
L 315.352403 73.263515 
L 314.322246 75.653026 
L 312.452479 78.042537 
L 309.966508 80.432047 
L 307.097899 82.821558 
L 304.060125 85.211068 
L 301.02738 87.600579 
L 298.127465 89.990089 
L 295.444482 92.3796 
L 293.027038 94.769111 
L 290.897513 97.158621 
L 289.059416 99.548132 
L 287.502077 101.937642 
L 286.203701 104.327153 
L 285.134374 106.716664 
L 284.25993 109.106174 
L 283.546301 111.495685 
L 282.963069 113.885195 
L 282.484997 116.274706 
L 282.091272 118.664217 
L 281.763461 121.053727 
L 281.483859 123.443238 
L 281.235583 125.832748 
L 281.00458 128.222259 
L 280.782387 130.611769 
L 280.567805 133.00128 
L 280.366075 135.390791 
L 280.185433 137.780301 
L 280.032366 140.169812 
L 279.907644 142.559322 
L 279.804917 144.948833 
L 279.712466 147.338344 
L 279.617271 149.727854 
L 279.50957 152.117365 
L 279.386007 154.506875 
L 279.250212 156.896386 
L 279.110836 159.285897 
L 278.978075 161.675407 
L 278.860218 164.064918 
L 278.761508 166.454428 
L 278.681923 168.843939 
L 278.61859 171.233449 
L 278.567927 173.62296 
L 278.527416 176.012471 
L 278.496245 178.401981 
L 278.474665 180.791492 
L 278.46255 183.181002 
L 278.457985 185.570513 
L 278.45666 187.960024 
L 278.452428 190.349534 
L 278.438839 192.739045 
L 278.411024 195.128555 
L 278.367171 197.518066 
L 278.309046 199.907577 
L 278.241435 202.297087 
L 278.170794 204.686598 
L 278.103668 207.076108 
L 278.045425 209.465619 
L 277.999638 211.855129 
L 277.968156 214.24464 
L 277.95164 216.634151 
L 277.950226 219.023661 
L 277.963961 221.413172 
L 277.992824 223.802682 
L 278.036279 226.192193 
L 278.092545 228.581704 
L 278.157903 230.971214 
L 278.226398 233.360725 
L 278.290252 235.750235 
L 278.341027 238.139746 
L 278.371304 240.529256 
L 278.376385 242.918767 
L 278.355456 245.308278 
L 278.311781 247.697788 
L 278.251865 250.087299 
L 278.183873 252.476809 
L 278.115829 254.86632 
L 278.054148 257.255831 
L 278.002851 259.645341 
L 277.963538 262.034852 
L 277.935943 264.424362 
L 277.918759 266.813873 
L 277.910453 269.203384 
L 277.909841 271.592894 
L 277.916339 273.982405 
L 277.92987 276.371915 
L 277.950491 278.761426 
L 277.97786 281.150936 
L 278.010695 283.540447 
L 278.046446 285.929958 
L 278.081331 288.319468 
L 278.110855 290.708979 
L 278.130686 293.098489 
L 278.137679 295.488 
z
" clip-path="url(#p0f207bb4ab)" style="fill: #1f77b4; fill-opacity: 0.3"/>
   </g>
   <g id="PolyCollection_4">
    <path d="M 361.479293 262.99886 
L 360.536533 262.99886 
L 360.482996 260.923849 
L 360.42956 258.848838 
L 360.377164 256.773826 
L 360.327142 254.698815 
L 360.281289 252.623804 
L 360.241834 250.548792 
L 360.21128 248.473781 
L 360.192118 246.39877 
L 360.186468 244.323758 
L 360.195681 242.248747 
L 360.220003 240.173736 
L 360.258353 238.098724 
L 360.308251 236.023713 
L 360.365936 233.948702 
L 360.426625 231.87369 
L 360.484887 229.798679 
L 360.53507 227.723668 
L 360.571726 225.648656 
L 360.589979 223.573645 
L 360.585837 221.498634 
L 360.556413 219.423622 
L 360.500088 217.348611 
L 360.416596 215.2736 
L 360.307064 213.198588 
L 360.17398 211.123577 
L 360.021088 209.048566 
L 359.853205 206.973554 
L 359.675944 204.898543 
L 359.495371 202.823531 
L 359.317609 200.74852 
L 359.148437 198.673509 
L 358.992924 196.598497 
L 358.855137 194.523486 
L 358.73795 192.448475 
L 358.642969 190.373463 
L 358.570567 188.298452 
L 358.520009 186.223441 
L 358.489643 184.148429 
L 358.477113 182.073418 
L 358.479573 179.998407 
L 358.493852 177.923395 
L 358.516565 175.848384 
L 358.54414 173.773373 
L 358.572799 171.698361 
L 358.598523 169.62335 
L 358.61706 167.548339 
L 358.624039 165.473327 
L 358.615239 163.398316 
L 358.586997 161.323305 
L 358.536741 159.248293 
L 358.463525 157.173282 
L 358.368452 155.098271 
L 358.254872 153.023259 
L 358.128234 150.948248 
L 357.99558 148.873237 
L 357.864693 146.798225 
L 357.743001 144.723214 
L 357.636374 142.648203 
L 357.547971 140.573191 
L 357.477282 138.49818 
L 357.419479 136.423169 
L 357.365156 134.348157 
L 357.300474 132.273146 
L 357.207709 130.198135 
L 357.066141 128.123123 
L 356.853225 126.048112 
L 356.545951 123.973101 
L 356.122294 121.898089 
L 355.562666 119.823078 
L 354.851262 117.748067 
L 353.977203 115.673055 
L 352.935387 113.598044 
L 351.726944 111.523033 
L 350.359236 109.448021 
L 348.845356 107.37301 
L 347.203137 105.297999 
L 345.453762 103.222987 
L 343.620141 101.147976 
L 341.725319 99.072964 
L 339.791234 96.997953 
L 337.838152 94.922942 
L 335.885054 92.84793 
L 333.951119 90.772919 
L 332.058195 88.697908 
L 330.233913 86.622896 
L 328.514809 84.547885 
L 326.948643 82.472874 
L 325.595046 80.397862 
L 324.523782 78.322851 
L 323.810274 76.24784 
L 323.528553 74.172828 
L 323.742387 72.097817 
L 324.495872 70.022806 
L 325.80505 67.947794 
L 327.652176 65.872783 
L 329.983858 63.797772 
L 332.713691 61.72276 
L 335.729209 59.647749 
L 338.902178 57.572738 
L 383.113647 57.572738 
L 383.113647 57.572738 
L 386.286616 59.647749 
L 389.302134 61.72276 
L 392.031967 63.797772 
L 394.363649 65.872783 
L 396.210776 67.947794 
L 397.519954 70.022806 
L 398.273438 72.097817 
L 398.487273 74.172828 
L 398.205552 76.24784 
L 397.492044 78.322851 
L 396.42078 80.397862 
L 395.067182 82.472874 
L 393.501016 84.547885 
L 391.781912 86.622896 
L 389.95763 88.697908 
L 388.064707 90.772919 
L 386.130772 92.84793 
L 384.177674 94.922942 
L 382.224591 96.997953 
L 380.290506 99.072964 
L 378.395685 101.147976 
L 376.562063 103.222987 
L 374.812688 105.297999 
L 373.170469 107.37301 
L 371.656589 109.448021 
L 370.288881 111.523033 
L 369.080438 113.598044 
L 368.038622 115.673055 
L 367.164563 117.748067 
L 366.453159 119.823078 
L 365.893531 121.898089 
L 365.469874 123.973101 
L 365.1626 126.048112 
L 364.949684 128.123123 
L 364.808116 130.198135 
L 364.715351 132.273146 
L 364.65067 134.348157 
L 364.596347 136.423169 
L 364.538544 138.49818 
L 364.467855 140.573191 
L 364.379452 142.648203 
L 364.272825 144.723214 
L 364.151132 146.798225 
L 364.020245 148.873237 
L 363.887591 150.948248 
L 363.760953 153.023259 
L 363.647373 155.098271 
L 363.552301 157.173282 
L 363.479084 159.248293 
L 363.428829 161.323305 
L 363.400587 163.398316 
L 363.391786 165.473327 
L 363.398766 167.548339 
L 363.417302 169.62335 
L 363.443026 171.698361 
L 363.471685 173.773373 
L 363.49926 175.848384 
L 363.521973 177.923395 
L 363.536253 179.998407 
L 363.538712 182.073418 
L 363.526182 184.148429 
L 363.495816 186.223441 
L 363.445259 188.298452 
L 363.372857 190.373463 
L 363.277875 192.448475 
L 363.160688 194.523486 
L 363.022901 196.598497 
L 362.867389 198.673509 
L 362.698217 200.74852 
L 362.520454 202.823531 
L 362.339881 204.898543 
L 362.16262 206.973554 
L 361.994737 209.048566 
L 361.841846 211.123577 
L 361.708762 213.198588 
L 361.59923 215.2736 
L 361.515738 217.348611 
L 361.459412 219.423622 
L 361.429989 221.498634 
L 361.425846 223.573645 
L 361.4441 225.648656 
L 361.480755 227.723668 
L 361.530939 229.798679 
L 361.5892 231.87369 
L 361.649889 233.948702 
L 361.707574 236.023713 
L 361.757473 238.098724 
L 361.795822 240.173736 
L 361.820145 242.248747 
L 361.829357 244.323758 
L 361.823707 246.39877 
L 361.804546 248.473781 
L 361.773991 250.548792 
L 361.734537 252.623804 
L 361.688684 254.698815 
L 361.638661 256.773826 
L 361.586266 258.848838 
L 361.532829 260.923849 
L 361.479293 262.99886 
z
" clip-path="url(#p0f207bb4ab)" style="fill: #1f77b4; fill-opacity: 0.3"/>
   </g>
   <g id="matplotlib.axis_1">
    <g id="xtick_1">
     <g id="line2d_1">
      <defs>
       <path id="mb1fc2eba1f" d="M 0 0 
L 0 3.5 
" style="stroke: #000000; stroke-width: 0.8"/>
      </defs>
      <g>
       <use xlink:href="#mb1fc2eba1f" x="69.668354" y="307.584" style="stroke: #000000; stroke-width: 0.8"/>
      </g>
     </g>
     <g id="text_1">
      <!-- 250 -->
      <g transform="translate(60.124604 322.182437)scale(0.1 -0.1)">
       <defs>
        <path id="DejaVuSans-32" d="M 1228 531 
L 3431 531 
L 3431 0 
L 469 0 
L 469 531 
Q 828 903 1448 1529 
Q 2069 2156 2228 2338 
Q 2531 2678 2651 2914 
Q 2772 3150 2772 3378 
Q 2772 3750 2511 3984 
Q 2250 4219 1831 4219 
Q 1534 4219 1204 4116 
Q 875 4013 500 3803 
L 500 4441 
Q 881 4594 1212 4672 
Q 1544 4750 1819 4750 
Q 2544 4750 2975 4387 
Q 3406 4025 3406 3419 
Q 3406 3131 3298 2873 
Q 3191 2616 2906 2266 
Q 2828 2175 2409 1742 
Q 1991 1309 1228 531 
z
" transform="scale(0.015625)"/>
        <path id="DejaVuSans-35" d="M 691 4666 
L 3169 4666 
L 3169 4134 
L 1269 4134 
L 1269 2991 
Q 1406 3038 1543 3061 
Q 1681 3084 1819 3084 
Q 2600 3084 3056 2656 
Q 3513 2228 3513 1497 
Q 3513 744 3044 326 
Q 2575 -91 1722 -91 
Q 1428 -91 1123 -41 
Q 819 9 494 109 
L 494 744 
Q 775 591 1075 516 
Q 1375 441 1709 441 
Q 2250 441 2565 725 
Q 2881 1009 2881 1497 
Q 2881 1984 2565 2268 
Q 2250 2553 1709 2553 
Q 1456 2553 1204 2497 
Q 953 2441 691 2322 
L 691 4666 
z
" transform="scale(0.015625)"/>
        <path id="DejaVuSans-30" d="M 2034 4250 
Q 1547 4250 1301 3770 
Q 1056 3291 1056 2328 
Q 1056 1369 1301 889 
Q 1547 409 2034 409 
Q 2525 409 2770 889 
Q 3016 1369 3016 2328 
Q 3016 3291 2770 3770 
Q 2525 4250 2034 4250 
z
M 2034 4750 
Q 2819 4750 3233 4129 
Q 3647 3509 3647 2328 
Q 3647 1150 3233 529 
Q 2819 -91 2034 -91 
Q 1250 -91 836 529 
Q 422 1150 422 2328 
Q 422 3509 836 4129 
Q 1250 4750 2034 4750 
z
" transform="scale(0.015625)"/>
       </defs>
       <use xlink:href="#DejaVuSans-32"/>
       <use xlink:href="#DejaVuSans-35" x="63.623047"/>
       <use xlink:href="#DejaVuSans-30" x="127.246094"/>
      </g>
     </g>
    </g>
    <g id="xtick_2">
     <g id="line2d_2">
      <g>
       <use xlink:href="#mb1fc2eba1f" x="111.312087" y="307.584" style="stroke: #000000; stroke-width: 0.8"/>
      </g>
     </g>
     <g id="text_2">
      <!-- 500 -->
      <g transform="translate(101.768337 322.182437)scale(0.1 -0.1)">
       <use xlink:href="#DejaVuSans-35"/>
       <use xlink:href="#DejaVuSans-30" x="63.623047"/>
       <use xlink:href="#DejaVuSans-30" x="127.246094"/>
      </g>
     </g>
    </g>
    <g id="xtick_3">
     <g id="line2d_3">
      <g>
       <use xlink:href="#mb1fc2eba1f" x="152.955821" y="307.584" style="stroke: #000000; stroke-width: 0.8"/>
      </g>
     </g>
     <g id="text_3">
      <!-- 750 -->
      <g transform="translate(143.412071 322.182437)scale(0.1 -0.1)">
       <defs>
        <path id="DejaVuSans-37" d="M 525 4666 
L 3525 4666 
L 3525 4397 
L 1831 0 
L 1172 0 
L 2766 4134 
L 525 4134 
L 525 4666 
z
" transform="scale(0.015625)"/>
       </defs>
       <use xlink:href="#DejaVuSans-37"/>
       <use xlink:href="#DejaVuSans-35" x="63.623047"/>
       <use xlink:href="#DejaVuSans-30" x="127.246094"/>
      </g>
     </g>
    </g>
    <g id="xtick_4">
     <g id="line2d_4">
      <g>
       <use xlink:href="#mb1fc2eba1f" x="194.599554" y="307.584" style="stroke: #000000; stroke-width: 0.8"/>
      </g>
     </g>
     <g id="text_4">
      <!-- 1000 -->
      <g transform="translate(181.874554 322.182437)scale(0.1 -0.1)">
       <defs>
        <path id="DejaVuSans-31" d="M 794 531 
L 1825 531 
L 1825 4091 
L 703 3866 
L 703 4441 
L 1819 4666 
L 2450 4666 
L 2450 531 
L 3481 531 
L 3481 0 
L 794 0 
L 794 531 
z
" transform="scale(0.015625)"/>
       </defs>
       <use xlink:href="#DejaVuSans-31"/>
       <use xlink:href="#DejaVuSans-30" x="63.623047"/>
       <use xlink:href="#DejaVuSans-30" x="127.246094"/>
       <use xlink:href="#DejaVuSans-30" x="190.869141"/>
      </g>
     </g>
    </g>
    <g id="xtick_5">
     <g id="line2d_5">
      <g>
       <use xlink:href="#mb1fc2eba1f" x="236.243287" y="307.584" style="stroke: #000000; stroke-width: 0.8"/>
      </g>
     </g>
     <g id="text_5">
      <!-- 1250 -->
      <g transform="translate(223.518287 322.182437)scale(0.1 -0.1)">
       <use xlink:href="#DejaVuSans-31"/>
       <use xlink:href="#DejaVuSans-32" x="63.623047"/>
       <use xlink:href="#DejaVuSans-35" x="127.246094"/>
       <use xlink:href="#DejaVuSans-30" x="190.869141"/>
      </g>
     </g>
    </g>
    <g id="xtick_6">
     <g id="line2d_6">
      <g>
       <use xlink:href="#mb1fc2eba1f" x="277.887021" y="307.584" style="stroke: #000000; stroke-width: 0.8"/>
      </g>
     </g>
     <g id="text_6">
      <!-- 1500 -->
      <g transform="translate(265.162021 322.182437)scale(0.1 -0.1)">
       <use xlink:href="#DejaVuSans-31"/>
       <use xlink:href="#DejaVuSans-35" x="63.623047"/>
       <use xlink:href="#DejaVuSans-30" x="127.246094"/>
       <use xlink:href="#DejaVuSans-30" x="190.869141"/>
      </g>
     </g>
    </g>
    <g id="xtick_7">
     <g id="line2d_7">
      <g>
       <use xlink:href="#mb1fc2eba1f" x="319.530754" y="307.584" style="stroke: #000000; stroke-width: 0.8"/>
      </g>
     </g>
     <g id="text_7">
      <!-- 1750 -->
      <g transform="translate(306.805754 322.182437)scale(0.1 -0.1)">
       <use xlink:href="#DejaVuSans-31"/>
       <use xlink:href="#DejaVuSans-37" x="63.623047"/>
       <use xlink:href="#DejaVuSans-35" x="127.246094"/>
       <use xlink:href="#DejaVuSans-30" x="190.869141"/>
      </g>
     </g>
    </g>
    <g id="xtick_8">
     <g id="line2d_8">
      <g>
       <use xlink:href="#mb1fc2eba1f" x="361.174488" y="307.584" style="stroke: #000000; stroke-width: 0.8"/>
      </g>
     </g>
     <g id="text_8">
      <!-- 2000 -->
      <g transform="translate(348.449488 322.182437)scale(0.1 -0.1)">
       <use xlink:href="#DejaVuSans-32"/>
       <use xlink:href="#DejaVuSans-30" x="63.623047"/>
       <use xlink:href="#DejaVuSans-30" x="127.246094"/>
       <use xlink:href="#DejaVuSans-30" x="190.869141"/>
      </g>
     </g>
    </g>
    <g id="xtick_9">
     <g id="line2d_9">
      <g>
       <use xlink:href="#mb1fc2eba1f" x="402.818221" y="307.584" style="stroke: #000000; stroke-width: 0.8"/>
      </g>
     </g>
     <g id="text_9">
      <!-- 2250 -->
      <g transform="translate(390.093221 322.182437)scale(0.1 -0.1)">
       <use xlink:href="#DejaVuSans-32"/>
       <use xlink:href="#DejaVuSans-32" x="63.623047"/>
       <use xlink:href="#DejaVuSans-35" x="127.246094"/>
       <use xlink:href="#DejaVuSans-30" x="190.869141"/>
      </g>
     </g>
    </g>
    <g id="text_10">
     <!-- Learned Episodes -->
     <g transform="translate(192.102187 335.860562)scale(0.1 -0.1)">
      <defs>
       <path id="DejaVuSans-4c" d="M 628 4666 
L 1259 4666 
L 1259 531 
L 3531 531 
L 3531 0 
L 628 0 
L 628 4666 
z
" transform="scale(0.015625)"/>
       <path id="DejaVuSans-65" d="M 3597 1894 
L 3597 1613 
L 953 1613 
Q 991 1019 1311 708 
Q 1631 397 2203 397 
Q 2534 397 2845 478 
Q 3156 559 3463 722 
L 3463 178 
Q 3153 47 2828 -22 
Q 2503 -91 2169 -91 
Q 1331 -91 842 396 
Q 353 884 353 1716 
Q 353 2575 817 3079 
Q 1281 3584 2069 3584 
Q 2775 3584 3186 3129 
Q 3597 2675 3597 1894 
z
M 3022 2063 
Q 3016 2534 2758 2815 
Q 2500 3097 2075 3097 
Q 1594 3097 1305 2825 
Q 1016 2553 972 2059 
L 3022 2063 
z
" transform="scale(0.015625)"/>
       <path id="DejaVuSans-61" d="M 2194 1759 
Q 1497 1759 1228 1600 
Q 959 1441 959 1056 
Q 959 750 1161 570 
Q 1363 391 1709 391 
Q 2188 391 2477 730 
Q 2766 1069 2766 1631 
L 2766 1759 
L 2194 1759 
z
M 3341 1997 
L 3341 0 
L 2766 0 
L 2766 531 
Q 2569 213 2275 61 
Q 1981 -91 1556 -91 
Q 1019 -91 701 211 
Q 384 513 384 1019 
Q 384 1609 779 1909 
Q 1175 2209 1959 2209 
L 2766 2209 
L 2766 2266 
Q 2766 2663 2505 2880 
Q 2244 3097 1772 3097 
Q 1472 3097 1187 3025 
Q 903 2953 641 2809 
L 641 3341 
Q 956 3463 1253 3523 
Q 1550 3584 1831 3584 
Q 2591 3584 2966 3190 
Q 3341 2797 3341 1997 
z
" transform="scale(0.015625)"/>
       <path id="DejaVuSans-72" d="M 2631 2963 
Q 2534 3019 2420 3045 
Q 2306 3072 2169 3072 
Q 1681 3072 1420 2755 
Q 1159 2438 1159 1844 
L 1159 0 
L 581 0 
L 581 3500 
L 1159 3500 
L 1159 2956 
Q 1341 3275 1631 3429 
Q 1922 3584 2338 3584 
Q 2397 3584 2469 3576 
Q 2541 3569 2628 3553 
L 2631 2963 
z
" transform="scale(0.015625)"/>
       <path id="DejaVuSans-6e" d="M 3513 2113 
L 3513 0 
L 2938 0 
L 2938 2094 
Q 2938 2591 2744 2837 
Q 2550 3084 2163 3084 
Q 1697 3084 1428 2787 
Q 1159 2491 1159 1978 
L 1159 0 
L 581 0 
L 581 3500 
L 1159 3500 
L 1159 2956 
Q 1366 3272 1645 3428 
Q 1925 3584 2291 3584 
Q 2894 3584 3203 3211 
Q 3513 2838 3513 2113 
z
" transform="scale(0.015625)"/>
       <path id="DejaVuSans-64" d="M 2906 2969 
L 2906 4863 
L 3481 4863 
L 3481 0 
L 2906 0 
L 2906 525 
Q 2725 213 2448 61 
Q 2172 -91 1784 -91 
Q 1150 -91 751 415 
Q 353 922 353 1747 
Q 353 2572 751 3078 
Q 1150 3584 1784 3584 
Q 2172 3584 2448 3432 
Q 2725 3281 2906 2969 
z
M 947 1747 
Q 947 1113 1208 752 
Q 1469 391 1925 391 
Q 2381 391 2643 752 
Q 2906 1113 2906 1747 
Q 2906 2381 2643 2742 
Q 2381 3103 1925 3103 
Q 1469 3103 1208 2742 
Q 947 2381 947 1747 
z
" transform="scale(0.015625)"/>
       <path id="DejaVuSans-20" transform="scale(0.015625)"/>
       <path id="DejaVuSans-45" d="M 628 4666 
L 3578 4666 
L 3578 4134 
L 1259 4134 
L 1259 2753 
L 3481 2753 
L 3481 2222 
L 1259 2222 
L 1259 531 
L 3634 531 
L 3634 0 
L 628 0 
L 628 4666 
z
" transform="scale(0.015625)"/>
       <path id="DejaVuSans-70" d="M 1159 525 
L 1159 -1331 
L 581 -1331 
L 581 3500 
L 1159 3500 
L 1159 2969 
Q 1341 3281 1617 3432 
Q 1894 3584 2278 3584 
Q 2916 3584 3314 3078 
Q 3713 2572 3713 1747 
Q 3713 922 3314 415 
Q 2916 -91 2278 -91 
Q 1894 -91 1617 61 
Q 1341 213 1159 525 
z
M 3116 1747 
Q 3116 2381 2855 2742 
Q 2594 3103 2138 3103 
Q 1681 3103 1420 2742 
Q 1159 2381 1159 1747 
Q 1159 1113 1420 752 
Q 1681 391 2138 391 
Q 2594 391 2855 752 
Q 3116 1113 3116 1747 
z
" transform="scale(0.015625)"/>
       <path id="DejaVuSans-69" d="M 603 3500 
L 1178 3500 
L 1178 0 
L 603 0 
L 603 3500 
z
M 603 4863 
L 1178 4863 
L 1178 4134 
L 603 4134 
L 603 4863 
z
" transform="scale(0.015625)"/>
       <path id="DejaVuSans-73" d="M 2834 3397 
L 2834 2853 
Q 2591 2978 2328 3040 
Q 2066 3103 1784 3103 
Q 1356 3103 1142 2972 
Q 928 2841 928 2578 
Q 928 2378 1081 2264 
Q 1234 2150 1697 2047 
L 1894 2003 
Q 2506 1872 2764 1633 
Q 3022 1394 3022 966 
Q 3022 478 2636 193 
Q 2250 -91 1575 -91 
Q 1294 -91 989 -36 
Q 684 19 347 128 
L 347 722 
Q 666 556 975 473 
Q 1284 391 1588 391 
Q 1994 391 2212 530 
Q 2431 669 2431 922 
Q 2431 1156 2273 1281 
Q 2116 1406 1581 1522 
L 1381 1569 
Q 847 1681 609 1914 
Q 372 2147 372 2553 
Q 372 3047 722 3315 
Q 1072 3584 1716 3584 
Q 2034 3584 2315 3537 
Q 2597 3491 2834 3397 
z
" transform="scale(0.015625)"/>
       <path id="DejaVuSans-6f" d="M 1959 3097 
Q 1497 3097 1228 2736 
Q 959 2375 959 1747 
Q 959 1119 1226 758 
Q 1494 397 1959 397 
Q 2419 397 2687 759 
Q 2956 1122 2956 1747 
Q 2956 2369 2687 2733 
Q 2419 3097 1959 3097 
z
M 1959 3584 
Q 2709 3584 3137 3096 
Q 3566 2609 3566 1747 
Q 3566 888 3137 398 
Q 2709 -91 1959 -91 
Q 1206 -91 779 398 
Q 353 888 353 1747 
Q 353 2609 779 3096 
Q 1206 3584 1959 3584 
z
" transform="scale(0.015625)"/>
      </defs>
      <use xlink:href="#DejaVuSans-4c"/>
      <use xlink:href="#DejaVuSans-65" x="53.962891"/>
      <use xlink:href="#DejaVuSans-61" x="115.486328"/>
      <use xlink:href="#DejaVuSans-72" x="176.765625"/>
      <use xlink:href="#DejaVuSans-6e" x="216.128906"/>
      <use xlink:href="#DejaVuSans-65" x="279.507812"/>
      <use xlink:href="#DejaVuSans-64" x="341.03125"/>
      <use xlink:href="#DejaVuSans-20" x="404.507812"/>
      <use xlink:href="#DejaVuSans-45" x="436.294922"/>
      <use xlink:href="#DejaVuSans-70" x="499.478516"/>
      <use xlink:href="#DejaVuSans-69" x="562.955078"/>
      <use xlink:href="#DejaVuSans-73" x="590.738281"/>
      <use xlink:href="#DejaVuSans-6f" x="642.837891"/>
      <use xlink:href="#DejaVuSans-64" x="704.019531"/>
      <use xlink:href="#DejaVuSans-65" x="767.496094"/>
      <use xlink:href="#DejaVuSans-73" x="829.019531"/>
     </g>
    </g>
   </g>
   <g id="matplotlib.axis_2">
    <g id="ytick_1">
     <g id="line2d_10">
      <defs>
       <path id="m0f8e02e993" d="M 0 0 
L -3.5 0 
" style="stroke: #000000; stroke-width: 0.8"/>
      </defs>
      <g>
       <use xlink:href="#m0f8e02e993" x="57.6" y="264.29617" style="stroke: #000000; stroke-width: 0.8"/>
      </g>
     </g>
     <g id="text_11">
      <!-- −400 -->
      <g transform="translate(23.132812 268.095388)scale(0.1 -0.1)">
       <defs>
        <path id="DejaVuSans-2212" d="M 678 2272 
L 4684 2272 
L 4684 1741 
L 678 1741 
L 678 2272 
z
" transform="scale(0.015625)"/>
        <path id="DejaVuSans-34" d="M 2419 4116 
L 825 1625 
L 2419 1625 
L 2419 4116 
z
M 2253 4666 
L 3047 4666 
L 3047 1625 
L 3713 1625 
L 3713 1100 
L 3047 1100 
L 3047 0 
L 2419 0 
L 2419 1100 
L 313 1100 
L 313 1709 
L 2253 4666 
z
" transform="scale(0.015625)"/>
       </defs>
       <use xlink:href="#DejaVuSans-2212"/>
       <use xlink:href="#DejaVuSans-34" x="83.789062"/>
       <use xlink:href="#DejaVuSans-30" x="147.412109"/>
       <use xlink:href="#DejaVuSans-30" x="211.035156"/>
      </g>
     </g>
    </g>
    <g id="ytick_2">
     <g id="line2d_11">
      <g>
       <use xlink:href="#m0f8e02e993" x="57.6" y="207.891413" style="stroke: #000000; stroke-width: 0.8"/>
      </g>
     </g>
     <g id="text_12">
      <!-- −300 -->
      <g transform="translate(23.132812 211.690632)scale(0.1 -0.1)">
       <defs>
        <path id="DejaVuSans-33" d="M 2597 2516 
Q 3050 2419 3304 2112 
Q 3559 1806 3559 1356 
Q 3559 666 3084 287 
Q 2609 -91 1734 -91 
Q 1441 -91 1130 -33 
Q 819 25 488 141 
L 488 750 
Q 750 597 1062 519 
Q 1375 441 1716 441 
Q 2309 441 2620 675 
Q 2931 909 2931 1356 
Q 2931 1769 2642 2001 
Q 2353 2234 1838 2234 
L 1294 2234 
L 1294 2753 
L 1863 2753 
Q 2328 2753 2575 2939 
Q 2822 3125 2822 3475 
Q 2822 3834 2567 4026 
Q 2313 4219 1838 4219 
Q 1578 4219 1281 4162 
Q 984 4106 628 3988 
L 628 4550 
Q 988 4650 1302 4700 
Q 1616 4750 1894 4750 
Q 2613 4750 3031 4423 
Q 3450 4097 3450 3541 
Q 3450 3153 3228 2886 
Q 3006 2619 2597 2516 
z
" transform="scale(0.015625)"/>
       </defs>
       <use xlink:href="#DejaVuSans-2212"/>
       <use xlink:href="#DejaVuSans-33" x="83.789062"/>
       <use xlink:href="#DejaVuSans-30" x="147.412109"/>
       <use xlink:href="#DejaVuSans-30" x="211.035156"/>
      </g>
     </g>
    </g>
    <g id="ytick_3">
     <g id="line2d_12">
      <g>
       <use xlink:href="#m0f8e02e993" x="57.6" y="151.486657" style="stroke: #000000; stroke-width: 0.8"/>
      </g>
     </g>
     <g id="text_13">
      <!-- −200 -->
      <g transform="translate(23.132812 155.285876)scale(0.1 -0.1)">
       <use xlink:href="#DejaVuSans-2212"/>
       <use xlink:href="#DejaVuSans-32" x="83.789062"/>
       <use xlink:href="#DejaVuSans-30" x="147.412109"/>
       <use xlink:href="#DejaVuSans-30" x="211.035156"/>
      </g>
     </g>
    </g>
    <g id="ytick_4">
     <g id="line2d_13">
      <g>
       <use xlink:href="#m0f8e02e993" x="57.6" y="95.081901" style="stroke: #000000; stroke-width: 0.8"/>
      </g>
     </g>
     <g id="text_14">
      <!-- −100 -->
      <g transform="translate(23.132812 98.881119)scale(0.1 -0.1)">
       <use xlink:href="#DejaVuSans-2212"/>
       <use xlink:href="#DejaVuSans-31" x="83.789062"/>
       <use xlink:href="#DejaVuSans-30" x="147.412109"/>
       <use xlink:href="#DejaVuSans-30" x="211.035156"/>
      </g>
     </g>
    </g>
    <g id="text_15">
     <!-- Reward Density -->
     <g transform="translate(17.053125 213.74675)rotate(-90)scale(0.1 -0.1)">
      <defs>
       <path id="DejaVuSans-52" d="M 2841 2188 
Q 3044 2119 3236 1894 
Q 3428 1669 3622 1275 
L 4263 0 
L 3584 0 
L 2988 1197 
Q 2756 1666 2539 1819 
Q 2322 1972 1947 1972 
L 1259 1972 
L 1259 0 
L 628 0 
L 628 4666 
L 2053 4666 
Q 2853 4666 3247 4331 
Q 3641 3997 3641 3322 
Q 3641 2881 3436 2590 
Q 3231 2300 2841 2188 
z
M 1259 4147 
L 1259 2491 
L 2053 2491 
Q 2509 2491 2742 2702 
Q 2975 2913 2975 3322 
Q 2975 3731 2742 3939 
Q 2509 4147 2053 4147 
L 1259 4147 
z
" transform="scale(0.015625)"/>
       <path id="DejaVuSans-77" d="M 269 3500 
L 844 3500 
L 1563 769 
L 2278 3500 
L 2956 3500 
L 3675 769 
L 4391 3500 
L 4966 3500 
L 4050 0 
L 3372 0 
L 2619 2869 
L 1863 0 
L 1184 0 
L 269 3500 
z
" transform="scale(0.015625)"/>
       <path id="DejaVuSans-44" d="M 1259 4147 
L 1259 519 
L 2022 519 
Q 2988 519 3436 956 
Q 3884 1394 3884 2338 
Q 3884 3275 3436 3711 
Q 2988 4147 2022 4147 
L 1259 4147 
z
M 628 4666 
L 1925 4666 
Q 3281 4666 3915 4102 
Q 4550 3538 4550 2338 
Q 4550 1131 3912 565 
Q 3275 0 1925 0 
L 628 0 
L 628 4666 
z
" transform="scale(0.015625)"/>
       <path id="DejaVuSans-74" d="M 1172 4494 
L 1172 3500 
L 2356 3500 
L 2356 3053 
L 1172 3053 
L 1172 1153 
Q 1172 725 1289 603 
Q 1406 481 1766 481 
L 2356 481 
L 2356 0 
L 1766 0 
Q 1100 0 847 248 
Q 594 497 594 1153 
L 594 3053 
L 172 3053 
L 172 3500 
L 594 3500 
L 594 4494 
L 1172 4494 
z
" transform="scale(0.015625)"/>
       <path id="DejaVuSans-79" d="M 2059 -325 
Q 1816 -950 1584 -1140 
Q 1353 -1331 966 -1331 
L 506 -1331 
L 506 -850 
L 844 -850 
Q 1081 -850 1212 -737 
Q 1344 -625 1503 -206 
L 1606 56 
L 191 3500 
L 800 3500 
L 1894 763 
L 2988 3500 
L 3597 3500 
L 2059 -325 
z
" transform="scale(0.015625)"/>
      </defs>
      <use xlink:href="#DejaVuSans-52"/>
      <use xlink:href="#DejaVuSans-65" x="64.982422"/>
      <use xlink:href="#DejaVuSans-77" x="126.505859"/>
      <use xlink:href="#DejaVuSans-61" x="208.292969"/>
      <use xlink:href="#DejaVuSans-72" x="269.572266"/>
      <use xlink:href="#DejaVuSans-64" x="308.935547"/>
      <use xlink:href="#DejaVuSans-20" x="372.412109"/>
      <use xlink:href="#DejaVuSans-44" x="404.199219"/>
      <use xlink:href="#DejaVuSans-65" x="481.201172"/>
      <use xlink:href="#DejaVuSans-6e" x="542.724609"/>
      <use xlink:href="#DejaVuSans-73" x="606.103516"/>
      <use xlink:href="#DejaVuSans-69" x="658.203125"/>
      <use xlink:href="#DejaVuSans-74" x="685.986328"/>
      <use xlink:href="#DejaVuSans-79" x="725.195312"/>
     </g>
    </g>
   </g>
   <g id="LineCollection_1">
    <path d="M 92.572407 86.318406 
L 130.051767 86.318406 
" clip-path="url(#p0f207bb4ab)" style="fill: none; stroke: #1f77b4; stroke-width: 1.5"/>
    <path d="M 175.859874 88.59761 
L 213.339234 88.59761 
" clip-path="url(#p0f207bb4ab)" style="fill: none; stroke: #1f77b4; stroke-width: 1.5"/>
    <path d="M 259.147341 84.360936 
L 296.626701 84.360936 
" clip-path="url(#p0f207bb4ab)" style="fill: none; stroke: #1f77b4; stroke-width: 1.5"/>
    <path d="M 342.268233 91.308197 
L 379.747593 91.308197 
" clip-path="url(#p0f207bb4ab)" style="fill: none; stroke: #1f77b4; stroke-width: 1.5"/>
   </g>
   <g id="LineCollection_2">
    <path d="M 92.572407 53.568 
L 130.051767 53.568 
" clip-path="url(#p0f207bb4ab)" style="fill: none; stroke: #1f77b4; stroke-width: 1.5"/>
    <path d="M 175.859874 55.767785 
L 213.339234 55.767785 
" clip-path="url(#p0f207bb4ab)" style="fill: none; stroke: #1f77b4; stroke-width: 1.5"/>
    <path d="M 259.147341 58.926452 
L 296.626701 58.926452 
" clip-path="url(#p0f207bb4ab)" style="fill: none; stroke: #1f77b4; stroke-width: 1.5"/>
    <path d="M 342.268233 57.572738 
L 379.747593 57.572738 
" clip-path="url(#p0f207bb4ab)" style="fill: none; stroke: #1f77b4; stroke-width: 1.5"/>
   </g>
   <g id="LineCollection_3">
    <path d="M 92.572407 289.227072 
L 130.051767 289.227072 
" clip-path="url(#p0f207bb4ab)" style="fill: none; stroke: #1f77b4; stroke-width: 1.5"/>
    <path d="M 175.859874 294.811143 
L 213.339234 294.811143 
" clip-path="url(#p0f207bb4ab)" style="fill: none; stroke: #1f77b4; stroke-width: 1.5"/>
    <path d="M 259.147341 295.488 
L 296.626701 295.488 
" clip-path="url(#p0f207bb4ab)" style="fill: none; stroke: #1f77b4; stroke-width: 1.5"/>
    <path d="M 342.268233 262.99886 
L 379.747593 262.99886 
" clip-path="url(#p0f207bb4ab)" style="fill: none; stroke: #1f77b4; stroke-width: 1.5"/>
   </g>
   <g id="LineCollection_4">
    <path d="M 111.312087 289.227072 
L 111.312087 53.568 
" clip-path="url(#p0f207bb4ab)" style="fill: none; stroke: #1f77b4; stroke-width: 1.5"/>
    <path d="M 194.599554 294.811143 
L 194.599554 55.767785 
" clip-path="url(#p0f207bb4ab)" style="fill: none; stroke: #1f77b4; stroke-width: 1.5"/>
    <path d="M 277.887021 295.488 
L 277.887021 58.926452 
" clip-path="url(#p0f207bb4ab)" style="fill: none; stroke: #1f77b4; stroke-width: 1.5"/>
    <path d="M 361.007913 262.99886 
L 361.007913 57.572738 
" clip-path="url(#p0f207bb4ab)" style="fill: none; stroke: #1f77b4; stroke-width: 1.5"/>
   </g>
   <g id="line2d_14">
    <path d="M 111.312087 86.318406 
L 194.599554 88.59761 
L 277.887021 84.360936 
L 361.007913 91.308197 
" clip-path="url(#p0f207bb4ab)" style="fill: none; stroke: #4682b4; stroke-width: 1.5; stroke-linecap: square"/>
   </g>
   <g id="patch_3">
    <path d="M 57.6 307.584 
L 57.6 41.472 
" style="fill: none; stroke: #000000; stroke-width: 0.8; stroke-linejoin: miter; stroke-linecap: square"/>
   </g>
   <g id="patch_4">
    <path d="M 414.72 307.584 
L 414.72 41.472 
" style="fill: none; stroke: #000000; stroke-width: 0.8; stroke-linejoin: miter; stroke-linecap: square"/>
   </g>
   <g id="patch_5">
    <path d="M 57.6 307.584 
L 414.72 307.584 
" style="fill: none; stroke: #000000; stroke-width: 0.8; stroke-linejoin: miter; stroke-linecap: square"/>
   </g>
   <g id="patch_6">
    <path d="M 57.6 41.472 
L 414.72 41.472 
" style="fill: none; stroke: #000000; stroke-width: 0.8; stroke-linejoin: miter; stroke-linecap: square"/>
   </g>
   <g id="text_16">
    <!-- Violinplot for progress of profits/storage_cost -->
    <g transform="translate(101.32875 35.472)scale(0.12 -0.12)">
     <defs>
      <path id="DejaVuSans-56" d="M 1831 0 
L 50 4666 
L 709 4666 
L 2188 738 
L 3669 4666 
L 4325 4666 
L 2547 0 
L 1831 0 
z
" transform="scale(0.015625)"/>
      <path id="DejaVuSans-6c" d="M 603 4863 
L 1178 4863 
L 1178 0 
L 603 0 
L 603 4863 
z
" transform="scale(0.015625)"/>
      <path id="DejaVuSans-66" d="M 2375 4863 
L 2375 4384 
L 1825 4384 
Q 1516 4384 1395 4259 
Q 1275 4134 1275 3809 
L 1275 3500 
L 2222 3500 
L 2222 3053 
L 1275 3053 
L 1275 0 
L 697 0 
L 697 3053 
L 147 3053 
L 147 3500 
L 697 3500 
L 697 3744 
Q 697 4328 969 4595 
Q 1241 4863 1831 4863 
L 2375 4863 
z
" transform="scale(0.015625)"/>
      <path id="DejaVuSans-67" d="M 2906 1791 
Q 2906 2416 2648 2759 
Q 2391 3103 1925 3103 
Q 1463 3103 1205 2759 
Q 947 2416 947 1791 
Q 947 1169 1205 825 
Q 1463 481 1925 481 
Q 2391 481 2648 825 
Q 2906 1169 2906 1791 
z
M 3481 434 
Q 3481 -459 3084 -895 
Q 2688 -1331 1869 -1331 
Q 1566 -1331 1297 -1286 
Q 1028 -1241 775 -1147 
L 775 -588 
Q 1028 -725 1275 -790 
Q 1522 -856 1778 -856 
Q 2344 -856 2625 -561 
Q 2906 -266 2906 331 
L 2906 616 
Q 2728 306 2450 153 
Q 2172 0 1784 0 
Q 1141 0 747 490 
Q 353 981 353 1791 
Q 353 2603 747 3093 
Q 1141 3584 1784 3584 
Q 2172 3584 2450 3431 
Q 2728 3278 2906 2969 
L 2906 3500 
L 3481 3500 
L 3481 434 
z
" transform="scale(0.015625)"/>
      <path id="DejaVuSans-2f" d="M 1625 4666 
L 2156 4666 
L 531 -594 
L 0 -594 
L 1625 4666 
z
" transform="scale(0.015625)"/>
      <path id="DejaVuSans-5f" d="M 3263 -1063 
L 3263 -1509 
L -63 -1509 
L -63 -1063 
L 3263 -1063 
z
" transform="scale(0.015625)"/>
      <path id="DejaVuSans-63" d="M 3122 3366 
L 3122 2828 
Q 2878 2963 2633 3030 
Q 2388 3097 2138 3097 
Q 1578 3097 1268 2742 
Q 959 2388 959 1747 
Q 959 1106 1268 751 
Q 1578 397 2138 397 
Q 2388 397 2633 464 
Q 2878 531 3122 666 
L 3122 134 
Q 2881 22 2623 -34 
Q 2366 -91 2075 -91 
Q 1284 -91 818 406 
Q 353 903 353 1747 
Q 353 2603 823 3093 
Q 1294 3584 2113 3584 
Q 2378 3584 2631 3529 
Q 2884 3475 3122 3366 
z
" transform="scale(0.015625)"/>
     </defs>
     <use xlink:href="#DejaVuSans-56"/>
     <use xlink:href="#DejaVuSans-69" x="66.158203"/>
     <use xlink:href="#DejaVuSans-6f" x="93.941406"/>
     <use xlink:href="#DejaVuSans-6c" x="155.123047"/>
     <use xlink:href="#DejaVuSans-69" x="182.90625"/>
     <use xlink:href="#DejaVuSans-6e" x="210.689453"/>
     <use xlink:href="#DejaVuSans-70" x="274.068359"/>
     <use xlink:href="#DejaVuSans-6c" x="337.544922"/>
     <use xlink:href="#DejaVuSans-6f" x="365.328125"/>
     <use xlink:href="#DejaVuSans-74" x="426.509766"/>
     <use xlink:href="#DejaVuSans-20" x="465.71875"/>
     <use xlink:href="#DejaVuSans-66" x="497.505859"/>
     <use xlink:href="#DejaVuSans-6f" x="532.710938"/>
     <use xlink:href="#DejaVuSans-72" x="593.892578"/>
     <use xlink:href="#DejaVuSans-20" x="635.005859"/>
     <use xlink:href="#DejaVuSans-70" x="666.792969"/>
     <use xlink:href="#DejaVuSans-72" x="730.269531"/>
     <use xlink:href="#DejaVuSans-6f" x="769.132812"/>
     <use xlink:href="#DejaVuSans-67" x="830.314453"/>
     <use xlink:href="#DejaVuSans-72" x="893.791016"/>
     <use xlink:href="#DejaVuSans-65" x="932.654297"/>
     <use xlink:href="#DejaVuSans-73" x="994.177734"/>
     <use xlink:href="#DejaVuSans-73" x="1046.277344"/>
     <use xlink:href="#DejaVuSans-20" x="1098.376953"/>
     <use xlink:href="#DejaVuSans-6f" x="1130.164062"/>
     <use xlink:href="#DejaVuSans-66" x="1191.345703"/>
     <use xlink:href="#DejaVuSans-20" x="1226.550781"/>
     <use xlink:href="#DejaVuSans-70" x="1258.337891"/>
     <use xlink:href="#DejaVuSans-72" x="1321.814453"/>
     <use xlink:href="#DejaVuSans-6f" x="1360.677734"/>
     <use xlink:href="#DejaVuSans-66" x="1421.859375"/>
     <use xlink:href="#DejaVuSans-69" x="1457.064453"/>
     <use xlink:href="#DejaVuSans-74" x="1484.847656"/>
     <use xlink:href="#DejaVuSans-73" x="1524.056641"/>
     <use xlink:href="#DejaVuSans-2f" x="1576.15625"/>
     <use xlink:href="#DejaVuSans-73" x="1609.847656"/>
     <use xlink:href="#DejaVuSans-74" x="1661.947266"/>
     <use xlink:href="#DejaVuSans-6f" x="1701.15625"/>
     <use xlink:href="#DejaVuSans-72" x="1762.337891"/>
     <use xlink:href="#DejaVuSans-61" x="1803.451172"/>
     <use xlink:href="#DejaVuSans-67" x="1864.730469"/>
     <use xlink:href="#DejaVuSans-65" x="1928.207031"/>
     <use xlink:href="#DejaVuSans-5f" x="1989.730469"/>
     <use xlink:href="#DejaVuSans-63" x="2039.730469"/>
     <use xlink:href="#DejaVuSans-6f" x="2094.710938"/>
     <use xlink:href="#DejaVuSans-73" x="2155.892578"/>
     <use xlink:href="#DejaVuSans-74" x="2207.992188"/>
    </g>
   </g>
   <g id="legend_1">
    <g id="patch_7">
     <path d="M 284.430938 64.150125 
L 407.72 64.150125 
Q 409.72 64.150125 409.72 62.150125 
L 409.72 48.472 
Q 409.72 46.472 407.72 46.472 
L 284.430938 46.472 
Q 282.430938 46.472 282.430938 48.472 
L 282.430938 62.150125 
Q 282.430938 64.150125 284.430938 64.150125 
z
" style="fill: #ffffff; opacity: 0.8; stroke: #cccccc; stroke-linejoin: miter"/>
    </g>
    <g id="line2d_15">
     <path d="M 286.430938 54.570438 
L 296.430938 54.570438 
L 306.430938 54.570438 
" style="fill: none; stroke: #4682b4; stroke-width: 1.5; stroke-linecap: square"/>
    </g>
    <g id="text_17">
     <!-- Storage-Minimizer -->
     <g transform="translate(314.430938 58.070438)scale(0.1 -0.1)">
      <defs>
       <path id="DejaVuSans-53" d="M 3425 4513 
L 3425 3897 
Q 3066 4069 2747 4153 
Q 2428 4238 2131 4238 
Q 1616 4238 1336 4038 
Q 1056 3838 1056 3469 
Q 1056 3159 1242 3001 
Q 1428 2844 1947 2747 
L 2328 2669 
Q 3034 2534 3370 2195 
Q 3706 1856 3706 1288 
Q 3706 609 3251 259 
Q 2797 -91 1919 -91 
Q 1588 -91 1214 -16 
Q 841 59 441 206 
L 441 856 
Q 825 641 1194 531 
Q 1563 422 1919 422 
Q 2459 422 2753 634 
Q 3047 847 3047 1241 
Q 3047 1584 2836 1778 
Q 2625 1972 2144 2069 
L 1759 2144 
Q 1053 2284 737 2584 
Q 422 2884 422 3419 
Q 422 4038 858 4394 
Q 1294 4750 2059 4750 
Q 2388 4750 2728 4690 
Q 3069 4631 3425 4513 
z
" transform="scale(0.015625)"/>
       <path id="DejaVuSans-2d" d="M 313 2009 
L 1997 2009 
L 1997 1497 
L 313 1497 
L 313 2009 
z
" transform="scale(0.015625)"/>
       <path id="DejaVuSans-4d" d="M 628 4666 
L 1569 4666 
L 2759 1491 
L 3956 4666 
L 4897 4666 
L 4897 0 
L 4281 0 
L 4281 4097 
L 3078 897 
L 2444 897 
L 1241 4097 
L 1241 0 
L 628 0 
L 628 4666 
z
" transform="scale(0.015625)"/>
       <path id="DejaVuSans-6d" d="M 3328 2828 
Q 3544 3216 3844 3400 
Q 4144 3584 4550 3584 
Q 5097 3584 5394 3201 
Q 5691 2819 5691 2113 
L 5691 0 
L 5113 0 
L 5113 2094 
Q 5113 2597 4934 2840 
Q 4756 3084 4391 3084 
Q 3944 3084 3684 2787 
Q 3425 2491 3425 1978 
L 3425 0 
L 2847 0 
L 2847 2094 
Q 2847 2600 2669 2842 
Q 2491 3084 2119 3084 
Q 1678 3084 1418 2786 
Q 1159 2488 1159 1978 
L 1159 0 
L 581 0 
L 581 3500 
L 1159 3500 
L 1159 2956 
Q 1356 3278 1631 3431 
Q 1906 3584 2284 3584 
Q 2666 3584 2933 3390 
Q 3200 3197 3328 2828 
z
" transform="scale(0.015625)"/>
       <path id="DejaVuSans-7a" d="M 353 3500 
L 3084 3500 
L 3084 2975 
L 922 459 
L 3084 459 
L 3084 0 
L 275 0 
L 275 525 
L 2438 3041 
L 353 3041 
L 353 3500 
z
" transform="scale(0.015625)"/>
      </defs>
      <use xlink:href="#DejaVuSans-53"/>
      <use xlink:href="#DejaVuSans-74" x="63.476562"/>
      <use xlink:href="#DejaVuSans-6f" x="102.685547"/>
      <use xlink:href="#DejaVuSans-72" x="163.867188"/>
      <use xlink:href="#DejaVuSans-61" x="204.980469"/>
      <use xlink:href="#DejaVuSans-67" x="266.259766"/>
      <use xlink:href="#DejaVuSans-65" x="329.736328"/>
      <use xlink:href="#DejaVuSans-2d" x="391.259766"/>
      <use xlink:href="#DejaVuSans-4d" x="427.34375"/>
      <use xlink:href="#DejaVuSans-69" x="513.623047"/>
      <use xlink:href="#DejaVuSans-6e" x="541.40625"/>
      <use xlink:href="#DejaVuSans-69" x="604.785156"/>
      <use xlink:href="#DejaVuSans-6d" x="632.568359"/>
      <use xlink:href="#DejaVuSans-69" x="729.980469"/>
      <use xlink:href="#DejaVuSans-7a" x="757.763672"/>
      <use xlink:href="#DejaVuSans-65" x="810.253906"/>
      <use xlink:href="#DejaVuSans-72" x="871.777344"/>
     </g>
    </g>
   </g>
  </g>
 </g>
 <defs>
  <clipPath id="p0f207bb4ab">
   <rect x="57.6" y="41.472" width="357.12" height="266.112"/>
  </clipPath>
 </defs>
</svg>
