<?xml version="1.0" encoding="utf-8" standalone="no"?>
<!DOCTYPE svg PUBLIC "-//W3C//DTD SVG 1.1//EN"
  "http://www.w3.org/Graphics/SVG/1.1/DTD/svg11.dtd">
<svg xmlns:xlink="http://www.w3.org/1999/xlink" width="460.8pt" height="345.6pt" viewBox="0 0 460.8 345.6" xmlns="http://www.w3.org/2000/svg" version="1.1">
 <metadata>
  <rdf:RDF xmlns:dc="http://purl.org/dc/elements/1.1/" xmlns:cc="http://creativecommons.org/ns#" xmlns:rdf="http://www.w3.org/1999/02/22-rdf-syntax-ns#">
   <cc:Work>
    <dc:type rdf:resource="http://purl.org/dc/dcmitype/StillImage"/>
    <dc:date>2022-06-16T12:02:58.748206</dc:date>
    <dc:format>image/svg+xml</dc:format>
    <dc:creator>
     <cc:Agent>
      <dc:title>Matplotlib v3.5.2, https://matplotlib.org/</dc:title>
     </cc:Agent>
    </dc:creator>
   </cc:Work>
  </rdf:RDF>
 </metadata>
 <defs>
  <style type="text/css">*{stroke-linejoin: round; stroke-linecap: butt}</style>
 </defs>
 <g id="figure_1">
  <g id="patch_1">
   <path d="M 0 345.6 
L 460.8 345.6 
L 460.8 0 
L 0 0 
z
" style="fill: #ffffff"/>
  </g>
  <g id="axes_1">
   <g id="patch_2">
    <path d="M 57.6 307.584 
L 414.72 307.584 
L 414.72 41.472 
L 57.6 41.472 
z
" style="fill: #ffffff"/>
   </g>
   <g id="PolyCollection_1">
    <path d="M 120.448062 295.488 
L 102.176112 295.488 
L 100.763531 293.506673 
L 99.252665 291.525346 
L 97.659675 289.54402 
L 96.00461 287.562693 
L 94.310831 285.581366 
L 92.604193 283.600039 
L 90.911993 281.618713 
L 89.261765 279.637386 
L 87.679991 277.656059 
L 86.190815 275.674732 
L 84.814865 273.693405 
L 83.568265 271.712079 
L 82.461916 269.730752 
L 81.501106 267.749425 
L 80.685456 265.768098 
L 80.009226 263.786771 
L 79.461919 261.805445 
L 79.02915 259.824118 
L 78.693689 257.842791 
L 78.436601 255.861464 
L 78.238403 253.880138 
L 78.080141 251.898811 
L 77.94434 249.917484 
L 77.815768 247.936157 
L 77.681982 245.95483 
L 77.533641 243.973504 
L 77.364598 241.992177 
L 77.171784 240.01085 
L 76.954912 238.029523 
L 76.716056 236.048197 
L 76.459129 234.06687 
L 76.189329 232.085543 
L 75.912592 230.104216 
L 75.63509 228.122889 
L 75.362824 226.141563 
L 75.101321 224.160236 
L 74.855451 222.178909 
L 74.629362 220.197582 
L 74.426517 218.216256 
L 74.249792 216.234929 
L 74.101613 214.253602 
L 73.984079 212.272275 
L 73.899049 210.290948 
L 73.848153 208.309622 
L 73.832727 206.328295 
L 73.853674 204.346968 
L 73.911264 202.365641 
L 74.004927 200.384314 
L 74.13307 198.402988 
L 74.292965 196.421661 
L 74.480768 194.440334 
L 74.691672 192.459007 
L 74.920235 190.477681 
L 75.160838 188.496354 
L 75.408269 186.515027 
L 75.658348 184.5337 
L 75.908545 182.552373 
L 76.158485 180.571047 
L 76.410284 178.58972 
L 76.668642 176.608393 
L 76.940649 174.627066 
L 77.235308 172.64574 
L 77.562783 170.664413 
L 77.933448 168.683086 
L 78.356831 166.701759 
L 78.840554 164.720432 
L 79.389408 162.739106 
L 80.004676 160.757779 
L 80.683786 158.776452 
L 81.420372 156.795125 
L 82.204742 154.813799 
L 83.024715 152.832472 
L 83.866755 150.851145 
L 84.717264 148.869818 
L 85.563903 146.888491 
L 86.396775 144.907165 
L 87.209353 142.925838 
L 87.999034 140.944511 
L 88.767262 138.963184 
L 89.519215 136.981857 
L 90.263098 135.000531 
L 91.009125 133.019204 
L 91.768318 131.037877 
L 92.551252 129.05655 
L 93.366886 127.075224 
L 94.221589 125.093897 
L 95.118467 123.11257 
L 96.057012 121.131243 
L 97.033111 119.149916 
L 98.039374 117.16859 
L 99.06571 115.187263 
L 100.100103 113.205936 
L 101.129457 111.224609 
L 102.140472 109.243283 
L 103.12043 107.261956 
L 104.057865 105.280629 
L 104.943063 103.299302 
L 105.768389 101.317975 
L 106.528427 99.336649 
L 116.095748 99.336649 
L 116.095748 99.336649 
L 116.855786 101.317975 
L 117.681111 103.299302 
L 118.56631 105.280629 
L 119.503745 107.261956 
L 120.483703 109.243283 
L 121.494718 111.224609 
L 122.524072 113.205936 
L 123.558464 115.187263 
L 124.584801 117.16859 
L 125.591064 119.149916 
L 126.567163 121.131243 
L 127.505708 123.11257 
L 128.402585 125.093897 
L 129.257289 127.075224 
L 130.072923 129.05655 
L 130.855857 131.037877 
L 131.61505 133.019204 
L 132.361077 135.000531 
L 133.104959 136.981857 
L 133.856912 138.963184 
L 134.625141 140.944511 
L 135.414822 142.925838 
L 136.2274 144.907165 
L 137.060272 146.888491 
L 137.90691 148.869818 
L 138.75742 150.851145 
L 139.59946 152.832472 
L 140.419433 154.813799 
L 141.203802 156.795125 
L 141.940389 158.776452 
L 142.619499 160.757779 
L 143.234766 162.739106 
L 143.783621 164.720432 
L 144.267344 166.701759 
L 144.690726 168.683086 
L 145.061392 170.664413 
L 145.388866 172.64574 
L 145.683525 174.627066 
L 145.955533 176.608393 
L 146.213891 178.58972 
L 146.46569 180.571047 
L 146.715629 182.552373 
L 146.965826 184.5337 
L 147.215906 186.515027 
L 147.463337 188.496354 
L 147.70394 190.477681 
L 147.932502 192.459007 
L 148.143407 194.440334 
L 148.33121 196.421661 
L 148.491105 198.402988 
L 148.619247 200.384314 
L 148.712911 202.365641 
L 148.770501 204.346968 
L 148.791447 206.328295 
L 148.776022 208.309622 
L 148.725126 210.290948 
L 148.640096 212.272275 
L 148.522562 214.253602 
L 148.374382 216.234929 
L 148.197657 218.216256 
L 147.994812 220.197582 
L 147.768724 222.178909 
L 147.522853 224.160236 
L 147.26135 226.141563 
L 146.989085 228.122889 
L 146.711583 230.104216 
L 146.434845 232.085543 
L 146.165046 234.06687 
L 145.908119 236.048197 
L 145.669263 238.029523 
L 145.452391 240.01085 
L 145.259576 241.992177 
L 145.090534 243.973504 
L 144.942192 245.95483 
L 144.808406 247.936157 
L 144.679835 249.917484 
L 144.544034 251.898811 
L 144.385772 253.880138 
L 144.187573 255.861464 
L 143.930486 257.842791 
L 143.595024 259.824118 
L 143.162255 261.805445 
L 142.614948 263.786771 
L 141.938718 265.768098 
L 141.123069 267.749425 
L 140.162259 269.730752 
L 139.05591 271.712079 
L 137.809309 273.693405 
L 136.433359 275.674732 
L 134.944183 277.656059 
L 133.362409 279.637386 
L 131.712182 281.618713 
L 130.019981 283.600039 
L 128.313343 285.581366 
L 126.619565 287.562693 
L 124.9645 289.54402 
L 123.37151 291.525346 
L 121.860644 293.506673 
L 120.448062 295.488 
z
" clip-path="url(#pe5d10294b9)" style="fill: #1f77b4; fill-opacity: 0.3"/>
   </g>
   <g id="PolyCollection_2">
    <path d="M 197.417078 249.719351 
L 191.78203 249.719351 
L 191.322241 247.936157 
L 190.814956 246.152963 
L 190.257842 244.369769 
L 189.648682 242.586575 
L 188.98566 240.803381 
L 188.267734 239.020187 
L 187.495061 237.236993 
L 186.669424 235.453799 
L 185.794589 233.670604 
L 184.876511 231.88741 
L 183.923354 230.104216 
L 182.945267 228.321022 
L 181.953918 226.537828 
L 180.961821 224.754634 
L 179.981499 222.97144 
L 179.024578 221.188246 
L 178.100883 219.405052 
L 177.217647 217.621857 
L 176.378883 215.838663 
L 175.584993 214.055469 
L 174.832639 212.272275 
L 174.114893 210.489081 
L 173.421665 208.705887 
L 172.74039 206.922693 
L 172.056948 205.139499 
L 171.356775 203.356305 
L 170.626106 201.573111 
L 169.853262 199.789916 
L 169.029879 198.006722 
L 168.151976 196.223528 
L 167.220709 194.440334 
L 166.242737 192.65714 
L 165.230099 190.873946 
L 164.199585 189.090752 
L 163.171642 187.307558 
L 162.168901 185.524364 
L 161.214489 183.74117 
L 160.330293 181.957975 
L 159.535379 180.174781 
L 158.844739 178.391587 
L 158.268481 176.608393 
L 157.811548 174.825199 
L 157.473953 173.042005 
L 157.251474 171.258811 
L 157.13669 169.475617 
L 157.120194 167.692423 
L 157.191831 165.909229 
L 157.341801 164.126034 
L 157.561503 162.34284 
L 157.844055 160.559646 
L 158.184473 158.776452 
L 158.579543 156.993258 
L 159.027469 155.210064 
L 159.527393 153.42687 
L 160.078898 151.643676 
L 160.681551 149.860482 
L 161.334564 148.077287 
L 162.036551 146.294093 
L 162.785385 144.510899 
L 163.578112 142.727705 
L 164.410871 140.944511 
L 165.278836 139.161317 
L 166.176153 137.378123 
L 167.095931 135.594929 
L 168.030328 133.811735 
L 168.970772 132.028541 
L 169.90836 130.245346 
L 170.834412 128.462152 
L 171.741126 126.678958 
L 172.622258 124.895764 
L 173.473696 123.11257 
L 174.293825 121.329376 
L 175.083597 119.546182 
L 175.846257 117.762988 
L 176.586761 115.979794 
L 177.310952 114.1966 
L 178.024636 112.413405 
L 178.732698 110.630211 
L 179.438407 108.847017 
L 180.143017 107.063823 
L 180.84572 105.280629 
L 181.543926 103.497435 
L 182.233826 101.714241 
L 182.911092 99.931047 
L 183.57161 98.147853 
L 184.212108 96.364658 
L 184.830577 94.581464 
L 185.42646 92.79827 
L 186.000583 91.015076 
L 186.554873 89.231882 
L 187.091947 87.448688 
L 187.614631 85.665494 
L 188.125499 83.8823 
L 188.626489 82.099106 
L 189.118638 80.315912 
L 189.601944 78.532717 
L 190.075358 76.749523 
L 190.53689 74.966329 
L 190.983791 73.183135 
L 198.215317 73.183135 
L 198.215317 73.183135 
L 198.662219 74.966329 
L 199.12375 76.749523 
L 199.597164 78.532717 
L 200.08047 80.315912 
L 200.572619 82.099106 
L 201.073609 83.8823 
L 201.584477 85.665494 
L 202.107161 87.448688 
L 202.644235 89.231882 
L 203.198526 91.015076 
L 203.772648 92.79827 
L 204.368531 94.581464 
L 204.987 96.364658 
L 205.627498 98.147853 
L 206.288016 99.931047 
L 206.965282 101.714241 
L 207.655182 103.497435 
L 208.353388 105.280629 
L 209.056091 107.063823 
L 209.760702 108.847017 
L 210.46641 110.630211 
L 211.174472 112.413405 
L 211.888156 114.1966 
L 212.612347 115.979794 
L 213.352851 117.762988 
L 214.115511 119.546182 
L 214.905283 121.329376 
L 215.725412 123.11257 
L 216.57685 124.895764 
L 217.457982 126.678958 
L 218.364696 128.462152 
L 219.290748 130.245346 
L 220.228336 132.028541 
L 221.16878 133.811735 
L 222.103177 135.594929 
L 223.022955 137.378123 
L 223.920272 139.161317 
L 224.788237 140.944511 
L 225.620997 142.727705 
L 226.413723 144.510899 
L 227.162558 146.294093 
L 227.864544 148.077287 
L 228.517557 149.860482 
L 229.12021 151.643676 
L 229.671715 153.42687 
L 230.171639 155.210064 
L 230.619565 156.993258 
L 231.014635 158.776452 
L 231.355053 160.559646 
L 231.637605 162.34284 
L 231.857307 164.126034 
L 232.007277 165.909229 
L 232.078914 167.692423 
L 232.062418 169.475617 
L 231.947634 171.258811 
L 231.725156 173.042005 
L 231.38756 174.825199 
L 230.930627 176.608393 
L 230.354369 178.391587 
L 229.663729 180.174781 
L 228.868815 181.957975 
L 227.984619 183.74117 
L 227.030207 185.524364 
L 226.027467 187.307558 
L 224.999523 189.090752 
L 223.969009 190.873946 
L 222.956371 192.65714 
L 221.978399 194.440334 
L 221.047132 196.223528 
L 220.169229 198.006722 
L 219.345846 199.789916 
L 218.573002 201.573111 
L 217.842333 203.356305 
L 217.142161 205.139499 
L 216.458718 206.922693 
L 215.777443 208.705887 
L 215.084215 210.489081 
L 214.36647 212.272275 
L 213.614115 214.055469 
L 212.820225 215.838663 
L 211.981461 217.621857 
L 211.098225 219.405052 
L 210.17453 221.188246 
L 209.217609 222.97144 
L 208.237287 224.754634 
L 207.24519 226.537828 
L 206.253842 228.321022 
L 205.275754 230.104216 
L 204.322598 231.88741 
L 203.40452 233.670604 
L 202.529684 235.453799 
L 201.704047 237.236993 
L 200.931374 239.020187 
L 200.213448 240.803381 
L 199.550426 242.586575 
L 198.941266 244.369769 
L 198.384152 246.152963 
L 197.876867 247.936157 
L 197.417078 249.719351 
z
" clip-path="url(#pe5d10294b9)" style="fill: #1f77b4; fill-opacity: 0.3"/>
   </g>
   <g id="PolyCollection_3">
    <path d="M 284.394556 239.257946 
L 271.379486 239.257946 
L 270.547225 237.38229 
L 269.678633 235.506634 
L 268.78102 233.630978 
L 267.862319 231.755322 
L 266.930917 229.879666 
L 265.995449 228.00401 
L 265.064549 226.128354 
L 264.146556 224.252698 
L 263.249173 222.377042 
L 262.37911 220.501386 
L 261.541741 218.62573 
L 260.740814 216.750074 
L 259.978262 214.874418 
L 259.254163 212.998762 
L 258.566854 211.123106 
L 257.913216 209.24745 
L 257.289095 207.371794 
L 256.689799 205.496138 
L 256.11062 203.620482 
L 255.547271 201.744826 
L 254.996197 199.86917 
L 254.454693 197.993514 
L 253.920825 196.117857 
L 253.393163 194.242201 
L 252.870413 192.366545 
L 252.351009 190.490889 
L 251.832782 188.615233 
L 251.312793 186.739577 
L 250.78739 184.863921 
L 250.252521 182.988265 
L 249.704263 181.112609 
L 249.139504 179.236953 
L 248.556658 177.361297 
L 247.956289 175.485641 
L 247.341514 173.609985 
L 246.718089 171.734329 
L 246.094134 169.858673 
L 245.479504 167.983017 
L 244.88487 166.107361 
L 244.320652 164.231705 
L 243.795933 162.356049 
L 243.317531 160.480393 
L 242.889361 158.604737 
L 242.512174 156.729081 
L 242.183725 154.853425 
L 241.899315 152.977769 
L 241.652634 151.102113 
L 241.436773 149.226457 
L 241.245248 147.350801 
L 241.072894 145.475145 
L 240.916528 143.599489 
L 240.775289 141.723833 
L 240.650655 139.848177 
L 240.546152 137.972521 
L 240.466838 136.096865 
L 240.41864 134.221209 
L 240.407661 132.345553 
L 240.439537 130.469897 
L 240.518935 128.594241 
L 240.64923 126.718585 
L 240.83239 124.842929 
L 241.069068 122.967273 
L 241.358864 121.091617 
L 241.700707 119.215961 
L 242.093322 117.340305 
L 242.535687 115.464649 
L 243.027448 113.588993 
L 243.569222 111.713337 
L 244.162766 109.837681 
L 244.810968 107.962025 
L 245.517676 106.086369 
L 246.287369 104.210713 
L 247.1247 102.335057 
L 248.033959 100.4594 
L 249.018499 98.583744 
L 250.080179 96.708088 
L 251.218885 94.832432 
L 252.432152 92.956776 
L 253.714935 91.08112 
L 255.05954 89.205464 
L 256.455729 87.329808 
L 257.890981 85.454152 
L 259.350897 83.578496 
L 260.819733 81.70284 
L 262.280997 79.827184 
L 263.718116 77.951528 
L 265.115088 76.075872 
L 266.457121 74.200216 
L 267.731192 72.32456 
L 268.926508 70.448904 
L 270.034843 68.573248 
L 271.050723 66.697592 
L 271.971457 64.821936 
L 272.797016 62.94628 
L 273.529772 61.070624 
L 274.174126 59.194968 
L 274.736057 57.319312 
L 275.222628 55.443656 
L 275.641501 53.568 
L 280.132541 53.568 
L 280.132541 53.568 
L 280.551414 55.443656 
L 281.037985 57.319312 
L 281.599916 59.194968 
L 282.24427 61.070624 
L 282.977026 62.94628 
L 283.802585 64.821936 
L 284.723318 66.697592 
L 285.739198 68.573248 
L 286.847534 70.448904 
L 288.04285 72.32456 
L 289.316921 74.200216 
L 290.658954 76.075872 
L 292.055926 77.951528 
L 293.493044 79.827184 
L 294.954309 81.70284 
L 296.423144 83.578496 
L 297.883061 85.454152 
L 299.318312 87.329808 
L 300.714501 89.205464 
L 302.059107 91.08112 
L 303.341889 92.956776 
L 304.555156 94.832432 
L 305.693863 96.708088 
L 306.755543 98.583744 
L 307.740082 100.4594 
L 308.649341 102.335057 
L 309.486673 104.210713 
L 310.256365 106.086369 
L 310.963073 107.962025 
L 311.611275 109.837681 
L 312.204819 111.713337 
L 312.746594 113.588993 
L 313.238354 115.464649 
L 313.680719 117.340305 
L 314.073334 119.215961 
L 314.415178 121.091617 
L 314.704973 122.967273 
L 314.941652 124.842929 
L 315.124812 126.718585 
L 315.255106 128.594241 
L 315.334504 130.469897 
L 315.366381 132.345553 
L 315.355402 134.221209 
L 315.307204 136.096865 
L 315.22789 137.972521 
L 315.123387 139.848177 
L 314.998752 141.723833 
L 314.857514 143.599489 
L 314.701148 145.475145 
L 314.528794 147.350801 
L 314.337269 149.226457 
L 314.121408 151.102113 
L 313.874727 152.977769 
L 313.590317 154.853425 
L 313.261868 156.729081 
L 312.884681 158.604737 
L 312.45651 160.480393 
L 311.978109 162.356049 
L 311.453389 164.231705 
L 310.889172 166.107361 
L 310.294538 167.983017 
L 309.679907 169.858673 
L 309.055953 171.734329 
L 308.432528 173.609985 
L 307.817753 175.485641 
L 307.217384 177.361297 
L 306.634538 179.236953 
L 306.069779 181.112609 
L 305.521521 182.988265 
L 304.986651 184.863921 
L 304.461249 186.739577 
L 303.941259 188.615233 
L 303.423032 190.490889 
L 302.903628 192.366545 
L 302.380879 194.242201 
L 301.853217 196.117857 
L 301.319348 197.993514 
L 300.777845 199.86917 
L 300.226771 201.744826 
L 299.663422 203.620482 
L 299.084242 205.496138 
L 298.484947 207.371794 
L 297.860825 209.24745 
L 297.207188 211.123106 
L 296.519878 212.998762 
L 295.795779 214.874418 
L 295.033228 216.750074 
L 294.2323 218.62573 
L 293.394932 220.501386 
L 292.524869 222.377042 
L 291.627486 224.252698 
L 290.709492 226.128354 
L 289.778593 228.00401 
L 288.843124 229.879666 
L 287.911723 231.755322 
L 286.993022 233.630978 
L 286.095409 235.506634 
L 285.226817 237.38229 
L 284.394556 239.257946 
z
" clip-path="url(#pe5d10294b9)" style="fill: #1f77b4; fill-opacity: 0.3"/>
   </g>
   <g id="PolyCollection_4">
    <path d="M 365.947215 249.719351 
L 356.06861 249.719351 
L 355.510182 247.975784 
L 354.944603 246.232216 
L 354.376381 244.488649 
L 353.808961 242.745081 
L 353.244623 241.001514 
L 352.684483 239.257946 
L 352.128597 237.514378 
L 351.576116 235.770811 
L 351.02548 234.027243 
L 350.474585 232.283676 
L 349.920928 230.540108 
L 349.36169 228.796541 
L 348.793784 227.052973 
L 348.213884 225.309405 
L 347.618472 223.565838 
L 347.003935 221.82227 
L 346.366763 220.078703 
L 345.703837 218.335135 
L 345.012838 216.591568 
L 344.2927 214.848 
L 343.544086 213.104432 
L 342.769776 211.360865 
L 341.974898 209.617297 
L 341.166912 207.87373 
L 340.355296 206.130162 
L 339.550934 204.386595 
L 338.765211 202.643027 
L 338.008941 200.899459 
L 337.291222 199.155892 
L 336.618394 197.412324 
L 335.993237 195.668757 
L 335.414551 193.925189 
L 334.877198 192.181622 
L 334.37262 190.438054 
L 333.889784 188.694486 
L 333.41645 186.950919 
L 332.940574 185.207351 
L 332.451683 183.463784 
L 331.942025 181.720216 
L 331.407348 179.976649 
L 330.847229 178.233081 
L 330.264927 176.489514 
L 329.666809 174.745946 
L 329.061471 173.002378 
L 328.4587 171.258811 
L 327.868434 169.515243 
L 327.299864 167.771676 
L 326.760787 166.028108 
L 326.257246 164.284541 
L 325.793459 162.540973 
L 325.371982 160.797405 
L 324.994034 159.053838 
L 324.65988 157.31027 
L 324.369232 155.566703 
L 324.121585 153.823135 
L 323.916509 152.079568 
L 323.753883 150.336 
L 323.634106 148.592432 
L 323.558307 146.848865 
L 323.528553 145.105297 
L 323.548043 143.36173 
L 323.621255 141.618162 
L 323.753979 139.874595 
L 323.953207 138.131027 
L 324.226827 136.387459 
L 324.583131 134.643892 
L 325.030151 132.900324 
L 325.574899 131.156757 
L 326.222588 129.413189 
L 326.975943 127.669622 
L 327.834675 125.926054 
L 328.795204 124.182486 
L 329.850658 122.438919 
L 330.99115 120.695351 
L 332.204298 118.951784 
L 333.475927 117.208216 
L 334.790864 115.464649 
L 336.133748 113.721081 
L 337.48977 111.977514 
L 338.845287 110.233946 
L 340.18826 108.490378 
L 341.508511 106.746811 
L 342.7978 105.003243 
L 344.049755 103.259676 
L 345.259685 101.516108 
L 346.424333 99.772541 
L 347.541603 98.028973 
L 348.610294 96.285405 
L 349.62987 94.541838 
L 350.60027 92.79827 
L 351.521762 91.054703 
L 352.394837 89.311135 
L 353.220123 87.567568 
L 353.998314 85.824 
L 354.730116 84.080432 
L 355.416193 82.336865 
L 356.05713 80.593297 
L 356.653416 78.84973 
L 357.205445 77.106162 
L 364.810381 77.106162 
L 364.810381 77.106162 
L 365.36241 78.84973 
L 365.958695 80.593297 
L 366.599632 82.336865 
L 367.285709 84.080432 
L 368.017511 85.824 
L 368.795702 87.567568 
L 369.620988 89.311135 
L 370.494063 91.054703 
L 371.415556 92.79827 
L 372.385955 94.541838 
L 373.405531 96.285405 
L 374.474222 98.028973 
L 375.591493 99.772541 
L 376.756141 101.516108 
L 377.96607 103.259676 
L 379.218025 105.003243 
L 380.507315 106.746811 
L 381.827566 108.490378 
L 383.170539 110.233946 
L 384.526055 111.977514 
L 385.882077 113.721081 
L 387.224961 115.464649 
L 388.539898 117.208216 
L 389.811527 118.951784 
L 391.024676 120.695351 
L 392.165167 122.438919 
L 393.220621 124.182486 
L 394.18115 125.926054 
L 395.039883 127.669622 
L 395.793237 129.413189 
L 396.440927 131.156757 
L 396.985674 132.900324 
L 397.432694 134.643892 
L 397.788998 136.387459 
L 398.062619 138.131027 
L 398.261846 139.874595 
L 398.39457 141.618162 
L 398.467782 143.36173 
L 398.487273 145.105297 
L 398.457518 146.848865 
L 398.381719 148.592432 
L 398.261942 150.336 
L 398.099316 152.079568 
L 397.89424 153.823135 
L 397.646593 155.566703 
L 397.355945 157.31027 
L 397.021792 159.053838 
L 396.643843 160.797405 
L 396.222366 162.540973 
L 395.758579 164.284541 
L 395.255038 166.028108 
L 394.715962 167.771676 
L 394.147392 169.515243 
L 393.557125 171.258811 
L 392.954354 173.002378 
L 392.349016 174.745946 
L 391.750898 176.489514 
L 391.168596 178.233081 
L 390.608478 179.976649 
L 390.0738 181.720216 
L 389.564142 183.463784 
L 389.075251 185.207351 
L 388.599376 186.950919 
L 388.126041 188.694486 
L 387.643206 190.438054 
L 387.138627 192.181622 
L 386.601274 193.925189 
L 386.022589 195.668757 
L 385.397431 197.412324 
L 384.724603 199.155892 
L 384.006885 200.899459 
L 383.250614 202.643027 
L 382.464892 204.386595 
L 381.660529 206.130162 
L 380.848914 207.87373 
L 380.040927 209.617297 
L 379.246049 211.360865 
L 378.471739 213.104432 
L 377.723125 214.848 
L 377.002988 216.591568 
L 376.311988 218.335135 
L 375.649063 220.078703 
L 375.01189 221.82227 
L 374.397353 223.565838 
L 373.801941 225.309405 
L 373.222041 227.052973 
L 372.654135 228.796541 
L 372.094897 230.540108 
L 371.54124 232.283676 
L 370.990345 234.027243 
L 370.439709 235.770811 
L 369.887228 237.514378 
L 369.331342 239.257946 
L 368.771203 241.001514 
L 368.206865 242.745081 
L 367.639445 244.488649 
L 367.071222 246.232216 
L 366.505644 247.975784 
L 365.947215 249.719351 
z
" clip-path="url(#pe5d10294b9)" style="fill: #1f77b4; fill-opacity: 0.3"/>
   </g>
   <g id="matplotlib.axis_1">
    <g id="xtick_1">
     <g id="line2d_1">
      <defs>
       <path id="mb357643f72" d="M 0 0 
L 0 3.5 
" style="stroke: #000000; stroke-width: 0.8"/>
      </defs>
      <g>
       <use xlink:href="#mb357643f72" x="69.668354" y="307.584" style="stroke: #000000; stroke-width: 0.8"/>
      </g>
     </g>
     <g id="text_1">
      <!-- 250 -->
      <g transform="translate(60.124604 322.182437)scale(0.1 -0.1)">
       <defs>
        <path id="DejaVuSans-32" d="M 1228 531 
L 3431 531 
L 3431 0 
L 469 0 
L 469 531 
Q 828 903 1448 1529 
Q 2069 2156 2228 2338 
Q 2531 2678 2651 2914 
Q 2772 3150 2772 3378 
Q 2772 3750 2511 3984 
Q 2250 4219 1831 4219 
Q 1534 4219 1204 4116 
Q 875 4013 500 3803 
L 500 4441 
Q 881 4594 1212 4672 
Q 1544 4750 1819 4750 
Q 2544 4750 2975 4387 
Q 3406 4025 3406 3419 
Q 3406 3131 3298 2873 
Q 3191 2616 2906 2266 
Q 2828 2175 2409 1742 
Q 1991 1309 1228 531 
z
" transform="scale(0.015625)"/>
        <path id="DejaVuSans-35" d="M 691 4666 
L 3169 4666 
L 3169 4134 
L 1269 4134 
L 1269 2991 
Q 1406 3038 1543 3061 
Q 1681 3084 1819 3084 
Q 2600 3084 3056 2656 
Q 3513 2228 3513 1497 
Q 3513 744 3044 326 
Q 2575 -91 1722 -91 
Q 1428 -91 1123 -41 
Q 819 9 494 109 
L 494 744 
Q 775 591 1075 516 
Q 1375 441 1709 441 
Q 2250 441 2565 725 
Q 2881 1009 2881 1497 
Q 2881 1984 2565 2268 
Q 2250 2553 1709 2553 
Q 1456 2553 1204 2497 
Q 953 2441 691 2322 
L 691 4666 
z
" transform="scale(0.015625)"/>
        <path id="DejaVuSans-30" d="M 2034 4250 
Q 1547 4250 1301 3770 
Q 1056 3291 1056 2328 
Q 1056 1369 1301 889 
Q 1547 409 2034 409 
Q 2525 409 2770 889 
Q 3016 1369 3016 2328 
Q 3016 3291 2770 3770 
Q 2525 4250 2034 4250 
z
M 2034 4750 
Q 2819 4750 3233 4129 
Q 3647 3509 3647 2328 
Q 3647 1150 3233 529 
Q 2819 -91 2034 -91 
Q 1250 -91 836 529 
Q 422 1150 422 2328 
Q 422 3509 836 4129 
Q 1250 4750 2034 4750 
z
" transform="scale(0.015625)"/>
       </defs>
       <use xlink:href="#DejaVuSans-32"/>
       <use xlink:href="#DejaVuSans-35" x="63.623047"/>
       <use xlink:href="#DejaVuSans-30" x="127.246094"/>
      </g>
     </g>
    </g>
    <g id="xtick_2">
     <g id="line2d_2">
      <g>
       <use xlink:href="#mb357643f72" x="111.312087" y="307.584" style="stroke: #000000; stroke-width: 0.8"/>
      </g>
     </g>
     <g id="text_2">
      <!-- 500 -->
      <g transform="translate(101.768337 322.182437)scale(0.1 -0.1)">
       <use xlink:href="#DejaVuSans-35"/>
       <use xlink:href="#DejaVuSans-30" x="63.623047"/>
       <use xlink:href="#DejaVuSans-30" x="127.246094"/>
      </g>
     </g>
    </g>
    <g id="xtick_3">
     <g id="line2d_3">
      <g>
       <use xlink:href="#mb357643f72" x="152.955821" y="307.584" style="stroke: #000000; stroke-width: 0.8"/>
      </g>
     </g>
     <g id="text_3">
      <!-- 750 -->
      <g transform="translate(143.412071 322.182437)scale(0.1 -0.1)">
       <defs>
        <path id="DejaVuSans-37" d="M 525 4666 
L 3525 4666 
L 3525 4397 
L 1831 0 
L 1172 0 
L 2766 4134 
L 525 4134 
L 525 4666 
z
" transform="scale(0.015625)"/>
       </defs>
       <use xlink:href="#DejaVuSans-37"/>
       <use xlink:href="#DejaVuSans-35" x="63.623047"/>
       <use xlink:href="#DejaVuSans-30" x="127.246094"/>
      </g>
     </g>
    </g>
    <g id="xtick_4">
     <g id="line2d_4">
      <g>
       <use xlink:href="#mb357643f72" x="194.599554" y="307.584" style="stroke: #000000; stroke-width: 0.8"/>
      </g>
     </g>
     <g id="text_4">
      <!-- 1000 -->
      <g transform="translate(181.874554 322.182437)scale(0.1 -0.1)">
       <defs>
        <path id="DejaVuSans-31" d="M 794 531 
L 1825 531 
L 1825 4091 
L 703 3866 
L 703 4441 
L 1819 4666 
L 2450 4666 
L 2450 531 
L 3481 531 
L 3481 0 
L 794 0 
L 794 531 
z
" transform="scale(0.015625)"/>
       </defs>
       <use xlink:href="#DejaVuSans-31"/>
       <use xlink:href="#DejaVuSans-30" x="63.623047"/>
       <use xlink:href="#DejaVuSans-30" x="127.246094"/>
       <use xlink:href="#DejaVuSans-30" x="190.869141"/>
      </g>
     </g>
    </g>
    <g id="xtick_5">
     <g id="line2d_5">
      <g>
       <use xlink:href="#mb357643f72" x="236.243287" y="307.584" style="stroke: #000000; stroke-width: 0.8"/>
      </g>
     </g>
     <g id="text_5">
      <!-- 1250 -->
      <g transform="translate(223.518287 322.182437)scale(0.1 -0.1)">
       <use xlink:href="#DejaVuSans-31"/>
       <use xlink:href="#DejaVuSans-32" x="63.623047"/>
       <use xlink:href="#DejaVuSans-35" x="127.246094"/>
       <use xlink:href="#DejaVuSans-30" x="190.869141"/>
      </g>
     </g>
    </g>
    <g id="xtick_6">
     <g id="line2d_6">
      <g>
       <use xlink:href="#mb357643f72" x="277.887021" y="307.584" style="stroke: #000000; stroke-width: 0.8"/>
      </g>
     </g>
     <g id="text_6">
      <!-- 1500 -->
      <g transform="translate(265.162021 322.182437)scale(0.1 -0.1)">
       <use xlink:href="#DejaVuSans-31"/>
       <use xlink:href="#DejaVuSans-35" x="63.623047"/>
       <use xlink:href="#DejaVuSans-30" x="127.246094"/>
       <use xlink:href="#DejaVuSans-30" x="190.869141"/>
      </g>
     </g>
    </g>
    <g id="xtick_7">
     <g id="line2d_7">
      <g>
       <use xlink:href="#mb357643f72" x="319.530754" y="307.584" style="stroke: #000000; stroke-width: 0.8"/>
      </g>
     </g>
     <g id="text_7">
      <!-- 1750 -->
      <g transform="translate(306.805754 322.182437)scale(0.1 -0.1)">
       <use xlink:href="#DejaVuSans-31"/>
       <use xlink:href="#DejaVuSans-37" x="63.623047"/>
       <use xlink:href="#DejaVuSans-35" x="127.246094"/>
       <use xlink:href="#DejaVuSans-30" x="190.869141"/>
      </g>
     </g>
    </g>
    <g id="xtick_8">
     <g id="line2d_8">
      <g>
       <use xlink:href="#mb357643f72" x="361.174488" y="307.584" style="stroke: #000000; stroke-width: 0.8"/>
      </g>
     </g>
     <g id="text_8">
      <!-- 2000 -->
      <g transform="translate(348.449488 322.182437)scale(0.1 -0.1)">
       <use xlink:href="#DejaVuSans-32"/>
       <use xlink:href="#DejaVuSans-30" x="63.623047"/>
       <use xlink:href="#DejaVuSans-30" x="127.246094"/>
       <use xlink:href="#DejaVuSans-30" x="190.869141"/>
      </g>
     </g>
    </g>
    <g id="xtick_9">
     <g id="line2d_9">
      <g>
       <use xlink:href="#mb357643f72" x="402.818221" y="307.584" style="stroke: #000000; stroke-width: 0.8"/>
      </g>
     </g>
     <g id="text_9">
      <!-- 2250 -->
      <g transform="translate(390.093221 322.182437)scale(0.1 -0.1)">
       <use xlink:href="#DejaVuSans-32"/>
       <use xlink:href="#DejaVuSans-32" x="63.623047"/>
       <use xlink:href="#DejaVuSans-35" x="127.246094"/>
       <use xlink:href="#DejaVuSans-30" x="190.869141"/>
      </g>
     </g>
    </g>
    <g id="text_10">
     <!-- Learned Episodes -->
     <g transform="translate(192.102187 335.860562)scale(0.1 -0.1)">
      <defs>
       <path id="DejaVuSans-4c" d="M 628 4666 
L 1259 4666 
L 1259 531 
L 3531 531 
L 3531 0 
L 628 0 
L 628 4666 
z
" transform="scale(0.015625)"/>
       <path id="DejaVuSans-65" d="M 3597 1894 
L 3597 1613 
L 953 1613 
Q 991 1019 1311 708 
Q 1631 397 2203 397 
Q 2534 397 2845 478 
Q 3156 559 3463 722 
L 3463 178 
Q 3153 47 2828 -22 
Q 2503 -91 2169 -91 
Q 1331 -91 842 396 
Q 353 884 353 1716 
Q 353 2575 817 3079 
Q 1281 3584 2069 3584 
Q 2775 3584 3186 3129 
Q 3597 2675 3597 1894 
z
M 3022 2063 
Q 3016 2534 2758 2815 
Q 2500 3097 2075 3097 
Q 1594 3097 1305 2825 
Q 1016 2553 972 2059 
L 3022 2063 
z
" transform="scale(0.015625)"/>
       <path id="DejaVuSans-61" d="M 2194 1759 
Q 1497 1759 1228 1600 
Q 959 1441 959 1056 
Q 959 750 1161 570 
Q 1363 391 1709 391 
Q 2188 391 2477 730 
Q 2766 1069 2766 1631 
L 2766 1759 
L 2194 1759 
z
M 3341 1997 
L 3341 0 
L 2766 0 
L 2766 531 
Q 2569 213 2275 61 
Q 1981 -91 1556 -91 
Q 1019 -91 701 211 
Q 384 513 384 1019 
Q 384 1609 779 1909 
Q 1175 2209 1959 2209 
L 2766 2209 
L 2766 2266 
Q 2766 2663 2505 2880 
Q 2244 3097 1772 3097 
Q 1472 3097 1187 3025 
Q 903 2953 641 2809 
L 641 3341 
Q 956 3463 1253 3523 
Q 1550 3584 1831 3584 
Q 2591 3584 2966 3190 
Q 3341 2797 3341 1997 
z
" transform="scale(0.015625)"/>
       <path id="DejaVuSans-72" d="M 2631 2963 
Q 2534 3019 2420 3045 
Q 2306 3072 2169 3072 
Q 1681 3072 1420 2755 
Q 1159 2438 1159 1844 
L 1159 0 
L 581 0 
L 581 3500 
L 1159 3500 
L 1159 2956 
Q 1341 3275 1631 3429 
Q 1922 3584 2338 3584 
Q 2397 3584 2469 3576 
Q 2541 3569 2628 3553 
L 2631 2963 
z
" transform="scale(0.015625)"/>
       <path id="DejaVuSans-6e" d="M 3513 2113 
L 3513 0 
L 2938 0 
L 2938 2094 
Q 2938 2591 2744 2837 
Q 2550 3084 2163 3084 
Q 1697 3084 1428 2787 
Q 1159 2491 1159 1978 
L 1159 0 
L 581 0 
L 581 3500 
L 1159 3500 
L 1159 2956 
Q 1366 3272 1645 3428 
Q 1925 3584 2291 3584 
Q 2894 3584 3203 3211 
Q 3513 2838 3513 2113 
z
" transform="scale(0.015625)"/>
       <path id="DejaVuSans-64" d="M 2906 2969 
L 2906 4863 
L 3481 4863 
L 3481 0 
L 2906 0 
L 2906 525 
Q 2725 213 2448 61 
Q 2172 -91 1784 -91 
Q 1150 -91 751 415 
Q 353 922 353 1747 
Q 353 2572 751 3078 
Q 1150 3584 1784 3584 
Q 2172 3584 2448 3432 
Q 2725 3281 2906 2969 
z
M 947 1747 
Q 947 1113 1208 752 
Q 1469 391 1925 391 
Q 2381 391 2643 752 
Q 2906 1113 2906 1747 
Q 2906 2381 2643 2742 
Q 2381 3103 1925 3103 
Q 1469 3103 1208 2742 
Q 947 2381 947 1747 
z
" transform="scale(0.015625)"/>
       <path id="DejaVuSans-20" transform="scale(0.015625)"/>
       <path id="DejaVuSans-45" d="M 628 4666 
L 3578 4666 
L 3578 4134 
L 1259 4134 
L 1259 2753 
L 3481 2753 
L 3481 2222 
L 1259 2222 
L 1259 531 
L 3634 531 
L 3634 0 
L 628 0 
L 628 4666 
z
" transform="scale(0.015625)"/>
       <path id="DejaVuSans-70" d="M 1159 525 
L 1159 -1331 
L 581 -1331 
L 581 3500 
L 1159 3500 
L 1159 2969 
Q 1341 3281 1617 3432 
Q 1894 3584 2278 3584 
Q 2916 3584 3314 3078 
Q 3713 2572 3713 1747 
Q 3713 922 3314 415 
Q 2916 -91 2278 -91 
Q 1894 -91 1617 61 
Q 1341 213 1159 525 
z
M 3116 1747 
Q 3116 2381 2855 2742 
Q 2594 3103 2138 3103 
Q 1681 3103 1420 2742 
Q 1159 2381 1159 1747 
Q 1159 1113 1420 752 
Q 1681 391 2138 391 
Q 2594 391 2855 752 
Q 3116 1113 3116 1747 
z
" transform="scale(0.015625)"/>
       <path id="DejaVuSans-69" d="M 603 3500 
L 1178 3500 
L 1178 0 
L 603 0 
L 603 3500 
z
M 603 4863 
L 1178 4863 
L 1178 4134 
L 603 4134 
L 603 4863 
z
" transform="scale(0.015625)"/>
       <path id="DejaVuSans-73" d="M 2834 3397 
L 2834 2853 
Q 2591 2978 2328 3040 
Q 2066 3103 1784 3103 
Q 1356 3103 1142 2972 
Q 928 2841 928 2578 
Q 928 2378 1081 2264 
Q 1234 2150 1697 2047 
L 1894 2003 
Q 2506 1872 2764 1633 
Q 3022 1394 3022 966 
Q 3022 478 2636 193 
Q 2250 -91 1575 -91 
Q 1294 -91 989 -36 
Q 684 19 347 128 
L 347 722 
Q 666 556 975 473 
Q 1284 391 1588 391 
Q 1994 391 2212 530 
Q 2431 669 2431 922 
Q 2431 1156 2273 1281 
Q 2116 1406 1581 1522 
L 1381 1569 
Q 847 1681 609 1914 
Q 372 2147 372 2553 
Q 372 3047 722 3315 
Q 1072 3584 1716 3584 
Q 2034 3584 2315 3537 
Q 2597 3491 2834 3397 
z
" transform="scale(0.015625)"/>
       <path id="DejaVuSans-6f" d="M 1959 3097 
Q 1497 3097 1228 2736 
Q 959 2375 959 1747 
Q 959 1119 1226 758 
Q 1494 397 1959 397 
Q 2419 397 2687 759 
Q 2956 1122 2956 1747 
Q 2956 2369 2687 2733 
Q 2419 3097 1959 3097 
z
M 1959 3584 
Q 2709 3584 3137 3096 
Q 3566 2609 3566 1747 
Q 3566 888 3137 398 
Q 2709 -91 1959 -91 
Q 1206 -91 779 398 
Q 353 888 353 1747 
Q 353 2609 779 3096 
Q 1206 3584 1959 3584 
z
" transform="scale(0.015625)"/>
      </defs>
      <use xlink:href="#DejaVuSans-4c"/>
      <use xlink:href="#DejaVuSans-65" x="53.962891"/>
      <use xlink:href="#DejaVuSans-61" x="115.486328"/>
      <use xlink:href="#DejaVuSans-72" x="176.765625"/>
      <use xlink:href="#DejaVuSans-6e" x="216.128906"/>
      <use xlink:href="#DejaVuSans-65" x="279.507812"/>
      <use xlink:href="#DejaVuSans-64" x="341.03125"/>
      <use xlink:href="#DejaVuSans-20" x="404.507812"/>
      <use xlink:href="#DejaVuSans-45" x="436.294922"/>
      <use xlink:href="#DejaVuSans-70" x="499.478516"/>
      <use xlink:href="#DejaVuSans-69" x="562.955078"/>
      <use xlink:href="#DejaVuSans-73" x="590.738281"/>
      <use xlink:href="#DejaVuSans-6f" x="642.837891"/>
      <use xlink:href="#DejaVuSans-64" x="704.019531"/>
      <use xlink:href="#DejaVuSans-65" x="767.496094"/>
      <use xlink:href="#DejaVuSans-73" x="829.019531"/>
     </g>
    </g>
   </g>
   <g id="matplotlib.axis_2">
    <g id="ytick_1">
     <g id="line2d_10">
      <defs>
       <path id="ma9df8cf278" d="M 0 0 
L -3.5 0 
" style="stroke: #000000; stroke-width: 0.8"/>
      </defs>
      <g>
       <use xlink:href="#ma9df8cf278" x="57.6" y="291.564973" style="stroke: #000000; stroke-width: 0.8"/>
      </g>
     </g>
     <g id="text_11">
      <!-- 50 -->
      <g transform="translate(37.875 295.364192)scale(0.1 -0.1)">
       <use xlink:href="#DejaVuSans-35"/>
       <use xlink:href="#DejaVuSans-30" x="63.623047"/>
      </g>
     </g>
    </g>
    <g id="ytick_2">
     <g id="line2d_11">
      <g>
       <use xlink:href="#ma9df8cf278" x="57.6" y="258.873081" style="stroke: #000000; stroke-width: 0.8"/>
      </g>
     </g>
     <g id="text_12">
      <!-- 75 -->
      <g transform="translate(37.875 262.6723)scale(0.1 -0.1)">
       <use xlink:href="#DejaVuSans-37"/>
       <use xlink:href="#DejaVuSans-35" x="63.623047"/>
      </g>
     </g>
    </g>
    <g id="ytick_3">
     <g id="line2d_12">
      <g>
       <use xlink:href="#ma9df8cf278" x="57.6" y="226.181189" style="stroke: #000000; stroke-width: 0.8"/>
      </g>
     </g>
     <g id="text_13">
      <!-- 100 -->
      <g transform="translate(31.5125 229.980408)scale(0.1 -0.1)">
       <use xlink:href="#DejaVuSans-31"/>
       <use xlink:href="#DejaVuSans-30" x="63.623047"/>
       <use xlink:href="#DejaVuSans-30" x="127.246094"/>
      </g>
     </g>
    </g>
    <g id="ytick_4">
     <g id="line2d_13">
      <g>
       <use xlink:href="#ma9df8cf278" x="57.6" y="193.489297" style="stroke: #000000; stroke-width: 0.8"/>
      </g>
     </g>
     <g id="text_14">
      <!-- 125 -->
      <g transform="translate(31.5125 197.288516)scale(0.1 -0.1)">
       <use xlink:href="#DejaVuSans-31"/>
       <use xlink:href="#DejaVuSans-32" x="63.623047"/>
       <use xlink:href="#DejaVuSans-35" x="127.246094"/>
      </g>
     </g>
    </g>
    <g id="ytick_5">
     <g id="line2d_14">
      <g>
       <use xlink:href="#ma9df8cf278" x="57.6" y="160.797405" style="stroke: #000000; stroke-width: 0.8"/>
      </g>
     </g>
     <g id="text_15">
      <!-- 150 -->
      <g transform="translate(31.5125 164.596624)scale(0.1 -0.1)">
       <use xlink:href="#DejaVuSans-31"/>
       <use xlink:href="#DejaVuSans-35" x="63.623047"/>
       <use xlink:href="#DejaVuSans-30" x="127.246094"/>
      </g>
     </g>
    </g>
    <g id="ytick_6">
     <g id="line2d_15">
      <g>
       <use xlink:href="#ma9df8cf278" x="57.6" y="128.105514" style="stroke: #000000; stroke-width: 0.8"/>
      </g>
     </g>
     <g id="text_16">
      <!-- 175 -->
      <g transform="translate(31.5125 131.904732)scale(0.1 -0.1)">
       <use xlink:href="#DejaVuSans-31"/>
       <use xlink:href="#DejaVuSans-37" x="63.623047"/>
       <use xlink:href="#DejaVuSans-35" x="127.246094"/>
      </g>
     </g>
    </g>
    <g id="ytick_7">
     <g id="line2d_16">
      <g>
       <use xlink:href="#ma9df8cf278" x="57.6" y="95.413622" style="stroke: #000000; stroke-width: 0.8"/>
      </g>
     </g>
     <g id="text_17">
      <!-- 200 -->
      <g transform="translate(31.5125 99.21284)scale(0.1 -0.1)">
       <use xlink:href="#DejaVuSans-32"/>
       <use xlink:href="#DejaVuSans-30" x="63.623047"/>
       <use xlink:href="#DejaVuSans-30" x="127.246094"/>
      </g>
     </g>
    </g>
    <g id="ytick_8">
     <g id="line2d_17">
      <g>
       <use xlink:href="#ma9df8cf278" x="57.6" y="62.72173" style="stroke: #000000; stroke-width: 0.8"/>
      </g>
     </g>
     <g id="text_18">
      <!-- 225 -->
      <g transform="translate(31.5125 66.520948)scale(0.1 -0.1)">
       <use xlink:href="#DejaVuSans-32"/>
       <use xlink:href="#DejaVuSans-32" x="63.623047"/>
       <use xlink:href="#DejaVuSans-35" x="127.246094"/>
      </g>
     </g>
    </g>
    <g id="text_19">
     <!-- Reward Density -->
     <g transform="translate(25.432812 213.74675)rotate(-90)scale(0.1 -0.1)">
      <defs>
       <path id="DejaVuSans-52" d="M 2841 2188 
Q 3044 2119 3236 1894 
Q 3428 1669 3622 1275 
L 4263 0 
L 3584 0 
L 2988 1197 
Q 2756 1666 2539 1819 
Q 2322 1972 1947 1972 
L 1259 1972 
L 1259 0 
L 628 0 
L 628 4666 
L 2053 4666 
Q 2853 4666 3247 4331 
Q 3641 3997 3641 3322 
Q 3641 2881 3436 2590 
Q 3231 2300 2841 2188 
z
M 1259 4147 
L 1259 2491 
L 2053 2491 
Q 2509 2491 2742 2702 
Q 2975 2913 2975 3322 
Q 2975 3731 2742 3939 
Q 2509 4147 2053 4147 
L 1259 4147 
z
" transform="scale(0.015625)"/>
       <path id="DejaVuSans-77" d="M 269 3500 
L 844 3500 
L 1563 769 
L 2278 3500 
L 2956 3500 
L 3675 769 
L 4391 3500 
L 4966 3500 
L 4050 0 
L 3372 0 
L 2619 2869 
L 1863 0 
L 1184 0 
L 269 3500 
z
" transform="scale(0.015625)"/>
       <path id="DejaVuSans-44" d="M 1259 4147 
L 1259 519 
L 2022 519 
Q 2988 519 3436 956 
Q 3884 1394 3884 2338 
Q 3884 3275 3436 3711 
Q 2988 4147 2022 4147 
L 1259 4147 
z
M 628 4666 
L 1925 4666 
Q 3281 4666 3915 4102 
Q 4550 3538 4550 2338 
Q 4550 1131 3912 565 
Q 3275 0 1925 0 
L 628 0 
L 628 4666 
z
" transform="scale(0.015625)"/>
       <path id="DejaVuSans-74" d="M 1172 4494 
L 1172 3500 
L 2356 3500 
L 2356 3053 
L 1172 3053 
L 1172 1153 
Q 1172 725 1289 603 
Q 1406 481 1766 481 
L 2356 481 
L 2356 0 
L 1766 0 
Q 1100 0 847 248 
Q 594 497 594 1153 
L 594 3053 
L 172 3053 
L 172 3500 
L 594 3500 
L 594 4494 
L 1172 4494 
z
" transform="scale(0.015625)"/>
       <path id="DejaVuSans-79" d="M 2059 -325 
Q 1816 -950 1584 -1140 
Q 1353 -1331 966 -1331 
L 506 -1331 
L 506 -850 
L 844 -850 
Q 1081 -850 1212 -737 
Q 1344 -625 1503 -206 
L 1606 56 
L 191 3500 
L 800 3500 
L 1894 763 
L 2988 3500 
L 3597 3500 
L 2059 -325 
z
" transform="scale(0.015625)"/>
      </defs>
      <use xlink:href="#DejaVuSans-52"/>
      <use xlink:href="#DejaVuSans-65" x="64.982422"/>
      <use xlink:href="#DejaVuSans-77" x="126.505859"/>
      <use xlink:href="#DejaVuSans-61" x="208.292969"/>
      <use xlink:href="#DejaVuSans-72" x="269.572266"/>
      <use xlink:href="#DejaVuSans-64" x="308.935547"/>
      <use xlink:href="#DejaVuSans-20" x="372.412109"/>
      <use xlink:href="#DejaVuSans-44" x="404.199219"/>
      <use xlink:href="#DejaVuSans-65" x="481.201172"/>
      <use xlink:href="#DejaVuSans-6e" x="542.724609"/>
      <use xlink:href="#DejaVuSans-73" x="606.103516"/>
      <use xlink:href="#DejaVuSans-69" x="658.203125"/>
      <use xlink:href="#DejaVuSans-74" x="685.986328"/>
      <use xlink:href="#DejaVuSans-79" x="725.195312"/>
     </g>
    </g>
   </g>
   <g id="LineCollection_1">
    <path d="M 92.572407 205.022997 
L 130.051767 205.022997 
" clip-path="url(#pe5d10294b9)" style="fill: none; stroke: #1f77b4; stroke-width: 1.5"/>
    <path d="M 175.859874 163.245374 
L 213.339234 163.245374 
" clip-path="url(#pe5d10294b9)" style="fill: none; stroke: #1f77b4; stroke-width: 1.5"/>
    <path d="M 259.147341 148.40064 
L 296.626701 148.40064 
" clip-path="url(#pe5d10294b9)" style="fill: none; stroke: #1f77b4; stroke-width: 1.5"/>
    <path d="M 342.268233 160.112183 
L 379.747593 160.112183 
" clip-path="url(#pe5d10294b9)" style="fill: none; stroke: #1f77b4; stroke-width: 1.5"/>
   </g>
   <g id="LineCollection_2">
    <path d="M 92.572407 99.336649 
L 130.051767 99.336649 
" clip-path="url(#pe5d10294b9)" style="fill: none; stroke: #1f77b4; stroke-width: 1.5"/>
    <path d="M 175.859874 73.183135 
L 213.339234 73.183135 
" clip-path="url(#pe5d10294b9)" style="fill: none; stroke: #1f77b4; stroke-width: 1.5"/>
    <path d="M 259.147341 53.568 
L 296.626701 53.568 
" clip-path="url(#pe5d10294b9)" style="fill: none; stroke: #1f77b4; stroke-width: 1.5"/>
    <path d="M 342.268233 77.106162 
L 379.747593 77.106162 
" clip-path="url(#pe5d10294b9)" style="fill: none; stroke: #1f77b4; stroke-width: 1.5"/>
   </g>
   <g id="LineCollection_3">
    <path d="M 92.572407 295.488 
L 130.051767 295.488 
" clip-path="url(#pe5d10294b9)" style="fill: none; stroke: #1f77b4; stroke-width: 1.5"/>
    <path d="M 175.859874 249.719351 
L 213.339234 249.719351 
" clip-path="url(#pe5d10294b9)" style="fill: none; stroke: #1f77b4; stroke-width: 1.5"/>
    <path d="M 259.147341 239.257946 
L 296.626701 239.257946 
" clip-path="url(#pe5d10294b9)" style="fill: none; stroke: #1f77b4; stroke-width: 1.5"/>
    <path d="M 342.268233 249.719351 
L 379.747593 249.719351 
" clip-path="url(#pe5d10294b9)" style="fill: none; stroke: #1f77b4; stroke-width: 1.5"/>
   </g>
   <g id="LineCollection_4">
    <path d="M 111.312087 295.488 
L 111.312087 99.336649 
" clip-path="url(#pe5d10294b9)" style="fill: none; stroke: #1f77b4; stroke-width: 1.5"/>
    <path d="M 194.599554 249.719351 
L 194.599554 73.183135 
" clip-path="url(#pe5d10294b9)" style="fill: none; stroke: #1f77b4; stroke-width: 1.5"/>
    <path d="M 277.887021 239.257946 
L 277.887021 53.568 
" clip-path="url(#pe5d10294b9)" style="fill: none; stroke: #1f77b4; stroke-width: 1.5"/>
    <path d="M 361.007913 249.719351 
L 361.007913 77.106162 
" clip-path="url(#pe5d10294b9)" style="fill: none; stroke: #1f77b4; stroke-width: 1.5"/>
   </g>
   <g id="line2d_18">
    <path d="M 111.312087 205.022997 
L 194.599554 163.245374 
L 277.887021 148.40064 
L 361.007913 160.112183 
" clip-path="url(#pe5d10294b9)" style="fill: none; stroke: #4682b4; stroke-width: 1.5; stroke-linecap: square"/>
   </g>
   <g id="patch_3">
    <path d="M 57.6 307.584 
L 57.6 41.472 
" style="fill: none; stroke: #000000; stroke-width: 0.8; stroke-linejoin: miter; stroke-linecap: square"/>
   </g>
   <g id="patch_4">
    <path d="M 414.72 307.584 
L 414.72 41.472 
" style="fill: none; stroke: #000000; stroke-width: 0.8; stroke-linejoin: miter; stroke-linecap: square"/>
   </g>
   <g id="patch_5">
    <path d="M 57.6 307.584 
L 414.72 307.584 
" style="fill: none; stroke: #000000; stroke-width: 0.8; stroke-linejoin: miter; stroke-linecap: square"/>
   </g>
   <g id="patch_6">
    <path d="M 57.6 41.472 
L 414.72 41.472 
" style="fill: none; stroke: #000000; stroke-width: 0.8; stroke-linejoin: miter; stroke-linecap: square"/>
   </g>
   <g id="text_20">
    <!-- Violinplot for progress of owner/rebuys -->
    <g transform="translate(119.788125 35.472)scale(0.12 -0.12)">
     <defs>
      <path id="DejaVuSans-56" d="M 1831 0 
L 50 4666 
L 709 4666 
L 2188 738 
L 3669 4666 
L 4325 4666 
L 2547 0 
L 1831 0 
z
" transform="scale(0.015625)"/>
      <path id="DejaVuSans-6c" d="M 603 4863 
L 1178 4863 
L 1178 0 
L 603 0 
L 603 4863 
z
" transform="scale(0.015625)"/>
      <path id="DejaVuSans-66" d="M 2375 4863 
L 2375 4384 
L 1825 4384 
Q 1516 4384 1395 4259 
Q 1275 4134 1275 3809 
L 1275 3500 
L 2222 3500 
L 2222 3053 
L 1275 3053 
L 1275 0 
L 697 0 
L 697 3053 
L 147 3053 
L 147 3500 
L 697 3500 
L 697 3744 
Q 697 4328 969 4595 
Q 1241 4863 1831 4863 
L 2375 4863 
z
" transform="scale(0.015625)"/>
      <path id="DejaVuSans-67" d="M 2906 1791 
Q 2906 2416 2648 2759 
Q 2391 3103 1925 3103 
Q 1463 3103 1205 2759 
Q 947 2416 947 1791 
Q 947 1169 1205 825 
Q 1463 481 1925 481 
Q 2391 481 2648 825 
Q 2906 1169 2906 1791 
z
M 3481 434 
Q 3481 -459 3084 -895 
Q 2688 -1331 1869 -1331 
Q 1566 -1331 1297 -1286 
Q 1028 -1241 775 -1147 
L 775 -588 
Q 1028 -725 1275 -790 
Q 1522 -856 1778 -856 
Q 2344 -856 2625 -561 
Q 2906 -266 2906 331 
L 2906 616 
Q 2728 306 2450 153 
Q 2172 0 1784 0 
Q 1141 0 747 490 
Q 353 981 353 1791 
Q 353 2603 747 3093 
Q 1141 3584 1784 3584 
Q 2172 3584 2450 3431 
Q 2728 3278 2906 2969 
L 2906 3500 
L 3481 3500 
L 3481 434 
z
" transform="scale(0.015625)"/>
      <path id="DejaVuSans-2f" d="M 1625 4666 
L 2156 4666 
L 531 -594 
L 0 -594 
L 1625 4666 
z
" transform="scale(0.015625)"/>
      <path id="DejaVuSans-62" d="M 3116 1747 
Q 3116 2381 2855 2742 
Q 2594 3103 2138 3103 
Q 1681 3103 1420 2742 
Q 1159 2381 1159 1747 
Q 1159 1113 1420 752 
Q 1681 391 2138 391 
Q 2594 391 2855 752 
Q 3116 1113 3116 1747 
z
M 1159 2969 
Q 1341 3281 1617 3432 
Q 1894 3584 2278 3584 
Q 2916 3584 3314 3078 
Q 3713 2572 3713 1747 
Q 3713 922 3314 415 
Q 2916 -91 2278 -91 
Q 1894 -91 1617 61 
Q 1341 213 1159 525 
L 1159 0 
L 581 0 
L 581 4863 
L 1159 4863 
L 1159 2969 
z
" transform="scale(0.015625)"/>
      <path id="DejaVuSans-75" d="M 544 1381 
L 544 3500 
L 1119 3500 
L 1119 1403 
Q 1119 906 1312 657 
Q 1506 409 1894 409 
Q 2359 409 2629 706 
Q 2900 1003 2900 1516 
L 2900 3500 
L 3475 3500 
L 3475 0 
L 2900 0 
L 2900 538 
Q 2691 219 2414 64 
Q 2138 -91 1772 -91 
Q 1169 -91 856 284 
Q 544 659 544 1381 
z
M 1991 3584 
L 1991 3584 
z
" transform="scale(0.015625)"/>
     </defs>
     <use xlink:href="#DejaVuSans-56"/>
     <use xlink:href="#DejaVuSans-69" x="66.158203"/>
     <use xlink:href="#DejaVuSans-6f" x="93.941406"/>
     <use xlink:href="#DejaVuSans-6c" x="155.123047"/>
     <use xlink:href="#DejaVuSans-69" x="182.90625"/>
     <use xlink:href="#DejaVuSans-6e" x="210.689453"/>
     <use xlink:href="#DejaVuSans-70" x="274.068359"/>
     <use xlink:href="#DejaVuSans-6c" x="337.544922"/>
     <use xlink:href="#DejaVuSans-6f" x="365.328125"/>
     <use xlink:href="#DejaVuSans-74" x="426.509766"/>
     <use xlink:href="#DejaVuSans-20" x="465.71875"/>
     <use xlink:href="#DejaVuSans-66" x="497.505859"/>
     <use xlink:href="#DejaVuSans-6f" x="532.710938"/>
     <use xlink:href="#DejaVuSans-72" x="593.892578"/>
     <use xlink:href="#DejaVuSans-20" x="635.005859"/>
     <use xlink:href="#DejaVuSans-70" x="666.792969"/>
     <use xlink:href="#DejaVuSans-72" x="730.269531"/>
     <use xlink:href="#DejaVuSans-6f" x="769.132812"/>
     <use xlink:href="#DejaVuSans-67" x="830.314453"/>
     <use xlink:href="#DejaVuSans-72" x="893.791016"/>
     <use xlink:href="#DejaVuSans-65" x="932.654297"/>
     <use xlink:href="#DejaVuSans-73" x="994.177734"/>
     <use xlink:href="#DejaVuSans-73" x="1046.277344"/>
     <use xlink:href="#DejaVuSans-20" x="1098.376953"/>
     <use xlink:href="#DejaVuSans-6f" x="1130.164062"/>
     <use xlink:href="#DejaVuSans-66" x="1191.345703"/>
     <use xlink:href="#DejaVuSans-20" x="1226.550781"/>
     <use xlink:href="#DejaVuSans-6f" x="1258.337891"/>
     <use xlink:href="#DejaVuSans-77" x="1319.519531"/>
     <use xlink:href="#DejaVuSans-6e" x="1401.306641"/>
     <use xlink:href="#DejaVuSans-65" x="1464.685547"/>
     <use xlink:href="#DejaVuSans-72" x="1526.208984"/>
     <use xlink:href="#DejaVuSans-2f" x="1567.322266"/>
     <use xlink:href="#DejaVuSans-72" x="1601.013672"/>
     <use xlink:href="#DejaVuSans-65" x="1639.876953"/>
     <use xlink:href="#DejaVuSans-62" x="1701.400391"/>
     <use xlink:href="#DejaVuSans-75" x="1764.876953"/>
     <use xlink:href="#DejaVuSans-79" x="1828.255859"/>
     <use xlink:href="#DejaVuSans-73" x="1887.435547"/>
    </g>
   </g>
   <g id="legend_1">
    <g id="patch_7">
     <path d="M 284.430938 64.150125 
L 407.72 64.150125 
Q 409.72 64.150125 409.72 62.150125 
L 409.72 48.472 
Q 409.72 46.472 407.72 46.472 
L 284.430938 46.472 
Q 282.430938 46.472 282.430938 48.472 
L 282.430938 62.150125 
Q 282.430938 64.150125 284.430938 64.150125 
z
" style="fill: #ffffff; opacity: 0.8; stroke: #cccccc; stroke-linejoin: miter"/>
    </g>
    <g id="line2d_19">
     <path d="M 286.430938 54.570438 
L 296.430938 54.570438 
L 306.430938 54.570438 
" style="fill: none; stroke: #4682b4; stroke-width: 1.5; stroke-linecap: square"/>
    </g>
    <g id="text_21">
     <!-- Storage-Minimizer -->
     <g transform="translate(314.430938 58.070438)scale(0.1 -0.1)">
      <defs>
       <path id="DejaVuSans-53" d="M 3425 4513 
L 3425 3897 
Q 3066 4069 2747 4153 
Q 2428 4238 2131 4238 
Q 1616 4238 1336 4038 
Q 1056 3838 1056 3469 
Q 1056 3159 1242 3001 
Q 1428 2844 1947 2747 
L 2328 2669 
Q 3034 2534 3370 2195 
Q 3706 1856 3706 1288 
Q 3706 609 3251 259 
Q 2797 -91 1919 -91 
Q 1588 -91 1214 -16 
Q 841 59 441 206 
L 441 856 
Q 825 641 1194 531 
Q 1563 422 1919 422 
Q 2459 422 2753 634 
Q 3047 847 3047 1241 
Q 3047 1584 2836 1778 
Q 2625 1972 2144 2069 
L 1759 2144 
Q 1053 2284 737 2584 
Q 422 2884 422 3419 
Q 422 4038 858 4394 
Q 1294 4750 2059 4750 
Q 2388 4750 2728 4690 
Q 3069 4631 3425 4513 
z
" transform="scale(0.015625)"/>
       <path id="DejaVuSans-2d" d="M 313 2009 
L 1997 2009 
L 1997 1497 
L 313 1497 
L 313 2009 
z
" transform="scale(0.015625)"/>
       <path id="DejaVuSans-4d" d="M 628 4666 
L 1569 4666 
L 2759 1491 
L 3956 4666 
L 4897 4666 
L 4897 0 
L 4281 0 
L 4281 4097 
L 3078 897 
L 2444 897 
L 1241 4097 
L 1241 0 
L 628 0 
L 628 4666 
z
" transform="scale(0.015625)"/>
       <path id="DejaVuSans-6d" d="M 3328 2828 
Q 3544 3216 3844 3400 
Q 4144 3584 4550 3584 
Q 5097 3584 5394 3201 
Q 5691 2819 5691 2113 
L 5691 0 
L 5113 0 
L 5113 2094 
Q 5113 2597 4934 2840 
Q 4756 3084 4391 3084 
Q 3944 3084 3684 2787 
Q 3425 2491 3425 1978 
L 3425 0 
L 2847 0 
L 2847 2094 
Q 2847 2600 2669 2842 
Q 2491 3084 2119 3084 
Q 1678 3084 1418 2786 
Q 1159 2488 1159 1978 
L 1159 0 
L 581 0 
L 581 3500 
L 1159 3500 
L 1159 2956 
Q 1356 3278 1631 3431 
Q 1906 3584 2284 3584 
Q 2666 3584 2933 3390 
Q 3200 3197 3328 2828 
z
" transform="scale(0.015625)"/>
       <path id="DejaVuSans-7a" d="M 353 3500 
L 3084 3500 
L 3084 2975 
L 922 459 
L 3084 459 
L 3084 0 
L 275 0 
L 275 525 
L 2438 3041 
L 353 3041 
L 353 3500 
z
" transform="scale(0.015625)"/>
      </defs>
      <use xlink:href="#DejaVuSans-53"/>
      <use xlink:href="#DejaVuSans-74" x="63.476562"/>
      <use xlink:href="#DejaVuSans-6f" x="102.685547"/>
      <use xlink:href="#DejaVuSans-72" x="163.867188"/>
      <use xlink:href="#DejaVuSans-61" x="204.980469"/>
      <use xlink:href="#DejaVuSans-67" x="266.259766"/>
      <use xlink:href="#DejaVuSans-65" x="329.736328"/>
      <use xlink:href="#DejaVuSans-2d" x="391.259766"/>
      <use xlink:href="#DejaVuSans-4d" x="427.34375"/>
      <use xlink:href="#DejaVuSans-69" x="513.623047"/>
      <use xlink:href="#DejaVuSans-6e" x="541.40625"/>
      <use xlink:href="#DejaVuSans-69" x="604.785156"/>
      <use xlink:href="#DejaVuSans-6d" x="632.568359"/>
      <use xlink:href="#DejaVuSans-69" x="729.980469"/>
      <use xlink:href="#DejaVuSans-7a" x="757.763672"/>
      <use xlink:href="#DejaVuSans-65" x="810.253906"/>
      <use xlink:href="#DejaVuSans-72" x="871.777344"/>
     </g>
    </g>
   </g>
  </g>
 </g>
 <defs>
  <clipPath id="pe5d10294b9">
   <rect x="57.6" y="41.472" width="357.12" height="266.112"/>
  </clipPath>
 </defs>
</svg>
