<?xml version="1.0" encoding="utf-8" standalone="no"?>
<!DOCTYPE svg PUBLIC "-//W3C//DTD SVG 1.1//EN"
  "http://www.w3.org/Graphics/SVG/1.1/DTD/svg11.dtd">
<svg xmlns:xlink="http://www.w3.org/1999/xlink" width="460.8pt" height="345.6pt" viewBox="0 0 460.8 345.6" xmlns="http://www.w3.org/2000/svg" version="1.1">
 <metadata>
  <rdf:RDF xmlns:dc="http://purl.org/dc/elements/1.1/" xmlns:cc="http://creativecommons.org/ns#" xmlns:rdf="http://www.w3.org/1999/02/22-rdf-syntax-ns#">
   <cc:Work>
    <dc:type rdf:resource="http://purl.org/dc/dcmitype/StillImage"/>
    <dc:date>2022-06-16T12:02:58.920220</dc:date>
    <dc:format>image/svg+xml</dc:format>
    <dc:creator>
     <cc:Agent>
      <dc:title>Matplotlib v3.5.2, https://matplotlib.org/</dc:title>
     </cc:Agent>
    </dc:creator>
   </cc:Work>
  </rdf:RDF>
 </metadata>
 <defs>
  <style type="text/css">*{stroke-linejoin: round; stroke-linecap: butt}</style>
 </defs>
 <g id="figure_1">
  <g id="patch_1">
   <path d="M 0 345.6 
L 460.8 345.6 
L 460.8 0 
L 0 0 
z
" style="fill: #ffffff"/>
  </g>
  <g id="axes_1">
   <g id="patch_2">
    <path d="M 57.6 307.584 
L 414.72 307.584 
L 414.72 41.472 
L 57.6 41.472 
z
" style="fill: #ffffff"/>
   </g>
   <g id="PolyCollection_1">
    <path d="M 114.606421 295.488 
L 108.017754 295.488 
L 107.294828 293.937787 
L 106.491838 292.387574 
L 105.607509 290.83736 
L 104.638696 289.287147 
L 103.581126 287.736934 
L 102.43111 286.186721 
L 101.187783 284.636508 
L 99.855129 283.086295 
L 98.443017 281.536081 
L 96.966682 279.985868 
L 95.444589 278.435655 
L 93.895179 276.885442 
L 92.333434 275.335229 
L 90.768424 273.785016 
L 89.202714 272.234802 
L 87.634066 270.684589 
L 86.059103 269.134376 
L 84.478003 267.584163 
L 82.898902 266.03395 
L 81.340684 264.483737 
L 79.833275 262.933523 
L 78.415234 261.38331 
L 77.129217 259.833097 
L 76.016448 258.282884 
L 75.111568 256.732671 
L 74.439067 255.182458 
L 74.011961 253.632244 
L 73.832727 252.082031 
L 73.895945 250.531818 
L 74.191686 248.981605 
L 74.708685 247.431392 
L 75.436484 245.881178 
L 76.366104 244.330965 
L 77.489179 242.780752 
L 78.795819 241.230539 
L 80.271758 239.680326 
L 81.895474 238.130113 
L 83.636098 236.579899 
L 85.452847 235.029686 
L 87.296541 233.479473 
L 89.113381 231.92926 
L 90.850663 230.379047 
L 92.46352 228.828834 
L 93.921363 227.27862 
L 95.212494 225.728407 
L 96.345612 224.178194 
L 97.347522 222.627981 
L 98.257272 221.077768 
L 99.117853 219.527555 
L 99.967248 217.977341 
L 100.830839 216.427128 
L 101.716827 214.876915 
L 102.615518 213.326702 
L 103.502376 211.776489 
L 104.34384 210.226275 
L 105.104385 208.676062 
L 105.753255 207.125849 
L 106.269621 205.575636 
L 106.645506 204.025423 
L 106.886399 202.47521 
L 107.009931 200.924996 
L 107.04318 199.374783 
L 107.019178 197.82457 
L 106.973125 196.274357 
L 106.938652 194.724144 
L 106.944456 193.173931 
L 107.011577 191.623717 
L 107.151622 190.073504 
L 107.366152 188.523291 
L 107.647346 186.973078 
L 107.979876 185.422865 
L 108.343679 183.872652 
L 108.71716 182.322438 
L 109.080282 180.772225 
L 109.417033 179.222012 
L 109.716893 177.671799 
L 109.975201 176.121586 
L 110.192483 174.571373 
L 110.373051 173.021159 
L 110.523262 171.470946 
L 110.649827 169.920733 
L 110.758507 168.37052 
L 110.853352 166.820307 
L 110.936502 165.270093 
L 111.008446 163.71988 
L 111.06853 162.169667 
L 111.115556 160.619454 
L 111.148303 159.069241 
L 111.165928 157.519028 
L 111.168237 155.968814 
L 111.15588 154.418601 
L 111.13047 152.868388 
L 111.094666 151.318175 
L 111.052141 149.767962 
L 111.007408 148.217749 
L 110.965455 146.667535 
L 110.931196 145.117322 
L 110.908824 143.567109 
L 110.901194 142.016896 
L 111.722981 142.016896 
L 111.722981 142.016896 
L 111.715351 143.567109 
L 111.692978 145.117322 
L 111.658719 146.667535 
L 111.616767 148.217749 
L 111.572034 149.767962 
L 111.529509 151.318175 
L 111.493704 152.868388 
L 111.468295 154.418601 
L 111.455937 155.968814 
L 111.458247 157.519028 
L 111.475871 159.069241 
L 111.508618 160.619454 
L 111.555645 162.169667 
L 111.615729 163.71988 
L 111.687672 165.270093 
L 111.770823 166.820307 
L 111.865668 168.37052 
L 111.974348 169.920733 
L 112.100913 171.470946 
L 112.251123 173.021159 
L 112.431692 174.571373 
L 112.648974 176.121586 
L 112.907282 177.671799 
L 113.207142 179.222012 
L 113.543892 180.772225 
L 113.907015 182.322438 
L 114.280496 183.872652 
L 114.644298 185.422865 
L 114.976829 186.973078 
L 115.258023 188.523291 
L 115.472552 190.073504 
L 115.612598 191.623717 
L 115.679719 193.173931 
L 115.685522 194.724144 
L 115.65105 196.274357 
L 115.604997 197.82457 
L 115.580995 199.374783 
L 115.614243 200.924996 
L 115.737776 202.47521 
L 115.978669 204.025423 
L 116.354553 205.575636 
L 116.87092 207.125849 
L 117.51979 208.676062 
L 118.280335 210.226275 
L 119.121799 211.776489 
L 120.008657 213.326702 
L 120.907348 214.876915 
L 121.793335 216.427128 
L 122.656927 217.977341 
L 123.506322 219.527555 
L 124.366903 221.077768 
L 125.276653 222.627981 
L 126.278562 224.178194 
L 127.41168 225.728407 
L 128.702812 227.27862 
L 130.160655 228.828834 
L 131.773512 230.379047 
L 133.510794 231.92926 
L 135.327634 233.479473 
L 137.171327 235.029686 
L 138.988076 236.579899 
L 140.728701 238.130113 
L 142.352417 239.680326 
L 143.828355 241.230539 
L 145.134996 242.780752 
L 146.258071 244.330965 
L 147.187691 245.881178 
L 147.91549 247.431392 
L 148.432489 248.981605 
L 148.72823 250.531818 
L 148.791447 252.082031 
L 148.612214 253.632244 
L 148.185107 255.182458 
L 147.512607 256.732671 
L 146.607727 258.282884 
L 145.494957 259.833097 
L 144.208941 261.38331 
L 142.7909 262.933523 
L 141.28349 264.483737 
L 139.725273 266.03395 
L 138.146172 267.584163 
L 136.565072 269.134376 
L 134.990108 270.684589 
L 133.421461 272.234802 
L 131.855751 273.785016 
L 130.29074 275.335229 
L 128.728996 276.885442 
L 127.179585 278.435655 
L 125.657493 279.985868 
L 124.181158 281.536081 
L 122.769046 283.086295 
L 121.436392 284.636508 
L 120.193065 286.186721 
L 119.043049 287.736934 
L 117.985478 289.287147 
L 117.016665 290.83736 
L 116.132337 292.387574 
L 115.329347 293.937787 
L 114.606421 295.488 
z
" clip-path="url(#p8533a1ae5f)" style="fill: #1f77b4; fill-opacity: 0.3"/>
   </g>
   <g id="PolyCollection_2">
    <path d="M 195.442735 209.642397 
L 193.756373 209.642397 
L 193.638326 208.291798 
L 193.507767 206.941199 
L 193.361668 205.590601 
L 193.196987 204.240002 
L 193.011046 202.889403 
L 192.801791 201.538804 
L 192.567871 200.188205 
L 192.308471 198.837607 
L 192.022918 197.487008 
L 191.710117 196.136409 
L 191.367908 194.78581 
L 190.992497 193.435211 
L 190.578113 192.084613 
L 190.117042 190.734014 
L 189.600159 189.383415 
L 189.017977 188.032816 
L 188.362148 186.682217 
L 187.627199 185.331619 
L 186.812175 183.98102 
L 185.921803 182.630421 
L 184.966804 181.279822 
L 183.963112 179.929223 
L 182.929984 178.578625 
L 181.887258 177.228026 
L 180.852251 175.877427 
L 179.836964 174.526828 
L 178.84626 173.176229 
L 177.877487 171.825631 
L 176.921742 170.475032 
L 175.96655 169.124433 
L 174.999396 167.773834 
L 174.011293 166.423235 
L 172.999545 165.072636 
L 171.968995 163.722038 
L 170.931443 162.371439 
L 169.903311 161.02084 
L 168.90209 159.670241 
L 167.94241 158.319642 
L 167.032665 156.969044 
L 166.173022 155.618445 
L 165.355311 154.267846 
L 164.564873 152.917247 
L 163.784015 151.566648 
L 162.996357 150.21605 
L 162.191253 148.865451 
L 161.367414 147.514852 
L 160.535105 146.164253 
L 159.716518 144.813654 
L 158.944239 143.463056 
L 158.257987 142.112457 
L 157.700073 140.761858 
L 157.31018 139.411259 
L 157.120194 138.06066 
L 157.149892 136.710062 
L 157.404199 135.359463 
L 157.87255 134.008864 
L 158.530549 132.658265 
L 159.343704 131.307666 
L 160.2726 129.957068 
L 161.278548 128.606469 
L 162.328681 127.25587 
L 163.399584 125.905271 
L 164.478905 124.554672 
L 165.564846 123.204073 
L 166.663884 121.853475 
L 167.787356 120.502876 
L 168.947692 119.152277 
L 170.155008 117.801678 
L 171.41459 116.451079 
L 172.725526 115.100481 
L 174.080539 113.749882 
L 175.466833 112.399283 
L 176.867656 111.048684 
L 178.264215 109.698085 
L 179.637591 108.347487 
L 180.970334 106.996888 
L 182.247569 105.646289 
L 183.457539 104.29569 
L 184.591654 102.945091 
L 185.644224 101.594493 
L 186.612057 100.243894 
L 187.4941 98.893295 
L 188.291201 97.542696 
L 189.005992 96.192097 
L 189.642778 94.841499 
L 190.207358 93.4909 
L 190.706669 92.140301 
L 191.148253 90.789702 
L 191.539637 89.439103 
L 191.887725 88.088505 
L 192.198371 86.737906 
L 192.4762 85.387307 
L 192.724716 84.036708 
L 192.946624 82.686109 
L 193.144245 81.33551 
L 193.319887 79.984912 
L 193.476056 78.634313 
L 193.615469 77.283714 
L 193.740881 75.933115 
L 195.458227 75.933115 
L 195.458227 75.933115 
L 195.583639 77.283714 
L 195.723053 78.634313 
L 195.879221 79.984912 
L 196.054863 81.33551 
L 196.252484 82.686109 
L 196.474392 84.036708 
L 196.722908 85.387307 
L 197.000737 86.737906 
L 197.311383 88.088505 
L 197.659472 89.439103 
L 198.050855 90.789702 
L 198.49244 92.140301 
L 198.99175 93.4909 
L 199.55633 94.841499 
L 200.193116 96.192097 
L 200.907907 97.542696 
L 201.705009 98.893295 
L 202.587051 100.243894 
L 203.554884 101.594493 
L 204.607454 102.945091 
L 205.74157 104.29569 
L 206.951539 105.646289 
L 208.228775 106.996888 
L 209.561517 108.347487 
L 210.934893 109.698085 
L 212.331453 111.048684 
L 213.732275 112.399283 
L 215.118569 113.749882 
L 216.473582 115.100481 
L 217.784518 116.451079 
L 219.0441 117.801678 
L 220.251417 119.152277 
L 221.411752 120.502876 
L 222.535224 121.853475 
L 223.634262 123.204073 
L 224.720203 124.554672 
L 225.799524 125.905271 
L 226.870427 127.25587 
L 227.92056 128.606469 
L 228.926508 129.957068 
L 229.855404 131.307666 
L 230.66856 132.658265 
L 231.326558 134.008864 
L 231.794909 135.359463 
L 232.049216 136.710062 
L 232.078914 138.06066 
L 231.888928 139.411259 
L 231.499035 140.761858 
L 230.941122 142.112457 
L 230.254869 143.463056 
L 229.48259 144.813654 
L 228.664004 146.164253 
L 227.831694 147.514852 
L 227.007855 148.865451 
L 226.202751 150.21605 
L 225.415094 151.566648 
L 224.634235 152.917247 
L 223.843798 154.267846 
L 223.026086 155.618445 
L 222.166443 156.969044 
L 221.256698 158.319642 
L 220.297018 159.670241 
L 219.295797 161.02084 
L 218.267665 162.371439 
L 217.230113 163.722038 
L 216.199563 165.072636 
L 215.187815 166.423235 
L 214.199713 167.773834 
L 213.232558 169.124433 
L 212.277366 170.475032 
L 211.321621 171.825631 
L 210.352848 173.176229 
L 209.362144 174.526828 
L 208.346858 175.877427 
L 207.31185 177.228026 
L 206.269124 178.578625 
L 205.235996 179.929223 
L 204.232304 181.279822 
L 203.277305 182.630421 
L 202.386933 183.98102 
L 201.571909 185.331619 
L 200.83696 186.682217 
L 200.181131 188.032816 
L 199.598949 189.383415 
L 199.082066 190.734014 
L 198.620995 192.084613 
L 198.206611 193.435211 
L 197.8312 194.78581 
L 197.488991 196.136409 
L 197.17619 197.487008 
L 196.890638 198.837607 
L 196.631237 200.188205 
L 196.397317 201.538804 
L 196.188062 202.889403 
L 196.002121 204.240002 
L 195.83744 205.590601 
L 195.691341 206.941199 
L 195.560783 208.291798 
L 195.442735 209.642397 
z
" clip-path="url(#p8533a1ae5f)" style="fill: #1f77b4; fill-opacity: 0.3"/>
   </g>
   <g id="PolyCollection_3">
    <path d="M 278.402448 210.876617 
L 277.371593 210.876617 
L 277.368587 209.287641 
L 277.38041 207.698665 
L 277.400377 206.109689 
L 277.420494 204.520714 
L 277.433559 202.931738 
L 277.435097 201.342762 
L 277.424589 199.753786 
L 277.405612 198.16481 
L 277.384859 196.575834 
L 277.370324 194.986858 
L 277.369183 193.397882 
L 277.385984 191.808906 
L 277.42162 190.21993 
L 277.473289 188.630954 
L 277.535329 187.041978 
L 277.600508 185.453002 
L 277.661283 183.864026 
L 277.710542 182.27505 
L 277.741604 180.686075 
L 277.747489 179.097099 
L 277.71971 177.508123 
L 277.647055 175.919147 
L 277.514863 174.330171 
L 277.305285 172.741195 
L 276.998767 171.152219 
L 276.576689 169.563243 
L 276.024587 167.974267 
L 275.334971 166.385291 
L 274.508553 164.796315 
L 273.552957 163.207339 
L 272.478713 161.618363 
L 271.293463 160.029387 
L 269.996322 158.440411 
L 268.574866 156.851436 
L 267.006785 155.26246 
L 265.266876 153.673484 
L 263.338063 152.084508 
L 261.223284 150.495532 
L 258.954113 148.906556 
L 256.592471 147.31758 
L 254.223712 145.728604 
L 251.942235 144.139628 
L 249.833533 142.550652 
L 247.958171 140.961676 
L 246.342831 139.3727 
L 244.981258 137.783724 
L 243.84439 136.194748 
L 242.895647 134.605773 
L 242.105506 133.016797 
L 241.460059 131.427821 
L 240.960895 129.838845 
L 240.61737 128.249869 
L 240.435338 126.660893 
L 240.407661 125.071917 
L 240.510655 123.482941 
L 240.707908 121.893965 
L 240.959778 120.304989 
L 241.234787 118.716013 
L 241.518704 117.127037 
L 241.818389 115.538061 
L 242.159621 113.949085 
L 242.580265 112.360109 
L 243.121353 110.771134 
L 243.818773 109.182158 
L 244.697317 107.593182 
L 245.767595 106.004206 
L 247.025276 104.41523 
L 248.45187 102.826254 
L 250.016584 101.237278 
L 251.679436 99.648302 
L 253.395963 98.059326 
L 255.123394 96.47035 
L 256.827163 94.881374 
L 258.485839 93.292398 
L 260.092557 91.703422 
L 261.652117 90.114446 
L 263.174596 88.52547 
L 264.667743 86.936495 
L 266.130932 85.347519 
L 267.552649 83.758543 
L 268.912044 82.169567 
L 270.183469 80.580591 
L 271.342114 78.991615 
L 272.368823 77.402639 
L 273.252927 75.813663 
L 273.992872 74.224687 
L 274.595165 72.635711 
L 275.07245 71.046735 
L 275.441454 69.457759 
L 275.721173 67.868783 
L 275.931386 66.279807 
L 276.091396 64.690832 
L 276.218923 63.101856 
L 276.329145 61.51288 
L 276.433995 59.923904 
L 276.541809 58.334928 
L 276.657351 56.745952 
L 276.782144 55.156976 
L 276.914992 53.568 
L 278.859049 53.568 
L 278.859049 53.568 
L 278.991898 55.156976 
L 279.11669 56.745952 
L 279.232233 58.334928 
L 279.340047 59.923904 
L 279.444897 61.51288 
L 279.555119 63.101856 
L 279.682646 64.690832 
L 279.842656 66.279807 
L 280.052868 67.868783 
L 280.332588 69.457759 
L 280.701592 71.046735 
L 281.178877 72.635711 
L 281.781169 74.224687 
L 282.521115 75.813663 
L 283.405219 77.402639 
L 284.431928 78.991615 
L 285.590573 80.580591 
L 286.861998 82.169567 
L 288.221392 83.758543 
L 289.64311 85.347519 
L 291.106298 86.936495 
L 292.599446 88.52547 
L 294.121924 90.114446 
L 295.681485 91.703422 
L 297.288203 93.292398 
L 298.946879 94.881374 
L 300.650648 96.47035 
L 302.378078 98.059326 
L 304.094605 99.648302 
L 305.757457 101.237278 
L 307.322171 102.826254 
L 308.748765 104.41523 
L 310.006447 106.004206 
L 311.076725 107.593182 
L 311.955269 109.182158 
L 312.652688 110.771134 
L 313.193776 112.360109 
L 313.61442 113.949085 
L 313.955653 115.538061 
L 314.255338 117.127037 
L 314.539254 118.716013 
L 314.814263 120.304989 
L 315.066134 121.893965 
L 315.263386 123.482941 
L 315.366381 125.071917 
L 315.338704 126.660893 
L 315.156672 128.249869 
L 314.813147 129.838845 
L 314.313983 131.427821 
L 313.668535 133.016797 
L 312.878395 134.605773 
L 311.929652 136.194748 
L 310.792784 137.783724 
L 309.431211 139.3727 
L 307.815871 140.961676 
L 305.940509 142.550652 
L 303.831807 144.139628 
L 301.55033 145.728604 
L 299.18157 147.31758 
L 296.819928 148.906556 
L 294.550758 150.495532 
L 292.435979 152.084508 
L 290.507166 153.673484 
L 288.767257 155.26246 
L 287.199176 156.851436 
L 285.77772 158.440411 
L 284.480579 160.029387 
L 283.295329 161.618363 
L 282.221085 163.207339 
L 281.265488 164.796315 
L 280.439071 166.385291 
L 279.749455 167.974267 
L 279.197353 169.563243 
L 278.775275 171.152219 
L 278.468756 172.741195 
L 278.259178 174.330171 
L 278.126987 175.919147 
L 278.054331 177.508123 
L 278.026552 179.097099 
L 278.032437 180.686075 
L 278.0635 182.27505 
L 278.112758 183.864026 
L 278.173533 185.453002 
L 278.238713 187.041978 
L 278.300753 188.630954 
L 278.352422 190.21993 
L 278.388057 191.808906 
L 278.404859 193.397882 
L 278.403718 194.986858 
L 278.389182 196.575834 
L 278.368429 198.16481 
L 278.349452 199.753786 
L 278.338944 201.342762 
L 278.340482 202.931738 
L 278.353547 204.520714 
L 278.373665 206.109689 
L 278.393631 207.698665 
L 278.405455 209.287641 
L 278.402448 210.876617 
z
" clip-path="url(#p8533a1ae5f)" style="fill: #1f77b4; fill-opacity: 0.3"/>
   </g>
   <g id="PolyCollection_4">
    <path d="M 361.973593 195.220381 
L 360.042233 195.220381 
L 359.889298 193.954453 
L 359.708132 192.688525 
L 359.492989 191.422597 
L 359.238512 190.156669 
L 358.94032 188.890741 
L 358.595544 187.624813 
L 358.203206 186.358885 
L 357.764372 185.092957 
L 357.282023 183.827029 
L 356.76065 182.561101 
L 356.205615 181.295173 
L 355.622385 180.029244 
L 355.015753 178.763316 
L 354.389204 177.497388 
L 353.744534 176.23146 
L 353.08182 174.965532 
L 352.399755 173.699604 
L 351.6963 172.433676 
L 350.969529 171.167748 
L 350.218519 169.90182 
L 349.444083 168.635892 
L 348.649207 167.369964 
L 347.839061 166.104036 
L 347.02058 164.838108 
L 346.201656 163.57218 
L 345.390077 162.306251 
L 344.592404 161.040323 
L 343.812958 159.774395 
L 343.05311 158.508467 
L 342.310952 157.242539 
L 341.581411 155.976611 
L 340.856767 154.710683 
L 340.127487 153.444755 
L 339.383259 152.178827 
L 338.61413 150.912899 
L 337.811616 149.646971 
L 336.969726 148.381043 
L 336.085836 147.115115 
L 335.161349 145.849186 
L 334.2021 144.583258 
L 333.218447 143.31733 
L 332.224986 142.051402 
L 331.239858 140.785474 
L 330.283634 139.519546 
L 329.377843 138.253618 
L 328.543236 136.98769 
L 327.797968 135.721762 
L 327.155898 134.455834 
L 326.625196 133.189906 
L 326.207453 131.923978 
L 325.897383 130.65805 
L 325.683164 129.392122 
L 325.547369 128.126193 
L 325.468391 126.860265 
L 325.422242 125.594337 
L 325.384572 124.328409 
L 325.332784 123.062481 
L 325.248129 121.796553 
L 325.117639 120.530625 
L 324.935767 119.264697 
L 324.705578 117.998769 
L 324.439296 116.732841 
L 324.158056 115.466913 
L 323.890754 114.200985 
L 323.671955 112.935057 
L 323.539 111.669129 
L 323.528553 110.4032 
L 323.672977 109.137272 
L 323.99701 107.871344 
L 324.515179 106.605416 
L 325.230342 105.339488 
L 326.133578 104.07356 
L 327.205426 102.807632 
L 328.418291 101.541704 
L 329.739627 100.275776 
L 331.135425 99.009848 
L 332.573483 97.74392 
L 334.026033 96.477992 
L 335.471415 95.212064 
L 336.894683 93.946136 
L 338.287224 92.680207 
L 339.645601 91.414279 
L 340.969948 90.148351 
L 342.262262 88.882423 
L 343.524885 87.616495 
L 344.75939 86.350567 
L 345.965967 85.084639 
L 347.143275 83.818711 
L 348.288666 82.552783 
L 349.398618 81.286855 
L 350.469229 80.020927 
L 351.49664 78.754999 
L 352.477321 77.489071 
L 353.408195 76.223143 
L 354.286642 74.957214 
L 355.110431 73.691286 
L 355.877642 72.425358 
L 356.586645 71.15943 
L 357.236133 69.893502 
L 364.779692 69.893502 
L 364.779692 69.893502 
L 365.42918 71.15943 
L 366.138183 72.425358 
L 366.905395 73.691286 
L 367.729183 74.957214 
L 368.60763 76.223143 
L 369.538504 77.489071 
L 370.519185 78.754999 
L 371.546597 80.020927 
L 372.617207 81.286855 
L 373.727159 82.552783 
L 374.87255 83.818711 
L 376.049859 85.084639 
L 377.256436 86.350567 
L 378.490941 87.616495 
L 379.753563 88.882423 
L 381.045877 90.148351 
L 382.370225 91.414279 
L 383.728601 92.680207 
L 385.121142 93.946136 
L 386.54441 95.212064 
L 387.989792 96.477992 
L 389.442342 97.74392 
L 390.8804 99.009848 
L 392.276198 100.275776 
L 393.597534 101.541704 
L 394.810399 102.807632 
L 395.882247 104.07356 
L 396.785483 105.339488 
L 397.500647 106.605416 
L 398.018815 107.871344 
L 398.342848 109.137272 
L 398.487273 110.4032 
L 398.476825 111.669129 
L 398.34387 112.935057 
L 398.125072 114.200985 
L 397.857769 115.466913 
L 397.57653 116.732841 
L 397.310247 117.998769 
L 397.080058 119.264697 
L 396.898187 120.530625 
L 396.767696 121.796553 
L 396.683041 123.062481 
L 396.631253 124.328409 
L 396.593583 125.594337 
L 396.547435 126.860265 
L 396.468457 128.126193 
L 396.332661 129.392122 
L 396.118442 130.65805 
L 395.808372 131.923978 
L 395.390629 133.189906 
L 394.859927 134.455834 
L 394.217857 135.721762 
L 393.47259 136.98769 
L 392.637982 138.253618 
L 391.732191 139.519546 
L 390.775967 140.785474 
L 389.790839 142.051402 
L 388.797379 143.31733 
L 387.813726 144.583258 
L 386.854477 145.849186 
L 385.929989 147.115115 
L 385.046099 148.381043 
L 384.20421 149.646971 
L 383.401695 150.912899 
L 382.632566 152.178827 
L 381.888339 153.444755 
L 381.159058 154.710683 
L 380.434415 155.976611 
L 379.704874 157.242539 
L 378.962715 158.508467 
L 378.202867 159.774395 
L 377.423422 161.040323 
L 376.625748 162.306251 
L 375.81417 163.57218 
L 374.995246 164.838108 
L 374.176765 166.104036 
L 373.366619 167.369964 
L 372.571742 168.635892 
L 371.797306 169.90182 
L 371.046296 171.167748 
L 370.319525 172.433676 
L 369.61607 173.699604 
L 368.934006 174.965532 
L 368.271292 176.23146 
L 367.626621 177.497388 
L 367.000072 178.763316 
L 366.393441 180.029244 
L 365.810211 181.295173 
L 365.255176 182.561101 
L 364.733802 183.827029 
L 364.251453 185.092957 
L 363.812619 186.358885 
L 363.420281 187.624813 
L 363.075505 188.890741 
L 362.777314 190.156669 
L 362.522837 191.422597 
L 362.307694 192.688525 
L 362.126527 193.954453 
L 361.973593 195.220381 
z
" clip-path="url(#p8533a1ae5f)" style="fill: #1f77b4; fill-opacity: 0.3"/>
   </g>
   <g id="matplotlib.axis_1">
    <g id="xtick_1">
     <g id="line2d_1">
      <defs>
       <path id="mbb136b3ff6" d="M 0 0 
L 0 3.5 
" style="stroke: #000000; stroke-width: 0.8"/>
      </defs>
      <g>
       <use xlink:href="#mbb136b3ff6" x="69.668354" y="307.584" style="stroke: #000000; stroke-width: 0.8"/>
      </g>
     </g>
     <g id="text_1">
      <!-- 250 -->
      <g transform="translate(60.124604 322.182437)scale(0.1 -0.1)">
       <defs>
        <path id="DejaVuSans-32" d="M 1228 531 
L 3431 531 
L 3431 0 
L 469 0 
L 469 531 
Q 828 903 1448 1529 
Q 2069 2156 2228 2338 
Q 2531 2678 2651 2914 
Q 2772 3150 2772 3378 
Q 2772 3750 2511 3984 
Q 2250 4219 1831 4219 
Q 1534 4219 1204 4116 
Q 875 4013 500 3803 
L 500 4441 
Q 881 4594 1212 4672 
Q 1544 4750 1819 4750 
Q 2544 4750 2975 4387 
Q 3406 4025 3406 3419 
Q 3406 3131 3298 2873 
Q 3191 2616 2906 2266 
Q 2828 2175 2409 1742 
Q 1991 1309 1228 531 
z
" transform="scale(0.015625)"/>
        <path id="DejaVuSans-35" d="M 691 4666 
L 3169 4666 
L 3169 4134 
L 1269 4134 
L 1269 2991 
Q 1406 3038 1543 3061 
Q 1681 3084 1819 3084 
Q 2600 3084 3056 2656 
Q 3513 2228 3513 1497 
Q 3513 744 3044 326 
Q 2575 -91 1722 -91 
Q 1428 -91 1123 -41 
Q 819 9 494 109 
L 494 744 
Q 775 591 1075 516 
Q 1375 441 1709 441 
Q 2250 441 2565 725 
Q 2881 1009 2881 1497 
Q 2881 1984 2565 2268 
Q 2250 2553 1709 2553 
Q 1456 2553 1204 2497 
Q 953 2441 691 2322 
L 691 4666 
z
" transform="scale(0.015625)"/>
        <path id="DejaVuSans-30" d="M 2034 4250 
Q 1547 4250 1301 3770 
Q 1056 3291 1056 2328 
Q 1056 1369 1301 889 
Q 1547 409 2034 409 
Q 2525 409 2770 889 
Q 3016 1369 3016 2328 
Q 3016 3291 2770 3770 
Q 2525 4250 2034 4250 
z
M 2034 4750 
Q 2819 4750 3233 4129 
Q 3647 3509 3647 2328 
Q 3647 1150 3233 529 
Q 2819 -91 2034 -91 
Q 1250 -91 836 529 
Q 422 1150 422 2328 
Q 422 3509 836 4129 
Q 1250 4750 2034 4750 
z
" transform="scale(0.015625)"/>
       </defs>
       <use xlink:href="#DejaVuSans-32"/>
       <use xlink:href="#DejaVuSans-35" x="63.623047"/>
       <use xlink:href="#DejaVuSans-30" x="127.246094"/>
      </g>
     </g>
    </g>
    <g id="xtick_2">
     <g id="line2d_2">
      <g>
       <use xlink:href="#mbb136b3ff6" x="111.312087" y="307.584" style="stroke: #000000; stroke-width: 0.8"/>
      </g>
     </g>
     <g id="text_2">
      <!-- 500 -->
      <g transform="translate(101.768337 322.182437)scale(0.1 -0.1)">
       <use xlink:href="#DejaVuSans-35"/>
       <use xlink:href="#DejaVuSans-30" x="63.623047"/>
       <use xlink:href="#DejaVuSans-30" x="127.246094"/>
      </g>
     </g>
    </g>
    <g id="xtick_3">
     <g id="line2d_3">
      <g>
       <use xlink:href="#mbb136b3ff6" x="152.955821" y="307.584" style="stroke: #000000; stroke-width: 0.8"/>
      </g>
     </g>
     <g id="text_3">
      <!-- 750 -->
      <g transform="translate(143.412071 322.182437)scale(0.1 -0.1)">
       <defs>
        <path id="DejaVuSans-37" d="M 525 4666 
L 3525 4666 
L 3525 4397 
L 1831 0 
L 1172 0 
L 2766 4134 
L 525 4134 
L 525 4666 
z
" transform="scale(0.015625)"/>
       </defs>
       <use xlink:href="#DejaVuSans-37"/>
       <use xlink:href="#DejaVuSans-35" x="63.623047"/>
       <use xlink:href="#DejaVuSans-30" x="127.246094"/>
      </g>
     </g>
    </g>
    <g id="xtick_4">
     <g id="line2d_4">
      <g>
       <use xlink:href="#mbb136b3ff6" x="194.599554" y="307.584" style="stroke: #000000; stroke-width: 0.8"/>
      </g>
     </g>
     <g id="text_4">
      <!-- 1000 -->
      <g transform="translate(181.874554 322.182437)scale(0.1 -0.1)">
       <defs>
        <path id="DejaVuSans-31" d="M 794 531 
L 1825 531 
L 1825 4091 
L 703 3866 
L 703 4441 
L 1819 4666 
L 2450 4666 
L 2450 531 
L 3481 531 
L 3481 0 
L 794 0 
L 794 531 
z
" transform="scale(0.015625)"/>
       </defs>
       <use xlink:href="#DejaVuSans-31"/>
       <use xlink:href="#DejaVuSans-30" x="63.623047"/>
       <use xlink:href="#DejaVuSans-30" x="127.246094"/>
       <use xlink:href="#DejaVuSans-30" x="190.869141"/>
      </g>
     </g>
    </g>
    <g id="xtick_5">
     <g id="line2d_5">
      <g>
       <use xlink:href="#mbb136b3ff6" x="236.243287" y="307.584" style="stroke: #000000; stroke-width: 0.8"/>
      </g>
     </g>
     <g id="text_5">
      <!-- 1250 -->
      <g transform="translate(223.518287 322.182437)scale(0.1 -0.1)">
       <use xlink:href="#DejaVuSans-31"/>
       <use xlink:href="#DejaVuSans-32" x="63.623047"/>
       <use xlink:href="#DejaVuSans-35" x="127.246094"/>
       <use xlink:href="#DejaVuSans-30" x="190.869141"/>
      </g>
     </g>
    </g>
    <g id="xtick_6">
     <g id="line2d_6">
      <g>
       <use xlink:href="#mbb136b3ff6" x="277.887021" y="307.584" style="stroke: #000000; stroke-width: 0.8"/>
      </g>
     </g>
     <g id="text_6">
      <!-- 1500 -->
      <g transform="translate(265.162021 322.182437)scale(0.1 -0.1)">
       <use xlink:href="#DejaVuSans-31"/>
       <use xlink:href="#DejaVuSans-35" x="63.623047"/>
       <use xlink:href="#DejaVuSans-30" x="127.246094"/>
       <use xlink:href="#DejaVuSans-30" x="190.869141"/>
      </g>
     </g>
    </g>
    <g id="xtick_7">
     <g id="line2d_7">
      <g>
       <use xlink:href="#mbb136b3ff6" x="319.530754" y="307.584" style="stroke: #000000; stroke-width: 0.8"/>
      </g>
     </g>
     <g id="text_7">
      <!-- 1750 -->
      <g transform="translate(306.805754 322.182437)scale(0.1 -0.1)">
       <use xlink:href="#DejaVuSans-31"/>
       <use xlink:href="#DejaVuSans-37" x="63.623047"/>
       <use xlink:href="#DejaVuSans-35" x="127.246094"/>
       <use xlink:href="#DejaVuSans-30" x="190.869141"/>
      </g>
     </g>
    </g>
    <g id="xtick_8">
     <g id="line2d_8">
      <g>
       <use xlink:href="#mbb136b3ff6" x="361.174488" y="307.584" style="stroke: #000000; stroke-width: 0.8"/>
      </g>
     </g>
     <g id="text_8">
      <!-- 2000 -->
      <g transform="translate(348.449488 322.182437)scale(0.1 -0.1)">
       <use xlink:href="#DejaVuSans-32"/>
       <use xlink:href="#DejaVuSans-30" x="63.623047"/>
       <use xlink:href="#DejaVuSans-30" x="127.246094"/>
       <use xlink:href="#DejaVuSans-30" x="190.869141"/>
      </g>
     </g>
    </g>
    <g id="xtick_9">
     <g id="line2d_9">
      <g>
       <use xlink:href="#mbb136b3ff6" x="402.818221" y="307.584" style="stroke: #000000; stroke-width: 0.8"/>
      </g>
     </g>
     <g id="text_9">
      <!-- 2250 -->
      <g transform="translate(390.093221 322.182437)scale(0.1 -0.1)">
       <use xlink:href="#DejaVuSans-32"/>
       <use xlink:href="#DejaVuSans-32" x="63.623047"/>
       <use xlink:href="#DejaVuSans-35" x="127.246094"/>
       <use xlink:href="#DejaVuSans-30" x="190.869141"/>
      </g>
     </g>
    </g>
    <g id="text_10">
     <!-- Learned Episodes -->
     <g transform="translate(192.102187 335.860562)scale(0.1 -0.1)">
      <defs>
       <path id="DejaVuSans-4c" d="M 628 4666 
L 1259 4666 
L 1259 531 
L 3531 531 
L 3531 0 
L 628 0 
L 628 4666 
z
" transform="scale(0.015625)"/>
       <path id="DejaVuSans-65" d="M 3597 1894 
L 3597 1613 
L 953 1613 
Q 991 1019 1311 708 
Q 1631 397 2203 397 
Q 2534 397 2845 478 
Q 3156 559 3463 722 
L 3463 178 
Q 3153 47 2828 -22 
Q 2503 -91 2169 -91 
Q 1331 -91 842 396 
Q 353 884 353 1716 
Q 353 2575 817 3079 
Q 1281 3584 2069 3584 
Q 2775 3584 3186 3129 
Q 3597 2675 3597 1894 
z
M 3022 2063 
Q 3016 2534 2758 2815 
Q 2500 3097 2075 3097 
Q 1594 3097 1305 2825 
Q 1016 2553 972 2059 
L 3022 2063 
z
" transform="scale(0.015625)"/>
       <path id="DejaVuSans-61" d="M 2194 1759 
Q 1497 1759 1228 1600 
Q 959 1441 959 1056 
Q 959 750 1161 570 
Q 1363 391 1709 391 
Q 2188 391 2477 730 
Q 2766 1069 2766 1631 
L 2766 1759 
L 2194 1759 
z
M 3341 1997 
L 3341 0 
L 2766 0 
L 2766 531 
Q 2569 213 2275 61 
Q 1981 -91 1556 -91 
Q 1019 -91 701 211 
Q 384 513 384 1019 
Q 384 1609 779 1909 
Q 1175 2209 1959 2209 
L 2766 2209 
L 2766 2266 
Q 2766 2663 2505 2880 
Q 2244 3097 1772 3097 
Q 1472 3097 1187 3025 
Q 903 2953 641 2809 
L 641 3341 
Q 956 3463 1253 3523 
Q 1550 3584 1831 3584 
Q 2591 3584 2966 3190 
Q 3341 2797 3341 1997 
z
" transform="scale(0.015625)"/>
       <path id="DejaVuSans-72" d="M 2631 2963 
Q 2534 3019 2420 3045 
Q 2306 3072 2169 3072 
Q 1681 3072 1420 2755 
Q 1159 2438 1159 1844 
L 1159 0 
L 581 0 
L 581 3500 
L 1159 3500 
L 1159 2956 
Q 1341 3275 1631 3429 
Q 1922 3584 2338 3584 
Q 2397 3584 2469 3576 
Q 2541 3569 2628 3553 
L 2631 2963 
z
" transform="scale(0.015625)"/>
       <path id="DejaVuSans-6e" d="M 3513 2113 
L 3513 0 
L 2938 0 
L 2938 2094 
Q 2938 2591 2744 2837 
Q 2550 3084 2163 3084 
Q 1697 3084 1428 2787 
Q 1159 2491 1159 1978 
L 1159 0 
L 581 0 
L 581 3500 
L 1159 3500 
L 1159 2956 
Q 1366 3272 1645 3428 
Q 1925 3584 2291 3584 
Q 2894 3584 3203 3211 
Q 3513 2838 3513 2113 
z
" transform="scale(0.015625)"/>
       <path id="DejaVuSans-64" d="M 2906 2969 
L 2906 4863 
L 3481 4863 
L 3481 0 
L 2906 0 
L 2906 525 
Q 2725 213 2448 61 
Q 2172 -91 1784 -91 
Q 1150 -91 751 415 
Q 353 922 353 1747 
Q 353 2572 751 3078 
Q 1150 3584 1784 3584 
Q 2172 3584 2448 3432 
Q 2725 3281 2906 2969 
z
M 947 1747 
Q 947 1113 1208 752 
Q 1469 391 1925 391 
Q 2381 391 2643 752 
Q 2906 1113 2906 1747 
Q 2906 2381 2643 2742 
Q 2381 3103 1925 3103 
Q 1469 3103 1208 2742 
Q 947 2381 947 1747 
z
" transform="scale(0.015625)"/>
       <path id="DejaVuSans-20" transform="scale(0.015625)"/>
       <path id="DejaVuSans-45" d="M 628 4666 
L 3578 4666 
L 3578 4134 
L 1259 4134 
L 1259 2753 
L 3481 2753 
L 3481 2222 
L 1259 2222 
L 1259 531 
L 3634 531 
L 3634 0 
L 628 0 
L 628 4666 
z
" transform="scale(0.015625)"/>
       <path id="DejaVuSans-70" d="M 1159 525 
L 1159 -1331 
L 581 -1331 
L 581 3500 
L 1159 3500 
L 1159 2969 
Q 1341 3281 1617 3432 
Q 1894 3584 2278 3584 
Q 2916 3584 3314 3078 
Q 3713 2572 3713 1747 
Q 3713 922 3314 415 
Q 2916 -91 2278 -91 
Q 1894 -91 1617 61 
Q 1341 213 1159 525 
z
M 3116 1747 
Q 3116 2381 2855 2742 
Q 2594 3103 2138 3103 
Q 1681 3103 1420 2742 
Q 1159 2381 1159 1747 
Q 1159 1113 1420 752 
Q 1681 391 2138 391 
Q 2594 391 2855 752 
Q 3116 1113 3116 1747 
z
" transform="scale(0.015625)"/>
       <path id="DejaVuSans-69" d="M 603 3500 
L 1178 3500 
L 1178 0 
L 603 0 
L 603 3500 
z
M 603 4863 
L 1178 4863 
L 1178 4134 
L 603 4134 
L 603 4863 
z
" transform="scale(0.015625)"/>
       <path id="DejaVuSans-73" d="M 2834 3397 
L 2834 2853 
Q 2591 2978 2328 3040 
Q 2066 3103 1784 3103 
Q 1356 3103 1142 2972 
Q 928 2841 928 2578 
Q 928 2378 1081 2264 
Q 1234 2150 1697 2047 
L 1894 2003 
Q 2506 1872 2764 1633 
Q 3022 1394 3022 966 
Q 3022 478 2636 193 
Q 2250 -91 1575 -91 
Q 1294 -91 989 -36 
Q 684 19 347 128 
L 347 722 
Q 666 556 975 473 
Q 1284 391 1588 391 
Q 1994 391 2212 530 
Q 2431 669 2431 922 
Q 2431 1156 2273 1281 
Q 2116 1406 1581 1522 
L 1381 1569 
Q 847 1681 609 1914 
Q 372 2147 372 2553 
Q 372 3047 722 3315 
Q 1072 3584 1716 3584 
Q 2034 3584 2315 3537 
Q 2597 3491 2834 3397 
z
" transform="scale(0.015625)"/>
       <path id="DejaVuSans-6f" d="M 1959 3097 
Q 1497 3097 1228 2736 
Q 959 2375 959 1747 
Q 959 1119 1226 758 
Q 1494 397 1959 397 
Q 2419 397 2687 759 
Q 2956 1122 2956 1747 
Q 2956 2369 2687 2733 
Q 2419 3097 1959 3097 
z
M 1959 3584 
Q 2709 3584 3137 3096 
Q 3566 2609 3566 1747 
Q 3566 888 3137 398 
Q 2709 -91 1959 -91 
Q 1206 -91 779 398 
Q 353 888 353 1747 
Q 353 2609 779 3096 
Q 1206 3584 1959 3584 
z
" transform="scale(0.015625)"/>
      </defs>
      <use xlink:href="#DejaVuSans-4c"/>
      <use xlink:href="#DejaVuSans-65" x="53.962891"/>
      <use xlink:href="#DejaVuSans-61" x="115.486328"/>
      <use xlink:href="#DejaVuSans-72" x="176.765625"/>
      <use xlink:href="#DejaVuSans-6e" x="216.128906"/>
      <use xlink:href="#DejaVuSans-65" x="279.507812"/>
      <use xlink:href="#DejaVuSans-64" x="341.03125"/>
      <use xlink:href="#DejaVuSans-20" x="404.507812"/>
      <use xlink:href="#DejaVuSans-45" x="436.294922"/>
      <use xlink:href="#DejaVuSans-70" x="499.478516"/>
      <use xlink:href="#DejaVuSans-69" x="562.955078"/>
      <use xlink:href="#DejaVuSans-73" x="590.738281"/>
      <use xlink:href="#DejaVuSans-6f" x="642.837891"/>
      <use xlink:href="#DejaVuSans-64" x="704.019531"/>
      <use xlink:href="#DejaVuSans-65" x="767.496094"/>
      <use xlink:href="#DejaVuSans-73" x="829.019531"/>
     </g>
    </g>
   </g>
   <g id="matplotlib.axis_2">
    <g id="ytick_1">
     <g id="line2d_10">
      <defs>
       <path id="m2ba64424bc" d="M 0 0 
L -3.5 0 
" style="stroke: #000000; stroke-width: 0.8"/>
      </defs>
      <g>
       <use xlink:href="#m2ba64424bc" x="57.6" y="296.826884" style="stroke: #000000; stroke-width: 0.8"/>
      </g>
     </g>
     <g id="text_11">
      <!-- 200 -->
      <g transform="translate(31.5125 300.626102)scale(0.1 -0.1)">
       <use xlink:href="#DejaVuSans-32"/>
       <use xlink:href="#DejaVuSans-30" x="63.623047"/>
       <use xlink:href="#DejaVuSans-30" x="127.246094"/>
      </g>
     </g>
    </g>
    <g id="ytick_2">
     <g id="line2d_11">
      <g>
       <use xlink:href="#m2ba64424bc" x="57.6" y="260.393713" style="stroke: #000000; stroke-width: 0.8"/>
      </g>
     </g>
     <g id="text_12">
      <!-- 300 -->
      <g transform="translate(31.5125 264.192932)scale(0.1 -0.1)">
       <defs>
        <path id="DejaVuSans-33" d="M 2597 2516 
Q 3050 2419 3304 2112 
Q 3559 1806 3559 1356 
Q 3559 666 3084 287 
Q 2609 -91 1734 -91 
Q 1441 -91 1130 -33 
Q 819 25 488 141 
L 488 750 
Q 750 597 1062 519 
Q 1375 441 1716 441 
Q 2309 441 2620 675 
Q 2931 909 2931 1356 
Q 2931 1769 2642 2001 
Q 2353 2234 1838 2234 
L 1294 2234 
L 1294 2753 
L 1863 2753 
Q 2328 2753 2575 2939 
Q 2822 3125 2822 3475 
Q 2822 3834 2567 4026 
Q 2313 4219 1838 4219 
Q 1578 4219 1281 4162 
Q 984 4106 628 3988 
L 628 4550 
Q 988 4650 1302 4700 
Q 1616 4750 1894 4750 
Q 2613 4750 3031 4423 
Q 3450 4097 3450 3541 
Q 3450 3153 3228 2886 
Q 3006 2619 2597 2516 
z
" transform="scale(0.015625)"/>
       </defs>
       <use xlink:href="#DejaVuSans-33"/>
       <use xlink:href="#DejaVuSans-30" x="63.623047"/>
       <use xlink:href="#DejaVuSans-30" x="127.246094"/>
      </g>
     </g>
    </g>
    <g id="ytick_3">
     <g id="line2d_12">
      <g>
       <use xlink:href="#m2ba64424bc" x="57.6" y="223.960543" style="stroke: #000000; stroke-width: 0.8"/>
      </g>
     </g>
     <g id="text_13">
      <!-- 400 -->
      <g transform="translate(31.5125 227.759762)scale(0.1 -0.1)">
       <defs>
        <path id="DejaVuSans-34" d="M 2419 4116 
L 825 1625 
L 2419 1625 
L 2419 4116 
z
M 2253 4666 
L 3047 4666 
L 3047 1625 
L 3713 1625 
L 3713 1100 
L 3047 1100 
L 3047 0 
L 2419 0 
L 2419 1100 
L 313 1100 
L 313 1709 
L 2253 4666 
z
" transform="scale(0.015625)"/>
       </defs>
       <use xlink:href="#DejaVuSans-34"/>
       <use xlink:href="#DejaVuSans-30" x="63.623047"/>
       <use xlink:href="#DejaVuSans-30" x="127.246094"/>
      </g>
     </g>
    </g>
    <g id="ytick_4">
     <g id="line2d_13">
      <g>
       <use xlink:href="#m2ba64424bc" x="57.6" y="187.527373" style="stroke: #000000; stroke-width: 0.8"/>
      </g>
     </g>
     <g id="text_14">
      <!-- 500 -->
      <g transform="translate(31.5125 191.326591)scale(0.1 -0.1)">
       <use xlink:href="#DejaVuSans-35"/>
       <use xlink:href="#DejaVuSans-30" x="63.623047"/>
       <use xlink:href="#DejaVuSans-30" x="127.246094"/>
      </g>
     </g>
    </g>
    <g id="ytick_5">
     <g id="line2d_14">
      <g>
       <use xlink:href="#m2ba64424bc" x="57.6" y="151.094202" style="stroke: #000000; stroke-width: 0.8"/>
      </g>
     </g>
     <g id="text_15">
      <!-- 600 -->
      <g transform="translate(31.5125 154.893421)scale(0.1 -0.1)">
       <defs>
        <path id="DejaVuSans-36" d="M 2113 2584 
Q 1688 2584 1439 2293 
Q 1191 2003 1191 1497 
Q 1191 994 1439 701 
Q 1688 409 2113 409 
Q 2538 409 2786 701 
Q 3034 994 3034 1497 
Q 3034 2003 2786 2293 
Q 2538 2584 2113 2584 
z
M 3366 4563 
L 3366 3988 
Q 3128 4100 2886 4159 
Q 2644 4219 2406 4219 
Q 1781 4219 1451 3797 
Q 1122 3375 1075 2522 
Q 1259 2794 1537 2939 
Q 1816 3084 2150 3084 
Q 2853 3084 3261 2657 
Q 3669 2231 3669 1497 
Q 3669 778 3244 343 
Q 2819 -91 2113 -91 
Q 1303 -91 875 529 
Q 447 1150 447 2328 
Q 447 3434 972 4092 
Q 1497 4750 2381 4750 
Q 2619 4750 2861 4703 
Q 3103 4656 3366 4563 
z
" transform="scale(0.015625)"/>
       </defs>
       <use xlink:href="#DejaVuSans-36"/>
       <use xlink:href="#DejaVuSans-30" x="63.623047"/>
       <use xlink:href="#DejaVuSans-30" x="127.246094"/>
      </g>
     </g>
    </g>
    <g id="ytick_6">
     <g id="line2d_15">
      <g>
       <use xlink:href="#m2ba64424bc" x="57.6" y="114.661032" style="stroke: #000000; stroke-width: 0.8"/>
      </g>
     </g>
     <g id="text_16">
      <!-- 700 -->
      <g transform="translate(31.5125 118.460251)scale(0.1 -0.1)">
       <use xlink:href="#DejaVuSans-37"/>
       <use xlink:href="#DejaVuSans-30" x="63.623047"/>
       <use xlink:href="#DejaVuSans-30" x="127.246094"/>
      </g>
     </g>
    </g>
    <g id="ytick_7">
     <g id="line2d_16">
      <g>
       <use xlink:href="#m2ba64424bc" x="57.6" y="78.227862" style="stroke: #000000; stroke-width: 0.8"/>
      </g>
     </g>
     <g id="text_17">
      <!-- 800 -->
      <g transform="translate(31.5125 82.02708)scale(0.1 -0.1)">
       <defs>
        <path id="DejaVuSans-38" d="M 2034 2216 
Q 1584 2216 1326 1975 
Q 1069 1734 1069 1313 
Q 1069 891 1326 650 
Q 1584 409 2034 409 
Q 2484 409 2743 651 
Q 3003 894 3003 1313 
Q 3003 1734 2745 1975 
Q 2488 2216 2034 2216 
z
M 1403 2484 
Q 997 2584 770 2862 
Q 544 3141 544 3541 
Q 544 4100 942 4425 
Q 1341 4750 2034 4750 
Q 2731 4750 3128 4425 
Q 3525 4100 3525 3541 
Q 3525 3141 3298 2862 
Q 3072 2584 2669 2484 
Q 3125 2378 3379 2068 
Q 3634 1759 3634 1313 
Q 3634 634 3220 271 
Q 2806 -91 2034 -91 
Q 1263 -91 848 271 
Q 434 634 434 1313 
Q 434 1759 690 2068 
Q 947 2378 1403 2484 
z
M 1172 3481 
Q 1172 3119 1398 2916 
Q 1625 2713 2034 2713 
Q 2441 2713 2670 2916 
Q 2900 3119 2900 3481 
Q 2900 3844 2670 4047 
Q 2441 4250 2034 4250 
Q 1625 4250 1398 4047 
Q 1172 3844 1172 3481 
z
" transform="scale(0.015625)"/>
       </defs>
       <use xlink:href="#DejaVuSans-38"/>
       <use xlink:href="#DejaVuSans-30" x="63.623047"/>
       <use xlink:href="#DejaVuSans-30" x="127.246094"/>
      </g>
     </g>
    </g>
    <g id="ytick_8">
     <g id="line2d_17">
      <g>
       <use xlink:href="#m2ba64424bc" x="57.6" y="41.794691" style="stroke: #000000; stroke-width: 0.8"/>
      </g>
     </g>
     <g id="text_18">
      <!-- 900 -->
      <g transform="translate(31.5125 45.59391)scale(0.1 -0.1)">
       <defs>
        <path id="DejaVuSans-39" d="M 703 97 
L 703 672 
Q 941 559 1184 500 
Q 1428 441 1663 441 
Q 2288 441 2617 861 
Q 2947 1281 2994 2138 
Q 2813 1869 2534 1725 
Q 2256 1581 1919 1581 
Q 1219 1581 811 2004 
Q 403 2428 403 3163 
Q 403 3881 828 4315 
Q 1253 4750 1959 4750 
Q 2769 4750 3195 4129 
Q 3622 3509 3622 2328 
Q 3622 1225 3098 567 
Q 2575 -91 1691 -91 
Q 1453 -91 1209 -44 
Q 966 3 703 97 
z
M 1959 2075 
Q 2384 2075 2632 2365 
Q 2881 2656 2881 3163 
Q 2881 3666 2632 3958 
Q 2384 4250 1959 4250 
Q 1534 4250 1286 3958 
Q 1038 3666 1038 3163 
Q 1038 2656 1286 2365 
Q 1534 2075 1959 2075 
z
" transform="scale(0.015625)"/>
       </defs>
       <use xlink:href="#DejaVuSans-39"/>
       <use xlink:href="#DejaVuSans-30" x="63.623047"/>
       <use xlink:href="#DejaVuSans-30" x="127.246094"/>
      </g>
     </g>
    </g>
    <g id="text_19">
     <!-- Reward Density -->
     <g transform="translate(25.432812 213.74675)rotate(-90)scale(0.1 -0.1)">
      <defs>
       <path id="DejaVuSans-52" d="M 2841 2188 
Q 3044 2119 3236 1894 
Q 3428 1669 3622 1275 
L 4263 0 
L 3584 0 
L 2988 1197 
Q 2756 1666 2539 1819 
Q 2322 1972 1947 1972 
L 1259 1972 
L 1259 0 
L 628 0 
L 628 4666 
L 2053 4666 
Q 2853 4666 3247 4331 
Q 3641 3997 3641 3322 
Q 3641 2881 3436 2590 
Q 3231 2300 2841 2188 
z
M 1259 4147 
L 1259 2491 
L 2053 2491 
Q 2509 2491 2742 2702 
Q 2975 2913 2975 3322 
Q 2975 3731 2742 3939 
Q 2509 4147 2053 4147 
L 1259 4147 
z
" transform="scale(0.015625)"/>
       <path id="DejaVuSans-77" d="M 269 3500 
L 844 3500 
L 1563 769 
L 2278 3500 
L 2956 3500 
L 3675 769 
L 4391 3500 
L 4966 3500 
L 4050 0 
L 3372 0 
L 2619 2869 
L 1863 0 
L 1184 0 
L 269 3500 
z
" transform="scale(0.015625)"/>
       <path id="DejaVuSans-44" d="M 1259 4147 
L 1259 519 
L 2022 519 
Q 2988 519 3436 956 
Q 3884 1394 3884 2338 
Q 3884 3275 3436 3711 
Q 2988 4147 2022 4147 
L 1259 4147 
z
M 628 4666 
L 1925 4666 
Q 3281 4666 3915 4102 
Q 4550 3538 4550 2338 
Q 4550 1131 3912 565 
Q 3275 0 1925 0 
L 628 0 
L 628 4666 
z
" transform="scale(0.015625)"/>
       <path id="DejaVuSans-74" d="M 1172 4494 
L 1172 3500 
L 2356 3500 
L 2356 3053 
L 1172 3053 
L 1172 1153 
Q 1172 725 1289 603 
Q 1406 481 1766 481 
L 2356 481 
L 2356 0 
L 1766 0 
Q 1100 0 847 248 
Q 594 497 594 1153 
L 594 3053 
L 172 3053 
L 172 3500 
L 594 3500 
L 594 4494 
L 1172 4494 
z
" transform="scale(0.015625)"/>
       <path id="DejaVuSans-79" d="M 2059 -325 
Q 1816 -950 1584 -1140 
Q 1353 -1331 966 -1331 
L 506 -1331 
L 506 -850 
L 844 -850 
Q 1081 -850 1212 -737 
Q 1344 -625 1503 -206 
L 1606 56 
L 191 3500 
L 800 3500 
L 1894 763 
L 2988 3500 
L 3597 3500 
L 2059 -325 
z
" transform="scale(0.015625)"/>
      </defs>
      <use xlink:href="#DejaVuSans-52"/>
      <use xlink:href="#DejaVuSans-65" x="64.982422"/>
      <use xlink:href="#DejaVuSans-77" x="126.505859"/>
      <use xlink:href="#DejaVuSans-61" x="208.292969"/>
      <use xlink:href="#DejaVuSans-72" x="269.572266"/>
      <use xlink:href="#DejaVuSans-64" x="308.935547"/>
      <use xlink:href="#DejaVuSans-20" x="372.412109"/>
      <use xlink:href="#DejaVuSans-44" x="404.199219"/>
      <use xlink:href="#DejaVuSans-65" x="481.201172"/>
      <use xlink:href="#DejaVuSans-6e" x="542.724609"/>
      <use xlink:href="#DejaVuSans-73" x="606.103516"/>
      <use xlink:href="#DejaVuSans-69" x="658.203125"/>
      <use xlink:href="#DejaVuSans-74" x="685.986328"/>
      <use xlink:href="#DejaVuSans-79" x="725.195312"/>
     </g>
    </g>
   </g>
   <g id="LineCollection_1">
    <path d="M 92.572407 247.387397 
L 130.051767 247.387397 
" clip-path="url(#p8533a1ae5f)" style="fill: none; stroke: #1f77b4; stroke-width: 1.5"/>
    <path d="M 175.859874 141.225968 
L 213.339234 141.225968 
" clip-path="url(#p8533a1ae5f)" style="fill: none; stroke: #1f77b4; stroke-width: 1.5"/>
    <path d="M 259.147341 120.270102 
L 296.626701 120.270102 
" clip-path="url(#p8533a1ae5f)" style="fill: none; stroke: #1f77b4; stroke-width: 1.5"/>
    <path d="M 342.268233 124.264432 
L 379.747593 124.264432 
" clip-path="url(#p8533a1ae5f)" style="fill: none; stroke: #1f77b4; stroke-width: 1.5"/>
   </g>
   <g id="LineCollection_2">
    <path d="M 92.572407 142.016896 
L 130.051767 142.016896 
" clip-path="url(#p8533a1ae5f)" style="fill: none; stroke: #1f77b4; stroke-width: 1.5"/>
    <path d="M 175.859874 75.933115 
L 213.339234 75.933115 
" clip-path="url(#p8533a1ae5f)" style="fill: none; stroke: #1f77b4; stroke-width: 1.5"/>
    <path d="M 259.147341 53.568 
L 296.626701 53.568 
" clip-path="url(#p8533a1ae5f)" style="fill: none; stroke: #1f77b4; stroke-width: 1.5"/>
    <path d="M 342.268233 69.893502 
L 379.747593 69.893502 
" clip-path="url(#p8533a1ae5f)" style="fill: none; stroke: #1f77b4; stroke-width: 1.5"/>
   </g>
   <g id="LineCollection_3">
    <path d="M 92.572407 295.488 
L 130.051767 295.488 
" clip-path="url(#p8533a1ae5f)" style="fill: none; stroke: #1f77b4; stroke-width: 1.5"/>
    <path d="M 175.859874 209.642397 
L 213.339234 209.642397 
" clip-path="url(#p8533a1ae5f)" style="fill: none; stroke: #1f77b4; stroke-width: 1.5"/>
    <path d="M 259.147341 210.876617 
L 296.626701 210.876617 
" clip-path="url(#p8533a1ae5f)" style="fill: none; stroke: #1f77b4; stroke-width: 1.5"/>
    <path d="M 342.268233 195.220381 
L 379.747593 195.220381 
" clip-path="url(#p8533a1ae5f)" style="fill: none; stroke: #1f77b4; stroke-width: 1.5"/>
   </g>
   <g id="LineCollection_4">
    <path d="M 111.312087 295.488 
L 111.312087 142.016896 
" clip-path="url(#p8533a1ae5f)" style="fill: none; stroke: #1f77b4; stroke-width: 1.5"/>
    <path d="M 194.599554 209.642397 
L 194.599554 75.933115 
" clip-path="url(#p8533a1ae5f)" style="fill: none; stroke: #1f77b4; stroke-width: 1.5"/>
    <path d="M 277.887021 210.876617 
L 277.887021 53.568 
" clip-path="url(#p8533a1ae5f)" style="fill: none; stroke: #1f77b4; stroke-width: 1.5"/>
    <path d="M 361.007913 195.220381 
L 361.007913 69.893502 
" clip-path="url(#p8533a1ae5f)" style="fill: none; stroke: #1f77b4; stroke-width: 1.5"/>
   </g>
   <g id="line2d_18">
    <path d="M 111.312087 247.387397 
L 194.599554 141.225968 
L 277.887021 120.270102 
L 361.007913 124.264432 
" clip-path="url(#p8533a1ae5f)" style="fill: none; stroke: #4682b4; stroke-width: 1.5; stroke-linecap: square"/>
   </g>
   <g id="patch_3">
    <path d="M 57.6 307.584 
L 57.6 41.472 
" style="fill: none; stroke: #000000; stroke-width: 0.8; stroke-linejoin: miter; stroke-linecap: square"/>
   </g>
   <g id="patch_4">
    <path d="M 414.72 307.584 
L 414.72 41.472 
" style="fill: none; stroke: #000000; stroke-width: 0.8; stroke-linejoin: miter; stroke-linecap: square"/>
   </g>
   <g id="patch_5">
    <path d="M 57.6 307.584 
L 414.72 307.584 
" style="fill: none; stroke: #000000; stroke-width: 0.8; stroke-linejoin: miter; stroke-linecap: square"/>
   </g>
   <g id="patch_6">
    <path d="M 57.6 41.472 
L 414.72 41.472 
" style="fill: none; stroke: #000000; stroke-width: 0.8; stroke-linejoin: miter; stroke-linecap: square"/>
   </g>
   <g id="text_20">
    <!-- Violinplot for progress of profits/all -->
    <g transform="translate(132.559687 35.472)scale(0.12 -0.12)">
     <defs>
      <path id="DejaVuSans-56" d="M 1831 0 
L 50 4666 
L 709 4666 
L 2188 738 
L 3669 4666 
L 4325 4666 
L 2547 0 
L 1831 0 
z
" transform="scale(0.015625)"/>
      <path id="DejaVuSans-6c" d="M 603 4863 
L 1178 4863 
L 1178 0 
L 603 0 
L 603 4863 
z
" transform="scale(0.015625)"/>
      <path id="DejaVuSans-66" d="M 2375 4863 
L 2375 4384 
L 1825 4384 
Q 1516 4384 1395 4259 
Q 1275 4134 1275 3809 
L 1275 3500 
L 2222 3500 
L 2222 3053 
L 1275 3053 
L 1275 0 
L 697 0 
L 697 3053 
L 147 3053 
L 147 3500 
L 697 3500 
L 697 3744 
Q 697 4328 969 4595 
Q 1241 4863 1831 4863 
L 2375 4863 
z
" transform="scale(0.015625)"/>
      <path id="DejaVuSans-67" d="M 2906 1791 
Q 2906 2416 2648 2759 
Q 2391 3103 1925 3103 
Q 1463 3103 1205 2759 
Q 947 2416 947 1791 
Q 947 1169 1205 825 
Q 1463 481 1925 481 
Q 2391 481 2648 825 
Q 2906 1169 2906 1791 
z
M 3481 434 
Q 3481 -459 3084 -895 
Q 2688 -1331 1869 -1331 
Q 1566 -1331 1297 -1286 
Q 1028 -1241 775 -1147 
L 775 -588 
Q 1028 -725 1275 -790 
Q 1522 -856 1778 -856 
Q 2344 -856 2625 -561 
Q 2906 -266 2906 331 
L 2906 616 
Q 2728 306 2450 153 
Q 2172 0 1784 0 
Q 1141 0 747 490 
Q 353 981 353 1791 
Q 353 2603 747 3093 
Q 1141 3584 1784 3584 
Q 2172 3584 2450 3431 
Q 2728 3278 2906 2969 
L 2906 3500 
L 3481 3500 
L 3481 434 
z
" transform="scale(0.015625)"/>
      <path id="DejaVuSans-2f" d="M 1625 4666 
L 2156 4666 
L 531 -594 
L 0 -594 
L 1625 4666 
z
" transform="scale(0.015625)"/>
     </defs>
     <use xlink:href="#DejaVuSans-56"/>
     <use xlink:href="#DejaVuSans-69" x="66.158203"/>
     <use xlink:href="#DejaVuSans-6f" x="93.941406"/>
     <use xlink:href="#DejaVuSans-6c" x="155.123047"/>
     <use xlink:href="#DejaVuSans-69" x="182.90625"/>
     <use xlink:href="#DejaVuSans-6e" x="210.689453"/>
     <use xlink:href="#DejaVuSans-70" x="274.068359"/>
     <use xlink:href="#DejaVuSans-6c" x="337.544922"/>
     <use xlink:href="#DejaVuSans-6f" x="365.328125"/>
     <use xlink:href="#DejaVuSans-74" x="426.509766"/>
     <use xlink:href="#DejaVuSans-20" x="465.71875"/>
     <use xlink:href="#DejaVuSans-66" x="497.505859"/>
     <use xlink:href="#DejaVuSans-6f" x="532.710938"/>
     <use xlink:href="#DejaVuSans-72" x="593.892578"/>
     <use xlink:href="#DejaVuSans-20" x="635.005859"/>
     <use xlink:href="#DejaVuSans-70" x="666.792969"/>
     <use xlink:href="#DejaVuSans-72" x="730.269531"/>
     <use xlink:href="#DejaVuSans-6f" x="769.132812"/>
     <use xlink:href="#DejaVuSans-67" x="830.314453"/>
     <use xlink:href="#DejaVuSans-72" x="893.791016"/>
     <use xlink:href="#DejaVuSans-65" x="932.654297"/>
     <use xlink:href="#DejaVuSans-73" x="994.177734"/>
     <use xlink:href="#DejaVuSans-73" x="1046.277344"/>
     <use xlink:href="#DejaVuSans-20" x="1098.376953"/>
     <use xlink:href="#DejaVuSans-6f" x="1130.164062"/>
     <use xlink:href="#DejaVuSans-66" x="1191.345703"/>
     <use xlink:href="#DejaVuSans-20" x="1226.550781"/>
     <use xlink:href="#DejaVuSans-70" x="1258.337891"/>
     <use xlink:href="#DejaVuSans-72" x="1321.814453"/>
     <use xlink:href="#DejaVuSans-6f" x="1360.677734"/>
     <use xlink:href="#DejaVuSans-66" x="1421.859375"/>
     <use xlink:href="#DejaVuSans-69" x="1457.064453"/>
     <use xlink:href="#DejaVuSans-74" x="1484.847656"/>
     <use xlink:href="#DejaVuSans-73" x="1524.056641"/>
     <use xlink:href="#DejaVuSans-2f" x="1576.15625"/>
     <use xlink:href="#DejaVuSans-61" x="1609.847656"/>
     <use xlink:href="#DejaVuSans-6c" x="1671.126953"/>
     <use xlink:href="#DejaVuSans-6c" x="1698.910156"/>
    </g>
   </g>
   <g id="legend_1">
    <g id="patch_7">
     <path d="M 276.25125 64.150125 
L 407.72 64.150125 
Q 409.72 64.150125 409.72 62.150125 
L 409.72 48.472 
Q 409.72 46.472 407.72 46.472 
L 276.25125 46.472 
Q 274.25125 46.472 274.25125 48.472 
L 274.25125 62.150125 
Q 274.25125 64.150125 276.25125 64.150125 
z
" style="fill: #ffffff; opacity: 0.8; stroke: #cccccc; stroke-linejoin: miter"/>
    </g>
    <g id="line2d_19">
     <path d="M 278.25125 54.570438 
L 288.25125 54.570438 
L 298.25125 54.570438 
" style="fill: none; stroke: #4682b4; stroke-width: 1.5; stroke-linecap: square"/>
    </g>
    <g id="text_21">
     <!-- StableBaselinesSAC -->
     <g transform="translate(306.25125 58.070438)scale(0.1 -0.1)">
      <defs>
       <path id="DejaVuSans-53" d="M 3425 4513 
L 3425 3897 
Q 3066 4069 2747 4153 
Q 2428 4238 2131 4238 
Q 1616 4238 1336 4038 
Q 1056 3838 1056 3469 
Q 1056 3159 1242 3001 
Q 1428 2844 1947 2747 
L 2328 2669 
Q 3034 2534 3370 2195 
Q 3706 1856 3706 1288 
Q 3706 609 3251 259 
Q 2797 -91 1919 -91 
Q 1588 -91 1214 -16 
Q 841 59 441 206 
L 441 856 
Q 825 641 1194 531 
Q 1563 422 1919 422 
Q 2459 422 2753 634 
Q 3047 847 3047 1241 
Q 3047 1584 2836 1778 
Q 2625 1972 2144 2069 
L 1759 2144 
Q 1053 2284 737 2584 
Q 422 2884 422 3419 
Q 422 4038 858 4394 
Q 1294 4750 2059 4750 
Q 2388 4750 2728 4690 
Q 3069 4631 3425 4513 
z
" transform="scale(0.015625)"/>
       <path id="DejaVuSans-62" d="M 3116 1747 
Q 3116 2381 2855 2742 
Q 2594 3103 2138 3103 
Q 1681 3103 1420 2742 
Q 1159 2381 1159 1747 
Q 1159 1113 1420 752 
Q 1681 391 2138 391 
Q 2594 391 2855 752 
Q 3116 1113 3116 1747 
z
M 1159 2969 
Q 1341 3281 1617 3432 
Q 1894 3584 2278 3584 
Q 2916 3584 3314 3078 
Q 3713 2572 3713 1747 
Q 3713 922 3314 415 
Q 2916 -91 2278 -91 
Q 1894 -91 1617 61 
Q 1341 213 1159 525 
L 1159 0 
L 581 0 
L 581 4863 
L 1159 4863 
L 1159 2969 
z
" transform="scale(0.015625)"/>
       <path id="DejaVuSans-42" d="M 1259 2228 
L 1259 519 
L 2272 519 
Q 2781 519 3026 730 
Q 3272 941 3272 1375 
Q 3272 1813 3026 2020 
Q 2781 2228 2272 2228 
L 1259 2228 
z
M 1259 4147 
L 1259 2741 
L 2194 2741 
Q 2656 2741 2882 2914 
Q 3109 3088 3109 3444 
Q 3109 3797 2882 3972 
Q 2656 4147 2194 4147 
L 1259 4147 
z
M 628 4666 
L 2241 4666 
Q 2963 4666 3353 4366 
Q 3744 4066 3744 3513 
Q 3744 3084 3544 2831 
Q 3344 2578 2956 2516 
Q 3422 2416 3680 2098 
Q 3938 1781 3938 1306 
Q 3938 681 3513 340 
Q 3088 0 2303 0 
L 628 0 
L 628 4666 
z
" transform="scale(0.015625)"/>
       <path id="DejaVuSans-41" d="M 2188 4044 
L 1331 1722 
L 3047 1722 
L 2188 4044 
z
M 1831 4666 
L 2547 4666 
L 4325 0 
L 3669 0 
L 3244 1197 
L 1141 1197 
L 716 0 
L 50 0 
L 1831 4666 
z
" transform="scale(0.015625)"/>
       <path id="DejaVuSans-43" d="M 4122 4306 
L 4122 3641 
Q 3803 3938 3442 4084 
Q 3081 4231 2675 4231 
Q 1875 4231 1450 3742 
Q 1025 3253 1025 2328 
Q 1025 1406 1450 917 
Q 1875 428 2675 428 
Q 3081 428 3442 575 
Q 3803 722 4122 1019 
L 4122 359 
Q 3791 134 3420 21 
Q 3050 -91 2638 -91 
Q 1578 -91 968 557 
Q 359 1206 359 2328 
Q 359 3453 968 4101 
Q 1578 4750 2638 4750 
Q 3056 4750 3426 4639 
Q 3797 4528 4122 4306 
z
" transform="scale(0.015625)"/>
      </defs>
      <use xlink:href="#DejaVuSans-53"/>
      <use xlink:href="#DejaVuSans-74" x="63.476562"/>
      <use xlink:href="#DejaVuSans-61" x="102.685547"/>
      <use xlink:href="#DejaVuSans-62" x="163.964844"/>
      <use xlink:href="#DejaVuSans-6c" x="227.441406"/>
      <use xlink:href="#DejaVuSans-65" x="255.224609"/>
      <use xlink:href="#DejaVuSans-42" x="316.748047"/>
      <use xlink:href="#DejaVuSans-61" x="385.351562"/>
      <use xlink:href="#DejaVuSans-73" x="446.630859"/>
      <use xlink:href="#DejaVuSans-65" x="498.730469"/>
      <use xlink:href="#DejaVuSans-6c" x="560.253906"/>
      <use xlink:href="#DejaVuSans-69" x="588.037109"/>
      <use xlink:href="#DejaVuSans-6e" x="615.820312"/>
      <use xlink:href="#DejaVuSans-65" x="679.199219"/>
      <use xlink:href="#DejaVuSans-73" x="740.722656"/>
      <use xlink:href="#DejaVuSans-53" x="792.822266"/>
      <use xlink:href="#DejaVuSans-41" x="858.173828"/>
      <use xlink:href="#DejaVuSans-43" x="924.832031"/>
     </g>
    </g>
   </g>
  </g>
 </g>
 <defs>
  <clipPath id="p8533a1ae5f">
   <rect x="57.6" y="41.472" width="357.12" height="266.112"/>
  </clipPath>
 </defs>
</svg>
