<?xml version="1.0" encoding="utf-8" standalone="no"?>
<!DOCTYPE svg PUBLIC "-//W3C//DTD SVG 1.1//EN"
  "http://www.w3.org/Graphics/SVG/1.1/DTD/svg11.dtd">
<svg xmlns:xlink="http://www.w3.org/1999/xlink" width="460.8pt" height="345.6pt" viewBox="0 0 460.8 345.6" xmlns="http://www.w3.org/2000/svg" version="1.1">
 <metadata>
  <rdf:RDF xmlns:dc="http://purl.org/dc/elements/1.1/" xmlns:cc="http://creativecommons.org/ns#" xmlns:rdf="http://www.w3.org/1999/02/22-rdf-syntax-ns#">
   <cc:Work>
    <dc:type rdf:resource="http://purl.org/dc/dcmitype/StillImage"/>
    <dc:date>2022-06-20T20:26:27.794102</dc:date>
    <dc:format>image/svg+xml</dc:format>
    <dc:creator>
     <cc:Agent>
      <dc:title>Matplotlib v3.5.2, https://matplotlib.org/</dc:title>
     </cc:Agent>
    </dc:creator>
   </cc:Work>
  </rdf:RDF>
 </metadata>
 <defs>
  <style type="text/css">*{stroke-linejoin: round; stroke-linecap: butt}</style>
 </defs>
 <g id="figure_1">
  <g id="patch_1">
   <path d="M 0 345.6 
L 460.8 345.6 
L 460.8 0 
L 0 0 
z
" style="fill: #ffffff"/>
  </g>
  <g id="axes_1">
   <g id="patch_2">
    <path d="M 57.6 307.584 
L 414.72 307.584 
L 414.72 41.472 
L 57.6 41.472 
z
" style="fill: #ffffff"/>
   </g>
   <g id="PolyCollection_1">
    <path d="M 108.675146 229.301155 
L 107.338634 229.301155 
L 107.256636 227.776031 
L 107.179689 226.250906 
L 107.107598 224.725781 
L 107.039015 223.200656 
L 106.971683 221.675531 
L 106.90269 220.150406 
L 106.828684 218.625282 
L 106.746001 217.100157 
L 106.650794 215.575032 
L 106.5392 214.049907 
L 106.407552 212.524782 
L 106.252587 210.999658 
L 106.071506 209.474533 
L 105.861775 207.949408 
L 105.620631 206.424283 
L 105.344394 204.899158 
L 105.027841 203.374033 
L 104.663988 201.848909 
L 104.244588 200.323784 
L 103.761477 198.798659 
L 103.208626 197.273534 
L 102.584395 195.748409 
L 101.893293 194.223284 
L 101.146448 192.69816 
L 100.360248 191.173035 
L 99.553061 189.64791 
L 98.740573 188.122785 
L 97.930839 186.59766 
L 97.12048 185.072535 
L 96.293325 183.547411 
L 95.42227 182.022286 
L 94.474253 180.497161 
L 93.417382 178.972036 
L 92.228572 177.446911 
L 90.899906 175.921787 
L 89.442219 174.396662 
L 87.885134 172.871537 
L 86.273579 171.346412 
L 84.661614 169.821287 
L 83.104837 168.296162 
L 81.652852 166.771038 
L 80.343152 165.245913 
L 79.197402 163.720788 
L 78.220614 162.195663 
L 77.403094 160.670538 
L 76.724524 159.145413 
L 76.159134 157.620289 
L 75.680875 156.095164 
L 75.267647 154.570039 
L 74.904106 153.044914 
L 74.58294 151.519789 
L 74.304887 149.994664 
L 74.077786 148.46954 
L 73.914922 146.944415 
L 73.832727 145.41929 
L 73.847925 143.894165 
L 73.974279 142.36904 
L 74.219414 140.843916 
L 74.582381 139.318791 
L 75.052729 137.793666 
L 75.611572 136.268541 
L 76.234657 134.743416 
L 76.896794 133.218291 
L 77.576568 131.693167 
L 78.26012 130.168042 
L 78.94315 128.642917 
L 79.63088 127.117792 
L 80.336355 125.592667 
L 81.077816 124.067542 
L 81.875793 122.542418 
L 82.75028 121.017293 
L 83.71801 119.492168 
L 84.789756 117.967043 
L 85.967876 116.441918 
L 87.244628 114.916793 
L 88.601996 113.391669 
L 90.013537 111.866544 
L 91.448128 110.341419 
L 92.874775 108.816294 
L 94.26714 107.291169 
L 95.606486 105.766045 
L 96.882273 104.24092 
L 98.090489 102.715795 
L 99.230547 101.19067 
L 100.30198 99.665545 
L 101.302085 98.14042 
L 102.225174 96.615296 
L 103.063486 95.090171 
L 103.809231 93.565046 
L 104.456983 92.039921 
L 105.005622 90.514796 
L 105.459295 88.989671 
L 105.827231 87.464547 
L 106.122572 85.939422 
L 106.360597 84.414297 
L 106.556778 82.889172 
L 106.725041 81.364047 
L 106.876489 79.838922 
L 107.018718 78.313798 
L 108.995062 78.313798 
L 108.995062 78.313798 
L 109.137291 79.838922 
L 109.288739 81.364047 
L 109.457002 82.889172 
L 109.653182 84.414297 
L 109.891208 85.939422 
L 110.186549 87.464547 
L 110.554485 88.989671 
L 111.008158 90.514796 
L 111.556797 92.039921 
L 112.204549 93.565046 
L 112.950294 95.090171 
L 113.788605 96.615296 
L 114.711695 98.14042 
L 115.7118 99.665545 
L 116.783233 101.19067 
L 117.923291 102.715795 
L 119.131507 104.24092 
L 120.407294 105.766045 
L 121.74664 107.291169 
L 123.139005 108.816294 
L 124.565652 110.341419 
L 126.000243 111.866544 
L 127.411784 113.391669 
L 128.769152 114.916793 
L 130.045904 116.441918 
L 131.224024 117.967043 
L 132.29577 119.492168 
L 133.263499 121.017293 
L 134.137987 122.542418 
L 134.935964 124.067542 
L 135.677425 125.592667 
L 136.3829 127.117792 
L 137.07063 128.642917 
L 137.75366 130.168042 
L 138.437212 131.693167 
L 139.116986 133.218291 
L 139.779123 134.743416 
L 140.402208 136.268541 
L 140.961051 137.793666 
L 141.431399 139.318791 
L 141.794366 140.843916 
L 142.039501 142.36904 
L 142.165855 143.894165 
L 142.181053 145.41929 
L 142.098858 146.944415 
L 141.935994 148.46954 
L 141.708893 149.994664 
L 141.43084 151.519789 
L 141.109674 153.044914 
L 140.746132 154.570039 
L 140.332905 156.095164 
L 139.854646 157.620289 
L 139.289256 159.145413 
L 138.610686 160.670538 
L 137.793166 162.195663 
L 136.816378 163.720788 
L 135.670628 165.245913 
L 134.360927 166.771038 
L 132.908943 168.296162 
L 131.352166 169.821287 
L 129.740201 171.346412 
L 128.128646 172.871537 
L 126.571561 174.396662 
L 125.113874 175.921787 
L 123.785208 177.446911 
L 122.596398 178.972036 
L 121.539526 180.497161 
L 120.59151 182.022286 
L 119.720455 183.547411 
L 118.8933 185.072535 
L 118.082941 186.59766 
L 117.273207 188.122785 
L 116.460718 189.64791 
L 115.653532 191.173035 
L 114.867332 192.69816 
L 114.120487 194.223284 
L 113.429385 195.748409 
L 112.805154 197.273534 
L 112.252303 198.798659 
L 111.769192 200.323784 
L 111.349791 201.848909 
L 110.985939 203.374033 
L 110.669386 204.899158 
L 110.393149 206.424283 
L 110.152005 207.949408 
L 109.942274 209.474533 
L 109.761192 210.999658 
L 109.606228 212.524782 
L 109.47458 214.049907 
L 109.362986 215.575032 
L 109.267779 217.100157 
L 109.185096 218.625282 
L 109.111089 220.150406 
L 109.042097 221.675531 
L 108.974765 223.200656 
L 108.906182 224.725781 
L 108.834091 226.250906 
L 108.757143 227.776031 
L 108.675146 229.301155 
z
" clip-path="url(#pcc773eb1d5)" style="fill: #1f77b4; fill-opacity: 0.3"/>
   </g>
   <g id="PolyCollection_2">
    <path d="M 194.416322 255.168947 
L 192.468271 255.168947 
L 192.249192 253.219398 
L 192.008143 251.269849 
L 191.75195 249.3203 
L 191.489769 247.370751 
L 191.23185 245.421202 
L 190.987586 243.471653 
L 190.76318 241.522104 
L 190.559421 239.572556 
L 190.370184 237.623007 
L 190.18215 235.673458 
L 189.976026 233.723909 
L 189.729193 231.77436 
L 189.419357 229.824811 
L 189.028478 227.875262 
L 188.546123 225.925713 
L 187.971429 223.976165 
L 187.313077 222.026616 
L 186.587129 220.077067 
L 185.813029 218.127518 
L 185.008592 216.177969 
L 184.185153 214.22842 
L 183.344115 212.278871 
L 182.475938 210.329323 
L 181.562043 208.379774 
L 180.579358 206.430225 
L 179.506551 204.480676 
L 178.330438 202.531127 
L 177.050973 200.581578 
L 175.683504 198.632029 
L 174.257687 196.68248 
L 172.813273 194.732932 
L 171.393776 192.783383 
L 170.039565 190.833834 
L 168.781993 188.884285 
L 167.639871 186.934736 
L 166.618876 184.985187 
L 165.713707 183.035638 
L 164.912051 181.08609 
L 164.199076 179.136541 
L 163.561194 177.186992 
L 162.988257 175.237443 
L 162.473992 173.287894 
L 162.015048 171.338345 
L 161.609387 169.388796 
L 161.254733 167.439247 
L 160.947585 165.489699 
L 160.682903 163.54015 
L 160.454362 161.590601 
L 160.254911 159.641052 
L 160.077465 157.691503 
L 159.915694 155.741954 
L 159.764941 153.792405 
L 159.623328 151.842856 
L 159.49294 149.893308 
L 159.38089 147.943759 
L 159.299902 145.99421 
L 159.268134 144.044661 
L 159.308047 142.095112 
L 159.444361 140.145563 
L 159.701349 138.196014 
L 160.099869 136.246466 
L 160.654602 134.296917 
L 161.371952 132.347368 
L 162.24895 130.397819 
L 163.273371 128.44827 
L 164.425061 126.498721 
L 165.67826 124.549172 
L 167.004529 122.599623 
L 168.37571 120.650075 
L 169.7664 118.700526 
L 171.155508 116.750977 
L 172.526739 114.801428 
L 173.868149 112.851879 
L 175.171149 110.90233 
L 176.429424 108.952781 
L 177.638169 107.003233 
L 178.793845 105.053684 
L 179.894394 103.104135 
L 180.939706 101.154586 
L 181.932014 99.205037 
L 182.875953 97.255488 
L 183.778126 95.305939 
L 184.64617 93.35639 
L 185.487435 91.406842 
L 186.307503 89.457293 
L 187.108839 87.507744 
L 187.889866 85.558195 
L 188.644718 83.608646 
L 189.363827 81.659097 
L 190.035288 79.709548 
L 190.646792 77.76 
L 191.187749 75.810451 
L 191.651153 73.860902 
L 192.034805 71.911353 
L 192.341651 69.961804 
L 192.579209 68.012255 
L 192.758278 66.062706 
L 192.89124 64.113157 
L 192.990355 62.163609 
L 193.894238 62.163609 
L 193.894238 62.163609 
L 193.993353 64.113157 
L 194.126315 66.062706 
L 194.305384 68.012255 
L 194.542943 69.961804 
L 194.849788 71.911353 
L 195.23344 73.860902 
L 195.696844 75.810451 
L 196.237801 77.76 
L 196.849306 79.709548 
L 197.520767 81.659097 
L 198.239876 83.608646 
L 198.994728 85.558195 
L 199.775754 87.507744 
L 200.57709 89.457293 
L 201.397159 91.406842 
L 202.238423 93.35639 
L 203.106467 95.305939 
L 204.00864 97.255488 
L 204.952579 99.205037 
L 205.944887 101.154586 
L 206.9902 103.104135 
L 208.090749 105.053684 
L 209.246424 107.003233 
L 210.455169 108.952781 
L 211.713444 110.90233 
L 213.016444 112.851879 
L 214.357854 114.801428 
L 215.729085 116.750977 
L 217.118193 118.700526 
L 218.508883 120.650075 
L 219.880064 122.599623 
L 221.206333 124.549172 
L 222.459533 126.498721 
L 223.611222 128.44827 
L 224.635643 130.397819 
L 225.512641 132.347368 
L 226.229991 134.296917 
L 226.784725 136.246466 
L 227.183245 138.196014 
L 227.440233 140.145563 
L 227.576547 142.095112 
L 227.616459 144.044661 
L 227.584692 145.99421 
L 227.503704 147.943759 
L 227.391653 149.893308 
L 227.261266 151.842856 
L 227.119652 153.792405 
L 226.968899 155.741954 
L 226.807128 157.691503 
L 226.629682 159.641052 
L 226.430231 161.590601 
L 226.201691 163.54015 
L 225.937008 165.489699 
L 225.62986 167.439247 
L 225.275207 169.388796 
L 224.869545 171.338345 
L 224.410601 173.287894 
L 223.896336 175.237443 
L 223.323399 177.186992 
L 222.685518 179.136541 
L 221.972543 181.08609 
L 221.170886 183.035638 
L 220.265717 184.985187 
L 219.244723 186.934736 
L 218.1026 188.884285 
L 216.845029 190.833834 
L 215.490817 192.783383 
L 214.071321 194.732932 
L 212.626906 196.68248 
L 211.20109 198.632029 
L 209.83362 200.581578 
L 208.554155 202.531127 
L 207.378042 204.480676 
L 206.305235 206.430225 
L 205.32255 208.379774 
L 204.408655 210.329323 
L 203.540479 212.278871 
L 202.69944 214.22842 
L 201.876001 216.177969 
L 201.071565 218.127518 
L 200.297464 220.077067 
L 199.571517 222.026616 
L 198.913165 223.976165 
L 198.33847 225.925713 
L 197.856116 227.875262 
L 197.465236 229.824811 
L 197.1554 231.77436 
L 196.908568 233.723909 
L 196.702444 235.673458 
L 196.51441 237.623007 
L 196.325172 239.572556 
L 196.121413 241.522104 
L 195.897007 243.471653 
L 195.652744 245.421202 
L 195.394824 247.370751 
L 195.132643 249.3203 
L 194.87645 251.269849 
L 194.635402 253.219398 
L 194.416322 255.168947 
z
" clip-path="url(#pcc773eb1d5)" style="fill: #1f77b4; fill-opacity: 0.3"/>
   </g>
   <g id="PolyCollection_3">
    <path d="M 279.596957 295.488 
L 278.15845 295.488 
L 278.02059 293.044364 
L 277.874278 290.600727 
L 277.722654 288.157091 
L 277.569181 285.713455 
L 277.417072 283.269818 
L 277.268471 280.826182 
L 277.123474 278.382545 
L 276.979201 275.938909 
L 276.829187 273.495273 
L 276.663359 271.051636 
L 276.468786 268.608 
L 276.231181 266.164364 
L 275.93696 263.720727 
L 275.575444 261.277091 
L 275.140714 258.833455 
L 274.632696 256.389818 
L 274.057191 253.946182 
L 273.424891 251.502545 
L 272.749655 249.058909 
L 272.046495 246.615273 
L 271.329801 244.171636 
L 270.6122 241.728 
L 269.904258 239.284364 
L 269.214924 236.840727 
L 268.55244 234.397091 
L 267.925222 231.953455 
L 267.342228 229.509818 
L 266.812468 227.066182 
L 266.343551 224.622545 
L 265.939507 222.178909 
L 265.598439 219.735273 
L 265.310708 217.291636 
L 265.058365 214.848 
L 264.816242 212.404364 
L 264.554712 209.960727 
L 264.243629 207.517091 
L 263.856581 205.073455 
L 263.374432 202.629818 
L 262.78729 200.186182 
L 262.094473 197.742545 
L 261.302626 195.298909 
L 260.422711 192.855273 
L 259.466909 190.411636 
L 258.446452 187.968 
L 257.371015 185.524364 
L 256.249674 183.080727 
L 255.092826 180.637091 
L 253.914098 178.193455 
L 252.73131 175.749818 
L 251.565954 173.306182 
L 250.441304 170.862545 
L 249.379826 168.418909 
L 248.400826 165.975273 
L 247.51915 163.531636 
L 246.745252 161.088 
L 246.086368 158.644364 
L 245.548098 156.200727 
L 245.135643 153.757091 
L 244.85423 151.313455 
L 244.70881 148.869818 
L 244.703541 146.426182 
L 244.841717 143.982545 
L 245.126545 141.538909 
L 245.562587 139.095273 
L 246.15716 136.651636 
L 246.920725 134.208 
L 247.865512 131.764364 
L 249.002267 129.320727 
L 250.335802 126.877091 
L 251.86058 124.433455 
L 253.557752 121.989818 
L 255.394643 119.546182 
L 257.326961 117.102545 
L 259.303214 114.658909 
L 261.270234 112.215273 
L 263.178577 109.771636 
L 264.986784 107.328 
L 266.663969 104.884364 
L 268.190688 102.440727 
L 269.558408 99.997091 
L 270.767997 97.553455 
L 271.827667 95.109818 
L 272.750679 92.666182 
L 273.553053 90.222545 
L 274.251477 87.778909 
L 274.861624 85.335273 
L 275.397002 82.891636 
L 275.868442 80.448 
L 276.284151 78.004364 
L 276.650198 75.560727 
L 276.971194 73.117091 
L 277.250981 70.673455 
L 277.493164 68.229818 
L 277.701427 65.786182 
L 277.87965 63.342545 
L 278.031857 60.898909 
L 278.162066 58.455273 
L 278.274071 56.011636 
L 278.37123 53.568 
L 279.384176 53.568 
L 279.384176 53.568 
L 279.481335 56.011636 
L 279.593341 58.455273 
L 279.723549 60.898909 
L 279.875756 63.342545 
L 280.053979 65.786182 
L 280.262243 68.229818 
L 280.504425 70.673455 
L 280.784213 73.117091 
L 281.105209 75.560727 
L 281.471255 78.004364 
L 281.886965 80.448 
L 282.358405 82.891636 
L 282.893783 85.335273 
L 283.503929 87.778909 
L 284.202354 90.222545 
L 285.004727 92.666182 
L 285.92774 95.109818 
L 286.98741 97.553455 
L 288.196999 99.997091 
L 289.564719 102.440727 
L 291.091438 104.884364 
L 292.768622 107.328 
L 294.57683 109.771636 
L 296.485173 112.215273 
L 298.452193 114.658909 
L 300.428445 117.102545 
L 302.360764 119.546182 
L 304.197655 121.989818 
L 305.894827 124.433455 
L 307.419605 126.877091 
L 308.753139 129.320727 
L 309.889895 131.764364 
L 310.834681 134.208 
L 311.598247 136.651636 
L 312.19282 139.095273 
L 312.628862 141.538909 
L 312.91369 143.982545 
L 313.051866 146.426182 
L 313.046596 148.869818 
L 312.901177 151.313455 
L 312.619764 153.757091 
L 312.207309 156.200727 
L 311.669039 158.644364 
L 311.010154 161.088 
L 310.236257 163.531636 
L 309.354581 165.975273 
L 308.375581 168.418909 
L 307.314103 170.862545 
L 306.189453 173.306182 
L 305.024097 175.749818 
L 303.841308 178.193455 
L 302.662581 180.637091 
L 301.505732 183.080727 
L 300.384391 185.524364 
L 299.308954 187.968 
L 298.288497 190.411636 
L 297.332695 192.855273 
L 296.452781 195.298909 
L 295.660934 197.742545 
L 294.968117 200.186182 
L 294.380975 202.629818 
L 293.898825 205.073455 
L 293.511778 207.517091 
L 293.200695 209.960727 
L 292.939164 212.404364 
L 292.697041 214.848 
L 292.444698 217.291636 
L 292.156968 219.735273 
L 291.815899 222.178909 
L 291.411856 224.622545 
L 290.942938 227.066182 
L 290.413178 229.509818 
L 289.830184 231.953455 
L 289.202966 234.397091 
L 288.540483 236.840727 
L 287.851149 239.284364 
L 287.143206 241.728 
L 286.425606 244.171636 
L 285.708911 246.615273 
L 285.005751 249.058909 
L 284.330516 251.502545 
L 283.698216 253.946182 
L 283.12271 256.389818 
L 282.614692 258.833455 
L 282.179963 261.277091 
L 281.818446 263.720727 
L 281.524226 266.164364 
L 281.286621 268.608 
L 281.092047 271.051636 
L 280.92622 273.495273 
L 280.776205 275.938909 
L 280.631933 278.382545 
L 280.486936 280.826182 
L 280.338335 283.269818 
L 280.186226 285.713455 
L 280.032753 288.157091 
L 279.881129 290.600727 
L 279.734816 293.044364 
L 279.596957 295.488 
z
" clip-path="url(#pcc773eb1d5)" style="fill: #1f77b4; fill-opacity: 0.3"/>
   </g>
   <g id="PolyCollection_4">
    <path d="M 365.479661 294.175551 
L 363.14656 294.175551 
L 362.966699 291.840936 
L 362.771807 289.506321 
L 362.559503 287.171706 
L 362.326833 284.83709 
L 362.070526 282.502475 
L 361.78728 280.16786 
L 361.473992 277.833245 
L 361.127947 275.49863 
L 360.746955 273.164015 
L 360.329451 270.829399 
L 359.874583 268.494784 
L 359.382255 266.160169 
L 358.853069 263.825554 
L 358.288105 261.490939 
L 357.688466 259.156324 
L 357.05461 256.821708 
L 356.385542 254.487093 
L 355.678049 252.152478 
L 354.926208 249.817863 
L 354.121402 247.483248 
L 353.252992 245.148632 
L 352.309667 242.814017 
L 351.281327 240.479402 
L 350.161212 238.144787 
L 348.947896 235.810172 
L 347.646776 233.475557 
L 346.270751 231.140941 
L 344.839951 228.806326 
L 343.380539 226.471711 
L 341.922774 224.137096 
L 340.498638 221.802481 
L 339.139387 219.467866 
L 337.873344 217.13325 
L 336.724225 214.798635 
L 335.710134 212.46402 
L 334.843254 210.129405 
L 334.130121 207.79479 
L 333.57229 205.460175 
L 333.167125 203.125559 
L 332.908489 200.790944 
L 332.787145 198.456329 
L 332.790829 196.121714 
L 332.904055 193.787099 
L 333.107815 191.452483 
L 333.37941 189.117868 
L 333.692599 186.783253 
L 334.018251 184.448638 
L 334.325539 182.114023 
L 334.583679 179.779408 
L 334.764054 177.444792 
L 334.842552 175.110177 
L 334.801829 172.775562 
L 334.63322 170.440947 
L 334.337987 168.106332 
L 333.927714 165.771717 
L 333.4237 163.437101 
L 332.855435 161.102486 
L 332.258335 158.767871 
L 331.671051 156.433256 
L 331.132718 154.098641 
L 330.680423 151.764025 
L 330.347096 149.42941 
L 330.15988 147.094795 
L 330.138947 144.76018 
L 330.296688 142.425565 
L 330.637234 140.09095 
L 331.156358 137.756334 
L 331.841864 135.421719 
L 332.674592 133.087104 
L 333.630126 130.752489 
L 334.681152 128.417874 
L 335.80025 126.083259 
L 336.962751 123.748643 
L 338.149164 121.414028 
L 339.34675 119.079413 
L 340.549879 116.744798 
L 341.759107 114.410183 
L 342.979129 112.075567 
L 344.216071 109.740952 
L 345.474678 107.406337 
L 346.756016 105.071722 
L 348.05614 102.737107 
L 349.365943 100.402492 
L 350.672101 98.067876 
L 351.958817 95.733261 
L 353.209859 93.398646 
L 354.410432 91.064031 
L 355.548508 88.729416 
L 356.61542 86.394801 
L 357.605783 84.060185 
L 358.51691 81.72557 
L 359.348037 79.390955 
L 360.099603 77.05634 
L 360.772787 74.721725 
L 361.369339 72.387109 
L 361.891667 70.052494 
L 362.34302 67.717879 
L 362.727648 65.383264 
L 363.050812 63.048649 
L 365.575408 63.048649 
L 365.575408 63.048649 
L 365.898572 65.383264 
L 366.2832 67.717879 
L 366.734553 70.052494 
L 367.256881 72.387109 
L 367.853433 74.721725 
L 368.526617 77.05634 
L 369.278183 79.390955 
L 370.10931 81.72557 
L 371.020437 84.060185 
L 372.0108 86.394801 
L 373.077712 88.729416 
L 374.215788 91.064031 
L 375.416362 93.398646 
L 376.667403 95.733261 
L 377.954119 98.067876 
L 379.260278 100.402492 
L 380.57008 102.737107 
L 381.870204 105.071722 
L 383.151542 107.406337 
L 384.410149 109.740952 
L 385.647091 112.075567 
L 386.867113 114.410183 
L 388.076341 116.744798 
L 389.279471 119.079413 
L 390.477056 121.414028 
L 391.663469 123.748643 
L 392.82597 126.083259 
L 393.945069 128.417874 
L 394.996094 130.752489 
L 395.951628 133.087104 
L 396.784356 135.421719 
L 397.469862 137.756334 
L 397.988986 140.09095 
L 398.329532 142.425565 
L 398.487273 144.76018 
L 398.46634 147.094795 
L 398.279124 149.42941 
L 397.945797 151.764025 
L 397.493502 154.098641 
L 396.955169 156.433256 
L 396.367885 158.767871 
L 395.770785 161.102486 
L 395.20252 163.437101 
L 394.698506 165.771717 
L 394.288233 168.106332 
L 393.993001 170.440947 
L 393.824391 172.775562 
L 393.783669 175.110177 
L 393.862166 177.444792 
L 394.042541 179.779408 
L 394.300681 182.114023 
L 394.607969 184.448638 
L 394.933621 186.783253 
L 395.24681 189.117868 
L 395.518405 191.452483 
L 395.722166 193.787099 
L 395.835391 196.121714 
L 395.839075 198.456329 
L 395.717731 200.790944 
L 395.459095 203.125559 
L 395.053931 205.460175 
L 394.496099 207.79479 
L 393.782966 210.129405 
L 392.916086 212.46402 
L 391.901996 214.798635 
L 390.752876 217.13325 
L 389.486833 219.467866 
L 388.127582 221.802481 
L 386.703447 224.137096 
L 385.245681 226.471711 
L 383.786269 228.806326 
L 382.355469 231.140941 
L 380.979444 233.475557 
L 379.678324 235.810172 
L 378.465008 238.144787 
L 377.344893 240.479402 
L 376.316553 242.814017 
L 375.373228 245.148632 
L 374.504818 247.483248 
L 373.700012 249.817863 
L 372.948171 252.152478 
L 372.240678 254.487093 
L 371.57161 256.821708 
L 370.937754 259.156324 
L 370.338115 261.490939 
L 369.773151 263.825554 
L 369.243965 266.160169 
L 368.751637 268.494784 
L 368.296769 270.829399 
L 367.879265 273.164015 
L 367.498273 275.49863 
L 367.152228 277.833245 
L 366.83894 280.16786 
L 366.555694 282.502475 
L 366.299387 284.83709 
L 366.066717 287.171706 
L 365.854413 289.506321 
L 365.659521 291.840936 
L 365.479661 294.175551 
z
" clip-path="url(#pcc773eb1d5)" style="fill: #1f77b4; fill-opacity: 0.3"/>
   </g>
   <g id="matplotlib.axis_1">
    <g id="xtick_1">
     <g id="line2d_1">
      <path d="M 79.528421 307.584 
L 79.528421 41.472 
" clip-path="url(#pcc773eb1d5)" style="fill: none; stroke-dasharray: 2.96,1.28; stroke-dashoffset: 0; stroke: #b0b0b0; stroke-width: 0.8"/>
     </g>
     <g id="line2d_2">
      <defs>
       <path id="me5a6b9c62d" d="M 0 0 
L 0 3.5 
" style="stroke: #000000; stroke-width: 0.8"/>
      </defs>
      <g>
       <use xlink:href="#me5a6b9c62d" x="79.528421" y="307.584" style="stroke: #000000; stroke-width: 0.8"/>
      </g>
     </g>
     <g id="text_1">
      <!-- 1000 -->
      <g transform="translate(66.803421 322.182437)scale(0.1 -0.1)">
       <defs>
        <path id="DejaVuSans-31" d="M 794 531 
L 1825 531 
L 1825 4091 
L 703 3866 
L 703 4441 
L 1819 4666 
L 2450 4666 
L 2450 531 
L 3481 531 
L 3481 0 
L 794 0 
L 794 531 
z
" transform="scale(0.015625)"/>
        <path id="DejaVuSans-30" d="M 2034 4250 
Q 1547 4250 1301 3770 
Q 1056 3291 1056 2328 
Q 1056 1369 1301 889 
Q 1547 409 2034 409 
Q 2525 409 2770 889 
Q 3016 1369 3016 2328 
Q 3016 3291 2770 3770 
Q 2525 4250 2034 4250 
z
M 2034 4750 
Q 2819 4750 3233 4129 
Q 3647 3509 3647 2328 
Q 3647 1150 3233 529 
Q 2819 -91 2034 -91 
Q 1250 -91 836 529 
Q 422 1150 422 2328 
Q 422 3509 836 4129 
Q 1250 4750 2034 4750 
z
" transform="scale(0.015625)"/>
       </defs>
       <use xlink:href="#DejaVuSans-31"/>
       <use xlink:href="#DejaVuSans-30" x="63.623047"/>
       <use xlink:href="#DejaVuSans-30" x="127.246094"/>
       <use xlink:href="#DejaVuSans-30" x="190.869141"/>
      </g>
     </g>
    </g>
    <g id="xtick_2">
     <g id="line2d_3">
      <path d="M 136.485359 307.584 
L 136.485359 41.472 
" clip-path="url(#pcc773eb1d5)" style="fill: none; stroke-dasharray: 2.96,1.28; stroke-dashoffset: 0; stroke: #b0b0b0; stroke-width: 0.8"/>
     </g>
     <g id="line2d_4">
      <g>
       <use xlink:href="#me5a6b9c62d" x="136.485359" y="307.584" style="stroke: #000000; stroke-width: 0.8"/>
      </g>
     </g>
     <g id="text_2">
      <!-- 2000 -->
      <g transform="translate(123.760359 322.182437)scale(0.1 -0.1)">
       <defs>
        <path id="DejaVuSans-32" d="M 1228 531 
L 3431 531 
L 3431 0 
L 469 0 
L 469 531 
Q 828 903 1448 1529 
Q 2069 2156 2228 2338 
Q 2531 2678 2651 2914 
Q 2772 3150 2772 3378 
Q 2772 3750 2511 3984 
Q 2250 4219 1831 4219 
Q 1534 4219 1204 4116 
Q 875 4013 500 3803 
L 500 4441 
Q 881 4594 1212 4672 
Q 1544 4750 1819 4750 
Q 2544 4750 2975 4387 
Q 3406 4025 3406 3419 
Q 3406 3131 3298 2873 
Q 3191 2616 2906 2266 
Q 2828 2175 2409 1742 
Q 1991 1309 1228 531 
z
" transform="scale(0.015625)"/>
       </defs>
       <use xlink:href="#DejaVuSans-32"/>
       <use xlink:href="#DejaVuSans-30" x="63.623047"/>
       <use xlink:href="#DejaVuSans-30" x="127.246094"/>
       <use xlink:href="#DejaVuSans-30" x="190.869141"/>
      </g>
     </g>
    </g>
    <g id="xtick_3">
     <g id="line2d_5">
      <path d="M 193.442297 307.584 
L 193.442297 41.472 
" clip-path="url(#pcc773eb1d5)" style="fill: none; stroke-dasharray: 2.96,1.28; stroke-dashoffset: 0; stroke: #b0b0b0; stroke-width: 0.8"/>
     </g>
     <g id="line2d_6">
      <g>
       <use xlink:href="#me5a6b9c62d" x="193.442297" y="307.584" style="stroke: #000000; stroke-width: 0.8"/>
      </g>
     </g>
     <g id="text_3">
      <!-- 3000 -->
      <g transform="translate(180.717297 322.182437)scale(0.1 -0.1)">
       <defs>
        <path id="DejaVuSans-33" d="M 2597 2516 
Q 3050 2419 3304 2112 
Q 3559 1806 3559 1356 
Q 3559 666 3084 287 
Q 2609 -91 1734 -91 
Q 1441 -91 1130 -33 
Q 819 25 488 141 
L 488 750 
Q 750 597 1062 519 
Q 1375 441 1716 441 
Q 2309 441 2620 675 
Q 2931 909 2931 1356 
Q 2931 1769 2642 2001 
Q 2353 2234 1838 2234 
L 1294 2234 
L 1294 2753 
L 1863 2753 
Q 2328 2753 2575 2939 
Q 2822 3125 2822 3475 
Q 2822 3834 2567 4026 
Q 2313 4219 1838 4219 
Q 1578 4219 1281 4162 
Q 984 4106 628 3988 
L 628 4550 
Q 988 4650 1302 4700 
Q 1616 4750 1894 4750 
Q 2613 4750 3031 4423 
Q 3450 4097 3450 3541 
Q 3450 3153 3228 2886 
Q 3006 2619 2597 2516 
z
" transform="scale(0.015625)"/>
       </defs>
       <use xlink:href="#DejaVuSans-33"/>
       <use xlink:href="#DejaVuSans-30" x="63.623047"/>
       <use xlink:href="#DejaVuSans-30" x="127.246094"/>
       <use xlink:href="#DejaVuSans-30" x="190.869141"/>
      </g>
     </g>
    </g>
    <g id="xtick_4">
     <g id="line2d_7">
      <path d="M 250.399234 307.584 
L 250.399234 41.472 
" clip-path="url(#pcc773eb1d5)" style="fill: none; stroke-dasharray: 2.96,1.28; stroke-dashoffset: 0; stroke: #b0b0b0; stroke-width: 0.8"/>
     </g>
     <g id="line2d_8">
      <g>
       <use xlink:href="#me5a6b9c62d" x="250.399234" y="307.584" style="stroke: #000000; stroke-width: 0.8"/>
      </g>
     </g>
     <g id="text_4">
      <!-- 4000 -->
      <g transform="translate(237.674234 322.182437)scale(0.1 -0.1)">
       <defs>
        <path id="DejaVuSans-34" d="M 2419 4116 
L 825 1625 
L 2419 1625 
L 2419 4116 
z
M 2253 4666 
L 3047 4666 
L 3047 1625 
L 3713 1625 
L 3713 1100 
L 3047 1100 
L 3047 0 
L 2419 0 
L 2419 1100 
L 313 1100 
L 313 1709 
L 2253 4666 
z
" transform="scale(0.015625)"/>
       </defs>
       <use xlink:href="#DejaVuSans-34"/>
       <use xlink:href="#DejaVuSans-30" x="63.623047"/>
       <use xlink:href="#DejaVuSans-30" x="127.246094"/>
       <use xlink:href="#DejaVuSans-30" x="190.869141"/>
      </g>
     </g>
    </g>
    <g id="xtick_5">
     <g id="line2d_9">
      <path d="M 307.356172 307.584 
L 307.356172 41.472 
" clip-path="url(#pcc773eb1d5)" style="fill: none; stroke-dasharray: 2.96,1.28; stroke-dashoffset: 0; stroke: #b0b0b0; stroke-width: 0.8"/>
     </g>
     <g id="line2d_10">
      <g>
       <use xlink:href="#me5a6b9c62d" x="307.356172" y="307.584" style="stroke: #000000; stroke-width: 0.8"/>
      </g>
     </g>
     <g id="text_5">
      <!-- 5000 -->
      <g transform="translate(294.631172 322.182437)scale(0.1 -0.1)">
       <defs>
        <path id="DejaVuSans-35" d="M 691 4666 
L 3169 4666 
L 3169 4134 
L 1269 4134 
L 1269 2991 
Q 1406 3038 1543 3061 
Q 1681 3084 1819 3084 
Q 2600 3084 3056 2656 
Q 3513 2228 3513 1497 
Q 3513 744 3044 326 
Q 2575 -91 1722 -91 
Q 1428 -91 1123 -41 
Q 819 9 494 109 
L 494 744 
Q 775 591 1075 516 
Q 1375 441 1709 441 
Q 2250 441 2565 725 
Q 2881 1009 2881 1497 
Q 2881 1984 2565 2268 
Q 2250 2553 1709 2553 
Q 1456 2553 1204 2497 
Q 953 2441 691 2322 
L 691 4666 
z
" transform="scale(0.015625)"/>
       </defs>
       <use xlink:href="#DejaVuSans-35"/>
       <use xlink:href="#DejaVuSans-30" x="63.623047"/>
       <use xlink:href="#DejaVuSans-30" x="127.246094"/>
       <use xlink:href="#DejaVuSans-30" x="190.869141"/>
      </g>
     </g>
    </g>
    <g id="xtick_6">
     <g id="line2d_11">
      <path d="M 364.31311 307.584 
L 364.31311 41.472 
" clip-path="url(#pcc773eb1d5)" style="fill: none; stroke-dasharray: 2.96,1.28; stroke-dashoffset: 0; stroke: #b0b0b0; stroke-width: 0.8"/>
     </g>
     <g id="line2d_12">
      <g>
       <use xlink:href="#me5a6b9c62d" x="364.31311" y="307.584" style="stroke: #000000; stroke-width: 0.8"/>
      </g>
     </g>
     <g id="text_6">
      <!-- 6000 -->
      <g transform="translate(351.58811 322.182437)scale(0.1 -0.1)">
       <defs>
        <path id="DejaVuSans-36" d="M 2113 2584 
Q 1688 2584 1439 2293 
Q 1191 2003 1191 1497 
Q 1191 994 1439 701 
Q 1688 409 2113 409 
Q 2538 409 2786 701 
Q 3034 994 3034 1497 
Q 3034 2003 2786 2293 
Q 2538 2584 2113 2584 
z
M 3366 4563 
L 3366 3988 
Q 3128 4100 2886 4159 
Q 2644 4219 2406 4219 
Q 1781 4219 1451 3797 
Q 1122 3375 1075 2522 
Q 1259 2794 1537 2939 
Q 1816 3084 2150 3084 
Q 2853 3084 3261 2657 
Q 3669 2231 3669 1497 
Q 3669 778 3244 343 
Q 2819 -91 2113 -91 
Q 1303 -91 875 529 
Q 447 1150 447 2328 
Q 447 3434 972 4092 
Q 1497 4750 2381 4750 
Q 2619 4750 2861 4703 
Q 3103 4656 3366 4563 
z
" transform="scale(0.015625)"/>
       </defs>
       <use xlink:href="#DejaVuSans-36"/>
       <use xlink:href="#DejaVuSans-30" x="63.623047"/>
       <use xlink:href="#DejaVuSans-30" x="127.246094"/>
       <use xlink:href="#DejaVuSans-30" x="190.869141"/>
      </g>
     </g>
    </g>
    <g id="text_7">
     <!-- Learned Episodes -->
     <g transform="translate(192.102187 335.860562)scale(0.1 -0.1)">
      <defs>
       <path id="DejaVuSans-4c" d="M 628 4666 
L 1259 4666 
L 1259 531 
L 3531 531 
L 3531 0 
L 628 0 
L 628 4666 
z
" transform="scale(0.015625)"/>
       <path id="DejaVuSans-65" d="M 3597 1894 
L 3597 1613 
L 953 1613 
Q 991 1019 1311 708 
Q 1631 397 2203 397 
Q 2534 397 2845 478 
Q 3156 559 3463 722 
L 3463 178 
Q 3153 47 2828 -22 
Q 2503 -91 2169 -91 
Q 1331 -91 842 396 
Q 353 884 353 1716 
Q 353 2575 817 3079 
Q 1281 3584 2069 3584 
Q 2775 3584 3186 3129 
Q 3597 2675 3597 1894 
z
M 3022 2063 
Q 3016 2534 2758 2815 
Q 2500 3097 2075 3097 
Q 1594 3097 1305 2825 
Q 1016 2553 972 2059 
L 3022 2063 
z
" transform="scale(0.015625)"/>
       <path id="DejaVuSans-61" d="M 2194 1759 
Q 1497 1759 1228 1600 
Q 959 1441 959 1056 
Q 959 750 1161 570 
Q 1363 391 1709 391 
Q 2188 391 2477 730 
Q 2766 1069 2766 1631 
L 2766 1759 
L 2194 1759 
z
M 3341 1997 
L 3341 0 
L 2766 0 
L 2766 531 
Q 2569 213 2275 61 
Q 1981 -91 1556 -91 
Q 1019 -91 701 211 
Q 384 513 384 1019 
Q 384 1609 779 1909 
Q 1175 2209 1959 2209 
L 2766 2209 
L 2766 2266 
Q 2766 2663 2505 2880 
Q 2244 3097 1772 3097 
Q 1472 3097 1187 3025 
Q 903 2953 641 2809 
L 641 3341 
Q 956 3463 1253 3523 
Q 1550 3584 1831 3584 
Q 2591 3584 2966 3190 
Q 3341 2797 3341 1997 
z
" transform="scale(0.015625)"/>
       <path id="DejaVuSans-72" d="M 2631 2963 
Q 2534 3019 2420 3045 
Q 2306 3072 2169 3072 
Q 1681 3072 1420 2755 
Q 1159 2438 1159 1844 
L 1159 0 
L 581 0 
L 581 3500 
L 1159 3500 
L 1159 2956 
Q 1341 3275 1631 3429 
Q 1922 3584 2338 3584 
Q 2397 3584 2469 3576 
Q 2541 3569 2628 3553 
L 2631 2963 
z
" transform="scale(0.015625)"/>
       <path id="DejaVuSans-6e" d="M 3513 2113 
L 3513 0 
L 2938 0 
L 2938 2094 
Q 2938 2591 2744 2837 
Q 2550 3084 2163 3084 
Q 1697 3084 1428 2787 
Q 1159 2491 1159 1978 
L 1159 0 
L 581 0 
L 581 3500 
L 1159 3500 
L 1159 2956 
Q 1366 3272 1645 3428 
Q 1925 3584 2291 3584 
Q 2894 3584 3203 3211 
Q 3513 2838 3513 2113 
z
" transform="scale(0.015625)"/>
       <path id="DejaVuSans-64" d="M 2906 2969 
L 2906 4863 
L 3481 4863 
L 3481 0 
L 2906 0 
L 2906 525 
Q 2725 213 2448 61 
Q 2172 -91 1784 -91 
Q 1150 -91 751 415 
Q 353 922 353 1747 
Q 353 2572 751 3078 
Q 1150 3584 1784 3584 
Q 2172 3584 2448 3432 
Q 2725 3281 2906 2969 
z
M 947 1747 
Q 947 1113 1208 752 
Q 1469 391 1925 391 
Q 2381 391 2643 752 
Q 2906 1113 2906 1747 
Q 2906 2381 2643 2742 
Q 2381 3103 1925 3103 
Q 1469 3103 1208 2742 
Q 947 2381 947 1747 
z
" transform="scale(0.015625)"/>
       <path id="DejaVuSans-20" transform="scale(0.015625)"/>
       <path id="DejaVuSans-45" d="M 628 4666 
L 3578 4666 
L 3578 4134 
L 1259 4134 
L 1259 2753 
L 3481 2753 
L 3481 2222 
L 1259 2222 
L 1259 531 
L 3634 531 
L 3634 0 
L 628 0 
L 628 4666 
z
" transform="scale(0.015625)"/>
       <path id="DejaVuSans-70" d="M 1159 525 
L 1159 -1331 
L 581 -1331 
L 581 3500 
L 1159 3500 
L 1159 2969 
Q 1341 3281 1617 3432 
Q 1894 3584 2278 3584 
Q 2916 3584 3314 3078 
Q 3713 2572 3713 1747 
Q 3713 922 3314 415 
Q 2916 -91 2278 -91 
Q 1894 -91 1617 61 
Q 1341 213 1159 525 
z
M 3116 1747 
Q 3116 2381 2855 2742 
Q 2594 3103 2138 3103 
Q 1681 3103 1420 2742 
Q 1159 2381 1159 1747 
Q 1159 1113 1420 752 
Q 1681 391 2138 391 
Q 2594 391 2855 752 
Q 3116 1113 3116 1747 
z
" transform="scale(0.015625)"/>
       <path id="DejaVuSans-69" d="M 603 3500 
L 1178 3500 
L 1178 0 
L 603 0 
L 603 3500 
z
M 603 4863 
L 1178 4863 
L 1178 4134 
L 603 4134 
L 603 4863 
z
" transform="scale(0.015625)"/>
       <path id="DejaVuSans-73" d="M 2834 3397 
L 2834 2853 
Q 2591 2978 2328 3040 
Q 2066 3103 1784 3103 
Q 1356 3103 1142 2972 
Q 928 2841 928 2578 
Q 928 2378 1081 2264 
Q 1234 2150 1697 2047 
L 1894 2003 
Q 2506 1872 2764 1633 
Q 3022 1394 3022 966 
Q 3022 478 2636 193 
Q 2250 -91 1575 -91 
Q 1294 -91 989 -36 
Q 684 19 347 128 
L 347 722 
Q 666 556 975 473 
Q 1284 391 1588 391 
Q 1994 391 2212 530 
Q 2431 669 2431 922 
Q 2431 1156 2273 1281 
Q 2116 1406 1581 1522 
L 1381 1569 
Q 847 1681 609 1914 
Q 372 2147 372 2553 
Q 372 3047 722 3315 
Q 1072 3584 1716 3584 
Q 2034 3584 2315 3537 
Q 2597 3491 2834 3397 
z
" transform="scale(0.015625)"/>
       <path id="DejaVuSans-6f" d="M 1959 3097 
Q 1497 3097 1228 2736 
Q 959 2375 959 1747 
Q 959 1119 1226 758 
Q 1494 397 1959 397 
Q 2419 397 2687 759 
Q 2956 1122 2956 1747 
Q 2956 2369 2687 2733 
Q 2419 3097 1959 3097 
z
M 1959 3584 
Q 2709 3584 3137 3096 
Q 3566 2609 3566 1747 
Q 3566 888 3137 398 
Q 2709 -91 1959 -91 
Q 1206 -91 779 398 
Q 353 888 353 1747 
Q 353 2609 779 3096 
Q 1206 3584 1959 3584 
z
" transform="scale(0.015625)"/>
      </defs>
      <use xlink:href="#DejaVuSans-4c"/>
      <use xlink:href="#DejaVuSans-65" x="53.962891"/>
      <use xlink:href="#DejaVuSans-61" x="115.486328"/>
      <use xlink:href="#DejaVuSans-72" x="176.765625"/>
      <use xlink:href="#DejaVuSans-6e" x="216.128906"/>
      <use xlink:href="#DejaVuSans-65" x="279.507812"/>
      <use xlink:href="#DejaVuSans-64" x="341.03125"/>
      <use xlink:href="#DejaVuSans-20" x="404.507812"/>
      <use xlink:href="#DejaVuSans-45" x="436.294922"/>
      <use xlink:href="#DejaVuSans-70" x="499.478516"/>
      <use xlink:href="#DejaVuSans-69" x="562.955078"/>
      <use xlink:href="#DejaVuSans-73" x="590.738281"/>
      <use xlink:href="#DejaVuSans-6f" x="642.837891"/>
      <use xlink:href="#DejaVuSans-64" x="704.019531"/>
      <use xlink:href="#DejaVuSans-65" x="767.496094"/>
      <use xlink:href="#DejaVuSans-73" x="829.019531"/>
     </g>
    </g>
   </g>
   <g id="matplotlib.axis_2">
    <g id="ytick_1">
     <g id="line2d_13">
      <path d="M 57.6 306.515532 
L 414.72 306.515532 
" clip-path="url(#pcc773eb1d5)" style="fill: none; stroke-dasharray: 2.96,1.28; stroke-dashoffset: 0; stroke: #b0b0b0; stroke-width: 0.8"/>
     </g>
     <g id="line2d_14">
      <defs>
       <path id="m29bc2fe458" d="M 0 0 
L -3.5 0 
" style="stroke: #000000; stroke-width: 0.8"/>
      </defs>
      <g>
       <use xlink:href="#m29bc2fe458" x="57.6" y="306.515532" style="stroke: #000000; stroke-width: 0.8"/>
      </g>
     </g>
     <g id="text_8">
      <!-- 300 -->
      <g transform="translate(31.5125 310.314751)scale(0.1 -0.1)">
       <use xlink:href="#DejaVuSans-33"/>
       <use xlink:href="#DejaVuSans-30" x="63.623047"/>
       <use xlink:href="#DejaVuSans-30" x="127.246094"/>
      </g>
     </g>
    </g>
    <g id="ytick_2">
     <g id="line2d_15">
      <path d="M 57.6 265.731517 
L 414.72 265.731517 
" clip-path="url(#pcc773eb1d5)" style="fill: none; stroke-dasharray: 2.96,1.28; stroke-dashoffset: 0; stroke: #b0b0b0; stroke-width: 0.8"/>
     </g>
     <g id="line2d_16">
      <g>
       <use xlink:href="#m29bc2fe458" x="57.6" y="265.731517" style="stroke: #000000; stroke-width: 0.8"/>
      </g>
     </g>
     <g id="text_9">
      <!-- 400 -->
      <g transform="translate(31.5125 269.530736)scale(0.1 -0.1)">
       <use xlink:href="#DejaVuSans-34"/>
       <use xlink:href="#DejaVuSans-30" x="63.623047"/>
       <use xlink:href="#DejaVuSans-30" x="127.246094"/>
      </g>
     </g>
    </g>
    <g id="ytick_3">
     <g id="line2d_17">
      <path d="M 57.6 224.947502 
L 414.72 224.947502 
" clip-path="url(#pcc773eb1d5)" style="fill: none; stroke-dasharray: 2.96,1.28; stroke-dashoffset: 0; stroke: #b0b0b0; stroke-width: 0.8"/>
     </g>
     <g id="line2d_18">
      <g>
       <use xlink:href="#m29bc2fe458" x="57.6" y="224.947502" style="stroke: #000000; stroke-width: 0.8"/>
      </g>
     </g>
     <g id="text_10">
      <!-- 500 -->
      <g transform="translate(31.5125 228.74672)scale(0.1 -0.1)">
       <use xlink:href="#DejaVuSans-35"/>
       <use xlink:href="#DejaVuSans-30" x="63.623047"/>
       <use xlink:href="#DejaVuSans-30" x="127.246094"/>
      </g>
     </g>
    </g>
    <g id="ytick_4">
     <g id="line2d_19">
      <path d="M 57.6 184.163486 
L 414.72 184.163486 
" clip-path="url(#pcc773eb1d5)" style="fill: none; stroke-dasharray: 2.96,1.28; stroke-dashoffset: 0; stroke: #b0b0b0; stroke-width: 0.8"/>
     </g>
     <g id="line2d_20">
      <g>
       <use xlink:href="#m29bc2fe458" x="57.6" y="184.163486" style="stroke: #000000; stroke-width: 0.8"/>
      </g>
     </g>
     <g id="text_11">
      <!-- 600 -->
      <g transform="translate(31.5125 187.962705)scale(0.1 -0.1)">
       <use xlink:href="#DejaVuSans-36"/>
       <use xlink:href="#DejaVuSans-30" x="63.623047"/>
       <use xlink:href="#DejaVuSans-30" x="127.246094"/>
      </g>
     </g>
    </g>
    <g id="ytick_5">
     <g id="line2d_21">
      <path d="M 57.6 143.379471 
L 414.72 143.379471 
" clip-path="url(#pcc773eb1d5)" style="fill: none; stroke-dasharray: 2.96,1.28; stroke-dashoffset: 0; stroke: #b0b0b0; stroke-width: 0.8"/>
     </g>
     <g id="line2d_22">
      <g>
       <use xlink:href="#m29bc2fe458" x="57.6" y="143.379471" style="stroke: #000000; stroke-width: 0.8"/>
      </g>
     </g>
     <g id="text_12">
      <!-- 700 -->
      <g transform="translate(31.5125 147.17869)scale(0.1 -0.1)">
       <defs>
        <path id="DejaVuSans-37" d="M 525 4666 
L 3525 4666 
L 3525 4397 
L 1831 0 
L 1172 0 
L 2766 4134 
L 525 4134 
L 525 4666 
z
" transform="scale(0.015625)"/>
       </defs>
       <use xlink:href="#DejaVuSans-37"/>
       <use xlink:href="#DejaVuSans-30" x="63.623047"/>
       <use xlink:href="#DejaVuSans-30" x="127.246094"/>
      </g>
     </g>
    </g>
    <g id="ytick_6">
     <g id="line2d_23">
      <path d="M 57.6 102.595456 
L 414.72 102.595456 
" clip-path="url(#pcc773eb1d5)" style="fill: none; stroke-dasharray: 2.96,1.28; stroke-dashoffset: 0; stroke: #b0b0b0; stroke-width: 0.8"/>
     </g>
     <g id="line2d_24">
      <g>
       <use xlink:href="#m29bc2fe458" x="57.6" y="102.595456" style="stroke: #000000; stroke-width: 0.8"/>
      </g>
     </g>
     <g id="text_13">
      <!-- 800 -->
      <g transform="translate(31.5125 106.394674)scale(0.1 -0.1)">
       <defs>
        <path id="DejaVuSans-38" d="M 2034 2216 
Q 1584 2216 1326 1975 
Q 1069 1734 1069 1313 
Q 1069 891 1326 650 
Q 1584 409 2034 409 
Q 2484 409 2743 651 
Q 3003 894 3003 1313 
Q 3003 1734 2745 1975 
Q 2488 2216 2034 2216 
z
M 1403 2484 
Q 997 2584 770 2862 
Q 544 3141 544 3541 
Q 544 4100 942 4425 
Q 1341 4750 2034 4750 
Q 2731 4750 3128 4425 
Q 3525 4100 3525 3541 
Q 3525 3141 3298 2862 
Q 3072 2584 2669 2484 
Q 3125 2378 3379 2068 
Q 3634 1759 3634 1313 
Q 3634 634 3220 271 
Q 2806 -91 2034 -91 
Q 1263 -91 848 271 
Q 434 634 434 1313 
Q 434 1759 690 2068 
Q 947 2378 1403 2484 
z
M 1172 3481 
Q 1172 3119 1398 2916 
Q 1625 2713 2034 2713 
Q 2441 2713 2670 2916 
Q 2900 3119 2900 3481 
Q 2900 3844 2670 4047 
Q 2441 4250 2034 4250 
Q 1625 4250 1398 4047 
Q 1172 3844 1172 3481 
z
" transform="scale(0.015625)"/>
       </defs>
       <use xlink:href="#DejaVuSans-38"/>
       <use xlink:href="#DejaVuSans-30" x="63.623047"/>
       <use xlink:href="#DejaVuSans-30" x="127.246094"/>
      </g>
     </g>
    </g>
    <g id="ytick_7">
     <g id="line2d_25">
      <path d="M 57.6 61.81144 
L 414.72 61.81144 
" clip-path="url(#pcc773eb1d5)" style="fill: none; stroke-dasharray: 2.96,1.28; stroke-dashoffset: 0; stroke: #b0b0b0; stroke-width: 0.8"/>
     </g>
     <g id="line2d_26">
      <g>
       <use xlink:href="#m29bc2fe458" x="57.6" y="61.81144" style="stroke: #000000; stroke-width: 0.8"/>
      </g>
     </g>
     <g id="text_14">
      <!-- 900 -->
      <g transform="translate(31.5125 65.610659)scale(0.1 -0.1)">
       <defs>
        <path id="DejaVuSans-39" d="M 703 97 
L 703 672 
Q 941 559 1184 500 
Q 1428 441 1663 441 
Q 2288 441 2617 861 
Q 2947 1281 2994 2138 
Q 2813 1869 2534 1725 
Q 2256 1581 1919 1581 
Q 1219 1581 811 2004 
Q 403 2428 403 3163 
Q 403 3881 828 4315 
Q 1253 4750 1959 4750 
Q 2769 4750 3195 4129 
Q 3622 3509 3622 2328 
Q 3622 1225 3098 567 
Q 2575 -91 1691 -91 
Q 1453 -91 1209 -44 
Q 966 3 703 97 
z
M 1959 2075 
Q 2384 2075 2632 2365 
Q 2881 2656 2881 3163 
Q 2881 3666 2632 3958 
Q 2384 4250 1959 4250 
Q 1534 4250 1286 3958 
Q 1038 3666 1038 3163 
Q 1038 2656 1286 2365 
Q 1534 2075 1959 2075 
z
" transform="scale(0.015625)"/>
       </defs>
       <use xlink:href="#DejaVuSans-39"/>
       <use xlink:href="#DejaVuSans-30" x="63.623047"/>
       <use xlink:href="#DejaVuSans-30" x="127.246094"/>
      </g>
     </g>
    </g>
    <g id="text_15">
     <!-- Reward Density -->
     <g transform="translate(25.432812 213.74675)rotate(-90)scale(0.1 -0.1)">
      <defs>
       <path id="DejaVuSans-52" d="M 2841 2188 
Q 3044 2119 3236 1894 
Q 3428 1669 3622 1275 
L 4263 0 
L 3584 0 
L 2988 1197 
Q 2756 1666 2539 1819 
Q 2322 1972 1947 1972 
L 1259 1972 
L 1259 0 
L 628 0 
L 628 4666 
L 2053 4666 
Q 2853 4666 3247 4331 
Q 3641 3997 3641 3322 
Q 3641 2881 3436 2590 
Q 3231 2300 2841 2188 
z
M 1259 4147 
L 1259 2491 
L 2053 2491 
Q 2509 2491 2742 2702 
Q 2975 2913 2975 3322 
Q 2975 3731 2742 3939 
Q 2509 4147 2053 4147 
L 1259 4147 
z
" transform="scale(0.015625)"/>
       <path id="DejaVuSans-77" d="M 269 3500 
L 844 3500 
L 1563 769 
L 2278 3500 
L 2956 3500 
L 3675 769 
L 4391 3500 
L 4966 3500 
L 4050 0 
L 3372 0 
L 2619 2869 
L 1863 0 
L 1184 0 
L 269 3500 
z
" transform="scale(0.015625)"/>
       <path id="DejaVuSans-44" d="M 1259 4147 
L 1259 519 
L 2022 519 
Q 2988 519 3436 956 
Q 3884 1394 3884 2338 
Q 3884 3275 3436 3711 
Q 2988 4147 2022 4147 
L 1259 4147 
z
M 628 4666 
L 1925 4666 
Q 3281 4666 3915 4102 
Q 4550 3538 4550 2338 
Q 4550 1131 3912 565 
Q 3275 0 1925 0 
L 628 0 
L 628 4666 
z
" transform="scale(0.015625)"/>
       <path id="DejaVuSans-74" d="M 1172 4494 
L 1172 3500 
L 2356 3500 
L 2356 3053 
L 1172 3053 
L 1172 1153 
Q 1172 725 1289 603 
Q 1406 481 1766 481 
L 2356 481 
L 2356 0 
L 1766 0 
Q 1100 0 847 248 
Q 594 497 594 1153 
L 594 3053 
L 172 3053 
L 172 3500 
L 594 3500 
L 594 4494 
L 1172 4494 
z
" transform="scale(0.015625)"/>
       <path id="DejaVuSans-79" d="M 2059 -325 
Q 1816 -950 1584 -1140 
Q 1353 -1331 966 -1331 
L 506 -1331 
L 506 -850 
L 844 -850 
Q 1081 -850 1212 -737 
Q 1344 -625 1503 -206 
L 1606 56 
L 191 3500 
L 800 3500 
L 1894 763 
L 2988 3500 
L 3597 3500 
L 2059 -325 
z
" transform="scale(0.015625)"/>
      </defs>
      <use xlink:href="#DejaVuSans-52"/>
      <use xlink:href="#DejaVuSans-65" x="64.982422"/>
      <use xlink:href="#DejaVuSans-77" x="126.505859"/>
      <use xlink:href="#DejaVuSans-61" x="208.292969"/>
      <use xlink:href="#DejaVuSans-72" x="269.572266"/>
      <use xlink:href="#DejaVuSans-64" x="308.935547"/>
      <use xlink:href="#DejaVuSans-20" x="372.412109"/>
      <use xlink:href="#DejaVuSans-44" x="404.199219"/>
      <use xlink:href="#DejaVuSans-65" x="481.201172"/>
      <use xlink:href="#DejaVuSans-6e" x="542.724609"/>
      <use xlink:href="#DejaVuSans-73" x="606.103516"/>
      <use xlink:href="#DejaVuSans-69" x="658.203125"/>
      <use xlink:href="#DejaVuSans-74" x="685.986328"/>
      <use xlink:href="#DejaVuSans-79" x="725.195312"/>
     </g>
    </g>
   </g>
   <g id="LineCollection_1">
    <path d="M 90.919809 145.605808 
L 125.093971 145.605808 
" clip-path="url(#pcc773eb1d5)" style="fill: none; stroke: #1f77b4; stroke-width: 1.5"/>
    <path d="M 176.355215 155.397046 
L 210.529378 155.397046 
" clip-path="url(#pcc773eb1d5)" style="fill: none; stroke: #1f77b4; stroke-width: 1.5"/>
    <path d="M 261.790622 164.299672 
L 295.964785 164.299672 
" clip-path="url(#pcc773eb1d5)" style="fill: none; stroke: #1f77b4; stroke-width: 1.5"/>
    <path d="M 347.226029 170.791893 
L 381.400191 170.791893 
" clip-path="url(#pcc773eb1d5)" style="fill: none; stroke: #1f77b4; stroke-width: 1.5"/>
   </g>
   <g id="LineCollection_2">
    <path d="M 90.919809 78.313798 
L 125.093971 78.313798 
" clip-path="url(#pcc773eb1d5)" style="fill: none; stroke: #1f77b4; stroke-width: 1.5"/>
    <path d="M 176.355215 62.163609 
L 210.529378 62.163609 
" clip-path="url(#pcc773eb1d5)" style="fill: none; stroke: #1f77b4; stroke-width: 1.5"/>
    <path d="M 261.790622 53.568 
L 295.964785 53.568 
" clip-path="url(#pcc773eb1d5)" style="fill: none; stroke: #1f77b4; stroke-width: 1.5"/>
    <path d="M 347.226029 63.048649 
L 381.400191 63.048649 
" clip-path="url(#pcc773eb1d5)" style="fill: none; stroke: #1f77b4; stroke-width: 1.5"/>
   </g>
   <g id="LineCollection_3">
    <path d="M 90.919809 229.301155 
L 125.093971 229.301155 
" clip-path="url(#pcc773eb1d5)" style="fill: none; stroke: #1f77b4; stroke-width: 1.5"/>
    <path d="M 176.355215 255.168947 
L 210.529378 255.168947 
" clip-path="url(#pcc773eb1d5)" style="fill: none; stroke: #1f77b4; stroke-width: 1.5"/>
    <path d="M 261.790622 295.488 
L 295.964785 295.488 
" clip-path="url(#pcc773eb1d5)" style="fill: none; stroke: #1f77b4; stroke-width: 1.5"/>
    <path d="M 347.226029 294.175551 
L 381.400191 294.175551 
" clip-path="url(#pcc773eb1d5)" style="fill: none; stroke: #1f77b4; stroke-width: 1.5"/>
   </g>
   <g id="LineCollection_4">
    <path d="M 108.00689 229.301155 
L 108.00689 78.313798 
" clip-path="url(#pcc773eb1d5)" style="fill: none; stroke: #1f77b4; stroke-width: 1.5"/>
    <path d="M 193.442297 255.168947 
L 193.442297 62.163609 
" clip-path="url(#pcc773eb1d5)" style="fill: none; stroke: #1f77b4; stroke-width: 1.5"/>
    <path d="M 278.877703 295.488 
L 278.877703 53.568 
" clip-path="url(#pcc773eb1d5)" style="fill: none; stroke: #1f77b4; stroke-width: 1.5"/>
    <path d="M 364.31311 294.175551 
L 364.31311 63.048649 
" clip-path="url(#pcc773eb1d5)" style="fill: none; stroke: #1f77b4; stroke-width: 1.5"/>
   </g>
   <g id="line2d_27">
    <path d="M 108.00689 145.605808 
L 193.442297 155.397046 
L 278.877703 164.299672 
L 364.31311 170.791893 
" clip-path="url(#pcc773eb1d5)" style="fill: none; stroke: #4682b4; stroke-width: 1.5; stroke-linecap: square"/>
   </g>
   <g id="line2d_28">
    <path d="M 108.00689 145.605808 
L 193.442297 155.397046 
L 278.877703 164.299672 
L 364.31311 170.791893 
" clip-path="url(#pcc773eb1d5)" style="fill: none; stroke: #4682b4; stroke-width: 1.5; stroke-linecap: square"/>
   </g>
   <g id="patch_3">
    <path d="M 57.6 307.584 
L 57.6 41.472 
" style="fill: none; stroke: #000000; stroke-width: 0.8; stroke-linejoin: miter; stroke-linecap: square"/>
   </g>
   <g id="patch_4">
    <path d="M 414.72 307.584 
L 414.72 41.472 
" style="fill: none; stroke: #000000; stroke-width: 0.8; stroke-linejoin: miter; stroke-linecap: square"/>
   </g>
   <g id="patch_5">
    <path d="M 57.6 307.584 
L 414.72 307.584 
" style="fill: none; stroke: #000000; stroke-width: 0.8; stroke-linejoin: miter; stroke-linecap: square"/>
   </g>
   <g id="patch_6">
    <path d="M 57.6 41.472 
L 414.72 41.472 
" style="fill: none; stroke: #000000; stroke-width: 0.8; stroke-linejoin: miter; stroke-linecap: square"/>
   </g>
   <g id="text_16">
    <!-- Violinplot for progress of a/reward -->
    <g transform="translate(134.184375 35.472)scale(0.12 -0.12)">
     <defs>
      <path id="DejaVuSans-56" d="M 1831 0 
L 50 4666 
L 709 4666 
L 2188 738 
L 3669 4666 
L 4325 4666 
L 2547 0 
L 1831 0 
z
" transform="scale(0.015625)"/>
      <path id="DejaVuSans-6c" d="M 603 4863 
L 1178 4863 
L 1178 0 
L 603 0 
L 603 4863 
z
" transform="scale(0.015625)"/>
      <path id="DejaVuSans-66" d="M 2375 4863 
L 2375 4384 
L 1825 4384 
Q 1516 4384 1395 4259 
Q 1275 4134 1275 3809 
L 1275 3500 
L 2222 3500 
L 2222 3053 
L 1275 3053 
L 1275 0 
L 697 0 
L 697 3053 
L 147 3053 
L 147 3500 
L 697 3500 
L 697 3744 
Q 697 4328 969 4595 
Q 1241 4863 1831 4863 
L 2375 4863 
z
" transform="scale(0.015625)"/>
      <path id="DejaVuSans-67" d="M 2906 1791 
Q 2906 2416 2648 2759 
Q 2391 3103 1925 3103 
Q 1463 3103 1205 2759 
Q 947 2416 947 1791 
Q 947 1169 1205 825 
Q 1463 481 1925 481 
Q 2391 481 2648 825 
Q 2906 1169 2906 1791 
z
M 3481 434 
Q 3481 -459 3084 -895 
Q 2688 -1331 1869 -1331 
Q 1566 -1331 1297 -1286 
Q 1028 -1241 775 -1147 
L 775 -588 
Q 1028 -725 1275 -790 
Q 1522 -856 1778 -856 
Q 2344 -856 2625 -561 
Q 2906 -266 2906 331 
L 2906 616 
Q 2728 306 2450 153 
Q 2172 0 1784 0 
Q 1141 0 747 490 
Q 353 981 353 1791 
Q 353 2603 747 3093 
Q 1141 3584 1784 3584 
Q 2172 3584 2450 3431 
Q 2728 3278 2906 2969 
L 2906 3500 
L 3481 3500 
L 3481 434 
z
" transform="scale(0.015625)"/>
      <path id="DejaVuSans-2f" d="M 1625 4666 
L 2156 4666 
L 531 -594 
L 0 -594 
L 1625 4666 
z
" transform="scale(0.015625)"/>
     </defs>
     <use xlink:href="#DejaVuSans-56"/>
     <use xlink:href="#DejaVuSans-69" x="66.158203"/>
     <use xlink:href="#DejaVuSans-6f" x="93.941406"/>
     <use xlink:href="#DejaVuSans-6c" x="155.123047"/>
     <use xlink:href="#DejaVuSans-69" x="182.90625"/>
     <use xlink:href="#DejaVuSans-6e" x="210.689453"/>
     <use xlink:href="#DejaVuSans-70" x="274.068359"/>
     <use xlink:href="#DejaVuSans-6c" x="337.544922"/>
     <use xlink:href="#DejaVuSans-6f" x="365.328125"/>
     <use xlink:href="#DejaVuSans-74" x="426.509766"/>
     <use xlink:href="#DejaVuSans-20" x="465.71875"/>
     <use xlink:href="#DejaVuSans-66" x="497.505859"/>
     <use xlink:href="#DejaVuSans-6f" x="532.710938"/>
     <use xlink:href="#DejaVuSans-72" x="593.892578"/>
     <use xlink:href="#DejaVuSans-20" x="635.005859"/>
     <use xlink:href="#DejaVuSans-70" x="666.792969"/>
     <use xlink:href="#DejaVuSans-72" x="730.269531"/>
     <use xlink:href="#DejaVuSans-6f" x="769.132812"/>
     <use xlink:href="#DejaVuSans-67" x="830.314453"/>
     <use xlink:href="#DejaVuSans-72" x="893.791016"/>
     <use xlink:href="#DejaVuSans-65" x="932.654297"/>
     <use xlink:href="#DejaVuSans-73" x="994.177734"/>
     <use xlink:href="#DejaVuSans-73" x="1046.277344"/>
     <use xlink:href="#DejaVuSans-20" x="1098.376953"/>
     <use xlink:href="#DejaVuSans-6f" x="1130.164062"/>
     <use xlink:href="#DejaVuSans-66" x="1191.345703"/>
     <use xlink:href="#DejaVuSans-20" x="1226.550781"/>
     <use xlink:href="#DejaVuSans-61" x="1258.337891"/>
     <use xlink:href="#DejaVuSans-2f" x="1319.617188"/>
     <use xlink:href="#DejaVuSans-72" x="1353.308594"/>
     <use xlink:href="#DejaVuSans-65" x="1392.171875"/>
     <use xlink:href="#DejaVuSans-77" x="1453.695312"/>
     <use xlink:href="#DejaVuSans-61" x="1535.482422"/>
     <use xlink:href="#DejaVuSans-72" x="1596.761719"/>
     <use xlink:href="#DejaVuSans-64" x="1636.125"/>
    </g>
   </g>
  </g>
 </g>
 <defs>
  <clipPath id="pcc773eb1d5">
   <rect x="57.6" y="41.472" width="357.12" height="266.112"/>
  </clipPath>
 </defs>
</svg>
