<?xml version="1.0" encoding="utf-8" standalone="no"?>
<!DOCTYPE svg PUBLIC "-//W3C//DTD SVG 1.1//EN"
  "http://www.w3.org/Graphics/SVG/1.1/DTD/svg11.dtd">
<svg xmlns:xlink="http://www.w3.org/1999/xlink" width="460.8pt" height="345.6pt" viewBox="0 0 460.8 345.6" xmlns="http://www.w3.org/2000/svg" version="1.1">
 <metadata>
  <rdf:RDF xmlns:dc="http://purl.org/dc/elements/1.1/" xmlns:cc="http://creativecommons.org/ns#" xmlns:rdf="http://www.w3.org/1999/02/22-rdf-syntax-ns#">
   <cc:Work>
    <dc:type rdf:resource="http://purl.org/dc/dcmitype/StillImage"/>
    <dc:date>2022-06-21T09:14:49.410896</dc:date>
    <dc:format>image/svg+xml</dc:format>
    <dc:creator>
     <cc:Agent>
      <dc:title>Matplotlib v3.5.2, https://matplotlib.org/</dc:title>
     </cc:Agent>
    </dc:creator>
   </cc:Work>
  </rdf:RDF>
 </metadata>
 <defs>
  <style type="text/css">*{stroke-linejoin: round; stroke-linecap: butt}</style>
 </defs>
 <g id="figure_1">
  <g id="patch_1">
   <path d="M 0 345.6 
L 460.8 345.6 
L 460.8 0 
L 0 0 
z
" style="fill: #ffffff"/>
  </g>
  <g id="axes_1">
   <g id="patch_2">
    <path d="M 57.6 307.584 
L 414.72 307.584 
L 414.72 41.472 
L 57.6 41.472 
z
" style="fill: #ffffff"/>
   </g>
   <g id="PolyCollection_1">
    <path d="M 108.887602 184.264983 
L 107.126178 184.264983 
L 106.904869 182.944811 
L 106.651786 181.624639 
L 106.36898 180.304468 
L 106.059611 178.984296 
L 105.727029 177.664125 
L 105.373554 176.343953 
L 104.99927 175.023782 
L 104.601151 173.70361 
L 104.172827 172.383439 
L 103.705066 171.063267 
L 103.186912 169.743096 
L 102.607205 168.422924 
L 101.956111 167.102752 
L 101.226322 165.782581 
L 100.413684 164.462409 
L 99.517141 163.142238 
L 98.538103 161.822066 
L 97.479422 160.501895 
L 96.34427 159.181723 
L 95.135217 157.861552 
L 93.85377 156.54138 
L 92.500529 155.221209 
L 91.076048 153.901037 
L 89.582312 152.580866 
L 88.024652 151.260694 
L 86.413769 149.940522 
L 84.767464 148.620351 
L 83.111654 147.300179 
L 81.480255 145.980008 
L 79.913688 144.659836 
L 78.455945 143.339665 
L 77.150465 142.019493 
L 76.035371 140.699322 
L 75.138923 139.37915 
L 74.476175 138.058979 
L 74.047675 136.738807 
L 73.840686 135.418636 
L 73.832727 134.098464 
L 73.99659 132.778292 
L 74.305463 131.458121 
L 74.736779 130.137949 
L 75.273774 128.817778 
L 75.904562 127.497606 
L 76.619378 126.177435 
L 77.407256 124.857263 
L 78.253542 123.537092 
L 79.13931 122.21692 
L 80.043005 120.896749 
L 80.94391 119.576577 
L 81.826434 118.256405 
L 82.683994 116.936234 
L 83.52136 115.616062 
L 84.354713 114.295891 
L 85.209201 112.975719 
L 86.114343 111.655548 
L 87.098149 110.335376 
L 88.181126 109.015205 
L 89.371468 107.695033 
L 90.662442 106.374862 
L 92.032519 105.05469 
L 93.448165 103.734519 
L 94.868583 102.414347 
L 96.251337 101.094175 
L 97.557686 99.774004 
L 98.756679 98.453832 
L 99.827483 97.133661 
L 100.759901 95.813489 
L 101.553411 94.493318 
L 102.215282 93.173146 
L 102.758339 91.852975 
L 103.198783 90.532803 
L 103.554294 89.212632 
L 103.84247 87.89246 
L 104.079554 86.572289 
L 104.279457 85.252117 
L 104.453109 83.931945 
L 104.608228 82.611774 
L 104.749557 81.291602 
L 104.879518 79.971431 
L 104.999127 78.651259 
L 105.108906 77.331088 
L 105.209562 76.010916 
L 105.302282 74.690745 
L 105.388639 73.370573 
L 105.470228 72.050402 
L 105.548239 70.73023 
L 105.623144 69.410058 
L 105.694643 68.089887 
L 105.76192 66.769715 
L 105.824167 65.449544 
L 105.881268 64.129372 
L 105.934454 62.809201 
L 105.986738 61.489029 
L 106.042915 60.168858 
L 106.109039 58.848686 
L 106.19138 57.528515 
L 106.295086 56.208343 
L 106.422858 54.888172 
L 106.574019 53.568 
L 109.43976 53.568 
L 109.43976 53.568 
L 109.590922 54.888172 
L 109.718694 56.208343 
L 109.8224 57.528515 
L 109.904741 58.848686 
L 109.970865 60.168858 
L 110.027042 61.489029 
L 110.079326 62.809201 
L 110.132512 64.129372 
L 110.189613 65.449544 
L 110.25186 66.769715 
L 110.319137 68.089887 
L 110.390636 69.410058 
L 110.46554 70.73023 
L 110.543552 72.050402 
L 110.625141 73.370573 
L 110.711498 74.690745 
L 110.804218 76.010916 
L 110.904874 77.331088 
L 111.014653 78.651259 
L 111.134262 79.971431 
L 111.264223 81.291602 
L 111.405552 82.611774 
L 111.560671 83.931945 
L 111.734323 85.252117 
L 111.934226 86.572289 
L 112.17131 87.89246 
L 112.459485 89.212632 
L 112.814997 90.532803 
L 113.255441 91.852975 
L 113.798497 93.173146 
L 114.460369 94.493318 
L 115.253878 95.813489 
L 116.186297 97.133661 
L 117.257101 98.453832 
L 118.456094 99.774004 
L 119.762443 101.094175 
L 121.145197 102.414347 
L 122.565615 103.734519 
L 123.981261 105.05469 
L 125.351338 106.374862 
L 126.642312 107.695033 
L 127.832654 109.015205 
L 128.915631 110.335376 
L 129.899436 111.655548 
L 130.804579 112.975719 
L 131.659067 114.295891 
L 132.492419 115.616062 
L 133.329786 116.936234 
L 134.187346 118.256405 
L 135.06987 119.576577 
L 135.970775 120.896749 
L 136.87447 122.21692 
L 137.760238 123.537092 
L 138.606524 124.857263 
L 139.394401 126.177435 
L 140.109218 127.497606 
L 140.740006 128.817778 
L 141.277 130.137949 
L 141.708317 131.458121 
L 142.01719 132.778292 
L 142.181053 134.098464 
L 142.173094 135.418636 
L 141.966105 136.738807 
L 141.537605 138.058979 
L 140.874857 139.37915 
L 139.978409 140.699322 
L 138.863314 142.019493 
L 137.557835 143.339665 
L 136.100092 144.659836 
L 134.533525 145.980008 
L 132.902126 147.300179 
L 131.246316 148.620351 
L 129.600011 149.940522 
L 127.989128 151.260694 
L 126.431468 152.580866 
L 124.937732 153.901037 
L 123.513251 155.221209 
L 122.16001 156.54138 
L 120.878563 157.861552 
L 119.66951 159.181723 
L 118.534357 160.501895 
L 117.475676 161.822066 
L 116.496639 163.142238 
L 115.600096 164.462409 
L 114.787457 165.782581 
L 114.057669 167.102752 
L 113.406575 168.422924 
L 112.826868 169.743096 
L 112.308714 171.063267 
L 111.840952 172.383439 
L 111.412628 173.70361 
L 111.01451 175.023782 
L 110.640225 176.343953 
L 110.286751 177.664125 
L 109.954169 178.984296 
L 109.6448 180.304468 
L 109.361994 181.624639 
L 109.108911 182.944811 
L 108.887602 184.264983 
z
" clip-path="url(#pc835420c39)" style="fill: #1f77b4; fill-opacity: 0.3"/>
   </g>
   <g id="PolyCollection_2">
    <path d="M 195.476357 286.165489 
L 191.408236 286.165489 
L 191.145635 284.666604 
L 190.885477 283.167719 
L 190.62617 281.668834 
L 190.361975 280.16995 
L 190.082823 278.671065 
L 189.774584 277.17218 
L 189.419781 275.673296 
L 188.998682 274.174411 
L 188.490701 272.675526 
L 187.875963 271.176642 
L 187.136913 269.677757 
L 186.259801 268.178872 
L 185.235901 266.679988 
L 184.062352 265.181103 
L 182.742542 263.682218 
L 181.286061 262.183333 
L 179.70826 260.684449 
L 178.029552 259.185564 
L 176.274577 257.686679 
L 174.471352 256.187795 
L 172.650472 254.68891 
L 170.844349 253.190025 
L 169.086424 251.691141 
L 167.410214 250.192256 
L 165.848096 248.693371 
L 164.429763 247.194486 
L 163.180415 245.695602 
L 162.118858 244.196717 
L 161.255742 242.697832 
L 160.592255 241.198948 
L 160.119509 239.700063 
L 159.818803 238.201178 
L 159.662846 236.702294 
L 159.6179 235.203409 
L 159.6467 233.704524 
L 159.711895 232.20564 
L 159.779663 230.706755 
L 159.823052 229.20787 
L 159.824599 227.708985 
L 159.777819 226.210101 
L 159.687328 224.711216 
L 159.567563 223.212331 
L 159.440338 221.713447 
L 159.331635 220.214562 
L 159.268134 218.715677 
L 159.273936 217.216793 
L 159.367828 215.717908 
L 159.561255 214.219023 
L 159.857047 212.720138 
L 160.248877 211.221254 
L 160.72142 209.722369 
L 161.251221 208.223484 
L 161.808306 206.7246 
L 162.358562 205.225715 
L 162.866848 203.72683 
L 163.300683 202.227946 
L 163.634231 200.729061 
L 163.85218 199.230176 
L 163.953002 197.731291 
L 163.951064 196.232407 
L 163.877086 194.733522 
L 163.776596 193.234637 
L 163.706266 191.735753 
L 163.728368 190.236868 
L 163.903927 188.737983 
L 164.285475 187.239099 
L 164.910491 185.740214 
L 165.79656 184.241329 
L 166.93906 182.742445 
L 168.311735 181.24356 
L 169.870051 179.744675 
L 171.556712 178.24579 
L 173.308424 176.746906 
L 175.062848 175.248021 
L 176.764725 173.749136 
L 178.370426 172.250252 
L 179.850474 170.751367 
L 181.189986 169.252482 
L 182.387272 167.753598 
L 183.451103 166.254713 
L 184.397254 164.755828 
L 185.244938 163.256943 
L 186.013653 161.758059 
L 186.720749 160.259174 
L 187.379892 158.760289 
L 188.000371 157.261405 
L 188.587141 155.76252 
L 189.141414 154.263635 
L 189.661608 152.764751 
L 190.144487 151.265866 
L 190.586343 149.766981 
L 190.984077 148.268097 
L 191.336046 146.769212 
L 191.642572 145.270327 
L 191.906053 143.771442 
L 192.130692 142.272558 
L 192.321903 140.773673 
L 192.485569 139.274788 
L 192.627284 137.775904 
L 194.25731 137.775904 
L 194.25731 137.775904 
L 194.399024 139.274788 
L 194.56269 140.773673 
L 194.753902 142.272558 
L 194.97854 143.771442 
L 195.242022 145.270327 
L 195.548547 146.769212 
L 195.900516 148.268097 
L 196.29825 149.766981 
L 196.740106 151.265866 
L 197.222985 152.764751 
L 197.743179 154.263635 
L 198.297452 155.76252 
L 198.884223 157.261405 
L 199.504701 158.760289 
L 200.163844 160.259174 
L 200.870941 161.758059 
L 201.639655 163.256943 
L 202.48734 164.755828 
L 203.43349 166.254713 
L 204.497321 167.753598 
L 205.694607 169.252482 
L 207.034119 170.751367 
L 208.514168 172.250252 
L 210.119868 173.749136 
L 211.821746 175.248021 
L 213.57617 176.746906 
L 215.327882 178.24579 
L 217.014542 179.744675 
L 218.572858 181.24356 
L 219.945534 182.742445 
L 221.088033 184.241329 
L 221.974103 185.740214 
L 222.599119 187.239099 
L 222.980667 188.737983 
L 223.156225 190.236868 
L 223.178328 191.735753 
L 223.107998 193.234637 
L 223.007507 194.733522 
L 222.933529 196.232407 
L 222.931591 197.731291 
L 223.032413 199.230176 
L 223.250362 200.729061 
L 223.58391 202.227946 
L 224.017745 203.72683 
L 224.526031 205.225715 
L 225.076287 206.7246 
L 225.633372 208.223484 
L 226.163173 209.722369 
L 226.635717 211.221254 
L 227.027547 212.720138 
L 227.323338 214.219023 
L 227.516765 215.717908 
L 227.610657 217.216793 
L 227.616459 218.715677 
L 227.552958 220.214562 
L 227.444255 221.713447 
L 227.31703 223.212331 
L 227.197265 224.711216 
L 227.106774 226.210101 
L 227.059995 227.708985 
L 227.061541 229.20787 
L 227.10493 230.706755 
L 227.172698 232.20564 
L 227.237893 233.704524 
L 227.266693 235.203409 
L 227.221747 236.702294 
L 227.065791 238.201178 
L 226.765084 239.700063 
L 226.292338 241.198948 
L 225.628852 242.697832 
L 224.765735 244.196717 
L 223.704178 245.695602 
L 222.454831 247.194486 
L 221.036497 248.693371 
L 219.474379 250.192256 
L 217.79817 251.691141 
L 216.040245 253.190025 
L 214.234122 254.68891 
L 212.413241 256.187795 
L 210.610016 257.686679 
L 208.855041 259.185564 
L 207.176333 260.684449 
L 205.598532 262.183333 
L 204.142051 263.682218 
L 202.822242 265.181103 
L 201.648692 266.679988 
L 200.624793 268.178872 
L 199.74768 269.677757 
L 199.00863 271.176642 
L 198.393892 272.675526 
L 197.885911 274.174411 
L 197.464813 275.673296 
L 197.110009 277.17218 
L 196.80177 278.671065 
L 196.522618 280.16995 
L 196.258424 281.668834 
L 195.999117 283.167719 
L 195.738959 284.666604 
L 195.476357 286.165489 
z
" clip-path="url(#pc835420c39)" style="fill: #1f77b4; fill-opacity: 0.3"/>
   </g>
   <g id="PolyCollection_3">
    <path d="M 282.809637 295.488 
L 274.94577 295.488 
L 273.857853 293.146772 
L 272.693764 290.805544 
L 271.495477 288.464315 
L 270.29356 286.123087 
L 269.097034 283.781859 
L 267.88915 281.440631 
L 266.631501 279.099403 
L 265.27615 276.758175 
L 263.782536 274.416946 
L 262.134048 272.075718 
L 260.349002 269.73449 
L 258.482335 267.393262 
L 256.617002 265.052034 
L 254.846999 262.710806 
L 253.256373 260.369577 
L 251.89998 258.028349 
L 250.791643 255.687121 
L 249.903487 253.345893 
L 249.176852 251.004665 
L 248.541354 248.663437 
L 247.935857 246.322208 
L 247.324668 243.98098 
L 246.704326 241.639752 
L 246.100148 239.298524 
L 245.555299 236.957296 
L 245.117103 234.616068 
L 244.825118 232.274839 
L 244.703541 229.933611 
L 244.758328 227.592383 
L 244.977865 225.251155 
L 245.335654 222.909927 
L 245.793982 220.568699 
L 246.308282 218.22747 
L 246.832524 215.886242 
L 247.326089 213.545014 
L 247.761975 211.203786 
L 248.13488 208.862558 
L 248.466264 206.52133 
L 248.803065 204.180101 
L 249.208373 201.838873 
L 249.745902 199.497645 
L 250.463694 197.156417 
L 251.383808 194.815189 
L 252.502277 192.473961 
L 253.798553 190.132732 
L 255.248796 187.791504 
L 256.835698 185.450276 
L 258.549886 183.109048 
L 260.382813 180.76782 
L 262.315661 178.426592 
L 264.310696 176.085363 
L 266.310161 173.744135 
L 268.244002 171.402907 
L 270.043542 169.061679 
L 271.655615 166.720451 
L 273.051721 164.379223 
L 274.229318 162.037994 
L 275.205916 159.696766 
L 276.009406 157.355538 
L 276.668836 155.01431 
L 277.208579 152.673082 
L 277.646654 150.331854 
L 277.99609 147.990625 
L 278.267437 145.649397 
L 278.470854 143.308169 
L 278.617013 140.966941 
L 278.7169 138.625713 
L 278.78096 136.284485 
L 278.81817 133.943256 
L 278.83539 131.602028 
L 278.837214 129.2608 
L 278.826336 126.919572 
L 278.804359 124.578344 
L 278.77284 122.237116 
L 278.734289 119.895887 
L 278.692771 117.554659 
L 278.653813 115.213431 
L 278.623534 112.872203 
L 278.607234 110.530975 
L 278.607945 108.189747 
L 278.625537 105.848518 
L 278.656767 103.50729 
L 278.696247 101.166062 
L 278.737933 98.824834 
L 278.776556 96.483606 
L 278.808516 94.142378 
L 278.832036 91.801149 
L 278.846717 89.459921 
L 278.852814 87.118693 
L 278.850565 84.777465 
L 278.839873 82.436237 
L 278.820423 80.095009 
L 278.792221 77.75378 
L 278.756327 75.412552 
L 278.715483 73.071324 
L 278.674257 70.730096 
L 278.638489 68.388868 
L 278.614066 66.04764 
L 278.605382 63.706411 
L 279.150024 63.706411 
L 279.150024 63.706411 
L 279.141341 66.04764 
L 279.116917 68.388868 
L 279.08115 70.730096 
L 279.039924 73.071324 
L 278.99908 75.412552 
L 278.963186 77.75378 
L 278.934984 80.095009 
L 278.915534 82.436237 
L 278.904842 84.777465 
L 278.902593 87.118693 
L 278.908689 89.459921 
L 278.923371 91.801149 
L 278.94689 94.142378 
L 278.97885 96.483606 
L 279.017474 98.824834 
L 279.05916 101.166062 
L 279.098639 103.50729 
L 279.12987 105.848518 
L 279.147462 108.189747 
L 279.148172 110.530975 
L 279.131873 112.872203 
L 279.101594 115.213431 
L 279.062636 117.554659 
L 279.021118 119.895887 
L 278.982567 122.237116 
L 278.951048 124.578344 
L 278.929071 126.919572 
L 278.918193 129.2608 
L 278.920016 131.602028 
L 278.937236 133.943256 
L 278.974447 136.284485 
L 279.038507 138.625713 
L 279.138393 140.966941 
L 279.284553 143.308169 
L 279.487969 145.649397 
L 279.759317 147.990625 
L 280.108752 150.331854 
L 280.546827 152.673082 
L 281.08657 155.01431 
L 281.746001 157.355538 
L 282.549491 159.696766 
L 283.526088 162.037994 
L 284.703686 164.379223 
L 286.099792 166.720451 
L 287.711864 169.061679 
L 289.511405 171.402907 
L 291.445245 173.744135 
L 293.444711 176.085363 
L 295.439746 178.426592 
L 297.372594 180.76782 
L 299.205521 183.109048 
L 300.919709 185.450276 
L 302.506611 187.791504 
L 303.956854 190.132732 
L 305.25313 192.473961 
L 306.371599 194.815189 
L 307.291713 197.156417 
L 308.009505 199.497645 
L 308.547033 201.838873 
L 308.952342 204.180101 
L 309.289142 206.52133 
L 309.620527 208.862558 
L 309.993432 211.203786 
L 310.429317 213.545014 
L 310.922882 215.886242 
L 311.447125 218.22747 
L 311.961425 220.568699 
L 312.419753 222.909927 
L 312.777542 225.251155 
L 312.997078 227.592383 
L 313.051866 229.933611 
L 312.930289 232.274839 
L 312.638303 234.616068 
L 312.200108 236.957296 
L 311.655258 239.298524 
L 311.051081 241.639752 
L 310.430738 243.98098 
L 309.819549 246.322208 
L 309.214053 248.663437 
L 308.578554 251.004665 
L 307.85192 253.345893 
L 306.963764 255.687121 
L 305.855427 258.028349 
L 304.499033 260.369577 
L 302.908408 262.710806 
L 301.138405 265.052034 
L 299.273071 267.393262 
L 297.406404 269.73449 
L 295.621359 272.075718 
L 293.972871 274.416946 
L 292.479257 276.758175 
L 291.123906 279.099403 
L 289.866257 281.440631 
L 288.658373 283.781859 
L 287.461846 286.123087 
L 286.25993 288.464315 
L 285.061643 290.805544 
L 283.897554 293.146772 
L 282.809637 295.488 
z
" clip-path="url(#pc835420c39)" style="fill: #1f77b4; fill-opacity: 0.3"/>
   </g>
   <g id="PolyCollection_4">
    <path d="M 367.719098 254.057271 
L 360.907122 254.057271 
L 360.22422 252.633389 
L 359.454351 251.209506 
L 358.595853 249.785624 
L 357.649145 248.361742 
L 356.617184 246.937859 
L 355.505853 245.513977 
L 354.32419 244.090094 
L 353.084394 242.666212 
L 351.801551 241.24233 
L 350.493073 239.818447 
L 349.177853 238.394565 
L 347.875208 236.970682 
L 346.603697 235.5468 
L 345.379902 234.122918 
L 344.217305 232.699035 
L 343.125369 231.275153 
L 342.108918 229.85127 
L 341.167909 228.427388 
L 340.297655 227.003506 
L 339.489516 225.579623 
L 338.732023 224.155741 
L 338.012359 222.731858 
L 337.318023 221.307976 
L 336.638493 219.884094 
L 335.966648 218.460211 
L 335.299736 217.036329 
L 334.63972 215.612446 
L 333.992931 214.188564 
L 333.369071 212.764682 
L 332.779726 211.340799 
L 332.236642 209.916917 
L 331.750057 208.493034 
L 331.327399 207.069152 
L 330.972544 205.64527 
L 330.68577 204.221387 
L 330.464357 202.797505 
L 330.303685 201.373622 
L 330.198573 199.94974 
L 330.144571 198.525858 
L 330.138947 197.101975 
L 330.181165 195.678093 
L 330.272805 194.25421 
L 330.41695 192.830328 
L 330.617211 191.406446 
L 330.876573 189.982563 
L 331.19631 188.558681 
L 331.575161 187.134798 
L 332.008891 185.710916 
L 332.490333 184.287034 
L 333.00987 182.863151 
L 333.556309 181.439269 
L 334.118014 180.015386 
L 334.684146 178.591504 
L 335.245847 177.167622 
L 335.797186 175.743739 
L 336.335738 174.319857 
L 336.862684 172.895974 
L 337.38239 171.472092 
L 337.901511 170.04821 
L 338.427723 168.624327 
L 338.96828 167.200445 
L 339.528618 165.776562 
L 340.111236 164.35268 
L 340.715048 162.928798 
L 341.335327 161.504915 
L 341.964267 160.081033 
L 342.592076 158.65715 
L 343.20844 157.233268 
L 343.804119 155.809386 
L 344.372443 154.385503 
L 344.910465 152.961621 
L 345.419597 151.537738 
L 345.905638 150.113856 
L 346.378177 148.689974 
L 346.849458 147.266091 
L 347.332854 145.842209 
L 347.841174 144.418326 
L 348.385031 142.994444 
L 348.9715 141.570562 
L 349.60326 140.146679 
L 350.278324 138.722797 
L 350.99039 137.298914 
L 351.729746 135.875032 
L 352.484564 134.45115 
L 353.242388 133.027267 
L 353.991567 131.603385 
L 354.722434 130.179502 
L 355.428068 128.75562 
L 356.104566 127.331738 
L 356.750835 125.907855 
L 357.36799 124.483973 
L 357.958522 123.06009 
L 358.525382 121.636208 
L 359.071155 120.212326 
L 359.597447 118.788443 
L 360.104537 117.364561 
L 360.59133 115.940678 
L 361.055551 114.516796 
L 361.494122 113.092914 
L 367.132098 113.092914 
L 367.132098 113.092914 
L 367.570669 114.516796 
L 368.03489 115.940678 
L 368.521683 117.364561 
L 369.028773 118.788443 
L 369.555065 120.212326 
L 370.100838 121.636208 
L 370.667698 123.06009 
L 371.25823 124.483973 
L 371.875386 125.907855 
L 372.521654 127.331738 
L 373.198152 128.75562 
L 373.903786 130.179502 
L 374.634653 131.603385 
L 375.383832 133.027267 
L 376.141656 134.45115 
L 376.896474 135.875032 
L 377.63583 137.298914 
L 378.347896 138.722797 
L 379.02296 140.146679 
L 379.65472 141.570562 
L 380.241189 142.994444 
L 380.785046 144.418326 
L 381.293366 145.842209 
L 381.776762 147.266091 
L 382.248043 148.689974 
L 382.720582 150.113856 
L 383.206623 151.537738 
L 383.715755 152.961621 
L 384.253777 154.385503 
L 384.822101 155.809386 
L 385.41778 157.233268 
L 386.034144 158.65715 
L 386.661953 160.081033 
L 387.290893 161.504915 
L 387.911172 162.928798 
L 388.514984 164.35268 
L 389.097602 165.776562 
L 389.65794 167.200445 
L 390.198497 168.624327 
L 390.724709 170.04821 
L 391.24383 171.472092 
L 391.763536 172.895974 
L 392.290482 174.319857 
L 392.829034 175.743739 
L 393.380373 177.167622 
L 393.942074 178.591504 
L 394.508206 180.015386 
L 395.069911 181.439269 
L 395.61635 182.863151 
L 396.135887 184.287034 
L 396.617329 185.710916 
L 397.051059 187.134798 
L 397.42991 188.558681 
L 397.749648 189.982563 
L 398.009009 191.406446 
L 398.20927 192.830328 
L 398.353416 194.25421 
L 398.445055 195.678093 
L 398.487273 197.101975 
L 398.481649 198.525858 
L 398.427648 199.94974 
L 398.322535 201.373622 
L 398.161863 202.797505 
L 397.94045 204.221387 
L 397.653676 205.64527 
L 397.298821 207.069152 
L 396.876163 208.493034 
L 396.389579 209.916917 
L 395.846494 211.340799 
L 395.257149 212.764682 
L 394.633289 214.188564 
L 393.9865 215.612446 
L 393.326484 217.036329 
L 392.659572 218.460211 
L 391.987728 219.884094 
L 391.308197 221.307976 
L 390.613861 222.731858 
L 389.894197 224.155741 
L 389.136705 225.579623 
L 388.328565 227.003506 
L 387.458311 228.427388 
L 386.517302 229.85127 
L 385.500851 231.275153 
L 384.408915 232.699035 
L 383.246318 234.122918 
L 382.022523 235.5468 
L 380.751012 236.970682 
L 379.448367 238.394565 
L 378.133147 239.818447 
L 376.824669 241.24233 
L 375.541827 242.666212 
L 374.30203 244.090094 
L 373.120367 245.513977 
L 372.009036 246.937859 
L 370.977075 248.361742 
L 370.030367 249.785624 
L 369.171869 251.209506 
L 368.402 252.633389 
L 367.719098 254.057271 
z
" clip-path="url(#pc835420c39)" style="fill: #1f77b4; fill-opacity: 0.3"/>
   </g>
   <g id="matplotlib.axis_1">
    <g id="xtick_1">
     <g id="line2d_1">
      <path d="M 65.289187 307.584 
L 65.289187 41.472 
" clip-path="url(#pc835420c39)" style="fill: none; stroke-dasharray: 2.96,1.28; stroke-dashoffset: 0; stroke: #b0b0b0; stroke-width: 0.8"/>
     </g>
     <g id="line2d_2">
      <defs>
       <path id="mff4d9faee2" d="M 0 0 
L 0 3.5 
" style="stroke: #000000; stroke-width: 0.8"/>
      </defs>
      <g>
       <use xlink:href="#mff4d9faee2" x="65.289187" y="307.584" style="stroke: #000000; stroke-width: 0.8"/>
      </g>
     </g>
     <g id="text_1">
      <!-- 250 -->
      <g transform="translate(55.745437 322.182437)scale(0.1 -0.1)">
       <defs>
        <path id="DejaVuSans-32" d="M 1228 531 
L 3431 531 
L 3431 0 
L 469 0 
L 469 531 
Q 828 903 1448 1529 
Q 2069 2156 2228 2338 
Q 2531 2678 2651 2914 
Q 2772 3150 2772 3378 
Q 2772 3750 2511 3984 
Q 2250 4219 1831 4219 
Q 1534 4219 1204 4116 
Q 875 4013 500 3803 
L 500 4441 
Q 881 4594 1212 4672 
Q 1544 4750 1819 4750 
Q 2544 4750 2975 4387 
Q 3406 4025 3406 3419 
Q 3406 3131 3298 2873 
Q 3191 2616 2906 2266 
Q 2828 2175 2409 1742 
Q 1991 1309 1228 531 
z
" transform="scale(0.015625)"/>
        <path id="DejaVuSans-35" d="M 691 4666 
L 3169 4666 
L 3169 4134 
L 1269 4134 
L 1269 2991 
Q 1406 3038 1543 3061 
Q 1681 3084 1819 3084 
Q 2600 3084 3056 2656 
Q 3513 2228 3513 1497 
Q 3513 744 3044 326 
Q 2575 -91 1722 -91 
Q 1428 -91 1123 -41 
Q 819 9 494 109 
L 494 744 
Q 775 591 1075 516 
Q 1375 441 1709 441 
Q 2250 441 2565 725 
Q 2881 1009 2881 1497 
Q 2881 1984 2565 2268 
Q 2250 2553 1709 2553 
Q 1456 2553 1204 2497 
Q 953 2441 691 2322 
L 691 4666 
z
" transform="scale(0.015625)"/>
        <path id="DejaVuSans-30" d="M 2034 4250 
Q 1547 4250 1301 3770 
Q 1056 3291 1056 2328 
Q 1056 1369 1301 889 
Q 1547 409 2034 409 
Q 2525 409 2770 889 
Q 3016 1369 3016 2328 
Q 3016 3291 2770 3770 
Q 2525 4250 2034 4250 
z
M 2034 4750 
Q 2819 4750 3233 4129 
Q 3647 3509 3647 2328 
Q 3647 1150 3233 529 
Q 2819 -91 2034 -91 
Q 1250 -91 836 529 
Q 422 1150 422 2328 
Q 422 3509 836 4129 
Q 1250 4750 2034 4750 
z
" transform="scale(0.015625)"/>
       </defs>
       <use xlink:href="#DejaVuSans-32"/>
       <use xlink:href="#DejaVuSans-35" x="63.623047"/>
       <use xlink:href="#DejaVuSans-30" x="127.246094"/>
      </g>
     </g>
    </g>
    <g id="xtick_2">
     <g id="line2d_3">
      <path d="M 108.00689 307.584 
L 108.00689 41.472 
" clip-path="url(#pc835420c39)" style="fill: none; stroke-dasharray: 2.96,1.28; stroke-dashoffset: 0; stroke: #b0b0b0; stroke-width: 0.8"/>
     </g>
     <g id="line2d_4">
      <g>
       <use xlink:href="#mff4d9faee2" x="108.00689" y="307.584" style="stroke: #000000; stroke-width: 0.8"/>
      </g>
     </g>
     <g id="text_2">
      <!-- 500 -->
      <g transform="translate(98.46314 322.182437)scale(0.1 -0.1)">
       <use xlink:href="#DejaVuSans-35"/>
       <use xlink:href="#DejaVuSans-30" x="63.623047"/>
       <use xlink:href="#DejaVuSans-30" x="127.246094"/>
      </g>
     </g>
    </g>
    <g id="xtick_3">
     <g id="line2d_5">
      <path d="M 150.724593 307.584 
L 150.724593 41.472 
" clip-path="url(#pc835420c39)" style="fill: none; stroke-dasharray: 2.96,1.28; stroke-dashoffset: 0; stroke: #b0b0b0; stroke-width: 0.8"/>
     </g>
     <g id="line2d_6">
      <g>
       <use xlink:href="#mff4d9faee2" x="150.724593" y="307.584" style="stroke: #000000; stroke-width: 0.8"/>
      </g>
     </g>
     <g id="text_3">
      <!-- 750 -->
      <g transform="translate(141.180843 322.182437)scale(0.1 -0.1)">
       <defs>
        <path id="DejaVuSans-37" d="M 525 4666 
L 3525 4666 
L 3525 4397 
L 1831 0 
L 1172 0 
L 2766 4134 
L 525 4134 
L 525 4666 
z
" transform="scale(0.015625)"/>
       </defs>
       <use xlink:href="#DejaVuSans-37"/>
       <use xlink:href="#DejaVuSans-35" x="63.623047"/>
       <use xlink:href="#DejaVuSans-30" x="127.246094"/>
      </g>
     </g>
    </g>
    <g id="xtick_4">
     <g id="line2d_7">
      <path d="M 193.442297 307.584 
L 193.442297 41.472 
" clip-path="url(#pc835420c39)" style="fill: none; stroke-dasharray: 2.96,1.28; stroke-dashoffset: 0; stroke: #b0b0b0; stroke-width: 0.8"/>
     </g>
     <g id="line2d_8">
      <g>
       <use xlink:href="#mff4d9faee2" x="193.442297" y="307.584" style="stroke: #000000; stroke-width: 0.8"/>
      </g>
     </g>
     <g id="text_4">
      <!-- 1000 -->
      <g transform="translate(180.717297 322.182437)scale(0.1 -0.1)">
       <defs>
        <path id="DejaVuSans-31" d="M 794 531 
L 1825 531 
L 1825 4091 
L 703 3866 
L 703 4441 
L 1819 4666 
L 2450 4666 
L 2450 531 
L 3481 531 
L 3481 0 
L 794 0 
L 794 531 
z
" transform="scale(0.015625)"/>
       </defs>
       <use xlink:href="#DejaVuSans-31"/>
       <use xlink:href="#DejaVuSans-30" x="63.623047"/>
       <use xlink:href="#DejaVuSans-30" x="127.246094"/>
       <use xlink:href="#DejaVuSans-30" x="190.869141"/>
      </g>
     </g>
    </g>
    <g id="xtick_5">
     <g id="line2d_9">
      <path d="M 236.16 307.584 
L 236.16 41.472 
" clip-path="url(#pc835420c39)" style="fill: none; stroke-dasharray: 2.96,1.28; stroke-dashoffset: 0; stroke: #b0b0b0; stroke-width: 0.8"/>
     </g>
     <g id="line2d_10">
      <g>
       <use xlink:href="#mff4d9faee2" x="236.16" y="307.584" style="stroke: #000000; stroke-width: 0.8"/>
      </g>
     </g>
     <g id="text_5">
      <!-- 1250 -->
      <g transform="translate(223.435 322.182437)scale(0.1 -0.1)">
       <use xlink:href="#DejaVuSans-31"/>
       <use xlink:href="#DejaVuSans-32" x="63.623047"/>
       <use xlink:href="#DejaVuSans-35" x="127.246094"/>
       <use xlink:href="#DejaVuSans-30" x="190.869141"/>
      </g>
     </g>
    </g>
    <g id="xtick_6">
     <g id="line2d_11">
      <path d="M 278.877703 307.584 
L 278.877703 41.472 
" clip-path="url(#pc835420c39)" style="fill: none; stroke-dasharray: 2.96,1.28; stroke-dashoffset: 0; stroke: #b0b0b0; stroke-width: 0.8"/>
     </g>
     <g id="line2d_12">
      <g>
       <use xlink:href="#mff4d9faee2" x="278.877703" y="307.584" style="stroke: #000000; stroke-width: 0.8"/>
      </g>
     </g>
     <g id="text_6">
      <!-- 1500 -->
      <g transform="translate(266.152703 322.182437)scale(0.1 -0.1)">
       <use xlink:href="#DejaVuSans-31"/>
       <use xlink:href="#DejaVuSans-35" x="63.623047"/>
       <use xlink:href="#DejaVuSans-30" x="127.246094"/>
       <use xlink:href="#DejaVuSans-30" x="190.869141"/>
      </g>
     </g>
    </g>
    <g id="xtick_7">
     <g id="line2d_13">
      <path d="M 321.595407 307.584 
L 321.595407 41.472 
" clip-path="url(#pc835420c39)" style="fill: none; stroke-dasharray: 2.96,1.28; stroke-dashoffset: 0; stroke: #b0b0b0; stroke-width: 0.8"/>
     </g>
     <g id="line2d_14">
      <g>
       <use xlink:href="#mff4d9faee2" x="321.595407" y="307.584" style="stroke: #000000; stroke-width: 0.8"/>
      </g>
     </g>
     <g id="text_7">
      <!-- 1750 -->
      <g transform="translate(308.870407 322.182437)scale(0.1 -0.1)">
       <use xlink:href="#DejaVuSans-31"/>
       <use xlink:href="#DejaVuSans-37" x="63.623047"/>
       <use xlink:href="#DejaVuSans-35" x="127.246094"/>
       <use xlink:href="#DejaVuSans-30" x="190.869141"/>
      </g>
     </g>
    </g>
    <g id="xtick_8">
     <g id="line2d_15">
      <path d="M 364.31311 307.584 
L 364.31311 41.472 
" clip-path="url(#pc835420c39)" style="fill: none; stroke-dasharray: 2.96,1.28; stroke-dashoffset: 0; stroke: #b0b0b0; stroke-width: 0.8"/>
     </g>
     <g id="line2d_16">
      <g>
       <use xlink:href="#mff4d9faee2" x="364.31311" y="307.584" style="stroke: #000000; stroke-width: 0.8"/>
      </g>
     </g>
     <g id="text_8">
      <!-- 2000 -->
      <g transform="translate(351.58811 322.182437)scale(0.1 -0.1)">
       <use xlink:href="#DejaVuSans-32"/>
       <use xlink:href="#DejaVuSans-30" x="63.623047"/>
       <use xlink:href="#DejaVuSans-30" x="127.246094"/>
       <use xlink:href="#DejaVuSans-30" x="190.869141"/>
      </g>
     </g>
    </g>
    <g id="xtick_9">
     <g id="line2d_17">
      <path d="M 407.030813 307.584 
L 407.030813 41.472 
" clip-path="url(#pc835420c39)" style="fill: none; stroke-dasharray: 2.96,1.28; stroke-dashoffset: 0; stroke: #b0b0b0; stroke-width: 0.8"/>
     </g>
     <g id="line2d_18">
      <g>
       <use xlink:href="#mff4d9faee2" x="407.030813" y="307.584" style="stroke: #000000; stroke-width: 0.8"/>
      </g>
     </g>
     <g id="text_9">
      <!-- 2250 -->
      <g transform="translate(394.305813 322.182437)scale(0.1 -0.1)">
       <use xlink:href="#DejaVuSans-32"/>
       <use xlink:href="#DejaVuSans-32" x="63.623047"/>
       <use xlink:href="#DejaVuSans-35" x="127.246094"/>
       <use xlink:href="#DejaVuSans-30" x="190.869141"/>
      </g>
     </g>
    </g>
    <g id="text_10">
     <!-- Learned Episodes -->
     <g transform="translate(192.102187 335.860562)scale(0.1 -0.1)">
      <defs>
       <path id="DejaVuSans-4c" d="M 628 4666 
L 1259 4666 
L 1259 531 
L 3531 531 
L 3531 0 
L 628 0 
L 628 4666 
z
" transform="scale(0.015625)"/>
       <path id="DejaVuSans-65" d="M 3597 1894 
L 3597 1613 
L 953 1613 
Q 991 1019 1311 708 
Q 1631 397 2203 397 
Q 2534 397 2845 478 
Q 3156 559 3463 722 
L 3463 178 
Q 3153 47 2828 -22 
Q 2503 -91 2169 -91 
Q 1331 -91 842 396 
Q 353 884 353 1716 
Q 353 2575 817 3079 
Q 1281 3584 2069 3584 
Q 2775 3584 3186 3129 
Q 3597 2675 3597 1894 
z
M 3022 2063 
Q 3016 2534 2758 2815 
Q 2500 3097 2075 3097 
Q 1594 3097 1305 2825 
Q 1016 2553 972 2059 
L 3022 2063 
z
" transform="scale(0.015625)"/>
       <path id="DejaVuSans-61" d="M 2194 1759 
Q 1497 1759 1228 1600 
Q 959 1441 959 1056 
Q 959 750 1161 570 
Q 1363 391 1709 391 
Q 2188 391 2477 730 
Q 2766 1069 2766 1631 
L 2766 1759 
L 2194 1759 
z
M 3341 1997 
L 3341 0 
L 2766 0 
L 2766 531 
Q 2569 213 2275 61 
Q 1981 -91 1556 -91 
Q 1019 -91 701 211 
Q 384 513 384 1019 
Q 384 1609 779 1909 
Q 1175 2209 1959 2209 
L 2766 2209 
L 2766 2266 
Q 2766 2663 2505 2880 
Q 2244 3097 1772 3097 
Q 1472 3097 1187 3025 
Q 903 2953 641 2809 
L 641 3341 
Q 956 3463 1253 3523 
Q 1550 3584 1831 3584 
Q 2591 3584 2966 3190 
Q 3341 2797 3341 1997 
z
" transform="scale(0.015625)"/>
       <path id="DejaVuSans-72" d="M 2631 2963 
Q 2534 3019 2420 3045 
Q 2306 3072 2169 3072 
Q 1681 3072 1420 2755 
Q 1159 2438 1159 1844 
L 1159 0 
L 581 0 
L 581 3500 
L 1159 3500 
L 1159 2956 
Q 1341 3275 1631 3429 
Q 1922 3584 2338 3584 
Q 2397 3584 2469 3576 
Q 2541 3569 2628 3553 
L 2631 2963 
z
" transform="scale(0.015625)"/>
       <path id="DejaVuSans-6e" d="M 3513 2113 
L 3513 0 
L 2938 0 
L 2938 2094 
Q 2938 2591 2744 2837 
Q 2550 3084 2163 3084 
Q 1697 3084 1428 2787 
Q 1159 2491 1159 1978 
L 1159 0 
L 581 0 
L 581 3500 
L 1159 3500 
L 1159 2956 
Q 1366 3272 1645 3428 
Q 1925 3584 2291 3584 
Q 2894 3584 3203 3211 
Q 3513 2838 3513 2113 
z
" transform="scale(0.015625)"/>
       <path id="DejaVuSans-64" d="M 2906 2969 
L 2906 4863 
L 3481 4863 
L 3481 0 
L 2906 0 
L 2906 525 
Q 2725 213 2448 61 
Q 2172 -91 1784 -91 
Q 1150 -91 751 415 
Q 353 922 353 1747 
Q 353 2572 751 3078 
Q 1150 3584 1784 3584 
Q 2172 3584 2448 3432 
Q 2725 3281 2906 2969 
z
M 947 1747 
Q 947 1113 1208 752 
Q 1469 391 1925 391 
Q 2381 391 2643 752 
Q 2906 1113 2906 1747 
Q 2906 2381 2643 2742 
Q 2381 3103 1925 3103 
Q 1469 3103 1208 2742 
Q 947 2381 947 1747 
z
" transform="scale(0.015625)"/>
       <path id="DejaVuSans-20" transform="scale(0.015625)"/>
       <path id="DejaVuSans-45" d="M 628 4666 
L 3578 4666 
L 3578 4134 
L 1259 4134 
L 1259 2753 
L 3481 2753 
L 3481 2222 
L 1259 2222 
L 1259 531 
L 3634 531 
L 3634 0 
L 628 0 
L 628 4666 
z
" transform="scale(0.015625)"/>
       <path id="DejaVuSans-70" d="M 1159 525 
L 1159 -1331 
L 581 -1331 
L 581 3500 
L 1159 3500 
L 1159 2969 
Q 1341 3281 1617 3432 
Q 1894 3584 2278 3584 
Q 2916 3584 3314 3078 
Q 3713 2572 3713 1747 
Q 3713 922 3314 415 
Q 2916 -91 2278 -91 
Q 1894 -91 1617 61 
Q 1341 213 1159 525 
z
M 3116 1747 
Q 3116 2381 2855 2742 
Q 2594 3103 2138 3103 
Q 1681 3103 1420 2742 
Q 1159 2381 1159 1747 
Q 1159 1113 1420 752 
Q 1681 391 2138 391 
Q 2594 391 2855 752 
Q 3116 1113 3116 1747 
z
" transform="scale(0.015625)"/>
       <path id="DejaVuSans-69" d="M 603 3500 
L 1178 3500 
L 1178 0 
L 603 0 
L 603 3500 
z
M 603 4863 
L 1178 4863 
L 1178 4134 
L 603 4134 
L 603 4863 
z
" transform="scale(0.015625)"/>
       <path id="DejaVuSans-73" d="M 2834 3397 
L 2834 2853 
Q 2591 2978 2328 3040 
Q 2066 3103 1784 3103 
Q 1356 3103 1142 2972 
Q 928 2841 928 2578 
Q 928 2378 1081 2264 
Q 1234 2150 1697 2047 
L 1894 2003 
Q 2506 1872 2764 1633 
Q 3022 1394 3022 966 
Q 3022 478 2636 193 
Q 2250 -91 1575 -91 
Q 1294 -91 989 -36 
Q 684 19 347 128 
L 347 722 
Q 666 556 975 473 
Q 1284 391 1588 391 
Q 1994 391 2212 530 
Q 2431 669 2431 922 
Q 2431 1156 2273 1281 
Q 2116 1406 1581 1522 
L 1381 1569 
Q 847 1681 609 1914 
Q 372 2147 372 2553 
Q 372 3047 722 3315 
Q 1072 3584 1716 3584 
Q 2034 3584 2315 3537 
Q 2597 3491 2834 3397 
z
" transform="scale(0.015625)"/>
       <path id="DejaVuSans-6f" d="M 1959 3097 
Q 1497 3097 1228 2736 
Q 959 2375 959 1747 
Q 959 1119 1226 758 
Q 1494 397 1959 397 
Q 2419 397 2687 759 
Q 2956 1122 2956 1747 
Q 2956 2369 2687 2733 
Q 2419 3097 1959 3097 
z
M 1959 3584 
Q 2709 3584 3137 3096 
Q 3566 2609 3566 1747 
Q 3566 888 3137 398 
Q 2709 -91 1959 -91 
Q 1206 -91 779 398 
Q 353 888 353 1747 
Q 353 2609 779 3096 
Q 1206 3584 1959 3584 
z
" transform="scale(0.015625)"/>
      </defs>
      <use xlink:href="#DejaVuSans-4c"/>
      <use xlink:href="#DejaVuSans-65" x="53.962891"/>
      <use xlink:href="#DejaVuSans-61" x="115.486328"/>
      <use xlink:href="#DejaVuSans-72" x="176.765625"/>
      <use xlink:href="#DejaVuSans-6e" x="216.128906"/>
      <use xlink:href="#DejaVuSans-65" x="279.507812"/>
      <use xlink:href="#DejaVuSans-64" x="341.03125"/>
      <use xlink:href="#DejaVuSans-20" x="404.507812"/>
      <use xlink:href="#DejaVuSans-45" x="436.294922"/>
      <use xlink:href="#DejaVuSans-70" x="499.478516"/>
      <use xlink:href="#DejaVuSans-69" x="562.955078"/>
      <use xlink:href="#DejaVuSans-73" x="590.738281"/>
      <use xlink:href="#DejaVuSans-6f" x="642.837891"/>
      <use xlink:href="#DejaVuSans-64" x="704.019531"/>
      <use xlink:href="#DejaVuSans-65" x="767.496094"/>
      <use xlink:href="#DejaVuSans-73" x="829.019531"/>
     </g>
    </g>
   </g>
   <g id="matplotlib.axis_2">
    <g id="ytick_1">
     <g id="line2d_19">
      <path d="M 57.6 294.859753 
L 414.72 294.859753 
" clip-path="url(#pc835420c39)" style="fill: none; stroke-dasharray: 2.96,1.28; stroke-dashoffset: 0; stroke: #b0b0b0; stroke-width: 0.8"/>
     </g>
     <g id="line2d_20">
      <defs>
       <path id="mefe139c01f" d="M 0 0 
L -3.5 0 
" style="stroke: #000000; stroke-width: 0.8"/>
      </defs>
      <g>
       <use xlink:href="#mefe139c01f" x="57.6" y="294.859753" style="stroke: #000000; stroke-width: 0.8"/>
      </g>
     </g>
     <g id="text_11">
      <!-- 5.5 -->
      <g transform="translate(34.696875 298.658972)scale(0.1 -0.1)">
       <defs>
        <path id="DejaVuSans-2e" d="M 684 794 
L 1344 794 
L 1344 0 
L 684 0 
L 684 794 
z
" transform="scale(0.015625)"/>
       </defs>
       <use xlink:href="#DejaVuSans-35"/>
       <use xlink:href="#DejaVuSans-2e" x="63.623047"/>
       <use xlink:href="#DejaVuSans-35" x="95.410156"/>
      </g>
     </g>
    </g>
    <g id="ytick_2">
     <g id="line2d_21">
      <path d="M 57.6 263.435902 
L 414.72 263.435902 
" clip-path="url(#pc835420c39)" style="fill: none; stroke-dasharray: 2.96,1.28; stroke-dashoffset: 0; stroke: #b0b0b0; stroke-width: 0.8"/>
     </g>
     <g id="line2d_22">
      <g>
       <use xlink:href="#mefe139c01f" x="57.6" y="263.435902" style="stroke: #000000; stroke-width: 0.8"/>
      </g>
     </g>
     <g id="text_12">
      <!-- 6.0 -->
      <g transform="translate(34.696875 267.235121)scale(0.1 -0.1)">
       <defs>
        <path id="DejaVuSans-36" d="M 2113 2584 
Q 1688 2584 1439 2293 
Q 1191 2003 1191 1497 
Q 1191 994 1439 701 
Q 1688 409 2113 409 
Q 2538 409 2786 701 
Q 3034 994 3034 1497 
Q 3034 2003 2786 2293 
Q 2538 2584 2113 2584 
z
M 3366 4563 
L 3366 3988 
Q 3128 4100 2886 4159 
Q 2644 4219 2406 4219 
Q 1781 4219 1451 3797 
Q 1122 3375 1075 2522 
Q 1259 2794 1537 2939 
Q 1816 3084 2150 3084 
Q 2853 3084 3261 2657 
Q 3669 2231 3669 1497 
Q 3669 778 3244 343 
Q 2819 -91 2113 -91 
Q 1303 -91 875 529 
Q 447 1150 447 2328 
Q 447 3434 972 4092 
Q 1497 4750 2381 4750 
Q 2619 4750 2861 4703 
Q 3103 4656 3366 4563 
z
" transform="scale(0.015625)"/>
       </defs>
       <use xlink:href="#DejaVuSans-36"/>
       <use xlink:href="#DejaVuSans-2e" x="63.623047"/>
       <use xlink:href="#DejaVuSans-30" x="95.410156"/>
      </g>
     </g>
    </g>
    <g id="ytick_3">
     <g id="line2d_23">
      <path d="M 57.6 232.012051 
L 414.72 232.012051 
" clip-path="url(#pc835420c39)" style="fill: none; stroke-dasharray: 2.96,1.28; stroke-dashoffset: 0; stroke: #b0b0b0; stroke-width: 0.8"/>
     </g>
     <g id="line2d_24">
      <g>
       <use xlink:href="#mefe139c01f" x="57.6" y="232.012051" style="stroke: #000000; stroke-width: 0.8"/>
      </g>
     </g>
     <g id="text_13">
      <!-- 6.5 -->
      <g transform="translate(34.696875 235.81127)scale(0.1 -0.1)">
       <use xlink:href="#DejaVuSans-36"/>
       <use xlink:href="#DejaVuSans-2e" x="63.623047"/>
       <use xlink:href="#DejaVuSans-35" x="95.410156"/>
      </g>
     </g>
    </g>
    <g id="ytick_4">
     <g id="line2d_25">
      <path d="M 57.6 200.5882 
L 414.72 200.5882 
" clip-path="url(#pc835420c39)" style="fill: none; stroke-dasharray: 2.96,1.28; stroke-dashoffset: 0; stroke: #b0b0b0; stroke-width: 0.8"/>
     </g>
     <g id="line2d_26">
      <g>
       <use xlink:href="#mefe139c01f" x="57.6" y="200.5882" style="stroke: #000000; stroke-width: 0.8"/>
      </g>
     </g>
     <g id="text_14">
      <!-- 7.0 -->
      <g transform="translate(34.696875 204.387419)scale(0.1 -0.1)">
       <use xlink:href="#DejaVuSans-37"/>
       <use xlink:href="#DejaVuSans-2e" x="63.623047"/>
       <use xlink:href="#DejaVuSans-30" x="95.410156"/>
      </g>
     </g>
    </g>
    <g id="ytick_5">
     <g id="line2d_27">
      <path d="M 57.6 169.164349 
L 414.72 169.164349 
" clip-path="url(#pc835420c39)" style="fill: none; stroke-dasharray: 2.96,1.28; stroke-dashoffset: 0; stroke: #b0b0b0; stroke-width: 0.8"/>
     </g>
     <g id="line2d_28">
      <g>
       <use xlink:href="#mefe139c01f" x="57.6" y="169.164349" style="stroke: #000000; stroke-width: 0.8"/>
      </g>
     </g>
     <g id="text_15">
      <!-- 7.5 -->
      <g transform="translate(34.696875 172.963568)scale(0.1 -0.1)">
       <use xlink:href="#DejaVuSans-37"/>
       <use xlink:href="#DejaVuSans-2e" x="63.623047"/>
       <use xlink:href="#DejaVuSans-35" x="95.410156"/>
      </g>
     </g>
    </g>
    <g id="ytick_6">
     <g id="line2d_29">
      <path d="M 57.6 137.740498 
L 414.72 137.740498 
" clip-path="url(#pc835420c39)" style="fill: none; stroke-dasharray: 2.96,1.28; stroke-dashoffset: 0; stroke: #b0b0b0; stroke-width: 0.8"/>
     </g>
     <g id="line2d_30">
      <g>
       <use xlink:href="#mefe139c01f" x="57.6" y="137.740498" style="stroke: #000000; stroke-width: 0.8"/>
      </g>
     </g>
     <g id="text_16">
      <!-- 8.0 -->
      <g transform="translate(34.696875 141.539717)scale(0.1 -0.1)">
       <defs>
        <path id="DejaVuSans-38" d="M 2034 2216 
Q 1584 2216 1326 1975 
Q 1069 1734 1069 1313 
Q 1069 891 1326 650 
Q 1584 409 2034 409 
Q 2484 409 2743 651 
Q 3003 894 3003 1313 
Q 3003 1734 2745 1975 
Q 2488 2216 2034 2216 
z
M 1403 2484 
Q 997 2584 770 2862 
Q 544 3141 544 3541 
Q 544 4100 942 4425 
Q 1341 4750 2034 4750 
Q 2731 4750 3128 4425 
Q 3525 4100 3525 3541 
Q 3525 3141 3298 2862 
Q 3072 2584 2669 2484 
Q 3125 2378 3379 2068 
Q 3634 1759 3634 1313 
Q 3634 634 3220 271 
Q 2806 -91 2034 -91 
Q 1263 -91 848 271 
Q 434 634 434 1313 
Q 434 1759 690 2068 
Q 947 2378 1403 2484 
z
M 1172 3481 
Q 1172 3119 1398 2916 
Q 1625 2713 2034 2713 
Q 2441 2713 2670 2916 
Q 2900 3119 2900 3481 
Q 2900 3844 2670 4047 
Q 2441 4250 2034 4250 
Q 1625 4250 1398 4047 
Q 1172 3844 1172 3481 
z
" transform="scale(0.015625)"/>
       </defs>
       <use xlink:href="#DejaVuSans-38"/>
       <use xlink:href="#DejaVuSans-2e" x="63.623047"/>
       <use xlink:href="#DejaVuSans-30" x="95.410156"/>
      </g>
     </g>
    </g>
    <g id="ytick_7">
     <g id="line2d_31">
      <path d="M 57.6 106.316647 
L 414.72 106.316647 
" clip-path="url(#pc835420c39)" style="fill: none; stroke-dasharray: 2.96,1.28; stroke-dashoffset: 0; stroke: #b0b0b0; stroke-width: 0.8"/>
     </g>
     <g id="line2d_32">
      <g>
       <use xlink:href="#mefe139c01f" x="57.6" y="106.316647" style="stroke: #000000; stroke-width: 0.8"/>
      </g>
     </g>
     <g id="text_17">
      <!-- 8.5 -->
      <g transform="translate(34.696875 110.115866)scale(0.1 -0.1)">
       <use xlink:href="#DejaVuSans-38"/>
       <use xlink:href="#DejaVuSans-2e" x="63.623047"/>
       <use xlink:href="#DejaVuSans-35" x="95.410156"/>
      </g>
     </g>
    </g>
    <g id="ytick_8">
     <g id="line2d_33">
      <path d="M 57.6 74.892796 
L 414.72 74.892796 
" clip-path="url(#pc835420c39)" style="fill: none; stroke-dasharray: 2.96,1.28; stroke-dashoffset: 0; stroke: #b0b0b0; stroke-width: 0.8"/>
     </g>
     <g id="line2d_34">
      <g>
       <use xlink:href="#mefe139c01f" x="57.6" y="74.892796" style="stroke: #000000; stroke-width: 0.8"/>
      </g>
     </g>
     <g id="text_18">
      <!-- 9.0 -->
      <g transform="translate(34.696875 78.692015)scale(0.1 -0.1)">
       <defs>
        <path id="DejaVuSans-39" d="M 703 97 
L 703 672 
Q 941 559 1184 500 
Q 1428 441 1663 441 
Q 2288 441 2617 861 
Q 2947 1281 2994 2138 
Q 2813 1869 2534 1725 
Q 2256 1581 1919 1581 
Q 1219 1581 811 2004 
Q 403 2428 403 3163 
Q 403 3881 828 4315 
Q 1253 4750 1959 4750 
Q 2769 4750 3195 4129 
Q 3622 3509 3622 2328 
Q 3622 1225 3098 567 
Q 2575 -91 1691 -91 
Q 1453 -91 1209 -44 
Q 966 3 703 97 
z
M 1959 2075 
Q 2384 2075 2632 2365 
Q 2881 2656 2881 3163 
Q 2881 3666 2632 3958 
Q 2384 4250 1959 4250 
Q 1534 4250 1286 3958 
Q 1038 3666 1038 3163 
Q 1038 2656 1286 2365 
Q 1534 2075 1959 2075 
z
" transform="scale(0.015625)"/>
       </defs>
       <use xlink:href="#DejaVuSans-39"/>
       <use xlink:href="#DejaVuSans-2e" x="63.623047"/>
       <use xlink:href="#DejaVuSans-30" x="95.410156"/>
      </g>
     </g>
    </g>
    <g id="ytick_9">
     <g id="line2d_35">
      <path d="M 57.6 43.468945 
L 414.72 43.468945 
" clip-path="url(#pc835420c39)" style="fill: none; stroke-dasharray: 2.96,1.28; stroke-dashoffset: 0; stroke: #b0b0b0; stroke-width: 0.8"/>
     </g>
     <g id="line2d_36">
      <g>
       <use xlink:href="#mefe139c01f" x="57.6" y="43.468945" style="stroke: #000000; stroke-width: 0.8"/>
      </g>
     </g>
     <g id="text_19">
      <!-- 9.5 -->
      <g transform="translate(34.696875 47.268164)scale(0.1 -0.1)">
       <use xlink:href="#DejaVuSans-39"/>
       <use xlink:href="#DejaVuSans-2e" x="63.623047"/>
       <use xlink:href="#DejaVuSans-35" x="95.410156"/>
      </g>
     </g>
    </g>
    <g id="text_20">
     <!-- Reward Density -->
     <g transform="translate(28.617187 213.74675)rotate(-90)scale(0.1 -0.1)">
      <defs>
       <path id="DejaVuSans-52" d="M 2841 2188 
Q 3044 2119 3236 1894 
Q 3428 1669 3622 1275 
L 4263 0 
L 3584 0 
L 2988 1197 
Q 2756 1666 2539 1819 
Q 2322 1972 1947 1972 
L 1259 1972 
L 1259 0 
L 628 0 
L 628 4666 
L 2053 4666 
Q 2853 4666 3247 4331 
Q 3641 3997 3641 3322 
Q 3641 2881 3436 2590 
Q 3231 2300 2841 2188 
z
M 1259 4147 
L 1259 2491 
L 2053 2491 
Q 2509 2491 2742 2702 
Q 2975 2913 2975 3322 
Q 2975 3731 2742 3939 
Q 2509 4147 2053 4147 
L 1259 4147 
z
" transform="scale(0.015625)"/>
       <path id="DejaVuSans-77" d="M 269 3500 
L 844 3500 
L 1563 769 
L 2278 3500 
L 2956 3500 
L 3675 769 
L 4391 3500 
L 4966 3500 
L 4050 0 
L 3372 0 
L 2619 2869 
L 1863 0 
L 1184 0 
L 269 3500 
z
" transform="scale(0.015625)"/>
       <path id="DejaVuSans-44" d="M 1259 4147 
L 1259 519 
L 2022 519 
Q 2988 519 3436 956 
Q 3884 1394 3884 2338 
Q 3884 3275 3436 3711 
Q 2988 4147 2022 4147 
L 1259 4147 
z
M 628 4666 
L 1925 4666 
Q 3281 4666 3915 4102 
Q 4550 3538 4550 2338 
Q 4550 1131 3912 565 
Q 3275 0 1925 0 
L 628 0 
L 628 4666 
z
" transform="scale(0.015625)"/>
       <path id="DejaVuSans-74" d="M 1172 4494 
L 1172 3500 
L 2356 3500 
L 2356 3053 
L 1172 3053 
L 1172 1153 
Q 1172 725 1289 603 
Q 1406 481 1766 481 
L 2356 481 
L 2356 0 
L 1766 0 
Q 1100 0 847 248 
Q 594 497 594 1153 
L 594 3053 
L 172 3053 
L 172 3500 
L 594 3500 
L 594 4494 
L 1172 4494 
z
" transform="scale(0.015625)"/>
       <path id="DejaVuSans-79" d="M 2059 -325 
Q 1816 -950 1584 -1140 
Q 1353 -1331 966 -1331 
L 506 -1331 
L 506 -850 
L 844 -850 
Q 1081 -850 1212 -737 
Q 1344 -625 1503 -206 
L 1606 56 
L 191 3500 
L 800 3500 
L 1894 763 
L 2988 3500 
L 3597 3500 
L 2059 -325 
z
" transform="scale(0.015625)"/>
      </defs>
      <use xlink:href="#DejaVuSans-52"/>
      <use xlink:href="#DejaVuSans-65" x="64.982422"/>
      <use xlink:href="#DejaVuSans-77" x="126.505859"/>
      <use xlink:href="#DejaVuSans-61" x="208.292969"/>
      <use xlink:href="#DejaVuSans-72" x="269.572266"/>
      <use xlink:href="#DejaVuSans-64" x="308.935547"/>
      <use xlink:href="#DejaVuSans-20" x="372.412109"/>
      <use xlink:href="#DejaVuSans-44" x="404.199219"/>
      <use xlink:href="#DejaVuSans-65" x="481.201172"/>
      <use xlink:href="#DejaVuSans-6e" x="542.724609"/>
      <use xlink:href="#DejaVuSans-73" x="606.103516"/>
      <use xlink:href="#DejaVuSans-69" x="658.203125"/>
      <use xlink:href="#DejaVuSans-74" x="685.986328"/>
      <use xlink:href="#DejaVuSans-79" x="725.195312"/>
     </g>
    </g>
   </g>
   <g id="LineCollection_1">
    <path d="M 90.919809 128.078574 
L 125.093971 128.078574 
" clip-path="url(#pc835420c39)" style="fill: none; stroke: #1f77b4; stroke-width: 1.5"/>
    <path d="M 176.355215 216.07088 
L 210.529378 216.07088 
" clip-path="url(#pc835420c39)" style="fill: none; stroke: #1f77b4; stroke-width: 1.5"/>
    <path d="M 261.790622 226.008197 
L 295.964785 226.008197 
" clip-path="url(#pc835420c39)" style="fill: none; stroke: #1f77b4; stroke-width: 1.5"/>
    <path d="M 347.226029 189.109172 
L 381.400191 189.109172 
" clip-path="url(#pc835420c39)" style="fill: none; stroke: #1f77b4; stroke-width: 1.5"/>
   </g>
   <g id="LineCollection_2">
    <path d="M 90.919809 53.568 
L 125.093971 53.568 
" clip-path="url(#pc835420c39)" style="fill: none; stroke: #1f77b4; stroke-width: 1.5"/>
    <path d="M 176.355215 137.775904 
L 210.529378 137.775904 
" clip-path="url(#pc835420c39)" style="fill: none; stroke: #1f77b4; stroke-width: 1.5"/>
    <path d="M 261.790622 63.706411 
L 295.964785 63.706411 
" clip-path="url(#pc835420c39)" style="fill: none; stroke: #1f77b4; stroke-width: 1.5"/>
    <path d="M 347.226029 113.092914 
L 381.400191 113.092914 
" clip-path="url(#pc835420c39)" style="fill: none; stroke: #1f77b4; stroke-width: 1.5"/>
   </g>
   <g id="LineCollection_3">
    <path d="M 90.919809 184.264983 
L 125.093971 184.264983 
" clip-path="url(#pc835420c39)" style="fill: none; stroke: #1f77b4; stroke-width: 1.5"/>
    <path d="M 176.355215 286.165489 
L 210.529378 286.165489 
" clip-path="url(#pc835420c39)" style="fill: none; stroke: #1f77b4; stroke-width: 1.5"/>
    <path d="M 261.790622 295.488 
L 295.964785 295.488 
" clip-path="url(#pc835420c39)" style="fill: none; stroke: #1f77b4; stroke-width: 1.5"/>
    <path d="M 347.226029 254.057271 
L 381.400191 254.057271 
" clip-path="url(#pc835420c39)" style="fill: none; stroke: #1f77b4; stroke-width: 1.5"/>
   </g>
   <g id="LineCollection_4">
    <path d="M 108.00689 184.264983 
L 108.00689 53.568 
" clip-path="url(#pc835420c39)" style="fill: none; stroke: #1f77b4; stroke-width: 1.5"/>
    <path d="M 193.442297 286.165489 
L 193.442297 137.775904 
" clip-path="url(#pc835420c39)" style="fill: none; stroke: #1f77b4; stroke-width: 1.5"/>
    <path d="M 278.877703 295.488 
L 278.877703 63.706411 
" clip-path="url(#pc835420c39)" style="fill: none; stroke: #1f77b4; stroke-width: 1.5"/>
    <path d="M 364.31311 254.057271 
L 364.31311 113.092914 
" clip-path="url(#pc835420c39)" style="fill: none; stroke: #1f77b4; stroke-width: 1.5"/>
   </g>
   <g id="line2d_37">
    <path d="M 108.00689 128.078574 
L 193.442297 216.07088 
L 278.877703 226.008197 
L 364.31311 189.109172 
" clip-path="url(#pc835420c39)" style="fill: none; stroke: #4682b4; stroke-width: 1.5; stroke-linecap: square"/>
   </g>
   <g id="line2d_38">
    <path d="M 108.00689 128.078574 
L 193.442297 216.07088 
L 278.877703 226.008197 
L 364.31311 189.109172 
" clip-path="url(#pc835420c39)" style="fill: none; stroke: #4682b4; stroke-width: 1.5; stroke-linecap: square"/>
   </g>
   <g id="patch_3">
    <path d="M 57.6 307.584 
L 57.6 41.472 
" style="fill: none; stroke: #000000; stroke-width: 0.8; stroke-linejoin: miter; stroke-linecap: square"/>
   </g>
   <g id="patch_4">
    <path d="M 414.72 307.584 
L 414.72 41.472 
" style="fill: none; stroke: #000000; stroke-width: 0.8; stroke-linejoin: miter; stroke-linecap: square"/>
   </g>
   <g id="patch_5">
    <path d="M 57.6 307.584 
L 414.72 307.584 
" style="fill: none; stroke: #000000; stroke-width: 0.8; stroke-linejoin: miter; stroke-linecap: square"/>
   </g>
   <g id="patch_6">
    <path d="M 57.6 41.472 
L 414.72 41.472 
" style="fill: none; stroke: #000000; stroke-width: 0.8; stroke-linejoin: miter; stroke-linecap: square"/>
   </g>
   <g id="text_21">
    <!-- Violinplot for progress of actions/price_new -->
    <g transform="translate(106.71 35.472)scale(0.12 -0.12)">
     <defs>
      <path id="DejaVuSans-56" d="M 1831 0 
L 50 4666 
L 709 4666 
L 2188 738 
L 3669 4666 
L 4325 4666 
L 2547 0 
L 1831 0 
z
" transform="scale(0.015625)"/>
      <path id="DejaVuSans-6c" d="M 603 4863 
L 1178 4863 
L 1178 0 
L 603 0 
L 603 4863 
z
" transform="scale(0.015625)"/>
      <path id="DejaVuSans-66" d="M 2375 4863 
L 2375 4384 
L 1825 4384 
Q 1516 4384 1395 4259 
Q 1275 4134 1275 3809 
L 1275 3500 
L 2222 3500 
L 2222 3053 
L 1275 3053 
L 1275 0 
L 697 0 
L 697 3053 
L 147 3053 
L 147 3500 
L 697 3500 
L 697 3744 
Q 697 4328 969 4595 
Q 1241 4863 1831 4863 
L 2375 4863 
z
" transform="scale(0.015625)"/>
      <path id="DejaVuSans-67" d="M 2906 1791 
Q 2906 2416 2648 2759 
Q 2391 3103 1925 3103 
Q 1463 3103 1205 2759 
Q 947 2416 947 1791 
Q 947 1169 1205 825 
Q 1463 481 1925 481 
Q 2391 481 2648 825 
Q 2906 1169 2906 1791 
z
M 3481 434 
Q 3481 -459 3084 -895 
Q 2688 -1331 1869 -1331 
Q 1566 -1331 1297 -1286 
Q 1028 -1241 775 -1147 
L 775 -588 
Q 1028 -725 1275 -790 
Q 1522 -856 1778 -856 
Q 2344 -856 2625 -561 
Q 2906 -266 2906 331 
L 2906 616 
Q 2728 306 2450 153 
Q 2172 0 1784 0 
Q 1141 0 747 490 
Q 353 981 353 1791 
Q 353 2603 747 3093 
Q 1141 3584 1784 3584 
Q 2172 3584 2450 3431 
Q 2728 3278 2906 2969 
L 2906 3500 
L 3481 3500 
L 3481 434 
z
" transform="scale(0.015625)"/>
      <path id="DejaVuSans-63" d="M 3122 3366 
L 3122 2828 
Q 2878 2963 2633 3030 
Q 2388 3097 2138 3097 
Q 1578 3097 1268 2742 
Q 959 2388 959 1747 
Q 959 1106 1268 751 
Q 1578 397 2138 397 
Q 2388 397 2633 464 
Q 2878 531 3122 666 
L 3122 134 
Q 2881 22 2623 -34 
Q 2366 -91 2075 -91 
Q 1284 -91 818 406 
Q 353 903 353 1747 
Q 353 2603 823 3093 
Q 1294 3584 2113 3584 
Q 2378 3584 2631 3529 
Q 2884 3475 3122 3366 
z
" transform="scale(0.015625)"/>
      <path id="DejaVuSans-2f" d="M 1625 4666 
L 2156 4666 
L 531 -594 
L 0 -594 
L 1625 4666 
z
" transform="scale(0.015625)"/>
      <path id="DejaVuSans-5f" d="M 3263 -1063 
L 3263 -1509 
L -63 -1509 
L -63 -1063 
L 3263 -1063 
z
" transform="scale(0.015625)"/>
     </defs>
     <use xlink:href="#DejaVuSans-56"/>
     <use xlink:href="#DejaVuSans-69" x="66.158203"/>
     <use xlink:href="#DejaVuSans-6f" x="93.941406"/>
     <use xlink:href="#DejaVuSans-6c" x="155.123047"/>
     <use xlink:href="#DejaVuSans-69" x="182.90625"/>
     <use xlink:href="#DejaVuSans-6e" x="210.689453"/>
     <use xlink:href="#DejaVuSans-70" x="274.068359"/>
     <use xlink:href="#DejaVuSans-6c" x="337.544922"/>
     <use xlink:href="#DejaVuSans-6f" x="365.328125"/>
     <use xlink:href="#DejaVuSans-74" x="426.509766"/>
     <use xlink:href="#DejaVuSans-20" x="465.71875"/>
     <use xlink:href="#DejaVuSans-66" x="497.505859"/>
     <use xlink:href="#DejaVuSans-6f" x="532.710938"/>
     <use xlink:href="#DejaVuSans-72" x="593.892578"/>
     <use xlink:href="#DejaVuSans-20" x="635.005859"/>
     <use xlink:href="#DejaVuSans-70" x="666.792969"/>
     <use xlink:href="#DejaVuSans-72" x="730.269531"/>
     <use xlink:href="#DejaVuSans-6f" x="769.132812"/>
     <use xlink:href="#DejaVuSans-67" x="830.314453"/>
     <use xlink:href="#DejaVuSans-72" x="893.791016"/>
     <use xlink:href="#DejaVuSans-65" x="932.654297"/>
     <use xlink:href="#DejaVuSans-73" x="994.177734"/>
     <use xlink:href="#DejaVuSans-73" x="1046.277344"/>
     <use xlink:href="#DejaVuSans-20" x="1098.376953"/>
     <use xlink:href="#DejaVuSans-6f" x="1130.164062"/>
     <use xlink:href="#DejaVuSans-66" x="1191.345703"/>
     <use xlink:href="#DejaVuSans-20" x="1226.550781"/>
     <use xlink:href="#DejaVuSans-61" x="1258.337891"/>
     <use xlink:href="#DejaVuSans-63" x="1319.617188"/>
     <use xlink:href="#DejaVuSans-74" x="1374.597656"/>
     <use xlink:href="#DejaVuSans-69" x="1413.806641"/>
     <use xlink:href="#DejaVuSans-6f" x="1441.589844"/>
     <use xlink:href="#DejaVuSans-6e" x="1502.771484"/>
     <use xlink:href="#DejaVuSans-73" x="1566.150391"/>
     <use xlink:href="#DejaVuSans-2f" x="1618.25"/>
     <use xlink:href="#DejaVuSans-70" x="1651.941406"/>
     <use xlink:href="#DejaVuSans-72" x="1715.417969"/>
     <use xlink:href="#DejaVuSans-69" x="1756.53125"/>
     <use xlink:href="#DejaVuSans-63" x="1784.314453"/>
     <use xlink:href="#DejaVuSans-65" x="1839.294922"/>
     <use xlink:href="#DejaVuSans-5f" x="1900.818359"/>
     <use xlink:href="#DejaVuSans-6e" x="1950.818359"/>
     <use xlink:href="#DejaVuSans-65" x="2014.197266"/>
     <use xlink:href="#DejaVuSans-77" x="2075.720703"/>
    </g>
   </g>
   <g id="legend_1">
    <g id="patch_7">
     <path d="M 276.25125 64.150125 
L 407.72 64.150125 
Q 409.72 64.150125 409.72 62.150125 
L 409.72 48.472 
Q 409.72 46.472 407.72 46.472 
L 276.25125 46.472 
Q 274.25125 46.472 274.25125 48.472 
L 274.25125 62.150125 
Q 274.25125 64.150125 276.25125 64.150125 
z
" style="fill: #ffffff; opacity: 0.8; stroke: #cccccc; stroke-linejoin: miter"/>
    </g>
    <g id="line2d_39">
     <path d="M 278.25125 54.570438 
L 288.25125 54.570438 
L 298.25125 54.570438 
" style="fill: none; stroke: #4682b4; stroke-width: 1.5; stroke-linecap: square"/>
    </g>
    <g id="text_22">
     <!-- StableBaselinesSAC -->
     <g transform="translate(306.25125 58.070438)scale(0.1 -0.1)">
      <defs>
       <path id="DejaVuSans-53" d="M 3425 4513 
L 3425 3897 
Q 3066 4069 2747 4153 
Q 2428 4238 2131 4238 
Q 1616 4238 1336 4038 
Q 1056 3838 1056 3469 
Q 1056 3159 1242 3001 
Q 1428 2844 1947 2747 
L 2328 2669 
Q 3034 2534 3370 2195 
Q 3706 1856 3706 1288 
Q 3706 609 3251 259 
Q 2797 -91 1919 -91 
Q 1588 -91 1214 -16 
Q 841 59 441 206 
L 441 856 
Q 825 641 1194 531 
Q 1563 422 1919 422 
Q 2459 422 2753 634 
Q 3047 847 3047 1241 
Q 3047 1584 2836 1778 
Q 2625 1972 2144 2069 
L 1759 2144 
Q 1053 2284 737 2584 
Q 422 2884 422 3419 
Q 422 4038 858 4394 
Q 1294 4750 2059 4750 
Q 2388 4750 2728 4690 
Q 3069 4631 3425 4513 
z
" transform="scale(0.015625)"/>
       <path id="DejaVuSans-62" d="M 3116 1747 
Q 3116 2381 2855 2742 
Q 2594 3103 2138 3103 
Q 1681 3103 1420 2742 
Q 1159 2381 1159 1747 
Q 1159 1113 1420 752 
Q 1681 391 2138 391 
Q 2594 391 2855 752 
Q 3116 1113 3116 1747 
z
M 1159 2969 
Q 1341 3281 1617 3432 
Q 1894 3584 2278 3584 
Q 2916 3584 3314 3078 
Q 3713 2572 3713 1747 
Q 3713 922 3314 415 
Q 2916 -91 2278 -91 
Q 1894 -91 1617 61 
Q 1341 213 1159 525 
L 1159 0 
L 581 0 
L 581 4863 
L 1159 4863 
L 1159 2969 
z
" transform="scale(0.015625)"/>
       <path id="DejaVuSans-42" d="M 1259 2228 
L 1259 519 
L 2272 519 
Q 2781 519 3026 730 
Q 3272 941 3272 1375 
Q 3272 1813 3026 2020 
Q 2781 2228 2272 2228 
L 1259 2228 
z
M 1259 4147 
L 1259 2741 
L 2194 2741 
Q 2656 2741 2882 2914 
Q 3109 3088 3109 3444 
Q 3109 3797 2882 3972 
Q 2656 4147 2194 4147 
L 1259 4147 
z
M 628 4666 
L 2241 4666 
Q 2963 4666 3353 4366 
Q 3744 4066 3744 3513 
Q 3744 3084 3544 2831 
Q 3344 2578 2956 2516 
Q 3422 2416 3680 2098 
Q 3938 1781 3938 1306 
Q 3938 681 3513 340 
Q 3088 0 2303 0 
L 628 0 
L 628 4666 
z
" transform="scale(0.015625)"/>
       <path id="DejaVuSans-41" d="M 2188 4044 
L 1331 1722 
L 3047 1722 
L 2188 4044 
z
M 1831 4666 
L 2547 4666 
L 4325 0 
L 3669 0 
L 3244 1197 
L 1141 1197 
L 716 0 
L 50 0 
L 1831 4666 
z
" transform="scale(0.015625)"/>
       <path id="DejaVuSans-43" d="M 4122 4306 
L 4122 3641 
Q 3803 3938 3442 4084 
Q 3081 4231 2675 4231 
Q 1875 4231 1450 3742 
Q 1025 3253 1025 2328 
Q 1025 1406 1450 917 
Q 1875 428 2675 428 
Q 3081 428 3442 575 
Q 3803 722 4122 1019 
L 4122 359 
Q 3791 134 3420 21 
Q 3050 -91 2638 -91 
Q 1578 -91 968 557 
Q 359 1206 359 2328 
Q 359 3453 968 4101 
Q 1578 4750 2638 4750 
Q 3056 4750 3426 4639 
Q 3797 4528 4122 4306 
z
" transform="scale(0.015625)"/>
      </defs>
      <use xlink:href="#DejaVuSans-53"/>
      <use xlink:href="#DejaVuSans-74" x="63.476562"/>
      <use xlink:href="#DejaVuSans-61" x="102.685547"/>
      <use xlink:href="#DejaVuSans-62" x="163.964844"/>
      <use xlink:href="#DejaVuSans-6c" x="227.441406"/>
      <use xlink:href="#DejaVuSans-65" x="255.224609"/>
      <use xlink:href="#DejaVuSans-42" x="316.748047"/>
      <use xlink:href="#DejaVuSans-61" x="385.351562"/>
      <use xlink:href="#DejaVuSans-73" x="446.630859"/>
      <use xlink:href="#DejaVuSans-65" x="498.730469"/>
      <use xlink:href="#DejaVuSans-6c" x="560.253906"/>
      <use xlink:href="#DejaVuSans-69" x="588.037109"/>
      <use xlink:href="#DejaVuSans-6e" x="615.820312"/>
      <use xlink:href="#DejaVuSans-65" x="679.199219"/>
      <use xlink:href="#DejaVuSans-73" x="740.722656"/>
      <use xlink:href="#DejaVuSans-53" x="792.822266"/>
      <use xlink:href="#DejaVuSans-41" x="858.173828"/>
      <use xlink:href="#DejaVuSans-43" x="924.832031"/>
     </g>
    </g>
   </g>
  </g>
 </g>
 <defs>
  <clipPath id="pc835420c39">
   <rect x="57.6" y="41.472" width="357.12" height="266.112"/>
  </clipPath>
 </defs>
</svg>
