<?xml version="1.0" encoding="utf-8" standalone="no"?>
<!DOCTYPE svg PUBLIC "-//W3C//DTD SVG 1.1//EN"
  "http://www.w3.org/Graphics/SVG/1.1/DTD/svg11.dtd">
<svg xmlns:xlink="http://www.w3.org/1999/xlink" width="460.8pt" height="345.6pt" viewBox="0 0 460.8 345.6" xmlns="http://www.w3.org/2000/svg" version="1.1">
 <metadata>
  <rdf:RDF xmlns:dc="http://purl.org/dc/elements/1.1/" xmlns:cc="http://creativecommons.org/ns#" xmlns:rdf="http://www.w3.org/1999/02/22-rdf-syntax-ns#">
   <cc:Work>
    <dc:type rdf:resource="http://purl.org/dc/dcmitype/StillImage"/>
    <dc:date>2022-06-16T12:02:58.505512</dc:date>
    <dc:format>image/svg+xml</dc:format>
    <dc:creator>
     <cc:Agent>
      <dc:title>Matplotlib v3.5.2, https://matplotlib.org/</dc:title>
     </cc:Agent>
    </dc:creator>
   </cc:Work>
  </rdf:RDF>
 </metadata>
 <defs>
  <style type="text/css">*{stroke-linejoin: round; stroke-linecap: butt}</style>
 </defs>
 <g id="figure_1">
  <g id="patch_1">
   <path d="M 0 345.6 
L 460.8 345.6 
L 460.8 0 
L 0 0 
z
" style="fill: #ffffff"/>
  </g>
  <g id="axes_1">
   <g id="patch_2">
    <path d="M 57.6 307.584 
L 414.72 307.584 
L 414.72 41.472 
L 57.6 41.472 
z
" style="fill: #ffffff"/>
   </g>
   <g id="PolyCollection_1">
    <path d="M 113.629242 295.488 
L 108.994933 295.488 
L 108.663861 293.49069 
L 108.301648 291.49338 
L 107.904401 289.49607 
L 107.467808 287.49876 
L 106.987529 285.50145 
L 106.459642 283.504139 
L 105.881054 281.506829 
L 105.249824 279.509519 
L 104.56531 277.512209 
L 103.828119 275.514899 
L 103.039856 273.517589 
L 102.202721 271.520279 
L 101.319036 269.522969 
L 100.390798 267.525659 
L 99.419368 265.528349 
L 98.405379 263.531039 
L 97.348889 261.533729 
L 96.249788 259.536418 
L 95.10837 257.539108 
L 93.925971 255.541798 
L 92.705542 253.544488 
L 91.452021 251.547178 
L 90.172435 249.549868 
L 88.875691 247.552558 
L 87.572091 245.555248 
L 86.272675 243.557938 
L 84.988521 241.560628 
L 83.730151 239.563318 
L 82.507164 237.566007 
L 81.328173 235.568697 
L 80.201045 233.571387 
L 79.133386 231.574077 
L 78.133156 229.576767 
L 77.209239 227.579457 
L 76.371827 225.582147 
L 75.632484 223.584837 
L 75.003803 221.587527 
L 74.49865 219.590217 
L 74.129069 217.592907 
L 73.904963 215.595597 
L 73.832727 213.598286 
L 73.914033 211.600976 
L 74.144941 209.603666 
L 74.515501 207.606356 
L 75.009929 205.609046 
L 75.607401 203.611736 
L 76.28341 201.614426 
L 77.011578 199.617116 
L 77.765748 197.619806 
L 78.522121 195.622496 
L 79.261213 193.625186 
L 79.969377 191.627875 
L 80.6397 189.630565 
L 81.272161 187.633255 
L 81.87299 185.635945 
L 82.453331 183.638635 
L 83.027376 181.641325 
L 83.610222 179.644015 
L 84.215763 177.646705 
L 84.854888 175.649395 
L 85.534244 173.652085 
L 86.255667 171.654775 
L 87.016342 169.657465 
L 87.809571 167.660154 
L 88.625986 165.662844 
L 89.45497 163.665534 
L 90.286043 161.668224 
L 91.110018 159.670914 
L 91.919773 157.673604 
L 92.710594 155.676294 
L 93.4801 153.678984 
L 94.227838 151.681674 
L 94.954669 149.684364 
L 95.662082 147.687054 
L 96.351561 145.689743 
L 97.024106 143.692433 
L 97.679959 141.695123 
L 98.318547 139.697813 
L 98.938628 137.700503 
L 99.538579 135.703193 
L 100.116766 133.705883 
L 100.671917 131.708573 
L 101.203449 129.711263 
L 101.711687 127.713953 
L 102.197959 125.716643 
L 102.664559 123.719333 
L 103.11458 121.722022 
L 103.551659 119.724712 
L 103.979651 117.727402 
L 104.402276 115.730092 
L 104.822777 113.732782 
L 105.243625 111.735472 
L 105.666289 109.738162 
L 106.091094 107.740852 
L 106.517186 105.743542 
L 106.942586 103.746232 
L 107.364341 101.748922 
L 107.778746 99.751611 
L 108.181619 97.754301 
L 114.442556 97.754301 
L 114.442556 97.754301 
L 114.845428 99.751611 
L 115.259833 101.748922 
L 115.681589 103.746232 
L 116.106989 105.743542 
L 116.533081 107.740852 
L 116.957886 109.738162 
L 117.380549 111.735472 
L 117.801398 113.732782 
L 118.221899 115.730092 
L 118.644523 117.727402 
L 119.072515 119.724712 
L 119.509595 121.722022 
L 119.959616 123.719333 
L 120.426215 125.716643 
L 120.912488 127.713953 
L 121.420725 129.711263 
L 121.952258 131.708573 
L 122.507409 133.705883 
L 123.085595 135.703193 
L 123.685546 137.700503 
L 124.305627 139.697813 
L 124.944215 141.695123 
L 125.600068 143.692433 
L 126.272614 145.689743 
L 126.962093 147.687054 
L 127.669505 149.684364 
L 128.396336 151.681674 
L 129.144074 153.678984 
L 129.91358 155.676294 
L 130.704401 157.673604 
L 131.514156 159.670914 
L 132.338131 161.668224 
L 133.169205 163.665534 
L 133.998189 165.662844 
L 134.814603 167.660154 
L 135.607832 169.657465 
L 136.368507 171.654775 
L 137.089931 173.652085 
L 137.769286 175.649395 
L 138.408412 177.646705 
L 139.013952 179.644015 
L 139.596798 181.641325 
L 140.170843 183.638635 
L 140.751185 185.635945 
L 141.352013 187.633255 
L 141.984474 189.630565 
L 142.654798 191.627875 
L 143.362961 193.625186 
L 144.102053 195.622496 
L 144.858427 197.619806 
L 145.612596 199.617116 
L 146.340765 201.614426 
L 147.016774 203.611736 
L 147.614246 205.609046 
L 148.108674 207.606356 
L 148.479234 209.603666 
L 148.710142 211.600976 
L 148.791447 213.598286 
L 148.719211 215.595597 
L 148.495105 217.592907 
L 148.125525 219.590217 
L 147.620372 221.587527 
L 146.99169 223.584837 
L 146.252348 225.582147 
L 145.414936 227.579457 
L 144.491018 229.576767 
L 143.490788 231.574077 
L 142.42313 233.571387 
L 141.296001 235.568697 
L 140.11701 237.566007 
L 138.894024 239.563318 
L 137.635654 241.560628 
L 136.3515 243.557938 
L 135.052084 245.555248 
L 133.748483 247.552558 
L 132.451739 249.549868 
L 131.172154 251.547178 
L 129.918633 253.544488 
L 128.698203 255.541798 
L 127.515805 257.539108 
L 126.374387 259.536418 
L 125.275285 261.533729 
L 124.218795 263.531039 
L 123.204806 265.528349 
L 122.233377 267.525659 
L 121.305139 269.522969 
L 120.421454 271.520279 
L 119.584319 273.517589 
L 118.796056 275.514899 
L 118.058865 277.512209 
L 117.374351 279.509519 
L 116.743121 281.506829 
L 116.164533 283.504139 
L 115.636645 285.50145 
L 115.156367 287.49876 
L 114.719774 289.49607 
L 114.322527 291.49338 
L 113.960314 293.49069 
L 113.629242 295.488 
z
" clip-path="url(#p3b511c4176)" style="fill: #1f77b4; fill-opacity: 0.3"/>
   </g>
   <g id="PolyCollection_2">
    <path d="M 196.966733 259.034301 
L 192.232375 259.034301 
L 191.936878 257.215522 
L 191.620626 255.396742 
L 191.281252 253.577963 
L 190.916148 251.759183 
L 190.522717 249.940403 
L 190.098608 248.121624 
L 189.641846 246.302844 
L 189.150845 244.484065 
L 188.624267 242.665285 
L 188.060758 240.846506 
L 187.458586 239.027726 
L 186.815255 237.208946 
L 186.127149 235.390167 
L 185.389303 233.571387 
L 184.59534 231.752608 
L 183.737639 229.933828 
L 182.807751 228.115049 
L 181.797064 226.296269 
L 180.69769 224.477489 
L 179.50352 222.65871 
L 178.211353 220.83993 
L 176.821997 219.021151 
L 175.341203 217.202371 
L 173.780308 215.383592 
L 172.156448 213.564812 
L 170.492284 211.746032 
L 168.815172 209.927253 
L 167.155842 208.108473 
L 165.546675 206.289694 
L 164.019739 204.470914 
L 162.604809 202.652134 
L 161.327561 200.833355 
L 160.208154 199.014575 
L 159.260307 197.195796 
L 158.490943 195.377016 
L 157.900369 193.558237 
L 157.482896 191.739457 
L 157.227762 189.920677 
L 157.120194 188.101898 
L 157.142498 186.283118 
L 157.275059 184.464339 
L 157.497232 182.645559 
L 157.788117 180.82678 
L 158.127267 179.008 
L 158.495353 177.18922 
L 158.874836 175.370441 
L 159.250617 173.551661 
L 159.610653 171.732882 
L 159.946457 169.914102 
L 160.253422 168.095323 
L 160.530909 166.276543 
L 160.782061 164.457763 
L 161.01335 162.638984 
L 161.23391 160.820204 
L 161.454699 159.001425 
L 161.687614 157.182645 
L 161.944613 155.363866 
L 162.236944 153.545086 
L 162.574507 151.726306 
L 162.965395 149.907527 
L 163.415593 148.088747 
L 163.928825 146.269968 
L 164.506528 144.451188 
L 165.147894 142.632408 
L 165.849991 140.813629 
L 166.607911 138.994849 
L 167.414966 137.17607 
L 168.262917 135.35729 
L 169.142257 133.538511 
L 170.042548 131.719731 
L 170.95284 129.900951 
L 171.862152 128.082172 
L 172.760022 126.263392 
L 173.637101 124.444613 
L 174.485753 122.625833 
L 175.300606 120.807054 
L 176.079003 118.988274 
L 176.821268 117.169494 
L 177.530755 115.350715 
L 178.213605 113.531935 
L 178.878232 111.713156 
L 179.534528 109.894376 
L 180.192879 108.075597 
L 180.863066 106.256817 
L 181.553194 104.438037 
L 182.268763 102.619258 
L 183.012012 100.800478 
L 183.781605 98.981699 
L 184.572725 97.162919 
L 185.37753 95.344139 
L 186.185927 93.52536 
L 186.986547 91.70658 
L 187.767787 89.887801 
L 188.518792 88.069021 
L 189.230256 86.250242 
L 189.894971 84.431462 
L 190.508082 82.612682 
L 191.067065 80.793903 
L 191.571481 78.975123 
L 197.627627 78.975123 
L 197.627627 78.975123 
L 198.132043 80.793903 
L 198.691026 82.612682 
L 199.304137 84.431462 
L 199.968852 86.250242 
L 200.680316 88.069021 
L 201.431321 89.887801 
L 202.212561 91.70658 
L 203.013181 93.52536 
L 203.821578 95.344139 
L 204.626383 97.162919 
L 205.417503 98.981699 
L 206.187096 100.800478 
L 206.930345 102.619258 
L 207.645914 104.438037 
L 208.336042 106.256817 
L 209.006229 108.075597 
L 209.66458 109.894376 
L 210.320876 111.713156 
L 210.985503 113.531935 
L 211.668353 115.350715 
L 212.37784 117.169494 
L 213.120106 118.988274 
L 213.898502 120.807054 
L 214.713355 122.625833 
L 215.562007 124.444613 
L 216.439086 126.263392 
L 217.336956 128.082172 
L 218.246268 129.900951 
L 219.15656 131.719731 
L 220.056852 133.538511 
L 220.936191 135.35729 
L 221.784142 137.17607 
L 222.591197 138.994849 
L 223.349117 140.813629 
L 224.051214 142.632408 
L 224.69258 144.451188 
L 225.270283 146.269968 
L 225.783515 148.088747 
L 226.233713 149.907527 
L 226.624601 151.726306 
L 226.962164 153.545086 
L 227.254495 155.363866 
L 227.511494 157.182645 
L 227.744409 159.001425 
L 227.965198 160.820204 
L 228.185758 162.638984 
L 228.417048 164.457763 
L 228.668199 166.276543 
L 228.945686 168.095323 
L 229.252651 169.914102 
L 229.588455 171.732882 
L 229.948491 173.551661 
L 230.324272 175.370441 
L 230.703755 177.18922 
L 231.071841 179.008 
L 231.410991 180.82678 
L 231.701876 182.645559 
L 231.924049 184.464339 
L 232.05661 186.283118 
L 232.078914 188.101898 
L 231.971346 189.920677 
L 231.716212 191.739457 
L 231.298739 193.558237 
L 230.708165 195.377016 
L 229.938801 197.195796 
L 228.990954 199.014575 
L 227.871547 200.833355 
L 226.594299 202.652134 
L 225.179369 204.470914 
L 223.652433 206.289694 
L 222.043266 208.108473 
L 220.383936 209.927253 
L 218.706824 211.746032 
L 217.04266 213.564812 
L 215.4188 215.383592 
L 213.857905 217.202371 
L 212.377112 219.021151 
L 210.987756 220.83993 
L 209.695589 222.65871 
L 208.501418 224.477489 
L 207.402044 226.296269 
L 206.391357 228.115049 
L 205.461469 229.933828 
L 204.603768 231.752608 
L 203.809805 233.571387 
L 203.071959 235.390167 
L 202.383853 237.208946 
L 201.740522 239.027726 
L 201.138351 240.846506 
L 200.574841 242.665285 
L 200.048263 244.484065 
L 199.557262 246.302844 
L 199.1005 248.121624 
L 198.676391 249.940403 
L 198.28296 251.759183 
L 197.917856 253.577963 
L 197.578482 255.396742 
L 197.262231 257.215522 
L 196.966733 259.034301 
z
" clip-path="url(#p3b511c4176)" style="fill: #1f77b4; fill-opacity: 0.3"/>
   </g>
   <g id="PolyCollection_3">
    <path d="M 279.562041 254.615671 
L 276.212001 254.615671 
L 275.899801 252.584887 
L 275.545624 250.554102 
L 275.148462 248.523318 
L 274.709682 246.492533 
L 274.233589 244.461748 
L 273.727604 242.430964 
L 273.201908 240.400179 
L 272.668469 238.369395 
L 272.139455 236.33861 
L 271.625209 234.307826 
L 271.132051 232.277041 
L 270.660254 230.246257 
L 270.202577 228.215472 
L 269.743667 226.184687 
L 269.260544 224.153903 
L 268.724193 222.123118 
L 268.102139 220.092334 
L 267.361702 218.061549 
L 266.473529 216.030765 
L 265.414974 213.99998 
L 264.172899 211.969196 
L 262.745598 209.938411 
L 261.143635 207.907626 
L 259.389558 205.876842 
L 257.516564 203.846057 
L 255.566289 201.815273 
L 253.585979 199.784488 
L 251.625324 197.753704 
L 249.733233 195.722919 
L 247.954821 193.692134 
L 246.328818 191.66135 
L 244.885577 189.630565 
L 243.645773 187.599781 
L 242.61984 185.568996 
L 241.808127 183.538212 
L 241.201694 181.507427 
L 240.783627 179.476643 
L 240.530732 177.445858 
L 240.415424 175.415073 
L 240.407661 173.384289 
L 240.47677 171.353504 
L 240.593087 169.32272 
L 240.729362 167.291935 
L 240.861973 165.261151 
L 240.972003 163.230366 
L 241.046241 161.199582 
L 241.078142 159.168797 
L 241.068645 157.138012 
L 241.026711 155.107228 
L 240.96932 153.076443 
L 240.92071 151.045659 
L 240.910664 149.014874 
L 240.971868 146.98409 
L 241.136506 144.953305 
L 241.43249 142.922521 
L 241.879868 140.891736 
L 242.487958 138.860951 
L 243.253725 136.830167 
L 244.161695 134.799382 
L 245.185497 132.768598 
L 246.29083 130.737813 
L 247.439442 128.707029 
L 248.593541 126.676244 
L 249.72003 124.64546 
L 250.793949 122.614675 
L 251.800706 120.58389 
L 252.736816 118.553106 
L 253.609123 116.522321 
L 254.432713 114.491537 
L 255.227888 112.460752 
L 256.016732 110.429968 
L 256.819802 108.399183 
L 257.65345 106.368399 
L 258.528131 104.337614 
L 259.447845 102.306829 
L 260.410661 100.276045 
L 261.410053 98.24526 
L 262.436676 96.214476 
L 263.480156 94.183691 
L 264.530514 92.152907 
L 265.579009 90.122122 
L 266.618323 88.091337 
L 267.642189 86.060553 
L 268.644701 84.029768 
L 269.619567 81.998984 
L 270.55958 79.968199 
L 271.45647 77.937415 
L 272.301207 75.90663 
L 273.084706 73.875846 
L 273.798757 71.845061 
L 274.437021 69.814276 
L 274.995861 67.783492 
L 275.474859 65.752707 
L 275.876938 63.721923 
L 276.208062 61.691138 
L 276.476578 59.660354 
L 276.692334 57.629569 
L 276.865686 55.598785 
L 277.006566 53.568 
L 278.767475 53.568 
L 278.767475 53.568 
L 278.908356 55.598785 
L 279.081707 57.629569 
L 279.297463 59.660354 
L 279.56598 61.691138 
L 279.897103 63.721923 
L 280.299183 65.752707 
L 280.778181 67.783492 
L 281.33702 69.814276 
L 281.975285 71.845061 
L 282.689336 73.875846 
L 283.472834 75.90663 
L 284.317572 77.937415 
L 285.214462 79.968199 
L 286.154475 81.998984 
L 287.129341 84.029768 
L 288.131853 86.060553 
L 289.155719 88.091337 
L 290.195032 90.122122 
L 291.243527 92.152907 
L 292.293885 94.183691 
L 293.337365 96.214476 
L 294.363989 98.24526 
L 295.363381 100.276045 
L 296.326197 102.306829 
L 297.245911 104.337614 
L 298.120592 106.368399 
L 298.95424 108.399183 
L 299.757309 110.429968 
L 300.546153 112.460752 
L 301.341329 114.491537 
L 302.164918 116.522321 
L 303.037226 118.553106 
L 303.973335 120.58389 
L 304.980093 122.614675 
L 306.054012 124.64546 
L 307.1805 126.676244 
L 308.3346 128.707029 
L 309.483212 130.737813 
L 310.588545 132.768598 
L 311.612347 134.799382 
L 312.520317 136.830167 
L 313.286083 138.860951 
L 313.894174 140.891736 
L 314.341552 142.922521 
L 314.637536 144.953305 
L 314.802173 146.98409 
L 314.863378 149.014874 
L 314.853332 151.045659 
L 314.804721 153.076443 
L 314.747331 155.107228 
L 314.705396 157.138012 
L 314.6959 159.168797 
L 314.727801 161.199582 
L 314.802039 163.230366 
L 314.912068 165.261151 
L 315.04468 167.291935 
L 315.180955 169.32272 
L 315.297272 171.353504 
L 315.366381 173.384289 
L 315.358617 175.415073 
L 315.24331 177.445858 
L 314.990415 179.476643 
L 314.572348 181.507427 
L 313.965915 183.538212 
L 313.154202 185.568996 
L 312.128269 187.599781 
L 310.888465 189.630565 
L 309.445224 191.66135 
L 307.819221 193.692134 
L 306.040809 195.722919 
L 304.148718 197.753704 
L 302.188063 199.784488 
L 300.207753 201.815273 
L 298.257478 203.846057 
L 296.384484 205.876842 
L 294.630407 207.907626 
L 293.028443 209.938411 
L 291.601142 211.969196 
L 290.359068 213.99998 
L 289.300513 216.030765 
L 288.41234 218.061549 
L 287.671902 220.092334 
L 287.049848 222.123118 
L 286.513498 224.153903 
L 286.030375 226.184687 
L 285.571465 228.215472 
L 285.113788 230.246257 
L 284.641991 232.277041 
L 284.148833 234.307826 
L 283.634587 236.33861 
L 283.105572 238.369395 
L 282.572133 240.400179 
L 282.046438 242.430964 
L 281.540452 244.461748 
L 281.064359 246.492533 
L 280.62558 248.523318 
L 280.228418 250.554102 
L 279.87424 252.584887 
L 279.562041 254.615671 
z
" clip-path="url(#p3b511c4176)" style="fill: #1f77b4; fill-opacity: 0.3"/>
   </g>
   <g id="PolyCollection_4">
    <path d="M 364.646527 245.778411 
L 357.369299 245.778411 
L 356.924881 244.004264 
L 356.471404 242.230117 
L 356.008982 240.45597 
L 355.535114 238.681823 
L 355.044524 236.907676 
L 354.52927 235.133529 
L 353.979077 233.359382 
L 353.381893 231.585235 
L 352.724589 229.811088 
L 351.993771 228.036941 
L 351.176644 226.262795 
L 350.261884 224.488648 
L 349.240489 222.714501 
L 348.106563 220.940354 
L 346.858019 219.166207 
L 345.497151 217.39206 
L 344.031033 215.617913 
L 342.471707 213.843766 
L 340.836101 212.069619 
L 339.14566 210.295472 
L 337.425652 208.521325 
L 335.7042 206.747178 
L 334.011054 204.973031 
L 332.376223 203.198884 
L 330.828534 201.424737 
L 329.394258 199.65059 
L 328.095881 197.876443 
L 326.951115 196.102296 
L 325.972182 194.328149 
L 325.165391 192.554002 
L 324.531021 190.779856 
L 324.063475 189.005709 
L 323.75171 187.231562 
L 323.57993 185.457415 
L 323.528553 183.683268 
L 323.575426 181.909121 
L 323.69728 180.134974 
L 323.871336 178.360827 
L 324.076967 176.58668 
L 324.297268 174.812533 
L 324.520348 173.038386 
L 324.740186 171.264239 
L 324.956927 169.490092 
L 325.17653 167.715945 
L 325.409795 165.941798 
L 325.670854 164.167651 
L 325.975301 162.393504 
L 326.338158 160.619357 
L 326.771935 158.84521 
L 327.284986 157.071064 
L 327.880349 155.296917 
L 328.555208 153.52277 
L 329.301011 151.748623 
L 330.104255 149.974476 
L 330.947826 148.200329 
L 331.812756 146.426182 
L 332.68019 144.652035 
L 333.533339 142.877888 
L 334.359185 141.103741 
L 335.149735 139.329594 
L 335.902675 137.555447 
L 336.621355 135.7813 
L 337.314099 134.007153 
L 337.992939 132.233006 
L 338.671939 130.458859 
L 339.3653 128.684712 
L 340.08548 126.910565 
L 340.841559 125.136418 
L 341.638033 123.362271 
L 342.474191 121.588125 
L 343.344151 119.813978 
L 344.23756 118.039831 
L 345.140872 116.265684 
L 346.039046 114.491537 
L 346.917439 112.71739 
L 347.763615 110.943243 
L 348.568826 109.169096 
L 349.328924 107.394949 
L 350.044573 105.620802 
L 350.72073 103.846655 
L 351.365494 102.072508 
L 351.988512 100.298361 
L 352.599227 98.524214 
L 353.205251 96.750067 
L 353.811123 94.97592 
L 354.417655 93.201773 
L 355.0219 91.427626 
L 355.617744 89.653479 
L 356.19693 87.879333 
L 356.750356 86.105186 
L 357.269366 84.331039 
L 357.746874 82.556892 
L 358.178128 80.782745 
L 358.561076 79.008598 
L 358.896311 77.234451 
L 359.186683 75.460304 
L 359.436678 73.686157 
L 359.651701 71.91201 
L 359.83738 70.137863 
L 362.178445 70.137863 
L 362.178445 70.137863 
L 362.364124 71.91201 
L 362.579147 73.686157 
L 362.829142 75.460304 
L 363.119514 77.234451 
L 363.45475 79.008598 
L 363.837697 80.782745 
L 364.268951 82.556892 
L 364.746459 84.331039 
L 365.26547 86.105186 
L 365.818895 87.879333 
L 366.398082 89.653479 
L 366.993925 91.427626 
L 367.598171 93.201773 
L 368.204702 94.97592 
L 368.810575 96.750067 
L 369.416598 98.524214 
L 370.027313 100.298361 
L 370.650332 102.072508 
L 371.295096 103.846655 
L 371.971253 105.620802 
L 372.686901 107.394949 
L 373.446999 109.169096 
L 374.252211 110.943243 
L 375.098387 112.71739 
L 375.976779 114.491537 
L 376.874954 116.265684 
L 377.778266 118.039831 
L 378.671675 119.813978 
L 379.541635 121.588125 
L 380.377793 123.362271 
L 381.174267 125.136418 
L 381.930346 126.910565 
L 382.650526 128.684712 
L 383.343886 130.458859 
L 384.022887 132.233006 
L 384.701727 134.007153 
L 385.39447 135.7813 
L 386.11315 137.555447 
L 386.866091 139.329594 
L 387.65664 141.103741 
L 388.482486 142.877888 
L 389.335635 144.652035 
L 390.203069 146.426182 
L 391.067999 148.200329 
L 391.91157 149.974476 
L 392.714814 151.748623 
L 393.460618 153.52277 
L 394.135476 155.296917 
L 394.730839 157.071064 
L 395.24389 158.84521 
L 395.677667 160.619357 
L 396.040524 162.393504 
L 396.344971 164.167651 
L 396.606031 165.941798 
L 396.839296 167.715945 
L 397.058899 169.490092 
L 397.275639 171.264239 
L 397.495478 173.038386 
L 397.718557 174.812533 
L 397.938858 176.58668 
L 398.14449 178.360827 
L 398.318545 180.134974 
L 398.440399 181.909121 
L 398.487273 183.683268 
L 398.435895 185.457415 
L 398.264116 187.231562 
L 397.95235 189.005709 
L 397.484804 190.779856 
L 396.850435 192.554002 
L 396.043644 194.328149 
L 395.06471 196.102296 
L 393.919944 197.876443 
L 392.621568 199.65059 
L 391.187291 201.424737 
L 389.639602 203.198884 
L 388.004771 204.973031 
L 386.311626 206.747178 
L 384.590173 208.521325 
L 382.870165 210.295472 
L 381.179724 212.069619 
L 379.544119 213.843766 
L 377.984792 215.617913 
L 376.518674 217.39206 
L 375.157806 219.166207 
L 373.909263 220.940354 
L 372.775337 222.714501 
L 371.753941 224.488648 
L 370.839182 226.262795 
L 370.022054 228.036941 
L 369.291236 229.811088 
L 368.633932 231.585235 
L 368.036748 233.359382 
L 367.486556 235.133529 
L 366.971301 236.907676 
L 366.480712 238.681823 
L 366.006843 240.45597 
L 365.544422 242.230117 
L 365.090944 244.004264 
L 364.646527 245.778411 
z
" clip-path="url(#p3b511c4176)" style="fill: #1f77b4; fill-opacity: 0.3"/>
   </g>
   <g id="matplotlib.axis_1">
    <g id="xtick_1">
     <g id="line2d_1">
      <defs>
       <path id="m807f961368" d="M 0 0 
L 0 3.5 
" style="stroke: #000000; stroke-width: 0.8"/>
      </defs>
      <g>
       <use xlink:href="#m807f961368" x="69.668354" y="307.584" style="stroke: #000000; stroke-width: 0.8"/>
      </g>
     </g>
     <g id="text_1">
      <!-- 250 -->
      <g transform="translate(60.124604 322.182437)scale(0.1 -0.1)">
       <defs>
        <path id="DejaVuSans-32" d="M 1228 531 
L 3431 531 
L 3431 0 
L 469 0 
L 469 531 
Q 828 903 1448 1529 
Q 2069 2156 2228 2338 
Q 2531 2678 2651 2914 
Q 2772 3150 2772 3378 
Q 2772 3750 2511 3984 
Q 2250 4219 1831 4219 
Q 1534 4219 1204 4116 
Q 875 4013 500 3803 
L 500 4441 
Q 881 4594 1212 4672 
Q 1544 4750 1819 4750 
Q 2544 4750 2975 4387 
Q 3406 4025 3406 3419 
Q 3406 3131 3298 2873 
Q 3191 2616 2906 2266 
Q 2828 2175 2409 1742 
Q 1991 1309 1228 531 
z
" transform="scale(0.015625)"/>
        <path id="DejaVuSans-35" d="M 691 4666 
L 3169 4666 
L 3169 4134 
L 1269 4134 
L 1269 2991 
Q 1406 3038 1543 3061 
Q 1681 3084 1819 3084 
Q 2600 3084 3056 2656 
Q 3513 2228 3513 1497 
Q 3513 744 3044 326 
Q 2575 -91 1722 -91 
Q 1428 -91 1123 -41 
Q 819 9 494 109 
L 494 744 
Q 775 591 1075 516 
Q 1375 441 1709 441 
Q 2250 441 2565 725 
Q 2881 1009 2881 1497 
Q 2881 1984 2565 2268 
Q 2250 2553 1709 2553 
Q 1456 2553 1204 2497 
Q 953 2441 691 2322 
L 691 4666 
z
" transform="scale(0.015625)"/>
        <path id="DejaVuSans-30" d="M 2034 4250 
Q 1547 4250 1301 3770 
Q 1056 3291 1056 2328 
Q 1056 1369 1301 889 
Q 1547 409 2034 409 
Q 2525 409 2770 889 
Q 3016 1369 3016 2328 
Q 3016 3291 2770 3770 
Q 2525 4250 2034 4250 
z
M 2034 4750 
Q 2819 4750 3233 4129 
Q 3647 3509 3647 2328 
Q 3647 1150 3233 529 
Q 2819 -91 2034 -91 
Q 1250 -91 836 529 
Q 422 1150 422 2328 
Q 422 3509 836 4129 
Q 1250 4750 2034 4750 
z
" transform="scale(0.015625)"/>
       </defs>
       <use xlink:href="#DejaVuSans-32"/>
       <use xlink:href="#DejaVuSans-35" x="63.623047"/>
       <use xlink:href="#DejaVuSans-30" x="127.246094"/>
      </g>
     </g>
    </g>
    <g id="xtick_2">
     <g id="line2d_2">
      <g>
       <use xlink:href="#m807f961368" x="111.312087" y="307.584" style="stroke: #000000; stroke-width: 0.8"/>
      </g>
     </g>
     <g id="text_2">
      <!-- 500 -->
      <g transform="translate(101.768337 322.182437)scale(0.1 -0.1)">
       <use xlink:href="#DejaVuSans-35"/>
       <use xlink:href="#DejaVuSans-30" x="63.623047"/>
       <use xlink:href="#DejaVuSans-30" x="127.246094"/>
      </g>
     </g>
    </g>
    <g id="xtick_3">
     <g id="line2d_3">
      <g>
       <use xlink:href="#m807f961368" x="152.955821" y="307.584" style="stroke: #000000; stroke-width: 0.8"/>
      </g>
     </g>
     <g id="text_3">
      <!-- 750 -->
      <g transform="translate(143.412071 322.182437)scale(0.1 -0.1)">
       <defs>
        <path id="DejaVuSans-37" d="M 525 4666 
L 3525 4666 
L 3525 4397 
L 1831 0 
L 1172 0 
L 2766 4134 
L 525 4134 
L 525 4666 
z
" transform="scale(0.015625)"/>
       </defs>
       <use xlink:href="#DejaVuSans-37"/>
       <use xlink:href="#DejaVuSans-35" x="63.623047"/>
       <use xlink:href="#DejaVuSans-30" x="127.246094"/>
      </g>
     </g>
    </g>
    <g id="xtick_4">
     <g id="line2d_4">
      <g>
       <use xlink:href="#m807f961368" x="194.599554" y="307.584" style="stroke: #000000; stroke-width: 0.8"/>
      </g>
     </g>
     <g id="text_4">
      <!-- 1000 -->
      <g transform="translate(181.874554 322.182437)scale(0.1 -0.1)">
       <defs>
        <path id="DejaVuSans-31" d="M 794 531 
L 1825 531 
L 1825 4091 
L 703 3866 
L 703 4441 
L 1819 4666 
L 2450 4666 
L 2450 531 
L 3481 531 
L 3481 0 
L 794 0 
L 794 531 
z
" transform="scale(0.015625)"/>
       </defs>
       <use xlink:href="#DejaVuSans-31"/>
       <use xlink:href="#DejaVuSans-30" x="63.623047"/>
       <use xlink:href="#DejaVuSans-30" x="127.246094"/>
       <use xlink:href="#DejaVuSans-30" x="190.869141"/>
      </g>
     </g>
    </g>
    <g id="xtick_5">
     <g id="line2d_5">
      <g>
       <use xlink:href="#m807f961368" x="236.243287" y="307.584" style="stroke: #000000; stroke-width: 0.8"/>
      </g>
     </g>
     <g id="text_5">
      <!-- 1250 -->
      <g transform="translate(223.518287 322.182437)scale(0.1 -0.1)">
       <use xlink:href="#DejaVuSans-31"/>
       <use xlink:href="#DejaVuSans-32" x="63.623047"/>
       <use xlink:href="#DejaVuSans-35" x="127.246094"/>
       <use xlink:href="#DejaVuSans-30" x="190.869141"/>
      </g>
     </g>
    </g>
    <g id="xtick_6">
     <g id="line2d_6">
      <g>
       <use xlink:href="#m807f961368" x="277.887021" y="307.584" style="stroke: #000000; stroke-width: 0.8"/>
      </g>
     </g>
     <g id="text_6">
      <!-- 1500 -->
      <g transform="translate(265.162021 322.182437)scale(0.1 -0.1)">
       <use xlink:href="#DejaVuSans-31"/>
       <use xlink:href="#DejaVuSans-35" x="63.623047"/>
       <use xlink:href="#DejaVuSans-30" x="127.246094"/>
       <use xlink:href="#DejaVuSans-30" x="190.869141"/>
      </g>
     </g>
    </g>
    <g id="xtick_7">
     <g id="line2d_7">
      <g>
       <use xlink:href="#m807f961368" x="319.530754" y="307.584" style="stroke: #000000; stroke-width: 0.8"/>
      </g>
     </g>
     <g id="text_7">
      <!-- 1750 -->
      <g transform="translate(306.805754 322.182437)scale(0.1 -0.1)">
       <use xlink:href="#DejaVuSans-31"/>
       <use xlink:href="#DejaVuSans-37" x="63.623047"/>
       <use xlink:href="#DejaVuSans-35" x="127.246094"/>
       <use xlink:href="#DejaVuSans-30" x="190.869141"/>
      </g>
     </g>
    </g>
    <g id="xtick_8">
     <g id="line2d_8">
      <g>
       <use xlink:href="#m807f961368" x="361.174488" y="307.584" style="stroke: #000000; stroke-width: 0.8"/>
      </g>
     </g>
     <g id="text_8">
      <!-- 2000 -->
      <g transform="translate(348.449488 322.182437)scale(0.1 -0.1)">
       <use xlink:href="#DejaVuSans-32"/>
       <use xlink:href="#DejaVuSans-30" x="63.623047"/>
       <use xlink:href="#DejaVuSans-30" x="127.246094"/>
       <use xlink:href="#DejaVuSans-30" x="190.869141"/>
      </g>
     </g>
    </g>
    <g id="xtick_9">
     <g id="line2d_9">
      <g>
       <use xlink:href="#m807f961368" x="402.818221" y="307.584" style="stroke: #000000; stroke-width: 0.8"/>
      </g>
     </g>
     <g id="text_9">
      <!-- 2250 -->
      <g transform="translate(390.093221 322.182437)scale(0.1 -0.1)">
       <use xlink:href="#DejaVuSans-32"/>
       <use xlink:href="#DejaVuSans-32" x="63.623047"/>
       <use xlink:href="#DejaVuSans-35" x="127.246094"/>
       <use xlink:href="#DejaVuSans-30" x="190.869141"/>
      </g>
     </g>
    </g>
    <g id="text_10">
     <!-- Learned Episodes -->
     <g transform="translate(192.102187 335.860562)scale(0.1 -0.1)">
      <defs>
       <path id="DejaVuSans-4c" d="M 628 4666 
L 1259 4666 
L 1259 531 
L 3531 531 
L 3531 0 
L 628 0 
L 628 4666 
z
" transform="scale(0.015625)"/>
       <path id="DejaVuSans-65" d="M 3597 1894 
L 3597 1613 
L 953 1613 
Q 991 1019 1311 708 
Q 1631 397 2203 397 
Q 2534 397 2845 478 
Q 3156 559 3463 722 
L 3463 178 
Q 3153 47 2828 -22 
Q 2503 -91 2169 -91 
Q 1331 -91 842 396 
Q 353 884 353 1716 
Q 353 2575 817 3079 
Q 1281 3584 2069 3584 
Q 2775 3584 3186 3129 
Q 3597 2675 3597 1894 
z
M 3022 2063 
Q 3016 2534 2758 2815 
Q 2500 3097 2075 3097 
Q 1594 3097 1305 2825 
Q 1016 2553 972 2059 
L 3022 2063 
z
" transform="scale(0.015625)"/>
       <path id="DejaVuSans-61" d="M 2194 1759 
Q 1497 1759 1228 1600 
Q 959 1441 959 1056 
Q 959 750 1161 570 
Q 1363 391 1709 391 
Q 2188 391 2477 730 
Q 2766 1069 2766 1631 
L 2766 1759 
L 2194 1759 
z
M 3341 1997 
L 3341 0 
L 2766 0 
L 2766 531 
Q 2569 213 2275 61 
Q 1981 -91 1556 -91 
Q 1019 -91 701 211 
Q 384 513 384 1019 
Q 384 1609 779 1909 
Q 1175 2209 1959 2209 
L 2766 2209 
L 2766 2266 
Q 2766 2663 2505 2880 
Q 2244 3097 1772 3097 
Q 1472 3097 1187 3025 
Q 903 2953 641 2809 
L 641 3341 
Q 956 3463 1253 3523 
Q 1550 3584 1831 3584 
Q 2591 3584 2966 3190 
Q 3341 2797 3341 1997 
z
" transform="scale(0.015625)"/>
       <path id="DejaVuSans-72" d="M 2631 2963 
Q 2534 3019 2420 3045 
Q 2306 3072 2169 3072 
Q 1681 3072 1420 2755 
Q 1159 2438 1159 1844 
L 1159 0 
L 581 0 
L 581 3500 
L 1159 3500 
L 1159 2956 
Q 1341 3275 1631 3429 
Q 1922 3584 2338 3584 
Q 2397 3584 2469 3576 
Q 2541 3569 2628 3553 
L 2631 2963 
z
" transform="scale(0.015625)"/>
       <path id="DejaVuSans-6e" d="M 3513 2113 
L 3513 0 
L 2938 0 
L 2938 2094 
Q 2938 2591 2744 2837 
Q 2550 3084 2163 3084 
Q 1697 3084 1428 2787 
Q 1159 2491 1159 1978 
L 1159 0 
L 581 0 
L 581 3500 
L 1159 3500 
L 1159 2956 
Q 1366 3272 1645 3428 
Q 1925 3584 2291 3584 
Q 2894 3584 3203 3211 
Q 3513 2838 3513 2113 
z
" transform="scale(0.015625)"/>
       <path id="DejaVuSans-64" d="M 2906 2969 
L 2906 4863 
L 3481 4863 
L 3481 0 
L 2906 0 
L 2906 525 
Q 2725 213 2448 61 
Q 2172 -91 1784 -91 
Q 1150 -91 751 415 
Q 353 922 353 1747 
Q 353 2572 751 3078 
Q 1150 3584 1784 3584 
Q 2172 3584 2448 3432 
Q 2725 3281 2906 2969 
z
M 947 1747 
Q 947 1113 1208 752 
Q 1469 391 1925 391 
Q 2381 391 2643 752 
Q 2906 1113 2906 1747 
Q 2906 2381 2643 2742 
Q 2381 3103 1925 3103 
Q 1469 3103 1208 2742 
Q 947 2381 947 1747 
z
" transform="scale(0.015625)"/>
       <path id="DejaVuSans-20" transform="scale(0.015625)"/>
       <path id="DejaVuSans-45" d="M 628 4666 
L 3578 4666 
L 3578 4134 
L 1259 4134 
L 1259 2753 
L 3481 2753 
L 3481 2222 
L 1259 2222 
L 1259 531 
L 3634 531 
L 3634 0 
L 628 0 
L 628 4666 
z
" transform="scale(0.015625)"/>
       <path id="DejaVuSans-70" d="M 1159 525 
L 1159 -1331 
L 581 -1331 
L 581 3500 
L 1159 3500 
L 1159 2969 
Q 1341 3281 1617 3432 
Q 1894 3584 2278 3584 
Q 2916 3584 3314 3078 
Q 3713 2572 3713 1747 
Q 3713 922 3314 415 
Q 2916 -91 2278 -91 
Q 1894 -91 1617 61 
Q 1341 213 1159 525 
z
M 3116 1747 
Q 3116 2381 2855 2742 
Q 2594 3103 2138 3103 
Q 1681 3103 1420 2742 
Q 1159 2381 1159 1747 
Q 1159 1113 1420 752 
Q 1681 391 2138 391 
Q 2594 391 2855 752 
Q 3116 1113 3116 1747 
z
" transform="scale(0.015625)"/>
       <path id="DejaVuSans-69" d="M 603 3500 
L 1178 3500 
L 1178 0 
L 603 0 
L 603 3500 
z
M 603 4863 
L 1178 4863 
L 1178 4134 
L 603 4134 
L 603 4863 
z
" transform="scale(0.015625)"/>
       <path id="DejaVuSans-73" d="M 2834 3397 
L 2834 2853 
Q 2591 2978 2328 3040 
Q 2066 3103 1784 3103 
Q 1356 3103 1142 2972 
Q 928 2841 928 2578 
Q 928 2378 1081 2264 
Q 1234 2150 1697 2047 
L 1894 2003 
Q 2506 1872 2764 1633 
Q 3022 1394 3022 966 
Q 3022 478 2636 193 
Q 2250 -91 1575 -91 
Q 1294 -91 989 -36 
Q 684 19 347 128 
L 347 722 
Q 666 556 975 473 
Q 1284 391 1588 391 
Q 1994 391 2212 530 
Q 2431 669 2431 922 
Q 2431 1156 2273 1281 
Q 2116 1406 1581 1522 
L 1381 1569 
Q 847 1681 609 1914 
Q 372 2147 372 2553 
Q 372 3047 722 3315 
Q 1072 3584 1716 3584 
Q 2034 3584 2315 3537 
Q 2597 3491 2834 3397 
z
" transform="scale(0.015625)"/>
       <path id="DejaVuSans-6f" d="M 1959 3097 
Q 1497 3097 1228 2736 
Q 959 2375 959 1747 
Q 959 1119 1226 758 
Q 1494 397 1959 397 
Q 2419 397 2687 759 
Q 2956 1122 2956 1747 
Q 2956 2369 2687 2733 
Q 2419 3097 1959 3097 
z
M 1959 3584 
Q 2709 3584 3137 3096 
Q 3566 2609 3566 1747 
Q 3566 888 3137 398 
Q 2709 -91 1959 -91 
Q 1206 -91 779 398 
Q 353 888 353 1747 
Q 353 2609 779 3096 
Q 1206 3584 1959 3584 
z
" transform="scale(0.015625)"/>
      </defs>
      <use xlink:href="#DejaVuSans-4c"/>
      <use xlink:href="#DejaVuSans-65" x="53.962891"/>
      <use xlink:href="#DejaVuSans-61" x="115.486328"/>
      <use xlink:href="#DejaVuSans-72" x="176.765625"/>
      <use xlink:href="#DejaVuSans-6e" x="216.128906"/>
      <use xlink:href="#DejaVuSans-65" x="279.507812"/>
      <use xlink:href="#DejaVuSans-64" x="341.03125"/>
      <use xlink:href="#DejaVuSans-20" x="404.507812"/>
      <use xlink:href="#DejaVuSans-45" x="436.294922"/>
      <use xlink:href="#DejaVuSans-70" x="499.478516"/>
      <use xlink:href="#DejaVuSans-69" x="562.955078"/>
      <use xlink:href="#DejaVuSans-73" x="590.738281"/>
      <use xlink:href="#DejaVuSans-6f" x="642.837891"/>
      <use xlink:href="#DejaVuSans-64" x="704.019531"/>
      <use xlink:href="#DejaVuSans-65" x="767.496094"/>
      <use xlink:href="#DejaVuSans-73" x="829.019531"/>
     </g>
    </g>
   </g>
   <g id="matplotlib.axis_2">
    <g id="ytick_1">
     <g id="line2d_10">
      <defs>
       <path id="m3683608205" d="M 0 0 
L -3.5 0 
" style="stroke: #000000; stroke-width: 0.8"/>
      </defs>
      <g>
       <use xlink:href="#m3683608205" x="57.6" y="294.383342" style="stroke: #000000; stroke-width: 0.8"/>
      </g>
     </g>
     <g id="text_11">
      <!-- 50 -->
      <g transform="translate(37.875 298.182561)scale(0.1 -0.1)">
       <use xlink:href="#DejaVuSans-35"/>
       <use xlink:href="#DejaVuSans-30" x="63.623047"/>
      </g>
     </g>
    </g>
    <g id="ytick_2">
     <g id="line2d_11">
      <g>
       <use xlink:href="#m3683608205" x="57.6" y="239.150466" style="stroke: #000000; stroke-width: 0.8"/>
      </g>
     </g>
     <g id="text_12">
      <!-- 100 -->
      <g transform="translate(31.5125 242.949685)scale(0.1 -0.1)">
       <use xlink:href="#DejaVuSans-31"/>
       <use xlink:href="#DejaVuSans-30" x="63.623047"/>
       <use xlink:href="#DejaVuSans-30" x="127.246094"/>
      </g>
     </g>
    </g>
    <g id="ytick_3">
     <g id="line2d_12">
      <g>
       <use xlink:href="#m3683608205" x="57.6" y="183.917589" style="stroke: #000000; stroke-width: 0.8"/>
      </g>
     </g>
     <g id="text_13">
      <!-- 150 -->
      <g transform="translate(31.5125 187.716808)scale(0.1 -0.1)">
       <use xlink:href="#DejaVuSans-31"/>
       <use xlink:href="#DejaVuSans-35" x="63.623047"/>
       <use xlink:href="#DejaVuSans-30" x="127.246094"/>
      </g>
     </g>
    </g>
    <g id="ytick_4">
     <g id="line2d_13">
      <g>
       <use xlink:href="#m3683608205" x="57.6" y="128.684712" style="stroke: #000000; stroke-width: 0.8"/>
      </g>
     </g>
     <g id="text_14">
      <!-- 200 -->
      <g transform="translate(31.5125 132.483931)scale(0.1 -0.1)">
       <use xlink:href="#DejaVuSans-32"/>
       <use xlink:href="#DejaVuSans-30" x="63.623047"/>
       <use xlink:href="#DejaVuSans-30" x="127.246094"/>
      </g>
     </g>
    </g>
    <g id="ytick_5">
     <g id="line2d_14">
      <g>
       <use xlink:href="#m3683608205" x="57.6" y="73.451836" style="stroke: #000000; stroke-width: 0.8"/>
      </g>
     </g>
     <g id="text_15">
      <!-- 250 -->
      <g transform="translate(31.5125 77.251054)scale(0.1 -0.1)">
       <use xlink:href="#DejaVuSans-32"/>
       <use xlink:href="#DejaVuSans-35" x="63.623047"/>
       <use xlink:href="#DejaVuSans-30" x="127.246094"/>
      </g>
     </g>
    </g>
    <g id="text_16">
     <!-- Reward Density -->
     <g transform="translate(25.432812 213.74675)rotate(-90)scale(0.1 -0.1)">
      <defs>
       <path id="DejaVuSans-52" d="M 2841 2188 
Q 3044 2119 3236 1894 
Q 3428 1669 3622 1275 
L 4263 0 
L 3584 0 
L 2988 1197 
Q 2756 1666 2539 1819 
Q 2322 1972 1947 1972 
L 1259 1972 
L 1259 0 
L 628 0 
L 628 4666 
L 2053 4666 
Q 2853 4666 3247 4331 
Q 3641 3997 3641 3322 
Q 3641 2881 3436 2590 
Q 3231 2300 2841 2188 
z
M 1259 4147 
L 1259 2491 
L 2053 2491 
Q 2509 2491 2742 2702 
Q 2975 2913 2975 3322 
Q 2975 3731 2742 3939 
Q 2509 4147 2053 4147 
L 1259 4147 
z
" transform="scale(0.015625)"/>
       <path id="DejaVuSans-77" d="M 269 3500 
L 844 3500 
L 1563 769 
L 2278 3500 
L 2956 3500 
L 3675 769 
L 4391 3500 
L 4966 3500 
L 4050 0 
L 3372 0 
L 2619 2869 
L 1863 0 
L 1184 0 
L 269 3500 
z
" transform="scale(0.015625)"/>
       <path id="DejaVuSans-44" d="M 1259 4147 
L 1259 519 
L 2022 519 
Q 2988 519 3436 956 
Q 3884 1394 3884 2338 
Q 3884 3275 3436 3711 
Q 2988 4147 2022 4147 
L 1259 4147 
z
M 628 4666 
L 1925 4666 
Q 3281 4666 3915 4102 
Q 4550 3538 4550 2338 
Q 4550 1131 3912 565 
Q 3275 0 1925 0 
L 628 0 
L 628 4666 
z
" transform="scale(0.015625)"/>
       <path id="DejaVuSans-74" d="M 1172 4494 
L 1172 3500 
L 2356 3500 
L 2356 3053 
L 1172 3053 
L 1172 1153 
Q 1172 725 1289 603 
Q 1406 481 1766 481 
L 2356 481 
L 2356 0 
L 1766 0 
Q 1100 0 847 248 
Q 594 497 594 1153 
L 594 3053 
L 172 3053 
L 172 3500 
L 594 3500 
L 594 4494 
L 1172 4494 
z
" transform="scale(0.015625)"/>
       <path id="DejaVuSans-79" d="M 2059 -325 
Q 1816 -950 1584 -1140 
Q 1353 -1331 966 -1331 
L 506 -1331 
L 506 -850 
L 844 -850 
Q 1081 -850 1212 -737 
Q 1344 -625 1503 -206 
L 1606 56 
L 191 3500 
L 800 3500 
L 1894 763 
L 2988 3500 
L 3597 3500 
L 2059 -325 
z
" transform="scale(0.015625)"/>
      </defs>
      <use xlink:href="#DejaVuSans-52"/>
      <use xlink:href="#DejaVuSans-65" x="64.982422"/>
      <use xlink:href="#DejaVuSans-77" x="126.505859"/>
      <use xlink:href="#DejaVuSans-61" x="208.292969"/>
      <use xlink:href="#DejaVuSans-72" x="269.572266"/>
      <use xlink:href="#DejaVuSans-64" x="308.935547"/>
      <use xlink:href="#DejaVuSans-20" x="372.412109"/>
      <use xlink:href="#DejaVuSans-44" x="404.199219"/>
      <use xlink:href="#DejaVuSans-65" x="481.201172"/>
      <use xlink:href="#DejaVuSans-6e" x="542.724609"/>
      <use xlink:href="#DejaVuSans-73" x="606.103516"/>
      <use xlink:href="#DejaVuSans-69" x="658.203125"/>
      <use xlink:href="#DejaVuSans-74" x="685.986328"/>
      <use xlink:href="#DejaVuSans-79" x="725.195312"/>
     </g>
    </g>
   </g>
   <g id="LineCollection_1">
    <path d="M 92.572407 200.823268 
L 130.051767 200.823268 
" clip-path="url(#p3b511c4176)" style="fill: none; stroke: #1f77b4; stroke-width: 1.5"/>
    <path d="M 175.859874 168.341918 
L 213.339234 168.341918 
" clip-path="url(#p3b511c4176)" style="fill: none; stroke: #1f77b4; stroke-width: 1.5"/>
    <path d="M 259.147341 156.177429 
L 296.626701 156.177429 
" clip-path="url(#p3b511c4176)" style="fill: none; stroke: #1f77b4; stroke-width: 1.5"/>
    <path d="M 342.268233 167.170981 
L 379.747593 167.170981 
" clip-path="url(#p3b511c4176)" style="fill: none; stroke: #1f77b4; stroke-width: 1.5"/>
   </g>
   <g id="LineCollection_2">
    <path d="M 92.572407 97.754301 
L 130.051767 97.754301 
" clip-path="url(#p3b511c4176)" style="fill: none; stroke: #1f77b4; stroke-width: 1.5"/>
    <path d="M 175.859874 78.975123 
L 213.339234 78.975123 
" clip-path="url(#p3b511c4176)" style="fill: none; stroke: #1f77b4; stroke-width: 1.5"/>
    <path d="M 259.147341 53.568 
L 296.626701 53.568 
" clip-path="url(#p3b511c4176)" style="fill: none; stroke: #1f77b4; stroke-width: 1.5"/>
    <path d="M 342.268233 70.137863 
L 379.747593 70.137863 
" clip-path="url(#p3b511c4176)" style="fill: none; stroke: #1f77b4; stroke-width: 1.5"/>
   </g>
   <g id="LineCollection_3">
    <path d="M 92.572407 295.488 
L 130.051767 295.488 
" clip-path="url(#p3b511c4176)" style="fill: none; stroke: #1f77b4; stroke-width: 1.5"/>
    <path d="M 175.859874 259.034301 
L 213.339234 259.034301 
" clip-path="url(#p3b511c4176)" style="fill: none; stroke: #1f77b4; stroke-width: 1.5"/>
    <path d="M 259.147341 254.615671 
L 296.626701 254.615671 
" clip-path="url(#p3b511c4176)" style="fill: none; stroke: #1f77b4; stroke-width: 1.5"/>
    <path d="M 342.268233 245.778411 
L 379.747593 245.778411 
" clip-path="url(#p3b511c4176)" style="fill: none; stroke: #1f77b4; stroke-width: 1.5"/>
   </g>
   <g id="LineCollection_4">
    <path d="M 111.312087 295.488 
L 111.312087 97.754301 
" clip-path="url(#p3b511c4176)" style="fill: none; stroke: #1f77b4; stroke-width: 1.5"/>
    <path d="M 194.599554 259.034301 
L 194.599554 78.975123 
" clip-path="url(#p3b511c4176)" style="fill: none; stroke: #1f77b4; stroke-width: 1.5"/>
    <path d="M 277.887021 254.615671 
L 277.887021 53.568 
" clip-path="url(#p3b511c4176)" style="fill: none; stroke: #1f77b4; stroke-width: 1.5"/>
    <path d="M 361.007913 245.778411 
L 361.007913 70.137863 
" clip-path="url(#p3b511c4176)" style="fill: none; stroke: #1f77b4; stroke-width: 1.5"/>
   </g>
   <g id="line2d_15">
    <path d="M 111.312087 200.823268 
L 194.599554 168.341918 
L 277.887021 156.177429 
L 361.007913 167.170981 
" clip-path="url(#p3b511c4176)" style="fill: none; stroke: #4682b4; stroke-width: 1.5; stroke-linecap: square"/>
   </g>
   <g id="patch_3">
    <path d="M 57.6 307.584 
L 57.6 41.472 
" style="fill: none; stroke: #000000; stroke-width: 0.8; stroke-linejoin: miter; stroke-linecap: square"/>
   </g>
   <g id="patch_4">
    <path d="M 414.72 307.584 
L 414.72 41.472 
" style="fill: none; stroke: #000000; stroke-width: 0.8; stroke-linejoin: miter; stroke-linecap: square"/>
   </g>
   <g id="patch_5">
    <path d="M 57.6 307.584 
L 414.72 307.584 
" style="fill: none; stroke: #000000; stroke-width: 0.8; stroke-linejoin: miter; stroke-linecap: square"/>
   </g>
   <g id="patch_6">
    <path d="M 57.6 41.472 
L 414.72 41.472 
" style="fill: none; stroke: #000000; stroke-width: 0.8; stroke-linejoin: miter; stroke-linecap: square"/>
   </g>
   <g id="text_17">
    <!-- Violinplot for progress of customer/purchases_refurbished -->
    <g transform="translate(62.41125 35.472)scale(0.12 -0.12)">
     <defs>
      <path id="DejaVuSans-56" d="M 1831 0 
L 50 4666 
L 709 4666 
L 2188 738 
L 3669 4666 
L 4325 4666 
L 2547 0 
L 1831 0 
z
" transform="scale(0.015625)"/>
      <path id="DejaVuSans-6c" d="M 603 4863 
L 1178 4863 
L 1178 0 
L 603 0 
L 603 4863 
z
" transform="scale(0.015625)"/>
      <path id="DejaVuSans-66" d="M 2375 4863 
L 2375 4384 
L 1825 4384 
Q 1516 4384 1395 4259 
Q 1275 4134 1275 3809 
L 1275 3500 
L 2222 3500 
L 2222 3053 
L 1275 3053 
L 1275 0 
L 697 0 
L 697 3053 
L 147 3053 
L 147 3500 
L 697 3500 
L 697 3744 
Q 697 4328 969 4595 
Q 1241 4863 1831 4863 
L 2375 4863 
z
" transform="scale(0.015625)"/>
      <path id="DejaVuSans-67" d="M 2906 1791 
Q 2906 2416 2648 2759 
Q 2391 3103 1925 3103 
Q 1463 3103 1205 2759 
Q 947 2416 947 1791 
Q 947 1169 1205 825 
Q 1463 481 1925 481 
Q 2391 481 2648 825 
Q 2906 1169 2906 1791 
z
M 3481 434 
Q 3481 -459 3084 -895 
Q 2688 -1331 1869 -1331 
Q 1566 -1331 1297 -1286 
Q 1028 -1241 775 -1147 
L 775 -588 
Q 1028 -725 1275 -790 
Q 1522 -856 1778 -856 
Q 2344 -856 2625 -561 
Q 2906 -266 2906 331 
L 2906 616 
Q 2728 306 2450 153 
Q 2172 0 1784 0 
Q 1141 0 747 490 
Q 353 981 353 1791 
Q 353 2603 747 3093 
Q 1141 3584 1784 3584 
Q 2172 3584 2450 3431 
Q 2728 3278 2906 2969 
L 2906 3500 
L 3481 3500 
L 3481 434 
z
" transform="scale(0.015625)"/>
      <path id="DejaVuSans-63" d="M 3122 3366 
L 3122 2828 
Q 2878 2963 2633 3030 
Q 2388 3097 2138 3097 
Q 1578 3097 1268 2742 
Q 959 2388 959 1747 
Q 959 1106 1268 751 
Q 1578 397 2138 397 
Q 2388 397 2633 464 
Q 2878 531 3122 666 
L 3122 134 
Q 2881 22 2623 -34 
Q 2366 -91 2075 -91 
Q 1284 -91 818 406 
Q 353 903 353 1747 
Q 353 2603 823 3093 
Q 1294 3584 2113 3584 
Q 2378 3584 2631 3529 
Q 2884 3475 3122 3366 
z
" transform="scale(0.015625)"/>
      <path id="DejaVuSans-75" d="M 544 1381 
L 544 3500 
L 1119 3500 
L 1119 1403 
Q 1119 906 1312 657 
Q 1506 409 1894 409 
Q 2359 409 2629 706 
Q 2900 1003 2900 1516 
L 2900 3500 
L 3475 3500 
L 3475 0 
L 2900 0 
L 2900 538 
Q 2691 219 2414 64 
Q 2138 -91 1772 -91 
Q 1169 -91 856 284 
Q 544 659 544 1381 
z
M 1991 3584 
L 1991 3584 
z
" transform="scale(0.015625)"/>
      <path id="DejaVuSans-6d" d="M 3328 2828 
Q 3544 3216 3844 3400 
Q 4144 3584 4550 3584 
Q 5097 3584 5394 3201 
Q 5691 2819 5691 2113 
L 5691 0 
L 5113 0 
L 5113 2094 
Q 5113 2597 4934 2840 
Q 4756 3084 4391 3084 
Q 3944 3084 3684 2787 
Q 3425 2491 3425 1978 
L 3425 0 
L 2847 0 
L 2847 2094 
Q 2847 2600 2669 2842 
Q 2491 3084 2119 3084 
Q 1678 3084 1418 2786 
Q 1159 2488 1159 1978 
L 1159 0 
L 581 0 
L 581 3500 
L 1159 3500 
L 1159 2956 
Q 1356 3278 1631 3431 
Q 1906 3584 2284 3584 
Q 2666 3584 2933 3390 
Q 3200 3197 3328 2828 
z
" transform="scale(0.015625)"/>
      <path id="DejaVuSans-2f" d="M 1625 4666 
L 2156 4666 
L 531 -594 
L 0 -594 
L 1625 4666 
z
" transform="scale(0.015625)"/>
      <path id="DejaVuSans-68" d="M 3513 2113 
L 3513 0 
L 2938 0 
L 2938 2094 
Q 2938 2591 2744 2837 
Q 2550 3084 2163 3084 
Q 1697 3084 1428 2787 
Q 1159 2491 1159 1978 
L 1159 0 
L 581 0 
L 581 4863 
L 1159 4863 
L 1159 2956 
Q 1366 3272 1645 3428 
Q 1925 3584 2291 3584 
Q 2894 3584 3203 3211 
Q 3513 2838 3513 2113 
z
" transform="scale(0.015625)"/>
      <path id="DejaVuSans-5f" d="M 3263 -1063 
L 3263 -1509 
L -63 -1509 
L -63 -1063 
L 3263 -1063 
z
" transform="scale(0.015625)"/>
      <path id="DejaVuSans-62" d="M 3116 1747 
Q 3116 2381 2855 2742 
Q 2594 3103 2138 3103 
Q 1681 3103 1420 2742 
Q 1159 2381 1159 1747 
Q 1159 1113 1420 752 
Q 1681 391 2138 391 
Q 2594 391 2855 752 
Q 3116 1113 3116 1747 
z
M 1159 2969 
Q 1341 3281 1617 3432 
Q 1894 3584 2278 3584 
Q 2916 3584 3314 3078 
Q 3713 2572 3713 1747 
Q 3713 922 3314 415 
Q 2916 -91 2278 -91 
Q 1894 -91 1617 61 
Q 1341 213 1159 525 
L 1159 0 
L 581 0 
L 581 4863 
L 1159 4863 
L 1159 2969 
z
" transform="scale(0.015625)"/>
     </defs>
     <use xlink:href="#DejaVuSans-56"/>
     <use xlink:href="#DejaVuSans-69" x="66.158203"/>
     <use xlink:href="#DejaVuSans-6f" x="93.941406"/>
     <use xlink:href="#DejaVuSans-6c" x="155.123047"/>
     <use xlink:href="#DejaVuSans-69" x="182.90625"/>
     <use xlink:href="#DejaVuSans-6e" x="210.689453"/>
     <use xlink:href="#DejaVuSans-70" x="274.068359"/>
     <use xlink:href="#DejaVuSans-6c" x="337.544922"/>
     <use xlink:href="#DejaVuSans-6f" x="365.328125"/>
     <use xlink:href="#DejaVuSans-74" x="426.509766"/>
     <use xlink:href="#DejaVuSans-20" x="465.71875"/>
     <use xlink:href="#DejaVuSans-66" x="497.505859"/>
     <use xlink:href="#DejaVuSans-6f" x="532.710938"/>
     <use xlink:href="#DejaVuSans-72" x="593.892578"/>
     <use xlink:href="#DejaVuSans-20" x="635.005859"/>
     <use xlink:href="#DejaVuSans-70" x="666.792969"/>
     <use xlink:href="#DejaVuSans-72" x="730.269531"/>
     <use xlink:href="#DejaVuSans-6f" x="769.132812"/>
     <use xlink:href="#DejaVuSans-67" x="830.314453"/>
     <use xlink:href="#DejaVuSans-72" x="893.791016"/>
     <use xlink:href="#DejaVuSans-65" x="932.654297"/>
     <use xlink:href="#DejaVuSans-73" x="994.177734"/>
     <use xlink:href="#DejaVuSans-73" x="1046.277344"/>
     <use xlink:href="#DejaVuSans-20" x="1098.376953"/>
     <use xlink:href="#DejaVuSans-6f" x="1130.164062"/>
     <use xlink:href="#DejaVuSans-66" x="1191.345703"/>
     <use xlink:href="#DejaVuSans-20" x="1226.550781"/>
     <use xlink:href="#DejaVuSans-63" x="1258.337891"/>
     <use xlink:href="#DejaVuSans-75" x="1313.318359"/>
     <use xlink:href="#DejaVuSans-73" x="1376.697266"/>
     <use xlink:href="#DejaVuSans-74" x="1428.796875"/>
     <use xlink:href="#DejaVuSans-6f" x="1468.005859"/>
     <use xlink:href="#DejaVuSans-6d" x="1529.1875"/>
     <use xlink:href="#DejaVuSans-65" x="1626.599609"/>
     <use xlink:href="#DejaVuSans-72" x="1688.123047"/>
     <use xlink:href="#DejaVuSans-2f" x="1729.236328"/>
     <use xlink:href="#DejaVuSans-70" x="1762.927734"/>
     <use xlink:href="#DejaVuSans-75" x="1826.404297"/>
     <use xlink:href="#DejaVuSans-72" x="1889.783203"/>
     <use xlink:href="#DejaVuSans-63" x="1928.646484"/>
     <use xlink:href="#DejaVuSans-68" x="1983.626953"/>
     <use xlink:href="#DejaVuSans-61" x="2047.005859"/>
     <use xlink:href="#DejaVuSans-73" x="2108.285156"/>
     <use xlink:href="#DejaVuSans-65" x="2160.384766"/>
     <use xlink:href="#DejaVuSans-73" x="2221.908203"/>
     <use xlink:href="#DejaVuSans-5f" x="2274.007812"/>
     <use xlink:href="#DejaVuSans-72" x="2324.007812"/>
     <use xlink:href="#DejaVuSans-65" x="2362.871094"/>
     <use xlink:href="#DejaVuSans-66" x="2424.394531"/>
     <use xlink:href="#DejaVuSans-75" x="2459.599609"/>
     <use xlink:href="#DejaVuSans-72" x="2522.978516"/>
     <use xlink:href="#DejaVuSans-62" x="2564.091797"/>
     <use xlink:href="#DejaVuSans-69" x="2627.568359"/>
     <use xlink:href="#DejaVuSans-73" x="2655.351562"/>
     <use xlink:href="#DejaVuSans-68" x="2707.451172"/>
     <use xlink:href="#DejaVuSans-65" x="2770.830078"/>
     <use xlink:href="#DejaVuSans-64" x="2832.353516"/>
    </g>
   </g>
   <g id="legend_1">
    <g id="patch_7">
     <path d="M 276.25125 64.150125 
L 407.72 64.150125 
Q 409.72 64.150125 409.72 62.150125 
L 409.72 48.472 
Q 409.72 46.472 407.72 46.472 
L 276.25125 46.472 
Q 274.25125 46.472 274.25125 48.472 
L 274.25125 62.150125 
Q 274.25125 64.150125 276.25125 64.150125 
z
" style="fill: #ffffff; opacity: 0.8; stroke: #cccccc; stroke-linejoin: miter"/>
    </g>
    <g id="line2d_16">
     <path d="M 278.25125 54.570438 
L 288.25125 54.570438 
L 298.25125 54.570438 
" style="fill: none; stroke: #4682b4; stroke-width: 1.5; stroke-linecap: square"/>
    </g>
    <g id="text_18">
     <!-- StableBaselinesSAC -->
     <g transform="translate(306.25125 58.070438)scale(0.1 -0.1)">
      <defs>
       <path id="DejaVuSans-53" d="M 3425 4513 
L 3425 3897 
Q 3066 4069 2747 4153 
Q 2428 4238 2131 4238 
Q 1616 4238 1336 4038 
Q 1056 3838 1056 3469 
Q 1056 3159 1242 3001 
Q 1428 2844 1947 2747 
L 2328 2669 
Q 3034 2534 3370 2195 
Q 3706 1856 3706 1288 
Q 3706 609 3251 259 
Q 2797 -91 1919 -91 
Q 1588 -91 1214 -16 
Q 841 59 441 206 
L 441 856 
Q 825 641 1194 531 
Q 1563 422 1919 422 
Q 2459 422 2753 634 
Q 3047 847 3047 1241 
Q 3047 1584 2836 1778 
Q 2625 1972 2144 2069 
L 1759 2144 
Q 1053 2284 737 2584 
Q 422 2884 422 3419 
Q 422 4038 858 4394 
Q 1294 4750 2059 4750 
Q 2388 4750 2728 4690 
Q 3069 4631 3425 4513 
z
" transform="scale(0.015625)"/>
       <path id="DejaVuSans-42" d="M 1259 2228 
L 1259 519 
L 2272 519 
Q 2781 519 3026 730 
Q 3272 941 3272 1375 
Q 3272 1813 3026 2020 
Q 2781 2228 2272 2228 
L 1259 2228 
z
M 1259 4147 
L 1259 2741 
L 2194 2741 
Q 2656 2741 2882 2914 
Q 3109 3088 3109 3444 
Q 3109 3797 2882 3972 
Q 2656 4147 2194 4147 
L 1259 4147 
z
M 628 4666 
L 2241 4666 
Q 2963 4666 3353 4366 
Q 3744 4066 3744 3513 
Q 3744 3084 3544 2831 
Q 3344 2578 2956 2516 
Q 3422 2416 3680 2098 
Q 3938 1781 3938 1306 
Q 3938 681 3513 340 
Q 3088 0 2303 0 
L 628 0 
L 628 4666 
z
" transform="scale(0.015625)"/>
       <path id="DejaVuSans-41" d="M 2188 4044 
L 1331 1722 
L 3047 1722 
L 2188 4044 
z
M 1831 4666 
L 2547 4666 
L 4325 0 
L 3669 0 
L 3244 1197 
L 1141 1197 
L 716 0 
L 50 0 
L 1831 4666 
z
" transform="scale(0.015625)"/>
       <path id="DejaVuSans-43" d="M 4122 4306 
L 4122 3641 
Q 3803 3938 3442 4084 
Q 3081 4231 2675 4231 
Q 1875 4231 1450 3742 
Q 1025 3253 1025 2328 
Q 1025 1406 1450 917 
Q 1875 428 2675 428 
Q 3081 428 3442 575 
Q 3803 722 4122 1019 
L 4122 359 
Q 3791 134 3420 21 
Q 3050 -91 2638 -91 
Q 1578 -91 968 557 
Q 359 1206 359 2328 
Q 359 3453 968 4101 
Q 1578 4750 2638 4750 
Q 3056 4750 3426 4639 
Q 3797 4528 4122 4306 
z
" transform="scale(0.015625)"/>
      </defs>
      <use xlink:href="#DejaVuSans-53"/>
      <use xlink:href="#DejaVuSans-74" x="63.476562"/>
      <use xlink:href="#DejaVuSans-61" x="102.685547"/>
      <use xlink:href="#DejaVuSans-62" x="163.964844"/>
      <use xlink:href="#DejaVuSans-6c" x="227.441406"/>
      <use xlink:href="#DejaVuSans-65" x="255.224609"/>
      <use xlink:href="#DejaVuSans-42" x="316.748047"/>
      <use xlink:href="#DejaVuSans-61" x="385.351562"/>
      <use xlink:href="#DejaVuSans-73" x="446.630859"/>
      <use xlink:href="#DejaVuSans-65" x="498.730469"/>
      <use xlink:href="#DejaVuSans-6c" x="560.253906"/>
      <use xlink:href="#DejaVuSans-69" x="588.037109"/>
      <use xlink:href="#DejaVuSans-6e" x="615.820312"/>
      <use xlink:href="#DejaVuSans-65" x="679.199219"/>
      <use xlink:href="#DejaVuSans-73" x="740.722656"/>
      <use xlink:href="#DejaVuSans-53" x="792.822266"/>
      <use xlink:href="#DejaVuSans-41" x="858.173828"/>
      <use xlink:href="#DejaVuSans-43" x="924.832031"/>
     </g>
    </g>
   </g>
  </g>
 </g>
 <defs>
  <clipPath id="p3b511c4176">
   <rect x="57.6" y="41.472" width="357.12" height="266.112"/>
  </clipPath>
 </defs>
</svg>
