<?xml version="1.0" encoding="utf-8" standalone="no"?>
<!DOCTYPE svg PUBLIC "-//W3C//DTD SVG 1.1//EN"
  "http://www.w3.org/Graphics/SVG/1.1/DTD/svg11.dtd">
<svg xmlns:xlink="http://www.w3.org/1999/xlink" width="460.8pt" height="345.6pt" viewBox="0 0 460.8 345.6" xmlns="http://www.w3.org/2000/svg" version="1.1">
 <metadata>
  <rdf:RDF xmlns:dc="http://purl.org/dc/elements/1.1/" xmlns:cc="http://creativecommons.org/ns#" xmlns:rdf="http://www.w3.org/1999/02/22-rdf-syntax-ns#">
   <cc:Work>
    <dc:type rdf:resource="http://purl.org/dc/dcmitype/StillImage"/>
    <dc:date>2022-06-21T20:54:29.069556</dc:date>
    <dc:format>image/svg+xml</dc:format>
    <dc:creator>
     <cc:Agent>
      <dc:title>Matplotlib v3.5.2, https://matplotlib.org/</dc:title>
     </cc:Agent>
    </dc:creator>
   </cc:Work>
  </rdf:RDF>
 </metadata>
 <defs>
  <style type="text/css">*{stroke-linejoin: round; stroke-linecap: butt}</style>
 </defs>
 <g id="figure_1">
  <g id="patch_1">
   <path d="M 0 345.6 
L 460.8 345.6 
L 460.8 0 
L 0 0 
z
" style="fill: #ffffff"/>
  </g>
  <g id="axes_1">
   <g id="patch_2">
    <path d="M 57.6 307.584 
L 414.72 307.584 
L 414.72 41.472 
L 57.6 41.472 
z
" style="fill: #ffffff"/>
   </g>
   <g id="PolyCollection_1">
    <path d="M 108.278797 282.86312 
L 107.630821 282.86312 
L 107.594837 280.547008 
L 107.555469 278.230895 
L 107.510889 275.914783 
L 107.459209 273.598671 
L 107.398727 271.282558 
L 107.328122 268.966446 
L 107.24655 266.650334 
L 107.153626 264.334221 
L 107.049324 262.018109 
L 106.933805 259.701997 
L 106.807238 257.385884 
L 106.669624 255.069772 
L 106.520642 252.75366 
L 106.359537 250.437547 
L 106.185044 248.121435 
L 105.995379 245.805323 
L 105.788326 243.48921 
L 105.561441 241.173098 
L 105.312376 238.856986 
L 105.039289 236.540873 
L 104.741265 234.224761 
L 104.418635 231.908649 
L 104.073111 229.592536 
L 103.707661 227.276424 
L 103.326141 224.960312 
L 102.932754 222.6442 
L 102.531461 220.328087 
L 102.125478 218.011975 
L 101.716982 215.695863 
L 101.307049 213.37975 
L 100.895805 211.063638 
L 100.482674 208.747526 
L 100.066599 206.431413 
L 99.646135 204.115301 
L 99.219371 201.799189 
L 98.783743 199.483076 
L 98.335876 197.166964 
L 97.87165 194.850852 
L 97.386613 192.534739 
L 96.87684 190.218627 
L 96.340114 187.902515 
L 95.777233 185.586402 
L 95.193074 183.27029 
L 94.597075 180.954178 
L 94.002831 178.638065 
L 93.426695 176.321953 
L 92.885492 174.005841 
L 92.393661 171.689728 
L 91.960341 169.373616 
L 91.58695 167.057504 
L 91.265794 164.741391 
L 90.980046 162.425279 
L 90.705247 160.109167 
L 90.412161 157.793054 
L 90.070598 155.476942 
L 89.653591 153.16083 
L 89.141252 150.844718 
L 88.523638 148.528605 
L 87.80213 146.212493 
L 86.989094 143.896381 
L 86.105921 141.580268 
L 85.17982 139.264156 
L 84.23997 136.948044 
L 83.313714 134.631931 
L 82.423395 132.315819 
L 81.584254 129.999707 
L 80.803576 127.683594 
L 80.081031 125.367482 
L 79.410015 123.05137 
L 78.779689 120.735257 
L 78.177448 118.419145 
L 77.591538 116.103033 
L 77.013574 113.78692 
L 76.440724 111.470808 
L 75.877317 109.154696 
L 75.33563 106.838583 
L 74.83569 104.522471 
L 74.40404 102.206359 
L 74.07158 99.890246 
L 73.870787 97.574134 
L 73.832727 95.258022 
L 73.984346 92.941909 
L 74.346399 90.625797 
L 74.932262 88.309685 
L 75.747596 85.993573 
L 76.790665 83.67746 
L 78.052979 81.361348 
L 79.519964 79.045236 
L 81.17145 76.729123 
L 82.981973 74.413011 
L 84.921023 72.096899 
L 86.953477 69.780786 
L 89.040437 67.464674 
L 91.140583 65.148562 
L 93.212016 62.832449 
L 95.214413 60.516337 
L 97.111217 58.200225 
L 98.871596 55.884112 
L 100.471908 53.568 
L 115.43771 53.568 
L 115.43771 53.568 
L 117.038022 55.884112 
L 118.798401 58.200225 
L 120.695205 60.516337 
L 122.697601 62.832449 
L 124.769035 65.148562 
L 126.869181 67.464674 
L 128.956141 69.780786 
L 130.988595 72.096899 
L 132.927645 74.413011 
L 134.738168 76.729123 
L 136.389654 79.045236 
L 137.856639 81.361348 
L 139.118953 83.67746 
L 140.162022 85.993573 
L 140.977356 88.309685 
L 141.563219 90.625797 
L 141.925272 92.941909 
L 142.07689 95.258022 
L 142.038831 97.574134 
L 141.838037 99.890246 
L 141.505577 102.206359 
L 141.073927 104.522471 
L 140.573988 106.838583 
L 140.032301 109.154696 
L 139.468894 111.470808 
L 138.896044 113.78692 
L 138.318079 116.103033 
L 137.732169 118.419145 
L 137.129929 120.735257 
L 136.499603 123.05137 
L 135.828586 125.367482 
L 135.106042 127.683594 
L 134.325364 129.999707 
L 133.486223 132.315819 
L 132.595904 134.631931 
L 131.669648 136.948044 
L 130.729798 139.264156 
L 129.803696 141.580268 
L 128.920524 143.896381 
L 128.107488 146.212493 
L 127.385979 148.528605 
L 126.768366 150.844718 
L 126.256027 153.16083 
L 125.83902 155.476942 
L 125.497456 157.793054 
L 125.204371 160.109167 
L 124.929572 162.425279 
L 124.643824 164.741391 
L 124.322667 167.057504 
L 123.949277 169.373616 
L 123.515957 171.689728 
L 123.024126 174.005841 
L 122.482923 176.321953 
L 121.906787 178.638065 
L 121.312543 180.954178 
L 120.716544 183.27029 
L 120.132385 185.586402 
L 119.569504 187.902515 
L 119.032778 190.218627 
L 118.523005 192.534739 
L 118.037968 194.850852 
L 117.573741 197.166964 
L 117.125875 199.483076 
L 116.690246 201.799189 
L 116.263483 204.115301 
L 115.843019 206.431413 
L 115.426944 208.747526 
L 115.013813 211.063638 
L 114.602569 213.37975 
L 114.192636 215.695863 
L 113.78414 218.011975 
L 113.378157 220.328087 
L 112.976864 222.6442 
L 112.583477 224.960312 
L 112.201957 227.276424 
L 111.836507 229.592536 
L 111.490982 231.908649 
L 111.168353 234.224761 
L 110.870328 236.540873 
L 110.597242 238.856986 
L 110.348177 241.173098 
L 110.121292 243.48921 
L 109.914239 245.805323 
L 109.724574 248.121435 
L 109.550081 250.437547 
L 109.388976 252.75366 
L 109.239994 255.069772 
L 109.10238 257.385884 
L 108.975813 259.701997 
L 108.860294 262.018109 
L 108.755992 264.334221 
L 108.663068 266.650334 
L 108.581496 268.966446 
L 108.510891 271.282558 
L 108.450409 273.598671 
L 108.398729 275.914783 
L 108.354149 278.230895 
L 108.31478 280.547008 
L 108.278797 282.86312 
z
" clip-path="url(#pac8f17cd4e)" style="fill: #1f77b4; fill-opacity: 0.3"/>
   </g>
   <g id="PolyCollection_2">
    <path d="M 194.183926 274.19631 
L 192.3361 274.19631 
L 192.211161 271.995314 
L 192.082683 269.794318 
L 191.951232 267.593322 
L 191.816795 265.392326 
L 191.678699 263.19133 
L 191.535588 260.990334 
L 191.385462 258.789338 
L 191.225773 256.588342 
L 191.053586 254.387346 
L 190.865788 252.18635 
L 190.659359 249.985354 
L 190.431658 247.784358 
L 190.180717 245.583362 
L 189.905467 243.382366 
L 189.605875 241.18137 
L 189.282915 238.980374 
L 188.938378 236.779378 
L 188.574505 234.578382 
L 188.193522 232.377386 
L 187.797156 230.17639 
L 187.38626 227.975394 
L 186.960633 225.774398 
L 186.519132 223.573402 
L 186.060056 221.372406 
L 185.581745 219.17141 
L 185.083257 216.970414 
L 184.564955 214.769418 
L 184.028834 212.568422 
L 183.478496 210.367426 
L 182.918723 208.16643 
L 182.354766 205.965434 
L 181.791481 203.764437 
L 181.232547 201.563441 
L 180.679971 199.362445 
L 180.134021 197.161449 
L 179.593622 194.960453 
L 179.05713 192.759457 
L 178.523292 190.558461 
L 177.992136 188.357465 
L 177.465558 186.156469 
L 176.947409 183.955473 
L 176.443047 181.754477 
L 175.958417 179.553481 
L 175.498861 177.352485 
L 175.067928 175.151489 
L 174.666423 172.950493 
L 174.29194 170.749497 
L 173.938938 168.548501 
L 173.599373 166.347505 
L 173.263741 164.146509 
L 172.922348 161.945513 
L 172.566582 159.744517 
L 172.189991 157.543521 
L 171.789011 155.342525 
L 171.363263 153.141529 
L 170.915379 150.940533 
L 170.450391 148.739537 
L 169.974771 146.538541 
L 169.495243 144.337545 
L 169.017528 142.136549 
L 168.54523 139.935553 
L 168.079046 137.734557 
L 167.616467 135.533561 
L 167.152084 133.332565 
L 166.678474 131.131569 
L 166.187569 128.930573 
L 165.672269 126.729577 
L 165.128016 124.528581 
L 164.55403 122.327585 
L 163.953964 120.126589 
L 163.335882 117.925593 
L 162.711558 115.724596 
L 162.095307 113.5236 
L 161.502581 111.322604 
L 160.948664 109.121608 
L 160.447707 106.920612 
L 160.012271 104.719616 
L 159.653427 102.51862 
L 159.381303 100.317624 
L 159.205898 98.116628 
L 159.137931 95.915632 
L 159.189488 93.714636 
L 159.374266 91.51364 
L 159.707318 89.312644 
L 160.20425 87.111648 
L 160.87993 84.910652 
L 161.746833 82.709656 
L 162.813211 80.50866 
L 164.081308 78.307664 
L 165.545874 76.106668 
L 167.193188 73.905672 
L 169.000785 71.704676 
L 170.937983 69.50368 
L 172.967203 67.302684 
L 175.045987 65.101688 
L 177.12951 62.900692 
L 179.173314 60.699696 
L 181.13598 58.4987 
L 182.981462 56.297704 
L 203.538564 56.297704 
L 203.538564 56.297704 
L 205.384045 58.4987 
L 207.346712 60.699696 
L 209.390516 62.900692 
L 211.474039 65.101688 
L 213.552823 67.302684 
L 215.582042 69.50368 
L 217.519241 71.704676 
L 219.326838 73.905672 
L 220.974152 76.106668 
L 222.438718 78.307664 
L 223.706815 80.50866 
L 224.773193 82.709656 
L 225.640096 84.910652 
L 226.315776 87.111648 
L 226.812708 89.312644 
L 227.14576 91.51364 
L 227.330538 93.714636 
L 227.382095 95.915632 
L 227.314128 98.116628 
L 227.138723 100.317624 
L 226.866598 102.51862 
L 226.507755 104.719616 
L 226.072319 106.920612 
L 225.571361 109.121608 
L 225.017445 111.322604 
L 224.424719 113.5236 
L 223.808468 115.724596 
L 223.184144 117.925593 
L 222.566062 120.126589 
L 221.965996 122.327585 
L 221.39201 124.528581 
L 220.847757 126.729577 
L 220.332457 128.930573 
L 219.841552 131.131569 
L 219.367942 133.332565 
L 218.903559 135.533561 
L 218.44098 137.734557 
L 217.974795 139.935553 
L 217.502498 142.136549 
L 217.024783 144.337545 
L 216.545255 146.538541 
L 216.069635 148.739537 
L 215.604647 150.940533 
L 215.156763 153.141529 
L 214.731015 155.342525 
L 214.330035 157.543521 
L 213.953443 159.744517 
L 213.597677 161.945513 
L 213.256285 164.146509 
L 212.920653 166.347505 
L 212.581088 168.548501 
L 212.228086 170.749497 
L 211.853603 172.950493 
L 211.452098 175.151489 
L 211.021164 177.352485 
L 210.561609 179.553481 
L 210.076979 181.754477 
L 209.572616 183.955473 
L 209.054468 186.156469 
L 208.52789 188.357465 
L 207.996734 190.558461 
L 207.462895 192.759457 
L 206.926403 194.960453 
L 206.386005 197.161449 
L 205.840055 199.362445 
L 205.287479 201.563441 
L 204.728545 203.764437 
L 204.165259 205.965434 
L 203.601303 208.16643 
L 203.04153 210.367426 
L 202.491191 212.568422 
L 201.955071 214.769418 
L 201.436769 216.970414 
L 200.938281 219.17141 
L 200.45997 221.372406 
L 200.000894 223.573402 
L 199.559393 225.774398 
L 199.133766 227.975394 
L 198.72287 230.17639 
L 198.326504 232.377386 
L 197.945521 234.578382 
L 197.581648 236.779378 
L 197.237111 238.980374 
L 196.914151 241.18137 
L 196.614559 243.382366 
L 196.339309 245.583362 
L 196.088367 247.784358 
L 195.860667 249.985354 
L 195.654238 252.18635 
L 195.46644 254.387346 
L 195.294252 256.588342 
L 195.134564 258.789338 
L 194.984438 260.990334 
L 194.841327 263.19133 
L 194.70323 265.392326 
L 194.568794 267.593322 
L 194.437343 269.794318 
L 194.308865 271.995314 
L 194.183926 274.19631 
z
" clip-path="url(#pac8f17cd4e)" style="fill: #1f77b4; fill-opacity: 0.3"/>
   </g>
   <g id="PolyCollection_3">
    <path d="M 279.2064 260.889004 
L 277.924034 260.889004 
L 277.803013 258.843794 
L 277.66354 256.798584 
L 277.50359 254.753375 
L 277.321336 252.708165 
L 277.115298 250.662955 
L 276.884508 248.617745 
L 276.628644 246.572535 
L 276.34815 244.527325 
L 276.044323 242.482115 
L 275.719354 240.436905 
L 275.376313 238.391695 
L 275.019067 236.346485 
L 274.652117 234.301276 
L 274.280354 232.256066 
L 273.908737 230.210856 
L 273.541922 228.165646 
L 273.183873 226.120436 
L 272.837505 224.075226 
L 272.504403 222.030016 
L 272.184669 219.984806 
L 271.876929 217.939596 
L 271.578513 215.894386 
L 271.285794 213.849177 
L 270.99467 211.803967 
L 270.701098 209.758757 
L 270.401639 207.713547 
L 270.093907 205.668337 
L 269.776859 203.623127 
L 269.450877 201.577917 
L 269.117619 199.532707 
L 268.779672 197.487497 
L 268.440072 195.442287 
L 268.101775 193.397078 
L 267.767181 191.351868 
L 267.437784 189.306658 
L 267.113992 187.261448 
L 266.795123 185.216238 
L 266.479525 183.171028 
L 266.164786 181.125818 
L 265.847948 179.080608 
L 265.525722 177.035398 
L 265.194662 174.990188 
L 264.851348 172.944979 
L 264.492581 170.899769 
L 264.115621 168.854559 
L 263.71846 166.809349 
L 263.300089 164.764139 
L 262.860707 162.718929 
L 262.401802 160.673719 
L 261.926058 158.628509 
L 261.437088 156.583299 
L 260.939008 154.538089 
L 260.43593 152.49288 
L 259.931468 150.44767 
L 259.428325 148.40246 
L 258.928035 146.35725 
L 258.430889 144.31204 
L 257.936026 142.26683 
L 257.441667 140.22162 
L 256.945423 138.17641 
L 256.444645 136.1312 
L 255.936737 134.085991 
L 255.419414 132.040781 
L 254.890859 129.995571 
L 254.349769 127.950361 
L 253.795285 125.905151 
L 253.22683 123.859941 
L 252.643895 121.814731 
L 252.045845 119.769521 
L 251.431841 117.724311 
L 250.800942 115.679101 
L 250.152489 113.633892 
L 249.486781 111.588682 
L 248.80601 109.543472 
L 248.115387 107.498262 
L 247.424269 105.453052 
L 246.747122 103.407842 
L 246.104086 101.362632 
L 245.520974 99.317422 
L 245.028561 97.272212 
L 244.661154 95.227002 
L 244.454484 93.181793 
L 244.443135 91.136583 
L 244.657749 89.091373 
L 245.122335 87.046163 
L 245.851992 85.000953 
L 246.851301 82.955743 
L 248.113556 80.910533 
L 249.62089 78.865323 
L 251.345241 76.820113 
L 253.249997 74.774903 
L 255.292136 72.729694 
L 257.424626 70.684484 
L 259.598888 68.639274 
L 261.767157 66.594064 
L 263.884616 64.548854 
L 265.911213 62.503644 
L 267.8131 60.458434 
L 269.563658 58.413224 
L 287.566775 58.413224 
L 287.566775 58.413224 
L 289.317334 60.458434 
L 291.219221 62.503644 
L 293.245818 64.548854 
L 295.363277 66.594064 
L 297.531546 68.639274 
L 299.705808 70.684484 
L 301.838297 72.729694 
L 303.880437 74.774903 
L 305.785193 76.820113 
L 307.509544 78.865323 
L 309.016878 80.910533 
L 310.279133 82.955743 
L 311.278442 85.000953 
L 312.008099 87.046163 
L 312.472685 89.091373 
L 312.687299 91.136583 
L 312.675949 93.181793 
L 312.46928 95.227002 
L 312.101872 97.272212 
L 311.60946 99.317422 
L 311.026348 101.362632 
L 310.383312 103.407842 
L 309.706165 105.453052 
L 309.015047 107.498262 
L 308.324423 109.543472 
L 307.643653 111.588682 
L 306.977945 113.633892 
L 306.329492 115.679101 
L 305.698593 117.724311 
L 305.084588 119.769521 
L 304.486539 121.814731 
L 303.903604 123.859941 
L 303.335149 125.905151 
L 302.780665 127.950361 
L 302.239575 129.995571 
L 301.71102 132.040781 
L 301.193697 134.085991 
L 300.685789 136.1312 
L 300.185011 138.17641 
L 299.688767 140.22162 
L 299.194407 142.26683 
L 298.699545 144.31204 
L 298.202399 146.35725 
L 297.702109 148.40246 
L 297.198966 150.44767 
L 296.694504 152.49288 
L 296.191426 154.538089 
L 295.693346 156.583299 
L 295.204376 158.628509 
L 294.728632 160.673719 
L 294.269726 162.718929 
L 293.830344 164.764139 
L 293.411974 166.809349 
L 293.014813 168.854559 
L 292.637853 170.899769 
L 292.279086 172.944979 
L 291.935772 174.990188 
L 291.604712 177.035398 
L 291.282485 179.080608 
L 290.965648 181.125818 
L 290.650909 183.171028 
L 290.335311 185.216238 
L 290.016442 187.261448 
L 289.69265 189.306658 
L 289.363252 191.351868 
L 289.028659 193.397078 
L 288.690362 195.442287 
L 288.350762 197.487497 
L 288.012815 199.532707 
L 287.679557 201.577917 
L 287.353574 203.623127 
L 287.036527 205.668337 
L 286.728795 207.713547 
L 286.429336 209.758757 
L 286.135764 211.803967 
L 285.844639 213.849177 
L 285.551921 215.894386 
L 285.253504 217.939596 
L 284.945765 219.984806 
L 284.626031 222.030016 
L 284.292929 224.075226 
L 283.946561 226.120436 
L 283.588512 228.165646 
L 283.221697 230.210856 
L 282.85008 232.256066 
L 282.478317 234.301276 
L 282.111367 236.346485 
L 281.754121 238.391695 
L 281.41108 240.436905 
L 281.08611 242.482115 
L 280.782284 244.527325 
L 280.50179 246.572535 
L 280.245926 248.617745 
L 280.015135 250.662955 
L 279.809098 252.708165 
L 279.626843 254.753375 
L 279.466894 256.798584 
L 279.327421 258.843794 
L 279.2064 260.889004 
z
" clip-path="url(#pac8f17cd4e)" style="fill: #1f77b4; fill-opacity: 0.3"/>
   </g>
   <g id="PolyCollection_4">
    <path d="M 364.119754 295.488 
L 363.621087 295.488 
L 363.606892 293.090548 
L 363.595577 290.693096 
L 363.586467 288.295644 
L 363.578702 285.898192 
L 363.57138 283.50074 
L 363.563654 281.103288 
L 363.554744 278.705836 
L 363.543874 276.308384 
L 363.530145 273.910932 
L 363.512395 271.51348 
L 363.489085 269.116028 
L 363.458246 266.718576 
L 363.417501 264.321124 
L 363.364165 261.923672 
L 363.295391 259.52622 
L 363.208354 257.128768 
L 363.10044 254.731316 
L 362.96943 252.333864 
L 362.813662 249.936412 
L 362.632164 247.53896 
L 362.424724 245.141508 
L 362.191901 242.744056 
L 361.934928 240.346604 
L 361.655525 237.949152 
L 361.355608 235.5517 
L 361.03695 233.154248 
L 360.700836 230.756797 
L 360.3478 228.359345 
L 359.977498 225.961893 
L 359.588793 223.564441 
L 359.180033 221.166989 
L 358.749506 218.769537 
L 358.29598 216.372085 
L 357.819226 213.974633 
L 357.320398 211.577181 
L 356.8022 209.179729 
L 356.268788 206.782277 
L 355.725431 204.384825 
L 355.178002 201.987373 
L 354.632413 199.589921 
L 354.094117 197.192469 
L 353.56779 194.795017 
L 353.057225 192.397565 
L 352.565448 190.000113 
L 352.094946 187.602661 
L 351.647892 185.205209 
L 351.226255 182.807757 
L 350.831705 180.410305 
L 350.465349 178.012853 
L 350.127387 175.615401 
L 349.816816 173.217949 
L 349.531314 170.820497 
L 349.267352 168.423045 
L 349.020492 166.025593 
L 348.785754 163.628141 
L 348.557922 161.230689 
L 348.331681 158.833237 
L 348.101596 156.435785 
L 347.862002 154.038333 
L 347.606964 151.640881 
L 347.330431 149.243429 
L 347.026632 146.845977 
L 346.690675 144.448525 
L 346.319163 142.051073 
L 345.910645 139.653621 
L 345.465711 137.256169 
L 344.986651 134.858717 
L 344.47673 132.461265 
L 343.939241 130.063813 
L 343.376537 127.666361 
L 342.789254 125.268909 
L 342.175845 122.871457 
L 341.532443 120.474005 
L 340.85306 118.076553 
L 340.130085 115.679101 
L 339.355101 113.281649 
L 338.520132 110.884197 
L 337.619415 108.486745 
L 336.651744 106.089293 
L 335.623292 103.691842 
L 334.550561 101.29439 
L 333.462921 98.896938 
L 332.404044 96.499486 
L 331.43157 94.102034 
L 330.614534 91.704582 
L 330.028437 89.30713 
L 329.748339 86.909678 
L 329.840759 84.512226 
L 330.355553 82.114774 
L 331.319027 79.717322 
L 332.729457 77.31987 
L 334.555773 74.922418 
L 336.739681 72.524966 
L 339.20088 70.127514 
L 341.844561 67.730062 
L 344.570049 65.33261 
L 347.279366 62.935158 
L 349.884662 60.537706 
L 352.313746 58.140254 
L 375.427096 58.140254 
L 375.427096 58.140254 
L 377.85618 60.537706 
L 380.461475 62.935158 
L 383.170793 65.33261 
L 385.896281 67.730062 
L 388.539962 70.127514 
L 391.001161 72.524966 
L 393.185069 74.922418 
L 395.011385 77.31987 
L 396.421815 79.717322 
L 397.385289 82.114774 
L 397.900082 84.512226 
L 397.992503 86.909678 
L 397.712404 89.30713 
L 397.126308 91.704582 
L 396.309272 94.102034 
L 395.336798 96.499486 
L 394.277921 98.896938 
L 393.190281 101.29439 
L 392.11755 103.691842 
L 391.089098 106.089293 
L 390.121427 108.486745 
L 389.22071 110.884197 
L 388.385741 113.281649 
L 387.610757 115.679101 
L 386.887782 118.076553 
L 386.208399 120.474005 
L 385.564997 122.871457 
L 384.951587 125.268909 
L 384.364305 127.666361 
L 383.801601 130.063813 
L 383.264111 132.461265 
L 382.754191 134.858717 
L 382.275131 137.256169 
L 381.830197 139.653621 
L 381.421679 142.051073 
L 381.050167 144.448525 
L 380.71421 146.845977 
L 380.410411 149.243429 
L 380.133878 151.640881 
L 379.87884 154.038333 
L 379.639246 156.435785 
L 379.409161 158.833237 
L 379.18292 161.230689 
L 378.955088 163.628141 
L 378.72035 166.025593 
L 378.47349 168.423045 
L 378.209528 170.820497 
L 377.924026 173.217949 
L 377.613455 175.615401 
L 377.275493 178.012853 
L 376.909137 180.410305 
L 376.514587 182.807757 
L 376.092949 185.205209 
L 375.645896 187.602661 
L 375.175394 190.000113 
L 374.683617 192.397565 
L 374.173052 194.795017 
L 373.646725 197.192469 
L 373.108429 199.589921 
L 372.56284 201.987373 
L 372.015411 204.384825 
L 371.472054 206.782277 
L 370.938642 209.179729 
L 370.420444 211.577181 
L 369.921616 213.974633 
L 369.444862 216.372085 
L 368.991336 218.769537 
L 368.560809 221.166989 
L 368.152048 223.564441 
L 367.763344 225.961893 
L 367.393042 228.359345 
L 367.040005 230.756797 
L 366.703892 233.154248 
L 366.385234 235.5517 
L 366.085317 237.949152 
L 365.805914 240.346604 
L 365.548941 242.744056 
L 365.316118 245.141508 
L 365.108678 247.53896 
L 364.92718 249.936412 
L 364.771412 252.333864 
L 364.640402 254.731316 
L 364.532488 257.128768 
L 364.445451 259.52622 
L 364.376677 261.923672 
L 364.323341 264.321124 
L 364.282596 266.718576 
L 364.251756 269.116028 
L 364.228447 271.51348 
L 364.210697 273.910932 
L 364.196968 276.308384 
L 364.186098 278.705836 
L 364.177188 281.103288 
L 364.169462 283.50074 
L 364.16214 285.898192 
L 364.154375 288.295644 
L 364.145265 290.693096 
L 364.13395 293.090548 
L 364.119754 295.488 
z
" clip-path="url(#pac8f17cd4e)" style="fill: #1f77b4; fill-opacity: 0.3"/>
   </g>
   <g id="PolyCollection_5">
    <path d="M 364.608245 284.910398 
L 364.122137 284.910398 
L 364.106211 282.623237 
L 364.088352 280.336076 
L 364.065739 278.048915 
L 364.034922 275.761754 
L 363.992057 273.474593 
L 363.933204 271.187432 
L 363.854669 268.900271 
L 363.753364 266.61311 
L 363.627135 264.325949 
L 363.475034 262.038789 
L 363.297491 259.751628 
L 363.096345 257.464467 
L 362.874709 255.177306 
L 362.636647 252.890145 
L 362.386679 250.602984 
L 362.129135 248.315823 
L 361.867453 246.028662 
L 361.603504 243.741501 
L 361.337068 241.45434 
L 361.065569 239.167179 
L 360.784148 236.880018 
L 360.486108 234.592858 
L 360.163686 232.305697 
L 359.809074 230.018536 
L 359.41551 227.731375 
L 358.978301 225.444214 
L 358.495588 223.157053 
L 357.968752 220.869892 
L 357.402397 218.582731 
L 356.803938 216.29557 
L 356.182883 214.008409 
L 355.549933 211.721248 
L 354.916057 209.434087 
L 354.291657 207.146927 
L 353.685921 204.859766 
L 353.106399 202.572605 
L 352.558794 200.285444 
L 352.046947 197.998283 
L 351.572933 195.711122 
L 351.137257 193.423961 
L 350.739077 191.1368 
L 350.376455 188.849639 
L 350.046619 186.562478 
L 349.746225 184.275317 
L 349.471617 181.988156 
L 349.219061 179.700996 
L 348.984931 177.413835 
L 348.76581 175.126674 
L 348.558505 172.839513 
L 348.359971 170.552352 
L 348.16719 168.265191 
L 347.977065 165.97803 
L 347.786405 163.690869 
L 347.592049 161.403708 
L 347.391152 159.116547 
L 347.18159 156.829386 
L 346.962363 154.542225 
L 346.733878 152.255064 
L 346.497948 149.967904 
L 346.257415 147.680743 
L 346.015366 145.393582 
L 345.774034 143.106421 
L 345.533559 140.81926 
L 345.290856 138.532099 
L 345.038866 136.244938 
L 344.766404 133.957777 
L 344.458758 131.670616 
L 344.099004 129.383455 
L 343.669909 127.096294 
L 343.156131 124.809133 
L 342.546362 122.521973 
L 341.835052 120.234812 
L 341.023424 117.947651 
L 340.11963 115.66049 
L 339.138074 113.373329 
L 338.098114 111.086168 
L 337.022493 108.799007 
L 335.935902 106.511846 
L 334.864023 104.224685 
L 333.833282 101.937524 
L 332.8713 99.650363 
L 332.0078 97.363202 
L 331.275566 95.076042 
L 330.710909 92.788881 
L 330.353196 90.50172 
L 330.24311 88.214559 
L 330.41963 85.927398 
L 330.916023 83.640237 
L 331.755384 81.353076 
L 332.946492 79.065915 
L 334.480708 76.778754 
L 336.330561 74.491593 
L 338.450357 72.204432 
L 340.778858 69.917271 
L 343.243691 67.630111 
L 345.766922 65.34295 
L 348.271052 63.055789 
L 350.684668 60.768628 
L 352.947117 58.481467 
L 375.783265 58.481467 
L 375.783265 58.481467 
L 378.045715 60.768628 
L 380.459331 63.055789 
L 382.96346 65.34295 
L 385.486691 67.630111 
L 387.951524 69.917271 
L 390.280025 72.204432 
L 392.399821 74.491593 
L 394.249674 76.778754 
L 395.78389 79.065915 
L 396.974998 81.353076 
L 397.814359 83.640237 
L 398.310752 85.927398 
L 398.487273 88.214559 
L 398.377186 90.50172 
L 398.019473 92.788881 
L 397.454817 95.076042 
L 396.722582 97.363202 
L 395.859082 99.650363 
L 394.8971 101.937524 
L 393.86636 104.224685 
L 392.79448 106.511846 
L 391.707889 108.799007 
L 390.632269 111.086168 
L 389.592308 113.373329 
L 388.610752 115.66049 
L 387.706958 117.947651 
L 386.89533 120.234812 
L 386.18402 122.521973 
L 385.574251 124.809133 
L 385.060473 127.096294 
L 384.631378 129.383455 
L 384.271624 131.670616 
L 383.963978 133.957777 
L 383.691516 136.244938 
L 383.439526 138.532099 
L 383.196823 140.81926 
L 382.956349 143.106421 
L 382.715017 145.393582 
L 382.472967 147.680743 
L 382.232434 149.967904 
L 381.996505 152.255064 
L 381.76802 154.542225 
L 381.548792 156.829386 
L 381.33923 159.116547 
L 381.138334 161.403708 
L 380.943977 163.690869 
L 380.753317 165.97803 
L 380.563193 168.265191 
L 380.370411 170.552352 
L 380.171877 172.839513 
L 379.964572 175.126674 
L 379.745451 177.413835 
L 379.511321 179.700996 
L 379.258766 181.988156 
L 378.984158 184.275317 
L 378.683764 186.562478 
L 378.353927 188.849639 
L 377.991305 191.1368 
L 377.593125 193.423961 
L 377.157449 195.711122 
L 376.683435 197.998283 
L 376.171588 200.285444 
L 375.623984 202.572605 
L 375.044461 204.859766 
L 374.438725 207.146927 
L 373.814325 209.434087 
L 373.180449 211.721248 
L 372.547499 214.008409 
L 371.926444 216.29557 
L 371.327985 218.582731 
L 370.76163 220.869892 
L 370.234794 223.157053 
L 369.752082 225.444214 
L 369.314873 227.731375 
L 368.921309 230.018536 
L 368.566696 232.305697 
L 368.244275 234.592858 
L 367.946234 236.880018 
L 367.664813 239.167179 
L 367.393314 241.45434 
L 367.126878 243.741501 
L 366.862929 246.028662 
L 366.601247 248.315823 
L 366.343703 250.602984 
L 366.093735 252.890145 
L 365.855674 255.177306 
L 365.634037 257.464467 
L 365.432891 259.751628 
L 365.255348 262.038789 
L 365.103247 264.325949 
L 364.977018 266.61311 
L 364.875713 268.900271 
L 364.797178 271.187432 
L 364.738325 273.474593 
L 364.69546 275.761754 
L 364.664643 278.048915 
L 364.64203 280.336076 
L 364.624172 282.623237 
L 364.608245 284.910398 
z
" clip-path="url(#pac8f17cd4e)" style="fill: #1f77b4; fill-opacity: 0.3"/>
   </g>
   <g id="matplotlib.axis_1">
    <g id="xtick_1">
     <g id="line2d_1">
      <path d="M 65.302207 307.584 
L 65.302207 41.472 
" clip-path="url(#pac8f17cd4e)" style="fill: none; stroke-dasharray: 2.96,1.28; stroke-dashoffset: 0; stroke: #b0b0b0; stroke-width: 0.8"/>
     </g>
     <g id="line2d_2">
      <defs>
       <path id="me4f278d6eb" d="M 0 0 
L 0 3.5 
" style="stroke: #000000; stroke-width: 0.8"/>
      </defs>
      <g>
       <use xlink:href="#me4f278d6eb" x="65.302207" y="307.584" style="stroke: #000000; stroke-width: 0.8"/>
      </g>
     </g>
     <g id="text_1">
      <!-- 2500 -->
      <g transform="translate(52.577207 322.182437)scale(0.1 -0.1)">
       <defs>
        <path id="DejaVuSans-32" d="M 1228 531 
L 3431 531 
L 3431 0 
L 469 0 
L 469 531 
Q 828 903 1448 1529 
Q 2069 2156 2228 2338 
Q 2531 2678 2651 2914 
Q 2772 3150 2772 3378 
Q 2772 3750 2511 3984 
Q 2250 4219 1831 4219 
Q 1534 4219 1204 4116 
Q 875 4013 500 3803 
L 500 4441 
Q 881 4594 1212 4672 
Q 1544 4750 1819 4750 
Q 2544 4750 2975 4387 
Q 3406 4025 3406 3419 
Q 3406 3131 3298 2873 
Q 3191 2616 2906 2266 
Q 2828 2175 2409 1742 
Q 1991 1309 1228 531 
z
" transform="scale(0.015625)"/>
        <path id="DejaVuSans-35" d="M 691 4666 
L 3169 4666 
L 3169 4134 
L 1269 4134 
L 1269 2991 
Q 1406 3038 1543 3061 
Q 1681 3084 1819 3084 
Q 2600 3084 3056 2656 
Q 3513 2228 3513 1497 
Q 3513 744 3044 326 
Q 2575 -91 1722 -91 
Q 1428 -91 1123 -41 
Q 819 9 494 109 
L 494 744 
Q 775 591 1075 516 
Q 1375 441 1709 441 
Q 2250 441 2565 725 
Q 2881 1009 2881 1497 
Q 2881 1984 2565 2268 
Q 2250 2553 1709 2553 
Q 1456 2553 1204 2497 
Q 953 2441 691 2322 
L 691 4666 
z
" transform="scale(0.015625)"/>
        <path id="DejaVuSans-30" d="M 2034 4250 
Q 1547 4250 1301 3770 
Q 1056 3291 1056 2328 
Q 1056 1369 1301 889 
Q 1547 409 2034 409 
Q 2525 409 2770 889 
Q 3016 1369 3016 2328 
Q 3016 3291 2770 3770 
Q 2525 4250 2034 4250 
z
M 2034 4750 
Q 2819 4750 3233 4129 
Q 3647 3509 3647 2328 
Q 3647 1150 3233 529 
Q 2819 -91 2034 -91 
Q 1250 -91 836 529 
Q 422 1150 422 2328 
Q 422 3509 836 4129 
Q 1250 4750 2034 4750 
z
" transform="scale(0.015625)"/>
       </defs>
       <use xlink:href="#DejaVuSans-32"/>
       <use xlink:href="#DejaVuSans-35" x="63.623047"/>
       <use xlink:href="#DejaVuSans-30" x="127.246094"/>
       <use xlink:href="#DejaVuSans-30" x="190.869141"/>
      </g>
     </g>
    </g>
    <g id="xtick_2">
     <g id="line2d_3">
      <path d="M 107.954809 307.584 
L 107.954809 41.472 
" clip-path="url(#pac8f17cd4e)" style="fill: none; stroke-dasharray: 2.96,1.28; stroke-dashoffset: 0; stroke: #b0b0b0; stroke-width: 0.8"/>
     </g>
     <g id="line2d_4">
      <g>
       <use xlink:href="#me4f278d6eb" x="107.954809" y="307.584" style="stroke: #000000; stroke-width: 0.8"/>
      </g>
     </g>
     <g id="text_2">
      <!-- 5000 -->
      <g transform="translate(95.229809 322.182437)scale(0.1 -0.1)">
       <use xlink:href="#DejaVuSans-35"/>
       <use xlink:href="#DejaVuSans-30" x="63.623047"/>
       <use xlink:href="#DejaVuSans-30" x="127.246094"/>
       <use xlink:href="#DejaVuSans-30" x="190.869141"/>
      </g>
     </g>
    </g>
    <g id="xtick_3">
     <g id="line2d_5">
      <path d="M 150.607411 307.584 
L 150.607411 41.472 
" clip-path="url(#pac8f17cd4e)" style="fill: none; stroke-dasharray: 2.96,1.28; stroke-dashoffset: 0; stroke: #b0b0b0; stroke-width: 0.8"/>
     </g>
     <g id="line2d_6">
      <g>
       <use xlink:href="#me4f278d6eb" x="150.607411" y="307.584" style="stroke: #000000; stroke-width: 0.8"/>
      </g>
     </g>
     <g id="text_3">
      <!-- 7500 -->
      <g transform="translate(137.882411 322.182437)scale(0.1 -0.1)">
       <defs>
        <path id="DejaVuSans-37" d="M 525 4666 
L 3525 4666 
L 3525 4397 
L 1831 0 
L 1172 0 
L 2766 4134 
L 525 4134 
L 525 4666 
z
" transform="scale(0.015625)"/>
       </defs>
       <use xlink:href="#DejaVuSans-37"/>
       <use xlink:href="#DejaVuSans-35" x="63.623047"/>
       <use xlink:href="#DejaVuSans-30" x="127.246094"/>
       <use xlink:href="#DejaVuSans-30" x="190.869141"/>
      </g>
     </g>
    </g>
    <g id="xtick_4">
     <g id="line2d_7">
      <path d="M 193.260013 307.584 
L 193.260013 41.472 
" clip-path="url(#pac8f17cd4e)" style="fill: none; stroke-dasharray: 2.96,1.28; stroke-dashoffset: 0; stroke: #b0b0b0; stroke-width: 0.8"/>
     </g>
     <g id="line2d_8">
      <g>
       <use xlink:href="#me4f278d6eb" x="193.260013" y="307.584" style="stroke: #000000; stroke-width: 0.8"/>
      </g>
     </g>
     <g id="text_4">
      <!-- 10000 -->
      <g transform="translate(177.353763 322.182437)scale(0.1 -0.1)">
       <defs>
        <path id="DejaVuSans-31" d="M 794 531 
L 1825 531 
L 1825 4091 
L 703 3866 
L 703 4441 
L 1819 4666 
L 2450 4666 
L 2450 531 
L 3481 531 
L 3481 0 
L 794 0 
L 794 531 
z
" transform="scale(0.015625)"/>
       </defs>
       <use xlink:href="#DejaVuSans-31"/>
       <use xlink:href="#DejaVuSans-30" x="63.623047"/>
       <use xlink:href="#DejaVuSans-30" x="127.246094"/>
       <use xlink:href="#DejaVuSans-30" x="190.869141"/>
       <use xlink:href="#DejaVuSans-30" x="254.492188"/>
      </g>
     </g>
    </g>
    <g id="xtick_5">
     <g id="line2d_9">
      <path d="M 235.912615 307.584 
L 235.912615 41.472 
" clip-path="url(#pac8f17cd4e)" style="fill: none; stroke-dasharray: 2.96,1.28; stroke-dashoffset: 0; stroke: #b0b0b0; stroke-width: 0.8"/>
     </g>
     <g id="line2d_10">
      <g>
       <use xlink:href="#me4f278d6eb" x="235.912615" y="307.584" style="stroke: #000000; stroke-width: 0.8"/>
      </g>
     </g>
     <g id="text_5">
      <!-- 12500 -->
      <g transform="translate(220.006365 322.182437)scale(0.1 -0.1)">
       <use xlink:href="#DejaVuSans-31"/>
       <use xlink:href="#DejaVuSans-32" x="63.623047"/>
       <use xlink:href="#DejaVuSans-35" x="127.246094"/>
       <use xlink:href="#DejaVuSans-30" x="190.869141"/>
       <use xlink:href="#DejaVuSans-30" x="254.492188"/>
      </g>
     </g>
    </g>
    <g id="xtick_6">
     <g id="line2d_11">
      <path d="M 278.565217 307.584 
L 278.565217 41.472 
" clip-path="url(#pac8f17cd4e)" style="fill: none; stroke-dasharray: 2.96,1.28; stroke-dashoffset: 0; stroke: #b0b0b0; stroke-width: 0.8"/>
     </g>
     <g id="line2d_12">
      <g>
       <use xlink:href="#me4f278d6eb" x="278.565217" y="307.584" style="stroke: #000000; stroke-width: 0.8"/>
      </g>
     </g>
     <g id="text_6">
      <!-- 15000 -->
      <g transform="translate(262.658967 322.182437)scale(0.1 -0.1)">
       <use xlink:href="#DejaVuSans-31"/>
       <use xlink:href="#DejaVuSans-35" x="63.623047"/>
       <use xlink:href="#DejaVuSans-30" x="127.246094"/>
       <use xlink:href="#DejaVuSans-30" x="190.869141"/>
       <use xlink:href="#DejaVuSans-30" x="254.492188"/>
      </g>
     </g>
    </g>
    <g id="xtick_7">
     <g id="line2d_13">
      <path d="M 321.217819 307.584 
L 321.217819 41.472 
" clip-path="url(#pac8f17cd4e)" style="fill: none; stroke-dasharray: 2.96,1.28; stroke-dashoffset: 0; stroke: #b0b0b0; stroke-width: 0.8"/>
     </g>
     <g id="line2d_14">
      <g>
       <use xlink:href="#me4f278d6eb" x="321.217819" y="307.584" style="stroke: #000000; stroke-width: 0.8"/>
      </g>
     </g>
     <g id="text_7">
      <!-- 17500 -->
      <g transform="translate(305.311569 322.182437)scale(0.1 -0.1)">
       <use xlink:href="#DejaVuSans-31"/>
       <use xlink:href="#DejaVuSans-37" x="63.623047"/>
       <use xlink:href="#DejaVuSans-35" x="127.246094"/>
       <use xlink:href="#DejaVuSans-30" x="190.869141"/>
       <use xlink:href="#DejaVuSans-30" x="254.492188"/>
      </g>
     </g>
    </g>
    <g id="xtick_8">
     <g id="line2d_15">
      <path d="M 363.870421 307.584 
L 363.870421 41.472 
" clip-path="url(#pac8f17cd4e)" style="fill: none; stroke-dasharray: 2.96,1.28; stroke-dashoffset: 0; stroke: #b0b0b0; stroke-width: 0.8"/>
     </g>
     <g id="line2d_16">
      <g>
       <use xlink:href="#me4f278d6eb" x="363.870421" y="307.584" style="stroke: #000000; stroke-width: 0.8"/>
      </g>
     </g>
     <g id="text_8">
      <!-- 20000 -->
      <g transform="translate(347.964171 322.182437)scale(0.1 -0.1)">
       <use xlink:href="#DejaVuSans-32"/>
       <use xlink:href="#DejaVuSans-30" x="63.623047"/>
       <use xlink:href="#DejaVuSans-30" x="127.246094"/>
       <use xlink:href="#DejaVuSans-30" x="190.869141"/>
       <use xlink:href="#DejaVuSans-30" x="254.492188"/>
      </g>
     </g>
    </g>
    <g id="xtick_9">
     <g id="line2d_17">
      <path d="M 406.523023 307.584 
L 406.523023 41.472 
" clip-path="url(#pac8f17cd4e)" style="fill: none; stroke-dasharray: 2.96,1.28; stroke-dashoffset: 0; stroke: #b0b0b0; stroke-width: 0.8"/>
     </g>
     <g id="line2d_18">
      <g>
       <use xlink:href="#me4f278d6eb" x="406.523023" y="307.584" style="stroke: #000000; stroke-width: 0.8"/>
      </g>
     </g>
     <g id="text_9">
      <!-- 22500 -->
      <g transform="translate(390.616773 322.182437)scale(0.1 -0.1)">
       <use xlink:href="#DejaVuSans-32"/>
       <use xlink:href="#DejaVuSans-32" x="63.623047"/>
       <use xlink:href="#DejaVuSans-35" x="127.246094"/>
       <use xlink:href="#DejaVuSans-30" x="190.869141"/>
       <use xlink:href="#DejaVuSans-30" x="254.492188"/>
      </g>
     </g>
    </g>
    <g id="text_10">
     <!-- Learned Episodes -->
     <g transform="translate(192.102187 335.860562)scale(0.1 -0.1)">
      <defs>
       <path id="DejaVuSans-4c" d="M 628 4666 
L 1259 4666 
L 1259 531 
L 3531 531 
L 3531 0 
L 628 0 
L 628 4666 
z
" transform="scale(0.015625)"/>
       <path id="DejaVuSans-65" d="M 3597 1894 
L 3597 1613 
L 953 1613 
Q 991 1019 1311 708 
Q 1631 397 2203 397 
Q 2534 397 2845 478 
Q 3156 559 3463 722 
L 3463 178 
Q 3153 47 2828 -22 
Q 2503 -91 2169 -91 
Q 1331 -91 842 396 
Q 353 884 353 1716 
Q 353 2575 817 3079 
Q 1281 3584 2069 3584 
Q 2775 3584 3186 3129 
Q 3597 2675 3597 1894 
z
M 3022 2063 
Q 3016 2534 2758 2815 
Q 2500 3097 2075 3097 
Q 1594 3097 1305 2825 
Q 1016 2553 972 2059 
L 3022 2063 
z
" transform="scale(0.015625)"/>
       <path id="DejaVuSans-61" d="M 2194 1759 
Q 1497 1759 1228 1600 
Q 959 1441 959 1056 
Q 959 750 1161 570 
Q 1363 391 1709 391 
Q 2188 391 2477 730 
Q 2766 1069 2766 1631 
L 2766 1759 
L 2194 1759 
z
M 3341 1997 
L 3341 0 
L 2766 0 
L 2766 531 
Q 2569 213 2275 61 
Q 1981 -91 1556 -91 
Q 1019 -91 701 211 
Q 384 513 384 1019 
Q 384 1609 779 1909 
Q 1175 2209 1959 2209 
L 2766 2209 
L 2766 2266 
Q 2766 2663 2505 2880 
Q 2244 3097 1772 3097 
Q 1472 3097 1187 3025 
Q 903 2953 641 2809 
L 641 3341 
Q 956 3463 1253 3523 
Q 1550 3584 1831 3584 
Q 2591 3584 2966 3190 
Q 3341 2797 3341 1997 
z
" transform="scale(0.015625)"/>
       <path id="DejaVuSans-72" d="M 2631 2963 
Q 2534 3019 2420 3045 
Q 2306 3072 2169 3072 
Q 1681 3072 1420 2755 
Q 1159 2438 1159 1844 
L 1159 0 
L 581 0 
L 581 3500 
L 1159 3500 
L 1159 2956 
Q 1341 3275 1631 3429 
Q 1922 3584 2338 3584 
Q 2397 3584 2469 3576 
Q 2541 3569 2628 3553 
L 2631 2963 
z
" transform="scale(0.015625)"/>
       <path id="DejaVuSans-6e" d="M 3513 2113 
L 3513 0 
L 2938 0 
L 2938 2094 
Q 2938 2591 2744 2837 
Q 2550 3084 2163 3084 
Q 1697 3084 1428 2787 
Q 1159 2491 1159 1978 
L 1159 0 
L 581 0 
L 581 3500 
L 1159 3500 
L 1159 2956 
Q 1366 3272 1645 3428 
Q 1925 3584 2291 3584 
Q 2894 3584 3203 3211 
Q 3513 2838 3513 2113 
z
" transform="scale(0.015625)"/>
       <path id="DejaVuSans-64" d="M 2906 2969 
L 2906 4863 
L 3481 4863 
L 3481 0 
L 2906 0 
L 2906 525 
Q 2725 213 2448 61 
Q 2172 -91 1784 -91 
Q 1150 -91 751 415 
Q 353 922 353 1747 
Q 353 2572 751 3078 
Q 1150 3584 1784 3584 
Q 2172 3584 2448 3432 
Q 2725 3281 2906 2969 
z
M 947 1747 
Q 947 1113 1208 752 
Q 1469 391 1925 391 
Q 2381 391 2643 752 
Q 2906 1113 2906 1747 
Q 2906 2381 2643 2742 
Q 2381 3103 1925 3103 
Q 1469 3103 1208 2742 
Q 947 2381 947 1747 
z
" transform="scale(0.015625)"/>
       <path id="DejaVuSans-20" transform="scale(0.015625)"/>
       <path id="DejaVuSans-45" d="M 628 4666 
L 3578 4666 
L 3578 4134 
L 1259 4134 
L 1259 2753 
L 3481 2753 
L 3481 2222 
L 1259 2222 
L 1259 531 
L 3634 531 
L 3634 0 
L 628 0 
L 628 4666 
z
" transform="scale(0.015625)"/>
       <path id="DejaVuSans-70" d="M 1159 525 
L 1159 -1331 
L 581 -1331 
L 581 3500 
L 1159 3500 
L 1159 2969 
Q 1341 3281 1617 3432 
Q 1894 3584 2278 3584 
Q 2916 3584 3314 3078 
Q 3713 2572 3713 1747 
Q 3713 922 3314 415 
Q 2916 -91 2278 -91 
Q 1894 -91 1617 61 
Q 1341 213 1159 525 
z
M 3116 1747 
Q 3116 2381 2855 2742 
Q 2594 3103 2138 3103 
Q 1681 3103 1420 2742 
Q 1159 2381 1159 1747 
Q 1159 1113 1420 752 
Q 1681 391 2138 391 
Q 2594 391 2855 752 
Q 3116 1113 3116 1747 
z
" transform="scale(0.015625)"/>
       <path id="DejaVuSans-69" d="M 603 3500 
L 1178 3500 
L 1178 0 
L 603 0 
L 603 3500 
z
M 603 4863 
L 1178 4863 
L 1178 4134 
L 603 4134 
L 603 4863 
z
" transform="scale(0.015625)"/>
       <path id="DejaVuSans-73" d="M 2834 3397 
L 2834 2853 
Q 2591 2978 2328 3040 
Q 2066 3103 1784 3103 
Q 1356 3103 1142 2972 
Q 928 2841 928 2578 
Q 928 2378 1081 2264 
Q 1234 2150 1697 2047 
L 1894 2003 
Q 2506 1872 2764 1633 
Q 3022 1394 3022 966 
Q 3022 478 2636 193 
Q 2250 -91 1575 -91 
Q 1294 -91 989 -36 
Q 684 19 347 128 
L 347 722 
Q 666 556 975 473 
Q 1284 391 1588 391 
Q 1994 391 2212 530 
Q 2431 669 2431 922 
Q 2431 1156 2273 1281 
Q 2116 1406 1581 1522 
L 1381 1569 
Q 847 1681 609 1914 
Q 372 2147 372 2553 
Q 372 3047 722 3315 
Q 1072 3584 1716 3584 
Q 2034 3584 2315 3537 
Q 2597 3491 2834 3397 
z
" transform="scale(0.015625)"/>
       <path id="DejaVuSans-6f" d="M 1959 3097 
Q 1497 3097 1228 2736 
Q 959 2375 959 1747 
Q 959 1119 1226 758 
Q 1494 397 1959 397 
Q 2419 397 2687 759 
Q 2956 1122 2956 1747 
Q 2956 2369 2687 2733 
Q 2419 3097 1959 3097 
z
M 1959 3584 
Q 2709 3584 3137 3096 
Q 3566 2609 3566 1747 
Q 3566 888 3137 398 
Q 2709 -91 1959 -91 
Q 1206 -91 779 398 
Q 353 888 353 1747 
Q 353 2609 779 3096 
Q 1206 3584 1959 3584 
z
" transform="scale(0.015625)"/>
      </defs>
      <use xlink:href="#DejaVuSans-4c"/>
      <use xlink:href="#DejaVuSans-65" x="53.962891"/>
      <use xlink:href="#DejaVuSans-61" x="115.486328"/>
      <use xlink:href="#DejaVuSans-72" x="176.765625"/>
      <use xlink:href="#DejaVuSans-6e" x="216.128906"/>
      <use xlink:href="#DejaVuSans-65" x="279.507812"/>
      <use xlink:href="#DejaVuSans-64" x="341.03125"/>
      <use xlink:href="#DejaVuSans-20" x="404.507812"/>
      <use xlink:href="#DejaVuSans-45" x="436.294922"/>
      <use xlink:href="#DejaVuSans-70" x="499.478516"/>
      <use xlink:href="#DejaVuSans-69" x="562.955078"/>
      <use xlink:href="#DejaVuSans-73" x="590.738281"/>
      <use xlink:href="#DejaVuSans-6f" x="642.837891"/>
      <use xlink:href="#DejaVuSans-64" x="704.019531"/>
      <use xlink:href="#DejaVuSans-65" x="767.496094"/>
      <use xlink:href="#DejaVuSans-73" x="829.019531"/>
     </g>
    </g>
   </g>
   <g id="matplotlib.axis_2">
    <g id="ytick_1">
     <g id="line2d_19">
      <path d="M 57.6 286.002279 
L 414.72 286.002279 
" clip-path="url(#pac8f17cd4e)" style="fill: none; stroke-dasharray: 2.96,1.28; stroke-dashoffset: 0; stroke: #b0b0b0; stroke-width: 0.8"/>
     </g>
     <g id="line2d_20">
      <defs>
       <path id="mcbc24e45cc" d="M 0 0 
L -3.5 0 
" style="stroke: #000000; stroke-width: 0.8"/>
      </defs>
      <g>
       <use xlink:href="#mcbc24e45cc" x="57.6" y="286.002279" style="stroke: #000000; stroke-width: 0.8"/>
      </g>
     </g>
     <g id="text_11">
      <!-- −350 -->
      <g transform="translate(23.132812 289.801498)scale(0.1 -0.1)">
       <defs>
        <path id="DejaVuSans-2212" d="M 678 2272 
L 4684 2272 
L 4684 1741 
L 678 1741 
L 678 2272 
z
" transform="scale(0.015625)"/>
        <path id="DejaVuSans-33" d="M 2597 2516 
Q 3050 2419 3304 2112 
Q 3559 1806 3559 1356 
Q 3559 666 3084 287 
Q 2609 -91 1734 -91 
Q 1441 -91 1130 -33 
Q 819 25 488 141 
L 488 750 
Q 750 597 1062 519 
Q 1375 441 1716 441 
Q 2309 441 2620 675 
Q 2931 909 2931 1356 
Q 2931 1769 2642 2001 
Q 2353 2234 1838 2234 
L 1294 2234 
L 1294 2753 
L 1863 2753 
Q 2328 2753 2575 2939 
Q 2822 3125 2822 3475 
Q 2822 3834 2567 4026 
Q 2313 4219 1838 4219 
Q 1578 4219 1281 4162 
Q 984 4106 628 3988 
L 628 4550 
Q 988 4650 1302 4700 
Q 1616 4750 1894 4750 
Q 2613 4750 3031 4423 
Q 3450 4097 3450 3541 
Q 3450 3153 3228 2886 
Q 3006 2619 2597 2516 
z
" transform="scale(0.015625)"/>
       </defs>
       <use xlink:href="#DejaVuSans-2212"/>
       <use xlink:href="#DejaVuSans-33" x="83.789062"/>
       <use xlink:href="#DejaVuSans-35" x="147.412109"/>
       <use xlink:href="#DejaVuSans-30" x="211.035156"/>
      </g>
     </g>
    </g>
    <g id="ytick_2">
     <g id="line2d_21">
      <path d="M 57.6 251.880982 
L 414.72 251.880982 
" clip-path="url(#pac8f17cd4e)" style="fill: none; stroke-dasharray: 2.96,1.28; stroke-dashoffset: 0; stroke: #b0b0b0; stroke-width: 0.8"/>
     </g>
     <g id="line2d_22">
      <g>
       <use xlink:href="#mcbc24e45cc" x="57.6" y="251.880982" style="stroke: #000000; stroke-width: 0.8"/>
      </g>
     </g>
     <g id="text_12">
      <!-- −300 -->
      <g transform="translate(23.132812 255.6802)scale(0.1 -0.1)">
       <use xlink:href="#DejaVuSans-2212"/>
       <use xlink:href="#DejaVuSans-33" x="83.789062"/>
       <use xlink:href="#DejaVuSans-30" x="147.412109"/>
       <use xlink:href="#DejaVuSans-30" x="211.035156"/>
      </g>
     </g>
    </g>
    <g id="ytick_3">
     <g id="line2d_23">
      <path d="M 57.6 217.759684 
L 414.72 217.759684 
" clip-path="url(#pac8f17cd4e)" style="fill: none; stroke-dasharray: 2.96,1.28; stroke-dashoffset: 0; stroke: #b0b0b0; stroke-width: 0.8"/>
     </g>
     <g id="line2d_24">
      <g>
       <use xlink:href="#mcbc24e45cc" x="57.6" y="217.759684" style="stroke: #000000; stroke-width: 0.8"/>
      </g>
     </g>
     <g id="text_13">
      <!-- −250 -->
      <g transform="translate(23.132812 221.558903)scale(0.1 -0.1)">
       <use xlink:href="#DejaVuSans-2212"/>
       <use xlink:href="#DejaVuSans-32" x="83.789062"/>
       <use xlink:href="#DejaVuSans-35" x="147.412109"/>
       <use xlink:href="#DejaVuSans-30" x="211.035156"/>
      </g>
     </g>
    </g>
    <g id="ytick_4">
     <g id="line2d_25">
      <path d="M 57.6 183.638386 
L 414.72 183.638386 
" clip-path="url(#pac8f17cd4e)" style="fill: none; stroke-dasharray: 2.96,1.28; stroke-dashoffset: 0; stroke: #b0b0b0; stroke-width: 0.8"/>
     </g>
     <g id="line2d_26">
      <g>
       <use xlink:href="#mcbc24e45cc" x="57.6" y="183.638386" style="stroke: #000000; stroke-width: 0.8"/>
      </g>
     </g>
     <g id="text_14">
      <!-- −200 -->
      <g transform="translate(23.132812 187.437605)scale(0.1 -0.1)">
       <use xlink:href="#DejaVuSans-2212"/>
       <use xlink:href="#DejaVuSans-32" x="83.789062"/>
       <use xlink:href="#DejaVuSans-30" x="147.412109"/>
       <use xlink:href="#DejaVuSans-30" x="211.035156"/>
      </g>
     </g>
    </g>
    <g id="ytick_5">
     <g id="line2d_27">
      <path d="M 57.6 149.517089 
L 414.72 149.517089 
" clip-path="url(#pac8f17cd4e)" style="fill: none; stroke-dasharray: 2.96,1.28; stroke-dashoffset: 0; stroke: #b0b0b0; stroke-width: 0.8"/>
     </g>
     <g id="line2d_28">
      <g>
       <use xlink:href="#mcbc24e45cc" x="57.6" y="149.517089" style="stroke: #000000; stroke-width: 0.8"/>
      </g>
     </g>
     <g id="text_15">
      <!-- −150 -->
      <g transform="translate(23.132812 153.316308)scale(0.1 -0.1)">
       <use xlink:href="#DejaVuSans-2212"/>
       <use xlink:href="#DejaVuSans-31" x="83.789062"/>
       <use xlink:href="#DejaVuSans-35" x="147.412109"/>
       <use xlink:href="#DejaVuSans-30" x="211.035156"/>
      </g>
     </g>
    </g>
    <g id="ytick_6">
     <g id="line2d_29">
      <path d="M 57.6 115.395791 
L 414.72 115.395791 
" clip-path="url(#pac8f17cd4e)" style="fill: none; stroke-dasharray: 2.96,1.28; stroke-dashoffset: 0; stroke: #b0b0b0; stroke-width: 0.8"/>
     </g>
     <g id="line2d_30">
      <g>
       <use xlink:href="#mcbc24e45cc" x="57.6" y="115.395791" style="stroke: #000000; stroke-width: 0.8"/>
      </g>
     </g>
     <g id="text_16">
      <!-- −100 -->
      <g transform="translate(23.132812 119.19501)scale(0.1 -0.1)">
       <use xlink:href="#DejaVuSans-2212"/>
       <use xlink:href="#DejaVuSans-31" x="83.789062"/>
       <use xlink:href="#DejaVuSans-30" x="147.412109"/>
       <use xlink:href="#DejaVuSans-30" x="211.035156"/>
      </g>
     </g>
    </g>
    <g id="ytick_7">
     <g id="line2d_31">
      <path d="M 57.6 81.274494 
L 414.72 81.274494 
" clip-path="url(#pac8f17cd4e)" style="fill: none; stroke-dasharray: 2.96,1.28; stroke-dashoffset: 0; stroke: #b0b0b0; stroke-width: 0.8"/>
     </g>
     <g id="line2d_32">
      <g>
       <use xlink:href="#mcbc24e45cc" x="57.6" y="81.274494" style="stroke: #000000; stroke-width: 0.8"/>
      </g>
     </g>
     <g id="text_17">
      <!-- −50 -->
      <g transform="translate(29.495313 85.073712)scale(0.1 -0.1)">
       <use xlink:href="#DejaVuSans-2212"/>
       <use xlink:href="#DejaVuSans-35" x="83.789062"/>
       <use xlink:href="#DejaVuSans-30" x="147.412109"/>
      </g>
     </g>
    </g>
    <g id="ytick_8">
     <g id="line2d_33">
      <path d="M 57.6 47.153196 
L 414.72 47.153196 
" clip-path="url(#pac8f17cd4e)" style="fill: none; stroke-dasharray: 2.96,1.28; stroke-dashoffset: 0; stroke: #b0b0b0; stroke-width: 0.8"/>
     </g>
     <g id="line2d_34">
      <g>
       <use xlink:href="#mcbc24e45cc" x="57.6" y="47.153196" style="stroke: #000000; stroke-width: 0.8"/>
      </g>
     </g>
     <g id="text_18">
      <!-- 0 -->
      <g transform="translate(44.2375 50.952415)scale(0.1 -0.1)">
       <use xlink:href="#DejaVuSans-30"/>
      </g>
     </g>
    </g>
    <g id="text_19">
     <!-- Reward Density -->
     <g transform="translate(17.053125 213.74675)rotate(-90)scale(0.1 -0.1)">
      <defs>
       <path id="DejaVuSans-52" d="M 2841 2188 
Q 3044 2119 3236 1894 
Q 3428 1669 3622 1275 
L 4263 0 
L 3584 0 
L 2988 1197 
Q 2756 1666 2539 1819 
Q 2322 1972 1947 1972 
L 1259 1972 
L 1259 0 
L 628 0 
L 628 4666 
L 2053 4666 
Q 2853 4666 3247 4331 
Q 3641 3997 3641 3322 
Q 3641 2881 3436 2590 
Q 3231 2300 2841 2188 
z
M 1259 4147 
L 1259 2491 
L 2053 2491 
Q 2509 2491 2742 2702 
Q 2975 2913 2975 3322 
Q 2975 3731 2742 3939 
Q 2509 4147 2053 4147 
L 1259 4147 
z
" transform="scale(0.015625)"/>
       <path id="DejaVuSans-77" d="M 269 3500 
L 844 3500 
L 1563 769 
L 2278 3500 
L 2956 3500 
L 3675 769 
L 4391 3500 
L 4966 3500 
L 4050 0 
L 3372 0 
L 2619 2869 
L 1863 0 
L 1184 0 
L 269 3500 
z
" transform="scale(0.015625)"/>
       <path id="DejaVuSans-44" d="M 1259 4147 
L 1259 519 
L 2022 519 
Q 2988 519 3436 956 
Q 3884 1394 3884 2338 
Q 3884 3275 3436 3711 
Q 2988 4147 2022 4147 
L 1259 4147 
z
M 628 4666 
L 1925 4666 
Q 3281 4666 3915 4102 
Q 4550 3538 4550 2338 
Q 4550 1131 3912 565 
Q 3275 0 1925 0 
L 628 0 
L 628 4666 
z
" transform="scale(0.015625)"/>
       <path id="DejaVuSans-74" d="M 1172 4494 
L 1172 3500 
L 2356 3500 
L 2356 3053 
L 1172 3053 
L 1172 1153 
Q 1172 725 1289 603 
Q 1406 481 1766 481 
L 2356 481 
L 2356 0 
L 1766 0 
Q 1100 0 847 248 
Q 594 497 594 1153 
L 594 3053 
L 172 3053 
L 172 3500 
L 594 3500 
L 594 4494 
L 1172 4494 
z
" transform="scale(0.015625)"/>
       <path id="DejaVuSans-79" d="M 2059 -325 
Q 1816 -950 1584 -1140 
Q 1353 -1331 966 -1331 
L 506 -1331 
L 506 -850 
L 844 -850 
Q 1081 -850 1212 -737 
Q 1344 -625 1503 -206 
L 1606 56 
L 191 3500 
L 800 3500 
L 1894 763 
L 2988 3500 
L 3597 3500 
L 2059 -325 
z
" transform="scale(0.015625)"/>
      </defs>
      <use xlink:href="#DejaVuSans-52"/>
      <use xlink:href="#DejaVuSans-65" x="64.982422"/>
      <use xlink:href="#DejaVuSans-77" x="126.505859"/>
      <use xlink:href="#DejaVuSans-61" x="208.292969"/>
      <use xlink:href="#DejaVuSans-72" x="269.572266"/>
      <use xlink:href="#DejaVuSans-64" x="308.935547"/>
      <use xlink:href="#DejaVuSans-20" x="372.412109"/>
      <use xlink:href="#DejaVuSans-44" x="404.199219"/>
      <use xlink:href="#DejaVuSans-65" x="481.201172"/>
      <use xlink:href="#DejaVuSans-6e" x="542.724609"/>
      <use xlink:href="#DejaVuSans-73" x="606.103516"/>
      <use xlink:href="#DejaVuSans-69" x="658.203125"/>
      <use xlink:href="#DejaVuSans-74" x="685.986328"/>
      <use xlink:href="#DejaVuSans-79" x="725.195312"/>
     </g>
    </g>
   </g>
   <g id="LineCollection_1">
    <path d="M 90.893768 125.803469 
L 125.01585 125.803469 
" clip-path="url(#pac8f17cd4e)" style="fill: none; stroke: #1f77b4; stroke-width: 1.5"/>
    <path d="M 176.198972 130.499652 
L 210.321054 130.499652 
" clip-path="url(#pac8f17cd4e)" style="fill: none; stroke: #1f77b4; stroke-width: 1.5"/>
    <path d="M 261.504176 126.707411 
L 295.626258 126.707411 
" clip-path="url(#pac8f17cd4e)" style="fill: none; stroke: #1f77b4; stroke-width: 1.5"/>
    <path d="M 346.80938 123.491547 
L 380.931462 123.491547 
" clip-path="url(#pac8f17cd4e)" style="fill: none; stroke: #1f77b4; stroke-width: 1.5"/>
    <path d="M 347.30415 127.940282 
L 381.426232 127.940282 
" clip-path="url(#pac8f17cd4e)" style="fill: none; stroke: #1f77b4; stroke-width: 1.5"/>
   </g>
   <g id="LineCollection_2">
    <path d="M 90.893768 53.568 
L 125.01585 53.568 
" clip-path="url(#pac8f17cd4e)" style="fill: none; stroke: #1f77b4; stroke-width: 1.5"/>
    <path d="M 176.198972 56.297704 
L 210.321054 56.297704 
" clip-path="url(#pac8f17cd4e)" style="fill: none; stroke: #1f77b4; stroke-width: 1.5"/>
    <path d="M 261.504176 58.413224 
L 295.626258 58.413224 
" clip-path="url(#pac8f17cd4e)" style="fill: none; stroke: #1f77b4; stroke-width: 1.5"/>
    <path d="M 346.80938 58.140254 
L 380.931462 58.140254 
" clip-path="url(#pac8f17cd4e)" style="fill: none; stroke: #1f77b4; stroke-width: 1.5"/>
    <path d="M 347.30415 58.481467 
L 381.426232 58.481467 
" clip-path="url(#pac8f17cd4e)" style="fill: none; stroke: #1f77b4; stroke-width: 1.5"/>
   </g>
   <g id="LineCollection_3">
    <path d="M 90.893768 282.86312 
L 125.01585 282.86312 
" clip-path="url(#pac8f17cd4e)" style="fill: none; stroke: #1f77b4; stroke-width: 1.5"/>
    <path d="M 176.198972 274.19631 
L 210.321054 274.19631 
" clip-path="url(#pac8f17cd4e)" style="fill: none; stroke: #1f77b4; stroke-width: 1.5"/>
    <path d="M 261.504176 260.889004 
L 295.626258 260.889004 
" clip-path="url(#pac8f17cd4e)" style="fill: none; stroke: #1f77b4; stroke-width: 1.5"/>
    <path d="M 346.80938 295.488 
L 380.931462 295.488 
" clip-path="url(#pac8f17cd4e)" style="fill: none; stroke: #1f77b4; stroke-width: 1.5"/>
    <path d="M 347.30415 284.910398 
L 381.426232 284.910398 
" clip-path="url(#pac8f17cd4e)" style="fill: none; stroke: #1f77b4; stroke-width: 1.5"/>
   </g>
   <g id="LineCollection_4">
    <path d="M 107.954809 282.86312 
L 107.954809 53.568 
" clip-path="url(#pac8f17cd4e)" style="fill: none; stroke: #1f77b4; stroke-width: 1.5"/>
    <path d="M 193.260013 274.19631 
L 193.260013 56.297704 
" clip-path="url(#pac8f17cd4e)" style="fill: none; stroke: #1f77b4; stroke-width: 1.5"/>
    <path d="M 278.565217 260.889004 
L 278.565217 58.413224 
" clip-path="url(#pac8f17cd4e)" style="fill: none; stroke: #1f77b4; stroke-width: 1.5"/>
    <path d="M 363.870421 295.488 
L 363.870421 58.140254 
" clip-path="url(#pac8f17cd4e)" style="fill: none; stroke: #1f77b4; stroke-width: 1.5"/>
    <path d="M 364.365191 284.910398 
L 364.365191 58.481467 
" clip-path="url(#pac8f17cd4e)" style="fill: none; stroke: #1f77b4; stroke-width: 1.5"/>
   </g>
   <g id="line2d_35">
    <path d="M 107.954809 125.803469 
L 193.260013 130.499652 
L 278.565217 126.707411 
L 363.870421 123.491547 
L 364.365191 127.940282 
" clip-path="url(#pac8f17cd4e)" style="fill: none; stroke: #4682b4; stroke-width: 1.5; stroke-linecap: square"/>
   </g>
   <g id="line2d_36">
    <path d="M 107.954809 125.803469 
L 193.260013 130.499652 
L 278.565217 126.707411 
L 363.870421 123.491547 
L 364.365191 127.940282 
" clip-path="url(#pac8f17cd4e)" style="fill: none; stroke: #4682b4; stroke-width: 1.5; stroke-linecap: square"/>
   </g>
   <g id="patch_3">
    <path d="M 57.6 307.584 
L 57.6 41.472 
" style="fill: none; stroke: #000000; stroke-width: 0.8; stroke-linejoin: miter; stroke-linecap: square"/>
   </g>
   <g id="patch_4">
    <path d="M 414.72 307.584 
L 414.72 41.472 
" style="fill: none; stroke: #000000; stroke-width: 0.8; stroke-linejoin: miter; stroke-linecap: square"/>
   </g>
   <g id="patch_5">
    <path d="M 57.6 307.584 
L 414.72 307.584 
" style="fill: none; stroke: #000000; stroke-width: 0.8; stroke-linejoin: miter; stroke-linecap: square"/>
   </g>
   <g id="patch_6">
    <path d="M 57.6 41.472 
L 414.72 41.472 
" style="fill: none; stroke: #000000; stroke-width: 0.8; stroke-linejoin: miter; stroke-linecap: square"/>
   </g>
   <g id="text_20">
    <!-- Violinplot for progress of profits/storage_cost -->
    <g transform="translate(101.32875 35.472)scale(0.12 -0.12)">
     <defs>
      <path id="DejaVuSans-56" d="M 1831 0 
L 50 4666 
L 709 4666 
L 2188 738 
L 3669 4666 
L 4325 4666 
L 2547 0 
L 1831 0 
z
" transform="scale(0.015625)"/>
      <path id="DejaVuSans-6c" d="M 603 4863 
L 1178 4863 
L 1178 0 
L 603 0 
L 603 4863 
z
" transform="scale(0.015625)"/>
      <path id="DejaVuSans-66" d="M 2375 4863 
L 2375 4384 
L 1825 4384 
Q 1516 4384 1395 4259 
Q 1275 4134 1275 3809 
L 1275 3500 
L 2222 3500 
L 2222 3053 
L 1275 3053 
L 1275 0 
L 697 0 
L 697 3053 
L 147 3053 
L 147 3500 
L 697 3500 
L 697 3744 
Q 697 4328 969 4595 
Q 1241 4863 1831 4863 
L 2375 4863 
z
" transform="scale(0.015625)"/>
      <path id="DejaVuSans-67" d="M 2906 1791 
Q 2906 2416 2648 2759 
Q 2391 3103 1925 3103 
Q 1463 3103 1205 2759 
Q 947 2416 947 1791 
Q 947 1169 1205 825 
Q 1463 481 1925 481 
Q 2391 481 2648 825 
Q 2906 1169 2906 1791 
z
M 3481 434 
Q 3481 -459 3084 -895 
Q 2688 -1331 1869 -1331 
Q 1566 -1331 1297 -1286 
Q 1028 -1241 775 -1147 
L 775 -588 
Q 1028 -725 1275 -790 
Q 1522 -856 1778 -856 
Q 2344 -856 2625 -561 
Q 2906 -266 2906 331 
L 2906 616 
Q 2728 306 2450 153 
Q 2172 0 1784 0 
Q 1141 0 747 490 
Q 353 981 353 1791 
Q 353 2603 747 3093 
Q 1141 3584 1784 3584 
Q 2172 3584 2450 3431 
Q 2728 3278 2906 2969 
L 2906 3500 
L 3481 3500 
L 3481 434 
z
" transform="scale(0.015625)"/>
      <path id="DejaVuSans-2f" d="M 1625 4666 
L 2156 4666 
L 531 -594 
L 0 -594 
L 1625 4666 
z
" transform="scale(0.015625)"/>
      <path id="DejaVuSans-5f" d="M 3263 -1063 
L 3263 -1509 
L -63 -1509 
L -63 -1063 
L 3263 -1063 
z
" transform="scale(0.015625)"/>
      <path id="DejaVuSans-63" d="M 3122 3366 
L 3122 2828 
Q 2878 2963 2633 3030 
Q 2388 3097 2138 3097 
Q 1578 3097 1268 2742 
Q 959 2388 959 1747 
Q 959 1106 1268 751 
Q 1578 397 2138 397 
Q 2388 397 2633 464 
Q 2878 531 3122 666 
L 3122 134 
Q 2881 22 2623 -34 
Q 2366 -91 2075 -91 
Q 1284 -91 818 406 
Q 353 903 353 1747 
Q 353 2603 823 3093 
Q 1294 3584 2113 3584 
Q 2378 3584 2631 3529 
Q 2884 3475 3122 3366 
z
" transform="scale(0.015625)"/>
     </defs>
     <use xlink:href="#DejaVuSans-56"/>
     <use xlink:href="#DejaVuSans-69" x="66.158203"/>
     <use xlink:href="#DejaVuSans-6f" x="93.941406"/>
     <use xlink:href="#DejaVuSans-6c" x="155.123047"/>
     <use xlink:href="#DejaVuSans-69" x="182.90625"/>
     <use xlink:href="#DejaVuSans-6e" x="210.689453"/>
     <use xlink:href="#DejaVuSans-70" x="274.068359"/>
     <use xlink:href="#DejaVuSans-6c" x="337.544922"/>
     <use xlink:href="#DejaVuSans-6f" x="365.328125"/>
     <use xlink:href="#DejaVuSans-74" x="426.509766"/>
     <use xlink:href="#DejaVuSans-20" x="465.71875"/>
     <use xlink:href="#DejaVuSans-66" x="497.505859"/>
     <use xlink:href="#DejaVuSans-6f" x="532.710938"/>
     <use xlink:href="#DejaVuSans-72" x="593.892578"/>
     <use xlink:href="#DejaVuSans-20" x="635.005859"/>
     <use xlink:href="#DejaVuSans-70" x="666.792969"/>
     <use xlink:href="#DejaVuSans-72" x="730.269531"/>
     <use xlink:href="#DejaVuSans-6f" x="769.132812"/>
     <use xlink:href="#DejaVuSans-67" x="830.314453"/>
     <use xlink:href="#DejaVuSans-72" x="893.791016"/>
     <use xlink:href="#DejaVuSans-65" x="932.654297"/>
     <use xlink:href="#DejaVuSans-73" x="994.177734"/>
     <use xlink:href="#DejaVuSans-73" x="1046.277344"/>
     <use xlink:href="#DejaVuSans-20" x="1098.376953"/>
     <use xlink:href="#DejaVuSans-6f" x="1130.164062"/>
     <use xlink:href="#DejaVuSans-66" x="1191.345703"/>
     <use xlink:href="#DejaVuSans-20" x="1226.550781"/>
     <use xlink:href="#DejaVuSans-70" x="1258.337891"/>
     <use xlink:href="#DejaVuSans-72" x="1321.814453"/>
     <use xlink:href="#DejaVuSans-6f" x="1360.677734"/>
     <use xlink:href="#DejaVuSans-66" x="1421.859375"/>
     <use xlink:href="#DejaVuSans-69" x="1457.064453"/>
     <use xlink:href="#DejaVuSans-74" x="1484.847656"/>
     <use xlink:href="#DejaVuSans-73" x="1524.056641"/>
     <use xlink:href="#DejaVuSans-2f" x="1576.15625"/>
     <use xlink:href="#DejaVuSans-73" x="1609.847656"/>
     <use xlink:href="#DejaVuSans-74" x="1661.947266"/>
     <use xlink:href="#DejaVuSans-6f" x="1701.15625"/>
     <use xlink:href="#DejaVuSans-72" x="1762.337891"/>
     <use xlink:href="#DejaVuSans-61" x="1803.451172"/>
     <use xlink:href="#DejaVuSans-67" x="1864.730469"/>
     <use xlink:href="#DejaVuSans-65" x="1928.207031"/>
     <use xlink:href="#DejaVuSans-5f" x="1989.730469"/>
     <use xlink:href="#DejaVuSans-63" x="2039.730469"/>
     <use xlink:href="#DejaVuSans-6f" x="2094.710938"/>
     <use xlink:href="#DejaVuSans-73" x="2155.892578"/>
     <use xlink:href="#DejaVuSans-74" x="2207.992188"/>
    </g>
   </g>
   <g id="legend_1">
    <g id="patch_7">
     <path d="M 276.504375 64.150125 
L 407.72 64.150125 
Q 409.72 64.150125 409.72 62.150125 
L 409.72 48.472 
Q 409.72 46.472 407.72 46.472 
L 276.504375 46.472 
Q 274.504375 46.472 274.504375 48.472 
L 274.504375 62.150125 
Q 274.504375 64.150125 276.504375 64.150125 
z
" style="fill: #ffffff; opacity: 0.8; stroke: #cccccc; stroke-linejoin: miter"/>
    </g>
    <g id="line2d_37">
     <path d="M 278.504375 54.570438 
L 288.504375 54.570438 
L 298.504375 54.570438 
" style="fill: none; stroke: #4682b4; stroke-width: 1.5; stroke-linecap: square"/>
    </g>
    <g id="text_21">
     <!-- StableBaselinesPPO -->
     <g transform="translate(306.504375 58.070438)scale(0.1 -0.1)">
      <defs>
       <path id="DejaVuSans-53" d="M 3425 4513 
L 3425 3897 
Q 3066 4069 2747 4153 
Q 2428 4238 2131 4238 
Q 1616 4238 1336 4038 
Q 1056 3838 1056 3469 
Q 1056 3159 1242 3001 
Q 1428 2844 1947 2747 
L 2328 2669 
Q 3034 2534 3370 2195 
Q 3706 1856 3706 1288 
Q 3706 609 3251 259 
Q 2797 -91 1919 -91 
Q 1588 -91 1214 -16 
Q 841 59 441 206 
L 441 856 
Q 825 641 1194 531 
Q 1563 422 1919 422 
Q 2459 422 2753 634 
Q 3047 847 3047 1241 
Q 3047 1584 2836 1778 
Q 2625 1972 2144 2069 
L 1759 2144 
Q 1053 2284 737 2584 
Q 422 2884 422 3419 
Q 422 4038 858 4394 
Q 1294 4750 2059 4750 
Q 2388 4750 2728 4690 
Q 3069 4631 3425 4513 
z
" transform="scale(0.015625)"/>
       <path id="DejaVuSans-62" d="M 3116 1747 
Q 3116 2381 2855 2742 
Q 2594 3103 2138 3103 
Q 1681 3103 1420 2742 
Q 1159 2381 1159 1747 
Q 1159 1113 1420 752 
Q 1681 391 2138 391 
Q 2594 391 2855 752 
Q 3116 1113 3116 1747 
z
M 1159 2969 
Q 1341 3281 1617 3432 
Q 1894 3584 2278 3584 
Q 2916 3584 3314 3078 
Q 3713 2572 3713 1747 
Q 3713 922 3314 415 
Q 2916 -91 2278 -91 
Q 1894 -91 1617 61 
Q 1341 213 1159 525 
L 1159 0 
L 581 0 
L 581 4863 
L 1159 4863 
L 1159 2969 
z
" transform="scale(0.015625)"/>
       <path id="DejaVuSans-42" d="M 1259 2228 
L 1259 519 
L 2272 519 
Q 2781 519 3026 730 
Q 3272 941 3272 1375 
Q 3272 1813 3026 2020 
Q 2781 2228 2272 2228 
L 1259 2228 
z
M 1259 4147 
L 1259 2741 
L 2194 2741 
Q 2656 2741 2882 2914 
Q 3109 3088 3109 3444 
Q 3109 3797 2882 3972 
Q 2656 4147 2194 4147 
L 1259 4147 
z
M 628 4666 
L 2241 4666 
Q 2963 4666 3353 4366 
Q 3744 4066 3744 3513 
Q 3744 3084 3544 2831 
Q 3344 2578 2956 2516 
Q 3422 2416 3680 2098 
Q 3938 1781 3938 1306 
Q 3938 681 3513 340 
Q 3088 0 2303 0 
L 628 0 
L 628 4666 
z
" transform="scale(0.015625)"/>
       <path id="DejaVuSans-50" d="M 1259 4147 
L 1259 2394 
L 2053 2394 
Q 2494 2394 2734 2622 
Q 2975 2850 2975 3272 
Q 2975 3691 2734 3919 
Q 2494 4147 2053 4147 
L 1259 4147 
z
M 628 4666 
L 2053 4666 
Q 2838 4666 3239 4311 
Q 3641 3956 3641 3272 
Q 3641 2581 3239 2228 
Q 2838 1875 2053 1875 
L 1259 1875 
L 1259 0 
L 628 0 
L 628 4666 
z
" transform="scale(0.015625)"/>
       <path id="DejaVuSans-4f" d="M 2522 4238 
Q 1834 4238 1429 3725 
Q 1025 3213 1025 2328 
Q 1025 1447 1429 934 
Q 1834 422 2522 422 
Q 3209 422 3611 934 
Q 4013 1447 4013 2328 
Q 4013 3213 3611 3725 
Q 3209 4238 2522 4238 
z
M 2522 4750 
Q 3503 4750 4090 4092 
Q 4678 3434 4678 2328 
Q 4678 1225 4090 567 
Q 3503 -91 2522 -91 
Q 1538 -91 948 565 
Q 359 1222 359 2328 
Q 359 3434 948 4092 
Q 1538 4750 2522 4750 
z
" transform="scale(0.015625)"/>
      </defs>
      <use xlink:href="#DejaVuSans-53"/>
      <use xlink:href="#DejaVuSans-74" x="63.476562"/>
      <use xlink:href="#DejaVuSans-61" x="102.685547"/>
      <use xlink:href="#DejaVuSans-62" x="163.964844"/>
      <use xlink:href="#DejaVuSans-6c" x="227.441406"/>
      <use xlink:href="#DejaVuSans-65" x="255.224609"/>
      <use xlink:href="#DejaVuSans-42" x="316.748047"/>
      <use xlink:href="#DejaVuSans-61" x="385.351562"/>
      <use xlink:href="#DejaVuSans-73" x="446.630859"/>
      <use xlink:href="#DejaVuSans-65" x="498.730469"/>
      <use xlink:href="#DejaVuSans-6c" x="560.253906"/>
      <use xlink:href="#DejaVuSans-69" x="588.037109"/>
      <use xlink:href="#DejaVuSans-6e" x="615.820312"/>
      <use xlink:href="#DejaVuSans-65" x="679.199219"/>
      <use xlink:href="#DejaVuSans-73" x="740.722656"/>
      <use xlink:href="#DejaVuSans-50" x="792.822266"/>
      <use xlink:href="#DejaVuSans-50" x="853.125"/>
      <use xlink:href="#DejaVuSans-4f" x="913.427734"/>
     </g>
    </g>
   </g>
  </g>
 </g>
 <defs>
  <clipPath id="pac8f17cd4e">
   <rect x="57.6" y="41.472" width="357.12" height="266.112"/>
  </clipPath>
 </defs>
</svg>
