<?xml version="1.0" encoding="utf-8" standalone="no"?>
<!DOCTYPE svg PUBLIC "-//W3C//DTD SVG 1.1//EN"
  "http://www.w3.org/Graphics/SVG/1.1/DTD/svg11.dtd">
<svg xmlns:xlink="http://www.w3.org/1999/xlink" width="460.8pt" height="345.6pt" viewBox="0 0 460.8 345.6" xmlns="http://www.w3.org/2000/svg" version="1.1">
 <metadata>
  <rdf:RDF xmlns:dc="http://purl.org/dc/elements/1.1/" xmlns:cc="http://creativecommons.org/ns#" xmlns:rdf="http://www.w3.org/1999/02/22-rdf-syntax-ns#">
   <cc:Work>
    <dc:type rdf:resource="http://purl.org/dc/dcmitype/StillImage"/>
    <dc:date>2022-06-21T20:54:25.424556</dc:date>
    <dc:format>image/svg+xml</dc:format>
    <dc:creator>
     <cc:Agent>
      <dc:title>Matplotlib v3.5.2, https://matplotlib.org/</dc:title>
     </cc:Agent>
    </dc:creator>
   </cc:Work>
  </rdf:RDF>
 </metadata>
 <defs>
  <style type="text/css">*{stroke-linejoin: round; stroke-linecap: butt}</style>
 </defs>
 <g id="figure_1">
  <g id="patch_1">
   <path d="M 0 345.6 
L 460.8 345.6 
L 460.8 0 
L 0 0 
z
" style="fill: #ffffff"/>
  </g>
  <g id="axes_1">
   <g id="patch_2">
    <path d="M 57.6 307.584 
L 414.72 307.584 
L 414.72 41.472 
L 57.6 41.472 
z
" style="fill: #ffffff"/>
   </g>
   <g id="PolyCollection_1">
    <path d="M 109.970315 250.250927 
L 105.939303 250.250927 
L 105.505834 248.264231 
L 105.014074 246.277534 
L 104.449844 244.290838 
L 103.794623 242.304142 
L 103.02789 240.317446 
L 102.130315 238.330749 
L 101.086974 236.344053 
L 99.889703 234.357357 
L 98.538122 232.370661 
L 97.039371 230.383965 
L 95.407115 228.397268 
L 93.660515 226.410572 
L 91.823616 224.423876 
L 89.925105 222.43718 
L 87.997928 220.450483 
L 86.078184 218.463787 
L 84.203026 216.477091 
L 82.407948 214.490395 
L 80.724347 212.503698 
L 79.178323 210.517002 
L 77.79125 208.530306 
L 76.58178 206.54361 
L 75.568179 204.556914 
L 74.769553 202.570217 
L 74.204917 200.583521 
L 73.889998 198.596825 
L 73.832727 196.610129 
L 74.0291 194.623432 
L 74.461096 192.636736 
L 75.097658 190.65004 
L 75.898699 188.663344 
L 76.821095 186.676647 
L 77.825122 184.689951 
L 78.879764 182.703255 
L 79.965791 180.716559 
L 81.076066 178.729863 
L 82.213152 176.743166 
L 83.384768 174.75647 
L 84.59802 172.769774 
L 85.853662 170.783078 
L 87.141799 168.796381 
L 88.440329 166.809685 
L 89.716887 164.822989 
L 90.934158 162.836293 
L 92.057366 160.849596 
L 93.061919 158.8629 
L 93.938992 156.876204 
L 94.697363 154.889508 
L 95.361003 152.902812 
L 95.963249 150.916115 
L 96.539366 148.929419 
L 97.119544 146.942723 
L 97.723916 144.956027 
L 98.360232 142.96933 
L 99.024032 140.982634 
L 99.700647 138.995938 
L 100.368378 137.009242 
L 101.002395 135.022545 
L 101.579049 133.035849 
L 102.080186 131.049153 
L 102.496743 129.062457 
L 102.830757 127.075761 
L 103.09502 125.089064 
L 103.310208 123.102368 
L 103.500119 121.115672 
L 103.68636 119.128976 
L 103.884051 117.142279 
L 104.099796 115.155583 
L 104.332311 113.168887 
L 104.57517 111.182191 
L 104.820401 109.195494 
L 105.06155 107.208798 
L 105.295182 105.222102 
L 105.520604 103.235406 
L 105.738333 101.24871 
L 105.948303 99.262013 
L 106.148757 97.275317 
L 106.336358 95.288621 
L 106.507381 93.301925 
L 106.659363 91.315228 
L 106.792385 89.328532 
L 106.909364 87.341836 
L 107.015217 85.35514 
L 107.115214 83.368443 
L 107.213185 81.381747 
L 107.310232 79.395051 
L 107.404365 77.408355 
L 107.491118 75.421659 
L 107.564847 73.434962 
L 107.620307 71.448266 
L 107.654049 69.46157 
L 107.665357 67.474874 
L 107.656579 65.488177 
L 107.632864 63.501481 
L 107.601376 61.514785 
L 107.570142 59.528089 
L 107.546722 57.541392 
L 107.536972 55.554696 
L 107.544123 53.568 
L 108.365494 53.568 
L 108.365494 53.568 
L 108.372646 55.554696 
L 108.362895 57.541392 
L 108.339476 59.528089 
L 108.308241 61.514785 
L 108.276754 63.501481 
L 108.253039 65.488177 
L 108.244261 67.474874 
L 108.255568 69.46157 
L 108.289311 71.448266 
L 108.344771 73.434962 
L 108.4185 75.421659 
L 108.505252 77.408355 
L 108.599386 79.395051 
L 108.696433 81.381747 
L 108.794404 83.368443 
L 108.894401 85.35514 
L 109.000254 87.341836 
L 109.117233 89.328532 
L 109.250255 91.315228 
L 109.402237 93.301925 
L 109.57326 95.288621 
L 109.760861 97.275317 
L 109.961315 99.262013 
L 110.171284 101.24871 
L 110.389014 103.235406 
L 110.614436 105.222102 
L 110.848067 107.208798 
L 111.089216 109.195494 
L 111.334448 111.182191 
L 111.577306 113.168887 
L 111.809822 115.155583 
L 112.025566 117.142279 
L 112.223258 119.128976 
L 112.409498 121.115672 
L 112.59941 123.102368 
L 112.814597 125.089064 
L 113.078861 127.075761 
L 113.412875 129.062457 
L 113.829432 131.049153 
L 114.330569 133.035849 
L 114.907223 135.022545 
L 115.541239 137.009242 
L 116.20897 138.995938 
L 116.885586 140.982634 
L 117.549386 142.96933 
L 118.185702 144.956027 
L 118.790074 146.942723 
L 119.370252 148.929419 
L 119.946368 150.916115 
L 120.548615 152.902812 
L 121.212255 154.889508 
L 121.970626 156.876204 
L 122.847699 158.8629 
L 123.852252 160.849596 
L 124.975459 162.836293 
L 126.192731 164.822989 
L 127.469289 166.809685 
L 128.767819 168.796381 
L 130.055956 170.783078 
L 131.311598 172.769774 
L 132.52485 174.75647 
L 133.696466 176.743166 
L 134.833552 178.729863 
L 135.943827 180.716559 
L 137.029854 182.703255 
L 138.084496 184.689951 
L 139.088523 186.676647 
L 140.010919 188.663344 
L 140.81196 190.65004 
L 141.448522 192.636736 
L 141.880517 194.623432 
L 142.07689 196.610129 
L 142.01962 198.596825 
L 141.704701 200.583521 
L 141.140065 202.570217 
L 140.341438 204.556914 
L 139.327838 206.54361 
L 138.118368 208.530306 
L 136.731295 210.517002 
L 135.185271 212.503698 
L 133.50167 214.490395 
L 131.706592 216.477091 
L 129.831433 218.463787 
L 127.911689 220.450483 
L 125.984513 222.43718 
L 124.086002 224.423876 
L 122.249103 226.410572 
L 120.502503 228.397268 
L 118.870246 230.383965 
L 117.371495 232.370661 
L 116.019915 234.357357 
L 114.822644 236.344053 
L 113.779303 238.330749 
L 112.881728 240.317446 
L 112.114994 242.304142 
L 111.459774 244.290838 
L 110.895544 246.277534 
L 110.403784 248.264231 
L 109.970315 250.250927 
z
" clip-path="url(#pd25e0056ca)" style="fill: #1f77b4; fill-opacity: 0.3"/>
   </g>
   <g id="PolyCollection_2">
    <path d="M 193.933667 278.769951 
L 192.586358 278.769951 
L 192.33073 277.200461 
L 191.978972 275.630971 
L 191.506249 274.061481 
L 190.891793 272.491991 
L 190.124016 270.922501 
L 189.204843 269.353011 
L 188.151751 267.783521 
L 186.996162 266.214031 
L 185.77774 264.644541 
L 184.535348 263.075051 
L 183.296786 261.505561 
L 182.070275 259.936071 
L 180.840497 258.366581 
L 179.570876 256.797091 
L 178.211975 255.227601 
L 176.714117 253.658111 
L 175.041289 252.088621 
L 173.183196 250.519131 
L 171.162881 248.949641 
L 169.038327 247.380151 
L 166.897494 245.810661 
L 164.847406 244.241171 
L 162.99901 242.671681 
L 161.450667 241.102191 
L 160.273753 239.532701 
L 159.503634 237.963211 
L 159.137931 236.393721 
L 159.141822 234.824231 
L 159.457956 233.254741 
L 160.017401 231.685251 
L 160.748522 230.115761 
L 161.582457 228.546271 
L 162.456129 226.97678 
L 163.314981 225.40729 
L 164.117396 223.8378 
L 164.84099 222.26831 
L 165.488807 220.69882 
L 166.092074 219.12933 
L 166.706552 217.55984 
L 167.401593 215.99035 
L 168.243945 214.42086 
L 169.280785 212.85137 
L 170.527194 211.28188 
L 171.961963 209.71239 
L 173.532756 208.1429 
L 175.16848 206.57341 
L 176.79455 205.00392 
L 178.346373 203.43443 
L 179.7777 201.86494 
L 181.062828 200.29545 
L 182.193863 198.72596 
L 183.175497 197.15647 
L 184.019798 195.58698 
L 184.742537 194.01749 
L 185.361289 192.448 
L 185.894616 190.87851 
L 186.361384 189.30902 
L 186.779663 187.73953 
L 187.165309 186.17004 
L 187.530784 184.60055 
L 187.884785 183.03106 
L 188.232867 181.46157 
L 188.578674 179.89208 
L 188.925102 178.32259 
L 189.274741 176.7531 
L 189.62939 175.18361 
L 189.988923 173.61412 
L 190.350152 172.04463 
L 190.706305 170.47514 
L 191.047506 168.90565 
L 191.362257 167.33616 
L 191.639599 165.76667 
L 191.871417 164.19718 
L 192.054318 162.62769 
L 192.190523 161.0582 
L 192.287481 159.48871 
L 192.356216 157.91922 
L 192.408813 156.349729 
L 192.455788 154.780239 
L 192.504108 153.210749 
L 192.556421 151.641259 
L 192.611607 150.071769 
L 192.666275 148.502279 
L 192.716546 146.932789 
L 192.759492 145.363299 
L 192.79386 143.793809 
L 192.820061 142.224319 
L 192.83967 140.654829 
L 192.854761 139.085339 
L 192.86731 137.515849 
L 192.87879 135.946359 
L 192.889995 134.376869 
L 192.901105 132.807379 
L 192.91199 131.237889 
L 192.922654 129.668399 
L 192.93365 128.098909 
L 192.946245 126.529419 
L 192.962187 124.959929 
L 192.983124 123.390439 
L 193.536902 123.390439 
L 193.536902 123.390439 
L 193.557838 124.959929 
L 193.57378 126.529419 
L 193.586376 128.098909 
L 193.597372 129.668399 
L 193.608035 131.237889 
L 193.61892 132.807379 
L 193.630031 134.376869 
L 193.641236 135.946359 
L 193.652716 137.515849 
L 193.665265 139.085339 
L 193.680356 140.654829 
L 193.699965 142.224319 
L 193.726165 143.793809 
L 193.760534 145.363299 
L 193.80348 146.932789 
L 193.85375 148.502279 
L 193.908418 150.071769 
L 193.963605 151.641259 
L 194.015917 153.210749 
L 194.064237 154.780239 
L 194.111213 156.349729 
L 194.16381 157.91922 
L 194.232544 159.48871 
L 194.329503 161.0582 
L 194.465708 162.62769 
L 194.648609 164.19718 
L 194.880427 165.76667 
L 195.157768 167.33616 
L 195.47252 168.90565 
L 195.813721 170.47514 
L 196.169873 172.04463 
L 196.531102 173.61412 
L 196.890636 175.18361 
L 197.245285 176.7531 
L 197.594924 178.32259 
L 197.941352 179.89208 
L 198.287159 181.46157 
L 198.63524 183.03106 
L 198.989242 184.60055 
L 199.354717 186.17004 
L 199.740363 187.73953 
L 200.158642 189.30902 
L 200.625409 190.87851 
L 201.158737 192.448 
L 201.777489 194.01749 
L 202.500228 195.58698 
L 203.344529 197.15647 
L 204.326163 198.72596 
L 205.457198 200.29545 
L 206.742326 201.86494 
L 208.173653 203.43443 
L 209.725476 205.00392 
L 211.351546 206.57341 
L 212.987269 208.1429 
L 214.558063 209.71239 
L 215.992832 211.28188 
L 217.239241 212.85137 
L 218.276081 214.42086 
L 219.118433 215.99035 
L 219.813473 217.55984 
L 220.427952 219.12933 
L 221.031218 220.69882 
L 221.679035 222.26831 
L 222.40263 223.8378 
L 223.205045 225.40729 
L 224.063897 226.97678 
L 224.937569 228.546271 
L 225.771504 230.115761 
L 226.502624 231.685251 
L 227.06207 233.254741 
L 227.378203 234.824231 
L 227.382095 236.393721 
L 227.016392 237.963211 
L 226.246273 239.532701 
L 225.069359 241.102191 
L 223.521016 242.671681 
L 221.672619 244.241171 
L 219.622531 245.810661 
L 217.481699 247.380151 
L 215.357145 248.949641 
L 213.33683 250.519131 
L 211.478736 252.088621 
L 209.805909 253.658111 
L 208.30805 255.227601 
L 206.94915 256.797091 
L 205.679529 258.366581 
L 204.44975 259.936071 
L 203.223239 261.505561 
L 201.984678 263.075051 
L 200.742286 264.644541 
L 199.523864 266.214031 
L 198.368275 267.783521 
L 197.315182 269.353011 
L 196.39601 270.922501 
L 195.628232 272.491991 
L 195.013777 274.061481 
L 194.541054 275.630971 
L 194.189296 277.200461 
L 193.933667 278.769951 
z
" clip-path="url(#pd25e0056ca)" style="fill: #1f77b4; fill-opacity: 0.3"/>
   </g>
   <g id="PolyCollection_3">
    <path d="M 282.58014 279.753366 
L 274.550294 279.753366 
L 273.594285 278.412346 
L 272.532588 277.071326 
L 271.363047 275.730306 
L 270.07952 274.389286 
L 268.674045 273.048266 
L 267.140845 271.707246 
L 265.481082 270.366226 
L 263.706842 269.025206 
L 261.842798 267.684186 
L 259.924628 266.343166 
L 257.994344 265.002146 
L 256.093954 263.661126 
L 254.259741 262.320106 
L 252.519383 260.979086 
L 250.893035 259.638067 
L 249.397615 258.297047 
L 248.051961 256.956027 
L 246.879939 255.615007 
L 245.909578 254.273987 
L 245.168342 252.932967 
L 244.67671 251.591947 
L 244.443135 250.250927 
L 244.462678 248.909907 
L 244.719631 247.568887 
L 245.192396 246.227867 
L 245.857987 244.886847 
L 246.694187 243.545827 
L 247.679166 242.204807 
L 248.789963 240.863787 
L 250.001823 239.522767 
L 251.289553 238.181747 
L 252.630481 236.840727 
L 254.007405 235.499707 
L 255.409637 234.158687 
L 256.831183 232.817667 
L 258.266517 231.476647 
L 259.705589 230.135627 
L 261.130095 228.794608 
L 262.512625 227.453588 
L 263.819313 226.112568 
L 265.015576 224.771548 
L 266.073601 223.430528 
L 266.979613 222.089508 
L 267.73879 220.748488 
L 268.37597 219.407468 
L 268.931314 218.066448 
L 269.451559 216.725428 
L 269.979073 215.384408 
L 270.541921 214.043388 
L 271.147976 212.702368 
L 271.784816 211.361348 
L 272.425087 210.020328 
L 273.0352 208.679308 
L 273.584326 207.338288 
L 274.051032 205.997268 
L 274.426152 204.656248 
L 274.712071 203.315228 
L 274.91968 201.974208 
L 275.064659 200.633188 
L 275.164352 199.292169 
L 275.23579 197.951149 
L 275.29472 196.610129 
L 275.355073 195.269109 
L 275.428387 193.928089 
L 275.522989 192.587069 
L 275.643172 191.246049 
L 275.78884 189.905029 
L 275.956023 188.564009 
L 276.138327 187.222989 
L 276.328921 185.881969 
L 276.522405 184.540949 
L 276.71586 183.199929 
L 276.908744 181.858909 
L 277.101757 180.517889 
L 277.295231 179.176869 
L 277.487748 177.835849 
L 277.675555 176.494829 
L 277.852961 175.153809 
L 278.013473 173.812789 
L 278.151208 172.471769 
L 278.262059 171.130749 
L 278.344309 169.789729 
L 278.398645 168.44871 
L 278.427753 167.10769 
L 278.43574 165.76667 
L 278.427573 164.42565 
L 278.408593 163.08463 
L 278.384056 161.74361 
L 278.358654 160.40259 
L 278.336024 159.06157 
L 278.318363 157.72055 
L 278.306315 156.37953 
L 278.29924 155.03851 
L 278.295834 153.69749 
L 278.294907 152.35647 
L 278.296015 151.01545 
L 278.299702 149.67443 
L 278.307259 148.33341 
L 278.320104 146.99239 
L 278.81033 146.99239 
L 278.81033 146.99239 
L 278.823175 148.33341 
L 278.830732 149.67443 
L 278.834419 151.01545 
L 278.835527 152.35647 
L 278.8346 153.69749 
L 278.831194 155.03851 
L 278.824119 156.37953 
L 278.812071 157.72055 
L 278.79441 159.06157 
L 278.77178 160.40259 
L 278.746378 161.74361 
L 278.721841 163.08463 
L 278.702861 164.42565 
L 278.694694 165.76667 
L 278.702681 167.10769 
L 278.731789 168.44871 
L 278.786125 169.789729 
L 278.868375 171.130749 
L 278.979226 172.471769 
L 279.116961 173.812789 
L 279.277473 175.153809 
L 279.454879 176.494829 
L 279.642686 177.835849 
L 279.835203 179.176869 
L 280.028677 180.517889 
L 280.22169 181.858909 
L 280.414574 183.199929 
L 280.608029 184.540949 
L 280.801512 185.881969 
L 280.992107 187.222989 
L 281.17441 188.564009 
L 281.341594 189.905029 
L 281.487262 191.246049 
L 281.607445 192.587069 
L 281.702047 193.928089 
L 281.775361 195.269109 
L 281.835714 196.610129 
L 281.894644 197.951149 
L 281.966082 199.292169 
L 282.065774 200.633188 
L 282.210754 201.974208 
L 282.418363 203.315228 
L 282.704281 204.656248 
L 283.079402 205.997268 
L 283.546108 207.338288 
L 284.095234 208.679308 
L 284.705346 210.020328 
L 285.345617 211.361348 
L 285.982458 212.702368 
L 286.588513 214.043388 
L 287.151361 215.384408 
L 287.678875 216.725428 
L 288.199119 218.066448 
L 288.754463 219.407468 
L 289.391644 220.748488 
L 290.15082 222.089508 
L 291.056833 223.430528 
L 292.114857 224.771548 
L 293.311121 226.112568 
L 294.617809 227.453588 
L 296.000338 228.794608 
L 297.424845 230.135627 
L 298.863917 231.476647 
L 300.299251 232.817667 
L 301.720797 234.158687 
L 303.123029 235.499707 
L 304.499953 236.840727 
L 305.840881 238.181747 
L 307.12861 239.522767 
L 308.340471 240.863787 
L 309.451267 242.204807 
L 310.436246 243.545827 
L 311.272447 244.886847 
L 311.938037 246.227867 
L 312.410803 247.568887 
L 312.667755 248.909907 
L 312.687299 250.250927 
L 312.453724 251.591947 
L 311.962092 252.932967 
L 311.220856 254.273987 
L 310.250495 255.615007 
L 309.078473 256.956027 
L 307.732819 258.297047 
L 306.237399 259.638067 
L 304.611051 260.979086 
L 302.870693 262.320106 
L 301.03648 263.661126 
L 299.13609 265.002146 
L 297.205806 266.343166 
L 295.287636 267.684186 
L 293.423591 269.025206 
L 291.649352 270.366226 
L 289.989589 271.707246 
L 288.456389 273.048266 
L 287.050914 274.389286 
L 285.767387 275.730306 
L 284.597846 277.071326 
L 283.536149 278.412346 
L 282.58014 279.753366 
z
" clip-path="url(#pd25e0056ca)" style="fill: #1f77b4; fill-opacity: 0.3"/>
   </g>
   <g id="PolyCollection_4">
    <path d="M 364.357384 295.488 
L 363.383458 295.488 
L 363.23407 294.027778 
L 363.022809 292.567557 
L 362.725183 291.107335 
L 362.315235 289.647113 
L 361.767972 288.186891 
L 361.061265 286.72667 
L 360.176947 285.266448 
L 359.101482 283.806226 
L 357.826831 282.346004 
L 356.351948 280.885783 
L 354.68471 279.425561 
L 352.843422 277.965339 
L 350.856909 276.505118 
L 348.762782 275.044896 
L 346.604465 273.584674 
L 344.428166 272.124452 
L 342.280869 270.664231 
L 340.209389 269.204009 
L 338.25958 267.743787 
L 336.474404 266.283565 
L 334.890348 264.823344 
L 333.532882 263.363122 
L 332.412684 261.9029 
L 331.52437 260.442678 
L 330.848698 258.982457 
L 330.358032 257.522235 
L 330.023786 256.062013 
L 329.823931 254.601792 
L 329.748339 253.14157 
L 329.799955 251.681348 
L 329.990704 250.221126 
L 330.332751 248.760905 
L 330.827755 247.300683 
L 331.458183 245.840461 
L 332.184739 244.380239 
L 332.952052 242.920018 
L 333.7018 241.459796 
L 334.389355 239.999574 
L 334.998361 238.539353 
L 335.547868 237.079131 
L 336.088909 235.618909 
L 336.690892 234.158687 
L 337.421723 232.698466 
L 338.327915 231.238244 
L 339.421007 229.778022 
L 340.674389 228.3178 
L 342.03094 226.857579 
L 343.418193 225.397357 
L 344.765709 223.937135 
L 346.019489 222.476914 
L 347.150269 221.016692 
L 348.155141 219.55647 
L 349.053911 218.096248 
L 349.882318 216.636027 
L 350.683873 215.175805 
L 351.501355 213.715583 
L 352.368673 212.255361 
L 353.303987 210.79514 
L 354.305445 209.334918 
L 355.350945 207.874696 
L 356.402577 206.414475 
L 357.414963 204.954253 
L 358.3452 203.494031 
L 359.161394 202.033809 
L 359.847292 200.573588 
L 360.402124 199.113366 
L 360.83667 197.653144 
L 361.167891 196.192922 
L 361.414485 194.732701 
L 361.59473 193.272479 
L 361.726394 191.812257 
L 361.827443 190.352035 
L 361.916054 188.891814 
L 362.00924 187.431592 
L 362.120425 185.97137 
L 362.257128 184.511149 
L 362.419867 183.050927 
L 362.602858 181.590705 
L 362.796162 180.130483 
L 362.988454 178.670262 
L 363.169453 177.21004 
L 363.331458 175.749818 
L 363.469876 174.289596 
L 363.583004 172.829375 
L 363.671414 171.369153 
L 363.737199 169.908931 
L 363.783256 168.44871 
L 363.812641 166.988488 
L 363.828064 165.528266 
L 363.831585 164.068044 
L 363.824581 162.607823 
L 363.808016 161.147601 
L 363.782949 159.687379 
L 363.751139 158.227157 
L 363.715488 156.766936 
L 363.680102 155.306714 
L 363.649837 153.846492 
L 363.629379 152.386271 
L 363.622146 150.926049 
L 364.118695 150.926049 
L 364.118695 150.926049 
L 364.111462 152.386271 
L 364.091004 153.846492 
L 364.06074 155.306714 
L 364.025354 156.766936 
L 363.989703 158.227157 
L 363.957892 159.687379 
L 363.932826 161.147601 
L 363.916261 162.607823 
L 363.909257 164.068044 
L 363.912778 165.528266 
L 363.9282 166.988488 
L 363.957585 168.44871 
L 364.003643 169.908931 
L 364.069428 171.369153 
L 364.157838 172.829375 
L 364.270966 174.289596 
L 364.409384 175.749818 
L 364.571389 177.21004 
L 364.752388 178.670262 
L 364.94468 180.130483 
L 365.137984 181.590705 
L 365.320974 183.050927 
L 365.483714 184.511149 
L 365.620417 185.97137 
L 365.731602 187.431592 
L 365.824787 188.891814 
L 365.913399 190.352035 
L 366.014448 191.812257 
L 366.146112 193.272479 
L 366.326357 194.732701 
L 366.572951 196.192922 
L 366.904172 197.653144 
L 367.338718 199.113366 
L 367.89355 200.573588 
L 368.579448 202.033809 
L 369.395642 203.494031 
L 370.325879 204.954253 
L 371.338265 206.414475 
L 372.389897 207.874696 
L 373.435397 209.334918 
L 374.436855 210.79514 
L 375.372169 212.255361 
L 376.239487 213.715583 
L 377.056969 215.175805 
L 377.858524 216.636027 
L 378.686931 218.096248 
L 379.585701 219.55647 
L 380.590573 221.016692 
L 381.721353 222.476914 
L 382.975133 223.937135 
L 384.322649 225.397357 
L 385.709902 226.857579 
L 387.066453 228.3178 
L 388.319835 229.778022 
L 389.412926 231.238244 
L 390.319119 232.698466 
L 391.04995 234.158687 
L 391.651932 235.618909 
L 392.192974 237.079131 
L 392.742481 238.539353 
L 393.351486 239.999574 
L 394.039041 241.459796 
L 394.78879 242.920018 
L 395.556103 244.380239 
L 396.282658 245.840461 
L 396.913087 247.300683 
L 397.408091 248.760905 
L 397.750138 250.221126 
L 397.940887 251.681348 
L 397.992503 253.14157 
L 397.916911 254.601792 
L 397.717056 256.062013 
L 397.38281 257.522235 
L 396.892144 258.982457 
L 396.216472 260.442678 
L 395.328158 261.9029 
L 394.20796 263.363122 
L 392.850494 264.823344 
L 391.266437 266.283565 
L 389.481262 267.743787 
L 387.531453 269.204009 
L 385.459973 270.664231 
L 383.312675 272.124452 
L 381.136377 273.584674 
L 378.97806 275.044896 
L 376.883933 276.505118 
L 374.89742 277.965339 
L 373.056132 279.425561 
L 371.388894 280.885783 
L 369.91401 282.346004 
L 368.639359 283.806226 
L 367.563895 285.266448 
L 366.679577 286.72667 
L 365.972869 288.186891 
L 365.425607 289.647113 
L 365.015659 291.107335 
L 364.718033 292.567557 
L 364.506772 294.027778 
L 364.357384 295.488 
z
" clip-path="url(#pd25e0056ca)" style="fill: #1f77b4; fill-opacity: 0.3"/>
   </g>
   <g id="PolyCollection_5">
    <path d="M 365.014258 290.570927 
L 363.716125 290.570927 
L 363.492915 289.378909 
L 363.196223 288.186891 
L 362.807667 286.994874 
L 362.310586 285.802856 
L 361.692807 284.610838 
L 360.948965 283.41882 
L 360.081625 282.226803 
L 359.100623 281.034785 
L 358.020386 279.842767 
L 356.855695 278.650749 
L 355.617199 277.458732 
L 354.3084 276.266714 
L 352.925573 275.074696 
L 351.460899 273.882678 
L 349.90758 272.690661 
L 348.264722 271.498643 
L 346.539867 270.306625 
L 344.748376 269.114608 
L 342.910689 267.92259 
L 341.04979 266.730572 
L 339.191218 265.538554 
L 337.366418 264.346537 
L 335.617939 263.154519 
L 334.003056 261.962501 
L 332.592135 260.770483 
L 331.459896 259.578466 
L 330.671008 258.386448 
L 330.264551 257.19443 
L 330.24311 256.002412 
L 330.570869 254.810395 
L 331.181589 253.618377 
L 331.993493 252.426359 
L 332.925784 251.234341 
L 333.911635 250.042324 
L 334.904782 248.850306 
L 335.879882 247.658288 
L 336.828864 246.466271 
L 337.755965 245.274253 
L 338.673048 244.082235 
L 339.595433 242.890217 
L 340.537752 241.6982 
L 341.509736 240.506182 
L 342.512757 239.314164 
L 343.538474 238.122146 
L 344.57055 236.930129 
L 345.589102 235.738111 
L 346.576315 234.546093 
L 347.521181 233.354075 
L 348.421932 232.162058 
L 349.285929 230.97004 
L 350.127778 229.778022 
L 350.966657 228.586004 
L 351.823439 227.393987 
L 352.717601 226.201969 
L 353.663786 225.009951 
L 354.668212 223.817933 
L 355.725677 222.625916 
L 356.818169 221.433898 
L 357.915863 220.24188 
L 358.980597 219.049863 
L 359.971181 217.857845 
L 360.849384 216.665827 
L 361.585286 215.473809 
L 362.160998 214.281792 
L 362.572185 213.089774 
L 362.827422 211.897756 
L 362.945843 210.705738 
L 362.953807 209.513721 
L 362.881389 208.321703 
L 362.759331 207.129685 
L 362.616858 205.937667 
L 362.480361 204.74565 
L 362.372667 203.553632 
L 362.312403 202.361614 
L 362.313058 201.169596 
L 362.381668 199.977579 
L 362.517521 198.785561 
L 362.711612 197.593543 
L 362.947528 196.401525 
L 363.204006 195.209508 
L 363.4587 194.01749 
L 363.692142 192.825472 
L 363.890738 191.633455 
L 364.048046 190.441437 
L 364.164204 189.249419 
L 364.244051 188.057401 
L 364.294726 186.865384 
L 364.323531 185.673366 
L 364.336493 184.481348 
L 364.337762 183.28933 
L 364.329716 182.097313 
L 364.313554 180.905295 
L 364.290127 179.713277 
L 364.260779 178.521259 
L 364.227939 177.329242 
L 364.19526 176.137224 
L 364.167215 174.945206 
L 364.148204 173.753188 
L 364.141469 172.561171 
L 364.588914 172.561171 
L 364.588914 172.561171 
L 364.582179 173.753188 
L 364.563167 174.945206 
L 364.535122 176.137224 
L 364.502443 177.329242 
L 364.469603 178.521259 
L 364.440255 179.713277 
L 364.416829 180.905295 
L 364.400666 182.097313 
L 364.39262 183.28933 
L 364.393889 184.481348 
L 364.406851 185.673366 
L 364.435656 186.865384 
L 364.486331 188.057401 
L 364.566178 189.249419 
L 364.682337 190.441437 
L 364.839644 191.633455 
L 365.03824 192.825472 
L 365.271682 194.01749 
L 365.526376 195.209508 
L 365.782854 196.401525 
L 366.01877 197.593543 
L 366.212861 198.785561 
L 366.348714 199.977579 
L 366.417324 201.169596 
L 366.417979 202.361614 
L 366.357716 203.553632 
L 366.250022 204.74565 
L 366.113524 205.937667 
L 365.971051 207.129685 
L 365.848993 208.321703 
L 365.776575 209.513721 
L 365.78454 210.705738 
L 365.90296 211.897756 
L 366.158197 213.089774 
L 366.569384 214.281792 
L 367.145096 215.473809 
L 367.880999 216.665827 
L 368.759201 217.857845 
L 369.749785 219.049863 
L 370.814519 220.24188 
L 371.912213 221.433898 
L 373.004705 222.625916 
L 374.06217 223.817933 
L 375.066596 225.009951 
L 376.012781 226.201969 
L 376.906943 227.393987 
L 377.763725 228.586004 
L 378.602604 229.778022 
L 379.444453 230.97004 
L 380.30845 232.162058 
L 381.209201 233.354075 
L 382.154067 234.546093 
L 383.14128 235.738111 
L 384.159832 236.930129 
L 385.191909 238.122146 
L 386.217626 239.314164 
L 387.220646 240.506182 
L 388.192631 241.6982 
L 389.134949 242.890217 
L 390.057334 244.082235 
L 390.974418 245.274253 
L 391.901518 246.466271 
L 392.8505 247.658288 
L 393.8256 248.850306 
L 394.818747 250.042324 
L 395.804598 251.234341 
L 396.73689 252.426359 
L 397.548794 253.618377 
L 398.159513 254.810395 
L 398.487273 256.002412 
L 398.465831 257.19443 
L 398.059374 258.386448 
L 397.270486 259.578466 
L 396.138247 260.770483 
L 394.727326 261.962501 
L 393.112444 263.154519 
L 391.363964 264.346537 
L 389.539164 265.538554 
L 387.680592 266.730572 
L 385.819694 267.92259 
L 383.982006 269.114608 
L 382.190515 270.306625 
L 380.46566 271.498643 
L 378.822802 272.690661 
L 377.269483 273.882678 
L 375.804809 275.074696 
L 374.421982 276.266714 
L 373.113183 277.458732 
L 371.874687 278.650749 
L 370.709997 279.842767 
L 369.629759 281.034785 
L 368.648758 282.226803 
L 367.781417 283.41882 
L 367.037575 284.610838 
L 366.419797 285.802856 
L 365.922715 286.994874 
L 365.53416 288.186891 
L 365.237467 289.378909 
L 365.014258 290.570927 
z
" clip-path="url(#pd25e0056ca)" style="fill: #1f77b4; fill-opacity: 0.3"/>
   </g>
   <g id="matplotlib.axis_1">
    <g id="xtick_1">
     <g id="line2d_1">
      <path d="M 65.302207 307.584 
L 65.302207 41.472 
" clip-path="url(#pd25e0056ca)" style="fill: none; stroke-dasharray: 2.96,1.28; stroke-dashoffset: 0; stroke: #b0b0b0; stroke-width: 0.8"/>
     </g>
     <g id="line2d_2">
      <defs>
       <path id="m0c9c9489ae" d="M 0 0 
L 0 3.5 
" style="stroke: #000000; stroke-width: 0.8"/>
      </defs>
      <g>
       <use xlink:href="#m0c9c9489ae" x="65.302207" y="307.584" style="stroke: #000000; stroke-width: 0.8"/>
      </g>
     </g>
     <g id="text_1">
      <!-- 2500 -->
      <g transform="translate(52.577207 322.182437)scale(0.1 -0.1)">
       <defs>
        <path id="DejaVuSans-32" d="M 1228 531 
L 3431 531 
L 3431 0 
L 469 0 
L 469 531 
Q 828 903 1448 1529 
Q 2069 2156 2228 2338 
Q 2531 2678 2651 2914 
Q 2772 3150 2772 3378 
Q 2772 3750 2511 3984 
Q 2250 4219 1831 4219 
Q 1534 4219 1204 4116 
Q 875 4013 500 3803 
L 500 4441 
Q 881 4594 1212 4672 
Q 1544 4750 1819 4750 
Q 2544 4750 2975 4387 
Q 3406 4025 3406 3419 
Q 3406 3131 3298 2873 
Q 3191 2616 2906 2266 
Q 2828 2175 2409 1742 
Q 1991 1309 1228 531 
z
" transform="scale(0.015625)"/>
        <path id="DejaVuSans-35" d="M 691 4666 
L 3169 4666 
L 3169 4134 
L 1269 4134 
L 1269 2991 
Q 1406 3038 1543 3061 
Q 1681 3084 1819 3084 
Q 2600 3084 3056 2656 
Q 3513 2228 3513 1497 
Q 3513 744 3044 326 
Q 2575 -91 1722 -91 
Q 1428 -91 1123 -41 
Q 819 9 494 109 
L 494 744 
Q 775 591 1075 516 
Q 1375 441 1709 441 
Q 2250 441 2565 725 
Q 2881 1009 2881 1497 
Q 2881 1984 2565 2268 
Q 2250 2553 1709 2553 
Q 1456 2553 1204 2497 
Q 953 2441 691 2322 
L 691 4666 
z
" transform="scale(0.015625)"/>
        <path id="DejaVuSans-30" d="M 2034 4250 
Q 1547 4250 1301 3770 
Q 1056 3291 1056 2328 
Q 1056 1369 1301 889 
Q 1547 409 2034 409 
Q 2525 409 2770 889 
Q 3016 1369 3016 2328 
Q 3016 3291 2770 3770 
Q 2525 4250 2034 4250 
z
M 2034 4750 
Q 2819 4750 3233 4129 
Q 3647 3509 3647 2328 
Q 3647 1150 3233 529 
Q 2819 -91 2034 -91 
Q 1250 -91 836 529 
Q 422 1150 422 2328 
Q 422 3509 836 4129 
Q 1250 4750 2034 4750 
z
" transform="scale(0.015625)"/>
       </defs>
       <use xlink:href="#DejaVuSans-32"/>
       <use xlink:href="#DejaVuSans-35" x="63.623047"/>
       <use xlink:href="#DejaVuSans-30" x="127.246094"/>
       <use xlink:href="#DejaVuSans-30" x="190.869141"/>
      </g>
     </g>
    </g>
    <g id="xtick_2">
     <g id="line2d_3">
      <path d="M 107.954809 307.584 
L 107.954809 41.472 
" clip-path="url(#pd25e0056ca)" style="fill: none; stroke-dasharray: 2.96,1.28; stroke-dashoffset: 0; stroke: #b0b0b0; stroke-width: 0.8"/>
     </g>
     <g id="line2d_4">
      <g>
       <use xlink:href="#m0c9c9489ae" x="107.954809" y="307.584" style="stroke: #000000; stroke-width: 0.8"/>
      </g>
     </g>
     <g id="text_2">
      <!-- 5000 -->
      <g transform="translate(95.229809 322.182437)scale(0.1 -0.1)">
       <use xlink:href="#DejaVuSans-35"/>
       <use xlink:href="#DejaVuSans-30" x="63.623047"/>
       <use xlink:href="#DejaVuSans-30" x="127.246094"/>
       <use xlink:href="#DejaVuSans-30" x="190.869141"/>
      </g>
     </g>
    </g>
    <g id="xtick_3">
     <g id="line2d_5">
      <path d="M 150.607411 307.584 
L 150.607411 41.472 
" clip-path="url(#pd25e0056ca)" style="fill: none; stroke-dasharray: 2.96,1.28; stroke-dashoffset: 0; stroke: #b0b0b0; stroke-width: 0.8"/>
     </g>
     <g id="line2d_6">
      <g>
       <use xlink:href="#m0c9c9489ae" x="150.607411" y="307.584" style="stroke: #000000; stroke-width: 0.8"/>
      </g>
     </g>
     <g id="text_3">
      <!-- 7500 -->
      <g transform="translate(137.882411 322.182437)scale(0.1 -0.1)">
       <defs>
        <path id="DejaVuSans-37" d="M 525 4666 
L 3525 4666 
L 3525 4397 
L 1831 0 
L 1172 0 
L 2766 4134 
L 525 4134 
L 525 4666 
z
" transform="scale(0.015625)"/>
       </defs>
       <use xlink:href="#DejaVuSans-37"/>
       <use xlink:href="#DejaVuSans-35" x="63.623047"/>
       <use xlink:href="#DejaVuSans-30" x="127.246094"/>
       <use xlink:href="#DejaVuSans-30" x="190.869141"/>
      </g>
     </g>
    </g>
    <g id="xtick_4">
     <g id="line2d_7">
      <path d="M 193.260013 307.584 
L 193.260013 41.472 
" clip-path="url(#pd25e0056ca)" style="fill: none; stroke-dasharray: 2.96,1.28; stroke-dashoffset: 0; stroke: #b0b0b0; stroke-width: 0.8"/>
     </g>
     <g id="line2d_8">
      <g>
       <use xlink:href="#m0c9c9489ae" x="193.260013" y="307.584" style="stroke: #000000; stroke-width: 0.8"/>
      </g>
     </g>
     <g id="text_4">
      <!-- 10000 -->
      <g transform="translate(177.353763 322.182437)scale(0.1 -0.1)">
       <defs>
        <path id="DejaVuSans-31" d="M 794 531 
L 1825 531 
L 1825 4091 
L 703 3866 
L 703 4441 
L 1819 4666 
L 2450 4666 
L 2450 531 
L 3481 531 
L 3481 0 
L 794 0 
L 794 531 
z
" transform="scale(0.015625)"/>
       </defs>
       <use xlink:href="#DejaVuSans-31"/>
       <use xlink:href="#DejaVuSans-30" x="63.623047"/>
       <use xlink:href="#DejaVuSans-30" x="127.246094"/>
       <use xlink:href="#DejaVuSans-30" x="190.869141"/>
       <use xlink:href="#DejaVuSans-30" x="254.492188"/>
      </g>
     </g>
    </g>
    <g id="xtick_5">
     <g id="line2d_9">
      <path d="M 235.912615 307.584 
L 235.912615 41.472 
" clip-path="url(#pd25e0056ca)" style="fill: none; stroke-dasharray: 2.96,1.28; stroke-dashoffset: 0; stroke: #b0b0b0; stroke-width: 0.8"/>
     </g>
     <g id="line2d_10">
      <g>
       <use xlink:href="#m0c9c9489ae" x="235.912615" y="307.584" style="stroke: #000000; stroke-width: 0.8"/>
      </g>
     </g>
     <g id="text_5">
      <!-- 12500 -->
      <g transform="translate(220.006365 322.182437)scale(0.1 -0.1)">
       <use xlink:href="#DejaVuSans-31"/>
       <use xlink:href="#DejaVuSans-32" x="63.623047"/>
       <use xlink:href="#DejaVuSans-35" x="127.246094"/>
       <use xlink:href="#DejaVuSans-30" x="190.869141"/>
       <use xlink:href="#DejaVuSans-30" x="254.492188"/>
      </g>
     </g>
    </g>
    <g id="xtick_6">
     <g id="line2d_11">
      <path d="M 278.565217 307.584 
L 278.565217 41.472 
" clip-path="url(#pd25e0056ca)" style="fill: none; stroke-dasharray: 2.96,1.28; stroke-dashoffset: 0; stroke: #b0b0b0; stroke-width: 0.8"/>
     </g>
     <g id="line2d_12">
      <g>
       <use xlink:href="#m0c9c9489ae" x="278.565217" y="307.584" style="stroke: #000000; stroke-width: 0.8"/>
      </g>
     </g>
     <g id="text_6">
      <!-- 15000 -->
      <g transform="translate(262.658967 322.182437)scale(0.1 -0.1)">
       <use xlink:href="#DejaVuSans-31"/>
       <use xlink:href="#DejaVuSans-35" x="63.623047"/>
       <use xlink:href="#DejaVuSans-30" x="127.246094"/>
       <use xlink:href="#DejaVuSans-30" x="190.869141"/>
       <use xlink:href="#DejaVuSans-30" x="254.492188"/>
      </g>
     </g>
    </g>
    <g id="xtick_7">
     <g id="line2d_13">
      <path d="M 321.217819 307.584 
L 321.217819 41.472 
" clip-path="url(#pd25e0056ca)" style="fill: none; stroke-dasharray: 2.96,1.28; stroke-dashoffset: 0; stroke: #b0b0b0; stroke-width: 0.8"/>
     </g>
     <g id="line2d_14">
      <g>
       <use xlink:href="#m0c9c9489ae" x="321.217819" y="307.584" style="stroke: #000000; stroke-width: 0.8"/>
      </g>
     </g>
     <g id="text_7">
      <!-- 17500 -->
      <g transform="translate(305.311569 322.182437)scale(0.1 -0.1)">
       <use xlink:href="#DejaVuSans-31"/>
       <use xlink:href="#DejaVuSans-37" x="63.623047"/>
       <use xlink:href="#DejaVuSans-35" x="127.246094"/>
       <use xlink:href="#DejaVuSans-30" x="190.869141"/>
       <use xlink:href="#DejaVuSans-30" x="254.492188"/>
      </g>
     </g>
    </g>
    <g id="xtick_8">
     <g id="line2d_15">
      <path d="M 363.870421 307.584 
L 363.870421 41.472 
" clip-path="url(#pd25e0056ca)" style="fill: none; stroke-dasharray: 2.96,1.28; stroke-dashoffset: 0; stroke: #b0b0b0; stroke-width: 0.8"/>
     </g>
     <g id="line2d_16">
      <g>
       <use xlink:href="#m0c9c9489ae" x="363.870421" y="307.584" style="stroke: #000000; stroke-width: 0.8"/>
      </g>
     </g>
     <g id="text_8">
      <!-- 20000 -->
      <g transform="translate(347.964171 322.182437)scale(0.1 -0.1)">
       <use xlink:href="#DejaVuSans-32"/>
       <use xlink:href="#DejaVuSans-30" x="63.623047"/>
       <use xlink:href="#DejaVuSans-30" x="127.246094"/>
       <use xlink:href="#DejaVuSans-30" x="190.869141"/>
       <use xlink:href="#DejaVuSans-30" x="254.492188"/>
      </g>
     </g>
    </g>
    <g id="xtick_9">
     <g id="line2d_17">
      <path d="M 406.523023 307.584 
L 406.523023 41.472 
" clip-path="url(#pd25e0056ca)" style="fill: none; stroke-dasharray: 2.96,1.28; stroke-dashoffset: 0; stroke: #b0b0b0; stroke-width: 0.8"/>
     </g>
     <g id="line2d_18">
      <g>
       <use xlink:href="#m0c9c9489ae" x="406.523023" y="307.584" style="stroke: #000000; stroke-width: 0.8"/>
      </g>
     </g>
     <g id="text_9">
      <!-- 22500 -->
      <g transform="translate(390.616773 322.182437)scale(0.1 -0.1)">
       <use xlink:href="#DejaVuSans-32"/>
       <use xlink:href="#DejaVuSans-32" x="63.623047"/>
       <use xlink:href="#DejaVuSans-35" x="127.246094"/>
       <use xlink:href="#DejaVuSans-30" x="190.869141"/>
       <use xlink:href="#DejaVuSans-30" x="254.492188"/>
      </g>
     </g>
    </g>
    <g id="text_10">
     <!-- Learned Episodes -->
     <g transform="translate(192.102187 335.860562)scale(0.1 -0.1)">
      <defs>
       <path id="DejaVuSans-4c" d="M 628 4666 
L 1259 4666 
L 1259 531 
L 3531 531 
L 3531 0 
L 628 0 
L 628 4666 
z
" transform="scale(0.015625)"/>
       <path id="DejaVuSans-65" d="M 3597 1894 
L 3597 1613 
L 953 1613 
Q 991 1019 1311 708 
Q 1631 397 2203 397 
Q 2534 397 2845 478 
Q 3156 559 3463 722 
L 3463 178 
Q 3153 47 2828 -22 
Q 2503 -91 2169 -91 
Q 1331 -91 842 396 
Q 353 884 353 1716 
Q 353 2575 817 3079 
Q 1281 3584 2069 3584 
Q 2775 3584 3186 3129 
Q 3597 2675 3597 1894 
z
M 3022 2063 
Q 3016 2534 2758 2815 
Q 2500 3097 2075 3097 
Q 1594 3097 1305 2825 
Q 1016 2553 972 2059 
L 3022 2063 
z
" transform="scale(0.015625)"/>
       <path id="DejaVuSans-61" d="M 2194 1759 
Q 1497 1759 1228 1600 
Q 959 1441 959 1056 
Q 959 750 1161 570 
Q 1363 391 1709 391 
Q 2188 391 2477 730 
Q 2766 1069 2766 1631 
L 2766 1759 
L 2194 1759 
z
M 3341 1997 
L 3341 0 
L 2766 0 
L 2766 531 
Q 2569 213 2275 61 
Q 1981 -91 1556 -91 
Q 1019 -91 701 211 
Q 384 513 384 1019 
Q 384 1609 779 1909 
Q 1175 2209 1959 2209 
L 2766 2209 
L 2766 2266 
Q 2766 2663 2505 2880 
Q 2244 3097 1772 3097 
Q 1472 3097 1187 3025 
Q 903 2953 641 2809 
L 641 3341 
Q 956 3463 1253 3523 
Q 1550 3584 1831 3584 
Q 2591 3584 2966 3190 
Q 3341 2797 3341 1997 
z
" transform="scale(0.015625)"/>
       <path id="DejaVuSans-72" d="M 2631 2963 
Q 2534 3019 2420 3045 
Q 2306 3072 2169 3072 
Q 1681 3072 1420 2755 
Q 1159 2438 1159 1844 
L 1159 0 
L 581 0 
L 581 3500 
L 1159 3500 
L 1159 2956 
Q 1341 3275 1631 3429 
Q 1922 3584 2338 3584 
Q 2397 3584 2469 3576 
Q 2541 3569 2628 3553 
L 2631 2963 
z
" transform="scale(0.015625)"/>
       <path id="DejaVuSans-6e" d="M 3513 2113 
L 3513 0 
L 2938 0 
L 2938 2094 
Q 2938 2591 2744 2837 
Q 2550 3084 2163 3084 
Q 1697 3084 1428 2787 
Q 1159 2491 1159 1978 
L 1159 0 
L 581 0 
L 581 3500 
L 1159 3500 
L 1159 2956 
Q 1366 3272 1645 3428 
Q 1925 3584 2291 3584 
Q 2894 3584 3203 3211 
Q 3513 2838 3513 2113 
z
" transform="scale(0.015625)"/>
       <path id="DejaVuSans-64" d="M 2906 2969 
L 2906 4863 
L 3481 4863 
L 3481 0 
L 2906 0 
L 2906 525 
Q 2725 213 2448 61 
Q 2172 -91 1784 -91 
Q 1150 -91 751 415 
Q 353 922 353 1747 
Q 353 2572 751 3078 
Q 1150 3584 1784 3584 
Q 2172 3584 2448 3432 
Q 2725 3281 2906 2969 
z
M 947 1747 
Q 947 1113 1208 752 
Q 1469 391 1925 391 
Q 2381 391 2643 752 
Q 2906 1113 2906 1747 
Q 2906 2381 2643 2742 
Q 2381 3103 1925 3103 
Q 1469 3103 1208 2742 
Q 947 2381 947 1747 
z
" transform="scale(0.015625)"/>
       <path id="DejaVuSans-20" transform="scale(0.015625)"/>
       <path id="DejaVuSans-45" d="M 628 4666 
L 3578 4666 
L 3578 4134 
L 1259 4134 
L 1259 2753 
L 3481 2753 
L 3481 2222 
L 1259 2222 
L 1259 531 
L 3634 531 
L 3634 0 
L 628 0 
L 628 4666 
z
" transform="scale(0.015625)"/>
       <path id="DejaVuSans-70" d="M 1159 525 
L 1159 -1331 
L 581 -1331 
L 581 3500 
L 1159 3500 
L 1159 2969 
Q 1341 3281 1617 3432 
Q 1894 3584 2278 3584 
Q 2916 3584 3314 3078 
Q 3713 2572 3713 1747 
Q 3713 922 3314 415 
Q 2916 -91 2278 -91 
Q 1894 -91 1617 61 
Q 1341 213 1159 525 
z
M 3116 1747 
Q 3116 2381 2855 2742 
Q 2594 3103 2138 3103 
Q 1681 3103 1420 2742 
Q 1159 2381 1159 1747 
Q 1159 1113 1420 752 
Q 1681 391 2138 391 
Q 2594 391 2855 752 
Q 3116 1113 3116 1747 
z
" transform="scale(0.015625)"/>
       <path id="DejaVuSans-69" d="M 603 3500 
L 1178 3500 
L 1178 0 
L 603 0 
L 603 3500 
z
M 603 4863 
L 1178 4863 
L 1178 4134 
L 603 4134 
L 603 4863 
z
" transform="scale(0.015625)"/>
       <path id="DejaVuSans-73" d="M 2834 3397 
L 2834 2853 
Q 2591 2978 2328 3040 
Q 2066 3103 1784 3103 
Q 1356 3103 1142 2972 
Q 928 2841 928 2578 
Q 928 2378 1081 2264 
Q 1234 2150 1697 2047 
L 1894 2003 
Q 2506 1872 2764 1633 
Q 3022 1394 3022 966 
Q 3022 478 2636 193 
Q 2250 -91 1575 -91 
Q 1294 -91 989 -36 
Q 684 19 347 128 
L 347 722 
Q 666 556 975 473 
Q 1284 391 1588 391 
Q 1994 391 2212 530 
Q 2431 669 2431 922 
Q 2431 1156 2273 1281 
Q 2116 1406 1581 1522 
L 1381 1569 
Q 847 1681 609 1914 
Q 372 2147 372 2553 
Q 372 3047 722 3315 
Q 1072 3584 1716 3584 
Q 2034 3584 2315 3537 
Q 2597 3491 2834 3397 
z
" transform="scale(0.015625)"/>
       <path id="DejaVuSans-6f" d="M 1959 3097 
Q 1497 3097 1228 2736 
Q 959 2375 959 1747 
Q 959 1119 1226 758 
Q 1494 397 1959 397 
Q 2419 397 2687 759 
Q 2956 1122 2956 1747 
Q 2956 2369 2687 2733 
Q 2419 3097 1959 3097 
z
M 1959 3584 
Q 2709 3584 3137 3096 
Q 3566 2609 3566 1747 
Q 3566 888 3137 398 
Q 2709 -91 1959 -91 
Q 1206 -91 779 398 
Q 353 888 353 1747 
Q 353 2609 779 3096 
Q 1206 3584 1959 3584 
z
" transform="scale(0.015625)"/>
      </defs>
      <use xlink:href="#DejaVuSans-4c"/>
      <use xlink:href="#DejaVuSans-65" x="53.962891"/>
      <use xlink:href="#DejaVuSans-61" x="115.486328"/>
      <use xlink:href="#DejaVuSans-72" x="176.765625"/>
      <use xlink:href="#DejaVuSans-6e" x="216.128906"/>
      <use xlink:href="#DejaVuSans-65" x="279.507812"/>
      <use xlink:href="#DejaVuSans-64" x="341.03125"/>
      <use xlink:href="#DejaVuSans-20" x="404.507812"/>
      <use xlink:href="#DejaVuSans-45" x="436.294922"/>
      <use xlink:href="#DejaVuSans-70" x="499.478516"/>
      <use xlink:href="#DejaVuSans-69" x="562.955078"/>
      <use xlink:href="#DejaVuSans-73" x="590.738281"/>
      <use xlink:href="#DejaVuSans-6f" x="642.837891"/>
      <use xlink:href="#DejaVuSans-64" x="704.019531"/>
      <use xlink:href="#DejaVuSans-65" x="767.496094"/>
      <use xlink:href="#DejaVuSans-73" x="829.019531"/>
     </g>
    </g>
   </g>
   <g id="matplotlib.axis_2">
    <g id="ytick_1">
     <g id="line2d_19">
      <path d="M 57.6 283.687024 
L 414.72 283.687024 
" clip-path="url(#pd25e0056ca)" style="fill: none; stroke-dasharray: 2.96,1.28; stroke-dashoffset: 0; stroke: #b0b0b0; stroke-width: 0.8"/>
     </g>
     <g id="line2d_20">
      <defs>
       <path id="mae104d9ce3" d="M 0 0 
L -3.5 0 
" style="stroke: #000000; stroke-width: 0.8"/>
      </defs>
      <g>
       <use xlink:href="#mae104d9ce3" x="57.6" y="283.687024" style="stroke: #000000; stroke-width: 0.8"/>
      </g>
     </g>
     <g id="text_11">
      <!-- 50 -->
      <g transform="translate(37.875 287.486243)scale(0.1 -0.1)">
       <use xlink:href="#DejaVuSans-35"/>
       <use xlink:href="#DejaVuSans-30" x="63.623047"/>
      </g>
     </g>
    </g>
    <g id="ytick_2">
     <g id="line2d_21">
      <path d="M 57.6 234.516293 
L 414.72 234.516293 
" clip-path="url(#pd25e0056ca)" style="fill: none; stroke-dasharray: 2.96,1.28; stroke-dashoffset: 0; stroke: #b0b0b0; stroke-width: 0.8"/>
     </g>
     <g id="line2d_22">
      <g>
       <use xlink:href="#mae104d9ce3" x="57.6" y="234.516293" style="stroke: #000000; stroke-width: 0.8"/>
      </g>
     </g>
     <g id="text_12">
      <!-- 100 -->
      <g transform="translate(31.5125 238.315511)scale(0.1 -0.1)">
       <use xlink:href="#DejaVuSans-31"/>
       <use xlink:href="#DejaVuSans-30" x="63.623047"/>
       <use xlink:href="#DejaVuSans-30" x="127.246094"/>
      </g>
     </g>
    </g>
    <g id="ytick_3">
     <g id="line2d_23">
      <path d="M 57.6 185.345561 
L 414.72 185.345561 
" clip-path="url(#pd25e0056ca)" style="fill: none; stroke-dasharray: 2.96,1.28; stroke-dashoffset: 0; stroke: #b0b0b0; stroke-width: 0.8"/>
     </g>
     <g id="line2d_24">
      <g>
       <use xlink:href="#mae104d9ce3" x="57.6" y="185.345561" style="stroke: #000000; stroke-width: 0.8"/>
      </g>
     </g>
     <g id="text_13">
      <!-- 150 -->
      <g transform="translate(31.5125 189.14478)scale(0.1 -0.1)">
       <use xlink:href="#DejaVuSans-31"/>
       <use xlink:href="#DejaVuSans-35" x="63.623047"/>
       <use xlink:href="#DejaVuSans-30" x="127.246094"/>
      </g>
     </g>
    </g>
    <g id="ytick_4">
     <g id="line2d_25">
      <path d="M 57.6 136.174829 
L 414.72 136.174829 
" clip-path="url(#pd25e0056ca)" style="fill: none; stroke-dasharray: 2.96,1.28; stroke-dashoffset: 0; stroke: #b0b0b0; stroke-width: 0.8"/>
     </g>
     <g id="line2d_26">
      <g>
       <use xlink:href="#mae104d9ce3" x="57.6" y="136.174829" style="stroke: #000000; stroke-width: 0.8"/>
      </g>
     </g>
     <g id="text_14">
      <!-- 200 -->
      <g transform="translate(31.5125 139.974048)scale(0.1 -0.1)">
       <use xlink:href="#DejaVuSans-32"/>
       <use xlink:href="#DejaVuSans-30" x="63.623047"/>
       <use xlink:href="#DejaVuSans-30" x="127.246094"/>
      </g>
     </g>
    </g>
    <g id="ytick_5">
     <g id="line2d_27">
      <path d="M 57.6 87.004098 
L 414.72 87.004098 
" clip-path="url(#pd25e0056ca)" style="fill: none; stroke-dasharray: 2.96,1.28; stroke-dashoffset: 0; stroke: #b0b0b0; stroke-width: 0.8"/>
     </g>
     <g id="line2d_28">
      <g>
       <use xlink:href="#mae104d9ce3" x="57.6" y="87.004098" style="stroke: #000000; stroke-width: 0.8"/>
      </g>
     </g>
     <g id="text_15">
      <!-- 250 -->
      <g transform="translate(31.5125 90.803316)scale(0.1 -0.1)">
       <use xlink:href="#DejaVuSans-32"/>
       <use xlink:href="#DejaVuSans-35" x="63.623047"/>
       <use xlink:href="#DejaVuSans-30" x="127.246094"/>
      </g>
     </g>
    </g>
    <g id="text_16">
     <!-- Reward Density -->
     <g transform="translate(25.432812 213.74675)rotate(-90)scale(0.1 -0.1)">
      <defs>
       <path id="DejaVuSans-52" d="M 2841 2188 
Q 3044 2119 3236 1894 
Q 3428 1669 3622 1275 
L 4263 0 
L 3584 0 
L 2988 1197 
Q 2756 1666 2539 1819 
Q 2322 1972 1947 1972 
L 1259 1972 
L 1259 0 
L 628 0 
L 628 4666 
L 2053 4666 
Q 2853 4666 3247 4331 
Q 3641 3997 3641 3322 
Q 3641 2881 3436 2590 
Q 3231 2300 2841 2188 
z
M 1259 4147 
L 1259 2491 
L 2053 2491 
Q 2509 2491 2742 2702 
Q 2975 2913 2975 3322 
Q 2975 3731 2742 3939 
Q 2509 4147 2053 4147 
L 1259 4147 
z
" transform="scale(0.015625)"/>
       <path id="DejaVuSans-77" d="M 269 3500 
L 844 3500 
L 1563 769 
L 2278 3500 
L 2956 3500 
L 3675 769 
L 4391 3500 
L 4966 3500 
L 4050 0 
L 3372 0 
L 2619 2869 
L 1863 0 
L 1184 0 
L 269 3500 
z
" transform="scale(0.015625)"/>
       <path id="DejaVuSans-44" d="M 1259 4147 
L 1259 519 
L 2022 519 
Q 2988 519 3436 956 
Q 3884 1394 3884 2338 
Q 3884 3275 3436 3711 
Q 2988 4147 2022 4147 
L 1259 4147 
z
M 628 4666 
L 1925 4666 
Q 3281 4666 3915 4102 
Q 4550 3538 4550 2338 
Q 4550 1131 3912 565 
Q 3275 0 1925 0 
L 628 0 
L 628 4666 
z
" transform="scale(0.015625)"/>
       <path id="DejaVuSans-74" d="M 1172 4494 
L 1172 3500 
L 2356 3500 
L 2356 3053 
L 1172 3053 
L 1172 1153 
Q 1172 725 1289 603 
Q 1406 481 1766 481 
L 2356 481 
L 2356 0 
L 1766 0 
Q 1100 0 847 248 
Q 594 497 594 1153 
L 594 3053 
L 172 3053 
L 172 3500 
L 594 3500 
L 594 4494 
L 1172 4494 
z
" transform="scale(0.015625)"/>
       <path id="DejaVuSans-79" d="M 2059 -325 
Q 1816 -950 1584 -1140 
Q 1353 -1331 966 -1331 
L 506 -1331 
L 506 -850 
L 844 -850 
Q 1081 -850 1212 -737 
Q 1344 -625 1503 -206 
L 1606 56 
L 191 3500 
L 800 3500 
L 1894 763 
L 2988 3500 
L 3597 3500 
L 2059 -325 
z
" transform="scale(0.015625)"/>
      </defs>
      <use xlink:href="#DejaVuSans-52"/>
      <use xlink:href="#DejaVuSans-65" x="64.982422"/>
      <use xlink:href="#DejaVuSans-77" x="126.505859"/>
      <use xlink:href="#DejaVuSans-61" x="208.292969"/>
      <use xlink:href="#DejaVuSans-72" x="269.572266"/>
      <use xlink:href="#DejaVuSans-64" x="308.935547"/>
      <use xlink:href="#DejaVuSans-20" x="372.412109"/>
      <use xlink:href="#DejaVuSans-44" x="404.199219"/>
      <use xlink:href="#DejaVuSans-65" x="481.201172"/>
      <use xlink:href="#DejaVuSans-6e" x="542.724609"/>
      <use xlink:href="#DejaVuSans-73" x="606.103516"/>
      <use xlink:href="#DejaVuSans-69" x="658.203125"/>
      <use xlink:href="#DejaVuSans-74" x="685.986328"/>
      <use xlink:href="#DejaVuSans-79" x="725.195312"/>
     </g>
    </g>
   </g>
   <g id="LineCollection_1">
    <path d="M 90.893768 185.367196 
L 125.01585 185.367196 
" clip-path="url(#pd25e0056ca)" style="fill: none; stroke: #1f77b4; stroke-width: 1.5"/>
    <path d="M 176.198972 226.09433 
L 210.321054 226.09433 
" clip-path="url(#pd25e0056ca)" style="fill: none; stroke: #1f77b4; stroke-width: 1.5"/>
    <path d="M 261.504176 242.981526 
L 295.626258 242.981526 
" clip-path="url(#pd25e0056ca)" style="fill: none; stroke: #1f77b4; stroke-width: 1.5"/>
    <path d="M 346.80938 244.645463 
L 380.931462 244.645463 
" clip-path="url(#pd25e0056ca)" style="fill: none; stroke: #1f77b4; stroke-width: 1.5"/>
    <path d="M 347.30415 250.119149 
L 381.426232 250.119149 
" clip-path="url(#pd25e0056ca)" style="fill: none; stroke: #1f77b4; stroke-width: 1.5"/>
   </g>
   <g id="LineCollection_2">
    <path d="M 90.893768 53.568 
L 125.01585 53.568 
" clip-path="url(#pd25e0056ca)" style="fill: none; stroke: #1f77b4; stroke-width: 1.5"/>
    <path d="M 176.198972 123.390439 
L 210.321054 123.390439 
" clip-path="url(#pd25e0056ca)" style="fill: none; stroke: #1f77b4; stroke-width: 1.5"/>
    <path d="M 261.504176 146.99239 
L 295.626258 146.99239 
" clip-path="url(#pd25e0056ca)" style="fill: none; stroke: #1f77b4; stroke-width: 1.5"/>
    <path d="M 346.80938 150.926049 
L 380.931462 150.926049 
" clip-path="url(#pd25e0056ca)" style="fill: none; stroke: #1f77b4; stroke-width: 1.5"/>
    <path d="M 347.30415 172.561171 
L 381.426232 172.561171 
" clip-path="url(#pd25e0056ca)" style="fill: none; stroke: #1f77b4; stroke-width: 1.5"/>
   </g>
   <g id="LineCollection_3">
    <path d="M 90.893768 250.250927 
L 125.01585 250.250927 
" clip-path="url(#pd25e0056ca)" style="fill: none; stroke: #1f77b4; stroke-width: 1.5"/>
    <path d="M 176.198972 278.769951 
L 210.321054 278.769951 
" clip-path="url(#pd25e0056ca)" style="fill: none; stroke: #1f77b4; stroke-width: 1.5"/>
    <path d="M 261.504176 279.753366 
L 295.626258 279.753366 
" clip-path="url(#pd25e0056ca)" style="fill: none; stroke: #1f77b4; stroke-width: 1.5"/>
    <path d="M 346.80938 295.488 
L 380.931462 295.488 
" clip-path="url(#pd25e0056ca)" style="fill: none; stroke: #1f77b4; stroke-width: 1.5"/>
    <path d="M 347.30415 290.570927 
L 381.426232 290.570927 
" clip-path="url(#pd25e0056ca)" style="fill: none; stroke: #1f77b4; stroke-width: 1.5"/>
   </g>
   <g id="LineCollection_4">
    <path d="M 107.954809 250.250927 
L 107.954809 53.568 
" clip-path="url(#pd25e0056ca)" style="fill: none; stroke: #1f77b4; stroke-width: 1.5"/>
    <path d="M 193.260013 278.769951 
L 193.260013 123.390439 
" clip-path="url(#pd25e0056ca)" style="fill: none; stroke: #1f77b4; stroke-width: 1.5"/>
    <path d="M 278.565217 279.753366 
L 278.565217 146.99239 
" clip-path="url(#pd25e0056ca)" style="fill: none; stroke: #1f77b4; stroke-width: 1.5"/>
    <path d="M 363.870421 295.488 
L 363.870421 150.926049 
" clip-path="url(#pd25e0056ca)" style="fill: none; stroke: #1f77b4; stroke-width: 1.5"/>
    <path d="M 364.365191 290.570927 
L 364.365191 172.561171 
" clip-path="url(#pd25e0056ca)" style="fill: none; stroke: #1f77b4; stroke-width: 1.5"/>
   </g>
   <g id="line2d_29">
    <path d="M 107.954809 185.367196 
L 193.260013 226.09433 
L 278.565217 242.981526 
L 363.870421 244.645463 
L 364.365191 250.119149 
" clip-path="url(#pd25e0056ca)" style="fill: none; stroke: #4682b4; stroke-width: 1.5; stroke-linecap: square"/>
   </g>
   <g id="line2d_30">
    <path d="M 107.954809 185.367196 
L 193.260013 226.09433 
L 278.565217 242.981526 
L 363.870421 244.645463 
L 364.365191 250.119149 
" clip-path="url(#pd25e0056ca)" style="fill: none; stroke: #4682b4; stroke-width: 1.5; stroke-linecap: square"/>
   </g>
   <g id="patch_3">
    <path d="M 57.6 307.584 
L 57.6 41.472 
" style="fill: none; stroke: #000000; stroke-width: 0.8; stroke-linejoin: miter; stroke-linecap: square"/>
   </g>
   <g id="patch_4">
    <path d="M 414.72 307.584 
L 414.72 41.472 
" style="fill: none; stroke: #000000; stroke-width: 0.8; stroke-linejoin: miter; stroke-linecap: square"/>
   </g>
   <g id="patch_5">
    <path d="M 57.6 307.584 
L 414.72 307.584 
" style="fill: none; stroke: #000000; stroke-width: 0.8; stroke-linejoin: miter; stroke-linecap: square"/>
   </g>
   <g id="patch_6">
    <path d="M 57.6 41.472 
L 414.72 41.472 
" style="fill: none; stroke: #000000; stroke-width: 0.8; stroke-linejoin: miter; stroke-linecap: square"/>
   </g>
   <g id="text_17">
    <!-- Violinplot for progress of customer/purchases_new -->
    <g transform="translate(84.319688 35.472)scale(0.12 -0.12)">
     <defs>
      <path id="DejaVuSans-56" d="M 1831 0 
L 50 4666 
L 709 4666 
L 2188 738 
L 3669 4666 
L 4325 4666 
L 2547 0 
L 1831 0 
z
" transform="scale(0.015625)"/>
      <path id="DejaVuSans-6c" d="M 603 4863 
L 1178 4863 
L 1178 0 
L 603 0 
L 603 4863 
z
" transform="scale(0.015625)"/>
      <path id="DejaVuSans-66" d="M 2375 4863 
L 2375 4384 
L 1825 4384 
Q 1516 4384 1395 4259 
Q 1275 4134 1275 3809 
L 1275 3500 
L 2222 3500 
L 2222 3053 
L 1275 3053 
L 1275 0 
L 697 0 
L 697 3053 
L 147 3053 
L 147 3500 
L 697 3500 
L 697 3744 
Q 697 4328 969 4595 
Q 1241 4863 1831 4863 
L 2375 4863 
z
" transform="scale(0.015625)"/>
      <path id="DejaVuSans-67" d="M 2906 1791 
Q 2906 2416 2648 2759 
Q 2391 3103 1925 3103 
Q 1463 3103 1205 2759 
Q 947 2416 947 1791 
Q 947 1169 1205 825 
Q 1463 481 1925 481 
Q 2391 481 2648 825 
Q 2906 1169 2906 1791 
z
M 3481 434 
Q 3481 -459 3084 -895 
Q 2688 -1331 1869 -1331 
Q 1566 -1331 1297 -1286 
Q 1028 -1241 775 -1147 
L 775 -588 
Q 1028 -725 1275 -790 
Q 1522 -856 1778 -856 
Q 2344 -856 2625 -561 
Q 2906 -266 2906 331 
L 2906 616 
Q 2728 306 2450 153 
Q 2172 0 1784 0 
Q 1141 0 747 490 
Q 353 981 353 1791 
Q 353 2603 747 3093 
Q 1141 3584 1784 3584 
Q 2172 3584 2450 3431 
Q 2728 3278 2906 2969 
L 2906 3500 
L 3481 3500 
L 3481 434 
z
" transform="scale(0.015625)"/>
      <path id="DejaVuSans-63" d="M 3122 3366 
L 3122 2828 
Q 2878 2963 2633 3030 
Q 2388 3097 2138 3097 
Q 1578 3097 1268 2742 
Q 959 2388 959 1747 
Q 959 1106 1268 751 
Q 1578 397 2138 397 
Q 2388 397 2633 464 
Q 2878 531 3122 666 
L 3122 134 
Q 2881 22 2623 -34 
Q 2366 -91 2075 -91 
Q 1284 -91 818 406 
Q 353 903 353 1747 
Q 353 2603 823 3093 
Q 1294 3584 2113 3584 
Q 2378 3584 2631 3529 
Q 2884 3475 3122 3366 
z
" transform="scale(0.015625)"/>
      <path id="DejaVuSans-75" d="M 544 1381 
L 544 3500 
L 1119 3500 
L 1119 1403 
Q 1119 906 1312 657 
Q 1506 409 1894 409 
Q 2359 409 2629 706 
Q 2900 1003 2900 1516 
L 2900 3500 
L 3475 3500 
L 3475 0 
L 2900 0 
L 2900 538 
Q 2691 219 2414 64 
Q 2138 -91 1772 -91 
Q 1169 -91 856 284 
Q 544 659 544 1381 
z
M 1991 3584 
L 1991 3584 
z
" transform="scale(0.015625)"/>
      <path id="DejaVuSans-6d" d="M 3328 2828 
Q 3544 3216 3844 3400 
Q 4144 3584 4550 3584 
Q 5097 3584 5394 3201 
Q 5691 2819 5691 2113 
L 5691 0 
L 5113 0 
L 5113 2094 
Q 5113 2597 4934 2840 
Q 4756 3084 4391 3084 
Q 3944 3084 3684 2787 
Q 3425 2491 3425 1978 
L 3425 0 
L 2847 0 
L 2847 2094 
Q 2847 2600 2669 2842 
Q 2491 3084 2119 3084 
Q 1678 3084 1418 2786 
Q 1159 2488 1159 1978 
L 1159 0 
L 581 0 
L 581 3500 
L 1159 3500 
L 1159 2956 
Q 1356 3278 1631 3431 
Q 1906 3584 2284 3584 
Q 2666 3584 2933 3390 
Q 3200 3197 3328 2828 
z
" transform="scale(0.015625)"/>
      <path id="DejaVuSans-2f" d="M 1625 4666 
L 2156 4666 
L 531 -594 
L 0 -594 
L 1625 4666 
z
" transform="scale(0.015625)"/>
      <path id="DejaVuSans-68" d="M 3513 2113 
L 3513 0 
L 2938 0 
L 2938 2094 
Q 2938 2591 2744 2837 
Q 2550 3084 2163 3084 
Q 1697 3084 1428 2787 
Q 1159 2491 1159 1978 
L 1159 0 
L 581 0 
L 581 4863 
L 1159 4863 
L 1159 2956 
Q 1366 3272 1645 3428 
Q 1925 3584 2291 3584 
Q 2894 3584 3203 3211 
Q 3513 2838 3513 2113 
z
" transform="scale(0.015625)"/>
      <path id="DejaVuSans-5f" d="M 3263 -1063 
L 3263 -1509 
L -63 -1509 
L -63 -1063 
L 3263 -1063 
z
" transform="scale(0.015625)"/>
     </defs>
     <use xlink:href="#DejaVuSans-56"/>
     <use xlink:href="#DejaVuSans-69" x="66.158203"/>
     <use xlink:href="#DejaVuSans-6f" x="93.941406"/>
     <use xlink:href="#DejaVuSans-6c" x="155.123047"/>
     <use xlink:href="#DejaVuSans-69" x="182.90625"/>
     <use xlink:href="#DejaVuSans-6e" x="210.689453"/>
     <use xlink:href="#DejaVuSans-70" x="274.068359"/>
     <use xlink:href="#DejaVuSans-6c" x="337.544922"/>
     <use xlink:href="#DejaVuSans-6f" x="365.328125"/>
     <use xlink:href="#DejaVuSans-74" x="426.509766"/>
     <use xlink:href="#DejaVuSans-20" x="465.71875"/>
     <use xlink:href="#DejaVuSans-66" x="497.505859"/>
     <use xlink:href="#DejaVuSans-6f" x="532.710938"/>
     <use xlink:href="#DejaVuSans-72" x="593.892578"/>
     <use xlink:href="#DejaVuSans-20" x="635.005859"/>
     <use xlink:href="#DejaVuSans-70" x="666.792969"/>
     <use xlink:href="#DejaVuSans-72" x="730.269531"/>
     <use xlink:href="#DejaVuSans-6f" x="769.132812"/>
     <use xlink:href="#DejaVuSans-67" x="830.314453"/>
     <use xlink:href="#DejaVuSans-72" x="893.791016"/>
     <use xlink:href="#DejaVuSans-65" x="932.654297"/>
     <use xlink:href="#DejaVuSans-73" x="994.177734"/>
     <use xlink:href="#DejaVuSans-73" x="1046.277344"/>
     <use xlink:href="#DejaVuSans-20" x="1098.376953"/>
     <use xlink:href="#DejaVuSans-6f" x="1130.164062"/>
     <use xlink:href="#DejaVuSans-66" x="1191.345703"/>
     <use xlink:href="#DejaVuSans-20" x="1226.550781"/>
     <use xlink:href="#DejaVuSans-63" x="1258.337891"/>
     <use xlink:href="#DejaVuSans-75" x="1313.318359"/>
     <use xlink:href="#DejaVuSans-73" x="1376.697266"/>
     <use xlink:href="#DejaVuSans-74" x="1428.796875"/>
     <use xlink:href="#DejaVuSans-6f" x="1468.005859"/>
     <use xlink:href="#DejaVuSans-6d" x="1529.1875"/>
     <use xlink:href="#DejaVuSans-65" x="1626.599609"/>
     <use xlink:href="#DejaVuSans-72" x="1688.123047"/>
     <use xlink:href="#DejaVuSans-2f" x="1729.236328"/>
     <use xlink:href="#DejaVuSans-70" x="1762.927734"/>
     <use xlink:href="#DejaVuSans-75" x="1826.404297"/>
     <use xlink:href="#DejaVuSans-72" x="1889.783203"/>
     <use xlink:href="#DejaVuSans-63" x="1928.646484"/>
     <use xlink:href="#DejaVuSans-68" x="1983.626953"/>
     <use xlink:href="#DejaVuSans-61" x="2047.005859"/>
     <use xlink:href="#DejaVuSans-73" x="2108.285156"/>
     <use xlink:href="#DejaVuSans-65" x="2160.384766"/>
     <use xlink:href="#DejaVuSans-73" x="2221.908203"/>
     <use xlink:href="#DejaVuSans-5f" x="2274.007812"/>
     <use xlink:href="#DejaVuSans-6e" x="2324.007812"/>
     <use xlink:href="#DejaVuSans-65" x="2387.386719"/>
     <use xlink:href="#DejaVuSans-77" x="2448.910156"/>
    </g>
   </g>
   <g id="legend_1">
    <g id="patch_7">
     <path d="M 276.504375 64.150125 
L 407.72 64.150125 
Q 409.72 64.150125 409.72 62.150125 
L 409.72 48.472 
Q 409.72 46.472 407.72 46.472 
L 276.504375 46.472 
Q 274.504375 46.472 274.504375 48.472 
L 274.504375 62.150125 
Q 274.504375 64.150125 276.504375 64.150125 
z
" style="fill: #ffffff; opacity: 0.8; stroke: #cccccc; stroke-linejoin: miter"/>
    </g>
    <g id="line2d_31">
     <path d="M 278.504375 54.570438 
L 288.504375 54.570438 
L 298.504375 54.570438 
" style="fill: none; stroke: #4682b4; stroke-width: 1.5; stroke-linecap: square"/>
    </g>
    <g id="text_18">
     <!-- StableBaselinesPPO -->
     <g transform="translate(306.504375 58.070438)scale(0.1 -0.1)">
      <defs>
       <path id="DejaVuSans-53" d="M 3425 4513 
L 3425 3897 
Q 3066 4069 2747 4153 
Q 2428 4238 2131 4238 
Q 1616 4238 1336 4038 
Q 1056 3838 1056 3469 
Q 1056 3159 1242 3001 
Q 1428 2844 1947 2747 
L 2328 2669 
Q 3034 2534 3370 2195 
Q 3706 1856 3706 1288 
Q 3706 609 3251 259 
Q 2797 -91 1919 -91 
Q 1588 -91 1214 -16 
Q 841 59 441 206 
L 441 856 
Q 825 641 1194 531 
Q 1563 422 1919 422 
Q 2459 422 2753 634 
Q 3047 847 3047 1241 
Q 3047 1584 2836 1778 
Q 2625 1972 2144 2069 
L 1759 2144 
Q 1053 2284 737 2584 
Q 422 2884 422 3419 
Q 422 4038 858 4394 
Q 1294 4750 2059 4750 
Q 2388 4750 2728 4690 
Q 3069 4631 3425 4513 
z
" transform="scale(0.015625)"/>
       <path id="DejaVuSans-62" d="M 3116 1747 
Q 3116 2381 2855 2742 
Q 2594 3103 2138 3103 
Q 1681 3103 1420 2742 
Q 1159 2381 1159 1747 
Q 1159 1113 1420 752 
Q 1681 391 2138 391 
Q 2594 391 2855 752 
Q 3116 1113 3116 1747 
z
M 1159 2969 
Q 1341 3281 1617 3432 
Q 1894 3584 2278 3584 
Q 2916 3584 3314 3078 
Q 3713 2572 3713 1747 
Q 3713 922 3314 415 
Q 2916 -91 2278 -91 
Q 1894 -91 1617 61 
Q 1341 213 1159 525 
L 1159 0 
L 581 0 
L 581 4863 
L 1159 4863 
L 1159 2969 
z
" transform="scale(0.015625)"/>
       <path id="DejaVuSans-42" d="M 1259 2228 
L 1259 519 
L 2272 519 
Q 2781 519 3026 730 
Q 3272 941 3272 1375 
Q 3272 1813 3026 2020 
Q 2781 2228 2272 2228 
L 1259 2228 
z
M 1259 4147 
L 1259 2741 
L 2194 2741 
Q 2656 2741 2882 2914 
Q 3109 3088 3109 3444 
Q 3109 3797 2882 3972 
Q 2656 4147 2194 4147 
L 1259 4147 
z
M 628 4666 
L 2241 4666 
Q 2963 4666 3353 4366 
Q 3744 4066 3744 3513 
Q 3744 3084 3544 2831 
Q 3344 2578 2956 2516 
Q 3422 2416 3680 2098 
Q 3938 1781 3938 1306 
Q 3938 681 3513 340 
Q 3088 0 2303 0 
L 628 0 
L 628 4666 
z
" transform="scale(0.015625)"/>
       <path id="DejaVuSans-50" d="M 1259 4147 
L 1259 2394 
L 2053 2394 
Q 2494 2394 2734 2622 
Q 2975 2850 2975 3272 
Q 2975 3691 2734 3919 
Q 2494 4147 2053 4147 
L 1259 4147 
z
M 628 4666 
L 2053 4666 
Q 2838 4666 3239 4311 
Q 3641 3956 3641 3272 
Q 3641 2581 3239 2228 
Q 2838 1875 2053 1875 
L 1259 1875 
L 1259 0 
L 628 0 
L 628 4666 
z
" transform="scale(0.015625)"/>
       <path id="DejaVuSans-4f" d="M 2522 4238 
Q 1834 4238 1429 3725 
Q 1025 3213 1025 2328 
Q 1025 1447 1429 934 
Q 1834 422 2522 422 
Q 3209 422 3611 934 
Q 4013 1447 4013 2328 
Q 4013 3213 3611 3725 
Q 3209 4238 2522 4238 
z
M 2522 4750 
Q 3503 4750 4090 4092 
Q 4678 3434 4678 2328 
Q 4678 1225 4090 567 
Q 3503 -91 2522 -91 
Q 1538 -91 948 565 
Q 359 1222 359 2328 
Q 359 3434 948 4092 
Q 1538 4750 2522 4750 
z
" transform="scale(0.015625)"/>
      </defs>
      <use xlink:href="#DejaVuSans-53"/>
      <use xlink:href="#DejaVuSans-74" x="63.476562"/>
      <use xlink:href="#DejaVuSans-61" x="102.685547"/>
      <use xlink:href="#DejaVuSans-62" x="163.964844"/>
      <use xlink:href="#DejaVuSans-6c" x="227.441406"/>
      <use xlink:href="#DejaVuSans-65" x="255.224609"/>
      <use xlink:href="#DejaVuSans-42" x="316.748047"/>
      <use xlink:href="#DejaVuSans-61" x="385.351562"/>
      <use xlink:href="#DejaVuSans-73" x="446.630859"/>
      <use xlink:href="#DejaVuSans-65" x="498.730469"/>
      <use xlink:href="#DejaVuSans-6c" x="560.253906"/>
      <use xlink:href="#DejaVuSans-69" x="588.037109"/>
      <use xlink:href="#DejaVuSans-6e" x="615.820312"/>
      <use xlink:href="#DejaVuSans-65" x="679.199219"/>
      <use xlink:href="#DejaVuSans-73" x="740.722656"/>
      <use xlink:href="#DejaVuSans-50" x="792.822266"/>
      <use xlink:href="#DejaVuSans-50" x="853.125"/>
      <use xlink:href="#DejaVuSans-4f" x="913.427734"/>
     </g>
    </g>
   </g>
  </g>
 </g>
 <defs>
  <clipPath id="pd25e0056ca">
   <rect x="57.6" y="41.472" width="357.12" height="266.112"/>
  </clipPath>
 </defs>
</svg>
