<?xml version="1.0" encoding="utf-8" standalone="no"?>
<!DOCTYPE svg PUBLIC "-//W3C//DTD SVG 1.1//EN"
  "http://www.w3.org/Graphics/SVG/1.1/DTD/svg11.dtd">
<svg xmlns:xlink="http://www.w3.org/1999/xlink" width="460.8pt" height="345.6pt" viewBox="0 0 460.8 345.6" xmlns="http://www.w3.org/2000/svg" version="1.1">
 <metadata>
  <rdf:RDF xmlns:dc="http://purl.org/dc/elements/1.1/" xmlns:cc="http://creativecommons.org/ns#" xmlns:rdf="http://www.w3.org/1999/02/22-rdf-syntax-ns#">
   <cc:Work>
    <dc:type rdf:resource="http://purl.org/dc/dcmitype/StillImage"/>
    <dc:date>2022-06-21T20:54:29.789558</dc:date>
    <dc:format>image/svg+xml</dc:format>
    <dc:creator>
     <cc:Agent>
      <dc:title>Matplotlib v3.5.2, https://matplotlib.org/</dc:title>
     </cc:Agent>
    </dc:creator>
   </cc:Work>
  </rdf:RDF>
 </metadata>
 <defs>
  <style type="text/css">*{stroke-linejoin: round; stroke-linecap: butt}</style>
 </defs>
 <g id="figure_1">
  <g id="patch_1">
   <path d="M 0 345.6 
L 460.8 345.6 
L 460.8 0 
L 0 0 
z
" style="fill: #ffffff"/>
  </g>
  <g id="axes_1">
   <g id="patch_2">
    <path d="M 57.6 307.584 
L 414.72 307.584 
L 414.72 41.472 
L 57.6 41.472 
z
" style="fill: #ffffff"/>
   </g>
   <g id="PolyCollection_1">
    <path d="M 115.457851 295.488 
L 100.451767 295.488 
L 98.874981 293.165799 
L 97.144941 290.843598 
L 95.285189 288.521398 
L 93.325952 286.199197 
L 91.302555 283.876996 
L 89.253352 281.554795 
L 87.217499 279.232594 
L 85.232857 276.910394 
L 83.334354 274.588193 
L 81.552976 272.265992 
L 79.915414 269.943791 
L 78.444181 267.62159 
L 77.157914 265.29939 
L 76.071515 262.977189 
L 75.195886 260.654988 
L 74.537204 258.332787 
L 74.095892 256.010586 
L 73.865616 253.688386 
L 73.832727 251.366185 
L 73.9765 249.043984 
L 74.27033 246.721783 
L 74.683841 244.399582 
L 75.185589 242.077382 
L 75.745937 239.755181 
L 76.339611 237.43298 
L 76.947549 235.110779 
L 77.557812 232.788578 
L 78.165531 230.466378 
L 78.772016 228.144177 
L 79.383269 225.821976 
L 80.008155 223.499775 
L 80.656445 221.177574 
L 81.336896 218.855374 
L 82.055489 216.533173 
L 82.813926 214.210972 
L 83.608552 211.888771 
L 84.429875 209.56657 
L 85.262863 207.24437 
L 86.088143 204.922169 
L 86.884063 202.599968 
L 87.629403 200.277767 
L 88.306336 197.955567 
L 88.90314 195.633366 
L 89.416138 193.311165 
L 89.850489 190.988964 
L 90.219635 188.666763 
L 90.543474 186.344563 
L 90.84557 184.022362 
L 91.149888 181.700161 
L 91.477595 179.37796 
L 91.844472 177.055759 
L 92.259314 174.733559 
L 92.723531 172.411358 
L 93.231915 170.089157 
L 93.774331 167.766956 
L 94.337944 165.444755 
L 94.909524 163.122555 
L 95.47741 160.800354 
L 96.03283 158.478153 
L 96.570463 156.155952 
L 97.088287 153.833751 
L 97.586914 151.511551 
L 98.068663 149.18935 
L 98.536641 146.867149 
L 98.993991 144.544948 
L 99.443421 142.222747 
L 99.886987 139.900547 
L 100.326053 137.578346 
L 100.761351 135.256145 
L 101.193031 132.933944 
L 101.620677 130.611743 
L 102.043283 128.289543 
L 102.459238 125.967342 
L 102.866354 123.645141 
L 103.261998 121.32294 
L 103.643314 119.000739 
L 104.00753 116.678539 
L 104.352265 114.356338 
L 104.675793 112.034137 
L 104.977187 109.711936 
L 105.256333 107.389735 
L 105.513812 105.067535 
L 105.750699 102.745334 
L 105.968336 100.423133 
L 106.168121 98.100932 
L 106.351358 95.778731 
L 106.519179 93.456531 
L 106.672508 91.13433 
L 106.812081 88.812129 
L 106.938481 86.489928 
L 107.052203 84.167727 
L 107.153733 81.845527 
L 107.243644 79.523326 
L 107.322689 77.201125 
L 107.391867 74.878924 
L 107.452448 72.556723 
L 107.505911 70.234523 
L 107.553831 67.912322 
L 107.597705 65.590121 
L 108.311913 65.590121 
L 108.311913 65.590121 
L 108.355787 67.912322 
L 108.403707 70.234523 
L 108.45717 72.556723 
L 108.517751 74.878924 
L 108.586929 77.201125 
L 108.665973 79.523326 
L 108.755884 81.845527 
L 108.857414 84.167727 
L 108.971136 86.489928 
L 109.097536 88.812129 
L 109.237109 91.13433 
L 109.390439 93.456531 
L 109.55826 95.778731 
L 109.741497 98.100932 
L 109.941281 100.423133 
L 110.158918 102.745334 
L 110.395806 105.067535 
L 110.653285 107.389735 
L 110.932431 109.711936 
L 111.233825 112.034137 
L 111.557352 114.356338 
L 111.902088 116.678539 
L 112.266304 119.000739 
L 112.64762 121.32294 
L 113.043263 123.645141 
L 113.450379 125.967342 
L 113.866334 128.289543 
L 114.288941 130.611743 
L 114.716587 132.933944 
L 115.148267 135.256145 
L 115.583565 137.578346 
L 116.022631 139.900547 
L 116.466196 142.222747 
L 116.915627 144.544948 
L 117.372977 146.867149 
L 117.840954 149.18935 
L 118.322704 151.511551 
L 118.82133 153.833751 
L 119.339154 156.155952 
L 119.876787 158.478153 
L 120.432208 160.800354 
L 121.000093 163.122555 
L 121.571674 165.444755 
L 122.135287 167.766956 
L 122.677702 170.089157 
L 123.186086 172.411358 
L 123.650304 174.733559 
L 124.065145 177.055759 
L 124.432022 179.37796 
L 124.75973 181.700161 
L 125.064048 184.022362 
L 125.366144 186.344563 
L 125.689982 188.666763 
L 126.059129 190.988964 
L 126.49348 193.311165 
L 127.006478 195.633366 
L 127.603281 197.955567 
L 128.280215 200.277767 
L 129.025555 202.599968 
L 129.821475 204.922169 
L 130.646755 207.24437 
L 131.479742 209.56657 
L 132.301065 211.888771 
L 133.095692 214.210972 
L 133.854129 216.533173 
L 134.572722 218.855374 
L 135.253173 221.177574 
L 135.901463 223.499775 
L 136.526349 225.821976 
L 137.137602 228.144177 
L 137.744087 230.466378 
L 138.351806 232.788578 
L 138.962069 235.110779 
L 139.570007 237.43298 
L 140.163681 239.755181 
L 140.724029 242.077382 
L 141.225777 244.399582 
L 141.639288 246.721783 
L 141.933118 249.043984 
L 142.07689 251.366185 
L 142.044002 253.688386 
L 141.813725 256.010586 
L 141.372414 258.332787 
L 140.713732 260.654988 
L 139.838103 262.977189 
L 138.751703 265.29939 
L 137.465437 267.62159 
L 135.994204 269.943791 
L 134.356642 272.265992 
L 132.575264 274.588193 
L 130.676761 276.910394 
L 128.692119 279.232594 
L 126.656266 281.554795 
L 124.607063 283.876996 
L 122.583665 286.199197 
L 120.624429 288.521398 
L 118.764676 290.843598 
L 117.034637 293.165799 
L 115.457851 295.488 
z
" clip-path="url(#pa18eb8cc2b)" style="fill: #1f77b4; fill-opacity: 0.3"/>
   </g>
   <g id="PolyCollection_2">
    <path d="M 204.118003 292.264191 
L 182.402023 292.264191 
L 180.545115 290.054606 
L 178.585889 287.845022 
L 176.560428 285.635437 
L 174.509075 283.425853 
L 172.474194 281.216268 
L 170.497723 279.006684 
L 168.618765 276.797099 
L 166.871436 274.587514 
L 165.283208 272.37793 
L 163.873872 270.168345 
L 162.655198 267.958761 
L 161.631272 265.749176 
L 160.799418 263.539592 
L 160.151549 261.330007 
L 159.675761 259.120422 
L 159.357975 256.910838 
L 159.183441 254.701253 
L 159.137931 252.491669 
L 159.208509 250.282084 
L 159.383809 248.0725 
L 159.653823 245.862915 
L 160.009299 243.65333 
L 160.440872 241.443746 
L 160.938187 239.234161 
L 161.48921 237.024577 
L 162.079971 234.814992 
L 162.694846 232.605408 
L 163.317427 230.395823 
L 163.931835 228.186238 
L 164.524273 225.976654 
L 165.084495 223.767069 
L 165.60689 221.557485 
L 166.09093 219.3479 
L 166.540873 217.138315 
L 166.964736 214.928731 
L 167.372732 212.719146 
L 167.775446 210.509562 
L 168.182074 208.299977 
L 168.599031 206.090393 
L 169.029132 203.880808 
L 169.471439 201.671223 
L 169.92176 199.461639 
L 170.37364 197.252054 
L 170.819674 195.04247 
L 171.252881 192.832885 
L 171.667953 190.623301 
L 172.062175 188.413716 
L 172.435909 186.204131 
L 172.792593 183.994547 
L 173.138252 181.784962 
L 173.480626 179.575378 
L 173.828047 177.365793 
L 174.18825 175.156209 
L 174.567319 172.946624 
L 174.968957 170.737039 
L 175.394206 168.527455 
L 175.841661 166.31787 
L 176.308123 164.108286 
L 176.789544 161.898701 
L 177.282054 159.689117 
L 177.782823 157.479532 
L 178.290584 155.269947 
L 178.805688 153.060363 
L 179.329705 150.850778 
L 179.864668 148.641194 
L 180.412178 146.431609 
L 180.972577 144.222025 
L 181.544413 142.01244 
L 182.124315 139.802855 
L 182.707304 137.593271 
L 183.287471 135.383686 
L 183.858836 133.174102 
L 184.41619 130.964517 
L 184.955736 128.754933 
L 185.475383 126.545348 
L 185.974664 124.335763 
L 186.454326 122.126179 
L 186.915705 119.916594 
L 187.360072 117.70701 
L 187.788086 115.497425 
L 188.199483 113.28784 
L 188.593043 111.078256 
L 188.966822 108.868671 
L 189.318561 106.659087 
L 189.646178 104.449502 
L 189.948214 102.239918 
L 190.224161 100.030333 
L 190.474618 97.820748 
L 190.701257 95.611164 
L 190.90664 93.401579 
L 191.093931 91.191995 
L 191.266554 88.98241 
L 191.427857 86.772826 
L 191.580821 84.563241 
L 191.727833 82.353656 
L 191.870553 80.144072 
L 192.009853 77.934487 
L 192.145853 75.724903 
L 192.278015 73.515318 
L 194.242011 73.515318 
L 194.242011 73.515318 
L 194.374172 75.724903 
L 194.510173 77.934487 
L 194.649473 80.144072 
L 194.792192 82.353656 
L 194.939205 84.563241 
L 195.092168 86.772826 
L 195.253472 88.98241 
L 195.426095 91.191995 
L 195.613386 93.401579 
L 195.818769 95.611164 
L 196.045408 97.820748 
L 196.295865 100.030333 
L 196.571812 102.239918 
L 196.873848 104.449502 
L 197.201465 106.659087 
L 197.553204 108.868671 
L 197.926983 111.078256 
L 198.320543 113.28784 
L 198.731939 115.497425 
L 199.159953 117.70701 
L 199.604321 119.916594 
L 200.0657 122.126179 
L 200.545362 124.335763 
L 201.044643 126.545348 
L 201.56429 128.754933 
L 202.103835 130.964517 
L 202.66119 133.174102 
L 203.232555 135.383686 
L 203.812722 137.593271 
L 204.395711 139.802855 
L 204.975612 142.01244 
L 205.547449 144.222025 
L 206.107848 146.431609 
L 206.655358 148.641194 
L 207.190321 150.850778 
L 207.714337 153.060363 
L 208.229442 155.269947 
L 208.737203 157.479532 
L 209.237972 159.689117 
L 209.730481 161.898701 
L 210.211903 164.108286 
L 210.678365 166.31787 
L 211.12582 168.527455 
L 211.551069 170.737039 
L 211.952707 172.946624 
L 212.331776 175.156209 
L 212.691979 177.365793 
L 213.0394 179.575378 
L 213.381774 181.784962 
L 213.727433 183.994547 
L 214.084116 186.204131 
L 214.457851 188.413716 
L 214.852072 190.623301 
L 215.267145 192.832885 
L 215.700352 195.04247 
L 216.146386 197.252054 
L 216.598266 199.461639 
L 217.048587 201.671223 
L 217.490894 203.880808 
L 217.920995 206.090393 
L 218.337952 208.299977 
L 218.74458 210.509562 
L 219.147294 212.719146 
L 219.55529 214.928731 
L 219.979153 217.138315 
L 220.429096 219.3479 
L 220.913136 221.557485 
L 221.435531 223.767069 
L 221.995753 225.976654 
L 222.588191 228.186238 
L 223.202599 230.395823 
L 223.82518 232.605408 
L 224.440055 234.814992 
L 225.030816 237.024577 
L 225.581839 239.234161 
L 226.079154 241.443746 
L 226.510727 243.65333 
L 226.866202 245.862915 
L 227.136217 248.0725 
L 227.311516 250.282084 
L 227.382095 252.491669 
L 227.336585 254.701253 
L 227.162051 256.910838 
L 226.844265 259.120422 
L 226.368477 261.330007 
L 225.720608 263.539592 
L 224.888754 265.749176 
L 223.864828 267.958761 
L 222.646154 270.168345 
L 221.236817 272.37793 
L 219.648589 274.587514 
L 217.901261 276.797099 
L 216.022302 279.006684 
L 214.045832 281.216268 
L 212.010951 283.425853 
L 209.959598 285.635437 
L 207.934137 287.845022 
L 205.974911 290.054606 
L 204.118003 292.264191 
z
" clip-path="url(#pa18eb8cc2b)" style="fill: #1f77b4; fill-opacity: 0.3"/>
   </g>
   <g id="PolyCollection_3">
    <path d="M 287.763164 290.652287 
L 269.367269 290.652287 
L 267.617604 288.58856 
L 265.72194 286.524834 
L 263.706756 284.461108 
L 261.605461 282.397382 
L 259.457403 280.333655 
L 257.306479 278.269929 
L 255.199362 276.206203 
L 253.183404 274.142477 
L 251.304315 272.078751 
L 249.603722 270.015024 
L 248.116804 267.951298 
L 246.870205 265.887572 
L 245.880464 263.823846 
L 245.153148 261.76012 
L 244.68286 259.696393 
L 244.454129 257.632667 
L 244.443135 255.568941 
L 244.620055 253.505215 
L 244.951746 251.441488 
L 245.404458 249.377762 
L 245.946238 247.314036 
L 246.548804 245.25031 
L 247.188716 243.186584 
L 247.847825 241.122857 
L 248.513063 239.059131 
L 249.175726 236.995405 
L 249.830446 234.931679 
L 250.474072 232.867953 
L 251.104633 230.804226 
L 251.72054 228.7405 
L 252.320105 226.676774 
L 252.901395 224.613048 
L 253.462389 222.549321 
L 254.001348 220.485595 
L 254.517288 218.421869 
L 255.010438 216.358143 
L 255.482559 214.294417 
L 255.937061 212.23069 
L 256.378858 210.166964 
L 256.813966 208.103238 
L 257.248896 206.039512 
L 257.689908 203.975786 
L 258.142243 201.912059 
L 258.609435 199.848333 
L 259.09282 197.784607 
L 259.59131 195.720881 
L 260.101488 193.657155 
L 260.618011 191.593428 
L 261.134266 189.529702 
L 261.643177 187.465976 
L 262.138046 185.40225 
L 262.613287 183.338523 
L 263.064964 181.274797 
L 263.491065 179.211071 
L 263.891498 177.147345 
L 264.267878 175.083619 
L 264.623149 173.019892 
L 264.961154 170.956166 
L 265.28622 168.89244 
L 265.602789 166.828714 
L 265.915122 164.764988 
L 266.227055 162.701261 
L 266.541775 160.637535 
L 266.861625 158.573809 
L 267.187917 156.510083 
L 267.52082 154.446356 
L 267.859344 152.38263 
L 268.201467 150.318904 
L 268.544425 148.255178 
L 268.885143 146.191452 
L 269.220745 144.127725 
L 269.549076 142.063999 
L 269.86912 140.000273 
L 270.181262 137.936547 
L 270.487328 135.872821 
L 270.790392 133.809094 
L 271.094398 131.745368 
L 271.403636 129.681642 
L 271.722165 127.617916 
L 272.05327 125.554189 
L 272.399013 123.490463 
L 272.759941 121.426737 
L 273.134985 119.363011 
L 273.521525 117.299285 
L 273.915635 115.235558 
L 274.31243 113.171832 
L 274.70648 111.108106 
L 275.09225 109.04438 
L 275.464484 106.980654 
L 275.818539 104.916927 
L 276.150616 102.853201 
L 276.457905 100.789475 
L 276.738631 98.725749 
L 276.992029 96.662023 
L 277.218252 94.598296 
L 277.418231 92.53457 
L 277.593509 90.470844 
L 277.746055 88.407118 
L 277.878081 86.343391 
L 279.252353 86.343391 
L 279.252353 86.343391 
L 279.384379 88.407118 
L 279.536925 90.470844 
L 279.712203 92.53457 
L 279.912182 94.598296 
L 280.138405 96.662023 
L 280.391803 98.725749 
L 280.672529 100.789475 
L 280.979817 102.853201 
L 281.311895 104.916927 
L 281.665949 106.980654 
L 282.038184 109.04438 
L 282.423953 111.108106 
L 282.818004 113.171832 
L 283.214798 115.235558 
L 283.608909 117.299285 
L 283.995449 119.363011 
L 284.370492 121.426737 
L 284.731421 123.490463 
L 285.077163 125.554189 
L 285.408268 127.617916 
L 285.726798 129.681642 
L 286.036035 131.745368 
L 286.340042 133.809094 
L 286.643106 135.872821 
L 286.949172 137.936547 
L 287.261314 140.000273 
L 287.581358 142.063999 
L 287.909688 144.127725 
L 288.245291 146.191452 
L 288.586008 148.255178 
L 288.928967 150.318904 
L 289.27109 152.38263 
L 289.609614 154.446356 
L 289.942517 156.510083 
L 290.268809 158.573809 
L 290.588658 160.637535 
L 290.903379 162.701261 
L 291.215312 164.764988 
L 291.527645 166.828714 
L 291.844213 168.89244 
L 292.169279 170.956166 
L 292.507285 173.019892 
L 292.862556 175.083619 
L 293.238936 177.147345 
L 293.639369 179.211071 
L 294.06547 181.274797 
L 294.517147 183.338523 
L 294.992388 185.40225 
L 295.487256 187.465976 
L 295.996168 189.529702 
L 296.512422 191.593428 
L 297.028946 193.657155 
L 297.539124 195.720881 
L 298.037614 197.784607 
L 298.520999 199.848333 
L 298.988191 201.912059 
L 299.440526 203.975786 
L 299.881538 206.039512 
L 300.316468 208.103238 
L 300.751576 210.166964 
L 301.193373 212.23069 
L 301.647875 214.294417 
L 302.119996 216.358143 
L 302.613145 218.421869 
L 303.129086 220.485595 
L 303.668044 222.549321 
L 304.229039 224.613048 
L 304.810329 226.676774 
L 305.409894 228.7405 
L 306.025801 230.804226 
L 306.656362 232.867953 
L 307.299988 234.931679 
L 307.954708 236.995405 
L 308.617371 239.059131 
L 309.282609 241.122857 
L 309.941718 243.186584 
L 310.58163 245.25031 
L 311.184196 247.314036 
L 311.725976 249.377762 
L 312.178688 251.441488 
L 312.510379 253.505215 
L 312.687299 255.568941 
L 312.676305 257.632667 
L 312.447574 259.696393 
L 311.977285 261.76012 
L 311.24997 263.823846 
L 310.260229 265.887572 
L 309.01363 267.951298 
L 307.526712 270.015024 
L 305.826119 272.078751 
L 303.94703 274.142477 
L 301.931072 276.206203 
L 299.823954 278.269929 
L 297.673031 280.333655 
L 295.524973 282.397382 
L 293.423677 284.461108 
L 291.408494 286.524834 
L 289.51283 288.58856 
L 287.763164 290.652287 
z
" clip-path="url(#pa18eb8cc2b)" style="fill: #1f77b4; fill-opacity: 0.3"/>
   </g>
   <g id="PolyCollection_4">
    <path d="M 375.655532 290.853775 
L 352.08531 290.853775 
L 349.711118 288.456949 
L 347.177111 286.060123 
L 344.549938 283.663297 
L 341.909596 281.266471 
L 339.34474 278.869645 
L 336.94648 276.472819 
L 334.801239 274.075993 
L 332.98348 271.679167 
L 331.549233 269.282341 
L 330.531319 266.885515 
L 329.936992 264.488689 
L 329.748339 262.091863 
L 329.925378 259.695036 
L 330.411346 257.29821 
L 331.139375 254.901384 
L 332.039532 252.504558 
L 333.045283 250.107732 
L 334.09857 247.710906 
L 335.153043 245.31408 
L 336.175323 242.917254 
L 337.144511 240.520428 
L 338.050392 238.123602 
L 338.890908 235.726776 
L 339.669443 233.32995 
L 340.392354 230.933124 
L 341.067008 228.536298 
L 341.700417 226.139472 
L 342.298405 223.742646 
L 342.865219 221.34582 
L 343.403422 218.948994 
L 343.914005 216.552168 
L 344.396649 214.155342 
L 344.850102 211.758516 
L 345.27267 209.36169 
L 345.662756 206.964864 
L 346.019396 204.568038 
L 346.342717 202.171212 
L 346.63424 199.774386 
L 346.896998 197.37756 
L 347.135457 194.980734 
L 347.355281 192.583908 
L 347.562988 190.187082 
L 347.76556 187.790256 
L 347.970034 185.39343 
L 348.183128 182.996604 
L 348.410884 180.599778 
L 348.658372 178.202952 
L 348.929452 175.806126 
L 349.226661 173.4093 
L 349.551235 171.012474 
L 349.903315 168.615648 
L 350.282276 166.218822 
L 350.68715 163.821996 
L 351.116995 161.42517 
L 351.571112 159.028344 
L 352.049036 156.631518 
L 352.55026 154.234692 
L 353.073795 151.837866 
L 353.617672 149.44104 
L 354.178554 147.044214 
L 354.751595 144.647388 
L 355.33061 142.250562 
L 355.908554 139.853736 
L 356.478204 137.45691 
L 357.032913 135.060084 
L 357.567273 132.663258 
L 358.077553 130.266432 
L 358.561841 127.869606 
L 359.019869 125.47278 
L 359.452601 123.075954 
L 359.861665 120.679128 
L 360.248785 118.282302 
L 360.615296 115.885476 
L 360.961852 113.48865 
L 361.288336 111.091824 
L 361.593952 108.694998 
L 361.877465 106.298172 
L 362.13749 103.901346 
L 362.372786 101.50452 
L 362.582504 99.107694 
L 362.766347 96.710868 
L 362.924664 94.314042 
L 363.058456 91.917216 
L 363.169333 89.52039 
L 363.259409 87.123564 
L 363.33117 84.726738 
L 363.387306 82.329912 
L 363.430545 79.933086 
L 363.463487 77.53626 
L 363.488478 75.139434 
L 363.507541 72.742608 
L 363.522364 70.345782 
L 363.534351 67.948956 
L 363.5447 65.55213 
L 363.554493 63.155304 
L 363.564737 60.758478 
L 363.576366 58.361652 
L 363.590179 55.964826 
L 363.606747 53.568 
L 364.134095 53.568 
L 364.134095 53.568 
L 364.150663 55.964826 
L 364.164476 58.361652 
L 364.176105 60.758478 
L 364.186349 63.155304 
L 364.196141 65.55213 
L 364.206491 67.948956 
L 364.218478 70.345782 
L 364.233301 72.742608 
L 364.252364 75.139434 
L 364.277355 77.53626 
L 364.310297 79.933086 
L 364.353536 82.329912 
L 364.409672 84.726738 
L 364.481433 87.123564 
L 364.571509 89.52039 
L 364.682385 91.917216 
L 364.816178 94.314042 
L 364.974495 96.710868 
L 365.158338 99.107694 
L 365.368056 101.50452 
L 365.603352 103.901346 
L 365.863377 106.298172 
L 366.14689 108.694998 
L 366.452506 111.091824 
L 366.77899 113.48865 
L 367.125546 115.885476 
L 367.492057 118.282302 
L 367.879176 120.679128 
L 368.288241 123.075954 
L 368.720972 125.47278 
L 369.179001 127.869606 
L 369.663288 130.266432 
L 370.173569 132.663258 
L 370.707929 135.060084 
L 371.262638 137.45691 
L 371.832287 139.853736 
L 372.410232 142.250562 
L 372.989247 144.647388 
L 373.562288 147.044214 
L 374.12317 149.44104 
L 374.667047 151.837866 
L 375.190582 154.234692 
L 375.691806 156.631518 
L 376.169729 159.028344 
L 376.623847 161.42517 
L 377.053692 163.821996 
L 377.458566 166.218822 
L 377.837527 168.615648 
L 378.189606 171.012474 
L 378.514181 173.4093 
L 378.811389 175.806126 
L 379.08247 178.202952 
L 379.329957 180.599778 
L 379.557714 182.996604 
L 379.770808 185.39343 
L 379.975282 187.790256 
L 380.177853 190.187082 
L 380.385561 192.583908 
L 380.605385 194.980734 
L 380.843844 197.37756 
L 381.106602 199.774386 
L 381.398125 202.171212 
L 381.721446 204.568038 
L 382.078086 206.964864 
L 382.468172 209.36169 
L 382.89074 211.758516 
L 383.344193 214.155342 
L 383.826837 216.552168 
L 384.33742 218.948994 
L 384.875623 221.34582 
L 385.442437 223.742646 
L 386.040425 226.139472 
L 386.673833 228.536298 
L 387.348488 230.933124 
L 388.071399 233.32995 
L 388.849934 235.726776 
L 389.69045 238.123602 
L 390.596331 240.520428 
L 391.565518 242.917254 
L 392.587799 245.31408 
L 393.642272 247.710906 
L 394.695559 250.107732 
L 395.70131 252.504558 
L 396.601467 254.901384 
L 397.329496 257.29821 
L 397.815464 259.695036 
L 397.992503 262.091863 
L 397.80385 264.488689 
L 397.209523 266.885515 
L 396.191609 269.282341 
L 394.757362 271.679167 
L 392.939603 274.075993 
L 390.794362 276.472819 
L 388.396102 278.869645 
L 385.831246 281.266471 
L 383.190904 283.663297 
L 380.563731 286.060123 
L 378.029724 288.456949 
L 375.655532 290.853775 
z
" clip-path="url(#pa18eb8cc2b)" style="fill: #1f77b4; fill-opacity: 0.3"/>
   </g>
   <g id="PolyCollection_5">
    <path d="M 375.991523 290.652287 
L 352.73886 290.652287 
L 350.508047 288.359936 
L 348.13723 286.067585 
L 345.684058 283.775234 
L 343.215672 281.482884 
L 340.804485 279.190533 
L 338.523162 276.898182 
L 336.439322 274.605832 
L 334.610602 272.313481 
L 333.080688 270.02113 
L 331.876812 267.728779 
L 331.008992 265.436429 
L 330.471044 263.144078 
L 330.24311 260.851727 
L 330.295216 258.559377 
L 330.591265 256.267026 
L 331.092808 253.974675 
L 331.762076 251.682324 
L 332.563949 249.389974 
L 333.466767 247.097623 
L 334.442172 244.805272 
L 335.464307 242.512922 
L 336.508853 240.220571 
L 337.552285 237.92822 
L 338.571692 235.635869 
L 339.545251 233.343519 
L 340.453295 231.051168 
L 341.279717 228.758817 
L 342.013382 226.466467 
L 342.64916 224.174116 
L 343.188337 221.881765 
L 343.638228 219.589414 
L 344.011039 217.297064 
L 344.32215 215.004713 
L 344.588102 212.712362 
L 344.82465 210.420012 
L 345.045152 208.127661 
L 345.259546 205.83531 
L 345.473978 203.542959 
L 345.691071 201.250609 
L 345.91066 198.958258 
L 346.130793 196.665907 
L 346.348779 194.373557 
L 346.562072 192.081206 
L 346.768893 189.788855 
L 346.968543 187.496504 
L 347.161447 185.204154 
L 347.349003 182.911803 
L 347.533359 180.619452 
L 347.717174 178.327102 
L 347.903441 176.034751 
L 348.095373 173.7424 
L 348.296343 171.450049 
L 348.509856 169.157699 
L 348.739518 166.865348 
L 348.98899 164.572997 
L 349.261935 162.280647 
L 349.561934 159.988296 
L 349.892412 157.695945 
L 350.256526 155.403594 
L 350.65703 153.111244 
L 351.096082 150.818893 
L 351.574984 148.526542 
L 352.093861 146.234192 
L 352.651306 143.941841 
L 353.244045 141.64949 
L 353.866706 139.357139 
L 354.511764 137.064789 
L 355.169745 134.772438 
L 355.829699 132.480087 
L 356.479956 130.187737 
L 357.109074 127.895386 
L 357.706865 125.603035 
L 358.265356 123.310684 
L 358.779514 121.018334 
L 359.247628 118.725983 
L 359.67126 116.433632 
L 360.05478 114.141282 
L 360.404558 111.848931 
L 360.727934 109.55658 
L 361.032148 107.264229 
L 361.323388 104.971879 
L 361.606079 102.679528 
L 361.882509 100.387177 
L 362.152801 98.094827 
L 362.4152 95.802476 
L 362.666584 93.510125 
L 362.903114 91.217774 
L 363.120889 88.925424 
L 363.316536 86.633073 
L 363.487666 84.340722 
L 363.633152 82.048372 
L 363.75322 79.756021 
L 363.849384 77.46367 
L 363.924236 75.171319 
L 363.981143 72.878969 
L 364.02389 70.586618 
L 364.056319 68.294267 
L 364.081993 66.001917 
L 364.10394 63.709566 
L 364.626443 63.709566 
L 364.626443 63.709566 
L 364.648389 66.001917 
L 364.674064 68.294267 
L 364.706492 70.586618 
L 364.749239 72.878969 
L 364.806146 75.171319 
L 364.880998 77.46367 
L 364.977162 79.756021 
L 365.09723 82.048372 
L 365.242716 84.340722 
L 365.413847 86.633073 
L 365.609494 88.925424 
L 365.827268 91.217774 
L 366.063798 93.510125 
L 366.315183 95.802476 
L 366.577581 98.094827 
L 366.847873 100.387177 
L 367.124303 102.679528 
L 367.406994 104.971879 
L 367.698234 107.264229 
L 368.002449 109.55658 
L 368.325824 111.848931 
L 368.675602 114.141282 
L 369.059123 116.433632 
L 369.482755 118.725983 
L 369.950868 121.018334 
L 370.465027 123.310684 
L 371.023517 125.603035 
L 371.621309 127.895386 
L 372.250426 130.187737 
L 372.900683 132.480087 
L 373.560637 134.772438 
L 374.218618 137.064789 
L 374.863677 139.357139 
L 375.486337 141.64949 
L 376.079076 143.941841 
L 376.636521 146.234192 
L 377.155399 148.526542 
L 377.634301 150.818893 
L 378.073352 153.111244 
L 378.473856 155.403594 
L 378.83797 157.695945 
L 379.168448 159.988296 
L 379.468448 162.280647 
L 379.741392 164.572997 
L 379.990865 166.865348 
L 380.220526 169.157699 
L 380.434039 171.450049 
L 380.63501 173.7424 
L 380.826941 176.034751 
L 381.013208 178.327102 
L 381.197023 180.619452 
L 381.381379 182.911803 
L 381.568936 185.204154 
L 381.761839 187.496504 
L 381.96149 189.788855 
L 382.16831 192.081206 
L 382.381603 194.373557 
L 382.599589 196.665907 
L 382.819723 198.958258 
L 383.039311 201.250609 
L 383.256404 203.542959 
L 383.470837 205.83531 
L 383.68523 208.127661 
L 383.905732 210.420012 
L 384.14228 212.712362 
L 384.408233 215.004713 
L 384.719343 217.297064 
L 385.092154 219.589414 
L 385.542046 221.881765 
L 386.081222 224.174116 
L 386.717001 226.466467 
L 387.450665 228.758817 
L 388.277088 231.051168 
L 389.185131 233.343519 
L 390.15869 235.635869 
L 391.178097 237.92822 
L 392.22153 240.220571 
L 393.266075 242.512922 
L 394.288211 244.805272 
L 395.263615 247.097623 
L 396.166434 249.389974 
L 396.968306 251.682324 
L 397.637574 253.974675 
L 398.139117 256.267026 
L 398.435166 258.559377 
L 398.487273 260.851727 
L 398.259338 263.144078 
L 397.72139 265.436429 
L 396.853571 267.728779 
L 395.649694 270.02113 
L 394.11978 272.313481 
L 392.29106 274.605832 
L 390.20722 276.898182 
L 387.925897 279.190533 
L 385.51471 281.482884 
L 383.046324 283.775234 
L 380.593153 286.067585 
L 378.222335 288.359936 
L 375.991523 290.652287 
z
" clip-path="url(#pa18eb8cc2b)" style="fill: #1f77b4; fill-opacity: 0.3"/>
   </g>
   <g id="matplotlib.axis_1">
    <g id="xtick_1">
     <g id="line2d_1">
      <path d="M 65.302207 307.584 
L 65.302207 41.472 
" clip-path="url(#pa18eb8cc2b)" style="fill: none; stroke-dasharray: 2.96,1.28; stroke-dashoffset: 0; stroke: #b0b0b0; stroke-width: 0.8"/>
     </g>
     <g id="line2d_2">
      <defs>
       <path id="mb329c8a686" d="M 0 0 
L 0 3.5 
" style="stroke: #000000; stroke-width: 0.8"/>
      </defs>
      <g>
       <use xlink:href="#mb329c8a686" x="65.302207" y="307.584" style="stroke: #000000; stroke-width: 0.8"/>
      </g>
     </g>
     <g id="text_1">
      <!-- 2500 -->
      <g transform="translate(52.577207 322.182437)scale(0.1 -0.1)">
       <defs>
        <path id="DejaVuSans-32" d="M 1228 531 
L 3431 531 
L 3431 0 
L 469 0 
L 469 531 
Q 828 903 1448 1529 
Q 2069 2156 2228 2338 
Q 2531 2678 2651 2914 
Q 2772 3150 2772 3378 
Q 2772 3750 2511 3984 
Q 2250 4219 1831 4219 
Q 1534 4219 1204 4116 
Q 875 4013 500 3803 
L 500 4441 
Q 881 4594 1212 4672 
Q 1544 4750 1819 4750 
Q 2544 4750 2975 4387 
Q 3406 4025 3406 3419 
Q 3406 3131 3298 2873 
Q 3191 2616 2906 2266 
Q 2828 2175 2409 1742 
Q 1991 1309 1228 531 
z
" transform="scale(0.015625)"/>
        <path id="DejaVuSans-35" d="M 691 4666 
L 3169 4666 
L 3169 4134 
L 1269 4134 
L 1269 2991 
Q 1406 3038 1543 3061 
Q 1681 3084 1819 3084 
Q 2600 3084 3056 2656 
Q 3513 2228 3513 1497 
Q 3513 744 3044 326 
Q 2575 -91 1722 -91 
Q 1428 -91 1123 -41 
Q 819 9 494 109 
L 494 744 
Q 775 591 1075 516 
Q 1375 441 1709 441 
Q 2250 441 2565 725 
Q 2881 1009 2881 1497 
Q 2881 1984 2565 2268 
Q 2250 2553 1709 2553 
Q 1456 2553 1204 2497 
Q 953 2441 691 2322 
L 691 4666 
z
" transform="scale(0.015625)"/>
        <path id="DejaVuSans-30" d="M 2034 4250 
Q 1547 4250 1301 3770 
Q 1056 3291 1056 2328 
Q 1056 1369 1301 889 
Q 1547 409 2034 409 
Q 2525 409 2770 889 
Q 3016 1369 3016 2328 
Q 3016 3291 2770 3770 
Q 2525 4250 2034 4250 
z
M 2034 4750 
Q 2819 4750 3233 4129 
Q 3647 3509 3647 2328 
Q 3647 1150 3233 529 
Q 2819 -91 2034 -91 
Q 1250 -91 836 529 
Q 422 1150 422 2328 
Q 422 3509 836 4129 
Q 1250 4750 2034 4750 
z
" transform="scale(0.015625)"/>
       </defs>
       <use xlink:href="#DejaVuSans-32"/>
       <use xlink:href="#DejaVuSans-35" x="63.623047"/>
       <use xlink:href="#DejaVuSans-30" x="127.246094"/>
       <use xlink:href="#DejaVuSans-30" x="190.869141"/>
      </g>
     </g>
    </g>
    <g id="xtick_2">
     <g id="line2d_3">
      <path d="M 107.954809 307.584 
L 107.954809 41.472 
" clip-path="url(#pa18eb8cc2b)" style="fill: none; stroke-dasharray: 2.96,1.28; stroke-dashoffset: 0; stroke: #b0b0b0; stroke-width: 0.8"/>
     </g>
     <g id="line2d_4">
      <g>
       <use xlink:href="#mb329c8a686" x="107.954809" y="307.584" style="stroke: #000000; stroke-width: 0.8"/>
      </g>
     </g>
     <g id="text_2">
      <!-- 5000 -->
      <g transform="translate(95.229809 322.182437)scale(0.1 -0.1)">
       <use xlink:href="#DejaVuSans-35"/>
       <use xlink:href="#DejaVuSans-30" x="63.623047"/>
       <use xlink:href="#DejaVuSans-30" x="127.246094"/>
       <use xlink:href="#DejaVuSans-30" x="190.869141"/>
      </g>
     </g>
    </g>
    <g id="xtick_3">
     <g id="line2d_5">
      <path d="M 150.607411 307.584 
L 150.607411 41.472 
" clip-path="url(#pa18eb8cc2b)" style="fill: none; stroke-dasharray: 2.96,1.28; stroke-dashoffset: 0; stroke: #b0b0b0; stroke-width: 0.8"/>
     </g>
     <g id="line2d_6">
      <g>
       <use xlink:href="#mb329c8a686" x="150.607411" y="307.584" style="stroke: #000000; stroke-width: 0.8"/>
      </g>
     </g>
     <g id="text_3">
      <!-- 7500 -->
      <g transform="translate(137.882411 322.182437)scale(0.1 -0.1)">
       <defs>
        <path id="DejaVuSans-37" d="M 525 4666 
L 3525 4666 
L 3525 4397 
L 1831 0 
L 1172 0 
L 2766 4134 
L 525 4134 
L 525 4666 
z
" transform="scale(0.015625)"/>
       </defs>
       <use xlink:href="#DejaVuSans-37"/>
       <use xlink:href="#DejaVuSans-35" x="63.623047"/>
       <use xlink:href="#DejaVuSans-30" x="127.246094"/>
       <use xlink:href="#DejaVuSans-30" x="190.869141"/>
      </g>
     </g>
    </g>
    <g id="xtick_4">
     <g id="line2d_7">
      <path d="M 193.260013 307.584 
L 193.260013 41.472 
" clip-path="url(#pa18eb8cc2b)" style="fill: none; stroke-dasharray: 2.96,1.28; stroke-dashoffset: 0; stroke: #b0b0b0; stroke-width: 0.8"/>
     </g>
     <g id="line2d_8">
      <g>
       <use xlink:href="#mb329c8a686" x="193.260013" y="307.584" style="stroke: #000000; stroke-width: 0.8"/>
      </g>
     </g>
     <g id="text_4">
      <!-- 10000 -->
      <g transform="translate(177.353763 322.182437)scale(0.1 -0.1)">
       <defs>
        <path id="DejaVuSans-31" d="M 794 531 
L 1825 531 
L 1825 4091 
L 703 3866 
L 703 4441 
L 1819 4666 
L 2450 4666 
L 2450 531 
L 3481 531 
L 3481 0 
L 794 0 
L 794 531 
z
" transform="scale(0.015625)"/>
       </defs>
       <use xlink:href="#DejaVuSans-31"/>
       <use xlink:href="#DejaVuSans-30" x="63.623047"/>
       <use xlink:href="#DejaVuSans-30" x="127.246094"/>
       <use xlink:href="#DejaVuSans-30" x="190.869141"/>
       <use xlink:href="#DejaVuSans-30" x="254.492188"/>
      </g>
     </g>
    </g>
    <g id="xtick_5">
     <g id="line2d_9">
      <path d="M 235.912615 307.584 
L 235.912615 41.472 
" clip-path="url(#pa18eb8cc2b)" style="fill: none; stroke-dasharray: 2.96,1.28; stroke-dashoffset: 0; stroke: #b0b0b0; stroke-width: 0.8"/>
     </g>
     <g id="line2d_10">
      <g>
       <use xlink:href="#mb329c8a686" x="235.912615" y="307.584" style="stroke: #000000; stroke-width: 0.8"/>
      </g>
     </g>
     <g id="text_5">
      <!-- 12500 -->
      <g transform="translate(220.006365 322.182437)scale(0.1 -0.1)">
       <use xlink:href="#DejaVuSans-31"/>
       <use xlink:href="#DejaVuSans-32" x="63.623047"/>
       <use xlink:href="#DejaVuSans-35" x="127.246094"/>
       <use xlink:href="#DejaVuSans-30" x="190.869141"/>
       <use xlink:href="#DejaVuSans-30" x="254.492188"/>
      </g>
     </g>
    </g>
    <g id="xtick_6">
     <g id="line2d_11">
      <path d="M 278.565217 307.584 
L 278.565217 41.472 
" clip-path="url(#pa18eb8cc2b)" style="fill: none; stroke-dasharray: 2.96,1.28; stroke-dashoffset: 0; stroke: #b0b0b0; stroke-width: 0.8"/>
     </g>
     <g id="line2d_12">
      <g>
       <use xlink:href="#mb329c8a686" x="278.565217" y="307.584" style="stroke: #000000; stroke-width: 0.8"/>
      </g>
     </g>
     <g id="text_6">
      <!-- 15000 -->
      <g transform="translate(262.658967 322.182437)scale(0.1 -0.1)">
       <use xlink:href="#DejaVuSans-31"/>
       <use xlink:href="#DejaVuSans-35" x="63.623047"/>
       <use xlink:href="#DejaVuSans-30" x="127.246094"/>
       <use xlink:href="#DejaVuSans-30" x="190.869141"/>
       <use xlink:href="#DejaVuSans-30" x="254.492188"/>
      </g>
     </g>
    </g>
    <g id="xtick_7">
     <g id="line2d_13">
      <path d="M 321.217819 307.584 
L 321.217819 41.472 
" clip-path="url(#pa18eb8cc2b)" style="fill: none; stroke-dasharray: 2.96,1.28; stroke-dashoffset: 0; stroke: #b0b0b0; stroke-width: 0.8"/>
     </g>
     <g id="line2d_14">
      <g>
       <use xlink:href="#mb329c8a686" x="321.217819" y="307.584" style="stroke: #000000; stroke-width: 0.8"/>
      </g>
     </g>
     <g id="text_7">
      <!-- 17500 -->
      <g transform="translate(305.311569 322.182437)scale(0.1 -0.1)">
       <use xlink:href="#DejaVuSans-31"/>
       <use xlink:href="#DejaVuSans-37" x="63.623047"/>
       <use xlink:href="#DejaVuSans-35" x="127.246094"/>
       <use xlink:href="#DejaVuSans-30" x="190.869141"/>
       <use xlink:href="#DejaVuSans-30" x="254.492188"/>
      </g>
     </g>
    </g>
    <g id="xtick_8">
     <g id="line2d_15">
      <path d="M 363.870421 307.584 
L 363.870421 41.472 
" clip-path="url(#pa18eb8cc2b)" style="fill: none; stroke-dasharray: 2.96,1.28; stroke-dashoffset: 0; stroke: #b0b0b0; stroke-width: 0.8"/>
     </g>
     <g id="line2d_16">
      <g>
       <use xlink:href="#mb329c8a686" x="363.870421" y="307.584" style="stroke: #000000; stroke-width: 0.8"/>
      </g>
     </g>
     <g id="text_8">
      <!-- 20000 -->
      <g transform="translate(347.964171 322.182437)scale(0.1 -0.1)">
       <use xlink:href="#DejaVuSans-32"/>
       <use xlink:href="#DejaVuSans-30" x="63.623047"/>
       <use xlink:href="#DejaVuSans-30" x="127.246094"/>
       <use xlink:href="#DejaVuSans-30" x="190.869141"/>
       <use xlink:href="#DejaVuSans-30" x="254.492188"/>
      </g>
     </g>
    </g>
    <g id="xtick_9">
     <g id="line2d_17">
      <path d="M 406.523023 307.584 
L 406.523023 41.472 
" clip-path="url(#pa18eb8cc2b)" style="fill: none; stroke-dasharray: 2.96,1.28; stroke-dashoffset: 0; stroke: #b0b0b0; stroke-width: 0.8"/>
     </g>
     <g id="line2d_18">
      <g>
       <use xlink:href="#mb329c8a686" x="406.523023" y="307.584" style="stroke: #000000; stroke-width: 0.8"/>
      </g>
     </g>
     <g id="text_9">
      <!-- 22500 -->
      <g transform="translate(390.616773 322.182437)scale(0.1 -0.1)">
       <use xlink:href="#DejaVuSans-32"/>
       <use xlink:href="#DejaVuSans-32" x="63.623047"/>
       <use xlink:href="#DejaVuSans-35" x="127.246094"/>
       <use xlink:href="#DejaVuSans-30" x="190.869141"/>
       <use xlink:href="#DejaVuSans-30" x="254.492188"/>
      </g>
     </g>
    </g>
    <g id="text_10">
     <!-- Learned Episodes -->
     <g transform="translate(192.102187 335.860562)scale(0.1 -0.1)">
      <defs>
       <path id="DejaVuSans-4c" d="M 628 4666 
L 1259 4666 
L 1259 531 
L 3531 531 
L 3531 0 
L 628 0 
L 628 4666 
z
" transform="scale(0.015625)"/>
       <path id="DejaVuSans-65" d="M 3597 1894 
L 3597 1613 
L 953 1613 
Q 991 1019 1311 708 
Q 1631 397 2203 397 
Q 2534 397 2845 478 
Q 3156 559 3463 722 
L 3463 178 
Q 3153 47 2828 -22 
Q 2503 -91 2169 -91 
Q 1331 -91 842 396 
Q 353 884 353 1716 
Q 353 2575 817 3079 
Q 1281 3584 2069 3584 
Q 2775 3584 3186 3129 
Q 3597 2675 3597 1894 
z
M 3022 2063 
Q 3016 2534 2758 2815 
Q 2500 3097 2075 3097 
Q 1594 3097 1305 2825 
Q 1016 2553 972 2059 
L 3022 2063 
z
" transform="scale(0.015625)"/>
       <path id="DejaVuSans-61" d="M 2194 1759 
Q 1497 1759 1228 1600 
Q 959 1441 959 1056 
Q 959 750 1161 570 
Q 1363 391 1709 391 
Q 2188 391 2477 730 
Q 2766 1069 2766 1631 
L 2766 1759 
L 2194 1759 
z
M 3341 1997 
L 3341 0 
L 2766 0 
L 2766 531 
Q 2569 213 2275 61 
Q 1981 -91 1556 -91 
Q 1019 -91 701 211 
Q 384 513 384 1019 
Q 384 1609 779 1909 
Q 1175 2209 1959 2209 
L 2766 2209 
L 2766 2266 
Q 2766 2663 2505 2880 
Q 2244 3097 1772 3097 
Q 1472 3097 1187 3025 
Q 903 2953 641 2809 
L 641 3341 
Q 956 3463 1253 3523 
Q 1550 3584 1831 3584 
Q 2591 3584 2966 3190 
Q 3341 2797 3341 1997 
z
" transform="scale(0.015625)"/>
       <path id="DejaVuSans-72" d="M 2631 2963 
Q 2534 3019 2420 3045 
Q 2306 3072 2169 3072 
Q 1681 3072 1420 2755 
Q 1159 2438 1159 1844 
L 1159 0 
L 581 0 
L 581 3500 
L 1159 3500 
L 1159 2956 
Q 1341 3275 1631 3429 
Q 1922 3584 2338 3584 
Q 2397 3584 2469 3576 
Q 2541 3569 2628 3553 
L 2631 2963 
z
" transform="scale(0.015625)"/>
       <path id="DejaVuSans-6e" d="M 3513 2113 
L 3513 0 
L 2938 0 
L 2938 2094 
Q 2938 2591 2744 2837 
Q 2550 3084 2163 3084 
Q 1697 3084 1428 2787 
Q 1159 2491 1159 1978 
L 1159 0 
L 581 0 
L 581 3500 
L 1159 3500 
L 1159 2956 
Q 1366 3272 1645 3428 
Q 1925 3584 2291 3584 
Q 2894 3584 3203 3211 
Q 3513 2838 3513 2113 
z
" transform="scale(0.015625)"/>
       <path id="DejaVuSans-64" d="M 2906 2969 
L 2906 4863 
L 3481 4863 
L 3481 0 
L 2906 0 
L 2906 525 
Q 2725 213 2448 61 
Q 2172 -91 1784 -91 
Q 1150 -91 751 415 
Q 353 922 353 1747 
Q 353 2572 751 3078 
Q 1150 3584 1784 3584 
Q 2172 3584 2448 3432 
Q 2725 3281 2906 2969 
z
M 947 1747 
Q 947 1113 1208 752 
Q 1469 391 1925 391 
Q 2381 391 2643 752 
Q 2906 1113 2906 1747 
Q 2906 2381 2643 2742 
Q 2381 3103 1925 3103 
Q 1469 3103 1208 2742 
Q 947 2381 947 1747 
z
" transform="scale(0.015625)"/>
       <path id="DejaVuSans-20" transform="scale(0.015625)"/>
       <path id="DejaVuSans-45" d="M 628 4666 
L 3578 4666 
L 3578 4134 
L 1259 4134 
L 1259 2753 
L 3481 2753 
L 3481 2222 
L 1259 2222 
L 1259 531 
L 3634 531 
L 3634 0 
L 628 0 
L 628 4666 
z
" transform="scale(0.015625)"/>
       <path id="DejaVuSans-70" d="M 1159 525 
L 1159 -1331 
L 581 -1331 
L 581 3500 
L 1159 3500 
L 1159 2969 
Q 1341 3281 1617 3432 
Q 1894 3584 2278 3584 
Q 2916 3584 3314 3078 
Q 3713 2572 3713 1747 
Q 3713 922 3314 415 
Q 2916 -91 2278 -91 
Q 1894 -91 1617 61 
Q 1341 213 1159 525 
z
M 3116 1747 
Q 3116 2381 2855 2742 
Q 2594 3103 2138 3103 
Q 1681 3103 1420 2742 
Q 1159 2381 1159 1747 
Q 1159 1113 1420 752 
Q 1681 391 2138 391 
Q 2594 391 2855 752 
Q 3116 1113 3116 1747 
z
" transform="scale(0.015625)"/>
       <path id="DejaVuSans-69" d="M 603 3500 
L 1178 3500 
L 1178 0 
L 603 0 
L 603 3500 
z
M 603 4863 
L 1178 4863 
L 1178 4134 
L 603 4134 
L 603 4863 
z
" transform="scale(0.015625)"/>
       <path id="DejaVuSans-73" d="M 2834 3397 
L 2834 2853 
Q 2591 2978 2328 3040 
Q 2066 3103 1784 3103 
Q 1356 3103 1142 2972 
Q 928 2841 928 2578 
Q 928 2378 1081 2264 
Q 1234 2150 1697 2047 
L 1894 2003 
Q 2506 1872 2764 1633 
Q 3022 1394 3022 966 
Q 3022 478 2636 193 
Q 2250 -91 1575 -91 
Q 1294 -91 989 -36 
Q 684 19 347 128 
L 347 722 
Q 666 556 975 473 
Q 1284 391 1588 391 
Q 1994 391 2212 530 
Q 2431 669 2431 922 
Q 2431 1156 2273 1281 
Q 2116 1406 1581 1522 
L 1381 1569 
Q 847 1681 609 1914 
Q 372 2147 372 2553 
Q 372 3047 722 3315 
Q 1072 3584 1716 3584 
Q 2034 3584 2315 3537 
Q 2597 3491 2834 3397 
z
" transform="scale(0.015625)"/>
       <path id="DejaVuSans-6f" d="M 1959 3097 
Q 1497 3097 1228 2736 
Q 959 2375 959 1747 
Q 959 1119 1226 758 
Q 1494 397 1959 397 
Q 2419 397 2687 759 
Q 2956 1122 2956 1747 
Q 2956 2369 2687 2733 
Q 2419 3097 1959 3097 
z
M 1959 3584 
Q 2709 3584 3137 3096 
Q 3566 2609 3566 1747 
Q 3566 888 3137 398 
Q 2709 -91 1959 -91 
Q 1206 -91 779 398 
Q 353 888 353 1747 
Q 353 2609 779 3096 
Q 1206 3584 1959 3584 
z
" transform="scale(0.015625)"/>
      </defs>
      <use xlink:href="#DejaVuSans-4c"/>
      <use xlink:href="#DejaVuSans-65" x="53.962891"/>
      <use xlink:href="#DejaVuSans-61" x="115.486328"/>
      <use xlink:href="#DejaVuSans-72" x="176.765625"/>
      <use xlink:href="#DejaVuSans-6e" x="216.128906"/>
      <use xlink:href="#DejaVuSans-65" x="279.507812"/>
      <use xlink:href="#DejaVuSans-64" x="341.03125"/>
      <use xlink:href="#DejaVuSans-20" x="404.507812"/>
      <use xlink:href="#DejaVuSans-45" x="436.294922"/>
      <use xlink:href="#DejaVuSans-70" x="499.478516"/>
      <use xlink:href="#DejaVuSans-69" x="562.955078"/>
      <use xlink:href="#DejaVuSans-73" x="590.738281"/>
      <use xlink:href="#DejaVuSans-6f" x="642.837891"/>
      <use xlink:href="#DejaVuSans-64" x="704.019531"/>
      <use xlink:href="#DejaVuSans-65" x="767.496094"/>
      <use xlink:href="#DejaVuSans-73" x="829.019531"/>
     </g>
    </g>
   </g>
   <g id="matplotlib.axis_2">
    <g id="ytick_1">
     <g id="line2d_19">
      <path d="M 57.6 301.801293 
L 414.72 301.801293 
" clip-path="url(#pa18eb8cc2b)" style="fill: none; stroke-dasharray: 2.96,1.28; stroke-dashoffset: 0; stroke: #b0b0b0; stroke-width: 0.8"/>
     </g>
     <g id="line2d_20">
      <defs>
       <path id="md929ab02fc" d="M 0 0 
L -3.5 0 
" style="stroke: #000000; stroke-width: 0.8"/>
      </defs>
      <g>
       <use xlink:href="#md929ab02fc" x="57.6" y="301.801293" style="stroke: #000000; stroke-width: 0.8"/>
      </g>
     </g>
     <g id="text_11">
      <!-- 0 -->
      <g transform="translate(44.2375 305.600511)scale(0.1 -0.1)">
       <use xlink:href="#DejaVuSans-30"/>
      </g>
     </g>
    </g>
    <g id="ytick_2">
     <g id="line2d_21">
      <path d="M 57.6 268.219949 
L 414.72 268.219949 
" clip-path="url(#pa18eb8cc2b)" style="fill: none; stroke-dasharray: 2.96,1.28; stroke-dashoffset: 0; stroke: #b0b0b0; stroke-width: 0.8"/>
     </g>
     <g id="line2d_22">
      <g>
       <use xlink:href="#md929ab02fc" x="57.6" y="268.219949" style="stroke: #000000; stroke-width: 0.8"/>
      </g>
     </g>
     <g id="text_12">
      <!-- 10 -->
      <g transform="translate(37.875 272.019168)scale(0.1 -0.1)">
       <use xlink:href="#DejaVuSans-31"/>
       <use xlink:href="#DejaVuSans-30" x="63.623047"/>
      </g>
     </g>
    </g>
    <g id="ytick_3">
     <g id="line2d_23">
      <path d="M 57.6 234.638605 
L 414.72 234.638605 
" clip-path="url(#pa18eb8cc2b)" style="fill: none; stroke-dasharray: 2.96,1.28; stroke-dashoffset: 0; stroke: #b0b0b0; stroke-width: 0.8"/>
     </g>
     <g id="line2d_24">
      <g>
       <use xlink:href="#md929ab02fc" x="57.6" y="234.638605" style="stroke: #000000; stroke-width: 0.8"/>
      </g>
     </g>
     <g id="text_13">
      <!-- 20 -->
      <g transform="translate(37.875 238.437824)scale(0.1 -0.1)">
       <use xlink:href="#DejaVuSans-32"/>
       <use xlink:href="#DejaVuSans-30" x="63.623047"/>
      </g>
     </g>
    </g>
    <g id="ytick_4">
     <g id="line2d_25">
      <path d="M 57.6 201.057262 
L 414.72 201.057262 
" clip-path="url(#pa18eb8cc2b)" style="fill: none; stroke-dasharray: 2.96,1.28; stroke-dashoffset: 0; stroke: #b0b0b0; stroke-width: 0.8"/>
     </g>
     <g id="line2d_26">
      <g>
       <use xlink:href="#md929ab02fc" x="57.6" y="201.057262" style="stroke: #000000; stroke-width: 0.8"/>
      </g>
     </g>
     <g id="text_14">
      <!-- 30 -->
      <g transform="translate(37.875 204.85648)scale(0.1 -0.1)">
       <defs>
        <path id="DejaVuSans-33" d="M 2597 2516 
Q 3050 2419 3304 2112 
Q 3559 1806 3559 1356 
Q 3559 666 3084 287 
Q 2609 -91 1734 -91 
Q 1441 -91 1130 -33 
Q 819 25 488 141 
L 488 750 
Q 750 597 1062 519 
Q 1375 441 1716 441 
Q 2309 441 2620 675 
Q 2931 909 2931 1356 
Q 2931 1769 2642 2001 
Q 2353 2234 1838 2234 
L 1294 2234 
L 1294 2753 
L 1863 2753 
Q 2328 2753 2575 2939 
Q 2822 3125 2822 3475 
Q 2822 3834 2567 4026 
Q 2313 4219 1838 4219 
Q 1578 4219 1281 4162 
Q 984 4106 628 3988 
L 628 4550 
Q 988 4650 1302 4700 
Q 1616 4750 1894 4750 
Q 2613 4750 3031 4423 
Q 3450 4097 3450 3541 
Q 3450 3153 3228 2886 
Q 3006 2619 2597 2516 
z
" transform="scale(0.015625)"/>
       </defs>
       <use xlink:href="#DejaVuSans-33"/>
       <use xlink:href="#DejaVuSans-30" x="63.623047"/>
      </g>
     </g>
    </g>
    <g id="ytick_5">
     <g id="line2d_27">
      <path d="M 57.6 167.475918 
L 414.72 167.475918 
" clip-path="url(#pa18eb8cc2b)" style="fill: none; stroke-dasharray: 2.96,1.28; stroke-dashoffset: 0; stroke: #b0b0b0; stroke-width: 0.8"/>
     </g>
     <g id="line2d_28">
      <g>
       <use xlink:href="#md929ab02fc" x="57.6" y="167.475918" style="stroke: #000000; stroke-width: 0.8"/>
      </g>
     </g>
     <g id="text_15">
      <!-- 40 -->
      <g transform="translate(37.875 171.275137)scale(0.1 -0.1)">
       <defs>
        <path id="DejaVuSans-34" d="M 2419 4116 
L 825 1625 
L 2419 1625 
L 2419 4116 
z
M 2253 4666 
L 3047 4666 
L 3047 1625 
L 3713 1625 
L 3713 1100 
L 3047 1100 
L 3047 0 
L 2419 0 
L 2419 1100 
L 313 1100 
L 313 1709 
L 2253 4666 
z
" transform="scale(0.015625)"/>
       </defs>
       <use xlink:href="#DejaVuSans-34"/>
       <use xlink:href="#DejaVuSans-30" x="63.623047"/>
      </g>
     </g>
    </g>
    <g id="ytick_6">
     <g id="line2d_29">
      <path d="M 57.6 133.894574 
L 414.72 133.894574 
" clip-path="url(#pa18eb8cc2b)" style="fill: none; stroke-dasharray: 2.96,1.28; stroke-dashoffset: 0; stroke: #b0b0b0; stroke-width: 0.8"/>
     </g>
     <g id="line2d_30">
      <g>
       <use xlink:href="#md929ab02fc" x="57.6" y="133.894574" style="stroke: #000000; stroke-width: 0.8"/>
      </g>
     </g>
     <g id="text_16">
      <!-- 50 -->
      <g transform="translate(37.875 137.693793)scale(0.1 -0.1)">
       <use xlink:href="#DejaVuSans-35"/>
       <use xlink:href="#DejaVuSans-30" x="63.623047"/>
      </g>
     </g>
    </g>
    <g id="ytick_7">
     <g id="line2d_31">
      <path d="M 57.6 100.31323 
L 414.72 100.31323 
" clip-path="url(#pa18eb8cc2b)" style="fill: none; stroke-dasharray: 2.96,1.28; stroke-dashoffset: 0; stroke: #b0b0b0; stroke-width: 0.8"/>
     </g>
     <g id="line2d_32">
      <g>
       <use xlink:href="#md929ab02fc" x="57.6" y="100.31323" style="stroke: #000000; stroke-width: 0.8"/>
      </g>
     </g>
     <g id="text_17">
      <!-- 60 -->
      <g transform="translate(37.875 104.112449)scale(0.1 -0.1)">
       <defs>
        <path id="DejaVuSans-36" d="M 2113 2584 
Q 1688 2584 1439 2293 
Q 1191 2003 1191 1497 
Q 1191 994 1439 701 
Q 1688 409 2113 409 
Q 2538 409 2786 701 
Q 3034 994 3034 1497 
Q 3034 2003 2786 2293 
Q 2538 2584 2113 2584 
z
M 3366 4563 
L 3366 3988 
Q 3128 4100 2886 4159 
Q 2644 4219 2406 4219 
Q 1781 4219 1451 3797 
Q 1122 3375 1075 2522 
Q 1259 2794 1537 2939 
Q 1816 3084 2150 3084 
Q 2853 3084 3261 2657 
Q 3669 2231 3669 1497 
Q 3669 778 3244 343 
Q 2819 -91 2113 -91 
Q 1303 -91 875 529 
Q 447 1150 447 2328 
Q 447 3434 972 4092 
Q 1497 4750 2381 4750 
Q 2619 4750 2861 4703 
Q 3103 4656 3366 4563 
z
" transform="scale(0.015625)"/>
       </defs>
       <use xlink:href="#DejaVuSans-36"/>
       <use xlink:href="#DejaVuSans-30" x="63.623047"/>
      </g>
     </g>
    </g>
    <g id="ytick_8">
     <g id="line2d_33">
      <path d="M 57.6 66.731887 
L 414.72 66.731887 
" clip-path="url(#pa18eb8cc2b)" style="fill: none; stroke-dasharray: 2.96,1.28; stroke-dashoffset: 0; stroke: #b0b0b0; stroke-width: 0.8"/>
     </g>
     <g id="line2d_34">
      <g>
       <use xlink:href="#md929ab02fc" x="57.6" y="66.731887" style="stroke: #000000; stroke-width: 0.8"/>
      </g>
     </g>
     <g id="text_18">
      <!-- 70 -->
      <g transform="translate(37.875 70.531105)scale(0.1 -0.1)">
       <use xlink:href="#DejaVuSans-37"/>
       <use xlink:href="#DejaVuSans-30" x="63.623047"/>
      </g>
     </g>
    </g>
    <g id="text_19">
     <!-- Reward Density -->
     <g transform="translate(31.795312 213.74675)rotate(-90)scale(0.1 -0.1)">
      <defs>
       <path id="DejaVuSans-52" d="M 2841 2188 
Q 3044 2119 3236 1894 
Q 3428 1669 3622 1275 
L 4263 0 
L 3584 0 
L 2988 1197 
Q 2756 1666 2539 1819 
Q 2322 1972 1947 1972 
L 1259 1972 
L 1259 0 
L 628 0 
L 628 4666 
L 2053 4666 
Q 2853 4666 3247 4331 
Q 3641 3997 3641 3322 
Q 3641 2881 3436 2590 
Q 3231 2300 2841 2188 
z
M 1259 4147 
L 1259 2491 
L 2053 2491 
Q 2509 2491 2742 2702 
Q 2975 2913 2975 3322 
Q 2975 3731 2742 3939 
Q 2509 4147 2053 4147 
L 1259 4147 
z
" transform="scale(0.015625)"/>
       <path id="DejaVuSans-77" d="M 269 3500 
L 844 3500 
L 1563 769 
L 2278 3500 
L 2956 3500 
L 3675 769 
L 4391 3500 
L 4966 3500 
L 4050 0 
L 3372 0 
L 2619 2869 
L 1863 0 
L 1184 0 
L 269 3500 
z
" transform="scale(0.015625)"/>
       <path id="DejaVuSans-44" d="M 1259 4147 
L 1259 519 
L 2022 519 
Q 2988 519 3436 956 
Q 3884 1394 3884 2338 
Q 3884 3275 3436 3711 
Q 2988 4147 2022 4147 
L 1259 4147 
z
M 628 4666 
L 1925 4666 
Q 3281 4666 3915 4102 
Q 4550 3538 4550 2338 
Q 4550 1131 3912 565 
Q 3275 0 1925 0 
L 628 0 
L 628 4666 
z
" transform="scale(0.015625)"/>
       <path id="DejaVuSans-74" d="M 1172 4494 
L 1172 3500 
L 2356 3500 
L 2356 3053 
L 1172 3053 
L 1172 1153 
Q 1172 725 1289 603 
Q 1406 481 1766 481 
L 2356 481 
L 2356 0 
L 1766 0 
Q 1100 0 847 248 
Q 594 497 594 1153 
L 594 3053 
L 172 3053 
L 172 3500 
L 594 3500 
L 594 4494 
L 1172 4494 
z
" transform="scale(0.015625)"/>
       <path id="DejaVuSans-79" d="M 2059 -325 
Q 1816 -950 1584 -1140 
Q 1353 -1331 966 -1331 
L 506 -1331 
L 506 -850 
L 844 -850 
Q 1081 -850 1212 -737 
Q 1344 -625 1503 -206 
L 1606 56 
L 191 3500 
L 800 3500 
L 1894 763 
L 2988 3500 
L 3597 3500 
L 2059 -325 
z
" transform="scale(0.015625)"/>
      </defs>
      <use xlink:href="#DejaVuSans-52"/>
      <use xlink:href="#DejaVuSans-65" x="64.982422"/>
      <use xlink:href="#DejaVuSans-77" x="126.505859"/>
      <use xlink:href="#DejaVuSans-61" x="208.292969"/>
      <use xlink:href="#DejaVuSans-72" x="269.572266"/>
      <use xlink:href="#DejaVuSans-64" x="308.935547"/>
      <use xlink:href="#DejaVuSans-20" x="372.412109"/>
      <use xlink:href="#DejaVuSans-44" x="404.199219"/>
      <use xlink:href="#DejaVuSans-65" x="481.201172"/>
      <use xlink:href="#DejaVuSans-6e" x="542.724609"/>
      <use xlink:href="#DejaVuSans-73" x="606.103516"/>
      <use xlink:href="#DejaVuSans-69" x="658.203125"/>
      <use xlink:href="#DejaVuSans-74" x="685.986328"/>
      <use xlink:href="#DejaVuSans-79" x="725.195312"/>
     </g>
    </g>
   </g>
   <g id="LineCollection_1">
    <path d="M 90.893768 221.707907 
L 125.01585 221.707907 
" clip-path="url(#pa18eb8cc2b)" style="fill: none; stroke: #1f77b4; stroke-width: 1.5"/>
    <path d="M 176.198972 217.077443 
L 210.321054 217.077443 
" clip-path="url(#pa18eb8cc2b)" style="fill: none; stroke: #1f77b4; stroke-width: 1.5"/>
    <path d="M 261.504176 220.805106 
L 295.626258 220.805106 
" clip-path="url(#pa18eb8cc2b)" style="fill: none; stroke: #1f77b4; stroke-width: 1.5"/>
    <path d="M 346.80938 223.935291 
L 380.931462 223.935291 
" clip-path="url(#pa18eb8cc2b)" style="fill: none; stroke: #1f77b4; stroke-width: 1.5"/>
    <path d="M 347.30415 219.639431 
L 381.426232 219.639431 
" clip-path="url(#pa18eb8cc2b)" style="fill: none; stroke: #1f77b4; stroke-width: 1.5"/>
   </g>
   <g id="LineCollection_2">
    <path d="M 90.893768 65.590121 
L 125.01585 65.590121 
" clip-path="url(#pa18eb8cc2b)" style="fill: none; stroke: #1f77b4; stroke-width: 1.5"/>
    <path d="M 176.198972 73.515318 
L 210.321054 73.515318 
" clip-path="url(#pa18eb8cc2b)" style="fill: none; stroke: #1f77b4; stroke-width: 1.5"/>
    <path d="M 261.504176 86.343391 
L 295.626258 86.343391 
" clip-path="url(#pa18eb8cc2b)" style="fill: none; stroke: #1f77b4; stroke-width: 1.5"/>
    <path d="M 346.80938 53.568 
L 380.931462 53.568 
" clip-path="url(#pa18eb8cc2b)" style="fill: none; stroke: #1f77b4; stroke-width: 1.5"/>
    <path d="M 347.30415 63.709566 
L 381.426232 63.709566 
" clip-path="url(#pa18eb8cc2b)" style="fill: none; stroke: #1f77b4; stroke-width: 1.5"/>
   </g>
   <g id="LineCollection_3">
    <path d="M 90.893768 295.488 
L 125.01585 295.488 
" clip-path="url(#pa18eb8cc2b)" style="fill: none; stroke: #1f77b4; stroke-width: 1.5"/>
    <path d="M 176.198972 292.264191 
L 210.321054 292.264191 
" clip-path="url(#pa18eb8cc2b)" style="fill: none; stroke: #1f77b4; stroke-width: 1.5"/>
    <path d="M 261.504176 290.652287 
L 295.626258 290.652287 
" clip-path="url(#pa18eb8cc2b)" style="fill: none; stroke: #1f77b4; stroke-width: 1.5"/>
    <path d="M 346.80938 290.853775 
L 380.931462 290.853775 
" clip-path="url(#pa18eb8cc2b)" style="fill: none; stroke: #1f77b4; stroke-width: 1.5"/>
    <path d="M 347.30415 290.652287 
L 381.426232 290.652287 
" clip-path="url(#pa18eb8cc2b)" style="fill: none; stroke: #1f77b4; stroke-width: 1.5"/>
   </g>
   <g id="LineCollection_4">
    <path d="M 107.954809 295.488 
L 107.954809 65.590121 
" clip-path="url(#pa18eb8cc2b)" style="fill: none; stroke: #1f77b4; stroke-width: 1.5"/>
    <path d="M 193.260013 292.264191 
L 193.260013 73.515318 
" clip-path="url(#pa18eb8cc2b)" style="fill: none; stroke: #1f77b4; stroke-width: 1.5"/>
    <path d="M 278.565217 290.652287 
L 278.565217 86.343391 
" clip-path="url(#pa18eb8cc2b)" style="fill: none; stroke: #1f77b4; stroke-width: 1.5"/>
    <path d="M 363.870421 290.853775 
L 363.870421 53.568 
" clip-path="url(#pa18eb8cc2b)" style="fill: none; stroke: #1f77b4; stroke-width: 1.5"/>
    <path d="M 364.365191 290.652287 
L 364.365191 63.709566 
" clip-path="url(#pa18eb8cc2b)" style="fill: none; stroke: #1f77b4; stroke-width: 1.5"/>
   </g>
   <g id="line2d_35">
    <path d="M 107.954809 221.707907 
L 193.260013 217.077443 
L 278.565217 220.805106 
L 363.870421 223.935291 
L 364.365191 219.639431 
" clip-path="url(#pa18eb8cc2b)" style="fill: none; stroke: #4682b4; stroke-width: 1.5; stroke-linecap: square"/>
   </g>
   <g id="line2d_36">
    <path d="M 107.954809 221.707907 
L 193.260013 217.077443 
L 278.565217 220.805106 
L 363.870421 223.935291 
L 364.365191 219.639431 
" clip-path="url(#pa18eb8cc2b)" style="fill: none; stroke: #4682b4; stroke-width: 1.5; stroke-linecap: square"/>
   </g>
   <g id="patch_3">
    <path d="M 57.6 307.584 
L 57.6 41.472 
" style="fill: none; stroke: #000000; stroke-width: 0.8; stroke-linejoin: miter; stroke-linecap: square"/>
   </g>
   <g id="patch_4">
    <path d="M 414.72 307.584 
L 414.72 41.472 
" style="fill: none; stroke: #000000; stroke-width: 0.8; stroke-linejoin: miter; stroke-linecap: square"/>
   </g>
   <g id="patch_5">
    <path d="M 57.6 307.584 
L 414.72 307.584 
" style="fill: none; stroke: #000000; stroke-width: 0.8; stroke-linejoin: miter; stroke-linecap: square"/>
   </g>
   <g id="patch_6">
    <path d="M 57.6 41.472 
L 414.72 41.472 
" style="fill: none; stroke: #000000; stroke-width: 0.8; stroke-linejoin: miter; stroke-linecap: square"/>
   </g>
   <g id="text_20">
    <!-- Violinplot for progress of state/in_storage -->
    <g transform="translate(112.1775 35.472)scale(0.12 -0.12)">
     <defs>
      <path id="DejaVuSans-56" d="M 1831 0 
L 50 4666 
L 709 4666 
L 2188 738 
L 3669 4666 
L 4325 4666 
L 2547 0 
L 1831 0 
z
" transform="scale(0.015625)"/>
      <path id="DejaVuSans-6c" d="M 603 4863 
L 1178 4863 
L 1178 0 
L 603 0 
L 603 4863 
z
" transform="scale(0.015625)"/>
      <path id="DejaVuSans-66" d="M 2375 4863 
L 2375 4384 
L 1825 4384 
Q 1516 4384 1395 4259 
Q 1275 4134 1275 3809 
L 1275 3500 
L 2222 3500 
L 2222 3053 
L 1275 3053 
L 1275 0 
L 697 0 
L 697 3053 
L 147 3053 
L 147 3500 
L 697 3500 
L 697 3744 
Q 697 4328 969 4595 
Q 1241 4863 1831 4863 
L 2375 4863 
z
" transform="scale(0.015625)"/>
      <path id="DejaVuSans-67" d="M 2906 1791 
Q 2906 2416 2648 2759 
Q 2391 3103 1925 3103 
Q 1463 3103 1205 2759 
Q 947 2416 947 1791 
Q 947 1169 1205 825 
Q 1463 481 1925 481 
Q 2391 481 2648 825 
Q 2906 1169 2906 1791 
z
M 3481 434 
Q 3481 -459 3084 -895 
Q 2688 -1331 1869 -1331 
Q 1566 -1331 1297 -1286 
Q 1028 -1241 775 -1147 
L 775 -588 
Q 1028 -725 1275 -790 
Q 1522 -856 1778 -856 
Q 2344 -856 2625 -561 
Q 2906 -266 2906 331 
L 2906 616 
Q 2728 306 2450 153 
Q 2172 0 1784 0 
Q 1141 0 747 490 
Q 353 981 353 1791 
Q 353 2603 747 3093 
Q 1141 3584 1784 3584 
Q 2172 3584 2450 3431 
Q 2728 3278 2906 2969 
L 2906 3500 
L 3481 3500 
L 3481 434 
z
" transform="scale(0.015625)"/>
      <path id="DejaVuSans-2f" d="M 1625 4666 
L 2156 4666 
L 531 -594 
L 0 -594 
L 1625 4666 
z
" transform="scale(0.015625)"/>
      <path id="DejaVuSans-5f" d="M 3263 -1063 
L 3263 -1509 
L -63 -1509 
L -63 -1063 
L 3263 -1063 
z
" transform="scale(0.015625)"/>
     </defs>
     <use xlink:href="#DejaVuSans-56"/>
     <use xlink:href="#DejaVuSans-69" x="66.158203"/>
     <use xlink:href="#DejaVuSans-6f" x="93.941406"/>
     <use xlink:href="#DejaVuSans-6c" x="155.123047"/>
     <use xlink:href="#DejaVuSans-69" x="182.90625"/>
     <use xlink:href="#DejaVuSans-6e" x="210.689453"/>
     <use xlink:href="#DejaVuSans-70" x="274.068359"/>
     <use xlink:href="#DejaVuSans-6c" x="337.544922"/>
     <use xlink:href="#DejaVuSans-6f" x="365.328125"/>
     <use xlink:href="#DejaVuSans-74" x="426.509766"/>
     <use xlink:href="#DejaVuSans-20" x="465.71875"/>
     <use xlink:href="#DejaVuSans-66" x="497.505859"/>
     <use xlink:href="#DejaVuSans-6f" x="532.710938"/>
     <use xlink:href="#DejaVuSans-72" x="593.892578"/>
     <use xlink:href="#DejaVuSans-20" x="635.005859"/>
     <use xlink:href="#DejaVuSans-70" x="666.792969"/>
     <use xlink:href="#DejaVuSans-72" x="730.269531"/>
     <use xlink:href="#DejaVuSans-6f" x="769.132812"/>
     <use xlink:href="#DejaVuSans-67" x="830.314453"/>
     <use xlink:href="#DejaVuSans-72" x="893.791016"/>
     <use xlink:href="#DejaVuSans-65" x="932.654297"/>
     <use xlink:href="#DejaVuSans-73" x="994.177734"/>
     <use xlink:href="#DejaVuSans-73" x="1046.277344"/>
     <use xlink:href="#DejaVuSans-20" x="1098.376953"/>
     <use xlink:href="#DejaVuSans-6f" x="1130.164062"/>
     <use xlink:href="#DejaVuSans-66" x="1191.345703"/>
     <use xlink:href="#DejaVuSans-20" x="1226.550781"/>
     <use xlink:href="#DejaVuSans-73" x="1258.337891"/>
     <use xlink:href="#DejaVuSans-74" x="1310.4375"/>
     <use xlink:href="#DejaVuSans-61" x="1349.646484"/>
     <use xlink:href="#DejaVuSans-74" x="1410.925781"/>
     <use xlink:href="#DejaVuSans-65" x="1450.134766"/>
     <use xlink:href="#DejaVuSans-2f" x="1511.658203"/>
     <use xlink:href="#DejaVuSans-69" x="1545.349609"/>
     <use xlink:href="#DejaVuSans-6e" x="1573.132812"/>
     <use xlink:href="#DejaVuSans-5f" x="1636.511719"/>
     <use xlink:href="#DejaVuSans-73" x="1686.511719"/>
     <use xlink:href="#DejaVuSans-74" x="1738.611328"/>
     <use xlink:href="#DejaVuSans-6f" x="1777.820312"/>
     <use xlink:href="#DejaVuSans-72" x="1839.001953"/>
     <use xlink:href="#DejaVuSans-61" x="1880.115234"/>
     <use xlink:href="#DejaVuSans-67" x="1941.394531"/>
     <use xlink:href="#DejaVuSans-65" x="2004.871094"/>
    </g>
   </g>
   <g id="legend_1">
    <g id="patch_7">
     <path d="M 276.504375 64.150125 
L 407.72 64.150125 
Q 409.72 64.150125 409.72 62.150125 
L 409.72 48.472 
Q 409.72 46.472 407.72 46.472 
L 276.504375 46.472 
Q 274.504375 46.472 274.504375 48.472 
L 274.504375 62.150125 
Q 274.504375 64.150125 276.504375 64.150125 
z
" style="fill: #ffffff; opacity: 0.8; stroke: #cccccc; stroke-linejoin: miter"/>
    </g>
    <g id="line2d_37">
     <path d="M 278.504375 54.570438 
L 288.504375 54.570438 
L 298.504375 54.570438 
" style="fill: none; stroke: #4682b4; stroke-width: 1.5; stroke-linecap: square"/>
    </g>
    <g id="text_21">
     <!-- StableBaselinesPPO -->
     <g transform="translate(306.504375 58.070438)scale(0.1 -0.1)">
      <defs>
       <path id="DejaVuSans-53" d="M 3425 4513 
L 3425 3897 
Q 3066 4069 2747 4153 
Q 2428 4238 2131 4238 
Q 1616 4238 1336 4038 
Q 1056 3838 1056 3469 
Q 1056 3159 1242 3001 
Q 1428 2844 1947 2747 
L 2328 2669 
Q 3034 2534 3370 2195 
Q 3706 1856 3706 1288 
Q 3706 609 3251 259 
Q 2797 -91 1919 -91 
Q 1588 -91 1214 -16 
Q 841 59 441 206 
L 441 856 
Q 825 641 1194 531 
Q 1563 422 1919 422 
Q 2459 422 2753 634 
Q 3047 847 3047 1241 
Q 3047 1584 2836 1778 
Q 2625 1972 2144 2069 
L 1759 2144 
Q 1053 2284 737 2584 
Q 422 2884 422 3419 
Q 422 4038 858 4394 
Q 1294 4750 2059 4750 
Q 2388 4750 2728 4690 
Q 3069 4631 3425 4513 
z
" transform="scale(0.015625)"/>
       <path id="DejaVuSans-62" d="M 3116 1747 
Q 3116 2381 2855 2742 
Q 2594 3103 2138 3103 
Q 1681 3103 1420 2742 
Q 1159 2381 1159 1747 
Q 1159 1113 1420 752 
Q 1681 391 2138 391 
Q 2594 391 2855 752 
Q 3116 1113 3116 1747 
z
M 1159 2969 
Q 1341 3281 1617 3432 
Q 1894 3584 2278 3584 
Q 2916 3584 3314 3078 
Q 3713 2572 3713 1747 
Q 3713 922 3314 415 
Q 2916 -91 2278 -91 
Q 1894 -91 1617 61 
Q 1341 213 1159 525 
L 1159 0 
L 581 0 
L 581 4863 
L 1159 4863 
L 1159 2969 
z
" transform="scale(0.015625)"/>
       <path id="DejaVuSans-42" d="M 1259 2228 
L 1259 519 
L 2272 519 
Q 2781 519 3026 730 
Q 3272 941 3272 1375 
Q 3272 1813 3026 2020 
Q 2781 2228 2272 2228 
L 1259 2228 
z
M 1259 4147 
L 1259 2741 
L 2194 2741 
Q 2656 2741 2882 2914 
Q 3109 3088 3109 3444 
Q 3109 3797 2882 3972 
Q 2656 4147 2194 4147 
L 1259 4147 
z
M 628 4666 
L 2241 4666 
Q 2963 4666 3353 4366 
Q 3744 4066 3744 3513 
Q 3744 3084 3544 2831 
Q 3344 2578 2956 2516 
Q 3422 2416 3680 2098 
Q 3938 1781 3938 1306 
Q 3938 681 3513 340 
Q 3088 0 2303 0 
L 628 0 
L 628 4666 
z
" transform="scale(0.015625)"/>
       <path id="DejaVuSans-50" d="M 1259 4147 
L 1259 2394 
L 2053 2394 
Q 2494 2394 2734 2622 
Q 2975 2850 2975 3272 
Q 2975 3691 2734 3919 
Q 2494 4147 2053 4147 
L 1259 4147 
z
M 628 4666 
L 2053 4666 
Q 2838 4666 3239 4311 
Q 3641 3956 3641 3272 
Q 3641 2581 3239 2228 
Q 2838 1875 2053 1875 
L 1259 1875 
L 1259 0 
L 628 0 
L 628 4666 
z
" transform="scale(0.015625)"/>
       <path id="DejaVuSans-4f" d="M 2522 4238 
Q 1834 4238 1429 3725 
Q 1025 3213 1025 2328 
Q 1025 1447 1429 934 
Q 1834 422 2522 422 
Q 3209 422 3611 934 
Q 4013 1447 4013 2328 
Q 4013 3213 3611 3725 
Q 3209 4238 2522 4238 
z
M 2522 4750 
Q 3503 4750 4090 4092 
Q 4678 3434 4678 2328 
Q 4678 1225 4090 567 
Q 3503 -91 2522 -91 
Q 1538 -91 948 565 
Q 359 1222 359 2328 
Q 359 3434 948 4092 
Q 1538 4750 2522 4750 
z
" transform="scale(0.015625)"/>
      </defs>
      <use xlink:href="#DejaVuSans-53"/>
      <use xlink:href="#DejaVuSans-74" x="63.476562"/>
      <use xlink:href="#DejaVuSans-61" x="102.685547"/>
      <use xlink:href="#DejaVuSans-62" x="163.964844"/>
      <use xlink:href="#DejaVuSans-6c" x="227.441406"/>
      <use xlink:href="#DejaVuSans-65" x="255.224609"/>
      <use xlink:href="#DejaVuSans-42" x="316.748047"/>
      <use xlink:href="#DejaVuSans-61" x="385.351562"/>
      <use xlink:href="#DejaVuSans-73" x="446.630859"/>
      <use xlink:href="#DejaVuSans-65" x="498.730469"/>
      <use xlink:href="#DejaVuSans-6c" x="560.253906"/>
      <use xlink:href="#DejaVuSans-69" x="588.037109"/>
      <use xlink:href="#DejaVuSans-6e" x="615.820312"/>
      <use xlink:href="#DejaVuSans-65" x="679.199219"/>
      <use xlink:href="#DejaVuSans-73" x="740.722656"/>
      <use xlink:href="#DejaVuSans-50" x="792.822266"/>
      <use xlink:href="#DejaVuSans-50" x="853.125"/>
      <use xlink:href="#DejaVuSans-4f" x="913.427734"/>
     </g>
    </g>
   </g>
  </g>
 </g>
 <defs>
  <clipPath id="pa18eb8cc2b">
   <rect x="57.6" y="41.472" width="357.12" height="266.112"/>
  </clipPath>
 </defs>
</svg>
