<?xml version="1.0" encoding="utf-8" standalone="no"?>
<!DOCTYPE svg PUBLIC "-//W3C//DTD SVG 1.1//EN"
  "http://www.w3.org/Graphics/SVG/1.1/DTD/svg11.dtd">
<svg xmlns:xlink="http://www.w3.org/1999/xlink" width="460.8pt" height="345.6pt" viewBox="0 0 460.8 345.6" xmlns="http://www.w3.org/2000/svg" version="1.1">
 <metadata>
  <rdf:RDF xmlns:dc="http://purl.org/dc/elements/1.1/" xmlns:cc="http://creativecommons.org/ns#" xmlns:rdf="http://www.w3.org/1999/02/22-rdf-syntax-ns#">
   <cc:Work>
    <dc:type rdf:resource="http://purl.org/dc/dcmitype/StillImage"/>
    <dc:date>2022-06-21T20:54:24.234557</dc:date>
    <dc:format>image/svg+xml</dc:format>
    <dc:creator>
     <cc:Agent>
      <dc:title>Matplotlib v3.5.2, https://matplotlib.org/</dc:title>
     </cc:Agent>
    </dc:creator>
   </cc:Work>
  </rdf:RDF>
 </metadata>
 <defs>
  <style type="text/css">*{stroke-linejoin: round; stroke-linecap: butt}</style>
 </defs>
 <g id="figure_1">
  <g id="patch_1">
   <path d="M 0 345.6 
L 460.8 345.6 
L 460.8 0 
L 0 0 
z
" style="fill: #ffffff"/>
  </g>
  <g id="axes_1">
   <g id="patch_2">
    <path d="M 57.6 307.584 
L 414.72 307.584 
L 414.72 41.472 
L 57.6 41.472 
z
" style="fill: #ffffff"/>
   </g>
   <g id="PolyCollection_1">
    <path d="M 116.821153 286.41466 
L 99.088465 286.41466 
L 97.750132 284.617353 
L 96.386267 282.820046 
L 95.026091 281.022738 
L 93.698072 279.225431 
L 92.428114 277.428124 
L 91.237996 275.630816 
L 90.144186 273.833509 
L 89.157074 272.036202 
L 88.280647 270.238894 
L 87.512583 268.441587 
L 86.844747 266.64428 
L 86.264021 264.846972 
L 85.753444 263.049665 
L 85.293563 261.252358 
L 84.863929 259.45505 
L 84.444608 257.657743 
L 84.017589 255.860435 
L 83.567964 254.063128 
L 83.08477 252.265821 
L 82.56143 250.468513 
L 81.995792 248.671206 
L 81.389797 246.873899 
L 80.748871 245.076591 
L 80.081168 243.279284 
L 79.396768 241.481977 
L 78.70695 239.684669 
L 78.023575 237.887362 
L 77.358633 236.090055 
L 76.723894 234.292747 
L 76.130635 232.49544 
L 75.589381 230.698133 
L 75.109601 228.900825 
L 74.699361 227.103518 
L 74.36494 225.306211 
L 74.110479 223.508903 
L 73.937747 221.711596 
L 73.846106 219.914289 
L 73.832727 218.116981 
L 73.893093 216.319674 
L 74.021708 214.522367 
L 74.212939 212.725059 
L 74.461823 210.927752 
L 74.764707 209.130444 
L 75.119572 207.333137 
L 75.525996 205.53583 
L 75.984732 203.738522 
L 76.497008 201.941215 
L 77.063664 200.143908 
L 77.684301 198.3466 
L 78.356609 196.549293 
L 79.07599 194.751986 
L 79.835542 192.954678 
L 80.626405 191.157371 
L 81.43841 189.360064 
L 82.260914 187.562756 
L 83.083705 185.765449 
L 83.897841 183.968142 
L 84.696316 182.170834 
L 85.474478 180.373527 
L 86.230164 178.57622 
L 86.963558 176.778912 
L 87.67681 174.981605 
L 88.373487 173.184298 
L 89.057938 171.38699 
L 89.734672 169.589683 
L 90.407795 167.792376 
L 91.080598 165.995068 
L 91.755275 164.197761 
L 92.432808 162.400453 
L 93.112964 160.603146 
L 93.794377 158.805839 
L 94.474693 157.008531 
L 95.150721 155.211224 
L 95.818609 153.413917 
L 96.474034 151.616609 
L 97.1124 149.819302 
L 97.729087 148.021995 
L 98.319726 146.224687 
L 98.880507 144.42738 
L 99.408498 142.630073 
L 99.901954 140.832765 
L 100.360555 139.035458 
L 100.785559 137.238151 
L 101.179818 135.440843 
L 101.547635 133.643536 
L 101.894468 131.846229 
L 102.226474 130.048921 
L 102.549965 128.251614 
L 102.870804 126.454307 
L 103.193841 124.656999 
L 103.522437 122.859692 
L 103.85816 121.062385 
L 104.200674 119.265077 
L 104.547845 117.46777 
L 104.896027 115.670462 
L 105.240502 113.873155 
L 105.575991 112.075848 
L 105.897178 110.27854 
L 106.199186 108.481233 
L 109.710432 108.481233 
L 109.710432 108.481233 
L 110.01244 110.27854 
L 110.333627 112.075848 
L 110.669116 113.873155 
L 111.013591 115.670462 
L 111.361773 117.46777 
L 111.708943 119.265077 
L 112.051458 121.062385 
L 112.387181 122.859692 
L 112.715777 124.656999 
L 113.038814 126.454307 
L 113.359653 128.251614 
L 113.683144 130.048921 
L 114.01515 131.846229 
L 114.361982 133.643536 
L 114.7298 135.440843 
L 115.124059 137.238151 
L 115.549063 139.035458 
L 116.007664 140.832765 
L 116.501119 142.630073 
L 117.029111 144.42738 
L 117.589892 146.224687 
L 118.180531 148.021995 
L 118.797218 149.819302 
L 119.435584 151.616609 
L 120.091008 153.413917 
L 120.758897 155.211224 
L 121.434925 157.008531 
L 122.11524 158.805839 
L 122.796654 160.603146 
L 123.476809 162.400453 
L 124.154343 164.197761 
L 124.82902 165.995068 
L 125.501822 167.792376 
L 126.174946 169.589683 
L 126.851679 171.38699 
L 127.536131 173.184298 
L 128.232807 174.981605 
L 128.946059 176.778912 
L 129.679454 178.57622 
L 130.43514 180.373527 
L 131.213302 182.170834 
L 132.011777 183.968142 
L 132.825913 185.765449 
L 133.648704 187.562756 
L 134.471208 189.360064 
L 135.283212 191.157371 
L 136.074076 192.954678 
L 136.833627 194.751986 
L 137.553009 196.549293 
L 138.225317 198.3466 
L 138.845954 200.143908 
L 139.412609 201.941215 
L 139.924886 203.738522 
L 140.383622 205.53583 
L 140.790046 207.333137 
L 141.144911 209.130444 
L 141.447795 210.927752 
L 141.696679 212.725059 
L 141.88791 214.522367 
L 142.016525 216.319674 
L 142.07689 218.116981 
L 142.063512 219.914289 
L 141.97187 221.711596 
L 141.799139 223.508903 
L 141.544678 225.306211 
L 141.210256 227.103518 
L 140.800017 228.900825 
L 140.320237 230.698133 
L 139.778983 232.49544 
L 139.185724 234.292747 
L 138.550984 236.090055 
L 137.886043 237.887362 
L 137.202668 239.684669 
L 136.512849 241.481977 
L 135.82845 243.279284 
L 135.160747 245.076591 
L 134.519821 246.873899 
L 133.913826 248.671206 
L 133.348188 250.468513 
L 132.824848 252.265821 
L 132.341654 254.063128 
L 131.892029 255.860435 
L 131.46501 257.657743 
L 131.045689 259.45505 
L 130.616055 261.252358 
L 130.156174 263.049665 
L 129.645597 264.846972 
L 129.064871 266.64428 
L 128.397034 268.441587 
L 127.628971 270.238894 
L 126.752544 272.036202 
L 125.765432 273.833509 
L 124.671622 275.630816 
L 123.481504 277.428124 
L 122.211545 279.225431 
L 120.883527 281.022738 
L 119.523351 282.820046 
L 118.159486 284.617353 
L 116.821153 286.41466 
z
" clip-path="url(#pdcd4131e95)" style="fill: #1f77b4; fill-opacity: 0.3"/>
   </g>
   <g id="PolyCollection_2">
    <path d="M 208.693984 295.488 
L 177.826042 295.488 
L 175.532316 293.377817 
L 173.221482 291.267634 
L 170.953124 289.15745 
L 168.785623 287.047267 
L 166.772317 284.937084 
L 164.958167 282.826901 
L 163.377209 280.716717 
L 162.050989 278.606534 
L 160.988066 276.496351 
L 160.184518 274.386168 
L 159.625351 272.275984 
L 159.286603 270.165801 
L 159.137931 268.055618 
L 159.145446 265.945435 
L 159.274557 263.835251 
L 159.492612 261.725068 
L 159.771127 259.614885 
L 160.087441 257.504702 
L 160.425682 255.394519 
L 160.777001 253.284335 
L 161.139075 251.174152 
L 161.514977 249.063969 
L 161.911586 246.953786 
L 162.337714 244.843602 
L 162.802208 242.733419 
L 163.312244 240.623236 
L 163.872001 238.513053 
L 164.481868 236.402869 
L 165.138249 234.292686 
L 165.833951 232.182503 
L 166.559064 230.07232 
L 167.302196 227.962137 
L 168.051862 225.851953 
L 168.797825 223.74177 
L 169.532213 221.631587 
L 170.250259 219.521404 
L 170.950596 217.41122 
L 171.635084 215.301037 
L 172.30822 213.190854 
L 172.976234 211.080671 
L 173.645983 208.970487 
L 174.323803 206.860304 
L 175.014414 204.750121 
L 175.720034 202.639938 
L 176.439765 200.529754 
L 177.169343 198.419571 
L 177.901283 196.309388 
L 178.625422 194.199205 
L 179.329826 192.089022 
L 180.001944 189.978838 
L 180.629895 187.868655 
L 181.203696 185.758472 
L 181.716271 183.648289 
L 182.164086 181.538105 
L 182.547343 179.427922 
L 182.869716 177.317739 
L 183.137719 175.207556 
L 183.359844 173.097372 
L 183.54564 170.987189 
L 183.704905 168.877006 
L 183.847088 166.766823 
L 183.980964 164.656639 
L 184.114533 162.546456 
L 184.255061 160.436273 
L 184.409151 158.32609 
L 184.582716 156.215907 
L 184.780803 154.105723 
L 185.007248 151.99554 
L 185.264228 149.885357 
L 185.551812 147.775174 
L 185.867635 145.66499 
L 186.206827 143.554807 
L 186.562257 141.444624 
L 186.925109 139.334441 
L 187.285738 137.224257 
L 187.634682 135.114074 
L 187.963692 133.003891 
L 188.266609 130.893708 
L 188.539966 128.783524 
L 188.783227 126.673341 
L 188.998643 124.563158 
L 189.190765 122.452975 
L 189.365698 120.342792 
L 189.530232 118.232608 
L 189.690965 116.122425 
L 189.853551 114.012242 
L 190.022157 111.902059 
L 190.199178 109.791875 
L 190.385215 107.681692 
L 190.579277 105.571509 
L 190.779163 103.461326 
L 190.981911 101.351142 
L 191.184273 99.240959 
L 191.383115 97.130776 
L 191.575717 95.020593 
L 191.759934 92.91041 
L 191.934237 90.800226 
L 192.097655 88.690043 
L 192.249648 86.57986 
L 194.270378 86.57986 
L 194.270378 86.57986 
L 194.422371 88.690043 
L 194.585789 90.800226 
L 194.760092 92.91041 
L 194.944308 95.020593 
L 195.13691 97.130776 
L 195.335753 99.240959 
L 195.538115 101.351142 
L 195.740863 103.461326 
L 195.940748 105.571509 
L 196.134811 107.681692 
L 196.320847 109.791875 
L 196.497869 111.902059 
L 196.666475 114.012242 
L 196.829061 116.122425 
L 196.989794 118.232608 
L 197.154328 120.342792 
L 197.329261 122.452975 
L 197.521383 124.563158 
L 197.736799 126.673341 
L 197.98006 128.783524 
L 198.253416 130.893708 
L 198.556334 133.003891 
L 198.885344 135.114074 
L 199.234288 137.224257 
L 199.594916 139.334441 
L 199.957769 141.444624 
L 200.313199 143.554807 
L 200.652391 145.66499 
L 200.968214 147.775174 
L 201.255797 149.885357 
L 201.512778 151.99554 
L 201.739223 154.105723 
L 201.937309 156.215907 
L 202.110875 158.32609 
L 202.264965 160.436273 
L 202.405493 162.546456 
L 202.539061 164.656639 
L 202.672938 166.766823 
L 202.815121 168.877006 
L 202.974386 170.987189 
L 203.160182 173.097372 
L 203.382306 175.207556 
L 203.650309 177.317739 
L 203.972682 179.427922 
L 204.355939 181.538105 
L 204.803755 183.648289 
L 205.31633 185.758472 
L 205.890131 187.868655 
L 206.518082 189.978838 
L 207.1902 192.089022 
L 207.894604 194.199205 
L 208.618743 196.309388 
L 209.350683 198.419571 
L 210.080261 200.529754 
L 210.799992 202.639938 
L 211.505612 204.750121 
L 212.196223 206.860304 
L 212.874042 208.970487 
L 213.543792 211.080671 
L 214.211805 213.190854 
L 214.884942 215.301037 
L 215.56943 217.41122 
L 216.269767 219.521404 
L 216.987813 221.631587 
L 217.722201 223.74177 
L 218.468164 225.851953 
L 219.217829 227.962137 
L 219.960962 230.07232 
L 220.686075 232.182503 
L 221.381777 234.292686 
L 222.038158 236.402869 
L 222.648025 238.513053 
L 223.207782 240.623236 
L 223.717818 242.733419 
L 224.182312 244.843602 
L 224.60844 246.953786 
L 225.005048 249.063969 
L 225.380951 251.174152 
L 225.743024 253.284335 
L 226.094344 255.394519 
L 226.432585 257.504702 
L 226.748898 259.614885 
L 227.027414 261.725068 
L 227.245469 263.835251 
L 227.37458 265.945435 
L 227.382095 268.055618 
L 227.233423 270.165801 
L 226.894675 272.275984 
L 226.335508 274.386168 
L 225.53196 276.496351 
L 224.469036 278.606534 
L 223.142817 280.716717 
L 221.561859 282.826901 
L 219.747709 284.937084 
L 217.734403 287.047267 
L 215.566902 289.15745 
L 213.298544 291.267634 
L 210.98771 293.377817 
L 208.693984 295.488 
z
" clip-path="url(#pdcd4131e95)" style="fill: #1f77b4; fill-opacity: 0.3"/>
   </g>
   <g id="PolyCollection_3">
    <path d="M 293.932532 292.537719 
L 263.197902 292.537719 
L 260.908137 290.258815 
L 258.622006 287.979912 
L 256.40213 285.701009 
L 254.306423 283.422105 
L 252.383632 281.143202 
L 250.670019 278.864299 
L 249.187573 276.585395 
L 247.943857 274.306492 
L 246.93334 272.027589 
L 246.139847 269.748685 
L 245.539645 267.469782 
L 245.104664 265.190879 
L 244.805442 262.911975 
L 244.613517 260.633072 
L 244.503131 258.354169 
L 244.452272 256.075265 
L 244.443135 253.796362 
L 244.462141 251.517458 
L 244.499635 249.238555 
L 244.549366 246.959652 
L 244.607809 244.680748 
L 244.673396 242.401845 
L 244.745701 240.122942 
L 244.824671 237.844038 
L 244.909978 235.565135 
L 245.000607 233.286232 
L 245.094751 231.007328 
L 245.190065 228.728425 
L 245.284267 226.449522 
L 245.376 224.170618 
L 245.465834 221.891715 
L 245.557235 219.612812 
L 245.657297 217.333908 
L 245.777097 215.055005 
L 245.931504 212.776102 
L 246.138409 210.497198 
L 246.417369 208.218295 
L 246.787798 205.939392 
L 247.266878 203.660488 
L 247.867469 201.381585 
L 248.5963 199.102682 
L 249.452709 196.823778 
L 250.428135 194.544875 
L 251.506452 192.265972 
L 252.665097 189.987068 
L 253.876835 187.708165 
L 255.111913 185.429261 
L 256.340327 183.150358 
L 257.533933 180.871455 
L 258.668238 178.592551 
L 259.723733 176.313648 
L 260.686769 174.034745 
L 261.549992 171.755841 
L 262.31238 169.476938 
L 262.978921 167.198035 
L 263.559944 164.919131 
L 264.07011 162.640228 
L 264.527065 160.361325 
L 264.949813 158.082421 
L 265.356904 155.803518 
L 265.764627 153.524615 
L 266.185398 151.245711 
L 266.62658 148.966808 
L 267.089916 146.687905 
L 267.571675 144.409001 
L 268.063524 142.130098 
L 268.553986 139.851195 
L 269.030292 137.572291 
L 269.480346 135.293388 
L 269.894506 133.014485 
L 270.266945 130.735581 
L 270.596401 128.456678 
L 270.886245 126.177775 
L 271.143888 123.898871 
L 271.379645 121.619968 
L 271.605262 119.341065 
L 271.832312 117.062161 
L 272.070726 114.783258 
L 272.327643 112.504354 
L 272.606725 110.225451 
L 272.908024 107.946548 
L 273.228354 105.667644 
L 273.562082 103.388741 
L 273.902179 101.109838 
L 274.24133 98.830934 
L 274.572929 96.552031 
L 274.891806 94.273128 
L 275.19461 91.994224 
L 275.479841 89.715321 
L 275.747574 87.436418 
L 275.998997 85.157514 
L 276.235866 82.878611 
L 276.459996 80.599708 
L 276.67288 78.320804 
L 276.875456 76.041901 
L 277.068047 73.762998 
L 277.250429 71.484094 
L 277.421979 69.205191 
L 277.581869 66.926288 
L 279.548565 66.926288 
L 279.548565 66.926288 
L 279.708455 69.205191 
L 279.880005 71.484094 
L 280.062386 73.762998 
L 280.254978 76.041901 
L 280.457554 78.320804 
L 280.670438 80.599708 
L 280.894568 82.878611 
L 281.131436 85.157514 
L 281.38286 87.436418 
L 281.650593 89.715321 
L 281.935824 91.994224 
L 282.238628 94.273128 
L 282.557504 96.552031 
L 282.889104 98.830934 
L 283.228255 101.109838 
L 283.568352 103.388741 
L 283.90208 105.667644 
L 284.222409 107.946548 
L 284.523709 110.225451 
L 284.802791 112.504354 
L 285.059707 114.783258 
L 285.298122 117.062161 
L 285.525172 119.341065 
L 285.750789 121.619968 
L 285.986546 123.898871 
L 286.244189 126.177775 
L 286.534033 128.456678 
L 286.863489 130.735581 
L 287.235928 133.014485 
L 287.650088 135.293388 
L 288.100142 137.572291 
L 288.576448 139.851195 
L 289.06691 142.130098 
L 289.558759 144.409001 
L 290.040518 146.687905 
L 290.503854 148.966808 
L 290.945036 151.245711 
L 291.365807 153.524615 
L 291.77353 155.803518 
L 292.180621 158.082421 
L 292.603368 160.361325 
L 293.060324 162.640228 
L 293.57049 164.919131 
L 294.151513 167.198035 
L 294.818054 169.476938 
L 295.580442 171.755841 
L 296.443665 174.034745 
L 297.406701 176.313648 
L 298.462196 178.592551 
L 299.5965 180.871455 
L 300.790107 183.150358 
L 302.01852 185.429261 
L 303.253599 187.708165 
L 304.465337 189.987068 
L 305.623982 192.265972 
L 306.702299 194.544875 
L 307.677725 196.823778 
L 308.534134 199.102682 
L 309.262965 201.381585 
L 309.863556 203.660488 
L 310.342636 205.939392 
L 310.713065 208.218295 
L 310.992025 210.497198 
L 311.19893 212.776102 
L 311.353337 215.055005 
L 311.473137 217.333908 
L 311.573199 219.612812 
L 311.664599 221.891715 
L 311.754434 224.170618 
L 311.846167 226.449522 
L 311.940369 228.728425 
L 312.035683 231.007328 
L 312.129827 233.286232 
L 312.220456 235.565135 
L 312.305763 237.844038 
L 312.384733 240.122942 
L 312.457038 242.401845 
L 312.522624 244.680748 
L 312.581067 246.959652 
L 312.630798 249.238555 
L 312.668293 251.517458 
L 312.687299 253.796362 
L 312.678161 256.075265 
L 312.627302 258.354169 
L 312.516917 260.633072 
L 312.324991 262.911975 
L 312.02577 265.190879 
L 311.590789 267.469782 
L 310.990587 269.748685 
L 310.197094 272.027589 
L 309.186577 274.306492 
L 307.94286 276.585395 
L 306.460414 278.864299 
L 304.746802 281.143202 
L 302.824011 283.422105 
L 300.728304 285.701009 
L 298.508428 287.979912 
L 296.222297 290.258815 
L 293.932532 292.537719 
z
" clip-path="url(#pdcd4131e95)" style="fill: #1f77b4; fill-opacity: 0.3"/>
   </g>
   <g id="PolyCollection_4">
    <path d="M 387.300597 294.593541 
L 340.440244 294.593541 
L 337.991422 292.353674 
L 335.779721 290.113807 
L 333.874095 287.873939 
L 332.322262 285.634072 
L 331.147204 283.394205 
L 330.346563 281.154338 
L 329.894895 278.914471 
L 329.748339 276.674604 
L 329.850876 274.434736 
L 330.141192 272.194869 
L 330.559153 269.955002 
L 331.05106 267.715135 
L 331.57316 265.475268 
L 332.093242 263.235401 
L 332.590467 260.995533 
L 333.053864 258.755666 
L 333.480049 256.515799 
L 333.87076 254.275932 
L 334.230658 252.036065 
L 334.565717 249.796197 
L 334.882256 247.55633 
L 335.18653 245.316463 
L 335.484654 243.076596 
L 335.782583 240.836729 
L 336.085978 238.596862 
L 336.399828 236.356994 
L 336.727895 234.117127 
L 337.072115 231.87726 
L 337.432181 229.637393 
L 337.805503 227.397526 
L 338.18768 225.157659 
L 338.57346 222.917791 
L 338.958077 220.677924 
L 339.338691 218.438057 
L 339.715624 216.19819 
L 340.093097 213.958323 
L 340.479233 211.718456 
L 340.885266 209.478588 
L 341.32401 207.238721 
L 341.807841 204.998854 
L 342.346532 202.758987 
L 342.945304 200.51912 
L 343.603478 198.279252 
L 344.313943 196.039385 
L 345.063575 193.799518 
L 345.834511 191.559651 
L 346.60609 189.319784 
L 347.357133 187.079917 
L 348.068216 184.840049 
L 348.723606 182.600182 
L 349.312626 180.360315 
L 349.83032 178.120448 
L 350.277428 175.880581 
L 350.659776 173.640714 
L 350.987253 171.400846 
L 351.272586 169.160979 
L 351.530084 166.921112 
L 351.774486 164.681245 
L 352.019994 162.441378 
L 352.279502 160.201511 
L 352.563997 157.961643 
L 352.882112 155.721776 
L 353.239787 153.481909 
L 353.640031 151.242042 
L 354.082799 149.002175 
L 354.565013 146.762307 
L 355.080748 144.52244 
L 355.621617 142.282573 
L 356.177332 140.042706 
L 356.736427 137.802839 
L 357.287056 135.562972 
L 357.817818 133.323104 
L 358.318499 131.083237 
L 358.780695 128.84337 
L 359.198252 126.603503 
L 359.56752 124.363636 
L 359.88742 122.123769 
L 360.159342 119.883901 
L 360.386913 117.644034 
L 360.57564 115.404167 
L 360.732455 113.1643 
L 360.865181 110.924433 
L 360.981949 108.684566 
L 361.09058 106.444698 
L 361.198004 104.204831 
L 361.30976 101.964964 
L 361.429635 99.725097 
L 361.559503 97.48523 
L 361.699373 95.245362 
L 361.847649 93.005495 
L 362.001559 90.765628 
L 362.157682 88.525761 
L 362.312486 86.285894 
L 362.462804 84.046027 
L 362.606167 81.806159 
L 362.740973 79.566292 
L 362.866476 77.326425 
L 362.982642 75.086558 
L 363.089914 72.846691 
L 364.650928 72.846691 
L 364.650928 72.846691 
L 364.7582 75.086558 
L 364.874366 77.326425 
L 364.999869 79.566292 
L 365.134675 81.806159 
L 365.278038 84.046027 
L 365.428356 86.285894 
L 365.58316 88.525761 
L 365.739283 90.765628 
L 365.893193 93.005495 
L 366.041469 95.245362 
L 366.181339 97.48523 
L 366.311207 99.725097 
L 366.431082 101.964964 
L 366.542838 104.204831 
L 366.650262 106.444698 
L 366.758893 108.684566 
L 366.875661 110.924433 
L 367.008387 113.1643 
L 367.165202 115.404167 
L 367.353929 117.644034 
L 367.5815 119.883901 
L 367.853422 122.123769 
L 368.173321 124.363636 
L 368.54259 126.603503 
L 368.960147 128.84337 
L 369.422343 131.083237 
L 369.923024 133.323104 
L 370.453786 135.562972 
L 371.004415 137.802839 
L 371.56351 140.042706 
L 372.119225 142.282573 
L 372.660093 144.52244 
L 373.175829 146.762307 
L 373.658043 149.002175 
L 374.100811 151.242042 
L 374.501055 153.481909 
L 374.858729 155.721776 
L 375.176845 157.961643 
L 375.46134 160.201511 
L 375.720848 162.441378 
L 375.966356 164.681245 
L 376.210758 166.921112 
L 376.468256 169.160979 
L 376.753589 171.400846 
L 377.081066 173.640714 
L 377.463414 175.880581 
L 377.910522 178.120448 
L 378.428216 180.360315 
L 379.017236 182.600182 
L 379.672626 184.840049 
L 380.383709 187.079917 
L 381.134752 189.319784 
L 381.906331 191.559651 
L 382.677267 193.799518 
L 383.426899 196.039385 
L 384.137364 198.279252 
L 384.795537 200.51912 
L 385.39431 202.758987 
L 385.933001 204.998854 
L 386.416832 207.238721 
L 386.855576 209.478588 
L 387.261608 211.718456 
L 387.647745 213.958323 
L 388.025218 216.19819 
L 388.402151 218.438057 
L 388.782765 220.677924 
L 389.167382 222.917791 
L 389.553162 225.157659 
L 389.935339 227.397526 
L 390.308661 229.637393 
L 390.668727 231.87726 
L 391.012946 234.117127 
L 391.341014 236.356994 
L 391.654864 238.596862 
L 391.958259 240.836729 
L 392.256188 243.076596 
L 392.554311 245.316463 
L 392.858586 247.55633 
L 393.175125 249.796197 
L 393.510184 252.036065 
L 393.870082 254.275932 
L 394.260793 256.515799 
L 394.686978 258.755666 
L 395.150375 260.995533 
L 395.6476 263.235401 
L 396.167682 265.475268 
L 396.689782 267.715135 
L 397.181688 269.955002 
L 397.59965 272.194869 
L 397.889966 274.434736 
L 397.992503 276.674604 
L 397.845946 278.914471 
L 397.394279 281.154338 
L 396.593637 283.394205 
L 395.41858 285.634072 
L 393.866747 287.873939 
L 391.961121 290.113807 
L 389.74942 292.353674 
L 387.300597 294.593541 
z
" clip-path="url(#pdcd4131e95)" style="fill: #1f77b4; fill-opacity: 0.3"/>
   </g>
   <g id="PolyCollection_5">
    <path d="M 391.351921 295.488 
L 337.378462 295.488 
L 335.028632 293.044364 
L 333.099155 290.600727 
L 331.649203 288.157091 
L 330.702257 285.713455 
L 330.247125 283.269818 
L 330.24311 280.826182 
L 330.627964 278.382545 
L 331.326928 275.938909 
L 332.261223 273.495273 
L 333.354847 271.051636 
L 334.539085 268.608 
L 335.754809 266.164364 
L 336.95306 263.720727 
L 338.094606 261.277091 
L 339.149133 258.833455 
L 340.094497 256.389818 
L 340.916203 253.946182 
L 341.607039 251.502545 
L 342.166653 249.058909 
L 342.600861 246.615273 
L 342.920556 244.171636 
L 343.140243 241.728 
L 343.276339 239.284364 
L 343.345523 236.840727 
L 343.363389 234.397091 
L 343.34365 231.953455 
L 343.297993 229.509818 
L 343.236558 227.066182 
L 343.168858 224.622545 
L 343.104865 222.178909 
L 343.055925 219.735273 
L 343.035247 217.291636 
L 343.057765 214.848 
L 343.139363 212.404364 
L 343.295582 209.960727 
L 343.540031 207.517091 
L 343.882793 205.073455 
L 344.329089 202.629818 
L 344.878412 200.186182 
L 345.524232 197.742545 
L 346.254304 195.298909 
L 347.051509 192.855273 
L 347.895136 190.411636 
L 348.762454 187.968 
L 349.630446 185.524364 
L 350.477524 183.080727 
L 351.285103 180.637091 
L 352.038864 178.193455 
L 352.729599 175.749818 
L 353.353541 173.306182 
L 353.912155 170.862545 
L 354.411415 168.418909 
L 354.860666 165.975273 
L 355.271231 163.531636 
L 355.654958 161.088 
L 356.022894 158.644364 
L 356.384268 156.200727 
L 356.745865 153.757091 
L 357.111844 151.313455 
L 357.483921 148.869818 
L 357.861814 146.426182 
L 358.243809 143.982545 
L 358.62731 141.538909 
L 359.009286 139.095273 
L 359.386569 136.651636 
L 359.756022 134.208 
L 360.114623 131.764364 
L 360.459509 129.320727 
L 360.788025 126.877091 
L 361.097782 124.433455 
L 361.386733 121.989818 
L 361.653233 119.546182 
L 361.896092 117.102545 
L 362.114603 114.658909 
L 362.308581 112.215273 
L 362.478398 109.771636 
L 362.62505 107.328 
L 362.750212 104.884364 
L 362.856268 102.440727 
L 362.94627 99.997091 
L 363.023793 97.553455 
L 363.092681 95.109818 
L 363.15671 92.666182 
L 363.219214 90.222545 
L 363.282742 87.778909 
L 363.348829 85.335273 
L 363.4179 82.891636 
L 363.489357 80.448 
L 363.561804 78.004364 
L 363.633376 75.560727 
L 363.702109 73.117091 
L 363.766284 70.673455 
L 363.824687 68.229818 
L 363.876761 65.786182 
L 363.922623 63.342545 
L 363.962976 60.898909 
L 363.998925 58.455273 
L 364.031749 56.011636 
L 364.062673 53.568 
L 364.66771 53.568 
L 364.66771 53.568 
L 364.698633 56.011636 
L 364.731457 58.455273 
L 364.767406 60.898909 
L 364.807759 63.342545 
L 364.853622 65.786182 
L 364.905695 68.229818 
L 364.964098 70.673455 
L 365.028273 73.117091 
L 365.097007 75.560727 
L 365.168578 78.004364 
L 365.241025 80.448 
L 365.312483 82.891636 
L 365.381554 85.335273 
L 365.44764 87.778909 
L 365.511169 90.222545 
L 365.573672 92.666182 
L 365.637701 95.109818 
L 365.70659 97.553455 
L 365.784112 99.997091 
L 365.874114 102.440727 
L 365.98017 104.884364 
L 366.105332 107.328 
L 366.251984 109.771636 
L 366.421801 112.215273 
L 366.615779 114.658909 
L 366.834291 117.102545 
L 367.077149 119.546182 
L 367.343649 121.989818 
L 367.6326 124.433455 
L 367.942357 126.877091 
L 368.270873 129.320727 
L 368.615759 131.764364 
L 368.97436 134.208 
L 369.343813 136.651636 
L 369.721096 139.095273 
L 370.103072 141.538909 
L 370.486574 143.982545 
L 370.868568 146.426182 
L 371.246461 148.869818 
L 371.618538 151.313455 
L 371.984517 153.757091 
L 372.346115 156.200727 
L 372.707488 158.644364 
L 373.075425 161.088 
L 373.459151 163.531636 
L 373.869717 165.975273 
L 374.318967 168.418909 
L 374.818227 170.862545 
L 375.376842 173.306182 
L 376.000783 175.749818 
L 376.691518 178.193455 
L 377.445279 180.637091 
L 378.252858 183.080727 
L 379.099936 185.524364 
L 379.967928 187.968 
L 380.835247 190.411636 
L 381.678873 192.855273 
L 382.476078 195.298909 
L 383.20615 197.742545 
L 383.85197 200.186182 
L 384.401293 202.629818 
L 384.847589 205.073455 
L 385.190351 207.517091 
L 385.4348 209.960727 
L 385.591019 212.404364 
L 385.672618 214.848 
L 385.695135 217.291636 
L 385.674457 219.735273 
L 385.625517 222.178909 
L 385.561524 224.622545 
L 385.493825 227.066182 
L 385.432389 229.509818 
L 385.386733 231.953455 
L 385.366994 234.397091 
L 385.384859 236.840727 
L 385.454043 239.284364 
L 385.590139 241.728 
L 385.809826 244.171636 
L 386.129522 246.615273 
L 386.563729 249.058909 
L 387.123343 251.502545 
L 387.814179 253.946182 
L 388.635885 256.389818 
L 389.581249 258.833455 
L 390.635777 261.277091 
L 391.777323 263.720727 
L 392.975573 266.164364 
L 394.191297 268.608 
L 395.375535 271.051636 
L 396.469159 273.495273 
L 397.403455 275.938909 
L 398.102418 278.382545 
L 398.487273 280.826182 
L 398.483258 283.269818 
L 398.028126 285.713455 
L 397.08118 288.157091 
L 395.631228 290.600727 
L 393.701751 293.044364 
L 391.351921 295.488 
z
" clip-path="url(#pdcd4131e95)" style="fill: #1f77b4; fill-opacity: 0.3"/>
   </g>
   <g id="matplotlib.axis_1">
    <g id="xtick_1">
     <g id="line2d_1">
      <path d="M 65.302207 307.584 
L 65.302207 41.472 
" clip-path="url(#pdcd4131e95)" style="fill: none; stroke-dasharray: 2.96,1.28; stroke-dashoffset: 0; stroke: #b0b0b0; stroke-width: 0.8"/>
     </g>
     <g id="line2d_2">
      <defs>
       <path id="m92c8c167f0" d="M 0 0 
L 0 3.5 
" style="stroke: #000000; stroke-width: 0.8"/>
      </defs>
      <g>
       <use xlink:href="#m92c8c167f0" x="65.302207" y="307.584" style="stroke: #000000; stroke-width: 0.8"/>
      </g>
     </g>
     <g id="text_1">
      <!-- 2500 -->
      <g transform="translate(52.577207 322.182437)scale(0.1 -0.1)">
       <defs>
        <path id="DejaVuSans-32" d="M 1228 531 
L 3431 531 
L 3431 0 
L 469 0 
L 469 531 
Q 828 903 1448 1529 
Q 2069 2156 2228 2338 
Q 2531 2678 2651 2914 
Q 2772 3150 2772 3378 
Q 2772 3750 2511 3984 
Q 2250 4219 1831 4219 
Q 1534 4219 1204 4116 
Q 875 4013 500 3803 
L 500 4441 
Q 881 4594 1212 4672 
Q 1544 4750 1819 4750 
Q 2544 4750 2975 4387 
Q 3406 4025 3406 3419 
Q 3406 3131 3298 2873 
Q 3191 2616 2906 2266 
Q 2828 2175 2409 1742 
Q 1991 1309 1228 531 
z
" transform="scale(0.015625)"/>
        <path id="DejaVuSans-35" d="M 691 4666 
L 3169 4666 
L 3169 4134 
L 1269 4134 
L 1269 2991 
Q 1406 3038 1543 3061 
Q 1681 3084 1819 3084 
Q 2600 3084 3056 2656 
Q 3513 2228 3513 1497 
Q 3513 744 3044 326 
Q 2575 -91 1722 -91 
Q 1428 -91 1123 -41 
Q 819 9 494 109 
L 494 744 
Q 775 591 1075 516 
Q 1375 441 1709 441 
Q 2250 441 2565 725 
Q 2881 1009 2881 1497 
Q 2881 1984 2565 2268 
Q 2250 2553 1709 2553 
Q 1456 2553 1204 2497 
Q 953 2441 691 2322 
L 691 4666 
z
" transform="scale(0.015625)"/>
        <path id="DejaVuSans-30" d="M 2034 4250 
Q 1547 4250 1301 3770 
Q 1056 3291 1056 2328 
Q 1056 1369 1301 889 
Q 1547 409 2034 409 
Q 2525 409 2770 889 
Q 3016 1369 3016 2328 
Q 3016 3291 2770 3770 
Q 2525 4250 2034 4250 
z
M 2034 4750 
Q 2819 4750 3233 4129 
Q 3647 3509 3647 2328 
Q 3647 1150 3233 529 
Q 2819 -91 2034 -91 
Q 1250 -91 836 529 
Q 422 1150 422 2328 
Q 422 3509 836 4129 
Q 1250 4750 2034 4750 
z
" transform="scale(0.015625)"/>
       </defs>
       <use xlink:href="#DejaVuSans-32"/>
       <use xlink:href="#DejaVuSans-35" x="63.623047"/>
       <use xlink:href="#DejaVuSans-30" x="127.246094"/>
       <use xlink:href="#DejaVuSans-30" x="190.869141"/>
      </g>
     </g>
    </g>
    <g id="xtick_2">
     <g id="line2d_3">
      <path d="M 107.954809 307.584 
L 107.954809 41.472 
" clip-path="url(#pdcd4131e95)" style="fill: none; stroke-dasharray: 2.96,1.28; stroke-dashoffset: 0; stroke: #b0b0b0; stroke-width: 0.8"/>
     </g>
     <g id="line2d_4">
      <g>
       <use xlink:href="#m92c8c167f0" x="107.954809" y="307.584" style="stroke: #000000; stroke-width: 0.8"/>
      </g>
     </g>
     <g id="text_2">
      <!-- 5000 -->
      <g transform="translate(95.229809 322.182437)scale(0.1 -0.1)">
       <use xlink:href="#DejaVuSans-35"/>
       <use xlink:href="#DejaVuSans-30" x="63.623047"/>
       <use xlink:href="#DejaVuSans-30" x="127.246094"/>
       <use xlink:href="#DejaVuSans-30" x="190.869141"/>
      </g>
     </g>
    </g>
    <g id="xtick_3">
     <g id="line2d_5">
      <path d="M 150.607411 307.584 
L 150.607411 41.472 
" clip-path="url(#pdcd4131e95)" style="fill: none; stroke-dasharray: 2.96,1.28; stroke-dashoffset: 0; stroke: #b0b0b0; stroke-width: 0.8"/>
     </g>
     <g id="line2d_6">
      <g>
       <use xlink:href="#m92c8c167f0" x="150.607411" y="307.584" style="stroke: #000000; stroke-width: 0.8"/>
      </g>
     </g>
     <g id="text_3">
      <!-- 7500 -->
      <g transform="translate(137.882411 322.182437)scale(0.1 -0.1)">
       <defs>
        <path id="DejaVuSans-37" d="M 525 4666 
L 3525 4666 
L 3525 4397 
L 1831 0 
L 1172 0 
L 2766 4134 
L 525 4134 
L 525 4666 
z
" transform="scale(0.015625)"/>
       </defs>
       <use xlink:href="#DejaVuSans-37"/>
       <use xlink:href="#DejaVuSans-35" x="63.623047"/>
       <use xlink:href="#DejaVuSans-30" x="127.246094"/>
       <use xlink:href="#DejaVuSans-30" x="190.869141"/>
      </g>
     </g>
    </g>
    <g id="xtick_4">
     <g id="line2d_7">
      <path d="M 193.260013 307.584 
L 193.260013 41.472 
" clip-path="url(#pdcd4131e95)" style="fill: none; stroke-dasharray: 2.96,1.28; stroke-dashoffset: 0; stroke: #b0b0b0; stroke-width: 0.8"/>
     </g>
     <g id="line2d_8">
      <g>
       <use xlink:href="#m92c8c167f0" x="193.260013" y="307.584" style="stroke: #000000; stroke-width: 0.8"/>
      </g>
     </g>
     <g id="text_4">
      <!-- 10000 -->
      <g transform="translate(177.353763 322.182437)scale(0.1 -0.1)">
       <defs>
        <path id="DejaVuSans-31" d="M 794 531 
L 1825 531 
L 1825 4091 
L 703 3866 
L 703 4441 
L 1819 4666 
L 2450 4666 
L 2450 531 
L 3481 531 
L 3481 0 
L 794 0 
L 794 531 
z
" transform="scale(0.015625)"/>
       </defs>
       <use xlink:href="#DejaVuSans-31"/>
       <use xlink:href="#DejaVuSans-30" x="63.623047"/>
       <use xlink:href="#DejaVuSans-30" x="127.246094"/>
       <use xlink:href="#DejaVuSans-30" x="190.869141"/>
       <use xlink:href="#DejaVuSans-30" x="254.492188"/>
      </g>
     </g>
    </g>
    <g id="xtick_5">
     <g id="line2d_9">
      <path d="M 235.912615 307.584 
L 235.912615 41.472 
" clip-path="url(#pdcd4131e95)" style="fill: none; stroke-dasharray: 2.96,1.28; stroke-dashoffset: 0; stroke: #b0b0b0; stroke-width: 0.8"/>
     </g>
     <g id="line2d_10">
      <g>
       <use xlink:href="#m92c8c167f0" x="235.912615" y="307.584" style="stroke: #000000; stroke-width: 0.8"/>
      </g>
     </g>
     <g id="text_5">
      <!-- 12500 -->
      <g transform="translate(220.006365 322.182437)scale(0.1 -0.1)">
       <use xlink:href="#DejaVuSans-31"/>
       <use xlink:href="#DejaVuSans-32" x="63.623047"/>
       <use xlink:href="#DejaVuSans-35" x="127.246094"/>
       <use xlink:href="#DejaVuSans-30" x="190.869141"/>
       <use xlink:href="#DejaVuSans-30" x="254.492188"/>
      </g>
     </g>
    </g>
    <g id="xtick_6">
     <g id="line2d_11">
      <path d="M 278.565217 307.584 
L 278.565217 41.472 
" clip-path="url(#pdcd4131e95)" style="fill: none; stroke-dasharray: 2.96,1.28; stroke-dashoffset: 0; stroke: #b0b0b0; stroke-width: 0.8"/>
     </g>
     <g id="line2d_12">
      <g>
       <use xlink:href="#m92c8c167f0" x="278.565217" y="307.584" style="stroke: #000000; stroke-width: 0.8"/>
      </g>
     </g>
     <g id="text_6">
      <!-- 15000 -->
      <g transform="translate(262.658967 322.182437)scale(0.1 -0.1)">
       <use xlink:href="#DejaVuSans-31"/>
       <use xlink:href="#DejaVuSans-35" x="63.623047"/>
       <use xlink:href="#DejaVuSans-30" x="127.246094"/>
       <use xlink:href="#DejaVuSans-30" x="190.869141"/>
       <use xlink:href="#DejaVuSans-30" x="254.492188"/>
      </g>
     </g>
    </g>
    <g id="xtick_7">
     <g id="line2d_13">
      <path d="M 321.217819 307.584 
L 321.217819 41.472 
" clip-path="url(#pdcd4131e95)" style="fill: none; stroke-dasharray: 2.96,1.28; stroke-dashoffset: 0; stroke: #b0b0b0; stroke-width: 0.8"/>
     </g>
     <g id="line2d_14">
      <g>
       <use xlink:href="#m92c8c167f0" x="321.217819" y="307.584" style="stroke: #000000; stroke-width: 0.8"/>
      </g>
     </g>
     <g id="text_7">
      <!-- 17500 -->
      <g transform="translate(305.311569 322.182437)scale(0.1 -0.1)">
       <use xlink:href="#DejaVuSans-31"/>
       <use xlink:href="#DejaVuSans-37" x="63.623047"/>
       <use xlink:href="#DejaVuSans-35" x="127.246094"/>
       <use xlink:href="#DejaVuSans-30" x="190.869141"/>
       <use xlink:href="#DejaVuSans-30" x="254.492188"/>
      </g>
     </g>
    </g>
    <g id="xtick_8">
     <g id="line2d_15">
      <path d="M 363.870421 307.584 
L 363.870421 41.472 
" clip-path="url(#pdcd4131e95)" style="fill: none; stroke-dasharray: 2.96,1.28; stroke-dashoffset: 0; stroke: #b0b0b0; stroke-width: 0.8"/>
     </g>
     <g id="line2d_16">
      <g>
       <use xlink:href="#m92c8c167f0" x="363.870421" y="307.584" style="stroke: #000000; stroke-width: 0.8"/>
      </g>
     </g>
     <g id="text_8">
      <!-- 20000 -->
      <g transform="translate(347.964171 322.182437)scale(0.1 -0.1)">
       <use xlink:href="#DejaVuSans-32"/>
       <use xlink:href="#DejaVuSans-30" x="63.623047"/>
       <use xlink:href="#DejaVuSans-30" x="127.246094"/>
       <use xlink:href="#DejaVuSans-30" x="190.869141"/>
       <use xlink:href="#DejaVuSans-30" x="254.492188"/>
      </g>
     </g>
    </g>
    <g id="xtick_9">
     <g id="line2d_17">
      <path d="M 406.523023 307.584 
L 406.523023 41.472 
" clip-path="url(#pdcd4131e95)" style="fill: none; stroke-dasharray: 2.96,1.28; stroke-dashoffset: 0; stroke: #b0b0b0; stroke-width: 0.8"/>
     </g>
     <g id="line2d_18">
      <g>
       <use xlink:href="#m92c8c167f0" x="406.523023" y="307.584" style="stroke: #000000; stroke-width: 0.8"/>
      </g>
     </g>
     <g id="text_9">
      <!-- 22500 -->
      <g transform="translate(390.616773 322.182437)scale(0.1 -0.1)">
       <use xlink:href="#DejaVuSans-32"/>
       <use xlink:href="#DejaVuSans-32" x="63.623047"/>
       <use xlink:href="#DejaVuSans-35" x="127.246094"/>
       <use xlink:href="#DejaVuSans-30" x="190.869141"/>
       <use xlink:href="#DejaVuSans-30" x="254.492188"/>
      </g>
     </g>
    </g>
    <g id="text_10">
     <!-- Learned Episodes -->
     <g transform="translate(192.102187 335.860562)scale(0.1 -0.1)">
      <defs>
       <path id="DejaVuSans-4c" d="M 628 4666 
L 1259 4666 
L 1259 531 
L 3531 531 
L 3531 0 
L 628 0 
L 628 4666 
z
" transform="scale(0.015625)"/>
       <path id="DejaVuSans-65" d="M 3597 1894 
L 3597 1613 
L 953 1613 
Q 991 1019 1311 708 
Q 1631 397 2203 397 
Q 2534 397 2845 478 
Q 3156 559 3463 722 
L 3463 178 
Q 3153 47 2828 -22 
Q 2503 -91 2169 -91 
Q 1331 -91 842 396 
Q 353 884 353 1716 
Q 353 2575 817 3079 
Q 1281 3584 2069 3584 
Q 2775 3584 3186 3129 
Q 3597 2675 3597 1894 
z
M 3022 2063 
Q 3016 2534 2758 2815 
Q 2500 3097 2075 3097 
Q 1594 3097 1305 2825 
Q 1016 2553 972 2059 
L 3022 2063 
z
" transform="scale(0.015625)"/>
       <path id="DejaVuSans-61" d="M 2194 1759 
Q 1497 1759 1228 1600 
Q 959 1441 959 1056 
Q 959 750 1161 570 
Q 1363 391 1709 391 
Q 2188 391 2477 730 
Q 2766 1069 2766 1631 
L 2766 1759 
L 2194 1759 
z
M 3341 1997 
L 3341 0 
L 2766 0 
L 2766 531 
Q 2569 213 2275 61 
Q 1981 -91 1556 -91 
Q 1019 -91 701 211 
Q 384 513 384 1019 
Q 384 1609 779 1909 
Q 1175 2209 1959 2209 
L 2766 2209 
L 2766 2266 
Q 2766 2663 2505 2880 
Q 2244 3097 1772 3097 
Q 1472 3097 1187 3025 
Q 903 2953 641 2809 
L 641 3341 
Q 956 3463 1253 3523 
Q 1550 3584 1831 3584 
Q 2591 3584 2966 3190 
Q 3341 2797 3341 1997 
z
" transform="scale(0.015625)"/>
       <path id="DejaVuSans-72" d="M 2631 2963 
Q 2534 3019 2420 3045 
Q 2306 3072 2169 3072 
Q 1681 3072 1420 2755 
Q 1159 2438 1159 1844 
L 1159 0 
L 581 0 
L 581 3500 
L 1159 3500 
L 1159 2956 
Q 1341 3275 1631 3429 
Q 1922 3584 2338 3584 
Q 2397 3584 2469 3576 
Q 2541 3569 2628 3553 
L 2631 2963 
z
" transform="scale(0.015625)"/>
       <path id="DejaVuSans-6e" d="M 3513 2113 
L 3513 0 
L 2938 0 
L 2938 2094 
Q 2938 2591 2744 2837 
Q 2550 3084 2163 3084 
Q 1697 3084 1428 2787 
Q 1159 2491 1159 1978 
L 1159 0 
L 581 0 
L 581 3500 
L 1159 3500 
L 1159 2956 
Q 1366 3272 1645 3428 
Q 1925 3584 2291 3584 
Q 2894 3584 3203 3211 
Q 3513 2838 3513 2113 
z
" transform="scale(0.015625)"/>
       <path id="DejaVuSans-64" d="M 2906 2969 
L 2906 4863 
L 3481 4863 
L 3481 0 
L 2906 0 
L 2906 525 
Q 2725 213 2448 61 
Q 2172 -91 1784 -91 
Q 1150 -91 751 415 
Q 353 922 353 1747 
Q 353 2572 751 3078 
Q 1150 3584 1784 3584 
Q 2172 3584 2448 3432 
Q 2725 3281 2906 2969 
z
M 947 1747 
Q 947 1113 1208 752 
Q 1469 391 1925 391 
Q 2381 391 2643 752 
Q 2906 1113 2906 1747 
Q 2906 2381 2643 2742 
Q 2381 3103 1925 3103 
Q 1469 3103 1208 2742 
Q 947 2381 947 1747 
z
" transform="scale(0.015625)"/>
       <path id="DejaVuSans-20" transform="scale(0.015625)"/>
       <path id="DejaVuSans-45" d="M 628 4666 
L 3578 4666 
L 3578 4134 
L 1259 4134 
L 1259 2753 
L 3481 2753 
L 3481 2222 
L 1259 2222 
L 1259 531 
L 3634 531 
L 3634 0 
L 628 0 
L 628 4666 
z
" transform="scale(0.015625)"/>
       <path id="DejaVuSans-70" d="M 1159 525 
L 1159 -1331 
L 581 -1331 
L 581 3500 
L 1159 3500 
L 1159 2969 
Q 1341 3281 1617 3432 
Q 1894 3584 2278 3584 
Q 2916 3584 3314 3078 
Q 3713 2572 3713 1747 
Q 3713 922 3314 415 
Q 2916 -91 2278 -91 
Q 1894 -91 1617 61 
Q 1341 213 1159 525 
z
M 3116 1747 
Q 3116 2381 2855 2742 
Q 2594 3103 2138 3103 
Q 1681 3103 1420 2742 
Q 1159 2381 1159 1747 
Q 1159 1113 1420 752 
Q 1681 391 2138 391 
Q 2594 391 2855 752 
Q 3116 1113 3116 1747 
z
" transform="scale(0.015625)"/>
       <path id="DejaVuSans-69" d="M 603 3500 
L 1178 3500 
L 1178 0 
L 603 0 
L 603 3500 
z
M 603 4863 
L 1178 4863 
L 1178 4134 
L 603 4134 
L 603 4863 
z
" transform="scale(0.015625)"/>
       <path id="DejaVuSans-73" d="M 2834 3397 
L 2834 2853 
Q 2591 2978 2328 3040 
Q 2066 3103 1784 3103 
Q 1356 3103 1142 2972 
Q 928 2841 928 2578 
Q 928 2378 1081 2264 
Q 1234 2150 1697 2047 
L 1894 2003 
Q 2506 1872 2764 1633 
Q 3022 1394 3022 966 
Q 3022 478 2636 193 
Q 2250 -91 1575 -91 
Q 1294 -91 989 -36 
Q 684 19 347 128 
L 347 722 
Q 666 556 975 473 
Q 1284 391 1588 391 
Q 1994 391 2212 530 
Q 2431 669 2431 922 
Q 2431 1156 2273 1281 
Q 2116 1406 1581 1522 
L 1381 1569 
Q 847 1681 609 1914 
Q 372 2147 372 2553 
Q 372 3047 722 3315 
Q 1072 3584 1716 3584 
Q 2034 3584 2315 3537 
Q 2597 3491 2834 3397 
z
" transform="scale(0.015625)"/>
       <path id="DejaVuSans-6f" d="M 1959 3097 
Q 1497 3097 1228 2736 
Q 959 2375 959 1747 
Q 959 1119 1226 758 
Q 1494 397 1959 397 
Q 2419 397 2687 759 
Q 2956 1122 2956 1747 
Q 2956 2369 2687 2733 
Q 2419 3097 1959 3097 
z
M 1959 3584 
Q 2709 3584 3137 3096 
Q 3566 2609 3566 1747 
Q 3566 888 3137 398 
Q 2709 -91 1959 -91 
Q 1206 -91 779 398 
Q 353 888 353 1747 
Q 353 2609 779 3096 
Q 1206 3584 1959 3584 
z
" transform="scale(0.015625)"/>
      </defs>
      <use xlink:href="#DejaVuSans-4c"/>
      <use xlink:href="#DejaVuSans-65" x="53.962891"/>
      <use xlink:href="#DejaVuSans-61" x="115.486328"/>
      <use xlink:href="#DejaVuSans-72" x="176.765625"/>
      <use xlink:href="#DejaVuSans-6e" x="216.128906"/>
      <use xlink:href="#DejaVuSans-65" x="279.507812"/>
      <use xlink:href="#DejaVuSans-64" x="341.03125"/>
      <use xlink:href="#DejaVuSans-20" x="404.507812"/>
      <use xlink:href="#DejaVuSans-45" x="436.294922"/>
      <use xlink:href="#DejaVuSans-70" x="499.478516"/>
      <use xlink:href="#DejaVuSans-69" x="562.955078"/>
      <use xlink:href="#DejaVuSans-73" x="590.738281"/>
      <use xlink:href="#DejaVuSans-6f" x="642.837891"/>
      <use xlink:href="#DejaVuSans-64" x="704.019531"/>
      <use xlink:href="#DejaVuSans-65" x="767.496094"/>
      <use xlink:href="#DejaVuSans-73" x="829.019531"/>
     </g>
    </g>
   </g>
   <g id="matplotlib.axis_2">
    <g id="ytick_1">
     <g id="line2d_19">
      <path d="M 57.6 295.488 
L 414.72 295.488 
" clip-path="url(#pdcd4131e95)" style="fill: none; stroke-dasharray: 2.96,1.28; stroke-dashoffset: 0; stroke: #b0b0b0; stroke-width: 0.8"/>
     </g>
     <g id="line2d_20">
      <defs>
       <path id="mde64cb3976" d="M 0 0 
L -3.5 0 
" style="stroke: #000000; stroke-width: 0.8"/>
      </defs>
      <g>
       <use xlink:href="#mde64cb3976" x="57.6" y="295.488" style="stroke: #000000; stroke-width: 0.8"/>
      </g>
     </g>
     <g id="text_11">
      <!-- 0.0 -->
      <g transform="translate(34.696875 299.287219)scale(0.1 -0.1)">
       <defs>
        <path id="DejaVuSans-2e" d="M 684 794 
L 1344 794 
L 1344 0 
L 684 0 
L 684 794 
z
" transform="scale(0.015625)"/>
       </defs>
       <use xlink:href="#DejaVuSans-30"/>
       <use xlink:href="#DejaVuSans-2e" x="63.623047"/>
       <use xlink:href="#DejaVuSans-30" x="95.410156"/>
      </g>
     </g>
    </g>
    <g id="ytick_2">
     <g id="line2d_21">
      <path d="M 57.6 257.62081 
L 414.72 257.62081 
" clip-path="url(#pdcd4131e95)" style="fill: none; stroke-dasharray: 2.96,1.28; stroke-dashoffset: 0; stroke: #b0b0b0; stroke-width: 0.8"/>
     </g>
     <g id="line2d_22">
      <g>
       <use xlink:href="#mde64cb3976" x="57.6" y="257.62081" style="stroke: #000000; stroke-width: 0.8"/>
      </g>
     </g>
     <g id="text_12">
      <!-- 0.2 -->
      <g transform="translate(34.696875 261.420028)scale(0.1 -0.1)">
       <use xlink:href="#DejaVuSans-30"/>
       <use xlink:href="#DejaVuSans-2e" x="63.623047"/>
       <use xlink:href="#DejaVuSans-32" x="95.410156"/>
      </g>
     </g>
    </g>
    <g id="ytick_3">
     <g id="line2d_23">
      <path d="M 57.6 219.753619 
L 414.72 219.753619 
" clip-path="url(#pdcd4131e95)" style="fill: none; stroke-dasharray: 2.96,1.28; stroke-dashoffset: 0; stroke: #b0b0b0; stroke-width: 0.8"/>
     </g>
     <g id="line2d_24">
      <g>
       <use xlink:href="#mde64cb3976" x="57.6" y="219.753619" style="stroke: #000000; stroke-width: 0.8"/>
      </g>
     </g>
     <g id="text_13">
      <!-- 0.4 -->
      <g transform="translate(34.696875 223.552838)scale(0.1 -0.1)">
       <defs>
        <path id="DejaVuSans-34" d="M 2419 4116 
L 825 1625 
L 2419 1625 
L 2419 4116 
z
M 2253 4666 
L 3047 4666 
L 3047 1625 
L 3713 1625 
L 3713 1100 
L 3047 1100 
L 3047 0 
L 2419 0 
L 2419 1100 
L 313 1100 
L 313 1709 
L 2253 4666 
z
" transform="scale(0.015625)"/>
       </defs>
       <use xlink:href="#DejaVuSans-30"/>
       <use xlink:href="#DejaVuSans-2e" x="63.623047"/>
       <use xlink:href="#DejaVuSans-34" x="95.410156"/>
      </g>
     </g>
    </g>
    <g id="ytick_4">
     <g id="line2d_25">
      <path d="M 57.6 181.886429 
L 414.72 181.886429 
" clip-path="url(#pdcd4131e95)" style="fill: none; stroke-dasharray: 2.96,1.28; stroke-dashoffset: 0; stroke: #b0b0b0; stroke-width: 0.8"/>
     </g>
     <g id="line2d_26">
      <g>
       <use xlink:href="#mde64cb3976" x="57.6" y="181.886429" style="stroke: #000000; stroke-width: 0.8"/>
      </g>
     </g>
     <g id="text_14">
      <!-- 0.6 -->
      <g transform="translate(34.696875 185.685647)scale(0.1 -0.1)">
       <defs>
        <path id="DejaVuSans-36" d="M 2113 2584 
Q 1688 2584 1439 2293 
Q 1191 2003 1191 1497 
Q 1191 994 1439 701 
Q 1688 409 2113 409 
Q 2538 409 2786 701 
Q 3034 994 3034 1497 
Q 3034 2003 2786 2293 
Q 2538 2584 2113 2584 
z
M 3366 4563 
L 3366 3988 
Q 3128 4100 2886 4159 
Q 2644 4219 2406 4219 
Q 1781 4219 1451 3797 
Q 1122 3375 1075 2522 
Q 1259 2794 1537 2939 
Q 1816 3084 2150 3084 
Q 2853 3084 3261 2657 
Q 3669 2231 3669 1497 
Q 3669 778 3244 343 
Q 2819 -91 2113 -91 
Q 1303 -91 875 529 
Q 447 1150 447 2328 
Q 447 3434 972 4092 
Q 1497 4750 2381 4750 
Q 2619 4750 2861 4703 
Q 3103 4656 3366 4563 
z
" transform="scale(0.015625)"/>
       </defs>
       <use xlink:href="#DejaVuSans-30"/>
       <use xlink:href="#DejaVuSans-2e" x="63.623047"/>
       <use xlink:href="#DejaVuSans-36" x="95.410156"/>
      </g>
     </g>
    </g>
    <g id="ytick_5">
     <g id="line2d_27">
      <path d="M 57.6 144.019238 
L 414.72 144.019238 
" clip-path="url(#pdcd4131e95)" style="fill: none; stroke-dasharray: 2.96,1.28; stroke-dashoffset: 0; stroke: #b0b0b0; stroke-width: 0.8"/>
     </g>
     <g id="line2d_28">
      <g>
       <use xlink:href="#mde64cb3976" x="57.6" y="144.019238" style="stroke: #000000; stroke-width: 0.8"/>
      </g>
     </g>
     <g id="text_15">
      <!-- 0.8 -->
      <g transform="translate(34.696875 147.818457)scale(0.1 -0.1)">
       <defs>
        <path id="DejaVuSans-38" d="M 2034 2216 
Q 1584 2216 1326 1975 
Q 1069 1734 1069 1313 
Q 1069 891 1326 650 
Q 1584 409 2034 409 
Q 2484 409 2743 651 
Q 3003 894 3003 1313 
Q 3003 1734 2745 1975 
Q 2488 2216 2034 2216 
z
M 1403 2484 
Q 997 2584 770 2862 
Q 544 3141 544 3541 
Q 544 4100 942 4425 
Q 1341 4750 2034 4750 
Q 2731 4750 3128 4425 
Q 3525 4100 3525 3541 
Q 3525 3141 3298 2862 
Q 3072 2584 2669 2484 
Q 3125 2378 3379 2068 
Q 3634 1759 3634 1313 
Q 3634 634 3220 271 
Q 2806 -91 2034 -91 
Q 1263 -91 848 271 
Q 434 634 434 1313 
Q 434 1759 690 2068 
Q 947 2378 1403 2484 
z
M 1172 3481 
Q 1172 3119 1398 2916 
Q 1625 2713 2034 2713 
Q 2441 2713 2670 2916 
Q 2900 3119 2900 3481 
Q 2900 3844 2670 4047 
Q 2441 4250 2034 4250 
Q 1625 4250 1398 4047 
Q 1172 3844 1172 3481 
z
" transform="scale(0.015625)"/>
       </defs>
       <use xlink:href="#DejaVuSans-30"/>
       <use xlink:href="#DejaVuSans-2e" x="63.623047"/>
       <use xlink:href="#DejaVuSans-38" x="95.410156"/>
      </g>
     </g>
    </g>
    <g id="ytick_6">
     <g id="line2d_29">
      <path d="M 57.6 106.152048 
L 414.72 106.152048 
" clip-path="url(#pdcd4131e95)" style="fill: none; stroke-dasharray: 2.96,1.28; stroke-dashoffset: 0; stroke: #b0b0b0; stroke-width: 0.8"/>
     </g>
     <g id="line2d_30">
      <g>
       <use xlink:href="#mde64cb3976" x="57.6" y="106.152048" style="stroke: #000000; stroke-width: 0.8"/>
      </g>
     </g>
     <g id="text_16">
      <!-- 1.0 -->
      <g transform="translate(34.696875 109.951267)scale(0.1 -0.1)">
       <use xlink:href="#DejaVuSans-31"/>
       <use xlink:href="#DejaVuSans-2e" x="63.623047"/>
       <use xlink:href="#DejaVuSans-30" x="95.410156"/>
      </g>
     </g>
    </g>
    <g id="ytick_7">
     <g id="line2d_31">
      <path d="M 57.6 68.284857 
L 414.72 68.284857 
" clip-path="url(#pdcd4131e95)" style="fill: none; stroke-dasharray: 2.96,1.28; stroke-dashoffset: 0; stroke: #b0b0b0; stroke-width: 0.8"/>
     </g>
     <g id="line2d_32">
      <g>
       <use xlink:href="#mde64cb3976" x="57.6" y="68.284857" style="stroke: #000000; stroke-width: 0.8"/>
      </g>
     </g>
     <g id="text_17">
      <!-- 1.2 -->
      <g transform="translate(34.696875 72.084076)scale(0.1 -0.1)">
       <use xlink:href="#DejaVuSans-31"/>
       <use xlink:href="#DejaVuSans-2e" x="63.623047"/>
       <use xlink:href="#DejaVuSans-32" x="95.410156"/>
      </g>
     </g>
    </g>
    <g id="text_18">
     <!-- Reward Density -->
     <g transform="translate(28.617187 213.74675)rotate(-90)scale(0.1 -0.1)">
      <defs>
       <path id="DejaVuSans-52" d="M 2841 2188 
Q 3044 2119 3236 1894 
Q 3428 1669 3622 1275 
L 4263 0 
L 3584 0 
L 2988 1197 
Q 2756 1666 2539 1819 
Q 2322 1972 1947 1972 
L 1259 1972 
L 1259 0 
L 628 0 
L 628 4666 
L 2053 4666 
Q 2853 4666 3247 4331 
Q 3641 3997 3641 3322 
Q 3641 2881 3436 2590 
Q 3231 2300 2841 2188 
z
M 1259 4147 
L 1259 2491 
L 2053 2491 
Q 2509 2491 2742 2702 
Q 2975 2913 2975 3322 
Q 2975 3731 2742 3939 
Q 2509 4147 2053 4147 
L 1259 4147 
z
" transform="scale(0.015625)"/>
       <path id="DejaVuSans-77" d="M 269 3500 
L 844 3500 
L 1563 769 
L 2278 3500 
L 2956 3500 
L 3675 769 
L 4391 3500 
L 4966 3500 
L 4050 0 
L 3372 0 
L 2619 2869 
L 1863 0 
L 1184 0 
L 269 3500 
z
" transform="scale(0.015625)"/>
       <path id="DejaVuSans-44" d="M 1259 4147 
L 1259 519 
L 2022 519 
Q 2988 519 3436 956 
Q 3884 1394 3884 2338 
Q 3884 3275 3436 3711 
Q 2988 4147 2022 4147 
L 1259 4147 
z
M 628 4666 
L 1925 4666 
Q 3281 4666 3915 4102 
Q 4550 3538 4550 2338 
Q 4550 1131 3912 565 
Q 3275 0 1925 0 
L 628 0 
L 628 4666 
z
" transform="scale(0.015625)"/>
       <path id="DejaVuSans-74" d="M 1172 4494 
L 1172 3500 
L 2356 3500 
L 2356 3053 
L 1172 3053 
L 1172 1153 
Q 1172 725 1289 603 
Q 1406 481 1766 481 
L 2356 481 
L 2356 0 
L 1766 0 
Q 1100 0 847 248 
Q 594 497 594 1153 
L 594 3053 
L 172 3053 
L 172 3500 
L 594 3500 
L 594 4494 
L 1172 4494 
z
" transform="scale(0.015625)"/>
       <path id="DejaVuSans-79" d="M 2059 -325 
Q 1816 -950 1584 -1140 
Q 1353 -1331 966 -1331 
L 506 -1331 
L 506 -850 
L 844 -850 
Q 1081 -850 1212 -737 
Q 1344 -625 1503 -206 
L 1606 56 
L 191 3500 
L 800 3500 
L 1894 763 
L 2988 3500 
L 3597 3500 
L 2059 -325 
z
" transform="scale(0.015625)"/>
      </defs>
      <use xlink:href="#DejaVuSans-52"/>
      <use xlink:href="#DejaVuSans-65" x="64.982422"/>
      <use xlink:href="#DejaVuSans-77" x="126.505859"/>
      <use xlink:href="#DejaVuSans-61" x="208.292969"/>
      <use xlink:href="#DejaVuSans-72" x="269.572266"/>
      <use xlink:href="#DejaVuSans-64" x="308.935547"/>
      <use xlink:href="#DejaVuSans-20" x="372.412109"/>
      <use xlink:href="#DejaVuSans-44" x="404.199219"/>
      <use xlink:href="#DejaVuSans-65" x="481.201172"/>
      <use xlink:href="#DejaVuSans-6e" x="542.724609"/>
      <use xlink:href="#DejaVuSans-73" x="606.103516"/>
      <use xlink:href="#DejaVuSans-69" x="658.203125"/>
      <use xlink:href="#DejaVuSans-74" x="685.986328"/>
      <use xlink:href="#DejaVuSans-79" x="725.195312"/>
     </g>
    </g>
   </g>
   <g id="LineCollection_1">
    <path d="M 90.893768 214.3715 
L 125.01585 214.3715 
" clip-path="url(#pdcd4131e95)" style="fill: none; stroke: #1f77b4; stroke-width: 1.5"/>
    <path d="M 176.198972 232.063262 
L 210.321054 232.063262 
" clip-path="url(#pdcd4131e95)" style="fill: none; stroke: #1f77b4; stroke-width: 1.5"/>
    <path d="M 261.504176 218.690407 
L 295.626258 218.690407 
" clip-path="url(#pdcd4131e95)" style="fill: none; stroke: #1f77b4; stroke-width: 1.5"/>
    <path d="M 346.80938 231.055656 
L 380.931462 231.055656 
" clip-path="url(#pdcd4131e95)" style="fill: none; stroke: #1f77b4; stroke-width: 1.5"/>
    <path d="M 347.30415 237.033277 
L 381.426232 237.033277 
" clip-path="url(#pdcd4131e95)" style="fill: none; stroke: #1f77b4; stroke-width: 1.5"/>
   </g>
   <g id="LineCollection_2">
    <path d="M 90.893768 108.481233 
L 125.01585 108.481233 
" clip-path="url(#pdcd4131e95)" style="fill: none; stroke: #1f77b4; stroke-width: 1.5"/>
    <path d="M 176.198972 86.57986 
L 210.321054 86.57986 
" clip-path="url(#pdcd4131e95)" style="fill: none; stroke: #1f77b4; stroke-width: 1.5"/>
    <path d="M 261.504176 66.926288 
L 295.626258 66.926288 
" clip-path="url(#pdcd4131e95)" style="fill: none; stroke: #1f77b4; stroke-width: 1.5"/>
    <path d="M 346.80938 72.846691 
L 380.931462 72.846691 
" clip-path="url(#pdcd4131e95)" style="fill: none; stroke: #1f77b4; stroke-width: 1.5"/>
    <path d="M 347.30415 53.568 
L 381.426232 53.568 
" clip-path="url(#pdcd4131e95)" style="fill: none; stroke: #1f77b4; stroke-width: 1.5"/>
   </g>
   <g id="LineCollection_3">
    <path d="M 90.893768 286.41466 
L 125.01585 286.41466 
" clip-path="url(#pdcd4131e95)" style="fill: none; stroke: #1f77b4; stroke-width: 1.5"/>
    <path d="M 176.198972 295.488 
L 210.321054 295.488 
" clip-path="url(#pdcd4131e95)" style="fill: none; stroke: #1f77b4; stroke-width: 1.5"/>
    <path d="M 261.504176 292.537719 
L 295.626258 292.537719 
" clip-path="url(#pdcd4131e95)" style="fill: none; stroke: #1f77b4; stroke-width: 1.5"/>
    <path d="M 346.80938 294.593541 
L 380.931462 294.593541 
" clip-path="url(#pdcd4131e95)" style="fill: none; stroke: #1f77b4; stroke-width: 1.5"/>
    <path d="M 347.30415 295.488 
L 381.426232 295.488 
" clip-path="url(#pdcd4131e95)" style="fill: none; stroke: #1f77b4; stroke-width: 1.5"/>
   </g>
   <g id="LineCollection_4">
    <path d="M 107.954809 286.41466 
L 107.954809 108.481233 
" clip-path="url(#pdcd4131e95)" style="fill: none; stroke: #1f77b4; stroke-width: 1.5"/>
    <path d="M 193.260013 295.488 
L 193.260013 86.57986 
" clip-path="url(#pdcd4131e95)" style="fill: none; stroke: #1f77b4; stroke-width: 1.5"/>
    <path d="M 278.565217 292.537719 
L 278.565217 66.926288 
" clip-path="url(#pdcd4131e95)" style="fill: none; stroke: #1f77b4; stroke-width: 1.5"/>
    <path d="M 363.870421 294.593541 
L 363.870421 72.846691 
" clip-path="url(#pdcd4131e95)" style="fill: none; stroke: #1f77b4; stroke-width: 1.5"/>
    <path d="M 364.365191 295.488 
L 364.365191 53.568 
" clip-path="url(#pdcd4131e95)" style="fill: none; stroke: #1f77b4; stroke-width: 1.5"/>
   </g>
   <g id="line2d_33">
    <path d="M 107.954809 214.3715 
L 193.260013 232.063262 
L 278.565217 218.690407 
L 363.870421 231.055656 
L 364.365191 237.033277 
" clip-path="url(#pdcd4131e95)" style="fill: none; stroke: #4682b4; stroke-width: 1.5; stroke-linecap: square"/>
   </g>
   <g id="line2d_34">
    <path d="M 107.954809 214.3715 
L 193.260013 232.063262 
L 278.565217 218.690407 
L 363.870421 231.055656 
L 364.365191 237.033277 
" clip-path="url(#pdcd4131e95)" style="fill: none; stroke: #4682b4; stroke-width: 1.5; stroke-linecap: square"/>
   </g>
   <g id="patch_3">
    <path d="M 57.6 307.584 
L 57.6 41.472 
" style="fill: none; stroke: #000000; stroke-width: 0.8; stroke-linejoin: miter; stroke-linecap: square"/>
   </g>
   <g id="patch_4">
    <path d="M 414.72 307.584 
L 414.72 41.472 
" style="fill: none; stroke: #000000; stroke-width: 0.8; stroke-linejoin: miter; stroke-linecap: square"/>
   </g>
   <g id="patch_5">
    <path d="M 57.6 307.584 
L 414.72 307.584 
" style="fill: none; stroke: #000000; stroke-width: 0.8; stroke-linejoin: miter; stroke-linecap: square"/>
   </g>
   <g id="patch_6">
    <path d="M 57.6 41.472 
L 414.72 41.472 
" style="fill: none; stroke: #000000; stroke-width: 0.8; stroke-linejoin: miter; stroke-linecap: square"/>
   </g>
   <g id="text_19">
    <!-- Violinplot for progress of actions/price_rebuy -->
    <g transform="translate(101.925 35.472)scale(0.12 -0.12)">
     <defs>
      <path id="DejaVuSans-56" d="M 1831 0 
L 50 4666 
L 709 4666 
L 2188 738 
L 3669 4666 
L 4325 4666 
L 2547 0 
L 1831 0 
z
" transform="scale(0.015625)"/>
      <path id="DejaVuSans-6c" d="M 603 4863 
L 1178 4863 
L 1178 0 
L 603 0 
L 603 4863 
z
" transform="scale(0.015625)"/>
      <path id="DejaVuSans-66" d="M 2375 4863 
L 2375 4384 
L 1825 4384 
Q 1516 4384 1395 4259 
Q 1275 4134 1275 3809 
L 1275 3500 
L 2222 3500 
L 2222 3053 
L 1275 3053 
L 1275 0 
L 697 0 
L 697 3053 
L 147 3053 
L 147 3500 
L 697 3500 
L 697 3744 
Q 697 4328 969 4595 
Q 1241 4863 1831 4863 
L 2375 4863 
z
" transform="scale(0.015625)"/>
      <path id="DejaVuSans-67" d="M 2906 1791 
Q 2906 2416 2648 2759 
Q 2391 3103 1925 3103 
Q 1463 3103 1205 2759 
Q 947 2416 947 1791 
Q 947 1169 1205 825 
Q 1463 481 1925 481 
Q 2391 481 2648 825 
Q 2906 1169 2906 1791 
z
M 3481 434 
Q 3481 -459 3084 -895 
Q 2688 -1331 1869 -1331 
Q 1566 -1331 1297 -1286 
Q 1028 -1241 775 -1147 
L 775 -588 
Q 1028 -725 1275 -790 
Q 1522 -856 1778 -856 
Q 2344 -856 2625 -561 
Q 2906 -266 2906 331 
L 2906 616 
Q 2728 306 2450 153 
Q 2172 0 1784 0 
Q 1141 0 747 490 
Q 353 981 353 1791 
Q 353 2603 747 3093 
Q 1141 3584 1784 3584 
Q 2172 3584 2450 3431 
Q 2728 3278 2906 2969 
L 2906 3500 
L 3481 3500 
L 3481 434 
z
" transform="scale(0.015625)"/>
      <path id="DejaVuSans-63" d="M 3122 3366 
L 3122 2828 
Q 2878 2963 2633 3030 
Q 2388 3097 2138 3097 
Q 1578 3097 1268 2742 
Q 959 2388 959 1747 
Q 959 1106 1268 751 
Q 1578 397 2138 397 
Q 2388 397 2633 464 
Q 2878 531 3122 666 
L 3122 134 
Q 2881 22 2623 -34 
Q 2366 -91 2075 -91 
Q 1284 -91 818 406 
Q 353 903 353 1747 
Q 353 2603 823 3093 
Q 1294 3584 2113 3584 
Q 2378 3584 2631 3529 
Q 2884 3475 3122 3366 
z
" transform="scale(0.015625)"/>
      <path id="DejaVuSans-2f" d="M 1625 4666 
L 2156 4666 
L 531 -594 
L 0 -594 
L 1625 4666 
z
" transform="scale(0.015625)"/>
      <path id="DejaVuSans-5f" d="M 3263 -1063 
L 3263 -1509 
L -63 -1509 
L -63 -1063 
L 3263 -1063 
z
" transform="scale(0.015625)"/>
      <path id="DejaVuSans-62" d="M 3116 1747 
Q 3116 2381 2855 2742 
Q 2594 3103 2138 3103 
Q 1681 3103 1420 2742 
Q 1159 2381 1159 1747 
Q 1159 1113 1420 752 
Q 1681 391 2138 391 
Q 2594 391 2855 752 
Q 3116 1113 3116 1747 
z
M 1159 2969 
Q 1341 3281 1617 3432 
Q 1894 3584 2278 3584 
Q 2916 3584 3314 3078 
Q 3713 2572 3713 1747 
Q 3713 922 3314 415 
Q 2916 -91 2278 -91 
Q 1894 -91 1617 61 
Q 1341 213 1159 525 
L 1159 0 
L 581 0 
L 581 4863 
L 1159 4863 
L 1159 2969 
z
" transform="scale(0.015625)"/>
      <path id="DejaVuSans-75" d="M 544 1381 
L 544 3500 
L 1119 3500 
L 1119 1403 
Q 1119 906 1312 657 
Q 1506 409 1894 409 
Q 2359 409 2629 706 
Q 2900 1003 2900 1516 
L 2900 3500 
L 3475 3500 
L 3475 0 
L 2900 0 
L 2900 538 
Q 2691 219 2414 64 
Q 2138 -91 1772 -91 
Q 1169 -91 856 284 
Q 544 659 544 1381 
z
M 1991 3584 
L 1991 3584 
z
" transform="scale(0.015625)"/>
     </defs>
     <use xlink:href="#DejaVuSans-56"/>
     <use xlink:href="#DejaVuSans-69" x="66.158203"/>
     <use xlink:href="#DejaVuSans-6f" x="93.941406"/>
     <use xlink:href="#DejaVuSans-6c" x="155.123047"/>
     <use xlink:href="#DejaVuSans-69" x="182.90625"/>
     <use xlink:href="#DejaVuSans-6e" x="210.689453"/>
     <use xlink:href="#DejaVuSans-70" x="274.068359"/>
     <use xlink:href="#DejaVuSans-6c" x="337.544922"/>
     <use xlink:href="#DejaVuSans-6f" x="365.328125"/>
     <use xlink:href="#DejaVuSans-74" x="426.509766"/>
     <use xlink:href="#DejaVuSans-20" x="465.71875"/>
     <use xlink:href="#DejaVuSans-66" x="497.505859"/>
     <use xlink:href="#DejaVuSans-6f" x="532.710938"/>
     <use xlink:href="#DejaVuSans-72" x="593.892578"/>
     <use xlink:href="#DejaVuSans-20" x="635.005859"/>
     <use xlink:href="#DejaVuSans-70" x="666.792969"/>
     <use xlink:href="#DejaVuSans-72" x="730.269531"/>
     <use xlink:href="#DejaVuSans-6f" x="769.132812"/>
     <use xlink:href="#DejaVuSans-67" x="830.314453"/>
     <use xlink:href="#DejaVuSans-72" x="893.791016"/>
     <use xlink:href="#DejaVuSans-65" x="932.654297"/>
     <use xlink:href="#DejaVuSans-73" x="994.177734"/>
     <use xlink:href="#DejaVuSans-73" x="1046.277344"/>
     <use xlink:href="#DejaVuSans-20" x="1098.376953"/>
     <use xlink:href="#DejaVuSans-6f" x="1130.164062"/>
     <use xlink:href="#DejaVuSans-66" x="1191.345703"/>
     <use xlink:href="#DejaVuSans-20" x="1226.550781"/>
     <use xlink:href="#DejaVuSans-61" x="1258.337891"/>
     <use xlink:href="#DejaVuSans-63" x="1319.617188"/>
     <use xlink:href="#DejaVuSans-74" x="1374.597656"/>
     <use xlink:href="#DejaVuSans-69" x="1413.806641"/>
     <use xlink:href="#DejaVuSans-6f" x="1441.589844"/>
     <use xlink:href="#DejaVuSans-6e" x="1502.771484"/>
     <use xlink:href="#DejaVuSans-73" x="1566.150391"/>
     <use xlink:href="#DejaVuSans-2f" x="1618.25"/>
     <use xlink:href="#DejaVuSans-70" x="1651.941406"/>
     <use xlink:href="#DejaVuSans-72" x="1715.417969"/>
     <use xlink:href="#DejaVuSans-69" x="1756.53125"/>
     <use xlink:href="#DejaVuSans-63" x="1784.314453"/>
     <use xlink:href="#DejaVuSans-65" x="1839.294922"/>
     <use xlink:href="#DejaVuSans-5f" x="1900.818359"/>
     <use xlink:href="#DejaVuSans-72" x="1950.818359"/>
     <use xlink:href="#DejaVuSans-65" x="1989.681641"/>
     <use xlink:href="#DejaVuSans-62" x="2051.205078"/>
     <use xlink:href="#DejaVuSans-75" x="2114.681641"/>
     <use xlink:href="#DejaVuSans-79" x="2178.060547"/>
    </g>
   </g>
   <g id="legend_1">
    <g id="patch_7">
     <path d="M 276.504375 64.150125 
L 407.72 64.150125 
Q 409.72 64.150125 409.72 62.150125 
L 409.72 48.472 
Q 409.72 46.472 407.72 46.472 
L 276.504375 46.472 
Q 274.504375 46.472 274.504375 48.472 
L 274.504375 62.150125 
Q 274.504375 64.150125 276.504375 64.150125 
z
" style="fill: #ffffff; opacity: 0.8; stroke: #cccccc; stroke-linejoin: miter"/>
    </g>
    <g id="line2d_35">
     <path d="M 278.504375 54.570438 
L 288.504375 54.570438 
L 298.504375 54.570438 
" style="fill: none; stroke: #4682b4; stroke-width: 1.5; stroke-linecap: square"/>
    </g>
    <g id="text_20">
     <!-- StableBaselinesPPO -->
     <g transform="translate(306.504375 58.070438)scale(0.1 -0.1)">
      <defs>
       <path id="DejaVuSans-53" d="M 3425 4513 
L 3425 3897 
Q 3066 4069 2747 4153 
Q 2428 4238 2131 4238 
Q 1616 4238 1336 4038 
Q 1056 3838 1056 3469 
Q 1056 3159 1242 3001 
Q 1428 2844 1947 2747 
L 2328 2669 
Q 3034 2534 3370 2195 
Q 3706 1856 3706 1288 
Q 3706 609 3251 259 
Q 2797 -91 1919 -91 
Q 1588 -91 1214 -16 
Q 841 59 441 206 
L 441 856 
Q 825 641 1194 531 
Q 1563 422 1919 422 
Q 2459 422 2753 634 
Q 3047 847 3047 1241 
Q 3047 1584 2836 1778 
Q 2625 1972 2144 2069 
L 1759 2144 
Q 1053 2284 737 2584 
Q 422 2884 422 3419 
Q 422 4038 858 4394 
Q 1294 4750 2059 4750 
Q 2388 4750 2728 4690 
Q 3069 4631 3425 4513 
z
" transform="scale(0.015625)"/>
       <path id="DejaVuSans-42" d="M 1259 2228 
L 1259 519 
L 2272 519 
Q 2781 519 3026 730 
Q 3272 941 3272 1375 
Q 3272 1813 3026 2020 
Q 2781 2228 2272 2228 
L 1259 2228 
z
M 1259 4147 
L 1259 2741 
L 2194 2741 
Q 2656 2741 2882 2914 
Q 3109 3088 3109 3444 
Q 3109 3797 2882 3972 
Q 2656 4147 2194 4147 
L 1259 4147 
z
M 628 4666 
L 2241 4666 
Q 2963 4666 3353 4366 
Q 3744 4066 3744 3513 
Q 3744 3084 3544 2831 
Q 3344 2578 2956 2516 
Q 3422 2416 3680 2098 
Q 3938 1781 3938 1306 
Q 3938 681 3513 340 
Q 3088 0 2303 0 
L 628 0 
L 628 4666 
z
" transform="scale(0.015625)"/>
       <path id="DejaVuSans-50" d="M 1259 4147 
L 1259 2394 
L 2053 2394 
Q 2494 2394 2734 2622 
Q 2975 2850 2975 3272 
Q 2975 3691 2734 3919 
Q 2494 4147 2053 4147 
L 1259 4147 
z
M 628 4666 
L 2053 4666 
Q 2838 4666 3239 4311 
Q 3641 3956 3641 3272 
Q 3641 2581 3239 2228 
Q 2838 1875 2053 1875 
L 1259 1875 
L 1259 0 
L 628 0 
L 628 4666 
z
" transform="scale(0.015625)"/>
       <path id="DejaVuSans-4f" d="M 2522 4238 
Q 1834 4238 1429 3725 
Q 1025 3213 1025 2328 
Q 1025 1447 1429 934 
Q 1834 422 2522 422 
Q 3209 422 3611 934 
Q 4013 1447 4013 2328 
Q 4013 3213 3611 3725 
Q 3209 4238 2522 4238 
z
M 2522 4750 
Q 3503 4750 4090 4092 
Q 4678 3434 4678 2328 
Q 4678 1225 4090 567 
Q 3503 -91 2522 -91 
Q 1538 -91 948 565 
Q 359 1222 359 2328 
Q 359 3434 948 4092 
Q 1538 4750 2522 4750 
z
" transform="scale(0.015625)"/>
      </defs>
      <use xlink:href="#DejaVuSans-53"/>
      <use xlink:href="#DejaVuSans-74" x="63.476562"/>
      <use xlink:href="#DejaVuSans-61" x="102.685547"/>
      <use xlink:href="#DejaVuSans-62" x="163.964844"/>
      <use xlink:href="#DejaVuSans-6c" x="227.441406"/>
      <use xlink:href="#DejaVuSans-65" x="255.224609"/>
      <use xlink:href="#DejaVuSans-42" x="316.748047"/>
      <use xlink:href="#DejaVuSans-61" x="385.351562"/>
      <use xlink:href="#DejaVuSans-73" x="446.630859"/>
      <use xlink:href="#DejaVuSans-65" x="498.730469"/>
      <use xlink:href="#DejaVuSans-6c" x="560.253906"/>
      <use xlink:href="#DejaVuSans-69" x="588.037109"/>
      <use xlink:href="#DejaVuSans-6e" x="615.820312"/>
      <use xlink:href="#DejaVuSans-65" x="679.199219"/>
      <use xlink:href="#DejaVuSans-73" x="740.722656"/>
      <use xlink:href="#DejaVuSans-50" x="792.822266"/>
      <use xlink:href="#DejaVuSans-50" x="853.125"/>
      <use xlink:href="#DejaVuSans-4f" x="913.427734"/>
     </g>
    </g>
   </g>
  </g>
 </g>
 <defs>
  <clipPath id="pdcd4131e95">
   <rect x="57.6" y="41.472" width="357.12" height="266.112"/>
  </clipPath>
 </defs>
</svg>
