<?xml version="1.0" encoding="utf-8" standalone="no"?>
<!DOCTYPE svg PUBLIC "-//W3C//DTD SVG 1.1//EN"
  "http://www.w3.org/Graphics/SVG/1.1/DTD/svg11.dtd">
<svg xmlns:xlink="http://www.w3.org/1999/xlink" width="460.8pt" height="345.6pt" viewBox="0 0 460.8 345.6" xmlns="http://www.w3.org/2000/svg" version="1.1">
 <metadata>
  <rdf:RDF xmlns:dc="http://purl.org/dc/elements/1.1/" xmlns:cc="http://creativecommons.org/ns#" xmlns:rdf="http://www.w3.org/1999/02/22-rdf-syntax-ns#">
   <cc:Work>
    <dc:type rdf:resource="http://purl.org/dc/dcmitype/StillImage"/>
    <dc:date>2022-06-21T20:54:25.330556</dc:date>
    <dc:format>image/svg+xml</dc:format>
    <dc:creator>
     <cc:Agent>
      <dc:title>Matplotlib v3.5.2, https://matplotlib.org/</dc:title>
     </cc:Agent>
    </dc:creator>
   </cc:Work>
  </rdf:RDF>
 </metadata>
 <defs>
  <style type="text/css">*{stroke-linejoin: round; stroke-linecap: butt}</style>
 </defs>
 <g id="figure_1">
  <g id="patch_1">
   <path d="M 0 345.6 
L 460.8 345.6 
L 460.8 0 
L 0 0 
z
" style="fill: #ffffff"/>
  </g>
  <g id="axes_1">
   <g id="patch_2">
    <path d="M 57.6 307.584 
L 414.72 307.584 
L 414.72 41.472 
L 57.6 41.472 
z
" style="fill: #ffffff"/>
   </g>
   <g id="PolyCollection_1">
    <path d="M 109.96851 295.488 
L 105.941107 295.488 
L 105.584868 293.592075 
L 105.203466 291.69615 
L 104.791748 289.800226 
L 104.340795 287.904301 
L 103.839208 286.008376 
L 103.275355 284.112451 
L 102.640124 282.216527 
L 101.929491 280.320602 
L 101.146245 278.424677 
L 100.300366 276.528752 
L 99.407887 274.632828 
L 98.488458 272.736903 
L 97.562142 270.840978 
L 96.646148 268.945053 
L 95.752159 267.049129 
L 94.884773 265.153204 
L 94.041237 263.257279 
L 93.212413 261.361354 
L 92.384602 259.465429 
L 91.541795 257.569505 
L 90.667899 255.67358 
L 89.748613 253.777655 
L 88.772867 251.88173 
L 87.733902 249.985806 
L 86.630165 248.089881 
L 85.466185 246.193956 
L 84.253396 244.298031 
L 83.010645 242.402107 
L 81.763949 240.506182 
L 80.545048 238.610257 
L 79.388548 236.714332 
L 78.32785 234.818408 
L 77.390574 232.922483 
L 76.59447 231.026558 
L 75.944867 229.130633 
L 75.434366 227.234708 
L 75.044891 225.338784 
L 74.75162 223.442859 
L 74.527826 221.546934 
L 74.349572 219.651009 
L 74.199366 217.755085 
L 74.068305 215.85916 
L 73.956629 213.963235 
L 73.87298 212.06731 
L 73.832727 210.171386 
L 73.85577 208.275461 
L 73.964106 206.379536 
L 74.179414 204.483611 
L 74.520817 202.587687 
L 75.003015 200.691762 
L 75.634891 198.795837 
L 76.418699 196.899912 
L 77.34983 195.003987 
L 78.417127 193.108063 
L 79.603681 191.212138 
L 80.888033 189.316213 
L 82.245682 187.420288 
L 83.650798 185.524364 
L 85.077946 183.628439 
L 86.503626 181.732514 
L 87.907435 179.836589 
L 89.272719 177.940665 
L 90.586703 176.04474 
L 91.840218 174.148815 
L 93.027191 172.25289 
L 94.144087 170.356966 
L 95.18943 168.461041 
L 96.163426 166.565116 
L 97.067675 164.669191 
L 97.904889 162.773266 
L 98.678607 160.877342 
L 99.392894 158.981417 
L 100.052091 157.085492 
L 100.660662 155.189567 
L 101.223155 153.293643 
L 101.744262 151.397718 
L 102.228892 149.501793 
L 102.682154 147.605868 
L 103.109171 145.709944 
L 103.5147 143.814019 
L 103.902593 141.918094 
L 104.275216 140.022169 
L 104.632957 138.126245 
L 104.973989 136.23032 
L 105.294379 134.334395 
L 105.58862 132.43847 
L 105.850523 130.542545 
L 106.074381 128.646621 
L 106.256194 126.750696 
L 106.394741 124.854771 
L 106.492281 122.958846 
L 106.554696 121.062922 
L 106.591022 119.166997 
L 106.612409 117.271072 
L 106.630671 115.375147 
L 106.656697 113.479223 
L 106.699009 111.583298 
L 106.762727 109.687373 
L 106.849127 107.791448 
L 109.06049 107.791448 
L 109.06049 107.791448 
L 109.146891 109.687373 
L 109.210609 111.583298 
L 109.252921 113.479223 
L 109.278947 115.375147 
L 109.297209 117.271072 
L 109.318596 119.166997 
L 109.354922 121.062922 
L 109.417337 122.958846 
L 109.514877 124.854771 
L 109.653424 126.750696 
L 109.835237 128.646621 
L 110.059095 130.542545 
L 110.320998 132.43847 
L 110.615239 134.334395 
L 110.935629 136.23032 
L 111.27666 138.126245 
L 111.634402 140.022169 
L 112.007025 141.918094 
L 112.394918 143.814019 
L 112.800447 145.709944 
L 113.227464 147.605868 
L 113.680726 149.501793 
L 114.165356 151.397718 
L 114.686463 153.293643 
L 115.248955 155.189567 
L 115.857526 157.085492 
L 116.516724 158.981417 
L 117.231011 160.877342 
L 118.004728 162.773266 
L 118.841942 164.669191 
L 119.746191 166.565116 
L 120.720188 168.461041 
L 121.765531 170.356966 
L 122.882427 172.25289 
L 124.069399 174.148815 
L 125.322914 176.04474 
L 126.636899 177.940665 
L 128.002183 179.836589 
L 129.405992 181.732514 
L 130.831672 183.628439 
L 132.258819 185.524364 
L 133.663936 187.420288 
L 135.021585 189.316213 
L 136.305936 191.212138 
L 137.492491 193.108063 
L 138.559788 195.003987 
L 139.490919 196.899912 
L 140.274727 198.795837 
L 140.906603 200.691762 
L 141.3888 202.587687 
L 141.730204 204.483611 
L 141.945511 206.379536 
L 142.053848 208.275461 
L 142.07689 210.171386 
L 142.036638 212.06731 
L 141.952989 213.963235 
L 141.841313 215.85916 
L 141.710251 217.755085 
L 141.560046 219.651009 
L 141.381792 221.546934 
L 141.157997 223.442859 
L 140.864726 225.338784 
L 140.475252 227.234708 
L 139.964751 229.130633 
L 139.315148 231.026558 
L 138.519044 232.922483 
L 137.581768 234.818408 
L 136.52107 236.714332 
L 135.36457 238.610257 
L 134.145669 240.506182 
L 132.898973 242.402107 
L 131.656222 244.298031 
L 130.443432 246.193956 
L 129.279453 248.089881 
L 128.175716 249.985806 
L 127.13675 251.88173 
L 126.161005 253.777655 
L 125.241718 255.67358 
L 124.367822 257.569505 
L 123.525016 259.465429 
L 122.697205 261.361354 
L 121.86838 263.257279 
L 121.024845 265.153204 
L 120.157458 267.049129 
L 119.26347 268.945053 
L 118.347476 270.840978 
L 117.42116 272.736903 
L 116.50173 274.632828 
L 115.609251 276.528752 
L 114.763373 278.424677 
L 113.980127 280.320602 
L 113.269493 282.216527 
L 112.634262 284.112451 
L 112.07041 286.008376 
L 111.568822 287.904301 
L 111.117869 289.800226 
L 110.706152 291.69615 
L 110.32475 293.592075 
L 109.96851 295.488 
z
" clip-path="url(#p68ec84b689)" style="fill: #1f77b4; fill-opacity: 0.3"/>
   </g>
   <g id="PolyCollection_2">
    <path d="M 194.013823 274.632828 
L 192.506203 274.632828 
L 192.365969 272.905429 
L 192.211627 271.178031 
L 192.04348 269.450633 
L 191.862109 267.723235 
L 191.668301 265.995837 
L 191.462859 264.268439 
L 191.246303 262.541041 
L 191.018454 260.813643 
L 190.77797 259.086245 
L 190.521889 257.358846 
L 190.24528 255.631448 
L 189.941078 253.90405 
L 189.600172 252.176652 
L 189.21176 250.449254 
L 188.763933 248.721856 
L 188.244405 246.994458 
L 187.641267 245.26706 
L 186.943667 243.539661 
L 186.142365 241.812263 
L 185.230183 240.084865 
L 184.20242 238.357467 
L 183.057357 236.630069 
L 181.796915 234.902671 
L 180.42746 233.175273 
L 178.960638 231.447875 
L 177.414013 229.720476 
L 175.811218 227.993078 
L 174.181388 226.26568 
L 172.55771 224.538282 
L 170.97513 222.810884 
L 169.467448 221.083486 
L 168.064181 219.356088 
L 166.787702 217.62869 
L 165.651147 215.901292 
L 164.657458 214.173893 
L 163.799767 212.446495 
L 163.063091 210.719097 
L 162.427081 208.991699 
L 161.869431 207.264301 
L 161.369465 205.536903 
L 160.911396 203.809505 
L 160.486816 202.082107 
L 160.096034 200.354708 
L 159.748015 198.62731 
L 159.458818 196.899912 
L 159.248655 195.172514 
L 159.137931 193.445116 
L 159.142891 191.717718 
L 159.271689 189.99032 
L 159.52174 188.262922 
L 159.879076 186.535524 
L 160.320066 184.808125 
L 160.815363 183.080727 
L 161.33539 181.353329 
L 161.856235 179.625931 
L 162.36463 177.898533 
L 162.860771 176.171135 
L 163.358221 174.443737 
L 163.880741 172.716339 
L 164.456705 170.98894 
L 165.112309 169.261542 
L 165.865144 167.534144 
L 166.719624 165.806746 
L 167.665314 164.079348 
L 168.678464 162.35195 
L 169.726327 160.624552 
L 170.773161 158.897154 
L 171.786506 157.169755 
L 172.742376 155.442357 
L 173.628378 153.714959 
L 174.444339 151.987561 
L 175.200643 150.260163 
L 175.914913 148.532765 
L 176.607939 146.805367 
L 177.299723 145.077969 
L 178.00631 143.350571 
L 178.737761 141.623172 
L 179.497336 139.895774 
L 180.281709 138.168376 
L 181.081967 136.440978 
L 181.885082 134.71358 
L 182.675654 132.986182 
L 183.437731 131.258784 
L 184.156593 129.531386 
L 184.820376 127.803987 
L 185.421374 126.076589 
L 185.956903 124.349191 
L 186.429557 122.621793 
L 186.84682 120.894395 
L 187.220059 119.166997 
L 187.563031 117.439599 
L 187.89015 115.712201 
L 188.214752 113.984803 
L 188.54762 112.257404 
L 188.895938 110.530006 
L 189.262764 108.802608 
L 189.647023 107.07521 
L 190.043962 105.347812 
L 190.445972 103.620414 
L 196.074054 103.620414 
L 196.074054 103.620414 
L 196.476064 105.347812 
L 196.873003 107.07521 
L 197.257262 108.802608 
L 197.624088 110.530006 
L 197.972406 112.257404 
L 198.305274 113.984803 
L 198.629875 115.712201 
L 198.956994 117.439599 
L 199.299967 119.166997 
L 199.673206 120.894395 
L 200.090469 122.621793 
L 200.563122 124.349191 
L 201.098651 126.076589 
L 201.69965 127.803987 
L 202.363432 129.531386 
L 203.082295 131.258784 
L 203.844372 132.986182 
L 204.634944 134.71358 
L 205.438059 136.440978 
L 206.238317 138.168376 
L 207.02269 139.895774 
L 207.782264 141.623172 
L 208.513716 143.350571 
L 209.220303 145.077969 
L 209.912087 146.805367 
L 210.605113 148.532765 
L 211.319383 150.260163 
L 212.075687 151.987561 
L 212.891648 153.714959 
L 213.77765 155.442357 
L 214.73352 157.169755 
L 215.746865 158.897154 
L 216.793699 160.624552 
L 217.841562 162.35195 
L 218.854712 164.079348 
L 219.800401 165.806746 
L 220.654882 167.534144 
L 221.407717 169.261542 
L 222.06332 170.98894 
L 222.639285 172.716339 
L 223.161805 174.443737 
L 223.659255 176.171135 
L 224.155396 177.898533 
L 224.663791 179.625931 
L 225.184636 181.353329 
L 225.704662 183.080727 
L 226.199959 184.808125 
L 226.64095 186.535524 
L 226.998286 188.262922 
L 227.248337 189.99032 
L 227.377135 191.717718 
L 227.382095 193.445116 
L 227.27137 195.172514 
L 227.061208 196.899912 
L 226.772011 198.62731 
L 226.423992 200.354708 
L 226.03321 202.082107 
L 225.60863 203.809505 
L 225.150561 205.536903 
L 224.650594 207.264301 
L 224.092944 208.991699 
L 223.456934 210.719097 
L 222.720259 212.446495 
L 221.862568 214.173893 
L 220.868879 215.901292 
L 219.732324 217.62869 
L 218.455845 219.356088 
L 217.052577 221.083486 
L 215.544896 222.810884 
L 213.962316 224.538282 
L 212.338638 226.26568 
L 210.708808 227.993078 
L 209.106013 229.720476 
L 207.559388 231.447875 
L 206.092566 233.175273 
L 204.723111 234.902671 
L 203.462668 236.630069 
L 202.317606 238.357467 
L 201.289843 240.084865 
L 200.377661 241.812263 
L 199.576359 243.539661 
L 198.878759 245.26706 
L 198.275621 246.994458 
L 197.756093 248.721856 
L 197.308266 250.449254 
L 196.919854 252.176652 
L 196.578948 253.90405 
L 196.274746 255.631448 
L 195.998137 257.358846 
L 195.742056 259.086245 
L 195.501572 260.813643 
L 195.273723 262.541041 
L 195.057166 264.268439 
L 194.851725 265.995837 
L 194.657917 267.723235 
L 194.476546 269.450633 
L 194.308399 271.178031 
L 194.154056 272.905429 
L 194.013823 274.632828 
z
" clip-path="url(#p68ec84b689)" style="fill: #1f77b4; fill-opacity: 0.3"/>
   </g>
   <g id="PolyCollection_3">
    <path d="M 278.913475 282.974897 
L 278.216959 282.974897 
L 278.165065 280.868313 
L 278.102486 278.76173 
L 278.023953 276.655147 
L 277.924302 274.548564 
L 277.799435 272.441981 
L 277.64705 270.335398 
L 277.466935 268.228815 
L 277.260684 266.122232 
L 277.030896 264.015649 
L 276.780044 261.909066 
L 276.509333 259.802483 
L 276.217897 257.6959 
L 275.902655 255.589317 
L 275.558969 253.482734 
L 275.182059 251.37615 
L 274.768846 249.269567 
L 274.319697 247.162984 
L 273.839415 245.056401 
L 273.336945 242.949818 
L 272.823527 240.843235 
L 272.309502 238.736652 
L 271.800424 236.630069 
L 271.293451 234.523486 
L 270.775011 232.416903 
L 270.220477 230.31032 
L 269.596054 228.203737 
L 268.862602 226.097154 
L 267.980752 223.990571 
L 266.916561 221.883987 
L 265.647059 219.777404 
L 264.165125 217.670821 
L 262.483147 215.564238 
L 260.634749 213.457655 
L 258.673765 211.351072 
L 256.669796 209.244489 
L 254.70029 207.137906 
L 252.840128 205.031323 
L 251.150771 202.92474 
L 249.67171 200.818157 
L 248.416747 198.711574 
L 247.376419 196.604991 
L 246.526008 194.498408 
L 245.836684 192.391824 
L 245.286181 190.285241 
L 244.865551 188.178658 
L 244.579894 186.072075 
L 244.443135 183.965492 
L 244.469015 181.858909 
L 244.661703 179.752326 
L 245.009455 177.645743 
L 245.483525 175.53916 
L 246.042652 173.432577 
L 246.641572 171.325994 
L 247.240824 169.219411 
L 247.81492 167.112828 
L 248.356671 165.006245 
L 248.876819 162.899661 
L 249.399513 160.793078 
L 249.955251 158.686495 
L 250.573375 156.579912 
L 251.276066 154.473329 
L 252.075127 152.366746 
L 252.971949 150.260163 
L 253.960135 148.15358 
L 255.0296 146.046997 
L 256.170621 143.940414 
L 257.376462 141.833831 
L 258.643715 139.727248 
L 259.970269 137.620665 
L 261.351647 135.514082 
L 262.777042 133.407498 
L 264.22656 131.300915 
L 265.670861 129.194332 
L 267.073625 127.087749 
L 268.396351 124.981166 
L 269.604198 122.874583 
L 270.671271 120.768 
L 271.583906 118.661417 
L 272.341264 116.554834 
L 272.953367 114.448251 
L 273.43753 112.341668 
L 273.814442 110.235085 
L 274.105017 108.128502 
L 274.328627 106.021918 
L 274.502638 103.915335 
L 274.642739 101.808752 
L 274.763361 99.702169 
L 274.877707 97.595586 
L 274.997281 95.489003 
L 275.131144 93.38242 
L 275.2853 91.275837 
L 275.462534 89.169254 
L 275.66277 87.062671 
L 275.883788 84.956088 
L 276.121988 82.849505 
L 276.372938 80.742922 
L 276.6316 78.636339 
L 276.892338 76.529755 
L 277.148924 74.423172 
L 279.98151 74.423172 
L 279.98151 74.423172 
L 280.238096 76.529755 
L 280.498834 78.636339 
L 280.757495 80.742922 
L 281.008446 82.849505 
L 281.246646 84.956088 
L 281.467664 87.062671 
L 281.6679 89.169254 
L 281.845134 91.275837 
L 281.99929 93.38242 
L 282.133153 95.489003 
L 282.252727 97.595586 
L 282.367073 99.702169 
L 282.487695 101.808752 
L 282.627796 103.915335 
L 282.801807 106.021918 
L 283.025417 108.128502 
L 283.315992 110.235085 
L 283.692904 112.341668 
L 284.177067 114.448251 
L 284.78917 116.554834 
L 285.546527 118.661417 
L 286.459163 120.768 
L 287.526236 122.874583 
L 288.734083 124.981166 
L 290.056808 127.087749 
L 291.459573 129.194332 
L 292.903874 131.300915 
L 294.353392 133.407498 
L 295.778787 135.514082 
L 297.160165 137.620665 
L 298.486719 139.727248 
L 299.753972 141.833831 
L 300.959813 143.940414 
L 302.100834 146.046997 
L 303.170299 148.15358 
L 304.158485 150.260163 
L 305.055306 152.366746 
L 305.854368 154.473329 
L 306.557059 156.579912 
L 307.175183 158.686495 
L 307.730921 160.793078 
L 308.253615 162.899661 
L 308.773763 165.006245 
L 309.315514 167.112828 
L 309.88961 169.219411 
L 310.488862 171.325994 
L 311.087781 173.432577 
L 311.646909 175.53916 
L 312.120979 177.645743 
L 312.468731 179.752326 
L 312.661419 181.858909 
L 312.687299 183.965492 
L 312.55054 186.072075 
L 312.264883 188.178658 
L 311.844253 190.285241 
L 311.29375 192.391824 
L 310.604425 194.498408 
L 309.754015 196.604991 
L 308.713687 198.711574 
L 307.458724 200.818157 
L 305.979663 202.92474 
L 304.290306 205.031323 
L 302.430144 207.137906 
L 300.460638 209.244489 
L 298.456669 211.351072 
L 296.495685 213.457655 
L 294.647286 215.564238 
L 292.965308 217.670821 
L 291.483375 219.777404 
L 290.213873 221.883987 
L 289.149682 223.990571 
L 288.267832 226.097154 
L 287.53438 228.203737 
L 286.909956 230.31032 
L 286.355423 232.416903 
L 285.836983 234.523486 
L 285.330009 236.630069 
L 284.820932 238.736652 
L 284.306907 240.843235 
L 283.793489 242.949818 
L 283.291019 245.056401 
L 282.810737 247.162984 
L 282.361587 249.269567 
L 281.948375 251.37615 
L 281.571464 253.482734 
L 281.227779 255.589317 
L 280.912537 257.6959 
L 280.621101 259.802483 
L 280.35039 261.909066 
L 280.099538 264.015649 
L 279.86975 266.122232 
L 279.663499 268.228815 
L 279.483384 270.335398 
L 279.330999 272.441981 
L 279.206132 274.548564 
L 279.106481 276.655147 
L 279.027948 278.76173 
L 278.965369 280.868313 
L 278.913475 282.974897 
z
" clip-path="url(#p68ec84b689)" style="fill: #1f77b4; fill-opacity: 0.3"/>
   </g>
   <g id="PolyCollection_4">
    <path d="M 364.776682 266.290759 
L 362.96416 266.290759 
L 362.805002 264.142044 
L 362.62965 261.993329 
L 362.432013 259.844614 
L 362.203414 257.6959 
L 361.933054 255.547185 
L 361.608856 253.39847 
L 361.218591 251.249755 
L 360.751249 249.101041 
L 360.198522 246.952326 
L 359.556288 244.803611 
L 358.825835 242.654897 
L 358.014522 240.506182 
L 357.135556 238.357467 
L 356.206692 236.208752 
L 355.247876 234.060038 
L 354.278143 231.911323 
L 353.312316 229.762608 
L 352.358121 227.613893 
L 351.414283 225.465179 
L 350.46995 223.316464 
L 349.505582 221.167749 
L 348.49524 219.019034 
L 347.410111 216.87032 
L 346.223013 214.721605 
L 344.913504 212.57289 
L 343.473012 210.424176 
L 341.909152 208.275461 
L 340.248232 206.126746 
L 338.535017 203.978031 
L 336.82921 201.829317 
L 335.198825 199.680602 
L 333.711492 197.531887 
L 332.425401 195.383172 
L 331.381874 193.234458 
L 330.60124 191.085743 
L 330.082764 188.937028 
L 329.808311 186.788313 
L 329.748339 184.639599 
L 329.86835 182.490884 
L 330.134038 180.342169 
L 330.514122 178.193455 
L 330.980778 176.04474 
L 331.508471 173.896025 
L 332.072333 171.74731 
L 332.64725 169.598596 
L 333.208327 167.449881 
L 333.73292 165.301166 
L 334.203882 163.152451 
L 334.613292 161.003737 
L 334.965706 158.855022 
L 335.279844 156.706307 
L 335.587814 154.557592 
L 335.931381 152.408878 
L 336.355551 150.260163 
L 336.900567 148.111448 
L 337.59406 145.962734 
L 338.44527 143.814019 
L 339.442831 141.665304 
L 340.5567 139.516589 
L 341.743737 137.367875 
L 342.955565 135.21916 
L 344.146892 133.070445 
L 345.282558 130.92173 
L 346.34204 128.773016 
L 347.320818 126.624301 
L 348.228716 124.475586 
L 349.085877 122.326871 
L 349.917389 120.178157 
L 350.747704 118.029442 
L 351.595884 115.880727 
L 352.472403 113.732013 
L 353.377869 111.583298 
L 354.303611 109.434583 
L 355.233746 107.285868 
L 356.148172 105.137154 
L 357.02582 102.988439 
L 357.847619 100.839724 
L 358.598732 98.691009 
L 359.269846 96.542295 
L 359.857494 94.39358 
L 360.363524 92.244865 
L 360.793972 90.09615 
L 361.157607 87.947436 
L 361.464418 85.798721 
L 361.724287 83.650006 
L 361.946003 81.501292 
L 362.136709 79.352577 
L 362.301775 77.203862 
L 362.445029 75.055147 
L 362.569213 72.906433 
L 362.676517 70.757718 
L 362.769077 68.609003 
L 362.849334 66.460288 
L 362.920206 64.311574 
L 362.985037 62.162859 
L 363.047345 60.014144 
L 363.110389 57.865429 
L 363.176673 55.716715 
L 363.247499 53.568 
L 364.493343 53.568 
L 364.493343 53.568 
L 364.564169 55.716715 
L 364.630453 57.865429 
L 364.693497 60.014144 
L 364.755805 62.162859 
L 364.820636 64.311574 
L 364.891508 66.460288 
L 364.971765 68.609003 
L 365.064325 70.757718 
L 365.171629 72.906433 
L 365.295813 75.055147 
L 365.439067 77.203862 
L 365.604133 79.352577 
L 365.794839 81.501292 
L 366.016555 83.650006 
L 366.276424 85.798721 
L 366.583235 87.947436 
L 366.946869 90.09615 
L 367.377318 92.244865 
L 367.883348 94.39358 
L 368.470996 96.542295 
L 369.14211 98.691009 
L 369.893223 100.839724 
L 370.715022 102.988439 
L 371.59267 105.137154 
L 372.507096 107.285868 
L 373.437231 109.434583 
L 374.362972 111.583298 
L 375.268439 113.732013 
L 376.144958 115.880727 
L 376.993138 118.029442 
L 377.823453 120.178157 
L 378.654965 122.326871 
L 379.512126 124.475586 
L 380.420024 126.624301 
L 381.398802 128.773016 
L 382.458284 130.92173 
L 383.59395 133.070445 
L 384.785277 135.21916 
L 385.997105 137.367875 
L 387.184142 139.516589 
L 388.298011 141.665304 
L 389.295572 143.814019 
L 390.146782 145.962734 
L 390.840275 148.111448 
L 391.385291 150.260163 
L 391.809461 152.408878 
L 392.153028 154.557592 
L 392.460998 156.706307 
L 392.775136 158.855022 
L 393.127549 161.003737 
L 393.53696 163.152451 
L 394.007922 165.301166 
L 394.532515 167.449881 
L 395.093592 169.598596 
L 395.668509 171.74731 
L 396.232371 173.896025 
L 396.760063 176.04474 
L 397.22672 178.193455 
L 397.606804 180.342169 
L 397.872492 182.490884 
L 397.992503 184.639599 
L 397.932531 186.788313 
L 397.658078 188.937028 
L 397.139602 191.085743 
L 396.358968 193.234458 
L 395.315441 195.383172 
L 394.02935 197.531887 
L 392.542017 199.680602 
L 390.911632 201.829317 
L 389.205825 203.978031 
L 387.49261 206.126746 
L 385.83169 208.275461 
L 384.267829 210.424176 
L 382.827338 212.57289 
L 381.517829 214.721605 
L 380.330731 216.87032 
L 379.245602 219.019034 
L 378.23526 221.167749 
L 377.270892 223.316464 
L 376.326559 225.465179 
L 375.382721 227.613893 
L 374.428526 229.762608 
L 373.462699 231.911323 
L 372.492966 234.060038 
L 371.53415 236.208752 
L 370.605286 238.357467 
L 369.72632 240.506182 
L 368.915006 242.654897 
L 368.184554 244.803611 
L 367.54232 246.952326 
L 366.989593 249.101041 
L 366.522251 251.249755 
L 366.131986 253.39847 
L 365.807787 255.547185 
L 365.537428 257.6959 
L 365.308829 259.844614 
L 365.111192 261.993329 
L 364.93584 264.142044 
L 364.776682 266.290759 
z
" clip-path="url(#p68ec84b689)" style="fill: #1f77b4; fill-opacity: 0.3"/>
   </g>
   <g id="PolyCollection_5">
    <path d="M 366.273782 253.777655 
L 362.456601 253.777655 
L 361.973492 251.755335 
L 361.436938 249.733016 
L 360.861219 247.710696 
L 360.264701 245.688376 
L 359.667796 243.666056 
L 359.090344 241.643737 
L 358.548883 239.621417 
L 358.054329 237.599097 
L 357.610483 235.576777 
L 357.213586 233.554458 
L 356.852908 231.532138 
L 356.512159 229.509818 
L 356.171377 227.487498 
L 355.808967 225.465179 
L 355.403571 223.442859 
L 354.935581 221.420539 
L 354.388168 219.398219 
L 353.747827 217.3759 
L 353.004514 215.35358 
L 352.151549 213.33126 
L 351.185513 211.30894 
L 350.106345 209.286621 
L 348.917786 207.264301 
L 347.628111 205.241981 
L 346.250932 203.219661 
L 344.805693 201.197342 
L 343.317462 199.175022 
L 341.815768 197.152702 
L 340.332458 195.130382 
L 338.898887 193.108063 
L 337.542976 191.085743 
L 336.286781 189.063423 
L 335.145111 187.041103 
L 334.1255 185.018784 
L 333.229462 182.996464 
L 332.454654 180.974144 
L 331.797362 178.951824 
L 331.254652 176.929505 
L 330.825707 174.907185 
L 330.512069 172.884865 
L 330.316837 170.862545 
L 330.24311 168.840226 
L 330.29209 166.817906 
L 330.461337 164.795586 
L 330.743538 162.773266 
L 331.126079 160.750947 
L 331.591578 158.728627 
L 332.119372 156.706307 
L 332.687884 154.683987 
L 333.277571 152.661668 
L 333.874036 150.639348 
L 334.470707 148.617028 
L 335.07044 146.594708 
L 335.685545 144.572389 
L 336.335991 142.550069 
L 337.045985 140.527749 
L 337.839525 138.505429 
L 338.73579 136.48311 
L 339.745282 134.46079 
L 340.867457 132.43847 
L 342.090189 130.41615 
L 343.391075 128.393831 
L 344.740175 126.371511 
L 346.103648 124.349191 
L 347.447661 122.326871 
L 348.742004 120.304552 
L 349.962988 118.282232 
L 351.095332 116.259912 
L 352.132885 114.237592 
L 353.078173 112.215273 
L 353.940893 110.192953 
L 354.735565 108.170633 
L 355.47871 106.148313 
L 356.185954 104.125994 
L 356.869497 102.103674 
L 357.536339 100.081354 
L 358.187542 98.059034 
L 358.818606 96.036715 
L 359.420856 94.014395 
L 359.983521 91.992075 
L 360.496064 89.969755 
L 360.95028 87.947436 
L 361.341769 85.925116 
L 361.670537 83.902796 
L 361.940711 81.880476 
L 362.15955 79.858157 
L 362.336065 77.835837 
L 362.479629 75.813517 
L 362.59888 73.791197 
L 362.701111 71.768878 
L 362.792142 69.746558 
L 362.876561 67.724238 
L 362.958105 65.701918 
L 363.039976 63.679599 
L 363.124944 61.657279 
L 363.215214 59.634959 
L 363.312134 57.612639 
L 363.415885 55.59032 
L 363.525312 53.568 
L 365.20507 53.568 
L 365.20507 53.568 
L 365.314497 55.59032 
L 365.418248 57.612639 
L 365.515168 59.634959 
L 365.605438 61.657279 
L 365.690406 63.679599 
L 365.772277 65.701918 
L 365.853821 67.724238 
L 365.93824 69.746558 
L 366.029272 71.768878 
L 366.131502 73.791197 
L 366.250754 75.813517 
L 366.394317 77.835837 
L 366.570832 79.858157 
L 366.789671 81.880476 
L 367.059846 83.902796 
L 367.388613 85.925116 
L 367.780102 87.947436 
L 368.234319 89.969755 
L 368.746861 91.992075 
L 369.309526 94.014395 
L 369.911776 96.036715 
L 370.54284 98.059034 
L 371.194043 100.081354 
L 371.860886 102.103674 
L 372.544428 104.125994 
L 373.251672 106.148313 
L 373.994817 108.170633 
L 374.789489 110.192953 
L 375.652209 112.215273 
L 376.597498 114.237592 
L 377.63505 116.259912 
L 378.767394 118.282232 
L 379.988378 120.304552 
L 381.282721 122.326871 
L 382.626734 124.349191 
L 383.990208 126.371511 
L 385.339307 128.393831 
L 386.640193 130.41615 
L 387.862926 132.43847 
L 388.9851 134.46079 
L 389.994593 136.48311 
L 390.890857 138.505429 
L 391.684397 140.527749 
L 392.394391 142.550069 
L 393.044837 144.572389 
L 393.659942 146.594708 
L 394.259675 148.617028 
L 394.856346 150.639348 
L 395.452811 152.661668 
L 396.042498 154.683987 
L 396.61101 156.706307 
L 397.138804 158.728627 
L 397.604303 160.750947 
L 397.986844 162.773266 
L 398.269045 164.795586 
L 398.438292 166.817906 
L 398.487273 168.840226 
L 398.413545 170.862545 
L 398.218313 172.884865 
L 397.904675 174.907185 
L 397.47573 176.929505 
L 396.93302 178.951824 
L 396.275728 180.974144 
L 395.50092 182.996464 
L 394.604882 185.018784 
L 393.585271 187.041103 
L 392.443601 189.063423 
L 391.187406 191.085743 
L 389.831496 193.108063 
L 388.397925 195.130382 
L 386.914614 197.152702 
L 385.41292 199.175022 
L 383.924689 201.197342 
L 382.47945 203.219661 
L 381.102271 205.241981 
L 379.812596 207.264301 
L 378.624037 209.286621 
L 377.544869 211.30894 
L 376.578833 213.33126 
L 375.725869 215.35358 
L 374.982556 217.3759 
L 374.342214 219.398219 
L 373.794801 221.420539 
L 373.326811 223.442859 
L 372.921416 225.465179 
L 372.559005 227.487498 
L 372.218223 229.509818 
L 371.877474 231.532138 
L 371.516796 233.554458 
L 371.119899 235.576777 
L 370.676053 237.599097 
L 370.181499 239.621417 
L 369.640038 241.643737 
L 369.062586 243.666056 
L 368.465681 245.688376 
L 367.869163 247.710696 
L 367.293444 249.733016 
L 366.75689 251.755335 
L 366.273782 253.777655 
z
" clip-path="url(#p68ec84b689)" style="fill: #1f77b4; fill-opacity: 0.3"/>
   </g>
   <g id="matplotlib.axis_1">
    <g id="xtick_1">
     <g id="line2d_1">
      <path d="M 65.302207 307.584 
L 65.302207 41.472 
" clip-path="url(#p68ec84b689)" style="fill: none; stroke-dasharray: 2.96,1.28; stroke-dashoffset: 0; stroke: #b0b0b0; stroke-width: 0.8"/>
     </g>
     <g id="line2d_2">
      <defs>
       <path id="mb6379bf1f4" d="M 0 0 
L 0 3.5 
" style="stroke: #000000; stroke-width: 0.8"/>
      </defs>
      <g>
       <use xlink:href="#mb6379bf1f4" x="65.302207" y="307.584" style="stroke: #000000; stroke-width: 0.8"/>
      </g>
     </g>
     <g id="text_1">
      <!-- 2500 -->
      <g transform="translate(52.577207 322.182437)scale(0.1 -0.1)">
       <defs>
        <path id="DejaVuSans-32" d="M 1228 531 
L 3431 531 
L 3431 0 
L 469 0 
L 469 531 
Q 828 903 1448 1529 
Q 2069 2156 2228 2338 
Q 2531 2678 2651 2914 
Q 2772 3150 2772 3378 
Q 2772 3750 2511 3984 
Q 2250 4219 1831 4219 
Q 1534 4219 1204 4116 
Q 875 4013 500 3803 
L 500 4441 
Q 881 4594 1212 4672 
Q 1544 4750 1819 4750 
Q 2544 4750 2975 4387 
Q 3406 4025 3406 3419 
Q 3406 3131 3298 2873 
Q 3191 2616 2906 2266 
Q 2828 2175 2409 1742 
Q 1991 1309 1228 531 
z
" transform="scale(0.015625)"/>
        <path id="DejaVuSans-35" d="M 691 4666 
L 3169 4666 
L 3169 4134 
L 1269 4134 
L 1269 2991 
Q 1406 3038 1543 3061 
Q 1681 3084 1819 3084 
Q 2600 3084 3056 2656 
Q 3513 2228 3513 1497 
Q 3513 744 3044 326 
Q 2575 -91 1722 -91 
Q 1428 -91 1123 -41 
Q 819 9 494 109 
L 494 744 
Q 775 591 1075 516 
Q 1375 441 1709 441 
Q 2250 441 2565 725 
Q 2881 1009 2881 1497 
Q 2881 1984 2565 2268 
Q 2250 2553 1709 2553 
Q 1456 2553 1204 2497 
Q 953 2441 691 2322 
L 691 4666 
z
" transform="scale(0.015625)"/>
        <path id="DejaVuSans-30" d="M 2034 4250 
Q 1547 4250 1301 3770 
Q 1056 3291 1056 2328 
Q 1056 1369 1301 889 
Q 1547 409 2034 409 
Q 2525 409 2770 889 
Q 3016 1369 3016 2328 
Q 3016 3291 2770 3770 
Q 2525 4250 2034 4250 
z
M 2034 4750 
Q 2819 4750 3233 4129 
Q 3647 3509 3647 2328 
Q 3647 1150 3233 529 
Q 2819 -91 2034 -91 
Q 1250 -91 836 529 
Q 422 1150 422 2328 
Q 422 3509 836 4129 
Q 1250 4750 2034 4750 
z
" transform="scale(0.015625)"/>
       </defs>
       <use xlink:href="#DejaVuSans-32"/>
       <use xlink:href="#DejaVuSans-35" x="63.623047"/>
       <use xlink:href="#DejaVuSans-30" x="127.246094"/>
       <use xlink:href="#DejaVuSans-30" x="190.869141"/>
      </g>
     </g>
    </g>
    <g id="xtick_2">
     <g id="line2d_3">
      <path d="M 107.954809 307.584 
L 107.954809 41.472 
" clip-path="url(#p68ec84b689)" style="fill: none; stroke-dasharray: 2.96,1.28; stroke-dashoffset: 0; stroke: #b0b0b0; stroke-width: 0.8"/>
     </g>
     <g id="line2d_4">
      <g>
       <use xlink:href="#mb6379bf1f4" x="107.954809" y="307.584" style="stroke: #000000; stroke-width: 0.8"/>
      </g>
     </g>
     <g id="text_2">
      <!-- 5000 -->
      <g transform="translate(95.229809 322.182437)scale(0.1 -0.1)">
       <use xlink:href="#DejaVuSans-35"/>
       <use xlink:href="#DejaVuSans-30" x="63.623047"/>
       <use xlink:href="#DejaVuSans-30" x="127.246094"/>
       <use xlink:href="#DejaVuSans-30" x="190.869141"/>
      </g>
     </g>
    </g>
    <g id="xtick_3">
     <g id="line2d_5">
      <path d="M 150.607411 307.584 
L 150.607411 41.472 
" clip-path="url(#p68ec84b689)" style="fill: none; stroke-dasharray: 2.96,1.28; stroke-dashoffset: 0; stroke: #b0b0b0; stroke-width: 0.8"/>
     </g>
     <g id="line2d_6">
      <g>
       <use xlink:href="#mb6379bf1f4" x="150.607411" y="307.584" style="stroke: #000000; stroke-width: 0.8"/>
      </g>
     </g>
     <g id="text_3">
      <!-- 7500 -->
      <g transform="translate(137.882411 322.182437)scale(0.1 -0.1)">
       <defs>
        <path id="DejaVuSans-37" d="M 525 4666 
L 3525 4666 
L 3525 4397 
L 1831 0 
L 1172 0 
L 2766 4134 
L 525 4134 
L 525 4666 
z
" transform="scale(0.015625)"/>
       </defs>
       <use xlink:href="#DejaVuSans-37"/>
       <use xlink:href="#DejaVuSans-35" x="63.623047"/>
       <use xlink:href="#DejaVuSans-30" x="127.246094"/>
       <use xlink:href="#DejaVuSans-30" x="190.869141"/>
      </g>
     </g>
    </g>
    <g id="xtick_4">
     <g id="line2d_7">
      <path d="M 193.260013 307.584 
L 193.260013 41.472 
" clip-path="url(#p68ec84b689)" style="fill: none; stroke-dasharray: 2.96,1.28; stroke-dashoffset: 0; stroke: #b0b0b0; stroke-width: 0.8"/>
     </g>
     <g id="line2d_8">
      <g>
       <use xlink:href="#mb6379bf1f4" x="193.260013" y="307.584" style="stroke: #000000; stroke-width: 0.8"/>
      </g>
     </g>
     <g id="text_4">
      <!-- 10000 -->
      <g transform="translate(177.353763 322.182437)scale(0.1 -0.1)">
       <defs>
        <path id="DejaVuSans-31" d="M 794 531 
L 1825 531 
L 1825 4091 
L 703 3866 
L 703 4441 
L 1819 4666 
L 2450 4666 
L 2450 531 
L 3481 531 
L 3481 0 
L 794 0 
L 794 531 
z
" transform="scale(0.015625)"/>
       </defs>
       <use xlink:href="#DejaVuSans-31"/>
       <use xlink:href="#DejaVuSans-30" x="63.623047"/>
       <use xlink:href="#DejaVuSans-30" x="127.246094"/>
       <use xlink:href="#DejaVuSans-30" x="190.869141"/>
       <use xlink:href="#DejaVuSans-30" x="254.492188"/>
      </g>
     </g>
    </g>
    <g id="xtick_5">
     <g id="line2d_9">
      <path d="M 235.912615 307.584 
L 235.912615 41.472 
" clip-path="url(#p68ec84b689)" style="fill: none; stroke-dasharray: 2.96,1.28; stroke-dashoffset: 0; stroke: #b0b0b0; stroke-width: 0.8"/>
     </g>
     <g id="line2d_10">
      <g>
       <use xlink:href="#mb6379bf1f4" x="235.912615" y="307.584" style="stroke: #000000; stroke-width: 0.8"/>
      </g>
     </g>
     <g id="text_5">
      <!-- 12500 -->
      <g transform="translate(220.006365 322.182437)scale(0.1 -0.1)">
       <use xlink:href="#DejaVuSans-31"/>
       <use xlink:href="#DejaVuSans-32" x="63.623047"/>
       <use xlink:href="#DejaVuSans-35" x="127.246094"/>
       <use xlink:href="#DejaVuSans-30" x="190.869141"/>
       <use xlink:href="#DejaVuSans-30" x="254.492188"/>
      </g>
     </g>
    </g>
    <g id="xtick_6">
     <g id="line2d_11">
      <path d="M 278.565217 307.584 
L 278.565217 41.472 
" clip-path="url(#p68ec84b689)" style="fill: none; stroke-dasharray: 2.96,1.28; stroke-dashoffset: 0; stroke: #b0b0b0; stroke-width: 0.8"/>
     </g>
     <g id="line2d_12">
      <g>
       <use xlink:href="#mb6379bf1f4" x="278.565217" y="307.584" style="stroke: #000000; stroke-width: 0.8"/>
      </g>
     </g>
     <g id="text_6">
      <!-- 15000 -->
      <g transform="translate(262.658967 322.182437)scale(0.1 -0.1)">
       <use xlink:href="#DejaVuSans-31"/>
       <use xlink:href="#DejaVuSans-35" x="63.623047"/>
       <use xlink:href="#DejaVuSans-30" x="127.246094"/>
       <use xlink:href="#DejaVuSans-30" x="190.869141"/>
       <use xlink:href="#DejaVuSans-30" x="254.492188"/>
      </g>
     </g>
    </g>
    <g id="xtick_7">
     <g id="line2d_13">
      <path d="M 321.217819 307.584 
L 321.217819 41.472 
" clip-path="url(#p68ec84b689)" style="fill: none; stroke-dasharray: 2.96,1.28; stroke-dashoffset: 0; stroke: #b0b0b0; stroke-width: 0.8"/>
     </g>
     <g id="line2d_14">
      <g>
       <use xlink:href="#mb6379bf1f4" x="321.217819" y="307.584" style="stroke: #000000; stroke-width: 0.8"/>
      </g>
     </g>
     <g id="text_7">
      <!-- 17500 -->
      <g transform="translate(305.311569 322.182437)scale(0.1 -0.1)">
       <use xlink:href="#DejaVuSans-31"/>
       <use xlink:href="#DejaVuSans-37" x="63.623047"/>
       <use xlink:href="#DejaVuSans-35" x="127.246094"/>
       <use xlink:href="#DejaVuSans-30" x="190.869141"/>
       <use xlink:href="#DejaVuSans-30" x="254.492188"/>
      </g>
     </g>
    </g>
    <g id="xtick_8">
     <g id="line2d_15">
      <path d="M 363.870421 307.584 
L 363.870421 41.472 
" clip-path="url(#p68ec84b689)" style="fill: none; stroke-dasharray: 2.96,1.28; stroke-dashoffset: 0; stroke: #b0b0b0; stroke-width: 0.8"/>
     </g>
     <g id="line2d_16">
      <g>
       <use xlink:href="#mb6379bf1f4" x="363.870421" y="307.584" style="stroke: #000000; stroke-width: 0.8"/>
      </g>
     </g>
     <g id="text_8">
      <!-- 20000 -->
      <g transform="translate(347.964171 322.182437)scale(0.1 -0.1)">
       <use xlink:href="#DejaVuSans-32"/>
       <use xlink:href="#DejaVuSans-30" x="63.623047"/>
       <use xlink:href="#DejaVuSans-30" x="127.246094"/>
       <use xlink:href="#DejaVuSans-30" x="190.869141"/>
       <use xlink:href="#DejaVuSans-30" x="254.492188"/>
      </g>
     </g>
    </g>
    <g id="xtick_9">
     <g id="line2d_17">
      <path d="M 406.523023 307.584 
L 406.523023 41.472 
" clip-path="url(#p68ec84b689)" style="fill: none; stroke-dasharray: 2.96,1.28; stroke-dashoffset: 0; stroke: #b0b0b0; stroke-width: 0.8"/>
     </g>
     <g id="line2d_18">
      <g>
       <use xlink:href="#mb6379bf1f4" x="406.523023" y="307.584" style="stroke: #000000; stroke-width: 0.8"/>
      </g>
     </g>
     <g id="text_9">
      <!-- 22500 -->
      <g transform="translate(390.616773 322.182437)scale(0.1 -0.1)">
       <use xlink:href="#DejaVuSans-32"/>
       <use xlink:href="#DejaVuSans-32" x="63.623047"/>
       <use xlink:href="#DejaVuSans-35" x="127.246094"/>
       <use xlink:href="#DejaVuSans-30" x="190.869141"/>
       <use xlink:href="#DejaVuSans-30" x="254.492188"/>
      </g>
     </g>
    </g>
    <g id="text_10">
     <!-- Learned Episodes -->
     <g transform="translate(192.102187 335.860562)scale(0.1 -0.1)">
      <defs>
       <path id="DejaVuSans-4c" d="M 628 4666 
L 1259 4666 
L 1259 531 
L 3531 531 
L 3531 0 
L 628 0 
L 628 4666 
z
" transform="scale(0.015625)"/>
       <path id="DejaVuSans-65" d="M 3597 1894 
L 3597 1613 
L 953 1613 
Q 991 1019 1311 708 
Q 1631 397 2203 397 
Q 2534 397 2845 478 
Q 3156 559 3463 722 
L 3463 178 
Q 3153 47 2828 -22 
Q 2503 -91 2169 -91 
Q 1331 -91 842 396 
Q 353 884 353 1716 
Q 353 2575 817 3079 
Q 1281 3584 2069 3584 
Q 2775 3584 3186 3129 
Q 3597 2675 3597 1894 
z
M 3022 2063 
Q 3016 2534 2758 2815 
Q 2500 3097 2075 3097 
Q 1594 3097 1305 2825 
Q 1016 2553 972 2059 
L 3022 2063 
z
" transform="scale(0.015625)"/>
       <path id="DejaVuSans-61" d="M 2194 1759 
Q 1497 1759 1228 1600 
Q 959 1441 959 1056 
Q 959 750 1161 570 
Q 1363 391 1709 391 
Q 2188 391 2477 730 
Q 2766 1069 2766 1631 
L 2766 1759 
L 2194 1759 
z
M 3341 1997 
L 3341 0 
L 2766 0 
L 2766 531 
Q 2569 213 2275 61 
Q 1981 -91 1556 -91 
Q 1019 -91 701 211 
Q 384 513 384 1019 
Q 384 1609 779 1909 
Q 1175 2209 1959 2209 
L 2766 2209 
L 2766 2266 
Q 2766 2663 2505 2880 
Q 2244 3097 1772 3097 
Q 1472 3097 1187 3025 
Q 903 2953 641 2809 
L 641 3341 
Q 956 3463 1253 3523 
Q 1550 3584 1831 3584 
Q 2591 3584 2966 3190 
Q 3341 2797 3341 1997 
z
" transform="scale(0.015625)"/>
       <path id="DejaVuSans-72" d="M 2631 2963 
Q 2534 3019 2420 3045 
Q 2306 3072 2169 3072 
Q 1681 3072 1420 2755 
Q 1159 2438 1159 1844 
L 1159 0 
L 581 0 
L 581 3500 
L 1159 3500 
L 1159 2956 
Q 1341 3275 1631 3429 
Q 1922 3584 2338 3584 
Q 2397 3584 2469 3576 
Q 2541 3569 2628 3553 
L 2631 2963 
z
" transform="scale(0.015625)"/>
       <path id="DejaVuSans-6e" d="M 3513 2113 
L 3513 0 
L 2938 0 
L 2938 2094 
Q 2938 2591 2744 2837 
Q 2550 3084 2163 3084 
Q 1697 3084 1428 2787 
Q 1159 2491 1159 1978 
L 1159 0 
L 581 0 
L 581 3500 
L 1159 3500 
L 1159 2956 
Q 1366 3272 1645 3428 
Q 1925 3584 2291 3584 
Q 2894 3584 3203 3211 
Q 3513 2838 3513 2113 
z
" transform="scale(0.015625)"/>
       <path id="DejaVuSans-64" d="M 2906 2969 
L 2906 4863 
L 3481 4863 
L 3481 0 
L 2906 0 
L 2906 525 
Q 2725 213 2448 61 
Q 2172 -91 1784 -91 
Q 1150 -91 751 415 
Q 353 922 353 1747 
Q 353 2572 751 3078 
Q 1150 3584 1784 3584 
Q 2172 3584 2448 3432 
Q 2725 3281 2906 2969 
z
M 947 1747 
Q 947 1113 1208 752 
Q 1469 391 1925 391 
Q 2381 391 2643 752 
Q 2906 1113 2906 1747 
Q 2906 2381 2643 2742 
Q 2381 3103 1925 3103 
Q 1469 3103 1208 2742 
Q 947 2381 947 1747 
z
" transform="scale(0.015625)"/>
       <path id="DejaVuSans-20" transform="scale(0.015625)"/>
       <path id="DejaVuSans-45" d="M 628 4666 
L 3578 4666 
L 3578 4134 
L 1259 4134 
L 1259 2753 
L 3481 2753 
L 3481 2222 
L 1259 2222 
L 1259 531 
L 3634 531 
L 3634 0 
L 628 0 
L 628 4666 
z
" transform="scale(0.015625)"/>
       <path id="DejaVuSans-70" d="M 1159 525 
L 1159 -1331 
L 581 -1331 
L 581 3500 
L 1159 3500 
L 1159 2969 
Q 1341 3281 1617 3432 
Q 1894 3584 2278 3584 
Q 2916 3584 3314 3078 
Q 3713 2572 3713 1747 
Q 3713 922 3314 415 
Q 2916 -91 2278 -91 
Q 1894 -91 1617 61 
Q 1341 213 1159 525 
z
M 3116 1747 
Q 3116 2381 2855 2742 
Q 2594 3103 2138 3103 
Q 1681 3103 1420 2742 
Q 1159 2381 1159 1747 
Q 1159 1113 1420 752 
Q 1681 391 2138 391 
Q 2594 391 2855 752 
Q 3116 1113 3116 1747 
z
" transform="scale(0.015625)"/>
       <path id="DejaVuSans-69" d="M 603 3500 
L 1178 3500 
L 1178 0 
L 603 0 
L 603 3500 
z
M 603 4863 
L 1178 4863 
L 1178 4134 
L 603 4134 
L 603 4863 
z
" transform="scale(0.015625)"/>
       <path id="DejaVuSans-73" d="M 2834 3397 
L 2834 2853 
Q 2591 2978 2328 3040 
Q 2066 3103 1784 3103 
Q 1356 3103 1142 2972 
Q 928 2841 928 2578 
Q 928 2378 1081 2264 
Q 1234 2150 1697 2047 
L 1894 2003 
Q 2506 1872 2764 1633 
Q 3022 1394 3022 966 
Q 3022 478 2636 193 
Q 2250 -91 1575 -91 
Q 1294 -91 989 -36 
Q 684 19 347 128 
L 347 722 
Q 666 556 975 473 
Q 1284 391 1588 391 
Q 1994 391 2212 530 
Q 2431 669 2431 922 
Q 2431 1156 2273 1281 
Q 2116 1406 1581 1522 
L 1381 1569 
Q 847 1681 609 1914 
Q 372 2147 372 2553 
Q 372 3047 722 3315 
Q 1072 3584 1716 3584 
Q 2034 3584 2315 3537 
Q 2597 3491 2834 3397 
z
" transform="scale(0.015625)"/>
       <path id="DejaVuSans-6f" d="M 1959 3097 
Q 1497 3097 1228 2736 
Q 959 2375 959 1747 
Q 959 1119 1226 758 
Q 1494 397 1959 397 
Q 2419 397 2687 759 
Q 2956 1122 2956 1747 
Q 2956 2369 2687 2733 
Q 2419 3097 1959 3097 
z
M 1959 3584 
Q 2709 3584 3137 3096 
Q 3566 2609 3566 1747 
Q 3566 888 3137 398 
Q 2709 -91 1959 -91 
Q 1206 -91 779 398 
Q 353 888 353 1747 
Q 353 2609 779 3096 
Q 1206 3584 1959 3584 
z
" transform="scale(0.015625)"/>
      </defs>
      <use xlink:href="#DejaVuSans-4c"/>
      <use xlink:href="#DejaVuSans-65" x="53.962891"/>
      <use xlink:href="#DejaVuSans-61" x="115.486328"/>
      <use xlink:href="#DejaVuSans-72" x="176.765625"/>
      <use xlink:href="#DejaVuSans-6e" x="216.128906"/>
      <use xlink:href="#DejaVuSans-65" x="279.507812"/>
      <use xlink:href="#DejaVuSans-64" x="341.03125"/>
      <use xlink:href="#DejaVuSans-20" x="404.507812"/>
      <use xlink:href="#DejaVuSans-45" x="436.294922"/>
      <use xlink:href="#DejaVuSans-70" x="499.478516"/>
      <use xlink:href="#DejaVuSans-69" x="562.955078"/>
      <use xlink:href="#DejaVuSans-73" x="590.738281"/>
      <use xlink:href="#DejaVuSans-6f" x="642.837891"/>
      <use xlink:href="#DejaVuSans-64" x="704.019531"/>
      <use xlink:href="#DejaVuSans-65" x="767.496094"/>
      <use xlink:href="#DejaVuSans-73" x="829.019531"/>
     </g>
    </g>
   </g>
   <g id="matplotlib.axis_2">
    <g id="ytick_1">
     <g id="line2d_19">
      <path d="M 57.6 299.659034 
L 414.72 299.659034 
" clip-path="url(#p68ec84b689)" style="fill: none; stroke-dasharray: 2.96,1.28; stroke-dashoffset: 0; stroke: #b0b0b0; stroke-width: 0.8"/>
     </g>
     <g id="line2d_20">
      <defs>
       <path id="m0891ef5134" d="M 0 0 
L -3.5 0 
" style="stroke: #000000; stroke-width: 0.8"/>
      </defs>
      <g>
       <use xlink:href="#m0891ef5134" x="57.6" y="299.659034" style="stroke: #000000; stroke-width: 0.8"/>
      </g>
     </g>
     <g id="text_11">
      <!-- 30 -->
      <g transform="translate(37.875 303.458253)scale(0.1 -0.1)">
       <defs>
        <path id="DejaVuSans-33" d="M 2597 2516 
Q 3050 2419 3304 2112 
Q 3559 1806 3559 1356 
Q 3559 666 3084 287 
Q 2609 -91 1734 -91 
Q 1441 -91 1130 -33 
Q 819 25 488 141 
L 488 750 
Q 750 597 1062 519 
Q 1375 441 1716 441 
Q 2309 441 2620 675 
Q 2931 909 2931 1356 
Q 2931 1769 2642 2001 
Q 2353 2234 1838 2234 
L 1294 2234 
L 1294 2753 
L 1863 2753 
Q 2328 2753 2575 2939 
Q 2822 3125 2822 3475 
Q 2822 3834 2567 4026 
Q 2313 4219 1838 4219 
Q 1578 4219 1281 4162 
Q 984 4106 628 3988 
L 628 4550 
Q 988 4650 1302 4700 
Q 1616 4750 1894 4750 
Q 2613 4750 3031 4423 
Q 3450 4097 3450 3541 
Q 3450 3153 3228 2886 
Q 3006 2619 2597 2516 
z
" transform="scale(0.015625)"/>
       </defs>
       <use xlink:href="#DejaVuSans-33"/>
       <use xlink:href="#DejaVuSans-30" x="63.623047"/>
      </g>
     </g>
    </g>
    <g id="ytick_2">
     <g id="line2d_21">
      <path d="M 57.6 257.94869 
L 414.72 257.94869 
" clip-path="url(#p68ec84b689)" style="fill: none; stroke-dasharray: 2.96,1.28; stroke-dashoffset: 0; stroke: #b0b0b0; stroke-width: 0.8"/>
     </g>
     <g id="line2d_22">
      <g>
       <use xlink:href="#m0891ef5134" x="57.6" y="257.94869" style="stroke: #000000; stroke-width: 0.8"/>
      </g>
     </g>
     <g id="text_12">
      <!-- 40 -->
      <g transform="translate(37.875 261.747908)scale(0.1 -0.1)">
       <defs>
        <path id="DejaVuSans-34" d="M 2419 4116 
L 825 1625 
L 2419 1625 
L 2419 4116 
z
M 2253 4666 
L 3047 4666 
L 3047 1625 
L 3713 1625 
L 3713 1100 
L 3047 1100 
L 3047 0 
L 2419 0 
L 2419 1100 
L 313 1100 
L 313 1709 
L 2253 4666 
z
" transform="scale(0.015625)"/>
       </defs>
       <use xlink:href="#DejaVuSans-34"/>
       <use xlink:href="#DejaVuSans-30" x="63.623047"/>
      </g>
     </g>
    </g>
    <g id="ytick_3">
     <g id="line2d_23">
      <path d="M 57.6 216.238345 
L 414.72 216.238345 
" clip-path="url(#p68ec84b689)" style="fill: none; stroke-dasharray: 2.96,1.28; stroke-dashoffset: 0; stroke: #b0b0b0; stroke-width: 0.8"/>
     </g>
     <g id="line2d_24">
      <g>
       <use xlink:href="#m0891ef5134" x="57.6" y="216.238345" style="stroke: #000000; stroke-width: 0.8"/>
      </g>
     </g>
     <g id="text_13">
      <!-- 50 -->
      <g transform="translate(37.875 220.037564)scale(0.1 -0.1)">
       <use xlink:href="#DejaVuSans-35"/>
       <use xlink:href="#DejaVuSans-30" x="63.623047"/>
      </g>
     </g>
    </g>
    <g id="ytick_4">
     <g id="line2d_25">
      <path d="M 57.6 174.528 
L 414.72 174.528 
" clip-path="url(#p68ec84b689)" style="fill: none; stroke-dasharray: 2.96,1.28; stroke-dashoffset: 0; stroke: #b0b0b0; stroke-width: 0.8"/>
     </g>
     <g id="line2d_26">
      <g>
       <use xlink:href="#m0891ef5134" x="57.6" y="174.528" style="stroke: #000000; stroke-width: 0.8"/>
      </g>
     </g>
     <g id="text_14">
      <!-- 60 -->
      <g transform="translate(37.875 178.327219)scale(0.1 -0.1)">
       <defs>
        <path id="DejaVuSans-36" d="M 2113 2584 
Q 1688 2584 1439 2293 
Q 1191 2003 1191 1497 
Q 1191 994 1439 701 
Q 1688 409 2113 409 
Q 2538 409 2786 701 
Q 3034 994 3034 1497 
Q 3034 2003 2786 2293 
Q 2538 2584 2113 2584 
z
M 3366 4563 
L 3366 3988 
Q 3128 4100 2886 4159 
Q 2644 4219 2406 4219 
Q 1781 4219 1451 3797 
Q 1122 3375 1075 2522 
Q 1259 2794 1537 2939 
Q 1816 3084 2150 3084 
Q 2853 3084 3261 2657 
Q 3669 2231 3669 1497 
Q 3669 778 3244 343 
Q 2819 -91 2113 -91 
Q 1303 -91 875 529 
Q 447 1150 447 2328 
Q 447 3434 972 4092 
Q 1497 4750 2381 4750 
Q 2619 4750 2861 4703 
Q 3103 4656 3366 4563 
z
" transform="scale(0.015625)"/>
       </defs>
       <use xlink:href="#DejaVuSans-36"/>
       <use xlink:href="#DejaVuSans-30" x="63.623047"/>
      </g>
     </g>
    </g>
    <g id="ytick_5">
     <g id="line2d_27">
      <path d="M 57.6 132.817655 
L 414.72 132.817655 
" clip-path="url(#p68ec84b689)" style="fill: none; stroke-dasharray: 2.96,1.28; stroke-dashoffset: 0; stroke: #b0b0b0; stroke-width: 0.8"/>
     </g>
     <g id="line2d_28">
      <g>
       <use xlink:href="#m0891ef5134" x="57.6" y="132.817655" style="stroke: #000000; stroke-width: 0.8"/>
      </g>
     </g>
     <g id="text_15">
      <!-- 70 -->
      <g transform="translate(37.875 136.616874)scale(0.1 -0.1)">
       <use xlink:href="#DejaVuSans-37"/>
       <use xlink:href="#DejaVuSans-30" x="63.623047"/>
      </g>
     </g>
    </g>
    <g id="ytick_6">
     <g id="line2d_29">
      <path d="M 57.6 91.10731 
L 414.72 91.10731 
" clip-path="url(#p68ec84b689)" style="fill: none; stroke-dasharray: 2.96,1.28; stroke-dashoffset: 0; stroke: #b0b0b0; stroke-width: 0.8"/>
     </g>
     <g id="line2d_30">
      <g>
       <use xlink:href="#m0891ef5134" x="57.6" y="91.10731" style="stroke: #000000; stroke-width: 0.8"/>
      </g>
     </g>
     <g id="text_16">
      <!-- 80 -->
      <g transform="translate(37.875 94.906529)scale(0.1 -0.1)">
       <defs>
        <path id="DejaVuSans-38" d="M 2034 2216 
Q 1584 2216 1326 1975 
Q 1069 1734 1069 1313 
Q 1069 891 1326 650 
Q 1584 409 2034 409 
Q 2484 409 2743 651 
Q 3003 894 3003 1313 
Q 3003 1734 2745 1975 
Q 2488 2216 2034 2216 
z
M 1403 2484 
Q 997 2584 770 2862 
Q 544 3141 544 3541 
Q 544 4100 942 4425 
Q 1341 4750 2034 4750 
Q 2731 4750 3128 4425 
Q 3525 4100 3525 3541 
Q 3525 3141 3298 2862 
Q 3072 2584 2669 2484 
Q 3125 2378 3379 2068 
Q 3634 1759 3634 1313 
Q 3634 634 3220 271 
Q 2806 -91 2034 -91 
Q 1263 -91 848 271 
Q 434 634 434 1313 
Q 434 1759 690 2068 
Q 947 2378 1403 2484 
z
M 1172 3481 
Q 1172 3119 1398 2916 
Q 1625 2713 2034 2713 
Q 2441 2713 2670 2916 
Q 2900 3119 2900 3481 
Q 2900 3844 2670 4047 
Q 2441 4250 2034 4250 
Q 1625 4250 1398 4047 
Q 1172 3844 1172 3481 
z
" transform="scale(0.015625)"/>
       </defs>
       <use xlink:href="#DejaVuSans-38"/>
       <use xlink:href="#DejaVuSans-30" x="63.623047"/>
      </g>
     </g>
    </g>
    <g id="ytick_7">
     <g id="line2d_31">
      <path d="M 57.6 49.396966 
L 414.72 49.396966 
" clip-path="url(#p68ec84b689)" style="fill: none; stroke-dasharray: 2.96,1.28; stroke-dashoffset: 0; stroke: #b0b0b0; stroke-width: 0.8"/>
     </g>
     <g id="line2d_32">
      <g>
       <use xlink:href="#m0891ef5134" x="57.6" y="49.396966" style="stroke: #000000; stroke-width: 0.8"/>
      </g>
     </g>
     <g id="text_17">
      <!-- 90 -->
      <g transform="translate(37.875 53.196184)scale(0.1 -0.1)">
       <defs>
        <path id="DejaVuSans-39" d="M 703 97 
L 703 672 
Q 941 559 1184 500 
Q 1428 441 1663 441 
Q 2288 441 2617 861 
Q 2947 1281 2994 2138 
Q 2813 1869 2534 1725 
Q 2256 1581 1919 1581 
Q 1219 1581 811 2004 
Q 403 2428 403 3163 
Q 403 3881 828 4315 
Q 1253 4750 1959 4750 
Q 2769 4750 3195 4129 
Q 3622 3509 3622 2328 
Q 3622 1225 3098 567 
Q 2575 -91 1691 -91 
Q 1453 -91 1209 -44 
Q 966 3 703 97 
z
M 1959 2075 
Q 2384 2075 2632 2365 
Q 2881 2656 2881 3163 
Q 2881 3666 2632 3958 
Q 2384 4250 1959 4250 
Q 1534 4250 1286 3958 
Q 1038 3666 1038 3163 
Q 1038 2656 1286 2365 
Q 1534 2075 1959 2075 
z
" transform="scale(0.015625)"/>
       </defs>
       <use xlink:href="#DejaVuSans-39"/>
       <use xlink:href="#DejaVuSans-30" x="63.623047"/>
      </g>
     </g>
    </g>
    <g id="text_18">
     <!-- Reward Density -->
     <g transform="translate(31.795312 213.74675)rotate(-90)scale(0.1 -0.1)">
      <defs>
       <path id="DejaVuSans-52" d="M 2841 2188 
Q 3044 2119 3236 1894 
Q 3428 1669 3622 1275 
L 4263 0 
L 3584 0 
L 2988 1197 
Q 2756 1666 2539 1819 
Q 2322 1972 1947 1972 
L 1259 1972 
L 1259 0 
L 628 0 
L 628 4666 
L 2053 4666 
Q 2853 4666 3247 4331 
Q 3641 3997 3641 3322 
Q 3641 2881 3436 2590 
Q 3231 2300 2841 2188 
z
M 1259 4147 
L 1259 2491 
L 2053 2491 
Q 2509 2491 2742 2702 
Q 2975 2913 2975 3322 
Q 2975 3731 2742 3939 
Q 2509 4147 2053 4147 
L 1259 4147 
z
" transform="scale(0.015625)"/>
       <path id="DejaVuSans-77" d="M 269 3500 
L 844 3500 
L 1563 769 
L 2278 3500 
L 2956 3500 
L 3675 769 
L 4391 3500 
L 4966 3500 
L 4050 0 
L 3372 0 
L 2619 2869 
L 1863 0 
L 1184 0 
L 269 3500 
z
" transform="scale(0.015625)"/>
       <path id="DejaVuSans-44" d="M 1259 4147 
L 1259 519 
L 2022 519 
Q 2988 519 3436 956 
Q 3884 1394 3884 2338 
Q 3884 3275 3436 3711 
Q 2988 4147 2022 4147 
L 1259 4147 
z
M 628 4666 
L 1925 4666 
Q 3281 4666 3915 4102 
Q 4550 3538 4550 2338 
Q 4550 1131 3912 565 
Q 3275 0 1925 0 
L 628 0 
L 628 4666 
z
" transform="scale(0.015625)"/>
       <path id="DejaVuSans-74" d="M 1172 4494 
L 1172 3500 
L 2356 3500 
L 2356 3053 
L 1172 3053 
L 1172 1153 
Q 1172 725 1289 603 
Q 1406 481 1766 481 
L 2356 481 
L 2356 0 
L 1766 0 
Q 1100 0 847 248 
Q 594 497 594 1153 
L 594 3053 
L 172 3053 
L 172 3500 
L 594 3500 
L 594 4494 
L 1172 4494 
z
" transform="scale(0.015625)"/>
       <path id="DejaVuSans-79" d="M 2059 -325 
Q 1816 -950 1584 -1140 
Q 1353 -1331 966 -1331 
L 506 -1331 
L 506 -850 
L 844 -850 
Q 1081 -850 1212 -737 
Q 1344 -625 1503 -206 
L 1606 56 
L 191 3500 
L 800 3500 
L 1894 763 
L 2988 3500 
L 3597 3500 
L 2059 -325 
z
" transform="scale(0.015625)"/>
      </defs>
      <use xlink:href="#DejaVuSans-52"/>
      <use xlink:href="#DejaVuSans-65" x="64.982422"/>
      <use xlink:href="#DejaVuSans-77" x="126.505859"/>
      <use xlink:href="#DejaVuSans-61" x="208.292969"/>
      <use xlink:href="#DejaVuSans-72" x="269.572266"/>
      <use xlink:href="#DejaVuSans-64" x="308.935547"/>
      <use xlink:href="#DejaVuSans-20" x="372.412109"/>
      <use xlink:href="#DejaVuSans-44" x="404.199219"/>
      <use xlink:href="#DejaVuSans-65" x="481.201172"/>
      <use xlink:href="#DejaVuSans-6e" x="542.724609"/>
      <use xlink:href="#DejaVuSans-73" x="606.103516"/>
      <use xlink:href="#DejaVuSans-69" x="658.203125"/>
      <use xlink:href="#DejaVuSans-74" x="685.986328"/>
      <use xlink:href="#DejaVuSans-79" x="725.195312"/>
     </g>
    </g>
   </g>
   <g id="LineCollection_1">
    <path d="M 90.893768 214.119459 
L 125.01585 214.119459 
" clip-path="url(#p68ec84b689)" style="fill: none; stroke: #1f77b4; stroke-width: 1.5"/>
    <path d="M 176.198972 185.581241 
L 210.321054 185.581241 
" clip-path="url(#p68ec84b689)" style="fill: none; stroke: #1f77b4; stroke-width: 1.5"/>
    <path d="M 261.504176 175.153655 
L 295.626258 175.153655 
" clip-path="url(#p68ec84b689)" style="fill: none; stroke: #1f77b4; stroke-width: 1.5"/>
    <path d="M 346.80938 170.890858 
L 380.931462 170.890858 
" clip-path="url(#p68ec84b689)" style="fill: none; stroke: #1f77b4; stroke-width: 1.5"/>
    <path d="M 347.30415 164.559228 
L 381.426232 164.559228 
" clip-path="url(#p68ec84b689)" style="fill: none; stroke: #1f77b4; stroke-width: 1.5"/>
   </g>
   <g id="LineCollection_2">
    <path d="M 90.893768 107.791448 
L 125.01585 107.791448 
" clip-path="url(#p68ec84b689)" style="fill: none; stroke: #1f77b4; stroke-width: 1.5"/>
    <path d="M 176.198972 103.620414 
L 210.321054 103.620414 
" clip-path="url(#p68ec84b689)" style="fill: none; stroke: #1f77b4; stroke-width: 1.5"/>
    <path d="M 261.504176 74.423172 
L 295.626258 74.423172 
" clip-path="url(#p68ec84b689)" style="fill: none; stroke: #1f77b4; stroke-width: 1.5"/>
    <path d="M 346.80938 53.568 
L 380.931462 53.568 
" clip-path="url(#p68ec84b689)" style="fill: none; stroke: #1f77b4; stroke-width: 1.5"/>
    <path d="M 347.30415 53.568 
L 381.426232 53.568 
" clip-path="url(#p68ec84b689)" style="fill: none; stroke: #1f77b4; stroke-width: 1.5"/>
   </g>
   <g id="LineCollection_3">
    <path d="M 90.893768 295.488 
L 125.01585 295.488 
" clip-path="url(#p68ec84b689)" style="fill: none; stroke: #1f77b4; stroke-width: 1.5"/>
    <path d="M 176.198972 274.632828 
L 210.321054 274.632828 
" clip-path="url(#p68ec84b689)" style="fill: none; stroke: #1f77b4; stroke-width: 1.5"/>
    <path d="M 261.504176 282.974897 
L 295.626258 282.974897 
" clip-path="url(#p68ec84b689)" style="fill: none; stroke: #1f77b4; stroke-width: 1.5"/>
    <path d="M 346.80938 266.290759 
L 380.931462 266.290759 
" clip-path="url(#p68ec84b689)" style="fill: none; stroke: #1f77b4; stroke-width: 1.5"/>
    <path d="M 347.30415 253.777655 
L 381.426232 253.777655 
" clip-path="url(#p68ec84b689)" style="fill: none; stroke: #1f77b4; stroke-width: 1.5"/>
   </g>
   <g id="LineCollection_4">
    <path d="M 107.954809 295.488 
L 107.954809 107.791448 
" clip-path="url(#p68ec84b689)" style="fill: none; stroke: #1f77b4; stroke-width: 1.5"/>
    <path d="M 193.260013 274.632828 
L 193.260013 103.620414 
" clip-path="url(#p68ec84b689)" style="fill: none; stroke: #1f77b4; stroke-width: 1.5"/>
    <path d="M 278.565217 282.974897 
L 278.565217 74.423172 
" clip-path="url(#p68ec84b689)" style="fill: none; stroke: #1f77b4; stroke-width: 1.5"/>
    <path d="M 363.870421 266.290759 
L 363.870421 53.568 
" clip-path="url(#p68ec84b689)" style="fill: none; stroke: #1f77b4; stroke-width: 1.5"/>
    <path d="M 364.365191 253.777655 
L 364.365191 53.568 
" clip-path="url(#p68ec84b689)" style="fill: none; stroke: #1f77b4; stroke-width: 1.5"/>
   </g>
   <g id="line2d_33">
    <path d="M 107.954809 214.119459 
L 193.260013 185.581241 
L 278.565217 175.153655 
L 363.870421 170.890858 
L 364.365191 164.559228 
" clip-path="url(#p68ec84b689)" style="fill: none; stroke: #4682b4; stroke-width: 1.5; stroke-linecap: square"/>
   </g>
   <g id="line2d_34">
    <path d="M 107.954809 214.119459 
L 193.260013 185.581241 
L 278.565217 175.153655 
L 363.870421 170.890858 
L 364.365191 164.559228 
" clip-path="url(#p68ec84b689)" style="fill: none; stroke: #4682b4; stroke-width: 1.5; stroke-linecap: square"/>
   </g>
   <g id="patch_3">
    <path d="M 57.6 307.584 
L 57.6 41.472 
" style="fill: none; stroke: #000000; stroke-width: 0.8; stroke-linejoin: miter; stroke-linecap: square"/>
   </g>
   <g id="patch_4">
    <path d="M 414.72 307.584 
L 414.72 41.472 
" style="fill: none; stroke: #000000; stroke-width: 0.8; stroke-linejoin: miter; stroke-linecap: square"/>
   </g>
   <g id="patch_5">
    <path d="M 57.6 307.584 
L 414.72 307.584 
" style="fill: none; stroke: #000000; stroke-width: 0.8; stroke-linejoin: miter; stroke-linecap: square"/>
   </g>
   <g id="patch_6">
    <path d="M 57.6 41.472 
L 414.72 41.472 
" style="fill: none; stroke: #000000; stroke-width: 0.8; stroke-linejoin: miter; stroke-linecap: square"/>
   </g>
   <g id="text_19">
    <!-- Violinplot for progress of customer/buy_nothing -->
    <g transform="translate(93.315937 35.472)scale(0.12 -0.12)">
     <defs>
      <path id="DejaVuSans-56" d="M 1831 0 
L 50 4666 
L 709 4666 
L 2188 738 
L 3669 4666 
L 4325 4666 
L 2547 0 
L 1831 0 
z
" transform="scale(0.015625)"/>
      <path id="DejaVuSans-6c" d="M 603 4863 
L 1178 4863 
L 1178 0 
L 603 0 
L 603 4863 
z
" transform="scale(0.015625)"/>
      <path id="DejaVuSans-66" d="M 2375 4863 
L 2375 4384 
L 1825 4384 
Q 1516 4384 1395 4259 
Q 1275 4134 1275 3809 
L 1275 3500 
L 2222 3500 
L 2222 3053 
L 1275 3053 
L 1275 0 
L 697 0 
L 697 3053 
L 147 3053 
L 147 3500 
L 697 3500 
L 697 3744 
Q 697 4328 969 4595 
Q 1241 4863 1831 4863 
L 2375 4863 
z
" transform="scale(0.015625)"/>
      <path id="DejaVuSans-67" d="M 2906 1791 
Q 2906 2416 2648 2759 
Q 2391 3103 1925 3103 
Q 1463 3103 1205 2759 
Q 947 2416 947 1791 
Q 947 1169 1205 825 
Q 1463 481 1925 481 
Q 2391 481 2648 825 
Q 2906 1169 2906 1791 
z
M 3481 434 
Q 3481 -459 3084 -895 
Q 2688 -1331 1869 -1331 
Q 1566 -1331 1297 -1286 
Q 1028 -1241 775 -1147 
L 775 -588 
Q 1028 -725 1275 -790 
Q 1522 -856 1778 -856 
Q 2344 -856 2625 -561 
Q 2906 -266 2906 331 
L 2906 616 
Q 2728 306 2450 153 
Q 2172 0 1784 0 
Q 1141 0 747 490 
Q 353 981 353 1791 
Q 353 2603 747 3093 
Q 1141 3584 1784 3584 
Q 2172 3584 2450 3431 
Q 2728 3278 2906 2969 
L 2906 3500 
L 3481 3500 
L 3481 434 
z
" transform="scale(0.015625)"/>
      <path id="DejaVuSans-63" d="M 3122 3366 
L 3122 2828 
Q 2878 2963 2633 3030 
Q 2388 3097 2138 3097 
Q 1578 3097 1268 2742 
Q 959 2388 959 1747 
Q 959 1106 1268 751 
Q 1578 397 2138 397 
Q 2388 397 2633 464 
Q 2878 531 3122 666 
L 3122 134 
Q 2881 22 2623 -34 
Q 2366 -91 2075 -91 
Q 1284 -91 818 406 
Q 353 903 353 1747 
Q 353 2603 823 3093 
Q 1294 3584 2113 3584 
Q 2378 3584 2631 3529 
Q 2884 3475 3122 3366 
z
" transform="scale(0.015625)"/>
      <path id="DejaVuSans-75" d="M 544 1381 
L 544 3500 
L 1119 3500 
L 1119 1403 
Q 1119 906 1312 657 
Q 1506 409 1894 409 
Q 2359 409 2629 706 
Q 2900 1003 2900 1516 
L 2900 3500 
L 3475 3500 
L 3475 0 
L 2900 0 
L 2900 538 
Q 2691 219 2414 64 
Q 2138 -91 1772 -91 
Q 1169 -91 856 284 
Q 544 659 544 1381 
z
M 1991 3584 
L 1991 3584 
z
" transform="scale(0.015625)"/>
      <path id="DejaVuSans-6d" d="M 3328 2828 
Q 3544 3216 3844 3400 
Q 4144 3584 4550 3584 
Q 5097 3584 5394 3201 
Q 5691 2819 5691 2113 
L 5691 0 
L 5113 0 
L 5113 2094 
Q 5113 2597 4934 2840 
Q 4756 3084 4391 3084 
Q 3944 3084 3684 2787 
Q 3425 2491 3425 1978 
L 3425 0 
L 2847 0 
L 2847 2094 
Q 2847 2600 2669 2842 
Q 2491 3084 2119 3084 
Q 1678 3084 1418 2786 
Q 1159 2488 1159 1978 
L 1159 0 
L 581 0 
L 581 3500 
L 1159 3500 
L 1159 2956 
Q 1356 3278 1631 3431 
Q 1906 3584 2284 3584 
Q 2666 3584 2933 3390 
Q 3200 3197 3328 2828 
z
" transform="scale(0.015625)"/>
      <path id="DejaVuSans-2f" d="M 1625 4666 
L 2156 4666 
L 531 -594 
L 0 -594 
L 1625 4666 
z
" transform="scale(0.015625)"/>
      <path id="DejaVuSans-62" d="M 3116 1747 
Q 3116 2381 2855 2742 
Q 2594 3103 2138 3103 
Q 1681 3103 1420 2742 
Q 1159 2381 1159 1747 
Q 1159 1113 1420 752 
Q 1681 391 2138 391 
Q 2594 391 2855 752 
Q 3116 1113 3116 1747 
z
M 1159 2969 
Q 1341 3281 1617 3432 
Q 1894 3584 2278 3584 
Q 2916 3584 3314 3078 
Q 3713 2572 3713 1747 
Q 3713 922 3314 415 
Q 2916 -91 2278 -91 
Q 1894 -91 1617 61 
Q 1341 213 1159 525 
L 1159 0 
L 581 0 
L 581 4863 
L 1159 4863 
L 1159 2969 
z
" transform="scale(0.015625)"/>
      <path id="DejaVuSans-5f" d="M 3263 -1063 
L 3263 -1509 
L -63 -1509 
L -63 -1063 
L 3263 -1063 
z
" transform="scale(0.015625)"/>
      <path id="DejaVuSans-68" d="M 3513 2113 
L 3513 0 
L 2938 0 
L 2938 2094 
Q 2938 2591 2744 2837 
Q 2550 3084 2163 3084 
Q 1697 3084 1428 2787 
Q 1159 2491 1159 1978 
L 1159 0 
L 581 0 
L 581 4863 
L 1159 4863 
L 1159 2956 
Q 1366 3272 1645 3428 
Q 1925 3584 2291 3584 
Q 2894 3584 3203 3211 
Q 3513 2838 3513 2113 
z
" transform="scale(0.015625)"/>
     </defs>
     <use xlink:href="#DejaVuSans-56"/>
     <use xlink:href="#DejaVuSans-69" x="66.158203"/>
     <use xlink:href="#DejaVuSans-6f" x="93.941406"/>
     <use xlink:href="#DejaVuSans-6c" x="155.123047"/>
     <use xlink:href="#DejaVuSans-69" x="182.90625"/>
     <use xlink:href="#DejaVuSans-6e" x="210.689453"/>
     <use xlink:href="#DejaVuSans-70" x="274.068359"/>
     <use xlink:href="#DejaVuSans-6c" x="337.544922"/>
     <use xlink:href="#DejaVuSans-6f" x="365.328125"/>
     <use xlink:href="#DejaVuSans-74" x="426.509766"/>
     <use xlink:href="#DejaVuSans-20" x="465.71875"/>
     <use xlink:href="#DejaVuSans-66" x="497.505859"/>
     <use xlink:href="#DejaVuSans-6f" x="532.710938"/>
     <use xlink:href="#DejaVuSans-72" x="593.892578"/>
     <use xlink:href="#DejaVuSans-20" x="635.005859"/>
     <use xlink:href="#DejaVuSans-70" x="666.792969"/>
     <use xlink:href="#DejaVuSans-72" x="730.269531"/>
     <use xlink:href="#DejaVuSans-6f" x="769.132812"/>
     <use xlink:href="#DejaVuSans-67" x="830.314453"/>
     <use xlink:href="#DejaVuSans-72" x="893.791016"/>
     <use xlink:href="#DejaVuSans-65" x="932.654297"/>
     <use xlink:href="#DejaVuSans-73" x="994.177734"/>
     <use xlink:href="#DejaVuSans-73" x="1046.277344"/>
     <use xlink:href="#DejaVuSans-20" x="1098.376953"/>
     <use xlink:href="#DejaVuSans-6f" x="1130.164062"/>
     <use xlink:href="#DejaVuSans-66" x="1191.345703"/>
     <use xlink:href="#DejaVuSans-20" x="1226.550781"/>
     <use xlink:href="#DejaVuSans-63" x="1258.337891"/>
     <use xlink:href="#DejaVuSans-75" x="1313.318359"/>
     <use xlink:href="#DejaVuSans-73" x="1376.697266"/>
     <use xlink:href="#DejaVuSans-74" x="1428.796875"/>
     <use xlink:href="#DejaVuSans-6f" x="1468.005859"/>
     <use xlink:href="#DejaVuSans-6d" x="1529.1875"/>
     <use xlink:href="#DejaVuSans-65" x="1626.599609"/>
     <use xlink:href="#DejaVuSans-72" x="1688.123047"/>
     <use xlink:href="#DejaVuSans-2f" x="1729.236328"/>
     <use xlink:href="#DejaVuSans-62" x="1762.927734"/>
     <use xlink:href="#DejaVuSans-75" x="1826.404297"/>
     <use xlink:href="#DejaVuSans-79" x="1889.783203"/>
     <use xlink:href="#DejaVuSans-5f" x="1948.962891"/>
     <use xlink:href="#DejaVuSans-6e" x="1998.962891"/>
     <use xlink:href="#DejaVuSans-6f" x="2062.341797"/>
     <use xlink:href="#DejaVuSans-74" x="2123.523438"/>
     <use xlink:href="#DejaVuSans-68" x="2162.732422"/>
     <use xlink:href="#DejaVuSans-69" x="2226.111328"/>
     <use xlink:href="#DejaVuSans-6e" x="2253.894531"/>
     <use xlink:href="#DejaVuSans-67" x="2317.273438"/>
    </g>
   </g>
  </g>
 </g>
 <defs>
  <clipPath id="p68ec84b689">
   <rect x="57.6" y="41.472" width="357.12" height="266.112"/>
  </clipPath>
 </defs>
</svg>
