<?xml version="1.0" encoding="utf-8" standalone="no"?>
<!DOCTYPE svg PUBLIC "-//W3C//DTD SVG 1.1//EN"
  "http://www.w3.org/Graphics/SVG/1.1/DTD/svg11.dtd">
<svg xmlns:xlink="http://www.w3.org/1999/xlink" width="460.8pt" height="345.6pt" viewBox="0 0 460.8 345.6" xmlns="http://www.w3.org/2000/svg" version="1.1">
 <metadata>
  <rdf:RDF xmlns:dc="http://purl.org/dc/elements/1.1/" xmlns:cc="http://creativecommons.org/ns#" xmlns:rdf="http://www.w3.org/1999/02/22-rdf-syntax-ns#">
   <cc:Work>
    <dc:type rdf:resource="http://purl.org/dc/dcmitype/StillImage"/>
    <dc:date>2022-06-21T20:54:27.613556</dc:date>
    <dc:format>image/svg+xml</dc:format>
    <dc:creator>
     <cc:Agent>
      <dc:title>Matplotlib v3.5.2, https://matplotlib.org/</dc:title>
     </cc:Agent>
    </dc:creator>
   </cc:Work>
  </rdf:RDF>
 </metadata>
 <defs>
  <style type="text/css">*{stroke-linejoin: round; stroke-linecap: butt}</style>
 </defs>
 <g id="figure_1">
  <g id="patch_1">
   <path d="M 0 345.6 
L 460.8 345.6 
L 460.8 0 
L 0 0 
z
" style="fill: #ffffff"/>
  </g>
  <g id="axes_1">
   <g id="patch_2">
    <path d="M 57.6 307.584 
L 414.72 307.584 
L 414.72 41.472 
L 57.6 41.472 
z
" style="fill: #ffffff"/>
   </g>
   <g id="PolyCollection_1">
    <path d="M 108.129568 295.488 
L 107.780049 295.488 
L 107.767562 293.601868 
L 107.761732 291.715736 
L 107.760469 289.829603 
L 107.763059 287.943471 
L 107.77084 286.057339 
L 107.785925 284.171207 
L 107.809031 282.285075 
L 107.838172 280.398942 
L 107.869174 278.51281 
L 107.897484 276.626678 
L 107.919958 274.740546 
L 107.935609 272.854414 
L 107.945237 270.968281 
L 107.950492 269.082149 
L 107.953044 267.196017 
L 107.954135 265.309885 
L 107.954498 263.423753 
L 107.954436 261.53762 
L 107.953892 259.651488 
L 107.952429 257.765356 
L 107.94913 255.879224 
L 107.942511 253.993092 
L 107.930632 252.106959 
L 107.911556 250.220827 
L 107.884127 248.334695 
L 107.848704 246.448563 
L 107.807303 244.562431 
L 107.762815 242.676298 
L 107.71765 240.790166 
L 107.672755 238.904034 
L 107.627847 237.017902 
L 107.582779 235.13177 
L 107.538951 233.245637 
L 107.49955 231.359505 
L 107.468234 229.473373 
L 107.447122 227.587241 
L 107.435537 225.701108 
L 107.430474 223.814976 
L 107.428606 221.928844 
L 107.428535 220.042712 
L 107.431667 218.15658 
L 107.440974 216.270447 
L 107.458291 214.384315 
L 107.48194 212.498183 
L 107.506278 210.612051 
L 107.523621 208.725919 
L 107.527559 206.839786 
L 107.515886 204.953654 
L 107.49144 203.067522 
L 107.460092 201.18139 
L 107.426637 199.295258 
L 107.390783 197.409125 
L 107.34579 195.522993 
L 107.280896 193.636861 
L 107.186232 191.750729 
L 107.057175 189.864597 
L 106.895546 187.978464 
L 106.707364 186.092332 
L 106.499158 184.2062 
L 106.275319 182.320068 
L 106.037454 180.433936 
L 105.78495 178.547803 
L 105.515578 176.661671 
L 105.225836 174.775539 
L 104.911465 172.889407 
L 104.568165 171.003275 
L 104.191801 169.117142 
L 103.777277 167.23101 
L 103.316138 165.344878 
L 102.793892 163.458746 
L 102.188419 161.572614 
L 101.470543 159.686481 
L 100.606959 157.800349 
L 99.564346 155.914217 
L 98.312408 154.028085 
L 96.824075 152.141953 
L 95.073745 150.25582 
L 93.037481 148.369688 
L 90.699885 146.483556 
L 88.069675 144.597424 
L 85.201399 142.711292 
L 82.216468 140.825159 
L 79.313612 138.939027 
L 76.758144 137.052895 
L 74.843835 135.166763 
L 73.832727 133.280631 
L 73.892384 131.394498 
L 75.05599 129.508366 
L 77.221258 127.622234 
L 80.184127 125.736102 
L 83.687365 123.84997 
L 87.463161 121.963837 
L 91.260513 120.077705 
L 94.861094 118.191573 
L 98.091401 116.305441 
L 100.834367 114.419309 
L 103.036983 112.533176 
L 104.708503 110.647044 
L 105.907461 108.760912 
L 110.002157 108.760912 
L 110.002157 108.760912 
L 111.201115 110.647044 
L 112.872635 112.533176 
L 115.075251 114.419309 
L 117.818217 116.305441 
L 121.048523 118.191573 
L 124.649104 120.077705 
L 128.446457 121.963837 
L 132.222252 123.84997 
L 135.725491 125.736102 
L 138.688359 127.622234 
L 140.853627 129.508366 
L 142.017234 131.394498 
L 142.07689 133.280631 
L 141.065783 135.166763 
L 139.151473 137.052895 
L 136.596006 138.939027 
L 133.693149 140.825159 
L 130.708218 142.711292 
L 127.839943 144.597424 
L 125.209732 146.483556 
L 122.872137 148.369688 
L 120.835872 150.25582 
L 119.085543 152.141953 
L 117.59721 154.028085 
L 116.345272 155.914217 
L 115.302659 157.800349 
L 114.439074 159.686481 
L 113.721199 161.572614 
L 113.115726 163.458746 
L 112.59348 165.344878 
L 112.13234 167.23101 
L 111.717816 169.117142 
L 111.341453 171.003275 
L 110.998153 172.889407 
L 110.683781 174.775539 
L 110.39404 176.661671 
L 110.124668 178.547803 
L 109.872164 180.433936 
L 109.634298 182.320068 
L 109.41046 184.2062 
L 109.202253 186.092332 
L 109.014071 187.978464 
L 108.852443 189.864597 
L 108.723386 191.750729 
L 108.628722 193.636861 
L 108.563828 195.522993 
L 108.518834 197.409125 
L 108.482981 199.295258 
L 108.449526 201.18139 
L 108.418178 203.067522 
L 108.393732 204.953654 
L 108.382059 206.839786 
L 108.385997 208.725919 
L 108.403339 210.612051 
L 108.427677 212.498183 
L 108.451327 214.384315 
L 108.468644 216.270447 
L 108.47795 218.15658 
L 108.481083 220.042712 
L 108.481011 221.928844 
L 108.479144 223.814976 
L 108.474081 225.701108 
L 108.462496 227.587241 
L 108.441384 229.473373 
L 108.410067 231.359505 
L 108.370667 233.245637 
L 108.326839 235.13177 
L 108.28177 237.017902 
L 108.236863 238.904034 
L 108.191968 240.790166 
L 108.146803 242.676298 
L 108.102315 244.562431 
L 108.060914 246.448563 
L 108.025491 248.334695 
L 107.998061 250.220827 
L 107.978986 252.106959 
L 107.967107 253.993092 
L 107.960488 255.879224 
L 107.957189 257.765356 
L 107.955726 259.651488 
L 107.955182 261.53762 
L 107.95512 263.423753 
L 107.955483 265.309885 
L 107.956574 267.196017 
L 107.959125 269.082149 
L 107.964381 270.968281 
L 107.974008 272.854414 
L 107.98966 274.740546 
L 108.012133 276.626678 
L 108.040444 278.51281 
L 108.071446 280.398942 
L 108.100587 282.285075 
L 108.123692 284.171207 
L 108.138778 286.057339 
L 108.146559 287.943471 
L 108.149148 289.829603 
L 108.147886 291.715736 
L 108.142056 293.601868 
L 108.129568 295.488 
z
" clip-path="url(#pe85ba96c53)" style="fill: #1f77b4; fill-opacity: 0.3"/>
   </g>
   <g id="PolyCollection_2">
    <path d="M 193.473982 161.457406 
L 193.046044 161.457406 
L 193.052247 160.639952 
L 193.07015 159.822498 
L 193.095311 159.005044 
L 193.1216 158.18759 
L 193.14244 157.370136 
L 193.151945 156.552682 
L 193.14582 155.735228 
L 193.122021 154.917774 
L 193.081283 154.100319 
L 193.027464 153.282865 
L 192.967466 152.465411 
L 192.910419 151.647957 
L 192.866004 150.830503 
L 192.842183 150.013049 
L 192.842986 149.195595 
L 192.867129 148.378141 
L 192.907954 147.560687 
L 192.954668 146.743233 
L 192.994364 145.925779 
L 193.014111 145.108324 
L 193.002579 144.29087 
L 192.951071 143.473416 
L 192.854188 142.655962 
L 192.710453 141.838508 
L 192.523083 141.021054 
L 192.300741 140.2036 
L 192.057827 139.386146 
L 191.81374 138.568692 
L 191.590761 137.751238 
L 191.410635 136.933784 
L 191.290471 136.11633 
L 191.238946 135.298875 
L 191.253838 134.481421 
L 191.321597 133.663967 
L 191.419138 132.846513 
L 191.517556 132.029059 
L 191.587033 131.211605 
L 191.601935 130.394151 
L 191.54491 129.576697 
L 191.408794 128.759243 
L 191.195513 127.941789 
L 190.912081 127.124335 
L 190.564913 126.306881 
L 190.154686 125.489426 
L 189.674014 124.671972 
L 189.109179 123.854518 
L 188.445206 123.037064 
L 187.671799 122.21961 
L 186.786936 121.402156 
L 185.79596 120.584702 
L 184.70638 119.767248 
L 183.521068 118.949794 
L 182.233821 118.13234 
L 180.83028 117.314886 
L 179.294496 116.497431 
L 177.61829 115.679977 
L 175.809029 114.862523 
L 173.892405 114.045069 
L 171.909723 113.227615 
L 169.912118 112.410161 
L 167.954969 111.592707 
L 166.094221 110.775253 
L 164.383907 109.957799 
L 162.872908 109.140345 
L 161.600137 108.322891 
L 160.589653 107.505437 
L 159.848595 106.687982 
L 159.369797 105.870528 
L 159.13821 105.053074 
L 159.137931 104.23562 
L 159.35662 103.418166 
L 159.786147 102.600712 
L 160.420871 101.783258 
L 161.255855 100.965804 
L 162.286282 100.14835 
L 163.507333 99.330896 
L 164.912716 98.513442 
L 166.490831 97.695988 
L 168.219634 96.878533 
L 170.062942 96.061079 
L 171.97081 95.243625 
L 173.884548 94.426171 
L 175.744375 93.608717 
L 177.496526 92.791263 
L 179.09766 91.973809 
L 180.516776 91.156355 
L 181.73658 90.338901 
L 182.755872 89.521447 
L 183.592444 88.703993 
L 184.283918 87.886538 
L 184.883761 87.069084 
L 185.451741 86.25163 
L 186.041126 85.434176 
L 186.686987 84.616722 
L 187.399779 83.799268 
L 188.166143 82.981814 
L 188.955812 82.16436 
L 189.731422 81.346906 
L 190.457599 80.529452 
L 196.062427 80.529452 
L 196.062427 80.529452 
L 196.788604 81.346906 
L 197.564213 82.16436 
L 198.353883 82.981814 
L 199.120246 83.799268 
L 199.833039 84.616722 
L 200.478899 85.434176 
L 201.068285 86.25163 
L 201.636265 87.069084 
L 202.236108 87.886538 
L 202.927582 88.703993 
L 203.764154 89.521447 
L 204.783446 90.338901 
L 206.00325 91.156355 
L 207.422366 91.973809 
L 209.023499 92.791263 
L 210.775651 93.608717 
L 212.635477 94.426171 
L 214.549215 95.243625 
L 216.457084 96.061079 
L 218.300392 96.878533 
L 220.029195 97.695988 
L 221.60731 98.513442 
L 223.012693 99.330896 
L 224.233744 100.14835 
L 225.264171 100.965804 
L 226.099154 101.783258 
L 226.733879 102.600712 
L 227.163406 103.418166 
L 227.382095 104.23562 
L 227.381816 105.053074 
L 227.150228 105.870528 
L 226.671431 106.687982 
L 225.930373 107.505437 
L 224.919889 108.322891 
L 223.647118 109.140345 
L 222.136119 109.957799 
L 220.425805 110.775253 
L 218.565057 111.592707 
L 216.607907 112.410161 
L 214.610303 113.227615 
L 212.627621 114.045069 
L 210.710996 114.862523 
L 208.901736 115.679977 
L 207.22553 116.497431 
L 205.689745 117.314886 
L 204.286205 118.13234 
L 202.998957 118.949794 
L 201.813646 119.767248 
L 200.724065 120.584702 
L 199.73309 121.402156 
L 198.848226 122.21961 
L 198.07482 123.037064 
L 197.410847 123.854518 
L 196.846012 124.671972 
L 196.36534 125.489426 
L 195.955112 126.306881 
L 195.607945 127.124335 
L 195.324513 127.941789 
L 195.111232 128.759243 
L 194.975115 129.576697 
L 194.918091 130.394151 
L 194.932992 131.211605 
L 195.002469 132.029059 
L 195.100888 132.846513 
L 195.198429 133.663967 
L 195.266188 134.481421 
L 195.28108 135.298875 
L 195.229555 136.11633 
L 195.109391 136.933784 
L 194.929265 137.751238 
L 194.706286 138.568692 
L 194.462199 139.386146 
L 194.219284 140.2036 
L 193.996943 141.021054 
L 193.809573 141.838508 
L 193.665838 142.655962 
L 193.568955 143.473416 
L 193.517447 144.29087 
L 193.505914 145.108324 
L 193.525661 145.925779 
L 193.565358 146.743233 
L 193.612072 147.560687 
L 193.652897 148.378141 
L 193.67704 149.195595 
L 193.677843 150.013049 
L 193.654022 150.830503 
L 193.609607 151.647957 
L 193.55256 152.465411 
L 193.492562 153.282865 
L 193.438743 154.100319 
L 193.398005 154.917774 
L 193.374206 155.735228 
L 193.368081 156.552682 
L 193.377586 157.370136 
L 193.398425 158.18759 
L 193.424715 159.005044 
L 193.449876 159.822498 
L 193.467779 160.639952 
L 193.473982 161.457406 
z
" clip-path="url(#pe85ba96c53)" style="fill: #1f77b4; fill-opacity: 0.3"/>
   </g>
   <g id="PolyCollection_3">
    <path d="M 278.809444 139.096174 
L 278.32099 139.096174 
L 278.32477 138.362587 
L 278.338473 137.629 
L 278.35796 136.895413 
L 278.377638 136.161826 
L 278.391487 135.428238 
L 278.394067 134.694651 
L 278.381259 133.961064 
L 278.350573 133.227477 
L 278.301002 132.49389 
L 278.232517 131.760303 
L 278.145356 131.026716 
L 278.039335 130.293128 
L 277.913352 129.559541 
L 277.765237 128.825954 
L 277.59194 128.092367 
L 277.389981 127.35878 
L 277.156031 126.625193 
L 276.887505 125.891605 
L 276.583131 125.158018 
L 276.243508 124.424431 
L 275.871601 123.690844 
L 275.473031 122.957257 
L 275.055858 122.22367 
L 274.629535 121.490083 
L 274.202906 120.756495 
L 273.781472 120.022908 
L 273.36461 119.289321 
L 272.943743 118.555734 
L 272.502362 117.822147 
L 272.01829 117.08856 
L 271.467757 116.354972 
L 270.83006 115.621385 
L 270.091321 114.887798 
L 269.24621 114.154211 
L 268.297409 113.420624 
L 267.253552 112.687037 
L 266.126832 111.95345 
L 264.931228 111.219862 
L 263.681577 110.486275 
L 262.392993 109.752688 
L 261.079963 109.019101 
L 259.754901 108.285514 
L 258.426654 107.551927 
L 257.099946 106.81834 
L 255.776571 106.084752 
L 254.458392 105.351165 
L 253.151288 104.617578 
L 251.868596 103.883991 
L 250.632605 103.150404 
L 249.473201 102.416817 
L 248.423607 101.683229 
L 247.514007 100.949642 
L 246.764508 100.216055 
L 246.179342 99.482468 
L 245.744207 98.748881 
L 245.428213 98.015294 
L 245.190809 97.281707 
L 244.992628 96.548119 
L 244.807669 95.814532 
L 244.633336 95.080945 
L 244.494999 94.347358 
L 244.443135 93.613771 
L 244.543359 92.880184 
L 244.862009 92.146596 
L 245.451421 91.413009 
L 246.338988 90.679422 
L 247.522618 89.945835 
L 248.972891 89.212248 
L 250.640153 88.478661 
L 252.463753 87.745074 
L 254.380793 87.011486 
L 256.332739 86.277899 
L 258.269379 85.544312 
L 260.15039 84.810725 
L 261.945151 84.077138 
L 263.631457 83.343551 
L 265.193781 82.609964 
L 266.62167 81.876376 
L 267.908702 81.142789 
L 269.052148 80.409202 
L 270.053216 79.675615 
L 270.917504 78.942028 
L 271.655343 78.208441 
L 272.281817 77.474853 
L 272.816364 76.741266 
L 273.281849 76.007679 
L 273.7029 75.274092 
L 274.103402 74.540505 
L 274.503278 73.806918 
L 274.915265 73.073331 
L 275.342693 72.339743 
L 275.779239 71.606156 
L 276.211059 70.872569 
L 276.620781 70.138982 
L 276.992141 69.405395 
L 277.313802 68.671808 
L 277.581292 67.93822 
L 277.796759 67.204633 
L 277.967052 66.471046 
L 279.163381 66.471046 
L 279.163381 66.471046 
L 279.333675 67.204633 
L 279.549142 67.93822 
L 279.816632 68.671808 
L 280.138293 69.405395 
L 280.509653 70.138982 
L 280.919375 70.872569 
L 281.351195 71.606156 
L 281.787741 72.339743 
L 282.215169 73.073331 
L 282.627156 73.806918 
L 283.027032 74.540505 
L 283.427533 75.274092 
L 283.848585 76.007679 
L 284.314069 76.741266 
L 284.848617 77.474853 
L 285.475091 78.208441 
L 286.21293 78.942028 
L 287.077218 79.675615 
L 288.078286 80.409202 
L 289.221732 81.142789 
L 290.508764 81.876376 
L 291.936653 82.609964 
L 293.498977 83.343551 
L 295.185283 84.077138 
L 296.980044 84.810725 
L 298.861055 85.544312 
L 300.797694 86.277899 
L 302.749641 87.011486 
L 304.666681 87.745074 
L 306.490281 88.478661 
L 308.157543 89.212248 
L 309.607816 89.945835 
L 310.791446 90.679422 
L 311.679013 91.413009 
L 312.268424 92.146596 
L 312.587075 92.880184 
L 312.687299 93.613771 
L 312.635435 94.347358 
L 312.497098 95.080945 
L 312.322764 95.814532 
L 312.137805 96.548119 
L 311.939625 97.281707 
L 311.702221 98.015294 
L 311.386227 98.748881 
L 310.951092 99.482468 
L 310.365926 100.216055 
L 309.616427 100.949642 
L 308.706827 101.683229 
L 307.657233 102.416817 
L 306.497829 103.150404 
L 305.261838 103.883991 
L 303.979146 104.617578 
L 302.672042 105.351165 
L 301.353863 106.084752 
L 300.030488 106.81834 
L 298.70378 107.551927 
L 297.375533 108.285514 
L 296.050471 109.019101 
L 294.737441 109.752688 
L 293.448857 110.486275 
L 292.199206 111.219862 
L 291.003602 111.95345 
L 289.876882 112.687037 
L 288.833025 113.420624 
L 287.884224 114.154211 
L 287.039113 114.887798 
L 286.300374 115.621385 
L 285.662677 116.354972 
L 285.112143 117.08856 
L 284.628072 117.822147 
L 284.186691 118.555734 
L 283.765824 119.289321 
L 283.348962 120.022908 
L 282.927528 120.756495 
L 282.500899 121.490083 
L 282.074576 122.22367 
L 281.657403 122.957257 
L 281.258833 123.690844 
L 280.886926 124.424431 
L 280.547302 125.158018 
L 280.242929 125.891605 
L 279.974402 126.625193 
L 279.740453 127.35878 
L 279.538494 128.092367 
L 279.365196 128.825954 
L 279.217082 129.559541 
L 279.091099 130.293128 
L 278.985078 131.026716 
L 278.897917 131.760303 
L 278.829432 132.49389 
L 278.779861 133.227477 
L 278.749174 133.961064 
L 278.736367 134.694651 
L 278.738947 135.428238 
L 278.752795 136.161826 
L 278.772474 136.895413 
L 278.791961 137.629 
L 278.805664 138.362587 
L 278.809444 139.096174 
z
" clip-path="url(#pe85ba96c53)" style="fill: #1f77b4; fill-opacity: 0.3"/>
   </g>
   <g id="PolyCollection_4">
    <path d="M 364.108567 135.07886 
L 363.632275 135.07886 
L 363.623912 134.255518 
L 363.617579 133.432176 
L 363.605844 132.608834 
L 363.580195 131.785492 
L 363.533178 130.96215 
L 363.46043 130.138807 
L 363.361854 129.315465 
L 363.241403 128.492123 
L 363.105375 127.668781 
L 362.959656 126.845439 
L 362.806824 126.022097 
L 362.644178 125.198755 
L 362.46339 124.375413 
L 362.251864 123.552071 
L 361.995165 122.728729 
L 361.679465 121.905387 
L 361.293045 121.082045 
L 360.826431 120.258703 
L 360.2714 119.435361 
L 359.619766 118.612019 
L 358.863004 117.788677 
L 357.993525 116.965335 
L 357.007553 116.141993 
L 355.90855 115.318651 
L 354.709473 114.495309 
L 353.432248 113.671967 
L 352.104007 112.848625 
L 350.751253 112.025283 
L 349.394388 111.201941 
L 348.045071 110.378599 
L 346.707457 109.555257 
L 345.382261 108.731915 
L 344.070972 107.908573 
L 342.777501 107.085231 
L 341.506191 106.261889 
L 340.257525 105.438547 
L 339.024694 104.615205 
L 337.794253 103.791863 
L 336.552311 102.968521 
L 335.294816 102.145179 
L 334.037969 101.321837 
L 332.823851 100.498495 
L 331.71769 99.675153 
L 330.796417 98.851811 
L 330.131994 98.028469 
L 329.775559 97.205127 
L 329.748339 96.381785 
L 330.042411 95.558443 
L 330.62996 94.735101 
L 331.476079 93.911759 
L 332.548976 93.088417 
L 333.823396 92.265075 
L 335.276784 91.441733 
L 336.881378 90.618391 
L 338.597172 89.795049 
L 340.369986 88.971707 
L 342.136204 88.148365 
L 343.832567 87.325023 
L 345.407205 86.501681 
L 346.827834 85.678339 
L 348.084659 84.854997 
L 349.18796 84.031655 
L 350.162352 83.208313 
L 351.040191 82.384971 
L 351.855708 81.561629 
L 352.640076 80.738287 
L 353.416931 79.914945 
L 354.198334 79.091602 
L 354.982233 78.26826 
L 355.753077 77.444918 
L 356.486548 76.621576 
L 357.15755 75.798234 
L 357.748807 74.974892 
L 358.256754 74.15155 
L 358.69253 73.328208 
L 359.078013 72.504866 
L 359.438873 71.681524 
L 359.79746 70.858182 
L 360.167769 70.03484 
L 360.553473 69.211498 
L 360.948756 68.388156 
L 361.341102 67.564814 
L 361.715072 66.741472 
L 362.056232 65.91813 
L 362.354439 65.094788 
L 362.605789 64.271446 
L 362.812716 63.448104 
L 362.982283 62.624762 
L 363.123285 61.80142 
L 363.243279 60.978078 
L 363.346627 60.154736 
L 363.434198 59.331394 
L 363.504621 58.508052 
L 363.556383 57.68471 
L 363.58977 56.861368 
L 363.607866 56.038026 
L 363.616256 55.214684 
L 363.621689 54.391342 
L 363.630289 53.568 
L 364.110553 53.568 
L 364.110553 53.568 
L 364.119152 54.391342 
L 364.124586 55.214684 
L 364.132976 56.038026 
L 364.151071 56.861368 
L 364.184459 57.68471 
L 364.236221 58.508052 
L 364.306644 59.331394 
L 364.394214 60.154736 
L 364.497563 60.978078 
L 364.617557 61.80142 
L 364.758559 62.624762 
L 364.928126 63.448104 
L 365.135053 64.271446 
L 365.386403 65.094788 
L 365.68461 65.91813 
L 366.02577 66.741472 
L 366.39974 67.564814 
L 366.792086 68.388156 
L 367.187369 69.211498 
L 367.573072 70.03484 
L 367.943382 70.858182 
L 368.301969 71.681524 
L 368.662829 72.504866 
L 369.048312 73.328208 
L 369.484088 74.15155 
L 369.992035 74.974892 
L 370.583292 75.798234 
L 371.254294 76.621576 
L 371.987765 77.444918 
L 372.758609 78.26826 
L 373.542508 79.091602 
L 374.323911 79.914945 
L 375.100766 80.738287 
L 375.885134 81.561629 
L 376.700651 82.384971 
L 377.57849 83.208313 
L 378.552882 84.031655 
L 379.656183 84.854997 
L 380.913008 85.678339 
L 382.333637 86.501681 
L 383.908274 87.325023 
L 385.604638 88.148365 
L 387.370856 88.971707 
L 389.14367 89.795049 
L 390.859463 90.618391 
L 392.464058 91.441733 
L 393.917446 92.265075 
L 395.191866 93.088417 
L 396.264763 93.911759 
L 397.110882 94.735101 
L 397.698431 95.558443 
L 397.992503 96.381785 
L 397.965283 97.205127 
L 397.608848 98.028469 
L 396.944425 98.851811 
L 396.023152 99.675153 
L 394.916991 100.498495 
L 393.702873 101.321837 
L 392.446026 102.145179 
L 391.188531 102.968521 
L 389.946589 103.791863 
L 388.716148 104.615205 
L 387.483317 105.438547 
L 386.234651 106.261889 
L 384.963341 107.085231 
L 383.66987 107.908573 
L 382.35858 108.731915 
L 381.033385 109.555257 
L 379.695771 110.378599 
L 378.346454 111.201941 
L 376.989589 112.025283 
L 375.636834 112.848625 
L 374.308594 113.671967 
L 373.031369 114.495309 
L 371.832292 115.318651 
L 370.733289 116.141993 
L 369.747317 116.965335 
L 368.877838 117.788677 
L 368.121076 118.612019 
L 367.469442 119.435361 
L 366.914411 120.258703 
L 366.447796 121.082045 
L 366.061377 121.905387 
L 365.745676 122.728729 
L 365.488978 123.552071 
L 365.277452 124.375413 
L 365.096663 125.198755 
L 364.934018 126.022097 
L 364.781186 126.845439 
L 364.635466 127.668781 
L 364.499439 128.492123 
L 364.378988 129.315465 
L 364.280411 130.138807 
L 364.207664 130.96215 
L 364.160647 131.785492 
L 364.134997 132.608834 
L 364.123263 133.432176 
L 364.11693 134.255518 
L 364.108567 135.07886 
z
" clip-path="url(#pe85ba96c53)" style="fill: #1f77b4; fill-opacity: 0.3"/>
   </g>
   <g id="PolyCollection_5">
    <path d="M 364.639288 129.533514 
L 364.091094 129.533514 
L 364.079414 128.875267 
L 364.068437 128.217021 
L 364.052806 127.558774 
L 364.026028 126.900528 
L 363.981402 126.242282 
L 363.912985 125.584035 
L 363.816357 124.925789 
L 363.688955 124.267542 
L 363.529823 123.609296 
L 363.338804 122.951049 
L 363.115363 122.292803 
L 362.857335 121.634557 
L 362.56002 120.97631 
L 362.21595 120.318064 
L 361.815574 119.659817 
L 361.348856 119.001571 
L 360.807555 118.343325 
L 360.187721 117.685078 
L 359.491788 117.026832 
L 358.7296 116.368585 
L 357.91784 115.710339 
L 357.077657 115.052092 
L 356.230754 114.393846 
L 355.394701 113.7356 
L 354.578604 113.077353 
L 353.780335 112.419107 
L 352.98619 111.76086 
L 352.17324 111.102614 
L 351.313869 110.444367 
L 350.381396 109.786121 
L 349.355408 109.127875 
L 348.225586 108.469628 
L 346.993337 107.811382 
L 345.671156 107.153135 
L 344.280279 106.494889 
L 342.847495 105.836643 
L 341.402046 105.178396 
L 339.97327 104.52015 
L 338.589245 103.861903 
L 337.27623 103.203657 
L 336.058401 102.54541 
L 334.957274 101.887164 
L 333.990383 101.228918 
L 333.169213 100.570671 
L 332.496822 99.912425 
L 331.966037 99.254178 
L 331.559171 98.595932 
L 331.250036 97.937686 
L 331.008374 97.279439 
L 330.806134 96.621193 
L 330.624256 95.962946 
L 330.45831 95.3047 
L 330.321368 94.646453 
L 330.24311 93.988207 
L 330.264998 93.329961 
L 330.432369 92.671714 
L 330.784984 92.013468 
L 331.348036 91.355221 
L 332.125523 90.696975 
L 333.097519 90.038728 
L 334.222105 89.380482 
L 335.441751 88.722236 
L 336.692923 88.063989 
L 337.916854 87.405743 
L 339.068986 86.747496 
L 340.124911 86.08925 
L 341.081587 85.431004 
L 341.953951 84.772757 
L 342.768433 84.114511 
L 343.555558 83.456264 
L 344.34379 82.798018 
L 345.155914 82.139771 
L 346.008055 81.481525 
L 346.910414 80.823279 
L 347.86837 80.165032 
L 348.882836 79.506786 
L 349.949512 78.848539 
L 351.057486 78.190293 
L 352.18821 77.532047 
L 353.315856 76.8738 
L 354.409646 76.215554 
L 355.437983 75.557307 
L 356.373527 74.899061 
L 357.197947 74.240814 
L 357.905063 73.582568 
L 358.50156 72.924322 
L 359.00505 72.266075 
L 359.440048 71.607829 
L 359.832873 70.949582 
L 360.206743 70.291336 
L 360.578165 69.633089 
L 360.955249 68.974843 
L 361.33806 68.316597 
L 361.720553 67.65835 
L 362.093342 67.000104 
L 362.446471 66.341857 
L 362.77156 65.683611 
L 363.062989 65.025365 
L 363.318148 64.367118 
L 365.412234 64.367118 
L 365.412234 64.367118 
L 365.667393 65.025365 
L 365.958823 65.683611 
L 366.283911 66.341857 
L 366.63704 67.000104 
L 367.009829 67.65835 
L 367.392322 68.316597 
L 367.775133 68.974843 
L 368.152217 69.633089 
L 368.523639 70.291336 
L 368.89751 70.949582 
L 369.290334 71.607829 
L 369.725332 72.266075 
L 370.228823 72.924322 
L 370.825319 73.582568 
L 371.532436 74.240814 
L 372.356855 74.899061 
L 373.292399 75.557307 
L 374.320736 76.215554 
L 375.414526 76.8738 
L 376.542173 77.532047 
L 377.672896 78.190293 
L 378.780871 78.848539 
L 379.847546 79.506786 
L 380.862012 80.165032 
L 381.819968 80.823279 
L 382.722327 81.481525 
L 383.574468 82.139771 
L 384.386592 82.798018 
L 385.174824 83.456264 
L 385.961949 84.114511 
L 386.776431 84.772757 
L 387.648795 85.431004 
L 388.605471 86.08925 
L 389.661397 86.747496 
L 390.813528 87.405743 
L 392.037459 88.063989 
L 393.288632 88.722236 
L 394.508277 89.380482 
L 395.632864 90.038728 
L 396.60486 90.696975 
L 397.382346 91.355221 
L 397.945398 92.013468 
L 398.298014 92.671714 
L 398.465384 93.329961 
L 398.487273 93.988207 
L 398.409014 94.646453 
L 398.272073 95.3047 
L 398.106126 95.962946 
L 397.924248 96.621193 
L 397.722008 97.279439 
L 397.480347 97.937686 
L 397.171211 98.595932 
L 396.764345 99.254178 
L 396.23356 99.912425 
L 395.56117 100.570671 
L 394.739999 101.228918 
L 393.773108 101.887164 
L 392.671981 102.54541 
L 391.454153 103.203657 
L 390.141137 103.861903 
L 388.757112 104.52015 
L 387.328336 105.178396 
L 385.882887 105.836643 
L 384.450103 106.494889 
L 383.059226 107.153135 
L 381.737045 107.811382 
L 380.504796 108.469628 
L 379.374975 109.127875 
L 378.348986 109.786121 
L 377.416513 110.444367 
L 376.557143 111.102614 
L 375.744193 111.76086 
L 374.950047 112.419107 
L 374.151778 113.077353 
L 373.335681 113.7356 
L 372.499628 114.393846 
L 371.652725 115.052092 
L 370.812542 115.710339 
L 370.000782 116.368585 
L 369.238594 117.026832 
L 368.542661 117.685078 
L 367.922827 118.343325 
L 367.381526 119.001571 
L 366.914808 119.659817 
L 366.514433 120.318064 
L 366.170362 120.97631 
L 365.873047 121.634557 
L 365.61502 122.292803 
L 365.391578 122.951049 
L 365.20056 123.609296 
L 365.041427 124.267542 
L 364.914025 124.925789 
L 364.817398 125.584035 
L 364.74898 126.242282 
L 364.704354 126.900528 
L 364.677577 127.558774 
L 364.661945 128.217021 
L 364.650968 128.875267 
L 364.639288 129.533514 
z
" clip-path="url(#pe85ba96c53)" style="fill: #1f77b4; fill-opacity: 0.3"/>
   </g>
   <g id="matplotlib.axis_1">
    <g id="xtick_1">
     <g id="line2d_1">
      <path d="M 65.302207 307.584 
L 65.302207 41.472 
" clip-path="url(#pe85ba96c53)" style="fill: none; stroke-dasharray: 2.96,1.28; stroke-dashoffset: 0; stroke: #b0b0b0; stroke-width: 0.8"/>
     </g>
     <g id="line2d_2">
      <defs>
       <path id="m3f8a6812f5" d="M 0 0 
L 0 3.5 
" style="stroke: #000000; stroke-width: 0.8"/>
      </defs>
      <g>
       <use xlink:href="#m3f8a6812f5" x="65.302207" y="307.584" style="stroke: #000000; stroke-width: 0.8"/>
      </g>
     </g>
     <g id="text_1">
      <!-- 2500 -->
      <g transform="translate(52.577207 322.182437)scale(0.1 -0.1)">
       <defs>
        <path id="DejaVuSans-32" d="M 1228 531 
L 3431 531 
L 3431 0 
L 469 0 
L 469 531 
Q 828 903 1448 1529 
Q 2069 2156 2228 2338 
Q 2531 2678 2651 2914 
Q 2772 3150 2772 3378 
Q 2772 3750 2511 3984 
Q 2250 4219 1831 4219 
Q 1534 4219 1204 4116 
Q 875 4013 500 3803 
L 500 4441 
Q 881 4594 1212 4672 
Q 1544 4750 1819 4750 
Q 2544 4750 2975 4387 
Q 3406 4025 3406 3419 
Q 3406 3131 3298 2873 
Q 3191 2616 2906 2266 
Q 2828 2175 2409 1742 
Q 1991 1309 1228 531 
z
" transform="scale(0.015625)"/>
        <path id="DejaVuSans-35" d="M 691 4666 
L 3169 4666 
L 3169 4134 
L 1269 4134 
L 1269 2991 
Q 1406 3038 1543 3061 
Q 1681 3084 1819 3084 
Q 2600 3084 3056 2656 
Q 3513 2228 3513 1497 
Q 3513 744 3044 326 
Q 2575 -91 1722 -91 
Q 1428 -91 1123 -41 
Q 819 9 494 109 
L 494 744 
Q 775 591 1075 516 
Q 1375 441 1709 441 
Q 2250 441 2565 725 
Q 2881 1009 2881 1497 
Q 2881 1984 2565 2268 
Q 2250 2553 1709 2553 
Q 1456 2553 1204 2497 
Q 953 2441 691 2322 
L 691 4666 
z
" transform="scale(0.015625)"/>
        <path id="DejaVuSans-30" d="M 2034 4250 
Q 1547 4250 1301 3770 
Q 1056 3291 1056 2328 
Q 1056 1369 1301 889 
Q 1547 409 2034 409 
Q 2525 409 2770 889 
Q 3016 1369 3016 2328 
Q 3016 3291 2770 3770 
Q 2525 4250 2034 4250 
z
M 2034 4750 
Q 2819 4750 3233 4129 
Q 3647 3509 3647 2328 
Q 3647 1150 3233 529 
Q 2819 -91 2034 -91 
Q 1250 -91 836 529 
Q 422 1150 422 2328 
Q 422 3509 836 4129 
Q 1250 4750 2034 4750 
z
" transform="scale(0.015625)"/>
       </defs>
       <use xlink:href="#DejaVuSans-32"/>
       <use xlink:href="#DejaVuSans-35" x="63.623047"/>
       <use xlink:href="#DejaVuSans-30" x="127.246094"/>
       <use xlink:href="#DejaVuSans-30" x="190.869141"/>
      </g>
     </g>
    </g>
    <g id="xtick_2">
     <g id="line2d_3">
      <path d="M 107.954809 307.584 
L 107.954809 41.472 
" clip-path="url(#pe85ba96c53)" style="fill: none; stroke-dasharray: 2.96,1.28; stroke-dashoffset: 0; stroke: #b0b0b0; stroke-width: 0.8"/>
     </g>
     <g id="line2d_4">
      <g>
       <use xlink:href="#m3f8a6812f5" x="107.954809" y="307.584" style="stroke: #000000; stroke-width: 0.8"/>
      </g>
     </g>
     <g id="text_2">
      <!-- 5000 -->
      <g transform="translate(95.229809 322.182437)scale(0.1 -0.1)">
       <use xlink:href="#DejaVuSans-35"/>
       <use xlink:href="#DejaVuSans-30" x="63.623047"/>
       <use xlink:href="#DejaVuSans-30" x="127.246094"/>
       <use xlink:href="#DejaVuSans-30" x="190.869141"/>
      </g>
     </g>
    </g>
    <g id="xtick_3">
     <g id="line2d_5">
      <path d="M 150.607411 307.584 
L 150.607411 41.472 
" clip-path="url(#pe85ba96c53)" style="fill: none; stroke-dasharray: 2.96,1.28; stroke-dashoffset: 0; stroke: #b0b0b0; stroke-width: 0.8"/>
     </g>
     <g id="line2d_6">
      <g>
       <use xlink:href="#m3f8a6812f5" x="150.607411" y="307.584" style="stroke: #000000; stroke-width: 0.8"/>
      </g>
     </g>
     <g id="text_3">
      <!-- 7500 -->
      <g transform="translate(137.882411 322.182437)scale(0.1 -0.1)">
       <defs>
        <path id="DejaVuSans-37" d="M 525 4666 
L 3525 4666 
L 3525 4397 
L 1831 0 
L 1172 0 
L 2766 4134 
L 525 4134 
L 525 4666 
z
" transform="scale(0.015625)"/>
       </defs>
       <use xlink:href="#DejaVuSans-37"/>
       <use xlink:href="#DejaVuSans-35" x="63.623047"/>
       <use xlink:href="#DejaVuSans-30" x="127.246094"/>
       <use xlink:href="#DejaVuSans-30" x="190.869141"/>
      </g>
     </g>
    </g>
    <g id="xtick_4">
     <g id="line2d_7">
      <path d="M 193.260013 307.584 
L 193.260013 41.472 
" clip-path="url(#pe85ba96c53)" style="fill: none; stroke-dasharray: 2.96,1.28; stroke-dashoffset: 0; stroke: #b0b0b0; stroke-width: 0.8"/>
     </g>
     <g id="line2d_8">
      <g>
       <use xlink:href="#m3f8a6812f5" x="193.260013" y="307.584" style="stroke: #000000; stroke-width: 0.8"/>
      </g>
     </g>
     <g id="text_4">
      <!-- 10000 -->
      <g transform="translate(177.353763 322.182437)scale(0.1 -0.1)">
       <defs>
        <path id="DejaVuSans-31" d="M 794 531 
L 1825 531 
L 1825 4091 
L 703 3866 
L 703 4441 
L 1819 4666 
L 2450 4666 
L 2450 531 
L 3481 531 
L 3481 0 
L 794 0 
L 794 531 
z
" transform="scale(0.015625)"/>
       </defs>
       <use xlink:href="#DejaVuSans-31"/>
       <use xlink:href="#DejaVuSans-30" x="63.623047"/>
       <use xlink:href="#DejaVuSans-30" x="127.246094"/>
       <use xlink:href="#DejaVuSans-30" x="190.869141"/>
       <use xlink:href="#DejaVuSans-30" x="254.492188"/>
      </g>
     </g>
    </g>
    <g id="xtick_5">
     <g id="line2d_9">
      <path d="M 235.912615 307.584 
L 235.912615 41.472 
" clip-path="url(#pe85ba96c53)" style="fill: none; stroke-dasharray: 2.96,1.28; stroke-dashoffset: 0; stroke: #b0b0b0; stroke-width: 0.8"/>
     </g>
     <g id="line2d_10">
      <g>
       <use xlink:href="#m3f8a6812f5" x="235.912615" y="307.584" style="stroke: #000000; stroke-width: 0.8"/>
      </g>
     </g>
     <g id="text_5">
      <!-- 12500 -->
      <g transform="translate(220.006365 322.182437)scale(0.1 -0.1)">
       <use xlink:href="#DejaVuSans-31"/>
       <use xlink:href="#DejaVuSans-32" x="63.623047"/>
       <use xlink:href="#DejaVuSans-35" x="127.246094"/>
       <use xlink:href="#DejaVuSans-30" x="190.869141"/>
       <use xlink:href="#DejaVuSans-30" x="254.492188"/>
      </g>
     </g>
    </g>
    <g id="xtick_6">
     <g id="line2d_11">
      <path d="M 278.565217 307.584 
L 278.565217 41.472 
" clip-path="url(#pe85ba96c53)" style="fill: none; stroke-dasharray: 2.96,1.28; stroke-dashoffset: 0; stroke: #b0b0b0; stroke-width: 0.8"/>
     </g>
     <g id="line2d_12">
      <g>
       <use xlink:href="#m3f8a6812f5" x="278.565217" y="307.584" style="stroke: #000000; stroke-width: 0.8"/>
      </g>
     </g>
     <g id="text_6">
      <!-- 15000 -->
      <g transform="translate(262.658967 322.182437)scale(0.1 -0.1)">
       <use xlink:href="#DejaVuSans-31"/>
       <use xlink:href="#DejaVuSans-35" x="63.623047"/>
       <use xlink:href="#DejaVuSans-30" x="127.246094"/>
       <use xlink:href="#DejaVuSans-30" x="190.869141"/>
       <use xlink:href="#DejaVuSans-30" x="254.492188"/>
      </g>
     </g>
    </g>
    <g id="xtick_7">
     <g id="line2d_13">
      <path d="M 321.217819 307.584 
L 321.217819 41.472 
" clip-path="url(#pe85ba96c53)" style="fill: none; stroke-dasharray: 2.96,1.28; stroke-dashoffset: 0; stroke: #b0b0b0; stroke-width: 0.8"/>
     </g>
     <g id="line2d_14">
      <g>
       <use xlink:href="#m3f8a6812f5" x="321.217819" y="307.584" style="stroke: #000000; stroke-width: 0.8"/>
      </g>
     </g>
     <g id="text_7">
      <!-- 17500 -->
      <g transform="translate(305.311569 322.182437)scale(0.1 -0.1)">
       <use xlink:href="#DejaVuSans-31"/>
       <use xlink:href="#DejaVuSans-37" x="63.623047"/>
       <use xlink:href="#DejaVuSans-35" x="127.246094"/>
       <use xlink:href="#DejaVuSans-30" x="190.869141"/>
       <use xlink:href="#DejaVuSans-30" x="254.492188"/>
      </g>
     </g>
    </g>
    <g id="xtick_8">
     <g id="line2d_15">
      <path d="M 363.870421 307.584 
L 363.870421 41.472 
" clip-path="url(#pe85ba96c53)" style="fill: none; stroke-dasharray: 2.96,1.28; stroke-dashoffset: 0; stroke: #b0b0b0; stroke-width: 0.8"/>
     </g>
     <g id="line2d_16">
      <g>
       <use xlink:href="#m3f8a6812f5" x="363.870421" y="307.584" style="stroke: #000000; stroke-width: 0.8"/>
      </g>
     </g>
     <g id="text_8">
      <!-- 20000 -->
      <g transform="translate(347.964171 322.182437)scale(0.1 -0.1)">
       <use xlink:href="#DejaVuSans-32"/>
       <use xlink:href="#DejaVuSans-30" x="63.623047"/>
       <use xlink:href="#DejaVuSans-30" x="127.246094"/>
       <use xlink:href="#DejaVuSans-30" x="190.869141"/>
       <use xlink:href="#DejaVuSans-30" x="254.492188"/>
      </g>
     </g>
    </g>
    <g id="xtick_9">
     <g id="line2d_17">
      <path d="M 406.523023 307.584 
L 406.523023 41.472 
" clip-path="url(#pe85ba96c53)" style="fill: none; stroke-dasharray: 2.96,1.28; stroke-dashoffset: 0; stroke: #b0b0b0; stroke-width: 0.8"/>
     </g>
     <g id="line2d_18">
      <g>
       <use xlink:href="#m3f8a6812f5" x="406.523023" y="307.584" style="stroke: #000000; stroke-width: 0.8"/>
      </g>
     </g>
     <g id="text_9">
      <!-- 22500 -->
      <g transform="translate(390.616773 322.182437)scale(0.1 -0.1)">
       <use xlink:href="#DejaVuSans-32"/>
       <use xlink:href="#DejaVuSans-32" x="63.623047"/>
       <use xlink:href="#DejaVuSans-35" x="127.246094"/>
       <use xlink:href="#DejaVuSans-30" x="190.869141"/>
       <use xlink:href="#DejaVuSans-30" x="254.492188"/>
      </g>
     </g>
    </g>
    <g id="text_10">
     <!-- Learned Episodes -->
     <g transform="translate(192.102187 335.860562)scale(0.1 -0.1)">
      <defs>
       <path id="DejaVuSans-4c" d="M 628 4666 
L 1259 4666 
L 1259 531 
L 3531 531 
L 3531 0 
L 628 0 
L 628 4666 
z
" transform="scale(0.015625)"/>
       <path id="DejaVuSans-65" d="M 3597 1894 
L 3597 1613 
L 953 1613 
Q 991 1019 1311 708 
Q 1631 397 2203 397 
Q 2534 397 2845 478 
Q 3156 559 3463 722 
L 3463 178 
Q 3153 47 2828 -22 
Q 2503 -91 2169 -91 
Q 1331 -91 842 396 
Q 353 884 353 1716 
Q 353 2575 817 3079 
Q 1281 3584 2069 3584 
Q 2775 3584 3186 3129 
Q 3597 2675 3597 1894 
z
M 3022 2063 
Q 3016 2534 2758 2815 
Q 2500 3097 2075 3097 
Q 1594 3097 1305 2825 
Q 1016 2553 972 2059 
L 3022 2063 
z
" transform="scale(0.015625)"/>
       <path id="DejaVuSans-61" d="M 2194 1759 
Q 1497 1759 1228 1600 
Q 959 1441 959 1056 
Q 959 750 1161 570 
Q 1363 391 1709 391 
Q 2188 391 2477 730 
Q 2766 1069 2766 1631 
L 2766 1759 
L 2194 1759 
z
M 3341 1997 
L 3341 0 
L 2766 0 
L 2766 531 
Q 2569 213 2275 61 
Q 1981 -91 1556 -91 
Q 1019 -91 701 211 
Q 384 513 384 1019 
Q 384 1609 779 1909 
Q 1175 2209 1959 2209 
L 2766 2209 
L 2766 2266 
Q 2766 2663 2505 2880 
Q 2244 3097 1772 3097 
Q 1472 3097 1187 3025 
Q 903 2953 641 2809 
L 641 3341 
Q 956 3463 1253 3523 
Q 1550 3584 1831 3584 
Q 2591 3584 2966 3190 
Q 3341 2797 3341 1997 
z
" transform="scale(0.015625)"/>
       <path id="DejaVuSans-72" d="M 2631 2963 
Q 2534 3019 2420 3045 
Q 2306 3072 2169 3072 
Q 1681 3072 1420 2755 
Q 1159 2438 1159 1844 
L 1159 0 
L 581 0 
L 581 3500 
L 1159 3500 
L 1159 2956 
Q 1341 3275 1631 3429 
Q 1922 3584 2338 3584 
Q 2397 3584 2469 3576 
Q 2541 3569 2628 3553 
L 2631 2963 
z
" transform="scale(0.015625)"/>
       <path id="DejaVuSans-6e" d="M 3513 2113 
L 3513 0 
L 2938 0 
L 2938 2094 
Q 2938 2591 2744 2837 
Q 2550 3084 2163 3084 
Q 1697 3084 1428 2787 
Q 1159 2491 1159 1978 
L 1159 0 
L 581 0 
L 581 3500 
L 1159 3500 
L 1159 2956 
Q 1366 3272 1645 3428 
Q 1925 3584 2291 3584 
Q 2894 3584 3203 3211 
Q 3513 2838 3513 2113 
z
" transform="scale(0.015625)"/>
       <path id="DejaVuSans-64" d="M 2906 2969 
L 2906 4863 
L 3481 4863 
L 3481 0 
L 2906 0 
L 2906 525 
Q 2725 213 2448 61 
Q 2172 -91 1784 -91 
Q 1150 -91 751 415 
Q 353 922 353 1747 
Q 353 2572 751 3078 
Q 1150 3584 1784 3584 
Q 2172 3584 2448 3432 
Q 2725 3281 2906 2969 
z
M 947 1747 
Q 947 1113 1208 752 
Q 1469 391 1925 391 
Q 2381 391 2643 752 
Q 2906 1113 2906 1747 
Q 2906 2381 2643 2742 
Q 2381 3103 1925 3103 
Q 1469 3103 1208 2742 
Q 947 2381 947 1747 
z
" transform="scale(0.015625)"/>
       <path id="DejaVuSans-20" transform="scale(0.015625)"/>
       <path id="DejaVuSans-45" d="M 628 4666 
L 3578 4666 
L 3578 4134 
L 1259 4134 
L 1259 2753 
L 3481 2753 
L 3481 2222 
L 1259 2222 
L 1259 531 
L 3634 531 
L 3634 0 
L 628 0 
L 628 4666 
z
" transform="scale(0.015625)"/>
       <path id="DejaVuSans-70" d="M 1159 525 
L 1159 -1331 
L 581 -1331 
L 581 3500 
L 1159 3500 
L 1159 2969 
Q 1341 3281 1617 3432 
Q 1894 3584 2278 3584 
Q 2916 3584 3314 3078 
Q 3713 2572 3713 1747 
Q 3713 922 3314 415 
Q 2916 -91 2278 -91 
Q 1894 -91 1617 61 
Q 1341 213 1159 525 
z
M 3116 1747 
Q 3116 2381 2855 2742 
Q 2594 3103 2138 3103 
Q 1681 3103 1420 2742 
Q 1159 2381 1159 1747 
Q 1159 1113 1420 752 
Q 1681 391 2138 391 
Q 2594 391 2855 752 
Q 3116 1113 3116 1747 
z
" transform="scale(0.015625)"/>
       <path id="DejaVuSans-69" d="M 603 3500 
L 1178 3500 
L 1178 0 
L 603 0 
L 603 3500 
z
M 603 4863 
L 1178 4863 
L 1178 4134 
L 603 4134 
L 603 4863 
z
" transform="scale(0.015625)"/>
       <path id="DejaVuSans-73" d="M 2834 3397 
L 2834 2853 
Q 2591 2978 2328 3040 
Q 2066 3103 1784 3103 
Q 1356 3103 1142 2972 
Q 928 2841 928 2578 
Q 928 2378 1081 2264 
Q 1234 2150 1697 2047 
L 1894 2003 
Q 2506 1872 2764 1633 
Q 3022 1394 3022 966 
Q 3022 478 2636 193 
Q 2250 -91 1575 -91 
Q 1294 -91 989 -36 
Q 684 19 347 128 
L 347 722 
Q 666 556 975 473 
Q 1284 391 1588 391 
Q 1994 391 2212 530 
Q 2431 669 2431 922 
Q 2431 1156 2273 1281 
Q 2116 1406 1581 1522 
L 1381 1569 
Q 847 1681 609 1914 
Q 372 2147 372 2553 
Q 372 3047 722 3315 
Q 1072 3584 1716 3584 
Q 2034 3584 2315 3537 
Q 2597 3491 2834 3397 
z
" transform="scale(0.015625)"/>
       <path id="DejaVuSans-6f" d="M 1959 3097 
Q 1497 3097 1228 2736 
Q 959 2375 959 1747 
Q 959 1119 1226 758 
Q 1494 397 1959 397 
Q 2419 397 2687 759 
Q 2956 1122 2956 1747 
Q 2956 2369 2687 2733 
Q 2419 3097 1959 3097 
z
M 1959 3584 
Q 2709 3584 3137 3096 
Q 3566 2609 3566 1747 
Q 3566 888 3137 398 
Q 2709 -91 1959 -91 
Q 1206 -91 779 398 
Q 353 888 353 1747 
Q 353 2609 779 3096 
Q 1206 3584 1959 3584 
z
" transform="scale(0.015625)"/>
      </defs>
      <use xlink:href="#DejaVuSans-4c"/>
      <use xlink:href="#DejaVuSans-65" x="53.962891"/>
      <use xlink:href="#DejaVuSans-61" x="115.486328"/>
      <use xlink:href="#DejaVuSans-72" x="176.765625"/>
      <use xlink:href="#DejaVuSans-6e" x="216.128906"/>
      <use xlink:href="#DejaVuSans-65" x="279.507812"/>
      <use xlink:href="#DejaVuSans-64" x="341.03125"/>
      <use xlink:href="#DejaVuSans-20" x="404.507812"/>
      <use xlink:href="#DejaVuSans-45" x="436.294922"/>
      <use xlink:href="#DejaVuSans-70" x="499.478516"/>
      <use xlink:href="#DejaVuSans-69" x="562.955078"/>
      <use xlink:href="#DejaVuSans-73" x="590.738281"/>
      <use xlink:href="#DejaVuSans-6f" x="642.837891"/>
      <use xlink:href="#DejaVuSans-64" x="704.019531"/>
      <use xlink:href="#DejaVuSans-65" x="767.496094"/>
      <use xlink:href="#DejaVuSans-73" x="829.019531"/>
     </g>
    </g>
   </g>
   <g id="matplotlib.axis_2">
    <g id="ytick_1">
     <g id="line2d_19">
      <path d="M 57.6 265.640344 
L 414.72 265.640344 
" clip-path="url(#pe85ba96c53)" style="fill: none; stroke-dasharray: 2.96,1.28; stroke-dashoffset: 0; stroke: #b0b0b0; stroke-width: 0.8"/>
     </g>
     <g id="line2d_20">
      <defs>
       <path id="m2dd425aa1e" d="M 0 0 
L -3.5 0 
" style="stroke: #000000; stroke-width: 0.8"/>
      </defs>
      <g>
       <use xlink:href="#m2dd425aa1e" x="57.6" y="265.640344" style="stroke: #000000; stroke-width: 0.8"/>
      </g>
     </g>
     <g id="text_11">
      <!-- −200 -->
      <g transform="translate(23.132812 269.439562)scale(0.1 -0.1)">
       <defs>
        <path id="DejaVuSans-2212" d="M 678 2272 
L 4684 2272 
L 4684 1741 
L 678 1741 
L 678 2272 
z
" transform="scale(0.015625)"/>
       </defs>
       <use xlink:href="#DejaVuSans-2212"/>
       <use xlink:href="#DejaVuSans-32" x="83.789062"/>
       <use xlink:href="#DejaVuSans-30" x="147.412109"/>
       <use xlink:href="#DejaVuSans-30" x="211.035156"/>
      </g>
     </g>
    </g>
    <g id="ytick_2">
     <g id="line2d_21">
      <path d="M 57.6 223.385094 
L 414.72 223.385094 
" clip-path="url(#pe85ba96c53)" style="fill: none; stroke-dasharray: 2.96,1.28; stroke-dashoffset: 0; stroke: #b0b0b0; stroke-width: 0.8"/>
     </g>
     <g id="line2d_22">
      <g>
       <use xlink:href="#m2dd425aa1e" x="57.6" y="223.385094" style="stroke: #000000; stroke-width: 0.8"/>
      </g>
     </g>
     <g id="text_12">
      <!-- −100 -->
      <g transform="translate(23.132812 227.184312)scale(0.1 -0.1)">
       <use xlink:href="#DejaVuSans-2212"/>
       <use xlink:href="#DejaVuSans-31" x="83.789062"/>
       <use xlink:href="#DejaVuSans-30" x="147.412109"/>
       <use xlink:href="#DejaVuSans-30" x="211.035156"/>
      </g>
     </g>
    </g>
    <g id="ytick_3">
     <g id="line2d_23">
      <path d="M 57.6 181.129843 
L 414.72 181.129843 
" clip-path="url(#pe85ba96c53)" style="fill: none; stroke-dasharray: 2.96,1.28; stroke-dashoffset: 0; stroke: #b0b0b0; stroke-width: 0.8"/>
     </g>
     <g id="line2d_24">
      <g>
       <use xlink:href="#m2dd425aa1e" x="57.6" y="181.129843" style="stroke: #000000; stroke-width: 0.8"/>
      </g>
     </g>
     <g id="text_13">
      <!-- 0 -->
      <g transform="translate(44.2375 184.929062)scale(0.1 -0.1)">
       <use xlink:href="#DejaVuSans-30"/>
      </g>
     </g>
    </g>
    <g id="ytick_4">
     <g id="line2d_25">
      <path d="M 57.6 138.874593 
L 414.72 138.874593 
" clip-path="url(#pe85ba96c53)" style="fill: none; stroke-dasharray: 2.96,1.28; stroke-dashoffset: 0; stroke: #b0b0b0; stroke-width: 0.8"/>
     </g>
     <g id="line2d_26">
      <g>
       <use xlink:href="#m2dd425aa1e" x="57.6" y="138.874593" style="stroke: #000000; stroke-width: 0.8"/>
      </g>
     </g>
     <g id="text_14">
      <!-- 100 -->
      <g transform="translate(31.5125 142.673812)scale(0.1 -0.1)">
       <use xlink:href="#DejaVuSans-31"/>
       <use xlink:href="#DejaVuSans-30" x="63.623047"/>
       <use xlink:href="#DejaVuSans-30" x="127.246094"/>
      </g>
     </g>
    </g>
    <g id="ytick_5">
     <g id="line2d_27">
      <path d="M 57.6 96.619343 
L 414.72 96.619343 
" clip-path="url(#pe85ba96c53)" style="fill: none; stroke-dasharray: 2.96,1.28; stroke-dashoffset: 0; stroke: #b0b0b0; stroke-width: 0.8"/>
     </g>
     <g id="line2d_28">
      <g>
       <use xlink:href="#m2dd425aa1e" x="57.6" y="96.619343" style="stroke: #000000; stroke-width: 0.8"/>
      </g>
     </g>
     <g id="text_15">
      <!-- 200 -->
      <g transform="translate(31.5125 100.418562)scale(0.1 -0.1)">
       <use xlink:href="#DejaVuSans-32"/>
       <use xlink:href="#DejaVuSans-30" x="63.623047"/>
       <use xlink:href="#DejaVuSans-30" x="127.246094"/>
      </g>
     </g>
    </g>
    <g id="ytick_6">
     <g id="line2d_29">
      <path d="M 57.6 54.364093 
L 414.72 54.364093 
" clip-path="url(#pe85ba96c53)" style="fill: none; stroke-dasharray: 2.96,1.28; stroke-dashoffset: 0; stroke: #b0b0b0; stroke-width: 0.8"/>
     </g>
     <g id="line2d_30">
      <g>
       <use xlink:href="#m2dd425aa1e" x="57.6" y="54.364093" style="stroke: #000000; stroke-width: 0.8"/>
      </g>
     </g>
     <g id="text_16">
      <!-- 300 -->
      <g transform="translate(31.5125 58.163312)scale(0.1 -0.1)">
       <defs>
        <path id="DejaVuSans-33" d="M 2597 2516 
Q 3050 2419 3304 2112 
Q 3559 1806 3559 1356 
Q 3559 666 3084 287 
Q 2609 -91 1734 -91 
Q 1441 -91 1130 -33 
Q 819 25 488 141 
L 488 750 
Q 750 597 1062 519 
Q 1375 441 1716 441 
Q 2309 441 2620 675 
Q 2931 909 2931 1356 
Q 2931 1769 2642 2001 
Q 2353 2234 1838 2234 
L 1294 2234 
L 1294 2753 
L 1863 2753 
Q 2328 2753 2575 2939 
Q 2822 3125 2822 3475 
Q 2822 3834 2567 4026 
Q 2313 4219 1838 4219 
Q 1578 4219 1281 4162 
Q 984 4106 628 3988 
L 628 4550 
Q 988 4650 1302 4700 
Q 1616 4750 1894 4750 
Q 2613 4750 3031 4423 
Q 3450 4097 3450 3541 
Q 3450 3153 3228 2886 
Q 3006 2619 2597 2516 
z
" transform="scale(0.015625)"/>
       </defs>
       <use xlink:href="#DejaVuSans-33"/>
       <use xlink:href="#DejaVuSans-30" x="63.623047"/>
       <use xlink:href="#DejaVuSans-30" x="127.246094"/>
      </g>
     </g>
    </g>
    <g id="text_17">
     <!-- Reward Density -->
     <g transform="translate(17.053125 213.74675)rotate(-90)scale(0.1 -0.1)">
      <defs>
       <path id="DejaVuSans-52" d="M 2841 2188 
Q 3044 2119 3236 1894 
Q 3428 1669 3622 1275 
L 4263 0 
L 3584 0 
L 2988 1197 
Q 2756 1666 2539 1819 
Q 2322 1972 1947 1972 
L 1259 1972 
L 1259 0 
L 628 0 
L 628 4666 
L 2053 4666 
Q 2853 4666 3247 4331 
Q 3641 3997 3641 3322 
Q 3641 2881 3436 2590 
Q 3231 2300 2841 2188 
z
M 1259 4147 
L 1259 2491 
L 2053 2491 
Q 2509 2491 2742 2702 
Q 2975 2913 2975 3322 
Q 2975 3731 2742 3939 
Q 2509 4147 2053 4147 
L 1259 4147 
z
" transform="scale(0.015625)"/>
       <path id="DejaVuSans-77" d="M 269 3500 
L 844 3500 
L 1563 769 
L 2278 3500 
L 2956 3500 
L 3675 769 
L 4391 3500 
L 4966 3500 
L 4050 0 
L 3372 0 
L 2619 2869 
L 1863 0 
L 1184 0 
L 269 3500 
z
" transform="scale(0.015625)"/>
       <path id="DejaVuSans-44" d="M 1259 4147 
L 1259 519 
L 2022 519 
Q 2988 519 3436 956 
Q 3884 1394 3884 2338 
Q 3884 3275 3436 3711 
Q 2988 4147 2022 4147 
L 1259 4147 
z
M 628 4666 
L 1925 4666 
Q 3281 4666 3915 4102 
Q 4550 3538 4550 2338 
Q 4550 1131 3912 565 
Q 3275 0 1925 0 
L 628 0 
L 628 4666 
z
" transform="scale(0.015625)"/>
       <path id="DejaVuSans-74" d="M 1172 4494 
L 1172 3500 
L 2356 3500 
L 2356 3053 
L 1172 3053 
L 1172 1153 
Q 1172 725 1289 603 
Q 1406 481 1766 481 
L 2356 481 
L 2356 0 
L 1766 0 
Q 1100 0 847 248 
Q 594 497 594 1153 
L 594 3053 
L 172 3053 
L 172 3500 
L 594 3500 
L 594 4494 
L 1172 4494 
z
" transform="scale(0.015625)"/>
       <path id="DejaVuSans-79" d="M 2059 -325 
Q 1816 -950 1584 -1140 
Q 1353 -1331 966 -1331 
L 506 -1331 
L 506 -850 
L 844 -850 
Q 1081 -850 1212 -737 
Q 1344 -625 1503 -206 
L 1606 56 
L 191 3500 
L 800 3500 
L 1894 763 
L 2988 3500 
L 3597 3500 
L 2059 -325 
z
" transform="scale(0.015625)"/>
      </defs>
      <use xlink:href="#DejaVuSans-52"/>
      <use xlink:href="#DejaVuSans-65" x="64.982422"/>
      <use xlink:href="#DejaVuSans-77" x="126.505859"/>
      <use xlink:href="#DejaVuSans-61" x="208.292969"/>
      <use xlink:href="#DejaVuSans-72" x="269.572266"/>
      <use xlink:href="#DejaVuSans-64" x="308.935547"/>
      <use xlink:href="#DejaVuSans-20" x="372.412109"/>
      <use xlink:href="#DejaVuSans-44" x="404.199219"/>
      <use xlink:href="#DejaVuSans-65" x="481.201172"/>
      <use xlink:href="#DejaVuSans-6e" x="542.724609"/>
      <use xlink:href="#DejaVuSans-73" x="606.103516"/>
      <use xlink:href="#DejaVuSans-69" x="658.203125"/>
      <use xlink:href="#DejaVuSans-74" x="685.986328"/>
      <use xlink:href="#DejaVuSans-79" x="725.195312"/>
     </g>
    </g>
   </g>
   <g id="LineCollection_1">
    <path d="M 90.893768 139.811889 
L 125.01585 139.811889 
" clip-path="url(#pe85ba96c53)" style="fill: none; stroke: #1f77b4; stroke-width: 1.5"/>
    <path d="M 176.198972 104.806758 
L 210.321054 104.806758 
" clip-path="url(#pe85ba96c53)" style="fill: none; stroke: #1f77b4; stroke-width: 1.5"/>
    <path d="M 261.504176 97.119896 
L 295.626258 97.119896 
" clip-path="url(#pe85ba96c53)" style="fill: none; stroke: #1f77b4; stroke-width: 1.5"/>
    <path d="M 346.80938 96.209957 
L 380.931462 96.209957 
" clip-path="url(#pe85ba96c53)" style="fill: none; stroke: #1f77b4; stroke-width: 1.5"/>
    <path d="M 347.30415 94.478017 
L 381.426232 94.478017 
" clip-path="url(#pe85ba96c53)" style="fill: none; stroke: #1f77b4; stroke-width: 1.5"/>
   </g>
   <g id="LineCollection_2">
    <path d="M 90.893768 108.760912 
L 125.01585 108.760912 
" clip-path="url(#pe85ba96c53)" style="fill: none; stroke: #1f77b4; stroke-width: 1.5"/>
    <path d="M 176.198972 80.529452 
L 210.321054 80.529452 
" clip-path="url(#pe85ba96c53)" style="fill: none; stroke: #1f77b4; stroke-width: 1.5"/>
    <path d="M 261.504176 66.471046 
L 295.626258 66.471046 
" clip-path="url(#pe85ba96c53)" style="fill: none; stroke: #1f77b4; stroke-width: 1.5"/>
    <path d="M 346.80938 53.568 
L 380.931462 53.568 
" clip-path="url(#pe85ba96c53)" style="fill: none; stroke: #1f77b4; stroke-width: 1.5"/>
    <path d="M 347.30415 64.367118 
L 381.426232 64.367118 
" clip-path="url(#pe85ba96c53)" style="fill: none; stroke: #1f77b4; stroke-width: 1.5"/>
   </g>
   <g id="LineCollection_3">
    <path d="M 90.893768 295.488 
L 125.01585 295.488 
" clip-path="url(#pe85ba96c53)" style="fill: none; stroke: #1f77b4; stroke-width: 1.5"/>
    <path d="M 176.198972 161.457406 
L 210.321054 161.457406 
" clip-path="url(#pe85ba96c53)" style="fill: none; stroke: #1f77b4; stroke-width: 1.5"/>
    <path d="M 261.504176 139.096174 
L 295.626258 139.096174 
" clip-path="url(#pe85ba96c53)" style="fill: none; stroke: #1f77b4; stroke-width: 1.5"/>
    <path d="M 346.80938 135.07886 
L 380.931462 135.07886 
" clip-path="url(#pe85ba96c53)" style="fill: none; stroke: #1f77b4; stroke-width: 1.5"/>
    <path d="M 347.30415 129.533514 
L 381.426232 129.533514 
" clip-path="url(#pe85ba96c53)" style="fill: none; stroke: #1f77b4; stroke-width: 1.5"/>
   </g>
   <g id="LineCollection_4">
    <path d="M 107.954809 295.488 
L 107.954809 108.760912 
" clip-path="url(#pe85ba96c53)" style="fill: none; stroke: #1f77b4; stroke-width: 1.5"/>
    <path d="M 193.260013 161.457406 
L 193.260013 80.529452 
" clip-path="url(#pe85ba96c53)" style="fill: none; stroke: #1f77b4; stroke-width: 1.5"/>
    <path d="M 278.565217 139.096174 
L 278.565217 66.471046 
" clip-path="url(#pe85ba96c53)" style="fill: none; stroke: #1f77b4; stroke-width: 1.5"/>
    <path d="M 363.870421 135.07886 
L 363.870421 53.568 
" clip-path="url(#pe85ba96c53)" style="fill: none; stroke: #1f77b4; stroke-width: 1.5"/>
    <path d="M 364.365191 129.533514 
L 364.365191 64.367118 
" clip-path="url(#pe85ba96c53)" style="fill: none; stroke: #1f77b4; stroke-width: 1.5"/>
   </g>
   <g id="line2d_31">
    <path d="M 107.954809 139.811889 
L 193.260013 104.806758 
L 278.565217 97.119896 
L 363.870421 96.209957 
L 364.365191 94.478017 
" clip-path="url(#pe85ba96c53)" style="fill: none; stroke: #4682b4; stroke-width: 1.5; stroke-linecap: square"/>
   </g>
   <g id="line2d_32">
    <path d="M 107.954809 139.811889 
L 193.260013 104.806758 
L 278.565217 97.119896 
L 363.870421 96.209957 
L 364.365191 94.478017 
" clip-path="url(#pe85ba96c53)" style="fill: none; stroke: #4682b4; stroke-width: 1.5; stroke-linecap: square"/>
   </g>
   <g id="patch_3">
    <path d="M 57.6 307.584 
L 57.6 41.472 
" style="fill: none; stroke: #000000; stroke-width: 0.8; stroke-linejoin: miter; stroke-linecap: square"/>
   </g>
   <g id="patch_4">
    <path d="M 414.72 307.584 
L 414.72 41.472 
" style="fill: none; stroke: #000000; stroke-width: 0.8; stroke-linejoin: miter; stroke-linecap: square"/>
   </g>
   <g id="patch_5">
    <path d="M 57.6 307.584 
L 414.72 307.584 
" style="fill: none; stroke: #000000; stroke-width: 0.8; stroke-linejoin: miter; stroke-linecap: square"/>
   </g>
   <g id="patch_6">
    <path d="M 57.6 41.472 
L 414.72 41.472 
" style="fill: none; stroke: #000000; stroke-width: 0.8; stroke-linejoin: miter; stroke-linecap: square"/>
   </g>
   <g id="text_18">
    <!-- Violinplot for progress of profits/by_selling_new -->
    <g transform="translate(94.379063 35.472)scale(0.12 -0.12)">
     <defs>
      <path id="DejaVuSans-56" d="M 1831 0 
L 50 4666 
L 709 4666 
L 2188 738 
L 3669 4666 
L 4325 4666 
L 2547 0 
L 1831 0 
z
" transform="scale(0.015625)"/>
      <path id="DejaVuSans-6c" d="M 603 4863 
L 1178 4863 
L 1178 0 
L 603 0 
L 603 4863 
z
" transform="scale(0.015625)"/>
      <path id="DejaVuSans-66" d="M 2375 4863 
L 2375 4384 
L 1825 4384 
Q 1516 4384 1395 4259 
Q 1275 4134 1275 3809 
L 1275 3500 
L 2222 3500 
L 2222 3053 
L 1275 3053 
L 1275 0 
L 697 0 
L 697 3053 
L 147 3053 
L 147 3500 
L 697 3500 
L 697 3744 
Q 697 4328 969 4595 
Q 1241 4863 1831 4863 
L 2375 4863 
z
" transform="scale(0.015625)"/>
      <path id="DejaVuSans-67" d="M 2906 1791 
Q 2906 2416 2648 2759 
Q 2391 3103 1925 3103 
Q 1463 3103 1205 2759 
Q 947 2416 947 1791 
Q 947 1169 1205 825 
Q 1463 481 1925 481 
Q 2391 481 2648 825 
Q 2906 1169 2906 1791 
z
M 3481 434 
Q 3481 -459 3084 -895 
Q 2688 -1331 1869 -1331 
Q 1566 -1331 1297 -1286 
Q 1028 -1241 775 -1147 
L 775 -588 
Q 1028 -725 1275 -790 
Q 1522 -856 1778 -856 
Q 2344 -856 2625 -561 
Q 2906 -266 2906 331 
L 2906 616 
Q 2728 306 2450 153 
Q 2172 0 1784 0 
Q 1141 0 747 490 
Q 353 981 353 1791 
Q 353 2603 747 3093 
Q 1141 3584 1784 3584 
Q 2172 3584 2450 3431 
Q 2728 3278 2906 2969 
L 2906 3500 
L 3481 3500 
L 3481 434 
z
" transform="scale(0.015625)"/>
      <path id="DejaVuSans-2f" d="M 1625 4666 
L 2156 4666 
L 531 -594 
L 0 -594 
L 1625 4666 
z
" transform="scale(0.015625)"/>
      <path id="DejaVuSans-62" d="M 3116 1747 
Q 3116 2381 2855 2742 
Q 2594 3103 2138 3103 
Q 1681 3103 1420 2742 
Q 1159 2381 1159 1747 
Q 1159 1113 1420 752 
Q 1681 391 2138 391 
Q 2594 391 2855 752 
Q 3116 1113 3116 1747 
z
M 1159 2969 
Q 1341 3281 1617 3432 
Q 1894 3584 2278 3584 
Q 2916 3584 3314 3078 
Q 3713 2572 3713 1747 
Q 3713 922 3314 415 
Q 2916 -91 2278 -91 
Q 1894 -91 1617 61 
Q 1341 213 1159 525 
L 1159 0 
L 581 0 
L 581 4863 
L 1159 4863 
L 1159 2969 
z
" transform="scale(0.015625)"/>
      <path id="DejaVuSans-5f" d="M 3263 -1063 
L 3263 -1509 
L -63 -1509 
L -63 -1063 
L 3263 -1063 
z
" transform="scale(0.015625)"/>
     </defs>
     <use xlink:href="#DejaVuSans-56"/>
     <use xlink:href="#DejaVuSans-69" x="66.158203"/>
     <use xlink:href="#DejaVuSans-6f" x="93.941406"/>
     <use xlink:href="#DejaVuSans-6c" x="155.123047"/>
     <use xlink:href="#DejaVuSans-69" x="182.90625"/>
     <use xlink:href="#DejaVuSans-6e" x="210.689453"/>
     <use xlink:href="#DejaVuSans-70" x="274.068359"/>
     <use xlink:href="#DejaVuSans-6c" x="337.544922"/>
     <use xlink:href="#DejaVuSans-6f" x="365.328125"/>
     <use xlink:href="#DejaVuSans-74" x="426.509766"/>
     <use xlink:href="#DejaVuSans-20" x="465.71875"/>
     <use xlink:href="#DejaVuSans-66" x="497.505859"/>
     <use xlink:href="#DejaVuSans-6f" x="532.710938"/>
     <use xlink:href="#DejaVuSans-72" x="593.892578"/>
     <use xlink:href="#DejaVuSans-20" x="635.005859"/>
     <use xlink:href="#DejaVuSans-70" x="666.792969"/>
     <use xlink:href="#DejaVuSans-72" x="730.269531"/>
     <use xlink:href="#DejaVuSans-6f" x="769.132812"/>
     <use xlink:href="#DejaVuSans-67" x="830.314453"/>
     <use xlink:href="#DejaVuSans-72" x="893.791016"/>
     <use xlink:href="#DejaVuSans-65" x="932.654297"/>
     <use xlink:href="#DejaVuSans-73" x="994.177734"/>
     <use xlink:href="#DejaVuSans-73" x="1046.277344"/>
     <use xlink:href="#DejaVuSans-20" x="1098.376953"/>
     <use xlink:href="#DejaVuSans-6f" x="1130.164062"/>
     <use xlink:href="#DejaVuSans-66" x="1191.345703"/>
     <use xlink:href="#DejaVuSans-20" x="1226.550781"/>
     <use xlink:href="#DejaVuSans-70" x="1258.337891"/>
     <use xlink:href="#DejaVuSans-72" x="1321.814453"/>
     <use xlink:href="#DejaVuSans-6f" x="1360.677734"/>
     <use xlink:href="#DejaVuSans-66" x="1421.859375"/>
     <use xlink:href="#DejaVuSans-69" x="1457.064453"/>
     <use xlink:href="#DejaVuSans-74" x="1484.847656"/>
     <use xlink:href="#DejaVuSans-73" x="1524.056641"/>
     <use xlink:href="#DejaVuSans-2f" x="1576.15625"/>
     <use xlink:href="#DejaVuSans-62" x="1609.847656"/>
     <use xlink:href="#DejaVuSans-79" x="1673.324219"/>
     <use xlink:href="#DejaVuSans-5f" x="1732.503906"/>
     <use xlink:href="#DejaVuSans-73" x="1782.503906"/>
     <use xlink:href="#DejaVuSans-65" x="1834.603516"/>
     <use xlink:href="#DejaVuSans-6c" x="1896.126953"/>
     <use xlink:href="#DejaVuSans-6c" x="1923.910156"/>
     <use xlink:href="#DejaVuSans-69" x="1951.693359"/>
     <use xlink:href="#DejaVuSans-6e" x="1979.476562"/>
     <use xlink:href="#DejaVuSans-67" x="2042.855469"/>
     <use xlink:href="#DejaVuSans-5f" x="2106.332031"/>
     <use xlink:href="#DejaVuSans-6e" x="2156.332031"/>
     <use xlink:href="#DejaVuSans-65" x="2219.710938"/>
     <use xlink:href="#DejaVuSans-77" x="2281.234375"/>
    </g>
   </g>
   <g id="legend_1">
    <g id="patch_7">
     <path d="M 276.504375 64.150125 
L 407.72 64.150125 
Q 409.72 64.150125 409.72 62.150125 
L 409.72 48.472 
Q 409.72 46.472 407.72 46.472 
L 276.504375 46.472 
Q 274.504375 46.472 274.504375 48.472 
L 274.504375 62.150125 
Q 274.504375 64.150125 276.504375 64.150125 
z
" style="fill: #ffffff; opacity: 0.8; stroke: #cccccc; stroke-linejoin: miter"/>
    </g>
    <g id="line2d_33">
     <path d="M 278.504375 54.570438 
L 288.504375 54.570438 
L 298.504375 54.570438 
" style="fill: none; stroke: #4682b4; stroke-width: 1.5; stroke-linecap: square"/>
    </g>
    <g id="text_19">
     <!-- StableBaselinesPPO -->
     <g transform="translate(306.504375 58.070438)scale(0.1 -0.1)">
      <defs>
       <path id="DejaVuSans-53" d="M 3425 4513 
L 3425 3897 
Q 3066 4069 2747 4153 
Q 2428 4238 2131 4238 
Q 1616 4238 1336 4038 
Q 1056 3838 1056 3469 
Q 1056 3159 1242 3001 
Q 1428 2844 1947 2747 
L 2328 2669 
Q 3034 2534 3370 2195 
Q 3706 1856 3706 1288 
Q 3706 609 3251 259 
Q 2797 -91 1919 -91 
Q 1588 -91 1214 -16 
Q 841 59 441 206 
L 441 856 
Q 825 641 1194 531 
Q 1563 422 1919 422 
Q 2459 422 2753 634 
Q 3047 847 3047 1241 
Q 3047 1584 2836 1778 
Q 2625 1972 2144 2069 
L 1759 2144 
Q 1053 2284 737 2584 
Q 422 2884 422 3419 
Q 422 4038 858 4394 
Q 1294 4750 2059 4750 
Q 2388 4750 2728 4690 
Q 3069 4631 3425 4513 
z
" transform="scale(0.015625)"/>
       <path id="DejaVuSans-42" d="M 1259 2228 
L 1259 519 
L 2272 519 
Q 2781 519 3026 730 
Q 3272 941 3272 1375 
Q 3272 1813 3026 2020 
Q 2781 2228 2272 2228 
L 1259 2228 
z
M 1259 4147 
L 1259 2741 
L 2194 2741 
Q 2656 2741 2882 2914 
Q 3109 3088 3109 3444 
Q 3109 3797 2882 3972 
Q 2656 4147 2194 4147 
L 1259 4147 
z
M 628 4666 
L 2241 4666 
Q 2963 4666 3353 4366 
Q 3744 4066 3744 3513 
Q 3744 3084 3544 2831 
Q 3344 2578 2956 2516 
Q 3422 2416 3680 2098 
Q 3938 1781 3938 1306 
Q 3938 681 3513 340 
Q 3088 0 2303 0 
L 628 0 
L 628 4666 
z
" transform="scale(0.015625)"/>
       <path id="DejaVuSans-50" d="M 1259 4147 
L 1259 2394 
L 2053 2394 
Q 2494 2394 2734 2622 
Q 2975 2850 2975 3272 
Q 2975 3691 2734 3919 
Q 2494 4147 2053 4147 
L 1259 4147 
z
M 628 4666 
L 2053 4666 
Q 2838 4666 3239 4311 
Q 3641 3956 3641 3272 
Q 3641 2581 3239 2228 
Q 2838 1875 2053 1875 
L 1259 1875 
L 1259 0 
L 628 0 
L 628 4666 
z
" transform="scale(0.015625)"/>
       <path id="DejaVuSans-4f" d="M 2522 4238 
Q 1834 4238 1429 3725 
Q 1025 3213 1025 2328 
Q 1025 1447 1429 934 
Q 1834 422 2522 422 
Q 3209 422 3611 934 
Q 4013 1447 4013 2328 
Q 4013 3213 3611 3725 
Q 3209 4238 2522 4238 
z
M 2522 4750 
Q 3503 4750 4090 4092 
Q 4678 3434 4678 2328 
Q 4678 1225 4090 567 
Q 3503 -91 2522 -91 
Q 1538 -91 948 565 
Q 359 1222 359 2328 
Q 359 3434 948 4092 
Q 1538 4750 2522 4750 
z
" transform="scale(0.015625)"/>
      </defs>
      <use xlink:href="#DejaVuSans-53"/>
      <use xlink:href="#DejaVuSans-74" x="63.476562"/>
      <use xlink:href="#DejaVuSans-61" x="102.685547"/>
      <use xlink:href="#DejaVuSans-62" x="163.964844"/>
      <use xlink:href="#DejaVuSans-6c" x="227.441406"/>
      <use xlink:href="#DejaVuSans-65" x="255.224609"/>
      <use xlink:href="#DejaVuSans-42" x="316.748047"/>
      <use xlink:href="#DejaVuSans-61" x="385.351562"/>
      <use xlink:href="#DejaVuSans-73" x="446.630859"/>
      <use xlink:href="#DejaVuSans-65" x="498.730469"/>
      <use xlink:href="#DejaVuSans-6c" x="560.253906"/>
      <use xlink:href="#DejaVuSans-69" x="588.037109"/>
      <use xlink:href="#DejaVuSans-6e" x="615.820312"/>
      <use xlink:href="#DejaVuSans-65" x="679.199219"/>
      <use xlink:href="#DejaVuSans-73" x="740.722656"/>
      <use xlink:href="#DejaVuSans-50" x="792.822266"/>
      <use xlink:href="#DejaVuSans-50" x="853.125"/>
      <use xlink:href="#DejaVuSans-4f" x="913.427734"/>
     </g>
    </g>
   </g>
  </g>
 </g>
 <defs>
  <clipPath id="pe85ba96c53">
   <rect x="57.6" y="41.472" width="357.12" height="266.112"/>
  </clipPath>
 </defs>
</svg>
