<?xml version="1.0" encoding="utf-8" standalone="no"?>
<!DOCTYPE svg PUBLIC "-//W3C//DTD SVG 1.1//EN"
  "http://www.w3.org/Graphics/SVG/1.1/DTD/svg11.dtd">
<svg xmlns:xlink="http://www.w3.org/1999/xlink" width="460.8pt" height="345.6pt" viewBox="0 0 460.8 345.6" xmlns="http://www.w3.org/2000/svg" version="1.1">
 <metadata>
  <rdf:RDF xmlns:dc="http://purl.org/dc/elements/1.1/" xmlns:cc="http://creativecommons.org/ns#" xmlns:rdf="http://www.w3.org/1999/02/22-rdf-syntax-ns#">
   <cc:Work>
    <dc:type rdf:resource="http://purl.org/dc/dcmitype/StillImage"/>
    <dc:date>2022-06-16T11:36:23.269134</dc:date>
    <dc:format>image/svg+xml</dc:format>
    <dc:creator>
     <cc:Agent>
      <dc:title>Matplotlib v3.5.2, https://matplotlib.org/</dc:title>
     </cc:Agent>
    </dc:creator>
   </cc:Work>
  </rdf:RDF>
 </metadata>
 <defs>
  <style type="text/css">*{stroke-linejoin: round; stroke-linecap: butt}</style>
 </defs>
 <g id="figure_1">
  <g id="patch_1">
   <path d="M 0 345.6 
L 460.8 345.6 
L 460.8 0 
L 0 0 
z
" style="fill: #ffffff"/>
  </g>
  <g id="axes_1">
   <g id="patch_2">
    <path d="M 57.6 307.584 
L 414.72 307.584 
L 414.72 41.472 
L 57.6 41.472 
z
" style="fill: #ffffff"/>
   </g>
   <g id="PolyCollection_1">
    <path d="M 111.554194 274.410521 
L 111.06998 274.410521 
L 111.070451 272.190493 
L 111.077424 269.970466 
L 111.088166 267.750438 
L 111.099061 265.53041 
L 111.106184 263.310382 
L 111.105977 261.090354 
L 111.095892 258.870326 
L 111.074885 256.650298 
L 111.043699 254.43027 
L 111.004852 252.210243 
L 110.962341 249.990215 
L 110.921071 247.770187 
L 110.886094 245.550159 
L 110.861773 243.330131 
L 110.851017 241.110103 
L 110.854749 238.890075 
L 110.871714 236.670047 
L 110.898668 234.45002 
L 110.93092 232.229992 
L 110.96311 230.009964 
L 110.99005 227.789936 
L 111.007458 225.569908 
L 111.012443 223.34988 
L 111.003663 221.129852 
L 110.981178 218.909824 
L 110.946068 216.689796 
L 110.899976 214.469769 
L 110.844721 212.249741 
L 110.782098 210.029713 
L 110.713913 207.809685 
L 110.642207 205.589657 
L 110.569529 203.369629 
L 110.499113 201.149601 
L 110.434787 198.929573 
L 110.380582 196.709546 
L 110.340078 194.489518 
L 110.315678 192.26949 
L 110.308007 190.049462 
L 110.315682 187.829434 
L 110.335518 185.609406 
L 110.363156 183.389378 
L 110.393905 181.16935 
L 110.423552 178.949323 
L 110.448903 176.729295 
L 110.467921 174.509267 
L 110.479496 172.289239 
L 110.482996 170.069211 
L 110.477794 167.849183 
L 110.462944 165.629155 
L 110.437079 163.409127 
L 110.398471 161.1891 
L 110.345174 158.969072 
L 110.275134 156.749044 
L 110.186235 154.529016 
L 110.076319 152.308988 
L 109.94329 150.08896 
L 109.785397 147.868932 
L 109.601754 145.648904 
L 109.393056 143.428877 
L 109.162332 141.208849 
L 108.915498 138.988821 
L 108.661459 136.768793 
L 108.411569 134.548765 
L 108.178402 132.328737 
L 107.97397 130.108709 
L 107.807675 127.888681 
L 107.684361 125.668654 
L 107.602814 123.448626 
L 107.554908 121.228598 
L 107.525444 119.00857 
L 107.492597 116.788542 
L 107.428808 114.568514 
L 107.301982 112.348486 
L 107.076911 110.128458 
L 106.716899 107.908431 
L 106.185573 105.688403 
L 105.448847 103.468375 
L 104.476953 101.248347 
L 103.246395 99.028319 
L 101.741696 96.808291 
L 99.95685 94.588263 
L 97.896542 92.368235 
L 95.577332 90.148208 
L 93.029156 87.92818 
L 90.29743 85.708152 
L 87.445847 83.488124 
L 84.559435 81.268096 
L 81.746817 79.048068 
L 79.140044 76.82804 
L 76.890239 74.608012 
L 75.15766 72.387985 
L 74.096051 70.167957 
L 73.832727 67.947929 
L 74.447666 65.727901 
L 75.955976 63.507873 
L 78.29825 61.287845 
L 81.342007 59.067817 
L 84.895081 56.847789 
L 88.728952 54.627761 
L 133.895222 54.627761 
L 133.895222 54.627761 
L 137.729093 56.847789 
L 141.282167 59.067817 
L 144.325925 61.287845 
L 146.668199 63.507873 
L 148.176509 65.727901 
L 148.791447 67.947929 
L 148.528124 70.167957 
L 147.466514 72.387985 
L 145.733936 74.608012 
L 143.48413 76.82804 
L 140.877358 79.048068 
L 138.064739 81.268096 
L 135.178328 83.488124 
L 132.326745 85.708152 
L 129.595018 87.92818 
L 127.046842 90.148208 
L 124.727633 92.368235 
L 122.667324 94.588263 
L 120.882478 96.808291 
L 119.377779 99.028319 
L 118.147222 101.248347 
L 117.175328 103.468375 
L 116.438602 105.688403 
L 115.907276 107.908431 
L 115.547264 110.128458 
L 115.322193 112.348486 
L 115.195366 114.568514 
L 115.131578 116.788542 
L 115.098731 119.00857 
L 115.069267 121.228598 
L 115.02136 123.448626 
L 114.939813 125.668654 
L 114.816499 127.888681 
L 114.650204 130.108709 
L 114.445773 132.328737 
L 114.212606 134.548765 
L 113.962716 136.768793 
L 113.708676 138.988821 
L 113.461843 141.208849 
L 113.231119 143.428877 
L 113.022421 145.648904 
L 112.838778 147.868932 
L 112.680884 150.08896 
L 112.547855 152.308988 
L 112.43794 154.529016 
L 112.34904 156.749044 
L 112.279 158.969072 
L 112.225704 161.1891 
L 112.187096 163.409127 
L 112.161231 165.629155 
L 112.146381 167.849183 
L 112.141178 170.069211 
L 112.144678 172.289239 
L 112.156254 174.509267 
L 112.175272 176.729295 
L 112.200622 178.949323 
L 112.23027 181.16935 
L 112.261018 183.389378 
L 112.288657 185.609406 
L 112.308493 187.829434 
L 112.316168 190.049462 
L 112.308497 192.26949 
L 112.284096 194.489518 
L 112.243593 196.709546 
L 112.189387 198.929573 
L 112.125061 201.149601 
L 112.054645 203.369629 
L 111.981968 205.589657 
L 111.910261 207.809685 
L 111.842076 210.029713 
L 111.779453 212.249741 
L 111.724199 214.469769 
L 111.678107 216.689796 
L 111.642997 218.909824 
L 111.620512 221.129852 
L 111.611732 223.34988 
L 111.616716 225.569908 
L 111.634124 227.789936 
L 111.661064 230.009964 
L 111.693255 232.229992 
L 111.725507 234.45002 
L 111.75246 236.670047 
L 111.769426 238.890075 
L 111.773158 241.110103 
L 111.762402 243.330131 
L 111.73808 245.550159 
L 111.703104 247.770187 
L 111.661834 249.990215 
L 111.619323 252.210243 
L 111.580476 254.43027 
L 111.549289 256.650298 
L 111.528283 258.870326 
L 111.518197 261.090354 
L 111.517991 263.310382 
L 111.525114 265.53041 
L 111.536008 267.750438 
L 111.546751 269.970466 
L 111.553723 272.190493 
L 111.554194 274.410521 
z
" clip-path="url(#p95b5417491)" style="fill: #1f77b4; fill-opacity: 0.3"/>
   </g>
   <g id="PolyCollection_2">
    <path d="M 194.888289 251.272395 
L 194.310819 251.272395 
L 194.30003 249.28787 
L 194.291842 247.303345 
L 194.283546 245.318819 
L 194.272007 243.334294 
L 194.254226 241.349769 
L 194.227902 239.365243 
L 194.191874 237.380718 
L 194.146334 235.396193 
L 194.092767 233.411667 
L 194.033644 231.427142 
L 193.971946 229.442617 
L 193.910645 227.458091 
L 193.852301 225.473566 
L 193.798845 223.489041 
L 193.751595 221.504515 
L 193.711464 219.51999 
L 193.679216 217.535465 
L 193.655662 215.550939 
L 193.641663 213.566414 
L 193.63791 211.581889 
L 193.644532 209.597363 
L 193.660668 207.612838 
L 193.684196 205.628313 
L 193.711749 203.643788 
L 193.739121 201.659262 
L 193.761991 199.674737 
L 193.776836 197.690212 
L 193.78177 195.705686 
L 193.777093 193.721161 
L 193.765348 191.736636 
L 193.750845 189.75211 
L 193.738723 187.767585 
L 193.733769 185.78306 
L 193.739284 183.798534 
L 193.756257 181.814009 
L 193.783066 179.829484 
L 193.815776 177.844958 
L 193.848947 175.860433 
L 193.876768 173.875908 
L 193.894227 171.891382 
L 193.898043 169.906857 
L 193.887159 167.922332 
L 193.86268 165.937806 
L 193.827298 163.953281 
L 193.784344 161.968756 
L 193.736706 159.98423 
L 193.685842 157.999705 
L 193.63113 156.01518 
L 193.569671 154.030654 
L 193.496575 152.046129 
L 193.405688 150.061604 
L 193.290581 148.077079 
L 193.14563 146.092553 
L 192.966993 144.108028 
L 192.753326 142.123503 
L 192.50613 140.138977 
L 192.229682 138.154452 
L 191.930566 136.169927 
L 191.616856 134.185401 
L 191.29705 132.200876 
L 190.978915 130.216351 
L 190.668385 128.231825 
L 190.368703 126.2473 
L 190.079934 124.262775 
L 189.798895 122.278249 
L 189.519462 120.293724 
L 189.233063 118.309199 
L 188.929108 116.324673 
L 188.595155 114.340148 
L 188.216684 112.355623 
L 187.776607 110.371097 
L 187.254829 108.386572 
L 186.628292 106.402047 
L 185.871924 104.417521 
L 184.960667 102.432996 
L 183.872422 100.448471 
L 182.591361 98.463945 
L 181.110845 96.47942 
L 179.435176 94.494895 
L 177.579721 92.51037 
L 175.569488 90.525844 
L 173.436773 88.541319 
L 171.218949 86.556794 
L 168.957485 84.572268 
L 166.698932 82.587743 
L 164.497801 80.603218 
L 162.420368 78.618692 
L 160.547655 76.634167 
L 158.97557 74.649642 
L 157.810578 72.665116 
L 157.160344 70.680591 
L 157.120194 68.696066 
L 157.757705 66.71154 
L 159.098614 64.727015 
L 161.117372 62.74249 
L 163.734847 60.757964 
L 166.824185 58.773439 
L 170.224031 56.788914 
L 173.756716 54.804388 
L 215.442393 54.804388 
L 215.442393 54.804388 
L 218.975077 56.788914 
L 222.374924 58.773439 
L 225.464262 60.757964 
L 228.081736 62.74249 
L 230.100494 64.727015 
L 231.441403 66.71154 
L 232.078914 68.696066 
L 232.038764 70.680591 
L 231.38853 72.665116 
L 230.223538 74.649642 
L 228.651453 76.634167 
L 226.77874 78.618692 
L 224.701308 80.603218 
L 222.500176 82.587743 
L 220.241623 84.572268 
L 217.980159 86.556794 
L 215.762335 88.541319 
L 213.62962 90.525844 
L 211.619387 92.51037 
L 209.763932 94.494895 
L 208.088263 96.47942 
L 206.607748 98.463945 
L 205.326687 100.448471 
L 204.238441 102.432996 
L 203.327185 104.417521 
L 202.570816 106.402047 
L 201.944279 108.386572 
L 201.422501 110.371097 
L 200.982425 112.355623 
L 200.603953 114.340148 
L 200.27 116.324673 
L 199.966045 118.309199 
L 199.679646 120.293724 
L 199.400213 122.278249 
L 199.119174 124.262775 
L 198.830405 126.2473 
L 198.530724 128.231825 
L 198.220193 130.216351 
L 197.902058 132.200876 
L 197.582252 134.185401 
L 197.268542 136.169927 
L 196.969426 138.154452 
L 196.692978 140.138977 
L 196.445782 142.123503 
L 196.232115 144.108028 
L 196.053478 146.092553 
L 195.908527 148.077079 
L 195.79342 150.061604 
L 195.702533 152.046129 
L 195.629438 154.030654 
L 195.567978 156.01518 
L 195.513267 157.999705 
L 195.462403 159.98423 
L 195.414764 161.968756 
L 195.37181 163.953281 
L 195.336428 165.937806 
L 195.31195 167.922332 
L 195.301065 169.906857 
L 195.304881 171.891382 
L 195.32234 173.875908 
L 195.350161 175.860433 
L 195.383333 177.844958 
L 195.416042 179.829484 
L 195.442851 181.814009 
L 195.459824 183.798534 
L 195.465339 185.78306 
L 195.460386 187.767585 
L 195.448263 189.75211 
L 195.43376 191.736636 
L 195.422015 193.721161 
L 195.417338 195.705686 
L 195.422273 197.690212 
L 195.437117 199.674737 
L 195.459987 201.659262 
L 195.487359 203.643788 
L 195.514913 205.628313 
L 195.53844 207.612838 
L 195.554577 209.597363 
L 195.561198 211.581889 
L 195.557445 213.566414 
L 195.543446 215.550939 
L 195.519892 217.535465 
L 195.487644 219.51999 
L 195.447513 221.504515 
L 195.400264 223.489041 
L 195.346807 225.473566 
L 195.288463 227.458091 
L 195.227163 229.442617 
L 195.165464 231.427142 
L 195.106342 233.411667 
L 195.052775 235.396193 
L 195.007234 237.380718 
L 194.971206 239.365243 
L 194.944882 241.349769 
L 194.927101 243.334294 
L 194.915562 245.318819 
L 194.907266 247.303345 
L 194.899078 249.28787 
L 194.888289 251.272395 
z
" clip-path="url(#p95b5417491)" style="fill: #1f77b4; fill-opacity: 0.3"/>
   </g>
   <g id="PolyCollection_3">
    <path d="M 278.159344 295.488 
L 277.614698 295.488 
L 277.623375 293.044364 
L 277.647781 290.600727 
L 277.683541 288.157091 
L 277.724808 285.713455 
L 277.765815 283.269818 
L 277.802135 280.826182 
L 277.831299 278.382545 
L 277.852737 275.938909 
L 277.86725 273.495273 
L 277.876334 271.051636 
L 277.881607 268.608 
L 277.88445 266.164364 
L 277.885877 263.720727 
L 277.886543 261.277091 
L 277.886834 258.833455 
L 277.886952 256.389818 
L 277.886997 253.946182 
L 277.887013 251.502545 
L 277.887019 249.058909 
L 277.88702 246.615273 
L 277.88702 244.171636 
L 277.88702 241.728 
L 277.887017 239.284364 
L 277.887009 236.840727 
L 277.886983 234.397091 
L 277.886909 231.953455 
L 277.886714 229.509818 
L 277.886232 227.066182 
L 277.885115 224.622545 
L 277.882697 222.178909 
L 277.877805 219.735273 
L 277.868566 217.291636 
L 277.85228 214.848 
L 277.825511 212.404364 
L 277.784523 209.960727 
L 277.726123 207.517091 
L 277.648812 205.073455 
L 277.553894 202.629818 
L 277.446062 200.186182 
L 277.333011 197.742545 
L 277.223957 195.298909 
L 277.127384 192.855273 
L 277.048779 190.411636 
L 276.989207 187.968 
L 276.945281 185.524364 
L 276.91049 183.080727 
L 276.877306 180.637091 
L 276.839157 178.193455 
L 276.791549 175.749818 
L 276.73206 173.306182 
L 276.659561 170.862545 
L 276.573416 168.418909 
L 276.473455 165.975273 
L 276.361056 163.531636 
L 276.240976 161.088 
L 276.12278 158.644364 
L 276.020527 156.200727 
L 275.949727 153.757091 
L 275.921811 151.313455 
L 275.93769 148.869818 
L 275.982946 146.426182 
L 276.027076 143.982545 
L 276.028008 141.538909 
L 275.941206 139.095273 
L 275.730986 136.651636 
L 275.380823 134.208 
L 274.899654 131.764364 
L 274.322246 129.320727 
L 273.703183 126.877091 
L 273.105516 124.433455 
L 272.586401 121.989818 
L 272.182945 119.546182 
L 271.901612 117.102545 
L 271.713775 114.658909 
L 271.558381 112.215273 
L 271.350735 109.771636 
L 270.994963 107.328 
L 270.397239 104.884364 
L 269.477473 102.440727 
L 268.178333 99.997091 
L 266.471472 97.553455 
L 264.361169 95.109818 
L 261.885314 92.666182 
L 259.113287 90.222545 
L 256.140432 87.778909 
L 253.080083 85.335273 
L 250.055791 82.891636 
L 247.197313 80.448 
L 244.642596 78.004364 
L 242.543982 75.560727 
L 241.072008 73.117091 
L 240.407661 70.673455 
L 240.716805 68.229818 
L 242.108834 65.786182 
L 244.591752 63.342545 
L 248.042127 60.898909 
L 252.205953 58.455273 
L 256.735584 56.011636 
L 261.253407 53.568 
L 294.520635 53.568 
L 294.520635 53.568 
L 299.038457 56.011636 
L 303.568088 58.455273 
L 307.731915 60.898909 
L 311.18229 63.342545 
L 313.665208 65.786182 
L 315.057236 68.229818 
L 315.366381 70.673455 
L 314.702033 73.117091 
L 313.23006 75.560727 
L 311.131446 78.004364 
L 308.576729 80.448 
L 305.718251 82.891636 
L 302.693959 85.335273 
L 299.63361 87.778909 
L 296.660754 90.222545 
L 293.888728 92.666182 
L 291.412873 95.109818 
L 289.302569 97.553455 
L 287.595709 99.997091 
L 286.296569 102.440727 
L 285.376802 104.884364 
L 284.779079 107.328 
L 284.423307 109.771636 
L 284.215661 112.215273 
L 284.060266 114.658909 
L 283.87243 117.102545 
L 283.591097 119.546182 
L 283.187641 121.989818 
L 282.668526 124.433455 
L 282.070858 126.877091 
L 281.451795 129.320727 
L 280.874387 131.764364 
L 280.393219 134.208 
L 280.043056 136.651636 
L 279.832835 139.095273 
L 279.746033 141.538909 
L 279.746966 143.982545 
L 279.791096 146.426182 
L 279.836352 148.869818 
L 279.852231 151.313455 
L 279.824315 153.757091 
L 279.753515 156.200727 
L 279.651262 158.644364 
L 279.533066 161.088 
L 279.412985 163.531636 
L 279.300587 165.975273 
L 279.200626 168.418909 
L 279.114481 170.862545 
L 279.041981 173.306182 
L 278.982492 175.749818 
L 278.934885 178.193455 
L 278.896736 180.637091 
L 278.863552 183.080727 
L 278.828761 185.524364 
L 278.784834 187.968 
L 278.725263 190.411636 
L 278.646658 192.855273 
L 278.550084 195.298909 
L 278.44103 197.742545 
L 278.32798 200.186182 
L 278.220147 202.629818 
L 278.12523 205.073455 
L 278.047919 207.517091 
L 277.989519 209.960727 
L 277.94853 212.404364 
L 277.921762 214.848 
L 277.905476 217.291636 
L 277.896237 219.735273 
L 277.891345 222.178909 
L 277.888927 224.622545 
L 277.88781 227.066182 
L 277.887327 229.509818 
L 277.887133 231.953455 
L 277.887059 234.397091 
L 277.887033 236.840727 
L 277.887025 239.284364 
L 277.887022 241.728 
L 277.887021 244.171636 
L 277.887022 246.615273 
L 277.887023 249.058909 
L 277.887028 251.502545 
L 277.887044 253.946182 
L 277.887089 256.389818 
L 277.887208 258.833455 
L 277.887498 261.277091 
L 277.888165 263.720727 
L 277.889592 266.164364 
L 277.892435 268.608 
L 277.897707 271.051636 
L 277.906792 273.495273 
L 277.921305 275.938909 
L 277.942743 278.382545 
L 277.971907 280.826182 
L 278.008227 283.269818 
L 278.049234 285.713455 
L 278.090501 288.157091 
L 278.126261 290.600727 
L 278.150667 293.044364 
L 278.159344 295.488 
z
" clip-path="url(#p95b5417491)" style="fill: #1f77b4; fill-opacity: 0.3"/>
   </g>
   <g id="PolyCollection_4">
    <path d="M 361.466809 238.79076 
L 360.549016 238.79076 
L 360.523011 236.930527 
L 360.50775 235.070295 
L 360.504157 233.210063 
L 360.512323 231.349831 
L 360.53146 229.489598 
L 360.559916 227.629366 
L 360.595255 225.769134 
L 360.634388 223.908901 
L 360.673737 222.048669 
L 360.709421 220.188437 
L 360.737438 218.328204 
L 360.753848 216.467972 
L 360.754941 214.60774 
L 360.737405 212.747508 
L 360.698498 210.887275 
L 360.63625 209.027043 
L 360.549675 207.166811 
L 360.439013 205.306578 
L 360.30595 203.446346 
L 360.153795 201.586114 
L 359.987545 199.725881 
L 359.81381 197.865649 
L 359.640537 196.005417 
L 359.47653 194.145184 
L 359.330774 192.284952 
L 359.21163 190.42472 
L 359.12597 188.564488 
L 359.07839 186.704255 
L 359.070605 184.844023 
L 359.101146 182.983791 
L 359.165412 181.123558 
L 359.256102 179.263326 
L 359.36394 177.403094 
L 359.478613 175.542861 
L 359.589748 173.682629 
L 359.68779 171.822397 
L 359.764648 169.962164 
L 359.814047 168.101932 
L 359.831564 166.2417 
L 359.814419 164.381468 
L 359.761125 162.521235 
L 359.671145 160.661003 
L 359.544661 158.800771 
L 359.38255 156.940538 
L 359.186568 155.080306 
L 358.95967 153.220074 
L 358.706329 151.359841 
L 358.432687 149.499609 
L 358.146394 147.639377 
L 357.856059 145.779144 
L 357.570335 143.918912 
L 357.296798 142.05868 
L 357.040817 140.198448 
L 356.804708 138.338215 
L 356.587365 136.477983 
L 356.384505 134.617751 
L 356.189503 132.757518 
L 355.994642 130.897286 
L 355.792491 129.037054 
L 355.577072 127.176821 
L 355.344508 125.316589 
L 355.09296 123.456357 
L 354.821814 121.596125 
L 354.530287 119.735892 
L 354.215753 117.87566 
L 353.872184 116.015428 
L 353.489123 114.155195 
L 353.051498 112.294963 
L 352.540419 110.434731 
L 351.934926 108.574498 
L 351.21443 106.714266 
L 350.361423 104.854034 
L 349.364002 102.993801 
L 348.217682 101.133569 
L 346.926163 99.273337 
L 345.500861 97.413105 
L 343.959276 95.552872 
L 342.322537 93.69264 
L 340.612681 91.832408 
L 338.850349 89.972175 
L 337.053585 88.111943 
L 335.238239 86.251711 
L 333.420162 84.391478 
L 331.618938 82.531246 
L 329.862453 80.671014 
L 328.191226 78.810781 
L 326.661243 76.950549 
L 325.344143 75.090317 
L 324.323963 73.230085 
L 323.69031 71.369852 
L 323.528553 69.50962 
L 323.908383 67.649388 
L 324.872596 65.789155 
L 326.428126 63.928923 
L 328.541124 62.068691 
L 331.137221 60.208458 
L 334.107216 58.348226 
L 337.317412 56.487994 
L 340.623011 54.627761 
L 381.392814 54.627761 
L 381.392814 54.627761 
L 384.698413 56.487994 
L 387.908609 58.348226 
L 390.878604 60.208458 
L 393.474702 62.068691 
L 395.5877 63.928923 
L 397.14323 65.789155 
L 398.107443 67.649388 
L 398.487273 69.50962 
L 398.325515 71.369852 
L 397.691862 73.230085 
L 396.671682 75.090317 
L 395.354582 76.950549 
L 393.8246 78.810781 
L 392.153373 80.671014 
L 390.396888 82.531246 
L 388.595663 84.391478 
L 386.777586 86.251711 
L 384.96224 88.111943 
L 383.165477 89.972175 
L 381.403145 91.832408 
L 379.693288 93.69264 
L 378.05655 95.552872 
L 376.514965 97.413105 
L 375.089663 99.273337 
L 373.798144 101.133569 
L 372.651823 102.993801 
L 371.654402 104.854034 
L 370.801396 106.714266 
L 370.080899 108.574498 
L 369.475407 110.434731 
L 368.964328 112.294963 
L 368.526702 114.155195 
L 368.143642 116.015428 
L 367.800072 117.87566 
L 367.485538 119.735892 
L 367.194012 121.596125 
L 366.922866 123.456357 
L 366.671317 125.316589 
L 366.438754 127.176821 
L 366.223335 129.037054 
L 366.021183 130.897286 
L 365.826322 132.757518 
L 365.63132 134.617751 
L 365.42846 136.477983 
L 365.211117 138.338215 
L 364.975008 140.198448 
L 364.719028 142.05868 
L 364.44549 143.918912 
L 364.159767 145.779144 
L 363.869431 147.639377 
L 363.583138 149.499609 
L 363.309496 151.359841 
L 363.056155 153.220074 
L 362.829257 155.080306 
L 362.633275 156.940538 
L 362.471164 158.800771 
L 362.34468 160.661003 
L 362.2547 162.521235 
L 362.201407 164.381468 
L 362.184261 166.2417 
L 362.201778 168.101932 
L 362.251178 169.962164 
L 362.328036 171.822397 
L 362.426077 173.682629 
L 362.537212 175.542861 
L 362.651885 177.403094 
L 362.759724 179.263326 
L 362.850413 181.123558 
L 362.91468 182.983791 
L 362.94522 184.844023 
L 362.937435 186.704255 
L 362.889855 188.564488 
L 362.804196 190.42472 
L 362.685052 192.284952 
L 362.539296 194.145184 
L 362.375288 196.005417 
L 362.202015 197.865649 
L 362.02828 199.725881 
L 361.862031 201.586114 
L 361.709875 203.446346 
L 361.576813 205.306578 
L 361.46615 207.166811 
L 361.379576 209.027043 
L 361.317327 210.887275 
L 361.278421 212.747508 
L 361.260884 214.60774 
L 361.261978 216.467972 
L 361.278388 218.328204 
L 361.306405 220.188437 
L 361.342088 222.048669 
L 361.381438 223.908901 
L 361.420571 225.769134 
L 361.45591 227.629366 
L 361.484365 229.489598 
L 361.503502 231.349831 
L 361.511669 233.210063 
L 361.508075 235.070295 
L 361.492815 236.930527 
L 361.466809 238.79076 
z
" clip-path="url(#p95b5417491)" style="fill: #1f77b4; fill-opacity: 0.3"/>
   </g>
   <g id="matplotlib.axis_1">
    <g id="xtick_1">
     <g id="line2d_1">
      <defs>
       <path id="mf4f23cc167" d="M 0 0 
L 0 3.5 
" style="stroke: #000000; stroke-width: 0.8"/>
      </defs>
      <g>
       <use xlink:href="#mf4f23cc167" x="69.668354" y="307.584" style="stroke: #000000; stroke-width: 0.8"/>
      </g>
     </g>
     <g id="text_1">
      <!-- 250 -->
      <g transform="translate(60.124604 322.182437)scale(0.1 -0.1)">
       <defs>
        <path id="DejaVuSans-32" d="M 1228 531 
L 3431 531 
L 3431 0 
L 469 0 
L 469 531 
Q 828 903 1448 1529 
Q 2069 2156 2228 2338 
Q 2531 2678 2651 2914 
Q 2772 3150 2772 3378 
Q 2772 3750 2511 3984 
Q 2250 4219 1831 4219 
Q 1534 4219 1204 4116 
Q 875 4013 500 3803 
L 500 4441 
Q 881 4594 1212 4672 
Q 1544 4750 1819 4750 
Q 2544 4750 2975 4387 
Q 3406 4025 3406 3419 
Q 3406 3131 3298 2873 
Q 3191 2616 2906 2266 
Q 2828 2175 2409 1742 
Q 1991 1309 1228 531 
z
" transform="scale(0.015625)"/>
        <path id="DejaVuSans-35" d="M 691 4666 
L 3169 4666 
L 3169 4134 
L 1269 4134 
L 1269 2991 
Q 1406 3038 1543 3061 
Q 1681 3084 1819 3084 
Q 2600 3084 3056 2656 
Q 3513 2228 3513 1497 
Q 3513 744 3044 326 
Q 2575 -91 1722 -91 
Q 1428 -91 1123 -41 
Q 819 9 494 109 
L 494 744 
Q 775 591 1075 516 
Q 1375 441 1709 441 
Q 2250 441 2565 725 
Q 2881 1009 2881 1497 
Q 2881 1984 2565 2268 
Q 2250 2553 1709 2553 
Q 1456 2553 1204 2497 
Q 953 2441 691 2322 
L 691 4666 
z
" transform="scale(0.015625)"/>
        <path id="DejaVuSans-30" d="M 2034 4250 
Q 1547 4250 1301 3770 
Q 1056 3291 1056 2328 
Q 1056 1369 1301 889 
Q 1547 409 2034 409 
Q 2525 409 2770 889 
Q 3016 1369 3016 2328 
Q 3016 3291 2770 3770 
Q 2525 4250 2034 4250 
z
M 2034 4750 
Q 2819 4750 3233 4129 
Q 3647 3509 3647 2328 
Q 3647 1150 3233 529 
Q 2819 -91 2034 -91 
Q 1250 -91 836 529 
Q 422 1150 422 2328 
Q 422 3509 836 4129 
Q 1250 4750 2034 4750 
z
" transform="scale(0.015625)"/>
       </defs>
       <use xlink:href="#DejaVuSans-32"/>
       <use xlink:href="#DejaVuSans-35" x="63.623047"/>
       <use xlink:href="#DejaVuSans-30" x="127.246094"/>
      </g>
     </g>
    </g>
    <g id="xtick_2">
     <g id="line2d_2">
      <g>
       <use xlink:href="#mf4f23cc167" x="111.312087" y="307.584" style="stroke: #000000; stroke-width: 0.8"/>
      </g>
     </g>
     <g id="text_2">
      <!-- 500 -->
      <g transform="translate(101.768337 322.182437)scale(0.1 -0.1)">
       <use xlink:href="#DejaVuSans-35"/>
       <use xlink:href="#DejaVuSans-30" x="63.623047"/>
       <use xlink:href="#DejaVuSans-30" x="127.246094"/>
      </g>
     </g>
    </g>
    <g id="xtick_3">
     <g id="line2d_3">
      <g>
       <use xlink:href="#mf4f23cc167" x="152.955821" y="307.584" style="stroke: #000000; stroke-width: 0.8"/>
      </g>
     </g>
     <g id="text_3">
      <!-- 750 -->
      <g transform="translate(143.412071 322.182437)scale(0.1 -0.1)">
       <defs>
        <path id="DejaVuSans-37" d="M 525 4666 
L 3525 4666 
L 3525 4397 
L 1831 0 
L 1172 0 
L 2766 4134 
L 525 4134 
L 525 4666 
z
" transform="scale(0.015625)"/>
       </defs>
       <use xlink:href="#DejaVuSans-37"/>
       <use xlink:href="#DejaVuSans-35" x="63.623047"/>
       <use xlink:href="#DejaVuSans-30" x="127.246094"/>
      </g>
     </g>
    </g>
    <g id="xtick_4">
     <g id="line2d_4">
      <g>
       <use xlink:href="#mf4f23cc167" x="194.599554" y="307.584" style="stroke: #000000; stroke-width: 0.8"/>
      </g>
     </g>
     <g id="text_4">
      <!-- 1000 -->
      <g transform="translate(181.874554 322.182437)scale(0.1 -0.1)">
       <defs>
        <path id="DejaVuSans-31" d="M 794 531 
L 1825 531 
L 1825 4091 
L 703 3866 
L 703 4441 
L 1819 4666 
L 2450 4666 
L 2450 531 
L 3481 531 
L 3481 0 
L 794 0 
L 794 531 
z
" transform="scale(0.015625)"/>
       </defs>
       <use xlink:href="#DejaVuSans-31"/>
       <use xlink:href="#DejaVuSans-30" x="63.623047"/>
       <use xlink:href="#DejaVuSans-30" x="127.246094"/>
       <use xlink:href="#DejaVuSans-30" x="190.869141"/>
      </g>
     </g>
    </g>
    <g id="xtick_5">
     <g id="line2d_5">
      <g>
       <use xlink:href="#mf4f23cc167" x="236.243287" y="307.584" style="stroke: #000000; stroke-width: 0.8"/>
      </g>
     </g>
     <g id="text_5">
      <!-- 1250 -->
      <g transform="translate(223.518287 322.182437)scale(0.1 -0.1)">
       <use xlink:href="#DejaVuSans-31"/>
       <use xlink:href="#DejaVuSans-32" x="63.623047"/>
       <use xlink:href="#DejaVuSans-35" x="127.246094"/>
       <use xlink:href="#DejaVuSans-30" x="190.869141"/>
      </g>
     </g>
    </g>
    <g id="xtick_6">
     <g id="line2d_6">
      <g>
       <use xlink:href="#mf4f23cc167" x="277.887021" y="307.584" style="stroke: #000000; stroke-width: 0.8"/>
      </g>
     </g>
     <g id="text_6">
      <!-- 1500 -->
      <g transform="translate(265.162021 322.182437)scale(0.1 -0.1)">
       <use xlink:href="#DejaVuSans-31"/>
       <use xlink:href="#DejaVuSans-35" x="63.623047"/>
       <use xlink:href="#DejaVuSans-30" x="127.246094"/>
       <use xlink:href="#DejaVuSans-30" x="190.869141"/>
      </g>
     </g>
    </g>
    <g id="xtick_7">
     <g id="line2d_7">
      <g>
       <use xlink:href="#mf4f23cc167" x="319.530754" y="307.584" style="stroke: #000000; stroke-width: 0.8"/>
      </g>
     </g>
     <g id="text_7">
      <!-- 1750 -->
      <g transform="translate(306.805754 322.182437)scale(0.1 -0.1)">
       <use xlink:href="#DejaVuSans-31"/>
       <use xlink:href="#DejaVuSans-37" x="63.623047"/>
       <use xlink:href="#DejaVuSans-35" x="127.246094"/>
       <use xlink:href="#DejaVuSans-30" x="190.869141"/>
      </g>
     </g>
    </g>
    <g id="xtick_8">
     <g id="line2d_8">
      <g>
       <use xlink:href="#mf4f23cc167" x="361.174488" y="307.584" style="stroke: #000000; stroke-width: 0.8"/>
      </g>
     </g>
     <g id="text_8">
      <!-- 2000 -->
      <g transform="translate(348.449488 322.182437)scale(0.1 -0.1)">
       <use xlink:href="#DejaVuSans-32"/>
       <use xlink:href="#DejaVuSans-30" x="63.623047"/>
       <use xlink:href="#DejaVuSans-30" x="127.246094"/>
       <use xlink:href="#DejaVuSans-30" x="190.869141"/>
      </g>
     </g>
    </g>
    <g id="xtick_9">
     <g id="line2d_9">
      <g>
       <use xlink:href="#mf4f23cc167" x="402.818221" y="307.584" style="stroke: #000000; stroke-width: 0.8"/>
      </g>
     </g>
     <g id="text_9">
      <!-- 2250 -->
      <g transform="translate(390.093221 322.182437)scale(0.1 -0.1)">
       <use xlink:href="#DejaVuSans-32"/>
       <use xlink:href="#DejaVuSans-32" x="63.623047"/>
       <use xlink:href="#DejaVuSans-35" x="127.246094"/>
       <use xlink:href="#DejaVuSans-30" x="190.869141"/>
      </g>
     </g>
    </g>
    <g id="text_10">
     <!-- Learned Episodes -->
     <g transform="translate(192.102187 335.860562)scale(0.1 -0.1)">
      <defs>
       <path id="DejaVuSans-4c" d="M 628 4666 
L 1259 4666 
L 1259 531 
L 3531 531 
L 3531 0 
L 628 0 
L 628 4666 
z
" transform="scale(0.015625)"/>
       <path id="DejaVuSans-65" d="M 3597 1894 
L 3597 1613 
L 953 1613 
Q 991 1019 1311 708 
Q 1631 397 2203 397 
Q 2534 397 2845 478 
Q 3156 559 3463 722 
L 3463 178 
Q 3153 47 2828 -22 
Q 2503 -91 2169 -91 
Q 1331 -91 842 396 
Q 353 884 353 1716 
Q 353 2575 817 3079 
Q 1281 3584 2069 3584 
Q 2775 3584 3186 3129 
Q 3597 2675 3597 1894 
z
M 3022 2063 
Q 3016 2534 2758 2815 
Q 2500 3097 2075 3097 
Q 1594 3097 1305 2825 
Q 1016 2553 972 2059 
L 3022 2063 
z
" transform="scale(0.015625)"/>
       <path id="DejaVuSans-61" d="M 2194 1759 
Q 1497 1759 1228 1600 
Q 959 1441 959 1056 
Q 959 750 1161 570 
Q 1363 391 1709 391 
Q 2188 391 2477 730 
Q 2766 1069 2766 1631 
L 2766 1759 
L 2194 1759 
z
M 3341 1997 
L 3341 0 
L 2766 0 
L 2766 531 
Q 2569 213 2275 61 
Q 1981 -91 1556 -91 
Q 1019 -91 701 211 
Q 384 513 384 1019 
Q 384 1609 779 1909 
Q 1175 2209 1959 2209 
L 2766 2209 
L 2766 2266 
Q 2766 2663 2505 2880 
Q 2244 3097 1772 3097 
Q 1472 3097 1187 3025 
Q 903 2953 641 2809 
L 641 3341 
Q 956 3463 1253 3523 
Q 1550 3584 1831 3584 
Q 2591 3584 2966 3190 
Q 3341 2797 3341 1997 
z
" transform="scale(0.015625)"/>
       <path id="DejaVuSans-72" d="M 2631 2963 
Q 2534 3019 2420 3045 
Q 2306 3072 2169 3072 
Q 1681 3072 1420 2755 
Q 1159 2438 1159 1844 
L 1159 0 
L 581 0 
L 581 3500 
L 1159 3500 
L 1159 2956 
Q 1341 3275 1631 3429 
Q 1922 3584 2338 3584 
Q 2397 3584 2469 3576 
Q 2541 3569 2628 3553 
L 2631 2963 
z
" transform="scale(0.015625)"/>
       <path id="DejaVuSans-6e" d="M 3513 2113 
L 3513 0 
L 2938 0 
L 2938 2094 
Q 2938 2591 2744 2837 
Q 2550 3084 2163 3084 
Q 1697 3084 1428 2787 
Q 1159 2491 1159 1978 
L 1159 0 
L 581 0 
L 581 3500 
L 1159 3500 
L 1159 2956 
Q 1366 3272 1645 3428 
Q 1925 3584 2291 3584 
Q 2894 3584 3203 3211 
Q 3513 2838 3513 2113 
z
" transform="scale(0.015625)"/>
       <path id="DejaVuSans-64" d="M 2906 2969 
L 2906 4863 
L 3481 4863 
L 3481 0 
L 2906 0 
L 2906 525 
Q 2725 213 2448 61 
Q 2172 -91 1784 -91 
Q 1150 -91 751 415 
Q 353 922 353 1747 
Q 353 2572 751 3078 
Q 1150 3584 1784 3584 
Q 2172 3584 2448 3432 
Q 2725 3281 2906 2969 
z
M 947 1747 
Q 947 1113 1208 752 
Q 1469 391 1925 391 
Q 2381 391 2643 752 
Q 2906 1113 2906 1747 
Q 2906 2381 2643 2742 
Q 2381 3103 1925 3103 
Q 1469 3103 1208 2742 
Q 947 2381 947 1747 
z
" transform="scale(0.015625)"/>
       <path id="DejaVuSans-20" transform="scale(0.015625)"/>
       <path id="DejaVuSans-45" d="M 628 4666 
L 3578 4666 
L 3578 4134 
L 1259 4134 
L 1259 2753 
L 3481 2753 
L 3481 2222 
L 1259 2222 
L 1259 531 
L 3634 531 
L 3634 0 
L 628 0 
L 628 4666 
z
" transform="scale(0.015625)"/>
       <path id="DejaVuSans-70" d="M 1159 525 
L 1159 -1331 
L 581 -1331 
L 581 3500 
L 1159 3500 
L 1159 2969 
Q 1341 3281 1617 3432 
Q 1894 3584 2278 3584 
Q 2916 3584 3314 3078 
Q 3713 2572 3713 1747 
Q 3713 922 3314 415 
Q 2916 -91 2278 -91 
Q 1894 -91 1617 61 
Q 1341 213 1159 525 
z
M 3116 1747 
Q 3116 2381 2855 2742 
Q 2594 3103 2138 3103 
Q 1681 3103 1420 2742 
Q 1159 2381 1159 1747 
Q 1159 1113 1420 752 
Q 1681 391 2138 391 
Q 2594 391 2855 752 
Q 3116 1113 3116 1747 
z
" transform="scale(0.015625)"/>
       <path id="DejaVuSans-69" d="M 603 3500 
L 1178 3500 
L 1178 0 
L 603 0 
L 603 3500 
z
M 603 4863 
L 1178 4863 
L 1178 4134 
L 603 4134 
L 603 4863 
z
" transform="scale(0.015625)"/>
       <path id="DejaVuSans-73" d="M 2834 3397 
L 2834 2853 
Q 2591 2978 2328 3040 
Q 2066 3103 1784 3103 
Q 1356 3103 1142 2972 
Q 928 2841 928 2578 
Q 928 2378 1081 2264 
Q 1234 2150 1697 2047 
L 1894 2003 
Q 2506 1872 2764 1633 
Q 3022 1394 3022 966 
Q 3022 478 2636 193 
Q 2250 -91 1575 -91 
Q 1294 -91 989 -36 
Q 684 19 347 128 
L 347 722 
Q 666 556 975 473 
Q 1284 391 1588 391 
Q 1994 391 2212 530 
Q 2431 669 2431 922 
Q 2431 1156 2273 1281 
Q 2116 1406 1581 1522 
L 1381 1569 
Q 847 1681 609 1914 
Q 372 2147 372 2553 
Q 372 3047 722 3315 
Q 1072 3584 1716 3584 
Q 2034 3584 2315 3537 
Q 2597 3491 2834 3397 
z
" transform="scale(0.015625)"/>
       <path id="DejaVuSans-6f" d="M 1959 3097 
Q 1497 3097 1228 2736 
Q 959 2375 959 1747 
Q 959 1119 1226 758 
Q 1494 397 1959 397 
Q 2419 397 2687 759 
Q 2956 1122 2956 1747 
Q 2956 2369 2687 2733 
Q 2419 3097 1959 3097 
z
M 1959 3584 
Q 2709 3584 3137 3096 
Q 3566 2609 3566 1747 
Q 3566 888 3137 398 
Q 2709 -91 1959 -91 
Q 1206 -91 779 398 
Q 353 888 353 1747 
Q 353 2609 779 3096 
Q 1206 3584 1959 3584 
z
" transform="scale(0.015625)"/>
      </defs>
      <use xlink:href="#DejaVuSans-4c"/>
      <use xlink:href="#DejaVuSans-65" x="53.962891"/>
      <use xlink:href="#DejaVuSans-61" x="115.486328"/>
      <use xlink:href="#DejaVuSans-72" x="176.765625"/>
      <use xlink:href="#DejaVuSans-6e" x="216.128906"/>
      <use xlink:href="#DejaVuSans-65" x="279.507812"/>
      <use xlink:href="#DejaVuSans-64" x="341.03125"/>
      <use xlink:href="#DejaVuSans-20" x="404.507812"/>
      <use xlink:href="#DejaVuSans-45" x="436.294922"/>
      <use xlink:href="#DejaVuSans-70" x="499.478516"/>
      <use xlink:href="#DejaVuSans-69" x="562.955078"/>
      <use xlink:href="#DejaVuSans-73" x="590.738281"/>
      <use xlink:href="#DejaVuSans-6f" x="642.837891"/>
      <use xlink:href="#DejaVuSans-64" x="704.019531"/>
      <use xlink:href="#DejaVuSans-65" x="767.496094"/>
      <use xlink:href="#DejaVuSans-73" x="829.019531"/>
     </g>
    </g>
   </g>
   <g id="matplotlib.axis_2">
    <g id="ytick_1">
     <g id="line2d_10">
      <defs>
       <path id="mf3495f6f6b" d="M 0 0 
L -3.5 0 
" style="stroke: #000000; stroke-width: 0.8"/>
      </defs>
      <g>
       <use xlink:href="#mf3495f6f6b" x="57.6" y="270.760232" style="stroke: #000000; stroke-width: 0.8"/>
      </g>
     </g>
     <g id="text_11">
      <!-- −400 -->
      <g transform="translate(23.132812 274.55945)scale(0.1 -0.1)">
       <defs>
        <path id="DejaVuSans-2212" d="M 678 2272 
L 4684 2272 
L 4684 1741 
L 678 1741 
L 678 2272 
z
" transform="scale(0.015625)"/>
        <path id="DejaVuSans-34" d="M 2419 4116 
L 825 1625 
L 2419 1625 
L 2419 4116 
z
M 2253 4666 
L 3047 4666 
L 3047 1625 
L 3713 1625 
L 3713 1100 
L 3047 1100 
L 3047 0 
L 2419 0 
L 2419 1100 
L 313 1100 
L 313 1709 
L 2253 4666 
z
" transform="scale(0.015625)"/>
       </defs>
       <use xlink:href="#DejaVuSans-2212"/>
       <use xlink:href="#DejaVuSans-34" x="83.789062"/>
       <use xlink:href="#DejaVuSans-30" x="147.412109"/>
       <use xlink:href="#DejaVuSans-30" x="211.035156"/>
      </g>
     </g>
    </g>
    <g id="ytick_2">
     <g id="line2d_11">
      <g>
       <use xlink:href="#mf3495f6f6b" x="57.6" y="211.884593" style="stroke: #000000; stroke-width: 0.8"/>
      </g>
     </g>
     <g id="text_12">
      <!-- −300 -->
      <g transform="translate(23.132812 215.683812)scale(0.1 -0.1)">
       <defs>
        <path id="DejaVuSans-33" d="M 2597 2516 
Q 3050 2419 3304 2112 
Q 3559 1806 3559 1356 
Q 3559 666 3084 287 
Q 2609 -91 1734 -91 
Q 1441 -91 1130 -33 
Q 819 25 488 141 
L 488 750 
Q 750 597 1062 519 
Q 1375 441 1716 441 
Q 2309 441 2620 675 
Q 2931 909 2931 1356 
Q 2931 1769 2642 2001 
Q 2353 2234 1838 2234 
L 1294 2234 
L 1294 2753 
L 1863 2753 
Q 2328 2753 2575 2939 
Q 2822 3125 2822 3475 
Q 2822 3834 2567 4026 
Q 2313 4219 1838 4219 
Q 1578 4219 1281 4162 
Q 984 4106 628 3988 
L 628 4550 
Q 988 4650 1302 4700 
Q 1616 4750 1894 4750 
Q 2613 4750 3031 4423 
Q 3450 4097 3450 3541 
Q 3450 3153 3228 2886 
Q 3006 2619 2597 2516 
z
" transform="scale(0.015625)"/>
       </defs>
       <use xlink:href="#DejaVuSans-2212"/>
       <use xlink:href="#DejaVuSans-33" x="83.789062"/>
       <use xlink:href="#DejaVuSans-30" x="147.412109"/>
       <use xlink:href="#DejaVuSans-30" x="211.035156"/>
      </g>
     </g>
    </g>
    <g id="ytick_3">
     <g id="line2d_12">
      <g>
       <use xlink:href="#mf3495f6f6b" x="57.6" y="153.008954" style="stroke: #000000; stroke-width: 0.8"/>
      </g>
     </g>
     <g id="text_13">
      <!-- −200 -->
      <g transform="translate(23.132812 156.808173)scale(0.1 -0.1)">
       <use xlink:href="#DejaVuSans-2212"/>
       <use xlink:href="#DejaVuSans-32" x="83.789062"/>
       <use xlink:href="#DejaVuSans-30" x="147.412109"/>
       <use xlink:href="#DejaVuSans-30" x="211.035156"/>
      </g>
     </g>
    </g>
    <g id="ytick_4">
     <g id="line2d_13">
      <g>
       <use xlink:href="#mf3495f6f6b" x="57.6" y="94.133315" style="stroke: #000000; stroke-width: 0.8"/>
      </g>
     </g>
     <g id="text_14">
      <!-- −100 -->
      <g transform="translate(23.132812 97.932534)scale(0.1 -0.1)">
       <use xlink:href="#DejaVuSans-2212"/>
       <use xlink:href="#DejaVuSans-31" x="83.789062"/>
       <use xlink:href="#DejaVuSans-30" x="147.412109"/>
       <use xlink:href="#DejaVuSans-30" x="211.035156"/>
      </g>
     </g>
    </g>
    <g id="text_15">
     <!-- Reward Density -->
     <g transform="translate(17.053125 213.74675)rotate(-90)scale(0.1 -0.1)">
      <defs>
       <path id="DejaVuSans-52" d="M 2841 2188 
Q 3044 2119 3236 1894 
Q 3428 1669 3622 1275 
L 4263 0 
L 3584 0 
L 2988 1197 
Q 2756 1666 2539 1819 
Q 2322 1972 1947 1972 
L 1259 1972 
L 1259 0 
L 628 0 
L 628 4666 
L 2053 4666 
Q 2853 4666 3247 4331 
Q 3641 3997 3641 3322 
Q 3641 2881 3436 2590 
Q 3231 2300 2841 2188 
z
M 1259 4147 
L 1259 2491 
L 2053 2491 
Q 2509 2491 2742 2702 
Q 2975 2913 2975 3322 
Q 2975 3731 2742 3939 
Q 2509 4147 2053 4147 
L 1259 4147 
z
" transform="scale(0.015625)"/>
       <path id="DejaVuSans-77" d="M 269 3500 
L 844 3500 
L 1563 769 
L 2278 3500 
L 2956 3500 
L 3675 769 
L 4391 3500 
L 4966 3500 
L 4050 0 
L 3372 0 
L 2619 2869 
L 1863 0 
L 1184 0 
L 269 3500 
z
" transform="scale(0.015625)"/>
       <path id="DejaVuSans-44" d="M 1259 4147 
L 1259 519 
L 2022 519 
Q 2988 519 3436 956 
Q 3884 1394 3884 2338 
Q 3884 3275 3436 3711 
Q 2988 4147 2022 4147 
L 1259 4147 
z
M 628 4666 
L 1925 4666 
Q 3281 4666 3915 4102 
Q 4550 3538 4550 2338 
Q 4550 1131 3912 565 
Q 3275 0 1925 0 
L 628 0 
L 628 4666 
z
" transform="scale(0.015625)"/>
       <path id="DejaVuSans-74" d="M 1172 4494 
L 1172 3500 
L 2356 3500 
L 2356 3053 
L 1172 3053 
L 1172 1153 
Q 1172 725 1289 603 
Q 1406 481 1766 481 
L 2356 481 
L 2356 0 
L 1766 0 
Q 1100 0 847 248 
Q 594 497 594 1153 
L 594 3053 
L 172 3053 
L 172 3500 
L 594 3500 
L 594 4494 
L 1172 4494 
z
" transform="scale(0.015625)"/>
       <path id="DejaVuSans-79" d="M 2059 -325 
Q 1816 -950 1584 -1140 
Q 1353 -1331 966 -1331 
L 506 -1331 
L 506 -850 
L 844 -850 
Q 1081 -850 1212 -737 
Q 1344 -625 1503 -206 
L 1606 56 
L 191 3500 
L 800 3500 
L 1894 763 
L 2988 3500 
L 3597 3500 
L 2059 -325 
z
" transform="scale(0.015625)"/>
      </defs>
      <use xlink:href="#DejaVuSans-52"/>
      <use xlink:href="#DejaVuSans-65" x="64.982422"/>
      <use xlink:href="#DejaVuSans-77" x="126.505859"/>
      <use xlink:href="#DejaVuSans-61" x="208.292969"/>
      <use xlink:href="#DejaVuSans-72" x="269.572266"/>
      <use xlink:href="#DejaVuSans-64" x="308.935547"/>
      <use xlink:href="#DejaVuSans-20" x="372.412109"/>
      <use xlink:href="#DejaVuSans-44" x="404.199219"/>
      <use xlink:href="#DejaVuSans-65" x="481.201172"/>
      <use xlink:href="#DejaVuSans-6e" x="542.724609"/>
      <use xlink:href="#DejaVuSans-73" x="606.103516"/>
      <use xlink:href="#DejaVuSans-69" x="658.203125"/>
      <use xlink:href="#DejaVuSans-74" x="685.986328"/>
      <use xlink:href="#DejaVuSans-79" x="725.195312"/>
     </g>
    </g>
   </g>
   <g id="LineCollection_1">
    <path d="M 92.572407 81.751297 
L 130.051767 81.751297 
" clip-path="url(#p95b5417491)" style="fill: none; stroke: #1f77b4; stroke-width: 1.5"/>
    <path d="M 175.859874 83.794988 
L 213.339234 83.794988 
" clip-path="url(#p95b5417491)" style="fill: none; stroke: #1f77b4; stroke-width: 1.5"/>
    <path d="M 259.147341 83.293839 
L 296.626701 83.293839 
" clip-path="url(#p95b5417491)" style="fill: none; stroke: #1f77b4; stroke-width: 1.5"/>
    <path d="M 342.268233 86.493141 
L 379.747593 86.493141 
" clip-path="url(#p95b5417491)" style="fill: none; stroke: #1f77b4; stroke-width: 1.5"/>
   </g>
   <g id="LineCollection_2">
    <path d="M 92.572407 54.627761 
L 130.051767 54.627761 
" clip-path="url(#p95b5417491)" style="fill: none; stroke: #1f77b4; stroke-width: 1.5"/>
    <path d="M 175.859874 54.804388 
L 213.339234 54.804388 
" clip-path="url(#p95b5417491)" style="fill: none; stroke: #1f77b4; stroke-width: 1.5"/>
    <path d="M 259.147341 53.568 
L 296.626701 53.568 
" clip-path="url(#p95b5417491)" style="fill: none; stroke: #1f77b4; stroke-width: 1.5"/>
    <path d="M 342.268233 54.627761 
L 379.747593 54.627761 
" clip-path="url(#p95b5417491)" style="fill: none; stroke: #1f77b4; stroke-width: 1.5"/>
   </g>
   <g id="LineCollection_3">
    <path d="M 92.572407 274.410521 
L 130.051767 274.410521 
" clip-path="url(#p95b5417491)" style="fill: none; stroke: #1f77b4; stroke-width: 1.5"/>
    <path d="M 175.859874 251.272395 
L 213.339234 251.272395 
" clip-path="url(#p95b5417491)" style="fill: none; stroke: #1f77b4; stroke-width: 1.5"/>
    <path d="M 259.147341 295.488 
L 296.626701 295.488 
" clip-path="url(#p95b5417491)" style="fill: none; stroke: #1f77b4; stroke-width: 1.5"/>
    <path d="M 342.268233 238.79076 
L 379.747593 238.79076 
" clip-path="url(#p95b5417491)" style="fill: none; stroke: #1f77b4; stroke-width: 1.5"/>
   </g>
   <g id="LineCollection_4">
    <path d="M 111.312087 274.410521 
L 111.312087 54.627761 
" clip-path="url(#p95b5417491)" style="fill: none; stroke: #1f77b4; stroke-width: 1.5"/>
    <path d="M 194.599554 251.272395 
L 194.599554 54.804388 
" clip-path="url(#p95b5417491)" style="fill: none; stroke: #1f77b4; stroke-width: 1.5"/>
    <path d="M 277.887021 295.488 
L 277.887021 53.568 
" clip-path="url(#p95b5417491)" style="fill: none; stroke: #1f77b4; stroke-width: 1.5"/>
    <path d="M 361.007913 238.79076 
L 361.007913 54.627761 
" clip-path="url(#p95b5417491)" style="fill: none; stroke: #1f77b4; stroke-width: 1.5"/>
   </g>
   <g id="line2d_14">
    <path d="M 111.312087 81.751297 
L 194.599554 83.794988 
L 277.887021 83.293839 
L 361.007913 86.493141 
" clip-path="url(#p95b5417491)" style="fill: none; stroke: #4682b4; stroke-width: 1.5; stroke-linecap: square"/>
   </g>
   <g id="patch_3">
    <path d="M 57.6 307.584 
L 57.6 41.472 
" style="fill: none; stroke: #000000; stroke-width: 0.8; stroke-linejoin: miter; stroke-linecap: square"/>
   </g>
   <g id="patch_4">
    <path d="M 414.72 307.584 
L 414.72 41.472 
" style="fill: none; stroke: #000000; stroke-width: 0.8; stroke-linejoin: miter; stroke-linecap: square"/>
   </g>
   <g id="patch_5">
    <path d="M 57.6 307.584 
L 414.72 307.584 
" style="fill: none; stroke: #000000; stroke-width: 0.8; stroke-linejoin: miter; stroke-linecap: square"/>
   </g>
   <g id="patch_6">
    <path d="M 57.6 41.472 
L 414.72 41.472 
" style="fill: none; stroke: #000000; stroke-width: 0.8; stroke-linejoin: miter; stroke-linecap: square"/>
   </g>
   <g id="text_16">
    <!-- Violinplot for progress of profits/storage_cost -->
    <g transform="translate(101.32875 35.472)scale(0.12 -0.12)">
     <defs>
      <path id="DejaVuSans-56" d="M 1831 0 
L 50 4666 
L 709 4666 
L 2188 738 
L 3669 4666 
L 4325 4666 
L 2547 0 
L 1831 0 
z
" transform="scale(0.015625)"/>
      <path id="DejaVuSans-6c" d="M 603 4863 
L 1178 4863 
L 1178 0 
L 603 0 
L 603 4863 
z
" transform="scale(0.015625)"/>
      <path id="DejaVuSans-66" d="M 2375 4863 
L 2375 4384 
L 1825 4384 
Q 1516 4384 1395 4259 
Q 1275 4134 1275 3809 
L 1275 3500 
L 2222 3500 
L 2222 3053 
L 1275 3053 
L 1275 0 
L 697 0 
L 697 3053 
L 147 3053 
L 147 3500 
L 697 3500 
L 697 3744 
Q 697 4328 969 4595 
Q 1241 4863 1831 4863 
L 2375 4863 
z
" transform="scale(0.015625)"/>
      <path id="DejaVuSans-67" d="M 2906 1791 
Q 2906 2416 2648 2759 
Q 2391 3103 1925 3103 
Q 1463 3103 1205 2759 
Q 947 2416 947 1791 
Q 947 1169 1205 825 
Q 1463 481 1925 481 
Q 2391 481 2648 825 
Q 2906 1169 2906 1791 
z
M 3481 434 
Q 3481 -459 3084 -895 
Q 2688 -1331 1869 -1331 
Q 1566 -1331 1297 -1286 
Q 1028 -1241 775 -1147 
L 775 -588 
Q 1028 -725 1275 -790 
Q 1522 -856 1778 -856 
Q 2344 -856 2625 -561 
Q 2906 -266 2906 331 
L 2906 616 
Q 2728 306 2450 153 
Q 2172 0 1784 0 
Q 1141 0 747 490 
Q 353 981 353 1791 
Q 353 2603 747 3093 
Q 1141 3584 1784 3584 
Q 2172 3584 2450 3431 
Q 2728 3278 2906 2969 
L 2906 3500 
L 3481 3500 
L 3481 434 
z
" transform="scale(0.015625)"/>
      <path id="DejaVuSans-2f" d="M 1625 4666 
L 2156 4666 
L 531 -594 
L 0 -594 
L 1625 4666 
z
" transform="scale(0.015625)"/>
      <path id="DejaVuSans-5f" d="M 3263 -1063 
L 3263 -1509 
L -63 -1509 
L -63 -1063 
L 3263 -1063 
z
" transform="scale(0.015625)"/>
      <path id="DejaVuSans-63" d="M 3122 3366 
L 3122 2828 
Q 2878 2963 2633 3030 
Q 2388 3097 2138 3097 
Q 1578 3097 1268 2742 
Q 959 2388 959 1747 
Q 959 1106 1268 751 
Q 1578 397 2138 397 
Q 2388 397 2633 464 
Q 2878 531 3122 666 
L 3122 134 
Q 2881 22 2623 -34 
Q 2366 -91 2075 -91 
Q 1284 -91 818 406 
Q 353 903 353 1747 
Q 353 2603 823 3093 
Q 1294 3584 2113 3584 
Q 2378 3584 2631 3529 
Q 2884 3475 3122 3366 
z
" transform="scale(0.015625)"/>
     </defs>
     <use xlink:href="#DejaVuSans-56"/>
     <use xlink:href="#DejaVuSans-69" x="66.158203"/>
     <use xlink:href="#DejaVuSans-6f" x="93.941406"/>
     <use xlink:href="#DejaVuSans-6c" x="155.123047"/>
     <use xlink:href="#DejaVuSans-69" x="182.90625"/>
     <use xlink:href="#DejaVuSans-6e" x="210.689453"/>
     <use xlink:href="#DejaVuSans-70" x="274.068359"/>
     <use xlink:href="#DejaVuSans-6c" x="337.544922"/>
     <use xlink:href="#DejaVuSans-6f" x="365.328125"/>
     <use xlink:href="#DejaVuSans-74" x="426.509766"/>
     <use xlink:href="#DejaVuSans-20" x="465.71875"/>
     <use xlink:href="#DejaVuSans-66" x="497.505859"/>
     <use xlink:href="#DejaVuSans-6f" x="532.710938"/>
     <use xlink:href="#DejaVuSans-72" x="593.892578"/>
     <use xlink:href="#DejaVuSans-20" x="635.005859"/>
     <use xlink:href="#DejaVuSans-70" x="666.792969"/>
     <use xlink:href="#DejaVuSans-72" x="730.269531"/>
     <use xlink:href="#DejaVuSans-6f" x="769.132812"/>
     <use xlink:href="#DejaVuSans-67" x="830.314453"/>
     <use xlink:href="#DejaVuSans-72" x="893.791016"/>
     <use xlink:href="#DejaVuSans-65" x="932.654297"/>
     <use xlink:href="#DejaVuSans-73" x="994.177734"/>
     <use xlink:href="#DejaVuSans-73" x="1046.277344"/>
     <use xlink:href="#DejaVuSans-20" x="1098.376953"/>
     <use xlink:href="#DejaVuSans-6f" x="1130.164062"/>
     <use xlink:href="#DejaVuSans-66" x="1191.345703"/>
     <use xlink:href="#DejaVuSans-20" x="1226.550781"/>
     <use xlink:href="#DejaVuSans-70" x="1258.337891"/>
     <use xlink:href="#DejaVuSans-72" x="1321.814453"/>
     <use xlink:href="#DejaVuSans-6f" x="1360.677734"/>
     <use xlink:href="#DejaVuSans-66" x="1421.859375"/>
     <use xlink:href="#DejaVuSans-69" x="1457.064453"/>
     <use xlink:href="#DejaVuSans-74" x="1484.847656"/>
     <use xlink:href="#DejaVuSans-73" x="1524.056641"/>
     <use xlink:href="#DejaVuSans-2f" x="1576.15625"/>
     <use xlink:href="#DejaVuSans-73" x="1609.847656"/>
     <use xlink:href="#DejaVuSans-74" x="1661.947266"/>
     <use xlink:href="#DejaVuSans-6f" x="1701.15625"/>
     <use xlink:href="#DejaVuSans-72" x="1762.337891"/>
     <use xlink:href="#DejaVuSans-61" x="1803.451172"/>
     <use xlink:href="#DejaVuSans-67" x="1864.730469"/>
     <use xlink:href="#DejaVuSans-65" x="1928.207031"/>
     <use xlink:href="#DejaVuSans-5f" x="1989.730469"/>
     <use xlink:href="#DejaVuSans-63" x="2039.730469"/>
     <use xlink:href="#DejaVuSans-6f" x="2094.710938"/>
     <use xlink:href="#DejaVuSans-73" x="2155.892578"/>
     <use xlink:href="#DejaVuSans-74" x="2207.992188"/>
    </g>
   </g>
   <g id="legend_1">
    <g id="patch_7">
     <path d="M 284.430938 64.150125 
L 407.72 64.150125 
Q 409.72 64.150125 409.72 62.150125 
L 409.72 48.472 
Q 409.72 46.472 407.72 46.472 
L 284.430938 46.472 
Q 282.430938 46.472 282.430938 48.472 
L 282.430938 62.150125 
Q 282.430938 64.150125 284.430938 64.150125 
z
" style="fill: #ffffff; opacity: 0.8; stroke: #cccccc; stroke-linejoin: miter"/>
    </g>
    <g id="line2d_15">
     <path d="M 286.430938 54.570438 
L 296.430938 54.570438 
L 306.430938 54.570438 
" style="fill: none; stroke: #4682b4; stroke-width: 1.5; stroke-linecap: square"/>
    </g>
    <g id="text_17">
     <!-- Storage-Minimizer -->
     <g transform="translate(314.430938 58.070438)scale(0.1 -0.1)">
      <defs>
       <path id="DejaVuSans-53" d="M 3425 4513 
L 3425 3897 
Q 3066 4069 2747 4153 
Q 2428 4238 2131 4238 
Q 1616 4238 1336 4038 
Q 1056 3838 1056 3469 
Q 1056 3159 1242 3001 
Q 1428 2844 1947 2747 
L 2328 2669 
Q 3034 2534 3370 2195 
Q 3706 1856 3706 1288 
Q 3706 609 3251 259 
Q 2797 -91 1919 -91 
Q 1588 -91 1214 -16 
Q 841 59 441 206 
L 441 856 
Q 825 641 1194 531 
Q 1563 422 1919 422 
Q 2459 422 2753 634 
Q 3047 847 3047 1241 
Q 3047 1584 2836 1778 
Q 2625 1972 2144 2069 
L 1759 2144 
Q 1053 2284 737 2584 
Q 422 2884 422 3419 
Q 422 4038 858 4394 
Q 1294 4750 2059 4750 
Q 2388 4750 2728 4690 
Q 3069 4631 3425 4513 
z
" transform="scale(0.015625)"/>
       <path id="DejaVuSans-2d" d="M 313 2009 
L 1997 2009 
L 1997 1497 
L 313 1497 
L 313 2009 
z
" transform="scale(0.015625)"/>
       <path id="DejaVuSans-4d" d="M 628 4666 
L 1569 4666 
L 2759 1491 
L 3956 4666 
L 4897 4666 
L 4897 0 
L 4281 0 
L 4281 4097 
L 3078 897 
L 2444 897 
L 1241 4097 
L 1241 0 
L 628 0 
L 628 4666 
z
" transform="scale(0.015625)"/>
       <path id="DejaVuSans-6d" d="M 3328 2828 
Q 3544 3216 3844 3400 
Q 4144 3584 4550 3584 
Q 5097 3584 5394 3201 
Q 5691 2819 5691 2113 
L 5691 0 
L 5113 0 
L 5113 2094 
Q 5113 2597 4934 2840 
Q 4756 3084 4391 3084 
Q 3944 3084 3684 2787 
Q 3425 2491 3425 1978 
L 3425 0 
L 2847 0 
L 2847 2094 
Q 2847 2600 2669 2842 
Q 2491 3084 2119 3084 
Q 1678 3084 1418 2786 
Q 1159 2488 1159 1978 
L 1159 0 
L 581 0 
L 581 3500 
L 1159 3500 
L 1159 2956 
Q 1356 3278 1631 3431 
Q 1906 3584 2284 3584 
Q 2666 3584 2933 3390 
Q 3200 3197 3328 2828 
z
" transform="scale(0.015625)"/>
       <path id="DejaVuSans-7a" d="M 353 3500 
L 3084 3500 
L 3084 2975 
L 922 459 
L 3084 459 
L 3084 0 
L 275 0 
L 275 525 
L 2438 3041 
L 353 3041 
L 353 3500 
z
" transform="scale(0.015625)"/>
      </defs>
      <use xlink:href="#DejaVuSans-53"/>
      <use xlink:href="#DejaVuSans-74" x="63.476562"/>
      <use xlink:href="#DejaVuSans-6f" x="102.685547"/>
      <use xlink:href="#DejaVuSans-72" x="163.867188"/>
      <use xlink:href="#DejaVuSans-61" x="204.980469"/>
      <use xlink:href="#DejaVuSans-67" x="266.259766"/>
      <use xlink:href="#DejaVuSans-65" x="329.736328"/>
      <use xlink:href="#DejaVuSans-2d" x="391.259766"/>
      <use xlink:href="#DejaVuSans-4d" x="427.34375"/>
      <use xlink:href="#DejaVuSans-69" x="513.623047"/>
      <use xlink:href="#DejaVuSans-6e" x="541.40625"/>
      <use xlink:href="#DejaVuSans-69" x="604.785156"/>
      <use xlink:href="#DejaVuSans-6d" x="632.568359"/>
      <use xlink:href="#DejaVuSans-69" x="729.980469"/>
      <use xlink:href="#DejaVuSans-7a" x="757.763672"/>
      <use xlink:href="#DejaVuSans-65" x="810.253906"/>
      <use xlink:href="#DejaVuSans-72" x="871.777344"/>
     </g>
    </g>
   </g>
  </g>
 </g>
 <defs>
  <clipPath id="p95b5417491">
   <rect x="57.6" y="41.472" width="357.12" height="266.112"/>
  </clipPath>
 </defs>
</svg>
