<?xml version="1.0" encoding="utf-8" standalone="no"?>
<!DOCTYPE svg PUBLIC "-//W3C//DTD SVG 1.1//EN"
  "http://www.w3.org/Graphics/SVG/1.1/DTD/svg11.dtd">
<svg xmlns:xlink="http://www.w3.org/1999/xlink" width="460.8pt" height="345.6pt" viewBox="0 0 460.8 345.6" xmlns="http://www.w3.org/2000/svg" version="1.1">
 <metadata>
  <rdf:RDF xmlns:dc="http://purl.org/dc/elements/1.1/" xmlns:cc="http://creativecommons.org/ns#" xmlns:rdf="http://www.w3.org/1999/02/22-rdf-syntax-ns#">
   <cc:Work>
    <dc:type rdf:resource="http://purl.org/dc/dcmitype/StillImage"/>
    <dc:date>2022-06-20T18:30:19.554823</dc:date>
    <dc:format>image/svg+xml</dc:format>
    <dc:creator>
     <cc:Agent>
      <dc:title>Matplotlib v3.5.2, https://matplotlib.org/</dc:title>
     </cc:Agent>
    </dc:creator>
   </cc:Work>
  </rdf:RDF>
 </metadata>
 <defs>
  <style type="text/css">*{stroke-linejoin: round; stroke-linecap: butt}</style>
 </defs>
 <g id="figure_1">
  <g id="patch_1">
   <path d="M 0 345.6 
L 460.8 345.6 
L 460.8 0 
L 0 0 
z
" style="fill: #ffffff"/>
  </g>
  <g id="axes_1">
   <g id="patch_2">
    <path d="M 57.6 307.584 
L 414.72 307.584 
L 414.72 41.472 
L 57.6 41.472 
z
" style="fill: #ffffff"/>
   </g>
   <g id="PolyCollection_1">
    <path d="M 108.962264 240.289605 
L 107.051516 240.289605 
L 106.876349 238.403529 
L 106.687885 236.517452 
L 106.486241 234.631375 
L 106.271278 232.745298 
L 106.042669 230.859221 
L 105.800007 228.973144 
L 105.543017 227.087068 
L 105.271913 225.200991 
L 104.987896 223.314914 
L 104.693706 221.428837 
L 104.394074 219.54276 
L 104.095876 217.656683 
L 103.807828 215.770607 
L 103.539614 213.88453 
L 103.300423 211.998453 
L 103.097023 210.112376 
L 102.931618 208.226299 
L 102.799935 206.340223 
L 102.690068 204.454146 
L 102.58257 202.568069 
L 102.452092 200.681992 
L 102.270461 198.795915 
L 102.010669 196.909838 
L 101.650923 195.023762 
L 101.177801 193.137685 
L 100.587798 191.251608 
L 99.887026 189.365531 
L 99.089367 187.479454 
L 98.213806 185.593378 
L 97.281797 183.707301 
L 96.315305 181.821224 
L 95.335689 179.935147 
L 94.363155 178.04907 
L 93.416175 176.162993 
L 92.510344 174.276917 
L 91.656494 172.39084 
L 90.858404 170.504763 
L 90.110883 168.618686 
L 89.399138 166.732609 
L 88.700061 164.846532 
L 87.985518 162.960456 
L 87.227015 161.074379 
L 86.400659 159.188302 
L 85.491198 157.302225 
L 84.494262 155.416148 
L 83.416535 153.530072 
L 82.274261 151.643995 
L 81.090901 149.757918 
L 79.894839 147.871841 
L 78.717697 145.985764 
L 77.593321 144.099687 
L 76.557047 142.213611 
L 75.644594 140.327534 
L 74.890137 138.441457 
L 74.323497 136.55538 
L 73.966971 134.669303 
L 73.832727 132.783227 
L 73.921746 130.89715 
L 74.224939 129.011073 
L 74.726336 127.124996 
L 75.407504 125.238919 
L 76.251808 123.352842 
L 77.247159 121.466766 
L 78.386402 119.580689 
L 79.66538 117.694612 
L 81.079556 115.808535 
L 82.620523 113.922458 
L 84.273638 112.036381 
L 86.017463 110.150305 
L 87.824943 108.264228 
L 89.665665 106.378151 
L 91.508319 104.492074 
L 93.322646 102.605997 
L 95.080588 100.719921 
L 96.756743 98.833844 
L 98.328523 96.947767 
L 99.776409 95.06169 
L 101.084537 93.175613 
L 102.241578 91.289536 
L 103.24169 89.40346 
L 104.085195 87.517383 
L 104.778706 85.631306 
L 105.334581 83.745229 
L 105.769748 81.859152 
L 106.104094 79.973076 
L 106.358659 78.086999 
L 106.553865 76.200922 
L 106.707986 74.314845 
L 106.83598 72.428768 
L 106.948811 70.542691 
L 107.053323 68.656615 
L 107.152675 66.770538 
L 107.247254 64.884461 
L 107.335864 62.998384 
L 107.416934 61.112307 
L 107.48946 59.22623 
L 107.553495 57.340154 
L 107.610132 55.454077 
L 107.661094 53.568 
L 108.352686 53.568 
L 108.352686 53.568 
L 108.403648 55.454077 
L 108.460285 57.340154 
L 108.52432 59.22623 
L 108.596846 61.112307 
L 108.677916 62.998384 
L 108.766526 64.884461 
L 108.861104 66.770538 
L 108.960457 68.656615 
L 109.064969 70.542691 
L 109.1778 72.428768 
L 109.305794 74.314845 
L 109.459915 76.200922 
L 109.655121 78.086999 
L 109.909686 79.973076 
L 110.244032 81.859152 
L 110.679199 83.745229 
L 111.235074 85.631306 
L 111.928585 87.517383 
L 112.77209 89.40346 
L 113.772202 91.289536 
L 114.929243 93.175613 
L 116.237371 95.06169 
L 117.685257 96.947767 
L 119.257037 98.833844 
L 120.933192 100.719921 
L 122.691134 102.605997 
L 124.505461 104.492074 
L 126.348115 106.378151 
L 128.188837 108.264228 
L 129.996317 110.150305 
L 131.740142 112.036381 
L 133.393257 113.922458 
L 134.934224 115.808535 
L 136.3484 117.694612 
L 137.627378 119.580689 
L 138.766621 121.466766 
L 139.761972 123.352842 
L 140.606276 125.238919 
L 141.287444 127.124996 
L 141.788841 129.011073 
L 142.092034 130.89715 
L 142.181053 132.783227 
L 142.046808 134.669303 
L 141.690283 136.55538 
L 141.123643 138.441457 
L 140.369186 140.327534 
L 139.456733 142.213611 
L 138.420459 144.099687 
L 137.296083 145.985764 
L 136.118941 147.871841 
L 134.922879 149.757918 
L 133.739519 151.643995 
L 132.597244 153.530072 
L 131.519517 155.416148 
L 130.522581 157.302225 
L 129.613121 159.188302 
L 128.786765 161.074379 
L 128.028262 162.960456 
L 127.313719 164.846532 
L 126.614642 166.732609 
L 125.902896 168.618686 
L 125.155376 170.504763 
L 124.357285 172.39084 
L 123.503436 174.276917 
L 122.597605 176.162993 
L 121.650625 178.04907 
L 120.678091 179.935147 
L 119.698475 181.821224 
L 118.731983 183.707301 
L 117.799974 185.593378 
L 116.924413 187.479454 
L 116.126754 189.365531 
L 115.425982 191.251608 
L 114.835979 193.137685 
L 114.362857 195.023762 
L 114.003111 196.909838 
L 113.743319 198.795915 
L 113.561688 200.681992 
L 113.43121 202.568069 
L 113.323712 204.454146 
L 113.213845 206.340223 
L 113.082162 208.226299 
L 112.916757 210.112376 
L 112.713357 211.998453 
L 112.474166 213.88453 
L 112.205952 215.770607 
L 111.917904 217.656683 
L 111.619706 219.54276 
L 111.320074 221.428837 
L 111.025884 223.314914 
L 110.741866 225.200991 
L 110.470763 227.087068 
L 110.213773 228.973144 
L 109.971111 230.859221 
L 109.742501 232.745298 
L 109.527539 234.631375 
L 109.325895 236.517452 
L 109.137431 238.403529 
L 108.962264 240.289605 
z
" clip-path="url(#pbe25fb3034)" style="fill: #1f77b4; fill-opacity: 0.3"/>
   </g>
   <g id="PolyCollection_2">
    <path d="M 193.896839 268.158502 
L 192.987754 268.158502 
L 192.956391 266.088085 
L 192.92608 264.017669 
L 192.892198 261.947252 
L 192.849277 259.876836 
L 192.792038 257.806419 
L 192.716566 255.736002 
L 192.621358 253.665586 
L 192.507989 251.595169 
L 192.381175 249.524753 
L 192.24815 247.454336 
L 192.117414 245.38392 
L 191.997068 243.313503 
L 191.893101 241.243087 
L 191.808017 239.17267 
L 191.740157 237.102254 
L 191.683921 235.031837 
L 191.630863 232.96142 
L 191.571436 230.891004 
L 191.496943 228.820587 
L 191.401247 226.750171 
L 191.2818 224.679754 
L 191.139779 222.609338 
L 190.979328 220.538921 
L 190.806161 218.468505 
L 190.62592 216.398088 
L 190.442748 214.327672 
L 190.258396 212.257255 
L 190.072061 210.186839 
L 189.880861 208.116422 
L 189.680742 206.046005 
L 189.467456 203.975589 
L 189.237322 201.905172 
L 188.987571 199.834756 
L 188.716272 197.764339 
L 188.421948 195.693923 
L 188.103135 193.623506 
L 187.758085 191.55309 
L 187.384771 189.482673 
L 186.981229 187.412257 
L 186.546141 185.34184 
L 186.079484 183.271424 
L 185.583057 181.201007 
L 185.060696 179.13059 
L 184.518075 177.060174 
L 183.962082 174.989757 
L 183.399827 172.919341 
L 182.837465 170.848924 
L 182.279027 168.778508 
L 181.725497 166.708091 
L 181.174358 164.637675 
L 180.619784 162.567258 
L 180.053536 160.496842 
L 179.466536 158.426425 
L 178.85091 156.356009 
L 178.202114 154.285592 
L 177.520665 152.215175 
L 176.81293 150.144759 
L 176.090555 148.074342 
L 175.368374 146.003926 
L 174.661058 143.933509 
L 173.979172 141.863093 
L 173.325611 139.792676 
L 172.693474 137.72226 
L 172.066143 135.651843 
L 171.419829 133.581427 
L 170.728171 131.51101 
L 169.967843 129.440593 
L 169.123856 127.370177 
L 168.19324 125.29976 
L 167.186287 123.229344 
L 166.125173 121.158927 
L 165.040521 119.088511 
L 163.966967 117.018094 
L 162.938986 114.947678 
L 161.988009 112.877261 
L 161.141403 110.806845 
L 160.423206 108.736428 
L 159.855977 106.666012 
L 159.462753 104.595595 
L 159.268134 102.525178 
L 159.297843 100.454762 
L 159.576641 98.384345 
L 160.125053 96.313929 
L 160.955739 94.243512 
L 162.070464 92.173096 
L 163.458391 90.102679 
L 165.09603 88.032263 
L 166.948714 85.961846 
L 168.973145 83.89143 
L 171.120409 81.821013 
L 173.338967 79.750597 
L 175.577293 77.68018 
L 177.786086 75.609763 
L 179.920102 73.539347 
L 181.939697 71.46893 
L 183.812139 69.398514 
L 185.512625 67.328097 
L 187.024918 65.257681 
L 188.341478 63.187264 
L 198.543115 63.187264 
L 198.543115 63.187264 
L 199.859676 65.257681 
L 201.371968 67.328097 
L 203.072454 69.398514 
L 204.944896 71.46893 
L 206.964492 73.539347 
L 209.098507 75.609763 
L 211.3073 77.68018 
L 213.545626 79.750597 
L 215.764184 81.821013 
L 217.911449 83.89143 
L 219.935879 85.961846 
L 221.788564 88.032263 
L 223.426202 90.102679 
L 224.814129 92.173096 
L 225.928854 94.243512 
L 226.759541 96.313929 
L 227.307952 98.384345 
L 227.58675 100.454762 
L 227.616459 102.525178 
L 227.42184 104.595595 
L 227.028616 106.666012 
L 226.461387 108.736428 
L 225.743191 110.806845 
L 224.896584 112.877261 
L 223.945607 114.947678 
L 222.917626 117.018094 
L 221.844073 119.088511 
L 220.75942 121.158927 
L 219.698306 123.229344 
L 218.691353 125.29976 
L 217.760738 127.370177 
L 216.91675 129.440593 
L 216.156422 131.51101 
L 215.464764 133.581427 
L 214.818451 135.651843 
L 214.191119 137.72226 
L 213.558982 139.792676 
L 212.905421 141.863093 
L 212.223535 143.933509 
L 211.516219 146.003926 
L 210.794038 148.074342 
L 210.071663 150.144759 
L 209.363929 152.215175 
L 208.68248 154.285592 
L 208.033683 156.356009 
L 207.418057 158.426425 
L 206.831057 160.496842 
L 206.264809 162.567258 
L 205.710235 164.637675 
L 205.159097 166.708091 
L 204.605566 168.778508 
L 204.047128 170.848924 
L 203.484767 172.919341 
L 202.922512 174.989757 
L 202.366518 177.060174 
L 201.823898 179.13059 
L 201.301536 181.201007 
L 200.805109 183.271424 
L 200.338452 185.34184 
L 199.903364 187.412257 
L 199.499823 189.482673 
L 199.126509 191.55309 
L 198.781458 193.623506 
L 198.462645 195.693923 
L 198.168322 197.764339 
L 197.897022 199.834756 
L 197.647272 201.905172 
L 197.417137 203.975589 
L 197.203851 206.046005 
L 197.003732 208.116422 
L 196.812533 210.186839 
L 196.626197 212.257255 
L 196.441846 214.327672 
L 196.258673 216.398088 
L 196.078433 218.468505 
L 195.905265 220.538921 
L 195.744814 222.609338 
L 195.602793 224.679754 
L 195.483347 226.750171 
L 195.38765 228.820587 
L 195.313158 230.891004 
L 195.25373 232.96142 
L 195.200673 235.031837 
L 195.144436 237.102254 
L 195.076576 239.17267 
L 194.991492 241.243087 
L 194.887525 243.313503 
L 194.76718 245.38392 
L 194.636443 247.454336 
L 194.503419 249.524753 
L 194.376604 251.595169 
L 194.263235 253.665586 
L 194.168027 255.736002 
L 194.092555 257.806419 
L 194.035316 259.876836 
L 193.992395 261.947252 
L 193.958514 264.017669 
L 193.928202 266.088085 
L 193.896839 268.158502 
z
" clip-path="url(#pbe25fb3034)" style="fill: #1f77b4; fill-opacity: 0.3"/>
   </g>
   <g id="PolyCollection_3">
    <path d="M 279.686735 281.014154 
L 278.068671 281.014154 
L 277.922806 278.860194 
L 277.756909 276.706235 
L 277.568355 274.552275 
L 277.355125 272.398315 
L 277.116594 270.244356 
L 276.85435 268.090396 
L 276.572884 265.936436 
L 276.279912 263.782477 
L 275.986145 261.628517 
L 275.704376 259.474557 
L 275.447892 257.320598 
L 275.228379 255.166638 
L 275.053637 253.012678 
L 274.925484 250.858719 
L 274.838278 248.704759 
L 274.77835 246.550799 
L 274.724491 244.39684 
L 274.649442 242.24288 
L 274.522163 240.08892 
L 274.310536 237.934961 
L 273.98414 235.781001 
L 273.516816 233.627041 
L 272.888786 231.473082 
L 272.088246 229.319122 
L 271.112383 227.165162 
L 269.967794 225.011203 
L 268.670283 222.857243 
L 267.243978 220.703283 
L 265.719727 218.549324 
L 264.132802 216.395364 
L 262.520065 214.241404 
L 260.916865 212.087445 
L 259.354103 209.933485 
L 257.855896 207.779525 
L 256.438243 205.625566 
L 255.10892 203.471606 
L 253.868604 201.317646 
L 252.712948 199.163687 
L 251.635178 197.009727 
L 250.628677 194.855767 
L 249.689073 192.701808 
L 248.815499 190.547848 
L 248.010923 188.393888 
L 247.281623 186.239929 
L 246.63605 184.085969 
L 246.083384 181.932009 
L 245.63205 179.77805 
L 245.288386 177.62409 
L 245.055581 175.47013 
L 244.932896 173.316171 
L 244.915166 171.162211 
L 244.992577 169.008251 
L 245.150745 166.854292 
L 245.371149 164.700332 
L 245.631996 162.546372 
L 245.909526 160.392413 
L 246.179748 158.238453 
L 246.420428 156.084493 
L 246.6131 153.930534 
L 246.744738 151.776574 
L 246.808761 149.622614 
L 246.805104 147.468655 
L 246.739292 145.314695 
L 246.620682 143.160735 
L 246.46029 141.006776 
L 246.268768 138.852816 
L 246.055109 136.698856 
L 245.826482 134.544897 
L 245.589293 132.390937 
L 245.351202 130.236977 
L 245.123502 128.083018 
L 244.923098 125.929058 
L 244.773383 123.775098 
L 244.703541 121.621139 
L 244.746199 119.467179 
L 244.933779 117.313219 
L 245.294215 115.15926 
L 245.846884 113.0053 
L 246.599566 110.85134 
L 247.547027 108.697381 
L 248.671503 106.543421 
L 249.944971 104.389461 
L 251.332799 102.235502 
L 252.79811 100.081542 
L 254.30613 97.927582 
L 255.82781 95.773623 
L 257.34219 93.619663 
L 258.837196 91.465703 
L 260.308847 89.311744 
L 261.759126 87.157784 
L 263.192981 85.003824 
L 264.615071 82.849865 
L 266.02687 80.695905 
L 267.42468 78.541945 
L 268.798851 76.387986 
L 270.134318 74.234026 
L 271.412244 72.080066 
L 272.612396 69.926107 
L 273.715757 67.772147 
L 284.039649 67.772147 
L 284.039649 67.772147 
L 285.143011 69.926107 
L 286.343163 72.080066 
L 287.621089 74.234026 
L 288.956556 76.387986 
L 290.330727 78.541945 
L 291.728536 80.695905 
L 293.140336 82.849865 
L 294.562426 85.003824 
L 295.996281 87.157784 
L 297.446559 89.311744 
L 298.91821 91.465703 
L 300.413216 93.619663 
L 301.927597 95.773623 
L 303.449277 97.927582 
L 304.957297 100.081542 
L 306.422608 102.235502 
L 307.810436 104.389461 
L 309.083904 106.543421 
L 310.20838 108.697381 
L 311.155841 110.85134 
L 311.908522 113.0053 
L 312.461191 115.15926 
L 312.821627 117.313219 
L 313.009208 119.467179 
L 313.051866 121.621139 
L 312.982024 123.775098 
L 312.832309 125.929058 
L 312.631905 128.083018 
L 312.404204 130.236977 
L 312.166114 132.390937 
L 311.928925 134.544897 
L 311.700298 136.698856 
L 311.486639 138.852816 
L 311.295117 141.006776 
L 311.134724 143.160735 
L 311.016115 145.314695 
L 310.950303 147.468655 
L 310.946646 149.622614 
L 311.010669 151.776574 
L 311.142307 153.930534 
L 311.334979 156.084493 
L 311.575659 158.238453 
L 311.84588 160.392413 
L 312.123411 162.546372 
L 312.384257 164.700332 
L 312.604662 166.854292 
L 312.762829 169.008251 
L 312.84024 171.162211 
L 312.822511 173.316171 
L 312.699826 175.47013 
L 312.467021 177.62409 
L 312.123357 179.77805 
L 311.672022 181.932009 
L 311.119357 184.085969 
L 310.473784 186.239929 
L 309.744483 188.393888 
L 308.939908 190.547848 
L 308.066334 192.701808 
L 307.12673 194.855767 
L 306.120229 197.009727 
L 305.042459 199.163687 
L 303.886802 201.317646 
L 302.646486 203.471606 
L 301.317164 205.625566 
L 299.89951 207.779525 
L 298.401303 209.933485 
L 296.838542 212.087445 
L 295.235342 214.241404 
L 293.622604 216.395364 
L 292.03568 218.549324 
L 290.511429 220.703283 
L 289.085124 222.857243 
L 287.787613 225.011203 
L 286.643024 227.165162 
L 285.667161 229.319122 
L 284.866621 231.473082 
L 284.238591 233.627041 
L 283.771267 235.781001 
L 283.444871 237.934961 
L 283.233243 240.08892 
L 283.105965 242.24288 
L 283.030916 244.39684 
L 282.977057 246.550799 
L 282.917129 248.704759 
L 282.829923 250.858719 
L 282.70177 253.012678 
L 282.527027 255.166638 
L 282.307515 257.320598 
L 282.051031 259.474557 
L 281.769262 261.628517 
L 281.475495 263.782477 
L 281.182523 265.936436 
L 280.901057 268.090396 
L 280.638813 270.244356 
L 280.400282 272.398315 
L 280.187052 274.552275 
L 279.998497 276.706235 
L 279.832601 278.860194 
L 279.686735 281.014154 
z
" clip-path="url(#pbe25fb3034)" style="fill: #1f77b4; fill-opacity: 0.3"/>
   </g>
   <g id="PolyCollection_4">
    <path d="M 365.900959 295.488 
L 362.725261 295.488 
L 362.496104 293.16423 
L 362.260793 290.84046 
L 362.022609 288.51669 
L 361.784399 286.192919 
L 361.548298 283.869149 
L 361.315474 281.545379 
L 361.085893 279.221609 
L 360.85812 276.897839 
L 360.629154 274.574069 
L 360.394307 272.250299 
L 360.147146 269.926528 
L 359.879528 267.602758 
L 359.581728 265.278988 
L 359.24268 262.955218 
L 358.850326 260.631448 
L 358.392056 258.307678 
L 357.855212 255.983908 
L 357.227638 253.660137 
L 356.498252 251.336367 
L 355.657641 249.012597 
L 354.69868 246.688827 
L 353.617194 244.365057 
L 352.412642 242.041287 
L 351.08881 239.717517 
L 349.654427 237.393746 
L 348.123603 235.069976 
L 346.515953 232.746206 
L 344.856275 230.422436 
L 343.173708 228.098666 
L 341.500332 225.774896 
L 339.86932 223.451126 
L 338.312796 221.127355 
L 336.859669 218.803585 
L 335.533728 216.479815 
L 334.352253 214.156045 
L 333.325353 211.832275 
L 332.456094 209.508505 
L 331.741365 207.184735 
L 331.173318 204.860964 
L 330.741113 202.537194 
L 330.432679 200.213424 
L 330.236209 197.889654 
L 330.141204 195.565884 
L 330.138947 193.242114 
L 330.22243 190.918344 
L 330.385835 188.594573 
L 330.623753 186.270803 
L 330.930328 183.947033 
L 331.298531 181.623263 
L 331.719682 179.299493 
L 332.183319 176.975723 
L 332.677416 174.651953 
L 333.18892 172.328182 
L 333.704503 170.004412 
L 334.211462 167.680642 
L 334.698629 165.356872 
L 335.157216 163.033102 
L 335.581507 160.709332 
L 335.969326 158.385562 
L 336.322234 156.061791 
L 336.645412 153.738021 
L 336.947218 151.414251 
L 337.238411 149.090481 
L 337.531065 146.766711 
L 337.837258 144.442941 
L 338.167623 142.119171 
L 338.529923 139.7954 
L 338.927823 137.47163 
L 339.360046 135.14786 
L 339.820079 132.82409 
L 340.296537 130.50032 
L 340.774196 128.17655 
L 341.235619 125.85278 
L 341.663188 123.529009 
L 342.041277 121.205239 
L 342.358268 118.881469 
L 342.608154 116.557699 
L 342.791506 114.233929 
L 342.915717 111.910159 
L 342.994538 109.586389 
L 343.047016 107.262618 
L 343.096014 104.938848 
L 343.166517 102.615078 
L 343.283902 100.291308 
L 343.472311 97.967538 
L 343.753217 95.643768 
L 344.144231 93.319998 
L 344.658154 90.996227 
L 345.302303 88.672457 
L 346.078103 86.348687 
L 346.980977 84.024917 
L 348.000529 81.701147 
L 349.121041 79.377377 
L 350.322254 77.053607 
L 351.580398 74.729836 
L 352.869418 72.406066 
L 354.162313 70.082296 
L 355.432514 67.758526 
L 356.655205 65.434756 
L 371.971015 65.434756 
L 371.971015 65.434756 
L 373.193706 67.758526 
L 374.463907 70.082296 
L 375.756802 72.406066 
L 377.045822 74.729836 
L 378.303966 77.053607 
L 379.505179 79.377377 
L 380.625691 81.701147 
L 381.645243 84.024917 
L 382.548117 86.348687 
L 383.323917 88.672457 
L 383.968066 90.996227 
L 384.481989 93.319998 
L 384.873003 95.643768 
L 385.153909 97.967538 
L 385.342318 100.291308 
L 385.459703 102.615078 
L 385.530206 104.938848 
L 385.579204 107.262618 
L 385.631682 109.586389 
L 385.710503 111.910159 
L 385.834714 114.233929 
L 386.018066 116.557699 
L 386.267952 118.881469 
L 386.584943 121.205239 
L 386.963032 123.529009 
L 387.390601 125.85278 
L 387.852024 128.17655 
L 388.329683 130.50032 
L 388.806141 132.82409 
L 389.266174 135.14786 
L 389.698397 137.47163 
L 390.096297 139.7954 
L 390.458597 142.119171 
L 390.788963 144.442941 
L 391.095155 146.766711 
L 391.387809 149.090481 
L 391.679002 151.414251 
L 391.980809 153.738021 
L 392.303987 156.061791 
L 392.656894 158.385562 
L 393.044713 160.709332 
L 393.469004 163.033102 
L 393.927591 165.356872 
L 394.414758 167.680642 
L 394.921717 170.004412 
L 395.4373 172.328182 
L 395.948804 174.651953 
L 396.442901 176.975723 
L 396.906538 179.299493 
L 397.327689 181.623263 
L 397.695892 183.947033 
L 398.002467 186.270803 
L 398.240385 188.594573 
L 398.40379 190.918344 
L 398.487273 193.242114 
L 398.485016 195.565884 
L 398.390011 197.889654 
L 398.193541 200.213424 
L 397.885107 202.537194 
L 397.452902 204.860964 
L 396.884855 207.184735 
L 396.170126 209.508505 
L 395.300867 211.832275 
L 394.273968 214.156045 
L 393.092492 216.479815 
L 391.766551 218.803585 
L 390.313424 221.127355 
L 388.7569 223.451126 
L 387.125888 225.774896 
L 385.452512 228.098666 
L 383.769945 230.422436 
L 382.110267 232.746206 
L 380.502617 235.069976 
L 378.971793 237.393746 
L 377.53741 239.717517 
L 376.213578 242.041287 
L 375.009026 244.365057 
L 373.92754 246.688827 
L 372.968579 249.012597 
L 372.127968 251.336367 
L 371.398582 253.660137 
L 370.771008 255.983908 
L 370.234164 258.307678 
L 369.775894 260.631448 
L 369.38354 262.955218 
L 369.044492 265.278988 
L 368.746692 267.602758 
L 368.479074 269.926528 
L 368.231914 272.250299 
L 367.997066 274.574069 
L 367.7681 276.897839 
L 367.540328 279.221609 
L 367.310746 281.545379 
L 367.077922 283.869149 
L 366.841821 286.192919 
L 366.603611 288.51669 
L 366.365427 290.84046 
L 366.130116 293.16423 
L 365.900959 295.488 
z
" clip-path="url(#pbe25fb3034)" style="fill: #1f77b4; fill-opacity: 0.3"/>
   </g>
   <g id="matplotlib.axis_1">
    <g id="xtick_1">
     <g id="line2d_1">
      <path d="M 65.289187 307.584 
L 65.289187 41.472 
" clip-path="url(#pbe25fb3034)" style="fill: none; stroke-dasharray: 2.96,1.28; stroke-dashoffset: 0; stroke: #b0b0b0; stroke-width: 0.8"/>
     </g>
     <g id="line2d_2">
      <defs>
       <path id="mf901491220" d="M 0 0 
L 0 3.5 
" style="stroke: #000000; stroke-width: 0.8"/>
      </defs>
      <g>
       <use xlink:href="#mf901491220" x="65.289187" y="307.584" style="stroke: #000000; stroke-width: 0.8"/>
      </g>
     </g>
     <g id="text_1">
      <!-- 250 -->
      <g transform="translate(55.745437 322.182437)scale(0.1 -0.1)">
       <defs>
        <path id="DejaVuSans-32" d="M 1228 531 
L 3431 531 
L 3431 0 
L 469 0 
L 469 531 
Q 828 903 1448 1529 
Q 2069 2156 2228 2338 
Q 2531 2678 2651 2914 
Q 2772 3150 2772 3378 
Q 2772 3750 2511 3984 
Q 2250 4219 1831 4219 
Q 1534 4219 1204 4116 
Q 875 4013 500 3803 
L 500 4441 
Q 881 4594 1212 4672 
Q 1544 4750 1819 4750 
Q 2544 4750 2975 4387 
Q 3406 4025 3406 3419 
Q 3406 3131 3298 2873 
Q 3191 2616 2906 2266 
Q 2828 2175 2409 1742 
Q 1991 1309 1228 531 
z
" transform="scale(0.015625)"/>
        <path id="DejaVuSans-35" d="M 691 4666 
L 3169 4666 
L 3169 4134 
L 1269 4134 
L 1269 2991 
Q 1406 3038 1543 3061 
Q 1681 3084 1819 3084 
Q 2600 3084 3056 2656 
Q 3513 2228 3513 1497 
Q 3513 744 3044 326 
Q 2575 -91 1722 -91 
Q 1428 -91 1123 -41 
Q 819 9 494 109 
L 494 744 
Q 775 591 1075 516 
Q 1375 441 1709 441 
Q 2250 441 2565 725 
Q 2881 1009 2881 1497 
Q 2881 1984 2565 2268 
Q 2250 2553 1709 2553 
Q 1456 2553 1204 2497 
Q 953 2441 691 2322 
L 691 4666 
z
" transform="scale(0.015625)"/>
        <path id="DejaVuSans-30" d="M 2034 4250 
Q 1547 4250 1301 3770 
Q 1056 3291 1056 2328 
Q 1056 1369 1301 889 
Q 1547 409 2034 409 
Q 2525 409 2770 889 
Q 3016 1369 3016 2328 
Q 3016 3291 2770 3770 
Q 2525 4250 2034 4250 
z
M 2034 4750 
Q 2819 4750 3233 4129 
Q 3647 3509 3647 2328 
Q 3647 1150 3233 529 
Q 2819 -91 2034 -91 
Q 1250 -91 836 529 
Q 422 1150 422 2328 
Q 422 3509 836 4129 
Q 1250 4750 2034 4750 
z
" transform="scale(0.015625)"/>
       </defs>
       <use xlink:href="#DejaVuSans-32"/>
       <use xlink:href="#DejaVuSans-35" x="63.623047"/>
       <use xlink:href="#DejaVuSans-30" x="127.246094"/>
      </g>
     </g>
    </g>
    <g id="xtick_2">
     <g id="line2d_3">
      <path d="M 108.00689 307.584 
L 108.00689 41.472 
" clip-path="url(#pbe25fb3034)" style="fill: none; stroke-dasharray: 2.96,1.28; stroke-dashoffset: 0; stroke: #b0b0b0; stroke-width: 0.8"/>
     </g>
     <g id="line2d_4">
      <g>
       <use xlink:href="#mf901491220" x="108.00689" y="307.584" style="stroke: #000000; stroke-width: 0.8"/>
      </g>
     </g>
     <g id="text_2">
      <!-- 500 -->
      <g transform="translate(98.46314 322.182437)scale(0.1 -0.1)">
       <use xlink:href="#DejaVuSans-35"/>
       <use xlink:href="#DejaVuSans-30" x="63.623047"/>
       <use xlink:href="#DejaVuSans-30" x="127.246094"/>
      </g>
     </g>
    </g>
    <g id="xtick_3">
     <g id="line2d_5">
      <path d="M 150.724593 307.584 
L 150.724593 41.472 
" clip-path="url(#pbe25fb3034)" style="fill: none; stroke-dasharray: 2.96,1.28; stroke-dashoffset: 0; stroke: #b0b0b0; stroke-width: 0.8"/>
     </g>
     <g id="line2d_6">
      <g>
       <use xlink:href="#mf901491220" x="150.724593" y="307.584" style="stroke: #000000; stroke-width: 0.8"/>
      </g>
     </g>
     <g id="text_3">
      <!-- 750 -->
      <g transform="translate(141.180843 322.182437)scale(0.1 -0.1)">
       <defs>
        <path id="DejaVuSans-37" d="M 525 4666 
L 3525 4666 
L 3525 4397 
L 1831 0 
L 1172 0 
L 2766 4134 
L 525 4134 
L 525 4666 
z
" transform="scale(0.015625)"/>
       </defs>
       <use xlink:href="#DejaVuSans-37"/>
       <use xlink:href="#DejaVuSans-35" x="63.623047"/>
       <use xlink:href="#DejaVuSans-30" x="127.246094"/>
      </g>
     </g>
    </g>
    <g id="xtick_4">
     <g id="line2d_7">
      <path d="M 193.442297 307.584 
L 193.442297 41.472 
" clip-path="url(#pbe25fb3034)" style="fill: none; stroke-dasharray: 2.96,1.28; stroke-dashoffset: 0; stroke: #b0b0b0; stroke-width: 0.8"/>
     </g>
     <g id="line2d_8">
      <g>
       <use xlink:href="#mf901491220" x="193.442297" y="307.584" style="stroke: #000000; stroke-width: 0.8"/>
      </g>
     </g>
     <g id="text_4">
      <!-- 1000 -->
      <g transform="translate(180.717297 322.182437)scale(0.1 -0.1)">
       <defs>
        <path id="DejaVuSans-31" d="M 794 531 
L 1825 531 
L 1825 4091 
L 703 3866 
L 703 4441 
L 1819 4666 
L 2450 4666 
L 2450 531 
L 3481 531 
L 3481 0 
L 794 0 
L 794 531 
z
" transform="scale(0.015625)"/>
       </defs>
       <use xlink:href="#DejaVuSans-31"/>
       <use xlink:href="#DejaVuSans-30" x="63.623047"/>
       <use xlink:href="#DejaVuSans-30" x="127.246094"/>
       <use xlink:href="#DejaVuSans-30" x="190.869141"/>
      </g>
     </g>
    </g>
    <g id="xtick_5">
     <g id="line2d_9">
      <path d="M 236.16 307.584 
L 236.16 41.472 
" clip-path="url(#pbe25fb3034)" style="fill: none; stroke-dasharray: 2.96,1.28; stroke-dashoffset: 0; stroke: #b0b0b0; stroke-width: 0.8"/>
     </g>
     <g id="line2d_10">
      <g>
       <use xlink:href="#mf901491220" x="236.16" y="307.584" style="stroke: #000000; stroke-width: 0.8"/>
      </g>
     </g>
     <g id="text_5">
      <!-- 1250 -->
      <g transform="translate(223.435 322.182437)scale(0.1 -0.1)">
       <use xlink:href="#DejaVuSans-31"/>
       <use xlink:href="#DejaVuSans-32" x="63.623047"/>
       <use xlink:href="#DejaVuSans-35" x="127.246094"/>
       <use xlink:href="#DejaVuSans-30" x="190.869141"/>
      </g>
     </g>
    </g>
    <g id="xtick_6">
     <g id="line2d_11">
      <path d="M 278.877703 307.584 
L 278.877703 41.472 
" clip-path="url(#pbe25fb3034)" style="fill: none; stroke-dasharray: 2.96,1.28; stroke-dashoffset: 0; stroke: #b0b0b0; stroke-width: 0.8"/>
     </g>
     <g id="line2d_12">
      <g>
       <use xlink:href="#mf901491220" x="278.877703" y="307.584" style="stroke: #000000; stroke-width: 0.8"/>
      </g>
     </g>
     <g id="text_6">
      <!-- 1500 -->
      <g transform="translate(266.152703 322.182437)scale(0.1 -0.1)">
       <use xlink:href="#DejaVuSans-31"/>
       <use xlink:href="#DejaVuSans-35" x="63.623047"/>
       <use xlink:href="#DejaVuSans-30" x="127.246094"/>
       <use xlink:href="#DejaVuSans-30" x="190.869141"/>
      </g>
     </g>
    </g>
    <g id="xtick_7">
     <g id="line2d_13">
      <path d="M 321.595407 307.584 
L 321.595407 41.472 
" clip-path="url(#pbe25fb3034)" style="fill: none; stroke-dasharray: 2.96,1.28; stroke-dashoffset: 0; stroke: #b0b0b0; stroke-width: 0.8"/>
     </g>
     <g id="line2d_14">
      <g>
       <use xlink:href="#mf901491220" x="321.595407" y="307.584" style="stroke: #000000; stroke-width: 0.8"/>
      </g>
     </g>
     <g id="text_7">
      <!-- 1750 -->
      <g transform="translate(308.870407 322.182437)scale(0.1 -0.1)">
       <use xlink:href="#DejaVuSans-31"/>
       <use xlink:href="#DejaVuSans-37" x="63.623047"/>
       <use xlink:href="#DejaVuSans-35" x="127.246094"/>
       <use xlink:href="#DejaVuSans-30" x="190.869141"/>
      </g>
     </g>
    </g>
    <g id="xtick_8">
     <g id="line2d_15">
      <path d="M 364.31311 307.584 
L 364.31311 41.472 
" clip-path="url(#pbe25fb3034)" style="fill: none; stroke-dasharray: 2.96,1.28; stroke-dashoffset: 0; stroke: #b0b0b0; stroke-width: 0.8"/>
     </g>
     <g id="line2d_16">
      <g>
       <use xlink:href="#mf901491220" x="364.31311" y="307.584" style="stroke: #000000; stroke-width: 0.8"/>
      </g>
     </g>
     <g id="text_8">
      <!-- 2000 -->
      <g transform="translate(351.58811 322.182437)scale(0.1 -0.1)">
       <use xlink:href="#DejaVuSans-32"/>
       <use xlink:href="#DejaVuSans-30" x="63.623047"/>
       <use xlink:href="#DejaVuSans-30" x="127.246094"/>
       <use xlink:href="#DejaVuSans-30" x="190.869141"/>
      </g>
     </g>
    </g>
    <g id="xtick_9">
     <g id="line2d_17">
      <path d="M 407.030813 307.584 
L 407.030813 41.472 
" clip-path="url(#pbe25fb3034)" style="fill: none; stroke-dasharray: 2.96,1.28; stroke-dashoffset: 0; stroke: #b0b0b0; stroke-width: 0.8"/>
     </g>
     <g id="line2d_18">
      <g>
       <use xlink:href="#mf901491220" x="407.030813" y="307.584" style="stroke: #000000; stroke-width: 0.8"/>
      </g>
     </g>
     <g id="text_9">
      <!-- 2250 -->
      <g transform="translate(394.305813 322.182437)scale(0.1 -0.1)">
       <use xlink:href="#DejaVuSans-32"/>
       <use xlink:href="#DejaVuSans-32" x="63.623047"/>
       <use xlink:href="#DejaVuSans-35" x="127.246094"/>
       <use xlink:href="#DejaVuSans-30" x="190.869141"/>
      </g>
     </g>
    </g>
    <g id="text_10">
     <!-- Learned Episodes -->
     <g transform="translate(192.102187 335.860562)scale(0.1 -0.1)">
      <defs>
       <path id="DejaVuSans-4c" d="M 628 4666 
L 1259 4666 
L 1259 531 
L 3531 531 
L 3531 0 
L 628 0 
L 628 4666 
z
" transform="scale(0.015625)"/>
       <path id="DejaVuSans-65" d="M 3597 1894 
L 3597 1613 
L 953 1613 
Q 991 1019 1311 708 
Q 1631 397 2203 397 
Q 2534 397 2845 478 
Q 3156 559 3463 722 
L 3463 178 
Q 3153 47 2828 -22 
Q 2503 -91 2169 -91 
Q 1331 -91 842 396 
Q 353 884 353 1716 
Q 353 2575 817 3079 
Q 1281 3584 2069 3584 
Q 2775 3584 3186 3129 
Q 3597 2675 3597 1894 
z
M 3022 2063 
Q 3016 2534 2758 2815 
Q 2500 3097 2075 3097 
Q 1594 3097 1305 2825 
Q 1016 2553 972 2059 
L 3022 2063 
z
" transform="scale(0.015625)"/>
       <path id="DejaVuSans-61" d="M 2194 1759 
Q 1497 1759 1228 1600 
Q 959 1441 959 1056 
Q 959 750 1161 570 
Q 1363 391 1709 391 
Q 2188 391 2477 730 
Q 2766 1069 2766 1631 
L 2766 1759 
L 2194 1759 
z
M 3341 1997 
L 3341 0 
L 2766 0 
L 2766 531 
Q 2569 213 2275 61 
Q 1981 -91 1556 -91 
Q 1019 -91 701 211 
Q 384 513 384 1019 
Q 384 1609 779 1909 
Q 1175 2209 1959 2209 
L 2766 2209 
L 2766 2266 
Q 2766 2663 2505 2880 
Q 2244 3097 1772 3097 
Q 1472 3097 1187 3025 
Q 903 2953 641 2809 
L 641 3341 
Q 956 3463 1253 3523 
Q 1550 3584 1831 3584 
Q 2591 3584 2966 3190 
Q 3341 2797 3341 1997 
z
" transform="scale(0.015625)"/>
       <path id="DejaVuSans-72" d="M 2631 2963 
Q 2534 3019 2420 3045 
Q 2306 3072 2169 3072 
Q 1681 3072 1420 2755 
Q 1159 2438 1159 1844 
L 1159 0 
L 581 0 
L 581 3500 
L 1159 3500 
L 1159 2956 
Q 1341 3275 1631 3429 
Q 1922 3584 2338 3584 
Q 2397 3584 2469 3576 
Q 2541 3569 2628 3553 
L 2631 2963 
z
" transform="scale(0.015625)"/>
       <path id="DejaVuSans-6e" d="M 3513 2113 
L 3513 0 
L 2938 0 
L 2938 2094 
Q 2938 2591 2744 2837 
Q 2550 3084 2163 3084 
Q 1697 3084 1428 2787 
Q 1159 2491 1159 1978 
L 1159 0 
L 581 0 
L 581 3500 
L 1159 3500 
L 1159 2956 
Q 1366 3272 1645 3428 
Q 1925 3584 2291 3584 
Q 2894 3584 3203 3211 
Q 3513 2838 3513 2113 
z
" transform="scale(0.015625)"/>
       <path id="DejaVuSans-64" d="M 2906 2969 
L 2906 4863 
L 3481 4863 
L 3481 0 
L 2906 0 
L 2906 525 
Q 2725 213 2448 61 
Q 2172 -91 1784 -91 
Q 1150 -91 751 415 
Q 353 922 353 1747 
Q 353 2572 751 3078 
Q 1150 3584 1784 3584 
Q 2172 3584 2448 3432 
Q 2725 3281 2906 2969 
z
M 947 1747 
Q 947 1113 1208 752 
Q 1469 391 1925 391 
Q 2381 391 2643 752 
Q 2906 1113 2906 1747 
Q 2906 2381 2643 2742 
Q 2381 3103 1925 3103 
Q 1469 3103 1208 2742 
Q 947 2381 947 1747 
z
" transform="scale(0.015625)"/>
       <path id="DejaVuSans-20" transform="scale(0.015625)"/>
       <path id="DejaVuSans-45" d="M 628 4666 
L 3578 4666 
L 3578 4134 
L 1259 4134 
L 1259 2753 
L 3481 2753 
L 3481 2222 
L 1259 2222 
L 1259 531 
L 3634 531 
L 3634 0 
L 628 0 
L 628 4666 
z
" transform="scale(0.015625)"/>
       <path id="DejaVuSans-70" d="M 1159 525 
L 1159 -1331 
L 581 -1331 
L 581 3500 
L 1159 3500 
L 1159 2969 
Q 1341 3281 1617 3432 
Q 1894 3584 2278 3584 
Q 2916 3584 3314 3078 
Q 3713 2572 3713 1747 
Q 3713 922 3314 415 
Q 2916 -91 2278 -91 
Q 1894 -91 1617 61 
Q 1341 213 1159 525 
z
M 3116 1747 
Q 3116 2381 2855 2742 
Q 2594 3103 2138 3103 
Q 1681 3103 1420 2742 
Q 1159 2381 1159 1747 
Q 1159 1113 1420 752 
Q 1681 391 2138 391 
Q 2594 391 2855 752 
Q 3116 1113 3116 1747 
z
" transform="scale(0.015625)"/>
       <path id="DejaVuSans-69" d="M 603 3500 
L 1178 3500 
L 1178 0 
L 603 0 
L 603 3500 
z
M 603 4863 
L 1178 4863 
L 1178 4134 
L 603 4134 
L 603 4863 
z
" transform="scale(0.015625)"/>
       <path id="DejaVuSans-73" d="M 2834 3397 
L 2834 2853 
Q 2591 2978 2328 3040 
Q 2066 3103 1784 3103 
Q 1356 3103 1142 2972 
Q 928 2841 928 2578 
Q 928 2378 1081 2264 
Q 1234 2150 1697 2047 
L 1894 2003 
Q 2506 1872 2764 1633 
Q 3022 1394 3022 966 
Q 3022 478 2636 193 
Q 2250 -91 1575 -91 
Q 1294 -91 989 -36 
Q 684 19 347 128 
L 347 722 
Q 666 556 975 473 
Q 1284 391 1588 391 
Q 1994 391 2212 530 
Q 2431 669 2431 922 
Q 2431 1156 2273 1281 
Q 2116 1406 1581 1522 
L 1381 1569 
Q 847 1681 609 1914 
Q 372 2147 372 2553 
Q 372 3047 722 3315 
Q 1072 3584 1716 3584 
Q 2034 3584 2315 3537 
Q 2597 3491 2834 3397 
z
" transform="scale(0.015625)"/>
       <path id="DejaVuSans-6f" d="M 1959 3097 
Q 1497 3097 1228 2736 
Q 959 2375 959 1747 
Q 959 1119 1226 758 
Q 1494 397 1959 397 
Q 2419 397 2687 759 
Q 2956 1122 2956 1747 
Q 2956 2369 2687 2733 
Q 2419 3097 1959 3097 
z
M 1959 3584 
Q 2709 3584 3137 3096 
Q 3566 2609 3566 1747 
Q 3566 888 3137 398 
Q 2709 -91 1959 -91 
Q 1206 -91 779 398 
Q 353 888 353 1747 
Q 353 2609 779 3096 
Q 1206 3584 1959 3584 
z
" transform="scale(0.015625)"/>
      </defs>
      <use xlink:href="#DejaVuSans-4c"/>
      <use xlink:href="#DejaVuSans-65" x="53.962891"/>
      <use xlink:href="#DejaVuSans-61" x="115.486328"/>
      <use xlink:href="#DejaVuSans-72" x="176.765625"/>
      <use xlink:href="#DejaVuSans-6e" x="216.128906"/>
      <use xlink:href="#DejaVuSans-65" x="279.507812"/>
      <use xlink:href="#DejaVuSans-64" x="341.03125"/>
      <use xlink:href="#DejaVuSans-20" x="404.507812"/>
      <use xlink:href="#DejaVuSans-45" x="436.294922"/>
      <use xlink:href="#DejaVuSans-70" x="499.478516"/>
      <use xlink:href="#DejaVuSans-69" x="562.955078"/>
      <use xlink:href="#DejaVuSans-73" x="590.738281"/>
      <use xlink:href="#DejaVuSans-6f" x="642.837891"/>
      <use xlink:href="#DejaVuSans-64" x="704.019531"/>
      <use xlink:href="#DejaVuSans-65" x="767.496094"/>
      <use xlink:href="#DejaVuSans-73" x="829.019531"/>
     </g>
    </g>
   </g>
   <g id="matplotlib.axis_2">
    <g id="ytick_1">
     <g id="line2d_19">
      <path d="M 57.6 267.888803 
L 414.72 267.888803 
" clip-path="url(#pbe25fb3034)" style="fill: none; stroke-dasharray: 2.96,1.28; stroke-dashoffset: 0; stroke: #b0b0b0; stroke-width: 0.8"/>
     </g>
     <g id="line2d_20">
      <defs>
       <path id="mdb235a6b8f" d="M 0 0 
L -3.5 0 
" style="stroke: #000000; stroke-width: 0.8"/>
      </defs>
      <g>
       <use xlink:href="#mdb235a6b8f" x="57.6" y="267.888803" style="stroke: #000000; stroke-width: 0.8"/>
      </g>
     </g>
     <g id="text_11">
      <!-- −250 -->
      <g transform="translate(23.132812 271.688021)scale(0.1 -0.1)">
       <defs>
        <path id="DejaVuSans-2212" d="M 678 2272 
L 4684 2272 
L 4684 1741 
L 678 1741 
L 678 2272 
z
" transform="scale(0.015625)"/>
       </defs>
       <use xlink:href="#DejaVuSans-2212"/>
       <use xlink:href="#DejaVuSans-32" x="83.789062"/>
       <use xlink:href="#DejaVuSans-35" x="147.412109"/>
       <use xlink:href="#DejaVuSans-30" x="211.035156"/>
      </g>
     </g>
    </g>
    <g id="ytick_2">
     <g id="line2d_21">
      <path d="M 57.6 222.93897 
L 414.72 222.93897 
" clip-path="url(#pbe25fb3034)" style="fill: none; stroke-dasharray: 2.96,1.28; stroke-dashoffset: 0; stroke: #b0b0b0; stroke-width: 0.8"/>
     </g>
     <g id="line2d_22">
      <g>
       <use xlink:href="#mdb235a6b8f" x="57.6" y="222.93897" style="stroke: #000000; stroke-width: 0.8"/>
      </g>
     </g>
     <g id="text_12">
      <!-- −200 -->
      <g transform="translate(23.132812 226.738189)scale(0.1 -0.1)">
       <use xlink:href="#DejaVuSans-2212"/>
       <use xlink:href="#DejaVuSans-32" x="83.789062"/>
       <use xlink:href="#DejaVuSans-30" x="147.412109"/>
       <use xlink:href="#DejaVuSans-30" x="211.035156"/>
      </g>
     </g>
    </g>
    <g id="ytick_3">
     <g id="line2d_23">
      <path d="M 57.6 177.989137 
L 414.72 177.989137 
" clip-path="url(#pbe25fb3034)" style="fill: none; stroke-dasharray: 2.96,1.28; stroke-dashoffset: 0; stroke: #b0b0b0; stroke-width: 0.8"/>
     </g>
     <g id="line2d_24">
      <g>
       <use xlink:href="#mdb235a6b8f" x="57.6" y="177.989137" style="stroke: #000000; stroke-width: 0.8"/>
      </g>
     </g>
     <g id="text_13">
      <!-- −150 -->
      <g transform="translate(23.132812 181.788356)scale(0.1 -0.1)">
       <use xlink:href="#DejaVuSans-2212"/>
       <use xlink:href="#DejaVuSans-31" x="83.789062"/>
       <use xlink:href="#DejaVuSans-35" x="147.412109"/>
       <use xlink:href="#DejaVuSans-30" x="211.035156"/>
      </g>
     </g>
    </g>
    <g id="ytick_4">
     <g id="line2d_25">
      <path d="M 57.6 133.039304 
L 414.72 133.039304 
" clip-path="url(#pbe25fb3034)" style="fill: none; stroke-dasharray: 2.96,1.28; stroke-dashoffset: 0; stroke: #b0b0b0; stroke-width: 0.8"/>
     </g>
     <g id="line2d_26">
      <g>
       <use xlink:href="#mdb235a6b8f" x="57.6" y="133.039304" style="stroke: #000000; stroke-width: 0.8"/>
      </g>
     </g>
     <g id="text_14">
      <!-- −100 -->
      <g transform="translate(23.132812 136.838523)scale(0.1 -0.1)">
       <use xlink:href="#DejaVuSans-2212"/>
       <use xlink:href="#DejaVuSans-31" x="83.789062"/>
       <use xlink:href="#DejaVuSans-30" x="147.412109"/>
       <use xlink:href="#DejaVuSans-30" x="211.035156"/>
      </g>
     </g>
    </g>
    <g id="ytick_5">
     <g id="line2d_27">
      <path d="M 57.6 88.089472 
L 414.72 88.089472 
" clip-path="url(#pbe25fb3034)" style="fill: none; stroke-dasharray: 2.96,1.28; stroke-dashoffset: 0; stroke: #b0b0b0; stroke-width: 0.8"/>
     </g>
     <g id="line2d_28">
      <g>
       <use xlink:href="#mdb235a6b8f" x="57.6" y="88.089472" style="stroke: #000000; stroke-width: 0.8"/>
      </g>
     </g>
     <g id="text_15">
      <!-- −50 -->
      <g transform="translate(29.495313 91.88869)scale(0.1 -0.1)">
       <use xlink:href="#DejaVuSans-2212"/>
       <use xlink:href="#DejaVuSans-35" x="83.789062"/>
       <use xlink:href="#DejaVuSans-30" x="147.412109"/>
      </g>
     </g>
    </g>
    <g id="ytick_6">
     <g id="line2d_29">
      <path d="M 57.6 43.139639 
L 414.72 43.139639 
" clip-path="url(#pbe25fb3034)" style="fill: none; stroke-dasharray: 2.96,1.28; stroke-dashoffset: 0; stroke: #b0b0b0; stroke-width: 0.8"/>
     </g>
     <g id="line2d_30">
      <g>
       <use xlink:href="#mdb235a6b8f" x="57.6" y="43.139639" style="stroke: #000000; stroke-width: 0.8"/>
      </g>
     </g>
     <g id="text_16">
      <!-- 0 -->
      <g transform="translate(44.2375 46.938858)scale(0.1 -0.1)">
       <use xlink:href="#DejaVuSans-30"/>
      </g>
     </g>
    </g>
    <g id="text_17">
     <!-- Reward Density -->
     <g transform="translate(17.053125 213.74675)rotate(-90)scale(0.1 -0.1)">
      <defs>
       <path id="DejaVuSans-52" d="M 2841 2188 
Q 3044 2119 3236 1894 
Q 3428 1669 3622 1275 
L 4263 0 
L 3584 0 
L 2988 1197 
Q 2756 1666 2539 1819 
Q 2322 1972 1947 1972 
L 1259 1972 
L 1259 0 
L 628 0 
L 628 4666 
L 2053 4666 
Q 2853 4666 3247 4331 
Q 3641 3997 3641 3322 
Q 3641 2881 3436 2590 
Q 3231 2300 2841 2188 
z
M 1259 4147 
L 1259 2491 
L 2053 2491 
Q 2509 2491 2742 2702 
Q 2975 2913 2975 3322 
Q 2975 3731 2742 3939 
Q 2509 4147 2053 4147 
L 1259 4147 
z
" transform="scale(0.015625)"/>
       <path id="DejaVuSans-77" d="M 269 3500 
L 844 3500 
L 1563 769 
L 2278 3500 
L 2956 3500 
L 3675 769 
L 4391 3500 
L 4966 3500 
L 4050 0 
L 3372 0 
L 2619 2869 
L 1863 0 
L 1184 0 
L 269 3500 
z
" transform="scale(0.015625)"/>
       <path id="DejaVuSans-44" d="M 1259 4147 
L 1259 519 
L 2022 519 
Q 2988 519 3436 956 
Q 3884 1394 3884 2338 
Q 3884 3275 3436 3711 
Q 2988 4147 2022 4147 
L 1259 4147 
z
M 628 4666 
L 1925 4666 
Q 3281 4666 3915 4102 
Q 4550 3538 4550 2338 
Q 4550 1131 3912 565 
Q 3275 0 1925 0 
L 628 0 
L 628 4666 
z
" transform="scale(0.015625)"/>
       <path id="DejaVuSans-74" d="M 1172 4494 
L 1172 3500 
L 2356 3500 
L 2356 3053 
L 1172 3053 
L 1172 1153 
Q 1172 725 1289 603 
Q 1406 481 1766 481 
L 2356 481 
L 2356 0 
L 1766 0 
Q 1100 0 847 248 
Q 594 497 594 1153 
L 594 3053 
L 172 3053 
L 172 3500 
L 594 3500 
L 594 4494 
L 1172 4494 
z
" transform="scale(0.015625)"/>
       <path id="DejaVuSans-79" d="M 2059 -325 
Q 1816 -950 1584 -1140 
Q 1353 -1331 966 -1331 
L 506 -1331 
L 506 -850 
L 844 -850 
Q 1081 -850 1212 -737 
Q 1344 -625 1503 -206 
L 1606 56 
L 191 3500 
L 800 3500 
L 1894 763 
L 2988 3500 
L 3597 3500 
L 2059 -325 
z
" transform="scale(0.015625)"/>
      </defs>
      <use xlink:href="#DejaVuSans-52"/>
      <use xlink:href="#DejaVuSans-65" x="64.982422"/>
      <use xlink:href="#DejaVuSans-77" x="126.505859"/>
      <use xlink:href="#DejaVuSans-61" x="208.292969"/>
      <use xlink:href="#DejaVuSans-72" x="269.572266"/>
      <use xlink:href="#DejaVuSans-64" x="308.935547"/>
      <use xlink:href="#DejaVuSans-20" x="372.412109"/>
      <use xlink:href="#DejaVuSans-44" x="404.199219"/>
      <use xlink:href="#DejaVuSans-65" x="481.201172"/>
      <use xlink:href="#DejaVuSans-6e" x="542.724609"/>
      <use xlink:href="#DejaVuSans-73" x="606.103516"/>
      <use xlink:href="#DejaVuSans-69" x="658.203125"/>
      <use xlink:href="#DejaVuSans-74" x="685.986328"/>
      <use xlink:href="#DejaVuSans-79" x="725.195312"/>
     </g>
    </g>
   </g>
   <g id="LineCollection_1">
    <path d="M 90.919809 143.29362 
L 125.093971 143.29362 
" clip-path="url(#pbe25fb3034)" style="fill: none; stroke: #1f77b4; stroke-width: 1.5"/>
    <path d="M 176.355215 124.60276 
L 210.529378 124.60276 
" clip-path="url(#pbe25fb3034)" style="fill: none; stroke: #1f77b4; stroke-width: 1.5"/>
    <path d="M 261.790622 152.753222 
L 295.964785 152.753222 
" clip-path="url(#pbe25fb3034)" style="fill: none; stroke: #1f77b4; stroke-width: 1.5"/>
    <path d="M 347.226029 165.572915 
L 381.400191 165.572915 
" clip-path="url(#pbe25fb3034)" style="fill: none; stroke: #1f77b4; stroke-width: 1.5"/>
   </g>
   <g id="LineCollection_2">
    <path d="M 90.919809 53.568 
L 125.093971 53.568 
" clip-path="url(#pbe25fb3034)" style="fill: none; stroke: #1f77b4; stroke-width: 1.5"/>
    <path d="M 176.355215 63.187264 
L 210.529378 63.187264 
" clip-path="url(#pbe25fb3034)" style="fill: none; stroke: #1f77b4; stroke-width: 1.5"/>
    <path d="M 261.790622 67.772147 
L 295.964785 67.772147 
" clip-path="url(#pbe25fb3034)" style="fill: none; stroke: #1f77b4; stroke-width: 1.5"/>
    <path d="M 347.226029 65.434756 
L 381.400191 65.434756 
" clip-path="url(#pbe25fb3034)" style="fill: none; stroke: #1f77b4; stroke-width: 1.5"/>
   </g>
   <g id="LineCollection_3">
    <path d="M 90.919809 240.289605 
L 125.093971 240.289605 
" clip-path="url(#pbe25fb3034)" style="fill: none; stroke: #1f77b4; stroke-width: 1.5"/>
    <path d="M 176.355215 268.158502 
L 210.529378 268.158502 
" clip-path="url(#pbe25fb3034)" style="fill: none; stroke: #1f77b4; stroke-width: 1.5"/>
    <path d="M 261.790622 281.014154 
L 295.964785 281.014154 
" clip-path="url(#pbe25fb3034)" style="fill: none; stroke: #1f77b4; stroke-width: 1.5"/>
    <path d="M 347.226029 295.488 
L 381.400191 295.488 
" clip-path="url(#pbe25fb3034)" style="fill: none; stroke: #1f77b4; stroke-width: 1.5"/>
   </g>
   <g id="LineCollection_4">
    <path d="M 108.00689 240.289605 
L 108.00689 53.568 
" clip-path="url(#pbe25fb3034)" style="fill: none; stroke: #1f77b4; stroke-width: 1.5"/>
    <path d="M 193.442297 268.158502 
L 193.442297 63.187264 
" clip-path="url(#pbe25fb3034)" style="fill: none; stroke: #1f77b4; stroke-width: 1.5"/>
    <path d="M 278.877703 281.014154 
L 278.877703 67.772147 
" clip-path="url(#pbe25fb3034)" style="fill: none; stroke: #1f77b4; stroke-width: 1.5"/>
    <path d="M 364.31311 295.488 
L 364.31311 65.434756 
" clip-path="url(#pbe25fb3034)" style="fill: none; stroke: #1f77b4; stroke-width: 1.5"/>
   </g>
   <g id="line2d_31">
    <path d="M 108.00689 143.29362 
L 193.442297 124.60276 
L 278.877703 152.753222 
L 364.31311 165.572915 
" clip-path="url(#pbe25fb3034)" style="fill: none; stroke: #4682b4; stroke-width: 1.5; stroke-linecap: square"/>
   </g>
   <g id="line2d_32">
    <path d="M 108.00689 143.29362 
L 193.442297 124.60276 
L 278.877703 152.753222 
L 364.31311 165.572915 
" clip-path="url(#pbe25fb3034)" style="fill: none; stroke: #4682b4; stroke-width: 1.5; stroke-linecap: square"/>
   </g>
   <g id="patch_3">
    <path d="M 57.6 307.584 
L 57.6 41.472 
" style="fill: none; stroke: #000000; stroke-width: 0.8; stroke-linejoin: miter; stroke-linecap: square"/>
   </g>
   <g id="patch_4">
    <path d="M 414.72 307.584 
L 414.72 41.472 
" style="fill: none; stroke: #000000; stroke-width: 0.8; stroke-linejoin: miter; stroke-linecap: square"/>
   </g>
   <g id="patch_5">
    <path d="M 57.6 307.584 
L 414.72 307.584 
" style="fill: none; stroke: #000000; stroke-width: 0.8; stroke-linejoin: miter; stroke-linecap: square"/>
   </g>
   <g id="patch_6">
    <path d="M 57.6 41.472 
L 414.72 41.472 
" style="fill: none; stroke: #000000; stroke-width: 0.8; stroke-linejoin: miter; stroke-linecap: square"/>
   </g>
   <g id="text_18">
    <!-- Violinplot for progress of profits/storage_cost -->
    <g transform="translate(101.32875 35.472)scale(0.12 -0.12)">
     <defs>
      <path id="DejaVuSans-56" d="M 1831 0 
L 50 4666 
L 709 4666 
L 2188 738 
L 3669 4666 
L 4325 4666 
L 2547 0 
L 1831 0 
z
" transform="scale(0.015625)"/>
      <path id="DejaVuSans-6c" d="M 603 4863 
L 1178 4863 
L 1178 0 
L 603 0 
L 603 4863 
z
" transform="scale(0.015625)"/>
      <path id="DejaVuSans-66" d="M 2375 4863 
L 2375 4384 
L 1825 4384 
Q 1516 4384 1395 4259 
Q 1275 4134 1275 3809 
L 1275 3500 
L 2222 3500 
L 2222 3053 
L 1275 3053 
L 1275 0 
L 697 0 
L 697 3053 
L 147 3053 
L 147 3500 
L 697 3500 
L 697 3744 
Q 697 4328 969 4595 
Q 1241 4863 1831 4863 
L 2375 4863 
z
" transform="scale(0.015625)"/>
      <path id="DejaVuSans-67" d="M 2906 1791 
Q 2906 2416 2648 2759 
Q 2391 3103 1925 3103 
Q 1463 3103 1205 2759 
Q 947 2416 947 1791 
Q 947 1169 1205 825 
Q 1463 481 1925 481 
Q 2391 481 2648 825 
Q 2906 1169 2906 1791 
z
M 3481 434 
Q 3481 -459 3084 -895 
Q 2688 -1331 1869 -1331 
Q 1566 -1331 1297 -1286 
Q 1028 -1241 775 -1147 
L 775 -588 
Q 1028 -725 1275 -790 
Q 1522 -856 1778 -856 
Q 2344 -856 2625 -561 
Q 2906 -266 2906 331 
L 2906 616 
Q 2728 306 2450 153 
Q 2172 0 1784 0 
Q 1141 0 747 490 
Q 353 981 353 1791 
Q 353 2603 747 3093 
Q 1141 3584 1784 3584 
Q 2172 3584 2450 3431 
Q 2728 3278 2906 2969 
L 2906 3500 
L 3481 3500 
L 3481 434 
z
" transform="scale(0.015625)"/>
      <path id="DejaVuSans-2f" d="M 1625 4666 
L 2156 4666 
L 531 -594 
L 0 -594 
L 1625 4666 
z
" transform="scale(0.015625)"/>
      <path id="DejaVuSans-5f" d="M 3263 -1063 
L 3263 -1509 
L -63 -1509 
L -63 -1063 
L 3263 -1063 
z
" transform="scale(0.015625)"/>
      <path id="DejaVuSans-63" d="M 3122 3366 
L 3122 2828 
Q 2878 2963 2633 3030 
Q 2388 3097 2138 3097 
Q 1578 3097 1268 2742 
Q 959 2388 959 1747 
Q 959 1106 1268 751 
Q 1578 397 2138 397 
Q 2388 397 2633 464 
Q 2878 531 3122 666 
L 3122 134 
Q 2881 22 2623 -34 
Q 2366 -91 2075 -91 
Q 1284 -91 818 406 
Q 353 903 353 1747 
Q 353 2603 823 3093 
Q 1294 3584 2113 3584 
Q 2378 3584 2631 3529 
Q 2884 3475 3122 3366 
z
" transform="scale(0.015625)"/>
     </defs>
     <use xlink:href="#DejaVuSans-56"/>
     <use xlink:href="#DejaVuSans-69" x="66.158203"/>
     <use xlink:href="#DejaVuSans-6f" x="93.941406"/>
     <use xlink:href="#DejaVuSans-6c" x="155.123047"/>
     <use xlink:href="#DejaVuSans-69" x="182.90625"/>
     <use xlink:href="#DejaVuSans-6e" x="210.689453"/>
     <use xlink:href="#DejaVuSans-70" x="274.068359"/>
     <use xlink:href="#DejaVuSans-6c" x="337.544922"/>
     <use xlink:href="#DejaVuSans-6f" x="365.328125"/>
     <use xlink:href="#DejaVuSans-74" x="426.509766"/>
     <use xlink:href="#DejaVuSans-20" x="465.71875"/>
     <use xlink:href="#DejaVuSans-66" x="497.505859"/>
     <use xlink:href="#DejaVuSans-6f" x="532.710938"/>
     <use xlink:href="#DejaVuSans-72" x="593.892578"/>
     <use xlink:href="#DejaVuSans-20" x="635.005859"/>
     <use xlink:href="#DejaVuSans-70" x="666.792969"/>
     <use xlink:href="#DejaVuSans-72" x="730.269531"/>
     <use xlink:href="#DejaVuSans-6f" x="769.132812"/>
     <use xlink:href="#DejaVuSans-67" x="830.314453"/>
     <use xlink:href="#DejaVuSans-72" x="893.791016"/>
     <use xlink:href="#DejaVuSans-65" x="932.654297"/>
     <use xlink:href="#DejaVuSans-73" x="994.177734"/>
     <use xlink:href="#DejaVuSans-73" x="1046.277344"/>
     <use xlink:href="#DejaVuSans-20" x="1098.376953"/>
     <use xlink:href="#DejaVuSans-6f" x="1130.164062"/>
     <use xlink:href="#DejaVuSans-66" x="1191.345703"/>
     <use xlink:href="#DejaVuSans-20" x="1226.550781"/>
     <use xlink:href="#DejaVuSans-70" x="1258.337891"/>
     <use xlink:href="#DejaVuSans-72" x="1321.814453"/>
     <use xlink:href="#DejaVuSans-6f" x="1360.677734"/>
     <use xlink:href="#DejaVuSans-66" x="1421.859375"/>
     <use xlink:href="#DejaVuSans-69" x="1457.064453"/>
     <use xlink:href="#DejaVuSans-74" x="1484.847656"/>
     <use xlink:href="#DejaVuSans-73" x="1524.056641"/>
     <use xlink:href="#DejaVuSans-2f" x="1576.15625"/>
     <use xlink:href="#DejaVuSans-73" x="1609.847656"/>
     <use xlink:href="#DejaVuSans-74" x="1661.947266"/>
     <use xlink:href="#DejaVuSans-6f" x="1701.15625"/>
     <use xlink:href="#DejaVuSans-72" x="1762.337891"/>
     <use xlink:href="#DejaVuSans-61" x="1803.451172"/>
     <use xlink:href="#DejaVuSans-67" x="1864.730469"/>
     <use xlink:href="#DejaVuSans-65" x="1928.207031"/>
     <use xlink:href="#DejaVuSans-5f" x="1989.730469"/>
     <use xlink:href="#DejaVuSans-63" x="2039.730469"/>
     <use xlink:href="#DejaVuSans-6f" x="2094.710938"/>
     <use xlink:href="#DejaVuSans-73" x="2155.892578"/>
     <use xlink:href="#DejaVuSans-74" x="2207.992188"/>
    </g>
   </g>
   <g id="legend_1">
    <g id="patch_7">
     <path d="M 276.25125 64.150125 
L 407.72 64.150125 
Q 409.72 64.150125 409.72 62.150125 
L 409.72 48.472 
Q 409.72 46.472 407.72 46.472 
L 276.25125 46.472 
Q 274.25125 46.472 274.25125 48.472 
L 274.25125 62.150125 
Q 274.25125 64.150125 276.25125 64.150125 
z
" style="fill: #ffffff; opacity: 0.8; stroke: #cccccc; stroke-linejoin: miter"/>
    </g>
    <g id="line2d_33">
     <path d="M 278.25125 54.570438 
L 288.25125 54.570438 
L 298.25125 54.570438 
" style="fill: none; stroke: #4682b4; stroke-width: 1.5; stroke-linecap: square"/>
    </g>
    <g id="text_19">
     <!-- StableBaselinesSAC -->
     <g transform="translate(306.25125 58.070438)scale(0.1 -0.1)">
      <defs>
       <path id="DejaVuSans-53" d="M 3425 4513 
L 3425 3897 
Q 3066 4069 2747 4153 
Q 2428 4238 2131 4238 
Q 1616 4238 1336 4038 
Q 1056 3838 1056 3469 
Q 1056 3159 1242 3001 
Q 1428 2844 1947 2747 
L 2328 2669 
Q 3034 2534 3370 2195 
Q 3706 1856 3706 1288 
Q 3706 609 3251 259 
Q 2797 -91 1919 -91 
Q 1588 -91 1214 -16 
Q 841 59 441 206 
L 441 856 
Q 825 641 1194 531 
Q 1563 422 1919 422 
Q 2459 422 2753 634 
Q 3047 847 3047 1241 
Q 3047 1584 2836 1778 
Q 2625 1972 2144 2069 
L 1759 2144 
Q 1053 2284 737 2584 
Q 422 2884 422 3419 
Q 422 4038 858 4394 
Q 1294 4750 2059 4750 
Q 2388 4750 2728 4690 
Q 3069 4631 3425 4513 
z
" transform="scale(0.015625)"/>
       <path id="DejaVuSans-62" d="M 3116 1747 
Q 3116 2381 2855 2742 
Q 2594 3103 2138 3103 
Q 1681 3103 1420 2742 
Q 1159 2381 1159 1747 
Q 1159 1113 1420 752 
Q 1681 391 2138 391 
Q 2594 391 2855 752 
Q 3116 1113 3116 1747 
z
M 1159 2969 
Q 1341 3281 1617 3432 
Q 1894 3584 2278 3584 
Q 2916 3584 3314 3078 
Q 3713 2572 3713 1747 
Q 3713 922 3314 415 
Q 2916 -91 2278 -91 
Q 1894 -91 1617 61 
Q 1341 213 1159 525 
L 1159 0 
L 581 0 
L 581 4863 
L 1159 4863 
L 1159 2969 
z
" transform="scale(0.015625)"/>
       <path id="DejaVuSans-42" d="M 1259 2228 
L 1259 519 
L 2272 519 
Q 2781 519 3026 730 
Q 3272 941 3272 1375 
Q 3272 1813 3026 2020 
Q 2781 2228 2272 2228 
L 1259 2228 
z
M 1259 4147 
L 1259 2741 
L 2194 2741 
Q 2656 2741 2882 2914 
Q 3109 3088 3109 3444 
Q 3109 3797 2882 3972 
Q 2656 4147 2194 4147 
L 1259 4147 
z
M 628 4666 
L 2241 4666 
Q 2963 4666 3353 4366 
Q 3744 4066 3744 3513 
Q 3744 3084 3544 2831 
Q 3344 2578 2956 2516 
Q 3422 2416 3680 2098 
Q 3938 1781 3938 1306 
Q 3938 681 3513 340 
Q 3088 0 2303 0 
L 628 0 
L 628 4666 
z
" transform="scale(0.015625)"/>
       <path id="DejaVuSans-41" d="M 2188 4044 
L 1331 1722 
L 3047 1722 
L 2188 4044 
z
M 1831 4666 
L 2547 4666 
L 4325 0 
L 3669 0 
L 3244 1197 
L 1141 1197 
L 716 0 
L 50 0 
L 1831 4666 
z
" transform="scale(0.015625)"/>
       <path id="DejaVuSans-43" d="M 4122 4306 
L 4122 3641 
Q 3803 3938 3442 4084 
Q 3081 4231 2675 4231 
Q 1875 4231 1450 3742 
Q 1025 3253 1025 2328 
Q 1025 1406 1450 917 
Q 1875 428 2675 428 
Q 3081 428 3442 575 
Q 3803 722 4122 1019 
L 4122 359 
Q 3791 134 3420 21 
Q 3050 -91 2638 -91 
Q 1578 -91 968 557 
Q 359 1206 359 2328 
Q 359 3453 968 4101 
Q 1578 4750 2638 4750 
Q 3056 4750 3426 4639 
Q 3797 4528 4122 4306 
z
" transform="scale(0.015625)"/>
      </defs>
      <use xlink:href="#DejaVuSans-53"/>
      <use xlink:href="#DejaVuSans-74" x="63.476562"/>
      <use xlink:href="#DejaVuSans-61" x="102.685547"/>
      <use xlink:href="#DejaVuSans-62" x="163.964844"/>
      <use xlink:href="#DejaVuSans-6c" x="227.441406"/>
      <use xlink:href="#DejaVuSans-65" x="255.224609"/>
      <use xlink:href="#DejaVuSans-42" x="316.748047"/>
      <use xlink:href="#DejaVuSans-61" x="385.351562"/>
      <use xlink:href="#DejaVuSans-73" x="446.630859"/>
      <use xlink:href="#DejaVuSans-65" x="498.730469"/>
      <use xlink:href="#DejaVuSans-6c" x="560.253906"/>
      <use xlink:href="#DejaVuSans-69" x="588.037109"/>
      <use xlink:href="#DejaVuSans-6e" x="615.820312"/>
      <use xlink:href="#DejaVuSans-65" x="679.199219"/>
      <use xlink:href="#DejaVuSans-73" x="740.722656"/>
      <use xlink:href="#DejaVuSans-53" x="792.822266"/>
      <use xlink:href="#DejaVuSans-41" x="858.173828"/>
      <use xlink:href="#DejaVuSans-43" x="924.832031"/>
     </g>
    </g>
   </g>
  </g>
 </g>
 <defs>
  <clipPath id="pbe25fb3034">
   <rect x="57.6" y="41.472" width="357.12" height="266.112"/>
  </clipPath>
 </defs>
</svg>
