<?xml version="1.0" encoding="utf-8" standalone="no"?>
<!DOCTYPE svg PUBLIC "-//W3C//DTD SVG 1.1//EN"
  "http://www.w3.org/Graphics/SVG/1.1/DTD/svg11.dtd">
<svg xmlns:xlink="http://www.w3.org/1999/xlink" width="460.8pt" height="345.6pt" viewBox="0 0 460.8 345.6" xmlns="http://www.w3.org/2000/svg" version="1.1">
 <metadata>
  <rdf:RDF xmlns:dc="http://purl.org/dc/elements/1.1/" xmlns:cc="http://creativecommons.org/ns#" xmlns:rdf="http://www.w3.org/1999/02/22-rdf-syntax-ns#">
   <cc:Work>
    <dc:type rdf:resource="http://purl.org/dc/dcmitype/StillImage"/>
    <dc:date>2022-06-20T17:59:11.181800</dc:date>
    <dc:format>image/svg+xml</dc:format>
    <dc:creator>
     <cc:Agent>
      <dc:title>Matplotlib v3.5.2, https://matplotlib.org/</dc:title>
     </cc:Agent>
    </dc:creator>
   </cc:Work>
  </rdf:RDF>
 </metadata>
 <defs>
  <style type="text/css">*{stroke-linejoin: round; stroke-linecap: butt}</style>
 </defs>
 <g id="figure_1">
  <g id="patch_1">
   <path d="M 0 345.6 
L 460.8 345.6 
L 460.8 0 
L 0 0 
z
" style="fill: #ffffff"/>
  </g>
  <g id="axes_1">
   <g id="patch_2">
    <path d="M 57.6 307.584 
L 414.72 307.584 
L 414.72 41.472 
L 57.6 41.472 
z
" style="fill: #ffffff"/>
   </g>
   <g id="PolyCollection_1">
    <path d="M 108.279197 295.488 
L 107.734583 295.488 
L 107.740925 293.654869 
L 107.759432 291.821739 
L 107.786921 289.988608 
L 107.81888 288.155477 
L 107.850292 286.322347 
L 107.876447 284.489216 
L 107.893587 282.656085 
L 107.899305 280.822955 
L 107.892731 278.989824 
L 107.874551 277.156693 
L 107.846898 275.323563 
L 107.813063 273.490432 
L 107.776991 271.657301 
L 107.74255 269.824171 
L 107.712663 267.99104 
L 107.688511 266.157909 
L 107.669068 264.324779 
L 107.651134 262.491648 
L 107.629873 260.658517 
L 107.599627 258.825387 
L 107.554587 256.992256 
L 107.48887 255.159126 
L 107.395656 253.325995 
L 107.265369 251.492864 
L 107.083169 249.659734 
L 106.826434 247.826603 
L 106.462998 245.993472 
L 105.951024 244.160342 
L 105.241075 242.327211 
L 104.280662 240.49408 
L 103.020977 238.66095 
L 101.425056 236.827819 
L 99.476199 234.994688 
L 97.185216 233.161558 
L 94.595055 231.328427 
L 91.781578 229.495296 
L 88.849663 227.662166 
L 85.924466 225.829035 
L 83.138505 223.995904 
L 80.616166 222.162774 
L 78.458059 220.329643 
L 76.728115 218.496512 
L 75.44612 216.663382 
L 74.587481 214.830251 
L 74.0905 212.99712 
L 73.869754 211.16399 
L 73.832727 209.330859 
L 73.896132 207.497728 
L 73.998494 205.664598 
L 74.106623 203.831467 
L 74.215127 201.998336 
L 74.339873 200.165206 
L 74.507609 198.332075 
L 74.744684 196.498944 
L 75.067702 194.665814 
L 75.478206 192.832683 
L 75.962358 190.999552 
L 76.495316 189.166422 
L 77.048866 187.333291 
L 77.600024 185.500161 
L 78.138033 183.66703 
L 78.667509 181.833899 
L 79.206502 180.000769 
L 79.779737 178.167638 
L 80.408794 176.334507 
L 81.102074 174.501377 
L 81.847635 172.668246 
L 82.611305 170.835115 
L 83.341093 169.001985 
L 83.97721 167.168854 
L 84.465465 165.335723 
L 84.770785 163.502593 
L 84.887439 161.669462 
L 84.843264 159.836331 
L 84.696743 158.003201 
L 84.527688 156.17007 
L 84.424046 154.336939 
L 84.468261 152.503809 
L 84.726389 150.670678 
L 85.241901 148.837547 
L 86.034336 147.004417 
L 87.101469 145.171286 
L 88.423006 143.338155 
L 89.964129 141.505025 
L 91.678204 139.671894 
L 93.508966 137.838763 
L 95.393104 136.005633 
L 97.264044 134.172502 
L 99.057076 132.339371 
L 100.715183 130.506241 
L 102.194377 128.67311 
L 103.467314 126.839979 
L 104.524418 125.006849 
L 105.372427 123.173718 
L 106.030922 121.340587 
L 106.527758 119.507457 
L 106.894361 117.674326 
L 107.161636 115.841195 
L 107.356961 114.008065 
L 108.656818 114.008065 
L 108.656818 114.008065 
L 108.852144 115.841195 
L 109.119419 117.674326 
L 109.486022 119.507457 
L 109.982858 121.340587 
L 110.641353 123.173718 
L 111.489362 125.006849 
L 112.546466 126.839979 
L 113.819403 128.67311 
L 115.298597 130.506241 
L 116.956704 132.339371 
L 118.749736 134.172502 
L 120.620676 136.005633 
L 122.504814 137.838763 
L 124.335576 139.671894 
L 126.049651 141.505025 
L 127.590774 143.338155 
L 128.91231 145.171286 
L 129.979444 147.004417 
L 130.771879 148.837547 
L 131.287391 150.670678 
L 131.545519 152.503809 
L 131.589734 154.336939 
L 131.486092 156.17007 
L 131.317037 158.003201 
L 131.170516 159.836331 
L 131.126341 161.669462 
L 131.242995 163.502593 
L 131.548315 165.335723 
L 132.03657 167.168854 
L 132.672687 169.001985 
L 133.402474 170.835115 
L 134.166145 172.668246 
L 134.911706 174.501377 
L 135.604986 176.334507 
L 136.234043 178.167638 
L 136.807278 180.000769 
L 137.346271 181.833899 
L 137.875747 183.66703 
L 138.413756 185.500161 
L 138.964914 187.333291 
L 139.518464 189.166422 
L 140.051422 190.999552 
L 140.535573 192.832683 
L 140.946077 194.665814 
L 141.269096 196.498944 
L 141.506171 198.332075 
L 141.673907 200.165206 
L 141.798653 201.998336 
L 141.907157 203.831467 
L 142.015286 205.664598 
L 142.117648 207.497728 
L 142.181053 209.330859 
L 142.144026 211.16399 
L 141.92328 212.99712 
L 141.426299 214.830251 
L 140.56766 216.663382 
L 139.285665 218.496512 
L 137.555721 220.329643 
L 135.397614 222.162774 
L 132.875275 223.995904 
L 130.089314 225.829035 
L 127.164117 227.662166 
L 124.232202 229.495296 
L 121.418725 231.328427 
L 118.828564 233.161558 
L 116.53758 234.994688 
L 114.588724 236.827819 
L 112.992803 238.66095 
L 111.733118 240.49408 
L 110.772705 242.327211 
L 110.062756 244.160342 
L 109.550781 245.993472 
L 109.187346 247.826603 
L 108.93061 249.659734 
L 108.748411 251.492864 
L 108.618123 253.325995 
L 108.52491 255.159126 
L 108.459193 256.992256 
L 108.414153 258.825387 
L 108.383907 260.658517 
L 108.362646 262.491648 
L 108.344712 264.324779 
L 108.325269 266.157909 
L 108.301117 267.99104 
L 108.27123 269.824171 
L 108.236789 271.657301 
L 108.200717 273.490432 
L 108.166882 275.323563 
L 108.139229 277.156693 
L 108.121049 278.989824 
L 108.114475 280.822955 
L 108.120193 282.656085 
L 108.137333 284.489216 
L 108.163488 286.322347 
L 108.194899 288.155477 
L 108.226859 289.988608 
L 108.254348 291.821739 
L 108.272855 293.654869 
L 108.279197 295.488 
z
" clip-path="url(#p57ad64be53)" style="fill: #1f77b4; fill-opacity: 0.3"/>
   </g>
   <g id="PolyCollection_2">
    <path d="M 193.705432 283.768843 
L 193.179162 283.768843 
L 193.186098 281.559757 
L 193.205827 279.350671 
L 193.235392 277.141585 
L 193.270678 274.932499 
L 193.307352 272.723413 
L 193.341708 270.514327 
L 193.371218 268.305241 
L 193.394684 266.096155 
L 193.412061 263.887069 
L 193.424095 261.677983 
L 193.431906 259.468897 
L 193.436665 257.259811 
L 193.439378 255.050725 
L 193.44079 252.841639 
L 193.441365 250.632553 
L 193.441278 248.423467 
L 193.440372 246.214381 
L 193.43803 244.005295 
L 193.432899 241.796209 
L 193.422431 239.587123 
L 193.402225 237.378037 
L 193.3652 235.168951 
L 193.300742 232.959865 
L 193.194067 230.750779 
L 193.026162 228.541693 
L 192.774645 226.332607 
L 192.415786 224.123521 
L 191.927596 221.914435 
L 191.293514 219.705349 
L 190.505861 217.496263 
L 189.568089 215.287177 
L 188.495056 213.078091 
L 187.311093 210.869005 
L 186.0462 208.659919 
L 184.731287 206.450833 
L 183.393468 204.241747 
L 182.052299 202.032661 
L 180.717477 199.823575 
L 179.388214 197.614489 
L 178.054338 195.405403 
L 176.69915 193.196317 
L 175.303901 190.987231 
L 173.853409 188.778145 
L 172.341791 186.569059 
L 170.776838 184.359973 
L 169.181609 182.150887 
L 167.592413 179.941801 
L 166.053507 177.732715 
L 164.610008 175.523629 
L 163.301193 173.314543 
L 162.1562 171.105457 
L 161.193135 168.896371 
L 160.42112 166.687285 
L 159.84364 164.478199 
L 159.461121 162.269113 
L 159.271409 160.060027 
L 159.268134 157.850941 
L 159.438327 155.641855 
L 159.761088 153.432769 
L 160.208539 151.223683 
L 160.748934 149.014597 
L 161.350563 146.805511 
L 161.984766 144.596425 
L 162.627059 142.387339 
L 163.256704 140.178253 
L 163.85604 137.969167 
L 164.410999 135.760081 
L 164.913338 133.550995 
L 165.363772 131.341909 
L 165.774235 129.132823 
L 166.16747 126.923737 
L 166.573128 124.714651 
L 167.02111 122.505565 
L 167.534208 120.296479 
L 168.122621 118.087393 
L 168.782359 115.878307 
L 169.498219 113.669221 
L 170.250445 111.460135 
L 171.022903 109.251049 
L 171.810158 107.041963 
L 172.621133 104.832877 
L 173.478091 102.623791 
L 174.41108 100.414705 
L 175.449373 98.205619 
L 176.612344 95.996533 
L 177.902388 93.787447 
L 179.301821 91.578361 
L 180.77445 89.369275 
L 182.271176 87.160189 
L 183.738018 84.951103 
L 185.124589 82.742017 
L 186.391234 80.532931 
L 187.513583 78.323845 
L 188.483877 76.114759 
L 189.30914 73.905673 
L 190.006847 71.696587 
L 190.599325 69.487501 
L 191.10831 67.278415 
L 191.550986 65.069329 
L 195.333607 65.069329 
L 195.333607 65.069329 
L 195.776283 67.278415 
L 196.285268 69.487501 
L 196.877746 71.696587 
L 197.575453 73.905673 
L 198.400716 76.114759 
L 199.37101 78.323845 
L 200.493359 80.532931 
L 201.760005 82.742017 
L 203.146575 84.951103 
L 204.613417 87.160189 
L 206.110143 89.369275 
L 207.582772 91.578361 
L 208.982205 93.787447 
L 210.27225 95.996533 
L 211.43522 98.205619 
L 212.473513 100.414705 
L 213.406502 102.623791 
L 214.26346 104.832877 
L 215.074436 107.041963 
L 215.861691 109.251049 
L 216.634149 111.460135 
L 217.386374 113.669221 
L 218.102235 115.878307 
L 218.761972 118.087393 
L 219.350385 120.296479 
L 219.863484 122.505565 
L 220.311465 124.714651 
L 220.717123 126.923737 
L 221.110358 129.132823 
L 221.520822 131.341909 
L 221.971255 133.550995 
L 222.473594 135.760081 
L 223.028554 137.969167 
L 223.62789 140.178253 
L 224.257535 142.387339 
L 224.899827 144.596425 
L 225.53403 146.805511 
L 226.13566 149.014597 
L 226.676054 151.223683 
L 227.123506 153.432769 
L 227.446266 155.641855 
L 227.616459 157.850941 
L 227.613185 160.060027 
L 227.423472 162.269113 
L 227.040954 164.478199 
L 226.463473 166.687285 
L 225.691459 168.896371 
L 224.728393 171.105457 
L 223.5834 173.314543 
L 222.274585 175.523629 
L 220.831087 177.732715 
L 219.292181 179.941801 
L 217.702984 182.150887 
L 216.107756 184.359973 
L 214.542803 186.569059 
L 213.031184 188.778145 
L 211.580692 190.987231 
L 210.185443 193.196317 
L 208.830255 195.405403 
L 207.496379 197.614489 
L 206.167116 199.823575 
L 204.832294 202.032661 
L 203.491125 204.241747 
L 202.153306 206.450833 
L 200.838393 208.659919 
L 199.573501 210.869005 
L 198.389537 213.078091 
L 197.316505 215.287177 
L 196.378732 217.496263 
L 195.59108 219.705349 
L 194.956998 221.914435 
L 194.468807 224.123521 
L 194.109948 226.332607 
L 193.858431 228.541693 
L 193.690526 230.750779 
L 193.583851 232.959865 
L 193.519393 235.168951 
L 193.482368 237.378037 
L 193.462162 239.587123 
L 193.451694 241.796209 
L 193.446563 244.005295 
L 193.444221 246.214381 
L 193.443316 248.423467 
L 193.443228 250.632553 
L 193.443803 252.841639 
L 193.445215 255.050725 
L 193.447928 257.259811 
L 193.452687 259.468897 
L 193.460499 261.677983 
L 193.472532 263.887069 
L 193.489909 266.096155 
L 193.513375 268.305241 
L 193.542885 270.514327 
L 193.577242 272.723413 
L 193.613915 274.932499 
L 193.649202 277.141585 
L 193.678766 279.350671 
L 193.698496 281.559757 
L 193.705432 283.768843 
z
" clip-path="url(#p57ad64be53)" style="fill: #1f77b4; fill-opacity: 0.3"/>
   </g>
   <g id="PolyCollection_3">
    <path d="M 279.995629 228.44048 
L 277.759778 228.44048 
L 277.553178 226.676731 
L 277.306696 224.912983 
L 277.011429 223.149235 
L 276.658242 221.385486 
L 276.23846 219.621738 
L 275.744532 217.85799 
L 275.170562 216.094241 
L 274.512669 214.330493 
L 273.769119 212.566745 
L 272.940275 210.802996 
L 272.028376 209.039248 
L 271.037217 207.2755 
L 269.97174 205.511751 
L 268.837586 203.748003 
L 267.640609 201.984255 
L 266.386412 200.220506 
L 265.079936 198.456758 
L 263.725244 196.69301 
L 262.325611 194.929261 
L 260.88404 193.165513 
L 259.40428 191.401765 
L 257.892255 189.638016 
L 256.35771 187.874268 
L 254.815695 186.11052 
L 253.287459 184.346771 
L 251.800335 182.583023 
L 250.386375 180.819274 
L 249.079736 179.055526 
L 247.913159 177.291778 
L 246.914115 175.528029 
L 246.101376 173.764281 
L 245.482724 172.000533 
L 245.054323 170.236784 
L 244.801899 168.473036 
L 244.703541 166.709288 
L 244.733517 164.945539 
L 244.866361 163.181791 
L 245.080387 161.418043 
L 245.359996 159.654294 
L 245.696393 157.890546 
L 246.086694 156.126798 
L 246.531752 154.363049 
L 247.033256 152.599301 
L 247.590796 150.835553 
L 248.199512 149.071804 
L 248.848815 147.308056 
L 249.522387 145.544308 
L 250.199405 143.780559 
L 250.856684 142.016811 
L 251.471281 140.253063 
L 252.023061 138.489314 
L 252.49678 136.725566 
L 252.883375 134.961818 
L 253.180371 133.198069 
L 253.391435 131.434321 
L 253.525295 129.670573 
L 253.59428 127.906824 
L 253.612751 126.143076 
L 253.595686 124.379328 
L 253.557569 122.615579 
L 253.511686 120.851831 
L 253.469865 119.088083 
L 253.442592 117.324334 
L 253.439422 115.560586 
L 253.469529 113.796837 
L 253.542235 112.033089 
L 253.667365 110.269341 
L 253.85532 108.505592 
L 254.116813 106.741844 
L 254.462311 104.978096 
L 254.901258 103.214347 
L 255.441214 101.450599 
L 256.087029 99.686851 
L 256.84013 97.923102 
L 257.697993 96.159354 
L 258.653819 94.395606 
L 259.69645 92.631857 
L 260.81057 90.868109 
L 261.977249 89.104361 
L 263.174895 87.340612 
L 264.38058 85.576864 
L 265.571689 83.813116 
L 266.72766 82.049367 
L 267.831593 80.285619 
L 268.871415 78.521871 
L 269.840401 76.758122 
L 270.736946 74.994374 
L 271.563657 73.230626 
L 272.325959 71.466877 
L 273.030526 69.703129 
L 273.683849 67.939381 
L 274.291178 66.175632 
L 274.855985 64.411884 
L 275.379945 62.648136 
L 275.863316 60.884387 
L 276.305547 59.120639 
L 276.705926 57.356891 
L 277.064118 55.593142 
L 277.38051 53.829394 
L 280.374896 53.829394 
L 280.374896 53.829394 
L 280.691288 55.593142 
L 281.049481 57.356891 
L 281.44986 59.120639 
L 281.89209 60.884387 
L 282.375461 62.648136 
L 282.899422 64.411884 
L 283.464229 66.175632 
L 284.071557 67.939381 
L 284.724881 69.703129 
L 285.429448 71.466877 
L 286.19175 73.230626 
L 287.01846 74.994374 
L 287.915006 76.758122 
L 288.883992 78.521871 
L 289.923814 80.285619 
L 291.027747 82.049367 
L 292.183718 83.813116 
L 293.374826 85.576864 
L 294.580512 87.340612 
L 295.778157 89.104361 
L 296.944837 90.868109 
L 298.058956 92.631857 
L 299.101588 94.395606 
L 300.057414 96.159354 
L 300.915277 97.923102 
L 301.668378 99.686851 
L 302.314192 101.450599 
L 302.854149 103.214347 
L 303.293096 104.978096 
L 303.638594 106.741844 
L 303.900087 108.505592 
L 304.088042 110.269341 
L 304.213172 112.033089 
L 304.285877 113.796837 
L 304.315985 115.560586 
L 304.312815 117.324334 
L 304.285542 119.088083 
L 304.243721 120.851831 
L 304.197838 122.615579 
L 304.15972 124.379328 
L 304.142656 126.143076 
L 304.161127 127.906824 
L 304.230111 129.670573 
L 304.363972 131.434321 
L 304.575036 133.198069 
L 304.872032 134.961818 
L 305.258627 136.725566 
L 305.732345 138.489314 
L 306.284126 140.253063 
L 306.898723 142.016811 
L 307.556002 143.780559 
L 308.23302 145.544308 
L 308.906592 147.308056 
L 309.555895 149.071804 
L 310.164611 150.835553 
L 310.722151 152.599301 
L 311.223655 154.363049 
L 311.668712 156.126798 
L 312.059013 157.890546 
L 312.39541 159.654294 
L 312.67502 161.418043 
L 312.889046 163.181791 
L 313.021889 164.945539 
L 313.051866 166.709288 
L 312.953508 168.473036 
L 312.701084 170.236784 
L 312.272682 172.000533 
L 311.654031 173.764281 
L 310.841291 175.528029 
L 309.842247 177.291778 
L 308.675671 179.055526 
L 307.369032 180.819274 
L 305.955071 182.583023 
L 304.467948 184.346771 
L 302.939712 186.11052 
L 301.397697 187.874268 
L 299.863152 189.638016 
L 298.351127 191.401765 
L 296.871367 193.165513 
L 295.429796 194.929261 
L 294.030163 196.69301 
L 292.675471 198.456758 
L 291.368995 200.220506 
L 290.114797 201.984255 
L 288.917821 203.748003 
L 287.783666 205.511751 
L 286.71819 207.2755 
L 285.727031 209.039248 
L 284.815132 210.802996 
L 283.986287 212.566745 
L 283.242738 214.330493 
L 282.584844 216.094241 
L 282.010875 217.85799 
L 281.516946 219.621738 
L 281.097165 221.385486 
L 280.743977 223.149235 
L 280.44871 224.912983 
L 280.202229 226.676731 
L 279.995629 228.44048 
z
" clip-path="url(#p57ad64be53)" style="fill: #1f77b4; fill-opacity: 0.3"/>
   </g>
   <g id="PolyCollection_4">
    <path d="M 364.946885 231.359378 
L 363.679335 231.359378 
L 363.518717 229.563505 
L 363.31015 227.767633 
L 363.041513 225.97176 
L 362.700569 224.175888 
L 362.276074 222.380015 
L 361.758957 220.584143 
L 361.143416 218.78827 
L 360.427744 216.992398 
L 359.61476 215.196525 
L 358.711708 213.400653 
L 357.729621 211.60478 
L 356.682172 209.808908 
L 355.584134 208.013035 
L 354.449647 206.217163 
L 353.290509 204.42129 
L 352.11475 202.625418 
L 350.925701 200.829545 
L 349.721747 199.033673 
L 348.496858 197.2378 
L 347.241903 195.441928 
L 345.946648 193.646055 
L 344.602233 191.850183 
L 343.203845 190.05431 
L 341.753229 188.258438 
L 340.260661 186.462565 
L 338.746038 184.666693 
L 337.238801 182.87082 
L 335.776572 181.074948 
L 334.40252 179.279075 
L 333.161703 177.483203 
L 332.096789 175.68733 
L 331.243686 173.891458 
L 330.627662 172.095585 
L 330.260483 170.299713 
L 330.138947 168.50384 
L 330.244998 166.707968 
L 330.547355 164.912095 
L 331.004406 163.116223 
L 331.567951 161.32035 
L 332.187326 159.524478 
L 332.813461 157.728605 
L 333.402518 155.932733 
L 333.918853 154.13686 
L 334.337182 152.340988 
L 334.64388 150.545115 
L 334.837411 148.749243 
L 334.927867 146.95337 
L 334.935606 145.157498 
L 334.889 143.361625 
L 334.821364 141.565753 
L 334.767266 139.76988 
L 334.758536 137.974008 
L 334.820471 136.178135 
L 334.968751 134.382263 
L 335.207597 132.58639 
L 335.529535 130.790518 
L 335.91687 128.994645 
L 336.34468 127.198773 
L 336.784841 125.4029 
L 337.210419 123.607028 
L 337.599686 121.811155 
L 337.939145 120.015283 
L 338.225138 118.21941 
L 338.463939 116.423538 
L 338.670457 114.627665 
L 338.865934 112.831793 
L 339.07508 111.03592 
L 339.323116 109.240048 
L 339.633098 107.444175 
L 340.023793 105.648303 
L 340.508235 103.85243 
L 341.093013 102.056558 
L 341.77824 100.260685 
L 342.558139 98.464813 
L 343.42212 96.66894 
L 344.35617 94.873068 
L 345.3444 93.077195 
L 346.370523 91.281323 
L 347.419071 89.48545 
L 348.476236 87.689578 
L 349.530245 85.893705 
L 350.571321 84.097833 
L 351.59135 82.30196 
L 352.583416 80.506088 
L 353.54139 78.710215 
L 354.459701 76.914343 
L 355.333352 75.11847 
L 356.158143 73.322598 
L 356.931031 71.526725 
L 357.650464 69.730853 
L 358.316596 67.93498 
L 358.931272 66.139108 
L 359.497776 64.343235 
L 360.020358 62.547363 
L 360.503637 60.75149 
L 360.951984 58.955618 
L 361.368999 57.159745 
L 361.75716 55.363873 
L 362.117702 53.568 
L 366.508518 53.568 
L 366.508518 53.568 
L 366.86906 55.363873 
L 367.257221 57.159745 
L 367.674236 58.955618 
L 368.122583 60.75149 
L 368.605862 62.547363 
L 369.128444 64.343235 
L 369.694948 66.139108 
L 370.309625 67.93498 
L 370.975756 69.730853 
L 371.695189 71.526725 
L 372.468077 73.322598 
L 373.292868 75.11847 
L 374.166519 76.914343 
L 375.08483 78.710215 
L 376.042804 80.506088 
L 377.03487 82.30196 
L 378.054899 84.097833 
L 379.095975 85.893705 
L 380.149984 87.689578 
L 381.207149 89.48545 
L 382.255697 91.281323 
L 383.28182 93.077195 
L 384.270051 94.873068 
L 385.2041 96.66894 
L 386.068081 98.464813 
L 386.847981 100.260685 
L 387.533207 102.056558 
L 388.117985 103.85243 
L 388.602427 105.648303 
L 388.993122 107.444175 
L 389.303104 109.240048 
L 389.55114 111.03592 
L 389.760286 112.831793 
L 389.955763 114.627665 
L 390.162281 116.423538 
L 390.401082 118.21941 
L 390.687075 120.015283 
L 391.026534 121.811155 
L 391.415801 123.607028 
L 391.841379 125.4029 
L 392.28154 127.198773 
L 392.70935 128.994645 
L 393.096685 130.790518 
L 393.418623 132.58639 
L 393.657469 134.382263 
L 393.805749 136.178135 
L 393.867684 137.974008 
L 393.858955 139.76988 
L 393.804856 141.565753 
L 393.73722 143.361625 
L 393.690614 145.157498 
L 393.698353 146.95337 
L 393.788809 148.749243 
L 393.98234 150.545115 
L 394.289038 152.340988 
L 394.707367 154.13686 
L 395.223703 155.932733 
L 395.812759 157.728605 
L 396.438894 159.524478 
L 397.058269 161.32035 
L 397.621814 163.116223 
L 398.078865 164.912095 
L 398.381222 166.707968 
L 398.487273 168.50384 
L 398.365737 170.299713 
L 397.998558 172.095585 
L 397.382534 173.891458 
L 396.529431 175.68733 
L 395.464517 177.483203 
L 394.2237 179.279075 
L 392.849648 181.074948 
L 391.387419 182.87082 
L 389.880183 184.666693 
L 388.365559 186.462565 
L 386.872991 188.258438 
L 385.422375 190.05431 
L 384.023987 191.850183 
L 382.679572 193.646055 
L 381.384317 195.441928 
L 380.129362 197.2378 
L 378.904473 199.033673 
L 377.700519 200.829545 
L 376.51147 202.625418 
L 375.335711 204.42129 
L 374.176573 206.217163 
L 373.042086 208.013035 
L 371.944048 209.808908 
L 370.896599 211.60478 
L 369.914512 213.400653 
L 369.01146 215.196525 
L 368.198476 216.992398 
L 367.482805 218.78827 
L 366.867263 220.584143 
L 366.350146 222.380015 
L 365.925651 224.175888 
L 365.584707 225.97176 
L 365.31607 227.767633 
L 365.107503 229.563505 
L 364.946885 231.359378 
z
" clip-path="url(#p57ad64be53)" style="fill: #1f77b4; fill-opacity: 0.3"/>
   </g>
   <g id="matplotlib.axis_1">
    <g id="xtick_1">
     <g id="line2d_1">
      <path d="M 65.289187 307.584 
L 65.289187 41.472 
" clip-path="url(#p57ad64be53)" style="fill: none; stroke-dasharray: 2.96,1.28; stroke-dashoffset: 0; stroke: #b0b0b0; stroke-width: 0.8"/>
     </g>
     <g id="line2d_2">
      <defs>
       <path id="m5fd3f4c251" d="M 0 0 
L 0 3.5 
" style="stroke: #000000; stroke-width: 0.8"/>
      </defs>
      <g>
       <use xlink:href="#m5fd3f4c251" x="65.289187" y="307.584" style="stroke: #000000; stroke-width: 0.8"/>
      </g>
     </g>
     <g id="text_1">
      <!-- 250 -->
      <g transform="translate(55.745437 322.182437)scale(0.1 -0.1)">
       <defs>
        <path id="DejaVuSans-32" d="M 1228 531 
L 3431 531 
L 3431 0 
L 469 0 
L 469 531 
Q 828 903 1448 1529 
Q 2069 2156 2228 2338 
Q 2531 2678 2651 2914 
Q 2772 3150 2772 3378 
Q 2772 3750 2511 3984 
Q 2250 4219 1831 4219 
Q 1534 4219 1204 4116 
Q 875 4013 500 3803 
L 500 4441 
Q 881 4594 1212 4672 
Q 1544 4750 1819 4750 
Q 2544 4750 2975 4387 
Q 3406 4025 3406 3419 
Q 3406 3131 3298 2873 
Q 3191 2616 2906 2266 
Q 2828 2175 2409 1742 
Q 1991 1309 1228 531 
z
" transform="scale(0.015625)"/>
        <path id="DejaVuSans-35" d="M 691 4666 
L 3169 4666 
L 3169 4134 
L 1269 4134 
L 1269 2991 
Q 1406 3038 1543 3061 
Q 1681 3084 1819 3084 
Q 2600 3084 3056 2656 
Q 3513 2228 3513 1497 
Q 3513 744 3044 326 
Q 2575 -91 1722 -91 
Q 1428 -91 1123 -41 
Q 819 9 494 109 
L 494 744 
Q 775 591 1075 516 
Q 1375 441 1709 441 
Q 2250 441 2565 725 
Q 2881 1009 2881 1497 
Q 2881 1984 2565 2268 
Q 2250 2553 1709 2553 
Q 1456 2553 1204 2497 
Q 953 2441 691 2322 
L 691 4666 
z
" transform="scale(0.015625)"/>
        <path id="DejaVuSans-30" d="M 2034 4250 
Q 1547 4250 1301 3770 
Q 1056 3291 1056 2328 
Q 1056 1369 1301 889 
Q 1547 409 2034 409 
Q 2525 409 2770 889 
Q 3016 1369 3016 2328 
Q 3016 3291 2770 3770 
Q 2525 4250 2034 4250 
z
M 2034 4750 
Q 2819 4750 3233 4129 
Q 3647 3509 3647 2328 
Q 3647 1150 3233 529 
Q 2819 -91 2034 -91 
Q 1250 -91 836 529 
Q 422 1150 422 2328 
Q 422 3509 836 4129 
Q 1250 4750 2034 4750 
z
" transform="scale(0.015625)"/>
       </defs>
       <use xlink:href="#DejaVuSans-32"/>
       <use xlink:href="#DejaVuSans-35" x="63.623047"/>
       <use xlink:href="#DejaVuSans-30" x="127.246094"/>
      </g>
     </g>
    </g>
    <g id="xtick_2">
     <g id="line2d_3">
      <path d="M 108.00689 307.584 
L 108.00689 41.472 
" clip-path="url(#p57ad64be53)" style="fill: none; stroke-dasharray: 2.96,1.28; stroke-dashoffset: 0; stroke: #b0b0b0; stroke-width: 0.8"/>
     </g>
     <g id="line2d_4">
      <g>
       <use xlink:href="#m5fd3f4c251" x="108.00689" y="307.584" style="stroke: #000000; stroke-width: 0.8"/>
      </g>
     </g>
     <g id="text_2">
      <!-- 500 -->
      <g transform="translate(98.46314 322.182437)scale(0.1 -0.1)">
       <use xlink:href="#DejaVuSans-35"/>
       <use xlink:href="#DejaVuSans-30" x="63.623047"/>
       <use xlink:href="#DejaVuSans-30" x="127.246094"/>
      </g>
     </g>
    </g>
    <g id="xtick_3">
     <g id="line2d_5">
      <path d="M 150.724593 307.584 
L 150.724593 41.472 
" clip-path="url(#p57ad64be53)" style="fill: none; stroke-dasharray: 2.96,1.28; stroke-dashoffset: 0; stroke: #b0b0b0; stroke-width: 0.8"/>
     </g>
     <g id="line2d_6">
      <g>
       <use xlink:href="#m5fd3f4c251" x="150.724593" y="307.584" style="stroke: #000000; stroke-width: 0.8"/>
      </g>
     </g>
     <g id="text_3">
      <!-- 750 -->
      <g transform="translate(141.180843 322.182437)scale(0.1 -0.1)">
       <defs>
        <path id="DejaVuSans-37" d="M 525 4666 
L 3525 4666 
L 3525 4397 
L 1831 0 
L 1172 0 
L 2766 4134 
L 525 4134 
L 525 4666 
z
" transform="scale(0.015625)"/>
       </defs>
       <use xlink:href="#DejaVuSans-37"/>
       <use xlink:href="#DejaVuSans-35" x="63.623047"/>
       <use xlink:href="#DejaVuSans-30" x="127.246094"/>
      </g>
     </g>
    </g>
    <g id="xtick_4">
     <g id="line2d_7">
      <path d="M 193.442297 307.584 
L 193.442297 41.472 
" clip-path="url(#p57ad64be53)" style="fill: none; stroke-dasharray: 2.96,1.28; stroke-dashoffset: 0; stroke: #b0b0b0; stroke-width: 0.8"/>
     </g>
     <g id="line2d_8">
      <g>
       <use xlink:href="#m5fd3f4c251" x="193.442297" y="307.584" style="stroke: #000000; stroke-width: 0.8"/>
      </g>
     </g>
     <g id="text_4">
      <!-- 1000 -->
      <g transform="translate(180.717297 322.182437)scale(0.1 -0.1)">
       <defs>
        <path id="DejaVuSans-31" d="M 794 531 
L 1825 531 
L 1825 4091 
L 703 3866 
L 703 4441 
L 1819 4666 
L 2450 4666 
L 2450 531 
L 3481 531 
L 3481 0 
L 794 0 
L 794 531 
z
" transform="scale(0.015625)"/>
       </defs>
       <use xlink:href="#DejaVuSans-31"/>
       <use xlink:href="#DejaVuSans-30" x="63.623047"/>
       <use xlink:href="#DejaVuSans-30" x="127.246094"/>
       <use xlink:href="#DejaVuSans-30" x="190.869141"/>
      </g>
     </g>
    </g>
    <g id="xtick_5">
     <g id="line2d_9">
      <path d="M 236.16 307.584 
L 236.16 41.472 
" clip-path="url(#p57ad64be53)" style="fill: none; stroke-dasharray: 2.96,1.28; stroke-dashoffset: 0; stroke: #b0b0b0; stroke-width: 0.8"/>
     </g>
     <g id="line2d_10">
      <g>
       <use xlink:href="#m5fd3f4c251" x="236.16" y="307.584" style="stroke: #000000; stroke-width: 0.8"/>
      </g>
     </g>
     <g id="text_5">
      <!-- 1250 -->
      <g transform="translate(223.435 322.182437)scale(0.1 -0.1)">
       <use xlink:href="#DejaVuSans-31"/>
       <use xlink:href="#DejaVuSans-32" x="63.623047"/>
       <use xlink:href="#DejaVuSans-35" x="127.246094"/>
       <use xlink:href="#DejaVuSans-30" x="190.869141"/>
      </g>
     </g>
    </g>
    <g id="xtick_6">
     <g id="line2d_11">
      <path d="M 278.877703 307.584 
L 278.877703 41.472 
" clip-path="url(#p57ad64be53)" style="fill: none; stroke-dasharray: 2.96,1.28; stroke-dashoffset: 0; stroke: #b0b0b0; stroke-width: 0.8"/>
     </g>
     <g id="line2d_12">
      <g>
       <use xlink:href="#m5fd3f4c251" x="278.877703" y="307.584" style="stroke: #000000; stroke-width: 0.8"/>
      </g>
     </g>
     <g id="text_6">
      <!-- 1500 -->
      <g transform="translate(266.152703 322.182437)scale(0.1 -0.1)">
       <use xlink:href="#DejaVuSans-31"/>
       <use xlink:href="#DejaVuSans-35" x="63.623047"/>
       <use xlink:href="#DejaVuSans-30" x="127.246094"/>
       <use xlink:href="#DejaVuSans-30" x="190.869141"/>
      </g>
     </g>
    </g>
    <g id="xtick_7">
     <g id="line2d_13">
      <path d="M 321.595407 307.584 
L 321.595407 41.472 
" clip-path="url(#p57ad64be53)" style="fill: none; stroke-dasharray: 2.96,1.28; stroke-dashoffset: 0; stroke: #b0b0b0; stroke-width: 0.8"/>
     </g>
     <g id="line2d_14">
      <g>
       <use xlink:href="#m5fd3f4c251" x="321.595407" y="307.584" style="stroke: #000000; stroke-width: 0.8"/>
      </g>
     </g>
     <g id="text_7">
      <!-- 1750 -->
      <g transform="translate(308.870407 322.182437)scale(0.1 -0.1)">
       <use xlink:href="#DejaVuSans-31"/>
       <use xlink:href="#DejaVuSans-37" x="63.623047"/>
       <use xlink:href="#DejaVuSans-35" x="127.246094"/>
       <use xlink:href="#DejaVuSans-30" x="190.869141"/>
      </g>
     </g>
    </g>
    <g id="xtick_8">
     <g id="line2d_15">
      <path d="M 364.31311 307.584 
L 364.31311 41.472 
" clip-path="url(#p57ad64be53)" style="fill: none; stroke-dasharray: 2.96,1.28; stroke-dashoffset: 0; stroke: #b0b0b0; stroke-width: 0.8"/>
     </g>
     <g id="line2d_16">
      <g>
       <use xlink:href="#m5fd3f4c251" x="364.31311" y="307.584" style="stroke: #000000; stroke-width: 0.8"/>
      </g>
     </g>
     <g id="text_8">
      <!-- 2000 -->
      <g transform="translate(351.58811 322.182437)scale(0.1 -0.1)">
       <use xlink:href="#DejaVuSans-32"/>
       <use xlink:href="#DejaVuSans-30" x="63.623047"/>
       <use xlink:href="#DejaVuSans-30" x="127.246094"/>
       <use xlink:href="#DejaVuSans-30" x="190.869141"/>
      </g>
     </g>
    </g>
    <g id="xtick_9">
     <g id="line2d_17">
      <path d="M 407.030813 307.584 
L 407.030813 41.472 
" clip-path="url(#p57ad64be53)" style="fill: none; stroke-dasharray: 2.96,1.28; stroke-dashoffset: 0; stroke: #b0b0b0; stroke-width: 0.8"/>
     </g>
     <g id="line2d_18">
      <g>
       <use xlink:href="#m5fd3f4c251" x="407.030813" y="307.584" style="stroke: #000000; stroke-width: 0.8"/>
      </g>
     </g>
     <g id="text_9">
      <!-- 2250 -->
      <g transform="translate(394.305813 322.182437)scale(0.1 -0.1)">
       <use xlink:href="#DejaVuSans-32"/>
       <use xlink:href="#DejaVuSans-32" x="63.623047"/>
       <use xlink:href="#DejaVuSans-35" x="127.246094"/>
       <use xlink:href="#DejaVuSans-30" x="190.869141"/>
      </g>
     </g>
    </g>
    <g id="text_10">
     <!-- Learned Episodes -->
     <g transform="translate(192.102187 335.860562)scale(0.1 -0.1)">
      <defs>
       <path id="DejaVuSans-4c" d="M 628 4666 
L 1259 4666 
L 1259 531 
L 3531 531 
L 3531 0 
L 628 0 
L 628 4666 
z
" transform="scale(0.015625)"/>
       <path id="DejaVuSans-65" d="M 3597 1894 
L 3597 1613 
L 953 1613 
Q 991 1019 1311 708 
Q 1631 397 2203 397 
Q 2534 397 2845 478 
Q 3156 559 3463 722 
L 3463 178 
Q 3153 47 2828 -22 
Q 2503 -91 2169 -91 
Q 1331 -91 842 396 
Q 353 884 353 1716 
Q 353 2575 817 3079 
Q 1281 3584 2069 3584 
Q 2775 3584 3186 3129 
Q 3597 2675 3597 1894 
z
M 3022 2063 
Q 3016 2534 2758 2815 
Q 2500 3097 2075 3097 
Q 1594 3097 1305 2825 
Q 1016 2553 972 2059 
L 3022 2063 
z
" transform="scale(0.015625)"/>
       <path id="DejaVuSans-61" d="M 2194 1759 
Q 1497 1759 1228 1600 
Q 959 1441 959 1056 
Q 959 750 1161 570 
Q 1363 391 1709 391 
Q 2188 391 2477 730 
Q 2766 1069 2766 1631 
L 2766 1759 
L 2194 1759 
z
M 3341 1997 
L 3341 0 
L 2766 0 
L 2766 531 
Q 2569 213 2275 61 
Q 1981 -91 1556 -91 
Q 1019 -91 701 211 
Q 384 513 384 1019 
Q 384 1609 779 1909 
Q 1175 2209 1959 2209 
L 2766 2209 
L 2766 2266 
Q 2766 2663 2505 2880 
Q 2244 3097 1772 3097 
Q 1472 3097 1187 3025 
Q 903 2953 641 2809 
L 641 3341 
Q 956 3463 1253 3523 
Q 1550 3584 1831 3584 
Q 2591 3584 2966 3190 
Q 3341 2797 3341 1997 
z
" transform="scale(0.015625)"/>
       <path id="DejaVuSans-72" d="M 2631 2963 
Q 2534 3019 2420 3045 
Q 2306 3072 2169 3072 
Q 1681 3072 1420 2755 
Q 1159 2438 1159 1844 
L 1159 0 
L 581 0 
L 581 3500 
L 1159 3500 
L 1159 2956 
Q 1341 3275 1631 3429 
Q 1922 3584 2338 3584 
Q 2397 3584 2469 3576 
Q 2541 3569 2628 3553 
L 2631 2963 
z
" transform="scale(0.015625)"/>
       <path id="DejaVuSans-6e" d="M 3513 2113 
L 3513 0 
L 2938 0 
L 2938 2094 
Q 2938 2591 2744 2837 
Q 2550 3084 2163 3084 
Q 1697 3084 1428 2787 
Q 1159 2491 1159 1978 
L 1159 0 
L 581 0 
L 581 3500 
L 1159 3500 
L 1159 2956 
Q 1366 3272 1645 3428 
Q 1925 3584 2291 3584 
Q 2894 3584 3203 3211 
Q 3513 2838 3513 2113 
z
" transform="scale(0.015625)"/>
       <path id="DejaVuSans-64" d="M 2906 2969 
L 2906 4863 
L 3481 4863 
L 3481 0 
L 2906 0 
L 2906 525 
Q 2725 213 2448 61 
Q 2172 -91 1784 -91 
Q 1150 -91 751 415 
Q 353 922 353 1747 
Q 353 2572 751 3078 
Q 1150 3584 1784 3584 
Q 2172 3584 2448 3432 
Q 2725 3281 2906 2969 
z
M 947 1747 
Q 947 1113 1208 752 
Q 1469 391 1925 391 
Q 2381 391 2643 752 
Q 2906 1113 2906 1747 
Q 2906 2381 2643 2742 
Q 2381 3103 1925 3103 
Q 1469 3103 1208 2742 
Q 947 2381 947 1747 
z
" transform="scale(0.015625)"/>
       <path id="DejaVuSans-20" transform="scale(0.015625)"/>
       <path id="DejaVuSans-45" d="M 628 4666 
L 3578 4666 
L 3578 4134 
L 1259 4134 
L 1259 2753 
L 3481 2753 
L 3481 2222 
L 1259 2222 
L 1259 531 
L 3634 531 
L 3634 0 
L 628 0 
L 628 4666 
z
" transform="scale(0.015625)"/>
       <path id="DejaVuSans-70" d="M 1159 525 
L 1159 -1331 
L 581 -1331 
L 581 3500 
L 1159 3500 
L 1159 2969 
Q 1341 3281 1617 3432 
Q 1894 3584 2278 3584 
Q 2916 3584 3314 3078 
Q 3713 2572 3713 1747 
Q 3713 922 3314 415 
Q 2916 -91 2278 -91 
Q 1894 -91 1617 61 
Q 1341 213 1159 525 
z
M 3116 1747 
Q 3116 2381 2855 2742 
Q 2594 3103 2138 3103 
Q 1681 3103 1420 2742 
Q 1159 2381 1159 1747 
Q 1159 1113 1420 752 
Q 1681 391 2138 391 
Q 2594 391 2855 752 
Q 3116 1113 3116 1747 
z
" transform="scale(0.015625)"/>
       <path id="DejaVuSans-69" d="M 603 3500 
L 1178 3500 
L 1178 0 
L 603 0 
L 603 3500 
z
M 603 4863 
L 1178 4863 
L 1178 4134 
L 603 4134 
L 603 4863 
z
" transform="scale(0.015625)"/>
       <path id="DejaVuSans-73" d="M 2834 3397 
L 2834 2853 
Q 2591 2978 2328 3040 
Q 2066 3103 1784 3103 
Q 1356 3103 1142 2972 
Q 928 2841 928 2578 
Q 928 2378 1081 2264 
Q 1234 2150 1697 2047 
L 1894 2003 
Q 2506 1872 2764 1633 
Q 3022 1394 3022 966 
Q 3022 478 2636 193 
Q 2250 -91 1575 -91 
Q 1294 -91 989 -36 
Q 684 19 347 128 
L 347 722 
Q 666 556 975 473 
Q 1284 391 1588 391 
Q 1994 391 2212 530 
Q 2431 669 2431 922 
Q 2431 1156 2273 1281 
Q 2116 1406 1581 1522 
L 1381 1569 
Q 847 1681 609 1914 
Q 372 2147 372 2553 
Q 372 3047 722 3315 
Q 1072 3584 1716 3584 
Q 2034 3584 2315 3537 
Q 2597 3491 2834 3397 
z
" transform="scale(0.015625)"/>
       <path id="DejaVuSans-6f" d="M 1959 3097 
Q 1497 3097 1228 2736 
Q 959 2375 959 1747 
Q 959 1119 1226 758 
Q 1494 397 1959 397 
Q 2419 397 2687 759 
Q 2956 1122 2956 1747 
Q 2956 2369 2687 2733 
Q 2419 3097 1959 3097 
z
M 1959 3584 
Q 2709 3584 3137 3096 
Q 3566 2609 3566 1747 
Q 3566 888 3137 398 
Q 2709 -91 1959 -91 
Q 1206 -91 779 398 
Q 353 888 353 1747 
Q 353 2609 779 3096 
Q 1206 3584 1959 3584 
z
" transform="scale(0.015625)"/>
      </defs>
      <use xlink:href="#DejaVuSans-4c"/>
      <use xlink:href="#DejaVuSans-65" x="53.962891"/>
      <use xlink:href="#DejaVuSans-61" x="115.486328"/>
      <use xlink:href="#DejaVuSans-72" x="176.765625"/>
      <use xlink:href="#DejaVuSans-6e" x="216.128906"/>
      <use xlink:href="#DejaVuSans-65" x="279.507812"/>
      <use xlink:href="#DejaVuSans-64" x="341.03125"/>
      <use xlink:href="#DejaVuSans-20" x="404.507812"/>
      <use xlink:href="#DejaVuSans-45" x="436.294922"/>
      <use xlink:href="#DejaVuSans-70" x="499.478516"/>
      <use xlink:href="#DejaVuSans-69" x="562.955078"/>
      <use xlink:href="#DejaVuSans-73" x="590.738281"/>
      <use xlink:href="#DejaVuSans-6f" x="642.837891"/>
      <use xlink:href="#DejaVuSans-64" x="704.019531"/>
      <use xlink:href="#DejaVuSans-65" x="767.496094"/>
      <use xlink:href="#DejaVuSans-73" x="829.019531"/>
     </g>
    </g>
   </g>
   <g id="matplotlib.axis_2">
    <g id="ytick_1">
     <g id="line2d_19">
      <path d="M 57.6 272.354645 
L 414.72 272.354645 
" clip-path="url(#p57ad64be53)" style="fill: none; stroke-dasharray: 2.96,1.28; stroke-dashoffset: 0; stroke: #b0b0b0; stroke-width: 0.8"/>
     </g>
     <g id="line2d_20">
      <defs>
       <path id="mf49410f462" d="M 0 0 
L -3.5 0 
" style="stroke: #000000; stroke-width: 0.8"/>
      </defs>
      <g>
       <use xlink:href="#mf49410f462" x="57.6" y="272.354645" style="stroke: #000000; stroke-width: 0.8"/>
      </g>
     </g>
     <g id="text_11">
      <!-- 50 -->
      <g transform="translate(37.875 276.153864)scale(0.1 -0.1)">
       <use xlink:href="#DejaVuSans-35"/>
       <use xlink:href="#DejaVuSans-30" x="63.623047"/>
      </g>
     </g>
    </g>
    <g id="ytick_2">
     <g id="line2d_21">
      <path d="M 57.6 236.049945 
L 414.72 236.049945 
" clip-path="url(#p57ad64be53)" style="fill: none; stroke-dasharray: 2.96,1.28; stroke-dashoffset: 0; stroke: #b0b0b0; stroke-width: 0.8"/>
     </g>
     <g id="line2d_22">
      <g>
       <use xlink:href="#mf49410f462" x="57.6" y="236.049945" style="stroke: #000000; stroke-width: 0.8"/>
      </g>
     </g>
     <g id="text_12">
      <!-- 100 -->
      <g transform="translate(31.5125 239.849164)scale(0.1 -0.1)">
       <use xlink:href="#DejaVuSans-31"/>
       <use xlink:href="#DejaVuSans-30" x="63.623047"/>
       <use xlink:href="#DejaVuSans-30" x="127.246094"/>
      </g>
     </g>
    </g>
    <g id="ytick_3">
     <g id="line2d_23">
      <path d="M 57.6 199.745245 
L 414.72 199.745245 
" clip-path="url(#p57ad64be53)" style="fill: none; stroke-dasharray: 2.96,1.28; stroke-dashoffset: 0; stroke: #b0b0b0; stroke-width: 0.8"/>
     </g>
     <g id="line2d_24">
      <g>
       <use xlink:href="#mf49410f462" x="57.6" y="199.745245" style="stroke: #000000; stroke-width: 0.8"/>
      </g>
     </g>
     <g id="text_13">
      <!-- 150 -->
      <g transform="translate(31.5125 203.544463)scale(0.1 -0.1)">
       <use xlink:href="#DejaVuSans-31"/>
       <use xlink:href="#DejaVuSans-35" x="63.623047"/>
       <use xlink:href="#DejaVuSans-30" x="127.246094"/>
      </g>
     </g>
    </g>
    <g id="ytick_4">
     <g id="line2d_25">
      <path d="M 57.6 163.440545 
L 414.72 163.440545 
" clip-path="url(#p57ad64be53)" style="fill: none; stroke-dasharray: 2.96,1.28; stroke-dashoffset: 0; stroke: #b0b0b0; stroke-width: 0.8"/>
     </g>
     <g id="line2d_26">
      <g>
       <use xlink:href="#mf49410f462" x="57.6" y="163.440545" style="stroke: #000000; stroke-width: 0.8"/>
      </g>
     </g>
     <g id="text_14">
      <!-- 200 -->
      <g transform="translate(31.5125 167.239763)scale(0.1 -0.1)">
       <use xlink:href="#DejaVuSans-32"/>
       <use xlink:href="#DejaVuSans-30" x="63.623047"/>
       <use xlink:href="#DejaVuSans-30" x="127.246094"/>
      </g>
     </g>
    </g>
    <g id="ytick_5">
     <g id="line2d_27">
      <path d="M 57.6 127.135844 
L 414.72 127.135844 
" clip-path="url(#p57ad64be53)" style="fill: none; stroke-dasharray: 2.96,1.28; stroke-dashoffset: 0; stroke: #b0b0b0; stroke-width: 0.8"/>
     </g>
     <g id="line2d_28">
      <g>
       <use xlink:href="#mf49410f462" x="57.6" y="127.135844" style="stroke: #000000; stroke-width: 0.8"/>
      </g>
     </g>
     <g id="text_15">
      <!-- 250 -->
      <g transform="translate(31.5125 130.935063)scale(0.1 -0.1)">
       <use xlink:href="#DejaVuSans-32"/>
       <use xlink:href="#DejaVuSans-35" x="63.623047"/>
       <use xlink:href="#DejaVuSans-30" x="127.246094"/>
      </g>
     </g>
    </g>
    <g id="ytick_6">
     <g id="line2d_29">
      <path d="M 57.6 90.831144 
L 414.72 90.831144 
" clip-path="url(#p57ad64be53)" style="fill: none; stroke-dasharray: 2.96,1.28; stroke-dashoffset: 0; stroke: #b0b0b0; stroke-width: 0.8"/>
     </g>
     <g id="line2d_30">
      <g>
       <use xlink:href="#mf49410f462" x="57.6" y="90.831144" style="stroke: #000000; stroke-width: 0.8"/>
      </g>
     </g>
     <g id="text_16">
      <!-- 300 -->
      <g transform="translate(31.5125 94.630363)scale(0.1 -0.1)">
       <defs>
        <path id="DejaVuSans-33" d="M 2597 2516 
Q 3050 2419 3304 2112 
Q 3559 1806 3559 1356 
Q 3559 666 3084 287 
Q 2609 -91 1734 -91 
Q 1441 -91 1130 -33 
Q 819 25 488 141 
L 488 750 
Q 750 597 1062 519 
Q 1375 441 1716 441 
Q 2309 441 2620 675 
Q 2931 909 2931 1356 
Q 2931 1769 2642 2001 
Q 2353 2234 1838 2234 
L 1294 2234 
L 1294 2753 
L 1863 2753 
Q 2328 2753 2575 2939 
Q 2822 3125 2822 3475 
Q 2822 3834 2567 4026 
Q 2313 4219 1838 4219 
Q 1578 4219 1281 4162 
Q 984 4106 628 3988 
L 628 4550 
Q 988 4650 1302 4700 
Q 1616 4750 1894 4750 
Q 2613 4750 3031 4423 
Q 3450 4097 3450 3541 
Q 3450 3153 3228 2886 
Q 3006 2619 2597 2516 
z
" transform="scale(0.015625)"/>
       </defs>
       <use xlink:href="#DejaVuSans-33"/>
       <use xlink:href="#DejaVuSans-30" x="63.623047"/>
       <use xlink:href="#DejaVuSans-30" x="127.246094"/>
      </g>
     </g>
    </g>
    <g id="ytick_7">
     <g id="line2d_31">
      <path d="M 57.6 54.526444 
L 414.72 54.526444 
" clip-path="url(#p57ad64be53)" style="fill: none; stroke-dasharray: 2.96,1.28; stroke-dashoffset: 0; stroke: #b0b0b0; stroke-width: 0.8"/>
     </g>
     <g id="line2d_32">
      <g>
       <use xlink:href="#mf49410f462" x="57.6" y="54.526444" style="stroke: #000000; stroke-width: 0.8"/>
      </g>
     </g>
     <g id="text_17">
      <!-- 350 -->
      <g transform="translate(31.5125 58.325663)scale(0.1 -0.1)">
       <use xlink:href="#DejaVuSans-33"/>
       <use xlink:href="#DejaVuSans-35" x="63.623047"/>
       <use xlink:href="#DejaVuSans-30" x="127.246094"/>
      </g>
     </g>
    </g>
    <g id="text_18">
     <!-- Reward Density -->
     <g transform="translate(25.432812 213.74675)rotate(-90)scale(0.1 -0.1)">
      <defs>
       <path id="DejaVuSans-52" d="M 2841 2188 
Q 3044 2119 3236 1894 
Q 3428 1669 3622 1275 
L 4263 0 
L 3584 0 
L 2988 1197 
Q 2756 1666 2539 1819 
Q 2322 1972 1947 1972 
L 1259 1972 
L 1259 0 
L 628 0 
L 628 4666 
L 2053 4666 
Q 2853 4666 3247 4331 
Q 3641 3997 3641 3322 
Q 3641 2881 3436 2590 
Q 3231 2300 2841 2188 
z
M 1259 4147 
L 1259 2491 
L 2053 2491 
Q 2509 2491 2742 2702 
Q 2975 2913 2975 3322 
Q 2975 3731 2742 3939 
Q 2509 4147 2053 4147 
L 1259 4147 
z
" transform="scale(0.015625)"/>
       <path id="DejaVuSans-77" d="M 269 3500 
L 844 3500 
L 1563 769 
L 2278 3500 
L 2956 3500 
L 3675 769 
L 4391 3500 
L 4966 3500 
L 4050 0 
L 3372 0 
L 2619 2869 
L 1863 0 
L 1184 0 
L 269 3500 
z
" transform="scale(0.015625)"/>
       <path id="DejaVuSans-44" d="M 1259 4147 
L 1259 519 
L 2022 519 
Q 2988 519 3436 956 
Q 3884 1394 3884 2338 
Q 3884 3275 3436 3711 
Q 2988 4147 2022 4147 
L 1259 4147 
z
M 628 4666 
L 1925 4666 
Q 3281 4666 3915 4102 
Q 4550 3538 4550 2338 
Q 4550 1131 3912 565 
Q 3275 0 1925 0 
L 628 0 
L 628 4666 
z
" transform="scale(0.015625)"/>
       <path id="DejaVuSans-74" d="M 1172 4494 
L 1172 3500 
L 2356 3500 
L 2356 3053 
L 1172 3053 
L 1172 1153 
Q 1172 725 1289 603 
Q 1406 481 1766 481 
L 2356 481 
L 2356 0 
L 1766 0 
Q 1100 0 847 248 
Q 594 497 594 1153 
L 594 3053 
L 172 3053 
L 172 3500 
L 594 3500 
L 594 4494 
L 1172 4494 
z
" transform="scale(0.015625)"/>
       <path id="DejaVuSans-79" d="M 2059 -325 
Q 1816 -950 1584 -1140 
Q 1353 -1331 966 -1331 
L 506 -1331 
L 506 -850 
L 844 -850 
Q 1081 -850 1212 -737 
Q 1344 -625 1503 -206 
L 1606 56 
L 191 3500 
L 800 3500 
L 1894 763 
L 2988 3500 
L 3597 3500 
L 2059 -325 
z
" transform="scale(0.015625)"/>
      </defs>
      <use xlink:href="#DejaVuSans-52"/>
      <use xlink:href="#DejaVuSans-65" x="64.982422"/>
      <use xlink:href="#DejaVuSans-77" x="126.505859"/>
      <use xlink:href="#DejaVuSans-61" x="208.292969"/>
      <use xlink:href="#DejaVuSans-72" x="269.572266"/>
      <use xlink:href="#DejaVuSans-64" x="308.935547"/>
      <use xlink:href="#DejaVuSans-20" x="372.412109"/>
      <use xlink:href="#DejaVuSans-44" x="404.199219"/>
      <use xlink:href="#DejaVuSans-65" x="481.201172"/>
      <use xlink:href="#DejaVuSans-6e" x="542.724609"/>
      <use xlink:href="#DejaVuSans-73" x="606.103516"/>
      <use xlink:href="#DejaVuSans-69" x="658.203125"/>
      <use xlink:href="#DejaVuSans-74" x="685.986328"/>
      <use xlink:href="#DejaVuSans-79" x="725.195312"/>
     </g>
    </g>
   </g>
   <g id="LineCollection_1">
    <path d="M 90.919809 186.750108 
L 125.093971 186.750108 
" clip-path="url(#p57ad64be53)" style="fill: none; stroke: #1f77b4; stroke-width: 1.5"/>
    <path d="M 176.355215 145.828815 
L 210.529378 145.828815 
" clip-path="url(#p57ad64be53)" style="fill: none; stroke: #1f77b4; stroke-width: 1.5"/>
    <path d="M 261.790622 143.031872 
L 295.964785 143.031872 
" clip-path="url(#p57ad64be53)" style="fill: none; stroke: #1f77b4; stroke-width: 1.5"/>
    <path d="M 347.226029 142.650673 
L 381.400191 142.650673 
" clip-path="url(#p57ad64be53)" style="fill: none; stroke: #1f77b4; stroke-width: 1.5"/>
   </g>
   <g id="LineCollection_2">
    <path d="M 90.919809 114.008065 
L 125.093971 114.008065 
" clip-path="url(#p57ad64be53)" style="fill: none; stroke: #1f77b4; stroke-width: 1.5"/>
    <path d="M 176.355215 65.069329 
L 210.529378 65.069329 
" clip-path="url(#p57ad64be53)" style="fill: none; stroke: #1f77b4; stroke-width: 1.5"/>
    <path d="M 261.790622 53.829394 
L 295.964785 53.829394 
" clip-path="url(#p57ad64be53)" style="fill: none; stroke: #1f77b4; stroke-width: 1.5"/>
    <path d="M 347.226029 53.568 
L 381.400191 53.568 
" clip-path="url(#p57ad64be53)" style="fill: none; stroke: #1f77b4; stroke-width: 1.5"/>
   </g>
   <g id="LineCollection_3">
    <path d="M 90.919809 295.488 
L 125.093971 295.488 
" clip-path="url(#p57ad64be53)" style="fill: none; stroke: #1f77b4; stroke-width: 1.5"/>
    <path d="M 176.355215 283.768843 
L 210.529378 283.768843 
" clip-path="url(#p57ad64be53)" style="fill: none; stroke: #1f77b4; stroke-width: 1.5"/>
    <path d="M 261.790622 228.44048 
L 295.964785 228.44048 
" clip-path="url(#p57ad64be53)" style="fill: none; stroke: #1f77b4; stroke-width: 1.5"/>
    <path d="M 347.226029 231.359378 
L 381.400191 231.359378 
" clip-path="url(#p57ad64be53)" style="fill: none; stroke: #1f77b4; stroke-width: 1.5"/>
   </g>
   <g id="LineCollection_4">
    <path d="M 108.00689 295.488 
L 108.00689 114.008065 
" clip-path="url(#p57ad64be53)" style="fill: none; stroke: #1f77b4; stroke-width: 1.5"/>
    <path d="M 193.442297 283.768843 
L 193.442297 65.069329 
" clip-path="url(#p57ad64be53)" style="fill: none; stroke: #1f77b4; stroke-width: 1.5"/>
    <path d="M 278.877703 228.44048 
L 278.877703 53.829394 
" clip-path="url(#p57ad64be53)" style="fill: none; stroke: #1f77b4; stroke-width: 1.5"/>
    <path d="M 364.31311 231.359378 
L 364.31311 53.568 
" clip-path="url(#p57ad64be53)" style="fill: none; stroke: #1f77b4; stroke-width: 1.5"/>
   </g>
   <g id="line2d_33">
    <path d="M 108.00689 186.750108 
L 193.442297 145.828815 
L 278.877703 143.031872 
L 364.31311 142.650673 
" clip-path="url(#p57ad64be53)" style="fill: none; stroke: #4682b4; stroke-width: 1.5; stroke-linecap: square"/>
   </g>
   <g id="line2d_34">
    <path d="M 108.00689 186.750108 
L 193.442297 145.828815 
L 278.877703 143.031872 
L 364.31311 142.650673 
" clip-path="url(#p57ad64be53)" style="fill: none; stroke: #4682b4; stroke-width: 1.5; stroke-linecap: square"/>
   </g>
   <g id="patch_3">
    <path d="M 57.6 307.584 
L 57.6 41.472 
" style="fill: none; stroke: #000000; stroke-width: 0.8; stroke-linejoin: miter; stroke-linecap: square"/>
   </g>
   <g id="patch_4">
    <path d="M 414.72 307.584 
L 414.72 41.472 
" style="fill: none; stroke: #000000; stroke-width: 0.8; stroke-linejoin: miter; stroke-linecap: square"/>
   </g>
   <g id="patch_5">
    <path d="M 57.6 307.584 
L 414.72 307.584 
" style="fill: none; stroke: #000000; stroke-width: 0.8; stroke-linejoin: miter; stroke-linecap: square"/>
   </g>
   <g id="patch_6">
    <path d="M 57.6 41.472 
L 414.72 41.472 
" style="fill: none; stroke: #000000; stroke-width: 0.8; stroke-linejoin: miter; stroke-linecap: square"/>
   </g>
   <g id="text_19">
    <!-- Violinplot for progress of state/in_circulation -->
    <g transform="translate(103.735312 35.472)scale(0.12 -0.12)">
     <defs>
      <path id="DejaVuSans-56" d="M 1831 0 
L 50 4666 
L 709 4666 
L 2188 738 
L 3669 4666 
L 4325 4666 
L 2547 0 
L 1831 0 
z
" transform="scale(0.015625)"/>
      <path id="DejaVuSans-6c" d="M 603 4863 
L 1178 4863 
L 1178 0 
L 603 0 
L 603 4863 
z
" transform="scale(0.015625)"/>
      <path id="DejaVuSans-66" d="M 2375 4863 
L 2375 4384 
L 1825 4384 
Q 1516 4384 1395 4259 
Q 1275 4134 1275 3809 
L 1275 3500 
L 2222 3500 
L 2222 3053 
L 1275 3053 
L 1275 0 
L 697 0 
L 697 3053 
L 147 3053 
L 147 3500 
L 697 3500 
L 697 3744 
Q 697 4328 969 4595 
Q 1241 4863 1831 4863 
L 2375 4863 
z
" transform="scale(0.015625)"/>
      <path id="DejaVuSans-67" d="M 2906 1791 
Q 2906 2416 2648 2759 
Q 2391 3103 1925 3103 
Q 1463 3103 1205 2759 
Q 947 2416 947 1791 
Q 947 1169 1205 825 
Q 1463 481 1925 481 
Q 2391 481 2648 825 
Q 2906 1169 2906 1791 
z
M 3481 434 
Q 3481 -459 3084 -895 
Q 2688 -1331 1869 -1331 
Q 1566 -1331 1297 -1286 
Q 1028 -1241 775 -1147 
L 775 -588 
Q 1028 -725 1275 -790 
Q 1522 -856 1778 -856 
Q 2344 -856 2625 -561 
Q 2906 -266 2906 331 
L 2906 616 
Q 2728 306 2450 153 
Q 2172 0 1784 0 
Q 1141 0 747 490 
Q 353 981 353 1791 
Q 353 2603 747 3093 
Q 1141 3584 1784 3584 
Q 2172 3584 2450 3431 
Q 2728 3278 2906 2969 
L 2906 3500 
L 3481 3500 
L 3481 434 
z
" transform="scale(0.015625)"/>
      <path id="DejaVuSans-2f" d="M 1625 4666 
L 2156 4666 
L 531 -594 
L 0 -594 
L 1625 4666 
z
" transform="scale(0.015625)"/>
      <path id="DejaVuSans-5f" d="M 3263 -1063 
L 3263 -1509 
L -63 -1509 
L -63 -1063 
L 3263 -1063 
z
" transform="scale(0.015625)"/>
      <path id="DejaVuSans-63" d="M 3122 3366 
L 3122 2828 
Q 2878 2963 2633 3030 
Q 2388 3097 2138 3097 
Q 1578 3097 1268 2742 
Q 959 2388 959 1747 
Q 959 1106 1268 751 
Q 1578 397 2138 397 
Q 2388 397 2633 464 
Q 2878 531 3122 666 
L 3122 134 
Q 2881 22 2623 -34 
Q 2366 -91 2075 -91 
Q 1284 -91 818 406 
Q 353 903 353 1747 
Q 353 2603 823 3093 
Q 1294 3584 2113 3584 
Q 2378 3584 2631 3529 
Q 2884 3475 3122 3366 
z
" transform="scale(0.015625)"/>
      <path id="DejaVuSans-75" d="M 544 1381 
L 544 3500 
L 1119 3500 
L 1119 1403 
Q 1119 906 1312 657 
Q 1506 409 1894 409 
Q 2359 409 2629 706 
Q 2900 1003 2900 1516 
L 2900 3500 
L 3475 3500 
L 3475 0 
L 2900 0 
L 2900 538 
Q 2691 219 2414 64 
Q 2138 -91 1772 -91 
Q 1169 -91 856 284 
Q 544 659 544 1381 
z
M 1991 3584 
L 1991 3584 
z
" transform="scale(0.015625)"/>
     </defs>
     <use xlink:href="#DejaVuSans-56"/>
     <use xlink:href="#DejaVuSans-69" x="66.158203"/>
     <use xlink:href="#DejaVuSans-6f" x="93.941406"/>
     <use xlink:href="#DejaVuSans-6c" x="155.123047"/>
     <use xlink:href="#DejaVuSans-69" x="182.90625"/>
     <use xlink:href="#DejaVuSans-6e" x="210.689453"/>
     <use xlink:href="#DejaVuSans-70" x="274.068359"/>
     <use xlink:href="#DejaVuSans-6c" x="337.544922"/>
     <use xlink:href="#DejaVuSans-6f" x="365.328125"/>
     <use xlink:href="#DejaVuSans-74" x="426.509766"/>
     <use xlink:href="#DejaVuSans-20" x="465.71875"/>
     <use xlink:href="#DejaVuSans-66" x="497.505859"/>
     <use xlink:href="#DejaVuSans-6f" x="532.710938"/>
     <use xlink:href="#DejaVuSans-72" x="593.892578"/>
     <use xlink:href="#DejaVuSans-20" x="635.005859"/>
     <use xlink:href="#DejaVuSans-70" x="666.792969"/>
     <use xlink:href="#DejaVuSans-72" x="730.269531"/>
     <use xlink:href="#DejaVuSans-6f" x="769.132812"/>
     <use xlink:href="#DejaVuSans-67" x="830.314453"/>
     <use xlink:href="#DejaVuSans-72" x="893.791016"/>
     <use xlink:href="#DejaVuSans-65" x="932.654297"/>
     <use xlink:href="#DejaVuSans-73" x="994.177734"/>
     <use xlink:href="#DejaVuSans-73" x="1046.277344"/>
     <use xlink:href="#DejaVuSans-20" x="1098.376953"/>
     <use xlink:href="#DejaVuSans-6f" x="1130.164062"/>
     <use xlink:href="#DejaVuSans-66" x="1191.345703"/>
     <use xlink:href="#DejaVuSans-20" x="1226.550781"/>
     <use xlink:href="#DejaVuSans-73" x="1258.337891"/>
     <use xlink:href="#DejaVuSans-74" x="1310.4375"/>
     <use xlink:href="#DejaVuSans-61" x="1349.646484"/>
     <use xlink:href="#DejaVuSans-74" x="1410.925781"/>
     <use xlink:href="#DejaVuSans-65" x="1450.134766"/>
     <use xlink:href="#DejaVuSans-2f" x="1511.658203"/>
     <use xlink:href="#DejaVuSans-69" x="1545.349609"/>
     <use xlink:href="#DejaVuSans-6e" x="1573.132812"/>
     <use xlink:href="#DejaVuSans-5f" x="1636.511719"/>
     <use xlink:href="#DejaVuSans-63" x="1686.511719"/>
     <use xlink:href="#DejaVuSans-69" x="1741.492188"/>
     <use xlink:href="#DejaVuSans-72" x="1769.275391"/>
     <use xlink:href="#DejaVuSans-63" x="1808.138672"/>
     <use xlink:href="#DejaVuSans-75" x="1863.119141"/>
     <use xlink:href="#DejaVuSans-6c" x="1926.498047"/>
     <use xlink:href="#DejaVuSans-61" x="1954.28125"/>
     <use xlink:href="#DejaVuSans-74" x="2015.560547"/>
     <use xlink:href="#DejaVuSans-69" x="2054.769531"/>
     <use xlink:href="#DejaVuSans-6f" x="2082.552734"/>
     <use xlink:href="#DejaVuSans-6e" x="2143.734375"/>
    </g>
   </g>
  </g>
 </g>
 <defs>
  <clipPath id="p57ad64be53">
   <rect x="57.6" y="41.472" width="357.12" height="266.112"/>
  </clipPath>
 </defs>
</svg>
