<?xml version="1.0" encoding="utf-8" standalone="no"?>
<!DOCTYPE svg PUBLIC "-//W3C//DTD SVG 1.1//EN"
  "http://www.w3.org/Graphics/SVG/1.1/DTD/svg11.dtd">
<svg xmlns:xlink="http://www.w3.org/1999/xlink" width="460.8pt" height="345.6pt" viewBox="0 0 460.8 345.6" xmlns="http://www.w3.org/2000/svg" version="1.1">
 <metadata>
  <rdf:RDF xmlns:dc="http://purl.org/dc/elements/1.1/" xmlns:cc="http://creativecommons.org/ns#" xmlns:rdf="http://www.w3.org/1999/02/22-rdf-syntax-ns#">
   <cc:Work>
    <dc:type rdf:resource="http://purl.org/dc/dcmitype/StillImage"/>
    <dc:date>2022-06-16T11:36:22.947365</dc:date>
    <dc:format>image/svg+xml</dc:format>
    <dc:creator>
     <cc:Agent>
      <dc:title>Matplotlib v3.5.2, https://matplotlib.org/</dc:title>
     </cc:Agent>
    </dc:creator>
   </cc:Work>
  </rdf:RDF>
 </metadata>
 <defs>
  <style type="text/css">*{stroke-linejoin: round; stroke-linecap: butt}</style>
 </defs>
 <g id="figure_1">
  <g id="patch_1">
   <path d="M 0 345.6 
L 460.8 345.6 
L 460.8 0 
L 0 0 
z
" style="fill: #ffffff"/>
  </g>
  <g id="axes_1">
   <g id="patch_2">
    <path d="M 57.6 307.584 
L 414.72 307.584 
L 414.72 41.472 
L 57.6 41.472 
z
" style="fill: #ffffff"/>
   </g>
   <g id="PolyCollection_1">
    <path d="M 112.016275 265.5261 
L 110.607899 265.5261 
L 110.623764 263.389018 
L 110.677281 261.251935 
L 110.759711 259.114853 
L 110.85859 256.977771 
L 110.960803 254.840689 
L 111.055351 252.703607 
L 111.135051 250.566524 
L 111.196906 248.429442 
L 111.241383 246.29236 
L 111.271137 244.155278 
L 111.28971 242.018195 
L 111.300549 239.881113 
L 111.306473 237.744031 
L 111.309506 235.606949 
L 111.310957 233.469867 
L 111.311588 231.332784 
L 111.311791 229.195702 
L 111.31171 227.05862 
L 111.311295 224.921538 
L 111.310293 222.784456 
L 111.308165 220.647373 
L 111.30395 218.510291 
L 111.296108 216.373209 
L 111.282381 214.236127 
L 111.259776 212.099045 
L 111.224772 209.961962 
L 111.17382 207.82488 
L 111.104129 205.687798 
L 111.01459 203.550716 
L 110.906533 201.413633 
L 110.784 199.276551 
L 110.653264 197.139469 
L 110.521603 195.002387 
L 110.39563 192.865305 
L 110.279679 190.728222 
L 110.174784 188.59114 
L 110.078553 186.454058 
L 109.985902 184.316976 
L 109.890337 182.179894 
L 109.785333 180.042811 
L 109.665417 177.905729 
L 109.526747 175.768647 
L 109.367156 173.631565 
L 109.185842 171.494483 
L 108.982921 169.3574 
L 108.759073 167.220318 
L 108.515311 165.083236 
L 108.2527 162.946154 
L 107.971704 160.809072 
L 107.670971 158.671989 
L 107.345786 156.534907 
L 106.98691 154.397825 
L 106.580644 152.260743 
L 106.110632 150.12366 
L 105.560987 147.986578 
L 104.919525 145.849496 
L 104.179603 143.712414 
L 103.33957 141.575332 
L 102.400003 139.438249 
L 101.359936 137.301167 
L 100.213806 135.164085 
L 98.950437 133.027003 
L 97.554462 130.889921 
L 96.009719 128.752838 
L 94.3037 126.615756 
L 92.432213 124.478674 
L 90.403737 122.341592 
L 88.243015 120.20451 
L 85.993311 118.067427 
L 83.7165 115.930345 
L 81.490279 113.793263 
L 79.402398 111.656181 
L 77.542747 109.519098 
L 75.994922 107.382016 
L 74.829084 105.244934 
L 74.097448 103.107852 
L 73.832727 100.97077 
L 74.048899 98.833687 
L 74.742991 96.696605 
L 75.896639 94.559523 
L 77.47675 92.422441 
L 79.435526 90.285359 
L 81.710878 88.148276 
L 84.228398 86.011194 
L 86.905502 83.874112 
L 89.657222 81.73703 
L 92.402303 79.599948 
L 95.068001 77.462865 
L 97.592706 75.325783 
L 99.92659 73.188701 
L 102.031369 71.051619 
L 103.880377 68.914536 
L 105.459469 66.777454 
L 106.768312 64.640372 
L 107.820881 62.50329 
L 108.64408 60.366208 
L 109.274056 58.229125 
L 109.750858 56.092043 
L 110.112799 53.954961 
L 112.511376 53.954961 
L 112.511376 53.954961 
L 112.873316 56.092043 
L 113.350119 58.229125 
L 113.980094 60.366208 
L 114.803293 62.50329 
L 115.855863 64.640372 
L 117.164705 66.777454 
L 118.743798 68.914536 
L 120.592805 71.051619 
L 122.697584 73.188701 
L 125.031468 75.325783 
L 127.556174 77.462865 
L 130.221872 79.599948 
L 132.966953 81.73703 
L 135.718673 83.874112 
L 138.395776 86.011194 
L 140.913297 88.148276 
L 143.188648 90.285359 
L 145.147425 92.422441 
L 146.727536 94.559523 
L 147.881184 96.696605 
L 148.575275 98.833687 
L 148.791447 100.97077 
L 148.526727 103.107852 
L 147.79509 105.244934 
L 146.629252 107.382016 
L 145.081427 109.519098 
L 143.221777 111.656181 
L 141.133895 113.793263 
L 138.907674 115.930345 
L 136.630863 118.067427 
L 134.38116 120.20451 
L 132.220438 122.341592 
L 130.191962 124.478674 
L 128.320475 126.615756 
L 126.614455 128.752838 
L 125.069713 130.889921 
L 123.673737 133.027003 
L 122.410368 135.164085 
L 121.264239 137.301167 
L 120.224171 139.438249 
L 119.284604 141.575332 
L 118.444572 143.712414 
L 117.704649 145.849496 
L 117.063187 147.986578 
L 116.513542 150.12366 
L 116.043531 152.260743 
L 115.637265 154.397825 
L 115.278388 156.534907 
L 114.953204 158.671989 
L 114.652471 160.809072 
L 114.371475 162.946154 
L 114.108864 165.083236 
L 113.865102 167.220318 
L 113.641253 169.3574 
L 113.438333 171.494483 
L 113.257018 173.631565 
L 113.097428 175.768647 
L 112.958757 177.905729 
L 112.838842 180.042811 
L 112.733838 182.179894 
L 112.638272 184.316976 
L 112.545621 186.454058 
L 112.449391 188.59114 
L 112.344496 190.728222 
L 112.228545 192.865305 
L 112.102572 195.002387 
L 111.970911 197.139469 
L 111.840175 199.276551 
L 111.717642 201.413633 
L 111.609585 203.550716 
L 111.520045 205.687798 
L 111.450355 207.82488 
L 111.399403 209.961962 
L 111.364399 212.099045 
L 111.341794 214.236127 
L 111.328066 216.373209 
L 111.320225 218.510291 
L 111.31601 220.647373 
L 111.313881 222.784456 
L 111.312879 224.921538 
L 111.312465 227.05862 
L 111.312384 229.195702 
L 111.312587 231.332784 
L 111.313218 233.469867 
L 111.314668 235.606949 
L 111.317701 237.744031 
L 111.323625 239.881113 
L 111.334465 242.018195 
L 111.353037 244.155278 
L 111.382792 246.29236 
L 111.427268 248.429442 
L 111.489124 250.566524 
L 111.568824 252.703607 
L 111.663371 254.840689 
L 111.765584 256.977771 
L 111.864464 259.114853 
L 111.946894 261.251935 
L 112.000411 263.389018 
L 112.016275 265.5261 
z
" clip-path="url(#p575e54de5a)" style="fill: #1f77b4; fill-opacity: 0.3"/>
   </g>
   <g id="PolyCollection_2">
    <path d="M 195.169508 210.552106 
L 194.029601 210.552106 
L 193.995352 208.966408 
L 193.969539 207.38071 
L 193.951185 205.795012 
L 193.938919 204.209314 
L 193.931286 202.623616 
L 193.926886 201.037918 
L 193.924325 199.45222 
L 193.921987 197.866522 
L 193.917764 196.280823 
L 193.908886 194.695125 
L 193.891959 193.109427 
L 193.863264 191.523729 
L 193.819272 189.938031 
L 193.757278 188.352333 
L 193.676002 186.766635 
L 193.576032 185.180937 
L 193.460007 183.595239 
L 193.332462 182.009541 
L 193.199333 180.423843 
L 193.067113 178.838145 
L 192.941758 177.252447 
L 192.827472 175.666749 
L 192.725561 174.081051 
L 192.633596 172.495353 
L 192.545059 170.909655 
L 192.449566 169.323957 
L 192.333618 167.738259 
L 192.181679 166.152561 
L 191.977333 164.566863 
L 191.704284 162.981165 
L 191.347101 161.395467 
L 190.891758 159.809769 
L 190.326169 158.224071 
L 189.640935 156.638373 
L 188.830425 155.052674 
L 187.894134 153.466976 
L 186.83802 151.881278 
L 185.675395 150.29558 
L 184.426925 148.709882 
L 183.119458 147.124184 
L 181.783696 145.538486 
L 180.451022 143.952788 
L 179.150084 142.36709 
L 177.903795 140.781392 
L 176.727393 139.195694 
L 175.627885 137.609996 
L 174.604961 136.024298 
L 173.653049 134.4386 
L 172.763978 132.852902 
L 171.929551 131.267204 
L 171.14338 129.681506 
L 170.401493 128.095808 
L 169.701589 126.51011 
L 169.041141 124.924412 
L 168.414981 123.338714 
L 167.813187 121.753016 
L 167.220123 120.167318 
L 166.615208 118.58162 
L 165.975547 116.995922 
L 165.279991 115.410224 
L 164.513743 113.824525 
L 163.672409 112.238827 
L 162.764507 110.653129 
L 161.811821 109.067431 
L 160.847529 107.481733 
L 159.912596 105.896035 
L 159.051251 104.310337 
L 158.306543 102.724639 
L 157.716785 101.138941 
L 157.313394 99.553243 
L 157.120194 97.967545 
L 157.153905 96.381847 
L 157.425257 94.796149 
L 157.940161 93.210451 
L 158.70046 91.624753 
L 159.704044 90.039055 
L 160.944381 88.453357 
L 162.40971 86.867659 
L 164.082256 85.281961 
L 165.937751 83.696263 
L 167.945453 82.110565 
L 170.068692 80.524867 
L 172.265922 78.939169 
L 174.492171 77.353471 
L 176.700868 75.767773 
L 178.846001 74.182075 
L 180.884533 72.596376 
L 182.778955 71.010678 
L 184.499709 69.42498 
L 186.02716 67.839282 
L 187.352764 66.253584 
L 188.479185 64.667886 
L 189.419248 63.082188 
L 190.193846 61.49649 
L 190.829076 59.910792 
L 191.353045 58.325094 
L 191.792783 56.739396 
L 192.171719 55.153698 
L 192.508007 53.568 
L 196.691101 53.568 
L 196.691101 53.568 
L 197.027389 55.153698 
L 197.406325 56.739396 
L 197.846064 58.325094 
L 198.370032 59.910792 
L 199.005262 61.49649 
L 199.77986 63.082188 
L 200.719923 64.667886 
L 201.846344 66.253584 
L 203.171948 67.839282 
L 204.699399 69.42498 
L 206.420153 71.010678 
L 208.314575 72.596376 
L 210.353107 74.182075 
L 212.49824 75.767773 
L 214.706938 77.353471 
L 216.933186 78.939169 
L 219.130416 80.524867 
L 221.253656 82.110565 
L 223.261357 83.696263 
L 225.116852 85.281961 
L 226.789398 86.867659 
L 228.254727 88.453357 
L 229.495064 90.039055 
L 230.498648 91.624753 
L 231.258948 93.210451 
L 231.773852 94.796149 
L 232.045203 96.381847 
L 232.078914 97.967545 
L 231.885715 99.553243 
L 231.482323 101.138941 
L 230.892565 102.724639 
L 230.147857 104.310337 
L 229.286512 105.896035 
L 228.351579 107.481733 
L 227.387288 109.067431 
L 226.434601 110.653129 
L 225.526699 112.238827 
L 224.685365 113.824525 
L 223.919117 115.410224 
L 223.223561 116.995922 
L 222.5839 118.58162 
L 221.978985 120.167318 
L 221.385921 121.753016 
L 220.784127 123.338714 
L 220.157967 124.924412 
L 219.497519 126.51011 
L 218.797615 128.095808 
L 218.055729 129.681506 
L 217.269557 131.267204 
L 216.43513 132.852902 
L 215.546059 134.4386 
L 214.594147 136.024298 
L 213.571223 137.609996 
L 212.471715 139.195694 
L 211.295313 140.781392 
L 210.049025 142.36709 
L 208.748086 143.952788 
L 207.415412 145.538486 
L 206.07965 147.124184 
L 204.772183 148.709882 
L 203.523713 150.29558 
L 202.361088 151.881278 
L 201.304975 153.466976 
L 200.368683 155.052674 
L 199.558173 156.638373 
L 198.872939 158.224071 
L 198.30735 159.809769 
L 197.852007 161.395467 
L 197.494824 162.981165 
L 197.221775 164.566863 
L 197.017429 166.152561 
L 196.865491 167.738259 
L 196.749542 169.323957 
L 196.654049 170.909655 
L 196.565512 172.495353 
L 196.473547 174.081051 
L 196.371636 175.666749 
L 196.25735 177.252447 
L 196.131996 178.838145 
L 195.999775 180.423843 
L 195.866646 182.009541 
L 195.739102 183.595239 
L 195.623076 185.180937 
L 195.523106 186.766635 
L 195.44183 188.352333 
L 195.379836 189.938031 
L 195.335844 191.523729 
L 195.307149 193.109427 
L 195.290222 194.695125 
L 195.281344 196.280823 
L 195.277121 197.866522 
L 195.274783 199.45222 
L 195.272222 201.037918 
L 195.267823 202.623616 
L 195.260189 204.209314 
L 195.247923 205.795012 
L 195.229569 207.38071 
L 195.203756 208.966408 
L 195.169508 210.552106 
z
" clip-path="url(#p575e54de5a)" style="fill: #1f77b4; fill-opacity: 0.3"/>
   </g>
   <g id="PolyCollection_3">
    <path d="M 278.323162 295.488 
L 277.450879 295.488 
L 277.459856 293.098513 
L 277.485692 290.709027 
L 277.525326 288.31954 
L 277.574325 285.930053 
L 277.627695 283.540566 
L 277.680706 281.15108 
L 277.729539 278.761593 
L 277.771642 276.372106 
L 277.805769 273.982619 
L 277.831769 271.593133 
L 277.850195 269.203646 
L 277.861863 266.814159 
L 277.867414 264.424673 
L 277.866922 262.035186 
L 277.859564 259.645699 
L 277.843344 257.256212 
L 277.814892 254.866726 
L 277.769365 252.477239 
L 277.700519 250.087752 
L 277.60102 247.698266 
L 277.463056 245.308779 
L 277.279253 242.919292 
L 277.04383 240.529805 
L 276.753862 238.140319 
L 276.410409 235.750832 
L 276.019285 233.361345 
L 275.591196 230.971858 
L 275.141103 228.582372 
L 274.68673 226.192885 
L 274.246347 223.803398 
L 273.836091 221.413912 
L 273.467267 219.024425 
L 273.144136 216.634938 
L 272.862718 214.245451 
L 272.610944 211.855965 
L 272.370258 209.466478 
L 272.118415 207.076991 
L 271.832905 204.687505 
L 271.494224 202.298018 
L 271.088241 199.908531 
L 270.607124 197.519044 
L 270.048694 195.129558 
L 269.414534 192.740071 
L 268.707574 190.350584 
L 267.930002 187.961097 
L 267.082254 185.571611 
L 266.163467 183.182124 
L 265.173211 180.792637 
L 264.113887 178.403151 
L 262.992843 176.013664 
L 261.823321 173.624177 
L 260.623724 171.23469 
L 259.415262 168.845204 
L 258.218617 166.455717 
L 257.050632 164.06623 
L 255.921996 161.676744 
L 254.83657 159.287257 
L 253.792363 156.89777 
L 252.783665 154.508283 
L 251.803493 152.118797 
L 250.845558 149.72931 
L 249.905306 147.339823 
L 248.980003 144.950336 
L 248.068219 142.56085 
L 247.169222 140.171363 
L 246.282723 137.781876 
L 245.409227 135.39239 
L 244.551081 133.002903 
L 243.714152 130.613416 
L 242.909968 128.223929 
L 242.158011 125.834443 
L 241.487601 123.444956 
L 240.938635 121.055469 
L 240.560363 118.665983 
L 240.407661 116.276496 
L 240.534846 113.887009 
L 240.987897 111.497522 
L 241.796588 109.108036 
L 242.968378 106.718549 
L 244.485582 104.329062 
L 246.306629 101.939575 
L 248.371149 99.550089 
L 250.607717 97.160602 
L 252.942529 94.771115 
L 255.307179 92.381629 
L 257.644131 89.992142 
L 259.909176 87.602655 
L 262.070978 85.213168 
L 264.108506 82.823682 
L 266.007576 80.434195 
L 267.757745 78.044708 
L 269.350459 75.655222 
L 270.77878 73.265735 
L 272.038387 70.876248 
L 273.129103 68.486761 
L 274.056115 66.097275 
L 274.830228 63.707788 
L 275.466972 61.318301 
L 275.984791 58.928814 
L 279.78925 58.928814 
L 279.78925 58.928814 
L 280.30707 61.318301 
L 280.943814 63.707788 
L 281.717927 66.097275 
L 282.644938 68.486761 
L 283.735655 70.876248 
L 284.995261 73.265735 
L 286.423583 75.655222 
L 288.016297 78.044708 
L 289.766465 80.434195 
L 291.665535 82.823682 
L 293.703064 85.213168 
L 295.864866 87.602655 
L 298.129911 89.992142 
L 300.466863 92.381629 
L 302.831512 94.771115 
L 305.166324 97.160602 
L 307.402893 99.550089 
L 309.467413 101.939575 
L 311.28846 104.329062 
L 312.805664 106.718549 
L 313.977453 109.108036 
L 314.786145 111.497522 
L 315.239196 113.887009 
L 315.366381 116.276496 
L 315.213678 118.665983 
L 314.835407 121.055469 
L 314.286441 123.444956 
L 313.616031 125.834443 
L 312.864074 128.223929 
L 312.05989 130.613416 
L 311.22296 133.002903 
L 310.364814 135.39239 
L 309.491318 137.781876 
L 308.60482 140.171363 
L 307.705823 142.56085 
L 306.794039 144.950336 
L 305.868735 147.339823 
L 304.928484 149.72931 
L 303.970549 152.118797 
L 302.990376 154.508283 
L 301.981679 156.89777 
L 300.937472 159.287257 
L 299.852045 161.676744 
L 298.72341 164.06623 
L 297.555424 166.455717 
L 296.35878 168.845204 
L 295.150318 171.23469 
L 293.950721 173.624177 
L 292.781199 176.013664 
L 291.660155 178.403151 
L 290.600831 180.792637 
L 289.610575 183.182124 
L 288.691788 185.571611 
L 287.84404 187.961097 
L 287.066467 190.350584 
L 286.359508 192.740071 
L 285.725348 195.129558 
L 285.166917 197.519044 
L 284.685801 199.908531 
L 284.279818 202.298018 
L 283.941137 204.687505 
L 283.655627 207.076991 
L 283.403784 209.466478 
L 283.163098 211.855965 
L 282.911323 214.245451 
L 282.629906 216.634938 
L 282.306775 219.024425 
L 281.93795 221.413912 
L 281.527695 223.803398 
L 281.087312 226.192885 
L 280.632939 228.582372 
L 280.182845 230.971858 
L 279.754757 233.361345 
L 279.363633 235.750832 
L 279.02018 238.140319 
L 278.730212 240.529805 
L 278.494789 242.919292 
L 278.310985 245.308779 
L 278.173022 247.698266 
L 278.073523 250.087752 
L 278.004676 252.477239 
L 277.959149 254.866726 
L 277.930698 257.256212 
L 277.914478 259.645699 
L 277.90712 262.035186 
L 277.906628 264.424673 
L 277.912178 266.814159 
L 277.923847 269.203646 
L 277.942273 271.593133 
L 277.968272 273.982619 
L 278.0024 276.372106 
L 278.044502 278.761593 
L 278.093336 281.15108 
L 278.146347 283.540566 
L 278.199717 285.930053 
L 278.248716 288.31954 
L 278.28835 290.709027 
L 278.314186 293.098513 
L 278.323162 295.488 
z
" clip-path="url(#p575e54de5a)" style="fill: #1f77b4; fill-opacity: 0.3"/>
   </g>
   <g id="PolyCollection_4">
    <path d="M 361.881619 239.313854 
L 360.134206 239.313854 
L 360.037608 237.53227 
L 359.938262 235.750685 
L 359.834943 233.969101 
L 359.725956 232.187517 
L 359.609329 230.405932 
L 359.483031 228.624348 
L 359.345193 226.842763 
L 359.194291 225.061179 
L 359.029269 223.279595 
L 358.849576 221.49801 
L 358.655124 219.716426 
L 358.446179 217.934842 
L 358.223178 216.153257 
L 357.986516 214.371673 
L 357.736305 212.590089 
L 357.47215 210.808504 
L 357.192949 209.02692 
L 356.896783 207.245336 
L 356.580915 205.463751 
L 356.241935 203.682167 
L 355.876091 201.900583 
L 355.479761 200.118998 
L 355.050047 198.337414 
L 354.585369 196.55583 
L 354.085941 194.774245 
L 353.553995 192.992661 
L 352.993641 191.211077 
L 352.410329 189.429492 
L 351.809965 187.647908 
L 351.197837 185.866324 
L 350.577583 184.084739 
L 349.950454 182.303155 
L 349.315094 180.52157 
L 348.667944 178.739986 
L 348.00422 176.958402 
L 347.319283 175.176817 
L 346.61007 173.395233 
L 345.876236 171.613649 
L 345.120696 169.832064 
L 344.349394 168.05048 
L 343.570314 166.268896 
L 342.791928 164.487311 
L 342.021445 162.705727 
L 341.263244 160.924143 
L 340.517878 159.142558 
L 339.781868 157.360974 
L 339.048332 155.57939 
L 338.308301 153.797805 
L 337.552412 152.016221 
L 336.772594 150.234637 
L 335.963392 148.453052 
L 335.122686 146.671468 
L 334.251729 144.889884 
L 333.354613 143.108299 
L 332.437437 141.326715 
L 331.507483 139.545131 
L 330.572701 137.763546 
L 329.641662 135.981962 
L 328.723978 134.200377 
L 327.830984 132.418793 
L 326.976376 130.637209 
L 326.176459 128.855624 
L 325.449733 127.07404 
L 324.815728 125.292456 
L 324.293208 123.510871 
L 323.898087 121.729287 
L 323.641506 119.947703 
L 323.528553 118.166118 
L 323.557988 116.384534 
L 323.723116 114.60295 
L 324.013681 112.821365 
L 324.418402 111.039781 
L 324.92763 109.258197 
L 325.535522 107.476612 
L 326.241283 105.695028 
L 327.049183 103.913444 
L 327.967362 102.131859 
L 329.005676 100.350275 
L 330.173019 98.568691 
L 331.474647 96.787106 
L 332.909999 95.005522 
L 334.471362 93.223938 
L 336.14356 91.442353 
L 337.904635 89.660769 
L 339.727331 87.879184 
L 341.581096 86.0976 
L 343.434261 84.316016 
L 345.256111 82.534431 
L 347.018621 80.752847 
L 348.697733 78.971263 
L 350.274136 77.189678 
L 351.733581 75.408094 
L 353.066828 73.62651 
L 354.269303 71.844925 
L 355.340574 70.063341 
L 356.283715 68.281757 
L 357.104624 66.500172 
L 357.811331 64.718588 
L 358.413323 62.937004 
L 363.602502 62.937004 
L 363.602502 62.937004 
L 364.204494 64.718588 
L 364.911201 66.500172 
L 365.732111 68.281757 
L 366.675252 70.063341 
L 367.746522 71.844925 
L 368.948997 73.62651 
L 370.282244 75.408094 
L 371.74169 77.189678 
L 373.318092 78.971263 
L 374.997205 80.752847 
L 376.759715 82.534431 
L 378.581564 84.316016 
L 380.434729 86.0976 
L 382.288495 87.879184 
L 384.111191 89.660769 
L 385.872265 91.442353 
L 387.544463 93.223938 
L 389.105826 95.005522 
L 390.541178 96.787106 
L 391.842807 98.568691 
L 393.010149 100.350275 
L 394.048464 102.131859 
L 394.966643 103.913444 
L 395.774542 105.695028 
L 396.480303 107.476612 
L 397.088196 109.258197 
L 397.597423 111.039781 
L 398.002144 112.821365 
L 398.292709 114.60295 
L 398.457837 116.384534 
L 398.487273 118.166118 
L 398.374319 119.947703 
L 398.117738 121.729287 
L 397.722617 123.510871 
L 397.200098 125.292456 
L 396.566092 127.07404 
L 395.839367 128.855624 
L 395.03945 130.637209 
L 394.184842 132.418793 
L 393.291847 134.200377 
L 392.374163 135.981962 
L 391.443124 137.763546 
L 390.508342 139.545131 
L 389.578388 141.326715 
L 388.661212 143.108299 
L 387.764096 144.889884 
L 386.893139 146.671468 
L 386.052433 148.453052 
L 385.243231 150.234637 
L 384.463413 152.016221 
L 383.707524 153.797805 
L 382.967493 155.57939 
L 382.233958 157.360974 
L 381.497947 159.142558 
L 380.752581 160.924143 
L 379.99438 162.705727 
L 379.223897 164.487311 
L 378.445512 166.268896 
L 377.666431 168.05048 
L 376.89513 169.832064 
L 376.139589 171.613649 
L 375.405755 173.395233 
L 374.696542 175.176817 
L 374.011605 176.958402 
L 373.347882 178.739986 
L 372.700731 180.52157 
L 372.065372 182.303155 
L 371.438242 184.084739 
L 370.817988 185.866324 
L 370.205861 187.647908 
L 369.605497 189.429492 
L 369.022185 191.211077 
L 368.46183 192.992661 
L 367.929884 194.774245 
L 367.430456 196.55583 
L 366.965778 198.337414 
L 366.536064 200.118998 
L 366.139735 201.900583 
L 365.77389 203.682167 
L 365.434911 205.463751 
L 365.119042 207.245336 
L 364.822877 209.02692 
L 364.543676 210.808504 
L 364.27952 212.590089 
L 364.02931 214.371673 
L 363.792647 216.153257 
L 363.569646 217.934842 
L 363.360701 219.716426 
L 363.16625 221.49801 
L 362.986556 223.279595 
L 362.821534 225.061179 
L 362.670633 226.842763 
L 362.532794 228.624348 
L 362.406496 230.405932 
L 362.289869 232.187517 
L 362.180883 233.969101 
L 362.077563 235.750685 
L 361.978217 237.53227 
L 361.881619 239.313854 
z
" clip-path="url(#p575e54de5a)" style="fill: #1f77b4; fill-opacity: 0.3"/>
   </g>
   <g id="matplotlib.axis_1">
    <g id="xtick_1">
     <g id="line2d_1">
      <defs>
       <path id="m8ef1bb4fb6" d="M 0 0 
L 0 3.5 
" style="stroke: #000000; stroke-width: 0.8"/>
      </defs>
      <g>
       <use xlink:href="#m8ef1bb4fb6" x="69.668354" y="307.584" style="stroke: #000000; stroke-width: 0.8"/>
      </g>
     </g>
     <g id="text_1">
      <!-- 250 -->
      <g transform="translate(60.124604 322.182437)scale(0.1 -0.1)">
       <defs>
        <path id="DejaVuSans-32" d="M 1228 531 
L 3431 531 
L 3431 0 
L 469 0 
L 469 531 
Q 828 903 1448 1529 
Q 2069 2156 2228 2338 
Q 2531 2678 2651 2914 
Q 2772 3150 2772 3378 
Q 2772 3750 2511 3984 
Q 2250 4219 1831 4219 
Q 1534 4219 1204 4116 
Q 875 4013 500 3803 
L 500 4441 
Q 881 4594 1212 4672 
Q 1544 4750 1819 4750 
Q 2544 4750 2975 4387 
Q 3406 4025 3406 3419 
Q 3406 3131 3298 2873 
Q 3191 2616 2906 2266 
Q 2828 2175 2409 1742 
Q 1991 1309 1228 531 
z
" transform="scale(0.015625)"/>
        <path id="DejaVuSans-35" d="M 691 4666 
L 3169 4666 
L 3169 4134 
L 1269 4134 
L 1269 2991 
Q 1406 3038 1543 3061 
Q 1681 3084 1819 3084 
Q 2600 3084 3056 2656 
Q 3513 2228 3513 1497 
Q 3513 744 3044 326 
Q 2575 -91 1722 -91 
Q 1428 -91 1123 -41 
Q 819 9 494 109 
L 494 744 
Q 775 591 1075 516 
Q 1375 441 1709 441 
Q 2250 441 2565 725 
Q 2881 1009 2881 1497 
Q 2881 1984 2565 2268 
Q 2250 2553 1709 2553 
Q 1456 2553 1204 2497 
Q 953 2441 691 2322 
L 691 4666 
z
" transform="scale(0.015625)"/>
        <path id="DejaVuSans-30" d="M 2034 4250 
Q 1547 4250 1301 3770 
Q 1056 3291 1056 2328 
Q 1056 1369 1301 889 
Q 1547 409 2034 409 
Q 2525 409 2770 889 
Q 3016 1369 3016 2328 
Q 3016 3291 2770 3770 
Q 2525 4250 2034 4250 
z
M 2034 4750 
Q 2819 4750 3233 4129 
Q 3647 3509 3647 2328 
Q 3647 1150 3233 529 
Q 2819 -91 2034 -91 
Q 1250 -91 836 529 
Q 422 1150 422 2328 
Q 422 3509 836 4129 
Q 1250 4750 2034 4750 
z
" transform="scale(0.015625)"/>
       </defs>
       <use xlink:href="#DejaVuSans-32"/>
       <use xlink:href="#DejaVuSans-35" x="63.623047"/>
       <use xlink:href="#DejaVuSans-30" x="127.246094"/>
      </g>
     </g>
    </g>
    <g id="xtick_2">
     <g id="line2d_2">
      <g>
       <use xlink:href="#m8ef1bb4fb6" x="111.312087" y="307.584" style="stroke: #000000; stroke-width: 0.8"/>
      </g>
     </g>
     <g id="text_2">
      <!-- 500 -->
      <g transform="translate(101.768337 322.182437)scale(0.1 -0.1)">
       <use xlink:href="#DejaVuSans-35"/>
       <use xlink:href="#DejaVuSans-30" x="63.623047"/>
       <use xlink:href="#DejaVuSans-30" x="127.246094"/>
      </g>
     </g>
    </g>
    <g id="xtick_3">
     <g id="line2d_3">
      <g>
       <use xlink:href="#m8ef1bb4fb6" x="152.955821" y="307.584" style="stroke: #000000; stroke-width: 0.8"/>
      </g>
     </g>
     <g id="text_3">
      <!-- 750 -->
      <g transform="translate(143.412071 322.182437)scale(0.1 -0.1)">
       <defs>
        <path id="DejaVuSans-37" d="M 525 4666 
L 3525 4666 
L 3525 4397 
L 1831 0 
L 1172 0 
L 2766 4134 
L 525 4134 
L 525 4666 
z
" transform="scale(0.015625)"/>
       </defs>
       <use xlink:href="#DejaVuSans-37"/>
       <use xlink:href="#DejaVuSans-35" x="63.623047"/>
       <use xlink:href="#DejaVuSans-30" x="127.246094"/>
      </g>
     </g>
    </g>
    <g id="xtick_4">
     <g id="line2d_4">
      <g>
       <use xlink:href="#m8ef1bb4fb6" x="194.599554" y="307.584" style="stroke: #000000; stroke-width: 0.8"/>
      </g>
     </g>
     <g id="text_4">
      <!-- 1000 -->
      <g transform="translate(181.874554 322.182437)scale(0.1 -0.1)">
       <defs>
        <path id="DejaVuSans-31" d="M 794 531 
L 1825 531 
L 1825 4091 
L 703 3866 
L 703 4441 
L 1819 4666 
L 2450 4666 
L 2450 531 
L 3481 531 
L 3481 0 
L 794 0 
L 794 531 
z
" transform="scale(0.015625)"/>
       </defs>
       <use xlink:href="#DejaVuSans-31"/>
       <use xlink:href="#DejaVuSans-30" x="63.623047"/>
       <use xlink:href="#DejaVuSans-30" x="127.246094"/>
       <use xlink:href="#DejaVuSans-30" x="190.869141"/>
      </g>
     </g>
    </g>
    <g id="xtick_5">
     <g id="line2d_5">
      <g>
       <use xlink:href="#m8ef1bb4fb6" x="236.243287" y="307.584" style="stroke: #000000; stroke-width: 0.8"/>
      </g>
     </g>
     <g id="text_5">
      <!-- 1250 -->
      <g transform="translate(223.518287 322.182437)scale(0.1 -0.1)">
       <use xlink:href="#DejaVuSans-31"/>
       <use xlink:href="#DejaVuSans-32" x="63.623047"/>
       <use xlink:href="#DejaVuSans-35" x="127.246094"/>
       <use xlink:href="#DejaVuSans-30" x="190.869141"/>
      </g>
     </g>
    </g>
    <g id="xtick_6">
     <g id="line2d_6">
      <g>
       <use xlink:href="#m8ef1bb4fb6" x="277.887021" y="307.584" style="stroke: #000000; stroke-width: 0.8"/>
      </g>
     </g>
     <g id="text_6">
      <!-- 1500 -->
      <g transform="translate(265.162021 322.182437)scale(0.1 -0.1)">
       <use xlink:href="#DejaVuSans-31"/>
       <use xlink:href="#DejaVuSans-35" x="63.623047"/>
       <use xlink:href="#DejaVuSans-30" x="127.246094"/>
       <use xlink:href="#DejaVuSans-30" x="190.869141"/>
      </g>
     </g>
    </g>
    <g id="xtick_7">
     <g id="line2d_7">
      <g>
       <use xlink:href="#m8ef1bb4fb6" x="319.530754" y="307.584" style="stroke: #000000; stroke-width: 0.8"/>
      </g>
     </g>
     <g id="text_7">
      <!-- 1750 -->
      <g transform="translate(306.805754 322.182437)scale(0.1 -0.1)">
       <use xlink:href="#DejaVuSans-31"/>
       <use xlink:href="#DejaVuSans-37" x="63.623047"/>
       <use xlink:href="#DejaVuSans-35" x="127.246094"/>
       <use xlink:href="#DejaVuSans-30" x="190.869141"/>
      </g>
     </g>
    </g>
    <g id="xtick_8">
     <g id="line2d_8">
      <g>
       <use xlink:href="#m8ef1bb4fb6" x="361.174488" y="307.584" style="stroke: #000000; stroke-width: 0.8"/>
      </g>
     </g>
     <g id="text_8">
      <!-- 2000 -->
      <g transform="translate(348.449488 322.182437)scale(0.1 -0.1)">
       <use xlink:href="#DejaVuSans-32"/>
       <use xlink:href="#DejaVuSans-30" x="63.623047"/>
       <use xlink:href="#DejaVuSans-30" x="127.246094"/>
       <use xlink:href="#DejaVuSans-30" x="190.869141"/>
      </g>
     </g>
    </g>
    <g id="xtick_9">
     <g id="line2d_9">
      <g>
       <use xlink:href="#m8ef1bb4fb6" x="402.818221" y="307.584" style="stroke: #000000; stroke-width: 0.8"/>
      </g>
     </g>
     <g id="text_9">
      <!-- 2250 -->
      <g transform="translate(390.093221 322.182437)scale(0.1 -0.1)">
       <use xlink:href="#DejaVuSans-32"/>
       <use xlink:href="#DejaVuSans-32" x="63.623047"/>
       <use xlink:href="#DejaVuSans-35" x="127.246094"/>
       <use xlink:href="#DejaVuSans-30" x="190.869141"/>
      </g>
     </g>
    </g>
    <g id="text_10">
     <!-- Learned Episodes -->
     <g transform="translate(192.102187 335.860562)scale(0.1 -0.1)">
      <defs>
       <path id="DejaVuSans-4c" d="M 628 4666 
L 1259 4666 
L 1259 531 
L 3531 531 
L 3531 0 
L 628 0 
L 628 4666 
z
" transform="scale(0.015625)"/>
       <path id="DejaVuSans-65" d="M 3597 1894 
L 3597 1613 
L 953 1613 
Q 991 1019 1311 708 
Q 1631 397 2203 397 
Q 2534 397 2845 478 
Q 3156 559 3463 722 
L 3463 178 
Q 3153 47 2828 -22 
Q 2503 -91 2169 -91 
Q 1331 -91 842 396 
Q 353 884 353 1716 
Q 353 2575 817 3079 
Q 1281 3584 2069 3584 
Q 2775 3584 3186 3129 
Q 3597 2675 3597 1894 
z
M 3022 2063 
Q 3016 2534 2758 2815 
Q 2500 3097 2075 3097 
Q 1594 3097 1305 2825 
Q 1016 2553 972 2059 
L 3022 2063 
z
" transform="scale(0.015625)"/>
       <path id="DejaVuSans-61" d="M 2194 1759 
Q 1497 1759 1228 1600 
Q 959 1441 959 1056 
Q 959 750 1161 570 
Q 1363 391 1709 391 
Q 2188 391 2477 730 
Q 2766 1069 2766 1631 
L 2766 1759 
L 2194 1759 
z
M 3341 1997 
L 3341 0 
L 2766 0 
L 2766 531 
Q 2569 213 2275 61 
Q 1981 -91 1556 -91 
Q 1019 -91 701 211 
Q 384 513 384 1019 
Q 384 1609 779 1909 
Q 1175 2209 1959 2209 
L 2766 2209 
L 2766 2266 
Q 2766 2663 2505 2880 
Q 2244 3097 1772 3097 
Q 1472 3097 1187 3025 
Q 903 2953 641 2809 
L 641 3341 
Q 956 3463 1253 3523 
Q 1550 3584 1831 3584 
Q 2591 3584 2966 3190 
Q 3341 2797 3341 1997 
z
" transform="scale(0.015625)"/>
       <path id="DejaVuSans-72" d="M 2631 2963 
Q 2534 3019 2420 3045 
Q 2306 3072 2169 3072 
Q 1681 3072 1420 2755 
Q 1159 2438 1159 1844 
L 1159 0 
L 581 0 
L 581 3500 
L 1159 3500 
L 1159 2956 
Q 1341 3275 1631 3429 
Q 1922 3584 2338 3584 
Q 2397 3584 2469 3576 
Q 2541 3569 2628 3553 
L 2631 2963 
z
" transform="scale(0.015625)"/>
       <path id="DejaVuSans-6e" d="M 3513 2113 
L 3513 0 
L 2938 0 
L 2938 2094 
Q 2938 2591 2744 2837 
Q 2550 3084 2163 3084 
Q 1697 3084 1428 2787 
Q 1159 2491 1159 1978 
L 1159 0 
L 581 0 
L 581 3500 
L 1159 3500 
L 1159 2956 
Q 1366 3272 1645 3428 
Q 1925 3584 2291 3584 
Q 2894 3584 3203 3211 
Q 3513 2838 3513 2113 
z
" transform="scale(0.015625)"/>
       <path id="DejaVuSans-64" d="M 2906 2969 
L 2906 4863 
L 3481 4863 
L 3481 0 
L 2906 0 
L 2906 525 
Q 2725 213 2448 61 
Q 2172 -91 1784 -91 
Q 1150 -91 751 415 
Q 353 922 353 1747 
Q 353 2572 751 3078 
Q 1150 3584 1784 3584 
Q 2172 3584 2448 3432 
Q 2725 3281 2906 2969 
z
M 947 1747 
Q 947 1113 1208 752 
Q 1469 391 1925 391 
Q 2381 391 2643 752 
Q 2906 1113 2906 1747 
Q 2906 2381 2643 2742 
Q 2381 3103 1925 3103 
Q 1469 3103 1208 2742 
Q 947 2381 947 1747 
z
" transform="scale(0.015625)"/>
       <path id="DejaVuSans-20" transform="scale(0.015625)"/>
       <path id="DejaVuSans-45" d="M 628 4666 
L 3578 4666 
L 3578 4134 
L 1259 4134 
L 1259 2753 
L 3481 2753 
L 3481 2222 
L 1259 2222 
L 1259 531 
L 3634 531 
L 3634 0 
L 628 0 
L 628 4666 
z
" transform="scale(0.015625)"/>
       <path id="DejaVuSans-70" d="M 1159 525 
L 1159 -1331 
L 581 -1331 
L 581 3500 
L 1159 3500 
L 1159 2969 
Q 1341 3281 1617 3432 
Q 1894 3584 2278 3584 
Q 2916 3584 3314 3078 
Q 3713 2572 3713 1747 
Q 3713 922 3314 415 
Q 2916 -91 2278 -91 
Q 1894 -91 1617 61 
Q 1341 213 1159 525 
z
M 3116 1747 
Q 3116 2381 2855 2742 
Q 2594 3103 2138 3103 
Q 1681 3103 1420 2742 
Q 1159 2381 1159 1747 
Q 1159 1113 1420 752 
Q 1681 391 2138 391 
Q 2594 391 2855 752 
Q 3116 1113 3116 1747 
z
" transform="scale(0.015625)"/>
       <path id="DejaVuSans-69" d="M 603 3500 
L 1178 3500 
L 1178 0 
L 603 0 
L 603 3500 
z
M 603 4863 
L 1178 4863 
L 1178 4134 
L 603 4134 
L 603 4863 
z
" transform="scale(0.015625)"/>
       <path id="DejaVuSans-73" d="M 2834 3397 
L 2834 2853 
Q 2591 2978 2328 3040 
Q 2066 3103 1784 3103 
Q 1356 3103 1142 2972 
Q 928 2841 928 2578 
Q 928 2378 1081 2264 
Q 1234 2150 1697 2047 
L 1894 2003 
Q 2506 1872 2764 1633 
Q 3022 1394 3022 966 
Q 3022 478 2636 193 
Q 2250 -91 1575 -91 
Q 1294 -91 989 -36 
Q 684 19 347 128 
L 347 722 
Q 666 556 975 473 
Q 1284 391 1588 391 
Q 1994 391 2212 530 
Q 2431 669 2431 922 
Q 2431 1156 2273 1281 
Q 2116 1406 1581 1522 
L 1381 1569 
Q 847 1681 609 1914 
Q 372 2147 372 2553 
Q 372 3047 722 3315 
Q 1072 3584 1716 3584 
Q 2034 3584 2315 3537 
Q 2597 3491 2834 3397 
z
" transform="scale(0.015625)"/>
       <path id="DejaVuSans-6f" d="M 1959 3097 
Q 1497 3097 1228 2736 
Q 959 2375 959 1747 
Q 959 1119 1226 758 
Q 1494 397 1959 397 
Q 2419 397 2687 759 
Q 2956 1122 2956 1747 
Q 2956 2369 2687 2733 
Q 2419 3097 1959 3097 
z
M 1959 3584 
Q 2709 3584 3137 3096 
Q 3566 2609 3566 1747 
Q 3566 888 3137 398 
Q 2709 -91 1959 -91 
Q 1206 -91 779 398 
Q 353 888 353 1747 
Q 353 2609 779 3096 
Q 1206 3584 1959 3584 
z
" transform="scale(0.015625)"/>
      </defs>
      <use xlink:href="#DejaVuSans-4c"/>
      <use xlink:href="#DejaVuSans-65" x="53.962891"/>
      <use xlink:href="#DejaVuSans-61" x="115.486328"/>
      <use xlink:href="#DejaVuSans-72" x="176.765625"/>
      <use xlink:href="#DejaVuSans-6e" x="216.128906"/>
      <use xlink:href="#DejaVuSans-65" x="279.507812"/>
      <use xlink:href="#DejaVuSans-64" x="341.03125"/>
      <use xlink:href="#DejaVuSans-20" x="404.507812"/>
      <use xlink:href="#DejaVuSans-45" x="436.294922"/>
      <use xlink:href="#DejaVuSans-70" x="499.478516"/>
      <use xlink:href="#DejaVuSans-69" x="562.955078"/>
      <use xlink:href="#DejaVuSans-73" x="590.738281"/>
      <use xlink:href="#DejaVuSans-6f" x="642.837891"/>
      <use xlink:href="#DejaVuSans-64" x="704.019531"/>
      <use xlink:href="#DejaVuSans-65" x="767.496094"/>
      <use xlink:href="#DejaVuSans-73" x="829.019531"/>
     </g>
    </g>
   </g>
   <g id="matplotlib.axis_2">
    <g id="ytick_1">
     <g id="line2d_10">
      <defs>
       <path id="m6b2ace5059" d="M 0 0 
L -3.5 0 
" style="stroke: #000000; stroke-width: 0.8"/>
      </defs>
      <g>
       <use xlink:href="#m6b2ace5059" x="57.6" y="300.490201" style="stroke: #000000; stroke-width: 0.8"/>
      </g>
     </g>
     <g id="text_11">
      <!-- −100 -->
      <g transform="translate(23.132812 304.28942)scale(0.1 -0.1)">
       <defs>
        <path id="DejaVuSans-2212" d="M 678 2272 
L 4684 2272 
L 4684 1741 
L 678 1741 
L 678 2272 
z
" transform="scale(0.015625)"/>
       </defs>
       <use xlink:href="#DejaVuSans-2212"/>
       <use xlink:href="#DejaVuSans-31" x="83.789062"/>
       <use xlink:href="#DejaVuSans-30" x="147.412109"/>
       <use xlink:href="#DejaVuSans-30" x="211.035156"/>
      </g>
     </g>
    </g>
    <g id="ytick_2">
     <g id="line2d_11">
      <g>
       <use xlink:href="#m6b2ace5059" x="57.6" y="245.347505" style="stroke: #000000; stroke-width: 0.8"/>
      </g>
     </g>
     <g id="text_12">
      <!-- −80 -->
      <g transform="translate(29.495313 249.146724)scale(0.1 -0.1)">
       <defs>
        <path id="DejaVuSans-38" d="M 2034 2216 
Q 1584 2216 1326 1975 
Q 1069 1734 1069 1313 
Q 1069 891 1326 650 
Q 1584 409 2034 409 
Q 2484 409 2743 651 
Q 3003 894 3003 1313 
Q 3003 1734 2745 1975 
Q 2488 2216 2034 2216 
z
M 1403 2484 
Q 997 2584 770 2862 
Q 544 3141 544 3541 
Q 544 4100 942 4425 
Q 1341 4750 2034 4750 
Q 2731 4750 3128 4425 
Q 3525 4100 3525 3541 
Q 3525 3141 3298 2862 
Q 3072 2584 2669 2484 
Q 3125 2378 3379 2068 
Q 3634 1759 3634 1313 
Q 3634 634 3220 271 
Q 2806 -91 2034 -91 
Q 1263 -91 848 271 
Q 434 634 434 1313 
Q 434 1759 690 2068 
Q 947 2378 1403 2484 
z
M 1172 3481 
Q 1172 3119 1398 2916 
Q 1625 2713 2034 2713 
Q 2441 2713 2670 2916 
Q 2900 3119 2900 3481 
Q 2900 3844 2670 4047 
Q 2441 4250 2034 4250 
Q 1625 4250 1398 4047 
Q 1172 3844 1172 3481 
z
" transform="scale(0.015625)"/>
       </defs>
       <use xlink:href="#DejaVuSans-2212"/>
       <use xlink:href="#DejaVuSans-38" x="83.789062"/>
       <use xlink:href="#DejaVuSans-30" x="147.412109"/>
      </g>
     </g>
    </g>
    <g id="ytick_3">
     <g id="line2d_12">
      <g>
       <use xlink:href="#m6b2ace5059" x="57.6" y="190.20481" style="stroke: #000000; stroke-width: 0.8"/>
      </g>
     </g>
     <g id="text_13">
      <!-- −60 -->
      <g transform="translate(29.495313 194.004029)scale(0.1 -0.1)">
       <defs>
        <path id="DejaVuSans-36" d="M 2113 2584 
Q 1688 2584 1439 2293 
Q 1191 2003 1191 1497 
Q 1191 994 1439 701 
Q 1688 409 2113 409 
Q 2538 409 2786 701 
Q 3034 994 3034 1497 
Q 3034 2003 2786 2293 
Q 2538 2584 2113 2584 
z
M 3366 4563 
L 3366 3988 
Q 3128 4100 2886 4159 
Q 2644 4219 2406 4219 
Q 1781 4219 1451 3797 
Q 1122 3375 1075 2522 
Q 1259 2794 1537 2939 
Q 1816 3084 2150 3084 
Q 2853 3084 3261 2657 
Q 3669 2231 3669 1497 
Q 3669 778 3244 343 
Q 2819 -91 2113 -91 
Q 1303 -91 875 529 
Q 447 1150 447 2328 
Q 447 3434 972 4092 
Q 1497 4750 2381 4750 
Q 2619 4750 2861 4703 
Q 3103 4656 3366 4563 
z
" transform="scale(0.015625)"/>
       </defs>
       <use xlink:href="#DejaVuSans-2212"/>
       <use xlink:href="#DejaVuSans-36" x="83.789062"/>
       <use xlink:href="#DejaVuSans-30" x="147.412109"/>
      </g>
     </g>
    </g>
    <g id="ytick_4">
     <g id="line2d_13">
      <g>
       <use xlink:href="#m6b2ace5059" x="57.6" y="135.062114" style="stroke: #000000; stroke-width: 0.8"/>
      </g>
     </g>
     <g id="text_14">
      <!-- −40 -->
      <g transform="translate(29.495313 138.861333)scale(0.1 -0.1)">
       <defs>
        <path id="DejaVuSans-34" d="M 2419 4116 
L 825 1625 
L 2419 1625 
L 2419 4116 
z
M 2253 4666 
L 3047 4666 
L 3047 1625 
L 3713 1625 
L 3713 1100 
L 3047 1100 
L 3047 0 
L 2419 0 
L 2419 1100 
L 313 1100 
L 313 1709 
L 2253 4666 
z
" transform="scale(0.015625)"/>
       </defs>
       <use xlink:href="#DejaVuSans-2212"/>
       <use xlink:href="#DejaVuSans-34" x="83.789062"/>
       <use xlink:href="#DejaVuSans-30" x="147.412109"/>
      </g>
     </g>
    </g>
    <g id="ytick_5">
     <g id="line2d_14">
      <g>
       <use xlink:href="#m6b2ace5059" x="57.6" y="79.919419" style="stroke: #000000; stroke-width: 0.8"/>
      </g>
     </g>
     <g id="text_15">
      <!-- −20 -->
      <g transform="translate(29.495313 83.718638)scale(0.1 -0.1)">
       <use xlink:href="#DejaVuSans-2212"/>
       <use xlink:href="#DejaVuSans-32" x="83.789062"/>
       <use xlink:href="#DejaVuSans-30" x="147.412109"/>
      </g>
     </g>
    </g>
    <g id="text_16">
     <!-- Reward Density -->
     <g transform="translate(17.053125 213.74675)rotate(-90)scale(0.1 -0.1)">
      <defs>
       <path id="DejaVuSans-52" d="M 2841 2188 
Q 3044 2119 3236 1894 
Q 3428 1669 3622 1275 
L 4263 0 
L 3584 0 
L 2988 1197 
Q 2756 1666 2539 1819 
Q 2322 1972 1947 1972 
L 1259 1972 
L 1259 0 
L 628 0 
L 628 4666 
L 2053 4666 
Q 2853 4666 3247 4331 
Q 3641 3997 3641 3322 
Q 3641 2881 3436 2590 
Q 3231 2300 2841 2188 
z
M 1259 4147 
L 1259 2491 
L 2053 2491 
Q 2509 2491 2742 2702 
Q 2975 2913 2975 3322 
Q 2975 3731 2742 3939 
Q 2509 4147 2053 4147 
L 1259 4147 
z
" transform="scale(0.015625)"/>
       <path id="DejaVuSans-77" d="M 269 3500 
L 844 3500 
L 1563 769 
L 2278 3500 
L 2956 3500 
L 3675 769 
L 4391 3500 
L 4966 3500 
L 4050 0 
L 3372 0 
L 2619 2869 
L 1863 0 
L 1184 0 
L 269 3500 
z
" transform="scale(0.015625)"/>
       <path id="DejaVuSans-44" d="M 1259 4147 
L 1259 519 
L 2022 519 
Q 2988 519 3436 956 
Q 3884 1394 3884 2338 
Q 3884 3275 3436 3711 
Q 2988 4147 2022 4147 
L 1259 4147 
z
M 628 4666 
L 1925 4666 
Q 3281 4666 3915 4102 
Q 4550 3538 4550 2338 
Q 4550 1131 3912 565 
Q 3275 0 1925 0 
L 628 0 
L 628 4666 
z
" transform="scale(0.015625)"/>
       <path id="DejaVuSans-74" d="M 1172 4494 
L 1172 3500 
L 2356 3500 
L 2356 3053 
L 1172 3053 
L 1172 1153 
Q 1172 725 1289 603 
Q 1406 481 1766 481 
L 2356 481 
L 2356 0 
L 1766 0 
Q 1100 0 847 248 
Q 594 497 594 1153 
L 594 3053 
L 172 3053 
L 172 3500 
L 594 3500 
L 594 4494 
L 1172 4494 
z
" transform="scale(0.015625)"/>
       <path id="DejaVuSans-79" d="M 2059 -325 
Q 1816 -950 1584 -1140 
Q 1353 -1331 966 -1331 
L 506 -1331 
L 506 -850 
L 844 -850 
Q 1081 -850 1212 -737 
Q 1344 -625 1503 -206 
L 1606 56 
L 191 3500 
L 800 3500 
L 1894 763 
L 2988 3500 
L 3597 3500 
L 2059 -325 
z
" transform="scale(0.015625)"/>
      </defs>
      <use xlink:href="#DejaVuSans-52"/>
      <use xlink:href="#DejaVuSans-65" x="64.982422"/>
      <use xlink:href="#DejaVuSans-77" x="126.505859"/>
      <use xlink:href="#DejaVuSans-61" x="208.292969"/>
      <use xlink:href="#DejaVuSans-72" x="269.572266"/>
      <use xlink:href="#DejaVuSans-64" x="308.935547"/>
      <use xlink:href="#DejaVuSans-20" x="372.412109"/>
      <use xlink:href="#DejaVuSans-44" x="404.199219"/>
      <use xlink:href="#DejaVuSans-65" x="481.201172"/>
      <use xlink:href="#DejaVuSans-6e" x="542.724609"/>
      <use xlink:href="#DejaVuSans-73" x="606.103516"/>
      <use xlink:href="#DejaVuSans-69" x="658.203125"/>
      <use xlink:href="#DejaVuSans-74" x="685.986328"/>
      <use xlink:href="#DejaVuSans-79" x="725.195312"/>
     </g>
    </g>
   </g>
   <g id="LineCollection_1">
    <path d="M 92.572407 108.373734 
L 130.051767 108.373734 
" clip-path="url(#p575e54de5a)" style="fill: none; stroke: #1f77b4; stroke-width: 1.5"/>
    <path d="M 175.859874 108.863057 
L 213.339234 108.863057 
" clip-path="url(#p575e54de5a)" style="fill: none; stroke: #1f77b4; stroke-width: 1.5"/>
    <path d="M 259.147341 134.371892 
L 296.626701 134.371892 
" clip-path="url(#p575e54de5a)" style="fill: none; stroke: #1f77b4; stroke-width: 1.5"/>
    <path d="M 342.268233 130.440116 
L 379.747593 130.440116 
" clip-path="url(#p575e54de5a)" style="fill: none; stroke: #1f77b4; stroke-width: 1.5"/>
   </g>
   <g id="LineCollection_2">
    <path d="M 92.572407 53.954961 
L 130.051767 53.954961 
" clip-path="url(#p575e54de5a)" style="fill: none; stroke: #1f77b4; stroke-width: 1.5"/>
    <path d="M 175.859874 53.568 
L 213.339234 53.568 
" clip-path="url(#p575e54de5a)" style="fill: none; stroke: #1f77b4; stroke-width: 1.5"/>
    <path d="M 259.147341 58.928814 
L 296.626701 58.928814 
" clip-path="url(#p575e54de5a)" style="fill: none; stroke: #1f77b4; stroke-width: 1.5"/>
    <path d="M 342.268233 62.937004 
L 379.747593 62.937004 
" clip-path="url(#p575e54de5a)" style="fill: none; stroke: #1f77b4; stroke-width: 1.5"/>
   </g>
   <g id="LineCollection_3">
    <path d="M 92.572407 265.5261 
L 130.051767 265.5261 
" clip-path="url(#p575e54de5a)" style="fill: none; stroke: #1f77b4; stroke-width: 1.5"/>
    <path d="M 175.859874 210.552106 
L 213.339234 210.552106 
" clip-path="url(#p575e54de5a)" style="fill: none; stroke: #1f77b4; stroke-width: 1.5"/>
    <path d="M 259.147341 295.488 
L 296.626701 295.488 
" clip-path="url(#p575e54de5a)" style="fill: none; stroke: #1f77b4; stroke-width: 1.5"/>
    <path d="M 342.268233 239.313854 
L 379.747593 239.313854 
" clip-path="url(#p575e54de5a)" style="fill: none; stroke: #1f77b4; stroke-width: 1.5"/>
   </g>
   <g id="LineCollection_4">
    <path d="M 111.312087 265.5261 
L 111.312087 53.954961 
" clip-path="url(#p575e54de5a)" style="fill: none; stroke: #1f77b4; stroke-width: 1.5"/>
    <path d="M 194.599554 210.552106 
L 194.599554 53.568 
" clip-path="url(#p575e54de5a)" style="fill: none; stroke: #1f77b4; stroke-width: 1.5"/>
    <path d="M 277.887021 295.488 
L 277.887021 58.928814 
" clip-path="url(#p575e54de5a)" style="fill: none; stroke: #1f77b4; stroke-width: 1.5"/>
    <path d="M 361.007913 239.313854 
L 361.007913 62.937004 
" clip-path="url(#p575e54de5a)" style="fill: none; stroke: #1f77b4; stroke-width: 1.5"/>
   </g>
   <g id="line2d_15">
    <path d="M 111.312087 108.373734 
L 194.599554 108.863057 
L 277.887021 134.371892 
L 361.007913 130.440116 
" clip-path="url(#p575e54de5a)" style="fill: none; stroke: #4682b4; stroke-width: 1.5; stroke-linecap: square"/>
   </g>
   <g id="patch_3">
    <path d="M 57.6 307.584 
L 57.6 41.472 
" style="fill: none; stroke: #000000; stroke-width: 0.8; stroke-linejoin: miter; stroke-linecap: square"/>
   </g>
   <g id="patch_4">
    <path d="M 414.72 307.584 
L 414.72 41.472 
" style="fill: none; stroke: #000000; stroke-width: 0.8; stroke-linejoin: miter; stroke-linecap: square"/>
   </g>
   <g id="patch_5">
    <path d="M 57.6 307.584 
L 414.72 307.584 
" style="fill: none; stroke: #000000; stroke-width: 0.8; stroke-linejoin: miter; stroke-linecap: square"/>
   </g>
   <g id="patch_6">
    <path d="M 57.6 41.472 
L 414.72 41.472 
" style="fill: none; stroke: #000000; stroke-width: 0.8; stroke-linejoin: miter; stroke-linecap: square"/>
   </g>
   <g id="text_17">
    <!-- Violinplot for progress of profits/rebuy_cost -->
    <g transform="translate(106.935937 35.472)scale(0.12 -0.12)">
     <defs>
      <path id="DejaVuSans-56" d="M 1831 0 
L 50 4666 
L 709 4666 
L 2188 738 
L 3669 4666 
L 4325 4666 
L 2547 0 
L 1831 0 
z
" transform="scale(0.015625)"/>
      <path id="DejaVuSans-6c" d="M 603 4863 
L 1178 4863 
L 1178 0 
L 603 0 
L 603 4863 
z
" transform="scale(0.015625)"/>
      <path id="DejaVuSans-66" d="M 2375 4863 
L 2375 4384 
L 1825 4384 
Q 1516 4384 1395 4259 
Q 1275 4134 1275 3809 
L 1275 3500 
L 2222 3500 
L 2222 3053 
L 1275 3053 
L 1275 0 
L 697 0 
L 697 3053 
L 147 3053 
L 147 3500 
L 697 3500 
L 697 3744 
Q 697 4328 969 4595 
Q 1241 4863 1831 4863 
L 2375 4863 
z
" transform="scale(0.015625)"/>
      <path id="DejaVuSans-67" d="M 2906 1791 
Q 2906 2416 2648 2759 
Q 2391 3103 1925 3103 
Q 1463 3103 1205 2759 
Q 947 2416 947 1791 
Q 947 1169 1205 825 
Q 1463 481 1925 481 
Q 2391 481 2648 825 
Q 2906 1169 2906 1791 
z
M 3481 434 
Q 3481 -459 3084 -895 
Q 2688 -1331 1869 -1331 
Q 1566 -1331 1297 -1286 
Q 1028 -1241 775 -1147 
L 775 -588 
Q 1028 -725 1275 -790 
Q 1522 -856 1778 -856 
Q 2344 -856 2625 -561 
Q 2906 -266 2906 331 
L 2906 616 
Q 2728 306 2450 153 
Q 2172 0 1784 0 
Q 1141 0 747 490 
Q 353 981 353 1791 
Q 353 2603 747 3093 
Q 1141 3584 1784 3584 
Q 2172 3584 2450 3431 
Q 2728 3278 2906 2969 
L 2906 3500 
L 3481 3500 
L 3481 434 
z
" transform="scale(0.015625)"/>
      <path id="DejaVuSans-2f" d="M 1625 4666 
L 2156 4666 
L 531 -594 
L 0 -594 
L 1625 4666 
z
" transform="scale(0.015625)"/>
      <path id="DejaVuSans-62" d="M 3116 1747 
Q 3116 2381 2855 2742 
Q 2594 3103 2138 3103 
Q 1681 3103 1420 2742 
Q 1159 2381 1159 1747 
Q 1159 1113 1420 752 
Q 1681 391 2138 391 
Q 2594 391 2855 752 
Q 3116 1113 3116 1747 
z
M 1159 2969 
Q 1341 3281 1617 3432 
Q 1894 3584 2278 3584 
Q 2916 3584 3314 3078 
Q 3713 2572 3713 1747 
Q 3713 922 3314 415 
Q 2916 -91 2278 -91 
Q 1894 -91 1617 61 
Q 1341 213 1159 525 
L 1159 0 
L 581 0 
L 581 4863 
L 1159 4863 
L 1159 2969 
z
" transform="scale(0.015625)"/>
      <path id="DejaVuSans-75" d="M 544 1381 
L 544 3500 
L 1119 3500 
L 1119 1403 
Q 1119 906 1312 657 
Q 1506 409 1894 409 
Q 2359 409 2629 706 
Q 2900 1003 2900 1516 
L 2900 3500 
L 3475 3500 
L 3475 0 
L 2900 0 
L 2900 538 
Q 2691 219 2414 64 
Q 2138 -91 1772 -91 
Q 1169 -91 856 284 
Q 544 659 544 1381 
z
M 1991 3584 
L 1991 3584 
z
" transform="scale(0.015625)"/>
      <path id="DejaVuSans-5f" d="M 3263 -1063 
L 3263 -1509 
L -63 -1509 
L -63 -1063 
L 3263 -1063 
z
" transform="scale(0.015625)"/>
      <path id="DejaVuSans-63" d="M 3122 3366 
L 3122 2828 
Q 2878 2963 2633 3030 
Q 2388 3097 2138 3097 
Q 1578 3097 1268 2742 
Q 959 2388 959 1747 
Q 959 1106 1268 751 
Q 1578 397 2138 397 
Q 2388 397 2633 464 
Q 2878 531 3122 666 
L 3122 134 
Q 2881 22 2623 -34 
Q 2366 -91 2075 -91 
Q 1284 -91 818 406 
Q 353 903 353 1747 
Q 353 2603 823 3093 
Q 1294 3584 2113 3584 
Q 2378 3584 2631 3529 
Q 2884 3475 3122 3366 
z
" transform="scale(0.015625)"/>
     </defs>
     <use xlink:href="#DejaVuSans-56"/>
     <use xlink:href="#DejaVuSans-69" x="66.158203"/>
     <use xlink:href="#DejaVuSans-6f" x="93.941406"/>
     <use xlink:href="#DejaVuSans-6c" x="155.123047"/>
     <use xlink:href="#DejaVuSans-69" x="182.90625"/>
     <use xlink:href="#DejaVuSans-6e" x="210.689453"/>
     <use xlink:href="#DejaVuSans-70" x="274.068359"/>
     <use xlink:href="#DejaVuSans-6c" x="337.544922"/>
     <use xlink:href="#DejaVuSans-6f" x="365.328125"/>
     <use xlink:href="#DejaVuSans-74" x="426.509766"/>
     <use xlink:href="#DejaVuSans-20" x="465.71875"/>
     <use xlink:href="#DejaVuSans-66" x="497.505859"/>
     <use xlink:href="#DejaVuSans-6f" x="532.710938"/>
     <use xlink:href="#DejaVuSans-72" x="593.892578"/>
     <use xlink:href="#DejaVuSans-20" x="635.005859"/>
     <use xlink:href="#DejaVuSans-70" x="666.792969"/>
     <use xlink:href="#DejaVuSans-72" x="730.269531"/>
     <use xlink:href="#DejaVuSans-6f" x="769.132812"/>
     <use xlink:href="#DejaVuSans-67" x="830.314453"/>
     <use xlink:href="#DejaVuSans-72" x="893.791016"/>
     <use xlink:href="#DejaVuSans-65" x="932.654297"/>
     <use xlink:href="#DejaVuSans-73" x="994.177734"/>
     <use xlink:href="#DejaVuSans-73" x="1046.277344"/>
     <use xlink:href="#DejaVuSans-20" x="1098.376953"/>
     <use xlink:href="#DejaVuSans-6f" x="1130.164062"/>
     <use xlink:href="#DejaVuSans-66" x="1191.345703"/>
     <use xlink:href="#DejaVuSans-20" x="1226.550781"/>
     <use xlink:href="#DejaVuSans-70" x="1258.337891"/>
     <use xlink:href="#DejaVuSans-72" x="1321.814453"/>
     <use xlink:href="#DejaVuSans-6f" x="1360.677734"/>
     <use xlink:href="#DejaVuSans-66" x="1421.859375"/>
     <use xlink:href="#DejaVuSans-69" x="1457.064453"/>
     <use xlink:href="#DejaVuSans-74" x="1484.847656"/>
     <use xlink:href="#DejaVuSans-73" x="1524.056641"/>
     <use xlink:href="#DejaVuSans-2f" x="1576.15625"/>
     <use xlink:href="#DejaVuSans-72" x="1609.847656"/>
     <use xlink:href="#DejaVuSans-65" x="1648.710938"/>
     <use xlink:href="#DejaVuSans-62" x="1710.234375"/>
     <use xlink:href="#DejaVuSans-75" x="1773.710938"/>
     <use xlink:href="#DejaVuSans-79" x="1837.089844"/>
     <use xlink:href="#DejaVuSans-5f" x="1896.269531"/>
     <use xlink:href="#DejaVuSans-63" x="1946.269531"/>
     <use xlink:href="#DejaVuSans-6f" x="2001.25"/>
     <use xlink:href="#DejaVuSans-73" x="2062.431641"/>
     <use xlink:href="#DejaVuSans-74" x="2114.53125"/>
    </g>
   </g>
   <g id="legend_1">
    <g id="patch_7">
     <path d="M 276.25125 64.150125 
L 407.72 64.150125 
Q 409.72 64.150125 409.72 62.150125 
L 409.72 48.472 
Q 409.72 46.472 407.72 46.472 
L 276.25125 46.472 
Q 274.25125 46.472 274.25125 48.472 
L 274.25125 62.150125 
Q 274.25125 64.150125 276.25125 64.150125 
z
" style="fill: #ffffff; opacity: 0.8; stroke: #cccccc; stroke-linejoin: miter"/>
    </g>
    <g id="line2d_16">
     <path d="M 278.25125 54.570438 
L 288.25125 54.570438 
L 298.25125 54.570438 
" style="fill: none; stroke: #4682b4; stroke-width: 1.5; stroke-linecap: square"/>
    </g>
    <g id="text_18">
     <!-- StableBaselinesSAC -->
     <g transform="translate(306.25125 58.070438)scale(0.1 -0.1)">
      <defs>
       <path id="DejaVuSans-53" d="M 3425 4513 
L 3425 3897 
Q 3066 4069 2747 4153 
Q 2428 4238 2131 4238 
Q 1616 4238 1336 4038 
Q 1056 3838 1056 3469 
Q 1056 3159 1242 3001 
Q 1428 2844 1947 2747 
L 2328 2669 
Q 3034 2534 3370 2195 
Q 3706 1856 3706 1288 
Q 3706 609 3251 259 
Q 2797 -91 1919 -91 
Q 1588 -91 1214 -16 
Q 841 59 441 206 
L 441 856 
Q 825 641 1194 531 
Q 1563 422 1919 422 
Q 2459 422 2753 634 
Q 3047 847 3047 1241 
Q 3047 1584 2836 1778 
Q 2625 1972 2144 2069 
L 1759 2144 
Q 1053 2284 737 2584 
Q 422 2884 422 3419 
Q 422 4038 858 4394 
Q 1294 4750 2059 4750 
Q 2388 4750 2728 4690 
Q 3069 4631 3425 4513 
z
" transform="scale(0.015625)"/>
       <path id="DejaVuSans-42" d="M 1259 2228 
L 1259 519 
L 2272 519 
Q 2781 519 3026 730 
Q 3272 941 3272 1375 
Q 3272 1813 3026 2020 
Q 2781 2228 2272 2228 
L 1259 2228 
z
M 1259 4147 
L 1259 2741 
L 2194 2741 
Q 2656 2741 2882 2914 
Q 3109 3088 3109 3444 
Q 3109 3797 2882 3972 
Q 2656 4147 2194 4147 
L 1259 4147 
z
M 628 4666 
L 2241 4666 
Q 2963 4666 3353 4366 
Q 3744 4066 3744 3513 
Q 3744 3084 3544 2831 
Q 3344 2578 2956 2516 
Q 3422 2416 3680 2098 
Q 3938 1781 3938 1306 
Q 3938 681 3513 340 
Q 3088 0 2303 0 
L 628 0 
L 628 4666 
z
" transform="scale(0.015625)"/>
       <path id="DejaVuSans-41" d="M 2188 4044 
L 1331 1722 
L 3047 1722 
L 2188 4044 
z
M 1831 4666 
L 2547 4666 
L 4325 0 
L 3669 0 
L 3244 1197 
L 1141 1197 
L 716 0 
L 50 0 
L 1831 4666 
z
" transform="scale(0.015625)"/>
       <path id="DejaVuSans-43" d="M 4122 4306 
L 4122 3641 
Q 3803 3938 3442 4084 
Q 3081 4231 2675 4231 
Q 1875 4231 1450 3742 
Q 1025 3253 1025 2328 
Q 1025 1406 1450 917 
Q 1875 428 2675 428 
Q 3081 428 3442 575 
Q 3803 722 4122 1019 
L 4122 359 
Q 3791 134 3420 21 
Q 3050 -91 2638 -91 
Q 1578 -91 968 557 
Q 359 1206 359 2328 
Q 359 3453 968 4101 
Q 1578 4750 2638 4750 
Q 3056 4750 3426 4639 
Q 3797 4528 4122 4306 
z
" transform="scale(0.015625)"/>
      </defs>
      <use xlink:href="#DejaVuSans-53"/>
      <use xlink:href="#DejaVuSans-74" x="63.476562"/>
      <use xlink:href="#DejaVuSans-61" x="102.685547"/>
      <use xlink:href="#DejaVuSans-62" x="163.964844"/>
      <use xlink:href="#DejaVuSans-6c" x="227.441406"/>
      <use xlink:href="#DejaVuSans-65" x="255.224609"/>
      <use xlink:href="#DejaVuSans-42" x="316.748047"/>
      <use xlink:href="#DejaVuSans-61" x="385.351562"/>
      <use xlink:href="#DejaVuSans-73" x="446.630859"/>
      <use xlink:href="#DejaVuSans-65" x="498.730469"/>
      <use xlink:href="#DejaVuSans-6c" x="560.253906"/>
      <use xlink:href="#DejaVuSans-69" x="588.037109"/>
      <use xlink:href="#DejaVuSans-6e" x="615.820312"/>
      <use xlink:href="#DejaVuSans-65" x="679.199219"/>
      <use xlink:href="#DejaVuSans-73" x="740.722656"/>
      <use xlink:href="#DejaVuSans-53" x="792.822266"/>
      <use xlink:href="#DejaVuSans-41" x="858.173828"/>
      <use xlink:href="#DejaVuSans-43" x="924.832031"/>
     </g>
    </g>
   </g>
  </g>
 </g>
 <defs>
  <clipPath id="p575e54de5a">
   <rect x="57.6" y="41.472" width="357.12" height="266.112"/>
  </clipPath>
 </defs>
</svg>
