<?xml version="1.0" encoding="utf-8" standalone="no"?>
<!DOCTYPE svg PUBLIC "-//W3C//DTD SVG 1.1//EN"
  "http://www.w3.org/Graphics/SVG/1.1/DTD/svg11.dtd">
<svg xmlns:xlink="http://www.w3.org/1999/xlink" width="460.8pt" height="345.6pt" viewBox="0 0 460.8 345.6" xmlns="http://www.w3.org/2000/svg" version="1.1">
 <metadata>
  <rdf:RDF xmlns:dc="http://purl.org/dc/elements/1.1/" xmlns:cc="http://creativecommons.org/ns#" xmlns:rdf="http://www.w3.org/1999/02/22-rdf-syntax-ns#">
   <cc:Work>
    <dc:type rdf:resource="http://purl.org/dc/dcmitype/StillImage"/>
    <dc:date>2022-06-20T17:59:10.087797</dc:date>
    <dc:format>image/svg+xml</dc:format>
    <dc:creator>
     <cc:Agent>
      <dc:title>Matplotlib v3.5.2, https://matplotlib.org/</dc:title>
     </cc:Agent>
    </dc:creator>
   </cc:Work>
  </rdf:RDF>
 </metadata>
 <defs>
  <style type="text/css">*{stroke-linejoin: round; stroke-linecap: butt}</style>
 </defs>
 <g id="figure_1">
  <g id="patch_1">
   <path d="M 0 345.6 
L 460.8 345.6 
L 460.8 0 
L 0 0 
z
" style="fill: #ffffff"/>
  </g>
  <g id="axes_1">
   <g id="patch_2">
    <path d="M 57.6 307.584 
L 414.72 307.584 
L 414.72 41.472 
L 57.6 41.472 
z
" style="fill: #ffffff"/>
   </g>
   <g id="PolyCollection_1">
    <path d="M 112.109989 295.488 
L 103.903791 295.488 
L 102.941168 294.332826 
L 101.848081 293.177653 
L 100.62953 292.022479 
L 99.295593 290.867306 
L 97.86126 289.712132 
L 96.345874 288.556959 
L 94.772173 287.401785 
L 93.165014 286.246612 
L 91.549852 285.091438 
L 89.951149 283.936264 
L 88.39085 282.781091 
L 86.88712 281.625917 
L 85.453458 280.470744 
L 84.098333 279.31557 
L 82.825359 278.160397 
L 81.634036 277.005223 
L 80.520963 275.85005 
L 79.481424 274.694876 
L 78.511153 273.539702 
L 77.608062 272.384529 
L 76.773699 271.229355 
L 76.014182 270.074182 
L 75.34042 268.919008 
L 74.767503 267.763835 
L 74.313266 266.608661 
L 73.996165 265.453488 
L 73.832727 264.298314 
L 73.834949 263.14314 
L 74.008007 261.987967 
L 74.348668 260.832793 
L 74.844631 259.67762 
L 75.474954 258.522446 
L 76.211522 257.367273 
L 77.021373 256.212099 
L 77.869594 255.056926 
L 78.72238 253.901752 
L 79.549884 252.746579 
L 80.328466 251.591405 
L 81.04211 250.436231 
L 81.682859 249.281058 
L 82.250322 248.125884 
L 82.750434 246.970711 
L 83.193742 245.815537 
L 83.593557 244.660364 
L 83.964257 243.50519 
L 84.319951 242.350017 
L 84.673586 241.194843 
L 85.036484 240.039669 
L 85.418163 238.884496 
L 85.826319 237.729322 
L 86.266813 236.574149 
L 86.743594 235.418975 
L 87.258546 234.263802 
L 87.811329 233.108628 
L 88.399297 231.953455 
L 89.017586 230.798281 
L 89.659414 229.643107 
L 90.316571 228.487934 
L 90.980033 227.33276 
L 91.640585 226.177587 
L 92.289358 225.022413 
L 92.918234 223.86724 
L 93.520111 222.712066 
L 94.089105 221.556893 
L 94.620775 220.401719 
L 95.112444 219.246545 
L 95.56363 218.091372 
L 95.976501 216.936198 
L 96.356221 215.781025 
L 96.710992 214.625851 
L 97.051635 213.470678 
L 97.390644 212.315504 
L 97.740781 211.160331 
L 98.113407 210.005157 
L 98.516857 208.849983 
L 98.955207 207.69481 
L 99.427679 206.539636 
L 99.928862 205.384463 
L 100.44969 204.229289 
L 100.978994 203.074116 
L 101.505277 201.918942 
L 102.018375 200.763769 
L 102.510658 199.608595 
L 102.9776 198.453421 
L 103.417672 197.298248 
L 103.83168 196.143074 
L 104.221783 194.987901 
L 104.590461 193.832727 
L 104.939668 192.677554 
L 105.270342 191.52238 
L 105.582295 190.367207 
L 105.874459 189.212033 
L 106.145329 188.05686 
L 106.393475 186.901686 
L 106.617974 185.746512 
L 106.818669 184.591339 
L 106.996239 183.436165 
L 107.152081 182.280992 
L 107.288085 181.125818 
L 108.725695 181.125818 
L 108.725695 181.125818 
L 108.861699 182.280992 
L 109.017541 183.436165 
L 109.195111 184.591339 
L 109.395806 185.746512 
L 109.620305 186.901686 
L 109.868451 188.05686 
L 110.139321 189.212033 
L 110.431485 190.367207 
L 110.743438 191.52238 
L 111.074112 192.677554 
L 111.423319 193.832727 
L 111.791997 194.987901 
L 112.1821 196.143074 
L 112.596108 197.298248 
L 113.03618 198.453421 
L 113.503122 199.608595 
L 113.995405 200.763769 
L 114.508503 201.918942 
L 115.034786 203.074116 
L 115.56409 204.229289 
L 116.084918 205.384463 
L 116.586101 206.539636 
L 117.058573 207.69481 
L 117.496923 208.849983 
L 117.900373 210.005157 
L 118.272999 211.160331 
L 118.623136 212.315504 
L 118.962145 213.470678 
L 119.302788 214.625851 
L 119.657559 215.781025 
L 120.037279 216.936198 
L 120.45015 218.091372 
L 120.901336 219.246545 
L 121.393005 220.401719 
L 121.924675 221.556893 
L 122.493668 222.712066 
L 123.095546 223.86724 
L 123.724422 225.022413 
L 124.373195 226.177587 
L 125.033746 227.33276 
L 125.697208 228.487934 
L 126.354366 229.643107 
L 126.996194 230.798281 
L 127.614483 231.953455 
L 128.202451 233.108628 
L 128.755234 234.263802 
L 129.270186 235.418975 
L 129.746967 236.574149 
L 130.187461 237.729322 
L 130.595617 238.884496 
L 130.977296 240.039669 
L 131.340194 241.194843 
L 131.693829 242.350017 
L 132.049522 243.50519 
L 132.420223 244.660364 
L 132.820038 245.815537 
L 133.263346 246.970711 
L 133.763457 248.125884 
L 134.330921 249.281058 
L 134.971669 250.436231 
L 135.685314 251.591405 
L 136.463896 252.746579 
L 137.2914 253.901752 
L 138.144186 255.056926 
L 138.992407 256.212099 
L 139.802258 257.367273 
L 140.538826 258.522446 
L 141.169149 259.67762 
L 141.665111 260.832793 
L 142.005772 261.987967 
L 142.178831 263.14314 
L 142.181053 264.298314 
L 142.017615 265.453488 
L 141.700514 266.608661 
L 141.246277 267.763835 
L 140.67336 268.919008 
L 139.999598 270.074182 
L 139.240081 271.229355 
L 138.405718 272.384529 
L 137.502627 273.539702 
L 136.532356 274.694876 
L 135.492817 275.85005 
L 134.379744 277.005223 
L 133.188421 278.160397 
L 131.915447 279.31557 
L 130.560322 280.470744 
L 129.12666 281.625917 
L 127.62293 282.781091 
L 126.062631 283.936264 
L 124.463928 285.091438 
L 122.848766 286.246612 
L 121.241606 287.401785 
L 119.667906 288.556959 
L 118.15252 289.712132 
L 116.718187 290.867306 
L 115.38425 292.022479 
L 114.165699 293.177653 
L 113.072612 294.332826 
L 112.109989 295.488 
z
" clip-path="url(#pe8725911ef)" style="fill: #1f77b4; fill-opacity: 0.3"/>
   </g>
   <g id="PolyCollection_2">
    <path d="M 195.967139 285.224727 
L 190.917455 285.224727 
L 190.534724 283.432727 
L 190.138106 281.640727 
L 189.730857 279.848727 
L 189.31447 278.056727 
L 188.888037 276.264727 
L 188.447757 274.472727 
L 187.986694 272.680727 
L 187.494886 270.888727 
L 186.959894 269.096727 
L 186.367815 267.304727 
L 185.704694 265.512727 
L 184.958222 263.720727 
L 184.119443 261.928727 
L 183.184235 260.136727 
L 182.154245 258.344727 
L 181.037078 256.552727 
L 179.845642 254.760727 
L 178.596672 252.968727 
L 177.308671 251.176727 
L 175.999612 249.384727 
L 174.684807 247.592727 
L 173.375384 245.800727 
L 172.077681 244.008727 
L 170.793732 242.216727 
L 169.522792 240.424727 
L 168.263656 238.632727 
L 167.017349 236.840727 
L 165.789667 235.048727 
L 164.593065 233.256727 
L 163.44743 231.464727 
L 162.379503 229.672727 
L 161.420885 227.880727 
L 160.604847 226.088727 
L 159.962357 224.296727 
L 159.51793 222.504727 
L 159.285956 220.712727 
L 159.268134 218.920727 
L 159.452448 217.128727 
L 159.813912 215.336727 
L 160.316983 213.544727 
L 160.919293 211.752727 
L 161.576131 209.960727 
L 162.24506 208.168727 
L 162.890023 206.376727 
L 163.484475 204.584727 
L 164.013215 202.792727 
L 164.472816 201.000727 
L 164.87071 199.208727 
L 165.223137 197.416727 
L 165.552276 195.624727 
L 165.882914 193.832727 
L 166.239095 192.040727 
L 166.641137 190.248727 
L 167.103379 188.456727 
L 167.632925 186.664727 
L 168.229471 184.872727 
L 168.886154 183.080727 
L 169.591206 181.288727 
L 170.330066 179.496727 
L 171.087574 177.704727 
L 171.8499 175.912727 
L 172.60595 174.120727 
L 173.348121 172.328727 
L 174.072379 170.536727 
L 174.777767 168.744727 
L 175.465514 166.952727 
L 176.137926 165.160727 
L 176.797318 163.368727 
L 177.445137 161.576727 
L 178.081466 159.784727 
L 178.704952 157.992727 
L 179.313162 156.200727 
L 179.903261 154.408727 
L 180.472838 152.616727 
L 181.02069 150.824727 
L 181.547373 149.032727 
L 182.0554 147.240727 
L 182.549047 145.448727 
L 183.033803 143.656727 
L 183.515615 141.864727 
L 184.000058 140.072727 
L 184.491613 138.280727 
L 184.993163 136.488727 
L 185.505772 134.696727 
L 186.02875 132.904727 
L 186.559917 131.112727 
L 187.095982 129.320727 
L 187.632925 127.528727 
L 188.166302 125.736727 
L 188.691438 123.944727 
L 189.203525 122.152727 
L 189.697689 120.360727 
L 190.169077 118.568727 
L 190.613014 116.776727 
L 191.025257 114.984727 
L 191.402293 113.192727 
L 191.741634 111.400727 
L 192.042038 109.608727 
L 192.303587 107.816727 
L 194.581007 107.816727 
L 194.581007 107.816727 
L 194.842556 109.608727 
L 195.142959 111.400727 
L 195.4823 113.192727 
L 195.859336 114.984727 
L 196.271579 116.776727 
L 196.715516 118.568727 
L 197.186904 120.360727 
L 197.681069 122.152727 
L 198.193156 123.944727 
L 198.718291 125.736727 
L 199.251668 127.528727 
L 199.788612 129.320727 
L 200.324677 131.112727 
L 200.855843 132.904727 
L 201.378821 134.696727 
L 201.891431 136.488727 
L 202.39298 138.280727 
L 202.884535 140.072727 
L 203.368979 141.864727 
L 203.850791 143.656727 
L 204.335547 145.448727 
L 204.829193 147.240727 
L 205.337221 149.032727 
L 205.863904 150.824727 
L 206.411755 152.616727 
L 206.981332 154.408727 
L 207.571431 156.200727 
L 208.179642 157.992727 
L 208.803128 159.784727 
L 209.439456 161.576727 
L 210.087275 163.368727 
L 210.746667 165.160727 
L 211.41908 166.952727 
L 212.106826 168.744727 
L 212.812215 170.536727 
L 213.536472 172.328727 
L 214.278643 174.120727 
L 215.034694 175.912727 
L 215.79702 177.704727 
L 216.554528 179.496727 
L 217.293388 181.288727 
L 217.998439 183.080727 
L 218.655122 184.872727 
L 219.251668 186.664727 
L 219.781215 188.456727 
L 220.243457 190.248727 
L 220.645498 192.040727 
L 221.001679 193.832727 
L 221.332318 195.624727 
L 221.661456 197.416727 
L 222.013884 199.208727 
L 222.411777 201.000727 
L 222.871378 202.792727 
L 223.400118 204.584727 
L 223.99457 206.376727 
L 224.639534 208.168727 
L 225.308462 209.960727 
L 225.9653 211.752727 
L 226.56761 213.544727 
L 227.070682 215.336727 
L 227.432146 217.128727 
L 227.616459 218.920727 
L 227.598637 220.712727 
L 227.366663 222.504727 
L 226.922236 224.296727 
L 226.279746 226.088727 
L 225.463708 227.880727 
L 224.505091 229.672727 
L 223.437163 231.464727 
L 222.291528 233.256727 
L 221.094926 235.048727 
L 219.867245 236.840727 
L 218.620937 238.632727 
L 217.361801 240.424727 
L 216.090861 242.216727 
L 214.806912 244.008727 
L 213.509209 245.800727 
L 212.199786 247.592727 
L 210.884981 249.384727 
L 209.575922 251.176727 
L 208.287922 252.968727 
L 207.038951 254.760727 
L 205.847515 256.552727 
L 204.730349 258.344727 
L 203.700358 260.136727 
L 202.76515 261.928727 
L 201.926372 263.720727 
L 201.179899 265.512727 
L 200.516779 267.304727 
L 199.924699 269.096727 
L 199.389708 270.888727 
L 198.8979 272.680727 
L 198.436836 274.472727 
L 197.996556 276.264727 
L 197.570123 278.056727 
L 197.153737 279.848727 
L 196.746488 281.640727 
L 196.349869 283.432727 
L 195.967139 285.224727 
z
" clip-path="url(#pe8725911ef)" style="fill: #1f77b4; fill-opacity: 0.3"/>
   </g>
   <g id="PolyCollection_3">
    <path d="M 281.160481 273.495273 
L 276.594925 273.495273 
L 276.070728 271.510744 
L 275.46296 269.526215 
L 274.768072 267.541686 
L 273.984847 265.557157 
L 273.114811 263.572628 
L 272.162489 261.588099 
L 271.135443 259.60357 
L 270.044044 257.619041 
L 268.900941 255.634512 
L 267.720243 253.649983 
L 266.516441 251.665455 
L 265.30319 249.680926 
L 264.092073 247.696397 
L 262.891537 245.711868 
L 261.706156 243.727339 
L 260.536407 241.74281 
L 259.379024 239.758281 
L 258.227975 237.773752 
L 257.075964 235.789223 
L 255.916294 233.804694 
L 254.744848 231.820165 
L 253.561907 229.835636 
L 252.373517 227.851107 
L 251.192185 225.866579 
L 250.036739 223.88205 
L 248.93132 221.897521 
L 247.903561 219.912992 
L 246.982145 217.928463 
L 246.194002 215.943934 
L 245.561471 213.959405 
L 245.099771 211.974876 
L 244.815089 209.990347 
L 244.703541 208.005818 
L 244.751136 206.021289 
L 244.934785 204.03676 
L 245.224235 202.052231 
L 245.584709 200.067702 
L 245.979969 198.083174 
L 246.375433 196.098645 
L 246.741025 194.114116 
L 247.05346 192.129587 
L 247.29776 190.145058 
L 247.467888 188.160529 
L 247.566516 186.176 
L 247.604006 184.191471 
L 247.596783 182.206942 
L 247.565309 180.222413 
L 247.531884 178.237884 
L 247.518494 176.253355 
L 247.544878 174.268826 
L 247.626972 172.284298 
L 247.7758 170.299769 
L 247.996857 168.31524 
L 248.289977 166.330711 
L 248.649637 164.346182 
L 249.065627 162.361653 
L 249.524002 160.377124 
L 250.008229 158.392595 
L 250.500451 156.408066 
L 250.982789 154.423537 
L 251.438627 152.439008 
L 251.853816 150.454479 
L 252.217734 148.46995 
L 252.524153 146.485421 
L 252.771833 144.500893 
L 252.964776 142.516364 
L 253.112096 140.531835 
L 253.227461 138.547306 
L 253.32813 136.562777 
L 253.433643 134.578248 
L 253.564276 132.593719 
L 253.73943 130.60919 
L 253.976125 128.624661 
L 254.287783 126.640132 
L 254.683413 124.655603 
L 255.16731 122.671074 
L 255.739213 120.686545 
L 256.394899 118.702017 
L 257.127037 116.717488 
L 257.926172 114.732959 
L 258.78168 112.74843 
L 259.682578 110.763901 
L 260.618127 108.779372 
L 261.578211 106.794843 
L 262.553533 104.810314 
L 263.535681 102.825785 
L 264.517124 100.841256 
L 265.491187 98.856727 
L 266.452034 96.872198 
L 267.39465 94.887669 
L 268.314819 92.90314 
L 269.209067 90.918612 
L 270.074555 88.934083 
L 270.908932 86.949554 
L 271.710136 84.965025 
L 272.476198 82.980496 
L 273.205069 80.995967 
L 273.894513 79.011438 
L 274.542082 77.026909 
L 283.213325 77.026909 
L 283.213325 77.026909 
L 283.860894 79.011438 
L 284.550337 80.995967 
L 285.279209 82.980496 
L 286.045271 84.965025 
L 286.846475 86.949554 
L 287.680851 88.934083 
L 288.54634 90.918612 
L 289.440587 92.90314 
L 290.360757 94.887669 
L 291.303373 96.872198 
L 292.26422 98.856727 
L 293.238283 100.841256 
L 294.219725 102.825785 
L 295.201873 104.810314 
L 296.177195 106.794843 
L 297.137279 108.779372 
L 298.072828 110.763901 
L 298.973727 112.74843 
L 299.829235 114.732959 
L 300.62837 116.717488 
L 301.360507 118.702017 
L 302.016194 120.686545 
L 302.588097 122.671074 
L 303.071993 124.655603 
L 303.467624 126.640132 
L 303.779281 128.624661 
L 304.015977 130.60919 
L 304.191131 132.593719 
L 304.321764 134.578248 
L 304.427276 136.562777 
L 304.527946 138.547306 
L 304.643311 140.531835 
L 304.790631 142.516364 
L 304.983574 144.500893 
L 305.231253 146.485421 
L 305.537673 148.46995 
L 305.901591 150.454479 
L 306.316779 152.439008 
L 306.772618 154.423537 
L 307.254956 156.408066 
L 307.747178 158.392595 
L 308.231405 160.377124 
L 308.689779 162.361653 
L 309.10577 164.346182 
L 309.46543 166.330711 
L 309.75855 168.31524 
L 309.979607 170.299769 
L 310.128435 172.284298 
L 310.210529 174.268826 
L 310.236913 176.253355 
L 310.223523 178.237884 
L 310.190098 180.222413 
L 310.158624 182.206942 
L 310.151401 184.191471 
L 310.188891 186.176 
L 310.287519 188.160529 
L 310.457647 190.145058 
L 310.701947 192.129587 
L 311.014382 194.114116 
L 311.379974 196.098645 
L 311.775438 198.083174 
L 312.170698 200.067702 
L 312.531172 202.052231 
L 312.820621 204.03676 
L 313.004271 206.021289 
L 313.051866 208.005818 
L 312.940317 209.990347 
L 312.655636 211.974876 
L 312.193936 213.959405 
L 311.561405 215.943934 
L 310.773261 217.928463 
L 309.851845 219.912992 
L 308.824086 221.897521 
L 307.718667 223.88205 
L 306.563222 225.866579 
L 305.381889 227.851107 
L 304.1935 229.835636 
L 303.010559 231.820165 
L 301.839113 233.804694 
L 300.679443 235.789223 
L 299.527432 237.773752 
L 298.376383 239.758281 
L 297.219 241.74281 
L 296.049251 243.727339 
L 294.86387 245.711868 
L 293.663333 247.696397 
L 292.452217 249.680926 
L 291.238966 251.665455 
L 290.035164 253.649983 
L 288.854465 255.634512 
L 287.711363 257.619041 
L 286.619964 259.60357 
L 285.592918 261.588099 
L 284.640595 263.572628 
L 283.77056 265.557157 
L 282.987335 267.541686 
L 282.292447 269.526215 
L 281.684679 271.510744 
L 281.160481 273.495273 
z
" clip-path="url(#pe8725911ef)" style="fill: #1f77b4; fill-opacity: 0.3"/>
   </g>
   <g id="PolyCollection_4">
    <path d="M 367.322435 270.562909 
L 361.303785 270.562909 
L 360.805511 268.371041 
L 360.268732 266.179174 
L 359.691004 263.987306 
L 359.067186 261.795438 
L 358.389401 259.60357 
L 357.647502 257.411702 
L 356.830011 255.219835 
L 355.925428 253.027967 
L 354.923728 250.836099 
L 353.817814 248.644231 
L 352.604733 246.452364 
L 351.286502 244.260496 
L 349.87049 242.068628 
L 348.369352 239.87676 
L 346.800618 237.684893 
L 345.186013 235.493025 
L 343.550604 233.301157 
L 341.921809 231.109289 
L 340.328287 228.917421 
L 338.798676 226.725554 
L 337.360211 224.533686 
L 336.037243 222.341818 
L 334.849793 220.14995 
L 333.812278 217.958083 
L 332.932598 215.766215 
L 332.211707 213.574347 
L 331.643765 211.382479 
L 331.216836 209.190612 
L 330.914048 206.998744 
L 330.715044 204.806876 
L 330.597559 202.615008 
L 330.538954 200.42314 
L 330.517617 198.231273 
L 330.514172 196.039405 
L 330.512494 193.847537 
L 330.50054 191.655669 
L 330.470978 189.463802 
L 330.421606 187.271934 
L 330.355452 185.080066 
L 330.280508 182.888198 
L 330.209003 180.696331 
L 330.156224 178.504463 
L 330.138947 176.312595 
L 330.173646 174.120727 
L 330.274708 171.92886 
L 330.452932 169.736992 
L 330.714509 167.545124 
L 331.060669 165.353256 
L 331.487982 163.161388 
L 331.989234 160.969521 
L 332.554658 158.777653 
L 333.17326 156.585785 
L 333.833987 154.393917 
L 334.526536 152.20205 
L 335.24171 150.010182 
L 335.971329 147.818314 
L 336.707795 145.626446 
L 337.443485 143.434579 
L 338.170146 141.242711 
L 338.878477 139.050843 
L 339.55803 136.858975 
L 340.197499 134.667107 
L 340.7854 132.47524 
L 341.311095 130.283372 
L 341.76603 128.091504 
L 342.145041 125.899636 
L 342.447524 123.707769 
L 342.678313 121.515901 
L 342.848076 119.324033 
L 342.973153 117.132165 
L 343.074769 114.940298 
L 343.177693 112.74843 
L 343.308444 110.556562 
L 343.493241 108.364694 
L 343.755918 106.172826 
L 344.116035 103.980959 
L 344.587401 101.789091 
L 345.177149 99.597223 
L 345.88546 97.405355 
L 346.705909 95.213488 
L 347.626355 93.02162 
L 348.630224 90.829752 
L 349.697977 88.637884 
L 350.808613 86.446017 
L 351.940997 84.254149 
L 353.074956 82.062281 
L 354.192061 79.870413 
L 355.276122 77.678545 
L 356.313448 75.486678 
L 357.292933 73.29481 
L 358.206027 71.102942 
L 359.046668 68.911074 
L 359.811159 66.719207 
L 360.498027 64.527339 
L 361.107836 62.335471 
L 361.642952 60.143603 
L 362.10725 57.951736 
L 362.505773 55.759868 
L 362.844368 53.568 
L 365.781852 53.568 
L 365.781852 53.568 
L 366.120447 55.759868 
L 366.51897 57.951736 
L 366.983268 60.143603 
L 367.518384 62.335471 
L 368.128193 64.527339 
L 368.815061 66.719207 
L 369.579552 68.911074 
L 370.420193 71.102942 
L 371.333288 73.29481 
L 372.312772 75.486678 
L 373.350098 77.678545 
L 374.43416 79.870413 
L 375.551264 82.062281 
L 376.685223 84.254149 
L 377.817607 86.446017 
L 378.928243 88.637884 
L 379.995997 90.829752 
L 380.999865 93.02162 
L 381.920311 95.213488 
L 382.74076 97.405355 
L 383.449071 99.597223 
L 384.038819 101.789091 
L 384.510185 103.980959 
L 384.870302 106.172826 
L 385.132979 108.364694 
L 385.317776 110.556562 
L 385.448527 112.74843 
L 385.551451 114.940298 
L 385.653067 117.132165 
L 385.778144 119.324033 
L 385.947908 121.515901 
L 386.178696 123.707769 
L 386.48118 125.899636 
L 386.86019 128.091504 
L 387.315125 130.283372 
L 387.84082 132.47524 
L 388.428721 134.667107 
L 389.06819 136.858975 
L 389.747743 139.050843 
L 390.456075 141.242711 
L 391.182735 143.434579 
L 391.918425 145.626446 
L 392.654891 147.818314 
L 393.38451 150.010182 
L 394.099684 152.20205 
L 394.792233 154.393917 
L 395.45296 156.585785 
L 396.071562 158.777653 
L 396.636986 160.969521 
L 397.138238 163.161388 
L 397.565551 165.353256 
L 397.911711 167.545124 
L 398.173288 169.736992 
L 398.351512 171.92886 
L 398.452575 174.120727 
L 398.487273 176.312595 
L 398.469996 178.504463 
L 398.417217 180.696331 
L 398.345712 182.888198 
L 398.270768 185.080066 
L 398.204614 187.271934 
L 398.155242 189.463802 
L 398.12568 191.655669 
L 398.113726 193.847537 
L 398.112048 196.039405 
L 398.108603 198.231273 
L 398.087266 200.42314 
L 398.028661 202.615008 
L 397.911176 204.806876 
L 397.712172 206.998744 
L 397.409384 209.190612 
L 396.982455 211.382479 
L 396.414513 213.574347 
L 395.693622 215.766215 
L 394.813942 217.958083 
L 393.776427 220.14995 
L 392.588977 222.341818 
L 391.266009 224.533686 
L 389.827544 226.725554 
L 388.297933 228.917421 
L 386.704411 231.109289 
L 385.075617 233.301157 
L 383.440207 235.493025 
L 381.825602 237.684893 
L 380.256868 239.87676 
L 378.75573 242.068628 
L 377.339718 244.260496 
L 376.021487 246.452364 
L 374.808406 248.644231 
L 373.702492 250.836099 
L 372.700792 253.027967 
L 371.79621 255.219835 
L 370.978718 257.411702 
L 370.236819 259.60357 
L 369.559034 261.795438 
L 368.935216 263.987306 
L 368.357488 266.179174 
L 367.820709 268.371041 
L 367.322435 270.562909 
z
" clip-path="url(#pe8725911ef)" style="fill: #1f77b4; fill-opacity: 0.3"/>
   </g>
   <g id="matplotlib.axis_1">
    <g id="xtick_1">
     <g id="line2d_1">
      <path d="M 65.289187 307.584 
L 65.289187 41.472 
" clip-path="url(#pe8725911ef)" style="fill: none; stroke-dasharray: 2.96,1.28; stroke-dashoffset: 0; stroke: #b0b0b0; stroke-width: 0.8"/>
     </g>
     <g id="line2d_2">
      <defs>
       <path id="m4ef9c590c7" d="M 0 0 
L 0 3.5 
" style="stroke: #000000; stroke-width: 0.8"/>
      </defs>
      <g>
       <use xlink:href="#m4ef9c590c7" x="65.289187" y="307.584" style="stroke: #000000; stroke-width: 0.8"/>
      </g>
     </g>
     <g id="text_1">
      <!-- 250 -->
      <g transform="translate(55.745437 322.182437)scale(0.1 -0.1)">
       <defs>
        <path id="DejaVuSans-32" d="M 1228 531 
L 3431 531 
L 3431 0 
L 469 0 
L 469 531 
Q 828 903 1448 1529 
Q 2069 2156 2228 2338 
Q 2531 2678 2651 2914 
Q 2772 3150 2772 3378 
Q 2772 3750 2511 3984 
Q 2250 4219 1831 4219 
Q 1534 4219 1204 4116 
Q 875 4013 500 3803 
L 500 4441 
Q 881 4594 1212 4672 
Q 1544 4750 1819 4750 
Q 2544 4750 2975 4387 
Q 3406 4025 3406 3419 
Q 3406 3131 3298 2873 
Q 3191 2616 2906 2266 
Q 2828 2175 2409 1742 
Q 1991 1309 1228 531 
z
" transform="scale(0.015625)"/>
        <path id="DejaVuSans-35" d="M 691 4666 
L 3169 4666 
L 3169 4134 
L 1269 4134 
L 1269 2991 
Q 1406 3038 1543 3061 
Q 1681 3084 1819 3084 
Q 2600 3084 3056 2656 
Q 3513 2228 3513 1497 
Q 3513 744 3044 326 
Q 2575 -91 1722 -91 
Q 1428 -91 1123 -41 
Q 819 9 494 109 
L 494 744 
Q 775 591 1075 516 
Q 1375 441 1709 441 
Q 2250 441 2565 725 
Q 2881 1009 2881 1497 
Q 2881 1984 2565 2268 
Q 2250 2553 1709 2553 
Q 1456 2553 1204 2497 
Q 953 2441 691 2322 
L 691 4666 
z
" transform="scale(0.015625)"/>
        <path id="DejaVuSans-30" d="M 2034 4250 
Q 1547 4250 1301 3770 
Q 1056 3291 1056 2328 
Q 1056 1369 1301 889 
Q 1547 409 2034 409 
Q 2525 409 2770 889 
Q 3016 1369 3016 2328 
Q 3016 3291 2770 3770 
Q 2525 4250 2034 4250 
z
M 2034 4750 
Q 2819 4750 3233 4129 
Q 3647 3509 3647 2328 
Q 3647 1150 3233 529 
Q 2819 -91 2034 -91 
Q 1250 -91 836 529 
Q 422 1150 422 2328 
Q 422 3509 836 4129 
Q 1250 4750 2034 4750 
z
" transform="scale(0.015625)"/>
       </defs>
       <use xlink:href="#DejaVuSans-32"/>
       <use xlink:href="#DejaVuSans-35" x="63.623047"/>
       <use xlink:href="#DejaVuSans-30" x="127.246094"/>
      </g>
     </g>
    </g>
    <g id="xtick_2">
     <g id="line2d_3">
      <path d="M 108.00689 307.584 
L 108.00689 41.472 
" clip-path="url(#pe8725911ef)" style="fill: none; stroke-dasharray: 2.96,1.28; stroke-dashoffset: 0; stroke: #b0b0b0; stroke-width: 0.8"/>
     </g>
     <g id="line2d_4">
      <g>
       <use xlink:href="#m4ef9c590c7" x="108.00689" y="307.584" style="stroke: #000000; stroke-width: 0.8"/>
      </g>
     </g>
     <g id="text_2">
      <!-- 500 -->
      <g transform="translate(98.46314 322.182437)scale(0.1 -0.1)">
       <use xlink:href="#DejaVuSans-35"/>
       <use xlink:href="#DejaVuSans-30" x="63.623047"/>
       <use xlink:href="#DejaVuSans-30" x="127.246094"/>
      </g>
     </g>
    </g>
    <g id="xtick_3">
     <g id="line2d_5">
      <path d="M 150.724593 307.584 
L 150.724593 41.472 
" clip-path="url(#pe8725911ef)" style="fill: none; stroke-dasharray: 2.96,1.28; stroke-dashoffset: 0; stroke: #b0b0b0; stroke-width: 0.8"/>
     </g>
     <g id="line2d_6">
      <g>
       <use xlink:href="#m4ef9c590c7" x="150.724593" y="307.584" style="stroke: #000000; stroke-width: 0.8"/>
      </g>
     </g>
     <g id="text_3">
      <!-- 750 -->
      <g transform="translate(141.180843 322.182437)scale(0.1 -0.1)">
       <defs>
        <path id="DejaVuSans-37" d="M 525 4666 
L 3525 4666 
L 3525 4397 
L 1831 0 
L 1172 0 
L 2766 4134 
L 525 4134 
L 525 4666 
z
" transform="scale(0.015625)"/>
       </defs>
       <use xlink:href="#DejaVuSans-37"/>
       <use xlink:href="#DejaVuSans-35" x="63.623047"/>
       <use xlink:href="#DejaVuSans-30" x="127.246094"/>
      </g>
     </g>
    </g>
    <g id="xtick_4">
     <g id="line2d_7">
      <path d="M 193.442297 307.584 
L 193.442297 41.472 
" clip-path="url(#pe8725911ef)" style="fill: none; stroke-dasharray: 2.96,1.28; stroke-dashoffset: 0; stroke: #b0b0b0; stroke-width: 0.8"/>
     </g>
     <g id="line2d_8">
      <g>
       <use xlink:href="#m4ef9c590c7" x="193.442297" y="307.584" style="stroke: #000000; stroke-width: 0.8"/>
      </g>
     </g>
     <g id="text_4">
      <!-- 1000 -->
      <g transform="translate(180.717297 322.182437)scale(0.1 -0.1)">
       <defs>
        <path id="DejaVuSans-31" d="M 794 531 
L 1825 531 
L 1825 4091 
L 703 3866 
L 703 4441 
L 1819 4666 
L 2450 4666 
L 2450 531 
L 3481 531 
L 3481 0 
L 794 0 
L 794 531 
z
" transform="scale(0.015625)"/>
       </defs>
       <use xlink:href="#DejaVuSans-31"/>
       <use xlink:href="#DejaVuSans-30" x="63.623047"/>
       <use xlink:href="#DejaVuSans-30" x="127.246094"/>
       <use xlink:href="#DejaVuSans-30" x="190.869141"/>
      </g>
     </g>
    </g>
    <g id="xtick_5">
     <g id="line2d_9">
      <path d="M 236.16 307.584 
L 236.16 41.472 
" clip-path="url(#pe8725911ef)" style="fill: none; stroke-dasharray: 2.96,1.28; stroke-dashoffset: 0; stroke: #b0b0b0; stroke-width: 0.8"/>
     </g>
     <g id="line2d_10">
      <g>
       <use xlink:href="#m4ef9c590c7" x="236.16" y="307.584" style="stroke: #000000; stroke-width: 0.8"/>
      </g>
     </g>
     <g id="text_5">
      <!-- 1250 -->
      <g transform="translate(223.435 322.182437)scale(0.1 -0.1)">
       <use xlink:href="#DejaVuSans-31"/>
       <use xlink:href="#DejaVuSans-32" x="63.623047"/>
       <use xlink:href="#DejaVuSans-35" x="127.246094"/>
       <use xlink:href="#DejaVuSans-30" x="190.869141"/>
      </g>
     </g>
    </g>
    <g id="xtick_6">
     <g id="line2d_11">
      <path d="M 278.877703 307.584 
L 278.877703 41.472 
" clip-path="url(#pe8725911ef)" style="fill: none; stroke-dasharray: 2.96,1.28; stroke-dashoffset: 0; stroke: #b0b0b0; stroke-width: 0.8"/>
     </g>
     <g id="line2d_12">
      <g>
       <use xlink:href="#m4ef9c590c7" x="278.877703" y="307.584" style="stroke: #000000; stroke-width: 0.8"/>
      </g>
     </g>
     <g id="text_6">
      <!-- 1500 -->
      <g transform="translate(266.152703 322.182437)scale(0.1 -0.1)">
       <use xlink:href="#DejaVuSans-31"/>
       <use xlink:href="#DejaVuSans-35" x="63.623047"/>
       <use xlink:href="#DejaVuSans-30" x="127.246094"/>
       <use xlink:href="#DejaVuSans-30" x="190.869141"/>
      </g>
     </g>
    </g>
    <g id="xtick_7">
     <g id="line2d_13">
      <path d="M 321.595407 307.584 
L 321.595407 41.472 
" clip-path="url(#pe8725911ef)" style="fill: none; stroke-dasharray: 2.96,1.28; stroke-dashoffset: 0; stroke: #b0b0b0; stroke-width: 0.8"/>
     </g>
     <g id="line2d_14">
      <g>
       <use xlink:href="#m4ef9c590c7" x="321.595407" y="307.584" style="stroke: #000000; stroke-width: 0.8"/>
      </g>
     </g>
     <g id="text_7">
      <!-- 1750 -->
      <g transform="translate(308.870407 322.182437)scale(0.1 -0.1)">
       <use xlink:href="#DejaVuSans-31"/>
       <use xlink:href="#DejaVuSans-37" x="63.623047"/>
       <use xlink:href="#DejaVuSans-35" x="127.246094"/>
       <use xlink:href="#DejaVuSans-30" x="190.869141"/>
      </g>
     </g>
    </g>
    <g id="xtick_8">
     <g id="line2d_15">
      <path d="M 364.31311 307.584 
L 364.31311 41.472 
" clip-path="url(#pe8725911ef)" style="fill: none; stroke-dasharray: 2.96,1.28; stroke-dashoffset: 0; stroke: #b0b0b0; stroke-width: 0.8"/>
     </g>
     <g id="line2d_16">
      <g>
       <use xlink:href="#m4ef9c590c7" x="364.31311" y="307.584" style="stroke: #000000; stroke-width: 0.8"/>
      </g>
     </g>
     <g id="text_8">
      <!-- 2000 -->
      <g transform="translate(351.58811 322.182437)scale(0.1 -0.1)">
       <use xlink:href="#DejaVuSans-32"/>
       <use xlink:href="#DejaVuSans-30" x="63.623047"/>
       <use xlink:href="#DejaVuSans-30" x="127.246094"/>
       <use xlink:href="#DejaVuSans-30" x="190.869141"/>
      </g>
     </g>
    </g>
    <g id="xtick_9">
     <g id="line2d_17">
      <path d="M 407.030813 307.584 
L 407.030813 41.472 
" clip-path="url(#pe8725911ef)" style="fill: none; stroke-dasharray: 2.96,1.28; stroke-dashoffset: 0; stroke: #b0b0b0; stroke-width: 0.8"/>
     </g>
     <g id="line2d_18">
      <g>
       <use xlink:href="#m4ef9c590c7" x="407.030813" y="307.584" style="stroke: #000000; stroke-width: 0.8"/>
      </g>
     </g>
     <g id="text_9">
      <!-- 2250 -->
      <g transform="translate(394.305813 322.182437)scale(0.1 -0.1)">
       <use xlink:href="#DejaVuSans-32"/>
       <use xlink:href="#DejaVuSans-32" x="63.623047"/>
       <use xlink:href="#DejaVuSans-35" x="127.246094"/>
       <use xlink:href="#DejaVuSans-30" x="190.869141"/>
      </g>
     </g>
    </g>
    <g id="text_10">
     <!-- Learned Episodes -->
     <g transform="translate(192.102187 335.860562)scale(0.1 -0.1)">
      <defs>
       <path id="DejaVuSans-4c" d="M 628 4666 
L 1259 4666 
L 1259 531 
L 3531 531 
L 3531 0 
L 628 0 
L 628 4666 
z
" transform="scale(0.015625)"/>
       <path id="DejaVuSans-65" d="M 3597 1894 
L 3597 1613 
L 953 1613 
Q 991 1019 1311 708 
Q 1631 397 2203 397 
Q 2534 397 2845 478 
Q 3156 559 3463 722 
L 3463 178 
Q 3153 47 2828 -22 
Q 2503 -91 2169 -91 
Q 1331 -91 842 396 
Q 353 884 353 1716 
Q 353 2575 817 3079 
Q 1281 3584 2069 3584 
Q 2775 3584 3186 3129 
Q 3597 2675 3597 1894 
z
M 3022 2063 
Q 3016 2534 2758 2815 
Q 2500 3097 2075 3097 
Q 1594 3097 1305 2825 
Q 1016 2553 972 2059 
L 3022 2063 
z
" transform="scale(0.015625)"/>
       <path id="DejaVuSans-61" d="M 2194 1759 
Q 1497 1759 1228 1600 
Q 959 1441 959 1056 
Q 959 750 1161 570 
Q 1363 391 1709 391 
Q 2188 391 2477 730 
Q 2766 1069 2766 1631 
L 2766 1759 
L 2194 1759 
z
M 3341 1997 
L 3341 0 
L 2766 0 
L 2766 531 
Q 2569 213 2275 61 
Q 1981 -91 1556 -91 
Q 1019 -91 701 211 
Q 384 513 384 1019 
Q 384 1609 779 1909 
Q 1175 2209 1959 2209 
L 2766 2209 
L 2766 2266 
Q 2766 2663 2505 2880 
Q 2244 3097 1772 3097 
Q 1472 3097 1187 3025 
Q 903 2953 641 2809 
L 641 3341 
Q 956 3463 1253 3523 
Q 1550 3584 1831 3584 
Q 2591 3584 2966 3190 
Q 3341 2797 3341 1997 
z
" transform="scale(0.015625)"/>
       <path id="DejaVuSans-72" d="M 2631 2963 
Q 2534 3019 2420 3045 
Q 2306 3072 2169 3072 
Q 1681 3072 1420 2755 
Q 1159 2438 1159 1844 
L 1159 0 
L 581 0 
L 581 3500 
L 1159 3500 
L 1159 2956 
Q 1341 3275 1631 3429 
Q 1922 3584 2338 3584 
Q 2397 3584 2469 3576 
Q 2541 3569 2628 3553 
L 2631 2963 
z
" transform="scale(0.015625)"/>
       <path id="DejaVuSans-6e" d="M 3513 2113 
L 3513 0 
L 2938 0 
L 2938 2094 
Q 2938 2591 2744 2837 
Q 2550 3084 2163 3084 
Q 1697 3084 1428 2787 
Q 1159 2491 1159 1978 
L 1159 0 
L 581 0 
L 581 3500 
L 1159 3500 
L 1159 2956 
Q 1366 3272 1645 3428 
Q 1925 3584 2291 3584 
Q 2894 3584 3203 3211 
Q 3513 2838 3513 2113 
z
" transform="scale(0.015625)"/>
       <path id="DejaVuSans-64" d="M 2906 2969 
L 2906 4863 
L 3481 4863 
L 3481 0 
L 2906 0 
L 2906 525 
Q 2725 213 2448 61 
Q 2172 -91 1784 -91 
Q 1150 -91 751 415 
Q 353 922 353 1747 
Q 353 2572 751 3078 
Q 1150 3584 1784 3584 
Q 2172 3584 2448 3432 
Q 2725 3281 2906 2969 
z
M 947 1747 
Q 947 1113 1208 752 
Q 1469 391 1925 391 
Q 2381 391 2643 752 
Q 2906 1113 2906 1747 
Q 2906 2381 2643 2742 
Q 2381 3103 1925 3103 
Q 1469 3103 1208 2742 
Q 947 2381 947 1747 
z
" transform="scale(0.015625)"/>
       <path id="DejaVuSans-20" transform="scale(0.015625)"/>
       <path id="DejaVuSans-45" d="M 628 4666 
L 3578 4666 
L 3578 4134 
L 1259 4134 
L 1259 2753 
L 3481 2753 
L 3481 2222 
L 1259 2222 
L 1259 531 
L 3634 531 
L 3634 0 
L 628 0 
L 628 4666 
z
" transform="scale(0.015625)"/>
       <path id="DejaVuSans-70" d="M 1159 525 
L 1159 -1331 
L 581 -1331 
L 581 3500 
L 1159 3500 
L 1159 2969 
Q 1341 3281 1617 3432 
Q 1894 3584 2278 3584 
Q 2916 3584 3314 3078 
Q 3713 2572 3713 1747 
Q 3713 922 3314 415 
Q 2916 -91 2278 -91 
Q 1894 -91 1617 61 
Q 1341 213 1159 525 
z
M 3116 1747 
Q 3116 2381 2855 2742 
Q 2594 3103 2138 3103 
Q 1681 3103 1420 2742 
Q 1159 2381 1159 1747 
Q 1159 1113 1420 752 
Q 1681 391 2138 391 
Q 2594 391 2855 752 
Q 3116 1113 3116 1747 
z
" transform="scale(0.015625)"/>
       <path id="DejaVuSans-69" d="M 603 3500 
L 1178 3500 
L 1178 0 
L 603 0 
L 603 3500 
z
M 603 4863 
L 1178 4863 
L 1178 4134 
L 603 4134 
L 603 4863 
z
" transform="scale(0.015625)"/>
       <path id="DejaVuSans-73" d="M 2834 3397 
L 2834 2853 
Q 2591 2978 2328 3040 
Q 2066 3103 1784 3103 
Q 1356 3103 1142 2972 
Q 928 2841 928 2578 
Q 928 2378 1081 2264 
Q 1234 2150 1697 2047 
L 1894 2003 
Q 2506 1872 2764 1633 
Q 3022 1394 3022 966 
Q 3022 478 2636 193 
Q 2250 -91 1575 -91 
Q 1294 -91 989 -36 
Q 684 19 347 128 
L 347 722 
Q 666 556 975 473 
Q 1284 391 1588 391 
Q 1994 391 2212 530 
Q 2431 669 2431 922 
Q 2431 1156 2273 1281 
Q 2116 1406 1581 1522 
L 1381 1569 
Q 847 1681 609 1914 
Q 372 2147 372 2553 
Q 372 3047 722 3315 
Q 1072 3584 1716 3584 
Q 2034 3584 2315 3537 
Q 2597 3491 2834 3397 
z
" transform="scale(0.015625)"/>
       <path id="DejaVuSans-6f" d="M 1959 3097 
Q 1497 3097 1228 2736 
Q 959 2375 959 1747 
Q 959 1119 1226 758 
Q 1494 397 1959 397 
Q 2419 397 2687 759 
Q 2956 1122 2956 1747 
Q 2956 2369 2687 2733 
Q 2419 3097 1959 3097 
z
M 1959 3584 
Q 2709 3584 3137 3096 
Q 3566 2609 3566 1747 
Q 3566 888 3137 398 
Q 2709 -91 1959 -91 
Q 1206 -91 779 398 
Q 353 888 353 1747 
Q 353 2609 779 3096 
Q 1206 3584 1959 3584 
z
" transform="scale(0.015625)"/>
      </defs>
      <use xlink:href="#DejaVuSans-4c"/>
      <use xlink:href="#DejaVuSans-65" x="53.962891"/>
      <use xlink:href="#DejaVuSans-61" x="115.486328"/>
      <use xlink:href="#DejaVuSans-72" x="176.765625"/>
      <use xlink:href="#DejaVuSans-6e" x="216.128906"/>
      <use xlink:href="#DejaVuSans-65" x="279.507812"/>
      <use xlink:href="#DejaVuSans-64" x="341.03125"/>
      <use xlink:href="#DejaVuSans-20" x="404.507812"/>
      <use xlink:href="#DejaVuSans-45" x="436.294922"/>
      <use xlink:href="#DejaVuSans-70" x="499.478516"/>
      <use xlink:href="#DejaVuSans-69" x="562.955078"/>
      <use xlink:href="#DejaVuSans-73" x="590.738281"/>
      <use xlink:href="#DejaVuSans-6f" x="642.837891"/>
      <use xlink:href="#DejaVuSans-64" x="704.019531"/>
      <use xlink:href="#DejaVuSans-65" x="767.496094"/>
      <use xlink:href="#DejaVuSans-73" x="829.019531"/>
     </g>
    </g>
   </g>
   <g id="matplotlib.axis_2">
    <g id="ytick_1">
     <g id="line2d_19">
      <path d="M 57.6 295.488 
L 414.72 295.488 
" clip-path="url(#pe8725911ef)" style="fill: none; stroke-dasharray: 2.96,1.28; stroke-dashoffset: 0; stroke: #b0b0b0; stroke-width: 0.8"/>
     </g>
     <g id="line2d_20">
      <defs>
       <path id="m5a4b87ab30" d="M 0 0 
L -3.5 0 
" style="stroke: #000000; stroke-width: 0.8"/>
      </defs>
      <g>
       <use xlink:href="#m5a4b87ab30" x="57.6" y="295.488" style="stroke: #000000; stroke-width: 0.8"/>
      </g>
     </g>
     <g id="text_11">
      <!-- 0 -->
      <g transform="translate(44.2375 299.287219)scale(0.1 -0.1)">
       <use xlink:href="#DejaVuSans-30"/>
      </g>
     </g>
    </g>
    <g id="ytick_2">
     <g id="line2d_21">
      <path d="M 57.6 258.833455 
L 414.72 258.833455 
" clip-path="url(#pe8725911ef)" style="fill: none; stroke-dasharray: 2.96,1.28; stroke-dashoffset: 0; stroke: #b0b0b0; stroke-width: 0.8"/>
     </g>
     <g id="line2d_22">
      <g>
       <use xlink:href="#m5a4b87ab30" x="57.6" y="258.833455" style="stroke: #000000; stroke-width: 0.8"/>
      </g>
     </g>
     <g id="text_12">
      <!-- 25 -->
      <g transform="translate(37.875 262.632673)scale(0.1 -0.1)">
       <use xlink:href="#DejaVuSans-32"/>
       <use xlink:href="#DejaVuSans-35" x="63.623047"/>
      </g>
     </g>
    </g>
    <g id="ytick_3">
     <g id="line2d_23">
      <path d="M 57.6 222.178909 
L 414.72 222.178909 
" clip-path="url(#pe8725911ef)" style="fill: none; stroke-dasharray: 2.96,1.28; stroke-dashoffset: 0; stroke: #b0b0b0; stroke-width: 0.8"/>
     </g>
     <g id="line2d_24">
      <g>
       <use xlink:href="#m5a4b87ab30" x="57.6" y="222.178909" style="stroke: #000000; stroke-width: 0.8"/>
      </g>
     </g>
     <g id="text_13">
      <!-- 50 -->
      <g transform="translate(37.875 225.978128)scale(0.1 -0.1)">
       <use xlink:href="#DejaVuSans-35"/>
       <use xlink:href="#DejaVuSans-30" x="63.623047"/>
      </g>
     </g>
    </g>
    <g id="ytick_4">
     <g id="line2d_25">
      <path d="M 57.6 185.524364 
L 414.72 185.524364 
" clip-path="url(#pe8725911ef)" style="fill: none; stroke-dasharray: 2.96,1.28; stroke-dashoffset: 0; stroke: #b0b0b0; stroke-width: 0.8"/>
     </g>
     <g id="line2d_26">
      <g>
       <use xlink:href="#m5a4b87ab30" x="57.6" y="185.524364" style="stroke: #000000; stroke-width: 0.8"/>
      </g>
     </g>
     <g id="text_14">
      <!-- 75 -->
      <g transform="translate(37.875 189.323582)scale(0.1 -0.1)">
       <use xlink:href="#DejaVuSans-37"/>
       <use xlink:href="#DejaVuSans-35" x="63.623047"/>
      </g>
     </g>
    </g>
    <g id="ytick_5">
     <g id="line2d_27">
      <path d="M 57.6 148.869818 
L 414.72 148.869818 
" clip-path="url(#pe8725911ef)" style="fill: none; stroke-dasharray: 2.96,1.28; stroke-dashoffset: 0; stroke: #b0b0b0; stroke-width: 0.8"/>
     </g>
     <g id="line2d_28">
      <g>
       <use xlink:href="#m5a4b87ab30" x="57.6" y="148.869818" style="stroke: #000000; stroke-width: 0.8"/>
      </g>
     </g>
     <g id="text_15">
      <!-- 100 -->
      <g transform="translate(31.5125 152.669037)scale(0.1 -0.1)">
       <use xlink:href="#DejaVuSans-31"/>
       <use xlink:href="#DejaVuSans-30" x="63.623047"/>
       <use xlink:href="#DejaVuSans-30" x="127.246094"/>
      </g>
     </g>
    </g>
    <g id="ytick_6">
     <g id="line2d_29">
      <path d="M 57.6 112.215273 
L 414.72 112.215273 
" clip-path="url(#pe8725911ef)" style="fill: none; stroke-dasharray: 2.96,1.28; stroke-dashoffset: 0; stroke: #b0b0b0; stroke-width: 0.8"/>
     </g>
     <g id="line2d_30">
      <g>
       <use xlink:href="#m5a4b87ab30" x="57.6" y="112.215273" style="stroke: #000000; stroke-width: 0.8"/>
      </g>
     </g>
     <g id="text_16">
      <!-- 125 -->
      <g transform="translate(31.5125 116.014491)scale(0.1 -0.1)">
       <use xlink:href="#DejaVuSans-31"/>
       <use xlink:href="#DejaVuSans-32" x="63.623047"/>
       <use xlink:href="#DejaVuSans-35" x="127.246094"/>
      </g>
     </g>
    </g>
    <g id="ytick_7">
     <g id="line2d_31">
      <path d="M 57.6 75.560727 
L 414.72 75.560727 
" clip-path="url(#pe8725911ef)" style="fill: none; stroke-dasharray: 2.96,1.28; stroke-dashoffset: 0; stroke: #b0b0b0; stroke-width: 0.8"/>
     </g>
     <g id="line2d_32">
      <g>
       <use xlink:href="#m5a4b87ab30" x="57.6" y="75.560727" style="stroke: #000000; stroke-width: 0.8"/>
      </g>
     </g>
     <g id="text_17">
      <!-- 150 -->
      <g transform="translate(31.5125 79.359946)scale(0.1 -0.1)">
       <use xlink:href="#DejaVuSans-31"/>
       <use xlink:href="#DejaVuSans-35" x="63.623047"/>
       <use xlink:href="#DejaVuSans-30" x="127.246094"/>
      </g>
     </g>
    </g>
    <g id="text_18">
     <!-- Reward Density -->
     <g transform="translate(25.432812 213.74675)rotate(-90)scale(0.1 -0.1)">
      <defs>
       <path id="DejaVuSans-52" d="M 2841 2188 
Q 3044 2119 3236 1894 
Q 3428 1669 3622 1275 
L 4263 0 
L 3584 0 
L 2988 1197 
Q 2756 1666 2539 1819 
Q 2322 1972 1947 1972 
L 1259 1972 
L 1259 0 
L 628 0 
L 628 4666 
L 2053 4666 
Q 2853 4666 3247 4331 
Q 3641 3997 3641 3322 
Q 3641 2881 3436 2590 
Q 3231 2300 2841 2188 
z
M 1259 4147 
L 1259 2491 
L 2053 2491 
Q 2509 2491 2742 2702 
Q 2975 2913 2975 3322 
Q 2975 3731 2742 3939 
Q 2509 4147 2053 4147 
L 1259 4147 
z
" transform="scale(0.015625)"/>
       <path id="DejaVuSans-77" d="M 269 3500 
L 844 3500 
L 1563 769 
L 2278 3500 
L 2956 3500 
L 3675 769 
L 4391 3500 
L 4966 3500 
L 4050 0 
L 3372 0 
L 2619 2869 
L 1863 0 
L 1184 0 
L 269 3500 
z
" transform="scale(0.015625)"/>
       <path id="DejaVuSans-44" d="M 1259 4147 
L 1259 519 
L 2022 519 
Q 2988 519 3436 956 
Q 3884 1394 3884 2338 
Q 3884 3275 3436 3711 
Q 2988 4147 2022 4147 
L 1259 4147 
z
M 628 4666 
L 1925 4666 
Q 3281 4666 3915 4102 
Q 4550 3538 4550 2338 
Q 4550 1131 3912 565 
Q 3275 0 1925 0 
L 628 0 
L 628 4666 
z
" transform="scale(0.015625)"/>
       <path id="DejaVuSans-74" d="M 1172 4494 
L 1172 3500 
L 2356 3500 
L 2356 3053 
L 1172 3053 
L 1172 1153 
Q 1172 725 1289 603 
Q 1406 481 1766 481 
L 2356 481 
L 2356 0 
L 1766 0 
Q 1100 0 847 248 
Q 594 497 594 1153 
L 594 3053 
L 172 3053 
L 172 3500 
L 594 3500 
L 594 4494 
L 1172 4494 
z
" transform="scale(0.015625)"/>
       <path id="DejaVuSans-79" d="M 2059 -325 
Q 1816 -950 1584 -1140 
Q 1353 -1331 966 -1331 
L 506 -1331 
L 506 -850 
L 844 -850 
Q 1081 -850 1212 -737 
Q 1344 -625 1503 -206 
L 1606 56 
L 191 3500 
L 800 3500 
L 1894 763 
L 2988 3500 
L 3597 3500 
L 2059 -325 
z
" transform="scale(0.015625)"/>
      </defs>
      <use xlink:href="#DejaVuSans-52"/>
      <use xlink:href="#DejaVuSans-65" x="64.982422"/>
      <use xlink:href="#DejaVuSans-77" x="126.505859"/>
      <use xlink:href="#DejaVuSans-61" x="208.292969"/>
      <use xlink:href="#DejaVuSans-72" x="269.572266"/>
      <use xlink:href="#DejaVuSans-64" x="308.935547"/>
      <use xlink:href="#DejaVuSans-20" x="372.412109"/>
      <use xlink:href="#DejaVuSans-44" x="404.199219"/>
      <use xlink:href="#DejaVuSans-65" x="481.201172"/>
      <use xlink:href="#DejaVuSans-6e" x="542.724609"/>
      <use xlink:href="#DejaVuSans-73" x="606.103516"/>
      <use xlink:href="#DejaVuSans-69" x="658.203125"/>
      <use xlink:href="#DejaVuSans-74" x="685.986328"/>
      <use xlink:href="#DejaVuSans-79" x="725.195312"/>
     </g>
    </g>
   </g>
   <g id="LineCollection_1">
    <path d="M 90.919809 251.379386 
L 125.093971 251.379386 
" clip-path="url(#pe8725911ef)" style="fill: none; stroke: #1f77b4; stroke-width: 1.5"/>
    <path d="M 176.355215 204.080361 
L 210.529378 204.080361 
" clip-path="url(#pe8725911ef)" style="fill: none; stroke: #1f77b4; stroke-width: 1.5"/>
    <path d="M 261.790622 175.700945 
L 295.964785 175.700945 
" clip-path="url(#pe8725911ef)" style="fill: none; stroke: #1f77b4; stroke-width: 1.5"/>
    <path d="M 347.226029 169.349446 
L 381.400191 169.349446 
" clip-path="url(#pe8725911ef)" style="fill: none; stroke: #1f77b4; stroke-width: 1.5"/>
   </g>
   <g id="LineCollection_2">
    <path d="M 90.919809 181.125818 
L 125.093971 181.125818 
" clip-path="url(#pe8725911ef)" style="fill: none; stroke: #1f77b4; stroke-width: 1.5"/>
    <path d="M 176.355215 107.816727 
L 210.529378 107.816727 
" clip-path="url(#pe8725911ef)" style="fill: none; stroke: #1f77b4; stroke-width: 1.5"/>
    <path d="M 261.790622 77.026909 
L 295.964785 77.026909 
" clip-path="url(#pe8725911ef)" style="fill: none; stroke: #1f77b4; stroke-width: 1.5"/>
    <path d="M 347.226029 53.568 
L 381.400191 53.568 
" clip-path="url(#pe8725911ef)" style="fill: none; stroke: #1f77b4; stroke-width: 1.5"/>
   </g>
   <g id="LineCollection_3">
    <path d="M 90.919809 295.488 
L 125.093971 295.488 
" clip-path="url(#pe8725911ef)" style="fill: none; stroke: #1f77b4; stroke-width: 1.5"/>
    <path d="M 176.355215 285.224727 
L 210.529378 285.224727 
" clip-path="url(#pe8725911ef)" style="fill: none; stroke: #1f77b4; stroke-width: 1.5"/>
    <path d="M 261.790622 273.495273 
L 295.964785 273.495273 
" clip-path="url(#pe8725911ef)" style="fill: none; stroke: #1f77b4; stroke-width: 1.5"/>
    <path d="M 347.226029 270.562909 
L 381.400191 270.562909 
" clip-path="url(#pe8725911ef)" style="fill: none; stroke: #1f77b4; stroke-width: 1.5"/>
   </g>
   <g id="LineCollection_4">
    <path d="M 108.00689 295.488 
L 108.00689 181.125818 
" clip-path="url(#pe8725911ef)" style="fill: none; stroke: #1f77b4; stroke-width: 1.5"/>
    <path d="M 193.442297 285.224727 
L 193.442297 107.816727 
" clip-path="url(#pe8725911ef)" style="fill: none; stroke: #1f77b4; stroke-width: 1.5"/>
    <path d="M 278.877703 273.495273 
L 278.877703 77.026909 
" clip-path="url(#pe8725911ef)" style="fill: none; stroke: #1f77b4; stroke-width: 1.5"/>
    <path d="M 364.31311 270.562909 
L 364.31311 53.568 
" clip-path="url(#pe8725911ef)" style="fill: none; stroke: #1f77b4; stroke-width: 1.5"/>
   </g>
   <g id="line2d_33">
    <path d="M 108.00689 251.379386 
L 193.442297 204.080361 
L 278.877703 175.700945 
L 364.31311 169.349446 
" clip-path="url(#pe8725911ef)" style="fill: none; stroke: #4682b4; stroke-width: 1.5; stroke-linecap: square"/>
   </g>
   <g id="line2d_34">
    <path d="M 108.00689 251.379386 
L 193.442297 204.080361 
L 278.877703 175.700945 
L 364.31311 169.349446 
" clip-path="url(#pe8725911ef)" style="fill: none; stroke: #4682b4; stroke-width: 1.5; stroke-linecap: square"/>
   </g>
   <g id="patch_3">
    <path d="M 57.6 307.584 
L 57.6 41.472 
" style="fill: none; stroke: #000000; stroke-width: 0.8; stroke-linejoin: miter; stroke-linecap: square"/>
   </g>
   <g id="patch_4">
    <path d="M 414.72 307.584 
L 414.72 41.472 
" style="fill: none; stroke: #000000; stroke-width: 0.8; stroke-linejoin: miter; stroke-linecap: square"/>
   </g>
   <g id="patch_5">
    <path d="M 57.6 307.584 
L 414.72 307.584 
" style="fill: none; stroke: #000000; stroke-width: 0.8; stroke-linejoin: miter; stroke-linecap: square"/>
   </g>
   <g id="patch_6">
    <path d="M 57.6 41.472 
L 414.72 41.472 
" style="fill: none; stroke: #000000; stroke-width: 0.8; stroke-linejoin: miter; stroke-linecap: square"/>
   </g>
   <g id="text_19">
    <!-- Violinplot for progress of owner/rebuys -->
    <g transform="translate(119.788125 35.472)scale(0.12 -0.12)">
     <defs>
      <path id="DejaVuSans-56" d="M 1831 0 
L 50 4666 
L 709 4666 
L 2188 738 
L 3669 4666 
L 4325 4666 
L 2547 0 
L 1831 0 
z
" transform="scale(0.015625)"/>
      <path id="DejaVuSans-6c" d="M 603 4863 
L 1178 4863 
L 1178 0 
L 603 0 
L 603 4863 
z
" transform="scale(0.015625)"/>
      <path id="DejaVuSans-66" d="M 2375 4863 
L 2375 4384 
L 1825 4384 
Q 1516 4384 1395 4259 
Q 1275 4134 1275 3809 
L 1275 3500 
L 2222 3500 
L 2222 3053 
L 1275 3053 
L 1275 0 
L 697 0 
L 697 3053 
L 147 3053 
L 147 3500 
L 697 3500 
L 697 3744 
Q 697 4328 969 4595 
Q 1241 4863 1831 4863 
L 2375 4863 
z
" transform="scale(0.015625)"/>
      <path id="DejaVuSans-67" d="M 2906 1791 
Q 2906 2416 2648 2759 
Q 2391 3103 1925 3103 
Q 1463 3103 1205 2759 
Q 947 2416 947 1791 
Q 947 1169 1205 825 
Q 1463 481 1925 481 
Q 2391 481 2648 825 
Q 2906 1169 2906 1791 
z
M 3481 434 
Q 3481 -459 3084 -895 
Q 2688 -1331 1869 -1331 
Q 1566 -1331 1297 -1286 
Q 1028 -1241 775 -1147 
L 775 -588 
Q 1028 -725 1275 -790 
Q 1522 -856 1778 -856 
Q 2344 -856 2625 -561 
Q 2906 -266 2906 331 
L 2906 616 
Q 2728 306 2450 153 
Q 2172 0 1784 0 
Q 1141 0 747 490 
Q 353 981 353 1791 
Q 353 2603 747 3093 
Q 1141 3584 1784 3584 
Q 2172 3584 2450 3431 
Q 2728 3278 2906 2969 
L 2906 3500 
L 3481 3500 
L 3481 434 
z
" transform="scale(0.015625)"/>
      <path id="DejaVuSans-2f" d="M 1625 4666 
L 2156 4666 
L 531 -594 
L 0 -594 
L 1625 4666 
z
" transform="scale(0.015625)"/>
      <path id="DejaVuSans-62" d="M 3116 1747 
Q 3116 2381 2855 2742 
Q 2594 3103 2138 3103 
Q 1681 3103 1420 2742 
Q 1159 2381 1159 1747 
Q 1159 1113 1420 752 
Q 1681 391 2138 391 
Q 2594 391 2855 752 
Q 3116 1113 3116 1747 
z
M 1159 2969 
Q 1341 3281 1617 3432 
Q 1894 3584 2278 3584 
Q 2916 3584 3314 3078 
Q 3713 2572 3713 1747 
Q 3713 922 3314 415 
Q 2916 -91 2278 -91 
Q 1894 -91 1617 61 
Q 1341 213 1159 525 
L 1159 0 
L 581 0 
L 581 4863 
L 1159 4863 
L 1159 2969 
z
" transform="scale(0.015625)"/>
      <path id="DejaVuSans-75" d="M 544 1381 
L 544 3500 
L 1119 3500 
L 1119 1403 
Q 1119 906 1312 657 
Q 1506 409 1894 409 
Q 2359 409 2629 706 
Q 2900 1003 2900 1516 
L 2900 3500 
L 3475 3500 
L 3475 0 
L 2900 0 
L 2900 538 
Q 2691 219 2414 64 
Q 2138 -91 1772 -91 
Q 1169 -91 856 284 
Q 544 659 544 1381 
z
M 1991 3584 
L 1991 3584 
z
" transform="scale(0.015625)"/>
     </defs>
     <use xlink:href="#DejaVuSans-56"/>
     <use xlink:href="#DejaVuSans-69" x="66.158203"/>
     <use xlink:href="#DejaVuSans-6f" x="93.941406"/>
     <use xlink:href="#DejaVuSans-6c" x="155.123047"/>
     <use xlink:href="#DejaVuSans-69" x="182.90625"/>
     <use xlink:href="#DejaVuSans-6e" x="210.689453"/>
     <use xlink:href="#DejaVuSans-70" x="274.068359"/>
     <use xlink:href="#DejaVuSans-6c" x="337.544922"/>
     <use xlink:href="#DejaVuSans-6f" x="365.328125"/>
     <use xlink:href="#DejaVuSans-74" x="426.509766"/>
     <use xlink:href="#DejaVuSans-20" x="465.71875"/>
     <use xlink:href="#DejaVuSans-66" x="497.505859"/>
     <use xlink:href="#DejaVuSans-6f" x="532.710938"/>
     <use xlink:href="#DejaVuSans-72" x="593.892578"/>
     <use xlink:href="#DejaVuSans-20" x="635.005859"/>
     <use xlink:href="#DejaVuSans-70" x="666.792969"/>
     <use xlink:href="#DejaVuSans-72" x="730.269531"/>
     <use xlink:href="#DejaVuSans-6f" x="769.132812"/>
     <use xlink:href="#DejaVuSans-67" x="830.314453"/>
     <use xlink:href="#DejaVuSans-72" x="893.791016"/>
     <use xlink:href="#DejaVuSans-65" x="932.654297"/>
     <use xlink:href="#DejaVuSans-73" x="994.177734"/>
     <use xlink:href="#DejaVuSans-73" x="1046.277344"/>
     <use xlink:href="#DejaVuSans-20" x="1098.376953"/>
     <use xlink:href="#DejaVuSans-6f" x="1130.164062"/>
     <use xlink:href="#DejaVuSans-66" x="1191.345703"/>
     <use xlink:href="#DejaVuSans-20" x="1226.550781"/>
     <use xlink:href="#DejaVuSans-6f" x="1258.337891"/>
     <use xlink:href="#DejaVuSans-77" x="1319.519531"/>
     <use xlink:href="#DejaVuSans-6e" x="1401.306641"/>
     <use xlink:href="#DejaVuSans-65" x="1464.685547"/>
     <use xlink:href="#DejaVuSans-72" x="1526.208984"/>
     <use xlink:href="#DejaVuSans-2f" x="1567.322266"/>
     <use xlink:href="#DejaVuSans-72" x="1601.013672"/>
     <use xlink:href="#DejaVuSans-65" x="1639.876953"/>
     <use xlink:href="#DejaVuSans-62" x="1701.400391"/>
     <use xlink:href="#DejaVuSans-75" x="1764.876953"/>
     <use xlink:href="#DejaVuSans-79" x="1828.255859"/>
     <use xlink:href="#DejaVuSans-73" x="1887.435547"/>
    </g>
   </g>
   <g id="legend_1">
    <g id="patch_7">
     <path d="M 276.25125 64.150125 
L 407.72 64.150125 
Q 409.72 64.150125 409.72 62.150125 
L 409.72 48.472 
Q 409.72 46.472 407.72 46.472 
L 276.25125 46.472 
Q 274.25125 46.472 274.25125 48.472 
L 274.25125 62.150125 
Q 274.25125 64.150125 276.25125 64.150125 
z
" style="fill: #ffffff; opacity: 0.8; stroke: #cccccc; stroke-linejoin: miter"/>
    </g>
    <g id="line2d_35">
     <path d="M 278.25125 54.570438 
L 288.25125 54.570438 
L 298.25125 54.570438 
" style="fill: none; stroke: #4682b4; stroke-width: 1.5; stroke-linecap: square"/>
    </g>
    <g id="text_20">
     <!-- StableBaselinesSAC -->
     <g transform="translate(306.25125 58.070438)scale(0.1 -0.1)">
      <defs>
       <path id="DejaVuSans-53" d="M 3425 4513 
L 3425 3897 
Q 3066 4069 2747 4153 
Q 2428 4238 2131 4238 
Q 1616 4238 1336 4038 
Q 1056 3838 1056 3469 
Q 1056 3159 1242 3001 
Q 1428 2844 1947 2747 
L 2328 2669 
Q 3034 2534 3370 2195 
Q 3706 1856 3706 1288 
Q 3706 609 3251 259 
Q 2797 -91 1919 -91 
Q 1588 -91 1214 -16 
Q 841 59 441 206 
L 441 856 
Q 825 641 1194 531 
Q 1563 422 1919 422 
Q 2459 422 2753 634 
Q 3047 847 3047 1241 
Q 3047 1584 2836 1778 
Q 2625 1972 2144 2069 
L 1759 2144 
Q 1053 2284 737 2584 
Q 422 2884 422 3419 
Q 422 4038 858 4394 
Q 1294 4750 2059 4750 
Q 2388 4750 2728 4690 
Q 3069 4631 3425 4513 
z
" transform="scale(0.015625)"/>
       <path id="DejaVuSans-42" d="M 1259 2228 
L 1259 519 
L 2272 519 
Q 2781 519 3026 730 
Q 3272 941 3272 1375 
Q 3272 1813 3026 2020 
Q 2781 2228 2272 2228 
L 1259 2228 
z
M 1259 4147 
L 1259 2741 
L 2194 2741 
Q 2656 2741 2882 2914 
Q 3109 3088 3109 3444 
Q 3109 3797 2882 3972 
Q 2656 4147 2194 4147 
L 1259 4147 
z
M 628 4666 
L 2241 4666 
Q 2963 4666 3353 4366 
Q 3744 4066 3744 3513 
Q 3744 3084 3544 2831 
Q 3344 2578 2956 2516 
Q 3422 2416 3680 2098 
Q 3938 1781 3938 1306 
Q 3938 681 3513 340 
Q 3088 0 2303 0 
L 628 0 
L 628 4666 
z
" transform="scale(0.015625)"/>
       <path id="DejaVuSans-41" d="M 2188 4044 
L 1331 1722 
L 3047 1722 
L 2188 4044 
z
M 1831 4666 
L 2547 4666 
L 4325 0 
L 3669 0 
L 3244 1197 
L 1141 1197 
L 716 0 
L 50 0 
L 1831 4666 
z
" transform="scale(0.015625)"/>
       <path id="DejaVuSans-43" d="M 4122 4306 
L 4122 3641 
Q 3803 3938 3442 4084 
Q 3081 4231 2675 4231 
Q 1875 4231 1450 3742 
Q 1025 3253 1025 2328 
Q 1025 1406 1450 917 
Q 1875 428 2675 428 
Q 3081 428 3442 575 
Q 3803 722 4122 1019 
L 4122 359 
Q 3791 134 3420 21 
Q 3050 -91 2638 -91 
Q 1578 -91 968 557 
Q 359 1206 359 2328 
Q 359 3453 968 4101 
Q 1578 4750 2638 4750 
Q 3056 4750 3426 4639 
Q 3797 4528 4122 4306 
z
" transform="scale(0.015625)"/>
      </defs>
      <use xlink:href="#DejaVuSans-53"/>
      <use xlink:href="#DejaVuSans-74" x="63.476562"/>
      <use xlink:href="#DejaVuSans-61" x="102.685547"/>
      <use xlink:href="#DejaVuSans-62" x="163.964844"/>
      <use xlink:href="#DejaVuSans-6c" x="227.441406"/>
      <use xlink:href="#DejaVuSans-65" x="255.224609"/>
      <use xlink:href="#DejaVuSans-42" x="316.748047"/>
      <use xlink:href="#DejaVuSans-61" x="385.351562"/>
      <use xlink:href="#DejaVuSans-73" x="446.630859"/>
      <use xlink:href="#DejaVuSans-65" x="498.730469"/>
      <use xlink:href="#DejaVuSans-6c" x="560.253906"/>
      <use xlink:href="#DejaVuSans-69" x="588.037109"/>
      <use xlink:href="#DejaVuSans-6e" x="615.820312"/>
      <use xlink:href="#DejaVuSans-65" x="679.199219"/>
      <use xlink:href="#DejaVuSans-73" x="740.722656"/>
      <use xlink:href="#DejaVuSans-53" x="792.822266"/>
      <use xlink:href="#DejaVuSans-41" x="858.173828"/>
      <use xlink:href="#DejaVuSans-43" x="924.832031"/>
     </g>
    </g>
   </g>
  </g>
 </g>
 <defs>
  <clipPath id="pe8725911ef">
   <rect x="57.6" y="41.472" width="357.12" height="266.112"/>
  </clipPath>
 </defs>
</svg>
