<?xml version="1.0" encoding="utf-8" standalone="no"?>
<!DOCTYPE svg PUBLIC "-//W3C//DTD SVG 1.1//EN"
  "http://www.w3.org/Graphics/SVG/1.1/DTD/svg11.dtd">
<svg xmlns:xlink="http://www.w3.org/1999/xlink" width="460.8pt" height="345.6pt" viewBox="0 0 460.8 345.6" xmlns="http://www.w3.org/2000/svg" version="1.1">
 <metadata>
  <rdf:RDF xmlns:dc="http://purl.org/dc/elements/1.1/" xmlns:cc="http://creativecommons.org/ns#" xmlns:rdf="http://www.w3.org/1999/02/22-rdf-syntax-ns#">
   <cc:Work>
    <dc:type rdf:resource="http://purl.org/dc/dcmitype/StillImage"/>
    <dc:date>2022-06-16T11:36:22.529110</dc:date>
    <dc:format>image/svg+xml</dc:format>
    <dc:creator>
     <cc:Agent>
      <dc:title>Matplotlib v3.5.2, https://matplotlib.org/</dc:title>
     </cc:Agent>
    </dc:creator>
   </cc:Work>
  </rdf:RDF>
 </metadata>
 <defs>
  <style type="text/css">*{stroke-linejoin: round; stroke-linecap: butt}</style>
 </defs>
 <g id="figure_1">
  <g id="patch_1">
   <path d="M 0 345.6 
L 460.8 345.6 
L 460.8 0 
L 0 0 
z
" style="fill: #ffffff"/>
  </g>
  <g id="axes_1">
   <g id="patch_2">
    <path d="M 57.6 307.584 
L 414.72 307.584 
L 414.72 41.472 
L 57.6 41.472 
z
" style="fill: #ffffff"/>
   </g>
   <g id="PolyCollection_1">
    <path d="M 113.164452 295.488 
L 109.459723 295.488 
L 109.244257 293.055876 
L 109.019983 290.623752 
L 108.78546 288.191629 
L 108.53828 285.759505 
L 108.275219 283.327381 
L 107.992511 280.895257 
L 107.686259 278.463134 
L 107.352929 276.03101 
L 106.98989 273.598886 
L 106.595927 271.166762 
L 106.171678 268.734639 
L 105.719907 266.302515 
L 105.245596 263.870391 
L 104.755782 261.438267 
L 104.259175 259.006144 
L 103.765533 256.57402 
L 103.284877 254.141896 
L 102.826594 251.709772 
L 102.398515 249.277648 
L 102.006077 246.845525 
L 101.651654 244.413401 
L 101.334126 241.981277 
L 101.048774 239.549153 
L 100.787505 237.11703 
L 100.53941 234.684906 
L 100.291619 232.252782 
L 100.030363 229.820658 
L 99.742155 227.388535 
L 99.414943 224.956411 
L 99.039144 222.524287 
L 98.608417 220.092163 
L 98.120114 217.66004 
L 97.575354 215.227916 
L 96.978711 212.795792 
L 96.337564 210.363668 
L 95.661165 207.931544 
L 94.959533 205.499421 
L 94.242266 203.067297 
L 93.517415 200.635173 
L 92.790502 198.203049 
L 92.06381 195.770926 
L 91.336033 193.338802 
L 90.602345 190.906678 
L 89.854921 188.474554 
L 89.083903 186.042431 
L 88.278726 183.610307 
L 87.429685 181.178183 
L 86.529561 178.746059 
L 85.575098 176.313936 
L 84.568123 173.881812 
L 83.516136 171.449688 
L 82.43226 169.017564 
L 81.334533 166.58544 
L 80.244629 164.153317 
L 79.18615 161.721193 
L 78.182746 159.289069 
L 77.256262 156.856945 
L 76.425179 154.424822 
L 75.703473 151.992698 
L 75.100009 149.560574 
L 74.618462 147.12845 
L 74.25769 144.696327 
L 74.012456 142.264203 
L 73.874341 139.832079 
L 73.832727 137.399955 
L 73.875736 134.967832 
L 73.991075 132.535708 
L 74.166768 130.103584 
L 74.39178 127.67146 
L 74.656584 125.239336 
L 74.953694 122.807213 
L 75.278172 120.375089 
L 75.628102 117.942965 
L 76.004966 115.510841 
L 76.413852 113.078718 
L 76.863387 110.646594 
L 77.365354 108.21447 
L 77.93391 105.782346 
L 78.584462 103.350223 
L 79.332252 100.918099 
L 80.1908 98.485975 
L 81.170365 96.053851 
L 82.276631 93.621728 
L 83.509761 91.189604 
L 84.863946 88.75748 
L 86.327505 86.325356 
L 87.883495 83.893232 
L 89.510756 81.461109 
L 91.185244 79.028985 
L 92.881485 76.596861 
L 94.574001 74.164737 
L 96.238571 71.732614 
L 97.853238 69.30049 
L 99.399019 66.868366 
L 100.860321 64.436242 
L 102.225092 62.004119 
L 103.484767 59.571995 
L 104.634063 57.139871 
L 105.670683 54.707747 
L 116.953492 54.707747 
L 116.953492 54.707747 
L 117.990112 57.139871 
L 119.139408 59.571995 
L 120.399083 62.004119 
L 121.763854 64.436242 
L 123.225156 66.868366 
L 124.770937 69.30049 
L 126.385604 71.732614 
L 128.050174 74.164737 
L 129.74269 76.596861 
L 131.438931 79.028985 
L 133.113418 81.461109 
L 134.74068 83.893232 
L 136.29667 86.325356 
L 137.760228 88.75748 
L 139.114414 91.189604 
L 140.347543 93.621728 
L 141.45381 96.053851 
L 142.433375 98.485975 
L 143.291922 100.918099 
L 144.039713 103.350223 
L 144.690265 105.782346 
L 145.258821 108.21447 
L 145.760787 110.646594 
L 146.210323 113.078718 
L 146.619208 115.510841 
L 146.996073 117.942965 
L 147.346003 120.375089 
L 147.670481 122.807213 
L 147.967591 125.239336 
L 148.232395 127.67146 
L 148.457407 130.103584 
L 148.6331 132.535708 
L 148.748439 134.967832 
L 148.791447 137.399955 
L 148.749833 139.832079 
L 148.611719 142.264203 
L 148.366485 144.696327 
L 148.005713 147.12845 
L 147.524165 149.560574 
L 146.920701 151.992698 
L 146.198995 154.424822 
L 145.367912 156.856945 
L 144.441429 159.289069 
L 143.438024 161.721193 
L 142.379546 164.153317 
L 141.289641 166.58544 
L 140.191915 169.017564 
L 139.108038 171.449688 
L 138.056051 173.881812 
L 137.049077 176.313936 
L 136.094614 178.746059 
L 135.19449 181.178183 
L 134.345449 183.610307 
L 133.540272 186.042431 
L 132.769254 188.474554 
L 132.02183 190.906678 
L 131.288142 193.338802 
L 130.560365 195.770926 
L 129.833673 198.203049 
L 129.106759 200.635173 
L 128.381909 203.067297 
L 127.664642 205.499421 
L 126.963009 207.931544 
L 126.286611 210.363668 
L 125.645464 212.795792 
L 125.048821 215.227916 
L 124.50406 217.66004 
L 124.015758 220.092163 
L 123.585031 222.524287 
L 123.209231 224.956411 
L 122.88202 227.388535 
L 122.593811 229.820658 
L 122.332556 232.252782 
L 122.084764 234.684906 
L 121.836669 237.11703 
L 121.5754 239.549153 
L 121.290049 241.981277 
L 120.972521 244.413401 
L 120.618097 246.845525 
L 120.22566 249.277648 
L 119.797581 251.709772 
L 119.339297 254.141896 
L 118.858642 256.57402 
L 118.365 259.006144 
L 117.868392 261.438267 
L 117.378579 263.870391 
L 116.904267 266.302515 
L 116.452497 268.734639 
L 116.028247 271.166762 
L 115.634285 273.598886 
L 115.271245 276.03101 
L 114.937915 278.463134 
L 114.631663 280.895257 
L 114.348955 283.327381 
L 114.085894 285.759505 
L 113.838715 288.191629 
L 113.604191 290.623752 
L 113.379918 293.055876 
L 113.164452 295.488 
z
" clip-path="url(#p24617e0f2f)" style="fill: #1f77b4; fill-opacity: 0.3"/>
   </g>
   <g id="PolyCollection_2">
    <path d="M 196.525827 269.981837 
L 192.673281 269.981837 
L 192.463993 267.865263 
L 192.262021 265.748689 
L 192.071795 263.632115 
L 191.896962 261.515541 
L 191.740031 259.398967 
L 191.602068 257.282393 
L 191.482483 255.16582 
L 191.378925 253.049246 
L 191.287324 250.932672 
L 191.202052 248.816098 
L 191.11623 246.699524 
L 191.022137 244.58295 
L 190.911688 242.466376 
L 190.776956 240.349802 
L 190.610676 238.233228 
L 190.4067 236.116655 
L 190.160362 234.000081 
L 189.868742 231.883507 
L 189.530802 229.766933 
L 189.147417 227.650359 
L 188.721294 225.533785 
L 188.256813 223.417211 
L 187.759799 221.300637 
L 187.237241 219.184063 
L 186.696961 217.06749 
L 186.147243 214.950916 
L 185.596413 212.834342 
L 185.05238 210.717768 
L 184.522144 208.601194 
L 184.01129 206.48462 
L 183.52353 204.368046 
L 183.060311 202.251472 
L 182.620573 200.134898 
L 182.200683 198.018325 
L 181.794587 195.901751 
L 181.39417 193.785177 
L 180.989803 191.668603 
L 180.571018 189.552029 
L 180.127229 187.435455 
L 179.648428 185.318881 
L 179.125777 183.202307 
L 178.552049 181.085733 
L 177.921915 178.96916 
L 177.232057 176.852586 
L 176.481184 174.736012 
L 175.669967 172.619438 
L 174.800954 170.502864 
L 173.878506 168.38629 
L 172.908762 166.269716 
L 171.899632 164.153142 
L 170.86078 162.036568 
L 169.803571 159.919994 
L 168.74092 157.803421 
L 167.687005 155.686847 
L 166.656816 153.570273 
L 165.665528 151.453699 
L 164.727734 149.337125 
L 163.856565 147.220551 
L 163.0628 145.103977 
L 162.354034 142.987403 
L 161.73401 140.870829 
L 161.202209 138.754256 
L 160.753753 136.637682 
L 160.379663 134.521108 
L 160.067487 132.404534 
L 159.802254 130.28796 
L 159.567709 128.171386 
L 159.34774 126.054812 
L 159.127908 123.938238 
L 158.896966 121.821664 
L 158.648243 119.705091 
L 158.380772 117.588517 
L 158.10003 115.471943 
L 157.818177 113.355369 
L 157.553704 111.238795 
L 157.330475 109.122221 
L 157.176156 107.005647 
L 157.120194 104.889073 
L 157.19148 102.772499 
L 157.415983 100.655926 
L 157.814601 98.539352 
L 158.401491 96.422778 
L 159.183067 94.306204 
L 160.157765 92.18963 
L 161.316561 90.073056 
L 162.64411 87.956482 
L 164.120299 85.839908 
L 165.721955 83.723334 
L 167.424457 81.606761 
L 169.203058 79.490187 
L 171.033781 77.373613 
L 172.893889 75.257039 
L 174.761974 73.140465 
L 176.617819 71.023891 
L 178.442166 68.907317 
L 180.216562 66.790743 
L 181.923379 64.674169 
L 183.546058 62.557596 
L 185.069562 60.441022 
L 204.129546 60.441022 
L 204.129546 60.441022 
L 205.65305 62.557596 
L 207.275729 64.674169 
L 208.982546 66.790743 
L 210.756942 68.907317 
L 212.581289 71.023891 
L 214.437134 73.140465 
L 216.305219 75.257039 
L 218.165327 77.373613 
L 219.99605 79.490187 
L 221.774651 81.606761 
L 223.477153 83.723334 
L 225.078809 85.839908 
L 226.554998 87.956482 
L 227.882547 90.073056 
L 229.041343 92.18963 
L 230.016041 94.306204 
L 230.797617 96.422778 
L 231.384507 98.539352 
L 231.783125 100.655926 
L 232.007628 102.772499 
L 232.078914 104.889073 
L 232.022952 107.005647 
L 231.868634 109.122221 
L 231.645404 111.238795 
L 231.380932 113.355369 
L 231.099078 115.471943 
L 230.818336 117.588517 
L 230.550865 119.705091 
L 230.302142 121.821664 
L 230.0712 123.938238 
L 229.851368 126.054812 
L 229.631399 128.171386 
L 229.396854 130.28796 
L 229.131622 132.404534 
L 228.819446 134.521108 
L 228.445355 136.637682 
L 227.996899 138.754256 
L 227.465098 140.870829 
L 226.845075 142.987403 
L 226.136308 145.103977 
L 225.342543 147.220551 
L 224.471374 149.337125 
L 223.53358 151.453699 
L 222.542292 153.570273 
L 221.512103 155.686847 
L 220.458188 157.803421 
L 219.395538 159.919994 
L 218.338328 162.036568 
L 217.299476 164.153142 
L 216.290346 166.269716 
L 215.320602 168.38629 
L 214.398154 170.502864 
L 213.529141 172.619438 
L 212.717924 174.736012 
L 211.967051 176.852586 
L 211.277194 178.96916 
L 210.647059 181.085733 
L 210.073332 183.202307 
L 209.55068 185.318881 
L 209.071879 187.435455 
L 208.62809 189.552029 
L 208.209305 191.668603 
L 207.804938 193.785177 
L 207.404521 195.901751 
L 206.998425 198.018325 
L 206.578535 200.134898 
L 206.138797 202.251472 
L 205.675578 204.368046 
L 205.187818 206.48462 
L 204.676964 208.601194 
L 204.146728 210.717768 
L 203.602695 212.834342 
L 203.051866 214.950916 
L 202.502147 217.06749 
L 201.961867 219.184063 
L 201.439309 221.300637 
L 200.942296 223.417211 
L 200.477815 225.533785 
L 200.051691 227.650359 
L 199.668306 229.766933 
L 199.330366 231.883507 
L 199.038746 234.000081 
L 198.792409 236.116655 
L 198.588432 238.233228 
L 198.422152 240.349802 
L 198.287421 242.466376 
L 198.176972 244.58295 
L 198.082878 246.699524 
L 197.997056 248.816098 
L 197.911784 250.932672 
L 197.820183 253.049246 
L 197.716626 255.16582 
L 197.59704 257.282393 
L 197.459077 259.398967 
L 197.302146 261.515541 
L 197.127313 263.632115 
L 196.937087 265.748689 
L 196.735115 267.865263 
L 196.525827 269.981837 
z
" clip-path="url(#p24617e0f2f)" style="fill: #1f77b4; fill-opacity: 0.3"/>
   </g>
   <g id="PolyCollection_3">
    <path d="M 278.322822 267.650536 
L 277.451219 267.650536 
L 277.457085 265.52995 
L 277.475729 263.409364 
L 277.50443 261.288778 
L 277.539169 259.168192 
L 277.575026 257.047606 
L 277.606657 254.92702 
L 277.628741 252.806435 
L 277.636382 250.685849 
L 277.62543 248.565263 
L 277.592747 246.444677 
L 277.536426 244.324091 
L 277.455977 242.203505 
L 277.352462 240.082919 
L 277.228527 237.962334 
L 277.088277 235.841748 
L 276.936932 233.721162 
L 276.780241 231.600576 
L 276.623673 229.47999 
L 276.471467 227.359404 
L 276.325674 225.238818 
L 276.185355 223.118233 
L 276.046121 220.997647 
L 275.900191 218.877061 
L 275.73706 216.756475 
L 275.544813 214.635889 
L 275.311973 212.515303 
L 275.029627 210.394717 
L 274.693455 208.274132 
L 274.305214 206.153546 
L 273.873255 204.03296 
L 273.411789 201.912374 
L 272.938878 199.791788 
L 272.473397 197.671202 
L 272.03151 195.550616 
L 271.623358 193.430031 
L 271.25066 191.309445 
L 270.905747 189.188859 
L 270.572269 187.068273 
L 270.227409 184.947687 
L 269.845166 182.827101 
L 269.400031 180.706515 
L 268.870409 178.58593 
L 268.241257 176.465344 
L 267.505674 174.344758 
L 266.665435 172.224172 
L 265.730675 170.103586 
L 264.718972 167.983 
L 263.654044 165.862414 
L 262.564117 163.741829 
L 261.479886 161.621243 
L 260.431961 159.500657 
L 259.447743 157.380071 
L 258.547934 155.259485 
L 257.743129 153.138899 
L 257.031203 151.018313 
L 256.396225 148.897728 
L 255.809503 146.777142 
L 255.232935 144.656556 
L 254.624345 142.53597 
L 253.943945 140.415384 
L 253.160743 138.294798 
L 252.257656 136.174212 
L 251.234346 134.053627 
L 250.107277 131.933041 
L 248.907105 129.812455 
L 247.674037 127.691869 
L 246.452155 125.571283 
L 245.283808 123.450697 
L 244.205054 121.330111 
L 243.242819 119.209526 
L 242.414064 117.08894 
L 241.726866 114.968354 
L 241.183004 112.847768 
L 240.781417 110.727182 
L 240.521807 108.606596 
L 240.407661 106.48601 
L 240.448092 104.365425 
L 240.658109 102.244839 
L 241.057221 100.124253 
L 241.666595 98.003667 
L 242.50526 95.883081 
L 243.586083 93.762495 
L 244.912262 91.641909 
L 246.47502 89.521324 
L 248.252915 87.400738 
L 250.212879 85.280152 
L 252.312751 83.159566 
L 254.50478 81.03898 
L 256.739479 78.918394 
L 258.969178 76.797808 
L 261.150799 74.677223 
L 263.24762 72.556637 
L 265.230025 70.436051 
L 267.075455 68.315465 
L 268.767873 66.194879 
L 270.297049 64.074293 
L 271.657898 61.953707 
L 272.849937 59.833122 
L 273.876868 57.712536 
L 281.897173 57.712536 
L 281.897173 57.712536 
L 282.924104 59.833122 
L 284.116144 61.953707 
L 285.476993 64.074293 
L 287.006169 66.194879 
L 288.698586 68.315465 
L 290.544016 70.436051 
L 292.526422 72.556637 
L 294.623243 74.677223 
L 296.804864 76.797808 
L 299.034562 78.918394 
L 301.269262 81.03898 
L 303.461291 83.159566 
L 305.561162 85.280152 
L 307.521127 87.400738 
L 309.299022 89.521324 
L 310.861779 91.641909 
L 312.187959 93.762495 
L 313.268782 95.883081 
L 314.107447 98.003667 
L 314.71682 100.124253 
L 315.115933 102.244839 
L 315.32595 104.365425 
L 315.366381 106.48601 
L 315.252235 108.606596 
L 314.992625 110.727182 
L 314.591038 112.847768 
L 314.047176 114.968354 
L 313.359978 117.08894 
L 312.531223 119.209526 
L 311.568988 121.330111 
L 310.490234 123.450697 
L 309.321886 125.571283 
L 308.100004 127.691869 
L 306.866937 129.812455 
L 305.666765 131.933041 
L 304.539696 134.053627 
L 303.516386 136.174212 
L 302.613299 138.294798 
L 301.830097 140.415384 
L 301.149697 142.53597 
L 300.541107 144.656556 
L 299.964539 146.777142 
L 299.377817 148.897728 
L 298.742839 151.018313 
L 298.030913 153.138899 
L 297.226108 155.259485 
L 296.326298 157.380071 
L 295.342081 159.500657 
L 294.294156 161.621243 
L 293.209925 163.741829 
L 292.119997 165.862414 
L 291.055069 167.983 
L 290.043366 170.103586 
L 289.108606 172.224172 
L 288.268368 174.344758 
L 287.532785 176.465344 
L 286.903633 178.58593 
L 286.374011 180.706515 
L 285.928876 182.827101 
L 285.546633 184.947687 
L 285.201773 187.068273 
L 284.868295 189.188859 
L 284.523382 191.309445 
L 284.150683 193.430031 
L 283.742532 195.550616 
L 283.300645 197.671202 
L 282.835163 199.791788 
L 282.362252 201.912374 
L 281.900787 204.03296 
L 281.468827 206.153546 
L 281.080586 208.274132 
L 280.744414 210.394717 
L 280.462068 212.515303 
L 280.229228 214.635889 
L 280.036982 216.756475 
L 279.87385 218.877061 
L 279.72792 220.997647 
L 279.588687 223.118233 
L 279.448367 225.238818 
L 279.302574 227.359404 
L 279.150369 229.47999 
L 278.993801 231.600576 
L 278.83711 233.721162 
L 278.685765 235.841748 
L 278.545515 237.962334 
L 278.42158 240.082919 
L 278.318065 242.203505 
L 278.237616 244.324091 
L 278.181295 246.444677 
L 278.148612 248.565263 
L 278.13766 250.685849 
L 278.1453 252.806435 
L 278.167384 254.92702 
L 278.199015 257.047606 
L 278.234873 259.168192 
L 278.269611 261.288778 
L 278.298313 263.409364 
L 278.316957 265.52995 
L 278.322822 267.650536 
z
" clip-path="url(#p24617e0f2f)" style="fill: #1f77b4; fill-opacity: 0.3"/>
   </g>
   <g id="PolyCollection_4">
    <path d="M 361.928468 243.405002 
L 360.087357 243.405002 
L 359.967271 241.487456 
L 359.845632 239.569911 
L 359.724891 237.652366 
L 359.607807 235.73482 
L 359.497305 233.817275 
L 359.39624 231.899729 
L 359.307078 229.982184 
L 359.231555 228.064638 
L 359.170351 226.147093 
L 359.122853 224.229547 
L 359.087053 222.312002 
L 359.059589 220.394456 
L 359.035935 218.476911 
L 359.010701 216.559365 
L 358.977991 214.64182 
L 358.931787 212.724274 
L 358.866314 210.806729 
L 358.776366 208.889183 
L 358.657609 206.971638 
L 358.506851 205.054092 
L 358.32229 203.136547 
L 358.103713 201.219001 
L 357.852607 199.301456 
L 357.572093 197.383911 
L 357.266614 195.466365 
L 356.941324 193.54882 
L 356.601181 191.631274 
L 356.249822 189.713729 
L 355.888429 187.796183 
L 355.514825 185.878638 
L 355.123091 183.961092 
L 354.703926 182.043547 
L 354.245876 180.126001 
L 353.737316 178.208456 
L 353.168919 176.29091 
L 352.536122 174.373365 
L 351.841035 172.455819 
L 351.093282 170.538274 
L 350.309416 168.620728 
L 349.510854 166.703183 
L 348.720612 164.785637 
L 347.959395 162.868092 
L 347.241811 160.950547 
L 346.573452 159.033001 
L 345.949472 157.115456 
L 345.354943 155.19791 
L 344.766941 153.280365 
L 344.157941 151.362819 
L 343.499894 149.445274 
L 342.76824 147.527728 
L 341.94523 145.610183 
L 341.022063 143.692637 
L 339.999651 141.775092 
L 338.888019 139.857546 
L 337.704606 137.940001 
L 336.471814 136.022455 
L 335.214242 134.10491 
L 333.956035 132.187364 
L 332.718724 130.269819 
L 331.519825 128.352273 
L 330.372374 126.434728 
L 329.285381 124.517183 
L 328.26506 122.599637 
L 327.316546 120.682092 
L 326.445727 118.764546 
L 325.660799 116.847001 
L 324.973226 114.929455 
L 324.397922 113.01191 
L 323.952609 111.094364 
L 323.656503 109.176819 
L 323.528553 107.259273 
L 323.585538 105.341728 
L 323.840315 103.424182 
L 324.300415 101.506637 
L 324.96715 99.589091 
L 325.835251 97.671546 
L 326.893021 95.754 
L 328.122939 93.836455 
L 329.502615 91.918909 
L 331.006023 90.001364 
L 332.604906 88.083819 
L 334.270271 86.166273 
L 335.973867 84.248728 
L 337.689544 82.331182 
L 339.394356 80.413637 
L 341.069324 78.496091 
L 342.699767 76.578546 
L 344.275188 74.661 
L 345.788747 72.743455 
L 347.236438 70.825909 
L 348.616105 68.908364 
L 349.926485 66.990818 
L 351.166418 65.073273 
L 352.334344 63.155727 
L 353.428121 61.238182 
L 354.445152 59.320636 
L 355.382718 57.403091 
L 356.238444 55.485545 
L 357.010749 53.568 
L 365.005076 53.568 
L 365.005076 53.568 
L 365.777381 55.485545 
L 366.633107 57.403091 
L 367.570674 59.320636 
L 368.587704 61.238182 
L 369.681482 63.155727 
L 370.849407 65.073273 
L 372.08934 66.990818 
L 373.39972 68.908364 
L 374.779388 70.825909 
L 376.227079 72.743455 
L 377.740638 74.661 
L 379.316058 76.578546 
L 380.946501 78.496091 
L 382.621469 80.413637 
L 384.326282 82.331182 
L 386.041958 84.248728 
L 387.745555 86.166273 
L 389.410919 88.083819 
L 391.009802 90.001364 
L 392.51321 91.918909 
L 393.892887 93.836455 
L 395.122804 95.754 
L 396.180575 97.671546 
L 397.048676 99.589091 
L 397.715411 101.506637 
L 398.175511 103.424182 
L 398.430287 105.341728 
L 398.487273 107.259273 
L 398.359322 109.176819 
L 398.063216 111.094364 
L 397.617904 113.01191 
L 397.042599 114.929455 
L 396.355027 116.847001 
L 395.570098 118.764546 
L 394.699279 120.682092 
L 393.750766 122.599637 
L 392.730444 124.517183 
L 391.643451 126.434728 
L 390.496 128.352273 
L 389.297101 130.269819 
L 388.05979 132.187364 
L 386.801584 134.10491 
L 385.544011 136.022455 
L 384.311219 137.940001 
L 383.127807 139.857546 
L 382.016175 141.775092 
L 380.993762 143.692637 
L 380.070596 145.610183 
L 379.247585 147.527728 
L 378.515932 149.445274 
L 377.857884 151.362819 
L 377.248885 153.280365 
L 376.660883 155.19791 
L 376.066354 157.115456 
L 375.442373 159.033001 
L 374.774014 160.950547 
L 374.05643 162.868092 
L 373.295214 164.785637 
L 372.504971 166.703183 
L 371.706409 168.620728 
L 370.922543 170.538274 
L 370.17479 172.455819 
L 369.479704 174.373365 
L 368.846906 176.29091 
L 368.278509 178.208456 
L 367.769949 180.126001 
L 367.311899 182.043547 
L 366.892735 183.961092 
L 366.501 185.878638 
L 366.127396 187.796183 
L 365.766004 189.713729 
L 365.414644 191.631274 
L 365.074501 193.54882 
L 364.749212 195.466365 
L 364.443732 197.383911 
L 364.163218 199.301456 
L 363.912112 201.219001 
L 363.693536 203.136547 
L 363.508974 205.054092 
L 363.358216 206.971638 
L 363.239459 208.889183 
L 363.149512 210.806729 
L 363.084038 212.724274 
L 363.037835 214.64182 
L 363.005125 216.559365 
L 362.97989 218.476911 
L 362.956237 220.394456 
L 362.928773 222.312002 
L 362.892973 224.229547 
L 362.845475 226.147093 
L 362.78427 228.064638 
L 362.708747 229.982184 
L 362.619585 231.899729 
L 362.51852 233.817275 
L 362.408018 235.73482 
L 362.290934 237.652366 
L 362.170193 239.569911 
L 362.048554 241.487456 
L 361.928468 243.405002 
z
" clip-path="url(#p24617e0f2f)" style="fill: #1f77b4; fill-opacity: 0.3"/>
   </g>
   <g id="matplotlib.axis_1">
    <g id="xtick_1">
     <g id="line2d_1">
      <defs>
       <path id="mc6d4da9d7a" d="M 0 0 
L 0 3.5 
" style="stroke: #000000; stroke-width: 0.8"/>
      </defs>
      <g>
       <use xlink:href="#mc6d4da9d7a" x="69.668354" y="307.584" style="stroke: #000000; stroke-width: 0.8"/>
      </g>
     </g>
     <g id="text_1">
      <!-- 250 -->
      <g transform="translate(60.124604 322.182437)scale(0.1 -0.1)">
       <defs>
        <path id="DejaVuSans-32" d="M 1228 531 
L 3431 531 
L 3431 0 
L 469 0 
L 469 531 
Q 828 903 1448 1529 
Q 2069 2156 2228 2338 
Q 2531 2678 2651 2914 
Q 2772 3150 2772 3378 
Q 2772 3750 2511 3984 
Q 2250 4219 1831 4219 
Q 1534 4219 1204 4116 
Q 875 4013 500 3803 
L 500 4441 
Q 881 4594 1212 4672 
Q 1544 4750 1819 4750 
Q 2544 4750 2975 4387 
Q 3406 4025 3406 3419 
Q 3406 3131 3298 2873 
Q 3191 2616 2906 2266 
Q 2828 2175 2409 1742 
Q 1991 1309 1228 531 
z
" transform="scale(0.015625)"/>
        <path id="DejaVuSans-35" d="M 691 4666 
L 3169 4666 
L 3169 4134 
L 1269 4134 
L 1269 2991 
Q 1406 3038 1543 3061 
Q 1681 3084 1819 3084 
Q 2600 3084 3056 2656 
Q 3513 2228 3513 1497 
Q 3513 744 3044 326 
Q 2575 -91 1722 -91 
Q 1428 -91 1123 -41 
Q 819 9 494 109 
L 494 744 
Q 775 591 1075 516 
Q 1375 441 1709 441 
Q 2250 441 2565 725 
Q 2881 1009 2881 1497 
Q 2881 1984 2565 2268 
Q 2250 2553 1709 2553 
Q 1456 2553 1204 2497 
Q 953 2441 691 2322 
L 691 4666 
z
" transform="scale(0.015625)"/>
        <path id="DejaVuSans-30" d="M 2034 4250 
Q 1547 4250 1301 3770 
Q 1056 3291 1056 2328 
Q 1056 1369 1301 889 
Q 1547 409 2034 409 
Q 2525 409 2770 889 
Q 3016 1369 3016 2328 
Q 3016 3291 2770 3770 
Q 2525 4250 2034 4250 
z
M 2034 4750 
Q 2819 4750 3233 4129 
Q 3647 3509 3647 2328 
Q 3647 1150 3233 529 
Q 2819 -91 2034 -91 
Q 1250 -91 836 529 
Q 422 1150 422 2328 
Q 422 3509 836 4129 
Q 1250 4750 2034 4750 
z
" transform="scale(0.015625)"/>
       </defs>
       <use xlink:href="#DejaVuSans-32"/>
       <use xlink:href="#DejaVuSans-35" x="63.623047"/>
       <use xlink:href="#DejaVuSans-30" x="127.246094"/>
      </g>
     </g>
    </g>
    <g id="xtick_2">
     <g id="line2d_2">
      <g>
       <use xlink:href="#mc6d4da9d7a" x="111.312087" y="307.584" style="stroke: #000000; stroke-width: 0.8"/>
      </g>
     </g>
     <g id="text_2">
      <!-- 500 -->
      <g transform="translate(101.768337 322.182437)scale(0.1 -0.1)">
       <use xlink:href="#DejaVuSans-35"/>
       <use xlink:href="#DejaVuSans-30" x="63.623047"/>
       <use xlink:href="#DejaVuSans-30" x="127.246094"/>
      </g>
     </g>
    </g>
    <g id="xtick_3">
     <g id="line2d_3">
      <g>
       <use xlink:href="#mc6d4da9d7a" x="152.955821" y="307.584" style="stroke: #000000; stroke-width: 0.8"/>
      </g>
     </g>
     <g id="text_3">
      <!-- 750 -->
      <g transform="translate(143.412071 322.182437)scale(0.1 -0.1)">
       <defs>
        <path id="DejaVuSans-37" d="M 525 4666 
L 3525 4666 
L 3525 4397 
L 1831 0 
L 1172 0 
L 2766 4134 
L 525 4134 
L 525 4666 
z
" transform="scale(0.015625)"/>
       </defs>
       <use xlink:href="#DejaVuSans-37"/>
       <use xlink:href="#DejaVuSans-35" x="63.623047"/>
       <use xlink:href="#DejaVuSans-30" x="127.246094"/>
      </g>
     </g>
    </g>
    <g id="xtick_4">
     <g id="line2d_4">
      <g>
       <use xlink:href="#mc6d4da9d7a" x="194.599554" y="307.584" style="stroke: #000000; stroke-width: 0.8"/>
      </g>
     </g>
     <g id="text_4">
      <!-- 1000 -->
      <g transform="translate(181.874554 322.182437)scale(0.1 -0.1)">
       <defs>
        <path id="DejaVuSans-31" d="M 794 531 
L 1825 531 
L 1825 4091 
L 703 3866 
L 703 4441 
L 1819 4666 
L 2450 4666 
L 2450 531 
L 3481 531 
L 3481 0 
L 794 0 
L 794 531 
z
" transform="scale(0.015625)"/>
       </defs>
       <use xlink:href="#DejaVuSans-31"/>
       <use xlink:href="#DejaVuSans-30" x="63.623047"/>
       <use xlink:href="#DejaVuSans-30" x="127.246094"/>
       <use xlink:href="#DejaVuSans-30" x="190.869141"/>
      </g>
     </g>
    </g>
    <g id="xtick_5">
     <g id="line2d_5">
      <g>
       <use xlink:href="#mc6d4da9d7a" x="236.243287" y="307.584" style="stroke: #000000; stroke-width: 0.8"/>
      </g>
     </g>
     <g id="text_5">
      <!-- 1250 -->
      <g transform="translate(223.518287 322.182437)scale(0.1 -0.1)">
       <use xlink:href="#DejaVuSans-31"/>
       <use xlink:href="#DejaVuSans-32" x="63.623047"/>
       <use xlink:href="#DejaVuSans-35" x="127.246094"/>
       <use xlink:href="#DejaVuSans-30" x="190.869141"/>
      </g>
     </g>
    </g>
    <g id="xtick_6">
     <g id="line2d_6">
      <g>
       <use xlink:href="#mc6d4da9d7a" x="277.887021" y="307.584" style="stroke: #000000; stroke-width: 0.8"/>
      </g>
     </g>
     <g id="text_6">
      <!-- 1500 -->
      <g transform="translate(265.162021 322.182437)scale(0.1 -0.1)">
       <use xlink:href="#DejaVuSans-31"/>
       <use xlink:href="#DejaVuSans-35" x="63.623047"/>
       <use xlink:href="#DejaVuSans-30" x="127.246094"/>
       <use xlink:href="#DejaVuSans-30" x="190.869141"/>
      </g>
     </g>
    </g>
    <g id="xtick_7">
     <g id="line2d_7">
      <g>
       <use xlink:href="#mc6d4da9d7a" x="319.530754" y="307.584" style="stroke: #000000; stroke-width: 0.8"/>
      </g>
     </g>
     <g id="text_7">
      <!-- 1750 -->
      <g transform="translate(306.805754 322.182437)scale(0.1 -0.1)">
       <use xlink:href="#DejaVuSans-31"/>
       <use xlink:href="#DejaVuSans-37" x="63.623047"/>
       <use xlink:href="#DejaVuSans-35" x="127.246094"/>
       <use xlink:href="#DejaVuSans-30" x="190.869141"/>
      </g>
     </g>
    </g>
    <g id="xtick_8">
     <g id="line2d_8">
      <g>
       <use xlink:href="#mc6d4da9d7a" x="361.174488" y="307.584" style="stroke: #000000; stroke-width: 0.8"/>
      </g>
     </g>
     <g id="text_8">
      <!-- 2000 -->
      <g transform="translate(348.449488 322.182437)scale(0.1 -0.1)">
       <use xlink:href="#DejaVuSans-32"/>
       <use xlink:href="#DejaVuSans-30" x="63.623047"/>
       <use xlink:href="#DejaVuSans-30" x="127.246094"/>
       <use xlink:href="#DejaVuSans-30" x="190.869141"/>
      </g>
     </g>
    </g>
    <g id="xtick_9">
     <g id="line2d_9">
      <g>
       <use xlink:href="#mc6d4da9d7a" x="402.818221" y="307.584" style="stroke: #000000; stroke-width: 0.8"/>
      </g>
     </g>
     <g id="text_9">
      <!-- 2250 -->
      <g transform="translate(390.093221 322.182437)scale(0.1 -0.1)">
       <use xlink:href="#DejaVuSans-32"/>
       <use xlink:href="#DejaVuSans-32" x="63.623047"/>
       <use xlink:href="#DejaVuSans-35" x="127.246094"/>
       <use xlink:href="#DejaVuSans-30" x="190.869141"/>
      </g>
     </g>
    </g>
    <g id="text_10">
     <!-- Learned Episodes -->
     <g transform="translate(192.102187 335.860562)scale(0.1 -0.1)">
      <defs>
       <path id="DejaVuSans-4c" d="M 628 4666 
L 1259 4666 
L 1259 531 
L 3531 531 
L 3531 0 
L 628 0 
L 628 4666 
z
" transform="scale(0.015625)"/>
       <path id="DejaVuSans-65" d="M 3597 1894 
L 3597 1613 
L 953 1613 
Q 991 1019 1311 708 
Q 1631 397 2203 397 
Q 2534 397 2845 478 
Q 3156 559 3463 722 
L 3463 178 
Q 3153 47 2828 -22 
Q 2503 -91 2169 -91 
Q 1331 -91 842 396 
Q 353 884 353 1716 
Q 353 2575 817 3079 
Q 1281 3584 2069 3584 
Q 2775 3584 3186 3129 
Q 3597 2675 3597 1894 
z
M 3022 2063 
Q 3016 2534 2758 2815 
Q 2500 3097 2075 3097 
Q 1594 3097 1305 2825 
Q 1016 2553 972 2059 
L 3022 2063 
z
" transform="scale(0.015625)"/>
       <path id="DejaVuSans-61" d="M 2194 1759 
Q 1497 1759 1228 1600 
Q 959 1441 959 1056 
Q 959 750 1161 570 
Q 1363 391 1709 391 
Q 2188 391 2477 730 
Q 2766 1069 2766 1631 
L 2766 1759 
L 2194 1759 
z
M 3341 1997 
L 3341 0 
L 2766 0 
L 2766 531 
Q 2569 213 2275 61 
Q 1981 -91 1556 -91 
Q 1019 -91 701 211 
Q 384 513 384 1019 
Q 384 1609 779 1909 
Q 1175 2209 1959 2209 
L 2766 2209 
L 2766 2266 
Q 2766 2663 2505 2880 
Q 2244 3097 1772 3097 
Q 1472 3097 1187 3025 
Q 903 2953 641 2809 
L 641 3341 
Q 956 3463 1253 3523 
Q 1550 3584 1831 3584 
Q 2591 3584 2966 3190 
Q 3341 2797 3341 1997 
z
" transform="scale(0.015625)"/>
       <path id="DejaVuSans-72" d="M 2631 2963 
Q 2534 3019 2420 3045 
Q 2306 3072 2169 3072 
Q 1681 3072 1420 2755 
Q 1159 2438 1159 1844 
L 1159 0 
L 581 0 
L 581 3500 
L 1159 3500 
L 1159 2956 
Q 1341 3275 1631 3429 
Q 1922 3584 2338 3584 
Q 2397 3584 2469 3576 
Q 2541 3569 2628 3553 
L 2631 2963 
z
" transform="scale(0.015625)"/>
       <path id="DejaVuSans-6e" d="M 3513 2113 
L 3513 0 
L 2938 0 
L 2938 2094 
Q 2938 2591 2744 2837 
Q 2550 3084 2163 3084 
Q 1697 3084 1428 2787 
Q 1159 2491 1159 1978 
L 1159 0 
L 581 0 
L 581 3500 
L 1159 3500 
L 1159 2956 
Q 1366 3272 1645 3428 
Q 1925 3584 2291 3584 
Q 2894 3584 3203 3211 
Q 3513 2838 3513 2113 
z
" transform="scale(0.015625)"/>
       <path id="DejaVuSans-64" d="M 2906 2969 
L 2906 4863 
L 3481 4863 
L 3481 0 
L 2906 0 
L 2906 525 
Q 2725 213 2448 61 
Q 2172 -91 1784 -91 
Q 1150 -91 751 415 
Q 353 922 353 1747 
Q 353 2572 751 3078 
Q 1150 3584 1784 3584 
Q 2172 3584 2448 3432 
Q 2725 3281 2906 2969 
z
M 947 1747 
Q 947 1113 1208 752 
Q 1469 391 1925 391 
Q 2381 391 2643 752 
Q 2906 1113 2906 1747 
Q 2906 2381 2643 2742 
Q 2381 3103 1925 3103 
Q 1469 3103 1208 2742 
Q 947 2381 947 1747 
z
" transform="scale(0.015625)"/>
       <path id="DejaVuSans-20" transform="scale(0.015625)"/>
       <path id="DejaVuSans-45" d="M 628 4666 
L 3578 4666 
L 3578 4134 
L 1259 4134 
L 1259 2753 
L 3481 2753 
L 3481 2222 
L 1259 2222 
L 1259 531 
L 3634 531 
L 3634 0 
L 628 0 
L 628 4666 
z
" transform="scale(0.015625)"/>
       <path id="DejaVuSans-70" d="M 1159 525 
L 1159 -1331 
L 581 -1331 
L 581 3500 
L 1159 3500 
L 1159 2969 
Q 1341 3281 1617 3432 
Q 1894 3584 2278 3584 
Q 2916 3584 3314 3078 
Q 3713 2572 3713 1747 
Q 3713 922 3314 415 
Q 2916 -91 2278 -91 
Q 1894 -91 1617 61 
Q 1341 213 1159 525 
z
M 3116 1747 
Q 3116 2381 2855 2742 
Q 2594 3103 2138 3103 
Q 1681 3103 1420 2742 
Q 1159 2381 1159 1747 
Q 1159 1113 1420 752 
Q 1681 391 2138 391 
Q 2594 391 2855 752 
Q 3116 1113 3116 1747 
z
" transform="scale(0.015625)"/>
       <path id="DejaVuSans-69" d="M 603 3500 
L 1178 3500 
L 1178 0 
L 603 0 
L 603 3500 
z
M 603 4863 
L 1178 4863 
L 1178 4134 
L 603 4134 
L 603 4863 
z
" transform="scale(0.015625)"/>
       <path id="DejaVuSans-73" d="M 2834 3397 
L 2834 2853 
Q 2591 2978 2328 3040 
Q 2066 3103 1784 3103 
Q 1356 3103 1142 2972 
Q 928 2841 928 2578 
Q 928 2378 1081 2264 
Q 1234 2150 1697 2047 
L 1894 2003 
Q 2506 1872 2764 1633 
Q 3022 1394 3022 966 
Q 3022 478 2636 193 
Q 2250 -91 1575 -91 
Q 1294 -91 989 -36 
Q 684 19 347 128 
L 347 722 
Q 666 556 975 473 
Q 1284 391 1588 391 
Q 1994 391 2212 530 
Q 2431 669 2431 922 
Q 2431 1156 2273 1281 
Q 2116 1406 1581 1522 
L 1381 1569 
Q 847 1681 609 1914 
Q 372 2147 372 2553 
Q 372 3047 722 3315 
Q 1072 3584 1716 3584 
Q 2034 3584 2315 3537 
Q 2597 3491 2834 3397 
z
" transform="scale(0.015625)"/>
       <path id="DejaVuSans-6f" d="M 1959 3097 
Q 1497 3097 1228 2736 
Q 959 2375 959 1747 
Q 959 1119 1226 758 
Q 1494 397 1959 397 
Q 2419 397 2687 759 
Q 2956 1122 2956 1747 
Q 2956 2369 2687 2733 
Q 2419 3097 1959 3097 
z
M 1959 3584 
Q 2709 3584 3137 3096 
Q 3566 2609 3566 1747 
Q 3566 888 3137 398 
Q 2709 -91 1959 -91 
Q 1206 -91 779 398 
Q 353 888 353 1747 
Q 353 2609 779 3096 
Q 1206 3584 1959 3584 
z
" transform="scale(0.015625)"/>
      </defs>
      <use xlink:href="#DejaVuSans-4c"/>
      <use xlink:href="#DejaVuSans-65" x="53.962891"/>
      <use xlink:href="#DejaVuSans-61" x="115.486328"/>
      <use xlink:href="#DejaVuSans-72" x="176.765625"/>
      <use xlink:href="#DejaVuSans-6e" x="216.128906"/>
      <use xlink:href="#DejaVuSans-65" x="279.507812"/>
      <use xlink:href="#DejaVuSans-64" x="341.03125"/>
      <use xlink:href="#DejaVuSans-20" x="404.507812"/>
      <use xlink:href="#DejaVuSans-45" x="436.294922"/>
      <use xlink:href="#DejaVuSans-70" x="499.478516"/>
      <use xlink:href="#DejaVuSans-69" x="562.955078"/>
      <use xlink:href="#DejaVuSans-73" x="590.738281"/>
      <use xlink:href="#DejaVuSans-6f" x="642.837891"/>
      <use xlink:href="#DejaVuSans-64" x="704.019531"/>
      <use xlink:href="#DejaVuSans-65" x="767.496094"/>
      <use xlink:href="#DejaVuSans-73" x="829.019531"/>
     </g>
    </g>
   </g>
   <g id="matplotlib.axis_2">
    <g id="ytick_1">
     <g id="line2d_10">
      <defs>
       <path id="ma95b8a92cf" d="M 0 0 
L -3.5 0 
" style="stroke: #000000; stroke-width: 0.8"/>
      </defs>
      <g>
       <use xlink:href="#ma95b8a92cf" x="57.6" y="306.384675" style="stroke: #000000; stroke-width: 0.8"/>
      </g>
     </g>
     <g id="text_11">
      <!-- −400 -->
      <g transform="translate(23.132812 310.183894)scale(0.1 -0.1)">
       <defs>
        <path id="DejaVuSans-2212" d="M 678 2272 
L 4684 2272 
L 4684 1741 
L 678 1741 
L 678 2272 
z
" transform="scale(0.015625)"/>
        <path id="DejaVuSans-34" d="M 2419 4116 
L 825 1625 
L 2419 1625 
L 2419 4116 
z
M 2253 4666 
L 3047 4666 
L 3047 1625 
L 3713 1625 
L 3713 1100 
L 3047 1100 
L 3047 0 
L 2419 0 
L 2419 1100 
L 313 1100 
L 313 1709 
L 2253 4666 
z
" transform="scale(0.015625)"/>
       </defs>
       <use xlink:href="#DejaVuSans-2212"/>
       <use xlink:href="#DejaVuSans-34" x="83.789062"/>
       <use xlink:href="#DejaVuSans-30" x="147.412109"/>
       <use xlink:href="#DejaVuSans-30" x="211.035156"/>
      </g>
     </g>
    </g>
    <g id="ytick_2">
     <g id="line2d_11">
      <g>
       <use xlink:href="#ma95b8a92cf" x="57.6" y="271.846878" style="stroke: #000000; stroke-width: 0.8"/>
      </g>
     </g>
     <g id="text_12">
      <!-- −200 -->
      <g transform="translate(23.132812 275.646097)scale(0.1 -0.1)">
       <use xlink:href="#DejaVuSans-2212"/>
       <use xlink:href="#DejaVuSans-32" x="83.789062"/>
       <use xlink:href="#DejaVuSans-30" x="147.412109"/>
       <use xlink:href="#DejaVuSans-30" x="211.035156"/>
      </g>
     </g>
    </g>
    <g id="ytick_3">
     <g id="line2d_12">
      <g>
       <use xlink:href="#ma95b8a92cf" x="57.6" y="237.309081" style="stroke: #000000; stroke-width: 0.8"/>
      </g>
     </g>
     <g id="text_13">
      <!-- 0 -->
      <g transform="translate(44.2375 241.108299)scale(0.1 -0.1)">
       <use xlink:href="#DejaVuSans-30"/>
      </g>
     </g>
    </g>
    <g id="ytick_4">
     <g id="line2d_13">
      <g>
       <use xlink:href="#ma95b8a92cf" x="57.6" y="202.771284" style="stroke: #000000; stroke-width: 0.8"/>
      </g>
     </g>
     <g id="text_14">
      <!-- 200 -->
      <g transform="translate(31.5125 206.570502)scale(0.1 -0.1)">
       <use xlink:href="#DejaVuSans-32"/>
       <use xlink:href="#DejaVuSans-30" x="63.623047"/>
       <use xlink:href="#DejaVuSans-30" x="127.246094"/>
      </g>
     </g>
    </g>
    <g id="ytick_5">
     <g id="line2d_14">
      <g>
       <use xlink:href="#ma95b8a92cf" x="57.6" y="168.233486" style="stroke: #000000; stroke-width: 0.8"/>
      </g>
     </g>
     <g id="text_15">
      <!-- 400 -->
      <g transform="translate(31.5125 172.032705)scale(0.1 -0.1)">
       <use xlink:href="#DejaVuSans-34"/>
       <use xlink:href="#DejaVuSans-30" x="63.623047"/>
       <use xlink:href="#DejaVuSans-30" x="127.246094"/>
      </g>
     </g>
    </g>
    <g id="ytick_6">
     <g id="line2d_15">
      <g>
       <use xlink:href="#ma95b8a92cf" x="57.6" y="133.695689" style="stroke: #000000; stroke-width: 0.8"/>
      </g>
     </g>
     <g id="text_16">
      <!-- 600 -->
      <g transform="translate(31.5125 137.494908)scale(0.1 -0.1)">
       <defs>
        <path id="DejaVuSans-36" d="M 2113 2584 
Q 1688 2584 1439 2293 
Q 1191 2003 1191 1497 
Q 1191 994 1439 701 
Q 1688 409 2113 409 
Q 2538 409 2786 701 
Q 3034 994 3034 1497 
Q 3034 2003 2786 2293 
Q 2538 2584 2113 2584 
z
M 3366 4563 
L 3366 3988 
Q 3128 4100 2886 4159 
Q 2644 4219 2406 4219 
Q 1781 4219 1451 3797 
Q 1122 3375 1075 2522 
Q 1259 2794 1537 2939 
Q 1816 3084 2150 3084 
Q 2853 3084 3261 2657 
Q 3669 2231 3669 1497 
Q 3669 778 3244 343 
Q 2819 -91 2113 -91 
Q 1303 -91 875 529 
Q 447 1150 447 2328 
Q 447 3434 972 4092 
Q 1497 4750 2381 4750 
Q 2619 4750 2861 4703 
Q 3103 4656 3366 4563 
z
" transform="scale(0.015625)"/>
       </defs>
       <use xlink:href="#DejaVuSans-36"/>
       <use xlink:href="#DejaVuSans-30" x="63.623047"/>
       <use xlink:href="#DejaVuSans-30" x="127.246094"/>
      </g>
     </g>
    </g>
    <g id="ytick_7">
     <g id="line2d_16">
      <g>
       <use xlink:href="#ma95b8a92cf" x="57.6" y="99.157892" style="stroke: #000000; stroke-width: 0.8"/>
      </g>
     </g>
     <g id="text_17">
      <!-- 800 -->
      <g transform="translate(31.5125 102.957111)scale(0.1 -0.1)">
       <defs>
        <path id="DejaVuSans-38" d="M 2034 2216 
Q 1584 2216 1326 1975 
Q 1069 1734 1069 1313 
Q 1069 891 1326 650 
Q 1584 409 2034 409 
Q 2484 409 2743 651 
Q 3003 894 3003 1313 
Q 3003 1734 2745 1975 
Q 2488 2216 2034 2216 
z
M 1403 2484 
Q 997 2584 770 2862 
Q 544 3141 544 3541 
Q 544 4100 942 4425 
Q 1341 4750 2034 4750 
Q 2731 4750 3128 4425 
Q 3525 4100 3525 3541 
Q 3525 3141 3298 2862 
Q 3072 2584 2669 2484 
Q 3125 2378 3379 2068 
Q 3634 1759 3634 1313 
Q 3634 634 3220 271 
Q 2806 -91 2034 -91 
Q 1263 -91 848 271 
Q 434 634 434 1313 
Q 434 1759 690 2068 
Q 947 2378 1403 2484 
z
M 1172 3481 
Q 1172 3119 1398 2916 
Q 1625 2713 2034 2713 
Q 2441 2713 2670 2916 
Q 2900 3119 2900 3481 
Q 2900 3844 2670 4047 
Q 2441 4250 2034 4250 
Q 1625 4250 1398 4047 
Q 1172 3844 1172 3481 
z
" transform="scale(0.015625)"/>
       </defs>
       <use xlink:href="#DejaVuSans-38"/>
       <use xlink:href="#DejaVuSans-30" x="63.623047"/>
       <use xlink:href="#DejaVuSans-30" x="127.246094"/>
      </g>
     </g>
    </g>
    <g id="ytick_8">
     <g id="line2d_17">
      <g>
       <use xlink:href="#ma95b8a92cf" x="57.6" y="64.620095" style="stroke: #000000; stroke-width: 0.8"/>
      </g>
     </g>
     <g id="text_18">
      <!-- 1000 -->
      <g transform="translate(25.15 68.419314)scale(0.1 -0.1)">
       <use xlink:href="#DejaVuSans-31"/>
       <use xlink:href="#DejaVuSans-30" x="63.623047"/>
       <use xlink:href="#DejaVuSans-30" x="127.246094"/>
       <use xlink:href="#DejaVuSans-30" x="190.869141"/>
      </g>
     </g>
    </g>
    <g id="text_19">
     <!-- Reward Density -->
     <g transform="translate(17.053125 213.74675)rotate(-90)scale(0.1 -0.1)">
      <defs>
       <path id="DejaVuSans-52" d="M 2841 2188 
Q 3044 2119 3236 1894 
Q 3428 1669 3622 1275 
L 4263 0 
L 3584 0 
L 2988 1197 
Q 2756 1666 2539 1819 
Q 2322 1972 1947 1972 
L 1259 1972 
L 1259 0 
L 628 0 
L 628 4666 
L 2053 4666 
Q 2853 4666 3247 4331 
Q 3641 3997 3641 3322 
Q 3641 2881 3436 2590 
Q 3231 2300 2841 2188 
z
M 1259 4147 
L 1259 2491 
L 2053 2491 
Q 2509 2491 2742 2702 
Q 2975 2913 2975 3322 
Q 2975 3731 2742 3939 
Q 2509 4147 2053 4147 
L 1259 4147 
z
" transform="scale(0.015625)"/>
       <path id="DejaVuSans-77" d="M 269 3500 
L 844 3500 
L 1563 769 
L 2278 3500 
L 2956 3500 
L 3675 769 
L 4391 3500 
L 4966 3500 
L 4050 0 
L 3372 0 
L 2619 2869 
L 1863 0 
L 1184 0 
L 269 3500 
z
" transform="scale(0.015625)"/>
       <path id="DejaVuSans-44" d="M 1259 4147 
L 1259 519 
L 2022 519 
Q 2988 519 3436 956 
Q 3884 1394 3884 2338 
Q 3884 3275 3436 3711 
Q 2988 4147 2022 4147 
L 1259 4147 
z
M 628 4666 
L 1925 4666 
Q 3281 4666 3915 4102 
Q 4550 3538 4550 2338 
Q 4550 1131 3912 565 
Q 3275 0 1925 0 
L 628 0 
L 628 4666 
z
" transform="scale(0.015625)"/>
       <path id="DejaVuSans-74" d="M 1172 4494 
L 1172 3500 
L 2356 3500 
L 2356 3053 
L 1172 3053 
L 1172 1153 
Q 1172 725 1289 603 
Q 1406 481 1766 481 
L 2356 481 
L 2356 0 
L 1766 0 
Q 1100 0 847 248 
Q 594 497 594 1153 
L 594 3053 
L 172 3053 
L 172 3500 
L 594 3500 
L 594 4494 
L 1172 4494 
z
" transform="scale(0.015625)"/>
       <path id="DejaVuSans-79" d="M 2059 -325 
Q 1816 -950 1584 -1140 
Q 1353 -1331 966 -1331 
L 506 -1331 
L 506 -850 
L 844 -850 
Q 1081 -850 1212 -737 
Q 1344 -625 1503 -206 
L 1606 56 
L 191 3500 
L 800 3500 
L 1894 763 
L 2988 3500 
L 3597 3500 
L 2059 -325 
z
" transform="scale(0.015625)"/>
      </defs>
      <use xlink:href="#DejaVuSans-52"/>
      <use xlink:href="#DejaVuSans-65" x="64.982422"/>
      <use xlink:href="#DejaVuSans-77" x="126.505859"/>
      <use xlink:href="#DejaVuSans-61" x="208.292969"/>
      <use xlink:href="#DejaVuSans-72" x="269.572266"/>
      <use xlink:href="#DejaVuSans-64" x="308.935547"/>
      <use xlink:href="#DejaVuSans-20" x="372.412109"/>
      <use xlink:href="#DejaVuSans-44" x="404.199219"/>
      <use xlink:href="#DejaVuSans-65" x="481.201172"/>
      <use xlink:href="#DejaVuSans-6e" x="542.724609"/>
      <use xlink:href="#DejaVuSans-73" x="606.103516"/>
      <use xlink:href="#DejaVuSans-69" x="658.203125"/>
      <use xlink:href="#DejaVuSans-74" x="685.986328"/>
      <use xlink:href="#DejaVuSans-79" x="725.195312"/>
     </g>
    </g>
   </g>
   <g id="LineCollection_1">
    <path d="M 92.572407 149.316651 
L 130.051767 149.316651 
" clip-path="url(#p24617e0f2f)" style="fill: none; stroke: #1f77b4; stroke-width: 1.5"/>
    <path d="M 175.859874 133.869829 
L 213.339234 133.869829 
" clip-path="url(#p24617e0f2f)" style="fill: none; stroke: #1f77b4; stroke-width: 1.5"/>
    <path d="M 259.147341 122.997469 
L 296.626701 122.997469 
" clip-path="url(#p24617e0f2f)" style="fill: none; stroke: #1f77b4; stroke-width: 1.5"/>
    <path d="M 342.268233 119.736755 
L 379.747593 119.736755 
" clip-path="url(#p24617e0f2f)" style="fill: none; stroke: #1f77b4; stroke-width: 1.5"/>
   </g>
   <g id="LineCollection_2">
    <path d="M 92.572407 54.707747 
L 130.051767 54.707747 
" clip-path="url(#p24617e0f2f)" style="fill: none; stroke: #1f77b4; stroke-width: 1.5"/>
    <path d="M 175.859874 60.441022 
L 213.339234 60.441022 
" clip-path="url(#p24617e0f2f)" style="fill: none; stroke: #1f77b4; stroke-width: 1.5"/>
    <path d="M 259.147341 57.712536 
L 296.626701 57.712536 
" clip-path="url(#p24617e0f2f)" style="fill: none; stroke: #1f77b4; stroke-width: 1.5"/>
    <path d="M 342.268233 53.568 
L 379.747593 53.568 
" clip-path="url(#p24617e0f2f)" style="fill: none; stroke: #1f77b4; stroke-width: 1.5"/>
   </g>
   <g id="LineCollection_3">
    <path d="M 92.572407 295.488 
L 130.051767 295.488 
" clip-path="url(#p24617e0f2f)" style="fill: none; stroke: #1f77b4; stroke-width: 1.5"/>
    <path d="M 175.859874 269.981837 
L 213.339234 269.981837 
" clip-path="url(#p24617e0f2f)" style="fill: none; stroke: #1f77b4; stroke-width: 1.5"/>
    <path d="M 259.147341 267.650536 
L 296.626701 267.650536 
" clip-path="url(#p24617e0f2f)" style="fill: none; stroke: #1f77b4; stroke-width: 1.5"/>
    <path d="M 342.268233 243.405002 
L 379.747593 243.405002 
" clip-path="url(#p24617e0f2f)" style="fill: none; stroke: #1f77b4; stroke-width: 1.5"/>
   </g>
   <g id="LineCollection_4">
    <path d="M 111.312087 295.488 
L 111.312087 54.707747 
" clip-path="url(#p24617e0f2f)" style="fill: none; stroke: #1f77b4; stroke-width: 1.5"/>
    <path d="M 194.599554 269.981837 
L 194.599554 60.441022 
" clip-path="url(#p24617e0f2f)" style="fill: none; stroke: #1f77b4; stroke-width: 1.5"/>
    <path d="M 277.887021 267.650536 
L 277.887021 57.712536 
" clip-path="url(#p24617e0f2f)" style="fill: none; stroke: #1f77b4; stroke-width: 1.5"/>
    <path d="M 361.007913 243.405002 
L 361.007913 53.568 
" clip-path="url(#p24617e0f2f)" style="fill: none; stroke: #1f77b4; stroke-width: 1.5"/>
   </g>
   <g id="line2d_18">
    <path d="M 111.312087 149.316651 
L 194.599554 133.869829 
L 277.887021 122.997469 
L 361.007913 119.736755 
" clip-path="url(#p24617e0f2f)" style="fill: none; stroke: #4682b4; stroke-width: 1.5; stroke-linecap: square"/>
   </g>
   <g id="patch_3">
    <path d="M 57.6 307.584 
L 57.6 41.472 
" style="fill: none; stroke: #000000; stroke-width: 0.8; stroke-linejoin: miter; stroke-linecap: square"/>
   </g>
   <g id="patch_4">
    <path d="M 414.72 307.584 
L 414.72 41.472 
" style="fill: none; stroke: #000000; stroke-width: 0.8; stroke-linejoin: miter; stroke-linecap: square"/>
   </g>
   <g id="patch_5">
    <path d="M 57.6 307.584 
L 414.72 307.584 
" style="fill: none; stroke: #000000; stroke-width: 0.8; stroke-linejoin: miter; stroke-linecap: square"/>
   </g>
   <g id="patch_6">
    <path d="M 57.6 41.472 
L 414.72 41.472 
" style="fill: none; stroke: #000000; stroke-width: 0.8; stroke-linejoin: miter; stroke-linecap: square"/>
   </g>
   <g id="text_20">
    <!-- Violinplot for progress of profits/all -->
    <g transform="translate(132.559687 35.472)scale(0.12 -0.12)">
     <defs>
      <path id="DejaVuSans-56" d="M 1831 0 
L 50 4666 
L 709 4666 
L 2188 738 
L 3669 4666 
L 4325 4666 
L 2547 0 
L 1831 0 
z
" transform="scale(0.015625)"/>
      <path id="DejaVuSans-6c" d="M 603 4863 
L 1178 4863 
L 1178 0 
L 603 0 
L 603 4863 
z
" transform="scale(0.015625)"/>
      <path id="DejaVuSans-66" d="M 2375 4863 
L 2375 4384 
L 1825 4384 
Q 1516 4384 1395 4259 
Q 1275 4134 1275 3809 
L 1275 3500 
L 2222 3500 
L 2222 3053 
L 1275 3053 
L 1275 0 
L 697 0 
L 697 3053 
L 147 3053 
L 147 3500 
L 697 3500 
L 697 3744 
Q 697 4328 969 4595 
Q 1241 4863 1831 4863 
L 2375 4863 
z
" transform="scale(0.015625)"/>
      <path id="DejaVuSans-67" d="M 2906 1791 
Q 2906 2416 2648 2759 
Q 2391 3103 1925 3103 
Q 1463 3103 1205 2759 
Q 947 2416 947 1791 
Q 947 1169 1205 825 
Q 1463 481 1925 481 
Q 2391 481 2648 825 
Q 2906 1169 2906 1791 
z
M 3481 434 
Q 3481 -459 3084 -895 
Q 2688 -1331 1869 -1331 
Q 1566 -1331 1297 -1286 
Q 1028 -1241 775 -1147 
L 775 -588 
Q 1028 -725 1275 -790 
Q 1522 -856 1778 -856 
Q 2344 -856 2625 -561 
Q 2906 -266 2906 331 
L 2906 616 
Q 2728 306 2450 153 
Q 2172 0 1784 0 
Q 1141 0 747 490 
Q 353 981 353 1791 
Q 353 2603 747 3093 
Q 1141 3584 1784 3584 
Q 2172 3584 2450 3431 
Q 2728 3278 2906 2969 
L 2906 3500 
L 3481 3500 
L 3481 434 
z
" transform="scale(0.015625)"/>
      <path id="DejaVuSans-2f" d="M 1625 4666 
L 2156 4666 
L 531 -594 
L 0 -594 
L 1625 4666 
z
" transform="scale(0.015625)"/>
     </defs>
     <use xlink:href="#DejaVuSans-56"/>
     <use xlink:href="#DejaVuSans-69" x="66.158203"/>
     <use xlink:href="#DejaVuSans-6f" x="93.941406"/>
     <use xlink:href="#DejaVuSans-6c" x="155.123047"/>
     <use xlink:href="#DejaVuSans-69" x="182.90625"/>
     <use xlink:href="#DejaVuSans-6e" x="210.689453"/>
     <use xlink:href="#DejaVuSans-70" x="274.068359"/>
     <use xlink:href="#DejaVuSans-6c" x="337.544922"/>
     <use xlink:href="#DejaVuSans-6f" x="365.328125"/>
     <use xlink:href="#DejaVuSans-74" x="426.509766"/>
     <use xlink:href="#DejaVuSans-20" x="465.71875"/>
     <use xlink:href="#DejaVuSans-66" x="497.505859"/>
     <use xlink:href="#DejaVuSans-6f" x="532.710938"/>
     <use xlink:href="#DejaVuSans-72" x="593.892578"/>
     <use xlink:href="#DejaVuSans-20" x="635.005859"/>
     <use xlink:href="#DejaVuSans-70" x="666.792969"/>
     <use xlink:href="#DejaVuSans-72" x="730.269531"/>
     <use xlink:href="#DejaVuSans-6f" x="769.132812"/>
     <use xlink:href="#DejaVuSans-67" x="830.314453"/>
     <use xlink:href="#DejaVuSans-72" x="893.791016"/>
     <use xlink:href="#DejaVuSans-65" x="932.654297"/>
     <use xlink:href="#DejaVuSans-73" x="994.177734"/>
     <use xlink:href="#DejaVuSans-73" x="1046.277344"/>
     <use xlink:href="#DejaVuSans-20" x="1098.376953"/>
     <use xlink:href="#DejaVuSans-6f" x="1130.164062"/>
     <use xlink:href="#DejaVuSans-66" x="1191.345703"/>
     <use xlink:href="#DejaVuSans-20" x="1226.550781"/>
     <use xlink:href="#DejaVuSans-70" x="1258.337891"/>
     <use xlink:href="#DejaVuSans-72" x="1321.814453"/>
     <use xlink:href="#DejaVuSans-6f" x="1360.677734"/>
     <use xlink:href="#DejaVuSans-66" x="1421.859375"/>
     <use xlink:href="#DejaVuSans-69" x="1457.064453"/>
     <use xlink:href="#DejaVuSans-74" x="1484.847656"/>
     <use xlink:href="#DejaVuSans-73" x="1524.056641"/>
     <use xlink:href="#DejaVuSans-2f" x="1576.15625"/>
     <use xlink:href="#DejaVuSans-61" x="1609.847656"/>
     <use xlink:href="#DejaVuSans-6c" x="1671.126953"/>
     <use xlink:href="#DejaVuSans-6c" x="1698.910156"/>
    </g>
   </g>
   <g id="legend_1">
    <g id="patch_7">
     <path d="M 284.430938 64.150125 
L 407.72 64.150125 
Q 409.72 64.150125 409.72 62.150125 
L 409.72 48.472 
Q 409.72 46.472 407.72 46.472 
L 284.430938 46.472 
Q 282.430938 46.472 282.430938 48.472 
L 282.430938 62.150125 
Q 282.430938 64.150125 284.430938 64.150125 
z
" style="fill: #ffffff; opacity: 0.8; stroke: #cccccc; stroke-linejoin: miter"/>
    </g>
    <g id="line2d_19">
     <path d="M 286.430938 54.570438 
L 296.430938 54.570438 
L 306.430938 54.570438 
" style="fill: none; stroke: #4682b4; stroke-width: 1.5; stroke-linecap: square"/>
    </g>
    <g id="text_21">
     <!-- Storage-Minimizer -->
     <g transform="translate(314.430938 58.070438)scale(0.1 -0.1)">
      <defs>
       <path id="DejaVuSans-53" d="M 3425 4513 
L 3425 3897 
Q 3066 4069 2747 4153 
Q 2428 4238 2131 4238 
Q 1616 4238 1336 4038 
Q 1056 3838 1056 3469 
Q 1056 3159 1242 3001 
Q 1428 2844 1947 2747 
L 2328 2669 
Q 3034 2534 3370 2195 
Q 3706 1856 3706 1288 
Q 3706 609 3251 259 
Q 2797 -91 1919 -91 
Q 1588 -91 1214 -16 
Q 841 59 441 206 
L 441 856 
Q 825 641 1194 531 
Q 1563 422 1919 422 
Q 2459 422 2753 634 
Q 3047 847 3047 1241 
Q 3047 1584 2836 1778 
Q 2625 1972 2144 2069 
L 1759 2144 
Q 1053 2284 737 2584 
Q 422 2884 422 3419 
Q 422 4038 858 4394 
Q 1294 4750 2059 4750 
Q 2388 4750 2728 4690 
Q 3069 4631 3425 4513 
z
" transform="scale(0.015625)"/>
       <path id="DejaVuSans-2d" d="M 313 2009 
L 1997 2009 
L 1997 1497 
L 313 1497 
L 313 2009 
z
" transform="scale(0.015625)"/>
       <path id="DejaVuSans-4d" d="M 628 4666 
L 1569 4666 
L 2759 1491 
L 3956 4666 
L 4897 4666 
L 4897 0 
L 4281 0 
L 4281 4097 
L 3078 897 
L 2444 897 
L 1241 4097 
L 1241 0 
L 628 0 
L 628 4666 
z
" transform="scale(0.015625)"/>
       <path id="DejaVuSans-6d" d="M 3328 2828 
Q 3544 3216 3844 3400 
Q 4144 3584 4550 3584 
Q 5097 3584 5394 3201 
Q 5691 2819 5691 2113 
L 5691 0 
L 5113 0 
L 5113 2094 
Q 5113 2597 4934 2840 
Q 4756 3084 4391 3084 
Q 3944 3084 3684 2787 
Q 3425 2491 3425 1978 
L 3425 0 
L 2847 0 
L 2847 2094 
Q 2847 2600 2669 2842 
Q 2491 3084 2119 3084 
Q 1678 3084 1418 2786 
Q 1159 2488 1159 1978 
L 1159 0 
L 581 0 
L 581 3500 
L 1159 3500 
L 1159 2956 
Q 1356 3278 1631 3431 
Q 1906 3584 2284 3584 
Q 2666 3584 2933 3390 
Q 3200 3197 3328 2828 
z
" transform="scale(0.015625)"/>
       <path id="DejaVuSans-7a" d="M 353 3500 
L 3084 3500 
L 3084 2975 
L 922 459 
L 3084 459 
L 3084 0 
L 275 0 
L 275 525 
L 2438 3041 
L 353 3041 
L 353 3500 
z
" transform="scale(0.015625)"/>
      </defs>
      <use xlink:href="#DejaVuSans-53"/>
      <use xlink:href="#DejaVuSans-74" x="63.476562"/>
      <use xlink:href="#DejaVuSans-6f" x="102.685547"/>
      <use xlink:href="#DejaVuSans-72" x="163.867188"/>
      <use xlink:href="#DejaVuSans-61" x="204.980469"/>
      <use xlink:href="#DejaVuSans-67" x="266.259766"/>
      <use xlink:href="#DejaVuSans-65" x="329.736328"/>
      <use xlink:href="#DejaVuSans-2d" x="391.259766"/>
      <use xlink:href="#DejaVuSans-4d" x="427.34375"/>
      <use xlink:href="#DejaVuSans-69" x="513.623047"/>
      <use xlink:href="#DejaVuSans-6e" x="541.40625"/>
      <use xlink:href="#DejaVuSans-69" x="604.785156"/>
      <use xlink:href="#DejaVuSans-6d" x="632.568359"/>
      <use xlink:href="#DejaVuSans-69" x="729.980469"/>
      <use xlink:href="#DejaVuSans-7a" x="757.763672"/>
      <use xlink:href="#DejaVuSans-65" x="810.253906"/>
      <use xlink:href="#DejaVuSans-72" x="871.777344"/>
     </g>
    </g>
   </g>
  </g>
 </g>
 <defs>
  <clipPath id="p24617e0f2f">
   <rect x="57.6" y="41.472" width="357.12" height="266.112"/>
  </clipPath>
 </defs>
</svg>
