<?xml version="1.0" encoding="utf-8" standalone="no"?>
<!DOCTYPE svg PUBLIC "-//W3C//DTD SVG 1.1//EN"
  "http://www.w3.org/Graphics/SVG/1.1/DTD/svg11.dtd">
<svg xmlns:xlink="http://www.w3.org/1999/xlink" width="460.8pt" height="345.6pt" viewBox="0 0 460.8 345.6" xmlns="http://www.w3.org/2000/svg" version="1.1">
 <metadata>
  <rdf:RDF xmlns:dc="http://purl.org/dc/elements/1.1/" xmlns:cc="http://creativecommons.org/ns#" xmlns:rdf="http://www.w3.org/1999/02/22-rdf-syntax-ns#">
   <cc:Work>
    <dc:type rdf:resource="http://purl.org/dc/dcmitype/StillImage"/>
    <dc:date>2022-06-16T11:36:22.858247</dc:date>
    <dc:format>image/svg+xml</dc:format>
    <dc:creator>
     <cc:Agent>
      <dc:title>Matplotlib v3.5.2, https://matplotlib.org/</dc:title>
     </cc:Agent>
    </dc:creator>
   </cc:Work>
  </rdf:RDF>
 </metadata>
 <defs>
  <style type="text/css">*{stroke-linejoin: round; stroke-linecap: butt}</style>
 </defs>
 <g id="figure_1">
  <g id="patch_1">
   <path d="M 0 345.6 
L 460.8 345.6 
L 460.8 0 
L 0 0 
z
" style="fill: #ffffff"/>
  </g>
  <g id="axes_1">
   <g id="patch_2">
    <path d="M 57.6 307.584 
L 414.72 307.584 
L 414.72 41.472 
L 57.6 41.472 
z
" style="fill: #ffffff"/>
   </g>
   <g id="PolyCollection_1">
    <path d="M 112.032225 295.488 
L 110.591949 295.488 
L 110.503562 293.138804 
L 110.4058 290.789607 
L 110.296367 288.440411 
L 110.17309 286.091215 
L 110.034212 283.742018 
L 109.878614 281.392822 
L 109.705944 279.043626 
L 109.516607 276.69443 
L 109.311665 274.345233 
L 109.092644 271.996037 
L 108.861324 269.646841 
L 108.619531 267.297644 
L 108.368982 264.948448 
L 108.111171 262.599252 
L 107.847309 260.250055 
L 107.578283 257.900859 
L 107.304627 255.551663 
L 107.026503 253.202466 
L 106.743692 250.85327 
L 106.455631 248.504074 
L 106.161483 246.154877 
L 105.860276 243.805681 
L 105.55106 241.456485 
L 105.233038 239.107289 
L 104.905622 236.758092 
L 104.568327 234.408896 
L 104.220507 232.0597 
L 103.860919 229.710503 
L 103.487205 227.361307 
L 103.095418 225.012111 
L 102.679727 222.662914 
L 102.232453 220.313718 
L 101.74452 217.964522 
L 101.206347 215.615325 
L 100.609097 213.266129 
L 99.946118 210.916933 
L 99.214345 208.567736 
L 98.415404 206.21854 
L 97.556173 203.869344 
L 96.648654 201.520148 
L 95.709088 199.170951 
L 94.756412 196.821755 
L 93.810243 194.472559 
L 92.888705 192.123362 
L 92.006428 189.774166 
L 91.173043 187.42497 
L 90.392408 185.075773 
L 89.662672 182.726577 
L 88.977132 180.377381 
L 88.325693 178.028184 
L 87.696642 175.678988 
L 87.078388 173.329792 
L 86.460867 170.980596 
L 85.836378 168.631399 
L 85.199764 166.282203 
L 84.547982 163.933007 
L 83.879281 161.58381 
L 83.192241 159.234614 
L 82.485028 156.885418 
L 81.755138 154.536221 
L 80.999804 152.187025 
L 80.217121 149.837829 
L 79.407715 147.488632 
L 78.576665 145.139436 
L 77.735246 142.79024 
L 76.902053 140.441043 
L 76.103132 138.091847 
L 75.370903 135.742651 
L 74.741914 133.393455 
L 74.253673 131.044258 
L 73.941038 128.695062 
L 73.832727 126.345866 
L 73.948528 123.996669 
L 74.297618 121.647473 
L 74.878235 119.298277 
L 75.678656 116.94908 
L 76.679235 114.599884 
L 77.855073 112.250688 
L 79.178839 109.901491 
L 80.623303 107.552295 
L 82.163241 105.203099 
L 83.776533 102.853903 
L 85.444447 100.504706 
L 87.151235 98.15551 
L 88.883248 95.806314 
L 90.627854 93.457117 
L 92.372392 91.107921 
L 94.103385 88.758725 
L 95.806153 86.409528 
L 97.464867 84.060332 
L 99.063049 81.711136 
L 100.584384 79.361939 
L 102.013736 77.012743 
L 103.338167 74.663547 
L 104.547812 72.31435 
L 105.636483 69.965154 
L 106.60191 67.615958 
L 107.445629 65.266762 
L 108.172545 62.917565 
L 114.451629 62.917565 
L 114.451629 62.917565 
L 115.178545 65.266762 
L 116.022265 67.615958 
L 116.987692 69.965154 
L 118.076362 72.31435 
L 119.286008 74.663547 
L 120.610439 77.012743 
L 122.039791 79.361939 
L 123.561126 81.711136 
L 125.159307 84.060332 
L 126.818022 86.409528 
L 128.520789 88.758725 
L 130.251783 91.107921 
L 131.996321 93.457117 
L 133.740927 95.806314 
L 135.47294 98.15551 
L 137.179727 100.504706 
L 138.847642 102.853903 
L 140.460934 105.203099 
L 142.000872 107.552295 
L 143.445336 109.901491 
L 144.769102 112.250688 
L 145.944939 114.599884 
L 146.945519 116.94908 
L 147.74594 119.298277 
L 148.326556 121.647473 
L 148.675646 123.996669 
L 148.791447 126.345866 
L 148.683137 128.695062 
L 148.370501 131.044258 
L 147.88226 133.393455 
L 147.253272 135.742651 
L 146.521043 138.091847 
L 145.722121 140.441043 
L 144.888929 142.79024 
L 144.047509 145.139436 
L 143.21646 147.488632 
L 142.407054 149.837829 
L 141.624371 152.187025 
L 140.869037 154.536221 
L 140.139146 156.885418 
L 139.431934 159.234614 
L 138.744893 161.58381 
L 138.076192 163.933007 
L 137.424411 166.282203 
L 136.787796 168.631399 
L 136.163307 170.980596 
L 135.545786 173.329792 
L 134.927532 175.678988 
L 134.298481 178.028184 
L 133.647043 180.377381 
L 132.961503 182.726577 
L 132.231767 185.075773 
L 131.451132 187.42497 
L 130.617747 189.774166 
L 129.73547 192.123362 
L 128.813932 194.472559 
L 127.867763 196.821755 
L 126.915087 199.170951 
L 125.975521 201.520148 
L 125.068001 203.869344 
L 124.208771 206.21854 
L 123.40983 208.567736 
L 122.678057 210.916933 
L 122.015078 213.266129 
L 121.417827 215.615325 
L 120.879655 217.964522 
L 120.391722 220.313718 
L 119.944448 222.662914 
L 119.528757 225.012111 
L 119.13697 227.361307 
L 118.763256 229.710503 
L 118.403667 232.0597 
L 118.055848 234.408896 
L 117.718553 236.758092 
L 117.391136 239.107289 
L 117.073115 241.456485 
L 116.763898 243.805681 
L 116.462692 246.154877 
L 116.168544 248.504074 
L 115.880482 250.85327 
L 115.597672 253.202466 
L 115.319547 255.551663 
L 115.045891 257.900859 
L 114.776865 260.250055 
L 114.513004 262.599252 
L 114.255193 264.948448 
L 114.004643 267.297644 
L 113.762851 269.646841 
L 113.53153 271.996037 
L 113.31251 274.345233 
L 113.107568 276.69443 
L 112.918231 279.043626 
L 112.74556 281.392822 
L 112.589963 283.742018 
L 112.451084 286.091215 
L 112.327807 288.440411 
L 112.218374 290.789607 
L 112.120613 293.138804 
L 112.032225 295.488 
z
" clip-path="url(#p70621e19d3)" style="fill: #1f77b4; fill-opacity: 0.3"/>
   </g>
   <g id="PolyCollection_2">
    <path d="M 195.316077 259.725913 
L 193.883031 259.725913 
L 193.790569 257.64351 
L 193.690922 255.561107 
L 193.583163 253.478704 
L 193.466874 251.3963 
L 193.342491 249.313897 
L 193.211531 247.231494 
L 193.076638 245.149091 
L 192.941394 243.066688 
L 192.80992 240.984285 
L 192.686307 238.901881 
L 192.573962 236.819478 
L 192.474992 234.737075 
L 192.389713 232.654672 
L 192.316385 230.572269 
L 192.251202 228.489866 
L 192.18857 226.407462 
L 192.121607 224.325059 
L 192.042821 222.242656 
L 191.944866 220.160253 
L 191.821285 218.07785 
L 191.667164 215.995447 
L 191.479635 213.913043 
L 191.258204 211.83064 
L 191.004872 209.748237 
L 190.724066 207.665834 
L 190.422356 205.583431 
L 190.107967 203.501028 
L 189.79006 201.418625 
L 189.477803 199.336221 
L 189.179249 197.253818 
L 188.900143 195.171415 
L 188.642766 193.089012 
L 188.405036 191.006609 
L 188.180039 188.924206 
L 187.956136 186.841802 
L 187.717729 184.759399 
L 187.446628 182.676996 
L 187.12386 180.594593 
L 186.731702 178.51219 
L 186.25563 176.429787 
L 185.685948 174.347383 
L 185.018867 172.26498 
L 184.256908 170.182577 
L 183.408584 168.100174 
L 182.487386 166.017771 
L 181.510171 163.935368 
L 180.49513 161.852964 
L 179.459524 159.770561 
L 178.417505 157.688158 
L 177.378307 155.605755 
L 176.345137 153.523352 
L 175.315011 151.440949 
L 174.279658 149.358545 
L 173.227434 147.276142 
L 172.145977 145.193739 
L 171.025152 143.111336 
L 169.859764 141.028933 
L 168.651488 138.94653 
L 167.409655 136.864126 
L 166.15073 134.781723 
L 164.896611 132.69932 
L 163.672127 130.616917 
L 162.502287 128.534514 
L 161.409868 126.452111 
L 160.41383 124.369708 
L 159.528847 122.287304 
L 158.765963 120.204901 
L 158.134112 118.122498 
L 157.642028 116.040095 
L 157.299989 113.957692 
L 157.120878 111.875289 
L 157.120194 109.792885 
L 157.314928 107.710482 
L 157.721446 105.628079 
L 158.352794 103.545676 
L 159.215945 101.463273 
L 160.309531 99.38087 
L 161.622518 97.298466 
L 163.134059 95.216063 
L 164.814564 93.13366 
L 166.627763 91.051257 
L 168.533403 88.968854 
L 170.490151 86.886451 
L 172.458258 84.804047 
L 174.40169 82.721644 
L 176.289559 80.639241 
L 178.096852 78.556838 
L 179.804573 76.474435 
L 181.399491 74.392032 
L 182.87367 72.309628 
L 184.223911 70.227225 
L 185.45116 68.144822 
L 186.559871 66.062419 
L 187.557277 63.980016 
L 188.452559 61.897613 
L 189.255901 59.815209 
L 189.977538 57.732806 
L 190.626879 55.650403 
L 191.211852 53.568 
L 197.987256 53.568 
L 197.987256 53.568 
L 198.572229 55.650403 
L 199.22157 57.732806 
L 199.943207 59.815209 
L 200.74655 61.897613 
L 201.641831 63.980016 
L 202.639237 66.062419 
L 203.747948 68.144822 
L 204.975197 70.227225 
L 206.325438 72.309628 
L 207.799617 74.392032 
L 209.394535 76.474435 
L 211.102256 78.556838 
L 212.909549 80.639241 
L 214.797418 82.721644 
L 216.74085 84.804047 
L 218.708957 86.886451 
L 220.665705 88.968854 
L 222.571346 91.051257 
L 224.384544 93.13366 
L 226.065049 95.216063 
L 227.576591 97.298466 
L 228.889577 99.38087 
L 229.983163 101.463273 
L 230.846314 103.545676 
L 231.477663 105.628079 
L 231.88418 107.710482 
L 232.078914 109.792885 
L 232.078231 111.875289 
L 231.899119 113.957692 
L 231.55708 116.040095 
L 231.064996 118.122498 
L 230.433145 120.204901 
L 229.670261 122.287304 
L 228.785278 124.369708 
L 227.78924 126.452111 
L 226.696822 128.534514 
L 225.526982 130.616917 
L 224.302497 132.69932 
L 223.048378 134.781723 
L 221.789453 136.864126 
L 220.547621 138.94653 
L 219.339344 141.028933 
L 218.173956 143.111336 
L 217.053132 145.193739 
L 215.971674 147.276142 
L 214.919451 149.358545 
L 213.884097 151.440949 
L 212.853971 153.523352 
L 211.820801 155.605755 
L 210.781603 157.688158 
L 209.739584 159.770561 
L 208.703978 161.852964 
L 207.688937 163.935368 
L 206.711723 166.017771 
L 205.790524 168.100174 
L 204.9422 170.182577 
L 204.180241 172.26498 
L 203.51316 174.347383 
L 202.943479 176.429787 
L 202.467406 178.51219 
L 202.075248 180.594593 
L 201.75248 182.676996 
L 201.481379 184.759399 
L 201.242973 186.841802 
L 201.01907 188.924206 
L 200.794072 191.006609 
L 200.556343 193.089012 
L 200.298965 195.171415 
L 200.019859 197.253818 
L 199.721306 199.336221 
L 199.409048 201.418625 
L 199.091141 203.501028 
L 198.776752 205.583431 
L 198.475042 207.665834 
L 198.194236 209.748237 
L 197.940904 211.83064 
L 197.719473 213.913043 
L 197.531945 215.995447 
L 197.377823 218.07785 
L 197.254242 220.160253 
L 197.156287 222.242656 
L 197.077502 224.325059 
L 197.010538 226.407462 
L 196.947906 228.489866 
L 196.882723 230.572269 
L 196.809395 232.654672 
L 196.724116 234.737075 
L 196.625146 236.819478 
L 196.512801 238.901881 
L 196.389188 240.984285 
L 196.257714 243.066688 
L 196.12247 245.149091 
L 195.987577 247.231494 
L 195.856618 249.313897 
L 195.732234 251.3963 
L 195.615946 253.478704 
L 195.508186 255.561107 
L 195.408539 257.64351 
L 195.316077 259.725913 
z
" clip-path="url(#p70621e19d3)" style="fill: #1f77b4; fill-opacity: 0.3"/>
   </g>
   <g id="PolyCollection_3">
    <path d="M 279.170854 213.211826 
L 276.603188 213.211826 
L 276.512987 211.757449 
L 276.443799 210.303072 
L 276.395473 208.848696 
L 276.365722 207.394319 
L 276.350627 205.939942 
L 276.345407 204.485565 
L 276.345275 203.031188 
L 276.346198 201.576812 
L 276.345384 200.122435 
L 276.341408 198.668058 
L 276.333962 197.213681 
L 276.323329 195.759304 
L 276.309732 194.304928 
L 276.292739 192.850551 
L 276.27088 191.396174 
L 276.241566 189.941797 
L 276.201336 188.48742 
L 276.146363 187.033043 
L 276.07309 185.578667 
L 275.978886 184.12429 
L 275.86255 182.669913 
L 275.724609 181.215536 
L 275.567339 179.761159 
L 275.394543 178.306783 
L 275.211113 176.852406 
L 275.022462 175.398029 
L 274.833891 173.943652 
L 274.649956 172.489275 
L 274.473886 171.034899 
L 274.307098 169.580522 
L 274.148826 168.126145 
L 273.995909 166.671768 
L 273.842759 165.217391 
L 273.681534 163.763014 
L 273.502529 162.308638 
L 273.294768 160.854261 
L 273.046747 159.399884 
L 272.747245 157.945507 
L 272.386105 156.49113 
L 271.95484 155.036754 
L 271.446986 153.582377 
L 270.858105 152.128 
L 270.185453 150.673623 
L 269.427388 149.219246 
L 268.582663 147.76487 
L 267.649834 146.310493 
L 266.626998 144.856116 
L 265.512055 143.401739 
L 264.303583 141.947362 
L 263.002239 140.492986 
L 261.612458 139.038609 
L 260.144081 137.584232 
L 258.613447 136.129855 
L 257.043572 134.675478 
L 255.463165 133.221101 
L 253.904489 131.766725 
L 252.400322 130.312348 
L 250.980532 128.857971 
L 249.668858 127.403594 
L 248.480496 125.949217 
L 247.420909 124.494841 
L 246.486036 123.040464 
L 245.663821 121.586087 
L 244.936748 120.13171 
L 244.284929 118.677333 
L 243.689277 117.222957 
L 243.134342 115.76858 
L 242.61048 114.314203 
L 242.115175 112.859826 
L 241.653394 111.405449 
L 241.237012 109.951072 
L 240.883366 108.496696 
L 240.613159 107.042319 
L 240.447956 105.587942 
L 240.407661 104.133565 
L 240.508328 102.679188 
L 240.760714 101.224812 
L 241.169794 99.770435 
L 241.735332 98.316058 
L 242.45335 96.861681 
L 243.318121 95.407304 
L 244.324176 93.952928 
L 245.467783 92.498551 
L 246.747458 91.044174 
L 248.163309 89.589797 
L 249.715291 88.13542 
L 251.400748 86.681043 
L 253.211806 85.226667 
L 255.133254 83.77229 
L 257.141448 82.317913 
L 259.204565 80.863536 
L 261.284236 79.409159 
L 263.338315 77.954783 
L 265.324294 76.500406 
L 267.202826 75.046029 
L 268.940788 73.591652 
L 270.513489 72.137275 
L 271.905785 70.682899 
L 273.112102 69.228522 
L 282.66194 69.228522 
L 282.66194 69.228522 
L 283.868256 70.682899 
L 285.260553 72.137275 
L 286.833254 73.591652 
L 288.571216 75.046029 
L 290.449747 76.500406 
L 292.435726 77.954783 
L 294.489805 79.409159 
L 296.569477 80.863536 
L 298.632594 82.317913 
L 300.640787 83.77229 
L 302.562236 85.226667 
L 304.373294 86.681043 
L 306.058751 88.13542 
L 307.610733 89.589797 
L 309.026584 91.044174 
L 310.306258 92.498551 
L 311.449865 93.952928 
L 312.455921 95.407304 
L 313.320692 96.861681 
L 314.03871 98.316058 
L 314.604248 99.770435 
L 315.013327 101.224812 
L 315.265713 102.679188 
L 315.366381 104.133565 
L 315.326085 105.587942 
L 315.160883 107.042319 
L 314.890675 108.496696 
L 314.53703 109.951072 
L 314.120647 111.405449 
L 313.658867 112.859826 
L 313.163562 114.314203 
L 312.6397 115.76858 
L 312.084765 117.222957 
L 311.489113 118.677333 
L 310.837294 120.13171 
L 310.110221 121.586087 
L 309.288006 123.040464 
L 308.353132 124.494841 
L 307.293545 125.949217 
L 306.105184 127.403594 
L 304.79351 128.857971 
L 303.373719 130.312348 
L 301.869552 131.766725 
L 300.310876 133.221101 
L 298.73047 134.675478 
L 297.160595 136.129855 
L 295.62996 137.584232 
L 294.161584 139.038609 
L 292.771803 140.492986 
L 291.470458 141.947362 
L 290.261986 143.401739 
L 289.147044 144.856116 
L 288.124207 146.310493 
L 287.191379 147.76487 
L 286.346654 149.219246 
L 285.588589 150.673623 
L 284.915937 152.128 
L 284.327055 153.582377 
L 283.819201 155.036754 
L 283.387937 156.49113 
L 283.026797 157.945507 
L 282.727295 159.399884 
L 282.479274 160.854261 
L 282.271513 162.308638 
L 282.092508 163.763014 
L 281.931283 165.217391 
L 281.778132 166.671768 
L 281.625215 168.126145 
L 281.466944 169.580522 
L 281.300156 171.034899 
L 281.124086 172.489275 
L 280.94015 173.943652 
L 280.751579 175.398029 
L 280.562929 176.852406 
L 280.379499 178.306783 
L 280.206703 179.761159 
L 280.049433 181.215536 
L 279.911491 182.669913 
L 279.795156 184.12429 
L 279.700951 185.578667 
L 279.627679 187.033043 
L 279.572705 188.48742 
L 279.532476 189.941797 
L 279.503162 191.396174 
L 279.481303 192.850551 
L 279.46431 194.304928 
L 279.450713 195.759304 
L 279.44008 197.213681 
L 279.432633 198.668058 
L 279.428657 200.122435 
L 279.427844 201.576812 
L 279.428767 203.031188 
L 279.428635 204.485565 
L 279.423414 205.939942 
L 279.40832 207.394319 
L 279.378568 208.848696 
L 279.330242 210.303072 
L 279.261055 211.757449 
L 279.170854 213.211826 
z
" clip-path="url(#p70621e19d3)" style="fill: #1f77b4; fill-opacity: 0.3"/>
   </g>
   <g id="PolyCollection_4">
    <path d="M 361.493227 212.27687 
L 360.522598 212.27687 
L 360.532177 210.699721 
L 360.559802 209.122572 
L 360.602297 207.545423 
L 360.655027 205.968274 
L 360.712693 204.391125 
L 360.770142 202.813976 
L 360.823005 201.236827 
L 360.868052 199.659679 
L 360.903232 198.08253 
L 360.927463 196.505381 
L 360.940287 194.928232 
L 360.941517 193.351083 
L 360.930991 191.773934 
L 360.908497 190.196785 
L 360.873865 188.619636 
L 360.827176 187.042487 
L 360.768985 185.465339 
L 360.700431 183.88819 
L 360.623136 182.311041 
L 360.538835 180.733892 
L 360.448781 179.156743 
L 360.353035 177.579594 
L 360.24984 176.002445 
L 360.135233 174.425296 
L 360.003067 172.848148 
L 359.845417 171.270999 
L 359.653326 169.69385 
L 359.417702 168.116701 
L 359.130186 166.539552 
L 358.783862 164.962403 
L 358.373718 163.385254 
L 357.896843 161.808105 
L 357.352381 160.230957 
L 356.741281 158.653808 
L 356.065894 157.076659 
L 355.329528 155.49951 
L 354.536089 153.922361 
L 353.690001 152.345212 
L 352.796497 150.768063 
L 351.862253 149.190914 
L 350.896121 147.613765 
L 349.909525 146.036617 
L 348.91605 144.459468 
L 347.929902 142.882319 
L 346.963262 141.30517 
L 346.022998 139.728021 
L 345.107583 138.150872 
L 344.205201 136.573723 
L 343.293901 134.996574 
L 342.344204 133.419426 
L 341.323951 131.842277 
L 340.204587 130.265128 
L 338.967613 128.687979 
L 337.609802 127.11083 
L 336.146011 125.533681 
L 334.608883 123.956532 
L 333.045412 122.379383 
L 331.510991 120.802235 
L 330.062024 119.225086 
L 328.748397 117.647937 
L 327.607063 116.070788 
L 326.657716 114.493639 
L 325.901176 112.91649 
L 325.320689 111.339341 
L 324.88596 109.762192 
L 324.559328 108.185043 
L 324.303106 106.607895 
L 324.086885 105.030746 
L 323.893476 103.453597 
L 323.72242 101.876448 
L 323.590405 100.299299 
L 323.528553 98.72215 
L 323.577099 97.145001 
L 323.778408 95.567852 
L 324.169485 93.990704 
L 324.775192 92.413555 
L 325.603298 90.836406 
L 326.642306 89.259257 
L 327.862658 87.682108 
L 329.221371 86.104959 
L 330.669387 84.52781 
L 332.160228 82.950661 
L 333.657983 81.373513 
L 335.142713 79.796364 
L 336.611896 78.219215 
L 338.077614 76.642066 
L 339.560324 75.064917 
L 341.080978 73.487768 
L 342.653572 71.910619 
L 344.279956 70.33347 
L 345.947936 68.756321 
L 347.632723 67.179173 
L 349.30094 65.602024 
L 350.915918 64.024875 
L 352.442905 62.447726 
L 353.853151 60.870577 
L 355.126295 59.293428 
L 356.251036 57.716279 
L 357.224431 56.13913 
L 364.791394 56.13913 
L 364.791394 56.13913 
L 365.764789 57.716279 
L 366.88953 59.293428 
L 368.162674 60.870577 
L 369.57292 62.447726 
L 371.099907 64.024875 
L 372.714885 65.602024 
L 374.383102 67.179173 
L 376.067889 68.756321 
L 377.73587 70.33347 
L 379.362254 71.910619 
L 380.934847 73.487768 
L 382.455501 75.064917 
L 383.938212 76.642066 
L 385.403929 78.219215 
L 386.873112 79.796364 
L 388.357842 81.373513 
L 389.855598 82.950661 
L 391.346438 84.52781 
L 392.794455 86.104959 
L 394.153167 87.682108 
L 395.37352 89.259257 
L 396.412527 90.836406 
L 397.240633 92.413555 
L 397.846341 93.990704 
L 398.237418 95.567852 
L 398.438726 97.145001 
L 398.487273 98.72215 
L 398.42542 100.299299 
L 398.293405 101.876448 
L 398.122349 103.453597 
L 397.928941 105.030746 
L 397.712719 106.607895 
L 397.456498 108.185043 
L 397.129865 109.762192 
L 396.695136 111.339341 
L 396.114649 112.91649 
L 395.358109 114.493639 
L 394.408763 116.070788 
L 393.267428 117.647937 
L 391.953801 119.225086 
L 390.504834 120.802235 
L 388.970414 122.379383 
L 387.406943 123.956532 
L 385.869814 125.533681 
L 384.406023 127.11083 
L 383.048212 128.687979 
L 381.811238 130.265128 
L 380.691875 131.842277 
L 379.671621 133.419426 
L 378.721924 134.996574 
L 377.810625 136.573723 
L 376.908243 138.150872 
L 375.992828 139.728021 
L 375.052564 141.30517 
L 374.085923 142.882319 
L 373.099775 144.459468 
L 372.1063 146.036617 
L 371.119704 147.613765 
L 370.153572 149.190914 
L 369.219329 150.768063 
L 368.325824 152.345212 
L 367.479736 153.922361 
L 366.686297 155.49951 
L 365.949931 157.076659 
L 365.274545 158.653808 
L 364.663444 160.230957 
L 364.118983 161.808105 
L 363.642107 163.385254 
L 363.231964 164.962403 
L 362.88564 166.539552 
L 362.598123 168.116701 
L 362.362499 169.69385 
L 362.170409 171.270999 
L 362.012759 172.848148 
L 361.880592 174.425296 
L 361.765986 176.002445 
L 361.66279 177.579594 
L 361.567045 179.156743 
L 361.47699 180.733892 
L 361.392689 182.311041 
L 361.315394 183.88819 
L 361.246841 185.465339 
L 361.18865 187.042487 
L 361.141961 188.619636 
L 361.107328 190.196785 
L 361.084834 191.773934 
L 361.074308 193.351083 
L 361.075538 194.928232 
L 361.088362 196.505381 
L 361.112594 198.08253 
L 361.147774 199.659679 
L 361.192821 201.236827 
L 361.245683 202.813976 
L 361.303132 204.391125 
L 361.360798 205.968274 
L 361.413529 207.545423 
L 361.456024 209.122572 
L 361.483648 210.699721 
L 361.493227 212.27687 
z
" clip-path="url(#p70621e19d3)" style="fill: #1f77b4; fill-opacity: 0.3"/>
   </g>
   <g id="matplotlib.axis_1">
    <g id="xtick_1">
     <g id="line2d_1">
      <defs>
       <path id="m145ee9eaed" d="M 0 0 
L 0 3.5 
" style="stroke: #000000; stroke-width: 0.8"/>
      </defs>
      <g>
       <use xlink:href="#m145ee9eaed" x="69.668354" y="307.584" style="stroke: #000000; stroke-width: 0.8"/>
      </g>
     </g>
     <g id="text_1">
      <!-- 250 -->
      <g transform="translate(60.124604 322.182437)scale(0.1 -0.1)">
       <defs>
        <path id="DejaVuSans-32" d="M 1228 531 
L 3431 531 
L 3431 0 
L 469 0 
L 469 531 
Q 828 903 1448 1529 
Q 2069 2156 2228 2338 
Q 2531 2678 2651 2914 
Q 2772 3150 2772 3378 
Q 2772 3750 2511 3984 
Q 2250 4219 1831 4219 
Q 1534 4219 1204 4116 
Q 875 4013 500 3803 
L 500 4441 
Q 881 4594 1212 4672 
Q 1544 4750 1819 4750 
Q 2544 4750 2975 4387 
Q 3406 4025 3406 3419 
Q 3406 3131 3298 2873 
Q 3191 2616 2906 2266 
Q 2828 2175 2409 1742 
Q 1991 1309 1228 531 
z
" transform="scale(0.015625)"/>
        <path id="DejaVuSans-35" d="M 691 4666 
L 3169 4666 
L 3169 4134 
L 1269 4134 
L 1269 2991 
Q 1406 3038 1543 3061 
Q 1681 3084 1819 3084 
Q 2600 3084 3056 2656 
Q 3513 2228 3513 1497 
Q 3513 744 3044 326 
Q 2575 -91 1722 -91 
Q 1428 -91 1123 -41 
Q 819 9 494 109 
L 494 744 
Q 775 591 1075 516 
Q 1375 441 1709 441 
Q 2250 441 2565 725 
Q 2881 1009 2881 1497 
Q 2881 1984 2565 2268 
Q 2250 2553 1709 2553 
Q 1456 2553 1204 2497 
Q 953 2441 691 2322 
L 691 4666 
z
" transform="scale(0.015625)"/>
        <path id="DejaVuSans-30" d="M 2034 4250 
Q 1547 4250 1301 3770 
Q 1056 3291 1056 2328 
Q 1056 1369 1301 889 
Q 1547 409 2034 409 
Q 2525 409 2770 889 
Q 3016 1369 3016 2328 
Q 3016 3291 2770 3770 
Q 2525 4250 2034 4250 
z
M 2034 4750 
Q 2819 4750 3233 4129 
Q 3647 3509 3647 2328 
Q 3647 1150 3233 529 
Q 2819 -91 2034 -91 
Q 1250 -91 836 529 
Q 422 1150 422 2328 
Q 422 3509 836 4129 
Q 1250 4750 2034 4750 
z
" transform="scale(0.015625)"/>
       </defs>
       <use xlink:href="#DejaVuSans-32"/>
       <use xlink:href="#DejaVuSans-35" x="63.623047"/>
       <use xlink:href="#DejaVuSans-30" x="127.246094"/>
      </g>
     </g>
    </g>
    <g id="xtick_2">
     <g id="line2d_2">
      <g>
       <use xlink:href="#m145ee9eaed" x="111.312087" y="307.584" style="stroke: #000000; stroke-width: 0.8"/>
      </g>
     </g>
     <g id="text_2">
      <!-- 500 -->
      <g transform="translate(101.768337 322.182437)scale(0.1 -0.1)">
       <use xlink:href="#DejaVuSans-35"/>
       <use xlink:href="#DejaVuSans-30" x="63.623047"/>
       <use xlink:href="#DejaVuSans-30" x="127.246094"/>
      </g>
     </g>
    </g>
    <g id="xtick_3">
     <g id="line2d_3">
      <g>
       <use xlink:href="#m145ee9eaed" x="152.955821" y="307.584" style="stroke: #000000; stroke-width: 0.8"/>
      </g>
     </g>
     <g id="text_3">
      <!-- 750 -->
      <g transform="translate(143.412071 322.182437)scale(0.1 -0.1)">
       <defs>
        <path id="DejaVuSans-37" d="M 525 4666 
L 3525 4666 
L 3525 4397 
L 1831 0 
L 1172 0 
L 2766 4134 
L 525 4134 
L 525 4666 
z
" transform="scale(0.015625)"/>
       </defs>
       <use xlink:href="#DejaVuSans-37"/>
       <use xlink:href="#DejaVuSans-35" x="63.623047"/>
       <use xlink:href="#DejaVuSans-30" x="127.246094"/>
      </g>
     </g>
    </g>
    <g id="xtick_4">
     <g id="line2d_4">
      <g>
       <use xlink:href="#m145ee9eaed" x="194.599554" y="307.584" style="stroke: #000000; stroke-width: 0.8"/>
      </g>
     </g>
     <g id="text_4">
      <!-- 1000 -->
      <g transform="translate(181.874554 322.182437)scale(0.1 -0.1)">
       <defs>
        <path id="DejaVuSans-31" d="M 794 531 
L 1825 531 
L 1825 4091 
L 703 3866 
L 703 4441 
L 1819 4666 
L 2450 4666 
L 2450 531 
L 3481 531 
L 3481 0 
L 794 0 
L 794 531 
z
" transform="scale(0.015625)"/>
       </defs>
       <use xlink:href="#DejaVuSans-31"/>
       <use xlink:href="#DejaVuSans-30" x="63.623047"/>
       <use xlink:href="#DejaVuSans-30" x="127.246094"/>
       <use xlink:href="#DejaVuSans-30" x="190.869141"/>
      </g>
     </g>
    </g>
    <g id="xtick_5">
     <g id="line2d_5">
      <g>
       <use xlink:href="#m145ee9eaed" x="236.243287" y="307.584" style="stroke: #000000; stroke-width: 0.8"/>
      </g>
     </g>
     <g id="text_5">
      <!-- 1250 -->
      <g transform="translate(223.518287 322.182437)scale(0.1 -0.1)">
       <use xlink:href="#DejaVuSans-31"/>
       <use xlink:href="#DejaVuSans-32" x="63.623047"/>
       <use xlink:href="#DejaVuSans-35" x="127.246094"/>
       <use xlink:href="#DejaVuSans-30" x="190.869141"/>
      </g>
     </g>
    </g>
    <g id="xtick_6">
     <g id="line2d_6">
      <g>
       <use xlink:href="#m145ee9eaed" x="277.887021" y="307.584" style="stroke: #000000; stroke-width: 0.8"/>
      </g>
     </g>
     <g id="text_6">
      <!-- 1500 -->
      <g transform="translate(265.162021 322.182437)scale(0.1 -0.1)">
       <use xlink:href="#DejaVuSans-31"/>
       <use xlink:href="#DejaVuSans-35" x="63.623047"/>
       <use xlink:href="#DejaVuSans-30" x="127.246094"/>
       <use xlink:href="#DejaVuSans-30" x="190.869141"/>
      </g>
     </g>
    </g>
    <g id="xtick_7">
     <g id="line2d_7">
      <g>
       <use xlink:href="#m145ee9eaed" x="319.530754" y="307.584" style="stroke: #000000; stroke-width: 0.8"/>
      </g>
     </g>
     <g id="text_7">
      <!-- 1750 -->
      <g transform="translate(306.805754 322.182437)scale(0.1 -0.1)">
       <use xlink:href="#DejaVuSans-31"/>
       <use xlink:href="#DejaVuSans-37" x="63.623047"/>
       <use xlink:href="#DejaVuSans-35" x="127.246094"/>
       <use xlink:href="#DejaVuSans-30" x="190.869141"/>
      </g>
     </g>
    </g>
    <g id="xtick_8">
     <g id="line2d_8">
      <g>
       <use xlink:href="#m145ee9eaed" x="361.174488" y="307.584" style="stroke: #000000; stroke-width: 0.8"/>
      </g>
     </g>
     <g id="text_8">
      <!-- 2000 -->
      <g transform="translate(348.449488 322.182437)scale(0.1 -0.1)">
       <use xlink:href="#DejaVuSans-32"/>
       <use xlink:href="#DejaVuSans-30" x="63.623047"/>
       <use xlink:href="#DejaVuSans-30" x="127.246094"/>
       <use xlink:href="#DejaVuSans-30" x="190.869141"/>
      </g>
     </g>
    </g>
    <g id="xtick_9">
     <g id="line2d_9">
      <g>
       <use xlink:href="#m145ee9eaed" x="402.818221" y="307.584" style="stroke: #000000; stroke-width: 0.8"/>
      </g>
     </g>
     <g id="text_9">
      <!-- 2250 -->
      <g transform="translate(390.093221 322.182437)scale(0.1 -0.1)">
       <use xlink:href="#DejaVuSans-32"/>
       <use xlink:href="#DejaVuSans-32" x="63.623047"/>
       <use xlink:href="#DejaVuSans-35" x="127.246094"/>
       <use xlink:href="#DejaVuSans-30" x="190.869141"/>
      </g>
     </g>
    </g>
    <g id="text_10">
     <!-- Learned Episodes -->
     <g transform="translate(192.102187 335.860562)scale(0.1 -0.1)">
      <defs>
       <path id="DejaVuSans-4c" d="M 628 4666 
L 1259 4666 
L 1259 531 
L 3531 531 
L 3531 0 
L 628 0 
L 628 4666 
z
" transform="scale(0.015625)"/>
       <path id="DejaVuSans-65" d="M 3597 1894 
L 3597 1613 
L 953 1613 
Q 991 1019 1311 708 
Q 1631 397 2203 397 
Q 2534 397 2845 478 
Q 3156 559 3463 722 
L 3463 178 
Q 3153 47 2828 -22 
Q 2503 -91 2169 -91 
Q 1331 -91 842 396 
Q 353 884 353 1716 
Q 353 2575 817 3079 
Q 1281 3584 2069 3584 
Q 2775 3584 3186 3129 
Q 3597 2675 3597 1894 
z
M 3022 2063 
Q 3016 2534 2758 2815 
Q 2500 3097 2075 3097 
Q 1594 3097 1305 2825 
Q 1016 2553 972 2059 
L 3022 2063 
z
" transform="scale(0.015625)"/>
       <path id="DejaVuSans-61" d="M 2194 1759 
Q 1497 1759 1228 1600 
Q 959 1441 959 1056 
Q 959 750 1161 570 
Q 1363 391 1709 391 
Q 2188 391 2477 730 
Q 2766 1069 2766 1631 
L 2766 1759 
L 2194 1759 
z
M 3341 1997 
L 3341 0 
L 2766 0 
L 2766 531 
Q 2569 213 2275 61 
Q 1981 -91 1556 -91 
Q 1019 -91 701 211 
Q 384 513 384 1019 
Q 384 1609 779 1909 
Q 1175 2209 1959 2209 
L 2766 2209 
L 2766 2266 
Q 2766 2663 2505 2880 
Q 2244 3097 1772 3097 
Q 1472 3097 1187 3025 
Q 903 2953 641 2809 
L 641 3341 
Q 956 3463 1253 3523 
Q 1550 3584 1831 3584 
Q 2591 3584 2966 3190 
Q 3341 2797 3341 1997 
z
" transform="scale(0.015625)"/>
       <path id="DejaVuSans-72" d="M 2631 2963 
Q 2534 3019 2420 3045 
Q 2306 3072 2169 3072 
Q 1681 3072 1420 2755 
Q 1159 2438 1159 1844 
L 1159 0 
L 581 0 
L 581 3500 
L 1159 3500 
L 1159 2956 
Q 1341 3275 1631 3429 
Q 1922 3584 2338 3584 
Q 2397 3584 2469 3576 
Q 2541 3569 2628 3553 
L 2631 2963 
z
" transform="scale(0.015625)"/>
       <path id="DejaVuSans-6e" d="M 3513 2113 
L 3513 0 
L 2938 0 
L 2938 2094 
Q 2938 2591 2744 2837 
Q 2550 3084 2163 3084 
Q 1697 3084 1428 2787 
Q 1159 2491 1159 1978 
L 1159 0 
L 581 0 
L 581 3500 
L 1159 3500 
L 1159 2956 
Q 1366 3272 1645 3428 
Q 1925 3584 2291 3584 
Q 2894 3584 3203 3211 
Q 3513 2838 3513 2113 
z
" transform="scale(0.015625)"/>
       <path id="DejaVuSans-64" d="M 2906 2969 
L 2906 4863 
L 3481 4863 
L 3481 0 
L 2906 0 
L 2906 525 
Q 2725 213 2448 61 
Q 2172 -91 1784 -91 
Q 1150 -91 751 415 
Q 353 922 353 1747 
Q 353 2572 751 3078 
Q 1150 3584 1784 3584 
Q 2172 3584 2448 3432 
Q 2725 3281 2906 2969 
z
M 947 1747 
Q 947 1113 1208 752 
Q 1469 391 1925 391 
Q 2381 391 2643 752 
Q 2906 1113 2906 1747 
Q 2906 2381 2643 2742 
Q 2381 3103 1925 3103 
Q 1469 3103 1208 2742 
Q 947 2381 947 1747 
z
" transform="scale(0.015625)"/>
       <path id="DejaVuSans-20" transform="scale(0.015625)"/>
       <path id="DejaVuSans-45" d="M 628 4666 
L 3578 4666 
L 3578 4134 
L 1259 4134 
L 1259 2753 
L 3481 2753 
L 3481 2222 
L 1259 2222 
L 1259 531 
L 3634 531 
L 3634 0 
L 628 0 
L 628 4666 
z
" transform="scale(0.015625)"/>
       <path id="DejaVuSans-70" d="M 1159 525 
L 1159 -1331 
L 581 -1331 
L 581 3500 
L 1159 3500 
L 1159 2969 
Q 1341 3281 1617 3432 
Q 1894 3584 2278 3584 
Q 2916 3584 3314 3078 
Q 3713 2572 3713 1747 
Q 3713 922 3314 415 
Q 2916 -91 2278 -91 
Q 1894 -91 1617 61 
Q 1341 213 1159 525 
z
M 3116 1747 
Q 3116 2381 2855 2742 
Q 2594 3103 2138 3103 
Q 1681 3103 1420 2742 
Q 1159 2381 1159 1747 
Q 1159 1113 1420 752 
Q 1681 391 2138 391 
Q 2594 391 2855 752 
Q 3116 1113 3116 1747 
z
" transform="scale(0.015625)"/>
       <path id="DejaVuSans-69" d="M 603 3500 
L 1178 3500 
L 1178 0 
L 603 0 
L 603 3500 
z
M 603 4863 
L 1178 4863 
L 1178 4134 
L 603 4134 
L 603 4863 
z
" transform="scale(0.015625)"/>
       <path id="DejaVuSans-73" d="M 2834 3397 
L 2834 2853 
Q 2591 2978 2328 3040 
Q 2066 3103 1784 3103 
Q 1356 3103 1142 2972 
Q 928 2841 928 2578 
Q 928 2378 1081 2264 
Q 1234 2150 1697 2047 
L 1894 2003 
Q 2506 1872 2764 1633 
Q 3022 1394 3022 966 
Q 3022 478 2636 193 
Q 2250 -91 1575 -91 
Q 1294 -91 989 -36 
Q 684 19 347 128 
L 347 722 
Q 666 556 975 473 
Q 1284 391 1588 391 
Q 1994 391 2212 530 
Q 2431 669 2431 922 
Q 2431 1156 2273 1281 
Q 2116 1406 1581 1522 
L 1381 1569 
Q 847 1681 609 1914 
Q 372 2147 372 2553 
Q 372 3047 722 3315 
Q 1072 3584 1716 3584 
Q 2034 3584 2315 3537 
Q 2597 3491 2834 3397 
z
" transform="scale(0.015625)"/>
       <path id="DejaVuSans-6f" d="M 1959 3097 
Q 1497 3097 1228 2736 
Q 959 2375 959 1747 
Q 959 1119 1226 758 
Q 1494 397 1959 397 
Q 2419 397 2687 759 
Q 2956 1122 2956 1747 
Q 2956 2369 2687 2733 
Q 2419 3097 1959 3097 
z
M 1959 3584 
Q 2709 3584 3137 3096 
Q 3566 2609 3566 1747 
Q 3566 888 3137 398 
Q 2709 -91 1959 -91 
Q 1206 -91 779 398 
Q 353 888 353 1747 
Q 353 2609 779 3096 
Q 1206 3584 1959 3584 
z
" transform="scale(0.015625)"/>
      </defs>
      <use xlink:href="#DejaVuSans-4c"/>
      <use xlink:href="#DejaVuSans-65" x="53.962891"/>
      <use xlink:href="#DejaVuSans-61" x="115.486328"/>
      <use xlink:href="#DejaVuSans-72" x="176.765625"/>
      <use xlink:href="#DejaVuSans-6e" x="216.128906"/>
      <use xlink:href="#DejaVuSans-65" x="279.507812"/>
      <use xlink:href="#DejaVuSans-64" x="341.03125"/>
      <use xlink:href="#DejaVuSans-20" x="404.507812"/>
      <use xlink:href="#DejaVuSans-45" x="436.294922"/>
      <use xlink:href="#DejaVuSans-70" x="499.478516"/>
      <use xlink:href="#DejaVuSans-69" x="562.955078"/>
      <use xlink:href="#DejaVuSans-73" x="590.738281"/>
      <use xlink:href="#DejaVuSans-6f" x="642.837891"/>
      <use xlink:href="#DejaVuSans-64" x="704.019531"/>
      <use xlink:href="#DejaVuSans-65" x="767.496094"/>
      <use xlink:href="#DejaVuSans-73" x="829.019531"/>
     </g>
    </g>
   </g>
   <g id="matplotlib.axis_2">
    <g id="ytick_1">
     <g id="line2d_10">
      <defs>
       <path id="m4f1ed26b0b" d="M 0 0 
L -3.5 0 
" style="stroke: #000000; stroke-width: 0.8"/>
      </defs>
      <g>
       <use xlink:href="#m4f1ed26b0b" x="57.6" y="298.994087" style="stroke: #000000; stroke-width: 0.8"/>
      </g>
     </g>
     <g id="text_11">
      <!-- −400 -->
      <g transform="translate(23.132812 302.793306)scale(0.1 -0.1)">
       <defs>
        <path id="DejaVuSans-2212" d="M 678 2272 
L 4684 2272 
L 4684 1741 
L 678 1741 
L 678 2272 
z
" transform="scale(0.015625)"/>
        <path id="DejaVuSans-34" d="M 2419 4116 
L 825 1625 
L 2419 1625 
L 2419 4116 
z
M 2253 4666 
L 3047 4666 
L 3047 1625 
L 3713 1625 
L 3713 1100 
L 3047 1100 
L 3047 0 
L 2419 0 
L 2419 1100 
L 313 1100 
L 313 1709 
L 2253 4666 
z
" transform="scale(0.015625)"/>
       </defs>
       <use xlink:href="#DejaVuSans-2212"/>
       <use xlink:href="#DejaVuSans-34" x="83.789062"/>
       <use xlink:href="#DejaVuSans-30" x="147.412109"/>
       <use xlink:href="#DejaVuSans-30" x="211.035156"/>
      </g>
     </g>
    </g>
    <g id="ytick_2">
     <g id="line2d_11">
      <g>
       <use xlink:href="#m4f1ed26b0b" x="57.6" y="252.246261" style="stroke: #000000; stroke-width: 0.8"/>
      </g>
     </g>
     <g id="text_12">
      <!-- −200 -->
      <g transform="translate(23.132812 256.04548)scale(0.1 -0.1)">
       <use xlink:href="#DejaVuSans-2212"/>
       <use xlink:href="#DejaVuSans-32" x="83.789062"/>
       <use xlink:href="#DejaVuSans-30" x="147.412109"/>
       <use xlink:href="#DejaVuSans-30" x="211.035156"/>
      </g>
     </g>
    </g>
    <g id="ytick_3">
     <g id="line2d_12">
      <g>
       <use xlink:href="#m4f1ed26b0b" x="57.6" y="205.498435" style="stroke: #000000; stroke-width: 0.8"/>
      </g>
     </g>
     <g id="text_13">
      <!-- 0 -->
      <g transform="translate(44.2375 209.297654)scale(0.1 -0.1)">
       <use xlink:href="#DejaVuSans-30"/>
      </g>
     </g>
    </g>
    <g id="ytick_4">
     <g id="line2d_13">
      <g>
       <use xlink:href="#m4f1ed26b0b" x="57.6" y="158.750609" style="stroke: #000000; stroke-width: 0.8"/>
      </g>
     </g>
     <g id="text_14">
      <!-- 200 -->
      <g transform="translate(31.5125 162.549827)scale(0.1 -0.1)">
       <use xlink:href="#DejaVuSans-32"/>
       <use xlink:href="#DejaVuSans-30" x="63.623047"/>
       <use xlink:href="#DejaVuSans-30" x="127.246094"/>
      </g>
     </g>
    </g>
    <g id="ytick_5">
     <g id="line2d_14">
      <g>
       <use xlink:href="#m4f1ed26b0b" x="57.6" y="112.002783" style="stroke: #000000; stroke-width: 0.8"/>
      </g>
     </g>
     <g id="text_15">
      <!-- 400 -->
      <g transform="translate(31.5125 115.802001)scale(0.1 -0.1)">
       <use xlink:href="#DejaVuSans-34"/>
       <use xlink:href="#DejaVuSans-30" x="63.623047"/>
       <use xlink:href="#DejaVuSans-30" x="127.246094"/>
      </g>
     </g>
    </g>
    <g id="ytick_6">
     <g id="line2d_15">
      <g>
       <use xlink:href="#m4f1ed26b0b" x="57.6" y="65.254957" style="stroke: #000000; stroke-width: 0.8"/>
      </g>
     </g>
     <g id="text_16">
      <!-- 600 -->
      <g transform="translate(31.5125 69.054175)scale(0.1 -0.1)">
       <defs>
        <path id="DejaVuSans-36" d="M 2113 2584 
Q 1688 2584 1439 2293 
Q 1191 2003 1191 1497 
Q 1191 994 1439 701 
Q 1688 409 2113 409 
Q 2538 409 2786 701 
Q 3034 994 3034 1497 
Q 3034 2003 2786 2293 
Q 2538 2584 2113 2584 
z
M 3366 4563 
L 3366 3988 
Q 3128 4100 2886 4159 
Q 2644 4219 2406 4219 
Q 1781 4219 1451 3797 
Q 1122 3375 1075 2522 
Q 1259 2794 1537 2939 
Q 1816 3084 2150 3084 
Q 2853 3084 3261 2657 
Q 3669 2231 3669 1497 
Q 3669 778 3244 343 
Q 2819 -91 2113 -91 
Q 1303 -91 875 529 
Q 447 1150 447 2328 
Q 447 3434 972 4092 
Q 1497 4750 2381 4750 
Q 2619 4750 2861 4703 
Q 3103 4656 3366 4563 
z
" transform="scale(0.015625)"/>
       </defs>
       <use xlink:href="#DejaVuSans-36"/>
       <use xlink:href="#DejaVuSans-30" x="63.623047"/>
       <use xlink:href="#DejaVuSans-30" x="127.246094"/>
      </g>
     </g>
    </g>
    <g id="text_17">
     <!-- Reward Density -->
     <g transform="translate(17.053125 213.74675)rotate(-90)scale(0.1 -0.1)">
      <defs>
       <path id="DejaVuSans-52" d="M 2841 2188 
Q 3044 2119 3236 1894 
Q 3428 1669 3622 1275 
L 4263 0 
L 3584 0 
L 2988 1197 
Q 2756 1666 2539 1819 
Q 2322 1972 1947 1972 
L 1259 1972 
L 1259 0 
L 628 0 
L 628 4666 
L 2053 4666 
Q 2853 4666 3247 4331 
Q 3641 3997 3641 3322 
Q 3641 2881 3436 2590 
Q 3231 2300 2841 2188 
z
M 1259 4147 
L 1259 2491 
L 2053 2491 
Q 2509 2491 2742 2702 
Q 2975 2913 2975 3322 
Q 2975 3731 2742 3939 
Q 2509 4147 2053 4147 
L 1259 4147 
z
" transform="scale(0.015625)"/>
       <path id="DejaVuSans-77" d="M 269 3500 
L 844 3500 
L 1563 769 
L 2278 3500 
L 2956 3500 
L 3675 769 
L 4391 3500 
L 4966 3500 
L 4050 0 
L 3372 0 
L 2619 2869 
L 1863 0 
L 1184 0 
L 269 3500 
z
" transform="scale(0.015625)"/>
       <path id="DejaVuSans-44" d="M 1259 4147 
L 1259 519 
L 2022 519 
Q 2988 519 3436 956 
Q 3884 1394 3884 2338 
Q 3884 3275 3436 3711 
Q 2988 4147 2022 4147 
L 1259 4147 
z
M 628 4666 
L 1925 4666 
Q 3281 4666 3915 4102 
Q 4550 3538 4550 2338 
Q 4550 1131 3912 565 
Q 3275 0 1925 0 
L 628 0 
L 628 4666 
z
" transform="scale(0.015625)"/>
       <path id="DejaVuSans-74" d="M 1172 4494 
L 1172 3500 
L 2356 3500 
L 2356 3053 
L 1172 3053 
L 1172 1153 
Q 1172 725 1289 603 
Q 1406 481 1766 481 
L 2356 481 
L 2356 0 
L 1766 0 
Q 1100 0 847 248 
Q 594 497 594 1153 
L 594 3053 
L 172 3053 
L 172 3500 
L 594 3500 
L 594 4494 
L 1172 4494 
z
" transform="scale(0.015625)"/>
       <path id="DejaVuSans-79" d="M 2059 -325 
Q 1816 -950 1584 -1140 
Q 1353 -1331 966 -1331 
L 506 -1331 
L 506 -850 
L 844 -850 
Q 1081 -850 1212 -737 
Q 1344 -625 1503 -206 
L 1606 56 
L 191 3500 
L 800 3500 
L 1894 763 
L 2988 3500 
L 3597 3500 
L 2059 -325 
z
" transform="scale(0.015625)"/>
      </defs>
      <use xlink:href="#DejaVuSans-52"/>
      <use xlink:href="#DejaVuSans-65" x="64.982422"/>
      <use xlink:href="#DejaVuSans-77" x="126.505859"/>
      <use xlink:href="#DejaVuSans-61" x="208.292969"/>
      <use xlink:href="#DejaVuSans-72" x="269.572266"/>
      <use xlink:href="#DejaVuSans-64" x="308.935547"/>
      <use xlink:href="#DejaVuSans-20" x="372.412109"/>
      <use xlink:href="#DejaVuSans-44" x="404.199219"/>
      <use xlink:href="#DejaVuSans-65" x="481.201172"/>
      <use xlink:href="#DejaVuSans-6e" x="542.724609"/>
      <use xlink:href="#DejaVuSans-73" x="606.103516"/>
      <use xlink:href="#DejaVuSans-69" x="658.203125"/>
      <use xlink:href="#DejaVuSans-74" x="685.986328"/>
      <use xlink:href="#DejaVuSans-79" x="725.195312"/>
     </g>
    </g>
   </g>
   <g id="LineCollection_1">
    <path d="M 92.572407 149.188808 
L 130.051767 149.188808 
" clip-path="url(#p70621e19d3)" style="fill: none; stroke: #1f77b4; stroke-width: 1.5"/>
    <path d="M 175.859874 125.034207 
L 213.339234 125.034207 
" clip-path="url(#p70621e19d3)" style="fill: none; stroke: #1f77b4; stroke-width: 1.5"/>
    <path d="M 259.147341 114.387857 
L 296.626701 114.387857 
" clip-path="url(#p70621e19d3)" style="fill: none; stroke: #1f77b4; stroke-width: 1.5"/>
    <path d="M 342.268233 105.854509 
L 379.747593 105.854509 
" clip-path="url(#p70621e19d3)" style="fill: none; stroke: #1f77b4; stroke-width: 1.5"/>
   </g>
   <g id="LineCollection_2">
    <path d="M 92.572407 62.917565 
L 130.051767 62.917565 
" clip-path="url(#p70621e19d3)" style="fill: none; stroke: #1f77b4; stroke-width: 1.5"/>
    <path d="M 175.859874 53.568 
L 213.339234 53.568 
" clip-path="url(#p70621e19d3)" style="fill: none; stroke: #1f77b4; stroke-width: 1.5"/>
    <path d="M 259.147341 69.228522 
L 296.626701 69.228522 
" clip-path="url(#p70621e19d3)" style="fill: none; stroke: #1f77b4; stroke-width: 1.5"/>
    <path d="M 342.268233 56.13913 
L 379.747593 56.13913 
" clip-path="url(#p70621e19d3)" style="fill: none; stroke: #1f77b4; stroke-width: 1.5"/>
   </g>
   <g id="LineCollection_3">
    <path d="M 92.572407 295.488 
L 130.051767 295.488 
" clip-path="url(#p70621e19d3)" style="fill: none; stroke: #1f77b4; stroke-width: 1.5"/>
    <path d="M 175.859874 259.725913 
L 213.339234 259.725913 
" clip-path="url(#p70621e19d3)" style="fill: none; stroke: #1f77b4; stroke-width: 1.5"/>
    <path d="M 259.147341 213.211826 
L 296.626701 213.211826 
" clip-path="url(#p70621e19d3)" style="fill: none; stroke: #1f77b4; stroke-width: 1.5"/>
    <path d="M 342.268233 212.27687 
L 379.747593 212.27687 
" clip-path="url(#p70621e19d3)" style="fill: none; stroke: #1f77b4; stroke-width: 1.5"/>
   </g>
   <g id="LineCollection_4">
    <path d="M 111.312087 295.488 
L 111.312087 62.917565 
" clip-path="url(#p70621e19d3)" style="fill: none; stroke: #1f77b4; stroke-width: 1.5"/>
    <path d="M 194.599554 259.725913 
L 194.599554 53.568 
" clip-path="url(#p70621e19d3)" style="fill: none; stroke: #1f77b4; stroke-width: 1.5"/>
    <path d="M 277.887021 213.211826 
L 277.887021 69.228522 
" clip-path="url(#p70621e19d3)" style="fill: none; stroke: #1f77b4; stroke-width: 1.5"/>
    <path d="M 361.007913 212.27687 
L 361.007913 56.13913 
" clip-path="url(#p70621e19d3)" style="fill: none; stroke: #1f77b4; stroke-width: 1.5"/>
   </g>
   <g id="line2d_16">
    <path d="M 111.312087 149.188808 
L 194.599554 125.034207 
L 277.887021 114.387857 
L 361.007913 105.854509 
" clip-path="url(#p70621e19d3)" style="fill: none; stroke: #4682b4; stroke-width: 1.5; stroke-linecap: square"/>
   </g>
   <g id="patch_3">
    <path d="M 57.6 307.584 
L 57.6 41.472 
" style="fill: none; stroke: #000000; stroke-width: 0.8; stroke-linejoin: miter; stroke-linecap: square"/>
   </g>
   <g id="patch_4">
    <path d="M 414.72 307.584 
L 414.72 41.472 
" style="fill: none; stroke: #000000; stroke-width: 0.8; stroke-linejoin: miter; stroke-linecap: square"/>
   </g>
   <g id="patch_5">
    <path d="M 57.6 307.584 
L 414.72 307.584 
" style="fill: none; stroke: #000000; stroke-width: 0.8; stroke-linejoin: miter; stroke-linecap: square"/>
   </g>
   <g id="patch_6">
    <path d="M 57.6 41.472 
L 414.72 41.472 
" style="fill: none; stroke: #000000; stroke-width: 0.8; stroke-linejoin: miter; stroke-linecap: square"/>
   </g>
   <g id="text_18">
    <!-- Violinplot for progress of profits/by_selling_refurbished -->
    <g transform="translate(72.470625 35.472)scale(0.12 -0.12)">
     <defs>
      <path id="DejaVuSans-56" d="M 1831 0 
L 50 4666 
L 709 4666 
L 2188 738 
L 3669 4666 
L 4325 4666 
L 2547 0 
L 1831 0 
z
" transform="scale(0.015625)"/>
      <path id="DejaVuSans-6c" d="M 603 4863 
L 1178 4863 
L 1178 0 
L 603 0 
L 603 4863 
z
" transform="scale(0.015625)"/>
      <path id="DejaVuSans-66" d="M 2375 4863 
L 2375 4384 
L 1825 4384 
Q 1516 4384 1395 4259 
Q 1275 4134 1275 3809 
L 1275 3500 
L 2222 3500 
L 2222 3053 
L 1275 3053 
L 1275 0 
L 697 0 
L 697 3053 
L 147 3053 
L 147 3500 
L 697 3500 
L 697 3744 
Q 697 4328 969 4595 
Q 1241 4863 1831 4863 
L 2375 4863 
z
" transform="scale(0.015625)"/>
      <path id="DejaVuSans-67" d="M 2906 1791 
Q 2906 2416 2648 2759 
Q 2391 3103 1925 3103 
Q 1463 3103 1205 2759 
Q 947 2416 947 1791 
Q 947 1169 1205 825 
Q 1463 481 1925 481 
Q 2391 481 2648 825 
Q 2906 1169 2906 1791 
z
M 3481 434 
Q 3481 -459 3084 -895 
Q 2688 -1331 1869 -1331 
Q 1566 -1331 1297 -1286 
Q 1028 -1241 775 -1147 
L 775 -588 
Q 1028 -725 1275 -790 
Q 1522 -856 1778 -856 
Q 2344 -856 2625 -561 
Q 2906 -266 2906 331 
L 2906 616 
Q 2728 306 2450 153 
Q 2172 0 1784 0 
Q 1141 0 747 490 
Q 353 981 353 1791 
Q 353 2603 747 3093 
Q 1141 3584 1784 3584 
Q 2172 3584 2450 3431 
Q 2728 3278 2906 2969 
L 2906 3500 
L 3481 3500 
L 3481 434 
z
" transform="scale(0.015625)"/>
      <path id="DejaVuSans-2f" d="M 1625 4666 
L 2156 4666 
L 531 -594 
L 0 -594 
L 1625 4666 
z
" transform="scale(0.015625)"/>
      <path id="DejaVuSans-62" d="M 3116 1747 
Q 3116 2381 2855 2742 
Q 2594 3103 2138 3103 
Q 1681 3103 1420 2742 
Q 1159 2381 1159 1747 
Q 1159 1113 1420 752 
Q 1681 391 2138 391 
Q 2594 391 2855 752 
Q 3116 1113 3116 1747 
z
M 1159 2969 
Q 1341 3281 1617 3432 
Q 1894 3584 2278 3584 
Q 2916 3584 3314 3078 
Q 3713 2572 3713 1747 
Q 3713 922 3314 415 
Q 2916 -91 2278 -91 
Q 1894 -91 1617 61 
Q 1341 213 1159 525 
L 1159 0 
L 581 0 
L 581 4863 
L 1159 4863 
L 1159 2969 
z
" transform="scale(0.015625)"/>
      <path id="DejaVuSans-5f" d="M 3263 -1063 
L 3263 -1509 
L -63 -1509 
L -63 -1063 
L 3263 -1063 
z
" transform="scale(0.015625)"/>
      <path id="DejaVuSans-75" d="M 544 1381 
L 544 3500 
L 1119 3500 
L 1119 1403 
Q 1119 906 1312 657 
Q 1506 409 1894 409 
Q 2359 409 2629 706 
Q 2900 1003 2900 1516 
L 2900 3500 
L 3475 3500 
L 3475 0 
L 2900 0 
L 2900 538 
Q 2691 219 2414 64 
Q 2138 -91 1772 -91 
Q 1169 -91 856 284 
Q 544 659 544 1381 
z
M 1991 3584 
L 1991 3584 
z
" transform="scale(0.015625)"/>
      <path id="DejaVuSans-68" d="M 3513 2113 
L 3513 0 
L 2938 0 
L 2938 2094 
Q 2938 2591 2744 2837 
Q 2550 3084 2163 3084 
Q 1697 3084 1428 2787 
Q 1159 2491 1159 1978 
L 1159 0 
L 581 0 
L 581 4863 
L 1159 4863 
L 1159 2956 
Q 1366 3272 1645 3428 
Q 1925 3584 2291 3584 
Q 2894 3584 3203 3211 
Q 3513 2838 3513 2113 
z
" transform="scale(0.015625)"/>
     </defs>
     <use xlink:href="#DejaVuSans-56"/>
     <use xlink:href="#DejaVuSans-69" x="66.158203"/>
     <use xlink:href="#DejaVuSans-6f" x="93.941406"/>
     <use xlink:href="#DejaVuSans-6c" x="155.123047"/>
     <use xlink:href="#DejaVuSans-69" x="182.90625"/>
     <use xlink:href="#DejaVuSans-6e" x="210.689453"/>
     <use xlink:href="#DejaVuSans-70" x="274.068359"/>
     <use xlink:href="#DejaVuSans-6c" x="337.544922"/>
     <use xlink:href="#DejaVuSans-6f" x="365.328125"/>
     <use xlink:href="#DejaVuSans-74" x="426.509766"/>
     <use xlink:href="#DejaVuSans-20" x="465.71875"/>
     <use xlink:href="#DejaVuSans-66" x="497.505859"/>
     <use xlink:href="#DejaVuSans-6f" x="532.710938"/>
     <use xlink:href="#DejaVuSans-72" x="593.892578"/>
     <use xlink:href="#DejaVuSans-20" x="635.005859"/>
     <use xlink:href="#DejaVuSans-70" x="666.792969"/>
     <use xlink:href="#DejaVuSans-72" x="730.269531"/>
     <use xlink:href="#DejaVuSans-6f" x="769.132812"/>
     <use xlink:href="#DejaVuSans-67" x="830.314453"/>
     <use xlink:href="#DejaVuSans-72" x="893.791016"/>
     <use xlink:href="#DejaVuSans-65" x="932.654297"/>
     <use xlink:href="#DejaVuSans-73" x="994.177734"/>
     <use xlink:href="#DejaVuSans-73" x="1046.277344"/>
     <use xlink:href="#DejaVuSans-20" x="1098.376953"/>
     <use xlink:href="#DejaVuSans-6f" x="1130.164062"/>
     <use xlink:href="#DejaVuSans-66" x="1191.345703"/>
     <use xlink:href="#DejaVuSans-20" x="1226.550781"/>
     <use xlink:href="#DejaVuSans-70" x="1258.337891"/>
     <use xlink:href="#DejaVuSans-72" x="1321.814453"/>
     <use xlink:href="#DejaVuSans-6f" x="1360.677734"/>
     <use xlink:href="#DejaVuSans-66" x="1421.859375"/>
     <use xlink:href="#DejaVuSans-69" x="1457.064453"/>
     <use xlink:href="#DejaVuSans-74" x="1484.847656"/>
     <use xlink:href="#DejaVuSans-73" x="1524.056641"/>
     <use xlink:href="#DejaVuSans-2f" x="1576.15625"/>
     <use xlink:href="#DejaVuSans-62" x="1609.847656"/>
     <use xlink:href="#DejaVuSans-79" x="1673.324219"/>
     <use xlink:href="#DejaVuSans-5f" x="1732.503906"/>
     <use xlink:href="#DejaVuSans-73" x="1782.503906"/>
     <use xlink:href="#DejaVuSans-65" x="1834.603516"/>
     <use xlink:href="#DejaVuSans-6c" x="1896.126953"/>
     <use xlink:href="#DejaVuSans-6c" x="1923.910156"/>
     <use xlink:href="#DejaVuSans-69" x="1951.693359"/>
     <use xlink:href="#DejaVuSans-6e" x="1979.476562"/>
     <use xlink:href="#DejaVuSans-67" x="2042.855469"/>
     <use xlink:href="#DejaVuSans-5f" x="2106.332031"/>
     <use xlink:href="#DejaVuSans-72" x="2156.332031"/>
     <use xlink:href="#DejaVuSans-65" x="2195.195312"/>
     <use xlink:href="#DejaVuSans-66" x="2256.71875"/>
     <use xlink:href="#DejaVuSans-75" x="2291.923828"/>
     <use xlink:href="#DejaVuSans-72" x="2355.302734"/>
     <use xlink:href="#DejaVuSans-62" x="2396.416016"/>
     <use xlink:href="#DejaVuSans-69" x="2459.892578"/>
     <use xlink:href="#DejaVuSans-73" x="2487.675781"/>
     <use xlink:href="#DejaVuSans-68" x="2539.775391"/>
     <use xlink:href="#DejaVuSans-65" x="2603.154297"/>
     <use xlink:href="#DejaVuSans-64" x="2664.677734"/>
    </g>
   </g>
   <g id="legend_1">
    <g id="patch_7">
     <path d="M 284.430938 64.150125 
L 407.72 64.150125 
Q 409.72 64.150125 409.72 62.150125 
L 409.72 48.472 
Q 409.72 46.472 407.72 46.472 
L 284.430938 46.472 
Q 282.430938 46.472 282.430938 48.472 
L 282.430938 62.150125 
Q 282.430938 64.150125 284.430938 64.150125 
z
" style="fill: #ffffff; opacity: 0.8; stroke: #cccccc; stroke-linejoin: miter"/>
    </g>
    <g id="line2d_17">
     <path d="M 286.430938 54.570438 
L 296.430938 54.570438 
L 306.430938 54.570438 
" style="fill: none; stroke: #4682b4; stroke-width: 1.5; stroke-linecap: square"/>
    </g>
    <g id="text_19">
     <!-- Storage-Minimizer -->
     <g transform="translate(314.430938 58.070438)scale(0.1 -0.1)">
      <defs>
       <path id="DejaVuSans-53" d="M 3425 4513 
L 3425 3897 
Q 3066 4069 2747 4153 
Q 2428 4238 2131 4238 
Q 1616 4238 1336 4038 
Q 1056 3838 1056 3469 
Q 1056 3159 1242 3001 
Q 1428 2844 1947 2747 
L 2328 2669 
Q 3034 2534 3370 2195 
Q 3706 1856 3706 1288 
Q 3706 609 3251 259 
Q 2797 -91 1919 -91 
Q 1588 -91 1214 -16 
Q 841 59 441 206 
L 441 856 
Q 825 641 1194 531 
Q 1563 422 1919 422 
Q 2459 422 2753 634 
Q 3047 847 3047 1241 
Q 3047 1584 2836 1778 
Q 2625 1972 2144 2069 
L 1759 2144 
Q 1053 2284 737 2584 
Q 422 2884 422 3419 
Q 422 4038 858 4394 
Q 1294 4750 2059 4750 
Q 2388 4750 2728 4690 
Q 3069 4631 3425 4513 
z
" transform="scale(0.015625)"/>
       <path id="DejaVuSans-2d" d="M 313 2009 
L 1997 2009 
L 1997 1497 
L 313 1497 
L 313 2009 
z
" transform="scale(0.015625)"/>
       <path id="DejaVuSans-4d" d="M 628 4666 
L 1569 4666 
L 2759 1491 
L 3956 4666 
L 4897 4666 
L 4897 0 
L 4281 0 
L 4281 4097 
L 3078 897 
L 2444 897 
L 1241 4097 
L 1241 0 
L 628 0 
L 628 4666 
z
" transform="scale(0.015625)"/>
       <path id="DejaVuSans-6d" d="M 3328 2828 
Q 3544 3216 3844 3400 
Q 4144 3584 4550 3584 
Q 5097 3584 5394 3201 
Q 5691 2819 5691 2113 
L 5691 0 
L 5113 0 
L 5113 2094 
Q 5113 2597 4934 2840 
Q 4756 3084 4391 3084 
Q 3944 3084 3684 2787 
Q 3425 2491 3425 1978 
L 3425 0 
L 2847 0 
L 2847 2094 
Q 2847 2600 2669 2842 
Q 2491 3084 2119 3084 
Q 1678 3084 1418 2786 
Q 1159 2488 1159 1978 
L 1159 0 
L 581 0 
L 581 3500 
L 1159 3500 
L 1159 2956 
Q 1356 3278 1631 3431 
Q 1906 3584 2284 3584 
Q 2666 3584 2933 3390 
Q 3200 3197 3328 2828 
z
" transform="scale(0.015625)"/>
       <path id="DejaVuSans-7a" d="M 353 3500 
L 3084 3500 
L 3084 2975 
L 922 459 
L 3084 459 
L 3084 0 
L 275 0 
L 275 525 
L 2438 3041 
L 353 3041 
L 353 3500 
z
" transform="scale(0.015625)"/>
      </defs>
      <use xlink:href="#DejaVuSans-53"/>
      <use xlink:href="#DejaVuSans-74" x="63.476562"/>
      <use xlink:href="#DejaVuSans-6f" x="102.685547"/>
      <use xlink:href="#DejaVuSans-72" x="163.867188"/>
      <use xlink:href="#DejaVuSans-61" x="204.980469"/>
      <use xlink:href="#DejaVuSans-67" x="266.259766"/>
      <use xlink:href="#DejaVuSans-65" x="329.736328"/>
      <use xlink:href="#DejaVuSans-2d" x="391.259766"/>
      <use xlink:href="#DejaVuSans-4d" x="427.34375"/>
      <use xlink:href="#DejaVuSans-69" x="513.623047"/>
      <use xlink:href="#DejaVuSans-6e" x="541.40625"/>
      <use xlink:href="#DejaVuSans-69" x="604.785156"/>
      <use xlink:href="#DejaVuSans-6d" x="632.568359"/>
      <use xlink:href="#DejaVuSans-69" x="729.980469"/>
      <use xlink:href="#DejaVuSans-7a" x="757.763672"/>
      <use xlink:href="#DejaVuSans-65" x="810.253906"/>
      <use xlink:href="#DejaVuSans-72" x="871.777344"/>
     </g>
    </g>
   </g>
  </g>
 </g>
 <defs>
  <clipPath id="p70621e19d3">
   <rect x="57.6" y="41.472" width="357.12" height="266.112"/>
  </clipPath>
 </defs>
</svg>
