<?xml version="1.0" encoding="utf-8" standalone="no"?>
<!DOCTYPE svg PUBLIC "-//W3C//DTD SVG 1.1//EN"
  "http://www.w3.org/Graphics/SVG/1.1/DTD/svg11.dtd">
<svg xmlns:xlink="http://www.w3.org/1999/xlink" width="460.8pt" height="345.6pt" viewBox="0 0 460.8 345.6" xmlns="http://www.w3.org/2000/svg" version="1.1">
 <metadata>
  <rdf:RDF xmlns:dc="http://purl.org/dc/elements/1.1/" xmlns:cc="http://creativecommons.org/ns#" xmlns:rdf="http://www.w3.org/1999/02/22-rdf-syntax-ns#">
   <cc:Work>
    <dc:type rdf:resource="http://purl.org/dc/dcmitype/StillImage"/>
    <dc:date>2022-06-16T11:36:21.940644</dc:date>
    <dc:format>image/svg+xml</dc:format>
    <dc:creator>
     <cc:Agent>
      <dc:title>Matplotlib v3.5.2, https://matplotlib.org/</dc:title>
     </cc:Agent>
    </dc:creator>
   </cc:Work>
  </rdf:RDF>
 </metadata>
 <defs>
  <style type="text/css">*{stroke-linejoin: round; stroke-linecap: butt}</style>
 </defs>
 <g id="figure_1">
  <g id="patch_1">
   <path d="M 0 345.6 
L 460.8 345.6 
L 460.8 0 
L 0 0 
z
" style="fill: #ffffff"/>
  </g>
  <g id="axes_1">
   <g id="patch_2">
    <path d="M 57.6 307.584 
L 414.72 307.584 
L 414.72 41.472 
L 57.6 41.472 
z
" style="fill: #ffffff"/>
   </g>
   <g id="PolyCollection_1">
    <path d="M 112.69653 295.488 
L 109.927645 295.488 
L 109.731101 293.278018 
L 109.508577 291.068036 
L 109.251262 288.858054 
L 108.948172 286.648072 
L 108.586703 284.438091 
L 108.153565 282.228109 
L 107.636078 280.018127 
L 107.023696 277.808145 
L 106.309585 275.598163 
L 105.492042 273.388181 
L 104.575492 271.178199 
L 103.570864 268.968217 
L 102.495201 266.758235 
L 101.370484 264.548254 
L 100.221777 262.338272 
L 99.074915 260.12829 
L 97.954068 257.918308 
L 96.879529 255.708326 
L 95.866056 253.498344 
L 94.921979 251.288362 
L 94.049176 249.07838 
L 93.243842 246.868398 
L 92.497837 244.658417 
L 91.800347 242.448435 
L 91.139509 240.238453 
L 90.503744 238.028471 
L 89.882608 235.818489 
L 89.2671 233.608507 
L 88.649504 231.398525 
L 88.022953 229.188543 
L 87.380931 226.978561 
L 86.716974 224.76858 
L 86.024736 222.558598 
L 85.298502 220.348616 
L 84.534094 218.138634 
L 83.729982 215.928652 
L 82.888361 213.71867 
L 82.015871 211.508688 
L 81.123738 209.298706 
L 80.227191 207.088724 
L 79.344173 204.878742 
L 78.493543 202.668761 
L 77.693054 200.458779 
L 76.957522 198.248797 
L 76.297501 196.038815 
L 75.718747 193.828833 
L 75.222543 191.618851 
L 74.806803 189.408869 
L 74.4677 187.198887 
L 74.201467 184.988905 
L 74.005988 182.778924 
L 73.881862 180.568942 
L 73.832727 178.35896 
L 73.864819 176.148978 
L 73.985856 173.938996 
L 74.20352 171.729014 
L 74.523844 169.519032 
L 74.949843 167.30905 
L 75.480649 165.099068 
L 76.111301 162.889087 
L 76.83321 160.679105 
L 77.63515 158.469123 
L 78.504558 156.259141 
L 79.428854 154.049159 
L 80.396534 151.839177 
L 81.397867 149.629195 
L 82.425132 147.419213 
L 83.472463 145.209231 
L 84.535451 142.99925 
L 85.610694 140.789268 
L 86.695429 138.579286 
L 87.787364 136.369304 
L 88.884667 134.159322 
L 89.986048 131.94934 
L 91.090789 129.739358 
L 92.198591 127.529376 
L 93.309189 125.319394 
L 94.42175 123.109413 
L 95.534158 120.899431 
L 96.642374 118.689449 
L 97.740052 116.479467 
L 98.818554 114.269485 
L 99.867432 112.059503 
L 100.875326 109.849521 
L 101.831156 107.639539 
L 102.725377 105.429557 
L 103.551084 103.219576 
L 104.304775 101.009594 
L 104.986625 98.799612 
L 105.600264 96.58963 
L 106.152098 94.379648 
L 106.650331 92.169666 
L 107.103851 89.959684 
L 107.521169 87.749702 
L 107.909558 85.53972 
L 108.274506 83.329739 
L 108.619488 81.119757 
L 108.946062 78.909775 
L 109.254199 76.699793 
L 113.369975 76.699793 
L 113.369975 76.699793 
L 113.678113 78.909775 
L 114.004687 81.119757 
L 114.349669 83.329739 
L 114.714616 85.53972 
L 115.103006 87.749702 
L 115.520323 89.959684 
L 115.973844 92.169666 
L 116.472077 94.379648 
L 117.023911 96.58963 
L 117.637549 98.799612 
L 118.3194 101.009594 
L 119.07309 103.219576 
L 119.898798 105.429557 
L 120.793018 107.639539 
L 121.748848 109.849521 
L 122.756743 112.059503 
L 123.805621 114.269485 
L 124.884123 116.479467 
L 125.981801 118.689449 
L 127.090017 120.899431 
L 128.202424 123.109413 
L 129.314985 125.319394 
L 130.425584 127.529376 
L 131.533386 129.739358 
L 132.638126 131.94934 
L 133.739508 134.159322 
L 134.836811 136.369304 
L 135.928745 138.579286 
L 137.013481 140.789268 
L 138.088723 142.99925 
L 139.151712 145.209231 
L 140.199042 147.419213 
L 141.226307 149.629195 
L 142.227641 151.839177 
L 143.195321 154.049159 
L 144.119617 156.259141 
L 144.989025 158.469123 
L 145.790965 160.679105 
L 146.512874 162.889087 
L 147.143526 165.099068 
L 147.674331 167.30905 
L 148.100331 169.519032 
L 148.420655 171.729014 
L 148.638319 173.938996 
L 148.759355 176.148978 
L 148.791447 178.35896 
L 148.742313 180.568942 
L 148.618186 182.778924 
L 148.422707 184.988905 
L 148.156474 187.198887 
L 147.817371 189.408869 
L 147.401631 191.618851 
L 146.905427 193.828833 
L 146.326673 196.038815 
L 145.666652 198.248797 
L 144.93112 200.458779 
L 144.130632 202.668761 
L 143.280001 204.878742 
L 142.396984 207.088724 
L 141.500437 209.298706 
L 140.608304 211.508688 
L 139.735813 213.71867 
L 138.894193 215.928652 
L 138.090081 218.138634 
L 137.325672 220.348616 
L 136.599439 222.558598 
L 135.907201 224.76858 
L 135.243243 226.978561 
L 134.601221 229.188543 
L 133.97467 231.398525 
L 133.357075 233.608507 
L 132.741566 235.818489 
L 132.120431 238.028471 
L 131.484666 240.238453 
L 130.823828 242.448435 
L 130.126338 244.658417 
L 129.380333 246.868398 
L 128.574998 249.07838 
L 127.702196 251.288362 
L 126.758119 253.498344 
L 125.744645 255.708326 
L 124.670107 257.918308 
L 123.54926 260.12829 
L 122.402397 262.338272 
L 121.253691 264.548254 
L 120.128974 266.758235 
L 119.05331 268.968217 
L 118.048682 271.178199 
L 117.132133 273.388181 
L 116.31459 275.598163 
L 115.600479 277.808145 
L 114.988096 280.018127 
L 114.47061 282.228109 
L 114.037472 284.438091 
L 113.676002 286.648072 
L 113.372913 288.858054 
L 113.115598 291.068036 
L 112.893074 293.278018 
L 112.69653 295.488 
z
" clip-path="url(#pa572f7e1d1)" style="fill: #1f77b4; fill-opacity: 0.3"/>
   </g>
   <g id="PolyCollection_2">
    <path d="M 197.896175 270.428558 
L 191.302933 270.428558 
L 190.827228 268.354874 
L 190.322349 266.281191 
L 189.788462 264.207507 
L 189.223997 262.133824 
L 188.625256 260.060141 
L 187.986249 257.986457 
L 187.298852 255.912774 
L 186.55331 253.83909 
L 185.739107 251.765407 
L 184.846147 249.691723 
L 183.866134 247.61804 
L 182.794017 245.544356 
L 181.629299 243.470673 
L 180.377046 241.396989 
L 179.04843 239.323306 
L 177.660691 237.249623 
L 176.236489 235.175939 
L 174.802669 233.102256 
L 173.388577 231.028572 
L 172.024075 228.954889 
L 170.737501 226.881205 
L 169.553772 224.807522 
L 168.492847 222.733838 
L 167.568675 220.660155 
L 166.788713 218.586472 
L 166.153994 216.512788 
L 165.659669 214.439105 
L 165.295886 212.365421 
L 165.048834 210.291738 
L 164.901813 208.218054 
L 164.83618 206.144371 
L 164.83213 204.070687 
L 164.869269 201.997004 
L 164.927038 199.923321 
L 164.985064 197.849637 
L 165.02352 195.775954 
L 165.023578 193.70227 
L 164.967991 191.628587 
L 164.841816 189.554903 
L 164.633222 187.48122 
L 164.334306 185.407536 
L 163.941832 183.333853 
L 163.457785 181.26017 
L 162.889662 179.186486 
L 162.250456 177.112803 
L 161.55829 175.039119 
L 160.835715 172.965436 
L 160.108683 170.891752 
L 159.405255 168.818069 
L 158.754078 166.744385 
L 158.18274 164.670702 
L 157.716085 162.597018 
L 157.374639 160.523335 
L 157.173262 158.449652 
L 157.120194 156.375968 
L 157.216601 154.302285 
L 157.456713 152.228601 
L 157.828572 150.154918 
L 158.315323 148.081234 
L 158.896947 146.007551 
L 159.552227 143.933867 
L 160.260758 141.860184 
L 161.004765 139.786501 
L 161.770567 137.712817 
L 162.549523 135.639134 
L 163.338424 133.56545 
L 164.139297 131.491767 
L 164.958687 129.418083 
L 165.806511 127.3444 
L 166.694608 125.270716 
L 167.635123 123.197033 
L 168.63888 121.12335 
L 169.713875 119.049666 
L 170.86403 116.975983 
L 172.088324 114.902299 
L 173.380365 112.828616 
L 174.728474 110.754932 
L 176.116262 108.681249 
L 177.523652 106.607565 
L 178.928253 104.533882 
L 180.306941 102.460198 
L 181.637491 100.386515 
L 182.900093 98.312832 
L 184.078611 96.239148 
L 185.161464 94.165465 
L 186.142072 92.091781 
L 187.018858 90.018098 
L 187.794827 87.944414 
L 188.476822 85.870731 
L 189.07454 83.797047 
L 189.599446 81.723364 
L 190.063685 79.649681 
L 190.479093 77.575997 
L 190.8564 75.502314 
L 191.204641 73.42863 
L 191.530829 71.354947 
L 191.839851 69.281263 
L 192.134574 67.20758 
L 192.416118 65.133896 
L 196.782991 65.133896 
L 196.782991 65.133896 
L 197.064534 67.20758 
L 197.359257 69.281263 
L 197.668279 71.354947 
L 197.994467 73.42863 
L 198.342708 75.502314 
L 198.720015 77.575997 
L 199.135423 79.649681 
L 199.599662 81.723364 
L 200.124568 83.797047 
L 200.722286 85.870731 
L 201.404281 87.944414 
L 202.18025 90.018098 
L 203.057036 92.091781 
L 204.037644 94.165465 
L 205.120497 96.239148 
L 206.299015 98.312832 
L 207.561618 100.386515 
L 208.892168 102.460198 
L 210.270856 104.533882 
L 211.675456 106.607565 
L 213.082846 108.681249 
L 214.470634 110.754932 
L 215.818743 112.828616 
L 217.110784 114.902299 
L 218.335078 116.975983 
L 219.485233 119.049666 
L 220.560228 121.12335 
L 221.563985 123.197033 
L 222.5045 125.270716 
L 223.392597 127.3444 
L 224.240421 129.418083 
L 225.059811 131.491767 
L 225.860684 133.56545 
L 226.649585 135.639134 
L 227.428541 137.712817 
L 228.194343 139.786501 
L 228.938351 141.860184 
L 229.646881 143.933867 
L 230.302161 146.007551 
L 230.883785 148.081234 
L 231.370536 150.154918 
L 231.742395 152.228601 
L 231.982508 154.302285 
L 232.078914 156.375968 
L 232.025846 158.449652 
L 231.824469 160.523335 
L 231.483023 162.597018 
L 231.016369 164.670702 
L 230.44503 166.744385 
L 229.793853 168.818069 
L 229.090425 170.891752 
L 228.363394 172.965436 
L 227.640818 175.039119 
L 226.948652 177.112803 
L 226.309446 179.186486 
L 225.741323 181.26017 
L 225.257276 183.333853 
L 224.864802 185.407536 
L 224.565886 187.48122 
L 224.357292 189.554903 
L 224.231117 191.628587 
L 224.17553 193.70227 
L 224.175588 195.775954 
L 224.214044 197.849637 
L 224.272071 199.923321 
L 224.32984 201.997004 
L 224.366978 204.070687 
L 224.362928 206.144371 
L 224.297296 208.218054 
L 224.150274 210.291738 
L 223.903222 212.365421 
L 223.539439 214.439105 
L 223.045114 216.512788 
L 222.410395 218.586472 
L 221.630433 220.660155 
L 220.706261 222.733838 
L 219.645336 224.807522 
L 218.461607 226.881205 
L 217.175033 228.954889 
L 215.810531 231.028572 
L 214.396439 233.102256 
L 212.96262 235.175939 
L 211.538417 237.249623 
L 210.150678 239.323306 
L 208.822062 241.396989 
L 207.569809 243.470673 
L 206.405091 245.544356 
L 205.332974 247.61804 
L 204.352962 249.691723 
L 203.460001 251.765407 
L 202.645798 253.83909 
L 201.900256 255.912774 
L 201.212859 257.986457 
L 200.573853 260.060141 
L 199.975111 262.133824 
L 199.410646 264.207507 
L 198.876759 266.281191 
L 198.37188 268.354874 
L 197.896175 270.428558 
z
" clip-path="url(#pa572f7e1d1)" style="fill: #1f77b4; fill-opacity: 0.3"/>
   </g>
   <g id="PolyCollection_3">
    <path d="M 283.46965 258.862661 
L 272.304392 258.862661 
L 271.588303 256.788978 
L 270.847605 254.715294 
L 270.087895 252.641611 
L 269.314113 250.567928 
L 268.530366 248.494244 
L 267.739811 246.420561 
L 266.944599 244.346877 
L 266.145838 242.273194 
L 265.343573 240.19951 
L 264.536771 238.125827 
L 263.723335 236.052143 
L 262.900162 233.97846 
L 262.06329 231.904777 
L 261.208165 229.831093 
L 260.330024 227.75741 
L 259.424404 225.683726 
L 258.487716 223.610043 
L 257.517827 221.536359 
L 256.514573 219.462676 
L 255.480121 217.388992 
L 254.419118 215.315309 
L 253.3386 213.241625 
L 252.247656 211.167942 
L 251.156904 209.094259 
L 250.07784 207.020575 
L 249.022144 204.946892 
L 248.001039 202.873208 
L 247.024765 200.799525 
L 246.102216 198.725841 
L 245.240742 196.652158 
L 244.446101 194.578474 
L 243.722521 192.504791 
L 243.072804 190.431108 
L 242.498438 188.357424 
L 241.999684 186.283741 
L 241.57562 184.210057 
L 241.224171 182.136374 
L 240.942155 180.06269 
L 240.725396 177.989007 
L 240.568938 175.915323 
L 240.46737 173.84164 
L 240.415264 171.767957 
L 240.407661 169.694273 
L 240.44055 167.62059 
L 240.511254 165.546906 
L 240.618648 163.473223 
L 240.763168 161.399539 
L 240.946591 159.325856 
L 241.171635 157.252172 
L 241.441422 155.178489 
L 241.758916 153.104806 
L 242.126403 151.031122 
L 242.545095 148.957439 
L 243.014892 146.883755 
L 243.534311 144.810072 
L 244.100548 142.736388 
L 244.709632 140.662705 
L 245.356607 138.589021 
L 246.035715 136.515338 
L 246.74055 134.441654 
L 247.464191 132.367971 
L 248.199336 130.294288 
L 248.938476 128.220604 
L 249.674153 126.146921 
L 250.399308 124.073237 
L 251.107737 121.999554 
L 251.794623 119.92587 
L 252.457095 117.852187 
L 253.094749 115.778503 
L 253.71005 113.70482 
L 254.308541 111.631137 
L 254.898793 109.557453 
L 255.492059 107.48377 
L 256.10162 105.410086 
L 256.74185 103.336403 
L 257.42706 101.262719 
L 258.170218 99.189036 
L 258.981656 97.115352 
L 259.8679 95.041669 
L 260.830753 92.967986 
L 261.866739 90.894302 
L 262.96698 88.820619 
L 264.117557 86.746935 
L 265.300323 84.673252 
L 266.494113 82.599568 
L 267.67622 80.525885 
L 268.824017 78.452201 
L 269.916538 76.378518 
L 270.935885 74.304834 
L 271.868303 72.231151 
L 272.704857 70.157468 
L 273.441648 68.083784 
L 274.079579 66.010101 
L 274.623743 63.936417 
L 275.082509 61.862734 
L 275.46645 59.78905 
L 275.78722 57.715367 
L 276.056516 55.641683 
L 276.285214 53.568 
L 279.488828 53.568 
L 279.488828 53.568 
L 279.717525 55.641683 
L 279.986822 57.715367 
L 280.307592 59.78905 
L 280.691532 61.862734 
L 281.150299 63.936417 
L 281.694463 66.010101 
L 282.332394 68.083784 
L 283.069185 70.157468 
L 283.905739 72.231151 
L 284.838157 74.304834 
L 285.857503 76.378518 
L 286.950025 78.452201 
L 288.097822 80.525885 
L 289.279929 82.599568 
L 290.473718 84.673252 
L 291.656485 86.746935 
L 292.807062 88.820619 
L 293.907303 90.894302 
L 294.943288 92.967986 
L 295.906142 95.041669 
L 296.792386 97.115352 
L 297.603823 99.189036 
L 298.346982 101.262719 
L 299.032192 103.336403 
L 299.672422 105.410086 
L 300.281983 107.48377 
L 300.875248 109.557453 
L 301.4655 111.631137 
L 302.063992 113.70482 
L 302.679293 115.778503 
L 303.316947 117.852187 
L 303.979418 119.92587 
L 304.666304 121.999554 
L 305.374733 124.073237 
L 306.099889 126.146921 
L 306.835566 128.220604 
L 307.574706 130.294288 
L 308.30985 132.367971 
L 309.033491 134.441654 
L 309.738327 136.515338 
L 310.417435 138.589021 
L 311.064409 140.662705 
L 311.673493 142.736388 
L 312.239731 144.810072 
L 312.75915 146.883755 
L 313.228947 148.957439 
L 313.647638 151.031122 
L 314.015126 153.104806 
L 314.33262 155.178489 
L 314.602407 157.252172 
L 314.82745 159.325856 
L 315.010874 161.399539 
L 315.155393 163.473223 
L 315.262788 165.546906 
L 315.333492 167.62059 
L 315.366381 169.694273 
L 315.358778 171.767957 
L 315.306671 173.84164 
L 315.205104 175.915323 
L 315.048645 177.989007 
L 314.831887 180.06269 
L 314.549871 182.136374 
L 314.198421 184.210057 
L 313.774358 186.283741 
L 313.275604 188.357424 
L 312.701238 190.431108 
L 312.05152 192.504791 
L 311.32794 194.578474 
L 310.5333 196.652158 
L 309.671826 198.725841 
L 308.749277 200.799525 
L 307.773003 202.873208 
L 306.751898 204.946892 
L 305.696201 207.020575 
L 304.617137 209.094259 
L 303.526386 211.167942 
L 302.435442 213.241625 
L 301.354923 215.315309 
L 300.293921 217.388992 
L 299.259469 219.462676 
L 298.256215 221.536359 
L 297.286326 223.610043 
L 296.349637 225.683726 
L 295.444018 227.75741 
L 294.565877 229.831093 
L 293.710752 231.904777 
L 292.87388 233.97846 
L 292.050706 236.052143 
L 291.23727 238.125827 
L 290.430469 240.19951 
L 289.628204 242.273194 
L 288.829442 244.346877 
L 288.03423 246.420561 
L 287.243676 248.494244 
L 286.459929 250.567928 
L 285.686147 252.641611 
L 284.926437 254.715294 
L 284.185739 256.788978 
L 283.46965 258.862661 
z
" clip-path="url(#pa572f7e1d1)" style="fill: #1f77b4; fill-opacity: 0.3"/>
   </g>
   <g id="PolyCollection_4">
    <path d="M 369.679998 268.500908 
L 352.335828 268.500908 
L 351.577894 266.427225 
L 350.83392 264.353541 
L 350.107328 262.279858 
L 349.399228 260.206175 
L 348.708599 258.132491 
L 348.032694 256.058808 
L 347.367603 253.985124 
L 346.708911 251.911441 
L 346.052361 249.837757 
L 345.394432 247.764074 
L 344.732776 245.69039 
L 344.066444 243.616707 
L 343.3959 241.543024 
L 342.722825 239.46934 
L 342.049747 237.395657 
L 341.379569 235.321973 
L 340.715057 233.24829 
L 340.058377 231.174606 
L 339.410731 229.100923 
L 338.772153 227.027239 
L 338.141476 224.953556 
L 337.516481 222.879873 
L 336.894182 220.806189 
L 336.271222 218.732506 
L 335.644307 216.658822 
L 335.010628 214.585139 
L 334.368218 212.511455 
L 333.716214 210.437772 
L 333.054983 208.364088 
L 332.386138 206.290405 
L 331.712431 204.216721 
L 331.037566 202.143038 
L 330.365957 200.069355 
L 329.702462 197.995671 
L 329.052131 195.921988 
L 328.419976 193.848304 
L 327.810803 191.774621 
L 327.229079 189.700937 
L 326.678872 187.627254 
L 326.163826 185.55357 
L 325.68718 183.479887 
L 325.251821 181.406204 
L 324.860349 179.33252 
L 324.515142 177.258837 
L 324.218414 175.185153 
L 323.972248 173.11147 
L 323.778589 171.037786 
L 323.639192 168.964103 
L 323.555513 166.890419 
L 323.528553 164.816736 
L 323.558658 162.743053 
L 323.645302 160.669369 
L 323.786861 158.595686 
L 323.980443 156.522002 
L 324.221768 154.448319 
L 324.505168 152.374635 
L 324.823693 150.300952 
L 325.16937 148.227268 
L 325.533576 146.153585 
L 325.907533 144.079901 
L 326.282866 142.006218 
L 326.652203 139.932535 
L 327.009743 137.858851 
L 327.351758 135.785168 
L 327.676973 133.711484 
L 327.986804 131.637801 
L 328.285407 129.564117 
L 328.579569 127.490434 
L 328.878407 125.41675 
L 329.192932 123.343067 
L 329.535482 121.269384 
L 329.91908 119.1957 
L 330.356738 117.122017 
L 330.860764 115.048333 
L 331.442104 112.97465 
L 332.109746 110.900966 
L 332.870228 108.827283 
L 333.72726 106.753599 
L 334.681484 104.679916 
L 335.73037 102.606233 
L 336.868259 100.532549 
L 338.08654 98.458866 
L 339.37395 96.385182 
L 340.716985 94.311499 
L 342.100395 92.237815 
L 343.507745 90.164132 
L 344.922014 88.090448 
L 346.326198 86.016765 
L 347.703906 83.943081 
L 349.0399 81.869398 
L 350.320571 79.795715 
L 351.534323 77.722031 
L 352.671845 75.648348 
L 353.726269 73.574664 
L 354.693207 71.500981 
L 355.570665 69.427297 
L 356.358862 67.353614 
L 357.059963 65.27993 
L 357.67775 63.206247 
L 364.338075 63.206247 
L 364.338075 63.206247 
L 364.955863 65.27993 
L 365.656964 67.353614 
L 366.445161 69.427297 
L 367.322618 71.500981 
L 368.289556 73.574664 
L 369.343981 75.648348 
L 370.481503 77.722031 
L 371.695254 79.795715 
L 372.975925 81.869398 
L 374.311919 83.943081 
L 375.689627 86.016765 
L 377.093811 88.090448 
L 378.50808 90.164132 
L 379.91543 92.237815 
L 381.298841 94.311499 
L 382.641875 96.385182 
L 383.929286 98.458866 
L 385.147566 100.532549 
L 386.285455 102.606233 
L 387.334341 104.679916 
L 388.288565 106.753599 
L 389.145597 108.827283 
L 389.906079 110.900966 
L 390.573721 112.97465 
L 391.155061 115.048333 
L 391.659088 117.122017 
L 392.096745 119.1957 
L 392.480343 121.269384 
L 392.822893 123.343067 
L 393.137418 125.41675 
L 393.436256 127.490434 
L 393.730418 129.564117 
L 394.029022 131.637801 
L 394.338852 133.711484 
L 394.664068 135.785168 
L 395.006082 137.858851 
L 395.363622 139.932535 
L 395.732959 142.006218 
L 396.108292 144.079901 
L 396.482249 146.153585 
L 396.846455 148.227268 
L 397.192132 150.300952 
L 397.510658 152.374635 
L 397.794057 154.448319 
L 398.035383 156.522002 
L 398.228964 158.595686 
L 398.370524 160.669369 
L 398.457167 162.743053 
L 398.487273 164.816736 
L 398.460312 166.890419 
L 398.376633 168.964103 
L 398.237236 171.037786 
L 398.043578 173.11147 
L 397.797412 175.185153 
L 397.500683 177.258837 
L 397.155476 179.33252 
L 396.764004 181.406204 
L 396.328646 183.479887 
L 395.852 185.55357 
L 395.336953 187.627254 
L 394.786746 189.700937 
L 394.205023 191.774621 
L 393.595849 193.848304 
L 392.963695 195.921988 
L 392.313363 197.995671 
L 391.649868 200.069355 
L 390.978259 202.143038 
L 390.303394 204.216721 
L 389.629687 206.290405 
L 388.960842 208.364088 
L 388.299612 210.437772 
L 387.647607 212.511455 
L 387.005198 214.585139 
L 386.371518 216.658822 
L 385.744603 218.732506 
L 385.121643 220.806189 
L 384.499344 222.879873 
L 383.874349 224.953556 
L 383.243672 227.027239 
L 382.605094 229.100923 
L 381.957449 231.174606 
L 381.300769 233.24829 
L 380.636257 235.321973 
L 379.966078 237.395657 
L 379.293 239.46934 
L 378.619925 241.543024 
L 377.949381 243.616707 
L 377.283049 245.69039 
L 376.621393 247.764074 
L 375.963465 249.837757 
L 375.306914 251.911441 
L 374.648223 253.985124 
L 373.983132 256.058808 
L 373.307226 258.132491 
L 372.616598 260.206175 
L 371.908497 262.279858 
L 371.181905 264.353541 
L 370.437931 266.427225 
L 369.679998 268.500908 
z
" clip-path="url(#pa572f7e1d1)" style="fill: #1f77b4; fill-opacity: 0.3"/>
   </g>
   <g id="matplotlib.axis_1">
    <g id="xtick_1">
     <g id="line2d_1">
      <defs>
       <path id="m0bd9668a1d" d="M 0 0 
L 0 3.5 
" style="stroke: #000000; stroke-width: 0.8"/>
      </defs>
      <g>
       <use xlink:href="#m0bd9668a1d" x="69.668354" y="307.584" style="stroke: #000000; stroke-width: 0.8"/>
      </g>
     </g>
     <g id="text_1">
      <!-- 250 -->
      <g transform="translate(60.124604 322.182437)scale(0.1 -0.1)">
       <defs>
        <path id="DejaVuSans-32" d="M 1228 531 
L 3431 531 
L 3431 0 
L 469 0 
L 469 531 
Q 828 903 1448 1529 
Q 2069 2156 2228 2338 
Q 2531 2678 2651 2914 
Q 2772 3150 2772 3378 
Q 2772 3750 2511 3984 
Q 2250 4219 1831 4219 
Q 1534 4219 1204 4116 
Q 875 4013 500 3803 
L 500 4441 
Q 881 4594 1212 4672 
Q 1544 4750 1819 4750 
Q 2544 4750 2975 4387 
Q 3406 4025 3406 3419 
Q 3406 3131 3298 2873 
Q 3191 2616 2906 2266 
Q 2828 2175 2409 1742 
Q 1991 1309 1228 531 
z
" transform="scale(0.015625)"/>
        <path id="DejaVuSans-35" d="M 691 4666 
L 3169 4666 
L 3169 4134 
L 1269 4134 
L 1269 2991 
Q 1406 3038 1543 3061 
Q 1681 3084 1819 3084 
Q 2600 3084 3056 2656 
Q 3513 2228 3513 1497 
Q 3513 744 3044 326 
Q 2575 -91 1722 -91 
Q 1428 -91 1123 -41 
Q 819 9 494 109 
L 494 744 
Q 775 591 1075 516 
Q 1375 441 1709 441 
Q 2250 441 2565 725 
Q 2881 1009 2881 1497 
Q 2881 1984 2565 2268 
Q 2250 2553 1709 2553 
Q 1456 2553 1204 2497 
Q 953 2441 691 2322 
L 691 4666 
z
" transform="scale(0.015625)"/>
        <path id="DejaVuSans-30" d="M 2034 4250 
Q 1547 4250 1301 3770 
Q 1056 3291 1056 2328 
Q 1056 1369 1301 889 
Q 1547 409 2034 409 
Q 2525 409 2770 889 
Q 3016 1369 3016 2328 
Q 3016 3291 2770 3770 
Q 2525 4250 2034 4250 
z
M 2034 4750 
Q 2819 4750 3233 4129 
Q 3647 3509 3647 2328 
Q 3647 1150 3233 529 
Q 2819 -91 2034 -91 
Q 1250 -91 836 529 
Q 422 1150 422 2328 
Q 422 3509 836 4129 
Q 1250 4750 2034 4750 
z
" transform="scale(0.015625)"/>
       </defs>
       <use xlink:href="#DejaVuSans-32"/>
       <use xlink:href="#DejaVuSans-35" x="63.623047"/>
       <use xlink:href="#DejaVuSans-30" x="127.246094"/>
      </g>
     </g>
    </g>
    <g id="xtick_2">
     <g id="line2d_2">
      <g>
       <use xlink:href="#m0bd9668a1d" x="111.312087" y="307.584" style="stroke: #000000; stroke-width: 0.8"/>
      </g>
     </g>
     <g id="text_2">
      <!-- 500 -->
      <g transform="translate(101.768337 322.182437)scale(0.1 -0.1)">
       <use xlink:href="#DejaVuSans-35"/>
       <use xlink:href="#DejaVuSans-30" x="63.623047"/>
       <use xlink:href="#DejaVuSans-30" x="127.246094"/>
      </g>
     </g>
    </g>
    <g id="xtick_3">
     <g id="line2d_3">
      <g>
       <use xlink:href="#m0bd9668a1d" x="152.955821" y="307.584" style="stroke: #000000; stroke-width: 0.8"/>
      </g>
     </g>
     <g id="text_3">
      <!-- 750 -->
      <g transform="translate(143.412071 322.182437)scale(0.1 -0.1)">
       <defs>
        <path id="DejaVuSans-37" d="M 525 4666 
L 3525 4666 
L 3525 4397 
L 1831 0 
L 1172 0 
L 2766 4134 
L 525 4134 
L 525 4666 
z
" transform="scale(0.015625)"/>
       </defs>
       <use xlink:href="#DejaVuSans-37"/>
       <use xlink:href="#DejaVuSans-35" x="63.623047"/>
       <use xlink:href="#DejaVuSans-30" x="127.246094"/>
      </g>
     </g>
    </g>
    <g id="xtick_4">
     <g id="line2d_4">
      <g>
       <use xlink:href="#m0bd9668a1d" x="194.599554" y="307.584" style="stroke: #000000; stroke-width: 0.8"/>
      </g>
     </g>
     <g id="text_4">
      <!-- 1000 -->
      <g transform="translate(181.874554 322.182437)scale(0.1 -0.1)">
       <defs>
        <path id="DejaVuSans-31" d="M 794 531 
L 1825 531 
L 1825 4091 
L 703 3866 
L 703 4441 
L 1819 4666 
L 2450 4666 
L 2450 531 
L 3481 531 
L 3481 0 
L 794 0 
L 794 531 
z
" transform="scale(0.015625)"/>
       </defs>
       <use xlink:href="#DejaVuSans-31"/>
       <use xlink:href="#DejaVuSans-30" x="63.623047"/>
       <use xlink:href="#DejaVuSans-30" x="127.246094"/>
       <use xlink:href="#DejaVuSans-30" x="190.869141"/>
      </g>
     </g>
    </g>
    <g id="xtick_5">
     <g id="line2d_5">
      <g>
       <use xlink:href="#m0bd9668a1d" x="236.243287" y="307.584" style="stroke: #000000; stroke-width: 0.8"/>
      </g>
     </g>
     <g id="text_5">
      <!-- 1250 -->
      <g transform="translate(223.518287 322.182437)scale(0.1 -0.1)">
       <use xlink:href="#DejaVuSans-31"/>
       <use xlink:href="#DejaVuSans-32" x="63.623047"/>
       <use xlink:href="#DejaVuSans-35" x="127.246094"/>
       <use xlink:href="#DejaVuSans-30" x="190.869141"/>
      </g>
     </g>
    </g>
    <g id="xtick_6">
     <g id="line2d_6">
      <g>
       <use xlink:href="#m0bd9668a1d" x="277.887021" y="307.584" style="stroke: #000000; stroke-width: 0.8"/>
      </g>
     </g>
     <g id="text_6">
      <!-- 1500 -->
      <g transform="translate(265.162021 322.182437)scale(0.1 -0.1)">
       <use xlink:href="#DejaVuSans-31"/>
       <use xlink:href="#DejaVuSans-35" x="63.623047"/>
       <use xlink:href="#DejaVuSans-30" x="127.246094"/>
       <use xlink:href="#DejaVuSans-30" x="190.869141"/>
      </g>
     </g>
    </g>
    <g id="xtick_7">
     <g id="line2d_7">
      <g>
       <use xlink:href="#m0bd9668a1d" x="319.530754" y="307.584" style="stroke: #000000; stroke-width: 0.8"/>
      </g>
     </g>
     <g id="text_7">
      <!-- 1750 -->
      <g transform="translate(306.805754 322.182437)scale(0.1 -0.1)">
       <use xlink:href="#DejaVuSans-31"/>
       <use xlink:href="#DejaVuSans-37" x="63.623047"/>
       <use xlink:href="#DejaVuSans-35" x="127.246094"/>
       <use xlink:href="#DejaVuSans-30" x="190.869141"/>
      </g>
     </g>
    </g>
    <g id="xtick_8">
     <g id="line2d_8">
      <g>
       <use xlink:href="#m0bd9668a1d" x="361.174488" y="307.584" style="stroke: #000000; stroke-width: 0.8"/>
      </g>
     </g>
     <g id="text_8">
      <!-- 2000 -->
      <g transform="translate(348.449488 322.182437)scale(0.1 -0.1)">
       <use xlink:href="#DejaVuSans-32"/>
       <use xlink:href="#DejaVuSans-30" x="63.623047"/>
       <use xlink:href="#DejaVuSans-30" x="127.246094"/>
       <use xlink:href="#DejaVuSans-30" x="190.869141"/>
      </g>
     </g>
    </g>
    <g id="xtick_9">
     <g id="line2d_9">
      <g>
       <use xlink:href="#m0bd9668a1d" x="402.818221" y="307.584" style="stroke: #000000; stroke-width: 0.8"/>
      </g>
     </g>
     <g id="text_9">
      <!-- 2250 -->
      <g transform="translate(390.093221 322.182437)scale(0.1 -0.1)">
       <use xlink:href="#DejaVuSans-32"/>
       <use xlink:href="#DejaVuSans-32" x="63.623047"/>
       <use xlink:href="#DejaVuSans-35" x="127.246094"/>
       <use xlink:href="#DejaVuSans-30" x="190.869141"/>
      </g>
     </g>
    </g>
    <g id="text_10">
     <!-- Learned Episodes -->
     <g transform="translate(192.102187 335.860562)scale(0.1 -0.1)">
      <defs>
       <path id="DejaVuSans-4c" d="M 628 4666 
L 1259 4666 
L 1259 531 
L 3531 531 
L 3531 0 
L 628 0 
L 628 4666 
z
" transform="scale(0.015625)"/>
       <path id="DejaVuSans-65" d="M 3597 1894 
L 3597 1613 
L 953 1613 
Q 991 1019 1311 708 
Q 1631 397 2203 397 
Q 2534 397 2845 478 
Q 3156 559 3463 722 
L 3463 178 
Q 3153 47 2828 -22 
Q 2503 -91 2169 -91 
Q 1331 -91 842 396 
Q 353 884 353 1716 
Q 353 2575 817 3079 
Q 1281 3584 2069 3584 
Q 2775 3584 3186 3129 
Q 3597 2675 3597 1894 
z
M 3022 2063 
Q 3016 2534 2758 2815 
Q 2500 3097 2075 3097 
Q 1594 3097 1305 2825 
Q 1016 2553 972 2059 
L 3022 2063 
z
" transform="scale(0.015625)"/>
       <path id="DejaVuSans-61" d="M 2194 1759 
Q 1497 1759 1228 1600 
Q 959 1441 959 1056 
Q 959 750 1161 570 
Q 1363 391 1709 391 
Q 2188 391 2477 730 
Q 2766 1069 2766 1631 
L 2766 1759 
L 2194 1759 
z
M 3341 1997 
L 3341 0 
L 2766 0 
L 2766 531 
Q 2569 213 2275 61 
Q 1981 -91 1556 -91 
Q 1019 -91 701 211 
Q 384 513 384 1019 
Q 384 1609 779 1909 
Q 1175 2209 1959 2209 
L 2766 2209 
L 2766 2266 
Q 2766 2663 2505 2880 
Q 2244 3097 1772 3097 
Q 1472 3097 1187 3025 
Q 903 2953 641 2809 
L 641 3341 
Q 956 3463 1253 3523 
Q 1550 3584 1831 3584 
Q 2591 3584 2966 3190 
Q 3341 2797 3341 1997 
z
" transform="scale(0.015625)"/>
       <path id="DejaVuSans-72" d="M 2631 2963 
Q 2534 3019 2420 3045 
Q 2306 3072 2169 3072 
Q 1681 3072 1420 2755 
Q 1159 2438 1159 1844 
L 1159 0 
L 581 0 
L 581 3500 
L 1159 3500 
L 1159 2956 
Q 1341 3275 1631 3429 
Q 1922 3584 2338 3584 
Q 2397 3584 2469 3576 
Q 2541 3569 2628 3553 
L 2631 2963 
z
" transform="scale(0.015625)"/>
       <path id="DejaVuSans-6e" d="M 3513 2113 
L 3513 0 
L 2938 0 
L 2938 2094 
Q 2938 2591 2744 2837 
Q 2550 3084 2163 3084 
Q 1697 3084 1428 2787 
Q 1159 2491 1159 1978 
L 1159 0 
L 581 0 
L 581 3500 
L 1159 3500 
L 1159 2956 
Q 1366 3272 1645 3428 
Q 1925 3584 2291 3584 
Q 2894 3584 3203 3211 
Q 3513 2838 3513 2113 
z
" transform="scale(0.015625)"/>
       <path id="DejaVuSans-64" d="M 2906 2969 
L 2906 4863 
L 3481 4863 
L 3481 0 
L 2906 0 
L 2906 525 
Q 2725 213 2448 61 
Q 2172 -91 1784 -91 
Q 1150 -91 751 415 
Q 353 922 353 1747 
Q 353 2572 751 3078 
Q 1150 3584 1784 3584 
Q 2172 3584 2448 3432 
Q 2725 3281 2906 2969 
z
M 947 1747 
Q 947 1113 1208 752 
Q 1469 391 1925 391 
Q 2381 391 2643 752 
Q 2906 1113 2906 1747 
Q 2906 2381 2643 2742 
Q 2381 3103 1925 3103 
Q 1469 3103 1208 2742 
Q 947 2381 947 1747 
z
" transform="scale(0.015625)"/>
       <path id="DejaVuSans-20" transform="scale(0.015625)"/>
       <path id="DejaVuSans-45" d="M 628 4666 
L 3578 4666 
L 3578 4134 
L 1259 4134 
L 1259 2753 
L 3481 2753 
L 3481 2222 
L 1259 2222 
L 1259 531 
L 3634 531 
L 3634 0 
L 628 0 
L 628 4666 
z
" transform="scale(0.015625)"/>
       <path id="DejaVuSans-70" d="M 1159 525 
L 1159 -1331 
L 581 -1331 
L 581 3500 
L 1159 3500 
L 1159 2969 
Q 1341 3281 1617 3432 
Q 1894 3584 2278 3584 
Q 2916 3584 3314 3078 
Q 3713 2572 3713 1747 
Q 3713 922 3314 415 
Q 2916 -91 2278 -91 
Q 1894 -91 1617 61 
Q 1341 213 1159 525 
z
M 3116 1747 
Q 3116 2381 2855 2742 
Q 2594 3103 2138 3103 
Q 1681 3103 1420 2742 
Q 1159 2381 1159 1747 
Q 1159 1113 1420 752 
Q 1681 391 2138 391 
Q 2594 391 2855 752 
Q 3116 1113 3116 1747 
z
" transform="scale(0.015625)"/>
       <path id="DejaVuSans-69" d="M 603 3500 
L 1178 3500 
L 1178 0 
L 603 0 
L 603 3500 
z
M 603 4863 
L 1178 4863 
L 1178 4134 
L 603 4134 
L 603 4863 
z
" transform="scale(0.015625)"/>
       <path id="DejaVuSans-73" d="M 2834 3397 
L 2834 2853 
Q 2591 2978 2328 3040 
Q 2066 3103 1784 3103 
Q 1356 3103 1142 2972 
Q 928 2841 928 2578 
Q 928 2378 1081 2264 
Q 1234 2150 1697 2047 
L 1894 2003 
Q 2506 1872 2764 1633 
Q 3022 1394 3022 966 
Q 3022 478 2636 193 
Q 2250 -91 1575 -91 
Q 1294 -91 989 -36 
Q 684 19 347 128 
L 347 722 
Q 666 556 975 473 
Q 1284 391 1588 391 
Q 1994 391 2212 530 
Q 2431 669 2431 922 
Q 2431 1156 2273 1281 
Q 2116 1406 1581 1522 
L 1381 1569 
Q 847 1681 609 1914 
Q 372 2147 372 2553 
Q 372 3047 722 3315 
Q 1072 3584 1716 3584 
Q 2034 3584 2315 3537 
Q 2597 3491 2834 3397 
z
" transform="scale(0.015625)"/>
       <path id="DejaVuSans-6f" d="M 1959 3097 
Q 1497 3097 1228 2736 
Q 959 2375 959 1747 
Q 959 1119 1226 758 
Q 1494 397 1959 397 
Q 2419 397 2687 759 
Q 2956 1122 2956 1747 
Q 2956 2369 2687 2733 
Q 2419 3097 1959 3097 
z
M 1959 3584 
Q 2709 3584 3137 3096 
Q 3566 2609 3566 1747 
Q 3566 888 3137 398 
Q 2709 -91 1959 -91 
Q 1206 -91 779 398 
Q 353 888 353 1747 
Q 353 2609 779 3096 
Q 1206 3584 1959 3584 
z
" transform="scale(0.015625)"/>
      </defs>
      <use xlink:href="#DejaVuSans-4c"/>
      <use xlink:href="#DejaVuSans-65" x="53.962891"/>
      <use xlink:href="#DejaVuSans-61" x="115.486328"/>
      <use xlink:href="#DejaVuSans-72" x="176.765625"/>
      <use xlink:href="#DejaVuSans-6e" x="216.128906"/>
      <use xlink:href="#DejaVuSans-65" x="279.507812"/>
      <use xlink:href="#DejaVuSans-64" x="341.03125"/>
      <use xlink:href="#DejaVuSans-20" x="404.507812"/>
      <use xlink:href="#DejaVuSans-45" x="436.294922"/>
      <use xlink:href="#DejaVuSans-70" x="499.478516"/>
      <use xlink:href="#DejaVuSans-69" x="562.955078"/>
      <use xlink:href="#DejaVuSans-73" x="590.738281"/>
      <use xlink:href="#DejaVuSans-6f" x="642.837891"/>
      <use xlink:href="#DejaVuSans-64" x="704.019531"/>
      <use xlink:href="#DejaVuSans-65" x="767.496094"/>
      <use xlink:href="#DejaVuSans-73" x="829.019531"/>
     </g>
    </g>
   </g>
   <g id="matplotlib.axis_2">
    <g id="ytick_1">
     <g id="line2d_10">
      <defs>
       <path id="mabfe3b7c34" d="M 0 0 
L -3.5 0 
" style="stroke: #000000; stroke-width: 0.8"/>
      </defs>
      <g>
       <use xlink:href="#mabfe3b7c34" x="57.6" y="278.139155" style="stroke: #000000; stroke-width: 0.8"/>
      </g>
     </g>
     <g id="text_11">
      <!-- 150 -->
      <g transform="translate(31.5125 281.938374)scale(0.1 -0.1)">
       <use xlink:href="#DejaVuSans-31"/>
       <use xlink:href="#DejaVuSans-35" x="63.623047"/>
       <use xlink:href="#DejaVuSans-30" x="127.246094"/>
      </g>
     </g>
    </g>
    <g id="ytick_2">
     <g id="line2d_11">
      <g>
       <use xlink:href="#mabfe3b7c34" x="57.6" y="229.94792" style="stroke: #000000; stroke-width: 0.8"/>
      </g>
     </g>
     <g id="text_12">
      <!-- 200 -->
      <g transform="translate(31.5125 233.747139)scale(0.1 -0.1)">
       <use xlink:href="#DejaVuSans-32"/>
       <use xlink:href="#DejaVuSans-30" x="63.623047"/>
       <use xlink:href="#DejaVuSans-30" x="127.246094"/>
      </g>
     </g>
    </g>
    <g id="ytick_3">
     <g id="line2d_12">
      <g>
       <use xlink:href="#mabfe3b7c34" x="57.6" y="181.756685" style="stroke: #000000; stroke-width: 0.8"/>
      </g>
     </g>
     <g id="text_13">
      <!-- 250 -->
      <g transform="translate(31.5125 185.555904)scale(0.1 -0.1)">
       <use xlink:href="#DejaVuSans-32"/>
       <use xlink:href="#DejaVuSans-35" x="63.623047"/>
       <use xlink:href="#DejaVuSans-30" x="127.246094"/>
      </g>
     </g>
    </g>
    <g id="ytick_4">
     <g id="line2d_13">
      <g>
       <use xlink:href="#mabfe3b7c34" x="57.6" y="133.56545" style="stroke: #000000; stroke-width: 0.8"/>
      </g>
     </g>
     <g id="text_14">
      <!-- 300 -->
      <g transform="translate(31.5125 137.364669)scale(0.1 -0.1)">
       <defs>
        <path id="DejaVuSans-33" d="M 2597 2516 
Q 3050 2419 3304 2112 
Q 3559 1806 3559 1356 
Q 3559 666 3084 287 
Q 2609 -91 1734 -91 
Q 1441 -91 1130 -33 
Q 819 25 488 141 
L 488 750 
Q 750 597 1062 519 
Q 1375 441 1716 441 
Q 2309 441 2620 675 
Q 2931 909 2931 1356 
Q 2931 1769 2642 2001 
Q 2353 2234 1838 2234 
L 1294 2234 
L 1294 2753 
L 1863 2753 
Q 2328 2753 2575 2939 
Q 2822 3125 2822 3475 
Q 2822 3834 2567 4026 
Q 2313 4219 1838 4219 
Q 1578 4219 1281 4162 
Q 984 4106 628 3988 
L 628 4550 
Q 988 4650 1302 4700 
Q 1616 4750 1894 4750 
Q 2613 4750 3031 4423 
Q 3450 4097 3450 3541 
Q 3450 3153 3228 2886 
Q 3006 2619 2597 2516 
z
" transform="scale(0.015625)"/>
       </defs>
       <use xlink:href="#DejaVuSans-33"/>
       <use xlink:href="#DejaVuSans-30" x="63.623047"/>
       <use xlink:href="#DejaVuSans-30" x="127.246094"/>
      </g>
     </g>
    </g>
    <g id="ytick_5">
     <g id="line2d_14">
      <g>
       <use xlink:href="#mabfe3b7c34" x="57.6" y="85.374215" style="stroke: #000000; stroke-width: 0.8"/>
      </g>
     </g>
     <g id="text_15">
      <!-- 350 -->
      <g transform="translate(31.5125 89.173434)scale(0.1 -0.1)">
       <use xlink:href="#DejaVuSans-33"/>
       <use xlink:href="#DejaVuSans-35" x="63.623047"/>
       <use xlink:href="#DejaVuSans-30" x="127.246094"/>
      </g>
     </g>
    </g>
    <g id="text_16">
     <!-- Reward Density -->
     <g transform="translate(25.432812 213.74675)rotate(-90)scale(0.1 -0.1)">
      <defs>
       <path id="DejaVuSans-52" d="M 2841 2188 
Q 3044 2119 3236 1894 
Q 3428 1669 3622 1275 
L 4263 0 
L 3584 0 
L 2988 1197 
Q 2756 1666 2539 1819 
Q 2322 1972 1947 1972 
L 1259 1972 
L 1259 0 
L 628 0 
L 628 4666 
L 2053 4666 
Q 2853 4666 3247 4331 
Q 3641 3997 3641 3322 
Q 3641 2881 3436 2590 
Q 3231 2300 2841 2188 
z
M 1259 4147 
L 1259 2491 
L 2053 2491 
Q 2509 2491 2742 2702 
Q 2975 2913 2975 3322 
Q 2975 3731 2742 3939 
Q 2509 4147 2053 4147 
L 1259 4147 
z
" transform="scale(0.015625)"/>
       <path id="DejaVuSans-77" d="M 269 3500 
L 844 3500 
L 1563 769 
L 2278 3500 
L 2956 3500 
L 3675 769 
L 4391 3500 
L 4966 3500 
L 4050 0 
L 3372 0 
L 2619 2869 
L 1863 0 
L 1184 0 
L 269 3500 
z
" transform="scale(0.015625)"/>
       <path id="DejaVuSans-44" d="M 1259 4147 
L 1259 519 
L 2022 519 
Q 2988 519 3436 956 
Q 3884 1394 3884 2338 
Q 3884 3275 3436 3711 
Q 2988 4147 2022 4147 
L 1259 4147 
z
M 628 4666 
L 1925 4666 
Q 3281 4666 3915 4102 
Q 4550 3538 4550 2338 
Q 4550 1131 3912 565 
Q 3275 0 1925 0 
L 628 0 
L 628 4666 
z
" transform="scale(0.015625)"/>
       <path id="DejaVuSans-74" d="M 1172 4494 
L 1172 3500 
L 2356 3500 
L 2356 3053 
L 1172 3053 
L 1172 1153 
Q 1172 725 1289 603 
Q 1406 481 1766 481 
L 2356 481 
L 2356 0 
L 1766 0 
Q 1100 0 847 248 
Q 594 497 594 1153 
L 594 3053 
L 172 3053 
L 172 3500 
L 594 3500 
L 594 4494 
L 1172 4494 
z
" transform="scale(0.015625)"/>
       <path id="DejaVuSans-79" d="M 2059 -325 
Q 1816 -950 1584 -1140 
Q 1353 -1331 966 -1331 
L 506 -1331 
L 506 -850 
L 844 -850 
Q 1081 -850 1212 -737 
Q 1344 -625 1503 -206 
L 1606 56 
L 191 3500 
L 800 3500 
L 1894 763 
L 2988 3500 
L 3597 3500 
L 2059 -325 
z
" transform="scale(0.015625)"/>
      </defs>
      <use xlink:href="#DejaVuSans-52"/>
      <use xlink:href="#DejaVuSans-65" x="64.982422"/>
      <use xlink:href="#DejaVuSans-77" x="126.505859"/>
      <use xlink:href="#DejaVuSans-61" x="208.292969"/>
      <use xlink:href="#DejaVuSans-72" x="269.572266"/>
      <use xlink:href="#DejaVuSans-64" x="308.935547"/>
      <use xlink:href="#DejaVuSans-20" x="372.412109"/>
      <use xlink:href="#DejaVuSans-44" x="404.199219"/>
      <use xlink:href="#DejaVuSans-65" x="481.201172"/>
      <use xlink:href="#DejaVuSans-6e" x="542.724609"/>
      <use xlink:href="#DejaVuSans-73" x="606.103516"/>
      <use xlink:href="#DejaVuSans-69" x="658.203125"/>
      <use xlink:href="#DejaVuSans-74" x="685.986328"/>
      <use xlink:href="#DejaVuSans-79" x="725.195312"/>
     </g>
    </g>
   </g>
   <g id="LineCollection_1">
    <path d="M 92.572407 184.424552 
L 130.051767 184.424552 
" clip-path="url(#pa572f7e1d1)" style="fill: none; stroke: #1f77b4; stroke-width: 1.5"/>
    <path d="M 175.859874 170.873177 
L 213.339234 170.873177 
" clip-path="url(#pa572f7e1d1)" style="fill: none; stroke: #1f77b4; stroke-width: 1.5"/>
    <path d="M 259.147341 163.617504 
L 296.626701 163.617504 
" clip-path="url(#pa572f7e1d1)" style="fill: none; stroke: #1f77b4; stroke-width: 1.5"/>
    <path d="M 342.268233 168.000979 
L 379.747593 168.000979 
" clip-path="url(#pa572f7e1d1)" style="fill: none; stroke: #1f77b4; stroke-width: 1.5"/>
   </g>
   <g id="LineCollection_2">
    <path d="M 92.572407 76.699793 
L 130.051767 76.699793 
" clip-path="url(#pa572f7e1d1)" style="fill: none; stroke: #1f77b4; stroke-width: 1.5"/>
    <path d="M 175.859874 65.133896 
L 213.339234 65.133896 
" clip-path="url(#pa572f7e1d1)" style="fill: none; stroke: #1f77b4; stroke-width: 1.5"/>
    <path d="M 259.147341 53.568 
L 296.626701 53.568 
" clip-path="url(#pa572f7e1d1)" style="fill: none; stroke: #1f77b4; stroke-width: 1.5"/>
    <path d="M 342.268233 63.206247 
L 379.747593 63.206247 
" clip-path="url(#pa572f7e1d1)" style="fill: none; stroke: #1f77b4; stroke-width: 1.5"/>
   </g>
   <g id="LineCollection_3">
    <path d="M 92.572407 295.488 
L 130.051767 295.488 
" clip-path="url(#pa572f7e1d1)" style="fill: none; stroke: #1f77b4; stroke-width: 1.5"/>
    <path d="M 175.859874 270.428558 
L 213.339234 270.428558 
" clip-path="url(#pa572f7e1d1)" style="fill: none; stroke: #1f77b4; stroke-width: 1.5"/>
    <path d="M 259.147341 258.862661 
L 296.626701 258.862661 
" clip-path="url(#pa572f7e1d1)" style="fill: none; stroke: #1f77b4; stroke-width: 1.5"/>
    <path d="M 342.268233 268.500908 
L 379.747593 268.500908 
" clip-path="url(#pa572f7e1d1)" style="fill: none; stroke: #1f77b4; stroke-width: 1.5"/>
   </g>
   <g id="LineCollection_4">
    <path d="M 111.312087 295.488 
L 111.312087 76.699793 
" clip-path="url(#pa572f7e1d1)" style="fill: none; stroke: #1f77b4; stroke-width: 1.5"/>
    <path d="M 194.599554 270.428558 
L 194.599554 65.133896 
" clip-path="url(#pa572f7e1d1)" style="fill: none; stroke: #1f77b4; stroke-width: 1.5"/>
    <path d="M 277.887021 258.862661 
L 277.887021 53.568 
" clip-path="url(#pa572f7e1d1)" style="fill: none; stroke: #1f77b4; stroke-width: 1.5"/>
    <path d="M 361.007913 268.500908 
L 361.007913 63.206247 
" clip-path="url(#pa572f7e1d1)" style="fill: none; stroke: #1f77b4; stroke-width: 1.5"/>
   </g>
   <g id="line2d_15">
    <path d="M 111.312087 184.424552 
L 194.599554 170.873177 
L 277.887021 163.617504 
L 361.007913 168.000979 
" clip-path="url(#pa572f7e1d1)" style="fill: none; stroke: #4682b4; stroke-width: 1.5; stroke-linecap: square"/>
   </g>
   <g id="patch_3">
    <path d="M 57.6 307.584 
L 57.6 41.472 
" style="fill: none; stroke: #000000; stroke-width: 0.8; stroke-linejoin: miter; stroke-linecap: square"/>
   </g>
   <g id="patch_4">
    <path d="M 414.72 307.584 
L 414.72 41.472 
" style="fill: none; stroke: #000000; stroke-width: 0.8; stroke-linejoin: miter; stroke-linecap: square"/>
   </g>
   <g id="patch_5">
    <path d="M 57.6 307.584 
L 414.72 307.584 
" style="fill: none; stroke: #000000; stroke-width: 0.8; stroke-linejoin: miter; stroke-linecap: square"/>
   </g>
   <g id="patch_6">
    <path d="M 57.6 41.472 
L 414.72 41.472 
" style="fill: none; stroke: #000000; stroke-width: 0.8; stroke-linejoin: miter; stroke-linecap: square"/>
   </g>
   <g id="text_17">
    <!-- Violinplot for progress of customer/purchases_new -->
    <g transform="translate(84.319688 35.472)scale(0.12 -0.12)">
     <defs>
      <path id="DejaVuSans-56" d="M 1831 0 
L 50 4666 
L 709 4666 
L 2188 738 
L 3669 4666 
L 4325 4666 
L 2547 0 
L 1831 0 
z
" transform="scale(0.015625)"/>
      <path id="DejaVuSans-6c" d="M 603 4863 
L 1178 4863 
L 1178 0 
L 603 0 
L 603 4863 
z
" transform="scale(0.015625)"/>
      <path id="DejaVuSans-66" d="M 2375 4863 
L 2375 4384 
L 1825 4384 
Q 1516 4384 1395 4259 
Q 1275 4134 1275 3809 
L 1275 3500 
L 2222 3500 
L 2222 3053 
L 1275 3053 
L 1275 0 
L 697 0 
L 697 3053 
L 147 3053 
L 147 3500 
L 697 3500 
L 697 3744 
Q 697 4328 969 4595 
Q 1241 4863 1831 4863 
L 2375 4863 
z
" transform="scale(0.015625)"/>
      <path id="DejaVuSans-67" d="M 2906 1791 
Q 2906 2416 2648 2759 
Q 2391 3103 1925 3103 
Q 1463 3103 1205 2759 
Q 947 2416 947 1791 
Q 947 1169 1205 825 
Q 1463 481 1925 481 
Q 2391 481 2648 825 
Q 2906 1169 2906 1791 
z
M 3481 434 
Q 3481 -459 3084 -895 
Q 2688 -1331 1869 -1331 
Q 1566 -1331 1297 -1286 
Q 1028 -1241 775 -1147 
L 775 -588 
Q 1028 -725 1275 -790 
Q 1522 -856 1778 -856 
Q 2344 -856 2625 -561 
Q 2906 -266 2906 331 
L 2906 616 
Q 2728 306 2450 153 
Q 2172 0 1784 0 
Q 1141 0 747 490 
Q 353 981 353 1791 
Q 353 2603 747 3093 
Q 1141 3584 1784 3584 
Q 2172 3584 2450 3431 
Q 2728 3278 2906 2969 
L 2906 3500 
L 3481 3500 
L 3481 434 
z
" transform="scale(0.015625)"/>
      <path id="DejaVuSans-63" d="M 3122 3366 
L 3122 2828 
Q 2878 2963 2633 3030 
Q 2388 3097 2138 3097 
Q 1578 3097 1268 2742 
Q 959 2388 959 1747 
Q 959 1106 1268 751 
Q 1578 397 2138 397 
Q 2388 397 2633 464 
Q 2878 531 3122 666 
L 3122 134 
Q 2881 22 2623 -34 
Q 2366 -91 2075 -91 
Q 1284 -91 818 406 
Q 353 903 353 1747 
Q 353 2603 823 3093 
Q 1294 3584 2113 3584 
Q 2378 3584 2631 3529 
Q 2884 3475 3122 3366 
z
" transform="scale(0.015625)"/>
      <path id="DejaVuSans-75" d="M 544 1381 
L 544 3500 
L 1119 3500 
L 1119 1403 
Q 1119 906 1312 657 
Q 1506 409 1894 409 
Q 2359 409 2629 706 
Q 2900 1003 2900 1516 
L 2900 3500 
L 3475 3500 
L 3475 0 
L 2900 0 
L 2900 538 
Q 2691 219 2414 64 
Q 2138 -91 1772 -91 
Q 1169 -91 856 284 
Q 544 659 544 1381 
z
M 1991 3584 
L 1991 3584 
z
" transform="scale(0.015625)"/>
      <path id="DejaVuSans-6d" d="M 3328 2828 
Q 3544 3216 3844 3400 
Q 4144 3584 4550 3584 
Q 5097 3584 5394 3201 
Q 5691 2819 5691 2113 
L 5691 0 
L 5113 0 
L 5113 2094 
Q 5113 2597 4934 2840 
Q 4756 3084 4391 3084 
Q 3944 3084 3684 2787 
Q 3425 2491 3425 1978 
L 3425 0 
L 2847 0 
L 2847 2094 
Q 2847 2600 2669 2842 
Q 2491 3084 2119 3084 
Q 1678 3084 1418 2786 
Q 1159 2488 1159 1978 
L 1159 0 
L 581 0 
L 581 3500 
L 1159 3500 
L 1159 2956 
Q 1356 3278 1631 3431 
Q 1906 3584 2284 3584 
Q 2666 3584 2933 3390 
Q 3200 3197 3328 2828 
z
" transform="scale(0.015625)"/>
      <path id="DejaVuSans-2f" d="M 1625 4666 
L 2156 4666 
L 531 -594 
L 0 -594 
L 1625 4666 
z
" transform="scale(0.015625)"/>
      <path id="DejaVuSans-68" d="M 3513 2113 
L 3513 0 
L 2938 0 
L 2938 2094 
Q 2938 2591 2744 2837 
Q 2550 3084 2163 3084 
Q 1697 3084 1428 2787 
Q 1159 2491 1159 1978 
L 1159 0 
L 581 0 
L 581 4863 
L 1159 4863 
L 1159 2956 
Q 1366 3272 1645 3428 
Q 1925 3584 2291 3584 
Q 2894 3584 3203 3211 
Q 3513 2838 3513 2113 
z
" transform="scale(0.015625)"/>
      <path id="DejaVuSans-5f" d="M 3263 -1063 
L 3263 -1509 
L -63 -1509 
L -63 -1063 
L 3263 -1063 
z
" transform="scale(0.015625)"/>
     </defs>
     <use xlink:href="#DejaVuSans-56"/>
     <use xlink:href="#DejaVuSans-69" x="66.158203"/>
     <use xlink:href="#DejaVuSans-6f" x="93.941406"/>
     <use xlink:href="#DejaVuSans-6c" x="155.123047"/>
     <use xlink:href="#DejaVuSans-69" x="182.90625"/>
     <use xlink:href="#DejaVuSans-6e" x="210.689453"/>
     <use xlink:href="#DejaVuSans-70" x="274.068359"/>
     <use xlink:href="#DejaVuSans-6c" x="337.544922"/>
     <use xlink:href="#DejaVuSans-6f" x="365.328125"/>
     <use xlink:href="#DejaVuSans-74" x="426.509766"/>
     <use xlink:href="#DejaVuSans-20" x="465.71875"/>
     <use xlink:href="#DejaVuSans-66" x="497.505859"/>
     <use xlink:href="#DejaVuSans-6f" x="532.710938"/>
     <use xlink:href="#DejaVuSans-72" x="593.892578"/>
     <use xlink:href="#DejaVuSans-20" x="635.005859"/>
     <use xlink:href="#DejaVuSans-70" x="666.792969"/>
     <use xlink:href="#DejaVuSans-72" x="730.269531"/>
     <use xlink:href="#DejaVuSans-6f" x="769.132812"/>
     <use xlink:href="#DejaVuSans-67" x="830.314453"/>
     <use xlink:href="#DejaVuSans-72" x="893.791016"/>
     <use xlink:href="#DejaVuSans-65" x="932.654297"/>
     <use xlink:href="#DejaVuSans-73" x="994.177734"/>
     <use xlink:href="#DejaVuSans-73" x="1046.277344"/>
     <use xlink:href="#DejaVuSans-20" x="1098.376953"/>
     <use xlink:href="#DejaVuSans-6f" x="1130.164062"/>
     <use xlink:href="#DejaVuSans-66" x="1191.345703"/>
     <use xlink:href="#DejaVuSans-20" x="1226.550781"/>
     <use xlink:href="#DejaVuSans-63" x="1258.337891"/>
     <use xlink:href="#DejaVuSans-75" x="1313.318359"/>
     <use xlink:href="#DejaVuSans-73" x="1376.697266"/>
     <use xlink:href="#DejaVuSans-74" x="1428.796875"/>
     <use xlink:href="#DejaVuSans-6f" x="1468.005859"/>
     <use xlink:href="#DejaVuSans-6d" x="1529.1875"/>
     <use xlink:href="#DejaVuSans-65" x="1626.599609"/>
     <use xlink:href="#DejaVuSans-72" x="1688.123047"/>
     <use xlink:href="#DejaVuSans-2f" x="1729.236328"/>
     <use xlink:href="#DejaVuSans-70" x="1762.927734"/>
     <use xlink:href="#DejaVuSans-75" x="1826.404297"/>
     <use xlink:href="#DejaVuSans-72" x="1889.783203"/>
     <use xlink:href="#DejaVuSans-63" x="1928.646484"/>
     <use xlink:href="#DejaVuSans-68" x="1983.626953"/>
     <use xlink:href="#DejaVuSans-61" x="2047.005859"/>
     <use xlink:href="#DejaVuSans-73" x="2108.285156"/>
     <use xlink:href="#DejaVuSans-65" x="2160.384766"/>
     <use xlink:href="#DejaVuSans-73" x="2221.908203"/>
     <use xlink:href="#DejaVuSans-5f" x="2274.007812"/>
     <use xlink:href="#DejaVuSans-6e" x="2324.007812"/>
     <use xlink:href="#DejaVuSans-65" x="2387.386719"/>
     <use xlink:href="#DejaVuSans-77" x="2448.910156"/>
    </g>
   </g>
   <g id="legend_1">
    <g id="patch_7">
     <path d="M 284.430938 64.150125 
L 407.72 64.150125 
Q 409.72 64.150125 409.72 62.150125 
L 409.72 48.472 
Q 409.72 46.472 407.72 46.472 
L 284.430938 46.472 
Q 282.430938 46.472 282.430938 48.472 
L 282.430938 62.150125 
Q 282.430938 64.150125 284.430938 64.150125 
z
" style="fill: #ffffff; opacity: 0.8; stroke: #cccccc; stroke-linejoin: miter"/>
    </g>
    <g id="line2d_16">
     <path d="M 286.430938 54.570438 
L 296.430938 54.570438 
L 306.430938 54.570438 
" style="fill: none; stroke: #4682b4; stroke-width: 1.5; stroke-linecap: square"/>
    </g>
    <g id="text_18">
     <!-- Storage-Minimizer -->
     <g transform="translate(314.430938 58.070438)scale(0.1 -0.1)">
      <defs>
       <path id="DejaVuSans-53" d="M 3425 4513 
L 3425 3897 
Q 3066 4069 2747 4153 
Q 2428 4238 2131 4238 
Q 1616 4238 1336 4038 
Q 1056 3838 1056 3469 
Q 1056 3159 1242 3001 
Q 1428 2844 1947 2747 
L 2328 2669 
Q 3034 2534 3370 2195 
Q 3706 1856 3706 1288 
Q 3706 609 3251 259 
Q 2797 -91 1919 -91 
Q 1588 -91 1214 -16 
Q 841 59 441 206 
L 441 856 
Q 825 641 1194 531 
Q 1563 422 1919 422 
Q 2459 422 2753 634 
Q 3047 847 3047 1241 
Q 3047 1584 2836 1778 
Q 2625 1972 2144 2069 
L 1759 2144 
Q 1053 2284 737 2584 
Q 422 2884 422 3419 
Q 422 4038 858 4394 
Q 1294 4750 2059 4750 
Q 2388 4750 2728 4690 
Q 3069 4631 3425 4513 
z
" transform="scale(0.015625)"/>
       <path id="DejaVuSans-2d" d="M 313 2009 
L 1997 2009 
L 1997 1497 
L 313 1497 
L 313 2009 
z
" transform="scale(0.015625)"/>
       <path id="DejaVuSans-4d" d="M 628 4666 
L 1569 4666 
L 2759 1491 
L 3956 4666 
L 4897 4666 
L 4897 0 
L 4281 0 
L 4281 4097 
L 3078 897 
L 2444 897 
L 1241 4097 
L 1241 0 
L 628 0 
L 628 4666 
z
" transform="scale(0.015625)"/>
       <path id="DejaVuSans-7a" d="M 353 3500 
L 3084 3500 
L 3084 2975 
L 922 459 
L 3084 459 
L 3084 0 
L 275 0 
L 275 525 
L 2438 3041 
L 353 3041 
L 353 3500 
z
" transform="scale(0.015625)"/>
      </defs>
      <use xlink:href="#DejaVuSans-53"/>
      <use xlink:href="#DejaVuSans-74" x="63.476562"/>
      <use xlink:href="#DejaVuSans-6f" x="102.685547"/>
      <use xlink:href="#DejaVuSans-72" x="163.867188"/>
      <use xlink:href="#DejaVuSans-61" x="204.980469"/>
      <use xlink:href="#DejaVuSans-67" x="266.259766"/>
      <use xlink:href="#DejaVuSans-65" x="329.736328"/>
      <use xlink:href="#DejaVuSans-2d" x="391.259766"/>
      <use xlink:href="#DejaVuSans-4d" x="427.34375"/>
      <use xlink:href="#DejaVuSans-69" x="513.623047"/>
      <use xlink:href="#DejaVuSans-6e" x="541.40625"/>
      <use xlink:href="#DejaVuSans-69" x="604.785156"/>
      <use xlink:href="#DejaVuSans-6d" x="632.568359"/>
      <use xlink:href="#DejaVuSans-69" x="729.980469"/>
      <use xlink:href="#DejaVuSans-7a" x="757.763672"/>
      <use xlink:href="#DejaVuSans-65" x="810.253906"/>
      <use xlink:href="#DejaVuSans-72" x="871.777344"/>
     </g>
    </g>
   </g>
  </g>
 </g>
 <defs>
  <clipPath id="pa572f7e1d1">
   <rect x="57.6" y="41.472" width="357.12" height="266.112"/>
  </clipPath>
 </defs>
</svg>
