<?xml version="1.0" encoding="utf-8" standalone="no"?>
<!DOCTYPE svg PUBLIC "-//W3C//DTD SVG 1.1//EN"
  "http://www.w3.org/Graphics/SVG/1.1/DTD/svg11.dtd">
<svg xmlns:xlink="http://www.w3.org/1999/xlink" width="460.8pt" height="345.6pt" viewBox="0 0 460.8 345.6" xmlns="http://www.w3.org/2000/svg" version="1.1">
 <metadata>
  <rdf:RDF xmlns:dc="http://purl.org/dc/elements/1.1/" xmlns:cc="http://creativecommons.org/ns#" xmlns:rdf="http://www.w3.org/1999/02/22-rdf-syntax-ns#">
   <cc:Work>
    <dc:type rdf:resource="http://purl.org/dc/dcmitype/StillImage"/>
    <dc:date>2022-06-16T11:36:22.274378</dc:date>
    <dc:format>image/svg+xml</dc:format>
    <dc:creator>
     <cc:Agent>
      <dc:title>Matplotlib v3.5.2, https://matplotlib.org/</dc:title>
     </cc:Agent>
    </dc:creator>
   </cc:Work>
  </rdf:RDF>
 </metadata>
 <defs>
  <style type="text/css">*{stroke-linejoin: round; stroke-linecap: butt}</style>
 </defs>
 <g id="figure_1">
  <g id="patch_1">
   <path d="M 0 345.6 
L 460.8 345.6 
L 460.8 0 
L 0 0 
z
" style="fill: #ffffff"/>
  </g>
  <g id="axes_1">
   <g id="patch_2">
    <path d="M 57.6 307.584 
L 414.72 307.584 
L 414.72 41.472 
L 57.6 41.472 
z
" style="fill: #ffffff"/>
   </g>
   <g id="PolyCollection_1">
    <path d="M 113.89033 295.488 
L 108.733845 295.488 
L 108.343187 293.09897 
L 107.920596 290.70994 
L 107.4673 288.32091 
L 106.984814 285.93188 
L 106.474727 283.54285 
L 105.938421 281.15382 
L 105.376747 278.76479 
L 104.78971 276.37576 
L 104.176211 273.98673 
L 103.533919 271.5977 
L 102.859332 269.20867 
L 102.148065 266.81964 
L 101.395395 264.43061 
L 100.597005 262.04158 
L 99.749877 259.652551 
L 98.853207 257.263521 
L 97.909199 254.874491 
L 96.923595 252.485461 
L 95.905811 250.096431 
L 94.868611 247.707401 
L 93.827278 245.318371 
L 92.798384 242.929341 
L 91.798251 240.540311 
L 90.841331 238.151281 
L 89.938697 235.762251 
L 89.096867 233.373221 
L 88.317133 230.984191 
L 87.595493 228.595161 
L 86.923193 226.206131 
L 86.287815 223.817101 
L 85.674756 221.428071 
L 85.068897 219.039041 
L 84.456247 216.650011 
L 83.825363 214.260981 
L 83.168393 211.871951 
L 82.481657 209.482921 
L 81.765756 207.093891 
L 81.025252 204.704861 
L 80.268028 202.315831 
L 79.504458 199.926801 
L 78.746512 197.537771 
L 78.006897 195.148741 
L 77.298324 192.759712 
L 76.632914 190.370682 
L 76.021743 187.981652 
L 75.474498 185.592622 
L 74.999187 183.203592 
L 74.601878 180.814562 
L 74.286446 178.425532 
L 74.054333 176.036502 
L 73.904374 173.647472 
L 73.832727 171.258442 
L 73.832995 168.869412 
L 73.896566 166.480382 
L 74.013213 164.091352 
L 74.171919 161.702322 
L 74.361872 159.313292 
L 74.573533 156.924262 
L 74.799629 154.535232 
L 75.035959 152.146202 
L 75.28189 149.757172 
L 75.540446 147.368142 
L 75.817982 144.979112 
L 76.123456 142.590082 
L 76.46737 140.201052 
L 76.860531 137.812022 
L 77.312737 135.422992 
L 77.831593 133.033962 
L 78.421549 130.644932 
L 79.083308 128.255902 
L 79.813638 125.866873 
L 80.605622 123.477843 
L 81.449289 121.088813 
L 82.332563 118.699783 
L 83.242389 116.310753 
L 84.165922 113.921723 
L 85.091631 111.532693 
L 86.010193 109.143663 
L 86.915109 106.754633 
L 87.802961 104.365603 
L 88.673337 101.976573 
L 89.528445 99.587543 
L 90.372498 97.198513 
L 91.210959 94.809483 
L 92.049751 92.420453 
L 92.894533 90.031423 
L 93.750082 87.642393 
L 94.619863 85.253363 
L 95.505759 82.864333 
L 96.407982 80.475303 
L 97.325107 78.086273 
L 98.254202 75.697243 
L 99.191022 73.308213 
L 100.13022 70.919183 
L 101.065574 68.530153 
L 101.990213 66.141123 
L 102.896843 63.752093 
L 103.777984 61.363063 
L 104.626224 58.974034 
L 117.99795 58.974034 
L 117.99795 58.974034 
L 118.84619 61.363063 
L 119.727332 63.752093 
L 120.633961 66.141123 
L 121.5586 68.530153 
L 122.493955 70.919183 
L 123.433153 73.308213 
L 124.369973 75.697243 
L 125.299068 78.086273 
L 126.216192 80.475303 
L 127.118416 82.864333 
L 128.004312 85.253363 
L 128.874092 87.642393 
L 129.729642 90.031423 
L 130.574423 92.420453 
L 131.413216 94.809483 
L 132.251676 97.198513 
L 133.095729 99.587543 
L 133.950838 101.976573 
L 134.821214 104.365603 
L 135.709066 106.754633 
L 136.613981 109.143663 
L 137.532544 111.532693 
L 138.458252 113.921723 
L 139.381786 116.310753 
L 140.291612 118.699783 
L 141.174886 121.088813 
L 142.018553 123.477843 
L 142.810537 125.866873 
L 143.540867 128.255902 
L 144.202626 130.644932 
L 144.792582 133.033962 
L 145.311438 135.422992 
L 145.763644 137.812022 
L 146.156804 140.201052 
L 146.500719 142.590082 
L 146.806192 144.979112 
L 147.083729 147.368142 
L 147.342284 149.757172 
L 147.588215 152.146202 
L 147.824546 154.535232 
L 148.050642 156.924262 
L 148.262302 159.313292 
L 148.452256 161.702322 
L 148.610961 164.091352 
L 148.727608 166.480382 
L 148.79118 168.869412 
L 148.791447 171.258442 
L 148.719801 173.647472 
L 148.569841 176.036502 
L 148.337729 178.425532 
L 148.022297 180.814562 
L 147.624988 183.203592 
L 147.149677 185.592622 
L 146.602431 187.981652 
L 145.991261 190.370682 
L 145.325851 192.759712 
L 144.617278 195.148741 
L 143.877663 197.537771 
L 143.119717 199.926801 
L 142.356147 202.315831 
L 141.598923 204.704861 
L 140.858418 207.093891 
L 140.142518 209.482921 
L 139.455782 211.871951 
L 138.798811 214.260981 
L 138.167927 216.650011 
L 137.555278 219.039041 
L 136.949419 221.428071 
L 136.33636 223.817101 
L 135.700982 226.206131 
L 135.028681 228.595161 
L 134.307041 230.984191 
L 133.527308 233.373221 
L 132.685478 235.762251 
L 131.782843 238.151281 
L 130.825923 240.540311 
L 129.825791 242.929341 
L 128.796896 245.318371 
L 127.755564 247.707401 
L 126.718363 250.096431 
L 125.70058 252.485461 
L 124.714975 254.874491 
L 123.770967 257.263521 
L 122.874297 259.652551 
L 122.02717 262.04158 
L 121.228779 264.43061 
L 120.476109 266.81964 
L 119.764843 269.20867 
L 119.090255 271.5977 
L 118.447964 273.98673 
L 117.834465 276.37576 
L 117.247428 278.76479 
L 116.685754 281.15382 
L 116.149447 283.54285 
L 115.63936 285.93188 
L 115.156874 288.32091 
L 114.703578 290.70994 
L 114.280988 293.09897 
L 113.89033 295.488 
z
" clip-path="url(#pe4e9bfa4bb)" style="fill: #1f77b4; fill-opacity: 0.3"/>
   </g>
   <g id="PolyCollection_2">
    <path d="M 198.568386 269.809341 
L 190.630722 269.809341 
L 190.076886 267.625085 
L 189.478004 265.440829 
L 188.830289 263.256573 
L 188.129175 261.072317 
L 187.369753 258.888061 
L 186.547402 256.703805 
L 185.658543 254.519549 
L 184.701448 252.335293 
L 183.676983 250.151037 
L 182.589163 247.966781 
L 181.445434 245.782525 
L 180.256585 243.598269 
L 179.036277 241.414013 
L 177.800204 239.229757 
L 176.564967 237.045501 
L 175.346786 234.861245 
L 174.160204 232.676989 
L 173.016955 230.492733 
L 171.925135 228.308477 
L 170.888785 226.124221 
L 169.907935 223.939965 
L 168.979102 221.755709 
L 168.096141 219.571454 
L 167.251354 217.387198 
L 166.436675 215.202942 
L 165.644803 213.018686 
L 164.870122 210.83443 
L 164.109345 208.650174 
L 163.361819 206.465918 
L 162.629489 204.281662 
L 161.916603 202.097406 
L 161.229183 199.91315 
L 160.5744 197.728894 
L 159.959901 195.544638 
L 159.393184 193.360382 
L 158.881065 191.176126 
L 158.429269 188.99187 
L 158.042147 186.807614 
L 157.722521 184.623358 
L 157.471625 182.439102 
L 157.289107 180.254846 
L 157.173081 178.07059 
L 157.120194 175.886334 
L 157.125706 173.702078 
L 157.18359 171.517822 
L 157.286674 169.333566 
L 157.426857 167.14931 
L 157.595423 164.965054 
L 157.783478 162.780798 
L 157.982502 160.596542 
L 158.184985 158.412286 
L 158.385068 156.22803 
L 158.579129 154.043775 
L 158.766184 151.859519 
L 158.948043 149.675263 
L 159.129166 147.491007 
L 159.316204 145.306751 
L 159.51729 143.122495 
L 159.741169 140.938239 
L 159.996306 138.753983 
L 160.290111 136.569727 
L 160.628394 134.385471 
L 161.01512 132.201215 
L 161.452483 130.016959 
L 161.941225 127.832703 
L 162.481117 125.648447 
L 163.07146 123.464191 
L 163.711472 121.279935 
L 164.4005 119.095679 
L 165.13799 116.911423 
L 165.923269 114.727167 
L 166.755219 112.542911 
L 167.631948 110.358655 
L 168.550588 108.174399 
L 169.507293 105.990143 
L 170.497474 103.805887 
L 171.516221 101.621631 
L 172.558829 99.437375 
L 173.621281 97.253119 
L 174.700566 95.068863 
L 175.794722 92.884607 
L 176.902559 90.700351 
L 178.023098 88.516095 
L 179.154834 86.33184 
L 180.294953 84.147584 
L 181.438692 81.963328 
L 182.578975 79.779072 
L 183.70643 77.594816 
L 184.8098 75.41056 
L 185.876701 73.226304 
L 186.894613 71.042048 
L 187.851947 68.857792 
L 188.739017 66.673536 
L 189.548797 64.48928 
L 190.277347 62.305024 
L 190.923896 60.120768 
L 191.490589 57.936512 
L 191.981977 55.752256 
L 192.404351 53.568 
L 196.794758 53.568 
L 196.794758 53.568 
L 197.217131 55.752256 
L 197.708519 57.936512 
L 198.275212 60.120768 
L 198.921761 62.305024 
L 199.650312 64.48928 
L 200.460091 66.673536 
L 201.347161 68.857792 
L 202.304495 71.042048 
L 203.322408 73.226304 
L 204.389308 75.41056 
L 205.492678 77.594816 
L 206.620133 79.779072 
L 207.760417 81.963328 
L 208.904155 84.147584 
L 210.044274 86.33184 
L 211.17601 88.516095 
L 212.29655 90.700351 
L 213.404386 92.884607 
L 214.498542 95.068863 
L 215.577827 97.253119 
L 216.640279 99.437375 
L 217.682887 101.621631 
L 218.701634 103.805887 
L 219.691815 105.990143 
L 220.64852 108.174399 
L 221.56716 110.358655 
L 222.443889 112.542911 
L 223.275839 114.727167 
L 224.061118 116.911423 
L 224.798608 119.095679 
L 225.487636 121.279935 
L 226.127648 123.464191 
L 226.717991 125.648447 
L 227.257884 127.832703 
L 227.746625 130.016959 
L 228.183988 132.201215 
L 228.570714 134.385471 
L 228.908997 136.569727 
L 229.202802 138.753983 
L 229.457939 140.938239 
L 229.681818 143.122495 
L 229.882904 145.306751 
L 230.069943 147.491007 
L 230.251065 149.675263 
L 230.432924 151.859519 
L 230.619979 154.043775 
L 230.81404 156.22803 
L 231.014123 158.412286 
L 231.216606 160.596542 
L 231.41563 162.780798 
L 231.603685 164.965054 
L 231.772251 167.14931 
L 231.912434 169.333566 
L 232.015519 171.517822 
L 232.073402 173.702078 
L 232.078914 175.886334 
L 232.026027 178.07059 
L 231.910001 180.254846 
L 231.727483 182.439102 
L 231.476587 184.623358 
L 231.156962 186.807614 
L 230.769839 188.99187 
L 230.318043 191.176126 
L 229.805924 193.360382 
L 229.239207 195.544638 
L 228.624708 197.728894 
L 227.969925 199.91315 
L 227.282505 202.097406 
L 226.569619 204.281662 
L 225.83729 206.465918 
L 225.089763 208.650174 
L 224.328987 210.83443 
L 223.554306 213.018686 
L 222.762433 215.202942 
L 221.947755 217.387198 
L 221.102967 219.571454 
L 220.220006 221.755709 
L 219.291173 223.939965 
L 218.310324 226.124221 
L 217.273973 228.308477 
L 216.182153 230.492733 
L 215.038905 232.676989 
L 213.852322 234.861245 
L 212.634141 237.045501 
L 211.398904 239.229757 
L 210.162831 241.414013 
L 208.942523 243.598269 
L 207.753674 245.782525 
L 206.609945 247.966781 
L 205.522125 250.151037 
L 204.49766 252.335293 
L 203.540565 254.519549 
L 202.651706 256.703805 
L 201.829355 258.888061 
L 201.069933 261.072317 
L 200.368819 263.256573 
L 199.721104 265.440829 
L 199.122222 267.625085 
L 198.568386 269.809341 
z
" clip-path="url(#pe4e9bfa4bb)" style="fill: #1f77b4; fill-opacity: 0.3"/>
   </g>
   <g id="PolyCollection_3">
    <path d="M 279.0366 284.675933 
L 276.737442 284.675933 
L 276.550199 282.491677 
L 276.332062 280.307421 
L 276.077809 278.123165 
L 275.78229 275.938909 
L 275.440793 273.754653 
L 275.049402 271.570397 
L 274.605315 269.386141 
L 274.107084 267.201885 
L 273.554744 265.017629 
L 272.94982 262.833373 
L 272.295213 260.649117 
L 271.594992 258.464861 
L 270.854115 256.280605 
L 270.07813 254.096349 
L 269.272901 251.912093 
L 268.444402 249.727837 
L 267.598587 247.543582 
L 266.741353 245.359326 
L 265.878569 243.17507 
L 265.016105 240.990814 
L 264.15983 238.806558 
L 263.315489 236.622302 
L 262.488448 234.438046 
L 261.683278 232.25379 
L 260.90322 230.069534 
L 260.149609 227.885278 
L 259.421346 225.701022 
L 258.71455 223.516766 
L 258.022468 221.33251 
L 257.335727 219.148254 
L 256.642927 216.963998 
L 255.931545 214.779742 
L 255.18907 212.595486 
L 254.404229 210.41123 
L 253.568207 208.226974 
L 252.675705 206.042718 
L 251.725762 203.858462 
L 250.722257 201.674206 
L 249.674055 199.48995 
L 248.594781 197.305694 
L 247.502247 195.121438 
L 246.41755 192.937182 
L 245.363905 190.752926 
L 244.365274 188.56867 
L 243.444899 186.384414 
L 242.62383 184.200158 
L 241.919579 182.015902 
L 241.345014 179.831647 
L 240.907594 177.647391 
L 240.609028 175.463135 
L 240.445386 173.278879 
L 240.407661 171.094623 
L 240.482715 168.910367 
L 240.654519 166.726111 
L 240.905555 164.541855 
L 241.218217 162.357599 
L 241.576102 160.173343 
L 241.96503 157.989087 
L 242.373727 155.804831 
L 242.79412 153.620575 
L 243.221256 151.436319 
L 243.652904 149.252063 
L 244.088932 147.067807 
L 244.530595 144.883551 
L 244.979835 142.699295 
L 245.438717 140.515039 
L 245.909063 138.330783 
L 246.392303 136.146527 
L 246.889544 133.962271 
L 247.401783 131.778015 
L 247.930193 129.593759 
L 248.476402 127.409503 
L 249.04268 125.225247 
L 249.631987 123.040991 
L 250.247869 120.856735 
L 250.894197 118.672479 
L 251.574797 116.488223 
L 252.29303 114.303967 
L 253.051378 112.119712 
L 253.851108 109.935456 
L 254.692064 107.7512 
L 255.572605 105.566944 
L 256.489709 103.382688 
L 257.439214 101.198432 
L 258.41615 99.014176 
L 259.415117 96.82992 
L 260.430634 94.645664 
L 261.45742 92.461408 
L 262.490552 90.277152 
L 263.525501 88.092896 
L 264.558031 85.90864 
L 265.584016 83.724384 
L 266.599204 81.540128 
L 267.598985 79.355872 
L 268.578222 77.171616 
L 269.53118 74.98736 
L 270.451579 72.803104 
L 271.33278 70.618848 
L 272.168078 68.434592 
L 283.605963 68.434592 
L 283.605963 68.434592 
L 284.441261 70.618848 
L 285.322463 72.803104 
L 286.242862 74.98736 
L 287.19582 77.171616 
L 288.175057 79.355872 
L 289.174838 81.540128 
L 290.190025 83.724384 
L 291.216011 85.90864 
L 292.248541 88.092896 
L 293.283489 90.277152 
L 294.316622 92.461408 
L 295.343408 94.645664 
L 296.358925 96.82992 
L 297.357892 99.014176 
L 298.334828 101.198432 
L 299.284333 103.382688 
L 300.201437 105.566944 
L 301.081978 107.7512 
L 301.922933 109.935456 
L 302.722664 112.119712 
L 303.481011 114.303967 
L 304.199244 116.488223 
L 304.879845 118.672479 
L 305.526172 120.856735 
L 306.142055 123.040991 
L 306.731362 125.225247 
L 307.297639 127.409503 
L 307.843849 129.593759 
L 308.372259 131.778015 
L 308.884498 133.962271 
L 309.381739 136.146527 
L 309.864979 138.330783 
L 310.335324 140.515039 
L 310.794207 142.699295 
L 311.243447 144.883551 
L 311.68511 147.067807 
L 312.121138 149.252063 
L 312.552785 151.436319 
L 312.979922 153.620575 
L 313.400315 155.804831 
L 313.809012 157.989087 
L 314.19794 160.173343 
L 314.555825 162.357599 
L 314.868487 164.541855 
L 315.119522 166.726111 
L 315.291327 168.910367 
L 315.366381 171.094623 
L 315.328655 173.278879 
L 315.165013 175.463135 
L 314.866447 177.647391 
L 314.429028 179.831647 
L 313.854463 182.015902 
L 313.150212 184.200158 
L 312.329143 186.384414 
L 311.408767 188.56867 
L 310.410137 190.752926 
L 309.356491 192.937182 
L 308.271795 195.121438 
L 307.179261 197.305694 
L 306.099987 199.48995 
L 305.051784 201.674206 
L 304.04828 203.858462 
L 303.098337 206.042718 
L 302.205835 208.226974 
L 301.369812 210.41123 
L 300.584972 212.595486 
L 299.842496 214.779742 
L 299.131115 216.963998 
L 298.438314 219.148254 
L 297.751574 221.33251 
L 297.059492 223.516766 
L 296.352696 225.701022 
L 295.624433 227.885278 
L 294.870821 230.069534 
L 294.090764 232.25379 
L 293.285593 234.438046 
L 292.458553 236.622302 
L 291.614212 238.806558 
L 290.757936 240.990814 
L 289.895473 243.17507 
L 289.032689 245.359326 
L 288.175455 247.543582 
L 287.329639 249.727837 
L 286.50114 251.912093 
L 285.695912 254.096349 
L 284.919927 256.280605 
L 284.179049 258.464861 
L 283.478829 260.649117 
L 282.824222 262.833373 
L 282.219298 265.017629 
L 281.666958 267.201885 
L 281.168727 269.386141 
L 280.72464 271.570397 
L 280.333248 273.754653 
L 279.991751 275.938909 
L 279.696233 278.123165 
L 279.44198 280.307421 
L 279.223843 282.491677 
L 279.0366 284.675933 
z
" clip-path="url(#pe4e9bfa4bb)" style="fill: #1f77b4; fill-opacity: 0.3"/>
   </g>
   <g id="PolyCollection_4">
    <path d="M 366.788843 253.59124 
L 355.226982 253.59124 
L 354.336957 251.748274 
L 353.382484 249.905308 
L 352.373063 248.062342 
L 351.320928 246.219376 
L 350.240756 244.37641 
L 349.149141 242.533444 
L 348.063846 240.690478 
L 347.002866 238.847512 
L 345.983379 237.004546 
L 345.020643 235.16158 
L 344.12697 233.318615 
L 343.310846 231.475649 
L 342.576319 229.632683 
L 341.922691 227.789717 
L 341.344574 225.946751 
L 340.832307 224.103785 
L 340.372678 222.260819 
L 339.949919 220.417853 
L 339.546849 218.574887 
L 339.146087 216.731921 
L 338.731222 214.888955 
L 338.287841 213.045989 
L 337.804349 211.203023 
L 337.272524 209.360057 
L 336.687778 207.517091 
L 336.049132 205.674125 
L 335.358932 203.831159 
L 334.622355 201.988193 
L 333.84677 200.145227 
L 333.041047 198.302261 
L 332.214865 196.459295 
L 331.378126 194.616329 
L 330.540503 192.773363 
L 329.711183 190.930397 
L 328.898804 189.087431 
L 328.111565 187.244465 
L 327.357471 185.401499 
L 326.644642 183.558533 
L 325.981603 181.715567 
L 325.377467 179.872601 
L 324.841942 178.029635 
L 324.385119 176.186669 
L 324.017005 174.343703 
L 323.746848 172.500737 
L 323.582304 170.657771 
L 323.528553 168.814805 
L 323.587478 166.97184 
L 323.75705 165.128874 
L 324.03101 163.285908 
L 324.398936 161.442942 
L 324.846736 159.599976 
L 325.357514 157.75701 
L 325.912755 155.914044 
L 326.493697 154.071078 
L 327.082729 152.228112 
L 327.664687 150.385146 
L 328.227886 148.54218 
L 328.76481 146.699214 
L 329.272395 144.856248 
L 329.751905 143.013282 
L 330.208454 141.170316 
L 330.650242 139.32735 
L 331.087614 137.484384 
L 331.532049 135.641418 
L 331.995168 133.798452 
L 332.487845 131.955486 
L 333.019486 130.11252 
L 333.597484 128.269554 
L 334.226883 126.426588 
L 334.910222 124.583622 
L 335.647551 122.740656 
L 336.436581 120.89769 
L 337.272941 119.054724 
L 338.150524 117.211758 
L 339.061871 115.368792 
L 339.998597 113.525826 
L 340.951828 111.68286 
L 341.912619 109.839894 
L 342.872362 107.996928 
L 343.823148 106.153962 
L 344.758075 104.310996 
L 345.671488 102.46803 
L 346.559141 100.625064 
L 347.418265 98.782099 
L 348.24754 96.939133 
L 349.046971 95.096167 
L 349.817673 93.253201 
L 350.561583 91.410235 
L 351.281115 89.567269 
L 351.978797 87.724303 
L 352.65691 85.881337 
L 353.317173 84.038371 
L 353.960499 82.195405 
L 354.586849 80.352439 
L 355.195188 78.509473 
L 355.783564 76.666507 
L 356.349271 74.823541 
L 356.889098 72.980575 
L 357.399627 71.137609 
L 364.616198 71.137609 
L 364.616198 71.137609 
L 365.126727 72.980575 
L 365.666555 74.823541 
L 366.232261 76.666507 
L 366.820637 78.509473 
L 367.428977 80.352439 
L 368.055326 82.195405 
L 368.698652 84.038371 
L 369.358915 85.881337 
L 370.037028 87.724303 
L 370.73471 89.567269 
L 371.454242 91.410235 
L 372.198152 93.253201 
L 372.968854 95.096167 
L 373.768285 96.939133 
L 374.59756 98.782099 
L 375.456685 100.625064 
L 376.344338 102.46803 
L 377.257751 104.310996 
L 378.192677 106.153962 
L 379.143463 107.996928 
L 380.103207 109.839894 
L 381.063998 111.68286 
L 382.017228 113.525826 
L 382.953955 115.368792 
L 383.865301 117.211758 
L 384.742884 119.054724 
L 385.579245 120.89769 
L 386.368274 122.740656 
L 387.105604 124.583622 
L 387.788943 126.426588 
L 388.418341 128.269554 
L 388.996339 130.11252 
L 389.52798 131.955486 
L 390.020657 133.798452 
L 390.483776 135.641418 
L 390.928211 137.484384 
L 391.365584 139.32735 
L 391.807371 141.170316 
L 392.26392 143.013282 
L 392.74343 144.856248 
L 393.251015 146.699214 
L 393.787939 148.54218 
L 394.351139 150.385146 
L 394.933096 152.228112 
L 395.522129 154.071078 
L 396.10307 155.914044 
L 396.658312 157.75701 
L 397.169089 159.599976 
L 397.616889 161.442942 
L 397.984816 163.285908 
L 398.258775 165.128874 
L 398.428347 166.97184 
L 398.487273 168.814805 
L 398.433521 170.657771 
L 398.268977 172.500737 
L 397.99882 174.343703 
L 397.630706 176.186669 
L 397.173883 178.029635 
L 396.638359 179.872601 
L 396.034222 181.715567 
L 395.371183 183.558533 
L 394.658355 185.401499 
L 393.90426 187.244465 
L 393.117021 189.087431 
L 392.304642 190.930397 
L 391.475323 192.773363 
L 390.6377 194.616329 
L 389.80096 196.459295 
L 388.974778 198.302261 
L 388.169055 200.145227 
L 387.393471 201.988193 
L 386.656893 203.831159 
L 385.966693 205.674125 
L 385.328048 207.517091 
L 384.743302 209.360057 
L 384.211477 211.203023 
L 383.727985 213.045989 
L 383.284603 214.888955 
L 382.869738 216.731921 
L 382.468976 218.574887 
L 382.065906 220.417853 
L 381.643147 222.260819 
L 381.183519 224.103785 
L 380.671251 225.946751 
L 380.093135 227.789717 
L 379.439506 229.632683 
L 378.704979 231.475649 
L 377.888856 233.318615 
L 376.995182 235.16158 
L 376.032447 237.004546 
L 375.012959 238.847512 
L 373.95198 240.690478 
L 372.866684 242.533444 
L 371.775069 244.37641 
L 370.694898 246.219376 
L 369.642763 248.062342 
L 368.633341 249.905308 
L 367.678868 251.748274 
L 366.788843 253.59124 
z
" clip-path="url(#pe4e9bfa4bb)" style="fill: #1f77b4; fill-opacity: 0.3"/>
   </g>
   <g id="matplotlib.axis_1">
    <g id="xtick_1">
     <g id="line2d_1">
      <defs>
       <path id="m9c9063287e" d="M 0 0 
L 0 3.5 
" style="stroke: #000000; stroke-width: 0.8"/>
      </defs>
      <g>
       <use xlink:href="#m9c9063287e" x="69.668354" y="307.584" style="stroke: #000000; stroke-width: 0.8"/>
      </g>
     </g>
     <g id="text_1">
      <!-- 250 -->
      <g transform="translate(60.124604 322.182437)scale(0.1 -0.1)">
       <defs>
        <path id="DejaVuSans-32" d="M 1228 531 
L 3431 531 
L 3431 0 
L 469 0 
L 469 531 
Q 828 903 1448 1529 
Q 2069 2156 2228 2338 
Q 2531 2678 2651 2914 
Q 2772 3150 2772 3378 
Q 2772 3750 2511 3984 
Q 2250 4219 1831 4219 
Q 1534 4219 1204 4116 
Q 875 4013 500 3803 
L 500 4441 
Q 881 4594 1212 4672 
Q 1544 4750 1819 4750 
Q 2544 4750 2975 4387 
Q 3406 4025 3406 3419 
Q 3406 3131 3298 2873 
Q 3191 2616 2906 2266 
Q 2828 2175 2409 1742 
Q 1991 1309 1228 531 
z
" transform="scale(0.015625)"/>
        <path id="DejaVuSans-35" d="M 691 4666 
L 3169 4666 
L 3169 4134 
L 1269 4134 
L 1269 2991 
Q 1406 3038 1543 3061 
Q 1681 3084 1819 3084 
Q 2600 3084 3056 2656 
Q 3513 2228 3513 1497 
Q 3513 744 3044 326 
Q 2575 -91 1722 -91 
Q 1428 -91 1123 -41 
Q 819 9 494 109 
L 494 744 
Q 775 591 1075 516 
Q 1375 441 1709 441 
Q 2250 441 2565 725 
Q 2881 1009 2881 1497 
Q 2881 1984 2565 2268 
Q 2250 2553 1709 2553 
Q 1456 2553 1204 2497 
Q 953 2441 691 2322 
L 691 4666 
z
" transform="scale(0.015625)"/>
        <path id="DejaVuSans-30" d="M 2034 4250 
Q 1547 4250 1301 3770 
Q 1056 3291 1056 2328 
Q 1056 1369 1301 889 
Q 1547 409 2034 409 
Q 2525 409 2770 889 
Q 3016 1369 3016 2328 
Q 3016 3291 2770 3770 
Q 2525 4250 2034 4250 
z
M 2034 4750 
Q 2819 4750 3233 4129 
Q 3647 3509 3647 2328 
Q 3647 1150 3233 529 
Q 2819 -91 2034 -91 
Q 1250 -91 836 529 
Q 422 1150 422 2328 
Q 422 3509 836 4129 
Q 1250 4750 2034 4750 
z
" transform="scale(0.015625)"/>
       </defs>
       <use xlink:href="#DejaVuSans-32"/>
       <use xlink:href="#DejaVuSans-35" x="63.623047"/>
       <use xlink:href="#DejaVuSans-30" x="127.246094"/>
      </g>
     </g>
    </g>
    <g id="xtick_2">
     <g id="line2d_2">
      <g>
       <use xlink:href="#m9c9063287e" x="111.312087" y="307.584" style="stroke: #000000; stroke-width: 0.8"/>
      </g>
     </g>
     <g id="text_2">
      <!-- 500 -->
      <g transform="translate(101.768337 322.182437)scale(0.1 -0.1)">
       <use xlink:href="#DejaVuSans-35"/>
       <use xlink:href="#DejaVuSans-30" x="63.623047"/>
       <use xlink:href="#DejaVuSans-30" x="127.246094"/>
      </g>
     </g>
    </g>
    <g id="xtick_3">
     <g id="line2d_3">
      <g>
       <use xlink:href="#m9c9063287e" x="152.955821" y="307.584" style="stroke: #000000; stroke-width: 0.8"/>
      </g>
     </g>
     <g id="text_3">
      <!-- 750 -->
      <g transform="translate(143.412071 322.182437)scale(0.1 -0.1)">
       <defs>
        <path id="DejaVuSans-37" d="M 525 4666 
L 3525 4666 
L 3525 4397 
L 1831 0 
L 1172 0 
L 2766 4134 
L 525 4134 
L 525 4666 
z
" transform="scale(0.015625)"/>
       </defs>
       <use xlink:href="#DejaVuSans-37"/>
       <use xlink:href="#DejaVuSans-35" x="63.623047"/>
       <use xlink:href="#DejaVuSans-30" x="127.246094"/>
      </g>
     </g>
    </g>
    <g id="xtick_4">
     <g id="line2d_4">
      <g>
       <use xlink:href="#m9c9063287e" x="194.599554" y="307.584" style="stroke: #000000; stroke-width: 0.8"/>
      </g>
     </g>
     <g id="text_4">
      <!-- 1000 -->
      <g transform="translate(181.874554 322.182437)scale(0.1 -0.1)">
       <defs>
        <path id="DejaVuSans-31" d="M 794 531 
L 1825 531 
L 1825 4091 
L 703 3866 
L 703 4441 
L 1819 4666 
L 2450 4666 
L 2450 531 
L 3481 531 
L 3481 0 
L 794 0 
L 794 531 
z
" transform="scale(0.015625)"/>
       </defs>
       <use xlink:href="#DejaVuSans-31"/>
       <use xlink:href="#DejaVuSans-30" x="63.623047"/>
       <use xlink:href="#DejaVuSans-30" x="127.246094"/>
       <use xlink:href="#DejaVuSans-30" x="190.869141"/>
      </g>
     </g>
    </g>
    <g id="xtick_5">
     <g id="line2d_5">
      <g>
       <use xlink:href="#m9c9063287e" x="236.243287" y="307.584" style="stroke: #000000; stroke-width: 0.8"/>
      </g>
     </g>
     <g id="text_5">
      <!-- 1250 -->
      <g transform="translate(223.518287 322.182437)scale(0.1 -0.1)">
       <use xlink:href="#DejaVuSans-31"/>
       <use xlink:href="#DejaVuSans-32" x="63.623047"/>
       <use xlink:href="#DejaVuSans-35" x="127.246094"/>
       <use xlink:href="#DejaVuSans-30" x="190.869141"/>
      </g>
     </g>
    </g>
    <g id="xtick_6">
     <g id="line2d_6">
      <g>
       <use xlink:href="#m9c9063287e" x="277.887021" y="307.584" style="stroke: #000000; stroke-width: 0.8"/>
      </g>
     </g>
     <g id="text_6">
      <!-- 1500 -->
      <g transform="translate(265.162021 322.182437)scale(0.1 -0.1)">
       <use xlink:href="#DejaVuSans-31"/>
       <use xlink:href="#DejaVuSans-35" x="63.623047"/>
       <use xlink:href="#DejaVuSans-30" x="127.246094"/>
       <use xlink:href="#DejaVuSans-30" x="190.869141"/>
      </g>
     </g>
    </g>
    <g id="xtick_7">
     <g id="line2d_7">
      <g>
       <use xlink:href="#m9c9063287e" x="319.530754" y="307.584" style="stroke: #000000; stroke-width: 0.8"/>
      </g>
     </g>
     <g id="text_7">
      <!-- 1750 -->
      <g transform="translate(306.805754 322.182437)scale(0.1 -0.1)">
       <use xlink:href="#DejaVuSans-31"/>
       <use xlink:href="#DejaVuSans-37" x="63.623047"/>
       <use xlink:href="#DejaVuSans-35" x="127.246094"/>
       <use xlink:href="#DejaVuSans-30" x="190.869141"/>
      </g>
     </g>
    </g>
    <g id="xtick_8">
     <g id="line2d_8">
      <g>
       <use xlink:href="#m9c9063287e" x="361.174488" y="307.584" style="stroke: #000000; stroke-width: 0.8"/>
      </g>
     </g>
     <g id="text_8">
      <!-- 2000 -->
      <g transform="translate(348.449488 322.182437)scale(0.1 -0.1)">
       <use xlink:href="#DejaVuSans-32"/>
       <use xlink:href="#DejaVuSans-30" x="63.623047"/>
       <use xlink:href="#DejaVuSans-30" x="127.246094"/>
       <use xlink:href="#DejaVuSans-30" x="190.869141"/>
      </g>
     </g>
    </g>
    <g id="xtick_9">
     <g id="line2d_9">
      <g>
       <use xlink:href="#m9c9063287e" x="402.818221" y="307.584" style="stroke: #000000; stroke-width: 0.8"/>
      </g>
     </g>
     <g id="text_9">
      <!-- 2250 -->
      <g transform="translate(390.093221 322.182437)scale(0.1 -0.1)">
       <use xlink:href="#DejaVuSans-32"/>
       <use xlink:href="#DejaVuSans-32" x="63.623047"/>
       <use xlink:href="#DejaVuSans-35" x="127.246094"/>
       <use xlink:href="#DejaVuSans-30" x="190.869141"/>
      </g>
     </g>
    </g>
    <g id="text_10">
     <!-- Learned Episodes -->
     <g transform="translate(192.102187 335.860562)scale(0.1 -0.1)">
      <defs>
       <path id="DejaVuSans-4c" d="M 628 4666 
L 1259 4666 
L 1259 531 
L 3531 531 
L 3531 0 
L 628 0 
L 628 4666 
z
" transform="scale(0.015625)"/>
       <path id="DejaVuSans-65" d="M 3597 1894 
L 3597 1613 
L 953 1613 
Q 991 1019 1311 708 
Q 1631 397 2203 397 
Q 2534 397 2845 478 
Q 3156 559 3463 722 
L 3463 178 
Q 3153 47 2828 -22 
Q 2503 -91 2169 -91 
Q 1331 -91 842 396 
Q 353 884 353 1716 
Q 353 2575 817 3079 
Q 1281 3584 2069 3584 
Q 2775 3584 3186 3129 
Q 3597 2675 3597 1894 
z
M 3022 2063 
Q 3016 2534 2758 2815 
Q 2500 3097 2075 3097 
Q 1594 3097 1305 2825 
Q 1016 2553 972 2059 
L 3022 2063 
z
" transform="scale(0.015625)"/>
       <path id="DejaVuSans-61" d="M 2194 1759 
Q 1497 1759 1228 1600 
Q 959 1441 959 1056 
Q 959 750 1161 570 
Q 1363 391 1709 391 
Q 2188 391 2477 730 
Q 2766 1069 2766 1631 
L 2766 1759 
L 2194 1759 
z
M 3341 1997 
L 3341 0 
L 2766 0 
L 2766 531 
Q 2569 213 2275 61 
Q 1981 -91 1556 -91 
Q 1019 -91 701 211 
Q 384 513 384 1019 
Q 384 1609 779 1909 
Q 1175 2209 1959 2209 
L 2766 2209 
L 2766 2266 
Q 2766 2663 2505 2880 
Q 2244 3097 1772 3097 
Q 1472 3097 1187 3025 
Q 903 2953 641 2809 
L 641 3341 
Q 956 3463 1253 3523 
Q 1550 3584 1831 3584 
Q 2591 3584 2966 3190 
Q 3341 2797 3341 1997 
z
" transform="scale(0.015625)"/>
       <path id="DejaVuSans-72" d="M 2631 2963 
Q 2534 3019 2420 3045 
Q 2306 3072 2169 3072 
Q 1681 3072 1420 2755 
Q 1159 2438 1159 1844 
L 1159 0 
L 581 0 
L 581 3500 
L 1159 3500 
L 1159 2956 
Q 1341 3275 1631 3429 
Q 1922 3584 2338 3584 
Q 2397 3584 2469 3576 
Q 2541 3569 2628 3553 
L 2631 2963 
z
" transform="scale(0.015625)"/>
       <path id="DejaVuSans-6e" d="M 3513 2113 
L 3513 0 
L 2938 0 
L 2938 2094 
Q 2938 2591 2744 2837 
Q 2550 3084 2163 3084 
Q 1697 3084 1428 2787 
Q 1159 2491 1159 1978 
L 1159 0 
L 581 0 
L 581 3500 
L 1159 3500 
L 1159 2956 
Q 1366 3272 1645 3428 
Q 1925 3584 2291 3584 
Q 2894 3584 3203 3211 
Q 3513 2838 3513 2113 
z
" transform="scale(0.015625)"/>
       <path id="DejaVuSans-64" d="M 2906 2969 
L 2906 4863 
L 3481 4863 
L 3481 0 
L 2906 0 
L 2906 525 
Q 2725 213 2448 61 
Q 2172 -91 1784 -91 
Q 1150 -91 751 415 
Q 353 922 353 1747 
Q 353 2572 751 3078 
Q 1150 3584 1784 3584 
Q 2172 3584 2448 3432 
Q 2725 3281 2906 2969 
z
M 947 1747 
Q 947 1113 1208 752 
Q 1469 391 1925 391 
Q 2381 391 2643 752 
Q 2906 1113 2906 1747 
Q 2906 2381 2643 2742 
Q 2381 3103 1925 3103 
Q 1469 3103 1208 2742 
Q 947 2381 947 1747 
z
" transform="scale(0.015625)"/>
       <path id="DejaVuSans-20" transform="scale(0.015625)"/>
       <path id="DejaVuSans-45" d="M 628 4666 
L 3578 4666 
L 3578 4134 
L 1259 4134 
L 1259 2753 
L 3481 2753 
L 3481 2222 
L 1259 2222 
L 1259 531 
L 3634 531 
L 3634 0 
L 628 0 
L 628 4666 
z
" transform="scale(0.015625)"/>
       <path id="DejaVuSans-70" d="M 1159 525 
L 1159 -1331 
L 581 -1331 
L 581 3500 
L 1159 3500 
L 1159 2969 
Q 1341 3281 1617 3432 
Q 1894 3584 2278 3584 
Q 2916 3584 3314 3078 
Q 3713 2572 3713 1747 
Q 3713 922 3314 415 
Q 2916 -91 2278 -91 
Q 1894 -91 1617 61 
Q 1341 213 1159 525 
z
M 3116 1747 
Q 3116 2381 2855 2742 
Q 2594 3103 2138 3103 
Q 1681 3103 1420 2742 
Q 1159 2381 1159 1747 
Q 1159 1113 1420 752 
Q 1681 391 2138 391 
Q 2594 391 2855 752 
Q 3116 1113 3116 1747 
z
" transform="scale(0.015625)"/>
       <path id="DejaVuSans-69" d="M 603 3500 
L 1178 3500 
L 1178 0 
L 603 0 
L 603 3500 
z
M 603 4863 
L 1178 4863 
L 1178 4134 
L 603 4134 
L 603 4863 
z
" transform="scale(0.015625)"/>
       <path id="DejaVuSans-73" d="M 2834 3397 
L 2834 2853 
Q 2591 2978 2328 3040 
Q 2066 3103 1784 3103 
Q 1356 3103 1142 2972 
Q 928 2841 928 2578 
Q 928 2378 1081 2264 
Q 1234 2150 1697 2047 
L 1894 2003 
Q 2506 1872 2764 1633 
Q 3022 1394 3022 966 
Q 3022 478 2636 193 
Q 2250 -91 1575 -91 
Q 1294 -91 989 -36 
Q 684 19 347 128 
L 347 722 
Q 666 556 975 473 
Q 1284 391 1588 391 
Q 1994 391 2212 530 
Q 2431 669 2431 922 
Q 2431 1156 2273 1281 
Q 2116 1406 1581 1522 
L 1381 1569 
Q 847 1681 609 1914 
Q 372 2147 372 2553 
Q 372 3047 722 3315 
Q 1072 3584 1716 3584 
Q 2034 3584 2315 3537 
Q 2597 3491 2834 3397 
z
" transform="scale(0.015625)"/>
       <path id="DejaVuSans-6f" d="M 1959 3097 
Q 1497 3097 1228 2736 
Q 959 2375 959 1747 
Q 959 1119 1226 758 
Q 1494 397 1959 397 
Q 2419 397 2687 759 
Q 2956 1122 2956 1747 
Q 2956 2369 2687 2733 
Q 2419 3097 1959 3097 
z
M 1959 3584 
Q 2709 3584 3137 3096 
Q 3566 2609 3566 1747 
Q 3566 888 3137 398 
Q 2709 -91 1959 -91 
Q 1206 -91 779 398 
Q 353 888 353 1747 
Q 353 2609 779 3096 
Q 1206 3584 1959 3584 
z
" transform="scale(0.015625)"/>
      </defs>
      <use xlink:href="#DejaVuSans-4c"/>
      <use xlink:href="#DejaVuSans-65" x="53.962891"/>
      <use xlink:href="#DejaVuSans-61" x="115.486328"/>
      <use xlink:href="#DejaVuSans-72" x="176.765625"/>
      <use xlink:href="#DejaVuSans-6e" x="216.128906"/>
      <use xlink:href="#DejaVuSans-65" x="279.507812"/>
      <use xlink:href="#DejaVuSans-64" x="341.03125"/>
      <use xlink:href="#DejaVuSans-20" x="404.507812"/>
      <use xlink:href="#DejaVuSans-45" x="436.294922"/>
      <use xlink:href="#DejaVuSans-70" x="499.478516"/>
      <use xlink:href="#DejaVuSans-69" x="562.955078"/>
      <use xlink:href="#DejaVuSans-73" x="590.738281"/>
      <use xlink:href="#DejaVuSans-6f" x="642.837891"/>
      <use xlink:href="#DejaVuSans-64" x="704.019531"/>
      <use xlink:href="#DejaVuSans-65" x="767.496094"/>
      <use xlink:href="#DejaVuSans-73" x="829.019531"/>
     </g>
    </g>
   </g>
   <g id="matplotlib.axis_2">
    <g id="ytick_1">
     <g id="line2d_10">
      <defs>
       <path id="mc2e0796a05" d="M 0 0 
L -3.5 0 
" style="stroke: #000000; stroke-width: 0.8"/>
      </defs>
      <g>
       <use xlink:href="#mc2e0796a05" x="57.6" y="299.542525" style="stroke: #000000; stroke-width: 0.8"/>
      </g>
     </g>
     <g id="text_11">
      <!-- 50 -->
      <g transform="translate(37.875 303.341744)scale(0.1 -0.1)">
       <use xlink:href="#DejaVuSans-35"/>
       <use xlink:href="#DejaVuSans-30" x="63.623047"/>
      </g>
     </g>
    </g>
    <g id="ytick_2">
     <g id="line2d_11">
      <g>
       <use xlink:href="#mc2e0796a05" x="57.6" y="265.754816" style="stroke: #000000; stroke-width: 0.8"/>
      </g>
     </g>
     <g id="text_12">
      <!-- 75 -->
      <g transform="translate(37.875 269.554034)scale(0.1 -0.1)">
       <use xlink:href="#DejaVuSans-37"/>
       <use xlink:href="#DejaVuSans-35" x="63.623047"/>
      </g>
     </g>
    </g>
    <g id="ytick_3">
     <g id="line2d_12">
      <g>
       <use xlink:href="#mc2e0796a05" x="57.6" y="231.967106" style="stroke: #000000; stroke-width: 0.8"/>
      </g>
     </g>
     <g id="text_13">
      <!-- 100 -->
      <g transform="translate(31.5125 235.766325)scale(0.1 -0.1)">
       <use xlink:href="#DejaVuSans-31"/>
       <use xlink:href="#DejaVuSans-30" x="63.623047"/>
       <use xlink:href="#DejaVuSans-30" x="127.246094"/>
      </g>
     </g>
    </g>
    <g id="ytick_4">
     <g id="line2d_13">
      <g>
       <use xlink:href="#mc2e0796a05" x="57.6" y="198.179397" style="stroke: #000000; stroke-width: 0.8"/>
      </g>
     </g>
     <g id="text_14">
      <!-- 125 -->
      <g transform="translate(31.5125 201.978615)scale(0.1 -0.1)">
       <use xlink:href="#DejaVuSans-31"/>
       <use xlink:href="#DejaVuSans-32" x="63.623047"/>
       <use xlink:href="#DejaVuSans-35" x="127.246094"/>
      </g>
     </g>
    </g>
    <g id="ytick_5">
     <g id="line2d_14">
      <g>
       <use xlink:href="#mc2e0796a05" x="57.6" y="164.391687" style="stroke: #000000; stroke-width: 0.8"/>
      </g>
     </g>
     <g id="text_15">
      <!-- 150 -->
      <g transform="translate(31.5125 168.190906)scale(0.1 -0.1)">
       <use xlink:href="#DejaVuSans-31"/>
       <use xlink:href="#DejaVuSans-35" x="63.623047"/>
       <use xlink:href="#DejaVuSans-30" x="127.246094"/>
      </g>
     </g>
    </g>
    <g id="ytick_6">
     <g id="line2d_15">
      <g>
       <use xlink:href="#mc2e0796a05" x="57.6" y="130.603978" style="stroke: #000000; stroke-width: 0.8"/>
      </g>
     </g>
     <g id="text_16">
      <!-- 175 -->
      <g transform="translate(31.5125 134.403196)scale(0.1 -0.1)">
       <use xlink:href="#DejaVuSans-31"/>
       <use xlink:href="#DejaVuSans-37" x="63.623047"/>
       <use xlink:href="#DejaVuSans-35" x="127.246094"/>
      </g>
     </g>
    </g>
    <g id="ytick_7">
     <g id="line2d_16">
      <g>
       <use xlink:href="#mc2e0796a05" x="57.6" y="96.816268" style="stroke: #000000; stroke-width: 0.8"/>
      </g>
     </g>
     <g id="text_17">
      <!-- 200 -->
      <g transform="translate(31.5125 100.615487)scale(0.1 -0.1)">
       <use xlink:href="#DejaVuSans-32"/>
       <use xlink:href="#DejaVuSans-30" x="63.623047"/>
       <use xlink:href="#DejaVuSans-30" x="127.246094"/>
      </g>
     </g>
    </g>
    <g id="ytick_8">
     <g id="line2d_17">
      <g>
       <use xlink:href="#mc2e0796a05" x="57.6" y="63.028559" style="stroke: #000000; stroke-width: 0.8"/>
      </g>
     </g>
     <g id="text_18">
      <!-- 225 -->
      <g transform="translate(31.5125 66.827777)scale(0.1 -0.1)">
       <use xlink:href="#DejaVuSans-32"/>
       <use xlink:href="#DejaVuSans-32" x="63.623047"/>
       <use xlink:href="#DejaVuSans-35" x="127.246094"/>
      </g>
     </g>
    </g>
    <g id="text_19">
     <!-- Reward Density -->
     <g transform="translate(25.432812 213.74675)rotate(-90)scale(0.1 -0.1)">
      <defs>
       <path id="DejaVuSans-52" d="M 2841 2188 
Q 3044 2119 3236 1894 
Q 3428 1669 3622 1275 
L 4263 0 
L 3584 0 
L 2988 1197 
Q 2756 1666 2539 1819 
Q 2322 1972 1947 1972 
L 1259 1972 
L 1259 0 
L 628 0 
L 628 4666 
L 2053 4666 
Q 2853 4666 3247 4331 
Q 3641 3997 3641 3322 
Q 3641 2881 3436 2590 
Q 3231 2300 2841 2188 
z
M 1259 4147 
L 1259 2491 
L 2053 2491 
Q 2509 2491 2742 2702 
Q 2975 2913 2975 3322 
Q 2975 3731 2742 3939 
Q 2509 4147 2053 4147 
L 1259 4147 
z
" transform="scale(0.015625)"/>
       <path id="DejaVuSans-77" d="M 269 3500 
L 844 3500 
L 1563 769 
L 2278 3500 
L 2956 3500 
L 3675 769 
L 4391 3500 
L 4966 3500 
L 4050 0 
L 3372 0 
L 2619 2869 
L 1863 0 
L 1184 0 
L 269 3500 
z
" transform="scale(0.015625)"/>
       <path id="DejaVuSans-44" d="M 1259 4147 
L 1259 519 
L 2022 519 
Q 2988 519 3436 956 
Q 3884 1394 3884 2338 
Q 3884 3275 3436 3711 
Q 2988 4147 2022 4147 
L 1259 4147 
z
M 628 4666 
L 1925 4666 
Q 3281 4666 3915 4102 
Q 4550 3538 4550 2338 
Q 4550 1131 3912 565 
Q 3275 0 1925 0 
L 628 0 
L 628 4666 
z
" transform="scale(0.015625)"/>
       <path id="DejaVuSans-74" d="M 1172 4494 
L 1172 3500 
L 2356 3500 
L 2356 3053 
L 1172 3053 
L 1172 1153 
Q 1172 725 1289 603 
Q 1406 481 1766 481 
L 2356 481 
L 2356 0 
L 1766 0 
Q 1100 0 847 248 
Q 594 497 594 1153 
L 594 3053 
L 172 3053 
L 172 3500 
L 594 3500 
L 594 4494 
L 1172 4494 
z
" transform="scale(0.015625)"/>
       <path id="DejaVuSans-79" d="M 2059 -325 
Q 1816 -950 1584 -1140 
Q 1353 -1331 966 -1331 
L 506 -1331 
L 506 -850 
L 844 -850 
Q 1081 -850 1212 -737 
Q 1344 -625 1503 -206 
L 1606 56 
L 191 3500 
L 800 3500 
L 1894 763 
L 2988 3500 
L 3597 3500 
L 2059 -325 
z
" transform="scale(0.015625)"/>
      </defs>
      <use xlink:href="#DejaVuSans-52"/>
      <use xlink:href="#DejaVuSans-65" x="64.982422"/>
      <use xlink:href="#DejaVuSans-77" x="126.505859"/>
      <use xlink:href="#DejaVuSans-61" x="208.292969"/>
      <use xlink:href="#DejaVuSans-72" x="269.572266"/>
      <use xlink:href="#DejaVuSans-64" x="308.935547"/>
      <use xlink:href="#DejaVuSans-20" x="372.412109"/>
      <use xlink:href="#DejaVuSans-44" x="404.199219"/>
      <use xlink:href="#DejaVuSans-65" x="481.201172"/>
      <use xlink:href="#DejaVuSans-6e" x="542.724609"/>
      <use xlink:href="#DejaVuSans-73" x="606.103516"/>
      <use xlink:href="#DejaVuSans-69" x="658.203125"/>
      <use xlink:href="#DejaVuSans-74" x="685.986328"/>
      <use xlink:href="#DejaVuSans-79" x="725.195312"/>
     </g>
    </g>
   </g>
   <g id="LineCollection_1">
    <path d="M 92.572407 167.078486 
L 130.051767 167.078486 
" clip-path="url(#pe4e9bfa4bb)" style="fill: none; stroke: #1f77b4; stroke-width: 1.5"/>
    <path d="M 175.859874 164.694425 
L 213.339234 164.694425 
" clip-path="url(#pe4e9bfa4bb)" style="fill: none; stroke: #1f77b4; stroke-width: 1.5"/>
    <path d="M 259.147341 163.526722 
L 296.626701 163.526722 
" clip-path="url(#pe4e9bfa4bb)" style="fill: none; stroke: #1f77b4; stroke-width: 1.5"/>
    <path d="M 342.268233 166.667627 
L 379.747593 166.667627 
" clip-path="url(#pe4e9bfa4bb)" style="fill: none; stroke: #1f77b4; stroke-width: 1.5"/>
   </g>
   <g id="LineCollection_2">
    <path d="M 92.572407 58.974034 
L 130.051767 58.974034 
" clip-path="url(#pe4e9bfa4bb)" style="fill: none; stroke: #1f77b4; stroke-width: 1.5"/>
    <path d="M 175.859874 53.568 
L 213.339234 53.568 
" clip-path="url(#pe4e9bfa4bb)" style="fill: none; stroke: #1f77b4; stroke-width: 1.5"/>
    <path d="M 259.147341 68.434592 
L 296.626701 68.434592 
" clip-path="url(#pe4e9bfa4bb)" style="fill: none; stroke: #1f77b4; stroke-width: 1.5"/>
    <path d="M 342.268233 71.137609 
L 379.747593 71.137609 
" clip-path="url(#pe4e9bfa4bb)" style="fill: none; stroke: #1f77b4; stroke-width: 1.5"/>
   </g>
   <g id="LineCollection_3">
    <path d="M 92.572407 295.488 
L 130.051767 295.488 
" clip-path="url(#pe4e9bfa4bb)" style="fill: none; stroke: #1f77b4; stroke-width: 1.5"/>
    <path d="M 175.859874 269.809341 
L 213.339234 269.809341 
" clip-path="url(#pe4e9bfa4bb)" style="fill: none; stroke: #1f77b4; stroke-width: 1.5"/>
    <path d="M 259.147341 284.675933 
L 296.626701 284.675933 
" clip-path="url(#pe4e9bfa4bb)" style="fill: none; stroke: #1f77b4; stroke-width: 1.5"/>
    <path d="M 342.268233 253.59124 
L 379.747593 253.59124 
" clip-path="url(#pe4e9bfa4bb)" style="fill: none; stroke: #1f77b4; stroke-width: 1.5"/>
   </g>
   <g id="LineCollection_4">
    <path d="M 111.312087 295.488 
L 111.312087 58.974034 
" clip-path="url(#pe4e9bfa4bb)" style="fill: none; stroke: #1f77b4; stroke-width: 1.5"/>
    <path d="M 194.599554 269.809341 
L 194.599554 53.568 
" clip-path="url(#pe4e9bfa4bb)" style="fill: none; stroke: #1f77b4; stroke-width: 1.5"/>
    <path d="M 277.887021 284.675933 
L 277.887021 68.434592 
" clip-path="url(#pe4e9bfa4bb)" style="fill: none; stroke: #1f77b4; stroke-width: 1.5"/>
    <path d="M 361.007913 253.59124 
L 361.007913 71.137609 
" clip-path="url(#pe4e9bfa4bb)" style="fill: none; stroke: #1f77b4; stroke-width: 1.5"/>
   </g>
   <g id="line2d_18">
    <path d="M 111.312087 167.078486 
L 194.599554 164.694425 
L 277.887021 163.526722 
L 361.007913 166.667627 
" clip-path="url(#pe4e9bfa4bb)" style="fill: none; stroke: #4682b4; stroke-width: 1.5; stroke-linecap: square"/>
   </g>
   <g id="patch_3">
    <path d="M 57.6 307.584 
L 57.6 41.472 
" style="fill: none; stroke: #000000; stroke-width: 0.8; stroke-linejoin: miter; stroke-linecap: square"/>
   </g>
   <g id="patch_4">
    <path d="M 414.72 307.584 
L 414.72 41.472 
" style="fill: none; stroke: #000000; stroke-width: 0.8; stroke-linejoin: miter; stroke-linecap: square"/>
   </g>
   <g id="patch_5">
    <path d="M 57.6 307.584 
L 414.72 307.584 
" style="fill: none; stroke: #000000; stroke-width: 0.8; stroke-linejoin: miter; stroke-linecap: square"/>
   </g>
   <g id="patch_6">
    <path d="M 57.6 41.472 
L 414.72 41.472 
" style="fill: none; stroke: #000000; stroke-width: 0.8; stroke-linejoin: miter; stroke-linecap: square"/>
   </g>
   <g id="text_20">
    <!-- Violinplot for progress of owner/rebuys -->
    <g transform="translate(119.788125 35.472)scale(0.12 -0.12)">
     <defs>
      <path id="DejaVuSans-56" d="M 1831 0 
L 50 4666 
L 709 4666 
L 2188 738 
L 3669 4666 
L 4325 4666 
L 2547 0 
L 1831 0 
z
" transform="scale(0.015625)"/>
      <path id="DejaVuSans-6c" d="M 603 4863 
L 1178 4863 
L 1178 0 
L 603 0 
L 603 4863 
z
" transform="scale(0.015625)"/>
      <path id="DejaVuSans-66" d="M 2375 4863 
L 2375 4384 
L 1825 4384 
Q 1516 4384 1395 4259 
Q 1275 4134 1275 3809 
L 1275 3500 
L 2222 3500 
L 2222 3053 
L 1275 3053 
L 1275 0 
L 697 0 
L 697 3053 
L 147 3053 
L 147 3500 
L 697 3500 
L 697 3744 
Q 697 4328 969 4595 
Q 1241 4863 1831 4863 
L 2375 4863 
z
" transform="scale(0.015625)"/>
      <path id="DejaVuSans-67" d="M 2906 1791 
Q 2906 2416 2648 2759 
Q 2391 3103 1925 3103 
Q 1463 3103 1205 2759 
Q 947 2416 947 1791 
Q 947 1169 1205 825 
Q 1463 481 1925 481 
Q 2391 481 2648 825 
Q 2906 1169 2906 1791 
z
M 3481 434 
Q 3481 -459 3084 -895 
Q 2688 -1331 1869 -1331 
Q 1566 -1331 1297 -1286 
Q 1028 -1241 775 -1147 
L 775 -588 
Q 1028 -725 1275 -790 
Q 1522 -856 1778 -856 
Q 2344 -856 2625 -561 
Q 2906 -266 2906 331 
L 2906 616 
Q 2728 306 2450 153 
Q 2172 0 1784 0 
Q 1141 0 747 490 
Q 353 981 353 1791 
Q 353 2603 747 3093 
Q 1141 3584 1784 3584 
Q 2172 3584 2450 3431 
Q 2728 3278 2906 2969 
L 2906 3500 
L 3481 3500 
L 3481 434 
z
" transform="scale(0.015625)"/>
      <path id="DejaVuSans-2f" d="M 1625 4666 
L 2156 4666 
L 531 -594 
L 0 -594 
L 1625 4666 
z
" transform="scale(0.015625)"/>
      <path id="DejaVuSans-62" d="M 3116 1747 
Q 3116 2381 2855 2742 
Q 2594 3103 2138 3103 
Q 1681 3103 1420 2742 
Q 1159 2381 1159 1747 
Q 1159 1113 1420 752 
Q 1681 391 2138 391 
Q 2594 391 2855 752 
Q 3116 1113 3116 1747 
z
M 1159 2969 
Q 1341 3281 1617 3432 
Q 1894 3584 2278 3584 
Q 2916 3584 3314 3078 
Q 3713 2572 3713 1747 
Q 3713 922 3314 415 
Q 2916 -91 2278 -91 
Q 1894 -91 1617 61 
Q 1341 213 1159 525 
L 1159 0 
L 581 0 
L 581 4863 
L 1159 4863 
L 1159 2969 
z
" transform="scale(0.015625)"/>
      <path id="DejaVuSans-75" d="M 544 1381 
L 544 3500 
L 1119 3500 
L 1119 1403 
Q 1119 906 1312 657 
Q 1506 409 1894 409 
Q 2359 409 2629 706 
Q 2900 1003 2900 1516 
L 2900 3500 
L 3475 3500 
L 3475 0 
L 2900 0 
L 2900 538 
Q 2691 219 2414 64 
Q 2138 -91 1772 -91 
Q 1169 -91 856 284 
Q 544 659 544 1381 
z
M 1991 3584 
L 1991 3584 
z
" transform="scale(0.015625)"/>
     </defs>
     <use xlink:href="#DejaVuSans-56"/>
     <use xlink:href="#DejaVuSans-69" x="66.158203"/>
     <use xlink:href="#DejaVuSans-6f" x="93.941406"/>
     <use xlink:href="#DejaVuSans-6c" x="155.123047"/>
     <use xlink:href="#DejaVuSans-69" x="182.90625"/>
     <use xlink:href="#DejaVuSans-6e" x="210.689453"/>
     <use xlink:href="#DejaVuSans-70" x="274.068359"/>
     <use xlink:href="#DejaVuSans-6c" x="337.544922"/>
     <use xlink:href="#DejaVuSans-6f" x="365.328125"/>
     <use xlink:href="#DejaVuSans-74" x="426.509766"/>
     <use xlink:href="#DejaVuSans-20" x="465.71875"/>
     <use xlink:href="#DejaVuSans-66" x="497.505859"/>
     <use xlink:href="#DejaVuSans-6f" x="532.710938"/>
     <use xlink:href="#DejaVuSans-72" x="593.892578"/>
     <use xlink:href="#DejaVuSans-20" x="635.005859"/>
     <use xlink:href="#DejaVuSans-70" x="666.792969"/>
     <use xlink:href="#DejaVuSans-72" x="730.269531"/>
     <use xlink:href="#DejaVuSans-6f" x="769.132812"/>
     <use xlink:href="#DejaVuSans-67" x="830.314453"/>
     <use xlink:href="#DejaVuSans-72" x="893.791016"/>
     <use xlink:href="#DejaVuSans-65" x="932.654297"/>
     <use xlink:href="#DejaVuSans-73" x="994.177734"/>
     <use xlink:href="#DejaVuSans-73" x="1046.277344"/>
     <use xlink:href="#DejaVuSans-20" x="1098.376953"/>
     <use xlink:href="#DejaVuSans-6f" x="1130.164062"/>
     <use xlink:href="#DejaVuSans-66" x="1191.345703"/>
     <use xlink:href="#DejaVuSans-20" x="1226.550781"/>
     <use xlink:href="#DejaVuSans-6f" x="1258.337891"/>
     <use xlink:href="#DejaVuSans-77" x="1319.519531"/>
     <use xlink:href="#DejaVuSans-6e" x="1401.306641"/>
     <use xlink:href="#DejaVuSans-65" x="1464.685547"/>
     <use xlink:href="#DejaVuSans-72" x="1526.208984"/>
     <use xlink:href="#DejaVuSans-2f" x="1567.322266"/>
     <use xlink:href="#DejaVuSans-72" x="1601.013672"/>
     <use xlink:href="#DejaVuSans-65" x="1639.876953"/>
     <use xlink:href="#DejaVuSans-62" x="1701.400391"/>
     <use xlink:href="#DejaVuSans-75" x="1764.876953"/>
     <use xlink:href="#DejaVuSans-79" x="1828.255859"/>
     <use xlink:href="#DejaVuSans-73" x="1887.435547"/>
    </g>
   </g>
   <g id="legend_1">
    <g id="patch_7">
     <path d="M 284.430938 64.150125 
L 407.72 64.150125 
Q 409.72 64.150125 409.72 62.150125 
L 409.72 48.472 
Q 409.72 46.472 407.72 46.472 
L 284.430938 46.472 
Q 282.430938 46.472 282.430938 48.472 
L 282.430938 62.150125 
Q 282.430938 64.150125 284.430938 64.150125 
z
" style="fill: #ffffff; opacity: 0.8; stroke: #cccccc; stroke-linejoin: miter"/>
    </g>
    <g id="line2d_19">
     <path d="M 286.430938 54.570438 
L 296.430938 54.570438 
L 306.430938 54.570438 
" style="fill: none; stroke: #4682b4; stroke-width: 1.5; stroke-linecap: square"/>
    </g>
    <g id="text_21">
     <!-- Storage-Minimizer -->
     <g transform="translate(314.430938 58.070438)scale(0.1 -0.1)">
      <defs>
       <path id="DejaVuSans-53" d="M 3425 4513 
L 3425 3897 
Q 3066 4069 2747 4153 
Q 2428 4238 2131 4238 
Q 1616 4238 1336 4038 
Q 1056 3838 1056 3469 
Q 1056 3159 1242 3001 
Q 1428 2844 1947 2747 
L 2328 2669 
Q 3034 2534 3370 2195 
Q 3706 1856 3706 1288 
Q 3706 609 3251 259 
Q 2797 -91 1919 -91 
Q 1588 -91 1214 -16 
Q 841 59 441 206 
L 441 856 
Q 825 641 1194 531 
Q 1563 422 1919 422 
Q 2459 422 2753 634 
Q 3047 847 3047 1241 
Q 3047 1584 2836 1778 
Q 2625 1972 2144 2069 
L 1759 2144 
Q 1053 2284 737 2584 
Q 422 2884 422 3419 
Q 422 4038 858 4394 
Q 1294 4750 2059 4750 
Q 2388 4750 2728 4690 
Q 3069 4631 3425 4513 
z
" transform="scale(0.015625)"/>
       <path id="DejaVuSans-2d" d="M 313 2009 
L 1997 2009 
L 1997 1497 
L 313 1497 
L 313 2009 
z
" transform="scale(0.015625)"/>
       <path id="DejaVuSans-4d" d="M 628 4666 
L 1569 4666 
L 2759 1491 
L 3956 4666 
L 4897 4666 
L 4897 0 
L 4281 0 
L 4281 4097 
L 3078 897 
L 2444 897 
L 1241 4097 
L 1241 0 
L 628 0 
L 628 4666 
z
" transform="scale(0.015625)"/>
       <path id="DejaVuSans-6d" d="M 3328 2828 
Q 3544 3216 3844 3400 
Q 4144 3584 4550 3584 
Q 5097 3584 5394 3201 
Q 5691 2819 5691 2113 
L 5691 0 
L 5113 0 
L 5113 2094 
Q 5113 2597 4934 2840 
Q 4756 3084 4391 3084 
Q 3944 3084 3684 2787 
Q 3425 2491 3425 1978 
L 3425 0 
L 2847 0 
L 2847 2094 
Q 2847 2600 2669 2842 
Q 2491 3084 2119 3084 
Q 1678 3084 1418 2786 
Q 1159 2488 1159 1978 
L 1159 0 
L 581 0 
L 581 3500 
L 1159 3500 
L 1159 2956 
Q 1356 3278 1631 3431 
Q 1906 3584 2284 3584 
Q 2666 3584 2933 3390 
Q 3200 3197 3328 2828 
z
" transform="scale(0.015625)"/>
       <path id="DejaVuSans-7a" d="M 353 3500 
L 3084 3500 
L 3084 2975 
L 922 459 
L 3084 459 
L 3084 0 
L 275 0 
L 275 525 
L 2438 3041 
L 353 3041 
L 353 3500 
z
" transform="scale(0.015625)"/>
      </defs>
      <use xlink:href="#DejaVuSans-53"/>
      <use xlink:href="#DejaVuSans-74" x="63.476562"/>
      <use xlink:href="#DejaVuSans-6f" x="102.685547"/>
      <use xlink:href="#DejaVuSans-72" x="163.867188"/>
      <use xlink:href="#DejaVuSans-61" x="204.980469"/>
      <use xlink:href="#DejaVuSans-67" x="266.259766"/>
      <use xlink:href="#DejaVuSans-65" x="329.736328"/>
      <use xlink:href="#DejaVuSans-2d" x="391.259766"/>
      <use xlink:href="#DejaVuSans-4d" x="427.34375"/>
      <use xlink:href="#DejaVuSans-69" x="513.623047"/>
      <use xlink:href="#DejaVuSans-6e" x="541.40625"/>
      <use xlink:href="#DejaVuSans-69" x="604.785156"/>
      <use xlink:href="#DejaVuSans-6d" x="632.568359"/>
      <use xlink:href="#DejaVuSans-69" x="729.980469"/>
      <use xlink:href="#DejaVuSans-7a" x="757.763672"/>
      <use xlink:href="#DejaVuSans-65" x="810.253906"/>
      <use xlink:href="#DejaVuSans-72" x="871.777344"/>
     </g>
    </g>
   </g>
  </g>
 </g>
 <defs>
  <clipPath id="pe4e9bfa4bb">
   <rect x="57.6" y="41.472" width="357.12" height="266.112"/>
  </clipPath>
 </defs>
</svg>
