<?xml version="1.0" encoding="utf-8" standalone="no"?>
<!DOCTYPE svg PUBLIC "-//W3C//DTD SVG 1.1//EN"
  "http://www.w3.org/Graphics/SVG/1.1/DTD/svg11.dtd">
<svg xmlns:xlink="http://www.w3.org/1999/xlink" width="460.8pt" height="345.6pt" viewBox="0 0 460.8 345.6" xmlns="http://www.w3.org/2000/svg" version="1.1">
 <metadata>
  <rdf:RDF xmlns:dc="http://purl.org/dc/elements/1.1/" xmlns:cc="http://creativecommons.org/ns#" xmlns:rdf="http://www.w3.org/1999/02/22-rdf-syntax-ns#">
   <cc:Work>
    <dc:type rdf:resource="http://purl.org/dc/dcmitype/StillImage"/>
    <dc:date>2022-06-20T18:30:18.326824</dc:date>
    <dc:format>image/svg+xml</dc:format>
    <dc:creator>
     <cc:Agent>
      <dc:title>Matplotlib v3.5.2, https://matplotlib.org/</dc:title>
     </cc:Agent>
    </dc:creator>
   </cc:Work>
  </rdf:RDF>
 </metadata>
 <defs>
  <style type="text/css">*{stroke-linejoin: round; stroke-linecap: butt}</style>
 </defs>
 <g id="figure_1">
  <g id="patch_1">
   <path d="M 0 345.6 
L 460.8 345.6 
L 460.8 0 
L 0 0 
z
" style="fill: #ffffff"/>
  </g>
  <g id="axes_1">
   <g id="patch_2">
    <path d="M 57.6 307.584 
L 414.72 307.584 
L 414.72 41.472 
L 57.6 41.472 
z
" style="fill: #ffffff"/>
   </g>
   <g id="PolyCollection_1">
    <path d="M 117.951572 295.488 
L 98.062208 295.488 
L 96.650027 293.249003 
L 95.188501 291.010006 
L 93.693252 288.771009 
L 92.178645 286.532013 
L 90.657375 284.293016 
L 89.140439 282.054019 
L 87.637515 279.815022 
L 86.157674 277.576025 
L 84.710338 275.337028 
L 83.3063 273.098031 
L 81.958636 270.859034 
L 80.683267 268.620038 
L 79.49901 266.381041 
L 78.426973 264.142044 
L 77.489244 261.903047 
L 76.706939 259.66405 
L 76.097798 257.425053 
L 75.67361 255.186056 
L 75.437821 252.94706 
L 75.383701 250.708063 
L 75.493404 248.469066 
L 75.738164 246.230069 
L 76.079725 243.991072 
L 76.472953 241.752075 
L 76.869416 239.513078 
L 77.221571 237.274082 
L 77.487111 235.035085 
L 77.632968 232.796088 
L 77.638497 230.557091 
L 77.497425 228.318094 
L 77.218292 226.079097 
L 76.823293 223.8401 
L 76.345606 221.601103 
L 75.825511 219.362107 
L 75.305761 217.12311 
L 74.826785 214.884113 
L 74.422331 212.645116 
L 74.116098 210.406119 
L 73.919778 208.167122 
L 73.832727 205.928125 
L 73.843234 203.689129 
L 73.931139 201.450132 
L 74.07138 199.211135 
L 74.237898 196.972138 
L 74.407358 194.733141 
L 74.562161 192.494144 
L 74.692411 190.255147 
L 74.796667 188.01615 
L 74.881516 185.777154 
L 74.960189 183.538157 
L 75.050535 181.29916 
L 75.172721 179.060163 
L 75.347005 176.821166 
L 75.59181 174.582169 
L 75.922252 172.343172 
L 76.349151 170.104176 
L 76.878477 167.865179 
L 77.511178 165.626182 
L 78.243318 163.387185 
L 79.066476 161.148188 
L 79.968415 158.909191 
L 80.933997 156.670194 
L 81.946307 154.431197 
L 82.987943 152.192201 
L 84.042323 149.953204 
L 85.094893 147.714207 
L 86.134067 145.47521 
L 87.151781 143.236213 
L 88.143617 140.997216 
L 89.108487 138.758219 
L 90.047979 136.519223 
L 90.965486 134.280226 
L 91.865263 132.041229 
L 92.751572 129.802232 
L 93.627993 127.563235 
L 94.496967 125.324238 
L 95.359584 123.085241 
L 96.215554 120.846245 
L 97.063337 118.607248 
L 97.900344 116.368251 
L 98.723173 114.129254 
L 99.527835 111.890257 
L 100.309968 109.65126 
L 101.065016 107.412263 
L 101.788408 105.173266 
L 102.475716 102.93427 
L 103.122828 100.695273 
L 103.726122 98.456276 
L 104.282633 96.217279 
L 104.790217 93.978282 
L 105.247696 91.739285 
L 105.654956 89.500288 
L 106.012999 87.261292 
L 106.323923 85.022295 
L 106.590824 82.783298 
L 106.817621 80.544301 
L 107.008817 78.305304 
L 107.169209 76.066307 
L 107.303591 73.82731 
L 108.710188 73.82731 
L 108.710188 73.82731 
L 108.844571 76.066307 
L 109.004963 78.305304 
L 109.196159 80.544301 
L 109.422956 82.783298 
L 109.689857 85.022295 
L 110.000781 87.261292 
L 110.358824 89.500288 
L 110.766084 91.739285 
L 111.223563 93.978282 
L 111.731147 96.217279 
L 112.287657 98.456276 
L 112.890951 100.695273 
L 113.538064 102.93427 
L 114.225372 105.173266 
L 114.948763 107.412263 
L 115.703812 109.65126 
L 116.485945 111.890257 
L 117.290607 114.129254 
L 118.113436 116.368251 
L 118.950443 118.607248 
L 119.798226 120.846245 
L 120.654196 123.085241 
L 121.516812 125.324238 
L 122.385787 127.563235 
L 123.262207 129.802232 
L 124.148517 132.041229 
L 125.048294 134.280226 
L 125.965801 136.519223 
L 126.905293 138.758219 
L 127.870163 140.997216 
L 128.861999 143.236213 
L 129.879713 145.47521 
L 130.918886 147.714207 
L 131.971457 149.953204 
L 133.025837 152.192201 
L 134.067473 154.431197 
L 135.079783 156.670194 
L 136.045364 158.909191 
L 136.947304 161.148188 
L 137.770462 163.387185 
L 138.502602 165.626182 
L 139.135303 167.865179 
L 139.664629 170.104176 
L 140.091527 172.343172 
L 140.42197 174.582169 
L 140.666775 176.821166 
L 140.841059 179.060163 
L 140.963245 181.29916 
L 141.053591 183.538157 
L 141.132264 185.777154 
L 141.217113 188.01615 
L 141.321369 190.255147 
L 141.451619 192.494144 
L 141.606422 194.733141 
L 141.775882 196.972138 
L 141.9424 199.211135 
L 142.082641 201.450132 
L 142.170546 203.689129 
L 142.181053 205.928125 
L 142.094002 208.167122 
L 141.897682 210.406119 
L 141.591449 212.645116 
L 141.186995 214.884113 
L 140.708019 217.12311 
L 140.188269 219.362107 
L 139.668174 221.601103 
L 139.190487 223.8401 
L 138.795488 226.079097 
L 138.516355 228.318094 
L 138.375282 230.557091 
L 138.380812 232.796088 
L 138.526669 235.035085 
L 138.792209 237.274082 
L 139.144364 239.513078 
L 139.540827 241.752075 
L 139.934055 243.991072 
L 140.275616 246.230069 
L 140.520376 248.469066 
L 140.630079 250.708063 
L 140.575959 252.94706 
L 140.34017 255.186056 
L 139.915982 257.425053 
L 139.306841 259.66405 
L 138.524536 261.903047 
L 137.586807 264.142044 
L 136.51477 266.381041 
L 135.330513 268.620038 
L 134.055144 270.859034 
L 132.707479 273.098031 
L 131.303442 275.337028 
L 129.856105 277.576025 
L 128.376265 279.815022 
L 126.87334 282.054019 
L 125.356405 284.293016 
L 123.835135 286.532013 
L 122.320528 288.771009 
L 120.825279 291.010006 
L 119.363753 293.249003 
L 117.951572 295.488 
z
" clip-path="url(#p50b361abdb)" style="fill: #1f77b4; fill-opacity: 0.3"/>
   </g>
   <g id="PolyCollection_2">
    <path d="M 195.851284 295.488 
L 191.033309 295.488 
L 190.506278 293.140665 
L 189.911272 290.793329 
L 189.24865 288.445994 
L 188.519754 286.098658 
L 187.726575 283.751323 
L 186.871416 281.403987 
L 185.956701 279.056652 
L 184.98503 276.709317 
L 183.959538 274.361981 
L 182.884543 272.014646 
L 181.766349 269.66731 
L 180.614001 267.319975 
L 179.439725 264.972639 
L 178.25883 262.625304 
L 177.08895 260.277969 
L 175.948627 257.930633 
L 174.85545 255.583298 
L 173.824061 253.235962 
L 172.864436 250.888627 
L 171.980786 248.541292 
L 171.171318 246.193956 
L 170.428884 243.846621 
L 169.742374 241.499285 
L 169.098551 239.15195 
L 168.483933 236.804614 
L 167.886426 234.457279 
L 167.296428 232.109944 
L 166.707382 229.762608 
L 166.115807 227.415273 
L 165.520995 225.067937 
L 164.924558 222.720602 
L 164.329965 220.373266 
L 163.742158 218.025931 
L 163.167202 215.678596 
L 162.61193 213.33126 
L 162.083511 210.983925 
L 161.588914 208.636589 
L 161.134344 206.289254 
L 160.724736 203.941918 
L 160.363476 201.594583 
L 160.052425 199.247248 
L 159.792282 196.899912 
L 159.583186 194.552577 
L 159.425395 192.205241 
L 159.319807 189.857906 
L 159.268134 187.510571 
L 159.272634 185.163235 
L 159.335419 182.8159 
L 159.45752 180.468564 
L 159.637945 178.121229 
L 159.873028 175.773893 
L 160.156257 173.426558 
L 160.478715 171.079223 
L 160.830071 168.731887 
L 161.199973 166.384552 
L 161.579583 164.037216 
L 161.963 161.689881 
L 162.348322 159.342545 
L 162.738185 156.99521 
L 163.139716 154.647875 
L 163.563926 152.300539 
L 164.02462 149.953204 
L 164.537017 147.605868 
L 165.116204 145.258533 
L 165.775643 142.911197 
L 166.525829 140.563862 
L 167.373238 138.216527 
L 168.319589 135.869191 
L 169.361468 133.521856 
L 170.490292 131.17452 
L 171.692612 128.827185 
L 172.950745 126.47985 
L 174.243721 124.132514 
L 175.548514 121.785179 
L 176.841493 119.437843 
L 178.099984 117.090508 
L 179.303802 114.743172 
L 180.436567 112.395837 
L 181.486661 110.048502 
L 182.447695 107.701166 
L 183.318449 105.353831 
L 184.102321 103.006495 
L 184.806394 100.65916 
L 185.44027 98.311824 
L 186.014858 95.964489 
L 186.541243 93.617154 
L 187.029773 91.269818 
L 187.489421 88.922483 
L 187.927423 86.575147 
L 188.349174 84.227812 
L 188.758322 81.880476 
L 189.156978 79.533141 
L 189.545977 77.185806 
L 189.925142 74.83847 
L 190.2935 72.491135 
L 190.649461 70.143799 
L 190.990961 67.796464 
L 191.315607 65.449129 
L 191.620827 63.101793 
L 195.263766 63.101793 
L 195.263766 63.101793 
L 195.568987 65.449129 
L 195.893632 67.796464 
L 196.235133 70.143799 
L 196.591093 72.491135 
L 196.959451 74.83847 
L 197.338616 77.185806 
L 197.727616 79.533141 
L 198.126271 81.880476 
L 198.535419 84.227812 
L 198.957171 86.575147 
L 199.395172 88.922483 
L 199.85482 91.269818 
L 200.343351 93.617154 
L 200.869735 95.964489 
L 201.444323 98.311824 
L 202.0782 100.65916 
L 202.782272 103.006495 
L 203.566144 105.353831 
L 204.436898 107.701166 
L 205.397932 110.048502 
L 206.448026 112.395837 
L 207.580791 114.743172 
L 208.784609 117.090508 
L 210.0431 119.437843 
L 211.336079 121.785179 
L 212.640873 124.132514 
L 213.933849 126.47985 
L 215.191981 128.827185 
L 216.394301 131.17452 
L 217.523125 133.521856 
L 218.565005 135.869191 
L 219.511356 138.216527 
L 220.358764 140.563862 
L 221.10895 142.911197 
L 221.768389 145.258533 
L 222.347576 147.605868 
L 222.859973 149.953204 
L 223.320668 152.300539 
L 223.744877 154.647875 
L 224.146409 156.99521 
L 224.536271 159.342545 
L 224.921593 161.689881 
L 225.305011 164.037216 
L 225.684621 166.384552 
L 226.054522 168.731887 
L 226.405878 171.079223 
L 226.728336 173.426558 
L 227.011565 175.773893 
L 227.246648 178.121229 
L 227.427074 180.468564 
L 227.549174 182.8159 
L 227.61196 185.163235 
L 227.616459 187.510571 
L 227.564786 189.857906 
L 227.459198 192.205241 
L 227.301407 194.552577 
L 227.092311 196.899912 
L 226.832168 199.247248 
L 226.521118 201.594583 
L 226.159858 203.941918 
L 225.750249 206.289254 
L 225.295679 208.636589 
L 224.801083 210.983925 
L 224.272663 213.33126 
L 223.717391 215.678596 
L 223.142435 218.025931 
L 222.554628 220.373266 
L 221.960036 222.720602 
L 221.363598 225.067937 
L 220.768786 227.415273 
L 220.177211 229.762608 
L 219.588166 232.109944 
L 218.998168 234.457279 
L 218.40066 236.804614 
L 217.786043 239.15195 
L 217.142219 241.499285 
L 216.45571 243.846621 
L 215.713275 246.193956 
L 214.903807 248.541292 
L 214.020158 250.888627 
L 213.060533 253.235962 
L 212.029143 255.583298 
L 210.935966 257.930633 
L 209.795644 260.277969 
L 208.625764 262.625304 
L 207.444869 264.972639 
L 206.270592 267.319975 
L 205.118244 269.66731 
L 204.00005 272.014646 
L 202.925055 274.361981 
L 201.899563 276.709317 
L 200.927892 279.056652 
L 200.013177 281.403987 
L 199.158018 283.751323 
L 198.364839 286.098658 
L 197.635944 288.445994 
L 196.973321 290.793329 
L 196.378315 293.140665 
L 195.851284 295.488 
z
" clip-path="url(#p50b361abdb)" style="fill: #1f77b4; fill-opacity: 0.3"/>
   </g>
   <g id="PolyCollection_3">
    <path d="M 280.615829 284.762483 
L 277.139578 284.762483 
L 276.855249 282.427185 
L 276.548305 280.091887 
L 276.216317 277.756589 
L 275.85528 275.421292 
L 275.459884 273.085994 
L 275.024169 270.750696 
L 274.542498 268.415398 
L 274.010737 266.0801 
L 273.427442 263.744803 
L 272.794847 261.409505 
L 272.119439 259.074207 
L 271.411954 256.738909 
L 270.686708 254.403611 
L 269.960283 252.068313 
L 269.249702 249.733016 
L 268.570307 247.397718 
L 267.933649 245.06242 
L 267.345685 242.727122 
L 266.805598 240.391824 
L 266.305438 238.056527 
L 265.830676 235.721229 
L 265.36165 233.385931 
L 264.875724 231.050633 
L 264.349874 228.715335 
L 263.763379 226.380038 
L 263.100242 224.04474 
L 262.351059 221.709442 
L 261.514078 219.374144 
L 260.595362 217.038846 
L 259.608049 214.703549 
L 258.57084 212.368251 
L 257.505946 210.032953 
L 256.436777 207.697655 
L 255.385689 205.362357 
L 254.372091 203.02706 
L 253.411125 200.691762 
L 252.513041 198.356464 
L 251.683281 196.021166 
L 250.923133 193.685868 
L 250.230778 191.350571 
L 249.602451 189.015273 
L 249.033502 186.679975 
L 248.519171 184.344677 
L 248.05497 182.009379 
L 247.636717 179.674082 
L 247.260288 177.338784 
L 246.921297 175.003486 
L 246.614849 172.668188 
L 246.335567 170.33289 
L 246.07795 167.997592 
L 245.837091 165.662295 
L 245.609607 163.326997 
L 245.394618 160.991699 
L 245.1945 158.656401 
L 245.015186 156.321103 
L 244.865848 153.985806 
L 244.757913 151.650508 
L 244.703541 149.31521 
L 244.7138 146.979912 
L 244.796909 144.644614 
L 244.956907 142.309317 
L 245.19306 139.974019 
L 245.50016 137.638721 
L 245.86969 135.303423 
L 246.291617 132.968125 
L 246.756467 130.632828 
L 247.257228 128.29753 
L 247.790701 125.962232 
L 248.358015 123.626934 
L 248.964219 121.291636 
L 249.617028 118.956339 
L 250.325 116.621041 
L 251.09548 114.285743 
L 251.932727 111.950445 
L 252.836545 109.615147 
L 253.801684 107.27985 
L 254.818115 104.944552 
L 255.872132 102.609254 
L 256.94809 100.273956 
L 258.03048 97.938658 
L 259.10598 95.603361 
L 260.165096 93.268063 
L 261.203112 90.932765 
L 262.220165 88.597467 
L 263.22046 86.262169 
L 264.21076 83.926871 
L 265.198483 81.591574 
L 266.189753 79.256276 
L 267.187777 76.920978 
L 268.191812 74.58568 
L 269.196875 72.250382 
L 270.194174 69.915085 
L 271.172109 67.579787 
L 272.117629 65.244489 
L 273.017665 62.909191 
L 273.860421 60.573893 
L 274.636355 58.238596 
L 275.338774 55.903298 
L 275.96404 53.568 
L 281.791366 53.568 
L 281.791366 53.568 
L 282.416633 55.903298 
L 283.119052 58.238596 
L 283.894986 60.573893 
L 284.737741 62.909191 
L 285.637777 65.244489 
L 286.583298 67.579787 
L 287.561233 69.915085 
L 288.558532 72.250382 
L 289.563595 74.58568 
L 290.56763 76.920978 
L 291.565654 79.256276 
L 292.556924 81.591574 
L 293.544647 83.926871 
L 294.534947 86.262169 
L 295.535241 88.597467 
L 296.552295 90.932765 
L 297.59031 93.268063 
L 298.649426 95.603361 
L 299.724927 97.938658 
L 300.807317 100.273956 
L 301.883274 102.609254 
L 302.937291 104.944552 
L 303.953723 107.27985 
L 304.918862 109.615147 
L 305.822679 111.950445 
L 306.659926 114.285743 
L 307.430407 116.621041 
L 308.138379 118.956339 
L 308.791188 121.291636 
L 309.397392 123.626934 
L 309.964706 125.962232 
L 310.498178 128.29753 
L 310.99894 130.632828 
L 311.46379 132.968125 
L 311.885717 135.303423 
L 312.255246 137.638721 
L 312.562347 139.974019 
L 312.798499 142.309317 
L 312.958497 144.644614 
L 313.041607 146.979912 
L 313.051866 149.31521 
L 312.997494 151.650508 
L 312.889559 153.985806 
L 312.740221 156.321103 
L 312.560907 158.656401 
L 312.360789 160.991699 
L 312.1458 163.326997 
L 311.918316 165.662295 
L 311.677456 167.997592 
L 311.41984 170.33289 
L 311.140557 172.668188 
L 310.83411 175.003486 
L 310.495118 177.338784 
L 310.11869 179.674082 
L 309.700436 182.009379 
L 309.236236 184.344677 
L 308.721904 186.679975 
L 308.152956 189.015273 
L 307.524628 191.350571 
L 306.832273 193.685868 
L 306.072126 196.021166 
L 305.242366 198.356464 
L 304.344282 200.691762 
L 303.383315 203.02706 
L 302.369718 205.362357 
L 301.31863 207.697655 
L 300.249461 210.032953 
L 299.184567 212.368251 
L 298.147358 214.703549 
L 297.160044 217.038846 
L 296.241328 219.374144 
L 295.404347 221.709442 
L 294.655164 224.04474 
L 293.992028 226.380038 
L 293.405532 228.715335 
L 292.879683 231.050633 
L 292.393757 233.385931 
L 291.924731 235.721229 
L 291.449969 238.056527 
L 290.949808 240.391824 
L 290.409722 242.727122 
L 289.821758 245.06242 
L 289.185099 247.397718 
L 288.505705 249.733016 
L 287.795124 252.068313 
L 287.068699 254.403611 
L 286.343452 256.738909 
L 285.635967 259.074207 
L 284.96056 261.409505 
L 284.327964 263.744803 
L 283.744669 266.0801 
L 283.212908 268.415398 
L 282.731238 270.750696 
L 282.295523 273.085994 
L 281.900127 275.421292 
L 281.53909 277.756589 
L 281.207102 280.091887 
L 280.900158 282.427185 
L 280.615829 284.762483 
z
" clip-path="url(#p50b361abdb)" style="fill: #1f77b4; fill-opacity: 0.3"/>
   </g>
   <g id="PolyCollection_4">
    <path d="M 364.984784 284.762483 
L 363.641436 284.762483 
L 363.479748 282.583674 
L 363.279271 280.404865 
L 363.032954 278.226056 
L 362.734904 276.047248 
L 362.38141 273.868439 
L 361.971806 271.68963 
L 361.508992 269.510821 
L 360.999457 267.332013 
L 360.452737 265.153204 
L 359.88039 262.974395 
L 359.294616 260.795586 
L 358.706805 258.616777 
L 358.126256 256.437969 
L 357.559303 254.25916 
L 357.008971 252.080351 
L 356.475185 249.901542 
L 355.955411 247.722734 
L 355.44557 245.543925 
L 354.941031 243.365116 
L 354.437504 241.186307 
L 353.931729 239.007498 
L 353.421875 236.82869 
L 352.907621 234.649881 
L 352.389906 232.471072 
L 351.870362 230.292263 
L 351.35048 228.113455 
L 350.830632 225.934646 
L 350.309136 223.755837 
L 349.78158 221.577028 
L 349.240645 219.398219 
L 348.676532 217.219411 
L 348.078022 215.040602 
L 347.433983 212.861793 
L 346.735068 210.682984 
L 345.97526 208.504176 
L 345.152985 206.325367 
L 344.271603 204.146558 
L 343.339251 201.967749 
L 342.36812 199.78894 
L 341.373345 197.610132 
L 340.371725 195.431323 
L 339.380443 193.252514 
L 338.415949 191.073705 
L 337.493078 188.894897 
L 336.624448 186.716088 
L 335.820105 184.537279 
L 335.087325 182.35847 
L 334.430505 180.179661 
L 333.851017 178.000853 
L 333.347038 175.822044 
L 332.913386 173.643235 
L 332.541559 171.464426 
L 332.220167 169.285618 
L 331.935936 167.106809 
L 331.675313 164.928 
L 331.426521 162.749191 
L 331.181716 160.570382 
L 330.938804 158.391574 
L 330.702536 156.212765 
L 330.484617 154.033956 
L 330.302843 151.855147 
L 330.179441 149.676339 
L 330.138947 147.49753 
L 330.205929 145.318721 
L 330.402783 143.139912 
L 330.747757 140.961103 
L 331.253247 138.782295 
L 331.924491 136.603486 
L 332.758789 134.424677 
L 333.74545 132.245868 
L 334.86663 130.06706 
L 336.099059 127.888251 
L 337.416478 125.709442 
L 338.79236 123.530633 
L 340.202426 121.351824 
L 341.626439 119.173016 
L 343.049016 116.994207 
L 344.459398 114.815398 
L 345.850431 112.636589 
L 347.217143 110.457781 
L 348.555358 108.278972 
L 349.860667 106.100163 
L 351.12791 103.921354 
L 352.351164 101.742545 
L 353.524082 99.563737 
L 354.640397 97.384928 
L 355.694434 95.206119 
L 356.681513 93.02731 
L 357.598222 90.848502 
L 358.442534 88.669693 
L 359.21383 86.490884 
L 359.912826 84.312075 
L 360.541434 82.133266 
L 361.102577 79.954458 
L 361.599967 77.775649 
L 362.037863 75.59684 
L 362.420834 73.418031 
L 362.753542 71.239223 
L 363.040569 69.060414 
L 365.585651 69.060414 
L 365.585651 69.060414 
L 365.872678 71.239223 
L 366.205386 73.418031 
L 366.588357 75.59684 
L 367.026253 77.775649 
L 367.523643 79.954458 
L 368.084786 82.133266 
L 368.713394 84.312075 
L 369.41239 86.490884 
L 370.183687 88.669693 
L 371.027998 90.848502 
L 371.944707 93.02731 
L 372.931787 95.206119 
L 373.985823 97.384928 
L 375.102138 99.563737 
L 376.275056 101.742545 
L 377.49831 103.921354 
L 378.765553 106.100163 
L 380.070862 108.278972 
L 381.409077 110.457781 
L 382.775789 112.636589 
L 384.166822 114.815398 
L 385.577204 116.994207 
L 386.999781 119.173016 
L 388.423794 121.351824 
L 389.83386 123.530633 
L 391.209743 125.709442 
L 392.527161 127.888251 
L 393.759591 130.06706 
L 394.88077 132.245868 
L 395.867432 134.424677 
L 396.701729 136.603486 
L 397.372973 138.782295 
L 397.878463 140.961103 
L 398.223437 143.139912 
L 398.420291 145.318721 
L 398.487273 147.49753 
L 398.446779 149.676339 
L 398.323377 151.855147 
L 398.141603 154.033956 
L 397.923684 156.212765 
L 397.687416 158.391574 
L 397.444504 160.570382 
L 397.199699 162.749191 
L 396.950907 164.928 
L 396.690284 167.106809 
L 396.406053 169.285618 
L 396.084662 171.464426 
L 395.712835 173.643235 
L 395.279182 175.822044 
L 394.775203 178.000853 
L 394.195716 180.179661 
L 393.538895 182.35847 
L 392.806115 184.537279 
L 392.001772 186.716088 
L 391.133143 188.894897 
L 390.210271 191.073705 
L 389.245777 193.252514 
L 388.254495 195.431323 
L 387.252875 197.610132 
L 386.2581 199.78894 
L 385.286969 201.967749 
L 384.354617 204.146558 
L 383.473235 206.325367 
L 382.65096 208.504176 
L 381.891152 210.682984 
L 381.192237 212.861793 
L 380.548198 215.040602 
L 379.949688 217.219411 
L 379.385576 219.398219 
L 378.84464 221.577028 
L 378.317085 223.755837 
L 377.795588 225.934646 
L 377.27574 228.113455 
L 376.755858 230.292263 
L 376.236314 232.471072 
L 375.718599 234.649881 
L 375.204345 236.82869 
L 374.694491 239.007498 
L 374.188716 241.186307 
L 373.68519 243.365116 
L 373.18065 245.543925 
L 372.670809 247.722734 
L 372.151035 249.901542 
L 371.617249 252.080351 
L 371.066918 254.25916 
L 370.499964 256.437969 
L 369.919415 258.616777 
L 369.331604 260.795586 
L 368.74583 262.974395 
L 368.173483 265.153204 
L 367.626763 267.332013 
L 367.117228 269.510821 
L 366.654414 271.68963 
L 366.244811 273.868439 
L 365.891316 276.047248 
L 365.593266 278.226056 
L 365.346949 280.404865 
L 365.146473 282.583674 
L 364.984784 284.762483 
z
" clip-path="url(#p50b361abdb)" style="fill: #1f77b4; fill-opacity: 0.3"/>
   </g>
   <g id="matplotlib.axis_1">
    <g id="xtick_1">
     <g id="line2d_1">
      <path d="M 65.289187 307.584 
L 65.289187 41.472 
" clip-path="url(#p50b361abdb)" style="fill: none; stroke-dasharray: 2.96,1.28; stroke-dashoffset: 0; stroke: #b0b0b0; stroke-width: 0.8"/>
     </g>
     <g id="line2d_2">
      <defs>
       <path id="m289a89ebee" d="M 0 0 
L 0 3.5 
" style="stroke: #000000; stroke-width: 0.8"/>
      </defs>
      <g>
       <use xlink:href="#m289a89ebee" x="65.289187" y="307.584" style="stroke: #000000; stroke-width: 0.8"/>
      </g>
     </g>
     <g id="text_1">
      <!-- 250 -->
      <g transform="translate(55.745437 322.182437)scale(0.1 -0.1)">
       <defs>
        <path id="DejaVuSans-32" d="M 1228 531 
L 3431 531 
L 3431 0 
L 469 0 
L 469 531 
Q 828 903 1448 1529 
Q 2069 2156 2228 2338 
Q 2531 2678 2651 2914 
Q 2772 3150 2772 3378 
Q 2772 3750 2511 3984 
Q 2250 4219 1831 4219 
Q 1534 4219 1204 4116 
Q 875 4013 500 3803 
L 500 4441 
Q 881 4594 1212 4672 
Q 1544 4750 1819 4750 
Q 2544 4750 2975 4387 
Q 3406 4025 3406 3419 
Q 3406 3131 3298 2873 
Q 3191 2616 2906 2266 
Q 2828 2175 2409 1742 
Q 1991 1309 1228 531 
z
" transform="scale(0.015625)"/>
        <path id="DejaVuSans-35" d="M 691 4666 
L 3169 4666 
L 3169 4134 
L 1269 4134 
L 1269 2991 
Q 1406 3038 1543 3061 
Q 1681 3084 1819 3084 
Q 2600 3084 3056 2656 
Q 3513 2228 3513 1497 
Q 3513 744 3044 326 
Q 2575 -91 1722 -91 
Q 1428 -91 1123 -41 
Q 819 9 494 109 
L 494 744 
Q 775 591 1075 516 
Q 1375 441 1709 441 
Q 2250 441 2565 725 
Q 2881 1009 2881 1497 
Q 2881 1984 2565 2268 
Q 2250 2553 1709 2553 
Q 1456 2553 1204 2497 
Q 953 2441 691 2322 
L 691 4666 
z
" transform="scale(0.015625)"/>
        <path id="DejaVuSans-30" d="M 2034 4250 
Q 1547 4250 1301 3770 
Q 1056 3291 1056 2328 
Q 1056 1369 1301 889 
Q 1547 409 2034 409 
Q 2525 409 2770 889 
Q 3016 1369 3016 2328 
Q 3016 3291 2770 3770 
Q 2525 4250 2034 4250 
z
M 2034 4750 
Q 2819 4750 3233 4129 
Q 3647 3509 3647 2328 
Q 3647 1150 3233 529 
Q 2819 -91 2034 -91 
Q 1250 -91 836 529 
Q 422 1150 422 2328 
Q 422 3509 836 4129 
Q 1250 4750 2034 4750 
z
" transform="scale(0.015625)"/>
       </defs>
       <use xlink:href="#DejaVuSans-32"/>
       <use xlink:href="#DejaVuSans-35" x="63.623047"/>
       <use xlink:href="#DejaVuSans-30" x="127.246094"/>
      </g>
     </g>
    </g>
    <g id="xtick_2">
     <g id="line2d_3">
      <path d="M 108.00689 307.584 
L 108.00689 41.472 
" clip-path="url(#p50b361abdb)" style="fill: none; stroke-dasharray: 2.96,1.28; stroke-dashoffset: 0; stroke: #b0b0b0; stroke-width: 0.8"/>
     </g>
     <g id="line2d_4">
      <g>
       <use xlink:href="#m289a89ebee" x="108.00689" y="307.584" style="stroke: #000000; stroke-width: 0.8"/>
      </g>
     </g>
     <g id="text_2">
      <!-- 500 -->
      <g transform="translate(98.46314 322.182437)scale(0.1 -0.1)">
       <use xlink:href="#DejaVuSans-35"/>
       <use xlink:href="#DejaVuSans-30" x="63.623047"/>
       <use xlink:href="#DejaVuSans-30" x="127.246094"/>
      </g>
     </g>
    </g>
    <g id="xtick_3">
     <g id="line2d_5">
      <path d="M 150.724593 307.584 
L 150.724593 41.472 
" clip-path="url(#p50b361abdb)" style="fill: none; stroke-dasharray: 2.96,1.28; stroke-dashoffset: 0; stroke: #b0b0b0; stroke-width: 0.8"/>
     </g>
     <g id="line2d_6">
      <g>
       <use xlink:href="#m289a89ebee" x="150.724593" y="307.584" style="stroke: #000000; stroke-width: 0.8"/>
      </g>
     </g>
     <g id="text_3">
      <!-- 750 -->
      <g transform="translate(141.180843 322.182437)scale(0.1 -0.1)">
       <defs>
        <path id="DejaVuSans-37" d="M 525 4666 
L 3525 4666 
L 3525 4397 
L 1831 0 
L 1172 0 
L 2766 4134 
L 525 4134 
L 525 4666 
z
" transform="scale(0.015625)"/>
       </defs>
       <use xlink:href="#DejaVuSans-37"/>
       <use xlink:href="#DejaVuSans-35" x="63.623047"/>
       <use xlink:href="#DejaVuSans-30" x="127.246094"/>
      </g>
     </g>
    </g>
    <g id="xtick_4">
     <g id="line2d_7">
      <path d="M 193.442297 307.584 
L 193.442297 41.472 
" clip-path="url(#p50b361abdb)" style="fill: none; stroke-dasharray: 2.96,1.28; stroke-dashoffset: 0; stroke: #b0b0b0; stroke-width: 0.8"/>
     </g>
     <g id="line2d_8">
      <g>
       <use xlink:href="#m289a89ebee" x="193.442297" y="307.584" style="stroke: #000000; stroke-width: 0.8"/>
      </g>
     </g>
     <g id="text_4">
      <!-- 1000 -->
      <g transform="translate(180.717297 322.182437)scale(0.1 -0.1)">
       <defs>
        <path id="DejaVuSans-31" d="M 794 531 
L 1825 531 
L 1825 4091 
L 703 3866 
L 703 4441 
L 1819 4666 
L 2450 4666 
L 2450 531 
L 3481 531 
L 3481 0 
L 794 0 
L 794 531 
z
" transform="scale(0.015625)"/>
       </defs>
       <use xlink:href="#DejaVuSans-31"/>
       <use xlink:href="#DejaVuSans-30" x="63.623047"/>
       <use xlink:href="#DejaVuSans-30" x="127.246094"/>
       <use xlink:href="#DejaVuSans-30" x="190.869141"/>
      </g>
     </g>
    </g>
    <g id="xtick_5">
     <g id="line2d_9">
      <path d="M 236.16 307.584 
L 236.16 41.472 
" clip-path="url(#p50b361abdb)" style="fill: none; stroke-dasharray: 2.96,1.28; stroke-dashoffset: 0; stroke: #b0b0b0; stroke-width: 0.8"/>
     </g>
     <g id="line2d_10">
      <g>
       <use xlink:href="#m289a89ebee" x="236.16" y="307.584" style="stroke: #000000; stroke-width: 0.8"/>
      </g>
     </g>
     <g id="text_5">
      <!-- 1250 -->
      <g transform="translate(223.435 322.182437)scale(0.1 -0.1)">
       <use xlink:href="#DejaVuSans-31"/>
       <use xlink:href="#DejaVuSans-32" x="63.623047"/>
       <use xlink:href="#DejaVuSans-35" x="127.246094"/>
       <use xlink:href="#DejaVuSans-30" x="190.869141"/>
      </g>
     </g>
    </g>
    <g id="xtick_6">
     <g id="line2d_11">
      <path d="M 278.877703 307.584 
L 278.877703 41.472 
" clip-path="url(#p50b361abdb)" style="fill: none; stroke-dasharray: 2.96,1.28; stroke-dashoffset: 0; stroke: #b0b0b0; stroke-width: 0.8"/>
     </g>
     <g id="line2d_12">
      <g>
       <use xlink:href="#m289a89ebee" x="278.877703" y="307.584" style="stroke: #000000; stroke-width: 0.8"/>
      </g>
     </g>
     <g id="text_6">
      <!-- 1500 -->
      <g transform="translate(266.152703 322.182437)scale(0.1 -0.1)">
       <use xlink:href="#DejaVuSans-31"/>
       <use xlink:href="#DejaVuSans-35" x="63.623047"/>
       <use xlink:href="#DejaVuSans-30" x="127.246094"/>
       <use xlink:href="#DejaVuSans-30" x="190.869141"/>
      </g>
     </g>
    </g>
    <g id="xtick_7">
     <g id="line2d_13">
      <path d="M 321.595407 307.584 
L 321.595407 41.472 
" clip-path="url(#p50b361abdb)" style="fill: none; stroke-dasharray: 2.96,1.28; stroke-dashoffset: 0; stroke: #b0b0b0; stroke-width: 0.8"/>
     </g>
     <g id="line2d_14">
      <g>
       <use xlink:href="#m289a89ebee" x="321.595407" y="307.584" style="stroke: #000000; stroke-width: 0.8"/>
      </g>
     </g>
     <g id="text_7">
      <!-- 1750 -->
      <g transform="translate(308.870407 322.182437)scale(0.1 -0.1)">
       <use xlink:href="#DejaVuSans-31"/>
       <use xlink:href="#DejaVuSans-37" x="63.623047"/>
       <use xlink:href="#DejaVuSans-35" x="127.246094"/>
       <use xlink:href="#DejaVuSans-30" x="190.869141"/>
      </g>
     </g>
    </g>
    <g id="xtick_8">
     <g id="line2d_15">
      <path d="M 364.31311 307.584 
L 364.31311 41.472 
" clip-path="url(#p50b361abdb)" style="fill: none; stroke-dasharray: 2.96,1.28; stroke-dashoffset: 0; stroke: #b0b0b0; stroke-width: 0.8"/>
     </g>
     <g id="line2d_16">
      <g>
       <use xlink:href="#m289a89ebee" x="364.31311" y="307.584" style="stroke: #000000; stroke-width: 0.8"/>
      </g>
     </g>
     <g id="text_8">
      <!-- 2000 -->
      <g transform="translate(351.58811 322.182437)scale(0.1 -0.1)">
       <use xlink:href="#DejaVuSans-32"/>
       <use xlink:href="#DejaVuSans-30" x="63.623047"/>
       <use xlink:href="#DejaVuSans-30" x="127.246094"/>
       <use xlink:href="#DejaVuSans-30" x="190.869141"/>
      </g>
     </g>
    </g>
    <g id="xtick_9">
     <g id="line2d_17">
      <path d="M 407.030813 307.584 
L 407.030813 41.472 
" clip-path="url(#p50b361abdb)" style="fill: none; stroke-dasharray: 2.96,1.28; stroke-dashoffset: 0; stroke: #b0b0b0; stroke-width: 0.8"/>
     </g>
     <g id="line2d_18">
      <g>
       <use xlink:href="#m289a89ebee" x="407.030813" y="307.584" style="stroke: #000000; stroke-width: 0.8"/>
      </g>
     </g>
     <g id="text_9">
      <!-- 2250 -->
      <g transform="translate(394.305813 322.182437)scale(0.1 -0.1)">
       <use xlink:href="#DejaVuSans-32"/>
       <use xlink:href="#DejaVuSans-32" x="63.623047"/>
       <use xlink:href="#DejaVuSans-35" x="127.246094"/>
       <use xlink:href="#DejaVuSans-30" x="190.869141"/>
      </g>
     </g>
    </g>
    <g id="text_10">
     <!-- Learned Episodes -->
     <g transform="translate(192.102187 335.860562)scale(0.1 -0.1)">
      <defs>
       <path id="DejaVuSans-4c" d="M 628 4666 
L 1259 4666 
L 1259 531 
L 3531 531 
L 3531 0 
L 628 0 
L 628 4666 
z
" transform="scale(0.015625)"/>
       <path id="DejaVuSans-65" d="M 3597 1894 
L 3597 1613 
L 953 1613 
Q 991 1019 1311 708 
Q 1631 397 2203 397 
Q 2534 397 2845 478 
Q 3156 559 3463 722 
L 3463 178 
Q 3153 47 2828 -22 
Q 2503 -91 2169 -91 
Q 1331 -91 842 396 
Q 353 884 353 1716 
Q 353 2575 817 3079 
Q 1281 3584 2069 3584 
Q 2775 3584 3186 3129 
Q 3597 2675 3597 1894 
z
M 3022 2063 
Q 3016 2534 2758 2815 
Q 2500 3097 2075 3097 
Q 1594 3097 1305 2825 
Q 1016 2553 972 2059 
L 3022 2063 
z
" transform="scale(0.015625)"/>
       <path id="DejaVuSans-61" d="M 2194 1759 
Q 1497 1759 1228 1600 
Q 959 1441 959 1056 
Q 959 750 1161 570 
Q 1363 391 1709 391 
Q 2188 391 2477 730 
Q 2766 1069 2766 1631 
L 2766 1759 
L 2194 1759 
z
M 3341 1997 
L 3341 0 
L 2766 0 
L 2766 531 
Q 2569 213 2275 61 
Q 1981 -91 1556 -91 
Q 1019 -91 701 211 
Q 384 513 384 1019 
Q 384 1609 779 1909 
Q 1175 2209 1959 2209 
L 2766 2209 
L 2766 2266 
Q 2766 2663 2505 2880 
Q 2244 3097 1772 3097 
Q 1472 3097 1187 3025 
Q 903 2953 641 2809 
L 641 3341 
Q 956 3463 1253 3523 
Q 1550 3584 1831 3584 
Q 2591 3584 2966 3190 
Q 3341 2797 3341 1997 
z
" transform="scale(0.015625)"/>
       <path id="DejaVuSans-72" d="M 2631 2963 
Q 2534 3019 2420 3045 
Q 2306 3072 2169 3072 
Q 1681 3072 1420 2755 
Q 1159 2438 1159 1844 
L 1159 0 
L 581 0 
L 581 3500 
L 1159 3500 
L 1159 2956 
Q 1341 3275 1631 3429 
Q 1922 3584 2338 3584 
Q 2397 3584 2469 3576 
Q 2541 3569 2628 3553 
L 2631 2963 
z
" transform="scale(0.015625)"/>
       <path id="DejaVuSans-6e" d="M 3513 2113 
L 3513 0 
L 2938 0 
L 2938 2094 
Q 2938 2591 2744 2837 
Q 2550 3084 2163 3084 
Q 1697 3084 1428 2787 
Q 1159 2491 1159 1978 
L 1159 0 
L 581 0 
L 581 3500 
L 1159 3500 
L 1159 2956 
Q 1366 3272 1645 3428 
Q 1925 3584 2291 3584 
Q 2894 3584 3203 3211 
Q 3513 2838 3513 2113 
z
" transform="scale(0.015625)"/>
       <path id="DejaVuSans-64" d="M 2906 2969 
L 2906 4863 
L 3481 4863 
L 3481 0 
L 2906 0 
L 2906 525 
Q 2725 213 2448 61 
Q 2172 -91 1784 -91 
Q 1150 -91 751 415 
Q 353 922 353 1747 
Q 353 2572 751 3078 
Q 1150 3584 1784 3584 
Q 2172 3584 2448 3432 
Q 2725 3281 2906 2969 
z
M 947 1747 
Q 947 1113 1208 752 
Q 1469 391 1925 391 
Q 2381 391 2643 752 
Q 2906 1113 2906 1747 
Q 2906 2381 2643 2742 
Q 2381 3103 1925 3103 
Q 1469 3103 1208 2742 
Q 947 2381 947 1747 
z
" transform="scale(0.015625)"/>
       <path id="DejaVuSans-20" transform="scale(0.015625)"/>
       <path id="DejaVuSans-45" d="M 628 4666 
L 3578 4666 
L 3578 4134 
L 1259 4134 
L 1259 2753 
L 3481 2753 
L 3481 2222 
L 1259 2222 
L 1259 531 
L 3634 531 
L 3634 0 
L 628 0 
L 628 4666 
z
" transform="scale(0.015625)"/>
       <path id="DejaVuSans-70" d="M 1159 525 
L 1159 -1331 
L 581 -1331 
L 581 3500 
L 1159 3500 
L 1159 2969 
Q 1341 3281 1617 3432 
Q 1894 3584 2278 3584 
Q 2916 3584 3314 3078 
Q 3713 2572 3713 1747 
Q 3713 922 3314 415 
Q 2916 -91 2278 -91 
Q 1894 -91 1617 61 
Q 1341 213 1159 525 
z
M 3116 1747 
Q 3116 2381 2855 2742 
Q 2594 3103 2138 3103 
Q 1681 3103 1420 2742 
Q 1159 2381 1159 1747 
Q 1159 1113 1420 752 
Q 1681 391 2138 391 
Q 2594 391 2855 752 
Q 3116 1113 3116 1747 
z
" transform="scale(0.015625)"/>
       <path id="DejaVuSans-69" d="M 603 3500 
L 1178 3500 
L 1178 0 
L 603 0 
L 603 3500 
z
M 603 4863 
L 1178 4863 
L 1178 4134 
L 603 4134 
L 603 4863 
z
" transform="scale(0.015625)"/>
       <path id="DejaVuSans-73" d="M 2834 3397 
L 2834 2853 
Q 2591 2978 2328 3040 
Q 2066 3103 1784 3103 
Q 1356 3103 1142 2972 
Q 928 2841 928 2578 
Q 928 2378 1081 2264 
Q 1234 2150 1697 2047 
L 1894 2003 
Q 2506 1872 2764 1633 
Q 3022 1394 3022 966 
Q 3022 478 2636 193 
Q 2250 -91 1575 -91 
Q 1294 -91 989 -36 
Q 684 19 347 128 
L 347 722 
Q 666 556 975 473 
Q 1284 391 1588 391 
Q 1994 391 2212 530 
Q 2431 669 2431 922 
Q 2431 1156 2273 1281 
Q 2116 1406 1581 1522 
L 1381 1569 
Q 847 1681 609 1914 
Q 372 2147 372 2553 
Q 372 3047 722 3315 
Q 1072 3584 1716 3584 
Q 2034 3584 2315 3537 
Q 2597 3491 2834 3397 
z
" transform="scale(0.015625)"/>
       <path id="DejaVuSans-6f" d="M 1959 3097 
Q 1497 3097 1228 2736 
Q 959 2375 959 1747 
Q 959 1119 1226 758 
Q 1494 397 1959 397 
Q 2419 397 2687 759 
Q 2956 1122 2956 1747 
Q 2956 2369 2687 2733 
Q 2419 3097 1959 3097 
z
M 1959 3584 
Q 2709 3584 3137 3096 
Q 3566 2609 3566 1747 
Q 3566 888 3137 398 
Q 2709 -91 1959 -91 
Q 1206 -91 779 398 
Q 353 888 353 1747 
Q 353 2609 779 3096 
Q 1206 3584 1959 3584 
z
" transform="scale(0.015625)"/>
      </defs>
      <use xlink:href="#DejaVuSans-4c"/>
      <use xlink:href="#DejaVuSans-65" x="53.962891"/>
      <use xlink:href="#DejaVuSans-61" x="115.486328"/>
      <use xlink:href="#DejaVuSans-72" x="176.765625"/>
      <use xlink:href="#DejaVuSans-6e" x="216.128906"/>
      <use xlink:href="#DejaVuSans-65" x="279.507812"/>
      <use xlink:href="#DejaVuSans-64" x="341.03125"/>
      <use xlink:href="#DejaVuSans-20" x="404.507812"/>
      <use xlink:href="#DejaVuSans-45" x="436.294922"/>
      <use xlink:href="#DejaVuSans-70" x="499.478516"/>
      <use xlink:href="#DejaVuSans-69" x="562.955078"/>
      <use xlink:href="#DejaVuSans-73" x="590.738281"/>
      <use xlink:href="#DejaVuSans-6f" x="642.837891"/>
      <use xlink:href="#DejaVuSans-64" x="704.019531"/>
      <use xlink:href="#DejaVuSans-65" x="767.496094"/>
      <use xlink:href="#DejaVuSans-73" x="829.019531"/>
     </g>
    </g>
   </g>
   <g id="matplotlib.axis_2">
    <g id="ytick_1">
     <g id="line2d_19">
      <path d="M 57.6 295.488 
L 414.72 295.488 
" clip-path="url(#p50b361abdb)" style="fill: none; stroke-dasharray: 2.96,1.28; stroke-dashoffset: 0; stroke: #b0b0b0; stroke-width: 0.8"/>
     </g>
     <g id="line2d_20">
      <defs>
       <path id="m12e8186e46" d="M 0 0 
L -3.5 0 
" style="stroke: #000000; stroke-width: 0.8"/>
      </defs>
      <g>
       <use xlink:href="#m12e8186e46" x="57.6" y="295.488" style="stroke: #000000; stroke-width: 0.8"/>
      </g>
     </g>
     <g id="text_11">
      <!-- 0 -->
      <g transform="translate(44.2375 299.287219)scale(0.1 -0.1)">
       <use xlink:href="#DejaVuSans-30"/>
      </g>
     </g>
    </g>
    <g id="ytick_2">
     <g id="line2d_21">
      <path d="M 57.6 265.694897 
L 414.72 265.694897 
" clip-path="url(#p50b361abdb)" style="fill: none; stroke-dasharray: 2.96,1.28; stroke-dashoffset: 0; stroke: #b0b0b0; stroke-width: 0.8"/>
     </g>
     <g id="line2d_22">
      <g>
       <use xlink:href="#m12e8186e46" x="57.6" y="265.694897" style="stroke: #000000; stroke-width: 0.8"/>
      </g>
     </g>
     <g id="text_12">
      <!-- 25 -->
      <g transform="translate(37.875 269.494115)scale(0.1 -0.1)">
       <use xlink:href="#DejaVuSans-32"/>
       <use xlink:href="#DejaVuSans-35" x="63.623047"/>
      </g>
     </g>
    </g>
    <g id="ytick_3">
     <g id="line2d_23">
      <path d="M 57.6 235.901793 
L 414.72 235.901793 
" clip-path="url(#p50b361abdb)" style="fill: none; stroke-dasharray: 2.96,1.28; stroke-dashoffset: 0; stroke: #b0b0b0; stroke-width: 0.8"/>
     </g>
     <g id="line2d_24">
      <g>
       <use xlink:href="#m12e8186e46" x="57.6" y="235.901793" style="stroke: #000000; stroke-width: 0.8"/>
      </g>
     </g>
     <g id="text_13">
      <!-- 50 -->
      <g transform="translate(37.875 239.701012)scale(0.1 -0.1)">
       <use xlink:href="#DejaVuSans-35"/>
       <use xlink:href="#DejaVuSans-30" x="63.623047"/>
      </g>
     </g>
    </g>
    <g id="ytick_4">
     <g id="line2d_25">
      <path d="M 57.6 206.10869 
L 414.72 206.10869 
" clip-path="url(#p50b361abdb)" style="fill: none; stroke-dasharray: 2.96,1.28; stroke-dashoffset: 0; stroke: #b0b0b0; stroke-width: 0.8"/>
     </g>
     <g id="line2d_26">
      <g>
       <use xlink:href="#m12e8186e46" x="57.6" y="206.10869" style="stroke: #000000; stroke-width: 0.8"/>
      </g>
     </g>
     <g id="text_14">
      <!-- 75 -->
      <g transform="translate(37.875 209.907908)scale(0.1 -0.1)">
       <use xlink:href="#DejaVuSans-37"/>
       <use xlink:href="#DejaVuSans-35" x="63.623047"/>
      </g>
     </g>
    </g>
    <g id="ytick_5">
     <g id="line2d_27">
      <path d="M 57.6 176.315586 
L 414.72 176.315586 
" clip-path="url(#p50b361abdb)" style="fill: none; stroke-dasharray: 2.96,1.28; stroke-dashoffset: 0; stroke: #b0b0b0; stroke-width: 0.8"/>
     </g>
     <g id="line2d_28">
      <g>
       <use xlink:href="#m12e8186e46" x="57.6" y="176.315586" style="stroke: #000000; stroke-width: 0.8"/>
      </g>
     </g>
     <g id="text_15">
      <!-- 100 -->
      <g transform="translate(31.5125 180.114805)scale(0.1 -0.1)">
       <use xlink:href="#DejaVuSans-31"/>
       <use xlink:href="#DejaVuSans-30" x="63.623047"/>
       <use xlink:href="#DejaVuSans-30" x="127.246094"/>
      </g>
     </g>
    </g>
    <g id="ytick_6">
     <g id="line2d_29">
      <path d="M 57.6 146.522483 
L 414.72 146.522483 
" clip-path="url(#p50b361abdb)" style="fill: none; stroke-dasharray: 2.96,1.28; stroke-dashoffset: 0; stroke: #b0b0b0; stroke-width: 0.8"/>
     </g>
     <g id="line2d_30">
      <g>
       <use xlink:href="#m12e8186e46" x="57.6" y="146.522483" style="stroke: #000000; stroke-width: 0.8"/>
      </g>
     </g>
     <g id="text_16">
      <!-- 125 -->
      <g transform="translate(31.5125 150.321702)scale(0.1 -0.1)">
       <use xlink:href="#DejaVuSans-31"/>
       <use xlink:href="#DejaVuSans-32" x="63.623047"/>
       <use xlink:href="#DejaVuSans-35" x="127.246094"/>
      </g>
     </g>
    </g>
    <g id="ytick_7">
     <g id="line2d_31">
      <path d="M 57.6 116.729379 
L 414.72 116.729379 
" clip-path="url(#p50b361abdb)" style="fill: none; stroke-dasharray: 2.96,1.28; stroke-dashoffset: 0; stroke: #b0b0b0; stroke-width: 0.8"/>
     </g>
     <g id="line2d_32">
      <g>
       <use xlink:href="#m12e8186e46" x="57.6" y="116.729379" style="stroke: #000000; stroke-width: 0.8"/>
      </g>
     </g>
     <g id="text_17">
      <!-- 150 -->
      <g transform="translate(31.5125 120.528598)scale(0.1 -0.1)">
       <use xlink:href="#DejaVuSans-31"/>
       <use xlink:href="#DejaVuSans-35" x="63.623047"/>
       <use xlink:href="#DejaVuSans-30" x="127.246094"/>
      </g>
     </g>
    </g>
    <g id="ytick_8">
     <g id="line2d_33">
      <path d="M 57.6 86.936276 
L 414.72 86.936276 
" clip-path="url(#p50b361abdb)" style="fill: none; stroke-dasharray: 2.96,1.28; stroke-dashoffset: 0; stroke: #b0b0b0; stroke-width: 0.8"/>
     </g>
     <g id="line2d_34">
      <g>
       <use xlink:href="#m12e8186e46" x="57.6" y="86.936276" style="stroke: #000000; stroke-width: 0.8"/>
      </g>
     </g>
     <g id="text_18">
      <!-- 175 -->
      <g transform="translate(31.5125 90.735495)scale(0.1 -0.1)">
       <use xlink:href="#DejaVuSans-31"/>
       <use xlink:href="#DejaVuSans-37" x="63.623047"/>
       <use xlink:href="#DejaVuSans-35" x="127.246094"/>
      </g>
     </g>
    </g>
    <g id="ytick_9">
     <g id="line2d_35">
      <path d="M 57.6 57.143172 
L 414.72 57.143172 
" clip-path="url(#p50b361abdb)" style="fill: none; stroke-dasharray: 2.96,1.28; stroke-dashoffset: 0; stroke: #b0b0b0; stroke-width: 0.8"/>
     </g>
     <g id="line2d_36">
      <g>
       <use xlink:href="#m12e8186e46" x="57.6" y="57.143172" style="stroke: #000000; stroke-width: 0.8"/>
      </g>
     </g>
     <g id="text_19">
      <!-- 200 -->
      <g transform="translate(31.5125 60.942391)scale(0.1 -0.1)">
       <use xlink:href="#DejaVuSans-32"/>
       <use xlink:href="#DejaVuSans-30" x="63.623047"/>
       <use xlink:href="#DejaVuSans-30" x="127.246094"/>
      </g>
     </g>
    </g>
    <g id="text_20">
     <!-- Reward Density -->
     <g transform="translate(25.432812 213.74675)rotate(-90)scale(0.1 -0.1)">
      <defs>
       <path id="DejaVuSans-52" d="M 2841 2188 
Q 3044 2119 3236 1894 
Q 3428 1669 3622 1275 
L 4263 0 
L 3584 0 
L 2988 1197 
Q 2756 1666 2539 1819 
Q 2322 1972 1947 1972 
L 1259 1972 
L 1259 0 
L 628 0 
L 628 4666 
L 2053 4666 
Q 2853 4666 3247 4331 
Q 3641 3997 3641 3322 
Q 3641 2881 3436 2590 
Q 3231 2300 2841 2188 
z
M 1259 4147 
L 1259 2491 
L 2053 2491 
Q 2509 2491 2742 2702 
Q 2975 2913 2975 3322 
Q 2975 3731 2742 3939 
Q 2509 4147 2053 4147 
L 1259 4147 
z
" transform="scale(0.015625)"/>
       <path id="DejaVuSans-77" d="M 269 3500 
L 844 3500 
L 1563 769 
L 2278 3500 
L 2956 3500 
L 3675 769 
L 4391 3500 
L 4966 3500 
L 4050 0 
L 3372 0 
L 2619 2869 
L 1863 0 
L 1184 0 
L 269 3500 
z
" transform="scale(0.015625)"/>
       <path id="DejaVuSans-44" d="M 1259 4147 
L 1259 519 
L 2022 519 
Q 2988 519 3436 956 
Q 3884 1394 3884 2338 
Q 3884 3275 3436 3711 
Q 2988 4147 2022 4147 
L 1259 4147 
z
M 628 4666 
L 1925 4666 
Q 3281 4666 3915 4102 
Q 4550 3538 4550 2338 
Q 4550 1131 3912 565 
Q 3275 0 1925 0 
L 628 0 
L 628 4666 
z
" transform="scale(0.015625)"/>
       <path id="DejaVuSans-74" d="M 1172 4494 
L 1172 3500 
L 2356 3500 
L 2356 3053 
L 1172 3053 
L 1172 1153 
Q 1172 725 1289 603 
Q 1406 481 1766 481 
L 2356 481 
L 2356 0 
L 1766 0 
Q 1100 0 847 248 
Q 594 497 594 1153 
L 594 3053 
L 172 3053 
L 172 3500 
L 594 3500 
L 594 4494 
L 1172 4494 
z
" transform="scale(0.015625)"/>
       <path id="DejaVuSans-79" d="M 2059 -325 
Q 1816 -950 1584 -1140 
Q 1353 -1331 966 -1331 
L 506 -1331 
L 506 -850 
L 844 -850 
Q 1081 -850 1212 -737 
Q 1344 -625 1503 -206 
L 1606 56 
L 191 3500 
L 800 3500 
L 1894 763 
L 2988 3500 
L 3597 3500 
L 2059 -325 
z
" transform="scale(0.015625)"/>
      </defs>
      <use xlink:href="#DejaVuSans-52"/>
      <use xlink:href="#DejaVuSans-65" x="64.982422"/>
      <use xlink:href="#DejaVuSans-77" x="126.505859"/>
      <use xlink:href="#DejaVuSans-61" x="208.292969"/>
      <use xlink:href="#DejaVuSans-72" x="269.572266"/>
      <use xlink:href="#DejaVuSans-64" x="308.935547"/>
      <use xlink:href="#DejaVuSans-20" x="372.412109"/>
      <use xlink:href="#DejaVuSans-44" x="404.199219"/>
      <use xlink:href="#DejaVuSans-65" x="481.201172"/>
      <use xlink:href="#DejaVuSans-6e" x="542.724609"/>
      <use xlink:href="#DejaVuSans-73" x="606.103516"/>
      <use xlink:href="#DejaVuSans-69" x="658.203125"/>
      <use xlink:href="#DejaVuSans-74" x="685.986328"/>
      <use xlink:href="#DejaVuSans-79" x="725.195312"/>
     </g>
    </g>
   </g>
   <g id="LineCollection_1">
    <path d="M 90.919809 206.637815 
L 125.093971 206.637815 
" clip-path="url(#p50b361abdb)" style="fill: none; stroke: #1f77b4; stroke-width: 1.5"/>
    <path d="M 176.355215 186.385655 
L 210.529378 186.385655 
" clip-path="url(#p50b361abdb)" style="fill: none; stroke: #1f77b4; stroke-width: 1.5"/>
    <path d="M 261.790622 159.45269 
L 295.964785 159.45269 
" clip-path="url(#p50b361abdb)" style="fill: none; stroke: #1f77b4; stroke-width: 1.5"/>
    <path d="M 347.226029 166.843763 
L 381.400191 166.843763 
" clip-path="url(#p50b361abdb)" style="fill: none; stroke: #1f77b4; stroke-width: 1.5"/>
   </g>
   <g id="LineCollection_2">
    <path d="M 90.919809 73.82731 
L 125.093971 73.82731 
" clip-path="url(#p50b361abdb)" style="fill: none; stroke: #1f77b4; stroke-width: 1.5"/>
    <path d="M 176.355215 63.101793 
L 210.529378 63.101793 
" clip-path="url(#p50b361abdb)" style="fill: none; stroke: #1f77b4; stroke-width: 1.5"/>
    <path d="M 261.790622 53.568 
L 295.964785 53.568 
" clip-path="url(#p50b361abdb)" style="fill: none; stroke: #1f77b4; stroke-width: 1.5"/>
    <path d="M 347.226029 69.060414 
L 381.400191 69.060414 
" clip-path="url(#p50b361abdb)" style="fill: none; stroke: #1f77b4; stroke-width: 1.5"/>
   </g>
   <g id="LineCollection_3">
    <path d="M 90.919809 295.488 
L 125.093971 295.488 
" clip-path="url(#p50b361abdb)" style="fill: none; stroke: #1f77b4; stroke-width: 1.5"/>
    <path d="M 176.355215 295.488 
L 210.529378 295.488 
" clip-path="url(#p50b361abdb)" style="fill: none; stroke: #1f77b4; stroke-width: 1.5"/>
    <path d="M 261.790622 284.762483 
L 295.964785 284.762483 
" clip-path="url(#p50b361abdb)" style="fill: none; stroke: #1f77b4; stroke-width: 1.5"/>
    <path d="M 347.226029 284.762483 
L 381.400191 284.762483 
" clip-path="url(#p50b361abdb)" style="fill: none; stroke: #1f77b4; stroke-width: 1.5"/>
   </g>
   <g id="LineCollection_4">
    <path d="M 108.00689 295.488 
L 108.00689 73.82731 
" clip-path="url(#p50b361abdb)" style="fill: none; stroke: #1f77b4; stroke-width: 1.5"/>
    <path d="M 193.442297 295.488 
L 193.442297 63.101793 
" clip-path="url(#p50b361abdb)" style="fill: none; stroke: #1f77b4; stroke-width: 1.5"/>
    <path d="M 278.877703 284.762483 
L 278.877703 53.568 
" clip-path="url(#p50b361abdb)" style="fill: none; stroke: #1f77b4; stroke-width: 1.5"/>
    <path d="M 364.31311 284.762483 
L 364.31311 69.060414 
" clip-path="url(#p50b361abdb)" style="fill: none; stroke: #1f77b4; stroke-width: 1.5"/>
   </g>
   <g id="line2d_37">
    <path d="M 108.00689 206.637815 
L 193.442297 186.385655 
L 278.877703 159.45269 
L 364.31311 166.843763 
" clip-path="url(#p50b361abdb)" style="fill: none; stroke: #4682b4; stroke-width: 1.5; stroke-linecap: square"/>
   </g>
   <g id="line2d_38">
    <path d="M 108.00689 206.637815 
L 193.442297 186.385655 
L 278.877703 159.45269 
L 364.31311 166.843763 
" clip-path="url(#p50b361abdb)" style="fill: none; stroke: #4682b4; stroke-width: 1.5; stroke-linecap: square"/>
   </g>
   <g id="patch_3">
    <path d="M 57.6 307.584 
L 57.6 41.472 
" style="fill: none; stroke: #000000; stroke-width: 0.8; stroke-linejoin: miter; stroke-linecap: square"/>
   </g>
   <g id="patch_4">
    <path d="M 414.72 307.584 
L 414.72 41.472 
" style="fill: none; stroke: #000000; stroke-width: 0.8; stroke-linejoin: miter; stroke-linecap: square"/>
   </g>
   <g id="patch_5">
    <path d="M 57.6 307.584 
L 414.72 307.584 
" style="fill: none; stroke: #000000; stroke-width: 0.8; stroke-linejoin: miter; stroke-linecap: square"/>
   </g>
   <g id="patch_6">
    <path d="M 57.6 41.472 
L 414.72 41.472 
" style="fill: none; stroke: #000000; stroke-width: 0.8; stroke-linejoin: miter; stroke-linecap: square"/>
   </g>
   <g id="text_21">
    <!-- Violinplot for progress of customer/purchases_refurbished -->
    <g transform="translate(62.41125 35.472)scale(0.12 -0.12)">
     <defs>
      <path id="DejaVuSans-56" d="M 1831 0 
L 50 4666 
L 709 4666 
L 2188 738 
L 3669 4666 
L 4325 4666 
L 2547 0 
L 1831 0 
z
" transform="scale(0.015625)"/>
      <path id="DejaVuSans-6c" d="M 603 4863 
L 1178 4863 
L 1178 0 
L 603 0 
L 603 4863 
z
" transform="scale(0.015625)"/>
      <path id="DejaVuSans-66" d="M 2375 4863 
L 2375 4384 
L 1825 4384 
Q 1516 4384 1395 4259 
Q 1275 4134 1275 3809 
L 1275 3500 
L 2222 3500 
L 2222 3053 
L 1275 3053 
L 1275 0 
L 697 0 
L 697 3053 
L 147 3053 
L 147 3500 
L 697 3500 
L 697 3744 
Q 697 4328 969 4595 
Q 1241 4863 1831 4863 
L 2375 4863 
z
" transform="scale(0.015625)"/>
      <path id="DejaVuSans-67" d="M 2906 1791 
Q 2906 2416 2648 2759 
Q 2391 3103 1925 3103 
Q 1463 3103 1205 2759 
Q 947 2416 947 1791 
Q 947 1169 1205 825 
Q 1463 481 1925 481 
Q 2391 481 2648 825 
Q 2906 1169 2906 1791 
z
M 3481 434 
Q 3481 -459 3084 -895 
Q 2688 -1331 1869 -1331 
Q 1566 -1331 1297 -1286 
Q 1028 -1241 775 -1147 
L 775 -588 
Q 1028 -725 1275 -790 
Q 1522 -856 1778 -856 
Q 2344 -856 2625 -561 
Q 2906 -266 2906 331 
L 2906 616 
Q 2728 306 2450 153 
Q 2172 0 1784 0 
Q 1141 0 747 490 
Q 353 981 353 1791 
Q 353 2603 747 3093 
Q 1141 3584 1784 3584 
Q 2172 3584 2450 3431 
Q 2728 3278 2906 2969 
L 2906 3500 
L 3481 3500 
L 3481 434 
z
" transform="scale(0.015625)"/>
      <path id="DejaVuSans-63" d="M 3122 3366 
L 3122 2828 
Q 2878 2963 2633 3030 
Q 2388 3097 2138 3097 
Q 1578 3097 1268 2742 
Q 959 2388 959 1747 
Q 959 1106 1268 751 
Q 1578 397 2138 397 
Q 2388 397 2633 464 
Q 2878 531 3122 666 
L 3122 134 
Q 2881 22 2623 -34 
Q 2366 -91 2075 -91 
Q 1284 -91 818 406 
Q 353 903 353 1747 
Q 353 2603 823 3093 
Q 1294 3584 2113 3584 
Q 2378 3584 2631 3529 
Q 2884 3475 3122 3366 
z
" transform="scale(0.015625)"/>
      <path id="DejaVuSans-75" d="M 544 1381 
L 544 3500 
L 1119 3500 
L 1119 1403 
Q 1119 906 1312 657 
Q 1506 409 1894 409 
Q 2359 409 2629 706 
Q 2900 1003 2900 1516 
L 2900 3500 
L 3475 3500 
L 3475 0 
L 2900 0 
L 2900 538 
Q 2691 219 2414 64 
Q 2138 -91 1772 -91 
Q 1169 -91 856 284 
Q 544 659 544 1381 
z
M 1991 3584 
L 1991 3584 
z
" transform="scale(0.015625)"/>
      <path id="DejaVuSans-6d" d="M 3328 2828 
Q 3544 3216 3844 3400 
Q 4144 3584 4550 3584 
Q 5097 3584 5394 3201 
Q 5691 2819 5691 2113 
L 5691 0 
L 5113 0 
L 5113 2094 
Q 5113 2597 4934 2840 
Q 4756 3084 4391 3084 
Q 3944 3084 3684 2787 
Q 3425 2491 3425 1978 
L 3425 0 
L 2847 0 
L 2847 2094 
Q 2847 2600 2669 2842 
Q 2491 3084 2119 3084 
Q 1678 3084 1418 2786 
Q 1159 2488 1159 1978 
L 1159 0 
L 581 0 
L 581 3500 
L 1159 3500 
L 1159 2956 
Q 1356 3278 1631 3431 
Q 1906 3584 2284 3584 
Q 2666 3584 2933 3390 
Q 3200 3197 3328 2828 
z
" transform="scale(0.015625)"/>
      <path id="DejaVuSans-2f" d="M 1625 4666 
L 2156 4666 
L 531 -594 
L 0 -594 
L 1625 4666 
z
" transform="scale(0.015625)"/>
      <path id="DejaVuSans-68" d="M 3513 2113 
L 3513 0 
L 2938 0 
L 2938 2094 
Q 2938 2591 2744 2837 
Q 2550 3084 2163 3084 
Q 1697 3084 1428 2787 
Q 1159 2491 1159 1978 
L 1159 0 
L 581 0 
L 581 4863 
L 1159 4863 
L 1159 2956 
Q 1366 3272 1645 3428 
Q 1925 3584 2291 3584 
Q 2894 3584 3203 3211 
Q 3513 2838 3513 2113 
z
" transform="scale(0.015625)"/>
      <path id="DejaVuSans-5f" d="M 3263 -1063 
L 3263 -1509 
L -63 -1509 
L -63 -1063 
L 3263 -1063 
z
" transform="scale(0.015625)"/>
      <path id="DejaVuSans-62" d="M 3116 1747 
Q 3116 2381 2855 2742 
Q 2594 3103 2138 3103 
Q 1681 3103 1420 2742 
Q 1159 2381 1159 1747 
Q 1159 1113 1420 752 
Q 1681 391 2138 391 
Q 2594 391 2855 752 
Q 3116 1113 3116 1747 
z
M 1159 2969 
Q 1341 3281 1617 3432 
Q 1894 3584 2278 3584 
Q 2916 3584 3314 3078 
Q 3713 2572 3713 1747 
Q 3713 922 3314 415 
Q 2916 -91 2278 -91 
Q 1894 -91 1617 61 
Q 1341 213 1159 525 
L 1159 0 
L 581 0 
L 581 4863 
L 1159 4863 
L 1159 2969 
z
" transform="scale(0.015625)"/>
     </defs>
     <use xlink:href="#DejaVuSans-56"/>
     <use xlink:href="#DejaVuSans-69" x="66.158203"/>
     <use xlink:href="#DejaVuSans-6f" x="93.941406"/>
     <use xlink:href="#DejaVuSans-6c" x="155.123047"/>
     <use xlink:href="#DejaVuSans-69" x="182.90625"/>
     <use xlink:href="#DejaVuSans-6e" x="210.689453"/>
     <use xlink:href="#DejaVuSans-70" x="274.068359"/>
     <use xlink:href="#DejaVuSans-6c" x="337.544922"/>
     <use xlink:href="#DejaVuSans-6f" x="365.328125"/>
     <use xlink:href="#DejaVuSans-74" x="426.509766"/>
     <use xlink:href="#DejaVuSans-20" x="465.71875"/>
     <use xlink:href="#DejaVuSans-66" x="497.505859"/>
     <use xlink:href="#DejaVuSans-6f" x="532.710938"/>
     <use xlink:href="#DejaVuSans-72" x="593.892578"/>
     <use xlink:href="#DejaVuSans-20" x="635.005859"/>
     <use xlink:href="#DejaVuSans-70" x="666.792969"/>
     <use xlink:href="#DejaVuSans-72" x="730.269531"/>
     <use xlink:href="#DejaVuSans-6f" x="769.132812"/>
     <use xlink:href="#DejaVuSans-67" x="830.314453"/>
     <use xlink:href="#DejaVuSans-72" x="893.791016"/>
     <use xlink:href="#DejaVuSans-65" x="932.654297"/>
     <use xlink:href="#DejaVuSans-73" x="994.177734"/>
     <use xlink:href="#DejaVuSans-73" x="1046.277344"/>
     <use xlink:href="#DejaVuSans-20" x="1098.376953"/>
     <use xlink:href="#DejaVuSans-6f" x="1130.164062"/>
     <use xlink:href="#DejaVuSans-66" x="1191.345703"/>
     <use xlink:href="#DejaVuSans-20" x="1226.550781"/>
     <use xlink:href="#DejaVuSans-63" x="1258.337891"/>
     <use xlink:href="#DejaVuSans-75" x="1313.318359"/>
     <use xlink:href="#DejaVuSans-73" x="1376.697266"/>
     <use xlink:href="#DejaVuSans-74" x="1428.796875"/>
     <use xlink:href="#DejaVuSans-6f" x="1468.005859"/>
     <use xlink:href="#DejaVuSans-6d" x="1529.1875"/>
     <use xlink:href="#DejaVuSans-65" x="1626.599609"/>
     <use xlink:href="#DejaVuSans-72" x="1688.123047"/>
     <use xlink:href="#DejaVuSans-2f" x="1729.236328"/>
     <use xlink:href="#DejaVuSans-70" x="1762.927734"/>
     <use xlink:href="#DejaVuSans-75" x="1826.404297"/>
     <use xlink:href="#DejaVuSans-72" x="1889.783203"/>
     <use xlink:href="#DejaVuSans-63" x="1928.646484"/>
     <use xlink:href="#DejaVuSans-68" x="1983.626953"/>
     <use xlink:href="#DejaVuSans-61" x="2047.005859"/>
     <use xlink:href="#DejaVuSans-73" x="2108.285156"/>
     <use xlink:href="#DejaVuSans-65" x="2160.384766"/>
     <use xlink:href="#DejaVuSans-73" x="2221.908203"/>
     <use xlink:href="#DejaVuSans-5f" x="2274.007812"/>
     <use xlink:href="#DejaVuSans-72" x="2324.007812"/>
     <use xlink:href="#DejaVuSans-65" x="2362.871094"/>
     <use xlink:href="#DejaVuSans-66" x="2424.394531"/>
     <use xlink:href="#DejaVuSans-75" x="2459.599609"/>
     <use xlink:href="#DejaVuSans-72" x="2522.978516"/>
     <use xlink:href="#DejaVuSans-62" x="2564.091797"/>
     <use xlink:href="#DejaVuSans-69" x="2627.568359"/>
     <use xlink:href="#DejaVuSans-73" x="2655.351562"/>
     <use xlink:href="#DejaVuSans-68" x="2707.451172"/>
     <use xlink:href="#DejaVuSans-65" x="2770.830078"/>
     <use xlink:href="#DejaVuSans-64" x="2832.353516"/>
    </g>
   </g>
   <g id="legend_1">
    <g id="patch_7">
     <path d="M 276.25125 64.150125 
L 407.72 64.150125 
Q 409.72 64.150125 409.72 62.150125 
L 409.72 48.472 
Q 409.72 46.472 407.72 46.472 
L 276.25125 46.472 
Q 274.25125 46.472 274.25125 48.472 
L 274.25125 62.150125 
Q 274.25125 64.150125 276.25125 64.150125 
z
" style="fill: #ffffff; opacity: 0.8; stroke: #cccccc; stroke-linejoin: miter"/>
    </g>
    <g id="line2d_39">
     <path d="M 278.25125 54.570438 
L 288.25125 54.570438 
L 298.25125 54.570438 
" style="fill: none; stroke: #4682b4; stroke-width: 1.5; stroke-linecap: square"/>
    </g>
    <g id="text_22">
     <!-- StableBaselinesSAC -->
     <g transform="translate(306.25125 58.070438)scale(0.1 -0.1)">
      <defs>
       <path id="DejaVuSans-53" d="M 3425 4513 
L 3425 3897 
Q 3066 4069 2747 4153 
Q 2428 4238 2131 4238 
Q 1616 4238 1336 4038 
Q 1056 3838 1056 3469 
Q 1056 3159 1242 3001 
Q 1428 2844 1947 2747 
L 2328 2669 
Q 3034 2534 3370 2195 
Q 3706 1856 3706 1288 
Q 3706 609 3251 259 
Q 2797 -91 1919 -91 
Q 1588 -91 1214 -16 
Q 841 59 441 206 
L 441 856 
Q 825 641 1194 531 
Q 1563 422 1919 422 
Q 2459 422 2753 634 
Q 3047 847 3047 1241 
Q 3047 1584 2836 1778 
Q 2625 1972 2144 2069 
L 1759 2144 
Q 1053 2284 737 2584 
Q 422 2884 422 3419 
Q 422 4038 858 4394 
Q 1294 4750 2059 4750 
Q 2388 4750 2728 4690 
Q 3069 4631 3425 4513 
z
" transform="scale(0.015625)"/>
       <path id="DejaVuSans-42" d="M 1259 2228 
L 1259 519 
L 2272 519 
Q 2781 519 3026 730 
Q 3272 941 3272 1375 
Q 3272 1813 3026 2020 
Q 2781 2228 2272 2228 
L 1259 2228 
z
M 1259 4147 
L 1259 2741 
L 2194 2741 
Q 2656 2741 2882 2914 
Q 3109 3088 3109 3444 
Q 3109 3797 2882 3972 
Q 2656 4147 2194 4147 
L 1259 4147 
z
M 628 4666 
L 2241 4666 
Q 2963 4666 3353 4366 
Q 3744 4066 3744 3513 
Q 3744 3084 3544 2831 
Q 3344 2578 2956 2516 
Q 3422 2416 3680 2098 
Q 3938 1781 3938 1306 
Q 3938 681 3513 340 
Q 3088 0 2303 0 
L 628 0 
L 628 4666 
z
" transform="scale(0.015625)"/>
       <path id="DejaVuSans-41" d="M 2188 4044 
L 1331 1722 
L 3047 1722 
L 2188 4044 
z
M 1831 4666 
L 2547 4666 
L 4325 0 
L 3669 0 
L 3244 1197 
L 1141 1197 
L 716 0 
L 50 0 
L 1831 4666 
z
" transform="scale(0.015625)"/>
       <path id="DejaVuSans-43" d="M 4122 4306 
L 4122 3641 
Q 3803 3938 3442 4084 
Q 3081 4231 2675 4231 
Q 1875 4231 1450 3742 
Q 1025 3253 1025 2328 
Q 1025 1406 1450 917 
Q 1875 428 2675 428 
Q 3081 428 3442 575 
Q 3803 722 4122 1019 
L 4122 359 
Q 3791 134 3420 21 
Q 3050 -91 2638 -91 
Q 1578 -91 968 557 
Q 359 1206 359 2328 
Q 359 3453 968 4101 
Q 1578 4750 2638 4750 
Q 3056 4750 3426 4639 
Q 3797 4528 4122 4306 
z
" transform="scale(0.015625)"/>
      </defs>
      <use xlink:href="#DejaVuSans-53"/>
      <use xlink:href="#DejaVuSans-74" x="63.476562"/>
      <use xlink:href="#DejaVuSans-61" x="102.685547"/>
      <use xlink:href="#DejaVuSans-62" x="163.964844"/>
      <use xlink:href="#DejaVuSans-6c" x="227.441406"/>
      <use xlink:href="#DejaVuSans-65" x="255.224609"/>
      <use xlink:href="#DejaVuSans-42" x="316.748047"/>
      <use xlink:href="#DejaVuSans-61" x="385.351562"/>
      <use xlink:href="#DejaVuSans-73" x="446.630859"/>
      <use xlink:href="#DejaVuSans-65" x="498.730469"/>
      <use xlink:href="#DejaVuSans-6c" x="560.253906"/>
      <use xlink:href="#DejaVuSans-69" x="588.037109"/>
      <use xlink:href="#DejaVuSans-6e" x="615.820312"/>
      <use xlink:href="#DejaVuSans-65" x="679.199219"/>
      <use xlink:href="#DejaVuSans-73" x="740.722656"/>
      <use xlink:href="#DejaVuSans-53" x="792.822266"/>
      <use xlink:href="#DejaVuSans-41" x="858.173828"/>
      <use xlink:href="#DejaVuSans-43" x="924.832031"/>
     </g>
    </g>
   </g>
  </g>
 </g>
 <defs>
  <clipPath id="p50b361abdb">
   <rect x="57.6" y="41.472" width="357.12" height="266.112"/>
  </clipPath>
 </defs>
</svg>
