<?xml version="1.0" encoding="utf-8" standalone="no"?>
<!DOCTYPE svg PUBLIC "-//W3C//DTD SVG 1.1//EN"
  "http://www.w3.org/Graphics/SVG/1.1/DTD/svg11.dtd">
<svg xmlns:xlink="http://www.w3.org/1999/xlink" width="460.8pt" height="345.6pt" viewBox="0 0 460.8 345.6" xmlns="http://www.w3.org/2000/svg" version="1.1">
 <metadata>
  <rdf:RDF xmlns:dc="http://purl.org/dc/elements/1.1/" xmlns:cc="http://creativecommons.org/ns#" xmlns:rdf="http://www.w3.org/1999/02/22-rdf-syntax-ns#">
   <cc:Work>
    <dc:type rdf:resource="http://purl.org/dc/dcmitype/StillImage"/>
    <dc:date>2022-06-16T11:36:23.181133</dc:date>
    <dc:format>image/svg+xml</dc:format>
    <dc:creator>
     <cc:Agent>
      <dc:title>Matplotlib v3.5.2, https://matplotlib.org/</dc:title>
     </cc:Agent>
    </dc:creator>
   </cc:Work>
  </rdf:RDF>
 </metadata>
 <defs>
  <style type="text/css">*{stroke-linejoin: round; stroke-linecap: butt}</style>
 </defs>
 <g id="figure_1">
  <g id="patch_1">
   <path d="M 0 345.6 
L 460.8 345.6 
L 460.8 0 
L 0 0 
z
" style="fill: #ffffff"/>
  </g>
  <g id="axes_1">
   <g id="patch_2">
    <path d="M 57.6 307.584 
L 414.72 307.584 
L 414.72 41.472 
L 57.6 41.472 
z
" style="fill: #ffffff"/>
   </g>
   <g id="PolyCollection_1">
    <path d="M 112.402297 228.573957 
L 110.221878 228.573957 
L 110.120315 226.806221 
L 110.012869 225.038484 
L 109.897611 223.270747 
L 109.772708 221.50301 
L 109.636748 219.735273 
L 109.489041 217.967536 
L 109.329833 216.199799 
L 109.160397 214.432062 
L 108.982967 212.664325 
L 108.800525 210.896588 
L 108.616468 209.128851 
L 108.434201 207.361114 
L 108.256724 205.593377 
L 108.086287 203.82564 
L 107.924155 202.057903 
L 107.770533 200.290166 
L 107.624635 198.522429 
L 107.4849 196.754692 
L 107.349285 194.986956 
L 107.215587 193.219219 
L 107.081731 191.451482 
L 106.945982 189.683745 
L 106.807047 187.916008 
L 106.66406 186.148271 
L 106.516489 184.380534 
L 106.363976 182.612797 
L 106.206184 180.84506 
L 106.042656 179.077323 
L 105.872746 177.309586 
L 105.695613 175.541849 
L 105.510276 173.774112 
L 105.315706 172.006375 
L 105.110922 170.238638 
L 104.895061 168.470901 
L 104.667386 166.703164 
L 104.427238 164.935427 
L 104.173923 163.167691 
L 103.906555 161.399954 
L 103.623892 159.632217 
L 103.324199 157.86448 
L 103.005173 156.096743 
L 102.663956 154.329006 
L 102.297248 152.561269 
L 101.901531 150.793532 
L 101.473377 149.025795 
L 101.00983 147.258058 
L 100.508808 145.490321 
L 99.969512 143.722584 
L 99.392767 141.954847 
L 98.781272 140.18711 
L 98.139684 138.419373 
L 97.474527 136.651636 
L 96.793855 134.883899 
L 96.106685 133.116162 
L 95.422201 131.348426 
L 94.748796 129.580689 
L 94.093028 127.812952 
L 93.458628 126.045215 
L 92.845714 124.277478 
L 92.250335 122.509741 
L 91.6645 120.742004 
L 91.076717 118.974267 
L 90.473084 117.20653 
L 89.838794 115.438793 
L 89.159932 113.671056 
L 88.425293 111.903319 
L 87.628008 110.135582 
L 86.766696 108.367845 
L 85.845993 106.600108 
L 84.876328 104.832371 
L 83.872977 103.064634 
L 82.854508 101.296897 
L 81.840834 99.529161 
L 80.851178 97.761424 
L 79.902231 95.993687 
L 79.006807 94.22595 
L 78.173207 92.458213 
L 77.405381 90.690476 
L 76.703898 88.922739 
L 76.067579 87.155002 
L 75.495544 85.387265 
L 74.989376 83.619528 
L 74.555063 81.851791 
L 74.204392 80.084054 
L 73.95554 78.316317 
L 73.832727 76.54858 
L 73.864873 74.780843 
L 74.083367 73.013106 
L 74.519167 71.245369 
L 75.199532 69.477632 
L 76.144762 67.709896 
L 77.365321 65.942159 
L 78.859695 64.174422 
L 80.613251 62.406685 
L 82.598253 60.638948 
L 84.775064 58.871211 
L 87.094402 57.103474 
L 89.500439 55.335737 
L 91.934398 53.568 
L 130.689777 53.568 
L 130.689777 53.568 
L 133.123736 55.335737 
L 135.529773 57.103474 
L 137.849111 58.871211 
L 140.025922 60.638948 
L 142.010924 62.406685 
L 143.76448 64.174422 
L 145.258853 65.942159 
L 146.479412 67.709896 
L 147.424643 69.477632 
L 148.105008 71.245369 
L 148.540808 73.013106 
L 148.759301 74.780843 
L 148.791447 76.54858 
L 148.668635 78.316317 
L 148.419783 80.084054 
L 148.069111 81.851791 
L 147.634799 83.619528 
L 147.128631 85.387265 
L 146.556595 87.155002 
L 145.920276 88.922739 
L 145.218794 90.690476 
L 144.450968 92.458213 
L 143.617367 94.22595 
L 142.721944 95.993687 
L 141.772996 97.761424 
L 140.78334 99.529161 
L 139.769667 101.296897 
L 138.751198 103.064634 
L 137.747847 104.832371 
L 136.778182 106.600108 
L 135.857479 108.367845 
L 134.996167 110.135582 
L 134.198881 111.903319 
L 133.464243 113.671056 
L 132.78538 115.438793 
L 132.151091 117.20653 
L 131.547457 118.974267 
L 130.959675 120.742004 
L 130.373839 122.509741 
L 129.778461 124.277478 
L 129.165546 126.045215 
L 128.531147 127.812952 
L 127.875378 129.580689 
L 127.201973 131.348426 
L 126.51749 133.116162 
L 125.830319 134.883899 
L 125.149647 136.651636 
L 124.48449 138.419373 
L 123.842903 140.18711 
L 123.231407 141.954847 
L 122.654663 143.722584 
L 122.115367 145.490321 
L 121.614345 147.258058 
L 121.150797 149.025795 
L 120.722644 150.793532 
L 120.326926 152.561269 
L 119.960219 154.329006 
L 119.619001 156.096743 
L 119.299976 157.86448 
L 119.000283 159.632217 
L 118.71762 161.399954 
L 118.450251 163.167691 
L 118.196936 164.935427 
L 117.956789 166.703164 
L 117.729114 168.470901 
L 117.513252 170.238638 
L 117.308469 172.006375 
L 117.113899 173.774112 
L 116.928562 175.541849 
L 116.751428 177.309586 
L 116.581518 179.077323 
L 116.41799 180.84506 
L 116.260198 182.612797 
L 116.107686 184.380534 
L 115.960114 186.148271 
L 115.817128 187.916008 
L 115.678192 189.683745 
L 115.542444 191.451482 
L 115.408588 193.219219 
L 115.274889 194.986956 
L 115.139274 196.754692 
L 114.99954 198.522429 
L 114.853642 200.290166 
L 114.700019 202.057903 
L 114.537888 203.82564 
L 114.367451 205.593377 
L 114.189974 207.361114 
L 114.007706 209.128851 
L 113.82365 210.896588 
L 113.641208 212.664325 
L 113.463777 214.432062 
L 113.294341 216.199799 
L 113.135134 217.967536 
L 112.987427 219.735273 
L 112.851467 221.50301 
L 112.726564 223.270747 
L 112.611306 225.038484 
L 112.50386 226.806221 
L 112.402297 228.573957 
z
" clip-path="url(#pc7e96dd8a2)" style="fill: #1f77b4; fill-opacity: 0.3"/>
   </g>
   <g id="PolyCollection_2">
    <path d="M 195.741117 249.548936 
L 193.457991 249.548936 
L 193.316664 247.699311 
L 193.172591 245.849687 
L 193.027652 244.000062 
L 192.883533 242.150437 
L 192.741565 240.300812 
L 192.602583 238.451188 
L 192.466835 236.601563 
L 192.333969 234.751938 
L 192.203107 232.902313 
L 192.073004 231.052689 
L 191.94228 229.203064 
L 191.809676 227.353439 
L 191.674305 225.503814 
L 191.535827 223.65419 
L 191.394525 221.804565 
L 191.251229 219.95494 
L 191.107117 218.105315 
L 190.963398 216.255691 
L 190.820938 214.406066 
L 190.679906 212.556441 
L 190.539502 210.706816 
L 190.397846 208.857191 
L 190.252063 207.007567 
L 190.098574 205.157942 
L 189.933562 203.308317 
L 189.753559 201.458692 
L 189.556057 199.609068 
L 189.340045 197.759443 
L 189.106377 195.909818 
L 188.857894 194.060193 
L 188.599259 192.210569 
L 188.336504 190.360944 
L 188.076332 188.511319 
L 187.825255 186.661694 
L 187.588674 184.81207 
L 187.370032 182.962445 
L 187.170143 181.11282 
L 186.986782 179.263195 
L 186.814615 177.413571 
L 186.645453 175.563946 
L 186.46881 173.714321 
L 186.272704 171.864696 
L 186.044599 170.015072 
L 185.772391 168.165447 
L 185.445349 166.315822 
L 185.054914 164.466197 
L 184.595319 162.616573 
L 184.063974 160.766948 
L 183.461625 158.917323 
L 182.792274 157.067698 
L 182.062891 155.218074 
L 181.282951 153.368449 
L 180.463813 151.518824 
L 179.618001 149.669199 
L 178.758417 147.819574 
L 177.897538 145.96995 
L 177.046648 144.120325 
L 176.215156 142.2707 
L 175.410041 140.421075 
L 174.63548 138.571451 
L 173.892687 136.721826 
L 173.179972 134.872201 
L 172.493039 133.022576 
L 171.825482 131.172952 
L 171.169434 129.323327 
L 170.516313 127.473702 
L 169.857565 125.624077 
L 169.185346 123.774453 
L 168.49305 121.924828 
L 167.775655 120.075203 
L 167.029897 118.225578 
L 166.254287 116.375954 
L 165.449079 114.526329 
L 164.616274 112.676704 
L 163.759763 110.827079 
L 162.885682 108.977455 
L 162.002986 107.12783 
L 161.124198 105.278205 
L 160.2662 103.42858 
L 159.450882 101.578956 
L 158.705453 99.729331 
L 158.062203 97.879706 
L 157.557581 96.030081 
L 157.230541 94.180456 
L 157.120194 92.330832 
L 157.262954 90.481207 
L 157.689444 88.631582 
L 158.421481 86.781957 
L 159.469508 84.932333 
L 160.830783 83.082708 
L 162.488561 81.233083 
L 164.412423 79.383458 
L 166.559714 77.533834 
L 168.877997 75.684209 
L 171.308259 73.834584 
L 173.788549 71.984959 
L 176.257717 70.135335 
L 178.658871 68.28571 
L 180.9423 66.436085 
L 208.256808 66.436085 
L 208.256808 66.436085 
L 210.540238 68.28571 
L 212.941392 70.135335 
L 215.410559 71.984959 
L 217.89085 73.834584 
L 220.321111 75.684209 
L 222.639394 77.533834 
L 224.786685 79.383458 
L 226.710547 81.233083 
L 228.368326 83.082708 
L 229.7296 84.932333 
L 230.777627 86.781957 
L 231.509664 88.631582 
L 231.936154 90.481207 
L 232.078914 92.330832 
L 231.968567 94.180456 
L 231.641527 96.030081 
L 231.136906 97.879706 
L 230.493655 99.729331 
L 229.748226 101.578956 
L 228.932908 103.42858 
L 228.07491 105.278205 
L 227.196122 107.12783 
L 226.313426 108.977455 
L 225.439345 110.827079 
L 224.582834 112.676704 
L 223.750029 114.526329 
L 222.944821 116.375954 
L 222.169211 118.225578 
L 221.423453 120.075203 
L 220.706059 121.924828 
L 220.013762 123.774453 
L 219.341543 125.624077 
L 218.682796 127.473702 
L 218.029674 129.323327 
L 217.373626 131.172952 
L 216.706069 133.022576 
L 216.019136 134.872201 
L 215.306421 136.721826 
L 214.563628 138.571451 
L 213.789067 140.421075 
L 212.983952 142.2707 
L 212.15246 144.120325 
L 211.301571 145.96995 
L 210.440691 147.819574 
L 209.581107 149.669199 
L 208.735295 151.518824 
L 207.916157 153.368449 
L 207.136217 155.218074 
L 206.406834 157.067698 
L 205.737483 158.917323 
L 205.135134 160.766948 
L 204.603789 162.616573 
L 204.144194 164.466197 
L 203.753759 166.315822 
L 203.426717 168.165447 
L 203.154509 170.015072 
L 202.926404 171.864696 
L 202.730298 173.714321 
L 202.553655 175.563946 
L 202.384493 177.413571 
L 202.212326 179.263195 
L 202.028966 181.11282 
L 201.829076 182.962445 
L 201.610435 184.81207 
L 201.373854 186.661694 
L 201.122776 188.511319 
L 200.862604 190.360944 
L 200.599849 192.210569 
L 200.341214 194.060193 
L 200.092731 195.909818 
L 199.859063 197.759443 
L 199.643051 199.609068 
L 199.445549 201.458692 
L 199.265546 203.308317 
L 199.100534 205.157942 
L 198.947045 207.007567 
L 198.801262 208.857191 
L 198.659607 210.706816 
L 198.519202 212.556441 
L 198.37817 214.406066 
L 198.235711 216.255691 
L 198.091991 218.105315 
L 197.947879 219.95494 
L 197.804583 221.804565 
L 197.663281 223.65419 
L 197.524804 225.503814 
L 197.389432 227.353439 
L 197.256828 229.203064 
L 197.126104 231.052689 
L 196.996001 232.902313 
L 196.865139 234.751938 
L 196.732273 236.601563 
L 196.596525 238.451188 
L 196.457543 240.300812 
L 196.315575 242.150437 
L 196.171456 244.000062 
L 196.026517 245.849687 
L 195.882444 247.699311 
L 195.741117 249.548936 
z
" clip-path="url(#pc7e96dd8a2)" style="fill: #1f77b4; fill-opacity: 0.3"/>
   </g>
   <g id="PolyCollection_3">
    <path d="M 278.568557 253.409362 
L 277.205484 253.409362 
L 277.138702 251.40636 
L 277.065546 249.403358 
L 276.983158 247.400356 
L 276.888071 245.397354 
L 276.776326 243.394352 
L 276.643624 241.39135 
L 276.485524 239.388348 
L 276.297672 237.385346 
L 276.076055 235.382344 
L 275.817275 233.379342 
L 275.518809 231.37634 
L 275.179259 229.373338 
L 274.798532 227.370337 
L 274.377959 225.367335 
L 273.920297 223.364333 
L 273.429626 221.361331 
L 272.911143 219.358329 
L 272.370873 217.355327 
L 271.815352 215.352325 
L 271.251327 213.349323 
L 270.68554 211.346321 
L 270.12461 209.343319 
L 269.575053 207.340317 
L 269.043386 205.337315 
L 268.536278 203.334313 
L 268.060643 201.331311 
L 267.623614 199.328309 
L 267.23229 197.325308 
L 266.893254 195.322306 
L 266.61186 193.319304 
L 266.391382 191.316302 
L 266.23213 189.3133 
L 266.130713 187.310298 
L 266.079586 185.307296 
L 266.066999 183.304294 
L 266.077422 181.301292 
L 266.092425 179.29829 
L 266.091918 177.295288 
L 266.055616 175.292286 
L 265.96453 173.289284 
L 265.802315 171.286282 
L 265.556295 169.28328 
L 265.21809 167.280279 
L 264.783792 165.277277 
L 264.253735 163.274275 
L 263.631945 161.271273 
L 262.9254 159.268271 
L 262.143219 157.265269 
L 261.295931 155.262267 
L 260.394877 153.259265 
L 259.451814 151.256263 
L 258.478719 149.253261 
L 257.487733 147.250259 
L 256.491193 145.247257 
L 255.501644 143.244255 
L 254.531753 141.241253 
L 253.59404 139.238251 
L 252.700403 137.23525 
L 251.861414 135.232248 
L 251.08547 133.229246 
L 250.377883 131.226244 
L 249.740046 129.223242 
L 249.168848 127.22024 
L 248.65646 125.217238 
L 248.190627 123.214236 
L 247.755496 121.211234 
L 247.332964 119.208232 
L 246.904437 117.20523 
L 246.452823 115.202228 
L 245.96454 113.199226 
L 245.431298 111.196224 
L 244.851446 109.193222 
L 244.230706 107.190221 
L 243.582221 105.187219 
L 242.925907 103.184217 
L 242.287203 101.181215 
L 241.695369 99.178213 
L 241.181544 97.175211 
L 240.776776 95.172209 
L 240.510222 93.169207 
L 240.407661 91.166205 
L 240.490414 89.163203 
L 240.774673 87.160201 
L 241.271192 85.157199 
L 241.985252 83.154197 
L 242.916782 81.151195 
L 244.060542 79.148193 
L 245.406315 77.145191 
L 246.939069 75.14219 
L 248.639134 73.139188 
L 250.482457 71.136186 
L 252.441002 69.133184 
L 254.483369 67.130182 
L 256.575669 65.12718 
L 258.682657 63.124178 
L 260.769053 61.121176 
L 262.800977 59.118174 
L 264.747362 57.115172 
L 266.58123 55.11217 
L 289.192812 55.11217 
L 289.192812 55.11217 
L 291.026679 57.115172 
L 292.973065 59.118174 
L 295.004989 61.121176 
L 297.091385 63.124178 
L 299.198373 65.12718 
L 301.290673 67.130182 
L 303.333039 69.133184 
L 305.291584 71.136186 
L 307.134908 73.139188 
L 308.834973 75.14219 
L 310.367726 77.145191 
L 311.713499 79.148193 
L 312.85726 81.151195 
L 313.788789 83.154197 
L 314.50285 85.157199 
L 314.999369 87.160201 
L 315.283628 89.163203 
L 315.366381 91.166205 
L 315.26382 93.169207 
L 314.997266 95.172209 
L 314.592498 97.175211 
L 314.078673 99.178213 
L 313.486838 101.181215 
L 312.848134 103.184217 
L 312.191821 105.187219 
L 311.543336 107.190221 
L 310.922596 109.193222 
L 310.342744 111.196224 
L 309.809502 113.199226 
L 309.321219 115.202228 
L 308.869605 117.20523 
L 308.441077 119.208232 
L 308.018546 121.211234 
L 307.583415 123.214236 
L 307.117582 125.217238 
L 306.605194 127.22024 
L 306.033995 129.223242 
L 305.396159 131.226244 
L 304.688571 133.229246 
L 303.912628 135.232248 
L 303.073639 137.23525 
L 302.180001 139.238251 
L 301.242289 141.241253 
L 300.272398 143.244255 
L 299.282849 145.247257 
L 298.286309 147.250259 
L 297.295323 149.253261 
L 296.322228 151.256263 
L 295.379165 153.259265 
L 294.47811 155.262267 
L 293.630822 157.265269 
L 292.848642 159.268271 
L 292.142096 161.271273 
L 291.520307 163.274275 
L 290.99025 165.277277 
L 290.555952 167.280279 
L 290.217747 169.28328 
L 289.971726 171.286282 
L 289.809511 173.289284 
L 289.718426 175.292286 
L 289.682123 177.295288 
L 289.681617 179.29829 
L 289.69662 181.301292 
L 289.707043 183.304294 
L 289.694456 185.307296 
L 289.643329 187.310298 
L 289.541912 189.3133 
L 289.38266 191.316302 
L 289.162181 193.319304 
L 288.880788 195.322306 
L 288.541752 197.325308 
L 288.150427 199.328309 
L 287.713398 201.331311 
L 287.237764 203.334313 
L 286.730655 205.337315 
L 286.198989 207.340317 
L 285.649431 209.343319 
L 285.088502 211.346321 
L 284.522714 213.349323 
L 283.95869 215.352325 
L 283.403169 217.355327 
L 282.862899 219.358329 
L 282.344416 221.361331 
L 281.853745 223.364333 
L 281.396082 225.367335 
L 280.975509 227.370337 
L 280.594783 229.373338 
L 280.255232 231.37634 
L 279.956767 233.379342 
L 279.697987 235.382344 
L 279.47637 237.385346 
L 279.288518 239.388348 
L 279.130417 241.39135 
L 278.997715 243.394352 
L 278.88597 245.397354 
L 278.790884 247.400356 
L 278.708496 249.403358 
L 278.63534 251.40636 
L 278.568557 253.409362 
z
" clip-path="url(#pc7e96dd8a2)" style="fill: #1f77b4; fill-opacity: 0.3"/>
   </g>
   <g id="PolyCollection_4">
    <path d="M 362.016056 295.488 
L 359.99977 295.488 
L 359.884871 293.212039 
L 359.767865 290.936077 
L 359.649007 288.660116 
L 359.527991 286.384155 
L 359.403856 284.108193 
L 359.274953 281.832232 
L 359.138981 279.556271 
L 358.993115 277.280309 
L 358.834229 275.004348 
L 358.659204 272.728387 
L 358.465298 270.452426 
L 358.25054 268.176464 
L 358.014097 265.900503 
L 357.756569 263.624542 
L 357.480138 261.34858 
L 357.188558 259.072619 
L 356.886947 256.796658 
L 356.581396 254.520696 
L 356.278428 252.244735 
L 355.984371 249.968774 
L 355.704721 247.692812 
L 355.443578 245.416851 
L 355.203249 243.14089 
L 354.984063 240.864928 
L 354.784445 238.588967 
L 354.601224 236.313006 
L 354.430148 234.037044 
L 354.266515 231.761083 
L 354.105824 229.485122 
L 353.944342 227.209161 
L 353.779498 224.933199 
L 353.610037 222.657238 
L 353.435906 220.381277 
L 353.257907 218.105315 
L 353.077155 215.829354 
L 352.89444 213.553393 
L 352.709592 211.277431 
L 352.52093 209.00147 
L 352.324886 206.725509 
L 352.115831 204.449547 
L 351.886141 202.173586 
L 351.626469 199.897625 
L 351.326201 197.621663 
L 350.974068 195.345702 
L 350.558851 193.069741 
L 350.070156 190.793779 
L 349.499221 188.517818 
L 348.839715 186.241857 
L 348.088486 183.965896 
L 347.246202 181.689934 
L 346.317826 179.413973 
L 345.312836 177.138012 
L 344.24513 174.86205 
L 343.132549 172.586089 
L 341.995997 170.310128 
L 340.858166 168.034166 
L 339.741946 165.758205 
L 338.668643 163.482244 
L 337.656166 161.206282 
L 336.717409 158.930321 
L 335.859011 156.65436 
L 335.0807 154.378398 
L 334.375317 152.102437 
L 333.729595 149.826476 
L 333.125616 147.550515 
L 332.542806 145.274553 
L 331.96026 142.998592 
L 331.359112 140.722631 
L 330.724696 138.446669 
L 330.048253 136.170708 
L 329.32803 133.894747 
L 328.56968 131.618785 
L 327.785987 129.342824 
L 326.995994 127.066863 
L 326.2237 124.790901 
L 325.496472 122.51494 
L 324.843376 120.238979 
L 324.293567 117.963017 
L 323.874856 115.687056 
L 323.612545 113.411095 
L 323.528553 111.135133 
L 323.640826 108.859172 
L 323.962992 106.583211 
L 324.504184 104.30725 
L 325.268948 102.031288 
L 326.257166 99.755327 
L 327.463939 97.479366 
L 328.879405 95.203404 
L 330.488545 92.927443 
L 332.27104 90.651482 
L 334.201295 88.37552 
L 336.248752 86.099559 
L 338.378567 83.823598 
L 340.55271 81.547636 
L 342.731455 79.271675 
L 344.875157 76.995714 
L 346.946163 74.719752 
L 348.910666 72.443791 
L 350.740307 70.16783 
L 371.275518 70.16783 
L 371.275518 70.16783 
L 373.105159 72.443791 
L 375.069663 74.719752 
L 377.140669 76.995714 
L 379.284371 79.271675 
L 381.463116 81.547636 
L 383.637259 83.823598 
L 385.767073 86.099559 
L 387.81453 88.37552 
L 389.744785 90.651482 
L 391.52728 92.927443 
L 393.13642 95.203404 
L 394.551886 97.479366 
L 395.758659 99.755327 
L 396.746878 102.031288 
L 397.511641 104.30725 
L 398.052833 106.583211 
L 398.375 108.859172 
L 398.487273 111.135133 
L 398.40328 113.411095 
L 398.140969 115.687056 
L 397.722258 117.963017 
L 397.172449 120.238979 
L 396.519354 122.51494 
L 395.792126 124.790901 
L 395.019831 127.066863 
L 394.229839 129.342824 
L 393.446145 131.618785 
L 392.687795 133.894747 
L 391.967572 136.170708 
L 391.29113 138.446669 
L 390.656713 140.722631 
L 390.055566 142.998592 
L 389.47302 145.274553 
L 388.89021 147.550515 
L 388.28623 149.826476 
L 387.640508 152.102437 
L 386.935126 154.378398 
L 386.156814 156.65436 
L 385.298417 158.930321 
L 384.359659 161.206282 
L 383.347182 163.482244 
L 382.273879 165.758205 
L 381.15766 168.034166 
L 380.019828 170.310128 
L 378.883276 172.586089 
L 377.770696 174.86205 
L 376.70299 177.138012 
L 375.698 179.413973 
L 374.769624 181.689934 
L 373.92734 183.965896 
L 373.17611 186.241857 
L 372.516604 188.517818 
L 371.94567 190.793779 
L 371.456975 193.069741 
L 371.041757 195.345702 
L 370.689624 197.621663 
L 370.389357 199.897625 
L 370.129684 202.173586 
L 369.899994 204.449547 
L 369.69094 206.725509 
L 369.494895 209.00147 
L 369.306233 211.277431 
L 369.121385 213.553393 
L 368.938671 215.829354 
L 368.757918 218.105315 
L 368.579919 220.381277 
L 368.405789 222.657238 
L 368.236327 224.933199 
L 368.071484 227.209161 
L 367.910002 229.485122 
L 367.74931 231.761083 
L 367.585677 234.037044 
L 367.414602 236.313006 
L 367.23138 238.588967 
L 367.031762 240.864928 
L 366.812577 243.14089 
L 366.572247 245.416851 
L 366.311104 247.692812 
L 366.031454 249.968774 
L 365.737398 252.244735 
L 365.43443 254.520696 
L 365.128878 256.796658 
L 364.827267 259.072619 
L 364.535687 261.34858 
L 364.259256 263.624542 
L 364.001728 265.900503 
L 363.765286 268.176464 
L 363.550527 270.452426 
L 363.356621 272.728387 
L 363.181596 275.004348 
L 363.02271 277.280309 
L 362.876844 279.556271 
L 362.740872 281.832232 
L 362.611969 284.108193 
L 362.487835 286.384155 
L 362.366818 288.660116 
L 362.24796 290.936077 
L 362.130954 293.212039 
L 362.016056 295.488 
z
" clip-path="url(#pc7e96dd8a2)" style="fill: #1f77b4; fill-opacity: 0.3"/>
   </g>
   <g id="matplotlib.axis_1">
    <g id="xtick_1">
     <g id="line2d_1">
      <defs>
       <path id="m5db96d76dc" d="M 0 0 
L 0 3.5 
" style="stroke: #000000; stroke-width: 0.8"/>
      </defs>
      <g>
       <use xlink:href="#m5db96d76dc" x="69.668354" y="307.584" style="stroke: #000000; stroke-width: 0.8"/>
      </g>
     </g>
     <g id="text_1">
      <!-- 250 -->
      <g transform="translate(60.124604 322.182437)scale(0.1 -0.1)">
       <defs>
        <path id="DejaVuSans-32" d="M 1228 531 
L 3431 531 
L 3431 0 
L 469 0 
L 469 531 
Q 828 903 1448 1529 
Q 2069 2156 2228 2338 
Q 2531 2678 2651 2914 
Q 2772 3150 2772 3378 
Q 2772 3750 2511 3984 
Q 2250 4219 1831 4219 
Q 1534 4219 1204 4116 
Q 875 4013 500 3803 
L 500 4441 
Q 881 4594 1212 4672 
Q 1544 4750 1819 4750 
Q 2544 4750 2975 4387 
Q 3406 4025 3406 3419 
Q 3406 3131 3298 2873 
Q 3191 2616 2906 2266 
Q 2828 2175 2409 1742 
Q 1991 1309 1228 531 
z
" transform="scale(0.015625)"/>
        <path id="DejaVuSans-35" d="M 691 4666 
L 3169 4666 
L 3169 4134 
L 1269 4134 
L 1269 2991 
Q 1406 3038 1543 3061 
Q 1681 3084 1819 3084 
Q 2600 3084 3056 2656 
Q 3513 2228 3513 1497 
Q 3513 744 3044 326 
Q 2575 -91 1722 -91 
Q 1428 -91 1123 -41 
Q 819 9 494 109 
L 494 744 
Q 775 591 1075 516 
Q 1375 441 1709 441 
Q 2250 441 2565 725 
Q 2881 1009 2881 1497 
Q 2881 1984 2565 2268 
Q 2250 2553 1709 2553 
Q 1456 2553 1204 2497 
Q 953 2441 691 2322 
L 691 4666 
z
" transform="scale(0.015625)"/>
        <path id="DejaVuSans-30" d="M 2034 4250 
Q 1547 4250 1301 3770 
Q 1056 3291 1056 2328 
Q 1056 1369 1301 889 
Q 1547 409 2034 409 
Q 2525 409 2770 889 
Q 3016 1369 3016 2328 
Q 3016 3291 2770 3770 
Q 2525 4250 2034 4250 
z
M 2034 4750 
Q 2819 4750 3233 4129 
Q 3647 3509 3647 2328 
Q 3647 1150 3233 529 
Q 2819 -91 2034 -91 
Q 1250 -91 836 529 
Q 422 1150 422 2328 
Q 422 3509 836 4129 
Q 1250 4750 2034 4750 
z
" transform="scale(0.015625)"/>
       </defs>
       <use xlink:href="#DejaVuSans-32"/>
       <use xlink:href="#DejaVuSans-35" x="63.623047"/>
       <use xlink:href="#DejaVuSans-30" x="127.246094"/>
      </g>
     </g>
    </g>
    <g id="xtick_2">
     <g id="line2d_2">
      <g>
       <use xlink:href="#m5db96d76dc" x="111.312087" y="307.584" style="stroke: #000000; stroke-width: 0.8"/>
      </g>
     </g>
     <g id="text_2">
      <!-- 500 -->
      <g transform="translate(101.768337 322.182437)scale(0.1 -0.1)">
       <use xlink:href="#DejaVuSans-35"/>
       <use xlink:href="#DejaVuSans-30" x="63.623047"/>
       <use xlink:href="#DejaVuSans-30" x="127.246094"/>
      </g>
     </g>
    </g>
    <g id="xtick_3">
     <g id="line2d_3">
      <g>
       <use xlink:href="#m5db96d76dc" x="152.955821" y="307.584" style="stroke: #000000; stroke-width: 0.8"/>
      </g>
     </g>
     <g id="text_3">
      <!-- 750 -->
      <g transform="translate(143.412071 322.182437)scale(0.1 -0.1)">
       <defs>
        <path id="DejaVuSans-37" d="M 525 4666 
L 3525 4666 
L 3525 4397 
L 1831 0 
L 1172 0 
L 2766 4134 
L 525 4134 
L 525 4666 
z
" transform="scale(0.015625)"/>
       </defs>
       <use xlink:href="#DejaVuSans-37"/>
       <use xlink:href="#DejaVuSans-35" x="63.623047"/>
       <use xlink:href="#DejaVuSans-30" x="127.246094"/>
      </g>
     </g>
    </g>
    <g id="xtick_4">
     <g id="line2d_4">
      <g>
       <use xlink:href="#m5db96d76dc" x="194.599554" y="307.584" style="stroke: #000000; stroke-width: 0.8"/>
      </g>
     </g>
     <g id="text_4">
      <!-- 1000 -->
      <g transform="translate(181.874554 322.182437)scale(0.1 -0.1)">
       <defs>
        <path id="DejaVuSans-31" d="M 794 531 
L 1825 531 
L 1825 4091 
L 703 3866 
L 703 4441 
L 1819 4666 
L 2450 4666 
L 2450 531 
L 3481 531 
L 3481 0 
L 794 0 
L 794 531 
z
" transform="scale(0.015625)"/>
       </defs>
       <use xlink:href="#DejaVuSans-31"/>
       <use xlink:href="#DejaVuSans-30" x="63.623047"/>
       <use xlink:href="#DejaVuSans-30" x="127.246094"/>
       <use xlink:href="#DejaVuSans-30" x="190.869141"/>
      </g>
     </g>
    </g>
    <g id="xtick_5">
     <g id="line2d_5">
      <g>
       <use xlink:href="#m5db96d76dc" x="236.243287" y="307.584" style="stroke: #000000; stroke-width: 0.8"/>
      </g>
     </g>
     <g id="text_5">
      <!-- 1250 -->
      <g transform="translate(223.518287 322.182437)scale(0.1 -0.1)">
       <use xlink:href="#DejaVuSans-31"/>
       <use xlink:href="#DejaVuSans-32" x="63.623047"/>
       <use xlink:href="#DejaVuSans-35" x="127.246094"/>
       <use xlink:href="#DejaVuSans-30" x="190.869141"/>
      </g>
     </g>
    </g>
    <g id="xtick_6">
     <g id="line2d_6">
      <g>
       <use xlink:href="#m5db96d76dc" x="277.887021" y="307.584" style="stroke: #000000; stroke-width: 0.8"/>
      </g>
     </g>
     <g id="text_6">
      <!-- 1500 -->
      <g transform="translate(265.162021 322.182437)scale(0.1 -0.1)">
       <use xlink:href="#DejaVuSans-31"/>
       <use xlink:href="#DejaVuSans-35" x="63.623047"/>
       <use xlink:href="#DejaVuSans-30" x="127.246094"/>
       <use xlink:href="#DejaVuSans-30" x="190.869141"/>
      </g>
     </g>
    </g>
    <g id="xtick_7">
     <g id="line2d_7">
      <g>
       <use xlink:href="#m5db96d76dc" x="319.530754" y="307.584" style="stroke: #000000; stroke-width: 0.8"/>
      </g>
     </g>
     <g id="text_7">
      <!-- 1750 -->
      <g transform="translate(306.805754 322.182437)scale(0.1 -0.1)">
       <use xlink:href="#DejaVuSans-31"/>
       <use xlink:href="#DejaVuSans-37" x="63.623047"/>
       <use xlink:href="#DejaVuSans-35" x="127.246094"/>
       <use xlink:href="#DejaVuSans-30" x="190.869141"/>
      </g>
     </g>
    </g>
    <g id="xtick_8">
     <g id="line2d_8">
      <g>
       <use xlink:href="#m5db96d76dc" x="361.174488" y="307.584" style="stroke: #000000; stroke-width: 0.8"/>
      </g>
     </g>
     <g id="text_8">
      <!-- 2000 -->
      <g transform="translate(348.449488 322.182437)scale(0.1 -0.1)">
       <use xlink:href="#DejaVuSans-32"/>
       <use xlink:href="#DejaVuSans-30" x="63.623047"/>
       <use xlink:href="#DejaVuSans-30" x="127.246094"/>
       <use xlink:href="#DejaVuSans-30" x="190.869141"/>
      </g>
     </g>
    </g>
    <g id="xtick_9">
     <g id="line2d_9">
      <g>
       <use xlink:href="#m5db96d76dc" x="402.818221" y="307.584" style="stroke: #000000; stroke-width: 0.8"/>
      </g>
     </g>
     <g id="text_9">
      <!-- 2250 -->
      <g transform="translate(390.093221 322.182437)scale(0.1 -0.1)">
       <use xlink:href="#DejaVuSans-32"/>
       <use xlink:href="#DejaVuSans-32" x="63.623047"/>
       <use xlink:href="#DejaVuSans-35" x="127.246094"/>
       <use xlink:href="#DejaVuSans-30" x="190.869141"/>
      </g>
     </g>
    </g>
    <g id="text_10">
     <!-- Learned Episodes -->
     <g transform="translate(192.102187 335.860562)scale(0.1 -0.1)">
      <defs>
       <path id="DejaVuSans-4c" d="M 628 4666 
L 1259 4666 
L 1259 531 
L 3531 531 
L 3531 0 
L 628 0 
L 628 4666 
z
" transform="scale(0.015625)"/>
       <path id="DejaVuSans-65" d="M 3597 1894 
L 3597 1613 
L 953 1613 
Q 991 1019 1311 708 
Q 1631 397 2203 397 
Q 2534 397 2845 478 
Q 3156 559 3463 722 
L 3463 178 
Q 3153 47 2828 -22 
Q 2503 -91 2169 -91 
Q 1331 -91 842 396 
Q 353 884 353 1716 
Q 353 2575 817 3079 
Q 1281 3584 2069 3584 
Q 2775 3584 3186 3129 
Q 3597 2675 3597 1894 
z
M 3022 2063 
Q 3016 2534 2758 2815 
Q 2500 3097 2075 3097 
Q 1594 3097 1305 2825 
Q 1016 2553 972 2059 
L 3022 2063 
z
" transform="scale(0.015625)"/>
       <path id="DejaVuSans-61" d="M 2194 1759 
Q 1497 1759 1228 1600 
Q 959 1441 959 1056 
Q 959 750 1161 570 
Q 1363 391 1709 391 
Q 2188 391 2477 730 
Q 2766 1069 2766 1631 
L 2766 1759 
L 2194 1759 
z
M 3341 1997 
L 3341 0 
L 2766 0 
L 2766 531 
Q 2569 213 2275 61 
Q 1981 -91 1556 -91 
Q 1019 -91 701 211 
Q 384 513 384 1019 
Q 384 1609 779 1909 
Q 1175 2209 1959 2209 
L 2766 2209 
L 2766 2266 
Q 2766 2663 2505 2880 
Q 2244 3097 1772 3097 
Q 1472 3097 1187 3025 
Q 903 2953 641 2809 
L 641 3341 
Q 956 3463 1253 3523 
Q 1550 3584 1831 3584 
Q 2591 3584 2966 3190 
Q 3341 2797 3341 1997 
z
" transform="scale(0.015625)"/>
       <path id="DejaVuSans-72" d="M 2631 2963 
Q 2534 3019 2420 3045 
Q 2306 3072 2169 3072 
Q 1681 3072 1420 2755 
Q 1159 2438 1159 1844 
L 1159 0 
L 581 0 
L 581 3500 
L 1159 3500 
L 1159 2956 
Q 1341 3275 1631 3429 
Q 1922 3584 2338 3584 
Q 2397 3584 2469 3576 
Q 2541 3569 2628 3553 
L 2631 2963 
z
" transform="scale(0.015625)"/>
       <path id="DejaVuSans-6e" d="M 3513 2113 
L 3513 0 
L 2938 0 
L 2938 2094 
Q 2938 2591 2744 2837 
Q 2550 3084 2163 3084 
Q 1697 3084 1428 2787 
Q 1159 2491 1159 1978 
L 1159 0 
L 581 0 
L 581 3500 
L 1159 3500 
L 1159 2956 
Q 1366 3272 1645 3428 
Q 1925 3584 2291 3584 
Q 2894 3584 3203 3211 
Q 3513 2838 3513 2113 
z
" transform="scale(0.015625)"/>
       <path id="DejaVuSans-64" d="M 2906 2969 
L 2906 4863 
L 3481 4863 
L 3481 0 
L 2906 0 
L 2906 525 
Q 2725 213 2448 61 
Q 2172 -91 1784 -91 
Q 1150 -91 751 415 
Q 353 922 353 1747 
Q 353 2572 751 3078 
Q 1150 3584 1784 3584 
Q 2172 3584 2448 3432 
Q 2725 3281 2906 2969 
z
M 947 1747 
Q 947 1113 1208 752 
Q 1469 391 1925 391 
Q 2381 391 2643 752 
Q 2906 1113 2906 1747 
Q 2906 2381 2643 2742 
Q 2381 3103 1925 3103 
Q 1469 3103 1208 2742 
Q 947 2381 947 1747 
z
" transform="scale(0.015625)"/>
       <path id="DejaVuSans-20" transform="scale(0.015625)"/>
       <path id="DejaVuSans-45" d="M 628 4666 
L 3578 4666 
L 3578 4134 
L 1259 4134 
L 1259 2753 
L 3481 2753 
L 3481 2222 
L 1259 2222 
L 1259 531 
L 3634 531 
L 3634 0 
L 628 0 
L 628 4666 
z
" transform="scale(0.015625)"/>
       <path id="DejaVuSans-70" d="M 1159 525 
L 1159 -1331 
L 581 -1331 
L 581 3500 
L 1159 3500 
L 1159 2969 
Q 1341 3281 1617 3432 
Q 1894 3584 2278 3584 
Q 2916 3584 3314 3078 
Q 3713 2572 3713 1747 
Q 3713 922 3314 415 
Q 2916 -91 2278 -91 
Q 1894 -91 1617 61 
Q 1341 213 1159 525 
z
M 3116 1747 
Q 3116 2381 2855 2742 
Q 2594 3103 2138 3103 
Q 1681 3103 1420 2742 
Q 1159 2381 1159 1747 
Q 1159 1113 1420 752 
Q 1681 391 2138 391 
Q 2594 391 2855 752 
Q 3116 1113 3116 1747 
z
" transform="scale(0.015625)"/>
       <path id="DejaVuSans-69" d="M 603 3500 
L 1178 3500 
L 1178 0 
L 603 0 
L 603 3500 
z
M 603 4863 
L 1178 4863 
L 1178 4134 
L 603 4134 
L 603 4863 
z
" transform="scale(0.015625)"/>
       <path id="DejaVuSans-73" d="M 2834 3397 
L 2834 2853 
Q 2591 2978 2328 3040 
Q 2066 3103 1784 3103 
Q 1356 3103 1142 2972 
Q 928 2841 928 2578 
Q 928 2378 1081 2264 
Q 1234 2150 1697 2047 
L 1894 2003 
Q 2506 1872 2764 1633 
Q 3022 1394 3022 966 
Q 3022 478 2636 193 
Q 2250 -91 1575 -91 
Q 1294 -91 989 -36 
Q 684 19 347 128 
L 347 722 
Q 666 556 975 473 
Q 1284 391 1588 391 
Q 1994 391 2212 530 
Q 2431 669 2431 922 
Q 2431 1156 2273 1281 
Q 2116 1406 1581 1522 
L 1381 1569 
Q 847 1681 609 1914 
Q 372 2147 372 2553 
Q 372 3047 722 3315 
Q 1072 3584 1716 3584 
Q 2034 3584 2315 3537 
Q 2597 3491 2834 3397 
z
" transform="scale(0.015625)"/>
       <path id="DejaVuSans-6f" d="M 1959 3097 
Q 1497 3097 1228 2736 
Q 959 2375 959 1747 
Q 959 1119 1226 758 
Q 1494 397 1959 397 
Q 2419 397 2687 759 
Q 2956 1122 2956 1747 
Q 2956 2369 2687 2733 
Q 2419 3097 1959 3097 
z
M 1959 3584 
Q 2709 3584 3137 3096 
Q 3566 2609 3566 1747 
Q 3566 888 3137 398 
Q 2709 -91 1959 -91 
Q 1206 -91 779 398 
Q 353 888 353 1747 
Q 353 2609 779 3096 
Q 1206 3584 1959 3584 
z
" transform="scale(0.015625)"/>
      </defs>
      <use xlink:href="#DejaVuSans-4c"/>
      <use xlink:href="#DejaVuSans-65" x="53.962891"/>
      <use xlink:href="#DejaVuSans-61" x="115.486328"/>
      <use xlink:href="#DejaVuSans-72" x="176.765625"/>
      <use xlink:href="#DejaVuSans-6e" x="216.128906"/>
      <use xlink:href="#DejaVuSans-65" x="279.507812"/>
      <use xlink:href="#DejaVuSans-64" x="341.03125"/>
      <use xlink:href="#DejaVuSans-20" x="404.507812"/>
      <use xlink:href="#DejaVuSans-45" x="436.294922"/>
      <use xlink:href="#DejaVuSans-70" x="499.478516"/>
      <use xlink:href="#DejaVuSans-69" x="562.955078"/>
      <use xlink:href="#DejaVuSans-73" x="590.738281"/>
      <use xlink:href="#DejaVuSans-6f" x="642.837891"/>
      <use xlink:href="#DejaVuSans-64" x="704.019531"/>
      <use xlink:href="#DejaVuSans-65" x="767.496094"/>
      <use xlink:href="#DejaVuSans-73" x="829.019531"/>
     </g>
    </g>
   </g>
   <g id="matplotlib.axis_2">
    <g id="ytick_1">
     <g id="line2d_10">
      <defs>
       <path id="m36ab687c74" d="M 0 0 
L -3.5 0 
" style="stroke: #000000; stroke-width: 0.8"/>
      </defs>
      <g>
       <use xlink:href="#m36ab687c74" x="57.6" y="306.940596" style="stroke: #000000; stroke-width: 0.8"/>
      </g>
     </g>
     <g id="text_11">
      <!-- −225 -->
      <g transform="translate(23.132812 310.739814)scale(0.1 -0.1)">
       <defs>
        <path id="DejaVuSans-2212" d="M 678 2272 
L 4684 2272 
L 4684 1741 
L 678 1741 
L 678 2272 
z
" transform="scale(0.015625)"/>
       </defs>
       <use xlink:href="#DejaVuSans-2212"/>
       <use xlink:href="#DejaVuSans-32" x="83.789062"/>
       <use xlink:href="#DejaVuSans-32" x="147.412109"/>
       <use xlink:href="#DejaVuSans-35" x="211.035156"/>
      </g>
     </g>
    </g>
    <g id="ytick_2">
     <g id="line2d_11">
      <g>
       <use xlink:href="#m36ab687c74" x="57.6" y="274.770383" style="stroke: #000000; stroke-width: 0.8"/>
      </g>
     </g>
     <g id="text_12">
      <!-- −200 -->
      <g transform="translate(23.132812 278.569602)scale(0.1 -0.1)">
       <use xlink:href="#DejaVuSans-2212"/>
       <use xlink:href="#DejaVuSans-32" x="83.789062"/>
       <use xlink:href="#DejaVuSans-30" x="147.412109"/>
       <use xlink:href="#DejaVuSans-30" x="211.035156"/>
      </g>
     </g>
    </g>
    <g id="ytick_3">
     <g id="line2d_12">
      <g>
       <use xlink:href="#m36ab687c74" x="57.6" y="242.60017" style="stroke: #000000; stroke-width: 0.8"/>
      </g>
     </g>
     <g id="text_13">
      <!-- −175 -->
      <g transform="translate(23.132812 246.399389)scale(0.1 -0.1)">
       <use xlink:href="#DejaVuSans-2212"/>
       <use xlink:href="#DejaVuSans-31" x="83.789062"/>
       <use xlink:href="#DejaVuSans-37" x="147.412109"/>
       <use xlink:href="#DejaVuSans-35" x="211.035156"/>
      </g>
     </g>
    </g>
    <g id="ytick_4">
     <g id="line2d_13">
      <g>
       <use xlink:href="#m36ab687c74" x="57.6" y="210.429957" style="stroke: #000000; stroke-width: 0.8"/>
      </g>
     </g>
     <g id="text_14">
      <!-- −150 -->
      <g transform="translate(23.132812 214.229176)scale(0.1 -0.1)">
       <use xlink:href="#DejaVuSans-2212"/>
       <use xlink:href="#DejaVuSans-31" x="83.789062"/>
       <use xlink:href="#DejaVuSans-35" x="147.412109"/>
       <use xlink:href="#DejaVuSans-30" x="211.035156"/>
      </g>
     </g>
    </g>
    <g id="ytick_5">
     <g id="line2d_14">
      <g>
       <use xlink:href="#m36ab687c74" x="57.6" y="178.259745" style="stroke: #000000; stroke-width: 0.8"/>
      </g>
     </g>
     <g id="text_15">
      <!-- −125 -->
      <g transform="translate(23.132812 182.058963)scale(0.1 -0.1)">
       <use xlink:href="#DejaVuSans-2212"/>
       <use xlink:href="#DejaVuSans-31" x="83.789062"/>
       <use xlink:href="#DejaVuSans-32" x="147.412109"/>
       <use xlink:href="#DejaVuSans-35" x="211.035156"/>
      </g>
     </g>
    </g>
    <g id="ytick_6">
     <g id="line2d_15">
      <g>
       <use xlink:href="#m36ab687c74" x="57.6" y="146.089532" style="stroke: #000000; stroke-width: 0.8"/>
      </g>
     </g>
     <g id="text_16">
      <!-- −100 -->
      <g transform="translate(23.132812 149.888751)scale(0.1 -0.1)">
       <use xlink:href="#DejaVuSans-2212"/>
       <use xlink:href="#DejaVuSans-31" x="83.789062"/>
       <use xlink:href="#DejaVuSans-30" x="147.412109"/>
       <use xlink:href="#DejaVuSans-30" x="211.035156"/>
      </g>
     </g>
    </g>
    <g id="ytick_7">
     <g id="line2d_16">
      <g>
       <use xlink:href="#m36ab687c74" x="57.6" y="113.919319" style="stroke: #000000; stroke-width: 0.8"/>
      </g>
     </g>
     <g id="text_17">
      <!-- −75 -->
      <g transform="translate(29.495313 117.718538)scale(0.1 -0.1)">
       <use xlink:href="#DejaVuSans-2212"/>
       <use xlink:href="#DejaVuSans-37" x="83.789062"/>
       <use xlink:href="#DejaVuSans-35" x="147.412109"/>
      </g>
     </g>
    </g>
    <g id="ytick_8">
     <g id="line2d_17">
      <g>
       <use xlink:href="#m36ab687c74" x="57.6" y="81.749106" style="stroke: #000000; stroke-width: 0.8"/>
      </g>
     </g>
     <g id="text_18">
      <!-- −50 -->
      <g transform="translate(29.495313 85.548325)scale(0.1 -0.1)">
       <use xlink:href="#DejaVuSans-2212"/>
       <use xlink:href="#DejaVuSans-35" x="83.789062"/>
       <use xlink:href="#DejaVuSans-30" x="147.412109"/>
      </g>
     </g>
    </g>
    <g id="ytick_9">
     <g id="line2d_18">
      <g>
       <use xlink:href="#m36ab687c74" x="57.6" y="49.578894" style="stroke: #000000; stroke-width: 0.8"/>
      </g>
     </g>
     <g id="text_19">
      <!-- −25 -->
      <g transform="translate(29.495313 53.378112)scale(0.1 -0.1)">
       <use xlink:href="#DejaVuSans-2212"/>
       <use xlink:href="#DejaVuSans-32" x="83.789062"/>
       <use xlink:href="#DejaVuSans-35" x="147.412109"/>
      </g>
     </g>
    </g>
    <g id="text_20">
     <!-- Reward Density -->
     <g transform="translate(17.053125 213.74675)rotate(-90)scale(0.1 -0.1)">
      <defs>
       <path id="DejaVuSans-52" d="M 2841 2188 
Q 3044 2119 3236 1894 
Q 3428 1669 3622 1275 
L 4263 0 
L 3584 0 
L 2988 1197 
Q 2756 1666 2539 1819 
Q 2322 1972 1947 1972 
L 1259 1972 
L 1259 0 
L 628 0 
L 628 4666 
L 2053 4666 
Q 2853 4666 3247 4331 
Q 3641 3997 3641 3322 
Q 3641 2881 3436 2590 
Q 3231 2300 2841 2188 
z
M 1259 4147 
L 1259 2491 
L 2053 2491 
Q 2509 2491 2742 2702 
Q 2975 2913 2975 3322 
Q 2975 3731 2742 3939 
Q 2509 4147 2053 4147 
L 1259 4147 
z
" transform="scale(0.015625)"/>
       <path id="DejaVuSans-77" d="M 269 3500 
L 844 3500 
L 1563 769 
L 2278 3500 
L 2956 3500 
L 3675 769 
L 4391 3500 
L 4966 3500 
L 4050 0 
L 3372 0 
L 2619 2869 
L 1863 0 
L 1184 0 
L 269 3500 
z
" transform="scale(0.015625)"/>
       <path id="DejaVuSans-44" d="M 1259 4147 
L 1259 519 
L 2022 519 
Q 2988 519 3436 956 
Q 3884 1394 3884 2338 
Q 3884 3275 3436 3711 
Q 2988 4147 2022 4147 
L 1259 4147 
z
M 628 4666 
L 1925 4666 
Q 3281 4666 3915 4102 
Q 4550 3538 4550 2338 
Q 4550 1131 3912 565 
Q 3275 0 1925 0 
L 628 0 
L 628 4666 
z
" transform="scale(0.015625)"/>
       <path id="DejaVuSans-74" d="M 1172 4494 
L 1172 3500 
L 2356 3500 
L 2356 3053 
L 1172 3053 
L 1172 1153 
Q 1172 725 1289 603 
Q 1406 481 1766 481 
L 2356 481 
L 2356 0 
L 1766 0 
Q 1100 0 847 248 
Q 594 497 594 1153 
L 594 3053 
L 172 3053 
L 172 3500 
L 594 3500 
L 594 4494 
L 1172 4494 
z
" transform="scale(0.015625)"/>
       <path id="DejaVuSans-79" d="M 2059 -325 
Q 1816 -950 1584 -1140 
Q 1353 -1331 966 -1331 
L 506 -1331 
L 506 -850 
L 844 -850 
Q 1081 -850 1212 -737 
Q 1344 -625 1503 -206 
L 1606 56 
L 191 3500 
L 800 3500 
L 1894 763 
L 2988 3500 
L 3597 3500 
L 2059 -325 
z
" transform="scale(0.015625)"/>
      </defs>
      <use xlink:href="#DejaVuSans-52"/>
      <use xlink:href="#DejaVuSans-65" x="64.982422"/>
      <use xlink:href="#DejaVuSans-77" x="126.505859"/>
      <use xlink:href="#DejaVuSans-61" x="208.292969"/>
      <use xlink:href="#DejaVuSans-72" x="269.572266"/>
      <use xlink:href="#DejaVuSans-64" x="308.935547"/>
      <use xlink:href="#DejaVuSans-20" x="372.412109"/>
      <use xlink:href="#DejaVuSans-44" x="404.199219"/>
      <use xlink:href="#DejaVuSans-65" x="481.201172"/>
      <use xlink:href="#DejaVuSans-6e" x="542.724609"/>
      <use xlink:href="#DejaVuSans-73" x="606.103516"/>
      <use xlink:href="#DejaVuSans-69" x="658.203125"/>
      <use xlink:href="#DejaVuSans-74" x="685.986328"/>
      <use xlink:href="#DejaVuSans-79" x="725.195312"/>
     </g>
    </g>
   </g>
   <g id="LineCollection_1">
    <path d="M 92.572407 101.667873 
L 130.051767 101.667873 
" clip-path="url(#pc7e96dd8a2)" style="fill: none; stroke: #1f77b4; stroke-width: 1.5"/>
    <path d="M 175.859874 119.348622 
L 213.339234 119.348622 
" clip-path="url(#pc7e96dd8a2)" style="fill: none; stroke: #1f77b4; stroke-width: 1.5"/>
    <path d="M 259.147341 120.312699 
L 296.626701 120.312699 
" clip-path="url(#pc7e96dd8a2)" style="fill: none; stroke: #1f77b4; stroke-width: 1.5"/>
    <path d="M 342.268233 140.373014 
L 379.747593 140.373014 
" clip-path="url(#pc7e96dd8a2)" style="fill: none; stroke: #1f77b4; stroke-width: 1.5"/>
   </g>
   <g id="LineCollection_2">
    <path d="M 92.572407 53.568 
L 130.051767 53.568 
" clip-path="url(#pc7e96dd8a2)" style="fill: none; stroke: #1f77b4; stroke-width: 1.5"/>
    <path d="M 175.859874 66.436085 
L 213.339234 66.436085 
" clip-path="url(#pc7e96dd8a2)" style="fill: none; stroke: #1f77b4; stroke-width: 1.5"/>
    <path d="M 259.147341 55.11217 
L 296.626701 55.11217 
" clip-path="url(#pc7e96dd8a2)" style="fill: none; stroke: #1f77b4; stroke-width: 1.5"/>
    <path d="M 342.268233 70.16783 
L 379.747593 70.16783 
" clip-path="url(#pc7e96dd8a2)" style="fill: none; stroke: #1f77b4; stroke-width: 1.5"/>
   </g>
   <g id="LineCollection_3">
    <path d="M 92.572407 228.573957 
L 130.051767 228.573957 
" clip-path="url(#pc7e96dd8a2)" style="fill: none; stroke: #1f77b4; stroke-width: 1.5"/>
    <path d="M 175.859874 249.548936 
L 213.339234 249.548936 
" clip-path="url(#pc7e96dd8a2)" style="fill: none; stroke: #1f77b4; stroke-width: 1.5"/>
    <path d="M 259.147341 253.409362 
L 296.626701 253.409362 
" clip-path="url(#pc7e96dd8a2)" style="fill: none; stroke: #1f77b4; stroke-width: 1.5"/>
    <path d="M 342.268233 295.488 
L 379.747593 295.488 
" clip-path="url(#pc7e96dd8a2)" style="fill: none; stroke: #1f77b4; stroke-width: 1.5"/>
   </g>
   <g id="LineCollection_4">
    <path d="M 111.312087 228.573957 
L 111.312087 53.568 
" clip-path="url(#pc7e96dd8a2)" style="fill: none; stroke: #1f77b4; stroke-width: 1.5"/>
    <path d="M 194.599554 249.548936 
L 194.599554 66.436085 
" clip-path="url(#pc7e96dd8a2)" style="fill: none; stroke: #1f77b4; stroke-width: 1.5"/>
    <path d="M 277.887021 253.409362 
L 277.887021 55.11217 
" clip-path="url(#pc7e96dd8a2)" style="fill: none; stroke: #1f77b4; stroke-width: 1.5"/>
    <path d="M 361.007913 295.488 
L 361.007913 70.16783 
" clip-path="url(#pc7e96dd8a2)" style="fill: none; stroke: #1f77b4; stroke-width: 1.5"/>
   </g>
   <g id="line2d_19">
    <path d="M 111.312087 101.667873 
L 194.599554 119.348622 
L 277.887021 120.312699 
L 361.007913 140.373014 
" clip-path="url(#pc7e96dd8a2)" style="fill: none; stroke: #4682b4; stroke-width: 1.5; stroke-linecap: square"/>
   </g>
   <g id="patch_3">
    <path d="M 57.6 307.584 
L 57.6 41.472 
" style="fill: none; stroke: #000000; stroke-width: 0.8; stroke-linejoin: miter; stroke-linecap: square"/>
   </g>
   <g id="patch_4">
    <path d="M 414.72 307.584 
L 414.72 41.472 
" style="fill: none; stroke: #000000; stroke-width: 0.8; stroke-linejoin: miter; stroke-linecap: square"/>
   </g>
   <g id="patch_5">
    <path d="M 57.6 307.584 
L 414.72 307.584 
" style="fill: none; stroke: #000000; stroke-width: 0.8; stroke-linejoin: miter; stroke-linecap: square"/>
   </g>
   <g id="patch_6">
    <path d="M 57.6 41.472 
L 414.72 41.472 
" style="fill: none; stroke: #000000; stroke-width: 0.8; stroke-linejoin: miter; stroke-linecap: square"/>
   </g>
   <g id="text_21">
    <!-- Violinplot for progress of profits/storage_cost -->
    <g transform="translate(101.32875 35.472)scale(0.12 -0.12)">
     <defs>
      <path id="DejaVuSans-56" d="M 1831 0 
L 50 4666 
L 709 4666 
L 2188 738 
L 3669 4666 
L 4325 4666 
L 2547 0 
L 1831 0 
z
" transform="scale(0.015625)"/>
      <path id="DejaVuSans-6c" d="M 603 4863 
L 1178 4863 
L 1178 0 
L 603 0 
L 603 4863 
z
" transform="scale(0.015625)"/>
      <path id="DejaVuSans-66" d="M 2375 4863 
L 2375 4384 
L 1825 4384 
Q 1516 4384 1395 4259 
Q 1275 4134 1275 3809 
L 1275 3500 
L 2222 3500 
L 2222 3053 
L 1275 3053 
L 1275 0 
L 697 0 
L 697 3053 
L 147 3053 
L 147 3500 
L 697 3500 
L 697 3744 
Q 697 4328 969 4595 
Q 1241 4863 1831 4863 
L 2375 4863 
z
" transform="scale(0.015625)"/>
      <path id="DejaVuSans-67" d="M 2906 1791 
Q 2906 2416 2648 2759 
Q 2391 3103 1925 3103 
Q 1463 3103 1205 2759 
Q 947 2416 947 1791 
Q 947 1169 1205 825 
Q 1463 481 1925 481 
Q 2391 481 2648 825 
Q 2906 1169 2906 1791 
z
M 3481 434 
Q 3481 -459 3084 -895 
Q 2688 -1331 1869 -1331 
Q 1566 -1331 1297 -1286 
Q 1028 -1241 775 -1147 
L 775 -588 
Q 1028 -725 1275 -790 
Q 1522 -856 1778 -856 
Q 2344 -856 2625 -561 
Q 2906 -266 2906 331 
L 2906 616 
Q 2728 306 2450 153 
Q 2172 0 1784 0 
Q 1141 0 747 490 
Q 353 981 353 1791 
Q 353 2603 747 3093 
Q 1141 3584 1784 3584 
Q 2172 3584 2450 3431 
Q 2728 3278 2906 2969 
L 2906 3500 
L 3481 3500 
L 3481 434 
z
" transform="scale(0.015625)"/>
      <path id="DejaVuSans-2f" d="M 1625 4666 
L 2156 4666 
L 531 -594 
L 0 -594 
L 1625 4666 
z
" transform="scale(0.015625)"/>
      <path id="DejaVuSans-5f" d="M 3263 -1063 
L 3263 -1509 
L -63 -1509 
L -63 -1063 
L 3263 -1063 
z
" transform="scale(0.015625)"/>
      <path id="DejaVuSans-63" d="M 3122 3366 
L 3122 2828 
Q 2878 2963 2633 3030 
Q 2388 3097 2138 3097 
Q 1578 3097 1268 2742 
Q 959 2388 959 1747 
Q 959 1106 1268 751 
Q 1578 397 2138 397 
Q 2388 397 2633 464 
Q 2878 531 3122 666 
L 3122 134 
Q 2881 22 2623 -34 
Q 2366 -91 2075 -91 
Q 1284 -91 818 406 
Q 353 903 353 1747 
Q 353 2603 823 3093 
Q 1294 3584 2113 3584 
Q 2378 3584 2631 3529 
Q 2884 3475 3122 3366 
z
" transform="scale(0.015625)"/>
     </defs>
     <use xlink:href="#DejaVuSans-56"/>
     <use xlink:href="#DejaVuSans-69" x="66.158203"/>
     <use xlink:href="#DejaVuSans-6f" x="93.941406"/>
     <use xlink:href="#DejaVuSans-6c" x="155.123047"/>
     <use xlink:href="#DejaVuSans-69" x="182.90625"/>
     <use xlink:href="#DejaVuSans-6e" x="210.689453"/>
     <use xlink:href="#DejaVuSans-70" x="274.068359"/>
     <use xlink:href="#DejaVuSans-6c" x="337.544922"/>
     <use xlink:href="#DejaVuSans-6f" x="365.328125"/>
     <use xlink:href="#DejaVuSans-74" x="426.509766"/>
     <use xlink:href="#DejaVuSans-20" x="465.71875"/>
     <use xlink:href="#DejaVuSans-66" x="497.505859"/>
     <use xlink:href="#DejaVuSans-6f" x="532.710938"/>
     <use xlink:href="#DejaVuSans-72" x="593.892578"/>
     <use xlink:href="#DejaVuSans-20" x="635.005859"/>
     <use xlink:href="#DejaVuSans-70" x="666.792969"/>
     <use xlink:href="#DejaVuSans-72" x="730.269531"/>
     <use xlink:href="#DejaVuSans-6f" x="769.132812"/>
     <use xlink:href="#DejaVuSans-67" x="830.314453"/>
     <use xlink:href="#DejaVuSans-72" x="893.791016"/>
     <use xlink:href="#DejaVuSans-65" x="932.654297"/>
     <use xlink:href="#DejaVuSans-73" x="994.177734"/>
     <use xlink:href="#DejaVuSans-73" x="1046.277344"/>
     <use xlink:href="#DejaVuSans-20" x="1098.376953"/>
     <use xlink:href="#DejaVuSans-6f" x="1130.164062"/>
     <use xlink:href="#DejaVuSans-66" x="1191.345703"/>
     <use xlink:href="#DejaVuSans-20" x="1226.550781"/>
     <use xlink:href="#DejaVuSans-70" x="1258.337891"/>
     <use xlink:href="#DejaVuSans-72" x="1321.814453"/>
     <use xlink:href="#DejaVuSans-6f" x="1360.677734"/>
     <use xlink:href="#DejaVuSans-66" x="1421.859375"/>
     <use xlink:href="#DejaVuSans-69" x="1457.064453"/>
     <use xlink:href="#DejaVuSans-74" x="1484.847656"/>
     <use xlink:href="#DejaVuSans-73" x="1524.056641"/>
     <use xlink:href="#DejaVuSans-2f" x="1576.15625"/>
     <use xlink:href="#DejaVuSans-73" x="1609.847656"/>
     <use xlink:href="#DejaVuSans-74" x="1661.947266"/>
     <use xlink:href="#DejaVuSans-6f" x="1701.15625"/>
     <use xlink:href="#DejaVuSans-72" x="1762.337891"/>
     <use xlink:href="#DejaVuSans-61" x="1803.451172"/>
     <use xlink:href="#DejaVuSans-67" x="1864.730469"/>
     <use xlink:href="#DejaVuSans-65" x="1928.207031"/>
     <use xlink:href="#DejaVuSans-5f" x="1989.730469"/>
     <use xlink:href="#DejaVuSans-63" x="2039.730469"/>
     <use xlink:href="#DejaVuSans-6f" x="2094.710938"/>
     <use xlink:href="#DejaVuSans-73" x="2155.892578"/>
     <use xlink:href="#DejaVuSans-74" x="2207.992188"/>
    </g>
   </g>
   <g id="legend_1">
    <g id="patch_7">
     <path d="M 276.25125 64.150125 
L 407.72 64.150125 
Q 409.72 64.150125 409.72 62.150125 
L 409.72 48.472 
Q 409.72 46.472 407.72 46.472 
L 276.25125 46.472 
Q 274.25125 46.472 274.25125 48.472 
L 274.25125 62.150125 
Q 274.25125 64.150125 276.25125 64.150125 
z
" style="fill: #ffffff; opacity: 0.8; stroke: #cccccc; stroke-linejoin: miter"/>
    </g>
    <g id="line2d_20">
     <path d="M 278.25125 54.570438 
L 288.25125 54.570438 
L 298.25125 54.570438 
" style="fill: none; stroke: #4682b4; stroke-width: 1.5; stroke-linecap: square"/>
    </g>
    <g id="text_22">
     <!-- StableBaselinesSAC -->
     <g transform="translate(306.25125 58.070438)scale(0.1 -0.1)">
      <defs>
       <path id="DejaVuSans-53" d="M 3425 4513 
L 3425 3897 
Q 3066 4069 2747 4153 
Q 2428 4238 2131 4238 
Q 1616 4238 1336 4038 
Q 1056 3838 1056 3469 
Q 1056 3159 1242 3001 
Q 1428 2844 1947 2747 
L 2328 2669 
Q 3034 2534 3370 2195 
Q 3706 1856 3706 1288 
Q 3706 609 3251 259 
Q 2797 -91 1919 -91 
Q 1588 -91 1214 -16 
Q 841 59 441 206 
L 441 856 
Q 825 641 1194 531 
Q 1563 422 1919 422 
Q 2459 422 2753 634 
Q 3047 847 3047 1241 
Q 3047 1584 2836 1778 
Q 2625 1972 2144 2069 
L 1759 2144 
Q 1053 2284 737 2584 
Q 422 2884 422 3419 
Q 422 4038 858 4394 
Q 1294 4750 2059 4750 
Q 2388 4750 2728 4690 
Q 3069 4631 3425 4513 
z
" transform="scale(0.015625)"/>
       <path id="DejaVuSans-62" d="M 3116 1747 
Q 3116 2381 2855 2742 
Q 2594 3103 2138 3103 
Q 1681 3103 1420 2742 
Q 1159 2381 1159 1747 
Q 1159 1113 1420 752 
Q 1681 391 2138 391 
Q 2594 391 2855 752 
Q 3116 1113 3116 1747 
z
M 1159 2969 
Q 1341 3281 1617 3432 
Q 1894 3584 2278 3584 
Q 2916 3584 3314 3078 
Q 3713 2572 3713 1747 
Q 3713 922 3314 415 
Q 2916 -91 2278 -91 
Q 1894 -91 1617 61 
Q 1341 213 1159 525 
L 1159 0 
L 581 0 
L 581 4863 
L 1159 4863 
L 1159 2969 
z
" transform="scale(0.015625)"/>
       <path id="DejaVuSans-42" d="M 1259 2228 
L 1259 519 
L 2272 519 
Q 2781 519 3026 730 
Q 3272 941 3272 1375 
Q 3272 1813 3026 2020 
Q 2781 2228 2272 2228 
L 1259 2228 
z
M 1259 4147 
L 1259 2741 
L 2194 2741 
Q 2656 2741 2882 2914 
Q 3109 3088 3109 3444 
Q 3109 3797 2882 3972 
Q 2656 4147 2194 4147 
L 1259 4147 
z
M 628 4666 
L 2241 4666 
Q 2963 4666 3353 4366 
Q 3744 4066 3744 3513 
Q 3744 3084 3544 2831 
Q 3344 2578 2956 2516 
Q 3422 2416 3680 2098 
Q 3938 1781 3938 1306 
Q 3938 681 3513 340 
Q 3088 0 2303 0 
L 628 0 
L 628 4666 
z
" transform="scale(0.015625)"/>
       <path id="DejaVuSans-41" d="M 2188 4044 
L 1331 1722 
L 3047 1722 
L 2188 4044 
z
M 1831 4666 
L 2547 4666 
L 4325 0 
L 3669 0 
L 3244 1197 
L 1141 1197 
L 716 0 
L 50 0 
L 1831 4666 
z
" transform="scale(0.015625)"/>
       <path id="DejaVuSans-43" d="M 4122 4306 
L 4122 3641 
Q 3803 3938 3442 4084 
Q 3081 4231 2675 4231 
Q 1875 4231 1450 3742 
Q 1025 3253 1025 2328 
Q 1025 1406 1450 917 
Q 1875 428 2675 428 
Q 3081 428 3442 575 
Q 3803 722 4122 1019 
L 4122 359 
Q 3791 134 3420 21 
Q 3050 -91 2638 -91 
Q 1578 -91 968 557 
Q 359 1206 359 2328 
Q 359 3453 968 4101 
Q 1578 4750 2638 4750 
Q 3056 4750 3426 4639 
Q 3797 4528 4122 4306 
z
" transform="scale(0.015625)"/>
      </defs>
      <use xlink:href="#DejaVuSans-53"/>
      <use xlink:href="#DejaVuSans-74" x="63.476562"/>
      <use xlink:href="#DejaVuSans-61" x="102.685547"/>
      <use xlink:href="#DejaVuSans-62" x="163.964844"/>
      <use xlink:href="#DejaVuSans-6c" x="227.441406"/>
      <use xlink:href="#DejaVuSans-65" x="255.224609"/>
      <use xlink:href="#DejaVuSans-42" x="316.748047"/>
      <use xlink:href="#DejaVuSans-61" x="385.351562"/>
      <use xlink:href="#DejaVuSans-73" x="446.630859"/>
      <use xlink:href="#DejaVuSans-65" x="498.730469"/>
      <use xlink:href="#DejaVuSans-6c" x="560.253906"/>
      <use xlink:href="#DejaVuSans-69" x="588.037109"/>
      <use xlink:href="#DejaVuSans-6e" x="615.820312"/>
      <use xlink:href="#DejaVuSans-65" x="679.199219"/>
      <use xlink:href="#DejaVuSans-73" x="740.722656"/>
      <use xlink:href="#DejaVuSans-53" x="792.822266"/>
      <use xlink:href="#DejaVuSans-41" x="858.173828"/>
      <use xlink:href="#DejaVuSans-43" x="924.832031"/>
     </g>
    </g>
   </g>
  </g>
 </g>
 <defs>
  <clipPath id="pc7e96dd8a2">
   <rect x="57.6" y="41.472" width="357.12" height="266.112"/>
  </clipPath>
 </defs>
</svg>
