<?xml version="1.0" encoding="utf-8" standalone="no"?>
<!DOCTYPE svg PUBLIC "-//W3C//DTD SVG 1.1//EN"
  "http://www.w3.org/Graphics/SVG/1.1/DTD/svg11.dtd">
<svg xmlns:xlink="http://www.w3.org/1999/xlink" width="460.8pt" height="345.6pt" viewBox="0 0 460.8 345.6" xmlns="http://www.w3.org/2000/svg" version="1.1">
 <metadata>
  <rdf:RDF xmlns:dc="http://purl.org/dc/elements/1.1/" xmlns:cc="http://creativecommons.org/ns#" xmlns:rdf="http://www.w3.org/1999/02/22-rdf-syntax-ns#">
   <cc:Work>
    <dc:type rdf:resource="http://purl.org/dc/dcmitype/StillImage"/>
    <dc:date>2022-06-16T11:36:21.856648</dc:date>
    <dc:format>image/svg+xml</dc:format>
    <dc:creator>
     <cc:Agent>
      <dc:title>Matplotlib v3.5.2, https://matplotlib.org/</dc:title>
     </cc:Agent>
    </dc:creator>
   </cc:Work>
  </rdf:RDF>
 </metadata>
 <defs>
  <style type="text/css">*{stroke-linejoin: round; stroke-linecap: butt}</style>
 </defs>
 <g id="figure_1">
  <g id="patch_1">
   <path d="M 0 345.6 
L 460.8 345.6 
L 460.8 0 
L 0 0 
z
" style="fill: #ffffff"/>
  </g>
  <g id="axes_1">
   <g id="patch_2">
    <path d="M 57.6 307.584 
L 414.72 307.584 
L 414.72 41.472 
L 57.6 41.472 
z
" style="fill: #ffffff"/>
   </g>
   <g id="PolyCollection_1">
    <path d="M 112.467797 295.488 
L 110.156378 295.488 
L 109.954205 293.294616 
L 109.715144 291.101231 
L 109.431802 288.907847 
L 109.096467 286.714462 
L 108.701499 284.521078 
L 108.239722 282.327693 
L 107.704748 280.134309 
L 107.091204 277.940924 
L 106.394826 275.74754 
L 105.612438 273.554156 
L 104.741823 271.360771 
L 103.781553 269.167387 
L 102.730815 266.974002 
L 101.589301 264.780618 
L 100.357209 262.587233 
L 99.035384 260.393849 
L 97.625616 258.200464 
L 96.131085 256.00708 
L 94.556923 253.813696 
L 92.910842 251.620311 
L 91.203755 249.426927 
L 89.45032 247.233542 
L 87.669293 245.040158 
L 85.8836 242.846773 
L 84.120038 240.653389 
L 82.408531 238.460004 
L 80.780936 236.26662 
L 79.269428 234.073235 
L 77.904579 231.879851 
L 76.713312 229.686467 
L 75.716935 227.493082 
L 74.929489 225.299698 
L 74.356607 223.106313 
L 73.995013 220.912929 
L 73.832727 218.719544 
L 73.849914 216.52616 
L 74.020292 214.332775 
L 74.31292 212.139391 
L 74.694217 209.946007 
L 75.130042 207.752622 
L 75.587738 205.559238 
L 76.038037 203.365853 
L 76.45675 201.172469 
L 76.826181 198.979084 
L 77.136147 196.7857 
L 77.384496 194.592315 
L 77.577014 192.398931 
L 77.726621 190.205547 
L 77.851861 188.012162 
L 77.974772 185.818778 
L 78.11833 183.625393 
L 78.303776 181.432009 
L 78.548157 179.238624 
L 78.862444 177.04524 
L 79.250482 174.851855 
L 79.708947 172.658471 
L 80.228298 170.465087 
L 80.794575 168.271702 
L 81.391759 166.078318 
L 82.004323 163.884933 
L 82.619592 161.691549 
L 83.229546 159.498164 
L 83.831843 157.30478 
L 84.429945 155.111395 
L 85.032379 152.918011 
L 85.651334 150.724627 
L 86.300839 148.531242 
L 86.994843 146.337858 
L 87.745484 144.144473 
L 88.561757 141.951089 
L 89.448695 139.757704 
L 90.407064 137.56432 
L 91.433494 135.370935 
L 92.5209 133.177551 
L 93.659037 130.984166 
L 94.835077 128.790782 
L 96.03412 126.597398 
L 97.23965 124.404013 
L 98.433956 122.210629 
L 99.59861 120.017244 
L 100.715061 117.82386 
L 101.765386 115.630475 
L 102.733208 113.437091 
L 103.604716 111.243706 
L 104.369691 109.050322 
L 105.022408 106.856938 
L 105.562296 104.663553 
L 105.994209 102.470169 
L 106.328271 100.276784 
L 106.579235 98.0834 
L 106.765405 95.890015 
L 106.90722 93.696631 
L 107.025608 91.503246 
L 107.140309 89.309862 
L 107.268325 87.116478 
L 107.422676 84.923093 
L 107.611584 82.729709 
L 107.83818 80.536324 
L 108.100725 78.34294 
L 114.523449 78.34294 
L 114.523449 78.34294 
L 114.785995 80.536324 
L 115.01259 82.729709 
L 115.201499 84.923093 
L 115.355849 87.116478 
L 115.483866 89.309862 
L 115.598566 91.503246 
L 115.716954 93.696631 
L 115.858769 95.890015 
L 116.04494 98.0834 
L 116.295903 100.276784 
L 116.629966 102.470169 
L 117.061879 104.663553 
L 117.601766 106.856938 
L 118.254484 109.050322 
L 119.019458 111.243706 
L 119.890967 113.437091 
L 120.858789 115.630475 
L 121.909114 117.82386 
L 123.025565 120.017244 
L 124.190219 122.210629 
L 125.384525 124.404013 
L 126.590054 126.597398 
L 127.789098 128.790782 
L 128.965138 130.984166 
L 130.103275 133.177551 
L 131.190681 135.370935 
L 132.217111 137.56432 
L 133.17548 139.757704 
L 134.062417 141.951089 
L 134.878691 144.144473 
L 135.629332 146.337858 
L 136.323336 148.531242 
L 136.97284 150.724627 
L 137.591796 152.918011 
L 138.19423 155.111395 
L 138.792331 157.30478 
L 139.394629 159.498164 
L 140.004583 161.691549 
L 140.619851 163.884933 
L 141.232416 166.078318 
L 141.8296 168.271702 
L 142.395877 170.465087 
L 142.915228 172.658471 
L 143.373693 174.851855 
L 143.761731 177.04524 
L 144.076017 179.238624 
L 144.320399 181.432009 
L 144.505845 183.625393 
L 144.649403 185.818778 
L 144.772314 188.012162 
L 144.897554 190.205547 
L 145.04716 192.398931 
L 145.239678 194.592315 
L 145.488028 196.7857 
L 145.797993 198.979084 
L 146.167425 201.172469 
L 146.586138 203.365853 
L 147.036436 205.559238 
L 147.494133 207.752622 
L 147.929958 209.946007 
L 148.311254 212.139391 
L 148.603883 214.332775 
L 148.77426 216.52616 
L 148.791447 218.719544 
L 148.629161 220.912929 
L 148.267568 223.106313 
L 147.694685 225.299698 
L 146.90724 227.493082 
L 145.910862 229.686467 
L 144.719595 231.879851 
L 143.354747 234.073235 
L 141.843238 236.26662 
L 140.215644 238.460004 
L 138.504137 240.653389 
L 136.740574 242.846773 
L 134.954881 245.040158 
L 133.173854 247.233542 
L 131.42042 249.426927 
L 129.713333 251.620311 
L 128.067251 253.813696 
L 126.49309 256.00708 
L 124.998559 258.200464 
L 123.588791 260.393849 
L 122.266965 262.587233 
L 121.034873 264.780618 
L 119.89336 266.974002 
L 118.842622 269.167387 
L 117.882352 271.360771 
L 117.011737 273.554156 
L 116.229348 275.74754 
L 115.532971 277.940924 
L 114.919427 280.134309 
L 114.384453 282.327693 
L 113.922675 284.521078 
L 113.527707 286.714462 
L 113.192372 288.907847 
L 112.909031 291.101231 
L 112.669969 293.294616 
L 112.467797 295.488 
z
" clip-path="url(#p983e598290)" style="fill: #1f77b4; fill-opacity: 0.3"/>
   </g>
   <g id="PolyCollection_2">
    <path d="M 203.805676 240.108723 
L 185.393432 240.108723 
L 184.107739 238.37168 
L 182.763613 236.634637 
L 181.376264 234.897595 
L 179.961497 233.160552 
L 178.534827 231.423509 
L 177.110634 229.686467 
L 175.701425 227.949424 
L 174.31729 226.212381 
L 172.965601 224.475338 
L 171.650975 222.738296 
L 170.375527 221.001253 
L 169.139359 219.26421 
L 167.941249 217.527168 
L 166.779471 215.790125 
L 165.65266 214.053082 
L 164.560648 212.316039 
L 163.505195 210.578997 
L 162.490552 208.841954 
L 161.523802 207.104911 
L 160.614955 205.367869 
L 159.776758 203.630826 
L 159.024231 201.893783 
L 158.373929 200.15674 
L 157.842963 198.419698 
L 157.447832 196.682655 
L 157.203125 194.945612 
L 157.120194 193.20857 
L 157.205903 191.471527 
L 157.461558 189.734484 
L 157.882136 187.997441 
L 158.455903 186.260399 
L 159.164493 184.523356 
L 159.983466 182.786313 
L 160.883345 181.049271 
L 161.831053 179.312228 
L 162.791664 177.575185 
L 163.73032 175.838142 
L 164.614181 174.1011 
L 165.414241 172.364057 
L 166.106867 170.627014 
L 166.674965 168.889972 
L 167.108679 167.152929 
L 167.405592 165.415886 
L 167.570453 163.678843 
L 167.614468 161.941801 
L 167.554257 160.204758 
L 167.410571 158.467715 
L 167.206907 156.730673 
L 166.968119 154.99363 
L 166.719132 153.256587 
L 166.483825 151.519544 
L 166.284132 149.782502 
L 166.139354 148.045459 
L 166.065686 146.308416 
L 166.075911 144.571373 
L 166.179236 142.834331 
L 166.381226 141.097288 
L 166.683827 139.360245 
L 167.085471 137.623203 
L 167.581277 135.88616 
L 168.163363 134.149117 
L 168.821295 132.412074 
L 169.54268 130.675032 
L 170.31389 128.937989 
L 171.120882 127.200946 
L 171.950053 125.463904 
L 172.789065 123.726861 
L 173.627538 121.989818 
L 174.457558 120.252775 
L 175.273925 118.515733 
L 176.074138 116.77869 
L 176.858106 115.041647 
L 177.627644 113.304605 
L 178.385822 111.567562 
L 179.136253 109.830519 
L 179.882414 108.093476 
L 180.627071 106.356434 
L 181.371866 104.619391 
L 182.117099 102.882348 
L 182.861691 101.145306 
L 183.603309 99.408263 
L 184.338602 97.67122 
L 185.063503 95.934177 
L 185.773546 94.197135 
L 186.464163 92.460092 
L 187.130933 90.723049 
L 187.769779 88.986007 
L 188.377129 87.248964 
L 188.950023 85.511921 
L 189.486208 83.774878 
L 189.984206 82.037836 
L 190.443363 80.300793 
L 190.863876 78.56375 
L 191.246773 76.826708 
L 191.593859 75.089665 
L 191.907592 73.352622 
L 192.190927 71.615579 
L 192.447104 69.878537 
L 192.679427 68.141494 
L 196.519681 68.141494 
L 196.519681 68.141494 
L 196.752004 69.878537 
L 197.008181 71.615579 
L 197.291516 73.352622 
L 197.60525 75.089665 
L 197.952335 76.826708 
L 198.335232 78.56375 
L 198.755745 80.300793 
L 199.214902 82.037836 
L 199.7129 83.774878 
L 200.249085 85.511921 
L 200.821979 87.248964 
L 201.429329 88.986007 
L 202.068176 90.723049 
L 202.734945 92.460092 
L 203.425562 94.197135 
L 204.135605 95.934177 
L 204.860506 97.67122 
L 205.595799 99.408263 
L 206.337417 101.145306 
L 207.082009 102.882348 
L 207.827243 104.619391 
L 208.572038 106.356434 
L 209.316694 108.093476 
L 210.062855 109.830519 
L 210.813286 111.567562 
L 211.571464 113.304605 
L 212.341002 115.041647 
L 213.12497 116.77869 
L 213.925183 118.515733 
L 214.741551 120.252775 
L 215.57157 121.989818 
L 216.410043 123.726861 
L 217.249055 125.463904 
L 218.078226 127.200946 
L 218.885218 128.937989 
L 219.656428 130.675032 
L 220.377813 132.412074 
L 221.035745 134.149117 
L 221.617831 135.88616 
L 222.113637 137.623203 
L 222.515282 139.360245 
L 222.817882 141.097288 
L 223.019872 142.834331 
L 223.123197 144.571373 
L 223.133422 146.308416 
L 223.059754 148.045459 
L 222.914976 149.782502 
L 222.715283 151.519544 
L 222.479976 153.256587 
L 222.230989 154.99363 
L 221.992201 156.730673 
L 221.788537 158.467715 
L 221.644851 160.204758 
L 221.58464 161.941801 
L 221.628655 163.678843 
L 221.793516 165.415886 
L 222.090429 167.152929 
L 222.524143 168.889972 
L 223.092241 170.627014 
L 223.784867 172.364057 
L 224.584927 174.1011 
L 225.468788 175.838142 
L 226.407444 177.575185 
L 227.368055 179.312228 
L 228.315763 181.049271 
L 229.215642 182.786313 
L 230.034616 184.523356 
L 230.743205 186.260399 
L 231.316972 187.997441 
L 231.73755 189.734484 
L 231.993205 191.471527 
L 232.078914 193.20857 
L 231.995983 194.945612 
L 231.751276 196.682655 
L 231.356145 198.419698 
L 230.82518 200.15674 
L 230.174877 201.893783 
L 229.42235 203.630826 
L 228.584153 205.367869 
L 227.675306 207.104911 
L 226.708557 208.841954 
L 225.693913 210.578997 
L 224.63846 212.316039 
L 223.546449 214.053082 
L 222.419638 215.790125 
L 221.257859 217.527168 
L 220.059749 219.26421 
L 218.823581 221.001253 
L 217.548133 222.738296 
L 216.233508 224.475338 
L 214.881818 226.212381 
L 213.497684 227.949424 
L 212.088474 229.686467 
L 210.664281 231.423509 
L 209.237611 233.160552 
L 207.822844 234.897595 
L 206.435495 236.634637 
L 205.091369 238.37168 
L 203.805676 240.108723 
z
" clip-path="url(#p983e598290)" style="fill: #1f77b4; fill-opacity: 0.3"/>
   </g>
   <g id="PolyCollection_3">
    <path d="M 282.560928 251.767518 
L 273.213114 251.767518 
L 272.542381 249.809665 
L 271.837137 247.851812 
L 271.101961 245.893958 
L 270.340829 243.936105 
L 269.556833 241.978252 
L 268.752021 240.020399 
L 267.927357 238.062545 
L 267.082809 236.104692 
L 266.21754 234.146839 
L 265.330179 232.188986 
L 264.419123 230.231133 
L 263.482831 228.273279 
L 262.52007 226.315426 
L 261.53009 224.357573 
L 260.512712 222.39972 
L 259.468339 220.441866 
L 258.397914 218.484013 
L 257.302873 216.52616 
L 256.185123 214.568307 
L 255.047092 212.610453 
L 253.891868 210.6526 
L 252.723437 208.694747 
L 251.546982 206.736894 
L 250.369207 204.779041 
L 249.198619 202.821187 
L 248.04568 200.863334 
L 246.922795 198.905481 
L 245.844057 196.947628 
L 244.824756 194.989774 
L 243.880681 193.031921 
L 243.027246 191.074068 
L 242.278565 189.116215 
L 241.646538 187.158361 
L 241.14007 185.200508 
L 240.764491 183.242655 
L 240.521213 181.284802 
L 240.407661 179.326949 
L 240.41743 177.369095 
L 240.540665 175.411242 
L 240.764599 173.453389 
L 241.074225 171.495536 
L 241.453055 169.537682 
L 241.883963 167.579829 
L 242.350072 165.621976 
L 242.835654 163.664123 
L 243.327007 161.706269 
L 243.813248 159.748416 
L 244.286945 157.790563 
L 244.744548 155.83271 
L 245.186534 153.874857 
L 245.617271 151.917003 
L 246.044567 149.95915 
L 246.478949 148.001297 
L 246.932717 146.043444 
L 247.418842 144.08559 
L 247.949793 142.127737 
L 248.53638 140.169884 
L 249.18672 138.212031 
L 249.905399 136.254177 
L 250.692931 134.296324 
L 251.545555 132.338471 
L 252.455418 130.380618 
L 253.411133 128.422765 
L 254.39868 126.464911 
L 255.402544 124.507058 
L 256.407019 122.549205 
L 257.397498 120.591352 
L 258.361655 118.633498 
L 259.290362 116.675645 
L 260.178275 114.717792 
L 261.024002 112.759939 
L 261.829877 110.802085 
L 262.601349 108.844232 
L 263.346077 106.886379 
L 264.072851 104.928526 
L 264.790436 102.970673 
L 265.5065 101.012819 
L 266.22672 99.054966 
L 266.954154 97.097113 
L 267.688939 95.13926 
L 268.428316 93.181406 
L 269.166962 91.223553 
L 269.89757 89.2657 
L 270.611593 87.307847 
L 271.300065 85.349993 
L 271.954414 83.39214 
L 272.56718 81.434287 
L 273.132586 79.476434 
L 273.646914 77.518581 
L 274.108681 75.560727 
L 274.518603 73.602874 
L 274.87938 71.645021 
L 275.195332 69.687168 
L 275.471928 67.729314 
L 275.715257 65.771461 
L 275.931503 63.813608 
L 276.126458 61.855755 
L 276.305128 59.897901 
L 276.471466 57.940048 
L 279.302576 57.940048 
L 279.302576 57.940048 
L 279.468914 59.897901 
L 279.647584 61.855755 
L 279.842538 63.813608 
L 280.058784 65.771461 
L 280.302114 67.729314 
L 280.57871 69.687168 
L 280.894662 71.645021 
L 281.255439 73.602874 
L 281.665361 75.560727 
L 282.127128 77.518581 
L 282.641456 79.476434 
L 283.206862 81.434287 
L 283.819628 83.39214 
L 284.473977 85.349993 
L 285.162449 87.307847 
L 285.876471 89.2657 
L 286.607079 91.223553 
L 287.345726 93.181406 
L 288.085103 95.13926 
L 288.819888 97.097113 
L 289.547322 99.054966 
L 290.267542 101.012819 
L 290.983606 102.970673 
L 291.701191 104.928526 
L 292.427964 106.886379 
L 293.172693 108.844232 
L 293.944164 110.802085 
L 294.75004 112.759939 
L 295.595767 114.717792 
L 296.483679 116.675645 
L 297.412387 118.633498 
L 298.376544 120.591352 
L 299.367023 122.549205 
L 300.371498 124.507058 
L 301.375362 126.464911 
L 302.362908 128.422765 
L 303.318624 130.380618 
L 304.228487 132.338471 
L 305.08111 134.296324 
L 305.868642 136.254177 
L 306.587322 138.212031 
L 307.237661 140.169884 
L 307.824249 142.127737 
L 308.3552 144.08559 
L 308.841325 146.043444 
L 309.295093 148.001297 
L 309.729475 149.95915 
L 310.15677 151.917003 
L 310.587507 153.874857 
L 311.029494 155.83271 
L 311.487096 157.790563 
L 311.960794 159.748416 
L 312.447034 161.706269 
L 312.938388 163.664123 
L 313.42397 165.621976 
L 313.890079 167.579829 
L 314.320987 169.537682 
L 314.699817 171.495536 
L 315.009442 173.453389 
L 315.233377 175.411242 
L 315.356612 177.369095 
L 315.366381 179.326949 
L 315.252828 181.284802 
L 315.009551 183.242655 
L 314.633971 185.200508 
L 314.127504 187.158361 
L 313.495477 189.116215 
L 312.746796 191.074068 
L 311.893361 193.031921 
L 310.949285 194.989774 
L 309.929985 196.947628 
L 308.851246 198.905481 
L 307.728361 200.863334 
L 306.575423 202.821187 
L 305.404834 204.779041 
L 304.22706 206.736894 
L 303.050605 208.694747 
L 301.882174 210.6526 
L 300.72695 212.610453 
L 299.588919 214.568307 
L 298.471169 216.52616 
L 297.376128 218.484013 
L 296.305703 220.441866 
L 295.261329 222.39972 
L 294.243952 224.357573 
L 293.253972 226.315426 
L 292.291211 228.273279 
L 291.354918 230.231133 
L 290.443863 232.188986 
L 289.556502 234.146839 
L 288.691233 236.104692 
L 287.846685 238.062545 
L 287.022021 240.020399 
L 286.217209 241.978252 
L 285.433213 243.936105 
L 284.67208 245.893958 
L 283.936905 247.851812 
L 283.231661 249.809665 
L 282.560928 251.767518 
z
" clip-path="url(#p983e598290)" style="fill: #1f77b4; fill-opacity: 0.3"/>
   </g>
   <g id="PolyCollection_4">
    <path d="M 368.013817 254.682217 
L 354.002008 254.682217 
L 352.947289 252.65076 
L 351.816854 250.619303 
L 350.618422 248.587847 
L 349.36132 246.55639 
L 348.056133 244.524933 
L 346.714268 242.493476 
L 345.347471 240.46202 
L 343.967322 238.430563 
L 342.584766 236.399106 
L 341.209718 234.36765 
L 339.850779 232.336193 
L 338.515095 230.304736 
L 337.208374 228.273279 
L 335.935043 226.241823 
L 334.698537 224.210366 
L 333.501677 222.178909 
L 332.347085 220.147452 
L 331.23761 218.115996 
L 330.176685 216.084539 
L 329.168615 214.053082 
L 328.21874 212.021625 
L 327.333481 209.990169 
L 326.520247 207.958712 
L 325.78722 205.927255 
L 325.143027 203.895798 
L 324.596314 201.864342 
L 324.155239 199.832885 
L 323.82693 197.801428 
L 323.616909 195.769972 
L 323.528553 193.738515 
L 323.562602 191.707058 
L 323.71679 189.675601 
L 323.985614 187.644145 
L 324.360293 185.612688 
L 324.828941 183.581231 
L 325.376937 181.549774 
L 325.987518 179.518318 
L 326.642511 177.486861 
L 327.323188 175.455404 
L 328.011159 173.423947 
L 328.689233 171.392491 
L 329.342173 169.361034 
L 329.957294 167.329577 
L 330.524854 165.29812 
L 331.03822 163.266664 
L 331.493814 161.235207 
L 331.890869 159.20375 
L 332.231042 157.172294 
L 332.517937 155.140837 
L 332.756619 153.10938 
L 332.953159 151.077923 
L 333.11427 149.046467 
L 333.247063 147.01501 
L 333.358907 144.983553 
L 333.457403 142.952096 
L 333.550402 140.92064 
L 333.646041 138.889183 
L 333.752726 136.857726 
L 333.879023 134.826269 
L 334.03344 132.794813 
L 334.224086 130.763356 
L 334.458236 128.731899 
L 334.741865 126.700442 
L 335.079203 124.668986 
L 335.472404 122.637529 
L 335.921369 120.606072 
L 336.423793 118.574616 
L 336.975435 116.543159 
L 337.570596 114.511702 
L 338.202748 112.480245 
L 338.865235 110.448789 
L 339.551955 108.417332 
L 340.257914 106.385875 
L 340.979598 104.354418 
L 341.715081 102.322962 
L 342.463883 100.291505 
L 343.226589 98.260048 
L 344.00428 96.228591 
L 344.797888 94.197135 
L 345.607545 92.165678 
L 346.432035 90.134221 
L 347.268436 88.102765 
L 348.111984 86.071308 
L 348.956194 84.039851 
L 349.793223 82.008394 
L 350.614414 79.976938 
L 351.410964 77.945481 
L 352.174619 75.914024 
L 352.898334 73.882567 
L 353.576793 71.851111 
L 354.206758 69.819654 
L 354.787204 67.788197 
L 355.319234 65.75674 
L 355.805794 63.725284 
L 356.251241 61.693827 
L 356.660802 59.66237 
L 357.04001 57.630913 
L 357.394159 55.599457 
L 357.727855 53.568 
L 364.28797 53.568 
L 364.28797 53.568 
L 364.621666 55.599457 
L 364.975815 57.630913 
L 365.355023 59.66237 
L 365.764585 61.693827 
L 366.210031 63.725284 
L 366.696592 65.75674 
L 367.228621 67.788197 
L 367.809067 69.819654 
L 368.439033 71.851111 
L 369.117491 73.882567 
L 369.841206 75.914024 
L 370.604862 77.945481 
L 371.401411 79.976938 
L 372.222603 82.008394 
L 373.059632 84.039851 
L 373.903842 86.071308 
L 374.747389 88.102765 
L 375.58379 90.134221 
L 376.408281 92.165678 
L 377.217937 94.197135 
L 378.011545 96.228591 
L 378.789237 98.260048 
L 379.551942 100.291505 
L 380.300745 102.322962 
L 381.036228 104.354418 
L 381.757911 106.385875 
L 382.463871 108.417332 
L 383.15059 110.448789 
L 383.813078 112.480245 
L 384.445229 114.511702 
L 385.040391 116.543159 
L 385.592033 118.574616 
L 386.094457 120.606072 
L 386.543421 122.637529 
L 386.936622 124.668986 
L 387.273961 126.700442 
L 387.557589 128.731899 
L 387.791739 130.763356 
L 387.982385 132.794813 
L 388.136803 134.826269 
L 388.2631 136.857726 
L 388.369784 138.889183 
L 388.465423 140.92064 
L 388.558422 142.952096 
L 388.656918 144.983553 
L 388.768762 147.01501 
L 388.901555 149.046467 
L 389.062667 151.077923 
L 389.259206 153.10938 
L 389.497888 155.140837 
L 389.784783 157.172294 
L 390.124956 159.20375 
L 390.522011 161.235207 
L 390.977605 163.266664 
L 391.490971 165.29812 
L 392.058531 167.329577 
L 392.673652 169.361034 
L 393.326592 171.392491 
L 394.004666 173.423947 
L 394.692638 175.455404 
L 395.373315 177.486861 
L 396.028307 179.518318 
L 396.638888 181.549774 
L 397.186885 183.581231 
L 397.655532 185.612688 
L 398.030212 187.644145 
L 398.299036 189.675601 
L 398.453223 191.707058 
L 398.487273 193.738515 
L 398.398916 195.769972 
L 398.188896 197.801428 
L 397.860586 199.832885 
L 397.419512 201.864342 
L 396.872798 203.895798 
L 396.228606 205.927255 
L 395.495579 207.958712 
L 394.682345 209.990169 
L 393.797085 212.021625 
L 392.847211 214.053082 
L 391.83914 216.084539 
L 390.778215 218.115996 
L 389.66874 220.147452 
L 388.514149 222.178909 
L 387.317288 224.210366 
L 386.080782 226.241823 
L 384.807451 228.273279 
L 383.50073 230.304736 
L 382.165047 232.336193 
L 380.806107 234.36765 
L 379.431059 236.399106 
L 378.048503 238.430563 
L 376.668355 240.46202 
L 375.301557 242.493476 
L 373.959693 244.524933 
L 372.654505 246.55639 
L 371.397403 248.587847 
L 370.198971 250.619303 
L 369.068537 252.65076 
L 368.013817 254.682217 
z
" clip-path="url(#p983e598290)" style="fill: #1f77b4; fill-opacity: 0.3"/>
   </g>
   <g id="matplotlib.axis_1">
    <g id="xtick_1">
     <g id="line2d_1">
      <defs>
       <path id="mfa9e4c509b" d="M 0 0 
L 0 3.5 
" style="stroke: #000000; stroke-width: 0.8"/>
      </defs>
      <g>
       <use xlink:href="#mfa9e4c509b" x="69.668354" y="307.584" style="stroke: #000000; stroke-width: 0.8"/>
      </g>
     </g>
     <g id="text_1">
      <!-- 250 -->
      <g transform="translate(60.124604 322.182437)scale(0.1 -0.1)">
       <defs>
        <path id="DejaVuSans-32" d="M 1228 531 
L 3431 531 
L 3431 0 
L 469 0 
L 469 531 
Q 828 903 1448 1529 
Q 2069 2156 2228 2338 
Q 2531 2678 2651 2914 
Q 2772 3150 2772 3378 
Q 2772 3750 2511 3984 
Q 2250 4219 1831 4219 
Q 1534 4219 1204 4116 
Q 875 4013 500 3803 
L 500 4441 
Q 881 4594 1212 4672 
Q 1544 4750 1819 4750 
Q 2544 4750 2975 4387 
Q 3406 4025 3406 3419 
Q 3406 3131 3298 2873 
Q 3191 2616 2906 2266 
Q 2828 2175 2409 1742 
Q 1991 1309 1228 531 
z
" transform="scale(0.015625)"/>
        <path id="DejaVuSans-35" d="M 691 4666 
L 3169 4666 
L 3169 4134 
L 1269 4134 
L 1269 2991 
Q 1406 3038 1543 3061 
Q 1681 3084 1819 3084 
Q 2600 3084 3056 2656 
Q 3513 2228 3513 1497 
Q 3513 744 3044 326 
Q 2575 -91 1722 -91 
Q 1428 -91 1123 -41 
Q 819 9 494 109 
L 494 744 
Q 775 591 1075 516 
Q 1375 441 1709 441 
Q 2250 441 2565 725 
Q 2881 1009 2881 1497 
Q 2881 1984 2565 2268 
Q 2250 2553 1709 2553 
Q 1456 2553 1204 2497 
Q 953 2441 691 2322 
L 691 4666 
z
" transform="scale(0.015625)"/>
        <path id="DejaVuSans-30" d="M 2034 4250 
Q 1547 4250 1301 3770 
Q 1056 3291 1056 2328 
Q 1056 1369 1301 889 
Q 1547 409 2034 409 
Q 2525 409 2770 889 
Q 3016 1369 3016 2328 
Q 3016 3291 2770 3770 
Q 2525 4250 2034 4250 
z
M 2034 4750 
Q 2819 4750 3233 4129 
Q 3647 3509 3647 2328 
Q 3647 1150 3233 529 
Q 2819 -91 2034 -91 
Q 1250 -91 836 529 
Q 422 1150 422 2328 
Q 422 3509 836 4129 
Q 1250 4750 2034 4750 
z
" transform="scale(0.015625)"/>
       </defs>
       <use xlink:href="#DejaVuSans-32"/>
       <use xlink:href="#DejaVuSans-35" x="63.623047"/>
       <use xlink:href="#DejaVuSans-30" x="127.246094"/>
      </g>
     </g>
    </g>
    <g id="xtick_2">
     <g id="line2d_2">
      <g>
       <use xlink:href="#mfa9e4c509b" x="111.312087" y="307.584" style="stroke: #000000; stroke-width: 0.8"/>
      </g>
     </g>
     <g id="text_2">
      <!-- 500 -->
      <g transform="translate(101.768337 322.182437)scale(0.1 -0.1)">
       <use xlink:href="#DejaVuSans-35"/>
       <use xlink:href="#DejaVuSans-30" x="63.623047"/>
       <use xlink:href="#DejaVuSans-30" x="127.246094"/>
      </g>
     </g>
    </g>
    <g id="xtick_3">
     <g id="line2d_3">
      <g>
       <use xlink:href="#mfa9e4c509b" x="152.955821" y="307.584" style="stroke: #000000; stroke-width: 0.8"/>
      </g>
     </g>
     <g id="text_3">
      <!-- 750 -->
      <g transform="translate(143.412071 322.182437)scale(0.1 -0.1)">
       <defs>
        <path id="DejaVuSans-37" d="M 525 4666 
L 3525 4666 
L 3525 4397 
L 1831 0 
L 1172 0 
L 2766 4134 
L 525 4134 
L 525 4666 
z
" transform="scale(0.015625)"/>
       </defs>
       <use xlink:href="#DejaVuSans-37"/>
       <use xlink:href="#DejaVuSans-35" x="63.623047"/>
       <use xlink:href="#DejaVuSans-30" x="127.246094"/>
      </g>
     </g>
    </g>
    <g id="xtick_4">
     <g id="line2d_4">
      <g>
       <use xlink:href="#mfa9e4c509b" x="194.599554" y="307.584" style="stroke: #000000; stroke-width: 0.8"/>
      </g>
     </g>
     <g id="text_4">
      <!-- 1000 -->
      <g transform="translate(181.874554 322.182437)scale(0.1 -0.1)">
       <defs>
        <path id="DejaVuSans-31" d="M 794 531 
L 1825 531 
L 1825 4091 
L 703 3866 
L 703 4441 
L 1819 4666 
L 2450 4666 
L 2450 531 
L 3481 531 
L 3481 0 
L 794 0 
L 794 531 
z
" transform="scale(0.015625)"/>
       </defs>
       <use xlink:href="#DejaVuSans-31"/>
       <use xlink:href="#DejaVuSans-30" x="63.623047"/>
       <use xlink:href="#DejaVuSans-30" x="127.246094"/>
       <use xlink:href="#DejaVuSans-30" x="190.869141"/>
      </g>
     </g>
    </g>
    <g id="xtick_5">
     <g id="line2d_5">
      <g>
       <use xlink:href="#mfa9e4c509b" x="236.243287" y="307.584" style="stroke: #000000; stroke-width: 0.8"/>
      </g>
     </g>
     <g id="text_5">
      <!-- 1250 -->
      <g transform="translate(223.518287 322.182437)scale(0.1 -0.1)">
       <use xlink:href="#DejaVuSans-31"/>
       <use xlink:href="#DejaVuSans-32" x="63.623047"/>
       <use xlink:href="#DejaVuSans-35" x="127.246094"/>
       <use xlink:href="#DejaVuSans-30" x="190.869141"/>
      </g>
     </g>
    </g>
    <g id="xtick_6">
     <g id="line2d_6">
      <g>
       <use xlink:href="#mfa9e4c509b" x="277.887021" y="307.584" style="stroke: #000000; stroke-width: 0.8"/>
      </g>
     </g>
     <g id="text_6">
      <!-- 1500 -->
      <g transform="translate(265.162021 322.182437)scale(0.1 -0.1)">
       <use xlink:href="#DejaVuSans-31"/>
       <use xlink:href="#DejaVuSans-35" x="63.623047"/>
       <use xlink:href="#DejaVuSans-30" x="127.246094"/>
       <use xlink:href="#DejaVuSans-30" x="190.869141"/>
      </g>
     </g>
    </g>
    <g id="xtick_7">
     <g id="line2d_7">
      <g>
       <use xlink:href="#mfa9e4c509b" x="319.530754" y="307.584" style="stroke: #000000; stroke-width: 0.8"/>
      </g>
     </g>
     <g id="text_7">
      <!-- 1750 -->
      <g transform="translate(306.805754 322.182437)scale(0.1 -0.1)">
       <use xlink:href="#DejaVuSans-31"/>
       <use xlink:href="#DejaVuSans-37" x="63.623047"/>
       <use xlink:href="#DejaVuSans-35" x="127.246094"/>
       <use xlink:href="#DejaVuSans-30" x="190.869141"/>
      </g>
     </g>
    </g>
    <g id="xtick_8">
     <g id="line2d_8">
      <g>
       <use xlink:href="#mfa9e4c509b" x="361.174488" y="307.584" style="stroke: #000000; stroke-width: 0.8"/>
      </g>
     </g>
     <g id="text_8">
      <!-- 2000 -->
      <g transform="translate(348.449488 322.182437)scale(0.1 -0.1)">
       <use xlink:href="#DejaVuSans-32"/>
       <use xlink:href="#DejaVuSans-30" x="63.623047"/>
       <use xlink:href="#DejaVuSans-30" x="127.246094"/>
       <use xlink:href="#DejaVuSans-30" x="190.869141"/>
      </g>
     </g>
    </g>
    <g id="xtick_9">
     <g id="line2d_9">
      <g>
       <use xlink:href="#mfa9e4c509b" x="402.818221" y="307.584" style="stroke: #000000; stroke-width: 0.8"/>
      </g>
     </g>
     <g id="text_9">
      <!-- 2250 -->
      <g transform="translate(390.093221 322.182437)scale(0.1 -0.1)">
       <use xlink:href="#DejaVuSans-32"/>
       <use xlink:href="#DejaVuSans-32" x="63.623047"/>
       <use xlink:href="#DejaVuSans-35" x="127.246094"/>
       <use xlink:href="#DejaVuSans-30" x="190.869141"/>
      </g>
     </g>
    </g>
    <g id="text_10">
     <!-- Learned Episodes -->
     <g transform="translate(192.102187 335.860562)scale(0.1 -0.1)">
      <defs>
       <path id="DejaVuSans-4c" d="M 628 4666 
L 1259 4666 
L 1259 531 
L 3531 531 
L 3531 0 
L 628 0 
L 628 4666 
z
" transform="scale(0.015625)"/>
       <path id="DejaVuSans-65" d="M 3597 1894 
L 3597 1613 
L 953 1613 
Q 991 1019 1311 708 
Q 1631 397 2203 397 
Q 2534 397 2845 478 
Q 3156 559 3463 722 
L 3463 178 
Q 3153 47 2828 -22 
Q 2503 -91 2169 -91 
Q 1331 -91 842 396 
Q 353 884 353 1716 
Q 353 2575 817 3079 
Q 1281 3584 2069 3584 
Q 2775 3584 3186 3129 
Q 3597 2675 3597 1894 
z
M 3022 2063 
Q 3016 2534 2758 2815 
Q 2500 3097 2075 3097 
Q 1594 3097 1305 2825 
Q 1016 2553 972 2059 
L 3022 2063 
z
" transform="scale(0.015625)"/>
       <path id="DejaVuSans-61" d="M 2194 1759 
Q 1497 1759 1228 1600 
Q 959 1441 959 1056 
Q 959 750 1161 570 
Q 1363 391 1709 391 
Q 2188 391 2477 730 
Q 2766 1069 2766 1631 
L 2766 1759 
L 2194 1759 
z
M 3341 1997 
L 3341 0 
L 2766 0 
L 2766 531 
Q 2569 213 2275 61 
Q 1981 -91 1556 -91 
Q 1019 -91 701 211 
Q 384 513 384 1019 
Q 384 1609 779 1909 
Q 1175 2209 1959 2209 
L 2766 2209 
L 2766 2266 
Q 2766 2663 2505 2880 
Q 2244 3097 1772 3097 
Q 1472 3097 1187 3025 
Q 903 2953 641 2809 
L 641 3341 
Q 956 3463 1253 3523 
Q 1550 3584 1831 3584 
Q 2591 3584 2966 3190 
Q 3341 2797 3341 1997 
z
" transform="scale(0.015625)"/>
       <path id="DejaVuSans-72" d="M 2631 2963 
Q 2534 3019 2420 3045 
Q 2306 3072 2169 3072 
Q 1681 3072 1420 2755 
Q 1159 2438 1159 1844 
L 1159 0 
L 581 0 
L 581 3500 
L 1159 3500 
L 1159 2956 
Q 1341 3275 1631 3429 
Q 1922 3584 2338 3584 
Q 2397 3584 2469 3576 
Q 2541 3569 2628 3553 
L 2631 2963 
z
" transform="scale(0.015625)"/>
       <path id="DejaVuSans-6e" d="M 3513 2113 
L 3513 0 
L 2938 0 
L 2938 2094 
Q 2938 2591 2744 2837 
Q 2550 3084 2163 3084 
Q 1697 3084 1428 2787 
Q 1159 2491 1159 1978 
L 1159 0 
L 581 0 
L 581 3500 
L 1159 3500 
L 1159 2956 
Q 1366 3272 1645 3428 
Q 1925 3584 2291 3584 
Q 2894 3584 3203 3211 
Q 3513 2838 3513 2113 
z
" transform="scale(0.015625)"/>
       <path id="DejaVuSans-64" d="M 2906 2969 
L 2906 4863 
L 3481 4863 
L 3481 0 
L 2906 0 
L 2906 525 
Q 2725 213 2448 61 
Q 2172 -91 1784 -91 
Q 1150 -91 751 415 
Q 353 922 353 1747 
Q 353 2572 751 3078 
Q 1150 3584 1784 3584 
Q 2172 3584 2448 3432 
Q 2725 3281 2906 2969 
z
M 947 1747 
Q 947 1113 1208 752 
Q 1469 391 1925 391 
Q 2381 391 2643 752 
Q 2906 1113 2906 1747 
Q 2906 2381 2643 2742 
Q 2381 3103 1925 3103 
Q 1469 3103 1208 2742 
Q 947 2381 947 1747 
z
" transform="scale(0.015625)"/>
       <path id="DejaVuSans-20" transform="scale(0.015625)"/>
       <path id="DejaVuSans-45" d="M 628 4666 
L 3578 4666 
L 3578 4134 
L 1259 4134 
L 1259 2753 
L 3481 2753 
L 3481 2222 
L 1259 2222 
L 1259 531 
L 3634 531 
L 3634 0 
L 628 0 
L 628 4666 
z
" transform="scale(0.015625)"/>
       <path id="DejaVuSans-70" d="M 1159 525 
L 1159 -1331 
L 581 -1331 
L 581 3500 
L 1159 3500 
L 1159 2969 
Q 1341 3281 1617 3432 
Q 1894 3584 2278 3584 
Q 2916 3584 3314 3078 
Q 3713 2572 3713 1747 
Q 3713 922 3314 415 
Q 2916 -91 2278 -91 
Q 1894 -91 1617 61 
Q 1341 213 1159 525 
z
M 3116 1747 
Q 3116 2381 2855 2742 
Q 2594 3103 2138 3103 
Q 1681 3103 1420 2742 
Q 1159 2381 1159 1747 
Q 1159 1113 1420 752 
Q 1681 391 2138 391 
Q 2594 391 2855 752 
Q 3116 1113 3116 1747 
z
" transform="scale(0.015625)"/>
       <path id="DejaVuSans-69" d="M 603 3500 
L 1178 3500 
L 1178 0 
L 603 0 
L 603 3500 
z
M 603 4863 
L 1178 4863 
L 1178 4134 
L 603 4134 
L 603 4863 
z
" transform="scale(0.015625)"/>
       <path id="DejaVuSans-73" d="M 2834 3397 
L 2834 2853 
Q 2591 2978 2328 3040 
Q 2066 3103 1784 3103 
Q 1356 3103 1142 2972 
Q 928 2841 928 2578 
Q 928 2378 1081 2264 
Q 1234 2150 1697 2047 
L 1894 2003 
Q 2506 1872 2764 1633 
Q 3022 1394 3022 966 
Q 3022 478 2636 193 
Q 2250 -91 1575 -91 
Q 1294 -91 989 -36 
Q 684 19 347 128 
L 347 722 
Q 666 556 975 473 
Q 1284 391 1588 391 
Q 1994 391 2212 530 
Q 2431 669 2431 922 
Q 2431 1156 2273 1281 
Q 2116 1406 1581 1522 
L 1381 1569 
Q 847 1681 609 1914 
Q 372 2147 372 2553 
Q 372 3047 722 3315 
Q 1072 3584 1716 3584 
Q 2034 3584 2315 3537 
Q 2597 3491 2834 3397 
z
" transform="scale(0.015625)"/>
       <path id="DejaVuSans-6f" d="M 1959 3097 
Q 1497 3097 1228 2736 
Q 959 2375 959 1747 
Q 959 1119 1226 758 
Q 1494 397 1959 397 
Q 2419 397 2687 759 
Q 2956 1122 2956 1747 
Q 2956 2369 2687 2733 
Q 2419 3097 1959 3097 
z
M 1959 3584 
Q 2709 3584 3137 3096 
Q 3566 2609 3566 1747 
Q 3566 888 3137 398 
Q 2709 -91 1959 -91 
Q 1206 -91 779 398 
Q 353 888 353 1747 
Q 353 2609 779 3096 
Q 1206 3584 1959 3584 
z
" transform="scale(0.015625)"/>
      </defs>
      <use xlink:href="#DejaVuSans-4c"/>
      <use xlink:href="#DejaVuSans-65" x="53.962891"/>
      <use xlink:href="#DejaVuSans-61" x="115.486328"/>
      <use xlink:href="#DejaVuSans-72" x="176.765625"/>
      <use xlink:href="#DejaVuSans-6e" x="216.128906"/>
      <use xlink:href="#DejaVuSans-65" x="279.507812"/>
      <use xlink:href="#DejaVuSans-64" x="341.03125"/>
      <use xlink:href="#DejaVuSans-20" x="404.507812"/>
      <use xlink:href="#DejaVuSans-45" x="436.294922"/>
      <use xlink:href="#DejaVuSans-70" x="499.478516"/>
      <use xlink:href="#DejaVuSans-69" x="562.955078"/>
      <use xlink:href="#DejaVuSans-73" x="590.738281"/>
      <use xlink:href="#DejaVuSans-6f" x="642.837891"/>
      <use xlink:href="#DejaVuSans-64" x="704.019531"/>
      <use xlink:href="#DejaVuSans-65" x="767.496094"/>
      <use xlink:href="#DejaVuSans-73" x="829.019531"/>
     </g>
    </g>
   </g>
   <g id="matplotlib.axis_2">
    <g id="ytick_1">
     <g id="line2d_10">
      <defs>
       <path id="m10875f012b" d="M 0 0 
L -3.5 0 
" style="stroke: #000000; stroke-width: 0.8"/>
      </defs>
      <g>
       <use xlink:href="#m10875f012b" x="57.6" y="285.286554" style="stroke: #000000; stroke-width: 0.8"/>
      </g>
     </g>
     <g id="text_11">
      <!-- 25 -->
      <g transform="translate(37.875 289.085773)scale(0.1 -0.1)">
       <use xlink:href="#DejaVuSans-32"/>
       <use xlink:href="#DejaVuSans-35" x="63.623047"/>
      </g>
     </g>
    </g>
    <g id="ytick_2">
     <g id="line2d_11">
      <g>
       <use xlink:href="#m10875f012b" x="57.6" y="248.852819" style="stroke: #000000; stroke-width: 0.8"/>
      </g>
     </g>
     <g id="text_12">
      <!-- 50 -->
      <g transform="translate(37.875 252.652038)scale(0.1 -0.1)">
       <use xlink:href="#DejaVuSans-35"/>
       <use xlink:href="#DejaVuSans-30" x="63.623047"/>
      </g>
     </g>
    </g>
    <g id="ytick_3">
     <g id="line2d_12">
      <g>
       <use xlink:href="#m10875f012b" x="57.6" y="212.419084" style="stroke: #000000; stroke-width: 0.8"/>
      </g>
     </g>
     <g id="text_13">
      <!-- 75 -->
      <g transform="translate(37.875 216.218303)scale(0.1 -0.1)">
       <use xlink:href="#DejaVuSans-37"/>
       <use xlink:href="#DejaVuSans-35" x="63.623047"/>
      </g>
     </g>
    </g>
    <g id="ytick_4">
     <g id="line2d_13">
      <g>
       <use xlink:href="#m10875f012b" x="57.6" y="175.985349" style="stroke: #000000; stroke-width: 0.8"/>
      </g>
     </g>
     <g id="text_14">
      <!-- 100 -->
      <g transform="translate(31.5125 179.784568)scale(0.1 -0.1)">
       <use xlink:href="#DejaVuSans-31"/>
       <use xlink:href="#DejaVuSans-30" x="63.623047"/>
       <use xlink:href="#DejaVuSans-30" x="127.246094"/>
      </g>
     </g>
    </g>
    <g id="ytick_5">
     <g id="line2d_14">
      <g>
       <use xlink:href="#m10875f012b" x="57.6" y="139.551614" style="stroke: #000000; stroke-width: 0.8"/>
      </g>
     </g>
     <g id="text_15">
      <!-- 125 -->
      <g transform="translate(31.5125 143.350833)scale(0.1 -0.1)">
       <use xlink:href="#DejaVuSans-31"/>
       <use xlink:href="#DejaVuSans-32" x="63.623047"/>
       <use xlink:href="#DejaVuSans-35" x="127.246094"/>
      </g>
     </g>
    </g>
    <g id="ytick_6">
     <g id="line2d_15">
      <g>
       <use xlink:href="#m10875f012b" x="57.6" y="103.11788" style="stroke: #000000; stroke-width: 0.8"/>
      </g>
     </g>
     <g id="text_16">
      <!-- 150 -->
      <g transform="translate(31.5125 106.917098)scale(0.1 -0.1)">
       <use xlink:href="#DejaVuSans-31"/>
       <use xlink:href="#DejaVuSans-35" x="63.623047"/>
       <use xlink:href="#DejaVuSans-30" x="127.246094"/>
      </g>
     </g>
    </g>
    <g id="ytick_7">
     <g id="line2d_16">
      <g>
       <use xlink:href="#m10875f012b" x="57.6" y="66.684145" style="stroke: #000000; stroke-width: 0.8"/>
      </g>
     </g>
     <g id="text_17">
      <!-- 175 -->
      <g transform="translate(31.5125 70.483363)scale(0.1 -0.1)">
       <use xlink:href="#DejaVuSans-31"/>
       <use xlink:href="#DejaVuSans-37" x="63.623047"/>
       <use xlink:href="#DejaVuSans-35" x="127.246094"/>
      </g>
     </g>
    </g>
    <g id="text_18">
     <!-- Reward Density -->
     <g transform="translate(25.432812 213.74675)rotate(-90)scale(0.1 -0.1)">
      <defs>
       <path id="DejaVuSans-52" d="M 2841 2188 
Q 3044 2119 3236 1894 
Q 3428 1669 3622 1275 
L 4263 0 
L 3584 0 
L 2988 1197 
Q 2756 1666 2539 1819 
Q 2322 1972 1947 1972 
L 1259 1972 
L 1259 0 
L 628 0 
L 628 4666 
L 2053 4666 
Q 2853 4666 3247 4331 
Q 3641 3997 3641 3322 
Q 3641 2881 3436 2590 
Q 3231 2300 2841 2188 
z
M 1259 4147 
L 1259 2491 
L 2053 2491 
Q 2509 2491 2742 2702 
Q 2975 2913 2975 3322 
Q 2975 3731 2742 3939 
Q 2509 4147 2053 4147 
L 1259 4147 
z
" transform="scale(0.015625)"/>
       <path id="DejaVuSans-77" d="M 269 3500 
L 844 3500 
L 1563 769 
L 2278 3500 
L 2956 3500 
L 3675 769 
L 4391 3500 
L 4966 3500 
L 4050 0 
L 3372 0 
L 2619 2869 
L 1863 0 
L 1184 0 
L 269 3500 
z
" transform="scale(0.015625)"/>
       <path id="DejaVuSans-44" d="M 1259 4147 
L 1259 519 
L 2022 519 
Q 2988 519 3436 956 
Q 3884 1394 3884 2338 
Q 3884 3275 3436 3711 
Q 2988 4147 2022 4147 
L 1259 4147 
z
M 628 4666 
L 1925 4666 
Q 3281 4666 3915 4102 
Q 4550 3538 4550 2338 
Q 4550 1131 3912 565 
Q 3275 0 1925 0 
L 628 0 
L 628 4666 
z
" transform="scale(0.015625)"/>
       <path id="DejaVuSans-74" d="M 1172 4494 
L 1172 3500 
L 2356 3500 
L 2356 3053 
L 1172 3053 
L 1172 1153 
Q 1172 725 1289 603 
Q 1406 481 1766 481 
L 2356 481 
L 2356 0 
L 1766 0 
Q 1100 0 847 248 
Q 594 497 594 1153 
L 594 3053 
L 172 3053 
L 172 3500 
L 594 3500 
L 594 4494 
L 1172 4494 
z
" transform="scale(0.015625)"/>
       <path id="DejaVuSans-79" d="M 2059 -325 
Q 1816 -950 1584 -1140 
Q 1353 -1331 966 -1331 
L 506 -1331 
L 506 -850 
L 844 -850 
Q 1081 -850 1212 -737 
Q 1344 -625 1503 -206 
L 1606 56 
L 191 3500 
L 800 3500 
L 1894 763 
L 2988 3500 
L 3597 3500 
L 2059 -325 
z
" transform="scale(0.015625)"/>
      </defs>
      <use xlink:href="#DejaVuSans-52"/>
      <use xlink:href="#DejaVuSans-65" x="64.982422"/>
      <use xlink:href="#DejaVuSans-77" x="126.505859"/>
      <use xlink:href="#DejaVuSans-61" x="208.292969"/>
      <use xlink:href="#DejaVuSans-72" x="269.572266"/>
      <use xlink:href="#DejaVuSans-64" x="308.935547"/>
      <use xlink:href="#DejaVuSans-20" x="372.412109"/>
      <use xlink:href="#DejaVuSans-44" x="404.199219"/>
      <use xlink:href="#DejaVuSans-65" x="481.201172"/>
      <use xlink:href="#DejaVuSans-6e" x="542.724609"/>
      <use xlink:href="#DejaVuSans-73" x="606.103516"/>
      <use xlink:href="#DejaVuSans-69" x="658.203125"/>
      <use xlink:href="#DejaVuSans-74" x="685.986328"/>
      <use xlink:href="#DejaVuSans-79" x="725.195312"/>
     </g>
    </g>
   </g>
   <g id="LineCollection_1">
    <path d="M 92.572407 190.657943 
L 130.051767 190.657943 
" clip-path="url(#p983e598290)" style="fill: none; stroke: #1f77b4; stroke-width: 1.5"/>
    <path d="M 175.859874 170.004387 
L 213.339234 170.004387 
" clip-path="url(#p983e598290)" style="fill: none; stroke: #1f77b4; stroke-width: 1.5"/>
    <path d="M 259.147341 166.78656 
L 296.626701 166.78656 
" clip-path="url(#p983e598290)" style="fill: none; stroke: #1f77b4; stroke-width: 1.5"/>
    <path d="M 342.268233 166.658313 
L 379.747593 166.658313 
" clip-path="url(#p983e598290)" style="fill: none; stroke: #1f77b4; stroke-width: 1.5"/>
   </g>
   <g id="LineCollection_2">
    <path d="M 92.572407 78.34294 
L 130.051767 78.34294 
" clip-path="url(#p983e598290)" style="fill: none; stroke: #1f77b4; stroke-width: 1.5"/>
    <path d="M 175.859874 68.141494 
L 213.339234 68.141494 
" clip-path="url(#p983e598290)" style="fill: none; stroke: #1f77b4; stroke-width: 1.5"/>
    <path d="M 259.147341 57.940048 
L 296.626701 57.940048 
" clip-path="url(#p983e598290)" style="fill: none; stroke: #1f77b4; stroke-width: 1.5"/>
    <path d="M 342.268233 53.568 
L 379.747593 53.568 
" clip-path="url(#p983e598290)" style="fill: none; stroke: #1f77b4; stroke-width: 1.5"/>
   </g>
   <g id="LineCollection_3">
    <path d="M 92.572407 295.488 
L 130.051767 295.488 
" clip-path="url(#p983e598290)" style="fill: none; stroke: #1f77b4; stroke-width: 1.5"/>
    <path d="M 175.859874 240.108723 
L 213.339234 240.108723 
" clip-path="url(#p983e598290)" style="fill: none; stroke: #1f77b4; stroke-width: 1.5"/>
    <path d="M 259.147341 251.767518 
L 296.626701 251.767518 
" clip-path="url(#p983e598290)" style="fill: none; stroke: #1f77b4; stroke-width: 1.5"/>
    <path d="M 342.268233 254.682217 
L 379.747593 254.682217 
" clip-path="url(#p983e598290)" style="fill: none; stroke: #1f77b4; stroke-width: 1.5"/>
   </g>
   <g id="LineCollection_4">
    <path d="M 111.312087 295.488 
L 111.312087 78.34294 
" clip-path="url(#p983e598290)" style="fill: none; stroke: #1f77b4; stroke-width: 1.5"/>
    <path d="M 194.599554 240.108723 
L 194.599554 68.141494 
" clip-path="url(#p983e598290)" style="fill: none; stroke: #1f77b4; stroke-width: 1.5"/>
    <path d="M 277.887021 251.767518 
L 277.887021 57.940048 
" clip-path="url(#p983e598290)" style="fill: none; stroke: #1f77b4; stroke-width: 1.5"/>
    <path d="M 361.007913 254.682217 
L 361.007913 53.568 
" clip-path="url(#p983e598290)" style="fill: none; stroke: #1f77b4; stroke-width: 1.5"/>
   </g>
   <g id="line2d_17">
    <path d="M 111.312087 190.657943 
L 194.599554 170.004387 
L 277.887021 166.78656 
L 361.007913 166.658313 
" clip-path="url(#p983e598290)" style="fill: none; stroke: #4682b4; stroke-width: 1.5; stroke-linecap: square"/>
   </g>
   <g id="patch_3">
    <path d="M 57.6 307.584 
L 57.6 41.472 
" style="fill: none; stroke: #000000; stroke-width: 0.8; stroke-linejoin: miter; stroke-linecap: square"/>
   </g>
   <g id="patch_4">
    <path d="M 414.72 307.584 
L 414.72 41.472 
" style="fill: none; stroke: #000000; stroke-width: 0.8; stroke-linejoin: miter; stroke-linecap: square"/>
   </g>
   <g id="patch_5">
    <path d="M 57.6 307.584 
L 414.72 307.584 
" style="fill: none; stroke: #000000; stroke-width: 0.8; stroke-linejoin: miter; stroke-linecap: square"/>
   </g>
   <g id="patch_6">
    <path d="M 57.6 41.472 
L 414.72 41.472 
" style="fill: none; stroke: #000000; stroke-width: 0.8; stroke-linejoin: miter; stroke-linecap: square"/>
   </g>
   <g id="text_19">
    <!-- Violinplot for progress of customer/purchases_new -->
    <g transform="translate(84.319688 35.472)scale(0.12 -0.12)">
     <defs>
      <path id="DejaVuSans-56" d="M 1831 0 
L 50 4666 
L 709 4666 
L 2188 738 
L 3669 4666 
L 4325 4666 
L 2547 0 
L 1831 0 
z
" transform="scale(0.015625)"/>
      <path id="DejaVuSans-6c" d="M 603 4863 
L 1178 4863 
L 1178 0 
L 603 0 
L 603 4863 
z
" transform="scale(0.015625)"/>
      <path id="DejaVuSans-66" d="M 2375 4863 
L 2375 4384 
L 1825 4384 
Q 1516 4384 1395 4259 
Q 1275 4134 1275 3809 
L 1275 3500 
L 2222 3500 
L 2222 3053 
L 1275 3053 
L 1275 0 
L 697 0 
L 697 3053 
L 147 3053 
L 147 3500 
L 697 3500 
L 697 3744 
Q 697 4328 969 4595 
Q 1241 4863 1831 4863 
L 2375 4863 
z
" transform="scale(0.015625)"/>
      <path id="DejaVuSans-67" d="M 2906 1791 
Q 2906 2416 2648 2759 
Q 2391 3103 1925 3103 
Q 1463 3103 1205 2759 
Q 947 2416 947 1791 
Q 947 1169 1205 825 
Q 1463 481 1925 481 
Q 2391 481 2648 825 
Q 2906 1169 2906 1791 
z
M 3481 434 
Q 3481 -459 3084 -895 
Q 2688 -1331 1869 -1331 
Q 1566 -1331 1297 -1286 
Q 1028 -1241 775 -1147 
L 775 -588 
Q 1028 -725 1275 -790 
Q 1522 -856 1778 -856 
Q 2344 -856 2625 -561 
Q 2906 -266 2906 331 
L 2906 616 
Q 2728 306 2450 153 
Q 2172 0 1784 0 
Q 1141 0 747 490 
Q 353 981 353 1791 
Q 353 2603 747 3093 
Q 1141 3584 1784 3584 
Q 2172 3584 2450 3431 
Q 2728 3278 2906 2969 
L 2906 3500 
L 3481 3500 
L 3481 434 
z
" transform="scale(0.015625)"/>
      <path id="DejaVuSans-63" d="M 3122 3366 
L 3122 2828 
Q 2878 2963 2633 3030 
Q 2388 3097 2138 3097 
Q 1578 3097 1268 2742 
Q 959 2388 959 1747 
Q 959 1106 1268 751 
Q 1578 397 2138 397 
Q 2388 397 2633 464 
Q 2878 531 3122 666 
L 3122 134 
Q 2881 22 2623 -34 
Q 2366 -91 2075 -91 
Q 1284 -91 818 406 
Q 353 903 353 1747 
Q 353 2603 823 3093 
Q 1294 3584 2113 3584 
Q 2378 3584 2631 3529 
Q 2884 3475 3122 3366 
z
" transform="scale(0.015625)"/>
      <path id="DejaVuSans-75" d="M 544 1381 
L 544 3500 
L 1119 3500 
L 1119 1403 
Q 1119 906 1312 657 
Q 1506 409 1894 409 
Q 2359 409 2629 706 
Q 2900 1003 2900 1516 
L 2900 3500 
L 3475 3500 
L 3475 0 
L 2900 0 
L 2900 538 
Q 2691 219 2414 64 
Q 2138 -91 1772 -91 
Q 1169 -91 856 284 
Q 544 659 544 1381 
z
M 1991 3584 
L 1991 3584 
z
" transform="scale(0.015625)"/>
      <path id="DejaVuSans-6d" d="M 3328 2828 
Q 3544 3216 3844 3400 
Q 4144 3584 4550 3584 
Q 5097 3584 5394 3201 
Q 5691 2819 5691 2113 
L 5691 0 
L 5113 0 
L 5113 2094 
Q 5113 2597 4934 2840 
Q 4756 3084 4391 3084 
Q 3944 3084 3684 2787 
Q 3425 2491 3425 1978 
L 3425 0 
L 2847 0 
L 2847 2094 
Q 2847 2600 2669 2842 
Q 2491 3084 2119 3084 
Q 1678 3084 1418 2786 
Q 1159 2488 1159 1978 
L 1159 0 
L 581 0 
L 581 3500 
L 1159 3500 
L 1159 2956 
Q 1356 3278 1631 3431 
Q 1906 3584 2284 3584 
Q 2666 3584 2933 3390 
Q 3200 3197 3328 2828 
z
" transform="scale(0.015625)"/>
      <path id="DejaVuSans-2f" d="M 1625 4666 
L 2156 4666 
L 531 -594 
L 0 -594 
L 1625 4666 
z
" transform="scale(0.015625)"/>
      <path id="DejaVuSans-68" d="M 3513 2113 
L 3513 0 
L 2938 0 
L 2938 2094 
Q 2938 2591 2744 2837 
Q 2550 3084 2163 3084 
Q 1697 3084 1428 2787 
Q 1159 2491 1159 1978 
L 1159 0 
L 581 0 
L 581 4863 
L 1159 4863 
L 1159 2956 
Q 1366 3272 1645 3428 
Q 1925 3584 2291 3584 
Q 2894 3584 3203 3211 
Q 3513 2838 3513 2113 
z
" transform="scale(0.015625)"/>
      <path id="DejaVuSans-5f" d="M 3263 -1063 
L 3263 -1509 
L -63 -1509 
L -63 -1063 
L 3263 -1063 
z
" transform="scale(0.015625)"/>
     </defs>
     <use xlink:href="#DejaVuSans-56"/>
     <use xlink:href="#DejaVuSans-69" x="66.158203"/>
     <use xlink:href="#DejaVuSans-6f" x="93.941406"/>
     <use xlink:href="#DejaVuSans-6c" x="155.123047"/>
     <use xlink:href="#DejaVuSans-69" x="182.90625"/>
     <use xlink:href="#DejaVuSans-6e" x="210.689453"/>
     <use xlink:href="#DejaVuSans-70" x="274.068359"/>
     <use xlink:href="#DejaVuSans-6c" x="337.544922"/>
     <use xlink:href="#DejaVuSans-6f" x="365.328125"/>
     <use xlink:href="#DejaVuSans-74" x="426.509766"/>
     <use xlink:href="#DejaVuSans-20" x="465.71875"/>
     <use xlink:href="#DejaVuSans-66" x="497.505859"/>
     <use xlink:href="#DejaVuSans-6f" x="532.710938"/>
     <use xlink:href="#DejaVuSans-72" x="593.892578"/>
     <use xlink:href="#DejaVuSans-20" x="635.005859"/>
     <use xlink:href="#DejaVuSans-70" x="666.792969"/>
     <use xlink:href="#DejaVuSans-72" x="730.269531"/>
     <use xlink:href="#DejaVuSans-6f" x="769.132812"/>
     <use xlink:href="#DejaVuSans-67" x="830.314453"/>
     <use xlink:href="#DejaVuSans-72" x="893.791016"/>
     <use xlink:href="#DejaVuSans-65" x="932.654297"/>
     <use xlink:href="#DejaVuSans-73" x="994.177734"/>
     <use xlink:href="#DejaVuSans-73" x="1046.277344"/>
     <use xlink:href="#DejaVuSans-20" x="1098.376953"/>
     <use xlink:href="#DejaVuSans-6f" x="1130.164062"/>
     <use xlink:href="#DejaVuSans-66" x="1191.345703"/>
     <use xlink:href="#DejaVuSans-20" x="1226.550781"/>
     <use xlink:href="#DejaVuSans-63" x="1258.337891"/>
     <use xlink:href="#DejaVuSans-75" x="1313.318359"/>
     <use xlink:href="#DejaVuSans-73" x="1376.697266"/>
     <use xlink:href="#DejaVuSans-74" x="1428.796875"/>
     <use xlink:href="#DejaVuSans-6f" x="1468.005859"/>
     <use xlink:href="#DejaVuSans-6d" x="1529.1875"/>
     <use xlink:href="#DejaVuSans-65" x="1626.599609"/>
     <use xlink:href="#DejaVuSans-72" x="1688.123047"/>
     <use xlink:href="#DejaVuSans-2f" x="1729.236328"/>
     <use xlink:href="#DejaVuSans-70" x="1762.927734"/>
     <use xlink:href="#DejaVuSans-75" x="1826.404297"/>
     <use xlink:href="#DejaVuSans-72" x="1889.783203"/>
     <use xlink:href="#DejaVuSans-63" x="1928.646484"/>
     <use xlink:href="#DejaVuSans-68" x="1983.626953"/>
     <use xlink:href="#DejaVuSans-61" x="2047.005859"/>
     <use xlink:href="#DejaVuSans-73" x="2108.285156"/>
     <use xlink:href="#DejaVuSans-65" x="2160.384766"/>
     <use xlink:href="#DejaVuSans-73" x="2221.908203"/>
     <use xlink:href="#DejaVuSans-5f" x="2274.007812"/>
     <use xlink:href="#DejaVuSans-6e" x="2324.007812"/>
     <use xlink:href="#DejaVuSans-65" x="2387.386719"/>
     <use xlink:href="#DejaVuSans-77" x="2448.910156"/>
    </g>
   </g>
   <g id="legend_1">
    <g id="patch_7">
     <path d="M 276.25125 64.150125 
L 407.72 64.150125 
Q 409.72 64.150125 409.72 62.150125 
L 409.72 48.472 
Q 409.72 46.472 407.72 46.472 
L 276.25125 46.472 
Q 274.25125 46.472 274.25125 48.472 
L 274.25125 62.150125 
Q 274.25125 64.150125 276.25125 64.150125 
z
" style="fill: #ffffff; opacity: 0.8; stroke: #cccccc; stroke-linejoin: miter"/>
    </g>
    <g id="line2d_18">
     <path d="M 278.25125 54.570438 
L 288.25125 54.570438 
L 298.25125 54.570438 
" style="fill: none; stroke: #4682b4; stroke-width: 1.5; stroke-linecap: square"/>
    </g>
    <g id="text_20">
     <!-- StableBaselinesSAC -->
     <g transform="translate(306.25125 58.070438)scale(0.1 -0.1)">
      <defs>
       <path id="DejaVuSans-53" d="M 3425 4513 
L 3425 3897 
Q 3066 4069 2747 4153 
Q 2428 4238 2131 4238 
Q 1616 4238 1336 4038 
Q 1056 3838 1056 3469 
Q 1056 3159 1242 3001 
Q 1428 2844 1947 2747 
L 2328 2669 
Q 3034 2534 3370 2195 
Q 3706 1856 3706 1288 
Q 3706 609 3251 259 
Q 2797 -91 1919 -91 
Q 1588 -91 1214 -16 
Q 841 59 441 206 
L 441 856 
Q 825 641 1194 531 
Q 1563 422 1919 422 
Q 2459 422 2753 634 
Q 3047 847 3047 1241 
Q 3047 1584 2836 1778 
Q 2625 1972 2144 2069 
L 1759 2144 
Q 1053 2284 737 2584 
Q 422 2884 422 3419 
Q 422 4038 858 4394 
Q 1294 4750 2059 4750 
Q 2388 4750 2728 4690 
Q 3069 4631 3425 4513 
z
" transform="scale(0.015625)"/>
       <path id="DejaVuSans-62" d="M 3116 1747 
Q 3116 2381 2855 2742 
Q 2594 3103 2138 3103 
Q 1681 3103 1420 2742 
Q 1159 2381 1159 1747 
Q 1159 1113 1420 752 
Q 1681 391 2138 391 
Q 2594 391 2855 752 
Q 3116 1113 3116 1747 
z
M 1159 2969 
Q 1341 3281 1617 3432 
Q 1894 3584 2278 3584 
Q 2916 3584 3314 3078 
Q 3713 2572 3713 1747 
Q 3713 922 3314 415 
Q 2916 -91 2278 -91 
Q 1894 -91 1617 61 
Q 1341 213 1159 525 
L 1159 0 
L 581 0 
L 581 4863 
L 1159 4863 
L 1159 2969 
z
" transform="scale(0.015625)"/>
       <path id="DejaVuSans-42" d="M 1259 2228 
L 1259 519 
L 2272 519 
Q 2781 519 3026 730 
Q 3272 941 3272 1375 
Q 3272 1813 3026 2020 
Q 2781 2228 2272 2228 
L 1259 2228 
z
M 1259 4147 
L 1259 2741 
L 2194 2741 
Q 2656 2741 2882 2914 
Q 3109 3088 3109 3444 
Q 3109 3797 2882 3972 
Q 2656 4147 2194 4147 
L 1259 4147 
z
M 628 4666 
L 2241 4666 
Q 2963 4666 3353 4366 
Q 3744 4066 3744 3513 
Q 3744 3084 3544 2831 
Q 3344 2578 2956 2516 
Q 3422 2416 3680 2098 
Q 3938 1781 3938 1306 
Q 3938 681 3513 340 
Q 3088 0 2303 0 
L 628 0 
L 628 4666 
z
" transform="scale(0.015625)"/>
       <path id="DejaVuSans-41" d="M 2188 4044 
L 1331 1722 
L 3047 1722 
L 2188 4044 
z
M 1831 4666 
L 2547 4666 
L 4325 0 
L 3669 0 
L 3244 1197 
L 1141 1197 
L 716 0 
L 50 0 
L 1831 4666 
z
" transform="scale(0.015625)"/>
       <path id="DejaVuSans-43" d="M 4122 4306 
L 4122 3641 
Q 3803 3938 3442 4084 
Q 3081 4231 2675 4231 
Q 1875 4231 1450 3742 
Q 1025 3253 1025 2328 
Q 1025 1406 1450 917 
Q 1875 428 2675 428 
Q 3081 428 3442 575 
Q 3803 722 4122 1019 
L 4122 359 
Q 3791 134 3420 21 
Q 3050 -91 2638 -91 
Q 1578 -91 968 557 
Q 359 1206 359 2328 
Q 359 3453 968 4101 
Q 1578 4750 2638 4750 
Q 3056 4750 3426 4639 
Q 3797 4528 4122 4306 
z
" transform="scale(0.015625)"/>
      </defs>
      <use xlink:href="#DejaVuSans-53"/>
      <use xlink:href="#DejaVuSans-74" x="63.476562"/>
      <use xlink:href="#DejaVuSans-61" x="102.685547"/>
      <use xlink:href="#DejaVuSans-62" x="163.964844"/>
      <use xlink:href="#DejaVuSans-6c" x="227.441406"/>
      <use xlink:href="#DejaVuSans-65" x="255.224609"/>
      <use xlink:href="#DejaVuSans-42" x="316.748047"/>
      <use xlink:href="#DejaVuSans-61" x="385.351562"/>
      <use xlink:href="#DejaVuSans-73" x="446.630859"/>
      <use xlink:href="#DejaVuSans-65" x="498.730469"/>
      <use xlink:href="#DejaVuSans-6c" x="560.253906"/>
      <use xlink:href="#DejaVuSans-69" x="588.037109"/>
      <use xlink:href="#DejaVuSans-6e" x="615.820312"/>
      <use xlink:href="#DejaVuSans-65" x="679.199219"/>
      <use xlink:href="#DejaVuSans-73" x="740.722656"/>
      <use xlink:href="#DejaVuSans-53" x="792.822266"/>
      <use xlink:href="#DejaVuSans-41" x="858.173828"/>
      <use xlink:href="#DejaVuSans-43" x="924.832031"/>
     </g>
    </g>
   </g>
  </g>
 </g>
 <defs>
  <clipPath id="p983e598290">
   <rect x="57.6" y="41.472" width="357.12" height="266.112"/>
  </clipPath>
 </defs>
</svg>
