<?xml version="1.0" encoding="utf-8" standalone="no"?>
<!DOCTYPE svg PUBLIC "-//W3C//DTD SVG 1.1//EN"
  "http://www.w3.org/Graphics/SVG/1.1/DTD/svg11.dtd">
<svg xmlns:xlink="http://www.w3.org/1999/xlink" width="460.8pt" height="345.6pt" viewBox="0 0 460.8 345.6" xmlns="http://www.w3.org/2000/svg" version="1.1">
 <metadata>
  <rdf:RDF xmlns:dc="http://purl.org/dc/elements/1.1/" xmlns:cc="http://creativecommons.org/ns#" xmlns:rdf="http://www.w3.org/1999/02/22-rdf-syntax-ns#">
   <cc:Work>
    <dc:type rdf:resource="http://purl.org/dc/dcmitype/StillImage"/>
    <dc:date>2022-06-20T18:30:19.173824</dc:date>
    <dc:format>image/svg+xml</dc:format>
    <dc:creator>
     <cc:Agent>
      <dc:title>Matplotlib v3.5.2, https://matplotlib.org/</dc:title>
     </cc:Agent>
    </dc:creator>
   </cc:Work>
  </rdf:RDF>
 </metadata>
 <defs>
  <style type="text/css">*{stroke-linejoin: round; stroke-linecap: butt}</style>
 </defs>
 <g id="figure_1">
  <g id="patch_1">
   <path d="M 0 345.6 
L 460.8 345.6 
L 460.8 0 
L 0 0 
z
" style="fill: #ffffff"/>
  </g>
  <g id="axes_1">
   <g id="patch_2">
    <path d="M 57.6 307.584 
L 414.72 307.584 
L 414.72 41.472 
L 57.6 41.472 
z
" style="fill: #ffffff"/>
   </g>
   <g id="PolyCollection_1">
    <path d="M 113.817203 295.488 
L 102.196577 295.488 
L 101.480852 293.666998 
L 100.750327 291.845995 
L 100.010997 290.024993 
L 99.268045 288.20399 
L 98.52585 286.382988 
L 97.788032 284.561985 
L 97.057485 282.740983 
L 96.33636 280.91998 
L 95.625976 279.098978 
L 94.926682 277.277975 
L 94.237729 275.456973 
L 93.557196 273.63597 
L 92.882053 271.814968 
L 92.208392 269.993965 
L 91.531862 268.172963 
L 90.848276 266.35196 
L 90.154343 264.530958 
L 89.448443 262.709955 
L 88.73134 260.888953 
L 88.006697 259.06795 
L 87.281293 257.246948 
L 86.56484 255.425945 
L 85.869348 253.604943 
L 85.208052 251.78394 
L 84.593981 249.962938 
L 84.038335 248.141935 
L 83.548888 246.320933 
L 83.12867 244.49993 
L 82.775148 242.678928 
L 82.480096 240.857925 
L 82.230207 239.036923 
L 82.008392 237.21592 
L 81.795605 235.394918 
L 81.572901 233.573915 
L 81.323436 231.752913 
L 81.034113 229.93191 
L 80.696647 228.110908 
L 80.307954 226.289905 
L 79.86988 224.468903 
L 79.388407 222.6479 
L 78.872545 220.826898 
L 78.333152 219.005895 
L 77.781875 217.184893 
L 77.230364 215.36389 
L 76.689787 213.542888 
L 76.170635 211.721885 
L 75.682709 209.900883 
L 75.235181 208.07988 
L 74.836649 206.258878 
L 74.495115 204.437875 
L 74.217904 202.616873 
L 74.011538 200.79587 
L 73.881615 198.974868 
L 73.832727 197.153865 
L 73.868411 195.332863 
L 73.991108 193.51186 
L 74.202087 191.690858 
L 74.501296 189.869855 
L 74.887126 188.048853 
L 75.356133 186.22785 
L 75.902778 184.406848 
L 76.519281 182.585845 
L 77.195677 180.764843 
L 77.920128 178.94384 
L 78.679487 177.122838 
L 79.460071 175.301835 
L 80.248546 173.480833 
L 81.032816 171.65983 
L 81.802803 169.838828 
L 82.551046 168.017825 
L 83.273075 166.196823 
L 83.967561 164.37582 
L 84.636259 162.554818 
L 85.283793 160.733815 
L 85.917313 158.912813 
L 86.546054 157.09181 
L 87.180811 155.270808 
L 87.83331 153.449805 
L 88.515507 151.628803 
L 89.238771 149.8078 
L 90.013013 147.986798 
L 90.845779 146.165795 
L 91.74139 144.344793 
L 92.700226 142.52379 
L 93.71825 140.702788 
L 94.786875 138.881785 
L 95.893231 137.060783 
L 97.020854 135.23978 
L 98.15076 133.418778 
L 99.262784 131.597775 
L 100.337067 129.776773 
L 101.355489 127.95577 
L 102.302906 126.134768 
L 103.168028 124.313765 
L 103.943886 122.492763 
L 104.62784 120.67176 
L 105.221191 118.850758 
L 105.728496 117.029755 
L 106.156688 115.208753 
L 109.857092 115.208753 
L 109.857092 115.208753 
L 110.285284 117.029755 
L 110.792588 118.850758 
L 111.38594 120.67176 
L 112.069894 122.492763 
L 112.845752 124.313765 
L 113.710874 126.134768 
L 114.65829 127.95577 
L 115.676713 129.776773 
L 116.750996 131.597775 
L 117.86302 133.418778 
L 118.992926 135.23978 
L 120.120549 137.060783 
L 121.226905 138.881785 
L 122.29553 140.702788 
L 123.313554 142.52379 
L 124.27239 144.344793 
L 125.168001 146.165795 
L 126.000767 147.986798 
L 126.775009 149.8078 
L 127.498273 151.628803 
L 128.180469 153.449805 
L 128.832969 155.270808 
L 129.467725 157.09181 
L 130.096467 158.912813 
L 130.729987 160.733815 
L 131.377521 162.554818 
L 132.046219 164.37582 
L 132.740705 166.196823 
L 133.462734 168.017825 
L 134.210977 169.838828 
L 134.980964 171.65983 
L 135.765234 173.480833 
L 136.553709 175.301835 
L 137.334293 177.122838 
L 138.093652 178.94384 
L 138.818103 180.764843 
L 139.494499 182.585845 
L 140.111002 184.406848 
L 140.657647 186.22785 
L 141.126654 188.048853 
L 141.512484 189.869855 
L 141.811693 191.690858 
L 142.022672 193.51186 
L 142.145369 195.332863 
L 142.181053 197.153865 
L 142.132165 198.974868 
L 142.002242 200.79587 
L 141.795875 202.616873 
L 141.518665 204.437875 
L 141.177131 206.258878 
L 140.778598 208.07988 
L 140.331071 209.900883 
L 139.843144 211.721885 
L 139.323993 213.542888 
L 138.783416 215.36389 
L 138.231904 217.184893 
L 137.680628 219.005895 
L 137.141235 220.826898 
L 136.625373 222.6479 
L 136.1439 224.468903 
L 135.705826 226.289905 
L 135.317133 228.110908 
L 134.979667 229.93191 
L 134.690344 231.752913 
L 134.440879 233.573915 
L 134.218174 235.394918 
L 134.005388 237.21592 
L 133.783573 239.036923 
L 133.533684 240.857925 
L 133.238632 242.678928 
L 132.88511 244.49993 
L 132.464892 246.320933 
L 131.975445 248.141935 
L 131.419799 249.962938 
L 130.805728 251.78394 
L 130.144432 253.604943 
L 129.44894 255.425945 
L 128.732487 257.246948 
L 128.007083 259.06795 
L 127.28244 260.888953 
L 126.565337 262.709955 
L 125.859437 264.530958 
L 125.165504 266.35196 
L 124.481918 268.172963 
L 123.805388 269.993965 
L 123.131727 271.814968 
L 122.456584 273.63597 
L 121.776051 275.456973 
L 121.087098 277.277975 
L 120.387804 279.098978 
L 119.67742 280.91998 
L 118.956295 282.740983 
L 118.225748 284.561985 
L 117.48793 286.382988 
L 116.745735 288.20399 
L 116.002783 290.024993 
L 115.263453 291.845995 
L 114.532928 293.666998 
L 113.817203 295.488 
z
" clip-path="url(#pce8bb17077)" style="fill: #1f77b4; fill-opacity: 0.3"/>
   </g>
   <g id="PolyCollection_2">
    <path d="M 195.116539 295.488 
L 191.768054 295.488 
L 191.39154 293.595701 
L 190.961076 291.703402 
L 190.476171 289.811103 
L 189.937901 287.918804 
L 189.348788 286.026505 
L 188.712446 284.134206 
L 188.033023 282.241907 
L 187.314546 280.349609 
L 186.560354 278.45731 
L 185.772781 276.565011 
L 184.953256 274.672712 
L 184.102853 272.780413 
L 183.223221 270.888114 
L 182.317674 268.995815 
L 181.392146 267.103516 
L 180.455703 265.211217 
L 179.520391 263.318918 
L 178.60035 261.426619 
L 177.710315 259.53432 
L 176.863797 257.642021 
L 176.071298 255.749722 
L 175.338936 253.857423 
L 174.667715 251.965125 
L 174.053535 250.072826 
L 173.487864 248.180527 
L 172.958848 246.288228 
L 172.452634 244.395929 
L 171.954669 242.50363 
L 171.45086 240.611331 
L 170.928547 238.719032 
L 170.377348 236.826733 
L 169.78991 234.934434 
L 169.162607 233.042135 
L 168.496126 231.149836 
L 167.795829 229.257537 
L 167.071744 227.365238 
L 166.338036 225.47294 
L 165.611894 223.580641 
L 164.911891 221.688342 
L 164.255962 219.796043 
L 163.659289 217.903744 
L 163.132415 216.011445 
L 162.679888 214.119146 
L 162.299681 212.226847 
L 161.983498 210.334548 
L 161.717938 208.442249 
L 161.486367 206.54995 
L 161.271244 204.657651 
L 161.056618 202.765352 
L 160.830476 200.873053 
L 160.586673 198.980754 
L 160.326173 197.088456 
L 160.057449 195.196157 
L 159.795905 193.303858 
L 159.562364 191.411559 
L 159.380771 189.51926 
L 159.275421 187.626961 
L 159.268134 185.734662 
L 159.375836 183.842363 
L 159.608935 181.950064 
L 159.970735 180.057765 
L 160.457898 178.165466 
L 161.061753 176.273167 
L 161.770121 174.380868 
L 162.569229 172.488569 
L 163.445393 170.59627 
L 164.386253 168.703972 
L 165.381473 166.811673 
L 166.422968 164.919374 
L 167.504773 163.027075 
L 168.622646 161.134776 
L 169.773514 159.242477 
L 170.954792 157.350178 
L 172.163635 155.457879 
L 173.396171 153.56558 
L 174.646817 151.673281 
L 175.90779 149.780982 
L 177.168942 147.888683 
L 178.418002 145.996384 
L 179.641233 144.104085 
L 180.824426 142.211787 
L 181.954071 140.319488 
L 183.018517 138.427189 
L 184.008906 136.53489 
L 184.919755 134.642591 
L 185.749117 132.750292 
L 186.498353 130.857993 
L 187.171605 128.965694 
L 187.775108 127.073395 
L 188.316457 125.181096 
L 188.803924 123.288797 
L 189.245874 121.396498 
L 189.650268 119.504199 
L 190.024269 117.6119 
L 190.373905 115.719601 
L 190.703825 113.827303 
L 191.017133 111.935004 
L 191.315357 110.042705 
L 191.598558 108.150406 
L 195.286035 108.150406 
L 195.286035 108.150406 
L 195.569237 110.042705 
L 195.86746 111.935004 
L 196.180768 113.827303 
L 196.510688 115.719601 
L 196.860325 117.6119 
L 197.234325 119.504199 
L 197.638719 121.396498 
L 198.080669 123.288797 
L 198.568137 125.181096 
L 199.109485 127.073395 
L 199.712988 128.965694 
L 200.38624 130.857993 
L 201.135476 132.750292 
L 201.964839 134.642591 
L 202.875687 136.53489 
L 203.866076 138.427189 
L 204.930522 140.319488 
L 206.060167 142.211787 
L 207.24336 144.104085 
L 208.466591 145.996384 
L 209.715652 147.888683 
L 210.976804 149.780982 
L 212.237776 151.673281 
L 213.488422 153.56558 
L 214.720958 155.457879 
L 215.929801 157.350178 
L 217.111079 159.242477 
L 218.261947 161.134776 
L 219.379821 163.027075 
L 220.461626 164.919374 
L 221.503121 166.811673 
L 222.49834 168.703972 
L 223.4392 170.59627 
L 224.315365 172.488569 
L 225.114472 174.380868 
L 225.82284 176.273167 
L 226.426696 178.165466 
L 226.913858 180.057765 
L 227.275658 181.950064 
L 227.508758 183.842363 
L 227.616459 185.734662 
L 227.609172 187.626961 
L 227.503822 189.51926 
L 227.322229 191.411559 
L 227.088688 193.303858 
L 226.827144 195.196157 
L 226.55842 197.088456 
L 226.297921 198.980754 
L 226.054117 200.873053 
L 225.827975 202.765352 
L 225.613349 204.657651 
L 225.398226 206.54995 
L 225.166655 208.442249 
L 224.901096 210.334548 
L 224.584913 212.226847 
L 224.204705 214.119146 
L 223.752178 216.011445 
L 223.225304 217.903744 
L 222.628631 219.796043 
L 221.972702 221.688342 
L 221.272699 223.580641 
L 220.546558 225.47294 
L 219.812849 227.365238 
L 219.088764 229.257537 
L 218.388468 231.149836 
L 217.721986 233.042135 
L 217.094683 234.934434 
L 216.507246 236.826733 
L 215.956046 238.719032 
L 215.433733 240.611331 
L 214.929924 242.50363 
L 214.431959 244.395929 
L 213.925746 246.288228 
L 213.39673 248.180527 
L 212.831058 250.072826 
L 212.216879 251.965125 
L 211.545657 253.857423 
L 210.813295 255.749722 
L 210.020797 257.642021 
L 209.174279 259.53432 
L 208.284244 261.426619 
L 207.364202 263.318918 
L 206.42889 265.211217 
L 205.492447 267.103516 
L 204.566919 268.995815 
L 203.661372 270.888114 
L 202.78174 272.780413 
L 201.931337 274.672712 
L 201.111812 276.565011 
L 200.324239 278.45731 
L 199.570047 280.349609 
L 198.851571 282.241907 
L 198.172147 284.134206 
L 197.535806 286.026505 
L 196.946692 287.918804 
L 196.408422 289.811103 
L 195.923518 291.703402 
L 195.493053 293.595701 
L 195.116539 295.488 
z
" clip-path="url(#pce8bb17077)" style="fill: #1f77b4; fill-opacity: 0.3"/>
   </g>
   <g id="PolyCollection_3">
    <path d="M 280.633756 284.503899 
L 277.12165 284.503899 
L 276.88218 282.513526 
L 276.639689 280.523153 
L 276.394518 278.53278 
L 276.144354 276.542407 
L 275.883997 274.552034 
L 275.605586 272.56166 
L 275.29933 270.571287 
L 274.954677 268.580914 
L 274.56182 266.590541 
L 274.113296 264.600168 
L 273.605453 262.609795 
L 273.039532 260.619422 
L 272.422142 258.629048 
L 271.765028 256.638675 
L 271.084094 254.648302 
L 270.397787 252.657929 
L 269.725027 250.667556 
L 269.082945 248.677183 
L 268.484747 246.68681 
L 267.937986 244.696437 
L 267.443498 242.706063 
L 266.995181 240.71569 
L 266.580668 238.725317 
L 266.182832 236.734944 
L 265.781942 234.744571 
L 265.358182 232.754198 
L 264.894169 230.763825 
L 264.377121 228.773452 
L 263.800342 226.783078 
L 263.163813 224.792705 
L 262.473807 222.802332 
L 261.741623 220.811959 
L 260.981663 218.821586 
L 260.2092 216.831213 
L 259.438205 214.84084 
L 258.679605 212.850466 
L 257.940213 210.860093 
L 257.222446 208.86972 
L 256.524791 206.879347 
L 255.842844 204.888974 
L 255.170648 202.898601 
L 254.502057 200.908228 
L 253.8319 198.917855 
L 253.156774 196.927481 
L 252.475471 194.937108 
L 251.789071 192.946735 
L 251.100834 190.956362 
L 250.415988 188.965989 
L 249.741495 186.975616 
L 249.085773 184.985243 
L 248.458329 182.99487 
L 247.8692 181.004496 
L 247.328163 179.014123 
L 246.843714 177.02375 
L 246.421951 175.033377 
L 246.065577 173.043004 
L 245.773255 171.052631 
L 245.539572 169.062258 
L 245.3557 167.071884 
L 245.210738 165.081511 
L 245.093517 163.091138 
L 244.994513 161.100765 
L 244.907492 159.110392 
L 244.830527 157.120019 
L 244.766187 155.129646 
L 244.720876 153.139273 
L 244.703541 151.148899 
L 244.724062 149.158526 
L 244.791736 147.168153 
L 244.914179 145.17778 
L 245.096876 143.187407 
L 245.343363 141.197034 
L 245.655921 139.206661 
L 246.036477 137.216288 
L 246.487417 135.225914 
L 247.012049 133.235541 
L 247.614563 131.245168 
L 248.299512 129.254795 
L 249.070937 127.264422 
L 249.931365 125.274049 
L 250.880938 123.283676 
L 251.916866 121.293302 
L 253.033333 119.302929 
L 254.221853 117.312556 
L 255.471974 115.322183 
L 256.772155 113.33181 
L 258.110623 111.341437 
L 259.476031 109.351064 
L 260.857803 107.360691 
L 262.246148 105.370317 
L 263.631799 103.379944 
L 265.005592 101.389571 
L 266.358045 99.399198 
L 267.679063 97.408825 
L 268.957872 95.418452 
L 270.183231 93.428079 
L 271.343885 91.437706 
L 272.4292 89.447332 
L 273.429867 87.456959 
L 284.325539 87.456959 
L 284.325539 87.456959 
L 285.326207 89.447332 
L 286.411522 91.437706 
L 287.572176 93.428079 
L 288.797534 95.418452 
L 290.076344 97.408825 
L 291.397362 99.399198 
L 292.749815 101.389571 
L 294.123608 103.379944 
L 295.509258 105.370317 
L 296.897603 107.360691 
L 298.279375 109.351064 
L 299.644784 111.341437 
L 300.983252 113.33181 
L 302.283433 115.322183 
L 303.533553 117.312556 
L 304.722074 119.302929 
L 305.838541 121.293302 
L 306.874469 123.283676 
L 307.824042 125.274049 
L 308.68447 127.264422 
L 309.455895 129.254795 
L 310.140844 131.245168 
L 310.743358 133.235541 
L 311.267989 135.225914 
L 311.71893 137.216288 
L 312.099486 139.206661 
L 312.412044 141.197034 
L 312.658531 143.187407 
L 312.841227 145.17778 
L 312.963671 147.168153 
L 313.031344 149.158526 
L 313.051866 151.148899 
L 313.034531 153.139273 
L 312.98922 155.129646 
L 312.924879 157.120019 
L 312.847915 159.110392 
L 312.760894 161.100765 
L 312.661889 163.091138 
L 312.544668 165.081511 
L 312.399707 167.071884 
L 312.215835 169.062258 
L 311.982151 171.052631 
L 311.68983 173.043004 
L 311.333455 175.033377 
L 310.911693 177.02375 
L 310.427243 179.014123 
L 309.886206 181.004496 
L 309.297078 182.99487 
L 308.669633 184.985243 
L 308.013911 186.975616 
L 307.339418 188.965989 
L 306.654573 190.956362 
L 305.966335 192.946735 
L 305.279935 194.937108 
L 304.598632 196.927481 
L 303.923507 198.917855 
L 303.253349 200.908228 
L 302.584759 202.898601 
L 301.912562 204.888974 
L 301.230615 206.879347 
L 300.532961 208.86972 
L 299.815194 210.860093 
L 299.075802 212.850466 
L 298.317202 214.84084 
L 297.546207 216.831213 
L 296.773743 218.821586 
L 296.013784 220.811959 
L 295.2816 222.802332 
L 294.591594 224.792705 
L 293.955064 226.783078 
L 293.378286 228.773452 
L 292.861238 230.763825 
L 292.397225 232.754198 
L 291.973464 234.744571 
L 291.572575 236.734944 
L 291.174739 238.725317 
L 290.760225 240.71569 
L 290.311909 242.706063 
L 289.817421 244.696437 
L 289.27066 246.68681 
L 288.672462 248.677183 
L 288.03038 250.667556 
L 287.35762 252.657929 
L 286.671313 254.648302 
L 285.990379 256.638675 
L 285.333264 258.629048 
L 284.715874 260.619422 
L 284.149953 262.609795 
L 283.642111 264.600168 
L 283.193587 266.590541 
L 282.800729 268.580914 
L 282.456077 270.571287 
L 282.14982 272.56166 
L 281.87141 274.552034 
L 281.611053 276.542407 
L 281.360889 278.53278 
L 281.115718 280.523153 
L 280.873226 282.513526 
L 280.633756 284.503899 
z
" clip-path="url(#pce8bb17077)" style="fill: #1f77b4; fill-opacity: 0.3"/>
   </g>
   <g id="PolyCollection_4">
    <path d="M 365.213578 282.945354 
L 363.412642 282.945354 
L 363.184072 280.628411 
L 362.908044 278.311468 
L 362.579584 275.994525 
L 362.1956 273.677582 
L 361.755627 271.360639 
L 361.262365 269.043696 
L 360.721859 266.726753 
L 360.143239 264.40981 
L 359.53801 262.092868 
L 358.91894 259.775925 
L 358.298684 257.458982 
L 357.688351 255.142039 
L 357.096265 252.825096 
L 356.527139 250.508153 
L 355.981882 248.19121 
L 355.458079 245.874267 
L 354.951089 243.557324 
L 354.455542 241.240381 
L 353.966871 238.923438 
L 353.482509 236.606495 
L 353.002418 234.289552 
L 352.528763 231.972609 
L 352.064769 229.655666 
L 351.613027 227.338723 
L 351.17366 225.02178 
L 350.742847 222.704837 
L 350.3121 220.387894 
L 349.868558 218.070951 
L 349.396259 215.754008 
L 348.878187 213.437065 
L 348.298669 211.120122 
L 347.64568 208.803179 
L 346.912619 206.486236 
L 346.099307 204.169293 
L 345.212079 201.85235 
L 344.263046 199.535407 
L 343.268729 197.218464 
L 342.248332 194.901521 
L 341.221915 192.584578 
L 340.208717 190.267635 
L 339.225761 187.950692 
L 338.28686 185.633749 
L 337.402032 183.316806 
L 336.577324 180.999863 
L 335.81501 178.682921 
L 335.114096 176.365978 
L 334.471073 174.049035 
L 333.8808 171.732092 
L 333.337451 169.415149 
L 332.835423 167.098206 
L 332.370154 164.781263 
L 331.938818 162.46432 
L 331.540866 160.147377 
L 331.178377 157.830434 
L 330.856155 155.513491 
L 330.581508 153.196548 
L 330.363656 150.879605 
L 330.212796 148.562662 
L 330.138947 146.245719 
L 330.150767 143.928776 
L 330.25461 141.611833 
L 330.454041 139.29489 
L 330.749921 136.977947 
L 331.141054 134.661004 
L 331.625198 132.344061 
L 332.200207 130.027118 
L 332.864974 127.710175 
L 333.619953 125.393232 
L 334.467096 123.076289 
L 335.409211 120.759346 
L 336.448826 118.442403 
L 337.586788 116.12546 
L 338.820837 113.808517 
L 340.144454 111.491574 
L 341.54622 109.174631 
L 343.009859 106.857688 
L 344.515022 104.540745 
L 346.038708 102.223802 
L 347.557118 99.906859 
L 349.047607 97.589916 
L 350.490392 95.272974 
L 351.869757 92.956031 
L 353.17457 90.639088 
L 354.398133 88.322145 
L 355.537499 86.005202 
L 356.59247 83.688259 
L 357.564527 81.371316 
L 358.455891 79.054373 
L 359.268849 76.73743 
L 360.005406 74.420487 
L 360.667242 72.103544 
L 361.255919 69.786601 
L 361.773252 67.469658 
L 362.221714 65.152715 
L 362.604779 62.835772 
L 362.927107 60.518829 
L 363.194502 58.201886 
L 363.413648 55.884943 
L 363.591681 53.568 
L 365.034539 53.568 
L 365.034539 53.568 
L 365.212572 55.884943 
L 365.431718 58.201886 
L 365.699113 60.518829 
L 366.021441 62.835772 
L 366.404506 65.152715 
L 366.852968 67.469658 
L 367.370301 69.786601 
L 367.958979 72.103544 
L 368.620814 74.420487 
L 369.357371 76.73743 
L 370.170329 79.054373 
L 371.061693 81.371316 
L 372.03375 83.688259 
L 373.088721 86.005202 
L 374.228087 88.322145 
L 375.45165 90.639088 
L 376.756463 92.956031 
L 378.135828 95.272974 
L 379.578614 97.589916 
L 381.069102 99.906859 
L 382.587512 102.223802 
L 384.111198 104.540745 
L 385.616361 106.857688 
L 387.08 109.174631 
L 388.481766 111.491574 
L 389.805383 113.808517 
L 391.039432 116.12546 
L 392.177394 118.442403 
L 393.217009 120.759346 
L 394.159124 123.076289 
L 395.006267 125.393232 
L 395.761246 127.710175 
L 396.426013 130.027118 
L 397.001022 132.344061 
L 397.485166 134.661004 
L 397.876299 136.977947 
L 398.17218 139.29489 
L 398.37161 141.611833 
L 398.475453 143.928776 
L 398.487273 146.245719 
L 398.413424 148.562662 
L 398.262564 150.879605 
L 398.044712 153.196548 
L 397.770065 155.513491 
L 397.447843 157.830434 
L 397.085354 160.147377 
L 396.687402 162.46432 
L 396.256066 164.781263 
L 395.790797 167.098206 
L 395.288769 169.415149 
L 394.74542 171.732092 
L 394.155147 174.049035 
L 393.512124 176.365978 
L 392.81121 178.682921 
L 392.048896 180.999863 
L 391.224188 183.316806 
L 390.33936 185.633749 
L 389.400459 187.950692 
L 388.417503 190.267635 
L 387.404305 192.584578 
L 386.377888 194.901521 
L 385.357491 197.218464 
L 384.363175 199.535407 
L 383.414141 201.85235 
L 382.526913 204.169293 
L 381.713602 206.486236 
L 380.98054 208.803179 
L 380.327551 211.120122 
L 379.748033 213.437065 
L 379.229961 215.754008 
L 378.757662 218.070951 
L 378.31412 220.387894 
L 377.883374 222.704837 
L 377.45256 225.02178 
L 377.013193 227.338723 
L 376.561451 229.655666 
L 376.097457 231.972609 
L 375.623802 234.289552 
L 375.143711 236.606495 
L 374.659349 238.923438 
L 374.170678 241.240381 
L 373.675131 243.557324 
L 373.168141 245.874267 
L 372.644338 248.19121 
L 372.099081 250.508153 
L 371.529955 252.825096 
L 370.937869 255.142039 
L 370.327536 257.458982 
L 369.70728 259.775925 
L 369.08821 262.092868 
L 368.482981 264.40981 
L 367.904361 266.726753 
L 367.363855 269.043696 
L 366.870593 271.360639 
L 366.43062 273.677582 
L 366.046636 275.994525 
L 365.718176 278.311468 
L 365.442148 280.628411 
L 365.213578 282.945354 
z
" clip-path="url(#pce8bb17077)" style="fill: #1f77b4; fill-opacity: 0.3"/>
   </g>
   <g id="matplotlib.axis_1">
    <g id="xtick_1">
     <g id="line2d_1">
      <path d="M 65.289187 307.584 
L 65.289187 41.472 
" clip-path="url(#pce8bb17077)" style="fill: none; stroke-dasharray: 2.96,1.28; stroke-dashoffset: 0; stroke: #b0b0b0; stroke-width: 0.8"/>
     </g>
     <g id="line2d_2">
      <defs>
       <path id="m0c49688844" d="M 0 0 
L 0 3.5 
" style="stroke: #000000; stroke-width: 0.8"/>
      </defs>
      <g>
       <use xlink:href="#m0c49688844" x="65.289187" y="307.584" style="stroke: #000000; stroke-width: 0.8"/>
      </g>
     </g>
     <g id="text_1">
      <!-- 250 -->
      <g transform="translate(55.745437 322.182437)scale(0.1 -0.1)">
       <defs>
        <path id="DejaVuSans-32" d="M 1228 531 
L 3431 531 
L 3431 0 
L 469 0 
L 469 531 
Q 828 903 1448 1529 
Q 2069 2156 2228 2338 
Q 2531 2678 2651 2914 
Q 2772 3150 2772 3378 
Q 2772 3750 2511 3984 
Q 2250 4219 1831 4219 
Q 1534 4219 1204 4116 
Q 875 4013 500 3803 
L 500 4441 
Q 881 4594 1212 4672 
Q 1544 4750 1819 4750 
Q 2544 4750 2975 4387 
Q 3406 4025 3406 3419 
Q 3406 3131 3298 2873 
Q 3191 2616 2906 2266 
Q 2828 2175 2409 1742 
Q 1991 1309 1228 531 
z
" transform="scale(0.015625)"/>
        <path id="DejaVuSans-35" d="M 691 4666 
L 3169 4666 
L 3169 4134 
L 1269 4134 
L 1269 2991 
Q 1406 3038 1543 3061 
Q 1681 3084 1819 3084 
Q 2600 3084 3056 2656 
Q 3513 2228 3513 1497 
Q 3513 744 3044 326 
Q 2575 -91 1722 -91 
Q 1428 -91 1123 -41 
Q 819 9 494 109 
L 494 744 
Q 775 591 1075 516 
Q 1375 441 1709 441 
Q 2250 441 2565 725 
Q 2881 1009 2881 1497 
Q 2881 1984 2565 2268 
Q 2250 2553 1709 2553 
Q 1456 2553 1204 2497 
Q 953 2441 691 2322 
L 691 4666 
z
" transform="scale(0.015625)"/>
        <path id="DejaVuSans-30" d="M 2034 4250 
Q 1547 4250 1301 3770 
Q 1056 3291 1056 2328 
Q 1056 1369 1301 889 
Q 1547 409 2034 409 
Q 2525 409 2770 889 
Q 3016 1369 3016 2328 
Q 3016 3291 2770 3770 
Q 2525 4250 2034 4250 
z
M 2034 4750 
Q 2819 4750 3233 4129 
Q 3647 3509 3647 2328 
Q 3647 1150 3233 529 
Q 2819 -91 2034 -91 
Q 1250 -91 836 529 
Q 422 1150 422 2328 
Q 422 3509 836 4129 
Q 1250 4750 2034 4750 
z
" transform="scale(0.015625)"/>
       </defs>
       <use xlink:href="#DejaVuSans-32"/>
       <use xlink:href="#DejaVuSans-35" x="63.623047"/>
       <use xlink:href="#DejaVuSans-30" x="127.246094"/>
      </g>
     </g>
    </g>
    <g id="xtick_2">
     <g id="line2d_3">
      <path d="M 108.00689 307.584 
L 108.00689 41.472 
" clip-path="url(#pce8bb17077)" style="fill: none; stroke-dasharray: 2.96,1.28; stroke-dashoffset: 0; stroke: #b0b0b0; stroke-width: 0.8"/>
     </g>
     <g id="line2d_4">
      <g>
       <use xlink:href="#m0c49688844" x="108.00689" y="307.584" style="stroke: #000000; stroke-width: 0.8"/>
      </g>
     </g>
     <g id="text_2">
      <!-- 500 -->
      <g transform="translate(98.46314 322.182437)scale(0.1 -0.1)">
       <use xlink:href="#DejaVuSans-35"/>
       <use xlink:href="#DejaVuSans-30" x="63.623047"/>
       <use xlink:href="#DejaVuSans-30" x="127.246094"/>
      </g>
     </g>
    </g>
    <g id="xtick_3">
     <g id="line2d_5">
      <path d="M 150.724593 307.584 
L 150.724593 41.472 
" clip-path="url(#pce8bb17077)" style="fill: none; stroke-dasharray: 2.96,1.28; stroke-dashoffset: 0; stroke: #b0b0b0; stroke-width: 0.8"/>
     </g>
     <g id="line2d_6">
      <g>
       <use xlink:href="#m0c49688844" x="150.724593" y="307.584" style="stroke: #000000; stroke-width: 0.8"/>
      </g>
     </g>
     <g id="text_3">
      <!-- 750 -->
      <g transform="translate(141.180843 322.182437)scale(0.1 -0.1)">
       <defs>
        <path id="DejaVuSans-37" d="M 525 4666 
L 3525 4666 
L 3525 4397 
L 1831 0 
L 1172 0 
L 2766 4134 
L 525 4134 
L 525 4666 
z
" transform="scale(0.015625)"/>
       </defs>
       <use xlink:href="#DejaVuSans-37"/>
       <use xlink:href="#DejaVuSans-35" x="63.623047"/>
       <use xlink:href="#DejaVuSans-30" x="127.246094"/>
      </g>
     </g>
    </g>
    <g id="xtick_4">
     <g id="line2d_7">
      <path d="M 193.442297 307.584 
L 193.442297 41.472 
" clip-path="url(#pce8bb17077)" style="fill: none; stroke-dasharray: 2.96,1.28; stroke-dashoffset: 0; stroke: #b0b0b0; stroke-width: 0.8"/>
     </g>
     <g id="line2d_8">
      <g>
       <use xlink:href="#m0c49688844" x="193.442297" y="307.584" style="stroke: #000000; stroke-width: 0.8"/>
      </g>
     </g>
     <g id="text_4">
      <!-- 1000 -->
      <g transform="translate(180.717297 322.182437)scale(0.1 -0.1)">
       <defs>
        <path id="DejaVuSans-31" d="M 794 531 
L 1825 531 
L 1825 4091 
L 703 3866 
L 703 4441 
L 1819 4666 
L 2450 4666 
L 2450 531 
L 3481 531 
L 3481 0 
L 794 0 
L 794 531 
z
" transform="scale(0.015625)"/>
       </defs>
       <use xlink:href="#DejaVuSans-31"/>
       <use xlink:href="#DejaVuSans-30" x="63.623047"/>
       <use xlink:href="#DejaVuSans-30" x="127.246094"/>
       <use xlink:href="#DejaVuSans-30" x="190.869141"/>
      </g>
     </g>
    </g>
    <g id="xtick_5">
     <g id="line2d_9">
      <path d="M 236.16 307.584 
L 236.16 41.472 
" clip-path="url(#pce8bb17077)" style="fill: none; stroke-dasharray: 2.96,1.28; stroke-dashoffset: 0; stroke: #b0b0b0; stroke-width: 0.8"/>
     </g>
     <g id="line2d_10">
      <g>
       <use xlink:href="#m0c49688844" x="236.16" y="307.584" style="stroke: #000000; stroke-width: 0.8"/>
      </g>
     </g>
     <g id="text_5">
      <!-- 1250 -->
      <g transform="translate(223.435 322.182437)scale(0.1 -0.1)">
       <use xlink:href="#DejaVuSans-31"/>
       <use xlink:href="#DejaVuSans-32" x="63.623047"/>
       <use xlink:href="#DejaVuSans-35" x="127.246094"/>
       <use xlink:href="#DejaVuSans-30" x="190.869141"/>
      </g>
     </g>
    </g>
    <g id="xtick_6">
     <g id="line2d_11">
      <path d="M 278.877703 307.584 
L 278.877703 41.472 
" clip-path="url(#pce8bb17077)" style="fill: none; stroke-dasharray: 2.96,1.28; stroke-dashoffset: 0; stroke: #b0b0b0; stroke-width: 0.8"/>
     </g>
     <g id="line2d_12">
      <g>
       <use xlink:href="#m0c49688844" x="278.877703" y="307.584" style="stroke: #000000; stroke-width: 0.8"/>
      </g>
     </g>
     <g id="text_6">
      <!-- 1500 -->
      <g transform="translate(266.152703 322.182437)scale(0.1 -0.1)">
       <use xlink:href="#DejaVuSans-31"/>
       <use xlink:href="#DejaVuSans-35" x="63.623047"/>
       <use xlink:href="#DejaVuSans-30" x="127.246094"/>
       <use xlink:href="#DejaVuSans-30" x="190.869141"/>
      </g>
     </g>
    </g>
    <g id="xtick_7">
     <g id="line2d_13">
      <path d="M 321.595407 307.584 
L 321.595407 41.472 
" clip-path="url(#pce8bb17077)" style="fill: none; stroke-dasharray: 2.96,1.28; stroke-dashoffset: 0; stroke: #b0b0b0; stroke-width: 0.8"/>
     </g>
     <g id="line2d_14">
      <g>
       <use xlink:href="#m0c49688844" x="321.595407" y="307.584" style="stroke: #000000; stroke-width: 0.8"/>
      </g>
     </g>
     <g id="text_7">
      <!-- 1750 -->
      <g transform="translate(308.870407 322.182437)scale(0.1 -0.1)">
       <use xlink:href="#DejaVuSans-31"/>
       <use xlink:href="#DejaVuSans-37" x="63.623047"/>
       <use xlink:href="#DejaVuSans-35" x="127.246094"/>
       <use xlink:href="#DejaVuSans-30" x="190.869141"/>
      </g>
     </g>
    </g>
    <g id="xtick_8">
     <g id="line2d_15">
      <path d="M 364.31311 307.584 
L 364.31311 41.472 
" clip-path="url(#pce8bb17077)" style="fill: none; stroke-dasharray: 2.96,1.28; stroke-dashoffset: 0; stroke: #b0b0b0; stroke-width: 0.8"/>
     </g>
     <g id="line2d_16">
      <g>
       <use xlink:href="#m0c49688844" x="364.31311" y="307.584" style="stroke: #000000; stroke-width: 0.8"/>
      </g>
     </g>
     <g id="text_8">
      <!-- 2000 -->
      <g transform="translate(351.58811 322.182437)scale(0.1 -0.1)">
       <use xlink:href="#DejaVuSans-32"/>
       <use xlink:href="#DejaVuSans-30" x="63.623047"/>
       <use xlink:href="#DejaVuSans-30" x="127.246094"/>
       <use xlink:href="#DejaVuSans-30" x="190.869141"/>
      </g>
     </g>
    </g>
    <g id="xtick_9">
     <g id="line2d_17">
      <path d="M 407.030813 307.584 
L 407.030813 41.472 
" clip-path="url(#pce8bb17077)" style="fill: none; stroke-dasharray: 2.96,1.28; stroke-dashoffset: 0; stroke: #b0b0b0; stroke-width: 0.8"/>
     </g>
     <g id="line2d_18">
      <g>
       <use xlink:href="#m0c49688844" x="407.030813" y="307.584" style="stroke: #000000; stroke-width: 0.8"/>
      </g>
     </g>
     <g id="text_9">
      <!-- 2250 -->
      <g transform="translate(394.305813 322.182437)scale(0.1 -0.1)">
       <use xlink:href="#DejaVuSans-32"/>
       <use xlink:href="#DejaVuSans-32" x="63.623047"/>
       <use xlink:href="#DejaVuSans-35" x="127.246094"/>
       <use xlink:href="#DejaVuSans-30" x="190.869141"/>
      </g>
     </g>
    </g>
    <g id="text_10">
     <!-- Learned Episodes -->
     <g transform="translate(192.102187 335.860562)scale(0.1 -0.1)">
      <defs>
       <path id="DejaVuSans-4c" d="M 628 4666 
L 1259 4666 
L 1259 531 
L 3531 531 
L 3531 0 
L 628 0 
L 628 4666 
z
" transform="scale(0.015625)"/>
       <path id="DejaVuSans-65" d="M 3597 1894 
L 3597 1613 
L 953 1613 
Q 991 1019 1311 708 
Q 1631 397 2203 397 
Q 2534 397 2845 478 
Q 3156 559 3463 722 
L 3463 178 
Q 3153 47 2828 -22 
Q 2503 -91 2169 -91 
Q 1331 -91 842 396 
Q 353 884 353 1716 
Q 353 2575 817 3079 
Q 1281 3584 2069 3584 
Q 2775 3584 3186 3129 
Q 3597 2675 3597 1894 
z
M 3022 2063 
Q 3016 2534 2758 2815 
Q 2500 3097 2075 3097 
Q 1594 3097 1305 2825 
Q 1016 2553 972 2059 
L 3022 2063 
z
" transform="scale(0.015625)"/>
       <path id="DejaVuSans-61" d="M 2194 1759 
Q 1497 1759 1228 1600 
Q 959 1441 959 1056 
Q 959 750 1161 570 
Q 1363 391 1709 391 
Q 2188 391 2477 730 
Q 2766 1069 2766 1631 
L 2766 1759 
L 2194 1759 
z
M 3341 1997 
L 3341 0 
L 2766 0 
L 2766 531 
Q 2569 213 2275 61 
Q 1981 -91 1556 -91 
Q 1019 -91 701 211 
Q 384 513 384 1019 
Q 384 1609 779 1909 
Q 1175 2209 1959 2209 
L 2766 2209 
L 2766 2266 
Q 2766 2663 2505 2880 
Q 2244 3097 1772 3097 
Q 1472 3097 1187 3025 
Q 903 2953 641 2809 
L 641 3341 
Q 956 3463 1253 3523 
Q 1550 3584 1831 3584 
Q 2591 3584 2966 3190 
Q 3341 2797 3341 1997 
z
" transform="scale(0.015625)"/>
       <path id="DejaVuSans-72" d="M 2631 2963 
Q 2534 3019 2420 3045 
Q 2306 3072 2169 3072 
Q 1681 3072 1420 2755 
Q 1159 2438 1159 1844 
L 1159 0 
L 581 0 
L 581 3500 
L 1159 3500 
L 1159 2956 
Q 1341 3275 1631 3429 
Q 1922 3584 2338 3584 
Q 2397 3584 2469 3576 
Q 2541 3569 2628 3553 
L 2631 2963 
z
" transform="scale(0.015625)"/>
       <path id="DejaVuSans-6e" d="M 3513 2113 
L 3513 0 
L 2938 0 
L 2938 2094 
Q 2938 2591 2744 2837 
Q 2550 3084 2163 3084 
Q 1697 3084 1428 2787 
Q 1159 2491 1159 1978 
L 1159 0 
L 581 0 
L 581 3500 
L 1159 3500 
L 1159 2956 
Q 1366 3272 1645 3428 
Q 1925 3584 2291 3584 
Q 2894 3584 3203 3211 
Q 3513 2838 3513 2113 
z
" transform="scale(0.015625)"/>
       <path id="DejaVuSans-64" d="M 2906 2969 
L 2906 4863 
L 3481 4863 
L 3481 0 
L 2906 0 
L 2906 525 
Q 2725 213 2448 61 
Q 2172 -91 1784 -91 
Q 1150 -91 751 415 
Q 353 922 353 1747 
Q 353 2572 751 3078 
Q 1150 3584 1784 3584 
Q 2172 3584 2448 3432 
Q 2725 3281 2906 2969 
z
M 947 1747 
Q 947 1113 1208 752 
Q 1469 391 1925 391 
Q 2381 391 2643 752 
Q 2906 1113 2906 1747 
Q 2906 2381 2643 2742 
Q 2381 3103 1925 3103 
Q 1469 3103 1208 2742 
Q 947 2381 947 1747 
z
" transform="scale(0.015625)"/>
       <path id="DejaVuSans-20" transform="scale(0.015625)"/>
       <path id="DejaVuSans-45" d="M 628 4666 
L 3578 4666 
L 3578 4134 
L 1259 4134 
L 1259 2753 
L 3481 2753 
L 3481 2222 
L 1259 2222 
L 1259 531 
L 3634 531 
L 3634 0 
L 628 0 
L 628 4666 
z
" transform="scale(0.015625)"/>
       <path id="DejaVuSans-70" d="M 1159 525 
L 1159 -1331 
L 581 -1331 
L 581 3500 
L 1159 3500 
L 1159 2969 
Q 1341 3281 1617 3432 
Q 1894 3584 2278 3584 
Q 2916 3584 3314 3078 
Q 3713 2572 3713 1747 
Q 3713 922 3314 415 
Q 2916 -91 2278 -91 
Q 1894 -91 1617 61 
Q 1341 213 1159 525 
z
M 3116 1747 
Q 3116 2381 2855 2742 
Q 2594 3103 2138 3103 
Q 1681 3103 1420 2742 
Q 1159 2381 1159 1747 
Q 1159 1113 1420 752 
Q 1681 391 2138 391 
Q 2594 391 2855 752 
Q 3116 1113 3116 1747 
z
" transform="scale(0.015625)"/>
       <path id="DejaVuSans-69" d="M 603 3500 
L 1178 3500 
L 1178 0 
L 603 0 
L 603 3500 
z
M 603 4863 
L 1178 4863 
L 1178 4134 
L 603 4134 
L 603 4863 
z
" transform="scale(0.015625)"/>
       <path id="DejaVuSans-73" d="M 2834 3397 
L 2834 2853 
Q 2591 2978 2328 3040 
Q 2066 3103 1784 3103 
Q 1356 3103 1142 2972 
Q 928 2841 928 2578 
Q 928 2378 1081 2264 
Q 1234 2150 1697 2047 
L 1894 2003 
Q 2506 1872 2764 1633 
Q 3022 1394 3022 966 
Q 3022 478 2636 193 
Q 2250 -91 1575 -91 
Q 1294 -91 989 -36 
Q 684 19 347 128 
L 347 722 
Q 666 556 975 473 
Q 1284 391 1588 391 
Q 1994 391 2212 530 
Q 2431 669 2431 922 
Q 2431 1156 2273 1281 
Q 2116 1406 1581 1522 
L 1381 1569 
Q 847 1681 609 1914 
Q 372 2147 372 2553 
Q 372 3047 722 3315 
Q 1072 3584 1716 3584 
Q 2034 3584 2315 3537 
Q 2597 3491 2834 3397 
z
" transform="scale(0.015625)"/>
       <path id="DejaVuSans-6f" d="M 1959 3097 
Q 1497 3097 1228 2736 
Q 959 2375 959 1747 
Q 959 1119 1226 758 
Q 1494 397 1959 397 
Q 2419 397 2687 759 
Q 2956 1122 2956 1747 
Q 2956 2369 2687 2733 
Q 2419 3097 1959 3097 
z
M 1959 3584 
Q 2709 3584 3137 3096 
Q 3566 2609 3566 1747 
Q 3566 888 3137 398 
Q 2709 -91 1959 -91 
Q 1206 -91 779 398 
Q 353 888 353 1747 
Q 353 2609 779 3096 
Q 1206 3584 1959 3584 
z
" transform="scale(0.015625)"/>
      </defs>
      <use xlink:href="#DejaVuSans-4c"/>
      <use xlink:href="#DejaVuSans-65" x="53.962891"/>
      <use xlink:href="#DejaVuSans-61" x="115.486328"/>
      <use xlink:href="#DejaVuSans-72" x="176.765625"/>
      <use xlink:href="#DejaVuSans-6e" x="216.128906"/>
      <use xlink:href="#DejaVuSans-65" x="279.507812"/>
      <use xlink:href="#DejaVuSans-64" x="341.03125"/>
      <use xlink:href="#DejaVuSans-20" x="404.507812"/>
      <use xlink:href="#DejaVuSans-45" x="436.294922"/>
      <use xlink:href="#DejaVuSans-70" x="499.478516"/>
      <use xlink:href="#DejaVuSans-69" x="562.955078"/>
      <use xlink:href="#DejaVuSans-73" x="590.738281"/>
      <use xlink:href="#DejaVuSans-6f" x="642.837891"/>
      <use xlink:href="#DejaVuSans-64" x="704.019531"/>
      <use xlink:href="#DejaVuSans-65" x="767.496094"/>
      <use xlink:href="#DejaVuSans-73" x="829.019531"/>
     </g>
    </g>
   </g>
   <g id="matplotlib.axis_2">
    <g id="ytick_1">
     <g id="line2d_19">
      <path d="M 57.6 295.488 
L 414.72 295.488 
" clip-path="url(#pce8bb17077)" style="fill: none; stroke-dasharray: 2.96,1.28; stroke-dashoffset: 0; stroke: #b0b0b0; stroke-width: 0.8"/>
     </g>
     <g id="line2d_20">
      <defs>
       <path id="m20353f320c" d="M 0 0 
L -3.5 0 
" style="stroke: #000000; stroke-width: 0.8"/>
      </defs>
      <g>
       <use xlink:href="#m20353f320c" x="57.6" y="295.488" style="stroke: #000000; stroke-width: 0.8"/>
      </g>
     </g>
     <g id="text_11">
      <!-- 0 -->
      <g transform="translate(44.2375 299.287219)scale(0.1 -0.1)">
       <use xlink:href="#DejaVuSans-30"/>
      </g>
     </g>
    </g>
    <g id="ytick_2">
     <g id="line2d_21">
      <path d="M 57.6 259.245142 
L 414.72 259.245142 
" clip-path="url(#pce8bb17077)" style="fill: none; stroke-dasharray: 2.96,1.28; stroke-dashoffset: 0; stroke: #b0b0b0; stroke-width: 0.8"/>
     </g>
     <g id="line2d_22">
      <g>
       <use xlink:href="#m20353f320c" x="57.6" y="259.245142" style="stroke: #000000; stroke-width: 0.8"/>
      </g>
     </g>
     <g id="text_12">
      <!-- 100 -->
      <g transform="translate(31.5125 263.044361)scale(0.1 -0.1)">
       <use xlink:href="#DejaVuSans-31"/>
       <use xlink:href="#DejaVuSans-30" x="63.623047"/>
       <use xlink:href="#DejaVuSans-30" x="127.246094"/>
      </g>
     </g>
    </g>
    <g id="ytick_3">
     <g id="line2d_23">
      <path d="M 57.6 223.002284 
L 414.72 223.002284 
" clip-path="url(#pce8bb17077)" style="fill: none; stroke-dasharray: 2.96,1.28; stroke-dashoffset: 0; stroke: #b0b0b0; stroke-width: 0.8"/>
     </g>
     <g id="line2d_24">
      <g>
       <use xlink:href="#m20353f320c" x="57.6" y="223.002284" style="stroke: #000000; stroke-width: 0.8"/>
      </g>
     </g>
     <g id="text_13">
      <!-- 200 -->
      <g transform="translate(31.5125 226.801502)scale(0.1 -0.1)">
       <use xlink:href="#DejaVuSans-32"/>
       <use xlink:href="#DejaVuSans-30" x="63.623047"/>
       <use xlink:href="#DejaVuSans-30" x="127.246094"/>
      </g>
     </g>
    </g>
    <g id="ytick_4">
     <g id="line2d_25">
      <path d="M 57.6 186.759425 
L 414.72 186.759425 
" clip-path="url(#pce8bb17077)" style="fill: none; stroke-dasharray: 2.96,1.28; stroke-dashoffset: 0; stroke: #b0b0b0; stroke-width: 0.8"/>
     </g>
     <g id="line2d_26">
      <g>
       <use xlink:href="#m20353f320c" x="57.6" y="186.759425" style="stroke: #000000; stroke-width: 0.8"/>
      </g>
     </g>
     <g id="text_14">
      <!-- 300 -->
      <g transform="translate(31.5125 190.558644)scale(0.1 -0.1)">
       <defs>
        <path id="DejaVuSans-33" d="M 2597 2516 
Q 3050 2419 3304 2112 
Q 3559 1806 3559 1356 
Q 3559 666 3084 287 
Q 2609 -91 1734 -91 
Q 1441 -91 1130 -33 
Q 819 25 488 141 
L 488 750 
Q 750 597 1062 519 
Q 1375 441 1716 441 
Q 2309 441 2620 675 
Q 2931 909 2931 1356 
Q 2931 1769 2642 2001 
Q 2353 2234 1838 2234 
L 1294 2234 
L 1294 2753 
L 1863 2753 
Q 2328 2753 2575 2939 
Q 2822 3125 2822 3475 
Q 2822 3834 2567 4026 
Q 2313 4219 1838 4219 
Q 1578 4219 1281 4162 
Q 984 4106 628 3988 
L 628 4550 
Q 988 4650 1302 4700 
Q 1616 4750 1894 4750 
Q 2613 4750 3031 4423 
Q 3450 4097 3450 3541 
Q 3450 3153 3228 2886 
Q 3006 2619 2597 2516 
z
" transform="scale(0.015625)"/>
       </defs>
       <use xlink:href="#DejaVuSans-33"/>
       <use xlink:href="#DejaVuSans-30" x="63.623047"/>
       <use xlink:href="#DejaVuSans-30" x="127.246094"/>
      </g>
     </g>
    </g>
    <g id="ytick_5">
     <g id="line2d_27">
      <path d="M 57.6 150.516567 
L 414.72 150.516567 
" clip-path="url(#pce8bb17077)" style="fill: none; stroke-dasharray: 2.96,1.28; stroke-dashoffset: 0; stroke: #b0b0b0; stroke-width: 0.8"/>
     </g>
     <g id="line2d_28">
      <g>
       <use xlink:href="#m20353f320c" x="57.6" y="150.516567" style="stroke: #000000; stroke-width: 0.8"/>
      </g>
     </g>
     <g id="text_15">
      <!-- 400 -->
      <g transform="translate(31.5125 154.315786)scale(0.1 -0.1)">
       <defs>
        <path id="DejaVuSans-34" d="M 2419 4116 
L 825 1625 
L 2419 1625 
L 2419 4116 
z
M 2253 4666 
L 3047 4666 
L 3047 1625 
L 3713 1625 
L 3713 1100 
L 3047 1100 
L 3047 0 
L 2419 0 
L 2419 1100 
L 313 1100 
L 313 1709 
L 2253 4666 
z
" transform="scale(0.015625)"/>
       </defs>
       <use xlink:href="#DejaVuSans-34"/>
       <use xlink:href="#DejaVuSans-30" x="63.623047"/>
       <use xlink:href="#DejaVuSans-30" x="127.246094"/>
      </g>
     </g>
    </g>
    <g id="ytick_6">
     <g id="line2d_29">
      <path d="M 57.6 114.273709 
L 414.72 114.273709 
" clip-path="url(#pce8bb17077)" style="fill: none; stroke-dasharray: 2.96,1.28; stroke-dashoffset: 0; stroke: #b0b0b0; stroke-width: 0.8"/>
     </g>
     <g id="line2d_30">
      <g>
       <use xlink:href="#m20353f320c" x="57.6" y="114.273709" style="stroke: #000000; stroke-width: 0.8"/>
      </g>
     </g>
     <g id="text_16">
      <!-- 500 -->
      <g transform="translate(31.5125 118.072928)scale(0.1 -0.1)">
       <use xlink:href="#DejaVuSans-35"/>
       <use xlink:href="#DejaVuSans-30" x="63.623047"/>
       <use xlink:href="#DejaVuSans-30" x="127.246094"/>
      </g>
     </g>
    </g>
    <g id="ytick_7">
     <g id="line2d_31">
      <path d="M 57.6 78.030851 
L 414.72 78.030851 
" clip-path="url(#pce8bb17077)" style="fill: none; stroke-dasharray: 2.96,1.28; stroke-dashoffset: 0; stroke: #b0b0b0; stroke-width: 0.8"/>
     </g>
     <g id="line2d_32">
      <g>
       <use xlink:href="#m20353f320c" x="57.6" y="78.030851" style="stroke: #000000; stroke-width: 0.8"/>
      </g>
     </g>
     <g id="text_17">
      <!-- 600 -->
      <g transform="translate(31.5125 81.830069)scale(0.1 -0.1)">
       <defs>
        <path id="DejaVuSans-36" d="M 2113 2584 
Q 1688 2584 1439 2293 
Q 1191 2003 1191 1497 
Q 1191 994 1439 701 
Q 1688 409 2113 409 
Q 2538 409 2786 701 
Q 3034 994 3034 1497 
Q 3034 2003 2786 2293 
Q 2538 2584 2113 2584 
z
M 3366 4563 
L 3366 3988 
Q 3128 4100 2886 4159 
Q 2644 4219 2406 4219 
Q 1781 4219 1451 3797 
Q 1122 3375 1075 2522 
Q 1259 2794 1537 2939 
Q 1816 3084 2150 3084 
Q 2853 3084 3261 2657 
Q 3669 2231 3669 1497 
Q 3669 778 3244 343 
Q 2819 -91 2113 -91 
Q 1303 -91 875 529 
Q 447 1150 447 2328 
Q 447 3434 972 4092 
Q 1497 4750 2381 4750 
Q 2619 4750 2861 4703 
Q 3103 4656 3366 4563 
z
" transform="scale(0.015625)"/>
       </defs>
       <use xlink:href="#DejaVuSans-36"/>
       <use xlink:href="#DejaVuSans-30" x="63.623047"/>
       <use xlink:href="#DejaVuSans-30" x="127.246094"/>
      </g>
     </g>
    </g>
    <g id="ytick_8">
     <g id="line2d_33">
      <path d="M 57.6 41.787993 
L 414.72 41.787993 
" clip-path="url(#pce8bb17077)" style="fill: none; stroke-dasharray: 2.96,1.28; stroke-dashoffset: 0; stroke: #b0b0b0; stroke-width: 0.8"/>
     </g>
     <g id="line2d_34">
      <g>
       <use xlink:href="#m20353f320c" x="57.6" y="41.787993" style="stroke: #000000; stroke-width: 0.8"/>
      </g>
     </g>
     <g id="text_18">
      <!-- 700 -->
      <g transform="translate(31.5125 45.587211)scale(0.1 -0.1)">
       <use xlink:href="#DejaVuSans-37"/>
       <use xlink:href="#DejaVuSans-30" x="63.623047"/>
       <use xlink:href="#DejaVuSans-30" x="127.246094"/>
      </g>
     </g>
    </g>
    <g id="text_19">
     <!-- Reward Density -->
     <g transform="translate(25.432812 213.74675)rotate(-90)scale(0.1 -0.1)">
      <defs>
       <path id="DejaVuSans-52" d="M 2841 2188 
Q 3044 2119 3236 1894 
Q 3428 1669 3622 1275 
L 4263 0 
L 3584 0 
L 2988 1197 
Q 2756 1666 2539 1819 
Q 2322 1972 1947 1972 
L 1259 1972 
L 1259 0 
L 628 0 
L 628 4666 
L 2053 4666 
Q 2853 4666 3247 4331 
Q 3641 3997 3641 3322 
Q 3641 2881 3436 2590 
Q 3231 2300 2841 2188 
z
M 1259 4147 
L 1259 2491 
L 2053 2491 
Q 2509 2491 2742 2702 
Q 2975 2913 2975 3322 
Q 2975 3731 2742 3939 
Q 2509 4147 2053 4147 
L 1259 4147 
z
" transform="scale(0.015625)"/>
       <path id="DejaVuSans-77" d="M 269 3500 
L 844 3500 
L 1563 769 
L 2278 3500 
L 2956 3500 
L 3675 769 
L 4391 3500 
L 4966 3500 
L 4050 0 
L 3372 0 
L 2619 2869 
L 1863 0 
L 1184 0 
L 269 3500 
z
" transform="scale(0.015625)"/>
       <path id="DejaVuSans-44" d="M 1259 4147 
L 1259 519 
L 2022 519 
Q 2988 519 3436 956 
Q 3884 1394 3884 2338 
Q 3884 3275 3436 3711 
Q 2988 4147 2022 4147 
L 1259 4147 
z
M 628 4666 
L 1925 4666 
Q 3281 4666 3915 4102 
Q 4550 3538 4550 2338 
Q 4550 1131 3912 565 
Q 3275 0 1925 0 
L 628 0 
L 628 4666 
z
" transform="scale(0.015625)"/>
       <path id="DejaVuSans-74" d="M 1172 4494 
L 1172 3500 
L 2356 3500 
L 2356 3053 
L 1172 3053 
L 1172 1153 
Q 1172 725 1289 603 
Q 1406 481 1766 481 
L 2356 481 
L 2356 0 
L 1766 0 
Q 1100 0 847 248 
Q 594 497 594 1153 
L 594 3053 
L 172 3053 
L 172 3500 
L 594 3500 
L 594 4494 
L 1172 4494 
z
" transform="scale(0.015625)"/>
       <path id="DejaVuSans-79" d="M 2059 -325 
Q 1816 -950 1584 -1140 
Q 1353 -1331 966 -1331 
L 506 -1331 
L 506 -850 
L 844 -850 
Q 1081 -850 1212 -737 
Q 1344 -625 1503 -206 
L 1606 56 
L 191 3500 
L 800 3500 
L 1894 763 
L 2988 3500 
L 3597 3500 
L 2059 -325 
z
" transform="scale(0.015625)"/>
      </defs>
      <use xlink:href="#DejaVuSans-52"/>
      <use xlink:href="#DejaVuSans-65" x="64.982422"/>
      <use xlink:href="#DejaVuSans-77" x="126.505859"/>
      <use xlink:href="#DejaVuSans-61" x="208.292969"/>
      <use xlink:href="#DejaVuSans-72" x="269.572266"/>
      <use xlink:href="#DejaVuSans-64" x="308.935547"/>
      <use xlink:href="#DejaVuSans-20" x="372.412109"/>
      <use xlink:href="#DejaVuSans-44" x="404.199219"/>
      <use xlink:href="#DejaVuSans-65" x="481.201172"/>
      <use xlink:href="#DejaVuSans-6e" x="542.724609"/>
      <use xlink:href="#DejaVuSans-73" x="606.103516"/>
      <use xlink:href="#DejaVuSans-69" x="658.203125"/>
      <use xlink:href="#DejaVuSans-74" x="685.986328"/>
      <use xlink:href="#DejaVuSans-79" x="725.195312"/>
     </g>
    </g>
   </g>
   <g id="LineCollection_1">
    <path d="M 90.919809 208.103156 
L 125.093971 208.103156 
" clip-path="url(#pce8bb17077)" style="fill: none; stroke: #1f77b4; stroke-width: 1.5"/>
    <path d="M 176.355215 201.606223 
L 210.529378 201.606223 
" clip-path="url(#pce8bb17077)" style="fill: none; stroke: #1f77b4; stroke-width: 1.5"/>
    <path d="M 261.790622 169.08003 
L 295.964785 169.08003 
" clip-path="url(#pce8bb17077)" style="fill: none; stroke: #1f77b4; stroke-width: 1.5"/>
    <path d="M 347.226029 161.125331 
L 381.400191 161.125331 
" clip-path="url(#pce8bb17077)" style="fill: none; stroke: #1f77b4; stroke-width: 1.5"/>
   </g>
   <g id="LineCollection_2">
    <path d="M 90.919809 115.208753 
L 125.093971 115.208753 
" clip-path="url(#pce8bb17077)" style="fill: none; stroke: #1f77b4; stroke-width: 1.5"/>
    <path d="M 176.355215 108.150406 
L 210.529378 108.150406 
" clip-path="url(#pce8bb17077)" style="fill: none; stroke: #1f77b4; stroke-width: 1.5"/>
    <path d="M 261.790622 87.456959 
L 295.964785 87.456959 
" clip-path="url(#pce8bb17077)" style="fill: none; stroke: #1f77b4; stroke-width: 1.5"/>
    <path d="M 347.226029 53.568 
L 381.400191 53.568 
" clip-path="url(#pce8bb17077)" style="fill: none; stroke: #1f77b4; stroke-width: 1.5"/>
   </g>
   <g id="LineCollection_3">
    <path d="M 90.919809 295.488 
L 125.093971 295.488 
" clip-path="url(#pce8bb17077)" style="fill: none; stroke: #1f77b4; stroke-width: 1.5"/>
    <path d="M 176.355215 295.488 
L 210.529378 295.488 
" clip-path="url(#pce8bb17077)" style="fill: none; stroke: #1f77b4; stroke-width: 1.5"/>
    <path d="M 261.790622 284.503899 
L 295.964785 284.503899 
" clip-path="url(#pce8bb17077)" style="fill: none; stroke: #1f77b4; stroke-width: 1.5"/>
    <path d="M 347.226029 282.945354 
L 381.400191 282.945354 
" clip-path="url(#pce8bb17077)" style="fill: none; stroke: #1f77b4; stroke-width: 1.5"/>
   </g>
   <g id="LineCollection_4">
    <path d="M 108.00689 295.488 
L 108.00689 115.208753 
" clip-path="url(#pce8bb17077)" style="fill: none; stroke: #1f77b4; stroke-width: 1.5"/>
    <path d="M 193.442297 295.488 
L 193.442297 108.150406 
" clip-path="url(#pce8bb17077)" style="fill: none; stroke: #1f77b4; stroke-width: 1.5"/>
    <path d="M 278.877703 284.503899 
L 278.877703 87.456959 
" clip-path="url(#pce8bb17077)" style="fill: none; stroke: #1f77b4; stroke-width: 1.5"/>
    <path d="M 364.31311 282.945354 
L 364.31311 53.568 
" clip-path="url(#pce8bb17077)" style="fill: none; stroke: #1f77b4; stroke-width: 1.5"/>
   </g>
   <g id="line2d_35">
    <path d="M 108.00689 208.103156 
L 193.442297 201.606223 
L 278.877703 169.08003 
L 364.31311 161.125331 
" clip-path="url(#pce8bb17077)" style="fill: none; stroke: #4682b4; stroke-width: 1.5; stroke-linecap: square"/>
   </g>
   <g id="line2d_36">
    <path d="M 108.00689 208.103156 
L 193.442297 201.606223 
L 278.877703 169.08003 
L 364.31311 161.125331 
" clip-path="url(#pce8bb17077)" style="fill: none; stroke: #4682b4; stroke-width: 1.5; stroke-linecap: square"/>
   </g>
   <g id="patch_3">
    <path d="M 57.6 307.584 
L 57.6 41.472 
" style="fill: none; stroke: #000000; stroke-width: 0.8; stroke-linejoin: miter; stroke-linecap: square"/>
   </g>
   <g id="patch_4">
    <path d="M 414.72 307.584 
L 414.72 41.472 
" style="fill: none; stroke: #000000; stroke-width: 0.8; stroke-linejoin: miter; stroke-linecap: square"/>
   </g>
   <g id="patch_5">
    <path d="M 57.6 307.584 
L 414.72 307.584 
" style="fill: none; stroke: #000000; stroke-width: 0.8; stroke-linejoin: miter; stroke-linecap: square"/>
   </g>
   <g id="patch_6">
    <path d="M 57.6 41.472 
L 414.72 41.472 
" style="fill: none; stroke: #000000; stroke-width: 0.8; stroke-linejoin: miter; stroke-linecap: square"/>
   </g>
   <g id="text_20">
    <!-- Violinplot for progress of profits/by_selling_refurbished -->
    <g transform="translate(72.470625 35.472)scale(0.12 -0.12)">
     <defs>
      <path id="DejaVuSans-56" d="M 1831 0 
L 50 4666 
L 709 4666 
L 2188 738 
L 3669 4666 
L 4325 4666 
L 2547 0 
L 1831 0 
z
" transform="scale(0.015625)"/>
      <path id="DejaVuSans-6c" d="M 603 4863 
L 1178 4863 
L 1178 0 
L 603 0 
L 603 4863 
z
" transform="scale(0.015625)"/>
      <path id="DejaVuSans-66" d="M 2375 4863 
L 2375 4384 
L 1825 4384 
Q 1516 4384 1395 4259 
Q 1275 4134 1275 3809 
L 1275 3500 
L 2222 3500 
L 2222 3053 
L 1275 3053 
L 1275 0 
L 697 0 
L 697 3053 
L 147 3053 
L 147 3500 
L 697 3500 
L 697 3744 
Q 697 4328 969 4595 
Q 1241 4863 1831 4863 
L 2375 4863 
z
" transform="scale(0.015625)"/>
      <path id="DejaVuSans-67" d="M 2906 1791 
Q 2906 2416 2648 2759 
Q 2391 3103 1925 3103 
Q 1463 3103 1205 2759 
Q 947 2416 947 1791 
Q 947 1169 1205 825 
Q 1463 481 1925 481 
Q 2391 481 2648 825 
Q 2906 1169 2906 1791 
z
M 3481 434 
Q 3481 -459 3084 -895 
Q 2688 -1331 1869 -1331 
Q 1566 -1331 1297 -1286 
Q 1028 -1241 775 -1147 
L 775 -588 
Q 1028 -725 1275 -790 
Q 1522 -856 1778 -856 
Q 2344 -856 2625 -561 
Q 2906 -266 2906 331 
L 2906 616 
Q 2728 306 2450 153 
Q 2172 0 1784 0 
Q 1141 0 747 490 
Q 353 981 353 1791 
Q 353 2603 747 3093 
Q 1141 3584 1784 3584 
Q 2172 3584 2450 3431 
Q 2728 3278 2906 2969 
L 2906 3500 
L 3481 3500 
L 3481 434 
z
" transform="scale(0.015625)"/>
      <path id="DejaVuSans-2f" d="M 1625 4666 
L 2156 4666 
L 531 -594 
L 0 -594 
L 1625 4666 
z
" transform="scale(0.015625)"/>
      <path id="DejaVuSans-62" d="M 3116 1747 
Q 3116 2381 2855 2742 
Q 2594 3103 2138 3103 
Q 1681 3103 1420 2742 
Q 1159 2381 1159 1747 
Q 1159 1113 1420 752 
Q 1681 391 2138 391 
Q 2594 391 2855 752 
Q 3116 1113 3116 1747 
z
M 1159 2969 
Q 1341 3281 1617 3432 
Q 1894 3584 2278 3584 
Q 2916 3584 3314 3078 
Q 3713 2572 3713 1747 
Q 3713 922 3314 415 
Q 2916 -91 2278 -91 
Q 1894 -91 1617 61 
Q 1341 213 1159 525 
L 1159 0 
L 581 0 
L 581 4863 
L 1159 4863 
L 1159 2969 
z
" transform="scale(0.015625)"/>
      <path id="DejaVuSans-5f" d="M 3263 -1063 
L 3263 -1509 
L -63 -1509 
L -63 -1063 
L 3263 -1063 
z
" transform="scale(0.015625)"/>
      <path id="DejaVuSans-75" d="M 544 1381 
L 544 3500 
L 1119 3500 
L 1119 1403 
Q 1119 906 1312 657 
Q 1506 409 1894 409 
Q 2359 409 2629 706 
Q 2900 1003 2900 1516 
L 2900 3500 
L 3475 3500 
L 3475 0 
L 2900 0 
L 2900 538 
Q 2691 219 2414 64 
Q 2138 -91 1772 -91 
Q 1169 -91 856 284 
Q 544 659 544 1381 
z
M 1991 3584 
L 1991 3584 
z
" transform="scale(0.015625)"/>
      <path id="DejaVuSans-68" d="M 3513 2113 
L 3513 0 
L 2938 0 
L 2938 2094 
Q 2938 2591 2744 2837 
Q 2550 3084 2163 3084 
Q 1697 3084 1428 2787 
Q 1159 2491 1159 1978 
L 1159 0 
L 581 0 
L 581 4863 
L 1159 4863 
L 1159 2956 
Q 1366 3272 1645 3428 
Q 1925 3584 2291 3584 
Q 2894 3584 3203 3211 
Q 3513 2838 3513 2113 
z
" transform="scale(0.015625)"/>
     </defs>
     <use xlink:href="#DejaVuSans-56"/>
     <use xlink:href="#DejaVuSans-69" x="66.158203"/>
     <use xlink:href="#DejaVuSans-6f" x="93.941406"/>
     <use xlink:href="#DejaVuSans-6c" x="155.123047"/>
     <use xlink:href="#DejaVuSans-69" x="182.90625"/>
     <use xlink:href="#DejaVuSans-6e" x="210.689453"/>
     <use xlink:href="#DejaVuSans-70" x="274.068359"/>
     <use xlink:href="#DejaVuSans-6c" x="337.544922"/>
     <use xlink:href="#DejaVuSans-6f" x="365.328125"/>
     <use xlink:href="#DejaVuSans-74" x="426.509766"/>
     <use xlink:href="#DejaVuSans-20" x="465.71875"/>
     <use xlink:href="#DejaVuSans-66" x="497.505859"/>
     <use xlink:href="#DejaVuSans-6f" x="532.710938"/>
     <use xlink:href="#DejaVuSans-72" x="593.892578"/>
     <use xlink:href="#DejaVuSans-20" x="635.005859"/>
     <use xlink:href="#DejaVuSans-70" x="666.792969"/>
     <use xlink:href="#DejaVuSans-72" x="730.269531"/>
     <use xlink:href="#DejaVuSans-6f" x="769.132812"/>
     <use xlink:href="#DejaVuSans-67" x="830.314453"/>
     <use xlink:href="#DejaVuSans-72" x="893.791016"/>
     <use xlink:href="#DejaVuSans-65" x="932.654297"/>
     <use xlink:href="#DejaVuSans-73" x="994.177734"/>
     <use xlink:href="#DejaVuSans-73" x="1046.277344"/>
     <use xlink:href="#DejaVuSans-20" x="1098.376953"/>
     <use xlink:href="#DejaVuSans-6f" x="1130.164062"/>
     <use xlink:href="#DejaVuSans-66" x="1191.345703"/>
     <use xlink:href="#DejaVuSans-20" x="1226.550781"/>
     <use xlink:href="#DejaVuSans-70" x="1258.337891"/>
     <use xlink:href="#DejaVuSans-72" x="1321.814453"/>
     <use xlink:href="#DejaVuSans-6f" x="1360.677734"/>
     <use xlink:href="#DejaVuSans-66" x="1421.859375"/>
     <use xlink:href="#DejaVuSans-69" x="1457.064453"/>
     <use xlink:href="#DejaVuSans-74" x="1484.847656"/>
     <use xlink:href="#DejaVuSans-73" x="1524.056641"/>
     <use xlink:href="#DejaVuSans-2f" x="1576.15625"/>
     <use xlink:href="#DejaVuSans-62" x="1609.847656"/>
     <use xlink:href="#DejaVuSans-79" x="1673.324219"/>
     <use xlink:href="#DejaVuSans-5f" x="1732.503906"/>
     <use xlink:href="#DejaVuSans-73" x="1782.503906"/>
     <use xlink:href="#DejaVuSans-65" x="1834.603516"/>
     <use xlink:href="#DejaVuSans-6c" x="1896.126953"/>
     <use xlink:href="#DejaVuSans-6c" x="1923.910156"/>
     <use xlink:href="#DejaVuSans-69" x="1951.693359"/>
     <use xlink:href="#DejaVuSans-6e" x="1979.476562"/>
     <use xlink:href="#DejaVuSans-67" x="2042.855469"/>
     <use xlink:href="#DejaVuSans-5f" x="2106.332031"/>
     <use xlink:href="#DejaVuSans-72" x="2156.332031"/>
     <use xlink:href="#DejaVuSans-65" x="2195.195312"/>
     <use xlink:href="#DejaVuSans-66" x="2256.71875"/>
     <use xlink:href="#DejaVuSans-75" x="2291.923828"/>
     <use xlink:href="#DejaVuSans-72" x="2355.302734"/>
     <use xlink:href="#DejaVuSans-62" x="2396.416016"/>
     <use xlink:href="#DejaVuSans-69" x="2459.892578"/>
     <use xlink:href="#DejaVuSans-73" x="2487.675781"/>
     <use xlink:href="#DejaVuSans-68" x="2539.775391"/>
     <use xlink:href="#DejaVuSans-65" x="2603.154297"/>
     <use xlink:href="#DejaVuSans-64" x="2664.677734"/>
    </g>
   </g>
   <g id="legend_1">
    <g id="patch_7">
     <path d="M 276.25125 64.150125 
L 407.72 64.150125 
Q 409.72 64.150125 409.72 62.150125 
L 409.72 48.472 
Q 409.72 46.472 407.72 46.472 
L 276.25125 46.472 
Q 274.25125 46.472 274.25125 48.472 
L 274.25125 62.150125 
Q 274.25125 64.150125 276.25125 64.150125 
z
" style="fill: #ffffff; opacity: 0.8; stroke: #cccccc; stroke-linejoin: miter"/>
    </g>
    <g id="line2d_37">
     <path d="M 278.25125 54.570438 
L 288.25125 54.570438 
L 298.25125 54.570438 
" style="fill: none; stroke: #4682b4; stroke-width: 1.5; stroke-linecap: square"/>
    </g>
    <g id="text_21">
     <!-- StableBaselinesSAC -->
     <g transform="translate(306.25125 58.070438)scale(0.1 -0.1)">
      <defs>
       <path id="DejaVuSans-53" d="M 3425 4513 
L 3425 3897 
Q 3066 4069 2747 4153 
Q 2428 4238 2131 4238 
Q 1616 4238 1336 4038 
Q 1056 3838 1056 3469 
Q 1056 3159 1242 3001 
Q 1428 2844 1947 2747 
L 2328 2669 
Q 3034 2534 3370 2195 
Q 3706 1856 3706 1288 
Q 3706 609 3251 259 
Q 2797 -91 1919 -91 
Q 1588 -91 1214 -16 
Q 841 59 441 206 
L 441 856 
Q 825 641 1194 531 
Q 1563 422 1919 422 
Q 2459 422 2753 634 
Q 3047 847 3047 1241 
Q 3047 1584 2836 1778 
Q 2625 1972 2144 2069 
L 1759 2144 
Q 1053 2284 737 2584 
Q 422 2884 422 3419 
Q 422 4038 858 4394 
Q 1294 4750 2059 4750 
Q 2388 4750 2728 4690 
Q 3069 4631 3425 4513 
z
" transform="scale(0.015625)"/>
       <path id="DejaVuSans-42" d="M 1259 2228 
L 1259 519 
L 2272 519 
Q 2781 519 3026 730 
Q 3272 941 3272 1375 
Q 3272 1813 3026 2020 
Q 2781 2228 2272 2228 
L 1259 2228 
z
M 1259 4147 
L 1259 2741 
L 2194 2741 
Q 2656 2741 2882 2914 
Q 3109 3088 3109 3444 
Q 3109 3797 2882 3972 
Q 2656 4147 2194 4147 
L 1259 4147 
z
M 628 4666 
L 2241 4666 
Q 2963 4666 3353 4366 
Q 3744 4066 3744 3513 
Q 3744 3084 3544 2831 
Q 3344 2578 2956 2516 
Q 3422 2416 3680 2098 
Q 3938 1781 3938 1306 
Q 3938 681 3513 340 
Q 3088 0 2303 0 
L 628 0 
L 628 4666 
z
" transform="scale(0.015625)"/>
       <path id="DejaVuSans-41" d="M 2188 4044 
L 1331 1722 
L 3047 1722 
L 2188 4044 
z
M 1831 4666 
L 2547 4666 
L 4325 0 
L 3669 0 
L 3244 1197 
L 1141 1197 
L 716 0 
L 50 0 
L 1831 4666 
z
" transform="scale(0.015625)"/>
       <path id="DejaVuSans-43" d="M 4122 4306 
L 4122 3641 
Q 3803 3938 3442 4084 
Q 3081 4231 2675 4231 
Q 1875 4231 1450 3742 
Q 1025 3253 1025 2328 
Q 1025 1406 1450 917 
Q 1875 428 2675 428 
Q 3081 428 3442 575 
Q 3803 722 4122 1019 
L 4122 359 
Q 3791 134 3420 21 
Q 3050 -91 2638 -91 
Q 1578 -91 968 557 
Q 359 1206 359 2328 
Q 359 3453 968 4101 
Q 1578 4750 2638 4750 
Q 3056 4750 3426 4639 
Q 3797 4528 4122 4306 
z
" transform="scale(0.015625)"/>
      </defs>
      <use xlink:href="#DejaVuSans-53"/>
      <use xlink:href="#DejaVuSans-74" x="63.476562"/>
      <use xlink:href="#DejaVuSans-61" x="102.685547"/>
      <use xlink:href="#DejaVuSans-62" x="163.964844"/>
      <use xlink:href="#DejaVuSans-6c" x="227.441406"/>
      <use xlink:href="#DejaVuSans-65" x="255.224609"/>
      <use xlink:href="#DejaVuSans-42" x="316.748047"/>
      <use xlink:href="#DejaVuSans-61" x="385.351562"/>
      <use xlink:href="#DejaVuSans-73" x="446.630859"/>
      <use xlink:href="#DejaVuSans-65" x="498.730469"/>
      <use xlink:href="#DejaVuSans-6c" x="560.253906"/>
      <use xlink:href="#DejaVuSans-69" x="588.037109"/>
      <use xlink:href="#DejaVuSans-6e" x="615.820312"/>
      <use xlink:href="#DejaVuSans-65" x="679.199219"/>
      <use xlink:href="#DejaVuSans-73" x="740.722656"/>
      <use xlink:href="#DejaVuSans-53" x="792.822266"/>
      <use xlink:href="#DejaVuSans-41" x="858.173828"/>
      <use xlink:href="#DejaVuSans-43" x="924.832031"/>
     </g>
    </g>
   </g>
  </g>
 </g>
 <defs>
  <clipPath id="pce8bb17077">
   <rect x="57.6" y="41.472" width="357.12" height="266.112"/>
  </clipPath>
 </defs>
</svg>
