<?xml version="1.0" encoding="utf-8" standalone="no"?>
<!DOCTYPE svg PUBLIC "-//W3C//DTD SVG 1.1//EN"
  "http://www.w3.org/Graphics/SVG/1.1/DTD/svg11.dtd">
<svg xmlns:xlink="http://www.w3.org/1999/xlink" width="460.8pt" height="345.6pt" viewBox="0 0 460.8 345.6" xmlns="http://www.w3.org/2000/svg" version="1.1">
 <metadata>
  <rdf:RDF xmlns:dc="http://purl.org/dc/elements/1.1/" xmlns:cc="http://creativecommons.org/ns#" xmlns:rdf="http://www.w3.org/1999/02/22-rdf-syntax-ns#">
   <cc:Work>
    <dc:type rdf:resource="http://purl.org/dc/dcmitype/StillImage"/>
    <dc:date>2022-06-16T11:36:22.680032</dc:date>
    <dc:format>image/svg+xml</dc:format>
    <dc:creator>
     <cc:Agent>
      <dc:title>Matplotlib v3.5.2, https://matplotlib.org/</dc:title>
     </cc:Agent>
    </dc:creator>
   </cc:Work>
  </rdf:RDF>
 </metadata>
 <defs>
  <style type="text/css">*{stroke-linejoin: round; stroke-linecap: butt}</style>
 </defs>
 <g id="figure_1">
  <g id="patch_1">
   <path d="M 0 345.6 
L 460.8 345.6 
L 460.8 0 
L 0 0 
z
" style="fill: #ffffff"/>
  </g>
  <g id="axes_1">
   <g id="patch_2">
    <path d="M 57.6 307.584 
L 414.72 307.584 
L 414.72 41.472 
L 57.6 41.472 
z
" style="fill: #ffffff"/>
   </g>
   <g id="PolyCollection_1">
    <path d="M 112.054644 295.488 
L 110.56953 295.488 
L 110.483279 293.044364 
L 110.385059 290.600727 
L 110.270029 288.157091 
L 110.132562 285.713455 
L 109.966496 283.269818 
L 109.765433 280.826182 
L 109.523071 278.382545 
L 109.233565 275.938909 
L 108.891916 273.495273 
L 108.494392 271.051636 
L 108.038946 268.608 
L 107.525593 266.164364 
L 106.956687 263.720727 
L 106.336982 261.277091 
L 105.673427 258.833455 
L 104.97462 256.389818 
L 104.249937 253.946182 
L 103.508413 251.502545 
L 102.75752 249.058909 
L 102.002051 246.615273 
L 101.243329 244.171636 
L 100.478927 241.728 
L 99.703009 239.284364 
L 98.907315 236.840727 
L 98.08266 234.397091 
L 97.220741 231.953455 
L 96.315955 229.509818 
L 95.366935 227.066182 
L 94.377508 224.622545 
L 93.356914 222.178909 
L 92.319181 219.735273 
L 91.281738 217.291636 
L 90.263423 214.848 
L 89.282167 212.404364 
L 88.352664 209.960727 
L 87.484361 207.517091 
L 86.680057 205.073455 
L 85.935314 202.629818 
L 85.238803 200.186182 
L 84.573559 197.742545 
L 83.919023 195.298909 
L 83.253654 192.855273 
L 82.557787 190.411636 
L 81.816423 187.968 
L 81.021585 185.524364 
L 80.173967 183.080727 
L 79.283654 180.637091 
L 78.369786 178.193455 
L 77.45921 175.749818 
L 76.584227 173.306182 
L 75.779706 170.862545 
L 75.079892 168.418909 
L 74.515312 165.975273 
L 74.110128 163.531636 
L 73.880302 161.088 
L 73.832727 158.644364 
L 73.965416 156.200727 
L 74.268603 153.757091 
L 74.72651 151.313455 
L 75.319418 148.869818 
L 76.02567 146.426182 
L 76.823301 143.982545 
L 77.691119 141.538909 
L 78.609222 139.095273 
L 79.559099 136.651636 
L 80.523537 134.208 
L 81.486625 131.764364 
L 82.434025 129.320727 
L 83.353609 126.877091 
L 84.236376 124.433455 
L 85.077445 121.989818 
L 85.876854 119.546182 
L 86.639871 117.102545 
L 87.376639 114.658909 
L 88.101094 112.215273 
L 88.829266 109.771636 
L 89.577204 107.328 
L 90.358864 104.884364 
L 91.184312 102.440727 
L 92.058516 99.997091 
L 92.980918 97.553455 
L 93.945787 95.109818 
L 94.943254 92.666182 
L 95.96079 90.222545 
L 96.984842 87.778909 
L 98.002357 85.335273 
L 99.00197 82.891636 
L 99.974726 80.448 
L 100.914306 78.004364 
L 101.816822 75.560727 
L 102.680319 73.117091 
L 103.504117 70.673455 
L 104.28816 68.229818 
L 105.032473 65.786182 
L 105.736796 63.342545 
L 106.400413 60.898909 
L 107.022162 58.455273 
L 107.600572 56.011636 
L 108.134085 53.568 
L 114.49009 53.568 
L 114.49009 53.568 
L 115.023603 56.011636 
L 115.602013 58.455273 
L 116.223762 60.898909 
L 116.887379 63.342545 
L 117.591701 65.786182 
L 118.336014 68.229818 
L 119.120058 70.673455 
L 119.943856 73.117091 
L 120.807353 75.560727 
L 121.709869 78.004364 
L 122.649448 80.448 
L 123.622205 82.891636 
L 124.621818 85.335273 
L 125.639333 87.778909 
L 126.663384 90.222545 
L 127.68092 92.666182 
L 128.678388 95.109818 
L 129.643257 97.553455 
L 130.565659 99.997091 
L 131.439863 102.440727 
L 132.265311 104.884364 
L 133.046971 107.328 
L 133.794908 109.771636 
L 134.52308 112.215273 
L 135.247535 114.658909 
L 135.984303 117.102545 
L 136.74732 119.546182 
L 137.54673 121.989818 
L 138.387799 124.433455 
L 139.270566 126.877091 
L 140.19015 129.320727 
L 141.13755 131.764364 
L 142.100638 134.208 
L 143.065076 136.651636 
L 144.014952 139.095273 
L 144.933056 141.538909 
L 145.800874 143.982545 
L 146.598505 146.426182 
L 147.304757 148.869818 
L 147.897665 151.313455 
L 148.355572 153.757091 
L 148.658759 156.200727 
L 148.791447 158.644364 
L 148.743872 161.088 
L 148.514046 163.531636 
L 148.108863 165.975273 
L 147.544282 168.418909 
L 146.844469 170.862545 
L 146.039947 173.306182 
L 145.164964 175.749818 
L 144.254388 178.193455 
L 143.340521 180.637091 
L 142.450207 183.080727 
L 141.60259 185.524364 
L 140.807752 187.968 
L 140.066387 190.411636 
L 139.370521 192.855273 
L 138.705151 195.298909 
L 138.050616 197.742545 
L 137.385371 200.186182 
L 136.688861 202.629818 
L 135.944118 205.073455 
L 135.139813 207.517091 
L 134.27151 209.960727 
L 133.342007 212.404364 
L 132.360752 214.848 
L 131.342437 217.291636 
L 130.304994 219.735273 
L 129.267261 222.178909 
L 128.246667 224.622545 
L 127.25724 227.066182 
L 126.308219 229.509818 
L 125.403434 231.953455 
L 124.541514 234.397091 
L 123.71686 236.840727 
L 122.921166 239.284364 
L 122.145248 241.728 
L 121.380845 244.171636 
L 120.622124 246.615273 
L 119.866655 249.058909 
L 119.115761 251.502545 
L 118.374237 253.946182 
L 117.649555 256.389818 
L 116.950748 258.833455 
L 116.287193 261.277091 
L 115.667488 263.720727 
L 115.098581 266.164364 
L 114.585229 268.608 
L 114.129782 271.051636 
L 113.732259 273.495273 
L 113.39061 275.938909 
L 113.101103 278.382545 
L 112.858741 280.826182 
L 112.657678 283.269818 
L 112.491613 285.713455 
L 112.354146 288.157091 
L 112.239116 290.600727 
L 112.140896 293.044364 
L 112.054644 295.488 
z
" clip-path="url(#p8a8ec0888d)" style="fill: #1f77b4; fill-opacity: 0.3"/>
   </g>
   <g id="PolyCollection_2">
    <path d="M 199.12705 272.706296 
L 190.072058 272.706296 
L 189.535398 270.531131 
L 188.985444 268.355966 
L 188.423866 266.180801 
L 187.851299 264.005636 
L 187.267565 261.83047 
L 186.671989 259.655305 
L 186.063728 257.48014 
L 185.442065 255.304975 
L 184.806601 253.12981 
L 184.157351 250.954645 
L 183.49473 248.77948 
L 182.819464 246.604315 
L 182.132448 244.42915 
L 181.434587 242.253985 
L 180.726623 240.078819 
L 180.008973 237.903654 
L 179.281576 235.728489 
L 178.543769 233.553324 
L 177.79422 231.378159 
L 177.030948 229.202994 
L 176.251477 227.027829 
L 175.453127 224.852664 
L 174.633442 222.677499 
L 173.790693 220.502333 
L 172.924366 218.327168 
L 172.035529 216.152003 
L 171.126969 213.976838 
L 170.203043 211.801673 
L 169.269241 209.626508 
L 168.331548 207.451343 
L 167.395724 205.276178 
L 166.466706 203.101013 
L 165.548277 200.925848 
L 164.643124 198.750682 
L 163.753314 196.575517 
L 162.881121 194.400352 
L 162.030027 192.225187 
L 161.205703 190.050022 
L 160.41673 187.874857 
L 159.674881 185.699692 
L 158.994882 183.524527 
L 158.393638 181.349362 
L 157.889065 179.174196 
L 157.498679 176.999031 
L 157.238178 174.823866 
L 157.120194 172.648701 
L 157.153358 170.473536 
L 157.341714 168.298371 
L 157.684476 166.123206 
L 158.176039 163.948041 
L 158.806156 161.772876 
L 159.56022 159.597711 
L 160.419641 157.422545 
L 161.362347 155.24738 
L 162.363492 153.072215 
L 163.396444 150.89705 
L 164.43409 148.721885 
L 165.450412 146.54672 
L 166.422214 144.371555 
L 167.330809 142.19639 
L 168.163444 140.021225 
L 168.914246 137.84606 
L 169.584542 135.670894 
L 170.182503 133.495729 
L 170.722164 131.320564 
L 171.221944 129.145399 
L 171.702889 126.970234 
L 172.186828 124.795069 
L 172.694667 122.619904 
L 173.244946 120.444739 
L 173.852768 118.269574 
L 174.529117 116.094408 
L 175.280546 113.919243 
L 176.109177 111.744078 
L 177.012949 109.568913 
L 177.986019 107.393748 
L 179.019273 105.218583 
L 180.100876 103.043418 
L 181.216842 100.868253 
L 182.351608 98.693088 
L 183.48861 96.517923 
L 184.610872 94.342757 
L 185.701625 92.167592 
L 186.744941 89.992427 
L 187.726394 87.817262 
L 188.633693 85.642097 
L 189.457262 83.466932 
L 190.190702 81.291767 
L 190.831087 79.116602 
L 191.379046 76.941437 
L 191.838599 74.766272 
L 192.216768 72.591106 
L 192.522957 70.415941 
L 192.76819 68.240776 
L 192.96425 66.065611 
L 193.122827 63.890446 
L 193.254739 61.715281 
L 193.369306 59.540116 
L 193.473927 57.364951 
L 195.725181 57.364951 
L 195.725181 57.364951 
L 195.829802 59.540116 
L 195.944369 61.715281 
L 196.076281 63.890446 
L 196.234858 66.065611 
L 196.430919 68.240776 
L 196.676151 70.415941 
L 196.98234 72.591106 
L 197.360509 74.766272 
L 197.820063 76.941437 
L 198.368021 79.116602 
L 199.008406 81.291767 
L 199.741846 83.466932 
L 200.565415 85.642097 
L 201.472714 87.817262 
L 202.454167 89.992427 
L 203.497484 92.167592 
L 204.588236 94.342757 
L 205.710498 96.517923 
L 206.8475 98.693088 
L 207.982266 100.868253 
L 209.098232 103.043418 
L 210.179835 105.218583 
L 211.213089 107.393748 
L 212.18616 109.568913 
L 213.089931 111.744078 
L 213.918563 113.919243 
L 214.669991 116.094408 
L 215.34634 118.269574 
L 215.954162 120.444739 
L 216.504441 122.619904 
L 217.01228 124.795069 
L 217.496219 126.970234 
L 217.977164 129.145399 
L 218.476945 131.320564 
L 219.016605 133.495729 
L 219.614567 135.670894 
L 220.284862 137.84606 
L 221.035664 140.021225 
L 221.8683 142.19639 
L 222.776895 144.371555 
L 223.748696 146.54672 
L 224.765018 148.721885 
L 225.802664 150.89705 
L 226.835616 153.072215 
L 227.836761 155.24738 
L 228.779467 157.422545 
L 229.638888 159.597711 
L 230.392953 161.772876 
L 231.023069 163.948041 
L 231.514632 166.123206 
L 231.857395 168.298371 
L 232.045751 170.473536 
L 232.078914 172.648701 
L 231.96093 174.823866 
L 231.700429 176.999031 
L 231.310043 179.174196 
L 230.80547 181.349362 
L 230.204226 183.524527 
L 229.524227 185.699692 
L 228.782378 187.874857 
L 227.993405 190.050022 
L 227.169082 192.225187 
L 226.317988 194.400352 
L 225.445794 196.575517 
L 224.555984 198.750682 
L 223.650831 200.925848 
L 222.732402 203.101013 
L 221.803385 205.276178 
L 220.867561 207.451343 
L 219.929867 209.626508 
L 218.996066 211.801673 
L 218.072139 213.976838 
L 217.163579 216.152003 
L 216.274742 218.327168 
L 215.408416 220.502333 
L 214.565667 222.677499 
L 213.745982 224.852664 
L 212.947631 227.027829 
L 212.16816 229.202994 
L 211.404888 231.378159 
L 210.655339 233.553324 
L 209.917532 235.728489 
L 209.190136 237.903654 
L 208.472486 240.078819 
L 207.764521 242.253985 
L 207.06666 244.42915 
L 206.379644 246.604315 
L 205.704378 248.77948 
L 205.041758 250.954645 
L 204.392507 253.12981 
L 203.757043 255.304975 
L 203.13538 257.48014 
L 202.527119 259.655305 
L 201.931543 261.83047 
L 201.347809 264.005636 
L 200.775242 266.180801 
L 200.213665 268.355966 
L 199.66371 270.531131 
L 199.12705 272.706296 
z
" clip-path="url(#p8a8ec0888d)" style="fill: #1f77b4; fill-opacity: 0.3"/>
   </g>
   <g id="PolyCollection_3">
    <path d="M 281.39529 271.621453 
L 274.378752 271.621453 
L 273.968975 269.54491 
L 273.547453 267.468367 
L 273.114888 265.391824 
L 272.670948 263.315281 
L 272.214279 261.238738 
L 271.742602 259.162195 
L 271.25285 257.085652 
L 270.741341 255.009109 
L 270.203972 252.932566 
L 269.636418 250.856023 
L 269.034349 248.77948 
L 268.393652 246.702937 
L 267.710666 244.626394 
L 266.982402 242.549851 
L 266.206745 240.473308 
L 265.38259 238.396765 
L 264.509914 236.320222 
L 263.589755 234.243679 
L 262.624102 232.167136 
L 261.615737 230.090593 
L 260.568043 228.01405 
L 259.484844 225.937507 
L 258.370306 223.860964 
L 257.228925 221.784421 
L 256.065624 219.707878 
L 254.885914 217.631335 
L 253.696107 215.554792 
L 252.503509 213.478249 
L 251.31656 211.401706 
L 250.14485 209.325163 
L 248.999008 207.24862 
L 247.890439 205.172077 
L 246.830923 203.095534 
L 245.832095 201.018991 
L 244.904861 198.942448 
L 244.058775 196.865905 
L 243.301449 194.789362 
L 242.638034 192.712819 
L 242.070844 190.636276 
L 241.599158 188.559733 
L 241.219268 186.48319 
L 240.924775 184.406647 
L 240.707149 182.330104 
L 240.556516 180.253561 
L 240.462597 178.177018 
L 240.415703 176.100475 
L 240.407661 174.023932 
L 240.432555 171.947389 
L 240.487173 169.870845 
L 240.571108 167.794302 
L 240.686499 165.717759 
L 240.83747 163.641216 
L 241.029356 161.564673 
L 241.267843 159.48813 
L 241.558166 157.411587 
L 241.904458 155.335044 
L 242.30935 153.258501 
L 242.773838 151.181958 
L 243.297404 149.105415 
L 243.878345 147.028872 
L 244.514209 144.952329 
L 245.202267 142.875786 
L 245.939916 140.799243 
L 246.724955 138.7227 
L 247.555681 136.646157 
L 248.430802 134.569614 
L 249.349169 132.493071 
L 250.30938 130.416528 
L 251.309317 128.339985 
L 252.345693 126.263442 
L 253.413698 124.186899 
L 254.506792 122.110356 
L 255.616715 120.033813 
L 256.73371 117.95727 
L 257.84695 115.880727 
L 258.945124 113.804184 
L 260.017092 111.727641 
L 261.052561 109.651098 
L 262.042676 107.574555 
L 262.980496 105.498012 
L 263.861321 103.421469 
L 264.682852 101.344926 
L 265.445211 99.268383 
L 266.150838 97.19184 
L 266.804281 95.115297 
L 267.411891 93.038754 
L 267.981431 90.962211 
L 268.521588 88.885668 
L 269.041415 86.809125 
L 269.549693 84.732582 
L 270.054279 82.656039 
L 270.561484 80.579496 
L 271.07555 78.502953 
L 271.598299 76.42641 
L 272.129004 74.349867 
L 272.664506 72.273324 
L 273.199577 70.196781 
L 273.727469 68.120238 
L 274.240601 66.043695 
L 281.533441 66.043695 
L 281.533441 66.043695 
L 282.046572 68.120238 
L 282.574465 70.196781 
L 283.109535 72.273324 
L 283.645038 74.349867 
L 284.175743 76.42641 
L 284.698491 78.502953 
L 285.212557 80.579496 
L 285.719762 82.656039 
L 286.224349 84.732582 
L 286.732627 86.809125 
L 287.252453 88.885668 
L 287.792611 90.962211 
L 288.36215 93.038754 
L 288.969761 95.115297 
L 289.623204 97.19184 
L 290.328831 99.268383 
L 291.09119 101.344926 
L 291.91272 103.421469 
L 292.793545 105.498012 
L 293.731366 107.574555 
L 294.72148 109.651098 
L 295.756949 111.727641 
L 296.828918 113.804184 
L 297.927091 115.880727 
L 299.040332 117.95727 
L 300.157326 120.033813 
L 301.267249 122.110356 
L 302.360344 124.186899 
L 303.428349 126.263442 
L 304.464725 128.339985 
L 305.464661 130.416528 
L 306.424872 132.493071 
L 307.34324 134.569614 
L 308.218361 136.646157 
L 309.049087 138.7227 
L 309.834125 140.799243 
L 310.571774 142.875786 
L 311.259833 144.952329 
L 311.895697 147.028872 
L 312.476638 149.105415 
L 313.000204 151.181958 
L 313.464691 153.258501 
L 313.869584 155.335044 
L 314.215876 157.411587 
L 314.506199 159.48813 
L 314.744686 161.564673 
L 314.936571 163.641216 
L 315.087543 165.717759 
L 315.202934 167.794302 
L 315.286869 169.870845 
L 315.341487 171.947389 
L 315.366381 174.023932 
L 315.358339 176.100475 
L 315.311444 178.177018 
L 315.217525 180.253561 
L 315.066893 182.330104 
L 314.849267 184.406647 
L 314.554774 186.48319 
L 314.174884 188.559733 
L 313.703198 190.636276 
L 313.136007 192.712819 
L 312.472593 194.789362 
L 311.715267 196.865905 
L 310.869181 198.942448 
L 309.941947 201.018991 
L 308.943119 203.095534 
L 307.883602 205.172077 
L 306.775034 207.24862 
L 305.629192 209.325163 
L 304.457482 211.401706 
L 303.270532 213.478249 
L 302.077935 215.554792 
L 300.888127 217.631335 
L 299.708417 219.707878 
L 298.545116 221.784421 
L 297.403736 223.860964 
L 296.289198 225.937507 
L 295.205999 228.01405 
L 294.158305 230.090593 
L 293.14994 232.167136 
L 292.184287 234.243679 
L 291.264127 236.320222 
L 290.391452 238.396765 
L 289.567297 240.473308 
L 288.79164 242.549851 
L 288.063376 244.626394 
L 287.38039 246.702937 
L 286.739693 248.77948 
L 286.137624 250.856023 
L 285.57007 252.932566 
L 285.032701 255.009109 
L 284.521192 257.085652 
L 284.031439 259.162195 
L 283.559762 261.238738 
L 283.103094 263.315281 
L 282.659153 265.391824 
L 282.226589 267.468367 
L 281.805067 269.54491 
L 281.39529 271.621453 
z
" clip-path="url(#p8a8ec0888d)" style="fill: #1f77b4; fill-opacity: 0.3"/>
   </g>
   <g id="PolyCollection_4">
    <path d="M 363.870341 294.403157 
L 358.145484 294.403157 
L 357.836832 292.189639 
L 357.525272 289.976121 
L 357.20981 287.762603 
L 356.88812 285.549084 
L 356.556928 283.335566 
L 356.212516 281.122048 
L 355.851264 278.90853 
L 355.470114 276.695012 
L 355.066881 274.481494 
L 354.640347 272.267976 
L 354.190165 270.054457 
L 353.716576 267.840939 
L 353.220058 265.627421 
L 352.700968 263.413903 
L 352.159275 261.200385 
L 351.59444 258.986867 
L 351.005451 256.773349 
L 350.390993 254.55983 
L 349.749701 252.346312 
L 349.08042 250.132794 
L 348.382412 247.919276 
L 347.65545 245.705758 
L 346.899794 243.49224 
L 346.11605 241.278722 
L 345.30496 239.065203 
L 344.467177 236.851685 
L 343.60308 234.638167 
L 342.712693 232.424649 
L 341.795741 230.211131 
L 340.851852 227.997613 
L 339.880914 225.784095 
L 338.883544 223.570576 
L 337.861638 221.357058 
L 336.818917 219.14354 
L 335.761407 216.930022 
L 334.697768 214.716504 
L 333.639367 212.502986 
L 332.600055 210.289468 
L 331.595573 208.075949 
L 330.642597 205.862431 
L 329.757464 203.648913 
L 328.954673 201.435395 
L 328.245337 199.221877 
L 327.635752 197.008359 
L 327.126327 194.794841 
L 326.711053 192.581322 
L 326.377686 190.367804 
L 326.108701 188.154286 
L 325.883006 185.940768 
L 325.678287 183.72725 
L 325.473717 181.513732 
L 325.252746 179.300214 
L 325.005586 177.086695 
L 324.731052 174.873177 
L 324.437483 172.659659 
L 324.142553 170.446141 
L 323.871943 168.232623 
L 323.656991 166.019105 
L 323.531567 163.805587 
L 323.528553 161.592068 
L 323.676342 159.37855 
L 323.995804 157.165032 
L 324.498098 154.951514 
L 325.183595 152.737996 
L 326.042058 150.524478 
L 327.054013 148.31096 
L 328.193117 146.097442 
L 329.429165 143.883923 
L 330.73131 141.670405 
L 332.071038 139.456887 
L 333.424508 137.243369 
L 334.773975 135.029851 
L 336.108175 132.816333 
L 337.42173 130.602815 
L 338.713775 128.389296 
L 339.986118 126.175778 
L 341.2413 123.96226 
L 342.480891 121.748742 
L 343.704277 119.535224 
L 344.908091 117.321706 
L 346.086307 115.108188 
L 347.230895 112.894669 
L 348.332864 110.681151 
L 349.383464 108.467633 
L 350.375325 106.254115 
L 351.303339 104.040597 
L 352.165174 101.827079 
L 352.961357 99.613561 
L 353.694966 97.400042 
L 354.371022 95.186524 
L 354.995686 92.973006 
L 355.575423 90.759488 
L 356.11625 88.54597 
L 356.623162 86.332452 
L 357.099794 84.118934 
L 357.548329 81.905415 
L 357.969618 79.691897 
L 358.363464 77.478379 
L 358.728992 75.264861 
L 363.286833 75.264861 
L 363.286833 75.264861 
L 363.652361 77.478379 
L 364.046207 79.691897 
L 364.467496 81.905415 
L 364.916031 84.118934 
L 365.392663 86.332452 
L 365.899575 88.54597 
L 366.440402 90.759488 
L 367.020139 92.973006 
L 367.644803 95.186524 
L 368.320859 97.400042 
L 369.054469 99.613561 
L 369.850651 101.827079 
L 370.712486 104.040597 
L 371.640501 106.254115 
L 372.632362 108.467633 
L 373.682962 110.681151 
L 374.78493 112.894669 
L 375.929518 115.108188 
L 377.107734 117.321706 
L 378.311549 119.535224 
L 379.534935 121.748742 
L 380.774526 123.96226 
L 382.029708 126.175778 
L 383.30205 128.389296 
L 384.594095 130.602815 
L 385.907651 132.816333 
L 387.241851 135.029851 
L 388.591317 137.243369 
L 389.944787 139.456887 
L 391.284515 141.670405 
L 392.58666 143.883923 
L 393.822708 146.097442 
L 394.961812 148.31096 
L 395.973767 150.524478 
L 396.83223 152.737996 
L 397.517728 154.951514 
L 398.020021 157.165032 
L 398.339484 159.37855 
L 398.487273 161.592068 
L 398.484259 163.805587 
L 398.358835 166.019105 
L 398.143882 168.232623 
L 397.873272 170.446141 
L 397.578342 172.659659 
L 397.284774 174.873177 
L 397.01024 177.086695 
L 396.763079 179.300214 
L 396.542109 181.513732 
L 396.337539 183.72725 
L 396.132819 185.940768 
L 395.907125 188.154286 
L 395.638139 190.367804 
L 395.304772 192.581322 
L 394.889499 194.794841 
L 394.380073 197.008359 
L 393.770488 199.221877 
L 393.061152 201.435395 
L 392.258362 203.648913 
L 391.373228 205.862431 
L 390.420252 208.075949 
L 389.41577 210.289468 
L 388.376459 212.502986 
L 387.318058 214.716504 
L 386.254418 216.930022 
L 385.196909 219.14354 
L 384.154187 221.357058 
L 383.132281 223.570576 
L 382.134912 225.784095 
L 381.163973 227.997613 
L 380.220084 230.211131 
L 379.303132 232.424649 
L 378.412746 234.638167 
L 377.548649 236.851685 
L 376.710865 239.065203 
L 375.899776 241.278722 
L 375.116032 243.49224 
L 374.360376 245.705758 
L 373.633414 247.919276 
L 372.935405 250.132794 
L 372.266125 252.346312 
L 371.624832 254.55983 
L 371.010374 256.773349 
L 370.421385 258.986867 
L 369.856551 261.200385 
L 369.314858 263.413903 
L 368.795767 265.627421 
L 368.299249 267.840939 
L 367.82566 270.054457 
L 367.375478 272.267976 
L 366.948945 274.481494 
L 366.545711 276.695012 
L 366.164561 278.90853 
L 365.803309 281.122048 
L 365.458897 283.335566 
L 365.127705 285.549084 
L 364.806016 287.762603 
L 364.490554 289.976121 
L 364.178994 292.189639 
L 363.870341 294.403157 
z
" clip-path="url(#p8a8ec0888d)" style="fill: #1f77b4; fill-opacity: 0.3"/>
   </g>
   <g id="matplotlib.axis_1">
    <g id="xtick_1">
     <g id="line2d_1">
      <defs>
       <path id="mebe37cfe4f" d="M 0 0 
L 0 3.5 
" style="stroke: #000000; stroke-width: 0.8"/>
      </defs>
      <g>
       <use xlink:href="#mebe37cfe4f" x="69.668354" y="307.584" style="stroke: #000000; stroke-width: 0.8"/>
      </g>
     </g>
     <g id="text_1">
      <!-- 250 -->
      <g transform="translate(60.124604 322.182437)scale(0.1 -0.1)">
       <defs>
        <path id="DejaVuSans-32" d="M 1228 531 
L 3431 531 
L 3431 0 
L 469 0 
L 469 531 
Q 828 903 1448 1529 
Q 2069 2156 2228 2338 
Q 2531 2678 2651 2914 
Q 2772 3150 2772 3378 
Q 2772 3750 2511 3984 
Q 2250 4219 1831 4219 
Q 1534 4219 1204 4116 
Q 875 4013 500 3803 
L 500 4441 
Q 881 4594 1212 4672 
Q 1544 4750 1819 4750 
Q 2544 4750 2975 4387 
Q 3406 4025 3406 3419 
Q 3406 3131 3298 2873 
Q 3191 2616 2906 2266 
Q 2828 2175 2409 1742 
Q 1991 1309 1228 531 
z
" transform="scale(0.015625)"/>
        <path id="DejaVuSans-35" d="M 691 4666 
L 3169 4666 
L 3169 4134 
L 1269 4134 
L 1269 2991 
Q 1406 3038 1543 3061 
Q 1681 3084 1819 3084 
Q 2600 3084 3056 2656 
Q 3513 2228 3513 1497 
Q 3513 744 3044 326 
Q 2575 -91 1722 -91 
Q 1428 -91 1123 -41 
Q 819 9 494 109 
L 494 744 
Q 775 591 1075 516 
Q 1375 441 1709 441 
Q 2250 441 2565 725 
Q 2881 1009 2881 1497 
Q 2881 1984 2565 2268 
Q 2250 2553 1709 2553 
Q 1456 2553 1204 2497 
Q 953 2441 691 2322 
L 691 4666 
z
" transform="scale(0.015625)"/>
        <path id="DejaVuSans-30" d="M 2034 4250 
Q 1547 4250 1301 3770 
Q 1056 3291 1056 2328 
Q 1056 1369 1301 889 
Q 1547 409 2034 409 
Q 2525 409 2770 889 
Q 3016 1369 3016 2328 
Q 3016 3291 2770 3770 
Q 2525 4250 2034 4250 
z
M 2034 4750 
Q 2819 4750 3233 4129 
Q 3647 3509 3647 2328 
Q 3647 1150 3233 529 
Q 2819 -91 2034 -91 
Q 1250 -91 836 529 
Q 422 1150 422 2328 
Q 422 3509 836 4129 
Q 1250 4750 2034 4750 
z
" transform="scale(0.015625)"/>
       </defs>
       <use xlink:href="#DejaVuSans-32"/>
       <use xlink:href="#DejaVuSans-35" x="63.623047"/>
       <use xlink:href="#DejaVuSans-30" x="127.246094"/>
      </g>
     </g>
    </g>
    <g id="xtick_2">
     <g id="line2d_2">
      <g>
       <use xlink:href="#mebe37cfe4f" x="111.312087" y="307.584" style="stroke: #000000; stroke-width: 0.8"/>
      </g>
     </g>
     <g id="text_2">
      <!-- 500 -->
      <g transform="translate(101.768337 322.182437)scale(0.1 -0.1)">
       <use xlink:href="#DejaVuSans-35"/>
       <use xlink:href="#DejaVuSans-30" x="63.623047"/>
       <use xlink:href="#DejaVuSans-30" x="127.246094"/>
      </g>
     </g>
    </g>
    <g id="xtick_3">
     <g id="line2d_3">
      <g>
       <use xlink:href="#mebe37cfe4f" x="152.955821" y="307.584" style="stroke: #000000; stroke-width: 0.8"/>
      </g>
     </g>
     <g id="text_3">
      <!-- 750 -->
      <g transform="translate(143.412071 322.182437)scale(0.1 -0.1)">
       <defs>
        <path id="DejaVuSans-37" d="M 525 4666 
L 3525 4666 
L 3525 4397 
L 1831 0 
L 1172 0 
L 2766 4134 
L 525 4134 
L 525 4666 
z
" transform="scale(0.015625)"/>
       </defs>
       <use xlink:href="#DejaVuSans-37"/>
       <use xlink:href="#DejaVuSans-35" x="63.623047"/>
       <use xlink:href="#DejaVuSans-30" x="127.246094"/>
      </g>
     </g>
    </g>
    <g id="xtick_4">
     <g id="line2d_4">
      <g>
       <use xlink:href="#mebe37cfe4f" x="194.599554" y="307.584" style="stroke: #000000; stroke-width: 0.8"/>
      </g>
     </g>
     <g id="text_4">
      <!-- 1000 -->
      <g transform="translate(181.874554 322.182437)scale(0.1 -0.1)">
       <defs>
        <path id="DejaVuSans-31" d="M 794 531 
L 1825 531 
L 1825 4091 
L 703 3866 
L 703 4441 
L 1819 4666 
L 2450 4666 
L 2450 531 
L 3481 531 
L 3481 0 
L 794 0 
L 794 531 
z
" transform="scale(0.015625)"/>
       </defs>
       <use xlink:href="#DejaVuSans-31"/>
       <use xlink:href="#DejaVuSans-30" x="63.623047"/>
       <use xlink:href="#DejaVuSans-30" x="127.246094"/>
       <use xlink:href="#DejaVuSans-30" x="190.869141"/>
      </g>
     </g>
    </g>
    <g id="xtick_5">
     <g id="line2d_5">
      <g>
       <use xlink:href="#mebe37cfe4f" x="236.243287" y="307.584" style="stroke: #000000; stroke-width: 0.8"/>
      </g>
     </g>
     <g id="text_5">
      <!-- 1250 -->
      <g transform="translate(223.518287 322.182437)scale(0.1 -0.1)">
       <use xlink:href="#DejaVuSans-31"/>
       <use xlink:href="#DejaVuSans-32" x="63.623047"/>
       <use xlink:href="#DejaVuSans-35" x="127.246094"/>
       <use xlink:href="#DejaVuSans-30" x="190.869141"/>
      </g>
     </g>
    </g>
    <g id="xtick_6">
     <g id="line2d_6">
      <g>
       <use xlink:href="#mebe37cfe4f" x="277.887021" y="307.584" style="stroke: #000000; stroke-width: 0.8"/>
      </g>
     </g>
     <g id="text_6">
      <!-- 1500 -->
      <g transform="translate(265.162021 322.182437)scale(0.1 -0.1)">
       <use xlink:href="#DejaVuSans-31"/>
       <use xlink:href="#DejaVuSans-35" x="63.623047"/>
       <use xlink:href="#DejaVuSans-30" x="127.246094"/>
       <use xlink:href="#DejaVuSans-30" x="190.869141"/>
      </g>
     </g>
    </g>
    <g id="xtick_7">
     <g id="line2d_7">
      <g>
       <use xlink:href="#mebe37cfe4f" x="319.530754" y="307.584" style="stroke: #000000; stroke-width: 0.8"/>
      </g>
     </g>
     <g id="text_7">
      <!-- 1750 -->
      <g transform="translate(306.805754 322.182437)scale(0.1 -0.1)">
       <use xlink:href="#DejaVuSans-31"/>
       <use xlink:href="#DejaVuSans-37" x="63.623047"/>
       <use xlink:href="#DejaVuSans-35" x="127.246094"/>
       <use xlink:href="#DejaVuSans-30" x="190.869141"/>
      </g>
     </g>
    </g>
    <g id="xtick_8">
     <g id="line2d_8">
      <g>
       <use xlink:href="#mebe37cfe4f" x="361.174488" y="307.584" style="stroke: #000000; stroke-width: 0.8"/>
      </g>
     </g>
     <g id="text_8">
      <!-- 2000 -->
      <g transform="translate(348.449488 322.182437)scale(0.1 -0.1)">
       <use xlink:href="#DejaVuSans-32"/>
       <use xlink:href="#DejaVuSans-30" x="63.623047"/>
       <use xlink:href="#DejaVuSans-30" x="127.246094"/>
       <use xlink:href="#DejaVuSans-30" x="190.869141"/>
      </g>
     </g>
    </g>
    <g id="xtick_9">
     <g id="line2d_9">
      <g>
       <use xlink:href="#mebe37cfe4f" x="402.818221" y="307.584" style="stroke: #000000; stroke-width: 0.8"/>
      </g>
     </g>
     <g id="text_9">
      <!-- 2250 -->
      <g transform="translate(390.093221 322.182437)scale(0.1 -0.1)">
       <use xlink:href="#DejaVuSans-32"/>
       <use xlink:href="#DejaVuSans-32" x="63.623047"/>
       <use xlink:href="#DejaVuSans-35" x="127.246094"/>
       <use xlink:href="#DejaVuSans-30" x="190.869141"/>
      </g>
     </g>
    </g>
    <g id="text_10">
     <!-- Learned Episodes -->
     <g transform="translate(192.102187 335.860562)scale(0.1 -0.1)">
      <defs>
       <path id="DejaVuSans-4c" d="M 628 4666 
L 1259 4666 
L 1259 531 
L 3531 531 
L 3531 0 
L 628 0 
L 628 4666 
z
" transform="scale(0.015625)"/>
       <path id="DejaVuSans-65" d="M 3597 1894 
L 3597 1613 
L 953 1613 
Q 991 1019 1311 708 
Q 1631 397 2203 397 
Q 2534 397 2845 478 
Q 3156 559 3463 722 
L 3463 178 
Q 3153 47 2828 -22 
Q 2503 -91 2169 -91 
Q 1331 -91 842 396 
Q 353 884 353 1716 
Q 353 2575 817 3079 
Q 1281 3584 2069 3584 
Q 2775 3584 3186 3129 
Q 3597 2675 3597 1894 
z
M 3022 2063 
Q 3016 2534 2758 2815 
Q 2500 3097 2075 3097 
Q 1594 3097 1305 2825 
Q 1016 2553 972 2059 
L 3022 2063 
z
" transform="scale(0.015625)"/>
       <path id="DejaVuSans-61" d="M 2194 1759 
Q 1497 1759 1228 1600 
Q 959 1441 959 1056 
Q 959 750 1161 570 
Q 1363 391 1709 391 
Q 2188 391 2477 730 
Q 2766 1069 2766 1631 
L 2766 1759 
L 2194 1759 
z
M 3341 1997 
L 3341 0 
L 2766 0 
L 2766 531 
Q 2569 213 2275 61 
Q 1981 -91 1556 -91 
Q 1019 -91 701 211 
Q 384 513 384 1019 
Q 384 1609 779 1909 
Q 1175 2209 1959 2209 
L 2766 2209 
L 2766 2266 
Q 2766 2663 2505 2880 
Q 2244 3097 1772 3097 
Q 1472 3097 1187 3025 
Q 903 2953 641 2809 
L 641 3341 
Q 956 3463 1253 3523 
Q 1550 3584 1831 3584 
Q 2591 3584 2966 3190 
Q 3341 2797 3341 1997 
z
" transform="scale(0.015625)"/>
       <path id="DejaVuSans-72" d="M 2631 2963 
Q 2534 3019 2420 3045 
Q 2306 3072 2169 3072 
Q 1681 3072 1420 2755 
Q 1159 2438 1159 1844 
L 1159 0 
L 581 0 
L 581 3500 
L 1159 3500 
L 1159 2956 
Q 1341 3275 1631 3429 
Q 1922 3584 2338 3584 
Q 2397 3584 2469 3576 
Q 2541 3569 2628 3553 
L 2631 2963 
z
" transform="scale(0.015625)"/>
       <path id="DejaVuSans-6e" d="M 3513 2113 
L 3513 0 
L 2938 0 
L 2938 2094 
Q 2938 2591 2744 2837 
Q 2550 3084 2163 3084 
Q 1697 3084 1428 2787 
Q 1159 2491 1159 1978 
L 1159 0 
L 581 0 
L 581 3500 
L 1159 3500 
L 1159 2956 
Q 1366 3272 1645 3428 
Q 1925 3584 2291 3584 
Q 2894 3584 3203 3211 
Q 3513 2838 3513 2113 
z
" transform="scale(0.015625)"/>
       <path id="DejaVuSans-64" d="M 2906 2969 
L 2906 4863 
L 3481 4863 
L 3481 0 
L 2906 0 
L 2906 525 
Q 2725 213 2448 61 
Q 2172 -91 1784 -91 
Q 1150 -91 751 415 
Q 353 922 353 1747 
Q 353 2572 751 3078 
Q 1150 3584 1784 3584 
Q 2172 3584 2448 3432 
Q 2725 3281 2906 2969 
z
M 947 1747 
Q 947 1113 1208 752 
Q 1469 391 1925 391 
Q 2381 391 2643 752 
Q 2906 1113 2906 1747 
Q 2906 2381 2643 2742 
Q 2381 3103 1925 3103 
Q 1469 3103 1208 2742 
Q 947 2381 947 1747 
z
" transform="scale(0.015625)"/>
       <path id="DejaVuSans-20" transform="scale(0.015625)"/>
       <path id="DejaVuSans-45" d="M 628 4666 
L 3578 4666 
L 3578 4134 
L 1259 4134 
L 1259 2753 
L 3481 2753 
L 3481 2222 
L 1259 2222 
L 1259 531 
L 3634 531 
L 3634 0 
L 628 0 
L 628 4666 
z
" transform="scale(0.015625)"/>
       <path id="DejaVuSans-70" d="M 1159 525 
L 1159 -1331 
L 581 -1331 
L 581 3500 
L 1159 3500 
L 1159 2969 
Q 1341 3281 1617 3432 
Q 1894 3584 2278 3584 
Q 2916 3584 3314 3078 
Q 3713 2572 3713 1747 
Q 3713 922 3314 415 
Q 2916 -91 2278 -91 
Q 1894 -91 1617 61 
Q 1341 213 1159 525 
z
M 3116 1747 
Q 3116 2381 2855 2742 
Q 2594 3103 2138 3103 
Q 1681 3103 1420 2742 
Q 1159 2381 1159 1747 
Q 1159 1113 1420 752 
Q 1681 391 2138 391 
Q 2594 391 2855 752 
Q 3116 1113 3116 1747 
z
" transform="scale(0.015625)"/>
       <path id="DejaVuSans-69" d="M 603 3500 
L 1178 3500 
L 1178 0 
L 603 0 
L 603 3500 
z
M 603 4863 
L 1178 4863 
L 1178 4134 
L 603 4134 
L 603 4863 
z
" transform="scale(0.015625)"/>
       <path id="DejaVuSans-73" d="M 2834 3397 
L 2834 2853 
Q 2591 2978 2328 3040 
Q 2066 3103 1784 3103 
Q 1356 3103 1142 2972 
Q 928 2841 928 2578 
Q 928 2378 1081 2264 
Q 1234 2150 1697 2047 
L 1894 2003 
Q 2506 1872 2764 1633 
Q 3022 1394 3022 966 
Q 3022 478 2636 193 
Q 2250 -91 1575 -91 
Q 1294 -91 989 -36 
Q 684 19 347 128 
L 347 722 
Q 666 556 975 473 
Q 1284 391 1588 391 
Q 1994 391 2212 530 
Q 2431 669 2431 922 
Q 2431 1156 2273 1281 
Q 2116 1406 1581 1522 
L 1381 1569 
Q 847 1681 609 1914 
Q 372 2147 372 2553 
Q 372 3047 722 3315 
Q 1072 3584 1716 3584 
Q 2034 3584 2315 3537 
Q 2597 3491 2834 3397 
z
" transform="scale(0.015625)"/>
       <path id="DejaVuSans-6f" d="M 1959 3097 
Q 1497 3097 1228 2736 
Q 959 2375 959 1747 
Q 959 1119 1226 758 
Q 1494 397 1959 397 
Q 2419 397 2687 759 
Q 2956 1122 2956 1747 
Q 2956 2369 2687 2733 
Q 2419 3097 1959 3097 
z
M 1959 3584 
Q 2709 3584 3137 3096 
Q 3566 2609 3566 1747 
Q 3566 888 3137 398 
Q 2709 -91 1959 -91 
Q 1206 -91 779 398 
Q 353 888 353 1747 
Q 353 2609 779 3096 
Q 1206 3584 1959 3584 
z
" transform="scale(0.015625)"/>
      </defs>
      <use xlink:href="#DejaVuSans-4c"/>
      <use xlink:href="#DejaVuSans-65" x="53.962891"/>
      <use xlink:href="#DejaVuSans-61" x="115.486328"/>
      <use xlink:href="#DejaVuSans-72" x="176.765625"/>
      <use xlink:href="#DejaVuSans-6e" x="216.128906"/>
      <use xlink:href="#DejaVuSans-65" x="279.507812"/>
      <use xlink:href="#DejaVuSans-64" x="341.03125"/>
      <use xlink:href="#DejaVuSans-20" x="404.507812"/>
      <use xlink:href="#DejaVuSans-45" x="436.294922"/>
      <use xlink:href="#DejaVuSans-70" x="499.478516"/>
      <use xlink:href="#DejaVuSans-69" x="562.955078"/>
      <use xlink:href="#DejaVuSans-73" x="590.738281"/>
      <use xlink:href="#DejaVuSans-6f" x="642.837891"/>
      <use xlink:href="#DejaVuSans-64" x="704.019531"/>
      <use xlink:href="#DejaVuSans-65" x="767.496094"/>
      <use xlink:href="#DejaVuSans-73" x="829.019531"/>
     </g>
    </g>
   </g>
   <g id="matplotlib.axis_2">
    <g id="ytick_1">
     <g id="line2d_10">
      <defs>
       <path id="m450502053d" d="M 0 0 
L -3.5 0 
" style="stroke: #000000; stroke-width: 0.8"/>
      </defs>
      <g>
       <use xlink:href="#m450502053d" x="57.6" y="268.909345" style="stroke: #000000; stroke-width: 0.8"/>
      </g>
     </g>
     <g id="text_11">
      <!-- 400 -->
      <g transform="translate(31.5125 272.708564)scale(0.1 -0.1)">
       <defs>
        <path id="DejaVuSans-34" d="M 2419 4116 
L 825 1625 
L 2419 1625 
L 2419 4116 
z
M 2253 4666 
L 3047 4666 
L 3047 1625 
L 3713 1625 
L 3713 1100 
L 3047 1100 
L 3047 0 
L 2419 0 
L 2419 1100 
L 313 1100 
L 313 1709 
L 2253 4666 
z
" transform="scale(0.015625)"/>
       </defs>
       <use xlink:href="#DejaVuSans-34"/>
       <use xlink:href="#DejaVuSans-30" x="63.623047"/>
       <use xlink:href="#DejaVuSans-30" x="127.246094"/>
      </g>
     </g>
    </g>
    <g id="ytick_2">
     <g id="line2d_11">
      <g>
       <use xlink:href="#m450502053d" x="57.6" y="214.667193" style="stroke: #000000; stroke-width: 0.8"/>
      </g>
     </g>
     <g id="text_12">
      <!-- 500 -->
      <g transform="translate(31.5125 218.466412)scale(0.1 -0.1)">
       <use xlink:href="#DejaVuSans-35"/>
       <use xlink:href="#DejaVuSans-30" x="63.623047"/>
       <use xlink:href="#DejaVuSans-30" x="127.246094"/>
      </g>
     </g>
    </g>
    <g id="ytick_3">
     <g id="line2d_12">
      <g>
       <use xlink:href="#m450502053d" x="57.6" y="160.42504" style="stroke: #000000; stroke-width: 0.8"/>
      </g>
     </g>
     <g id="text_13">
      <!-- 600 -->
      <g transform="translate(31.5125 164.224259)scale(0.1 -0.1)">
       <defs>
        <path id="DejaVuSans-36" d="M 2113 2584 
Q 1688 2584 1439 2293 
Q 1191 2003 1191 1497 
Q 1191 994 1439 701 
Q 1688 409 2113 409 
Q 2538 409 2786 701 
Q 3034 994 3034 1497 
Q 3034 2003 2786 2293 
Q 2538 2584 2113 2584 
z
M 3366 4563 
L 3366 3988 
Q 3128 4100 2886 4159 
Q 2644 4219 2406 4219 
Q 1781 4219 1451 3797 
Q 1122 3375 1075 2522 
Q 1259 2794 1537 2939 
Q 1816 3084 2150 3084 
Q 2853 3084 3261 2657 
Q 3669 2231 3669 1497 
Q 3669 778 3244 343 
Q 2819 -91 2113 -91 
Q 1303 -91 875 529 
Q 447 1150 447 2328 
Q 447 3434 972 4092 
Q 1497 4750 2381 4750 
Q 2619 4750 2861 4703 
Q 3103 4656 3366 4563 
z
" transform="scale(0.015625)"/>
       </defs>
       <use xlink:href="#DejaVuSans-36"/>
       <use xlink:href="#DejaVuSans-30" x="63.623047"/>
       <use xlink:href="#DejaVuSans-30" x="127.246094"/>
      </g>
     </g>
    </g>
    <g id="ytick_4">
     <g id="line2d_13">
      <g>
       <use xlink:href="#m450502053d" x="57.6" y="106.182888" style="stroke: #000000; stroke-width: 0.8"/>
      </g>
     </g>
     <g id="text_14">
      <!-- 700 -->
      <g transform="translate(31.5125 109.982107)scale(0.1 -0.1)">
       <use xlink:href="#DejaVuSans-37"/>
       <use xlink:href="#DejaVuSans-30" x="63.623047"/>
       <use xlink:href="#DejaVuSans-30" x="127.246094"/>
      </g>
     </g>
    </g>
    <g id="ytick_5">
     <g id="line2d_14">
      <g>
       <use xlink:href="#m450502053d" x="57.6" y="51.940735" style="stroke: #000000; stroke-width: 0.8"/>
      </g>
     </g>
     <g id="text_15">
      <!-- 800 -->
      <g transform="translate(31.5125 55.739954)scale(0.1 -0.1)">
       <defs>
        <path id="DejaVuSans-38" d="M 2034 2216 
Q 1584 2216 1326 1975 
Q 1069 1734 1069 1313 
Q 1069 891 1326 650 
Q 1584 409 2034 409 
Q 2484 409 2743 651 
Q 3003 894 3003 1313 
Q 3003 1734 2745 1975 
Q 2488 2216 2034 2216 
z
M 1403 2484 
Q 997 2584 770 2862 
Q 544 3141 544 3541 
Q 544 4100 942 4425 
Q 1341 4750 2034 4750 
Q 2731 4750 3128 4425 
Q 3525 4100 3525 3541 
Q 3525 3141 3298 2862 
Q 3072 2584 2669 2484 
Q 3125 2378 3379 2068 
Q 3634 1759 3634 1313 
Q 3634 634 3220 271 
Q 2806 -91 2034 -91 
Q 1263 -91 848 271 
Q 434 634 434 1313 
Q 434 1759 690 2068 
Q 947 2378 1403 2484 
z
M 1172 3481 
Q 1172 3119 1398 2916 
Q 1625 2713 2034 2713 
Q 2441 2713 2670 2916 
Q 2900 3119 2900 3481 
Q 2900 3844 2670 4047 
Q 2441 4250 2034 4250 
Q 1625 4250 1398 4047 
Q 1172 3844 1172 3481 
z
" transform="scale(0.015625)"/>
       </defs>
       <use xlink:href="#DejaVuSans-38"/>
       <use xlink:href="#DejaVuSans-30" x="63.623047"/>
       <use xlink:href="#DejaVuSans-30" x="127.246094"/>
      </g>
     </g>
    </g>
    <g id="text_16">
     <!-- Reward Density -->
     <g transform="translate(25.432812 213.74675)rotate(-90)scale(0.1 -0.1)">
      <defs>
       <path id="DejaVuSans-52" d="M 2841 2188 
Q 3044 2119 3236 1894 
Q 3428 1669 3622 1275 
L 4263 0 
L 3584 0 
L 2988 1197 
Q 2756 1666 2539 1819 
Q 2322 1972 1947 1972 
L 1259 1972 
L 1259 0 
L 628 0 
L 628 4666 
L 2053 4666 
Q 2853 4666 3247 4331 
Q 3641 3997 3641 3322 
Q 3641 2881 3436 2590 
Q 3231 2300 2841 2188 
z
M 1259 4147 
L 1259 2491 
L 2053 2491 
Q 2509 2491 2742 2702 
Q 2975 2913 2975 3322 
Q 2975 3731 2742 3939 
Q 2509 4147 2053 4147 
L 1259 4147 
z
" transform="scale(0.015625)"/>
       <path id="DejaVuSans-77" d="M 269 3500 
L 844 3500 
L 1563 769 
L 2278 3500 
L 2956 3500 
L 3675 769 
L 4391 3500 
L 4966 3500 
L 4050 0 
L 3372 0 
L 2619 2869 
L 1863 0 
L 1184 0 
L 269 3500 
z
" transform="scale(0.015625)"/>
       <path id="DejaVuSans-44" d="M 1259 4147 
L 1259 519 
L 2022 519 
Q 2988 519 3436 956 
Q 3884 1394 3884 2338 
Q 3884 3275 3436 3711 
Q 2988 4147 2022 4147 
L 1259 4147 
z
M 628 4666 
L 1925 4666 
Q 3281 4666 3915 4102 
Q 4550 3538 4550 2338 
Q 4550 1131 3912 565 
Q 3275 0 1925 0 
L 628 0 
L 628 4666 
z
" transform="scale(0.015625)"/>
       <path id="DejaVuSans-74" d="M 1172 4494 
L 1172 3500 
L 2356 3500 
L 2356 3053 
L 1172 3053 
L 1172 1153 
Q 1172 725 1289 603 
Q 1406 481 1766 481 
L 2356 481 
L 2356 0 
L 1766 0 
Q 1100 0 847 248 
Q 594 497 594 1153 
L 594 3053 
L 172 3053 
L 172 3500 
L 594 3500 
L 594 4494 
L 1172 4494 
z
" transform="scale(0.015625)"/>
       <path id="DejaVuSans-79" d="M 2059 -325 
Q 1816 -950 1584 -1140 
Q 1353 -1331 966 -1331 
L 506 -1331 
L 506 -850 
L 844 -850 
Q 1081 -850 1212 -737 
Q 1344 -625 1503 -206 
L 1606 56 
L 191 3500 
L 800 3500 
L 1894 763 
L 2988 3500 
L 3597 3500 
L 2059 -325 
z
" transform="scale(0.015625)"/>
      </defs>
      <use xlink:href="#DejaVuSans-52"/>
      <use xlink:href="#DejaVuSans-65" x="64.982422"/>
      <use xlink:href="#DejaVuSans-77" x="126.505859"/>
      <use xlink:href="#DejaVuSans-61" x="208.292969"/>
      <use xlink:href="#DejaVuSans-72" x="269.572266"/>
      <use xlink:href="#DejaVuSans-64" x="308.935547"/>
      <use xlink:href="#DejaVuSans-20" x="372.412109"/>
      <use xlink:href="#DejaVuSans-44" x="404.199219"/>
      <use xlink:href="#DejaVuSans-65" x="481.201172"/>
      <use xlink:href="#DejaVuSans-6e" x="542.724609"/>
      <use xlink:href="#DejaVuSans-73" x="606.103516"/>
      <use xlink:href="#DejaVuSans-69" x="658.203125"/>
      <use xlink:href="#DejaVuSans-74" x="685.986328"/>
      <use xlink:href="#DejaVuSans-79" x="725.195312"/>
     </g>
    </g>
   </g>
   <g id="LineCollection_1">
    <path d="M 92.572407 160.993498 
L 130.051767 160.993498 
" clip-path="url(#p8a8ec0888d)" style="fill: none; stroke: #1f77b4; stroke-width: 1.5"/>
    <path d="M 175.859874 173.156758 
L 213.339234 173.156758 
" clip-path="url(#p8a8ec0888d)" style="fill: none; stroke: #1f77b4; stroke-width: 1.5"/>
    <path d="M 259.147341 169.116803 
L 296.626701 169.116803 
" clip-path="url(#p8a8ec0888d)" style="fill: none; stroke: #1f77b4; stroke-width: 1.5"/>
    <path d="M 342.268233 180.169184 
L 379.747593 180.169184 
" clip-path="url(#p8a8ec0888d)" style="fill: none; stroke: #1f77b4; stroke-width: 1.5"/>
   </g>
   <g id="LineCollection_2">
    <path d="M 92.572407 53.568 
L 130.051767 53.568 
" clip-path="url(#p8a8ec0888d)" style="fill: none; stroke: #1f77b4; stroke-width: 1.5"/>
    <path d="M 175.859874 57.364951 
L 213.339234 57.364951 
" clip-path="url(#p8a8ec0888d)" style="fill: none; stroke: #1f77b4; stroke-width: 1.5"/>
    <path d="M 259.147341 66.043695 
L 296.626701 66.043695 
" clip-path="url(#p8a8ec0888d)" style="fill: none; stroke: #1f77b4; stroke-width: 1.5"/>
    <path d="M 342.268233 75.264861 
L 379.747593 75.264861 
" clip-path="url(#p8a8ec0888d)" style="fill: none; stroke: #1f77b4; stroke-width: 1.5"/>
   </g>
   <g id="LineCollection_3">
    <path d="M 92.572407 295.488 
L 130.051767 295.488 
" clip-path="url(#p8a8ec0888d)" style="fill: none; stroke: #1f77b4; stroke-width: 1.5"/>
    <path d="M 175.859874 272.706296 
L 213.339234 272.706296 
" clip-path="url(#p8a8ec0888d)" style="fill: none; stroke: #1f77b4; stroke-width: 1.5"/>
    <path d="M 259.147341 271.621453 
L 296.626701 271.621453 
" clip-path="url(#p8a8ec0888d)" style="fill: none; stroke: #1f77b4; stroke-width: 1.5"/>
    <path d="M 342.268233 294.403157 
L 379.747593 294.403157 
" clip-path="url(#p8a8ec0888d)" style="fill: none; stroke: #1f77b4; stroke-width: 1.5"/>
   </g>
   <g id="LineCollection_4">
    <path d="M 111.312087 295.488 
L 111.312087 53.568 
" clip-path="url(#p8a8ec0888d)" style="fill: none; stroke: #1f77b4; stroke-width: 1.5"/>
    <path d="M 194.599554 272.706296 
L 194.599554 57.364951 
" clip-path="url(#p8a8ec0888d)" style="fill: none; stroke: #1f77b4; stroke-width: 1.5"/>
    <path d="M 277.887021 271.621453 
L 277.887021 66.043695 
" clip-path="url(#p8a8ec0888d)" style="fill: none; stroke: #1f77b4; stroke-width: 1.5"/>
    <path d="M 361.007913 294.403157 
L 361.007913 75.264861 
" clip-path="url(#p8a8ec0888d)" style="fill: none; stroke: #1f77b4; stroke-width: 1.5"/>
   </g>
   <g id="line2d_15">
    <path d="M 111.312087 160.993498 
L 194.599554 173.156758 
L 277.887021 169.116803 
L 361.007913 180.169184 
" clip-path="url(#p8a8ec0888d)" style="fill: none; stroke: #4682b4; stroke-width: 1.5; stroke-linecap: square"/>
   </g>
   <g id="patch_3">
    <path d="M 57.6 307.584 
L 57.6 41.472 
" style="fill: none; stroke: #000000; stroke-width: 0.8; stroke-linejoin: miter; stroke-linecap: square"/>
   </g>
   <g id="patch_4">
    <path d="M 414.72 307.584 
L 414.72 41.472 
" style="fill: none; stroke: #000000; stroke-width: 0.8; stroke-linejoin: miter; stroke-linecap: square"/>
   </g>
   <g id="patch_5">
    <path d="M 57.6 307.584 
L 414.72 307.584 
" style="fill: none; stroke: #000000; stroke-width: 0.8; stroke-linejoin: miter; stroke-linecap: square"/>
   </g>
   <g id="patch_6">
    <path d="M 57.6 41.472 
L 414.72 41.472 
" style="fill: none; stroke: #000000; stroke-width: 0.8; stroke-linejoin: miter; stroke-linecap: square"/>
   </g>
   <g id="text_17">
    <!-- Violinplot for progress of profits/by_selling_new -->
    <g transform="translate(94.379063 35.472)scale(0.12 -0.12)">
     <defs>
      <path id="DejaVuSans-56" d="M 1831 0 
L 50 4666 
L 709 4666 
L 2188 738 
L 3669 4666 
L 4325 4666 
L 2547 0 
L 1831 0 
z
" transform="scale(0.015625)"/>
      <path id="DejaVuSans-6c" d="M 603 4863 
L 1178 4863 
L 1178 0 
L 603 0 
L 603 4863 
z
" transform="scale(0.015625)"/>
      <path id="DejaVuSans-66" d="M 2375 4863 
L 2375 4384 
L 1825 4384 
Q 1516 4384 1395 4259 
Q 1275 4134 1275 3809 
L 1275 3500 
L 2222 3500 
L 2222 3053 
L 1275 3053 
L 1275 0 
L 697 0 
L 697 3053 
L 147 3053 
L 147 3500 
L 697 3500 
L 697 3744 
Q 697 4328 969 4595 
Q 1241 4863 1831 4863 
L 2375 4863 
z
" transform="scale(0.015625)"/>
      <path id="DejaVuSans-67" d="M 2906 1791 
Q 2906 2416 2648 2759 
Q 2391 3103 1925 3103 
Q 1463 3103 1205 2759 
Q 947 2416 947 1791 
Q 947 1169 1205 825 
Q 1463 481 1925 481 
Q 2391 481 2648 825 
Q 2906 1169 2906 1791 
z
M 3481 434 
Q 3481 -459 3084 -895 
Q 2688 -1331 1869 -1331 
Q 1566 -1331 1297 -1286 
Q 1028 -1241 775 -1147 
L 775 -588 
Q 1028 -725 1275 -790 
Q 1522 -856 1778 -856 
Q 2344 -856 2625 -561 
Q 2906 -266 2906 331 
L 2906 616 
Q 2728 306 2450 153 
Q 2172 0 1784 0 
Q 1141 0 747 490 
Q 353 981 353 1791 
Q 353 2603 747 3093 
Q 1141 3584 1784 3584 
Q 2172 3584 2450 3431 
Q 2728 3278 2906 2969 
L 2906 3500 
L 3481 3500 
L 3481 434 
z
" transform="scale(0.015625)"/>
      <path id="DejaVuSans-2f" d="M 1625 4666 
L 2156 4666 
L 531 -594 
L 0 -594 
L 1625 4666 
z
" transform="scale(0.015625)"/>
      <path id="DejaVuSans-62" d="M 3116 1747 
Q 3116 2381 2855 2742 
Q 2594 3103 2138 3103 
Q 1681 3103 1420 2742 
Q 1159 2381 1159 1747 
Q 1159 1113 1420 752 
Q 1681 391 2138 391 
Q 2594 391 2855 752 
Q 3116 1113 3116 1747 
z
M 1159 2969 
Q 1341 3281 1617 3432 
Q 1894 3584 2278 3584 
Q 2916 3584 3314 3078 
Q 3713 2572 3713 1747 
Q 3713 922 3314 415 
Q 2916 -91 2278 -91 
Q 1894 -91 1617 61 
Q 1341 213 1159 525 
L 1159 0 
L 581 0 
L 581 4863 
L 1159 4863 
L 1159 2969 
z
" transform="scale(0.015625)"/>
      <path id="DejaVuSans-5f" d="M 3263 -1063 
L 3263 -1509 
L -63 -1509 
L -63 -1063 
L 3263 -1063 
z
" transform="scale(0.015625)"/>
     </defs>
     <use xlink:href="#DejaVuSans-56"/>
     <use xlink:href="#DejaVuSans-69" x="66.158203"/>
     <use xlink:href="#DejaVuSans-6f" x="93.941406"/>
     <use xlink:href="#DejaVuSans-6c" x="155.123047"/>
     <use xlink:href="#DejaVuSans-69" x="182.90625"/>
     <use xlink:href="#DejaVuSans-6e" x="210.689453"/>
     <use xlink:href="#DejaVuSans-70" x="274.068359"/>
     <use xlink:href="#DejaVuSans-6c" x="337.544922"/>
     <use xlink:href="#DejaVuSans-6f" x="365.328125"/>
     <use xlink:href="#DejaVuSans-74" x="426.509766"/>
     <use xlink:href="#DejaVuSans-20" x="465.71875"/>
     <use xlink:href="#DejaVuSans-66" x="497.505859"/>
     <use xlink:href="#DejaVuSans-6f" x="532.710938"/>
     <use xlink:href="#DejaVuSans-72" x="593.892578"/>
     <use xlink:href="#DejaVuSans-20" x="635.005859"/>
     <use xlink:href="#DejaVuSans-70" x="666.792969"/>
     <use xlink:href="#DejaVuSans-72" x="730.269531"/>
     <use xlink:href="#DejaVuSans-6f" x="769.132812"/>
     <use xlink:href="#DejaVuSans-67" x="830.314453"/>
     <use xlink:href="#DejaVuSans-72" x="893.791016"/>
     <use xlink:href="#DejaVuSans-65" x="932.654297"/>
     <use xlink:href="#DejaVuSans-73" x="994.177734"/>
     <use xlink:href="#DejaVuSans-73" x="1046.277344"/>
     <use xlink:href="#DejaVuSans-20" x="1098.376953"/>
     <use xlink:href="#DejaVuSans-6f" x="1130.164062"/>
     <use xlink:href="#DejaVuSans-66" x="1191.345703"/>
     <use xlink:href="#DejaVuSans-20" x="1226.550781"/>
     <use xlink:href="#DejaVuSans-70" x="1258.337891"/>
     <use xlink:href="#DejaVuSans-72" x="1321.814453"/>
     <use xlink:href="#DejaVuSans-6f" x="1360.677734"/>
     <use xlink:href="#DejaVuSans-66" x="1421.859375"/>
     <use xlink:href="#DejaVuSans-69" x="1457.064453"/>
     <use xlink:href="#DejaVuSans-74" x="1484.847656"/>
     <use xlink:href="#DejaVuSans-73" x="1524.056641"/>
     <use xlink:href="#DejaVuSans-2f" x="1576.15625"/>
     <use xlink:href="#DejaVuSans-62" x="1609.847656"/>
     <use xlink:href="#DejaVuSans-79" x="1673.324219"/>
     <use xlink:href="#DejaVuSans-5f" x="1732.503906"/>
     <use xlink:href="#DejaVuSans-73" x="1782.503906"/>
     <use xlink:href="#DejaVuSans-65" x="1834.603516"/>
     <use xlink:href="#DejaVuSans-6c" x="1896.126953"/>
     <use xlink:href="#DejaVuSans-6c" x="1923.910156"/>
     <use xlink:href="#DejaVuSans-69" x="1951.693359"/>
     <use xlink:href="#DejaVuSans-6e" x="1979.476562"/>
     <use xlink:href="#DejaVuSans-67" x="2042.855469"/>
     <use xlink:href="#DejaVuSans-5f" x="2106.332031"/>
     <use xlink:href="#DejaVuSans-6e" x="2156.332031"/>
     <use xlink:href="#DejaVuSans-65" x="2219.710938"/>
     <use xlink:href="#DejaVuSans-77" x="2281.234375"/>
    </g>
   </g>
   <g id="legend_1">
    <g id="patch_7">
     <path d="M 284.430938 64.150125 
L 407.72 64.150125 
Q 409.72 64.150125 409.72 62.150125 
L 409.72 48.472 
Q 409.72 46.472 407.72 46.472 
L 284.430938 46.472 
Q 282.430938 46.472 282.430938 48.472 
L 282.430938 62.150125 
Q 282.430938 64.150125 284.430938 64.150125 
z
" style="fill: #ffffff; opacity: 0.8; stroke: #cccccc; stroke-linejoin: miter"/>
    </g>
    <g id="line2d_16">
     <path d="M 286.430938 54.570438 
L 296.430938 54.570438 
L 306.430938 54.570438 
" style="fill: none; stroke: #4682b4; stroke-width: 1.5; stroke-linecap: square"/>
    </g>
    <g id="text_18">
     <!-- Storage-Minimizer -->
     <g transform="translate(314.430938 58.070438)scale(0.1 -0.1)">
      <defs>
       <path id="DejaVuSans-53" d="M 3425 4513 
L 3425 3897 
Q 3066 4069 2747 4153 
Q 2428 4238 2131 4238 
Q 1616 4238 1336 4038 
Q 1056 3838 1056 3469 
Q 1056 3159 1242 3001 
Q 1428 2844 1947 2747 
L 2328 2669 
Q 3034 2534 3370 2195 
Q 3706 1856 3706 1288 
Q 3706 609 3251 259 
Q 2797 -91 1919 -91 
Q 1588 -91 1214 -16 
Q 841 59 441 206 
L 441 856 
Q 825 641 1194 531 
Q 1563 422 1919 422 
Q 2459 422 2753 634 
Q 3047 847 3047 1241 
Q 3047 1584 2836 1778 
Q 2625 1972 2144 2069 
L 1759 2144 
Q 1053 2284 737 2584 
Q 422 2884 422 3419 
Q 422 4038 858 4394 
Q 1294 4750 2059 4750 
Q 2388 4750 2728 4690 
Q 3069 4631 3425 4513 
z
" transform="scale(0.015625)"/>
       <path id="DejaVuSans-2d" d="M 313 2009 
L 1997 2009 
L 1997 1497 
L 313 1497 
L 313 2009 
z
" transform="scale(0.015625)"/>
       <path id="DejaVuSans-4d" d="M 628 4666 
L 1569 4666 
L 2759 1491 
L 3956 4666 
L 4897 4666 
L 4897 0 
L 4281 0 
L 4281 4097 
L 3078 897 
L 2444 897 
L 1241 4097 
L 1241 0 
L 628 0 
L 628 4666 
z
" transform="scale(0.015625)"/>
       <path id="DejaVuSans-6d" d="M 3328 2828 
Q 3544 3216 3844 3400 
Q 4144 3584 4550 3584 
Q 5097 3584 5394 3201 
Q 5691 2819 5691 2113 
L 5691 0 
L 5113 0 
L 5113 2094 
Q 5113 2597 4934 2840 
Q 4756 3084 4391 3084 
Q 3944 3084 3684 2787 
Q 3425 2491 3425 1978 
L 3425 0 
L 2847 0 
L 2847 2094 
Q 2847 2600 2669 2842 
Q 2491 3084 2119 3084 
Q 1678 3084 1418 2786 
Q 1159 2488 1159 1978 
L 1159 0 
L 581 0 
L 581 3500 
L 1159 3500 
L 1159 2956 
Q 1356 3278 1631 3431 
Q 1906 3584 2284 3584 
Q 2666 3584 2933 3390 
Q 3200 3197 3328 2828 
z
" transform="scale(0.015625)"/>
       <path id="DejaVuSans-7a" d="M 353 3500 
L 3084 3500 
L 3084 2975 
L 922 459 
L 3084 459 
L 3084 0 
L 275 0 
L 275 525 
L 2438 3041 
L 353 3041 
L 353 3500 
z
" transform="scale(0.015625)"/>
      </defs>
      <use xlink:href="#DejaVuSans-53"/>
      <use xlink:href="#DejaVuSans-74" x="63.476562"/>
      <use xlink:href="#DejaVuSans-6f" x="102.685547"/>
      <use xlink:href="#DejaVuSans-72" x="163.867188"/>
      <use xlink:href="#DejaVuSans-61" x="204.980469"/>
      <use xlink:href="#DejaVuSans-67" x="266.259766"/>
      <use xlink:href="#DejaVuSans-65" x="329.736328"/>
      <use xlink:href="#DejaVuSans-2d" x="391.259766"/>
      <use xlink:href="#DejaVuSans-4d" x="427.34375"/>
      <use xlink:href="#DejaVuSans-69" x="513.623047"/>
      <use xlink:href="#DejaVuSans-6e" x="541.40625"/>
      <use xlink:href="#DejaVuSans-69" x="604.785156"/>
      <use xlink:href="#DejaVuSans-6d" x="632.568359"/>
      <use xlink:href="#DejaVuSans-69" x="729.980469"/>
      <use xlink:href="#DejaVuSans-7a" x="757.763672"/>
      <use xlink:href="#DejaVuSans-65" x="810.253906"/>
      <use xlink:href="#DejaVuSans-72" x="871.777344"/>
     </g>
    </g>
   </g>
  </g>
 </g>
 <defs>
  <clipPath id="p8a8ec0888d">
   <rect x="57.6" y="41.472" width="357.12" height="266.112"/>
  </clipPath>
 </defs>
</svg>
