<?xml version="1.0" encoding="utf-8" standalone="no"?>
<!DOCTYPE svg PUBLIC "-//W3C//DTD SVG 1.1//EN"
  "http://www.w3.org/Graphics/SVG/1.1/DTD/svg11.dtd">
<svg xmlns:xlink="http://www.w3.org/1999/xlink" width="460.8pt" height="345.6pt" viewBox="0 0 460.8 345.6" xmlns="http://www.w3.org/2000/svg" version="1.1">
 <metadata>
  <rdf:RDF xmlns:dc="http://purl.org/dc/elements/1.1/" xmlns:cc="http://creativecommons.org/ns#" xmlns:rdf="http://www.w3.org/1999/02/22-rdf-syntax-ns#">
   <cc:Work>
    <dc:type rdf:resource="http://purl.org/dc/dcmitype/StillImage"/>
    <dc:date>2022-06-16T20:42:07.143169</dc:date>
    <dc:format>image/svg+xml</dc:format>
    <dc:creator>
     <cc:Agent>
      <dc:title>Matplotlib v3.5.2, https://matplotlib.org/</dc:title>
     </cc:Agent>
    </dc:creator>
   </cc:Work>
  </rdf:RDF>
 </metadata>
 <defs>
  <style type="text/css">*{stroke-linejoin: round; stroke-linecap: butt}</style>
 </defs>
 <g id="figure_1">
  <g id="patch_1">
   <path d="M 0 345.6 
L 460.8 345.6 
L 460.8 0 
L 0 0 
z
" style="fill: #ffffff"/>
  </g>
  <g id="axes_1">
   <g id="patch_2">
    <path d="M 57.6 307.584 
L 414.72 307.584 
L 414.72 41.472 
L 57.6 41.472 
z
" style="fill: #ffffff"/>
   </g>
   <g id="matplotlib.axis_1">
    <g id="xtick_1">
     <g id="line2d_1">
      <defs>
       <path id="m95c4aa7b51" d="M 0 0 
L 0 3.5 
" style="stroke: #000000; stroke-width: 0.8"/>
      </defs>
      <g>
       <use xlink:href="#m95c4aa7b51" x="109.696467" y="307.584" style="stroke: #000000; stroke-width: 0.8"/>
      </g>
     </g>
     <g id="text_1">
      <!-- −500 -->
      <g transform="translate(95.962873 322.182437)scale(0.1 -0.1)">
       <defs>
        <path id="DejaVuSans-2212" d="M 678 2272 
L 4684 2272 
L 4684 1741 
L 678 1741 
L 678 2272 
z
" transform="scale(0.015625)"/>
        <path id="DejaVuSans-35" d="M 691 4666 
L 3169 4666 
L 3169 4134 
L 1269 4134 
L 1269 2991 
Q 1406 3038 1543 3061 
Q 1681 3084 1819 3084 
Q 2600 3084 3056 2656 
Q 3513 2228 3513 1497 
Q 3513 744 3044 326 
Q 2575 -91 1722 -91 
Q 1428 -91 1123 -41 
Q 819 9 494 109 
L 494 744 
Q 775 591 1075 516 
Q 1375 441 1709 441 
Q 2250 441 2565 725 
Q 2881 1009 2881 1497 
Q 2881 1984 2565 2268 
Q 2250 2553 1709 2553 
Q 1456 2553 1204 2497 
Q 953 2441 691 2322 
L 691 4666 
z
" transform="scale(0.015625)"/>
        <path id="DejaVuSans-30" d="M 2034 4250 
Q 1547 4250 1301 3770 
Q 1056 3291 1056 2328 
Q 1056 1369 1301 889 
Q 1547 409 2034 409 
Q 2525 409 2770 889 
Q 3016 1369 3016 2328 
Q 3016 3291 2770 3770 
Q 2525 4250 2034 4250 
z
M 2034 4750 
Q 2819 4750 3233 4129 
Q 3647 3509 3647 2328 
Q 3647 1150 3233 529 
Q 2819 -91 2034 -91 
Q 1250 -91 836 529 
Q 422 1150 422 2328 
Q 422 3509 836 4129 
Q 1250 4750 2034 4750 
z
" transform="scale(0.015625)"/>
       </defs>
       <use xlink:href="#DejaVuSans-2212"/>
       <use xlink:href="#DejaVuSans-35" x="83.789062"/>
       <use xlink:href="#DejaVuSans-30" x="147.412109"/>
       <use xlink:href="#DejaVuSans-30" x="211.035156"/>
      </g>
     </g>
    </g>
    <g id="xtick_2">
     <g id="line2d_2">
      <g>
       <use xlink:href="#m95c4aa7b51" x="161.943331" y="307.584" style="stroke: #000000; stroke-width: 0.8"/>
      </g>
     </g>
     <g id="text_2">
      <!-- −400 -->
      <g transform="translate(148.209737 322.182437)scale(0.1 -0.1)">
       <defs>
        <path id="DejaVuSans-34" d="M 2419 4116 
L 825 1625 
L 2419 1625 
L 2419 4116 
z
M 2253 4666 
L 3047 4666 
L 3047 1625 
L 3713 1625 
L 3713 1100 
L 3047 1100 
L 3047 0 
L 2419 0 
L 2419 1100 
L 313 1100 
L 313 1709 
L 2253 4666 
z
" transform="scale(0.015625)"/>
       </defs>
       <use xlink:href="#DejaVuSans-2212"/>
       <use xlink:href="#DejaVuSans-34" x="83.789062"/>
       <use xlink:href="#DejaVuSans-30" x="147.412109"/>
       <use xlink:href="#DejaVuSans-30" x="211.035156"/>
      </g>
     </g>
    </g>
    <g id="xtick_3">
     <g id="line2d_3">
      <g>
       <use xlink:href="#m95c4aa7b51" x="214.190194" y="307.584" style="stroke: #000000; stroke-width: 0.8"/>
      </g>
     </g>
     <g id="text_3">
      <!-- −300 -->
      <g transform="translate(200.4566 322.182437)scale(0.1 -0.1)">
       <defs>
        <path id="DejaVuSans-33" d="M 2597 2516 
Q 3050 2419 3304 2112 
Q 3559 1806 3559 1356 
Q 3559 666 3084 287 
Q 2609 -91 1734 -91 
Q 1441 -91 1130 -33 
Q 819 25 488 141 
L 488 750 
Q 750 597 1062 519 
Q 1375 441 1716 441 
Q 2309 441 2620 675 
Q 2931 909 2931 1356 
Q 2931 1769 2642 2001 
Q 2353 2234 1838 2234 
L 1294 2234 
L 1294 2753 
L 1863 2753 
Q 2328 2753 2575 2939 
Q 2822 3125 2822 3475 
Q 2822 3834 2567 4026 
Q 2313 4219 1838 4219 
Q 1578 4219 1281 4162 
Q 984 4106 628 3988 
L 628 4550 
Q 988 4650 1302 4700 
Q 1616 4750 1894 4750 
Q 2613 4750 3031 4423 
Q 3450 4097 3450 3541 
Q 3450 3153 3228 2886 
Q 3006 2619 2597 2516 
z
" transform="scale(0.015625)"/>
       </defs>
       <use xlink:href="#DejaVuSans-2212"/>
       <use xlink:href="#DejaVuSans-33" x="83.789062"/>
       <use xlink:href="#DejaVuSans-30" x="147.412109"/>
       <use xlink:href="#DejaVuSans-30" x="211.035156"/>
      </g>
     </g>
    </g>
    <g id="xtick_4">
     <g id="line2d_4">
      <g>
       <use xlink:href="#m95c4aa7b51" x="266.437057" y="307.584" style="stroke: #000000; stroke-width: 0.8"/>
      </g>
     </g>
     <g id="text_4">
      <!-- −200 -->
      <g transform="translate(252.703464 322.182437)scale(0.1 -0.1)">
       <defs>
        <path id="DejaVuSans-32" d="M 1228 531 
L 3431 531 
L 3431 0 
L 469 0 
L 469 531 
Q 828 903 1448 1529 
Q 2069 2156 2228 2338 
Q 2531 2678 2651 2914 
Q 2772 3150 2772 3378 
Q 2772 3750 2511 3984 
Q 2250 4219 1831 4219 
Q 1534 4219 1204 4116 
Q 875 4013 500 3803 
L 500 4441 
Q 881 4594 1212 4672 
Q 1544 4750 1819 4750 
Q 2544 4750 2975 4387 
Q 3406 4025 3406 3419 
Q 3406 3131 3298 2873 
Q 3191 2616 2906 2266 
Q 2828 2175 2409 1742 
Q 1991 1309 1228 531 
z
" transform="scale(0.015625)"/>
       </defs>
       <use xlink:href="#DejaVuSans-2212"/>
       <use xlink:href="#DejaVuSans-32" x="83.789062"/>
       <use xlink:href="#DejaVuSans-30" x="147.412109"/>
       <use xlink:href="#DejaVuSans-30" x="211.035156"/>
      </g>
     </g>
    </g>
    <g id="xtick_5">
     <g id="line2d_5">
      <g>
       <use xlink:href="#m95c4aa7b51" x="318.683921" y="307.584" style="stroke: #000000; stroke-width: 0.8"/>
      </g>
     </g>
     <g id="text_5">
      <!-- −100 -->
      <g transform="translate(304.950327 322.182437)scale(0.1 -0.1)">
       <defs>
        <path id="DejaVuSans-31" d="M 794 531 
L 1825 531 
L 1825 4091 
L 703 3866 
L 703 4441 
L 1819 4666 
L 2450 4666 
L 2450 531 
L 3481 531 
L 3481 0 
L 794 0 
L 794 531 
z
" transform="scale(0.015625)"/>
       </defs>
       <use xlink:href="#DejaVuSans-2212"/>
       <use xlink:href="#DejaVuSans-31" x="83.789062"/>
       <use xlink:href="#DejaVuSans-30" x="147.412109"/>
       <use xlink:href="#DejaVuSans-30" x="211.035156"/>
      </g>
     </g>
    </g>
    <g id="xtick_6">
     <g id="line2d_6">
      <g>
       <use xlink:href="#m95c4aa7b51" x="370.930784" y="307.584" style="stroke: #000000; stroke-width: 0.8"/>
      </g>
     </g>
     <g id="text_6">
      <!-- 0 -->
      <g transform="translate(367.749534 322.182437)scale(0.1 -0.1)">
       <use xlink:href="#DejaVuSans-30"/>
      </g>
     </g>
    </g>
    <g id="text_7">
     <!-- episode_4500_profits/storage_cost -->
     <g transform="translate(149.437344 335.860562)scale(0.1 -0.1)">
      <defs>
       <path id="DejaVuSans-65" d="M 3597 1894 
L 3597 1613 
L 953 1613 
Q 991 1019 1311 708 
Q 1631 397 2203 397 
Q 2534 397 2845 478 
Q 3156 559 3463 722 
L 3463 178 
Q 3153 47 2828 -22 
Q 2503 -91 2169 -91 
Q 1331 -91 842 396 
Q 353 884 353 1716 
Q 353 2575 817 3079 
Q 1281 3584 2069 3584 
Q 2775 3584 3186 3129 
Q 3597 2675 3597 1894 
z
M 3022 2063 
Q 3016 2534 2758 2815 
Q 2500 3097 2075 3097 
Q 1594 3097 1305 2825 
Q 1016 2553 972 2059 
L 3022 2063 
z
" transform="scale(0.015625)"/>
       <path id="DejaVuSans-70" d="M 1159 525 
L 1159 -1331 
L 581 -1331 
L 581 3500 
L 1159 3500 
L 1159 2969 
Q 1341 3281 1617 3432 
Q 1894 3584 2278 3584 
Q 2916 3584 3314 3078 
Q 3713 2572 3713 1747 
Q 3713 922 3314 415 
Q 2916 -91 2278 -91 
Q 1894 -91 1617 61 
Q 1341 213 1159 525 
z
M 3116 1747 
Q 3116 2381 2855 2742 
Q 2594 3103 2138 3103 
Q 1681 3103 1420 2742 
Q 1159 2381 1159 1747 
Q 1159 1113 1420 752 
Q 1681 391 2138 391 
Q 2594 391 2855 752 
Q 3116 1113 3116 1747 
z
" transform="scale(0.015625)"/>
       <path id="DejaVuSans-69" d="M 603 3500 
L 1178 3500 
L 1178 0 
L 603 0 
L 603 3500 
z
M 603 4863 
L 1178 4863 
L 1178 4134 
L 603 4134 
L 603 4863 
z
" transform="scale(0.015625)"/>
       <path id="DejaVuSans-73" d="M 2834 3397 
L 2834 2853 
Q 2591 2978 2328 3040 
Q 2066 3103 1784 3103 
Q 1356 3103 1142 2972 
Q 928 2841 928 2578 
Q 928 2378 1081 2264 
Q 1234 2150 1697 2047 
L 1894 2003 
Q 2506 1872 2764 1633 
Q 3022 1394 3022 966 
Q 3022 478 2636 193 
Q 2250 -91 1575 -91 
Q 1294 -91 989 -36 
Q 684 19 347 128 
L 347 722 
Q 666 556 975 473 
Q 1284 391 1588 391 
Q 1994 391 2212 530 
Q 2431 669 2431 922 
Q 2431 1156 2273 1281 
Q 2116 1406 1581 1522 
L 1381 1569 
Q 847 1681 609 1914 
Q 372 2147 372 2553 
Q 372 3047 722 3315 
Q 1072 3584 1716 3584 
Q 2034 3584 2315 3537 
Q 2597 3491 2834 3397 
z
" transform="scale(0.015625)"/>
       <path id="DejaVuSans-6f" d="M 1959 3097 
Q 1497 3097 1228 2736 
Q 959 2375 959 1747 
Q 959 1119 1226 758 
Q 1494 397 1959 397 
Q 2419 397 2687 759 
Q 2956 1122 2956 1747 
Q 2956 2369 2687 2733 
Q 2419 3097 1959 3097 
z
M 1959 3584 
Q 2709 3584 3137 3096 
Q 3566 2609 3566 1747 
Q 3566 888 3137 398 
Q 2709 -91 1959 -91 
Q 1206 -91 779 398 
Q 353 888 353 1747 
Q 353 2609 779 3096 
Q 1206 3584 1959 3584 
z
" transform="scale(0.015625)"/>
       <path id="DejaVuSans-64" d="M 2906 2969 
L 2906 4863 
L 3481 4863 
L 3481 0 
L 2906 0 
L 2906 525 
Q 2725 213 2448 61 
Q 2172 -91 1784 -91 
Q 1150 -91 751 415 
Q 353 922 353 1747 
Q 353 2572 751 3078 
Q 1150 3584 1784 3584 
Q 2172 3584 2448 3432 
Q 2725 3281 2906 2969 
z
M 947 1747 
Q 947 1113 1208 752 
Q 1469 391 1925 391 
Q 2381 391 2643 752 
Q 2906 1113 2906 1747 
Q 2906 2381 2643 2742 
Q 2381 3103 1925 3103 
Q 1469 3103 1208 2742 
Q 947 2381 947 1747 
z
" transform="scale(0.015625)"/>
       <path id="DejaVuSans-5f" d="M 3263 -1063 
L 3263 -1509 
L -63 -1509 
L -63 -1063 
L 3263 -1063 
z
" transform="scale(0.015625)"/>
       <path id="DejaVuSans-72" d="M 2631 2963 
Q 2534 3019 2420 3045 
Q 2306 3072 2169 3072 
Q 1681 3072 1420 2755 
Q 1159 2438 1159 1844 
L 1159 0 
L 581 0 
L 581 3500 
L 1159 3500 
L 1159 2956 
Q 1341 3275 1631 3429 
Q 1922 3584 2338 3584 
Q 2397 3584 2469 3576 
Q 2541 3569 2628 3553 
L 2631 2963 
z
" transform="scale(0.015625)"/>
       <path id="DejaVuSans-66" d="M 2375 4863 
L 2375 4384 
L 1825 4384 
Q 1516 4384 1395 4259 
Q 1275 4134 1275 3809 
L 1275 3500 
L 2222 3500 
L 2222 3053 
L 1275 3053 
L 1275 0 
L 697 0 
L 697 3053 
L 147 3053 
L 147 3500 
L 697 3500 
L 697 3744 
Q 697 4328 969 4595 
Q 1241 4863 1831 4863 
L 2375 4863 
z
" transform="scale(0.015625)"/>
       <path id="DejaVuSans-74" d="M 1172 4494 
L 1172 3500 
L 2356 3500 
L 2356 3053 
L 1172 3053 
L 1172 1153 
Q 1172 725 1289 603 
Q 1406 481 1766 481 
L 2356 481 
L 2356 0 
L 1766 0 
Q 1100 0 847 248 
Q 594 497 594 1153 
L 594 3053 
L 172 3053 
L 172 3500 
L 594 3500 
L 594 4494 
L 1172 4494 
z
" transform="scale(0.015625)"/>
       <path id="DejaVuSans-2f" d="M 1625 4666 
L 2156 4666 
L 531 -594 
L 0 -594 
L 1625 4666 
z
" transform="scale(0.015625)"/>
       <path id="DejaVuSans-61" d="M 2194 1759 
Q 1497 1759 1228 1600 
Q 959 1441 959 1056 
Q 959 750 1161 570 
Q 1363 391 1709 391 
Q 2188 391 2477 730 
Q 2766 1069 2766 1631 
L 2766 1759 
L 2194 1759 
z
M 3341 1997 
L 3341 0 
L 2766 0 
L 2766 531 
Q 2569 213 2275 61 
Q 1981 -91 1556 -91 
Q 1019 -91 701 211 
Q 384 513 384 1019 
Q 384 1609 779 1909 
Q 1175 2209 1959 2209 
L 2766 2209 
L 2766 2266 
Q 2766 2663 2505 2880 
Q 2244 3097 1772 3097 
Q 1472 3097 1187 3025 
Q 903 2953 641 2809 
L 641 3341 
Q 956 3463 1253 3523 
Q 1550 3584 1831 3584 
Q 2591 3584 2966 3190 
Q 3341 2797 3341 1997 
z
" transform="scale(0.015625)"/>
       <path id="DejaVuSans-67" d="M 2906 1791 
Q 2906 2416 2648 2759 
Q 2391 3103 1925 3103 
Q 1463 3103 1205 2759 
Q 947 2416 947 1791 
Q 947 1169 1205 825 
Q 1463 481 1925 481 
Q 2391 481 2648 825 
Q 2906 1169 2906 1791 
z
M 3481 434 
Q 3481 -459 3084 -895 
Q 2688 -1331 1869 -1331 
Q 1566 -1331 1297 -1286 
Q 1028 -1241 775 -1147 
L 775 -588 
Q 1028 -725 1275 -790 
Q 1522 -856 1778 -856 
Q 2344 -856 2625 -561 
Q 2906 -266 2906 331 
L 2906 616 
Q 2728 306 2450 153 
Q 2172 0 1784 0 
Q 1141 0 747 490 
Q 353 981 353 1791 
Q 353 2603 747 3093 
Q 1141 3584 1784 3584 
Q 2172 3584 2450 3431 
Q 2728 3278 2906 2969 
L 2906 3500 
L 3481 3500 
L 3481 434 
z
" transform="scale(0.015625)"/>
       <path id="DejaVuSans-63" d="M 3122 3366 
L 3122 2828 
Q 2878 2963 2633 3030 
Q 2388 3097 2138 3097 
Q 1578 3097 1268 2742 
Q 959 2388 959 1747 
Q 959 1106 1268 751 
Q 1578 397 2138 397 
Q 2388 397 2633 464 
Q 2878 531 3122 666 
L 3122 134 
Q 2881 22 2623 -34 
Q 2366 -91 2075 -91 
Q 1284 -91 818 406 
Q 353 903 353 1747 
Q 353 2603 823 3093 
Q 1294 3584 2113 3584 
Q 2378 3584 2631 3529 
Q 2884 3475 3122 3366 
z
" transform="scale(0.015625)"/>
      </defs>
      <use xlink:href="#DejaVuSans-65"/>
      <use xlink:href="#DejaVuSans-70" x="61.523438"/>
      <use xlink:href="#DejaVuSans-69" x="125"/>
      <use xlink:href="#DejaVuSans-73" x="152.783203"/>
      <use xlink:href="#DejaVuSans-6f" x="204.882812"/>
      <use xlink:href="#DejaVuSans-64" x="266.064453"/>
      <use xlink:href="#DejaVuSans-65" x="329.541016"/>
      <use xlink:href="#DejaVuSans-5f" x="391.064453"/>
      <use xlink:href="#DejaVuSans-34" x="441.064453"/>
      <use xlink:href="#DejaVuSans-35" x="504.6875"/>
      <use xlink:href="#DejaVuSans-30" x="568.310547"/>
      <use xlink:href="#DejaVuSans-30" x="631.933594"/>
      <use xlink:href="#DejaVuSans-5f" x="695.556641"/>
      <use xlink:href="#DejaVuSans-70" x="745.556641"/>
      <use xlink:href="#DejaVuSans-72" x="809.033203"/>
      <use xlink:href="#DejaVuSans-6f" x="847.896484"/>
      <use xlink:href="#DejaVuSans-66" x="909.078125"/>
      <use xlink:href="#DejaVuSans-69" x="944.283203"/>
      <use xlink:href="#DejaVuSans-74" x="972.066406"/>
      <use xlink:href="#DejaVuSans-73" x="1011.275391"/>
      <use xlink:href="#DejaVuSans-2f" x="1063.375"/>
      <use xlink:href="#DejaVuSans-73" x="1097.066406"/>
      <use xlink:href="#DejaVuSans-74" x="1149.166016"/>
      <use xlink:href="#DejaVuSans-6f" x="1188.375"/>
      <use xlink:href="#DejaVuSans-72" x="1249.556641"/>
      <use xlink:href="#DejaVuSans-61" x="1290.669922"/>
      <use xlink:href="#DejaVuSans-67" x="1351.949219"/>
      <use xlink:href="#DejaVuSans-65" x="1415.425781"/>
      <use xlink:href="#DejaVuSans-5f" x="1476.949219"/>
      <use xlink:href="#DejaVuSans-63" x="1526.949219"/>
      <use xlink:href="#DejaVuSans-6f" x="1581.929688"/>
      <use xlink:href="#DejaVuSans-73" x="1643.111328"/>
      <use xlink:href="#DejaVuSans-74" x="1695.210938"/>
     </g>
    </g>
   </g>
   <g id="matplotlib.axis_2">
    <g id="ytick_1">
     <g id="line2d_7">
      <defs>
       <path id="mb8acc91124" d="M 0 0 
L -3.5 0 
" style="stroke: #000000; stroke-width: 0.8"/>
      </defs>
      <g>
       <use xlink:href="#mb8acc91124" x="57.6" y="295.488038" style="stroke: #000000; stroke-width: 0.8"/>
      </g>
     </g>
     <g id="text_8">
      <!-- 0.000 -->
      <g transform="translate(21.971875 299.287257)scale(0.1 -0.1)">
       <defs>
        <path id="DejaVuSans-2e" d="M 684 794 
L 1344 794 
L 1344 0 
L 684 0 
L 684 794 
z
" transform="scale(0.015625)"/>
       </defs>
       <use xlink:href="#DejaVuSans-30"/>
       <use xlink:href="#DejaVuSans-2e" x="63.623047"/>
       <use xlink:href="#DejaVuSans-30" x="95.410156"/>
       <use xlink:href="#DejaVuSans-30" x="159.033203"/>
       <use xlink:href="#DejaVuSans-30" x="222.65625"/>
      </g>
     </g>
    </g>
    <g id="ytick_2">
     <g id="line2d_8">
      <g>
       <use xlink:href="#mb8acc91124" x="57.6" y="253.308448" style="stroke: #000000; stroke-width: 0.8"/>
      </g>
     </g>
     <g id="text_9">
      <!-- 0.001 -->
      <g transform="translate(21.971875 257.107667)scale(0.1 -0.1)">
       <use xlink:href="#DejaVuSans-30"/>
       <use xlink:href="#DejaVuSans-2e" x="63.623047"/>
       <use xlink:href="#DejaVuSans-30" x="95.410156"/>
       <use xlink:href="#DejaVuSans-30" x="159.033203"/>
       <use xlink:href="#DejaVuSans-31" x="222.65625"/>
      </g>
     </g>
    </g>
    <g id="ytick_3">
     <g id="line2d_9">
      <g>
       <use xlink:href="#mb8acc91124" x="57.6" y="211.128858" style="stroke: #000000; stroke-width: 0.8"/>
      </g>
     </g>
     <g id="text_10">
      <!-- 0.002 -->
      <g transform="translate(21.971875 214.928077)scale(0.1 -0.1)">
       <use xlink:href="#DejaVuSans-30"/>
       <use xlink:href="#DejaVuSans-2e" x="63.623047"/>
       <use xlink:href="#DejaVuSans-30" x="95.410156"/>
       <use xlink:href="#DejaVuSans-30" x="159.033203"/>
       <use xlink:href="#DejaVuSans-32" x="222.65625"/>
      </g>
     </g>
    </g>
    <g id="ytick_4">
     <g id="line2d_10">
      <g>
       <use xlink:href="#mb8acc91124" x="57.6" y="168.949268" style="stroke: #000000; stroke-width: 0.8"/>
      </g>
     </g>
     <g id="text_11">
      <!-- 0.003 -->
      <g transform="translate(21.971875 172.748487)scale(0.1 -0.1)">
       <use xlink:href="#DejaVuSans-30"/>
       <use xlink:href="#DejaVuSans-2e" x="63.623047"/>
       <use xlink:href="#DejaVuSans-30" x="95.410156"/>
       <use xlink:href="#DejaVuSans-30" x="159.033203"/>
       <use xlink:href="#DejaVuSans-33" x="222.65625"/>
      </g>
     </g>
    </g>
    <g id="ytick_5">
     <g id="line2d_11">
      <g>
       <use xlink:href="#mb8acc91124" x="57.6" y="126.769678" style="stroke: #000000; stroke-width: 0.8"/>
      </g>
     </g>
     <g id="text_12">
      <!-- 0.004 -->
      <g transform="translate(21.971875 130.568897)scale(0.1 -0.1)">
       <use xlink:href="#DejaVuSans-30"/>
       <use xlink:href="#DejaVuSans-2e" x="63.623047"/>
       <use xlink:href="#DejaVuSans-30" x="95.410156"/>
       <use xlink:href="#DejaVuSans-30" x="159.033203"/>
       <use xlink:href="#DejaVuSans-34" x="222.65625"/>
      </g>
     </g>
    </g>
    <g id="ytick_6">
     <g id="line2d_12">
      <g>
       <use xlink:href="#mb8acc91124" x="57.6" y="84.590088" style="stroke: #000000; stroke-width: 0.8"/>
      </g>
     </g>
     <g id="text_13">
      <!-- 0.005 -->
      <g transform="translate(21.971875 88.389307)scale(0.1 -0.1)">
       <use xlink:href="#DejaVuSans-30"/>
       <use xlink:href="#DejaVuSans-2e" x="63.623047"/>
       <use xlink:href="#DejaVuSans-30" x="95.410156"/>
       <use xlink:href="#DejaVuSans-30" x="159.033203"/>
       <use xlink:href="#DejaVuSans-35" x="222.65625"/>
      </g>
     </g>
    </g>
    <g id="ytick_7">
     <g id="line2d_13">
      <g>
       <use xlink:href="#mb8acc91124" x="57.6" y="42.410498" style="stroke: #000000; stroke-width: 0.8"/>
      </g>
     </g>
     <g id="text_14">
      <!-- 0.006 -->
      <g transform="translate(21.971875 46.209717)scale(0.1 -0.1)">
       <defs>
        <path id="DejaVuSans-36" d="M 2113 2584 
Q 1688 2584 1439 2293 
Q 1191 2003 1191 1497 
Q 1191 994 1439 701 
Q 1688 409 2113 409 
Q 2538 409 2786 701 
Q 3034 994 3034 1497 
Q 3034 2003 2786 2293 
Q 2538 2584 2113 2584 
z
M 3366 4563 
L 3366 3988 
Q 3128 4100 2886 4159 
Q 2644 4219 2406 4219 
Q 1781 4219 1451 3797 
Q 1122 3375 1075 2522 
Q 1259 2794 1537 2939 
Q 1816 3084 2150 3084 
Q 2853 3084 3261 2657 
Q 3669 2231 3669 1497 
Q 3669 778 3244 343 
Q 2819 -91 2113 -91 
Q 1303 -91 875 529 
Q 447 1150 447 2328 
Q 447 3434 972 4092 
Q 1497 4750 2381 4750 
Q 2619 4750 2861 4703 
Q 3103 4656 3366 4563 
z
" transform="scale(0.015625)"/>
       </defs>
       <use xlink:href="#DejaVuSans-30"/>
       <use xlink:href="#DejaVuSans-2e" x="63.623047"/>
       <use xlink:href="#DejaVuSans-30" x="95.410156"/>
       <use xlink:href="#DejaVuSans-30" x="159.033203"/>
       <use xlink:href="#DejaVuSans-36" x="222.65625"/>
      </g>
     </g>
    </g>
    <g id="text_15">
     <!-- Probability density -->
     <g transform="translate(15.892187 220.878781)rotate(-90)scale(0.1 -0.1)">
      <defs>
       <path id="DejaVuSans-50" d="M 1259 4147 
L 1259 2394 
L 2053 2394 
Q 2494 2394 2734 2622 
Q 2975 2850 2975 3272 
Q 2975 3691 2734 3919 
Q 2494 4147 2053 4147 
L 1259 4147 
z
M 628 4666 
L 2053 4666 
Q 2838 4666 3239 4311 
Q 3641 3956 3641 3272 
Q 3641 2581 3239 2228 
Q 2838 1875 2053 1875 
L 1259 1875 
L 1259 0 
L 628 0 
L 628 4666 
z
" transform="scale(0.015625)"/>
       <path id="DejaVuSans-62" d="M 3116 1747 
Q 3116 2381 2855 2742 
Q 2594 3103 2138 3103 
Q 1681 3103 1420 2742 
Q 1159 2381 1159 1747 
Q 1159 1113 1420 752 
Q 1681 391 2138 391 
Q 2594 391 2855 752 
Q 3116 1113 3116 1747 
z
M 1159 2969 
Q 1341 3281 1617 3432 
Q 1894 3584 2278 3584 
Q 2916 3584 3314 3078 
Q 3713 2572 3713 1747 
Q 3713 922 3314 415 
Q 2916 -91 2278 -91 
Q 1894 -91 1617 61 
Q 1341 213 1159 525 
L 1159 0 
L 581 0 
L 581 4863 
L 1159 4863 
L 1159 2969 
z
" transform="scale(0.015625)"/>
       <path id="DejaVuSans-6c" d="M 603 4863 
L 1178 4863 
L 1178 0 
L 603 0 
L 603 4863 
z
" transform="scale(0.015625)"/>
       <path id="DejaVuSans-79" d="M 2059 -325 
Q 1816 -950 1584 -1140 
Q 1353 -1331 966 -1331 
L 506 -1331 
L 506 -850 
L 844 -850 
Q 1081 -850 1212 -737 
Q 1344 -625 1503 -206 
L 1606 56 
L 191 3500 
L 800 3500 
L 1894 763 
L 2988 3500 
L 3597 3500 
L 2059 -325 
z
" transform="scale(0.015625)"/>
       <path id="DejaVuSans-20" transform="scale(0.015625)"/>
       <path id="DejaVuSans-6e" d="M 3513 2113 
L 3513 0 
L 2938 0 
L 2938 2094 
Q 2938 2591 2744 2837 
Q 2550 3084 2163 3084 
Q 1697 3084 1428 2787 
Q 1159 2491 1159 1978 
L 1159 0 
L 581 0 
L 581 3500 
L 1159 3500 
L 1159 2956 
Q 1366 3272 1645 3428 
Q 1925 3584 2291 3584 
Q 2894 3584 3203 3211 
Q 3513 2838 3513 2113 
z
" transform="scale(0.015625)"/>
      </defs>
      <use xlink:href="#DejaVuSans-50"/>
      <use xlink:href="#DejaVuSans-72" x="58.552734"/>
      <use xlink:href="#DejaVuSans-6f" x="97.416016"/>
      <use xlink:href="#DejaVuSans-62" x="158.597656"/>
      <use xlink:href="#DejaVuSans-61" x="222.074219"/>
      <use xlink:href="#DejaVuSans-62" x="283.353516"/>
      <use xlink:href="#DejaVuSans-69" x="346.830078"/>
      <use xlink:href="#DejaVuSans-6c" x="374.613281"/>
      <use xlink:href="#DejaVuSans-69" x="402.396484"/>
      <use xlink:href="#DejaVuSans-74" x="430.179688"/>
      <use xlink:href="#DejaVuSans-79" x="469.388672"/>
      <use xlink:href="#DejaVuSans-20" x="528.568359"/>
      <use xlink:href="#DejaVuSans-64" x="560.355469"/>
      <use xlink:href="#DejaVuSans-65" x="623.832031"/>
      <use xlink:href="#DejaVuSans-6e" x="685.355469"/>
      <use xlink:href="#DejaVuSans-73" x="748.734375"/>
      <use xlink:href="#DejaVuSans-69" x="800.833984"/>
      <use xlink:href="#DejaVuSans-74" x="828.617188"/>
      <use xlink:href="#DejaVuSans-79" x="867.826172"/>
     </g>
    </g>
   </g>
   <g id="line2d_14">
    <path d="M 73.832727 295.487999 
L 77.112066 295.487931 
L 80.391405 295.487758 
L 83.670744 295.487343 
L 86.950083 295.48639 
L 90.229421 295.484314 
L 93.50876 295.480013 
L 96.788099 295.471546 
L 100.067438 295.455705 
L 103.346777 295.427545 
L 106.626116 295.379985 
L 109.905455 295.30366 
L 113.184793 295.187257 
L 116.464132 295.018461 
L 119.743471 294.785515 
L 123.02281 294.479088 
L 126.302149 294.093872 
L 129.581488 293.629208 
L 132.860826 293.088181 
L 136.140165 292.475078 
L 139.419504 291.791795 
L 142.698843 291.034356 
L 145.978182 290.190895 
L 149.257521 289.242132 
L 152.53686 288.164492 
L 155.816198 286.935038 
L 159.095537 285.536632 
L 162.374876 283.961514 
L 165.654215 282.211932 
L 168.933554 280.297313 
L 172.212893 278.228481 
L 175.492231 276.010282 
L 178.77157 273.63443 
L 182.050909 271.074362 
L 185.330248 268.283403 
L 188.609587 265.19683 
L 191.888926 261.737694 
L 195.168264 257.825829 
L 198.447603 253.389343 
L 201.726942 248.377904 
L 205.006281 242.776772 
L 208.28562 236.619726 
L 211.564959 229.9979 
L 214.844298 223.060746 
L 218.123636 216.005912 
L 221.402975 209.057004 
L 224.682314 202.431755 
L 227.961653 196.306695 
L 231.240992 190.786531 
L 234.520331 185.885963 
L 237.799669 181.528812 
L 241.079008 177.565 
L 244.358347 173.801859 
L 247.637686 170.043486 
L 250.917025 166.130788 
L 254.196364 161.975135 
L 257.475702 157.579575 
L 260.755041 153.043331 
L 264.03438 148.547844 
L 267.313719 144.326099 
L 270.593058 140.620679 
L 273.872397 137.63869 
L 277.151736 135.512377 
L 280.431074 134.272417 
L 283.710413 133.837647 
L 286.989752 134.021773 
L 290.269091 134.555614 
L 293.54843 135.12279 
L 296.827769 135.406333 
L 300.107107 135.142404 
L 303.386446 134.174733 
L 306.665785 132.5005 
L 309.945124 130.297003 
L 313.224463 127.920069 
L 316.503802 125.870301 
L 319.78314 124.730562 
L 323.062479 125.085272 
L 326.341818 127.436593 
L 329.621157 132.132873 
L 332.900496 139.320995 
L 336.179835 148.928189 
L 339.459174 160.672709 
L 342.738512 174.098449 
L 346.017851 188.626551 
L 349.29719 203.616653 
L 352.576529 218.430719 
L 355.855868 232.49246 
L 359.135207 245.33564 
L 362.414545 256.635584 
L 365.693884 266.220584 
L 368.973223 274.063375 
L 372.252562 280.256454 
L 375.531901 284.977639 
L 378.81124 288.453059 
L 382.090579 290.923745 
L 385.369917 292.619838 
L 388.649256 293.743883 
L 391.928595 294.462685 
L 395.207934 294.905919 
L 398.487273 295.16924 
" clip-path="url(#p1440c8d7a8)" style="fill: none; stroke: #1f77b4; stroke-width: 1.5; stroke-linecap: square"/>
   </g>
   <g id="line2d_15">
    <path d="M 73.832727 283.755366 
L 77.112066 277.686963 
L 80.391405 269.383499 
L 83.670744 258.476907 
L 86.950083 244.737198 
L 90.229421 228.155784 
L 93.50876 209.015463 
L 96.788099 187.927334 
L 100.067438 165.817828 
L 103.346777 143.85763 
L 106.626116 123.337015 
L 109.905455 105.505788 
L 113.184793 91.406522 
L 116.464132 81.733585 
L 119.743471 76.745961 
L 123.02281 76.25023 
L 126.302149 79.654601 
L 129.581488 86.079939 
L 132.860826 94.503284 
L 136.140165 103.9055 
L 139.419504 113.397507 
L 142.698843 122.307267 
L 145.978182 130.219727 
L 149.257521 136.971642 
L 152.53686 142.610782 
L 155.816198 147.33343 
L 159.095537 151.415029 
L 162.374876 155.146974 
L 165.654215 158.788447 
L 168.933554 162.537355 
L 172.212893 166.519728 
L 175.492231 170.793601 
L 178.77157 175.36184 
L 182.050909 180.188584 
L 185.330248 185.215338 
L 188.609587 190.374582 
L 191.888926 195.600154 
L 195.168264 200.834436 
L 198.447603 206.032432 
L 201.726942 211.162649 
L 205.006281 216.204656 
L 208.28562 221.143596 
L 211.564959 225.962727 
L 214.844298 230.63591 
L 218.123636 235.122439 
L 221.402975 239.36635 
L 224.682314 243.301243 
L 227.961653 246.860038 
L 231.240992 249.98743 
L 234.520331 252.651725 
L 237.799669 254.852654 
L 241.079008 256.622819 
L 244.358347 258.022197 
L 247.637686 259.127175 
L 250.917025 260.017059 
L 254.196364 260.761632 
L 257.475702 261.412777 
L 260.755041 262.001866 
L 264.03438 262.542911 
L 267.313719 263.039997 
L 270.593058 263.496614 
L 273.872397 263.924301 
L 277.151736 264.348504 
L 280.431074 264.810346 
L 283.710413 265.364018 
L 286.989752 266.070375 
L 290.269091 266.988043 
L 293.54843 268.163768 
L 296.827769 269.623861 
L 300.107107 271.368402 
L 303.386446 273.369307 
L 306.665785 275.572648 
L 309.945124 277.904764 
L 313.224463 280.280985 
L 316.503802 282.615365 
L 319.78314 284.829741 
L 323.062479 286.860784 
L 326.341818 288.664218 
L 329.621157 290.216056 
L 332.900496 291.511234 
L 336.179835 292.560379 
L 339.459174 293.38559 
L 342.738512 294.016004 
L 346.017851 294.483787 
L 349.29719 294.820892 
L 352.576529 295.05676 
L 355.855868 295.216928 
L 359.135207 295.322433 
L 362.414545 295.389811 
L 365.693884 295.431502 
L 368.973223 295.456484 
L 372.252562 295.47097 
L 375.531901 295.479096 
L 378.81124 295.483503 
L 382.090579 295.485813 
L 385.369917 295.486982 
L 388.649256 295.487553 
L 391.928595 295.487823 
L 395.207934 295.487946 
L 398.487273 295.488 
" clip-path="url(#p1440c8d7a8)" style="fill: none; stroke: #ff7f0e; stroke-width: 1.5; stroke-linecap: square"/>
   </g>
   <g id="line2d_16">
    <path d="M 73.832727 285.607402 
L 77.112066 283.058387 
L 80.391405 280.076191 
L 83.670744 276.650051 
L 86.950083 272.785861 
L 90.229421 268.508742 
L 93.50876 263.864568 
L 96.788099 258.920134 
L 100.067438 253.761759 
L 103.346777 248.492244 
L 106.626116 243.226283 
L 109.905455 238.084581 
L 113.184793 233.187112 
L 116.464132 228.64605 
L 119.743471 224.558972 
L 123.02281 221.00295 
L 126.302149 218.03004 
L 129.581488 215.664576 
L 132.860826 213.902487 
L 136.140165 212.712663 
L 139.419504 212.040197 
L 142.698843 211.811166 
L 145.978182 211.938493 
L 149.257521 212.328369 
L 152.53686 212.886689 
L 155.816198 213.525021 
L 159.095537 214.165699 
L 162.374876 214.745754 
L 165.654215 215.219515 
L 168.933554 215.559833 
L 172.212893 215.757979 
L 175.492231 215.822369 
L 178.77157 215.776283 
L 182.050909 215.654831 
L 185.330248 215.50137 
L 188.609587 215.363628 
L 191.888926 215.289749 
L 195.168264 215.324479 
L 198.447603 215.505675 
L 201.726942 215.861337 
L 205.006281 216.407311 
L 208.28562 217.145799 
L 211.564959 218.06477 
L 214.844298 219.138317 
L 218.123636 220.327944 
L 221.402975 221.584714 
L 224.682314 222.852098 
L 227.961653 224.069349 
L 231.240992 225.175137 
L 234.520331 226.111196 
L 237.799669 226.825702 
L 241.079008 227.276166 
L 244.358347 227.43162 
L 247.637686 227.273989 
L 250.917025 226.798581 
L 254.196364 226.013711 
L 257.475702 224.939541 
L 260.755041 223.606288 
L 264.03438 222.051973 
L 267.313719 220.319921 
L 270.593058 218.456224 
L 273.872397 216.507368 
L 277.151736 214.518193 
L 280.431074 212.530337 
L 283.710413 210.581262 
L 286.989752 208.703911 
L 290.269091 206.926999 
L 293.54843 205.275899 
L 296.827769 203.774012 
L 300.107107 202.444467 
L 303.386446 201.311949 
L 306.665785 200.404403 
L 309.945124 199.754361 
L 313.224463 199.399613 
L 316.503802 199.383017 
L 319.78314 199.751279 
L 323.062479 200.552669 
L 326.341818 201.833757 
L 329.621157 203.635402 
L 332.900496 205.988352 
L 336.179835 208.908912 
L 339.459174 212.3952 
L 342.738512 216.424452 
L 346.017851 220.95181 
L 349.29719 225.910818 
L 352.576529 231.215706 
L 355.855868 236.765315 
L 359.135207 242.448331 
L 362.414545 248.149351 
L 365.693884 253.755203 
L 368.973223 259.160947 
L 372.252562 264.275027 
L 375.531901 269.023172 
L 378.81124 273.350805 
L 382.090579 277.223873 
L 385.369917 280.628217 
L 388.649256 283.567689 
L 391.928595 286.061349 
L 395.207934 288.140107 
L 398.487273 289.843163 
" clip-path="url(#p1440c8d7a8)" style="fill: none; stroke: #2ca02c; stroke-width: 1.5; stroke-linecap: square"/>
   </g>
   <g id="line2d_17">
    <path d="M 73.832727 295.483516 
L 77.112066 295.478926 
L 80.391405 295.470331 
L 83.670744 295.454852 
L 86.950083 295.42804 
L 90.229421 295.383373 
L 93.50876 295.311813 
L 96.788099 295.201569 
L 100.067438 295.038257 
L 103.346777 294.805638 
L 106.626116 294.487049 
L 109.905455 294.067496 
L 113.184793 293.536174 
L 116.464132 292.888966 
L 119.743471 292.130335 
L 123.02281 291.273981 
L 126.302149 290.341805 
L 129.581488 289.361084 
L 132.860826 288.360148 
L 136.140165 287.363335 
L 139.419504 286.386257 
L 142.698843 285.432472 
L 145.978182 284.49245 
L 149.257521 283.54523 
L 152.53686 282.562601 
L 155.816198 281.514988 
L 159.095537 280.377779 
L 162.374876 279.13659 
L 165.654215 277.790097 
L 168.933554 276.349514 
L 172.212893 274.834608 
L 175.492231 273.267022 
L 178.77157 271.662586 
L 182.050909 270.024857 
L 185.330248 268.34213 
L 188.609587 266.589538 
L 191.888926 264.736609 
L 195.168264 262.759051 
L 198.447603 260.652016 
L 201.726942 258.441187 
L 205.006281 256.188025 
L 208.28562 253.986655 
L 211.564959 251.951829 
L 214.844298 250.1998 
L 218.123636 248.825976 
L 221.402975 247.884372 
L 224.682314 247.37367 
L 227.961653 247.23323 
L 231.240992 247.349939 
L 234.520331 247.574182 
L 237.799669 247.741012 
L 241.079008 247.691522 
L 244.358347 247.289639 
L 247.637686 246.430983 
L 250.917025 245.042674 
L 254.196364 243.075399 
L 257.475702 240.491081 
L 260.755041 237.250694 
L 264.03438 233.306705 
L 267.313719 228.603476 
L 270.593058 223.086717 
L 273.872397 216.720485 
L 277.151736 209.507642 
L 280.431074 201.508048 
L 283.710413 192.84832 
L 286.989752 183.718199 
L 290.269091 174.351167 
L 293.54843 164.990632 
L 296.827769 155.846953 
L 300.107107 147.054016 
L 303.386446 138.636115 
L 306.665785 130.49583 
L 309.945124 122.430996 
L 313.224463 114.183835 
L 316.503802 105.518345 
L 319.78314 96.314377 
L 323.062479 86.659969 
L 326.341818 76.919542 
L 329.621157 67.75611 
L 332.900496 60.092013 
L 336.179835 55.004518 
L 339.459174 53.568 
L 342.738512 56.669574 
L 346.017851 64.835491 
L 349.29719 78.107311 
L 352.576529 95.998157 
L 355.855868 117.541731 
L 359.135207 141.42498 
L 362.414545 166.175702 
L 365.693884 190.364724 
L 368.973223 212.781848 
L 372.252562 232.554773 
L 375.531901 249.196881 
L 378.81124 262.587527 
L 382.090579 272.902174 
L 385.369917 280.516439 
L 388.649256 285.907597 
L 391.928595 289.571144 
L 395.207934 291.961798 
L 398.487273 293.460495 
" clip-path="url(#p1440c8d7a8)" style="fill: none; stroke: #d62728; stroke-width: 1.5; stroke-linecap: square"/>
   </g>
   <g id="patch_3">
    <path d="M 57.6 307.584 
L 57.6 41.472 
" style="fill: none; stroke: #000000; stroke-width: 0.8; stroke-linejoin: miter; stroke-linecap: square"/>
   </g>
   <g id="patch_4">
    <path d="M 414.72 307.584 
L 414.72 41.472 
" style="fill: none; stroke: #000000; stroke-width: 0.8; stroke-linejoin: miter; stroke-linecap: square"/>
   </g>
   <g id="patch_5">
    <path d="M 57.6 307.584 
L 414.72 307.584 
" style="fill: none; stroke: #000000; stroke-width: 0.8; stroke-linejoin: miter; stroke-linecap: square"/>
   </g>
   <g id="patch_6">
    <path d="M 57.6 41.472 
L 414.72 41.472 
" style="fill: none; stroke: #000000; stroke-width: 0.8; stroke-linejoin: miter; stroke-linecap: square"/>
   </g>
   <g id="text_16">
    <!-- Density plot of episode_4500_profits/storage_cost -->
    <g transform="translate(86.279063 35.472)scale(0.12 -0.12)">
     <defs>
      <path id="DejaVuSans-44" d="M 1259 4147 
L 1259 519 
L 2022 519 
Q 2988 519 3436 956 
Q 3884 1394 3884 2338 
Q 3884 3275 3436 3711 
Q 2988 4147 2022 4147 
L 1259 4147 
z
M 628 4666 
L 1925 4666 
Q 3281 4666 3915 4102 
Q 4550 3538 4550 2338 
Q 4550 1131 3912 565 
Q 3275 0 1925 0 
L 628 0 
L 628 4666 
z
" transform="scale(0.015625)"/>
     </defs>
     <use xlink:href="#DejaVuSans-44"/>
     <use xlink:href="#DejaVuSans-65" x="77.001953"/>
     <use xlink:href="#DejaVuSans-6e" x="138.525391"/>
     <use xlink:href="#DejaVuSans-73" x="201.904297"/>
     <use xlink:href="#DejaVuSans-69" x="254.003906"/>
     <use xlink:href="#DejaVuSans-74" x="281.787109"/>
     <use xlink:href="#DejaVuSans-79" x="320.996094"/>
     <use xlink:href="#DejaVuSans-20" x="380.175781"/>
     <use xlink:href="#DejaVuSans-70" x="411.962891"/>
     <use xlink:href="#DejaVuSans-6c" x="475.439453"/>
     <use xlink:href="#DejaVuSans-6f" x="503.222656"/>
     <use xlink:href="#DejaVuSans-74" x="564.404297"/>
     <use xlink:href="#DejaVuSans-20" x="603.613281"/>
     <use xlink:href="#DejaVuSans-6f" x="635.400391"/>
     <use xlink:href="#DejaVuSans-66" x="696.582031"/>
     <use xlink:href="#DejaVuSans-20" x="731.787109"/>
     <use xlink:href="#DejaVuSans-65" x="763.574219"/>
     <use xlink:href="#DejaVuSans-70" x="825.097656"/>
     <use xlink:href="#DejaVuSans-69" x="888.574219"/>
     <use xlink:href="#DejaVuSans-73" x="916.357422"/>
     <use xlink:href="#DejaVuSans-6f" x="968.457031"/>
     <use xlink:href="#DejaVuSans-64" x="1029.638672"/>
     <use xlink:href="#DejaVuSans-65" x="1093.115234"/>
     <use xlink:href="#DejaVuSans-5f" x="1154.638672"/>
     <use xlink:href="#DejaVuSans-34" x="1204.638672"/>
     <use xlink:href="#DejaVuSans-35" x="1268.261719"/>
     <use xlink:href="#DejaVuSans-30" x="1331.884766"/>
     <use xlink:href="#DejaVuSans-30" x="1395.507812"/>
     <use xlink:href="#DejaVuSans-5f" x="1459.130859"/>
     <use xlink:href="#DejaVuSans-70" x="1509.130859"/>
     <use xlink:href="#DejaVuSans-72" x="1572.607422"/>
     <use xlink:href="#DejaVuSans-6f" x="1611.470703"/>
     <use xlink:href="#DejaVuSans-66" x="1672.652344"/>
     <use xlink:href="#DejaVuSans-69" x="1707.857422"/>
     <use xlink:href="#DejaVuSans-74" x="1735.640625"/>
     <use xlink:href="#DejaVuSans-73" x="1774.849609"/>
     <use xlink:href="#DejaVuSans-2f" x="1826.949219"/>
     <use xlink:href="#DejaVuSans-73" x="1860.640625"/>
     <use xlink:href="#DejaVuSans-74" x="1912.740234"/>
     <use xlink:href="#DejaVuSans-6f" x="1951.949219"/>
     <use xlink:href="#DejaVuSans-72" x="2013.130859"/>
     <use xlink:href="#DejaVuSans-61" x="2054.244141"/>
     <use xlink:href="#DejaVuSans-67" x="2115.523438"/>
     <use xlink:href="#DejaVuSans-65" x="2179"/>
     <use xlink:href="#DejaVuSans-5f" x="2240.523438"/>
     <use xlink:href="#DejaVuSans-63" x="2290.523438"/>
     <use xlink:href="#DejaVuSans-6f" x="2345.503906"/>
     <use xlink:href="#DejaVuSans-73" x="2406.685547"/>
     <use xlink:href="#DejaVuSans-74" x="2458.785156"/>
    </g>
   </g>
   <g id="legend_1">
    <g id="patch_7">
     <path d="M 64.6 108.462625 
L 270.375 108.462625 
Q 272.375 108.462625 272.375 106.462625 
L 272.375 48.472 
Q 272.375 46.472 270.375 46.472 
L 64.6 46.472 
Q 62.6 46.472 62.6 48.472 
L 62.6 106.462625 
Q 62.6 108.462625 64.6 108.462625 
z
" style="fill: #ffffff; opacity: 0.8; stroke: #cccccc; stroke-linejoin: miter"/>
    </g>
    <g id="line2d_18">
     <path d="M 66.6 54.570438 
L 76.6 54.570438 
L 86.6 54.570438 
" style="fill: none; stroke: #1f77b4; stroke-width: 1.5; stroke-linecap: square"/>
    </g>
    <g id="text_17">
     <!-- StableBaselinesPPO_episode_4500 -->
     <g transform="translate(94.6 58.070438)scale(0.1 -0.1)">
      <defs>
       <path id="DejaVuSans-53" d="M 3425 4513 
L 3425 3897 
Q 3066 4069 2747 4153 
Q 2428 4238 2131 4238 
Q 1616 4238 1336 4038 
Q 1056 3838 1056 3469 
Q 1056 3159 1242 3001 
Q 1428 2844 1947 2747 
L 2328 2669 
Q 3034 2534 3370 2195 
Q 3706 1856 3706 1288 
Q 3706 609 3251 259 
Q 2797 -91 1919 -91 
Q 1588 -91 1214 -16 
Q 841 59 441 206 
L 441 856 
Q 825 641 1194 531 
Q 1563 422 1919 422 
Q 2459 422 2753 634 
Q 3047 847 3047 1241 
Q 3047 1584 2836 1778 
Q 2625 1972 2144 2069 
L 1759 2144 
Q 1053 2284 737 2584 
Q 422 2884 422 3419 
Q 422 4038 858 4394 
Q 1294 4750 2059 4750 
Q 2388 4750 2728 4690 
Q 3069 4631 3425 4513 
z
" transform="scale(0.015625)"/>
       <path id="DejaVuSans-42" d="M 1259 2228 
L 1259 519 
L 2272 519 
Q 2781 519 3026 730 
Q 3272 941 3272 1375 
Q 3272 1813 3026 2020 
Q 2781 2228 2272 2228 
L 1259 2228 
z
M 1259 4147 
L 1259 2741 
L 2194 2741 
Q 2656 2741 2882 2914 
Q 3109 3088 3109 3444 
Q 3109 3797 2882 3972 
Q 2656 4147 2194 4147 
L 1259 4147 
z
M 628 4666 
L 2241 4666 
Q 2963 4666 3353 4366 
Q 3744 4066 3744 3513 
Q 3744 3084 3544 2831 
Q 3344 2578 2956 2516 
Q 3422 2416 3680 2098 
Q 3938 1781 3938 1306 
Q 3938 681 3513 340 
Q 3088 0 2303 0 
L 628 0 
L 628 4666 
z
" transform="scale(0.015625)"/>
       <path id="DejaVuSans-4f" d="M 2522 4238 
Q 1834 4238 1429 3725 
Q 1025 3213 1025 2328 
Q 1025 1447 1429 934 
Q 1834 422 2522 422 
Q 3209 422 3611 934 
Q 4013 1447 4013 2328 
Q 4013 3213 3611 3725 
Q 3209 4238 2522 4238 
z
M 2522 4750 
Q 3503 4750 4090 4092 
Q 4678 3434 4678 2328 
Q 4678 1225 4090 567 
Q 3503 -91 2522 -91 
Q 1538 -91 948 565 
Q 359 1222 359 2328 
Q 359 3434 948 4092 
Q 1538 4750 2522 4750 
z
" transform="scale(0.015625)"/>
      </defs>
      <use xlink:href="#DejaVuSans-53"/>
      <use xlink:href="#DejaVuSans-74" x="63.476562"/>
      <use xlink:href="#DejaVuSans-61" x="102.685547"/>
      <use xlink:href="#DejaVuSans-62" x="163.964844"/>
      <use xlink:href="#DejaVuSans-6c" x="227.441406"/>
      <use xlink:href="#DejaVuSans-65" x="255.224609"/>
      <use xlink:href="#DejaVuSans-42" x="316.748047"/>
      <use xlink:href="#DejaVuSans-61" x="385.351562"/>
      <use xlink:href="#DejaVuSans-73" x="446.630859"/>
      <use xlink:href="#DejaVuSans-65" x="498.730469"/>
      <use xlink:href="#DejaVuSans-6c" x="560.253906"/>
      <use xlink:href="#DejaVuSans-69" x="588.037109"/>
      <use xlink:href="#DejaVuSans-6e" x="615.820312"/>
      <use xlink:href="#DejaVuSans-65" x="679.199219"/>
      <use xlink:href="#DejaVuSans-73" x="740.722656"/>
      <use xlink:href="#DejaVuSans-50" x="792.822266"/>
      <use xlink:href="#DejaVuSans-50" x="853.125"/>
      <use xlink:href="#DejaVuSans-4f" x="913.427734"/>
      <use xlink:href="#DejaVuSans-5f" x="992.138672"/>
      <use xlink:href="#DejaVuSans-65" x="1042.138672"/>
      <use xlink:href="#DejaVuSans-70" x="1103.662109"/>
      <use xlink:href="#DejaVuSans-69" x="1167.138672"/>
      <use xlink:href="#DejaVuSans-73" x="1194.921875"/>
      <use xlink:href="#DejaVuSans-6f" x="1247.021484"/>
      <use xlink:href="#DejaVuSans-64" x="1308.203125"/>
      <use xlink:href="#DejaVuSans-65" x="1371.679688"/>
      <use xlink:href="#DejaVuSans-5f" x="1433.203125"/>
      <use xlink:href="#DejaVuSans-34" x="1483.203125"/>
      <use xlink:href="#DejaVuSans-35" x="1546.826172"/>
      <use xlink:href="#DejaVuSans-30" x="1610.449219"/>
      <use xlink:href="#DejaVuSans-30" x="1674.072266"/>
     </g>
    </g>
    <g id="line2d_19">
     <path d="M 66.6 69.526688 
L 76.6 69.526688 
L 86.6 69.526688 
" style="fill: none; stroke: #ff7f0e; stroke-width: 1.5; stroke-linecap: square"/>
    </g>
    <g id="text_18">
     <!-- Fixed-Price -->
     <g transform="translate(94.6 73.026688)scale(0.1 -0.1)">
      <defs>
       <path id="DejaVuSans-46" d="M 628 4666 
L 3309 4666 
L 3309 4134 
L 1259 4134 
L 1259 2759 
L 3109 2759 
L 3109 2228 
L 1259 2228 
L 1259 0 
L 628 0 
L 628 4666 
z
" transform="scale(0.015625)"/>
       <path id="DejaVuSans-78" d="M 3513 3500 
L 2247 1797 
L 3578 0 
L 2900 0 
L 1881 1375 
L 863 0 
L 184 0 
L 1544 1831 
L 300 3500 
L 978 3500 
L 1906 2253 
L 2834 3500 
L 3513 3500 
z
" transform="scale(0.015625)"/>
       <path id="DejaVuSans-2d" d="M 313 2009 
L 1997 2009 
L 1997 1497 
L 313 1497 
L 313 2009 
z
" transform="scale(0.015625)"/>
      </defs>
      <use xlink:href="#DejaVuSans-46"/>
      <use xlink:href="#DejaVuSans-69" x="50.269531"/>
      <use xlink:href="#DejaVuSans-78" x="78.052734"/>
      <use xlink:href="#DejaVuSans-65" x="134.107422"/>
      <use xlink:href="#DejaVuSans-64" x="195.630859"/>
      <use xlink:href="#DejaVuSans-2d" x="259.107422"/>
      <use xlink:href="#DejaVuSans-50" x="295.191406"/>
      <use xlink:href="#DejaVuSans-72" x="353.744141"/>
      <use xlink:href="#DejaVuSans-69" x="394.857422"/>
      <use xlink:href="#DejaVuSans-63" x="422.640625"/>
      <use xlink:href="#DejaVuSans-65" x="477.621094"/>
     </g>
    </g>
    <g id="line2d_20">
     <path d="M 66.6 84.204813 
L 76.6 84.204813 
L 86.6 84.204813 
" style="fill: none; stroke: #2ca02c; stroke-width: 1.5; stroke-linecap: square"/>
    </g>
    <g id="text_19">
     <!-- CE-Rebuy Competitive -->
     <g transform="translate(94.6 87.704813)scale(0.1 -0.1)">
      <defs>
       <path id="DejaVuSans-43" d="M 4122 4306 
L 4122 3641 
Q 3803 3938 3442 4084 
Q 3081 4231 2675 4231 
Q 1875 4231 1450 3742 
Q 1025 3253 1025 2328 
Q 1025 1406 1450 917 
Q 1875 428 2675 428 
Q 3081 428 3442 575 
Q 3803 722 4122 1019 
L 4122 359 
Q 3791 134 3420 21 
Q 3050 -91 2638 -91 
Q 1578 -91 968 557 
Q 359 1206 359 2328 
Q 359 3453 968 4101 
Q 1578 4750 2638 4750 
Q 3056 4750 3426 4639 
Q 3797 4528 4122 4306 
z
" transform="scale(0.015625)"/>
       <path id="DejaVuSans-45" d="M 628 4666 
L 3578 4666 
L 3578 4134 
L 1259 4134 
L 1259 2753 
L 3481 2753 
L 3481 2222 
L 1259 2222 
L 1259 531 
L 3634 531 
L 3634 0 
L 628 0 
L 628 4666 
z
" transform="scale(0.015625)"/>
       <path id="DejaVuSans-52" d="M 2841 2188 
Q 3044 2119 3236 1894 
Q 3428 1669 3622 1275 
L 4263 0 
L 3584 0 
L 2988 1197 
Q 2756 1666 2539 1819 
Q 2322 1972 1947 1972 
L 1259 1972 
L 1259 0 
L 628 0 
L 628 4666 
L 2053 4666 
Q 2853 4666 3247 4331 
Q 3641 3997 3641 3322 
Q 3641 2881 3436 2590 
Q 3231 2300 2841 2188 
z
M 1259 4147 
L 1259 2491 
L 2053 2491 
Q 2509 2491 2742 2702 
Q 2975 2913 2975 3322 
Q 2975 3731 2742 3939 
Q 2509 4147 2053 4147 
L 1259 4147 
z
" transform="scale(0.015625)"/>
       <path id="DejaVuSans-75" d="M 544 1381 
L 544 3500 
L 1119 3500 
L 1119 1403 
Q 1119 906 1312 657 
Q 1506 409 1894 409 
Q 2359 409 2629 706 
Q 2900 1003 2900 1516 
L 2900 3500 
L 3475 3500 
L 3475 0 
L 2900 0 
L 2900 538 
Q 2691 219 2414 64 
Q 2138 -91 1772 -91 
Q 1169 -91 856 284 
Q 544 659 544 1381 
z
M 1991 3584 
L 1991 3584 
z
" transform="scale(0.015625)"/>
       <path id="DejaVuSans-6d" d="M 3328 2828 
Q 3544 3216 3844 3400 
Q 4144 3584 4550 3584 
Q 5097 3584 5394 3201 
Q 5691 2819 5691 2113 
L 5691 0 
L 5113 0 
L 5113 2094 
Q 5113 2597 4934 2840 
Q 4756 3084 4391 3084 
Q 3944 3084 3684 2787 
Q 3425 2491 3425 1978 
L 3425 0 
L 2847 0 
L 2847 2094 
Q 2847 2600 2669 2842 
Q 2491 3084 2119 3084 
Q 1678 3084 1418 2786 
Q 1159 2488 1159 1978 
L 1159 0 
L 581 0 
L 581 3500 
L 1159 3500 
L 1159 2956 
Q 1356 3278 1631 3431 
Q 1906 3584 2284 3584 
Q 2666 3584 2933 3390 
Q 3200 3197 3328 2828 
z
" transform="scale(0.015625)"/>
       <path id="DejaVuSans-76" d="M 191 3500 
L 800 3500 
L 1894 563 
L 2988 3500 
L 3597 3500 
L 2284 0 
L 1503 0 
L 191 3500 
z
" transform="scale(0.015625)"/>
      </defs>
      <use xlink:href="#DejaVuSans-43"/>
      <use xlink:href="#DejaVuSans-45" x="69.824219"/>
      <use xlink:href="#DejaVuSans-2d" x="133.007812"/>
      <use xlink:href="#DejaVuSans-52" x="169.091797"/>
      <use xlink:href="#DejaVuSans-65" x="234.074219"/>
      <use xlink:href="#DejaVuSans-62" x="295.597656"/>
      <use xlink:href="#DejaVuSans-75" x="359.074219"/>
      <use xlink:href="#DejaVuSans-79" x="422.453125"/>
      <use xlink:href="#DejaVuSans-20" x="481.632812"/>
      <use xlink:href="#DejaVuSans-43" x="513.419922"/>
      <use xlink:href="#DejaVuSans-6f" x="583.244141"/>
      <use xlink:href="#DejaVuSans-6d" x="644.425781"/>
      <use xlink:href="#DejaVuSans-70" x="741.837891"/>
      <use xlink:href="#DejaVuSans-65" x="805.314453"/>
      <use xlink:href="#DejaVuSans-74" x="866.837891"/>
      <use xlink:href="#DejaVuSans-69" x="906.046875"/>
      <use xlink:href="#DejaVuSans-74" x="933.830078"/>
      <use xlink:href="#DejaVuSans-69" x="973.039062"/>
      <use xlink:href="#DejaVuSans-76" x="1000.822266"/>
      <use xlink:href="#DejaVuSans-65" x="1060.001953"/>
     </g>
    </g>
    <g id="line2d_21">
     <path d="M 66.6 98.882938 
L 76.6 98.882938 
L 86.6 98.882938 
" style="fill: none; stroke: #d62728; stroke-width: 1.5; stroke-linecap: square"/>
    </g>
    <g id="text_20">
     <!-- Storage-Minimizer -->
     <g transform="translate(94.6 102.382938)scale(0.1 -0.1)">
      <defs>
       <path id="DejaVuSans-4d" d="M 628 4666 
L 1569 4666 
L 2759 1491 
L 3956 4666 
L 4897 4666 
L 4897 0 
L 4281 0 
L 4281 4097 
L 3078 897 
L 2444 897 
L 1241 4097 
L 1241 0 
L 628 0 
L 628 4666 
z
" transform="scale(0.015625)"/>
       <path id="DejaVuSans-7a" d="M 353 3500 
L 3084 3500 
L 3084 2975 
L 922 459 
L 3084 459 
L 3084 0 
L 275 0 
L 275 525 
L 2438 3041 
L 353 3041 
L 353 3500 
z
" transform="scale(0.015625)"/>
      </defs>
      <use xlink:href="#DejaVuSans-53"/>
      <use xlink:href="#DejaVuSans-74" x="63.476562"/>
      <use xlink:href="#DejaVuSans-6f" x="102.685547"/>
      <use xlink:href="#DejaVuSans-72" x="163.867188"/>
      <use xlink:href="#DejaVuSans-61" x="204.980469"/>
      <use xlink:href="#DejaVuSans-67" x="266.259766"/>
      <use xlink:href="#DejaVuSans-65" x="329.736328"/>
      <use xlink:href="#DejaVuSans-2d" x="391.259766"/>
      <use xlink:href="#DejaVuSans-4d" x="427.34375"/>
      <use xlink:href="#DejaVuSans-69" x="513.623047"/>
      <use xlink:href="#DejaVuSans-6e" x="541.40625"/>
      <use xlink:href="#DejaVuSans-69" x="604.785156"/>
      <use xlink:href="#DejaVuSans-6d" x="632.568359"/>
      <use xlink:href="#DejaVuSans-69" x="729.980469"/>
      <use xlink:href="#DejaVuSans-7a" x="757.763672"/>
      <use xlink:href="#DejaVuSans-65" x="810.253906"/>
      <use xlink:href="#DejaVuSans-72" x="871.777344"/>
     </g>
    </g>
   </g>
  </g>
 </g>
 <defs>
  <clipPath id="p1440c8d7a8">
   <rect x="57.6" y="41.472" width="357.12" height="266.112"/>
  </clipPath>
 </defs>
</svg>
