<?xml version="1.0" encoding="utf-8" standalone="no"?>
<!DOCTYPE svg PUBLIC "-//W3C//DTD SVG 1.1//EN"
  "http://www.w3.org/Graphics/SVG/1.1/DTD/svg11.dtd">
<svg xmlns:xlink="http://www.w3.org/1999/xlink" width="460.8pt" height="345.6pt" viewBox="0 0 460.8 345.6" xmlns="http://www.w3.org/2000/svg" version="1.1">
 <metadata>
  <rdf:RDF xmlns:dc="http://purl.org/dc/elements/1.1/" xmlns:cc="http://creativecommons.org/ns#" xmlns:rdf="http://www.w3.org/1999/02/22-rdf-syntax-ns#">
   <cc:Work>
    <dc:type rdf:resource="http://purl.org/dc/dcmitype/StillImage"/>
    <dc:date>2022-06-16T11:36:22.374613</dc:date>
    <dc:format>image/svg+xml</dc:format>
    <dc:creator>
     <cc:Agent>
      <dc:title>Matplotlib v3.5.2, https://matplotlib.org/</dc:title>
     </cc:Agent>
    </dc:creator>
   </cc:Work>
  </rdf:RDF>
 </metadata>
 <defs>
  <style type="text/css">*{stroke-linejoin: round; stroke-linecap: butt}</style>
 </defs>
 <g id="figure_1">
  <g id="patch_1">
   <path d="M 0 345.6 
L 460.8 345.6 
L 460.8 0 
L 0 0 
z
" style="fill: #ffffff"/>
  </g>
  <g id="axes_1">
   <g id="patch_2">
    <path d="M 57.6 307.584 
L 414.72 307.584 
L 414.72 41.472 
L 57.6 41.472 
z
" style="fill: #ffffff"/>
   </g>
   <g id="PolyCollection_1">
    <path d="M 113.870201 288.673352 
L 108.753974 288.673352 
L 108.357013 286.728768 
L 107.912953 284.784184 
L 107.415485 282.839601 
L 106.858109 280.895017 
L 106.234676 278.950433 
L 105.539976 277.005849 
L 104.77029 275.061265 
L 103.923842 273.116681 
L 103.001094 271.172097 
L 102.004863 269.227513 
L 100.940252 267.28293 
L 99.814423 265.338346 
L 98.63625 263.393762 
L 97.41592 261.449178 
L 96.164516 259.504594 
L 94.893648 257.56001 
L 93.615144 255.615426 
L 92.340813 253.670843 
L 91.08225 251.726259 
L 89.850656 249.781675 
L 88.656593 247.837091 
L 87.509656 245.892507 
L 86.418002 243.947923 
L 85.387775 242.003339 
L 84.422479 240.058755 
L 83.52241 238.114172 
L 82.684316 236.169588 
L 81.901412 234.225004 
L 81.163898 232.28042 
L 80.460011 230.335836 
L 79.777557 228.391252 
L 79.105762 226.446668 
L 78.437167 224.502085 
L 77.76927 222.557501 
L 77.105595 220.612917 
L 76.455966 218.668333 
L 75.835863 216.723749 
L 75.264916 214.779165 
L 74.764719 212.834581 
L 74.356283 210.889997 
L 74.057503 208.945414 
L 73.881011 207.00083 
L 73.832727 205.056246 
L 73.911294 203.111662 
L 74.108443 201.167078 
L 74.410204 199.222494 
L 74.798742 197.27791 
L 75.254542 195.333327 
L 75.758631 193.388743 
L 76.294562 191.444159 
L 76.849933 189.499575 
L 77.417318 187.554991 
L 77.994553 185.610407 
L 78.584415 183.665823 
L 79.193775 181.721239 
L 79.832346 179.776656 
L 80.511146 177.832072 
L 81.240842 175.887488 
L 82.030102 173.942904 
L 82.884109 171.99832 
L 83.803407 170.053736 
L 84.783207 168.109152 
L 85.813278 166.164569 
L 86.878483 164.219985 
L 87.959952 162.275401 
L 89.036767 160.330817 
L 90.087986 158.386233 
L 91.094739 156.441649 
L 92.042116 154.497065 
L 92.920607 152.552481 
L 93.726904 150.607898 
L 94.46398 148.663314 
L 95.140479 146.71873 
L 95.769518 144.774146 
L 96.367106 142.829562 
L 96.950361 140.884978 
L 97.535765 138.940394 
L 98.137602 136.99581 
L 98.766716 135.051227 
L 99.42967 133.106643 
L 100.128338 131.162059 
L 100.859921 129.217475 
L 101.617365 127.272891 
L 102.39012 125.328307 
L 103.165172 123.383723 
L 103.92824 121.43914 
L 104.665043 119.494556 
L 105.362517 117.549972 
L 106.009866 115.605388 
L 106.599348 113.660804 
L 107.126729 111.71622 
L 107.59138 109.771636 
L 107.995999 107.827052 
L 108.346041 105.882469 
L 108.648918 103.937885 
L 108.913073 101.993301 
L 109.147064 100.048717 
L 109.358745 98.104133 
L 109.554632 96.159549 
L 113.069543 96.159549 
L 113.069543 96.159549 
L 113.26543 98.104133 
L 113.477111 100.048717 
L 113.711102 101.993301 
L 113.975257 103.937885 
L 114.278133 105.882469 
L 114.628176 107.827052 
L 115.032795 109.771636 
L 115.497445 111.71622 
L 116.024827 113.660804 
L 116.614308 115.605388 
L 117.261657 117.549972 
L 117.959132 119.494556 
L 118.695935 121.43914 
L 119.459002 123.383723 
L 120.234054 125.328307 
L 121.00681 127.272891 
L 121.764254 129.217475 
L 122.495837 131.162059 
L 123.194505 133.106643 
L 123.857459 135.051227 
L 124.486573 136.99581 
L 125.088409 138.940394 
L 125.673814 140.884978 
L 126.257069 142.829562 
L 126.854656 144.774146 
L 127.483696 146.71873 
L 128.160194 148.663314 
L 128.897271 150.607898 
L 129.703567 152.552481 
L 130.582058 154.497065 
L 131.529435 156.441649 
L 132.536188 158.386233 
L 133.587408 160.330817 
L 134.664223 162.275401 
L 135.745691 164.219985 
L 136.810897 166.164569 
L 137.840968 168.109152 
L 138.820768 170.053736 
L 139.740066 171.99832 
L 140.594073 173.942904 
L 141.383332 175.887488 
L 142.113029 177.832072 
L 142.791829 179.776656 
L 143.430399 181.721239 
L 144.03976 183.665823 
L 144.629622 185.610407 
L 145.206856 187.554991 
L 145.774241 189.499575 
L 146.329613 191.444159 
L 146.865544 193.388743 
L 147.369633 195.333327 
L 147.825433 197.27791 
L 148.21397 199.222494 
L 148.515731 201.167078 
L 148.71288 203.111662 
L 148.791447 205.056246 
L 148.743164 207.00083 
L 148.566672 208.945414 
L 148.267891 210.889997 
L 147.859456 212.834581 
L 147.359259 214.779165 
L 146.788312 216.723749 
L 146.168209 218.668333 
L 145.51858 220.612917 
L 144.854905 222.557501 
L 144.187008 224.502085 
L 143.518413 226.446668 
L 142.846617 228.391252 
L 142.164164 230.335836 
L 141.460276 232.28042 
L 140.722762 234.225004 
L 139.939858 236.169588 
L 139.101764 238.114172 
L 138.201696 240.058755 
L 137.2364 242.003339 
L 136.206173 243.947923 
L 135.114519 245.892507 
L 133.967581 247.837091 
L 132.773519 249.781675 
L 131.541924 251.726259 
L 130.283362 253.670843 
L 129.00903 255.615426 
L 127.730527 257.56001 
L 126.459659 259.504594 
L 125.208255 261.449178 
L 123.987924 263.393762 
L 122.809752 265.338346 
L 121.683922 267.28293 
L 120.619312 269.227513 
L 119.623081 271.172097 
L 118.700332 273.116681 
L 117.853884 275.061265 
L 117.084199 277.005849 
L 116.389499 278.950433 
L 115.766066 280.895017 
L 115.208689 282.839601 
L 114.711221 284.784184 
L 114.267162 286.728768 
L 113.870201 288.673352 
z
" clip-path="url(#pea225c7b34)" style="fill: #1f77b4; fill-opacity: 0.3"/>
   </g>
   <g id="PolyCollection_2">
    <path d="M 196.461365 290.377014 
L 192.737743 290.377014 
L 192.443534 288.122673 
L 192.114245 285.868333 
L 191.743813 283.613992 
L 191.325393 281.359652 
L 190.851957 279.105311 
L 190.317066 276.850971 
L 189.715778 274.59663 
L 189.045523 272.342289 
L 188.306837 270.087949 
L 187.503794 267.833608 
L 186.644011 265.579268 
L 185.738195 263.324927 
L 184.799226 261.070586 
L 183.840899 258.816246 
L 182.876495 256.561905 
L 181.917397 254.307565 
L 180.971985 252.053224 
L 180.044977 249.798883 
L 179.137334 247.544543 
L 178.246732 245.290202 
L 177.368519 243.035862 
L 176.496985 240.781521 
L 175.626752 238.527181 
L 174.754026 236.27284 
L 173.877533 234.018499 
L 172.998956 231.764159 
L 172.122797 229.509818 
L 171.255649 227.255478 
L 170.404985 225.001137 
L 169.577626 222.746796 
L 168.778172 220.492456 
L 168.007669 218.238115 
L 167.262837 215.983775 
L 166.536064 213.729434 
L 165.81629 211.475093 
L 165.09073 209.220753 
L 164.347228 206.966412 
L 163.576873 204.712072 
L 162.776451 202.457731 
L 161.9503 200.203391 
L 161.111187 197.94905 
L 160.280024 195.694709 
L 159.484395 193.440369 
L 158.756076 191.186028 
L 158.127892 188.931688 
L 157.630373 186.677347 
L 157.288671 184.423006 
L 157.120194 182.168666 
L 157.133235 179.914325 
L 157.326761 177.659985 
L 157.691308 175.405644 
L 158.210766 173.151303 
L 158.864733 170.896963 
L 159.631039 168.642622 
L 160.488094 166.388282 
L 161.416754 164.133941 
L 162.401543 161.879601 
L 163.431189 159.62526 
L 164.498514 157.370919 
L 165.599822 155.116579 
L 166.733929 152.862238 
L 167.900976 150.607898 
L 169.101183 148.353557 
L 170.333634 146.099216 
L 171.595215 143.844876 
L 172.879791 141.590535 
L 174.177744 139.336195 
L 175.475941 137.081854 
L 176.758212 134.827513 
L 178.006318 132.573173 
L 179.20137 130.318832 
L 180.32552 128.064492 
L 181.363735 125.810151 
L 182.305392 123.55581 
L 183.145445 121.30147 
L 183.884978 119.047129 
L 184.531033 116.792789 
L 185.09572 114.538448 
L 185.594728 112.284108 
L 186.045459 110.029767 
L 186.465046 107.775426 
L 186.868549 105.521086 
L 187.267565 103.266745 
L 187.669413 101.012405 
L 188.07697 98.758064 
L 188.48911 96.503723 
L 188.901632 94.249383 
L 189.308478 91.995042 
L 189.703045 89.740702 
L 190.079384 87.486361 
L 190.433129 85.23202 
L 190.762052 82.97768 
L 191.066203 80.723339 
L 191.347675 78.468999 
L 191.610058 76.214658 
L 191.857712 73.960318 
L 192.094981 71.705977 
L 192.325493 69.451636 
L 192.551635 67.197296 
L 196.647473 67.197296 
L 196.647473 67.197296 
L 196.873615 69.451636 
L 197.104127 71.705977 
L 197.341397 73.960318 
L 197.58905 76.214658 
L 197.851434 78.468999 
L 198.132906 80.723339 
L 198.437057 82.97768 
L 198.765979 85.23202 
L 199.119724 87.486361 
L 199.496063 89.740702 
L 199.89063 91.995042 
L 200.297476 94.249383 
L 200.709998 96.503723 
L 201.122139 98.758064 
L 201.529695 101.012405 
L 201.931543 103.266745 
L 202.330559 105.521086 
L 202.734063 107.775426 
L 203.153649 110.029767 
L 203.60438 112.284108 
L 204.103389 114.538448 
L 204.668075 116.792789 
L 205.314131 119.047129 
L 206.053663 121.30147 
L 206.893716 123.55581 
L 207.835373 125.810151 
L 208.873588 128.064492 
L 209.997738 130.318832 
L 211.19279 132.573173 
L 212.440896 134.827513 
L 213.723167 137.081854 
L 215.021365 139.336195 
L 216.319317 141.590535 
L 217.603893 143.844876 
L 218.865474 146.099216 
L 220.097926 148.353557 
L 221.298132 150.607898 
L 222.465179 152.862238 
L 223.599286 155.116579 
L 224.700595 157.370919 
L 225.767919 159.62526 
L 226.797565 161.879601 
L 227.782354 164.133941 
L 228.711014 166.388282 
L 229.568069 168.642622 
L 230.334375 170.896963 
L 230.988342 173.151303 
L 231.5078 175.405644 
L 231.872348 177.659985 
L 232.065874 179.914325 
L 232.078914 182.168666 
L 231.910437 184.423006 
L 231.568736 186.677347 
L 231.071216 188.931688 
L 230.443032 191.186028 
L 229.714713 193.440369 
L 228.919084 195.694709 
L 228.087921 197.94905 
L 227.248808 200.203391 
L 226.422657 202.457731 
L 225.622235 204.712072 
L 224.85188 206.966412 
L 224.108378 209.220753 
L 223.382819 211.475093 
L 222.663044 213.729434 
L 221.936271 215.983775 
L 221.191439 218.238115 
L 220.420937 220.492456 
L 219.621482 222.746796 
L 218.794124 225.001137 
L 217.943459 227.255478 
L 217.076312 229.509818 
L 216.200152 231.764159 
L 215.321576 234.018499 
L 214.445082 236.27284 
L 213.572356 238.527181 
L 212.702123 240.781521 
L 211.830589 243.035862 
L 210.952376 245.290202 
L 210.061774 247.544543 
L 209.154132 249.798883 
L 208.227123 252.053224 
L 207.281711 254.307565 
L 206.322613 256.561905 
L 205.358209 258.816246 
L 204.399883 261.070586 
L 203.460914 263.324927 
L 202.555097 265.579268 
L 201.695314 267.833608 
L 200.892271 270.087949 
L 200.153586 272.342289 
L 199.48333 274.59663 
L 198.882042 276.850971 
L 198.347152 279.105311 
L 197.873715 281.359652 
L 197.455296 283.613992 
L 197.084863 285.868333 
L 196.755575 288.122673 
L 196.461365 290.377014 
z
" clip-path="url(#pea225c7b34)" style="fill: #1f77b4; fill-opacity: 0.3"/>
   </g>
   <g id="PolyCollection_3">
    <path d="M 280.83527 295.488 
L 274.938771 295.488 
L 274.428435 293.285286 
L 273.878903 291.082571 
L 273.296734 288.879857 
L 272.689804 286.677142 
L 272.066857 284.474428 
L 271.436957 282.271713 
L 270.808871 280.068999 
L 270.190425 277.866284 
L 269.587881 275.66357 
L 269.005363 273.460855 
L 268.444361 271.258141 
L 267.903368 269.055426 
L 267.377683 266.852712 
L 266.859436 264.649997 
L 266.337889 262.447283 
L 265.800068 260.244569 
L 265.23171 258.041854 
L 264.618527 255.83914 
L 263.947671 253.636425 
L 263.209258 251.433711 
L 262.397768 249.230996 
L 261.513095 247.028282 
L 260.561076 244.825567 
L 259.55334 242.622853 
L 258.506447 240.420138 
L 257.440361 238.217424 
L 256.376417 236.014709 
L 255.335035 233.811995 
L 254.333459 231.60928 
L 253.383854 229.406566 
L 252.492006 227.203851 
L 251.65684 225.001137 
L 250.870831 222.798423 
L 250.121284 220.595708 
L 249.392333 218.392994 
L 248.667398 216.190279 
L 247.931793 213.987565 
L 247.175133 211.78485 
L 246.393207 209.582136 
L 245.589095 207.379421 
L 244.77335 205.176707 
L 243.963258 202.973992 
L 243.181267 200.771278 
L 242.452823 198.568563 
L 241.80387 196.365849 
L 241.258347 194.163134 
L 240.835932 191.96042 
L 240.550283 189.757706 
L 240.407894 187.554991 
L 240.407661 185.352277 
L 240.541134 183.149562 
L 240.793426 180.946848 
L 241.144663 178.744133 
L 241.571857 176.541419 
L 242.051023 174.338704 
L 242.559342 172.13599 
L 243.077163 169.933275 
L 243.589616 167.730561 
L 244.087672 165.527846 
L 244.568521 163.325132 
L 245.035273 161.122417 
L 245.496029 158.919703 
L 245.962519 156.716988 
L 246.448497 154.514274 
L 246.968141 152.31156 
L 247.53465 150.108845 
L 248.159171 147.906131 
L 248.850117 145.703416 
L 249.612867 143.500702 
L 250.449773 141.297987 
L 251.3604 139.095273 
L 252.341893 136.892558 
L 253.389404 134.689844 
L 254.496514 132.487129 
L 255.655625 130.284415 
L 256.85829 128.0817 
L 258.095476 125.878986 
L 259.357746 123.676271 
L 260.635361 121.473557 
L 261.918317 119.270843 
L 263.196328 117.068128 
L 264.458807 114.865414 
L 265.69487 112.662699 
L 266.893437 110.459985 
L 268.043436 108.25727 
L 269.134156 106.054556 
L 270.155717 103.851841 
L 271.099628 101.649127 
L 271.95936 99.446412 
L 272.730855 97.243698 
L 273.41289 95.040983 
L 274.007221 92.838269 
L 274.518466 90.635554 
L 274.953736 88.43284 
L 275.322027 86.230125 
L 275.633464 84.027411 
L 275.89847 81.824697 
L 276.126984 79.621982 
L 276.327789 77.419268 
L 279.446252 77.419268 
L 279.446252 77.419268 
L 279.647058 79.621982 
L 279.875572 81.824697 
L 280.140578 84.027411 
L 280.452014 86.230125 
L 280.820305 88.43284 
L 281.255575 90.635554 
L 281.766821 92.838269 
L 282.361151 95.040983 
L 283.043187 97.243698 
L 283.814682 99.446412 
L 284.674413 101.649127 
L 285.618324 103.851841 
L 286.639886 106.054556 
L 287.730606 108.25727 
L 288.880605 110.459985 
L 290.079171 112.662699 
L 291.315235 114.865414 
L 292.577713 117.068128 
L 293.855725 119.270843 
L 295.138681 121.473557 
L 296.416296 123.676271 
L 297.678566 125.878986 
L 298.915752 128.0817 
L 300.118417 130.284415 
L 301.277527 132.487129 
L 302.384637 134.689844 
L 303.432148 136.892558 
L 304.413642 139.095273 
L 305.324269 141.297987 
L 306.161174 143.500702 
L 306.923924 145.703416 
L 307.614871 147.906131 
L 308.239392 150.108845 
L 308.805901 152.31156 
L 309.325545 154.514274 
L 309.811522 156.716988 
L 310.278012 158.919703 
L 310.738769 161.122417 
L 311.20552 163.325132 
L 311.68637 165.527846 
L 312.184425 167.730561 
L 312.696879 169.933275 
L 313.2147 172.13599 
L 313.723019 174.338704 
L 314.202184 176.541419 
L 314.629379 178.744133 
L 314.980616 180.946848 
L 315.232908 183.149562 
L 315.366381 185.352277 
L 315.366148 187.554991 
L 315.223759 189.757706 
L 314.93811 191.96042 
L 314.515695 194.163134 
L 313.970171 196.365849 
L 313.321219 198.568563 
L 312.592775 200.771278 
L 311.810784 202.973992 
L 311.000691 205.176707 
L 310.184946 207.379421 
L 309.380834 209.582136 
L 308.598909 211.78485 
L 307.842248 213.987565 
L 307.106644 216.190279 
L 306.381709 218.392994 
L 305.652757 220.595708 
L 304.903211 222.798423 
L 304.117202 225.001137 
L 303.282036 227.203851 
L 302.390188 229.406566 
L 301.440583 231.60928 
L 300.439007 233.811995 
L 299.397624 236.014709 
L 298.333681 238.217424 
L 297.267595 240.420138 
L 296.220702 242.622853 
L 295.212966 244.825567 
L 294.260947 247.028282 
L 293.376274 249.230996 
L 292.564783 251.433711 
L 291.826371 253.636425 
L 291.155515 255.83914 
L 290.542332 258.041854 
L 289.973974 260.244569 
L 289.436152 262.447283 
L 288.914606 264.649997 
L 288.396358 266.852712 
L 287.870673 269.055426 
L 287.329681 271.258141 
L 286.768679 273.460855 
L 286.186161 275.66357 
L 285.583617 277.866284 
L 284.965171 280.068999 
L 284.337084 282.271713 
L 283.707185 284.474428 
L 283.084238 286.677142 
L 282.477308 288.879857 
L 281.895138 291.082571 
L 281.345606 293.285286 
L 280.83527 295.488 
z
" clip-path="url(#pea225c7b34)" style="fill: #1f77b4; fill-opacity: 0.3"/>
   </g>
   <g id="PolyCollection_4">
    <path d="M 362.750506 295.488 
L 359.265319 295.488 
L 359.073096 293.044364 
L 358.862278 290.600727 
L 358.622072 288.157091 
L 358.339061 285.713455 
L 357.997912 283.269818 
L 357.582297 280.826182 
L 357.07593 278.382545 
L 356.463625 275.938909 
L 355.7323 273.495273 
L 354.87186 271.051636 
L 353.875969 268.608 
L 352.742674 266.164364 
L 351.474909 263.720727 
L 350.080843 261.277091 
L 348.574036 258.833455 
L 346.973348 256.389818 
L 345.302532 253.946182 
L 343.589456 251.502545 
L 341.864952 249.058909 
L 340.161317 246.615273 
L 338.510585 244.171636 
L 336.942687 241.728 
L 335.483705 239.284364 
L 334.154369 236.840727 
L 332.968977 234.397091 
L 331.934827 231.953455 
L 331.052231 229.509818 
L 330.315091 227.066182 
L 329.711942 224.622545 
L 329.22734 222.178909 
L 328.843375 219.735273 
L 328.541129 217.291636 
L 328.301886 214.848 
L 328.107967 212.404364 
L 327.943162 209.960727 
L 327.792813 207.517091 
L 327.6437 205.073455 
L 327.4839 202.629818 
L 327.302786 200.186182 
L 327.091281 197.742545 
L 326.842373 195.298909 
L 326.551835 192.855273 
L 326.21902 190.411636 
L 325.847615 187.968 
L 325.446209 185.524364 
L 325.028639 183.080727 
L 324.614044 180.637091 
L 324.226604 178.193455 
L 323.894921 175.749818 
L 323.650972 173.306182 
L 323.528553 170.862545 
L 323.561202 168.418909 
L 323.779643 165.975273 
L 324.208924 163.531636 
L 324.865575 161.088 
L 325.755163 158.644364 
L 326.870683 156.200727 
L 328.192119 153.757091 
L 329.687389 151.313455 
L 331.314643 148.869818 
L 333.025687 146.426182 
L 334.7701 143.982545 
L 336.4995 141.538909 
L 338.171416 139.095273 
L 339.752278 136.651636 
L 341.21922 134.208 
L 342.56058 131.764364 
L 343.775164 129.320727 
L 344.870528 126.877091 
L 345.860603 124.433455 
L 346.76305 121.989818 
L 347.596684 119.546182 
L 348.379263 117.102545 
L 349.125827 114.658909 
L 349.847683 112.215273 
L 350.552042 109.771636 
L 351.242223 107.328 
L 351.918288 104.884364 
L 352.577942 102.440727 
L 353.217521 99.997091 
L 353.832899 97.553455 
L 354.420213 95.109818 
L 354.976322 92.666182 
L 355.499027 90.222545 
L 355.987062 87.778909 
L 356.439969 85.335273 
L 356.857918 82.891636 
L 357.241553 80.448 
L 357.591913 78.004364 
L 357.910423 75.560727 
L 358.198937 73.117091 
L 358.459785 70.673455 
L 358.695786 68.229818 
L 358.910167 65.786182 
L 359.106403 63.342545 
L 359.287962 60.898909 
L 359.458018 58.455273 
L 359.619169 56.011636 
L 359.773214 53.568 
L 362.242611 53.568 
L 362.242611 53.568 
L 362.396656 56.011636 
L 362.557807 58.455273 
L 362.727863 60.898909 
L 362.909423 63.342545 
L 363.105658 65.786182 
L 363.32004 68.229818 
L 363.55604 70.673455 
L 363.816889 73.117091 
L 364.105402 75.560727 
L 364.423912 78.004364 
L 364.774272 80.448 
L 365.157908 82.891636 
L 365.575856 85.335273 
L 366.028764 87.778909 
L 366.516799 90.222545 
L 367.039503 92.666182 
L 367.595613 95.109818 
L 368.182926 97.553455 
L 368.798305 99.997091 
L 369.437883 102.440727 
L 370.097538 104.884364 
L 370.773602 107.328 
L 371.463783 109.771636 
L 372.168143 112.215273 
L 372.889999 114.658909 
L 373.636562 117.102545 
L 374.419141 119.546182 
L 375.252775 121.989818 
L 376.155223 124.433455 
L 377.145298 126.877091 
L 378.240661 129.320727 
L 379.455245 131.764364 
L 380.796605 134.208 
L 382.263548 136.651636 
L 383.844409 139.095273 
L 385.516326 141.538909 
L 387.245726 143.982545 
L 388.990138 146.426182 
L 390.701182 148.869818 
L 392.328436 151.313455 
L 393.823706 153.757091 
L 395.145142 156.200727 
L 396.260662 158.644364 
L 397.15025 161.088 
L 397.806901 163.531636 
L 398.236182 165.975273 
L 398.454623 168.418909 
L 398.487273 170.862545 
L 398.364853 173.306182 
L 398.120904 175.749818 
L 397.789222 178.193455 
L 397.401782 180.637091 
L 396.987187 183.080727 
L 396.569617 185.524364 
L 396.168211 187.968 
L 395.796805 190.411636 
L 395.463991 192.855273 
L 395.173452 195.298909 
L 394.924544 197.742545 
L 394.713039 200.186182 
L 394.531926 202.629818 
L 394.372125 205.073455 
L 394.223013 207.517091 
L 394.072664 209.960727 
L 393.907858 212.404364 
L 393.713939 214.848 
L 393.474696 217.291636 
L 393.17245 219.735273 
L 392.788485 222.178909 
L 392.303883 224.622545 
L 391.700735 227.066182 
L 390.963594 229.509818 
L 390.080998 231.953455 
L 389.046848 234.397091 
L 387.861456 236.840727 
L 386.53212 239.284364 
L 385.073138 241.728 
L 383.505241 244.171636 
L 381.854508 246.615273 
L 380.150874 249.058909 
L 378.426369 251.502545 
L 376.713293 253.946182 
L 375.042477 256.389818 
L 373.441789 258.833455 
L 371.934982 261.277091 
L 370.540916 263.720727 
L 369.273152 266.164364 
L 368.139857 268.608 
L 367.143965 271.051636 
L 366.283526 273.495273 
L 365.5522 275.938909 
L 364.939896 278.382545 
L 364.433528 280.826182 
L 364.017913 283.269818 
L 363.676765 285.713455 
L 363.393754 288.157091 
L 363.153547 290.600727 
L 362.942729 293.044364 
L 362.750506 295.488 
z
" clip-path="url(#pea225c7b34)" style="fill: #1f77b4; fill-opacity: 0.3"/>
   </g>
   <g id="matplotlib.axis_1">
    <g id="xtick_1">
     <g id="line2d_1">
      <defs>
       <path id="m8647abf99f" d="M 0 0 
L 0 3.5 
" style="stroke: #000000; stroke-width: 0.8"/>
      </defs>
      <g>
       <use xlink:href="#m8647abf99f" x="69.668354" y="307.584" style="stroke: #000000; stroke-width: 0.8"/>
      </g>
     </g>
     <g id="text_1">
      <!-- 250 -->
      <g transform="translate(60.124604 322.182437)scale(0.1 -0.1)">
       <defs>
        <path id="DejaVuSans-32" d="M 1228 531 
L 3431 531 
L 3431 0 
L 469 0 
L 469 531 
Q 828 903 1448 1529 
Q 2069 2156 2228 2338 
Q 2531 2678 2651 2914 
Q 2772 3150 2772 3378 
Q 2772 3750 2511 3984 
Q 2250 4219 1831 4219 
Q 1534 4219 1204 4116 
Q 875 4013 500 3803 
L 500 4441 
Q 881 4594 1212 4672 
Q 1544 4750 1819 4750 
Q 2544 4750 2975 4387 
Q 3406 4025 3406 3419 
Q 3406 3131 3298 2873 
Q 3191 2616 2906 2266 
Q 2828 2175 2409 1742 
Q 1991 1309 1228 531 
z
" transform="scale(0.015625)"/>
        <path id="DejaVuSans-35" d="M 691 4666 
L 3169 4666 
L 3169 4134 
L 1269 4134 
L 1269 2991 
Q 1406 3038 1543 3061 
Q 1681 3084 1819 3084 
Q 2600 3084 3056 2656 
Q 3513 2228 3513 1497 
Q 3513 744 3044 326 
Q 2575 -91 1722 -91 
Q 1428 -91 1123 -41 
Q 819 9 494 109 
L 494 744 
Q 775 591 1075 516 
Q 1375 441 1709 441 
Q 2250 441 2565 725 
Q 2881 1009 2881 1497 
Q 2881 1984 2565 2268 
Q 2250 2553 1709 2553 
Q 1456 2553 1204 2497 
Q 953 2441 691 2322 
L 691 4666 
z
" transform="scale(0.015625)"/>
        <path id="DejaVuSans-30" d="M 2034 4250 
Q 1547 4250 1301 3770 
Q 1056 3291 1056 2328 
Q 1056 1369 1301 889 
Q 1547 409 2034 409 
Q 2525 409 2770 889 
Q 3016 1369 3016 2328 
Q 3016 3291 2770 3770 
Q 2525 4250 2034 4250 
z
M 2034 4750 
Q 2819 4750 3233 4129 
Q 3647 3509 3647 2328 
Q 3647 1150 3233 529 
Q 2819 -91 2034 -91 
Q 1250 -91 836 529 
Q 422 1150 422 2328 
Q 422 3509 836 4129 
Q 1250 4750 2034 4750 
z
" transform="scale(0.015625)"/>
       </defs>
       <use xlink:href="#DejaVuSans-32"/>
       <use xlink:href="#DejaVuSans-35" x="63.623047"/>
       <use xlink:href="#DejaVuSans-30" x="127.246094"/>
      </g>
     </g>
    </g>
    <g id="xtick_2">
     <g id="line2d_2">
      <g>
       <use xlink:href="#m8647abf99f" x="111.312087" y="307.584" style="stroke: #000000; stroke-width: 0.8"/>
      </g>
     </g>
     <g id="text_2">
      <!-- 500 -->
      <g transform="translate(101.768337 322.182437)scale(0.1 -0.1)">
       <use xlink:href="#DejaVuSans-35"/>
       <use xlink:href="#DejaVuSans-30" x="63.623047"/>
       <use xlink:href="#DejaVuSans-30" x="127.246094"/>
      </g>
     </g>
    </g>
    <g id="xtick_3">
     <g id="line2d_3">
      <g>
       <use xlink:href="#m8647abf99f" x="152.955821" y="307.584" style="stroke: #000000; stroke-width: 0.8"/>
      </g>
     </g>
     <g id="text_3">
      <!-- 750 -->
      <g transform="translate(143.412071 322.182437)scale(0.1 -0.1)">
       <defs>
        <path id="DejaVuSans-37" d="M 525 4666 
L 3525 4666 
L 3525 4397 
L 1831 0 
L 1172 0 
L 2766 4134 
L 525 4134 
L 525 4666 
z
" transform="scale(0.015625)"/>
       </defs>
       <use xlink:href="#DejaVuSans-37"/>
       <use xlink:href="#DejaVuSans-35" x="63.623047"/>
       <use xlink:href="#DejaVuSans-30" x="127.246094"/>
      </g>
     </g>
    </g>
    <g id="xtick_4">
     <g id="line2d_4">
      <g>
       <use xlink:href="#m8647abf99f" x="194.599554" y="307.584" style="stroke: #000000; stroke-width: 0.8"/>
      </g>
     </g>
     <g id="text_4">
      <!-- 1000 -->
      <g transform="translate(181.874554 322.182437)scale(0.1 -0.1)">
       <defs>
        <path id="DejaVuSans-31" d="M 794 531 
L 1825 531 
L 1825 4091 
L 703 3866 
L 703 4441 
L 1819 4666 
L 2450 4666 
L 2450 531 
L 3481 531 
L 3481 0 
L 794 0 
L 794 531 
z
" transform="scale(0.015625)"/>
       </defs>
       <use xlink:href="#DejaVuSans-31"/>
       <use xlink:href="#DejaVuSans-30" x="63.623047"/>
       <use xlink:href="#DejaVuSans-30" x="127.246094"/>
       <use xlink:href="#DejaVuSans-30" x="190.869141"/>
      </g>
     </g>
    </g>
    <g id="xtick_5">
     <g id="line2d_5">
      <g>
       <use xlink:href="#m8647abf99f" x="236.243287" y="307.584" style="stroke: #000000; stroke-width: 0.8"/>
      </g>
     </g>
     <g id="text_5">
      <!-- 1250 -->
      <g transform="translate(223.518287 322.182437)scale(0.1 -0.1)">
       <use xlink:href="#DejaVuSans-31"/>
       <use xlink:href="#DejaVuSans-32" x="63.623047"/>
       <use xlink:href="#DejaVuSans-35" x="127.246094"/>
       <use xlink:href="#DejaVuSans-30" x="190.869141"/>
      </g>
     </g>
    </g>
    <g id="xtick_6">
     <g id="line2d_6">
      <g>
       <use xlink:href="#m8647abf99f" x="277.887021" y="307.584" style="stroke: #000000; stroke-width: 0.8"/>
      </g>
     </g>
     <g id="text_6">
      <!-- 1500 -->
      <g transform="translate(265.162021 322.182437)scale(0.1 -0.1)">
       <use xlink:href="#DejaVuSans-31"/>
       <use xlink:href="#DejaVuSans-35" x="63.623047"/>
       <use xlink:href="#DejaVuSans-30" x="127.246094"/>
       <use xlink:href="#DejaVuSans-30" x="190.869141"/>
      </g>
     </g>
    </g>
    <g id="xtick_7">
     <g id="line2d_7">
      <g>
       <use xlink:href="#m8647abf99f" x="319.530754" y="307.584" style="stroke: #000000; stroke-width: 0.8"/>
      </g>
     </g>
     <g id="text_7">
      <!-- 1750 -->
      <g transform="translate(306.805754 322.182437)scale(0.1 -0.1)">
       <use xlink:href="#DejaVuSans-31"/>
       <use xlink:href="#DejaVuSans-37" x="63.623047"/>
       <use xlink:href="#DejaVuSans-35" x="127.246094"/>
       <use xlink:href="#DejaVuSans-30" x="190.869141"/>
      </g>
     </g>
    </g>
    <g id="xtick_8">
     <g id="line2d_8">
      <g>
       <use xlink:href="#m8647abf99f" x="361.174488" y="307.584" style="stroke: #000000; stroke-width: 0.8"/>
      </g>
     </g>
     <g id="text_8">
      <!-- 2000 -->
      <g transform="translate(348.449488 322.182437)scale(0.1 -0.1)">
       <use xlink:href="#DejaVuSans-32"/>
       <use xlink:href="#DejaVuSans-30" x="63.623047"/>
       <use xlink:href="#DejaVuSans-30" x="127.246094"/>
       <use xlink:href="#DejaVuSans-30" x="190.869141"/>
      </g>
     </g>
    </g>
    <g id="xtick_9">
     <g id="line2d_9">
      <g>
       <use xlink:href="#m8647abf99f" x="402.818221" y="307.584" style="stroke: #000000; stroke-width: 0.8"/>
      </g>
     </g>
     <g id="text_9">
      <!-- 2250 -->
      <g transform="translate(390.093221 322.182437)scale(0.1 -0.1)">
       <use xlink:href="#DejaVuSans-32"/>
       <use xlink:href="#DejaVuSans-32" x="63.623047"/>
       <use xlink:href="#DejaVuSans-35" x="127.246094"/>
       <use xlink:href="#DejaVuSans-30" x="190.869141"/>
      </g>
     </g>
    </g>
    <g id="text_10">
     <!-- Learned Episodes -->
     <g transform="translate(192.102187 335.860562)scale(0.1 -0.1)">
      <defs>
       <path id="DejaVuSans-4c" d="M 628 4666 
L 1259 4666 
L 1259 531 
L 3531 531 
L 3531 0 
L 628 0 
L 628 4666 
z
" transform="scale(0.015625)"/>
       <path id="DejaVuSans-65" d="M 3597 1894 
L 3597 1613 
L 953 1613 
Q 991 1019 1311 708 
Q 1631 397 2203 397 
Q 2534 397 2845 478 
Q 3156 559 3463 722 
L 3463 178 
Q 3153 47 2828 -22 
Q 2503 -91 2169 -91 
Q 1331 -91 842 396 
Q 353 884 353 1716 
Q 353 2575 817 3079 
Q 1281 3584 2069 3584 
Q 2775 3584 3186 3129 
Q 3597 2675 3597 1894 
z
M 3022 2063 
Q 3016 2534 2758 2815 
Q 2500 3097 2075 3097 
Q 1594 3097 1305 2825 
Q 1016 2553 972 2059 
L 3022 2063 
z
" transform="scale(0.015625)"/>
       <path id="DejaVuSans-61" d="M 2194 1759 
Q 1497 1759 1228 1600 
Q 959 1441 959 1056 
Q 959 750 1161 570 
Q 1363 391 1709 391 
Q 2188 391 2477 730 
Q 2766 1069 2766 1631 
L 2766 1759 
L 2194 1759 
z
M 3341 1997 
L 3341 0 
L 2766 0 
L 2766 531 
Q 2569 213 2275 61 
Q 1981 -91 1556 -91 
Q 1019 -91 701 211 
Q 384 513 384 1019 
Q 384 1609 779 1909 
Q 1175 2209 1959 2209 
L 2766 2209 
L 2766 2266 
Q 2766 2663 2505 2880 
Q 2244 3097 1772 3097 
Q 1472 3097 1187 3025 
Q 903 2953 641 2809 
L 641 3341 
Q 956 3463 1253 3523 
Q 1550 3584 1831 3584 
Q 2591 3584 2966 3190 
Q 3341 2797 3341 1997 
z
" transform="scale(0.015625)"/>
       <path id="DejaVuSans-72" d="M 2631 2963 
Q 2534 3019 2420 3045 
Q 2306 3072 2169 3072 
Q 1681 3072 1420 2755 
Q 1159 2438 1159 1844 
L 1159 0 
L 581 0 
L 581 3500 
L 1159 3500 
L 1159 2956 
Q 1341 3275 1631 3429 
Q 1922 3584 2338 3584 
Q 2397 3584 2469 3576 
Q 2541 3569 2628 3553 
L 2631 2963 
z
" transform="scale(0.015625)"/>
       <path id="DejaVuSans-6e" d="M 3513 2113 
L 3513 0 
L 2938 0 
L 2938 2094 
Q 2938 2591 2744 2837 
Q 2550 3084 2163 3084 
Q 1697 3084 1428 2787 
Q 1159 2491 1159 1978 
L 1159 0 
L 581 0 
L 581 3500 
L 1159 3500 
L 1159 2956 
Q 1366 3272 1645 3428 
Q 1925 3584 2291 3584 
Q 2894 3584 3203 3211 
Q 3513 2838 3513 2113 
z
" transform="scale(0.015625)"/>
       <path id="DejaVuSans-64" d="M 2906 2969 
L 2906 4863 
L 3481 4863 
L 3481 0 
L 2906 0 
L 2906 525 
Q 2725 213 2448 61 
Q 2172 -91 1784 -91 
Q 1150 -91 751 415 
Q 353 922 353 1747 
Q 353 2572 751 3078 
Q 1150 3584 1784 3584 
Q 2172 3584 2448 3432 
Q 2725 3281 2906 2969 
z
M 947 1747 
Q 947 1113 1208 752 
Q 1469 391 1925 391 
Q 2381 391 2643 752 
Q 2906 1113 2906 1747 
Q 2906 2381 2643 2742 
Q 2381 3103 1925 3103 
Q 1469 3103 1208 2742 
Q 947 2381 947 1747 
z
" transform="scale(0.015625)"/>
       <path id="DejaVuSans-20" transform="scale(0.015625)"/>
       <path id="DejaVuSans-45" d="M 628 4666 
L 3578 4666 
L 3578 4134 
L 1259 4134 
L 1259 2753 
L 3481 2753 
L 3481 2222 
L 1259 2222 
L 1259 531 
L 3634 531 
L 3634 0 
L 628 0 
L 628 4666 
z
" transform="scale(0.015625)"/>
       <path id="DejaVuSans-70" d="M 1159 525 
L 1159 -1331 
L 581 -1331 
L 581 3500 
L 1159 3500 
L 1159 2969 
Q 1341 3281 1617 3432 
Q 1894 3584 2278 3584 
Q 2916 3584 3314 3078 
Q 3713 2572 3713 1747 
Q 3713 922 3314 415 
Q 2916 -91 2278 -91 
Q 1894 -91 1617 61 
Q 1341 213 1159 525 
z
M 3116 1747 
Q 3116 2381 2855 2742 
Q 2594 3103 2138 3103 
Q 1681 3103 1420 2742 
Q 1159 2381 1159 1747 
Q 1159 1113 1420 752 
Q 1681 391 2138 391 
Q 2594 391 2855 752 
Q 3116 1113 3116 1747 
z
" transform="scale(0.015625)"/>
       <path id="DejaVuSans-69" d="M 603 3500 
L 1178 3500 
L 1178 0 
L 603 0 
L 603 3500 
z
M 603 4863 
L 1178 4863 
L 1178 4134 
L 603 4134 
L 603 4863 
z
" transform="scale(0.015625)"/>
       <path id="DejaVuSans-73" d="M 2834 3397 
L 2834 2853 
Q 2591 2978 2328 3040 
Q 2066 3103 1784 3103 
Q 1356 3103 1142 2972 
Q 928 2841 928 2578 
Q 928 2378 1081 2264 
Q 1234 2150 1697 2047 
L 1894 2003 
Q 2506 1872 2764 1633 
Q 3022 1394 3022 966 
Q 3022 478 2636 193 
Q 2250 -91 1575 -91 
Q 1294 -91 989 -36 
Q 684 19 347 128 
L 347 722 
Q 666 556 975 473 
Q 1284 391 1588 391 
Q 1994 391 2212 530 
Q 2431 669 2431 922 
Q 2431 1156 2273 1281 
Q 2116 1406 1581 1522 
L 1381 1569 
Q 847 1681 609 1914 
Q 372 2147 372 2553 
Q 372 3047 722 3315 
Q 1072 3584 1716 3584 
Q 2034 3584 2315 3537 
Q 2597 3491 2834 3397 
z
" transform="scale(0.015625)"/>
       <path id="DejaVuSans-6f" d="M 1959 3097 
Q 1497 3097 1228 2736 
Q 959 2375 959 1747 
Q 959 1119 1226 758 
Q 1494 397 1959 397 
Q 2419 397 2687 759 
Q 2956 1122 2956 1747 
Q 2956 2369 2687 2733 
Q 2419 3097 1959 3097 
z
M 1959 3584 
Q 2709 3584 3137 3096 
Q 3566 2609 3566 1747 
Q 3566 888 3137 398 
Q 2709 -91 1959 -91 
Q 1206 -91 779 398 
Q 353 888 353 1747 
Q 353 2609 779 3096 
Q 1206 3584 1959 3584 
z
" transform="scale(0.015625)"/>
      </defs>
      <use xlink:href="#DejaVuSans-4c"/>
      <use xlink:href="#DejaVuSans-65" x="53.962891"/>
      <use xlink:href="#DejaVuSans-61" x="115.486328"/>
      <use xlink:href="#DejaVuSans-72" x="176.765625"/>
      <use xlink:href="#DejaVuSans-6e" x="216.128906"/>
      <use xlink:href="#DejaVuSans-65" x="279.507812"/>
      <use xlink:href="#DejaVuSans-64" x="341.03125"/>
      <use xlink:href="#DejaVuSans-20" x="404.507812"/>
      <use xlink:href="#DejaVuSans-45" x="436.294922"/>
      <use xlink:href="#DejaVuSans-70" x="499.478516"/>
      <use xlink:href="#DejaVuSans-69" x="562.955078"/>
      <use xlink:href="#DejaVuSans-73" x="590.738281"/>
      <use xlink:href="#DejaVuSans-6f" x="642.837891"/>
      <use xlink:href="#DejaVuSans-64" x="704.019531"/>
      <use xlink:href="#DejaVuSans-65" x="767.496094"/>
      <use xlink:href="#DejaVuSans-73" x="829.019531"/>
     </g>
    </g>
   </g>
   <g id="matplotlib.axis_2">
    <g id="ytick_1">
     <g id="line2d_10">
      <defs>
       <path id="m4fcff76744" d="M 0 0 
L -3.5 0 
" style="stroke: #000000; stroke-width: 0.8"/>
      </defs>
      <g>
       <use xlink:href="#m4fcff76744" x="57.6" y="304.00631" style="stroke: #000000; stroke-width: 0.8"/>
      </g>
     </g>
     <g id="text_11">
      <!-- 40 -->
      <g transform="translate(37.875 307.805529)scale(0.1 -0.1)">
       <defs>
        <path id="DejaVuSans-34" d="M 2419 4116 
L 825 1625 
L 2419 1625 
L 2419 4116 
z
M 2253 4666 
L 3047 4666 
L 3047 1625 
L 3713 1625 
L 3713 1100 
L 3047 1100 
L 3047 0 
L 2419 0 
L 2419 1100 
L 313 1100 
L 313 1709 
L 2253 4666 
z
" transform="scale(0.015625)"/>
       </defs>
       <use xlink:href="#DejaVuSans-34"/>
       <use xlink:href="#DejaVuSans-30" x="63.623047"/>
      </g>
     </g>
    </g>
    <g id="ytick_2">
     <g id="line2d_11">
      <g>
       <use xlink:href="#m4fcff76744" x="57.6" y="269.93307" style="stroke: #000000; stroke-width: 0.8"/>
      </g>
     </g>
     <g id="text_12">
      <!-- 60 -->
      <g transform="translate(37.875 273.732289)scale(0.1 -0.1)">
       <defs>
        <path id="DejaVuSans-36" d="M 2113 2584 
Q 1688 2584 1439 2293 
Q 1191 2003 1191 1497 
Q 1191 994 1439 701 
Q 1688 409 2113 409 
Q 2538 409 2786 701 
Q 3034 994 3034 1497 
Q 3034 2003 2786 2293 
Q 2538 2584 2113 2584 
z
M 3366 4563 
L 3366 3988 
Q 3128 4100 2886 4159 
Q 2644 4219 2406 4219 
Q 1781 4219 1451 3797 
Q 1122 3375 1075 2522 
Q 1259 2794 1537 2939 
Q 1816 3084 2150 3084 
Q 2853 3084 3261 2657 
Q 3669 2231 3669 1497 
Q 3669 778 3244 343 
Q 2819 -91 2113 -91 
Q 1303 -91 875 529 
Q 447 1150 447 2328 
Q 447 3434 972 4092 
Q 1497 4750 2381 4750 
Q 2619 4750 2861 4703 
Q 3103 4656 3366 4563 
z
" transform="scale(0.015625)"/>
       </defs>
       <use xlink:href="#DejaVuSans-36"/>
       <use xlink:href="#DejaVuSans-30" x="63.623047"/>
      </g>
     </g>
    </g>
    <g id="ytick_3">
     <g id="line2d_12">
      <g>
       <use xlink:href="#m4fcff76744" x="57.6" y="235.859831" style="stroke: #000000; stroke-width: 0.8"/>
      </g>
     </g>
     <g id="text_13">
      <!-- 80 -->
      <g transform="translate(37.875 239.65905)scale(0.1 -0.1)">
       <defs>
        <path id="DejaVuSans-38" d="M 2034 2216 
Q 1584 2216 1326 1975 
Q 1069 1734 1069 1313 
Q 1069 891 1326 650 
Q 1584 409 2034 409 
Q 2484 409 2743 651 
Q 3003 894 3003 1313 
Q 3003 1734 2745 1975 
Q 2488 2216 2034 2216 
z
M 1403 2484 
Q 997 2584 770 2862 
Q 544 3141 544 3541 
Q 544 4100 942 4425 
Q 1341 4750 2034 4750 
Q 2731 4750 3128 4425 
Q 3525 4100 3525 3541 
Q 3525 3141 3298 2862 
Q 3072 2584 2669 2484 
Q 3125 2378 3379 2068 
Q 3634 1759 3634 1313 
Q 3634 634 3220 271 
Q 2806 -91 2034 -91 
Q 1263 -91 848 271 
Q 434 634 434 1313 
Q 434 1759 690 2068 
Q 947 2378 1403 2484 
z
M 1172 3481 
Q 1172 3119 1398 2916 
Q 1625 2713 2034 2713 
Q 2441 2713 2670 2916 
Q 2900 3119 2900 3481 
Q 2900 3844 2670 4047 
Q 2441 4250 2034 4250 
Q 1625 4250 1398 4047 
Q 1172 3844 1172 3481 
z
" transform="scale(0.015625)"/>
       </defs>
       <use xlink:href="#DejaVuSans-38"/>
       <use xlink:href="#DejaVuSans-30" x="63.623047"/>
      </g>
     </g>
    </g>
    <g id="ytick_4">
     <g id="line2d_13">
      <g>
       <use xlink:href="#m4fcff76744" x="57.6" y="201.786592" style="stroke: #000000; stroke-width: 0.8"/>
      </g>
     </g>
     <g id="text_14">
      <!-- 100 -->
      <g transform="translate(31.5125 205.58581)scale(0.1 -0.1)">
       <use xlink:href="#DejaVuSans-31"/>
       <use xlink:href="#DejaVuSans-30" x="63.623047"/>
       <use xlink:href="#DejaVuSans-30" x="127.246094"/>
      </g>
     </g>
    </g>
    <g id="ytick_5">
     <g id="line2d_14">
      <g>
       <use xlink:href="#m4fcff76744" x="57.6" y="167.713352" style="stroke: #000000; stroke-width: 0.8"/>
      </g>
     </g>
     <g id="text_15">
      <!-- 120 -->
      <g transform="translate(31.5125 171.512571)scale(0.1 -0.1)">
       <use xlink:href="#DejaVuSans-31"/>
       <use xlink:href="#DejaVuSans-32" x="63.623047"/>
       <use xlink:href="#DejaVuSans-30" x="127.246094"/>
      </g>
     </g>
    </g>
    <g id="ytick_6">
     <g id="line2d_15">
      <g>
       <use xlink:href="#m4fcff76744" x="57.6" y="133.640113" style="stroke: #000000; stroke-width: 0.8"/>
      </g>
     </g>
     <g id="text_16">
      <!-- 140 -->
      <g transform="translate(31.5125 137.439331)scale(0.1 -0.1)">
       <use xlink:href="#DejaVuSans-31"/>
       <use xlink:href="#DejaVuSans-34" x="63.623047"/>
       <use xlink:href="#DejaVuSans-30" x="127.246094"/>
      </g>
     </g>
    </g>
    <g id="ytick_7">
     <g id="line2d_16">
      <g>
       <use xlink:href="#m4fcff76744" x="57.6" y="99.566873" style="stroke: #000000; stroke-width: 0.8"/>
      </g>
     </g>
     <g id="text_17">
      <!-- 160 -->
      <g transform="translate(31.5125 103.366092)scale(0.1 -0.1)">
       <use xlink:href="#DejaVuSans-31"/>
       <use xlink:href="#DejaVuSans-36" x="63.623047"/>
       <use xlink:href="#DejaVuSans-30" x="127.246094"/>
      </g>
     </g>
    </g>
    <g id="ytick_8">
     <g id="line2d_17">
      <g>
       <use xlink:href="#m4fcff76744" x="57.6" y="65.493634" style="stroke: #000000; stroke-width: 0.8"/>
      </g>
     </g>
     <g id="text_18">
      <!-- 180 -->
      <g transform="translate(31.5125 69.292853)scale(0.1 -0.1)">
       <use xlink:href="#DejaVuSans-31"/>
       <use xlink:href="#DejaVuSans-38" x="63.623047"/>
       <use xlink:href="#DejaVuSans-30" x="127.246094"/>
      </g>
     </g>
    </g>
    <g id="text_19">
     <!-- Reward Density -->
     <g transform="translate(25.432812 213.74675)rotate(-90)scale(0.1 -0.1)">
      <defs>
       <path id="DejaVuSans-52" d="M 2841 2188 
Q 3044 2119 3236 1894 
Q 3428 1669 3622 1275 
L 4263 0 
L 3584 0 
L 2988 1197 
Q 2756 1666 2539 1819 
Q 2322 1972 1947 1972 
L 1259 1972 
L 1259 0 
L 628 0 
L 628 4666 
L 2053 4666 
Q 2853 4666 3247 4331 
Q 3641 3997 3641 3322 
Q 3641 2881 3436 2590 
Q 3231 2300 2841 2188 
z
M 1259 4147 
L 1259 2491 
L 2053 2491 
Q 2509 2491 2742 2702 
Q 2975 2913 2975 3322 
Q 2975 3731 2742 3939 
Q 2509 4147 2053 4147 
L 1259 4147 
z
" transform="scale(0.015625)"/>
       <path id="DejaVuSans-77" d="M 269 3500 
L 844 3500 
L 1563 769 
L 2278 3500 
L 2956 3500 
L 3675 769 
L 4391 3500 
L 4966 3500 
L 4050 0 
L 3372 0 
L 2619 2869 
L 1863 0 
L 1184 0 
L 269 3500 
z
" transform="scale(0.015625)"/>
       <path id="DejaVuSans-44" d="M 1259 4147 
L 1259 519 
L 2022 519 
Q 2988 519 3436 956 
Q 3884 1394 3884 2338 
Q 3884 3275 3436 3711 
Q 2988 4147 2022 4147 
L 1259 4147 
z
M 628 4666 
L 1925 4666 
Q 3281 4666 3915 4102 
Q 4550 3538 4550 2338 
Q 4550 1131 3912 565 
Q 3275 0 1925 0 
L 628 0 
L 628 4666 
z
" transform="scale(0.015625)"/>
       <path id="DejaVuSans-74" d="M 1172 4494 
L 1172 3500 
L 2356 3500 
L 2356 3053 
L 1172 3053 
L 1172 1153 
Q 1172 725 1289 603 
Q 1406 481 1766 481 
L 2356 481 
L 2356 0 
L 1766 0 
Q 1100 0 847 248 
Q 594 497 594 1153 
L 594 3053 
L 172 3053 
L 172 3500 
L 594 3500 
L 594 4494 
L 1172 4494 
z
" transform="scale(0.015625)"/>
       <path id="DejaVuSans-79" d="M 2059 -325 
Q 1816 -950 1584 -1140 
Q 1353 -1331 966 -1331 
L 506 -1331 
L 506 -850 
L 844 -850 
Q 1081 -850 1212 -737 
Q 1344 -625 1503 -206 
L 1606 56 
L 191 3500 
L 800 3500 
L 1894 763 
L 2988 3500 
L 3597 3500 
L 2059 -325 
z
" transform="scale(0.015625)"/>
      </defs>
      <use xlink:href="#DejaVuSans-52"/>
      <use xlink:href="#DejaVuSans-65" x="64.982422"/>
      <use xlink:href="#DejaVuSans-77" x="126.505859"/>
      <use xlink:href="#DejaVuSans-61" x="208.292969"/>
      <use xlink:href="#DejaVuSans-72" x="269.572266"/>
      <use xlink:href="#DejaVuSans-64" x="308.935547"/>
      <use xlink:href="#DejaVuSans-20" x="372.412109"/>
      <use xlink:href="#DejaVuSans-44" x="404.199219"/>
      <use xlink:href="#DejaVuSans-65" x="481.201172"/>
      <use xlink:href="#DejaVuSans-6e" x="542.724609"/>
      <use xlink:href="#DejaVuSans-73" x="606.103516"/>
      <use xlink:href="#DejaVuSans-69" x="658.203125"/>
      <use xlink:href="#DejaVuSans-74" x="685.986328"/>
      <use xlink:href="#DejaVuSans-79" x="725.195312"/>
     </g>
    </g>
   </g>
   <g id="LineCollection_1">
    <path d="M 92.572407 199.749012 
L 130.051767 199.749012 
" clip-path="url(#pea225c7b34)" style="fill: none; stroke: #1f77b4; stroke-width: 1.5"/>
    <path d="M 175.859874 184.429683 
L 213.339234 184.429683 
" clip-path="url(#pea225c7b34)" style="fill: none; stroke: #1f77b4; stroke-width: 1.5"/>
    <path d="M 259.147341 186.692146 
L 296.626701 186.692146 
" clip-path="url(#pea225c7b34)" style="fill: none; stroke: #1f77b4; stroke-width: 1.5"/>
    <path d="M 342.268233 185.342846 
L 379.747593 185.342846 
" clip-path="url(#pea225c7b34)" style="fill: none; stroke: #1f77b4; stroke-width: 1.5"/>
   </g>
   <g id="LineCollection_2">
    <path d="M 92.572407 96.159549 
L 130.051767 96.159549 
" clip-path="url(#pea225c7b34)" style="fill: none; stroke: #1f77b4; stroke-width: 1.5"/>
    <path d="M 175.859874 67.197296 
L 213.339234 67.197296 
" clip-path="url(#pea225c7b34)" style="fill: none; stroke: #1f77b4; stroke-width: 1.5"/>
    <path d="M 259.147341 77.419268 
L 296.626701 77.419268 
" clip-path="url(#pea225c7b34)" style="fill: none; stroke: #1f77b4; stroke-width: 1.5"/>
    <path d="M 342.268233 53.568 
L 379.747593 53.568 
" clip-path="url(#pea225c7b34)" style="fill: none; stroke: #1f77b4; stroke-width: 1.5"/>
   </g>
   <g id="LineCollection_3">
    <path d="M 92.572407 288.673352 
L 130.051767 288.673352 
" clip-path="url(#pea225c7b34)" style="fill: none; stroke: #1f77b4; stroke-width: 1.5"/>
    <path d="M 175.859874 290.377014 
L 213.339234 290.377014 
" clip-path="url(#pea225c7b34)" style="fill: none; stroke: #1f77b4; stroke-width: 1.5"/>
    <path d="M 259.147341 295.488 
L 296.626701 295.488 
" clip-path="url(#pea225c7b34)" style="fill: none; stroke: #1f77b4; stroke-width: 1.5"/>
    <path d="M 342.268233 295.488 
L 379.747593 295.488 
" clip-path="url(#pea225c7b34)" style="fill: none; stroke: #1f77b4; stroke-width: 1.5"/>
   </g>
   <g id="LineCollection_4">
    <path d="M 111.312087 288.673352 
L 111.312087 96.159549 
" clip-path="url(#pea225c7b34)" style="fill: none; stroke: #1f77b4; stroke-width: 1.5"/>
    <path d="M 194.599554 290.377014 
L 194.599554 67.197296 
" clip-path="url(#pea225c7b34)" style="fill: none; stroke: #1f77b4; stroke-width: 1.5"/>
    <path d="M 277.887021 295.488 
L 277.887021 77.419268 
" clip-path="url(#pea225c7b34)" style="fill: none; stroke: #1f77b4; stroke-width: 1.5"/>
    <path d="M 361.007913 295.488 
L 361.007913 53.568 
" clip-path="url(#pea225c7b34)" style="fill: none; stroke: #1f77b4; stroke-width: 1.5"/>
   </g>
   <g id="line2d_18">
    <path d="M 111.312087 199.749012 
L 194.599554 184.429683 
L 277.887021 186.692146 
L 361.007913 185.342846 
" clip-path="url(#pea225c7b34)" style="fill: none; stroke: #4682b4; stroke-width: 1.5; stroke-linecap: square"/>
   </g>
   <g id="patch_3">
    <path d="M 57.6 307.584 
L 57.6 41.472 
" style="fill: none; stroke: #000000; stroke-width: 0.8; stroke-linejoin: miter; stroke-linecap: square"/>
   </g>
   <g id="patch_4">
    <path d="M 414.72 307.584 
L 414.72 41.472 
" style="fill: none; stroke: #000000; stroke-width: 0.8; stroke-linejoin: miter; stroke-linecap: square"/>
   </g>
   <g id="patch_5">
    <path d="M 57.6 307.584 
L 414.72 307.584 
" style="fill: none; stroke: #000000; stroke-width: 0.8; stroke-linejoin: miter; stroke-linecap: square"/>
   </g>
   <g id="patch_6">
    <path d="M 57.6 41.472 
L 414.72 41.472 
" style="fill: none; stroke: #000000; stroke-width: 0.8; stroke-linejoin: miter; stroke-linecap: square"/>
   </g>
   <g id="text_20">
    <!-- Violinplot for progress of owner/throw_away -->
    <g transform="translate(104.22375 35.472)scale(0.12 -0.12)">
     <defs>
      <path id="DejaVuSans-56" d="M 1831 0 
L 50 4666 
L 709 4666 
L 2188 738 
L 3669 4666 
L 4325 4666 
L 2547 0 
L 1831 0 
z
" transform="scale(0.015625)"/>
      <path id="DejaVuSans-6c" d="M 603 4863 
L 1178 4863 
L 1178 0 
L 603 0 
L 603 4863 
z
" transform="scale(0.015625)"/>
      <path id="DejaVuSans-66" d="M 2375 4863 
L 2375 4384 
L 1825 4384 
Q 1516 4384 1395 4259 
Q 1275 4134 1275 3809 
L 1275 3500 
L 2222 3500 
L 2222 3053 
L 1275 3053 
L 1275 0 
L 697 0 
L 697 3053 
L 147 3053 
L 147 3500 
L 697 3500 
L 697 3744 
Q 697 4328 969 4595 
Q 1241 4863 1831 4863 
L 2375 4863 
z
" transform="scale(0.015625)"/>
      <path id="DejaVuSans-67" d="M 2906 1791 
Q 2906 2416 2648 2759 
Q 2391 3103 1925 3103 
Q 1463 3103 1205 2759 
Q 947 2416 947 1791 
Q 947 1169 1205 825 
Q 1463 481 1925 481 
Q 2391 481 2648 825 
Q 2906 1169 2906 1791 
z
M 3481 434 
Q 3481 -459 3084 -895 
Q 2688 -1331 1869 -1331 
Q 1566 -1331 1297 -1286 
Q 1028 -1241 775 -1147 
L 775 -588 
Q 1028 -725 1275 -790 
Q 1522 -856 1778 -856 
Q 2344 -856 2625 -561 
Q 2906 -266 2906 331 
L 2906 616 
Q 2728 306 2450 153 
Q 2172 0 1784 0 
Q 1141 0 747 490 
Q 353 981 353 1791 
Q 353 2603 747 3093 
Q 1141 3584 1784 3584 
Q 2172 3584 2450 3431 
Q 2728 3278 2906 2969 
L 2906 3500 
L 3481 3500 
L 3481 434 
z
" transform="scale(0.015625)"/>
      <path id="DejaVuSans-2f" d="M 1625 4666 
L 2156 4666 
L 531 -594 
L 0 -594 
L 1625 4666 
z
" transform="scale(0.015625)"/>
      <path id="DejaVuSans-68" d="M 3513 2113 
L 3513 0 
L 2938 0 
L 2938 2094 
Q 2938 2591 2744 2837 
Q 2550 3084 2163 3084 
Q 1697 3084 1428 2787 
Q 1159 2491 1159 1978 
L 1159 0 
L 581 0 
L 581 4863 
L 1159 4863 
L 1159 2956 
Q 1366 3272 1645 3428 
Q 1925 3584 2291 3584 
Q 2894 3584 3203 3211 
Q 3513 2838 3513 2113 
z
" transform="scale(0.015625)"/>
      <path id="DejaVuSans-5f" d="M 3263 -1063 
L 3263 -1509 
L -63 -1509 
L -63 -1063 
L 3263 -1063 
z
" transform="scale(0.015625)"/>
     </defs>
     <use xlink:href="#DejaVuSans-56"/>
     <use xlink:href="#DejaVuSans-69" x="66.158203"/>
     <use xlink:href="#DejaVuSans-6f" x="93.941406"/>
     <use xlink:href="#DejaVuSans-6c" x="155.123047"/>
     <use xlink:href="#DejaVuSans-69" x="182.90625"/>
     <use xlink:href="#DejaVuSans-6e" x="210.689453"/>
     <use xlink:href="#DejaVuSans-70" x="274.068359"/>
     <use xlink:href="#DejaVuSans-6c" x="337.544922"/>
     <use xlink:href="#DejaVuSans-6f" x="365.328125"/>
     <use xlink:href="#DejaVuSans-74" x="426.509766"/>
     <use xlink:href="#DejaVuSans-20" x="465.71875"/>
     <use xlink:href="#DejaVuSans-66" x="497.505859"/>
     <use xlink:href="#DejaVuSans-6f" x="532.710938"/>
     <use xlink:href="#DejaVuSans-72" x="593.892578"/>
     <use xlink:href="#DejaVuSans-20" x="635.005859"/>
     <use xlink:href="#DejaVuSans-70" x="666.792969"/>
     <use xlink:href="#DejaVuSans-72" x="730.269531"/>
     <use xlink:href="#DejaVuSans-6f" x="769.132812"/>
     <use xlink:href="#DejaVuSans-67" x="830.314453"/>
     <use xlink:href="#DejaVuSans-72" x="893.791016"/>
     <use xlink:href="#DejaVuSans-65" x="932.654297"/>
     <use xlink:href="#DejaVuSans-73" x="994.177734"/>
     <use xlink:href="#DejaVuSans-73" x="1046.277344"/>
     <use xlink:href="#DejaVuSans-20" x="1098.376953"/>
     <use xlink:href="#DejaVuSans-6f" x="1130.164062"/>
     <use xlink:href="#DejaVuSans-66" x="1191.345703"/>
     <use xlink:href="#DejaVuSans-20" x="1226.550781"/>
     <use xlink:href="#DejaVuSans-6f" x="1258.337891"/>
     <use xlink:href="#DejaVuSans-77" x="1319.519531"/>
     <use xlink:href="#DejaVuSans-6e" x="1401.306641"/>
     <use xlink:href="#DejaVuSans-65" x="1464.685547"/>
     <use xlink:href="#DejaVuSans-72" x="1526.208984"/>
     <use xlink:href="#DejaVuSans-2f" x="1567.322266"/>
     <use xlink:href="#DejaVuSans-74" x="1601.013672"/>
     <use xlink:href="#DejaVuSans-68" x="1640.222656"/>
     <use xlink:href="#DejaVuSans-72" x="1703.601562"/>
     <use xlink:href="#DejaVuSans-6f" x="1742.464844"/>
     <use xlink:href="#DejaVuSans-77" x="1803.646484"/>
     <use xlink:href="#DejaVuSans-5f" x="1885.433594"/>
     <use xlink:href="#DejaVuSans-61" x="1935.433594"/>
     <use xlink:href="#DejaVuSans-77" x="1996.712891"/>
     <use xlink:href="#DejaVuSans-61" x="2078.5"/>
     <use xlink:href="#DejaVuSans-79" x="2139.779297"/>
    </g>
   </g>
  </g>
 </g>
 <defs>
  <clipPath id="pea225c7b34">
   <rect x="57.6" y="41.472" width="357.12" height="266.112"/>
  </clipPath>
 </defs>
</svg>
