<?xml version="1.0" encoding="utf-8" standalone="no"?>
<!DOCTYPE svg PUBLIC "-//W3C//DTD SVG 1.1//EN"
  "http://www.w3.org/Graphics/SVG/1.1/DTD/svg11.dtd">
<svg xmlns:xlink="http://www.w3.org/1999/xlink" width="460.8pt" height="345.6pt" viewBox="0 0 460.8 345.6" xmlns="http://www.w3.org/2000/svg" version="1.1">
 <metadata>
  <rdf:RDF xmlns:dc="http://purl.org/dc/elements/1.1/" xmlns:cc="http://creativecommons.org/ns#" xmlns:rdf="http://www.w3.org/1999/02/22-rdf-syntax-ns#">
   <cc:Work>
    <dc:type rdf:resource="http://purl.org/dc/dcmitype/StillImage"/>
    <dc:date>2022-06-16T11:36:22.020648</dc:date>
    <dc:format>image/svg+xml</dc:format>
    <dc:creator>
     <cc:Agent>
      <dc:title>Matplotlib v3.5.2, https://matplotlib.org/</dc:title>
     </cc:Agent>
    </dc:creator>
   </cc:Work>
  </rdf:RDF>
 </metadata>
 <defs>
  <style type="text/css">*{stroke-linejoin: round; stroke-linecap: butt}</style>
 </defs>
 <g id="figure_1">
  <g id="patch_1">
   <path d="M 0 345.6 
L 460.8 345.6 
L 460.8 0 
L 0 0 
z
" style="fill: #ffffff"/>
  </g>
  <g id="axes_1">
   <g id="patch_2">
    <path d="M 57.6 307.584 
L 414.72 307.584 
L 414.72 41.472 
L 57.6 41.472 
z
" style="fill: #ffffff"/>
   </g>
   <g id="PolyCollection_1">
    <path d="M 113.410488 295.488 
L 109.213686 295.488 
L 108.825832 293.044364 
L 108.391468 290.600727 
L 107.911298 288.157091 
L 107.387703 285.713455 
L 106.824778 283.269818 
L 106.2282 280.826182 
L 105.604901 278.382545 
L 104.962587 275.938909 
L 104.309131 273.495273 
L 103.651909 271.051636 
L 102.99717 268.608 
L 102.349523 266.164364 
L 101.711593 263.720727 
L 101.08393 261.277091 
L 100.465156 258.833455 
L 99.852342 256.389818 
L 99.241571 253.946182 
L 98.628603 251.502545 
L 98.009542 249.058909 
L 97.38143 246.615273 
L 96.742677 244.171636 
L 96.093278 241.728 
L 95.434792 239.284364 
L 94.770109 236.840727 
L 94.103021 234.397091 
L 93.437706 231.953455 
L 92.778156 229.509818 
L 92.127667 227.066182 
L 91.488423 224.622545 
L 90.861226 222.178909 
L 90.245385 219.735273 
L 89.638752 217.291636 
L 89.037879 214.848 
L 88.438265 212.404364 
L 87.834659 209.960727 
L 87.221397 207.517091 
L 86.592763 205.073455 
L 85.943366 202.629818 
L 85.268525 200.186182 
L 84.564683 197.742545 
L 83.829794 195.298909 
L 83.063709 192.855273 
L 82.268484 190.411636 
L 81.448601 187.968 
L 80.611066 185.524364 
L 79.765344 183.080727 
L 78.923143 180.637091 
L 78.098031 178.193455 
L 77.304929 175.749818 
L 76.559483 173.306182 
L 75.877379 170.862545 
L 75.273636 168.418909 
L 74.76193 165.975273 
L 74.353996 163.531636 
L 74.059171 161.088 
L 73.88411 158.644364 
L 73.832727 156.200727 
L 73.906346 153.757091 
L 74.104065 151.313455 
L 74.423277 148.869818 
L 74.860252 146.426182 
L 75.410696 143.982545 
L 76.070166 141.538909 
L 76.834265 139.095273 
L 77.698546 136.651636 
L 78.658143 134.208 
L 79.707175 131.764364 
L 80.838035 129.320727 
L 82.040723 126.877091 
L 83.302358 124.433455 
L 84.607034 121.989818 
L 85.936094 119.546182 
L 87.268862 117.102545 
L 88.583781 114.658909 
L 89.859832 112.215273 
L 91.078087 109.771636 
L 92.223171 107.328 
L 93.284452 104.884364 
L 94.256803 102.440727 
L 95.140826 99.997091 
L 95.942513 97.553455 
L 96.672393 95.109818 
L 97.344274 92.666182 
L 97.973744 90.222545 
L 98.576615 87.778909 
L 99.167491 85.335273 
L 99.758593 82.891636 
L 100.358969 80.448 
L 100.974109 78.004364 
L 101.605956 75.560727 
L 102.253268 73.117091 
L 102.912213 70.673455 
L 103.577097 68.229818 
L 104.241124 65.786182 
L 104.897079 63.342545 
L 105.5379 60.898909 
L 106.157081 58.455273 
L 106.748928 56.011636 
L 107.308682 53.568 
L 115.315492 53.568 
L 115.315492 53.568 
L 115.875247 56.011636 
L 116.467094 58.455273 
L 117.086275 60.898909 
L 117.727095 63.342545 
L 118.383051 65.786182 
L 119.047077 68.229818 
L 119.711962 70.673455 
L 120.370907 73.117091 
L 121.018219 75.560727 
L 121.650066 78.004364 
L 122.265205 80.448 
L 122.865582 82.891636 
L 123.456684 85.335273 
L 124.047559 87.778909 
L 124.650431 90.222545 
L 125.279901 92.666182 
L 125.951781 95.109818 
L 126.681661 97.553455 
L 127.483349 99.997091 
L 128.367372 102.440727 
L 129.339723 104.884364 
L 130.401003 107.328 
L 131.546087 109.771636 
L 132.764343 112.215273 
L 134.040394 114.658909 
L 135.355312 117.102545 
L 136.688081 119.546182 
L 138.017141 121.989818 
L 139.321817 124.433455 
L 140.583452 126.877091 
L 141.786139 129.320727 
L 142.917 131.764364 
L 143.966031 134.208 
L 144.925628 136.651636 
L 145.78991 139.095273 
L 146.554009 141.538909 
L 147.213479 143.982545 
L 147.763922 146.426182 
L 148.200897 148.869818 
L 148.520109 151.313455 
L 148.717829 153.757091 
L 148.791447 156.200727 
L 148.740064 158.644364 
L 148.565004 161.088 
L 148.270178 163.531636 
L 147.862244 165.975273 
L 147.350539 168.418909 
L 146.746796 170.862545 
L 146.064692 173.306182 
L 145.319245 175.749818 
L 144.526143 178.193455 
L 143.701032 180.637091 
L 142.85883 183.080727 
L 142.013109 185.524364 
L 141.175573 187.968 
L 140.355691 190.411636 
L 139.560465 192.855273 
L 138.79438 195.298909 
L 138.059492 197.742545 
L 137.355649 200.186182 
L 136.680809 202.629818 
L 136.031411 205.073455 
L 135.402778 207.517091 
L 134.789516 209.960727 
L 134.18591 212.404364 
L 133.586296 214.848 
L 132.985423 217.291636 
L 132.37879 219.735273 
L 131.762949 222.178909 
L 131.135752 224.622545 
L 130.496508 227.066182 
L 129.846019 229.509818 
L 129.186469 231.953455 
L 128.521153 234.397091 
L 127.854066 236.840727 
L 127.189382 239.284364 
L 126.530897 241.728 
L 125.881497 244.171636 
L 125.242744 246.615273 
L 124.614632 249.058909 
L 123.995571 251.502545 
L 123.382603 253.946182 
L 122.771833 256.389818 
L 122.159019 258.833455 
L 121.540244 261.277091 
L 120.912582 263.720727 
L 120.274652 266.164364 
L 119.627004 268.608 
L 118.972266 271.051636 
L 118.315044 273.495273 
L 117.661587 275.938909 
L 117.019274 278.382545 
L 116.395975 280.826182 
L 115.799396 283.269818 
L 115.236472 285.713455 
L 114.712877 288.157091 
L 114.232707 290.600727 
L 113.798343 293.044364 
L 113.410488 295.488 
z
" clip-path="url(#p539a805e17)" style="fill: #1f77b4; fill-opacity: 0.3"/>
   </g>
   <g id="PolyCollection_2">
    <path d="M 195.76503 280.368 
L 193.434078 280.368 
L 193.223905 278.229818 
L 192.969983 276.091636 
L 192.663457 273.953455 
L 192.295451 271.815273 
L 191.857722 269.677091 
L 191.343369 267.538909 
L 190.747514 265.400727 
L 190.067886 263.262545 
L 189.305224 261.124364 
L 188.463452 258.986182 
L 187.549574 256.848 
L 186.573298 254.709818 
L 185.54641 252.571636 
L 184.48197 250.433455 
L 183.393416 248.295273 
L 182.293688 246.157091 
L 181.19448 244.018909 
L 180.105702 241.880727 
L 179.035221 239.742545 
L 177.988884 237.604364 
L 176.970797 235.466182 
L 175.983773 233.328 
L 175.029853 231.189818 
L 174.110789 229.051636 
L 173.228381 226.913455 
L 172.384603 224.775273 
L 171.581498 222.637091 
L 170.820856 220.498909 
L 170.103758 218.360727 
L 169.430057 216.222545 
L 168.797929 214.084364 
L 168.203562 211.946182 
L 167.641069 209.808 
L 167.102645 207.669818 
L 166.578971 205.531636 
L 166.059814 203.393455 
L 165.534776 201.255273 
L 164.994119 199.117091 
L 164.429617 196.978909 
L 163.835374 194.840727 
L 163.20858 192.702545 
L 162.550158 190.564364 
L 161.865247 188.426182 
L 161.163474 186.288 
L 160.4589 184.149818 
L 159.769586 182.011636 
L 159.116683 179.873455 
L 158.523051 177.735273 
L 158.011449 175.597091 
L 157.602433 173.458909 
L 157.312211 171.320727 
L 157.150714 169.182545 
L 157.120194 167.044364 
L 157.2146 164.906182 
L 157.419889 162.768 
L 157.715303 160.629818 
L 158.07549 158.491636 
L 158.473215 156.353455 
L 158.882322 154.215273 
L 159.280562 152.077091 
L 159.651922 149.938909 
L 159.988171 147.800727 
L 160.289471 145.662545 
L 160.563985 143.524364 
L 160.826601 141.386182 
L 161.096953 139.248 
L 161.397004 137.109818 
L 161.748503 134.971636 
L 162.170608 132.833455 
L 162.677928 130.695273 
L 163.279195 128.557091 
L 163.976673 126.418909 
L 164.766322 124.280727 
L 165.638668 122.142545 
L 166.580211 120.004364 
L 167.575175 117.866182 
L 168.607356 115.728 
L 169.661808 113.589818 
L 170.726178 111.451636 
L 171.791528 109.313455 
L 172.852571 107.175273 
L 173.907367 105.037091 
L 174.956564 102.898909 
L 176.002356 100.760727 
L 177.04736 98.622545 
L 178.093577 96.484364 
L 179.141604 94.346182 
L 180.190172 92.208 
L 181.236037 90.069818 
L 182.27419 87.931636 
L 183.29829 85.793455 
L 184.301222 83.655273 
L 185.275676 81.517091 
L 186.214655 79.378909 
L 187.111862 77.240727 
L 187.961945 75.102545 
L 188.760611 72.964364 
L 189.504632 70.826182 
L 190.191797 68.688 
L 199.007311 68.688 
L 199.007311 68.688 
L 199.694476 70.826182 
L 200.438498 72.964364 
L 201.237163 75.102545 
L 202.087246 77.240727 
L 202.984453 79.378909 
L 203.923432 81.517091 
L 204.897886 83.655273 
L 205.900818 85.793455 
L 206.924918 87.931636 
L 207.963071 90.069818 
L 209.008936 92.208 
L 210.057504 94.346182 
L 211.105531 96.484364 
L 212.151749 98.622545 
L 213.196752 100.760727 
L 214.242545 102.898909 
L 215.291741 105.037091 
L 216.346537 107.175273 
L 217.40758 109.313455 
L 218.47293 111.451636 
L 219.537301 113.589818 
L 220.591752 115.728 
L 221.623933 117.866182 
L 222.618898 120.004364 
L 223.56044 122.142545 
L 224.432786 124.280727 
L 225.222435 126.418909 
L 225.919913 128.557091 
L 226.52118 130.695273 
L 227.0285 132.833455 
L 227.450605 134.971636 
L 227.802104 137.109818 
L 228.102155 139.248 
L 228.372507 141.386182 
L 228.635123 143.524364 
L 228.909637 145.662545 
L 229.210937 147.800727 
L 229.547187 149.938909 
L 229.918546 152.077091 
L 230.316786 154.215273 
L 230.725893 156.353455 
L 231.123618 158.491636 
L 231.483805 160.629818 
L 231.779219 162.768 
L 231.984508 164.906182 
L 232.078914 167.044364 
L 232.048394 169.182545 
L 231.886897 171.320727 
L 231.596675 173.458909 
L 231.187659 175.597091 
L 230.676057 177.735273 
L 230.082425 179.873455 
L 229.429522 182.011636 
L 228.740208 184.149818 
L 228.035634 186.288 
L 227.333861 188.426182 
L 226.648951 190.564364 
L 225.990528 192.702545 
L 225.363734 194.840727 
L 224.769491 196.978909 
L 224.204989 199.117091 
L 223.664332 201.255273 
L 223.139294 203.393455 
L 222.620137 205.531636 
L 222.096463 207.669818 
L 221.558039 209.808 
L 220.995546 211.946182 
L 220.401179 214.084364 
L 219.769051 216.222545 
L 219.095351 218.360727 
L 218.378252 220.498909 
L 217.61761 222.637091 
L 216.814505 224.775273 
L 215.970727 226.913455 
L 215.088319 229.051636 
L 214.169255 231.189818 
L 213.215335 233.328 
L 212.228311 235.466182 
L 211.210224 237.604364 
L 210.163888 239.742545 
L 209.093406 241.880727 
L 208.004628 244.018909 
L 206.90542 246.157091 
L 205.805693 248.295273 
L 204.717139 250.433455 
L 203.652698 252.571636 
L 202.62581 254.709818 
L 201.649534 256.848 
L 200.735656 258.986182 
L 199.893884 261.124364 
L 199.131223 263.262545 
L 198.451594 265.400727 
L 197.855739 267.538909 
L 197.341386 269.677091 
L 196.903657 271.815273 
L 196.535651 273.953455 
L 196.229125 276.091636 
L 195.975203 278.229818 
L 195.76503 280.368 
z
" clip-path="url(#p539a805e17)" style="fill: #1f77b4; fill-opacity: 0.3"/>
   </g>
   <g id="PolyCollection_3">
    <path d="M 281.22592 265.248 
L 274.548122 265.248 
L 274.027352 263.211636 
L 273.454901 261.175273 
L 272.830725 259.138909 
L 272.156026 257.102545 
L 271.433382 255.066182 
L 270.666792 253.029818 
L 269.861606 250.993455 
L 269.024353 248.957091 
L 268.16247 246.920727 
L 267.283965 244.884364 
L 266.397032 242.848 
L 265.509651 240.811636 
L 264.629202 238.775273 
L 263.762095 236.738909 
L 262.913431 234.702545 
L 262.0867 232.666182 
L 261.283524 230.629818 
L 260.503441 228.593455 
L 259.743769 226.557091 
L 258.999577 224.520727 
L 258.263795 222.484364 
L 257.527519 220.448 
L 256.780527 218.411636 
L 256.012037 216.375273 
L 255.211664 214.338909 
L 254.370539 212.302545 
L 253.482469 210.266182 
L 252.545019 208.229818 
L 251.560365 206.193455 
L 250.535771 204.157091 
L 249.483585 202.120727 
L 248.420686 200.084364 
L 247.367413 198.048 
L 246.346054 196.011636 
L 245.379052 193.975273 
L 244.48715 191.938909 
L 243.687678 189.902545 
L 242.993194 187.866182 
L 242.410632 185.829818 
L 241.941014 183.793455 
L 241.579749 181.757091 
L 241.317389 179.720727 
L 241.140744 177.684364 
L 241.03415 175.648 
L 240.980746 173.611636 
L 240.963631 171.575273 
L 240.966829 169.538909 
L 240.976051 167.502545 
L 240.979276 165.466182 
L 240.96724 163.429818 
L 240.933857 161.393455 
L 240.876633 159.357091 
L 240.797033 157.320727 
L 240.700771 155.284364 
L 240.597889 153.248 
L 240.502551 151.211636 
L 240.432428 149.175273 
L 240.407661 147.138909 
L 240.449399 145.102545 
L 240.578045 143.066182 
L 240.81136 141.029818 
L 241.162668 138.993455 
L 241.639375 136.957091 
L 242.242024 134.920727 
L 242.964009 132.884364 
L 243.792026 130.848 
L 244.707208 128.811636 
L 245.686817 126.775273 
L 246.706312 124.738909 
L 247.741536 122.702545 
L 248.770799 120.666182 
L 249.77662 118.629818 
L 250.746971 116.593455 
L 251.675907 114.557091 
L 252.563546 112.520727 
L 253.415447 110.484364 
L 254.241481 108.448 
L 255.054331 106.411636 
L 255.86783 104.375273 
L 256.695288 102.338909 
L 257.548014 100.302545 
L 258.434165 98.266182 
L 259.358014 96.229818 
L 260.319694 94.193455 
L 261.31539 92.157091 
L 262.337916 90.120727 
L 263.377574 88.084364 
L 264.423159 86.048 
L 265.462976 84.011636 
L 266.48576 81.975273 
L 267.481404 79.938909 
L 268.441438 77.902545 
L 269.359255 75.866182 
L 270.23011 73.829818 
L 271.050926 71.793455 
L 271.819999 69.757091 
L 272.536641 67.720727 
L 273.20085 65.684364 
L 273.813039 63.648 
L 281.961003 63.648 
L 281.961003 63.648 
L 282.573192 65.684364 
L 283.237401 67.720727 
L 283.954043 69.757091 
L 284.723115 71.793455 
L 285.543932 73.829818 
L 286.414787 75.866182 
L 287.332604 77.902545 
L 288.292637 79.938909 
L 289.288281 81.975273 
L 290.311066 84.011636 
L 291.350883 86.048 
L 292.396468 88.084364 
L 293.436126 90.120727 
L 294.458652 92.157091 
L 295.454347 94.193455 
L 296.416027 96.229818 
L 297.339877 98.266182 
L 298.226028 100.302545 
L 299.078754 102.338909 
L 299.906212 104.375273 
L 300.71971 106.411636 
L 301.532561 108.448 
L 302.358594 110.484364 
L 303.210496 112.520727 
L 304.098135 114.557091 
L 305.02707 116.593455 
L 305.997422 118.629818 
L 307.003243 120.666182 
L 308.032506 122.702545 
L 309.06773 124.738909 
L 310.087224 126.775273 
L 311.066834 128.811636 
L 311.982016 130.848 
L 312.810033 132.884364 
L 313.532018 134.920727 
L 314.134667 136.957091 
L 314.611374 138.993455 
L 314.962682 141.029818 
L 315.195997 143.066182 
L 315.324642 145.102545 
L 315.366381 147.138909 
L 315.341614 149.175273 
L 315.271491 151.211636 
L 315.176152 153.248 
L 315.073271 155.284364 
L 314.977009 157.320727 
L 314.897409 159.357091 
L 314.840184 161.393455 
L 314.806802 163.429818 
L 314.794766 165.466182 
L 314.797991 167.502545 
L 314.807212 169.538909 
L 314.810411 171.575273 
L 314.793296 173.611636 
L 314.739891 175.648 
L 314.633297 177.684364 
L 314.456653 179.720727 
L 314.194293 181.757091 
L 313.833027 183.793455 
L 313.36341 185.829818 
L 312.780847 187.866182 
L 312.086364 189.902545 
L 311.286892 191.938909 
L 310.394989 193.975273 
L 309.427988 196.011636 
L 308.406628 198.048 
L 307.353356 200.084364 
L 306.290457 202.120727 
L 305.23827 204.157091 
L 304.213677 206.193455 
L 303.229023 208.229818 
L 302.291572 210.266182 
L 301.403502 212.302545 
L 300.562378 214.338909 
L 299.762005 216.375273 
L 298.993515 218.411636 
L 298.246523 220.448 
L 297.510246 222.484364 
L 296.774465 224.520727 
L 296.030273 226.557091 
L 295.270601 228.593455 
L 294.490517 230.629818 
L 293.687341 232.666182 
L 292.860611 234.702545 
L 292.011947 236.738909 
L 291.14484 238.775273 
L 290.264391 240.811636 
L 289.37701 242.848 
L 288.490076 244.884364 
L 287.611571 246.920727 
L 286.749689 248.957091 
L 285.912436 250.993455 
L 285.10725 253.029818 
L 284.340659 255.066182 
L 283.618016 257.102545 
L 282.943316 259.138909 
L 282.319141 261.175273 
L 281.74669 263.211636 
L 281.22592 265.248 
z
" clip-path="url(#p539a805e17)" style="fill: #1f77b4; fill-opacity: 0.3"/>
   </g>
   <g id="PolyCollection_4">
    <path d="M 366.356889 251.388 
L 355.658936 251.388 
L 354.899117 249.568 
L 354.095706 247.748 
L 353.254569 245.928 
L 352.381836 244.108 
L 351.483597 242.288 
L 350.565627 240.468 
L 349.633188 238.648 
L 348.690909 236.828 
L 347.742774 235.008 
L 346.792224 233.188 
L 345.842347 231.368 
L 344.896147 229.548 
L 343.956857 227.728 
L 343.028226 225.908 
L 342.114753 224.088 
L 341.221794 222.268 
L 340.355508 220.448 
L 339.522613 218.628 
L 338.729949 216.808 
L 337.983889 214.988 
L 337.289644 213.168 
L 336.650553 211.348 
L 336.067464 209.528 
L 335.538301 207.708 
L 335.057915 205.888 
L 334.618266 204.068 
L 334.208971 202.248 
L 333.818176 200.428 
L 333.433682 198.608 
L 333.044191 196.788 
L 332.64054 194.968 
L 332.216749 193.148 
L 331.770742 191.328 
L 331.304621 189.508 
L 330.824434 187.688 
L 330.339436 185.868 
L 329.860893 184.048 
L 329.40059 182.228 
L 328.969182 180.408 
L 328.574636 178.588 
L 328.220946 176.768 
L 327.907329 174.948 
L 327.628033 173.128 
L 327.372827 171.308 
L 327.128164 169.488 
L 326.878911 167.668 
L 326.610474 165.848 
L 326.311081 164.028 
L 325.973953 162.208 
L 325.599113 160.388 
L 325.194577 158.568 
L 324.776779 156.748 
L 324.370116 154.928 
L 324.005647 153.108 
L 323.719018 151.288 
L 323.547809 149.468 
L 323.528553 147.648 
L 323.693685 145.828 
L 324.068743 144.008 
L 324.670053 142.188 
L 325.503129 140.368 
L 326.561923 138.548 
L 327.828984 136.728 
L 329.276493 134.908 
L 330.868071 133.088 
L 332.56117 131.268 
L 334.309831 129.448 
L 336.067554 127.628 
L 337.79004 125.808 
L 339.437597 123.988 
L 340.977032 122.168 
L 342.382937 120.348 
L 343.638329 118.528 
L 344.73467 116.708 
L 345.671349 114.888 
L 346.454746 113.068 
L 347.097013 111.248 
L 347.614701 109.428 
L 348.027376 107.608 
L 348.356306 105.788 
L 348.62329 103.968 
L 348.849676 102.148 
L 349.055567 100.328 
L 349.259215 98.508 
L 349.47657 96.688 
L 349.720974 94.868 
L 350.002963 93.048 
L 350.330151 91.228 
L 350.707206 89.408 
L 351.135892 87.588 
L 351.61519 85.768 
L 352.141497 83.948 
L 352.708906 82.128 
L 353.309569 80.308 
L 353.934132 78.488 
L 354.572227 76.668 
L 355.213001 74.848 
L 355.845655 73.028 
L 356.459947 71.208 
L 365.555878 71.208 
L 365.555878 71.208 
L 366.17017 73.028 
L 366.802824 74.848 
L 367.443599 76.668 
L 368.081694 78.488 
L 368.706256 80.308 
L 369.306919 82.128 
L 369.874328 83.948 
L 370.400635 85.768 
L 370.879933 87.588 
L 371.308619 89.408 
L 371.685674 91.228 
L 372.012862 93.048 
L 372.294851 94.868 
L 372.539256 96.688 
L 372.756611 98.508 
L 372.960258 100.328 
L 373.166149 102.148 
L 373.392536 103.968 
L 373.65952 105.788 
L 373.98845 107.608 
L 374.401125 109.428 
L 374.918813 111.248 
L 375.561079 113.068 
L 376.344477 114.888 
L 377.281156 116.708 
L 378.377496 118.528 
L 379.632888 120.348 
L 381.038793 122.168 
L 382.578228 123.988 
L 384.225785 125.808 
L 385.948271 127.628 
L 387.705994 129.448 
L 389.454655 131.268 
L 391.147755 133.088 
L 392.739333 134.908 
L 394.186842 136.728 
L 395.453902 138.548 
L 396.512696 140.368 
L 397.345773 142.188 
L 397.947083 144.008 
L 398.322141 145.828 
L 398.487273 147.648 
L 398.468016 149.468 
L 398.296808 151.288 
L 398.010178 153.108 
L 397.645709 154.928 
L 397.239047 156.748 
L 396.821248 158.568 
L 396.416713 160.388 
L 396.041873 162.208 
L 395.704745 164.028 
L 395.405351 165.848 
L 395.136914 167.668 
L 394.887661 169.488 
L 394.642998 171.308 
L 394.387792 173.128 
L 394.108496 174.948 
L 393.794879 176.768 
L 393.44119 178.588 
L 393.046644 180.408 
L 392.615236 182.228 
L 392.154932 184.048 
L 391.67639 185.868 
L 391.191391 187.688 
L 390.711205 189.508 
L 390.245084 191.328 
L 389.799076 193.148 
L 389.375286 194.968 
L 388.971635 196.788 
L 388.582144 198.608 
L 388.197649 200.428 
L 387.806855 202.248 
L 387.397559 204.068 
L 386.95791 205.888 
L 386.477524 207.708 
L 385.948362 209.528 
L 385.365272 211.348 
L 384.726181 213.168 
L 384.031936 214.988 
L 383.285877 216.808 
L 382.493213 218.628 
L 381.660317 220.448 
L 380.794031 222.268 
L 379.901072 224.088 
L 378.987599 225.908 
L 378.058968 227.728 
L 377.119678 229.548 
L 376.173479 231.368 
L 375.223601 233.188 
L 374.273051 235.008 
L 373.324917 236.828 
L 372.382637 238.648 
L 371.450198 240.468 
L 370.532229 242.288 
L 369.633989 244.108 
L 368.761257 245.928 
L 367.92012 247.748 
L 367.116708 249.568 
L 366.356889 251.388 
z
" clip-path="url(#p539a805e17)" style="fill: #1f77b4; fill-opacity: 0.3"/>
   </g>
   <g id="matplotlib.axis_1">
    <g id="xtick_1">
     <g id="line2d_1">
      <defs>
       <path id="m82a4ca4da7" d="M 0 0 
L 0 3.5 
" style="stroke: #000000; stroke-width: 0.8"/>
      </defs>
      <g>
       <use xlink:href="#m82a4ca4da7" x="69.668354" y="307.584" style="stroke: #000000; stroke-width: 0.8"/>
      </g>
     </g>
     <g id="text_1">
      <!-- 250 -->
      <g transform="translate(60.124604 322.182437)scale(0.1 -0.1)">
       <defs>
        <path id="DejaVuSans-32" d="M 1228 531 
L 3431 531 
L 3431 0 
L 469 0 
L 469 531 
Q 828 903 1448 1529 
Q 2069 2156 2228 2338 
Q 2531 2678 2651 2914 
Q 2772 3150 2772 3378 
Q 2772 3750 2511 3984 
Q 2250 4219 1831 4219 
Q 1534 4219 1204 4116 
Q 875 4013 500 3803 
L 500 4441 
Q 881 4594 1212 4672 
Q 1544 4750 1819 4750 
Q 2544 4750 2975 4387 
Q 3406 4025 3406 3419 
Q 3406 3131 3298 2873 
Q 3191 2616 2906 2266 
Q 2828 2175 2409 1742 
Q 1991 1309 1228 531 
z
" transform="scale(0.015625)"/>
        <path id="DejaVuSans-35" d="M 691 4666 
L 3169 4666 
L 3169 4134 
L 1269 4134 
L 1269 2991 
Q 1406 3038 1543 3061 
Q 1681 3084 1819 3084 
Q 2600 3084 3056 2656 
Q 3513 2228 3513 1497 
Q 3513 744 3044 326 
Q 2575 -91 1722 -91 
Q 1428 -91 1123 -41 
Q 819 9 494 109 
L 494 744 
Q 775 591 1075 516 
Q 1375 441 1709 441 
Q 2250 441 2565 725 
Q 2881 1009 2881 1497 
Q 2881 1984 2565 2268 
Q 2250 2553 1709 2553 
Q 1456 2553 1204 2497 
Q 953 2441 691 2322 
L 691 4666 
z
" transform="scale(0.015625)"/>
        <path id="DejaVuSans-30" d="M 2034 4250 
Q 1547 4250 1301 3770 
Q 1056 3291 1056 2328 
Q 1056 1369 1301 889 
Q 1547 409 2034 409 
Q 2525 409 2770 889 
Q 3016 1369 3016 2328 
Q 3016 3291 2770 3770 
Q 2525 4250 2034 4250 
z
M 2034 4750 
Q 2819 4750 3233 4129 
Q 3647 3509 3647 2328 
Q 3647 1150 3233 529 
Q 2819 -91 2034 -91 
Q 1250 -91 836 529 
Q 422 1150 422 2328 
Q 422 3509 836 4129 
Q 1250 4750 2034 4750 
z
" transform="scale(0.015625)"/>
       </defs>
       <use xlink:href="#DejaVuSans-32"/>
       <use xlink:href="#DejaVuSans-35" x="63.623047"/>
       <use xlink:href="#DejaVuSans-30" x="127.246094"/>
      </g>
     </g>
    </g>
    <g id="xtick_2">
     <g id="line2d_2">
      <g>
       <use xlink:href="#m82a4ca4da7" x="111.312087" y="307.584" style="stroke: #000000; stroke-width: 0.8"/>
      </g>
     </g>
     <g id="text_2">
      <!-- 500 -->
      <g transform="translate(101.768337 322.182437)scale(0.1 -0.1)">
       <use xlink:href="#DejaVuSans-35"/>
       <use xlink:href="#DejaVuSans-30" x="63.623047"/>
       <use xlink:href="#DejaVuSans-30" x="127.246094"/>
      </g>
     </g>
    </g>
    <g id="xtick_3">
     <g id="line2d_3">
      <g>
       <use xlink:href="#m82a4ca4da7" x="152.955821" y="307.584" style="stroke: #000000; stroke-width: 0.8"/>
      </g>
     </g>
     <g id="text_3">
      <!-- 750 -->
      <g transform="translate(143.412071 322.182437)scale(0.1 -0.1)">
       <defs>
        <path id="DejaVuSans-37" d="M 525 4666 
L 3525 4666 
L 3525 4397 
L 1831 0 
L 1172 0 
L 2766 4134 
L 525 4134 
L 525 4666 
z
" transform="scale(0.015625)"/>
       </defs>
       <use xlink:href="#DejaVuSans-37"/>
       <use xlink:href="#DejaVuSans-35" x="63.623047"/>
       <use xlink:href="#DejaVuSans-30" x="127.246094"/>
      </g>
     </g>
    </g>
    <g id="xtick_4">
     <g id="line2d_4">
      <g>
       <use xlink:href="#m82a4ca4da7" x="194.599554" y="307.584" style="stroke: #000000; stroke-width: 0.8"/>
      </g>
     </g>
     <g id="text_4">
      <!-- 1000 -->
      <g transform="translate(181.874554 322.182437)scale(0.1 -0.1)">
       <defs>
        <path id="DejaVuSans-31" d="M 794 531 
L 1825 531 
L 1825 4091 
L 703 3866 
L 703 4441 
L 1819 4666 
L 2450 4666 
L 2450 531 
L 3481 531 
L 3481 0 
L 794 0 
L 794 531 
z
" transform="scale(0.015625)"/>
       </defs>
       <use xlink:href="#DejaVuSans-31"/>
       <use xlink:href="#DejaVuSans-30" x="63.623047"/>
       <use xlink:href="#DejaVuSans-30" x="127.246094"/>
       <use xlink:href="#DejaVuSans-30" x="190.869141"/>
      </g>
     </g>
    </g>
    <g id="xtick_5">
     <g id="line2d_5">
      <g>
       <use xlink:href="#m82a4ca4da7" x="236.243287" y="307.584" style="stroke: #000000; stroke-width: 0.8"/>
      </g>
     </g>
     <g id="text_5">
      <!-- 1250 -->
      <g transform="translate(223.518287 322.182437)scale(0.1 -0.1)">
       <use xlink:href="#DejaVuSans-31"/>
       <use xlink:href="#DejaVuSans-32" x="63.623047"/>
       <use xlink:href="#DejaVuSans-35" x="127.246094"/>
       <use xlink:href="#DejaVuSans-30" x="190.869141"/>
      </g>
     </g>
    </g>
    <g id="xtick_6">
     <g id="line2d_6">
      <g>
       <use xlink:href="#m82a4ca4da7" x="277.887021" y="307.584" style="stroke: #000000; stroke-width: 0.8"/>
      </g>
     </g>
     <g id="text_6">
      <!-- 1500 -->
      <g transform="translate(265.162021 322.182437)scale(0.1 -0.1)">
       <use xlink:href="#DejaVuSans-31"/>
       <use xlink:href="#DejaVuSans-35" x="63.623047"/>
       <use xlink:href="#DejaVuSans-30" x="127.246094"/>
       <use xlink:href="#DejaVuSans-30" x="190.869141"/>
      </g>
     </g>
    </g>
    <g id="xtick_7">
     <g id="line2d_7">
      <g>
       <use xlink:href="#m82a4ca4da7" x="319.530754" y="307.584" style="stroke: #000000; stroke-width: 0.8"/>
      </g>
     </g>
     <g id="text_7">
      <!-- 1750 -->
      <g transform="translate(306.805754 322.182437)scale(0.1 -0.1)">
       <use xlink:href="#DejaVuSans-31"/>
       <use xlink:href="#DejaVuSans-37" x="63.623047"/>
       <use xlink:href="#DejaVuSans-35" x="127.246094"/>
       <use xlink:href="#DejaVuSans-30" x="190.869141"/>
      </g>
     </g>
    </g>
    <g id="xtick_8">
     <g id="line2d_8">
      <g>
       <use xlink:href="#m82a4ca4da7" x="361.174488" y="307.584" style="stroke: #000000; stroke-width: 0.8"/>
      </g>
     </g>
     <g id="text_8">
      <!-- 2000 -->
      <g transform="translate(348.449488 322.182437)scale(0.1 -0.1)">
       <use xlink:href="#DejaVuSans-32"/>
       <use xlink:href="#DejaVuSans-30" x="63.623047"/>
       <use xlink:href="#DejaVuSans-30" x="127.246094"/>
       <use xlink:href="#DejaVuSans-30" x="190.869141"/>
      </g>
     </g>
    </g>
    <g id="xtick_9">
     <g id="line2d_9">
      <g>
       <use xlink:href="#m82a4ca4da7" x="402.818221" y="307.584" style="stroke: #000000; stroke-width: 0.8"/>
      </g>
     </g>
     <g id="text_9">
      <!-- 2250 -->
      <g transform="translate(390.093221 322.182437)scale(0.1 -0.1)">
       <use xlink:href="#DejaVuSans-32"/>
       <use xlink:href="#DejaVuSans-32" x="63.623047"/>
       <use xlink:href="#DejaVuSans-35" x="127.246094"/>
       <use xlink:href="#DejaVuSans-30" x="190.869141"/>
      </g>
     </g>
    </g>
    <g id="text_10">
     <!-- Learned Episodes -->
     <g transform="translate(192.102187 335.860562)scale(0.1 -0.1)">
      <defs>
       <path id="DejaVuSans-4c" d="M 628 4666 
L 1259 4666 
L 1259 531 
L 3531 531 
L 3531 0 
L 628 0 
L 628 4666 
z
" transform="scale(0.015625)"/>
       <path id="DejaVuSans-65" d="M 3597 1894 
L 3597 1613 
L 953 1613 
Q 991 1019 1311 708 
Q 1631 397 2203 397 
Q 2534 397 2845 478 
Q 3156 559 3463 722 
L 3463 178 
Q 3153 47 2828 -22 
Q 2503 -91 2169 -91 
Q 1331 -91 842 396 
Q 353 884 353 1716 
Q 353 2575 817 3079 
Q 1281 3584 2069 3584 
Q 2775 3584 3186 3129 
Q 3597 2675 3597 1894 
z
M 3022 2063 
Q 3016 2534 2758 2815 
Q 2500 3097 2075 3097 
Q 1594 3097 1305 2825 
Q 1016 2553 972 2059 
L 3022 2063 
z
" transform="scale(0.015625)"/>
       <path id="DejaVuSans-61" d="M 2194 1759 
Q 1497 1759 1228 1600 
Q 959 1441 959 1056 
Q 959 750 1161 570 
Q 1363 391 1709 391 
Q 2188 391 2477 730 
Q 2766 1069 2766 1631 
L 2766 1759 
L 2194 1759 
z
M 3341 1997 
L 3341 0 
L 2766 0 
L 2766 531 
Q 2569 213 2275 61 
Q 1981 -91 1556 -91 
Q 1019 -91 701 211 
Q 384 513 384 1019 
Q 384 1609 779 1909 
Q 1175 2209 1959 2209 
L 2766 2209 
L 2766 2266 
Q 2766 2663 2505 2880 
Q 2244 3097 1772 3097 
Q 1472 3097 1187 3025 
Q 903 2953 641 2809 
L 641 3341 
Q 956 3463 1253 3523 
Q 1550 3584 1831 3584 
Q 2591 3584 2966 3190 
Q 3341 2797 3341 1997 
z
" transform="scale(0.015625)"/>
       <path id="DejaVuSans-72" d="M 2631 2963 
Q 2534 3019 2420 3045 
Q 2306 3072 2169 3072 
Q 1681 3072 1420 2755 
Q 1159 2438 1159 1844 
L 1159 0 
L 581 0 
L 581 3500 
L 1159 3500 
L 1159 2956 
Q 1341 3275 1631 3429 
Q 1922 3584 2338 3584 
Q 2397 3584 2469 3576 
Q 2541 3569 2628 3553 
L 2631 2963 
z
" transform="scale(0.015625)"/>
       <path id="DejaVuSans-6e" d="M 3513 2113 
L 3513 0 
L 2938 0 
L 2938 2094 
Q 2938 2591 2744 2837 
Q 2550 3084 2163 3084 
Q 1697 3084 1428 2787 
Q 1159 2491 1159 1978 
L 1159 0 
L 581 0 
L 581 3500 
L 1159 3500 
L 1159 2956 
Q 1366 3272 1645 3428 
Q 1925 3584 2291 3584 
Q 2894 3584 3203 3211 
Q 3513 2838 3513 2113 
z
" transform="scale(0.015625)"/>
       <path id="DejaVuSans-64" d="M 2906 2969 
L 2906 4863 
L 3481 4863 
L 3481 0 
L 2906 0 
L 2906 525 
Q 2725 213 2448 61 
Q 2172 -91 1784 -91 
Q 1150 -91 751 415 
Q 353 922 353 1747 
Q 353 2572 751 3078 
Q 1150 3584 1784 3584 
Q 2172 3584 2448 3432 
Q 2725 3281 2906 2969 
z
M 947 1747 
Q 947 1113 1208 752 
Q 1469 391 1925 391 
Q 2381 391 2643 752 
Q 2906 1113 2906 1747 
Q 2906 2381 2643 2742 
Q 2381 3103 1925 3103 
Q 1469 3103 1208 2742 
Q 947 2381 947 1747 
z
" transform="scale(0.015625)"/>
       <path id="DejaVuSans-20" transform="scale(0.015625)"/>
       <path id="DejaVuSans-45" d="M 628 4666 
L 3578 4666 
L 3578 4134 
L 1259 4134 
L 1259 2753 
L 3481 2753 
L 3481 2222 
L 1259 2222 
L 1259 531 
L 3634 531 
L 3634 0 
L 628 0 
L 628 4666 
z
" transform="scale(0.015625)"/>
       <path id="DejaVuSans-70" d="M 1159 525 
L 1159 -1331 
L 581 -1331 
L 581 3500 
L 1159 3500 
L 1159 2969 
Q 1341 3281 1617 3432 
Q 1894 3584 2278 3584 
Q 2916 3584 3314 3078 
Q 3713 2572 3713 1747 
Q 3713 922 3314 415 
Q 2916 -91 2278 -91 
Q 1894 -91 1617 61 
Q 1341 213 1159 525 
z
M 3116 1747 
Q 3116 2381 2855 2742 
Q 2594 3103 2138 3103 
Q 1681 3103 1420 2742 
Q 1159 2381 1159 1747 
Q 1159 1113 1420 752 
Q 1681 391 2138 391 
Q 2594 391 2855 752 
Q 3116 1113 3116 1747 
z
" transform="scale(0.015625)"/>
       <path id="DejaVuSans-69" d="M 603 3500 
L 1178 3500 
L 1178 0 
L 603 0 
L 603 3500 
z
M 603 4863 
L 1178 4863 
L 1178 4134 
L 603 4134 
L 603 4863 
z
" transform="scale(0.015625)"/>
       <path id="DejaVuSans-73" d="M 2834 3397 
L 2834 2853 
Q 2591 2978 2328 3040 
Q 2066 3103 1784 3103 
Q 1356 3103 1142 2972 
Q 928 2841 928 2578 
Q 928 2378 1081 2264 
Q 1234 2150 1697 2047 
L 1894 2003 
Q 2506 1872 2764 1633 
Q 3022 1394 3022 966 
Q 3022 478 2636 193 
Q 2250 -91 1575 -91 
Q 1294 -91 989 -36 
Q 684 19 347 128 
L 347 722 
Q 666 556 975 473 
Q 1284 391 1588 391 
Q 1994 391 2212 530 
Q 2431 669 2431 922 
Q 2431 1156 2273 1281 
Q 2116 1406 1581 1522 
L 1381 1569 
Q 847 1681 609 1914 
Q 372 2147 372 2553 
Q 372 3047 722 3315 
Q 1072 3584 1716 3584 
Q 2034 3584 2315 3537 
Q 2597 3491 2834 3397 
z
" transform="scale(0.015625)"/>
       <path id="DejaVuSans-6f" d="M 1959 3097 
Q 1497 3097 1228 2736 
Q 959 2375 959 1747 
Q 959 1119 1226 758 
Q 1494 397 1959 397 
Q 2419 397 2687 759 
Q 2956 1122 2956 1747 
Q 2956 2369 2687 2733 
Q 2419 3097 1959 3097 
z
M 1959 3584 
Q 2709 3584 3137 3096 
Q 3566 2609 3566 1747 
Q 3566 888 3137 398 
Q 2709 -91 1959 -91 
Q 1206 -91 779 398 
Q 353 888 353 1747 
Q 353 2609 779 3096 
Q 1206 3584 1959 3584 
z
" transform="scale(0.015625)"/>
      </defs>
      <use xlink:href="#DejaVuSans-4c"/>
      <use xlink:href="#DejaVuSans-65" x="53.962891"/>
      <use xlink:href="#DejaVuSans-61" x="115.486328"/>
      <use xlink:href="#DejaVuSans-72" x="176.765625"/>
      <use xlink:href="#DejaVuSans-6e" x="216.128906"/>
      <use xlink:href="#DejaVuSans-65" x="279.507812"/>
      <use xlink:href="#DejaVuSans-64" x="341.03125"/>
      <use xlink:href="#DejaVuSans-20" x="404.507812"/>
      <use xlink:href="#DejaVuSans-45" x="436.294922"/>
      <use xlink:href="#DejaVuSans-70" x="499.478516"/>
      <use xlink:href="#DejaVuSans-69" x="562.955078"/>
      <use xlink:href="#DejaVuSans-73" x="590.738281"/>
      <use xlink:href="#DejaVuSans-6f" x="642.837891"/>
      <use xlink:href="#DejaVuSans-64" x="704.019531"/>
      <use xlink:href="#DejaVuSans-65" x="767.496094"/>
      <use xlink:href="#DejaVuSans-73" x="829.019531"/>
     </g>
    </g>
   </g>
   <g id="matplotlib.axis_2">
    <g id="ytick_1">
     <g id="line2d_10">
      <defs>
       <path id="m3bb14b00fb" d="M 0 0 
L -3.5 0 
" style="stroke: #000000; stroke-width: 0.8"/>
      </defs>
      <g>
       <use xlink:href="#m3bb14b00fb" x="57.6" y="282.888" style="stroke: #000000; stroke-width: 0.8"/>
      </g>
     </g>
     <g id="text_11">
      <!-- 75 -->
      <g transform="translate(37.875 286.687219)scale(0.1 -0.1)">
       <use xlink:href="#DejaVuSans-37"/>
       <use xlink:href="#DejaVuSans-35" x="63.623047"/>
      </g>
     </g>
    </g>
    <g id="ytick_2">
     <g id="line2d_11">
      <g>
       <use xlink:href="#m3bb14b00fb" x="57.6" y="251.388" style="stroke: #000000; stroke-width: 0.8"/>
      </g>
     </g>
     <g id="text_12">
      <!-- 100 -->
      <g transform="translate(31.5125 255.187219)scale(0.1 -0.1)">
       <use xlink:href="#DejaVuSans-31"/>
       <use xlink:href="#DejaVuSans-30" x="63.623047"/>
       <use xlink:href="#DejaVuSans-30" x="127.246094"/>
      </g>
     </g>
    </g>
    <g id="ytick_3">
     <g id="line2d_12">
      <g>
       <use xlink:href="#m3bb14b00fb" x="57.6" y="219.888" style="stroke: #000000; stroke-width: 0.8"/>
      </g>
     </g>
     <g id="text_13">
      <!-- 125 -->
      <g transform="translate(31.5125 223.687219)scale(0.1 -0.1)">
       <use xlink:href="#DejaVuSans-31"/>
       <use xlink:href="#DejaVuSans-32" x="63.623047"/>
       <use xlink:href="#DejaVuSans-35" x="127.246094"/>
      </g>
     </g>
    </g>
    <g id="ytick_4">
     <g id="line2d_13">
      <g>
       <use xlink:href="#m3bb14b00fb" x="57.6" y="188.388" style="stroke: #000000; stroke-width: 0.8"/>
      </g>
     </g>
     <g id="text_14">
      <!-- 150 -->
      <g transform="translate(31.5125 192.187219)scale(0.1 -0.1)">
       <use xlink:href="#DejaVuSans-31"/>
       <use xlink:href="#DejaVuSans-35" x="63.623047"/>
       <use xlink:href="#DejaVuSans-30" x="127.246094"/>
      </g>
     </g>
    </g>
    <g id="ytick_5">
     <g id="line2d_14">
      <g>
       <use xlink:href="#m3bb14b00fb" x="57.6" y="156.888" style="stroke: #000000; stroke-width: 0.8"/>
      </g>
     </g>
     <g id="text_15">
      <!-- 175 -->
      <g transform="translate(31.5125 160.687219)scale(0.1 -0.1)">
       <use xlink:href="#DejaVuSans-31"/>
       <use xlink:href="#DejaVuSans-37" x="63.623047"/>
       <use xlink:href="#DejaVuSans-35" x="127.246094"/>
      </g>
     </g>
    </g>
    <g id="ytick_6">
     <g id="line2d_15">
      <g>
       <use xlink:href="#m3bb14b00fb" x="57.6" y="125.388" style="stroke: #000000; stroke-width: 0.8"/>
      </g>
     </g>
     <g id="text_16">
      <!-- 200 -->
      <g transform="translate(31.5125 129.187219)scale(0.1 -0.1)">
       <use xlink:href="#DejaVuSans-32"/>
       <use xlink:href="#DejaVuSans-30" x="63.623047"/>
       <use xlink:href="#DejaVuSans-30" x="127.246094"/>
      </g>
     </g>
    </g>
    <g id="ytick_7">
     <g id="line2d_16">
      <g>
       <use xlink:href="#m3bb14b00fb" x="57.6" y="93.888" style="stroke: #000000; stroke-width: 0.8"/>
      </g>
     </g>
     <g id="text_17">
      <!-- 225 -->
      <g transform="translate(31.5125 97.687219)scale(0.1 -0.1)">
       <use xlink:href="#DejaVuSans-32"/>
       <use xlink:href="#DejaVuSans-32" x="63.623047"/>
       <use xlink:href="#DejaVuSans-35" x="127.246094"/>
      </g>
     </g>
    </g>
    <g id="ytick_8">
     <g id="line2d_17">
      <g>
       <use xlink:href="#m3bb14b00fb" x="57.6" y="62.388" style="stroke: #000000; stroke-width: 0.8"/>
      </g>
     </g>
     <g id="text_18">
      <!-- 250 -->
      <g transform="translate(31.5125 66.187219)scale(0.1 -0.1)">
       <use xlink:href="#DejaVuSans-32"/>
       <use xlink:href="#DejaVuSans-35" x="63.623047"/>
       <use xlink:href="#DejaVuSans-30" x="127.246094"/>
      </g>
     </g>
    </g>
    <g id="text_19">
     <!-- Reward Density -->
     <g transform="translate(25.432812 213.74675)rotate(-90)scale(0.1 -0.1)">
      <defs>
       <path id="DejaVuSans-52" d="M 2841 2188 
Q 3044 2119 3236 1894 
Q 3428 1669 3622 1275 
L 4263 0 
L 3584 0 
L 2988 1197 
Q 2756 1666 2539 1819 
Q 2322 1972 1947 1972 
L 1259 1972 
L 1259 0 
L 628 0 
L 628 4666 
L 2053 4666 
Q 2853 4666 3247 4331 
Q 3641 3997 3641 3322 
Q 3641 2881 3436 2590 
Q 3231 2300 2841 2188 
z
M 1259 4147 
L 1259 2491 
L 2053 2491 
Q 2509 2491 2742 2702 
Q 2975 2913 2975 3322 
Q 2975 3731 2742 3939 
Q 2509 4147 2053 4147 
L 1259 4147 
z
" transform="scale(0.015625)"/>
       <path id="DejaVuSans-77" d="M 269 3500 
L 844 3500 
L 1563 769 
L 2278 3500 
L 2956 3500 
L 3675 769 
L 4391 3500 
L 4966 3500 
L 4050 0 
L 3372 0 
L 2619 2869 
L 1863 0 
L 1184 0 
L 269 3500 
z
" transform="scale(0.015625)"/>
       <path id="DejaVuSans-44" d="M 1259 4147 
L 1259 519 
L 2022 519 
Q 2988 519 3436 956 
Q 3884 1394 3884 2338 
Q 3884 3275 3436 3711 
Q 2988 4147 2022 4147 
L 1259 4147 
z
M 628 4666 
L 1925 4666 
Q 3281 4666 3915 4102 
Q 4550 3538 4550 2338 
Q 4550 1131 3912 565 
Q 3275 0 1925 0 
L 628 0 
L 628 4666 
z
" transform="scale(0.015625)"/>
       <path id="DejaVuSans-74" d="M 1172 4494 
L 1172 3500 
L 2356 3500 
L 2356 3053 
L 1172 3053 
L 1172 1153 
Q 1172 725 1289 603 
Q 1406 481 1766 481 
L 2356 481 
L 2356 0 
L 1766 0 
Q 1100 0 847 248 
Q 594 497 594 1153 
L 594 3053 
L 172 3053 
L 172 3500 
L 594 3500 
L 594 4494 
L 1172 4494 
z
" transform="scale(0.015625)"/>
       <path id="DejaVuSans-79" d="M 2059 -325 
Q 1816 -950 1584 -1140 
Q 1353 -1331 966 -1331 
L 506 -1331 
L 506 -850 
L 844 -850 
Q 1081 -850 1212 -737 
Q 1344 -625 1503 -206 
L 1606 56 
L 191 3500 
L 800 3500 
L 1894 763 
L 2988 3500 
L 3597 3500 
L 2059 -325 
z
" transform="scale(0.015625)"/>
      </defs>
      <use xlink:href="#DejaVuSans-52"/>
      <use xlink:href="#DejaVuSans-65" x="64.982422"/>
      <use xlink:href="#DejaVuSans-77" x="126.505859"/>
      <use xlink:href="#DejaVuSans-61" x="208.292969"/>
      <use xlink:href="#DejaVuSans-72" x="269.572266"/>
      <use xlink:href="#DejaVuSans-64" x="308.935547"/>
      <use xlink:href="#DejaVuSans-20" x="372.412109"/>
      <use xlink:href="#DejaVuSans-44" x="404.199219"/>
      <use xlink:href="#DejaVuSans-65" x="481.201172"/>
      <use xlink:href="#DejaVuSans-6e" x="542.724609"/>
      <use xlink:href="#DejaVuSans-73" x="606.103516"/>
      <use xlink:href="#DejaVuSans-69" x="658.203125"/>
      <use xlink:href="#DejaVuSans-74" x="685.986328"/>
      <use xlink:href="#DejaVuSans-79" x="725.195312"/>
     </g>
    </g>
   </g>
   <g id="LineCollection_1">
    <path d="M 92.572407 167.41656 
L 130.051767 167.41656 
" clip-path="url(#p539a805e17)" style="fill: none; stroke: #1f77b4; stroke-width: 1.5"/>
    <path d="M 175.859874 166.20192 
L 213.339234 166.20192 
" clip-path="url(#p539a805e17)" style="fill: none; stroke: #1f77b4; stroke-width: 1.5"/>
    <path d="M 259.147341 161.928 
L 296.626701 161.928 
" clip-path="url(#p539a805e17)" style="fill: none; stroke: #1f77b4; stroke-width: 1.5"/>
    <path d="M 342.268233 165.74832 
L 379.747593 165.74832 
" clip-path="url(#p539a805e17)" style="fill: none; stroke: #1f77b4; stroke-width: 1.5"/>
   </g>
   <g id="LineCollection_2">
    <path d="M 92.572407 53.568 
L 130.051767 53.568 
" clip-path="url(#p539a805e17)" style="fill: none; stroke: #1f77b4; stroke-width: 1.5"/>
    <path d="M 175.859874 68.688 
L 213.339234 68.688 
" clip-path="url(#p539a805e17)" style="fill: none; stroke: #1f77b4; stroke-width: 1.5"/>
    <path d="M 259.147341 63.648 
L 296.626701 63.648 
" clip-path="url(#p539a805e17)" style="fill: none; stroke: #1f77b4; stroke-width: 1.5"/>
    <path d="M 342.268233 71.208 
L 379.747593 71.208 
" clip-path="url(#p539a805e17)" style="fill: none; stroke: #1f77b4; stroke-width: 1.5"/>
   </g>
   <g id="LineCollection_3">
    <path d="M 92.572407 295.488 
L 130.051767 295.488 
" clip-path="url(#p539a805e17)" style="fill: none; stroke: #1f77b4; stroke-width: 1.5"/>
    <path d="M 175.859874 280.368 
L 213.339234 280.368 
" clip-path="url(#p539a805e17)" style="fill: none; stroke: #1f77b4; stroke-width: 1.5"/>
    <path d="M 259.147341 265.248 
L 296.626701 265.248 
" clip-path="url(#p539a805e17)" style="fill: none; stroke: #1f77b4; stroke-width: 1.5"/>
    <path d="M 342.268233 251.388 
L 379.747593 251.388 
" clip-path="url(#p539a805e17)" style="fill: none; stroke: #1f77b4; stroke-width: 1.5"/>
   </g>
   <g id="LineCollection_4">
    <path d="M 111.312087 295.488 
L 111.312087 53.568 
" clip-path="url(#p539a805e17)" style="fill: none; stroke: #1f77b4; stroke-width: 1.5"/>
    <path d="M 194.599554 280.368 
L 194.599554 68.688 
" clip-path="url(#p539a805e17)" style="fill: none; stroke: #1f77b4; stroke-width: 1.5"/>
    <path d="M 277.887021 265.248 
L 277.887021 63.648 
" clip-path="url(#p539a805e17)" style="fill: none; stroke: #1f77b4; stroke-width: 1.5"/>
    <path d="M 361.007913 251.388 
L 361.007913 71.208 
" clip-path="url(#p539a805e17)" style="fill: none; stroke: #1f77b4; stroke-width: 1.5"/>
   </g>
   <g id="line2d_18">
    <path d="M 111.312087 167.41656 
L 194.599554 166.20192 
L 277.887021 161.928 
L 361.007913 165.74832 
" clip-path="url(#p539a805e17)" style="fill: none; stroke: #4682b4; stroke-width: 1.5; stroke-linecap: square"/>
   </g>
   <g id="patch_3">
    <path d="M 57.6 307.584 
L 57.6 41.472 
" style="fill: none; stroke: #000000; stroke-width: 0.8; stroke-linejoin: miter; stroke-linecap: square"/>
   </g>
   <g id="patch_4">
    <path d="M 414.72 307.584 
L 414.72 41.472 
" style="fill: none; stroke: #000000; stroke-width: 0.8; stroke-linejoin: miter; stroke-linecap: square"/>
   </g>
   <g id="patch_5">
    <path d="M 57.6 307.584 
L 414.72 307.584 
" style="fill: none; stroke: #000000; stroke-width: 0.8; stroke-linejoin: miter; stroke-linecap: square"/>
   </g>
   <g id="patch_6">
    <path d="M 57.6 41.472 
L 414.72 41.472 
" style="fill: none; stroke: #000000; stroke-width: 0.8; stroke-linejoin: miter; stroke-linecap: square"/>
   </g>
   <g id="text_20">
    <!-- Violinplot for progress of customer/purchases_refurbished -->
    <g transform="translate(62.41125 35.472)scale(0.12 -0.12)">
     <defs>
      <path id="DejaVuSans-56" d="M 1831 0 
L 50 4666 
L 709 4666 
L 2188 738 
L 3669 4666 
L 4325 4666 
L 2547 0 
L 1831 0 
z
" transform="scale(0.015625)"/>
      <path id="DejaVuSans-6c" d="M 603 4863 
L 1178 4863 
L 1178 0 
L 603 0 
L 603 4863 
z
" transform="scale(0.015625)"/>
      <path id="DejaVuSans-66" d="M 2375 4863 
L 2375 4384 
L 1825 4384 
Q 1516 4384 1395 4259 
Q 1275 4134 1275 3809 
L 1275 3500 
L 2222 3500 
L 2222 3053 
L 1275 3053 
L 1275 0 
L 697 0 
L 697 3053 
L 147 3053 
L 147 3500 
L 697 3500 
L 697 3744 
Q 697 4328 969 4595 
Q 1241 4863 1831 4863 
L 2375 4863 
z
" transform="scale(0.015625)"/>
      <path id="DejaVuSans-67" d="M 2906 1791 
Q 2906 2416 2648 2759 
Q 2391 3103 1925 3103 
Q 1463 3103 1205 2759 
Q 947 2416 947 1791 
Q 947 1169 1205 825 
Q 1463 481 1925 481 
Q 2391 481 2648 825 
Q 2906 1169 2906 1791 
z
M 3481 434 
Q 3481 -459 3084 -895 
Q 2688 -1331 1869 -1331 
Q 1566 -1331 1297 -1286 
Q 1028 -1241 775 -1147 
L 775 -588 
Q 1028 -725 1275 -790 
Q 1522 -856 1778 -856 
Q 2344 -856 2625 -561 
Q 2906 -266 2906 331 
L 2906 616 
Q 2728 306 2450 153 
Q 2172 0 1784 0 
Q 1141 0 747 490 
Q 353 981 353 1791 
Q 353 2603 747 3093 
Q 1141 3584 1784 3584 
Q 2172 3584 2450 3431 
Q 2728 3278 2906 2969 
L 2906 3500 
L 3481 3500 
L 3481 434 
z
" transform="scale(0.015625)"/>
      <path id="DejaVuSans-63" d="M 3122 3366 
L 3122 2828 
Q 2878 2963 2633 3030 
Q 2388 3097 2138 3097 
Q 1578 3097 1268 2742 
Q 959 2388 959 1747 
Q 959 1106 1268 751 
Q 1578 397 2138 397 
Q 2388 397 2633 464 
Q 2878 531 3122 666 
L 3122 134 
Q 2881 22 2623 -34 
Q 2366 -91 2075 -91 
Q 1284 -91 818 406 
Q 353 903 353 1747 
Q 353 2603 823 3093 
Q 1294 3584 2113 3584 
Q 2378 3584 2631 3529 
Q 2884 3475 3122 3366 
z
" transform="scale(0.015625)"/>
      <path id="DejaVuSans-75" d="M 544 1381 
L 544 3500 
L 1119 3500 
L 1119 1403 
Q 1119 906 1312 657 
Q 1506 409 1894 409 
Q 2359 409 2629 706 
Q 2900 1003 2900 1516 
L 2900 3500 
L 3475 3500 
L 3475 0 
L 2900 0 
L 2900 538 
Q 2691 219 2414 64 
Q 2138 -91 1772 -91 
Q 1169 -91 856 284 
Q 544 659 544 1381 
z
M 1991 3584 
L 1991 3584 
z
" transform="scale(0.015625)"/>
      <path id="DejaVuSans-6d" d="M 3328 2828 
Q 3544 3216 3844 3400 
Q 4144 3584 4550 3584 
Q 5097 3584 5394 3201 
Q 5691 2819 5691 2113 
L 5691 0 
L 5113 0 
L 5113 2094 
Q 5113 2597 4934 2840 
Q 4756 3084 4391 3084 
Q 3944 3084 3684 2787 
Q 3425 2491 3425 1978 
L 3425 0 
L 2847 0 
L 2847 2094 
Q 2847 2600 2669 2842 
Q 2491 3084 2119 3084 
Q 1678 3084 1418 2786 
Q 1159 2488 1159 1978 
L 1159 0 
L 581 0 
L 581 3500 
L 1159 3500 
L 1159 2956 
Q 1356 3278 1631 3431 
Q 1906 3584 2284 3584 
Q 2666 3584 2933 3390 
Q 3200 3197 3328 2828 
z
" transform="scale(0.015625)"/>
      <path id="DejaVuSans-2f" d="M 1625 4666 
L 2156 4666 
L 531 -594 
L 0 -594 
L 1625 4666 
z
" transform="scale(0.015625)"/>
      <path id="DejaVuSans-68" d="M 3513 2113 
L 3513 0 
L 2938 0 
L 2938 2094 
Q 2938 2591 2744 2837 
Q 2550 3084 2163 3084 
Q 1697 3084 1428 2787 
Q 1159 2491 1159 1978 
L 1159 0 
L 581 0 
L 581 4863 
L 1159 4863 
L 1159 2956 
Q 1366 3272 1645 3428 
Q 1925 3584 2291 3584 
Q 2894 3584 3203 3211 
Q 3513 2838 3513 2113 
z
" transform="scale(0.015625)"/>
      <path id="DejaVuSans-5f" d="M 3263 -1063 
L 3263 -1509 
L -63 -1509 
L -63 -1063 
L 3263 -1063 
z
" transform="scale(0.015625)"/>
      <path id="DejaVuSans-62" d="M 3116 1747 
Q 3116 2381 2855 2742 
Q 2594 3103 2138 3103 
Q 1681 3103 1420 2742 
Q 1159 2381 1159 1747 
Q 1159 1113 1420 752 
Q 1681 391 2138 391 
Q 2594 391 2855 752 
Q 3116 1113 3116 1747 
z
M 1159 2969 
Q 1341 3281 1617 3432 
Q 1894 3584 2278 3584 
Q 2916 3584 3314 3078 
Q 3713 2572 3713 1747 
Q 3713 922 3314 415 
Q 2916 -91 2278 -91 
Q 1894 -91 1617 61 
Q 1341 213 1159 525 
L 1159 0 
L 581 0 
L 581 4863 
L 1159 4863 
L 1159 2969 
z
" transform="scale(0.015625)"/>
     </defs>
     <use xlink:href="#DejaVuSans-56"/>
     <use xlink:href="#DejaVuSans-69" x="66.158203"/>
     <use xlink:href="#DejaVuSans-6f" x="93.941406"/>
     <use xlink:href="#DejaVuSans-6c" x="155.123047"/>
     <use xlink:href="#DejaVuSans-69" x="182.90625"/>
     <use xlink:href="#DejaVuSans-6e" x="210.689453"/>
     <use xlink:href="#DejaVuSans-70" x="274.068359"/>
     <use xlink:href="#DejaVuSans-6c" x="337.544922"/>
     <use xlink:href="#DejaVuSans-6f" x="365.328125"/>
     <use xlink:href="#DejaVuSans-74" x="426.509766"/>
     <use xlink:href="#DejaVuSans-20" x="465.71875"/>
     <use xlink:href="#DejaVuSans-66" x="497.505859"/>
     <use xlink:href="#DejaVuSans-6f" x="532.710938"/>
     <use xlink:href="#DejaVuSans-72" x="593.892578"/>
     <use xlink:href="#DejaVuSans-20" x="635.005859"/>
     <use xlink:href="#DejaVuSans-70" x="666.792969"/>
     <use xlink:href="#DejaVuSans-72" x="730.269531"/>
     <use xlink:href="#DejaVuSans-6f" x="769.132812"/>
     <use xlink:href="#DejaVuSans-67" x="830.314453"/>
     <use xlink:href="#DejaVuSans-72" x="893.791016"/>
     <use xlink:href="#DejaVuSans-65" x="932.654297"/>
     <use xlink:href="#DejaVuSans-73" x="994.177734"/>
     <use xlink:href="#DejaVuSans-73" x="1046.277344"/>
     <use xlink:href="#DejaVuSans-20" x="1098.376953"/>
     <use xlink:href="#DejaVuSans-6f" x="1130.164062"/>
     <use xlink:href="#DejaVuSans-66" x="1191.345703"/>
     <use xlink:href="#DejaVuSans-20" x="1226.550781"/>
     <use xlink:href="#DejaVuSans-63" x="1258.337891"/>
     <use xlink:href="#DejaVuSans-75" x="1313.318359"/>
     <use xlink:href="#DejaVuSans-73" x="1376.697266"/>
     <use xlink:href="#DejaVuSans-74" x="1428.796875"/>
     <use xlink:href="#DejaVuSans-6f" x="1468.005859"/>
     <use xlink:href="#DejaVuSans-6d" x="1529.1875"/>
     <use xlink:href="#DejaVuSans-65" x="1626.599609"/>
     <use xlink:href="#DejaVuSans-72" x="1688.123047"/>
     <use xlink:href="#DejaVuSans-2f" x="1729.236328"/>
     <use xlink:href="#DejaVuSans-70" x="1762.927734"/>
     <use xlink:href="#DejaVuSans-75" x="1826.404297"/>
     <use xlink:href="#DejaVuSans-72" x="1889.783203"/>
     <use xlink:href="#DejaVuSans-63" x="1928.646484"/>
     <use xlink:href="#DejaVuSans-68" x="1983.626953"/>
     <use xlink:href="#DejaVuSans-61" x="2047.005859"/>
     <use xlink:href="#DejaVuSans-73" x="2108.285156"/>
     <use xlink:href="#DejaVuSans-65" x="2160.384766"/>
     <use xlink:href="#DejaVuSans-73" x="2221.908203"/>
     <use xlink:href="#DejaVuSans-5f" x="2274.007812"/>
     <use xlink:href="#DejaVuSans-72" x="2324.007812"/>
     <use xlink:href="#DejaVuSans-65" x="2362.871094"/>
     <use xlink:href="#DejaVuSans-66" x="2424.394531"/>
     <use xlink:href="#DejaVuSans-75" x="2459.599609"/>
     <use xlink:href="#DejaVuSans-72" x="2522.978516"/>
     <use xlink:href="#DejaVuSans-62" x="2564.091797"/>
     <use xlink:href="#DejaVuSans-69" x="2627.568359"/>
     <use xlink:href="#DejaVuSans-73" x="2655.351562"/>
     <use xlink:href="#DejaVuSans-68" x="2707.451172"/>
     <use xlink:href="#DejaVuSans-65" x="2770.830078"/>
     <use xlink:href="#DejaVuSans-64" x="2832.353516"/>
    </g>
   </g>
   <g id="legend_1">
    <g id="patch_7">
     <path d="M 276.25125 64.150125 
L 407.72 64.150125 
Q 409.72 64.150125 409.72 62.150125 
L 409.72 48.472 
Q 409.72 46.472 407.72 46.472 
L 276.25125 46.472 
Q 274.25125 46.472 274.25125 48.472 
L 274.25125 62.150125 
Q 274.25125 64.150125 276.25125 64.150125 
z
" style="fill: #ffffff; opacity: 0.8; stroke: #cccccc; stroke-linejoin: miter"/>
    </g>
    <g id="line2d_19">
     <path d="M 278.25125 54.570438 
L 288.25125 54.570438 
L 298.25125 54.570438 
" style="fill: none; stroke: #4682b4; stroke-width: 1.5; stroke-linecap: square"/>
    </g>
    <g id="text_21">
     <!-- StableBaselinesSAC -->
     <g transform="translate(306.25125 58.070438)scale(0.1 -0.1)">
      <defs>
       <path id="DejaVuSans-53" d="M 3425 4513 
L 3425 3897 
Q 3066 4069 2747 4153 
Q 2428 4238 2131 4238 
Q 1616 4238 1336 4038 
Q 1056 3838 1056 3469 
Q 1056 3159 1242 3001 
Q 1428 2844 1947 2747 
L 2328 2669 
Q 3034 2534 3370 2195 
Q 3706 1856 3706 1288 
Q 3706 609 3251 259 
Q 2797 -91 1919 -91 
Q 1588 -91 1214 -16 
Q 841 59 441 206 
L 441 856 
Q 825 641 1194 531 
Q 1563 422 1919 422 
Q 2459 422 2753 634 
Q 3047 847 3047 1241 
Q 3047 1584 2836 1778 
Q 2625 1972 2144 2069 
L 1759 2144 
Q 1053 2284 737 2584 
Q 422 2884 422 3419 
Q 422 4038 858 4394 
Q 1294 4750 2059 4750 
Q 2388 4750 2728 4690 
Q 3069 4631 3425 4513 
z
" transform="scale(0.015625)"/>
       <path id="DejaVuSans-42" d="M 1259 2228 
L 1259 519 
L 2272 519 
Q 2781 519 3026 730 
Q 3272 941 3272 1375 
Q 3272 1813 3026 2020 
Q 2781 2228 2272 2228 
L 1259 2228 
z
M 1259 4147 
L 1259 2741 
L 2194 2741 
Q 2656 2741 2882 2914 
Q 3109 3088 3109 3444 
Q 3109 3797 2882 3972 
Q 2656 4147 2194 4147 
L 1259 4147 
z
M 628 4666 
L 2241 4666 
Q 2963 4666 3353 4366 
Q 3744 4066 3744 3513 
Q 3744 3084 3544 2831 
Q 3344 2578 2956 2516 
Q 3422 2416 3680 2098 
Q 3938 1781 3938 1306 
Q 3938 681 3513 340 
Q 3088 0 2303 0 
L 628 0 
L 628 4666 
z
" transform="scale(0.015625)"/>
       <path id="DejaVuSans-41" d="M 2188 4044 
L 1331 1722 
L 3047 1722 
L 2188 4044 
z
M 1831 4666 
L 2547 4666 
L 4325 0 
L 3669 0 
L 3244 1197 
L 1141 1197 
L 716 0 
L 50 0 
L 1831 4666 
z
" transform="scale(0.015625)"/>
       <path id="DejaVuSans-43" d="M 4122 4306 
L 4122 3641 
Q 3803 3938 3442 4084 
Q 3081 4231 2675 4231 
Q 1875 4231 1450 3742 
Q 1025 3253 1025 2328 
Q 1025 1406 1450 917 
Q 1875 428 2675 428 
Q 3081 428 3442 575 
Q 3803 722 4122 1019 
L 4122 359 
Q 3791 134 3420 21 
Q 3050 -91 2638 -91 
Q 1578 -91 968 557 
Q 359 1206 359 2328 
Q 359 3453 968 4101 
Q 1578 4750 2638 4750 
Q 3056 4750 3426 4639 
Q 3797 4528 4122 4306 
z
" transform="scale(0.015625)"/>
      </defs>
      <use xlink:href="#DejaVuSans-53"/>
      <use xlink:href="#DejaVuSans-74" x="63.476562"/>
      <use xlink:href="#DejaVuSans-61" x="102.685547"/>
      <use xlink:href="#DejaVuSans-62" x="163.964844"/>
      <use xlink:href="#DejaVuSans-6c" x="227.441406"/>
      <use xlink:href="#DejaVuSans-65" x="255.224609"/>
      <use xlink:href="#DejaVuSans-42" x="316.748047"/>
      <use xlink:href="#DejaVuSans-61" x="385.351562"/>
      <use xlink:href="#DejaVuSans-73" x="446.630859"/>
      <use xlink:href="#DejaVuSans-65" x="498.730469"/>
      <use xlink:href="#DejaVuSans-6c" x="560.253906"/>
      <use xlink:href="#DejaVuSans-69" x="588.037109"/>
      <use xlink:href="#DejaVuSans-6e" x="615.820312"/>
      <use xlink:href="#DejaVuSans-65" x="679.199219"/>
      <use xlink:href="#DejaVuSans-73" x="740.722656"/>
      <use xlink:href="#DejaVuSans-53" x="792.822266"/>
      <use xlink:href="#DejaVuSans-41" x="858.173828"/>
      <use xlink:href="#DejaVuSans-43" x="924.832031"/>
     </g>
    </g>
   </g>
  </g>
 </g>
 <defs>
  <clipPath id="p539a805e17">
   <rect x="57.6" y="41.472" width="357.12" height="266.112"/>
  </clipPath>
 </defs>
</svg>
