<?xml version="1.0" encoding="utf-8" standalone="no"?>
<!DOCTYPE svg PUBLIC "-//W3C//DTD SVG 1.1//EN"
  "http://www.w3.org/Graphics/SVG/1.1/DTD/svg11.dtd">
<svg xmlns:xlink="http://www.w3.org/1999/xlink" width="460.8pt" height="345.6pt" viewBox="0 0 460.8 345.6" xmlns="http://www.w3.org/2000/svg" version="1.1">
 <metadata>
  <rdf:RDF xmlns:dc="http://purl.org/dc/elements/1.1/" xmlns:cc="http://creativecommons.org/ns#" xmlns:rdf="http://www.w3.org/1999/02/22-rdf-syntax-ns#">
   <cc:Work>
    <dc:type rdf:resource="http://purl.org/dc/dcmitype/StillImage"/>
    <dc:date>2022-06-16T11:36:21.759541</dc:date>
    <dc:format>image/svg+xml</dc:format>
    <dc:creator>
     <cc:Agent>
      <dc:title>Matplotlib v3.5.2, https://matplotlib.org/</dc:title>
     </cc:Agent>
    </dc:creator>
   </cc:Work>
  </rdf:RDF>
 </metadata>
 <defs>
  <style type="text/css">*{stroke-linejoin: round; stroke-linecap: butt}</style>
 </defs>
 <g id="figure_1">
  <g id="patch_1">
   <path d="M 0 345.6 
L 460.8 345.6 
L 460.8 0 
L 0 0 
z
" style="fill: #ffffff"/>
  </g>
  <g id="axes_1">
   <g id="patch_2">
    <path d="M 57.6 307.584 
L 414.72 307.584 
L 414.72 41.472 
L 57.6 41.472 
z
" style="fill: #ffffff"/>
   </g>
   <g id="PolyCollection_1">
    <path d="M 117.415859 285.8112 
L 105.208316 285.8112 
L 103.540515 283.465309 
L 101.599092 281.119418 
L 99.392005 278.773527 
L 96.943164 276.427636 
L 94.293669 274.081745 
L 91.501697 271.735855 
L 88.640868 269.389964 
L 85.797129 267.044073 
L 83.064346 264.698182 
L 80.538925 262.352291 
L 78.313875 260.0064 
L 76.472747 257.660509 
L 75.083916 255.314618 
L 74.195688 252.968727 
L 73.832727 250.622836 
L 73.994233 248.276945 
L 74.654204 245.931055 
L 75.76387 243.585164 
L 77.256074 241.239273 
L 79.051092 238.893382 
L 81.063119 236.547491 
L 83.206614 234.2016 
L 85.401794 231.855709 
L 87.578796 229.509818 
L 89.680346 227.163927 
L 91.662998 224.818036 
L 93.49718 222.472145 
L 95.166313 220.126255 
L 96.665267 217.780364 
L 97.998354 215.434473 
L 99.17704 213.088582 
L 100.217558 210.742691 
L 101.138611 208.3968 
L 101.959321 206.050909 
L 102.697584 203.705018 
L 103.368873 201.359127 
L 103.985515 199.013236 
L 104.556399 196.667345 
L 105.087066 194.321455 
L 105.58015 191.975564 
L 106.036116 189.629673 
L 106.454221 187.283782 
L 106.83359 184.937891 
L 107.174224 182.592 
L 107.477761 180.246109 
L 107.74781 177.900218 
L 107.989804 175.554327 
L 108.210396 173.208436 
L 108.416556 170.862545 
L 108.614592 168.516655 
L 108.809333 166.170764 
L 109.003633 163.824873 
L 109.198271 161.478982 
L 109.392217 159.133091 
L 109.583137 156.7872 
L 109.76799 154.441309 
L 109.943558 152.095418 
L 110.106845 149.749527 
L 110.255279 147.403636 
L 110.386781 145.057745 
L 110.499741 142.711855 
L 110.592969 140.365964 
L 110.665678 138.020073 
L 110.717486 135.674182 
L 110.748441 133.328291 
L 110.759025 130.9824 
L 110.750128 128.636509 
L 110.722991 126.290618 
L 110.679151 123.944727 
L 110.620416 121.598836 
L 110.548903 119.252945 
L 110.467123 116.907055 
L 110.378085 114.561164 
L 110.285349 112.215273 
L 110.192982 109.869382 
L 110.105374 107.523491 
L 110.026941 105.1776 
L 109.961736 102.831709 
L 109.913068 100.485818 
L 109.883196 98.139927 
L 109.87315 95.794036 
L 109.882711 93.448145 
L 109.910551 91.102255 
L 109.954473 88.756364 
L 110.011709 86.410473 
L 110.079217 84.064582 
L 110.153921 81.718691 
L 110.232879 79.3728 
L 110.313381 77.026909 
L 110.393003 74.681018 
L 110.469661 72.335127 
L 110.541681 69.989236 
L 110.607911 67.643345 
L 110.667826 65.297455 
L 110.721595 62.951564 
L 110.770058 60.605673 
L 110.814575 58.259782 
L 110.856761 55.913891 
L 110.89816 53.568 
L 111.726015 53.568 
L 111.726015 53.568 
L 111.767413 55.913891 
L 111.8096 58.259782 
L 111.854117 60.605673 
L 111.90258 62.951564 
L 111.956349 65.297455 
L 112.016264 67.643345 
L 112.082494 69.989236 
L 112.154514 72.335127 
L 112.231172 74.681018 
L 112.310794 77.026909 
L 112.391296 79.3728 
L 112.470254 81.718691 
L 112.544958 84.064582 
L 112.612466 86.410473 
L 112.669702 88.756364 
L 112.713623 91.102255 
L 112.741464 93.448145 
L 112.751025 95.794036 
L 112.740978 98.139927 
L 112.711107 100.485818 
L 112.662439 102.831709 
L 112.597233 105.1776 
L 112.5188 107.523491 
L 112.431193 109.869382 
L 112.338825 112.215273 
L 112.246089 114.561164 
L 112.157051 116.907055 
L 112.075272 119.252945 
L 112.003758 121.598836 
L 111.945023 123.944727 
L 111.901183 126.290618 
L 111.874046 128.636509 
L 111.86515 130.9824 
L 111.875734 133.328291 
L 111.906689 135.674182 
L 111.958497 138.020073 
L 112.031206 140.365964 
L 112.124434 142.711855 
L 112.237394 145.057745 
L 112.368896 147.403636 
L 112.51733 149.749527 
L 112.680616 152.095418 
L 112.856185 154.441309 
L 113.041037 156.7872 
L 113.231958 159.133091 
L 113.425904 161.478982 
L 113.620542 163.824873 
L 113.814841 166.170764 
L 114.009583 168.516655 
L 114.207619 170.862545 
L 114.413778 173.208436 
L 114.634371 175.554327 
L 114.876365 177.900218 
L 115.146414 180.246109 
L 115.44995 182.592 
L 115.790585 184.937891 
L 116.169954 187.283782 
L 116.588059 189.629673 
L 117.044025 191.975564 
L 117.537109 194.321455 
L 118.067776 196.667345 
L 118.638659 199.013236 
L 119.255302 201.359127 
L 119.926591 203.705018 
L 120.664853 206.050909 
L 121.485564 208.3968 
L 122.406616 210.742691 
L 123.447135 213.088582 
L 124.625821 215.434473 
L 125.958908 217.780364 
L 127.457861 220.126255 
L 129.126994 222.472145 
L 130.961176 224.818036 
L 132.943829 227.163927 
L 135.045379 229.509818 
L 137.222381 231.855709 
L 139.41756 234.2016 
L 141.561055 236.547491 
L 143.573082 238.893382 
L 145.368101 241.239273 
L 146.860305 243.585164 
L 147.96997 245.931055 
L 148.629941 248.276945 
L 148.791447 250.622836 
L 148.428487 252.968727 
L 147.540259 255.314618 
L 146.151427 257.660509 
L 144.310299 260.0064 
L 142.08525 262.352291 
L 139.559829 264.698182 
L 136.827046 267.044073 
L 133.983307 269.389964 
L 131.122477 271.735855 
L 128.330505 274.081745 
L 125.681011 276.427636 
L 123.232169 278.773527 
L 121.025082 281.119418 
L 119.08366 283.465309 
L 117.415859 285.8112 
z
" clip-path="url(#p03a3e38654)" style="fill: #1f77b4; fill-opacity: 0.3"/>
   </g>
   <g id="PolyCollection_2">
    <path d="M 196.755903 285.8112 
L 192.443205 285.8112 
L 192.050893 284.799247 
L 191.601366 283.787294 
L 191.079305 282.775341 
L 190.468242 281.763388 
L 189.753051 280.751435 
L 188.922542 279.739482 
L 187.97159 278.727529 
L 186.902297 277.715576 
L 185.723903 276.703624 
L 184.451381 275.691671 
L 183.102935 274.679718 
L 181.696871 273.667765 
L 180.248454 272.655812 
L 178.767457 271.643859 
L 177.257012 270.631906 
L 175.71416 269.619953 
L 174.132132 268.608 
L 172.503995 267.596047 
L 170.826957 266.584094 
L 169.106441 265.572141 
L 167.359028 264.560188 
L 165.613632 263.548235 
L 163.910606 262.536282 
L 162.298842 261.524329 
L 160.831313 260.512376 
L 159.559641 259.500424 
L 158.528458 258.488471 
L 157.770255 257.476518 
L 157.301439 256.464565 
L 157.120194 255.452612 
L 157.206599 254.440659 
L 157.525228 253.428706 
L 158.03006 252.416753 
L 158.671084 251.4048 
L 159.401543 250.392847 
L 160.184462 249.380894 
L 160.997162 248.368941 
L 161.832816 247.356988 
L 162.698795 246.345035 
L 163.612319 245.333082 
L 164.59456 244.321129 
L 165.664629 243.309176 
L 166.834744 242.297224 
L 168.107391 241.285271 
L 169.474688 240.273318 
L 170.919589 239.261365 
L 172.418276 238.249412 
L 173.943051 237.237459 
L 175.465194 236.225506 
L 176.957482 235.213553 
L 178.396214 234.2016 
L 179.762638 233.189647 
L 181.043661 232.177694 
L 182.231745 231.165741 
L 183.323978 230.153788 
L 184.320528 229.141835 
L 185.222892 228.129882 
L 186.032485 227.117929 
L 186.750053 226.105976 
L 187.376121 225.094024 
L 187.912308 224.082071 
L 188.362999 223.070118 
L 188.736698 222.058165 
L 189.046449 221.046212 
L 189.30907 220.034259 
L 189.543318 219.022306 
L 189.767486 218.010353 
L 189.997058 216.9984 
L 190.242997 215.986447 
L 190.51097 214.974494 
L 190.801508 213.962541 
L 191.110868 212.950588 
L 191.43227 211.938635 
L 191.757194 210.926682 
L 192.076587 209.914729 
L 192.381888 208.902776 
L 192.665879 207.890824 
L 192.92335 206.878871 
L 193.15151 205.866918 
L 193.350091 204.854965 
L 193.521061 203.843012 
L 193.667986 202.831059 
L 193.795144 201.819106 
L 193.90658 200.807153 
L 194.005313 199.7952 
L 194.092863 198.783247 
L 194.16919 197.771294 
L 194.233015 196.759341 
L 194.282421 195.747388 
L 194.315583 194.735435 
L 194.331468 193.723482 
L 194.330385 192.711529 
L 194.314285 191.699576 
L 194.286774 190.687624 
L 194.252817 189.675671 
L 194.218183 188.663718 
L 194.188693 187.651765 
L 194.169417 186.639812 
L 194.163946 185.627859 
L 195.035162 185.627859 
L 195.035162 185.627859 
L 195.029691 186.639812 
L 195.010415 187.651765 
L 194.980925 188.663718 
L 194.946291 189.675671 
L 194.912334 190.687624 
L 194.884823 191.699576 
L 194.868723 192.711529 
L 194.86764 193.723482 
L 194.883525 194.735435 
L 194.916687 195.747388 
L 194.966093 196.759341 
L 195.029918 197.771294 
L 195.106245 198.783247 
L 195.193795 199.7952 
L 195.292528 200.807153 
L 195.403964 201.819106 
L 195.531123 202.831059 
L 195.678047 203.843012 
L 195.849017 204.854965 
L 196.047598 205.866918 
L 196.275759 206.878871 
L 196.533229 207.890824 
L 196.81722 208.902776 
L 197.122521 209.914729 
L 197.441914 210.926682 
L 197.766839 211.938635 
L 198.08824 212.950588 
L 198.3976 213.962541 
L 198.688138 214.974494 
L 198.956111 215.986447 
L 199.20205 216.9984 
L 199.431622 218.010353 
L 199.65579 219.022306 
L 199.890038 220.034259 
L 200.152659 221.046212 
L 200.46241 222.058165 
L 200.836109 223.070118 
L 201.286801 224.082071 
L 201.822987 225.094024 
L 202.449055 226.105976 
L 203.166623 227.117929 
L 203.976216 228.129882 
L 204.87858 229.141835 
L 205.87513 230.153788 
L 206.967364 231.165741 
L 208.155448 232.177694 
L 209.436471 233.189647 
L 210.802894 234.2016 
L 212.241626 235.213553 
L 213.733914 236.225506 
L 215.256057 237.237459 
L 216.780832 238.249412 
L 218.279519 239.261365 
L 219.72442 240.273318 
L 221.091717 241.285271 
L 222.364364 242.297224 
L 223.534479 243.309176 
L 224.604548 244.321129 
L 225.586789 245.333082 
L 226.500313 246.345035 
L 227.366293 247.356988 
L 228.201947 248.368941 
L 229.014646 249.380894 
L 229.797565 250.392847 
L 230.528024 251.4048 
L 231.169048 252.416753 
L 231.67388 253.428706 
L 231.992509 254.440659 
L 232.078914 255.452612 
L 231.897669 256.464565 
L 231.428853 257.476518 
L 230.67065 258.488471 
L 229.639467 259.500424 
L 228.367795 260.512376 
L 226.900266 261.524329 
L 225.288503 262.536282 
L 223.585476 263.548235 
L 221.840081 264.560188 
L 220.092667 265.572141 
L 218.372151 266.584094 
L 216.695113 267.596047 
L 215.066976 268.608 
L 213.484948 269.619953 
L 211.942096 270.631906 
L 210.431651 271.643859 
L 208.950654 272.655812 
L 207.502237 273.667765 
L 206.096174 274.679718 
L 204.747728 275.691671 
L 203.475205 276.703624 
L 202.296811 277.715576 
L 201.227518 278.727529 
L 200.276566 279.739482 
L 199.446057 280.751435 
L 198.730866 281.763388 
L 198.119803 282.775341 
L 197.597742 283.787294 
L 197.148215 284.799247 
L 196.755903 285.8112 
z
" clip-path="url(#p03a3e38654)" style="fill: #1f77b4; fill-opacity: 0.3"/>
   </g>
   <g id="PolyCollection_3">
    <path d="M 283.574324 289.795765 
L 272.199718 289.795765 
L 271.108378 288.772312 
L 269.932953 287.74886 
L 268.683185 286.725407 
L 267.36759 285.701955 
L 265.992959 284.678503 
L 264.564439 283.65505 
L 263.086064 282.631598 
L 261.561498 281.608145 
L 259.994754 280.584693 
L 258.390737 279.561241 
L 256.755623 278.537788 
L 255.097233 277.514336 
L 253.425577 276.490883 
L 251.753677 275.467431 
L 250.098564 274.443979 
L 248.48213 273.420526 
L 246.931406 272.397074 
L 245.477834 271.373621 
L 244.155363 270.350169 
L 242.997477 269.326717 
L 242.033674 268.303264 
L 241.286061 267.279812 
L 240.76683 266.256359 
L 240.477145 265.232907 
L 240.407661 264.209455 
L 240.540487 263.186002 
L 240.852091 262.16255 
L 241.316434 261.139097 
L 241.907656 260.115645 
L 242.601809 259.092193 
L 243.377449 258.06874 
L 244.215265 257.045288 
L 245.097212 256.021835 
L 246.005765 254.998383 
L 246.923853 253.97493 
L 247.83581 252.951478 
L 248.729257 251.928026 
L 249.597484 250.904573 
L 250.44159 249.881121 
L 251.271598 248.857668 
L 252.105942 247.834216 
L 252.96912 246.810764 
L 253.887767 245.787311 
L 254.885862 244.763859 
L 255.979966 243.740406 
L 257.175445 242.716954 
L 258.464384 241.693502 
L 259.825544 240.670049 
L 261.226335 239.646597 
L 262.626435 238.623144 
L 263.982461 237.599692 
L 265.253034 236.57624 
L 266.403556 235.552787 
L 267.410131 234.529335 
L 268.262138 233.505882 
L 268.963146 232.48243 
L 269.530031 231.458978 
L 269.990381 230.435525 
L 270.378522 229.412073 
L 270.730745 228.38862 
L 271.080451 227.365168 
L 271.453977 226.341716 
L 271.867723 225.318263 
L 272.326965 224.294811 
L 272.826393 223.271358 
L 273.352097 222.247906 
L 273.884496 221.224453 
L 274.401631 220.201001 
L 274.882268 219.177549 
L 275.308439 218.154096 
L 275.667198 217.130644 
L 275.951575 216.107191 
L 276.160775 215.083739 
L 276.299754 214.060287 
L 276.378284 213.036834 
L 276.409635 212.013382 
L 276.409013 210.989929 
L 276.391894 209.966477 
L 276.372452 208.943025 
L 276.362273 207.919572 
L 276.369492 206.89612 
L 276.398472 205.872667 
L 276.44999 204.849215 
L 276.521848 203.825763 
L 276.609722 202.80231 
L 276.708079 201.778858 
L 276.811001 200.755405 
L 276.912827 199.731953 
L 277.008608 198.708501 
L 277.094398 197.685048 
L 277.167453 196.661596 
L 277.22637 195.638143 
L 277.271166 194.614691 
L 277.303264 193.591239 
L 277.325351 192.567786 
L 277.341052 191.544334 
L 277.354459 190.520881 
L 277.369556 189.497429 
L 277.389638 188.473976 
L 278.384404 188.473976 
L 278.384404 188.473976 
L 278.404486 189.497429 
L 278.419582 190.520881 
L 278.43299 191.544334 
L 278.448691 192.567786 
L 278.470777 193.591239 
L 278.502876 194.614691 
L 278.547672 195.638143 
L 278.606589 196.661596 
L 278.679644 197.685048 
L 278.765434 198.708501 
L 278.861214 199.731953 
L 278.963041 200.755405 
L 279.065963 201.778858 
L 279.16432 202.80231 
L 279.252194 203.825763 
L 279.324051 204.849215 
L 279.37557 205.872667 
L 279.404549 206.89612 
L 279.411769 207.919572 
L 279.401589 208.943025 
L 279.382148 209.966477 
L 279.365028 210.989929 
L 279.364406 212.013382 
L 279.395758 213.036834 
L 279.474287 214.060287 
L 279.613266 215.083739 
L 279.822467 216.107191 
L 280.106844 217.130644 
L 280.465603 218.154096 
L 280.891773 219.177549 
L 281.372411 220.201001 
L 281.889546 221.224453 
L 282.421945 222.247906 
L 282.947649 223.271358 
L 283.447077 224.294811 
L 283.906319 225.318263 
L 284.320064 226.341716 
L 284.693591 227.365168 
L 285.043297 228.38862 
L 285.39552 229.412073 
L 285.783661 230.435525 
L 286.24401 231.458978 
L 286.810896 232.48243 
L 287.511904 233.505882 
L 288.36391 234.529335 
L 289.370486 235.552787 
L 290.521008 236.57624 
L 291.791581 237.599692 
L 293.147607 238.623144 
L 294.547707 239.646597 
L 295.948498 240.670049 
L 297.309658 241.693502 
L 298.598596 242.716954 
L 299.794076 243.740406 
L 300.88818 244.763859 
L 301.886275 245.787311 
L 302.804922 246.810764 
L 303.668099 247.834216 
L 304.502444 248.857668 
L 305.332452 249.881121 
L 306.176558 250.904573 
L 307.044785 251.928026 
L 307.938232 252.951478 
L 308.850189 253.97493 
L 309.768277 254.998383 
L 310.676829 256.021835 
L 311.558777 257.045288 
L 312.396593 258.06874 
L 313.172232 259.092193 
L 313.866385 260.115645 
L 314.457608 261.139097 
L 314.921951 262.16255 
L 315.233555 263.186002 
L 315.366381 264.209455 
L 315.296896 265.232907 
L 315.007211 266.256359 
L 314.487981 267.279812 
L 313.740368 268.303264 
L 312.776564 269.326717 
L 311.618679 270.350169 
L 310.296207 271.373621 
L 308.842636 272.397074 
L 307.291912 273.420526 
L 305.675478 274.443979 
L 304.020364 275.467431 
L 302.348465 276.490883 
L 300.676809 277.514336 
L 299.018419 278.537788 
L 297.383305 279.561241 
L 295.779287 280.584693 
L 294.212544 281.608145 
L 292.687978 282.631598 
L 291.209603 283.65505 
L 289.781083 284.678503 
L 288.406452 285.701955 
L 287.090856 286.725407 
L 285.841088 287.74886 
L 284.665664 288.772312 
L 283.574324 289.795765 
z
" clip-path="url(#p03a3e38654)" style="fill: #1f77b4; fill-opacity: 0.3"/>
   </g>
   <g id="PolyCollection_4">
    <path d="M 363.603829 295.488 
L 358.411997 295.488 
L 358.006766 294.464548 
L 357.554285 293.441095 
L 357.045971 292.417643 
L 356.472428 291.39419 
L 355.82448 290.370738 
L 355.094428 289.347286 
L 354.277376 288.323833 
L 353.372389 287.300381 
L 352.383309 286.276928 
L 351.319002 285.253476 
L 350.192936 284.230024 
L 349.022046 283.206571 
L 347.82496 282.183119 
L 346.619822 281.159666 
L 345.422008 280.136214 
L 344.242129 279.112761 
L 343.084709 278.089309 
L 341.94786 277.065857 
L 340.8241 276.042404 
L 339.702281 275.018952 
L 338.570333 273.995499 
L 337.418371 272.972047 
L 336.241566 271.948595 
L 335.042201 270.925142 
L 333.830462 269.90169 
L 332.623751 268.878237 
L 331.444612 267.854785 
L 330.317644 266.831333 
L 329.265995 265.80788 
L 328.308123 264.784428 
L 327.455448 263.760975 
L 326.711343 262.737523 
L 326.07161 261.714071 
L 325.526304 260.690618 
L 325.062483 259.667166 
L 324.66729 258.643713 
L 324.330757 257.620261 
L 324.047761 256.596809 
L 323.818814 255.573356 
L 323.649578 254.549904 
L 323.5493 253.526451 
L 323.528553 252.502999 
L 323.596795 251.479547 
L 323.760275 250.456094 
L 324.020686 249.432642 
L 324.374828 248.409189 
L 324.815269 247.385737 
L 325.331818 246.362284 
L 325.913475 245.338832 
L 326.550441 244.31538 
L 327.235796 243.291927 
L 327.966564 242.268475 
L 328.743979 241.245022 
L 329.572961 240.22157 
L 330.460884 239.198118 
L 331.415867 238.174665 
L 332.444813 237.151213 
L 333.551504 236.12776 
L 334.734994 235.104308 
L 335.98853 234.080856 
L 337.299183 233.057403 
L 338.64824 232.033951 
L 340.012362 231.010498 
L 341.365372 229.987046 
L 342.680462 228.963594 
L 343.932552 227.940141 
L 345.100498 226.916689 
L 346.168895 225.893236 
L 347.129259 224.869784 
L 347.980481 223.846332 
L 348.728531 222.822879 
L 349.385482 221.799427 
L 349.967987 220.775974 
L 350.495413 219.752522 
L 350.987817 218.72907 
L 351.464007 217.705617 
L 351.939871 216.682165 
L 352.427135 215.658712 
L 352.932672 214.63526 
L 353.458401 213.611807 
L 354.001737 212.588355 
L 354.556498 211.564903 
L 355.114103 210.54145 
L 355.664864 209.517998 
L 356.199198 208.494545 
L 356.708588 207.471093 
L 357.186221 206.447641 
L 357.627279 205.424188 
L 358.028934 204.400736 
L 358.390139 203.377283 
L 358.711326 202.353831 
L 358.994082 201.330379 
L 359.240886 200.306926 
L 359.454893 199.283474 
L 359.639762 198.260021 
L 359.799489 197.236569 
L 359.938212 196.213117 
L 360.059988 195.189664 
L 360.168539 194.166212 
L 361.847286 194.166212 
L 361.847286 194.166212 
L 361.955838 195.189664 
L 362.077613 196.213117 
L 362.216337 197.236569 
L 362.376064 198.260021 
L 362.560933 199.283474 
L 362.77494 200.306926 
L 363.021744 201.330379 
L 363.3045 202.353831 
L 363.625686 203.377283 
L 363.986892 204.400736 
L 364.388546 205.424188 
L 364.829604 206.447641 
L 365.307237 207.471093 
L 365.816627 208.494545 
L 366.350961 209.517998 
L 366.901723 210.54145 
L 367.459327 211.564903 
L 368.014088 212.588355 
L 368.557424 213.611807 
L 369.083153 214.63526 
L 369.588691 215.658712 
L 370.075954 216.682165 
L 370.551818 217.705617 
L 371.028009 218.72907 
L 371.520412 219.752522 
L 372.047838 220.775974 
L 372.630344 221.799427 
L 373.287294 222.822879 
L 374.035345 223.846332 
L 374.886567 224.869784 
L 375.846931 225.893236 
L 376.915328 226.916689 
L 378.083273 227.940141 
L 379.335363 228.963594 
L 380.650453 229.987046 
L 382.003463 231.010498 
L 383.367585 232.033951 
L 384.716642 233.057403 
L 386.027295 234.080856 
L 387.280832 235.104308 
L 388.464321 236.12776 
L 389.571013 237.151213 
L 390.599959 238.174665 
L 391.554941 239.198118 
L 392.442865 240.22157 
L 393.271846 241.245022 
L 394.049261 242.268475 
L 394.780029 243.291927 
L 395.465385 244.31538 
L 396.10235 245.338832 
L 396.684007 246.362284 
L 397.200556 247.385737 
L 397.640997 248.409189 
L 397.99514 249.432642 
L 398.255551 250.456094 
L 398.41903 251.479547 
L 398.487273 252.502999 
L 398.466526 253.526451 
L 398.366248 254.549904 
L 398.197011 255.573356 
L 397.968064 256.596809 
L 397.685069 257.620261 
L 397.348535 258.643713 
L 396.953343 259.667166 
L 396.489521 260.690618 
L 395.944216 261.714071 
L 395.304483 262.737523 
L 394.560377 263.760975 
L 393.707702 264.784428 
L 392.74983 265.80788 
L 391.698181 266.831333 
L 390.571214 267.854785 
L 389.392074 268.878237 
L 388.185363 269.90169 
L 386.973624 270.925142 
L 385.774259 271.948595 
L 384.597455 272.972047 
L 383.445493 273.995499 
L 382.313544 275.018952 
L 381.191725 276.042404 
L 380.067966 277.065857 
L 378.931117 278.089309 
L 377.773697 279.112761 
L 376.593817 280.136214 
L 375.396003 281.159666 
L 374.190866 282.183119 
L 372.99378 283.206571 
L 371.822889 284.230024 
L 370.696824 285.253476 
L 369.632517 286.276928 
L 368.643436 287.300381 
L 367.73845 288.323833 
L 366.921397 289.347286 
L 366.191346 290.370738 
L 365.543397 291.39419 
L 364.969854 292.417643 
L 364.461541 293.441095 
L 364.009059 294.464548 
L 363.603829 295.488 
z
" clip-path="url(#p03a3e38654)" style="fill: #1f77b4; fill-opacity: 0.3"/>
   </g>
   <g id="matplotlib.axis_1">
    <g id="xtick_1">
     <g id="line2d_1">
      <defs>
       <path id="mb02133cc70" d="M 0 0 
L 0 3.5 
" style="stroke: #000000; stroke-width: 0.8"/>
      </defs>
      <g>
       <use xlink:href="#mb02133cc70" x="69.668354" y="307.584" style="stroke: #000000; stroke-width: 0.8"/>
      </g>
     </g>
     <g id="text_1">
      <!-- 250 -->
      <g transform="translate(60.124604 322.182437)scale(0.1 -0.1)">
       <defs>
        <path id="DejaVuSans-32" d="M 1228 531 
L 3431 531 
L 3431 0 
L 469 0 
L 469 531 
Q 828 903 1448 1529 
Q 2069 2156 2228 2338 
Q 2531 2678 2651 2914 
Q 2772 3150 2772 3378 
Q 2772 3750 2511 3984 
Q 2250 4219 1831 4219 
Q 1534 4219 1204 4116 
Q 875 4013 500 3803 
L 500 4441 
Q 881 4594 1212 4672 
Q 1544 4750 1819 4750 
Q 2544 4750 2975 4387 
Q 3406 4025 3406 3419 
Q 3406 3131 3298 2873 
Q 3191 2616 2906 2266 
Q 2828 2175 2409 1742 
Q 1991 1309 1228 531 
z
" transform="scale(0.015625)"/>
        <path id="DejaVuSans-35" d="M 691 4666 
L 3169 4666 
L 3169 4134 
L 1269 4134 
L 1269 2991 
Q 1406 3038 1543 3061 
Q 1681 3084 1819 3084 
Q 2600 3084 3056 2656 
Q 3513 2228 3513 1497 
Q 3513 744 3044 326 
Q 2575 -91 1722 -91 
Q 1428 -91 1123 -41 
Q 819 9 494 109 
L 494 744 
Q 775 591 1075 516 
Q 1375 441 1709 441 
Q 2250 441 2565 725 
Q 2881 1009 2881 1497 
Q 2881 1984 2565 2268 
Q 2250 2553 1709 2553 
Q 1456 2553 1204 2497 
Q 953 2441 691 2322 
L 691 4666 
z
" transform="scale(0.015625)"/>
        <path id="DejaVuSans-30" d="M 2034 4250 
Q 1547 4250 1301 3770 
Q 1056 3291 1056 2328 
Q 1056 1369 1301 889 
Q 1547 409 2034 409 
Q 2525 409 2770 889 
Q 3016 1369 3016 2328 
Q 3016 3291 2770 3770 
Q 2525 4250 2034 4250 
z
M 2034 4750 
Q 2819 4750 3233 4129 
Q 3647 3509 3647 2328 
Q 3647 1150 3233 529 
Q 2819 -91 2034 -91 
Q 1250 -91 836 529 
Q 422 1150 422 2328 
Q 422 3509 836 4129 
Q 1250 4750 2034 4750 
z
" transform="scale(0.015625)"/>
       </defs>
       <use xlink:href="#DejaVuSans-32"/>
       <use xlink:href="#DejaVuSans-35" x="63.623047"/>
       <use xlink:href="#DejaVuSans-30" x="127.246094"/>
      </g>
     </g>
    </g>
    <g id="xtick_2">
     <g id="line2d_2">
      <g>
       <use xlink:href="#mb02133cc70" x="111.312087" y="307.584" style="stroke: #000000; stroke-width: 0.8"/>
      </g>
     </g>
     <g id="text_2">
      <!-- 500 -->
      <g transform="translate(101.768337 322.182437)scale(0.1 -0.1)">
       <use xlink:href="#DejaVuSans-35"/>
       <use xlink:href="#DejaVuSans-30" x="63.623047"/>
       <use xlink:href="#DejaVuSans-30" x="127.246094"/>
      </g>
     </g>
    </g>
    <g id="xtick_3">
     <g id="line2d_3">
      <g>
       <use xlink:href="#mb02133cc70" x="152.955821" y="307.584" style="stroke: #000000; stroke-width: 0.8"/>
      </g>
     </g>
     <g id="text_3">
      <!-- 750 -->
      <g transform="translate(143.412071 322.182437)scale(0.1 -0.1)">
       <defs>
        <path id="DejaVuSans-37" d="M 525 4666 
L 3525 4666 
L 3525 4397 
L 1831 0 
L 1172 0 
L 2766 4134 
L 525 4134 
L 525 4666 
z
" transform="scale(0.015625)"/>
       </defs>
       <use xlink:href="#DejaVuSans-37"/>
       <use xlink:href="#DejaVuSans-35" x="63.623047"/>
       <use xlink:href="#DejaVuSans-30" x="127.246094"/>
      </g>
     </g>
    </g>
    <g id="xtick_4">
     <g id="line2d_4">
      <g>
       <use xlink:href="#mb02133cc70" x="194.599554" y="307.584" style="stroke: #000000; stroke-width: 0.8"/>
      </g>
     </g>
     <g id="text_4">
      <!-- 1000 -->
      <g transform="translate(181.874554 322.182437)scale(0.1 -0.1)">
       <defs>
        <path id="DejaVuSans-31" d="M 794 531 
L 1825 531 
L 1825 4091 
L 703 3866 
L 703 4441 
L 1819 4666 
L 2450 4666 
L 2450 531 
L 3481 531 
L 3481 0 
L 794 0 
L 794 531 
z
" transform="scale(0.015625)"/>
       </defs>
       <use xlink:href="#DejaVuSans-31"/>
       <use xlink:href="#DejaVuSans-30" x="63.623047"/>
       <use xlink:href="#DejaVuSans-30" x="127.246094"/>
       <use xlink:href="#DejaVuSans-30" x="190.869141"/>
      </g>
     </g>
    </g>
    <g id="xtick_5">
     <g id="line2d_5">
      <g>
       <use xlink:href="#mb02133cc70" x="236.243287" y="307.584" style="stroke: #000000; stroke-width: 0.8"/>
      </g>
     </g>
     <g id="text_5">
      <!-- 1250 -->
      <g transform="translate(223.518287 322.182437)scale(0.1 -0.1)">
       <use xlink:href="#DejaVuSans-31"/>
       <use xlink:href="#DejaVuSans-32" x="63.623047"/>
       <use xlink:href="#DejaVuSans-35" x="127.246094"/>
       <use xlink:href="#DejaVuSans-30" x="190.869141"/>
      </g>
     </g>
    </g>
    <g id="xtick_6">
     <g id="line2d_6">
      <g>
       <use xlink:href="#mb02133cc70" x="277.887021" y="307.584" style="stroke: #000000; stroke-width: 0.8"/>
      </g>
     </g>
     <g id="text_6">
      <!-- 1500 -->
      <g transform="translate(265.162021 322.182437)scale(0.1 -0.1)">
       <use xlink:href="#DejaVuSans-31"/>
       <use xlink:href="#DejaVuSans-35" x="63.623047"/>
       <use xlink:href="#DejaVuSans-30" x="127.246094"/>
       <use xlink:href="#DejaVuSans-30" x="190.869141"/>
      </g>
     </g>
    </g>
    <g id="xtick_7">
     <g id="line2d_7">
      <g>
       <use xlink:href="#mb02133cc70" x="319.530754" y="307.584" style="stroke: #000000; stroke-width: 0.8"/>
      </g>
     </g>
     <g id="text_7">
      <!-- 1750 -->
      <g transform="translate(306.805754 322.182437)scale(0.1 -0.1)">
       <use xlink:href="#DejaVuSans-31"/>
       <use xlink:href="#DejaVuSans-37" x="63.623047"/>
       <use xlink:href="#DejaVuSans-35" x="127.246094"/>
       <use xlink:href="#DejaVuSans-30" x="190.869141"/>
      </g>
     </g>
    </g>
    <g id="xtick_8">
     <g id="line2d_8">
      <g>
       <use xlink:href="#mb02133cc70" x="361.174488" y="307.584" style="stroke: #000000; stroke-width: 0.8"/>
      </g>
     </g>
     <g id="text_8">
      <!-- 2000 -->
      <g transform="translate(348.449488 322.182437)scale(0.1 -0.1)">
       <use xlink:href="#DejaVuSans-32"/>
       <use xlink:href="#DejaVuSans-30" x="63.623047"/>
       <use xlink:href="#DejaVuSans-30" x="127.246094"/>
       <use xlink:href="#DejaVuSans-30" x="190.869141"/>
      </g>
     </g>
    </g>
    <g id="xtick_9">
     <g id="line2d_9">
      <g>
       <use xlink:href="#mb02133cc70" x="402.818221" y="307.584" style="stroke: #000000; stroke-width: 0.8"/>
      </g>
     </g>
     <g id="text_9">
      <!-- 2250 -->
      <g transform="translate(390.093221 322.182437)scale(0.1 -0.1)">
       <use xlink:href="#DejaVuSans-32"/>
       <use xlink:href="#DejaVuSans-32" x="63.623047"/>
       <use xlink:href="#DejaVuSans-35" x="127.246094"/>
       <use xlink:href="#DejaVuSans-30" x="190.869141"/>
      </g>
     </g>
    </g>
    <g id="text_10">
     <!-- Learned Episodes -->
     <g transform="translate(192.102187 335.860562)scale(0.1 -0.1)">
      <defs>
       <path id="DejaVuSans-4c" d="M 628 4666 
L 1259 4666 
L 1259 531 
L 3531 531 
L 3531 0 
L 628 0 
L 628 4666 
z
" transform="scale(0.015625)"/>
       <path id="DejaVuSans-65" d="M 3597 1894 
L 3597 1613 
L 953 1613 
Q 991 1019 1311 708 
Q 1631 397 2203 397 
Q 2534 397 2845 478 
Q 3156 559 3463 722 
L 3463 178 
Q 3153 47 2828 -22 
Q 2503 -91 2169 -91 
Q 1331 -91 842 396 
Q 353 884 353 1716 
Q 353 2575 817 3079 
Q 1281 3584 2069 3584 
Q 2775 3584 3186 3129 
Q 3597 2675 3597 1894 
z
M 3022 2063 
Q 3016 2534 2758 2815 
Q 2500 3097 2075 3097 
Q 1594 3097 1305 2825 
Q 1016 2553 972 2059 
L 3022 2063 
z
" transform="scale(0.015625)"/>
       <path id="DejaVuSans-61" d="M 2194 1759 
Q 1497 1759 1228 1600 
Q 959 1441 959 1056 
Q 959 750 1161 570 
Q 1363 391 1709 391 
Q 2188 391 2477 730 
Q 2766 1069 2766 1631 
L 2766 1759 
L 2194 1759 
z
M 3341 1997 
L 3341 0 
L 2766 0 
L 2766 531 
Q 2569 213 2275 61 
Q 1981 -91 1556 -91 
Q 1019 -91 701 211 
Q 384 513 384 1019 
Q 384 1609 779 1909 
Q 1175 2209 1959 2209 
L 2766 2209 
L 2766 2266 
Q 2766 2663 2505 2880 
Q 2244 3097 1772 3097 
Q 1472 3097 1187 3025 
Q 903 2953 641 2809 
L 641 3341 
Q 956 3463 1253 3523 
Q 1550 3584 1831 3584 
Q 2591 3584 2966 3190 
Q 3341 2797 3341 1997 
z
" transform="scale(0.015625)"/>
       <path id="DejaVuSans-72" d="M 2631 2963 
Q 2534 3019 2420 3045 
Q 2306 3072 2169 3072 
Q 1681 3072 1420 2755 
Q 1159 2438 1159 1844 
L 1159 0 
L 581 0 
L 581 3500 
L 1159 3500 
L 1159 2956 
Q 1341 3275 1631 3429 
Q 1922 3584 2338 3584 
Q 2397 3584 2469 3576 
Q 2541 3569 2628 3553 
L 2631 2963 
z
" transform="scale(0.015625)"/>
       <path id="DejaVuSans-6e" d="M 3513 2113 
L 3513 0 
L 2938 0 
L 2938 2094 
Q 2938 2591 2744 2837 
Q 2550 3084 2163 3084 
Q 1697 3084 1428 2787 
Q 1159 2491 1159 1978 
L 1159 0 
L 581 0 
L 581 3500 
L 1159 3500 
L 1159 2956 
Q 1366 3272 1645 3428 
Q 1925 3584 2291 3584 
Q 2894 3584 3203 3211 
Q 3513 2838 3513 2113 
z
" transform="scale(0.015625)"/>
       <path id="DejaVuSans-64" d="M 2906 2969 
L 2906 4863 
L 3481 4863 
L 3481 0 
L 2906 0 
L 2906 525 
Q 2725 213 2448 61 
Q 2172 -91 1784 -91 
Q 1150 -91 751 415 
Q 353 922 353 1747 
Q 353 2572 751 3078 
Q 1150 3584 1784 3584 
Q 2172 3584 2448 3432 
Q 2725 3281 2906 2969 
z
M 947 1747 
Q 947 1113 1208 752 
Q 1469 391 1925 391 
Q 2381 391 2643 752 
Q 2906 1113 2906 1747 
Q 2906 2381 2643 2742 
Q 2381 3103 1925 3103 
Q 1469 3103 1208 2742 
Q 947 2381 947 1747 
z
" transform="scale(0.015625)"/>
       <path id="DejaVuSans-20" transform="scale(0.015625)"/>
       <path id="DejaVuSans-45" d="M 628 4666 
L 3578 4666 
L 3578 4134 
L 1259 4134 
L 1259 2753 
L 3481 2753 
L 3481 2222 
L 1259 2222 
L 1259 531 
L 3634 531 
L 3634 0 
L 628 0 
L 628 4666 
z
" transform="scale(0.015625)"/>
       <path id="DejaVuSans-70" d="M 1159 525 
L 1159 -1331 
L 581 -1331 
L 581 3500 
L 1159 3500 
L 1159 2969 
Q 1341 3281 1617 3432 
Q 1894 3584 2278 3584 
Q 2916 3584 3314 3078 
Q 3713 2572 3713 1747 
Q 3713 922 3314 415 
Q 2916 -91 2278 -91 
Q 1894 -91 1617 61 
Q 1341 213 1159 525 
z
M 3116 1747 
Q 3116 2381 2855 2742 
Q 2594 3103 2138 3103 
Q 1681 3103 1420 2742 
Q 1159 2381 1159 1747 
Q 1159 1113 1420 752 
Q 1681 391 2138 391 
Q 2594 391 2855 752 
Q 3116 1113 3116 1747 
z
" transform="scale(0.015625)"/>
       <path id="DejaVuSans-69" d="M 603 3500 
L 1178 3500 
L 1178 0 
L 603 0 
L 603 3500 
z
M 603 4863 
L 1178 4863 
L 1178 4134 
L 603 4134 
L 603 4863 
z
" transform="scale(0.015625)"/>
       <path id="DejaVuSans-73" d="M 2834 3397 
L 2834 2853 
Q 2591 2978 2328 3040 
Q 2066 3103 1784 3103 
Q 1356 3103 1142 2972 
Q 928 2841 928 2578 
Q 928 2378 1081 2264 
Q 1234 2150 1697 2047 
L 1894 2003 
Q 2506 1872 2764 1633 
Q 3022 1394 3022 966 
Q 3022 478 2636 193 
Q 2250 -91 1575 -91 
Q 1294 -91 989 -36 
Q 684 19 347 128 
L 347 722 
Q 666 556 975 473 
Q 1284 391 1588 391 
Q 1994 391 2212 530 
Q 2431 669 2431 922 
Q 2431 1156 2273 1281 
Q 2116 1406 1581 1522 
L 1381 1569 
Q 847 1681 609 1914 
Q 372 2147 372 2553 
Q 372 3047 722 3315 
Q 1072 3584 1716 3584 
Q 2034 3584 2315 3537 
Q 2597 3491 2834 3397 
z
" transform="scale(0.015625)"/>
       <path id="DejaVuSans-6f" d="M 1959 3097 
Q 1497 3097 1228 2736 
Q 959 2375 959 1747 
Q 959 1119 1226 758 
Q 1494 397 1959 397 
Q 2419 397 2687 759 
Q 2956 1122 2956 1747 
Q 2956 2369 2687 2733 
Q 2419 3097 1959 3097 
z
M 1959 3584 
Q 2709 3584 3137 3096 
Q 3566 2609 3566 1747 
Q 3566 888 3137 398 
Q 2709 -91 1959 -91 
Q 1206 -91 779 398 
Q 353 888 353 1747 
Q 353 2609 779 3096 
Q 1206 3584 1959 3584 
z
" transform="scale(0.015625)"/>
      </defs>
      <use xlink:href="#DejaVuSans-4c"/>
      <use xlink:href="#DejaVuSans-65" x="53.962891"/>
      <use xlink:href="#DejaVuSans-61" x="115.486328"/>
      <use xlink:href="#DejaVuSans-72" x="176.765625"/>
      <use xlink:href="#DejaVuSans-6e" x="216.128906"/>
      <use xlink:href="#DejaVuSans-65" x="279.507812"/>
      <use xlink:href="#DejaVuSans-64" x="341.03125"/>
      <use xlink:href="#DejaVuSans-20" x="404.507812"/>
      <use xlink:href="#DejaVuSans-45" x="436.294922"/>
      <use xlink:href="#DejaVuSans-70" x="499.478516"/>
      <use xlink:href="#DejaVuSans-69" x="562.955078"/>
      <use xlink:href="#DejaVuSans-73" x="590.738281"/>
      <use xlink:href="#DejaVuSans-6f" x="642.837891"/>
      <use xlink:href="#DejaVuSans-64" x="704.019531"/>
      <use xlink:href="#DejaVuSans-65" x="767.496094"/>
      <use xlink:href="#DejaVuSans-73" x="829.019531"/>
     </g>
    </g>
   </g>
   <g id="matplotlib.axis_2">
    <g id="ytick_1">
     <g id="line2d_10">
      <defs>
       <path id="m760901f936" d="M 0 0 
L -3.5 0 
" style="stroke: #000000; stroke-width: 0.8"/>
      </defs>
      <g>
       <use xlink:href="#m760901f936" x="57.6" y="294.349553" style="stroke: #000000; stroke-width: 0.8"/>
      </g>
     </g>
     <g id="text_11">
      <!-- 200 -->
      <g transform="translate(31.5125 298.148772)scale(0.1 -0.1)">
       <use xlink:href="#DejaVuSans-32"/>
       <use xlink:href="#DejaVuSans-30" x="63.623047"/>
       <use xlink:href="#DejaVuSans-30" x="127.246094"/>
      </g>
     </g>
    </g>
    <g id="ytick_2">
     <g id="line2d_11">
      <g>
       <use xlink:href="#m760901f936" x="57.6" y="237.4272" style="stroke: #000000; stroke-width: 0.8"/>
      </g>
     </g>
     <g id="text_12">
      <!-- 300 -->
      <g transform="translate(31.5125 241.226419)scale(0.1 -0.1)">
       <defs>
        <path id="DejaVuSans-33" d="M 2597 2516 
Q 3050 2419 3304 2112 
Q 3559 1806 3559 1356 
Q 3559 666 3084 287 
Q 2609 -91 1734 -91 
Q 1441 -91 1130 -33 
Q 819 25 488 141 
L 488 750 
Q 750 597 1062 519 
Q 1375 441 1716 441 
Q 2309 441 2620 675 
Q 2931 909 2931 1356 
Q 2931 1769 2642 2001 
Q 2353 2234 1838 2234 
L 1294 2234 
L 1294 2753 
L 1863 2753 
Q 2328 2753 2575 2939 
Q 2822 3125 2822 3475 
Q 2822 3834 2567 4026 
Q 2313 4219 1838 4219 
Q 1578 4219 1281 4162 
Q 984 4106 628 3988 
L 628 4550 
Q 988 4650 1302 4700 
Q 1616 4750 1894 4750 
Q 2613 4750 3031 4423 
Q 3450 4097 3450 3541 
Q 3450 3153 3228 2886 
Q 3006 2619 2597 2516 
z
" transform="scale(0.015625)"/>
       </defs>
       <use xlink:href="#DejaVuSans-33"/>
       <use xlink:href="#DejaVuSans-30" x="63.623047"/>
       <use xlink:href="#DejaVuSans-30" x="127.246094"/>
      </g>
     </g>
    </g>
    <g id="ytick_3">
     <g id="line2d_12">
      <g>
       <use xlink:href="#m760901f936" x="57.6" y="180.504847" style="stroke: #000000; stroke-width: 0.8"/>
      </g>
     </g>
     <g id="text_13">
      <!-- 400 -->
      <g transform="translate(31.5125 184.304066)scale(0.1 -0.1)">
       <defs>
        <path id="DejaVuSans-34" d="M 2419 4116 
L 825 1625 
L 2419 1625 
L 2419 4116 
z
M 2253 4666 
L 3047 4666 
L 3047 1625 
L 3713 1625 
L 3713 1100 
L 3047 1100 
L 3047 0 
L 2419 0 
L 2419 1100 
L 313 1100 
L 313 1709 
L 2253 4666 
z
" transform="scale(0.015625)"/>
       </defs>
       <use xlink:href="#DejaVuSans-34"/>
       <use xlink:href="#DejaVuSans-30" x="63.623047"/>
       <use xlink:href="#DejaVuSans-30" x="127.246094"/>
      </g>
     </g>
    </g>
    <g id="ytick_4">
     <g id="line2d_13">
      <g>
       <use xlink:href="#m760901f936" x="57.6" y="123.582494" style="stroke: #000000; stroke-width: 0.8"/>
      </g>
     </g>
     <g id="text_14">
      <!-- 500 -->
      <g transform="translate(31.5125 127.381713)scale(0.1 -0.1)">
       <use xlink:href="#DejaVuSans-35"/>
       <use xlink:href="#DejaVuSans-30" x="63.623047"/>
       <use xlink:href="#DejaVuSans-30" x="127.246094"/>
      </g>
     </g>
    </g>
    <g id="ytick_5">
     <g id="line2d_14">
      <g>
       <use xlink:href="#m760901f936" x="57.6" y="66.660141" style="stroke: #000000; stroke-width: 0.8"/>
      </g>
     </g>
     <g id="text_15">
      <!-- 600 -->
      <g transform="translate(31.5125 70.45936)scale(0.1 -0.1)">
       <defs>
        <path id="DejaVuSans-36" d="M 2113 2584 
Q 1688 2584 1439 2293 
Q 1191 2003 1191 1497 
Q 1191 994 1439 701 
Q 1688 409 2113 409 
Q 2538 409 2786 701 
Q 3034 994 3034 1497 
Q 3034 2003 2786 2293 
Q 2538 2584 2113 2584 
z
M 3366 4563 
L 3366 3988 
Q 3128 4100 2886 4159 
Q 2644 4219 2406 4219 
Q 1781 4219 1451 3797 
Q 1122 3375 1075 2522 
Q 1259 2794 1537 2939 
Q 1816 3084 2150 3084 
Q 2853 3084 3261 2657 
Q 3669 2231 3669 1497 
Q 3669 778 3244 343 
Q 2819 -91 2113 -91 
Q 1303 -91 875 529 
Q 447 1150 447 2328 
Q 447 3434 972 4092 
Q 1497 4750 2381 4750 
Q 2619 4750 2861 4703 
Q 3103 4656 3366 4563 
z
" transform="scale(0.015625)"/>
       </defs>
       <use xlink:href="#DejaVuSans-36"/>
       <use xlink:href="#DejaVuSans-30" x="63.623047"/>
       <use xlink:href="#DejaVuSans-30" x="127.246094"/>
      </g>
     </g>
    </g>
    <g id="text_16">
     <!-- Reward Density -->
     <g transform="translate(25.432812 213.74675)rotate(-90)scale(0.1 -0.1)">
      <defs>
       <path id="DejaVuSans-52" d="M 2841 2188 
Q 3044 2119 3236 1894 
Q 3428 1669 3622 1275 
L 4263 0 
L 3584 0 
L 2988 1197 
Q 2756 1666 2539 1819 
Q 2322 1972 1947 1972 
L 1259 1972 
L 1259 0 
L 628 0 
L 628 4666 
L 2053 4666 
Q 2853 4666 3247 4331 
Q 3641 3997 3641 3322 
Q 3641 2881 3436 2590 
Q 3231 2300 2841 2188 
z
M 1259 4147 
L 1259 2491 
L 2053 2491 
Q 2509 2491 2742 2702 
Q 2975 2913 2975 3322 
Q 2975 3731 2742 3939 
Q 2509 4147 2053 4147 
L 1259 4147 
z
" transform="scale(0.015625)"/>
       <path id="DejaVuSans-77" d="M 269 3500 
L 844 3500 
L 1563 769 
L 2278 3500 
L 2956 3500 
L 3675 769 
L 4391 3500 
L 4966 3500 
L 4050 0 
L 3372 0 
L 2619 2869 
L 1863 0 
L 1184 0 
L 269 3500 
z
" transform="scale(0.015625)"/>
       <path id="DejaVuSans-44" d="M 1259 4147 
L 1259 519 
L 2022 519 
Q 2988 519 3436 956 
Q 3884 1394 3884 2338 
Q 3884 3275 3436 3711 
Q 2988 4147 2022 4147 
L 1259 4147 
z
M 628 4666 
L 1925 4666 
Q 3281 4666 3915 4102 
Q 4550 3538 4550 2338 
Q 4550 1131 3912 565 
Q 3275 0 1925 0 
L 628 0 
L 628 4666 
z
" transform="scale(0.015625)"/>
       <path id="DejaVuSans-74" d="M 1172 4494 
L 1172 3500 
L 2356 3500 
L 2356 3053 
L 1172 3053 
L 1172 1153 
Q 1172 725 1289 603 
Q 1406 481 1766 481 
L 2356 481 
L 2356 0 
L 1766 0 
Q 1100 0 847 248 
Q 594 497 594 1153 
L 594 3053 
L 172 3053 
L 172 3500 
L 594 3500 
L 594 4494 
L 1172 4494 
z
" transform="scale(0.015625)"/>
       <path id="DejaVuSans-79" d="M 2059 -325 
Q 1816 -950 1584 -1140 
Q 1353 -1331 966 -1331 
L 506 -1331 
L 506 -850 
L 844 -850 
Q 1081 -850 1212 -737 
Q 1344 -625 1503 -206 
L 1606 56 
L 191 3500 
L 800 3500 
L 1894 763 
L 2988 3500 
L 3597 3500 
L 2059 -325 
z
" transform="scale(0.015625)"/>
      </defs>
      <use xlink:href="#DejaVuSans-52"/>
      <use xlink:href="#DejaVuSans-65" x="64.982422"/>
      <use xlink:href="#DejaVuSans-77" x="126.505859"/>
      <use xlink:href="#DejaVuSans-61" x="208.292969"/>
      <use xlink:href="#DejaVuSans-72" x="269.572266"/>
      <use xlink:href="#DejaVuSans-64" x="308.935547"/>
      <use xlink:href="#DejaVuSans-20" x="372.412109"/>
      <use xlink:href="#DejaVuSans-44" x="404.199219"/>
      <use xlink:href="#DejaVuSans-65" x="481.201172"/>
      <use xlink:href="#DejaVuSans-6e" x="542.724609"/>
      <use xlink:href="#DejaVuSans-73" x="606.103516"/>
      <use xlink:href="#DejaVuSans-69" x="658.203125"/>
      <use xlink:href="#DejaVuSans-74" x="685.986328"/>
      <use xlink:href="#DejaVuSans-79" x="725.195312"/>
     </g>
    </g>
   </g>
   <g id="LineCollection_1">
    <path d="M 92.572407 235.273258 
L 130.051767 235.273258 
" clip-path="url(#p03a3e38654)" style="fill: none; stroke: #1f77b4; stroke-width: 1.5"/>
    <path d="M 175.859874 250.826722 
L 213.339234 250.826722 
" clip-path="url(#p03a3e38654)" style="fill: none; stroke: #1f77b4; stroke-width: 1.5"/>
    <path d="M 259.147341 258.21069 
L 296.626701 258.21069 
" clip-path="url(#p03a3e38654)" style="fill: none; stroke: #1f77b4; stroke-width: 1.5"/>
    <path d="M 342.268233 251.50979 
L 379.747593 251.50979 
" clip-path="url(#p03a3e38654)" style="fill: none; stroke: #1f77b4; stroke-width: 1.5"/>
   </g>
   <g id="LineCollection_2">
    <path d="M 92.572407 53.568 
L 130.051767 53.568 
" clip-path="url(#p03a3e38654)" style="fill: none; stroke: #1f77b4; stroke-width: 1.5"/>
    <path d="M 175.859874 185.627859 
L 213.339234 185.627859 
" clip-path="url(#p03a3e38654)" style="fill: none; stroke: #1f77b4; stroke-width: 1.5"/>
    <path d="M 259.147341 188.473976 
L 296.626701 188.473976 
" clip-path="url(#p03a3e38654)" style="fill: none; stroke: #1f77b4; stroke-width: 1.5"/>
    <path d="M 342.268233 194.166212 
L 379.747593 194.166212 
" clip-path="url(#p03a3e38654)" style="fill: none; stroke: #1f77b4; stroke-width: 1.5"/>
   </g>
   <g id="LineCollection_3">
    <path d="M 92.572407 285.8112 
L 130.051767 285.8112 
" clip-path="url(#p03a3e38654)" style="fill: none; stroke: #1f77b4; stroke-width: 1.5"/>
    <path d="M 175.859874 285.8112 
L 213.339234 285.8112 
" clip-path="url(#p03a3e38654)" style="fill: none; stroke: #1f77b4; stroke-width: 1.5"/>
    <path d="M 259.147341 289.795765 
L 296.626701 289.795765 
" clip-path="url(#p03a3e38654)" style="fill: none; stroke: #1f77b4; stroke-width: 1.5"/>
    <path d="M 342.268233 295.488 
L 379.747593 295.488 
" clip-path="url(#p03a3e38654)" style="fill: none; stroke: #1f77b4; stroke-width: 1.5"/>
   </g>
   <g id="LineCollection_4">
    <path d="M 111.312087 285.8112 
L 111.312087 53.568 
" clip-path="url(#p03a3e38654)" style="fill: none; stroke: #1f77b4; stroke-width: 1.5"/>
    <path d="M 194.599554 285.8112 
L 194.599554 185.627859 
" clip-path="url(#p03a3e38654)" style="fill: none; stroke: #1f77b4; stroke-width: 1.5"/>
    <path d="M 277.887021 289.795765 
L 277.887021 188.473976 
" clip-path="url(#p03a3e38654)" style="fill: none; stroke: #1f77b4; stroke-width: 1.5"/>
    <path d="M 361.007913 295.488 
L 361.007913 194.166212 
" clip-path="url(#p03a3e38654)" style="fill: none; stroke: #1f77b4; stroke-width: 1.5"/>
   </g>
   <g id="line2d_15">
    <path d="M 111.312087 235.273258 
L 194.599554 250.826722 
L 277.887021 258.21069 
L 361.007913 251.50979 
" clip-path="url(#p03a3e38654)" style="fill: none; stroke: #4682b4; stroke-width: 1.5; stroke-linecap: square"/>
   </g>
   <g id="patch_3">
    <path d="M 57.6 307.584 
L 57.6 41.472 
" style="fill: none; stroke: #000000; stroke-width: 0.8; stroke-linejoin: miter; stroke-linecap: square"/>
   </g>
   <g id="patch_4">
    <path d="M 414.72 307.584 
L 414.72 41.472 
" style="fill: none; stroke: #000000; stroke-width: 0.8; stroke-linejoin: miter; stroke-linecap: square"/>
   </g>
   <g id="patch_5">
    <path d="M 57.6 307.584 
L 414.72 307.584 
" style="fill: none; stroke: #000000; stroke-width: 0.8; stroke-linejoin: miter; stroke-linecap: square"/>
   </g>
   <g id="patch_6">
    <path d="M 57.6 41.472 
L 414.72 41.472 
" style="fill: none; stroke: #000000; stroke-width: 0.8; stroke-linejoin: miter; stroke-linecap: square"/>
   </g>
   <g id="text_17">
    <!-- Violinplot for progress of customer/buy_nothing -->
    <g transform="translate(93.315937 35.472)scale(0.12 -0.12)">
     <defs>
      <path id="DejaVuSans-56" d="M 1831 0 
L 50 4666 
L 709 4666 
L 2188 738 
L 3669 4666 
L 4325 4666 
L 2547 0 
L 1831 0 
z
" transform="scale(0.015625)"/>
      <path id="DejaVuSans-6c" d="M 603 4863 
L 1178 4863 
L 1178 0 
L 603 0 
L 603 4863 
z
" transform="scale(0.015625)"/>
      <path id="DejaVuSans-66" d="M 2375 4863 
L 2375 4384 
L 1825 4384 
Q 1516 4384 1395 4259 
Q 1275 4134 1275 3809 
L 1275 3500 
L 2222 3500 
L 2222 3053 
L 1275 3053 
L 1275 0 
L 697 0 
L 697 3053 
L 147 3053 
L 147 3500 
L 697 3500 
L 697 3744 
Q 697 4328 969 4595 
Q 1241 4863 1831 4863 
L 2375 4863 
z
" transform="scale(0.015625)"/>
      <path id="DejaVuSans-67" d="M 2906 1791 
Q 2906 2416 2648 2759 
Q 2391 3103 1925 3103 
Q 1463 3103 1205 2759 
Q 947 2416 947 1791 
Q 947 1169 1205 825 
Q 1463 481 1925 481 
Q 2391 481 2648 825 
Q 2906 1169 2906 1791 
z
M 3481 434 
Q 3481 -459 3084 -895 
Q 2688 -1331 1869 -1331 
Q 1566 -1331 1297 -1286 
Q 1028 -1241 775 -1147 
L 775 -588 
Q 1028 -725 1275 -790 
Q 1522 -856 1778 -856 
Q 2344 -856 2625 -561 
Q 2906 -266 2906 331 
L 2906 616 
Q 2728 306 2450 153 
Q 2172 0 1784 0 
Q 1141 0 747 490 
Q 353 981 353 1791 
Q 353 2603 747 3093 
Q 1141 3584 1784 3584 
Q 2172 3584 2450 3431 
Q 2728 3278 2906 2969 
L 2906 3500 
L 3481 3500 
L 3481 434 
z
" transform="scale(0.015625)"/>
      <path id="DejaVuSans-63" d="M 3122 3366 
L 3122 2828 
Q 2878 2963 2633 3030 
Q 2388 3097 2138 3097 
Q 1578 3097 1268 2742 
Q 959 2388 959 1747 
Q 959 1106 1268 751 
Q 1578 397 2138 397 
Q 2388 397 2633 464 
Q 2878 531 3122 666 
L 3122 134 
Q 2881 22 2623 -34 
Q 2366 -91 2075 -91 
Q 1284 -91 818 406 
Q 353 903 353 1747 
Q 353 2603 823 3093 
Q 1294 3584 2113 3584 
Q 2378 3584 2631 3529 
Q 2884 3475 3122 3366 
z
" transform="scale(0.015625)"/>
      <path id="DejaVuSans-75" d="M 544 1381 
L 544 3500 
L 1119 3500 
L 1119 1403 
Q 1119 906 1312 657 
Q 1506 409 1894 409 
Q 2359 409 2629 706 
Q 2900 1003 2900 1516 
L 2900 3500 
L 3475 3500 
L 3475 0 
L 2900 0 
L 2900 538 
Q 2691 219 2414 64 
Q 2138 -91 1772 -91 
Q 1169 -91 856 284 
Q 544 659 544 1381 
z
M 1991 3584 
L 1991 3584 
z
" transform="scale(0.015625)"/>
      <path id="DejaVuSans-6d" d="M 3328 2828 
Q 3544 3216 3844 3400 
Q 4144 3584 4550 3584 
Q 5097 3584 5394 3201 
Q 5691 2819 5691 2113 
L 5691 0 
L 5113 0 
L 5113 2094 
Q 5113 2597 4934 2840 
Q 4756 3084 4391 3084 
Q 3944 3084 3684 2787 
Q 3425 2491 3425 1978 
L 3425 0 
L 2847 0 
L 2847 2094 
Q 2847 2600 2669 2842 
Q 2491 3084 2119 3084 
Q 1678 3084 1418 2786 
Q 1159 2488 1159 1978 
L 1159 0 
L 581 0 
L 581 3500 
L 1159 3500 
L 1159 2956 
Q 1356 3278 1631 3431 
Q 1906 3584 2284 3584 
Q 2666 3584 2933 3390 
Q 3200 3197 3328 2828 
z
" transform="scale(0.015625)"/>
      <path id="DejaVuSans-2f" d="M 1625 4666 
L 2156 4666 
L 531 -594 
L 0 -594 
L 1625 4666 
z
" transform="scale(0.015625)"/>
      <path id="DejaVuSans-62" d="M 3116 1747 
Q 3116 2381 2855 2742 
Q 2594 3103 2138 3103 
Q 1681 3103 1420 2742 
Q 1159 2381 1159 1747 
Q 1159 1113 1420 752 
Q 1681 391 2138 391 
Q 2594 391 2855 752 
Q 3116 1113 3116 1747 
z
M 1159 2969 
Q 1341 3281 1617 3432 
Q 1894 3584 2278 3584 
Q 2916 3584 3314 3078 
Q 3713 2572 3713 1747 
Q 3713 922 3314 415 
Q 2916 -91 2278 -91 
Q 1894 -91 1617 61 
Q 1341 213 1159 525 
L 1159 0 
L 581 0 
L 581 4863 
L 1159 4863 
L 1159 2969 
z
" transform="scale(0.015625)"/>
      <path id="DejaVuSans-5f" d="M 3263 -1063 
L 3263 -1509 
L -63 -1509 
L -63 -1063 
L 3263 -1063 
z
" transform="scale(0.015625)"/>
      <path id="DejaVuSans-68" d="M 3513 2113 
L 3513 0 
L 2938 0 
L 2938 2094 
Q 2938 2591 2744 2837 
Q 2550 3084 2163 3084 
Q 1697 3084 1428 2787 
Q 1159 2491 1159 1978 
L 1159 0 
L 581 0 
L 581 4863 
L 1159 4863 
L 1159 2956 
Q 1366 3272 1645 3428 
Q 1925 3584 2291 3584 
Q 2894 3584 3203 3211 
Q 3513 2838 3513 2113 
z
" transform="scale(0.015625)"/>
     </defs>
     <use xlink:href="#DejaVuSans-56"/>
     <use xlink:href="#DejaVuSans-69" x="66.158203"/>
     <use xlink:href="#DejaVuSans-6f" x="93.941406"/>
     <use xlink:href="#DejaVuSans-6c" x="155.123047"/>
     <use xlink:href="#DejaVuSans-69" x="182.90625"/>
     <use xlink:href="#DejaVuSans-6e" x="210.689453"/>
     <use xlink:href="#DejaVuSans-70" x="274.068359"/>
     <use xlink:href="#DejaVuSans-6c" x="337.544922"/>
     <use xlink:href="#DejaVuSans-6f" x="365.328125"/>
     <use xlink:href="#DejaVuSans-74" x="426.509766"/>
     <use xlink:href="#DejaVuSans-20" x="465.71875"/>
     <use xlink:href="#DejaVuSans-66" x="497.505859"/>
     <use xlink:href="#DejaVuSans-6f" x="532.710938"/>
     <use xlink:href="#DejaVuSans-72" x="593.892578"/>
     <use xlink:href="#DejaVuSans-20" x="635.005859"/>
     <use xlink:href="#DejaVuSans-70" x="666.792969"/>
     <use xlink:href="#DejaVuSans-72" x="730.269531"/>
     <use xlink:href="#DejaVuSans-6f" x="769.132812"/>
     <use xlink:href="#DejaVuSans-67" x="830.314453"/>
     <use xlink:href="#DejaVuSans-72" x="893.791016"/>
     <use xlink:href="#DejaVuSans-65" x="932.654297"/>
     <use xlink:href="#DejaVuSans-73" x="994.177734"/>
     <use xlink:href="#DejaVuSans-73" x="1046.277344"/>
     <use xlink:href="#DejaVuSans-20" x="1098.376953"/>
     <use xlink:href="#DejaVuSans-6f" x="1130.164062"/>
     <use xlink:href="#DejaVuSans-66" x="1191.345703"/>
     <use xlink:href="#DejaVuSans-20" x="1226.550781"/>
     <use xlink:href="#DejaVuSans-63" x="1258.337891"/>
     <use xlink:href="#DejaVuSans-75" x="1313.318359"/>
     <use xlink:href="#DejaVuSans-73" x="1376.697266"/>
     <use xlink:href="#DejaVuSans-74" x="1428.796875"/>
     <use xlink:href="#DejaVuSans-6f" x="1468.005859"/>
     <use xlink:href="#DejaVuSans-6d" x="1529.1875"/>
     <use xlink:href="#DejaVuSans-65" x="1626.599609"/>
     <use xlink:href="#DejaVuSans-72" x="1688.123047"/>
     <use xlink:href="#DejaVuSans-2f" x="1729.236328"/>
     <use xlink:href="#DejaVuSans-62" x="1762.927734"/>
     <use xlink:href="#DejaVuSans-75" x="1826.404297"/>
     <use xlink:href="#DejaVuSans-79" x="1889.783203"/>
     <use xlink:href="#DejaVuSans-5f" x="1948.962891"/>
     <use xlink:href="#DejaVuSans-6e" x="1998.962891"/>
     <use xlink:href="#DejaVuSans-6f" x="2062.341797"/>
     <use xlink:href="#DejaVuSans-74" x="2123.523438"/>
     <use xlink:href="#DejaVuSans-68" x="2162.732422"/>
     <use xlink:href="#DejaVuSans-69" x="2226.111328"/>
     <use xlink:href="#DejaVuSans-6e" x="2253.894531"/>
     <use xlink:href="#DejaVuSans-67" x="2317.273438"/>
    </g>
   </g>
  </g>
 </g>
 <defs>
  <clipPath id="p03a3e38654">
   <rect x="57.6" y="41.472" width="357.12" height="266.112"/>
  </clipPath>
 </defs>
</svg>
