<?xml version="1.0" encoding="utf-8" standalone="no"?>
<!DOCTYPE svg PUBLIC "-//W3C//DTD SVG 1.1//EN"
  "http://www.w3.org/Graphics/SVG/1.1/DTD/svg11.dtd">
<svg xmlns:xlink="http://www.w3.org/1999/xlink" width="460.8pt" height="345.6pt" viewBox="0 0 460.8 345.6" xmlns="http://www.w3.org/2000/svg" version="1.1">
 <metadata>
  <rdf:RDF xmlns:dc="http://purl.org/dc/elements/1.1/" xmlns:cc="http://creativecommons.org/ns#" xmlns:rdf="http://www.w3.org/1999/02/22-rdf-syntax-ns#">
   <cc:Work>
    <dc:type rdf:resource="http://purl.org/dc/dcmitype/StillImage"/>
    <dc:date>2022-06-21T09:12:10.171777</dc:date>
    <dc:format>image/svg+xml</dc:format>
    <dc:creator>
     <cc:Agent>
      <dc:title>Matplotlib v3.5.2, https://matplotlib.org/</dc:title>
     </cc:Agent>
    </dc:creator>
   </cc:Work>
  </rdf:RDF>
 </metadata>
 <defs>
  <style type="text/css">*{stroke-linejoin: round; stroke-linecap: butt}</style>
 </defs>
 <g id="figure_1">
  <g id="patch_1">
   <path d="M 0 345.6 
L 460.8 345.6 
L 460.8 0 
L 0 0 
L 0 345.6 
z
" style="fill: none"/>
  </g>
  <g id="axes_1">
   <g id="patch_2">
    <path d="M 57.6 307.584 
L 414.72 307.584 
L 414.72 41.472 
L 57.6 41.472 
L 57.6 307.584 
z
" style="fill: none"/>
   </g>
   <g id="matplotlib.axis_1">
    <g id="xtick_1">
     <g id="line2d_1">
      <path d="M 72.200477 307.584 
L 72.200477 41.472 
" clip-path="url(#p6ac9581dc6)" style="fill: none; stroke-dasharray: 2.96,1.28; stroke-dashoffset: 0; stroke: #b0b0b0; stroke-width: 0.8"/>
     </g>
     <g id="line2d_2">
      <defs>
       <path id="m90f2425b7d" d="M 0 0 
L 0 3.5 
" style="stroke: #000000; stroke-width: 0.8"/>
      </defs>
      <g>
       <use xlink:href="#m90f2425b7d" x="72.200477" y="307.584" style="stroke: #000000; stroke-width: 0.8"/>
      </g>
     </g>
     <g id="text_1">
      <!-- 0 -->
      <g transform="translate(69.019227 322.182437)scale(0.1 -0.1)">
       <defs>
        <path id="DejaVuSans-30" d="M 2034 4250 
Q 1547 4250 1301 3770 
Q 1056 3291 1056 2328 
Q 1056 1369 1301 889 
Q 1547 409 2034 409 
Q 2525 409 2770 889 
Q 3016 1369 3016 2328 
Q 3016 3291 2770 3770 
Q 2525 4250 2034 4250 
z
M 2034 4750 
Q 2819 4750 3233 4129 
Q 3647 3509 3647 2328 
Q 3647 1150 3233 529 
Q 2819 -91 2034 -91 
Q 1250 -91 836 529 
Q 422 1150 422 2328 
Q 422 3509 836 4129 
Q 1250 4750 2034 4750 
z
" transform="scale(0.015625)"/>
       </defs>
       <use xlink:href="#DejaVuSans-30"/>
      </g>
     </g>
    </g>
    <g id="xtick_2">
     <g id="line2d_3">
      <path d="M 113.00673 307.584 
L 113.00673 41.472 
" clip-path="url(#p6ac9581dc6)" style="fill: none; stroke-dasharray: 2.96,1.28; stroke-dashoffset: 0; stroke: #b0b0b0; stroke-width: 0.8"/>
     </g>
     <g id="line2d_4">
      <g>
       <use xlink:href="#m90f2425b7d" x="113.00673" y="307.584" style="stroke: #000000; stroke-width: 0.8"/>
      </g>
     </g>
     <g id="text_2">
      <!-- 250 -->
      <g transform="translate(103.46298 322.182437)scale(0.1 -0.1)">
       <defs>
        <path id="DejaVuSans-32" d="M 1228 531 
L 3431 531 
L 3431 0 
L 469 0 
L 469 531 
Q 828 903 1448 1529 
Q 2069 2156 2228 2338 
Q 2531 2678 2651 2914 
Q 2772 3150 2772 3378 
Q 2772 3750 2511 3984 
Q 2250 4219 1831 4219 
Q 1534 4219 1204 4116 
Q 875 4013 500 3803 
L 500 4441 
Q 881 4594 1212 4672 
Q 1544 4750 1819 4750 
Q 2544 4750 2975 4387 
Q 3406 4025 3406 3419 
Q 3406 3131 3298 2873 
Q 3191 2616 2906 2266 
Q 2828 2175 2409 1742 
Q 1991 1309 1228 531 
z
" transform="scale(0.015625)"/>
        <path id="DejaVuSans-35" d="M 691 4666 
L 3169 4666 
L 3169 4134 
L 1269 4134 
L 1269 2991 
Q 1406 3038 1543 3061 
Q 1681 3084 1819 3084 
Q 2600 3084 3056 2656 
Q 3513 2228 3513 1497 
Q 3513 744 3044 326 
Q 2575 -91 1722 -91 
Q 1428 -91 1123 -41 
Q 819 9 494 109 
L 494 744 
Q 775 591 1075 516 
Q 1375 441 1709 441 
Q 2250 441 2565 725 
Q 2881 1009 2881 1497 
Q 2881 1984 2565 2268 
Q 2250 2553 1709 2553 
Q 1456 2553 1204 2497 
Q 953 2441 691 2322 
L 691 4666 
z
" transform="scale(0.015625)"/>
       </defs>
       <use xlink:href="#DejaVuSans-32"/>
       <use xlink:href="#DejaVuSans-35" x="63.623047"/>
       <use xlink:href="#DejaVuSans-30" x="127.246094"/>
      </g>
     </g>
    </g>
    <g id="xtick_3">
     <g id="line2d_5">
      <path d="M 153.812982 307.584 
L 153.812982 41.472 
" clip-path="url(#p6ac9581dc6)" style="fill: none; stroke-dasharray: 2.96,1.28; stroke-dashoffset: 0; stroke: #b0b0b0; stroke-width: 0.8"/>
     </g>
     <g id="line2d_6">
      <g>
       <use xlink:href="#m90f2425b7d" x="153.812982" y="307.584" style="stroke: #000000; stroke-width: 0.8"/>
      </g>
     </g>
     <g id="text_3">
      <!-- 500 -->
      <g transform="translate(144.269232 322.182437)scale(0.1 -0.1)">
       <use xlink:href="#DejaVuSans-35"/>
       <use xlink:href="#DejaVuSans-30" x="63.623047"/>
       <use xlink:href="#DejaVuSans-30" x="127.246094"/>
      </g>
     </g>
    </g>
    <g id="xtick_4">
     <g id="line2d_7">
      <path d="M 194.619235 307.584 
L 194.619235 41.472 
" clip-path="url(#p6ac9581dc6)" style="fill: none; stroke-dasharray: 2.96,1.28; stroke-dashoffset: 0; stroke: #b0b0b0; stroke-width: 0.8"/>
     </g>
     <g id="line2d_8">
      <g>
       <use xlink:href="#m90f2425b7d" x="194.619235" y="307.584" style="stroke: #000000; stroke-width: 0.8"/>
      </g>
     </g>
     <g id="text_4">
      <!-- 750 -->
      <g transform="translate(185.075485 322.182437)scale(0.1 -0.1)">
       <defs>
        <path id="DejaVuSans-37" d="M 525 4666 
L 3525 4666 
L 3525 4397 
L 1831 0 
L 1172 0 
L 2766 4134 
L 525 4134 
L 525 4666 
z
" transform="scale(0.015625)"/>
       </defs>
       <use xlink:href="#DejaVuSans-37"/>
       <use xlink:href="#DejaVuSans-35" x="63.623047"/>
       <use xlink:href="#DejaVuSans-30" x="127.246094"/>
      </g>
     </g>
    </g>
    <g id="xtick_5">
     <g id="line2d_9">
      <path d="M 235.425487 307.584 
L 235.425487 41.472 
" clip-path="url(#p6ac9581dc6)" style="fill: none; stroke-dasharray: 2.96,1.28; stroke-dashoffset: 0; stroke: #b0b0b0; stroke-width: 0.8"/>
     </g>
     <g id="line2d_10">
      <g>
       <use xlink:href="#m90f2425b7d" x="235.425487" y="307.584" style="stroke: #000000; stroke-width: 0.8"/>
      </g>
     </g>
     <g id="text_5">
      <!-- 1000 -->
      <g transform="translate(222.700487 322.182437)scale(0.1 -0.1)">
       <defs>
        <path id="DejaVuSans-31" d="M 794 531 
L 1825 531 
L 1825 4091 
L 703 3866 
L 703 4441 
L 1819 4666 
L 2450 4666 
L 2450 531 
L 3481 531 
L 3481 0 
L 794 0 
L 794 531 
z
" transform="scale(0.015625)"/>
       </defs>
       <use xlink:href="#DejaVuSans-31"/>
       <use xlink:href="#DejaVuSans-30" x="63.623047"/>
       <use xlink:href="#DejaVuSans-30" x="127.246094"/>
       <use xlink:href="#DejaVuSans-30" x="190.869141"/>
      </g>
     </g>
    </g>
    <g id="xtick_6">
     <g id="line2d_11">
      <path d="M 276.23174 307.584 
L 276.23174 41.472 
" clip-path="url(#p6ac9581dc6)" style="fill: none; stroke-dasharray: 2.96,1.28; stroke-dashoffset: 0; stroke: #b0b0b0; stroke-width: 0.8"/>
     </g>
     <g id="line2d_12">
      <g>
       <use xlink:href="#m90f2425b7d" x="276.23174" y="307.584" style="stroke: #000000; stroke-width: 0.8"/>
      </g>
     </g>
     <g id="text_6">
      <!-- 1250 -->
      <g transform="translate(263.50674 322.182437)scale(0.1 -0.1)">
       <use xlink:href="#DejaVuSans-31"/>
       <use xlink:href="#DejaVuSans-32" x="63.623047"/>
       <use xlink:href="#DejaVuSans-35" x="127.246094"/>
       <use xlink:href="#DejaVuSans-30" x="190.869141"/>
      </g>
     </g>
    </g>
    <g id="xtick_7">
     <g id="line2d_13">
      <path d="M 317.037993 307.584 
L 317.037993 41.472 
" clip-path="url(#p6ac9581dc6)" style="fill: none; stroke-dasharray: 2.96,1.28; stroke-dashoffset: 0; stroke: #b0b0b0; stroke-width: 0.8"/>
     </g>
     <g id="line2d_14">
      <g>
       <use xlink:href="#m90f2425b7d" x="317.037993" y="307.584" style="stroke: #000000; stroke-width: 0.8"/>
      </g>
     </g>
     <g id="text_7">
      <!-- 1500 -->
      <g transform="translate(304.312993 322.182437)scale(0.1 -0.1)">
       <use xlink:href="#DejaVuSans-31"/>
       <use xlink:href="#DejaVuSans-35" x="63.623047"/>
       <use xlink:href="#DejaVuSans-30" x="127.246094"/>
       <use xlink:href="#DejaVuSans-30" x="190.869141"/>
      </g>
     </g>
    </g>
    <g id="xtick_8">
     <g id="line2d_15">
      <path d="M 357.844245 307.584 
L 357.844245 41.472 
" clip-path="url(#p6ac9581dc6)" style="fill: none; stroke-dasharray: 2.96,1.28; stroke-dashoffset: 0; stroke: #b0b0b0; stroke-width: 0.8"/>
     </g>
     <g id="line2d_16">
      <g>
       <use xlink:href="#m90f2425b7d" x="357.844245" y="307.584" style="stroke: #000000; stroke-width: 0.8"/>
      </g>
     </g>
     <g id="text_8">
      <!-- 1750 -->
      <g transform="translate(345.119245 322.182437)scale(0.1 -0.1)">
       <use xlink:href="#DejaVuSans-31"/>
       <use xlink:href="#DejaVuSans-37" x="63.623047"/>
       <use xlink:href="#DejaVuSans-35" x="127.246094"/>
       <use xlink:href="#DejaVuSans-30" x="190.869141"/>
      </g>
     </g>
    </g>
    <g id="xtick_9">
     <g id="line2d_17">
      <path d="M 398.650498 307.584 
L 398.650498 41.472 
" clip-path="url(#p6ac9581dc6)" style="fill: none; stroke-dasharray: 2.96,1.28; stroke-dashoffset: 0; stroke: #b0b0b0; stroke-width: 0.8"/>
     </g>
     <g id="line2d_18">
      <g>
       <use xlink:href="#m90f2425b7d" x="398.650498" y="307.584" style="stroke: #000000; stroke-width: 0.8"/>
      </g>
     </g>
     <g id="text_9">
      <!-- 2000 -->
      <g transform="translate(385.925498 322.182437)scale(0.1 -0.1)">
       <use xlink:href="#DejaVuSans-32"/>
       <use xlink:href="#DejaVuSans-30" x="63.623047"/>
       <use xlink:href="#DejaVuSans-30" x="127.246094"/>
       <use xlink:href="#DejaVuSans-30" x="190.869141"/>
      </g>
     </g>
    </g>
    <g id="text_10">
     <!-- Episode -->
     <g transform="translate(216.5225 335.860562)scale(0.1 -0.1)">
      <defs>
       <path id="DejaVuSans-45" d="M 628 4666 
L 3578 4666 
L 3578 4134 
L 1259 4134 
L 1259 2753 
L 3481 2753 
L 3481 2222 
L 1259 2222 
L 1259 531 
L 3634 531 
L 3634 0 
L 628 0 
L 628 4666 
z
" transform="scale(0.015625)"/>
       <path id="DejaVuSans-70" d="M 1159 525 
L 1159 -1331 
L 581 -1331 
L 581 3500 
L 1159 3500 
L 1159 2969 
Q 1341 3281 1617 3432 
Q 1894 3584 2278 3584 
Q 2916 3584 3314 3078 
Q 3713 2572 3713 1747 
Q 3713 922 3314 415 
Q 2916 -91 2278 -91 
Q 1894 -91 1617 61 
Q 1341 213 1159 525 
z
M 3116 1747 
Q 3116 2381 2855 2742 
Q 2594 3103 2138 3103 
Q 1681 3103 1420 2742 
Q 1159 2381 1159 1747 
Q 1159 1113 1420 752 
Q 1681 391 2138 391 
Q 2594 391 2855 752 
Q 3116 1113 3116 1747 
z
" transform="scale(0.015625)"/>
       <path id="DejaVuSans-69" d="M 603 3500 
L 1178 3500 
L 1178 0 
L 603 0 
L 603 3500 
z
M 603 4863 
L 1178 4863 
L 1178 4134 
L 603 4134 
L 603 4863 
z
" transform="scale(0.015625)"/>
       <path id="DejaVuSans-73" d="M 2834 3397 
L 2834 2853 
Q 2591 2978 2328 3040 
Q 2066 3103 1784 3103 
Q 1356 3103 1142 2972 
Q 928 2841 928 2578 
Q 928 2378 1081 2264 
Q 1234 2150 1697 2047 
L 1894 2003 
Q 2506 1872 2764 1633 
Q 3022 1394 3022 966 
Q 3022 478 2636 193 
Q 2250 -91 1575 -91 
Q 1294 -91 989 -36 
Q 684 19 347 128 
L 347 722 
Q 666 556 975 473 
Q 1284 391 1588 391 
Q 1994 391 2212 530 
Q 2431 669 2431 922 
Q 2431 1156 2273 1281 
Q 2116 1406 1581 1522 
L 1381 1569 
Q 847 1681 609 1914 
Q 372 2147 372 2553 
Q 372 3047 722 3315 
Q 1072 3584 1716 3584 
Q 2034 3584 2315 3537 
Q 2597 3491 2834 3397 
z
" transform="scale(0.015625)"/>
       <path id="DejaVuSans-6f" d="M 1959 3097 
Q 1497 3097 1228 2736 
Q 959 2375 959 1747 
Q 959 1119 1226 758 
Q 1494 397 1959 397 
Q 2419 397 2687 759 
Q 2956 1122 2956 1747 
Q 2956 2369 2687 2733 
Q 2419 3097 1959 3097 
z
M 1959 3584 
Q 2709 3584 3137 3096 
Q 3566 2609 3566 1747 
Q 3566 888 3137 398 
Q 2709 -91 1959 -91 
Q 1206 -91 779 398 
Q 353 888 353 1747 
Q 353 2609 779 3096 
Q 1206 3584 1959 3584 
z
" transform="scale(0.015625)"/>
       <path id="DejaVuSans-64" d="M 2906 2969 
L 2906 4863 
L 3481 4863 
L 3481 0 
L 2906 0 
L 2906 525 
Q 2725 213 2448 61 
Q 2172 -91 1784 -91 
Q 1150 -91 751 415 
Q 353 922 353 1747 
Q 353 2572 751 3078 
Q 1150 3584 1784 3584 
Q 2172 3584 2448 3432 
Q 2725 3281 2906 2969 
z
M 947 1747 
Q 947 1113 1208 752 
Q 1469 391 1925 391 
Q 2381 391 2643 752 
Q 2906 1113 2906 1747 
Q 2906 2381 2643 2742 
Q 2381 3103 1925 3103 
Q 1469 3103 1208 2742 
Q 947 2381 947 1747 
z
" transform="scale(0.015625)"/>
       <path id="DejaVuSans-65" d="M 3597 1894 
L 3597 1613 
L 953 1613 
Q 991 1019 1311 708 
Q 1631 397 2203 397 
Q 2534 397 2845 478 
Q 3156 559 3463 722 
L 3463 178 
Q 3153 47 2828 -22 
Q 2503 -91 2169 -91 
Q 1331 -91 842 396 
Q 353 884 353 1716 
Q 353 2575 817 3079 
Q 1281 3584 2069 3584 
Q 2775 3584 3186 3129 
Q 3597 2675 3597 1894 
z
M 3022 2063 
Q 3016 2534 2758 2815 
Q 2500 3097 2075 3097 
Q 1594 3097 1305 2825 
Q 1016 2553 972 2059 
L 3022 2063 
z
" transform="scale(0.015625)"/>
      </defs>
      <use xlink:href="#DejaVuSans-45"/>
      <use xlink:href="#DejaVuSans-70" x="63.183594"/>
      <use xlink:href="#DejaVuSans-69" x="126.660156"/>
      <use xlink:href="#DejaVuSans-73" x="154.443359"/>
      <use xlink:href="#DejaVuSans-6f" x="206.542969"/>
      <use xlink:href="#DejaVuSans-64" x="267.724609"/>
      <use xlink:href="#DejaVuSans-65" x="331.201172"/>
     </g>
    </g>
   </g>
   <g id="matplotlib.axis_2">
    <g id="ytick_1">
     <g id="line2d_19">
      <path d="M 57.6 266.624869 
L 414.72 266.624869 
" clip-path="url(#p6ac9581dc6)" style="fill: none; stroke-dasharray: 2.96,1.28; stroke-dashoffset: 0; stroke: #b0b0b0; stroke-width: 0.8"/>
     </g>
     <g id="line2d_20">
      <defs>
       <path id="m1d46fbd1a4" d="M 0 0 
L -3.5 0 
" style="stroke: #000000; stroke-width: 0.8"/>
      </defs>
      <g>
       <use xlink:href="#m1d46fbd1a4" x="57.6" y="266.624869" style="stroke: #000000; stroke-width: 0.8"/>
      </g>
     </g>
     <g id="text_11">
      <!-- 100 -->
      <g transform="translate(31.5125 270.424088)scale(0.1 -0.1)">
       <use xlink:href="#DejaVuSans-31"/>
       <use xlink:href="#DejaVuSans-30" x="63.623047"/>
       <use xlink:href="#DejaVuSans-30" x="127.246094"/>
      </g>
     </g>
    </g>
    <g id="ytick_2">
     <g id="line2d_21">
      <path d="M 57.6 218.078319 
L 414.72 218.078319 
" clip-path="url(#p6ac9581dc6)" style="fill: none; stroke-dasharray: 2.96,1.28; stroke-dashoffset: 0; stroke: #b0b0b0; stroke-width: 0.8"/>
     </g>
     <g id="line2d_22">
      <g>
       <use xlink:href="#m1d46fbd1a4" x="57.6" y="218.078319" style="stroke: #000000; stroke-width: 0.8"/>
      </g>
     </g>
     <g id="text_12">
      <!-- 150 -->
      <g transform="translate(31.5125 221.877538)scale(0.1 -0.1)">
       <use xlink:href="#DejaVuSans-31"/>
       <use xlink:href="#DejaVuSans-35" x="63.623047"/>
       <use xlink:href="#DejaVuSans-30" x="127.246094"/>
      </g>
     </g>
    </g>
    <g id="ytick_3">
     <g id="line2d_23">
      <path d="M 57.6 169.531769 
L 414.72 169.531769 
" clip-path="url(#p6ac9581dc6)" style="fill: none; stroke-dasharray: 2.96,1.28; stroke-dashoffset: 0; stroke: #b0b0b0; stroke-width: 0.8"/>
     </g>
     <g id="line2d_24">
      <g>
       <use xlink:href="#m1d46fbd1a4" x="57.6" y="169.531769" style="stroke: #000000; stroke-width: 0.8"/>
      </g>
     </g>
     <g id="text_13">
      <!-- 200 -->
      <g transform="translate(31.5125 173.330988)scale(0.1 -0.1)">
       <use xlink:href="#DejaVuSans-32"/>
       <use xlink:href="#DejaVuSans-30" x="63.623047"/>
       <use xlink:href="#DejaVuSans-30" x="127.246094"/>
      </g>
     </g>
    </g>
    <g id="ytick_4">
     <g id="line2d_25">
      <path d="M 57.6 120.985219 
L 414.72 120.985219 
" clip-path="url(#p6ac9581dc6)" style="fill: none; stroke-dasharray: 2.96,1.28; stroke-dashoffset: 0; stroke: #b0b0b0; stroke-width: 0.8"/>
     </g>
     <g id="line2d_26">
      <g>
       <use xlink:href="#m1d46fbd1a4" x="57.6" y="120.985219" style="stroke: #000000; stroke-width: 0.8"/>
      </g>
     </g>
     <g id="text_14">
      <!-- 250 -->
      <g transform="translate(31.5125 124.784438)scale(0.1 -0.1)">
       <use xlink:href="#DejaVuSans-32"/>
       <use xlink:href="#DejaVuSans-35" x="63.623047"/>
       <use xlink:href="#DejaVuSans-30" x="127.246094"/>
      </g>
     </g>
    </g>
    <g id="ytick_5">
     <g id="line2d_27">
      <path d="M 57.6 72.438669 
L 414.72 72.438669 
" clip-path="url(#p6ac9581dc6)" style="fill: none; stroke-dasharray: 2.96,1.28; stroke-dashoffset: 0; stroke: #b0b0b0; stroke-width: 0.8"/>
     </g>
     <g id="line2d_28">
      <g>
       <use xlink:href="#m1d46fbd1a4" x="57.6" y="72.438669" style="stroke: #000000; stroke-width: 0.8"/>
      </g>
     </g>
     <g id="text_15">
      <!-- 300 -->
      <g transform="translate(31.5125 76.237888)scale(0.1 -0.1)">
       <defs>
        <path id="DejaVuSans-33" d="M 2597 2516 
Q 3050 2419 3304 2112 
Q 3559 1806 3559 1356 
Q 3559 666 3084 287 
Q 2609 -91 1734 -91 
Q 1441 -91 1130 -33 
Q 819 25 488 141 
L 488 750 
Q 750 597 1062 519 
Q 1375 441 1716 441 
Q 2309 441 2620 675 
Q 2931 909 2931 1356 
Q 2931 1769 2642 2001 
Q 2353 2234 1838 2234 
L 1294 2234 
L 1294 2753 
L 1863 2753 
Q 2328 2753 2575 2939 
Q 2822 3125 2822 3475 
Q 2822 3834 2567 4026 
Q 2313 4219 1838 4219 
Q 1578 4219 1281 4162 
Q 984 4106 628 3988 
L 628 4550 
Q 988 4650 1302 4700 
Q 1616 4750 1894 4750 
Q 2613 4750 3031 4423 
Q 3450 4097 3450 3541 
Q 3450 3153 3228 2886 
Q 3006 2619 2597 2516 
z
" transform="scale(0.015625)"/>
       </defs>
       <use xlink:href="#DejaVuSans-33"/>
       <use xlink:href="#DejaVuSans-30" x="63.623047"/>
       <use xlink:href="#DejaVuSans-30" x="127.246094"/>
      </g>
     </g>
    </g>
    <g id="text_16">
     <!-- owner/throw_away -->
     <g transform="translate(25.154687 221.558469)rotate(-90)scale(0.1 -0.1)">
      <defs>
       <path id="DejaVuSans-77" d="M 269 3500 
L 844 3500 
L 1563 769 
L 2278 3500 
L 2956 3500 
L 3675 769 
L 4391 3500 
L 4966 3500 
L 4050 0 
L 3372 0 
L 2619 2869 
L 1863 0 
L 1184 0 
L 269 3500 
z
" transform="scale(0.015625)"/>
       <path id="DejaVuSans-6e" d="M 3513 2113 
L 3513 0 
L 2938 0 
L 2938 2094 
Q 2938 2591 2744 2837 
Q 2550 3084 2163 3084 
Q 1697 3084 1428 2787 
Q 1159 2491 1159 1978 
L 1159 0 
L 581 0 
L 581 3500 
L 1159 3500 
L 1159 2956 
Q 1366 3272 1645 3428 
Q 1925 3584 2291 3584 
Q 2894 3584 3203 3211 
Q 3513 2838 3513 2113 
z
" transform="scale(0.015625)"/>
       <path id="DejaVuSans-72" d="M 2631 2963 
Q 2534 3019 2420 3045 
Q 2306 3072 2169 3072 
Q 1681 3072 1420 2755 
Q 1159 2438 1159 1844 
L 1159 0 
L 581 0 
L 581 3500 
L 1159 3500 
L 1159 2956 
Q 1341 3275 1631 3429 
Q 1922 3584 2338 3584 
Q 2397 3584 2469 3576 
Q 2541 3569 2628 3553 
L 2631 2963 
z
" transform="scale(0.015625)"/>
       <path id="DejaVuSans-2f" d="M 1625 4666 
L 2156 4666 
L 531 -594 
L 0 -594 
L 1625 4666 
z
" transform="scale(0.015625)"/>
       <path id="DejaVuSans-74" d="M 1172 4494 
L 1172 3500 
L 2356 3500 
L 2356 3053 
L 1172 3053 
L 1172 1153 
Q 1172 725 1289 603 
Q 1406 481 1766 481 
L 2356 481 
L 2356 0 
L 1766 0 
Q 1100 0 847 248 
Q 594 497 594 1153 
L 594 3053 
L 172 3053 
L 172 3500 
L 594 3500 
L 594 4494 
L 1172 4494 
z
" transform="scale(0.015625)"/>
       <path id="DejaVuSans-68" d="M 3513 2113 
L 3513 0 
L 2938 0 
L 2938 2094 
Q 2938 2591 2744 2837 
Q 2550 3084 2163 3084 
Q 1697 3084 1428 2787 
Q 1159 2491 1159 1978 
L 1159 0 
L 581 0 
L 581 4863 
L 1159 4863 
L 1159 2956 
Q 1366 3272 1645 3428 
Q 1925 3584 2291 3584 
Q 2894 3584 3203 3211 
Q 3513 2838 3513 2113 
z
" transform="scale(0.015625)"/>
       <path id="DejaVuSans-5f" d="M 3263 -1063 
L 3263 -1509 
L -63 -1509 
L -63 -1063 
L 3263 -1063 
z
" transform="scale(0.015625)"/>
       <path id="DejaVuSans-61" d="M 2194 1759 
Q 1497 1759 1228 1600 
Q 959 1441 959 1056 
Q 959 750 1161 570 
Q 1363 391 1709 391 
Q 2188 391 2477 730 
Q 2766 1069 2766 1631 
L 2766 1759 
L 2194 1759 
z
M 3341 1997 
L 3341 0 
L 2766 0 
L 2766 531 
Q 2569 213 2275 61 
Q 1981 -91 1556 -91 
Q 1019 -91 701 211 
Q 384 513 384 1019 
Q 384 1609 779 1909 
Q 1175 2209 1959 2209 
L 2766 2209 
L 2766 2266 
Q 2766 2663 2505 2880 
Q 2244 3097 1772 3097 
Q 1472 3097 1187 3025 
Q 903 2953 641 2809 
L 641 3341 
Q 956 3463 1253 3523 
Q 1550 3584 1831 3584 
Q 2591 3584 2966 3190 
Q 3341 2797 3341 1997 
z
" transform="scale(0.015625)"/>
       <path id="DejaVuSans-79" d="M 2059 -325 
Q 1816 -950 1584 -1140 
Q 1353 -1331 966 -1331 
L 506 -1331 
L 506 -850 
L 844 -850 
Q 1081 -850 1212 -737 
Q 1344 -625 1503 -206 
L 1606 56 
L 191 3500 
L 800 3500 
L 1894 763 
L 2988 3500 
L 3597 3500 
L 2059 -325 
z
" transform="scale(0.015625)"/>
      </defs>
      <use xlink:href="#DejaVuSans-6f"/>
      <use xlink:href="#DejaVuSans-77" x="61.181641"/>
      <use xlink:href="#DejaVuSans-6e" x="142.96875"/>
      <use xlink:href="#DejaVuSans-65" x="206.347656"/>
      <use xlink:href="#DejaVuSans-72" x="267.871094"/>
      <use xlink:href="#DejaVuSans-2f" x="308.984375"/>
      <use xlink:href="#DejaVuSans-74" x="342.675781"/>
      <use xlink:href="#DejaVuSans-68" x="381.884766"/>
      <use xlink:href="#DejaVuSans-72" x="445.263672"/>
      <use xlink:href="#DejaVuSans-6f" x="484.126953"/>
      <use xlink:href="#DejaVuSans-77" x="545.308594"/>
      <use xlink:href="#DejaVuSans-5f" x="627.095703"/>
      <use xlink:href="#DejaVuSans-61" x="677.095703"/>
      <use xlink:href="#DejaVuSans-77" x="738.375"/>
      <use xlink:href="#DejaVuSans-61" x="820.162109"/>
      <use xlink:href="#DejaVuSans-79" x="881.441406"/>
     </g>
    </g>
   </g>
   <g id="line2d_29">
    <path d="M 73.832727 295.488 
L 74.322402 288.817578 
L 74.485627 289.733027 
L 74.812077 256.058855 
L 74.975302 258.803481 
L 75.301752 241.817582 
L 75.628202 231.450687 
L 75.954652 227.221253 
L 76.444327 200.601561 
L 76.934002 195.067254 
L 77.097227 188.511904 
L 77.260452 190.831568 
L 77.423677 189.479988 
L 77.750128 181.210682 
L 77.913353 180.373832 
L 78.239803 174.335322 
L 78.403028 173.913406 
L 78.892703 158.643471 
L 79.055928 163.412646 
L 79.219153 162.669052 
L 79.382378 164.029827 
L 79.872053 171.635453 
L 80.035278 170.245106 
L 80.198503 171.027003 
L 80.361728 169.607921 
L 80.524953 163.762198 
L 80.688178 162.955086 
L 81.014628 160.68747 
L 81.341078 164.387538 
L 81.504303 157.763416 
L 81.667528 160.398435 
L 81.830753 159.126625 
L 81.993978 155.795483 
L 82.157203 156.001376 
L 82.320428 154.073931 
L 82.483653 156.075272 
L 82.646878 156.491419 
L 82.810103 159.01335 
L 83.136553 155.067753 
L 83.299778 157.191095 
L 83.626228 154.954129 
L 84.115903 159.914304 
L 84.279128 159.887188 
L 84.442353 158.212758 
L 84.605578 159.620707 
L 84.768803 158.863976 
L 84.932028 157.450438 
L 85.095253 153.098762 
L 85.258478 153.193757 
L 85.584928 155.061388 
L 85.748153 155.152743 
L 86.074603 157.022565 
L 86.237828 154.934324 
L 86.401053 155.508436 
L 86.890728 160.79339 
L 87.053953 160.202389 
L 87.380403 161.857283 
L 87.543628 161.570135 
L 88.359753 167.531651 
L 88.522978 167.013116 
L 88.849428 161.620123 
L 89.012653 159.937817 
L 89.175878 154.967804 
L 89.339103 154.477532 
L 89.665553 150.670713 
L 89.828778 150.68994 
L 90.318453 145.662248 
L 90.481678 143.00901 
L 90.808128 144.575958 
L 90.971353 142.720615 
L 91.297803 147.729081 
L 91.461028 146.613952 
L 91.624253 149.296029 
L 91.787478 149.940112 
L 91.950703 150.045857 
L 92.113928 149.930499 
L 92.277153 150.87259 
L 92.603603 150.305413 
L 92.930053 156.054093 
L 93.093278 155.929122 
L 93.256503 157.07309 
L 93.419729 156.371328 
L 93.582954 158.620812 
L 93.746179 156.688563 
L 93.909404 157.409551 
L 94.072629 159.649422 
L 94.235854 159.351413 
L 94.399079 159.822459 
L 94.562304 161.773934 
L 94.725529 162.21614 
L 95.378429 170.348889 
L 95.541654 169.060723 
L 95.868104 171.041038 
L 96.031329 170.156626 
L 96.357779 169.589448 
L 96.684229 170.233531 
L 97.337129 176.876237 
L 97.500354 175.607298 
L 97.826804 175.780335 
L 97.990029 178.731581 
L 98.153254 177.289604 
L 98.316479 178.049045 
L 98.479704 181.019517 
L 98.642929 181.519402 
L 98.806154 182.817181 
L 99.132604 181.404044 
L 99.295829 180.827254 
L 99.459054 180.808027 
L 99.622279 183.384359 
L 99.785504 180.288916 
L 99.948729 180.750348 
L 100.275179 179.760191 
L 100.438404 180.221623 
L 100.601629 178.808486 
L 100.764854 179.923615 
L 100.928079 183.028671 
L 101.091304 181.923156 
L 101.417754 184.009216 
L 101.580979 185.537711 
L 101.744204 185.249316 
L 101.907429 184.009216 
L 102.070654 184.230319 
L 102.233879 185.230089 
L 102.560329 183.317067 
L 102.723554 184.999373 
L 102.886779 185.037826 
L 103.050004 182.08658 
L 103.213229 182.182712 
L 103.376454 180.836867 
L 103.702904 181.605921 
L 104.192579 179.827483 
L 104.519029 176.905077 
L 104.682254 176.780105 
L 104.845479 175.126639 
L 105.171929 178.558543 
L 105.335154 177.376123 
L 105.498379 177.510707 
L 105.661604 181.557855 
L 105.824829 180.317755 
L 105.988054 183.230548 
L 106.151279 183.528557 
L 106.314504 182.586465 
L 106.640954 185.451192 
L 106.804179 183.422812 
L 106.967404 185.537711 
L 107.130629 184.547554 
L 107.293854 182.538399 
L 107.457079 182.596078 
L 107.620304 180.894546 
L 107.946754 181.971222 
L 108.436429 177.626065 
L 108.599654 178.952684 
L 108.762879 179.193013 
L 108.926104 177.385736 
L 109.089329 180.010133 
L 109.252555 178.36628 
L 109.41578 177.866395 
L 109.579005 178.837326 
L 109.74223 177.529933 
L 109.905455 178.404733 
L 110.06868 178.433572 
L 110.231905 180.500405 
L 110.558355 178.12595 
L 110.72158 180.673443 
L 110.884805 179.904388 
L 111.04803 179.865936 
L 111.211255 179.567927 
L 111.37448 177.876008 
L 111.537705 178.164403 
L 111.70093 179.029589 
L 111.864155 176.434031 
L 112.02738 176.251381 
L 112.190605 176.385965 
L 112.35383 174.424877 
L 112.517055 173.915378 
L 112.68028 172.55992 
L 112.843505 173.050192 
L 113.00673 172.675278 
L 113.169955 172.636826 
L 113.33318 172.415723 
L 113.496405 172.934834 
L 113.65963 171.867771 
L 113.822855 172.915608 
L 113.98608 174.770951 
L 114.31253 174.213387 
L 114.63898 175.030507 
L 114.96543 175.780335 
L 115.128655 175.607298 
L 115.61833 174.165321 
L 115.781555 172.80025 
L 115.94478 174.953602 
L 116.108005 172.185006 
L 116.27123 174.453716 
L 116.434455 172.857929 
L 116.59768 175.203544 
L 116.760905 174.588301 
L 116.92413 173.127098 
L 117.087355 173.040579 
L 117.413805 170.348889 
L 117.57703 170.012428 
L 117.90348 168.512772 
L 118.066705 171.790866 
L 118.22993 170.74303 
L 118.393155 168.339735 
L 118.55638 169.060723 
L 118.719605 166.340194 
L 118.88283 166.561297 
L 119.046055 166.195996 
L 119.698955 161.149078 
L 119.86218 160.274278 
L 120.025405 161.03372 
L 120.18863 159.697488 
L 120.351855 160.341571 
L 120.51508 159.908978 
L 120.678305 158.447775 
L 120.84153 160.264665 
L 121.004755 160.024336 
L 121.331205 161.629737 
L 121.49443 160.139694 
L 121.657655 160.783777 
L 121.82088 160.091628 
L 122.14733 161.043333 
L 122.310555 160.995267 
L 122.47378 160.5819 
L 122.637005 160.5819 
L 122.80023 160.245439 
L 122.963455 160.956814 
L 123.12668 160.966427 
L 123.45313 163.023647 
L 123.77958 159.918591 
L 123.942805 160.485768 
L 124.269255 157.409551 
L 124.43248 157.630654 
L 124.595705 157.601815 
L 124.75893 155.342718 
L 124.922155 158.957273 
L 125.085381 158.168992 
L 125.248606 156.092546 
L 125.411831 157.140382 
L 125.575056 156.46746 
L 125.738281 157.553749 
L 125.901506 157.457617 
L 126.064731 158.197832 
L 126.391181 160.524221 
L 126.554406 160.062789 
L 126.717631 160.197373 
L 127.044081 163.206298 
L 127.207306 161.245209 
L 127.533756 161.600897 
L 127.696981 160.303118 
L 127.860206 160.620353 
L 128.023431 160.014723 
L 128.186656 159.918591 
L 128.349881 161.793161 
L 128.676331 159.361027 
L 128.839556 159.630196 
L 129.166006 161.091399 
L 129.329231 160.504995 
L 129.492456 162.398791 
L 129.818906 160.716485 
L 129.982131 160.331958 
L 130.145356 161.312502 
L 130.308581 158.986113 
L 130.471806 159.101471 
L 130.798256 157.669107 
L 130.961481 159.187989 
L 131.124706 157.746013 
L 131.287931 158.1017 
L 131.614381 155.092775 
L 131.777606 156.265583 
L 131.940831 155.929122 
L 132.104056 156.515526 
L 132.267281 158.092087 
L 132.430506 158.063247 
L 132.593731 158.226671 
L 132.756956 157.544136 
L 132.920181 160.639579 
L 133.409856 160.033949 
L 133.736306 163.167845 
L 133.899531 161.966198 
L 134.062756 162.24498 
L 134.225981 162.148848 
L 134.389206 164.225295 
L 134.552431 160.39925 
L 134.715656 161.341341 
L 134.878881 165.032802 
L 135.042106 162.917902 
L 135.205331 165.599979 
L 135.531781 166.022959 
L 136.184681 170.848775 
L 136.347906 169.733646 
L 136.511131 166.849692 
L 136.674356 166.705495 
L 136.837581 164.398332 
L 137.000806 165.176999 
L 137.490481 163.677344 
L 137.653706 161.629737 
L 137.816931 161.322115 
L 138.143381 159.428319 
L 138.469831 162.312272 
L 138.633056 160.351184 
L 138.796281 160.341571 
L 138.959506 158.803462 
L 139.285956 160.005109 
L 139.612406 158.55352 
L 139.775631 160.072402 
L 139.938856 159.255282 
L 140.102081 160.947201 
L 140.265306 160.812616 
L 140.428531 160.514608 
L 140.591756 164.225295 
L 140.754981 165.33081 
L 140.918206 164.75402 
L 141.081432 164.638661 
L 141.244657 168.128245 
L 141.407882 167.157314 
L 141.571107 167.493775 
L 141.734332 167.243833 
L 141.897557 166.051799 
L 142.060782 167.532228 
L 142.224007 167.532228 
L 142.550457 165.11932 
L 142.876907 160.947201 
L 143.040132 160.591513 
L 143.529807 153.314337 
L 143.856257 154.573664 
L 144.019482 153.410469 
L 144.182707 155.496529 
L 144.672382 154.016099 
L 144.835607 153.852675 
L 144.998832 154.669796 
L 145.162057 153.448922 
L 145.325282 153.458535 
L 145.488507 151.910813 
L 145.814957 147.459912 
L 145.978182 146.479368 
L 146.141407 147.133064 
L 146.304632 146.402462 
L 146.467857 146.883121 
L 146.794307 145.460371 
L 146.957532 145.171975 
L 147.120757 145.844898 
L 147.447207 141.807363 
L 147.610432 142.932105 
L 147.773657 141.393996 
L 147.936882 140.98063 
L 148.100107 142.19189 
L 148.426557 139.577106 
L 148.589782 139.173352 
L 148.753007 135.972164 
L 148.916232 135.674155 
L 149.079457 136.183654 
L 149.242682 136.135588 
L 149.569132 134.32831 
L 149.732357 134.097594 
L 149.895582 133.2997 
L 150.222032 129.627466 
L 150.385257 130.24271 
L 150.711707 130.281162 
L 150.874932 127.560633 
L 151.038157 128.839186 
L 151.201382 128.252782 
L 151.364607 125.205404 
L 151.527832 125.416894 
L 151.854282 118.360821 
L 152.017507 118.889546 
L 152.180732 118.889546 
L 152.507182 118.514632 
L 152.670407 117.02459 
L 153.160082 120.091193 
L 153.649757 122.234932 
L 153.812982 119.975835 
L 153.976207 119.552855 
L 154.139432 119.47595 
L 154.302657 118.735735 
L 154.465882 119.716279 
L 154.955557 115.323057 
L 155.118782 116.428573 
L 155.282007 116.236309 
L 155.445232 115.659518 
L 155.771682 111.689276 
L 156.098132 109.237915 
L 156.587807 102.518304 
L 156.751032 103.047028 
L 156.914258 102.056871 
L 157.403933 97.673262 
L 157.567158 98.375024 
L 157.893608 95.625655 
L 158.056833 94.125999 
L 158.220058 94.058707 
L 158.383283 95.27958 
L 158.872958 92.059166 
L 159.036183 91.107461 
L 159.199408 92.030326 
L 159.525858 89.617418 
L 159.689083 89.732777 
L 159.852308 88.771459 
L 160.015533 90.521057 
L 160.178758 90.309567 
L 160.341983 89.434768 
L 160.505208 89.31941 
L 160.668433 87.906273 
L 160.831658 87.944725 
L 161.158108 86.858436 
L 161.484558 85.253035 
L 161.647783 85.637563 
L 161.974233 85.224196 
L 162.137458 88.809911 
L 162.300683 88.406158 
L 162.627133 85.560657 
L 162.790358 85.281875 
L 162.953583 84.051388 
L 163.116808 83.705314 
L 163.280033 84.878122 
L 163.443258 83.522663 
L 163.606483 81.186661 
L 163.769708 80.82136 
L 163.932933 81.571188 
L 164.096158 80.706002 
L 164.259383 78.946791 
L 164.422608 79.244799 
L 164.585833 77.158739 
L 164.749058 77.860501 
L 164.912283 79.167894 
L 165.075508 78.639169 
L 165.238733 80.100372 
L 165.565183 77.168353 
L 165.728408 76.49543 
L 165.891633 75.274556 
L 166.218083 72.486735 
L 166.381308 70.967853 
L 166.707758 70.727523 
L 167.034208 68.391521 
L 167.360658 68.468426 
L 167.523883 69.44897 
L 167.687108 68.439587 
L 167.850333 68.804888 
L 168.013558 67.353298 
L 168.176783 69.804658 
L 168.340008 69.766205 
L 168.503233 67.708985 
L 168.666458 67.305232 
L 168.992908 65.449888 
L 169.156133 65.103814 
L 169.319358 65.296077 
L 169.482583 64.48857 
L 169.645808 64.315533 
L 169.809033 63.931006 
L 169.972258 62.738972 
L 170.135483 62.489029 
L 170.298708 63.411895 
L 170.461933 62.383284 
L 170.625158 62.738972 
L 170.951608 61.095119 
L 171.278058 64.257854 
L 171.767733 61.316222 
L 171.930958 61.479646 
L 172.094183 63.036981 
L 172.420633 61.85456 
L 172.747084 63.171565 
L 172.910309 64.54625 
L 173.073534 64.507797 
L 173.236759 64.09443 
L 173.399984 64.91155 
L 173.726434 65.257625 
L 174.052884 62.767812 
L 174.379334 60.210706 
L 174.705784 60.479875 
L 174.869009 61.335448 
L 175.032234 60.133801 
L 175.521909 59.787726 
L 175.685134 60.076122 
L 175.848359 60.854789 
L 176.011584 59.057125 
L 176.174809 60.095348 
L 176.338034 59.460878 
L 176.501259 61.143184 
L 176.664484 61.527712 
L 176.827709 62.383284 
L 176.990934 62.287153 
L 177.154159 62.681293 
L 177.480609 59.989603 
L 177.643834 60.220319 
L 177.970284 59.518557 
L 178.133509 60.095348 
L 178.296734 59.941537 
L 178.459959 59.624302 
L 178.623184 57.182555 
L 178.786409 57.307526 
L 178.949634 57.221008 
L 179.112859 58.047741 
L 179.276084 57.672827 
L 179.602534 58.240005 
L 179.765759 57.759346 
L 179.928984 58.038128 
L 180.092209 59.508944 
L 180.418659 58.278457 
L 180.581884 57.970836 
L 180.745109 60.354904 
L 180.908334 58.826408 
L 181.071559 59.681981 
L 181.561234 56.432727 
L 181.724459 56.173171 
L 181.887684 56.144332 
L 182.050909 56.730736 
L 182.214134 56.413501 
L 182.377359 56.519246 
L 182.540584 57.865091 
L 182.703809 58.278457 
L 182.867034 60.345291 
L 183.193484 59.316681 
L 183.356709 59.826179 
L 183.519934 59.893471 
L 183.683159 59.835792 
L 183.846384 59.566623 
L 184.009609 59.55701 
L 185.315409 67.362911 
L 185.478634 65.930547 
L 185.968309 65.12304 
L 186.131534 64.113657 
L 186.294759 64.421278 
L 186.457984 65.33453 
L 186.621209 65.036522 
L 186.784434 65.33453 
L 186.947659 66.641922 
L 187.110884 63.546479 
L 187.274109 63.431121 
L 187.437334 62.373671 
L 187.600559 62.738972 
L 187.763784 62.729359 
L 187.927009 61.075892 
L 188.090234 61.566164 
L 188.253459 61.40274 
L 188.57991 60.249159 
L 188.743135 58.249618 
L 189.069585 58.480334 
L 189.23281 59.028285 
L 189.396035 58.34575 
L 189.55926 58.163099 
L 189.722485 58.268844 
L 189.88571 57.490177 
L 190.21216 56.990291 
L 190.375385 57.269074 
L 190.53861 56.769188 
L 190.701835 59.624302 
L 191.19151 61.345061 
L 191.354735 60.40297 
L 191.51796 60.499102 
L 191.681185 59.95115 
L 191.84441 60.028056 
L 192.17086 59.451265 
L 192.334085 59.028285 
L 192.49731 60.652912 
L 192.660535 59.239775 
L 192.82376 59.422426 
L 193.15021 56.634604 
L 193.313435 53.568 
L 193.639885 53.587226 
L 193.966335 56.922999 
L 194.12956 56.394274 
L 194.292785 56.490406 
L 194.619235 56.144332 
L 194.78246 55.65406 
L 194.945685 55.932842 
L 195.43536 57.451724 
L 195.598585 56.394274 
L 195.76181 57.413271 
L 195.925035 57.240234 
L 196.251485 58.288071 
L 196.41471 57.595922 
L 196.577935 54.904232 
L 196.74116 56.903773 
L 196.904385 56.730736 
L 197.06761 57.605535 
L 197.39406 57.182555 
L 197.72051 58.595692 
L 197.883735 58.941767 
L 198.04696 60.58562 
L 198.210185 60.37413 
L 198.37341 60.40297 
L 198.536635 61.633457 
L 198.69986 61.806494 
L 199.02631 63.594545 
L 199.189535 63.142726 
L 199.35276 63.315763 
L 199.515985 64.988456 
L 199.842435 65.171106 
L 200.00566 65.15188 
L 200.168885 64.277081 
L 200.33211 65.094201 
L 200.495335 64.70006 
L 200.98501 64.54625 
L 201.31146 64.036751 
L 201.474685 64.036751 
L 201.63791 61.931465 
L 201.801135 61.912239 
L 202.29081 64.959616 
L 202.780485 66.536177 
L 202.94371 65.795963 
L 203.106935 66.651536 
L 203.27016 65.882481 
L 203.433385 66.065132 
L 203.59661 68.862567 
L 203.759835 69.170188 
L 203.92306 70.362222 
L 204.086285 69.362452 
L 204.24951 69.468197 
L 204.575961 71.275474 
L 204.902411 73.073139 
L 205.065636 72.77513 
L 205.228861 75.322622 
L 205.555311 73.755674 
L 205.881761 73.438439 
L 206.208211 75.351462 
L 206.371436 75.197651 
L 206.534661 74.726605 
L 206.697886 74.611247 
L 206.861111 74.995774 
L 207.514011 72.342537 
L 207.677236 70.256477 
L 208.003686 70.890947 
L 208.330136 70.53526 
L 208.656586 71.217795 
L 209.146261 73.746061 
L 209.472711 75.015001 
L 209.962386 78.379613 
L 210.288836 77.399069 
L 210.452061 76.014771 
L 210.941736 77.860501 
L 211.104961 76.053224 
L 211.268186 76.658854 
L 211.431411 76.716533 
L 211.594636 77.197192 
L 212.084311 76.67808 
L 212.247536 75.188038 
L 212.410761 75.130359 
L 212.573986 74.072909 
L 212.737211 73.928712 
L 212.900436 74.322852 
L 213.063661 76.803052 
L 213.226886 77.360616 
L 213.553336 75.909026 
L 213.716561 75.793668 
L 214.369461 77.514427 
L 214.532686 77.716304 
L 214.859136 78.956404 
L 215.022361 78.216189 
L 215.185586 78.658395 
L 215.348811 78.668008 
L 215.512036 77.716304 
L 215.675261 77.822049 
L 215.838486 77.697077 
L 216.164936 76.581949 
L 216.328161 76.553109 
L 216.817836 78.254642 
L 217.144286 78.456518 
L 217.307511 79.110215 
L 217.633961 76.822278 
L 218.123636 79.600487 
L 218.286861 78.543037 
L 218.450086 79.408223 
L 218.776536 77.302937 
L 218.939761 77.543267 
L 219.266211 76.303167 
L 219.592661 75.168812 
L 219.755886 76.49543 
L 219.919111 76.31278 
L 220.082336 76.822278 
L 220.245561 76.620401 
L 220.572012 77.879728 
L 220.735237 77.716304 
L 220.898462 77.850888 
L 221.224912 74.495889 
L 221.388137 74.890029 
L 221.877812 77.302937 
L 222.041037 77.55288 
L 222.204262 76.658854 
L 222.367487 77.293324 
L 222.530712 77.091447 
L 223.346837 73.448053 
L 223.673287 75.697536 
L 224.162962 78.523811 
L 224.489412 76.601175 
L 224.652637 77.235645 
L 224.815862 77.293324 
L 224.979087 78.081605 
L 225.142312 78.071991 
L 225.305537 78.206576 
L 225.468762 76.014771 
L 225.631987 76.351232 
L 225.795212 75.457207 
L 225.958437 75.322622 
L 226.448112 71.217795 
L 226.774562 72.1695 
L 226.937787 73.505732 
L 227.101012 73.649929 
L 227.264237 73.976777 
L 227.427462 72.967394 
L 227.590687 74.22672 
L 227.753912 72.919328 
L 227.917137 73.707608 
L 228.080362 71.77536 
L 228.406812 71.11205 
L 228.570037 69.602781 
L 228.896487 70.131506 
L 229.222937 71.073598 
L 229.386162 70.852494 
L 229.712612 69.804658 
L 229.875837 70.419901 
L 230.039062 70.53526 
L 230.202287 70.227638 
L 230.365512 70.314156 
L 230.528737 69.6893 
L 230.691962 69.737366 
L 230.855187 69.564329 
L 231.018412 65.392209 
L 231.344862 64.998069 
L 231.671312 66.209329 
L 231.834537 66.045905 
L 231.997762 65.603699 
L 232.160987 65.526794 
L 232.324212 64.536636 
L 232.650662 65.074974 
L 232.813887 64.863484 
L 232.977112 64.469344 
L 233.140337 64.815419 
L 233.303562 64.642381 
L 233.466787 63.556092 
L 233.630012 64.180949 
L 233.793237 63.325376 
L 234.119687 66.045905 
L 234.282912 65.78635 
L 234.446137 65.190332 
L 234.609362 63.738743 
L 234.772587 65.257625 
L 234.935812 64.54625 
L 235.099037 66.776507 
L 235.425487 64.33476 
L 235.915162 68.295389 
L 236.078387 68.727982 
L 236.241613 68.824114 
L 236.404838 68.074286 
L 236.568063 65.978613 
L 236.731288 66.026679 
L 236.894513 65.622926 
L 237.057738 66.305461 
L 237.384188 65.988226 
L 237.547413 67.593627 
L 237.710638 67.660919 
L 238.037088 68.103125 
L 238.200313 69.102896 
L 238.363538 68.622237 
L 238.526763 68.795274 
L 238.689988 68.401134 
L 239.342888 68.651077 
L 239.506113 70.583325 
L 239.669338 71.083211 
L 239.832563 70.429515 
L 239.995788 70.765976 
L 240.159013 69.199028 
L 240.322238 69.05483 
L 240.485463 67.103355 
L 240.648688 67.584014 
L 240.811913 67.680146 
L 241.138363 70.227638 
L 241.301588 70.765976 
L 241.628038 68.074286 
L 241.791263 67.064902 
L 241.954488 69.650847 
L 242.117713 69.977695 
L 242.280938 70.68907 
L 242.444163 70.785202 
L 242.770613 74.19788 
L 242.933838 76.332006 
L 243.097063 76.399298 
L 243.423513 75.207264 
L 243.749963 74.765058 
L 243.913188 75.322622 
L 244.076413 77.600946 
L 244.239638 78.100831 
L 244.402863 77.168353 
L 244.566088 78.908338 
L 244.729313 77.610559 
L 245.055763 79.629326 
L 245.218988 80.802134 
L 245.382213 80.273409 
L 245.545438 80.196504 
L 245.708663 79.927335 
L 246.035113 80.975171 
L 246.198338 80.061919 
L 246.361563 79.879269 
L 246.524788 80.63871 
L 246.688013 80.782908 
L 246.851238 80.436833 
L 247.014463 80.8502 
L 247.177688 80.82136 
L 247.340913 81.128982 
L 247.504138 84.54166 
L 247.667363 84.820442 
L 247.830588 84.705084 
L 248.320263 82.715156 
L 248.809938 84.676245 
L 248.973163 83.897577 
L 249.136388 83.955256 
L 249.299613 83.551503 
L 249.626063 84.33017 
L 249.789288 84.234039 
L 249.952513 85.070385 
L 250.115738 84.349397 
L 250.278963 85.35878 
L 250.442188 84.897348 
L 250.768638 84.906961 
L 251.095088 86.118222 
L 251.584763 84.849282 
L 251.911213 87.454453 
L 252.074439 87.44484 
L 252.564114 85.474139 
L 252.727339 85.301101 
L 252.890564 85.522204 
L 253.053789 87.146832 
L 253.380239 87.829367 
L 253.543464 87.310256 
L 253.706689 87.416001 
L 253.869914 87.271803 
L 254.033139 86.858436 
L 254.196364 87.819754 
L 254.359589 87.65633 
L 254.522814 87.252577 
L 254.686039 86.252806 
L 254.849264 86.973794 
L 255.012489 86.281646 
L 255.338939 87.521746 
L 255.665389 88.319639 
L 255.828614 87.992791 
L 255.991839 87.185284 
L 256.318289 89.117533 
L 256.481514 87.002634 
L 256.644739 89.050241 
L 256.807964 88.088923 
L 256.971189 89.732777 
L 257.134414 89.050241 
L 257.297639 90.453765 
L 257.787314 89.655871 
L 257.950539 90.011559 
L 258.276989 92.520598 
L 258.440214 91.213206 
L 258.929889 91.655412 
L 259.093114 91.280498 
L 259.419564 88.252347 
L 259.746014 88.694553 
L 259.909239 88.50229 
L 260.235689 89.367476 
L 260.398914 88.733006 
L 260.562139 85.426073 
L 260.888589 87.367935 
L 261.051814 86.877663 
L 261.215039 87.166058 
L 261.378264 86.973794 
L 261.541489 88.531129 
L 261.704714 87.800528 
L 261.867939 88.185055 
L 262.194389 87.723622 
L 262.520839 88.694553 
L 262.684064 88.531129 
L 262.847289 90.367246 
L 263.173739 89.780842 
L 263.336964 90.819066 
L 263.500189 90.876745 
L 263.826639 90.53067 
L 264.153089 90.540284 
L 264.316314 91.866902 
L 264.642764 92.501372 
L 264.805989 93.395397 
L 264.969214 93.481916 
L 265.295664 92.885899 
L 265.458889 94.270197 
L 265.622114 94.174065 
L 265.785339 94.933506 
L 266.111789 93.308879 
L 266.438239 93.270426 
L 266.601464 93.789538 
L 266.764689 92.357174 
L 267.254364 94.318263 
L 267.417589 94.174065 
L 267.580814 94.722016 
L 267.744039 94.289423 
L 267.907265 94.895053 
L 268.07049 94.866214 
L 268.233715 95.173835 
L 268.39694 95.241128 
L 268.560165 94.971959 
L 268.72339 95.087317 
L 268.886615 95.721787 
L 269.37629 93.318492 
L 269.70274 93.722246 
L 269.865965 92.741701 
L 270.192415 93.635727 
L 270.35564 93.578048 
L 270.518865 94.510526 
L 270.845315 93.818377 
L 271.00854 94.029867 
L 271.171765 93.558821 
L 271.33499 92.664796 
L 271.498215 92.972418 
L 271.66144 93.779925 
L 271.98789 92.972418 
L 272.151115 93.760698 
L 272.477565 96.577359 
L 272.64079 96.884981 
L 272.804015 96.836915 
L 272.96724 97.692488 
L 273.130465 96.423549 
L 273.29369 97.567517 
L 273.456915 97.240669 
L 273.62014 98.221213 
L 273.783365 97.442545 
L 274.109815 97.855912 
L 274.27304 98.125081 
L 274.436265 97.317574 
L 274.762715 97.404093 
L 274.92594 98.451929 
L 275.089165 97.058018 
L 275.415615 97.413706 
L 275.57884 96.433162 
L 275.742065 98.105855 
L 275.90529 98.028949 
L 276.068515 98.259666 
L 276.23174 98.115468 
L 276.394965 98.836456 
L 276.55819 98.826843 
L 276.721415 98.557674 
L 276.88464 99.394021 
L 277.047865 102.124163 
L 277.21109 101.537759 
L 277.374315 101.460854 
L 277.53754 101.037874 
L 277.86399 101.960739 
L 278.027215 101.816542 
L 278.19044 101.874221 
L 278.353665 100.336112 
L 278.51689 100.249594 
L 278.84334 101.364722 
L 279.006565 101.470467 
L 279.333015 102.768246 
L 279.49624 102.470238 
L 279.659465 102.96051 
L 279.82269 102.883604 
L 279.985915 102.479851 
L 280.14914 102.595209 
L 280.312365 102.556756 
L 280.47559 103.239292 
L 280.638815 103.066255 
L 280.80204 101.287817 
L 280.965265 100.826384 
L 281.12849 101.08594 
L 281.291715 100.134235 
L 281.45494 100.326499 
L 281.618165 100.960969 
L 281.78139 100.643734 
L 281.944615 100.066943 
L 282.10784 100.605281 
L 282.271065 99.922745 
L 282.43429 100.980195 
L 282.597515 101.249364 
L 282.76074 101.182072 
L 282.923965 102.018418 
L 283.08719 102.066484 
L 283.250415 103.075868 
L 283.576865 101.441628 
L 283.74009 101.018648 
L 283.903316 100.047717 
L 284.066541 100.403404 
L 284.229766 100.153462 
L 284.556216 98.874909 
L 284.719441 98.509608 
L 284.882666 98.490382 
L 285.209116 97.855912 
L 285.372341 96.269738 
L 285.698791 97.913591 
L 285.862016 96.356256 
L 286.025241 96.317804 
L 286.188466 96.673491 
L 286.351691 97.846299 
L 286.514916 97.894365 
L 286.678141 97.125311 
L 286.841366 97.317574 
L 287.004591 96.000569 
L 287.494266 95.846758 
L 287.657491 96.096701 
L 287.983941 98.673032 
L 288.147166 97.807846 
L 288.310391 97.884752 
L 288.473616 97.384866 
L 288.636841 97.519451 
L 289.126516 92.770541 
L 289.289741 91.443922 
L 289.452966 92.443693 
L 289.616191 92.462919 
L 289.779416 92.0111 
L 289.942641 92.472532 
L 290.269091 91.318951 
L 290.595541 86.800757 
L 290.758766 86.397004 
L 290.921991 88.531129 
L 291.411666 87.406387 
L 291.574891 88.646487 
L 291.738116 88.992562 
L 291.901341 87.002634 
L 292.064566 87.377548 
L 292.227791 86.59888 
L 292.391016 87.723622 
L 292.717466 87.944725 
L 292.880691 87.127605 
L 293.043916 87.012247 
L 293.370366 88.511903 
L 293.696816 88.040857 
L 294.023266 89.732777 
L 294.186491 89.482834 
L 294.512941 87.83898 
L 294.676166 88.127376 
L 294.839391 90.126917 
L 295.165841 88.185055 
L 295.655516 87.589038 
L 295.818741 84.772377 
L 295.981966 84.618566 
L 296.145191 83.72454 
L 296.798091 85.310715 
L 297.124541 84.368623 
L 297.287766 85.224196 
L 297.450991 85.243422 
L 297.614216 84.11868 
L 297.940666 83.570729 
L 298.103891 82.87858 
L 298.267116 83.070844 
L 298.430341 82.657477 
L 298.593566 81.763452 
L 298.756791 82.099913 
L 298.920016 80.792521 
L 299.083241 80.782908 
L 299.246466 80.648323 
L 299.736142 79.773524 
L 300.062592 80.888653 
L 300.225817 81.205887 
L 300.389042 82.138366 
L 300.552267 81.888423 
L 300.715492 82.369082 
L 300.878717 83.762993 
L 301.041942 84.11868 
L 301.205167 84.022549 
L 301.368392 82.849741 
L 301.694842 84.435915 
L 302.021292 86.185514 
L 302.184517 85.618336 
L 302.510967 86.291259 
L 302.674192 85.128064 
L 302.837417 85.243422 
L 303.000642 85.070385 
L 303.490317 87.68517 
L 303.653542 87.598651 
L 303.816767 86.666173 
L 304.143217 86.685399 
L 304.306442 84.820442 
L 304.632892 84.618566 
L 304.959342 86.320098 
L 305.122567 86.358551 
L 305.449017 88.809911 
L 305.612242 88.819525 
L 305.775467 90.857518 
L 305.938692 87.819754 
L 306.101917 88.26196 
L 306.591592 90.453765 
L 306.754817 90.242275 
L 307.081267 93.318492 
L 307.244492 93.952962 
L 307.897392 92.79938 
L 308.223842 92.510985 
L 308.387067 94.010641 
L 308.550292 93.85683 
L 308.713517 94.558592 
L 309.203192 93.203134 
L 309.366417 93.67418 
L 310.019317 88.829138 
L 310.182542 88.71378 
L 310.345767 87.723622 
L 310.508992 88.242734 
L 310.835442 90.059625 
L 310.998667 90.194209 
L 311.161892 89.973106 
L 311.325117 89.232891 
L 311.488342 89.857748 
L 311.814792 88.915656 
L 311.978017 88.857977 
L 312.141242 87.742849 
L 312.467692 89.569353 
L 312.630917 90.280728 
L 312.794142 89.204052 
L 312.957367 89.415542 
L 313.120592 88.50229 
L 313.283817 85.714468 
L 313.447042 85.320328 
L 313.610267 85.483752 
L 313.773492 84.705084 
L 313.936717 85.262649 
L 314.099942 84.387849 
L 314.263167 85.099225 
L 314.426392 84.435915 
L 314.589617 84.676245 
L 314.916067 86.089382 
L 315.079292 86.23358 
L 315.242517 85.964411 
L 315.405742 86.752691 
L 316.058643 85.031932 
L 316.385093 86.262419 
L 316.711543 86.060542 
L 317.037993 87.271803 
L 317.201218 87.646717 
L 317.364443 85.800987 
L 317.527668 85.954797 
L 317.854118 87.742849 
L 318.017343 85.656789 
L 318.180568 85.752921 
L 318.343793 86.050929 
L 318.507018 85.031932 
L 318.670243 84.945414 
L 318.833468 85.858666 
L 318.996693 84.224425 
L 319.159918 84.772377 
L 319.323143 84.522434 
L 319.649593 82.868967 
L 319.812818 82.820901 
L 319.976043 82.917033 
L 320.139268 83.618795 
L 320.302493 84.820442 
L 320.465718 85.070385 
L 320.628943 85.079998 
L 320.792168 85.839439 
L 320.955393 84.983866 
L 321.118618 85.166517 
L 321.281843 84.080228 
L 321.771518 84.262878 
L 322.097968 86.002863 
L 322.261193 85.512591 
L 322.424418 87.858207 
L 322.587643 86.829597 
L 322.750868 86.877663 
L 323.077318 85.368394 
L 323.240543 85.964411 
L 323.403768 87.291029 
L 323.566993 87.339095 
L 323.730218 86.781531 
L 323.893443 85.724081 
L 324.056668 86.262419 
L 324.219893 85.349167 
L 324.383118 85.397233 
L 324.546343 84.608953 
L 325.036018 86.41623 
L 325.199243 85.060772 
L 325.362468 85.079998 
L 325.525693 84.17636 
L 325.688918 85.551044 
L 325.852143 84.522434 
L 326.015368 84.599339 
L 326.178593 83.3304 
L 326.341818 85.329941 
L 326.505043 85.051159 
L 326.668268 85.945184 
L 326.831493 85.579884 
L 326.994718 84.580113 
L 327.321168 85.627949 
L 327.484393 85.147291 
L 327.647618 83.638022 
L 327.810843 83.484211 
L 327.974068 84.012935 
L 328.137293 85.079998 
L 328.300518 85.253035 
L 328.463743 84.608953 
L 328.790193 86.329711 
L 328.953418 85.820213 
L 329.116643 85.762534 
L 329.279868 83.570729 
L 329.443093 83.311173 
L 329.769543 87.906273 
L 329.932768 87.521746 
L 330.095993 87.598651 
L 330.259218 88.26196 
L 330.422443 87.464066 
L 330.585668 88.463837 
L 330.748893 87.550585 
L 330.912118 87.896659 
L 331.401794 84.397463 
L 331.565019 83.791832 
L 331.891469 85.089611 
L 332.707594 87.752462 
L 332.870819 87.733235 
L 333.034044 87.242963 
L 333.197269 87.781301 
L 333.360494 85.551044 
L 333.523719 85.829826 
L 333.686944 85.551044 
L 334.013394 86.118222 
L 334.339844 84.128294 
L 334.503069 84.214812 
L 334.829519 84.733924 
L 334.992744 84.35901 
L 335.319194 86.550815 
L 335.645644 87.65633 
L 335.808869 88.012018 
L 336.135319 90.55951 
L 336.298544 90.174983 
L 336.461769 90.078851 
L 336.624994 90.665255 
L 336.788219 88.848364 
L 336.951444 89.07908 
L 337.114669 89.040628 
L 337.277894 88.790685 
L 337.604344 90.53067 
L 338.746919 87.435227 
L 339.073369 89.867361 
L 339.236594 85.483752 
L 339.399819 85.829826 
L 339.563044 86.714239 
L 339.726269 86.973794 
L 339.889494 86.819984 
L 340.215944 84.772377 
L 340.379169 84.657018 
L 340.542394 85.243422 
L 340.705619 86.41623 
L 340.868844 86.060542 
L 341.032069 86.579654 
L 341.195294 86.44507 
L 341.358519 85.849053 
L 341.521744 85.983637 
L 341.684969 87.358322 
L 341.848194 87.069926 
L 342.011419 87.339095 
L 342.174644 85.954797 
L 342.664319 91.242046 
L 342.827544 90.98249 
L 342.990769 88.915656 
L 343.153994 89.232891 
L 343.317219 87.887046 
L 343.480444 87.608264 
L 343.643669 83.762993 
L 343.806894 83.54189 
L 344.133344 87.800528 
L 344.296569 87.47368 
L 344.786244 85.262649 
L 344.949469 85.676015 
L 345.275919 84.695471 
L 345.439144 84.637792 
L 345.602369 83.743766 
L 345.765594 86.733465 
L 345.928819 87.02186 
L 346.092044 86.589267 
L 346.255269 85.329941 
L 346.581719 87.454453 
L 346.744944 86.483522 
L 346.908169 86.993021 
L 347.071394 87.983178 
L 347.234619 86.608494 
L 347.56107 88.310026 
L 347.88752 90.309567 
L 348.050745 91.001716 
L 348.21397 91.020942 
L 348.377195 90.895971 
L 348.54042 89.944266 
L 348.703645 88.07931 
L 348.86687 89.088694 
L 349.030095 89.040628 
L 349.19332 88.857977 
L 349.356545 88.963722 
L 349.51977 88.733006 
L 349.682995 89.127146 
L 349.84622 91.34779 
L 350.009445 91.107461 
L 350.17267 88.963722 
L 350.335895 89.74239 
L 350.49912 88.252347 
L 350.662345 88.213894 
L 350.988795 89.29057 
L 351.47847 89.675097 
L 351.641695 88.877204 
L 351.80492 89.031015 
L 351.968145 89.338636 
L 352.13137 89.155986 
L 352.45782 87.790915 
L 352.78427 82.080687 
L 353.11072 79.571647 
L 353.273945 80.619484 
L 353.43717 79.696618 
L 353.600395 79.994627 
L 353.76362 79.15828 
L 353.926845 79.177507 
L 354.09007 78.033539 
L 354.253295 79.119828 
L 354.41652 79.360157 
L 354.579745 79.052536 
L 354.74297 79.667779 
L 355.232645 78.735301 
L 355.559095 78.196963 
L 355.72232 81.917263 
L 355.885545 82.638251 
L 356.04877 82.676704 
L 356.37522 81.63848 
L 356.538445 83.224655 
L 356.70167 83.561116 
L 356.864895 84.637792 
L 357.35457 78.100831 
L 357.517795 78.023925 
L 357.68102 77.543267 
L 357.844245 77.495201 
L 358.00747 76.851118 
L 358.33392 78.350773 
L 358.497145 78.100831 
L 358.66037 79.254412 
L 358.823595 78.071991 
L 358.98682 75.49566 
L 359.150045 74.947708 
L 359.31327 73.534571 
L 359.476495 73.861419 
L 359.63972 71.794586 
L 360.29262 77.754756 
L 360.61907 75.553339 
L 360.94552 76.07245 
L 361.108745 77.543267 
L 361.27197 77.55288 
L 361.59842 78.956404 
L 361.761645 78.475745 
L 361.92487 77.264484 
L 362.088095 78.139284 
L 362.414545 76.158969 
L 362.57777 75.735989 
L 362.740995 76.745373 
L 363.067445 75.601405 
L 363.230671 77.293324 
L 363.393896 77.572106 
L 363.557121 77.283711 
L 363.720346 80.571418 
L 364.210021 79.244799 
L 364.373246 80.052306 
L 364.699696 77.97586 
L 364.862921 78.100831 
L 365.026146 75.543725 
L 365.189371 76.274327 
L 365.352596 75.293783 
L 365.515821 75.159198 
L 365.679046 74.40937 
L 365.842271 74.370918 
L 366.005496 75.639857 
L 366.168721 75.43798 
L 366.495171 73.553798 
L 366.658396 75.399528 
L 366.821621 75.341849 
L 367.148071 76.139743 
L 367.311296 75.245717 
L 367.474521 75.582178 
L 367.800971 74.313239 
L 368.127421 75.659084 
L 368.453871 75.063067 
L 368.780321 75.534112 
L 368.943546 75.101519 
L 369.269996 81.196274 
L 369.596446 81.811518 
L 369.922896 84.551273 
L 370.086121 83.080457 
L 370.249346 84.916574 
L 370.412571 84.849282 
L 370.575796 85.762534 
L 370.739021 85.839439 
L 371.065471 86.483522 
L 371.228696 86.329711 
L 371.391921 85.214583 
L 371.555146 85.551044 
L 371.718371 85.627949 
L 372.208046 84.089841 
L 372.371271 82.234498 
L 372.534496 82.176818 
L 372.697721 82.686317 
L 372.860946 81.724999 
L 373.024171 78.629556 
L 373.187396 79.225573 
L 373.350621 78.860272 
L 373.513846 79.994627 
L 373.677071 83.666861 
L 374.003521 84.35901 
L 374.329971 83.907191 
L 374.493196 84.743537 
L 374.656421 83.551503 
L 374.819646 83.830285 
L 374.982871 84.503208 
L 375.146096 83.676474 
L 376.125446 89.771229 
L 376.451896 89.617418 
L 376.615121 89.405928 
L 376.778346 88.886817 
L 376.941571 89.694324 
L 377.104796 88.86759 
L 377.431246 91.261272 
L 377.594471 91.059395 
L 377.757696 91.16514 
L 378.084146 90.31918 
L 378.247371 91.357404 
L 378.410596 93.529982 
L 378.573821 94.212518 
L 378.737046 96.202445 
L 378.900271 96.471614 
L 379.063497 95.933276 
L 379.226722 95.923663 
L 379.389947 96.039021 
L 379.716397 94.222131 
L 379.879622 94.097159 
L 380.042847 94.289423 
L 380.206072 92.885899 
L 380.532522 94.693177 
L 380.695747 95.058477 
L 380.858972 94.395168 
L 381.185422 97.221442 
L 381.348647 98.278892 
L 381.511872 101.258977 
L 381.838322 102.470238 
L 382.001547 101.739636 
L 382.164772 102.595209 
L 382.327997 102.499077 
L 382.654447 100.441857 
L 382.817672 98.451929 
L 383.307347 102.35488 
L 384.123472 104.315968 
L 384.286697 102.941283 
L 384.449922 104.037186 
L 384.613147 103.912214 
L 384.776372 103.614206 
L 385.102822 98.740325 
L 385.266047 98.980654 
L 385.592497 96.596586 
L 386.082172 95.558363 
L 386.245397 95.443004 
L 386.408622 95.164222 
L 386.571847 96.673491 
L 386.898297 95.289194 
L 387.061522 93.030097 
L 387.224747 93.135842 
L 387.387972 93.654953 
L 387.551197 93.558821 
L 387.714422 93.241587 
L 388.040872 95.12577 
L 388.530547 97.769394 
L 388.693772 98.451929 
L 388.856997 99.643963 
L 389.020222 99.941972 
L 389.183447 99.672803 
L 389.509897 102.893218 
L 389.999572 103.191226 
L 390.162797 103.710338 
L 390.326022 102.604822 
L 390.489247 102.739407 
L 390.978922 104.094865 
L 391.305372 103.671885 
L 391.631822 103.412329 
L 391.795047 101.345496 
L 391.958272 100.922516 
L 392.121497 99.192144 
L 392.447947 101.182072 
L 392.611172 100.586055 
L 392.774397 98.942201 
L 392.937622 98.644193 
L 393.100847 98.913362 
L 393.264072 99.624737 
L 393.427297 99.307502 
L 393.590522 100.115009 
L 393.753747 98.990267 
L 394.080197 99.432473 
L 394.243422 99.182531 
L 394.406647 98.2116 
L 394.569872 98.692259 
L 394.733097 97.827073 
L 394.896323 95.010411 
L 395.385998 93.587661 
L 395.549223 94.4913 
L 395.712448 93.962575 
L 395.875673 94.520139 
L 396.038898 96.635039 
L 396.202123 96.94266 
L 396.365348 97.875139 
L 396.528573 96.961887 
L 396.691798 97.942431 
L 397.018248 89.71355 
L 397.181473 90.030785 
L 397.344698 90.684481 
L 397.507923 92.40524 
L 397.671148 91.693865 
L 397.834373 90.194209 
L 397.997598 91.213206 
L 398.160823 91.107461 
L 398.324048 90.665255 
L 398.487273 89.636645 
L 398.487273 89.636645 
" clip-path="url(#p6ac9581dc6)" style="fill: none; stroke: #1f77b4; stroke-width: 1.5; stroke-linecap: square"/>
   </g>
   <g id="patch_3">
    <path d="M 57.6 307.584 
L 57.6 41.472 
" style="fill: none; stroke: #000000; stroke-width: 0.8; stroke-linejoin: miter; stroke-linecap: square"/>
   </g>
   <g id="patch_4">
    <path d="M 414.72 307.584 
L 414.72 41.472 
" style="fill: none; stroke: #000000; stroke-width: 0.8; stroke-linejoin: miter; stroke-linecap: square"/>
   </g>
   <g id="patch_5">
    <path d="M 57.6 307.584 
L 414.72 307.584 
" style="fill: none; stroke: #000000; stroke-width: 0.8; stroke-linejoin: miter; stroke-linecap: square"/>
   </g>
   <g id="patch_6">
    <path d="M 57.6 41.472 
L 414.72 41.472 
" style="fill: none; stroke: #000000; stroke-width: 0.8; stroke-linejoin: miter; stroke-linecap: square"/>
   </g>
   <g id="text_17">
    <!-- Rolling average training progress of owner/throw_away -->
    <g transform="translate(70.519688 35.472)scale(0.12 -0.12)">
     <defs>
      <path id="DejaVuSans-52" d="M 2841 2188 
Q 3044 2119 3236 1894 
Q 3428 1669 3622 1275 
L 4263 0 
L 3584 0 
L 2988 1197 
Q 2756 1666 2539 1819 
Q 2322 1972 1947 1972 
L 1259 1972 
L 1259 0 
L 628 0 
L 628 4666 
L 2053 4666 
Q 2853 4666 3247 4331 
Q 3641 3997 3641 3322 
Q 3641 2881 3436 2590 
Q 3231 2300 2841 2188 
z
M 1259 4147 
L 1259 2491 
L 2053 2491 
Q 2509 2491 2742 2702 
Q 2975 2913 2975 3322 
Q 2975 3731 2742 3939 
Q 2509 4147 2053 4147 
L 1259 4147 
z
" transform="scale(0.015625)"/>
      <path id="DejaVuSans-6c" d="M 603 4863 
L 1178 4863 
L 1178 0 
L 603 0 
L 603 4863 
z
" transform="scale(0.015625)"/>
      <path id="DejaVuSans-67" d="M 2906 1791 
Q 2906 2416 2648 2759 
Q 2391 3103 1925 3103 
Q 1463 3103 1205 2759 
Q 947 2416 947 1791 
Q 947 1169 1205 825 
Q 1463 481 1925 481 
Q 2391 481 2648 825 
Q 2906 1169 2906 1791 
z
M 3481 434 
Q 3481 -459 3084 -895 
Q 2688 -1331 1869 -1331 
Q 1566 -1331 1297 -1286 
Q 1028 -1241 775 -1147 
L 775 -588 
Q 1028 -725 1275 -790 
Q 1522 -856 1778 -856 
Q 2344 -856 2625 -561 
Q 2906 -266 2906 331 
L 2906 616 
Q 2728 306 2450 153 
Q 2172 0 1784 0 
Q 1141 0 747 490 
Q 353 981 353 1791 
Q 353 2603 747 3093 
Q 1141 3584 1784 3584 
Q 2172 3584 2450 3431 
Q 2728 3278 2906 2969 
L 2906 3500 
L 3481 3500 
L 3481 434 
z
" transform="scale(0.015625)"/>
      <path id="DejaVuSans-20" transform="scale(0.015625)"/>
      <path id="DejaVuSans-76" d="M 191 3500 
L 800 3500 
L 1894 563 
L 2988 3500 
L 3597 3500 
L 2284 0 
L 1503 0 
L 191 3500 
z
" transform="scale(0.015625)"/>
      <path id="DejaVuSans-66" d="M 2375 4863 
L 2375 4384 
L 1825 4384 
Q 1516 4384 1395 4259 
Q 1275 4134 1275 3809 
L 1275 3500 
L 2222 3500 
L 2222 3053 
L 1275 3053 
L 1275 0 
L 697 0 
L 697 3053 
L 147 3053 
L 147 3500 
L 697 3500 
L 697 3744 
Q 697 4328 969 4595 
Q 1241 4863 1831 4863 
L 2375 4863 
z
" transform="scale(0.015625)"/>
     </defs>
     <use xlink:href="#DejaVuSans-52"/>
     <use xlink:href="#DejaVuSans-6f" x="64.982422"/>
     <use xlink:href="#DejaVuSans-6c" x="126.164062"/>
     <use xlink:href="#DejaVuSans-6c" x="153.947266"/>
     <use xlink:href="#DejaVuSans-69" x="181.730469"/>
     <use xlink:href="#DejaVuSans-6e" x="209.513672"/>
     <use xlink:href="#DejaVuSans-67" x="272.892578"/>
     <use xlink:href="#DejaVuSans-20" x="336.369141"/>
     <use xlink:href="#DejaVuSans-61" x="368.15625"/>
     <use xlink:href="#DejaVuSans-76" x="429.435547"/>
     <use xlink:href="#DejaVuSans-65" x="488.615234"/>
     <use xlink:href="#DejaVuSans-72" x="550.138672"/>
     <use xlink:href="#DejaVuSans-61" x="591.251953"/>
     <use xlink:href="#DejaVuSans-67" x="652.53125"/>
     <use xlink:href="#DejaVuSans-65" x="716.007812"/>
     <use xlink:href="#DejaVuSans-20" x="777.53125"/>
     <use xlink:href="#DejaVuSans-74" x="809.318359"/>
     <use xlink:href="#DejaVuSans-72" x="848.527344"/>
     <use xlink:href="#DejaVuSans-61" x="889.640625"/>
     <use xlink:href="#DejaVuSans-69" x="950.919922"/>
     <use xlink:href="#DejaVuSans-6e" x="978.703125"/>
     <use xlink:href="#DejaVuSans-69" x="1042.082031"/>
     <use xlink:href="#DejaVuSans-6e" x="1069.865234"/>
     <use xlink:href="#DejaVuSans-67" x="1133.244141"/>
     <use xlink:href="#DejaVuSans-20" x="1196.720703"/>
     <use xlink:href="#DejaVuSans-70" x="1228.507812"/>
     <use xlink:href="#DejaVuSans-72" x="1291.984375"/>
     <use xlink:href="#DejaVuSans-6f" x="1330.847656"/>
     <use xlink:href="#DejaVuSans-67" x="1392.029297"/>
     <use xlink:href="#DejaVuSans-72" x="1455.505859"/>
     <use xlink:href="#DejaVuSans-65" x="1494.369141"/>
     <use xlink:href="#DejaVuSans-73" x="1555.892578"/>
     <use xlink:href="#DejaVuSans-73" x="1607.992188"/>
     <use xlink:href="#DejaVuSans-20" x="1660.091797"/>
     <use xlink:href="#DejaVuSans-6f" x="1691.878906"/>
     <use xlink:href="#DejaVuSans-66" x="1753.060547"/>
     <use xlink:href="#DejaVuSans-20" x="1788.265625"/>
     <use xlink:href="#DejaVuSans-6f" x="1820.052734"/>
     <use xlink:href="#DejaVuSans-77" x="1881.234375"/>
     <use xlink:href="#DejaVuSans-6e" x="1963.021484"/>
     <use xlink:href="#DejaVuSans-65" x="2026.400391"/>
     <use xlink:href="#DejaVuSans-72" x="2087.923828"/>
     <use xlink:href="#DejaVuSans-2f" x="2129.037109"/>
     <use xlink:href="#DejaVuSans-74" x="2162.728516"/>
     <use xlink:href="#DejaVuSans-68" x="2201.9375"/>
     <use xlink:href="#DejaVuSans-72" x="2265.316406"/>
     <use xlink:href="#DejaVuSans-6f" x="2304.179688"/>
     <use xlink:href="#DejaVuSans-77" x="2365.361328"/>
     <use xlink:href="#DejaVuSans-5f" x="2447.148438"/>
     <use xlink:href="#DejaVuSans-61" x="2497.148438"/>
     <use xlink:href="#DejaVuSans-77" x="2558.427734"/>
     <use xlink:href="#DejaVuSans-61" x="2640.214844"/>
     <use xlink:href="#DejaVuSans-79" x="2701.494141"/>
    </g>
   </g>
  </g>
 </g>
 <defs>
  <clipPath id="p6ac9581dc6">
   <rect x="57.6" y="41.472" width="357.12" height="266.112"/>
  </clipPath>
 </defs>
</svg>
