<?xml version="1.0" encoding="utf-8" standalone="no"?>
<!DOCTYPE svg PUBLIC "-//W3C//DTD SVG 1.1//EN"
  "http://www.w3.org/Graphics/SVG/1.1/DTD/svg11.dtd">
<svg xmlns:xlink="http://www.w3.org/1999/xlink" width="460.8pt" height="345.6pt" viewBox="0 0 460.8 345.6" xmlns="http://www.w3.org/2000/svg" version="1.1">
 <metadata>
  <rdf:RDF xmlns:dc="http://purl.org/dc/elements/1.1/" xmlns:cc="http://creativecommons.org/ns#" xmlns:rdf="http://www.w3.org/1999/02/22-rdf-syntax-ns#">
   <cc:Work>
    <dc:type rdf:resource="http://purl.org/dc/dcmitype/StillImage"/>
    <dc:date>2022-06-21T09:12:10.674774</dc:date>
    <dc:format>image/svg+xml</dc:format>
    <dc:creator>
     <cc:Agent>
      <dc:title>Matplotlib v3.5.2, https://matplotlib.org/</dc:title>
     </cc:Agent>
    </dc:creator>
   </cc:Work>
  </rdf:RDF>
 </metadata>
 <defs>
  <style type="text/css">*{stroke-linejoin: round; stroke-linecap: butt}</style>
 </defs>
 <g id="figure_1">
  <g id="patch_1">
   <path d="M 0 345.6 
L 460.8 345.6 
L 460.8 0 
L 0 0 
L 0 345.6 
z
" style="fill: none"/>
  </g>
  <g id="axes_1">
   <g id="patch_2">
    <path d="M 57.6 307.584 
L 414.72 307.584 
L 414.72 41.472 
L 57.6 41.472 
L 57.6 307.584 
z
" style="fill: none"/>
   </g>
   <g id="matplotlib.axis_1">
    <g id="xtick_1">
     <g id="line2d_1">
      <path d="M 72.200477 307.584 
L 72.200477 41.472 
" clip-path="url(#p665d614f67)" style="fill: none; stroke-dasharray: 2.96,1.28; stroke-dashoffset: 0; stroke: #b0b0b0; stroke-width: 0.8"/>
     </g>
     <g id="line2d_2">
      <defs>
       <path id="m82625daf01" d="M 0 0 
L 0 3.5 
" style="stroke: #000000; stroke-width: 0.8"/>
      </defs>
      <g>
       <use xlink:href="#m82625daf01" x="72.200477" y="307.584" style="stroke: #000000; stroke-width: 0.8"/>
      </g>
     </g>
     <g id="text_1">
      <!-- 0 -->
      <g transform="translate(69.019227 322.182437)scale(0.1 -0.1)">
       <defs>
        <path id="DejaVuSans-30" d="M 2034 4250 
Q 1547 4250 1301 3770 
Q 1056 3291 1056 2328 
Q 1056 1369 1301 889 
Q 1547 409 2034 409 
Q 2525 409 2770 889 
Q 3016 1369 3016 2328 
Q 3016 3291 2770 3770 
Q 2525 4250 2034 4250 
z
M 2034 4750 
Q 2819 4750 3233 4129 
Q 3647 3509 3647 2328 
Q 3647 1150 3233 529 
Q 2819 -91 2034 -91 
Q 1250 -91 836 529 
Q 422 1150 422 2328 
Q 422 3509 836 4129 
Q 1250 4750 2034 4750 
z
" transform="scale(0.015625)"/>
       </defs>
       <use xlink:href="#DejaVuSans-30"/>
      </g>
     </g>
    </g>
    <g id="xtick_2">
     <g id="line2d_3">
      <path d="M 113.00673 307.584 
L 113.00673 41.472 
" clip-path="url(#p665d614f67)" style="fill: none; stroke-dasharray: 2.96,1.28; stroke-dashoffset: 0; stroke: #b0b0b0; stroke-width: 0.8"/>
     </g>
     <g id="line2d_4">
      <g>
       <use xlink:href="#m82625daf01" x="113.00673" y="307.584" style="stroke: #000000; stroke-width: 0.8"/>
      </g>
     </g>
     <g id="text_2">
      <!-- 250 -->
      <g transform="translate(103.46298 322.182437)scale(0.1 -0.1)">
       <defs>
        <path id="DejaVuSans-32" d="M 1228 531 
L 3431 531 
L 3431 0 
L 469 0 
L 469 531 
Q 828 903 1448 1529 
Q 2069 2156 2228 2338 
Q 2531 2678 2651 2914 
Q 2772 3150 2772 3378 
Q 2772 3750 2511 3984 
Q 2250 4219 1831 4219 
Q 1534 4219 1204 4116 
Q 875 4013 500 3803 
L 500 4441 
Q 881 4594 1212 4672 
Q 1544 4750 1819 4750 
Q 2544 4750 2975 4387 
Q 3406 4025 3406 3419 
Q 3406 3131 3298 2873 
Q 3191 2616 2906 2266 
Q 2828 2175 2409 1742 
Q 1991 1309 1228 531 
z
" transform="scale(0.015625)"/>
        <path id="DejaVuSans-35" d="M 691 4666 
L 3169 4666 
L 3169 4134 
L 1269 4134 
L 1269 2991 
Q 1406 3038 1543 3061 
Q 1681 3084 1819 3084 
Q 2600 3084 3056 2656 
Q 3513 2228 3513 1497 
Q 3513 744 3044 326 
Q 2575 -91 1722 -91 
Q 1428 -91 1123 -41 
Q 819 9 494 109 
L 494 744 
Q 775 591 1075 516 
Q 1375 441 1709 441 
Q 2250 441 2565 725 
Q 2881 1009 2881 1497 
Q 2881 1984 2565 2268 
Q 2250 2553 1709 2553 
Q 1456 2553 1204 2497 
Q 953 2441 691 2322 
L 691 4666 
z
" transform="scale(0.015625)"/>
       </defs>
       <use xlink:href="#DejaVuSans-32"/>
       <use xlink:href="#DejaVuSans-35" x="63.623047"/>
       <use xlink:href="#DejaVuSans-30" x="127.246094"/>
      </g>
     </g>
    </g>
    <g id="xtick_3">
     <g id="line2d_5">
      <path d="M 153.812982 307.584 
L 153.812982 41.472 
" clip-path="url(#p665d614f67)" style="fill: none; stroke-dasharray: 2.96,1.28; stroke-dashoffset: 0; stroke: #b0b0b0; stroke-width: 0.8"/>
     </g>
     <g id="line2d_6">
      <g>
       <use xlink:href="#m82625daf01" x="153.812982" y="307.584" style="stroke: #000000; stroke-width: 0.8"/>
      </g>
     </g>
     <g id="text_3">
      <!-- 500 -->
      <g transform="translate(144.269232 322.182437)scale(0.1 -0.1)">
       <use xlink:href="#DejaVuSans-35"/>
       <use xlink:href="#DejaVuSans-30" x="63.623047"/>
       <use xlink:href="#DejaVuSans-30" x="127.246094"/>
      </g>
     </g>
    </g>
    <g id="xtick_4">
     <g id="line2d_7">
      <path d="M 194.619235 307.584 
L 194.619235 41.472 
" clip-path="url(#p665d614f67)" style="fill: none; stroke-dasharray: 2.96,1.28; stroke-dashoffset: 0; stroke: #b0b0b0; stroke-width: 0.8"/>
     </g>
     <g id="line2d_8">
      <g>
       <use xlink:href="#m82625daf01" x="194.619235" y="307.584" style="stroke: #000000; stroke-width: 0.8"/>
      </g>
     </g>
     <g id="text_4">
      <!-- 750 -->
      <g transform="translate(185.075485 322.182437)scale(0.1 -0.1)">
       <defs>
        <path id="DejaVuSans-37" d="M 525 4666 
L 3525 4666 
L 3525 4397 
L 1831 0 
L 1172 0 
L 2766 4134 
L 525 4134 
L 525 4666 
z
" transform="scale(0.015625)"/>
       </defs>
       <use xlink:href="#DejaVuSans-37"/>
       <use xlink:href="#DejaVuSans-35" x="63.623047"/>
       <use xlink:href="#DejaVuSans-30" x="127.246094"/>
      </g>
     </g>
    </g>
    <g id="xtick_5">
     <g id="line2d_9">
      <path d="M 235.425487 307.584 
L 235.425487 41.472 
" clip-path="url(#p665d614f67)" style="fill: none; stroke-dasharray: 2.96,1.28; stroke-dashoffset: 0; stroke: #b0b0b0; stroke-width: 0.8"/>
     </g>
     <g id="line2d_10">
      <g>
       <use xlink:href="#m82625daf01" x="235.425487" y="307.584" style="stroke: #000000; stroke-width: 0.8"/>
      </g>
     </g>
     <g id="text_5">
      <!-- 1000 -->
      <g transform="translate(222.700487 322.182437)scale(0.1 -0.1)">
       <defs>
        <path id="DejaVuSans-31" d="M 794 531 
L 1825 531 
L 1825 4091 
L 703 3866 
L 703 4441 
L 1819 4666 
L 2450 4666 
L 2450 531 
L 3481 531 
L 3481 0 
L 794 0 
L 794 531 
z
" transform="scale(0.015625)"/>
       </defs>
       <use xlink:href="#DejaVuSans-31"/>
       <use xlink:href="#DejaVuSans-30" x="63.623047"/>
       <use xlink:href="#DejaVuSans-30" x="127.246094"/>
       <use xlink:href="#DejaVuSans-30" x="190.869141"/>
      </g>
     </g>
    </g>
    <g id="xtick_6">
     <g id="line2d_11">
      <path d="M 276.23174 307.584 
L 276.23174 41.472 
" clip-path="url(#p665d614f67)" style="fill: none; stroke-dasharray: 2.96,1.28; stroke-dashoffset: 0; stroke: #b0b0b0; stroke-width: 0.8"/>
     </g>
     <g id="line2d_12">
      <g>
       <use xlink:href="#m82625daf01" x="276.23174" y="307.584" style="stroke: #000000; stroke-width: 0.8"/>
      </g>
     </g>
     <g id="text_6">
      <!-- 1250 -->
      <g transform="translate(263.50674 322.182437)scale(0.1 -0.1)">
       <use xlink:href="#DejaVuSans-31"/>
       <use xlink:href="#DejaVuSans-32" x="63.623047"/>
       <use xlink:href="#DejaVuSans-35" x="127.246094"/>
       <use xlink:href="#DejaVuSans-30" x="190.869141"/>
      </g>
     </g>
    </g>
    <g id="xtick_7">
     <g id="line2d_13">
      <path d="M 317.037993 307.584 
L 317.037993 41.472 
" clip-path="url(#p665d614f67)" style="fill: none; stroke-dasharray: 2.96,1.28; stroke-dashoffset: 0; stroke: #b0b0b0; stroke-width: 0.8"/>
     </g>
     <g id="line2d_14">
      <g>
       <use xlink:href="#m82625daf01" x="317.037993" y="307.584" style="stroke: #000000; stroke-width: 0.8"/>
      </g>
     </g>
     <g id="text_7">
      <!-- 1500 -->
      <g transform="translate(304.312993 322.182437)scale(0.1 -0.1)">
       <use xlink:href="#DejaVuSans-31"/>
       <use xlink:href="#DejaVuSans-35" x="63.623047"/>
       <use xlink:href="#DejaVuSans-30" x="127.246094"/>
       <use xlink:href="#DejaVuSans-30" x="190.869141"/>
      </g>
     </g>
    </g>
    <g id="xtick_8">
     <g id="line2d_15">
      <path d="M 357.844245 307.584 
L 357.844245 41.472 
" clip-path="url(#p665d614f67)" style="fill: none; stroke-dasharray: 2.96,1.28; stroke-dashoffset: 0; stroke: #b0b0b0; stroke-width: 0.8"/>
     </g>
     <g id="line2d_16">
      <g>
       <use xlink:href="#m82625daf01" x="357.844245" y="307.584" style="stroke: #000000; stroke-width: 0.8"/>
      </g>
     </g>
     <g id="text_8">
      <!-- 1750 -->
      <g transform="translate(345.119245 322.182437)scale(0.1 -0.1)">
       <use xlink:href="#DejaVuSans-31"/>
       <use xlink:href="#DejaVuSans-37" x="63.623047"/>
       <use xlink:href="#DejaVuSans-35" x="127.246094"/>
       <use xlink:href="#DejaVuSans-30" x="190.869141"/>
      </g>
     </g>
    </g>
    <g id="xtick_9">
     <g id="line2d_17">
      <path d="M 398.650498 307.584 
L 398.650498 41.472 
" clip-path="url(#p665d614f67)" style="fill: none; stroke-dasharray: 2.96,1.28; stroke-dashoffset: 0; stroke: #b0b0b0; stroke-width: 0.8"/>
     </g>
     <g id="line2d_18">
      <g>
       <use xlink:href="#m82625daf01" x="398.650498" y="307.584" style="stroke: #000000; stroke-width: 0.8"/>
      </g>
     </g>
     <g id="text_9">
      <!-- 2000 -->
      <g transform="translate(385.925498 322.182437)scale(0.1 -0.1)">
       <use xlink:href="#DejaVuSans-32"/>
       <use xlink:href="#DejaVuSans-30" x="63.623047"/>
       <use xlink:href="#DejaVuSans-30" x="127.246094"/>
       <use xlink:href="#DejaVuSans-30" x="190.869141"/>
      </g>
     </g>
    </g>
    <g id="text_10">
     <!-- Episode -->
     <g transform="translate(216.5225 335.860562)scale(0.1 -0.1)">
      <defs>
       <path id="DejaVuSans-45" d="M 628 4666 
L 3578 4666 
L 3578 4134 
L 1259 4134 
L 1259 2753 
L 3481 2753 
L 3481 2222 
L 1259 2222 
L 1259 531 
L 3634 531 
L 3634 0 
L 628 0 
L 628 4666 
z
" transform="scale(0.015625)"/>
       <path id="DejaVuSans-70" d="M 1159 525 
L 1159 -1331 
L 581 -1331 
L 581 3500 
L 1159 3500 
L 1159 2969 
Q 1341 3281 1617 3432 
Q 1894 3584 2278 3584 
Q 2916 3584 3314 3078 
Q 3713 2572 3713 1747 
Q 3713 922 3314 415 
Q 2916 -91 2278 -91 
Q 1894 -91 1617 61 
Q 1341 213 1159 525 
z
M 3116 1747 
Q 3116 2381 2855 2742 
Q 2594 3103 2138 3103 
Q 1681 3103 1420 2742 
Q 1159 2381 1159 1747 
Q 1159 1113 1420 752 
Q 1681 391 2138 391 
Q 2594 391 2855 752 
Q 3116 1113 3116 1747 
z
" transform="scale(0.015625)"/>
       <path id="DejaVuSans-69" d="M 603 3500 
L 1178 3500 
L 1178 0 
L 603 0 
L 603 3500 
z
M 603 4863 
L 1178 4863 
L 1178 4134 
L 603 4134 
L 603 4863 
z
" transform="scale(0.015625)"/>
       <path id="DejaVuSans-73" d="M 2834 3397 
L 2834 2853 
Q 2591 2978 2328 3040 
Q 2066 3103 1784 3103 
Q 1356 3103 1142 2972 
Q 928 2841 928 2578 
Q 928 2378 1081 2264 
Q 1234 2150 1697 2047 
L 1894 2003 
Q 2506 1872 2764 1633 
Q 3022 1394 3022 966 
Q 3022 478 2636 193 
Q 2250 -91 1575 -91 
Q 1294 -91 989 -36 
Q 684 19 347 128 
L 347 722 
Q 666 556 975 473 
Q 1284 391 1588 391 
Q 1994 391 2212 530 
Q 2431 669 2431 922 
Q 2431 1156 2273 1281 
Q 2116 1406 1581 1522 
L 1381 1569 
Q 847 1681 609 1914 
Q 372 2147 372 2553 
Q 372 3047 722 3315 
Q 1072 3584 1716 3584 
Q 2034 3584 2315 3537 
Q 2597 3491 2834 3397 
z
" transform="scale(0.015625)"/>
       <path id="DejaVuSans-6f" d="M 1959 3097 
Q 1497 3097 1228 2736 
Q 959 2375 959 1747 
Q 959 1119 1226 758 
Q 1494 397 1959 397 
Q 2419 397 2687 759 
Q 2956 1122 2956 1747 
Q 2956 2369 2687 2733 
Q 2419 3097 1959 3097 
z
M 1959 3584 
Q 2709 3584 3137 3096 
Q 3566 2609 3566 1747 
Q 3566 888 3137 398 
Q 2709 -91 1959 -91 
Q 1206 -91 779 398 
Q 353 888 353 1747 
Q 353 2609 779 3096 
Q 1206 3584 1959 3584 
z
" transform="scale(0.015625)"/>
       <path id="DejaVuSans-64" d="M 2906 2969 
L 2906 4863 
L 3481 4863 
L 3481 0 
L 2906 0 
L 2906 525 
Q 2725 213 2448 61 
Q 2172 -91 1784 -91 
Q 1150 -91 751 415 
Q 353 922 353 1747 
Q 353 2572 751 3078 
Q 1150 3584 1784 3584 
Q 2172 3584 2448 3432 
Q 2725 3281 2906 2969 
z
M 947 1747 
Q 947 1113 1208 752 
Q 1469 391 1925 391 
Q 2381 391 2643 752 
Q 2906 1113 2906 1747 
Q 2906 2381 2643 2742 
Q 2381 3103 1925 3103 
Q 1469 3103 1208 2742 
Q 947 2381 947 1747 
z
" transform="scale(0.015625)"/>
       <path id="DejaVuSans-65" d="M 3597 1894 
L 3597 1613 
L 953 1613 
Q 991 1019 1311 708 
Q 1631 397 2203 397 
Q 2534 397 2845 478 
Q 3156 559 3463 722 
L 3463 178 
Q 3153 47 2828 -22 
Q 2503 -91 2169 -91 
Q 1331 -91 842 396 
Q 353 884 353 1716 
Q 353 2575 817 3079 
Q 1281 3584 2069 3584 
Q 2775 3584 3186 3129 
Q 3597 2675 3597 1894 
z
M 3022 2063 
Q 3016 2534 2758 2815 
Q 2500 3097 2075 3097 
Q 1594 3097 1305 2825 
Q 1016 2553 972 2059 
L 3022 2063 
z
" transform="scale(0.015625)"/>
      </defs>
      <use xlink:href="#DejaVuSans-45"/>
      <use xlink:href="#DejaVuSans-70" x="63.183594"/>
      <use xlink:href="#DejaVuSans-69" x="126.660156"/>
      <use xlink:href="#DejaVuSans-73" x="154.443359"/>
      <use xlink:href="#DejaVuSans-6f" x="206.542969"/>
      <use xlink:href="#DejaVuSans-64" x="267.724609"/>
      <use xlink:href="#DejaVuSans-65" x="331.201172"/>
     </g>
    </g>
   </g>
   <g id="matplotlib.axis_2">
    <g id="ytick_1">
     <g id="line2d_19">
      <path d="M 57.6 291.089897 
L 414.72 291.089897 
" clip-path="url(#p665d614f67)" style="fill: none; stroke-dasharray: 2.96,1.28; stroke-dashoffset: 0; stroke: #b0b0b0; stroke-width: 0.8"/>
     </g>
     <g id="line2d_20">
      <defs>
       <path id="mdc7a459db0" d="M 0 0 
L -3.5 0 
" style="stroke: #000000; stroke-width: 0.8"/>
      </defs>
      <g>
       <use xlink:href="#mdc7a459db0" x="57.6" y="291.089897" style="stroke: #000000; stroke-width: 0.8"/>
      </g>
     </g>
     <g id="text_11">
      <!-- −2500 -->
      <g transform="translate(16.770313 294.889115)scale(0.1 -0.1)">
       <defs>
        <path id="DejaVuSans-2212" d="M 678 2272 
L 4684 2272 
L 4684 1741 
L 678 1741 
L 678 2272 
z
" transform="scale(0.015625)"/>
       </defs>
       <use xlink:href="#DejaVuSans-2212"/>
       <use xlink:href="#DejaVuSans-32" x="83.789062"/>
       <use xlink:href="#DejaVuSans-35" x="147.412109"/>
       <use xlink:href="#DejaVuSans-30" x="211.035156"/>
       <use xlink:href="#DejaVuSans-30" x="274.658203"/>
      </g>
     </g>
    </g>
    <g id="ytick_2">
     <g id="line2d_21">
      <path d="M 57.6 243.367618 
L 414.72 243.367618 
" clip-path="url(#p665d614f67)" style="fill: none; stroke-dasharray: 2.96,1.28; stroke-dashoffset: 0; stroke: #b0b0b0; stroke-width: 0.8"/>
     </g>
     <g id="line2d_22">
      <g>
       <use xlink:href="#mdc7a459db0" x="57.6" y="243.367618" style="stroke: #000000; stroke-width: 0.8"/>
      </g>
     </g>
     <g id="text_12">
      <!-- −2000 -->
      <g transform="translate(16.770313 247.166836)scale(0.1 -0.1)">
       <use xlink:href="#DejaVuSans-2212"/>
       <use xlink:href="#DejaVuSans-32" x="83.789062"/>
       <use xlink:href="#DejaVuSans-30" x="147.412109"/>
       <use xlink:href="#DejaVuSans-30" x="211.035156"/>
       <use xlink:href="#DejaVuSans-30" x="274.658203"/>
      </g>
     </g>
    </g>
    <g id="ytick_3">
     <g id="line2d_23">
      <path d="M 57.6 195.645339 
L 414.72 195.645339 
" clip-path="url(#p665d614f67)" style="fill: none; stroke-dasharray: 2.96,1.28; stroke-dashoffset: 0; stroke: #b0b0b0; stroke-width: 0.8"/>
     </g>
     <g id="line2d_24">
      <g>
       <use xlink:href="#mdc7a459db0" x="57.6" y="195.645339" style="stroke: #000000; stroke-width: 0.8"/>
      </g>
     </g>
     <g id="text_13">
      <!-- −1500 -->
      <g transform="translate(16.770313 199.444557)scale(0.1 -0.1)">
       <use xlink:href="#DejaVuSans-2212"/>
       <use xlink:href="#DejaVuSans-31" x="83.789062"/>
       <use xlink:href="#DejaVuSans-35" x="147.412109"/>
       <use xlink:href="#DejaVuSans-30" x="211.035156"/>
       <use xlink:href="#DejaVuSans-30" x="274.658203"/>
      </g>
     </g>
    </g>
    <g id="ytick_4">
     <g id="line2d_25">
      <path d="M 57.6 147.92306 
L 414.72 147.92306 
" clip-path="url(#p665d614f67)" style="fill: none; stroke-dasharray: 2.96,1.28; stroke-dashoffset: 0; stroke: #b0b0b0; stroke-width: 0.8"/>
     </g>
     <g id="line2d_26">
      <g>
       <use xlink:href="#mdc7a459db0" x="57.6" y="147.92306" style="stroke: #000000; stroke-width: 0.8"/>
      </g>
     </g>
     <g id="text_14">
      <!-- −1000 -->
      <g transform="translate(16.770313 151.722278)scale(0.1 -0.1)">
       <use xlink:href="#DejaVuSans-2212"/>
       <use xlink:href="#DejaVuSans-31" x="83.789062"/>
       <use xlink:href="#DejaVuSans-30" x="147.412109"/>
       <use xlink:href="#DejaVuSans-30" x="211.035156"/>
       <use xlink:href="#DejaVuSans-30" x="274.658203"/>
      </g>
     </g>
    </g>
    <g id="ytick_5">
     <g id="line2d_27">
      <path d="M 57.6 100.200781 
L 414.72 100.200781 
" clip-path="url(#p665d614f67)" style="fill: none; stroke-dasharray: 2.96,1.28; stroke-dashoffset: 0; stroke: #b0b0b0; stroke-width: 0.8"/>
     </g>
     <g id="line2d_28">
      <g>
       <use xlink:href="#mdc7a459db0" x="57.6" y="100.200781" style="stroke: #000000; stroke-width: 0.8"/>
      </g>
     </g>
     <g id="text_15">
      <!-- −500 -->
      <g transform="translate(23.132812 103.999999)scale(0.1 -0.1)">
       <use xlink:href="#DejaVuSans-2212"/>
       <use xlink:href="#DejaVuSans-35" x="83.789062"/>
       <use xlink:href="#DejaVuSans-30" x="147.412109"/>
       <use xlink:href="#DejaVuSans-30" x="211.035156"/>
      </g>
     </g>
    </g>
    <g id="ytick_6">
     <g id="line2d_29">
      <path d="M 57.6 52.478502 
L 414.72 52.478502 
" clip-path="url(#p665d614f67)" style="fill: none; stroke-dasharray: 2.96,1.28; stroke-dashoffset: 0; stroke: #b0b0b0; stroke-width: 0.8"/>
     </g>
     <g id="line2d_30">
      <g>
       <use xlink:href="#mdc7a459db0" x="57.6" y="52.478502" style="stroke: #000000; stroke-width: 0.8"/>
      </g>
     </g>
     <g id="text_16">
      <!-- 0 -->
      <g transform="translate(44.2375 56.27772)scale(0.1 -0.1)">
       <use xlink:href="#DejaVuSans-30"/>
      </g>
     </g>
    </g>
    <g id="text_17">
     <!-- profits/rebuy_cost -->
     <g transform="translate(10.4125 219.298313)rotate(-90)scale(0.1 -0.1)">
      <defs>
       <path id="DejaVuSans-72" d="M 2631 2963 
Q 2534 3019 2420 3045 
Q 2306 3072 2169 3072 
Q 1681 3072 1420 2755 
Q 1159 2438 1159 1844 
L 1159 0 
L 581 0 
L 581 3500 
L 1159 3500 
L 1159 2956 
Q 1341 3275 1631 3429 
Q 1922 3584 2338 3584 
Q 2397 3584 2469 3576 
Q 2541 3569 2628 3553 
L 2631 2963 
z
" transform="scale(0.015625)"/>
       <path id="DejaVuSans-66" d="M 2375 4863 
L 2375 4384 
L 1825 4384 
Q 1516 4384 1395 4259 
Q 1275 4134 1275 3809 
L 1275 3500 
L 2222 3500 
L 2222 3053 
L 1275 3053 
L 1275 0 
L 697 0 
L 697 3053 
L 147 3053 
L 147 3500 
L 697 3500 
L 697 3744 
Q 697 4328 969 4595 
Q 1241 4863 1831 4863 
L 2375 4863 
z
" transform="scale(0.015625)"/>
       <path id="DejaVuSans-74" d="M 1172 4494 
L 1172 3500 
L 2356 3500 
L 2356 3053 
L 1172 3053 
L 1172 1153 
Q 1172 725 1289 603 
Q 1406 481 1766 481 
L 2356 481 
L 2356 0 
L 1766 0 
Q 1100 0 847 248 
Q 594 497 594 1153 
L 594 3053 
L 172 3053 
L 172 3500 
L 594 3500 
L 594 4494 
L 1172 4494 
z
" transform="scale(0.015625)"/>
       <path id="DejaVuSans-2f" d="M 1625 4666 
L 2156 4666 
L 531 -594 
L 0 -594 
L 1625 4666 
z
" transform="scale(0.015625)"/>
       <path id="DejaVuSans-62" d="M 3116 1747 
Q 3116 2381 2855 2742 
Q 2594 3103 2138 3103 
Q 1681 3103 1420 2742 
Q 1159 2381 1159 1747 
Q 1159 1113 1420 752 
Q 1681 391 2138 391 
Q 2594 391 2855 752 
Q 3116 1113 3116 1747 
z
M 1159 2969 
Q 1341 3281 1617 3432 
Q 1894 3584 2278 3584 
Q 2916 3584 3314 3078 
Q 3713 2572 3713 1747 
Q 3713 922 3314 415 
Q 2916 -91 2278 -91 
Q 1894 -91 1617 61 
Q 1341 213 1159 525 
L 1159 0 
L 581 0 
L 581 4863 
L 1159 4863 
L 1159 2969 
z
" transform="scale(0.015625)"/>
       <path id="DejaVuSans-75" d="M 544 1381 
L 544 3500 
L 1119 3500 
L 1119 1403 
Q 1119 906 1312 657 
Q 1506 409 1894 409 
Q 2359 409 2629 706 
Q 2900 1003 2900 1516 
L 2900 3500 
L 3475 3500 
L 3475 0 
L 2900 0 
L 2900 538 
Q 2691 219 2414 64 
Q 2138 -91 1772 -91 
Q 1169 -91 856 284 
Q 544 659 544 1381 
z
M 1991 3584 
L 1991 3584 
z
" transform="scale(0.015625)"/>
       <path id="DejaVuSans-79" d="M 2059 -325 
Q 1816 -950 1584 -1140 
Q 1353 -1331 966 -1331 
L 506 -1331 
L 506 -850 
L 844 -850 
Q 1081 -850 1212 -737 
Q 1344 -625 1503 -206 
L 1606 56 
L 191 3500 
L 800 3500 
L 1894 763 
L 2988 3500 
L 3597 3500 
L 2059 -325 
z
" transform="scale(0.015625)"/>
       <path id="DejaVuSans-5f" d="M 3263 -1063 
L 3263 -1509 
L -63 -1509 
L -63 -1063 
L 3263 -1063 
z
" transform="scale(0.015625)"/>
       <path id="DejaVuSans-63" d="M 3122 3366 
L 3122 2828 
Q 2878 2963 2633 3030 
Q 2388 3097 2138 3097 
Q 1578 3097 1268 2742 
Q 959 2388 959 1747 
Q 959 1106 1268 751 
Q 1578 397 2138 397 
Q 2388 397 2633 464 
Q 2878 531 3122 666 
L 3122 134 
Q 2881 22 2623 -34 
Q 2366 -91 2075 -91 
Q 1284 -91 818 406 
Q 353 903 353 1747 
Q 353 2603 823 3093 
Q 1294 3584 2113 3584 
Q 2378 3584 2631 3529 
Q 2884 3475 3122 3366 
z
" transform="scale(0.015625)"/>
      </defs>
      <use xlink:href="#DejaVuSans-70"/>
      <use xlink:href="#DejaVuSans-72" x="63.476562"/>
      <use xlink:href="#DejaVuSans-6f" x="102.339844"/>
      <use xlink:href="#DejaVuSans-66" x="163.521484"/>
      <use xlink:href="#DejaVuSans-69" x="198.726562"/>
      <use xlink:href="#DejaVuSans-74" x="226.509766"/>
      <use xlink:href="#DejaVuSans-73" x="265.71875"/>
      <use xlink:href="#DejaVuSans-2f" x="317.818359"/>
      <use xlink:href="#DejaVuSans-72" x="351.509766"/>
      <use xlink:href="#DejaVuSans-65" x="390.373047"/>
      <use xlink:href="#DejaVuSans-62" x="451.896484"/>
      <use xlink:href="#DejaVuSans-75" x="515.373047"/>
      <use xlink:href="#DejaVuSans-79" x="578.751953"/>
      <use xlink:href="#DejaVuSans-5f" x="637.931641"/>
      <use xlink:href="#DejaVuSans-63" x="687.931641"/>
      <use xlink:href="#DejaVuSans-6f" x="742.912109"/>
      <use xlink:href="#DejaVuSans-73" x="804.09375"/>
      <use xlink:href="#DejaVuSans-74" x="856.193359"/>
     </g>
    </g>
   </g>
   <g id="line2d_31">
    <path d="M 73.832727 295.488 
L 74.485627 249.044386 
L 75.138527 212.154432 
L 75.954652 184.577594 
L 76.934002 158.970572 
L 77.750128 144.232273 
L 78.566253 132.806506 
L 79.382378 124.289553 
L 80.524953 115.011824 
L 81.504303 108.696565 
L 82.483653 103.578125 
L 83.626228 98.629192 
L 84.768803 94.571486 
L 86.074603 90.857614 
L 87.380403 87.6553 
L 88.522978 85.284638 
L 88.849428 79.455204 
L 89.175878 73.934984 
L 89.502328 70.323274 
L 89.828778 64.311985 
L 90.318453 59.114777 
L 90.971353 56.466892 
L 92.113928 55.204044 
L 92.440378 54.66527 
L 92.766828 54.556653 
L 94.562304 54.698611 
L 95.868104 54.779191 
L 96.194554 54.706234 
L 96.521004 54.829654 
L 96.684229 54.736735 
L 97.173904 54.853078 
L 98.316479 54.995472 
L 98.806154 54.976856 
L 100.275179 55.156256 
L 103.866129 55.569359 
L 105.824829 55.841771 
L 108.273204 55.68016 
L 108.599654 55.6487 
L 110.39513 55.791263 
L 110.72158 55.701757 
L 122.637005 54.971953 
L 124.75893 54.881334 
L 125.248606 54.874017 
L 126.227956 54.674601 
L 128.186656 54.614882 
L 128.676331 54.658271 
L 129.166006 54.635498 
L 136.674356 54.28963 
L 137.164031 54.246752 
L 138.306606 54.239969 
L 140.428531 54.196682 
L 141.571107 54.118113 
L 142.060782 54.060129 
L 145.162057 53.841611 
L 145.651732 53.799602 
L 147.447207 53.729283 
L 148.916232 53.696593 
L 150.222032 53.692917 
L 151.201382 53.584496 
L 153.486532 53.636385 
L 153.976207 53.665651 
L 155.771682 53.672108 
L 173.889659 53.896314 
L 176.501259 53.97073 
L 182.867034 54.144923 
L 185.641859 54.13023 
L 186.294759 54.096148 
L 187.437334 54.102536 
L 210.615286 53.868199 
L 211.268186 53.901437 
L 219.102986 53.879911 
L 219.755886 53.884866 
L 226.774562 53.876807 
L 227.101012 53.917574 
L 227.917137 53.86215 
L 231.181637 53.846068 
L 233.140337 53.868743 
L 241.791263 53.882388 
L 242.117713 53.971804 
L 254.359589 53.964674 
L 255.175714 53.900119 
L 257.950539 53.881306 
L 264.153089 53.79854 
L 266.111789 53.803431 
L 269.70274 53.776516 
L 270.518865 53.812218 
L 273.456915 53.81029 
L 274.27304 53.821885 
L 276.721415 53.801738 
L 278.353665 53.812603 
L 282.43429 53.744737 
L 283.41364 53.766982 
L 288.147166 53.82926 
L 291.085216 53.822787 
L 292.227791 53.788226 
L 297.777441 53.877583 
L 301.041942 53.895739 
L 301.858067 53.894051 
L 303.979992 53.910456 
L 304.959342 53.921634 
L 313.447042 54.086604 
L 317.527668 54.090667 
L 318.017343 54.143706 
L 322.750868 54.264562 
L 324.709568 54.229884 
L 330.422443 54.178695 
L 334.176619 54.194703 
L 334.992744 54.196286 
L 335.645644 54.155011 
L 340.052719 54.167302 
L 342.827544 54.249011 
L 346.255269 54.294745 
L 346.744944 54.312641 
L 349.356545 54.39012 
L 349.84622 54.390908 
L 354.74297 54.415507 
L 355.885545 54.496608 
L 358.170695 54.53805 
L 358.823595 54.544667 
L 359.31327 54.538302 
L 360.61907 54.563429 
L 361.92487 54.54108 
L 363.230671 54.526857 
L 365.842271 54.552103 
L 366.331946 54.574272 
L 371.718371 54.614856 
L 372.208046 54.641986 
L 373.187396 54.570308 
L 373.677071 54.642089 
L 374.656421 54.594955 
L 377.431246 54.566355 
L 380.042847 54.569012 
L 380.858972 54.519834 
L 382.980897 54.590786 
L 383.633797 54.64208 
L 384.123472 54.681683 
L 385.918947 54.732686 
L 386.735072 54.77122 
L 388.040872 54.712376 
L 388.856997 54.643199 
L 389.673122 54.748464 
L 389.999572 54.710844 
L 396.365348 54.996878 
L 397.344698 55.015475 
L 398.487273 54.967376 
L 398.487273 54.967376 
" clip-path="url(#p665d614f67)" style="fill: none; stroke: #1f77b4; stroke-width: 1.5; stroke-linecap: square"/>
   </g>
   <g id="line2d_32">
    <path d="M 73.832727 121.998561 
L 74.648852 108.093627 
L 75.138527 100.727208 
L 76.117877 91.682159 
L 77.097227 84.580094 
L 78.239803 78.879658 
L 79.055928 75.885448 
L 79.708828 74.384553 
L 80.688178 72.452762 
L 81.014628 72.081494 
L 81.993978 70.331222 
L 82.646878 69.587932 
L 83.463003 68.56754 
L 84.442353 67.522954 
L 85.095253 66.991917 
L 85.421703 66.842997 
L 86.237828 66.163217 
L 86.564278 65.940386 
L 87.380403 65.417738 
L 87.706853 65.288965 
L 88.359753 64.881274 
L 88.522978 64.868915 
L 89.502328 60.998673 
L 89.992003 58.673557 
L 90.644903 57.295924 
L 90.971353 56.816705 
L 91.950703 56.315246 
L 92.113928 56.391394 
L 92.440378 56.253453 
L 92.930053 56.172334 
L 93.256503 56.265082 
L 93.909404 56.554536 
L 94.235854 56.706875 
L 95.378429 56.984252 
L 95.704879 56.999993 
L 96.031329 56.955996 
L 97.990029 56.918219 
L 98.806154 57.120378 
L 99.295829 57.261413 
L 99.948729 57.433475 
L 100.928079 57.510341 
L 101.580979 57.463448 
L 101.907429 57.429966 
L 105.171929 57.865254 
L 105.498379 57.745819 
L 105.988054 57.757434 
L 106.967404 57.703897 
L 108.436429 57.800905 
L 108.762879 57.59271 
L 109.089329 57.597174 
L 109.41578 57.690924 
L 109.579005 57.624778 
L 109.74223 57.785866 
L 110.39513 57.600826 
L 110.558355 57.625093 
L 110.884805 57.492973 
L 113.65963 57.479322 
L 113.822855 57.323805 
L 114.63898 57.404378 
L 116.92413 56.771916 
L 117.25058 56.931766 
L 117.740255 56.896945 
L 118.22993 57.018531 
L 118.55638 56.954631 
L 119.20928 57.11447 
L 119.372505 57.016345 
L 119.698955 57.142658 
L 120.025405 57.201305 
L 120.351855 57.150299 
L 120.84153 56.95609 
L 121.16798 57.002008 
L 121.82088 57.07413 
L 122.637005 57.119281 
L 122.963455 57.074948 
L 125.085381 57.234546 
L 125.575056 57.478076 
L 126.064731 57.467575 
L 126.391181 57.255603 
L 126.717631 57.324102 
L 127.207306 57.192656 
L 127.533756 57.231839 
L 127.860206 57.146647 
L 128.186656 57.229273 
L 129.492456 57.203917 
L 129.818906 57.421993 
L 130.145356 57.499205 
L 130.471806 57.57834 
L 130.798256 57.650146 
L 131.614381 57.675968 
L 132.430506 57.777137 
L 133.083406 57.795765 
L 133.409856 58.004307 
L 134.062756 57.994647 
L 134.225981 58.183791 
L 134.715656 58.123664 
L 135.205331 58.090577 
L 135.368556 58.042781 
L 135.531781 58.154474 
L 135.695006 58.123073 
L 135.858231 58.285499 
L 136.511131 58.033945 
L 137.327256 58.169686 
L 137.653706 58.140965 
L 143.040132 57.977256 
L 143.366582 58.093608 
L 143.856257 58.128836 
L 144.345932 58.368431 
L 144.509157 58.321281 
L 144.998832 58.431182 
L 145.325282 58.235176 
L 145.651732 58.336879 
L 145.978182 58.376437 
L 146.304632 58.176689 
L 146.467857 58.122392 
L 146.794307 58.380539 
L 147.283982 58.29772 
L 147.610432 58.357755 
L 147.773657 58.386062 
L 147.936882 58.229317 
L 148.426557 58.319048 
L 148.753007 58.339072 
L 149.242682 58.41504 
L 149.405907 58.435327 
L 149.569132 58.567617 
L 150.058807 58.388601 
L 150.385257 58.511267 
L 150.874932 58.359693 
L 151.038157 58.447166 
L 151.364607 58.318204 
L 151.854282 58.27313 
L 152.017507 58.117951 
L 152.180732 58.251454 
L 152.507182 58.032555 
L 152.833632 58.02313 
L 153.160082 58.123425 
L 153.812982 58.084737 
L 154.302657 58.146003 
L 154.955557 58.091841 
L 155.608457 58.373182 
L 156.098132 58.482205 
L 156.424582 58.536483 
L 157.077483 58.590514 
L 157.403933 58.638481 
L 157.567158 58.570294 
L 157.893608 58.646502 
L 158.546508 58.831687 
L 158.872958 58.91059 
L 159.199408 58.939664 
L 160.341983 58.960845 
L 160.505208 58.826412 
L 160.668433 58.883104 
L 160.831658 58.795549 
L 161.484558 59.032324 
L 162.300683 59.149403 
L 162.627133 59.406543 
L 162.953583 59.427348 
L 163.116808 59.205778 
L 163.443258 59.198645 
L 163.932933 59.372953 
L 164.259383 59.473638 
L 165.891633 59.451196 
L 166.054858 59.298691 
L 166.381308 59.368621 
L 166.870983 59.310574 
L 167.687108 59.487531 
L 168.013558 59.699446 
L 168.176783 59.842613 
L 168.340008 59.831982 
L 168.503233 59.937677 
L 168.666458 59.872162 
L 168.992908 60.030228 
L 169.319358 60.432007 
L 169.645808 60.432211 
L 170.298708 60.680143 
L 170.461933 60.685738 
L 170.951608 61.151297 
L 171.278058 61.218333 
L 171.441283 61.443988 
L 171.604508 61.47239 
L 171.767733 61.340603 
L 172.257408 61.590417 
L 173.563209 61.658596 
L 174.052884 62.112547 
L 174.216109 61.990077 
L 174.869009 62.370968 
L 175.032234 62.297456 
L 175.521909 62.591354 
L 176.501259 62.675373 
L 176.664484 62.895743 
L 176.827709 62.862013 
L 177.317384 63.161411 
L 177.807059 63.011679 
L 177.970284 63.071467 
L 178.296734 63.327324 
L 178.623184 63.38469 
L 180.418659 64.223643 
L 180.745109 64.252833 
L 181.234784 64.622211 
L 181.398009 64.573544 
L 181.887684 65.000228 
L 182.050909 64.932661 
L 182.377359 65.058423 
L 184.009609 65.852912 
L 184.336059 65.676376 
L 184.662509 65.661256 
L 184.825734 65.828218 
L 186.294759 65.646367 
L 186.457984 65.497677 
L 186.947659 65.601666 
L 187.437334 65.325255 
L 187.600559 65.295995 
L 187.763784 65.400181 
L 187.927009 65.209109 
L 188.90636 65.490603 
L 189.23281 65.522306 
L 190.048935 65.77867 
L 190.21216 65.650151 
L 191.19151 65.720789 
L 191.681185 65.461241 
L 192.986985 65.840012 
L 193.15021 65.686633 
L 193.313435 65.826158 
L 194.292785 65.738092 
L 194.619235 65.782658 
L 194.945685 65.882739 
L 195.43536 65.965145 
L 195.925035 65.834499 
L 196.08826 65.988273 
L 196.41471 66.012885 
L 196.577935 65.823318 
L 197.230835 65.700618 
L 197.557285 65.561468 
L 197.883735 65.686519 
L 198.69986 65.570637 
L 199.02631 65.844529 
L 199.35276 65.937029 
L 200.33211 65.711328 
L 200.65856 65.896658 
L 200.98501 66.078 
L 201.474685 65.914835 
L 201.801135 65.856377 
L 201.96436 65.768729 
L 202.780485 66.058889 
L 203.106935 66.286251 
L 204.086285 66.554016 
L 204.739186 66.532658 
L 205.065636 66.44132 
L 206.044986 66.285598 
L 206.208211 66.464911 
L 206.534661 66.440343 
L 207.187561 66.384133 
L 207.840461 66.306244 
L 208.330136 66.381503 
L 208.656586 66.323386 
L 208.983036 66.426154 
L 211.104961 66.663341 
L 211.431411 66.533162 
L 212.410761 66.268204 
L 212.737211 66.110626 
L 212.900436 66.069325 
L 213.226886 66.235782 
L 213.390111 66.137502 
L 214.532686 66.407189 
L 216.817836 65.948601 
L 216.981061 65.855721 
L 217.144286 65.893521 
L 217.470736 65.767486 
L 218.939761 66.053703 
L 219.266211 65.882055 
L 219.429436 65.834736 
L 219.755886 65.98548 
L 220.245561 66.10054 
L 220.572012 66.287729 
L 220.735237 66.427352 
L 221.061687 66.398294 
L 221.551362 66.407507 
L 222.041037 66.733046 
L 222.530712 66.800427 
L 222.857162 66.645211 
L 223.510062 66.578746 
L 223.836512 66.670219 
L 223.999737 66.80181 
L 224.326187 66.664881 
L 224.979087 66.749185 
L 225.468762 66.42067 
L 226.448112 66.47105 
L 226.774562 66.490423 
L 226.937787 66.424075 
L 227.427462 66.520514 
L 229.386162 66.521399 
L 229.712612 66.313199 
L 230.365512 66.433366 
L 230.528737 66.282566 
L 230.855187 66.453137 
L 231.181637 66.289889 
L 231.508087 66.349255 
L 232.324212 66.227875 
L 232.813887 66.490361 
L 233.140337 66.554611 
L 234.282912 66.82194 
L 234.609362 66.668142 
L 234.935812 66.608026 
L 235.751937 66.428958 
L 236.404838 66.237336 
L 236.894513 65.923369 
L 237.384188 65.799635 
L 238.200313 65.508137 
L 238.526763 65.366713 
L 238.853213 65.215278 
L 239.342888 65.141749 
L 239.506113 65.219003 
L 239.995788 65.068149 
L 240.975138 65.127888 
L 241.138363 65.257103 
L 241.464813 65.127854 
L 241.954488 65.373488 
L 242.607388 65.293254 
L 242.933838 65.463041 
L 243.423513 65.546162 
L 243.749963 65.388821 
L 244.239638 65.468748 
L 244.566088 65.344481 
L 245.055763 65.603883 
L 245.545438 65.74773 
L 246.198338 66.184777 
L 247.014463 65.916902 
L 247.177688 65.684905 
L 247.667363 65.933452 
L 247.830588 65.812729 
L 248.809938 65.981213 
L 249.299613 65.681136 
L 249.789288 66.051598 
L 251.095088 66.120971 
L 251.747988 66.41622 
L 252.074439 66.466429 
L 252.564114 66.364087 
L 252.727339 66.498513 
L 252.890564 66.390311 
L 253.543464 66.574376 
L 253.706689 66.429256 
L 254.359589 66.63877 
L 254.686039 66.893387 
L 255.338939 67.077853 
L 255.665389 67.176896 
L 255.991839 67.106021 
L 256.318289 67.142733 
L 257.297639 67.062409 
L 257.624089 67.171481 
L 257.950539 67.321063 
L 258.603439 67.228448 
L 259.093114 67.25761 
L 259.419564 67.09409 
L 260.725364 66.934586 
L 260.888589 67.050584 
L 261.215039 66.896314 
L 261.378264 66.772992 
L 262.031164 66.883695 
L 262.684064 66.495221 
L 263.010514 66.555568 
L 263.336964 66.633766 
L 263.663414 66.887025 
L 264.642764 67.082332 
L 265.132439 67.328248 
L 265.295664 67.206582 
L 265.622114 67.327096 
L 265.948564 67.218427 
L 266.275014 66.986169 
L 266.438239 66.900439 
L 267.580814 67.231068 
L 268.07049 66.941952 
L 268.886615 67.073649 
L 269.37629 66.758663 
L 269.70274 66.748643 
L 270.02919 66.833092 
L 270.518865 66.870612 
L 271.66144 66.488891 
L 272.151115 66.63451 
L 272.31434 66.788999 
L 272.64079 66.667965 
L 273.29369 66.695137 
L 273.456915 66.680747 
L 273.62014 66.793363 
L 274.436265 66.573407 
L 275.089165 66.63045 
L 275.57884 66.53217 
L 275.90529 66.633017 
L 276.394965 66.570788 
L 276.721415 66.760969 
L 277.700765 66.590422 
L 278.19044 66.624109 
L 278.51689 66.48992 
L 279.16979 66.561638 
L 279.49624 66.572334 
L 280.14914 66.73217 
L 280.312365 66.567268 
L 280.638815 66.561127 
L 281.12849 66.316752 
L 281.944615 66.13754 
L 282.923965 66.499196 
L 283.250415 66.567381 
L 283.41364 66.422965 
L 283.576865 66.46619 
L 284.066541 66.292191 
L 284.719441 66.39967 
L 285.045891 66.350962 
L 286.025241 66.661344 
L 286.188466 66.831445 
L 286.351691 66.681318 
L 286.678141 66.772786 
L 287.331041 67.022654 
L 287.820716 67.048397 
L 288.636841 66.954712 
L 288.963291 66.762331 
L 289.616191 66.801977 
L 289.942641 66.915853 
L 291.085216 66.691801 
L 291.248441 66.549908 
L 291.411666 66.587472 
L 291.738116 66.854197 
L 292.064566 66.821122 
L 292.227791 66.72204 
L 292.717466 66.98486 
L 293.043916 67.002107 
L 293.370366 67.133702 
L 294.023266 67.2029 
L 294.512941 67.295292 
L 294.676166 67.294106 
L 294.839391 67.413175 
L 295.329066 67.311588 
L 295.492291 67.4545 
L 296.308416 67.350792 
L 296.634866 66.979033 
L 297.124541 67.300016 
L 297.614216 67.26107 
L 297.940666 67.068568 
L 298.267116 67.271353 
L 300.062592 67.027102 
L 301.041942 67.312074 
L 301.368392 67.009401 
L 301.531617 67.117908 
L 301.858067 67.099258 
L 302.021292 67.284713 
L 302.347742 67.249276 
L 302.510967 67.250322 
L 302.674192 67.027229 
L 302.837417 67.164017 
L 303.163867 67.05401 
L 303.327092 67.145374 
L 303.979992 66.974089 
L 304.469667 67.039184 
L 304.632892 66.941615 
L 305.775467 67.34581 
L 306.918042 67.32153 
L 307.244492 67.546443 
L 307.407717 67.487675 
L 307.734167 67.663839 
L 308.550292 67.396649 
L 308.713517 67.504614 
L 310.019317 66.964692 
L 310.345767 67.182702 
L 310.835442 67.254571 
L 311.161892 67.160635 
L 312.304467 67.293228 
L 312.630917 67.531295 
L 312.794142 67.520763 
L 312.957367 67.639879 
L 313.120592 67.614836 
L 313.447042 67.382829 
L 313.773492 67.230934 
L 314.263167 67.37718 
L 314.426392 67.421825 
L 314.752842 67.317921 
L 314.916067 67.501144 
L 315.079292 67.463344 
L 315.242517 67.280852 
L 315.732193 67.413235 
L 316.058643 67.288505 
L 317.201218 67.452741 
L 317.364443 67.321859 
L 317.854118 67.86088 
L 318.017343 67.704767 
L 318.343793 67.687035 
L 318.670243 67.550556 
L 319.649593 67.466159 
L 319.812818 67.307227 
L 321.281843 67.620762 
L 321.608293 67.463101 
L 322.097968 67.681701 
L 322.750868 67.901867 
L 324.383118 67.761626 
L 325.525693 67.813189 
L 325.688918 67.90472 
L 326.015368 67.826757 
L 326.178593 67.780453 
L 326.505043 67.831955 
L 326.831493 67.721302 
L 327.157943 67.619243 
L 327.484393 67.77526 
L 327.647618 67.66068 
L 327.810843 67.702089 
L 328.137293 67.639209 
L 328.463743 67.588396 
L 328.953418 67.745481 
L 329.443093 67.568523 
L 329.769543 67.747634 
L 330.095993 67.814444 
L 330.259218 67.990703 
L 330.422443 67.908252 
L 330.912118 67.994392 
L 331.401794 67.737308 
L 332.054694 68.024467 
L 332.217919 67.960193 
L 332.544369 68.128865 
L 333.850169 67.99817 
L 334.013394 68.053448 
L 334.176619 67.971353 
L 334.339844 67.748444 
L 334.666294 67.834723 
L 334.992744 67.859449 
L 335.155969 68.039873 
L 335.808869 68.061051 
L 336.135319 68.350464 
L 336.298544 68.387895 
L 336.624994 68.314592 
L 337.441119 68.148837 
L 337.767569 68.350121 
L 338.094019 68.305685 
L 338.420469 68.206974 
L 338.583694 68.308561 
L 338.746919 68.224456 
L 339.073369 68.382008 
L 339.236594 68.087697 
L 340.052719 68.225076 
L 340.215944 68.177826 
L 340.705619 68.417933 
L 340.868844 68.367795 
L 341.195294 68.480279 
L 341.521744 68.450889 
L 342.011419 68.519844 
L 342.174644 68.506276 
L 342.827544 68.855695 
L 343.317219 68.571958 
L 343.480444 68.640234 
L 343.806894 68.43053 
L 343.970119 68.498993 
L 344.133344 68.730517 
L 344.296569 68.646648 
L 344.459794 68.795485 
L 344.623019 68.703622 
L 344.949469 68.804099 
L 345.112694 68.72492 
L 345.275919 68.505092 
L 345.765594 68.772229 
L 346.255269 68.800853 
L 346.581719 68.745554 
L 346.744944 68.505898 
L 346.908169 68.619298 
L 347.234619 68.586698 
L 347.397845 68.536759 
L 347.724295 68.681001 
L 349.19332 68.700893 
L 350.009445 68.795963 
L 350.335895 68.578872 
L 350.662345 68.522881 
L 350.988795 68.557051 
L 351.15202 68.738415 
L 351.47847 68.585665 
L 351.641695 68.453602 
L 351.80492 68.487385 
L 351.968145 68.652189 
L 352.45782 68.362604 
L 352.78427 68.070495 
L 352.947495 68.166374 
L 353.11072 68.071074 
L 353.43717 68.094627 
L 354.09007 67.968367 
L 354.253295 67.83654 
L 354.906195 67.891067 
L 355.06942 67.704667 
L 356.211995 68.099031 
L 356.538445 67.888543 
L 356.70167 67.866161 
L 356.864895 67.959715 
L 357.35457 67.618941 
L 358.00747 67.88336 
L 358.170695 67.801958 
L 358.33392 67.977227 
L 358.497145 67.834589 
L 358.66037 67.934227 
L 358.823595 67.864227 
L 358.98682 67.576001 
L 359.150045 67.705988 
L 359.476495 67.533316 
L 359.63972 67.404897 
L 360.129395 67.640281 
L 361.27197 67.301614 
L 361.435195 67.450451 
L 361.59842 67.413844 
L 361.761645 67.545671 
L 361.92487 67.349101 
L 362.088095 67.332563 
L 362.25132 67.173166 
L 362.414545 67.246298 
L 362.57777 67.129349 
L 362.740995 67.167149 
L 363.067445 67.026336 
L 363.230671 67.273159 
L 363.720346 67.172132 
L 364.536471 67.113486 
L 365.026146 66.906589 
L 365.189371 67.026839 
L 365.515821 66.885727 
L 366.168721 66.852052 
L 366.495171 66.703451 
L 366.984846 66.704834 
L 367.311296 66.75291 
L 367.474521 66.76047 
L 367.637746 66.603863 
L 368.290646 66.805519 
L 368.453871 66.727891 
L 368.617096 66.957922 
L 368.780321 66.911617 
L 369.106771 67.17598 
L 369.269996 67.292451 
L 369.596446 67.17194 
L 369.922896 67.28593 
L 370.086121 67.245058 
L 370.412571 67.389082 
L 370.575796 67.390625 
L 370.902246 67.527646 
L 371.065471 67.462085 
L 371.228696 67.55614 
L 371.391921 67.50626 
L 371.555146 67.638266 
L 372.208046 67.457259 
L 372.371271 67.135724 
L 372.697721 67.178062 
L 373.024171 67.093132 
L 373.187396 67.28774 
L 373.513846 67.327843 
L 373.677071 67.508249 
L 374.166746 67.220184 
L 374.329971 67.026464 
L 374.982871 67.142866 
L 375.146096 67.059057 
L 376.125446 67.319185 
L 376.451896 67.312725 
L 377.757696 67.648929 
L 377.920921 67.590793 
L 378.084146 67.676304 
L 378.247371 67.600573 
L 378.737046 68.114613 
L 378.900271 67.969413 
L 379.389947 68.050714 
L 379.553172 68.083552 
L 379.716397 67.941861 
L 380.206072 68.187577 
L 381.675097 68.476805 
L 382.491222 68.48738 
L 382.980897 68.585762 
L 383.307347 68.923236 
L 383.470572 68.994695 
L 383.797022 68.911348 
L 383.960247 68.911389 
L 384.123472 69.043446 
L 384.449922 68.984695 
L 384.613147 69.064515 
L 385.102822 68.649966 
L 385.755722 68.55615 
L 386.082172 68.642558 
L 386.245397 68.726422 
L 386.408622 68.612077 
L 386.571847 68.665706 
L 386.735072 68.539727 
L 387.061522 68.677175 
L 387.224747 68.608426 
L 387.387972 68.708274 
L 387.714422 68.399801 
L 387.877647 68.529913 
L 388.693772 68.22937 
L 389.183447 68.525617 
L 389.509897 68.666275 
L 389.673122 68.695089 
L 389.999572 68.496703 
L 390.326022 68.612749 
L 390.815697 69.165752 
L 391.142147 69.125631 
L 391.468597 69.015998 
L 391.958272 68.969466 
L 392.121497 68.868824 
L 392.284722 69.053205 
L 392.611172 69.040864 
L 392.774397 69.109754 
L 393.100847 68.963739 
L 393.264072 69.102472 
L 393.590522 68.872656 
L 393.753747 68.846334 
L 393.916972 68.665368 
L 394.243422 68.750672 
L 394.406647 68.597739 
L 394.733097 68.541947 
L 395.222773 68.329107 
L 395.712448 68.276668 
L 395.875673 68.33384 
L 396.038898 68.51426 
L 396.528573 68.457531 
L 397.181473 68.036556 
L 397.671148 68.029646 
L 398.160823 67.950268 
L 398.487273 67.960715 
L 398.487273 67.960715 
" clip-path="url(#p665d614f67)" style="fill: none; stroke: #ff7f0e; stroke-width: 1.5; stroke-linecap: square"/>
   </g>
   <g id="patch_3">
    <path d="M 57.6 307.584 
L 57.6 41.472 
" style="fill: none; stroke: #000000; stroke-width: 0.8; stroke-linejoin: miter; stroke-linecap: square"/>
   </g>
   <g id="patch_4">
    <path d="M 414.72 307.584 
L 414.72 41.472 
" style="fill: none; stroke: #000000; stroke-width: 0.8; stroke-linejoin: miter; stroke-linecap: square"/>
   </g>
   <g id="patch_5">
    <path d="M 57.6 307.584 
L 414.72 307.584 
" style="fill: none; stroke: #000000; stroke-width: 0.8; stroke-linejoin: miter; stroke-linecap: square"/>
   </g>
   <g id="patch_6">
    <path d="M 57.6 41.472 
L 414.72 41.472 
" style="fill: none; stroke: #000000; stroke-width: 0.8; stroke-linejoin: miter; stroke-linecap: square"/>
   </g>
   <g id="text_18">
    <!-- Rolling average training progress of profits/rebuy_cost -->
    <g transform="translate(73.231875 35.472)scale(0.12 -0.12)">
     <defs>
      <path id="DejaVuSans-52" d="M 2841 2188 
Q 3044 2119 3236 1894 
Q 3428 1669 3622 1275 
L 4263 0 
L 3584 0 
L 2988 1197 
Q 2756 1666 2539 1819 
Q 2322 1972 1947 1972 
L 1259 1972 
L 1259 0 
L 628 0 
L 628 4666 
L 2053 4666 
Q 2853 4666 3247 4331 
Q 3641 3997 3641 3322 
Q 3641 2881 3436 2590 
Q 3231 2300 2841 2188 
z
M 1259 4147 
L 1259 2491 
L 2053 2491 
Q 2509 2491 2742 2702 
Q 2975 2913 2975 3322 
Q 2975 3731 2742 3939 
Q 2509 4147 2053 4147 
L 1259 4147 
z
" transform="scale(0.015625)"/>
      <path id="DejaVuSans-6c" d="M 603 4863 
L 1178 4863 
L 1178 0 
L 603 0 
L 603 4863 
z
" transform="scale(0.015625)"/>
      <path id="DejaVuSans-6e" d="M 3513 2113 
L 3513 0 
L 2938 0 
L 2938 2094 
Q 2938 2591 2744 2837 
Q 2550 3084 2163 3084 
Q 1697 3084 1428 2787 
Q 1159 2491 1159 1978 
L 1159 0 
L 581 0 
L 581 3500 
L 1159 3500 
L 1159 2956 
Q 1366 3272 1645 3428 
Q 1925 3584 2291 3584 
Q 2894 3584 3203 3211 
Q 3513 2838 3513 2113 
z
" transform="scale(0.015625)"/>
      <path id="DejaVuSans-67" d="M 2906 1791 
Q 2906 2416 2648 2759 
Q 2391 3103 1925 3103 
Q 1463 3103 1205 2759 
Q 947 2416 947 1791 
Q 947 1169 1205 825 
Q 1463 481 1925 481 
Q 2391 481 2648 825 
Q 2906 1169 2906 1791 
z
M 3481 434 
Q 3481 -459 3084 -895 
Q 2688 -1331 1869 -1331 
Q 1566 -1331 1297 -1286 
Q 1028 -1241 775 -1147 
L 775 -588 
Q 1028 -725 1275 -790 
Q 1522 -856 1778 -856 
Q 2344 -856 2625 -561 
Q 2906 -266 2906 331 
L 2906 616 
Q 2728 306 2450 153 
Q 2172 0 1784 0 
Q 1141 0 747 490 
Q 353 981 353 1791 
Q 353 2603 747 3093 
Q 1141 3584 1784 3584 
Q 2172 3584 2450 3431 
Q 2728 3278 2906 2969 
L 2906 3500 
L 3481 3500 
L 3481 434 
z
" transform="scale(0.015625)"/>
      <path id="DejaVuSans-20" transform="scale(0.015625)"/>
      <path id="DejaVuSans-61" d="M 2194 1759 
Q 1497 1759 1228 1600 
Q 959 1441 959 1056 
Q 959 750 1161 570 
Q 1363 391 1709 391 
Q 2188 391 2477 730 
Q 2766 1069 2766 1631 
L 2766 1759 
L 2194 1759 
z
M 3341 1997 
L 3341 0 
L 2766 0 
L 2766 531 
Q 2569 213 2275 61 
Q 1981 -91 1556 -91 
Q 1019 -91 701 211 
Q 384 513 384 1019 
Q 384 1609 779 1909 
Q 1175 2209 1959 2209 
L 2766 2209 
L 2766 2266 
Q 2766 2663 2505 2880 
Q 2244 3097 1772 3097 
Q 1472 3097 1187 3025 
Q 903 2953 641 2809 
L 641 3341 
Q 956 3463 1253 3523 
Q 1550 3584 1831 3584 
Q 2591 3584 2966 3190 
Q 3341 2797 3341 1997 
z
" transform="scale(0.015625)"/>
      <path id="DejaVuSans-76" d="M 191 3500 
L 800 3500 
L 1894 563 
L 2988 3500 
L 3597 3500 
L 2284 0 
L 1503 0 
L 191 3500 
z
" transform="scale(0.015625)"/>
     </defs>
     <use xlink:href="#DejaVuSans-52"/>
     <use xlink:href="#DejaVuSans-6f" x="64.982422"/>
     <use xlink:href="#DejaVuSans-6c" x="126.164062"/>
     <use xlink:href="#DejaVuSans-6c" x="153.947266"/>
     <use xlink:href="#DejaVuSans-69" x="181.730469"/>
     <use xlink:href="#DejaVuSans-6e" x="209.513672"/>
     <use xlink:href="#DejaVuSans-67" x="272.892578"/>
     <use xlink:href="#DejaVuSans-20" x="336.369141"/>
     <use xlink:href="#DejaVuSans-61" x="368.15625"/>
     <use xlink:href="#DejaVuSans-76" x="429.435547"/>
     <use xlink:href="#DejaVuSans-65" x="488.615234"/>
     <use xlink:href="#DejaVuSans-72" x="550.138672"/>
     <use xlink:href="#DejaVuSans-61" x="591.251953"/>
     <use xlink:href="#DejaVuSans-67" x="652.53125"/>
     <use xlink:href="#DejaVuSans-65" x="716.007812"/>
     <use xlink:href="#DejaVuSans-20" x="777.53125"/>
     <use xlink:href="#DejaVuSans-74" x="809.318359"/>
     <use xlink:href="#DejaVuSans-72" x="848.527344"/>
     <use xlink:href="#DejaVuSans-61" x="889.640625"/>
     <use xlink:href="#DejaVuSans-69" x="950.919922"/>
     <use xlink:href="#DejaVuSans-6e" x="978.703125"/>
     <use xlink:href="#DejaVuSans-69" x="1042.082031"/>
     <use xlink:href="#DejaVuSans-6e" x="1069.865234"/>
     <use xlink:href="#DejaVuSans-67" x="1133.244141"/>
     <use xlink:href="#DejaVuSans-20" x="1196.720703"/>
     <use xlink:href="#DejaVuSans-70" x="1228.507812"/>
     <use xlink:href="#DejaVuSans-72" x="1291.984375"/>
     <use xlink:href="#DejaVuSans-6f" x="1330.847656"/>
     <use xlink:href="#DejaVuSans-67" x="1392.029297"/>
     <use xlink:href="#DejaVuSans-72" x="1455.505859"/>
     <use xlink:href="#DejaVuSans-65" x="1494.369141"/>
     <use xlink:href="#DejaVuSans-73" x="1555.892578"/>
     <use xlink:href="#DejaVuSans-73" x="1607.992188"/>
     <use xlink:href="#DejaVuSans-20" x="1660.091797"/>
     <use xlink:href="#DejaVuSans-6f" x="1691.878906"/>
     <use xlink:href="#DejaVuSans-66" x="1753.060547"/>
     <use xlink:href="#DejaVuSans-20" x="1788.265625"/>
     <use xlink:href="#DejaVuSans-70" x="1820.052734"/>
     <use xlink:href="#DejaVuSans-72" x="1883.529297"/>
     <use xlink:href="#DejaVuSans-6f" x="1922.392578"/>
     <use xlink:href="#DejaVuSans-66" x="1983.574219"/>
     <use xlink:href="#DejaVuSans-69" x="2018.779297"/>
     <use xlink:href="#DejaVuSans-74" x="2046.5625"/>
     <use xlink:href="#DejaVuSans-73" x="2085.771484"/>
     <use xlink:href="#DejaVuSans-2f" x="2137.871094"/>
     <use xlink:href="#DejaVuSans-72" x="2171.5625"/>
     <use xlink:href="#DejaVuSans-65" x="2210.425781"/>
     <use xlink:href="#DejaVuSans-62" x="2271.949219"/>
     <use xlink:href="#DejaVuSans-75" x="2335.425781"/>
     <use xlink:href="#DejaVuSans-79" x="2398.804688"/>
     <use xlink:href="#DejaVuSans-5f" x="2457.984375"/>
     <use xlink:href="#DejaVuSans-63" x="2507.984375"/>
     <use xlink:href="#DejaVuSans-6f" x="2562.964844"/>
     <use xlink:href="#DejaVuSans-73" x="2624.146484"/>
     <use xlink:href="#DejaVuSans-74" x="2676.246094"/>
    </g>
   </g>
   <g id="legend_1">
    <g id="patch_7">
     <path d="M 188.2825 302.584 
L 407.72 302.584 
Q 409.72 302.584 409.72 300.584 
L 409.72 272.22775 
Q 409.72 270.22775 407.72 270.22775 
L 188.2825 270.22775 
Q 186.2825 270.22775 186.2825 272.22775 
L 186.2825 300.584 
Q 186.2825 302.584 188.2825 302.584 
z
" style="fill: #ffffff; opacity: 0.8; stroke: #cccccc; stroke-linejoin: miter"/>
    </g>
    <g id="line2d_33">
     <path d="M 190.2825 278.326187 
L 200.2825 278.326187 
L 210.2825 278.326187 
" style="fill: none; stroke: #1f77b4; stroke-width: 1.5; stroke-linecap: square"/>
    </g>
    <g id="text_19">
     <!-- StableBaselinesSAC -->
     <g transform="translate(218.2825 281.826187)scale(0.1 -0.1)">
      <defs>
       <path id="DejaVuSans-53" d="M 3425 4513 
L 3425 3897 
Q 3066 4069 2747 4153 
Q 2428 4238 2131 4238 
Q 1616 4238 1336 4038 
Q 1056 3838 1056 3469 
Q 1056 3159 1242 3001 
Q 1428 2844 1947 2747 
L 2328 2669 
Q 3034 2534 3370 2195 
Q 3706 1856 3706 1288 
Q 3706 609 3251 259 
Q 2797 -91 1919 -91 
Q 1588 -91 1214 -16 
Q 841 59 441 206 
L 441 856 
Q 825 641 1194 531 
Q 1563 422 1919 422 
Q 2459 422 2753 634 
Q 3047 847 3047 1241 
Q 3047 1584 2836 1778 
Q 2625 1972 2144 2069 
L 1759 2144 
Q 1053 2284 737 2584 
Q 422 2884 422 3419 
Q 422 4038 858 4394 
Q 1294 4750 2059 4750 
Q 2388 4750 2728 4690 
Q 3069 4631 3425 4513 
z
" transform="scale(0.015625)"/>
       <path id="DejaVuSans-42" d="M 1259 2228 
L 1259 519 
L 2272 519 
Q 2781 519 3026 730 
Q 3272 941 3272 1375 
Q 3272 1813 3026 2020 
Q 2781 2228 2272 2228 
L 1259 2228 
z
M 1259 4147 
L 1259 2741 
L 2194 2741 
Q 2656 2741 2882 2914 
Q 3109 3088 3109 3444 
Q 3109 3797 2882 3972 
Q 2656 4147 2194 4147 
L 1259 4147 
z
M 628 4666 
L 2241 4666 
Q 2963 4666 3353 4366 
Q 3744 4066 3744 3513 
Q 3744 3084 3544 2831 
Q 3344 2578 2956 2516 
Q 3422 2416 3680 2098 
Q 3938 1781 3938 1306 
Q 3938 681 3513 340 
Q 3088 0 2303 0 
L 628 0 
L 628 4666 
z
" transform="scale(0.015625)"/>
       <path id="DejaVuSans-41" d="M 2188 4044 
L 1331 1722 
L 3047 1722 
L 2188 4044 
z
M 1831 4666 
L 2547 4666 
L 4325 0 
L 3669 0 
L 3244 1197 
L 1141 1197 
L 716 0 
L 50 0 
L 1831 4666 
z
" transform="scale(0.015625)"/>
       <path id="DejaVuSans-43" d="M 4122 4306 
L 4122 3641 
Q 3803 3938 3442 4084 
Q 3081 4231 2675 4231 
Q 1875 4231 1450 3742 
Q 1025 3253 1025 2328 
Q 1025 1406 1450 917 
Q 1875 428 2675 428 
Q 3081 428 3442 575 
Q 3803 722 4122 1019 
L 4122 359 
Q 3791 134 3420 21 
Q 3050 -91 2638 -91 
Q 1578 -91 968 557 
Q 359 1206 359 2328 
Q 359 3453 968 4101 
Q 1578 4750 2638 4750 
Q 3056 4750 3426 4639 
Q 3797 4528 4122 4306 
z
" transform="scale(0.015625)"/>
      </defs>
      <use xlink:href="#DejaVuSans-53"/>
      <use xlink:href="#DejaVuSans-74" x="63.476562"/>
      <use xlink:href="#DejaVuSans-61" x="102.685547"/>
      <use xlink:href="#DejaVuSans-62" x="163.964844"/>
      <use xlink:href="#DejaVuSans-6c" x="227.441406"/>
      <use xlink:href="#DejaVuSans-65" x="255.224609"/>
      <use xlink:href="#DejaVuSans-42" x="316.748047"/>
      <use xlink:href="#DejaVuSans-61" x="385.351562"/>
      <use xlink:href="#DejaVuSans-73" x="446.630859"/>
      <use xlink:href="#DejaVuSans-65" x="498.730469"/>
      <use xlink:href="#DejaVuSans-6c" x="560.253906"/>
      <use xlink:href="#DejaVuSans-69" x="588.037109"/>
      <use xlink:href="#DejaVuSans-6e" x="615.820312"/>
      <use xlink:href="#DejaVuSans-65" x="679.199219"/>
      <use xlink:href="#DejaVuSans-73" x="740.722656"/>
      <use xlink:href="#DejaVuSans-53" x="792.822266"/>
      <use xlink:href="#DejaVuSans-41" x="858.173828"/>
      <use xlink:href="#DejaVuSans-43" x="924.832031"/>
     </g>
    </g>
    <g id="line2d_34">
     <path d="M 190.2825 293.004312 
L 200.2825 293.004312 
L 210.2825 293.004312 
" style="fill: none; stroke: #ff7f0e; stroke-width: 1.5; stroke-linecap: square"/>
    </g>
    <g id="text_20">
     <!-- RuleBasedCERebuyAgentCompetitive -->
     <g transform="translate(218.2825 296.504312)scale(0.1 -0.1)">
      <defs>
       <path id="DejaVuSans-6d" d="M 3328 2828 
Q 3544 3216 3844 3400 
Q 4144 3584 4550 3584 
Q 5097 3584 5394 3201 
Q 5691 2819 5691 2113 
L 5691 0 
L 5113 0 
L 5113 2094 
Q 5113 2597 4934 2840 
Q 4756 3084 4391 3084 
Q 3944 3084 3684 2787 
Q 3425 2491 3425 1978 
L 3425 0 
L 2847 0 
L 2847 2094 
Q 2847 2600 2669 2842 
Q 2491 3084 2119 3084 
Q 1678 3084 1418 2786 
Q 1159 2488 1159 1978 
L 1159 0 
L 581 0 
L 581 3500 
L 1159 3500 
L 1159 2956 
Q 1356 3278 1631 3431 
Q 1906 3584 2284 3584 
Q 2666 3584 2933 3390 
Q 3200 3197 3328 2828 
z
" transform="scale(0.015625)"/>
      </defs>
      <use xlink:href="#DejaVuSans-52"/>
      <use xlink:href="#DejaVuSans-75" x="64.982422"/>
      <use xlink:href="#DejaVuSans-6c" x="128.361328"/>
      <use xlink:href="#DejaVuSans-65" x="156.144531"/>
      <use xlink:href="#DejaVuSans-42" x="217.667969"/>
      <use xlink:href="#DejaVuSans-61" x="286.271484"/>
      <use xlink:href="#DejaVuSans-73" x="347.550781"/>
      <use xlink:href="#DejaVuSans-65" x="399.650391"/>
      <use xlink:href="#DejaVuSans-64" x="461.173828"/>
      <use xlink:href="#DejaVuSans-43" x="524.650391"/>
      <use xlink:href="#DejaVuSans-45" x="594.474609"/>
      <use xlink:href="#DejaVuSans-52" x="657.658203"/>
      <use xlink:href="#DejaVuSans-65" x="722.640625"/>
      <use xlink:href="#DejaVuSans-62" x="784.164062"/>
      <use xlink:href="#DejaVuSans-75" x="847.640625"/>
      <use xlink:href="#DejaVuSans-79" x="911.019531"/>
      <use xlink:href="#DejaVuSans-41" x="970.199219"/>
      <use xlink:href="#DejaVuSans-67" x="1038.607422"/>
      <use xlink:href="#DejaVuSans-65" x="1102.083984"/>
      <use xlink:href="#DejaVuSans-6e" x="1163.607422"/>
      <use xlink:href="#DejaVuSans-74" x="1226.986328"/>
      <use xlink:href="#DejaVuSans-43" x="1266.195312"/>
      <use xlink:href="#DejaVuSans-6f" x="1336.019531"/>
      <use xlink:href="#DejaVuSans-6d" x="1397.201172"/>
      <use xlink:href="#DejaVuSans-70" x="1494.613281"/>
      <use xlink:href="#DejaVuSans-65" x="1558.089844"/>
      <use xlink:href="#DejaVuSans-74" x="1619.613281"/>
      <use xlink:href="#DejaVuSans-69" x="1658.822266"/>
      <use xlink:href="#DejaVuSans-74" x="1686.605469"/>
      <use xlink:href="#DejaVuSans-69" x="1725.814453"/>
      <use xlink:href="#DejaVuSans-76" x="1753.597656"/>
      <use xlink:href="#DejaVuSans-65" x="1812.777344"/>
     </g>
    </g>
   </g>
  </g>
 </g>
 <defs>
  <clipPath id="p665d614f67">
   <rect x="57.6" y="41.472" width="357.12" height="266.112"/>
  </clipPath>
 </defs>
</svg>
