<?xml version="1.0" encoding="utf-8" standalone="no"?>
<!DOCTYPE svg PUBLIC "-//W3C//DTD SVG 1.1//EN"
  "http://www.w3.org/Graphics/SVG/1.1/DTD/svg11.dtd">
<svg xmlns:xlink="http://www.w3.org/1999/xlink" width="460.8pt" height="345.6pt" viewBox="0 0 460.8 345.6" xmlns="http://www.w3.org/2000/svg" version="1.1">
 <metadata>
  <rdf:RDF xmlns:dc="http://purl.org/dc/elements/1.1/" xmlns:cc="http://creativecommons.org/ns#" xmlns:rdf="http://www.w3.org/1999/02/22-rdf-syntax-ns#">
   <cc:Work>
    <dc:type rdf:resource="http://purl.org/dc/dcmitype/StillImage"/>
    <dc:date>2022-06-16T12:02:59.577682</dc:date>
    <dc:format>image/svg+xml</dc:format>
    <dc:creator>
     <cc:Agent>
      <dc:title>Matplotlib v3.5.2, https://matplotlib.org/</dc:title>
     </cc:Agent>
    </dc:creator>
   </cc:Work>
  </rdf:RDF>
 </metadata>
 <defs>
  <style type="text/css">*{stroke-linejoin: round; stroke-linecap: butt}</style>
 </defs>
 <g id="figure_1">
  <g id="patch_1">
   <path d="M 0 345.6 
L 460.8 345.6 
L 460.8 0 
L 0 0 
z
" style="fill: #ffffff"/>
  </g>
  <g id="axes_1">
   <g id="patch_2">
    <path d="M 57.6 307.584 
L 414.72 307.584 
L 414.72 41.472 
L 57.6 41.472 
z
" style="fill: #ffffff"/>
   </g>
   <g id="PolyCollection_1">
    <path d="M 112.72314 260.162894 
L 109.901034 260.162894 
L 109.703333 258.223409 
L 109.4814 256.283923 
L 109.231345 254.344438 
L 108.949109 252.404953 
L 108.630806 250.465468 
L 108.273147 248.525982 
L 107.8739 246.586497 
L 107.432351 244.647012 
L 106.949697 242.707526 
L 106.429308 240.768041 
L 105.876799 238.828556 
L 105.299866 236.889071 
L 104.707866 234.949585 
L 104.111151 233.0101 
L 103.520205 231.070615 
L 102.944658 229.131129 
L 102.392278 227.191644 
L 101.868065 225.252159 
L 101.373549 223.312673 
L 100.906395 221.373188 
L 100.460364 219.433703 
L 100.025667 217.494218 
L 99.589679 215.554732 
L 99.137951 213.615247 
L 98.65542 211.675762 
L 98.127697 209.736276 
L 97.542308 207.796791 
L 96.889757 205.857306 
L 96.164327 203.917821 
L 95.364524 201.978335 
L 94.49316 200.03885 
L 93.557063 198.099365 
L 92.566471 196.159879 
L 91.534195 194.220394 
L 90.474636 192.280909 
L 89.402779 190.341424 
L 88.333268 188.401938 
L 87.279626 186.462453 
L 86.253709 184.522968 
L 85.265387 182.583482 
L 84.322463 180.643997 
L 83.43078 178.704512 
L 82.594456 176.765027 
L 81.816186 174.825541 
L 81.097536 172.886056 
L 80.439172 170.946571 
L 79.840997 169.007085 
L 79.302166 167.0676 
L 78.821005 165.128115 
L 78.394858 163.188629 
L 78.019912 161.249144 
L 77.691064 159.309659 
L 77.401879 157.370174 
L 77.144708 155.430688 
L 76.910976 153.491203 
L 76.691672 151.551718 
L 76.477994 149.612232 
L 76.262105 147.672747 
L 76.037915 145.733262 
L 75.801774 143.793777 
L 75.552985 141.854291 
L 75.294031 139.914806 
L 75.030463 137.975321 
L 74.770429 136.035835 
L 74.523876 134.09635 
L 74.301516 132.156865 
L 74.113678 130.21738 
L 73.969189 128.277894 
L 73.874434 126.338409 
L 73.832727 124.398924 
L 73.844054 122.459438 
L 73.905244 120.519953 
L 74.010539 118.580468 
L 74.152477 116.640982 
L 74.323005 114.701497 
L 74.51468 112.762012 
L 74.721831 110.822527 
L 74.941577 108.883041 
L 75.174581 106.943556 
L 75.425501 105.004071 
L 75.703069 103.064585 
L 76.019815 101.1251 
L 76.391425 99.185615 
L 76.835806 97.24613 
L 77.371881 95.306644 
L 78.018229 93.367159 
L 78.79165 91.427674 
L 79.705757 89.488188 
L 80.769715 87.548703 
L 81.987219 85.609218 
L 83.355798 83.669733 
L 84.866513 81.730247 
L 86.50408 79.790762 
L 88.247411 77.851277 
L 90.070547 75.911791 
L 91.943903 73.972306 
L 93.835747 72.032821 
L 95.713783 70.093336 
L 97.546742 68.15385 
L 125.077432 68.15385 
L 125.077432 68.15385 
L 126.910392 70.093336 
L 128.788428 72.032821 
L 130.680271 73.972306 
L 132.553628 75.911791 
L 134.376763 77.851277 
L 136.120095 79.790762 
L 137.757662 81.730247 
L 139.268377 83.669733 
L 140.636956 85.609218 
L 141.854459 87.548703 
L 142.918418 89.488188 
L 143.832525 91.427674 
L 144.605945 93.367159 
L 145.252294 95.306644 
L 145.788368 97.24613 
L 146.232749 99.185615 
L 146.60436 101.1251 
L 146.921105 103.064585 
L 147.198673 105.004071 
L 147.449593 106.943556 
L 147.682598 108.883041 
L 147.902343 110.822527 
L 148.109495 112.762012 
L 148.301169 114.701497 
L 148.471697 116.640982 
L 148.613635 118.580468 
L 148.71893 120.519953 
L 148.780121 122.459438 
L 148.791447 124.398924 
L 148.74974 126.338409 
L 148.654986 128.277894 
L 148.510496 130.21738 
L 148.322658 132.156865 
L 148.100299 134.09635 
L 147.853745 136.035835 
L 147.593711 137.975321 
L 147.330144 139.914806 
L 147.071189 141.854291 
L 146.8224 143.793777 
L 146.58626 145.733262 
L 146.362069 147.672747 
L 146.146181 149.612232 
L 145.932503 151.551718 
L 145.713199 153.491203 
L 145.479467 155.430688 
L 145.222295 157.370174 
L 144.933111 159.309659 
L 144.604262 161.249144 
L 144.229317 163.188629 
L 143.80317 165.128115 
L 143.322009 167.0676 
L 142.783177 169.007085 
L 142.185002 170.946571 
L 141.526639 172.886056 
L 140.807989 174.825541 
L 140.029719 176.765027 
L 139.193395 178.704512 
L 138.301712 180.643997 
L 137.358788 182.583482 
L 136.370466 184.522968 
L 135.344549 186.462453 
L 134.290907 188.401938 
L 133.221395 190.341424 
L 132.149539 192.280909 
L 131.08998 194.220394 
L 130.057703 196.159879 
L 129.067112 198.099365 
L 128.131014 200.03885 
L 127.259651 201.978335 
L 126.459848 203.917821 
L 125.734418 205.857306 
L 125.081867 207.796791 
L 124.496477 209.736276 
L 123.968754 211.675762 
L 123.486223 213.615247 
L 123.034496 215.554732 
L 122.598508 217.494218 
L 122.163811 219.433703 
L 121.71778 221.373188 
L 121.250625 223.312673 
L 120.75611 225.252159 
L 120.231897 227.191644 
L 119.679516 229.131129 
L 119.103969 231.070615 
L 118.513024 233.0101 
L 117.916309 234.949585 
L 117.324309 236.889071 
L 116.747375 238.828556 
L 116.194866 240.768041 
L 115.674477 242.707526 
L 115.191823 244.647012 
L 114.750274 246.586497 
L 114.351027 248.525982 
L 113.993368 250.465468 
L 113.675066 252.404953 
L 113.39283 254.344438 
L 113.142775 256.283923 
L 112.920842 258.223409 
L 112.72314 260.162894 
z
" clip-path="url(#p30bf3d10c5)" style="fill: #1f77b4; fill-opacity: 0.3"/>
   </g>
   <g id="PolyCollection_2">
    <path d="M 195.836521 275.432456 
L 193.362587 275.432456 
L 193.154354 273.232838 
L 192.91887 271.03322 
L 192.655603 268.833602 
L 192.365629 266.633984 
L 192.05196 264.434366 
L 191.719679 262.234748 
L 191.375807 260.03513 
L 191.028889 257.835512 
L 190.688309 255.635894 
L 190.363405 253.436276 
L 190.062486 251.236658 
L 189.791884 249.03704 
L 189.555188 246.837421 
L 189.352742 244.637803 
L 189.181517 242.438185 
L 189.035327 240.238567 
L 188.905381 238.038949 
L 188.781064 235.839331 
L 188.650832 233.639713 
L 188.503116 231.440095 
L 188.327119 229.240477 
L 188.113459 227.040859 
L 187.854627 224.841241 
L 187.545277 222.641623 
L 187.18237 220.442005 
L 186.765216 218.242387 
L 186.295424 216.042769 
L 185.776751 213.843151 
L 185.214826 211.643533 
L 184.616717 209.443915 
L 183.990308 207.244297 
L 183.343498 205.044679 
L 182.683262 202.845061 
L 182.014684 200.645443 
L 181.340076 198.445825 
L 180.658344 196.246207 
L 179.964732 194.046589 
L 179.25102 191.846971 
L 178.506205 189.647353 
L 177.717619 187.447735 
L 176.872331 185.248116 
L 175.958688 183.048498 
L 174.967793 180.84888 
L 173.894748 178.649262 
L 172.739553 176.449644 
L 171.507598 174.250026 
L 170.209748 172.050408 
L 168.862089 169.85079 
L 167.48538 167.651172 
L 166.104295 165.451554 
L 164.746458 163.251936 
L 163.441277 161.052318 
L 162.218545 158.8527 
L 161.106784 156.653082 
L 160.131359 154.453464 
L 159.312453 152.253846 
L 158.663087 150.054228 
L 158.187436 147.85461 
L 157.879719 145.654992 
L 157.723949 143.455374 
L 157.694714 141.255756 
L 157.759054 139.056138 
L 157.879325 136.85652 
L 158.01678 134.656902 
L 158.135481 132.457284 
L 158.206064 130.257666 
L 158.208894 128.058048 
L 158.136215 125.858429 
L 157.993016 123.658811 
L 157.796518 121.459193 
L 157.574338 119.259575 
L 157.361588 117.059957 
L 157.197237 114.860339 
L 157.120194 112.660721 
L 157.165553 110.461103 
L 157.361418 108.261485 
L 157.726633 106.061867 
L 158.269631 103.862249 
L 158.988457 101.662631 
L 159.871895 99.463013 
L 160.901476 97.263395 
L 162.05407 95.063777 
L 163.304691 92.864159 
L 164.62915 90.664541 
L 166.006212 88.464923 
L 167.41904 86.265305 
L 168.85578 84.065687 
L 170.309301 81.866069 
L 171.776217 79.666451 
L 173.255406 77.466833 
L 174.746325 75.267215 
L 176.247385 73.067597 
L 177.754659 70.867979 
L 179.261086 68.668361 
L 180.756273 66.468743 
L 182.226855 64.269124 
L 183.657337 62.069506 
L 185.031254 59.869888 
L 186.332452 57.67027 
L 202.866656 57.67027 
L 202.866656 57.67027 
L 204.167854 59.869888 
L 205.541771 62.069506 
L 206.972254 64.269124 
L 208.442835 66.468743 
L 209.938022 68.668361 
L 211.444449 70.867979 
L 212.951723 73.067597 
L 214.452783 75.267215 
L 215.943702 77.466833 
L 217.422892 79.666451 
L 218.889807 81.866069 
L 220.343328 84.065687 
L 221.780068 86.265305 
L 223.192896 88.464923 
L 224.569958 90.664541 
L 225.894417 92.864159 
L 227.145039 95.063777 
L 228.297632 97.263395 
L 229.327213 99.463013 
L 230.210651 101.662631 
L 230.929477 103.862249 
L 231.472475 106.061867 
L 231.83769 108.261485 
L 232.033555 110.461103 
L 232.078914 112.660721 
L 232.001871 114.860339 
L 231.83752 117.059957 
L 231.62477 119.259575 
L 231.40259 121.459193 
L 231.206092 123.658811 
L 231.062894 125.858429 
L 230.990215 128.058048 
L 230.993044 130.257666 
L 231.063627 132.457284 
L 231.182328 134.656902 
L 231.319783 136.85652 
L 231.440054 139.056138 
L 231.504395 141.255756 
L 231.47516 143.455374 
L 231.319389 145.654992 
L 231.011672 147.85461 
L 230.536021 150.054228 
L 229.886656 152.253846 
L 229.067749 154.453464 
L 228.092324 156.653082 
L 226.980563 158.8527 
L 225.757831 161.052318 
L 224.45265 163.251936 
L 223.094813 165.451554 
L 221.713728 167.651172 
L 220.33702 169.85079 
L 218.98936 172.050408 
L 217.69151 174.250026 
L 216.459555 176.449644 
L 215.304361 178.649262 
L 214.231315 180.84888 
L 213.24042 183.048498 
L 212.326778 185.248116 
L 211.481489 187.447735 
L 210.692903 189.647353 
L 209.948089 191.846971 
L 209.234376 194.046589 
L 208.540764 196.246207 
L 207.859033 198.445825 
L 207.184424 200.645443 
L 206.515846 202.845061 
L 205.85561 205.044679 
L 205.2088 207.244297 
L 204.582391 209.443915 
L 203.984282 211.643533 
L 203.422357 213.843151 
L 202.903684 216.042769 
L 202.433892 218.242387 
L 202.016738 220.442005 
L 201.653831 222.641623 
L 201.344481 224.841241 
L 201.085649 227.040859 
L 200.87199 229.240477 
L 200.695993 231.440095 
L 200.548276 233.639713 
L 200.418045 235.839331 
L 200.293727 238.038949 
L 200.163781 240.238567 
L 200.017591 242.438185 
L 199.846366 244.637803 
L 199.643921 246.837421 
L 199.407224 249.03704 
L 199.136623 251.236658 
L 198.835703 253.436276 
L 198.510799 255.635894 
L 198.17022 257.835512 
L 197.823301 260.03513 
L 197.479429 262.234748 
L 197.147148 264.434366 
L 196.83348 266.633984 
L 196.543505 268.833602 
L 196.280238 271.03322 
L 196.044755 273.232838 
L 195.836521 275.432456 
z
" clip-path="url(#p30bf3d10c5)" style="fill: #1f77b4; fill-opacity: 0.3"/>
   </g>
   <g id="PolyCollection_3">
    <path d="M 279.197291 269.84881 
L 276.57675 269.84881 
L 276.354814 267.664156 
L 276.105252 265.479501 
L 275.826525 263.294846 
L 275.517686 261.110192 
L 275.178518 258.925537 
L 274.809617 256.740882 
L 274.412446 254.556228 
L 273.989356 252.371573 
L 273.543624 250.186918 
L 273.079509 248.002264 
L 272.602326 245.817609 
L 272.118521 243.632954 
L 271.635688 241.4483 
L 271.162454 239.263645 
L 270.708186 237.07899 
L 270.282461 234.894336 
L 269.894298 232.709681 
L 269.551196 230.525027 
L 269.258084 228.340372 
L 269.016296 226.155717 
L 268.822756 223.971063 
L 268.669482 221.786408 
L 268.543547 219.601753 
L 268.427537 217.417099 
L 268.300493 215.232444 
L 268.139262 213.047789 
L 267.920109 210.863135 
L 267.620436 208.67848 
L 267.220424 206.493825 
L 266.704439 204.309171 
L 266.062099 202.124516 
L 265.288928 199.939861 
L 264.386576 197.755207 
L 263.362637 195.570552 
L 262.23011 193.385897 
L 261.006562 191.201243 
L 259.713057 189.016588 
L 258.372908 186.831934 
L 257.010325 184.647279 
L 255.649025 182.462624 
L 254.310892 180.27797 
L 253.014806 178.093315 
L 251.775728 175.90866 
L 250.604151 173.724006 
L 249.505985 171.539351 
L 248.482872 169.354696 
L 247.532917 167.170042 
L 246.651713 164.985387 
L 245.833535 162.800732 
L 245.072549 160.616078 
L 244.363872 158.431423 
L 243.70439 156.246768 
L 243.093226 154.062114 
L 242.531861 151.877459 
L 242.023907 149.692805 
L 241.574586 147.50815 
L 241.190014 145.323495 
L 240.876376 143.138841 
L 240.639102 140.954186 
L 240.482177 138.769531 
L 240.407661 136.584877 
L 240.415519 134.400222 
L 240.503795 132.215567 
L 240.669095 130.030913 
L 240.907324 127.846258 
L 241.214523 125.661603 
L 241.587645 123.476949 
L 242.025116 121.292294 
L 242.52705 119.107639 
L 243.095082 116.922985 
L 243.731857 114.73833 
L 244.44029 112.553676 
L 245.222763 110.369021 
L 246.080432 108.184366 
L 247.012752 105.999712 
L 248.017301 103.815057 
L 249.089859 101.630402 
L 250.224675 99.445748 
L 251.41482 97.261093 
L 252.652513 95.076438 
L 253.929383 92.891784 
L 255.236634 90.707129 
L 256.565163 88.522474 
L 257.905659 86.33782 
L 259.248746 84.153165 
L 260.585169 81.96851 
L 261.906023 79.783856 
L 263.202971 77.599201 
L 264.468416 75.414546 
L 265.695583 73.229892 
L 266.878505 71.045237 
L 268.011924 68.860583 
L 269.09116 66.675928 
L 270.111989 64.491273 
L 271.070581 62.306619 
L 271.963523 60.121964 
L 272.787924 57.937309 
L 273.541586 55.752655 
L 274.223199 53.568 
L 281.550843 53.568 
L 281.550843 53.568 
L 282.232456 55.752655 
L 282.986118 57.937309 
L 283.810519 60.121964 
L 284.70346 62.306619 
L 285.662053 64.491273 
L 286.682882 66.675928 
L 287.762118 68.860583 
L 288.895537 71.045237 
L 290.078459 73.229892 
L 291.305626 75.414546 
L 292.571071 77.599201 
L 293.868018 79.783856 
L 295.188872 81.96851 
L 296.525296 84.153165 
L 297.868383 86.33782 
L 299.208879 88.522474 
L 300.537408 90.707129 
L 301.844659 92.891784 
L 303.121529 95.076438 
L 304.359222 97.261093 
L 305.549366 99.445748 
L 306.684183 101.630402 
L 307.756741 103.815057 
L 308.76129 105.999712 
L 309.69361 108.184366 
L 310.551278 110.369021 
L 311.333752 112.553676 
L 312.042184 114.73833 
L 312.67896 116.922985 
L 313.246992 119.107639 
L 313.748926 121.292294 
L 314.186397 123.476949 
L 314.559519 125.661603 
L 314.866718 127.846258 
L 315.104947 130.030913 
L 315.270247 132.215567 
L 315.358522 134.400222 
L 315.366381 136.584877 
L 315.291865 138.769531 
L 315.134939 140.954186 
L 314.897666 143.138841 
L 314.584028 145.323495 
L 314.199456 147.50815 
L 313.750135 149.692805 
L 313.24218 151.877459 
L 312.680816 154.062114 
L 312.069652 156.246768 
L 311.41017 158.431423 
L 310.701493 160.616078 
L 309.940506 162.800732 
L 309.122329 164.985387 
L 308.241125 167.170042 
L 307.29117 169.354696 
L 306.268057 171.539351 
L 305.169891 173.724006 
L 303.998314 175.90866 
L 302.759236 178.093315 
L 301.46315 180.27797 
L 300.125017 182.462624 
L 298.763716 184.647279 
L 297.401134 186.831934 
L 296.060985 189.016588 
L 294.767479 191.201243 
L 293.543932 193.385897 
L 292.411405 195.570552 
L 291.387466 197.755207 
L 290.485113 199.939861 
L 289.711943 202.124516 
L 289.069603 204.309171 
L 288.553618 206.493825 
L 288.153605 208.67848 
L 287.853933 210.863135 
L 287.63478 213.047789 
L 287.473549 215.232444 
L 287.346505 217.417099 
L 287.230495 219.601753 
L 287.10456 221.786408 
L 286.951286 223.971063 
L 286.757746 226.155717 
L 286.515958 228.340372 
L 286.222845 230.525027 
L 285.879744 232.709681 
L 285.49158 234.894336 
L 285.065856 237.07899 
L 284.611588 239.263645 
L 284.138354 241.4483 
L 283.65552 243.632954 
L 283.171716 245.817609 
L 282.694533 248.002264 
L 282.230418 250.186918 
L 281.784686 252.371573 
L 281.361596 254.556228 
L 280.964424 256.740882 
L 280.595524 258.925537 
L 280.256356 261.110192 
L 279.947517 263.294846 
L 279.66879 265.479501 
L 279.419228 267.664156 
L 279.197291 269.84881 
z
" clip-path="url(#p30bf3d10c5)" style="fill: #1f77b4; fill-opacity: 0.3"/>
   </g>
   <g id="PolyCollection_4">
    <path d="M 363.989219 295.488 
L 358.026607 295.488 
L 357.653213 293.221622 
L 357.263128 290.955244 
L 356.859286 288.688867 
L 356.445126 286.422489 
L 356.024604 284.156111 
L 355.60216 281.889733 
L 355.182618 279.623356 
L 354.771007 277.356978 
L 354.372317 275.0906 
L 353.991216 272.824222 
L 353.631748 270.557845 
L 353.297075 268.291467 
L 352.989264 266.025089 
L 352.709174 263.758711 
L 352.45642 261.492333 
L 352.229425 259.225956 
L 352.025503 256.959578 
L 351.840966 254.6932 
L 351.671196 252.426822 
L 351.510679 250.160445 
L 351.352995 247.894067 
L 351.190788 245.627689 
L 351.015766 243.361311 
L 350.818781 241.094934 
L 350.590043 238.828556 
L 350.319493 236.562178 
L 349.997359 234.2958 
L 349.614836 232.029423 
L 349.164839 229.763045 
L 348.642728 227.496667 
L 348.046894 225.230289 
L 347.379114 222.963911 
L 346.644596 220.697534 
L 345.851678 218.431156 
L 345.011204 216.164778 
L 344.135641 213.8984 
L 343.238025 211.632023 
L 342.330892 209.365645 
L 341.425287 207.099267 
L 340.530003 204.832889 
L 339.6511 202.566512 
L 338.79176 200.300134 
L 337.952464 198.033756 
L 337.131439 195.767378 
L 336.325293 193.501 
L 335.529751 191.234623 
L 334.740387 188.968245 
L 333.953277 186.701867 
L 333.165531 184.435489 
L 332.375653 182.169112 
L 331.583755 179.902734 
L 330.791631 177.636356 
L 330.002725 175.369978 
L 329.222027 173.103601 
L 328.455914 170.837223 
L 327.711973 168.570845 
L 326.998786 166.304467 
L 326.325705 164.038089 
L 325.702591 161.771712 
L 325.139519 159.505334 
L 324.64646 157.238956 
L 324.23293 154.972578 
L 323.907629 152.706201 
L 323.678082 150.439823 
L 323.550309 148.173445 
L 323.528553 145.907067 
L 323.615073 143.64069 
L 323.810059 141.374312 
L 324.111655 139.107934 
L 324.516114 136.841556 
L 325.018083 134.575179 
L 325.610983 132.308801 
L 326.28747 130.042423 
L 327.039905 127.776045 
L 327.860809 125.509667 
L 328.743224 123.24329 
L 329.680972 120.976912 
L 330.668765 118.710534 
L 331.702185 116.444156 
L 332.777547 114.177779 
L 333.891678 111.911401 
L 335.041666 109.645023 
L 336.224597 107.378645 
L 337.437331 105.112268 
L 338.676318 102.84589 
L 339.937466 100.579512 
L 341.216048 98.313134 
L 342.506645 96.046756 
L 343.803113 93.780379 
L 345.098574 91.514001 
L 346.385444 89.247623 
L 347.655501 86.981245 
L 348.900017 84.714868 
L 350.109959 82.44849 
L 351.276252 80.182112 
L 352.390107 77.915734 
L 353.443381 75.649357 
L 354.428932 73.382979 
L 355.340947 71.116601 
L 366.674878 71.116601 
L 366.674878 71.116601 
L 367.586893 73.382979 
L 368.572444 75.649357 
L 369.625718 77.915734 
L 370.739573 80.182112 
L 371.905866 82.44849 
L 373.115808 84.714868 
L 374.360325 86.981245 
L 375.630382 89.247623 
L 376.917251 91.514001 
L 378.212713 93.780379 
L 379.50918 96.046756 
L 380.799777 98.313134 
L 382.078359 100.579512 
L 383.339507 102.84589 
L 384.578495 105.112268 
L 385.791229 107.378645 
L 386.97416 109.645023 
L 388.124147 111.911401 
L 389.238279 114.177779 
L 390.31364 116.444156 
L 391.34706 118.710534 
L 392.334853 120.976912 
L 393.272601 123.24329 
L 394.155017 125.509667 
L 394.97592 127.776045 
L 395.728356 130.042423 
L 396.404842 132.308801 
L 396.997742 134.575179 
L 397.499711 136.841556 
L 397.90417 139.107934 
L 398.205766 141.374312 
L 398.400752 143.64069 
L 398.487273 145.907067 
L 398.465516 148.173445 
L 398.337744 150.439823 
L 398.108197 152.706201 
L 397.782895 154.972578 
L 397.369366 157.238956 
L 396.876307 159.505334 
L 396.313235 161.771712 
L 395.69012 164.038089 
L 395.01704 166.304467 
L 394.303853 168.570845 
L 393.559911 170.837223 
L 392.793798 173.103601 
L 392.0131 175.369978 
L 391.224195 177.636356 
L 390.432071 179.902734 
L 389.640172 182.169112 
L 388.850294 184.435489 
L 388.062548 186.701867 
L 387.275439 188.968245 
L 386.486074 191.234623 
L 385.690532 193.501 
L 384.884386 195.767378 
L 384.063361 198.033756 
L 383.224065 200.300134 
L 382.364725 202.566512 
L 381.485822 204.832889 
L 380.590538 207.099267 
L 379.684934 209.365645 
L 378.7778 211.632023 
L 377.880185 213.8984 
L 377.004621 216.164778 
L 376.164148 218.431156 
L 375.371229 220.697534 
L 374.636711 222.963911 
L 373.968932 225.230289 
L 373.373098 227.496667 
L 372.850986 229.763045 
L 372.400989 232.029423 
L 372.018466 234.2958 
L 371.696332 236.562178 
L 371.425783 238.828556 
L 371.197044 241.094934 
L 371.00006 243.361311 
L 370.825038 245.627689 
L 370.66283 247.894067 
L 370.505146 250.160445 
L 370.344629 252.426822 
L 370.174859 254.6932 
L 369.990322 256.959578 
L 369.7864 259.225956 
L 369.559405 261.492333 
L 369.306651 263.758711 
L 369.026561 266.025089 
L 368.71875 268.291467 
L 368.384077 270.557845 
L 368.02461 272.824222 
L 367.643508 275.0906 
L 367.244819 277.356978 
L 366.833207 279.623356 
L 366.413666 281.889733 
L 365.991222 284.156111 
L 365.570699 286.422489 
L 365.156539 288.688867 
L 364.752698 290.955244 
L 364.362612 293.221622 
L 363.989219 295.488 
z
" clip-path="url(#p30bf3d10c5)" style="fill: #1f77b4; fill-opacity: 0.3"/>
   </g>
   <g id="matplotlib.axis_1">
    <g id="xtick_1">
     <g id="line2d_1">
      <defs>
       <path id="mad9ee37714" d="M 0 0 
L 0 3.5 
" style="stroke: #000000; stroke-width: 0.8"/>
      </defs>
      <g>
       <use xlink:href="#mad9ee37714" x="69.668354" y="307.584" style="stroke: #000000; stroke-width: 0.8"/>
      </g>
     </g>
     <g id="text_1">
      <!-- 250 -->
      <g transform="translate(60.124604 322.182437)scale(0.1 -0.1)">
       <defs>
        <path id="DejaVuSans-32" d="M 1228 531 
L 3431 531 
L 3431 0 
L 469 0 
L 469 531 
Q 828 903 1448 1529 
Q 2069 2156 2228 2338 
Q 2531 2678 2651 2914 
Q 2772 3150 2772 3378 
Q 2772 3750 2511 3984 
Q 2250 4219 1831 4219 
Q 1534 4219 1204 4116 
Q 875 4013 500 3803 
L 500 4441 
Q 881 4594 1212 4672 
Q 1544 4750 1819 4750 
Q 2544 4750 2975 4387 
Q 3406 4025 3406 3419 
Q 3406 3131 3298 2873 
Q 3191 2616 2906 2266 
Q 2828 2175 2409 1742 
Q 1991 1309 1228 531 
z
" transform="scale(0.015625)"/>
        <path id="DejaVuSans-35" d="M 691 4666 
L 3169 4666 
L 3169 4134 
L 1269 4134 
L 1269 2991 
Q 1406 3038 1543 3061 
Q 1681 3084 1819 3084 
Q 2600 3084 3056 2656 
Q 3513 2228 3513 1497 
Q 3513 744 3044 326 
Q 2575 -91 1722 -91 
Q 1428 -91 1123 -41 
Q 819 9 494 109 
L 494 744 
Q 775 591 1075 516 
Q 1375 441 1709 441 
Q 2250 441 2565 725 
Q 2881 1009 2881 1497 
Q 2881 1984 2565 2268 
Q 2250 2553 1709 2553 
Q 1456 2553 1204 2497 
Q 953 2441 691 2322 
L 691 4666 
z
" transform="scale(0.015625)"/>
        <path id="DejaVuSans-30" d="M 2034 4250 
Q 1547 4250 1301 3770 
Q 1056 3291 1056 2328 
Q 1056 1369 1301 889 
Q 1547 409 2034 409 
Q 2525 409 2770 889 
Q 3016 1369 3016 2328 
Q 3016 3291 2770 3770 
Q 2525 4250 2034 4250 
z
M 2034 4750 
Q 2819 4750 3233 4129 
Q 3647 3509 3647 2328 
Q 3647 1150 3233 529 
Q 2819 -91 2034 -91 
Q 1250 -91 836 529 
Q 422 1150 422 2328 
Q 422 3509 836 4129 
Q 1250 4750 2034 4750 
z
" transform="scale(0.015625)"/>
       </defs>
       <use xlink:href="#DejaVuSans-32"/>
       <use xlink:href="#DejaVuSans-35" x="63.623047"/>
       <use xlink:href="#DejaVuSans-30" x="127.246094"/>
      </g>
     </g>
    </g>
    <g id="xtick_2">
     <g id="line2d_2">
      <g>
       <use xlink:href="#mad9ee37714" x="111.312087" y="307.584" style="stroke: #000000; stroke-width: 0.8"/>
      </g>
     </g>
     <g id="text_2">
      <!-- 500 -->
      <g transform="translate(101.768337 322.182437)scale(0.1 -0.1)">
       <use xlink:href="#DejaVuSans-35"/>
       <use xlink:href="#DejaVuSans-30" x="63.623047"/>
       <use xlink:href="#DejaVuSans-30" x="127.246094"/>
      </g>
     </g>
    </g>
    <g id="xtick_3">
     <g id="line2d_3">
      <g>
       <use xlink:href="#mad9ee37714" x="152.955821" y="307.584" style="stroke: #000000; stroke-width: 0.8"/>
      </g>
     </g>
     <g id="text_3">
      <!-- 750 -->
      <g transform="translate(143.412071 322.182437)scale(0.1 -0.1)">
       <defs>
        <path id="DejaVuSans-37" d="M 525 4666 
L 3525 4666 
L 3525 4397 
L 1831 0 
L 1172 0 
L 2766 4134 
L 525 4134 
L 525 4666 
z
" transform="scale(0.015625)"/>
       </defs>
       <use xlink:href="#DejaVuSans-37"/>
       <use xlink:href="#DejaVuSans-35" x="63.623047"/>
       <use xlink:href="#DejaVuSans-30" x="127.246094"/>
      </g>
     </g>
    </g>
    <g id="xtick_4">
     <g id="line2d_4">
      <g>
       <use xlink:href="#mad9ee37714" x="194.599554" y="307.584" style="stroke: #000000; stroke-width: 0.8"/>
      </g>
     </g>
     <g id="text_4">
      <!-- 1000 -->
      <g transform="translate(181.874554 322.182437)scale(0.1 -0.1)">
       <defs>
        <path id="DejaVuSans-31" d="M 794 531 
L 1825 531 
L 1825 4091 
L 703 3866 
L 703 4441 
L 1819 4666 
L 2450 4666 
L 2450 531 
L 3481 531 
L 3481 0 
L 794 0 
L 794 531 
z
" transform="scale(0.015625)"/>
       </defs>
       <use xlink:href="#DejaVuSans-31"/>
       <use xlink:href="#DejaVuSans-30" x="63.623047"/>
       <use xlink:href="#DejaVuSans-30" x="127.246094"/>
       <use xlink:href="#DejaVuSans-30" x="190.869141"/>
      </g>
     </g>
    </g>
    <g id="xtick_5">
     <g id="line2d_5">
      <g>
       <use xlink:href="#mad9ee37714" x="236.243287" y="307.584" style="stroke: #000000; stroke-width: 0.8"/>
      </g>
     </g>
     <g id="text_5">
      <!-- 1250 -->
      <g transform="translate(223.518287 322.182437)scale(0.1 -0.1)">
       <use xlink:href="#DejaVuSans-31"/>
       <use xlink:href="#DejaVuSans-32" x="63.623047"/>
       <use xlink:href="#DejaVuSans-35" x="127.246094"/>
       <use xlink:href="#DejaVuSans-30" x="190.869141"/>
      </g>
     </g>
    </g>
    <g id="xtick_6">
     <g id="line2d_6">
      <g>
       <use xlink:href="#mad9ee37714" x="277.887021" y="307.584" style="stroke: #000000; stroke-width: 0.8"/>
      </g>
     </g>
     <g id="text_6">
      <!-- 1500 -->
      <g transform="translate(265.162021 322.182437)scale(0.1 -0.1)">
       <use xlink:href="#DejaVuSans-31"/>
       <use xlink:href="#DejaVuSans-35" x="63.623047"/>
       <use xlink:href="#DejaVuSans-30" x="127.246094"/>
       <use xlink:href="#DejaVuSans-30" x="190.869141"/>
      </g>
     </g>
    </g>
    <g id="xtick_7">
     <g id="line2d_7">
      <g>
       <use xlink:href="#mad9ee37714" x="319.530754" y="307.584" style="stroke: #000000; stroke-width: 0.8"/>
      </g>
     </g>
     <g id="text_7">
      <!-- 1750 -->
      <g transform="translate(306.805754 322.182437)scale(0.1 -0.1)">
       <use xlink:href="#DejaVuSans-31"/>
       <use xlink:href="#DejaVuSans-37" x="63.623047"/>
       <use xlink:href="#DejaVuSans-35" x="127.246094"/>
       <use xlink:href="#DejaVuSans-30" x="190.869141"/>
      </g>
     </g>
    </g>
    <g id="xtick_8">
     <g id="line2d_8">
      <g>
       <use xlink:href="#mad9ee37714" x="361.174488" y="307.584" style="stroke: #000000; stroke-width: 0.8"/>
      </g>
     </g>
     <g id="text_8">
      <!-- 2000 -->
      <g transform="translate(348.449488 322.182437)scale(0.1 -0.1)">
       <use xlink:href="#DejaVuSans-32"/>
       <use xlink:href="#DejaVuSans-30" x="63.623047"/>
       <use xlink:href="#DejaVuSans-30" x="127.246094"/>
       <use xlink:href="#DejaVuSans-30" x="190.869141"/>
      </g>
     </g>
    </g>
    <g id="xtick_9">
     <g id="line2d_9">
      <g>
       <use xlink:href="#mad9ee37714" x="402.818221" y="307.584" style="stroke: #000000; stroke-width: 0.8"/>
      </g>
     </g>
     <g id="text_9">
      <!-- 2250 -->
      <g transform="translate(390.093221 322.182437)scale(0.1 -0.1)">
       <use xlink:href="#DejaVuSans-32"/>
       <use xlink:href="#DejaVuSans-32" x="63.623047"/>
       <use xlink:href="#DejaVuSans-35" x="127.246094"/>
       <use xlink:href="#DejaVuSans-30" x="190.869141"/>
      </g>
     </g>
    </g>
    <g id="text_10">
     <!-- Learned Episodes -->
     <g transform="translate(192.102187 335.860562)scale(0.1 -0.1)">
      <defs>
       <path id="DejaVuSans-4c" d="M 628 4666 
L 1259 4666 
L 1259 531 
L 3531 531 
L 3531 0 
L 628 0 
L 628 4666 
z
" transform="scale(0.015625)"/>
       <path id="DejaVuSans-65" d="M 3597 1894 
L 3597 1613 
L 953 1613 
Q 991 1019 1311 708 
Q 1631 397 2203 397 
Q 2534 397 2845 478 
Q 3156 559 3463 722 
L 3463 178 
Q 3153 47 2828 -22 
Q 2503 -91 2169 -91 
Q 1331 -91 842 396 
Q 353 884 353 1716 
Q 353 2575 817 3079 
Q 1281 3584 2069 3584 
Q 2775 3584 3186 3129 
Q 3597 2675 3597 1894 
z
M 3022 2063 
Q 3016 2534 2758 2815 
Q 2500 3097 2075 3097 
Q 1594 3097 1305 2825 
Q 1016 2553 972 2059 
L 3022 2063 
z
" transform="scale(0.015625)"/>
       <path id="DejaVuSans-61" d="M 2194 1759 
Q 1497 1759 1228 1600 
Q 959 1441 959 1056 
Q 959 750 1161 570 
Q 1363 391 1709 391 
Q 2188 391 2477 730 
Q 2766 1069 2766 1631 
L 2766 1759 
L 2194 1759 
z
M 3341 1997 
L 3341 0 
L 2766 0 
L 2766 531 
Q 2569 213 2275 61 
Q 1981 -91 1556 -91 
Q 1019 -91 701 211 
Q 384 513 384 1019 
Q 384 1609 779 1909 
Q 1175 2209 1959 2209 
L 2766 2209 
L 2766 2266 
Q 2766 2663 2505 2880 
Q 2244 3097 1772 3097 
Q 1472 3097 1187 3025 
Q 903 2953 641 2809 
L 641 3341 
Q 956 3463 1253 3523 
Q 1550 3584 1831 3584 
Q 2591 3584 2966 3190 
Q 3341 2797 3341 1997 
z
" transform="scale(0.015625)"/>
       <path id="DejaVuSans-72" d="M 2631 2963 
Q 2534 3019 2420 3045 
Q 2306 3072 2169 3072 
Q 1681 3072 1420 2755 
Q 1159 2438 1159 1844 
L 1159 0 
L 581 0 
L 581 3500 
L 1159 3500 
L 1159 2956 
Q 1341 3275 1631 3429 
Q 1922 3584 2338 3584 
Q 2397 3584 2469 3576 
Q 2541 3569 2628 3553 
L 2631 2963 
z
" transform="scale(0.015625)"/>
       <path id="DejaVuSans-6e" d="M 3513 2113 
L 3513 0 
L 2938 0 
L 2938 2094 
Q 2938 2591 2744 2837 
Q 2550 3084 2163 3084 
Q 1697 3084 1428 2787 
Q 1159 2491 1159 1978 
L 1159 0 
L 581 0 
L 581 3500 
L 1159 3500 
L 1159 2956 
Q 1366 3272 1645 3428 
Q 1925 3584 2291 3584 
Q 2894 3584 3203 3211 
Q 3513 2838 3513 2113 
z
" transform="scale(0.015625)"/>
       <path id="DejaVuSans-64" d="M 2906 2969 
L 2906 4863 
L 3481 4863 
L 3481 0 
L 2906 0 
L 2906 525 
Q 2725 213 2448 61 
Q 2172 -91 1784 -91 
Q 1150 -91 751 415 
Q 353 922 353 1747 
Q 353 2572 751 3078 
Q 1150 3584 1784 3584 
Q 2172 3584 2448 3432 
Q 2725 3281 2906 2969 
z
M 947 1747 
Q 947 1113 1208 752 
Q 1469 391 1925 391 
Q 2381 391 2643 752 
Q 2906 1113 2906 1747 
Q 2906 2381 2643 2742 
Q 2381 3103 1925 3103 
Q 1469 3103 1208 2742 
Q 947 2381 947 1747 
z
" transform="scale(0.015625)"/>
       <path id="DejaVuSans-20" transform="scale(0.015625)"/>
       <path id="DejaVuSans-45" d="M 628 4666 
L 3578 4666 
L 3578 4134 
L 1259 4134 
L 1259 2753 
L 3481 2753 
L 3481 2222 
L 1259 2222 
L 1259 531 
L 3634 531 
L 3634 0 
L 628 0 
L 628 4666 
z
" transform="scale(0.015625)"/>
       <path id="DejaVuSans-70" d="M 1159 525 
L 1159 -1331 
L 581 -1331 
L 581 3500 
L 1159 3500 
L 1159 2969 
Q 1341 3281 1617 3432 
Q 1894 3584 2278 3584 
Q 2916 3584 3314 3078 
Q 3713 2572 3713 1747 
Q 3713 922 3314 415 
Q 2916 -91 2278 -91 
Q 1894 -91 1617 61 
Q 1341 213 1159 525 
z
M 3116 1747 
Q 3116 2381 2855 2742 
Q 2594 3103 2138 3103 
Q 1681 3103 1420 2742 
Q 1159 2381 1159 1747 
Q 1159 1113 1420 752 
Q 1681 391 2138 391 
Q 2594 391 2855 752 
Q 3116 1113 3116 1747 
z
" transform="scale(0.015625)"/>
       <path id="DejaVuSans-69" d="M 603 3500 
L 1178 3500 
L 1178 0 
L 603 0 
L 603 3500 
z
M 603 4863 
L 1178 4863 
L 1178 4134 
L 603 4134 
L 603 4863 
z
" transform="scale(0.015625)"/>
       <path id="DejaVuSans-73" d="M 2834 3397 
L 2834 2853 
Q 2591 2978 2328 3040 
Q 2066 3103 1784 3103 
Q 1356 3103 1142 2972 
Q 928 2841 928 2578 
Q 928 2378 1081 2264 
Q 1234 2150 1697 2047 
L 1894 2003 
Q 2506 1872 2764 1633 
Q 3022 1394 3022 966 
Q 3022 478 2636 193 
Q 2250 -91 1575 -91 
Q 1294 -91 989 -36 
Q 684 19 347 128 
L 347 722 
Q 666 556 975 473 
Q 1284 391 1588 391 
Q 1994 391 2212 530 
Q 2431 669 2431 922 
Q 2431 1156 2273 1281 
Q 2116 1406 1581 1522 
L 1381 1569 
Q 847 1681 609 1914 
Q 372 2147 372 2553 
Q 372 3047 722 3315 
Q 1072 3584 1716 3584 
Q 2034 3584 2315 3537 
Q 2597 3491 2834 3397 
z
" transform="scale(0.015625)"/>
       <path id="DejaVuSans-6f" d="M 1959 3097 
Q 1497 3097 1228 2736 
Q 959 2375 959 1747 
Q 959 1119 1226 758 
Q 1494 397 1959 397 
Q 2419 397 2687 759 
Q 2956 1122 2956 1747 
Q 2956 2369 2687 2733 
Q 2419 3097 1959 3097 
z
M 1959 3584 
Q 2709 3584 3137 3096 
Q 3566 2609 3566 1747 
Q 3566 888 3137 398 
Q 2709 -91 1959 -91 
Q 1206 -91 779 398 
Q 353 888 353 1747 
Q 353 2609 779 3096 
Q 1206 3584 1959 3584 
z
" transform="scale(0.015625)"/>
      </defs>
      <use xlink:href="#DejaVuSans-4c"/>
      <use xlink:href="#DejaVuSans-65" x="53.962891"/>
      <use xlink:href="#DejaVuSans-61" x="115.486328"/>
      <use xlink:href="#DejaVuSans-72" x="176.765625"/>
      <use xlink:href="#DejaVuSans-6e" x="216.128906"/>
      <use xlink:href="#DejaVuSans-65" x="279.507812"/>
      <use xlink:href="#DejaVuSans-64" x="341.03125"/>
      <use xlink:href="#DejaVuSans-20" x="404.507812"/>
      <use xlink:href="#DejaVuSans-45" x="436.294922"/>
      <use xlink:href="#DejaVuSans-70" x="499.478516"/>
      <use xlink:href="#DejaVuSans-69" x="562.955078"/>
      <use xlink:href="#DejaVuSans-73" x="590.738281"/>
      <use xlink:href="#DejaVuSans-6f" x="642.837891"/>
      <use xlink:href="#DejaVuSans-64" x="704.019531"/>
      <use xlink:href="#DejaVuSans-65" x="767.496094"/>
      <use xlink:href="#DejaVuSans-73" x="829.019531"/>
     </g>
    </g>
   </g>
   <g id="matplotlib.axis_2">
    <g id="ytick_1">
     <g id="line2d_10">
      <defs>
       <path id="m35165d4016" d="M 0 0 
L -3.5 0 
" style="stroke: #000000; stroke-width: 0.8"/>
      </defs>
      <g>
       <use xlink:href="#m35165d4016" x="57.6" y="252.528113" style="stroke: #000000; stroke-width: 0.8"/>
      </g>
     </g>
     <g id="text_11">
      <!-- −200 -->
      <g transform="translate(23.132812 256.327332)scale(0.1 -0.1)">
       <defs>
        <path id="DejaVuSans-2212" d="M 678 2272 
L 4684 2272 
L 4684 1741 
L 678 1741 
L 678 2272 
z
" transform="scale(0.015625)"/>
       </defs>
       <use xlink:href="#DejaVuSans-2212"/>
       <use xlink:href="#DejaVuSans-32" x="83.789062"/>
       <use xlink:href="#DejaVuSans-30" x="147.412109"/>
       <use xlink:href="#DejaVuSans-30" x="211.035156"/>
      </g>
     </g>
    </g>
    <g id="ytick_2">
     <g id="line2d_11">
      <g>
       <use xlink:href="#m35165d4016" x="57.6" y="195.552136" style="stroke: #000000; stroke-width: 0.8"/>
      </g>
     </g>
     <g id="text_12">
      <!-- −150 -->
      <g transform="translate(23.132812 199.351354)scale(0.1 -0.1)">
       <use xlink:href="#DejaVuSans-2212"/>
       <use xlink:href="#DejaVuSans-31" x="83.789062"/>
       <use xlink:href="#DejaVuSans-35" x="147.412109"/>
       <use xlink:href="#DejaVuSans-30" x="211.035156"/>
      </g>
     </g>
    </g>
    <g id="ytick_3">
     <g id="line2d_12">
      <g>
       <use xlink:href="#m35165d4016" x="57.6" y="138.576158" style="stroke: #000000; stroke-width: 0.8"/>
      </g>
     </g>
     <g id="text_13">
      <!-- −100 -->
      <g transform="translate(23.132812 142.375377)scale(0.1 -0.1)">
       <use xlink:href="#DejaVuSans-2212"/>
       <use xlink:href="#DejaVuSans-31" x="83.789062"/>
       <use xlink:href="#DejaVuSans-30" x="147.412109"/>
       <use xlink:href="#DejaVuSans-30" x="211.035156"/>
      </g>
     </g>
    </g>
    <g id="ytick_4">
     <g id="line2d_13">
      <g>
       <use xlink:href="#m35165d4016" x="57.6" y="81.600181" style="stroke: #000000; stroke-width: 0.8"/>
      </g>
     </g>
     <g id="text_14">
      <!-- −50 -->
      <g transform="translate(29.495313 85.3994)scale(0.1 -0.1)">
       <use xlink:href="#DejaVuSans-2212"/>
       <use xlink:href="#DejaVuSans-35" x="83.789062"/>
       <use xlink:href="#DejaVuSans-30" x="147.412109"/>
      </g>
     </g>
    </g>
    <g id="text_15">
     <!-- Reward Density -->
     <g transform="translate(17.053125 213.74675)rotate(-90)scale(0.1 -0.1)">
      <defs>
       <path id="DejaVuSans-52" d="M 2841 2188 
Q 3044 2119 3236 1894 
Q 3428 1669 3622 1275 
L 4263 0 
L 3584 0 
L 2988 1197 
Q 2756 1666 2539 1819 
Q 2322 1972 1947 1972 
L 1259 1972 
L 1259 0 
L 628 0 
L 628 4666 
L 2053 4666 
Q 2853 4666 3247 4331 
Q 3641 3997 3641 3322 
Q 3641 2881 3436 2590 
Q 3231 2300 2841 2188 
z
M 1259 4147 
L 1259 2491 
L 2053 2491 
Q 2509 2491 2742 2702 
Q 2975 2913 2975 3322 
Q 2975 3731 2742 3939 
Q 2509 4147 2053 4147 
L 1259 4147 
z
" transform="scale(0.015625)"/>
       <path id="DejaVuSans-77" d="M 269 3500 
L 844 3500 
L 1563 769 
L 2278 3500 
L 2956 3500 
L 3675 769 
L 4391 3500 
L 4966 3500 
L 4050 0 
L 3372 0 
L 2619 2869 
L 1863 0 
L 1184 0 
L 269 3500 
z
" transform="scale(0.015625)"/>
       <path id="DejaVuSans-44" d="M 1259 4147 
L 1259 519 
L 2022 519 
Q 2988 519 3436 956 
Q 3884 1394 3884 2338 
Q 3884 3275 3436 3711 
Q 2988 4147 2022 4147 
L 1259 4147 
z
M 628 4666 
L 1925 4666 
Q 3281 4666 3915 4102 
Q 4550 3538 4550 2338 
Q 4550 1131 3912 565 
Q 3275 0 1925 0 
L 628 0 
L 628 4666 
z
" transform="scale(0.015625)"/>
       <path id="DejaVuSans-74" d="M 1172 4494 
L 1172 3500 
L 2356 3500 
L 2356 3053 
L 1172 3053 
L 1172 1153 
Q 1172 725 1289 603 
Q 1406 481 1766 481 
L 2356 481 
L 2356 0 
L 1766 0 
Q 1100 0 847 248 
Q 594 497 594 1153 
L 594 3053 
L 172 3053 
L 172 3500 
L 594 3500 
L 594 4494 
L 1172 4494 
z
" transform="scale(0.015625)"/>
       <path id="DejaVuSans-79" d="M 2059 -325 
Q 1816 -950 1584 -1140 
Q 1353 -1331 966 -1331 
L 506 -1331 
L 506 -850 
L 844 -850 
Q 1081 -850 1212 -737 
Q 1344 -625 1503 -206 
L 1606 56 
L 191 3500 
L 800 3500 
L 1894 763 
L 2988 3500 
L 3597 3500 
L 2059 -325 
z
" transform="scale(0.015625)"/>
      </defs>
      <use xlink:href="#DejaVuSans-52"/>
      <use xlink:href="#DejaVuSans-65" x="64.982422"/>
      <use xlink:href="#DejaVuSans-77" x="126.505859"/>
      <use xlink:href="#DejaVuSans-61" x="208.292969"/>
      <use xlink:href="#DejaVuSans-72" x="269.572266"/>
      <use xlink:href="#DejaVuSans-64" x="308.935547"/>
      <use xlink:href="#DejaVuSans-20" x="372.412109"/>
      <use xlink:href="#DejaVuSans-44" x="404.199219"/>
      <use xlink:href="#DejaVuSans-65" x="481.201172"/>
      <use xlink:href="#DejaVuSans-6e" x="542.724609"/>
      <use xlink:href="#DejaVuSans-73" x="606.103516"/>
      <use xlink:href="#DejaVuSans-69" x="658.203125"/>
      <use xlink:href="#DejaVuSans-74" x="685.986328"/>
      <use xlink:href="#DejaVuSans-79" x="725.195312"/>
     </g>
    </g>
   </g>
   <g id="LineCollection_1">
    <path d="M 92.572407 140.320079 
L 130.051767 140.320079 
" clip-path="url(#p30bf3d10c5)" style="fill: none; stroke: #1f77b4; stroke-width: 1.5"/>
    <path d="M 175.859874 137.512303 
L 213.339234 137.512303 
" clip-path="url(#p30bf3d10c5)" style="fill: none; stroke: #1f77b4; stroke-width: 1.5"/>
    <path d="M 259.147341 143.735903 
L 296.626701 143.735903 
" clip-path="url(#p30bf3d10c5)" style="fill: none; stroke: #1f77b4; stroke-width: 1.5"/>
    <path d="M 342.268233 163.819251 
L 379.747593 163.819251 
" clip-path="url(#p30bf3d10c5)" style="fill: none; stroke: #1f77b4; stroke-width: 1.5"/>
   </g>
   <g id="LineCollection_2">
    <path d="M 92.572407 68.15385 
L 130.051767 68.15385 
" clip-path="url(#p30bf3d10c5)" style="fill: none; stroke: #1f77b4; stroke-width: 1.5"/>
    <path d="M 175.859874 57.67027 
L 213.339234 57.67027 
" clip-path="url(#p30bf3d10c5)" style="fill: none; stroke: #1f77b4; stroke-width: 1.5"/>
    <path d="M 259.147341 53.568 
L 296.626701 53.568 
" clip-path="url(#p30bf3d10c5)" style="fill: none; stroke: #1f77b4; stroke-width: 1.5"/>
    <path d="M 342.268233 71.116601 
L 379.747593 71.116601 
" clip-path="url(#p30bf3d10c5)" style="fill: none; stroke: #1f77b4; stroke-width: 1.5"/>
   </g>
   <g id="LineCollection_3">
    <path d="M 92.572407 260.162894 
L 130.051767 260.162894 
" clip-path="url(#p30bf3d10c5)" style="fill: none; stroke: #1f77b4; stroke-width: 1.5"/>
    <path d="M 175.859874 275.432456 
L 213.339234 275.432456 
" clip-path="url(#p30bf3d10c5)" style="fill: none; stroke: #1f77b4; stroke-width: 1.5"/>
    <path d="M 259.147341 269.84881 
L 296.626701 269.84881 
" clip-path="url(#p30bf3d10c5)" style="fill: none; stroke: #1f77b4; stroke-width: 1.5"/>
    <path d="M 342.268233 295.488 
L 379.747593 295.488 
" clip-path="url(#p30bf3d10c5)" style="fill: none; stroke: #1f77b4; stroke-width: 1.5"/>
   </g>
   <g id="LineCollection_4">
    <path d="M 111.312087 260.162894 
L 111.312087 68.15385 
" clip-path="url(#p30bf3d10c5)" style="fill: none; stroke: #1f77b4; stroke-width: 1.5"/>
    <path d="M 194.599554 275.432456 
L 194.599554 57.67027 
" clip-path="url(#p30bf3d10c5)" style="fill: none; stroke: #1f77b4; stroke-width: 1.5"/>
    <path d="M 277.887021 269.84881 
L 277.887021 53.568 
" clip-path="url(#p30bf3d10c5)" style="fill: none; stroke: #1f77b4; stroke-width: 1.5"/>
    <path d="M 361.007913 295.488 
L 361.007913 71.116601 
" clip-path="url(#p30bf3d10c5)" style="fill: none; stroke: #1f77b4; stroke-width: 1.5"/>
   </g>
   <g id="line2d_14">
    <path d="M 111.312087 140.320079 
L 194.599554 137.512303 
L 277.887021 143.735903 
L 361.007913 163.819251 
" clip-path="url(#p30bf3d10c5)" style="fill: none; stroke: #4682b4; stroke-width: 1.5; stroke-linecap: square"/>
   </g>
   <g id="patch_3">
    <path d="M 57.6 307.584 
L 57.6 41.472 
" style="fill: none; stroke: #000000; stroke-width: 0.8; stroke-linejoin: miter; stroke-linecap: square"/>
   </g>
   <g id="patch_4">
    <path d="M 414.72 307.584 
L 414.72 41.472 
" style="fill: none; stroke: #000000; stroke-width: 0.8; stroke-linejoin: miter; stroke-linecap: square"/>
   </g>
   <g id="patch_5">
    <path d="M 57.6 307.584 
L 414.72 307.584 
" style="fill: none; stroke: #000000; stroke-width: 0.8; stroke-linejoin: miter; stroke-linecap: square"/>
   </g>
   <g id="patch_6">
    <path d="M 57.6 41.472 
L 414.72 41.472 
" style="fill: none; stroke: #000000; stroke-width: 0.8; stroke-linejoin: miter; stroke-linecap: square"/>
   </g>
   <g id="text_16">
    <!-- Violinplot for progress of profits/storage_cost -->
    <g transform="translate(101.32875 35.472)scale(0.12 -0.12)">
     <defs>
      <path id="DejaVuSans-56" d="M 1831 0 
L 50 4666 
L 709 4666 
L 2188 738 
L 3669 4666 
L 4325 4666 
L 2547 0 
L 1831 0 
z
" transform="scale(0.015625)"/>
      <path id="DejaVuSans-6c" d="M 603 4863 
L 1178 4863 
L 1178 0 
L 603 0 
L 603 4863 
z
" transform="scale(0.015625)"/>
      <path id="DejaVuSans-66" d="M 2375 4863 
L 2375 4384 
L 1825 4384 
Q 1516 4384 1395 4259 
Q 1275 4134 1275 3809 
L 1275 3500 
L 2222 3500 
L 2222 3053 
L 1275 3053 
L 1275 0 
L 697 0 
L 697 3053 
L 147 3053 
L 147 3500 
L 697 3500 
L 697 3744 
Q 697 4328 969 4595 
Q 1241 4863 1831 4863 
L 2375 4863 
z
" transform="scale(0.015625)"/>
      <path id="DejaVuSans-67" d="M 2906 1791 
Q 2906 2416 2648 2759 
Q 2391 3103 1925 3103 
Q 1463 3103 1205 2759 
Q 947 2416 947 1791 
Q 947 1169 1205 825 
Q 1463 481 1925 481 
Q 2391 481 2648 825 
Q 2906 1169 2906 1791 
z
M 3481 434 
Q 3481 -459 3084 -895 
Q 2688 -1331 1869 -1331 
Q 1566 -1331 1297 -1286 
Q 1028 -1241 775 -1147 
L 775 -588 
Q 1028 -725 1275 -790 
Q 1522 -856 1778 -856 
Q 2344 -856 2625 -561 
Q 2906 -266 2906 331 
L 2906 616 
Q 2728 306 2450 153 
Q 2172 0 1784 0 
Q 1141 0 747 490 
Q 353 981 353 1791 
Q 353 2603 747 3093 
Q 1141 3584 1784 3584 
Q 2172 3584 2450 3431 
Q 2728 3278 2906 2969 
L 2906 3500 
L 3481 3500 
L 3481 434 
z
" transform="scale(0.015625)"/>
      <path id="DejaVuSans-2f" d="M 1625 4666 
L 2156 4666 
L 531 -594 
L 0 -594 
L 1625 4666 
z
" transform="scale(0.015625)"/>
      <path id="DejaVuSans-5f" d="M 3263 -1063 
L 3263 -1509 
L -63 -1509 
L -63 -1063 
L 3263 -1063 
z
" transform="scale(0.015625)"/>
      <path id="DejaVuSans-63" d="M 3122 3366 
L 3122 2828 
Q 2878 2963 2633 3030 
Q 2388 3097 2138 3097 
Q 1578 3097 1268 2742 
Q 959 2388 959 1747 
Q 959 1106 1268 751 
Q 1578 397 2138 397 
Q 2388 397 2633 464 
Q 2878 531 3122 666 
L 3122 134 
Q 2881 22 2623 -34 
Q 2366 -91 2075 -91 
Q 1284 -91 818 406 
Q 353 903 353 1747 
Q 353 2603 823 3093 
Q 1294 3584 2113 3584 
Q 2378 3584 2631 3529 
Q 2884 3475 3122 3366 
z
" transform="scale(0.015625)"/>
     </defs>
     <use xlink:href="#DejaVuSans-56"/>
     <use xlink:href="#DejaVuSans-69" x="66.158203"/>
     <use xlink:href="#DejaVuSans-6f" x="93.941406"/>
     <use xlink:href="#DejaVuSans-6c" x="155.123047"/>
     <use xlink:href="#DejaVuSans-69" x="182.90625"/>
     <use xlink:href="#DejaVuSans-6e" x="210.689453"/>
     <use xlink:href="#DejaVuSans-70" x="274.068359"/>
     <use xlink:href="#DejaVuSans-6c" x="337.544922"/>
     <use xlink:href="#DejaVuSans-6f" x="365.328125"/>
     <use xlink:href="#DejaVuSans-74" x="426.509766"/>
     <use xlink:href="#DejaVuSans-20" x="465.71875"/>
     <use xlink:href="#DejaVuSans-66" x="497.505859"/>
     <use xlink:href="#DejaVuSans-6f" x="532.710938"/>
     <use xlink:href="#DejaVuSans-72" x="593.892578"/>
     <use xlink:href="#DejaVuSans-20" x="635.005859"/>
     <use xlink:href="#DejaVuSans-70" x="666.792969"/>
     <use xlink:href="#DejaVuSans-72" x="730.269531"/>
     <use xlink:href="#DejaVuSans-6f" x="769.132812"/>
     <use xlink:href="#DejaVuSans-67" x="830.314453"/>
     <use xlink:href="#DejaVuSans-72" x="893.791016"/>
     <use xlink:href="#DejaVuSans-65" x="932.654297"/>
     <use xlink:href="#DejaVuSans-73" x="994.177734"/>
     <use xlink:href="#DejaVuSans-73" x="1046.277344"/>
     <use xlink:href="#DejaVuSans-20" x="1098.376953"/>
     <use xlink:href="#DejaVuSans-6f" x="1130.164062"/>
     <use xlink:href="#DejaVuSans-66" x="1191.345703"/>
     <use xlink:href="#DejaVuSans-20" x="1226.550781"/>
     <use xlink:href="#DejaVuSans-70" x="1258.337891"/>
     <use xlink:href="#DejaVuSans-72" x="1321.814453"/>
     <use xlink:href="#DejaVuSans-6f" x="1360.677734"/>
     <use xlink:href="#DejaVuSans-66" x="1421.859375"/>
     <use xlink:href="#DejaVuSans-69" x="1457.064453"/>
     <use xlink:href="#DejaVuSans-74" x="1484.847656"/>
     <use xlink:href="#DejaVuSans-73" x="1524.056641"/>
     <use xlink:href="#DejaVuSans-2f" x="1576.15625"/>
     <use xlink:href="#DejaVuSans-73" x="1609.847656"/>
     <use xlink:href="#DejaVuSans-74" x="1661.947266"/>
     <use xlink:href="#DejaVuSans-6f" x="1701.15625"/>
     <use xlink:href="#DejaVuSans-72" x="1762.337891"/>
     <use xlink:href="#DejaVuSans-61" x="1803.451172"/>
     <use xlink:href="#DejaVuSans-67" x="1864.730469"/>
     <use xlink:href="#DejaVuSans-65" x="1928.207031"/>
     <use xlink:href="#DejaVuSans-5f" x="1989.730469"/>
     <use xlink:href="#DejaVuSans-63" x="2039.730469"/>
     <use xlink:href="#DejaVuSans-6f" x="2094.710938"/>
     <use xlink:href="#DejaVuSans-73" x="2155.892578"/>
     <use xlink:href="#DejaVuSans-74" x="2207.992188"/>
    </g>
   </g>
   <g id="legend_1">
    <g id="patch_7">
     <path d="M 276.25125 64.150125 
L 407.72 64.150125 
Q 409.72 64.150125 409.72 62.150125 
L 409.72 48.472 
Q 409.72 46.472 407.72 46.472 
L 276.25125 46.472 
Q 274.25125 46.472 274.25125 48.472 
L 274.25125 62.150125 
Q 274.25125 64.150125 276.25125 64.150125 
z
" style="fill: #ffffff; opacity: 0.8; stroke: #cccccc; stroke-linejoin: miter"/>
    </g>
    <g id="line2d_15">
     <path d="M 278.25125 54.570438 
L 288.25125 54.570438 
L 298.25125 54.570438 
" style="fill: none; stroke: #4682b4; stroke-width: 1.5; stroke-linecap: square"/>
    </g>
    <g id="text_17">
     <!-- StableBaselinesSAC -->
     <g transform="translate(306.25125 58.070438)scale(0.1 -0.1)">
      <defs>
       <path id="DejaVuSans-53" d="M 3425 4513 
L 3425 3897 
Q 3066 4069 2747 4153 
Q 2428 4238 2131 4238 
Q 1616 4238 1336 4038 
Q 1056 3838 1056 3469 
Q 1056 3159 1242 3001 
Q 1428 2844 1947 2747 
L 2328 2669 
Q 3034 2534 3370 2195 
Q 3706 1856 3706 1288 
Q 3706 609 3251 259 
Q 2797 -91 1919 -91 
Q 1588 -91 1214 -16 
Q 841 59 441 206 
L 441 856 
Q 825 641 1194 531 
Q 1563 422 1919 422 
Q 2459 422 2753 634 
Q 3047 847 3047 1241 
Q 3047 1584 2836 1778 
Q 2625 1972 2144 2069 
L 1759 2144 
Q 1053 2284 737 2584 
Q 422 2884 422 3419 
Q 422 4038 858 4394 
Q 1294 4750 2059 4750 
Q 2388 4750 2728 4690 
Q 3069 4631 3425 4513 
z
" transform="scale(0.015625)"/>
       <path id="DejaVuSans-62" d="M 3116 1747 
Q 3116 2381 2855 2742 
Q 2594 3103 2138 3103 
Q 1681 3103 1420 2742 
Q 1159 2381 1159 1747 
Q 1159 1113 1420 752 
Q 1681 391 2138 391 
Q 2594 391 2855 752 
Q 3116 1113 3116 1747 
z
M 1159 2969 
Q 1341 3281 1617 3432 
Q 1894 3584 2278 3584 
Q 2916 3584 3314 3078 
Q 3713 2572 3713 1747 
Q 3713 922 3314 415 
Q 2916 -91 2278 -91 
Q 1894 -91 1617 61 
Q 1341 213 1159 525 
L 1159 0 
L 581 0 
L 581 4863 
L 1159 4863 
L 1159 2969 
z
" transform="scale(0.015625)"/>
       <path id="DejaVuSans-42" d="M 1259 2228 
L 1259 519 
L 2272 519 
Q 2781 519 3026 730 
Q 3272 941 3272 1375 
Q 3272 1813 3026 2020 
Q 2781 2228 2272 2228 
L 1259 2228 
z
M 1259 4147 
L 1259 2741 
L 2194 2741 
Q 2656 2741 2882 2914 
Q 3109 3088 3109 3444 
Q 3109 3797 2882 3972 
Q 2656 4147 2194 4147 
L 1259 4147 
z
M 628 4666 
L 2241 4666 
Q 2963 4666 3353 4366 
Q 3744 4066 3744 3513 
Q 3744 3084 3544 2831 
Q 3344 2578 2956 2516 
Q 3422 2416 3680 2098 
Q 3938 1781 3938 1306 
Q 3938 681 3513 340 
Q 3088 0 2303 0 
L 628 0 
L 628 4666 
z
" transform="scale(0.015625)"/>
       <path id="DejaVuSans-41" d="M 2188 4044 
L 1331 1722 
L 3047 1722 
L 2188 4044 
z
M 1831 4666 
L 2547 4666 
L 4325 0 
L 3669 0 
L 3244 1197 
L 1141 1197 
L 716 0 
L 50 0 
L 1831 4666 
z
" transform="scale(0.015625)"/>
       <path id="DejaVuSans-43" d="M 4122 4306 
L 4122 3641 
Q 3803 3938 3442 4084 
Q 3081 4231 2675 4231 
Q 1875 4231 1450 3742 
Q 1025 3253 1025 2328 
Q 1025 1406 1450 917 
Q 1875 428 2675 428 
Q 3081 428 3442 575 
Q 3803 722 4122 1019 
L 4122 359 
Q 3791 134 3420 21 
Q 3050 -91 2638 -91 
Q 1578 -91 968 557 
Q 359 1206 359 2328 
Q 359 3453 968 4101 
Q 1578 4750 2638 4750 
Q 3056 4750 3426 4639 
Q 3797 4528 4122 4306 
z
" transform="scale(0.015625)"/>
      </defs>
      <use xlink:href="#DejaVuSans-53"/>
      <use xlink:href="#DejaVuSans-74" x="63.476562"/>
      <use xlink:href="#DejaVuSans-61" x="102.685547"/>
      <use xlink:href="#DejaVuSans-62" x="163.964844"/>
      <use xlink:href="#DejaVuSans-6c" x="227.441406"/>
      <use xlink:href="#DejaVuSans-65" x="255.224609"/>
      <use xlink:href="#DejaVuSans-42" x="316.748047"/>
      <use xlink:href="#DejaVuSans-61" x="385.351562"/>
      <use xlink:href="#DejaVuSans-73" x="446.630859"/>
      <use xlink:href="#DejaVuSans-65" x="498.730469"/>
      <use xlink:href="#DejaVuSans-6c" x="560.253906"/>
      <use xlink:href="#DejaVuSans-69" x="588.037109"/>
      <use xlink:href="#DejaVuSans-6e" x="615.820312"/>
      <use xlink:href="#DejaVuSans-65" x="679.199219"/>
      <use xlink:href="#DejaVuSans-73" x="740.722656"/>
      <use xlink:href="#DejaVuSans-53" x="792.822266"/>
      <use xlink:href="#DejaVuSans-41" x="858.173828"/>
      <use xlink:href="#DejaVuSans-43" x="924.832031"/>
     </g>
    </g>
   </g>
  </g>
 </g>
 <defs>
  <clipPath id="p30bf3d10c5">
   <rect x="57.6" y="41.472" width="357.12" height="266.112"/>
  </clipPath>
 </defs>
</svg>
