<?xml version="1.0" encoding="utf-8" standalone="no"?>
<!DOCTYPE svg PUBLIC "-//W3C//DTD SVG 1.1//EN"
  "http://www.w3.org/Graphics/SVG/1.1/DTD/svg11.dtd">
<svg xmlns:xlink="http://www.w3.org/1999/xlink" width="460.8pt" height="345.6pt" viewBox="0 0 460.8 345.6" xmlns="http://www.w3.org/2000/svg" version="1.1">
 <metadata>
  <rdf:RDF xmlns:dc="http://purl.org/dc/elements/1.1/" xmlns:cc="http://creativecommons.org/ns#" xmlns:rdf="http://www.w3.org/1999/02/22-rdf-syntax-ns#">
   <cc:Work>
    <dc:type rdf:resource="http://purl.org/dc/dcmitype/StillImage"/>
    <dc:date>2022-06-16T12:02:58.422511</dc:date>
    <dc:format>image/svg+xml</dc:format>
    <dc:creator>
     <cc:Agent>
      <dc:title>Matplotlib v3.5.2, https://matplotlib.org/</dc:title>
     </cc:Agent>
    </dc:creator>
   </cc:Work>
  </rdf:RDF>
 </metadata>
 <defs>
  <style type="text/css">*{stroke-linejoin: round; stroke-linecap: butt}</style>
 </defs>
 <g id="figure_1">
  <g id="patch_1">
   <path d="M 0 345.6 
L 460.8 345.6 
L 460.8 0 
L 0 0 
z
" style="fill: #ffffff"/>
  </g>
  <g id="axes_1">
   <g id="patch_2">
    <path d="M 57.6 307.584 
L 414.72 307.584 
L 414.72 41.472 
L 57.6 41.472 
z
" style="fill: #ffffff"/>
   </g>
   <g id="PolyCollection_1">
    <path d="M 124.520991 295.488 
L 98.103184 295.488 
L 96.130166 293.592469 
L 94.096845 291.696938 
L 92.043148 289.801407 
L 90.009862 287.905876 
L 88.035831 286.010345 
L 86.155299 284.114814 
L 84.395716 282.219283 
L 82.776312 280.323752 
L 81.307618 278.428221 
L 79.992008 276.53269 
L 78.825167 274.637159 
L 77.798273 272.741628 
L 76.900559 270.846097 
L 76.121868 268.950566 
L 75.454807 267.055035 
L 74.896194 265.159504 
L 74.447583 263.263973 
L 74.114801 261.368442 
L 73.906614 259.472911 
L 73.832727 257.57738 
L 73.901467 255.681849 
L 74.117506 253.786318 
L 74.479986 251.890787 
L 74.981318 249.995256 
L 75.606845 248.099725 
L 76.335397 246.204194 
L 77.140668 244.308663 
L 77.993225 242.413132 
L 78.862879 240.517601 
L 79.721147 238.62207 
L 80.543498 236.726539 
L 81.311164 234.831008 
L 82.012347 232.935477 
L 82.642722 231.039946 
L 83.205228 229.144415 
L 83.709236 227.248884 
L 84.169182 225.353353 
L 84.60287 223.457822 
L 85.029592 221.562291 
L 85.468277 219.66676 
L 85.935809 217.771229 
L 86.445661 215.875698 
L 87.006919 213.980167 
L 87.62374 212.084636 
L 88.295256 210.189105 
L 89.015871 208.293573 
L 89.775909 206.398042 
L 90.562532 204.502511 
L 91.360836 202.60698 
L 92.155061 200.711449 
L 92.92981 198.815918 
L 93.671206 196.920387 
L 94.367903 195.024856 
L 95.011888 193.129325 
L 95.598995 191.233794 
L 96.129116 189.338263 
L 96.606058 187.442732 
L 97.037098 185.547201 
L 97.432248 183.65167 
L 97.803326 181.756139 
L 98.162923 179.860608 
L 98.523368 177.965077 
L 98.895789 176.069546 
L 99.289352 174.174015 
L 99.710724 172.278484 
L 100.163779 170.382953 
L 100.64953 168.487422 
L 101.16626 166.591891 
L 101.7098 164.69636 
L 102.273919 162.800829 
L 102.850773 160.905298 
L 103.431411 159.009767 
L 104.006308 157.114236 
L 104.565917 155.218705 
L 105.10124 153.323174 
L 105.604382 151.427643 
L 106.069062 149.532112 
L 106.491028 147.636581 
L 106.868334 145.74105 
L 107.201424 143.845519 
L 107.493012 141.949988 
L 107.747734 140.054457 
L 107.97163 138.158926 
L 108.17149 136.263395 
L 108.354165 134.367864 
L 108.52591 132.472333 
L 108.691857 130.576802 
L 108.855671 128.681271 
L 109.019421 126.78574 
L 109.183657 124.890209 
L 109.347677 122.994678 
L 109.509904 121.099147 
L 109.668316 119.203616 
L 109.820859 117.308085 
L 109.965774 115.412554 
L 110.101821 113.517023 
L 110.228361 111.621492 
L 110.345328 109.725961 
L 110.453112 107.83043 
L 112.171063 107.83043 
L 112.171063 107.83043 
L 112.278846 109.725961 
L 112.395814 111.621492 
L 112.522354 113.517023 
L 112.6584 115.412554 
L 112.803316 117.308085 
L 112.955859 119.203616 
L 113.114271 121.099147 
L 113.276498 122.994678 
L 113.440518 124.890209 
L 113.604754 126.78574 
L 113.768503 128.681271 
L 113.932318 130.576802 
L 114.098265 132.472333 
L 114.27001 134.367864 
L 114.452685 136.263395 
L 114.652545 138.158926 
L 114.876441 140.054457 
L 115.131163 141.949988 
L 115.42275 143.845519 
L 115.755841 145.74105 
L 116.133147 147.636581 
L 116.555113 149.532112 
L 117.019793 151.427643 
L 117.522935 153.323174 
L 118.058258 155.218705 
L 118.617867 157.114236 
L 119.192764 159.009767 
L 119.773402 160.905298 
L 120.350256 162.800829 
L 120.914375 164.69636 
L 121.457915 166.591891 
L 121.974644 168.487422 
L 122.460395 170.382953 
L 122.913451 172.278484 
L 123.334823 174.174015 
L 123.728386 176.069546 
L 124.100807 177.965077 
L 124.461251 179.860608 
L 124.820849 181.756139 
L 125.191927 183.65167 
L 125.587077 185.547201 
L 126.018117 187.442732 
L 126.495059 189.338263 
L 127.025179 191.233794 
L 127.612287 193.129325 
L 128.256272 195.024856 
L 128.952969 196.920387 
L 129.694365 198.815918 
L 130.469114 200.711449 
L 131.263339 202.60698 
L 132.061643 204.502511 
L 132.848265 206.398042 
L 133.608304 208.293573 
L 134.328919 210.189105 
L 135.000434 212.084636 
L 135.617256 213.980167 
L 136.178513 215.875698 
L 136.688366 217.771229 
L 137.155898 219.66676 
L 137.594582 221.562291 
L 138.021304 223.457822 
L 138.454992 225.353353 
L 138.914939 227.248884 
L 139.418946 229.144415 
L 139.981453 231.039946 
L 140.611827 232.935477 
L 141.313011 234.831008 
L 142.080677 236.726539 
L 142.903027 238.62207 
L 143.761295 240.517601 
L 144.63095 242.413132 
L 145.483507 244.308663 
L 146.288778 246.204194 
L 147.01733 248.099725 
L 147.642857 249.995256 
L 148.144189 251.890787 
L 148.506668 253.786318 
L 148.722708 255.681849 
L 148.791447 257.57738 
L 148.71756 259.472911 
L 148.509373 261.368442 
L 148.176592 263.263973 
L 147.727981 265.159504 
L 147.169368 267.055035 
L 146.502307 268.950566 
L 145.723615 270.846097 
L 144.825902 272.741628 
L 143.799008 274.637159 
L 142.632166 276.53269 
L 141.316556 278.428221 
L 139.847863 280.323752 
L 138.228458 282.219283 
L 136.468875 284.114814 
L 134.588343 286.010345 
L 132.614313 287.905876 
L 130.581026 289.801407 
L 128.527329 291.696938 
L 126.494009 293.592469 
L 124.520991 295.488 
z
" clip-path="url(#p002923fa45)" style="fill: #1f77b4; fill-opacity: 0.3"/>
   </g>
   <g id="PolyCollection_2">
    <path d="M 201.139401 219.369869 
L 188.059707 219.369869 
L 187.271436 217.95393 
L 186.436704 216.537992 
L 185.557439 215.122053 
L 184.636318 213.706114 
L 183.676985 212.290175 
L 182.684247 210.874236 
L 181.664213 209.458297 
L 180.624324 208.042359 
L 179.573265 206.62642 
L 178.520725 205.210481 
L 177.477016 203.794542 
L 176.452572 202.378603 
L 175.457364 200.962664 
L 174.500284 199.546726 
L 173.588563 198.130787 
L 172.727275 196.714848 
L 171.918987 195.298909 
L 171.163589 193.88297 
L 170.458333 192.467031 
L 169.798072 191.051093 
L 169.175688 189.635154 
L 168.58267 188.219215 
L 168.00978 186.803276 
L 167.447773 185.387337 
L 166.888076 183.971398 
L 166.323408 182.55546 
L 165.748257 181.139521 
L 165.159216 179.723582 
L 164.555136 178.307643 
L 163.937111 176.891704 
L 163.308315 175.475766 
L 162.673712 174.059827 
L 162.039683 172.643888 
L 161.413613 171.227949 
L 160.803486 169.81201 
L 160.217496 168.396071 
L 159.663725 166.980133 
L 159.149872 165.564194 
L 158.683033 164.148255 
L 158.269524 162.732316 
L 157.914718 161.316377 
L 157.622866 159.900438 
L 157.396921 158.4845 
L 157.238326 157.068561 
L 157.146807 155.652622 
L 157.120194 154.236683 
L 157.154294 152.820744 
L 157.242874 151.404805 
L 157.37778 149.988867 
L 157.549216 148.572928 
L 157.74618 147.156989 
L 157.957052 145.74105 
L 158.17027 144.325111 
L 158.375061 142.909172 
L 158.562137 141.493234 
L 158.724305 140.077295 
L 158.856934 138.661356 
L 158.958231 137.245417 
L 159.029328 135.829478 
L 159.074164 134.41354 
L 159.099208 132.997601 
L 159.113048 131.581662 
L 159.125895 130.165723 
L 159.149029 128.749784 
L 159.194247 127.333845 
L 159.273306 125.917907 
L 159.397408 124.501968 
L 159.576709 123.086029 
L 159.819889 121.67009 
L 160.133765 120.254151 
L 160.522991 118.838212 
L 160.989845 117.422274 
L 161.534138 116.006335 
L 162.153259 114.590396 
L 162.842376 113.174457 
L 163.594789 111.758518 
L 164.40242 110.342579 
L 165.256401 108.926641 
L 166.147722 107.510702 
L 167.067856 106.094763 
L 168.009322 104.678824 
L 168.966103 103.262885 
L 169.933895 101.846946 
L 170.910154 100.431008 
L 171.893942 99.015069 
L 172.885602 97.59913 
L 173.886303 96.183191 
L 174.897518 94.767252 
L 175.920489 93.351314 
L 176.95575 91.935375 
L 178.002742 90.519436 
L 179.05957 89.103497 
L 180.122893 87.687558 
L 181.187964 86.271619 
L 182.248793 84.855681 
L 183.298404 83.439742 
L 184.329157 82.023803 
L 185.33311 80.607864 
L 186.302377 79.191925 
L 202.896731 79.191925 
L 202.896731 79.191925 
L 203.865998 80.607864 
L 204.869951 82.023803 
L 205.900705 83.439742 
L 206.950315 84.855681 
L 208.011144 86.271619 
L 209.076215 87.687558 
L 210.139538 89.103497 
L 211.196366 90.519436 
L 212.243359 91.935375 
L 213.278619 93.351314 
L 214.30159 94.767252 
L 215.312805 96.183191 
L 216.313507 97.59913 
L 217.305166 99.015069 
L 218.288954 100.431008 
L 219.265213 101.846946 
L 220.233005 103.262885 
L 221.189786 104.678824 
L 222.131252 106.094763 
L 223.051386 107.510702 
L 223.942707 108.926641 
L 224.796689 110.342579 
L 225.604319 111.758518 
L 226.356732 113.174457 
L 227.045849 114.590396 
L 227.66497 116.006335 
L 228.209263 117.422274 
L 228.676117 118.838212 
L 229.065343 120.254151 
L 229.379219 121.67009 
L 229.622399 123.086029 
L 229.801701 124.501968 
L 229.925802 125.917907 
L 230.004862 127.333845 
L 230.050079 128.749784 
L 230.073213 130.165723 
L 230.08606 131.581662 
L 230.099901 132.997601 
L 230.124944 134.41354 
L 230.16978 135.829478 
L 230.240877 137.245417 
L 230.342175 138.661356 
L 230.474803 140.077295 
L 230.636972 141.493234 
L 230.824047 142.909172 
L 231.028838 144.325111 
L 231.242057 145.74105 
L 231.452928 147.156989 
L 231.649893 148.572928 
L 231.821328 149.988867 
L 231.956235 151.404805 
L 232.044815 152.820744 
L 232.078914 154.236683 
L 232.052301 155.652622 
L 231.960783 157.068561 
L 231.802187 158.4845 
L 231.576242 159.900438 
L 231.284391 161.316377 
L 230.929584 162.732316 
L 230.516076 164.148255 
L 230.049236 165.564194 
L 229.535383 166.980133 
L 228.981612 168.396071 
L 228.395622 169.81201 
L 227.785495 171.227949 
L 227.159426 172.643888 
L 226.525396 174.059827 
L 225.890793 175.475766 
L 225.261997 176.891704 
L 224.643972 178.307643 
L 224.039892 179.723582 
L 223.450851 181.139521 
L 222.8757 182.55546 
L 222.311032 183.971398 
L 221.751335 185.387337 
L 221.189328 186.803276 
L 220.616438 188.219215 
L 220.02342 189.635154 
L 219.401037 191.051093 
L 218.740776 192.467031 
L 218.035519 193.88297 
L 217.280121 195.298909 
L 216.471833 196.714848 
L 215.610545 198.130787 
L 214.698824 199.546726 
L 213.741744 200.962664 
L 212.746536 202.378603 
L 211.722092 203.794542 
L 210.678383 205.210481 
L 209.625843 206.62642 
L 208.574785 208.042359 
L 207.534895 209.458297 
L 206.514861 210.874236 
L 205.522124 212.290175 
L 204.56279 213.706114 
L 203.641669 215.122053 
L 202.762404 216.537992 
L 201.927672 217.95393 
L 201.139401 219.369869 
z
" clip-path="url(#p002923fa45)" style="fill: #1f77b4; fill-opacity: 0.3"/>
   </g>
   <g id="PolyCollection_3">
    <path d="M 281.681585 203.543327 
L 274.092456 203.543327 
L 273.515998 202.119776 
L 272.886118 200.696224 
L 272.202768 199.272673 
L 271.467019 197.849121 
L 270.68127 196.42557 
L 269.849382 195.002019 
L 268.97672 193.578467 
L 268.070064 192.154916 
L 267.1374 190.731364 
L 266.187604 189.307813 
L 265.230059 187.884262 
L 264.27423 186.46071 
L 263.329269 185.037159 
L 262.403662 183.613607 
L 261.504961 182.190056 
L 260.639601 180.766505 
L 259.812794 179.342953 
L 259.02848 177.919402 
L 258.289316 176.49585 
L 257.596656 175.072299 
L 256.950525 173.648748 
L 256.349571 172.225196 
L 255.790998 170.801645 
L 255.270518 169.378093 
L 254.782331 167.954542 
L 254.319196 166.530991 
L 253.872598 165.107439 
L 253.433056 163.683888 
L 252.990567 162.260336 
L 252.535177 160.836785 
L 252.057642 159.413234 
L 251.550128 157.989682 
L 251.006877 156.566131 
L 250.424761 155.142579 
L 249.803657 153.719028 
L 249.14658 152.295477 
L 248.459552 150.871925 
L 247.751195 149.448374 
L 247.03209 148.024822 
L 246.313965 146.601271 
L 245.608803 145.17772 
L 244.927961 143.754168 
L 244.281408 142.330617 
L 243.677166 140.907065 
L 243.121005 139.483514 
L 242.616425 138.059963 
L 242.164906 136.636411 
L 241.766382 135.21286 
L 241.41986 133.789308 
L 241.124093 132.365757 
L 240.878188 130.942206 
L 240.682078 129.518654 
L 240.536767 128.095103 
L 240.444332 126.671551 
L 240.407661 125.248 
L 240.430008 123.824449 
L 240.514413 122.400897 
L 240.663114 120.977346 
L 240.877042 119.553794 
L 241.155511 118.130243 
L 241.496155 116.706692 
L 241.895135 115.28314 
L 242.347611 113.859589 
L 242.848389 112.436037 
L 243.392669 111.012486 
L 243.976766 109.588935 
L 244.598683 108.165383 
L 245.258456 106.741832 
L 245.958185 105.31828 
L 246.701736 103.894729 
L 247.494147 102.471178 
L 248.340782 101.047626 
L 249.246362 99.624075 
L 250.213982 98.200523 
L 251.24425 96.776972 
L 252.334668 95.353421 
L 253.479332 93.929869 
L 254.669021 92.506318 
L 255.891631 91.082766 
L 257.132947 89.659215 
L 258.377626 88.235664 
L 259.610288 86.812112 
L 260.816579 85.388561 
L 261.984101 83.965009 
L 263.103092 82.541458 
L 264.166828 81.117907 
L 265.171697 79.694355 
L 266.117002 78.270804 
L 267.00452 76.847252 
L 267.837899 75.423701 
L 268.621988 74.00015 
L 269.362156 72.576598 
L 270.063686 71.153047 
L 270.731273 69.729495 
L 271.368677 68.305944 
L 271.978508 66.882393 
L 272.562172 65.458841 
L 273.11993 64.03529 
L 273.651063 62.611738 
L 282.122979 62.611738 
L 282.122979 62.611738 
L 282.654111 64.03529 
L 283.211869 65.458841 
L 283.795534 66.882393 
L 284.405365 68.305944 
L 285.042768 69.729495 
L 285.710356 71.153047 
L 286.411886 72.576598 
L 287.152054 74.00015 
L 287.936143 75.423701 
L 288.769522 76.847252 
L 289.657039 78.270804 
L 290.602345 79.694355 
L 291.607214 81.117907 
L 292.670949 82.541458 
L 293.789941 83.965009 
L 294.957462 85.388561 
L 296.163754 86.812112 
L 297.396415 88.235664 
L 298.641095 89.659215 
L 299.882411 91.082766 
L 301.105021 92.506318 
L 302.294709 93.929869 
L 303.439374 95.353421 
L 304.529791 96.776972 
L 305.56006 98.200523 
L 306.52768 99.624075 
L 307.43326 101.047626 
L 308.279895 102.471178 
L 309.072306 103.894729 
L 309.815857 105.31828 
L 310.515585 106.741832 
L 311.175359 108.165383 
L 311.797276 109.588935 
L 312.381373 111.012486 
L 312.925653 112.436037 
L 313.426431 113.859589 
L 313.878906 115.28314 
L 314.277887 116.706692 
L 314.618531 118.130243 
L 314.897 119.553794 
L 315.110928 120.977346 
L 315.259628 122.400897 
L 315.344034 123.824449 
L 315.366381 125.248 
L 315.32971 126.671551 
L 315.237274 128.095103 
L 315.091964 129.518654 
L 314.895854 130.942206 
L 314.649949 132.365757 
L 314.354182 133.789308 
L 314.00766 135.21286 
L 313.609136 136.636411 
L 313.157616 138.059963 
L 312.653037 139.483514 
L 312.096876 140.907065 
L 311.492634 142.330617 
L 310.846081 143.754168 
L 310.165238 145.17772 
L 309.460076 146.601271 
L 308.741952 148.024822 
L 308.022847 149.448374 
L 307.31449 150.871925 
L 306.627462 152.295477 
L 305.970385 153.719028 
L 305.34928 155.142579 
L 304.767165 156.566131 
L 304.223914 157.989682 
L 303.7164 159.413234 
L 303.238865 160.836785 
L 302.783475 162.260336 
L 302.340986 163.683888 
L 301.901444 165.107439 
L 301.454846 166.530991 
L 300.991711 167.954542 
L 300.503524 169.378093 
L 299.983043 170.801645 
L 299.424471 172.225196 
L 298.823517 173.648748 
L 298.177386 175.072299 
L 297.484726 176.49585 
L 296.745562 177.919402 
L 295.961248 179.342953 
L 295.13444 180.766505 
L 294.26908 182.190056 
L 293.37038 183.613607 
L 292.444773 185.037159 
L 291.499812 186.46071 
L 290.543983 187.884262 
L 289.586437 189.307813 
L 288.636642 190.731364 
L 287.703978 192.154916 
L 286.797322 193.578467 
L 285.92466 195.002019 
L 285.092772 196.42557 
L 284.307022 197.849121 
L 283.571274 199.272673 
L 282.887924 200.696224 
L 282.258044 202.119776 
L 281.681585 203.543327 
z
" clip-path="url(#p002923fa45)" style="fill: #1f77b4; fill-opacity: 0.3"/>
   </g>
   <g id="PolyCollection_4">
    <path d="M 364.917 220.123514 
L 357.098826 220.123514 
L 356.51695 218.441135 
L 355.897466 216.758756 
L 355.243587 215.076377 
L 354.558136 213.393998 
L 353.843204 211.711619 
L 353.099892 210.02924 
L 352.3282 208.346862 
L 351.527083 206.664483 
L 350.694701 204.982104 
L 349.828845 203.299725 
L 348.927498 201.617346 
L 347.989495 199.934967 
L 347.015189 198.252588 
L 346.007058 196.570209 
L 344.970184 194.88783 
L 343.91253 193.205451 
L 342.844987 191.523072 
L 341.781155 189.840693 
L 340.736885 188.158314 
L 339.729582 186.475935 
L 338.77733 184.793556 
L 337.897891 183.111178 
L 337.107642 181.428799 
L 336.420517 179.74642 
L 335.847037 178.064041 
L 335.393487 176.381662 
L 335.061298 174.699283 
L 334.846697 173.016904 
L 334.740644 171.334525 
L 334.729079 169.652146 
L 334.793461 167.969767 
L 334.911573 166.287388 
L 335.058548 164.605009 
L 335.20804 162.92263 
L 335.333477 161.240251 
L 335.409323 159.557873 
L 335.412286 157.875494 
L 335.322405 156.193115 
L 335.123985 154.510736 
L 334.806338 152.828357 
L 334.3643 151.145978 
L 333.798525 149.463599 
L 333.115538 147.78122 
L 332.327544 146.098841 
L 331.45201 144.416462 
L 330.511018 142.734083 
L 329.530411 141.051704 
L 328.538762 139.369325 
L 327.566176 137.686946 
L 326.642986 136.004568 
L 325.798367 134.322189 
L 325.058953 132.63981 
L 324.447522 130.957431 
L 323.98183 129.275052 
L 323.673718 127.592673 
L 323.528553 125.910294 
L 323.545103 124.227915 
L 323.715886 122.545536 
L 324.027989 120.863157 
L 324.464315 119.180778 
L 325.00515 117.498399 
L 325.629909 115.81602 
L 326.318879 114.133641 
L 327.054792 112.451263 
L 327.824053 110.768884 
L 328.617518 109.086505 
L 329.430757 107.404126 
L 330.263791 105.721747 
L 331.120375 104.039368 
L 332.006929 102.356989 
L 332.931251 100.67461 
L 333.901159 98.992231 
L 334.923201 97.309852 
L 336.001554 95.627473 
L 337.137189 93.945094 
L 338.327366 92.262715 
L 339.565465 90.580336 
L 340.841169 88.897958 
L 342.14094 87.215579 
L 343.448773 85.5332 
L 344.747141 83.850821 
L 346.018067 82.168442 
L 347.244246 80.486063 
L 348.410123 78.803684 
L 349.50284 77.121305 
L 350.512983 75.438926 
L 351.435054 73.756547 
L 352.267635 72.074168 
L 353.013225 70.391789 
L 353.677785 68.70941 
L 354.270018 67.027031 
L 354.800473 65.344653 
L 355.280572 63.662274 
L 355.721628 61.979895 
L 356.133983 60.297516 
L 356.526307 58.615137 
L 356.905138 56.932758 
L 357.274661 55.250379 
L 357.636745 53.568 
L 364.37908 53.568 
L 364.37908 53.568 
L 364.741164 55.250379 
L 365.110687 56.932758 
L 365.489518 58.615137 
L 365.881843 60.297516 
L 366.294197 61.979895 
L 366.735254 63.662274 
L 367.215352 65.344653 
L 367.745808 67.027031 
L 368.33804 68.70941 
L 369.0026 70.391789 
L 369.748191 72.074168 
L 370.580771 73.756547 
L 371.502842 75.438926 
L 372.512985 77.121305 
L 373.605702 78.803684 
L 374.771579 80.486063 
L 375.997758 82.168442 
L 377.268684 83.850821 
L 378.567052 85.5332 
L 379.874886 87.215579 
L 381.174657 88.897958 
L 382.45036 90.580336 
L 383.68846 92.262715 
L 384.878636 93.945094 
L 386.014272 95.627473 
L 387.092625 97.309852 
L 388.114666 98.992231 
L 389.084574 100.67461 
L 390.008896 102.356989 
L 390.895451 104.039368 
L 391.752034 105.721747 
L 392.585068 107.404126 
L 393.398307 109.086505 
L 394.191772 110.768884 
L 394.961033 112.451263 
L 395.696946 114.133641 
L 396.385917 115.81602 
L 397.010675 117.498399 
L 397.55151 119.180778 
L 397.987836 120.863157 
L 398.299939 122.545536 
L 398.470722 124.227915 
L 398.487273 125.910294 
L 398.342107 127.592673 
L 398.033995 129.275052 
L 397.568304 130.957431 
L 396.956872 132.63981 
L 396.217459 134.322189 
L 395.37284 136.004568 
L 394.449649 137.686946 
L 393.477064 139.369325 
L 392.485414 141.051704 
L 391.504807 142.734083 
L 390.563815 144.416462 
L 389.688281 146.098841 
L 388.900288 147.78122 
L 388.2173 149.463599 
L 387.651526 151.145978 
L 387.209487 152.828357 
L 386.89184 154.510736 
L 386.693421 156.193115 
L 386.60354 157.875494 
L 386.606502 159.557873 
L 386.682349 161.240251 
L 386.807785 162.92263 
L 386.957277 164.605009 
L 387.104253 166.287388 
L 387.222365 167.969767 
L 387.286746 169.652146 
L 387.275181 171.334525 
L 387.169129 173.016904 
L 386.954528 174.699283 
L 386.622339 176.381662 
L 386.168788 178.064041 
L 385.595309 179.74642 
L 384.908184 181.428799 
L 384.117934 183.111178 
L 383.238496 184.793556 
L 382.286244 186.475935 
L 381.27894 188.158314 
L 380.23467 189.840693 
L 379.170838 191.523072 
L 378.103295 193.205451 
L 377.045642 194.88783 
L 376.008768 196.570209 
L 375.000637 198.252588 
L 374.02633 199.934967 
L 373.088327 201.617346 
L 372.18698 203.299725 
L 371.321124 204.982104 
L 370.488743 206.664483 
L 369.687625 208.346862 
L 368.915933 210.02924 
L 368.172621 211.711619 
L 367.457689 213.393998 
L 366.772238 215.076377 
L 366.118359 216.758756 
L 365.498876 218.441135 
L 364.917 220.123514 
z
" clip-path="url(#p002923fa45)" style="fill: #1f77b4; fill-opacity: 0.3"/>
   </g>
   <g id="matplotlib.axis_1">
    <g id="xtick_1">
     <g id="line2d_1">
      <defs>
       <path id="m68f2d036f1" d="M 0 0 
L 0 3.5 
" style="stroke: #000000; stroke-width: 0.8"/>
      </defs>
      <g>
       <use xlink:href="#m68f2d036f1" x="69.668354" y="307.584" style="stroke: #000000; stroke-width: 0.8"/>
      </g>
     </g>
     <g id="text_1">
      <!-- 250 -->
      <g transform="translate(60.124604 322.182437)scale(0.1 -0.1)">
       <defs>
        <path id="DejaVuSans-32" d="M 1228 531 
L 3431 531 
L 3431 0 
L 469 0 
L 469 531 
Q 828 903 1448 1529 
Q 2069 2156 2228 2338 
Q 2531 2678 2651 2914 
Q 2772 3150 2772 3378 
Q 2772 3750 2511 3984 
Q 2250 4219 1831 4219 
Q 1534 4219 1204 4116 
Q 875 4013 500 3803 
L 500 4441 
Q 881 4594 1212 4672 
Q 1544 4750 1819 4750 
Q 2544 4750 2975 4387 
Q 3406 4025 3406 3419 
Q 3406 3131 3298 2873 
Q 3191 2616 2906 2266 
Q 2828 2175 2409 1742 
Q 1991 1309 1228 531 
z
" transform="scale(0.015625)"/>
        <path id="DejaVuSans-35" d="M 691 4666 
L 3169 4666 
L 3169 4134 
L 1269 4134 
L 1269 2991 
Q 1406 3038 1543 3061 
Q 1681 3084 1819 3084 
Q 2600 3084 3056 2656 
Q 3513 2228 3513 1497 
Q 3513 744 3044 326 
Q 2575 -91 1722 -91 
Q 1428 -91 1123 -41 
Q 819 9 494 109 
L 494 744 
Q 775 591 1075 516 
Q 1375 441 1709 441 
Q 2250 441 2565 725 
Q 2881 1009 2881 1497 
Q 2881 1984 2565 2268 
Q 2250 2553 1709 2553 
Q 1456 2553 1204 2497 
Q 953 2441 691 2322 
L 691 4666 
z
" transform="scale(0.015625)"/>
        <path id="DejaVuSans-30" d="M 2034 4250 
Q 1547 4250 1301 3770 
Q 1056 3291 1056 2328 
Q 1056 1369 1301 889 
Q 1547 409 2034 409 
Q 2525 409 2770 889 
Q 3016 1369 3016 2328 
Q 3016 3291 2770 3770 
Q 2525 4250 2034 4250 
z
M 2034 4750 
Q 2819 4750 3233 4129 
Q 3647 3509 3647 2328 
Q 3647 1150 3233 529 
Q 2819 -91 2034 -91 
Q 1250 -91 836 529 
Q 422 1150 422 2328 
Q 422 3509 836 4129 
Q 1250 4750 2034 4750 
z
" transform="scale(0.015625)"/>
       </defs>
       <use xlink:href="#DejaVuSans-32"/>
       <use xlink:href="#DejaVuSans-35" x="63.623047"/>
       <use xlink:href="#DejaVuSans-30" x="127.246094"/>
      </g>
     </g>
    </g>
    <g id="xtick_2">
     <g id="line2d_2">
      <g>
       <use xlink:href="#m68f2d036f1" x="111.312087" y="307.584" style="stroke: #000000; stroke-width: 0.8"/>
      </g>
     </g>
     <g id="text_2">
      <!-- 500 -->
      <g transform="translate(101.768337 322.182437)scale(0.1 -0.1)">
       <use xlink:href="#DejaVuSans-35"/>
       <use xlink:href="#DejaVuSans-30" x="63.623047"/>
       <use xlink:href="#DejaVuSans-30" x="127.246094"/>
      </g>
     </g>
    </g>
    <g id="xtick_3">
     <g id="line2d_3">
      <g>
       <use xlink:href="#m68f2d036f1" x="152.955821" y="307.584" style="stroke: #000000; stroke-width: 0.8"/>
      </g>
     </g>
     <g id="text_3">
      <!-- 750 -->
      <g transform="translate(143.412071 322.182437)scale(0.1 -0.1)">
       <defs>
        <path id="DejaVuSans-37" d="M 525 4666 
L 3525 4666 
L 3525 4397 
L 1831 0 
L 1172 0 
L 2766 4134 
L 525 4134 
L 525 4666 
z
" transform="scale(0.015625)"/>
       </defs>
       <use xlink:href="#DejaVuSans-37"/>
       <use xlink:href="#DejaVuSans-35" x="63.623047"/>
       <use xlink:href="#DejaVuSans-30" x="127.246094"/>
      </g>
     </g>
    </g>
    <g id="xtick_4">
     <g id="line2d_4">
      <g>
       <use xlink:href="#m68f2d036f1" x="194.599554" y="307.584" style="stroke: #000000; stroke-width: 0.8"/>
      </g>
     </g>
     <g id="text_4">
      <!-- 1000 -->
      <g transform="translate(181.874554 322.182437)scale(0.1 -0.1)">
       <defs>
        <path id="DejaVuSans-31" d="M 794 531 
L 1825 531 
L 1825 4091 
L 703 3866 
L 703 4441 
L 1819 4666 
L 2450 4666 
L 2450 531 
L 3481 531 
L 3481 0 
L 794 0 
L 794 531 
z
" transform="scale(0.015625)"/>
       </defs>
       <use xlink:href="#DejaVuSans-31"/>
       <use xlink:href="#DejaVuSans-30" x="63.623047"/>
       <use xlink:href="#DejaVuSans-30" x="127.246094"/>
       <use xlink:href="#DejaVuSans-30" x="190.869141"/>
      </g>
     </g>
    </g>
    <g id="xtick_5">
     <g id="line2d_5">
      <g>
       <use xlink:href="#m68f2d036f1" x="236.243287" y="307.584" style="stroke: #000000; stroke-width: 0.8"/>
      </g>
     </g>
     <g id="text_5">
      <!-- 1250 -->
      <g transform="translate(223.518287 322.182437)scale(0.1 -0.1)">
       <use xlink:href="#DejaVuSans-31"/>
       <use xlink:href="#DejaVuSans-32" x="63.623047"/>
       <use xlink:href="#DejaVuSans-35" x="127.246094"/>
       <use xlink:href="#DejaVuSans-30" x="190.869141"/>
      </g>
     </g>
    </g>
    <g id="xtick_6">
     <g id="line2d_6">
      <g>
       <use xlink:href="#m68f2d036f1" x="277.887021" y="307.584" style="stroke: #000000; stroke-width: 0.8"/>
      </g>
     </g>
     <g id="text_6">
      <!-- 1500 -->
      <g transform="translate(265.162021 322.182437)scale(0.1 -0.1)">
       <use xlink:href="#DejaVuSans-31"/>
       <use xlink:href="#DejaVuSans-35" x="63.623047"/>
       <use xlink:href="#DejaVuSans-30" x="127.246094"/>
       <use xlink:href="#DejaVuSans-30" x="190.869141"/>
      </g>
     </g>
    </g>
    <g id="xtick_7">
     <g id="line2d_7">
      <g>
       <use xlink:href="#m68f2d036f1" x="319.530754" y="307.584" style="stroke: #000000; stroke-width: 0.8"/>
      </g>
     </g>
     <g id="text_7">
      <!-- 1750 -->
      <g transform="translate(306.805754 322.182437)scale(0.1 -0.1)">
       <use xlink:href="#DejaVuSans-31"/>
       <use xlink:href="#DejaVuSans-37" x="63.623047"/>
       <use xlink:href="#DejaVuSans-35" x="127.246094"/>
       <use xlink:href="#DejaVuSans-30" x="190.869141"/>
      </g>
     </g>
    </g>
    <g id="xtick_8">
     <g id="line2d_8">
      <g>
       <use xlink:href="#m68f2d036f1" x="361.174488" y="307.584" style="stroke: #000000; stroke-width: 0.8"/>
      </g>
     </g>
     <g id="text_8">
      <!-- 2000 -->
      <g transform="translate(348.449488 322.182437)scale(0.1 -0.1)">
       <use xlink:href="#DejaVuSans-32"/>
       <use xlink:href="#DejaVuSans-30" x="63.623047"/>
       <use xlink:href="#DejaVuSans-30" x="127.246094"/>
       <use xlink:href="#DejaVuSans-30" x="190.869141"/>
      </g>
     </g>
    </g>
    <g id="xtick_9">
     <g id="line2d_9">
      <g>
       <use xlink:href="#m68f2d036f1" x="402.818221" y="307.584" style="stroke: #000000; stroke-width: 0.8"/>
      </g>
     </g>
     <g id="text_9">
      <!-- 2250 -->
      <g transform="translate(390.093221 322.182437)scale(0.1 -0.1)">
       <use xlink:href="#DejaVuSans-32"/>
       <use xlink:href="#DejaVuSans-32" x="63.623047"/>
       <use xlink:href="#DejaVuSans-35" x="127.246094"/>
       <use xlink:href="#DejaVuSans-30" x="190.869141"/>
      </g>
     </g>
    </g>
    <g id="text_10">
     <!-- Learned Episodes -->
     <g transform="translate(192.102187 335.860562)scale(0.1 -0.1)">
      <defs>
       <path id="DejaVuSans-4c" d="M 628 4666 
L 1259 4666 
L 1259 531 
L 3531 531 
L 3531 0 
L 628 0 
L 628 4666 
z
" transform="scale(0.015625)"/>
       <path id="DejaVuSans-65" d="M 3597 1894 
L 3597 1613 
L 953 1613 
Q 991 1019 1311 708 
Q 1631 397 2203 397 
Q 2534 397 2845 478 
Q 3156 559 3463 722 
L 3463 178 
Q 3153 47 2828 -22 
Q 2503 -91 2169 -91 
Q 1331 -91 842 396 
Q 353 884 353 1716 
Q 353 2575 817 3079 
Q 1281 3584 2069 3584 
Q 2775 3584 3186 3129 
Q 3597 2675 3597 1894 
z
M 3022 2063 
Q 3016 2534 2758 2815 
Q 2500 3097 2075 3097 
Q 1594 3097 1305 2825 
Q 1016 2553 972 2059 
L 3022 2063 
z
" transform="scale(0.015625)"/>
       <path id="DejaVuSans-61" d="M 2194 1759 
Q 1497 1759 1228 1600 
Q 959 1441 959 1056 
Q 959 750 1161 570 
Q 1363 391 1709 391 
Q 2188 391 2477 730 
Q 2766 1069 2766 1631 
L 2766 1759 
L 2194 1759 
z
M 3341 1997 
L 3341 0 
L 2766 0 
L 2766 531 
Q 2569 213 2275 61 
Q 1981 -91 1556 -91 
Q 1019 -91 701 211 
Q 384 513 384 1019 
Q 384 1609 779 1909 
Q 1175 2209 1959 2209 
L 2766 2209 
L 2766 2266 
Q 2766 2663 2505 2880 
Q 2244 3097 1772 3097 
Q 1472 3097 1187 3025 
Q 903 2953 641 2809 
L 641 3341 
Q 956 3463 1253 3523 
Q 1550 3584 1831 3584 
Q 2591 3584 2966 3190 
Q 3341 2797 3341 1997 
z
" transform="scale(0.015625)"/>
       <path id="DejaVuSans-72" d="M 2631 2963 
Q 2534 3019 2420 3045 
Q 2306 3072 2169 3072 
Q 1681 3072 1420 2755 
Q 1159 2438 1159 1844 
L 1159 0 
L 581 0 
L 581 3500 
L 1159 3500 
L 1159 2956 
Q 1341 3275 1631 3429 
Q 1922 3584 2338 3584 
Q 2397 3584 2469 3576 
Q 2541 3569 2628 3553 
L 2631 2963 
z
" transform="scale(0.015625)"/>
       <path id="DejaVuSans-6e" d="M 3513 2113 
L 3513 0 
L 2938 0 
L 2938 2094 
Q 2938 2591 2744 2837 
Q 2550 3084 2163 3084 
Q 1697 3084 1428 2787 
Q 1159 2491 1159 1978 
L 1159 0 
L 581 0 
L 581 3500 
L 1159 3500 
L 1159 2956 
Q 1366 3272 1645 3428 
Q 1925 3584 2291 3584 
Q 2894 3584 3203 3211 
Q 3513 2838 3513 2113 
z
" transform="scale(0.015625)"/>
       <path id="DejaVuSans-64" d="M 2906 2969 
L 2906 4863 
L 3481 4863 
L 3481 0 
L 2906 0 
L 2906 525 
Q 2725 213 2448 61 
Q 2172 -91 1784 -91 
Q 1150 -91 751 415 
Q 353 922 353 1747 
Q 353 2572 751 3078 
Q 1150 3584 1784 3584 
Q 2172 3584 2448 3432 
Q 2725 3281 2906 2969 
z
M 947 1747 
Q 947 1113 1208 752 
Q 1469 391 1925 391 
Q 2381 391 2643 752 
Q 2906 1113 2906 1747 
Q 2906 2381 2643 2742 
Q 2381 3103 1925 3103 
Q 1469 3103 1208 2742 
Q 947 2381 947 1747 
z
" transform="scale(0.015625)"/>
       <path id="DejaVuSans-20" transform="scale(0.015625)"/>
       <path id="DejaVuSans-45" d="M 628 4666 
L 3578 4666 
L 3578 4134 
L 1259 4134 
L 1259 2753 
L 3481 2753 
L 3481 2222 
L 1259 2222 
L 1259 531 
L 3634 531 
L 3634 0 
L 628 0 
L 628 4666 
z
" transform="scale(0.015625)"/>
       <path id="DejaVuSans-70" d="M 1159 525 
L 1159 -1331 
L 581 -1331 
L 581 3500 
L 1159 3500 
L 1159 2969 
Q 1341 3281 1617 3432 
Q 1894 3584 2278 3584 
Q 2916 3584 3314 3078 
Q 3713 2572 3713 1747 
Q 3713 922 3314 415 
Q 2916 -91 2278 -91 
Q 1894 -91 1617 61 
Q 1341 213 1159 525 
z
M 3116 1747 
Q 3116 2381 2855 2742 
Q 2594 3103 2138 3103 
Q 1681 3103 1420 2742 
Q 1159 2381 1159 1747 
Q 1159 1113 1420 752 
Q 1681 391 2138 391 
Q 2594 391 2855 752 
Q 3116 1113 3116 1747 
z
" transform="scale(0.015625)"/>
       <path id="DejaVuSans-69" d="M 603 3500 
L 1178 3500 
L 1178 0 
L 603 0 
L 603 3500 
z
M 603 4863 
L 1178 4863 
L 1178 4134 
L 603 4134 
L 603 4863 
z
" transform="scale(0.015625)"/>
       <path id="DejaVuSans-73" d="M 2834 3397 
L 2834 2853 
Q 2591 2978 2328 3040 
Q 2066 3103 1784 3103 
Q 1356 3103 1142 2972 
Q 928 2841 928 2578 
Q 928 2378 1081 2264 
Q 1234 2150 1697 2047 
L 1894 2003 
Q 2506 1872 2764 1633 
Q 3022 1394 3022 966 
Q 3022 478 2636 193 
Q 2250 -91 1575 -91 
Q 1294 -91 989 -36 
Q 684 19 347 128 
L 347 722 
Q 666 556 975 473 
Q 1284 391 1588 391 
Q 1994 391 2212 530 
Q 2431 669 2431 922 
Q 2431 1156 2273 1281 
Q 2116 1406 1581 1522 
L 1381 1569 
Q 847 1681 609 1914 
Q 372 2147 372 2553 
Q 372 3047 722 3315 
Q 1072 3584 1716 3584 
Q 2034 3584 2315 3537 
Q 2597 3491 2834 3397 
z
" transform="scale(0.015625)"/>
       <path id="DejaVuSans-6f" d="M 1959 3097 
Q 1497 3097 1228 2736 
Q 959 2375 959 1747 
Q 959 1119 1226 758 
Q 1494 397 1959 397 
Q 2419 397 2687 759 
Q 2956 1122 2956 1747 
Q 2956 2369 2687 2733 
Q 2419 3097 1959 3097 
z
M 1959 3584 
Q 2709 3584 3137 3096 
Q 3566 2609 3566 1747 
Q 3566 888 3137 398 
Q 2709 -91 1959 -91 
Q 1206 -91 779 398 
Q 353 888 353 1747 
Q 353 2609 779 3096 
Q 1206 3584 1959 3584 
z
" transform="scale(0.015625)"/>
      </defs>
      <use xlink:href="#DejaVuSans-4c"/>
      <use xlink:href="#DejaVuSans-65" x="53.962891"/>
      <use xlink:href="#DejaVuSans-61" x="115.486328"/>
      <use xlink:href="#DejaVuSans-72" x="176.765625"/>
      <use xlink:href="#DejaVuSans-6e" x="216.128906"/>
      <use xlink:href="#DejaVuSans-65" x="279.507812"/>
      <use xlink:href="#DejaVuSans-64" x="341.03125"/>
      <use xlink:href="#DejaVuSans-20" x="404.507812"/>
      <use xlink:href="#DejaVuSans-45" x="436.294922"/>
      <use xlink:href="#DejaVuSans-70" x="499.478516"/>
      <use xlink:href="#DejaVuSans-69" x="562.955078"/>
      <use xlink:href="#DejaVuSans-73" x="590.738281"/>
      <use xlink:href="#DejaVuSans-6f" x="642.837891"/>
      <use xlink:href="#DejaVuSans-64" x="704.019531"/>
      <use xlink:href="#DejaVuSans-65" x="767.496094"/>
      <use xlink:href="#DejaVuSans-73" x="829.019531"/>
     </g>
    </g>
   </g>
   <g id="matplotlib.axis_2">
    <g id="ytick_1">
     <g id="line2d_10">
      <defs>
       <path id="m9978a7e0af" d="M 0 0 
L -3.5 0 
" style="stroke: #000000; stroke-width: 0.8"/>
      </defs>
      <g>
       <use xlink:href="#m9978a7e0af" x="57.6" y="303.778093" style="stroke: #000000; stroke-width: 0.8"/>
      </g>
     </g>
     <g id="text_11">
      <!-- 50 -->
      <g transform="translate(37.875 307.577312)scale(0.1 -0.1)">
       <use xlink:href="#DejaVuSans-35"/>
       <use xlink:href="#DejaVuSans-30" x="63.623047"/>
      </g>
     </g>
    </g>
    <g id="ytick_2">
     <g id="line2d_11">
      <g>
       <use xlink:href="#m9978a7e0af" x="57.6" y="266.09585" style="stroke: #000000; stroke-width: 0.8"/>
      </g>
     </g>
     <g id="text_12">
      <!-- 100 -->
      <g transform="translate(31.5125 269.895069)scale(0.1 -0.1)">
       <use xlink:href="#DejaVuSans-31"/>
       <use xlink:href="#DejaVuSans-30" x="63.623047"/>
       <use xlink:href="#DejaVuSans-30" x="127.246094"/>
      </g>
     </g>
    </g>
    <g id="ytick_3">
     <g id="line2d_12">
      <g>
       <use xlink:href="#m9978a7e0af" x="57.6" y="228.413607" style="stroke: #000000; stroke-width: 0.8"/>
      </g>
     </g>
     <g id="text_13">
      <!-- 150 -->
      <g transform="translate(31.5125 232.212826)scale(0.1 -0.1)">
       <use xlink:href="#DejaVuSans-31"/>
       <use xlink:href="#DejaVuSans-35" x="63.623047"/>
       <use xlink:href="#DejaVuSans-30" x="127.246094"/>
      </g>
     </g>
    </g>
    <g id="ytick_4">
     <g id="line2d_13">
      <g>
       <use xlink:href="#m9978a7e0af" x="57.6" y="190.731364" style="stroke: #000000; stroke-width: 0.8"/>
      </g>
     </g>
     <g id="text_14">
      <!-- 200 -->
      <g transform="translate(31.5125 194.530583)scale(0.1 -0.1)">
       <use xlink:href="#DejaVuSans-32"/>
       <use xlink:href="#DejaVuSans-30" x="63.623047"/>
       <use xlink:href="#DejaVuSans-30" x="127.246094"/>
      </g>
     </g>
    </g>
    <g id="ytick_5">
     <g id="line2d_14">
      <g>
       <use xlink:href="#m9978a7e0af" x="57.6" y="153.049121" style="stroke: #000000; stroke-width: 0.8"/>
      </g>
     </g>
     <g id="text_15">
      <!-- 250 -->
      <g transform="translate(31.5125 156.84834)scale(0.1 -0.1)">
       <use xlink:href="#DejaVuSans-32"/>
       <use xlink:href="#DejaVuSans-35" x="63.623047"/>
       <use xlink:href="#DejaVuSans-30" x="127.246094"/>
      </g>
     </g>
    </g>
    <g id="ytick_6">
     <g id="line2d_15">
      <g>
       <use xlink:href="#m9978a7e0af" x="57.6" y="115.366879" style="stroke: #000000; stroke-width: 0.8"/>
      </g>
     </g>
     <g id="text_16">
      <!-- 300 -->
      <g transform="translate(31.5125 119.166097)scale(0.1 -0.1)">
       <defs>
        <path id="DejaVuSans-33" d="M 2597 2516 
Q 3050 2419 3304 2112 
Q 3559 1806 3559 1356 
Q 3559 666 3084 287 
Q 2609 -91 1734 -91 
Q 1441 -91 1130 -33 
Q 819 25 488 141 
L 488 750 
Q 750 597 1062 519 
Q 1375 441 1716 441 
Q 2309 441 2620 675 
Q 2931 909 2931 1356 
Q 2931 1769 2642 2001 
Q 2353 2234 1838 2234 
L 1294 2234 
L 1294 2753 
L 1863 2753 
Q 2328 2753 2575 2939 
Q 2822 3125 2822 3475 
Q 2822 3834 2567 4026 
Q 2313 4219 1838 4219 
Q 1578 4219 1281 4162 
Q 984 4106 628 3988 
L 628 4550 
Q 988 4650 1302 4700 
Q 1616 4750 1894 4750 
Q 2613 4750 3031 4423 
Q 3450 4097 3450 3541 
Q 3450 3153 3228 2886 
Q 3006 2619 2597 2516 
z
" transform="scale(0.015625)"/>
       </defs>
       <use xlink:href="#DejaVuSans-33"/>
       <use xlink:href="#DejaVuSans-30" x="63.623047"/>
       <use xlink:href="#DejaVuSans-30" x="127.246094"/>
      </g>
     </g>
    </g>
    <g id="ytick_7">
     <g id="line2d_16">
      <g>
       <use xlink:href="#m9978a7e0af" x="57.6" y="77.684636" style="stroke: #000000; stroke-width: 0.8"/>
      </g>
     </g>
     <g id="text_17">
      <!-- 350 -->
      <g transform="translate(31.5125 81.483854)scale(0.1 -0.1)">
       <use xlink:href="#DejaVuSans-33"/>
       <use xlink:href="#DejaVuSans-35" x="63.623047"/>
       <use xlink:href="#DejaVuSans-30" x="127.246094"/>
      </g>
     </g>
    </g>
    <g id="text_18">
     <!-- Reward Density -->
     <g transform="translate(25.432812 213.74675)rotate(-90)scale(0.1 -0.1)">
      <defs>
       <path id="DejaVuSans-52" d="M 2841 2188 
Q 3044 2119 3236 1894 
Q 3428 1669 3622 1275 
L 4263 0 
L 3584 0 
L 2988 1197 
Q 2756 1666 2539 1819 
Q 2322 1972 1947 1972 
L 1259 1972 
L 1259 0 
L 628 0 
L 628 4666 
L 2053 4666 
Q 2853 4666 3247 4331 
Q 3641 3997 3641 3322 
Q 3641 2881 3436 2590 
Q 3231 2300 2841 2188 
z
M 1259 4147 
L 1259 2491 
L 2053 2491 
Q 2509 2491 2742 2702 
Q 2975 2913 2975 3322 
Q 2975 3731 2742 3939 
Q 2509 4147 2053 4147 
L 1259 4147 
z
" transform="scale(0.015625)"/>
       <path id="DejaVuSans-77" d="M 269 3500 
L 844 3500 
L 1563 769 
L 2278 3500 
L 2956 3500 
L 3675 769 
L 4391 3500 
L 4966 3500 
L 4050 0 
L 3372 0 
L 2619 2869 
L 1863 0 
L 1184 0 
L 269 3500 
z
" transform="scale(0.015625)"/>
       <path id="DejaVuSans-44" d="M 1259 4147 
L 1259 519 
L 2022 519 
Q 2988 519 3436 956 
Q 3884 1394 3884 2338 
Q 3884 3275 3436 3711 
Q 2988 4147 2022 4147 
L 1259 4147 
z
M 628 4666 
L 1925 4666 
Q 3281 4666 3915 4102 
Q 4550 3538 4550 2338 
Q 4550 1131 3912 565 
Q 3275 0 1925 0 
L 628 0 
L 628 4666 
z
" transform="scale(0.015625)"/>
       <path id="DejaVuSans-74" d="M 1172 4494 
L 1172 3500 
L 2356 3500 
L 2356 3053 
L 1172 3053 
L 1172 1153 
Q 1172 725 1289 603 
Q 1406 481 1766 481 
L 2356 481 
L 2356 0 
L 1766 0 
Q 1100 0 847 248 
Q 594 497 594 1153 
L 594 3053 
L 172 3053 
L 172 3500 
L 594 3500 
L 594 4494 
L 1172 4494 
z
" transform="scale(0.015625)"/>
       <path id="DejaVuSans-79" d="M 2059 -325 
Q 1816 -950 1584 -1140 
Q 1353 -1331 966 -1331 
L 506 -1331 
L 506 -850 
L 844 -850 
Q 1081 -850 1212 -737 
Q 1344 -625 1503 -206 
L 1606 56 
L 191 3500 
L 800 3500 
L 1894 763 
L 2988 3500 
L 3597 3500 
L 2059 -325 
z
" transform="scale(0.015625)"/>
      </defs>
      <use xlink:href="#DejaVuSans-52"/>
      <use xlink:href="#DejaVuSans-65" x="64.982422"/>
      <use xlink:href="#DejaVuSans-77" x="126.505859"/>
      <use xlink:href="#DejaVuSans-61" x="208.292969"/>
      <use xlink:href="#DejaVuSans-72" x="269.572266"/>
      <use xlink:href="#DejaVuSans-64" x="308.935547"/>
      <use xlink:href="#DejaVuSans-20" x="372.412109"/>
      <use xlink:href="#DejaVuSans-44" x="404.199219"/>
      <use xlink:href="#DejaVuSans-65" x="481.201172"/>
      <use xlink:href="#DejaVuSans-6e" x="542.724609"/>
      <use xlink:href="#DejaVuSans-73" x="606.103516"/>
      <use xlink:href="#DejaVuSans-69" x="658.203125"/>
      <use xlink:href="#DejaVuSans-74" x="685.986328"/>
      <use xlink:href="#DejaVuSans-79" x="725.195312"/>
     </g>
    </g>
   </g>
   <g id="LineCollection_1">
    <path d="M 92.572407 235.13612 
L 130.051767 235.13612 
" clip-path="url(#p002923fa45)" style="fill: none; stroke: #1f77b4; stroke-width: 1.5"/>
    <path d="M 175.859874 147.285246 
L 213.339234 147.285246 
" clip-path="url(#p002923fa45)" style="fill: none; stroke: #1f77b4; stroke-width: 1.5"/>
    <path d="M 259.147341 131.672739 
L 296.626701 131.672739 
" clip-path="url(#p002923fa45)" style="fill: none; stroke: #1f77b4; stroke-width: 1.5"/>
    <path d="M 342.268233 137.192434 
L 379.747593 137.192434 
" clip-path="url(#p002923fa45)" style="fill: none; stroke: #1f77b4; stroke-width: 1.5"/>
   </g>
   <g id="LineCollection_2">
    <path d="M 92.572407 107.83043 
L 130.051767 107.83043 
" clip-path="url(#p002923fa45)" style="fill: none; stroke: #1f77b4; stroke-width: 1.5"/>
    <path d="M 175.859874 79.191925 
L 213.339234 79.191925 
" clip-path="url(#p002923fa45)" style="fill: none; stroke: #1f77b4; stroke-width: 1.5"/>
    <path d="M 259.147341 62.611738 
L 296.626701 62.611738 
" clip-path="url(#p002923fa45)" style="fill: none; stroke: #1f77b4; stroke-width: 1.5"/>
    <path d="M 342.268233 53.568 
L 379.747593 53.568 
" clip-path="url(#p002923fa45)" style="fill: none; stroke: #1f77b4; stroke-width: 1.5"/>
   </g>
   <g id="LineCollection_3">
    <path d="M 92.572407 295.488 
L 130.051767 295.488 
" clip-path="url(#p002923fa45)" style="fill: none; stroke: #1f77b4; stroke-width: 1.5"/>
    <path d="M 175.859874 219.369869 
L 213.339234 219.369869 
" clip-path="url(#p002923fa45)" style="fill: none; stroke: #1f77b4; stroke-width: 1.5"/>
    <path d="M 259.147341 203.543327 
L 296.626701 203.543327 
" clip-path="url(#p002923fa45)" style="fill: none; stroke: #1f77b4; stroke-width: 1.5"/>
    <path d="M 342.268233 220.123514 
L 379.747593 220.123514 
" clip-path="url(#p002923fa45)" style="fill: none; stroke: #1f77b4; stroke-width: 1.5"/>
   </g>
   <g id="LineCollection_4">
    <path d="M 111.312087 295.488 
L 111.312087 107.83043 
" clip-path="url(#p002923fa45)" style="fill: none; stroke: #1f77b4; stroke-width: 1.5"/>
    <path d="M 194.599554 219.369869 
L 194.599554 79.191925 
" clip-path="url(#p002923fa45)" style="fill: none; stroke: #1f77b4; stroke-width: 1.5"/>
    <path d="M 277.887021 203.543327 
L 277.887021 62.611738 
" clip-path="url(#p002923fa45)" style="fill: none; stroke: #1f77b4; stroke-width: 1.5"/>
    <path d="M 361.007913 220.123514 
L 361.007913 53.568 
" clip-path="url(#p002923fa45)" style="fill: none; stroke: #1f77b4; stroke-width: 1.5"/>
   </g>
   <g id="line2d_17">
    <path d="M 111.312087 235.13612 
L 194.599554 147.285246 
L 277.887021 131.672739 
L 361.007913 137.192434 
" clip-path="url(#p002923fa45)" style="fill: none; stroke: #4682b4; stroke-width: 1.5; stroke-linecap: square"/>
   </g>
   <g id="patch_3">
    <path d="M 57.6 307.584 
L 57.6 41.472 
" style="fill: none; stroke: #000000; stroke-width: 0.8; stroke-linejoin: miter; stroke-linecap: square"/>
   </g>
   <g id="patch_4">
    <path d="M 414.72 307.584 
L 414.72 41.472 
" style="fill: none; stroke: #000000; stroke-width: 0.8; stroke-linejoin: miter; stroke-linecap: square"/>
   </g>
   <g id="patch_5">
    <path d="M 57.6 307.584 
L 414.72 307.584 
" style="fill: none; stroke: #000000; stroke-width: 0.8; stroke-linejoin: miter; stroke-linecap: square"/>
   </g>
   <g id="patch_6">
    <path d="M 57.6 41.472 
L 414.72 41.472 
" style="fill: none; stroke: #000000; stroke-width: 0.8; stroke-linejoin: miter; stroke-linecap: square"/>
   </g>
   <g id="text_19">
    <!-- Violinplot for progress of customer/purchases_new -->
    <g transform="translate(84.319688 35.472)scale(0.12 -0.12)">
     <defs>
      <path id="DejaVuSans-56" d="M 1831 0 
L 50 4666 
L 709 4666 
L 2188 738 
L 3669 4666 
L 4325 4666 
L 2547 0 
L 1831 0 
z
" transform="scale(0.015625)"/>
      <path id="DejaVuSans-6c" d="M 603 4863 
L 1178 4863 
L 1178 0 
L 603 0 
L 603 4863 
z
" transform="scale(0.015625)"/>
      <path id="DejaVuSans-66" d="M 2375 4863 
L 2375 4384 
L 1825 4384 
Q 1516 4384 1395 4259 
Q 1275 4134 1275 3809 
L 1275 3500 
L 2222 3500 
L 2222 3053 
L 1275 3053 
L 1275 0 
L 697 0 
L 697 3053 
L 147 3053 
L 147 3500 
L 697 3500 
L 697 3744 
Q 697 4328 969 4595 
Q 1241 4863 1831 4863 
L 2375 4863 
z
" transform="scale(0.015625)"/>
      <path id="DejaVuSans-67" d="M 2906 1791 
Q 2906 2416 2648 2759 
Q 2391 3103 1925 3103 
Q 1463 3103 1205 2759 
Q 947 2416 947 1791 
Q 947 1169 1205 825 
Q 1463 481 1925 481 
Q 2391 481 2648 825 
Q 2906 1169 2906 1791 
z
M 3481 434 
Q 3481 -459 3084 -895 
Q 2688 -1331 1869 -1331 
Q 1566 -1331 1297 -1286 
Q 1028 -1241 775 -1147 
L 775 -588 
Q 1028 -725 1275 -790 
Q 1522 -856 1778 -856 
Q 2344 -856 2625 -561 
Q 2906 -266 2906 331 
L 2906 616 
Q 2728 306 2450 153 
Q 2172 0 1784 0 
Q 1141 0 747 490 
Q 353 981 353 1791 
Q 353 2603 747 3093 
Q 1141 3584 1784 3584 
Q 2172 3584 2450 3431 
Q 2728 3278 2906 2969 
L 2906 3500 
L 3481 3500 
L 3481 434 
z
" transform="scale(0.015625)"/>
      <path id="DejaVuSans-63" d="M 3122 3366 
L 3122 2828 
Q 2878 2963 2633 3030 
Q 2388 3097 2138 3097 
Q 1578 3097 1268 2742 
Q 959 2388 959 1747 
Q 959 1106 1268 751 
Q 1578 397 2138 397 
Q 2388 397 2633 464 
Q 2878 531 3122 666 
L 3122 134 
Q 2881 22 2623 -34 
Q 2366 -91 2075 -91 
Q 1284 -91 818 406 
Q 353 903 353 1747 
Q 353 2603 823 3093 
Q 1294 3584 2113 3584 
Q 2378 3584 2631 3529 
Q 2884 3475 3122 3366 
z
" transform="scale(0.015625)"/>
      <path id="DejaVuSans-75" d="M 544 1381 
L 544 3500 
L 1119 3500 
L 1119 1403 
Q 1119 906 1312 657 
Q 1506 409 1894 409 
Q 2359 409 2629 706 
Q 2900 1003 2900 1516 
L 2900 3500 
L 3475 3500 
L 3475 0 
L 2900 0 
L 2900 538 
Q 2691 219 2414 64 
Q 2138 -91 1772 -91 
Q 1169 -91 856 284 
Q 544 659 544 1381 
z
M 1991 3584 
L 1991 3584 
z
" transform="scale(0.015625)"/>
      <path id="DejaVuSans-6d" d="M 3328 2828 
Q 3544 3216 3844 3400 
Q 4144 3584 4550 3584 
Q 5097 3584 5394 3201 
Q 5691 2819 5691 2113 
L 5691 0 
L 5113 0 
L 5113 2094 
Q 5113 2597 4934 2840 
Q 4756 3084 4391 3084 
Q 3944 3084 3684 2787 
Q 3425 2491 3425 1978 
L 3425 0 
L 2847 0 
L 2847 2094 
Q 2847 2600 2669 2842 
Q 2491 3084 2119 3084 
Q 1678 3084 1418 2786 
Q 1159 2488 1159 1978 
L 1159 0 
L 581 0 
L 581 3500 
L 1159 3500 
L 1159 2956 
Q 1356 3278 1631 3431 
Q 1906 3584 2284 3584 
Q 2666 3584 2933 3390 
Q 3200 3197 3328 2828 
z
" transform="scale(0.015625)"/>
      <path id="DejaVuSans-2f" d="M 1625 4666 
L 2156 4666 
L 531 -594 
L 0 -594 
L 1625 4666 
z
" transform="scale(0.015625)"/>
      <path id="DejaVuSans-68" d="M 3513 2113 
L 3513 0 
L 2938 0 
L 2938 2094 
Q 2938 2591 2744 2837 
Q 2550 3084 2163 3084 
Q 1697 3084 1428 2787 
Q 1159 2491 1159 1978 
L 1159 0 
L 581 0 
L 581 4863 
L 1159 4863 
L 1159 2956 
Q 1366 3272 1645 3428 
Q 1925 3584 2291 3584 
Q 2894 3584 3203 3211 
Q 3513 2838 3513 2113 
z
" transform="scale(0.015625)"/>
      <path id="DejaVuSans-5f" d="M 3263 -1063 
L 3263 -1509 
L -63 -1509 
L -63 -1063 
L 3263 -1063 
z
" transform="scale(0.015625)"/>
     </defs>
     <use xlink:href="#DejaVuSans-56"/>
     <use xlink:href="#DejaVuSans-69" x="66.158203"/>
     <use xlink:href="#DejaVuSans-6f" x="93.941406"/>
     <use xlink:href="#DejaVuSans-6c" x="155.123047"/>
     <use xlink:href="#DejaVuSans-69" x="182.90625"/>
     <use xlink:href="#DejaVuSans-6e" x="210.689453"/>
     <use xlink:href="#DejaVuSans-70" x="274.068359"/>
     <use xlink:href="#DejaVuSans-6c" x="337.544922"/>
     <use xlink:href="#DejaVuSans-6f" x="365.328125"/>
     <use xlink:href="#DejaVuSans-74" x="426.509766"/>
     <use xlink:href="#DejaVuSans-20" x="465.71875"/>
     <use xlink:href="#DejaVuSans-66" x="497.505859"/>
     <use xlink:href="#DejaVuSans-6f" x="532.710938"/>
     <use xlink:href="#DejaVuSans-72" x="593.892578"/>
     <use xlink:href="#DejaVuSans-20" x="635.005859"/>
     <use xlink:href="#DejaVuSans-70" x="666.792969"/>
     <use xlink:href="#DejaVuSans-72" x="730.269531"/>
     <use xlink:href="#DejaVuSans-6f" x="769.132812"/>
     <use xlink:href="#DejaVuSans-67" x="830.314453"/>
     <use xlink:href="#DejaVuSans-72" x="893.791016"/>
     <use xlink:href="#DejaVuSans-65" x="932.654297"/>
     <use xlink:href="#DejaVuSans-73" x="994.177734"/>
     <use xlink:href="#DejaVuSans-73" x="1046.277344"/>
     <use xlink:href="#DejaVuSans-20" x="1098.376953"/>
     <use xlink:href="#DejaVuSans-6f" x="1130.164062"/>
     <use xlink:href="#DejaVuSans-66" x="1191.345703"/>
     <use xlink:href="#DejaVuSans-20" x="1226.550781"/>
     <use xlink:href="#DejaVuSans-63" x="1258.337891"/>
     <use xlink:href="#DejaVuSans-75" x="1313.318359"/>
     <use xlink:href="#DejaVuSans-73" x="1376.697266"/>
     <use xlink:href="#DejaVuSans-74" x="1428.796875"/>
     <use xlink:href="#DejaVuSans-6f" x="1468.005859"/>
     <use xlink:href="#DejaVuSans-6d" x="1529.1875"/>
     <use xlink:href="#DejaVuSans-65" x="1626.599609"/>
     <use xlink:href="#DejaVuSans-72" x="1688.123047"/>
     <use xlink:href="#DejaVuSans-2f" x="1729.236328"/>
     <use xlink:href="#DejaVuSans-70" x="1762.927734"/>
     <use xlink:href="#DejaVuSans-75" x="1826.404297"/>
     <use xlink:href="#DejaVuSans-72" x="1889.783203"/>
     <use xlink:href="#DejaVuSans-63" x="1928.646484"/>
     <use xlink:href="#DejaVuSans-68" x="1983.626953"/>
     <use xlink:href="#DejaVuSans-61" x="2047.005859"/>
     <use xlink:href="#DejaVuSans-73" x="2108.285156"/>
     <use xlink:href="#DejaVuSans-65" x="2160.384766"/>
     <use xlink:href="#DejaVuSans-73" x="2221.908203"/>
     <use xlink:href="#DejaVuSans-5f" x="2274.007812"/>
     <use xlink:href="#DejaVuSans-6e" x="2324.007812"/>
     <use xlink:href="#DejaVuSans-65" x="2387.386719"/>
     <use xlink:href="#DejaVuSans-77" x="2448.910156"/>
    </g>
   </g>
   <g id="legend_1">
    <g id="patch_7">
     <path d="M 284.430938 64.150125 
L 407.72 64.150125 
Q 409.72 64.150125 409.72 62.150125 
L 409.72 48.472 
Q 409.72 46.472 407.72 46.472 
L 284.430938 46.472 
Q 282.430938 46.472 282.430938 48.472 
L 282.430938 62.150125 
Q 282.430938 64.150125 284.430938 64.150125 
z
" style="fill: #ffffff; opacity: 0.8; stroke: #cccccc; stroke-linejoin: miter"/>
    </g>
    <g id="line2d_18">
     <path d="M 286.430938 54.570438 
L 296.430938 54.570438 
L 306.430938 54.570438 
" style="fill: none; stroke: #4682b4; stroke-width: 1.5; stroke-linecap: square"/>
    </g>
    <g id="text_20">
     <!-- Storage-Minimizer -->
     <g transform="translate(314.430938 58.070438)scale(0.1 -0.1)">
      <defs>
       <path id="DejaVuSans-53" d="M 3425 4513 
L 3425 3897 
Q 3066 4069 2747 4153 
Q 2428 4238 2131 4238 
Q 1616 4238 1336 4038 
Q 1056 3838 1056 3469 
Q 1056 3159 1242 3001 
Q 1428 2844 1947 2747 
L 2328 2669 
Q 3034 2534 3370 2195 
Q 3706 1856 3706 1288 
Q 3706 609 3251 259 
Q 2797 -91 1919 -91 
Q 1588 -91 1214 -16 
Q 841 59 441 206 
L 441 856 
Q 825 641 1194 531 
Q 1563 422 1919 422 
Q 2459 422 2753 634 
Q 3047 847 3047 1241 
Q 3047 1584 2836 1778 
Q 2625 1972 2144 2069 
L 1759 2144 
Q 1053 2284 737 2584 
Q 422 2884 422 3419 
Q 422 4038 858 4394 
Q 1294 4750 2059 4750 
Q 2388 4750 2728 4690 
Q 3069 4631 3425 4513 
z
" transform="scale(0.015625)"/>
       <path id="DejaVuSans-2d" d="M 313 2009 
L 1997 2009 
L 1997 1497 
L 313 1497 
L 313 2009 
z
" transform="scale(0.015625)"/>
       <path id="DejaVuSans-4d" d="M 628 4666 
L 1569 4666 
L 2759 1491 
L 3956 4666 
L 4897 4666 
L 4897 0 
L 4281 0 
L 4281 4097 
L 3078 897 
L 2444 897 
L 1241 4097 
L 1241 0 
L 628 0 
L 628 4666 
z
" transform="scale(0.015625)"/>
       <path id="DejaVuSans-7a" d="M 353 3500 
L 3084 3500 
L 3084 2975 
L 922 459 
L 3084 459 
L 3084 0 
L 275 0 
L 275 525 
L 2438 3041 
L 353 3041 
L 353 3500 
z
" transform="scale(0.015625)"/>
      </defs>
      <use xlink:href="#DejaVuSans-53"/>
      <use xlink:href="#DejaVuSans-74" x="63.476562"/>
      <use xlink:href="#DejaVuSans-6f" x="102.685547"/>
      <use xlink:href="#DejaVuSans-72" x="163.867188"/>
      <use xlink:href="#DejaVuSans-61" x="204.980469"/>
      <use xlink:href="#DejaVuSans-67" x="266.259766"/>
      <use xlink:href="#DejaVuSans-65" x="329.736328"/>
      <use xlink:href="#DejaVuSans-2d" x="391.259766"/>
      <use xlink:href="#DejaVuSans-4d" x="427.34375"/>
      <use xlink:href="#DejaVuSans-69" x="513.623047"/>
      <use xlink:href="#DejaVuSans-6e" x="541.40625"/>
      <use xlink:href="#DejaVuSans-69" x="604.785156"/>
      <use xlink:href="#DejaVuSans-6d" x="632.568359"/>
      <use xlink:href="#DejaVuSans-69" x="729.980469"/>
      <use xlink:href="#DejaVuSans-7a" x="757.763672"/>
      <use xlink:href="#DejaVuSans-65" x="810.253906"/>
      <use xlink:href="#DejaVuSans-72" x="871.777344"/>
     </g>
    </g>
   </g>
  </g>
 </g>
 <defs>
  <clipPath id="p002923fa45">
   <rect x="57.6" y="41.472" width="357.12" height="266.112"/>
  </clipPath>
 </defs>
</svg>
