<?xml version="1.0" encoding="utf-8" standalone="no"?>
<!DOCTYPE svg PUBLIC "-//W3C//DTD SVG 1.1//EN"
  "http://www.w3.org/Graphics/SVG/1.1/DTD/svg11.dtd">
<svg xmlns:xlink="http://www.w3.org/1999/xlink" width="460.8pt" height="345.6pt" viewBox="0 0 460.8 345.6" xmlns="http://www.w3.org/2000/svg" version="1.1">
 <metadata>
  <rdf:RDF xmlns:dc="http://purl.org/dc/elements/1.1/" xmlns:cc="http://creativecommons.org/ns#" xmlns:rdf="http://www.w3.org/1999/02/22-rdf-syntax-ns#">
   <cc:Work>
    <dc:type rdf:resource="http://purl.org/dc/dcmitype/StillImage"/>
    <dc:date>2022-06-20T17:56:44.359107</dc:date>
    <dc:format>image/svg+xml</dc:format>
    <dc:creator>
     <cc:Agent>
      <dc:title>Matplotlib v3.5.2, https://matplotlib.org/</dc:title>
     </cc:Agent>
    </dc:creator>
   </cc:Work>
  </rdf:RDF>
 </metadata>
 <defs>
  <style type="text/css">*{stroke-linejoin: round; stroke-linecap: butt}</style>
 </defs>
 <g id="figure_1">
  <g id="patch_1">
   <path d="M 0 345.6 
L 460.8 345.6 
L 460.8 0 
L 0 0 
L 0 345.6 
z
" style="fill: none"/>
  </g>
  <g id="axes_1">
   <g id="patch_2">
    <path d="M 57.6 307.584 
L 414.72 307.584 
L 414.72 41.472 
L 57.6 41.472 
L 57.6 307.584 
z
" style="fill: none"/>
   </g>
   <g id="matplotlib.axis_1">
    <g id="xtick_1">
     <g id="line2d_1">
      <path d="M 72.200477 307.584 
L 72.200477 41.472 
" clip-path="url(#p8e5da178e6)" style="fill: none; stroke-dasharray: 2.96,1.28; stroke-dashoffset: 0; stroke: #b0b0b0; stroke-width: 0.8"/>
     </g>
     <g id="line2d_2">
      <defs>
       <path id="mda62525124" d="M 0 0 
L 0 3.5 
" style="stroke: #000000; stroke-width: 0.8"/>
      </defs>
      <g>
       <use xlink:href="#mda62525124" x="72.200477" y="307.584" style="stroke: #000000; stroke-width: 0.8"/>
      </g>
     </g>
     <g id="text_1">
      <!-- 0 -->
      <g transform="translate(69.019227 322.182437)scale(0.1 -0.1)">
       <defs>
        <path id="DejaVuSans-30" d="M 2034 4250 
Q 1547 4250 1301 3770 
Q 1056 3291 1056 2328 
Q 1056 1369 1301 889 
Q 1547 409 2034 409 
Q 2525 409 2770 889 
Q 3016 1369 3016 2328 
Q 3016 3291 2770 3770 
Q 2525 4250 2034 4250 
z
M 2034 4750 
Q 2819 4750 3233 4129 
Q 3647 3509 3647 2328 
Q 3647 1150 3233 529 
Q 2819 -91 2034 -91 
Q 1250 -91 836 529 
Q 422 1150 422 2328 
Q 422 3509 836 4129 
Q 1250 4750 2034 4750 
z
" transform="scale(0.015625)"/>
       </defs>
       <use xlink:href="#DejaVuSans-30"/>
      </g>
     </g>
    </g>
    <g id="xtick_2">
     <g id="line2d_3">
      <path d="M 113.00673 307.584 
L 113.00673 41.472 
" clip-path="url(#p8e5da178e6)" style="fill: none; stroke-dasharray: 2.96,1.28; stroke-dashoffset: 0; stroke: #b0b0b0; stroke-width: 0.8"/>
     </g>
     <g id="line2d_4">
      <g>
       <use xlink:href="#mda62525124" x="113.00673" y="307.584" style="stroke: #000000; stroke-width: 0.8"/>
      </g>
     </g>
     <g id="text_2">
      <!-- 250 -->
      <g transform="translate(103.46298 322.182437)scale(0.1 -0.1)">
       <defs>
        <path id="DejaVuSans-32" d="M 1228 531 
L 3431 531 
L 3431 0 
L 469 0 
L 469 531 
Q 828 903 1448 1529 
Q 2069 2156 2228 2338 
Q 2531 2678 2651 2914 
Q 2772 3150 2772 3378 
Q 2772 3750 2511 3984 
Q 2250 4219 1831 4219 
Q 1534 4219 1204 4116 
Q 875 4013 500 3803 
L 500 4441 
Q 881 4594 1212 4672 
Q 1544 4750 1819 4750 
Q 2544 4750 2975 4387 
Q 3406 4025 3406 3419 
Q 3406 3131 3298 2873 
Q 3191 2616 2906 2266 
Q 2828 2175 2409 1742 
Q 1991 1309 1228 531 
z
" transform="scale(0.015625)"/>
        <path id="DejaVuSans-35" d="M 691 4666 
L 3169 4666 
L 3169 4134 
L 1269 4134 
L 1269 2991 
Q 1406 3038 1543 3061 
Q 1681 3084 1819 3084 
Q 2600 3084 3056 2656 
Q 3513 2228 3513 1497 
Q 3513 744 3044 326 
Q 2575 -91 1722 -91 
Q 1428 -91 1123 -41 
Q 819 9 494 109 
L 494 744 
Q 775 591 1075 516 
Q 1375 441 1709 441 
Q 2250 441 2565 725 
Q 2881 1009 2881 1497 
Q 2881 1984 2565 2268 
Q 2250 2553 1709 2553 
Q 1456 2553 1204 2497 
Q 953 2441 691 2322 
L 691 4666 
z
" transform="scale(0.015625)"/>
       </defs>
       <use xlink:href="#DejaVuSans-32"/>
       <use xlink:href="#DejaVuSans-35" x="63.623047"/>
       <use xlink:href="#DejaVuSans-30" x="127.246094"/>
      </g>
     </g>
    </g>
    <g id="xtick_3">
     <g id="line2d_5">
      <path d="M 153.812982 307.584 
L 153.812982 41.472 
" clip-path="url(#p8e5da178e6)" style="fill: none; stroke-dasharray: 2.96,1.28; stroke-dashoffset: 0; stroke: #b0b0b0; stroke-width: 0.8"/>
     </g>
     <g id="line2d_6">
      <g>
       <use xlink:href="#mda62525124" x="153.812982" y="307.584" style="stroke: #000000; stroke-width: 0.8"/>
      </g>
     </g>
     <g id="text_3">
      <!-- 500 -->
      <g transform="translate(144.269232 322.182437)scale(0.1 -0.1)">
       <use xlink:href="#DejaVuSans-35"/>
       <use xlink:href="#DejaVuSans-30" x="63.623047"/>
       <use xlink:href="#DejaVuSans-30" x="127.246094"/>
      </g>
     </g>
    </g>
    <g id="xtick_4">
     <g id="line2d_7">
      <path d="M 194.619235 307.584 
L 194.619235 41.472 
" clip-path="url(#p8e5da178e6)" style="fill: none; stroke-dasharray: 2.96,1.28; stroke-dashoffset: 0; stroke: #b0b0b0; stroke-width: 0.8"/>
     </g>
     <g id="line2d_8">
      <g>
       <use xlink:href="#mda62525124" x="194.619235" y="307.584" style="stroke: #000000; stroke-width: 0.8"/>
      </g>
     </g>
     <g id="text_4">
      <!-- 750 -->
      <g transform="translate(185.075485 322.182437)scale(0.1 -0.1)">
       <defs>
        <path id="DejaVuSans-37" d="M 525 4666 
L 3525 4666 
L 3525 4397 
L 1831 0 
L 1172 0 
L 2766 4134 
L 525 4134 
L 525 4666 
z
" transform="scale(0.015625)"/>
       </defs>
       <use xlink:href="#DejaVuSans-37"/>
       <use xlink:href="#DejaVuSans-35" x="63.623047"/>
       <use xlink:href="#DejaVuSans-30" x="127.246094"/>
      </g>
     </g>
    </g>
    <g id="xtick_5">
     <g id="line2d_9">
      <path d="M 235.425487 307.584 
L 235.425487 41.472 
" clip-path="url(#p8e5da178e6)" style="fill: none; stroke-dasharray: 2.96,1.28; stroke-dashoffset: 0; stroke: #b0b0b0; stroke-width: 0.8"/>
     </g>
     <g id="line2d_10">
      <g>
       <use xlink:href="#mda62525124" x="235.425487" y="307.584" style="stroke: #000000; stroke-width: 0.8"/>
      </g>
     </g>
     <g id="text_5">
      <!-- 1000 -->
      <g transform="translate(222.700487 322.182437)scale(0.1 -0.1)">
       <defs>
        <path id="DejaVuSans-31" d="M 794 531 
L 1825 531 
L 1825 4091 
L 703 3866 
L 703 4441 
L 1819 4666 
L 2450 4666 
L 2450 531 
L 3481 531 
L 3481 0 
L 794 0 
L 794 531 
z
" transform="scale(0.015625)"/>
       </defs>
       <use xlink:href="#DejaVuSans-31"/>
       <use xlink:href="#DejaVuSans-30" x="63.623047"/>
       <use xlink:href="#DejaVuSans-30" x="127.246094"/>
       <use xlink:href="#DejaVuSans-30" x="190.869141"/>
      </g>
     </g>
    </g>
    <g id="xtick_6">
     <g id="line2d_11">
      <path d="M 276.23174 307.584 
L 276.23174 41.472 
" clip-path="url(#p8e5da178e6)" style="fill: none; stroke-dasharray: 2.96,1.28; stroke-dashoffset: 0; stroke: #b0b0b0; stroke-width: 0.8"/>
     </g>
     <g id="line2d_12">
      <g>
       <use xlink:href="#mda62525124" x="276.23174" y="307.584" style="stroke: #000000; stroke-width: 0.8"/>
      </g>
     </g>
     <g id="text_6">
      <!-- 1250 -->
      <g transform="translate(263.50674 322.182437)scale(0.1 -0.1)">
       <use xlink:href="#DejaVuSans-31"/>
       <use xlink:href="#DejaVuSans-32" x="63.623047"/>
       <use xlink:href="#DejaVuSans-35" x="127.246094"/>
       <use xlink:href="#DejaVuSans-30" x="190.869141"/>
      </g>
     </g>
    </g>
    <g id="xtick_7">
     <g id="line2d_13">
      <path d="M 317.037993 307.584 
L 317.037993 41.472 
" clip-path="url(#p8e5da178e6)" style="fill: none; stroke-dasharray: 2.96,1.28; stroke-dashoffset: 0; stroke: #b0b0b0; stroke-width: 0.8"/>
     </g>
     <g id="line2d_14">
      <g>
       <use xlink:href="#mda62525124" x="317.037993" y="307.584" style="stroke: #000000; stroke-width: 0.8"/>
      </g>
     </g>
     <g id="text_7">
      <!-- 1500 -->
      <g transform="translate(304.312993 322.182437)scale(0.1 -0.1)">
       <use xlink:href="#DejaVuSans-31"/>
       <use xlink:href="#DejaVuSans-35" x="63.623047"/>
       <use xlink:href="#DejaVuSans-30" x="127.246094"/>
       <use xlink:href="#DejaVuSans-30" x="190.869141"/>
      </g>
     </g>
    </g>
    <g id="xtick_8">
     <g id="line2d_15">
      <path d="M 357.844245 307.584 
L 357.844245 41.472 
" clip-path="url(#p8e5da178e6)" style="fill: none; stroke-dasharray: 2.96,1.28; stroke-dashoffset: 0; stroke: #b0b0b0; stroke-width: 0.8"/>
     </g>
     <g id="line2d_16">
      <g>
       <use xlink:href="#mda62525124" x="357.844245" y="307.584" style="stroke: #000000; stroke-width: 0.8"/>
      </g>
     </g>
     <g id="text_8">
      <!-- 1750 -->
      <g transform="translate(345.119245 322.182437)scale(0.1 -0.1)">
       <use xlink:href="#DejaVuSans-31"/>
       <use xlink:href="#DejaVuSans-37" x="63.623047"/>
       <use xlink:href="#DejaVuSans-35" x="127.246094"/>
       <use xlink:href="#DejaVuSans-30" x="190.869141"/>
      </g>
     </g>
    </g>
    <g id="xtick_9">
     <g id="line2d_17">
      <path d="M 398.650498 307.584 
L 398.650498 41.472 
" clip-path="url(#p8e5da178e6)" style="fill: none; stroke-dasharray: 2.96,1.28; stroke-dashoffset: 0; stroke: #b0b0b0; stroke-width: 0.8"/>
     </g>
     <g id="line2d_18">
      <g>
       <use xlink:href="#mda62525124" x="398.650498" y="307.584" style="stroke: #000000; stroke-width: 0.8"/>
      </g>
     </g>
     <g id="text_9">
      <!-- 2000 -->
      <g transform="translate(385.925498 322.182437)scale(0.1 -0.1)">
       <use xlink:href="#DejaVuSans-32"/>
       <use xlink:href="#DejaVuSans-30" x="63.623047"/>
       <use xlink:href="#DejaVuSans-30" x="127.246094"/>
       <use xlink:href="#DejaVuSans-30" x="190.869141"/>
      </g>
     </g>
    </g>
    <g id="text_10">
     <!-- Episode -->
     <g transform="translate(216.5225 335.860562)scale(0.1 -0.1)">
      <defs>
       <path id="DejaVuSans-45" d="M 628 4666 
L 3578 4666 
L 3578 4134 
L 1259 4134 
L 1259 2753 
L 3481 2753 
L 3481 2222 
L 1259 2222 
L 1259 531 
L 3634 531 
L 3634 0 
L 628 0 
L 628 4666 
z
" transform="scale(0.015625)"/>
       <path id="DejaVuSans-70" d="M 1159 525 
L 1159 -1331 
L 581 -1331 
L 581 3500 
L 1159 3500 
L 1159 2969 
Q 1341 3281 1617 3432 
Q 1894 3584 2278 3584 
Q 2916 3584 3314 3078 
Q 3713 2572 3713 1747 
Q 3713 922 3314 415 
Q 2916 -91 2278 -91 
Q 1894 -91 1617 61 
Q 1341 213 1159 525 
z
M 3116 1747 
Q 3116 2381 2855 2742 
Q 2594 3103 2138 3103 
Q 1681 3103 1420 2742 
Q 1159 2381 1159 1747 
Q 1159 1113 1420 752 
Q 1681 391 2138 391 
Q 2594 391 2855 752 
Q 3116 1113 3116 1747 
z
" transform="scale(0.015625)"/>
       <path id="DejaVuSans-69" d="M 603 3500 
L 1178 3500 
L 1178 0 
L 603 0 
L 603 3500 
z
M 603 4863 
L 1178 4863 
L 1178 4134 
L 603 4134 
L 603 4863 
z
" transform="scale(0.015625)"/>
       <path id="DejaVuSans-73" d="M 2834 3397 
L 2834 2853 
Q 2591 2978 2328 3040 
Q 2066 3103 1784 3103 
Q 1356 3103 1142 2972 
Q 928 2841 928 2578 
Q 928 2378 1081 2264 
Q 1234 2150 1697 2047 
L 1894 2003 
Q 2506 1872 2764 1633 
Q 3022 1394 3022 966 
Q 3022 478 2636 193 
Q 2250 -91 1575 -91 
Q 1294 -91 989 -36 
Q 684 19 347 128 
L 347 722 
Q 666 556 975 473 
Q 1284 391 1588 391 
Q 1994 391 2212 530 
Q 2431 669 2431 922 
Q 2431 1156 2273 1281 
Q 2116 1406 1581 1522 
L 1381 1569 
Q 847 1681 609 1914 
Q 372 2147 372 2553 
Q 372 3047 722 3315 
Q 1072 3584 1716 3584 
Q 2034 3584 2315 3537 
Q 2597 3491 2834 3397 
z
" transform="scale(0.015625)"/>
       <path id="DejaVuSans-6f" d="M 1959 3097 
Q 1497 3097 1228 2736 
Q 959 2375 959 1747 
Q 959 1119 1226 758 
Q 1494 397 1959 397 
Q 2419 397 2687 759 
Q 2956 1122 2956 1747 
Q 2956 2369 2687 2733 
Q 2419 3097 1959 3097 
z
M 1959 3584 
Q 2709 3584 3137 3096 
Q 3566 2609 3566 1747 
Q 3566 888 3137 398 
Q 2709 -91 1959 -91 
Q 1206 -91 779 398 
Q 353 888 353 1747 
Q 353 2609 779 3096 
Q 1206 3584 1959 3584 
z
" transform="scale(0.015625)"/>
       <path id="DejaVuSans-64" d="M 2906 2969 
L 2906 4863 
L 3481 4863 
L 3481 0 
L 2906 0 
L 2906 525 
Q 2725 213 2448 61 
Q 2172 -91 1784 -91 
Q 1150 -91 751 415 
Q 353 922 353 1747 
Q 353 2572 751 3078 
Q 1150 3584 1784 3584 
Q 2172 3584 2448 3432 
Q 2725 3281 2906 2969 
z
M 947 1747 
Q 947 1113 1208 752 
Q 1469 391 1925 391 
Q 2381 391 2643 752 
Q 2906 1113 2906 1747 
Q 2906 2381 2643 2742 
Q 2381 3103 1925 3103 
Q 1469 3103 1208 2742 
Q 947 2381 947 1747 
z
" transform="scale(0.015625)"/>
       <path id="DejaVuSans-65" d="M 3597 1894 
L 3597 1613 
L 953 1613 
Q 991 1019 1311 708 
Q 1631 397 2203 397 
Q 2534 397 2845 478 
Q 3156 559 3463 722 
L 3463 178 
Q 3153 47 2828 -22 
Q 2503 -91 2169 -91 
Q 1331 -91 842 396 
Q 353 884 353 1716 
Q 353 2575 817 3079 
Q 1281 3584 2069 3584 
Q 2775 3584 3186 3129 
Q 3597 2675 3597 1894 
z
M 3022 2063 
Q 3016 2534 2758 2815 
Q 2500 3097 2075 3097 
Q 1594 3097 1305 2825 
Q 1016 2553 972 2059 
L 3022 2063 
z
" transform="scale(0.015625)"/>
      </defs>
      <use xlink:href="#DejaVuSans-45"/>
      <use xlink:href="#DejaVuSans-70" x="63.183594"/>
      <use xlink:href="#DejaVuSans-69" x="126.660156"/>
      <use xlink:href="#DejaVuSans-73" x="154.443359"/>
      <use xlink:href="#DejaVuSans-6f" x="206.542969"/>
      <use xlink:href="#DejaVuSans-64" x="267.724609"/>
      <use xlink:href="#DejaVuSans-65" x="331.201172"/>
     </g>
    </g>
   </g>
   <g id="matplotlib.axis_2">
    <g id="ytick_1">
     <g id="line2d_19">
      <path d="M 57.6 282.095733 
L 414.72 282.095733 
" clip-path="url(#p8e5da178e6)" style="fill: none; stroke-dasharray: 2.96,1.28; stroke-dashoffset: 0; stroke: #b0b0b0; stroke-width: 0.8"/>
     </g>
     <g id="line2d_20">
      <defs>
       <path id="m5e8d93016f" d="M 0 0 
L -3.5 0 
" style="stroke: #000000; stroke-width: 0.8"/>
      </defs>
      <g>
       <use xlink:href="#m5e8d93016f" x="57.6" y="282.095733" style="stroke: #000000; stroke-width: 0.8"/>
      </g>
     </g>
     <g id="text_11">
      <!-- −1400 -->
      <g transform="translate(16.770313 285.894951)scale(0.1 -0.1)">
       <defs>
        <path id="DejaVuSans-2212" d="M 678 2272 
L 4684 2272 
L 4684 1741 
L 678 1741 
L 678 2272 
z
" transform="scale(0.015625)"/>
        <path id="DejaVuSans-34" d="M 2419 4116 
L 825 1625 
L 2419 1625 
L 2419 4116 
z
M 2253 4666 
L 3047 4666 
L 3047 1625 
L 3713 1625 
L 3713 1100 
L 3047 1100 
L 3047 0 
L 2419 0 
L 2419 1100 
L 313 1100 
L 313 1709 
L 2253 4666 
z
" transform="scale(0.015625)"/>
       </defs>
       <use xlink:href="#DejaVuSans-2212"/>
       <use xlink:href="#DejaVuSans-31" x="83.789062"/>
       <use xlink:href="#DejaVuSans-34" x="147.412109"/>
       <use xlink:href="#DejaVuSans-30" x="211.035156"/>
       <use xlink:href="#DejaVuSans-30" x="274.658203"/>
      </g>
     </g>
    </g>
    <g id="ytick_2">
     <g id="line2d_21">
      <path d="M 57.6 249.269616 
L 414.72 249.269616 
" clip-path="url(#p8e5da178e6)" style="fill: none; stroke-dasharray: 2.96,1.28; stroke-dashoffset: 0; stroke: #b0b0b0; stroke-width: 0.8"/>
     </g>
     <g id="line2d_22">
      <g>
       <use xlink:href="#m5e8d93016f" x="57.6" y="249.269616" style="stroke: #000000; stroke-width: 0.8"/>
      </g>
     </g>
     <g id="text_12">
      <!-- −1200 -->
      <g transform="translate(16.770313 253.068834)scale(0.1 -0.1)">
       <use xlink:href="#DejaVuSans-2212"/>
       <use xlink:href="#DejaVuSans-31" x="83.789062"/>
       <use xlink:href="#DejaVuSans-32" x="147.412109"/>
       <use xlink:href="#DejaVuSans-30" x="211.035156"/>
       <use xlink:href="#DejaVuSans-30" x="274.658203"/>
      </g>
     </g>
    </g>
    <g id="ytick_3">
     <g id="line2d_23">
      <path d="M 57.6 216.443499 
L 414.72 216.443499 
" clip-path="url(#p8e5da178e6)" style="fill: none; stroke-dasharray: 2.96,1.28; stroke-dashoffset: 0; stroke: #b0b0b0; stroke-width: 0.8"/>
     </g>
     <g id="line2d_24">
      <g>
       <use xlink:href="#m5e8d93016f" x="57.6" y="216.443499" style="stroke: #000000; stroke-width: 0.8"/>
      </g>
     </g>
     <g id="text_13">
      <!-- −1000 -->
      <g transform="translate(16.770313 220.242718)scale(0.1 -0.1)">
       <use xlink:href="#DejaVuSans-2212"/>
       <use xlink:href="#DejaVuSans-31" x="83.789062"/>
       <use xlink:href="#DejaVuSans-30" x="147.412109"/>
       <use xlink:href="#DejaVuSans-30" x="211.035156"/>
       <use xlink:href="#DejaVuSans-30" x="274.658203"/>
      </g>
     </g>
    </g>
    <g id="ytick_4">
     <g id="line2d_25">
      <path d="M 57.6 183.617382 
L 414.72 183.617382 
" clip-path="url(#p8e5da178e6)" style="fill: none; stroke-dasharray: 2.96,1.28; stroke-dashoffset: 0; stroke: #b0b0b0; stroke-width: 0.8"/>
     </g>
     <g id="line2d_26">
      <g>
       <use xlink:href="#m5e8d93016f" x="57.6" y="183.617382" style="stroke: #000000; stroke-width: 0.8"/>
      </g>
     </g>
     <g id="text_14">
      <!-- −800 -->
      <g transform="translate(23.132812 187.416601)scale(0.1 -0.1)">
       <defs>
        <path id="DejaVuSans-38" d="M 2034 2216 
Q 1584 2216 1326 1975 
Q 1069 1734 1069 1313 
Q 1069 891 1326 650 
Q 1584 409 2034 409 
Q 2484 409 2743 651 
Q 3003 894 3003 1313 
Q 3003 1734 2745 1975 
Q 2488 2216 2034 2216 
z
M 1403 2484 
Q 997 2584 770 2862 
Q 544 3141 544 3541 
Q 544 4100 942 4425 
Q 1341 4750 2034 4750 
Q 2731 4750 3128 4425 
Q 3525 4100 3525 3541 
Q 3525 3141 3298 2862 
Q 3072 2584 2669 2484 
Q 3125 2378 3379 2068 
Q 3634 1759 3634 1313 
Q 3634 634 3220 271 
Q 2806 -91 2034 -91 
Q 1263 -91 848 271 
Q 434 634 434 1313 
Q 434 1759 690 2068 
Q 947 2378 1403 2484 
z
M 1172 3481 
Q 1172 3119 1398 2916 
Q 1625 2713 2034 2713 
Q 2441 2713 2670 2916 
Q 2900 3119 2900 3481 
Q 2900 3844 2670 4047 
Q 2441 4250 2034 4250 
Q 1625 4250 1398 4047 
Q 1172 3844 1172 3481 
z
" transform="scale(0.015625)"/>
       </defs>
       <use xlink:href="#DejaVuSans-2212"/>
       <use xlink:href="#DejaVuSans-38" x="83.789062"/>
       <use xlink:href="#DejaVuSans-30" x="147.412109"/>
       <use xlink:href="#DejaVuSans-30" x="211.035156"/>
      </g>
     </g>
    </g>
    <g id="ytick_5">
     <g id="line2d_27">
      <path d="M 57.6 150.791265 
L 414.72 150.791265 
" clip-path="url(#p8e5da178e6)" style="fill: none; stroke-dasharray: 2.96,1.28; stroke-dashoffset: 0; stroke: #b0b0b0; stroke-width: 0.8"/>
     </g>
     <g id="line2d_28">
      <g>
       <use xlink:href="#m5e8d93016f" x="57.6" y="150.791265" style="stroke: #000000; stroke-width: 0.8"/>
      </g>
     </g>
     <g id="text_15">
      <!-- −600 -->
      <g transform="translate(23.132812 154.590484)scale(0.1 -0.1)">
       <defs>
        <path id="DejaVuSans-36" d="M 2113 2584 
Q 1688 2584 1439 2293 
Q 1191 2003 1191 1497 
Q 1191 994 1439 701 
Q 1688 409 2113 409 
Q 2538 409 2786 701 
Q 3034 994 3034 1497 
Q 3034 2003 2786 2293 
Q 2538 2584 2113 2584 
z
M 3366 4563 
L 3366 3988 
Q 3128 4100 2886 4159 
Q 2644 4219 2406 4219 
Q 1781 4219 1451 3797 
Q 1122 3375 1075 2522 
Q 1259 2794 1537 2939 
Q 1816 3084 2150 3084 
Q 2853 3084 3261 2657 
Q 3669 2231 3669 1497 
Q 3669 778 3244 343 
Q 2819 -91 2113 -91 
Q 1303 -91 875 529 
Q 447 1150 447 2328 
Q 447 3434 972 4092 
Q 1497 4750 2381 4750 
Q 2619 4750 2861 4703 
Q 3103 4656 3366 4563 
z
" transform="scale(0.015625)"/>
       </defs>
       <use xlink:href="#DejaVuSans-2212"/>
       <use xlink:href="#DejaVuSans-36" x="83.789062"/>
       <use xlink:href="#DejaVuSans-30" x="147.412109"/>
       <use xlink:href="#DejaVuSans-30" x="211.035156"/>
      </g>
     </g>
    </g>
    <g id="ytick_6">
     <g id="line2d_29">
      <path d="M 57.6 117.965149 
L 414.72 117.965149 
" clip-path="url(#p8e5da178e6)" style="fill: none; stroke-dasharray: 2.96,1.28; stroke-dashoffset: 0; stroke: #b0b0b0; stroke-width: 0.8"/>
     </g>
     <g id="line2d_30">
      <g>
       <use xlink:href="#m5e8d93016f" x="57.6" y="117.965149" style="stroke: #000000; stroke-width: 0.8"/>
      </g>
     </g>
     <g id="text_16">
      <!-- −400 -->
      <g transform="translate(23.132812 121.764367)scale(0.1 -0.1)">
       <use xlink:href="#DejaVuSans-2212"/>
       <use xlink:href="#DejaVuSans-34" x="83.789062"/>
       <use xlink:href="#DejaVuSans-30" x="147.412109"/>
       <use xlink:href="#DejaVuSans-30" x="211.035156"/>
      </g>
     </g>
    </g>
    <g id="ytick_7">
     <g id="line2d_31">
      <path d="M 57.6 85.139032 
L 414.72 85.139032 
" clip-path="url(#p8e5da178e6)" style="fill: none; stroke-dasharray: 2.96,1.28; stroke-dashoffset: 0; stroke: #b0b0b0; stroke-width: 0.8"/>
     </g>
     <g id="line2d_32">
      <g>
       <use xlink:href="#m5e8d93016f" x="57.6" y="85.139032" style="stroke: #000000; stroke-width: 0.8"/>
      </g>
     </g>
     <g id="text_17">
      <!-- −200 -->
      <g transform="translate(23.132812 88.93825)scale(0.1 -0.1)">
       <use xlink:href="#DejaVuSans-2212"/>
       <use xlink:href="#DejaVuSans-32" x="83.789062"/>
       <use xlink:href="#DejaVuSans-30" x="147.412109"/>
       <use xlink:href="#DejaVuSans-30" x="211.035156"/>
      </g>
     </g>
    </g>
    <g id="ytick_8">
     <g id="line2d_33">
      <path d="M 57.6 52.312915 
L 414.72 52.312915 
" clip-path="url(#p8e5da178e6)" style="fill: none; stroke-dasharray: 2.96,1.28; stroke-dashoffset: 0; stroke: #b0b0b0; stroke-width: 0.8"/>
     </g>
     <g id="line2d_34">
      <g>
       <use xlink:href="#m5e8d93016f" x="57.6" y="52.312915" style="stroke: #000000; stroke-width: 0.8"/>
      </g>
     </g>
     <g id="text_18">
      <!-- 0 -->
      <g transform="translate(44.2375 56.112134)scale(0.1 -0.1)">
       <use xlink:href="#DejaVuSans-30"/>
      </g>
     </g>
    </g>
    <g id="text_19">
     <!-- profits/rebuy_cost -->
     <g transform="translate(10.4125 219.298313)rotate(-90)scale(0.1 -0.1)">
      <defs>
       <path id="DejaVuSans-72" d="M 2631 2963 
Q 2534 3019 2420 3045 
Q 2306 3072 2169 3072 
Q 1681 3072 1420 2755 
Q 1159 2438 1159 1844 
L 1159 0 
L 581 0 
L 581 3500 
L 1159 3500 
L 1159 2956 
Q 1341 3275 1631 3429 
Q 1922 3584 2338 3584 
Q 2397 3584 2469 3576 
Q 2541 3569 2628 3553 
L 2631 2963 
z
" transform="scale(0.015625)"/>
       <path id="DejaVuSans-66" d="M 2375 4863 
L 2375 4384 
L 1825 4384 
Q 1516 4384 1395 4259 
Q 1275 4134 1275 3809 
L 1275 3500 
L 2222 3500 
L 2222 3053 
L 1275 3053 
L 1275 0 
L 697 0 
L 697 3053 
L 147 3053 
L 147 3500 
L 697 3500 
L 697 3744 
Q 697 4328 969 4595 
Q 1241 4863 1831 4863 
L 2375 4863 
z
" transform="scale(0.015625)"/>
       <path id="DejaVuSans-74" d="M 1172 4494 
L 1172 3500 
L 2356 3500 
L 2356 3053 
L 1172 3053 
L 1172 1153 
Q 1172 725 1289 603 
Q 1406 481 1766 481 
L 2356 481 
L 2356 0 
L 1766 0 
Q 1100 0 847 248 
Q 594 497 594 1153 
L 594 3053 
L 172 3053 
L 172 3500 
L 594 3500 
L 594 4494 
L 1172 4494 
z
" transform="scale(0.015625)"/>
       <path id="DejaVuSans-2f" d="M 1625 4666 
L 2156 4666 
L 531 -594 
L 0 -594 
L 1625 4666 
z
" transform="scale(0.015625)"/>
       <path id="DejaVuSans-62" d="M 3116 1747 
Q 3116 2381 2855 2742 
Q 2594 3103 2138 3103 
Q 1681 3103 1420 2742 
Q 1159 2381 1159 1747 
Q 1159 1113 1420 752 
Q 1681 391 2138 391 
Q 2594 391 2855 752 
Q 3116 1113 3116 1747 
z
M 1159 2969 
Q 1341 3281 1617 3432 
Q 1894 3584 2278 3584 
Q 2916 3584 3314 3078 
Q 3713 2572 3713 1747 
Q 3713 922 3314 415 
Q 2916 -91 2278 -91 
Q 1894 -91 1617 61 
Q 1341 213 1159 525 
L 1159 0 
L 581 0 
L 581 4863 
L 1159 4863 
L 1159 2969 
z
" transform="scale(0.015625)"/>
       <path id="DejaVuSans-75" d="M 544 1381 
L 544 3500 
L 1119 3500 
L 1119 1403 
Q 1119 906 1312 657 
Q 1506 409 1894 409 
Q 2359 409 2629 706 
Q 2900 1003 2900 1516 
L 2900 3500 
L 3475 3500 
L 3475 0 
L 2900 0 
L 2900 538 
Q 2691 219 2414 64 
Q 2138 -91 1772 -91 
Q 1169 -91 856 284 
Q 544 659 544 1381 
z
M 1991 3584 
L 1991 3584 
z
" transform="scale(0.015625)"/>
       <path id="DejaVuSans-79" d="M 2059 -325 
Q 1816 -950 1584 -1140 
Q 1353 -1331 966 -1331 
L 506 -1331 
L 506 -850 
L 844 -850 
Q 1081 -850 1212 -737 
Q 1344 -625 1503 -206 
L 1606 56 
L 191 3500 
L 800 3500 
L 1894 763 
L 2988 3500 
L 3597 3500 
L 2059 -325 
z
" transform="scale(0.015625)"/>
       <path id="DejaVuSans-5f" d="M 3263 -1063 
L 3263 -1509 
L -63 -1509 
L -63 -1063 
L 3263 -1063 
z
" transform="scale(0.015625)"/>
       <path id="DejaVuSans-63" d="M 3122 3366 
L 3122 2828 
Q 2878 2963 2633 3030 
Q 2388 3097 2138 3097 
Q 1578 3097 1268 2742 
Q 959 2388 959 1747 
Q 959 1106 1268 751 
Q 1578 397 2138 397 
Q 2388 397 2633 464 
Q 2878 531 3122 666 
L 3122 134 
Q 2881 22 2623 -34 
Q 2366 -91 2075 -91 
Q 1284 -91 818 406 
Q 353 903 353 1747 
Q 353 2603 823 3093 
Q 1294 3584 2113 3584 
Q 2378 3584 2631 3529 
Q 2884 3475 3122 3366 
z
" transform="scale(0.015625)"/>
      </defs>
      <use xlink:href="#DejaVuSans-70"/>
      <use xlink:href="#DejaVuSans-72" x="63.476562"/>
      <use xlink:href="#DejaVuSans-6f" x="102.339844"/>
      <use xlink:href="#DejaVuSans-66" x="163.521484"/>
      <use xlink:href="#DejaVuSans-69" x="198.726562"/>
      <use xlink:href="#DejaVuSans-74" x="226.509766"/>
      <use xlink:href="#DejaVuSans-73" x="265.71875"/>
      <use xlink:href="#DejaVuSans-2f" x="317.818359"/>
      <use xlink:href="#DejaVuSans-72" x="351.509766"/>
      <use xlink:href="#DejaVuSans-65" x="390.373047"/>
      <use xlink:href="#DejaVuSans-62" x="451.896484"/>
      <use xlink:href="#DejaVuSans-75" x="515.373047"/>
      <use xlink:href="#DejaVuSans-79" x="578.751953"/>
      <use xlink:href="#DejaVuSans-5f" x="637.931641"/>
      <use xlink:href="#DejaVuSans-63" x="687.931641"/>
      <use xlink:href="#DejaVuSans-6f" x="742.912109"/>
      <use xlink:href="#DejaVuSans-73" x="804.09375"/>
      <use xlink:href="#DejaVuSans-74" x="856.193359"/>
     </g>
    </g>
   </g>
   <g id="line2d_35">
    <path d="M 73.832727 295.488 
L 74.485627 259.962313 
L 74.975302 226.36836 
L 76.607552 168.690439 
L 77.423677 151.425341 
L 78.239803 138.527173 
L 79.219153 127.332644 
L 79.545603 124.565953 
L 79.872053 122.671805 
L 80.688178 116.412136 
L 81.830753 109.829147 
L 82.646878 105.889544 
L 83.463003 102.85301 
L 83.626228 102.545678 
L 84.115903 100.869452 
L 85.421703 97.236566 
L 85.748153 96.693326 
L 86.401053 95.172695 
L 86.564278 94.75479 
L 86.727503 94.662228 
L 88.359753 91.656126 
L 88.522978 91.514032 
L 88.686203 89.020573 
L 89.012653 81.159031 
L 89.175878 80.14512 
L 90.318453 67.163027 
L 90.808128 64.071566 
L 90.971353 63.468156 
L 91.461028 63.677983 
L 91.624253 63.23011 
L 92.766828 64.086861 
L 93.093278 64.400801 
L 93.256503 64.635375 
L 93.419729 64.666253 
L 93.746179 64.917509 
L 94.072629 65.121101 
L 94.562304 65.396569 
L 94.888754 65.628692 
L 95.051979 65.693502 
L 95.215204 65.934957 
L 95.378429 65.888247 
L 95.541654 66.041397 
L 95.868104 66.025328 
L 96.521004 65.704833 
L 97.500354 65.633336 
L 97.990029 65.717516 
L 99.132604 65.792443 
L 99.785504 65.560267 
L 99.948729 65.500136 
L 100.111954 65.235599 
L 100.601629 65.148753 
L 100.928079 64.993064 
L 101.254529 64.962506 
L 101.417754 64.901961 
L 101.580979 64.703241 
L 101.907429 64.68544 
L 102.070654 64.446045 
L 102.560329 64.375173 
L 102.723554 64.184932 
L 103.050004 64.193947 
L 103.376454 63.781148 
L 103.702904 63.715007 
L 104.355804 63.367534 
L 104.682254 63.049083 
L 104.845479 62.957513 
L 105.498379 62.200637 
L 106.314504 61.373555 
L 106.640954 61.108153 
L 106.804179 61.052464 
L 107.130629 60.657856 
L 107.457079 60.507235 
L 108.109979 60.128326 
L 108.436429 59.694592 
L 108.599654 59.635009 
L 109.74223 58.232187 
L 109.905455 58.208835 
L 110.39513 57.780588 
L 110.72158 57.746184 
L 112.02738 56.772604 
L 112.517055 56.640745 
L 113.00673 56.353146 
L 114.63898 55.915866 
L 114.802205 55.840173 
L 115.128655 55.841876 
L 119.86218 54.813908 
L 121.49443 54.699609 
L 122.310555 54.556937 
L 122.637005 54.504268 
L 122.963455 54.502899 
L 123.289905 54.383585 
L 131.614381 54.234467 
L 132.267281 54.234926 
L 134.552431 54.118119 
L 135.042106 54.081955 
L 135.858231 54.067055 
L 136.184681 54.014683 
L 137.000806 54.009248 
L 137.327256 53.957944 
L 138.143381 54.023375 
L 140.754981 53.940693 
L 141.897557 53.92126 
L 143.856257 53.634764 
L 150.385257 53.653281 
L 150.548482 53.837445 
L 151.201382 53.83128 
L 152.670407 53.796201 
L 153.486532 53.812005 
L 160.178758 53.84139 
L 160.994883 53.829014 
L 162.137458 53.888022 
L 163.769708 53.905967 
L 166.870983 54.061437 
L 167.034208 53.876298 
L 170.298708 53.963693 
L 177.154159 54.531922 
L 177.643834 54.625615 
L 181.887684 54.743006 
L 182.867034 54.715998 
L 193.80311 55.018654 
L 194.45601 54.968776 
L 198.210185 55.045096 
L 200.33211 55.103854 
L 201.148235 55.17439 
L 201.96436 55.246662 
L 203.92306 55.294833 
L 207.187561 55.322017 
L 207.840461 55.334534 
L 209.962386 55.292733 
L 210.288836 55.239689 
L 214.859136 55.268429 
L 215.348811 55.343455 
L 216.491386 55.35319 
L 220.735237 55.257593 
L 222.041037 55.173576 
L 223.183612 55.207104 
L 230.528737 55.324996 
L 242.280938 55.190935 
L 243.097063 55.106566 
L 243.749963 55.052147 
L 244.566088 54.996796 
L 256.318289 55.193874 
L 257.134414 55.279608 
L 258.603439 55.317396 
L 258.929889 55.362918 
L 259.746014 55.466888 
L 260.562139 55.576508 
L 262.847289 55.633303 
L 263.173739 55.737246 
L 264.316314 55.795524 
L 265.132439 55.70599 
L 265.785339 55.778928 
L 270.02919 55.992343 
L 270.68209 56.12849 
L 271.498215 56.112864 
L 275.089165 56.122945 
L 275.415615 56.095719 
L 275.90529 56.078892 
L 276.394965 56.072261 
L 277.047865 56.02226 
L 277.86399 56.154762 
L 281.291715 56.109249 
L 281.618165 56.189252 
L 282.76074 56.120121 
L 283.250415 56.125556 
L 287.494266 56.083842 
L 289.942641 56.190019 
L 292.227791 56.282819 
L 293.043916 56.219202 
L 293.370366 56.217902 
L 293.533591 56.330249 
L 294.349716 56.193037 
L 295.492291 56.266075 
L 296.308416 56.251098 
L 296.634866 56.280868 
L 300.552267 56.309003 
L 300.878717 56.400343 
L 301.368392 56.43309 
L 302.021292 56.389124 
L 302.674192 56.420455 
L 303.490317 56.435624 
L 304.469667 56.497459 
L 305.285792 56.497125 
L 305.612242 56.611267 
L 306.101917 56.590809 
L 307.244492 56.525053 
L 308.550292 56.594161 
L 309.039967 56.581323 
L 309.366417 56.67264 
L 310.182542 56.593129 
L 310.672217 56.675977 
L 312.304467 56.762529 
L 313.283817 56.840208 
L 314.099942 56.842768 
L 315.405742 57.006505 
L 318.180568 56.768672 
L 321.771518 57.07544 
L 322.097968 56.946202 
L 322.914093 57.121516 
L 323.566993 57.110166 
L 324.546343 57.129 
L 324.872793 57.097594 
L 328.790193 57.058029 
L 329.769543 56.932317 
L 330.748893 56.979194 
L 332.054694 56.949525 
L 332.707594 56.986514 
L 334.176619 57.026062 
L 334.666294 57.041351 
L 336.951444 56.86146 
L 337.604344 56.847097 
L 337.930794 56.744091 
L 338.583694 56.791179 
L 338.746919 56.685923 
L 339.073369 56.655471 
L 339.399819 56.598879 
L 339.726269 56.796883 
L 340.542394 56.852662 
L 340.868844 56.926486 
L 341.195294 56.948032 
L 344.786244 56.964807 
L 345.275919 57.01831 
L 346.908169 57.022739 
L 348.54042 57.059301 
L 349.030095 57.052433 
L 349.51977 57.15709 
L 350.009445 57.282919 
L 350.335895 57.297337 
L 350.82557 57.372745 
L 351.315245 57.484624 
L 351.80492 57.489657 
L 352.13137 57.505746 
L 355.06942 57.625671 
L 355.885545 57.701032 
L 356.37522 57.512732 
L 357.191345 57.448463 
L 359.150045 57.382998 
L 359.63972 57.492316 
L 362.57777 57.53545 
L 363.393896 57.573559 
L 364.536471 57.465525 
L 364.862921 57.456753 
L 365.679046 57.460226 
L 366.005496 57.413127 
L 366.331946 57.280865 
L 366.658396 57.252005 
L 367.311296 57.110882 
L 367.637746 57.109557 
L 368.290646 57.080283 
L 369.433221 57.037074 
L 370.412571 56.964266 
L 370.739021 56.905701 
L 371.228696 57.020859 
L 372.044821 56.917926 
L 373.187396 56.919349 
L 374.003521 57.012912 
L 377.431246 56.886073 
L 378.737046 56.910005 
L 379.063497 56.821027 
L 381.022197 57.014047 
L 381.348647 56.982219 
L 382.001547 57.072238 
L 382.654447 57.033142 
L 383.470572 57.064266 
L 389.999572 57.046211 
L 390.326022 56.955462 
L 391.142147 56.922725 
L 391.795047 56.890489 
L 392.447947 56.741621 
L 394.080197 56.834936 
L 395.222773 56.698472 
L 395.712448 56.721512 
L 396.038898 56.654696 
L 396.365348 56.675867 
L 397.344698 56.665497 
L 397.671148 56.710926 
L 398.487273 56.538704 
L 398.487273 56.538704 
" clip-path="url(#p8e5da178e6)" style="fill: none; stroke: #1f77b4; stroke-width: 1.5; stroke-linecap: square"/>
   </g>
   <g id="line2d_36">
    <path d="M 73.832727 116.536778 
L 74.485627 106.260241 
L 74.975302 98.673321 
L 75.464977 93.979489 
L 76.117877 87.660907 
L 76.770777 82.873016 
L 77.586903 78.459793 
L 78.403028 75.119202 
L 79.382378 72.201301 
L 81.014628 69.074842 
L 81.993978 67.643531 
L 83.136553 66.123294 
L 83.463003 65.746308 
L 83.626228 65.745211 
L 84.442353 64.953504 
L 84.605578 64.953388 
L 85.584928 64.222127 
L 85.748153 64.353377 
L 86.074603 64.087407 
L 86.237828 64.191145 
L 87.217178 63.573401 
L 87.706853 63.327985 
L 88.522978 62.963158 
L 88.686203 62.251553 
L 89.012653 60.219899 
L 89.502328 58.902694 
L 90.318453 56.706559 
L 90.481678 56.880942 
L 90.971353 56.382213 
L 91.134578 56.530421 
L 91.297803 56.405256 
L 91.624253 56.698065 
L 91.787478 57.036927 
L 92.113928 57.181696 
L 92.277153 57.413163 
L 92.440378 57.451198 
L 93.093278 58.08631 
L 93.419729 58.201554 
L 94.235854 59.040311 
L 94.562304 59.388078 
L 96.031329 60.488843 
L 96.194554 60.451127 
L 96.357779 60.703348 
L 97.173904 60.907004 
L 97.500354 61.308196 
L 98.316479 61.692932 
L 98.806154 61.665571 
L 99.132604 61.796495 
L 100.275179 62.479249 
L 100.928079 62.582822 
L 101.254529 62.467318 
L 101.417754 62.656757 
L 102.397104 62.693062 
L 102.560329 62.794198 
L 102.723554 62.591427 
L 103.539679 62.671954 
L 103.866129 62.742082 
L 104.029354 62.689751 
L 104.845479 63.015082 
L 105.498379 63.04682 
L 105.988054 63.029215 
L 106.477729 63.166827 
L 106.804179 63.167417 
L 107.130629 62.737268 
L 107.457079 63.028001 
L 107.620304 62.821947 
L 107.783529 62.865777 
L 107.946754 62.775006 
L 108.436429 61.976757 
L 108.599654 62.052636 
L 108.762879 61.839066 
L 108.926104 61.819331 
L 109.089329 61.636683 
L 109.41578 61.525062 
L 109.579005 61.388277 
L 109.74223 61.569379 
L 110.06868 61.500988 
L 110.231905 61.414474 
L 110.39513 61.124347 
L 110.72158 61.132987 
L 111.211255 60.763891 
L 111.37448 60.613873 
L 111.537705 60.674208 
L 112.02738 60.2887 
L 112.35383 60.226043 
L 113.00673 59.940614 
L 113.496405 60.032345 
L 113.65963 59.994563 
L 113.822855 59.761412 
L 113.98608 59.836189 
L 114.31253 59.717816 
L 115.455105 60.139681 
L 115.94478 59.913124 
L 116.108005 59.971467 
L 116.27123 59.732916 
L 116.59768 59.936937 
L 117.25058 60.13377 
L 118.066705 60.367303 
L 118.55638 60.73154 
L 118.88283 60.669604 
L 119.20928 60.964175 
L 119.53573 61.138014 
L 120.51508 61.226995 
L 121.004755 61.046155 
L 121.331205 61.09138 
L 121.984105 61.353586 
L 122.310555 61.427369 
L 122.47378 61.321126 
L 122.80023 61.549422 
L 123.12668 61.624493 
L 123.77958 61.387123 
L 124.75893 62.043716 
L 124.922155 62.274159 
L 125.085381 62.182842 
L 125.411831 62.228427 
L 125.575056 62.508344 
L 125.901506 62.460624 
L 126.064731 62.455402 
L 126.227956 62.268535 
L 127.207306 62.313569 
L 127.696981 62.861437 
L 128.023431 62.844056 
L 128.349881 62.862363 
L 128.676331 63.079973 
L 129.166006 63.131477 
L 129.329231 63.069346 
L 129.655681 63.144788 
L 129.982131 63.026314 
L 130.308581 63.074339 
L 130.471806 62.864031 
L 131.614381 63.01588 
L 131.777606 63.28442 
L 132.104056 63.309519 
L 132.756956 63.698867 
L 133.246631 63.383946 
L 133.899531 63.600229 
L 134.225981 63.718951 
L 134.389206 63.737945 
L 134.552431 63.911353 
L 134.878881 63.726786 
L 135.042106 63.686744 
L 135.205331 63.773432 
L 136.021456 63.578034 
L 136.184681 63.524408 
L 136.511131 63.599981 
L 136.674356 63.451288 
L 137.327256 63.788667 
L 137.816931 64.084971 
L 138.143381 64.121772 
L 138.469831 63.841644 
L 138.959506 63.784768 
L 139.285956 63.431532 
L 139.449181 63.451701 
L 139.612406 63.626636 
L 140.428531 63.541349 
L 140.754981 63.248792 
L 141.081432 63.322481 
L 141.407882 63.002675 
L 141.734332 63.158257 
L 142.550457 63.05549 
L 144.019482 62.852106 
L 144.182707 62.582176 
L 144.998832 62.764891 
L 145.651732 62.755528 
L 145.978182 62.861122 
L 146.141407 62.881841 
L 146.631082 63.358959 
L 147.610432 63.959049 
L 147.936882 63.831981 
L 148.100107 64.035563 
L 148.426557 64.026889 
L 148.916232 64.103251 
L 149.242682 63.905989 
L 149.569132 64.150973 
L 149.732357 64.038963 
L 149.895582 64.16064 
L 150.058807 63.957241 
L 150.385257 63.931646 
L 151.038157 63.711151 
L 151.527832 63.984843 
L 151.691057 63.87076 
L 151.854282 63.925234 
L 152.180732 63.779819 
L 152.670407 63.770509 
L 152.996857 63.805854 
L 153.649757 64.20318 
L 154.629107 63.747926 
L 154.955557 63.962347 
L 155.282007 64.025173 
L 155.934907 64.495927 
L 156.261357 64.336142 
L 156.424582 64.505497 
L 156.914258 64.265279 
L 157.240708 64.429313 
L 157.403933 64.254742 
L 157.730383 64.41953 
L 158.056833 64.033985 
L 158.383283 64.061615 
L 158.546508 63.832482 
L 159.036183 64.364122 
L 159.525858 64.560753 
L 160.178758 64.755532 
L 160.341983 64.57613 
L 160.668433 64.913559 
L 161.647783 65.443596 
L 162.137458 65.767719 
L 162.627133 66.074297 
L 162.953583 66.298546 
L 163.443258 66.382797 
L 163.769708 65.908802 
L 164.259383 65.933869 
L 164.422608 66.06155 
L 164.749058 65.915494 
L 165.075508 66.04325 
L 165.565183 66.597459 
L 166.054858 66.935937 
L 166.544533 67.2115 
L 167.034208 67.516589 
L 167.197433 67.426554 
L 167.523883 67.70191 
L 167.850333 67.750842 
L 168.176783 67.898085 
L 168.829683 68.129022 
L 169.156133 68.398989 
L 169.482583 68.452082 
L 169.645808 68.468332 
L 169.972258 68.709247 
L 170.298708 68.490243 
L 170.625158 68.660956 
L 171.114833 69.00877 
L 171.278058 69.096276 
L 171.604508 69.48206 
L 172.094183 69.532553 
L 172.257408 69.369476 
L 172.420633 69.39995 
L 172.747084 69.627113 
L 172.910309 69.45862 
L 173.236759 69.42288 
L 174.052884 70.40118 
L 174.379334 70.613059 
L 174.869009 71.477869 
L 175.032234 71.668001 
L 175.358684 71.595569 
L 175.521909 71.58557 
L 175.848359 71.804546 
L 176.174809 71.962302 
L 176.338034 71.826331 
L 176.501259 72.032307 
L 176.664484 71.955523 
L 176.827709 72.16353 
L 176.990934 72.180926 
L 177.154159 72.474183 
L 177.317384 72.363137 
L 177.480609 72.586571 
L 177.807059 72.424123 
L 178.623184 72.986604 
L 179.112859 72.659729 
L 179.602534 72.437105 
L 179.765759 72.427355 
L 180.092209 72.725146 
L 180.418659 73.177724 
L 181.071559 73.039482 
L 181.234784 72.926134 
L 181.561234 73.175696 
L 181.887684 72.965002 
L 182.214134 73.242674 
L 182.540584 72.770891 
L 182.867034 72.645952 
L 183.519934 72.903325 
L 183.683159 73.15225 
L 183.846384 73.065523 
L 184.009609 73.15612 
L 184.336059 72.843651 
L 184.662509 72.87534 
L 185.315409 73.30266 
L 185.641859 73.214094 
L 186.131534 73.460586 
L 187.274109 74.261799 
L 187.437334 74.120013 
L 187.763784 74.160218 
L 188.090234 74.107571 
L 188.416684 74.530583 
L 188.57991 74.472283 
L 188.90636 74.895444 
L 189.069585 74.747502 
L 189.23281 74.886444 
L 189.396035 75.327606 
L 189.55926 75.412516 
L 189.722485 75.742182 
L 190.048935 75.538385 
L 190.53861 75.202858 
L 190.86506 75.658875 
L 191.028285 75.491158 
L 191.19151 75.494408 
L 191.51796 75.35356 
L 191.84441 75.483657 
L 192.007635 75.174333 
L 192.334085 75.214147 
L 192.660535 75.374156 
L 192.82376 75.729103 
L 193.313435 75.623474 
L 193.639885 75.283588 
L 193.80311 75.501887 
L 193.966335 75.214762 
L 194.292785 75.335004 
L 195.10891 75.134874 
L 195.43536 75.701464 
L 195.598585 75.835937 
L 195.925035 75.764841 
L 196.08826 75.846214 
L 196.251485 76.070472 
L 196.74116 75.901872 
L 196.904385 75.730429 
L 197.230835 76.021116 
L 197.72051 76.444684 
L 198.04696 76.227367 
L 198.536635 76.299305 
L 198.69986 76.063015 
L 198.863085 76.305549 
L 199.02631 76.323018 
L 199.189535 76.550756 
L 199.35276 76.521919 
L 199.515985 76.613735 
L 199.67921 76.444323 
L 200.168885 76.515306 
L 200.33211 76.697324 
L 200.495335 76.57483 
L 200.65856 76.886435 
L 200.821785 76.85434 
L 201.148235 77.139131 
L 201.801135 77.337358 
L 201.96436 77.165102 
L 202.127585 77.237417 
L 202.454035 76.996869 
L 202.61726 77.114245 
L 202.780485 77.004654 
L 203.106935 77.247791 
L 203.433385 77.387258 
L 203.59661 77.138377 
L 203.759835 77.155846 
L 203.92306 77.368728 
L 204.086285 77.340757 
L 204.739186 77.573978 
L 204.902411 77.497224 
L 205.228861 77.594899 
L 205.392086 77.476632 
L 205.718536 77.503223 
L 205.881761 77.256214 
L 206.044986 77.379601 
L 206.371436 77.402559 
L 207.024336 77.774157 
L 207.350786 77.502127 
L 207.514011 77.565841 
L 207.840461 77.444154 
L 208.166911 77.663154 
L 208.330136 77.783464 
L 208.493361 78.083583 
L 208.819811 77.769623 
L 209.309486 77.304803 
L 209.472711 77.331616 
L 209.635936 77.537642 
L 209.799161 77.177693 
L 210.125611 77.5053 
L 210.288836 77.385452 
L 210.615286 77.569397 
L 210.778511 77.591207 
L 210.941736 77.471902 
L 211.431411 77.666042 
L 211.757861 77.537372 
L 211.921086 77.566436 
L 212.084311 77.374991 
L 212.900436 77.566426 
L 213.390111 77.994594 
L 213.879786 77.994229 
L 214.043011 78.090077 
L 214.206236 77.875164 
L 214.369461 78.131482 
L 215.022361 77.495946 
L 215.348811 77.721167 
L 215.512036 77.753625 
L 215.675261 77.578706 
L 215.838486 77.746087 
L 216.001711 77.711148 
L 216.164936 77.966362 
L 216.328161 77.938683 
L 216.817836 77.361723 
L 216.981061 77.531221 
L 217.307511 77.413246 
L 217.470736 77.173144 
L 217.633961 77.194676 
L 217.797186 76.930604 
L 218.286861 76.904028 
L 218.450086 77.179069 
L 218.613311 77.14901 
L 218.776536 77.28714 
L 219.102986 77.044101 
L 219.266211 77.063944 
L 219.429436 76.96382 
L 219.592661 76.627786 
L 219.919111 76.816681 
L 220.245561 76.649142 
L 220.735237 76.716778 
L 220.898462 76.618131 
L 221.061687 76.721785 
L 221.224912 76.549406 
L 221.388137 76.698235 
L 221.877812 76.560865 
L 222.530712 76.923999 
L 223.020387 76.45327 
L 223.836512 76.493661 
L 223.999737 76.611884 
L 224.326187 76.481444 
L 224.652637 76.518378 
L 224.979087 76.376239 
L 225.142312 76.555782 
L 225.305537 76.549201 
L 225.631987 76.745707 
L 225.795212 76.665266 
L 226.121662 76.827639 
L 226.284887 77.17865 
L 226.448112 77.204245 
L 226.611337 76.942657 
L 227.101012 77.162375 
L 227.264237 77.195929 
L 227.590687 76.757977 
L 227.753912 76.707035 
L 227.917137 76.906511 
L 228.406812 76.495144 
L 228.570037 76.542088 
L 228.733262 76.447835 
L 228.896487 76.658685 
L 229.059712 76.622826 
L 229.386162 76.244404 
L 229.875837 75.941859 
L 230.202287 75.775697 
L 230.365512 75.742003 
L 230.528737 75.966612 
L 230.855187 75.546535 
L 231.018412 75.979438 
L 231.181637 75.974969 
L 231.508087 76.350764 
L 231.997762 76.267233 
L 232.324212 76.125848 
L 232.813887 76.004434 
L 232.977112 76.157935 
L 233.140337 76.479289 
L 233.303562 76.549979 
L 233.466787 76.218589 
L 233.630012 76.177963 
L 233.956462 76.58057 
L 234.119687 76.320967 
L 234.282912 76.507146 
L 234.446137 76.400705 
L 235.425487 77.313125 
L 235.751937 77.404193 
L 235.915162 77.133797 
L 237.057738 77.893124 
L 237.547413 77.353951 
L 237.710638 77.417328 
L 237.873863 77.357759 
L 238.363538 77.468537 
L 239.016438 77.469436 
L 239.179663 77.721726 
L 239.506113 77.695224 
L 239.669338 77.628511 
L 240.159013 77.833622 
L 240.485463 77.65813 
L 240.648688 77.842574 
L 241.138363 77.466553 
L 241.301588 77.482398 
L 241.464813 77.364581 
L 242.444163 77.898679 
L 242.933838 77.639489 
L 243.260288 77.694696 
L 243.423513 77.467149 
L 244.239638 77.616052 
L 244.402863 77.480767 
L 244.892538 77.597854 
L 245.055763 77.472189 
L 245.218988 77.509664 
L 245.382213 77.335524 
L 245.871888 77.56671 
L 246.035113 77.558179 
L 246.198338 77.875266 
L 246.361563 77.738065 
L 246.851238 78.091838 
L 247.014463 77.800953 
L 247.177688 77.994741 
L 247.340913 77.981741 
L 247.504138 77.718425 
L 247.830588 77.97112 
L 248.157038 77.717086 
L 248.646713 78.182986 
L 248.809938 78.141547 
L 248.973163 78.421056 
L 249.136388 78.244526 
L 249.299613 78.316841 
L 249.789288 77.894093 
L 250.115738 78.089912 
L 250.442188 77.90969 
L 250.931863 78.477537 
L 251.258313 77.929893 
L 251.747988 77.636775 
L 251.911213 77.83633 
L 252.074439 77.850288 
L 252.237664 77.666959 
L 252.564114 78.095298 
L 252.727339 77.703072 
L 253.217014 77.501971 
L 253.380239 77.777234 
L 253.706689 77.854424 
L 253.869914 77.753954 
L 254.033139 77.786049 
L 254.196364 77.682858 
L 254.359589 77.923078 
L 254.522814 77.837857 
L 255.175714 78.009333 
L 255.338939 77.718246 
L 255.502164 77.828517 
L 255.665389 77.692825 
L 255.828614 77.735077 
L 255.991839 77.897176 
L 256.318289 78.011008 
L 256.644739 78.202669 
L 256.971189 78.502764 
L 257.460864 78.719025 
L 257.624089 79.081881 
L 258.113764 79.123454 
L 258.276989 79.199445 
L 258.766664 78.893947 
L 259.093114 78.685824 
L 259.746014 78.846087 
L 260.072464 79.231078 
L 260.562139 79.58756 
L 260.888589 79.328075 
L 261.215039 79.350303 
L 261.378264 79.147577 
L 261.704714 79.256617 
L 261.867939 79.21625 
L 262.031164 79.290967 
L 262.194389 79.124632 
L 262.357614 79.300544 
L 262.520839 79.238247 
L 262.684064 78.928674 
L 263.010514 79.363771 
L 263.173739 79.482616 
L 263.336964 79.255109 
L 263.663414 79.38617 
L 264.316314 79.970297 
L 264.479539 79.916375 
L 264.642764 80.102035 
L 265.132439 79.779942 
L 265.295664 79.765238 
L 265.458889 79.516605 
L 265.622114 79.790233 
L 265.948564 79.786415 
L 266.111789 79.762856 
L 266.438239 80.264998 
L 267.091139 80.658261 
L 267.417589 80.491446 
L 267.580814 80.754625 
L 267.744039 80.537273 
L 268.07049 80.604559 
L 268.233715 80.885694 
L 268.560165 80.653898 
L 268.886615 80.980547 
L 269.37629 80.657282 
L 269.70274 80.681486 
L 269.865965 80.378819 
L 270.02919 80.436509 
L 270.35564 80.938338 
L 270.518865 80.870469 
L 270.68209 81.064905 
L 270.845315 80.849585 
L 271.66144 80.94486 
L 271.824665 81.185807 
L 271.98789 80.906123 
L 272.64079 81.205977 
L 272.96724 81.068761 
L 273.29369 80.586391 
L 273.62014 80.280536 
L 273.783365 80.102999 
L 273.94659 80.277256 
L 274.109815 79.98184 
L 274.436265 80.36675 
L 274.59949 80.184907 
L 274.762715 80.190452 
L 274.92594 79.975524 
L 276.23174 81.067931 
L 276.55819 80.716161 
L 276.88464 80.801287 
L 277.047865 80.56931 
L 277.374315 80.74062 
L 277.700765 81.386528 
L 278.027215 81.674569 
L 278.353665 81.659689 
L 278.51689 81.533783 
L 278.680115 81.856186 
L 278.84334 81.746517 
L 279.006565 81.812064 
L 279.333015 82.126226 
L 279.659465 81.839309 
L 280.312365 81.766735 
L 280.80204 81.002812 
L 280.965265 81.161677 
L 281.12849 80.991686 
L 281.291715 81.127664 
L 281.45494 81.587846 
L 281.78139 81.311665 
L 282.10784 81.303754 
L 282.923965 81.229392 
L 283.08719 81.24285 
L 283.41364 81.48214 
L 283.576865 81.454108 
L 284.229766 82.090069 
L 284.392991 82.142812 
L 284.556216 82.371417 
L 284.719441 82.319821 
L 285.209116 82.595358 
L 285.372341 82.548232 
L 285.862016 82.921532 
L 286.025241 82.904677 
L 286.188466 83.004384 
L 286.351691 83.30923 
L 286.841366 82.657582 
L 287.167816 82.898511 
L 287.331041 82.985046 
L 287.820716 82.88016 
L 287.983941 82.896005 
L 288.473616 83.514833 
L 288.636841 83.507455 
L 288.800066 83.278322 
L 289.126516 83.170697 
L 289.289741 83.084212 
L 290.269091 83.776845 
L 290.432316 83.679748 
L 290.595541 83.81755 
L 290.921991 83.699378 
L 291.248441 83.820433 
L 291.411666 84.063579 
L 291.574891 84.034284 
L 291.901341 84.191007 
L 292.064566 84.192083 
L 292.227791 84.353402 
L 292.391016 84.073486 
L 292.554241 84.027939 
L 292.717466 83.856089 
L 293.043916 84.056265 
L 293.207141 83.858821 
L 293.370366 83.840945 
L 293.533591 84.315701 
L 293.696816 84.187311 
L 293.860041 84.352281 
L 294.186491 84.03608 
L 294.512941 83.885016 
L 294.839391 84.027429 
L 295.165841 83.864497 
L 295.492291 84.082904 
L 295.818741 83.611519 
L 295.981966 83.566921 
L 296.308416 83.860838 
L 296.634866 84.202623 
L 296.798091 84.049121 
L 297.124541 84.456841 
L 297.287766 84.410342 
L 297.450991 84.577301 
L 298.103891 84.630441 
L 298.430341 84.883656 
L 298.593566 84.86497 
L 298.920016 85.090931 
L 299.246466 85.100101 
L 300.552267 84.341886 
L 300.715492 84.422495 
L 301.041942 84.068342 
L 301.205167 84.175596 
L 301.368392 84.10352 
L 302.021292 83.298081 
L 302.184517 83.47115 
L 302.347742 83.335013 
L 303.163867 83.614257 
L 303.490317 83.878613 
L 303.816767 83.610073 
L 304.143217 83.739725 
L 304.306442 83.512257 
L 304.469667 83.49885 
L 304.632892 83.140754 
L 305.285792 83.273844 
L 305.449017 83.074454 
L 305.612242 83.342588 
L 305.938692 83.511912 
L 306.265142 83.20061 
L 306.428367 83.083251 
L 306.591592 83.143994 
L 306.754817 83.034463 
L 306.918042 83.273366 
L 307.081267 83.20016 
L 307.244492 83.334811 
L 307.407717 83.116241 
L 307.734167 83.001079 
L 308.060617 82.825909 
L 308.550292 82.329319 
L 308.876742 82.316524 
L 309.039967 82.536408 
L 309.203192 82.560355 
L 309.529642 82.252565 
L 309.692867 82.320817 
L 310.019317 81.894157 
L 310.345767 82.047437 
L 310.672217 81.889852 
L 310.835442 81.939259 
L 310.998667 82.148169 
L 311.325117 81.980564 
L 311.651567 82.260396 
L 311.978017 82.211442 
L 312.304467 82.451199 
L 312.957367 82.554206 
L 313.120592 82.360226 
L 313.283817 82.453601 
L 313.610267 82.034188 
L 314.426392 82.031309 
L 314.752842 82.005148 
L 314.916067 81.806063 
L 315.079292 81.995199 
L 315.242517 81.733612 
L 315.405742 81.764467 
L 315.568968 81.622042 
L 315.732193 81.652167 
L 316.058643 81.411352 
L 316.548318 81.612613 
L 316.711543 81.424349 
L 316.874768 81.489351 
L 317.037993 81.079882 
L 317.201218 81.279947 
L 317.527668 81.389044 
L 317.854118 81.01748 
L 318.507018 81.68642 
L 318.670243 81.577069 
L 318.833468 81.76639 
L 318.996693 81.661795 
L 319.159918 81.708329 
L 319.323143 81.436539 
L 319.486368 81.734328 
L 319.812818 81.615741 
L 319.976043 81.616147 
L 320.465718 82.02669 
L 320.628943 81.762809 
L 320.792168 82.198111 
L 320.955393 82.134734 
L 321.118618 82.410993 
L 321.445068 82.474755 
L 321.608293 82.244724 
L 321.771518 82.356188 
L 321.934743 82.261443 
L 322.097968 81.957983 
L 322.750868 82.599573 
L 323.077318 82.142183 
L 323.240543 82.423317 
L 323.730218 82.177992 
L 323.893443 82.449949 
L 324.383118 82.274012 
L 325.036018 82.999837 
L 325.199243 83.025025 
L 325.525693 83.317852 
L 325.688918 83.253278 
L 326.505043 84.003769 
L 326.831493 84.208907 
L 326.994718 84.175011 
L 327.157943 84.372861 
L 327.810843 84.306736 
L 328.790193 84.173956 
L 328.953418 84.318179 
L 329.116643 84.148389 
L 329.279868 84.176422 
L 329.443093 84.068392 
L 329.606318 84.318323 
L 329.769543 84.287197 
L 330.585668 84.865831 
L 331.238568 84.383415 
L 331.401794 84.560896 
L 331.565019 84.450554 
L 331.728244 84.796781 
L 332.054694 84.675583 
L 332.217919 84.827275 
L 332.381144 85.135557 
L 332.544369 84.892831 
L 332.707594 84.996429 
L 333.034044 84.789834 
L 333.197269 85.152632 
L 333.360494 85.046408 
L 333.523719 85.282854 
L 333.686944 85.156167 
L 333.850169 85.274761 
L 334.013394 84.856329 
L 334.339844 85.263637 
L 334.503069 85.313201 
L 334.666294 85.0926 
L 335.155969 85.239435 
L 335.319194 85.237648 
L 335.482419 85.52113 
L 335.645644 85.244041 
L 335.808869 85.239166 
L 335.972094 85.051472 
L 336.135319 85.091542 
L 336.788219 84.647133 
L 336.951444 84.617251 
L 337.114669 84.83888 
L 337.604344 84.769543 
L 337.767569 84.548759 
L 337.930794 84.551761 
L 338.094019 84.835914 
L 338.257244 84.600486 
L 338.583694 85.142423 
L 338.910144 84.715744 
L 339.236594 84.661494 
L 339.726269 85.15408 
L 339.889494 85.04882 
L 340.052719 85.178012 
L 340.379169 84.620046 
L 340.542394 84.852422 
L 340.705619 84.830207 
L 340.868844 85.068445 
L 341.195294 84.491866 
L 341.521744 84.439154 
L 341.684969 84.568573 
L 342.174644 84.034806 
L 342.501094 84.076319 
L 342.664319 84.132135 
L 342.990769 83.86082 
L 343.480444 84.081536 
L 343.643669 83.916999 
L 343.806894 84.067831 
L 343.970119 84.032735 
L 344.133344 83.870114 
L 344.296569 84.09884 
L 344.459794 84.065857 
L 344.623019 83.750806 
L 344.949469 84.049167 
L 345.112694 84.128389 
L 345.275919 84.079867 
L 345.602369 83.409532 
L 345.928819 83.533079 
L 346.092044 83.33706 
L 347.234619 83.83838 
L 347.56107 84.009524 
L 347.724295 84.213875 
L 347.88752 84.055582 
L 348.050745 84.160824 
L 348.21397 84.055002 
L 348.54042 84.46664 
L 348.86687 83.77597 
L 349.030095 84.180815 
L 349.356545 84.074863 
L 349.51977 84.203527 
L 349.682995 83.976085 
L 349.84622 84.041469 
L 350.009445 83.862307 
L 350.17267 83.88765 
L 350.49912 84.268289 
L 350.82557 83.828058 
L 351.15202 83.919736 
L 351.80492 83.309979 
L 351.968145 83.040901 
L 352.13137 83.078173 
L 352.294595 83.265368 
L 352.45782 83.189267 
L 352.78427 83.508558 
L 353.11072 83.39593 
L 353.273945 83.406541 
L 353.600395 82.831606 
L 353.76362 82.751954 
L 353.926845 82.937328 
L 354.09007 82.814428 
L 354.41652 82.884232 
L 354.579745 82.539496 
L 354.74297 82.73511 
L 354.906195 82.606374 
L 355.06942 82.682622 
L 355.39587 82.965639 
L 355.72232 82.759548 
L 355.885545 82.84542 
L 356.538445 82.047695 
L 356.864895 82.671514 
L 357.02812 82.265986 
L 357.35457 82.019781 
L 357.68102 82.444765 
L 357.844245 82.507329 
L 358.170695 82.285283 
L 358.823595 82.507014 
L 358.98682 82.35498 
L 359.150045 81.955503 
L 359.476495 82.45496 
L 359.802945 82.027128 
L 360.129395 82.459848 
L 360.455845 82.317621 
L 360.94552 82.169513 
L 361.108745 82.39356 
L 361.27197 82.236305 
L 361.435195 81.83169 
L 362.414545 82.820538 
L 362.740995 82.78044 
L 363.557121 82.099654 
L 363.720346 82.31364 
L 363.883571 82.221673 
L 364.046796 81.886506 
L 364.373246 81.959366 
L 364.536471 81.4946 
L 364.699696 81.576158 
L 365.026146 81.219091 
L 365.352596 81.742433 
L 365.515821 81.78647 
L 366.005496 81.467544 
L 366.168721 81.326124 
L 366.331946 81.405965 
L 366.495171 81.680745 
L 366.984846 81.082147 
L 367.148071 81.398068 
L 367.637746 81.462632 
L 368.290646 81.626066 
L 368.453871 81.903544 
L 368.943546 81.801987 
L 369.106771 81.617544 
L 369.269996 81.757124 
L 369.433221 82.068857 
L 369.596446 81.83351 
L 370.086121 82.117977 
L 370.412571 81.663958 
L 370.902246 81.548657 
L 371.228696 81.930401 
L 371.555146 81.740781 
L 371.718371 81.888975 
L 371.881596 81.567865 
L 372.044821 81.861119 
L 372.208046 81.700186 
L 372.534496 82.00107 
L 372.697721 81.633808 
L 372.860946 81.593994 
L 373.187396 81.825553 
L 373.350621 81.679914 
L 373.513846 81.747005 
L 374.003521 82.330008 
L 374.329971 81.880182 
L 374.493196 82.195489 
L 374.819646 81.971039 
L 375.309321 81.804809 
L 375.472546 81.75994 
L 375.635771 82.07001 
L 375.798996 81.810974 
L 376.288671 81.793539 
L 376.615121 81.370813 
L 376.778346 81.353068 
L 376.941571 81.17496 
L 377.104796 81.192015 
L 377.268021 81.019254 
L 377.594471 81.39283 
L 378.410596 81.002982 
L 378.573821 81.142694 
L 378.737046 81.064208 
L 378.900271 80.83158 
L 379.063497 80.843362 
L 379.226722 80.666302 
L 379.389947 80.770608 
L 379.553172 80.70525 
L 379.716397 80.770056 
L 379.879622 80.695629 
L 380.042847 80.89435 
L 380.206072 80.839568 
L 380.369297 80.902284 
L 380.695747 81.280516 
L 380.858972 81.185718 
L 381.022197 81.360005 
L 381.185422 81.341418 
L 381.511872 81.630738 
L 381.838322 81.513552 
L 382.001547 81.471898 
L 382.164772 81.284121 
L 382.327997 81.45015 
L 382.491222 81.309583 
L 382.817672 81.576532 
L 382.980897 81.551843 
L 383.307347 81.99344 
L 383.633797 81.678755 
L 383.960247 81.687995 
L 384.286697 81.07738 
L 384.449922 81.090685 
L 384.613147 80.897037 
L 384.776372 81.075569 
L 385.102822 80.793765 
L 385.429272 80.695931 
L 385.592497 80.927502 
L 385.918947 80.379858 
L 386.408622 80.681239 
L 387.224747 80.618172 
L 387.387972 80.712688 
L 387.551197 80.540296 
L 388.040872 80.664272 
L 388.204097 80.254424 
L 388.367322 80.382041 
L 388.530547 80.03981 
L 388.693772 79.97562 
L 389.020222 80.178737 
L 389.183447 80.397267 
L 389.509897 80.959942 
L 389.836347 80.714005 
L 389.999572 80.891891 
L 390.326022 80.710667 
L 390.489247 80.314936 
L 390.815697 80.52886 
L 391.631822 81.00472 
L 391.795047 80.957411 
L 392.121497 81.076036 
L 392.611172 80.592397 
L 392.774397 80.600801 
L 393.264072 80.985626 
L 393.590522 81.244003 
L 393.916972 80.956467 
L 394.080197 80.722113 
L 394.243422 80.696145 
L 394.406647 81.108734 
L 394.569872 80.785185 
L 394.896323 80.833029 
L 395.059548 80.628899 
L 395.385998 80.751906 
L 395.549223 80.881113 
L 395.712448 81.275808 
L 396.202123 81.57005 
L 396.855023 81.159999 
L 397.018248 80.778111 
L 397.344698 80.928104 
L 397.507923 81.340457 
L 397.997598 80.719345 
L 398.160823 80.917308 
L 398.487273 80.57792 
L 398.487273 80.57792 
" clip-path="url(#p8e5da178e6)" style="fill: none; stroke: #ff7f0e; stroke-width: 1.5; stroke-linecap: square"/>
   </g>
   <g id="patch_3">
    <path d="M 57.6 307.584 
L 57.6 41.472 
" style="fill: none; stroke: #000000; stroke-width: 0.8; stroke-linejoin: miter; stroke-linecap: square"/>
   </g>
   <g id="patch_4">
    <path d="M 414.72 307.584 
L 414.72 41.472 
" style="fill: none; stroke: #000000; stroke-width: 0.8; stroke-linejoin: miter; stroke-linecap: square"/>
   </g>
   <g id="patch_5">
    <path d="M 57.6 307.584 
L 414.72 307.584 
" style="fill: none; stroke: #000000; stroke-width: 0.8; stroke-linejoin: miter; stroke-linecap: square"/>
   </g>
   <g id="patch_6">
    <path d="M 57.6 41.472 
L 414.72 41.472 
" style="fill: none; stroke: #000000; stroke-width: 0.8; stroke-linejoin: miter; stroke-linecap: square"/>
   </g>
   <g id="text_20">
    <!-- Rolling average training progress of profits/rebuy_cost -->
    <g transform="translate(73.231875 35.472)scale(0.12 -0.12)">
     <defs>
      <path id="DejaVuSans-52" d="M 2841 2188 
Q 3044 2119 3236 1894 
Q 3428 1669 3622 1275 
L 4263 0 
L 3584 0 
L 2988 1197 
Q 2756 1666 2539 1819 
Q 2322 1972 1947 1972 
L 1259 1972 
L 1259 0 
L 628 0 
L 628 4666 
L 2053 4666 
Q 2853 4666 3247 4331 
Q 3641 3997 3641 3322 
Q 3641 2881 3436 2590 
Q 3231 2300 2841 2188 
z
M 1259 4147 
L 1259 2491 
L 2053 2491 
Q 2509 2491 2742 2702 
Q 2975 2913 2975 3322 
Q 2975 3731 2742 3939 
Q 2509 4147 2053 4147 
L 1259 4147 
z
" transform="scale(0.015625)"/>
      <path id="DejaVuSans-6c" d="M 603 4863 
L 1178 4863 
L 1178 0 
L 603 0 
L 603 4863 
z
" transform="scale(0.015625)"/>
      <path id="DejaVuSans-6e" d="M 3513 2113 
L 3513 0 
L 2938 0 
L 2938 2094 
Q 2938 2591 2744 2837 
Q 2550 3084 2163 3084 
Q 1697 3084 1428 2787 
Q 1159 2491 1159 1978 
L 1159 0 
L 581 0 
L 581 3500 
L 1159 3500 
L 1159 2956 
Q 1366 3272 1645 3428 
Q 1925 3584 2291 3584 
Q 2894 3584 3203 3211 
Q 3513 2838 3513 2113 
z
" transform="scale(0.015625)"/>
      <path id="DejaVuSans-67" d="M 2906 1791 
Q 2906 2416 2648 2759 
Q 2391 3103 1925 3103 
Q 1463 3103 1205 2759 
Q 947 2416 947 1791 
Q 947 1169 1205 825 
Q 1463 481 1925 481 
Q 2391 481 2648 825 
Q 2906 1169 2906 1791 
z
M 3481 434 
Q 3481 -459 3084 -895 
Q 2688 -1331 1869 -1331 
Q 1566 -1331 1297 -1286 
Q 1028 -1241 775 -1147 
L 775 -588 
Q 1028 -725 1275 -790 
Q 1522 -856 1778 -856 
Q 2344 -856 2625 -561 
Q 2906 -266 2906 331 
L 2906 616 
Q 2728 306 2450 153 
Q 2172 0 1784 0 
Q 1141 0 747 490 
Q 353 981 353 1791 
Q 353 2603 747 3093 
Q 1141 3584 1784 3584 
Q 2172 3584 2450 3431 
Q 2728 3278 2906 2969 
L 2906 3500 
L 3481 3500 
L 3481 434 
z
" transform="scale(0.015625)"/>
      <path id="DejaVuSans-20" transform="scale(0.015625)"/>
      <path id="DejaVuSans-61" d="M 2194 1759 
Q 1497 1759 1228 1600 
Q 959 1441 959 1056 
Q 959 750 1161 570 
Q 1363 391 1709 391 
Q 2188 391 2477 730 
Q 2766 1069 2766 1631 
L 2766 1759 
L 2194 1759 
z
M 3341 1997 
L 3341 0 
L 2766 0 
L 2766 531 
Q 2569 213 2275 61 
Q 1981 -91 1556 -91 
Q 1019 -91 701 211 
Q 384 513 384 1019 
Q 384 1609 779 1909 
Q 1175 2209 1959 2209 
L 2766 2209 
L 2766 2266 
Q 2766 2663 2505 2880 
Q 2244 3097 1772 3097 
Q 1472 3097 1187 3025 
Q 903 2953 641 2809 
L 641 3341 
Q 956 3463 1253 3523 
Q 1550 3584 1831 3584 
Q 2591 3584 2966 3190 
Q 3341 2797 3341 1997 
z
" transform="scale(0.015625)"/>
      <path id="DejaVuSans-76" d="M 191 3500 
L 800 3500 
L 1894 563 
L 2988 3500 
L 3597 3500 
L 2284 0 
L 1503 0 
L 191 3500 
z
" transform="scale(0.015625)"/>
     </defs>
     <use xlink:href="#DejaVuSans-52"/>
     <use xlink:href="#DejaVuSans-6f" x="64.982422"/>
     <use xlink:href="#DejaVuSans-6c" x="126.164062"/>
     <use xlink:href="#DejaVuSans-6c" x="153.947266"/>
     <use xlink:href="#DejaVuSans-69" x="181.730469"/>
     <use xlink:href="#DejaVuSans-6e" x="209.513672"/>
     <use xlink:href="#DejaVuSans-67" x="272.892578"/>
     <use xlink:href="#DejaVuSans-20" x="336.369141"/>
     <use xlink:href="#DejaVuSans-61" x="368.15625"/>
     <use xlink:href="#DejaVuSans-76" x="429.435547"/>
     <use xlink:href="#DejaVuSans-65" x="488.615234"/>
     <use xlink:href="#DejaVuSans-72" x="550.138672"/>
     <use xlink:href="#DejaVuSans-61" x="591.251953"/>
     <use xlink:href="#DejaVuSans-67" x="652.53125"/>
     <use xlink:href="#DejaVuSans-65" x="716.007812"/>
     <use xlink:href="#DejaVuSans-20" x="777.53125"/>
     <use xlink:href="#DejaVuSans-74" x="809.318359"/>
     <use xlink:href="#DejaVuSans-72" x="848.527344"/>
     <use xlink:href="#DejaVuSans-61" x="889.640625"/>
     <use xlink:href="#DejaVuSans-69" x="950.919922"/>
     <use xlink:href="#DejaVuSans-6e" x="978.703125"/>
     <use xlink:href="#DejaVuSans-69" x="1042.082031"/>
     <use xlink:href="#DejaVuSans-6e" x="1069.865234"/>
     <use xlink:href="#DejaVuSans-67" x="1133.244141"/>
     <use xlink:href="#DejaVuSans-20" x="1196.720703"/>
     <use xlink:href="#DejaVuSans-70" x="1228.507812"/>
     <use xlink:href="#DejaVuSans-72" x="1291.984375"/>
     <use xlink:href="#DejaVuSans-6f" x="1330.847656"/>
     <use xlink:href="#DejaVuSans-67" x="1392.029297"/>
     <use xlink:href="#DejaVuSans-72" x="1455.505859"/>
     <use xlink:href="#DejaVuSans-65" x="1494.369141"/>
     <use xlink:href="#DejaVuSans-73" x="1555.892578"/>
     <use xlink:href="#DejaVuSans-73" x="1607.992188"/>
     <use xlink:href="#DejaVuSans-20" x="1660.091797"/>
     <use xlink:href="#DejaVuSans-6f" x="1691.878906"/>
     <use xlink:href="#DejaVuSans-66" x="1753.060547"/>
     <use xlink:href="#DejaVuSans-20" x="1788.265625"/>
     <use xlink:href="#DejaVuSans-70" x="1820.052734"/>
     <use xlink:href="#DejaVuSans-72" x="1883.529297"/>
     <use xlink:href="#DejaVuSans-6f" x="1922.392578"/>
     <use xlink:href="#DejaVuSans-66" x="1983.574219"/>
     <use xlink:href="#DejaVuSans-69" x="2018.779297"/>
     <use xlink:href="#DejaVuSans-74" x="2046.5625"/>
     <use xlink:href="#DejaVuSans-73" x="2085.771484"/>
     <use xlink:href="#DejaVuSans-2f" x="2137.871094"/>
     <use xlink:href="#DejaVuSans-72" x="2171.5625"/>
     <use xlink:href="#DejaVuSans-65" x="2210.425781"/>
     <use xlink:href="#DejaVuSans-62" x="2271.949219"/>
     <use xlink:href="#DejaVuSans-75" x="2335.425781"/>
     <use xlink:href="#DejaVuSans-79" x="2398.804688"/>
     <use xlink:href="#DejaVuSans-5f" x="2457.984375"/>
     <use xlink:href="#DejaVuSans-63" x="2507.984375"/>
     <use xlink:href="#DejaVuSans-6f" x="2562.964844"/>
     <use xlink:href="#DejaVuSans-73" x="2624.146484"/>
     <use xlink:href="#DejaVuSans-74" x="2676.246094"/>
    </g>
   </g>
   <g id="legend_1">
    <g id="patch_7">
     <path d="M 188.2825 302.584 
L 407.72 302.584 
Q 409.72 302.584 409.72 300.584 
L 409.72 272.22775 
Q 409.72 270.22775 407.72 270.22775 
L 188.2825 270.22775 
Q 186.2825 270.22775 186.2825 272.22775 
L 186.2825 300.584 
Q 186.2825 302.584 188.2825 302.584 
z
" style="fill: #ffffff; opacity: 0.8; stroke: #cccccc; stroke-linejoin: miter"/>
    </g>
    <g id="line2d_37">
     <path d="M 190.2825 278.326187 
L 200.2825 278.326187 
L 210.2825 278.326187 
" style="fill: none; stroke: #1f77b4; stroke-width: 1.5; stroke-linecap: square"/>
    </g>
    <g id="text_21">
     <!-- StableBaselinesSAC -->
     <g transform="translate(218.2825 281.826187)scale(0.1 -0.1)">
      <defs>
       <path id="DejaVuSans-53" d="M 3425 4513 
L 3425 3897 
Q 3066 4069 2747 4153 
Q 2428 4238 2131 4238 
Q 1616 4238 1336 4038 
Q 1056 3838 1056 3469 
Q 1056 3159 1242 3001 
Q 1428 2844 1947 2747 
L 2328 2669 
Q 3034 2534 3370 2195 
Q 3706 1856 3706 1288 
Q 3706 609 3251 259 
Q 2797 -91 1919 -91 
Q 1588 -91 1214 -16 
Q 841 59 441 206 
L 441 856 
Q 825 641 1194 531 
Q 1563 422 1919 422 
Q 2459 422 2753 634 
Q 3047 847 3047 1241 
Q 3047 1584 2836 1778 
Q 2625 1972 2144 2069 
L 1759 2144 
Q 1053 2284 737 2584 
Q 422 2884 422 3419 
Q 422 4038 858 4394 
Q 1294 4750 2059 4750 
Q 2388 4750 2728 4690 
Q 3069 4631 3425 4513 
z
" transform="scale(0.015625)"/>
       <path id="DejaVuSans-42" d="M 1259 2228 
L 1259 519 
L 2272 519 
Q 2781 519 3026 730 
Q 3272 941 3272 1375 
Q 3272 1813 3026 2020 
Q 2781 2228 2272 2228 
L 1259 2228 
z
M 1259 4147 
L 1259 2741 
L 2194 2741 
Q 2656 2741 2882 2914 
Q 3109 3088 3109 3444 
Q 3109 3797 2882 3972 
Q 2656 4147 2194 4147 
L 1259 4147 
z
M 628 4666 
L 2241 4666 
Q 2963 4666 3353 4366 
Q 3744 4066 3744 3513 
Q 3744 3084 3544 2831 
Q 3344 2578 2956 2516 
Q 3422 2416 3680 2098 
Q 3938 1781 3938 1306 
Q 3938 681 3513 340 
Q 3088 0 2303 0 
L 628 0 
L 628 4666 
z
" transform="scale(0.015625)"/>
       <path id="DejaVuSans-41" d="M 2188 4044 
L 1331 1722 
L 3047 1722 
L 2188 4044 
z
M 1831 4666 
L 2547 4666 
L 4325 0 
L 3669 0 
L 3244 1197 
L 1141 1197 
L 716 0 
L 50 0 
L 1831 4666 
z
" transform="scale(0.015625)"/>
       <path id="DejaVuSans-43" d="M 4122 4306 
L 4122 3641 
Q 3803 3938 3442 4084 
Q 3081 4231 2675 4231 
Q 1875 4231 1450 3742 
Q 1025 3253 1025 2328 
Q 1025 1406 1450 917 
Q 1875 428 2675 428 
Q 3081 428 3442 575 
Q 3803 722 4122 1019 
L 4122 359 
Q 3791 134 3420 21 
Q 3050 -91 2638 -91 
Q 1578 -91 968 557 
Q 359 1206 359 2328 
Q 359 3453 968 4101 
Q 1578 4750 2638 4750 
Q 3056 4750 3426 4639 
Q 3797 4528 4122 4306 
z
" transform="scale(0.015625)"/>
      </defs>
      <use xlink:href="#DejaVuSans-53"/>
      <use xlink:href="#DejaVuSans-74" x="63.476562"/>
      <use xlink:href="#DejaVuSans-61" x="102.685547"/>
      <use xlink:href="#DejaVuSans-62" x="163.964844"/>
      <use xlink:href="#DejaVuSans-6c" x="227.441406"/>
      <use xlink:href="#DejaVuSans-65" x="255.224609"/>
      <use xlink:href="#DejaVuSans-42" x="316.748047"/>
      <use xlink:href="#DejaVuSans-61" x="385.351562"/>
      <use xlink:href="#DejaVuSans-73" x="446.630859"/>
      <use xlink:href="#DejaVuSans-65" x="498.730469"/>
      <use xlink:href="#DejaVuSans-6c" x="560.253906"/>
      <use xlink:href="#DejaVuSans-69" x="588.037109"/>
      <use xlink:href="#DejaVuSans-6e" x="615.820312"/>
      <use xlink:href="#DejaVuSans-65" x="679.199219"/>
      <use xlink:href="#DejaVuSans-73" x="740.722656"/>
      <use xlink:href="#DejaVuSans-53" x="792.822266"/>
      <use xlink:href="#DejaVuSans-41" x="858.173828"/>
      <use xlink:href="#DejaVuSans-43" x="924.832031"/>
     </g>
    </g>
    <g id="line2d_38">
     <path d="M 190.2825 293.004312 
L 200.2825 293.004312 
L 210.2825 293.004312 
" style="fill: none; stroke: #ff7f0e; stroke-width: 1.5; stroke-linecap: square"/>
    </g>
    <g id="text_22">
     <!-- RuleBasedCERebuyAgentCompetitive -->
     <g transform="translate(218.2825 296.504312)scale(0.1 -0.1)">
      <defs>
       <path id="DejaVuSans-6d" d="M 3328 2828 
Q 3544 3216 3844 3400 
Q 4144 3584 4550 3584 
Q 5097 3584 5394 3201 
Q 5691 2819 5691 2113 
L 5691 0 
L 5113 0 
L 5113 2094 
Q 5113 2597 4934 2840 
Q 4756 3084 4391 3084 
Q 3944 3084 3684 2787 
Q 3425 2491 3425 1978 
L 3425 0 
L 2847 0 
L 2847 2094 
Q 2847 2600 2669 2842 
Q 2491 3084 2119 3084 
Q 1678 3084 1418 2786 
Q 1159 2488 1159 1978 
L 1159 0 
L 581 0 
L 581 3500 
L 1159 3500 
L 1159 2956 
Q 1356 3278 1631 3431 
Q 1906 3584 2284 3584 
Q 2666 3584 2933 3390 
Q 3200 3197 3328 2828 
z
" transform="scale(0.015625)"/>
      </defs>
      <use xlink:href="#DejaVuSans-52"/>
      <use xlink:href="#DejaVuSans-75" x="64.982422"/>
      <use xlink:href="#DejaVuSans-6c" x="128.361328"/>
      <use xlink:href="#DejaVuSans-65" x="156.144531"/>
      <use xlink:href="#DejaVuSans-42" x="217.667969"/>
      <use xlink:href="#DejaVuSans-61" x="286.271484"/>
      <use xlink:href="#DejaVuSans-73" x="347.550781"/>
      <use xlink:href="#DejaVuSans-65" x="399.650391"/>
      <use xlink:href="#DejaVuSans-64" x="461.173828"/>
      <use xlink:href="#DejaVuSans-43" x="524.650391"/>
      <use xlink:href="#DejaVuSans-45" x="594.474609"/>
      <use xlink:href="#DejaVuSans-52" x="657.658203"/>
      <use xlink:href="#DejaVuSans-65" x="722.640625"/>
      <use xlink:href="#DejaVuSans-62" x="784.164062"/>
      <use xlink:href="#DejaVuSans-75" x="847.640625"/>
      <use xlink:href="#DejaVuSans-79" x="911.019531"/>
      <use xlink:href="#DejaVuSans-41" x="970.199219"/>
      <use xlink:href="#DejaVuSans-67" x="1038.607422"/>
      <use xlink:href="#DejaVuSans-65" x="1102.083984"/>
      <use xlink:href="#DejaVuSans-6e" x="1163.607422"/>
      <use xlink:href="#DejaVuSans-74" x="1226.986328"/>
      <use xlink:href="#DejaVuSans-43" x="1266.195312"/>
      <use xlink:href="#DejaVuSans-6f" x="1336.019531"/>
      <use xlink:href="#DejaVuSans-6d" x="1397.201172"/>
      <use xlink:href="#DejaVuSans-70" x="1494.613281"/>
      <use xlink:href="#DejaVuSans-65" x="1558.089844"/>
      <use xlink:href="#DejaVuSans-74" x="1619.613281"/>
      <use xlink:href="#DejaVuSans-69" x="1658.822266"/>
      <use xlink:href="#DejaVuSans-74" x="1686.605469"/>
      <use xlink:href="#DejaVuSans-69" x="1725.814453"/>
      <use xlink:href="#DejaVuSans-76" x="1753.597656"/>
      <use xlink:href="#DejaVuSans-65" x="1812.777344"/>
     </g>
    </g>
   </g>
  </g>
 </g>
 <defs>
  <clipPath id="p8e5da178e6">
   <rect x="57.6" y="41.472" width="357.12" height="266.112"/>
  </clipPath>
 </defs>
</svg>
