<?xml version="1.0" encoding="utf-8" standalone="no"?>
<!DOCTYPE svg PUBLIC "-//W3C//DTD SVG 1.1//EN"
  "http://www.w3.org/Graphics/SVG/1.1/DTD/svg11.dtd">
<svg xmlns:xlink="http://www.w3.org/1999/xlink" width="460.8pt" height="345.6pt" viewBox="0 0 460.8 345.6" xmlns="http://www.w3.org/2000/svg" version="1.1">
 <metadata>
  <rdf:RDF xmlns:dc="http://purl.org/dc/elements/1.1/" xmlns:cc="http://creativecommons.org/ns#" xmlns:rdf="http://www.w3.org/1999/02/22-rdf-syntax-ns#">
   <cc:Work>
    <dc:type rdf:resource="http://purl.org/dc/dcmitype/StillImage"/>
    <dc:date>2022-06-20T17:56:44.235107</dc:date>
    <dc:format>image/svg+xml</dc:format>
    <dc:creator>
     <cc:Agent>
      <dc:title>Matplotlib v3.5.2, https://matplotlib.org/</dc:title>
     </cc:Agent>
    </dc:creator>
   </cc:Work>
  </rdf:RDF>
 </metadata>
 <defs>
  <style type="text/css">*{stroke-linejoin: round; stroke-linecap: butt}</style>
 </defs>
 <g id="figure_1">
  <g id="patch_1">
   <path d="M 0 345.6 
L 460.8 345.6 
L 460.8 0 
L 0 0 
L 0 345.6 
z
" style="fill: none"/>
  </g>
  <g id="axes_1">
   <g id="patch_2">
    <path d="M 57.6 307.584 
L 414.72 307.584 
L 414.72 41.472 
L 57.6 41.472 
L 57.6 307.584 
z
" style="fill: none"/>
   </g>
   <g id="matplotlib.axis_1">
    <g id="xtick_1">
     <g id="line2d_1">
      <path d="M 72.200477 307.584 
L 72.200477 41.472 
" clip-path="url(#p61a6eed3f3)" style="fill: none; stroke-dasharray: 2.96,1.28; stroke-dashoffset: 0; stroke: #b0b0b0; stroke-width: 0.8"/>
     </g>
     <g id="line2d_2">
      <defs>
       <path id="mf79c2c400f" d="M 0 0 
L 0 3.5 
" style="stroke: #000000; stroke-width: 0.8"/>
      </defs>
      <g>
       <use xlink:href="#mf79c2c400f" x="72.200477" y="307.584" style="stroke: #000000; stroke-width: 0.8"/>
      </g>
     </g>
     <g id="text_1">
      <!-- 0 -->
      <g transform="translate(69.019227 322.182437)scale(0.1 -0.1)">
       <defs>
        <path id="DejaVuSans-30" d="M 2034 4250 
Q 1547 4250 1301 3770 
Q 1056 3291 1056 2328 
Q 1056 1369 1301 889 
Q 1547 409 2034 409 
Q 2525 409 2770 889 
Q 3016 1369 3016 2328 
Q 3016 3291 2770 3770 
Q 2525 4250 2034 4250 
z
M 2034 4750 
Q 2819 4750 3233 4129 
Q 3647 3509 3647 2328 
Q 3647 1150 3233 529 
Q 2819 -91 2034 -91 
Q 1250 -91 836 529 
Q 422 1150 422 2328 
Q 422 3509 836 4129 
Q 1250 4750 2034 4750 
z
" transform="scale(0.015625)"/>
       </defs>
       <use xlink:href="#DejaVuSans-30"/>
      </g>
     </g>
    </g>
    <g id="xtick_2">
     <g id="line2d_3">
      <path d="M 113.00673 307.584 
L 113.00673 41.472 
" clip-path="url(#p61a6eed3f3)" style="fill: none; stroke-dasharray: 2.96,1.28; stroke-dashoffset: 0; stroke: #b0b0b0; stroke-width: 0.8"/>
     </g>
     <g id="line2d_4">
      <g>
       <use xlink:href="#mf79c2c400f" x="113.00673" y="307.584" style="stroke: #000000; stroke-width: 0.8"/>
      </g>
     </g>
     <g id="text_2">
      <!-- 250 -->
      <g transform="translate(103.46298 322.182437)scale(0.1 -0.1)">
       <defs>
        <path id="DejaVuSans-32" d="M 1228 531 
L 3431 531 
L 3431 0 
L 469 0 
L 469 531 
Q 828 903 1448 1529 
Q 2069 2156 2228 2338 
Q 2531 2678 2651 2914 
Q 2772 3150 2772 3378 
Q 2772 3750 2511 3984 
Q 2250 4219 1831 4219 
Q 1534 4219 1204 4116 
Q 875 4013 500 3803 
L 500 4441 
Q 881 4594 1212 4672 
Q 1544 4750 1819 4750 
Q 2544 4750 2975 4387 
Q 3406 4025 3406 3419 
Q 3406 3131 3298 2873 
Q 3191 2616 2906 2266 
Q 2828 2175 2409 1742 
Q 1991 1309 1228 531 
z
" transform="scale(0.015625)"/>
        <path id="DejaVuSans-35" d="M 691 4666 
L 3169 4666 
L 3169 4134 
L 1269 4134 
L 1269 2991 
Q 1406 3038 1543 3061 
Q 1681 3084 1819 3084 
Q 2600 3084 3056 2656 
Q 3513 2228 3513 1497 
Q 3513 744 3044 326 
Q 2575 -91 1722 -91 
Q 1428 -91 1123 -41 
Q 819 9 494 109 
L 494 744 
Q 775 591 1075 516 
Q 1375 441 1709 441 
Q 2250 441 2565 725 
Q 2881 1009 2881 1497 
Q 2881 1984 2565 2268 
Q 2250 2553 1709 2553 
Q 1456 2553 1204 2497 
Q 953 2441 691 2322 
L 691 4666 
z
" transform="scale(0.015625)"/>
       </defs>
       <use xlink:href="#DejaVuSans-32"/>
       <use xlink:href="#DejaVuSans-35" x="63.623047"/>
       <use xlink:href="#DejaVuSans-30" x="127.246094"/>
      </g>
     </g>
    </g>
    <g id="xtick_3">
     <g id="line2d_5">
      <path d="M 153.812982 307.584 
L 153.812982 41.472 
" clip-path="url(#p61a6eed3f3)" style="fill: none; stroke-dasharray: 2.96,1.28; stroke-dashoffset: 0; stroke: #b0b0b0; stroke-width: 0.8"/>
     </g>
     <g id="line2d_6">
      <g>
       <use xlink:href="#mf79c2c400f" x="153.812982" y="307.584" style="stroke: #000000; stroke-width: 0.8"/>
      </g>
     </g>
     <g id="text_3">
      <!-- 500 -->
      <g transform="translate(144.269232 322.182437)scale(0.1 -0.1)">
       <use xlink:href="#DejaVuSans-35"/>
       <use xlink:href="#DejaVuSans-30" x="63.623047"/>
       <use xlink:href="#DejaVuSans-30" x="127.246094"/>
      </g>
     </g>
    </g>
    <g id="xtick_4">
     <g id="line2d_7">
      <path d="M 194.619235 307.584 
L 194.619235 41.472 
" clip-path="url(#p61a6eed3f3)" style="fill: none; stroke-dasharray: 2.96,1.28; stroke-dashoffset: 0; stroke: #b0b0b0; stroke-width: 0.8"/>
     </g>
     <g id="line2d_8">
      <g>
       <use xlink:href="#mf79c2c400f" x="194.619235" y="307.584" style="stroke: #000000; stroke-width: 0.8"/>
      </g>
     </g>
     <g id="text_4">
      <!-- 750 -->
      <g transform="translate(185.075485 322.182437)scale(0.1 -0.1)">
       <defs>
        <path id="DejaVuSans-37" d="M 525 4666 
L 3525 4666 
L 3525 4397 
L 1831 0 
L 1172 0 
L 2766 4134 
L 525 4134 
L 525 4666 
z
" transform="scale(0.015625)"/>
       </defs>
       <use xlink:href="#DejaVuSans-37"/>
       <use xlink:href="#DejaVuSans-35" x="63.623047"/>
       <use xlink:href="#DejaVuSans-30" x="127.246094"/>
      </g>
     </g>
    </g>
    <g id="xtick_5">
     <g id="line2d_9">
      <path d="M 235.425487 307.584 
L 235.425487 41.472 
" clip-path="url(#p61a6eed3f3)" style="fill: none; stroke-dasharray: 2.96,1.28; stroke-dashoffset: 0; stroke: #b0b0b0; stroke-width: 0.8"/>
     </g>
     <g id="line2d_10">
      <g>
       <use xlink:href="#mf79c2c400f" x="235.425487" y="307.584" style="stroke: #000000; stroke-width: 0.8"/>
      </g>
     </g>
     <g id="text_5">
      <!-- 1000 -->
      <g transform="translate(222.700487 322.182437)scale(0.1 -0.1)">
       <defs>
        <path id="DejaVuSans-31" d="M 794 531 
L 1825 531 
L 1825 4091 
L 703 3866 
L 703 4441 
L 1819 4666 
L 2450 4666 
L 2450 531 
L 3481 531 
L 3481 0 
L 794 0 
L 794 531 
z
" transform="scale(0.015625)"/>
       </defs>
       <use xlink:href="#DejaVuSans-31"/>
       <use xlink:href="#DejaVuSans-30" x="63.623047"/>
       <use xlink:href="#DejaVuSans-30" x="127.246094"/>
       <use xlink:href="#DejaVuSans-30" x="190.869141"/>
      </g>
     </g>
    </g>
    <g id="xtick_6">
     <g id="line2d_11">
      <path d="M 276.23174 307.584 
L 276.23174 41.472 
" clip-path="url(#p61a6eed3f3)" style="fill: none; stroke-dasharray: 2.96,1.28; stroke-dashoffset: 0; stroke: #b0b0b0; stroke-width: 0.8"/>
     </g>
     <g id="line2d_12">
      <g>
       <use xlink:href="#mf79c2c400f" x="276.23174" y="307.584" style="stroke: #000000; stroke-width: 0.8"/>
      </g>
     </g>
     <g id="text_6">
      <!-- 1250 -->
      <g transform="translate(263.50674 322.182437)scale(0.1 -0.1)">
       <use xlink:href="#DejaVuSans-31"/>
       <use xlink:href="#DejaVuSans-32" x="63.623047"/>
       <use xlink:href="#DejaVuSans-35" x="127.246094"/>
       <use xlink:href="#DejaVuSans-30" x="190.869141"/>
      </g>
     </g>
    </g>
    <g id="xtick_7">
     <g id="line2d_13">
      <path d="M 317.037993 307.584 
L 317.037993 41.472 
" clip-path="url(#p61a6eed3f3)" style="fill: none; stroke-dasharray: 2.96,1.28; stroke-dashoffset: 0; stroke: #b0b0b0; stroke-width: 0.8"/>
     </g>
     <g id="line2d_14">
      <g>
       <use xlink:href="#mf79c2c400f" x="317.037993" y="307.584" style="stroke: #000000; stroke-width: 0.8"/>
      </g>
     </g>
     <g id="text_7">
      <!-- 1500 -->
      <g transform="translate(304.312993 322.182437)scale(0.1 -0.1)">
       <use xlink:href="#DejaVuSans-31"/>
       <use xlink:href="#DejaVuSans-35" x="63.623047"/>
       <use xlink:href="#DejaVuSans-30" x="127.246094"/>
       <use xlink:href="#DejaVuSans-30" x="190.869141"/>
      </g>
     </g>
    </g>
    <g id="xtick_8">
     <g id="line2d_15">
      <path d="M 357.844245 307.584 
L 357.844245 41.472 
" clip-path="url(#p61a6eed3f3)" style="fill: none; stroke-dasharray: 2.96,1.28; stroke-dashoffset: 0; stroke: #b0b0b0; stroke-width: 0.8"/>
     </g>
     <g id="line2d_16">
      <g>
       <use xlink:href="#mf79c2c400f" x="357.844245" y="307.584" style="stroke: #000000; stroke-width: 0.8"/>
      </g>
     </g>
     <g id="text_8">
      <!-- 1750 -->
      <g transform="translate(345.119245 322.182437)scale(0.1 -0.1)">
       <use xlink:href="#DejaVuSans-31"/>
       <use xlink:href="#DejaVuSans-37" x="63.623047"/>
       <use xlink:href="#DejaVuSans-35" x="127.246094"/>
       <use xlink:href="#DejaVuSans-30" x="190.869141"/>
      </g>
     </g>
    </g>
    <g id="xtick_9">
     <g id="line2d_17">
      <path d="M 398.650498 307.584 
L 398.650498 41.472 
" clip-path="url(#p61a6eed3f3)" style="fill: none; stroke-dasharray: 2.96,1.28; stroke-dashoffset: 0; stroke: #b0b0b0; stroke-width: 0.8"/>
     </g>
     <g id="line2d_18">
      <g>
       <use xlink:href="#mf79c2c400f" x="398.650498" y="307.584" style="stroke: #000000; stroke-width: 0.8"/>
      </g>
     </g>
     <g id="text_9">
      <!-- 2000 -->
      <g transform="translate(385.925498 322.182437)scale(0.1 -0.1)">
       <use xlink:href="#DejaVuSans-32"/>
       <use xlink:href="#DejaVuSans-30" x="63.623047"/>
       <use xlink:href="#DejaVuSans-30" x="127.246094"/>
       <use xlink:href="#DejaVuSans-30" x="190.869141"/>
      </g>
     </g>
    </g>
    <g id="text_10">
     <!-- Episode -->
     <g transform="translate(216.5225 335.860562)scale(0.1 -0.1)">
      <defs>
       <path id="DejaVuSans-45" d="M 628 4666 
L 3578 4666 
L 3578 4134 
L 1259 4134 
L 1259 2753 
L 3481 2753 
L 3481 2222 
L 1259 2222 
L 1259 531 
L 3634 531 
L 3634 0 
L 628 0 
L 628 4666 
z
" transform="scale(0.015625)"/>
       <path id="DejaVuSans-70" d="M 1159 525 
L 1159 -1331 
L 581 -1331 
L 581 3500 
L 1159 3500 
L 1159 2969 
Q 1341 3281 1617 3432 
Q 1894 3584 2278 3584 
Q 2916 3584 3314 3078 
Q 3713 2572 3713 1747 
Q 3713 922 3314 415 
Q 2916 -91 2278 -91 
Q 1894 -91 1617 61 
Q 1341 213 1159 525 
z
M 3116 1747 
Q 3116 2381 2855 2742 
Q 2594 3103 2138 3103 
Q 1681 3103 1420 2742 
Q 1159 2381 1159 1747 
Q 1159 1113 1420 752 
Q 1681 391 2138 391 
Q 2594 391 2855 752 
Q 3116 1113 3116 1747 
z
" transform="scale(0.015625)"/>
       <path id="DejaVuSans-69" d="M 603 3500 
L 1178 3500 
L 1178 0 
L 603 0 
L 603 3500 
z
M 603 4863 
L 1178 4863 
L 1178 4134 
L 603 4134 
L 603 4863 
z
" transform="scale(0.015625)"/>
       <path id="DejaVuSans-73" d="M 2834 3397 
L 2834 2853 
Q 2591 2978 2328 3040 
Q 2066 3103 1784 3103 
Q 1356 3103 1142 2972 
Q 928 2841 928 2578 
Q 928 2378 1081 2264 
Q 1234 2150 1697 2047 
L 1894 2003 
Q 2506 1872 2764 1633 
Q 3022 1394 3022 966 
Q 3022 478 2636 193 
Q 2250 -91 1575 -91 
Q 1294 -91 989 -36 
Q 684 19 347 128 
L 347 722 
Q 666 556 975 473 
Q 1284 391 1588 391 
Q 1994 391 2212 530 
Q 2431 669 2431 922 
Q 2431 1156 2273 1281 
Q 2116 1406 1581 1522 
L 1381 1569 
Q 847 1681 609 1914 
Q 372 2147 372 2553 
Q 372 3047 722 3315 
Q 1072 3584 1716 3584 
Q 2034 3584 2315 3537 
Q 2597 3491 2834 3397 
z
" transform="scale(0.015625)"/>
       <path id="DejaVuSans-6f" d="M 1959 3097 
Q 1497 3097 1228 2736 
Q 959 2375 959 1747 
Q 959 1119 1226 758 
Q 1494 397 1959 397 
Q 2419 397 2687 759 
Q 2956 1122 2956 1747 
Q 2956 2369 2687 2733 
Q 2419 3097 1959 3097 
z
M 1959 3584 
Q 2709 3584 3137 3096 
Q 3566 2609 3566 1747 
Q 3566 888 3137 398 
Q 2709 -91 1959 -91 
Q 1206 -91 779 398 
Q 353 888 353 1747 
Q 353 2609 779 3096 
Q 1206 3584 1959 3584 
z
" transform="scale(0.015625)"/>
       <path id="DejaVuSans-64" d="M 2906 2969 
L 2906 4863 
L 3481 4863 
L 3481 0 
L 2906 0 
L 2906 525 
Q 2725 213 2448 61 
Q 2172 -91 1784 -91 
Q 1150 -91 751 415 
Q 353 922 353 1747 
Q 353 2572 751 3078 
Q 1150 3584 1784 3584 
Q 2172 3584 2448 3432 
Q 2725 3281 2906 2969 
z
M 947 1747 
Q 947 1113 1208 752 
Q 1469 391 1925 391 
Q 2381 391 2643 752 
Q 2906 1113 2906 1747 
Q 2906 2381 2643 2742 
Q 2381 3103 1925 3103 
Q 1469 3103 1208 2742 
Q 947 2381 947 1747 
z
" transform="scale(0.015625)"/>
       <path id="DejaVuSans-65" d="M 3597 1894 
L 3597 1613 
L 953 1613 
Q 991 1019 1311 708 
Q 1631 397 2203 397 
Q 2534 397 2845 478 
Q 3156 559 3463 722 
L 3463 178 
Q 3153 47 2828 -22 
Q 2503 -91 2169 -91 
Q 1331 -91 842 396 
Q 353 884 353 1716 
Q 353 2575 817 3079 
Q 1281 3584 2069 3584 
Q 2775 3584 3186 3129 
Q 3597 2675 3597 1894 
z
M 3022 2063 
Q 3016 2534 2758 2815 
Q 2500 3097 2075 3097 
Q 1594 3097 1305 2825 
Q 1016 2553 972 2059 
L 3022 2063 
z
" transform="scale(0.015625)"/>
      </defs>
      <use xlink:href="#DejaVuSans-45"/>
      <use xlink:href="#DejaVuSans-70" x="63.183594"/>
      <use xlink:href="#DejaVuSans-69" x="126.660156"/>
      <use xlink:href="#DejaVuSans-73" x="154.443359"/>
      <use xlink:href="#DejaVuSans-6f" x="206.542969"/>
      <use xlink:href="#DejaVuSans-64" x="267.724609"/>
      <use xlink:href="#DejaVuSans-65" x="331.201172"/>
     </g>
    </g>
   </g>
   <g id="matplotlib.axis_2">
    <g id="ytick_1">
     <g id="line2d_19">
      <path d="M 57.6 282.265278 
L 414.72 282.265278 
" clip-path="url(#p61a6eed3f3)" style="fill: none; stroke-dasharray: 2.96,1.28; stroke-dashoffset: 0; stroke: #b0b0b0; stroke-width: 0.8"/>
     </g>
     <g id="line2d_20">
      <defs>
       <path id="m3665d00f8e" d="M 0 0 
L -3.5 0 
" style="stroke: #000000; stroke-width: 0.8"/>
      </defs>
      <g>
       <use xlink:href="#m3665d00f8e" x="57.6" y="282.265278" style="stroke: #000000; stroke-width: 0.8"/>
      </g>
     </g>
     <g id="text_11">
      <!-- −1250 -->
      <g transform="translate(16.770313 286.064497)scale(0.1 -0.1)">
       <defs>
        <path id="DejaVuSans-2212" d="M 678 2272 
L 4684 2272 
L 4684 1741 
L 678 1741 
L 678 2272 
z
" transform="scale(0.015625)"/>
       </defs>
       <use xlink:href="#DejaVuSans-2212"/>
       <use xlink:href="#DejaVuSans-31" x="83.789062"/>
       <use xlink:href="#DejaVuSans-32" x="147.412109"/>
       <use xlink:href="#DejaVuSans-35" x="211.035156"/>
       <use xlink:href="#DejaVuSans-30" x="274.658203"/>
      </g>
     </g>
    </g>
    <g id="ytick_2">
     <g id="line2d_21">
      <path d="M 57.6 247.094605 
L 414.72 247.094605 
" clip-path="url(#p61a6eed3f3)" style="fill: none; stroke-dasharray: 2.96,1.28; stroke-dashoffset: 0; stroke: #b0b0b0; stroke-width: 0.8"/>
     </g>
     <g id="line2d_22">
      <g>
       <use xlink:href="#m3665d00f8e" x="57.6" y="247.094605" style="stroke: #000000; stroke-width: 0.8"/>
      </g>
     </g>
     <g id="text_12">
      <!-- −1000 -->
      <g transform="translate(16.770313 250.893823)scale(0.1 -0.1)">
       <use xlink:href="#DejaVuSans-2212"/>
       <use xlink:href="#DejaVuSans-31" x="83.789062"/>
       <use xlink:href="#DejaVuSans-30" x="147.412109"/>
       <use xlink:href="#DejaVuSans-30" x="211.035156"/>
       <use xlink:href="#DejaVuSans-30" x="274.658203"/>
      </g>
     </g>
    </g>
    <g id="ytick_3">
     <g id="line2d_23">
      <path d="M 57.6 211.923931 
L 414.72 211.923931 
" clip-path="url(#p61a6eed3f3)" style="fill: none; stroke-dasharray: 2.96,1.28; stroke-dashoffset: 0; stroke: #b0b0b0; stroke-width: 0.8"/>
     </g>
     <g id="line2d_24">
      <g>
       <use xlink:href="#m3665d00f8e" x="57.6" y="211.923931" style="stroke: #000000; stroke-width: 0.8"/>
      </g>
     </g>
     <g id="text_13">
      <!-- −750 -->
      <g transform="translate(23.132812 215.72315)scale(0.1 -0.1)">
       <use xlink:href="#DejaVuSans-2212"/>
       <use xlink:href="#DejaVuSans-37" x="83.789062"/>
       <use xlink:href="#DejaVuSans-35" x="147.412109"/>
       <use xlink:href="#DejaVuSans-30" x="211.035156"/>
      </g>
     </g>
    </g>
    <g id="ytick_4">
     <g id="line2d_25">
      <path d="M 57.6 176.753258 
L 414.72 176.753258 
" clip-path="url(#p61a6eed3f3)" style="fill: none; stroke-dasharray: 2.96,1.28; stroke-dashoffset: 0; stroke: #b0b0b0; stroke-width: 0.8"/>
     </g>
     <g id="line2d_26">
      <g>
       <use xlink:href="#m3665d00f8e" x="57.6" y="176.753258" style="stroke: #000000; stroke-width: 0.8"/>
      </g>
     </g>
     <g id="text_14">
      <!-- −500 -->
      <g transform="translate(23.132812 180.552477)scale(0.1 -0.1)">
       <use xlink:href="#DejaVuSans-2212"/>
       <use xlink:href="#DejaVuSans-35" x="83.789062"/>
       <use xlink:href="#DejaVuSans-30" x="147.412109"/>
       <use xlink:href="#DejaVuSans-30" x="211.035156"/>
      </g>
     </g>
    </g>
    <g id="ytick_5">
     <g id="line2d_27">
      <path d="M 57.6 141.582585 
L 414.72 141.582585 
" clip-path="url(#p61a6eed3f3)" style="fill: none; stroke-dasharray: 2.96,1.28; stroke-dashoffset: 0; stroke: #b0b0b0; stroke-width: 0.8"/>
     </g>
     <g id="line2d_28">
      <g>
       <use xlink:href="#m3665d00f8e" x="57.6" y="141.582585" style="stroke: #000000; stroke-width: 0.8"/>
      </g>
     </g>
     <g id="text_15">
      <!-- −250 -->
      <g transform="translate(23.132812 145.381803)scale(0.1 -0.1)">
       <use xlink:href="#DejaVuSans-2212"/>
       <use xlink:href="#DejaVuSans-32" x="83.789062"/>
       <use xlink:href="#DejaVuSans-35" x="147.412109"/>
       <use xlink:href="#DejaVuSans-30" x="211.035156"/>
      </g>
     </g>
    </g>
    <g id="ytick_6">
     <g id="line2d_29">
      <path d="M 57.6 106.411911 
L 414.72 106.411911 
" clip-path="url(#p61a6eed3f3)" style="fill: none; stroke-dasharray: 2.96,1.28; stroke-dashoffset: 0; stroke: #b0b0b0; stroke-width: 0.8"/>
     </g>
     <g id="line2d_30">
      <g>
       <use xlink:href="#m3665d00f8e" x="57.6" y="106.411911" style="stroke: #000000; stroke-width: 0.8"/>
      </g>
     </g>
     <g id="text_16">
      <!-- 0 -->
      <g transform="translate(44.2375 110.21113)scale(0.1 -0.1)">
       <use xlink:href="#DejaVuSans-30"/>
      </g>
     </g>
    </g>
    <g id="ytick_7">
     <g id="line2d_31">
      <path d="M 57.6 71.241238 
L 414.72 71.241238 
" clip-path="url(#p61a6eed3f3)" style="fill: none; stroke-dasharray: 2.96,1.28; stroke-dashoffset: 0; stroke: #b0b0b0; stroke-width: 0.8"/>
     </g>
     <g id="line2d_32">
      <g>
       <use xlink:href="#m3665d00f8e" x="57.6" y="71.241238" style="stroke: #000000; stroke-width: 0.8"/>
      </g>
     </g>
     <g id="text_17">
      <!-- 250 -->
      <g transform="translate(31.5125 75.040457)scale(0.1 -0.1)">
       <use xlink:href="#DejaVuSans-32"/>
       <use xlink:href="#DejaVuSans-35" x="63.623047"/>
       <use xlink:href="#DejaVuSans-30" x="127.246094"/>
      </g>
     </g>
    </g>
    <g id="text_18">
     <!-- profits/by_selling_refurbished -->
     <g transform="translate(10.4125 248.019406)rotate(-90)scale(0.1 -0.1)">
      <defs>
       <path id="DejaVuSans-72" d="M 2631 2963 
Q 2534 3019 2420 3045 
Q 2306 3072 2169 3072 
Q 1681 3072 1420 2755 
Q 1159 2438 1159 1844 
L 1159 0 
L 581 0 
L 581 3500 
L 1159 3500 
L 1159 2956 
Q 1341 3275 1631 3429 
Q 1922 3584 2338 3584 
Q 2397 3584 2469 3576 
Q 2541 3569 2628 3553 
L 2631 2963 
z
" transform="scale(0.015625)"/>
       <path id="DejaVuSans-66" d="M 2375 4863 
L 2375 4384 
L 1825 4384 
Q 1516 4384 1395 4259 
Q 1275 4134 1275 3809 
L 1275 3500 
L 2222 3500 
L 2222 3053 
L 1275 3053 
L 1275 0 
L 697 0 
L 697 3053 
L 147 3053 
L 147 3500 
L 697 3500 
L 697 3744 
Q 697 4328 969 4595 
Q 1241 4863 1831 4863 
L 2375 4863 
z
" transform="scale(0.015625)"/>
       <path id="DejaVuSans-74" d="M 1172 4494 
L 1172 3500 
L 2356 3500 
L 2356 3053 
L 1172 3053 
L 1172 1153 
Q 1172 725 1289 603 
Q 1406 481 1766 481 
L 2356 481 
L 2356 0 
L 1766 0 
Q 1100 0 847 248 
Q 594 497 594 1153 
L 594 3053 
L 172 3053 
L 172 3500 
L 594 3500 
L 594 4494 
L 1172 4494 
z
" transform="scale(0.015625)"/>
       <path id="DejaVuSans-2f" d="M 1625 4666 
L 2156 4666 
L 531 -594 
L 0 -594 
L 1625 4666 
z
" transform="scale(0.015625)"/>
       <path id="DejaVuSans-62" d="M 3116 1747 
Q 3116 2381 2855 2742 
Q 2594 3103 2138 3103 
Q 1681 3103 1420 2742 
Q 1159 2381 1159 1747 
Q 1159 1113 1420 752 
Q 1681 391 2138 391 
Q 2594 391 2855 752 
Q 3116 1113 3116 1747 
z
M 1159 2969 
Q 1341 3281 1617 3432 
Q 1894 3584 2278 3584 
Q 2916 3584 3314 3078 
Q 3713 2572 3713 1747 
Q 3713 922 3314 415 
Q 2916 -91 2278 -91 
Q 1894 -91 1617 61 
Q 1341 213 1159 525 
L 1159 0 
L 581 0 
L 581 4863 
L 1159 4863 
L 1159 2969 
z
" transform="scale(0.015625)"/>
       <path id="DejaVuSans-79" d="M 2059 -325 
Q 1816 -950 1584 -1140 
Q 1353 -1331 966 -1331 
L 506 -1331 
L 506 -850 
L 844 -850 
Q 1081 -850 1212 -737 
Q 1344 -625 1503 -206 
L 1606 56 
L 191 3500 
L 800 3500 
L 1894 763 
L 2988 3500 
L 3597 3500 
L 2059 -325 
z
" transform="scale(0.015625)"/>
       <path id="DejaVuSans-5f" d="M 3263 -1063 
L 3263 -1509 
L -63 -1509 
L -63 -1063 
L 3263 -1063 
z
" transform="scale(0.015625)"/>
       <path id="DejaVuSans-6c" d="M 603 4863 
L 1178 4863 
L 1178 0 
L 603 0 
L 603 4863 
z
" transform="scale(0.015625)"/>
       <path id="DejaVuSans-6e" d="M 3513 2113 
L 3513 0 
L 2938 0 
L 2938 2094 
Q 2938 2591 2744 2837 
Q 2550 3084 2163 3084 
Q 1697 3084 1428 2787 
Q 1159 2491 1159 1978 
L 1159 0 
L 581 0 
L 581 3500 
L 1159 3500 
L 1159 2956 
Q 1366 3272 1645 3428 
Q 1925 3584 2291 3584 
Q 2894 3584 3203 3211 
Q 3513 2838 3513 2113 
z
" transform="scale(0.015625)"/>
       <path id="DejaVuSans-67" d="M 2906 1791 
Q 2906 2416 2648 2759 
Q 2391 3103 1925 3103 
Q 1463 3103 1205 2759 
Q 947 2416 947 1791 
Q 947 1169 1205 825 
Q 1463 481 1925 481 
Q 2391 481 2648 825 
Q 2906 1169 2906 1791 
z
M 3481 434 
Q 3481 -459 3084 -895 
Q 2688 -1331 1869 -1331 
Q 1566 -1331 1297 -1286 
Q 1028 -1241 775 -1147 
L 775 -588 
Q 1028 -725 1275 -790 
Q 1522 -856 1778 -856 
Q 2344 -856 2625 -561 
Q 2906 -266 2906 331 
L 2906 616 
Q 2728 306 2450 153 
Q 2172 0 1784 0 
Q 1141 0 747 490 
Q 353 981 353 1791 
Q 353 2603 747 3093 
Q 1141 3584 1784 3584 
Q 2172 3584 2450 3431 
Q 2728 3278 2906 2969 
L 2906 3500 
L 3481 3500 
L 3481 434 
z
" transform="scale(0.015625)"/>
       <path id="DejaVuSans-75" d="M 544 1381 
L 544 3500 
L 1119 3500 
L 1119 1403 
Q 1119 906 1312 657 
Q 1506 409 1894 409 
Q 2359 409 2629 706 
Q 2900 1003 2900 1516 
L 2900 3500 
L 3475 3500 
L 3475 0 
L 2900 0 
L 2900 538 
Q 2691 219 2414 64 
Q 2138 -91 1772 -91 
Q 1169 -91 856 284 
Q 544 659 544 1381 
z
M 1991 3584 
L 1991 3584 
z
" transform="scale(0.015625)"/>
       <path id="DejaVuSans-68" d="M 3513 2113 
L 3513 0 
L 2938 0 
L 2938 2094 
Q 2938 2591 2744 2837 
Q 2550 3084 2163 3084 
Q 1697 3084 1428 2787 
Q 1159 2491 1159 1978 
L 1159 0 
L 581 0 
L 581 4863 
L 1159 4863 
L 1159 2956 
Q 1366 3272 1645 3428 
Q 1925 3584 2291 3584 
Q 2894 3584 3203 3211 
Q 3513 2838 3513 2113 
z
" transform="scale(0.015625)"/>
      </defs>
      <use xlink:href="#DejaVuSans-70"/>
      <use xlink:href="#DejaVuSans-72" x="63.476562"/>
      <use xlink:href="#DejaVuSans-6f" x="102.339844"/>
      <use xlink:href="#DejaVuSans-66" x="163.521484"/>
      <use xlink:href="#DejaVuSans-69" x="198.726562"/>
      <use xlink:href="#DejaVuSans-74" x="226.509766"/>
      <use xlink:href="#DejaVuSans-73" x="265.71875"/>
      <use xlink:href="#DejaVuSans-2f" x="317.818359"/>
      <use xlink:href="#DejaVuSans-62" x="351.509766"/>
      <use xlink:href="#DejaVuSans-79" x="414.986328"/>
      <use xlink:href="#DejaVuSans-5f" x="474.166016"/>
      <use xlink:href="#DejaVuSans-73" x="524.166016"/>
      <use xlink:href="#DejaVuSans-65" x="576.265625"/>
      <use xlink:href="#DejaVuSans-6c" x="637.789062"/>
      <use xlink:href="#DejaVuSans-6c" x="665.572266"/>
      <use xlink:href="#DejaVuSans-69" x="693.355469"/>
      <use xlink:href="#DejaVuSans-6e" x="721.138672"/>
      <use xlink:href="#DejaVuSans-67" x="784.517578"/>
      <use xlink:href="#DejaVuSans-5f" x="847.994141"/>
      <use xlink:href="#DejaVuSans-72" x="897.994141"/>
      <use xlink:href="#DejaVuSans-65" x="936.857422"/>
      <use xlink:href="#DejaVuSans-66" x="998.380859"/>
      <use xlink:href="#DejaVuSans-75" x="1033.585938"/>
      <use xlink:href="#DejaVuSans-72" x="1096.964844"/>
      <use xlink:href="#DejaVuSans-62" x="1138.078125"/>
      <use xlink:href="#DejaVuSans-69" x="1201.554688"/>
      <use xlink:href="#DejaVuSans-73" x="1229.337891"/>
      <use xlink:href="#DejaVuSans-68" x="1281.4375"/>
      <use xlink:href="#DejaVuSans-65" x="1344.816406"/>
      <use xlink:href="#DejaVuSans-64" x="1406.339844"/>
     </g>
    </g>
   </g>
   <g id="line2d_33">
    <path d="M 73.832727 295.488 
L 73.995952 279.682429 
L 74.159177 294.653582 
L 74.485627 276.312941 
L 74.648852 285.009919 
L 74.812077 285.573311 
L 74.975302 283.718893 
L 75.464977 259.517978 
L 76.117877 234.761916 
L 76.934002 213.274952 
L 77.750128 197.976856 
L 78.566253 186.479363 
L 79.545603 176.035783 
L 80.524953 167.966411 
L 81.667528 160.555647 
L 82.973328 153.830463 
L 83.952678 149.927411 
L 84.115903 149.270196 
L 84.279128 149.624498 
L 84.605578 148.548574 
L 84.768803 148.363604 
L 84.932028 148.43306 
L 85.421703 146.889116 
L 85.911378 145.373655 
L 86.074603 145.162197 
L 86.564278 143.673969 
L 86.727503 143.237537 
L 87.053953 142.929668 
L 87.217178 142.73753 
L 87.870078 141.065212 
L 88.033303 141.501099 
L 88.359753 140.815709 
L 88.522978 140.751228 
L 88.849428 141.243795 
L 89.012653 140.791579 
L 89.175878 132.517755 
L 89.339103 129.949907 
L 89.665553 130.005216 
L 89.828778 130.172364 
L 90.318453 120.187486 
L 90.481678 119.627108 
L 90.644903 115.663657 
L 90.808128 115.679719 
L 90.971353 114.482446 
L 91.297803 109.132062 
L 91.461028 107.377621 
L 92.277153 105.615655 
L 92.440378 105.618934 
L 92.766828 105.085471 
L 92.930053 104.886491 
L 93.093278 104.444219 
L 93.256503 104.371159 
L 93.419729 104.166783 
L 93.582954 103.696526 
L 93.746179 103.565639 
L 93.909404 103.204788 
L 94.072629 103.144947 
L 94.399079 102.587705 
L 95.051979 101.680299 
L 95.541654 100.768972 
L 95.704879 100.752275 
L 96.194554 99.914235 
L 96.357779 99.6186 
L 97.010679 99.323898 
L 97.173904 99.203956 
L 97.337129 98.726562 
L 97.663579 98.366697 
L 98.642929 97.421815 
L 98.806154 97.456316 
L 99.132604 97.152765 
L 100.438404 95.563988 
L 100.601629 95.533553 
L 100.764854 94.733651 
L 101.091304 94.660692 
L 101.254529 94.258948 
L 101.417754 93.555339 
L 102.233879 92.906088 
L 102.560329 92.229922 
L 102.886779 92.287144 
L 103.213229 92.233879 
L 103.702904 91.128017 
L 104.192579 91.040225 
L 104.355804 90.816476 
L 104.519029 89.760439 
L 104.682254 89.50552 
L 104.845479 89.467829 
L 105.171929 88.891803 
L 105.498379 88.347651 
L 105.661604 88.353101 
L 106.151279 87.770858 
L 106.477729 87.229018 
L 106.640954 87.283728 
L 106.804179 87.141924 
L 107.130629 87.564756 
L 107.457079 87.313337 
L 107.620304 87.541134 
L 107.783529 87.424854 
L 107.946754 87.58266 
L 108.109979 88.002097 
L 108.599654 88.15876 
L 108.762879 88.337716 
L 108.926104 88.218782 
L 109.252555 88.590171 
L 109.41578 88.707566 
L 109.579005 88.99162 
L 109.74223 88.737409 
L 109.905455 88.764798 
L 110.39513 89.371589 
L 110.558355 89.170805 
L 110.884805 89.208683 
L 111.04803 89.240987 
L 111.37448 89.662779 
L 111.70093 89.76965 
L 112.02738 90.221229 
L 112.517055 90.330179 
L 112.843505 90.653161 
L 113.496405 89.915325 
L 113.65963 90.035268 
L 113.822855 90.39186 
L 113.98608 90.187605 
L 114.149305 90.409375 
L 114.475755 90.206339 
L 114.63898 90.318863 
L 115.455105 89.688265 
L 115.94478 90.202451 
L 116.108005 90.098597 
L 116.27123 90.153825 
L 117.57703 89.627504 
L 118.22993 88.780855 
L 118.393155 88.75217 
L 118.55638 88.589057 
L 118.88283 88.85262 
L 119.046055 88.634304 
L 119.372505 87.842546 
L 120.025405 87.684984 
L 120.351855 87.652997 
L 121.16798 87.9268 
L 121.49443 87.652626 
L 121.82088 87.519031 
L 122.14733 87.212628 
L 122.637005 87.10863 
L 122.963455 86.95702 
L 123.12668 86.905996 
L 123.289905 87.087515 
L 123.45313 87.07191 
L 123.616355 87.247818 
L 123.77958 87.197994 
L 124.10603 86.788959 
L 124.43248 86.795223 
L 124.922155 86.202626 
L 125.085381 86.218903 
L 125.248606 86.063855 
L 125.411831 86.169454 
L 125.575056 85.800826 
L 125.901506 85.767836 
L 126.064731 85.66338 
L 126.227956 85.918719 
L 126.391181 85.774844 
L 126.554406 85.787896 
L 126.880856 85.306571 
L 127.207306 85.500412 
L 127.696981 84.852462 
L 127.860206 84.63171 
L 128.186656 84.722441 
L 128.349881 84.617887 
L 128.676331 84.204082 
L 128.839556 84.239446 
L 129.002781 84.447505 
L 129.166006 84.220178 
L 129.329231 84.218527 
L 129.655681 84.097877 
L 129.982131 84.410794 
L 130.145356 84.292128 
L 130.471806 84.596051 
L 130.635031 84.394426 
L 130.961481 84.374289 
L 131.451156 83.978841 
L 131.614381 84.02139 
L 131.777606 83.677341 
L 131.940831 83.697118 
L 132.756956 82.814883 
L 133.246631 83.23367 
L 133.409856 83.243937 
L 133.736306 82.992936 
L 133.899531 83.001366 
L 134.062756 82.694334 
L 135.042106 82.824237 
L 135.205331 82.640587 
L 135.368556 82.641963 
L 135.858231 83.285943 
L 136.021456 83.182411 
L 136.184681 83.253318 
L 136.347906 83.129828 
L 136.511131 83.177913 
L 136.674356 83.433528 
L 136.837581 83.270298 
L 137.000806 83.270298 
L 137.327256 82.844927 
L 137.653706 82.873292 
L 138.143381 82.633836 
L 138.469831 83.109821 
L 138.633056 82.998622 
L 138.959506 83.365627 
L 139.285956 83.796854 
L 139.775631 83.610968 
L 139.938856 83.877801 
L 140.265306 83.68521 
L 140.754981 84.430116 
L 141.081432 84.256619 
L 141.407882 84.732241 
L 141.571107 84.662947 
L 142.224007 84.947241 
L 142.387232 84.907367 
L 142.713682 85.036005 
L 142.876907 85.088298 
L 143.366582 85.697811 
L 143.529807 85.623815 
L 144.345932 86.354848 
L 145.162057 86.165008 
L 145.325282 86.190592 
L 145.488507 85.937353 
L 145.651732 86.173655 
L 145.814957 86.204841 
L 146.141407 86.51389 
L 146.794307 85.437036 
L 146.957532 85.374554 
L 147.283982 85.068746 
L 147.936882 85.576284 
L 148.100107 85.421097 
L 149.079457 85.558529 
L 149.242682 85.654884 
L 149.405907 85.58575 
L 149.569132 85.270436 
L 149.732357 85.539994 
L 149.895582 85.416311 
L 150.058807 85.797967 
L 150.222032 85.727478 
L 150.385257 85.80149 
L 150.548482 86.108523 
L 150.874932 86.143988 
L 151.201382 86.175373 
L 151.364607 86.115326 
L 152.017507 86.530546 
L 152.180732 86.436443 
L 152.507182 86.527702 
L 152.833632 86.124634 
L 152.996857 86.044785 
L 153.160082 85.728221 
L 153.323307 85.72085 
L 153.486532 85.386831 
L 153.812982 85.367245 
L 153.976207 85.52812 
L 154.139432 85.491863 
L 154.629107 85.847106 
L 154.955557 85.409293 
L 155.118782 85.54237 
L 155.445232 85.069772 
L 155.771682 84.606741 
L 155.934907 84.36239 
L 156.261357 84.492369 
L 156.424582 84.272274 
L 156.587807 84.335143 
L 156.751032 84.542209 
L 156.914258 84.521275 
L 157.240708 84.104698 
L 157.403933 84.377221 
L 157.730383 84.126149 
L 158.056833 84.609591 
L 158.383283 84.485497 
L 158.546508 84.826424 
L 159.199408 83.704869 
L 159.362633 83.583951 
L 159.525858 83.616607 
L 159.852308 83.16366 
L 160.015533 83.44264 
L 160.178758 83.224582 
L 160.341983 83.389689 
L 160.831658 82.655404 
L 161.484558 82.231104 
L 163.116808 80.602338 
L 163.280033 80.684694 
L 163.443258 80.497456 
L 163.769708 81.110712 
L 163.932933 80.884954 
L 164.096158 80.85583 
L 164.422608 80.631956 
L 164.585833 80.882997 
L 165.075508 80.606241 
L 165.401958 80.100319 
L 165.565183 80.202439 
L 165.728408 80.126119 
L 166.381308 79.237471 
L 167.034208 78.406769 
L 167.197433 78.616478 
L 167.360658 78.383836 
L 167.687108 78.308623 
L 168.340008 77.603407 
L 168.503233 77.705199 
L 169.156133 77.225484 
L 169.482583 77.42522 
L 169.972258 77.01418 
L 170.298708 77.368349 
L 171.441283 75.791136 
L 171.604508 75.650679 
L 171.930958 75.741304 
L 172.094183 75.516602 
L 172.420633 75.988702 
L 172.583858 75.502248 
L 172.747084 75.462546 
L 173.073534 75.723365 
L 173.236759 75.833436 
L 173.399984 75.706132 
L 173.726434 75.183406 
L 174.052884 75.021364 
L 174.216109 74.861141 
L 174.542559 73.929338 
L 174.705784 73.765769 
L 175.032234 72.749339 
L 175.195459 72.893576 
L 175.358684 72.805106 
L 175.521909 72.88514 
L 175.848359 72.619721 
L 176.174809 72.35718 
L 176.338034 72.532109 
L 176.501259 72.038543 
L 176.664484 72.045578 
L 177.154159 71.428461 
L 177.317384 71.617519 
L 177.807059 71.200964 
L 178.296734 70.889754 
L 178.786409 70.825497 
L 178.949634 71.146326 
L 179.112859 71.133411 
L 179.439309 71.451094 
L 179.602534 71.85203 
L 179.765759 71.575839 
L 179.928984 71.540256 
L 180.092209 71.371338 
L 180.255434 70.80647 
L 180.581884 71.068419 
L 180.745109 71.292232 
L 181.071559 70.984417 
L 181.234784 71.219717 
L 181.561234 70.803717 
L 181.724459 70.848157 
L 182.050909 70.517998 
L 182.214134 70.223862 
L 182.540584 71.030604 
L 182.703809 71.301915 
L 182.867034 71.342775 
L 183.519934 70.931665 
L 183.683159 70.643145 
L 183.846384 70.841503 
L 184.009609 70.791023 
L 184.336059 71.228164 
L 184.662509 71.21231 
L 184.825734 71.170353 
L 185.152184 70.598375 
L 185.641859 70.426039 
L 185.968309 70.026109 
L 186.131534 70.113248 
L 186.294759 69.873089 
L 186.457984 69.985613 
L 186.621209 69.595689 
L 186.784434 69.524117 
L 186.947659 69.598452 
L 187.110884 69.471159 
L 187.437334 69.812177 
L 187.927009 69.620533 
L 188.416684 68.907222 
L 188.57991 69.176707 
L 188.90636 68.615196 
L 189.069585 68.952175 
L 189.23281 68.855921 
L 189.722485 67.763617 
L 189.88571 67.741431 
L 190.21216 67.972177 
L 190.375385 67.906492 
L 190.53861 68.11696 
L 190.86506 67.802612 
L 191.354735 68.29909 
L 191.51796 68.365119 
L 191.681185 68.200647 
L 191.84441 68.336405 
L 192.17086 68.770515 
L 192.334085 68.933059 
L 192.660535 68.796232 
L 192.82376 68.514444 
L 192.986985 68.494528 
L 193.15021 68.748981 
L 193.313435 68.637779 
L 193.47666 69.133134 
L 193.80311 68.937822 
L 193.966335 69.305285 
L 194.945685 69.592752 
L 195.272135 69.193099 
L 195.43536 68.675275 
L 196.08826 68.408978 
L 196.577935 68.627474 
L 196.904385 68.899395 
L 197.230835 68.150472 
L 197.39406 68.17105 
L 197.557285 68.032329 
L 197.72051 67.592495 
L 198.536635 67.796557 
L 198.69986 68.141759 
L 199.189535 67.2283 
L 199.515985 67.149528 
L 199.842435 67.418274 
L 200.495335 66.763535 
L 200.65856 66.221754 
L 200.821785 66.300203 
L 200.98501 66.10129 
L 201.148235 66.118543 
L 201.474685 66.003525 
L 201.63791 66.155219 
L 201.801135 66.09176 
L 201.96436 66.551714 
L 202.127585 66.43334 
L 202.29081 66.745741 
L 202.61726 66.667696 
L 202.780485 66.831393 
L 203.106935 66.380121 
L 203.27016 66.418011 
L 203.433385 66.161752 
L 203.59661 66.40276 
L 203.759835 66.290948 
L 203.92306 65.959229 
L 204.412735 66.201365 
L 204.739186 66.245492 
L 204.902411 66.422843 
L 205.228861 66.129476 
L 205.392086 66.340355 
L 205.718536 66.33519 
L 205.881761 66.451353 
L 206.044986 66.226657 
L 206.371436 66.364523 
L 207.187561 65.809729 
L 207.350786 65.8219 
L 207.514011 65.677895 
L 207.677236 65.748777 
L 207.840461 65.685794 
L 208.166911 65.314055 
L 208.330136 65.303971 
L 208.493361 64.898222 
L 208.656586 65.227252 
L 208.819811 64.94658 
L 209.309486 65.093001 
L 209.472711 65.38999 
L 209.635936 64.845196 
L 209.799161 65.462893 
L 209.962386 65.106118 
L 210.615286 64.984035 
L 210.778511 65.050617 
L 211.594636 64.810025 
L 212.247536 64.833075 
L 212.410761 64.648222 
L 212.737211 64.573756 
L 213.063661 64.373359 
L 213.553336 63.944361 
L 213.879786 64.251359 
L 214.043011 64.246145 
L 214.206236 64.709417 
L 214.369461 64.74514 
L 214.532686 65.124573 
L 214.695911 64.961007 
L 215.022361 65.490726 
L 215.512036 65.043529 
L 215.675261 65.287372 
L 216.164936 64.801977 
L 216.328161 64.733798 
L 216.981061 65.740573 
L 217.144286 65.76027 
L 217.307511 65.580152 
L 217.797186 66.173474 
L 217.960411 65.997579 
L 218.123636 66.00699 
L 218.286861 66.266759 
L 218.450086 65.768743 
L 218.613311 65.728782 
L 218.776536 65.482998 
L 218.939761 65.731912 
L 219.429436 65.543317 
L 219.592661 65.983423 
L 219.755886 65.622688 
L 219.919111 65.574696 
L 220.245561 65.916953 
L 220.408787 65.784446 
L 220.898462 65.845101 
L 221.061687 65.704385 
L 221.224912 65.962253 
L 221.388137 65.765317 
L 221.714587 66.072734 
L 222.530712 65.320509 
L 222.857162 65.456185 
L 223.183612 65.318446 
L 223.346837 65.26785 
L 223.836512 65.606782 
L 223.999737 65.531778 
L 224.489412 65.811283 
L 224.652637 65.910232 
L 224.815862 65.862099 
L 224.979087 65.977664 
L 225.142312 65.724235 
L 225.305537 66.088705 
L 225.468762 65.75989 
L 225.795212 65.998311 
L 225.958437 65.565424 
L 226.121662 65.67868 
L 226.448112 65.095251 
L 226.611337 65.470407 
L 226.774562 65.554732 
L 227.264237 65.458639 
L 227.753912 66.215897 
L 227.917137 66.102627 
L 228.243587 66.608308 
L 228.733262 67.18372 
L 228.896487 67.133284 
L 229.059712 66.863697 
L 229.386162 67.342961 
L 229.549387 67.400351 
L 229.712612 67.651158 
L 229.875837 67.68083 
L 230.039062 68.019044 
L 230.365512 67.976405 
L 230.528737 67.774647 
L 230.855187 68.179132 
L 231.018412 67.736634 
L 231.181637 67.96292 
L 231.508087 67.24067 
L 231.671312 67.095517 
L 232.650662 67.911415 
L 232.977112 67.594949 
L 233.303562 66.992638 
L 233.466787 67.390822 
L 233.630012 67.415474 
L 233.793237 67.554911 
L 233.956462 67.35718 
L 234.119687 67.584434 
L 234.282912 67.250622 
L 234.446137 67.521953 
L 235.425487 66.351362 
L 235.588712 66.396661 
L 235.751937 66.322682 
L 235.915162 66.886113 
L 236.241613 66.621508 
L 236.404838 66.61518 
L 236.731288 65.999641 
L 236.894513 66.236357 
L 237.057738 66.158678 
L 237.220963 66.282305 
L 237.384188 66.198438 
L 237.547413 66.648906 
L 238.363538 66.443393 
L 238.526763 66.604972 
L 238.689988 66.575946 
L 238.853213 66.374669 
L 239.016438 66.372773 
L 239.342888 66.061873 
L 239.506113 66.41136 
L 239.669338 66.446308 
L 239.832563 66.25147 
L 239.995788 66.385539 
L 240.648688 65.871977 
L 240.811913 66.143602 
L 241.628038 66.372223 
L 242.280938 65.811963 
L 242.607388 66.168465 
L 242.770613 66.08172 
L 243.097063 66.214995 
L 243.260288 66.027631 
L 243.423513 66.134123 
L 244.402863 65.806617 
L 244.566088 65.763253 
L 244.729313 65.880762 
L 244.892538 65.787892 
L 245.055763 65.839096 
L 245.382213 65.584566 
L 245.545438 65.808233 
L 245.708663 65.582687 
L 246.035113 65.513445 
L 246.198338 65.279605 
L 246.361563 65.4625 
L 246.688013 65.101292 
L 246.851238 65.028673 
L 247.014463 65.31805 
L 247.177688 64.971368 
L 247.340913 64.982727 
L 247.504138 65.141259 
L 247.667363 64.879958 
L 248.157038 65.353886 
L 248.483488 65.23947 
L 248.809938 64.679177 
L 248.973163 64.416317 
L 249.462838 64.884146 
L 249.626063 64.934289 
L 249.789288 65.179323 
L 250.115738 64.736314 
L 250.768638 64.40351 
L 250.931863 64.150001 
L 251.258313 64.889231 
L 251.584763 64.886796 
L 251.747988 65.317997 
L 252.074439 65.053584 
L 252.237664 65.23375 
L 252.400889 64.799597 
L 252.564114 64.727022 
L 252.727339 65.211876 
L 253.217014 65.579199 
L 253.380239 65.320615 
L 253.543464 65.27823 
L 253.706689 65.106998 
L 253.869914 65.509419 
L 254.359589 65.359318 
L 254.522814 65.413748 
L 254.686039 65.193256 
L 255.012489 65.158118 
L 255.175714 65.01543 
L 255.338939 65.570769 
L 255.665389 65.460853 
L 256.481514 65.218652 
L 256.807964 65.022091 
L 256.971189 65.137134 
L 257.134414 65.036401 
L 257.297639 64.749827 
L 257.460864 64.825353 
L 257.787314 64.267942 
L 257.950539 64.611649 
L 258.276989 64.256557 
L 258.603439 64.18356 
L 258.929889 64.748176 
L 259.093114 64.801636 
L 259.419564 65.003149 
L 259.582789 64.622846 
L 259.746014 64.616523 
L 260.072464 64.399273 
L 260.562139 64.169828 
L 260.725364 64.352035 
L 261.215039 64.281117 
L 261.378264 64.399756 
L 261.541489 64.37302 
L 261.867939 64.720959 
L 262.520839 64.127988 
L 262.684064 64.295825 
L 262.847289 63.837868 
L 263.500189 64.002218 
L 263.989864 63.423186 
L 264.642764 63.303185 
L 264.805989 63.375944 
L 264.969214 63.6844 
L 265.132439 63.613615 
L 265.458889 63.904511 
L 265.785339 63.364958 
L 266.111789 63.300942 
L 266.438239 62.658392 
L 266.601464 62.764429 
L 267.417589 62.664029 
L 267.580814 62.13525 
L 267.907265 62.58655 
L 268.07049 62.718067 
L 268.233715 62.276594 
L 268.560165 62.6592 
L 268.886615 62.237573 
L 269.04984 62.469251 
L 269.37629 62.459029 
L 269.539515 62.589496 
L 269.70274 62.460135 
L 269.865965 62.779348 
L 270.02919 62.792411 
L 270.68209 61.65917 
L 271.66144 61.604421 
L 271.824665 61.108381 
L 271.98789 61.501513 
L 272.31434 61.443805 
L 272.64079 61.100932 
L 272.96724 61.161926 
L 273.29369 61.57764 
L 273.456915 61.62702 
L 274.27304 62.431101 
L 274.436265 61.773986 
L 274.762715 61.904461 
L 274.92594 62.176981 
L 275.25239 61.744318 
L 275.90529 60.657405 
L 276.068515 60.824507 
L 276.23174 60.61898 
L 276.394965 60.871663 
L 276.88464 60.557246 
L 277.047865 60.836795 
L 277.374315 60.545001 
L 277.86399 59.406824 
L 278.19044 59.136271 
L 278.51689 59.473243 
L 278.680115 59.394701 
L 279.006565 59.718752 
L 279.16979 59.604641 
L 279.49624 59.727594 
L 279.659465 59.603941 
L 279.82269 59.674634 
L 279.985915 59.608884 
L 280.312365 59.76358 
L 280.47559 59.736977 
L 280.638815 60.175131 
L 280.80204 60.075433 
L 280.965265 59.719706 
L 281.291715 59.758212 
L 281.45494 59.174097 
L 281.618165 59.501873 
L 281.78139 59.545336 
L 281.944615 59.380436 
L 282.10784 59.396948 
L 282.271065 59.677851 
L 282.597515 59.579133 
L 283.08719 59.914333 
L 283.576865 59.383807 
L 283.903316 59.33814 
L 284.066541 59.232847 
L 284.392991 58.601601 
L 284.556216 58.352736 
L 284.719441 58.537095 
L 285.045891 57.943802 
L 285.372341 58.155632 
L 285.698791 57.70011 
L 286.025241 57.574569 
L 286.188466 57.666554 
L 286.351691 57.143437 
L 286.514916 57.312451 
L 286.841366 58.090001 
L 287.167816 57.824273 
L 287.331041 57.721972 
L 287.657491 57.920944 
L 287.820716 57.851525 
L 287.983941 58.129514 
L 288.310391 57.841304 
L 288.636841 57.577269 
L 289.126516 58.234571 
L 289.289741 58.348319 
L 289.942641 57.448629 
L 290.105866 57.376213 
L 290.269091 57.166301 
L 290.432316 57.346514 
L 290.758766 57.301016 
L 291.085216 57.347655 
L 291.411666 57.009158 
L 291.574891 57.133946 
L 291.738116 56.938451 
L 291.901341 56.994517 
L 292.064566 56.836655 
L 292.227791 56.838995 
L 292.391016 56.982273 
L 292.554241 56.86644 
L 292.717466 57.068296 
L 293.207141 56.674533 
L 293.370366 56.812007 
L 293.533591 56.307603 
L 293.696816 56.469723 
L 293.860041 56.278515 
L 294.186491 56.591693 
L 294.512941 56.795654 
L 294.676166 56.767716 
L 294.839391 56.444741 
L 295.165841 56.593515 
L 295.492291 56.308019 
L 295.818741 56.622957 
L 296.308416 56.33954 
L 296.634866 56.053442 
L 296.961316 56.241336 
L 297.124541 55.848901 
L 297.450991 56.089336 
L 297.614216 56.29293 
L 297.777441 56.168122 
L 297.940666 56.305534 
L 298.430341 55.854793 
L 298.593566 55.800286 
L 298.756791 55.57396 
L 298.920016 55.642791 
L 299.409691 55.201893 
L 299.572916 54.994745 
L 299.736142 55.108193 
L 299.899367 55.390331 
L 300.225817 55.402549 
L 301.041942 56.263652 
L 301.205167 56.075653 
L 301.694842 57.001771 
L 301.858067 56.981939 
L 302.021292 57.081483 
L 302.184517 56.715718 
L 302.347742 56.712939 
L 302.674192 56.446533 
L 302.837417 56.627156 
L 303.490317 56.244123 
L 303.816767 56.788989 
L 303.979992 56.553344 
L 304.143217 56.571808 
L 304.306442 56.834212 
L 304.469667 56.764284 
L 304.796117 57.187884 
L 305.122567 57.086548 
L 305.285792 56.772334 
L 305.449017 56.955127 
L 305.612242 56.589192 
L 305.938692 56.519768 
L 306.428367 57.761755 
L 306.591592 57.76617 
L 306.754817 57.892972 
L 306.918042 57.628056 
L 307.081267 57.801524 
L 307.244492 57.765868 
L 307.570942 58.093248 
L 308.060617 58.1444 
L 308.223842 58.431789 
L 308.387067 58.451819 
L 308.550292 58.895052 
L 309.366417 58.840005 
L 309.692867 59.059973 
L 309.856092 59.48475 
L 310.019317 59.448893 
L 310.182542 59.206112 
L 310.508992 59.767854 
L 310.672217 59.707789 
L 310.835442 59.785731 
L 310.998667 59.53106 
L 311.325117 59.858332 
L 311.651567 59.523828 
L 311.814792 59.504183 
L 311.978017 59.370913 
L 312.141242 58.968331 
L 312.304467 58.95957 
L 312.467692 59.139284 
L 312.630917 59.032181 
L 313.120592 59.141332 
L 313.283817 59.020723 
L 313.773492 59.697856 
L 313.936717 59.502479 
L 314.099942 59.564964 
L 314.263167 59.432299 
L 314.752842 59.530481 
L 314.916067 59.968336 
L 315.079292 59.780322 
L 315.242517 59.987129 
L 315.405742 59.969658 
L 315.568968 60.310616 
L 315.895418 60.425901 
L 316.058643 60.614176 
L 316.221868 60.624609 
L 316.385093 60.342834 
L 316.548318 60.32893 
L 316.874768 60.527003 
L 317.037993 61.038079 
L 317.364443 60.682354 
L 317.854118 61.248165 
L 318.507018 60.582815 
L 318.996693 61.083372 
L 319.159918 61.035197 
L 319.323143 61.210534 
L 319.486368 61.012265 
L 319.649593 61.153789 
L 319.976043 60.756447 
L 320.465718 60.249343 
L 320.628943 60.598507 
L 320.792168 60.007536 
L 320.955393 60.065865 
L 321.118618 59.745723 
L 321.281843 59.803996 
L 321.445068 59.743067 
L 321.608293 59.962226 
L 321.771518 59.796453 
L 322.097968 60.395437 
L 322.261193 60.269487 
L 322.424418 60.306606 
L 322.750868 59.639208 
L 323.077318 59.958226 
L 323.240543 59.644049 
L 323.403768 59.803577 
L 323.566993 59.485712 
L 323.730218 59.45095 
L 323.893443 59.000222 
L 324.219893 59.318069 
L 324.546343 59.045588 
L 325.036018 58.27569 
L 325.199243 58.407629 
L 326.178593 57.780697 
L 326.341818 57.291669 
L 326.505043 57.366763 
L 326.668268 57.235409 
L 326.831493 56.926037 
L 327.157943 56.729381 
L 327.321168 56.651766 
L 327.810843 56.755471 
L 327.974068 56.649776 
L 328.137293 56.678879 
L 328.300518 56.58665 
L 328.626968 56.939632 
L 328.953418 56.527941 
L 329.116643 56.908678 
L 329.279868 56.79359 
L 329.443093 57.025837 
L 329.606318 56.849828 
L 329.769543 56.880073 
L 330.585668 55.835766 
L 330.912118 55.913569 
L 331.075343 55.891184 
L 331.238568 56.302048 
L 331.401794 55.727121 
L 331.565019 55.921607 
L 331.728244 55.612667 
L 332.217919 55.563074 
L 332.381144 55.490043 
L 332.544369 55.84226 
L 332.707594 55.676944 
L 332.870819 55.807679 
L 333.360494 55.617263 
L 333.523719 55.192092 
L 333.686944 55.407582 
L 333.850169 55.285937 
L 334.013394 55.700481 
L 334.503069 54.931492 
L 335.155969 54.953274 
L 335.319194 54.72856 
L 335.482419 54.249343 
L 336.135319 54.369315 
L 336.461769 55.224534 
L 336.624994 55.151006 
L 336.951444 55.475643 
L 337.114669 55.215387 
L 337.277894 55.31635 
L 337.441119 55.250243 
L 337.604344 55.36762 
L 338.094019 54.968913 
L 338.257244 55.18807 
L 338.583694 54.409359 
L 338.746919 54.605719 
L 339.236594 54.573207 
L 339.726269 53.599643 
L 340.052719 53.600235 
L 340.379169 54.299642 
L 340.542394 53.940847 
L 340.868844 53.958502 
L 341.521744 55.200689 
L 341.684969 54.992938 
L 342.011419 55.640618 
L 342.174644 55.652418 
L 342.337869 55.851718 
L 342.501094 55.837776 
L 342.664319 55.652013 
L 342.990769 56.075317 
L 343.317219 56.239163 
L 343.970119 55.983152 
L 344.133344 56.072647 
L 344.296569 55.792939 
L 344.459794 55.978852 
L 344.623019 56.403015 
L 344.786244 56.291936 
L 345.112694 55.953392 
L 345.765594 57.15221 
L 345.928819 57.081044 
L 346.255269 57.223749 
L 346.581719 57.127539 
L 346.908169 57.127125 
L 347.071394 56.865201 
L 347.234619 56.962828 
L 347.724295 56.200498 
L 347.88752 56.596988 
L 348.050745 56.411128 
L 348.21397 56.660321 
L 348.54042 55.978303 
L 348.703645 56.503691 
L 348.86687 56.635849 
L 349.030095 56.051972 
L 349.19332 56.039783 
L 349.682995 56.373553 
L 349.84622 56.02756 
L 350.009445 56.265753 
L 350.17267 56.128234 
L 350.335895 56.202536 
L 350.49912 55.700549 
L 350.82557 56.135845 
L 350.988795 56.132351 
L 351.80492 57.298275 
L 352.13137 57.944879 
L 352.294595 57.712024 
L 352.45782 57.857152 
L 352.78427 57.478912 
L 352.947495 57.513447 
L 353.43717 58.103149 
L 353.600395 58.468871 
L 353.76362 58.519975 
L 353.926845 58.19338 
L 354.41652 58.360667 
L 354.579745 58.719944 
L 354.906195 58.712659 
L 355.06942 58.661628 
L 355.232645 58.260957 
L 355.39587 58.428249 
L 355.559095 58.799315 
L 355.72232 58.799853 
L 355.885545 58.661468 
L 356.37522 59.164602 
L 356.538445 59.658237 
L 356.864895 59.08062 
L 357.02812 59.565264 
L 357.35457 59.860445 
L 358.00747 58.898651 
L 358.170695 58.886059 
L 358.497145 58.470194 
L 358.823595 58.281047 
L 358.98682 58.572809 
L 359.150045 59.152814 
L 359.476495 58.63932 
L 359.63972 58.656344 
L 359.802945 58.965082 
L 360.129395 58.584945 
L 360.61907 58.466674 
L 360.782295 58.431703 
L 360.94552 58.701503 
L 361.108745 58.296913 
L 361.27197 58.417918 
L 361.435195 59.02381 
L 361.59842 59.108119 
L 361.761645 58.915603 
L 362.25132 57.632229 
L 362.740995 57.303572 
L 363.067445 57.694185 
L 363.393896 58.303321 
L 363.557121 58.641469 
L 363.720346 58.61666 
L 363.883571 58.771056 
L 364.046796 59.233985 
L 364.373246 58.998495 
L 364.536471 59.693385 
L 364.699696 59.443302 
L 364.862921 59.631048 
L 365.026146 60.054719 
L 365.352596 59.576592 
L 366.005496 60.283611 
L 366.331946 60.397284 
L 366.495171 60.12018 
L 366.984846 60.524683 
L 367.148071 60.390979 
L 367.474521 60.648769 
L 367.800971 60.02134 
L 367.964196 60.180504 
L 368.127421 60.118849 
L 368.617096 59.610753 
L 368.943546 59.700911 
L 369.106771 59.847078 
L 369.269996 59.715588 
L 369.433221 59.228559 
L 369.596446 59.394013 
L 369.922896 59.235459 
L 370.086121 58.874873 
L 370.412571 59.654827 
L 370.739021 59.623458 
L 370.902246 59.672534 
L 371.228696 59.01142 
L 371.718371 59.485949 
L 371.881596 59.78613 
L 372.044821 59.392281 
L 372.208046 59.645332 
L 372.371271 59.404926 
L 372.534496 59.424032 
L 372.697721 60.042608 
L 372.860946 60.198018 
L 373.187396 59.960795 
L 373.513846 60.038477 
L 373.677071 60.005394 
L 374.003521 59.38256 
L 374.329971 60.376328 
L 374.493196 60.059188 
L 375.309321 60.612378 
L 375.472546 60.495026 
L 375.635771 60.053574 
L 375.798996 60.187807 
L 376.125446 60.057297 
L 377.268021 61.260842 
L 377.594471 60.485655 
L 377.757696 60.675898 
L 377.920921 60.668047 
L 378.247371 60.866174 
L 378.410596 60.946172 
L 378.573821 60.87196 
L 379.226722 61.72812 
L 379.553172 61.525754 
L 380.042847 61.133058 
L 380.532522 60.665212 
L 380.695747 60.7199 
L 380.858972 60.932022 
L 381.022197 60.471301 
L 381.348647 60.562142 
L 381.511872 60.242213 
L 382.001547 60.183733 
L 382.164772 60.566558 
L 382.327997 60.133379 
L 382.491222 60.28778 
L 382.654447 60.085487 
L 383.144122 60.088044 
L 383.307347 59.808852 
L 383.470572 60.101903 
L 383.633797 60.055029 
L 383.960247 59.649834 
L 384.286697 60.752442 
L 384.449922 60.546476 
L 384.939597 60.839444 
L 385.102822 60.83355 
L 385.266047 61.075939 
L 385.592497 60.757737 
L 385.918947 61.481463 
L 386.898297 60.81351 
L 387.061522 61.029638 
L 387.224747 60.970289 
L 387.387972 60.667404 
L 387.551197 60.898148 
L 388.040872 60.672745 
L 388.367322 61.204491 
L 388.856997 61.713579 
L 389.020222 61.60248 
L 389.183447 61.169956 
L 389.509897 59.964715 
L 389.673122 60.010107 
L 389.836347 60.195116 
L 389.999572 59.929365 
L 390.326022 59.988858 
L 390.489247 60.58212 
L 390.652472 60.26988 
L 390.815697 60.35609 
L 390.978922 60.152023 
L 391.305372 60.034505 
L 391.631822 59.652424 
L 391.795047 59.69188 
L 391.958272 59.542694 
L 392.121497 59.600055 
L 392.447947 60.157109 
L 392.611172 60.352095 
L 392.774397 60.292107 
L 393.100847 59.909513 
L 393.590522 59.322553 
L 393.753747 59.488822 
L 393.916972 60.072297 
L 394.243422 60.467674 
L 394.406647 59.909215 
L 394.733097 60.153828 
L 394.896323 60.017779 
L 395.059548 60.1316 
L 396.202123 59.462691 
L 396.365348 59.589848 
L 396.528573 59.533236 
L 396.691798 59.847617 
L 396.855023 59.882985 
L 397.018248 60.346896 
L 397.344698 60.173249 
L 397.507923 59.833655 
L 397.671148 59.871541 
L 397.997598 60.459817 
L 398.160823 60.167129 
L 398.487273 60.620326 
L 398.487273 60.620326 
" clip-path="url(#p61a6eed3f3)" style="fill: none; stroke: #1f77b4; stroke-width: 1.5; stroke-linecap: square"/>
   </g>
   <g id="line2d_34">
    <path d="M 73.832727 94.79112 
L 74.159177 94.196692 
L 74.322402 94.459709 
L 74.485627 94.456451 
L 74.648852 96.991152 
L 74.975302 97.912103 
L 75.791427 99.218055 
L 75.954652 99.042995 
L 76.607552 99.879649 
L 76.770777 99.949663 
L 77.260452 100.449987 
L 80.035278 102.125072 
L 80.688178 102.337123 
L 81.177853 102.41222 
L 81.504303 102.374287 
L 81.830753 102.36423 
L 82.483653 102.19701 
L 82.973328 102.093873 
L 83.952678 101.957445 
L 84.442353 101.692082 
L 84.605578 101.914558 
L 84.932028 101.866363 
L 85.421703 101.734157 
L 85.748153 101.585573 
L 86.074603 101.660189 
L 86.237828 101.515935 
L 87.053953 101.650951 
L 87.706853 101.555566 
L 88.033303 101.370425 
L 88.196528 101.383692 
L 88.522978 101.299744 
L 88.686203 101.329403 
L 89.012653 101.177781 
L 89.502328 101.263298 
L 89.665553 101.219479 
L 90.155228 101.506228 
L 90.318453 101.29572 
L 90.644903 101.629502 
L 90.808128 101.525946 
L 91.134578 100.887394 
L 91.297803 100.535919 
L 91.461028 100.491541 
L 91.624253 100.206483 
L 91.787478 100.616048 
L 91.950703 100.346015 
L 92.113928 100.514234 
L 92.603603 100.353243 
L 93.093278 99.721517 
L 93.256503 99.403431 
L 93.419729 99.390611 
L 93.582954 99.493122 
L 93.909404 99.32477 
L 94.235854 99.266762 
L 94.399079 99.460312 
L 94.725529 99.320579 
L 94.888754 99.479927 
L 95.051979 99.345283 
L 95.215204 99.505515 
L 95.704879 99.052191 
L 95.868104 98.911467 
L 96.031329 99.165278 
L 96.194554 99.195082 
L 96.357779 99.339689 
L 96.684229 98.907653 
L 97.010679 98.78761 
L 97.500354 98.07471 
L 97.663579 98.154427 
L 97.826804 98.073772 
L 97.990029 98.247158 
L 98.316479 97.820187 
L 98.479704 97.817584 
L 98.642929 97.653753 
L 98.969379 97.743943 
L 99.132604 97.588317 
L 99.295829 97.6094 
L 99.459054 97.972785 
L 99.622279 97.925426 
L 99.948729 97.991365 
L 100.275179 98.112878 
L 100.438404 97.937321 
L 100.601629 97.983793 
L 100.764854 98.221702 
L 100.928079 98.118106 
L 101.254529 97.699111 
L 101.417754 97.758624 
L 101.907429 97.528708 
L 102.070654 97.666213 
L 102.233879 97.657123 
L 102.560329 98.293943 
L 102.886779 98.175526 
L 103.050004 97.794354 
L 103.213229 97.817308 
L 103.376454 97.691373 
L 103.702904 97.797131 
L 103.866129 98.040412 
L 104.192579 98.084298 
L 104.355804 98.24786 
L 104.845479 99.119148 
L 105.008704 99.015973 
L 105.498379 99.338552 
L 105.824829 99.148036 
L 105.988054 99.365647 
L 106.151279 99.225021 
L 106.477729 99.447682 
L 106.967404 99.505931 
L 107.620304 100.489479 
L 108.109979 100.917564 
L 108.273204 100.331309 
L 108.599654 100.728596 
L 108.926104 100.401102 
L 109.252555 100.551285 
L 109.41578 100.845096 
L 109.579005 100.830202 
L 109.74223 101.429261 
L 110.231905 101.027723 
L 110.39513 101.053927 
L 110.558355 101.315026 
L 110.72158 101.302991 
L 110.884805 100.854816 
L 111.37448 100.589636 
L 112.02738 100.908193 
L 112.190605 100.812076 
L 112.35383 101.308518 
L 112.843505 100.777334 
L 113.33318 101.714671 
L 113.496405 101.642683 
L 113.98608 102.402972 
L 114.31253 102.100251 
L 114.475755 101.951899 
L 114.802205 102.166037 
L 115.455105 101.694158 
L 115.61833 101.865106 
L 115.781555 101.825915 
L 116.108005 101.060438 
L 116.434455 100.615076 
L 116.92413 101.397311 
L 117.087355 101.840713 
L 117.25058 101.498337 
L 117.413805 101.47602 
L 117.90348 101.960318 
L 118.393155 103.054346 
L 118.55638 102.845662 
L 118.88283 102.791955 
L 119.046055 102.540477 
L 119.372505 102.935992 
L 119.53573 102.868836 
L 119.698955 103.00142 
L 119.86218 102.976922 
L 120.351855 102.237336 
L 121.004755 102.42489 
L 121.331205 101.641125 
L 121.49443 101.758053 
L 121.657655 101.458028 
L 121.82088 101.706475 
L 121.984105 101.634331 
L 122.14733 101.711463 
L 122.310555 102.014192 
L 122.47378 101.703464 
L 122.637005 102.481561 
L 122.80023 102.195636 
L 123.12668 102.099411 
L 123.289905 101.968841 
L 123.77958 100.901124 
L 123.942805 101.137533 
L 124.10603 101.580888 
L 124.595705 101.273048 
L 124.75893 101.705401 
L 124.922155 101.778848 
L 125.085381 101.273755 
L 125.248606 101.207552 
L 125.411831 100.997459 
L 125.738281 101.059148 
L 125.901506 100.810774 
L 126.064731 100.849909 
L 126.227956 100.275384 
L 126.391181 100.186249 
L 126.554406 100.278447 
L 126.717631 100.716053 
L 127.044081 100.153587 
L 127.207306 99.987241 
L 127.696981 100.504366 
L 127.860206 100.442216 
L 128.186656 99.999859 
L 128.676331 100.458771 
L 128.839556 99.902337 
L 129.166006 99.723569 
L 129.329231 99.921224 
L 129.655681 99.202752 
L 129.982131 98.573576 
L 130.145356 98.16502 
L 130.308581 98.392458 
L 130.471806 98.40361 
L 130.635031 98.263511 
L 130.961481 98.689388 
L 131.124706 98.852221 
L 131.287931 98.578753 
L 131.777606 99.497318 
L 132.267281 99.081139 
L 132.430506 99.144322 
L 132.756956 99.604018 
L 132.920181 99.612574 
L 133.083406 99.468071 
L 133.573081 98.291639 
L 133.736306 98.452442 
L 133.899531 98.774035 
L 134.062756 98.725479 
L 134.225981 98.852071 
L 134.552431 97.921426 
L 134.878881 97.473827 
L 135.042106 97.750711 
L 135.205331 97.618574 
L 135.368556 97.039021 
L 135.531781 97.322608 
L 135.695006 97.085998 
L 135.858231 97.057475 
L 136.021456 97.471876 
L 136.347906 97.222082 
L 136.511131 97.630173 
L 136.674356 97.727023 
L 136.837581 97.486112 
L 137.164031 97.480814 
L 137.327256 97.287834 
L 137.490481 96.871043 
L 137.816931 97.084807 
L 138.306606 96.625114 
L 138.469831 96.615077 
L 138.796281 96.039164 
L 138.959506 96.264656 
L 139.122731 95.748367 
L 139.285956 96.047069 
L 139.449181 95.861032 
L 139.775631 96.518081 
L 140.102081 96.307506 
L 140.265306 96.581392 
L 140.591756 95.691009 
L 140.754981 95.958517 
L 141.081432 95.996978 
L 141.407882 95.460441 
L 141.897557 96.325851 
L 142.060782 96.286898 
L 142.713682 96.61161 
L 143.040132 96.369923 
L 143.203357 96.004477 
L 143.366582 96.400565 
L 143.529807 96.360772 
L 143.693032 96.668384 
L 144.182707 96.536862 
L 144.509157 97.21997 
L 144.672382 97.237017 
L 144.835607 97.453268 
L 145.162057 97.001034 
L 145.325282 96.927786 
L 145.488507 96.706985 
L 145.651732 96.840823 
L 145.814957 96.747672 
L 145.978182 97.214237 
L 146.467857 97.618338 
L 146.631082 97.863476 
L 146.957532 97.111434 
L 147.283982 97.333148 
L 147.610432 96.778176 
L 147.773657 96.943767 
L 148.100107 96.740318 
L 148.263332 96.54277 
L 148.426557 96.721123 
L 148.589782 96.516478 
L 148.753007 97.286631 
L 148.916232 97.450952 
L 149.079457 97.4326 
L 149.242682 97.091163 
L 149.405907 97.359653 
L 149.569132 97.363886 
L 149.732357 97.236664 
L 149.895582 97.623155 
L 150.222032 97.247206 
L 150.385257 96.748308 
L 150.548482 96.817757 
L 150.874932 97.092737 
L 151.038157 96.85795 
L 151.201382 96.973851 
L 151.527832 96.82104 
L 151.691057 96.745765 
L 151.854282 96.931503 
L 152.017507 96.504051 
L 152.180732 96.842195 
L 152.507182 96.490223 
L 152.670407 96.269466 
L 152.833632 96.314168 
L 152.996857 95.907501 
L 153.323307 95.787084 
L 153.486532 95.727296 
L 153.649757 95.936811 
L 153.976207 95.578956 
L 154.139432 95.344475 
L 154.465882 95.450136 
L 154.629107 95.684333 
L 154.955557 95.267797 
L 155.118782 95.541401 
L 155.282007 95.2093 
L 155.608457 95.174148 
L 155.771682 94.726838 
L 155.934907 94.863398 
L 156.261357 94.50127 
L 156.424582 94.783574 
L 156.587807 94.799177 
L 156.914258 94.299918 
L 157.567158 93.493709 
L 157.730383 93.335316 
L 157.893608 93.580449 
L 158.056833 93.267575 
L 158.220058 93.639403 
L 158.709733 93.497699 
L 159.036183 93.229889 
L 159.362633 94.17646 
L 159.525858 94.295194 
L 159.852308 94.171963 
L 160.015533 94.160879 
L 160.178758 93.815204 
L 160.341983 94.03355 
L 160.668433 93.777473 
L 160.831658 93.069348 
L 160.994883 92.999707 
L 161.484558 92.105644 
L 161.974233 92.561368 
L 162.300683 92.181148 
L 163.280033 91.38813 
L 163.443258 91.552571 
L 163.769708 91.394657 
L 163.932933 91.492549 
L 164.912283 90.309267 
L 165.075508 90.357154 
L 165.401958 89.113861 
L 165.565183 88.893605 
L 165.728408 88.9544 
L 165.891633 88.798064 
L 166.054858 88.918287 
L 166.218083 88.824624 
L 166.381308 88.433724 
L 166.544533 88.5165 
L 167.034208 89.289474 
L 167.197433 89.259652 
L 167.360658 89.392969 
L 168.176783 89.30151 
L 168.340008 88.998453 
L 168.503233 89.228115 
L 169.156133 88.422021 
L 169.319358 88.293525 
L 169.482583 88.390678 
L 169.645808 88.192651 
L 169.809033 88.419368 
L 169.972258 88.200952 
L 170.135483 87.635748 
L 170.298708 87.565283 
L 170.625158 87.73588 
L 171.114833 87.296414 
L 171.441283 87.642632 
L 171.604508 87.130217 
L 171.767733 87.424284 
L 172.094183 86.874497 
L 172.257408 86.957618 
L 172.420633 86.88936 
L 172.583858 86.404678 
L 173.073534 86.377785 
L 173.399984 87.20347 
L 173.563209 86.925308 
L 173.726434 87.026192 
L 173.889659 86.954514 
L 174.379334 86.20872 
L 174.542559 86.285407 
L 174.705784 85.893498 
L 174.869009 86.038523 
L 175.032234 85.559236 
L 175.521909 85.412797 
L 175.848359 84.808495 
L 176.338034 84.229152 
L 176.664484 84.267619 
L 176.990934 83.907922 
L 177.317384 84.261528 
L 177.480609 83.956937 
L 177.643834 84.325443 
L 177.807059 84.299088 
L 177.970284 84.889847 
L 178.133509 84.66244 
L 178.296734 84.719303 
L 178.459959 84.401005 
L 178.949634 84.483002 
L 179.276084 84.567538 
L 179.439309 84.375691 
L 179.765759 84.53328 
L 179.928984 84.191051 
L 180.092209 84.370835 
L 180.418659 83.664228 
L 180.745109 84.021621 
L 180.908334 84.116857 
L 181.071559 84.622131 
L 181.234784 84.569698 
L 181.398009 84.649848 
L 181.724459 85.051026 
L 181.887684 85.045124 
L 182.540584 84.482551 
L 182.703809 84.543404 
L 183.030259 85.083502 
L 183.683159 83.128866 
L 183.846384 82.866536 
L 184.009609 83.142609 
L 184.336059 83.033072 
L 184.825734 82.368226 
L 185.152184 82.187751 
L 185.315409 81.939341 
L 185.478634 82.14963 
L 185.805084 82.213625 
L 185.968309 82.373691 
L 186.131534 82.27605 
L 186.294759 82.39015 
L 186.457984 82.340664 
L 186.784434 82.413035 
L 186.947659 82.446314 
L 187.274109 82.261743 
L 188.253459 83.069562 
L 188.416684 83.124811 
L 188.743135 82.973002 
L 188.90636 82.657159 
L 189.069585 83.271658 
L 189.396035 83.05534 
L 189.55926 82.807846 
L 189.722485 82.765943 
L 189.88571 82.580795 
L 190.048935 82.665145 
L 190.375385 82.386561 
L 190.53861 82.364173 
L 190.701835 82.220015 
L 190.86506 82.298707 
L 191.19151 82.151767 
L 191.354735 81.752604 
L 191.51796 81.840268 
L 191.681185 81.55306 
L 191.84441 81.612888 
L 192.17086 81.408723 
L 192.49731 81.02481 
L 192.82376 80.870932 
L 192.986985 80.460178 
L 193.15021 80.712284 
L 193.313435 80.605581 
L 193.639885 80.890484 
L 193.80311 80.654036 
L 193.966335 80.729889 
L 194.12956 80.217685 
L 194.292785 80.411503 
L 194.45601 79.673183 
L 194.619235 79.709672 
L 194.945685 79.281949 
L 195.10891 79.458579 
L 195.76181 78.396066 
L 195.925035 78.629969 
L 196.08826 78.577262 
L 196.251485 78.267616 
L 196.41471 78.306733 
L 196.577935 78.004498 
L 196.904385 77.858345 
L 197.06761 77.370954 
L 197.230835 77.389843 
L 197.39406 76.888078 
L 197.557285 76.90299 
L 197.72051 76.619629 
L 197.883735 77.051592 
L 198.04696 76.950971 
L 198.37341 76.484997 
L 198.69986 76.971853 
L 199.35276 75.868319 
L 199.515985 75.504972 
L 199.67921 75.75136 
L 200.00566 75.453007 
L 200.33211 75.946553 
L 200.495335 75.822776 
L 200.821785 74.81697 
L 201.148235 74.870548 
L 201.474685 74.615477 
L 201.63791 74.275557 
L 201.96436 75.114494 
L 202.127585 75.343929 
L 202.29081 75.295124 
L 202.454035 75.366287 
L 202.61726 75.572634 
L 202.780485 75.589638 
L 202.94371 75.790547 
L 203.106935 75.707768 
L 203.27016 75.817005 
L 203.433385 75.451304 
L 203.759835 75.700954 
L 204.086285 75.167676 
L 204.24951 74.952806 
L 204.412735 75.054662 
L 204.575961 74.774093 
L 205.392086 74.850427 
L 205.555311 74.455829 
L 206.371436 73.915086 
L 206.697886 74.079183 
L 206.861111 74.044741 
L 207.187561 74.216751 
L 207.840461 73.830179 
L 208.166911 74.583597 
L 208.493361 74.128066 
L 208.656586 74.203712 
L 209.146261 74.982329 
L 209.309486 74.670491 
L 209.635936 74.595255 
L 209.799161 74.719889 
L 210.125611 74.049957 
L 210.288836 74.278115 
L 210.615286 74.077765 
L 210.778511 73.642924 
L 211.431411 73.957321 
L 211.594636 73.652715 
L 211.757861 73.673302 
L 211.921086 73.411821 
L 212.247536 73.523432 
L 212.410761 73.78208 
L 212.573986 73.817291 
L 212.737211 74.099576 
L 213.063661 74.920403 
L 213.226886 74.904033 
L 213.553336 75.305718 
L 213.716561 75.096256 
L 213.879786 75.339082 
L 214.043011 75.267902 
L 214.206236 75.399501 
L 214.532686 74.648408 
L 214.859136 75.040904 
L 215.348811 74.826561 
L 216.491386 75.964659 
L 216.817836 75.65185 
L 216.981061 75.720721 
L 217.307511 77.181995 
L 217.470736 77.118929 
L 217.960411 77.053637 
L 218.123636 77.380165 
L 218.613311 76.490627 
L 218.776536 76.860293 
L 219.102986 76.124771 
L 219.429436 75.684416 
L 219.755886 75.770915 
L 219.919111 75.944146 
L 220.245561 75.698614 
L 220.408787 75.914212 
L 220.735237 75.536247 
L 220.898462 75.205512 
L 221.061687 75.619546 
L 221.224912 75.528246 
L 221.551362 75.111688 
L 221.714587 74.964357 
L 222.204262 75.384929 
L 222.530712 75.394939 
L 222.693937 75.177843 
L 223.020387 75.389485 
L 223.183612 75.40191 
L 223.346837 75.241397 
L 223.510062 75.282913 
L 224.162962 76.352895 
L 224.326187 76.346321 
L 224.652637 75.792666 
L 224.979087 76.143839 
L 225.142312 76.188699 
L 225.305537 75.932061 
L 225.468762 75.966893 
L 225.631987 75.70744 
L 225.958437 76.089576 
L 226.448112 75.72873 
L 226.774562 75.753847 
L 226.937787 75.790915 
L 227.264237 76.147935 
L 227.427462 76.107602 
L 227.590687 75.839993 
L 227.753912 75.840379 
L 228.080362 76.391407 
L 228.243587 76.419901 
L 228.406812 76.645967 
L 228.733262 76.320588 
L 228.896487 75.732578 
L 229.059712 76.48725 
L 229.222937 76.594086 
L 229.549387 75.560077 
L 229.712612 75.444413 
L 229.875837 75.593341 
L 230.039062 75.448658 
L 230.365512 75.64622 
L 230.528737 75.159484 
L 230.691962 75.502404 
L 230.855187 75.258726 
L 231.018412 75.446634 
L 231.181637 75.314413 
L 231.344862 75.460263 
L 231.671312 75.019777 
L 232.160987 75.36749 
L 232.324212 75.136468 
L 232.650662 74.371554 
L 232.813887 74.449483 
L 232.977112 74.314025 
L 233.140337 74.364873 
L 233.630012 73.655531 
L 233.793237 72.677727 
L 234.282912 73.054775 
L 234.609362 72.612243 
L 235.099037 73.095109 
L 235.262262 72.442031 
L 235.425487 72.545191 
L 235.751937 72.438181 
L 236.078387 73.011097 
L 236.241613 73.039988 
L 236.894513 72.600046 
L 237.384188 72.827363 
L 237.710638 72.594623 
L 238.037088 72.709788 
L 238.200313 73.019204 
L 238.363538 72.919718 
L 238.526763 72.535809 
L 238.689988 72.593018 
L 239.016438 72.265121 
L 239.179663 72.540389 
L 239.342888 72.215955 
L 239.506113 72.247733 
L 239.669338 72.669169 
L 239.995788 72.52646 
L 240.485463 71.657424 
L 240.975138 71.892963 
L 241.464813 71.85856 
L 241.954488 71.677219 
L 242.280938 71.940053 
L 242.444163 71.73644 
L 242.607388 71.722959 
L 242.770613 71.368407 
L 242.933838 72.311879 
L 243.260288 71.951057 
L 243.423513 72.083337 
L 243.586738 71.871812 
L 243.749963 71.903519 
L 244.239638 71.679252 
L 244.402863 71.196574 
L 244.729313 71.064806 
L 244.892538 71.211359 
L 245.055763 71.102736 
L 245.218988 71.531367 
L 245.382213 71.640802 
L 245.545438 70.664532 
L 245.708663 70.509491 
L 246.688013 70.892417 
L 246.851238 70.643109 
L 247.014463 70.67973 
L 247.177688 70.319488 
L 247.504138 70.635108 
L 247.667363 70.598589 
L 247.830588 70.186428 
L 248.320263 70.816835 
L 248.483488 70.431472 
L 248.646713 70.377252 
L 248.809938 70.497613 
L 248.973163 70.432746 
L 249.136388 70.544208 
L 249.299613 70.306778 
L 249.462838 70.577384 
L 249.626063 70.453252 
L 249.789288 70.688683 
L 249.952513 70.381896 
L 250.115738 70.681418 
L 250.605413 70.338142 
L 250.931863 70.656229 
L 251.095088 70.666202 
L 251.584763 70.24289 
L 251.747988 70.483455 
L 251.911213 70.338757 
L 252.237664 70.464412 
L 252.400889 70.352884 
L 252.727339 69.983935 
L 252.890564 70.112538 
L 253.380239 70.115567 
L 253.543464 70.168788 
L 253.706689 70.567496 
L 254.196364 70.161647 
L 254.522814 70.504875 
L 254.849264 70.547917 
L 255.175714 70.340634 
L 255.502164 70.909059 
L 255.665389 70.836254 
L 255.828614 70.887041 
L 256.318289 70.146135 
L 256.481514 70.150141 
L 256.644739 70.030323 
L 256.807964 70.136879 
L 256.971189 69.857032 
L 257.134414 70.083627 
L 257.297639 69.970214 
L 257.787314 70.112521 
L 257.950539 70.291354 
L 258.113764 70.000167 
L 258.276989 70.008071 
L 258.440214 70.133783 
L 258.603439 69.825925 
L 258.766664 69.864887 
L 258.929889 70.029607 
L 259.093114 69.811579 
L 259.256339 69.943283 
L 259.419564 68.992461 
L 259.582789 69.254447 
L 259.746014 69.257523 
L 259.909239 69.095065 
L 260.072464 69.116868 
L 260.235689 68.942045 
L 260.562139 69.113126 
L 260.725364 69.089342 
L 261.051814 69.701885 
L 261.378264 69.407081 
L 261.541489 69.47776 
L 261.867939 69.229716 
L 262.684064 69.562981 
L 262.847289 69.377465 
L 263.010514 69.535856 
L 263.173739 69.331846 
L 263.336964 69.440805 
L 263.500189 69.358431 
L 264.153089 68.37429 
L 264.316314 68.661494 
L 264.479539 68.684581 
L 264.642764 68.274042 
L 264.969214 68.944051 
L 265.132439 69.050178 
L 265.295664 68.988761 
L 265.458889 69.109796 
L 265.622114 68.741154 
L 265.785339 69.095176 
L 265.948564 68.990616 
L 266.111789 69.361927 
L 266.275014 69.096756 
L 266.438239 69.322954 
L 266.601464 68.958495 
L 266.764689 69.217376 
L 267.091139 69.337843 
L 267.254364 69.078289 
L 267.417589 69.118863 
L 267.744039 69.632636 
L 267.907265 69.743858 
L 268.07049 69.50341 
L 268.233715 69.593065 
L 268.72339 69.470134 
L 268.886615 68.937488 
L 269.04984 68.821261 
L 269.213065 68.848573 
L 269.539515 68.622281 
L 269.70274 68.876459 
L 269.865965 68.920084 
L 270.192415 68.33142 
L 270.518865 68.377649 
L 270.845315 67.837453 
L 271.00854 67.809613 
L 271.33499 67.425208 
L 271.66144 67.770046 
L 271.824665 67.778794 
L 272.31434 67.038786 
L 272.477565 67.256478 
L 272.64079 67.886722 
L 273.456915 68.000407 
L 273.62014 67.588048 
L 273.783365 67.794702 
L 274.27304 67.023318 
L 274.436265 66.596442 
L 274.59949 66.940727 
L 274.92594 66.61692 
L 275.089165 66.874339 
L 275.25239 66.817711 
L 275.415615 67.309286 
L 275.57884 67.08854 
L 275.742065 67.613121 
L 275.90529 67.52867 
L 276.068515 67.274307 
L 276.394965 67.774662 
L 276.55819 67.78898 
L 276.88464 67.561397 
L 277.047865 67.850037 
L 277.374315 67.604061 
L 277.53754 67.292679 
L 277.700765 67.317658 
L 277.86399 67.227423 
L 278.027215 67.594103 
L 278.19044 67.390633 
L 278.353665 67.50992 
L 278.680115 67.315293 
L 279.006565 66.950736 
L 279.16979 67.051075 
L 279.333015 66.844794 
L 279.49624 66.90264 
L 279.659465 67.130721 
L 279.82269 67.154546 
L 280.14914 67.552914 
L 280.312365 67.493153 
L 280.638815 68.019607 
L 280.965265 67.847248 
L 281.12849 68.150751 
L 281.45494 67.352623 
L 281.618165 67.266626 
L 281.944615 67.522341 
L 282.10784 67.974766 
L 282.597515 67.439464 
L 282.923965 67.350237 
L 283.08719 67.253744 
L 283.250415 67.366153 
L 283.576865 67.10451 
L 283.74009 67.29619 
L 284.229766 66.199757 
L 284.556216 66.3408 
L 285.045891 66.335931 
L 285.209116 66.091143 
L 285.372341 66.405487 
L 285.698791 66.227844 
L 285.862016 66.385593 
L 286.025241 66.837542 
L 286.351691 66.521252 
L 286.514916 66.911657 
L 286.841366 66.711282 
L 287.004591 66.474823 
L 287.167816 67.298481 
L 287.494266 67.320752 
L 287.657491 67.569516 
L 288.147166 67.172204 
L 288.310391 67.319953 
L 288.473616 67.161704 
L 288.800066 67.649622 
L 288.963291 67.392796 
L 289.126516 66.878934 
L 289.616191 67.215839 
L 289.942641 66.591857 
L 290.269091 66.408881 
L 291.085216 67.114832 
L 291.248441 67.247007 
L 291.411666 67.107326 
L 291.574891 66.682121 
L 291.738116 66.722107 
L 291.901341 65.933105 
L 292.064566 65.932623 
L 292.227791 65.275298 
L 292.391016 65.625666 
L 292.717466 65.086164 
L 293.043916 64.689107 
L 293.207141 65.102373 
L 293.370366 64.926275 
L 293.533591 64.50823 
L 293.696816 64.620881 
L 294.023266 64.376659 
L 294.349716 64.597065 
L 294.512941 64.138378 
L 294.839391 64.391448 
L 295.002616 64.59849 
L 295.165841 64.544511 
L 295.492291 64.298181 
L 295.655516 64.227684 
L 295.818741 64.333487 
L 295.981966 64.762551 
L 296.471641 64.066077 
L 296.798091 64.560436 
L 296.961316 64.143751 
L 297.124541 64.141113 
L 297.287766 64.440231 
L 297.450991 64.16227 
L 297.614216 64.138506 
L 297.777441 64.245313 
L 298.103891 64.036995 
L 298.267116 64.186228 
L 298.430341 64.113694 
L 298.593566 64.213479 
L 298.756791 64.167662 
L 298.920016 64.302121 
L 299.246466 63.954945 
L 299.409691 63.815136 
L 299.572916 64.078835 
L 299.899367 63.884884 
L 300.062592 64.068125 
L 300.225817 63.869258 
L 300.389042 64.0219 
L 300.552267 63.965585 
L 300.715492 64.030461 
L 301.368392 63.577866 
L 302.021292 64.565147 
L 302.347742 64.402917 
L 302.510967 63.948579 
L 302.674192 64.014415 
L 302.837417 63.952991 
L 303.000642 63.722937 
L 303.163867 63.786923 
L 303.327092 63.6322 
L 303.490317 63.750337 
L 303.653542 63.095726 
L 303.816767 63.428445 
L 303.979992 63.468984 
L 304.143217 63.019672 
L 304.306442 63.269683 
L 304.469667 63.137027 
L 304.632892 63.202503 
L 304.796117 62.748781 
L 304.959342 62.739133 
L 305.122567 62.516376 
L 305.449017 62.947645 
L 305.938692 62.344105 
L 306.754817 63.036371 
L 307.244492 62.067706 
L 307.407717 62.266023 
L 307.734167 61.896803 
L 307.897392 62.077279 
L 308.060617 62.464506 
L 308.223842 62.379547 
L 308.713517 63.261964 
L 308.876742 62.990395 
L 309.203192 62.904883 
L 309.366417 63.112054 
L 309.529642 63.551745 
L 309.692867 63.146626 
L 309.856092 63.602431 
L 310.019317 63.655244 
L 310.345767 63.440343 
L 310.508992 63.575128 
L 310.672217 63.504346 
L 310.998667 63.061284 
L 311.325117 62.759676 
L 311.488342 62.47099 
L 311.651567 62.429374 
L 311.814792 62.918662 
L 311.978017 62.946342 
L 312.141242 63.098045 
L 312.304467 63.460055 
L 312.467692 62.761287 
L 313.120592 63.080212 
L 313.283817 62.865793 
L 313.447042 63.236845 
L 313.773492 62.982192 
L 313.936717 63.141692 
L 314.426392 62.873494 
L 314.589617 62.709185 
L 315.079292 61.508857 
L 315.568968 61.281315 
L 315.732193 61.385139 
L 315.895418 61.790317 
L 316.221868 61.743229 
L 316.385093 62.047164 
L 316.548318 61.761665 
L 316.874768 62.005087 
L 317.037993 62.515895 
L 317.364443 62.175784 
L 317.527668 62.002258 
L 317.690893 62.231135 
L 317.854118 62.153514 
L 318.507018 61.186594 
L 318.670243 61.227417 
L 318.833468 61.085512 
L 319.159918 61.211509 
L 319.649593 61.217533 
L 319.976043 61.579873 
L 320.139268 61.524662 
L 320.302493 60.98988 
L 320.465718 60.850045 
L 320.628943 61.123418 
L 320.792168 60.888357 
L 321.118618 60.972706 
L 321.608293 60.950209 
L 321.771518 60.60935 
L 322.097968 61.388898 
L 322.261193 61.332654 
L 322.424418 61.485118 
L 322.750868 60.817805 
L 323.077318 61.275727 
L 323.240543 60.887912 
L 323.730218 61.229675 
L 324.056668 61.056646 
L 324.219893 61.040764 
L 324.383118 61.623812 
L 324.546343 61.311741 
L 324.709568 61.507019 
L 324.872793 61.207636 
L 325.036018 61.352187 
L 325.199243 61.279255 
L 325.688918 61.509028 
L 326.015368 61.246152 
L 326.178593 61.493043 
L 326.341818 61.217757 
L 327.321168 61.395301 
L 327.484393 61.820473 
L 327.810843 61.743414 
L 328.137293 62.315646 
L 328.300518 62.235429 
L 329.443093 62.496567 
L 329.606318 62.295833 
L 329.769543 62.297107 
L 329.932768 62.061557 
L 330.095993 62.589024 
L 330.422443 62.216095 
L 331.075343 62.54378 
L 332.054694 64.13749 
L 332.217919 64.011918 
L 332.381144 63.557663 
L 332.707594 63.63998 
L 332.870819 63.47916 
L 333.034044 63.665676 
L 333.197269 63.48971 
L 333.360494 63.620183 
L 333.523719 63.522438 
L 333.686944 63.58798 
L 333.850169 63.779875 
L 334.013394 64.424784 
L 334.339844 64.0175 
L 334.503069 64.08555 
L 334.666294 64.508102 
L 335.155969 64.653624 
L 335.319194 64.946932 
L 335.482419 64.584371 
L 336.298544 64.235402 
L 336.461769 64.230153 
L 337.114669 64.6973 
L 337.277894 64.426988 
L 337.441119 64.790117 
L 338.257244 65.000595 
L 338.420469 64.888455 
L 338.583694 64.587402 
L 338.746919 64.805019 
L 338.910144 64.807356 
L 339.236594 65.342438 
L 339.399819 65.104247 
L 339.889494 65.279374 
L 340.052719 65.173184 
L 340.215944 65.469959 
L 340.705619 65.426992 
L 340.868844 64.589389 
L 341.032069 64.929781 
L 341.358519 64.531789 
L 342.011419 64.644377 
L 342.174644 64.964269 
L 342.501094 64.841711 
L 342.664319 64.651074 
L 342.827544 64.703716 
L 342.990769 64.960766 
L 343.970119 64.804357 
L 344.296569 65.085957 
L 344.459794 64.760802 
L 344.623019 65.071706 
L 344.949469 64.739803 
L 345.275919 63.896868 
L 345.602369 64.670284 
L 345.928819 64.932561 
L 346.092044 64.661314 
L 346.418494 64.963663 
L 346.581719 64.311328 
L 346.908169 64.499978 
L 347.234619 64.078522 
L 347.56107 64.649498 
L 347.724295 64.540918 
L 348.377195 63.443536 
L 348.54042 63.636754 
L 348.86687 64.184181 
L 349.356545 64.16321 
L 349.51977 63.948958 
L 349.682995 64.091503 
L 350.009445 63.785168 
L 350.17267 63.750776 
L 350.662345 62.703503 
L 350.988795 63.263703 
L 351.15202 62.771321 
L 351.641695 63.039027 
L 351.80492 62.828773 
L 352.13137 63.231234 
L 352.294595 63.112912 
L 352.45782 63.296863 
L 352.621045 63.176424 
L 352.947495 63.254322 
L 353.11072 63.196463 
L 353.273945 63.279119 
L 353.76362 64.012566 
L 353.926845 63.71732 
L 354.09007 63.662596 
L 354.253295 63.914132 
L 354.74297 63.890764 
L 354.906195 63.441077 
L 355.232645 63.395927 
L 355.559095 63.371988 
L 356.04877 62.847531 
L 356.211995 62.70729 
L 356.538445 63.575573 
L 356.70167 63.219231 
L 357.191345 63.518217 
L 357.35457 63.959719 
L 357.517795 63.609806 
L 357.844245 63.533078 
L 358.170695 63.114967 
L 358.33392 63.059712 
L 358.497145 62.833063 
L 358.66037 62.268934 
L 358.98682 62.20935 
L 359.31327 62.740631 
L 359.476495 62.343288 
L 360.129395 62.149493 
L 360.29262 62.519726 
L 360.455845 62.372229 
L 360.782295 62.454364 
L 360.94552 62.887587 
L 361.27197 62.186899 
L 361.435195 62.82768 
L 361.59842 62.78443 
L 361.761645 62.904177 
L 362.414545 61.670914 
L 362.57777 61.618078 
L 362.740995 61.733872 
L 363.067445 61.544798 
L 363.230671 61.602766 
L 363.393896 61.509222 
L 363.557121 61.634361 
L 363.720346 61.582145 
L 364.046796 61.299304 
L 364.210021 61.299419 
L 364.536471 62.476055 
L 364.699696 62.397176 
L 365.026146 62.816854 
L 365.189371 62.430582 
L 365.352596 62.863376 
L 365.515821 62.530134 
L 365.842271 62.785168 
L 366.168721 63.438887 
L 366.331946 63.351425 
L 366.495171 63.130041 
L 367.311296 63.873909 
L 367.637746 63.337007 
L 367.800971 63.183615 
L 368.127421 63.173379 
L 368.290646 63.525868 
L 368.617096 63.165525 
L 368.943546 63.384412 
L 369.106771 63.571272 
L 369.433221 63.386858 
L 369.596446 63.493493 
L 369.922896 63.152145 
L 370.086121 63.008098 
L 370.249346 63.288052 
L 370.412571 63.225859 
L 370.739021 63.733326 
L 370.902246 63.69453 
L 371.065471 63.78822 
L 371.228696 63.578038 
L 371.555146 64.159351 
L 371.718371 64.051119 
L 371.881596 64.221361 
L 372.044821 64.088961 
L 372.208046 64.364961 
L 372.371271 64.353593 
L 372.534496 64.107573 
L 372.860946 64.872533 
L 373.024171 64.746829 
L 373.350621 65.166326 
L 373.513846 65.121862 
L 373.677071 64.93617 
L 373.840296 64.576758 
L 374.003521 64.609359 
L 374.493196 65.331763 
L 374.656421 65.425065 
L 374.819646 65.385687 
L 375.146096 65.835061 
L 375.309321 65.863822 
L 375.472546 65.659653 
L 375.635771 65.233699 
L 375.798996 65.209047 
L 376.125446 65.38747 
L 376.451896 65.839188 
L 376.615121 65.665865 
L 376.778346 65.203346 
L 376.941571 65.127629 
L 377.104796 65.229309 
L 377.431246 64.900231 
L 377.594471 65.029686 
L 377.757696 65.470867 
L 377.920921 65.399829 
L 378.247371 66.034544 
L 378.573821 65.793283 
L 379.063497 66.937573 
L 379.389947 66.590734 
L 379.553172 66.885022 
L 379.716397 66.897856 
L 380.042847 66.641982 
L 380.369297 67.343186 
L 381.022197 66.120361 
L 381.185422 66.229093 
L 381.348647 66.025356 
L 381.511872 65.371939 
L 382.001547 65.705002 
L 382.164772 65.737599 
L 382.654447 64.942347 
L 382.980897 65.056195 
L 383.144122 65.053259 
L 383.307347 65.209365 
L 383.633797 65.836051 
L 383.797022 65.89181 
L 383.960247 66.067908 
L 384.286697 66.727298 
L 384.449922 66.674835 
L 384.613147 66.990258 
L 384.776372 66.444592 
L 385.429272 67.138785 
L 385.592497 66.777821 
L 385.918947 67.087703 
L 386.408622 66.998358 
L 386.571847 67.176941 
L 386.735072 66.843465 
L 386.898297 67.098336 
L 387.061522 67.050211 
L 387.224747 66.681716 
L 387.387972 66.729806 
L 387.551197 66.294309 
L 387.714422 66.373124 
L 388.040872 66.206873 
L 388.367322 66.537284 
L 388.693772 67.256858 
L 388.856997 67.156087 
L 389.020222 67.302828 
L 389.346672 66.54002 
L 389.673122 65.83467 
L 389.836347 65.770608 
L 390.162797 66.079558 
L 390.489247 66.658814 
L 390.652472 66.410721 
L 390.815697 66.424729 
L 391.142147 66.17256 
L 391.795047 66.914396 
L 391.958272 67.519375 
L 392.611172 67.97969 
L 392.937622 67.897304 
L 393.100847 67.982625 
L 393.264072 68.408592 
L 393.427297 68.518814 
L 393.590522 68.353449 
L 393.916972 68.489752 
L 394.080197 68.52073 
L 394.243422 68.417675 
L 394.406647 67.998032 
L 394.569872 68.078866 
L 394.733097 67.643798 
L 394.896323 67.755251 
L 395.059548 68.044909 
L 395.385998 67.720335 
L 395.712448 67.34074 
L 396.202123 67.142802 
L 396.365348 67.562396 
L 396.855023 67.270767 
L 397.018248 67.791981 
L 397.507923 67.246287 
L 397.997598 68.66031 
L 398.160823 68.772008 
L 398.324048 68.094266 
L 398.487273 68.365855 
L 398.487273 68.365855 
" clip-path="url(#p61a6eed3f3)" style="fill: none; stroke: #ff7f0e; stroke-width: 1.5; stroke-linecap: square"/>
   </g>
   <g id="patch_3">
    <path d="M 57.6 307.584 
L 57.6 41.472 
" style="fill: none; stroke: #000000; stroke-width: 0.8; stroke-linejoin: miter; stroke-linecap: square"/>
   </g>
   <g id="patch_4">
    <path d="M 414.72 307.584 
L 414.72 41.472 
" style="fill: none; stroke: #000000; stroke-width: 0.8; stroke-linejoin: miter; stroke-linecap: square"/>
   </g>
   <g id="patch_5">
    <path d="M 57.6 307.584 
L 414.72 307.584 
" style="fill: none; stroke: #000000; stroke-width: 0.8; stroke-linejoin: miter; stroke-linecap: square"/>
   </g>
   <g id="patch_6">
    <path d="M 57.6 41.472 
L 414.72 41.472 
" style="fill: none; stroke: #000000; stroke-width: 0.8; stroke-linejoin: miter; stroke-linecap: square"/>
   </g>
   <g id="text_19">
    <!-- Rolling average training progress of profits/by_selling_refurbished -->
    <g transform="translate(38.766562 35.472)scale(0.12 -0.12)">
     <defs>
      <path id="DejaVuSans-52" d="M 2841 2188 
Q 3044 2119 3236 1894 
Q 3428 1669 3622 1275 
L 4263 0 
L 3584 0 
L 2988 1197 
Q 2756 1666 2539 1819 
Q 2322 1972 1947 1972 
L 1259 1972 
L 1259 0 
L 628 0 
L 628 4666 
L 2053 4666 
Q 2853 4666 3247 4331 
Q 3641 3997 3641 3322 
Q 3641 2881 3436 2590 
Q 3231 2300 2841 2188 
z
M 1259 4147 
L 1259 2491 
L 2053 2491 
Q 2509 2491 2742 2702 
Q 2975 2913 2975 3322 
Q 2975 3731 2742 3939 
Q 2509 4147 2053 4147 
L 1259 4147 
z
" transform="scale(0.015625)"/>
      <path id="DejaVuSans-20" transform="scale(0.015625)"/>
      <path id="DejaVuSans-61" d="M 2194 1759 
Q 1497 1759 1228 1600 
Q 959 1441 959 1056 
Q 959 750 1161 570 
Q 1363 391 1709 391 
Q 2188 391 2477 730 
Q 2766 1069 2766 1631 
L 2766 1759 
L 2194 1759 
z
M 3341 1997 
L 3341 0 
L 2766 0 
L 2766 531 
Q 2569 213 2275 61 
Q 1981 -91 1556 -91 
Q 1019 -91 701 211 
Q 384 513 384 1019 
Q 384 1609 779 1909 
Q 1175 2209 1959 2209 
L 2766 2209 
L 2766 2266 
Q 2766 2663 2505 2880 
Q 2244 3097 1772 3097 
Q 1472 3097 1187 3025 
Q 903 2953 641 2809 
L 641 3341 
Q 956 3463 1253 3523 
Q 1550 3584 1831 3584 
Q 2591 3584 2966 3190 
Q 3341 2797 3341 1997 
z
" transform="scale(0.015625)"/>
      <path id="DejaVuSans-76" d="M 191 3500 
L 800 3500 
L 1894 563 
L 2988 3500 
L 3597 3500 
L 2284 0 
L 1503 0 
L 191 3500 
z
" transform="scale(0.015625)"/>
     </defs>
     <use xlink:href="#DejaVuSans-52"/>
     <use xlink:href="#DejaVuSans-6f" x="64.982422"/>
     <use xlink:href="#DejaVuSans-6c" x="126.164062"/>
     <use xlink:href="#DejaVuSans-6c" x="153.947266"/>
     <use xlink:href="#DejaVuSans-69" x="181.730469"/>
     <use xlink:href="#DejaVuSans-6e" x="209.513672"/>
     <use xlink:href="#DejaVuSans-67" x="272.892578"/>
     <use xlink:href="#DejaVuSans-20" x="336.369141"/>
     <use xlink:href="#DejaVuSans-61" x="368.15625"/>
     <use xlink:href="#DejaVuSans-76" x="429.435547"/>
     <use xlink:href="#DejaVuSans-65" x="488.615234"/>
     <use xlink:href="#DejaVuSans-72" x="550.138672"/>
     <use xlink:href="#DejaVuSans-61" x="591.251953"/>
     <use xlink:href="#DejaVuSans-67" x="652.53125"/>
     <use xlink:href="#DejaVuSans-65" x="716.007812"/>
     <use xlink:href="#DejaVuSans-20" x="777.53125"/>
     <use xlink:href="#DejaVuSans-74" x="809.318359"/>
     <use xlink:href="#DejaVuSans-72" x="848.527344"/>
     <use xlink:href="#DejaVuSans-61" x="889.640625"/>
     <use xlink:href="#DejaVuSans-69" x="950.919922"/>
     <use xlink:href="#DejaVuSans-6e" x="978.703125"/>
     <use xlink:href="#DejaVuSans-69" x="1042.082031"/>
     <use xlink:href="#DejaVuSans-6e" x="1069.865234"/>
     <use xlink:href="#DejaVuSans-67" x="1133.244141"/>
     <use xlink:href="#DejaVuSans-20" x="1196.720703"/>
     <use xlink:href="#DejaVuSans-70" x="1228.507812"/>
     <use xlink:href="#DejaVuSans-72" x="1291.984375"/>
     <use xlink:href="#DejaVuSans-6f" x="1330.847656"/>
     <use xlink:href="#DejaVuSans-67" x="1392.029297"/>
     <use xlink:href="#DejaVuSans-72" x="1455.505859"/>
     <use xlink:href="#DejaVuSans-65" x="1494.369141"/>
     <use xlink:href="#DejaVuSans-73" x="1555.892578"/>
     <use xlink:href="#DejaVuSans-73" x="1607.992188"/>
     <use xlink:href="#DejaVuSans-20" x="1660.091797"/>
     <use xlink:href="#DejaVuSans-6f" x="1691.878906"/>
     <use xlink:href="#DejaVuSans-66" x="1753.060547"/>
     <use xlink:href="#DejaVuSans-20" x="1788.265625"/>
     <use xlink:href="#DejaVuSans-70" x="1820.052734"/>
     <use xlink:href="#DejaVuSans-72" x="1883.529297"/>
     <use xlink:href="#DejaVuSans-6f" x="1922.392578"/>
     <use xlink:href="#DejaVuSans-66" x="1983.574219"/>
     <use xlink:href="#DejaVuSans-69" x="2018.779297"/>
     <use xlink:href="#DejaVuSans-74" x="2046.5625"/>
     <use xlink:href="#DejaVuSans-73" x="2085.771484"/>
     <use xlink:href="#DejaVuSans-2f" x="2137.871094"/>
     <use xlink:href="#DejaVuSans-62" x="2171.5625"/>
     <use xlink:href="#DejaVuSans-79" x="2235.039062"/>
     <use xlink:href="#DejaVuSans-5f" x="2294.21875"/>
     <use xlink:href="#DejaVuSans-73" x="2344.21875"/>
     <use xlink:href="#DejaVuSans-65" x="2396.318359"/>
     <use xlink:href="#DejaVuSans-6c" x="2457.841797"/>
     <use xlink:href="#DejaVuSans-6c" x="2485.625"/>
     <use xlink:href="#DejaVuSans-69" x="2513.408203"/>
     <use xlink:href="#DejaVuSans-6e" x="2541.191406"/>
     <use xlink:href="#DejaVuSans-67" x="2604.570312"/>
     <use xlink:href="#DejaVuSans-5f" x="2668.046875"/>
     <use xlink:href="#DejaVuSans-72" x="2718.046875"/>
     <use xlink:href="#DejaVuSans-65" x="2756.910156"/>
     <use xlink:href="#DejaVuSans-66" x="2818.433594"/>
     <use xlink:href="#DejaVuSans-75" x="2853.638672"/>
     <use xlink:href="#DejaVuSans-72" x="2917.017578"/>
     <use xlink:href="#DejaVuSans-62" x="2958.130859"/>
     <use xlink:href="#DejaVuSans-69" x="3021.607422"/>
     <use xlink:href="#DejaVuSans-73" x="3049.390625"/>
     <use xlink:href="#DejaVuSans-68" x="3101.490234"/>
     <use xlink:href="#DejaVuSans-65" x="3164.869141"/>
     <use xlink:href="#DejaVuSans-64" x="3226.392578"/>
    </g>
   </g>
   <g id="legend_1">
    <g id="patch_7">
     <path d="M 188.2825 302.584 
L 407.72 302.584 
Q 409.72 302.584 409.72 300.584 
L 409.72 272.22775 
Q 409.72 270.22775 407.72 270.22775 
L 188.2825 270.22775 
Q 186.2825 270.22775 186.2825 272.22775 
L 186.2825 300.584 
Q 186.2825 302.584 188.2825 302.584 
z
" style="fill: #ffffff; opacity: 0.8; stroke: #cccccc; stroke-linejoin: miter"/>
    </g>
    <g id="line2d_35">
     <path d="M 190.2825 278.326187 
L 200.2825 278.326187 
L 210.2825 278.326187 
" style="fill: none; stroke: #1f77b4; stroke-width: 1.5; stroke-linecap: square"/>
    </g>
    <g id="text_20">
     <!-- StableBaselinesSAC -->
     <g transform="translate(218.2825 281.826187)scale(0.1 -0.1)">
      <defs>
       <path id="DejaVuSans-53" d="M 3425 4513 
L 3425 3897 
Q 3066 4069 2747 4153 
Q 2428 4238 2131 4238 
Q 1616 4238 1336 4038 
Q 1056 3838 1056 3469 
Q 1056 3159 1242 3001 
Q 1428 2844 1947 2747 
L 2328 2669 
Q 3034 2534 3370 2195 
Q 3706 1856 3706 1288 
Q 3706 609 3251 259 
Q 2797 -91 1919 -91 
Q 1588 -91 1214 -16 
Q 841 59 441 206 
L 441 856 
Q 825 641 1194 531 
Q 1563 422 1919 422 
Q 2459 422 2753 634 
Q 3047 847 3047 1241 
Q 3047 1584 2836 1778 
Q 2625 1972 2144 2069 
L 1759 2144 
Q 1053 2284 737 2584 
Q 422 2884 422 3419 
Q 422 4038 858 4394 
Q 1294 4750 2059 4750 
Q 2388 4750 2728 4690 
Q 3069 4631 3425 4513 
z
" transform="scale(0.015625)"/>
       <path id="DejaVuSans-42" d="M 1259 2228 
L 1259 519 
L 2272 519 
Q 2781 519 3026 730 
Q 3272 941 3272 1375 
Q 3272 1813 3026 2020 
Q 2781 2228 2272 2228 
L 1259 2228 
z
M 1259 4147 
L 1259 2741 
L 2194 2741 
Q 2656 2741 2882 2914 
Q 3109 3088 3109 3444 
Q 3109 3797 2882 3972 
Q 2656 4147 2194 4147 
L 1259 4147 
z
M 628 4666 
L 2241 4666 
Q 2963 4666 3353 4366 
Q 3744 4066 3744 3513 
Q 3744 3084 3544 2831 
Q 3344 2578 2956 2516 
Q 3422 2416 3680 2098 
Q 3938 1781 3938 1306 
Q 3938 681 3513 340 
Q 3088 0 2303 0 
L 628 0 
L 628 4666 
z
" transform="scale(0.015625)"/>
       <path id="DejaVuSans-41" d="M 2188 4044 
L 1331 1722 
L 3047 1722 
L 2188 4044 
z
M 1831 4666 
L 2547 4666 
L 4325 0 
L 3669 0 
L 3244 1197 
L 1141 1197 
L 716 0 
L 50 0 
L 1831 4666 
z
" transform="scale(0.015625)"/>
       <path id="DejaVuSans-43" d="M 4122 4306 
L 4122 3641 
Q 3803 3938 3442 4084 
Q 3081 4231 2675 4231 
Q 1875 4231 1450 3742 
Q 1025 3253 1025 2328 
Q 1025 1406 1450 917 
Q 1875 428 2675 428 
Q 3081 428 3442 575 
Q 3803 722 4122 1019 
L 4122 359 
Q 3791 134 3420 21 
Q 3050 -91 2638 -91 
Q 1578 -91 968 557 
Q 359 1206 359 2328 
Q 359 3453 968 4101 
Q 1578 4750 2638 4750 
Q 3056 4750 3426 4639 
Q 3797 4528 4122 4306 
z
" transform="scale(0.015625)"/>
      </defs>
      <use xlink:href="#DejaVuSans-53"/>
      <use xlink:href="#DejaVuSans-74" x="63.476562"/>
      <use xlink:href="#DejaVuSans-61" x="102.685547"/>
      <use xlink:href="#DejaVuSans-62" x="163.964844"/>
      <use xlink:href="#DejaVuSans-6c" x="227.441406"/>
      <use xlink:href="#DejaVuSans-65" x="255.224609"/>
      <use xlink:href="#DejaVuSans-42" x="316.748047"/>
      <use xlink:href="#DejaVuSans-61" x="385.351562"/>
      <use xlink:href="#DejaVuSans-73" x="446.630859"/>
      <use xlink:href="#DejaVuSans-65" x="498.730469"/>
      <use xlink:href="#DejaVuSans-6c" x="560.253906"/>
      <use xlink:href="#DejaVuSans-69" x="588.037109"/>
      <use xlink:href="#DejaVuSans-6e" x="615.820312"/>
      <use xlink:href="#DejaVuSans-65" x="679.199219"/>
      <use xlink:href="#DejaVuSans-73" x="740.722656"/>
      <use xlink:href="#DejaVuSans-53" x="792.822266"/>
      <use xlink:href="#DejaVuSans-41" x="858.173828"/>
      <use xlink:href="#DejaVuSans-43" x="924.832031"/>
     </g>
    </g>
    <g id="line2d_36">
     <path d="M 190.2825 293.004312 
L 200.2825 293.004312 
L 210.2825 293.004312 
" style="fill: none; stroke: #ff7f0e; stroke-width: 1.5; stroke-linecap: square"/>
    </g>
    <g id="text_21">
     <!-- RuleBasedCERebuyAgentCompetitive -->
     <g transform="translate(218.2825 296.504312)scale(0.1 -0.1)">
      <defs>
       <path id="DejaVuSans-6d" d="M 3328 2828 
Q 3544 3216 3844 3400 
Q 4144 3584 4550 3584 
Q 5097 3584 5394 3201 
Q 5691 2819 5691 2113 
L 5691 0 
L 5113 0 
L 5113 2094 
Q 5113 2597 4934 2840 
Q 4756 3084 4391 3084 
Q 3944 3084 3684 2787 
Q 3425 2491 3425 1978 
L 3425 0 
L 2847 0 
L 2847 2094 
Q 2847 2600 2669 2842 
Q 2491 3084 2119 3084 
Q 1678 3084 1418 2786 
Q 1159 2488 1159 1978 
L 1159 0 
L 581 0 
L 581 3500 
L 1159 3500 
L 1159 2956 
Q 1356 3278 1631 3431 
Q 1906 3584 2284 3584 
Q 2666 3584 2933 3390 
Q 3200 3197 3328 2828 
z
" transform="scale(0.015625)"/>
      </defs>
      <use xlink:href="#DejaVuSans-52"/>
      <use xlink:href="#DejaVuSans-75" x="64.982422"/>
      <use xlink:href="#DejaVuSans-6c" x="128.361328"/>
      <use xlink:href="#DejaVuSans-65" x="156.144531"/>
      <use xlink:href="#DejaVuSans-42" x="217.667969"/>
      <use xlink:href="#DejaVuSans-61" x="286.271484"/>
      <use xlink:href="#DejaVuSans-73" x="347.550781"/>
      <use xlink:href="#DejaVuSans-65" x="399.650391"/>
      <use xlink:href="#DejaVuSans-64" x="461.173828"/>
      <use xlink:href="#DejaVuSans-43" x="524.650391"/>
      <use xlink:href="#DejaVuSans-45" x="594.474609"/>
      <use xlink:href="#DejaVuSans-52" x="657.658203"/>
      <use xlink:href="#DejaVuSans-65" x="722.640625"/>
      <use xlink:href="#DejaVuSans-62" x="784.164062"/>
      <use xlink:href="#DejaVuSans-75" x="847.640625"/>
      <use xlink:href="#DejaVuSans-79" x="911.019531"/>
      <use xlink:href="#DejaVuSans-41" x="970.199219"/>
      <use xlink:href="#DejaVuSans-67" x="1038.607422"/>
      <use xlink:href="#DejaVuSans-65" x="1102.083984"/>
      <use xlink:href="#DejaVuSans-6e" x="1163.607422"/>
      <use xlink:href="#DejaVuSans-74" x="1226.986328"/>
      <use xlink:href="#DejaVuSans-43" x="1266.195312"/>
      <use xlink:href="#DejaVuSans-6f" x="1336.019531"/>
      <use xlink:href="#DejaVuSans-6d" x="1397.201172"/>
      <use xlink:href="#DejaVuSans-70" x="1494.613281"/>
      <use xlink:href="#DejaVuSans-65" x="1558.089844"/>
      <use xlink:href="#DejaVuSans-74" x="1619.613281"/>
      <use xlink:href="#DejaVuSans-69" x="1658.822266"/>
      <use xlink:href="#DejaVuSans-74" x="1686.605469"/>
      <use xlink:href="#DejaVuSans-69" x="1725.814453"/>
      <use xlink:href="#DejaVuSans-76" x="1753.597656"/>
      <use xlink:href="#DejaVuSans-65" x="1812.777344"/>
     </g>
    </g>
   </g>
  </g>
 </g>
 <defs>
  <clipPath id="p61a6eed3f3">
   <rect x="57.6" y="41.472" width="357.12" height="266.112"/>
  </clipPath>
 </defs>
</svg>
