<?xml version="1.0" encoding="utf-8" standalone="no"?>
<!DOCTYPE svg PUBLIC "-//W3C//DTD SVG 1.1//EN"
  "http://www.w3.org/Graphics/SVG/1.1/DTD/svg11.dtd">
<svg xmlns:xlink="http://www.w3.org/1999/xlink" width="460.8pt" height="345.6pt" viewBox="0 0 460.8 345.6" xmlns="http://www.w3.org/2000/svg" version="1.1">
 <metadata>
  <rdf:RDF xmlns:dc="http://purl.org/dc/elements/1.1/" xmlns:cc="http://creativecommons.org/ns#" xmlns:rdf="http://www.w3.org/1999/02/22-rdf-syntax-ns#">
   <cc:Work>
    <dc:type rdf:resource="http://purl.org/dc/dcmitype/StillImage"/>
    <dc:date>2022-06-20T18:27:35.736757</dc:date>
    <dc:format>image/svg+xml</dc:format>
    <dc:creator>
     <cc:Agent>
      <dc:title>Matplotlib v3.5.2, https://matplotlib.org/</dc:title>
     </cc:Agent>
    </dc:creator>
   </cc:Work>
  </rdf:RDF>
 </metadata>
 <defs>
  <style type="text/css">*{stroke-linejoin: round; stroke-linecap: butt}</style>
 </defs>
 <g id="figure_1">
  <g id="patch_1">
   <path d="M 0 345.6 
L 460.8 345.6 
L 460.8 0 
L 0 0 
L 0 345.6 
z
" style="fill: none"/>
  </g>
  <g id="axes_1">
   <g id="patch_2">
    <path d="M 57.6 307.584 
L 414.72 307.584 
L 414.72 41.472 
L 57.6 41.472 
L 57.6 307.584 
z
" style="fill: none"/>
   </g>
   <g id="matplotlib.axis_1">
    <g id="xtick_1">
     <g id="line2d_1">
      <path d="M 72.200477 307.584 
L 72.200477 41.472 
" clip-path="url(#p6d397f2e95)" style="fill: none; stroke-dasharray: 2.96,1.28; stroke-dashoffset: 0; stroke: #b0b0b0; stroke-width: 0.8"/>
     </g>
     <g id="line2d_2">
      <defs>
       <path id="m7f22a759d1" d="M 0 0 
L 0 3.5 
" style="stroke: #000000; stroke-width: 0.8"/>
      </defs>
      <g>
       <use xlink:href="#m7f22a759d1" x="72.200477" y="307.584" style="stroke: #000000; stroke-width: 0.8"/>
      </g>
     </g>
     <g id="text_1">
      <!-- 0 -->
      <g transform="translate(69.019227 322.182437)scale(0.1 -0.1)">
       <defs>
        <path id="DejaVuSans-30" d="M 2034 4250 
Q 1547 4250 1301 3770 
Q 1056 3291 1056 2328 
Q 1056 1369 1301 889 
Q 1547 409 2034 409 
Q 2525 409 2770 889 
Q 3016 1369 3016 2328 
Q 3016 3291 2770 3770 
Q 2525 4250 2034 4250 
z
M 2034 4750 
Q 2819 4750 3233 4129 
Q 3647 3509 3647 2328 
Q 3647 1150 3233 529 
Q 2819 -91 2034 -91 
Q 1250 -91 836 529 
Q 422 1150 422 2328 
Q 422 3509 836 4129 
Q 1250 4750 2034 4750 
z
" transform="scale(0.015625)"/>
       </defs>
       <use xlink:href="#DejaVuSans-30"/>
      </g>
     </g>
    </g>
    <g id="xtick_2">
     <g id="line2d_3">
      <path d="M 113.00673 307.584 
L 113.00673 41.472 
" clip-path="url(#p6d397f2e95)" style="fill: none; stroke-dasharray: 2.96,1.28; stroke-dashoffset: 0; stroke: #b0b0b0; stroke-width: 0.8"/>
     </g>
     <g id="line2d_4">
      <g>
       <use xlink:href="#m7f22a759d1" x="113.00673" y="307.584" style="stroke: #000000; stroke-width: 0.8"/>
      </g>
     </g>
     <g id="text_2">
      <!-- 250 -->
      <g transform="translate(103.46298 322.182437)scale(0.1 -0.1)">
       <defs>
        <path id="DejaVuSans-32" d="M 1228 531 
L 3431 531 
L 3431 0 
L 469 0 
L 469 531 
Q 828 903 1448 1529 
Q 2069 2156 2228 2338 
Q 2531 2678 2651 2914 
Q 2772 3150 2772 3378 
Q 2772 3750 2511 3984 
Q 2250 4219 1831 4219 
Q 1534 4219 1204 4116 
Q 875 4013 500 3803 
L 500 4441 
Q 881 4594 1212 4672 
Q 1544 4750 1819 4750 
Q 2544 4750 2975 4387 
Q 3406 4025 3406 3419 
Q 3406 3131 3298 2873 
Q 3191 2616 2906 2266 
Q 2828 2175 2409 1742 
Q 1991 1309 1228 531 
z
" transform="scale(0.015625)"/>
        <path id="DejaVuSans-35" d="M 691 4666 
L 3169 4666 
L 3169 4134 
L 1269 4134 
L 1269 2991 
Q 1406 3038 1543 3061 
Q 1681 3084 1819 3084 
Q 2600 3084 3056 2656 
Q 3513 2228 3513 1497 
Q 3513 744 3044 326 
Q 2575 -91 1722 -91 
Q 1428 -91 1123 -41 
Q 819 9 494 109 
L 494 744 
Q 775 591 1075 516 
Q 1375 441 1709 441 
Q 2250 441 2565 725 
Q 2881 1009 2881 1497 
Q 2881 1984 2565 2268 
Q 2250 2553 1709 2553 
Q 1456 2553 1204 2497 
Q 953 2441 691 2322 
L 691 4666 
z
" transform="scale(0.015625)"/>
       </defs>
       <use xlink:href="#DejaVuSans-32"/>
       <use xlink:href="#DejaVuSans-35" x="63.623047"/>
       <use xlink:href="#DejaVuSans-30" x="127.246094"/>
      </g>
     </g>
    </g>
    <g id="xtick_3">
     <g id="line2d_5">
      <path d="M 153.812982 307.584 
L 153.812982 41.472 
" clip-path="url(#p6d397f2e95)" style="fill: none; stroke-dasharray: 2.96,1.28; stroke-dashoffset: 0; stroke: #b0b0b0; stroke-width: 0.8"/>
     </g>
     <g id="line2d_6">
      <g>
       <use xlink:href="#m7f22a759d1" x="153.812982" y="307.584" style="stroke: #000000; stroke-width: 0.8"/>
      </g>
     </g>
     <g id="text_3">
      <!-- 500 -->
      <g transform="translate(144.269232 322.182437)scale(0.1 -0.1)">
       <use xlink:href="#DejaVuSans-35"/>
       <use xlink:href="#DejaVuSans-30" x="63.623047"/>
       <use xlink:href="#DejaVuSans-30" x="127.246094"/>
      </g>
     </g>
    </g>
    <g id="xtick_4">
     <g id="line2d_7">
      <path d="M 194.619235 307.584 
L 194.619235 41.472 
" clip-path="url(#p6d397f2e95)" style="fill: none; stroke-dasharray: 2.96,1.28; stroke-dashoffset: 0; stroke: #b0b0b0; stroke-width: 0.8"/>
     </g>
     <g id="line2d_8">
      <g>
       <use xlink:href="#m7f22a759d1" x="194.619235" y="307.584" style="stroke: #000000; stroke-width: 0.8"/>
      </g>
     </g>
     <g id="text_4">
      <!-- 750 -->
      <g transform="translate(185.075485 322.182437)scale(0.1 -0.1)">
       <defs>
        <path id="DejaVuSans-37" d="M 525 4666 
L 3525 4666 
L 3525 4397 
L 1831 0 
L 1172 0 
L 2766 4134 
L 525 4134 
L 525 4666 
z
" transform="scale(0.015625)"/>
       </defs>
       <use xlink:href="#DejaVuSans-37"/>
       <use xlink:href="#DejaVuSans-35" x="63.623047"/>
       <use xlink:href="#DejaVuSans-30" x="127.246094"/>
      </g>
     </g>
    </g>
    <g id="xtick_5">
     <g id="line2d_9">
      <path d="M 235.425487 307.584 
L 235.425487 41.472 
" clip-path="url(#p6d397f2e95)" style="fill: none; stroke-dasharray: 2.96,1.28; stroke-dashoffset: 0; stroke: #b0b0b0; stroke-width: 0.8"/>
     </g>
     <g id="line2d_10">
      <g>
       <use xlink:href="#m7f22a759d1" x="235.425487" y="307.584" style="stroke: #000000; stroke-width: 0.8"/>
      </g>
     </g>
     <g id="text_5">
      <!-- 1000 -->
      <g transform="translate(222.700487 322.182437)scale(0.1 -0.1)">
       <defs>
        <path id="DejaVuSans-31" d="M 794 531 
L 1825 531 
L 1825 4091 
L 703 3866 
L 703 4441 
L 1819 4666 
L 2450 4666 
L 2450 531 
L 3481 531 
L 3481 0 
L 794 0 
L 794 531 
z
" transform="scale(0.015625)"/>
       </defs>
       <use xlink:href="#DejaVuSans-31"/>
       <use xlink:href="#DejaVuSans-30" x="63.623047"/>
       <use xlink:href="#DejaVuSans-30" x="127.246094"/>
       <use xlink:href="#DejaVuSans-30" x="190.869141"/>
      </g>
     </g>
    </g>
    <g id="xtick_6">
     <g id="line2d_11">
      <path d="M 276.23174 307.584 
L 276.23174 41.472 
" clip-path="url(#p6d397f2e95)" style="fill: none; stroke-dasharray: 2.96,1.28; stroke-dashoffset: 0; stroke: #b0b0b0; stroke-width: 0.8"/>
     </g>
     <g id="line2d_12">
      <g>
       <use xlink:href="#m7f22a759d1" x="276.23174" y="307.584" style="stroke: #000000; stroke-width: 0.8"/>
      </g>
     </g>
     <g id="text_6">
      <!-- 1250 -->
      <g transform="translate(263.50674 322.182437)scale(0.1 -0.1)">
       <use xlink:href="#DejaVuSans-31"/>
       <use xlink:href="#DejaVuSans-32" x="63.623047"/>
       <use xlink:href="#DejaVuSans-35" x="127.246094"/>
       <use xlink:href="#DejaVuSans-30" x="190.869141"/>
      </g>
     </g>
    </g>
    <g id="xtick_7">
     <g id="line2d_13">
      <path d="M 317.037993 307.584 
L 317.037993 41.472 
" clip-path="url(#p6d397f2e95)" style="fill: none; stroke-dasharray: 2.96,1.28; stroke-dashoffset: 0; stroke: #b0b0b0; stroke-width: 0.8"/>
     </g>
     <g id="line2d_14">
      <g>
       <use xlink:href="#m7f22a759d1" x="317.037993" y="307.584" style="stroke: #000000; stroke-width: 0.8"/>
      </g>
     </g>
     <g id="text_7">
      <!-- 1500 -->
      <g transform="translate(304.312993 322.182437)scale(0.1 -0.1)">
       <use xlink:href="#DejaVuSans-31"/>
       <use xlink:href="#DejaVuSans-35" x="63.623047"/>
       <use xlink:href="#DejaVuSans-30" x="127.246094"/>
       <use xlink:href="#DejaVuSans-30" x="190.869141"/>
      </g>
     </g>
    </g>
    <g id="xtick_8">
     <g id="line2d_15">
      <path d="M 357.844245 307.584 
L 357.844245 41.472 
" clip-path="url(#p6d397f2e95)" style="fill: none; stroke-dasharray: 2.96,1.28; stroke-dashoffset: 0; stroke: #b0b0b0; stroke-width: 0.8"/>
     </g>
     <g id="line2d_16">
      <g>
       <use xlink:href="#m7f22a759d1" x="357.844245" y="307.584" style="stroke: #000000; stroke-width: 0.8"/>
      </g>
     </g>
     <g id="text_8">
      <!-- 1750 -->
      <g transform="translate(345.119245 322.182437)scale(0.1 -0.1)">
       <use xlink:href="#DejaVuSans-31"/>
       <use xlink:href="#DejaVuSans-37" x="63.623047"/>
       <use xlink:href="#DejaVuSans-35" x="127.246094"/>
       <use xlink:href="#DejaVuSans-30" x="190.869141"/>
      </g>
     </g>
    </g>
    <g id="xtick_9">
     <g id="line2d_17">
      <path d="M 398.650498 307.584 
L 398.650498 41.472 
" clip-path="url(#p6d397f2e95)" style="fill: none; stroke-dasharray: 2.96,1.28; stroke-dashoffset: 0; stroke: #b0b0b0; stroke-width: 0.8"/>
     </g>
     <g id="line2d_18">
      <g>
       <use xlink:href="#m7f22a759d1" x="398.650498" y="307.584" style="stroke: #000000; stroke-width: 0.8"/>
      </g>
     </g>
     <g id="text_9">
      <!-- 2000 -->
      <g transform="translate(385.925498 322.182437)scale(0.1 -0.1)">
       <use xlink:href="#DejaVuSans-32"/>
       <use xlink:href="#DejaVuSans-30" x="63.623047"/>
       <use xlink:href="#DejaVuSans-30" x="127.246094"/>
       <use xlink:href="#DejaVuSans-30" x="190.869141"/>
      </g>
     </g>
    </g>
    <g id="text_10">
     <!-- Episode -->
     <g transform="translate(216.5225 335.860562)scale(0.1 -0.1)">
      <defs>
       <path id="DejaVuSans-45" d="M 628 4666 
L 3578 4666 
L 3578 4134 
L 1259 4134 
L 1259 2753 
L 3481 2753 
L 3481 2222 
L 1259 2222 
L 1259 531 
L 3634 531 
L 3634 0 
L 628 0 
L 628 4666 
z
" transform="scale(0.015625)"/>
       <path id="DejaVuSans-70" d="M 1159 525 
L 1159 -1331 
L 581 -1331 
L 581 3500 
L 1159 3500 
L 1159 2969 
Q 1341 3281 1617 3432 
Q 1894 3584 2278 3584 
Q 2916 3584 3314 3078 
Q 3713 2572 3713 1747 
Q 3713 922 3314 415 
Q 2916 -91 2278 -91 
Q 1894 -91 1617 61 
Q 1341 213 1159 525 
z
M 3116 1747 
Q 3116 2381 2855 2742 
Q 2594 3103 2138 3103 
Q 1681 3103 1420 2742 
Q 1159 2381 1159 1747 
Q 1159 1113 1420 752 
Q 1681 391 2138 391 
Q 2594 391 2855 752 
Q 3116 1113 3116 1747 
z
" transform="scale(0.015625)"/>
       <path id="DejaVuSans-69" d="M 603 3500 
L 1178 3500 
L 1178 0 
L 603 0 
L 603 3500 
z
M 603 4863 
L 1178 4863 
L 1178 4134 
L 603 4134 
L 603 4863 
z
" transform="scale(0.015625)"/>
       <path id="DejaVuSans-73" d="M 2834 3397 
L 2834 2853 
Q 2591 2978 2328 3040 
Q 2066 3103 1784 3103 
Q 1356 3103 1142 2972 
Q 928 2841 928 2578 
Q 928 2378 1081 2264 
Q 1234 2150 1697 2047 
L 1894 2003 
Q 2506 1872 2764 1633 
Q 3022 1394 3022 966 
Q 3022 478 2636 193 
Q 2250 -91 1575 -91 
Q 1294 -91 989 -36 
Q 684 19 347 128 
L 347 722 
Q 666 556 975 473 
Q 1284 391 1588 391 
Q 1994 391 2212 530 
Q 2431 669 2431 922 
Q 2431 1156 2273 1281 
Q 2116 1406 1581 1522 
L 1381 1569 
Q 847 1681 609 1914 
Q 372 2147 372 2553 
Q 372 3047 722 3315 
Q 1072 3584 1716 3584 
Q 2034 3584 2315 3537 
Q 2597 3491 2834 3397 
z
" transform="scale(0.015625)"/>
       <path id="DejaVuSans-6f" d="M 1959 3097 
Q 1497 3097 1228 2736 
Q 959 2375 959 1747 
Q 959 1119 1226 758 
Q 1494 397 1959 397 
Q 2419 397 2687 759 
Q 2956 1122 2956 1747 
Q 2956 2369 2687 2733 
Q 2419 3097 1959 3097 
z
M 1959 3584 
Q 2709 3584 3137 3096 
Q 3566 2609 3566 1747 
Q 3566 888 3137 398 
Q 2709 -91 1959 -91 
Q 1206 -91 779 398 
Q 353 888 353 1747 
Q 353 2609 779 3096 
Q 1206 3584 1959 3584 
z
" transform="scale(0.015625)"/>
       <path id="DejaVuSans-64" d="M 2906 2969 
L 2906 4863 
L 3481 4863 
L 3481 0 
L 2906 0 
L 2906 525 
Q 2725 213 2448 61 
Q 2172 -91 1784 -91 
Q 1150 -91 751 415 
Q 353 922 353 1747 
Q 353 2572 751 3078 
Q 1150 3584 1784 3584 
Q 2172 3584 2448 3432 
Q 2725 3281 2906 2969 
z
M 947 1747 
Q 947 1113 1208 752 
Q 1469 391 1925 391 
Q 2381 391 2643 752 
Q 2906 1113 2906 1747 
Q 2906 2381 2643 2742 
Q 2381 3103 1925 3103 
Q 1469 3103 1208 2742 
Q 947 2381 947 1747 
z
" transform="scale(0.015625)"/>
       <path id="DejaVuSans-65" d="M 3597 1894 
L 3597 1613 
L 953 1613 
Q 991 1019 1311 708 
Q 1631 397 2203 397 
Q 2534 397 2845 478 
Q 3156 559 3463 722 
L 3463 178 
Q 3153 47 2828 -22 
Q 2503 -91 2169 -91 
Q 1331 -91 842 396 
Q 353 884 353 1716 
Q 353 2575 817 3079 
Q 1281 3584 2069 3584 
Q 2775 3584 3186 3129 
Q 3597 2675 3597 1894 
z
M 3022 2063 
Q 3016 2534 2758 2815 
Q 2500 3097 2075 3097 
Q 1594 3097 1305 2825 
Q 1016 2553 972 2059 
L 3022 2063 
z
" transform="scale(0.015625)"/>
      </defs>
      <use xlink:href="#DejaVuSans-45"/>
      <use xlink:href="#DejaVuSans-70" x="63.183594"/>
      <use xlink:href="#DejaVuSans-69" x="126.660156"/>
      <use xlink:href="#DejaVuSans-73" x="154.443359"/>
      <use xlink:href="#DejaVuSans-6f" x="206.542969"/>
      <use xlink:href="#DejaVuSans-64" x="267.724609"/>
      <use xlink:href="#DejaVuSans-65" x="331.201172"/>
     </g>
    </g>
   </g>
   <g id="matplotlib.axis_2">
    <g id="ytick_1">
     <g id="line2d_19">
      <path d="M 57.6 256.915734 
L 414.72 256.915734 
" clip-path="url(#p6d397f2e95)" style="fill: none; stroke-dasharray: 2.96,1.28; stroke-dashoffset: 0; stroke: #b0b0b0; stroke-width: 0.8"/>
     </g>
     <g id="line2d_20">
      <defs>
       <path id="m32c1a4718e" d="M 0 0 
L -3.5 0 
" style="stroke: #000000; stroke-width: 0.8"/>
      </defs>
      <g>
       <use xlink:href="#m32c1a4718e" x="57.6" y="256.915734" style="stroke: #000000; stroke-width: 0.8"/>
      </g>
     </g>
     <g id="text_11">
      <!-- −3000 -->
      <g transform="translate(16.770313 260.714953)scale(0.1 -0.1)">
       <defs>
        <path id="DejaVuSans-2212" d="M 678 2272 
L 4684 2272 
L 4684 1741 
L 678 1741 
L 678 2272 
z
" transform="scale(0.015625)"/>
        <path id="DejaVuSans-33" d="M 2597 2516 
Q 3050 2419 3304 2112 
Q 3559 1806 3559 1356 
Q 3559 666 3084 287 
Q 2609 -91 1734 -91 
Q 1441 -91 1130 -33 
Q 819 25 488 141 
L 488 750 
Q 750 597 1062 519 
Q 1375 441 1716 441 
Q 2309 441 2620 675 
Q 2931 909 2931 1356 
Q 2931 1769 2642 2001 
Q 2353 2234 1838 2234 
L 1294 2234 
L 1294 2753 
L 1863 2753 
Q 2328 2753 2575 2939 
Q 2822 3125 2822 3475 
Q 2822 3834 2567 4026 
Q 2313 4219 1838 4219 
Q 1578 4219 1281 4162 
Q 984 4106 628 3988 
L 628 4550 
Q 988 4650 1302 4700 
Q 1616 4750 1894 4750 
Q 2613 4750 3031 4423 
Q 3450 4097 3450 3541 
Q 3450 3153 3228 2886 
Q 3006 2619 2597 2516 
z
" transform="scale(0.015625)"/>
       </defs>
       <use xlink:href="#DejaVuSans-2212"/>
       <use xlink:href="#DejaVuSans-33" x="83.789062"/>
       <use xlink:href="#DejaVuSans-30" x="147.412109"/>
       <use xlink:href="#DejaVuSans-30" x="211.035156"/>
       <use xlink:href="#DejaVuSans-30" x="274.658203"/>
      </g>
     </g>
    </g>
    <g id="ytick_2">
     <g id="line2d_21">
      <path d="M 57.6 203.026538 
L 414.72 203.026538 
" clip-path="url(#p6d397f2e95)" style="fill: none; stroke-dasharray: 2.96,1.28; stroke-dashoffset: 0; stroke: #b0b0b0; stroke-width: 0.8"/>
     </g>
     <g id="line2d_22">
      <g>
       <use xlink:href="#m32c1a4718e" x="57.6" y="203.026538" style="stroke: #000000; stroke-width: 0.8"/>
      </g>
     </g>
     <g id="text_12">
      <!-- −2000 -->
      <g transform="translate(16.770313 206.825757)scale(0.1 -0.1)">
       <use xlink:href="#DejaVuSans-2212"/>
       <use xlink:href="#DejaVuSans-32" x="83.789062"/>
       <use xlink:href="#DejaVuSans-30" x="147.412109"/>
       <use xlink:href="#DejaVuSans-30" x="211.035156"/>
       <use xlink:href="#DejaVuSans-30" x="274.658203"/>
      </g>
     </g>
    </g>
    <g id="ytick_3">
     <g id="line2d_23">
      <path d="M 57.6 149.137342 
L 414.72 149.137342 
" clip-path="url(#p6d397f2e95)" style="fill: none; stroke-dasharray: 2.96,1.28; stroke-dashoffset: 0; stroke: #b0b0b0; stroke-width: 0.8"/>
     </g>
     <g id="line2d_24">
      <g>
       <use xlink:href="#m32c1a4718e" x="57.6" y="149.137342" style="stroke: #000000; stroke-width: 0.8"/>
      </g>
     </g>
     <g id="text_13">
      <!-- −1000 -->
      <g transform="translate(16.770313 152.936561)scale(0.1 -0.1)">
       <use xlink:href="#DejaVuSans-2212"/>
       <use xlink:href="#DejaVuSans-31" x="83.789062"/>
       <use xlink:href="#DejaVuSans-30" x="147.412109"/>
       <use xlink:href="#DejaVuSans-30" x="211.035156"/>
       <use xlink:href="#DejaVuSans-30" x="274.658203"/>
      </g>
     </g>
    </g>
    <g id="ytick_4">
     <g id="line2d_25">
      <path d="M 57.6 95.248146 
L 414.72 95.248146 
" clip-path="url(#p6d397f2e95)" style="fill: none; stroke-dasharray: 2.96,1.28; stroke-dashoffset: 0; stroke: #b0b0b0; stroke-width: 0.8"/>
     </g>
     <g id="line2d_26">
      <g>
       <use xlink:href="#m32c1a4718e" x="57.6" y="95.248146" style="stroke: #000000; stroke-width: 0.8"/>
      </g>
     </g>
     <g id="text_14">
      <!-- 0 -->
      <g transform="translate(44.2375 99.047364)scale(0.1 -0.1)">
       <use xlink:href="#DejaVuSans-30"/>
      </g>
     </g>
    </g>
    <g id="text_15">
     <!-- profits/all -->
     <g transform="translate(10.690625 197.945188)rotate(-90)scale(0.1 -0.1)">
      <defs>
       <path id="DejaVuSans-72" d="M 2631 2963 
Q 2534 3019 2420 3045 
Q 2306 3072 2169 3072 
Q 1681 3072 1420 2755 
Q 1159 2438 1159 1844 
L 1159 0 
L 581 0 
L 581 3500 
L 1159 3500 
L 1159 2956 
Q 1341 3275 1631 3429 
Q 1922 3584 2338 3584 
Q 2397 3584 2469 3576 
Q 2541 3569 2628 3553 
L 2631 2963 
z
" transform="scale(0.015625)"/>
       <path id="DejaVuSans-66" d="M 2375 4863 
L 2375 4384 
L 1825 4384 
Q 1516 4384 1395 4259 
Q 1275 4134 1275 3809 
L 1275 3500 
L 2222 3500 
L 2222 3053 
L 1275 3053 
L 1275 0 
L 697 0 
L 697 3053 
L 147 3053 
L 147 3500 
L 697 3500 
L 697 3744 
Q 697 4328 969 4595 
Q 1241 4863 1831 4863 
L 2375 4863 
z
" transform="scale(0.015625)"/>
       <path id="DejaVuSans-74" d="M 1172 4494 
L 1172 3500 
L 2356 3500 
L 2356 3053 
L 1172 3053 
L 1172 1153 
Q 1172 725 1289 603 
Q 1406 481 1766 481 
L 2356 481 
L 2356 0 
L 1766 0 
Q 1100 0 847 248 
Q 594 497 594 1153 
L 594 3053 
L 172 3053 
L 172 3500 
L 594 3500 
L 594 4494 
L 1172 4494 
z
" transform="scale(0.015625)"/>
       <path id="DejaVuSans-2f" d="M 1625 4666 
L 2156 4666 
L 531 -594 
L 0 -594 
L 1625 4666 
z
" transform="scale(0.015625)"/>
       <path id="DejaVuSans-61" d="M 2194 1759 
Q 1497 1759 1228 1600 
Q 959 1441 959 1056 
Q 959 750 1161 570 
Q 1363 391 1709 391 
Q 2188 391 2477 730 
Q 2766 1069 2766 1631 
L 2766 1759 
L 2194 1759 
z
M 3341 1997 
L 3341 0 
L 2766 0 
L 2766 531 
Q 2569 213 2275 61 
Q 1981 -91 1556 -91 
Q 1019 -91 701 211 
Q 384 513 384 1019 
Q 384 1609 779 1909 
Q 1175 2209 1959 2209 
L 2766 2209 
L 2766 2266 
Q 2766 2663 2505 2880 
Q 2244 3097 1772 3097 
Q 1472 3097 1187 3025 
Q 903 2953 641 2809 
L 641 3341 
Q 956 3463 1253 3523 
Q 1550 3584 1831 3584 
Q 2591 3584 2966 3190 
Q 3341 2797 3341 1997 
z
" transform="scale(0.015625)"/>
       <path id="DejaVuSans-6c" d="M 603 4863 
L 1178 4863 
L 1178 0 
L 603 0 
L 603 4863 
z
" transform="scale(0.015625)"/>
      </defs>
      <use xlink:href="#DejaVuSans-70"/>
      <use xlink:href="#DejaVuSans-72" x="63.476562"/>
      <use xlink:href="#DejaVuSans-6f" x="102.339844"/>
      <use xlink:href="#DejaVuSans-66" x="163.521484"/>
      <use xlink:href="#DejaVuSans-69" x="198.726562"/>
      <use xlink:href="#DejaVuSans-74" x="226.509766"/>
      <use xlink:href="#DejaVuSans-73" x="265.71875"/>
      <use xlink:href="#DejaVuSans-2f" x="317.818359"/>
      <use xlink:href="#DejaVuSans-61" x="351.509766"/>
      <use xlink:href="#DejaVuSans-6c" x="412.789062"/>
      <use xlink:href="#DejaVuSans-6c" x="440.572266"/>
     </g>
    </g>
   </g>
   <g id="line2d_27">
    <path d="M 73.832727 295.488 
L 73.995952 290.564691 
L 74.159177 289.185571 
L 74.322402 283.010241 
L 74.485627 282.092056 
L 74.648852 283.873929 
L 74.812077 280.417787 
L 74.975302 281.052176 
L 76.934002 221.642779 
L 77.586903 208.951044 
L 79.382378 186.198712 
L 81.014628 170.701702 
L 82.320428 161.769109 
L 83.299778 156.54836 
L 83.789453 154.434679 
L 84.932028 149.834606 
L 85.584928 147.586402 
L 86.564278 144.19761 
L 87.217178 142.300427 
L 88.033303 140.071795 
L 88.359753 139.355131 
L 88.522978 138.932083 
L 89.012653 133.491305 
L 89.665553 125.016587 
L 91.624253 105.121862 
L 92.603603 102.730728 
L 92.930053 102.461962 
L 94.725529 99.843729 
L 95.215204 98.730044 
L 95.868104 98.453604 
L 96.194554 98.194418 
L 96.847454 97.996717 
L 97.010679 98.021593 
L 97.500354 97.835581 
L 98.969379 97.333794 
L 99.295829 97.092125 
L 99.459054 97.112276 
L 99.948729 96.816171 
L 100.928079 96.533043 
L 101.580979 95.91879 
L 101.744204 95.881666 
L 101.907429 95.730465 
L 102.560329 95.667368 
L 102.723554 95.593355 
L 103.050004 95.722747 
L 103.376454 95.514821 
L 104.029354 95.355539 
L 104.192579 95.43941 
L 104.355804 95.230805 
L 104.519029 95.235143 
L 104.682254 94.956393 
L 105.171929 94.805271 
L 105.498379 94.645535 
L 105.661604 94.685526 
L 106.314504 94.294851 
L 106.477729 94.358966 
L 106.804179 94.044882 
L 107.130629 94.079691 
L 107.620304 93.840872 
L 108.109979 93.812143 
L 108.599654 93.532389 
L 108.926104 93.512859 
L 109.089329 93.553128 
L 109.579005 93.277499 
L 110.06868 93.320854 
L 110.884805 93.183996 
L 111.04803 93.294535 
L 111.37448 93.195939 
L 112.02738 93.12044 
L 112.35383 93.088545 
L 112.68028 93.034748 
L 113.496405 92.766699 
L 113.65963 92.840319 
L 114.149305 92.696045 
L 116.59768 92.135431 
L 116.92413 92.063093 
L 117.25058 91.990822 
L 117.90348 91.775572 
L 118.393155 91.765756 
L 119.046055 91.528051 
L 119.372505 91.482875 
L 119.53573 91.291387 
L 120.025405 91.185671 
L 120.351855 91.032239 
L 120.678305 90.7205 
L 121.16798 90.867049 
L 121.49443 90.820031 
L 124.269255 90.499651 
L 124.595705 90.481731 
L 125.575056 90.505866 
L 126.064731 90.454603 
L 126.554406 90.252468 
L 126.880856 90.186277 
L 127.207306 90.166663 
L 127.370531 90.116488 
L 127.533756 89.8944 
L 127.696981 89.972425 
L 128.839556 89.663216 
L 129.818906 89.534763 
L 130.471806 89.22698 
L 130.961481 89.193073 
L 131.451156 88.893612 
L 131.940831 88.620868 
L 132.267281 88.72205 
L 133.899531 88.349274 
L 134.225981 88.261921 
L 134.552431 88.177313 
L 134.715656 87.93697 
L 135.205331 87.958379 
L 135.531781 87.709735 
L 136.184681 87.287412 
L 136.674356 87.380596 
L 137.327256 87.206797 
L 137.653706 86.889304 
L 138.143381 86.770022 
L 138.633056 86.423847 
L 138.796281 86.389729 
L 138.959506 86.505501 
L 139.285956 86.27437 
L 139.775631 86.158243 
L 140.102081 86.133086 
L 140.428531 85.922409 
L 140.591756 85.978486 
L 141.081432 85.663313 
L 141.734332 85.427244 
L 142.060782 85.389447 
L 142.387232 85.178789 
L 142.550457 85.188009 
L 143.203357 84.782802 
L 143.366582 84.854377 
L 143.693032 84.669983 
L 144.019482 84.537806 
L 144.345932 84.153649 
L 144.672382 83.974061 
L 145.162057 83.613682 
L 145.814957 82.976894 
L 146.631082 82.659774 
L 146.794307 82.6801 
L 147.773657 81.867634 
L 148.589782 81.462944 
L 150.058807 79.913589 
L 150.385257 79.738134 
L 150.874932 79.215735 
L 151.854282 78.252865 
L 152.017507 78.193608 
L 152.180732 77.976866 
L 152.507182 77.886843 
L 152.670407 77.77281 
L 153.160082 77.055883 
L 153.812982 76.443997 
L 154.629107 75.57528 
L 155.118782 75.420045 
L 155.445232 74.924947 
L 158.709733 71.46367 
L 158.872958 71.495456 
L 159.199408 71.145174 
L 159.689083 70.713746 
L 159.852308 70.411764 
L 160.015533 70.362324 
L 160.505208 69.880896 
L 160.831658 69.742086 
L 161.321333 69.409353 
L 162.300683 68.931523 
L 162.790358 68.308551 
L 163.116808 68.083655 
L 163.443258 67.80708 
L 164.096158 67.508718 
L 164.422608 67.440684 
L 164.749058 67.337434 
L 164.912283 67.106854 
L 165.075508 67.176019 
L 165.728408 66.833231 
L 166.054858 66.841499 
L 167.523883 66.528328 
L 168.340008 66.621176 
L 168.992908 66.231281 
L 169.809033 66.115949 
L 170.135483 66.073339 
L 170.788383 66.178702 
L 171.114833 66.02727 
L 171.278058 65.966537 
L 171.604508 66.0776 
L 171.930958 66.040669 
L 172.257408 66.142668 
L 172.747084 66.142468 
L 174.052884 66.264133 
L 174.379334 66.341626 
L 174.705784 66.338818 
L 175.195459 66.367357 
L 175.358684 66.202098 
L 175.685134 66.355184 
L 176.011584 66.364494 
L 176.501259 66.333481 
L 178.296734 66.41184 
L 178.623184 66.262699 
L 179.928984 66.550641 
L 180.745109 66.581028 
L 181.234784 66.495735 
L 181.398009 66.529892 
L 181.561234 66.40138 
L 182.214134 66.506452 
L 183.356709 66.45281 
L 183.683159 66.556597 
L 184.172834 66.395909 
L 184.825734 66.185822 
L 185.478634 66.415365 
L 185.805084 66.338997 
L 186.131534 66.398888 
L 187.763784 66.551497 
L 188.090234 66.294358 
L 188.743135 66.298102 
L 189.396035 66.487394 
L 189.722485 66.325419 
L 190.048935 66.291059 
L 190.375385 66.191254 
L 190.86506 66.069017 
L 191.028285 66.152186 
L 191.681185 66.009801 
L 192.334085 65.892898 
L 192.82376 65.980127 
L 193.15021 65.84784 
L 193.80311 66.057499 
L 194.12956 65.998513 
L 194.78246 65.92407 
L 196.251485 65.538677 
L 196.904385 65.60335 
L 197.06761 65.521014 
L 197.557285 65.622672 
L 200.98501 65.40777 
L 201.31146 65.498086 
L 201.96436 65.225225 
L 202.29081 65.286861 
L 203.433385 65.07135 
L 203.92306 64.790884 
L 205.065636 64.87817 
L 205.392086 64.858781 
L 206.044986 64.662697 
L 206.371436 64.576185 
L 207.187561 64.528485 
L 207.350786 64.562895 
L 207.514011 64.36235 
L 208.493361 64.353189 
L 208.983036 64.164242 
L 209.472711 64.240619 
L 209.635936 64.262236 
L 210.452061 63.920817 
L 211.104961 63.799344 
L 211.268186 63.802407 
L 211.431411 63.922165 
L 211.757861 63.932113 
L 212.084311 64.084508 
L 212.410761 63.921573 
L 213.226886 63.834853 
L 213.390111 63.697699 
L 213.716561 63.670627 
L 215.022361 63.400902 
L 215.348811 63.390559 
L 215.675261 63.21463 
L 217.797186 62.825018 
L 218.123636 62.698342 
L 218.613311 62.670181 
L 219.102986 62.581209 
L 219.429436 62.547622 
L 220.735237 62.610337 
L 222.041037 62.136284 
L 222.367487 62.208969 
L 222.530712 62.163626 
L 222.857162 62.262313 
L 223.673287 62.32808 
L 223.836512 62.217488 
L 224.162962 62.209215 
L 224.326187 62.131223 
L 224.489412 62.192954 
L 225.142312 61.944972 
L 225.958437 61.742422 
L 226.448112 61.766556 
L 227.101012 61.678214 
L 227.264237 61.583499 
L 227.590687 61.637764 
L 228.570037 61.245598 
L 229.059712 61.308867 
L 234.119687 60.321264 
L 235.262262 60.28827 
L 235.588712 60.211591 
L 236.078387 60.097387 
L 236.241613 59.936979 
L 236.894513 59.987429 
L 237.384188 59.987267 
L 237.547413 60.064015 
L 237.873863 60.044975 
L 238.853213 59.98247 
L 240.159013 59.58275 
L 240.648688 59.734217 
L 241.954488 59.707522 
L 242.280938 59.786508 
L 242.933838 59.638886 
L 243.749963 59.641397 
L 244.239638 59.547137 
L 244.892538 59.412544 
L 245.218988 59.35561 
L 247.177688 59.262648 
L 247.993813 59.117103 
L 248.646713 59.186532 
L 248.973163 59.353926 
L 249.789288 59.318494 
L 250.278963 59.372981 
L 252.564114 59.364069 
L 252.727339 59.494782 
L 253.217014 59.506558 
L 253.869914 59.509817 
L 254.196364 59.457225 
L 254.686039 59.396255 
L 255.338939 59.341138 
L 255.502164 59.410704 
L 255.828614 59.290427 
L 256.155064 59.333857 
L 256.807964 59.24675 
L 257.134414 59.242342 
L 258.113764 59.143332 
L 258.603439 58.971708 
L 259.093114 58.915376 
L 260.888589 58.882828 
L 262.031164 59.075409 
L 262.357614 58.995823 
L 262.684064 59.025743 
L 263.173739 59.119894 
L 263.336964 59.221524 
L 263.500189 59.173405 
L 263.989864 59.387582 
L 264.642764 59.368221 
L 264.969214 59.383768 
L 265.132439 59.324172 
L 265.295664 59.132578 
L 265.948564 59.208179 
L 267.580814 58.938554 
L 268.72339 59.019933 
L 270.845315 58.745883 
L 271.33499 58.79409 
L 271.98789 58.787171 
L 272.96724 58.896503 
L 273.130465 58.937347 
L 273.456915 58.789916 
L 273.783365 58.78368 
L 274.436265 58.674068 
L 275.089165 58.872733 
L 276.721415 59.002434 
L 276.88464 58.949513 
L 277.21109 59.00893 
L 277.700765 58.985689 
L 278.027215 58.745118 
L 278.680115 58.793603 
L 279.16979 58.738647 
L 280.47559 58.553775 
L 281.12849 58.60937 
L 281.291715 58.524756 
L 281.944615 58.621042 
L 282.271065 58.59144 
L 284.066541 58.920736 
L 284.392991 58.80355 
L 285.535566 58.789936 
L 285.698791 58.69877 
L 286.514916 58.814762 
L 286.678141 58.71656 
L 287.657491 58.839243 
L 287.820716 58.728481 
L 288.310391 58.709436 
L 288.636841 58.694053 
L 289.289741 58.620773 
L 289.452966 58.65277 
L 289.779416 58.583772 
L 291.574891 58.409772 
L 291.901341 58.407968 
L 292.717466 58.298183 
L 292.880691 58.247189 
L 293.370366 58.343069 
L 294.186491 58.421203 
L 294.512941 58.594484 
L 295.002616 58.458231 
L 295.492291 58.340869 
L 296.471641 58.546263 
L 296.961316 58.339509 
L 299.083241 57.98357 
L 299.572916 57.893471 
L 300.062592 57.71358 
L 301.858067 57.951471 
L 302.184517 57.909903 
L 304.143217 57.921363 
L 304.306442 57.994709 
L 304.632892 57.857928 
L 305.122567 57.965972 
L 306.265142 58.09132 
L 306.591592 58.020108 
L 307.407717 58.319111 
L 307.570942 58.279972 
L 307.897392 58.374359 
L 308.060617 58.346718 
L 308.223842 58.448544 
L 308.713517 58.214483 
L 309.203192 58.286013 
L 309.529642 58.305419 
L 309.692867 58.249707 
L 310.019317 58.29599 
L 311.488342 58.050616 
L 311.814792 58.224895 
L 312.304467 58.088368 
L 313.936717 58.121937 
L 314.426392 58.149637 
L 315.242517 58.003579 
L 315.405742 58.0376 
L 315.895418 57.813884 
L 316.385093 57.847811 
L 316.711543 57.753281 
L 316.874768 57.766468 
L 317.037993 57.62455 
L 317.527668 57.792231 
L 318.017343 57.752856 
L 318.670243 57.690812 
L 318.833468 57.724615 
L 318.996693 57.602163 
L 319.323143 57.76067 
L 320.139268 57.857689 
L 320.302493 57.939937 
L 320.792168 57.748272 
L 321.118618 57.853729 
L 322.097968 57.58573 
L 322.424418 57.647114 
L 322.914093 57.659276 
L 323.240543 57.610691 
L 323.566993 57.532163 
L 324.546343 57.678029 
L 324.709568 57.55691 
L 325.036018 57.609695 
L 326.015368 57.561617 
L 326.341818 57.537968 
L 327.157943 57.539315 
L 327.321168 57.649439 
L 327.647618 57.576508 
L 327.974068 57.673 
L 328.300518 57.509944 
L 328.790193 57.600089 
L 329.279868 57.544167 
L 329.606318 57.716706 
L 330.259218 57.621797 
L 331.728244 58.072256 
L 332.054694 57.972575 
L 332.381144 58.038929 
L 332.707594 58.070682 
L 332.870819 57.967001 
L 333.197269 57.975187 
L 333.360494 57.927033 
L 333.686944 58.083987 
L 334.339844 57.948507 
L 334.666294 57.989178 
L 334.992744 58.022817 
L 335.319194 57.876324 
L 335.482419 57.962615 
L 336.298544 57.725737 
L 336.461769 57.718458 
L 336.788219 57.528384 
L 337.114669 57.615531 
L 337.604344 57.515829 
L 338.420469 57.626213 
L 339.073369 57.614803 
L 339.399819 57.589158 
L 340.215944 57.785354 
L 340.868844 57.654902 
L 341.032069 57.66644 
L 341.358519 57.883155 
L 341.684969 57.93108 
L 341.848194 58.043849 
L 342.337869 57.868916 
L 342.664319 58.012129 
L 342.827544 57.880169 
L 345.439144 58.208135 
L 345.765594 58.092598 
L 346.418494 58.186273 
L 347.397845 58.132049 
L 347.724295 58.209727 
L 348.050745 58.200693 
L 348.377195 58.280205 
L 348.703645 58.415328 
L 349.030095 58.437185 
L 349.356545 58.736676 
L 349.682995 58.6671 
L 350.009445 58.706913 
L 350.335895 58.668162 
L 350.82557 58.678979 
L 351.315245 58.783981 
L 351.47847 58.744533 
L 351.641695 58.883639 
L 352.13137 58.626427 
L 352.45782 58.795457 
L 353.273945 59.073202 
L 353.600395 59.023411 
L 354.41652 59.100115 
L 354.74297 58.964185 
L 355.559095 58.940548 
L 356.04877 58.978882 
L 356.70167 58.977033 
L 357.35457 59.081142 
L 357.844245 58.892612 
L 358.823595 59.1308 
L 359.150045 59.080617 
L 359.31327 59.160226 
L 359.802945 58.957209 
L 360.129395 58.947055 
L 360.455845 58.833046 
L 362.414545 58.686726 
L 362.740995 58.598774 
L 363.230671 58.703731 
L 363.557121 58.709495 
L 363.720346 58.579261 
L 364.046796 58.527699 
L 364.862921 58.478394 
L 365.026146 58.433205 
L 365.352596 58.608282 
L 366.005496 58.498003 
L 366.658396 58.693318 
L 367.311296 58.56635 
L 367.964196 58.555793 
L 368.127421 58.472228 
L 368.617096 58.661951 
L 368.780321 58.571349 
L 368.943546 58.668481 
L 370.412571 58.372475 
L 370.739021 58.38308 
L 374.493196 58.234671 
L 375.635771 57.882082 
L 375.962221 57.872761 
L 376.125446 57.965197 
L 376.615121 57.901537 
L 377.757696 58.072229 
L 378.247371 57.955997 
L 378.573821 57.902484 
L 378.900271 57.896955 
L 379.389947 57.915881 
L 379.879622 57.848294 
L 380.369297 58.19787 
L 380.695747 58.12517 
L 381.022197 58.206406 
L 381.348647 58.238584 
L 381.511872 58.307607 
L 382.001547 58.156107 
L 382.327997 58.144175 
L 382.654447 58.163175 
L 382.980897 58.109275 
L 383.633797 57.938785 
L 384.286697 58.08823 
L 384.613147 57.992666 
L 385.918947 58.079203 
L 386.245397 58.002507 
L 386.735072 58.136204 
L 387.224747 58.136428 
L 388.040872 58.172155 
L 388.530547 58.124635 
L 389.673122 57.80737 
L 389.999572 57.848402 
L 390.162797 57.815789 
L 390.489247 57.573637 
L 390.978922 57.762681 
L 391.631822 57.940262 
L 392.611172 58.066148 
L 393.264072 58.079836 
L 393.427297 58.091331 
L 393.753747 57.902573 
L 394.569872 57.882431 
L 395.385998 57.940158 
L 396.855023 57.686163 
L 397.181473 57.856944 
L 397.507923 57.850401 
L 397.671148 57.962103 
L 397.997598 57.779504 
L 398.160823 57.850344 
L 398.487273 57.785526 
L 398.487273 57.785526 
" clip-path="url(#p6d397f2e95)" style="fill: none; stroke: #1f77b4; stroke-width: 1.5; stroke-linecap: square"/>
   </g>
   <g id="line2d_28">
    <path d="M 73.832727 136.734902 
L 73.995952 135.37929 
L 74.159177 135.832776 
L 74.485627 134.310348 
L 74.975302 128.760754 
L 75.954652 122.387381 
L 76.117877 122.140327 
L 76.607552 119.433164 
L 77.260452 116.472505 
L 77.586903 115.686658 
L 77.750128 115.088683 
L 77.913353 114.93956 
L 78.239803 114.992847 
L 78.566253 114.151958 
L 78.729478 114.172351 
L 79.382378 112.310937 
L 79.708828 111.573853 
L 79.872053 111.417468 
L 80.035278 111.453862 
L 80.524953 110.456243 
L 80.851403 109.853306 
L 81.177853 109.262261 
L 81.341078 109.345653 
L 81.830753 108.483251 
L 82.646878 107.273121 
L 82.810103 107.097378 
L 83.299778 106.009584 
L 83.789453 105.678014 
L 85.258478 104.234489 
L 85.584928 103.982852 
L 87.543628 102.074404 
L 87.706853 101.791715 
L 87.870078 101.793783 
L 88.522978 101.210042 
L 89.012653 100.280338 
L 89.339103 98.500486 
L 89.828778 97.037004 
L 90.155228 95.914823 
L 90.481678 95.174497 
L 90.971353 93.844231 
L 91.134578 93.830675 
L 92.440378 92.153851 
L 92.603603 91.74077 
L 93.909404 90.918329 
L 94.562304 90.272268 
L 94.725529 89.972361 
L 95.051979 89.783965 
L 95.378429 89.539481 
L 95.704879 89.439201 
L 95.868104 89.280487 
L 96.031329 89.286678 
L 96.194554 89.132783 
L 96.357779 89.229155 
L 96.521004 89.073345 
L 96.847454 89.326675 
L 97.337129 89.104543 
L 97.500354 88.980046 
L 97.663579 89.093863 
L 97.990029 88.725673 
L 98.479704 88.794143 
L 98.806154 88.527263 
L 99.132604 88.316101 
L 99.948729 88.412941 
L 100.601629 88.081067 
L 101.254529 88.295212 
L 101.417754 88.104879 
L 101.907429 88.040571 
L 102.070654 87.934098 
L 102.397104 87.962459 
L 102.723554 87.682447 
L 102.886779 87.799207 
L 103.213229 87.70763 
L 103.702904 88.073459 
L 104.355804 88.29637 
L 104.845479 88.225188 
L 105.171929 88.312944 
L 105.335154 88.128762 
L 106.151279 88.910293 
L 106.640954 89.074724 
L 106.967404 88.892381 
L 107.130629 88.820088 
L 107.620304 88.994773 
L 107.946754 89.005372 
L 108.273204 89.338615 
L 108.436429 89.297168 
L 108.762879 89.532802 
L 108.926104 89.551155 
L 109.089329 89.698518 
L 109.579005 89.584886 
L 109.74223 89.790058 
L 110.231905 89.684586 
L 110.39513 89.690282 
L 110.72158 89.553212 
L 110.884805 89.488099 
L 111.211255 89.783434 
L 111.37448 89.614896 
L 111.537705 89.700453 
L 111.70093 89.51723 
L 112.35383 89.674048 
L 112.517055 89.452635 
L 112.68028 89.469307 
L 113.496405 88.785596 
L 113.98608 88.720234 
L 114.31253 88.414243 
L 114.475755 88.498656 
L 114.96543 88.326405 
L 115.128655 88.610988 
L 115.29188 88.636563 
L 115.455105 88.93835 
L 115.61833 88.991044 
L 115.94478 88.809627 
L 116.108005 88.865893 
L 116.59768 88.584682 
L 116.760905 88.395982 
L 116.92413 88.527504 
L 117.57703 88.315893 
L 117.740255 88.528874 
L 117.90348 88.534724 
L 118.066705 88.304465 
L 118.22993 88.345102 
L 118.719605 87.931022 
L 119.046055 88.174617 
L 119.20928 88.402533 
L 119.372505 88.288788 
L 119.53573 88.386838 
L 119.698955 88.275295 
L 119.86218 87.89376 
L 120.678305 87.796703 
L 120.84153 87.554881 
L 121.004755 87.728853 
L 121.16798 87.590156 
L 121.49443 87.584571 
L 121.82088 87.549065 
L 122.47378 86.77248 
L 122.637005 86.736819 
L 122.80023 86.870516 
L 123.12668 86.591043 
L 123.616355 86.769104 
L 123.942805 86.231411 
L 124.269255 86.035697 
L 124.43248 86.093452 
L 124.922155 85.722502 
L 125.085381 85.584043 
L 125.248606 85.636095 
L 125.738281 85.454473 
L 126.227956 85.619225 
L 126.554406 85.578687 
L 127.044081 85.975056 
L 127.370531 85.713016 
L 127.696981 85.023679 
L 127.860206 85.087247 
L 128.023431 84.986783 
L 128.186656 85.160756 
L 128.513106 85.011434 
L 128.676331 85.170466 
L 128.839556 85.037668 
L 129.166006 85.279844 
L 129.492456 85.023394 
L 129.655681 85.197684 
L 129.982131 85.168241 
L 130.308581 84.886471 
L 130.798256 85.01669 
L 130.961481 84.88286 
L 131.287931 84.249211 
L 131.451156 84.202411 
L 131.614381 83.829899 
L 131.777606 83.83672 
L 132.104056 83.515466 
L 132.267281 83.493221 
L 132.430506 83.59983 
L 132.593731 83.385086 
L 132.920181 83.539015 
L 133.246631 84.059878 
L 133.573081 83.933388 
L 133.899531 83.344009 
L 134.062756 83.34337 
L 134.389206 83.129446 
L 134.552431 83.192299 
L 134.878881 82.810904 
L 135.042106 82.820784 
L 135.205331 82.943808 
L 135.368556 82.585692 
L 135.531781 82.57558 
L 135.695006 82.16957 
L 135.858231 82.085147 
L 136.184681 81.449525 
L 136.347906 81.566082 
L 136.837581 81.417902 
L 137.000806 81.214483 
L 137.164031 80.773342 
L 137.490481 80.566075 
L 138.143381 79.69659 
L 138.469831 79.784033 
L 138.796281 79.252185 
L 139.122731 79.327012 
L 139.285956 79.021755 
L 139.449181 79.106537 
L 139.775631 78.631672 
L 139.938856 78.568802 
L 140.102081 78.294588 
L 140.428531 78.538014 
L 142.224007 77.811703 
L 142.876907 76.551707 
L 143.203357 75.944038 
L 143.529807 75.408497 
L 143.693032 75.412554 
L 143.856257 75.284231 
L 144.019482 75.6035 
L 144.345932 75.3555 
L 144.509157 75.368413 
L 144.835607 74.75095 
L 144.998832 74.63012 
L 145.325282 74.080227 
L 145.488507 74.153693 
L 145.814957 73.57629 
L 145.978182 73.466765 
L 146.304632 72.566898 
L 146.631082 72.187425 
L 146.794307 72.175324 
L 147.283982 71.337425 
L 147.773657 71.260592 
L 147.936882 70.905711 
L 148.100107 70.996681 
L 148.426557 70.487988 
L 149.079457 69.670818 
L 149.895582 68.008008 
L 150.058807 67.764522 
L 150.222032 67.887072 
L 150.548482 67.376242 
L 150.711707 66.915537 
L 150.874932 66.816529 
L 151.038157 66.414785 
L 151.201382 66.636068 
L 151.527832 66.247408 
L 152.017507 65.372775 
L 152.180732 65.554869 
L 152.507182 65.239881 
L 152.833632 65.42504 
L 153.323307 64.292604 
L 153.486532 64.231923 
L 153.649757 64.353257 
L 153.812982 64.281486 
L 153.976207 63.882379 
L 154.139432 63.859191 
L 154.302657 63.954717 
L 154.955557 63.393266 
L 155.118782 63.438382 
L 155.282007 63.700257 
L 155.771682 62.907481 
L 156.261357 62.600611 
L 156.751032 61.738561 
L 157.077483 61.311116 
L 157.240708 61.211087 
L 158.220058 59.509713 
L 158.709733 58.756617 
L 158.872958 58.913445 
L 159.199408 58.582484 
L 160.341983 57.761449 
L 160.505208 57.376312 
L 160.831658 57.343166 
L 161.158108 57.05664 
L 161.321333 57.159367 
L 161.484558 56.763038 
L 161.811008 56.568146 
L 161.974233 56.135125 
L 162.137458 56.266892 
L 163.769708 55.486552 
L 163.932933 55.212039 
L 164.096158 55.214662 
L 164.422608 55.407565 
L 164.912283 54.755562 
L 165.075508 54.733956 
L 165.238733 54.838656 
L 165.401958 54.766067 
L 165.565183 55.027883 
L 165.728408 55.040599 
L 165.891633 55.208631 
L 166.054858 55.070589 
L 166.381308 55.188589 
L 166.544533 55.378965 
L 166.707758 55.194616 
L 166.870983 55.47959 
L 167.034208 55.38031 
L 167.197433 55.489759 
L 167.360658 55.263089 
L 167.523883 55.309821 
L 167.687108 54.848112 
L 167.850333 54.756867 
L 168.013558 55.006294 
L 168.176783 54.848961 
L 168.503233 54.938824 
L 168.666458 54.586413 
L 169.156133 54.641623 
L 169.319358 54.511745 
L 169.482583 54.534323 
L 169.645808 54.737458 
L 169.972258 54.648185 
L 170.298708 54.43179 
L 170.461933 54.401476 
L 170.788383 54.514217 
L 170.951608 54.434416 
L 171.278058 54.610071 
L 171.441283 54.449229 
L 171.604508 54.518695 
L 171.930958 54.052302 
L 172.257408 53.931051 
L 172.420633 53.568 
L 173.236759 54.068837 
L 173.399984 54.40942 
L 174.052884 54.592409 
L 174.216109 54.654801 
L 174.869009 55.470525 
L 175.358684 55.35958 
L 175.848359 55.770693 
L 176.011584 55.695656 
L 176.174809 55.812416 
L 176.338034 56.165594 
L 176.501259 55.970406 
L 176.827709 55.917883 
L 176.990934 56.26044 
L 177.480609 56.019004 
L 177.643834 56.099193 
L 177.807059 55.852315 
L 177.970284 56.000722 
L 178.296734 55.906658 
L 178.459959 56.144736 
L 178.623184 55.919967 
L 179.602534 56.154206 
L 179.765759 55.938377 
L 179.928984 56.025022 
L 180.092209 56.298263 
L 180.255434 56.25108 
L 180.418659 56.390034 
L 180.745109 56.088123 
L 181.071559 56.275847 
L 181.398009 56.331117 
L 181.561234 56.219391 
L 181.724459 55.925628 
L 181.887684 56.036029 
L 182.050909 55.809823 
L 182.214134 55.844631 
L 182.377359 55.603216 
L 182.540584 55.617142 
L 183.030259 55.128791 
L 183.193484 55.123801 
L 183.356709 54.875495 
L 183.519934 55.251995 
L 183.683159 55.145117 
L 183.846384 55.229825 
L 184.009609 55.123234 
L 184.336059 55.212826 
L 184.499284 54.920605 
L 184.662509 55.197391 
L 184.825734 55.206622 
L 184.988959 54.978498 
L 185.152184 55.440589 
L 185.478634 55.579094 
L 185.805084 55.387728 
L 185.968309 55.577006 
L 186.131534 55.500095 
L 186.294759 55.917022 
L 186.621209 55.964759 
L 186.784434 56.168724 
L 187.110884 56.277564 
L 187.437334 56.321173 
L 187.763784 56.287974 
L 187.927009 56.353951 
L 188.090234 56.283188 
L 188.57991 56.554013 
L 188.743135 56.433869 
L 188.90636 56.752151 
L 189.23281 56.377199 
L 189.396035 56.417127 
L 189.722485 56.185256 
L 189.88571 55.75319 
L 190.048935 55.702669 
L 190.375385 56.101114 
L 190.86506 56.243298 
L 191.028285 56.062519 
L 191.19151 56.178971 
L 191.51796 55.938919 
L 191.681185 56.19716 
L 191.84441 56.141916 
L 192.007635 56.205666 
L 192.334085 56.065201 
L 192.49731 56.240805 
L 192.660535 56.121685 
L 192.82376 55.72563 
L 192.986985 55.913956 
L 193.15021 55.858289 
L 193.313435 55.931439 
L 193.47666 55.767812 
L 193.639885 56.108946 
L 193.966335 56.164109 
L 194.12956 56.152847 
L 194.292785 56.347913 
L 194.619235 56.360844 
L 194.78246 56.412048 
L 195.10891 56.136529 
L 195.272135 56.191471 
L 195.598585 56.134416 
L 195.76181 56.332006 
L 195.925035 56.344111 
L 196.251485 56.644207 
L 196.41471 56.593054 
L 196.577935 56.276029 
L 196.74116 56.342035 
L 196.904385 56.274139 
L 197.230835 56.645081 
L 197.39406 56.30042 
L 197.883735 57.014742 
L 199.35276 58.111045 
L 199.842435 58.11543 
L 200.00566 57.751093 
L 200.168885 57.740498 
L 200.495335 58.149522 
L 200.65856 58.169032 
L 200.98501 58.689238 
L 201.148235 58.543854 
L 201.474685 58.867474 
L 201.63791 58.469035 
L 202.127585 58.436342 
L 202.29081 58.812685 
L 202.61726 58.667472 
L 202.780485 58.203857 
L 203.106935 58.809616 
L 203.27016 58.627346 
L 203.433385 58.689762 
L 203.759835 58.450837 
L 204.739186 58.020516 
L 204.902411 58.357908 
L 205.065636 58.283098 
L 205.228861 58.452403 
L 205.392086 58.327524 
L 205.555311 58.441752 
L 205.881761 58.788078 
L 206.208211 58.946094 
L 206.371436 59.277484 
L 206.534661 59.243607 
L 206.861111 59.021092 
L 207.187561 58.773728 
L 207.350786 58.637659 
L 207.514011 58.776174 
L 207.677236 58.406986 
L 208.003686 58.355598 
L 208.166911 58.01779 
L 208.819811 58.461266 
L 208.983036 58.496999 
L 209.309486 59.166955 
L 209.472711 59.154394 
L 209.635936 59.353214 
L 209.962386 59.223824 
L 210.288836 58.967809 
L 210.452061 58.844162 
L 210.615286 59.106911 
L 210.778511 59.063053 
L 210.941736 59.150802 
L 211.104961 59.089739 
L 211.431411 59.506355 
L 211.921086 60.132928 
L 212.247536 60.250318 
L 212.410761 60.509687 
L 212.737211 60.594787 
L 213.063661 61.109354 
L 213.390111 61.175708 
L 213.553336 61.332302 
L 214.043011 61.434747 
L 214.206236 61.43723 
L 214.369461 61.218225 
L 214.859136 61.173109 
L 215.022361 61.315672 
L 216.001711 61.261288 
L 216.164936 61.392556 
L 216.328161 61.320477 
L 216.654611 61.908523 
L 216.981061 61.635827 
L 217.144286 61.867613 
L 217.470736 61.473703 
L 217.797186 61.358044 
L 218.123636 61.61794 
L 218.286861 61.633192 
L 218.450086 61.478151 
L 218.613311 61.589005 
L 218.776536 61.21214 
L 218.939761 61.246644 
L 219.266211 61.958913 
L 219.592661 61.499555 
L 219.919111 61.440429 
L 220.082336 61.663181 
L 220.408787 61.704076 
L 220.735237 61.819112 
L 220.898462 62.109979 
L 221.061687 62.037173 
L 221.224912 62.098382 
L 221.388137 61.742794 
L 221.714587 61.95364 
L 222.041037 61.933329 
L 222.204262 61.866408 
L 222.693937 62.596928 
L 222.857162 62.490557 
L 223.183612 62.81629 
L 223.346837 62.650376 
L 223.836512 63.096629 
L 223.999737 62.938263 
L 224.652637 63.511549 
L 225.468762 63.733329 
L 225.631987 63.616945 
L 225.795212 63.301687 
L 226.121662 63.067004 
L 226.284887 63.258422 
L 226.448112 63.220897 
L 226.611337 63.426521 
L 226.774562 63.243072 
L 226.937787 63.321174 
L 227.101012 62.95214 
L 227.427462 62.848755 
L 227.590687 62.988886 
L 227.753912 62.760391 
L 227.917137 62.985253 
L 228.243587 62.494279 
L 228.406812 62.409404 
L 228.570037 62.710131 
L 228.733262 62.643581 
L 229.059712 62.304512 
L 229.549387 61.980467 
L 229.712612 62.149576 
L 230.202287 61.913256 
L 230.365512 62.044907 
L 230.691962 61.767747 
L 231.181637 62.185934 
L 231.671312 61.723306 
L 231.997762 61.449767 
L 232.160987 61.49651 
L 232.487437 61.265327 
L 232.813887 61.524069 
L 233.140337 61.223068 
L 233.303562 61.241416 
L 233.466787 61.432219 
L 233.630012 61.152361 
L 233.956462 61.505607 
L 234.446137 61.788445 
L 234.609362 61.675405 
L 235.425487 62.205496 
L 235.751937 61.498024 
L 235.915162 61.402708 
L 236.241613 61.515799 
L 236.404838 61.504214 
L 237.057738 61.870142 
L 237.384188 61.59338 
L 237.873863 62.102501 
L 238.363538 62.036152 
L 238.689988 62.427482 
L 239.179663 62.431763 
L 239.342888 62.629123 
L 239.506113 62.489848 
L 239.669338 62.497082 
L 239.832563 62.805527 
L 240.159013 62.46527 
L 240.485463 63.058047 
L 240.648688 63.081344 
L 240.811913 62.976069 
L 240.975138 62.723333 
L 241.138363 62.965722 
L 241.791263 62.559754 
L 242.117713 62.478514 
L 242.280938 62.811835 
L 242.607388 62.774257 
L 242.770613 62.555084 
L 243.423513 62.724726 
L 243.913188 63.069796 
L 244.239638 63.004606 
L 244.402863 62.848206 
L 244.566088 62.89268 
L 244.729313 62.811396 
L 244.892538 62.96241 
L 245.055763 62.69086 
L 245.545438 63.035314 
L 245.708663 63.320326 
L 246.035113 63.262586 
L 246.198338 63.002219 
L 246.361563 63.077018 
L 246.688013 62.93413 
L 246.851238 63.128288 
L 247.667363 62.827187 
L 247.830588 63.017623 
L 247.993813 62.852317 
L 248.157038 63.015179 
L 248.483488 63.844376 
L 248.646713 63.925064 
L 248.809938 64.238579 
L 249.626063 64.096634 
L 249.789288 64.187574 
L 249.952513 64.086675 
L 250.115738 64.391841 
L 250.442188 64.194273 
L 250.768638 63.978733 
L 250.931863 63.79931 
L 251.258313 63.781403 
L 251.421538 63.715937 
L 251.584763 63.515734 
L 251.911213 63.418989 
L 252.074439 63.255057 
L 252.237664 63.44722 
L 252.564114 63.384728 
L 252.727339 63.579131 
L 252.890564 63.576727 
L 253.053789 63.444374 
L 253.869914 63.516639 
L 254.196364 63.165612 
L 254.359589 63.002604 
L 254.522814 63.097682 
L 255.175714 62.875067 
L 255.338939 62.541853 
L 255.502164 62.599676 
L 255.828614 62.230679 
L 255.991839 62.324539 
L 256.155064 62.241807 
L 256.644739 62.498312 
L 256.807964 62.239115 
L 256.971189 62.529763 
L 257.134414 62.402051 
L 257.460864 62.601802 
L 257.787314 62.397727 
L 257.950539 62.433545 
L 258.113764 62.206252 
L 258.276989 62.449648 
L 258.603439 62.468119 
L 258.766664 62.243798 
L 259.093114 62.416521 
L 259.419564 62.824288 
L 259.582789 62.666386 
L 259.746014 62.665469 
L 259.909239 62.956086 
L 260.072464 62.857841 
L 260.725364 63.043024 
L 261.051814 62.918254 
L 261.215039 63.189466 
L 261.704714 62.731042 
L 261.867939 62.832959 
L 262.194389 62.471357 
L 262.357614 62.619727 
L 262.520839 62.579502 
L 262.684064 62.71784 
L 263.010514 62.669032 
L 263.173739 63.029185 
L 263.500189 62.922185 
L 264.153089 63.159891 
L 264.642764 63.222657 
L 264.969214 62.509831 
L 265.132439 62.575199 
L 265.295664 62.250533 
L 265.622114 62.171475 
L 265.785339 62.078115 
L 266.438239 62.23263 
L 266.764689 62.121788 
L 266.927914 62.014556 
L 267.254364 62.243129 
L 267.580814 62.797441 
L 267.907265 62.870221 
L 268.07049 62.961276 
L 268.233715 63.249388 
L 268.39694 63.185004 
L 268.560165 63.573212 
L 268.886615 63.617305 
L 269.213065 63.687013 
L 269.37629 63.952011 
L 269.865965 63.613497 
L 270.02919 63.89621 
L 270.192415 63.798298 
L 270.68209 63.944432 
L 270.845315 64.135687 
L 271.00854 64.048758 
L 271.171765 64.127288 
L 271.33499 64.4432 
L 271.498215 64.337816 
L 271.824665 64.507001 
L 272.151115 64.169492 
L 272.477565 64.360468 
L 272.96724 64.08134 
L 273.130465 64.148187 
L 273.29369 64.008175 
L 273.456915 63.716749 
L 274.436265 63.86215 
L 274.59949 64.029856 
L 274.92594 63.871163 
L 275.415615 64.002147 
L 276.068515 63.604758 
L 276.23174 63.660128 
L 276.394965 63.247553 
L 276.55819 63.332756 
L 276.721415 63.113359 
L 276.88464 63.080496 
L 277.047865 63.304057 
L 277.53754 63.33689 
L 277.700765 63.069408 
L 278.19044 63.405305 
L 279.006565 63.158832 
L 279.333015 63.347088 
L 279.49624 63.460779 
L 279.659465 63.11351 
L 279.985915 63.282794 
L 280.14914 63.195104 
L 280.312365 63.251439 
L 280.47559 62.982664 
L 280.80204 62.992634 
L 281.12849 63.173414 
L 281.291715 63.122732 
L 281.45494 63.378471 
L 281.618165 63.357016 
L 281.78139 63.59938 
L 281.944615 63.500041 
L 282.271065 63.572803 
L 282.43429 63.537273 
L 282.597515 63.296754 
L 283.08719 63.312178 
L 283.250415 63.31718 
L 283.41364 63.573316 
L 283.576865 63.437307 
L 283.74009 63.549523 
L 284.066541 63.126913 
L 284.229766 63.254178 
L 284.392991 63.568274 
L 284.719441 63.247743 
L 284.882666 63.493189 
L 285.045891 63.248428 
L 285.372341 63.399674 
L 285.698791 63.337136 
L 285.862016 63.187842 
L 286.025241 63.28372 
L 286.678141 63.094555 
L 286.841366 63.140387 
L 287.004591 63.066446 
L 287.167816 63.312926 
L 287.331041 63.295264 
L 287.494266 63.550788 
L 287.657491 63.547733 
L 287.820716 63.206203 
L 288.147166 63.21195 
L 288.310391 63.139627 
L 288.473616 63.22497 
L 288.963291 62.856864 
L 289.452966 62.857002 
L 289.616191 62.69722 
L 289.779416 62.80726 
L 289.942641 62.727521 
L 290.105866 62.80754 
L 290.269091 62.704154 
L 290.432316 62.815515 
L 290.921991 62.57842 
L 291.085216 62.419994 
L 291.248441 62.428837 
L 291.574891 62.216904 
L 291.738116 62.449579 
L 292.227791 62.520438 
L 292.554241 62.770998 
L 292.880691 62.676861 
L 293.370366 62.850164 
L 293.533591 62.623774 
L 293.696816 62.668247 
L 294.023266 63.19386 
L 294.349716 63.137944 
L 294.512941 63.03341 
L 294.676166 63.076205 
L 294.839391 62.86222 
L 295.329066 63.044699 
L 295.655516 62.889804 
L 295.981966 62.930294 
L 296.145191 62.980067 
L 296.308416 62.80101 
L 296.471641 62.867473 
L 296.634866 62.736867 
L 296.961316 62.885617 
L 297.124541 62.806556 
L 297.450991 63.021993 
L 297.614216 62.879635 
L 297.777441 62.974917 
L 298.267116 62.524757 
L 298.430341 62.664706 
L 298.593566 62.580612 
L 298.756791 62.768744 
L 298.920016 62.663285 
L 299.246466 62.747129 
L 299.409691 62.715022 
L 299.572916 62.818068 
L 299.736142 62.775713 
L 299.899367 62.572217 
L 300.062592 62.800462 
L 300.389042 62.615042 
L 300.552267 62.929866 
L 300.715492 62.812153 
L 300.878717 62.420638 
L 301.205167 62.297832 
L 301.368392 62.03851 
L 301.531617 62.020205 
L 301.858067 61.729747 
L 302.021292 61.876577 
L 302.674192 61.791878 
L 302.837417 61.686214 
L 303.000642 61.742643 
L 303.163867 61.939578 
L 303.327092 61.926256 
L 303.979992 61.252939 
L 304.306442 61.632685 
L 304.632892 61.737312 
L 304.796117 61.918975 
L 304.959342 61.812973 
L 305.285792 62.003186 
L 305.938692 62.206952 
L 306.101917 62.445449 
L 306.591592 62.492787 
L 307.081267 62.810962 
L 307.570942 63.020382 
L 307.734167 63.009642 
L 308.060617 63.220176 
L 308.387067 63.184792 
L 308.876742 63.030591 
L 310.019317 63.619377 
L 310.672217 63.235526 
L 310.998667 63.208547 
L 311.161892 63.202395 
L 311.488342 63.530326 
L 311.651567 63.474346 
L 312.304467 63.738467 
L 312.467692 63.531489 
L 312.794142 63.738503 
L 314.099942 63.282063 
L 314.589617 63.378879 
L 314.916067 63.287337 
L 315.242517 63.188153 
L 315.405742 63.52195 
L 315.568968 63.538637 
L 316.058643 63.169654 
L 316.385093 63.213995 
L 316.548318 62.974156 
L 316.874768 62.874622 
L 317.037993 62.566519 
L 317.201218 62.53847 
L 317.364443 62.632709 
L 317.690893 62.973832 
L 317.854118 62.820265 
L 318.017343 62.98536 
L 318.343793 62.989378 
L 318.833468 62.430449 
L 318.996693 62.695729 
L 319.159918 62.714195 
L 319.323143 62.972833 
L 319.812818 62.57769 
L 320.139268 62.894165 
L 320.465718 62.670213 
L 320.792168 62.348023 
L 320.955393 62.429198 
L 321.281843 62.265424 
L 321.608293 62.209672 
L 321.771518 62.262512 
L 322.097968 61.805974 
L 322.914093 61.035552 
L 323.240543 61.090797 
L 323.403768 60.749478 
L 323.566993 60.808474 
L 324.219893 60.499676 
L 324.546343 60.671424 
L 324.709568 60.49999 
L 325.036018 60.568094 
L 325.199243 60.616595 
L 325.688918 60.356723 
L 325.852143 60.499316 
L 326.178593 60.247798 
L 326.505043 60.257633 
L 326.668268 60.356963 
L 326.831493 60.199183 
L 326.994718 60.27388 
L 327.157943 60.21608 
L 327.321168 60.343371 
L 327.810843 60.142205 
L 328.790193 59.688185 
L 329.116643 59.74512 
L 329.279868 59.578505 
L 330.095993 60.039714 
L 330.259218 59.998865 
L 330.585668 60.308492 
L 330.912118 60.107495 
L 331.565019 60.653512 
L 331.728244 60.561997 
L 332.054694 60.196615 
L 333.034044 60.316601 
L 333.197269 60.157089 
L 333.360494 60.375874 
L 333.523719 60.401741 
L 333.686944 60.636164 
L 333.850169 60.67102 
L 334.013394 60.491818 
L 334.339844 60.980534 
L 334.992744 60.971906 
L 335.319194 60.957024 
L 335.482419 60.753473 
L 335.645644 60.977531 
L 335.808869 60.721693 
L 336.461769 60.775766 
L 336.788219 60.692436 
L 337.114669 61.087738 
L 337.277894 61.174767 
L 337.767569 60.818502 
L 337.930794 60.8161 
L 338.746919 61.490633 
L 338.910144 61.3825 
L 339.563044 61.618566 
L 339.726269 61.542997 
L 339.889494 61.696569 
L 340.379169 61.46303 
L 340.705619 61.470474 
L 341.032069 61.172137 
L 341.358519 61.146286 
L 341.521744 61.311445 
L 341.684969 61.236517 
L 341.848194 61.374816 
L 342.174644 61.254401 
L 342.337869 61.113817 
L 342.501094 61.135627 
L 342.827544 60.951921 
L 343.480444 61.091818 
L 343.643669 61.198164 
L 343.806894 61.013199 
L 343.970119 61.089947 
L 344.133344 60.950539 
L 344.296569 61.044758 
L 344.459794 60.776436 
L 344.949469 60.939723 
L 345.112694 61.096587 
L 345.439144 61.17036 
L 346.255269 61.196679 
L 346.581719 61.042239 
L 346.908169 60.92792 
L 347.234619 60.620752 
L 347.397845 60.710708 
L 348.050745 60.388024 
L 348.377195 60.50838 
L 348.54042 60.422276 
L 348.703645 60.464316 
L 348.86687 60.359433 
L 349.682995 60.479944 
L 349.84622 60.339628 
L 350.009445 60.464818 
L 350.17267 60.115913 
L 350.49912 59.996151 
L 350.82557 59.726229 
L 351.15202 59.516926 
L 351.315245 59.480838 
L 351.47847 59.693936 
L 351.641695 59.685381 
L 351.80492 59.916846 
L 352.13137 59.590497 
L 352.45782 59.891876 
L 352.947495 59.781652 
L 353.11072 59.768563 
L 353.273945 59.869154 
L 354.09007 59.385092 
L 354.579745 59.69558 
L 354.74297 59.523471 
L 355.06942 59.544636 
L 355.232645 59.430419 
L 355.39587 59.692454 
L 355.559095 59.565876 
L 355.885545 59.715825 
L 356.04877 59.676534 
L 356.538445 60.238998 
L 357.68102 60.595654 
L 358.170695 60.442856 
L 358.33392 60.243511 
L 358.497145 60.497004 
L 358.98682 60.528309 
L 359.31327 60.46051 
L 359.63972 60.333325 
L 359.96617 60.349682 
L 360.455845 60.427132 
L 360.61907 60.566998 
L 360.782295 60.506933 
L 360.94552 60.771907 
L 361.59842 60.776557 
L 361.761645 60.920949 
L 361.92487 60.866387 
L 362.088095 60.672041 
L 363.230671 60.556255 
L 363.393896 60.328284 
L 363.720346 60.487445 
L 364.046796 60.317527 
L 364.210021 60.403559 
L 364.536471 60.019647 
L 364.699696 60.035291 
L 364.862921 60.218657 
L 365.026146 60.224584 
L 365.352596 60.802918 
L 365.679046 60.497482 
L 365.842271 60.36494 
L 366.005496 60.60681 
L 366.168721 60.555031 
L 366.331946 60.665197 
L 366.495171 60.621579 
L 366.658396 61.056451 
L 367.311296 61.243942 
L 367.637746 61.445216 
L 367.800971 61.962461 
L 367.964196 61.859972 
L 368.127421 62.127607 
L 368.290646 61.95979 
L 368.453871 62.118459 
L 368.943546 61.853978 
L 369.269996 62.026137 
L 369.433221 61.936682 
L 369.596446 62.043681 
L 370.086121 61.898711 
L 370.575796 62.09161 
L 371.065471 61.930672 
L 371.391921 61.744998 
L 371.555146 61.859916 
L 372.044821 61.642821 
L 372.208046 61.788833 
L 372.534496 61.73676 
L 372.860946 61.395524 
L 373.024171 61.153029 
L 373.350621 61.059448 
L 373.513846 61.347994 
L 373.840296 61.074492 
L 374.003521 61.185612 
L 374.166746 61.132823 
L 374.329971 61.229653 
L 374.819646 60.859902 
L 374.982871 60.596484 
L 375.472546 60.492979 
L 376.451896 60.689163 
L 376.778346 60.854937 
L 377.104796 60.624751 
L 377.594471 60.849595 
L 377.757696 61.04646 
L 378.084146 61.081247 
L 378.247371 60.93986 
L 378.410596 61.034257 
L 378.900271 60.735147 
L 379.226722 60.991212 
L 379.389947 61.090624 
L 379.553172 61.347615 
L 380.369297 61.255688 
L 380.695747 61.358131 
L 381.022197 61.678216 
L 381.185422 61.658628 
L 381.348647 61.508572 
L 381.511872 61.539188 
L 382.001547 61.219767 
L 382.164772 61.2293 
L 382.327997 61.374049 
L 382.491222 61.328444 
L 382.654447 61.482935 
L 383.307347 60.826716 
L 383.633797 60.627535 
L 384.123472 60.357924 
L 384.286697 59.958431 
L 384.449922 59.999838 
L 384.613147 59.831937 
L 385.102822 60.045907 
L 385.429272 60.092262 
L 385.592497 59.982906 
L 385.918947 60.095515 
L 386.245397 59.880464 
L 386.898297 59.791272 
L 387.224747 59.799749 
L 387.551197 59.688276 
L 387.714422 59.791895 
L 388.204097 59.767166 
L 388.693772 59.928362 
L 388.856997 59.872463 
L 389.183447 59.961384 
L 389.509897 59.857694 
L 389.836347 59.990151 
L 389.999572 59.559939 
L 390.815697 59.523303 
L 391.305372 59.890276 
L 392.611172 59.842961 
L 393.100847 59.457515 
L 393.427297 59.495314 
L 394.080197 59.025966 
L 394.243422 58.693038 
L 394.406647 58.626499 
L 394.569872 58.403821 
L 395.385998 58.22611 
L 395.549223 58.009684 
L 395.875673 58.005734 
L 396.365348 57.761076 
L 396.528573 57.704304 
L 396.855023 57.876057 
L 397.018248 57.885564 
L 397.181473 58.033739 
L 397.507923 57.85523 
L 397.997598 57.737207 
L 398.487273 57.635581 
L 398.487273 57.635581 
" clip-path="url(#p6d397f2e95)" style="fill: none; stroke: #ff7f0e; stroke-width: 1.5; stroke-linecap: square"/>
   </g>
   <g id="patch_3">
    <path d="M 57.6 307.584 
L 57.6 41.472 
" style="fill: none; stroke: #000000; stroke-width: 0.8; stroke-linejoin: miter; stroke-linecap: square"/>
   </g>
   <g id="patch_4">
    <path d="M 414.72 307.584 
L 414.72 41.472 
" style="fill: none; stroke: #000000; stroke-width: 0.8; stroke-linejoin: miter; stroke-linecap: square"/>
   </g>
   <g id="patch_5">
    <path d="M 57.6 307.584 
L 414.72 307.584 
" style="fill: none; stroke: #000000; stroke-width: 0.8; stroke-linejoin: miter; stroke-linecap: square"/>
   </g>
   <g id="patch_6">
    <path d="M 57.6 41.472 
L 414.72 41.472 
" style="fill: none; stroke: #000000; stroke-width: 0.8; stroke-linejoin: miter; stroke-linecap: square"/>
   </g>
   <g id="text_16">
    <!-- Rolling average training progress of profits/all -->
    <g transform="translate(98.855625 35.472)scale(0.12 -0.12)">
     <defs>
      <path id="DejaVuSans-52" d="M 2841 2188 
Q 3044 2119 3236 1894 
Q 3428 1669 3622 1275 
L 4263 0 
L 3584 0 
L 2988 1197 
Q 2756 1666 2539 1819 
Q 2322 1972 1947 1972 
L 1259 1972 
L 1259 0 
L 628 0 
L 628 4666 
L 2053 4666 
Q 2853 4666 3247 4331 
Q 3641 3997 3641 3322 
Q 3641 2881 3436 2590 
Q 3231 2300 2841 2188 
z
M 1259 4147 
L 1259 2491 
L 2053 2491 
Q 2509 2491 2742 2702 
Q 2975 2913 2975 3322 
Q 2975 3731 2742 3939 
Q 2509 4147 2053 4147 
L 1259 4147 
z
" transform="scale(0.015625)"/>
      <path id="DejaVuSans-6e" d="M 3513 2113 
L 3513 0 
L 2938 0 
L 2938 2094 
Q 2938 2591 2744 2837 
Q 2550 3084 2163 3084 
Q 1697 3084 1428 2787 
Q 1159 2491 1159 1978 
L 1159 0 
L 581 0 
L 581 3500 
L 1159 3500 
L 1159 2956 
Q 1366 3272 1645 3428 
Q 1925 3584 2291 3584 
Q 2894 3584 3203 3211 
Q 3513 2838 3513 2113 
z
" transform="scale(0.015625)"/>
      <path id="DejaVuSans-67" d="M 2906 1791 
Q 2906 2416 2648 2759 
Q 2391 3103 1925 3103 
Q 1463 3103 1205 2759 
Q 947 2416 947 1791 
Q 947 1169 1205 825 
Q 1463 481 1925 481 
Q 2391 481 2648 825 
Q 2906 1169 2906 1791 
z
M 3481 434 
Q 3481 -459 3084 -895 
Q 2688 -1331 1869 -1331 
Q 1566 -1331 1297 -1286 
Q 1028 -1241 775 -1147 
L 775 -588 
Q 1028 -725 1275 -790 
Q 1522 -856 1778 -856 
Q 2344 -856 2625 -561 
Q 2906 -266 2906 331 
L 2906 616 
Q 2728 306 2450 153 
Q 2172 0 1784 0 
Q 1141 0 747 490 
Q 353 981 353 1791 
Q 353 2603 747 3093 
Q 1141 3584 1784 3584 
Q 2172 3584 2450 3431 
Q 2728 3278 2906 2969 
L 2906 3500 
L 3481 3500 
L 3481 434 
z
" transform="scale(0.015625)"/>
      <path id="DejaVuSans-20" transform="scale(0.015625)"/>
      <path id="DejaVuSans-76" d="M 191 3500 
L 800 3500 
L 1894 563 
L 2988 3500 
L 3597 3500 
L 2284 0 
L 1503 0 
L 191 3500 
z
" transform="scale(0.015625)"/>
     </defs>
     <use xlink:href="#DejaVuSans-52"/>
     <use xlink:href="#DejaVuSans-6f" x="64.982422"/>
     <use xlink:href="#DejaVuSans-6c" x="126.164062"/>
     <use xlink:href="#DejaVuSans-6c" x="153.947266"/>
     <use xlink:href="#DejaVuSans-69" x="181.730469"/>
     <use xlink:href="#DejaVuSans-6e" x="209.513672"/>
     <use xlink:href="#DejaVuSans-67" x="272.892578"/>
     <use xlink:href="#DejaVuSans-20" x="336.369141"/>
     <use xlink:href="#DejaVuSans-61" x="368.15625"/>
     <use xlink:href="#DejaVuSans-76" x="429.435547"/>
     <use xlink:href="#DejaVuSans-65" x="488.615234"/>
     <use xlink:href="#DejaVuSans-72" x="550.138672"/>
     <use xlink:href="#DejaVuSans-61" x="591.251953"/>
     <use xlink:href="#DejaVuSans-67" x="652.53125"/>
     <use xlink:href="#DejaVuSans-65" x="716.007812"/>
     <use xlink:href="#DejaVuSans-20" x="777.53125"/>
     <use xlink:href="#DejaVuSans-74" x="809.318359"/>
     <use xlink:href="#DejaVuSans-72" x="848.527344"/>
     <use xlink:href="#DejaVuSans-61" x="889.640625"/>
     <use xlink:href="#DejaVuSans-69" x="950.919922"/>
     <use xlink:href="#DejaVuSans-6e" x="978.703125"/>
     <use xlink:href="#DejaVuSans-69" x="1042.082031"/>
     <use xlink:href="#DejaVuSans-6e" x="1069.865234"/>
     <use xlink:href="#DejaVuSans-67" x="1133.244141"/>
     <use xlink:href="#DejaVuSans-20" x="1196.720703"/>
     <use xlink:href="#DejaVuSans-70" x="1228.507812"/>
     <use xlink:href="#DejaVuSans-72" x="1291.984375"/>
     <use xlink:href="#DejaVuSans-6f" x="1330.847656"/>
     <use xlink:href="#DejaVuSans-67" x="1392.029297"/>
     <use xlink:href="#DejaVuSans-72" x="1455.505859"/>
     <use xlink:href="#DejaVuSans-65" x="1494.369141"/>
     <use xlink:href="#DejaVuSans-73" x="1555.892578"/>
     <use xlink:href="#DejaVuSans-73" x="1607.992188"/>
     <use xlink:href="#DejaVuSans-20" x="1660.091797"/>
     <use xlink:href="#DejaVuSans-6f" x="1691.878906"/>
     <use xlink:href="#DejaVuSans-66" x="1753.060547"/>
     <use xlink:href="#DejaVuSans-20" x="1788.265625"/>
     <use xlink:href="#DejaVuSans-70" x="1820.052734"/>
     <use xlink:href="#DejaVuSans-72" x="1883.529297"/>
     <use xlink:href="#DejaVuSans-6f" x="1922.392578"/>
     <use xlink:href="#DejaVuSans-66" x="1983.574219"/>
     <use xlink:href="#DejaVuSans-69" x="2018.779297"/>
     <use xlink:href="#DejaVuSans-74" x="2046.5625"/>
     <use xlink:href="#DejaVuSans-73" x="2085.771484"/>
     <use xlink:href="#DejaVuSans-2f" x="2137.871094"/>
     <use xlink:href="#DejaVuSans-61" x="2171.5625"/>
     <use xlink:href="#DejaVuSans-6c" x="2232.841797"/>
     <use xlink:href="#DejaVuSans-6c" x="2260.625"/>
    </g>
   </g>
   <g id="legend_1">
    <g id="patch_7">
     <path d="M 188.2825 302.584 
L 407.72 302.584 
Q 409.72 302.584 409.72 300.584 
L 409.72 272.22775 
Q 409.72 270.22775 407.72 270.22775 
L 188.2825 270.22775 
Q 186.2825 270.22775 186.2825 272.22775 
L 186.2825 300.584 
Q 186.2825 302.584 188.2825 302.584 
z
" style="fill: #ffffff; opacity: 0.8; stroke: #cccccc; stroke-linejoin: miter"/>
    </g>
    <g id="line2d_29">
     <path d="M 190.2825 278.326187 
L 200.2825 278.326187 
L 210.2825 278.326187 
" style="fill: none; stroke: #1f77b4; stroke-width: 1.5; stroke-linecap: square"/>
    </g>
    <g id="text_17">
     <!-- StableBaselinesSAC -->
     <g transform="translate(218.2825 281.826187)scale(0.1 -0.1)">
      <defs>
       <path id="DejaVuSans-53" d="M 3425 4513 
L 3425 3897 
Q 3066 4069 2747 4153 
Q 2428 4238 2131 4238 
Q 1616 4238 1336 4038 
Q 1056 3838 1056 3469 
Q 1056 3159 1242 3001 
Q 1428 2844 1947 2747 
L 2328 2669 
Q 3034 2534 3370 2195 
Q 3706 1856 3706 1288 
Q 3706 609 3251 259 
Q 2797 -91 1919 -91 
Q 1588 -91 1214 -16 
Q 841 59 441 206 
L 441 856 
Q 825 641 1194 531 
Q 1563 422 1919 422 
Q 2459 422 2753 634 
Q 3047 847 3047 1241 
Q 3047 1584 2836 1778 
Q 2625 1972 2144 2069 
L 1759 2144 
Q 1053 2284 737 2584 
Q 422 2884 422 3419 
Q 422 4038 858 4394 
Q 1294 4750 2059 4750 
Q 2388 4750 2728 4690 
Q 3069 4631 3425 4513 
z
" transform="scale(0.015625)"/>
       <path id="DejaVuSans-62" d="M 3116 1747 
Q 3116 2381 2855 2742 
Q 2594 3103 2138 3103 
Q 1681 3103 1420 2742 
Q 1159 2381 1159 1747 
Q 1159 1113 1420 752 
Q 1681 391 2138 391 
Q 2594 391 2855 752 
Q 3116 1113 3116 1747 
z
M 1159 2969 
Q 1341 3281 1617 3432 
Q 1894 3584 2278 3584 
Q 2916 3584 3314 3078 
Q 3713 2572 3713 1747 
Q 3713 922 3314 415 
Q 2916 -91 2278 -91 
Q 1894 -91 1617 61 
Q 1341 213 1159 525 
L 1159 0 
L 581 0 
L 581 4863 
L 1159 4863 
L 1159 2969 
z
" transform="scale(0.015625)"/>
       <path id="DejaVuSans-42" d="M 1259 2228 
L 1259 519 
L 2272 519 
Q 2781 519 3026 730 
Q 3272 941 3272 1375 
Q 3272 1813 3026 2020 
Q 2781 2228 2272 2228 
L 1259 2228 
z
M 1259 4147 
L 1259 2741 
L 2194 2741 
Q 2656 2741 2882 2914 
Q 3109 3088 3109 3444 
Q 3109 3797 2882 3972 
Q 2656 4147 2194 4147 
L 1259 4147 
z
M 628 4666 
L 2241 4666 
Q 2963 4666 3353 4366 
Q 3744 4066 3744 3513 
Q 3744 3084 3544 2831 
Q 3344 2578 2956 2516 
Q 3422 2416 3680 2098 
Q 3938 1781 3938 1306 
Q 3938 681 3513 340 
Q 3088 0 2303 0 
L 628 0 
L 628 4666 
z
" transform="scale(0.015625)"/>
       <path id="DejaVuSans-41" d="M 2188 4044 
L 1331 1722 
L 3047 1722 
L 2188 4044 
z
M 1831 4666 
L 2547 4666 
L 4325 0 
L 3669 0 
L 3244 1197 
L 1141 1197 
L 716 0 
L 50 0 
L 1831 4666 
z
" transform="scale(0.015625)"/>
       <path id="DejaVuSans-43" d="M 4122 4306 
L 4122 3641 
Q 3803 3938 3442 4084 
Q 3081 4231 2675 4231 
Q 1875 4231 1450 3742 
Q 1025 3253 1025 2328 
Q 1025 1406 1450 917 
Q 1875 428 2675 428 
Q 3081 428 3442 575 
Q 3803 722 4122 1019 
L 4122 359 
Q 3791 134 3420 21 
Q 3050 -91 2638 -91 
Q 1578 -91 968 557 
Q 359 1206 359 2328 
Q 359 3453 968 4101 
Q 1578 4750 2638 4750 
Q 3056 4750 3426 4639 
Q 3797 4528 4122 4306 
z
" transform="scale(0.015625)"/>
      </defs>
      <use xlink:href="#DejaVuSans-53"/>
      <use xlink:href="#DejaVuSans-74" x="63.476562"/>
      <use xlink:href="#DejaVuSans-61" x="102.685547"/>
      <use xlink:href="#DejaVuSans-62" x="163.964844"/>
      <use xlink:href="#DejaVuSans-6c" x="227.441406"/>
      <use xlink:href="#DejaVuSans-65" x="255.224609"/>
      <use xlink:href="#DejaVuSans-42" x="316.748047"/>
      <use xlink:href="#DejaVuSans-61" x="385.351562"/>
      <use xlink:href="#DejaVuSans-73" x="446.630859"/>
      <use xlink:href="#DejaVuSans-65" x="498.730469"/>
      <use xlink:href="#DejaVuSans-6c" x="560.253906"/>
      <use xlink:href="#DejaVuSans-69" x="588.037109"/>
      <use xlink:href="#DejaVuSans-6e" x="615.820312"/>
      <use xlink:href="#DejaVuSans-65" x="679.199219"/>
      <use xlink:href="#DejaVuSans-73" x="740.722656"/>
      <use xlink:href="#DejaVuSans-53" x="792.822266"/>
      <use xlink:href="#DejaVuSans-41" x="858.173828"/>
      <use xlink:href="#DejaVuSans-43" x="924.832031"/>
     </g>
    </g>
    <g id="line2d_30">
     <path d="M 190.2825 293.004312 
L 200.2825 293.004312 
L 210.2825 293.004312 
" style="fill: none; stroke: #ff7f0e; stroke-width: 1.5; stroke-linecap: square"/>
    </g>
    <g id="text_18">
     <!-- RuleBasedCERebuyAgentCompetitive -->
     <g transform="translate(218.2825 296.504312)scale(0.1 -0.1)">
      <defs>
       <path id="DejaVuSans-75" d="M 544 1381 
L 544 3500 
L 1119 3500 
L 1119 1403 
Q 1119 906 1312 657 
Q 1506 409 1894 409 
Q 2359 409 2629 706 
Q 2900 1003 2900 1516 
L 2900 3500 
L 3475 3500 
L 3475 0 
L 2900 0 
L 2900 538 
Q 2691 219 2414 64 
Q 2138 -91 1772 -91 
Q 1169 -91 856 284 
Q 544 659 544 1381 
z
M 1991 3584 
L 1991 3584 
z
" transform="scale(0.015625)"/>
       <path id="DejaVuSans-79" d="M 2059 -325 
Q 1816 -950 1584 -1140 
Q 1353 -1331 966 -1331 
L 506 -1331 
L 506 -850 
L 844 -850 
Q 1081 -850 1212 -737 
Q 1344 -625 1503 -206 
L 1606 56 
L 191 3500 
L 800 3500 
L 1894 763 
L 2988 3500 
L 3597 3500 
L 2059 -325 
z
" transform="scale(0.015625)"/>
       <path id="DejaVuSans-6d" d="M 3328 2828 
Q 3544 3216 3844 3400 
Q 4144 3584 4550 3584 
Q 5097 3584 5394 3201 
Q 5691 2819 5691 2113 
L 5691 0 
L 5113 0 
L 5113 2094 
Q 5113 2597 4934 2840 
Q 4756 3084 4391 3084 
Q 3944 3084 3684 2787 
Q 3425 2491 3425 1978 
L 3425 0 
L 2847 0 
L 2847 2094 
Q 2847 2600 2669 2842 
Q 2491 3084 2119 3084 
Q 1678 3084 1418 2786 
Q 1159 2488 1159 1978 
L 1159 0 
L 581 0 
L 581 3500 
L 1159 3500 
L 1159 2956 
Q 1356 3278 1631 3431 
Q 1906 3584 2284 3584 
Q 2666 3584 2933 3390 
Q 3200 3197 3328 2828 
z
" transform="scale(0.015625)"/>
      </defs>
      <use xlink:href="#DejaVuSans-52"/>
      <use xlink:href="#DejaVuSans-75" x="64.982422"/>
      <use xlink:href="#DejaVuSans-6c" x="128.361328"/>
      <use xlink:href="#DejaVuSans-65" x="156.144531"/>
      <use xlink:href="#DejaVuSans-42" x="217.667969"/>
      <use xlink:href="#DejaVuSans-61" x="286.271484"/>
      <use xlink:href="#DejaVuSans-73" x="347.550781"/>
      <use xlink:href="#DejaVuSans-65" x="399.650391"/>
      <use xlink:href="#DejaVuSans-64" x="461.173828"/>
      <use xlink:href="#DejaVuSans-43" x="524.650391"/>
      <use xlink:href="#DejaVuSans-45" x="594.474609"/>
      <use xlink:href="#DejaVuSans-52" x="657.658203"/>
      <use xlink:href="#DejaVuSans-65" x="722.640625"/>
      <use xlink:href="#DejaVuSans-62" x="784.164062"/>
      <use xlink:href="#DejaVuSans-75" x="847.640625"/>
      <use xlink:href="#DejaVuSans-79" x="911.019531"/>
      <use xlink:href="#DejaVuSans-41" x="970.199219"/>
      <use xlink:href="#DejaVuSans-67" x="1038.607422"/>
      <use xlink:href="#DejaVuSans-65" x="1102.083984"/>
      <use xlink:href="#DejaVuSans-6e" x="1163.607422"/>
      <use xlink:href="#DejaVuSans-74" x="1226.986328"/>
      <use xlink:href="#DejaVuSans-43" x="1266.195312"/>
      <use xlink:href="#DejaVuSans-6f" x="1336.019531"/>
      <use xlink:href="#DejaVuSans-6d" x="1397.201172"/>
      <use xlink:href="#DejaVuSans-70" x="1494.613281"/>
      <use xlink:href="#DejaVuSans-65" x="1558.089844"/>
      <use xlink:href="#DejaVuSans-74" x="1619.613281"/>
      <use xlink:href="#DejaVuSans-69" x="1658.822266"/>
      <use xlink:href="#DejaVuSans-74" x="1686.605469"/>
      <use xlink:href="#DejaVuSans-69" x="1725.814453"/>
      <use xlink:href="#DejaVuSans-76" x="1753.597656"/>
      <use xlink:href="#DejaVuSans-65" x="1812.777344"/>
     </g>
    </g>
   </g>
  </g>
 </g>
 <defs>
  <clipPath id="p6d397f2e95">
   <rect x="57.6" y="41.472" width="357.12" height="266.112"/>
  </clipPath>
 </defs>
</svg>
