<?xml version="1.0" encoding="utf-8" standalone="no"?>
<!DOCTYPE svg PUBLIC "-//W3C//DTD SVG 1.1//EN"
  "http://www.w3.org/Graphics/SVG/1.1/DTD/svg11.dtd">
<svg xmlns:xlink="http://www.w3.org/1999/xlink" width="460.8pt" height="345.6pt" viewBox="0 0 460.8 345.6" xmlns="http://www.w3.org/2000/svg" version="1.1">
 <metadata>
  <rdf:RDF xmlns:dc="http://purl.org/dc/elements/1.1/" xmlns:cc="http://creativecommons.org/ns#" xmlns:rdf="http://www.w3.org/1999/02/22-rdf-syntax-ns#">
   <cc:Work>
    <dc:type rdf:resource="http://purl.org/dc/dcmitype/StillImage"/>
    <dc:date>2022-06-20T18:27:35.610757</dc:date>
    <dc:format>image/svg+xml</dc:format>
    <dc:creator>
     <cc:Agent>
      <dc:title>Matplotlib v3.5.2, https://matplotlib.org/</dc:title>
     </cc:Agent>
    </dc:creator>
   </cc:Work>
  </rdf:RDF>
 </metadata>
 <defs>
  <style type="text/css">*{stroke-linejoin: round; stroke-linecap: butt}</style>
 </defs>
 <g id="figure_1">
  <g id="patch_1">
   <path d="M 0 345.6 
L 460.8 345.6 
L 460.8 0 
L 0 0 
L 0 345.6 
z
" style="fill: none"/>
  </g>
  <g id="axes_1">
   <g id="patch_2">
    <path d="M 57.6 307.584 
L 414.72 307.584 
L 414.72 41.472 
L 57.6 41.472 
L 57.6 307.584 
z
" style="fill: none"/>
   </g>
   <g id="matplotlib.axis_1">
    <g id="xtick_1">
     <g id="line2d_1">
      <path d="M 72.200477 307.584 
L 72.200477 41.472 
" clip-path="url(#p90c5c2513d)" style="fill: none; stroke-dasharray: 2.96,1.28; stroke-dashoffset: 0; stroke: #b0b0b0; stroke-width: 0.8"/>
     </g>
     <g id="line2d_2">
      <defs>
       <path id="m538ec2fed0" d="M 0 0 
L 0 3.5 
" style="stroke: #000000; stroke-width: 0.8"/>
      </defs>
      <g>
       <use xlink:href="#m538ec2fed0" x="72.200477" y="307.584" style="stroke: #000000; stroke-width: 0.8"/>
      </g>
     </g>
     <g id="text_1">
      <!-- 0 -->
      <g transform="translate(69.019227 322.182437)scale(0.1 -0.1)">
       <defs>
        <path id="DejaVuSans-30" d="M 2034 4250 
Q 1547 4250 1301 3770 
Q 1056 3291 1056 2328 
Q 1056 1369 1301 889 
Q 1547 409 2034 409 
Q 2525 409 2770 889 
Q 3016 1369 3016 2328 
Q 3016 3291 2770 3770 
Q 2525 4250 2034 4250 
z
M 2034 4750 
Q 2819 4750 3233 4129 
Q 3647 3509 3647 2328 
Q 3647 1150 3233 529 
Q 2819 -91 2034 -91 
Q 1250 -91 836 529 
Q 422 1150 422 2328 
Q 422 3509 836 4129 
Q 1250 4750 2034 4750 
z
" transform="scale(0.015625)"/>
       </defs>
       <use xlink:href="#DejaVuSans-30"/>
      </g>
     </g>
    </g>
    <g id="xtick_2">
     <g id="line2d_3">
      <path d="M 113.00673 307.584 
L 113.00673 41.472 
" clip-path="url(#p90c5c2513d)" style="fill: none; stroke-dasharray: 2.96,1.28; stroke-dashoffset: 0; stroke: #b0b0b0; stroke-width: 0.8"/>
     </g>
     <g id="line2d_4">
      <g>
       <use xlink:href="#m538ec2fed0" x="113.00673" y="307.584" style="stroke: #000000; stroke-width: 0.8"/>
      </g>
     </g>
     <g id="text_2">
      <!-- 250 -->
      <g transform="translate(103.46298 322.182437)scale(0.1 -0.1)">
       <defs>
        <path id="DejaVuSans-32" d="M 1228 531 
L 3431 531 
L 3431 0 
L 469 0 
L 469 531 
Q 828 903 1448 1529 
Q 2069 2156 2228 2338 
Q 2531 2678 2651 2914 
Q 2772 3150 2772 3378 
Q 2772 3750 2511 3984 
Q 2250 4219 1831 4219 
Q 1534 4219 1204 4116 
Q 875 4013 500 3803 
L 500 4441 
Q 881 4594 1212 4672 
Q 1544 4750 1819 4750 
Q 2544 4750 2975 4387 
Q 3406 4025 3406 3419 
Q 3406 3131 3298 2873 
Q 3191 2616 2906 2266 
Q 2828 2175 2409 1742 
Q 1991 1309 1228 531 
z
" transform="scale(0.015625)"/>
        <path id="DejaVuSans-35" d="M 691 4666 
L 3169 4666 
L 3169 4134 
L 1269 4134 
L 1269 2991 
Q 1406 3038 1543 3061 
Q 1681 3084 1819 3084 
Q 2600 3084 3056 2656 
Q 3513 2228 3513 1497 
Q 3513 744 3044 326 
Q 2575 -91 1722 -91 
Q 1428 -91 1123 -41 
Q 819 9 494 109 
L 494 744 
Q 775 591 1075 516 
Q 1375 441 1709 441 
Q 2250 441 2565 725 
Q 2881 1009 2881 1497 
Q 2881 1984 2565 2268 
Q 2250 2553 1709 2553 
Q 1456 2553 1204 2497 
Q 953 2441 691 2322 
L 691 4666 
z
" transform="scale(0.015625)"/>
       </defs>
       <use xlink:href="#DejaVuSans-32"/>
       <use xlink:href="#DejaVuSans-35" x="63.623047"/>
       <use xlink:href="#DejaVuSans-30" x="127.246094"/>
      </g>
     </g>
    </g>
    <g id="xtick_3">
     <g id="line2d_5">
      <path d="M 153.812982 307.584 
L 153.812982 41.472 
" clip-path="url(#p90c5c2513d)" style="fill: none; stroke-dasharray: 2.96,1.28; stroke-dashoffset: 0; stroke: #b0b0b0; stroke-width: 0.8"/>
     </g>
     <g id="line2d_6">
      <g>
       <use xlink:href="#m538ec2fed0" x="153.812982" y="307.584" style="stroke: #000000; stroke-width: 0.8"/>
      </g>
     </g>
     <g id="text_3">
      <!-- 500 -->
      <g transform="translate(144.269232 322.182437)scale(0.1 -0.1)">
       <use xlink:href="#DejaVuSans-35"/>
       <use xlink:href="#DejaVuSans-30" x="63.623047"/>
       <use xlink:href="#DejaVuSans-30" x="127.246094"/>
      </g>
     </g>
    </g>
    <g id="xtick_4">
     <g id="line2d_7">
      <path d="M 194.619235 307.584 
L 194.619235 41.472 
" clip-path="url(#p90c5c2513d)" style="fill: none; stroke-dasharray: 2.96,1.28; stroke-dashoffset: 0; stroke: #b0b0b0; stroke-width: 0.8"/>
     </g>
     <g id="line2d_8">
      <g>
       <use xlink:href="#m538ec2fed0" x="194.619235" y="307.584" style="stroke: #000000; stroke-width: 0.8"/>
      </g>
     </g>
     <g id="text_4">
      <!-- 750 -->
      <g transform="translate(185.075485 322.182437)scale(0.1 -0.1)">
       <defs>
        <path id="DejaVuSans-37" d="M 525 4666 
L 3525 4666 
L 3525 4397 
L 1831 0 
L 1172 0 
L 2766 4134 
L 525 4134 
L 525 4666 
z
" transform="scale(0.015625)"/>
       </defs>
       <use xlink:href="#DejaVuSans-37"/>
       <use xlink:href="#DejaVuSans-35" x="63.623047"/>
       <use xlink:href="#DejaVuSans-30" x="127.246094"/>
      </g>
     </g>
    </g>
    <g id="xtick_5">
     <g id="line2d_9">
      <path d="M 235.425487 307.584 
L 235.425487 41.472 
" clip-path="url(#p90c5c2513d)" style="fill: none; stroke-dasharray: 2.96,1.28; stroke-dashoffset: 0; stroke: #b0b0b0; stroke-width: 0.8"/>
     </g>
     <g id="line2d_10">
      <g>
       <use xlink:href="#m538ec2fed0" x="235.425487" y="307.584" style="stroke: #000000; stroke-width: 0.8"/>
      </g>
     </g>
     <g id="text_5">
      <!-- 1000 -->
      <g transform="translate(222.700487 322.182437)scale(0.1 -0.1)">
       <defs>
        <path id="DejaVuSans-31" d="M 794 531 
L 1825 531 
L 1825 4091 
L 703 3866 
L 703 4441 
L 1819 4666 
L 2450 4666 
L 2450 531 
L 3481 531 
L 3481 0 
L 794 0 
L 794 531 
z
" transform="scale(0.015625)"/>
       </defs>
       <use xlink:href="#DejaVuSans-31"/>
       <use xlink:href="#DejaVuSans-30" x="63.623047"/>
       <use xlink:href="#DejaVuSans-30" x="127.246094"/>
       <use xlink:href="#DejaVuSans-30" x="190.869141"/>
      </g>
     </g>
    </g>
    <g id="xtick_6">
     <g id="line2d_11">
      <path d="M 276.23174 307.584 
L 276.23174 41.472 
" clip-path="url(#p90c5c2513d)" style="fill: none; stroke-dasharray: 2.96,1.28; stroke-dashoffset: 0; stroke: #b0b0b0; stroke-width: 0.8"/>
     </g>
     <g id="line2d_12">
      <g>
       <use xlink:href="#m538ec2fed0" x="276.23174" y="307.584" style="stroke: #000000; stroke-width: 0.8"/>
      </g>
     </g>
     <g id="text_6">
      <!-- 1250 -->
      <g transform="translate(263.50674 322.182437)scale(0.1 -0.1)">
       <use xlink:href="#DejaVuSans-31"/>
       <use xlink:href="#DejaVuSans-32" x="63.623047"/>
       <use xlink:href="#DejaVuSans-35" x="127.246094"/>
       <use xlink:href="#DejaVuSans-30" x="190.869141"/>
      </g>
     </g>
    </g>
    <g id="xtick_7">
     <g id="line2d_13">
      <path d="M 317.037993 307.584 
L 317.037993 41.472 
" clip-path="url(#p90c5c2513d)" style="fill: none; stroke-dasharray: 2.96,1.28; stroke-dashoffset: 0; stroke: #b0b0b0; stroke-width: 0.8"/>
     </g>
     <g id="line2d_14">
      <g>
       <use xlink:href="#m538ec2fed0" x="317.037993" y="307.584" style="stroke: #000000; stroke-width: 0.8"/>
      </g>
     </g>
     <g id="text_7">
      <!-- 1500 -->
      <g transform="translate(304.312993 322.182437)scale(0.1 -0.1)">
       <use xlink:href="#DejaVuSans-31"/>
       <use xlink:href="#DejaVuSans-35" x="63.623047"/>
       <use xlink:href="#DejaVuSans-30" x="127.246094"/>
       <use xlink:href="#DejaVuSans-30" x="190.869141"/>
      </g>
     </g>
    </g>
    <g id="xtick_8">
     <g id="line2d_15">
      <path d="M 357.844245 307.584 
L 357.844245 41.472 
" clip-path="url(#p90c5c2513d)" style="fill: none; stroke-dasharray: 2.96,1.28; stroke-dashoffset: 0; stroke: #b0b0b0; stroke-width: 0.8"/>
     </g>
     <g id="line2d_16">
      <g>
       <use xlink:href="#m538ec2fed0" x="357.844245" y="307.584" style="stroke: #000000; stroke-width: 0.8"/>
      </g>
     </g>
     <g id="text_8">
      <!-- 1750 -->
      <g transform="translate(345.119245 322.182437)scale(0.1 -0.1)">
       <use xlink:href="#DejaVuSans-31"/>
       <use xlink:href="#DejaVuSans-37" x="63.623047"/>
       <use xlink:href="#DejaVuSans-35" x="127.246094"/>
       <use xlink:href="#DejaVuSans-30" x="190.869141"/>
      </g>
     </g>
    </g>
    <g id="xtick_9">
     <g id="line2d_17">
      <path d="M 398.650498 307.584 
L 398.650498 41.472 
" clip-path="url(#p90c5c2513d)" style="fill: none; stroke-dasharray: 2.96,1.28; stroke-dashoffset: 0; stroke: #b0b0b0; stroke-width: 0.8"/>
     </g>
     <g id="line2d_18">
      <g>
       <use xlink:href="#m538ec2fed0" x="398.650498" y="307.584" style="stroke: #000000; stroke-width: 0.8"/>
      </g>
     </g>
     <g id="text_9">
      <!-- 2000 -->
      <g transform="translate(385.925498 322.182437)scale(0.1 -0.1)">
       <use xlink:href="#DejaVuSans-32"/>
       <use xlink:href="#DejaVuSans-30" x="63.623047"/>
       <use xlink:href="#DejaVuSans-30" x="127.246094"/>
       <use xlink:href="#DejaVuSans-30" x="190.869141"/>
      </g>
     </g>
    </g>
    <g id="text_10">
     <!-- Episode -->
     <g transform="translate(216.5225 335.860562)scale(0.1 -0.1)">
      <defs>
       <path id="DejaVuSans-45" d="M 628 4666 
L 3578 4666 
L 3578 4134 
L 1259 4134 
L 1259 2753 
L 3481 2753 
L 3481 2222 
L 1259 2222 
L 1259 531 
L 3634 531 
L 3634 0 
L 628 0 
L 628 4666 
z
" transform="scale(0.015625)"/>
       <path id="DejaVuSans-70" d="M 1159 525 
L 1159 -1331 
L 581 -1331 
L 581 3500 
L 1159 3500 
L 1159 2969 
Q 1341 3281 1617 3432 
Q 1894 3584 2278 3584 
Q 2916 3584 3314 3078 
Q 3713 2572 3713 1747 
Q 3713 922 3314 415 
Q 2916 -91 2278 -91 
Q 1894 -91 1617 61 
Q 1341 213 1159 525 
z
M 3116 1747 
Q 3116 2381 2855 2742 
Q 2594 3103 2138 3103 
Q 1681 3103 1420 2742 
Q 1159 2381 1159 1747 
Q 1159 1113 1420 752 
Q 1681 391 2138 391 
Q 2594 391 2855 752 
Q 3116 1113 3116 1747 
z
" transform="scale(0.015625)"/>
       <path id="DejaVuSans-69" d="M 603 3500 
L 1178 3500 
L 1178 0 
L 603 0 
L 603 3500 
z
M 603 4863 
L 1178 4863 
L 1178 4134 
L 603 4134 
L 603 4863 
z
" transform="scale(0.015625)"/>
       <path id="DejaVuSans-73" d="M 2834 3397 
L 2834 2853 
Q 2591 2978 2328 3040 
Q 2066 3103 1784 3103 
Q 1356 3103 1142 2972 
Q 928 2841 928 2578 
Q 928 2378 1081 2264 
Q 1234 2150 1697 2047 
L 1894 2003 
Q 2506 1872 2764 1633 
Q 3022 1394 3022 966 
Q 3022 478 2636 193 
Q 2250 -91 1575 -91 
Q 1294 -91 989 -36 
Q 684 19 347 128 
L 347 722 
Q 666 556 975 473 
Q 1284 391 1588 391 
Q 1994 391 2212 530 
Q 2431 669 2431 922 
Q 2431 1156 2273 1281 
Q 2116 1406 1581 1522 
L 1381 1569 
Q 847 1681 609 1914 
Q 372 2147 372 2553 
Q 372 3047 722 3315 
Q 1072 3584 1716 3584 
Q 2034 3584 2315 3537 
Q 2597 3491 2834 3397 
z
" transform="scale(0.015625)"/>
       <path id="DejaVuSans-6f" d="M 1959 3097 
Q 1497 3097 1228 2736 
Q 959 2375 959 1747 
Q 959 1119 1226 758 
Q 1494 397 1959 397 
Q 2419 397 2687 759 
Q 2956 1122 2956 1747 
Q 2956 2369 2687 2733 
Q 2419 3097 1959 3097 
z
M 1959 3584 
Q 2709 3584 3137 3096 
Q 3566 2609 3566 1747 
Q 3566 888 3137 398 
Q 2709 -91 1959 -91 
Q 1206 -91 779 398 
Q 353 888 353 1747 
Q 353 2609 779 3096 
Q 1206 3584 1959 3584 
z
" transform="scale(0.015625)"/>
       <path id="DejaVuSans-64" d="M 2906 2969 
L 2906 4863 
L 3481 4863 
L 3481 0 
L 2906 0 
L 2906 525 
Q 2725 213 2448 61 
Q 2172 -91 1784 -91 
Q 1150 -91 751 415 
Q 353 922 353 1747 
Q 353 2572 751 3078 
Q 1150 3584 1784 3584 
Q 2172 3584 2448 3432 
Q 2725 3281 2906 2969 
z
M 947 1747 
Q 947 1113 1208 752 
Q 1469 391 1925 391 
Q 2381 391 2643 752 
Q 2906 1113 2906 1747 
Q 2906 2381 2643 2742 
Q 2381 3103 1925 3103 
Q 1469 3103 1208 2742 
Q 947 2381 947 1747 
z
" transform="scale(0.015625)"/>
       <path id="DejaVuSans-65" d="M 3597 1894 
L 3597 1613 
L 953 1613 
Q 991 1019 1311 708 
Q 1631 397 2203 397 
Q 2534 397 2845 478 
Q 3156 559 3463 722 
L 3463 178 
Q 3153 47 2828 -22 
Q 2503 -91 2169 -91 
Q 1331 -91 842 396 
Q 353 884 353 1716 
Q 353 2575 817 3079 
Q 1281 3584 2069 3584 
Q 2775 3584 3186 3129 
Q 3597 2675 3597 1894 
z
M 3022 2063 
Q 3016 2534 2758 2815 
Q 2500 3097 2075 3097 
Q 1594 3097 1305 2825 
Q 1016 2553 972 2059 
L 3022 2063 
z
" transform="scale(0.015625)"/>
      </defs>
      <use xlink:href="#DejaVuSans-45"/>
      <use xlink:href="#DejaVuSans-70" x="63.183594"/>
      <use xlink:href="#DejaVuSans-69" x="126.660156"/>
      <use xlink:href="#DejaVuSans-73" x="154.443359"/>
      <use xlink:href="#DejaVuSans-6f" x="206.542969"/>
      <use xlink:href="#DejaVuSans-64" x="267.724609"/>
      <use xlink:href="#DejaVuSans-65" x="331.201172"/>
     </g>
    </g>
   </g>
   <g id="matplotlib.axis_2">
    <g id="ytick_1">
     <g id="line2d_19">
      <path d="M 57.6 307.174888 
L 414.72 307.174888 
" clip-path="url(#p90c5c2513d)" style="fill: none; stroke-dasharray: 2.96,1.28; stroke-dashoffset: 0; stroke: #b0b0b0; stroke-width: 0.8"/>
     </g>
     <g id="line2d_20">
      <defs>
       <path id="mfd77a71c41" d="M 0 0 
L -3.5 0 
" style="stroke: #000000; stroke-width: 0.8"/>
      </defs>
      <g>
       <use xlink:href="#mfd77a71c41" x="57.6" y="307.174888" style="stroke: #000000; stroke-width: 0.8"/>
      </g>
     </g>
     <g id="text_11">
      <!-- 50 -->
      <g transform="translate(37.875 310.974106)scale(0.1 -0.1)">
       <use xlink:href="#DejaVuSans-35"/>
       <use xlink:href="#DejaVuSans-30" x="63.623047"/>
      </g>
     </g>
    </g>
    <g id="ytick_2">
     <g id="line2d_21">
      <path d="M 57.6 263.148941 
L 414.72 263.148941 
" clip-path="url(#p90c5c2513d)" style="fill: none; stroke-dasharray: 2.96,1.28; stroke-dashoffset: 0; stroke: #b0b0b0; stroke-width: 0.8"/>
     </g>
     <g id="line2d_22">
      <g>
       <use xlink:href="#mfd77a71c41" x="57.6" y="263.148941" style="stroke: #000000; stroke-width: 0.8"/>
      </g>
     </g>
     <g id="text_12">
      <!-- 100 -->
      <g transform="translate(31.5125 266.94816)scale(0.1 -0.1)">
       <use xlink:href="#DejaVuSans-31"/>
       <use xlink:href="#DejaVuSans-30" x="63.623047"/>
       <use xlink:href="#DejaVuSans-30" x="127.246094"/>
      </g>
     </g>
    </g>
    <g id="ytick_3">
     <g id="line2d_23">
      <path d="M 57.6 219.122995 
L 414.72 219.122995 
" clip-path="url(#p90c5c2513d)" style="fill: none; stroke-dasharray: 2.96,1.28; stroke-dashoffset: 0; stroke: #b0b0b0; stroke-width: 0.8"/>
     </g>
     <g id="line2d_24">
      <g>
       <use xlink:href="#mfd77a71c41" x="57.6" y="219.122995" style="stroke: #000000; stroke-width: 0.8"/>
      </g>
     </g>
     <g id="text_13">
      <!-- 150 -->
      <g transform="translate(31.5125 222.922213)scale(0.1 -0.1)">
       <use xlink:href="#DejaVuSans-31"/>
       <use xlink:href="#DejaVuSans-35" x="63.623047"/>
       <use xlink:href="#DejaVuSans-30" x="127.246094"/>
      </g>
     </g>
    </g>
    <g id="ytick_4">
     <g id="line2d_25">
      <path d="M 57.6 175.097048 
L 414.72 175.097048 
" clip-path="url(#p90c5c2513d)" style="fill: none; stroke-dasharray: 2.96,1.28; stroke-dashoffset: 0; stroke: #b0b0b0; stroke-width: 0.8"/>
     </g>
     <g id="line2d_26">
      <g>
       <use xlink:href="#mfd77a71c41" x="57.6" y="175.097048" style="stroke: #000000; stroke-width: 0.8"/>
      </g>
     </g>
     <g id="text_14">
      <!-- 200 -->
      <g transform="translate(31.5125 178.896267)scale(0.1 -0.1)">
       <use xlink:href="#DejaVuSans-32"/>
       <use xlink:href="#DejaVuSans-30" x="63.623047"/>
       <use xlink:href="#DejaVuSans-30" x="127.246094"/>
      </g>
     </g>
    </g>
    <g id="ytick_5">
     <g id="line2d_27">
      <path d="M 57.6 131.071102 
L 414.72 131.071102 
" clip-path="url(#p90c5c2513d)" style="fill: none; stroke-dasharray: 2.96,1.28; stroke-dashoffset: 0; stroke: #b0b0b0; stroke-width: 0.8"/>
     </g>
     <g id="line2d_28">
      <g>
       <use xlink:href="#mfd77a71c41" x="57.6" y="131.071102" style="stroke: #000000; stroke-width: 0.8"/>
      </g>
     </g>
     <g id="text_15">
      <!-- 250 -->
      <g transform="translate(31.5125 134.870321)scale(0.1 -0.1)">
       <use xlink:href="#DejaVuSans-32"/>
       <use xlink:href="#DejaVuSans-35" x="63.623047"/>
       <use xlink:href="#DejaVuSans-30" x="127.246094"/>
      </g>
     </g>
    </g>
    <g id="ytick_6">
     <g id="line2d_29">
      <path d="M 57.6 87.045155 
L 414.72 87.045155 
" clip-path="url(#p90c5c2513d)" style="fill: none; stroke-dasharray: 2.96,1.28; stroke-dashoffset: 0; stroke: #b0b0b0; stroke-width: 0.8"/>
     </g>
     <g id="line2d_30">
      <g>
       <use xlink:href="#mfd77a71c41" x="57.6" y="87.045155" style="stroke: #000000; stroke-width: 0.8"/>
      </g>
     </g>
     <g id="text_16">
      <!-- 300 -->
      <g transform="translate(31.5125 90.844374)scale(0.1 -0.1)">
       <defs>
        <path id="DejaVuSans-33" d="M 2597 2516 
Q 3050 2419 3304 2112 
Q 3559 1806 3559 1356 
Q 3559 666 3084 287 
Q 2609 -91 1734 -91 
Q 1441 -91 1130 -33 
Q 819 25 488 141 
L 488 750 
Q 750 597 1062 519 
Q 1375 441 1716 441 
Q 2309 441 2620 675 
Q 2931 909 2931 1356 
Q 2931 1769 2642 2001 
Q 2353 2234 1838 2234 
L 1294 2234 
L 1294 2753 
L 1863 2753 
Q 2328 2753 2575 2939 
Q 2822 3125 2822 3475 
Q 2822 3834 2567 4026 
Q 2313 4219 1838 4219 
Q 1578 4219 1281 4162 
Q 984 4106 628 3988 
L 628 4550 
Q 988 4650 1302 4700 
Q 1616 4750 1894 4750 
Q 2613 4750 3031 4423 
Q 3450 4097 3450 3541 
Q 3450 3153 3228 2886 
Q 3006 2619 2597 2516 
z
" transform="scale(0.015625)"/>
       </defs>
       <use xlink:href="#DejaVuSans-33"/>
       <use xlink:href="#DejaVuSans-30" x="63.623047"/>
       <use xlink:href="#DejaVuSans-30" x="127.246094"/>
      </g>
     </g>
    </g>
    <g id="ytick_7">
     <g id="line2d_31">
      <path d="M 57.6 43.019209 
L 414.72 43.019209 
" clip-path="url(#p90c5c2513d)" style="fill: none; stroke-dasharray: 2.96,1.28; stroke-dashoffset: 0; stroke: #b0b0b0; stroke-width: 0.8"/>
     </g>
     <g id="line2d_32">
      <g>
       <use xlink:href="#mfd77a71c41" x="57.6" y="43.019209" style="stroke: #000000; stroke-width: 0.8"/>
      </g>
     </g>
     <g id="text_17">
      <!-- 350 -->
      <g transform="translate(31.5125 46.818428)scale(0.1 -0.1)">
       <use xlink:href="#DejaVuSans-33"/>
       <use xlink:href="#DejaVuSans-35" x="63.623047"/>
       <use xlink:href="#DejaVuSans-30" x="127.246094"/>
      </g>
     </g>
    </g>
    <g id="text_18">
     <!-- owner/throw_away -->
     <g transform="translate(25.154687 221.558469)rotate(-90)scale(0.1 -0.1)">
      <defs>
       <path id="DejaVuSans-77" d="M 269 3500 
L 844 3500 
L 1563 769 
L 2278 3500 
L 2956 3500 
L 3675 769 
L 4391 3500 
L 4966 3500 
L 4050 0 
L 3372 0 
L 2619 2869 
L 1863 0 
L 1184 0 
L 269 3500 
z
" transform="scale(0.015625)"/>
       <path id="DejaVuSans-6e" d="M 3513 2113 
L 3513 0 
L 2938 0 
L 2938 2094 
Q 2938 2591 2744 2837 
Q 2550 3084 2163 3084 
Q 1697 3084 1428 2787 
Q 1159 2491 1159 1978 
L 1159 0 
L 581 0 
L 581 3500 
L 1159 3500 
L 1159 2956 
Q 1366 3272 1645 3428 
Q 1925 3584 2291 3584 
Q 2894 3584 3203 3211 
Q 3513 2838 3513 2113 
z
" transform="scale(0.015625)"/>
       <path id="DejaVuSans-72" d="M 2631 2963 
Q 2534 3019 2420 3045 
Q 2306 3072 2169 3072 
Q 1681 3072 1420 2755 
Q 1159 2438 1159 1844 
L 1159 0 
L 581 0 
L 581 3500 
L 1159 3500 
L 1159 2956 
Q 1341 3275 1631 3429 
Q 1922 3584 2338 3584 
Q 2397 3584 2469 3576 
Q 2541 3569 2628 3553 
L 2631 2963 
z
" transform="scale(0.015625)"/>
       <path id="DejaVuSans-2f" d="M 1625 4666 
L 2156 4666 
L 531 -594 
L 0 -594 
L 1625 4666 
z
" transform="scale(0.015625)"/>
       <path id="DejaVuSans-74" d="M 1172 4494 
L 1172 3500 
L 2356 3500 
L 2356 3053 
L 1172 3053 
L 1172 1153 
Q 1172 725 1289 603 
Q 1406 481 1766 481 
L 2356 481 
L 2356 0 
L 1766 0 
Q 1100 0 847 248 
Q 594 497 594 1153 
L 594 3053 
L 172 3053 
L 172 3500 
L 594 3500 
L 594 4494 
L 1172 4494 
z
" transform="scale(0.015625)"/>
       <path id="DejaVuSans-68" d="M 3513 2113 
L 3513 0 
L 2938 0 
L 2938 2094 
Q 2938 2591 2744 2837 
Q 2550 3084 2163 3084 
Q 1697 3084 1428 2787 
Q 1159 2491 1159 1978 
L 1159 0 
L 581 0 
L 581 4863 
L 1159 4863 
L 1159 2956 
Q 1366 3272 1645 3428 
Q 1925 3584 2291 3584 
Q 2894 3584 3203 3211 
Q 3513 2838 3513 2113 
z
" transform="scale(0.015625)"/>
       <path id="DejaVuSans-5f" d="M 3263 -1063 
L 3263 -1509 
L -63 -1509 
L -63 -1063 
L 3263 -1063 
z
" transform="scale(0.015625)"/>
       <path id="DejaVuSans-61" d="M 2194 1759 
Q 1497 1759 1228 1600 
Q 959 1441 959 1056 
Q 959 750 1161 570 
Q 1363 391 1709 391 
Q 2188 391 2477 730 
Q 2766 1069 2766 1631 
L 2766 1759 
L 2194 1759 
z
M 3341 1997 
L 3341 0 
L 2766 0 
L 2766 531 
Q 2569 213 2275 61 
Q 1981 -91 1556 -91 
Q 1019 -91 701 211 
Q 384 513 384 1019 
Q 384 1609 779 1909 
Q 1175 2209 1959 2209 
L 2766 2209 
L 2766 2266 
Q 2766 2663 2505 2880 
Q 2244 3097 1772 3097 
Q 1472 3097 1187 3025 
Q 903 2953 641 2809 
L 641 3341 
Q 956 3463 1253 3523 
Q 1550 3584 1831 3584 
Q 2591 3584 2966 3190 
Q 3341 2797 3341 1997 
z
" transform="scale(0.015625)"/>
       <path id="DejaVuSans-79" d="M 2059 -325 
Q 1816 -950 1584 -1140 
Q 1353 -1331 966 -1331 
L 506 -1331 
L 506 -850 
L 844 -850 
Q 1081 -850 1212 -737 
Q 1344 -625 1503 -206 
L 1606 56 
L 191 3500 
L 800 3500 
L 1894 763 
L 2988 3500 
L 3597 3500 
L 2059 -325 
z
" transform="scale(0.015625)"/>
      </defs>
      <use xlink:href="#DejaVuSans-6f"/>
      <use xlink:href="#DejaVuSans-77" x="61.181641"/>
      <use xlink:href="#DejaVuSans-6e" x="142.96875"/>
      <use xlink:href="#DejaVuSans-65" x="206.347656"/>
      <use xlink:href="#DejaVuSans-72" x="267.871094"/>
      <use xlink:href="#DejaVuSans-2f" x="308.984375"/>
      <use xlink:href="#DejaVuSans-74" x="342.675781"/>
      <use xlink:href="#DejaVuSans-68" x="381.884766"/>
      <use xlink:href="#DejaVuSans-72" x="445.263672"/>
      <use xlink:href="#DejaVuSans-6f" x="484.126953"/>
      <use xlink:href="#DejaVuSans-77" x="545.308594"/>
      <use xlink:href="#DejaVuSans-5f" x="627.095703"/>
      <use xlink:href="#DejaVuSans-61" x="677.095703"/>
      <use xlink:href="#DejaVuSans-77" x="738.375"/>
      <use xlink:href="#DejaVuSans-61" x="820.162109"/>
      <use xlink:href="#DejaVuSans-79" x="881.441406"/>
     </g>
    </g>
   </g>
   <g id="line2d_33">
    <path d="M 73.832727 295.488 
L 73.995952 290.371651 
L 74.159177 289.090383 
L 74.485627 278.469971 
L 74.648852 278.943249 
L 74.812077 268.639236 
L 74.975302 269.508245 
L 75.464977 258.955994 
L 75.628202 249.741039 
L 75.791427 246.95505 
L 75.954652 249.354145 
L 76.281102 236.056051 
L 76.607552 230.601188 
L 76.770777 229.658859 
L 77.423677 209.597381 
L 77.586903 209.799853 
L 77.750128 207.349199 
L 77.913353 207.529495 
L 78.239803 199.102775 
L 78.403028 199.232298 
L 78.566253 199.729565 
L 78.892703 188.787021 
L 79.055928 191.826908 
L 79.219153 186.363688 
L 79.382378 189.302754 
L 79.545603 188.572816 
L 79.872053 190.267656 
L 80.035278 189.005653 
L 80.524953 195.264318 
L 80.688178 192.308701 
L 80.851403 193.278134 
L 81.177853 187.502931 
L 81.504303 186.771515 
L 81.667528 183.932086 
L 81.830753 184.870808 
L 81.993978 183.959976 
L 82.157203 184.157872 
L 82.483653 182.086167 
L 82.810103 184.916168 
L 82.973328 180.787566 
L 83.299778 178.950914 
L 83.626228 175.766739 
L 84.115903 178.761911 
L 84.279128 178.724786 
L 84.442353 178.561195 
L 84.605578 175.497284 
L 84.768803 176.767776 
L 84.932028 175.59861 
L 85.095253 176.164677 
L 85.258478 177.966888 
L 85.748153 176.470238 
L 85.911378 176.619828 
L 86.074603 175.81375 
L 86.727503 179.35289 
L 86.890728 177.738605 
L 87.053953 177.872597 
L 87.217178 178.372957 
L 87.380403 177.747972 
L 87.706853 179.673912 
L 87.870078 179.844588 
L 88.033303 179.760205 
L 88.196528 178.690277 
L 88.359753 179.526058 
L 88.522978 177.154498 
L 88.686203 176.892958 
L 89.012653 171.261124 
L 89.339103 170.206245 
L 89.502328 169.988295 
L 89.665553 167.390328 
L 89.828778 167.442636 
L 89.992003 166.588271 
L 90.155228 164.844669 
L 90.318453 161.73234 
L 90.481678 161.706186 
L 90.644903 160.939001 
L 90.808128 159.448222 
L 90.971353 160.372331 
L 91.134578 159.151809 
L 91.297803 160.546691 
L 91.461028 160.250279 
L 91.624253 161.366184 
L 91.950703 157.469234 
L 92.113928 159.709762 
L 92.440378 158.454369 
L 92.603603 158.942577 
L 92.766828 161.139516 
L 93.256503 162.351319 
L 93.746179 167.390328 
L 93.909404 167.4252 
L 94.235854 168.942134 
L 94.399079 169.229828 
L 94.725529 173.327292 
L 95.051979 172.281131 
L 95.378429 177.546809 
L 95.541654 176.805778 
L 95.704879 179.055024 
L 95.868104 178.366302 
L 96.031329 179.787337 
L 96.194554 178.261686 
L 96.521004 179.046306 
L 96.847454 173.710885 
L 97.010679 173.475499 
L 97.173904 175.437051 
L 97.337129 174.669866 
L 97.500354 177.198088 
L 97.663579 176.823214 
L 97.990029 177.625271 
L 98.153254 180.493496 
L 98.316479 179.743747 
L 98.479704 180.484778 
L 98.642929 180.371444 
L 98.806154 178.619124 
L 99.132604 180.598112 
L 99.295829 178.959126 
L 99.622279 182.071456 
L 99.948729 183.797621 
L 100.111954 186.657128 
L 100.275179 187.537647 
L 100.438404 186.909951 
L 100.601629 187.87765 
L 100.764854 186.552512 
L 101.091304 188.766887 
L 101.254529 186.482768 
L 101.580979 187.96483 
L 101.744204 187.895086 
L 101.907429 187.433031 
L 102.070654 185.985842 
L 102.233879 186.003278 
L 102.886779 182.507356 
L 103.050004 181.042731 
L 103.213229 180.850934 
L 103.539679 185.044297 
L 103.702904 184.181214 
L 103.866129 183.919674 
L 104.192579 181.016576 
L 104.355804 182.263252 
L 104.519029 182.40274 
L 104.682254 184.887373 
L 104.845479 185.471479 
L 105.008704 188.906375 
L 105.171929 187.093029 
L 105.498379 192.646401 
L 105.988054 191.181775 
L 106.314504 193.622818 
L 106.477729 194.259232 
L 106.967404 198.173619 
L 107.130629 198.696699 
L 107.293854 200.344403 
L 107.457079 199.847476 
L 107.620304 200.623379 
L 107.946754 200.579789 
L 108.109979 199.5685 
L 108.436429 204.066993 
L 108.599654 202.000825 
L 108.762879 203.50904 
L 108.926104 203.500322 
L 109.089329 204.250071 
L 109.252555 203.020832 
L 109.41578 202.916216 
L 109.579005 203.744426 
L 109.905455 203.012114 
L 110.06868 199.769014 
L 110.231905 200.527481 
L 110.39513 203.134166 
L 110.558355 199.533628 
L 110.72158 198.470031 
L 110.884805 198.975675 
L 111.04803 196.002834 
L 111.37448 194.22436 
L 111.70093 196.246939 
L 111.864155 195.54078 
L 112.02738 193.849486 
L 112.35383 194.346413 
L 112.517055 194.023846 
L 112.68028 194.817185 
L 112.843505 194.668979 
L 113.00673 196.281811 
L 113.169955 196.743865 
L 113.33318 198.234645 
L 113.496405 198.461313 
L 113.65963 197.868488 
L 113.822855 198.487467 
L 113.98608 198.217209 
L 114.149305 200.684405 
L 114.475755 202.140313 
L 114.63898 200.231069 
L 114.96543 201.390564 
L 115.128655 202.428007 
L 115.29188 202.645957 
L 115.455105 203.325962 
L 115.61833 202.419289 
L 115.94478 206.098289 
L 116.108005 205.30495 
L 116.27123 205.793159 
L 116.434455 206.66496 
L 116.59768 204.799306 
L 116.760905 201.512616 
L 116.92413 201.66954 
L 117.087355 200.745431 
L 117.25058 203.343398 
L 117.413805 202.210057 
L 117.90348 207.981379 
L 118.22993 205.47931 
L 118.55638 210.134727 
L 118.719605 208.434715 
L 119.20928 213.709111 
L 119.372505 213.569623 
L 119.53573 214.859888 
L 119.86218 211.730123 
L 120.025405 211.154734 
L 120.18863 211.965509 
L 120.678305 217.658369 
L 120.84153 216.882466 
L 121.004755 217.649651 
L 121.49443 216.29836 
L 121.657655 216.25477 
L 121.984105 209.454722 
L 122.14733 209.855751 
L 122.310555 210.95422 
L 122.637005 211.486019 
L 122.963455 209.942931 
L 123.12668 209.498313 
L 123.289905 209.655237 
L 123.616355 209.010104 
L 123.77958 209.132156 
L 123.942805 209.672673 
L 124.10603 209.568057 
L 124.269255 207.336246 
L 124.43248 207.301374 
L 124.595705 207.458298 
L 124.75893 206.97009 
L 124.922155 206.9265 
L 125.085381 208.425997 
L 125.248606 208.024969 
L 125.411831 208.181893 
L 125.738281 210.230625 
L 126.064731 210.099855 
L 126.227956 210.762424 
L 126.391181 210.317805 
L 126.554406 211.799867 
L 126.717631 210.666526 
L 126.880856 210.47473 
L 127.044081 213.447571 
L 127.207306 212.645514 
L 127.370531 212.70654 
L 127.533756 215.592201 
L 127.696981 216.38554 
L 127.860206 218.966071 
L 128.023431 217.004518 
L 128.186656 217.911191 
L 128.349881 217.309649 
L 128.513106 218.678376 
L 128.676331 217.736831 
L 128.839556 217.736831 
L 129.002781 217.021954 
L 129.166006 217.222469 
L 129.329231 217.187597 
L 129.492456 215.757843 
L 129.655681 218.111706 
L 129.818906 218.844018 
L 129.982131 217.117853 
L 130.145356 217.745549 
L 130.308581 215.208609 
L 130.471806 216.141436 
L 130.635031 216.315796 
L 130.961481 212.697822 
L 131.124706 212.61936 
L 131.287931 211.642943 
L 131.451156 211.608071 
L 131.614381 209.175746 
L 131.777606 211.137298 
L 131.940831 211.111144 
L 132.104056 209.437286 
L 132.267281 209.036258 
L 132.430506 207.650095 
L 132.593731 207.745993 
L 132.920181 208.652666 
L 133.083406 210.195753 
L 133.246631 212.985516 
L 133.409856 213.002952 
L 133.573081 212.680386 
L 133.736306 211.407557 
L 133.899531 211.625507 
L 134.225981 211.625507 
L 134.389206 207.719839 
L 134.552431 209.262926 
L 134.715656 208.277791 
L 135.042106 203.517758 
L 135.205331 205.958801 
L 135.531781 203.07314 
L 136.021456 205.191616 
L 136.184681 204.345969 
L 136.511131 201.137742 
L 136.674356 200.902355 
L 137.000806 198.905931 
L 137.327256 196.926943 
L 137.490481 196.255657 
L 137.653706 194.886929 
L 137.980156 190.676131 
L 138.143381 190.336128 
L 138.306606 193.335123 
L 138.469831 194.189488 
L 138.796281 189.996126 
L 138.959506 189.708432 
L 139.122731 189.159197 
L 139.449181 189.568944 
L 139.612406 189.159197 
L 139.775631 186.107894 
L 139.938856 186.770463 
L 140.265306 184.730448 
L 140.591756 181.931967 
L 140.754981 183.989418 
L 141.081432 183.771467 
L 141.244657 182.245816 
L 141.407882 179.194513 
L 141.571107 178.793484 
L 142.224007 172.560108 
L 142.550457 170.075475 
L 142.713682 169.779063 
L 142.876907 166.326731 
L 143.040132 167.320584 
L 143.203357 164.992876 
L 143.366582 165.027748 
L 143.529807 163.319018 
L 143.693032 163.52825 
L 143.856257 161.42721 
L 144.019482 161.026181 
L 144.345932 158.245136 
L 144.509157 158.951295 
L 144.672382 155.211269 
L 144.835607 154.958447 
L 144.998832 154.182544 
L 145.162057 154.827677 
L 145.325282 153.886132 
L 145.488507 154.688189 
L 145.651732 154.566137 
L 146.304632 147.269163 
L 146.467857 147.408651 
L 146.631082 147.112239 
L 146.794307 149.596871 
L 147.120757 141.759381 
L 147.283982 143.093236 
L 147.610432 141.367071 
L 147.773657 140.966042 
L 147.936882 138.193715 
L 148.100107 139.850137 
L 148.263332 138.65577 
L 148.426557 135.508568 
L 148.589782 136.607038 
L 148.753007 136.650628 
L 149.079457 135.508568 
L 149.895582 128.630059 
L 150.058807 126.807995 
L 150.222032 126.328505 
L 150.711707 121.289495 
L 150.874932 124.166438 
L 151.038157 122.492581 
L 151.201382 122.414119 
L 151.364607 123.992078 
L 151.691057 122.501299 
L 151.854282 121.132571 
L 152.180732 117.296647 
L 152.507182 113.486877 
L 152.833632 117.035107 
L 152.996857 117.418699 
L 153.160082 112.963797 
L 153.323307 112.806873 
L 153.812982 109.642235 
L 154.139432 108.665818 
L 154.465882 110.10429 
L 154.629107 110.14788 
L 154.792332 109.371977 
L 154.955557 109.354541 
L 155.118782 110.592498 
L 155.282007 110.0607 
L 155.934907 105.719131 
L 156.098132 105.030408 
L 156.261357 106.887344 
L 156.587807 103.722707 
L 156.751032 103.853477 
L 156.914258 103.417577 
L 157.077483 103.426295 
L 157.567158 97.907795 
L 157.730383 97.646255 
L 157.893608 100.723712 
L 158.056833 99.293958 
L 158.220058 99.014982 
L 158.383283 98.422157 
L 158.546508 99.538063 
L 158.709733 99.590371 
L 158.872958 100.636532 
L 159.199408 98.160617 
L 159.362633 99.651397 
L 159.852308 96.312399 
L 160.015533 97.09702 
L 160.178758 98.666262 
L 160.341983 98.230361 
L 160.505208 97.192918 
L 160.668433 97.611382 
L 160.994883 96.094449 
L 161.484558 94.438027 
L 162.137458 90.480051 
L 162.300683 90.584667 
L 162.463908 91.57852 
L 162.953583 91.160056 
L 163.280033 88.858501 
L 163.443258 90.793899 
L 163.932933 92.607245 
L 164.096158 92.197499 
L 164.422608 93.81033 
L 164.912283 92.389295 
L 165.075508 92.493911 
L 165.238733 91.046722 
L 165.401958 90.663129 
L 165.565183 90.907233 
L 165.728408 89.861072 
L 165.891633 89.887226 
L 166.218083 88.797475 
L 166.381308 88.623115 
L 166.544533 89.800046 
L 166.870983 90.070305 
L 167.034208 90.541077 
L 167.360658 89.355428 
L 167.523883 88.309267 
L 167.687108 88.187215 
L 167.850333 86.504639 
L 168.013558 87.515928 
L 168.176783 87.498492 
L 168.503233 90.514923 
L 168.666458 89.285684 
L 168.829683 88.945681 
L 168.992908 89.21594 
L 169.156133 88.474909 
L 169.319358 88.457473 
L 169.482583 88.082598 
L 169.645808 91.57852 
L 169.972258 90.201075 
L 170.461933 88.954399 
L 170.625158 88.971835 
L 170.788383 89.625686 
L 170.951608 88.780039 
L 171.114833 89.032861 
L 171.278058 89.747738 
L 171.604508 85.31899 
L 171.930958 85.040013 
L 172.094183 83.767184 
L 172.257408 83.758466 
L 172.420633 83.340001 
L 172.583858 84.081032 
L 172.747084 83.340001 
L 172.910309 83.985134 
L 173.073534 83.427182 
L 173.236759 82.407174 
L 173.399984 82.433328 
L 173.563209 82.642561 
L 173.726434 82.11948 
L 173.889659 82.921537 
L 174.052884 81.744606 
L 174.216109 81.997428 
L 174.379334 81.892812 
L 174.705784 82.607689 
L 174.869009 82.224096 
L 175.032234 82.267686 
L 175.195459 81.055883 
L 175.358684 81.299987 
L 175.685134 80.419468 
L 175.848359 81.892812 
L 176.011584 81.116909 
L 176.338034 83.8718 
L 176.664484 80.846651 
L 176.990934 82.189224 
L 177.154159 81.953838 
L 177.317384 82.154352 
L 177.480609 81.831786 
L 177.643834 83.941544 
L 177.807059 83.374873 
L 177.970284 84.142058 
L 178.133509 84.028724 
L 178.296734 84.377445 
L 178.459959 84.22052 
L 178.623184 81.94512 
L 178.786409 81.657426 
L 179.112859 81.953838 
L 179.439309 79.129203 
L 179.602534 78.449198 
L 179.765759 76.984573 
L 179.928984 76.679442 
L 180.092209 77.751758 
L 180.581884 74.090194 
L 181.071559 72.843518 
L 181.234784 73.087623 
L 181.398009 72.817364 
L 181.561234 68.754772 
L 181.724459 68.76349 
L 181.887684 69.295289 
L 182.050909 68.964004 
L 182.377359 70.106063 
L 182.703809 68.946568 
L 182.867034 66.671168 
L 183.030259 66.148087 
L 183.193484 66.209113 
L 183.356709 66.610142 
L 183.519934 67.464507 
L 183.846384 65.572699 
L 184.009609 65.407056 
L 184.172834 62.669602 
L 184.336059 64.456793 
L 184.499284 63.523967 
L 184.825734 64.003457 
L 184.988959 63.942431 
L 185.152184 65.093208 
L 185.315409 63.297298 
L 185.478634 64.448075 
L 185.641859 63.802943 
L 185.805084 62.469087 
L 185.968309 62.713192 
L 186.457984 64.142945 
L 186.621209 64.360895 
L 186.784434 65.520391 
L 186.947659 64.788078 
L 187.110884 65.101926 
L 187.437334 63.994739 
L 187.600559 64.142945 
L 187.763784 63.28858 
L 188.090234 66.688604 
L 188.253459 66.740912 
L 188.416684 67.002452 
L 188.57991 67.595277 
L 188.743135 67.002452 
L 188.90636 67.508097 
L 189.069585 65.808085 
L 189.23281 65.546545 
L 189.396035 63.802943 
L 189.55926 64.264997 
L 189.722485 64.195253 
L 190.048935 62.120367 
L 190.21216 63.044476 
L 190.375385 62.547549 
L 190.53861 64.073201 
L 190.701835 63.733199 
L 191.028285 61.980879 
L 191.19151 62.303445 
L 191.51796 61.902417 
L 191.681185 62.904988 
L 191.84441 59.984455 
L 192.007635 62.033187 
L 192.17086 61.518824 
L 192.334085 60.263431 
L 192.49731 61.370618 
L 192.82376 56.523405 
L 192.986985 57.918287 
L 193.313435 58.545983 
L 193.47666 58.040339 
L 193.639885 57.944441 
L 193.80311 57.578284 
L 193.966335 57.831106 
L 194.12956 57.665464 
L 194.292785 57.778798 
L 194.45601 56.200839 
L 194.619235 56.723919 
L 194.945685 55.703912 
L 195.10891 57.752644 
L 195.272135 58.205981 
L 195.43536 59.025474 
L 195.598585 57.944441 
L 195.76181 60.097789 
L 195.925035 59.39163 
L 196.08826 59.313168 
L 196.251485 60.577279 
L 196.577935 56.427507 
L 196.74116 56.619303 
L 196.904385 55.416218 
L 197.06761 57.42136 
L 197.39406 57.168538 
L 197.557285 56.514687 
L 197.883735 59.382912 
L 198.04696 62.573704 
L 198.536635 61.161386 
L 198.863085 60.193687 
L 199.02631 61.597286 
L 199.189535 61.823955 
L 199.35276 64.081919 
L 200.00566 61.49267 
L 200.168885 61.309592 
L 200.33211 62.556267 
L 200.495335 62.7655 
L 200.65856 64.186535 
L 200.821785 63.428068 
L 200.98501 63.497812 
L 201.148235 63.707045 
L 201.31146 63.454222 
L 201.63791 61.893699 
L 201.801135 63.698327 
L 202.127585 63.140374 
L 202.29081 64.142945 
L 202.780485 59.382912 
L 203.106935 60.429073 
L 203.59661 58.075211 
L 203.759835 58.310597 
L 203.92306 58.223417 
L 204.086285 57.430078 
L 204.24951 57.325462 
L 204.412735 55.041344 
L 204.575961 55.79981 
L 204.739186 54.919291 
L 204.902411 55.163396 
L 205.065636 53.925438 
L 205.228861 53.942874 
L 205.392086 53.568 
L 205.555311 53.881848 
L 206.534661 58.894704 
L 206.697886 57.822388 
L 206.861111 58.668035 
L 207.024336 58.153673 
L 207.187561 58.214699 
L 207.514011 58.78137 
L 207.677236 57.787516 
L 207.840461 57.909569 
L 208.166911 54.832111 
L 208.330136 57.15982 
L 208.493361 56.837253 
L 208.656586 56.976742 
L 208.983036 57.665464 
L 209.309486 62.791654 
L 209.472711 62.652166 
L 209.635936 63.035758 
L 210.125611 59.661888 
L 210.288836 60.211123 
L 210.452061 59.374194 
L 210.778511 59.069064 
L 210.941736 59.65317 
L 211.104961 58.763933 
L 211.268186 59.879839 
L 211.594636 60.324457 
L 211.921086 59.452656 
L 212.084311 59.844967 
L 212.247536 59.69676 
L 212.573986 61.379336 
L 212.737211 61.501388 
L 212.900436 66.087061 
L 213.063661 67.281428 
L 213.226886 67.473225 
L 213.553336 68.868106 
L 213.716561 68.536822 
L 213.879786 68.475796 
L 214.043011 68.955286 
L 214.532686 67.638867 
L 215.022361 69.652727 
L 215.185586 69.452213 
L 215.348811 69.931703 
L 215.512036 69.661445 
L 215.675261 69.094774 
L 215.838486 69.574265 
L 216.001711 69.696317 
L 216.164936 67.089632 
L 216.328161 66.697322 
L 216.491386 66.906554 
L 216.654611 68.057331 
L 216.981061 66.209113 
L 217.144286 66.993734 
L 217.307511 65.781931 
L 217.470736 65.607571 
L 217.797186 63.24499 
L 217.960411 63.872687 
L 218.123636 63.707045 
L 218.286861 64.142945 
L 218.450086 63.558839 
L 218.613311 64.343459 
L 218.776536 62.355753 
L 219.266211 66.383474 
L 219.429436 66.278857 
L 219.755886 64.073201 
L 219.919111 64.343459 
L 220.082336 65.337312 
L 220.245561 65.34603 
L 220.408787 65.851675 
L 220.898462 69.774779 
L 221.224912 67.952715 
L 221.388137 67.647585 
L 221.551362 68.920414 
L 221.714587 69.312725 
L 221.877812 70.402476 
L 222.041037 70.123499 
L 222.204262 69.295289 
L 222.530712 71.169661 
L 222.693937 70.742478 
L 222.857162 70.725042 
L 223.020387 70.402476 
L 223.183612 71.893255 
L 223.346837 69.931703 
L 223.673287 70.986582 
L 223.836512 69.739907 
L 224.162962 70.149653 
L 224.326187 70.010165 
L 224.815862 72.79121 
L 224.979087 72.451208 
L 225.142312 72.765056 
L 225.305537 72.677876 
L 225.468762 71.675305 
L 225.631987 71.396329 
L 225.795212 69.644009 
L 225.958437 69.626573 
L 226.121662 69.330161 
L 226.284887 70.847094 
L 226.448112 70.768632 
L 226.611337 72.695312 
L 226.774562 71.997871 
L 226.937787 72.503516 
L 227.101012 72.198386 
L 227.264237 72.233258 
L 227.427462 71.492227 
L 227.590687 72.817364 
L 227.753912 71.971717 
L 227.917137 72.024025 
L 228.243587 69.443495 
L 228.406812 68.240409 
L 228.733262 70.140935 
L 228.896487 70.036319 
L 229.059712 70.079909 
L 229.222937 69.321443 
L 229.386162 67.952715 
L 229.549387 67.874253 
L 229.712612 68.536822 
L 230.039062 68.440924 
L 230.365512 70.507092 
L 230.528737 70.942992 
L 230.691962 70.881966 
L 231.018412 72.983006 
L 231.181637 72.765056 
L 231.834537 67.18553 
L 232.324212 64.552692 
L 232.487437 64.666026 
L 232.650662 67.917843 
L 232.813887 68.876824 
L 232.977112 68.946568 
L 233.303562 70.437348 
L 233.466787 71.570689 
L 233.630012 71.422483 
L 233.956462 74.787634 
L 234.446137 77.071753 
L 234.609362 77.324575 
L 234.935812 77.045599 
L 235.099037 77.891246 
L 235.262262 79.983568 
L 235.425487 80.262544 
L 235.751937 78.815355 
L 235.915162 76.723032 
L 236.078387 77.664577 
L 236.241613 79.408179 
L 236.404838 79.216383 
L 236.568063 78.850227 
L 236.731288 79.408179 
L 236.894513 80.968703 
L 237.220963 78.937407 
L 237.384188 79.320999 
L 237.873863 83.392309 
L 238.037088 81.962556 
L 238.200313 82.354866 
L 238.363538 81.692298 
L 238.689988 83.671286 
L 238.853213 83.557952 
L 239.016438 83.078461 
L 239.179663 83.287693 
L 239.669338 85.205655 
L 239.832563 86.801051 
L 240.159013 85.371298 
L 240.648688 89.407736 
L 240.811913 90.357999 
L 240.975138 90.201075 
L 241.138363 91.05544 
L 241.301588 90.724155 
L 241.464813 91.09903 
L 241.954488 93.234942 
L 242.117713 92.825195 
L 242.280938 94.699567 
L 242.444163 95.03957 
L 242.607388 94.708285 
L 242.770613 94.725721 
L 243.097063 95.283674 
L 243.260288 95.12675 
L 243.586738 96.312399 
L 243.749963 96.983686 
L 244.402863 95.614958 
L 244.729313 96.565221 
L 244.892538 98.518055 
L 245.055763 97.750871 
L 245.218988 97.663691 
L 245.545438 99.24165 
L 245.871888 101.307818 
L 246.035113 102.031413 
L 246.198338 100.81961 
L 246.361563 101.900643 
L 246.524788 101.935515 
L 246.688013 99.642679 
L 247.014463 100.052425 
L 247.177688 100.871918 
L 247.340913 101.054996 
L 247.504138 99.973963 
L 247.667363 100.60166 
L 247.830588 101.857053 
L 247.993813 101.822181 
L 248.483488 107.881197 
L 248.646713 109.729415 
L 248.809938 110.200188 
L 248.973163 111.603787 
L 249.136388 110.01711 
L 249.299613 110.226342 
L 249.462838 110.182752 
L 249.626063 110.269932 
L 249.789288 110.662242 
L 249.952513 111.490453 
L 250.115738 112.989951 
L 250.442188 110.880192 
L 250.605413 111.263785 
L 251.095088 109.520183 
L 251.258313 108.325816 
L 251.421538 108.561202 
L 251.747988 106.521188 
L 251.911213 106.355546 
L 252.074439 103.818605 
L 252.564114 106.495034 
L 252.727339 106.878626 
L 253.053789 108.412996 
L 253.706689 107.392989 
L 253.869914 106.407854 
L 254.033139 106.120159 
L 254.686039 109.206335 
L 254.849264 108.814024 
L 255.012489 109.363259 
L 255.175714 109.249925 
L 255.338939 107.044268 
L 255.665389 109.345823 
L 255.828614 107.933505 
L 255.991839 108.430432 
L 256.318289 107.977095 
L 256.644739 110.400702 
L 256.807964 109.729415 
L 256.971189 109.773005 
L 257.297639 108.953512 
L 257.460864 108.805306 
L 257.624089 107.262219 
L 257.950539 106.024261 
L 258.113764 104.49861 
L 258.276989 105.370411 
L 258.440214 104.49861 
L 258.603439 104.925792 
L 258.929889 103.722707 
L 259.256339 104.437584 
L 259.419564 105.265795 
L 259.746014 104.062709 
L 259.909239 104.45502 
L 260.072464 103.417577 
L 260.235689 103.914503 
L 260.398914 105.631951 
L 260.562139 105.631951 
L 260.725364 106.076569 
L 261.215039 108.535048 
L 261.378264 107.462733 
L 261.704714 106.808882 
L 261.867939 107.942223 
L 262.357614 104.106299 
L 262.520839 104.019119 
L 262.684064 105.867337 
L 262.847289 102.87706 
L 263.010514 102.580648 
L 263.173739 104.795022 
L 263.336964 105.187332 
L 263.500189 104.080145 
L 263.826639 101.12474 
L 263.989864 102.319107 
L 264.153089 101.447307 
L 264.316314 101.665257 
L 264.479539 101.098586 
L 264.642764 101.020124 
L 264.805989 100.592942 
L 264.969214 99.825757 
L 265.132439 100.008835 
L 265.458889 98.404721 
L 265.622114 98.814468 
L 265.785339 96.469323 
L 265.948564 96.539067 
L 266.438239 97.515484 
L 266.601464 96.739582 
L 266.764689 98.021129 
L 266.927914 97.367278 
L 267.091139 97.750871 
L 267.744039 101.708847 
L 267.907265 102.092439 
L 268.39694 104.917074 
L 268.560165 108.665818 
L 269.04984 108.474022 
L 269.213065 107.846325 
L 269.37629 108.290944 
L 269.539515 106.451444 
L 269.865965 106.55606 
L 270.02919 108.48274 
L 270.35564 108.735562 
L 270.518865 109.502747 
L 270.68209 109.363259 
L 270.845315 108.936076 
L 271.00854 109.572491 
L 271.171765 109.406849 
L 271.33499 110.069418 
L 271.498215 109.816595 
L 271.66144 109.790441 
L 271.824665 110.470446 
L 272.151115 108.238636 
L 272.477565 110.505318 
L 272.64079 110.32224 
L 272.804015 110.391984 
L 272.96724 108.970948 
L 273.130465 109.040693 
L 273.29369 109.363259 
L 273.456915 108.988384 
L 273.62014 109.363259 
L 273.783365 108.674536 
L 274.109815 110.644806 
L 274.27304 110.313522 
L 274.59949 112.275074 
L 274.762715 111.473017 
L 275.25239 114.358678 
L 275.415615 115.064837 
L 275.57884 114.820733 
L 276.068515 113.268927 
L 276.23174 114.637654 
L 276.394965 113.983804 
L 276.55819 115.152017 
L 276.721415 114.254062 
L 276.88464 114.358678 
L 277.21109 115.832022 
L 277.374315 115.701252 
L 277.53754 115.997664 
L 277.700765 114.559192 
L 277.86399 115.614071 
L 278.19044 115.849458 
L 278.353665 115.265351 
L 278.51689 115.509455 
L 278.680115 116.695105 
L 278.84334 116.634079 
L 279.006565 114.410986 
L 279.16979 114.34996 
L 279.333015 116.852029 
L 279.49624 117.113569 
L 279.659465 116.241768 
L 279.82269 116.49459 
L 279.985915 117.532033 
L 280.312365 120.21718 
L 280.47559 119.083839 
L 281.12849 122.178732 
L 281.291715 121.83873 
L 281.618165 123.468998 
L 281.78139 125.116701 
L 281.944615 124.175157 
L 282.271065 126.651071 
L 282.43429 126.433121 
L 282.597515 124.733109 
L 282.923965 123.992078 
L 283.08719 124.672083 
L 283.250415 124.096694 
L 283.41364 124.968495 
L 283.576865 124.741827 
L 283.74009 125.439268 
L 283.903316 125.116701 
L 284.066541 124.210029 
L 284.229766 124.323363 
L 284.392991 124.968495 
L 284.556216 124.419261 
L 284.719441 124.323363 
L 284.882666 125.142856 
L 285.045891 125.046957 
L 285.372341 127.147998 
L 285.535566 127.217742 
L 285.698791 128.290057 
L 285.862016 127.845438 
L 286.025241 130.007505 
L 286.351691 128.464417 
L 286.514916 128.385955 
L 286.678141 128.778265 
L 286.841366 129.650066 
L 287.004591 129.37109 
L 287.657491 131.245462 
L 287.983941 128.542879 
L 288.310391 129.100832 
L 288.473616 129.929043 
L 288.636841 129.745964 
L 288.963291 128.638777 
L 289.126516 128.412109 
L 289.289741 128.699803 
L 289.452966 130.164429 
L 289.616191 129.336218 
L 289.779416 129.510578 
L 290.105866 129.397244 
L 290.269091 127.889028 
L 290.432316 129.126986 
L 290.595541 128.708521 
L 290.758766 129.911607 
L 291.085216 129.597758 
L 291.411666 129.15314 
L 291.574891 127.845438 
L 291.738116 127.653642 
L 291.901341 127.906464 
L 292.064566 128.900317 
L 292.391016 128.691085 
L 292.554241 128.821855 
L 292.717466 128.525443 
L 293.207141 130.199301 
L 293.370366 129.824426 
L 293.533591 128.377237 
L 293.860041 129.222884 
L 294.186491 130.800843 
L 294.349716 130.983922 
L 294.676166 131.916749 
L 294.839391 130.085967 
L 295.002616 131.245462 
L 295.165841 131.350078 
L 295.329066 132.221879 
L 295.492291 133.965481 
L 295.818741 133.512144 
L 296.145191 134.697794 
L 296.471641 134.209585 
L 296.634866 133.285476 
L 296.798091 133.346502 
L 296.961316 132.204443 
L 297.124541 132.178289 
L 297.450991 132.588035 
L 297.614216 131.454694 
L 297.777441 132.160853 
L 297.940666 131.489566 
L 298.103891 127.252614 
L 298.267116 126.145427 
L 298.430341 127.514154 
L 298.593566 126.903893 
L 298.920016 129.257756 
L 299.083241 130.164429 
L 299.246466 130.103403 
L 299.409691 130.443405 
L 299.899367 128.961344 
L 300.062592 129.772118 
L 300.225817 129.257756 
L 300.389042 129.144422 
L 300.552267 130.853152 
L 300.878717 128.647495 
L 301.041942 129.562886 
L 301.205167 129.597758 
L 301.531617 128.045953 
L 301.858067 126.563891 
L 302.021292 126.703379 
L 302.184517 126.110555 
L 302.347742 126.807995 
L 302.510967 125.709526 
L 302.674192 126.520301 
L 303.000642 124.550031 
L 303.163867 125.317216 
L 303.490317 124.271055 
L 303.653542 122.396683 
L 303.979992 121.568472 
L 304.143217 121.629498 
L 304.469667 125.726962 
L 304.632892 125.421832 
L 304.796117 126.380813 
L 304.959342 125.831578 
L 305.285792 127.505436 
L 305.449017 127.819284 
L 305.612242 128.516725 
L 305.775467 128.473135 
L 305.938692 128.760829 
L 306.101917 129.536732 
L 306.265142 129.528014 
L 306.428367 129.667502 
L 306.591592 130.382379 
L 306.754817 132.771114 
L 306.918042 132.448547 
L 307.081267 133.09368 
L 307.244492 132.78855 
L 307.407717 132.997782 
L 307.734167 131.51572 
L 308.387067 133.233168 
L 308.550292 132.134699 
L 309.203192 135.883443 
L 309.366417 135.212156 
L 309.529642 135.02036 
L 309.856092 136.380369 
L 310.019317 137.042938 
L 310.508992 135.804981 
L 310.672217 137.051656 
L 310.835442 135.804981 
L 311.161892 136.55473 
L 311.325117 138.516282 
L 311.488342 138.838848 
L 311.651567 138.847566 
L 311.814792 139.039362 
L 311.978017 138.803976 
L 312.304467 139.771675 
L 312.467692 138.246023 
L 312.630917 138.603462 
L 312.794142 138.638334 
L 312.957367 137.932175 
L 313.120592 139.09167 
L 313.283817 138.647052 
L 313.447042 139.754239 
L 313.773492 138.734232 
L 313.936717 136.528576 
L 314.099942 138.272177 
L 314.263167 137.356786 
L 314.426392 138.498846 
L 314.589617 141.271173 
L 314.916067 140.565014 
L 315.242517 139.771675 
L 315.405742 140.163985 
L 315.732193 140.225011 
L 315.895418 140.190139 
L 316.221868 141.689637 
L 316.548318 140.721938 
L 316.711543 140.852708 
L 316.874768 141.183992 
L 317.037993 140.050651 
L 317.364443 141.977331 
L 317.527668 141.898869 
L 317.690893 142.090665 
L 317.854118 141.741945 
L 318.017343 142.212718 
L 318.180568 141.506559 
L 318.343793 142.177846 
L 318.507018 142.24759 
L 318.833468 139.26603 
L 318.996693 140.687066 
L 319.159918 141.01835 
L 319.323143 142.631182 
L 319.486368 142.849132 
L 319.649593 141.175274 
L 319.812818 141.707073 
L 320.139268 144.104526 
L 320.465718 141.916305 
L 320.955393 141.471687 
L 321.118618 142.221436 
L 321.281843 142.038357 
L 321.445068 138.952182 
L 321.608293 138.87372 
L 321.771518 138.594744 
L 321.934743 136.790116 
L 322.097968 136.650628 
L 322.261193 134.811128 
L 322.424418 134.645486 
L 322.587643 134.811128 
L 322.750868 134.183431 
L 322.914093 134.253175 
L 323.077318 134.174713 
L 323.403768 133.547016 
L 323.566993 133.869583 
L 323.730218 133.843429 
L 323.893443 134.096251 
L 324.056668 135.23831 
L 324.219893 134.035225 
L 324.709568 135.587031 
L 324.872793 134.985488 
L 325.036018 136.022931 
L 325.362468 134.846 
L 325.525693 134.62805 
L 325.688918 134.968052 
L 325.852143 135.656775 
L 326.015368 135.648057 
L 326.178593 135.438824 
L 326.341818 135.604467 
L 326.505043 136.354215 
L 326.668268 135.630621 
L 326.831493 135.438824 
L 326.994718 135.473696 
L 327.157943 134.846 
L 327.321168 136.214727 
L 327.810843 133.904455 
L 328.137293 133.878301 
L 328.300518 130.809562 
L 328.463743 131.010076 
L 328.626968 130.356225 
L 328.790193 130.469559 
L 329.116643 131.533156 
L 329.279868 129.650066 
L 329.443093 131.25418 
L 329.606318 131.315206 
L 330.095993 133.329066 
L 330.259218 133.39881 
L 330.422443 135.988059 
L 330.585668 135.735237 
L 330.748893 134.610614 
L 330.912118 134.331637 
L 331.565019 138.69936 
L 331.891469 136.406523 
L 332.054694 135.996777 
L 332.217919 134.959334 
L 332.544369 134.828564 
L 332.707594 134.776256 
L 332.870819 135.726519 
L 333.034044 135.508568 
L 333.197269 134.165995 
L 333.360494 134.104969 
L 333.523719 133.163424 
L 333.686944 134.200867 
L 333.850169 134.122405 
L 334.176619 133.459836 
L 334.666294 135.857289 
L 334.829519 135.229592 
L 334.992744 135.177284 
L 335.155969 137.775251 
L 335.319194 137.766533 
L 335.482419 137.600891 
L 335.645644 138.219869 
L 335.808869 138.071663 
L 335.972094 138.167561 
L 336.135319 139.440391 
L 336.298544 139.553725 
L 336.624994 138.019355 
L 336.951444 140.050651 
L 337.114669 140.111677 
L 337.441119 139.632187 
L 337.604344 139.649623 
L 337.767569 137.888585 
L 338.094019 141.288609 
L 338.257244 141.480405 
L 338.420469 142.29118 
L 338.583694 141.698355 
L 338.746919 143.241443 
L 339.073369 142.570156 
L 339.236594 141.837843 
L 339.399819 141.968613 
L 339.563044 141.611175 
L 339.726269 139.30962 
L 339.889494 139.588597 
L 340.215944 139.17885 
L 340.379169 137.417812 
L 340.542394 137.42653 
L 340.705619 139.632187 
L 340.868844 138.926028 
L 341.195294 136.633192 
L 341.358519 136.258317 
L 341.521744 136.55473 
L 341.684969 136.389087 
L 341.848194 136.397805 
L 342.011419 136.232163 
L 342.174644 136.389087 
L 342.501094 135.874725 
L 342.664319 136.127547 
L 342.827544 136.136265 
L 342.990769 135.970623 
L 343.153994 136.798834 
L 343.317219 136.955758 
L 343.480444 136.781398 
L 343.643669 137.539865 
L 343.806894 137.156272 
L 344.133344 137.888585 
L 344.296569 138.167561 
L 344.459794 133.581888 
L 344.623019 132.622907 
L 344.786244 135.578313 
L 345.112694 136.423959 
L 345.275919 136.81627 
L 345.439144 137.679353 
L 345.602369 137.25217 
L 345.765594 139.553725 
L 345.928819 139.614751 
L 346.092044 138.010637 
L 346.255269 138.001919 
L 346.418494 138.193715 
L 346.744944 138.115253 
L 346.908169 138.385511 
L 347.071394 137.609609 
L 347.234619 138.115253 
L 347.56107 136.162419 
L 347.724295 134.680358 
L 347.88752 134.741384 
L 348.050745 134.349073 
L 348.21397 135.32549 
L 348.377195 133.764967 
L 348.54042 133.599324 
L 348.703645 135.351644 
L 349.030095 134.654204 
L 349.19332 135.299336 
L 349.356545 134.80241 
L 349.51977 133.860865 
L 349.84622 134.514715 
L 350.009445 136.397805 
L 350.17267 136.022931 
L 350.335895 136.223445 
L 350.49912 136.72909 
L 350.662345 136.502422 
L 350.82557 136.519858 
L 350.988795 135.447542 
L 351.15202 135.395234 
L 351.47847 136.441395 
L 351.641695 134.872154 
L 351.80492 136.057803 
L 352.13137 134.209585 
L 352.45782 134.575741 
L 352.78427 133.564452 
L 352.947495 132.248033 
L 353.273945 133.608042 
L 353.43717 134.183431 
L 353.600395 133.608042 
L 353.926845 131.986493 
L 354.09007 131.847005 
L 354.41652 134.131123 
L 354.579745 134.418817 
L 354.74297 133.948045 
L 355.06942 135.900879 
L 355.232645 135.953187 
L 355.39587 136.781398 
L 355.559095 136.85986 
L 355.72232 138.115253 
L 355.885545 138.237305 
L 356.04877 138.638334 
L 356.211995 141.585021 
L 356.538445 141.776817 
L 357.02812 144.671196 
L 357.191345 144.723504 
L 357.35457 145.124533 
L 357.517795 146.632748 
L 357.68102 146.719928 
L 357.844245 147.487113 
L 358.00747 146.981469 
L 358.170695 147.460959 
L 358.33392 146.074796 
L 358.497145 146.205566 
L 358.66037 146.05736 
L 358.98682 145.420945 
L 359.150045 144.444528 
L 359.476495 144.156834 
L 359.802945 142.971184 
L 359.96617 143.380931 
L 360.29262 142.169127 
L 360.782295 142.796824 
L 361.108745 148.943021 
L 361.27197 149.518409 
L 361.435195 148.603018 
L 361.761645 148.716352 
L 361.92487 148.02763 
L 362.088095 147.931732 
L 362.414545 146.719928 
L 362.57777 148.140964 
L 362.90422 144.496836 
L 363.393896 142.456822 
L 363.720346 143.938883 
L 363.883571 142.108101 
L 364.210021 143.781959 
L 364.373246 142.77067 
L 364.536471 140.068087 
L 364.699696 141.088094 
L 364.862921 143.537855 
L 365.026146 143.755805 
L 365.189371 143.537855 
L 365.352596 144.043499 
L 365.679046 142.37836 
L 365.842271 143.128109 
L 366.005496 144.470682 
L 366.168721 144.08709 
L 366.331946 144.209142 
L 366.495171 143.912729 
L 367.148071 143.816831 
L 367.311296 143.912729 
L 367.474521 144.34863 
L 367.637746 144.244014 
L 367.800971 144.52299 
L 367.964196 144.17427 
L 368.127421 145.185559 
L 368.290646 144.584016 
L 368.453871 145.630177 
L 368.617096 145.246585 
L 368.943546 143.546573 
L 369.596446 147.007623 
L 369.759671 145.961461 
L 369.922896 145.891717 
L 370.249346 147.504549 
L 370.412571 145.952743 
L 370.575796 146.3189 
L 370.739021 146.327618 
L 370.902246 146.589158 
L 371.065471 145.856845 
L 371.391921 142.404514 
L 371.555146 142.648618 
L 371.718371 142.840414 
L 371.881596 142.474258 
L 372.044821 142.81426 
L 372.208046 143.555291 
L 373.024171 140.521424 
L 373.187396 139.056798 
L 373.350621 138.603462 
L 373.513846 139.170132 
L 373.677071 137.906021 
L 374.003521 137.522429 
L 374.166746 137.635763 
L 374.329971 137.20858 
L 374.493196 137.531147 
L 374.656421 136.389087 
L 374.819646 136.711654 
L 375.146096 134.968052 
L 375.309321 135.970623 
L 375.472546 135.438824 
L 375.635771 136.249599 
L 375.798996 136.057803 
L 375.962221 134.383945 
L 376.288671 136.668064 
L 376.451896 136.77268 
L 376.778346 137.600891 
L 376.941571 137.644481 
L 377.104796 137.470121 
L 377.268021 138.315767 
L 377.431246 138.211151 
L 377.594471 138.577308 
L 377.757696 138.071663 
L 377.920921 138.525 
L 378.084146 138.307049 
L 378.247371 138.43782 
L 378.573821 139.196286 
L 378.737046 138.91731 
L 379.063497 139.440391 
L 379.389947 142.256308 
L 379.553172 142.72708 
L 379.716397 142.77067 
L 379.879622 142.953748 
L 380.206072 139.902445 
L 380.369297 141.637329 
L 380.695747 142.674772 
L 380.858972 143.651189 
L 381.022197 145.386073 
L 381.185422 145.647613 
L 381.348647 145.202995 
L 381.511872 145.595305 
L 381.838322 144.924018 
L 382.164772 145.168123 
L 382.327997 145.072225 
L 382.491222 143.529137 
L 382.654447 145.359919 
L 382.817672 144.732222 
L 382.980897 145.011198 
L 383.144122 144.069653 
L 383.307347 144.095808 
L 383.633797 143.668625 
L 383.797022 143.084518 
L 384.286697 143.136827 
L 384.613147 144.278886 
L 384.776372 144.400938 
L 385.102822 143.720933 
L 385.429272 145.996334 
L 385.592497 145.821973 
L 385.755722 146.031206 
L 386.082172 145.089661 
L 386.245397 144.505554 
L 386.408622 143.101954 
L 386.735072 141.968613 
L 386.898297 144.627606 
L 387.061522 144.21786 
L 387.224747 144.366066 
L 387.387972 143.450675 
L 387.551197 138.838848 
L 387.714422 140.085523 
L 387.877647 140.155267 
L 388.204097 139.344493 
L 388.367322 139.257312 
L 388.530547 138.751668 
L 388.693772 138.83013 
L 388.856997 139.335775 
L 389.020222 139.344493 
L 389.183447 140.076805 
L 389.346672 139.562443 
L 389.836347 141.253737 
L 389.999572 139.187568 
L 390.162797 139.937317 
L 390.326022 139.422955 
L 390.489247 139.745521 
L 390.652472 139.562443 
L 390.815697 140.050651 
L 391.142147 140.259883 
L 391.305372 141.776817 
L 391.468597 142.047075 
L 391.631822 143.101954 
L 391.795047 143.171699 
L 391.958272 144.557862 
L 392.284722 143.877857 
L 392.447947 145.098379 
L 392.611172 144.932736 
L 392.937622 143.162981 
L 393.264072 143.189135 
L 393.916972 140.591168 
L 394.080197 138.847566 
L 394.243422 135.587031 
L 394.406647 135.674211 
L 394.733097 134.314201 
L 395.059548 132.901884 
L 395.222773 133.424964 
L 395.385998 132.317777 
L 395.549223 132.370085 
L 395.875673 132.710088 
L 396.038898 132.727524 
L 396.202123 132.291623 
L 396.365348 132.518291 
L 396.528573 131.768543 
L 396.691798 134.035225 
L 396.855023 134.532151 
L 397.018248 134.000353 
L 397.181473 134.009071 
L 397.344698 132.736242 
L 397.507923 133.538298 
L 397.834373 133.09368 
L 397.997598 132.387521 
L 398.160823 132.849576 
L 398.487273 132.204443 
L 398.487273 132.204443 
" clip-path="url(#p90c5c2513d)" style="fill: none; stroke: #1f77b4; stroke-width: 1.5; stroke-linecap: square"/>
   </g>
   <g id="patch_3">
    <path d="M 57.6 307.584 
L 57.6 41.472 
" style="fill: none; stroke: #000000; stroke-width: 0.8; stroke-linejoin: miter; stroke-linecap: square"/>
   </g>
   <g id="patch_4">
    <path d="M 414.72 307.584 
L 414.72 41.472 
" style="fill: none; stroke: #000000; stroke-width: 0.8; stroke-linejoin: miter; stroke-linecap: square"/>
   </g>
   <g id="patch_5">
    <path d="M 57.6 307.584 
L 414.72 307.584 
" style="fill: none; stroke: #000000; stroke-width: 0.8; stroke-linejoin: miter; stroke-linecap: square"/>
   </g>
   <g id="patch_6">
    <path d="M 57.6 41.472 
L 414.72 41.472 
" style="fill: none; stroke: #000000; stroke-width: 0.8; stroke-linejoin: miter; stroke-linecap: square"/>
   </g>
   <g id="text_19">
    <!-- Rolling average training progress of owner/throw_away -->
    <g transform="translate(70.519688 35.472)scale(0.12 -0.12)">
     <defs>
      <path id="DejaVuSans-52" d="M 2841 2188 
Q 3044 2119 3236 1894 
Q 3428 1669 3622 1275 
L 4263 0 
L 3584 0 
L 2988 1197 
Q 2756 1666 2539 1819 
Q 2322 1972 1947 1972 
L 1259 1972 
L 1259 0 
L 628 0 
L 628 4666 
L 2053 4666 
Q 2853 4666 3247 4331 
Q 3641 3997 3641 3322 
Q 3641 2881 3436 2590 
Q 3231 2300 2841 2188 
z
M 1259 4147 
L 1259 2491 
L 2053 2491 
Q 2509 2491 2742 2702 
Q 2975 2913 2975 3322 
Q 2975 3731 2742 3939 
Q 2509 4147 2053 4147 
L 1259 4147 
z
" transform="scale(0.015625)"/>
      <path id="DejaVuSans-6c" d="M 603 4863 
L 1178 4863 
L 1178 0 
L 603 0 
L 603 4863 
z
" transform="scale(0.015625)"/>
      <path id="DejaVuSans-67" d="M 2906 1791 
Q 2906 2416 2648 2759 
Q 2391 3103 1925 3103 
Q 1463 3103 1205 2759 
Q 947 2416 947 1791 
Q 947 1169 1205 825 
Q 1463 481 1925 481 
Q 2391 481 2648 825 
Q 2906 1169 2906 1791 
z
M 3481 434 
Q 3481 -459 3084 -895 
Q 2688 -1331 1869 -1331 
Q 1566 -1331 1297 -1286 
Q 1028 -1241 775 -1147 
L 775 -588 
Q 1028 -725 1275 -790 
Q 1522 -856 1778 -856 
Q 2344 -856 2625 -561 
Q 2906 -266 2906 331 
L 2906 616 
Q 2728 306 2450 153 
Q 2172 0 1784 0 
Q 1141 0 747 490 
Q 353 981 353 1791 
Q 353 2603 747 3093 
Q 1141 3584 1784 3584 
Q 2172 3584 2450 3431 
Q 2728 3278 2906 2969 
L 2906 3500 
L 3481 3500 
L 3481 434 
z
" transform="scale(0.015625)"/>
      <path id="DejaVuSans-20" transform="scale(0.015625)"/>
      <path id="DejaVuSans-76" d="M 191 3500 
L 800 3500 
L 1894 563 
L 2988 3500 
L 3597 3500 
L 2284 0 
L 1503 0 
L 191 3500 
z
" transform="scale(0.015625)"/>
      <path id="DejaVuSans-66" d="M 2375 4863 
L 2375 4384 
L 1825 4384 
Q 1516 4384 1395 4259 
Q 1275 4134 1275 3809 
L 1275 3500 
L 2222 3500 
L 2222 3053 
L 1275 3053 
L 1275 0 
L 697 0 
L 697 3053 
L 147 3053 
L 147 3500 
L 697 3500 
L 697 3744 
Q 697 4328 969 4595 
Q 1241 4863 1831 4863 
L 2375 4863 
z
" transform="scale(0.015625)"/>
     </defs>
     <use xlink:href="#DejaVuSans-52"/>
     <use xlink:href="#DejaVuSans-6f" x="64.982422"/>
     <use xlink:href="#DejaVuSans-6c" x="126.164062"/>
     <use xlink:href="#DejaVuSans-6c" x="153.947266"/>
     <use xlink:href="#DejaVuSans-69" x="181.730469"/>
     <use xlink:href="#DejaVuSans-6e" x="209.513672"/>
     <use xlink:href="#DejaVuSans-67" x="272.892578"/>
     <use xlink:href="#DejaVuSans-20" x="336.369141"/>
     <use xlink:href="#DejaVuSans-61" x="368.15625"/>
     <use xlink:href="#DejaVuSans-76" x="429.435547"/>
     <use xlink:href="#DejaVuSans-65" x="488.615234"/>
     <use xlink:href="#DejaVuSans-72" x="550.138672"/>
     <use xlink:href="#DejaVuSans-61" x="591.251953"/>
     <use xlink:href="#DejaVuSans-67" x="652.53125"/>
     <use xlink:href="#DejaVuSans-65" x="716.007812"/>
     <use xlink:href="#DejaVuSans-20" x="777.53125"/>
     <use xlink:href="#DejaVuSans-74" x="809.318359"/>
     <use xlink:href="#DejaVuSans-72" x="848.527344"/>
     <use xlink:href="#DejaVuSans-61" x="889.640625"/>
     <use xlink:href="#DejaVuSans-69" x="950.919922"/>
     <use xlink:href="#DejaVuSans-6e" x="978.703125"/>
     <use xlink:href="#DejaVuSans-69" x="1042.082031"/>
     <use xlink:href="#DejaVuSans-6e" x="1069.865234"/>
     <use xlink:href="#DejaVuSans-67" x="1133.244141"/>
     <use xlink:href="#DejaVuSans-20" x="1196.720703"/>
     <use xlink:href="#DejaVuSans-70" x="1228.507812"/>
     <use xlink:href="#DejaVuSans-72" x="1291.984375"/>
     <use xlink:href="#DejaVuSans-6f" x="1330.847656"/>
     <use xlink:href="#DejaVuSans-67" x="1392.029297"/>
     <use xlink:href="#DejaVuSans-72" x="1455.505859"/>
     <use xlink:href="#DejaVuSans-65" x="1494.369141"/>
     <use xlink:href="#DejaVuSans-73" x="1555.892578"/>
     <use xlink:href="#DejaVuSans-73" x="1607.992188"/>
     <use xlink:href="#DejaVuSans-20" x="1660.091797"/>
     <use xlink:href="#DejaVuSans-6f" x="1691.878906"/>
     <use xlink:href="#DejaVuSans-66" x="1753.060547"/>
     <use xlink:href="#DejaVuSans-20" x="1788.265625"/>
     <use xlink:href="#DejaVuSans-6f" x="1820.052734"/>
     <use xlink:href="#DejaVuSans-77" x="1881.234375"/>
     <use xlink:href="#DejaVuSans-6e" x="1963.021484"/>
     <use xlink:href="#DejaVuSans-65" x="2026.400391"/>
     <use xlink:href="#DejaVuSans-72" x="2087.923828"/>
     <use xlink:href="#DejaVuSans-2f" x="2129.037109"/>
     <use xlink:href="#DejaVuSans-74" x="2162.728516"/>
     <use xlink:href="#DejaVuSans-68" x="2201.9375"/>
     <use xlink:href="#DejaVuSans-72" x="2265.316406"/>
     <use xlink:href="#DejaVuSans-6f" x="2304.179688"/>
     <use xlink:href="#DejaVuSans-77" x="2365.361328"/>
     <use xlink:href="#DejaVuSans-5f" x="2447.148438"/>
     <use xlink:href="#DejaVuSans-61" x="2497.148438"/>
     <use xlink:href="#DejaVuSans-77" x="2558.427734"/>
     <use xlink:href="#DejaVuSans-61" x="2640.214844"/>
     <use xlink:href="#DejaVuSans-79" x="2701.494141"/>
    </g>
   </g>
  </g>
 </g>
 <defs>
  <clipPath id="p90c5c2513d">
   <rect x="57.6" y="41.472" width="357.12" height="266.112"/>
  </clipPath>
 </defs>
</svg>
