<?xml version="1.0" encoding="utf-8" standalone="no"?>
<!DOCTYPE svg PUBLIC "-//W3C//DTD SVG 1.1//EN"
  "http://www.w3.org/Graphics/SVG/1.1/DTD/svg11.dtd">
<svg xmlns:xlink="http://www.w3.org/1999/xlink" width="460.8pt" height="345.6pt" viewBox="0 0 460.8 345.6" xmlns="http://www.w3.org/2000/svg" version="1.1">
 <metadata>
  <rdf:RDF xmlns:dc="http://purl.org/dc/elements/1.1/" xmlns:cc="http://creativecommons.org/ns#" xmlns:rdf="http://www.w3.org/1999/02/22-rdf-syntax-ns#">
   <cc:Work>
    <dc:type rdf:resource="http://purl.org/dc/dcmitype/StillImage"/>
    <dc:date>2022-06-21T09:14:49.787895</dc:date>
    <dc:format>image/svg+xml</dc:format>
    <dc:creator>
     <cc:Agent>
      <dc:title>Matplotlib v3.5.2, https://matplotlib.org/</dc:title>
     </cc:Agent>
    </dc:creator>
   </cc:Work>
  </rdf:RDF>
 </metadata>
 <defs>
  <style type="text/css">*{stroke-linejoin: round; stroke-linecap: butt}</style>
 </defs>
 <g id="figure_1">
  <g id="patch_1">
   <path d="M 0 345.6 
L 460.8 345.6 
L 460.8 0 
L 0 0 
z
" style="fill: #ffffff"/>
  </g>
  <g id="axes_1">
   <g id="patch_2">
    <path d="M 57.6 307.584 
L 414.72 307.584 
L 414.72 41.472 
L 57.6 41.472 
z
" style="fill: #ffffff"/>
   </g>
   <g id="PolyCollection_1">
    <path d="M 109.748627 268.548826 
L 106.265153 268.548826 
L 105.863976 266.377302 
L 105.396524 264.205779 
L 104.858032 262.034255 
L 104.244588 259.862732 
L 103.553232 257.691208 
L 102.781985 255.519685 
L 101.929812 253.348161 
L 100.996571 251.176638 
L 99.982986 249.005114 
L 98.890731 246.833591 
L 97.722655 244.662067 
L 96.483181 242.490544 
L 95.178838 240.31902 
L 93.818866 238.147497 
L 92.415728 235.975973 
L 90.985407 233.80445 
L 89.5473 231.632926 
L 88.123617 229.461403 
L 86.738241 227.289879 
L 85.41511 225.118356 
L 84.176279 222.946832 
L 83.039905 220.775309 
L 82.018431 218.603785 
L 81.117252 216.432262 
L 80.334084 214.260738 
L 79.659186 212.089215 
L 79.076451 209.917691 
L 78.565266 207.746168 
L 78.102958 205.574644 
L 77.667504 203.403121 
L 77.240198 201.231597 
L 76.807932 199.060074 
L 76.364785 196.88855 
L 75.912735 194.717027 
L 75.461386 192.545503 
L 75.026752 190.37398 
L 74.629271 188.202456 
L 74.291309 186.030933 
L 74.034495 183.859409 
L 73.877235 181.687886 
L 73.832727 179.516362 
L 73.907696 177.344839 
L 74.101976 175.173316 
L 74.408945 173.001792 
L 74.816684 170.830269 
L 75.309669 168.658745 
L 75.870743 166.487222 
L 76.483099 164.315698 
L 77.132019 162.144175 
L 77.806183 159.972651 
L 78.498413 157.801128 
L 79.205778 155.629604 
L 79.929111 153.458081 
L 80.672024 151.286557 
L 81.439594 149.115034 
L 82.236933 146.94351 
L 83.067878 144.771987 
L 83.933991 142.600463 
L 84.83403 140.42894 
L 85.763942 138.257416 
L 86.717344 136.085893 
L 87.686362 133.914369 
L 88.662629 131.742846 
L 89.638242 129.571322 
L 90.606479 127.399799 
L 91.562157 125.228275 
L 92.501598 123.056752 
L 93.422242 120.885228 
L 94.322033 118.713705 
L 95.198712 116.542181 
L 96.049183 114.370658 
L 96.869043 112.199134 
L 97.652358 110.027611 
L 98.391678 107.856087 
L 99.078271 105.684564 
L 99.70252 103.51304 
L 100.254441 101.341517 
L 100.724261 99.169993 
L 101.103082 96.99847 
L 101.383573 94.826946 
L 101.560735 92.655423 
L 101.632675 90.483899 
L 101.601369 88.312376 
L 101.473323 86.140852 
L 101.260027 83.969329 
L 100.978097 81.797805 
L 100.649008 79.626282 
L 100.298346 77.454758 
L 99.954572 75.283235 
L 99.647354 73.111711 
L 99.405569 70.940188 
L 99.255168 68.768664 
L 99.217109 66.597141 
L 99.305596 64.425617 
L 99.526831 62.254094 
L 99.878463 60.08257 
L 100.349806 57.911047 
L 100.922826 55.739523 
L 101.573799 53.568 
L 114.439981 53.568 
L 114.439981 53.568 
L 115.090954 55.739523 
L 115.663974 57.911047 
L 116.135316 60.08257 
L 116.486949 62.254094 
L 116.708184 64.425617 
L 116.79667 66.597141 
L 116.758612 68.768664 
L 116.608211 70.940188 
L 116.366426 73.111711 
L 116.059208 75.283235 
L 115.715434 77.454758 
L 115.364772 79.626282 
L 115.035682 81.797805 
L 114.753753 83.969329 
L 114.540457 86.140852 
L 114.412411 88.312376 
L 114.381105 90.483899 
L 114.453045 92.655423 
L 114.630207 94.826946 
L 114.910698 96.99847 
L 115.289519 99.169993 
L 115.759339 101.341517 
L 116.311259 103.51304 
L 116.935509 105.684564 
L 117.622102 107.856087 
L 118.361422 110.027611 
L 119.144737 112.199134 
L 119.964597 114.370658 
L 120.815068 116.542181 
L 121.691747 118.713705 
L 122.591538 120.885228 
L 123.512182 123.056752 
L 124.451623 125.228275 
L 125.407301 127.399799 
L 126.375538 129.571322 
L 127.351151 131.742846 
L 128.327418 133.914369 
L 129.296436 136.085893 
L 130.249838 138.257416 
L 131.17975 140.42894 
L 132.079789 142.600463 
L 132.945902 144.771987 
L 133.776847 146.94351 
L 134.574186 149.115034 
L 135.341756 151.286557 
L 136.084669 153.458081 
L 136.808002 155.629604 
L 137.515367 157.801128 
L 138.207596 159.972651 
L 138.881761 162.144175 
L 139.53068 164.315698 
L 140.143036 166.487222 
L 140.704111 168.658745 
L 141.197096 170.830269 
L 141.604835 173.001792 
L 141.911804 175.173316 
L 142.106084 177.344839 
L 142.181053 179.516362 
L 142.136545 181.687886 
L 141.979285 183.859409 
L 141.72247 186.030933 
L 141.384508 188.202456 
L 140.987028 190.37398 
L 140.552394 192.545503 
L 140.101045 194.717027 
L 139.648995 196.88855 
L 139.205848 199.060074 
L 138.773582 201.231597 
L 138.346276 203.403121 
L 137.910822 205.574644 
L 137.448514 207.746168 
L 136.937329 209.917691 
L 136.354594 212.089215 
L 135.679696 214.260738 
L 134.896528 216.432262 
L 133.995349 218.603785 
L 132.973875 220.775309 
L 131.837501 222.946832 
L 130.59867 225.118356 
L 129.275539 227.289879 
L 127.890163 229.461403 
L 126.46648 231.632926 
L 125.028373 233.80445 
L 123.598052 235.975973 
L 122.194914 238.147497 
L 120.834941 240.31902 
L 119.530599 242.490544 
L 118.291125 244.662067 
L 117.123049 246.833591 
L 116.030794 249.005114 
L 115.017209 251.176638 
L 114.083967 253.348161 
L 113.231795 255.519685 
L 112.460548 257.691208 
L 111.769192 259.862732 
L 111.155748 262.034255 
L 110.617256 264.205779 
L 110.149804 266.377302 
L 109.748627 268.548826 
z
" clip-path="url(#p5d76bd6e05)" style="fill: #1f77b4; fill-opacity: 0.3"/>
   </g>
   <g id="PolyCollection_2">
    <path d="M 194.001339 295.488 
L 192.883254 295.488 
L 192.783106 293.787275 
L 192.675543 292.08655 
L 192.558725 290.385826 
L 192.428994 288.685101 
L 192.280336 286.984376 
L 192.103904 285.283651 
L 191.887791 283.582926 
L 191.617214 281.882202 
L 191.275182 280.181477 
L 190.843621 278.480752 
L 190.304754 276.780027 
L 189.642557 275.079302 
L 188.844117 273.378578 
L 187.900848 271.677853 
L 186.809593 269.977128 
L 185.573615 268.276403 
L 184.203359 266.575678 
L 182.71672 264.874954 
L 181.138462 263.174229 
L 179.498523 261.473504 
L 177.829205 259.772779 
L 176.161633 258.072054 
L 174.522188 256.37133 
L 172.929771 254.670605 
L 171.394638 252.96988 
L 169.919176 251.269155 
L 168.50054 249.56843 
L 167.134559 247.867706 
L 165.820043 246.166981 
L 164.56245 244.466256 
L 163.376035 242.765531 
L 162.2839 241.064806 
L 161.31582 239.364082 
L 160.504248 237.663357 
L 159.879276 235.962632 
L 159.463554 234.261907 
L 159.268134 232.561182 
L 159.289938 230.860458 
L 159.511228 229.159733 
L 159.901106 227.459008 
L 160.418838 225.758283 
L 161.018643 224.057558 
L 161.655418 222.356834 
L 162.290598 220.656109 
L 162.897171 218.955384 
L 163.462703 217.254659 
L 163.989568 215.553934 
L 164.492213 213.85321 
L 164.992245 212.152485 
L 165.512861 210.45176 
L 166.0744 208.751035 
L 166.692199 207.05031 
L 167.376929 205.349586 
L 168.136411 203.648861 
L 168.977347 201.948136 
L 169.905622 200.247411 
L 170.924751 198.546687 
L 172.033137 196.845962 
L 173.22157 195.145237 
L 174.4724 193.444512 
L 175.761121 191.743787 
L 177.060085 190.043063 
L 178.343148 188.342338 
L 179.589714 186.641613 
L 180.786881 184.940888 
L 181.929187 183.240163 
L 183.016349 181.539439 
L 184.050085 179.838714 
L 185.031282 178.137989 
L 185.958449 176.437264 
L 186.827755 174.736539 
L 187.634269 173.035815 
L 188.373621 171.33509 
L 189.043322 169.634365 
L 189.643255 167.93364 
L 190.175293 166.232915 
L 190.642343 164.532191 
L 191.047243 162.831466 
L 191.391932 161.130741 
L 191.677124 159.430016 
L 191.902577 157.729291 
L 192.067872 156.028567 
L 192.173541 154.327842 
L 192.22232 152.627117 
L 192.220208 150.926392 
L 192.17705 149.225667 
L 192.106362 147.524943 
L 192.024267 145.824218 
L 191.947639 144.123493 
L 191.891789 142.422768 
L 191.868265 140.722043 
L 191.88332 139.021319 
L 191.937479 137.320594 
L 192.026279 135.619869 
L 192.141893 133.919144 
L 192.2751 132.218419 
L 192.417022 130.517695 
L 192.560232 128.81697 
L 192.699119 127.116245 
L 194.185474 127.116245 
L 194.185474 127.116245 
L 194.324362 128.81697 
L 194.467571 130.517695 
L 194.609494 132.218419 
L 194.742701 133.919144 
L 194.858314 135.619869 
L 194.947114 137.320594 
L 195.001273 139.021319 
L 195.016328 140.722043 
L 194.992804 142.422768 
L 194.936954 144.123493 
L 194.860326 145.824218 
L 194.778232 147.524943 
L 194.707544 149.225667 
L 194.664385 150.926392 
L 194.662273 152.627117 
L 194.711052 154.327842 
L 194.816722 156.028567 
L 194.982016 157.729291 
L 195.207469 159.430016 
L 195.492662 161.130741 
L 195.83735 162.831466 
L 196.24225 164.532191 
L 196.7093 166.232915 
L 197.241338 167.93364 
L 197.841271 169.634365 
L 198.510972 171.33509 
L 199.250324 173.035815 
L 200.056838 174.736539 
L 200.926145 176.437264 
L 201.853311 178.137989 
L 202.834508 179.838714 
L 203.868245 181.539439 
L 204.955407 183.240163 
L 206.097712 184.940888 
L 207.294879 186.641613 
L 208.541445 188.342338 
L 209.824508 190.043063 
L 211.123472 191.743787 
L 212.412193 193.444512 
L 213.663023 195.145237 
L 214.851456 196.845962 
L 215.959842 198.546687 
L 216.978972 200.247411 
L 217.907247 201.948136 
L 218.748182 203.648861 
L 219.507664 205.349586 
L 220.192395 207.05031 
L 220.810194 208.751035 
L 221.371732 210.45176 
L 221.892349 212.152485 
L 222.39238 213.85321 
L 222.895025 215.553934 
L 223.42189 217.254659 
L 223.987422 218.955384 
L 224.593995 220.656109 
L 225.229176 222.356834 
L 225.86595 224.057558 
L 226.465756 225.758283 
L 226.983487 227.459008 
L 227.373365 229.159733 
L 227.594656 230.860458 
L 227.616459 232.561182 
L 227.421039 234.261907 
L 227.005318 235.962632 
L 226.380346 237.663357 
L 225.568774 239.364082 
L 224.600693 241.064806 
L 223.508558 242.765531 
L 222.322144 244.466256 
L 221.06455 246.166981 
L 219.750034 247.867706 
L 218.384053 249.56843 
L 216.965417 251.269155 
L 215.489956 252.96988 
L 213.954822 254.670605 
L 212.362406 256.37133 
L 210.722961 258.072054 
L 209.055389 259.772779 
L 207.386071 261.473504 
L 205.746132 263.174229 
L 204.167873 264.874954 
L 202.681234 266.575678 
L 201.310978 268.276403 
L 200.075 269.977128 
L 198.983745 271.677853 
L 198.040476 273.378578 
L 197.242036 275.079302 
L 196.579839 276.780027 
L 196.040972 278.480752 
L 195.609411 280.181477 
L 195.267379 281.882202 
L 194.996802 283.582926 
L 194.78069 285.283651 
L 194.604257 286.984376 
L 194.455599 288.685101 
L 194.325869 290.385826 
L 194.209051 292.08655 
L 194.101487 293.787275 
L 194.001339 295.488 
z
" clip-path="url(#p5d76bd6e05)" style="fill: #1f77b4; fill-opacity: 0.3"/>
   </g>
   <g id="PolyCollection_3">
    <path d="M 283.052921 291.776141 
L 274.702486 291.776141 
L 273.526447 290.324806 
L 272.160424 288.873472 
L 270.611676 287.422137 
L 268.896809 285.970802 
L 267.041362 284.519468 
L 265.078699 283.068133 
L 263.048399 281.616798 
L 260.994397 280.165463 
L 258.963013 278.714129 
L 257.000868 277.262794 
L 255.15258 275.811459 
L 253.458122 274.360125 
L 251.949841 272.90879 
L 250.649376 271.457455 
L 249.565018 270.006121 
L 248.690189 268.554786 
L 248.003758 267.103451 
L 247.472594 265.652117 
L 247.056274 264.200782 
L 246.713202 262.749447 
L 246.406968 261.298113 
L 246.111587 259.846778 
L 245.814575 258.395443 
L 245.517417 256.944109 
L 245.233693 255.492774 
L 244.98562 254.041439 
L 244.799891 252.590104 
L 244.703541 251.13877 
L 244.720233 249.687435 
L 244.86724 248.2361 
L 245.153371 246.784766 
L 245.578296 245.333431 
L 246.133652 243.882096 
L 246.80601 242.430762 
L 247.581114 240.979427 
L 248.448101 239.528092 
L 249.402135 238.076758 
L 250.444243 236.625423 
L 251.578151 235.174088 
L 252.805173 233.722754 
L 254.119096 232.271419 
L 255.503127 230.820084 
L 256.930214 229.368749 
L 258.366707 227.917415 
L 259.778106 226.46608 
L 261.134934 225.014745 
L 262.416897 223.563411 
L 263.614332 222.112076 
L 264.726935 220.660741 
L 265.760684 219.209407 
L 266.724164 217.758072 
L 267.625448 216.306737 
L 268.470165 214.855403 
L 269.260903 213.404068 
L 269.997703 211.952733 
L 270.679214 210.501399 
L 271.30407 209.050064 
L 271.872157 207.598729 
L 272.385487 206.147395 
L 272.848516 204.69606 
L 273.267802 203.244725 
L 273.651052 201.79339 
L 274.00574 200.342056 
L 274.337693 198.890721 
L 274.650054 197.439386 
L 274.943017 195.988052 
L 275.214465 194.536717 
L 275.461328 193.085382 
L 275.681226 191.634048 
L 275.873811 190.182713 
L 276.041383 188.731378 
L 276.188625 187.280044 
L 276.321646 185.828709 
L 276.446788 184.377374 
L 276.569634 182.92604 
L 276.694519 181.474705 
L 276.824509 180.02337 
L 276.961639 178.572036 
L 277.107072 177.120701 
L 277.261002 175.669366 
L 277.422297 174.218031 
L 277.588126 172.766697 
L 277.753839 171.315362 
L 277.913355 169.864027 
L 278.060036 168.412693 
L 278.187869 166.961358 
L 278.292617 165.510023 
L 278.372571 164.058689 
L 278.428723 162.607354 
L 278.464337 161.156019 
L 278.484099 159.704685 
L 278.493156 158.25335 
L 278.496306 156.802015 
L 278.497527 155.350681 
L 278.499855 153.899346 
L 278.505494 152.448011 
L 278.515999 150.996677 
L 278.532376 149.545342 
L 278.555061 148.094007 
L 279.200346 148.094007 
L 279.200346 148.094007 
L 279.22303 149.545342 
L 279.239408 150.996677 
L 279.249913 152.448011 
L 279.255552 153.899346 
L 279.25788 155.350681 
L 279.259101 156.802015 
L 279.262251 158.25335 
L 279.271308 159.704685 
L 279.29107 161.156019 
L 279.326683 162.607354 
L 279.382836 164.058689 
L 279.46279 165.510023 
L 279.567537 166.961358 
L 279.695371 168.412693 
L 279.842051 169.864027 
L 280.001567 171.315362 
L 280.167281 172.766697 
L 280.333109 174.218031 
L 280.494405 175.669366 
L 280.648335 177.120701 
L 280.793768 178.572036 
L 280.930897 180.02337 
L 281.060888 181.474705 
L 281.185772 182.92604 
L 281.308619 184.377374 
L 281.43376 185.828709 
L 281.566782 187.280044 
L 281.714023 188.731378 
L 281.881596 190.182713 
L 282.074181 191.634048 
L 282.294078 193.085382 
L 282.540942 194.536717 
L 282.81239 195.988052 
L 283.105353 197.439386 
L 283.417714 198.890721 
L 283.749666 200.342056 
L 284.104355 201.79339 
L 284.487604 203.244725 
L 284.906891 204.69606 
L 285.36992 206.147395 
L 285.88325 207.598729 
L 286.451337 209.050064 
L 287.076193 210.501399 
L 287.757703 211.952733 
L 288.494504 213.404068 
L 289.285242 214.855403 
L 290.129958 216.306737 
L 291.031243 217.758072 
L 291.994723 219.209407 
L 293.028471 220.660741 
L 294.141075 222.112076 
L 295.338509 223.563411 
L 296.620473 225.014745 
L 297.9773 226.46608 
L 299.3887 227.917415 
L 300.825192 229.368749 
L 302.252279 230.820084 
L 303.636311 232.271419 
L 304.950233 233.722754 
L 306.177256 235.174088 
L 307.311164 236.625423 
L 308.353272 238.076758 
L 309.307306 239.528092 
L 310.174293 240.979427 
L 310.949397 242.430762 
L 311.621755 243.882096 
L 312.17711 245.333431 
L 312.602035 246.784766 
L 312.888167 248.2361 
L 313.035173 249.687435 
L 313.051866 251.13877 
L 312.955516 252.590104 
L 312.769787 254.041439 
L 312.521714 255.492774 
L 312.23799 256.944109 
L 311.940832 258.395443 
L 311.64382 259.846778 
L 311.348439 261.298113 
L 311.042205 262.749447 
L 310.699133 264.200782 
L 310.282813 265.652117 
L 309.751649 267.103451 
L 309.065217 268.554786 
L 308.190389 270.006121 
L 307.106031 271.457455 
L 305.805566 272.90879 
L 304.297284 274.360125 
L 302.602827 275.811459 
L 300.754539 277.262794 
L 298.792393 278.714129 
L 296.761009 280.165463 
L 294.707008 281.616798 
L 292.676708 283.068133 
L 290.714045 284.519468 
L 288.858598 285.970802 
L 287.14373 287.422137 
L 285.594983 288.873472 
L 284.22896 290.324806 
L 283.052921 291.776141 
z
" clip-path="url(#p5d76bd6e05)" style="fill: #1f77b4; fill-opacity: 0.3"/>
   </g>
   <g id="PolyCollection_4">
    <path d="M 373.265369 286.200989 
L 355.360851 286.200989 
L 352.947294 283.944643 
L 350.257262 281.688297 
L 347.370848 279.431951 
L 344.394189 277.175605 
L 341.450608 274.919259 
L 338.668422 272.662913 
L 336.167253 270.406567 
L 334.045151 268.150221 
L 332.368755 265.893874 
L 331.168162 263.637528 
L 330.43723 261.381182 
L 330.138947 259.124836 
L 330.214525 256.86849 
L 330.594178 254.612144 
L 331.207396 252.355798 
L 331.990868 250.099452 
L 332.892976 247.843106 
L 333.874738 245.58676 
L 334.907917 243.330414 
L 335.97152 241.074067 
L 337.048033 238.817721 
L 338.120434 236.561375 
L 339.170601 234.305029 
L 340.179232 232.048683 
L 341.127066 229.792337 
L 341.99695 227.535991 
L 342.776204 225.279645 
L 343.458691 223.023299 
L 344.04605 220.766953 
L 344.547669 218.510606 
L 344.979284 216.25426 
L 345.360413 213.997914 
L 345.711297 211.741568 
L 346.050199 209.485222 
L 346.391888 207.228876 
L 346.747732 204.97253 
L 347.127214 202.716184 
L 347.540043 200.459838 
L 347.997727 198.203492 
L 348.513614 195.947145 
L 349.100997 193.690799 
L 349.769707 191.434453 
L 350.522321 189.178107 
L 351.351389 186.921761 
L 352.238776 184.665415 
L 353.157528 182.409069 
L 354.075803 180.152723 
L 354.961774 177.896377 
L 355.788276 175.640031 
L 356.536173 173.383684 
L 357.195987 171.127338 
L 357.767863 168.870992 
L 358.26026 166.614646 
L 358.687854 164.3583 
L 359.06903 162.101954 
L 359.423217 159.845608 
L 359.768236 157.589262 
L 360.1179 155.332916 
L 360.480171 153.07657 
L 360.856184 150.820224 
L 361.240393 148.563877 
L 361.621836 146.307531 
L 361.986301 144.051185 
L 362.318955 141.794839 
L 362.606924 139.538493 
L 362.841356 137.282147 
L 363.018672 135.025801 
L 363.140886 132.769455 
L 363.215056 130.513109 
L 363.252065 128.256763 
L 363.264962 126.000416 
L 363.267165 123.74407 
L 363.270763 121.487724 
L 363.285179 119.231378 
L 363.316351 116.975032 
L 363.366502 114.718686 
L 363.434485 112.46234 
L 363.516524 110.205994 
L 363.60717 107.949648 
L 363.700224 105.693302 
L 363.789467 103.436955 
L 363.869136 101.180609 
L 363.934152 98.924263 
L 363.980237 96.667917 
L 364.004015 94.411571 
L 364.003219 92.155225 
L 363.977024 89.898879 
L 363.926456 87.642533 
L 363.854755 85.386187 
L 363.767533 83.129841 
L 363.672577 80.873495 
L 363.57922 78.617148 
L 363.497315 76.360802 
L 363.435955 74.104456 
L 363.402184 71.84811 
L 363.399983 69.591764 
L 363.42974 67.335418 
L 363.488338 65.079072 
L 363.569809 62.822726 
L 365.056411 62.822726 
L 365.056411 62.822726 
L 365.137882 65.079072 
L 365.19648 67.335418 
L 365.226237 69.591764 
L 365.224036 71.84811 
L 365.190265 74.104456 
L 365.128905 76.360802 
L 365.047 78.617148 
L 364.953644 80.873495 
L 364.858687 83.129841 
L 364.771465 85.386187 
L 364.699764 87.642533 
L 364.649196 89.898879 
L 364.623001 92.155225 
L 364.622205 94.411571 
L 364.645983 96.667917 
L 364.692068 98.924263 
L 364.757084 101.180609 
L 364.836753 103.436955 
L 364.925996 105.693302 
L 365.01905 107.949648 
L 365.109696 110.205994 
L 365.191735 112.46234 
L 365.259718 114.718686 
L 365.309869 116.975032 
L 365.341041 119.231378 
L 365.355457 121.487724 
L 365.359055 123.74407 
L 365.361258 126.000416 
L 365.374155 128.256763 
L 365.411164 130.513109 
L 365.485334 132.769455 
L 365.607548 135.025801 
L 365.784864 137.282147 
L 366.019296 139.538493 
L 366.307265 141.794839 
L 366.639919 144.051185 
L 367.004384 146.307531 
L 367.385827 148.563877 
L 367.770037 150.820224 
L 368.14605 153.07657 
L 368.50832 155.332916 
L 368.857984 157.589262 
L 369.203003 159.845608 
L 369.55719 162.101954 
L 369.938366 164.3583 
L 370.36596 166.614646 
L 370.858357 168.870992 
L 371.430233 171.127338 
L 372.090047 173.383684 
L 372.837944 175.640031 
L 373.664446 177.896377 
L 374.550417 180.152723 
L 375.468692 182.409069 
L 376.387444 184.665415 
L 377.274831 186.921761 
L 378.103899 189.178107 
L 378.856513 191.434453 
L 379.525223 193.690799 
L 380.112606 195.947145 
L 380.628493 198.203492 
L 381.086177 200.459838 
L 381.499006 202.716184 
L 381.878489 204.97253 
L 382.234333 207.228876 
L 382.576021 209.485222 
L 382.914923 211.741568 
L 383.265807 213.997914 
L 383.646936 216.25426 
L 384.078551 218.510606 
L 384.580171 220.766953 
L 385.167529 223.023299 
L 385.850016 225.279645 
L 386.62927 227.535991 
L 387.499154 229.792337 
L 388.446988 232.048683 
L 389.455619 234.305029 
L 390.505786 236.561375 
L 391.578187 238.817721 
L 392.6547 241.074067 
L 393.718303 243.330414 
L 394.751482 245.58676 
L 395.733245 247.843106 
L 396.635353 250.099452 
L 397.418824 252.355798 
L 398.032042 254.612144 
L 398.411695 256.86849 
L 398.487273 259.124836 
L 398.18899 261.381182 
L 397.458058 263.637528 
L 396.257466 265.893874 
L 394.581069 268.150221 
L 392.458967 270.406567 
L 389.957798 272.662913 
L 387.175612 274.919259 
L 384.232032 277.175605 
L 381.255372 279.431951 
L 378.368958 281.688297 
L 375.678926 283.944643 
L 373.265369 286.200989 
z
" clip-path="url(#p5d76bd6e05)" style="fill: #1f77b4; fill-opacity: 0.3"/>
   </g>
   <g id="matplotlib.axis_1">
    <g id="xtick_1">
     <g id="line2d_1">
      <path d="M 65.289187 307.584 
L 65.289187 41.472 
" clip-path="url(#p5d76bd6e05)" style="fill: none; stroke-dasharray: 2.96,1.28; stroke-dashoffset: 0; stroke: #b0b0b0; stroke-width: 0.8"/>
     </g>
     <g id="line2d_2">
      <defs>
       <path id="m97e165e16e" d="M 0 0 
L 0 3.5 
" style="stroke: #000000; stroke-width: 0.8"/>
      </defs>
      <g>
       <use xlink:href="#m97e165e16e" x="65.289187" y="307.584" style="stroke: #000000; stroke-width: 0.8"/>
      </g>
     </g>
     <g id="text_1">
      <!-- 250 -->
      <g transform="translate(55.745437 322.182437)scale(0.1 -0.1)">
       <defs>
        <path id="DejaVuSans-32" d="M 1228 531 
L 3431 531 
L 3431 0 
L 469 0 
L 469 531 
Q 828 903 1448 1529 
Q 2069 2156 2228 2338 
Q 2531 2678 2651 2914 
Q 2772 3150 2772 3378 
Q 2772 3750 2511 3984 
Q 2250 4219 1831 4219 
Q 1534 4219 1204 4116 
Q 875 4013 500 3803 
L 500 4441 
Q 881 4594 1212 4672 
Q 1544 4750 1819 4750 
Q 2544 4750 2975 4387 
Q 3406 4025 3406 3419 
Q 3406 3131 3298 2873 
Q 3191 2616 2906 2266 
Q 2828 2175 2409 1742 
Q 1991 1309 1228 531 
z
" transform="scale(0.015625)"/>
        <path id="DejaVuSans-35" d="M 691 4666 
L 3169 4666 
L 3169 4134 
L 1269 4134 
L 1269 2991 
Q 1406 3038 1543 3061 
Q 1681 3084 1819 3084 
Q 2600 3084 3056 2656 
Q 3513 2228 3513 1497 
Q 3513 744 3044 326 
Q 2575 -91 1722 -91 
Q 1428 -91 1123 -41 
Q 819 9 494 109 
L 494 744 
Q 775 591 1075 516 
Q 1375 441 1709 441 
Q 2250 441 2565 725 
Q 2881 1009 2881 1497 
Q 2881 1984 2565 2268 
Q 2250 2553 1709 2553 
Q 1456 2553 1204 2497 
Q 953 2441 691 2322 
L 691 4666 
z
" transform="scale(0.015625)"/>
        <path id="DejaVuSans-30" d="M 2034 4250 
Q 1547 4250 1301 3770 
Q 1056 3291 1056 2328 
Q 1056 1369 1301 889 
Q 1547 409 2034 409 
Q 2525 409 2770 889 
Q 3016 1369 3016 2328 
Q 3016 3291 2770 3770 
Q 2525 4250 2034 4250 
z
M 2034 4750 
Q 2819 4750 3233 4129 
Q 3647 3509 3647 2328 
Q 3647 1150 3233 529 
Q 2819 -91 2034 -91 
Q 1250 -91 836 529 
Q 422 1150 422 2328 
Q 422 3509 836 4129 
Q 1250 4750 2034 4750 
z
" transform="scale(0.015625)"/>
       </defs>
       <use xlink:href="#DejaVuSans-32"/>
       <use xlink:href="#DejaVuSans-35" x="63.623047"/>
       <use xlink:href="#DejaVuSans-30" x="127.246094"/>
      </g>
     </g>
    </g>
    <g id="xtick_2">
     <g id="line2d_3">
      <path d="M 108.00689 307.584 
L 108.00689 41.472 
" clip-path="url(#p5d76bd6e05)" style="fill: none; stroke-dasharray: 2.96,1.28; stroke-dashoffset: 0; stroke: #b0b0b0; stroke-width: 0.8"/>
     </g>
     <g id="line2d_4">
      <g>
       <use xlink:href="#m97e165e16e" x="108.00689" y="307.584" style="stroke: #000000; stroke-width: 0.8"/>
      </g>
     </g>
     <g id="text_2">
      <!-- 500 -->
      <g transform="translate(98.46314 322.182437)scale(0.1 -0.1)">
       <use xlink:href="#DejaVuSans-35"/>
       <use xlink:href="#DejaVuSans-30" x="63.623047"/>
       <use xlink:href="#DejaVuSans-30" x="127.246094"/>
      </g>
     </g>
    </g>
    <g id="xtick_3">
     <g id="line2d_5">
      <path d="M 150.724593 307.584 
L 150.724593 41.472 
" clip-path="url(#p5d76bd6e05)" style="fill: none; stroke-dasharray: 2.96,1.28; stroke-dashoffset: 0; stroke: #b0b0b0; stroke-width: 0.8"/>
     </g>
     <g id="line2d_6">
      <g>
       <use xlink:href="#m97e165e16e" x="150.724593" y="307.584" style="stroke: #000000; stroke-width: 0.8"/>
      </g>
     </g>
     <g id="text_3">
      <!-- 750 -->
      <g transform="translate(141.180843 322.182437)scale(0.1 -0.1)">
       <defs>
        <path id="DejaVuSans-37" d="M 525 4666 
L 3525 4666 
L 3525 4397 
L 1831 0 
L 1172 0 
L 2766 4134 
L 525 4134 
L 525 4666 
z
" transform="scale(0.015625)"/>
       </defs>
       <use xlink:href="#DejaVuSans-37"/>
       <use xlink:href="#DejaVuSans-35" x="63.623047"/>
       <use xlink:href="#DejaVuSans-30" x="127.246094"/>
      </g>
     </g>
    </g>
    <g id="xtick_4">
     <g id="line2d_7">
      <path d="M 193.442297 307.584 
L 193.442297 41.472 
" clip-path="url(#p5d76bd6e05)" style="fill: none; stroke-dasharray: 2.96,1.28; stroke-dashoffset: 0; stroke: #b0b0b0; stroke-width: 0.8"/>
     </g>
     <g id="line2d_8">
      <g>
       <use xlink:href="#m97e165e16e" x="193.442297" y="307.584" style="stroke: #000000; stroke-width: 0.8"/>
      </g>
     </g>
     <g id="text_4">
      <!-- 1000 -->
      <g transform="translate(180.717297 322.182437)scale(0.1 -0.1)">
       <defs>
        <path id="DejaVuSans-31" d="M 794 531 
L 1825 531 
L 1825 4091 
L 703 3866 
L 703 4441 
L 1819 4666 
L 2450 4666 
L 2450 531 
L 3481 531 
L 3481 0 
L 794 0 
L 794 531 
z
" transform="scale(0.015625)"/>
       </defs>
       <use xlink:href="#DejaVuSans-31"/>
       <use xlink:href="#DejaVuSans-30" x="63.623047"/>
       <use xlink:href="#DejaVuSans-30" x="127.246094"/>
       <use xlink:href="#DejaVuSans-30" x="190.869141"/>
      </g>
     </g>
    </g>
    <g id="xtick_5">
     <g id="line2d_9">
      <path d="M 236.16 307.584 
L 236.16 41.472 
" clip-path="url(#p5d76bd6e05)" style="fill: none; stroke-dasharray: 2.96,1.28; stroke-dashoffset: 0; stroke: #b0b0b0; stroke-width: 0.8"/>
     </g>
     <g id="line2d_10">
      <g>
       <use xlink:href="#m97e165e16e" x="236.16" y="307.584" style="stroke: #000000; stroke-width: 0.8"/>
      </g>
     </g>
     <g id="text_5">
      <!-- 1250 -->
      <g transform="translate(223.435 322.182437)scale(0.1 -0.1)">
       <use xlink:href="#DejaVuSans-31"/>
       <use xlink:href="#DejaVuSans-32" x="63.623047"/>
       <use xlink:href="#DejaVuSans-35" x="127.246094"/>
       <use xlink:href="#DejaVuSans-30" x="190.869141"/>
      </g>
     </g>
    </g>
    <g id="xtick_6">
     <g id="line2d_11">
      <path d="M 278.877703 307.584 
L 278.877703 41.472 
" clip-path="url(#p5d76bd6e05)" style="fill: none; stroke-dasharray: 2.96,1.28; stroke-dashoffset: 0; stroke: #b0b0b0; stroke-width: 0.8"/>
     </g>
     <g id="line2d_12">
      <g>
       <use xlink:href="#m97e165e16e" x="278.877703" y="307.584" style="stroke: #000000; stroke-width: 0.8"/>
      </g>
     </g>
     <g id="text_6">
      <!-- 1500 -->
      <g transform="translate(266.152703 322.182437)scale(0.1 -0.1)">
       <use xlink:href="#DejaVuSans-31"/>
       <use xlink:href="#DejaVuSans-35" x="63.623047"/>
       <use xlink:href="#DejaVuSans-30" x="127.246094"/>
       <use xlink:href="#DejaVuSans-30" x="190.869141"/>
      </g>
     </g>
    </g>
    <g id="xtick_7">
     <g id="line2d_13">
      <path d="M 321.595407 307.584 
L 321.595407 41.472 
" clip-path="url(#p5d76bd6e05)" style="fill: none; stroke-dasharray: 2.96,1.28; stroke-dashoffset: 0; stroke: #b0b0b0; stroke-width: 0.8"/>
     </g>
     <g id="line2d_14">
      <g>
       <use xlink:href="#m97e165e16e" x="321.595407" y="307.584" style="stroke: #000000; stroke-width: 0.8"/>
      </g>
     </g>
     <g id="text_7">
      <!-- 1750 -->
      <g transform="translate(308.870407 322.182437)scale(0.1 -0.1)">
       <use xlink:href="#DejaVuSans-31"/>
       <use xlink:href="#DejaVuSans-37" x="63.623047"/>
       <use xlink:href="#DejaVuSans-35" x="127.246094"/>
       <use xlink:href="#DejaVuSans-30" x="190.869141"/>
      </g>
     </g>
    </g>
    <g id="xtick_8">
     <g id="line2d_15">
      <path d="M 364.31311 307.584 
L 364.31311 41.472 
" clip-path="url(#p5d76bd6e05)" style="fill: none; stroke-dasharray: 2.96,1.28; stroke-dashoffset: 0; stroke: #b0b0b0; stroke-width: 0.8"/>
     </g>
     <g id="line2d_16">
      <g>
       <use xlink:href="#m97e165e16e" x="364.31311" y="307.584" style="stroke: #000000; stroke-width: 0.8"/>
      </g>
     </g>
     <g id="text_8">
      <!-- 2000 -->
      <g transform="translate(351.58811 322.182437)scale(0.1 -0.1)">
       <use xlink:href="#DejaVuSans-32"/>
       <use xlink:href="#DejaVuSans-30" x="63.623047"/>
       <use xlink:href="#DejaVuSans-30" x="127.246094"/>
       <use xlink:href="#DejaVuSans-30" x="190.869141"/>
      </g>
     </g>
    </g>
    <g id="xtick_9">
     <g id="line2d_17">
      <path d="M 407.030813 307.584 
L 407.030813 41.472 
" clip-path="url(#p5d76bd6e05)" style="fill: none; stroke-dasharray: 2.96,1.28; stroke-dashoffset: 0; stroke: #b0b0b0; stroke-width: 0.8"/>
     </g>
     <g id="line2d_18">
      <g>
       <use xlink:href="#m97e165e16e" x="407.030813" y="307.584" style="stroke: #000000; stroke-width: 0.8"/>
      </g>
     </g>
     <g id="text_9">
      <!-- 2250 -->
      <g transform="translate(394.305813 322.182437)scale(0.1 -0.1)">
       <use xlink:href="#DejaVuSans-32"/>
       <use xlink:href="#DejaVuSans-32" x="63.623047"/>
       <use xlink:href="#DejaVuSans-35" x="127.246094"/>
       <use xlink:href="#DejaVuSans-30" x="190.869141"/>
      </g>
     </g>
    </g>
    <g id="text_10">
     <!-- Learned Episodes -->
     <g transform="translate(192.102187 335.860562)scale(0.1 -0.1)">
      <defs>
       <path id="DejaVuSans-4c" d="M 628 4666 
L 1259 4666 
L 1259 531 
L 3531 531 
L 3531 0 
L 628 0 
L 628 4666 
z
" transform="scale(0.015625)"/>
       <path id="DejaVuSans-65" d="M 3597 1894 
L 3597 1613 
L 953 1613 
Q 991 1019 1311 708 
Q 1631 397 2203 397 
Q 2534 397 2845 478 
Q 3156 559 3463 722 
L 3463 178 
Q 3153 47 2828 -22 
Q 2503 -91 2169 -91 
Q 1331 -91 842 396 
Q 353 884 353 1716 
Q 353 2575 817 3079 
Q 1281 3584 2069 3584 
Q 2775 3584 3186 3129 
Q 3597 2675 3597 1894 
z
M 3022 2063 
Q 3016 2534 2758 2815 
Q 2500 3097 2075 3097 
Q 1594 3097 1305 2825 
Q 1016 2553 972 2059 
L 3022 2063 
z
" transform="scale(0.015625)"/>
       <path id="DejaVuSans-61" d="M 2194 1759 
Q 1497 1759 1228 1600 
Q 959 1441 959 1056 
Q 959 750 1161 570 
Q 1363 391 1709 391 
Q 2188 391 2477 730 
Q 2766 1069 2766 1631 
L 2766 1759 
L 2194 1759 
z
M 3341 1997 
L 3341 0 
L 2766 0 
L 2766 531 
Q 2569 213 2275 61 
Q 1981 -91 1556 -91 
Q 1019 -91 701 211 
Q 384 513 384 1019 
Q 384 1609 779 1909 
Q 1175 2209 1959 2209 
L 2766 2209 
L 2766 2266 
Q 2766 2663 2505 2880 
Q 2244 3097 1772 3097 
Q 1472 3097 1187 3025 
Q 903 2953 641 2809 
L 641 3341 
Q 956 3463 1253 3523 
Q 1550 3584 1831 3584 
Q 2591 3584 2966 3190 
Q 3341 2797 3341 1997 
z
" transform="scale(0.015625)"/>
       <path id="DejaVuSans-72" d="M 2631 2963 
Q 2534 3019 2420 3045 
Q 2306 3072 2169 3072 
Q 1681 3072 1420 2755 
Q 1159 2438 1159 1844 
L 1159 0 
L 581 0 
L 581 3500 
L 1159 3500 
L 1159 2956 
Q 1341 3275 1631 3429 
Q 1922 3584 2338 3584 
Q 2397 3584 2469 3576 
Q 2541 3569 2628 3553 
L 2631 2963 
z
" transform="scale(0.015625)"/>
       <path id="DejaVuSans-6e" d="M 3513 2113 
L 3513 0 
L 2938 0 
L 2938 2094 
Q 2938 2591 2744 2837 
Q 2550 3084 2163 3084 
Q 1697 3084 1428 2787 
Q 1159 2491 1159 1978 
L 1159 0 
L 581 0 
L 581 3500 
L 1159 3500 
L 1159 2956 
Q 1366 3272 1645 3428 
Q 1925 3584 2291 3584 
Q 2894 3584 3203 3211 
Q 3513 2838 3513 2113 
z
" transform="scale(0.015625)"/>
       <path id="DejaVuSans-64" d="M 2906 2969 
L 2906 4863 
L 3481 4863 
L 3481 0 
L 2906 0 
L 2906 525 
Q 2725 213 2448 61 
Q 2172 -91 1784 -91 
Q 1150 -91 751 415 
Q 353 922 353 1747 
Q 353 2572 751 3078 
Q 1150 3584 1784 3584 
Q 2172 3584 2448 3432 
Q 2725 3281 2906 2969 
z
M 947 1747 
Q 947 1113 1208 752 
Q 1469 391 1925 391 
Q 2381 391 2643 752 
Q 2906 1113 2906 1747 
Q 2906 2381 2643 2742 
Q 2381 3103 1925 3103 
Q 1469 3103 1208 2742 
Q 947 2381 947 1747 
z
" transform="scale(0.015625)"/>
       <path id="DejaVuSans-20" transform="scale(0.015625)"/>
       <path id="DejaVuSans-45" d="M 628 4666 
L 3578 4666 
L 3578 4134 
L 1259 4134 
L 1259 2753 
L 3481 2753 
L 3481 2222 
L 1259 2222 
L 1259 531 
L 3634 531 
L 3634 0 
L 628 0 
L 628 4666 
z
" transform="scale(0.015625)"/>
       <path id="DejaVuSans-70" d="M 1159 525 
L 1159 -1331 
L 581 -1331 
L 581 3500 
L 1159 3500 
L 1159 2969 
Q 1341 3281 1617 3432 
Q 1894 3584 2278 3584 
Q 2916 3584 3314 3078 
Q 3713 2572 3713 1747 
Q 3713 922 3314 415 
Q 2916 -91 2278 -91 
Q 1894 -91 1617 61 
Q 1341 213 1159 525 
z
M 3116 1747 
Q 3116 2381 2855 2742 
Q 2594 3103 2138 3103 
Q 1681 3103 1420 2742 
Q 1159 2381 1159 1747 
Q 1159 1113 1420 752 
Q 1681 391 2138 391 
Q 2594 391 2855 752 
Q 3116 1113 3116 1747 
z
" transform="scale(0.015625)"/>
       <path id="DejaVuSans-69" d="M 603 3500 
L 1178 3500 
L 1178 0 
L 603 0 
L 603 3500 
z
M 603 4863 
L 1178 4863 
L 1178 4134 
L 603 4134 
L 603 4863 
z
" transform="scale(0.015625)"/>
       <path id="DejaVuSans-73" d="M 2834 3397 
L 2834 2853 
Q 2591 2978 2328 3040 
Q 2066 3103 1784 3103 
Q 1356 3103 1142 2972 
Q 928 2841 928 2578 
Q 928 2378 1081 2264 
Q 1234 2150 1697 2047 
L 1894 2003 
Q 2506 1872 2764 1633 
Q 3022 1394 3022 966 
Q 3022 478 2636 193 
Q 2250 -91 1575 -91 
Q 1294 -91 989 -36 
Q 684 19 347 128 
L 347 722 
Q 666 556 975 473 
Q 1284 391 1588 391 
Q 1994 391 2212 530 
Q 2431 669 2431 922 
Q 2431 1156 2273 1281 
Q 2116 1406 1581 1522 
L 1381 1569 
Q 847 1681 609 1914 
Q 372 2147 372 2553 
Q 372 3047 722 3315 
Q 1072 3584 1716 3584 
Q 2034 3584 2315 3537 
Q 2597 3491 2834 3397 
z
" transform="scale(0.015625)"/>
       <path id="DejaVuSans-6f" d="M 1959 3097 
Q 1497 3097 1228 2736 
Q 959 2375 959 1747 
Q 959 1119 1226 758 
Q 1494 397 1959 397 
Q 2419 397 2687 759 
Q 2956 1122 2956 1747 
Q 2956 2369 2687 2733 
Q 2419 3097 1959 3097 
z
M 1959 3584 
Q 2709 3584 3137 3096 
Q 3566 2609 3566 1747 
Q 3566 888 3137 398 
Q 2709 -91 1959 -91 
Q 1206 -91 779 398 
Q 353 888 353 1747 
Q 353 2609 779 3096 
Q 1206 3584 1959 3584 
z
" transform="scale(0.015625)"/>
      </defs>
      <use xlink:href="#DejaVuSans-4c"/>
      <use xlink:href="#DejaVuSans-65" x="53.962891"/>
      <use xlink:href="#DejaVuSans-61" x="115.486328"/>
      <use xlink:href="#DejaVuSans-72" x="176.765625"/>
      <use xlink:href="#DejaVuSans-6e" x="216.128906"/>
      <use xlink:href="#DejaVuSans-65" x="279.507812"/>
      <use xlink:href="#DejaVuSans-64" x="341.03125"/>
      <use xlink:href="#DejaVuSans-20" x="404.507812"/>
      <use xlink:href="#DejaVuSans-45" x="436.294922"/>
      <use xlink:href="#DejaVuSans-70" x="499.478516"/>
      <use xlink:href="#DejaVuSans-69" x="562.955078"/>
      <use xlink:href="#DejaVuSans-73" x="590.738281"/>
      <use xlink:href="#DejaVuSans-6f" x="642.837891"/>
      <use xlink:href="#DejaVuSans-64" x="704.019531"/>
      <use xlink:href="#DejaVuSans-65" x="767.496094"/>
      <use xlink:href="#DejaVuSans-73" x="829.019531"/>
     </g>
    </g>
   </g>
   <g id="matplotlib.axis_2">
    <g id="ytick_1">
     <g id="line2d_19">
      <path d="M 57.6 270.617859 
L 414.72 270.617859 
" clip-path="url(#p5d76bd6e05)" style="fill: none; stroke-dasharray: 2.96,1.28; stroke-dashoffset: 0; stroke: #b0b0b0; stroke-width: 0.8"/>
     </g>
     <g id="line2d_20">
      <defs>
       <path id="m11572b71ab" d="M 0 0 
L -3.5 0 
" style="stroke: #000000; stroke-width: 0.8"/>
      </defs>
      <g>
       <use xlink:href="#m11572b71ab" x="57.6" y="270.617859" style="stroke: #000000; stroke-width: 0.8"/>
      </g>
     </g>
     <g id="text_11">
      <!-- 4 -->
      <g transform="translate(44.2375 274.417077)scale(0.1 -0.1)">
       <defs>
        <path id="DejaVuSans-34" d="M 2419 4116 
L 825 1625 
L 2419 1625 
L 2419 4116 
z
M 2253 4666 
L 3047 4666 
L 3047 1625 
L 3713 1625 
L 3713 1100 
L 3047 1100 
L 3047 0 
L 2419 0 
L 2419 1100 
L 313 1100 
L 313 1709 
L 2253 4666 
z
" transform="scale(0.015625)"/>
       </defs>
       <use xlink:href="#DejaVuSans-34"/>
      </g>
     </g>
    </g>
    <g id="ytick_2">
     <g id="line2d_21">
      <path d="M 57.6 233.036613 
L 414.72 233.036613 
" clip-path="url(#p5d76bd6e05)" style="fill: none; stroke-dasharray: 2.96,1.28; stroke-dashoffset: 0; stroke: #b0b0b0; stroke-width: 0.8"/>
     </g>
     <g id="line2d_22">
      <g>
       <use xlink:href="#m11572b71ab" x="57.6" y="233.036613" style="stroke: #000000; stroke-width: 0.8"/>
      </g>
     </g>
     <g id="text_12">
      <!-- 5 -->
      <g transform="translate(44.2375 236.835832)scale(0.1 -0.1)">
       <use xlink:href="#DejaVuSans-35"/>
      </g>
     </g>
    </g>
    <g id="ytick_3">
     <g id="line2d_23">
      <path d="M 57.6 195.455368 
L 414.72 195.455368 
" clip-path="url(#p5d76bd6e05)" style="fill: none; stroke-dasharray: 2.96,1.28; stroke-dashoffset: 0; stroke: #b0b0b0; stroke-width: 0.8"/>
     </g>
     <g id="line2d_24">
      <g>
       <use xlink:href="#m11572b71ab" x="57.6" y="195.455368" style="stroke: #000000; stroke-width: 0.8"/>
      </g>
     </g>
     <g id="text_13">
      <!-- 6 -->
      <g transform="translate(44.2375 199.254587)scale(0.1 -0.1)">
       <defs>
        <path id="DejaVuSans-36" d="M 2113 2584 
Q 1688 2584 1439 2293 
Q 1191 2003 1191 1497 
Q 1191 994 1439 701 
Q 1688 409 2113 409 
Q 2538 409 2786 701 
Q 3034 994 3034 1497 
Q 3034 2003 2786 2293 
Q 2538 2584 2113 2584 
z
M 3366 4563 
L 3366 3988 
Q 3128 4100 2886 4159 
Q 2644 4219 2406 4219 
Q 1781 4219 1451 3797 
Q 1122 3375 1075 2522 
Q 1259 2794 1537 2939 
Q 1816 3084 2150 3084 
Q 2853 3084 3261 2657 
Q 3669 2231 3669 1497 
Q 3669 778 3244 343 
Q 2819 -91 2113 -91 
Q 1303 -91 875 529 
Q 447 1150 447 2328 
Q 447 3434 972 4092 
Q 1497 4750 2381 4750 
Q 2619 4750 2861 4703 
Q 3103 4656 3366 4563 
z
" transform="scale(0.015625)"/>
       </defs>
       <use xlink:href="#DejaVuSans-36"/>
      </g>
     </g>
    </g>
    <g id="ytick_4">
     <g id="line2d_25">
      <path d="M 57.6 157.874123 
L 414.72 157.874123 
" clip-path="url(#p5d76bd6e05)" style="fill: none; stroke-dasharray: 2.96,1.28; stroke-dashoffset: 0; stroke: #b0b0b0; stroke-width: 0.8"/>
     </g>
     <g id="line2d_26">
      <g>
       <use xlink:href="#m11572b71ab" x="57.6" y="157.874123" style="stroke: #000000; stroke-width: 0.8"/>
      </g>
     </g>
     <g id="text_14">
      <!-- 7 -->
      <g transform="translate(44.2375 161.673341)scale(0.1 -0.1)">
       <use xlink:href="#DejaVuSans-37"/>
      </g>
     </g>
    </g>
    <g id="ytick_5">
     <g id="line2d_27">
      <path d="M 57.6 120.292877 
L 414.72 120.292877 
" clip-path="url(#p5d76bd6e05)" style="fill: none; stroke-dasharray: 2.96,1.28; stroke-dashoffset: 0; stroke: #b0b0b0; stroke-width: 0.8"/>
     </g>
     <g id="line2d_28">
      <g>
       <use xlink:href="#m11572b71ab" x="57.6" y="120.292877" style="stroke: #000000; stroke-width: 0.8"/>
      </g>
     </g>
     <g id="text_15">
      <!-- 8 -->
      <g transform="translate(44.2375 124.092096)scale(0.1 -0.1)">
       <defs>
        <path id="DejaVuSans-38" d="M 2034 2216 
Q 1584 2216 1326 1975 
Q 1069 1734 1069 1313 
Q 1069 891 1326 650 
Q 1584 409 2034 409 
Q 2484 409 2743 651 
Q 3003 894 3003 1313 
Q 3003 1734 2745 1975 
Q 2488 2216 2034 2216 
z
M 1403 2484 
Q 997 2584 770 2862 
Q 544 3141 544 3541 
Q 544 4100 942 4425 
Q 1341 4750 2034 4750 
Q 2731 4750 3128 4425 
Q 3525 4100 3525 3541 
Q 3525 3141 3298 2862 
Q 3072 2584 2669 2484 
Q 3125 2378 3379 2068 
Q 3634 1759 3634 1313 
Q 3634 634 3220 271 
Q 2806 -91 2034 -91 
Q 1263 -91 848 271 
Q 434 634 434 1313 
Q 434 1759 690 2068 
Q 947 2378 1403 2484 
z
M 1172 3481 
Q 1172 3119 1398 2916 
Q 1625 2713 2034 2713 
Q 2441 2713 2670 2916 
Q 2900 3119 2900 3481 
Q 2900 3844 2670 4047 
Q 2441 4250 2034 4250 
Q 1625 4250 1398 4047 
Q 1172 3844 1172 3481 
z
" transform="scale(0.015625)"/>
       </defs>
       <use xlink:href="#DejaVuSans-38"/>
      </g>
     </g>
    </g>
    <g id="ytick_6">
     <g id="line2d_29">
      <path d="M 57.6 82.711632 
L 414.72 82.711632 
" clip-path="url(#p5d76bd6e05)" style="fill: none; stroke-dasharray: 2.96,1.28; stroke-dashoffset: 0; stroke: #b0b0b0; stroke-width: 0.8"/>
     </g>
     <g id="line2d_30">
      <g>
       <use xlink:href="#m11572b71ab" x="57.6" y="82.711632" style="stroke: #000000; stroke-width: 0.8"/>
      </g>
     </g>
     <g id="text_16">
      <!-- 9 -->
      <g transform="translate(44.2375 86.510851)scale(0.1 -0.1)">
       <defs>
        <path id="DejaVuSans-39" d="M 703 97 
L 703 672 
Q 941 559 1184 500 
Q 1428 441 1663 441 
Q 2288 441 2617 861 
Q 2947 1281 2994 2138 
Q 2813 1869 2534 1725 
Q 2256 1581 1919 1581 
Q 1219 1581 811 2004 
Q 403 2428 403 3163 
Q 403 3881 828 4315 
Q 1253 4750 1959 4750 
Q 2769 4750 3195 4129 
Q 3622 3509 3622 2328 
Q 3622 1225 3098 567 
Q 2575 -91 1691 -91 
Q 1453 -91 1209 -44 
Q 966 3 703 97 
z
M 1959 2075 
Q 2384 2075 2632 2365 
Q 2881 2656 2881 3163 
Q 2881 3666 2632 3958 
Q 2384 4250 1959 4250 
Q 1534 4250 1286 3958 
Q 1038 3666 1038 3163 
Q 1038 2656 1286 2365 
Q 1534 2075 1959 2075 
z
" transform="scale(0.015625)"/>
       </defs>
       <use xlink:href="#DejaVuSans-39"/>
      </g>
     </g>
    </g>
    <g id="ytick_7">
     <g id="line2d_31">
      <path d="M 57.6 45.130387 
L 414.72 45.130387 
" clip-path="url(#p5d76bd6e05)" style="fill: none; stroke-dasharray: 2.96,1.28; stroke-dashoffset: 0; stroke: #b0b0b0; stroke-width: 0.8"/>
     </g>
     <g id="line2d_32">
      <g>
       <use xlink:href="#m11572b71ab" x="57.6" y="45.130387" style="stroke: #000000; stroke-width: 0.8"/>
      </g>
     </g>
     <g id="text_17">
      <!-- 10 -->
      <g transform="translate(37.875 48.929605)scale(0.1 -0.1)">
       <use xlink:href="#DejaVuSans-31"/>
       <use xlink:href="#DejaVuSans-30" x="63.623047"/>
      </g>
     </g>
    </g>
    <g id="text_18">
     <!-- Reward Density -->
     <g transform="translate(31.795312 213.74675)rotate(-90)scale(0.1 -0.1)">
      <defs>
       <path id="DejaVuSans-52" d="M 2841 2188 
Q 3044 2119 3236 1894 
Q 3428 1669 3622 1275 
L 4263 0 
L 3584 0 
L 2988 1197 
Q 2756 1666 2539 1819 
Q 2322 1972 1947 1972 
L 1259 1972 
L 1259 0 
L 628 0 
L 628 4666 
L 2053 4666 
Q 2853 4666 3247 4331 
Q 3641 3997 3641 3322 
Q 3641 2881 3436 2590 
Q 3231 2300 2841 2188 
z
M 1259 4147 
L 1259 2491 
L 2053 2491 
Q 2509 2491 2742 2702 
Q 2975 2913 2975 3322 
Q 2975 3731 2742 3939 
Q 2509 4147 2053 4147 
L 1259 4147 
z
" transform="scale(0.015625)"/>
       <path id="DejaVuSans-77" d="M 269 3500 
L 844 3500 
L 1563 769 
L 2278 3500 
L 2956 3500 
L 3675 769 
L 4391 3500 
L 4966 3500 
L 4050 0 
L 3372 0 
L 2619 2869 
L 1863 0 
L 1184 0 
L 269 3500 
z
" transform="scale(0.015625)"/>
       <path id="DejaVuSans-44" d="M 1259 4147 
L 1259 519 
L 2022 519 
Q 2988 519 3436 956 
Q 3884 1394 3884 2338 
Q 3884 3275 3436 3711 
Q 2988 4147 2022 4147 
L 1259 4147 
z
M 628 4666 
L 1925 4666 
Q 3281 4666 3915 4102 
Q 4550 3538 4550 2338 
Q 4550 1131 3912 565 
Q 3275 0 1925 0 
L 628 0 
L 628 4666 
z
" transform="scale(0.015625)"/>
       <path id="DejaVuSans-74" d="M 1172 4494 
L 1172 3500 
L 2356 3500 
L 2356 3053 
L 1172 3053 
L 1172 1153 
Q 1172 725 1289 603 
Q 1406 481 1766 481 
L 2356 481 
L 2356 0 
L 1766 0 
Q 1100 0 847 248 
Q 594 497 594 1153 
L 594 3053 
L 172 3053 
L 172 3500 
L 594 3500 
L 594 4494 
L 1172 4494 
z
" transform="scale(0.015625)"/>
       <path id="DejaVuSans-79" d="M 2059 -325 
Q 1816 -950 1584 -1140 
Q 1353 -1331 966 -1331 
L 506 -1331 
L 506 -850 
L 844 -850 
Q 1081 -850 1212 -737 
Q 1344 -625 1503 -206 
L 1606 56 
L 191 3500 
L 800 3500 
L 1894 763 
L 2988 3500 
L 3597 3500 
L 2059 -325 
z
" transform="scale(0.015625)"/>
      </defs>
      <use xlink:href="#DejaVuSans-52"/>
      <use xlink:href="#DejaVuSans-65" x="64.982422"/>
      <use xlink:href="#DejaVuSans-77" x="126.505859"/>
      <use xlink:href="#DejaVuSans-61" x="208.292969"/>
      <use xlink:href="#DejaVuSans-72" x="269.572266"/>
      <use xlink:href="#DejaVuSans-64" x="308.935547"/>
      <use xlink:href="#DejaVuSans-20" x="372.412109"/>
      <use xlink:href="#DejaVuSans-44" x="404.199219"/>
      <use xlink:href="#DejaVuSans-65" x="481.201172"/>
      <use xlink:href="#DejaVuSans-6e" x="542.724609"/>
      <use xlink:href="#DejaVuSans-73" x="606.103516"/>
      <use xlink:href="#DejaVuSans-69" x="658.203125"/>
      <use xlink:href="#DejaVuSans-74" x="685.986328"/>
      <use xlink:href="#DejaVuSans-79" x="725.195312"/>
     </g>
    </g>
   </g>
   <g id="LineCollection_1">
    <path d="M 90.919809 168.807167 
L 125.093971 168.807167 
" clip-path="url(#p5d76bd6e05)" style="fill: none; stroke: #1f77b4; stroke-width: 1.5"/>
    <path d="M 176.355215 222.566817 
L 210.529378 222.566817 
" clip-path="url(#p5d76bd6e05)" style="fill: none; stroke: #1f77b4; stroke-width: 1.5"/>
    <path d="M 261.790622 247.602586 
L 295.964785 247.602586 
" clip-path="url(#p5d76bd6e05)" style="fill: none; stroke: #1f77b4; stroke-width: 1.5"/>
    <path d="M 347.226029 230.721508 
L 381.400191 230.721508 
" clip-path="url(#p5d76bd6e05)" style="fill: none; stroke: #1f77b4; stroke-width: 1.5"/>
   </g>
   <g id="LineCollection_2">
    <path d="M 90.919809 53.568 
L 125.093971 53.568 
" clip-path="url(#p5d76bd6e05)" style="fill: none; stroke: #1f77b4; stroke-width: 1.5"/>
    <path d="M 176.355215 127.116245 
L 210.529378 127.116245 
" clip-path="url(#p5d76bd6e05)" style="fill: none; stroke: #1f77b4; stroke-width: 1.5"/>
    <path d="M 261.790622 148.094007 
L 295.964785 148.094007 
" clip-path="url(#p5d76bd6e05)" style="fill: none; stroke: #1f77b4; stroke-width: 1.5"/>
    <path d="M 347.226029 62.822726 
L 381.400191 62.822726 
" clip-path="url(#p5d76bd6e05)" style="fill: none; stroke: #1f77b4; stroke-width: 1.5"/>
   </g>
   <g id="LineCollection_3">
    <path d="M 90.919809 268.548826 
L 125.093971 268.548826 
" clip-path="url(#p5d76bd6e05)" style="fill: none; stroke: #1f77b4; stroke-width: 1.5"/>
    <path d="M 176.355215 295.488 
L 210.529378 295.488 
" clip-path="url(#p5d76bd6e05)" style="fill: none; stroke: #1f77b4; stroke-width: 1.5"/>
    <path d="M 261.790622 291.776141 
L 295.964785 291.776141 
" clip-path="url(#p5d76bd6e05)" style="fill: none; stroke: #1f77b4; stroke-width: 1.5"/>
    <path d="M 347.226029 286.200989 
L 381.400191 286.200989 
" clip-path="url(#p5d76bd6e05)" style="fill: none; stroke: #1f77b4; stroke-width: 1.5"/>
   </g>
   <g id="LineCollection_4">
    <path d="M 108.00689 268.548826 
L 108.00689 53.568 
" clip-path="url(#p5d76bd6e05)" style="fill: none; stroke: #1f77b4; stroke-width: 1.5"/>
    <path d="M 193.442297 295.488 
L 193.442297 127.116245 
" clip-path="url(#p5d76bd6e05)" style="fill: none; stroke: #1f77b4; stroke-width: 1.5"/>
    <path d="M 278.877703 291.776141 
L 278.877703 148.094007 
" clip-path="url(#p5d76bd6e05)" style="fill: none; stroke: #1f77b4; stroke-width: 1.5"/>
    <path d="M 364.31311 286.200989 
L 364.31311 62.822726 
" clip-path="url(#p5d76bd6e05)" style="fill: none; stroke: #1f77b4; stroke-width: 1.5"/>
   </g>
   <g id="line2d_33">
    <path d="M 108.00689 168.807167 
L 193.442297 222.566817 
L 278.877703 247.602586 
L 364.31311 230.721508 
" clip-path="url(#p5d76bd6e05)" style="fill: none; stroke: #4682b4; stroke-width: 1.5; stroke-linecap: square"/>
   </g>
   <g id="line2d_34">
    <path d="M 108.00689 168.807167 
L 193.442297 222.566817 
L 278.877703 247.602586 
L 364.31311 230.721508 
" clip-path="url(#p5d76bd6e05)" style="fill: none; stroke: #4682b4; stroke-width: 1.5; stroke-linecap: square"/>
   </g>
   <g id="patch_3">
    <path d="M 57.6 307.584 
L 57.6 41.472 
" style="fill: none; stroke: #000000; stroke-width: 0.8; stroke-linejoin: miter; stroke-linecap: square"/>
   </g>
   <g id="patch_4">
    <path d="M 414.72 307.584 
L 414.72 41.472 
" style="fill: none; stroke: #000000; stroke-width: 0.8; stroke-linejoin: miter; stroke-linecap: square"/>
   </g>
   <g id="patch_5">
    <path d="M 57.6 307.584 
L 414.72 307.584 
" style="fill: none; stroke: #000000; stroke-width: 0.8; stroke-linejoin: miter; stroke-linecap: square"/>
   </g>
   <g id="patch_6">
    <path d="M 57.6 41.472 
L 414.72 41.472 
" style="fill: none; stroke: #000000; stroke-width: 0.8; stroke-linejoin: miter; stroke-linecap: square"/>
   </g>
   <g id="text_19">
    <!-- Violinplot for progress of actions/price_refurbished -->
    <g transform="translate(84.801562 35.472)scale(0.12 -0.12)">
     <defs>
      <path id="DejaVuSans-56" d="M 1831 0 
L 50 4666 
L 709 4666 
L 2188 738 
L 3669 4666 
L 4325 4666 
L 2547 0 
L 1831 0 
z
" transform="scale(0.015625)"/>
      <path id="DejaVuSans-6c" d="M 603 4863 
L 1178 4863 
L 1178 0 
L 603 0 
L 603 4863 
z
" transform="scale(0.015625)"/>
      <path id="DejaVuSans-66" d="M 2375 4863 
L 2375 4384 
L 1825 4384 
Q 1516 4384 1395 4259 
Q 1275 4134 1275 3809 
L 1275 3500 
L 2222 3500 
L 2222 3053 
L 1275 3053 
L 1275 0 
L 697 0 
L 697 3053 
L 147 3053 
L 147 3500 
L 697 3500 
L 697 3744 
Q 697 4328 969 4595 
Q 1241 4863 1831 4863 
L 2375 4863 
z
" transform="scale(0.015625)"/>
      <path id="DejaVuSans-67" d="M 2906 1791 
Q 2906 2416 2648 2759 
Q 2391 3103 1925 3103 
Q 1463 3103 1205 2759 
Q 947 2416 947 1791 
Q 947 1169 1205 825 
Q 1463 481 1925 481 
Q 2391 481 2648 825 
Q 2906 1169 2906 1791 
z
M 3481 434 
Q 3481 -459 3084 -895 
Q 2688 -1331 1869 -1331 
Q 1566 -1331 1297 -1286 
Q 1028 -1241 775 -1147 
L 775 -588 
Q 1028 -725 1275 -790 
Q 1522 -856 1778 -856 
Q 2344 -856 2625 -561 
Q 2906 -266 2906 331 
L 2906 616 
Q 2728 306 2450 153 
Q 2172 0 1784 0 
Q 1141 0 747 490 
Q 353 981 353 1791 
Q 353 2603 747 3093 
Q 1141 3584 1784 3584 
Q 2172 3584 2450 3431 
Q 2728 3278 2906 2969 
L 2906 3500 
L 3481 3500 
L 3481 434 
z
" transform="scale(0.015625)"/>
      <path id="DejaVuSans-63" d="M 3122 3366 
L 3122 2828 
Q 2878 2963 2633 3030 
Q 2388 3097 2138 3097 
Q 1578 3097 1268 2742 
Q 959 2388 959 1747 
Q 959 1106 1268 751 
Q 1578 397 2138 397 
Q 2388 397 2633 464 
Q 2878 531 3122 666 
L 3122 134 
Q 2881 22 2623 -34 
Q 2366 -91 2075 -91 
Q 1284 -91 818 406 
Q 353 903 353 1747 
Q 353 2603 823 3093 
Q 1294 3584 2113 3584 
Q 2378 3584 2631 3529 
Q 2884 3475 3122 3366 
z
" transform="scale(0.015625)"/>
      <path id="DejaVuSans-2f" d="M 1625 4666 
L 2156 4666 
L 531 -594 
L 0 -594 
L 1625 4666 
z
" transform="scale(0.015625)"/>
      <path id="DejaVuSans-5f" d="M 3263 -1063 
L 3263 -1509 
L -63 -1509 
L -63 -1063 
L 3263 -1063 
z
" transform="scale(0.015625)"/>
      <path id="DejaVuSans-75" d="M 544 1381 
L 544 3500 
L 1119 3500 
L 1119 1403 
Q 1119 906 1312 657 
Q 1506 409 1894 409 
Q 2359 409 2629 706 
Q 2900 1003 2900 1516 
L 2900 3500 
L 3475 3500 
L 3475 0 
L 2900 0 
L 2900 538 
Q 2691 219 2414 64 
Q 2138 -91 1772 -91 
Q 1169 -91 856 284 
Q 544 659 544 1381 
z
M 1991 3584 
L 1991 3584 
z
" transform="scale(0.015625)"/>
      <path id="DejaVuSans-62" d="M 3116 1747 
Q 3116 2381 2855 2742 
Q 2594 3103 2138 3103 
Q 1681 3103 1420 2742 
Q 1159 2381 1159 1747 
Q 1159 1113 1420 752 
Q 1681 391 2138 391 
Q 2594 391 2855 752 
Q 3116 1113 3116 1747 
z
M 1159 2969 
Q 1341 3281 1617 3432 
Q 1894 3584 2278 3584 
Q 2916 3584 3314 3078 
Q 3713 2572 3713 1747 
Q 3713 922 3314 415 
Q 2916 -91 2278 -91 
Q 1894 -91 1617 61 
Q 1341 213 1159 525 
L 1159 0 
L 581 0 
L 581 4863 
L 1159 4863 
L 1159 2969 
z
" transform="scale(0.015625)"/>
      <path id="DejaVuSans-68" d="M 3513 2113 
L 3513 0 
L 2938 0 
L 2938 2094 
Q 2938 2591 2744 2837 
Q 2550 3084 2163 3084 
Q 1697 3084 1428 2787 
Q 1159 2491 1159 1978 
L 1159 0 
L 581 0 
L 581 4863 
L 1159 4863 
L 1159 2956 
Q 1366 3272 1645 3428 
Q 1925 3584 2291 3584 
Q 2894 3584 3203 3211 
Q 3513 2838 3513 2113 
z
" transform="scale(0.015625)"/>
     </defs>
     <use xlink:href="#DejaVuSans-56"/>
     <use xlink:href="#DejaVuSans-69" x="66.158203"/>
     <use xlink:href="#DejaVuSans-6f" x="93.941406"/>
     <use xlink:href="#DejaVuSans-6c" x="155.123047"/>
     <use xlink:href="#DejaVuSans-69" x="182.90625"/>
     <use xlink:href="#DejaVuSans-6e" x="210.689453"/>
     <use xlink:href="#DejaVuSans-70" x="274.068359"/>
     <use xlink:href="#DejaVuSans-6c" x="337.544922"/>
     <use xlink:href="#DejaVuSans-6f" x="365.328125"/>
     <use xlink:href="#DejaVuSans-74" x="426.509766"/>
     <use xlink:href="#DejaVuSans-20" x="465.71875"/>
     <use xlink:href="#DejaVuSans-66" x="497.505859"/>
     <use xlink:href="#DejaVuSans-6f" x="532.710938"/>
     <use xlink:href="#DejaVuSans-72" x="593.892578"/>
     <use xlink:href="#DejaVuSans-20" x="635.005859"/>
     <use xlink:href="#DejaVuSans-70" x="666.792969"/>
     <use xlink:href="#DejaVuSans-72" x="730.269531"/>
     <use xlink:href="#DejaVuSans-6f" x="769.132812"/>
     <use xlink:href="#DejaVuSans-67" x="830.314453"/>
     <use xlink:href="#DejaVuSans-72" x="893.791016"/>
     <use xlink:href="#DejaVuSans-65" x="932.654297"/>
     <use xlink:href="#DejaVuSans-73" x="994.177734"/>
     <use xlink:href="#DejaVuSans-73" x="1046.277344"/>
     <use xlink:href="#DejaVuSans-20" x="1098.376953"/>
     <use xlink:href="#DejaVuSans-6f" x="1130.164062"/>
     <use xlink:href="#DejaVuSans-66" x="1191.345703"/>
     <use xlink:href="#DejaVuSans-20" x="1226.550781"/>
     <use xlink:href="#DejaVuSans-61" x="1258.337891"/>
     <use xlink:href="#DejaVuSans-63" x="1319.617188"/>
     <use xlink:href="#DejaVuSans-74" x="1374.597656"/>
     <use xlink:href="#DejaVuSans-69" x="1413.806641"/>
     <use xlink:href="#DejaVuSans-6f" x="1441.589844"/>
     <use xlink:href="#DejaVuSans-6e" x="1502.771484"/>
     <use xlink:href="#DejaVuSans-73" x="1566.150391"/>
     <use xlink:href="#DejaVuSans-2f" x="1618.25"/>
     <use xlink:href="#DejaVuSans-70" x="1651.941406"/>
     <use xlink:href="#DejaVuSans-72" x="1715.417969"/>
     <use xlink:href="#DejaVuSans-69" x="1756.53125"/>
     <use xlink:href="#DejaVuSans-63" x="1784.314453"/>
     <use xlink:href="#DejaVuSans-65" x="1839.294922"/>
     <use xlink:href="#DejaVuSans-5f" x="1900.818359"/>
     <use xlink:href="#DejaVuSans-72" x="1950.818359"/>
     <use xlink:href="#DejaVuSans-65" x="1989.681641"/>
     <use xlink:href="#DejaVuSans-66" x="2051.205078"/>
     <use xlink:href="#DejaVuSans-75" x="2086.410156"/>
     <use xlink:href="#DejaVuSans-72" x="2149.789062"/>
     <use xlink:href="#DejaVuSans-62" x="2190.902344"/>
     <use xlink:href="#DejaVuSans-69" x="2254.378906"/>
     <use xlink:href="#DejaVuSans-73" x="2282.162109"/>
     <use xlink:href="#DejaVuSans-68" x="2334.261719"/>
     <use xlink:href="#DejaVuSans-65" x="2397.640625"/>
     <use xlink:href="#DejaVuSans-64" x="2459.164062"/>
    </g>
   </g>
   <g id="legend_1">
    <g id="patch_7">
     <path d="M 276.25125 64.150125 
L 407.72 64.150125 
Q 409.72 64.150125 409.72 62.150125 
L 409.72 48.472 
Q 409.72 46.472 407.72 46.472 
L 276.25125 46.472 
Q 274.25125 46.472 274.25125 48.472 
L 274.25125 62.150125 
Q 274.25125 64.150125 276.25125 64.150125 
z
" style="fill: #ffffff; opacity: 0.8; stroke: #cccccc; stroke-linejoin: miter"/>
    </g>
    <g id="line2d_35">
     <path d="M 278.25125 54.570438 
L 288.25125 54.570438 
L 298.25125 54.570438 
" style="fill: none; stroke: #4682b4; stroke-width: 1.5; stroke-linecap: square"/>
    </g>
    <g id="text_20">
     <!-- StableBaselinesSAC -->
     <g transform="translate(306.25125 58.070438)scale(0.1 -0.1)">
      <defs>
       <path id="DejaVuSans-53" d="M 3425 4513 
L 3425 3897 
Q 3066 4069 2747 4153 
Q 2428 4238 2131 4238 
Q 1616 4238 1336 4038 
Q 1056 3838 1056 3469 
Q 1056 3159 1242 3001 
Q 1428 2844 1947 2747 
L 2328 2669 
Q 3034 2534 3370 2195 
Q 3706 1856 3706 1288 
Q 3706 609 3251 259 
Q 2797 -91 1919 -91 
Q 1588 -91 1214 -16 
Q 841 59 441 206 
L 441 856 
Q 825 641 1194 531 
Q 1563 422 1919 422 
Q 2459 422 2753 634 
Q 3047 847 3047 1241 
Q 3047 1584 2836 1778 
Q 2625 1972 2144 2069 
L 1759 2144 
Q 1053 2284 737 2584 
Q 422 2884 422 3419 
Q 422 4038 858 4394 
Q 1294 4750 2059 4750 
Q 2388 4750 2728 4690 
Q 3069 4631 3425 4513 
z
" transform="scale(0.015625)"/>
       <path id="DejaVuSans-42" d="M 1259 2228 
L 1259 519 
L 2272 519 
Q 2781 519 3026 730 
Q 3272 941 3272 1375 
Q 3272 1813 3026 2020 
Q 2781 2228 2272 2228 
L 1259 2228 
z
M 1259 4147 
L 1259 2741 
L 2194 2741 
Q 2656 2741 2882 2914 
Q 3109 3088 3109 3444 
Q 3109 3797 2882 3972 
Q 2656 4147 2194 4147 
L 1259 4147 
z
M 628 4666 
L 2241 4666 
Q 2963 4666 3353 4366 
Q 3744 4066 3744 3513 
Q 3744 3084 3544 2831 
Q 3344 2578 2956 2516 
Q 3422 2416 3680 2098 
Q 3938 1781 3938 1306 
Q 3938 681 3513 340 
Q 3088 0 2303 0 
L 628 0 
L 628 4666 
z
" transform="scale(0.015625)"/>
       <path id="DejaVuSans-41" d="M 2188 4044 
L 1331 1722 
L 3047 1722 
L 2188 4044 
z
M 1831 4666 
L 2547 4666 
L 4325 0 
L 3669 0 
L 3244 1197 
L 1141 1197 
L 716 0 
L 50 0 
L 1831 4666 
z
" transform="scale(0.015625)"/>
       <path id="DejaVuSans-43" d="M 4122 4306 
L 4122 3641 
Q 3803 3938 3442 4084 
Q 3081 4231 2675 4231 
Q 1875 4231 1450 3742 
Q 1025 3253 1025 2328 
Q 1025 1406 1450 917 
Q 1875 428 2675 428 
Q 3081 428 3442 575 
Q 3803 722 4122 1019 
L 4122 359 
Q 3791 134 3420 21 
Q 3050 -91 2638 -91 
Q 1578 -91 968 557 
Q 359 1206 359 2328 
Q 359 3453 968 4101 
Q 1578 4750 2638 4750 
Q 3056 4750 3426 4639 
Q 3797 4528 4122 4306 
z
" transform="scale(0.015625)"/>
      </defs>
      <use xlink:href="#DejaVuSans-53"/>
      <use xlink:href="#DejaVuSans-74" x="63.476562"/>
      <use xlink:href="#DejaVuSans-61" x="102.685547"/>
      <use xlink:href="#DejaVuSans-62" x="163.964844"/>
      <use xlink:href="#DejaVuSans-6c" x="227.441406"/>
      <use xlink:href="#DejaVuSans-65" x="255.224609"/>
      <use xlink:href="#DejaVuSans-42" x="316.748047"/>
      <use xlink:href="#DejaVuSans-61" x="385.351562"/>
      <use xlink:href="#DejaVuSans-73" x="446.630859"/>
      <use xlink:href="#DejaVuSans-65" x="498.730469"/>
      <use xlink:href="#DejaVuSans-6c" x="560.253906"/>
      <use xlink:href="#DejaVuSans-69" x="588.037109"/>
      <use xlink:href="#DejaVuSans-6e" x="615.820312"/>
      <use xlink:href="#DejaVuSans-65" x="679.199219"/>
      <use xlink:href="#DejaVuSans-73" x="740.722656"/>
      <use xlink:href="#DejaVuSans-53" x="792.822266"/>
      <use xlink:href="#DejaVuSans-41" x="858.173828"/>
      <use xlink:href="#DejaVuSans-43" x="924.832031"/>
     </g>
    </g>
   </g>
  </g>
 </g>
 <defs>
  <clipPath id="p5d76bd6e05">
   <rect x="57.6" y="41.472" width="357.12" height="266.112"/>
  </clipPath>
 </defs>
</svg>
