<?xml version="1.0" encoding="utf-8" standalone="no"?>
<!DOCTYPE svg PUBLIC "-//W3C//DTD SVG 1.1//EN"
  "http://www.w3.org/Graphics/SVG/1.1/DTD/svg11.dtd">
<svg xmlns:xlink="http://www.w3.org/1999/xlink" width="460.8pt" height="345.6pt" viewBox="0 0 460.8 345.6" xmlns="http://www.w3.org/2000/svg" version="1.1">
 <metadata>
  <rdf:RDF xmlns:dc="http://purl.org/dc/elements/1.1/" xmlns:cc="http://creativecommons.org/ns#" xmlns:rdf="http://www.w3.org/1999/02/22-rdf-syntax-ns#">
   <cc:Work>
    <dc:type rdf:resource="http://purl.org/dc/dcmitype/StillImage"/>
    <dc:date>2022-06-21T09:14:50.979897</dc:date>
    <dc:format>image/svg+xml</dc:format>
    <dc:creator>
     <cc:Agent>
      <dc:title>Matplotlib v3.5.2, https://matplotlib.org/</dc:title>
     </cc:Agent>
    </dc:creator>
   </cc:Work>
  </rdf:RDF>
 </metadata>
 <defs>
  <style type="text/css">*{stroke-linejoin: round; stroke-linecap: butt}</style>
 </defs>
 <g id="figure_1">
  <g id="patch_1">
   <path d="M 0 345.6 
L 460.8 345.6 
L 460.8 0 
L 0 0 
z
" style="fill: #ffffff"/>
  </g>
  <g id="axes_1">
   <g id="patch_2">
    <path d="M 57.6 307.584 
L 414.72 307.584 
L 414.72 41.472 
L 57.6 41.472 
z
" style="fill: #ffffff"/>
   </g>
   <g id="PolyCollection_1">
    <path d="M 109.076611 295.488 
L 106.937169 295.488 
L 106.749398 293.943292 
L 106.556981 292.398583 
L 106.360986 290.853875 
L 106.159893 289.309167 
L 105.949529 287.764459 
L 105.72365 286.21975 
L 105.475101 284.675042 
L 105.197364 283.130334 
L 104.886209 281.585626 
L 104.541098 280.040917 
L 104.166005 278.496209 
L 103.769339 276.951501 
L 103.362776 275.406793 
L 102.95901 273.862084 
L 102.568711 272.317376 
L 102.197325 270.772668 
L 101.84257 269.227959 
L 101.493492 267.683251 
L 101.131625 266.138543 
L 100.734166 264.593835 
L 100.27841 263.049126 
L 99.746128 261.504418 
L 99.126499 259.95971 
L 98.416649 258.415002 
L 97.619663 256.870293 
L 96.740857 255.325585 
L 95.783754 253.780877 
L 94.747304 252.236169 
L 93.625486 250.69146 
L 92.409569 249.146752 
L 91.092445 247.602044 
L 89.673755 246.057335 
L 88.16427 244.512627 
L 86.588162 242.967919 
L 84.982343 241.423211 
L 83.392753 239.878502 
L 81.868285 238.333794 
L 80.453637 236.789086 
L 79.182751 235.244378 
L 78.074428 233.699669 
L 77.131235 232.154961 
L 76.341964 230.610253 
L 75.686965 229.065545 
L 75.144859 227.520836 
L 74.698769 225.976128 
L 74.340378 224.43142 
L 74.070776 222.886711 
L 73.898077 221.342003 
L 73.832727 219.797295 
L 73.882152 218.252587 
L 74.046493 216.707878 
L 74.316831 215.16317 
L 74.676426 213.618462 
L 75.104485 212.073754 
L 75.581211 210.529045 
L 76.092458 208.984337 
L 76.63262 207.439629 
L 77.204978 205.89492 
L 77.819655 204.350212 
L 78.49001 202.805504 
L 79.22869 201.260796 
L 80.044423 199.716087 
L 80.940273 198.171379 
L 81.913482 196.626671 
L 82.956586 195.081963 
L 84.059208 193.537254 
L 85.209913 191.992546 
L 86.397646 190.447838 
L 87.612513 188.90313 
L 88.84597 187.358421 
L 90.090615 185.813713 
L 91.339903 184.269005 
L 92.587971 182.724296 
L 93.829587 181.179588 
L 95.060041 179.63488 
L 96.274748 178.090172 
L 97.468424 176.545463 
L 98.633993 175.000755 
L 99.761605 173.456047 
L 100.838296 171.911339 
L 101.848646 170.36663 
L 102.776465 168.821922 
L 103.607159 167.277214 
L 104.330133 165.732506 
L 104.940593 164.187797 
L 105.440292 162.643089 
L 105.837131 161.098381 
L 106.143819 159.553672 
L 106.376015 158.008964 
L 106.550403 156.464256 
L 106.683032 154.919548 
L 106.78811 153.374839 
L 106.877299 151.830131 
L 106.959429 150.285423 
L 107.040529 148.740715 
L 107.124086 147.196006 
L 107.211422 145.651298 
L 107.30215 144.10659 
L 107.39465 142.561882 
L 108.61913 142.561882 
L 108.61913 142.561882 
L 108.71163 144.10659 
L 108.802358 145.651298 
L 108.889694 147.196006 
L 108.973251 148.740715 
L 109.054351 150.285423 
L 109.13648 151.830131 
L 109.22567 153.374839 
L 109.330748 154.919548 
L 109.463377 156.464256 
L 109.637765 158.008964 
L 109.869961 159.553672 
L 110.176648 161.098381 
L 110.573488 162.643089 
L 111.073187 164.187797 
L 111.683646 165.732506 
L 112.406621 167.277214 
L 113.237315 168.821922 
L 114.165134 170.36663 
L 115.175484 171.911339 
L 116.252175 173.456047 
L 117.379787 175.000755 
L 118.545356 176.545463 
L 119.739032 178.090172 
L 120.953739 179.63488 
L 122.184193 181.179588 
L 123.425809 182.724296 
L 124.673877 184.269005 
L 125.923165 185.813713 
L 127.16781 187.358421 
L 128.401267 188.90313 
L 129.616134 190.447838 
L 130.803866 191.992546 
L 131.954572 193.537254 
L 133.057194 195.081963 
L 134.100298 196.626671 
L 135.073507 198.171379 
L 135.969357 199.716087 
L 136.78509 201.260796 
L 137.52377 202.805504 
L 138.194125 204.350212 
L 138.808802 205.89492 
L 139.38116 207.439629 
L 139.921322 208.984337 
L 140.432569 210.529045 
L 140.909295 212.073754 
L 141.337354 213.618462 
L 141.696948 215.16317 
L 141.967287 216.707878 
L 142.131628 218.252587 
L 142.181053 219.797295 
L 142.115703 221.342003 
L 141.943003 222.886711 
L 141.673402 224.43142 
L 141.315011 225.976128 
L 140.868921 227.520836 
L 140.326815 229.065545 
L 139.671816 230.610253 
L 138.882545 232.154961 
L 137.939352 233.699669 
L 136.831029 235.244378 
L 135.560143 236.789086 
L 134.145495 238.333794 
L 132.621027 239.878502 
L 131.031437 241.423211 
L 129.425618 242.967919 
L 127.84951 244.512627 
L 126.340025 246.057335 
L 124.921335 247.602044 
L 123.604211 249.146752 
L 122.388294 250.69146 
L 121.266476 252.236169 
L 120.230026 253.780877 
L 119.272923 255.325585 
L 118.394117 256.870293 
L 117.597131 258.415002 
L 116.887281 259.95971 
L 116.267652 261.504418 
L 115.73537 263.049126 
L 115.279614 264.593835 
L 114.882155 266.138543 
L 114.520288 267.683251 
L 114.17121 269.227959 
L 113.816455 270.772668 
L 113.445069 272.317376 
L 113.05477 273.862084 
L 112.651004 275.406793 
L 112.244441 276.951501 
L 111.847775 278.496209 
L 111.472682 280.040917 
L 111.127571 281.585626 
L 110.816416 283.130334 
L 110.538679 284.675042 
L 110.29013 286.21975 
L 110.064251 287.764459 
L 109.853887 289.309167 
L 109.652794 290.853875 
L 109.456799 292.398583 
L 109.264382 293.943292 
L 109.076611 295.488 
z
" clip-path="url(#p82b325d180)" style="fill: #1f77b4; fill-opacity: 0.3"/>
   </g>
   <g id="PolyCollection_2">
    <path d="M 195.069686 215.702284 
L 191.814907 215.702284 
L 191.577347 214.539896 
L 191.332913 213.377508 
L 191.077731 212.21512 
L 190.804548 211.052732 
L 190.50349 209.890344 
L 190.16353 208.727956 
L 189.774474 207.565568 
L 189.329163 206.40318 
L 188.825486 205.240793 
L 188.267748 204.078405 
L 187.667016 202.916017 
L 187.040178 201.753629 
L 186.407718 200.591241 
L 185.790431 199.428853 
L 185.205625 198.266465 
L 184.663494 197.104077 
L 184.164423 195.941689 
L 183.697851 194.779302 
L 183.243025 193.616914 
L 182.771628 192.454526 
L 182.251853 191.292138 
L 181.65318 190.12975 
L 180.950978 188.967362 
L 180.13008 187.804974 
L 179.186719 186.642586 
L 178.128583 185.480199 
L 176.973162 184.317811 
L 175.744905 183.155423 
L 174.471928 181.993035 
L 173.182971 180.830647 
L 171.905138 179.668259 
L 170.662578 178.505871 
L 169.475957 177.343483 
L 168.362319 176.181095 
L 167.3349 175.018708 
L 166.40263 173.85632 
L 165.569341 172.693932 
L 164.833001 171.531544 
L 164.185429 170.369156 
L 163.612924 169.206768 
L 163.097986 168.04438 
L 162.621966 166.881992 
L 162.168198 165.719605 
L 161.724934 164.557217 
L 161.287458 163.394829 
L 160.858901 162.232441 
L 160.449606 161.070053 
L 160.075196 159.907665 
L 159.753814 158.745277 
L 159.503142 157.582889 
L 159.337871 156.420501 
L 159.268134 155.258114 
L 159.299198 154.095726 
L 159.432376 152.933338 
L 159.666819 151.77095 
L 160.001635 150.608562 
L 160.437718 149.446174 
L 160.978778 148.283786 
L 161.631277 147.121398 
L 162.403304 145.95901 
L 163.302665 144.796623 
L 164.334632 143.634235 
L 165.499833 142.471847 
L 166.792696 141.309459 
L 168.200667 140.147071 
L 169.704301 138.984683 
L 171.278167 137.822295 
L 172.892419 136.659907 
L 174.514852 135.49752 
L 176.113197 134.335132 
L 177.657412 133.172744 
L 179.121667 132.010356 
L 180.485798 130.847968 
L 181.736047 129.68558 
L 182.865036 128.523192 
L 183.871107 127.360804 
L 184.757223 126.198416 
L 185.52975 125.036029 
L 186.197373 123.873641 
L 186.77031 122.711253 
L 187.259877 121.548865 
L 187.678303 120.386477 
L 188.038646 119.224089 
L 188.354613 118.061701 
L 188.640164 116.899313 
L 188.908836 115.736925 
L 189.172835 114.574538 
L 189.442044 113.41215 
L 189.723131 112.249762 
L 190.018991 111.087374 
L 190.328645 109.924986 
L 190.647701 108.762598 
L 190.969282 107.60021 
L 191.28527 106.437822 
L 191.587614 105.275435 
L 191.86945 104.113047 
L 192.125841 102.950659 
L 192.354057 101.788271 
L 192.553431 100.625883 
L 194.331162 100.625883 
L 194.331162 100.625883 
L 194.530537 101.788271 
L 194.758752 102.950659 
L 195.015143 104.113047 
L 195.296979 105.275435 
L 195.599324 106.437822 
L 195.915311 107.60021 
L 196.236892 108.762598 
L 196.555948 109.924986 
L 196.865603 111.087374 
L 197.161462 112.249762 
L 197.44255 113.41215 
L 197.711758 114.574538 
L 197.975757 115.736925 
L 198.24443 116.899313 
L 198.529981 118.061701 
L 198.845947 119.224089 
L 199.20629 120.386477 
L 199.624716 121.548865 
L 200.114283 122.711253 
L 200.68722 123.873641 
L 201.354843 125.036029 
L 202.12737 126.198416 
L 203.013486 127.360804 
L 204.019557 128.523192 
L 205.148547 129.68558 
L 206.398795 130.847968 
L 207.762926 132.010356 
L 209.227181 133.172744 
L 210.771396 134.335132 
L 212.369742 135.49752 
L 213.992174 136.659907 
L 215.606426 137.822295 
L 217.180292 138.984683 
L 218.683927 140.147071 
L 220.091898 141.309459 
L 221.384761 142.471847 
L 222.549962 143.634235 
L 223.581928 144.796623 
L 224.48129 145.95901 
L 225.253317 147.121398 
L 225.905815 148.283786 
L 226.446875 149.446174 
L 226.882959 150.608562 
L 227.217774 151.77095 
L 227.452217 152.933338 
L 227.585395 154.095726 
L 227.616459 155.258114 
L 227.546722 156.420501 
L 227.381451 157.582889 
L 227.13078 158.745277 
L 226.809397 159.907665 
L 226.434987 161.070053 
L 226.025692 162.232441 
L 225.597136 163.394829 
L 225.159659 164.557217 
L 224.716396 165.719605 
L 224.262628 166.881992 
L 223.786608 168.04438 
L 223.271669 169.206768 
L 222.699165 170.369156 
L 222.051593 171.531544 
L 221.315252 172.693932 
L 220.481964 173.85632 
L 219.549693 175.018708 
L 218.522274 176.181095 
L 217.408636 177.343483 
L 216.222015 178.505871 
L 214.979455 179.668259 
L 213.701622 180.830647 
L 212.412666 181.993035 
L 211.139688 183.155423 
L 209.911432 184.317811 
L 208.75601 185.480199 
L 207.697874 186.642586 
L 206.754514 187.804974 
L 205.933616 188.967362 
L 205.231413 190.12975 
L 204.63274 191.292138 
L 204.112965 192.454526 
L 203.641568 193.616914 
L 203.186742 194.779302 
L 202.72017 195.941689 
L 202.2211 197.104077 
L 201.678968 198.266465 
L 201.094162 199.428853 
L 200.476875 200.591241 
L 199.844415 201.753629 
L 199.217578 202.916017 
L 198.616845 204.078405 
L 198.059108 205.240793 
L 197.555431 206.40318 
L 197.11012 207.565568 
L 196.721063 208.727956 
L 196.381103 209.890344 
L 196.080046 211.052732 
L 195.806862 212.21512 
L 195.55168 213.377508 
L 195.307246 214.539896 
L 195.069686 215.702284 
z
" clip-path="url(#p82b325d180)" style="fill: #1f77b4; fill-opacity: 0.3"/>
   </g>
   <g id="PolyCollection_3">
    <path d="M 279.127064 279.973456 
L 278.628343 279.973456 
L 278.636397 278.295973 
L 278.659031 276.61849 
L 278.692135 274.941007 
L 278.730233 273.263524 
L 278.767947 271.586041 
L 278.801176 269.908558 
L 278.827647 268.231075 
L 278.84681 266.553592 
L 278.859275 264.876109 
L 278.86609 263.198626 
L 278.868091 261.521143 
L 278.86544 259.84366 
L 278.857399 258.166178 
L 278.84234 256.488695 
L 278.818012 254.811212 
L 278.782079 253.133729 
L 278.732867 251.456246 
L 278.670171 249.778763 
L 278.595807 248.10128 
L 278.513614 246.423797 
L 278.428669 244.746314 
L 278.345779 243.068831 
L 278.267531 241.391348 
L 278.192426 239.713865 
L 278.113595 238.036382 
L 278.018455 236.358899 
L 277.889419 234.681416 
L 277.705552 233.003933 
L 277.444883 231.32645 
L 277.086927 229.648967 
L 276.614923 227.971484 
L 276.017304 226.294001 
L 275.288197 224.616518 
L 274.427201 222.939035 
L 273.439087 221.261552 
L 272.334167 219.584069 
L 271.129533 217.906586 
L 269.85038 216.229103 
L 268.529751 214.55162 
L 267.204894 212.874137 
L 265.909605 211.196654 
L 264.664037 209.519171 
L 263.46555 207.841688 
L 262.285124 206.164205 
L 261.072711 204.486722 
L 259.771915 202.809239 
L 258.340614 201.131756 
L 256.771048 199.454273 
L 255.101982 197.77679 
L 253.417376 196.099307 
L 251.830195 194.421824 
L 250.455203 192.744341 
L 249.378733 191.066858 
L 248.634884 189.389375 
L 248.195646 187.711892 
L 247.977895 186.034409 
L 247.864909 184.356926 
L 247.735941 182.679443 
L 247.495771 181.001961 
L 247.097029 179.324478 
L 246.55069 177.646995 
L 245.923382 175.969512 
L 245.323026 174.292029 
L 244.876419 172.614546 
L 244.703541 170.937063 
L 244.893763 169.25958 
L 245.48873 167.582097 
L 246.475466 165.904614 
L 247.791174 164.227131 
L 249.338448 162.549648 
L 251.007016 160.872165 
L 252.69625 159.194682 
L 254.332491 157.517199 
L 255.876807 155.839716 
L 257.321934 154.162233 
L 258.680923 152.48475 
L 259.972951 150.807267 
L 261.21253 149.129784 
L 262.406153 147.452301 
L 263.556268 145.774818 
L 264.668381 144.097335 
L 265.755586 142.419852 
L 266.836773 140.742369 
L 267.92902 139.064886 
L 269.038515 137.387403 
L 270.155302 135.70992 
L 271.254875 134.032437 
L 272.305692 132.354954 
L 273.278718 130.677471 
L 274.154589 128.999988 
L 274.925962 127.322505 
L 275.595366 125.645022 
L 276.170847 123.967539 
L 276.661999 122.290056 
L 277.077872 120.612573 
L 277.426759 118.93509 
L 277.716848 117.257607 
L 277.956641 115.580124 
L 278.154632 113.902641 
L 279.600774 113.902641 
L 279.600774 113.902641 
L 279.798766 115.580124 
L 280.038558 117.257607 
L 280.328647 118.93509 
L 280.677535 120.612573 
L 281.093408 122.290056 
L 281.584559 123.967539 
L 282.160041 125.645022 
L 282.829445 127.322505 
L 283.600818 128.999988 
L 284.476689 130.677471 
L 285.449714 132.354954 
L 286.500532 134.032437 
L 287.600104 135.70992 
L 288.716892 137.387403 
L 289.826387 139.064886 
L 290.918634 140.742369 
L 291.999821 142.419852 
L 293.087026 144.097335 
L 294.199138 145.774818 
L 295.349253 147.452301 
L 296.542877 149.129784 
L 297.782456 150.807267 
L 299.074484 152.48475 
L 300.433472 154.162233 
L 301.8786 155.839716 
L 303.422916 157.517199 
L 305.059157 159.194682 
L 306.748391 160.872165 
L 308.416959 162.549648 
L 309.964233 164.227131 
L 311.27994 165.904614 
L 312.266677 167.582097 
L 312.861644 169.25958 
L 313.051866 170.937063 
L 312.878988 172.614546 
L 312.432381 174.292029 
L 311.832025 175.969512 
L 311.204717 177.646995 
L 310.658378 179.324478 
L 310.259636 181.001961 
L 310.019466 182.679443 
L 309.890497 184.356926 
L 309.777511 186.034409 
L 309.559761 187.711892 
L 309.120522 189.389375 
L 308.376674 191.066858 
L 307.300204 192.744341 
L 305.925212 194.421824 
L 304.338031 196.099307 
L 302.653425 197.77679 
L 300.984359 199.454273 
L 299.414793 201.131756 
L 297.983492 202.809239 
L 296.682696 204.486722 
L 295.470283 206.164205 
L 294.289857 207.841688 
L 293.09137 209.519171 
L 291.845801 211.196654 
L 290.550513 212.874137 
L 289.225655 214.55162 
L 287.905026 216.229103 
L 286.625874 217.906586 
L 285.421239 219.584069 
L 284.31632 221.261552 
L 283.328206 222.939035 
L 282.46721 224.616518 
L 281.738103 226.294001 
L 281.140483 227.971484 
L 280.66848 229.648967 
L 280.310524 231.32645 
L 280.049854 233.003933 
L 279.865988 234.681416 
L 279.736951 236.358899 
L 279.641811 238.036382 
L 279.562981 239.713865 
L 279.487876 241.391348 
L 279.409628 243.068831 
L 279.326737 244.746314 
L 279.241793 246.423797 
L 279.159599 248.10128 
L 279.085236 249.778763 
L 279.02254 251.456246 
L 278.973328 253.133729 
L 278.937394 254.811212 
L 278.913067 256.488695 
L 278.898008 258.166178 
L 278.889967 259.84366 
L 278.887316 261.521143 
L 278.889316 263.198626 
L 278.896132 264.876109 
L 278.908596 266.553592 
L 278.927759 268.231075 
L 278.954231 269.908558 
L 278.98746 271.586041 
L 279.025174 273.263524 
L 279.063271 274.941007 
L 279.096375 276.61849 
L 279.11901 278.295973 
L 279.127064 279.973456 
z
" clip-path="url(#p82b325d180)" style="fill: #1f77b4; fill-opacity: 0.3"/>
   </g>
   <g id="PolyCollection_4">
    <path d="M 366.828846 243.45714 
L 361.797374 243.45714 
L 361.206909 241.539067 
L 360.558466 239.620995 
L 359.86408 237.702923 
L 359.136421 235.784851 
L 358.386491 233.866779 
L 357.621473 231.948707 
L 356.843254 230.030635 
L 356.047959 228.112563 
L 355.226607 226.194491 
L 354.366702 224.276418 
L 353.454357 222.358346 
L 352.476484 220.440274 
L 351.422692 218.522202 
L 350.286716 216.60413 
L 349.067464 214.686058 
L 347.769846 212.767986 
L 346.405534 210.849914 
L 344.993588 208.931841 
L 343.560642 207.013769 
L 342.140163 205.095697 
L 340.770345 203.177625 
L 339.490475 201.259553 
L 338.336103 199.341481 
L 337.333824 197.423409 
L 336.496858 195.505337 
L 335.822572 193.587265 
L 335.292756 191.669192 
L 334.876767 189.75112 
L 334.536911 187.833048 
L 334.234848 185.914976 
L 333.937534 183.996904 
L 333.621464 182.078832 
L 333.274479 180.16076 
L 332.895189 178.242688 
L 332.49064 176.324616 
L 332.073271 174.406543 
L 331.658166 172.488471 
L 331.26128 170.570399 
L 330.898809 168.652327 
L 330.587404 166.734255 
L 330.344615 164.816183 
L 330.18892 162.898111 
L 330.138947 160.980039 
L 330.211794 159.061966 
L 330.42077 157.143894 
L 330.773098 155.225822 
L 331.26819 153.30775 
L 331.897 151.389678 
L 332.642697 149.471606 
L 333.482626 147.553534 
L 334.391247 145.635462 
L 335.343523 143.71739 
L 336.318173 141.799317 
L 337.300153 139.881245 
L 338.281894 137.963173 
L 339.263039 136.045101 
L 340.248709 134.127029 
L 341.246659 132.208957 
L 342.263968 130.290885 
L 343.304022 128.372813 
L 344.364508 126.45474 
L 345.436891 124.536668 
L 346.507485 122.618596 
L 347.559815 120.700524 
L 348.577687 118.782452 
L 349.5482 116.86438 
L 350.464019 114.946308 
L 351.32443 113.028236 
L 352.134999 111.110164 
L 352.905992 109.192091 
L 353.649937 107.274019 
L 354.37885 105.355947 
L 355.101688 103.437875 
L 355.82249 101.519803 
L 356.539535 99.601731 
L 357.245646 97.683659 
L 357.929561 95.765587 
L 358.578092 93.847514 
L 359.178635 91.929442 
L 359.721533 90.01137 
L 360.201789 88.093298 
L 360.619806 86.175226 
L 360.981024 84.257154 
L 361.294585 82.339082 
L 361.571376 80.42101 
L 361.821921 78.502938 
L 362.054615 76.584865 
L 362.274638 74.666793 
L 362.483746 72.748721 
L 362.680861 70.830649 
L 362.863234 68.912577 
L 363.027827 66.994505 
L 363.172544 65.076433 
L 363.297044 63.158361 
L 363.402978 61.240288 
L 363.493672 59.322216 
L 363.573406 57.404144 
L 363.646526 55.486072 
L 363.716619 53.568 
L 364.909601 53.568 
L 364.909601 53.568 
L 364.979694 55.486072 
L 365.052814 57.404144 
L 365.132548 59.322216 
L 365.223242 61.240288 
L 365.329176 63.158361 
L 365.453676 65.076433 
L 365.598393 66.994505 
L 365.762986 68.912577 
L 365.945359 70.830649 
L 366.142474 72.748721 
L 366.351582 74.666793 
L 366.571605 76.584865 
L 366.804299 78.502938 
L 367.054844 80.42101 
L 367.331635 82.339082 
L 367.645196 84.257154 
L 368.006414 86.175226 
L 368.424431 88.093298 
L 368.904687 90.01137 
L 369.447585 91.929442 
L 370.048128 93.847514 
L 370.696659 95.765587 
L 371.380574 97.683659 
L 372.086685 99.601731 
L 372.80373 101.519803 
L 373.524532 103.437875 
L 374.24737 105.355947 
L 374.976283 107.274019 
L 375.720228 109.192091 
L 376.491221 111.110164 
L 377.30179 113.028236 
L 378.162201 114.946308 
L 379.07802 116.86438 
L 380.048533 118.782452 
L 381.066405 120.700524 
L 382.118735 122.618596 
L 383.189329 124.536668 
L 384.261712 126.45474 
L 385.322198 128.372813 
L 386.362252 130.290885 
L 387.379561 132.208957 
L 388.377511 134.127029 
L 389.363181 136.045101 
L 390.344326 137.963173 
L 391.326067 139.881245 
L 392.308047 141.799317 
L 393.282697 143.71739 
L 394.234973 145.635462 
L 395.143594 147.553534 
L 395.983524 149.471606 
L 396.729221 151.389678 
L 397.358031 153.30775 
L 397.853123 155.225822 
L 398.20545 157.143894 
L 398.414426 159.061966 
L 398.487273 160.980039 
L 398.4373 162.898111 
L 398.281605 164.816183 
L 398.038816 166.734255 
L 397.727412 168.652327 
L 397.364941 170.570399 
L 396.968054 172.488471 
L 396.552949 174.406543 
L 396.13558 176.324616 
L 395.731031 178.242688 
L 395.351741 180.16076 
L 395.004757 182.078832 
L 394.688686 183.996904 
L 394.391372 185.914976 
L 394.089309 187.833048 
L 393.749453 189.75112 
L 393.333464 191.669192 
L 392.803648 193.587265 
L 392.129362 195.505337 
L 391.292396 197.423409 
L 390.290117 199.341481 
L 389.135745 201.259553 
L 387.855875 203.177625 
L 386.486057 205.095697 
L 385.065578 207.013769 
L 383.632632 208.931841 
L 382.220686 210.849914 
L 380.856374 212.767986 
L 379.558756 214.686058 
L 378.339504 216.60413 
L 377.203528 218.522202 
L 376.149736 220.440274 
L 375.171863 222.358346 
L 374.259518 224.276418 
L 373.399613 226.194491 
L 372.578261 228.112563 
L 371.782966 230.030635 
L 371.004747 231.948707 
L 370.239729 233.866779 
L 369.489799 235.784851 
L 368.762141 237.702923 
L 368.067754 239.620995 
L 367.419311 241.539067 
L 366.828846 243.45714 
z
" clip-path="url(#p82b325d180)" style="fill: #1f77b4; fill-opacity: 0.3"/>
   </g>
   <g id="matplotlib.axis_1">
    <g id="xtick_1">
     <g id="line2d_1">
      <path d="M 65.289187 307.584 
L 65.289187 41.472 
" clip-path="url(#p82b325d180)" style="fill: none; stroke-dasharray: 2.96,1.28; stroke-dashoffset: 0; stroke: #b0b0b0; stroke-width: 0.8"/>
     </g>
     <g id="line2d_2">
      <defs>
       <path id="m4107beb359" d="M 0 0 
L 0 3.5 
" style="stroke: #000000; stroke-width: 0.8"/>
      </defs>
      <g>
       <use xlink:href="#m4107beb359" x="65.289187" y="307.584" style="stroke: #000000; stroke-width: 0.8"/>
      </g>
     </g>
     <g id="text_1">
      <!-- 250 -->
      <g transform="translate(55.745437 322.182437)scale(0.1 -0.1)">
       <defs>
        <path id="DejaVuSans-32" d="M 1228 531 
L 3431 531 
L 3431 0 
L 469 0 
L 469 531 
Q 828 903 1448 1529 
Q 2069 2156 2228 2338 
Q 2531 2678 2651 2914 
Q 2772 3150 2772 3378 
Q 2772 3750 2511 3984 
Q 2250 4219 1831 4219 
Q 1534 4219 1204 4116 
Q 875 4013 500 3803 
L 500 4441 
Q 881 4594 1212 4672 
Q 1544 4750 1819 4750 
Q 2544 4750 2975 4387 
Q 3406 4025 3406 3419 
Q 3406 3131 3298 2873 
Q 3191 2616 2906 2266 
Q 2828 2175 2409 1742 
Q 1991 1309 1228 531 
z
" transform="scale(0.015625)"/>
        <path id="DejaVuSans-35" d="M 691 4666 
L 3169 4666 
L 3169 4134 
L 1269 4134 
L 1269 2991 
Q 1406 3038 1543 3061 
Q 1681 3084 1819 3084 
Q 2600 3084 3056 2656 
Q 3513 2228 3513 1497 
Q 3513 744 3044 326 
Q 2575 -91 1722 -91 
Q 1428 -91 1123 -41 
Q 819 9 494 109 
L 494 744 
Q 775 591 1075 516 
Q 1375 441 1709 441 
Q 2250 441 2565 725 
Q 2881 1009 2881 1497 
Q 2881 1984 2565 2268 
Q 2250 2553 1709 2553 
Q 1456 2553 1204 2497 
Q 953 2441 691 2322 
L 691 4666 
z
" transform="scale(0.015625)"/>
        <path id="DejaVuSans-30" d="M 2034 4250 
Q 1547 4250 1301 3770 
Q 1056 3291 1056 2328 
Q 1056 1369 1301 889 
Q 1547 409 2034 409 
Q 2525 409 2770 889 
Q 3016 1369 3016 2328 
Q 3016 3291 2770 3770 
Q 2525 4250 2034 4250 
z
M 2034 4750 
Q 2819 4750 3233 4129 
Q 3647 3509 3647 2328 
Q 3647 1150 3233 529 
Q 2819 -91 2034 -91 
Q 1250 -91 836 529 
Q 422 1150 422 2328 
Q 422 3509 836 4129 
Q 1250 4750 2034 4750 
z
" transform="scale(0.015625)"/>
       </defs>
       <use xlink:href="#DejaVuSans-32"/>
       <use xlink:href="#DejaVuSans-35" x="63.623047"/>
       <use xlink:href="#DejaVuSans-30" x="127.246094"/>
      </g>
     </g>
    </g>
    <g id="xtick_2">
     <g id="line2d_3">
      <path d="M 108.00689 307.584 
L 108.00689 41.472 
" clip-path="url(#p82b325d180)" style="fill: none; stroke-dasharray: 2.96,1.28; stroke-dashoffset: 0; stroke: #b0b0b0; stroke-width: 0.8"/>
     </g>
     <g id="line2d_4">
      <g>
       <use xlink:href="#m4107beb359" x="108.00689" y="307.584" style="stroke: #000000; stroke-width: 0.8"/>
      </g>
     </g>
     <g id="text_2">
      <!-- 500 -->
      <g transform="translate(98.46314 322.182437)scale(0.1 -0.1)">
       <use xlink:href="#DejaVuSans-35"/>
       <use xlink:href="#DejaVuSans-30" x="63.623047"/>
       <use xlink:href="#DejaVuSans-30" x="127.246094"/>
      </g>
     </g>
    </g>
    <g id="xtick_3">
     <g id="line2d_5">
      <path d="M 150.724593 307.584 
L 150.724593 41.472 
" clip-path="url(#p82b325d180)" style="fill: none; stroke-dasharray: 2.96,1.28; stroke-dashoffset: 0; stroke: #b0b0b0; stroke-width: 0.8"/>
     </g>
     <g id="line2d_6">
      <g>
       <use xlink:href="#m4107beb359" x="150.724593" y="307.584" style="stroke: #000000; stroke-width: 0.8"/>
      </g>
     </g>
     <g id="text_3">
      <!-- 750 -->
      <g transform="translate(141.180843 322.182437)scale(0.1 -0.1)">
       <defs>
        <path id="DejaVuSans-37" d="M 525 4666 
L 3525 4666 
L 3525 4397 
L 1831 0 
L 1172 0 
L 2766 4134 
L 525 4134 
L 525 4666 
z
" transform="scale(0.015625)"/>
       </defs>
       <use xlink:href="#DejaVuSans-37"/>
       <use xlink:href="#DejaVuSans-35" x="63.623047"/>
       <use xlink:href="#DejaVuSans-30" x="127.246094"/>
      </g>
     </g>
    </g>
    <g id="xtick_4">
     <g id="line2d_7">
      <path d="M 193.442297 307.584 
L 193.442297 41.472 
" clip-path="url(#p82b325d180)" style="fill: none; stroke-dasharray: 2.96,1.28; stroke-dashoffset: 0; stroke: #b0b0b0; stroke-width: 0.8"/>
     </g>
     <g id="line2d_8">
      <g>
       <use xlink:href="#m4107beb359" x="193.442297" y="307.584" style="stroke: #000000; stroke-width: 0.8"/>
      </g>
     </g>
     <g id="text_4">
      <!-- 1000 -->
      <g transform="translate(180.717297 322.182437)scale(0.1 -0.1)">
       <defs>
        <path id="DejaVuSans-31" d="M 794 531 
L 1825 531 
L 1825 4091 
L 703 3866 
L 703 4441 
L 1819 4666 
L 2450 4666 
L 2450 531 
L 3481 531 
L 3481 0 
L 794 0 
L 794 531 
z
" transform="scale(0.015625)"/>
       </defs>
       <use xlink:href="#DejaVuSans-31"/>
       <use xlink:href="#DejaVuSans-30" x="63.623047"/>
       <use xlink:href="#DejaVuSans-30" x="127.246094"/>
       <use xlink:href="#DejaVuSans-30" x="190.869141"/>
      </g>
     </g>
    </g>
    <g id="xtick_5">
     <g id="line2d_9">
      <path d="M 236.16 307.584 
L 236.16 41.472 
" clip-path="url(#p82b325d180)" style="fill: none; stroke-dasharray: 2.96,1.28; stroke-dashoffset: 0; stroke: #b0b0b0; stroke-width: 0.8"/>
     </g>
     <g id="line2d_10">
      <g>
       <use xlink:href="#m4107beb359" x="236.16" y="307.584" style="stroke: #000000; stroke-width: 0.8"/>
      </g>
     </g>
     <g id="text_5">
      <!-- 1250 -->
      <g transform="translate(223.435 322.182437)scale(0.1 -0.1)">
       <use xlink:href="#DejaVuSans-31"/>
       <use xlink:href="#DejaVuSans-32" x="63.623047"/>
       <use xlink:href="#DejaVuSans-35" x="127.246094"/>
       <use xlink:href="#DejaVuSans-30" x="190.869141"/>
      </g>
     </g>
    </g>
    <g id="xtick_6">
     <g id="line2d_11">
      <path d="M 278.877703 307.584 
L 278.877703 41.472 
" clip-path="url(#p82b325d180)" style="fill: none; stroke-dasharray: 2.96,1.28; stroke-dashoffset: 0; stroke: #b0b0b0; stroke-width: 0.8"/>
     </g>
     <g id="line2d_12">
      <g>
       <use xlink:href="#m4107beb359" x="278.877703" y="307.584" style="stroke: #000000; stroke-width: 0.8"/>
      </g>
     </g>
     <g id="text_6">
      <!-- 1500 -->
      <g transform="translate(266.152703 322.182437)scale(0.1 -0.1)">
       <use xlink:href="#DejaVuSans-31"/>
       <use xlink:href="#DejaVuSans-35" x="63.623047"/>
       <use xlink:href="#DejaVuSans-30" x="127.246094"/>
       <use xlink:href="#DejaVuSans-30" x="190.869141"/>
      </g>
     </g>
    </g>
    <g id="xtick_7">
     <g id="line2d_13">
      <path d="M 321.595407 307.584 
L 321.595407 41.472 
" clip-path="url(#p82b325d180)" style="fill: none; stroke-dasharray: 2.96,1.28; stroke-dashoffset: 0; stroke: #b0b0b0; stroke-width: 0.8"/>
     </g>
     <g id="line2d_14">
      <g>
       <use xlink:href="#m4107beb359" x="321.595407" y="307.584" style="stroke: #000000; stroke-width: 0.8"/>
      </g>
     </g>
     <g id="text_7">
      <!-- 1750 -->
      <g transform="translate(308.870407 322.182437)scale(0.1 -0.1)">
       <use xlink:href="#DejaVuSans-31"/>
       <use xlink:href="#DejaVuSans-37" x="63.623047"/>
       <use xlink:href="#DejaVuSans-35" x="127.246094"/>
       <use xlink:href="#DejaVuSans-30" x="190.869141"/>
      </g>
     </g>
    </g>
    <g id="xtick_8">
     <g id="line2d_15">
      <path d="M 364.31311 307.584 
L 364.31311 41.472 
" clip-path="url(#p82b325d180)" style="fill: none; stroke-dasharray: 2.96,1.28; stroke-dashoffset: 0; stroke: #b0b0b0; stroke-width: 0.8"/>
     </g>
     <g id="line2d_16">
      <g>
       <use xlink:href="#m4107beb359" x="364.31311" y="307.584" style="stroke: #000000; stroke-width: 0.8"/>
      </g>
     </g>
     <g id="text_8">
      <!-- 2000 -->
      <g transform="translate(351.58811 322.182437)scale(0.1 -0.1)">
       <use xlink:href="#DejaVuSans-32"/>
       <use xlink:href="#DejaVuSans-30" x="63.623047"/>
       <use xlink:href="#DejaVuSans-30" x="127.246094"/>
       <use xlink:href="#DejaVuSans-30" x="190.869141"/>
      </g>
     </g>
    </g>
    <g id="xtick_9">
     <g id="line2d_17">
      <path d="M 407.030813 307.584 
L 407.030813 41.472 
" clip-path="url(#p82b325d180)" style="fill: none; stroke-dasharray: 2.96,1.28; stroke-dashoffset: 0; stroke: #b0b0b0; stroke-width: 0.8"/>
     </g>
     <g id="line2d_18">
      <g>
       <use xlink:href="#m4107beb359" x="407.030813" y="307.584" style="stroke: #000000; stroke-width: 0.8"/>
      </g>
     </g>
     <g id="text_9">
      <!-- 2250 -->
      <g transform="translate(394.305813 322.182437)scale(0.1 -0.1)">
       <use xlink:href="#DejaVuSans-32"/>
       <use xlink:href="#DejaVuSans-32" x="63.623047"/>
       <use xlink:href="#DejaVuSans-35" x="127.246094"/>
       <use xlink:href="#DejaVuSans-30" x="190.869141"/>
      </g>
     </g>
    </g>
    <g id="text_10">
     <!-- Learned Episodes -->
     <g transform="translate(192.102187 335.860562)scale(0.1 -0.1)">
      <defs>
       <path id="DejaVuSans-4c" d="M 628 4666 
L 1259 4666 
L 1259 531 
L 3531 531 
L 3531 0 
L 628 0 
L 628 4666 
z
" transform="scale(0.015625)"/>
       <path id="DejaVuSans-65" d="M 3597 1894 
L 3597 1613 
L 953 1613 
Q 991 1019 1311 708 
Q 1631 397 2203 397 
Q 2534 397 2845 478 
Q 3156 559 3463 722 
L 3463 178 
Q 3153 47 2828 -22 
Q 2503 -91 2169 -91 
Q 1331 -91 842 396 
Q 353 884 353 1716 
Q 353 2575 817 3079 
Q 1281 3584 2069 3584 
Q 2775 3584 3186 3129 
Q 3597 2675 3597 1894 
z
M 3022 2063 
Q 3016 2534 2758 2815 
Q 2500 3097 2075 3097 
Q 1594 3097 1305 2825 
Q 1016 2553 972 2059 
L 3022 2063 
z
" transform="scale(0.015625)"/>
       <path id="DejaVuSans-61" d="M 2194 1759 
Q 1497 1759 1228 1600 
Q 959 1441 959 1056 
Q 959 750 1161 570 
Q 1363 391 1709 391 
Q 2188 391 2477 730 
Q 2766 1069 2766 1631 
L 2766 1759 
L 2194 1759 
z
M 3341 1997 
L 3341 0 
L 2766 0 
L 2766 531 
Q 2569 213 2275 61 
Q 1981 -91 1556 -91 
Q 1019 -91 701 211 
Q 384 513 384 1019 
Q 384 1609 779 1909 
Q 1175 2209 1959 2209 
L 2766 2209 
L 2766 2266 
Q 2766 2663 2505 2880 
Q 2244 3097 1772 3097 
Q 1472 3097 1187 3025 
Q 903 2953 641 2809 
L 641 3341 
Q 956 3463 1253 3523 
Q 1550 3584 1831 3584 
Q 2591 3584 2966 3190 
Q 3341 2797 3341 1997 
z
" transform="scale(0.015625)"/>
       <path id="DejaVuSans-72" d="M 2631 2963 
Q 2534 3019 2420 3045 
Q 2306 3072 2169 3072 
Q 1681 3072 1420 2755 
Q 1159 2438 1159 1844 
L 1159 0 
L 581 0 
L 581 3500 
L 1159 3500 
L 1159 2956 
Q 1341 3275 1631 3429 
Q 1922 3584 2338 3584 
Q 2397 3584 2469 3576 
Q 2541 3569 2628 3553 
L 2631 2963 
z
" transform="scale(0.015625)"/>
       <path id="DejaVuSans-6e" d="M 3513 2113 
L 3513 0 
L 2938 0 
L 2938 2094 
Q 2938 2591 2744 2837 
Q 2550 3084 2163 3084 
Q 1697 3084 1428 2787 
Q 1159 2491 1159 1978 
L 1159 0 
L 581 0 
L 581 3500 
L 1159 3500 
L 1159 2956 
Q 1366 3272 1645 3428 
Q 1925 3584 2291 3584 
Q 2894 3584 3203 3211 
Q 3513 2838 3513 2113 
z
" transform="scale(0.015625)"/>
       <path id="DejaVuSans-64" d="M 2906 2969 
L 2906 4863 
L 3481 4863 
L 3481 0 
L 2906 0 
L 2906 525 
Q 2725 213 2448 61 
Q 2172 -91 1784 -91 
Q 1150 -91 751 415 
Q 353 922 353 1747 
Q 353 2572 751 3078 
Q 1150 3584 1784 3584 
Q 2172 3584 2448 3432 
Q 2725 3281 2906 2969 
z
M 947 1747 
Q 947 1113 1208 752 
Q 1469 391 1925 391 
Q 2381 391 2643 752 
Q 2906 1113 2906 1747 
Q 2906 2381 2643 2742 
Q 2381 3103 1925 3103 
Q 1469 3103 1208 2742 
Q 947 2381 947 1747 
z
" transform="scale(0.015625)"/>
       <path id="DejaVuSans-20" transform="scale(0.015625)"/>
       <path id="DejaVuSans-45" d="M 628 4666 
L 3578 4666 
L 3578 4134 
L 1259 4134 
L 1259 2753 
L 3481 2753 
L 3481 2222 
L 1259 2222 
L 1259 531 
L 3634 531 
L 3634 0 
L 628 0 
L 628 4666 
z
" transform="scale(0.015625)"/>
       <path id="DejaVuSans-70" d="M 1159 525 
L 1159 -1331 
L 581 -1331 
L 581 3500 
L 1159 3500 
L 1159 2969 
Q 1341 3281 1617 3432 
Q 1894 3584 2278 3584 
Q 2916 3584 3314 3078 
Q 3713 2572 3713 1747 
Q 3713 922 3314 415 
Q 2916 -91 2278 -91 
Q 1894 -91 1617 61 
Q 1341 213 1159 525 
z
M 3116 1747 
Q 3116 2381 2855 2742 
Q 2594 3103 2138 3103 
Q 1681 3103 1420 2742 
Q 1159 2381 1159 1747 
Q 1159 1113 1420 752 
Q 1681 391 2138 391 
Q 2594 391 2855 752 
Q 3116 1113 3116 1747 
z
" transform="scale(0.015625)"/>
       <path id="DejaVuSans-69" d="M 603 3500 
L 1178 3500 
L 1178 0 
L 603 0 
L 603 3500 
z
M 603 4863 
L 1178 4863 
L 1178 4134 
L 603 4134 
L 603 4863 
z
" transform="scale(0.015625)"/>
       <path id="DejaVuSans-73" d="M 2834 3397 
L 2834 2853 
Q 2591 2978 2328 3040 
Q 2066 3103 1784 3103 
Q 1356 3103 1142 2972 
Q 928 2841 928 2578 
Q 928 2378 1081 2264 
Q 1234 2150 1697 2047 
L 1894 2003 
Q 2506 1872 2764 1633 
Q 3022 1394 3022 966 
Q 3022 478 2636 193 
Q 2250 -91 1575 -91 
Q 1294 -91 989 -36 
Q 684 19 347 128 
L 347 722 
Q 666 556 975 473 
Q 1284 391 1588 391 
Q 1994 391 2212 530 
Q 2431 669 2431 922 
Q 2431 1156 2273 1281 
Q 2116 1406 1581 1522 
L 1381 1569 
Q 847 1681 609 1914 
Q 372 2147 372 2553 
Q 372 3047 722 3315 
Q 1072 3584 1716 3584 
Q 2034 3584 2315 3537 
Q 2597 3491 2834 3397 
z
" transform="scale(0.015625)"/>
       <path id="DejaVuSans-6f" d="M 1959 3097 
Q 1497 3097 1228 2736 
Q 959 2375 959 1747 
Q 959 1119 1226 758 
Q 1494 397 1959 397 
Q 2419 397 2687 759 
Q 2956 1122 2956 1747 
Q 2956 2369 2687 2733 
Q 2419 3097 1959 3097 
z
M 1959 3584 
Q 2709 3584 3137 3096 
Q 3566 2609 3566 1747 
Q 3566 888 3137 398 
Q 2709 -91 1959 -91 
Q 1206 -91 779 398 
Q 353 888 353 1747 
Q 353 2609 779 3096 
Q 1206 3584 1959 3584 
z
" transform="scale(0.015625)"/>
      </defs>
      <use xlink:href="#DejaVuSans-4c"/>
      <use xlink:href="#DejaVuSans-65" x="53.962891"/>
      <use xlink:href="#DejaVuSans-61" x="115.486328"/>
      <use xlink:href="#DejaVuSans-72" x="176.765625"/>
      <use xlink:href="#DejaVuSans-6e" x="216.128906"/>
      <use xlink:href="#DejaVuSans-65" x="279.507812"/>
      <use xlink:href="#DejaVuSans-64" x="341.03125"/>
      <use xlink:href="#DejaVuSans-20" x="404.507812"/>
      <use xlink:href="#DejaVuSans-45" x="436.294922"/>
      <use xlink:href="#DejaVuSans-70" x="499.478516"/>
      <use xlink:href="#DejaVuSans-69" x="562.955078"/>
      <use xlink:href="#DejaVuSans-73" x="590.738281"/>
      <use xlink:href="#DejaVuSans-6f" x="642.837891"/>
      <use xlink:href="#DejaVuSans-64" x="704.019531"/>
      <use xlink:href="#DejaVuSans-65" x="767.496094"/>
      <use xlink:href="#DejaVuSans-73" x="829.019531"/>
     </g>
    </g>
   </g>
   <g id="matplotlib.axis_2">
    <g id="ytick_1">
     <g id="line2d_19">
      <path d="M 57.6 301.635695 
L 414.72 301.635695 
" clip-path="url(#p82b325d180)" style="fill: none; stroke-dasharray: 2.96,1.28; stroke-dashoffset: 0; stroke: #b0b0b0; stroke-width: 0.8"/>
     </g>
     <g id="line2d_20">
      <defs>
       <path id="m64cf9794f8" d="M 0 0 
L -3.5 0 
" style="stroke: #000000; stroke-width: 0.8"/>
      </defs>
      <g>
       <use xlink:href="#m64cf9794f8" x="57.6" y="301.635695" style="stroke: #000000; stroke-width: 0.8"/>
      </g>
     </g>
     <g id="text_11">
      <!-- 0 -->
      <g transform="translate(44.2375 305.434914)scale(0.1 -0.1)">
       <use xlink:href="#DejaVuSans-30"/>
      </g>
     </g>
    </g>
    <g id="ytick_2">
     <g id="line2d_21">
      <path d="M 57.6 243.308051 
L 414.72 243.308051 
" clip-path="url(#p82b325d180)" style="fill: none; stroke-dasharray: 2.96,1.28; stroke-dashoffset: 0; stroke: #b0b0b0; stroke-width: 0.8"/>
     </g>
     <g id="line2d_22">
      <g>
       <use xlink:href="#m64cf9794f8" x="57.6" y="243.308051" style="stroke: #000000; stroke-width: 0.8"/>
      </g>
     </g>
     <g id="text_12">
      <!-- 200 -->
      <g transform="translate(31.5125 247.107269)scale(0.1 -0.1)">
       <use xlink:href="#DejaVuSans-32"/>
       <use xlink:href="#DejaVuSans-30" x="63.623047"/>
       <use xlink:href="#DejaVuSans-30" x="127.246094"/>
      </g>
     </g>
    </g>
    <g id="ytick_3">
     <g id="line2d_23">
      <path d="M 57.6 184.980406 
L 414.72 184.980406 
" clip-path="url(#p82b325d180)" style="fill: none; stroke-dasharray: 2.96,1.28; stroke-dashoffset: 0; stroke: #b0b0b0; stroke-width: 0.8"/>
     </g>
     <g id="line2d_24">
      <g>
       <use xlink:href="#m64cf9794f8" x="57.6" y="184.980406" style="stroke: #000000; stroke-width: 0.8"/>
      </g>
     </g>
     <g id="text_13">
      <!-- 400 -->
      <g transform="translate(31.5125 188.779625)scale(0.1 -0.1)">
       <defs>
        <path id="DejaVuSans-34" d="M 2419 4116 
L 825 1625 
L 2419 1625 
L 2419 4116 
z
M 2253 4666 
L 3047 4666 
L 3047 1625 
L 3713 1625 
L 3713 1100 
L 3047 1100 
L 3047 0 
L 2419 0 
L 2419 1100 
L 313 1100 
L 313 1709 
L 2253 4666 
z
" transform="scale(0.015625)"/>
       </defs>
       <use xlink:href="#DejaVuSans-34"/>
       <use xlink:href="#DejaVuSans-30" x="63.623047"/>
       <use xlink:href="#DejaVuSans-30" x="127.246094"/>
      </g>
     </g>
    </g>
    <g id="ytick_4">
     <g id="line2d_25">
      <path d="M 57.6 126.652762 
L 414.72 126.652762 
" clip-path="url(#p82b325d180)" style="fill: none; stroke-dasharray: 2.96,1.28; stroke-dashoffset: 0; stroke: #b0b0b0; stroke-width: 0.8"/>
     </g>
     <g id="line2d_26">
      <g>
       <use xlink:href="#m64cf9794f8" x="57.6" y="126.652762" style="stroke: #000000; stroke-width: 0.8"/>
      </g>
     </g>
     <g id="text_14">
      <!-- 600 -->
      <g transform="translate(31.5125 130.451981)scale(0.1 -0.1)">
       <defs>
        <path id="DejaVuSans-36" d="M 2113 2584 
Q 1688 2584 1439 2293 
Q 1191 2003 1191 1497 
Q 1191 994 1439 701 
Q 1688 409 2113 409 
Q 2538 409 2786 701 
Q 3034 994 3034 1497 
Q 3034 2003 2786 2293 
Q 2538 2584 2113 2584 
z
M 3366 4563 
L 3366 3988 
Q 3128 4100 2886 4159 
Q 2644 4219 2406 4219 
Q 1781 4219 1451 3797 
Q 1122 3375 1075 2522 
Q 1259 2794 1537 2939 
Q 1816 3084 2150 3084 
Q 2853 3084 3261 2657 
Q 3669 2231 3669 1497 
Q 3669 778 3244 343 
Q 2819 -91 2113 -91 
Q 1303 -91 875 529 
Q 447 1150 447 2328 
Q 447 3434 972 4092 
Q 1497 4750 2381 4750 
Q 2619 4750 2861 4703 
Q 3103 4656 3366 4563 
z
" transform="scale(0.015625)"/>
       </defs>
       <use xlink:href="#DejaVuSans-36"/>
       <use xlink:href="#DejaVuSans-30" x="63.623047"/>
       <use xlink:href="#DejaVuSans-30" x="127.246094"/>
      </g>
     </g>
    </g>
    <g id="ytick_5">
     <g id="line2d_27">
      <path d="M 57.6 68.325118 
L 414.72 68.325118 
" clip-path="url(#p82b325d180)" style="fill: none; stroke-dasharray: 2.96,1.28; stroke-dashoffset: 0; stroke: #b0b0b0; stroke-width: 0.8"/>
     </g>
     <g id="line2d_28">
      <g>
       <use xlink:href="#m64cf9794f8" x="57.6" y="68.325118" style="stroke: #000000; stroke-width: 0.8"/>
      </g>
     </g>
     <g id="text_15">
      <!-- 800 -->
      <g transform="translate(31.5125 72.124337)scale(0.1 -0.1)">
       <defs>
        <path id="DejaVuSans-38" d="M 2034 2216 
Q 1584 2216 1326 1975 
Q 1069 1734 1069 1313 
Q 1069 891 1326 650 
Q 1584 409 2034 409 
Q 2484 409 2743 651 
Q 3003 894 3003 1313 
Q 3003 1734 2745 1975 
Q 2488 2216 2034 2216 
z
M 1403 2484 
Q 997 2584 770 2862 
Q 544 3141 544 3541 
Q 544 4100 942 4425 
Q 1341 4750 2034 4750 
Q 2731 4750 3128 4425 
Q 3525 4100 3525 3541 
Q 3525 3141 3298 2862 
Q 3072 2584 2669 2484 
Q 3125 2378 3379 2068 
Q 3634 1759 3634 1313 
Q 3634 634 3220 271 
Q 2806 -91 2034 -91 
Q 1263 -91 848 271 
Q 434 634 434 1313 
Q 434 1759 690 2068 
Q 947 2378 1403 2484 
z
M 1172 3481 
Q 1172 3119 1398 2916 
Q 1625 2713 2034 2713 
Q 2441 2713 2670 2916 
Q 2900 3119 2900 3481 
Q 2900 3844 2670 4047 
Q 2441 4250 2034 4250 
Q 1625 4250 1398 4047 
Q 1172 3844 1172 3481 
z
" transform="scale(0.015625)"/>
       </defs>
       <use xlink:href="#DejaVuSans-38"/>
       <use xlink:href="#DejaVuSans-30" x="63.623047"/>
       <use xlink:href="#DejaVuSans-30" x="127.246094"/>
      </g>
     </g>
    </g>
    <g id="text_16">
     <!-- Reward Density -->
     <g transform="translate(25.432812 213.74675)rotate(-90)scale(0.1 -0.1)">
      <defs>
       <path id="DejaVuSans-52" d="M 2841 2188 
Q 3044 2119 3236 1894 
Q 3428 1669 3622 1275 
L 4263 0 
L 3584 0 
L 2988 1197 
Q 2756 1666 2539 1819 
Q 2322 1972 1947 1972 
L 1259 1972 
L 1259 0 
L 628 0 
L 628 4666 
L 2053 4666 
Q 2853 4666 3247 4331 
Q 3641 3997 3641 3322 
Q 3641 2881 3436 2590 
Q 3231 2300 2841 2188 
z
M 1259 4147 
L 1259 2491 
L 2053 2491 
Q 2509 2491 2742 2702 
Q 2975 2913 2975 3322 
Q 2975 3731 2742 3939 
Q 2509 4147 2053 4147 
L 1259 4147 
z
" transform="scale(0.015625)"/>
       <path id="DejaVuSans-77" d="M 269 3500 
L 844 3500 
L 1563 769 
L 2278 3500 
L 2956 3500 
L 3675 769 
L 4391 3500 
L 4966 3500 
L 4050 0 
L 3372 0 
L 2619 2869 
L 1863 0 
L 1184 0 
L 269 3500 
z
" transform="scale(0.015625)"/>
       <path id="DejaVuSans-44" d="M 1259 4147 
L 1259 519 
L 2022 519 
Q 2988 519 3436 956 
Q 3884 1394 3884 2338 
Q 3884 3275 3436 3711 
Q 2988 4147 2022 4147 
L 1259 4147 
z
M 628 4666 
L 1925 4666 
Q 3281 4666 3915 4102 
Q 4550 3538 4550 2338 
Q 4550 1131 3912 565 
Q 3275 0 1925 0 
L 628 0 
L 628 4666 
z
" transform="scale(0.015625)"/>
       <path id="DejaVuSans-74" d="M 1172 4494 
L 1172 3500 
L 2356 3500 
L 2356 3053 
L 1172 3053 
L 1172 1153 
Q 1172 725 1289 603 
Q 1406 481 1766 481 
L 2356 481 
L 2356 0 
L 1766 0 
Q 1100 0 847 248 
Q 594 497 594 1153 
L 594 3053 
L 172 3053 
L 172 3500 
L 594 3500 
L 594 4494 
L 1172 4494 
z
" transform="scale(0.015625)"/>
       <path id="DejaVuSans-79" d="M 2059 -325 
Q 1816 -950 1584 -1140 
Q 1353 -1331 966 -1331 
L 506 -1331 
L 506 -850 
L 844 -850 
Q 1081 -850 1212 -737 
Q 1344 -625 1503 -206 
L 1606 56 
L 191 3500 
L 800 3500 
L 1894 763 
L 2988 3500 
L 3597 3500 
L 2059 -325 
z
" transform="scale(0.015625)"/>
      </defs>
      <use xlink:href="#DejaVuSans-52"/>
      <use xlink:href="#DejaVuSans-65" x="64.982422"/>
      <use xlink:href="#DejaVuSans-77" x="126.505859"/>
      <use xlink:href="#DejaVuSans-61" x="208.292969"/>
      <use xlink:href="#DejaVuSans-72" x="269.572266"/>
      <use xlink:href="#DejaVuSans-64" x="308.935547"/>
      <use xlink:href="#DejaVuSans-20" x="372.412109"/>
      <use xlink:href="#DejaVuSans-44" x="404.199219"/>
      <use xlink:href="#DejaVuSans-65" x="481.201172"/>
      <use xlink:href="#DejaVuSans-6e" x="542.724609"/>
      <use xlink:href="#DejaVuSans-73" x="606.103516"/>
      <use xlink:href="#DejaVuSans-69" x="658.203125"/>
      <use xlink:href="#DejaVuSans-74" x="685.986328"/>
      <use xlink:href="#DejaVuSans-79" x="725.195312"/>
     </g>
    </g>
   </g>
   <g id="LineCollection_1">
    <path d="M 90.919809 218.753449 
L 125.093971 218.753449 
" clip-path="url(#p82b325d180)" style="fill: none; stroke: #1f77b4; stroke-width: 1.5"/>
    <path d="M 176.355215 159.661761 
L 210.529378 159.661761 
" clip-path="url(#p82b325d180)" style="fill: none; stroke: #1f77b4; stroke-width: 1.5"/>
    <path d="M 261.790622 176.558744 
L 295.964785 176.558744 
" clip-path="url(#p82b325d180)" style="fill: none; stroke: #1f77b4; stroke-width: 1.5"/>
    <path d="M 347.226029 164.2218 
L 381.400191 164.2218 
" clip-path="url(#p82b325d180)" style="fill: none; stroke: #1f77b4; stroke-width: 1.5"/>
   </g>
   <g id="LineCollection_2">
    <path d="M 90.919809 142.561882 
L 125.093971 142.561882 
" clip-path="url(#p82b325d180)" style="fill: none; stroke: #1f77b4; stroke-width: 1.5"/>
    <path d="M 176.355215 100.625883 
L 210.529378 100.625883 
" clip-path="url(#p82b325d180)" style="fill: none; stroke: #1f77b4; stroke-width: 1.5"/>
    <path d="M 261.790622 113.902641 
L 295.964785 113.902641 
" clip-path="url(#p82b325d180)" style="fill: none; stroke: #1f77b4; stroke-width: 1.5"/>
    <path d="M 347.226029 53.568 
L 381.400191 53.568 
" clip-path="url(#p82b325d180)" style="fill: none; stroke: #1f77b4; stroke-width: 1.5"/>
   </g>
   <g id="LineCollection_3">
    <path d="M 90.919809 295.488 
L 125.093971 295.488 
" clip-path="url(#p82b325d180)" style="fill: none; stroke: #1f77b4; stroke-width: 1.5"/>
    <path d="M 176.355215 215.702284 
L 210.529378 215.702284 
" clip-path="url(#p82b325d180)" style="fill: none; stroke: #1f77b4; stroke-width: 1.5"/>
    <path d="M 261.790622 279.973456 
L 295.964785 279.973456 
" clip-path="url(#p82b325d180)" style="fill: none; stroke: #1f77b4; stroke-width: 1.5"/>
    <path d="M 347.226029 243.45714 
L 381.400191 243.45714 
" clip-path="url(#p82b325d180)" style="fill: none; stroke: #1f77b4; stroke-width: 1.5"/>
   </g>
   <g id="LineCollection_4">
    <path d="M 108.00689 295.488 
L 108.00689 142.561882 
" clip-path="url(#p82b325d180)" style="fill: none; stroke: #1f77b4; stroke-width: 1.5"/>
    <path d="M 193.442297 215.702284 
L 193.442297 100.625883 
" clip-path="url(#p82b325d180)" style="fill: none; stroke: #1f77b4; stroke-width: 1.5"/>
    <path d="M 278.877703 279.973456 
L 278.877703 113.902641 
" clip-path="url(#p82b325d180)" style="fill: none; stroke: #1f77b4; stroke-width: 1.5"/>
    <path d="M 364.31311 243.45714 
L 364.31311 53.568 
" clip-path="url(#p82b325d180)" style="fill: none; stroke: #1f77b4; stroke-width: 1.5"/>
   </g>
   <g id="line2d_29">
    <path d="M 108.00689 218.753449 
L 193.442297 159.661761 
L 278.877703 176.558744 
L 364.31311 164.2218 
" clip-path="url(#p82b325d180)" style="fill: none; stroke: #4682b4; stroke-width: 1.5; stroke-linecap: square"/>
   </g>
   <g id="line2d_30">
    <path d="M 108.00689 218.753449 
L 193.442297 159.661761 
L 278.877703 176.558744 
L 364.31311 164.2218 
" clip-path="url(#p82b325d180)" style="fill: none; stroke: #4682b4; stroke-width: 1.5; stroke-linecap: square"/>
   </g>
   <g id="patch_3">
    <path d="M 57.6 307.584 
L 57.6 41.472 
" style="fill: none; stroke: #000000; stroke-width: 0.8; stroke-linejoin: miter; stroke-linecap: square"/>
   </g>
   <g id="patch_4">
    <path d="M 414.72 307.584 
L 414.72 41.472 
" style="fill: none; stroke: #000000; stroke-width: 0.8; stroke-linejoin: miter; stroke-linecap: square"/>
   </g>
   <g id="patch_5">
    <path d="M 57.6 307.584 
L 414.72 307.584 
" style="fill: none; stroke: #000000; stroke-width: 0.8; stroke-linejoin: miter; stroke-linecap: square"/>
   </g>
   <g id="patch_6">
    <path d="M 57.6 41.472 
L 414.72 41.472 
" style="fill: none; stroke: #000000; stroke-width: 0.8; stroke-linejoin: miter; stroke-linecap: square"/>
   </g>
   <g id="text_17">
    <!-- Violinplot for progress of profits/by_selling_new -->
    <g transform="translate(94.379063 35.472)scale(0.12 -0.12)">
     <defs>
      <path id="DejaVuSans-56" d="M 1831 0 
L 50 4666 
L 709 4666 
L 2188 738 
L 3669 4666 
L 4325 4666 
L 2547 0 
L 1831 0 
z
" transform="scale(0.015625)"/>
      <path id="DejaVuSans-6c" d="M 603 4863 
L 1178 4863 
L 1178 0 
L 603 0 
L 603 4863 
z
" transform="scale(0.015625)"/>
      <path id="DejaVuSans-66" d="M 2375 4863 
L 2375 4384 
L 1825 4384 
Q 1516 4384 1395 4259 
Q 1275 4134 1275 3809 
L 1275 3500 
L 2222 3500 
L 2222 3053 
L 1275 3053 
L 1275 0 
L 697 0 
L 697 3053 
L 147 3053 
L 147 3500 
L 697 3500 
L 697 3744 
Q 697 4328 969 4595 
Q 1241 4863 1831 4863 
L 2375 4863 
z
" transform="scale(0.015625)"/>
      <path id="DejaVuSans-67" d="M 2906 1791 
Q 2906 2416 2648 2759 
Q 2391 3103 1925 3103 
Q 1463 3103 1205 2759 
Q 947 2416 947 1791 
Q 947 1169 1205 825 
Q 1463 481 1925 481 
Q 2391 481 2648 825 
Q 2906 1169 2906 1791 
z
M 3481 434 
Q 3481 -459 3084 -895 
Q 2688 -1331 1869 -1331 
Q 1566 -1331 1297 -1286 
Q 1028 -1241 775 -1147 
L 775 -588 
Q 1028 -725 1275 -790 
Q 1522 -856 1778 -856 
Q 2344 -856 2625 -561 
Q 2906 -266 2906 331 
L 2906 616 
Q 2728 306 2450 153 
Q 2172 0 1784 0 
Q 1141 0 747 490 
Q 353 981 353 1791 
Q 353 2603 747 3093 
Q 1141 3584 1784 3584 
Q 2172 3584 2450 3431 
Q 2728 3278 2906 2969 
L 2906 3500 
L 3481 3500 
L 3481 434 
z
" transform="scale(0.015625)"/>
      <path id="DejaVuSans-2f" d="M 1625 4666 
L 2156 4666 
L 531 -594 
L 0 -594 
L 1625 4666 
z
" transform="scale(0.015625)"/>
      <path id="DejaVuSans-62" d="M 3116 1747 
Q 3116 2381 2855 2742 
Q 2594 3103 2138 3103 
Q 1681 3103 1420 2742 
Q 1159 2381 1159 1747 
Q 1159 1113 1420 752 
Q 1681 391 2138 391 
Q 2594 391 2855 752 
Q 3116 1113 3116 1747 
z
M 1159 2969 
Q 1341 3281 1617 3432 
Q 1894 3584 2278 3584 
Q 2916 3584 3314 3078 
Q 3713 2572 3713 1747 
Q 3713 922 3314 415 
Q 2916 -91 2278 -91 
Q 1894 -91 1617 61 
Q 1341 213 1159 525 
L 1159 0 
L 581 0 
L 581 4863 
L 1159 4863 
L 1159 2969 
z
" transform="scale(0.015625)"/>
      <path id="DejaVuSans-5f" d="M 3263 -1063 
L 3263 -1509 
L -63 -1509 
L -63 -1063 
L 3263 -1063 
z
" transform="scale(0.015625)"/>
     </defs>
     <use xlink:href="#DejaVuSans-56"/>
     <use xlink:href="#DejaVuSans-69" x="66.158203"/>
     <use xlink:href="#DejaVuSans-6f" x="93.941406"/>
     <use xlink:href="#DejaVuSans-6c" x="155.123047"/>
     <use xlink:href="#DejaVuSans-69" x="182.90625"/>
     <use xlink:href="#DejaVuSans-6e" x="210.689453"/>
     <use xlink:href="#DejaVuSans-70" x="274.068359"/>
     <use xlink:href="#DejaVuSans-6c" x="337.544922"/>
     <use xlink:href="#DejaVuSans-6f" x="365.328125"/>
     <use xlink:href="#DejaVuSans-74" x="426.509766"/>
     <use xlink:href="#DejaVuSans-20" x="465.71875"/>
     <use xlink:href="#DejaVuSans-66" x="497.505859"/>
     <use xlink:href="#DejaVuSans-6f" x="532.710938"/>
     <use xlink:href="#DejaVuSans-72" x="593.892578"/>
     <use xlink:href="#DejaVuSans-20" x="635.005859"/>
     <use xlink:href="#DejaVuSans-70" x="666.792969"/>
     <use xlink:href="#DejaVuSans-72" x="730.269531"/>
     <use xlink:href="#DejaVuSans-6f" x="769.132812"/>
     <use xlink:href="#DejaVuSans-67" x="830.314453"/>
     <use xlink:href="#DejaVuSans-72" x="893.791016"/>
     <use xlink:href="#DejaVuSans-65" x="932.654297"/>
     <use xlink:href="#DejaVuSans-73" x="994.177734"/>
     <use xlink:href="#DejaVuSans-73" x="1046.277344"/>
     <use xlink:href="#DejaVuSans-20" x="1098.376953"/>
     <use xlink:href="#DejaVuSans-6f" x="1130.164062"/>
     <use xlink:href="#DejaVuSans-66" x="1191.345703"/>
     <use xlink:href="#DejaVuSans-20" x="1226.550781"/>
     <use xlink:href="#DejaVuSans-70" x="1258.337891"/>
     <use xlink:href="#DejaVuSans-72" x="1321.814453"/>
     <use xlink:href="#DejaVuSans-6f" x="1360.677734"/>
     <use xlink:href="#DejaVuSans-66" x="1421.859375"/>
     <use xlink:href="#DejaVuSans-69" x="1457.064453"/>
     <use xlink:href="#DejaVuSans-74" x="1484.847656"/>
     <use xlink:href="#DejaVuSans-73" x="1524.056641"/>
     <use xlink:href="#DejaVuSans-2f" x="1576.15625"/>
     <use xlink:href="#DejaVuSans-62" x="1609.847656"/>
     <use xlink:href="#DejaVuSans-79" x="1673.324219"/>
     <use xlink:href="#DejaVuSans-5f" x="1732.503906"/>
     <use xlink:href="#DejaVuSans-73" x="1782.503906"/>
     <use xlink:href="#DejaVuSans-65" x="1834.603516"/>
     <use xlink:href="#DejaVuSans-6c" x="1896.126953"/>
     <use xlink:href="#DejaVuSans-6c" x="1923.910156"/>
     <use xlink:href="#DejaVuSans-69" x="1951.693359"/>
     <use xlink:href="#DejaVuSans-6e" x="1979.476562"/>
     <use xlink:href="#DejaVuSans-67" x="2042.855469"/>
     <use xlink:href="#DejaVuSans-5f" x="2106.332031"/>
     <use xlink:href="#DejaVuSans-6e" x="2156.332031"/>
     <use xlink:href="#DejaVuSans-65" x="2219.710938"/>
     <use xlink:href="#DejaVuSans-77" x="2281.234375"/>
    </g>
   </g>
   <g id="legend_1">
    <g id="patch_7">
     <path d="M 276.25125 64.150125 
L 407.72 64.150125 
Q 409.72 64.150125 409.72 62.150125 
L 409.72 48.472 
Q 409.72 46.472 407.72 46.472 
L 276.25125 46.472 
Q 274.25125 46.472 274.25125 48.472 
L 274.25125 62.150125 
Q 274.25125 64.150125 276.25125 64.150125 
z
" style="fill: #ffffff; opacity: 0.8; stroke: #cccccc; stroke-linejoin: miter"/>
    </g>
    <g id="line2d_31">
     <path d="M 278.25125 54.570438 
L 288.25125 54.570438 
L 298.25125 54.570438 
" style="fill: none; stroke: #4682b4; stroke-width: 1.5; stroke-linecap: square"/>
    </g>
    <g id="text_18">
     <!-- StableBaselinesSAC -->
     <g transform="translate(306.25125 58.070438)scale(0.1 -0.1)">
      <defs>
       <path id="DejaVuSans-53" d="M 3425 4513 
L 3425 3897 
Q 3066 4069 2747 4153 
Q 2428 4238 2131 4238 
Q 1616 4238 1336 4038 
Q 1056 3838 1056 3469 
Q 1056 3159 1242 3001 
Q 1428 2844 1947 2747 
L 2328 2669 
Q 3034 2534 3370 2195 
Q 3706 1856 3706 1288 
Q 3706 609 3251 259 
Q 2797 -91 1919 -91 
Q 1588 -91 1214 -16 
Q 841 59 441 206 
L 441 856 
Q 825 641 1194 531 
Q 1563 422 1919 422 
Q 2459 422 2753 634 
Q 3047 847 3047 1241 
Q 3047 1584 2836 1778 
Q 2625 1972 2144 2069 
L 1759 2144 
Q 1053 2284 737 2584 
Q 422 2884 422 3419 
Q 422 4038 858 4394 
Q 1294 4750 2059 4750 
Q 2388 4750 2728 4690 
Q 3069 4631 3425 4513 
z
" transform="scale(0.015625)"/>
       <path id="DejaVuSans-42" d="M 1259 2228 
L 1259 519 
L 2272 519 
Q 2781 519 3026 730 
Q 3272 941 3272 1375 
Q 3272 1813 3026 2020 
Q 2781 2228 2272 2228 
L 1259 2228 
z
M 1259 4147 
L 1259 2741 
L 2194 2741 
Q 2656 2741 2882 2914 
Q 3109 3088 3109 3444 
Q 3109 3797 2882 3972 
Q 2656 4147 2194 4147 
L 1259 4147 
z
M 628 4666 
L 2241 4666 
Q 2963 4666 3353 4366 
Q 3744 4066 3744 3513 
Q 3744 3084 3544 2831 
Q 3344 2578 2956 2516 
Q 3422 2416 3680 2098 
Q 3938 1781 3938 1306 
Q 3938 681 3513 340 
Q 3088 0 2303 0 
L 628 0 
L 628 4666 
z
" transform="scale(0.015625)"/>
       <path id="DejaVuSans-41" d="M 2188 4044 
L 1331 1722 
L 3047 1722 
L 2188 4044 
z
M 1831 4666 
L 2547 4666 
L 4325 0 
L 3669 0 
L 3244 1197 
L 1141 1197 
L 716 0 
L 50 0 
L 1831 4666 
z
" transform="scale(0.015625)"/>
       <path id="DejaVuSans-43" d="M 4122 4306 
L 4122 3641 
Q 3803 3938 3442 4084 
Q 3081 4231 2675 4231 
Q 1875 4231 1450 3742 
Q 1025 3253 1025 2328 
Q 1025 1406 1450 917 
Q 1875 428 2675 428 
Q 3081 428 3442 575 
Q 3803 722 4122 1019 
L 4122 359 
Q 3791 134 3420 21 
Q 3050 -91 2638 -91 
Q 1578 -91 968 557 
Q 359 1206 359 2328 
Q 359 3453 968 4101 
Q 1578 4750 2638 4750 
Q 3056 4750 3426 4639 
Q 3797 4528 4122 4306 
z
" transform="scale(0.015625)"/>
      </defs>
      <use xlink:href="#DejaVuSans-53"/>
      <use xlink:href="#DejaVuSans-74" x="63.476562"/>
      <use xlink:href="#DejaVuSans-61" x="102.685547"/>
      <use xlink:href="#DejaVuSans-62" x="163.964844"/>
      <use xlink:href="#DejaVuSans-6c" x="227.441406"/>
      <use xlink:href="#DejaVuSans-65" x="255.224609"/>
      <use xlink:href="#DejaVuSans-42" x="316.748047"/>
      <use xlink:href="#DejaVuSans-61" x="385.351562"/>
      <use xlink:href="#DejaVuSans-73" x="446.630859"/>
      <use xlink:href="#DejaVuSans-65" x="498.730469"/>
      <use xlink:href="#DejaVuSans-6c" x="560.253906"/>
      <use xlink:href="#DejaVuSans-69" x="588.037109"/>
      <use xlink:href="#DejaVuSans-6e" x="615.820312"/>
      <use xlink:href="#DejaVuSans-65" x="679.199219"/>
      <use xlink:href="#DejaVuSans-73" x="740.722656"/>
      <use xlink:href="#DejaVuSans-53" x="792.822266"/>
      <use xlink:href="#DejaVuSans-41" x="858.173828"/>
      <use xlink:href="#DejaVuSans-43" x="924.832031"/>
     </g>
    </g>
   </g>
  </g>
 </g>
 <defs>
  <clipPath id="p82b325d180">
   <rect x="57.6" y="41.472" width="357.12" height="266.112"/>
  </clipPath>
 </defs>
</svg>
