<?xml version="1.0" encoding="utf-8" standalone="no"?>
<!DOCTYPE svg PUBLIC "-//W3C//DTD SVG 1.1//EN"
  "http://www.w3.org/Graphics/SVG/1.1/DTD/svg11.dtd">
<svg xmlns:xlink="http://www.w3.org/1999/xlink" width="460.8pt" height="345.6pt" viewBox="0 0 460.8 345.6" xmlns="http://www.w3.org/2000/svg" version="1.1">
 <metadata>
  <rdf:RDF xmlns:dc="http://purl.org/dc/elements/1.1/" xmlns:cc="http://creativecommons.org/ns#" xmlns:rdf="http://www.w3.org/1999/02/22-rdf-syntax-ns#">
   <cc:Work>
    <dc:type rdf:resource="http://purl.org/dc/dcmitype/StillImage"/>
    <dc:date>2022-06-21T09:14:49.601895</dc:date>
    <dc:format>image/svg+xml</dc:format>
    <dc:creator>
     <cc:Agent>
      <dc:title>Matplotlib v3.5.2, https://matplotlib.org/</dc:title>
     </cc:Agent>
    </dc:creator>
   </cc:Work>
  </rdf:RDF>
 </metadata>
 <defs>
  <style type="text/css">*{stroke-linejoin: round; stroke-linecap: butt}</style>
 </defs>
 <g id="figure_1">
  <g id="patch_1">
   <path d="M 0 345.6 
L 460.8 345.6 
L 460.8 0 
L 0 0 
z
" style="fill: #ffffff"/>
  </g>
  <g id="axes_1">
   <g id="patch_2">
    <path d="M 57.6 307.584 
L 414.72 307.584 
L 414.72 41.472 
L 57.6 41.472 
z
" style="fill: #ffffff"/>
   </g>
   <g id="PolyCollection_1">
    <path d="M 113.264396 292.360921 
L 102.749384 292.360921 
L 101.237054 292.145539 
L 99.48201 291.930158 
L 97.492988 291.714776 
L 95.292038 291.499394 
L 92.916354 291.284012 
L 90.418753 291.068631 
L 87.866045 290.853249 
L 85.335021 290.637867 
L 82.906498 290.422486 
L 80.658513 290.207104 
L 78.66006 289.991722 
L 76.966642 289.776341 
L 75.618314 289.560959 
L 74.640143 289.345577 
L 74.044319 289.130195 
L 73.832727 288.914814 
L 73.998875 288.699432 
L 74.528482 288.48405 
L 75.398793 288.268669 
L 76.57732 288.053287 
L 78.021096 287.837905 
L 79.677405 287.622524 
L 81.486425 287.407142 
L 83.385565 287.19176 
L 85.31463 286.976378 
L 87.220712 286.760997 
L 89.061718 286.545615 
L 90.807828 286.330233 
L 92.44071 286.114852 
L 93.950948 285.89947 
L 95.334624 285.684088 
L 96.590221 285.468706 
L 97.716794 285.253325 
L 98.71383 285.037943 
L 99.582472 284.822561 
L 100.327209 284.60718 
L 100.956941 284.391798 
L 101.484687 284.176416 
L 101.925791 283.961035 
L 102.295278 283.745653 
L 102.605335 283.530271 
L 102.86393 283.314889 
L 103.075057 283.099508 
L 103.240513 282.884126 
L 103.362504 282.668744 
L 103.446162 282.453363 
L 103.501122 282.237981 
L 103.541644 282.022599 
L 103.585225 281.807218 
L 103.650013 281.591836 
L 103.751674 281.376454 
L 103.900441 281.161072 
L 104.099112 280.945691 
L 104.342522 280.730309 
L 104.618673 280.514927 
L 104.911267 280.299546 
L 105.202987 280.084164 
L 105.478617 279.868782 
L 105.72722 279.653401 
L 105.942918 279.438019 
L 106.124305 279.222637 
L 106.272989 279.007255 
L 106.391964 278.791874 
L 106.484401 278.576492 
L 106.553171 278.36111 
L 106.601029 278.145729 
L 106.631122 277.930347 
L 106.647442 277.714965 
L 106.654949 277.499583 
L 106.659293 277.284202 
L 106.666251 277.06882 
L 106.681078 276.853438 
L 106.707945 276.638057 
L 106.749566 276.422675 
L 106.807036 276.207293 
L 106.87985 275.991912 
L 106.966096 275.77653 
L 107.06277 275.561148 
L 107.166196 275.345766 
L 107.272472 275.130385 
L 107.377883 274.915003 
L 107.479188 274.699621 
L 107.573758 274.48424 
L 107.659582 274.268858 
L 107.735203 274.053476 
L 107.799625 273.838095 
L 107.852259 273.622713 
L 107.892876 273.407331 
L 107.921589 273.191949 
L 107.938821 272.976568 
L 107.94531 272.761186 
L 107.942145 272.545804 
L 107.930853 272.330423 
L 107.913508 272.115041 
L 107.892758 271.899659 
L 107.871718 271.684278 
L 107.853645 271.468896 
L 107.841464 271.253514 
L 107.83723 271.038132 
L 108.17655 271.038132 
L 108.17655 271.038132 
L 108.172316 271.253514 
L 108.160135 271.468896 
L 108.142062 271.684278 
L 108.121022 271.899659 
L 108.100272 272.115041 
L 108.082927 272.330423 
L 108.071635 272.545804 
L 108.06847 272.761186 
L 108.074959 272.976568 
L 108.092191 273.191949 
L 108.120904 273.407331 
L 108.161521 273.622713 
L 108.214155 273.838095 
L 108.278577 274.053476 
L 108.354198 274.268858 
L 108.440022 274.48424 
L 108.534592 274.699621 
L 108.635897 274.915003 
L 108.741308 275.130385 
L 108.847584 275.345766 
L 108.95101 275.561148 
L 109.047684 275.77653 
L 109.13393 275.991912 
L 109.206744 276.207293 
L 109.264213 276.422675 
L 109.305835 276.638057 
L 109.332702 276.853438 
L 109.347529 277.06882 
L 109.354487 277.284202 
L 109.358831 277.499583 
L 109.366338 277.714965 
L 109.382658 277.930347 
L 109.41275 278.145729 
L 109.460609 278.36111 
L 109.529379 278.576492 
L 109.621816 278.791874 
L 109.740791 279.007255 
L 109.889475 279.222637 
L 110.070861 279.438019 
L 110.28656 279.653401 
L 110.535163 279.868782 
L 110.810793 280.084164 
L 111.102513 280.299546 
L 111.395107 280.514927 
L 111.671257 280.730309 
L 111.914668 280.945691 
L 112.113339 281.161072 
L 112.262106 281.376454 
L 112.363767 281.591836 
L 112.428555 281.807218 
L 112.472136 282.022599 
L 112.512658 282.237981 
L 112.567618 282.453363 
L 112.651276 282.668744 
L 112.773267 282.884126 
L 112.938723 283.099508 
L 113.14985 283.314889 
L 113.408445 283.530271 
L 113.718502 283.745653 
L 114.087989 283.961035 
L 114.529093 284.176416 
L 115.056838 284.391798 
L 115.686571 284.60718 
L 116.431307 284.822561 
L 117.29995 285.037943 
L 118.296986 285.253325 
L 119.423559 285.468706 
L 120.679156 285.684088 
L 122.062832 285.89947 
L 123.57307 286.114852 
L 125.205952 286.330233 
L 126.952062 286.545615 
L 128.793068 286.760997 
L 130.69915 286.976378 
L 132.628215 287.19176 
L 134.527355 287.407142 
L 136.336375 287.622524 
L 137.992684 287.837905 
L 139.43646 288.053287 
L 140.614987 288.268669 
L 141.485298 288.48405 
L 142.014905 288.699432 
L 142.181053 288.914814 
L 141.969461 289.130195 
L 141.373637 289.345577 
L 140.395466 289.560959 
L 139.047138 289.776341 
L 137.35372 289.991722 
L 135.355267 290.207104 
L 133.107282 290.422486 
L 130.678759 290.637867 
L 128.147735 290.853249 
L 125.595027 291.068631 
L 123.097426 291.284012 
L 120.721742 291.499394 
L 118.520792 291.714776 
L 116.53177 291.930158 
L 114.776726 292.145539 
L 113.264396 292.360921 
z
" clip-path="url(#pd579e82607)" style="fill: #1f77b4; fill-opacity: 0.3"/>
   </g>
   <g id="PolyCollection_2">
    <path d="M 199.454084 295.488 
L 187.430509 295.488 
L 184.600826 295.287705 
L 181.088585 295.08741 
L 177.029093 294.887115 
L 172.683654 294.68682 
L 168.413103 294.486525 
L 164.620472 294.28623 
L 161.677156 294.085936 
L 159.852935 293.885641 
L 159.268134 293.685346 
L 159.878721 293.485051 
L 161.496465 293.284756 
L 163.838056 293.084461 
L 166.58967 292.884166 
L 169.468496 292.683871 
L 172.263918 292.483576 
L 174.849675 292.283281 
L 177.170598 292.082986 
L 179.216451 291.882691 
L 180.996742 291.682397 
L 182.525297 291.482102 
L 183.816317 291.281807 
L 184.888121 291.081512 
L 185.768132 290.881217 
L 186.49341 290.680922 
L 187.104694 290.480627 
L 187.636997 290.280332 
L 188.112759 290.080037 
L 188.542034 289.879742 
L 188.929029 289.679447 
L 189.279698 289.479152 
L 189.604801 289.278858 
L 189.916815 289.078563 
L 190.223824 288.878268 
L 190.525344 288.677973 
L 190.813121 288.477678 
L 191.076337 288.277383 
L 191.307973 288.077088 
L 191.508686 287.876793 
L 191.686213 287.676498 
L 191.850768 287.476203 
L 192.009043 287.275908 
L 192.160058 287.075613 
L 192.295099 286.875318 
L 192.401783 286.675024 
L 192.470137 286.474729 
L 192.497785 286.274434 
L 192.491998 286.074139 
L 192.46801 285.873844 
L 192.444619 285.673549 
L 192.438948 285.473254 
L 192.462254 285.272959 
L 192.518004 285.072664 
L 192.602446 284.872369 
L 192.707012 284.672074 
L 192.821381 284.471779 
L 192.936074 284.271485 
L 193.043869 284.07119 
L 193.139994 283.870895 
L 193.221573 283.6706 
L 193.286925 283.470305 
L 193.335145 283.27001 
L 193.366034 283.069715 
L 193.380238 282.86942 
L 193.379506 282.669125 
L 193.366972 282.46883 
L 193.347294 282.268535 
L 193.326341 282.06824 
L 193.310179 281.867945 
L 193.303501 281.667651 
L 193.30812 281.467356 
L 193.322297 281.267061 
L 193.341313 281.066766 
L 193.359074 280.866471 
L 193.370058 280.666176 
L 193.370922 280.465881 
L 193.361403 280.265586 
L 193.344367 280.065291 
L 193.325042 279.864996 
L 193.309467 279.664701 
L 193.302516 279.464406 
L 193.30614 279.264112 
L 193.318591 279.063817 
L 193.335032 278.863522 
L 193.34931 278.663227 
L 193.356177 278.462932 
L 193.353112 278.262637 
L 193.341152 278.062342 
L 193.324482 277.862047 
L 193.308882 277.661752 
L 193.299499 277.461457 
L 193.29878 277.261162 
L 193.305465 277.060867 
L 193.315201 276.860573 
L 193.322577 276.660278 
L 193.323681 276.459983 
L 193.317959 276.259688 
L 193.308505 276.059393 
L 193.300665 275.859098 
L 193.299647 275.658803 
L 193.584947 275.658803 
L 193.584947 275.658803 
L 193.583928 275.859098 
L 193.576088 276.059393 
L 193.566634 276.259688 
L 193.560912 276.459983 
L 193.562016 276.660278 
L 193.569393 276.860573 
L 193.579128 277.060867 
L 193.585814 277.261162 
L 193.585095 277.461457 
L 193.575711 277.661752 
L 193.560111 277.862047 
L 193.543442 278.062342 
L 193.531482 278.262637 
L 193.528416 278.462932 
L 193.535284 278.663227 
L 193.549562 278.863522 
L 193.566002 279.063817 
L 193.578453 279.264112 
L 193.582077 279.464406 
L 193.575126 279.664701 
L 193.559551 279.864996 
L 193.540226 280.065291 
L 193.523191 280.265586 
L 193.513671 280.465881 
L 193.514536 280.666176 
L 193.525519 280.866471 
L 193.54328 281.066766 
L 193.562296 281.267061 
L 193.576473 281.467356 
L 193.581092 281.667651 
L 193.574414 281.867945 
L 193.558252 282.06824 
L 193.537299 282.268535 
L 193.517621 282.46883 
L 193.505087 282.669125 
L 193.504355 282.86942 
L 193.518559 283.069715 
L 193.549448 283.27001 
L 193.597669 283.470305 
L 193.66302 283.6706 
L 193.744599 283.870895 
L 193.840725 284.07119 
L 193.948519 284.271485 
L 194.063212 284.471779 
L 194.177581 284.672074 
L 194.282147 284.872369 
L 194.366589 285.072664 
L 194.422339 285.272959 
L 194.445645 285.473254 
L 194.439975 285.673549 
L 194.416584 285.873844 
L 194.392595 286.074139 
L 194.386808 286.274434 
L 194.414456 286.474729 
L 194.48281 286.675024 
L 194.589494 286.875318 
L 194.724536 287.075613 
L 194.87555 287.275908 
L 195.033825 287.476203 
L 195.198381 287.676498 
L 195.375907 287.876793 
L 195.576621 288.077088 
L 195.808256 288.277383 
L 196.071472 288.477678 
L 196.359249 288.677973 
L 196.660769 288.878268 
L 196.967778 289.078563 
L 197.279792 289.278858 
L 197.604895 289.479152 
L 197.955564 289.679447 
L 198.342559 289.879742 
L 198.771834 290.080037 
L 199.247597 290.280332 
L 199.7799 290.480627 
L 200.391184 290.680922 
L 201.116461 290.881217 
L 201.996473 291.081512 
L 203.068276 291.281807 
L 204.359296 291.482102 
L 205.887851 291.682397 
L 207.668143 291.882691 
L 209.713996 292.082986 
L 212.034918 292.283281 
L 214.620675 292.483576 
L 217.416097 292.683871 
L 220.294923 292.884166 
L 223.046537 293.084461 
L 225.388128 293.284756 
L 227.005872 293.485051 
L 227.616459 293.685346 
L 227.031658 293.885641 
L 225.207438 294.085936 
L 222.264121 294.28623 
L 218.47149 294.486525 
L 214.200939 294.68682 
L 209.8555 294.887115 
L 205.796009 295.08741 
L 202.283767 295.287705 
L 199.454084 295.488 
z
" clip-path="url(#pd579e82607)" style="fill: #1f77b4; fill-opacity: 0.3"/>
   </g>
   <g id="PolyCollection_3">
    <path d="M 308.100985 294.79868 
L 249.654422 294.79868 
L 244.703541 292.362007 
L 246.992724 289.925333 
L 254.962724 287.48866 
L 264.25999 285.051986 
L 271.40152 282.615313 
L 275.506152 280.178639 
L 277.403491 277.741966 
L 278.169862 275.305292 
L 278.471456 272.868619 
L 278.593524 270.431945 
L 278.638686 267.995271 
L 278.649344 265.558598 
L 278.64468 263.121924 
L 278.631874 260.685251 
L 278.621604 258.248577 
L 278.631138 255.811904 
L 278.665923 253.37523 
L 278.708115 250.938557 
L 278.732621 248.501883 
L 278.729467 246.06521 
L 278.705679 243.628536 
L 278.672751 241.191863 
L 278.640627 238.755189 
L 278.62076 236.318515 
L 278.625147 233.881842 
L 278.656509 231.445168 
L 278.700405 229.008495 
L 278.731473 226.571821 
L 278.731493 224.135148 
L 278.702989 221.698474 
L 278.665554 219.261801 
L 278.640952 216.825127 
L 278.642822 214.388454 
L 278.674468 211.95178 
L 278.727895 209.515107 
L 278.78565 207.078433 
L 278.830013 204.641759 
L 278.85176 202.205086 
L 278.849438 199.768412 
L 278.824794 197.331739 
L 278.784562 194.895065 
L 278.745447 192.458392 
L 278.729087 190.021718 
L 278.745816 187.585045 
L 278.785305 185.148371 
L 278.826621 182.711698 
L 278.855431 180.275024 
L 278.870051 177.838351 
L 278.875633 175.401677 
L 278.877263 172.965003 
L 278.87763 170.52833 
L 278.877694 168.091656 
L 278.877702 165.654983 
L 278.877703 163.218309 
L 278.877703 160.781636 
L 278.8777 158.344962 
L 278.877675 155.908289 
L 278.877522 153.471615 
L 278.876798 151.034942 
L 278.874182 148.598268 
L 278.867015 146.161595 
L 278.852383 143.724921 
L 278.830892 141.288247 
L 278.81016 138.851574 
L 278.801644 136.4149 
L 278.810857 133.978227 
L 278.831853 131.541553 
L 278.853159 129.10488 
L 278.867449 126.668206 
L 278.87436 124.231533 
L 278.876853 121.794859 
L 278.877534 119.358186 
L 278.877677 116.921512 
L 278.8777 114.484838 
L 278.877703 112.048165 
L 278.877703 109.611491 
L 278.877703 107.174818 
L 278.877703 104.738144 
L 278.877703 102.301471 
L 278.877703 99.864797 
L 278.877703 97.428124 
L 278.877703 94.99145 
L 278.877703 92.554777 
L 278.877703 90.118103 
L 278.877703 87.68143 
L 278.877703 85.244756 
L 278.877703 82.808082 
L 278.877703 80.371409 
L 278.877703 77.934735 
L 278.8777 75.498062 
L 278.877676 73.061388 
L 278.877528 70.624715 
L 278.876826 68.188041 
L 278.874272 65.751368 
L 278.867234 63.314694 
L 278.852773 60.878021 
L 278.831373 58.441347 
L 278.810506 56.004674 
L 278.801639 53.568 
L 278.953767 53.568 
L 278.953767 53.568 
L 278.944901 56.004674 
L 278.924034 58.441347 
L 278.902634 60.878021 
L 278.888173 63.314694 
L 278.881135 65.751368 
L 278.878581 68.188041 
L 278.877879 70.624715 
L 278.877731 73.061388 
L 278.877707 75.498062 
L 278.877704 77.934735 
L 278.877703 80.371409 
L 278.877703 82.808082 
L 278.877703 85.244756 
L 278.877703 87.68143 
L 278.877703 90.118103 
L 278.877703 92.554777 
L 278.877703 94.99145 
L 278.877703 97.428124 
L 278.877703 99.864797 
L 278.877703 102.301471 
L 278.877703 104.738144 
L 278.877703 107.174818 
L 278.877703 109.611491 
L 278.877704 112.048165 
L 278.877707 114.484838 
L 278.87773 116.921512 
L 278.877872 119.358186 
L 278.878554 121.794859 
L 278.881047 124.231533 
L 278.887958 126.668206 
L 278.902248 129.10488 
L 278.923553 131.541553 
L 278.944549 133.978227 
L 278.953763 136.4149 
L 278.945246 138.851574 
L 278.924515 141.288247 
L 278.903024 143.724921 
L 278.888392 146.161595 
L 278.881225 148.598268 
L 278.878609 151.034942 
L 278.877885 153.471615 
L 278.877732 155.908289 
L 278.877707 158.344962 
L 278.877704 160.781636 
L 278.877703 163.218309 
L 278.877704 165.654983 
L 278.877713 168.091656 
L 278.877777 170.52833 
L 278.878144 172.965003 
L 278.879773 175.401677 
L 278.885356 177.838351 
L 278.899975 180.275024 
L 278.928786 182.711698 
L 278.970102 185.148371 
L 279.009591 187.585045 
L 279.02632 190.021718 
L 279.00996 192.458392 
L 278.970844 194.895065 
L 278.930613 197.331739 
L 278.905969 199.768412 
L 278.903646 202.205086 
L 278.925393 204.641759 
L 278.969757 207.078433 
L 279.027512 209.515107 
L 279.080939 211.95178 
L 279.112585 214.388454 
L 279.114455 216.825127 
L 279.089852 219.261801 
L 279.052417 221.698474 
L 279.023914 224.135148 
L 279.023934 226.571821 
L 279.055002 229.008495 
L 279.098898 231.445168 
L 279.130259 233.881842 
L 279.134647 236.318515 
L 279.11478 238.755189 
L 279.082656 241.191863 
L 279.049728 243.628536 
L 279.02594 246.06521 
L 279.022785 248.501883 
L 279.047292 250.938557 
L 279.089484 253.37523 
L 279.124269 255.811904 
L 279.133802 258.248577 
L 279.123533 260.685251 
L 279.110727 263.121924 
L 279.106062 265.558598 
L 279.116721 267.995271 
L 279.161883 270.431945 
L 279.283951 272.868619 
L 279.585545 275.305292 
L 280.351916 277.741966 
L 282.249254 280.178639 
L 286.353886 282.615313 
L 293.495417 285.051986 
L 302.792683 287.48866 
L 310.762683 289.925333 
L 313.051866 292.362007 
L 308.100985 294.79868 
z
" clip-path="url(#pd579e82607)" style="fill: #1f77b4; fill-opacity: 0.3"/>
   </g>
   <g id="PolyCollection_4">
    <path d="M 376.409917 293.66025 
L 352.216303 293.66025 
L 347.929793 293.13252 
L 343.279077 292.604791 
L 338.689868 292.077061 
L 334.665572 291.549332 
L 331.692596 291.021603 
L 330.138947 290.493873 
L 330.176444 289.966144 
L 331.749629 289.438415 
L 334.598529 288.910685 
L 338.324816 288.382956 
L 342.478987 287.855227 
L 346.643575 287.327497 
L 350.493151 286.799768 
L 353.82236 286.272038 
L 356.543653 285.744309 
L 358.663726 285.21658 
L 360.250386 284.68885 
L 361.400275 284.161121 
L 362.214065 283.633392 
L 362.781387 283.105662 
L 363.174335 282.577933 
L 363.446732 282.050204 
L 363.636314 281.522474 
L 363.767915 280.994745 
L 363.856847 280.467015 
L 363.912272 279.939286 
L 363.940363 279.411557 
L 363.946787 278.883827 
L 363.937912 278.356098 
L 363.920463 277.828369 
L 363.900065 277.300639 
L 363.879657 276.77291 
L 363.858848 276.245181 
L 363.834719 275.717451 
L 363.80373 275.189722 
L 363.763771 274.661992 
L 363.715386 274.134263 
L 363.661687 273.606534 
L 363.607248 273.078804 
L 363.556727 272.551075 
L 363.513996 272.023346 
L 363.4821 271.495616 
L 363.463784 270.967887 
L 363.461958 270.440158 
L 363.479482 269.912428 
L 363.518152 269.384699 
L 363.577341 268.85697 
L 363.653076 268.32924 
L 363.738237 267.801511 
L 363.823966 267.273781 
L 363.901768 266.746052 
L 363.965465 266.218323 
L 364.012303 265.690593 
L 364.042985 265.162864 
L 364.060863 264.635135 
L 364.070663 264.107405 
L 364.077099 263.579676 
L 364.083599 263.051947 
L 364.091364 262.524217 
L 364.098987 261.996488 
L 364.102894 261.468758 
L 364.098622 260.941029 
L 364.082649 260.4133 
L 364.054165 259.88557 
L 364.016032 259.357841 
L 363.9744 258.830112 
L 363.936942 258.302382 
L 363.910303 257.774653 
L 363.89785 257.246924 
L 363.898748 256.719194 
L 363.90886 256.191465 
L 363.923059 255.663735 
L 363.937789 255.136006 
L 363.95259 254.608277 
L 363.969881 254.080547 
L 363.993218 253.552818 
L 364.025058 253.025089 
L 364.06517 252.497359 
L 364.110395 251.96963 
L 364.155672 251.441901 
L 364.195661 250.914171 
L 364.226214 250.386442 
L 364.245188 249.858712 
L 364.25258 249.330983 
L 364.250174 248.803254 
L 364.240947 248.275524 
L 364.228358 247.747795 
L 364.215572 247.220066 
L 364.2047 246.692336 
L 364.196294 246.164607 
L 364.189353 245.636878 
L 364.181957 245.109148 
L 364.172351 244.581419 
L 364.160044 244.053689 
L 364.146397 243.52596 
L 364.134396 242.998231 
L 364.127691 242.470501 
L 364.129281 241.942772 
L 364.140432 241.415043 
L 364.485788 241.415043 
L 364.485788 241.415043 
L 364.496939 241.942772 
L 364.498529 242.470501 
L 364.491824 242.998231 
L 364.479824 243.52596 
L 364.466176 244.053689 
L 364.453869 244.581419 
L 364.444263 245.109148 
L 364.436867 245.636878 
L 364.429926 246.164607 
L 364.42152 246.692336 
L 364.410648 247.220066 
L 364.397862 247.747795 
L 364.385274 248.275524 
L 364.376046 248.803254 
L 364.37364 249.330983 
L 364.381033 249.858712 
L 364.400007 250.386442 
L 364.430559 250.914171 
L 364.470548 251.441901 
L 364.515825 251.96963 
L 364.56105 252.497359 
L 364.601162 253.025089 
L 364.633002 253.552818 
L 364.65634 254.080547 
L 364.67363 254.608277 
L 364.688431 255.136006 
L 364.703161 255.663735 
L 364.71736 256.191465 
L 364.727472 256.719194 
L 364.72837 257.246924 
L 364.715917 257.774653 
L 364.689279 258.302382 
L 364.65182 258.830112 
L 364.610188 259.357841 
L 364.572055 259.88557 
L 364.543571 260.4133 
L 364.527598 260.941029 
L 364.523326 261.468758 
L 364.527233 261.996488 
L 364.534857 262.524217 
L 364.542621 263.051947 
L 364.549121 263.579676 
L 364.555557 264.107405 
L 364.565357 264.635135 
L 364.583235 265.162864 
L 364.613917 265.690593 
L 364.660755 266.218323 
L 364.724452 266.746052 
L 364.802255 267.273781 
L 364.887983 267.801511 
L 364.973144 268.32924 
L 365.048879 268.85697 
L 365.108068 269.384699 
L 365.146738 269.912428 
L 365.164262 270.440158 
L 365.162436 270.967887 
L 365.144121 271.495616 
L 365.112224 272.023346 
L 365.069493 272.551075 
L 365.018972 273.078804 
L 364.964533 273.606534 
L 364.910834 274.134263 
L 364.862449 274.661992 
L 364.82249 275.189722 
L 364.791501 275.717451 
L 364.767372 276.245181 
L 364.746563 276.77291 
L 364.726155 277.300639 
L 364.705757 277.828369 
L 364.688308 278.356098 
L 364.679433 278.883827 
L 364.685857 279.411557 
L 364.713948 279.939286 
L 364.769373 280.467015 
L 364.858305 280.994745 
L 364.989906 281.522474 
L 365.179488 282.050204 
L 365.451885 282.577933 
L 365.844833 283.105662 
L 366.412155 283.633392 
L 367.225945 284.161121 
L 368.375834 284.68885 
L 369.962494 285.21658 
L 372.082567 285.744309 
L 374.80386 286.272038 
L 378.133069 286.799768 
L 381.982645 287.327497 
L 386.147233 287.855227 
L 390.301404 288.382956 
L 394.027691 288.910685 
L 396.876591 289.438415 
L 398.449776 289.966144 
L 398.487273 290.493873 
L 396.933625 291.021603 
L 393.960648 291.549332 
L 389.936352 292.077061 
L 385.347143 292.604791 
L 380.696427 293.13252 
L 376.409917 293.66025 
z
" clip-path="url(#pd579e82607)" style="fill: #1f77b4; fill-opacity: 0.3"/>
   </g>
   <g id="matplotlib.axis_1">
    <g id="xtick_1">
     <g id="line2d_1">
      <path d="M 65.289187 307.584 
L 65.289187 41.472 
" clip-path="url(#pd579e82607)" style="fill: none; stroke-dasharray: 2.96,1.28; stroke-dashoffset: 0; stroke: #b0b0b0; stroke-width: 0.8"/>
     </g>
     <g id="line2d_2">
      <defs>
       <path id="m23f1ab25ff" d="M 0 0 
L 0 3.5 
" style="stroke: #000000; stroke-width: 0.8"/>
      </defs>
      <g>
       <use xlink:href="#m23f1ab25ff" x="65.289187" y="307.584" style="stroke: #000000; stroke-width: 0.8"/>
      </g>
     </g>
     <g id="text_1">
      <!-- 250 -->
      <g transform="translate(55.745437 322.182437)scale(0.1 -0.1)">
       <defs>
        <path id="DejaVuSans-32" d="M 1228 531 
L 3431 531 
L 3431 0 
L 469 0 
L 469 531 
Q 828 903 1448 1529 
Q 2069 2156 2228 2338 
Q 2531 2678 2651 2914 
Q 2772 3150 2772 3378 
Q 2772 3750 2511 3984 
Q 2250 4219 1831 4219 
Q 1534 4219 1204 4116 
Q 875 4013 500 3803 
L 500 4441 
Q 881 4594 1212 4672 
Q 1544 4750 1819 4750 
Q 2544 4750 2975 4387 
Q 3406 4025 3406 3419 
Q 3406 3131 3298 2873 
Q 3191 2616 2906 2266 
Q 2828 2175 2409 1742 
Q 1991 1309 1228 531 
z
" transform="scale(0.015625)"/>
        <path id="DejaVuSans-35" d="M 691 4666 
L 3169 4666 
L 3169 4134 
L 1269 4134 
L 1269 2991 
Q 1406 3038 1543 3061 
Q 1681 3084 1819 3084 
Q 2600 3084 3056 2656 
Q 3513 2228 3513 1497 
Q 3513 744 3044 326 
Q 2575 -91 1722 -91 
Q 1428 -91 1123 -41 
Q 819 9 494 109 
L 494 744 
Q 775 591 1075 516 
Q 1375 441 1709 441 
Q 2250 441 2565 725 
Q 2881 1009 2881 1497 
Q 2881 1984 2565 2268 
Q 2250 2553 1709 2553 
Q 1456 2553 1204 2497 
Q 953 2441 691 2322 
L 691 4666 
z
" transform="scale(0.015625)"/>
        <path id="DejaVuSans-30" d="M 2034 4250 
Q 1547 4250 1301 3770 
Q 1056 3291 1056 2328 
Q 1056 1369 1301 889 
Q 1547 409 2034 409 
Q 2525 409 2770 889 
Q 3016 1369 3016 2328 
Q 3016 3291 2770 3770 
Q 2525 4250 2034 4250 
z
M 2034 4750 
Q 2819 4750 3233 4129 
Q 3647 3509 3647 2328 
Q 3647 1150 3233 529 
Q 2819 -91 2034 -91 
Q 1250 -91 836 529 
Q 422 1150 422 2328 
Q 422 3509 836 4129 
Q 1250 4750 2034 4750 
z
" transform="scale(0.015625)"/>
       </defs>
       <use xlink:href="#DejaVuSans-32"/>
       <use xlink:href="#DejaVuSans-35" x="63.623047"/>
       <use xlink:href="#DejaVuSans-30" x="127.246094"/>
      </g>
     </g>
    </g>
    <g id="xtick_2">
     <g id="line2d_3">
      <path d="M 108.00689 307.584 
L 108.00689 41.472 
" clip-path="url(#pd579e82607)" style="fill: none; stroke-dasharray: 2.96,1.28; stroke-dashoffset: 0; stroke: #b0b0b0; stroke-width: 0.8"/>
     </g>
     <g id="line2d_4">
      <g>
       <use xlink:href="#m23f1ab25ff" x="108.00689" y="307.584" style="stroke: #000000; stroke-width: 0.8"/>
      </g>
     </g>
     <g id="text_2">
      <!-- 500 -->
      <g transform="translate(98.46314 322.182437)scale(0.1 -0.1)">
       <use xlink:href="#DejaVuSans-35"/>
       <use xlink:href="#DejaVuSans-30" x="63.623047"/>
       <use xlink:href="#DejaVuSans-30" x="127.246094"/>
      </g>
     </g>
    </g>
    <g id="xtick_3">
     <g id="line2d_5">
      <path d="M 150.724593 307.584 
L 150.724593 41.472 
" clip-path="url(#pd579e82607)" style="fill: none; stroke-dasharray: 2.96,1.28; stroke-dashoffset: 0; stroke: #b0b0b0; stroke-width: 0.8"/>
     </g>
     <g id="line2d_6">
      <g>
       <use xlink:href="#m23f1ab25ff" x="150.724593" y="307.584" style="stroke: #000000; stroke-width: 0.8"/>
      </g>
     </g>
     <g id="text_3">
      <!-- 750 -->
      <g transform="translate(141.180843 322.182437)scale(0.1 -0.1)">
       <defs>
        <path id="DejaVuSans-37" d="M 525 4666 
L 3525 4666 
L 3525 4397 
L 1831 0 
L 1172 0 
L 2766 4134 
L 525 4134 
L 525 4666 
z
" transform="scale(0.015625)"/>
       </defs>
       <use xlink:href="#DejaVuSans-37"/>
       <use xlink:href="#DejaVuSans-35" x="63.623047"/>
       <use xlink:href="#DejaVuSans-30" x="127.246094"/>
      </g>
     </g>
    </g>
    <g id="xtick_4">
     <g id="line2d_7">
      <path d="M 193.442297 307.584 
L 193.442297 41.472 
" clip-path="url(#pd579e82607)" style="fill: none; stroke-dasharray: 2.96,1.28; stroke-dashoffset: 0; stroke: #b0b0b0; stroke-width: 0.8"/>
     </g>
     <g id="line2d_8">
      <g>
       <use xlink:href="#m23f1ab25ff" x="193.442297" y="307.584" style="stroke: #000000; stroke-width: 0.8"/>
      </g>
     </g>
     <g id="text_4">
      <!-- 1000 -->
      <g transform="translate(180.717297 322.182437)scale(0.1 -0.1)">
       <defs>
        <path id="DejaVuSans-31" d="M 794 531 
L 1825 531 
L 1825 4091 
L 703 3866 
L 703 4441 
L 1819 4666 
L 2450 4666 
L 2450 531 
L 3481 531 
L 3481 0 
L 794 0 
L 794 531 
z
" transform="scale(0.015625)"/>
       </defs>
       <use xlink:href="#DejaVuSans-31"/>
       <use xlink:href="#DejaVuSans-30" x="63.623047"/>
       <use xlink:href="#DejaVuSans-30" x="127.246094"/>
       <use xlink:href="#DejaVuSans-30" x="190.869141"/>
      </g>
     </g>
    </g>
    <g id="xtick_5">
     <g id="line2d_9">
      <path d="M 236.16 307.584 
L 236.16 41.472 
" clip-path="url(#pd579e82607)" style="fill: none; stroke-dasharray: 2.96,1.28; stroke-dashoffset: 0; stroke: #b0b0b0; stroke-width: 0.8"/>
     </g>
     <g id="line2d_10">
      <g>
       <use xlink:href="#m23f1ab25ff" x="236.16" y="307.584" style="stroke: #000000; stroke-width: 0.8"/>
      </g>
     </g>
     <g id="text_5">
      <!-- 1250 -->
      <g transform="translate(223.435 322.182437)scale(0.1 -0.1)">
       <use xlink:href="#DejaVuSans-31"/>
       <use xlink:href="#DejaVuSans-32" x="63.623047"/>
       <use xlink:href="#DejaVuSans-35" x="127.246094"/>
       <use xlink:href="#DejaVuSans-30" x="190.869141"/>
      </g>
     </g>
    </g>
    <g id="xtick_6">
     <g id="line2d_11">
      <path d="M 278.877703 307.584 
L 278.877703 41.472 
" clip-path="url(#pd579e82607)" style="fill: none; stroke-dasharray: 2.96,1.28; stroke-dashoffset: 0; stroke: #b0b0b0; stroke-width: 0.8"/>
     </g>
     <g id="line2d_12">
      <g>
       <use xlink:href="#m23f1ab25ff" x="278.877703" y="307.584" style="stroke: #000000; stroke-width: 0.8"/>
      </g>
     </g>
     <g id="text_6">
      <!-- 1500 -->
      <g transform="translate(266.152703 322.182437)scale(0.1 -0.1)">
       <use xlink:href="#DejaVuSans-31"/>
       <use xlink:href="#DejaVuSans-35" x="63.623047"/>
       <use xlink:href="#DejaVuSans-30" x="127.246094"/>
       <use xlink:href="#DejaVuSans-30" x="190.869141"/>
      </g>
     </g>
    </g>
    <g id="xtick_7">
     <g id="line2d_13">
      <path d="M 321.595407 307.584 
L 321.595407 41.472 
" clip-path="url(#pd579e82607)" style="fill: none; stroke-dasharray: 2.96,1.28; stroke-dashoffset: 0; stroke: #b0b0b0; stroke-width: 0.8"/>
     </g>
     <g id="line2d_14">
      <g>
       <use xlink:href="#m23f1ab25ff" x="321.595407" y="307.584" style="stroke: #000000; stroke-width: 0.8"/>
      </g>
     </g>
     <g id="text_7">
      <!-- 1750 -->
      <g transform="translate(308.870407 322.182437)scale(0.1 -0.1)">
       <use xlink:href="#DejaVuSans-31"/>
       <use xlink:href="#DejaVuSans-37" x="63.623047"/>
       <use xlink:href="#DejaVuSans-35" x="127.246094"/>
       <use xlink:href="#DejaVuSans-30" x="190.869141"/>
      </g>
     </g>
    </g>
    <g id="xtick_8">
     <g id="line2d_15">
      <path d="M 364.31311 307.584 
L 364.31311 41.472 
" clip-path="url(#pd579e82607)" style="fill: none; stroke-dasharray: 2.96,1.28; stroke-dashoffset: 0; stroke: #b0b0b0; stroke-width: 0.8"/>
     </g>
     <g id="line2d_16">
      <g>
       <use xlink:href="#m23f1ab25ff" x="364.31311" y="307.584" style="stroke: #000000; stroke-width: 0.8"/>
      </g>
     </g>
     <g id="text_8">
      <!-- 2000 -->
      <g transform="translate(351.58811 322.182437)scale(0.1 -0.1)">
       <use xlink:href="#DejaVuSans-32"/>
       <use xlink:href="#DejaVuSans-30" x="63.623047"/>
       <use xlink:href="#DejaVuSans-30" x="127.246094"/>
       <use xlink:href="#DejaVuSans-30" x="190.869141"/>
      </g>
     </g>
    </g>
    <g id="xtick_9">
     <g id="line2d_17">
      <path d="M 407.030813 307.584 
L 407.030813 41.472 
" clip-path="url(#pd579e82607)" style="fill: none; stroke-dasharray: 2.96,1.28; stroke-dashoffset: 0; stroke: #b0b0b0; stroke-width: 0.8"/>
     </g>
     <g id="line2d_18">
      <g>
       <use xlink:href="#m23f1ab25ff" x="407.030813" y="307.584" style="stroke: #000000; stroke-width: 0.8"/>
      </g>
     </g>
     <g id="text_9">
      <!-- 2250 -->
      <g transform="translate(394.305813 322.182437)scale(0.1 -0.1)">
       <use xlink:href="#DejaVuSans-32"/>
       <use xlink:href="#DejaVuSans-32" x="63.623047"/>
       <use xlink:href="#DejaVuSans-35" x="127.246094"/>
       <use xlink:href="#DejaVuSans-30" x="190.869141"/>
      </g>
     </g>
    </g>
    <g id="text_10">
     <!-- Learned Episodes -->
     <g transform="translate(192.102187 335.860562)scale(0.1 -0.1)">
      <defs>
       <path id="DejaVuSans-4c" d="M 628 4666 
L 1259 4666 
L 1259 531 
L 3531 531 
L 3531 0 
L 628 0 
L 628 4666 
z
" transform="scale(0.015625)"/>
       <path id="DejaVuSans-65" d="M 3597 1894 
L 3597 1613 
L 953 1613 
Q 991 1019 1311 708 
Q 1631 397 2203 397 
Q 2534 397 2845 478 
Q 3156 559 3463 722 
L 3463 178 
Q 3153 47 2828 -22 
Q 2503 -91 2169 -91 
Q 1331 -91 842 396 
Q 353 884 353 1716 
Q 353 2575 817 3079 
Q 1281 3584 2069 3584 
Q 2775 3584 3186 3129 
Q 3597 2675 3597 1894 
z
M 3022 2063 
Q 3016 2534 2758 2815 
Q 2500 3097 2075 3097 
Q 1594 3097 1305 2825 
Q 1016 2553 972 2059 
L 3022 2063 
z
" transform="scale(0.015625)"/>
       <path id="DejaVuSans-61" d="M 2194 1759 
Q 1497 1759 1228 1600 
Q 959 1441 959 1056 
Q 959 750 1161 570 
Q 1363 391 1709 391 
Q 2188 391 2477 730 
Q 2766 1069 2766 1631 
L 2766 1759 
L 2194 1759 
z
M 3341 1997 
L 3341 0 
L 2766 0 
L 2766 531 
Q 2569 213 2275 61 
Q 1981 -91 1556 -91 
Q 1019 -91 701 211 
Q 384 513 384 1019 
Q 384 1609 779 1909 
Q 1175 2209 1959 2209 
L 2766 2209 
L 2766 2266 
Q 2766 2663 2505 2880 
Q 2244 3097 1772 3097 
Q 1472 3097 1187 3025 
Q 903 2953 641 2809 
L 641 3341 
Q 956 3463 1253 3523 
Q 1550 3584 1831 3584 
Q 2591 3584 2966 3190 
Q 3341 2797 3341 1997 
z
" transform="scale(0.015625)"/>
       <path id="DejaVuSans-72" d="M 2631 2963 
Q 2534 3019 2420 3045 
Q 2306 3072 2169 3072 
Q 1681 3072 1420 2755 
Q 1159 2438 1159 1844 
L 1159 0 
L 581 0 
L 581 3500 
L 1159 3500 
L 1159 2956 
Q 1341 3275 1631 3429 
Q 1922 3584 2338 3584 
Q 2397 3584 2469 3576 
Q 2541 3569 2628 3553 
L 2631 2963 
z
" transform="scale(0.015625)"/>
       <path id="DejaVuSans-6e" d="M 3513 2113 
L 3513 0 
L 2938 0 
L 2938 2094 
Q 2938 2591 2744 2837 
Q 2550 3084 2163 3084 
Q 1697 3084 1428 2787 
Q 1159 2491 1159 1978 
L 1159 0 
L 581 0 
L 581 3500 
L 1159 3500 
L 1159 2956 
Q 1366 3272 1645 3428 
Q 1925 3584 2291 3584 
Q 2894 3584 3203 3211 
Q 3513 2838 3513 2113 
z
" transform="scale(0.015625)"/>
       <path id="DejaVuSans-64" d="M 2906 2969 
L 2906 4863 
L 3481 4863 
L 3481 0 
L 2906 0 
L 2906 525 
Q 2725 213 2448 61 
Q 2172 -91 1784 -91 
Q 1150 -91 751 415 
Q 353 922 353 1747 
Q 353 2572 751 3078 
Q 1150 3584 1784 3584 
Q 2172 3584 2448 3432 
Q 2725 3281 2906 2969 
z
M 947 1747 
Q 947 1113 1208 752 
Q 1469 391 1925 391 
Q 2381 391 2643 752 
Q 2906 1113 2906 1747 
Q 2906 2381 2643 2742 
Q 2381 3103 1925 3103 
Q 1469 3103 1208 2742 
Q 947 2381 947 1747 
z
" transform="scale(0.015625)"/>
       <path id="DejaVuSans-20" transform="scale(0.015625)"/>
       <path id="DejaVuSans-45" d="M 628 4666 
L 3578 4666 
L 3578 4134 
L 1259 4134 
L 1259 2753 
L 3481 2753 
L 3481 2222 
L 1259 2222 
L 1259 531 
L 3634 531 
L 3634 0 
L 628 0 
L 628 4666 
z
" transform="scale(0.015625)"/>
       <path id="DejaVuSans-70" d="M 1159 525 
L 1159 -1331 
L 581 -1331 
L 581 3500 
L 1159 3500 
L 1159 2969 
Q 1341 3281 1617 3432 
Q 1894 3584 2278 3584 
Q 2916 3584 3314 3078 
Q 3713 2572 3713 1747 
Q 3713 922 3314 415 
Q 2916 -91 2278 -91 
Q 1894 -91 1617 61 
Q 1341 213 1159 525 
z
M 3116 1747 
Q 3116 2381 2855 2742 
Q 2594 3103 2138 3103 
Q 1681 3103 1420 2742 
Q 1159 2381 1159 1747 
Q 1159 1113 1420 752 
Q 1681 391 2138 391 
Q 2594 391 2855 752 
Q 3116 1113 3116 1747 
z
" transform="scale(0.015625)"/>
       <path id="DejaVuSans-69" d="M 603 3500 
L 1178 3500 
L 1178 0 
L 603 0 
L 603 3500 
z
M 603 4863 
L 1178 4863 
L 1178 4134 
L 603 4134 
L 603 4863 
z
" transform="scale(0.015625)"/>
       <path id="DejaVuSans-73" d="M 2834 3397 
L 2834 2853 
Q 2591 2978 2328 3040 
Q 2066 3103 1784 3103 
Q 1356 3103 1142 2972 
Q 928 2841 928 2578 
Q 928 2378 1081 2264 
Q 1234 2150 1697 2047 
L 1894 2003 
Q 2506 1872 2764 1633 
Q 3022 1394 3022 966 
Q 3022 478 2636 193 
Q 2250 -91 1575 -91 
Q 1294 -91 989 -36 
Q 684 19 347 128 
L 347 722 
Q 666 556 975 473 
Q 1284 391 1588 391 
Q 1994 391 2212 530 
Q 2431 669 2431 922 
Q 2431 1156 2273 1281 
Q 2116 1406 1581 1522 
L 1381 1569 
Q 847 1681 609 1914 
Q 372 2147 372 2553 
Q 372 3047 722 3315 
Q 1072 3584 1716 3584 
Q 2034 3584 2315 3537 
Q 2597 3491 2834 3397 
z
" transform="scale(0.015625)"/>
       <path id="DejaVuSans-6f" d="M 1959 3097 
Q 1497 3097 1228 2736 
Q 959 2375 959 1747 
Q 959 1119 1226 758 
Q 1494 397 1959 397 
Q 2419 397 2687 759 
Q 2956 1122 2956 1747 
Q 2956 2369 2687 2733 
Q 2419 3097 1959 3097 
z
M 1959 3584 
Q 2709 3584 3137 3096 
Q 3566 2609 3566 1747 
Q 3566 888 3137 398 
Q 2709 -91 1959 -91 
Q 1206 -91 779 398 
Q 353 888 353 1747 
Q 353 2609 779 3096 
Q 1206 3584 1959 3584 
z
" transform="scale(0.015625)"/>
      </defs>
      <use xlink:href="#DejaVuSans-4c"/>
      <use xlink:href="#DejaVuSans-65" x="53.962891"/>
      <use xlink:href="#DejaVuSans-61" x="115.486328"/>
      <use xlink:href="#DejaVuSans-72" x="176.765625"/>
      <use xlink:href="#DejaVuSans-6e" x="216.128906"/>
      <use xlink:href="#DejaVuSans-65" x="279.507812"/>
      <use xlink:href="#DejaVuSans-64" x="341.03125"/>
      <use xlink:href="#DejaVuSans-20" x="404.507812"/>
      <use xlink:href="#DejaVuSans-45" x="436.294922"/>
      <use xlink:href="#DejaVuSans-70" x="499.478516"/>
      <use xlink:href="#DejaVuSans-69" x="562.955078"/>
      <use xlink:href="#DejaVuSans-73" x="590.738281"/>
      <use xlink:href="#DejaVuSans-6f" x="642.837891"/>
      <use xlink:href="#DejaVuSans-64" x="704.019531"/>
      <use xlink:href="#DejaVuSans-65" x="767.496094"/>
      <use xlink:href="#DejaVuSans-73" x="829.019531"/>
     </g>
    </g>
   </g>
   <g id="matplotlib.axis_2">
    <g id="ytick_1">
     <g id="line2d_19">
      <path d="M 57.6 297.812018 
L 414.72 297.812018 
" clip-path="url(#pd579e82607)" style="fill: none; stroke-dasharray: 2.96,1.28; stroke-dashoffset: 0; stroke: #b0b0b0; stroke-width: 0.8"/>
     </g>
     <g id="line2d_20">
      <defs>
       <path id="m2e78fe41ac" d="M 0 0 
L -3.5 0 
" style="stroke: #000000; stroke-width: 0.8"/>
      </defs>
      <g>
       <use xlink:href="#m2e78fe41ac" x="57.6" y="297.812018" style="stroke: #000000; stroke-width: 0.8"/>
      </g>
     </g>
     <g id="text_11">
      <!-- 0 -->
      <g transform="translate(44.2375 301.611237)scale(0.1 -0.1)">
       <use xlink:href="#DejaVuSans-30"/>
      </g>
     </g>
    </g>
    <g id="ytick_2">
     <g id="line2d_21">
      <path d="M 57.6 261.962435 
L 414.72 261.962435 
" clip-path="url(#pd579e82607)" style="fill: none; stroke-dasharray: 2.96,1.28; stroke-dashoffset: 0; stroke: #b0b0b0; stroke-width: 0.8"/>
     </g>
     <g id="line2d_22">
      <g>
       <use xlink:href="#m2e78fe41ac" x="57.6" y="261.962435" style="stroke: #000000; stroke-width: 0.8"/>
      </g>
     </g>
     <g id="text_12">
      <!-- 1 -->
      <g transform="translate(44.2375 265.761653)scale(0.1 -0.1)">
       <use xlink:href="#DejaVuSans-31"/>
      </g>
     </g>
    </g>
    <g id="ytick_3">
     <g id="line2d_23">
      <path d="M 57.6 226.112851 
L 414.72 226.112851 
" clip-path="url(#pd579e82607)" style="fill: none; stroke-dasharray: 2.96,1.28; stroke-dashoffset: 0; stroke: #b0b0b0; stroke-width: 0.8"/>
     </g>
     <g id="line2d_24">
      <g>
       <use xlink:href="#m2e78fe41ac" x="57.6" y="226.112851" style="stroke: #000000; stroke-width: 0.8"/>
      </g>
     </g>
     <g id="text_13">
      <!-- 2 -->
      <g transform="translate(44.2375 229.91207)scale(0.1 -0.1)">
       <use xlink:href="#DejaVuSans-32"/>
      </g>
     </g>
    </g>
    <g id="ytick_4">
     <g id="line2d_25">
      <path d="M 57.6 190.263268 
L 414.72 190.263268 
" clip-path="url(#pd579e82607)" style="fill: none; stroke-dasharray: 2.96,1.28; stroke-dashoffset: 0; stroke: #b0b0b0; stroke-width: 0.8"/>
     </g>
     <g id="line2d_26">
      <g>
       <use xlink:href="#m2e78fe41ac" x="57.6" y="190.263268" style="stroke: #000000; stroke-width: 0.8"/>
      </g>
     </g>
     <g id="text_14">
      <!-- 3 -->
      <g transform="translate(44.2375 194.062486)scale(0.1 -0.1)">
       <defs>
        <path id="DejaVuSans-33" d="M 2597 2516 
Q 3050 2419 3304 2112 
Q 3559 1806 3559 1356 
Q 3559 666 3084 287 
Q 2609 -91 1734 -91 
Q 1441 -91 1130 -33 
Q 819 25 488 141 
L 488 750 
Q 750 597 1062 519 
Q 1375 441 1716 441 
Q 2309 441 2620 675 
Q 2931 909 2931 1356 
Q 2931 1769 2642 2001 
Q 2353 2234 1838 2234 
L 1294 2234 
L 1294 2753 
L 1863 2753 
Q 2328 2753 2575 2939 
Q 2822 3125 2822 3475 
Q 2822 3834 2567 4026 
Q 2313 4219 1838 4219 
Q 1578 4219 1281 4162 
Q 984 4106 628 3988 
L 628 4550 
Q 988 4650 1302 4700 
Q 1616 4750 1894 4750 
Q 2613 4750 3031 4423 
Q 3450 4097 3450 3541 
Q 3450 3153 3228 2886 
Q 3006 2619 2597 2516 
z
" transform="scale(0.015625)"/>
       </defs>
       <use xlink:href="#DejaVuSans-33"/>
      </g>
     </g>
    </g>
    <g id="ytick_5">
     <g id="line2d_27">
      <path d="M 57.6 154.413684 
L 414.72 154.413684 
" clip-path="url(#pd579e82607)" style="fill: none; stroke-dasharray: 2.96,1.28; stroke-dashoffset: 0; stroke: #b0b0b0; stroke-width: 0.8"/>
     </g>
     <g id="line2d_28">
      <g>
       <use xlink:href="#m2e78fe41ac" x="57.6" y="154.413684" style="stroke: #000000; stroke-width: 0.8"/>
      </g>
     </g>
     <g id="text_15">
      <!-- 4 -->
      <g transform="translate(44.2375 158.212903)scale(0.1 -0.1)">
       <defs>
        <path id="DejaVuSans-34" d="M 2419 4116 
L 825 1625 
L 2419 1625 
L 2419 4116 
z
M 2253 4666 
L 3047 4666 
L 3047 1625 
L 3713 1625 
L 3713 1100 
L 3047 1100 
L 3047 0 
L 2419 0 
L 2419 1100 
L 313 1100 
L 313 1709 
L 2253 4666 
z
" transform="scale(0.015625)"/>
       </defs>
       <use xlink:href="#DejaVuSans-34"/>
      </g>
     </g>
    </g>
    <g id="ytick_6">
     <g id="line2d_29">
      <path d="M 57.6 118.5641 
L 414.72 118.5641 
" clip-path="url(#pd579e82607)" style="fill: none; stroke-dasharray: 2.96,1.28; stroke-dashoffset: 0; stroke: #b0b0b0; stroke-width: 0.8"/>
     </g>
     <g id="line2d_30">
      <g>
       <use xlink:href="#m2e78fe41ac" x="57.6" y="118.5641" style="stroke: #000000; stroke-width: 0.8"/>
      </g>
     </g>
     <g id="text_16">
      <!-- 5 -->
      <g transform="translate(44.2375 122.363319)scale(0.1 -0.1)">
       <use xlink:href="#DejaVuSans-35"/>
      </g>
     </g>
    </g>
    <g id="ytick_7">
     <g id="line2d_31">
      <path d="M 57.6 82.714517 
L 414.72 82.714517 
" clip-path="url(#pd579e82607)" style="fill: none; stroke-dasharray: 2.96,1.28; stroke-dashoffset: 0; stroke: #b0b0b0; stroke-width: 0.8"/>
     </g>
     <g id="line2d_32">
      <g>
       <use xlink:href="#m2e78fe41ac" x="57.6" y="82.714517" style="stroke: #000000; stroke-width: 0.8"/>
      </g>
     </g>
     <g id="text_17">
      <!-- 6 -->
      <g transform="translate(44.2375 86.513735)scale(0.1 -0.1)">
       <defs>
        <path id="DejaVuSans-36" d="M 2113 2584 
Q 1688 2584 1439 2293 
Q 1191 2003 1191 1497 
Q 1191 994 1439 701 
Q 1688 409 2113 409 
Q 2538 409 2786 701 
Q 3034 994 3034 1497 
Q 3034 2003 2786 2293 
Q 2538 2584 2113 2584 
z
M 3366 4563 
L 3366 3988 
Q 3128 4100 2886 4159 
Q 2644 4219 2406 4219 
Q 1781 4219 1451 3797 
Q 1122 3375 1075 2522 
Q 1259 2794 1537 2939 
Q 1816 3084 2150 3084 
Q 2853 3084 3261 2657 
Q 3669 2231 3669 1497 
Q 3669 778 3244 343 
Q 2819 -91 2113 -91 
Q 1303 -91 875 529 
Q 447 1150 447 2328 
Q 447 3434 972 4092 
Q 1497 4750 2381 4750 
Q 2619 4750 2861 4703 
Q 3103 4656 3366 4563 
z
" transform="scale(0.015625)"/>
       </defs>
       <use xlink:href="#DejaVuSans-36"/>
      </g>
     </g>
    </g>
    <g id="ytick_8">
     <g id="line2d_33">
      <path d="M 57.6 46.864933 
L 414.72 46.864933 
" clip-path="url(#pd579e82607)" style="fill: none; stroke-dasharray: 2.96,1.28; stroke-dashoffset: 0; stroke: #b0b0b0; stroke-width: 0.8"/>
     </g>
     <g id="line2d_34">
      <g>
       <use xlink:href="#m2e78fe41ac" x="57.6" y="46.864933" style="stroke: #000000; stroke-width: 0.8"/>
      </g>
     </g>
     <g id="text_18">
      <!-- 7 -->
      <g transform="translate(44.2375 50.664152)scale(0.1 -0.1)">
       <use xlink:href="#DejaVuSans-37"/>
      </g>
     </g>
    </g>
    <g id="text_19">
     <!-- Reward Density -->
     <g transform="translate(38.157812 213.74675)rotate(-90)scale(0.1 -0.1)">
      <defs>
       <path id="DejaVuSans-52" d="M 2841 2188 
Q 3044 2119 3236 1894 
Q 3428 1669 3622 1275 
L 4263 0 
L 3584 0 
L 2988 1197 
Q 2756 1666 2539 1819 
Q 2322 1972 1947 1972 
L 1259 1972 
L 1259 0 
L 628 0 
L 628 4666 
L 2053 4666 
Q 2853 4666 3247 4331 
Q 3641 3997 3641 3322 
Q 3641 2881 3436 2590 
Q 3231 2300 2841 2188 
z
M 1259 4147 
L 1259 2491 
L 2053 2491 
Q 2509 2491 2742 2702 
Q 2975 2913 2975 3322 
Q 2975 3731 2742 3939 
Q 2509 4147 2053 4147 
L 1259 4147 
z
" transform="scale(0.015625)"/>
       <path id="DejaVuSans-77" d="M 269 3500 
L 844 3500 
L 1563 769 
L 2278 3500 
L 2956 3500 
L 3675 769 
L 4391 3500 
L 4966 3500 
L 4050 0 
L 3372 0 
L 2619 2869 
L 1863 0 
L 1184 0 
L 269 3500 
z
" transform="scale(0.015625)"/>
       <path id="DejaVuSans-44" d="M 1259 4147 
L 1259 519 
L 2022 519 
Q 2988 519 3436 956 
Q 3884 1394 3884 2338 
Q 3884 3275 3436 3711 
Q 2988 4147 2022 4147 
L 1259 4147 
z
M 628 4666 
L 1925 4666 
Q 3281 4666 3915 4102 
Q 4550 3538 4550 2338 
Q 4550 1131 3912 565 
Q 3275 0 1925 0 
L 628 0 
L 628 4666 
z
" transform="scale(0.015625)"/>
       <path id="DejaVuSans-74" d="M 1172 4494 
L 1172 3500 
L 2356 3500 
L 2356 3053 
L 1172 3053 
L 1172 1153 
Q 1172 725 1289 603 
Q 1406 481 1766 481 
L 2356 481 
L 2356 0 
L 1766 0 
Q 1100 0 847 248 
Q 594 497 594 1153 
L 594 3053 
L 172 3053 
L 172 3500 
L 594 3500 
L 594 4494 
L 1172 4494 
z
" transform="scale(0.015625)"/>
       <path id="DejaVuSans-79" d="M 2059 -325 
Q 1816 -950 1584 -1140 
Q 1353 -1331 966 -1331 
L 506 -1331 
L 506 -850 
L 844 -850 
Q 1081 -850 1212 -737 
Q 1344 -625 1503 -206 
L 1606 56 
L 191 3500 
L 800 3500 
L 1894 763 
L 2988 3500 
L 3597 3500 
L 2059 -325 
z
" transform="scale(0.015625)"/>
      </defs>
      <use xlink:href="#DejaVuSans-52"/>
      <use xlink:href="#DejaVuSans-65" x="64.982422"/>
      <use xlink:href="#DejaVuSans-77" x="126.505859"/>
      <use xlink:href="#DejaVuSans-61" x="208.292969"/>
      <use xlink:href="#DejaVuSans-72" x="269.572266"/>
      <use xlink:href="#DejaVuSans-64" x="308.935547"/>
      <use xlink:href="#DejaVuSans-20" x="372.412109"/>
      <use xlink:href="#DejaVuSans-44" x="404.199219"/>
      <use xlink:href="#DejaVuSans-65" x="481.201172"/>
      <use xlink:href="#DejaVuSans-6e" x="542.724609"/>
      <use xlink:href="#DejaVuSans-73" x="606.103516"/>
      <use xlink:href="#DejaVuSans-69" x="658.203125"/>
      <use xlink:href="#DejaVuSans-74" x="685.986328"/>
      <use xlink:href="#DejaVuSans-79" x="725.195312"/>
     </g>
    </g>
   </g>
   <g id="LineCollection_1">
    <path d="M 90.919809 287.547905 
L 125.093971 287.547905 
" clip-path="url(#pd579e82607)" style="fill: none; stroke: #1f77b4; stroke-width: 1.5"/>
    <path d="M 176.355215 292.627092 
L 210.529378 292.627092 
" clip-path="url(#pd579e82607)" style="fill: none; stroke: #1f77b4; stroke-width: 1.5"/>
    <path d="M 261.790622 288.911619 
L 295.964785 288.911619 
" clip-path="url(#pd579e82607)" style="fill: none; stroke: #1f77b4; stroke-width: 1.5"/>
    <path d="M 347.226029 288.427292 
L 381.400191 288.427292 
" clip-path="url(#pd579e82607)" style="fill: none; stroke: #1f77b4; stroke-width: 1.5"/>
   </g>
   <g id="LineCollection_2">
    <path d="M 90.919809 271.038132 
L 125.093971 271.038132 
" clip-path="url(#pd579e82607)" style="fill: none; stroke: #1f77b4; stroke-width: 1.5"/>
    <path d="M 176.355215 275.658803 
L 210.529378 275.658803 
" clip-path="url(#pd579e82607)" style="fill: none; stroke: #1f77b4; stroke-width: 1.5"/>
    <path d="M 261.790622 53.568 
L 295.964785 53.568 
" clip-path="url(#pd579e82607)" style="fill: none; stroke: #1f77b4; stroke-width: 1.5"/>
    <path d="M 347.226029 241.415043 
L 381.400191 241.415043 
" clip-path="url(#pd579e82607)" style="fill: none; stroke: #1f77b4; stroke-width: 1.5"/>
   </g>
   <g id="LineCollection_3">
    <path d="M 90.919809 292.360921 
L 125.093971 292.360921 
" clip-path="url(#pd579e82607)" style="fill: none; stroke: #1f77b4; stroke-width: 1.5"/>
    <path d="M 176.355215 295.488 
L 210.529378 295.488 
" clip-path="url(#pd579e82607)" style="fill: none; stroke: #1f77b4; stroke-width: 1.5"/>
    <path d="M 261.790622 294.79868 
L 295.964785 294.79868 
" clip-path="url(#pd579e82607)" style="fill: none; stroke: #1f77b4; stroke-width: 1.5"/>
    <path d="M 347.226029 293.66025 
L 381.400191 293.66025 
" clip-path="url(#pd579e82607)" style="fill: none; stroke: #1f77b4; stroke-width: 1.5"/>
   </g>
   <g id="LineCollection_4">
    <path d="M 108.00689 292.360921 
L 108.00689 271.038132 
" clip-path="url(#pd579e82607)" style="fill: none; stroke: #1f77b4; stroke-width: 1.5"/>
    <path d="M 193.442297 295.488 
L 193.442297 275.658803 
" clip-path="url(#pd579e82607)" style="fill: none; stroke: #1f77b4; stroke-width: 1.5"/>
    <path d="M 278.877703 294.79868 
L 278.877703 53.568 
" clip-path="url(#pd579e82607)" style="fill: none; stroke: #1f77b4; stroke-width: 1.5"/>
    <path d="M 364.31311 293.66025 
L 364.31311 241.415043 
" clip-path="url(#pd579e82607)" style="fill: none; stroke: #1f77b4; stroke-width: 1.5"/>
   </g>
   <g id="line2d_35">
    <path d="M 108.00689 287.547905 
L 193.442297 292.627092 
L 278.877703 288.911619 
L 364.31311 288.427292 
" clip-path="url(#pd579e82607)" style="fill: none; stroke: #4682b4; stroke-width: 1.5; stroke-linecap: square"/>
   </g>
   <g id="line2d_36">
    <path d="M 108.00689 287.547905 
L 193.442297 292.627092 
L 278.877703 288.911619 
L 364.31311 288.427292 
" clip-path="url(#pd579e82607)" style="fill: none; stroke: #4682b4; stroke-width: 1.5; stroke-linecap: square"/>
   </g>
   <g id="patch_3">
    <path d="M 57.6 307.584 
L 57.6 41.472 
" style="fill: none; stroke: #000000; stroke-width: 0.8; stroke-linejoin: miter; stroke-linecap: square"/>
   </g>
   <g id="patch_4">
    <path d="M 414.72 307.584 
L 414.72 41.472 
" style="fill: none; stroke: #000000; stroke-width: 0.8; stroke-linejoin: miter; stroke-linecap: square"/>
   </g>
   <g id="patch_5">
    <path d="M 57.6 307.584 
L 414.72 307.584 
" style="fill: none; stroke: #000000; stroke-width: 0.8; stroke-linejoin: miter; stroke-linecap: square"/>
   </g>
   <g id="patch_6">
    <path d="M 57.6 41.472 
L 414.72 41.472 
" style="fill: none; stroke: #000000; stroke-width: 0.8; stroke-linejoin: miter; stroke-linecap: square"/>
   </g>
   <g id="text_20">
    <!-- Violinplot for progress of actions/price_rebuy -->
    <g transform="translate(101.925 35.472)scale(0.12 -0.12)">
     <defs>
      <path id="DejaVuSans-56" d="M 1831 0 
L 50 4666 
L 709 4666 
L 2188 738 
L 3669 4666 
L 4325 4666 
L 2547 0 
L 1831 0 
z
" transform="scale(0.015625)"/>
      <path id="DejaVuSans-6c" d="M 603 4863 
L 1178 4863 
L 1178 0 
L 603 0 
L 603 4863 
z
" transform="scale(0.015625)"/>
      <path id="DejaVuSans-66" d="M 2375 4863 
L 2375 4384 
L 1825 4384 
Q 1516 4384 1395 4259 
Q 1275 4134 1275 3809 
L 1275 3500 
L 2222 3500 
L 2222 3053 
L 1275 3053 
L 1275 0 
L 697 0 
L 697 3053 
L 147 3053 
L 147 3500 
L 697 3500 
L 697 3744 
Q 697 4328 969 4595 
Q 1241 4863 1831 4863 
L 2375 4863 
z
" transform="scale(0.015625)"/>
      <path id="DejaVuSans-67" d="M 2906 1791 
Q 2906 2416 2648 2759 
Q 2391 3103 1925 3103 
Q 1463 3103 1205 2759 
Q 947 2416 947 1791 
Q 947 1169 1205 825 
Q 1463 481 1925 481 
Q 2391 481 2648 825 
Q 2906 1169 2906 1791 
z
M 3481 434 
Q 3481 -459 3084 -895 
Q 2688 -1331 1869 -1331 
Q 1566 -1331 1297 -1286 
Q 1028 -1241 775 -1147 
L 775 -588 
Q 1028 -725 1275 -790 
Q 1522 -856 1778 -856 
Q 2344 -856 2625 -561 
Q 2906 -266 2906 331 
L 2906 616 
Q 2728 306 2450 153 
Q 2172 0 1784 0 
Q 1141 0 747 490 
Q 353 981 353 1791 
Q 353 2603 747 3093 
Q 1141 3584 1784 3584 
Q 2172 3584 2450 3431 
Q 2728 3278 2906 2969 
L 2906 3500 
L 3481 3500 
L 3481 434 
z
" transform="scale(0.015625)"/>
      <path id="DejaVuSans-63" d="M 3122 3366 
L 3122 2828 
Q 2878 2963 2633 3030 
Q 2388 3097 2138 3097 
Q 1578 3097 1268 2742 
Q 959 2388 959 1747 
Q 959 1106 1268 751 
Q 1578 397 2138 397 
Q 2388 397 2633 464 
Q 2878 531 3122 666 
L 3122 134 
Q 2881 22 2623 -34 
Q 2366 -91 2075 -91 
Q 1284 -91 818 406 
Q 353 903 353 1747 
Q 353 2603 823 3093 
Q 1294 3584 2113 3584 
Q 2378 3584 2631 3529 
Q 2884 3475 3122 3366 
z
" transform="scale(0.015625)"/>
      <path id="DejaVuSans-2f" d="M 1625 4666 
L 2156 4666 
L 531 -594 
L 0 -594 
L 1625 4666 
z
" transform="scale(0.015625)"/>
      <path id="DejaVuSans-5f" d="M 3263 -1063 
L 3263 -1509 
L -63 -1509 
L -63 -1063 
L 3263 -1063 
z
" transform="scale(0.015625)"/>
      <path id="DejaVuSans-62" d="M 3116 1747 
Q 3116 2381 2855 2742 
Q 2594 3103 2138 3103 
Q 1681 3103 1420 2742 
Q 1159 2381 1159 1747 
Q 1159 1113 1420 752 
Q 1681 391 2138 391 
Q 2594 391 2855 752 
Q 3116 1113 3116 1747 
z
M 1159 2969 
Q 1341 3281 1617 3432 
Q 1894 3584 2278 3584 
Q 2916 3584 3314 3078 
Q 3713 2572 3713 1747 
Q 3713 922 3314 415 
Q 2916 -91 2278 -91 
Q 1894 -91 1617 61 
Q 1341 213 1159 525 
L 1159 0 
L 581 0 
L 581 4863 
L 1159 4863 
L 1159 2969 
z
" transform="scale(0.015625)"/>
      <path id="DejaVuSans-75" d="M 544 1381 
L 544 3500 
L 1119 3500 
L 1119 1403 
Q 1119 906 1312 657 
Q 1506 409 1894 409 
Q 2359 409 2629 706 
Q 2900 1003 2900 1516 
L 2900 3500 
L 3475 3500 
L 3475 0 
L 2900 0 
L 2900 538 
Q 2691 219 2414 64 
Q 2138 -91 1772 -91 
Q 1169 -91 856 284 
Q 544 659 544 1381 
z
M 1991 3584 
L 1991 3584 
z
" transform="scale(0.015625)"/>
     </defs>
     <use xlink:href="#DejaVuSans-56"/>
     <use xlink:href="#DejaVuSans-69" x="66.158203"/>
     <use xlink:href="#DejaVuSans-6f" x="93.941406"/>
     <use xlink:href="#DejaVuSans-6c" x="155.123047"/>
     <use xlink:href="#DejaVuSans-69" x="182.90625"/>
     <use xlink:href="#DejaVuSans-6e" x="210.689453"/>
     <use xlink:href="#DejaVuSans-70" x="274.068359"/>
     <use xlink:href="#DejaVuSans-6c" x="337.544922"/>
     <use xlink:href="#DejaVuSans-6f" x="365.328125"/>
     <use xlink:href="#DejaVuSans-74" x="426.509766"/>
     <use xlink:href="#DejaVuSans-20" x="465.71875"/>
     <use xlink:href="#DejaVuSans-66" x="497.505859"/>
     <use xlink:href="#DejaVuSans-6f" x="532.710938"/>
     <use xlink:href="#DejaVuSans-72" x="593.892578"/>
     <use xlink:href="#DejaVuSans-20" x="635.005859"/>
     <use xlink:href="#DejaVuSans-70" x="666.792969"/>
     <use xlink:href="#DejaVuSans-72" x="730.269531"/>
     <use xlink:href="#DejaVuSans-6f" x="769.132812"/>
     <use xlink:href="#DejaVuSans-67" x="830.314453"/>
     <use xlink:href="#DejaVuSans-72" x="893.791016"/>
     <use xlink:href="#DejaVuSans-65" x="932.654297"/>
     <use xlink:href="#DejaVuSans-73" x="994.177734"/>
     <use xlink:href="#DejaVuSans-73" x="1046.277344"/>
     <use xlink:href="#DejaVuSans-20" x="1098.376953"/>
     <use xlink:href="#DejaVuSans-6f" x="1130.164062"/>
     <use xlink:href="#DejaVuSans-66" x="1191.345703"/>
     <use xlink:href="#DejaVuSans-20" x="1226.550781"/>
     <use xlink:href="#DejaVuSans-61" x="1258.337891"/>
     <use xlink:href="#DejaVuSans-63" x="1319.617188"/>
     <use xlink:href="#DejaVuSans-74" x="1374.597656"/>
     <use xlink:href="#DejaVuSans-69" x="1413.806641"/>
     <use xlink:href="#DejaVuSans-6f" x="1441.589844"/>
     <use xlink:href="#DejaVuSans-6e" x="1502.771484"/>
     <use xlink:href="#DejaVuSans-73" x="1566.150391"/>
     <use xlink:href="#DejaVuSans-2f" x="1618.25"/>
     <use xlink:href="#DejaVuSans-70" x="1651.941406"/>
     <use xlink:href="#DejaVuSans-72" x="1715.417969"/>
     <use xlink:href="#DejaVuSans-69" x="1756.53125"/>
     <use xlink:href="#DejaVuSans-63" x="1784.314453"/>
     <use xlink:href="#DejaVuSans-65" x="1839.294922"/>
     <use xlink:href="#DejaVuSans-5f" x="1900.818359"/>
     <use xlink:href="#DejaVuSans-72" x="1950.818359"/>
     <use xlink:href="#DejaVuSans-65" x="1989.681641"/>
     <use xlink:href="#DejaVuSans-62" x="2051.205078"/>
     <use xlink:href="#DejaVuSans-75" x="2114.681641"/>
     <use xlink:href="#DejaVuSans-79" x="2178.060547"/>
    </g>
   </g>
   <g id="legend_1">
    <g id="patch_7">
     <path d="M 276.25125 64.150125 
L 407.72 64.150125 
Q 409.72 64.150125 409.72 62.150125 
L 409.72 48.472 
Q 409.72 46.472 407.72 46.472 
L 276.25125 46.472 
Q 274.25125 46.472 274.25125 48.472 
L 274.25125 62.150125 
Q 274.25125 64.150125 276.25125 64.150125 
z
" style="fill: #ffffff; opacity: 0.8; stroke: #cccccc; stroke-linejoin: miter"/>
    </g>
    <g id="line2d_37">
     <path d="M 278.25125 54.570438 
L 288.25125 54.570438 
L 298.25125 54.570438 
" style="fill: none; stroke: #4682b4; stroke-width: 1.5; stroke-linecap: square"/>
    </g>
    <g id="text_21">
     <!-- StableBaselinesSAC -->
     <g transform="translate(306.25125 58.070438)scale(0.1 -0.1)">
      <defs>
       <path id="DejaVuSans-53" d="M 3425 4513 
L 3425 3897 
Q 3066 4069 2747 4153 
Q 2428 4238 2131 4238 
Q 1616 4238 1336 4038 
Q 1056 3838 1056 3469 
Q 1056 3159 1242 3001 
Q 1428 2844 1947 2747 
L 2328 2669 
Q 3034 2534 3370 2195 
Q 3706 1856 3706 1288 
Q 3706 609 3251 259 
Q 2797 -91 1919 -91 
Q 1588 -91 1214 -16 
Q 841 59 441 206 
L 441 856 
Q 825 641 1194 531 
Q 1563 422 1919 422 
Q 2459 422 2753 634 
Q 3047 847 3047 1241 
Q 3047 1584 2836 1778 
Q 2625 1972 2144 2069 
L 1759 2144 
Q 1053 2284 737 2584 
Q 422 2884 422 3419 
Q 422 4038 858 4394 
Q 1294 4750 2059 4750 
Q 2388 4750 2728 4690 
Q 3069 4631 3425 4513 
z
" transform="scale(0.015625)"/>
       <path id="DejaVuSans-42" d="M 1259 2228 
L 1259 519 
L 2272 519 
Q 2781 519 3026 730 
Q 3272 941 3272 1375 
Q 3272 1813 3026 2020 
Q 2781 2228 2272 2228 
L 1259 2228 
z
M 1259 4147 
L 1259 2741 
L 2194 2741 
Q 2656 2741 2882 2914 
Q 3109 3088 3109 3444 
Q 3109 3797 2882 3972 
Q 2656 4147 2194 4147 
L 1259 4147 
z
M 628 4666 
L 2241 4666 
Q 2963 4666 3353 4366 
Q 3744 4066 3744 3513 
Q 3744 3084 3544 2831 
Q 3344 2578 2956 2516 
Q 3422 2416 3680 2098 
Q 3938 1781 3938 1306 
Q 3938 681 3513 340 
Q 3088 0 2303 0 
L 628 0 
L 628 4666 
z
" transform="scale(0.015625)"/>
       <path id="DejaVuSans-41" d="M 2188 4044 
L 1331 1722 
L 3047 1722 
L 2188 4044 
z
M 1831 4666 
L 2547 4666 
L 4325 0 
L 3669 0 
L 3244 1197 
L 1141 1197 
L 716 0 
L 50 0 
L 1831 4666 
z
" transform="scale(0.015625)"/>
       <path id="DejaVuSans-43" d="M 4122 4306 
L 4122 3641 
Q 3803 3938 3442 4084 
Q 3081 4231 2675 4231 
Q 1875 4231 1450 3742 
Q 1025 3253 1025 2328 
Q 1025 1406 1450 917 
Q 1875 428 2675 428 
Q 3081 428 3442 575 
Q 3803 722 4122 1019 
L 4122 359 
Q 3791 134 3420 21 
Q 3050 -91 2638 -91 
Q 1578 -91 968 557 
Q 359 1206 359 2328 
Q 359 3453 968 4101 
Q 1578 4750 2638 4750 
Q 3056 4750 3426 4639 
Q 3797 4528 4122 4306 
z
" transform="scale(0.015625)"/>
      </defs>
      <use xlink:href="#DejaVuSans-53"/>
      <use xlink:href="#DejaVuSans-74" x="63.476562"/>
      <use xlink:href="#DejaVuSans-61" x="102.685547"/>
      <use xlink:href="#DejaVuSans-62" x="163.964844"/>
      <use xlink:href="#DejaVuSans-6c" x="227.441406"/>
      <use xlink:href="#DejaVuSans-65" x="255.224609"/>
      <use xlink:href="#DejaVuSans-42" x="316.748047"/>
      <use xlink:href="#DejaVuSans-61" x="385.351562"/>
      <use xlink:href="#DejaVuSans-73" x="446.630859"/>
      <use xlink:href="#DejaVuSans-65" x="498.730469"/>
      <use xlink:href="#DejaVuSans-6c" x="560.253906"/>
      <use xlink:href="#DejaVuSans-69" x="588.037109"/>
      <use xlink:href="#DejaVuSans-6e" x="615.820312"/>
      <use xlink:href="#DejaVuSans-65" x="679.199219"/>
      <use xlink:href="#DejaVuSans-73" x="740.722656"/>
      <use xlink:href="#DejaVuSans-53" x="792.822266"/>
      <use xlink:href="#DejaVuSans-41" x="858.173828"/>
      <use xlink:href="#DejaVuSans-43" x="924.832031"/>
     </g>
    </g>
   </g>
  </g>
 </g>
 <defs>
  <clipPath id="pd579e82607">
   <rect x="57.6" y="41.472" width="357.12" height="266.112"/>
  </clipPath>
 </defs>
</svg>
