<?xml version="1.0" encoding="utf-8" standalone="no"?>
<!DOCTYPE svg PUBLIC "-//W3C//DTD SVG 1.1//EN"
  "http://www.w3.org/Graphics/SVG/1.1/DTD/svg11.dtd">
<svg xmlns:xlink="http://www.w3.org/1999/xlink" width="460.8pt" height="345.6pt" viewBox="0 0 460.8 345.6" xmlns="http://www.w3.org/2000/svg" version="1.1">
 <metadata>
  <rdf:RDF xmlns:dc="http://purl.org/dc/elements/1.1/" xmlns:cc="http://creativecommons.org/ns#" xmlns:rdf="http://www.w3.org/1999/02/22-rdf-syntax-ns#">
   <cc:Work>
    <dc:type rdf:resource="http://purl.org/dc/dcmitype/StillImage"/>
    <dc:date>2022-06-21T09:14:51.893895</dc:date>
    <dc:format>image/svg+xml</dc:format>
    <dc:creator>
     <cc:Agent>
      <dc:title>Matplotlib v3.5.2, https://matplotlib.org/</dc:title>
     </cc:Agent>
    </dc:creator>
   </cc:Work>
  </rdf:RDF>
 </metadata>
 <defs>
  <style type="text/css">*{stroke-linejoin: round; stroke-linecap: butt}</style>
 </defs>
 <g id="figure_1">
  <g id="patch_1">
   <path d="M 0 345.6 
L 460.8 345.6 
L 460.8 0 
L 0 0 
z
" style="fill: #ffffff"/>
  </g>
  <g id="axes_1">
   <g id="patch_2">
    <path d="M 57.6 307.584 
L 414.72 307.584 
L 414.72 41.472 
L 57.6 41.472 
z
" style="fill: #ffffff"/>
   </g>
   <g id="PolyCollection_1">
    <path d="M 109.148948 295.488 
L 106.864832 295.488 
L 106.723616 293.96019 
L 106.595114 292.432381 
L 106.483459 290.904571 
L 106.390838 289.376762 
L 106.317029 287.848952 
L 106.259127 286.321143 
L 106.21151 284.793333 
L 106.166039 283.265524 
L 106.112498 281.737714 
L 106.03926 280.209904 
L 105.934137 278.682095 
L 105.78536 277.154285 
L 105.582589 275.626476 
L 105.317812 274.098666 
L 104.98599 272.570857 
L 104.585264 271.043047 
L 104.116629 269.515238 
L 103.583018 267.987428 
L 102.987887 266.459618 
L 102.333524 264.931809 
L 101.619433 263.403999 
L 100.841206 261.87619 
L 99.99027 260.34838 
L 99.054742 258.820571 
L 98.021405 257.292761 
L 96.878533 255.764952 
L 95.619044 254.237142 
L 94.243318 252.709332 
L 92.761045 251.181523 
L 91.191594 249.653713 
L 89.562762 248.125904 
L 87.908055 246.598094 
L 86.263047 245.070285 
L 84.661562 243.542475 
L 83.132473 242.014666 
L 81.697766 240.486856 
L 80.37215 238.959046 
L 79.164117 237.431237 
L 78.077907 235.903427 
L 77.115638 234.375618 
L 76.278863 232.847808 
L 75.569078 231.319999 
L 74.987129 229.792189 
L 74.531903 228.26438 
L 74.198966 226.73657 
L 73.979855 225.208761 
L 73.862483 223.680951 
L 73.832727 222.153141 
L 73.876855 220.625332 
L 73.984118 219.097522 
L 74.148802 217.569713 
L 74.371128 216.041903 
L 74.656752 214.514094 
L 75.014957 212.986284 
L 75.455975 211.458475 
L 75.988053 209.930665 
L 76.614879 208.402855 
L 77.333844 206.875046 
L 78.135372 205.347236 
L 79.003288 203.819427 
L 79.916044 202.291617 
L 80.848579 200.763808 
L 81.774594 199.235998 
L 82.669135 197.708189 
L 83.511355 196.180379 
L 84.287246 194.652569 
L 84.991993 193.12476 
L 85.631419 191.59695 
L 86.222017 190.069141 
L 86.789202 188.541331 
L 87.363818 187.013522 
L 87.977378 185.485712 
L 88.656872 183.957903 
L 89.420191 182.430093 
L 90.273058 180.902283 
L 91.208057 179.374474 
L 92.205826 177.846664 
L 93.238078 176.318855 
L 94.271763 174.791045 
L 95.273603 173.263236 
L 96.214263 171.735426 
L 97.071619 170.207617 
L 97.832798 168.679807 
L 98.494857 167.151997 
L 99.064181 165.624188 
L 99.554792 164.096378 
L 99.9859 162.568569 
L 100.379077 161.040759 
L 100.755483 159.51295 
L 101.133507 157.98514 
L 101.527096 156.457331 
L 101.944892 154.929521 
L 102.390141 153.401711 
L 102.861224 151.873902 
L 103.352582 150.346092 
L 103.85582 148.818283 
L 104.360821 147.290473 
L 104.856763 145.762664 
L 105.333001 144.234854 
L 110.680779 144.234854 
L 110.680779 144.234854 
L 111.157017 145.762664 
L 111.652958 147.290473 
L 112.15796 148.818283 
L 112.661198 150.346092 
L 113.152556 151.873902 
L 113.623639 153.401711 
L 114.068888 154.929521 
L 114.486684 156.457331 
L 114.880273 157.98514 
L 115.258297 159.51295 
L 115.634703 161.040759 
L 116.02788 162.568569 
L 116.458988 164.096378 
L 116.949599 165.624188 
L 117.518923 167.151997 
L 118.180982 168.679807 
L 118.94216 170.207617 
L 119.799517 171.735426 
L 120.740177 173.263236 
L 121.742017 174.791045 
L 122.775702 176.318855 
L 123.807954 177.846664 
L 124.805723 179.374474 
L 125.740721 180.902283 
L 126.593589 182.430093 
L 127.356908 183.957903 
L 128.036402 185.485712 
L 128.649962 187.013522 
L 129.224578 188.541331 
L 129.791763 190.069141 
L 130.382361 191.59695 
L 131.021787 193.12476 
L 131.726534 194.652569 
L 132.502425 196.180379 
L 133.344644 197.708189 
L 134.239186 199.235998 
L 135.165201 200.763808 
L 136.097736 202.291617 
L 137.010492 203.819427 
L 137.878407 205.347236 
L 138.679936 206.875046 
L 139.398901 208.402855 
L 140.025727 209.930665 
L 140.557805 211.458475 
L 140.998823 212.986284 
L 141.357028 214.514094 
L 141.642652 216.041903 
L 141.864978 217.569713 
L 142.029662 219.097522 
L 142.136925 220.625332 
L 142.181053 222.153141 
L 142.151297 223.680951 
L 142.033925 225.208761 
L 141.814814 226.73657 
L 141.481877 228.26438 
L 141.026651 229.792189 
L 140.444702 231.319999 
L 139.734917 232.847808 
L 138.898142 234.375618 
L 137.935873 235.903427 
L 136.849662 237.431237 
L 135.64163 238.959046 
L 134.316014 240.486856 
L 132.881307 242.014666 
L 131.352218 243.542475 
L 129.750733 245.070285 
L 128.105725 246.598094 
L 126.451018 248.125904 
L 124.822186 249.653713 
L 123.252735 251.181523 
L 121.770462 252.709332 
L 120.394736 254.237142 
L 119.135247 255.764952 
L 117.992375 257.292761 
L 116.959038 258.820571 
L 116.02351 260.34838 
L 115.172574 261.87619 
L 114.394347 263.403999 
L 113.680256 264.931809 
L 113.025893 266.459618 
L 112.430762 267.987428 
L 111.897151 269.515238 
L 111.428516 271.043047 
L 111.02779 272.570857 
L 110.695968 274.098666 
L 110.431191 275.626476 
L 110.22842 277.154285 
L 110.079643 278.682095 
L 109.97452 280.209904 
L 109.901282 281.737714 
L 109.847741 283.265524 
L 109.80227 284.793333 
L 109.754653 286.321143 
L 109.696751 287.848952 
L 109.622941 289.376762 
L 109.530321 290.904571 
L 109.418666 292.432381 
L 109.290164 293.96019 
L 109.148948 295.488 
z
" clip-path="url(#p56afb34927)" style="fill: #1f77b4; fill-opacity: 0.3"/>
   </g>
   <g id="PolyCollection_2">
    <path d="M 194.210433 275.292569 
L 192.674161 275.292569 
L 192.466633 273.295573 
L 192.197846 271.298577 
L 191.845472 269.30158 
L 191.382609 267.304584 
L 190.778293 265.307588 
L 189.998155 263.310591 
L 189.005582 261.313595 
L 187.764051 259.316599 
L 186.241289 257.319602 
L 184.415493 255.322606 
L 182.282935 253.32561 
L 179.865312 251.328614 
L 177.214596 249.331617 
L 174.413259 247.334621 
L 171.56879 245.337625 
L 168.802997 243.340628 
L 166.23822 241.343632 
L 163.983456 239.346636 
L 162.123392 237.349639 
L 160.712249 235.352643 
L 159.772914 233.355647 
L 159.300429 231.35865 
L 159.268134 229.361654 
L 159.634527 227.364658 
L 160.349269 225.367661 
L 161.357336 223.370665 
L 162.601031 221.373669 
L 164.020329 219.376672 
L 165.552617 217.379676 
L 167.133239 215.38268 
L 168.698078 213.385683 
L 170.188578 211.388687 
L 171.558436 209.391691 
L 172.780015 207.394694 
L 173.848031 205.397698 
L 174.778613 203.400702 
L 175.603364 201.403705 
L 176.359989 199.406709 
L 177.082479 197.409713 
L 177.794018 195.412716 
L 178.504652 193.41572 
L 179.213736 191.418724 
L 179.915367 189.421727 
L 180.604085 187.424731 
L 181.278512 185.427735 
L 181.941884 183.430738 
L 182.59991 181.433742 
L 183.257409 179.436746 
L 183.915357 177.439749 
L 184.569497 175.442753 
L 185.210881 173.445757 
L 185.827977 171.448761 
L 186.409586 169.451764 
L 186.947686 167.454768 
L 187.439402 165.457772 
L 187.887604 163.460775 
L 188.299921 161.463779 
L 188.686454 159.466783 
L 189.056798 157.469786 
L 189.417254 155.47279 
L 189.769047 153.475794 
L 190.108045 151.478797 
L 190.425986 149.481801 
L 190.712788 147.484805 
L 190.959212 145.487808 
L 191.159172 143.490812 
L 191.311145 141.493816 
L 191.4185 139.496819 
L 191.488838 137.499823 
L 191.532683 135.502827 
L 191.561931 133.50583 
L 191.588368 131.508834 
L 191.622448 129.511838 
L 191.672358 127.514841 
L 191.743322 125.517845 
L 191.837138 123.520849 
L 191.95201 121.523852 
L 192.082807 119.526856 
L 192.221871 117.52986 
L 192.360339 115.532863 
L 192.489807 113.535867 
L 192.603928 111.538871 
L 192.699509 109.541874 
L 192.77677 107.544878 
L 192.838663 105.547882 
L 192.889485 103.550885 
L 192.933269 101.553889 
L 192.972515 99.556893 
L 193.00767 97.559896 
L 193.037499 95.5629 
L 193.060106 93.565904 
L 193.074182 91.568907 
L 193.079968 89.571911 
L 193.079624 87.574915 
L 193.076892 85.577919 
L 193.076241 83.580922 
L 193.081795 81.583926 
L 193.096394 79.58693 
L 193.12102 77.589933 
L 193.763573 77.589933 
L 193.763573 77.589933 
L 193.7882 79.58693 
L 193.802798 81.583926 
L 193.808353 83.580922 
L 193.807701 85.577919 
L 193.804969 87.574915 
L 193.804625 89.571911 
L 193.810412 91.568907 
L 193.824487 93.565904 
L 193.847094 95.5629 
L 193.876923 97.559896 
L 193.912078 99.556893 
L 193.951324 101.553889 
L 193.995109 103.550885 
L 194.04593 105.547882 
L 194.107823 107.544878 
L 194.185084 109.541874 
L 194.280665 111.538871 
L 194.394786 113.535867 
L 194.524254 115.532863 
L 194.662722 117.52986 
L 194.801786 119.526856 
L 194.932584 121.523852 
L 195.047455 123.520849 
L 195.141271 125.517845 
L 195.212235 127.514841 
L 195.262145 129.511838 
L 195.296225 131.508834 
L 195.322662 133.50583 
L 195.35191 135.502827 
L 195.395756 137.499823 
L 195.466093 139.496819 
L 195.573449 141.493816 
L 195.725422 143.490812 
L 195.925381 145.487808 
L 196.171805 147.484805 
L 196.458607 149.481801 
L 196.776549 151.478797 
L 197.115546 153.475794 
L 197.467339 155.47279 
L 197.827795 157.469786 
L 198.198139 159.466783 
L 198.584672 161.463779 
L 198.99699 163.460775 
L 199.445191 165.457772 
L 199.936908 167.454768 
L 200.475007 169.451764 
L 201.056617 171.448761 
L 201.673712 173.445757 
L 202.315096 175.442753 
L 202.969237 177.439749 
L 203.627185 179.436746 
L 204.284684 181.433742 
L 204.942709 183.430738 
L 205.606081 185.427735 
L 206.280508 187.424731 
L 206.969226 189.421727 
L 207.670857 191.418724 
L 208.379941 193.41572 
L 209.090575 195.412716 
L 209.802114 197.409713 
L 210.524604 199.406709 
L 211.281229 201.403705 
L 212.10598 203.400702 
L 213.036562 205.397698 
L 214.104579 207.394694 
L 215.326157 209.391691 
L 216.696015 211.388687 
L 218.186515 213.385683 
L 219.751354 215.38268 
L 221.331977 217.379676 
L 222.864264 219.376672 
L 224.283563 221.373669 
L 225.527258 223.370665 
L 226.535324 225.367661 
L 227.250066 227.364658 
L 227.616459 229.361654 
L 227.584164 231.35865 
L 227.11168 233.355647 
L 226.172344 235.352643 
L 224.761202 237.349639 
L 222.901138 239.346636 
L 220.646374 241.343632 
L 218.081596 243.340628 
L 215.315804 245.337625 
L 212.471334 247.334621 
L 209.669997 249.331617 
L 207.019281 251.328614 
L 204.601658 253.32561 
L 202.4691 255.322606 
L 200.643305 257.319602 
L 199.120542 259.316599 
L 197.879011 261.313595 
L 196.886438 263.310591 
L 196.1063 265.307588 
L 195.501984 267.304584 
L 195.039121 269.30158 
L 194.686747 271.298577 
L 194.41796 273.295573 
L 194.210433 275.292569 
z
" clip-path="url(#p56afb34927)" style="fill: #1f77b4; fill-opacity: 0.3"/>
   </g>
   <g id="PolyCollection_3">
    <path d="M 280.728544 285.177701 
L 277.026863 285.177701 
L 276.403767 283.102328 
L 275.624452 281.026955 
L 274.668679 278.951582 
L 273.519984 276.876209 
L 272.167748 274.800836 
L 270.609166 272.725463 
L 268.850981 270.65009 
L 266.910852 268.574717 
L 264.818167 266.499344 
L 262.61401 264.423971 
L 260.349916 262.348598 
L 258.085097 260.273224 
L 255.882114 258.197851 
L 253.801368 256.122478 
L 251.895277 254.047105 
L 250.203308 251.971732 
L 248.748971 249.896359 
L 247.539543 247.820986 
L 246.568543 245.745613 
L 245.820319 243.67024 
L 245.275512 241.594867 
L 244.916011 239.519494 
L 244.728166 237.444121 
L 244.703541 235.368748 
L 244.837143 233.293375 
L 245.123797 231.218002 
L 245.553885 229.142629 
L 246.110005 227.067255 
L 246.765901 224.991882 
L 247.488403 222.916509 
L 248.242071 220.841136 
L 248.995219 218.765763 
L 249.725404 216.69039 
L 250.422586 214.615017 
L 251.089038 212.539644 
L 251.736326 210.464271 
L 252.380685 208.388898 
L 253.038502 206.313525 
L 253.723193 204.238152 
L 254.443887 202.162779 
L 255.205471 200.087406 
L 256.009108 198.012033 
L 256.852547 195.93666 
L 257.730054 193.861286 
L 258.632387 191.785913 
L 259.547401 189.71054 
L 260.461661 187.635167 
L 261.362863 185.559794 
L 262.242343 183.484421 
L 263.096715 181.409048 
L 263.9279 179.333675 
L 264.741419 177.258302 
L 265.543494 175.182929 
L 266.338026 173.107556 
L 267.124521 171.032183 
L 267.897711 168.95681 
L 268.648907 166.881437 
L 269.368531 164.806064 
L 270.048858 162.730691 
L 270.686029 160.655317 
L 271.280687 158.579944 
L 271.837098 156.504571 
L 272.361123 154.429198 
L 272.857772 152.353825 
L 273.329192 150.278452 
L 273.773815 148.203079 
L 274.187005 146.127706 
L 274.56303 144.052333 
L 274.89768 141.97696 
L 275.190582 139.901587 
L 275.44635 137.826214 
L 275.6741 135.750841 
L 275.885528 133.675468 
L 276.092217 131.600095 
L 276.303142 129.524722 
L 276.523137 127.449348 
L 276.752646 125.373975 
L 276.988596 123.298602 
L 277.225834 121.223229 
L 277.458547 119.147856 
L 277.681271 117.072483 
L 277.889368 114.99711 
L 278.07913 112.921737 
L 278.247719 110.846364 
L 278.39313 108.770991 
L 278.514222 106.695618 
L 278.610772 104.620245 
L 278.683459 102.544872 
L 278.733767 100.469499 
L 278.763798 98.394126 
L 278.7761 96.318753 
L 278.773559 94.243379 
L 278.759382 92.168006 
L 278.73714 90.092633 
L 278.710755 88.01726 
L 278.68436 85.941887 
L 278.661975 83.866514 
L 278.647037 81.791141 
L 278.641904 79.715768 
L 279.113503 79.715768 
L 279.113503 79.715768 
L 279.108369 81.791141 
L 279.093432 83.866514 
L 279.071047 85.941887 
L 279.044652 88.01726 
L 279.018267 90.092633 
L 278.996024 92.168006 
L 278.981848 94.243379 
L 278.979306 96.318753 
L 278.991609 98.394126 
L 279.02164 100.469499 
L 279.071948 102.544872 
L 279.144635 104.620245 
L 279.241184 106.695618 
L 279.362277 108.770991 
L 279.507688 110.846364 
L 279.676277 112.921737 
L 279.866038 114.99711 
L 280.074135 117.072483 
L 280.296859 119.147856 
L 280.529573 121.223229 
L 280.76681 123.298602 
L 281.002761 125.373975 
L 281.23227 127.449348 
L 281.452264 129.524722 
L 281.66319 131.600095 
L 281.869879 133.675468 
L 282.081306 135.750841 
L 282.309057 137.826214 
L 282.564824 139.901587 
L 282.857727 141.97696 
L 283.192377 144.052333 
L 283.568402 146.127706 
L 283.981592 148.203079 
L 284.426215 150.278452 
L 284.897635 152.353825 
L 285.394284 154.429198 
L 285.918309 156.504571 
L 286.474719 158.579944 
L 287.069378 160.655317 
L 287.706549 162.730691 
L 288.386876 164.806064 
L 289.106499 166.881437 
L 289.857696 168.95681 
L 290.630886 171.032183 
L 291.417381 173.107556 
L 292.211913 175.182929 
L 293.013988 177.258302 
L 293.827506 179.333675 
L 294.658692 181.409048 
L 295.513064 183.484421 
L 296.392544 185.559794 
L 297.293746 187.635167 
L 298.208006 189.71054 
L 299.12302 191.785913 
L 300.025353 193.861286 
L 300.90286 195.93666 
L 301.746299 198.012033 
L 302.549936 200.087406 
L 303.31152 202.162779 
L 304.032214 204.238152 
L 304.716904 206.313525 
L 305.374722 208.388898 
L 306.019081 210.464271 
L 306.666368 212.539644 
L 307.33282 214.615017 
L 308.030002 216.69039 
L 308.760188 218.765763 
L 309.513336 220.841136 
L 310.267003 222.916509 
L 310.989506 224.991882 
L 311.645402 227.067255 
L 312.201521 229.142629 
L 312.63161 231.218002 
L 312.918263 233.293375 
L 313.051866 235.368748 
L 313.027241 237.444121 
L 312.839396 239.519494 
L 312.479895 241.594867 
L 311.935088 243.67024 
L 311.186863 245.745613 
L 310.215864 247.820986 
L 309.006436 249.896359 
L 307.552099 251.971732 
L 305.860129 254.047105 
L 303.954039 256.122478 
L 301.873292 258.197851 
L 299.670309 260.273224 
L 297.405491 262.348598 
L 295.141396 264.423971 
L 292.93724 266.499344 
L 290.844555 268.574717 
L 288.904426 270.65009 
L 287.146241 272.725463 
L 285.587659 274.800836 
L 284.235423 276.876209 
L 283.086728 278.951582 
L 282.130955 281.026955 
L 281.351639 283.102328 
L 280.728544 285.177701 
z
" clip-path="url(#p56afb34927)" style="fill: #1f77b4; fill-opacity: 0.3"/>
   </g>
   <g id="PolyCollection_4">
    <path d="M 372.13002 286.453202 
L 356.4962 286.453202 
L 355.122264 284.100826 
L 353.662871 281.748451 
L 352.140993 279.396075 
L 350.582644 277.043699 
L 349.015883 274.691323 
L 347.469746 272.338947 
L 345.973076 269.986572 
L 344.553272 267.634196 
L 343.234921 265.28182 
L 342.038373 262.929444 
L 340.978332 260.577069 
L 340.06265 258.224693 
L 339.291498 255.872317 
L 338.657132 253.519941 
L 338.144412 251.167565 
L 337.732117 248.81519 
L 337.395001 246.462814 
L 337.106356 244.110438 
L 336.840767 241.758062 
L 336.576656 239.405687 
L 336.298245 237.053311 
L 335.996623 234.700935 
L 335.669782 232.348559 
L 335.321619 229.996183 
L 334.960134 227.643808 
L 334.595134 225.291432 
L 334.235884 222.939056 
L 333.889102 220.58668 
L 333.557668 218.234305 
L 333.240241 215.881929 
L 332.931851 213.529553 
L 332.625348 211.177177 
L 332.313441 208.824801 
L 331.990992 206.472426 
L 331.657159 204.12005 
L 331.317028 201.767674 
L 330.982446 199.415298 
L 330.671889 197.062923 
L 330.409338 194.710547 
L 330.222259 192.358171 
L 330.138947 190.005795 
L 330.185539 187.653419 
L 330.383074 185.301044 
L 330.744991 182.948668 
L 331.27537 180.596292 
L 331.968166 178.243916 
L 332.807551 175.891541 
L 333.769311 173.539165 
L 334.823144 171.186789 
L 335.935549 168.834413 
L 337.072937 166.482037 
L 338.204563 164.129662 
L 339.304937 161.777286 
L 340.355419 159.42491 
L 341.344885 157.072534 
L 342.269454 154.720158 
L 343.131404 152.367783 
L 343.937533 150.015407 
L 344.697235 147.663031 
L 345.420617 145.310655 
L 346.116898 142.95828 
L 346.793298 140.605904 
L 347.454514 138.253528 
L 348.102762 135.901152 
L 348.738327 133.548776 
L 349.360424 131.196401 
L 349.968192 128.844025 
L 350.56159 126.491649 
L 351.14202 124.139273 
L 351.712522 121.786898 
L 352.277515 119.434522 
L 352.842091 117.082146 
L 353.411014 114.72977 
L 353.987593 112.377394 
L 354.572678 110.025019 
L 355.163973 107.672643 
L 355.755843 105.320267 
L 356.339672 102.967891 
L 356.904753 100.615516 
L 357.439579 98.26314 
L 357.933325 95.910764 
L 358.377285 93.558388 
L 358.766038 91.206012 
L 359.098163 88.853637 
L 359.376414 86.501261 
L 359.607341 84.148885 
L 359.80046 81.796509 
L 359.967113 79.444134 
L 360.119201 77.091758 
L 360.267986 74.739382 
L 360.423096 72.387006 
L 360.591844 70.03463 
L 360.778879 67.682255 
L 360.986159 65.329879 
L 361.213179 62.977503 
L 361.457374 60.625127 
L 361.714604 58.272752 
L 361.97968 55.920376 
L 362.246853 53.568 
L 366.379368 53.568 
L 366.379368 53.568 
L 366.64654 55.920376 
L 366.911616 58.272752 
L 367.168846 60.625127 
L 367.413041 62.977503 
L 367.640061 65.329879 
L 367.847341 67.682255 
L 368.034376 70.03463 
L 368.203124 72.387006 
L 368.358234 74.739382 
L 368.507019 77.091758 
L 368.659107 79.444134 
L 368.82576 81.796509 
L 369.018879 84.148885 
L 369.249806 86.501261 
L 369.528057 88.853637 
L 369.860182 91.206012 
L 370.248935 93.558388 
L 370.692895 95.910764 
L 371.186641 98.26314 
L 371.721468 100.615516 
L 372.286548 102.967891 
L 372.870377 105.320267 
L 373.462247 107.672643 
L 374.053543 110.025019 
L 374.638627 112.377394 
L 375.215206 114.72977 
L 375.784129 117.082146 
L 376.348705 119.434522 
L 376.913698 121.786898 
L 377.484201 124.139273 
L 378.06463 126.491649 
L 378.658028 128.844025 
L 379.265796 131.196401 
L 379.887893 133.548776 
L 380.523458 135.901152 
L 381.171706 138.253528 
L 381.832922 140.605904 
L 382.509322 142.95828 
L 383.205603 145.310655 
L 383.928985 147.663031 
L 384.688688 150.015407 
L 385.494816 152.367783 
L 386.356766 154.720158 
L 387.281335 157.072534 
L 388.270801 159.42491 
L 389.321283 161.777286 
L 390.421657 164.129662 
L 391.553284 166.482037 
L 392.690671 168.834413 
L 393.803076 171.186789 
L 394.856909 173.539165 
L 395.818669 175.891541 
L 396.658054 178.243916 
L 397.35085 180.596292 
L 397.881229 182.948668 
L 398.243146 185.301044 
L 398.440681 187.653419 
L 398.487273 190.005795 
L 398.403961 192.358171 
L 398.216882 194.710547 
L 397.954331 197.062923 
L 397.643774 199.415298 
L 397.309192 201.767674 
L 396.969061 204.12005 
L 396.635228 206.472426 
L 396.312779 208.824801 
L 396.000872 211.177177 
L 395.694369 213.529553 
L 395.385979 215.881929 
L 395.068552 218.234305 
L 394.737118 220.58668 
L 394.390336 222.939056 
L 394.031086 225.291432 
L 393.666086 227.643808 
L 393.304601 229.996183 
L 392.956438 232.348559 
L 392.629597 234.700935 
L 392.327975 237.053311 
L 392.049564 239.405687 
L 391.785453 241.758062 
L 391.519864 244.110438 
L 391.231219 246.462814 
L 390.894103 248.81519 
L 390.481808 251.167565 
L 389.969088 253.519941 
L 389.334722 255.872317 
L 388.56357 258.224693 
L 387.647888 260.577069 
L 386.587848 262.929444 
L 385.391299 265.28182 
L 384.072948 267.634196 
L 382.653144 269.986572 
L 381.156474 272.338947 
L 379.610337 274.691323 
L 378.043576 277.043699 
L 376.485227 279.396075 
L 374.963349 281.748451 
L 373.503956 284.100826 
L 372.13002 286.453202 
z
" clip-path="url(#p56afb34927)" style="fill: #1f77b4; fill-opacity: 0.3"/>
   </g>
   <g id="matplotlib.axis_1">
    <g id="xtick_1">
     <g id="line2d_1">
      <path d="M 65.289187 307.584 
L 65.289187 41.472 
" clip-path="url(#p56afb34927)" style="fill: none; stroke-dasharray: 2.96,1.28; stroke-dashoffset: 0; stroke: #b0b0b0; stroke-width: 0.8"/>
     </g>
     <g id="line2d_2">
      <defs>
       <path id="mb9a6e36130" d="M 0 0 
L 0 3.5 
" style="stroke: #000000; stroke-width: 0.8"/>
      </defs>
      <g>
       <use xlink:href="#mb9a6e36130" x="65.289187" y="307.584" style="stroke: #000000; stroke-width: 0.8"/>
      </g>
     </g>
     <g id="text_1">
      <!-- 250 -->
      <g transform="translate(55.745437 322.182437)scale(0.1 -0.1)">
       <defs>
        <path id="DejaVuSans-32" d="M 1228 531 
L 3431 531 
L 3431 0 
L 469 0 
L 469 531 
Q 828 903 1448 1529 
Q 2069 2156 2228 2338 
Q 2531 2678 2651 2914 
Q 2772 3150 2772 3378 
Q 2772 3750 2511 3984 
Q 2250 4219 1831 4219 
Q 1534 4219 1204 4116 
Q 875 4013 500 3803 
L 500 4441 
Q 881 4594 1212 4672 
Q 1544 4750 1819 4750 
Q 2544 4750 2975 4387 
Q 3406 4025 3406 3419 
Q 3406 3131 3298 2873 
Q 3191 2616 2906 2266 
Q 2828 2175 2409 1742 
Q 1991 1309 1228 531 
z
" transform="scale(0.015625)"/>
        <path id="DejaVuSans-35" d="M 691 4666 
L 3169 4666 
L 3169 4134 
L 1269 4134 
L 1269 2991 
Q 1406 3038 1543 3061 
Q 1681 3084 1819 3084 
Q 2600 3084 3056 2656 
Q 3513 2228 3513 1497 
Q 3513 744 3044 326 
Q 2575 -91 1722 -91 
Q 1428 -91 1123 -41 
Q 819 9 494 109 
L 494 744 
Q 775 591 1075 516 
Q 1375 441 1709 441 
Q 2250 441 2565 725 
Q 2881 1009 2881 1497 
Q 2881 1984 2565 2268 
Q 2250 2553 1709 2553 
Q 1456 2553 1204 2497 
Q 953 2441 691 2322 
L 691 4666 
z
" transform="scale(0.015625)"/>
        <path id="DejaVuSans-30" d="M 2034 4250 
Q 1547 4250 1301 3770 
Q 1056 3291 1056 2328 
Q 1056 1369 1301 889 
Q 1547 409 2034 409 
Q 2525 409 2770 889 
Q 3016 1369 3016 2328 
Q 3016 3291 2770 3770 
Q 2525 4250 2034 4250 
z
M 2034 4750 
Q 2819 4750 3233 4129 
Q 3647 3509 3647 2328 
Q 3647 1150 3233 529 
Q 2819 -91 2034 -91 
Q 1250 -91 836 529 
Q 422 1150 422 2328 
Q 422 3509 836 4129 
Q 1250 4750 2034 4750 
z
" transform="scale(0.015625)"/>
       </defs>
       <use xlink:href="#DejaVuSans-32"/>
       <use xlink:href="#DejaVuSans-35" x="63.623047"/>
       <use xlink:href="#DejaVuSans-30" x="127.246094"/>
      </g>
     </g>
    </g>
    <g id="xtick_2">
     <g id="line2d_3">
      <path d="M 108.00689 307.584 
L 108.00689 41.472 
" clip-path="url(#p56afb34927)" style="fill: none; stroke-dasharray: 2.96,1.28; stroke-dashoffset: 0; stroke: #b0b0b0; stroke-width: 0.8"/>
     </g>
     <g id="line2d_4">
      <g>
       <use xlink:href="#mb9a6e36130" x="108.00689" y="307.584" style="stroke: #000000; stroke-width: 0.8"/>
      </g>
     </g>
     <g id="text_2">
      <!-- 500 -->
      <g transform="translate(98.46314 322.182437)scale(0.1 -0.1)">
       <use xlink:href="#DejaVuSans-35"/>
       <use xlink:href="#DejaVuSans-30" x="63.623047"/>
       <use xlink:href="#DejaVuSans-30" x="127.246094"/>
      </g>
     </g>
    </g>
    <g id="xtick_3">
     <g id="line2d_5">
      <path d="M 150.724593 307.584 
L 150.724593 41.472 
" clip-path="url(#p56afb34927)" style="fill: none; stroke-dasharray: 2.96,1.28; stroke-dashoffset: 0; stroke: #b0b0b0; stroke-width: 0.8"/>
     </g>
     <g id="line2d_6">
      <g>
       <use xlink:href="#mb9a6e36130" x="150.724593" y="307.584" style="stroke: #000000; stroke-width: 0.8"/>
      </g>
     </g>
     <g id="text_3">
      <!-- 750 -->
      <g transform="translate(141.180843 322.182437)scale(0.1 -0.1)">
       <defs>
        <path id="DejaVuSans-37" d="M 525 4666 
L 3525 4666 
L 3525 4397 
L 1831 0 
L 1172 0 
L 2766 4134 
L 525 4134 
L 525 4666 
z
" transform="scale(0.015625)"/>
       </defs>
       <use xlink:href="#DejaVuSans-37"/>
       <use xlink:href="#DejaVuSans-35" x="63.623047"/>
       <use xlink:href="#DejaVuSans-30" x="127.246094"/>
      </g>
     </g>
    </g>
    <g id="xtick_4">
     <g id="line2d_7">
      <path d="M 193.442297 307.584 
L 193.442297 41.472 
" clip-path="url(#p56afb34927)" style="fill: none; stroke-dasharray: 2.96,1.28; stroke-dashoffset: 0; stroke: #b0b0b0; stroke-width: 0.8"/>
     </g>
     <g id="line2d_8">
      <g>
       <use xlink:href="#mb9a6e36130" x="193.442297" y="307.584" style="stroke: #000000; stroke-width: 0.8"/>
      </g>
     </g>
     <g id="text_4">
      <!-- 1000 -->
      <g transform="translate(180.717297 322.182437)scale(0.1 -0.1)">
       <defs>
        <path id="DejaVuSans-31" d="M 794 531 
L 1825 531 
L 1825 4091 
L 703 3866 
L 703 4441 
L 1819 4666 
L 2450 4666 
L 2450 531 
L 3481 531 
L 3481 0 
L 794 0 
L 794 531 
z
" transform="scale(0.015625)"/>
       </defs>
       <use xlink:href="#DejaVuSans-31"/>
       <use xlink:href="#DejaVuSans-30" x="63.623047"/>
       <use xlink:href="#DejaVuSans-30" x="127.246094"/>
       <use xlink:href="#DejaVuSans-30" x="190.869141"/>
      </g>
     </g>
    </g>
    <g id="xtick_5">
     <g id="line2d_9">
      <path d="M 236.16 307.584 
L 236.16 41.472 
" clip-path="url(#p56afb34927)" style="fill: none; stroke-dasharray: 2.96,1.28; stroke-dashoffset: 0; stroke: #b0b0b0; stroke-width: 0.8"/>
     </g>
     <g id="line2d_10">
      <g>
       <use xlink:href="#mb9a6e36130" x="236.16" y="307.584" style="stroke: #000000; stroke-width: 0.8"/>
      </g>
     </g>
     <g id="text_5">
      <!-- 1250 -->
      <g transform="translate(223.435 322.182437)scale(0.1 -0.1)">
       <use xlink:href="#DejaVuSans-31"/>
       <use xlink:href="#DejaVuSans-32" x="63.623047"/>
       <use xlink:href="#DejaVuSans-35" x="127.246094"/>
       <use xlink:href="#DejaVuSans-30" x="190.869141"/>
      </g>
     </g>
    </g>
    <g id="xtick_6">
     <g id="line2d_11">
      <path d="M 278.877703 307.584 
L 278.877703 41.472 
" clip-path="url(#p56afb34927)" style="fill: none; stroke-dasharray: 2.96,1.28; stroke-dashoffset: 0; stroke: #b0b0b0; stroke-width: 0.8"/>
     </g>
     <g id="line2d_12">
      <g>
       <use xlink:href="#mb9a6e36130" x="278.877703" y="307.584" style="stroke: #000000; stroke-width: 0.8"/>
      </g>
     </g>
     <g id="text_6">
      <!-- 1500 -->
      <g transform="translate(266.152703 322.182437)scale(0.1 -0.1)">
       <use xlink:href="#DejaVuSans-31"/>
       <use xlink:href="#DejaVuSans-35" x="63.623047"/>
       <use xlink:href="#DejaVuSans-30" x="127.246094"/>
       <use xlink:href="#DejaVuSans-30" x="190.869141"/>
      </g>
     </g>
    </g>
    <g id="xtick_7">
     <g id="line2d_13">
      <path d="M 321.595407 307.584 
L 321.595407 41.472 
" clip-path="url(#p56afb34927)" style="fill: none; stroke-dasharray: 2.96,1.28; stroke-dashoffset: 0; stroke: #b0b0b0; stroke-width: 0.8"/>
     </g>
     <g id="line2d_14">
      <g>
       <use xlink:href="#mb9a6e36130" x="321.595407" y="307.584" style="stroke: #000000; stroke-width: 0.8"/>
      </g>
     </g>
     <g id="text_7">
      <!-- 1750 -->
      <g transform="translate(308.870407 322.182437)scale(0.1 -0.1)">
       <use xlink:href="#DejaVuSans-31"/>
       <use xlink:href="#DejaVuSans-37" x="63.623047"/>
       <use xlink:href="#DejaVuSans-35" x="127.246094"/>
       <use xlink:href="#DejaVuSans-30" x="190.869141"/>
      </g>
     </g>
    </g>
    <g id="xtick_8">
     <g id="line2d_15">
      <path d="M 364.31311 307.584 
L 364.31311 41.472 
" clip-path="url(#p56afb34927)" style="fill: none; stroke-dasharray: 2.96,1.28; stroke-dashoffset: 0; stroke: #b0b0b0; stroke-width: 0.8"/>
     </g>
     <g id="line2d_16">
      <g>
       <use xlink:href="#mb9a6e36130" x="364.31311" y="307.584" style="stroke: #000000; stroke-width: 0.8"/>
      </g>
     </g>
     <g id="text_8">
      <!-- 2000 -->
      <g transform="translate(351.58811 322.182437)scale(0.1 -0.1)">
       <use xlink:href="#DejaVuSans-32"/>
       <use xlink:href="#DejaVuSans-30" x="63.623047"/>
       <use xlink:href="#DejaVuSans-30" x="127.246094"/>
       <use xlink:href="#DejaVuSans-30" x="190.869141"/>
      </g>
     </g>
    </g>
    <g id="xtick_9">
     <g id="line2d_17">
      <path d="M 407.030813 307.584 
L 407.030813 41.472 
" clip-path="url(#p56afb34927)" style="fill: none; stroke-dasharray: 2.96,1.28; stroke-dashoffset: 0; stroke: #b0b0b0; stroke-width: 0.8"/>
     </g>
     <g id="line2d_18">
      <g>
       <use xlink:href="#mb9a6e36130" x="407.030813" y="307.584" style="stroke: #000000; stroke-width: 0.8"/>
      </g>
     </g>
     <g id="text_9">
      <!-- 2250 -->
      <g transform="translate(394.305813 322.182437)scale(0.1 -0.1)">
       <use xlink:href="#DejaVuSans-32"/>
       <use xlink:href="#DejaVuSans-32" x="63.623047"/>
       <use xlink:href="#DejaVuSans-35" x="127.246094"/>
       <use xlink:href="#DejaVuSans-30" x="190.869141"/>
      </g>
     </g>
    </g>
    <g id="text_10">
     <!-- Learned Episodes -->
     <g transform="translate(192.102187 335.860562)scale(0.1 -0.1)">
      <defs>
       <path id="DejaVuSans-4c" d="M 628 4666 
L 1259 4666 
L 1259 531 
L 3531 531 
L 3531 0 
L 628 0 
L 628 4666 
z
" transform="scale(0.015625)"/>
       <path id="DejaVuSans-65" d="M 3597 1894 
L 3597 1613 
L 953 1613 
Q 991 1019 1311 708 
Q 1631 397 2203 397 
Q 2534 397 2845 478 
Q 3156 559 3463 722 
L 3463 178 
Q 3153 47 2828 -22 
Q 2503 -91 2169 -91 
Q 1331 -91 842 396 
Q 353 884 353 1716 
Q 353 2575 817 3079 
Q 1281 3584 2069 3584 
Q 2775 3584 3186 3129 
Q 3597 2675 3597 1894 
z
M 3022 2063 
Q 3016 2534 2758 2815 
Q 2500 3097 2075 3097 
Q 1594 3097 1305 2825 
Q 1016 2553 972 2059 
L 3022 2063 
z
" transform="scale(0.015625)"/>
       <path id="DejaVuSans-61" d="M 2194 1759 
Q 1497 1759 1228 1600 
Q 959 1441 959 1056 
Q 959 750 1161 570 
Q 1363 391 1709 391 
Q 2188 391 2477 730 
Q 2766 1069 2766 1631 
L 2766 1759 
L 2194 1759 
z
M 3341 1997 
L 3341 0 
L 2766 0 
L 2766 531 
Q 2569 213 2275 61 
Q 1981 -91 1556 -91 
Q 1019 -91 701 211 
Q 384 513 384 1019 
Q 384 1609 779 1909 
Q 1175 2209 1959 2209 
L 2766 2209 
L 2766 2266 
Q 2766 2663 2505 2880 
Q 2244 3097 1772 3097 
Q 1472 3097 1187 3025 
Q 903 2953 641 2809 
L 641 3341 
Q 956 3463 1253 3523 
Q 1550 3584 1831 3584 
Q 2591 3584 2966 3190 
Q 3341 2797 3341 1997 
z
" transform="scale(0.015625)"/>
       <path id="DejaVuSans-72" d="M 2631 2963 
Q 2534 3019 2420 3045 
Q 2306 3072 2169 3072 
Q 1681 3072 1420 2755 
Q 1159 2438 1159 1844 
L 1159 0 
L 581 0 
L 581 3500 
L 1159 3500 
L 1159 2956 
Q 1341 3275 1631 3429 
Q 1922 3584 2338 3584 
Q 2397 3584 2469 3576 
Q 2541 3569 2628 3553 
L 2631 2963 
z
" transform="scale(0.015625)"/>
       <path id="DejaVuSans-6e" d="M 3513 2113 
L 3513 0 
L 2938 0 
L 2938 2094 
Q 2938 2591 2744 2837 
Q 2550 3084 2163 3084 
Q 1697 3084 1428 2787 
Q 1159 2491 1159 1978 
L 1159 0 
L 581 0 
L 581 3500 
L 1159 3500 
L 1159 2956 
Q 1366 3272 1645 3428 
Q 1925 3584 2291 3584 
Q 2894 3584 3203 3211 
Q 3513 2838 3513 2113 
z
" transform="scale(0.015625)"/>
       <path id="DejaVuSans-64" d="M 2906 2969 
L 2906 4863 
L 3481 4863 
L 3481 0 
L 2906 0 
L 2906 525 
Q 2725 213 2448 61 
Q 2172 -91 1784 -91 
Q 1150 -91 751 415 
Q 353 922 353 1747 
Q 353 2572 751 3078 
Q 1150 3584 1784 3584 
Q 2172 3584 2448 3432 
Q 2725 3281 2906 2969 
z
M 947 1747 
Q 947 1113 1208 752 
Q 1469 391 1925 391 
Q 2381 391 2643 752 
Q 2906 1113 2906 1747 
Q 2906 2381 2643 2742 
Q 2381 3103 1925 3103 
Q 1469 3103 1208 2742 
Q 947 2381 947 1747 
z
" transform="scale(0.015625)"/>
       <path id="DejaVuSans-20" transform="scale(0.015625)"/>
       <path id="DejaVuSans-45" d="M 628 4666 
L 3578 4666 
L 3578 4134 
L 1259 4134 
L 1259 2753 
L 3481 2753 
L 3481 2222 
L 1259 2222 
L 1259 531 
L 3634 531 
L 3634 0 
L 628 0 
L 628 4666 
z
" transform="scale(0.015625)"/>
       <path id="DejaVuSans-70" d="M 1159 525 
L 1159 -1331 
L 581 -1331 
L 581 3500 
L 1159 3500 
L 1159 2969 
Q 1341 3281 1617 3432 
Q 1894 3584 2278 3584 
Q 2916 3584 3314 3078 
Q 3713 2572 3713 1747 
Q 3713 922 3314 415 
Q 2916 -91 2278 -91 
Q 1894 -91 1617 61 
Q 1341 213 1159 525 
z
M 3116 1747 
Q 3116 2381 2855 2742 
Q 2594 3103 2138 3103 
Q 1681 3103 1420 2742 
Q 1159 2381 1159 1747 
Q 1159 1113 1420 752 
Q 1681 391 2138 391 
Q 2594 391 2855 752 
Q 3116 1113 3116 1747 
z
" transform="scale(0.015625)"/>
       <path id="DejaVuSans-69" d="M 603 3500 
L 1178 3500 
L 1178 0 
L 603 0 
L 603 3500 
z
M 603 4863 
L 1178 4863 
L 1178 4134 
L 603 4134 
L 603 4863 
z
" transform="scale(0.015625)"/>
       <path id="DejaVuSans-73" d="M 2834 3397 
L 2834 2853 
Q 2591 2978 2328 3040 
Q 2066 3103 1784 3103 
Q 1356 3103 1142 2972 
Q 928 2841 928 2578 
Q 928 2378 1081 2264 
Q 1234 2150 1697 2047 
L 1894 2003 
Q 2506 1872 2764 1633 
Q 3022 1394 3022 966 
Q 3022 478 2636 193 
Q 2250 -91 1575 -91 
Q 1294 -91 989 -36 
Q 684 19 347 128 
L 347 722 
Q 666 556 975 473 
Q 1284 391 1588 391 
Q 1994 391 2212 530 
Q 2431 669 2431 922 
Q 2431 1156 2273 1281 
Q 2116 1406 1581 1522 
L 1381 1569 
Q 847 1681 609 1914 
Q 372 2147 372 2553 
Q 372 3047 722 3315 
Q 1072 3584 1716 3584 
Q 2034 3584 2315 3537 
Q 2597 3491 2834 3397 
z
" transform="scale(0.015625)"/>
       <path id="DejaVuSans-6f" d="M 1959 3097 
Q 1497 3097 1228 2736 
Q 959 2375 959 1747 
Q 959 1119 1226 758 
Q 1494 397 1959 397 
Q 2419 397 2687 759 
Q 2956 1122 2956 1747 
Q 2956 2369 2687 2733 
Q 2419 3097 1959 3097 
z
M 1959 3584 
Q 2709 3584 3137 3096 
Q 3566 2609 3566 1747 
Q 3566 888 3137 398 
Q 2709 -91 1959 -91 
Q 1206 -91 779 398 
Q 353 888 353 1747 
Q 353 2609 779 3096 
Q 1206 3584 1959 3584 
z
" transform="scale(0.015625)"/>
      </defs>
      <use xlink:href="#DejaVuSans-4c"/>
      <use xlink:href="#DejaVuSans-65" x="53.962891"/>
      <use xlink:href="#DejaVuSans-61" x="115.486328"/>
      <use xlink:href="#DejaVuSans-72" x="176.765625"/>
      <use xlink:href="#DejaVuSans-6e" x="216.128906"/>
      <use xlink:href="#DejaVuSans-65" x="279.507812"/>
      <use xlink:href="#DejaVuSans-64" x="341.03125"/>
      <use xlink:href="#DejaVuSans-20" x="404.507812"/>
      <use xlink:href="#DejaVuSans-45" x="436.294922"/>
      <use xlink:href="#DejaVuSans-70" x="499.478516"/>
      <use xlink:href="#DejaVuSans-69" x="562.955078"/>
      <use xlink:href="#DejaVuSans-73" x="590.738281"/>
      <use xlink:href="#DejaVuSans-6f" x="642.837891"/>
      <use xlink:href="#DejaVuSans-64" x="704.019531"/>
      <use xlink:href="#DejaVuSans-65" x="767.496094"/>
      <use xlink:href="#DejaVuSans-73" x="829.019531"/>
     </g>
    </g>
   </g>
   <g id="matplotlib.axis_2">
    <g id="ytick_1">
     <g id="line2d_19">
      <path d="M 57.6 254.671972 
L 414.72 254.671972 
" clip-path="url(#p56afb34927)" style="fill: none; stroke-dasharray: 2.96,1.28; stroke-dashoffset: 0; stroke: #b0b0b0; stroke-width: 0.8"/>
     </g>
     <g id="line2d_20">
      <defs>
       <path id="mc86bc40c2f" d="M 0 0 
L -3.5 0 
" style="stroke: #000000; stroke-width: 0.8"/>
      </defs>
      <g>
       <use xlink:href="#mc86bc40c2f" x="57.6" y="254.671972" style="stroke: #000000; stroke-width: 0.8"/>
      </g>
     </g>
     <g id="text_11">
      <!-- 10 -->
      <g transform="translate(37.875 258.471191)scale(0.1 -0.1)">
       <use xlink:href="#DejaVuSans-31"/>
       <use xlink:href="#DejaVuSans-30" x="63.623047"/>
      </g>
     </g>
    </g>
    <g id="ytick_2">
     <g id="line2d_21">
      <path d="M 57.6 201.526102 
L 414.72 201.526102 
" clip-path="url(#p56afb34927)" style="fill: none; stroke-dasharray: 2.96,1.28; stroke-dashoffset: 0; stroke: #b0b0b0; stroke-width: 0.8"/>
     </g>
     <g id="line2d_22">
      <g>
       <use xlink:href="#mc86bc40c2f" x="57.6" y="201.526102" style="stroke: #000000; stroke-width: 0.8"/>
      </g>
     </g>
     <g id="text_12">
      <!-- 20 -->
      <g transform="translate(37.875 205.325321)scale(0.1 -0.1)">
       <use xlink:href="#DejaVuSans-32"/>
       <use xlink:href="#DejaVuSans-30" x="63.623047"/>
      </g>
     </g>
    </g>
    <g id="ytick_3">
     <g id="line2d_23">
      <path d="M 57.6 148.380232 
L 414.72 148.380232 
" clip-path="url(#p56afb34927)" style="fill: none; stroke-dasharray: 2.96,1.28; stroke-dashoffset: 0; stroke: #b0b0b0; stroke-width: 0.8"/>
     </g>
     <g id="line2d_24">
      <g>
       <use xlink:href="#mc86bc40c2f" x="57.6" y="148.380232" style="stroke: #000000; stroke-width: 0.8"/>
      </g>
     </g>
     <g id="text_13">
      <!-- 30 -->
      <g transform="translate(37.875 152.179451)scale(0.1 -0.1)">
       <defs>
        <path id="DejaVuSans-33" d="M 2597 2516 
Q 3050 2419 3304 2112 
Q 3559 1806 3559 1356 
Q 3559 666 3084 287 
Q 2609 -91 1734 -91 
Q 1441 -91 1130 -33 
Q 819 25 488 141 
L 488 750 
Q 750 597 1062 519 
Q 1375 441 1716 441 
Q 2309 441 2620 675 
Q 2931 909 2931 1356 
Q 2931 1769 2642 2001 
Q 2353 2234 1838 2234 
L 1294 2234 
L 1294 2753 
L 1863 2753 
Q 2328 2753 2575 2939 
Q 2822 3125 2822 3475 
Q 2822 3834 2567 4026 
Q 2313 4219 1838 4219 
Q 1578 4219 1281 4162 
Q 984 4106 628 3988 
L 628 4550 
Q 988 4650 1302 4700 
Q 1616 4750 1894 4750 
Q 2613 4750 3031 4423 
Q 3450 4097 3450 3541 
Q 3450 3153 3228 2886 
Q 3006 2619 2597 2516 
z
" transform="scale(0.015625)"/>
       </defs>
       <use xlink:href="#DejaVuSans-33"/>
       <use xlink:href="#DejaVuSans-30" x="63.623047"/>
      </g>
     </g>
    </g>
    <g id="ytick_4">
     <g id="line2d_25">
      <path d="M 57.6 95.234362 
L 414.72 95.234362 
" clip-path="url(#p56afb34927)" style="fill: none; stroke-dasharray: 2.96,1.28; stroke-dashoffset: 0; stroke: #b0b0b0; stroke-width: 0.8"/>
     </g>
     <g id="line2d_26">
      <g>
       <use xlink:href="#mc86bc40c2f" x="57.6" y="95.234362" style="stroke: #000000; stroke-width: 0.8"/>
      </g>
     </g>
     <g id="text_14">
      <!-- 40 -->
      <g transform="translate(37.875 99.033581)scale(0.1 -0.1)">
       <defs>
        <path id="DejaVuSans-34" d="M 2419 4116 
L 825 1625 
L 2419 1625 
L 2419 4116 
z
M 2253 4666 
L 3047 4666 
L 3047 1625 
L 3713 1625 
L 3713 1100 
L 3047 1100 
L 3047 0 
L 2419 0 
L 2419 1100 
L 313 1100 
L 313 1709 
L 2253 4666 
z
" transform="scale(0.015625)"/>
       </defs>
       <use xlink:href="#DejaVuSans-34"/>
       <use xlink:href="#DejaVuSans-30" x="63.623047"/>
      </g>
     </g>
    </g>
    <g id="ytick_5">
     <g id="line2d_27">
      <path d="M 57.6 42.088492 
L 414.72 42.088492 
" clip-path="url(#p56afb34927)" style="fill: none; stroke-dasharray: 2.96,1.28; stroke-dashoffset: 0; stroke: #b0b0b0; stroke-width: 0.8"/>
     </g>
     <g id="line2d_28">
      <g>
       <use xlink:href="#mc86bc40c2f" x="57.6" y="42.088492" style="stroke: #000000; stroke-width: 0.8"/>
      </g>
     </g>
     <g id="text_15">
      <!-- 50 -->
      <g transform="translate(37.875 45.887711)scale(0.1 -0.1)">
       <use xlink:href="#DejaVuSans-35"/>
       <use xlink:href="#DejaVuSans-30" x="63.623047"/>
      </g>
     </g>
    </g>
    <g id="text_16">
     <!-- Reward Density -->
     <g transform="translate(31.795312 213.74675)rotate(-90)scale(0.1 -0.1)">
      <defs>
       <path id="DejaVuSans-52" d="M 2841 2188 
Q 3044 2119 3236 1894 
Q 3428 1669 3622 1275 
L 4263 0 
L 3584 0 
L 2988 1197 
Q 2756 1666 2539 1819 
Q 2322 1972 1947 1972 
L 1259 1972 
L 1259 0 
L 628 0 
L 628 4666 
L 2053 4666 
Q 2853 4666 3247 4331 
Q 3641 3997 3641 3322 
Q 3641 2881 3436 2590 
Q 3231 2300 2841 2188 
z
M 1259 4147 
L 1259 2491 
L 2053 2491 
Q 2509 2491 2742 2702 
Q 2975 2913 2975 3322 
Q 2975 3731 2742 3939 
Q 2509 4147 2053 4147 
L 1259 4147 
z
" transform="scale(0.015625)"/>
       <path id="DejaVuSans-77" d="M 269 3500 
L 844 3500 
L 1563 769 
L 2278 3500 
L 2956 3500 
L 3675 769 
L 4391 3500 
L 4966 3500 
L 4050 0 
L 3372 0 
L 2619 2869 
L 1863 0 
L 1184 0 
L 269 3500 
z
" transform="scale(0.015625)"/>
       <path id="DejaVuSans-44" d="M 1259 4147 
L 1259 519 
L 2022 519 
Q 2988 519 3436 956 
Q 3884 1394 3884 2338 
Q 3884 3275 3436 3711 
Q 2988 4147 2022 4147 
L 1259 4147 
z
M 628 4666 
L 1925 4666 
Q 3281 4666 3915 4102 
Q 4550 3538 4550 2338 
Q 4550 1131 3912 565 
Q 3275 0 1925 0 
L 628 0 
L 628 4666 
z
" transform="scale(0.015625)"/>
       <path id="DejaVuSans-74" d="M 1172 4494 
L 1172 3500 
L 2356 3500 
L 2356 3053 
L 1172 3053 
L 1172 1153 
Q 1172 725 1289 603 
Q 1406 481 1766 481 
L 2356 481 
L 2356 0 
L 1766 0 
Q 1100 0 847 248 
Q 594 497 594 1153 
L 594 3053 
L 172 3053 
L 172 3500 
L 594 3500 
L 594 4494 
L 1172 4494 
z
" transform="scale(0.015625)"/>
       <path id="DejaVuSans-79" d="M 2059 -325 
Q 1816 -950 1584 -1140 
Q 1353 -1331 966 -1331 
L 506 -1331 
L 506 -850 
L 844 -850 
Q 1081 -850 1212 -737 
Q 1344 -625 1503 -206 
L 1606 56 
L 191 3500 
L 800 3500 
L 1894 763 
L 2988 3500 
L 3597 3500 
L 2059 -325 
z
" transform="scale(0.015625)"/>
      </defs>
      <use xlink:href="#DejaVuSans-52"/>
      <use xlink:href="#DejaVuSans-65" x="64.982422"/>
      <use xlink:href="#DejaVuSans-77" x="126.505859"/>
      <use xlink:href="#DejaVuSans-61" x="208.292969"/>
      <use xlink:href="#DejaVuSans-72" x="269.572266"/>
      <use xlink:href="#DejaVuSans-64" x="308.935547"/>
      <use xlink:href="#DejaVuSans-20" x="372.412109"/>
      <use xlink:href="#DejaVuSans-44" x="404.199219"/>
      <use xlink:href="#DejaVuSans-65" x="481.201172"/>
      <use xlink:href="#DejaVuSans-6e" x="542.724609"/>
      <use xlink:href="#DejaVuSans-73" x="606.103516"/>
      <use xlink:href="#DejaVuSans-69" x="658.203125"/>
      <use xlink:href="#DejaVuSans-74" x="685.986328"/>
      <use xlink:href="#DejaVuSans-79" x="725.195312"/>
     </g>
    </g>
   </g>
   <g id="LineCollection_1">
    <path d="M 90.919809 214.098076 
L 125.093971 214.098076 
" clip-path="url(#p56afb34927)" style="fill: none; stroke: #1f77b4; stroke-width: 1.5"/>
    <path d="M 176.355215 213.516448 
L 210.529378 213.516448 
" clip-path="url(#p56afb34927)" style="fill: none; stroke: #1f77b4; stroke-width: 1.5"/>
    <path d="M 261.790622 217.805745 
L 295.964785 217.805745 
" clip-path="url(#p56afb34927)" style="fill: none; stroke: #1f77b4; stroke-width: 1.5"/>
    <path d="M 347.226029 195.22449 
L 381.400191 195.22449 
" clip-path="url(#p56afb34927)" style="fill: none; stroke: #1f77b4; stroke-width: 1.5"/>
   </g>
   <g id="LineCollection_2">
    <path d="M 90.919809 144.234854 
L 125.093971 144.234854 
" clip-path="url(#p56afb34927)" style="fill: none; stroke: #1f77b4; stroke-width: 1.5"/>
    <path d="M 176.355215 77.589933 
L 210.529378 77.589933 
" clip-path="url(#p56afb34927)" style="fill: none; stroke: #1f77b4; stroke-width: 1.5"/>
    <path d="M 261.790622 79.715768 
L 295.964785 79.715768 
" clip-path="url(#p56afb34927)" style="fill: none; stroke: #1f77b4; stroke-width: 1.5"/>
    <path d="M 347.226029 53.568 
L 381.400191 53.568 
" clip-path="url(#p56afb34927)" style="fill: none; stroke: #1f77b4; stroke-width: 1.5"/>
   </g>
   <g id="LineCollection_3">
    <path d="M 90.919809 295.488 
L 125.093971 295.488 
" clip-path="url(#p56afb34927)" style="fill: none; stroke: #1f77b4; stroke-width: 1.5"/>
    <path d="M 176.355215 275.292569 
L 210.529378 275.292569 
" clip-path="url(#p56afb34927)" style="fill: none; stroke: #1f77b4; stroke-width: 1.5"/>
    <path d="M 261.790622 285.177701 
L 295.964785 285.177701 
" clip-path="url(#p56afb34927)" style="fill: none; stroke: #1f77b4; stroke-width: 1.5"/>
    <path d="M 347.226029 286.453202 
L 381.400191 286.453202 
" clip-path="url(#p56afb34927)" style="fill: none; stroke: #1f77b4; stroke-width: 1.5"/>
   </g>
   <g id="LineCollection_4">
    <path d="M 108.00689 295.488 
L 108.00689 144.234854 
" clip-path="url(#p56afb34927)" style="fill: none; stroke: #1f77b4; stroke-width: 1.5"/>
    <path d="M 193.442297 275.292569 
L 193.442297 77.589933 
" clip-path="url(#p56afb34927)" style="fill: none; stroke: #1f77b4; stroke-width: 1.5"/>
    <path d="M 278.877703 285.177701 
L 278.877703 79.715768 
" clip-path="url(#p56afb34927)" style="fill: none; stroke: #1f77b4; stroke-width: 1.5"/>
    <path d="M 364.31311 286.453202 
L 364.31311 53.568 
" clip-path="url(#p56afb34927)" style="fill: none; stroke: #1f77b4; stroke-width: 1.5"/>
   </g>
   <g id="line2d_29">
    <path d="M 108.00689 214.098076 
L 193.442297 213.516448 
L 278.877703 217.805745 
L 364.31311 195.22449 
" clip-path="url(#p56afb34927)" style="fill: none; stroke: #4682b4; stroke-width: 1.5; stroke-linecap: square"/>
   </g>
   <g id="line2d_30">
    <path d="M 108.00689 214.098076 
L 193.442297 213.516448 
L 278.877703 217.805745 
L 364.31311 195.22449 
" clip-path="url(#p56afb34927)" style="fill: none; stroke: #4682b4; stroke-width: 1.5; stroke-linecap: square"/>
   </g>
   <g id="patch_3">
    <path d="M 57.6 307.584 
L 57.6 41.472 
" style="fill: none; stroke: #000000; stroke-width: 0.8; stroke-linejoin: miter; stroke-linecap: square"/>
   </g>
   <g id="patch_4">
    <path d="M 414.72 307.584 
L 414.72 41.472 
" style="fill: none; stroke: #000000; stroke-width: 0.8; stroke-linejoin: miter; stroke-linecap: square"/>
   </g>
   <g id="patch_5">
    <path d="M 57.6 307.584 
L 414.72 307.584 
" style="fill: none; stroke: #000000; stroke-width: 0.8; stroke-linejoin: miter; stroke-linecap: square"/>
   </g>
   <g id="patch_6">
    <path d="M 57.6 41.472 
L 414.72 41.472 
" style="fill: none; stroke: #000000; stroke-width: 0.8; stroke-linejoin: miter; stroke-linecap: square"/>
   </g>
   <g id="text_17">
    <!-- Violinplot for progress of state/in_storage -->
    <g transform="translate(112.1775 35.472)scale(0.12 -0.12)">
     <defs>
      <path id="DejaVuSans-56" d="M 1831 0 
L 50 4666 
L 709 4666 
L 2188 738 
L 3669 4666 
L 4325 4666 
L 2547 0 
L 1831 0 
z
" transform="scale(0.015625)"/>
      <path id="DejaVuSans-6c" d="M 603 4863 
L 1178 4863 
L 1178 0 
L 603 0 
L 603 4863 
z
" transform="scale(0.015625)"/>
      <path id="DejaVuSans-66" d="M 2375 4863 
L 2375 4384 
L 1825 4384 
Q 1516 4384 1395 4259 
Q 1275 4134 1275 3809 
L 1275 3500 
L 2222 3500 
L 2222 3053 
L 1275 3053 
L 1275 0 
L 697 0 
L 697 3053 
L 147 3053 
L 147 3500 
L 697 3500 
L 697 3744 
Q 697 4328 969 4595 
Q 1241 4863 1831 4863 
L 2375 4863 
z
" transform="scale(0.015625)"/>
      <path id="DejaVuSans-67" d="M 2906 1791 
Q 2906 2416 2648 2759 
Q 2391 3103 1925 3103 
Q 1463 3103 1205 2759 
Q 947 2416 947 1791 
Q 947 1169 1205 825 
Q 1463 481 1925 481 
Q 2391 481 2648 825 
Q 2906 1169 2906 1791 
z
M 3481 434 
Q 3481 -459 3084 -895 
Q 2688 -1331 1869 -1331 
Q 1566 -1331 1297 -1286 
Q 1028 -1241 775 -1147 
L 775 -588 
Q 1028 -725 1275 -790 
Q 1522 -856 1778 -856 
Q 2344 -856 2625 -561 
Q 2906 -266 2906 331 
L 2906 616 
Q 2728 306 2450 153 
Q 2172 0 1784 0 
Q 1141 0 747 490 
Q 353 981 353 1791 
Q 353 2603 747 3093 
Q 1141 3584 1784 3584 
Q 2172 3584 2450 3431 
Q 2728 3278 2906 2969 
L 2906 3500 
L 3481 3500 
L 3481 434 
z
" transform="scale(0.015625)"/>
      <path id="DejaVuSans-2f" d="M 1625 4666 
L 2156 4666 
L 531 -594 
L 0 -594 
L 1625 4666 
z
" transform="scale(0.015625)"/>
      <path id="DejaVuSans-5f" d="M 3263 -1063 
L 3263 -1509 
L -63 -1509 
L -63 -1063 
L 3263 -1063 
z
" transform="scale(0.015625)"/>
     </defs>
     <use xlink:href="#DejaVuSans-56"/>
     <use xlink:href="#DejaVuSans-69" x="66.158203"/>
     <use xlink:href="#DejaVuSans-6f" x="93.941406"/>
     <use xlink:href="#DejaVuSans-6c" x="155.123047"/>
     <use xlink:href="#DejaVuSans-69" x="182.90625"/>
     <use xlink:href="#DejaVuSans-6e" x="210.689453"/>
     <use xlink:href="#DejaVuSans-70" x="274.068359"/>
     <use xlink:href="#DejaVuSans-6c" x="337.544922"/>
     <use xlink:href="#DejaVuSans-6f" x="365.328125"/>
     <use xlink:href="#DejaVuSans-74" x="426.509766"/>
     <use xlink:href="#DejaVuSans-20" x="465.71875"/>
     <use xlink:href="#DejaVuSans-66" x="497.505859"/>
     <use xlink:href="#DejaVuSans-6f" x="532.710938"/>
     <use xlink:href="#DejaVuSans-72" x="593.892578"/>
     <use xlink:href="#DejaVuSans-20" x="635.005859"/>
     <use xlink:href="#DejaVuSans-70" x="666.792969"/>
     <use xlink:href="#DejaVuSans-72" x="730.269531"/>
     <use xlink:href="#DejaVuSans-6f" x="769.132812"/>
     <use xlink:href="#DejaVuSans-67" x="830.314453"/>
     <use xlink:href="#DejaVuSans-72" x="893.791016"/>
     <use xlink:href="#DejaVuSans-65" x="932.654297"/>
     <use xlink:href="#DejaVuSans-73" x="994.177734"/>
     <use xlink:href="#DejaVuSans-73" x="1046.277344"/>
     <use xlink:href="#DejaVuSans-20" x="1098.376953"/>
     <use xlink:href="#DejaVuSans-6f" x="1130.164062"/>
     <use xlink:href="#DejaVuSans-66" x="1191.345703"/>
     <use xlink:href="#DejaVuSans-20" x="1226.550781"/>
     <use xlink:href="#DejaVuSans-73" x="1258.337891"/>
     <use xlink:href="#DejaVuSans-74" x="1310.4375"/>
     <use xlink:href="#DejaVuSans-61" x="1349.646484"/>
     <use xlink:href="#DejaVuSans-74" x="1410.925781"/>
     <use xlink:href="#DejaVuSans-65" x="1450.134766"/>
     <use xlink:href="#DejaVuSans-2f" x="1511.658203"/>
     <use xlink:href="#DejaVuSans-69" x="1545.349609"/>
     <use xlink:href="#DejaVuSans-6e" x="1573.132812"/>
     <use xlink:href="#DejaVuSans-5f" x="1636.511719"/>
     <use xlink:href="#DejaVuSans-73" x="1686.511719"/>
     <use xlink:href="#DejaVuSans-74" x="1738.611328"/>
     <use xlink:href="#DejaVuSans-6f" x="1777.820312"/>
     <use xlink:href="#DejaVuSans-72" x="1839.001953"/>
     <use xlink:href="#DejaVuSans-61" x="1880.115234"/>
     <use xlink:href="#DejaVuSans-67" x="1941.394531"/>
     <use xlink:href="#DejaVuSans-65" x="2004.871094"/>
    </g>
   </g>
   <g id="legend_1">
    <g id="patch_7">
     <path d="M 276.25125 64.150125 
L 407.72 64.150125 
Q 409.72 64.150125 409.72 62.150125 
L 409.72 48.472 
Q 409.72 46.472 407.72 46.472 
L 276.25125 46.472 
Q 274.25125 46.472 274.25125 48.472 
L 274.25125 62.150125 
Q 274.25125 64.150125 276.25125 64.150125 
z
" style="fill: #ffffff; opacity: 0.8; stroke: #cccccc; stroke-linejoin: miter"/>
    </g>
    <g id="line2d_31">
     <path d="M 278.25125 54.570438 
L 288.25125 54.570438 
L 298.25125 54.570438 
" style="fill: none; stroke: #4682b4; stroke-width: 1.5; stroke-linecap: square"/>
    </g>
    <g id="text_18">
     <!-- StableBaselinesSAC -->
     <g transform="translate(306.25125 58.070438)scale(0.1 -0.1)">
      <defs>
       <path id="DejaVuSans-53" d="M 3425 4513 
L 3425 3897 
Q 3066 4069 2747 4153 
Q 2428 4238 2131 4238 
Q 1616 4238 1336 4038 
Q 1056 3838 1056 3469 
Q 1056 3159 1242 3001 
Q 1428 2844 1947 2747 
L 2328 2669 
Q 3034 2534 3370 2195 
Q 3706 1856 3706 1288 
Q 3706 609 3251 259 
Q 2797 -91 1919 -91 
Q 1588 -91 1214 -16 
Q 841 59 441 206 
L 441 856 
Q 825 641 1194 531 
Q 1563 422 1919 422 
Q 2459 422 2753 634 
Q 3047 847 3047 1241 
Q 3047 1584 2836 1778 
Q 2625 1972 2144 2069 
L 1759 2144 
Q 1053 2284 737 2584 
Q 422 2884 422 3419 
Q 422 4038 858 4394 
Q 1294 4750 2059 4750 
Q 2388 4750 2728 4690 
Q 3069 4631 3425 4513 
z
" transform="scale(0.015625)"/>
       <path id="DejaVuSans-62" d="M 3116 1747 
Q 3116 2381 2855 2742 
Q 2594 3103 2138 3103 
Q 1681 3103 1420 2742 
Q 1159 2381 1159 1747 
Q 1159 1113 1420 752 
Q 1681 391 2138 391 
Q 2594 391 2855 752 
Q 3116 1113 3116 1747 
z
M 1159 2969 
Q 1341 3281 1617 3432 
Q 1894 3584 2278 3584 
Q 2916 3584 3314 3078 
Q 3713 2572 3713 1747 
Q 3713 922 3314 415 
Q 2916 -91 2278 -91 
Q 1894 -91 1617 61 
Q 1341 213 1159 525 
L 1159 0 
L 581 0 
L 581 4863 
L 1159 4863 
L 1159 2969 
z
" transform="scale(0.015625)"/>
       <path id="DejaVuSans-42" d="M 1259 2228 
L 1259 519 
L 2272 519 
Q 2781 519 3026 730 
Q 3272 941 3272 1375 
Q 3272 1813 3026 2020 
Q 2781 2228 2272 2228 
L 1259 2228 
z
M 1259 4147 
L 1259 2741 
L 2194 2741 
Q 2656 2741 2882 2914 
Q 3109 3088 3109 3444 
Q 3109 3797 2882 3972 
Q 2656 4147 2194 4147 
L 1259 4147 
z
M 628 4666 
L 2241 4666 
Q 2963 4666 3353 4366 
Q 3744 4066 3744 3513 
Q 3744 3084 3544 2831 
Q 3344 2578 2956 2516 
Q 3422 2416 3680 2098 
Q 3938 1781 3938 1306 
Q 3938 681 3513 340 
Q 3088 0 2303 0 
L 628 0 
L 628 4666 
z
" transform="scale(0.015625)"/>
       <path id="DejaVuSans-41" d="M 2188 4044 
L 1331 1722 
L 3047 1722 
L 2188 4044 
z
M 1831 4666 
L 2547 4666 
L 4325 0 
L 3669 0 
L 3244 1197 
L 1141 1197 
L 716 0 
L 50 0 
L 1831 4666 
z
" transform="scale(0.015625)"/>
       <path id="DejaVuSans-43" d="M 4122 4306 
L 4122 3641 
Q 3803 3938 3442 4084 
Q 3081 4231 2675 4231 
Q 1875 4231 1450 3742 
Q 1025 3253 1025 2328 
Q 1025 1406 1450 917 
Q 1875 428 2675 428 
Q 3081 428 3442 575 
Q 3803 722 4122 1019 
L 4122 359 
Q 3791 134 3420 21 
Q 3050 -91 2638 -91 
Q 1578 -91 968 557 
Q 359 1206 359 2328 
Q 359 3453 968 4101 
Q 1578 4750 2638 4750 
Q 3056 4750 3426 4639 
Q 3797 4528 4122 4306 
z
" transform="scale(0.015625)"/>
      </defs>
      <use xlink:href="#DejaVuSans-53"/>
      <use xlink:href="#DejaVuSans-74" x="63.476562"/>
      <use xlink:href="#DejaVuSans-61" x="102.685547"/>
      <use xlink:href="#DejaVuSans-62" x="163.964844"/>
      <use xlink:href="#DejaVuSans-6c" x="227.441406"/>
      <use xlink:href="#DejaVuSans-65" x="255.224609"/>
      <use xlink:href="#DejaVuSans-42" x="316.748047"/>
      <use xlink:href="#DejaVuSans-61" x="385.351562"/>
      <use xlink:href="#DejaVuSans-73" x="446.630859"/>
      <use xlink:href="#DejaVuSans-65" x="498.730469"/>
      <use xlink:href="#DejaVuSans-6c" x="560.253906"/>
      <use xlink:href="#DejaVuSans-69" x="588.037109"/>
      <use xlink:href="#DejaVuSans-6e" x="615.820312"/>
      <use xlink:href="#DejaVuSans-65" x="679.199219"/>
      <use xlink:href="#DejaVuSans-73" x="740.722656"/>
      <use xlink:href="#DejaVuSans-53" x="792.822266"/>
      <use xlink:href="#DejaVuSans-41" x="858.173828"/>
      <use xlink:href="#DejaVuSans-43" x="924.832031"/>
     </g>
    </g>
   </g>
  </g>
 </g>
 <defs>
  <clipPath id="p56afb34927">
   <rect x="57.6" y="41.472" width="357.12" height="266.112"/>
  </clipPath>
 </defs>
</svg>
