<?xml version="1.0" encoding="utf-8" standalone="no"?>
<!DOCTYPE svg PUBLIC "-//W3C//DTD SVG 1.1//EN"
  "http://www.w3.org/Graphics/SVG/1.1/DTD/svg11.dtd">
<svg xmlns:xlink="http://www.w3.org/1999/xlink" width="460.8pt" height="345.6pt" viewBox="0 0 460.8 345.6" xmlns="http://www.w3.org/2000/svg" version="1.1">
 <metadata>
  <rdf:RDF xmlns:dc="http://purl.org/dc/elements/1.1/" xmlns:cc="http://creativecommons.org/ns#" xmlns:rdf="http://www.w3.org/1999/02/22-rdf-syntax-ns#">
   <cc:Work>
    <dc:type rdf:resource="http://purl.org/dc/dcmitype/StillImage"/>
    <dc:date>2022-06-21T09:14:50.333895</dc:date>
    <dc:format>image/svg+xml</dc:format>
    <dc:creator>
     <cc:Agent>
      <dc:title>Matplotlib v3.5.2, https://matplotlib.org/</dc:title>
     </cc:Agent>
    </dc:creator>
   </cc:Work>
  </rdf:RDF>
 </metadata>
 <defs>
  <style type="text/css">*{stroke-linejoin: round; stroke-linecap: butt}</style>
 </defs>
 <g id="figure_1">
  <g id="patch_1">
   <path d="M 0 345.6 
L 460.8 345.6 
L 460.8 0 
L 0 0 
z
" style="fill: #ffffff"/>
  </g>
  <g id="axes_1">
   <g id="patch_2">
    <path d="M 57.6 307.584 
L 414.72 307.584 
L 414.72 41.472 
L 57.6 41.472 
z
" style="fill: #ffffff"/>
   </g>
   <g id="PolyCollection_1">
    <path d="M 127.622022 295.488 
L 88.391758 295.488 
L 87.395652 293.298405 
L 86.566544 291.10881 
L 85.901982 288.919215 
L 85.390401 286.72962 
L 85.012716 284.540025 
L 84.744429 282.35043 
L 84.557946 280.160835 
L 84.424861 277.97124 
L 84.31798 275.781645 
L 84.212942 273.59205 
L 84.089387 271.402455 
L 83.931683 269.21286 
L 83.729269 267.023266 
L 83.476698 264.833671 
L 83.17346 262.644076 
L 82.823623 260.454481 
L 82.435331 258.264886 
L 82.020128 256.075291 
L 81.592109 253.885696 
L 81.166883 251.696101 
L 80.760364 249.506506 
L 80.387442 247.316911 
L 80.060636 245.127316 
L 79.788839 242.937721 
L 79.576304 240.748126 
L 79.421995 238.558531 
L 79.319411 236.368936 
L 79.25693 234.179341 
L 79.218674 231.989746 
L 79.185836 229.800151 
L 79.138342 227.610556 
L 79.056688 225.420961 
L 78.923789 223.231366 
L 78.726632 221.041771 
L 78.457586 218.852176 
L 78.115245 216.662581 
L 77.704715 214.472986 
L 77.237331 212.283392 
L 76.729835 210.093797 
L 76.2031 207.904202 
L 75.680531 205.714607 
L 75.18629 203.525012 
L 74.743519 201.335417 
L 74.372719 199.145822 
L 74.090431 196.956227 
L 73.908321 194.766632 
L 73.832727 192.577037 
L 73.864698 190.387442 
L 74.000463 188.197847 
L 74.232282 186.008252 
L 74.549537 183.818657 
L 74.939968 181.629062 
L 75.39089 179.439467 
L 75.890293 177.249872 
L 76.427713 175.060277 
L 76.994806 172.870682 
L 77.585599 170.681087 
L 78.196428 168.491492 
L 78.825593 166.301897 
L 79.472825 164.112302 
L 80.13864 161.922707 
L 80.823681 159.733113 
L 81.528152 157.543518 
L 82.251397 155.353923 
L 82.991689 153.164328 
L 83.746221 150.974733 
L 84.511293 148.785138 
L 85.282639 146.595543 
L 86.055828 144.405948 
L 86.82667 142.216353 
L 87.591574 140.026758 
L 88.347788 137.837163 
L 89.093526 135.647568 
L 89.827956 133.457973 
L 90.551089 131.268378 
L 91.263578 129.078783 
L 91.96648 126.889188 
L 92.661011 124.699593 
L 93.34831 122.509998 
L 94.029253 120.320403 
L 94.704309 118.130808 
L 95.373451 115.941213 
L 96.036123 113.751618 
L 96.691262 111.562023 
L 97.337378 109.372428 
L 97.972668 107.182833 
L 98.595175 104.993239 
L 99.202963 102.803644 
L 99.794292 100.614049 
L 100.367768 98.424454 
L 100.922445 96.234859 
L 101.457859 94.045264 
L 101.973993 91.855669 
L 102.471164 89.666074 
L 102.949855 87.476479 
L 103.410524 85.286884 
L 103.853408 83.097289 
L 104.27837 80.907694 
L 104.684806 78.718099 
L 111.328974 78.718099 
L 111.328974 78.718099 
L 111.73541 80.907694 
L 112.160372 83.097289 
L 112.603256 85.286884 
L 113.063925 87.476479 
L 113.542616 89.666074 
L 114.039787 91.855669 
L 114.555921 94.045264 
L 115.091335 96.234859 
L 115.646012 98.424454 
L 116.219488 100.614049 
L 116.810817 102.803644 
L 117.418605 104.993239 
L 118.041112 107.182833 
L 118.676402 109.372428 
L 119.322518 111.562023 
L 119.977657 113.751618 
L 120.640329 115.941213 
L 121.30947 118.130808 
L 121.984527 120.320403 
L 122.66547 122.509998 
L 123.352769 124.699593 
L 124.047299 126.889188 
L 124.750202 129.078783 
L 125.462691 131.268378 
L 126.185824 133.457973 
L 126.920254 135.647568 
L 127.665992 137.837163 
L 128.422206 140.026758 
L 129.18711 142.216353 
L 129.957952 144.405948 
L 130.731141 146.595543 
L 131.502486 148.785138 
L 132.267559 150.974733 
L 133.022091 153.164328 
L 133.762382 155.353923 
L 134.485628 157.543518 
L 135.190099 159.733113 
L 135.87514 161.922707 
L 136.540954 164.112302 
L 137.188187 166.301897 
L 137.817352 168.491492 
L 138.42818 170.681087 
L 139.018974 172.870682 
L 139.586067 175.060277 
L 140.123487 177.249872 
L 140.62289 179.439467 
L 141.073812 181.629062 
L 141.464243 183.818657 
L 141.781498 186.008252 
L 142.013317 188.197847 
L 142.149082 190.387442 
L 142.181053 192.577037 
L 142.105459 194.766632 
L 141.923348 196.956227 
L 141.641061 199.145822 
L 141.270261 201.335417 
L 140.82749 203.525012 
L 140.333249 205.714607 
L 139.81068 207.904202 
L 139.283945 210.093797 
L 138.776449 212.283392 
L 138.309065 214.472986 
L 137.898535 216.662581 
L 137.556194 218.852176 
L 137.287148 221.041771 
L 137.089991 223.231366 
L 136.957092 225.420961 
L 136.875438 227.610556 
L 136.827943 229.800151 
L 136.795106 231.989746 
L 136.75685 234.179341 
L 136.694369 236.368936 
L 136.591785 238.558531 
L 136.437476 240.748126 
L 136.224941 242.937721 
L 135.953144 245.127316 
L 135.626338 247.316911 
L 135.253416 249.506506 
L 134.846897 251.696101 
L 134.421671 253.885696 
L 133.993652 256.075291 
L 133.578449 258.264886 
L 133.190157 260.454481 
L 132.84032 262.644076 
L 132.537082 264.833671 
L 132.284511 267.023266 
L 132.082097 269.21286 
L 131.924393 271.402455 
L 131.800838 273.59205 
L 131.6958 275.781645 
L 131.588919 277.97124 
L 131.455834 280.160835 
L 131.269351 282.35043 
L 131.001064 284.540025 
L 130.623379 286.72962 
L 130.111798 288.919215 
L 129.447236 291.10881 
L 128.618128 293.298405 
L 127.622022 295.488 
z
" clip-path="url(#p321c5d4c25)" style="fill: #1f77b4; fill-opacity: 0.3"/>
   </g>
   <g id="PolyCollection_2">
    <path d="M 195.857274 284.709386 
L 191.027319 284.709386 
L 190.526035 282.410916 
L 189.953763 280.112446 
L 189.304663 277.813977 
L 188.573272 275.515507 
L 187.755149 273.217037 
L 186.847662 270.918567 
L 185.850783 268.620097 
L 184.767764 266.321627 
L 183.605496 264.023158 
L 182.374462 261.724688 
L 181.088196 259.426218 
L 179.762326 257.127748 
L 178.413356 254.829278 
L 177.057419 252.530808 
L 175.709304 250.232338 
L 174.381951 247.933869 
L 173.086568 245.635399 
L 171.833305 243.336929 
L 170.632304 241.038459 
L 169.494797 238.739989 
L 168.433877 236.441519 
L 167.464613 234.14305 
L 166.603325 231.84458 
L 165.865986 229.54611 
L 165.265975 227.24764 
L 164.811539 224.94917 
L 164.503428 222.6507 
L 164.333193 220.35223 
L 164.28251 218.053761 
L 164.323783 215.755291 
L 164.422004 213.456821 
L 164.537721 211.158351 
L 164.630728 208.859881 
L 164.664019 206.561411 
L 164.607488 204.262941 
L 164.440902 201.964472 
L 164.155779 199.666002 
L 163.755967 197.367532 
L 163.256882 195.069062 
L 162.683583 192.770592 
L 162.067979 190.472122 
L 161.445563 188.173653 
L 160.852104 185.875183 
L 160.320647 183.576713 
L 159.879122 181.278243 
L 159.548711 178.979773 
L 159.343039 176.681303 
L 159.268134 174.382833 
L 159.323078 172.084364 
L 159.501186 169.785894 
L 159.79157 167.487424 
L 160.180897 165.188954 
L 160.655173 162.890484 
L 161.201369 160.592014 
L 161.808727 158.293545 
L 162.469592 155.995075 
L 163.179692 153.696605 
L 163.937797 151.398135 
L 164.744816 149.099665 
L 165.602423 146.801195 
L 166.511429 144.502725 
L 167.470168 142.204256 
L 168.473196 139.905786 
L 169.510603 137.607316 
L 170.568148 135.308846 
L 171.628284 133.010376 
L 172.671977 130.711906 
L 173.681052 128.413437 
L 174.640642 126.114967 
L 175.54131 123.816497 
L 176.380397 121.518027 
L 177.162329 119.219557 
L 177.897794 116.921087 
L 178.601902 114.622617 
L 179.291662 112.324148 
L 179.983211 110.025678 
L 180.689274 107.727208 
L 181.417291 105.428738 
L 182.168486 103.130268 
L 182.937994 100.831798 
L 183.715947 98.533329 
L 184.489276 96.234859 
L 185.243845 93.936389 
L 185.966539 91.637919 
L 186.646931 89.339449 
L 187.278309 87.040979 
L 187.857962 84.742509 
L 188.386781 82.44404 
L 188.868373 80.14557 
L 189.307937 77.8471 
L 189.71115 75.54863 
L 190.083289 73.25016 
L 190.428681 70.95169 
L 190.750504 68.653221 
L 191.050869 66.354751 
L 191.331063 64.056281 
L 191.591835 61.757811 
L 191.833633 59.459341 
L 192.056755 57.160871 
L 194.827838 57.160871 
L 194.827838 57.160871 
L 195.050961 59.459341 
L 195.292759 61.757811 
L 195.55353 64.056281 
L 195.833725 66.354751 
L 196.13409 68.653221 
L 196.455913 70.95169 
L 196.801304 73.25016 
L 197.173443 75.54863 
L 197.576656 77.8471 
L 198.01622 80.14557 
L 198.497812 82.44404 
L 199.026631 84.742509 
L 199.606284 87.040979 
L 200.237662 89.339449 
L 200.918054 91.637919 
L 201.640748 93.936389 
L 202.395318 96.234859 
L 203.168646 98.533329 
L 203.9466 100.831798 
L 204.716107 103.130268 
L 205.467303 105.428738 
L 206.19532 107.727208 
L 206.901383 110.025678 
L 207.592931 112.324148 
L 208.282691 114.622617 
L 208.986799 116.921087 
L 209.722264 119.219557 
L 210.504196 121.518027 
L 211.343283 123.816497 
L 212.243951 126.114967 
L 213.203542 128.413437 
L 214.212616 130.711906 
L 215.256309 133.010376 
L 216.316445 135.308846 
L 217.37399 137.607316 
L 218.411397 139.905786 
L 219.414425 142.204256 
L 220.373164 144.502725 
L 221.28217 146.801195 
L 222.139777 149.099665 
L 222.946796 151.398135 
L 223.704901 153.696605 
L 224.415001 155.995075 
L 225.075866 158.293545 
L 225.683224 160.592014 
L 226.229421 162.890484 
L 226.703696 165.188954 
L 227.093023 167.487424 
L 227.383407 169.785894 
L 227.561516 172.084364 
L 227.616459 174.382833 
L 227.541554 176.681303 
L 227.335882 178.979773 
L 227.005472 181.278243 
L 226.563946 183.576713 
L 226.032489 185.875183 
L 225.43903 188.173653 
L 224.816615 190.472122 
L 224.20101 192.770592 
L 223.627711 195.069062 
L 223.128626 197.367532 
L 222.728814 199.666002 
L 222.443692 201.964472 
L 222.277105 204.262941 
L 222.220574 206.561411 
L 222.253865 208.859881 
L 222.346873 211.158351 
L 222.462589 213.456821 
L 222.56081 215.755291 
L 222.602083 218.053761 
L 222.551401 220.35223 
L 222.381165 222.6507 
L 222.073054 224.94917 
L 221.618618 227.24764 
L 221.018608 229.54611 
L 220.281268 231.84458 
L 219.41998 234.14305 
L 218.450717 236.441519 
L 217.389796 238.739989 
L 216.25229 241.038459 
L 215.051289 243.336929 
L 213.798025 245.635399 
L 212.502642 247.933869 
L 211.175289 250.232338 
L 209.827174 252.530808 
L 208.471238 254.829278 
L 207.122267 257.127748 
L 205.796398 259.426218 
L 204.510131 261.724688 
L 203.279097 264.023158 
L 202.11683 266.321627 
L 201.03381 268.620097 
L 200.036931 270.918567 
L 199.129444 273.217037 
L 198.311322 275.515507 
L 197.579931 277.813977 
L 196.930831 280.112446 
L 196.358559 282.410916 
L 195.857274 284.709386 
z
" clip-path="url(#p321c5d4c25)" style="fill: #1f77b4; fill-opacity: 0.3"/>
   </g>
   <g id="PolyCollection_3">
    <path d="M 280.786212 265.547406 
L 276.969195 265.547406 
L 276.565481 263.4062 
L 276.108186 261.264994 
L 275.595875 259.123788 
L 275.027617 256.982581 
L 274.402768 254.841375 
L 273.720672 252.700169 
L 272.980286 250.558963 
L 272.179794 248.417757 
L 271.316261 246.276551 
L 270.385413 244.135345 
L 269.381643 241.994139 
L 268.298307 239.852932 
L 267.128385 237.711726 
L 265.86552 235.57052 
L 264.505388 233.429314 
L 263.047284 231.288108 
L 261.495736 229.146902 
L 259.861902 227.005696 
L 258.164484 224.86449 
L 256.429912 222.723284 
L 254.691639 220.582077 
L 252.988485 218.440871 
L 251.362148 216.299665 
L 249.854109 214.158459 
L 248.502305 212.017253 
L 247.33796 209.876047 
L 246.382998 207.734841 
L 245.64832 205.593635 
L 245.133161 203.452428 
L 244.825515 201.311222 
L 244.703541 199.170016 
L 244.73769 197.02881 
L 244.893279 194.887604 
L 245.133203 192.746398 
L 245.420518 190.605192 
L 245.720725 188.463986 
L 246.003612 186.322779 
L 246.244628 184.181573 
L 246.425798 182.040367 
L 246.536203 179.899161 
L 246.57207 177.757955 
L 246.536506 175.616749 
L 246.438875 173.475543 
L 246.293839 171.334337 
L 246.120072 169.193131 
L 245.938685 167.051924 
L 245.771473 164.910718 
L 245.639101 162.769512 
L 245.559431 160.628306 
L 245.546167 158.4871 
L 245.607988 156.345894 
L 245.74826 154.204688 
L 245.96534 152.063482 
L 246.253375 149.922275 
L 246.603457 147.781069 
L 247.004922 145.639863 
L 247.446641 143.498657 
L 247.918149 141.357451 
L 248.410571 139.216245 
L 248.917305 137.075039 
L 249.434501 134.933833 
L 249.96134 132.792626 
L 250.500112 130.65142 
L 251.056054 128.510214 
L 251.636882 126.369008 
L 252.251971 124.227802 
L 252.911171 122.086596 
L 253.623328 119.94539 
L 254.394657 117.804184 
L 255.227216 115.662977 
L 256.117766 113.521771 
L 257.057296 111.380565 
L 258.031411 109.239359 
L 259.021669 107.098153 
L 260.007725 104.956947 
L 260.970001 102.815741 
L 261.892409 100.674535 
L 262.764644 98.533329 
L 263.583562 96.392122 
L 264.353362 94.250916 
L 265.084485 92.10971 
L 265.791449 89.968504 
L 266.490019 87.827298 
L 267.194305 85.686092 
L 267.914309 83.544886 
L 268.65441 81.40368 
L 269.412976 79.262473 
L 270.183088 77.121267 
L 270.954118 74.980061 
L 271.713735 72.838855 
L 272.449891 70.697649 
L 273.1524 68.556443 
L 273.813871 66.415237 
L 274.429942 64.274031 
L 274.998922 62.132824 
L 275.521062 59.991618 
L 275.997713 57.850412 
L 276.430591 55.709206 
L 276.821283 53.568 
L 280.934124 53.568 
L 280.934124 53.568 
L 281.324816 55.709206 
L 281.757693 57.850412 
L 282.234345 59.991618 
L 282.756485 62.132824 
L 283.325464 64.274031 
L 283.941535 66.415237 
L 284.603007 68.556443 
L 285.305516 70.697649 
L 286.041672 72.838855 
L 286.801289 74.980061 
L 287.572319 77.121267 
L 288.342431 79.262473 
L 289.100996 81.40368 
L 289.841098 83.544886 
L 290.561102 85.686092 
L 291.265387 87.827298 
L 291.963958 89.968504 
L 292.670921 92.10971 
L 293.402045 94.250916 
L 294.171845 96.392122 
L 294.990763 98.533329 
L 295.862997 100.674535 
L 296.785406 102.815741 
L 297.747681 104.956947 
L 298.733738 107.098153 
L 299.723996 109.239359 
L 300.698111 111.380565 
L 301.63764 113.521771 
L 302.528191 115.662977 
L 303.36075 117.804184 
L 304.132078 119.94539 
L 304.844235 122.086596 
L 305.503436 124.227802 
L 306.118525 126.369008 
L 306.699353 128.510214 
L 307.255295 130.65142 
L 307.794067 132.792626 
L 308.320906 134.933833 
L 308.838101 137.075039 
L 309.344836 139.216245 
L 309.837258 141.357451 
L 310.308766 143.498657 
L 310.750484 145.639863 
L 311.15195 147.781069 
L 311.502032 149.922275 
L 311.790067 152.063482 
L 312.007147 154.204688 
L 312.147419 156.345894 
L 312.20924 158.4871 
L 312.195976 160.628306 
L 312.116306 162.769512 
L 311.983934 164.910718 
L 311.816722 167.051924 
L 311.635335 169.193131 
L 311.461567 171.334337 
L 311.316532 173.475543 
L 311.218901 175.616749 
L 311.183336 177.757955 
L 311.219204 179.899161 
L 311.329609 182.040367 
L 311.510779 184.181573 
L 311.751795 186.322779 
L 312.034682 188.463986 
L 312.334889 190.605192 
L 312.622204 192.746398 
L 312.862127 194.887604 
L 313.017717 197.02881 
L 313.051866 199.170016 
L 312.929892 201.311222 
L 312.622246 203.452428 
L 312.107086 205.593635 
L 311.372409 207.734841 
L 310.417447 209.876047 
L 309.253102 212.017253 
L 307.901298 214.158459 
L 306.393259 216.299665 
L 304.766921 218.440871 
L 303.063767 220.582077 
L 301.325494 222.723284 
L 299.590923 224.86449 
L 297.893505 227.005696 
L 296.25967 229.146902 
L 294.708122 231.288108 
L 293.250018 233.429314 
L 291.889887 235.57052 
L 290.627022 237.711726 
L 289.4571 239.852932 
L 288.373763 241.994139 
L 287.369994 244.135345 
L 286.439146 246.276551 
L 285.575613 248.417757 
L 284.775121 250.558963 
L 284.034735 252.700169 
L 283.352638 254.841375 
L 282.72779 256.982581 
L 282.159532 259.123788 
L 281.647221 261.264994 
L 281.189925 263.4062 
L 280.786212 265.547406 
z
" clip-path="url(#p321c5d4c25)" style="fill: #1f77b4; fill-opacity: 0.3"/>
   </g>
   <g id="PolyCollection_4">
    <path d="M 366.897652 295.488 
L 361.728568 295.488 
L 361.478721 293.18953 
L 361.245843 290.89106 
L 361.028123 288.59259 
L 360.820019 286.294121 
L 360.612727 283.995651 
L 360.395108 281.697181 
L 360.154958 279.398711 
L 359.880442 277.100241 
L 359.561442 274.801771 
L 359.190624 272.503302 
L 358.764036 270.204832 
L 358.281135 267.906362 
L 357.74425 265.607892 
L 357.157572 263.309422 
L 356.525861 261.010952 
L 355.853092 258.712482 
L 355.141301 256.414013 
L 354.389826 254.115543 
L 353.595112 251.817073 
L 352.751153 249.518603 
L 351.850553 247.220133 
L 350.886093 244.921663 
L 349.852606 242.623194 
L 348.748884 240.324724 
L 347.579301 238.026254 
L 346.354836 235.727784 
L 345.09323 233.429314 
L 343.818149 231.130844 
L 342.557355 228.832374 
L 341.340092 226.533905 
L 340.194052 224.235435 
L 339.1424 221.936965 
L 338.20135 219.638495 
L 337.378712 217.340025 
L 336.673628 215.041555 
L 336.077506 212.743086 
L 335.575879 210.444616 
L 335.15078 208.146146 
L 334.7831 205.847676 
L 334.454531 203.549206 
L 334.148805 201.250736 
L 333.852232 198.952266 
L 333.553738 196.653797 
L 333.244711 194.355327 
L 332.919026 192.056857 
L 332.573422 189.758387 
L 332.208264 187.459917 
L 331.828468 185.161447 
L 331.444256 182.862977 
L 331.07135 180.564508 
L 330.730327 178.266038 
L 330.445043 175.967568 
L 330.24028 173.669098 
L 330.138947 171.370628 
L 330.159331 169.072158 
L 330.312878 166.773689 
L 330.602909 164.475219 
L 331.024462 162.176749 
L 331.565254 159.878279 
L 332.207534 157.579809 
L 332.930447 155.281339 
L 333.712463 152.982869 
L 334.53348 150.6844 
L 335.376315 148.38593 
L 336.227475 146.08746 
L 337.077284 143.78899 
L 337.919544 141.49052 
L 338.750995 139.19205 
L 339.570771 136.893581 
L 340.380004 134.595111 
L 341.181562 132.296641 
L 341.979855 129.998171 
L 342.780562 127.699701 
L 343.590191 125.401231 
L 344.41542 123.102761 
L 345.262285 120.804292 
L 346.135322 118.505822 
L 347.036827 116.207352 
L 347.966369 113.908882 
L 348.920611 111.610412 
L 349.893486 109.311942 
L 350.876649 107.013473 
L 351.860158 104.715003 
L 352.833267 102.416533 
L 353.785259 100.118063 
L 354.706234 97.819593 
L 355.587774 95.521123 
L 356.423427 93.222653 
L 357.208959 90.924184 
L 357.942363 88.625714 
L 358.623619 86.327244 
L 359.254276 84.028774 
L 359.836909 81.730304 
L 360.374558 79.431834 
L 360.870221 77.133365 
L 361.326483 74.834895 
L 361.745301 72.536425 
L 362.127961 70.237955 
L 362.47518 67.939485 
L 366.15104 67.939485 
L 366.15104 67.939485 
L 366.498259 70.237955 
L 366.880919 72.536425 
L 367.299737 74.834895 
L 367.755999 77.133365 
L 368.251662 79.431834 
L 368.789311 81.730304 
L 369.371944 84.028774 
L 370.002601 86.327244 
L 370.683857 88.625714 
L 371.417261 90.924184 
L 372.202793 93.222653 
L 373.038446 95.521123 
L 373.919986 97.819593 
L 374.840962 100.118063 
L 375.792953 102.416533 
L 376.766062 104.715003 
L 377.749571 107.013473 
L 378.732734 109.311942 
L 379.705609 111.610412 
L 380.659851 113.908882 
L 381.589393 116.207352 
L 382.490898 118.505822 
L 383.363935 120.804292 
L 384.2108 123.102761 
L 385.03603 125.401231 
L 385.845658 127.699701 
L 386.646365 129.998171 
L 387.444658 132.296641 
L 388.246216 134.595111 
L 389.055449 136.893581 
L 389.875225 139.19205 
L 390.706676 141.49052 
L 391.548936 143.78899 
L 392.398745 146.08746 
L 393.249906 148.38593 
L 394.09274 150.6844 
L 394.913757 152.982869 
L 395.695773 155.281339 
L 396.418686 157.579809 
L 397.060966 159.878279 
L 397.601758 162.176749 
L 398.023311 164.475219 
L 398.313342 166.773689 
L 398.46689 169.072158 
L 398.487273 171.370628 
L 398.38594 173.669098 
L 398.181177 175.967568 
L 397.895894 178.266038 
L 397.55487 180.564508 
L 397.181964 182.862977 
L 396.797752 185.161447 
L 396.417957 187.459917 
L 396.052798 189.758387 
L 395.707195 192.056857 
L 395.381509 194.355327 
L 395.072482 196.653797 
L 394.773988 198.952266 
L 394.477415 201.250736 
L 394.171689 203.549206 
L 393.84312 205.847676 
L 393.47544 208.146146 
L 393.050341 210.444616 
L 392.548715 212.743086 
L 391.952592 215.041555 
L 391.247508 217.340025 
L 390.42487 219.638495 
L 389.48382 221.936965 
L 388.432168 224.235435 
L 387.286128 226.533905 
L 386.068865 228.832374 
L 384.808071 231.130844 
L 383.53299 233.429314 
L 382.271384 235.727784 
L 381.046919 238.026254 
L 379.877336 240.324724 
L 378.773614 242.623194 
L 377.740127 244.921663 
L 376.775667 247.220133 
L 375.875067 249.518603 
L 375.031108 251.817073 
L 374.236394 254.115543 
L 373.484919 256.414013 
L 372.773128 258.712482 
L 372.100359 261.010952 
L 371.468648 263.309422 
L 370.88197 265.607892 
L 370.345085 267.906362 
L 369.862184 270.204832 
L 369.435596 272.503302 
L 369.064778 274.801771 
L 368.745778 277.100241 
L 368.471262 279.398711 
L 368.231113 281.697181 
L 368.013493 283.995651 
L 367.806201 286.294121 
L 367.598098 288.59259 
L 367.380377 290.89106 
L 367.1475 293.18953 
L 366.897652 295.488 
z
" clip-path="url(#p321c5d4c25)" style="fill: #1f77b4; fill-opacity: 0.3"/>
   </g>
   <g id="matplotlib.axis_1">
    <g id="xtick_1">
     <g id="line2d_1">
      <path d="M 65.289187 307.584 
L 65.289187 41.472 
" clip-path="url(#p321c5d4c25)" style="fill: none; stroke-dasharray: 2.96,1.28; stroke-dashoffset: 0; stroke: #b0b0b0; stroke-width: 0.8"/>
     </g>
     <g id="line2d_2">
      <defs>
       <path id="m574aa22ceb" d="M 0 0 
L 0 3.5 
" style="stroke: #000000; stroke-width: 0.8"/>
      </defs>
      <g>
       <use xlink:href="#m574aa22ceb" x="65.289187" y="307.584" style="stroke: #000000; stroke-width: 0.8"/>
      </g>
     </g>
     <g id="text_1">
      <!-- 250 -->
      <g transform="translate(55.745437 322.182437)scale(0.1 -0.1)">
       <defs>
        <path id="DejaVuSans-32" d="M 1228 531 
L 3431 531 
L 3431 0 
L 469 0 
L 469 531 
Q 828 903 1448 1529 
Q 2069 2156 2228 2338 
Q 2531 2678 2651 2914 
Q 2772 3150 2772 3378 
Q 2772 3750 2511 3984 
Q 2250 4219 1831 4219 
Q 1534 4219 1204 4116 
Q 875 4013 500 3803 
L 500 4441 
Q 881 4594 1212 4672 
Q 1544 4750 1819 4750 
Q 2544 4750 2975 4387 
Q 3406 4025 3406 3419 
Q 3406 3131 3298 2873 
Q 3191 2616 2906 2266 
Q 2828 2175 2409 1742 
Q 1991 1309 1228 531 
z
" transform="scale(0.015625)"/>
        <path id="DejaVuSans-35" d="M 691 4666 
L 3169 4666 
L 3169 4134 
L 1269 4134 
L 1269 2991 
Q 1406 3038 1543 3061 
Q 1681 3084 1819 3084 
Q 2600 3084 3056 2656 
Q 3513 2228 3513 1497 
Q 3513 744 3044 326 
Q 2575 -91 1722 -91 
Q 1428 -91 1123 -41 
Q 819 9 494 109 
L 494 744 
Q 775 591 1075 516 
Q 1375 441 1709 441 
Q 2250 441 2565 725 
Q 2881 1009 2881 1497 
Q 2881 1984 2565 2268 
Q 2250 2553 1709 2553 
Q 1456 2553 1204 2497 
Q 953 2441 691 2322 
L 691 4666 
z
" transform="scale(0.015625)"/>
        <path id="DejaVuSans-30" d="M 2034 4250 
Q 1547 4250 1301 3770 
Q 1056 3291 1056 2328 
Q 1056 1369 1301 889 
Q 1547 409 2034 409 
Q 2525 409 2770 889 
Q 3016 1369 3016 2328 
Q 3016 3291 2770 3770 
Q 2525 4250 2034 4250 
z
M 2034 4750 
Q 2819 4750 3233 4129 
Q 3647 3509 3647 2328 
Q 3647 1150 3233 529 
Q 2819 -91 2034 -91 
Q 1250 -91 836 529 
Q 422 1150 422 2328 
Q 422 3509 836 4129 
Q 1250 4750 2034 4750 
z
" transform="scale(0.015625)"/>
       </defs>
       <use xlink:href="#DejaVuSans-32"/>
       <use xlink:href="#DejaVuSans-35" x="63.623047"/>
       <use xlink:href="#DejaVuSans-30" x="127.246094"/>
      </g>
     </g>
    </g>
    <g id="xtick_2">
     <g id="line2d_3">
      <path d="M 108.00689 307.584 
L 108.00689 41.472 
" clip-path="url(#p321c5d4c25)" style="fill: none; stroke-dasharray: 2.96,1.28; stroke-dashoffset: 0; stroke: #b0b0b0; stroke-width: 0.8"/>
     </g>
     <g id="line2d_4">
      <g>
       <use xlink:href="#m574aa22ceb" x="108.00689" y="307.584" style="stroke: #000000; stroke-width: 0.8"/>
      </g>
     </g>
     <g id="text_2">
      <!-- 500 -->
      <g transform="translate(98.46314 322.182437)scale(0.1 -0.1)">
       <use xlink:href="#DejaVuSans-35"/>
       <use xlink:href="#DejaVuSans-30" x="63.623047"/>
       <use xlink:href="#DejaVuSans-30" x="127.246094"/>
      </g>
     </g>
    </g>
    <g id="xtick_3">
     <g id="line2d_5">
      <path d="M 150.724593 307.584 
L 150.724593 41.472 
" clip-path="url(#p321c5d4c25)" style="fill: none; stroke-dasharray: 2.96,1.28; stroke-dashoffset: 0; stroke: #b0b0b0; stroke-width: 0.8"/>
     </g>
     <g id="line2d_6">
      <g>
       <use xlink:href="#m574aa22ceb" x="150.724593" y="307.584" style="stroke: #000000; stroke-width: 0.8"/>
      </g>
     </g>
     <g id="text_3">
      <!-- 750 -->
      <g transform="translate(141.180843 322.182437)scale(0.1 -0.1)">
       <defs>
        <path id="DejaVuSans-37" d="M 525 4666 
L 3525 4666 
L 3525 4397 
L 1831 0 
L 1172 0 
L 2766 4134 
L 525 4134 
L 525 4666 
z
" transform="scale(0.015625)"/>
       </defs>
       <use xlink:href="#DejaVuSans-37"/>
       <use xlink:href="#DejaVuSans-35" x="63.623047"/>
       <use xlink:href="#DejaVuSans-30" x="127.246094"/>
      </g>
     </g>
    </g>
    <g id="xtick_4">
     <g id="line2d_7">
      <path d="M 193.442297 307.584 
L 193.442297 41.472 
" clip-path="url(#p321c5d4c25)" style="fill: none; stroke-dasharray: 2.96,1.28; stroke-dashoffset: 0; stroke: #b0b0b0; stroke-width: 0.8"/>
     </g>
     <g id="line2d_8">
      <g>
       <use xlink:href="#m574aa22ceb" x="193.442297" y="307.584" style="stroke: #000000; stroke-width: 0.8"/>
      </g>
     </g>
     <g id="text_4">
      <!-- 1000 -->
      <g transform="translate(180.717297 322.182437)scale(0.1 -0.1)">
       <defs>
        <path id="DejaVuSans-31" d="M 794 531 
L 1825 531 
L 1825 4091 
L 703 3866 
L 703 4441 
L 1819 4666 
L 2450 4666 
L 2450 531 
L 3481 531 
L 3481 0 
L 794 0 
L 794 531 
z
" transform="scale(0.015625)"/>
       </defs>
       <use xlink:href="#DejaVuSans-31"/>
       <use xlink:href="#DejaVuSans-30" x="63.623047"/>
       <use xlink:href="#DejaVuSans-30" x="127.246094"/>
       <use xlink:href="#DejaVuSans-30" x="190.869141"/>
      </g>
     </g>
    </g>
    <g id="xtick_5">
     <g id="line2d_9">
      <path d="M 236.16 307.584 
L 236.16 41.472 
" clip-path="url(#p321c5d4c25)" style="fill: none; stroke-dasharray: 2.96,1.28; stroke-dashoffset: 0; stroke: #b0b0b0; stroke-width: 0.8"/>
     </g>
     <g id="line2d_10">
      <g>
       <use xlink:href="#m574aa22ceb" x="236.16" y="307.584" style="stroke: #000000; stroke-width: 0.8"/>
      </g>
     </g>
     <g id="text_5">
      <!-- 1250 -->
      <g transform="translate(223.435 322.182437)scale(0.1 -0.1)">
       <use xlink:href="#DejaVuSans-31"/>
       <use xlink:href="#DejaVuSans-32" x="63.623047"/>
       <use xlink:href="#DejaVuSans-35" x="127.246094"/>
       <use xlink:href="#DejaVuSans-30" x="190.869141"/>
      </g>
     </g>
    </g>
    <g id="xtick_6">
     <g id="line2d_11">
      <path d="M 278.877703 307.584 
L 278.877703 41.472 
" clip-path="url(#p321c5d4c25)" style="fill: none; stroke-dasharray: 2.96,1.28; stroke-dashoffset: 0; stroke: #b0b0b0; stroke-width: 0.8"/>
     </g>
     <g id="line2d_12">
      <g>
       <use xlink:href="#m574aa22ceb" x="278.877703" y="307.584" style="stroke: #000000; stroke-width: 0.8"/>
      </g>
     </g>
     <g id="text_6">
      <!-- 1500 -->
      <g transform="translate(266.152703 322.182437)scale(0.1 -0.1)">
       <use xlink:href="#DejaVuSans-31"/>
       <use xlink:href="#DejaVuSans-35" x="63.623047"/>
       <use xlink:href="#DejaVuSans-30" x="127.246094"/>
       <use xlink:href="#DejaVuSans-30" x="190.869141"/>
      </g>
     </g>
    </g>
    <g id="xtick_7">
     <g id="line2d_13">
      <path d="M 321.595407 307.584 
L 321.595407 41.472 
" clip-path="url(#p321c5d4c25)" style="fill: none; stroke-dasharray: 2.96,1.28; stroke-dashoffset: 0; stroke: #b0b0b0; stroke-width: 0.8"/>
     </g>
     <g id="line2d_14">
      <g>
       <use xlink:href="#m574aa22ceb" x="321.595407" y="307.584" style="stroke: #000000; stroke-width: 0.8"/>
      </g>
     </g>
     <g id="text_7">
      <!-- 1750 -->
      <g transform="translate(308.870407 322.182437)scale(0.1 -0.1)">
       <use xlink:href="#DejaVuSans-31"/>
       <use xlink:href="#DejaVuSans-37" x="63.623047"/>
       <use xlink:href="#DejaVuSans-35" x="127.246094"/>
       <use xlink:href="#DejaVuSans-30" x="190.869141"/>
      </g>
     </g>
    </g>
    <g id="xtick_8">
     <g id="line2d_15">
      <path d="M 364.31311 307.584 
L 364.31311 41.472 
" clip-path="url(#p321c5d4c25)" style="fill: none; stroke-dasharray: 2.96,1.28; stroke-dashoffset: 0; stroke: #b0b0b0; stroke-width: 0.8"/>
     </g>
     <g id="line2d_16">
      <g>
       <use xlink:href="#m574aa22ceb" x="364.31311" y="307.584" style="stroke: #000000; stroke-width: 0.8"/>
      </g>
     </g>
     <g id="text_8">
      <!-- 2000 -->
      <g transform="translate(351.58811 322.182437)scale(0.1 -0.1)">
       <use xlink:href="#DejaVuSans-32"/>
       <use xlink:href="#DejaVuSans-30" x="63.623047"/>
       <use xlink:href="#DejaVuSans-30" x="127.246094"/>
       <use xlink:href="#DejaVuSans-30" x="190.869141"/>
      </g>
     </g>
    </g>
    <g id="xtick_9">
     <g id="line2d_17">
      <path d="M 407.030813 307.584 
L 407.030813 41.472 
" clip-path="url(#p321c5d4c25)" style="fill: none; stroke-dasharray: 2.96,1.28; stroke-dashoffset: 0; stroke: #b0b0b0; stroke-width: 0.8"/>
     </g>
     <g id="line2d_18">
      <g>
       <use xlink:href="#m574aa22ceb" x="407.030813" y="307.584" style="stroke: #000000; stroke-width: 0.8"/>
      </g>
     </g>
     <g id="text_9">
      <!-- 2250 -->
      <g transform="translate(394.305813 322.182437)scale(0.1 -0.1)">
       <use xlink:href="#DejaVuSans-32"/>
       <use xlink:href="#DejaVuSans-32" x="63.623047"/>
       <use xlink:href="#DejaVuSans-35" x="127.246094"/>
       <use xlink:href="#DejaVuSans-30" x="190.869141"/>
      </g>
     </g>
    </g>
    <g id="text_10">
     <!-- Learned Episodes -->
     <g transform="translate(192.102187 335.860562)scale(0.1 -0.1)">
      <defs>
       <path id="DejaVuSans-4c" d="M 628 4666 
L 1259 4666 
L 1259 531 
L 3531 531 
L 3531 0 
L 628 0 
L 628 4666 
z
" transform="scale(0.015625)"/>
       <path id="DejaVuSans-65" d="M 3597 1894 
L 3597 1613 
L 953 1613 
Q 991 1019 1311 708 
Q 1631 397 2203 397 
Q 2534 397 2845 478 
Q 3156 559 3463 722 
L 3463 178 
Q 3153 47 2828 -22 
Q 2503 -91 2169 -91 
Q 1331 -91 842 396 
Q 353 884 353 1716 
Q 353 2575 817 3079 
Q 1281 3584 2069 3584 
Q 2775 3584 3186 3129 
Q 3597 2675 3597 1894 
z
M 3022 2063 
Q 3016 2534 2758 2815 
Q 2500 3097 2075 3097 
Q 1594 3097 1305 2825 
Q 1016 2553 972 2059 
L 3022 2063 
z
" transform="scale(0.015625)"/>
       <path id="DejaVuSans-61" d="M 2194 1759 
Q 1497 1759 1228 1600 
Q 959 1441 959 1056 
Q 959 750 1161 570 
Q 1363 391 1709 391 
Q 2188 391 2477 730 
Q 2766 1069 2766 1631 
L 2766 1759 
L 2194 1759 
z
M 3341 1997 
L 3341 0 
L 2766 0 
L 2766 531 
Q 2569 213 2275 61 
Q 1981 -91 1556 -91 
Q 1019 -91 701 211 
Q 384 513 384 1019 
Q 384 1609 779 1909 
Q 1175 2209 1959 2209 
L 2766 2209 
L 2766 2266 
Q 2766 2663 2505 2880 
Q 2244 3097 1772 3097 
Q 1472 3097 1187 3025 
Q 903 2953 641 2809 
L 641 3341 
Q 956 3463 1253 3523 
Q 1550 3584 1831 3584 
Q 2591 3584 2966 3190 
Q 3341 2797 3341 1997 
z
" transform="scale(0.015625)"/>
       <path id="DejaVuSans-72" d="M 2631 2963 
Q 2534 3019 2420 3045 
Q 2306 3072 2169 3072 
Q 1681 3072 1420 2755 
Q 1159 2438 1159 1844 
L 1159 0 
L 581 0 
L 581 3500 
L 1159 3500 
L 1159 2956 
Q 1341 3275 1631 3429 
Q 1922 3584 2338 3584 
Q 2397 3584 2469 3576 
Q 2541 3569 2628 3553 
L 2631 2963 
z
" transform="scale(0.015625)"/>
       <path id="DejaVuSans-6e" d="M 3513 2113 
L 3513 0 
L 2938 0 
L 2938 2094 
Q 2938 2591 2744 2837 
Q 2550 3084 2163 3084 
Q 1697 3084 1428 2787 
Q 1159 2491 1159 1978 
L 1159 0 
L 581 0 
L 581 3500 
L 1159 3500 
L 1159 2956 
Q 1366 3272 1645 3428 
Q 1925 3584 2291 3584 
Q 2894 3584 3203 3211 
Q 3513 2838 3513 2113 
z
" transform="scale(0.015625)"/>
       <path id="DejaVuSans-64" d="M 2906 2969 
L 2906 4863 
L 3481 4863 
L 3481 0 
L 2906 0 
L 2906 525 
Q 2725 213 2448 61 
Q 2172 -91 1784 -91 
Q 1150 -91 751 415 
Q 353 922 353 1747 
Q 353 2572 751 3078 
Q 1150 3584 1784 3584 
Q 2172 3584 2448 3432 
Q 2725 3281 2906 2969 
z
M 947 1747 
Q 947 1113 1208 752 
Q 1469 391 1925 391 
Q 2381 391 2643 752 
Q 2906 1113 2906 1747 
Q 2906 2381 2643 2742 
Q 2381 3103 1925 3103 
Q 1469 3103 1208 2742 
Q 947 2381 947 1747 
z
" transform="scale(0.015625)"/>
       <path id="DejaVuSans-20" transform="scale(0.015625)"/>
       <path id="DejaVuSans-45" d="M 628 4666 
L 3578 4666 
L 3578 4134 
L 1259 4134 
L 1259 2753 
L 3481 2753 
L 3481 2222 
L 1259 2222 
L 1259 531 
L 3634 531 
L 3634 0 
L 628 0 
L 628 4666 
z
" transform="scale(0.015625)"/>
       <path id="DejaVuSans-70" d="M 1159 525 
L 1159 -1331 
L 581 -1331 
L 581 3500 
L 1159 3500 
L 1159 2969 
Q 1341 3281 1617 3432 
Q 1894 3584 2278 3584 
Q 2916 3584 3314 3078 
Q 3713 2572 3713 1747 
Q 3713 922 3314 415 
Q 2916 -91 2278 -91 
Q 1894 -91 1617 61 
Q 1341 213 1159 525 
z
M 3116 1747 
Q 3116 2381 2855 2742 
Q 2594 3103 2138 3103 
Q 1681 3103 1420 2742 
Q 1159 2381 1159 1747 
Q 1159 1113 1420 752 
Q 1681 391 2138 391 
Q 2594 391 2855 752 
Q 3116 1113 3116 1747 
z
" transform="scale(0.015625)"/>
       <path id="DejaVuSans-69" d="M 603 3500 
L 1178 3500 
L 1178 0 
L 603 0 
L 603 3500 
z
M 603 4863 
L 1178 4863 
L 1178 4134 
L 603 4134 
L 603 4863 
z
" transform="scale(0.015625)"/>
       <path id="DejaVuSans-73" d="M 2834 3397 
L 2834 2853 
Q 2591 2978 2328 3040 
Q 2066 3103 1784 3103 
Q 1356 3103 1142 2972 
Q 928 2841 928 2578 
Q 928 2378 1081 2264 
Q 1234 2150 1697 2047 
L 1894 2003 
Q 2506 1872 2764 1633 
Q 3022 1394 3022 966 
Q 3022 478 2636 193 
Q 2250 -91 1575 -91 
Q 1294 -91 989 -36 
Q 684 19 347 128 
L 347 722 
Q 666 556 975 473 
Q 1284 391 1588 391 
Q 1994 391 2212 530 
Q 2431 669 2431 922 
Q 2431 1156 2273 1281 
Q 2116 1406 1581 1522 
L 1381 1569 
Q 847 1681 609 1914 
Q 372 2147 372 2553 
Q 372 3047 722 3315 
Q 1072 3584 1716 3584 
Q 2034 3584 2315 3537 
Q 2597 3491 2834 3397 
z
" transform="scale(0.015625)"/>
       <path id="DejaVuSans-6f" d="M 1959 3097 
Q 1497 3097 1228 2736 
Q 959 2375 959 1747 
Q 959 1119 1226 758 
Q 1494 397 1959 397 
Q 2419 397 2687 759 
Q 2956 1122 2956 1747 
Q 2956 2369 2687 2733 
Q 2419 3097 1959 3097 
z
M 1959 3584 
Q 2709 3584 3137 3096 
Q 3566 2609 3566 1747 
Q 3566 888 3137 398 
Q 2709 -91 1959 -91 
Q 1206 -91 779 398 
Q 353 888 353 1747 
Q 353 2609 779 3096 
Q 1206 3584 1959 3584 
z
" transform="scale(0.015625)"/>
      </defs>
      <use xlink:href="#DejaVuSans-4c"/>
      <use xlink:href="#DejaVuSans-65" x="53.962891"/>
      <use xlink:href="#DejaVuSans-61" x="115.486328"/>
      <use xlink:href="#DejaVuSans-72" x="176.765625"/>
      <use xlink:href="#DejaVuSans-6e" x="216.128906"/>
      <use xlink:href="#DejaVuSans-65" x="279.507812"/>
      <use xlink:href="#DejaVuSans-64" x="341.03125"/>
      <use xlink:href="#DejaVuSans-20" x="404.507812"/>
      <use xlink:href="#DejaVuSans-45" x="436.294922"/>
      <use xlink:href="#DejaVuSans-70" x="499.478516"/>
      <use xlink:href="#DejaVuSans-69" x="562.955078"/>
      <use xlink:href="#DejaVuSans-73" x="590.738281"/>
      <use xlink:href="#DejaVuSans-6f" x="642.837891"/>
      <use xlink:href="#DejaVuSans-64" x="704.019531"/>
      <use xlink:href="#DejaVuSans-65" x="767.496094"/>
      <use xlink:href="#DejaVuSans-73" x="829.019531"/>
     </g>
    </g>
   </g>
   <g id="matplotlib.axis_2">
    <g id="ytick_1">
     <g id="line2d_19">
      <path d="M 57.6 295.488 
L 414.72 295.488 
" clip-path="url(#p321c5d4c25)" style="fill: none; stroke-dasharray: 2.96,1.28; stroke-dashoffset: 0; stroke: #b0b0b0; stroke-width: 0.8"/>
     </g>
     <g id="line2d_20">
      <defs>
       <path id="m6f2d496973" d="M 0 0 
L -3.5 0 
" style="stroke: #000000; stroke-width: 0.8"/>
      </defs>
      <g>
       <use xlink:href="#m6f2d496973" x="57.6" y="295.488" style="stroke: #000000; stroke-width: 0.8"/>
      </g>
     </g>
     <g id="text_11">
      <!-- 0 -->
      <g transform="translate(44.2375 299.287219)scale(0.1 -0.1)">
       <use xlink:href="#DejaVuSans-30"/>
      </g>
     </g>
    </g>
    <g id="ytick_2">
     <g id="line2d_21">
      <path d="M 57.6 265.547406 
L 414.72 265.547406 
" clip-path="url(#p321c5d4c25)" style="fill: none; stroke-dasharray: 2.96,1.28; stroke-dashoffset: 0; stroke: #b0b0b0; stroke-width: 0.8"/>
     </g>
     <g id="line2d_22">
      <g>
       <use xlink:href="#m6f2d496973" x="57.6" y="265.547406" style="stroke: #000000; stroke-width: 0.8"/>
      </g>
     </g>
     <g id="text_12">
      <!-- 25 -->
      <g transform="translate(37.875 269.346625)scale(0.1 -0.1)">
       <use xlink:href="#DejaVuSans-32"/>
       <use xlink:href="#DejaVuSans-35" x="63.623047"/>
      </g>
     </g>
    </g>
    <g id="ytick_3">
     <g id="line2d_23">
      <path d="M 57.6 235.606812 
L 414.72 235.606812 
" clip-path="url(#p321c5d4c25)" style="fill: none; stroke-dasharray: 2.96,1.28; stroke-dashoffset: 0; stroke: #b0b0b0; stroke-width: 0.8"/>
     </g>
     <g id="line2d_24">
      <g>
       <use xlink:href="#m6f2d496973" x="57.6" y="235.606812" style="stroke: #000000; stroke-width: 0.8"/>
      </g>
     </g>
     <g id="text_13">
      <!-- 50 -->
      <g transform="translate(37.875 239.406031)scale(0.1 -0.1)">
       <use xlink:href="#DejaVuSans-35"/>
       <use xlink:href="#DejaVuSans-30" x="63.623047"/>
      </g>
     </g>
    </g>
    <g id="ytick_4">
     <g id="line2d_25">
      <path d="M 57.6 205.666218 
L 414.72 205.666218 
" clip-path="url(#p321c5d4c25)" style="fill: none; stroke-dasharray: 2.96,1.28; stroke-dashoffset: 0; stroke: #b0b0b0; stroke-width: 0.8"/>
     </g>
     <g id="line2d_26">
      <g>
       <use xlink:href="#m6f2d496973" x="57.6" y="205.666218" style="stroke: #000000; stroke-width: 0.8"/>
      </g>
     </g>
     <g id="text_14">
      <!-- 75 -->
      <g transform="translate(37.875 209.465437)scale(0.1 -0.1)">
       <use xlink:href="#DejaVuSans-37"/>
       <use xlink:href="#DejaVuSans-35" x="63.623047"/>
      </g>
     </g>
    </g>
    <g id="ytick_5">
     <g id="line2d_27">
      <path d="M 57.6 175.725624 
L 414.72 175.725624 
" clip-path="url(#p321c5d4c25)" style="fill: none; stroke-dasharray: 2.96,1.28; stroke-dashoffset: 0; stroke: #b0b0b0; stroke-width: 0.8"/>
     </g>
     <g id="line2d_28">
      <g>
       <use xlink:href="#m6f2d496973" x="57.6" y="175.725624" style="stroke: #000000; stroke-width: 0.8"/>
      </g>
     </g>
     <g id="text_15">
      <!-- 100 -->
      <g transform="translate(31.5125 179.524843)scale(0.1 -0.1)">
       <use xlink:href="#DejaVuSans-31"/>
       <use xlink:href="#DejaVuSans-30" x="63.623047"/>
       <use xlink:href="#DejaVuSans-30" x="127.246094"/>
      </g>
     </g>
    </g>
    <g id="ytick_6">
     <g id="line2d_29">
      <path d="M 57.6 145.78503 
L 414.72 145.78503 
" clip-path="url(#p321c5d4c25)" style="fill: none; stroke-dasharray: 2.96,1.28; stroke-dashoffset: 0; stroke: #b0b0b0; stroke-width: 0.8"/>
     </g>
     <g id="line2d_30">
      <g>
       <use xlink:href="#m6f2d496973" x="57.6" y="145.78503" style="stroke: #000000; stroke-width: 0.8"/>
      </g>
     </g>
     <g id="text_16">
      <!-- 125 -->
      <g transform="translate(31.5125 149.584248)scale(0.1 -0.1)">
       <use xlink:href="#DejaVuSans-31"/>
       <use xlink:href="#DejaVuSans-32" x="63.623047"/>
       <use xlink:href="#DejaVuSans-35" x="127.246094"/>
      </g>
     </g>
    </g>
    <g id="ytick_7">
     <g id="line2d_31">
      <path d="M 57.6 115.844436 
L 414.72 115.844436 
" clip-path="url(#p321c5d4c25)" style="fill: none; stroke-dasharray: 2.96,1.28; stroke-dashoffset: 0; stroke: #b0b0b0; stroke-width: 0.8"/>
     </g>
     <g id="line2d_32">
      <g>
       <use xlink:href="#m6f2d496973" x="57.6" y="115.844436" style="stroke: #000000; stroke-width: 0.8"/>
      </g>
     </g>
     <g id="text_17">
      <!-- 150 -->
      <g transform="translate(31.5125 119.643654)scale(0.1 -0.1)">
       <use xlink:href="#DejaVuSans-31"/>
       <use xlink:href="#DejaVuSans-35" x="63.623047"/>
       <use xlink:href="#DejaVuSans-30" x="127.246094"/>
      </g>
     </g>
    </g>
    <g id="ytick_8">
     <g id="line2d_33">
      <path d="M 57.6 85.903842 
L 414.72 85.903842 
" clip-path="url(#p321c5d4c25)" style="fill: none; stroke-dasharray: 2.96,1.28; stroke-dashoffset: 0; stroke: #b0b0b0; stroke-width: 0.8"/>
     </g>
     <g id="line2d_34">
      <g>
       <use xlink:href="#m6f2d496973" x="57.6" y="85.903842" style="stroke: #000000; stroke-width: 0.8"/>
      </g>
     </g>
     <g id="text_18">
      <!-- 175 -->
      <g transform="translate(31.5125 89.70306)scale(0.1 -0.1)">
       <use xlink:href="#DejaVuSans-31"/>
       <use xlink:href="#DejaVuSans-37" x="63.623047"/>
       <use xlink:href="#DejaVuSans-35" x="127.246094"/>
      </g>
     </g>
    </g>
    <g id="ytick_9">
     <g id="line2d_35">
      <path d="M 57.6 55.963248 
L 414.72 55.963248 
" clip-path="url(#p321c5d4c25)" style="fill: none; stroke-dasharray: 2.96,1.28; stroke-dashoffset: 0; stroke: #b0b0b0; stroke-width: 0.8"/>
     </g>
     <g id="line2d_36">
      <g>
       <use xlink:href="#m6f2d496973" x="57.6" y="55.963248" style="stroke: #000000; stroke-width: 0.8"/>
      </g>
     </g>
     <g id="text_19">
      <!-- 200 -->
      <g transform="translate(31.5125 59.762466)scale(0.1 -0.1)">
       <use xlink:href="#DejaVuSans-32"/>
       <use xlink:href="#DejaVuSans-30" x="63.623047"/>
       <use xlink:href="#DejaVuSans-30" x="127.246094"/>
      </g>
     </g>
    </g>
    <g id="text_20">
     <!-- Reward Density -->
     <g transform="translate(25.432812 213.74675)rotate(-90)scale(0.1 -0.1)">
      <defs>
       <path id="DejaVuSans-52" d="M 2841 2188 
Q 3044 2119 3236 1894 
Q 3428 1669 3622 1275 
L 4263 0 
L 3584 0 
L 2988 1197 
Q 2756 1666 2539 1819 
Q 2322 1972 1947 1972 
L 1259 1972 
L 1259 0 
L 628 0 
L 628 4666 
L 2053 4666 
Q 2853 4666 3247 4331 
Q 3641 3997 3641 3322 
Q 3641 2881 3436 2590 
Q 3231 2300 2841 2188 
z
M 1259 4147 
L 1259 2491 
L 2053 2491 
Q 2509 2491 2742 2702 
Q 2975 2913 2975 3322 
Q 2975 3731 2742 3939 
Q 2509 4147 2053 4147 
L 1259 4147 
z
" transform="scale(0.015625)"/>
       <path id="DejaVuSans-77" d="M 269 3500 
L 844 3500 
L 1563 769 
L 2278 3500 
L 2956 3500 
L 3675 769 
L 4391 3500 
L 4966 3500 
L 4050 0 
L 3372 0 
L 2619 2869 
L 1863 0 
L 1184 0 
L 269 3500 
z
" transform="scale(0.015625)"/>
       <path id="DejaVuSans-44" d="M 1259 4147 
L 1259 519 
L 2022 519 
Q 2988 519 3436 956 
Q 3884 1394 3884 2338 
Q 3884 3275 3436 3711 
Q 2988 4147 2022 4147 
L 1259 4147 
z
M 628 4666 
L 1925 4666 
Q 3281 4666 3915 4102 
Q 4550 3538 4550 2338 
Q 4550 1131 3912 565 
Q 3275 0 1925 0 
L 628 0 
L 628 4666 
z
" transform="scale(0.015625)"/>
       <path id="DejaVuSans-74" d="M 1172 4494 
L 1172 3500 
L 2356 3500 
L 2356 3053 
L 1172 3053 
L 1172 1153 
Q 1172 725 1289 603 
Q 1406 481 1766 481 
L 2356 481 
L 2356 0 
L 1766 0 
Q 1100 0 847 248 
Q 594 497 594 1153 
L 594 3053 
L 172 3053 
L 172 3500 
L 594 3500 
L 594 4494 
L 1172 4494 
z
" transform="scale(0.015625)"/>
       <path id="DejaVuSans-79" d="M 2059 -325 
Q 1816 -950 1584 -1140 
Q 1353 -1331 966 -1331 
L 506 -1331 
L 506 -850 
L 844 -850 
Q 1081 -850 1212 -737 
Q 1344 -625 1503 -206 
L 1606 56 
L 191 3500 
L 800 3500 
L 1894 763 
L 2988 3500 
L 3597 3500 
L 2059 -325 
z
" transform="scale(0.015625)"/>
      </defs>
      <use xlink:href="#DejaVuSans-52"/>
      <use xlink:href="#DejaVuSans-65" x="64.982422"/>
      <use xlink:href="#DejaVuSans-77" x="126.505859"/>
      <use xlink:href="#DejaVuSans-61" x="208.292969"/>
      <use xlink:href="#DejaVuSans-72" x="269.572266"/>
      <use xlink:href="#DejaVuSans-64" x="308.935547"/>
      <use xlink:href="#DejaVuSans-20" x="372.412109"/>
      <use xlink:href="#DejaVuSans-44" x="404.199219"/>
      <use xlink:href="#DejaVuSans-65" x="481.201172"/>
      <use xlink:href="#DejaVuSans-6e" x="542.724609"/>
      <use xlink:href="#DejaVuSans-73" x="606.103516"/>
      <use xlink:href="#DejaVuSans-69" x="658.203125"/>
      <use xlink:href="#DejaVuSans-74" x="685.986328"/>
      <use xlink:href="#DejaVuSans-79" x="725.195312"/>
     </g>
    </g>
   </g>
   <g id="LineCollection_1">
    <path d="M 90.919809 207.299777 
L 125.093971 207.299777 
" clip-path="url(#p321c5d4c25)" style="fill: none; stroke: #1f77b4; stroke-width: 1.5"/>
    <path d="M 176.355215 181.694581 
L 210.529378 181.694581 
" clip-path="url(#p321c5d4c25)" style="fill: none; stroke: #1f77b4; stroke-width: 1.5"/>
    <path d="M 261.790622 163.936215 
L 295.964785 163.936215 
" clip-path="url(#p321c5d4c25)" style="fill: none; stroke: #1f77b4; stroke-width: 1.5"/>
    <path d="M 347.226029 178.834655 
L 381.400191 178.834655 
" clip-path="url(#p321c5d4c25)" style="fill: none; stroke: #1f77b4; stroke-width: 1.5"/>
   </g>
   <g id="LineCollection_2">
    <path d="M 90.919809 78.718099 
L 125.093971 78.718099 
" clip-path="url(#p321c5d4c25)" style="fill: none; stroke: #1f77b4; stroke-width: 1.5"/>
    <path d="M 176.355215 57.160871 
L 210.529378 57.160871 
" clip-path="url(#p321c5d4c25)" style="fill: none; stroke: #1f77b4; stroke-width: 1.5"/>
    <path d="M 261.790622 53.568 
L 295.964785 53.568 
" clip-path="url(#p321c5d4c25)" style="fill: none; stroke: #1f77b4; stroke-width: 1.5"/>
    <path d="M 347.226029 67.939485 
L 381.400191 67.939485 
" clip-path="url(#p321c5d4c25)" style="fill: none; stroke: #1f77b4; stroke-width: 1.5"/>
   </g>
   <g id="LineCollection_3">
    <path d="M 90.919809 295.488 
L 125.093971 295.488 
" clip-path="url(#p321c5d4c25)" style="fill: none; stroke: #1f77b4; stroke-width: 1.5"/>
    <path d="M 176.355215 284.709386 
L 210.529378 284.709386 
" clip-path="url(#p321c5d4c25)" style="fill: none; stroke: #1f77b4; stroke-width: 1.5"/>
    <path d="M 261.790622 265.547406 
L 295.964785 265.547406 
" clip-path="url(#p321c5d4c25)" style="fill: none; stroke: #1f77b4; stroke-width: 1.5"/>
    <path d="M 347.226029 295.488 
L 381.400191 295.488 
" clip-path="url(#p321c5d4c25)" style="fill: none; stroke: #1f77b4; stroke-width: 1.5"/>
   </g>
   <g id="LineCollection_4">
    <path d="M 108.00689 295.488 
L 108.00689 78.718099 
" clip-path="url(#p321c5d4c25)" style="fill: none; stroke: #1f77b4; stroke-width: 1.5"/>
    <path d="M 193.442297 284.709386 
L 193.442297 57.160871 
" clip-path="url(#p321c5d4c25)" style="fill: none; stroke: #1f77b4; stroke-width: 1.5"/>
    <path d="M 278.877703 265.547406 
L 278.877703 53.568 
" clip-path="url(#p321c5d4c25)" style="fill: none; stroke: #1f77b4; stroke-width: 1.5"/>
    <path d="M 364.31311 295.488 
L 364.31311 67.939485 
" clip-path="url(#p321c5d4c25)" style="fill: none; stroke: #1f77b4; stroke-width: 1.5"/>
   </g>
   <g id="line2d_37">
    <path d="M 108.00689 207.299777 
L 193.442297 181.694581 
L 278.877703 163.936215 
L 364.31311 178.834655 
" clip-path="url(#p321c5d4c25)" style="fill: none; stroke: #4682b4; stroke-width: 1.5; stroke-linecap: square"/>
   </g>
   <g id="line2d_38">
    <path d="M 108.00689 207.299777 
L 193.442297 181.694581 
L 278.877703 163.936215 
L 364.31311 178.834655 
" clip-path="url(#p321c5d4c25)" style="fill: none; stroke: #4682b4; stroke-width: 1.5; stroke-linecap: square"/>
   </g>
   <g id="patch_3">
    <path d="M 57.6 307.584 
L 57.6 41.472 
" style="fill: none; stroke: #000000; stroke-width: 0.8; stroke-linejoin: miter; stroke-linecap: square"/>
   </g>
   <g id="patch_4">
    <path d="M 414.72 307.584 
L 414.72 41.472 
" style="fill: none; stroke: #000000; stroke-width: 0.8; stroke-linejoin: miter; stroke-linecap: square"/>
   </g>
   <g id="patch_5">
    <path d="M 57.6 307.584 
L 414.72 307.584 
" style="fill: none; stroke: #000000; stroke-width: 0.8; stroke-linejoin: miter; stroke-linecap: square"/>
   </g>
   <g id="patch_6">
    <path d="M 57.6 41.472 
L 414.72 41.472 
" style="fill: none; stroke: #000000; stroke-width: 0.8; stroke-linejoin: miter; stroke-linecap: square"/>
   </g>
   <g id="text_21">
    <!-- Violinplot for progress of customer/purchases_refurbished -->
    <g transform="translate(62.41125 35.472)scale(0.12 -0.12)">
     <defs>
      <path id="DejaVuSans-56" d="M 1831 0 
L 50 4666 
L 709 4666 
L 2188 738 
L 3669 4666 
L 4325 4666 
L 2547 0 
L 1831 0 
z
" transform="scale(0.015625)"/>
      <path id="DejaVuSans-6c" d="M 603 4863 
L 1178 4863 
L 1178 0 
L 603 0 
L 603 4863 
z
" transform="scale(0.015625)"/>
      <path id="DejaVuSans-66" d="M 2375 4863 
L 2375 4384 
L 1825 4384 
Q 1516 4384 1395 4259 
Q 1275 4134 1275 3809 
L 1275 3500 
L 2222 3500 
L 2222 3053 
L 1275 3053 
L 1275 0 
L 697 0 
L 697 3053 
L 147 3053 
L 147 3500 
L 697 3500 
L 697 3744 
Q 697 4328 969 4595 
Q 1241 4863 1831 4863 
L 2375 4863 
z
" transform="scale(0.015625)"/>
      <path id="DejaVuSans-67" d="M 2906 1791 
Q 2906 2416 2648 2759 
Q 2391 3103 1925 3103 
Q 1463 3103 1205 2759 
Q 947 2416 947 1791 
Q 947 1169 1205 825 
Q 1463 481 1925 481 
Q 2391 481 2648 825 
Q 2906 1169 2906 1791 
z
M 3481 434 
Q 3481 -459 3084 -895 
Q 2688 -1331 1869 -1331 
Q 1566 -1331 1297 -1286 
Q 1028 -1241 775 -1147 
L 775 -588 
Q 1028 -725 1275 -790 
Q 1522 -856 1778 -856 
Q 2344 -856 2625 -561 
Q 2906 -266 2906 331 
L 2906 616 
Q 2728 306 2450 153 
Q 2172 0 1784 0 
Q 1141 0 747 490 
Q 353 981 353 1791 
Q 353 2603 747 3093 
Q 1141 3584 1784 3584 
Q 2172 3584 2450 3431 
Q 2728 3278 2906 2969 
L 2906 3500 
L 3481 3500 
L 3481 434 
z
" transform="scale(0.015625)"/>
      <path id="DejaVuSans-63" d="M 3122 3366 
L 3122 2828 
Q 2878 2963 2633 3030 
Q 2388 3097 2138 3097 
Q 1578 3097 1268 2742 
Q 959 2388 959 1747 
Q 959 1106 1268 751 
Q 1578 397 2138 397 
Q 2388 397 2633 464 
Q 2878 531 3122 666 
L 3122 134 
Q 2881 22 2623 -34 
Q 2366 -91 2075 -91 
Q 1284 -91 818 406 
Q 353 903 353 1747 
Q 353 2603 823 3093 
Q 1294 3584 2113 3584 
Q 2378 3584 2631 3529 
Q 2884 3475 3122 3366 
z
" transform="scale(0.015625)"/>
      <path id="DejaVuSans-75" d="M 544 1381 
L 544 3500 
L 1119 3500 
L 1119 1403 
Q 1119 906 1312 657 
Q 1506 409 1894 409 
Q 2359 409 2629 706 
Q 2900 1003 2900 1516 
L 2900 3500 
L 3475 3500 
L 3475 0 
L 2900 0 
L 2900 538 
Q 2691 219 2414 64 
Q 2138 -91 1772 -91 
Q 1169 -91 856 284 
Q 544 659 544 1381 
z
M 1991 3584 
L 1991 3584 
z
" transform="scale(0.015625)"/>
      <path id="DejaVuSans-6d" d="M 3328 2828 
Q 3544 3216 3844 3400 
Q 4144 3584 4550 3584 
Q 5097 3584 5394 3201 
Q 5691 2819 5691 2113 
L 5691 0 
L 5113 0 
L 5113 2094 
Q 5113 2597 4934 2840 
Q 4756 3084 4391 3084 
Q 3944 3084 3684 2787 
Q 3425 2491 3425 1978 
L 3425 0 
L 2847 0 
L 2847 2094 
Q 2847 2600 2669 2842 
Q 2491 3084 2119 3084 
Q 1678 3084 1418 2786 
Q 1159 2488 1159 1978 
L 1159 0 
L 581 0 
L 581 3500 
L 1159 3500 
L 1159 2956 
Q 1356 3278 1631 3431 
Q 1906 3584 2284 3584 
Q 2666 3584 2933 3390 
Q 3200 3197 3328 2828 
z
" transform="scale(0.015625)"/>
      <path id="DejaVuSans-2f" d="M 1625 4666 
L 2156 4666 
L 531 -594 
L 0 -594 
L 1625 4666 
z
" transform="scale(0.015625)"/>
      <path id="DejaVuSans-68" d="M 3513 2113 
L 3513 0 
L 2938 0 
L 2938 2094 
Q 2938 2591 2744 2837 
Q 2550 3084 2163 3084 
Q 1697 3084 1428 2787 
Q 1159 2491 1159 1978 
L 1159 0 
L 581 0 
L 581 4863 
L 1159 4863 
L 1159 2956 
Q 1366 3272 1645 3428 
Q 1925 3584 2291 3584 
Q 2894 3584 3203 3211 
Q 3513 2838 3513 2113 
z
" transform="scale(0.015625)"/>
      <path id="DejaVuSans-5f" d="M 3263 -1063 
L 3263 -1509 
L -63 -1509 
L -63 -1063 
L 3263 -1063 
z
" transform="scale(0.015625)"/>
      <path id="DejaVuSans-62" d="M 3116 1747 
Q 3116 2381 2855 2742 
Q 2594 3103 2138 3103 
Q 1681 3103 1420 2742 
Q 1159 2381 1159 1747 
Q 1159 1113 1420 752 
Q 1681 391 2138 391 
Q 2594 391 2855 752 
Q 3116 1113 3116 1747 
z
M 1159 2969 
Q 1341 3281 1617 3432 
Q 1894 3584 2278 3584 
Q 2916 3584 3314 3078 
Q 3713 2572 3713 1747 
Q 3713 922 3314 415 
Q 2916 -91 2278 -91 
Q 1894 -91 1617 61 
Q 1341 213 1159 525 
L 1159 0 
L 581 0 
L 581 4863 
L 1159 4863 
L 1159 2969 
z
" transform="scale(0.015625)"/>
     </defs>
     <use xlink:href="#DejaVuSans-56"/>
     <use xlink:href="#DejaVuSans-69" x="66.158203"/>
     <use xlink:href="#DejaVuSans-6f" x="93.941406"/>
     <use xlink:href="#DejaVuSans-6c" x="155.123047"/>
     <use xlink:href="#DejaVuSans-69" x="182.90625"/>
     <use xlink:href="#DejaVuSans-6e" x="210.689453"/>
     <use xlink:href="#DejaVuSans-70" x="274.068359"/>
     <use xlink:href="#DejaVuSans-6c" x="337.544922"/>
     <use xlink:href="#DejaVuSans-6f" x="365.328125"/>
     <use xlink:href="#DejaVuSans-74" x="426.509766"/>
     <use xlink:href="#DejaVuSans-20" x="465.71875"/>
     <use xlink:href="#DejaVuSans-66" x="497.505859"/>
     <use xlink:href="#DejaVuSans-6f" x="532.710938"/>
     <use xlink:href="#DejaVuSans-72" x="593.892578"/>
     <use xlink:href="#DejaVuSans-20" x="635.005859"/>
     <use xlink:href="#DejaVuSans-70" x="666.792969"/>
     <use xlink:href="#DejaVuSans-72" x="730.269531"/>
     <use xlink:href="#DejaVuSans-6f" x="769.132812"/>
     <use xlink:href="#DejaVuSans-67" x="830.314453"/>
     <use xlink:href="#DejaVuSans-72" x="893.791016"/>
     <use xlink:href="#DejaVuSans-65" x="932.654297"/>
     <use xlink:href="#DejaVuSans-73" x="994.177734"/>
     <use xlink:href="#DejaVuSans-73" x="1046.277344"/>
     <use xlink:href="#DejaVuSans-20" x="1098.376953"/>
     <use xlink:href="#DejaVuSans-6f" x="1130.164062"/>
     <use xlink:href="#DejaVuSans-66" x="1191.345703"/>
     <use xlink:href="#DejaVuSans-20" x="1226.550781"/>
     <use xlink:href="#DejaVuSans-63" x="1258.337891"/>
     <use xlink:href="#DejaVuSans-75" x="1313.318359"/>
     <use xlink:href="#DejaVuSans-73" x="1376.697266"/>
     <use xlink:href="#DejaVuSans-74" x="1428.796875"/>
     <use xlink:href="#DejaVuSans-6f" x="1468.005859"/>
     <use xlink:href="#DejaVuSans-6d" x="1529.1875"/>
     <use xlink:href="#DejaVuSans-65" x="1626.599609"/>
     <use xlink:href="#DejaVuSans-72" x="1688.123047"/>
     <use xlink:href="#DejaVuSans-2f" x="1729.236328"/>
     <use xlink:href="#DejaVuSans-70" x="1762.927734"/>
     <use xlink:href="#DejaVuSans-75" x="1826.404297"/>
     <use xlink:href="#DejaVuSans-72" x="1889.783203"/>
     <use xlink:href="#DejaVuSans-63" x="1928.646484"/>
     <use xlink:href="#DejaVuSans-68" x="1983.626953"/>
     <use xlink:href="#DejaVuSans-61" x="2047.005859"/>
     <use xlink:href="#DejaVuSans-73" x="2108.285156"/>
     <use xlink:href="#DejaVuSans-65" x="2160.384766"/>
     <use xlink:href="#DejaVuSans-73" x="2221.908203"/>
     <use xlink:href="#DejaVuSans-5f" x="2274.007812"/>
     <use xlink:href="#DejaVuSans-72" x="2324.007812"/>
     <use xlink:href="#DejaVuSans-65" x="2362.871094"/>
     <use xlink:href="#DejaVuSans-66" x="2424.394531"/>
     <use xlink:href="#DejaVuSans-75" x="2459.599609"/>
     <use xlink:href="#DejaVuSans-72" x="2522.978516"/>
     <use xlink:href="#DejaVuSans-62" x="2564.091797"/>
     <use xlink:href="#DejaVuSans-69" x="2627.568359"/>
     <use xlink:href="#DejaVuSans-73" x="2655.351562"/>
     <use xlink:href="#DejaVuSans-68" x="2707.451172"/>
     <use xlink:href="#DejaVuSans-65" x="2770.830078"/>
     <use xlink:href="#DejaVuSans-64" x="2832.353516"/>
    </g>
   </g>
   <g id="legend_1">
    <g id="patch_7">
     <path d="M 276.25125 64.150125 
L 407.72 64.150125 
Q 409.72 64.150125 409.72 62.150125 
L 409.72 48.472 
Q 409.72 46.472 407.72 46.472 
L 276.25125 46.472 
Q 274.25125 46.472 274.25125 48.472 
L 274.25125 62.150125 
Q 274.25125 64.150125 276.25125 64.150125 
z
" style="fill: #ffffff; opacity: 0.8; stroke: #cccccc; stroke-linejoin: miter"/>
    </g>
    <g id="line2d_39">
     <path d="M 278.25125 54.570438 
L 288.25125 54.570438 
L 298.25125 54.570438 
" style="fill: none; stroke: #4682b4; stroke-width: 1.5; stroke-linecap: square"/>
    </g>
    <g id="text_22">
     <!-- StableBaselinesSAC -->
     <g transform="translate(306.25125 58.070438)scale(0.1 -0.1)">
      <defs>
       <path id="DejaVuSans-53" d="M 3425 4513 
L 3425 3897 
Q 3066 4069 2747 4153 
Q 2428 4238 2131 4238 
Q 1616 4238 1336 4038 
Q 1056 3838 1056 3469 
Q 1056 3159 1242 3001 
Q 1428 2844 1947 2747 
L 2328 2669 
Q 3034 2534 3370 2195 
Q 3706 1856 3706 1288 
Q 3706 609 3251 259 
Q 2797 -91 1919 -91 
Q 1588 -91 1214 -16 
Q 841 59 441 206 
L 441 856 
Q 825 641 1194 531 
Q 1563 422 1919 422 
Q 2459 422 2753 634 
Q 3047 847 3047 1241 
Q 3047 1584 2836 1778 
Q 2625 1972 2144 2069 
L 1759 2144 
Q 1053 2284 737 2584 
Q 422 2884 422 3419 
Q 422 4038 858 4394 
Q 1294 4750 2059 4750 
Q 2388 4750 2728 4690 
Q 3069 4631 3425 4513 
z
" transform="scale(0.015625)"/>
       <path id="DejaVuSans-42" d="M 1259 2228 
L 1259 519 
L 2272 519 
Q 2781 519 3026 730 
Q 3272 941 3272 1375 
Q 3272 1813 3026 2020 
Q 2781 2228 2272 2228 
L 1259 2228 
z
M 1259 4147 
L 1259 2741 
L 2194 2741 
Q 2656 2741 2882 2914 
Q 3109 3088 3109 3444 
Q 3109 3797 2882 3972 
Q 2656 4147 2194 4147 
L 1259 4147 
z
M 628 4666 
L 2241 4666 
Q 2963 4666 3353 4366 
Q 3744 4066 3744 3513 
Q 3744 3084 3544 2831 
Q 3344 2578 2956 2516 
Q 3422 2416 3680 2098 
Q 3938 1781 3938 1306 
Q 3938 681 3513 340 
Q 3088 0 2303 0 
L 628 0 
L 628 4666 
z
" transform="scale(0.015625)"/>
       <path id="DejaVuSans-41" d="M 2188 4044 
L 1331 1722 
L 3047 1722 
L 2188 4044 
z
M 1831 4666 
L 2547 4666 
L 4325 0 
L 3669 0 
L 3244 1197 
L 1141 1197 
L 716 0 
L 50 0 
L 1831 4666 
z
" transform="scale(0.015625)"/>
       <path id="DejaVuSans-43" d="M 4122 4306 
L 4122 3641 
Q 3803 3938 3442 4084 
Q 3081 4231 2675 4231 
Q 1875 4231 1450 3742 
Q 1025 3253 1025 2328 
Q 1025 1406 1450 917 
Q 1875 428 2675 428 
Q 3081 428 3442 575 
Q 3803 722 4122 1019 
L 4122 359 
Q 3791 134 3420 21 
Q 3050 -91 2638 -91 
Q 1578 -91 968 557 
Q 359 1206 359 2328 
Q 359 3453 968 4101 
Q 1578 4750 2638 4750 
Q 3056 4750 3426 4639 
Q 3797 4528 4122 4306 
z
" transform="scale(0.015625)"/>
      </defs>
      <use xlink:href="#DejaVuSans-53"/>
      <use xlink:href="#DejaVuSans-74" x="63.476562"/>
      <use xlink:href="#DejaVuSans-61" x="102.685547"/>
      <use xlink:href="#DejaVuSans-62" x="163.964844"/>
      <use xlink:href="#DejaVuSans-6c" x="227.441406"/>
      <use xlink:href="#DejaVuSans-65" x="255.224609"/>
      <use xlink:href="#DejaVuSans-42" x="316.748047"/>
      <use xlink:href="#DejaVuSans-61" x="385.351562"/>
      <use xlink:href="#DejaVuSans-73" x="446.630859"/>
      <use xlink:href="#DejaVuSans-65" x="498.730469"/>
      <use xlink:href="#DejaVuSans-6c" x="560.253906"/>
      <use xlink:href="#DejaVuSans-69" x="588.037109"/>
      <use xlink:href="#DejaVuSans-6e" x="615.820312"/>
      <use xlink:href="#DejaVuSans-65" x="679.199219"/>
      <use xlink:href="#DejaVuSans-73" x="740.722656"/>
      <use xlink:href="#DejaVuSans-53" x="792.822266"/>
      <use xlink:href="#DejaVuSans-41" x="858.173828"/>
      <use xlink:href="#DejaVuSans-43" x="924.832031"/>
     </g>
    </g>
   </g>
  </g>
 </g>
 <defs>
  <clipPath id="p321c5d4c25">
   <rect x="57.6" y="41.472" width="357.12" height="266.112"/>
  </clipPath>
 </defs>
</svg>
