<?xml version="1.0" encoding="utf-8" standalone="no"?>
<!DOCTYPE svg PUBLIC "-//W3C//DTD SVG 1.1//EN"
  "http://www.w3.org/Graphics/SVG/1.1/DTD/svg11.dtd">
<svg xmlns:xlink="http://www.w3.org/1999/xlink" width="460.8pt" height="345.6pt" viewBox="0 0 460.8 345.6" xmlns="http://www.w3.org/2000/svg" version="1.1">
 <metadata>
  <rdf:RDF xmlns:dc="http://purl.org/dc/elements/1.1/" xmlns:cc="http://creativecommons.org/ns#" xmlns:rdf="http://www.w3.org/1999/02/22-rdf-syntax-ns#">
   <cc:Work>
    <dc:type rdf:resource="http://purl.org/dc/dcmitype/StillImage"/>
    <dc:date>2022-06-21T20:54:57.229560</dc:date>
    <dc:format>image/svg+xml</dc:format>
    <dc:creator>
     <cc:Agent>
      <dc:title>Matplotlib v3.5.2, https://matplotlib.org/</dc:title>
     </cc:Agent>
    </dc:creator>
   </cc:Work>
  </rdf:RDF>
 </metadata>
 <defs>
  <style type="text/css">*{stroke-linejoin: round; stroke-linecap: butt}</style>
 </defs>
 <g id="figure_1">
  <g id="patch_1">
   <path d="M 0 345.6 
L 460.8 345.6 
L 460.8 0 
L 0 0 
L 0 345.6 
z
" style="fill: none"/>
  </g>
  <g id="axes_1">
   <g id="patch_2">
    <path d="M 57.6 307.584 
L 414.72 307.584 
L 414.72 41.472 
L 57.6 41.472 
L 57.6 307.584 
z
" style="fill: none"/>
   </g>
   <g id="matplotlib.axis_1">
    <g id="xtick_1">
     <g id="line2d_1">
      <path d="M 70.116143 307.584 
L 70.116143 41.472 
" clip-path="url(#pf5fdf1c3a4)" style="fill: none; stroke-dasharray: 2.96,1.28; stroke-dashoffset: 0; stroke: #b0b0b0; stroke-width: 0.8"/>
     </g>
     <g id="line2d_2">
      <defs>
       <path id="mfe97ab6ce7" d="M 0 0 
L 0 3.5 
" style="stroke: #000000; stroke-width: 0.8"/>
      </defs>
      <g>
       <use xlink:href="#mfe97ab6ce7" x="70.116143" y="307.584" style="stroke: #000000; stroke-width: 0.8"/>
      </g>
     </g>
     <g id="text_1">
      <!-- 0 -->
      <g transform="translate(66.934893 322.182437)scale(0.1 -0.1)">
       <defs>
        <path id="DejaVuSans-30" d="M 2034 4250 
Q 1547 4250 1301 3770 
Q 1056 3291 1056 2328 
Q 1056 1369 1301 889 
Q 1547 409 2034 409 
Q 2525 409 2770 889 
Q 3016 1369 3016 2328 
Q 3016 3291 2770 3770 
Q 2525 4250 2034 4250 
z
M 2034 4750 
Q 2819 4750 3233 4129 
Q 3647 3509 3647 2328 
Q 3647 1150 3233 529 
Q 2819 -91 2034 -91 
Q 1250 -91 836 529 
Q 422 1150 422 2328 
Q 422 3509 836 4129 
Q 1250 4750 2034 4750 
z
" transform="scale(0.015625)"/>
       </defs>
       <use xlink:href="#DejaVuSans-30"/>
      </g>
     </g>
    </g>
    <g id="xtick_2">
     <g id="line2d_3">
      <path d="M 146.63405 307.584 
L 146.63405 41.472 
" clip-path="url(#pf5fdf1c3a4)" style="fill: none; stroke-dasharray: 2.96,1.28; stroke-dashoffset: 0; stroke: #b0b0b0; stroke-width: 0.8"/>
     </g>
     <g id="line2d_4">
      <g>
       <use xlink:href="#mfe97ab6ce7" x="146.63405" y="307.584" style="stroke: #000000; stroke-width: 0.8"/>
      </g>
     </g>
     <g id="text_2">
      <!-- 50 -->
      <g transform="translate(140.27155 322.182437)scale(0.1 -0.1)">
       <defs>
        <path id="DejaVuSans-35" d="M 691 4666 
L 3169 4666 
L 3169 4134 
L 1269 4134 
L 1269 2991 
Q 1406 3038 1543 3061 
Q 1681 3084 1819 3084 
Q 2600 3084 3056 2656 
Q 3513 2228 3513 1497 
Q 3513 744 3044 326 
Q 2575 -91 1722 -91 
Q 1428 -91 1123 -41 
Q 819 9 494 109 
L 494 744 
Q 775 591 1075 516 
Q 1375 441 1709 441 
Q 2250 441 2565 725 
Q 2881 1009 2881 1497 
Q 2881 1984 2565 2268 
Q 2250 2553 1709 2553 
Q 1456 2553 1204 2497 
Q 953 2441 691 2322 
L 691 4666 
z
" transform="scale(0.015625)"/>
       </defs>
       <use xlink:href="#DejaVuSans-35"/>
       <use xlink:href="#DejaVuSans-30" x="63.623047"/>
      </g>
     </g>
    </g>
    <g id="xtick_3">
     <g id="line2d_5">
      <path d="M 223.151956 307.584 
L 223.151956 41.472 
" clip-path="url(#pf5fdf1c3a4)" style="fill: none; stroke-dasharray: 2.96,1.28; stroke-dashoffset: 0; stroke: #b0b0b0; stroke-width: 0.8"/>
     </g>
     <g id="line2d_6">
      <g>
       <use xlink:href="#mfe97ab6ce7" x="223.151956" y="307.584" style="stroke: #000000; stroke-width: 0.8"/>
      </g>
     </g>
     <g id="text_3">
      <!-- 100 -->
      <g transform="translate(213.608206 322.182437)scale(0.1 -0.1)">
       <defs>
        <path id="DejaVuSans-31" d="M 794 531 
L 1825 531 
L 1825 4091 
L 703 3866 
L 703 4441 
L 1819 4666 
L 2450 4666 
L 2450 531 
L 3481 531 
L 3481 0 
L 794 0 
L 794 531 
z
" transform="scale(0.015625)"/>
       </defs>
       <use xlink:href="#DejaVuSans-31"/>
       <use xlink:href="#DejaVuSans-30" x="63.623047"/>
       <use xlink:href="#DejaVuSans-30" x="127.246094"/>
      </g>
     </g>
    </g>
    <g id="xtick_4">
     <g id="line2d_7">
      <path d="M 299.669862 307.584 
L 299.669862 41.472 
" clip-path="url(#pf5fdf1c3a4)" style="fill: none; stroke-dasharray: 2.96,1.28; stroke-dashoffset: 0; stroke: #b0b0b0; stroke-width: 0.8"/>
     </g>
     <g id="line2d_8">
      <g>
       <use xlink:href="#mfe97ab6ce7" x="299.669862" y="307.584" style="stroke: #000000; stroke-width: 0.8"/>
      </g>
     </g>
     <g id="text_4">
      <!-- 150 -->
      <g transform="translate(290.126112 322.182437)scale(0.1 -0.1)">
       <use xlink:href="#DejaVuSans-31"/>
       <use xlink:href="#DejaVuSans-35" x="63.623047"/>
       <use xlink:href="#DejaVuSans-30" x="127.246094"/>
      </g>
     </g>
    </g>
    <g id="xtick_5">
     <g id="line2d_9">
      <path d="M 376.187769 307.584 
L 376.187769 41.472 
" clip-path="url(#pf5fdf1c3a4)" style="fill: none; stroke-dasharray: 2.96,1.28; stroke-dashoffset: 0; stroke: #b0b0b0; stroke-width: 0.8"/>
     </g>
     <g id="line2d_10">
      <g>
       <use xlink:href="#mfe97ab6ce7" x="376.187769" y="307.584" style="stroke: #000000; stroke-width: 0.8"/>
      </g>
     </g>
     <g id="text_5">
      <!-- 200 -->
      <g transform="translate(366.644019 322.182437)scale(0.1 -0.1)">
       <defs>
        <path id="DejaVuSans-32" d="M 1228 531 
L 3431 531 
L 3431 0 
L 469 0 
L 469 531 
Q 828 903 1448 1529 
Q 2069 2156 2228 2338 
Q 2531 2678 2651 2914 
Q 2772 3150 2772 3378 
Q 2772 3750 2511 3984 
Q 2250 4219 1831 4219 
Q 1534 4219 1204 4116 
Q 875 4013 500 3803 
L 500 4441 
Q 881 4594 1212 4672 
Q 1544 4750 1819 4750 
Q 2544 4750 2975 4387 
Q 3406 4025 3406 3419 
Q 3406 3131 3298 2873 
Q 3191 2616 2906 2266 
Q 2828 2175 2409 1742 
Q 1991 1309 1228 531 
z
" transform="scale(0.015625)"/>
       </defs>
       <use xlink:href="#DejaVuSans-32"/>
       <use xlink:href="#DejaVuSans-30" x="63.623047"/>
       <use xlink:href="#DejaVuSans-30" x="127.246094"/>
      </g>
     </g>
    </g>
    <g id="text_6">
     <!-- episode_10000_customer/purchases_refurbished -->
     <g transform="translate(113.824844 335.860562)scale(0.1 -0.1)">
      <defs>
       <path id="DejaVuSans-65" d="M 3597 1894 
L 3597 1613 
L 953 1613 
Q 991 1019 1311 708 
Q 1631 397 2203 397 
Q 2534 397 2845 478 
Q 3156 559 3463 722 
L 3463 178 
Q 3153 47 2828 -22 
Q 2503 -91 2169 -91 
Q 1331 -91 842 396 
Q 353 884 353 1716 
Q 353 2575 817 3079 
Q 1281 3584 2069 3584 
Q 2775 3584 3186 3129 
Q 3597 2675 3597 1894 
z
M 3022 2063 
Q 3016 2534 2758 2815 
Q 2500 3097 2075 3097 
Q 1594 3097 1305 2825 
Q 1016 2553 972 2059 
L 3022 2063 
z
" transform="scale(0.015625)"/>
       <path id="DejaVuSans-70" d="M 1159 525 
L 1159 -1331 
L 581 -1331 
L 581 3500 
L 1159 3500 
L 1159 2969 
Q 1341 3281 1617 3432 
Q 1894 3584 2278 3584 
Q 2916 3584 3314 3078 
Q 3713 2572 3713 1747 
Q 3713 922 3314 415 
Q 2916 -91 2278 -91 
Q 1894 -91 1617 61 
Q 1341 213 1159 525 
z
M 3116 1747 
Q 3116 2381 2855 2742 
Q 2594 3103 2138 3103 
Q 1681 3103 1420 2742 
Q 1159 2381 1159 1747 
Q 1159 1113 1420 752 
Q 1681 391 2138 391 
Q 2594 391 2855 752 
Q 3116 1113 3116 1747 
z
" transform="scale(0.015625)"/>
       <path id="DejaVuSans-69" d="M 603 3500 
L 1178 3500 
L 1178 0 
L 603 0 
L 603 3500 
z
M 603 4863 
L 1178 4863 
L 1178 4134 
L 603 4134 
L 603 4863 
z
" transform="scale(0.015625)"/>
       <path id="DejaVuSans-73" d="M 2834 3397 
L 2834 2853 
Q 2591 2978 2328 3040 
Q 2066 3103 1784 3103 
Q 1356 3103 1142 2972 
Q 928 2841 928 2578 
Q 928 2378 1081 2264 
Q 1234 2150 1697 2047 
L 1894 2003 
Q 2506 1872 2764 1633 
Q 3022 1394 3022 966 
Q 3022 478 2636 193 
Q 2250 -91 1575 -91 
Q 1294 -91 989 -36 
Q 684 19 347 128 
L 347 722 
Q 666 556 975 473 
Q 1284 391 1588 391 
Q 1994 391 2212 530 
Q 2431 669 2431 922 
Q 2431 1156 2273 1281 
Q 2116 1406 1581 1522 
L 1381 1569 
Q 847 1681 609 1914 
Q 372 2147 372 2553 
Q 372 3047 722 3315 
Q 1072 3584 1716 3584 
Q 2034 3584 2315 3537 
Q 2597 3491 2834 3397 
z
" transform="scale(0.015625)"/>
       <path id="DejaVuSans-6f" d="M 1959 3097 
Q 1497 3097 1228 2736 
Q 959 2375 959 1747 
Q 959 1119 1226 758 
Q 1494 397 1959 397 
Q 2419 397 2687 759 
Q 2956 1122 2956 1747 
Q 2956 2369 2687 2733 
Q 2419 3097 1959 3097 
z
M 1959 3584 
Q 2709 3584 3137 3096 
Q 3566 2609 3566 1747 
Q 3566 888 3137 398 
Q 2709 -91 1959 -91 
Q 1206 -91 779 398 
Q 353 888 353 1747 
Q 353 2609 779 3096 
Q 1206 3584 1959 3584 
z
" transform="scale(0.015625)"/>
       <path id="DejaVuSans-64" d="M 2906 2969 
L 2906 4863 
L 3481 4863 
L 3481 0 
L 2906 0 
L 2906 525 
Q 2725 213 2448 61 
Q 2172 -91 1784 -91 
Q 1150 -91 751 415 
Q 353 922 353 1747 
Q 353 2572 751 3078 
Q 1150 3584 1784 3584 
Q 2172 3584 2448 3432 
Q 2725 3281 2906 2969 
z
M 947 1747 
Q 947 1113 1208 752 
Q 1469 391 1925 391 
Q 2381 391 2643 752 
Q 2906 1113 2906 1747 
Q 2906 2381 2643 2742 
Q 2381 3103 1925 3103 
Q 1469 3103 1208 2742 
Q 947 2381 947 1747 
z
" transform="scale(0.015625)"/>
       <path id="DejaVuSans-5f" d="M 3263 -1063 
L 3263 -1509 
L -63 -1509 
L -63 -1063 
L 3263 -1063 
z
" transform="scale(0.015625)"/>
       <path id="DejaVuSans-63" d="M 3122 3366 
L 3122 2828 
Q 2878 2963 2633 3030 
Q 2388 3097 2138 3097 
Q 1578 3097 1268 2742 
Q 959 2388 959 1747 
Q 959 1106 1268 751 
Q 1578 397 2138 397 
Q 2388 397 2633 464 
Q 2878 531 3122 666 
L 3122 134 
Q 2881 22 2623 -34 
Q 2366 -91 2075 -91 
Q 1284 -91 818 406 
Q 353 903 353 1747 
Q 353 2603 823 3093 
Q 1294 3584 2113 3584 
Q 2378 3584 2631 3529 
Q 2884 3475 3122 3366 
z
" transform="scale(0.015625)"/>
       <path id="DejaVuSans-75" d="M 544 1381 
L 544 3500 
L 1119 3500 
L 1119 1403 
Q 1119 906 1312 657 
Q 1506 409 1894 409 
Q 2359 409 2629 706 
Q 2900 1003 2900 1516 
L 2900 3500 
L 3475 3500 
L 3475 0 
L 2900 0 
L 2900 538 
Q 2691 219 2414 64 
Q 2138 -91 1772 -91 
Q 1169 -91 856 284 
Q 544 659 544 1381 
z
M 1991 3584 
L 1991 3584 
z
" transform="scale(0.015625)"/>
       <path id="DejaVuSans-74" d="M 1172 4494 
L 1172 3500 
L 2356 3500 
L 2356 3053 
L 1172 3053 
L 1172 1153 
Q 1172 725 1289 603 
Q 1406 481 1766 481 
L 2356 481 
L 2356 0 
L 1766 0 
Q 1100 0 847 248 
Q 594 497 594 1153 
L 594 3053 
L 172 3053 
L 172 3500 
L 594 3500 
L 594 4494 
L 1172 4494 
z
" transform="scale(0.015625)"/>
       <path id="DejaVuSans-6d" d="M 3328 2828 
Q 3544 3216 3844 3400 
Q 4144 3584 4550 3584 
Q 5097 3584 5394 3201 
Q 5691 2819 5691 2113 
L 5691 0 
L 5113 0 
L 5113 2094 
Q 5113 2597 4934 2840 
Q 4756 3084 4391 3084 
Q 3944 3084 3684 2787 
Q 3425 2491 3425 1978 
L 3425 0 
L 2847 0 
L 2847 2094 
Q 2847 2600 2669 2842 
Q 2491 3084 2119 3084 
Q 1678 3084 1418 2786 
Q 1159 2488 1159 1978 
L 1159 0 
L 581 0 
L 581 3500 
L 1159 3500 
L 1159 2956 
Q 1356 3278 1631 3431 
Q 1906 3584 2284 3584 
Q 2666 3584 2933 3390 
Q 3200 3197 3328 2828 
z
" transform="scale(0.015625)"/>
       <path id="DejaVuSans-72" d="M 2631 2963 
Q 2534 3019 2420 3045 
Q 2306 3072 2169 3072 
Q 1681 3072 1420 2755 
Q 1159 2438 1159 1844 
L 1159 0 
L 581 0 
L 581 3500 
L 1159 3500 
L 1159 2956 
Q 1341 3275 1631 3429 
Q 1922 3584 2338 3584 
Q 2397 3584 2469 3576 
Q 2541 3569 2628 3553 
L 2631 2963 
z
" transform="scale(0.015625)"/>
       <path id="DejaVuSans-2f" d="M 1625 4666 
L 2156 4666 
L 531 -594 
L 0 -594 
L 1625 4666 
z
" transform="scale(0.015625)"/>
       <path id="DejaVuSans-68" d="M 3513 2113 
L 3513 0 
L 2938 0 
L 2938 2094 
Q 2938 2591 2744 2837 
Q 2550 3084 2163 3084 
Q 1697 3084 1428 2787 
Q 1159 2491 1159 1978 
L 1159 0 
L 581 0 
L 581 4863 
L 1159 4863 
L 1159 2956 
Q 1366 3272 1645 3428 
Q 1925 3584 2291 3584 
Q 2894 3584 3203 3211 
Q 3513 2838 3513 2113 
z
" transform="scale(0.015625)"/>
       <path id="DejaVuSans-61" d="M 2194 1759 
Q 1497 1759 1228 1600 
Q 959 1441 959 1056 
Q 959 750 1161 570 
Q 1363 391 1709 391 
Q 2188 391 2477 730 
Q 2766 1069 2766 1631 
L 2766 1759 
L 2194 1759 
z
M 3341 1997 
L 3341 0 
L 2766 0 
L 2766 531 
Q 2569 213 2275 61 
Q 1981 -91 1556 -91 
Q 1019 -91 701 211 
Q 384 513 384 1019 
Q 384 1609 779 1909 
Q 1175 2209 1959 2209 
L 2766 2209 
L 2766 2266 
Q 2766 2663 2505 2880 
Q 2244 3097 1772 3097 
Q 1472 3097 1187 3025 
Q 903 2953 641 2809 
L 641 3341 
Q 956 3463 1253 3523 
Q 1550 3584 1831 3584 
Q 2591 3584 2966 3190 
Q 3341 2797 3341 1997 
z
" transform="scale(0.015625)"/>
       <path id="DejaVuSans-66" d="M 2375 4863 
L 2375 4384 
L 1825 4384 
Q 1516 4384 1395 4259 
Q 1275 4134 1275 3809 
L 1275 3500 
L 2222 3500 
L 2222 3053 
L 1275 3053 
L 1275 0 
L 697 0 
L 697 3053 
L 147 3053 
L 147 3500 
L 697 3500 
L 697 3744 
Q 697 4328 969 4595 
Q 1241 4863 1831 4863 
L 2375 4863 
z
" transform="scale(0.015625)"/>
       <path id="DejaVuSans-62" d="M 3116 1747 
Q 3116 2381 2855 2742 
Q 2594 3103 2138 3103 
Q 1681 3103 1420 2742 
Q 1159 2381 1159 1747 
Q 1159 1113 1420 752 
Q 1681 391 2138 391 
Q 2594 391 2855 752 
Q 3116 1113 3116 1747 
z
M 1159 2969 
Q 1341 3281 1617 3432 
Q 1894 3584 2278 3584 
Q 2916 3584 3314 3078 
Q 3713 2572 3713 1747 
Q 3713 922 3314 415 
Q 2916 -91 2278 -91 
Q 1894 -91 1617 61 
Q 1341 213 1159 525 
L 1159 0 
L 581 0 
L 581 4863 
L 1159 4863 
L 1159 2969 
z
" transform="scale(0.015625)"/>
      </defs>
      <use xlink:href="#DejaVuSans-65"/>
      <use xlink:href="#DejaVuSans-70" x="61.523438"/>
      <use xlink:href="#DejaVuSans-69" x="125"/>
      <use xlink:href="#DejaVuSans-73" x="152.783203"/>
      <use xlink:href="#DejaVuSans-6f" x="204.882812"/>
      <use xlink:href="#DejaVuSans-64" x="266.064453"/>
      <use xlink:href="#DejaVuSans-65" x="329.541016"/>
      <use xlink:href="#DejaVuSans-5f" x="391.064453"/>
      <use xlink:href="#DejaVuSans-31" x="441.064453"/>
      <use xlink:href="#DejaVuSans-30" x="504.6875"/>
      <use xlink:href="#DejaVuSans-30" x="568.310547"/>
      <use xlink:href="#DejaVuSans-30" x="631.933594"/>
      <use xlink:href="#DejaVuSans-30" x="695.556641"/>
      <use xlink:href="#DejaVuSans-5f" x="759.179688"/>
      <use xlink:href="#DejaVuSans-63" x="809.179688"/>
      <use xlink:href="#DejaVuSans-75" x="864.160156"/>
      <use xlink:href="#DejaVuSans-73" x="927.539062"/>
      <use xlink:href="#DejaVuSans-74" x="979.638672"/>
      <use xlink:href="#DejaVuSans-6f" x="1018.847656"/>
      <use xlink:href="#DejaVuSans-6d" x="1080.029297"/>
      <use xlink:href="#DejaVuSans-65" x="1177.441406"/>
      <use xlink:href="#DejaVuSans-72" x="1238.964844"/>
      <use xlink:href="#DejaVuSans-2f" x="1280.078125"/>
      <use xlink:href="#DejaVuSans-70" x="1313.769531"/>
      <use xlink:href="#DejaVuSans-75" x="1377.246094"/>
      <use xlink:href="#DejaVuSans-72" x="1440.625"/>
      <use xlink:href="#DejaVuSans-63" x="1479.488281"/>
      <use xlink:href="#DejaVuSans-68" x="1534.46875"/>
      <use xlink:href="#DejaVuSans-61" x="1597.847656"/>
      <use xlink:href="#DejaVuSans-73" x="1659.126953"/>
      <use xlink:href="#DejaVuSans-65" x="1711.226562"/>
      <use xlink:href="#DejaVuSans-73" x="1772.75"/>
      <use xlink:href="#DejaVuSans-5f" x="1824.849609"/>
      <use xlink:href="#DejaVuSans-72" x="1874.849609"/>
      <use xlink:href="#DejaVuSans-65" x="1913.712891"/>
      <use xlink:href="#DejaVuSans-66" x="1975.236328"/>
      <use xlink:href="#DejaVuSans-75" x="2010.441406"/>
      <use xlink:href="#DejaVuSans-72" x="2073.820312"/>
      <use xlink:href="#DejaVuSans-62" x="2114.933594"/>
      <use xlink:href="#DejaVuSans-69" x="2178.410156"/>
      <use xlink:href="#DejaVuSans-73" x="2206.193359"/>
      <use xlink:href="#DejaVuSans-68" x="2258.292969"/>
      <use xlink:href="#DejaVuSans-65" x="2321.671875"/>
      <use xlink:href="#DejaVuSans-64" x="2383.195312"/>
     </g>
    </g>
   </g>
   <g id="matplotlib.axis_2">
    <g id="ytick_1">
     <g id="line2d_11">
      <path d="M 57.6 295.488 
L 414.72 295.488 
" clip-path="url(#pf5fdf1c3a4)" style="fill: none; stroke-dasharray: 2.96,1.28; stroke-dashoffset: 0; stroke: #b0b0b0; stroke-width: 0.8"/>
     </g>
     <g id="line2d_12">
      <defs>
       <path id="m6cae6584f8" d="M 0 0 
L -3.5 0 
" style="stroke: #000000; stroke-width: 0.8"/>
      </defs>
      <g>
       <use xlink:href="#m6cae6584f8" x="57.6" y="295.488" style="stroke: #000000; stroke-width: 0.8"/>
      </g>
     </g>
     <g id="text_7">
      <!-- 0.00 -->
      <g transform="translate(28.334375 299.287219)scale(0.1 -0.1)">
       <defs>
        <path id="DejaVuSans-2e" d="M 684 794 
L 1344 794 
L 1344 0 
L 684 0 
L 684 794 
z
" transform="scale(0.015625)"/>
       </defs>
       <use xlink:href="#DejaVuSans-30"/>
       <use xlink:href="#DejaVuSans-2e" x="63.623047"/>
       <use xlink:href="#DejaVuSans-30" x="95.410156"/>
       <use xlink:href="#DejaVuSans-30" x="159.033203"/>
      </g>
     </g>
    </g>
    <g id="ytick_2">
     <g id="line2d_13">
      <path d="M 57.6 239.83509 
L 414.72 239.83509 
" clip-path="url(#pf5fdf1c3a4)" style="fill: none; stroke-dasharray: 2.96,1.28; stroke-dashoffset: 0; stroke: #b0b0b0; stroke-width: 0.8"/>
     </g>
     <g id="line2d_14">
      <g>
       <use xlink:href="#m6cae6584f8" x="57.6" y="239.83509" style="stroke: #000000; stroke-width: 0.8"/>
      </g>
     </g>
     <g id="text_8">
      <!-- 0.01 -->
      <g transform="translate(28.334375 243.634308)scale(0.1 -0.1)">
       <use xlink:href="#DejaVuSans-30"/>
       <use xlink:href="#DejaVuSans-2e" x="63.623047"/>
       <use xlink:href="#DejaVuSans-30" x="95.410156"/>
       <use xlink:href="#DejaVuSans-31" x="159.033203"/>
      </g>
     </g>
    </g>
    <g id="ytick_3">
     <g id="line2d_15">
      <path d="M 57.6 184.182179 
L 414.72 184.182179 
" clip-path="url(#pf5fdf1c3a4)" style="fill: none; stroke-dasharray: 2.96,1.28; stroke-dashoffset: 0; stroke: #b0b0b0; stroke-width: 0.8"/>
     </g>
     <g id="line2d_16">
      <g>
       <use xlink:href="#m6cae6584f8" x="57.6" y="184.182179" style="stroke: #000000; stroke-width: 0.8"/>
      </g>
     </g>
     <g id="text_9">
      <!-- 0.02 -->
      <g transform="translate(28.334375 187.981398)scale(0.1 -0.1)">
       <use xlink:href="#DejaVuSans-30"/>
       <use xlink:href="#DejaVuSans-2e" x="63.623047"/>
       <use xlink:href="#DejaVuSans-30" x="95.410156"/>
       <use xlink:href="#DejaVuSans-32" x="159.033203"/>
      </g>
     </g>
    </g>
    <g id="ytick_4">
     <g id="line2d_17">
      <path d="M 57.6 128.529269 
L 414.72 128.529269 
" clip-path="url(#pf5fdf1c3a4)" style="fill: none; stroke-dasharray: 2.96,1.28; stroke-dashoffset: 0; stroke: #b0b0b0; stroke-width: 0.8"/>
     </g>
     <g id="line2d_18">
      <g>
       <use xlink:href="#m6cae6584f8" x="57.6" y="128.529269" style="stroke: #000000; stroke-width: 0.8"/>
      </g>
     </g>
     <g id="text_10">
      <!-- 0.03 -->
      <g transform="translate(28.334375 132.328488)scale(0.1 -0.1)">
       <defs>
        <path id="DejaVuSans-33" d="M 2597 2516 
Q 3050 2419 3304 2112 
Q 3559 1806 3559 1356 
Q 3559 666 3084 287 
Q 2609 -91 1734 -91 
Q 1441 -91 1130 -33 
Q 819 25 488 141 
L 488 750 
Q 750 597 1062 519 
Q 1375 441 1716 441 
Q 2309 441 2620 675 
Q 2931 909 2931 1356 
Q 2931 1769 2642 2001 
Q 2353 2234 1838 2234 
L 1294 2234 
L 1294 2753 
L 1863 2753 
Q 2328 2753 2575 2939 
Q 2822 3125 2822 3475 
Q 2822 3834 2567 4026 
Q 2313 4219 1838 4219 
Q 1578 4219 1281 4162 
Q 984 4106 628 3988 
L 628 4550 
Q 988 4650 1302 4700 
Q 1616 4750 1894 4750 
Q 2613 4750 3031 4423 
Q 3450 4097 3450 3541 
Q 3450 3153 3228 2886 
Q 3006 2619 2597 2516 
z
" transform="scale(0.015625)"/>
       </defs>
       <use xlink:href="#DejaVuSans-30"/>
       <use xlink:href="#DejaVuSans-2e" x="63.623047"/>
       <use xlink:href="#DejaVuSans-30" x="95.410156"/>
       <use xlink:href="#DejaVuSans-33" x="159.033203"/>
      </g>
     </g>
    </g>
    <g id="ytick_5">
     <g id="line2d_19">
      <path d="M 57.6 72.876359 
L 414.72 72.876359 
" clip-path="url(#pf5fdf1c3a4)" style="fill: none; stroke-dasharray: 2.96,1.28; stroke-dashoffset: 0; stroke: #b0b0b0; stroke-width: 0.8"/>
     </g>
     <g id="line2d_20">
      <g>
       <use xlink:href="#m6cae6584f8" x="57.6" y="72.876359" style="stroke: #000000; stroke-width: 0.8"/>
      </g>
     </g>
     <g id="text_11">
      <!-- 0.04 -->
      <g transform="translate(28.334375 76.675578)scale(0.1 -0.1)">
       <defs>
        <path id="DejaVuSans-34" d="M 2419 4116 
L 825 1625 
L 2419 1625 
L 2419 4116 
z
M 2253 4666 
L 3047 4666 
L 3047 1625 
L 3713 1625 
L 3713 1100 
L 3047 1100 
L 3047 0 
L 2419 0 
L 2419 1100 
L 313 1100 
L 313 1709 
L 2253 4666 
z
" transform="scale(0.015625)"/>
       </defs>
       <use xlink:href="#DejaVuSans-30"/>
       <use xlink:href="#DejaVuSans-2e" x="63.623047"/>
       <use xlink:href="#DejaVuSans-30" x="95.410156"/>
       <use xlink:href="#DejaVuSans-34" x="159.033203"/>
      </g>
     </g>
    </g>
    <g id="text_12">
     <!-- Probability density -->
     <g transform="translate(22.254687 220.878781)rotate(-90)scale(0.1 -0.1)">
      <defs>
       <path id="DejaVuSans-50" d="M 1259 4147 
L 1259 2394 
L 2053 2394 
Q 2494 2394 2734 2622 
Q 2975 2850 2975 3272 
Q 2975 3691 2734 3919 
Q 2494 4147 2053 4147 
L 1259 4147 
z
M 628 4666 
L 2053 4666 
Q 2838 4666 3239 4311 
Q 3641 3956 3641 3272 
Q 3641 2581 3239 2228 
Q 2838 1875 2053 1875 
L 1259 1875 
L 1259 0 
L 628 0 
L 628 4666 
z
" transform="scale(0.015625)"/>
       <path id="DejaVuSans-6c" d="M 603 4863 
L 1178 4863 
L 1178 0 
L 603 0 
L 603 4863 
z
" transform="scale(0.015625)"/>
       <path id="DejaVuSans-79" d="M 2059 -325 
Q 1816 -950 1584 -1140 
Q 1353 -1331 966 -1331 
L 506 -1331 
L 506 -850 
L 844 -850 
Q 1081 -850 1212 -737 
Q 1344 -625 1503 -206 
L 1606 56 
L 191 3500 
L 800 3500 
L 1894 763 
L 2988 3500 
L 3597 3500 
L 2059 -325 
z
" transform="scale(0.015625)"/>
       <path id="DejaVuSans-20" transform="scale(0.015625)"/>
       <path id="DejaVuSans-6e" d="M 3513 2113 
L 3513 0 
L 2938 0 
L 2938 2094 
Q 2938 2591 2744 2837 
Q 2550 3084 2163 3084 
Q 1697 3084 1428 2787 
Q 1159 2491 1159 1978 
L 1159 0 
L 581 0 
L 581 3500 
L 1159 3500 
L 1159 2956 
Q 1366 3272 1645 3428 
Q 1925 3584 2291 3584 
Q 2894 3584 3203 3211 
Q 3513 2838 3513 2113 
z
" transform="scale(0.015625)"/>
      </defs>
      <use xlink:href="#DejaVuSans-50"/>
      <use xlink:href="#DejaVuSans-72" x="58.552734"/>
      <use xlink:href="#DejaVuSans-6f" x="97.416016"/>
      <use xlink:href="#DejaVuSans-62" x="158.597656"/>
      <use xlink:href="#DejaVuSans-61" x="222.074219"/>
      <use xlink:href="#DejaVuSans-62" x="283.353516"/>
      <use xlink:href="#DejaVuSans-69" x="346.830078"/>
      <use xlink:href="#DejaVuSans-6c" x="374.613281"/>
      <use xlink:href="#DejaVuSans-69" x="402.396484"/>
      <use xlink:href="#DejaVuSans-74" x="430.179688"/>
      <use xlink:href="#DejaVuSans-79" x="469.388672"/>
      <use xlink:href="#DejaVuSans-20" x="528.568359"/>
      <use xlink:href="#DejaVuSans-64" x="560.355469"/>
      <use xlink:href="#DejaVuSans-65" x="623.832031"/>
      <use xlink:href="#DejaVuSans-6e" x="685.355469"/>
      <use xlink:href="#DejaVuSans-73" x="748.734375"/>
      <use xlink:href="#DejaVuSans-69" x="800.833984"/>
      <use xlink:href="#DejaVuSans-74" x="828.617188"/>
      <use xlink:href="#DejaVuSans-79" x="867.826172"/>
     </g>
    </g>
   </g>
   <g id="line2d_21">
    <path d="M 73.832727 295.485825 
L 77.112066 295.48112 
L 80.391405 295.468379 
L 83.670744 295.437449 
L 86.950083 295.370045 
L 90.229421 295.237751 
L 93.50876 295.002505 
L 96.788099 294.61954 
L 100.067438 294.039261 
L 103.346777 293.20206 
L 106.626116 292.023509 
L 109.905455 290.377643 
L 113.184793 288.095627 
L 116.464132 284.993967 
L 119.743471 280.927466 
L 123.02281 275.841109 
L 126.302149 269.791709 
L 129.581488 262.930113 
L 132.860826 255.46159 
L 136.140165 247.613979 
L 139.419504 239.63269 
L 142.698843 231.798679 
L 145.978182 224.445941 
L 149.257521 217.951442 
L 152.53686 212.687479 
L 155.816198 208.953699 
L 159.095537 206.919267 
L 162.374876 206.589372 
L 165.654215 207.783527 
L 168.933554 210.115849 
L 172.212893 213.006692 
L 175.492231 215.780788 
L 178.77157 217.864982 
L 182.050909 219.007325 
L 185.330248 219.386441 
L 188.609587 219.529292 
L 191.888926 220.072785 
L 195.168264 221.494077 
L 198.447603 223.935736 
L 201.726942 227.184168 
L 205.006281 230.781425 
L 208.28562 234.202118 
L 211.564959 237.017956 
L 214.844298 238.995657 
L 218.123636 240.115697 
L 221.402975 240.538645 
L 224.682314 240.560912 
L 227.961653 240.583381 
L 231.240992 241.079 
L 234.520331 242.523386 
L 237.799669 245.274464 
L 241.079008 249.442357 
L 244.358347 254.827383 
L 247.637686 260.977183 
L 250.917025 267.338002 
L 254.196364 273.415225 
L 257.475702 278.865509 
L 260.755041 283.503479 
L 264.03438 287.261575 
L 267.313719 290.150667 
L 270.593058 292.240269 
L 273.872397 293.648157 
L 277.151736 294.52384 
L 280.431074 295.023058 
L 283.710413 295.282553 
L 286.989752 295.405092 
L 290.269091 295.457526 
L 293.54843 295.47782 
L 296.827769 295.484914 
L 300.107107 295.487153 
L 303.386446 295.48779 
L 306.665785 295.487953 
L 309.945124 295.48799 
L 313.224463 295.487998 
L 316.503802 295.488 
L 319.78314 295.488 
L 323.062479 295.488 
L 326.341818 295.488 
L 329.621157 295.488 
L 332.900496 295.488 
L 336.179835 295.488 
L 339.459174 295.488 
L 342.738512 295.488 
L 346.017851 295.488 
L 349.29719 295.488 
L 352.576529 295.488 
L 355.855868 295.488 
L 359.135207 295.488 
L 362.414545 295.488 
L 365.693884 295.488 
L 368.973223 295.488 
L 372.252562 295.488 
L 375.531901 295.488 
L 378.81124 295.488 
L 382.090579 295.488 
L 385.369917 295.488 
L 388.649256 295.488 
L 391.928595 295.488 
L 395.207934 295.488 
L 398.487273 295.488 
" clip-path="url(#pf5fdf1c3a4)" style="fill: none; stroke: #1f77b4; stroke-width: 1.5; stroke-linecap: square"/>
   </g>
   <g id="line2d_22">
    <path d="M 73.832727 295.488 
L 77.112066 295.488 
L 80.391405 295.488 
L 83.670744 295.488 
L 86.950083 295.488 
L 90.229421 295.488 
L 93.50876 295.488 
L 96.788099 295.488 
L 100.067438 295.488 
L 103.346777 295.488 
L 106.626116 295.488 
L 109.905455 295.488 
L 113.184793 295.488 
L 116.464132 295.488 
L 119.743471 295.488 
L 123.02281 295.488 
L 126.302149 295.488 
L 129.581488 295.487999 
L 132.860826 295.487996 
L 136.140165 295.48798 
L 139.419504 295.487903 
L 142.698843 295.487581 
L 145.978182 295.486391 
L 149.257521 295.482498 
L 152.53686 295.47118 
L 155.816198 295.441852 
L 159.095537 295.37388 
L 162.374876 295.232365 
L 165.654215 294.966524 
L 168.933554 294.514141 
L 172.212893 293.814861 
L 175.492231 292.832054 
L 178.77157 291.577263 
L 182.050909 290.124373 
L 185.330248 288.597474 
L 188.609587 287.124344 
L 191.888926 285.768927 
L 195.168264 284.480491 
L 198.447603 283.102091 
L 201.726942 281.449304 
L 205.006281 279.41492 
L 208.28562 277.023483 
L 211.564959 274.392478 
L 214.844298 271.635061 
L 218.123636 268.786555 
L 221.402975 265.803735 
L 224.682314 262.610634 
L 227.961653 259.129405 
L 231.240992 255.269014 
L 234.520331 250.901936 
L 237.799669 245.880249 
L 241.079008 240.112803 
L 244.358347 233.671352 
L 247.637686 226.852999 
L 250.917025 220.129976 
L 254.196364 213.979009 
L 257.475702 208.676372 
L 260.755041 204.20065 
L 264.03438 200.33365 
L 267.313719 196.903983 
L 270.593058 193.993457 
L 273.872397 191.944525 
L 277.151736 191.165452 
L 280.431074 191.890299 
L 283.710413 194.069142 
L 286.989752 197.434693 
L 290.269091 201.651238 
L 293.54843 206.430785 
L 296.827769 211.584558 
L 300.107107 217.040787 
L 303.386446 222.835575 
L 306.665785 229.042615 
L 309.945124 235.642858 
L 313.224463 242.420627 
L 316.503802 248.992477 
L 319.78314 254.980248 
L 323.062479 260.215443 
L 326.341818 264.826662 
L 329.621157 269.143084 
L 332.900496 273.474592 
L 336.179835 277.911413 
L 339.459174 282.270278 
L 342.738512 286.210766 
L 346.017851 289.428951 
L 349.29719 291.796486 
L 352.576529 293.376571 
L 355.855868 294.34633 
L 359.135207 294.902454 
L 362.414545 295.204055 
L 365.693884 295.359063 
L 368.973223 295.433882 
L 372.252562 295.467273 
L 375.531901 295.480833 
L 378.81124 295.48578 
L 382.090579 295.487387 
L 385.369917 295.48785 
L 388.649256 295.487967 
L 391.928595 295.487994 
L 395.207934 295.487999 
L 398.487273 295.488 
" clip-path="url(#pf5fdf1c3a4)" style="fill: none; stroke: #ff7f0e; stroke-width: 1.5; stroke-linecap: square"/>
   </g>
   <g id="line2d_23">
    <path d="M 73.832727 295.488 
L 77.112066 295.488 
L 80.391405 295.488 
L 83.670744 295.488 
L 86.950083 295.488 
L 90.229421 295.488 
L 93.50876 295.488 
L 96.788099 295.488 
L 100.067438 295.488 
L 103.346777 295.488 
L 106.626116 295.488 
L 109.905455 295.488 
L 113.184793 295.487999 
L 116.464132 295.487982 
L 119.743471 295.487814 
L 123.02281 295.486491 
L 126.302149 295.478363 
L 129.581488 295.439199 
L 132.860826 295.290338 
L 136.140165 294.84135 
L 139.419504 293.762558 
L 142.698843 291.69892 
L 145.978182 288.578141 
L 149.257521 284.890012 
L 152.53686 281.476591 
L 155.816198 278.747348 
L 159.095537 276.090399 
L 162.374876 272.270613 
L 165.654215 266.422685 
L 168.933554 258.65269 
L 172.212893 249.90392 
L 175.492231 241.135419 
L 178.77157 232.234124 
L 182.050909 222.084922 
L 185.330248 210.353702 
L 188.609587 198.715715 
L 191.888926 189.451365 
L 195.168264 182.936118 
L 198.447603 177.056123 
L 201.726942 169.408706 
L 205.006281 160.191478 
L 208.28562 152.588005 
L 211.564959 149.952936 
L 214.844298 152.8859 
L 218.123636 159.179021 
L 221.402975 166.057136 
L 224.682314 172.313243 
L 227.961653 178.965095 
L 231.240992 188.184041 
L 234.520331 201.178918 
L 237.799669 216.944213 
L 241.079008 233.178556 
L 244.358347 248.101782 
L 247.637686 261.097424 
L 250.917025 272.074993 
L 254.196364 280.831286 
L 257.475702 287.092849 
L 260.755041 290.943029 
L 264.03438 292.995867 
L 267.313719 294.06013 
L 270.593058 294.692565 
L 273.872397 295.101028 
L 277.151736 295.334829 
L 280.431074 295.440288 
L 283.710413 295.476465 
L 286.989752 295.485848 
L 290.269091 295.487691 
L 293.54843 295.487966 
L 296.827769 295.487997 
L 300.107107 295.488 
L 303.386446 295.488 
L 306.665785 295.488 
L 309.945124 295.488 
L 313.224463 295.488 
L 316.503802 295.488 
L 319.78314 295.488 
L 323.062479 295.488 
L 326.341818 295.488 
L 329.621157 295.488 
L 332.900496 295.488 
L 336.179835 295.488 
L 339.459174 295.488 
L 342.738512 295.488 
L 346.017851 295.488 
L 349.29719 295.488 
L 352.576529 295.488 
L 355.855868 295.488 
L 359.135207 295.488 
L 362.414545 295.488 
L 365.693884 295.488 
L 368.973223 295.488 
L 372.252562 295.488 
L 375.531901 295.488 
L 378.81124 295.488 
L 382.090579 295.488 
L 385.369917 295.488 
L 388.649256 295.488 
L 391.928595 295.488 
L 395.207934 295.488 
L 398.487273 295.488 
" clip-path="url(#pf5fdf1c3a4)" style="fill: none; stroke: #2ca02c; stroke-width: 1.5; stroke-linecap: square"/>
   </g>
   <g id="line2d_24">
    <path d="M 73.832727 295.488 
L 77.112066 295.488 
L 80.391405 295.488 
L 83.670744 295.488 
L 86.950083 295.488 
L 90.229421 295.488 
L 93.50876 295.488 
L 96.788099 295.488 
L 100.067438 295.488 
L 103.346777 295.487984 
L 106.626116 295.487287 
L 109.905455 295.472023 
L 113.184793 295.302511 
L 116.464132 294.314137 
L 119.743471 291.115125 
L 123.02281 285.189342 
L 126.302149 279.473352 
L 129.581488 276.374227 
L 132.860826 268.573638 
L 136.140165 244.33953 
L 139.419504 202.104829 
L 142.698843 157.811818 
L 145.978182 126.149008 
L 149.257521 104.413496 
L 152.53686 86.437171 
L 155.816198 66.657756 
L 159.095537 53.568 
L 162.374876 67.452066 
L 165.654215 96.93128 
L 168.933554 120.144158 
L 172.212893 135.101833 
L 175.492231 151.522015 
L 178.77157 182.852784 
L 182.050909 224.187746 
L 185.330248 254.413144 
L 188.609587 268.051015 
L 191.888926 275.789369 
L 195.168264 283.836981 
L 198.447603 290.540615 
L 201.726942 294.13129 
L 205.006281 295.273478 
L 208.28562 295.469969 
L 211.564959 295.487229 
L 214.844298 295.487984 
L 218.123636 295.488 
L 221.402975 295.488 
L 224.682314 295.488 
L 227.961653 295.488 
L 231.240992 295.488 
L 234.520331 295.488 
L 237.799669 295.488 
L 241.079008 295.488 
L 244.358347 295.488 
L 247.637686 295.488 
L 250.917025 295.488 
L 254.196364 295.488 
L 257.475702 295.488 
L 260.755041 295.488 
L 264.03438 295.488 
L 267.313719 295.488 
L 270.593058 295.488 
L 273.872397 295.488 
L 277.151736 295.488 
L 280.431074 295.488 
L 283.710413 295.488 
L 286.989752 295.488 
L 290.269091 295.488 
L 293.54843 295.488 
L 296.827769 295.488 
L 300.107107 295.488 
L 303.386446 295.488 
L 306.665785 295.488 
L 309.945124 295.488 
L 313.224463 295.488 
L 316.503802 295.488 
L 319.78314 295.488 
L 323.062479 295.488 
L 326.341818 295.488 
L 329.621157 295.488 
L 332.900496 295.488 
L 336.179835 295.488 
L 339.459174 295.488 
L 342.738512 295.488 
L 346.017851 295.488 
L 349.29719 295.488 
L 352.576529 295.488 
L 355.855868 295.488 
L 359.135207 295.488 
L 362.414545 295.488 
L 365.693884 295.488 
L 368.973223 295.488 
L 372.252562 295.488 
L 375.531901 295.488 
L 378.81124 295.488 
L 382.090579 295.488 
L 385.369917 295.488 
L 388.649256 295.488 
L 391.928595 295.488 
L 395.207934 295.488 
L 398.487273 295.488 
" clip-path="url(#pf5fdf1c3a4)" style="fill: none; stroke: #d62728; stroke-width: 1.5; stroke-linecap: square"/>
   </g>
   <g id="line2d_25">
    <path d="M 73.832727 295.488 
L 77.112066 295.488 
L 80.391405 295.488 
L 83.670744 295.488 
L 86.950083 295.488 
L 90.229421 295.488 
L 93.50876 295.488 
L 96.788099 295.488 
L 100.067438 295.488 
L 103.346777 295.488 
L 106.626116 295.488 
L 109.905455 295.488 
L 113.184793 295.487999 
L 116.464132 295.487997 
L 119.743471 295.487987 
L 123.02281 295.487949 
L 126.302149 295.487811 
L 129.581488 295.48736 
L 132.860826 295.486003 
L 136.140165 295.482278 
L 139.419504 295.472912 
L 142.698843 295.451343 
L 145.978182 295.405778 
L 149.257521 295.317324 
L 152.53686 295.159097 
L 155.816198 294.89726 
L 159.095537 294.494221 
L 162.374876 293.913006 
L 165.654215 293.12104 
L 168.933554 292.092473 
L 172.212893 290.810504 
L 175.492231 289.272842 
L 178.77157 287.501525 
L 182.050909 285.552577 
L 185.330248 283.515805 
L 188.609587 281.496651 
L 191.888926 279.582619 
L 195.168264 277.809841 
L 198.447603 276.149866 
L 201.726942 274.52637 
L 205.006281 272.851594 
L 208.28562 271.057509 
L 211.564959 269.099365 
L 214.844298 266.929771 
L 218.123636 264.465832 
L 221.402975 261.581842 
L 224.682314 258.146262 
L 227.961653 254.092146 
L 231.240992 249.484361 
L 234.520331 244.542476 
L 237.799669 239.598654 
L 241.079008 235.004218 
L 244.358347 231.027355 
L 247.637686 227.790023 
L 250.917025 225.268548 
L 254.196364 223.343198 
L 257.475702 221.85545 
L 260.755041 220.639241 
L 264.03438 219.527027 
L 267.313719 218.359838 
L 270.593058 217.024583 
L 273.872397 215.507904 
L 277.151736 213.928783 
L 280.431074 212.519613 
L 283.710413 211.560567 
L 286.989752 211.302641 
L 290.269091 211.9163 
L 293.54843 213.479212 
L 296.827769 215.990801 
L 300.107107 219.391724 
L 303.386446 223.574073 
L 306.665785 228.38289 
L 309.945124 233.61995 
L 313.224463 239.06116 
L 316.503802 244.490089 
L 319.78314 249.737591 
L 323.062479 254.709535 
L 326.341818 259.387268 
L 329.621157 263.798663 
L 332.900496 267.97402 
L 336.179835 271.910221 
L 339.459174 275.561837 
L 342.738512 278.861776 
L 346.017851 281.756754 
L 349.29719 284.235571 
L 352.576529 286.334675 
L 355.855868 288.120448 
L 359.135207 289.66068 
L 362.414545 291.001442 
L 365.693884 292.159679 
L 368.973223 293.131558 
L 372.252562 293.908745 
L 375.531901 294.492803 
L 378.81124 294.901446 
L 382.090579 295.16604 
L 385.369917 295.323974 
L 388.649256 295.410653 
L 391.928595 295.454316 
L 395.207934 295.474478 
L 398.487273 295.483004 
" clip-path="url(#pf5fdf1c3a4)" style="fill: none; stroke: #9467bd; stroke-width: 1.5; stroke-linecap: square"/>
   </g>
   <g id="patch_3">
    <path d="M 57.6 307.584 
L 57.6 41.472 
" style="fill: none; stroke: #000000; stroke-width: 0.8; stroke-linejoin: miter; stroke-linecap: square"/>
   </g>
   <g id="patch_4">
    <path d="M 414.72 307.584 
L 414.72 41.472 
" style="fill: none; stroke: #000000; stroke-width: 0.8; stroke-linejoin: miter; stroke-linecap: square"/>
   </g>
   <g id="patch_5">
    <path d="M 57.6 307.584 
L 414.72 307.584 
" style="fill: none; stroke: #000000; stroke-width: 0.8; stroke-linejoin: miter; stroke-linecap: square"/>
   </g>
   <g id="patch_6">
    <path d="M 57.6 41.472 
L 414.72 41.472 
" style="fill: none; stroke: #000000; stroke-width: 0.8; stroke-linejoin: miter; stroke-linecap: square"/>
   </g>
   <g id="text_13">
    <!-- Density plot of episode_10000_customer/purchases_refurbished -->
    <g transform="translate(43.544062 35.472)scale(0.12 -0.12)">
     <defs>
      <path id="DejaVuSans-44" d="M 1259 4147 
L 1259 519 
L 2022 519 
Q 2988 519 3436 956 
Q 3884 1394 3884 2338 
Q 3884 3275 3436 3711 
Q 2988 4147 2022 4147 
L 1259 4147 
z
M 628 4666 
L 1925 4666 
Q 3281 4666 3915 4102 
Q 4550 3538 4550 2338 
Q 4550 1131 3912 565 
Q 3275 0 1925 0 
L 628 0 
L 628 4666 
z
" transform="scale(0.015625)"/>
     </defs>
     <use xlink:href="#DejaVuSans-44"/>
     <use xlink:href="#DejaVuSans-65" x="77.001953"/>
     <use xlink:href="#DejaVuSans-6e" x="138.525391"/>
     <use xlink:href="#DejaVuSans-73" x="201.904297"/>
     <use xlink:href="#DejaVuSans-69" x="254.003906"/>
     <use xlink:href="#DejaVuSans-74" x="281.787109"/>
     <use xlink:href="#DejaVuSans-79" x="320.996094"/>
     <use xlink:href="#DejaVuSans-20" x="380.175781"/>
     <use xlink:href="#DejaVuSans-70" x="411.962891"/>
     <use xlink:href="#DejaVuSans-6c" x="475.439453"/>
     <use xlink:href="#DejaVuSans-6f" x="503.222656"/>
     <use xlink:href="#DejaVuSans-74" x="564.404297"/>
     <use xlink:href="#DejaVuSans-20" x="603.613281"/>
     <use xlink:href="#DejaVuSans-6f" x="635.400391"/>
     <use xlink:href="#DejaVuSans-66" x="696.582031"/>
     <use xlink:href="#DejaVuSans-20" x="731.787109"/>
     <use xlink:href="#DejaVuSans-65" x="763.574219"/>
     <use xlink:href="#DejaVuSans-70" x="825.097656"/>
     <use xlink:href="#DejaVuSans-69" x="888.574219"/>
     <use xlink:href="#DejaVuSans-73" x="916.357422"/>
     <use xlink:href="#DejaVuSans-6f" x="968.457031"/>
     <use xlink:href="#DejaVuSans-64" x="1029.638672"/>
     <use xlink:href="#DejaVuSans-65" x="1093.115234"/>
     <use xlink:href="#DejaVuSans-5f" x="1154.638672"/>
     <use xlink:href="#DejaVuSans-31" x="1204.638672"/>
     <use xlink:href="#DejaVuSans-30" x="1268.261719"/>
     <use xlink:href="#DejaVuSans-30" x="1331.884766"/>
     <use xlink:href="#DejaVuSans-30" x="1395.507812"/>
     <use xlink:href="#DejaVuSans-30" x="1459.130859"/>
     <use xlink:href="#DejaVuSans-5f" x="1522.753906"/>
     <use xlink:href="#DejaVuSans-63" x="1572.753906"/>
     <use xlink:href="#DejaVuSans-75" x="1627.734375"/>
     <use xlink:href="#DejaVuSans-73" x="1691.113281"/>
     <use xlink:href="#DejaVuSans-74" x="1743.212891"/>
     <use xlink:href="#DejaVuSans-6f" x="1782.421875"/>
     <use xlink:href="#DejaVuSans-6d" x="1843.603516"/>
     <use xlink:href="#DejaVuSans-65" x="1941.015625"/>
     <use xlink:href="#DejaVuSans-72" x="2002.539062"/>
     <use xlink:href="#DejaVuSans-2f" x="2043.652344"/>
     <use xlink:href="#DejaVuSans-70" x="2077.34375"/>
     <use xlink:href="#DejaVuSans-75" x="2140.820312"/>
     <use xlink:href="#DejaVuSans-72" x="2204.199219"/>
     <use xlink:href="#DejaVuSans-63" x="2243.0625"/>
     <use xlink:href="#DejaVuSans-68" x="2298.042969"/>
     <use xlink:href="#DejaVuSans-61" x="2361.421875"/>
     <use xlink:href="#DejaVuSans-73" x="2422.701172"/>
     <use xlink:href="#DejaVuSans-65" x="2474.800781"/>
     <use xlink:href="#DejaVuSans-73" x="2536.324219"/>
     <use xlink:href="#DejaVuSans-5f" x="2588.423828"/>
     <use xlink:href="#DejaVuSans-72" x="2638.423828"/>
     <use xlink:href="#DejaVuSans-65" x="2677.287109"/>
     <use xlink:href="#DejaVuSans-66" x="2738.810547"/>
     <use xlink:href="#DejaVuSans-75" x="2774.015625"/>
     <use xlink:href="#DejaVuSans-72" x="2837.394531"/>
     <use xlink:href="#DejaVuSans-62" x="2878.507812"/>
     <use xlink:href="#DejaVuSans-69" x="2941.984375"/>
     <use xlink:href="#DejaVuSans-73" x="2969.767578"/>
     <use xlink:href="#DejaVuSans-68" x="3021.867188"/>
     <use xlink:href="#DejaVuSans-65" x="3085.246094"/>
     <use xlink:href="#DejaVuSans-64" x="3146.769531"/>
    </g>
   </g>
   <g id="legend_1">
    <g id="patch_7">
     <path d="M 161.41375 123.14075 
L 407.72 123.14075 
Q 409.72 123.14075 409.72 121.14075 
L 409.72 48.472 
Q 409.72 46.472 407.72 46.472 
L 161.41375 46.472 
Q 159.41375 46.472 159.41375 48.472 
L 159.41375 121.14075 
Q 159.41375 123.14075 161.41375 123.14075 
z
" style="fill: #ffffff; opacity: 0.8; stroke: #cccccc; stroke-linejoin: miter"/>
    </g>
    <g id="line2d_26">
     <path d="M 163.41375 54.570437 
L 173.41375 54.570437 
L 183.41375 54.570437 
" style="fill: none; stroke: #1f77b4; stroke-width: 1.5; stroke-linecap: square"/>
    </g>
    <g id="text_14">
     <!-- StableBaselinesPPO_episode_10000 -->
     <g transform="translate(191.41375 58.070437)scale(0.1 -0.1)">
      <defs>
       <path id="DejaVuSans-53" d="M 3425 4513 
L 3425 3897 
Q 3066 4069 2747 4153 
Q 2428 4238 2131 4238 
Q 1616 4238 1336 4038 
Q 1056 3838 1056 3469 
Q 1056 3159 1242 3001 
Q 1428 2844 1947 2747 
L 2328 2669 
Q 3034 2534 3370 2195 
Q 3706 1856 3706 1288 
Q 3706 609 3251 259 
Q 2797 -91 1919 -91 
Q 1588 -91 1214 -16 
Q 841 59 441 206 
L 441 856 
Q 825 641 1194 531 
Q 1563 422 1919 422 
Q 2459 422 2753 634 
Q 3047 847 3047 1241 
Q 3047 1584 2836 1778 
Q 2625 1972 2144 2069 
L 1759 2144 
Q 1053 2284 737 2584 
Q 422 2884 422 3419 
Q 422 4038 858 4394 
Q 1294 4750 2059 4750 
Q 2388 4750 2728 4690 
Q 3069 4631 3425 4513 
z
" transform="scale(0.015625)"/>
       <path id="DejaVuSans-42" d="M 1259 2228 
L 1259 519 
L 2272 519 
Q 2781 519 3026 730 
Q 3272 941 3272 1375 
Q 3272 1813 3026 2020 
Q 2781 2228 2272 2228 
L 1259 2228 
z
M 1259 4147 
L 1259 2741 
L 2194 2741 
Q 2656 2741 2882 2914 
Q 3109 3088 3109 3444 
Q 3109 3797 2882 3972 
Q 2656 4147 2194 4147 
L 1259 4147 
z
M 628 4666 
L 2241 4666 
Q 2963 4666 3353 4366 
Q 3744 4066 3744 3513 
Q 3744 3084 3544 2831 
Q 3344 2578 2956 2516 
Q 3422 2416 3680 2098 
Q 3938 1781 3938 1306 
Q 3938 681 3513 340 
Q 3088 0 2303 0 
L 628 0 
L 628 4666 
z
" transform="scale(0.015625)"/>
       <path id="DejaVuSans-4f" d="M 2522 4238 
Q 1834 4238 1429 3725 
Q 1025 3213 1025 2328 
Q 1025 1447 1429 934 
Q 1834 422 2522 422 
Q 3209 422 3611 934 
Q 4013 1447 4013 2328 
Q 4013 3213 3611 3725 
Q 3209 4238 2522 4238 
z
M 2522 4750 
Q 3503 4750 4090 4092 
Q 4678 3434 4678 2328 
Q 4678 1225 4090 567 
Q 3503 -91 2522 -91 
Q 1538 -91 948 565 
Q 359 1222 359 2328 
Q 359 3434 948 4092 
Q 1538 4750 2522 4750 
z
" transform="scale(0.015625)"/>
      </defs>
      <use xlink:href="#DejaVuSans-53"/>
      <use xlink:href="#DejaVuSans-74" x="63.476562"/>
      <use xlink:href="#DejaVuSans-61" x="102.685547"/>
      <use xlink:href="#DejaVuSans-62" x="163.964844"/>
      <use xlink:href="#DejaVuSans-6c" x="227.441406"/>
      <use xlink:href="#DejaVuSans-65" x="255.224609"/>
      <use xlink:href="#DejaVuSans-42" x="316.748047"/>
      <use xlink:href="#DejaVuSans-61" x="385.351562"/>
      <use xlink:href="#DejaVuSans-73" x="446.630859"/>
      <use xlink:href="#DejaVuSans-65" x="498.730469"/>
      <use xlink:href="#DejaVuSans-6c" x="560.253906"/>
      <use xlink:href="#DejaVuSans-69" x="588.037109"/>
      <use xlink:href="#DejaVuSans-6e" x="615.820312"/>
      <use xlink:href="#DejaVuSans-65" x="679.199219"/>
      <use xlink:href="#DejaVuSans-73" x="740.722656"/>
      <use xlink:href="#DejaVuSans-50" x="792.822266"/>
      <use xlink:href="#DejaVuSans-50" x="853.125"/>
      <use xlink:href="#DejaVuSans-4f" x="913.427734"/>
      <use xlink:href="#DejaVuSans-5f" x="992.138672"/>
      <use xlink:href="#DejaVuSans-65" x="1042.138672"/>
      <use xlink:href="#DejaVuSans-70" x="1103.662109"/>
      <use xlink:href="#DejaVuSans-69" x="1167.138672"/>
      <use xlink:href="#DejaVuSans-73" x="1194.921875"/>
      <use xlink:href="#DejaVuSans-6f" x="1247.021484"/>
      <use xlink:href="#DejaVuSans-64" x="1308.203125"/>
      <use xlink:href="#DejaVuSans-65" x="1371.679688"/>
      <use xlink:href="#DejaVuSans-5f" x="1433.203125"/>
      <use xlink:href="#DejaVuSans-31" x="1483.203125"/>
      <use xlink:href="#DejaVuSans-30" x="1546.826172"/>
      <use xlink:href="#DejaVuSans-30" x="1610.449219"/>
      <use xlink:href="#DejaVuSans-30" x="1674.072266"/>
      <use xlink:href="#DejaVuSans-30" x="1737.695312"/>
     </g>
    </g>
    <g id="line2d_27">
     <path d="M 163.41375 69.526687 
L 173.41375 69.526687 
L 183.41375 69.526687 
" style="fill: none; stroke: #ff7f0e; stroke-width: 1.5; stroke-linecap: square"/>
    </g>
    <g id="text_15">
     <!-- RuleBasedCERebuyAgentCompetitive -->
     <g transform="translate(191.41375 73.026687)scale(0.1 -0.1)">
      <defs>
       <path id="DejaVuSans-52" d="M 2841 2188 
Q 3044 2119 3236 1894 
Q 3428 1669 3622 1275 
L 4263 0 
L 3584 0 
L 2988 1197 
Q 2756 1666 2539 1819 
Q 2322 1972 1947 1972 
L 1259 1972 
L 1259 0 
L 628 0 
L 628 4666 
L 2053 4666 
Q 2853 4666 3247 4331 
Q 3641 3997 3641 3322 
Q 3641 2881 3436 2590 
Q 3231 2300 2841 2188 
z
M 1259 4147 
L 1259 2491 
L 2053 2491 
Q 2509 2491 2742 2702 
Q 2975 2913 2975 3322 
Q 2975 3731 2742 3939 
Q 2509 4147 2053 4147 
L 1259 4147 
z
" transform="scale(0.015625)"/>
       <path id="DejaVuSans-43" d="M 4122 4306 
L 4122 3641 
Q 3803 3938 3442 4084 
Q 3081 4231 2675 4231 
Q 1875 4231 1450 3742 
Q 1025 3253 1025 2328 
Q 1025 1406 1450 917 
Q 1875 428 2675 428 
Q 3081 428 3442 575 
Q 3803 722 4122 1019 
L 4122 359 
Q 3791 134 3420 21 
Q 3050 -91 2638 -91 
Q 1578 -91 968 557 
Q 359 1206 359 2328 
Q 359 3453 968 4101 
Q 1578 4750 2638 4750 
Q 3056 4750 3426 4639 
Q 3797 4528 4122 4306 
z
" transform="scale(0.015625)"/>
       <path id="DejaVuSans-45" d="M 628 4666 
L 3578 4666 
L 3578 4134 
L 1259 4134 
L 1259 2753 
L 3481 2753 
L 3481 2222 
L 1259 2222 
L 1259 531 
L 3634 531 
L 3634 0 
L 628 0 
L 628 4666 
z
" transform="scale(0.015625)"/>
       <path id="DejaVuSans-41" d="M 2188 4044 
L 1331 1722 
L 3047 1722 
L 2188 4044 
z
M 1831 4666 
L 2547 4666 
L 4325 0 
L 3669 0 
L 3244 1197 
L 1141 1197 
L 716 0 
L 50 0 
L 1831 4666 
z
" transform="scale(0.015625)"/>
       <path id="DejaVuSans-67" d="M 2906 1791 
Q 2906 2416 2648 2759 
Q 2391 3103 1925 3103 
Q 1463 3103 1205 2759 
Q 947 2416 947 1791 
Q 947 1169 1205 825 
Q 1463 481 1925 481 
Q 2391 481 2648 825 
Q 2906 1169 2906 1791 
z
M 3481 434 
Q 3481 -459 3084 -895 
Q 2688 -1331 1869 -1331 
Q 1566 -1331 1297 -1286 
Q 1028 -1241 775 -1147 
L 775 -588 
Q 1028 -725 1275 -790 
Q 1522 -856 1778 -856 
Q 2344 -856 2625 -561 
Q 2906 -266 2906 331 
L 2906 616 
Q 2728 306 2450 153 
Q 2172 0 1784 0 
Q 1141 0 747 490 
Q 353 981 353 1791 
Q 353 2603 747 3093 
Q 1141 3584 1784 3584 
Q 2172 3584 2450 3431 
Q 2728 3278 2906 2969 
L 2906 3500 
L 3481 3500 
L 3481 434 
z
" transform="scale(0.015625)"/>
       <path id="DejaVuSans-76" d="M 191 3500 
L 800 3500 
L 1894 563 
L 2988 3500 
L 3597 3500 
L 2284 0 
L 1503 0 
L 191 3500 
z
" transform="scale(0.015625)"/>
      </defs>
      <use xlink:href="#DejaVuSans-52"/>
      <use xlink:href="#DejaVuSans-75" x="64.982422"/>
      <use xlink:href="#DejaVuSans-6c" x="128.361328"/>
      <use xlink:href="#DejaVuSans-65" x="156.144531"/>
      <use xlink:href="#DejaVuSans-42" x="217.667969"/>
      <use xlink:href="#DejaVuSans-61" x="286.271484"/>
      <use xlink:href="#DejaVuSans-73" x="347.550781"/>
      <use xlink:href="#DejaVuSans-65" x="399.650391"/>
      <use xlink:href="#DejaVuSans-64" x="461.173828"/>
      <use xlink:href="#DejaVuSans-43" x="524.650391"/>
      <use xlink:href="#DejaVuSans-45" x="594.474609"/>
      <use xlink:href="#DejaVuSans-52" x="657.658203"/>
      <use xlink:href="#DejaVuSans-65" x="722.640625"/>
      <use xlink:href="#DejaVuSans-62" x="784.164062"/>
      <use xlink:href="#DejaVuSans-75" x="847.640625"/>
      <use xlink:href="#DejaVuSans-79" x="911.019531"/>
      <use xlink:href="#DejaVuSans-41" x="970.199219"/>
      <use xlink:href="#DejaVuSans-67" x="1038.607422"/>
      <use xlink:href="#DejaVuSans-65" x="1102.083984"/>
      <use xlink:href="#DejaVuSans-6e" x="1163.607422"/>
      <use xlink:href="#DejaVuSans-74" x="1226.986328"/>
      <use xlink:href="#DejaVuSans-43" x="1266.195312"/>
      <use xlink:href="#DejaVuSans-6f" x="1336.019531"/>
      <use xlink:href="#DejaVuSans-6d" x="1397.201172"/>
      <use xlink:href="#DejaVuSans-70" x="1494.613281"/>
      <use xlink:href="#DejaVuSans-65" x="1558.089844"/>
      <use xlink:href="#DejaVuSans-74" x="1619.613281"/>
      <use xlink:href="#DejaVuSans-69" x="1658.822266"/>
      <use xlink:href="#DejaVuSans-74" x="1686.605469"/>
      <use xlink:href="#DejaVuSans-69" x="1725.814453"/>
      <use xlink:href="#DejaVuSans-76" x="1753.597656"/>
      <use xlink:href="#DejaVuSans-65" x="1812.777344"/>
     </g>
    </g>
    <g id="line2d_28">
     <path d="M 163.41375 84.204812 
L 173.41375 84.204812 
L 183.41375 84.204812 
" style="fill: none; stroke: #2ca02c; stroke-width: 1.5; stroke-linecap: square"/>
    </g>
    <g id="text_16">
     <!-- RuleBasedCERebuyAgent -->
     <g transform="translate(191.41375 87.704812)scale(0.1 -0.1)">
      <use xlink:href="#DejaVuSans-52"/>
      <use xlink:href="#DejaVuSans-75" x="64.982422"/>
      <use xlink:href="#DejaVuSans-6c" x="128.361328"/>
      <use xlink:href="#DejaVuSans-65" x="156.144531"/>
      <use xlink:href="#DejaVuSans-42" x="217.667969"/>
      <use xlink:href="#DejaVuSans-61" x="286.271484"/>
      <use xlink:href="#DejaVuSans-73" x="347.550781"/>
      <use xlink:href="#DejaVuSans-65" x="399.650391"/>
      <use xlink:href="#DejaVuSans-64" x="461.173828"/>
      <use xlink:href="#DejaVuSans-43" x="524.650391"/>
      <use xlink:href="#DejaVuSans-45" x="594.474609"/>
      <use xlink:href="#DejaVuSans-52" x="657.658203"/>
      <use xlink:href="#DejaVuSans-65" x="722.640625"/>
      <use xlink:href="#DejaVuSans-62" x="784.164062"/>
      <use xlink:href="#DejaVuSans-75" x="847.640625"/>
      <use xlink:href="#DejaVuSans-79" x="911.019531"/>
      <use xlink:href="#DejaVuSans-41" x="970.199219"/>
      <use xlink:href="#DejaVuSans-67" x="1038.607422"/>
      <use xlink:href="#DejaVuSans-65" x="1102.083984"/>
      <use xlink:href="#DejaVuSans-6e" x="1163.607422"/>
      <use xlink:href="#DejaVuSans-74" x="1226.986328"/>
     </g>
    </g>
    <g id="line2d_29">
     <path d="M 163.41375 98.882937 
L 173.41375 98.882937 
L 183.41375 98.882937 
" style="fill: none; stroke: #d62728; stroke-width: 1.5; stroke-linecap: square"/>
    </g>
    <g id="text_17">
     <!-- FixedPriceCERebuyAgent -->
     <g transform="translate(191.41375 102.382937)scale(0.1 -0.1)">
      <defs>
       <path id="DejaVuSans-46" d="M 628 4666 
L 3309 4666 
L 3309 4134 
L 1259 4134 
L 1259 2759 
L 3109 2759 
L 3109 2228 
L 1259 2228 
L 1259 0 
L 628 0 
L 628 4666 
z
" transform="scale(0.015625)"/>
       <path id="DejaVuSans-78" d="M 3513 3500 
L 2247 1797 
L 3578 0 
L 2900 0 
L 1881 1375 
L 863 0 
L 184 0 
L 1544 1831 
L 300 3500 
L 978 3500 
L 1906 2253 
L 2834 3500 
L 3513 3500 
z
" transform="scale(0.015625)"/>
      </defs>
      <use xlink:href="#DejaVuSans-46"/>
      <use xlink:href="#DejaVuSans-69" x="50.269531"/>
      <use xlink:href="#DejaVuSans-78" x="78.052734"/>
      <use xlink:href="#DejaVuSans-65" x="134.107422"/>
      <use xlink:href="#DejaVuSans-64" x="195.630859"/>
      <use xlink:href="#DejaVuSans-50" x="259.107422"/>
      <use xlink:href="#DejaVuSans-72" x="317.660156"/>
      <use xlink:href="#DejaVuSans-69" x="358.773438"/>
      <use xlink:href="#DejaVuSans-63" x="386.556641"/>
      <use xlink:href="#DejaVuSans-65" x="441.537109"/>
      <use xlink:href="#DejaVuSans-43" x="503.060547"/>
      <use xlink:href="#DejaVuSans-45" x="572.884766"/>
      <use xlink:href="#DejaVuSans-52" x="636.068359"/>
      <use xlink:href="#DejaVuSans-65" x="701.050781"/>
      <use xlink:href="#DejaVuSans-62" x="762.574219"/>
      <use xlink:href="#DejaVuSans-75" x="826.050781"/>
      <use xlink:href="#DejaVuSans-79" x="889.429688"/>
      <use xlink:href="#DejaVuSans-41" x="948.609375"/>
      <use xlink:href="#DejaVuSans-67" x="1017.017578"/>
      <use xlink:href="#DejaVuSans-65" x="1080.494141"/>
      <use xlink:href="#DejaVuSans-6e" x="1142.017578"/>
      <use xlink:href="#DejaVuSans-74" x="1205.396484"/>
     </g>
    </g>
    <g id="line2d_30">
     <path d="M 163.41375 113.561062 
L 173.41375 113.561062 
L 183.41375 113.561062 
" style="fill: none; stroke: #9467bd; stroke-width: 1.5; stroke-linecap: square"/>
    </g>
    <g id="text_18">
     <!-- RuleBasedCERebuyAgentStorageMinimizer -->
     <g transform="translate(191.41375 117.061062)scale(0.1 -0.1)">
      <defs>
       <path id="DejaVuSans-4d" d="M 628 4666 
L 1569 4666 
L 2759 1491 
L 3956 4666 
L 4897 4666 
L 4897 0 
L 4281 0 
L 4281 4097 
L 3078 897 
L 2444 897 
L 1241 4097 
L 1241 0 
L 628 0 
L 628 4666 
z
" transform="scale(0.015625)"/>
       <path id="DejaVuSans-7a" d="M 353 3500 
L 3084 3500 
L 3084 2975 
L 922 459 
L 3084 459 
L 3084 0 
L 275 0 
L 275 525 
L 2438 3041 
L 353 3041 
L 353 3500 
z
" transform="scale(0.015625)"/>
      </defs>
      <use xlink:href="#DejaVuSans-52"/>
      <use xlink:href="#DejaVuSans-75" x="64.982422"/>
      <use xlink:href="#DejaVuSans-6c" x="128.361328"/>
      <use xlink:href="#DejaVuSans-65" x="156.144531"/>
      <use xlink:href="#DejaVuSans-42" x="217.667969"/>
      <use xlink:href="#DejaVuSans-61" x="286.271484"/>
      <use xlink:href="#DejaVuSans-73" x="347.550781"/>
      <use xlink:href="#DejaVuSans-65" x="399.650391"/>
      <use xlink:href="#DejaVuSans-64" x="461.173828"/>
      <use xlink:href="#DejaVuSans-43" x="524.650391"/>
      <use xlink:href="#DejaVuSans-45" x="594.474609"/>
      <use xlink:href="#DejaVuSans-52" x="657.658203"/>
      <use xlink:href="#DejaVuSans-65" x="722.640625"/>
      <use xlink:href="#DejaVuSans-62" x="784.164062"/>
      <use xlink:href="#DejaVuSans-75" x="847.640625"/>
      <use xlink:href="#DejaVuSans-79" x="911.019531"/>
      <use xlink:href="#DejaVuSans-41" x="970.199219"/>
      <use xlink:href="#DejaVuSans-67" x="1038.607422"/>
      <use xlink:href="#DejaVuSans-65" x="1102.083984"/>
      <use xlink:href="#DejaVuSans-6e" x="1163.607422"/>
      <use xlink:href="#DejaVuSans-74" x="1226.986328"/>
      <use xlink:href="#DejaVuSans-53" x="1266.195312"/>
      <use xlink:href="#DejaVuSans-74" x="1329.671875"/>
      <use xlink:href="#DejaVuSans-6f" x="1368.880859"/>
      <use xlink:href="#DejaVuSans-72" x="1430.0625"/>
      <use xlink:href="#DejaVuSans-61" x="1471.175781"/>
      <use xlink:href="#DejaVuSans-67" x="1532.455078"/>
      <use xlink:href="#DejaVuSans-65" x="1595.931641"/>
      <use xlink:href="#DejaVuSans-4d" x="1657.455078"/>
      <use xlink:href="#DejaVuSans-69" x="1743.734375"/>
      <use xlink:href="#DejaVuSans-6e" x="1771.517578"/>
      <use xlink:href="#DejaVuSans-69" x="1834.896484"/>
      <use xlink:href="#DejaVuSans-6d" x="1862.679688"/>
      <use xlink:href="#DejaVuSans-69" x="1960.091797"/>
      <use xlink:href="#DejaVuSans-7a" x="1987.875"/>
      <use xlink:href="#DejaVuSans-65" x="2040.365234"/>
      <use xlink:href="#DejaVuSans-72" x="2101.888672"/>
     </g>
    </g>
   </g>
  </g>
 </g>
 <defs>
  <clipPath id="pf5fdf1c3a4">
   <rect x="57.6" y="41.472" width="357.12" height="266.112"/>
  </clipPath>
 </defs>
</svg>
