<?xml version="1.0" encoding="utf-8" standalone="no"?>
<!DOCTYPE svg PUBLIC "-//W3C//DTD SVG 1.1//EN"
  "http://www.w3.org/Graphics/SVG/1.1/DTD/svg11.dtd">
<svg xmlns:xlink="http://www.w3.org/1999/xlink" width="460.8pt" height="345.6pt" viewBox="0 0 460.8 345.6" xmlns="http://www.w3.org/2000/svg" version="1.1">
 <metadata>
  <rdf:RDF xmlns:dc="http://purl.org/dc/elements/1.1/" xmlns:cc="http://creativecommons.org/ns#" xmlns:rdf="http://www.w3.org/1999/02/22-rdf-syntax-ns#">
   <cc:Work>
    <dc:type rdf:resource="http://purl.org/dc/dcmitype/StillImage"/>
    <dc:date>2022-06-21T20:55:01.408556</dc:date>
    <dc:format>image/svg+xml</dc:format>
    <dc:creator>
     <cc:Agent>
      <dc:title>Matplotlib v3.5.2, https://matplotlib.org/</dc:title>
     </cc:Agent>
    </dc:creator>
   </cc:Work>
  </rdf:RDF>
 </metadata>
 <defs>
  <style type="text/css">*{stroke-linejoin: round; stroke-linecap: butt}</style>
 </defs>
 <g id="figure_1">
  <g id="patch_1">
   <path d="M 0 345.6 
L 460.8 345.6 
L 460.8 0 
L 0 0 
L 0 345.6 
z
" style="fill: none"/>
  </g>
  <g id="axes_1">
   <g id="patch_2">
    <path d="M 57.6 307.584 
L 414.72 307.584 
L 414.72 41.472 
L 57.6 41.472 
L 57.6 307.584 
z
" style="fill: none"/>
   </g>
   <g id="matplotlib.axis_1">
    <g id="xtick_1">
     <g id="line2d_1">
      <path d="M 66.726745 307.584 
L 66.726745 41.472 
" clip-path="url(#p0b8404305d)" style="fill: none; stroke-dasharray: 2.96,1.28; stroke-dashoffset: 0; stroke: #b0b0b0; stroke-width: 0.8"/>
     </g>
     <g id="line2d_2">
      <defs>
       <path id="m6f81c6c215" d="M 0 0 
L 0 3.5 
" style="stroke: #000000; stroke-width: 0.8"/>
      </defs>
      <g>
       <use xlink:href="#m6f81c6c215" x="66.726745" y="307.584" style="stroke: #000000; stroke-width: 0.8"/>
      </g>
     </g>
     <g id="text_1">
      <!-- 1 -->
      <g transform="translate(63.545495 322.182437)scale(0.1 -0.1)">
       <defs>
        <path id="DejaVuSans-31" d="M 794 531 
L 1825 531 
L 1825 4091 
L 703 3866 
L 703 4441 
L 1819 4666 
L 2450 4666 
L 2450 531 
L 3481 531 
L 3481 0 
L 794 0 
L 794 531 
z
" transform="scale(0.015625)"/>
       </defs>
       <use xlink:href="#DejaVuSans-31"/>
      </g>
     </g>
    </g>
    <g id="xtick_2">
     <g id="line2d_3">
      <path d="M 135.81268 307.584 
L 135.81268 41.472 
" clip-path="url(#p0b8404305d)" style="fill: none; stroke-dasharray: 2.96,1.28; stroke-dashoffset: 0; stroke: #b0b0b0; stroke-width: 0.8"/>
     </g>
     <g id="line2d_4">
      <g>
       <use xlink:href="#m6f81c6c215" x="135.81268" y="307.584" style="stroke: #000000; stroke-width: 0.8"/>
      </g>
     </g>
     <g id="text_2">
      <!-- 2 -->
      <g transform="translate(132.63143 322.182437)scale(0.1 -0.1)">
       <defs>
        <path id="DejaVuSans-32" d="M 1228 531 
L 3431 531 
L 3431 0 
L 469 0 
L 469 531 
Q 828 903 1448 1529 
Q 2069 2156 2228 2338 
Q 2531 2678 2651 2914 
Q 2772 3150 2772 3378 
Q 2772 3750 2511 3984 
Q 2250 4219 1831 4219 
Q 1534 4219 1204 4116 
Q 875 4013 500 3803 
L 500 4441 
Q 881 4594 1212 4672 
Q 1544 4750 1819 4750 
Q 2544 4750 2975 4387 
Q 3406 4025 3406 3419 
Q 3406 3131 3298 2873 
Q 3191 2616 2906 2266 
Q 2828 2175 2409 1742 
Q 1991 1309 1228 531 
z
" transform="scale(0.015625)"/>
       </defs>
       <use xlink:href="#DejaVuSans-32"/>
      </g>
     </g>
    </g>
    <g id="xtick_3">
     <g id="line2d_5">
      <path d="M 204.898615 307.584 
L 204.898615 41.472 
" clip-path="url(#p0b8404305d)" style="fill: none; stroke-dasharray: 2.96,1.28; stroke-dashoffset: 0; stroke: #b0b0b0; stroke-width: 0.8"/>
     </g>
     <g id="line2d_6">
      <g>
       <use xlink:href="#m6f81c6c215" x="204.898615" y="307.584" style="stroke: #000000; stroke-width: 0.8"/>
      </g>
     </g>
     <g id="text_3">
      <!-- 3 -->
      <g transform="translate(201.717365 322.182437)scale(0.1 -0.1)">
       <defs>
        <path id="DejaVuSans-33" d="M 2597 2516 
Q 3050 2419 3304 2112 
Q 3559 1806 3559 1356 
Q 3559 666 3084 287 
Q 2609 -91 1734 -91 
Q 1441 -91 1130 -33 
Q 819 25 488 141 
L 488 750 
Q 750 597 1062 519 
Q 1375 441 1716 441 
Q 2309 441 2620 675 
Q 2931 909 2931 1356 
Q 2931 1769 2642 2001 
Q 2353 2234 1838 2234 
L 1294 2234 
L 1294 2753 
L 1863 2753 
Q 2328 2753 2575 2939 
Q 2822 3125 2822 3475 
Q 2822 3834 2567 4026 
Q 2313 4219 1838 4219 
Q 1578 4219 1281 4162 
Q 984 4106 628 3988 
L 628 4550 
Q 988 4650 1302 4700 
Q 1616 4750 1894 4750 
Q 2613 4750 3031 4423 
Q 3450 4097 3450 3541 
Q 3450 3153 3228 2886 
Q 3006 2619 2597 2516 
z
" transform="scale(0.015625)"/>
       </defs>
       <use xlink:href="#DejaVuSans-33"/>
      </g>
     </g>
    </g>
    <g id="xtick_4">
     <g id="line2d_7">
      <path d="M 273.984549 307.584 
L 273.984549 41.472 
" clip-path="url(#p0b8404305d)" style="fill: none; stroke-dasharray: 2.96,1.28; stroke-dashoffset: 0; stroke: #b0b0b0; stroke-width: 0.8"/>
     </g>
     <g id="line2d_8">
      <g>
       <use xlink:href="#m6f81c6c215" x="273.984549" y="307.584" style="stroke: #000000; stroke-width: 0.8"/>
      </g>
     </g>
     <g id="text_4">
      <!-- 4 -->
      <g transform="translate(270.803299 322.182437)scale(0.1 -0.1)">
       <defs>
        <path id="DejaVuSans-34" d="M 2419 4116 
L 825 1625 
L 2419 1625 
L 2419 4116 
z
M 2253 4666 
L 3047 4666 
L 3047 1625 
L 3713 1625 
L 3713 1100 
L 3047 1100 
L 3047 0 
L 2419 0 
L 2419 1100 
L 313 1100 
L 313 1709 
L 2253 4666 
z
" transform="scale(0.015625)"/>
       </defs>
       <use xlink:href="#DejaVuSans-34"/>
      </g>
     </g>
    </g>
    <g id="xtick_5">
     <g id="line2d_9">
      <path d="M 343.070484 307.584 
L 343.070484 41.472 
" clip-path="url(#p0b8404305d)" style="fill: none; stroke-dasharray: 2.96,1.28; stroke-dashoffset: 0; stroke: #b0b0b0; stroke-width: 0.8"/>
     </g>
     <g id="line2d_10">
      <g>
       <use xlink:href="#m6f81c6c215" x="343.070484" y="307.584" style="stroke: #000000; stroke-width: 0.8"/>
      </g>
     </g>
     <g id="text_5">
      <!-- 5 -->
      <g transform="translate(339.889234 322.182437)scale(0.1 -0.1)">
       <defs>
        <path id="DejaVuSans-35" d="M 691 4666 
L 3169 4666 
L 3169 4134 
L 1269 4134 
L 1269 2991 
Q 1406 3038 1543 3061 
Q 1681 3084 1819 3084 
Q 2600 3084 3056 2656 
Q 3513 2228 3513 1497 
Q 3513 744 3044 326 
Q 2575 -91 1722 -91 
Q 1428 -91 1123 -41 
Q 819 9 494 109 
L 494 744 
Q 775 591 1075 516 
Q 1375 441 1709 441 
Q 2250 441 2565 725 
Q 2881 1009 2881 1497 
Q 2881 1984 2565 2268 
Q 2250 2553 1709 2553 
Q 1456 2553 1204 2497 
Q 953 2441 691 2322 
L 691 4666 
z
" transform="scale(0.015625)"/>
       </defs>
       <use xlink:href="#DejaVuSans-35"/>
      </g>
     </g>
    </g>
    <g id="xtick_6">
     <g id="line2d_11">
      <path d="M 412.156418 307.584 
L 412.156418 41.472 
" clip-path="url(#p0b8404305d)" style="fill: none; stroke-dasharray: 2.96,1.28; stroke-dashoffset: 0; stroke: #b0b0b0; stroke-width: 0.8"/>
     </g>
     <g id="line2d_12">
      <g>
       <use xlink:href="#m6f81c6c215" x="412.156418" y="307.584" style="stroke: #000000; stroke-width: 0.8"/>
      </g>
     </g>
     <g id="text_6">
      <!-- 6 -->
      <g transform="translate(408.975168 322.182437)scale(0.1 -0.1)">
       <defs>
        <path id="DejaVuSans-36" d="M 2113 2584 
Q 1688 2584 1439 2293 
Q 1191 2003 1191 1497 
Q 1191 994 1439 701 
Q 1688 409 2113 409 
Q 2538 409 2786 701 
Q 3034 994 3034 1497 
Q 3034 2003 2786 2293 
Q 2538 2584 2113 2584 
z
M 3366 4563 
L 3366 3988 
Q 3128 4100 2886 4159 
Q 2644 4219 2406 4219 
Q 1781 4219 1451 3797 
Q 1122 3375 1075 2522 
Q 1259 2794 1537 2939 
Q 1816 3084 2150 3084 
Q 2853 3084 3261 2657 
Q 3669 2231 3669 1497 
Q 3669 778 3244 343 
Q 2819 -91 2113 -91 
Q 1303 -91 875 529 
Q 447 1150 447 2328 
Q 447 3434 972 4092 
Q 1497 4750 2381 4750 
Q 2619 4750 2861 4703 
Q 3103 4656 3366 4563 
z
" transform="scale(0.015625)"/>
       </defs>
       <use xlink:href="#DejaVuSans-36"/>
      </g>
     </g>
    </g>
    <g id="text_7">
     <!-- episode_20029_actions/price_refurbished -->
     <g transform="translate(132.483437 335.860562)scale(0.1 -0.1)">
      <defs>
       <path id="DejaVuSans-65" d="M 3597 1894 
L 3597 1613 
L 953 1613 
Q 991 1019 1311 708 
Q 1631 397 2203 397 
Q 2534 397 2845 478 
Q 3156 559 3463 722 
L 3463 178 
Q 3153 47 2828 -22 
Q 2503 -91 2169 -91 
Q 1331 -91 842 396 
Q 353 884 353 1716 
Q 353 2575 817 3079 
Q 1281 3584 2069 3584 
Q 2775 3584 3186 3129 
Q 3597 2675 3597 1894 
z
M 3022 2063 
Q 3016 2534 2758 2815 
Q 2500 3097 2075 3097 
Q 1594 3097 1305 2825 
Q 1016 2553 972 2059 
L 3022 2063 
z
" transform="scale(0.015625)"/>
       <path id="DejaVuSans-70" d="M 1159 525 
L 1159 -1331 
L 581 -1331 
L 581 3500 
L 1159 3500 
L 1159 2969 
Q 1341 3281 1617 3432 
Q 1894 3584 2278 3584 
Q 2916 3584 3314 3078 
Q 3713 2572 3713 1747 
Q 3713 922 3314 415 
Q 2916 -91 2278 -91 
Q 1894 -91 1617 61 
Q 1341 213 1159 525 
z
M 3116 1747 
Q 3116 2381 2855 2742 
Q 2594 3103 2138 3103 
Q 1681 3103 1420 2742 
Q 1159 2381 1159 1747 
Q 1159 1113 1420 752 
Q 1681 391 2138 391 
Q 2594 391 2855 752 
Q 3116 1113 3116 1747 
z
" transform="scale(0.015625)"/>
       <path id="DejaVuSans-69" d="M 603 3500 
L 1178 3500 
L 1178 0 
L 603 0 
L 603 3500 
z
M 603 4863 
L 1178 4863 
L 1178 4134 
L 603 4134 
L 603 4863 
z
" transform="scale(0.015625)"/>
       <path id="DejaVuSans-73" d="M 2834 3397 
L 2834 2853 
Q 2591 2978 2328 3040 
Q 2066 3103 1784 3103 
Q 1356 3103 1142 2972 
Q 928 2841 928 2578 
Q 928 2378 1081 2264 
Q 1234 2150 1697 2047 
L 1894 2003 
Q 2506 1872 2764 1633 
Q 3022 1394 3022 966 
Q 3022 478 2636 193 
Q 2250 -91 1575 -91 
Q 1294 -91 989 -36 
Q 684 19 347 128 
L 347 722 
Q 666 556 975 473 
Q 1284 391 1588 391 
Q 1994 391 2212 530 
Q 2431 669 2431 922 
Q 2431 1156 2273 1281 
Q 2116 1406 1581 1522 
L 1381 1569 
Q 847 1681 609 1914 
Q 372 2147 372 2553 
Q 372 3047 722 3315 
Q 1072 3584 1716 3584 
Q 2034 3584 2315 3537 
Q 2597 3491 2834 3397 
z
" transform="scale(0.015625)"/>
       <path id="DejaVuSans-6f" d="M 1959 3097 
Q 1497 3097 1228 2736 
Q 959 2375 959 1747 
Q 959 1119 1226 758 
Q 1494 397 1959 397 
Q 2419 397 2687 759 
Q 2956 1122 2956 1747 
Q 2956 2369 2687 2733 
Q 2419 3097 1959 3097 
z
M 1959 3584 
Q 2709 3584 3137 3096 
Q 3566 2609 3566 1747 
Q 3566 888 3137 398 
Q 2709 -91 1959 -91 
Q 1206 -91 779 398 
Q 353 888 353 1747 
Q 353 2609 779 3096 
Q 1206 3584 1959 3584 
z
" transform="scale(0.015625)"/>
       <path id="DejaVuSans-64" d="M 2906 2969 
L 2906 4863 
L 3481 4863 
L 3481 0 
L 2906 0 
L 2906 525 
Q 2725 213 2448 61 
Q 2172 -91 1784 -91 
Q 1150 -91 751 415 
Q 353 922 353 1747 
Q 353 2572 751 3078 
Q 1150 3584 1784 3584 
Q 2172 3584 2448 3432 
Q 2725 3281 2906 2969 
z
M 947 1747 
Q 947 1113 1208 752 
Q 1469 391 1925 391 
Q 2381 391 2643 752 
Q 2906 1113 2906 1747 
Q 2906 2381 2643 2742 
Q 2381 3103 1925 3103 
Q 1469 3103 1208 2742 
Q 947 2381 947 1747 
z
" transform="scale(0.015625)"/>
       <path id="DejaVuSans-5f" d="M 3263 -1063 
L 3263 -1509 
L -63 -1509 
L -63 -1063 
L 3263 -1063 
z
" transform="scale(0.015625)"/>
       <path id="DejaVuSans-30" d="M 2034 4250 
Q 1547 4250 1301 3770 
Q 1056 3291 1056 2328 
Q 1056 1369 1301 889 
Q 1547 409 2034 409 
Q 2525 409 2770 889 
Q 3016 1369 3016 2328 
Q 3016 3291 2770 3770 
Q 2525 4250 2034 4250 
z
M 2034 4750 
Q 2819 4750 3233 4129 
Q 3647 3509 3647 2328 
Q 3647 1150 3233 529 
Q 2819 -91 2034 -91 
Q 1250 -91 836 529 
Q 422 1150 422 2328 
Q 422 3509 836 4129 
Q 1250 4750 2034 4750 
z
" transform="scale(0.015625)"/>
       <path id="DejaVuSans-39" d="M 703 97 
L 703 672 
Q 941 559 1184 500 
Q 1428 441 1663 441 
Q 2288 441 2617 861 
Q 2947 1281 2994 2138 
Q 2813 1869 2534 1725 
Q 2256 1581 1919 1581 
Q 1219 1581 811 2004 
Q 403 2428 403 3163 
Q 403 3881 828 4315 
Q 1253 4750 1959 4750 
Q 2769 4750 3195 4129 
Q 3622 3509 3622 2328 
Q 3622 1225 3098 567 
Q 2575 -91 1691 -91 
Q 1453 -91 1209 -44 
Q 966 3 703 97 
z
M 1959 2075 
Q 2384 2075 2632 2365 
Q 2881 2656 2881 3163 
Q 2881 3666 2632 3958 
Q 2384 4250 1959 4250 
Q 1534 4250 1286 3958 
Q 1038 3666 1038 3163 
Q 1038 2656 1286 2365 
Q 1534 2075 1959 2075 
z
" transform="scale(0.015625)"/>
       <path id="DejaVuSans-61" d="M 2194 1759 
Q 1497 1759 1228 1600 
Q 959 1441 959 1056 
Q 959 750 1161 570 
Q 1363 391 1709 391 
Q 2188 391 2477 730 
Q 2766 1069 2766 1631 
L 2766 1759 
L 2194 1759 
z
M 3341 1997 
L 3341 0 
L 2766 0 
L 2766 531 
Q 2569 213 2275 61 
Q 1981 -91 1556 -91 
Q 1019 -91 701 211 
Q 384 513 384 1019 
Q 384 1609 779 1909 
Q 1175 2209 1959 2209 
L 2766 2209 
L 2766 2266 
Q 2766 2663 2505 2880 
Q 2244 3097 1772 3097 
Q 1472 3097 1187 3025 
Q 903 2953 641 2809 
L 641 3341 
Q 956 3463 1253 3523 
Q 1550 3584 1831 3584 
Q 2591 3584 2966 3190 
Q 3341 2797 3341 1997 
z
" transform="scale(0.015625)"/>
       <path id="DejaVuSans-63" d="M 3122 3366 
L 3122 2828 
Q 2878 2963 2633 3030 
Q 2388 3097 2138 3097 
Q 1578 3097 1268 2742 
Q 959 2388 959 1747 
Q 959 1106 1268 751 
Q 1578 397 2138 397 
Q 2388 397 2633 464 
Q 2878 531 3122 666 
L 3122 134 
Q 2881 22 2623 -34 
Q 2366 -91 2075 -91 
Q 1284 -91 818 406 
Q 353 903 353 1747 
Q 353 2603 823 3093 
Q 1294 3584 2113 3584 
Q 2378 3584 2631 3529 
Q 2884 3475 3122 3366 
z
" transform="scale(0.015625)"/>
       <path id="DejaVuSans-74" d="M 1172 4494 
L 1172 3500 
L 2356 3500 
L 2356 3053 
L 1172 3053 
L 1172 1153 
Q 1172 725 1289 603 
Q 1406 481 1766 481 
L 2356 481 
L 2356 0 
L 1766 0 
Q 1100 0 847 248 
Q 594 497 594 1153 
L 594 3053 
L 172 3053 
L 172 3500 
L 594 3500 
L 594 4494 
L 1172 4494 
z
" transform="scale(0.015625)"/>
       <path id="DejaVuSans-6e" d="M 3513 2113 
L 3513 0 
L 2938 0 
L 2938 2094 
Q 2938 2591 2744 2837 
Q 2550 3084 2163 3084 
Q 1697 3084 1428 2787 
Q 1159 2491 1159 1978 
L 1159 0 
L 581 0 
L 581 3500 
L 1159 3500 
L 1159 2956 
Q 1366 3272 1645 3428 
Q 1925 3584 2291 3584 
Q 2894 3584 3203 3211 
Q 3513 2838 3513 2113 
z
" transform="scale(0.015625)"/>
       <path id="DejaVuSans-2f" d="M 1625 4666 
L 2156 4666 
L 531 -594 
L 0 -594 
L 1625 4666 
z
" transform="scale(0.015625)"/>
       <path id="DejaVuSans-72" d="M 2631 2963 
Q 2534 3019 2420 3045 
Q 2306 3072 2169 3072 
Q 1681 3072 1420 2755 
Q 1159 2438 1159 1844 
L 1159 0 
L 581 0 
L 581 3500 
L 1159 3500 
L 1159 2956 
Q 1341 3275 1631 3429 
Q 1922 3584 2338 3584 
Q 2397 3584 2469 3576 
Q 2541 3569 2628 3553 
L 2631 2963 
z
" transform="scale(0.015625)"/>
       <path id="DejaVuSans-66" d="M 2375 4863 
L 2375 4384 
L 1825 4384 
Q 1516 4384 1395 4259 
Q 1275 4134 1275 3809 
L 1275 3500 
L 2222 3500 
L 2222 3053 
L 1275 3053 
L 1275 0 
L 697 0 
L 697 3053 
L 147 3053 
L 147 3500 
L 697 3500 
L 697 3744 
Q 697 4328 969 4595 
Q 1241 4863 1831 4863 
L 2375 4863 
z
" transform="scale(0.015625)"/>
       <path id="DejaVuSans-75" d="M 544 1381 
L 544 3500 
L 1119 3500 
L 1119 1403 
Q 1119 906 1312 657 
Q 1506 409 1894 409 
Q 2359 409 2629 706 
Q 2900 1003 2900 1516 
L 2900 3500 
L 3475 3500 
L 3475 0 
L 2900 0 
L 2900 538 
Q 2691 219 2414 64 
Q 2138 -91 1772 -91 
Q 1169 -91 856 284 
Q 544 659 544 1381 
z
M 1991 3584 
L 1991 3584 
z
" transform="scale(0.015625)"/>
       <path id="DejaVuSans-62" d="M 3116 1747 
Q 3116 2381 2855 2742 
Q 2594 3103 2138 3103 
Q 1681 3103 1420 2742 
Q 1159 2381 1159 1747 
Q 1159 1113 1420 752 
Q 1681 391 2138 391 
Q 2594 391 2855 752 
Q 3116 1113 3116 1747 
z
M 1159 2969 
Q 1341 3281 1617 3432 
Q 1894 3584 2278 3584 
Q 2916 3584 3314 3078 
Q 3713 2572 3713 1747 
Q 3713 922 3314 415 
Q 2916 -91 2278 -91 
Q 1894 -91 1617 61 
Q 1341 213 1159 525 
L 1159 0 
L 581 0 
L 581 4863 
L 1159 4863 
L 1159 2969 
z
" transform="scale(0.015625)"/>
       <path id="DejaVuSans-68" d="M 3513 2113 
L 3513 0 
L 2938 0 
L 2938 2094 
Q 2938 2591 2744 2837 
Q 2550 3084 2163 3084 
Q 1697 3084 1428 2787 
Q 1159 2491 1159 1978 
L 1159 0 
L 581 0 
L 581 4863 
L 1159 4863 
L 1159 2956 
Q 1366 3272 1645 3428 
Q 1925 3584 2291 3584 
Q 2894 3584 3203 3211 
Q 3513 2838 3513 2113 
z
" transform="scale(0.015625)"/>
      </defs>
      <use xlink:href="#DejaVuSans-65"/>
      <use xlink:href="#DejaVuSans-70" x="61.523438"/>
      <use xlink:href="#DejaVuSans-69" x="125"/>
      <use xlink:href="#DejaVuSans-73" x="152.783203"/>
      <use xlink:href="#DejaVuSans-6f" x="204.882812"/>
      <use xlink:href="#DejaVuSans-64" x="266.064453"/>
      <use xlink:href="#DejaVuSans-65" x="329.541016"/>
      <use xlink:href="#DejaVuSans-5f" x="391.064453"/>
      <use xlink:href="#DejaVuSans-32" x="441.064453"/>
      <use xlink:href="#DejaVuSans-30" x="504.6875"/>
      <use xlink:href="#DejaVuSans-30" x="568.310547"/>
      <use xlink:href="#DejaVuSans-32" x="631.933594"/>
      <use xlink:href="#DejaVuSans-39" x="695.556641"/>
      <use xlink:href="#DejaVuSans-5f" x="759.179688"/>
      <use xlink:href="#DejaVuSans-61" x="809.179688"/>
      <use xlink:href="#DejaVuSans-63" x="870.458984"/>
      <use xlink:href="#DejaVuSans-74" x="925.439453"/>
      <use xlink:href="#DejaVuSans-69" x="964.648438"/>
      <use xlink:href="#DejaVuSans-6f" x="992.431641"/>
      <use xlink:href="#DejaVuSans-6e" x="1053.613281"/>
      <use xlink:href="#DejaVuSans-73" x="1116.992188"/>
      <use xlink:href="#DejaVuSans-2f" x="1169.091797"/>
      <use xlink:href="#DejaVuSans-70" x="1202.783203"/>
      <use xlink:href="#DejaVuSans-72" x="1266.259766"/>
      <use xlink:href="#DejaVuSans-69" x="1307.373047"/>
      <use xlink:href="#DejaVuSans-63" x="1335.15625"/>
      <use xlink:href="#DejaVuSans-65" x="1390.136719"/>
      <use xlink:href="#DejaVuSans-5f" x="1451.660156"/>
      <use xlink:href="#DejaVuSans-72" x="1501.660156"/>
      <use xlink:href="#DejaVuSans-65" x="1540.523438"/>
      <use xlink:href="#DejaVuSans-66" x="1602.046875"/>
      <use xlink:href="#DejaVuSans-75" x="1637.251953"/>
      <use xlink:href="#DejaVuSans-72" x="1700.630859"/>
      <use xlink:href="#DejaVuSans-62" x="1741.744141"/>
      <use xlink:href="#DejaVuSans-69" x="1805.220703"/>
      <use xlink:href="#DejaVuSans-73" x="1833.003906"/>
      <use xlink:href="#DejaVuSans-68" x="1885.103516"/>
      <use xlink:href="#DejaVuSans-65" x="1948.482422"/>
      <use xlink:href="#DejaVuSans-64" x="2010.005859"/>
     </g>
    </g>
   </g>
   <g id="matplotlib.axis_2">
    <g id="ytick_1">
     <g id="line2d_13">
      <path d="M 57.6 295.488 
L 414.72 295.488 
" clip-path="url(#p0b8404305d)" style="fill: none; stroke-dasharray: 2.96,1.28; stroke-dashoffset: 0; stroke: #b0b0b0; stroke-width: 0.8"/>
     </g>
     <g id="line2d_14">
      <defs>
       <path id="m60efcd405f" d="M 0 0 
L -3.5 0 
" style="stroke: #000000; stroke-width: 0.8"/>
      </defs>
      <g>
       <use xlink:href="#m60efcd405f" x="57.6" y="295.488" style="stroke: #000000; stroke-width: 0.8"/>
      </g>
     </g>
     <g id="text_8">
      <!-- 0.0 -->
      <g transform="translate(34.696875 299.287219)scale(0.1 -0.1)">
       <defs>
        <path id="DejaVuSans-2e" d="M 684 794 
L 1344 794 
L 1344 0 
L 684 0 
L 684 794 
z
" transform="scale(0.015625)"/>
       </defs>
       <use xlink:href="#DejaVuSans-30"/>
       <use xlink:href="#DejaVuSans-2e" x="63.623047"/>
       <use xlink:href="#DejaVuSans-30" x="95.410156"/>
      </g>
     </g>
    </g>
    <g id="ytick_2">
     <g id="line2d_15">
      <path d="M 57.6 259.063147 
L 414.72 259.063147 
" clip-path="url(#p0b8404305d)" style="fill: none; stroke-dasharray: 2.96,1.28; stroke-dashoffset: 0; stroke: #b0b0b0; stroke-width: 0.8"/>
     </g>
     <g id="line2d_16">
      <g>
       <use xlink:href="#m60efcd405f" x="57.6" y="259.063147" style="stroke: #000000; stroke-width: 0.8"/>
      </g>
     </g>
     <g id="text_9">
      <!-- 0.2 -->
      <g transform="translate(34.696875 262.862366)scale(0.1 -0.1)">
       <use xlink:href="#DejaVuSans-30"/>
       <use xlink:href="#DejaVuSans-2e" x="63.623047"/>
       <use xlink:href="#DejaVuSans-32" x="95.410156"/>
      </g>
     </g>
    </g>
    <g id="ytick_3">
     <g id="line2d_17">
      <path d="M 57.6 222.638294 
L 414.72 222.638294 
" clip-path="url(#p0b8404305d)" style="fill: none; stroke-dasharray: 2.96,1.28; stroke-dashoffset: 0; stroke: #b0b0b0; stroke-width: 0.8"/>
     </g>
     <g id="line2d_18">
      <g>
       <use xlink:href="#m60efcd405f" x="57.6" y="222.638294" style="stroke: #000000; stroke-width: 0.8"/>
      </g>
     </g>
     <g id="text_10">
      <!-- 0.4 -->
      <g transform="translate(34.696875 226.437513)scale(0.1 -0.1)">
       <use xlink:href="#DejaVuSans-30"/>
       <use xlink:href="#DejaVuSans-2e" x="63.623047"/>
       <use xlink:href="#DejaVuSans-34" x="95.410156"/>
      </g>
     </g>
    </g>
    <g id="ytick_4">
     <g id="line2d_19">
      <path d="M 57.6 186.213441 
L 414.72 186.213441 
" clip-path="url(#p0b8404305d)" style="fill: none; stroke-dasharray: 2.96,1.28; stroke-dashoffset: 0; stroke: #b0b0b0; stroke-width: 0.8"/>
     </g>
     <g id="line2d_20">
      <g>
       <use xlink:href="#m60efcd405f" x="57.6" y="186.213441" style="stroke: #000000; stroke-width: 0.8"/>
      </g>
     </g>
     <g id="text_11">
      <!-- 0.6 -->
      <g transform="translate(34.696875 190.01266)scale(0.1 -0.1)">
       <use xlink:href="#DejaVuSans-30"/>
       <use xlink:href="#DejaVuSans-2e" x="63.623047"/>
       <use xlink:href="#DejaVuSans-36" x="95.410156"/>
      </g>
     </g>
    </g>
    <g id="ytick_5">
     <g id="line2d_21">
      <path d="M 57.6 149.788588 
L 414.72 149.788588 
" clip-path="url(#p0b8404305d)" style="fill: none; stroke-dasharray: 2.96,1.28; stroke-dashoffset: 0; stroke: #b0b0b0; stroke-width: 0.8"/>
     </g>
     <g id="line2d_22">
      <g>
       <use xlink:href="#m60efcd405f" x="57.6" y="149.788588" style="stroke: #000000; stroke-width: 0.8"/>
      </g>
     </g>
     <g id="text_12">
      <!-- 0.8 -->
      <g transform="translate(34.696875 153.587806)scale(0.1 -0.1)">
       <defs>
        <path id="DejaVuSans-38" d="M 2034 2216 
Q 1584 2216 1326 1975 
Q 1069 1734 1069 1313 
Q 1069 891 1326 650 
Q 1584 409 2034 409 
Q 2484 409 2743 651 
Q 3003 894 3003 1313 
Q 3003 1734 2745 1975 
Q 2488 2216 2034 2216 
z
M 1403 2484 
Q 997 2584 770 2862 
Q 544 3141 544 3541 
Q 544 4100 942 4425 
Q 1341 4750 2034 4750 
Q 2731 4750 3128 4425 
Q 3525 4100 3525 3541 
Q 3525 3141 3298 2862 
Q 3072 2584 2669 2484 
Q 3125 2378 3379 2068 
Q 3634 1759 3634 1313 
Q 3634 634 3220 271 
Q 2806 -91 2034 -91 
Q 1263 -91 848 271 
Q 434 634 434 1313 
Q 434 1759 690 2068 
Q 947 2378 1403 2484 
z
M 1172 3481 
Q 1172 3119 1398 2916 
Q 1625 2713 2034 2713 
Q 2441 2713 2670 2916 
Q 2900 3119 2900 3481 
Q 2900 3844 2670 4047 
Q 2441 4250 2034 4250 
Q 1625 4250 1398 4047 
Q 1172 3844 1172 3481 
z
" transform="scale(0.015625)"/>
       </defs>
       <use xlink:href="#DejaVuSans-30"/>
       <use xlink:href="#DejaVuSans-2e" x="63.623047"/>
       <use xlink:href="#DejaVuSans-38" x="95.410156"/>
      </g>
     </g>
    </g>
    <g id="ytick_6">
     <g id="line2d_23">
      <path d="M 57.6 113.363735 
L 414.72 113.363735 
" clip-path="url(#p0b8404305d)" style="fill: none; stroke-dasharray: 2.96,1.28; stroke-dashoffset: 0; stroke: #b0b0b0; stroke-width: 0.8"/>
     </g>
     <g id="line2d_24">
      <g>
       <use xlink:href="#m60efcd405f" x="57.6" y="113.363735" style="stroke: #000000; stroke-width: 0.8"/>
      </g>
     </g>
     <g id="text_13">
      <!-- 1.0 -->
      <g transform="translate(34.696875 117.162953)scale(0.1 -0.1)">
       <use xlink:href="#DejaVuSans-31"/>
       <use xlink:href="#DejaVuSans-2e" x="63.623047"/>
       <use xlink:href="#DejaVuSans-30" x="95.410156"/>
      </g>
     </g>
    </g>
    <g id="ytick_7">
     <g id="line2d_25">
      <path d="M 57.6 76.938882 
L 414.72 76.938882 
" clip-path="url(#p0b8404305d)" style="fill: none; stroke-dasharray: 2.96,1.28; stroke-dashoffset: 0; stroke: #b0b0b0; stroke-width: 0.8"/>
     </g>
     <g id="line2d_26">
      <g>
       <use xlink:href="#m60efcd405f" x="57.6" y="76.938882" style="stroke: #000000; stroke-width: 0.8"/>
      </g>
     </g>
     <g id="text_14">
      <!-- 1.2 -->
      <g transform="translate(34.696875 80.7381)scale(0.1 -0.1)">
       <use xlink:href="#DejaVuSans-31"/>
       <use xlink:href="#DejaVuSans-2e" x="63.623047"/>
       <use xlink:href="#DejaVuSans-32" x="95.410156"/>
      </g>
     </g>
    </g>
    <g id="text_15">
     <!-- Probability density -->
     <g transform="translate(28.617187 220.878781)rotate(-90)scale(0.1 -0.1)">
      <defs>
       <path id="DejaVuSans-50" d="M 1259 4147 
L 1259 2394 
L 2053 2394 
Q 2494 2394 2734 2622 
Q 2975 2850 2975 3272 
Q 2975 3691 2734 3919 
Q 2494 4147 2053 4147 
L 1259 4147 
z
M 628 4666 
L 2053 4666 
Q 2838 4666 3239 4311 
Q 3641 3956 3641 3272 
Q 3641 2581 3239 2228 
Q 2838 1875 2053 1875 
L 1259 1875 
L 1259 0 
L 628 0 
L 628 4666 
z
" transform="scale(0.015625)"/>
       <path id="DejaVuSans-6c" d="M 603 4863 
L 1178 4863 
L 1178 0 
L 603 0 
L 603 4863 
z
" transform="scale(0.015625)"/>
       <path id="DejaVuSans-79" d="M 2059 -325 
Q 1816 -950 1584 -1140 
Q 1353 -1331 966 -1331 
L 506 -1331 
L 506 -850 
L 844 -850 
Q 1081 -850 1212 -737 
Q 1344 -625 1503 -206 
L 1606 56 
L 191 3500 
L 800 3500 
L 1894 763 
L 2988 3500 
L 3597 3500 
L 2059 -325 
z
" transform="scale(0.015625)"/>
       <path id="DejaVuSans-20" transform="scale(0.015625)"/>
      </defs>
      <use xlink:href="#DejaVuSans-50"/>
      <use xlink:href="#DejaVuSans-72" x="58.552734"/>
      <use xlink:href="#DejaVuSans-6f" x="97.416016"/>
      <use xlink:href="#DejaVuSans-62" x="158.597656"/>
      <use xlink:href="#DejaVuSans-61" x="222.074219"/>
      <use xlink:href="#DejaVuSans-62" x="283.353516"/>
      <use xlink:href="#DejaVuSans-69" x="346.830078"/>
      <use xlink:href="#DejaVuSans-6c" x="374.613281"/>
      <use xlink:href="#DejaVuSans-69" x="402.396484"/>
      <use xlink:href="#DejaVuSans-74" x="430.179688"/>
      <use xlink:href="#DejaVuSans-79" x="469.388672"/>
      <use xlink:href="#DejaVuSans-20" x="528.568359"/>
      <use xlink:href="#DejaVuSans-64" x="560.355469"/>
      <use xlink:href="#DejaVuSans-65" x="623.832031"/>
      <use xlink:href="#DejaVuSans-6e" x="685.355469"/>
      <use xlink:href="#DejaVuSans-73" x="748.734375"/>
      <use xlink:href="#DejaVuSans-69" x="800.833984"/>
      <use xlink:href="#DejaVuSans-74" x="828.617188"/>
      <use xlink:href="#DejaVuSans-79" x="867.826172"/>
     </g>
    </g>
   </g>
   <g id="line2d_27">
    <path d="M 73.832727 295.488 
L 77.112066 295.488 
L 80.391405 295.487999 
L 83.670744 295.487993 
L 86.950083 295.487965 
L 90.229421 295.487844 
L 93.50876 295.48736 
L 96.788099 295.485628 
L 100.067438 295.479999 
L 103.346777 295.463396 
L 106.626116 295.418804 
L 109.905455 295.309503 
L 113.184793 295.064452 
L 116.464132 294.56108 
L 119.743471 293.612647 
L 123.02281 291.972518 
L 126.302149 289.368336 
L 129.581488 285.569135 
L 132.860826 280.467146 
L 136.140165 274.134517 
L 139.419504 266.814789 
L 142.698843 258.843081 
L 145.978182 250.54162 
L 149.257521 242.163749 
L 152.53686 233.924132 
L 155.816198 226.073841 
L 159.095537 218.927996 
L 162.374876 212.790724 
L 165.654215 207.823365 
L 168.933554 203.967204 
L 172.212893 200.988198 
L 175.492231 198.600531 
L 178.77157 196.565793 
L 182.050909 194.712611 
L 185.330248 192.910749 
L 188.609587 191.061522 
L 191.888926 189.116432 
L 195.168264 187.082451 
L 198.447603 184.979378 
L 201.726942 182.76986 
L 205.006281 180.325845 
L 208.28562 177.484349 
L 211.564959 174.186363 
L 214.844298 170.626843 
L 218.123636 167.31725 
L 221.402975 164.997652 
L 224.682314 164.417607 
L 227.961653 166.08642 
L 231.240992 170.118679 
L 234.520331 176.245736 
L 237.799669 183.9624 
L 241.079008 192.706758 
L 244.358347 201.980246 
L 247.637686 211.381804 
L 250.917025 220.588714 
L 254.196364 229.332049 
L 257.475702 237.399489 
L 260.755041 244.672499 
L 264.03438 251.172636 
L 267.313719 257.06677 
L 270.593058 262.594944 
L 273.872397 267.943334 
L 277.151736 273.139704 
L 280.431074 278.041945 
L 283.710413 282.423385 
L 286.989752 286.092403 
L 290.269091 288.97267 
L 293.54843 291.111492 
L 296.827769 292.634399 
L 300.107107 293.687213 
L 303.386446 294.39723 
L 306.665785 294.861289 
L 309.945124 295.150743 
L 313.224463 295.319944 
L 316.503802 295.411169 
L 319.78314 295.455996 
L 323.062479 295.475914 
L 326.341818 295.483877 
L 329.621157 295.486733 
L 332.900496 295.48765 
L 336.179835 295.487913 
L 339.459174 295.487981 
L 342.738512 295.487996 
L 346.017851 295.487999 
L 349.29719 295.488 
L 352.576529 295.488 
L 355.855868 295.488 
L 359.135207 295.488 
L 362.414545 295.488 
L 365.693884 295.488 
L 368.973223 295.488 
L 372.252562 295.488 
L 375.531901 295.488 
L 378.81124 295.488 
L 382.090579 295.488 
L 385.369917 295.488 
L 388.649256 295.488 
L 391.928595 295.488 
L 395.207934 295.488 
L 398.487273 295.488 
" clip-path="url(#p0b8404305d)" style="fill: none; stroke: #1f77b4; stroke-width: 1.5; stroke-linecap: square"/>
   </g>
   <g id="line2d_28">
    <path d="M 73.832727 295.488 
L 77.112066 295.488 
L 80.391405 295.487999 
L 83.670744 295.487983 
L 86.950083 295.487698 
L 90.229421 295.484295 
L 93.50876 295.455407 
L 96.788099 295.279926 
L 100.067438 294.509275 
L 103.346777 292.029684 
L 106.626116 286.082969 
L 109.905455 275.195619 
L 113.184793 259.357134 
L 116.464132 239.573286 
L 119.743471 215.783427 
L 123.02281 186.812561 
L 126.302149 153.937991 
L 129.581488 122.622589 
L 132.860826 98.923874 
L 136.140165 84.69939 
L 139.419504 75.94567 
L 142.698843 67.102678 
L 145.978182 58.092737 
L 149.257521 53.568 
L 152.53686 55.259559 
L 155.816198 60.685883 
L 159.095537 69.413063 
L 162.374876 84.542384 
L 165.654215 107.24659 
L 168.933554 134.269576 
L 172.212893 161.340007 
L 175.492231 185.983117 
L 178.77157 207.228481 
L 182.050909 225.15318 
L 185.330248 240.11925 
L 188.609587 251.879813 
L 191.888926 260.789124 
L 195.168264 268.616782 
L 198.447603 276.531717 
L 201.726942 283.781994 
L 205.006281 289.101792 
L 208.28562 292.093058 
L 211.564959 293.20787 
L 214.844298 293.403983 
L 218.123636 293.650559 
L 221.402975 294.258942 
L 224.682314 294.907158 
L 227.961653 295.297264 
L 231.240992 295.444645 
L 234.520331 295.481184 
L 237.799669 295.487259 
L 241.079008 295.487944 
L 244.358347 295.487997 
L 247.637686 295.488 
L 250.917025 295.488 
L 254.196364 295.488 
L 257.475702 295.488 
L 260.755041 295.488 
L 264.03438 295.488 
L 267.313719 295.488 
L 270.593058 295.488 
L 273.872397 295.488 
L 277.151736 295.488 
L 280.431074 295.488 
L 283.710413 295.488 
L 286.989752 295.488 
L 290.269091 295.488 
L 293.54843 295.488 
L 296.827769 295.488 
L 300.107107 295.488 
L 303.386446 295.488 
L 306.665785 295.488 
L 309.945124 295.488 
L 313.224463 295.488 
L 316.503802 295.488 
L 319.78314 295.488 
L 323.062479 295.488 
L 326.341818 295.488 
L 329.621157 295.488 
L 332.900496 295.488 
L 336.179835 295.488 
L 339.459174 295.488 
L 342.738512 295.488 
L 346.017851 295.488 
L 349.29719 295.488 
L 352.576529 295.488 
L 355.855868 295.488 
L 359.135207 295.488 
L 362.414545 295.488 
L 365.693884 295.488 
L 368.973223 295.488 
L 372.252562 295.488 
L 375.531901 295.488 
L 378.81124 295.488 
L 382.090579 295.488 
L 385.369917 295.488 
L 388.649256 295.488 
L 391.928595 295.488 
L 395.207934 295.488 
L 398.487273 295.488 
" clip-path="url(#p0b8404305d)" style="fill: none; stroke: #ff7f0e; stroke-width: 1.5; stroke-linecap: square"/>
   </g>
   <g id="line2d_29">
    <path d="M 73.832727 295.488 
L 77.112066 295.488 
L 80.391405 295.488 
L 83.670744 295.488 
L 86.950083 295.488 
L 90.229421 295.488 
L 93.50876 295.487999 
L 96.788099 295.487992 
L 100.067438 295.487902 
L 103.346777 295.487075 
L 106.626116 295.480843 
L 109.905455 295.442835 
L 113.184793 295.255178 
L 116.464132 294.506224 
L 119.743471 292.094361 
L 123.02281 285.843366 
L 126.302149 272.852073 
L 129.581488 251.31996 
L 132.860826 223.101619 
L 136.140165 194.274089 
L 139.419504 171.888047 
L 142.698843 159.267576 
L 145.978182 154.398375 
L 149.257521 152.551378 
L 152.53686 149.912971 
L 155.816198 145.121809 
L 159.095537 138.667336 
L 162.374876 131.70878 
L 165.654215 125.282262 
L 168.933554 119.982084 
L 172.212893 116.055046 
L 175.492231 113.843708 
L 178.77157 114.13673 
L 182.050909 117.880031 
L 185.330248 125.395247 
L 188.609587 135.959951 
L 191.888926 148.310453 
L 195.168264 161.557315 
L 198.447603 175.477379 
L 201.726942 189.937659 
L 205.006281 204.331255 
L 208.28562 217.820241 
L 211.564959 230.014182 
L 214.844298 241.124785 
L 218.123636 251.391452 
L 221.402975 260.53444 
L 224.682314 267.896711 
L 227.961653 273.064731 
L 231.240992 276.292374 
L 234.520331 278.401987 
L 237.799669 280.339977 
L 241.079008 282.697202 
L 244.358347 285.458735 
L 247.637686 288.15391 
L 250.917025 290.28854 
L 254.196364 291.682413 
L 257.475702 292.482587 
L 260.755041 292.973811 
L 264.03438 293.402622 
L 267.313719 293.887877 
L 270.593058 294.408926 
L 273.872397 294.869086 
L 277.151736 295.191947 
L 280.431074 295.37122 
L 283.710413 295.450253 
L 286.989752 295.478037 
L 290.269091 295.485857 
L 293.54843 295.487625 
L 296.827769 295.487947 
L 300.107107 295.487994 
L 303.386446 295.487999 
L 306.665785 295.488 
L 309.945124 295.488 
L 313.224463 295.488 
L 316.503802 295.488 
L 319.78314 295.488 
L 323.062479 295.488 
L 326.341818 295.488 
L 329.621157 295.488 
L 332.900496 295.488 
L 336.179835 295.488 
L 339.459174 295.488 
L 342.738512 295.488 
L 346.017851 295.488 
L 349.29719 295.488 
L 352.576529 295.488 
L 355.855868 295.488 
L 359.135207 295.488 
L 362.414545 295.488 
L 365.693884 295.488 
L 368.973223 295.488 
L 372.252562 295.488 
L 375.531901 295.488 
L 378.81124 295.488 
L 382.090579 295.488 
L 385.369917 295.488 
L 388.649256 295.488 
L 391.928595 295.488 
L 395.207934 295.488 
L 398.487273 295.488 
" clip-path="url(#p0b8404305d)" style="fill: none; stroke: #2ca02c; stroke-width: 1.5; stroke-linecap: square"/>
   </g>
   <g id="line2d_30">
    <path d="M 73.832727 295.488 
L 77.112066 295.488 
L 80.391405 295.488 
L 83.670744 295.488 
L 86.950083 295.488 
L 90.229421 295.488 
L 93.50876 295.488 
L 96.788099 295.488 
L 100.067438 295.488 
L 103.346777 295.488 
L 106.626116 295.488 
L 109.905455 295.488 
L 113.184793 295.488 
L 116.464132 295.488 
L 119.743471 295.488 
L 123.02281 295.488 
L 126.302149 295.488 
L 129.581488 295.488 
L 132.860826 295.488 
L 136.140165 295.488 
L 139.419504 295.488 
L 142.698843 295.488 
L 145.978182 295.488 
L 149.257521 295.488 
L 152.53686 295.488 
L 155.816198 295.488 
L 159.095537 295.488 
L 162.374876 295.488 
L 165.654215 295.488 
L 168.933554 295.488 
L 172.212893 295.488 
L 175.492231 295.488 
L 178.77157 295.488 
L 182.050909 295.488 
L 185.330248 295.488 
L 188.609587 295.488 
L 191.888926 295.488 
L 195.168264 295.488 
L 198.447603 295.488 
L 201.726942 295.488 
L 205.006281 295.488 
L 208.28562 295.488 
L 211.564959 295.488 
L 214.844298 295.488 
L 218.123636 295.488 
L 221.402975 295.488 
L 224.682314 295.488 
L 227.961653 295.488 
L 231.240992 295.488 
L 234.520331 295.488 
L 237.799669 295.488 
L 241.079008 295.488 
L 244.358347 295.488 
L 247.637686 295.488 
L 250.917025 295.488 
L 254.196364 295.488 
L 257.475702 295.488 
L 260.755041 295.488 
L 264.03438 295.488 
L 267.313719 295.488 
L 270.593058 295.488 
L 273.872397 295.488 
L 277.151736 295.488 
L 280.431074 295.488 
L 283.710413 295.488 
L 286.989752 295.488 
L 290.269091 295.488 
L 293.54843 295.488 
L 296.827769 295.488 
L 300.107107 295.488 
L 303.386446 295.488 
L 306.665785 295.488 
L 309.945124 295.488 
L 313.224463 295.488 
L 316.503802 295.488 
L 319.78314 295.488 
L 323.062479 295.488 
L 326.341818 295.488 
L 329.621157 295.488 
L 332.900496 295.488 
L 336.179835 295.488 
L 339.459174 295.488 
L 342.738512 295.488 
L 346.017851 295.488 
L 349.29719 295.488 
L 352.576529 295.488 
L 355.855868 295.488 
L 359.135207 295.488 
L 362.414545 295.488 
L 365.693884 295.488 
L 368.973223 295.488 
L 372.252562 295.488 
L 375.531901 295.488 
L 378.81124 295.488 
L 382.090579 295.488 
L 385.369917 295.488 
L 388.649256 295.488 
L 391.928595 295.488 
L 395.207934 295.488 
L 398.487273 295.488 
" clip-path="url(#p0b8404305d)" style="fill: none; stroke: #d62728; stroke-width: 1.5; stroke-linecap: square"/>
   </g>
   <g id="line2d_31">
    <path d="M 73.832727 295.487992 
L 77.112066 295.487973 
L 80.391405 295.487913 
L 83.670744 295.487737 
L 86.950083 295.487251 
L 90.229421 295.485992 
L 93.50876 295.482944 
L 96.788099 295.476025 
L 100.067438 295.461308 
L 103.346777 295.431954 
L 106.626116 295.377014 
L 109.905455 295.280378 
L 113.184793 295.120276 
L 116.464132 294.869515 
L 119.743471 294.4961 
L 123.02281 293.963012 
L 126.302149 293.225273 
L 129.581488 292.222745 
L 132.860826 290.86901 
L 136.140165 289.040076 
L 139.419504 286.569993 
L 142.698843 283.26144 
L 145.978182 278.915927 
L 149.257521 273.380429 
L 152.53686 266.598073 
L 155.816198 258.64489 
L 159.095537 249.736903 
L 162.374876 240.202329 
L 165.654215 230.427948 
L 168.933554 220.799319 
L 172.212893 211.655371 
L 175.492231 203.268374 
L 178.77157 195.845996 
L 182.050909 189.541589 
L 185.330248 184.458285 
L 188.609587 180.641515 
L 191.888926 178.066552 
L 195.168264 176.634272 
L 198.447603 176.185123 
L 201.726942 176.530707 
L 205.006281 177.491761 
L 208.28562 178.927562 
L 211.564959 180.746792 
L 214.844298 182.900036 
L 218.123636 185.362768 
L 221.402975 188.120261 
L 224.682314 191.161744 
L 227.961653 194.483617 
L 231.240992 198.0954 
L 234.520331 202.020467 
L 237.799669 206.2868 
L 241.079008 210.908579 
L 244.358347 215.864323 
L 247.637686 221.079458 
L 250.917025 226.420457 
L 254.196364 231.705074 
L 257.475702 236.729282 
L 260.755041 241.3067 
L 264.03438 245.31094 
L 267.313719 248.707418 
L 270.593058 251.561653 
L 273.872397 254.017585 
L 277.151736 256.250754 
L 280.431074 258.412233 
L 283.710413 260.58436 
L 286.989752 262.764927 
L 290.269091 264.884432 
L 293.54843 266.846748 
L 296.827769 268.574349 
L 300.107107 270.039109 
L 303.386446 271.268278 
L 306.665785 272.327566 
L 309.945124 273.293133 
L 313.224463 274.227077 
L 316.503802 275.166476 
L 319.78314 276.127366 
L 323.062479 277.117364 
L 326.341818 278.147598 
L 329.621157 279.236964 
L 332.900496 280.407221 
L 336.179835 281.67273 
L 339.459174 283.030937 
L 342.738512 284.458576 
L 346.017851 285.91508 
L 349.29719 287.351208 
L 352.576529 288.71901 
L 355.855868 289.979566 
L 359.135207 291.106687 
L 362.414545 292.086814 
L 365.693884 292.916661 
L 368.973223 293.600327 
L 372.252562 294.147025 
L 375.531901 294.569698 
L 378.81124 294.884145 
L 382.090579 295.108129 
L 385.369917 295.260177 
L 388.649256 295.358138 
L 391.928595 295.417832 
L 395.207934 295.452142 
L 398.487273 295.470701 
" clip-path="url(#p0b8404305d)" style="fill: none; stroke: #9467bd; stroke-width: 1.5; stroke-linecap: square"/>
   </g>
   <g id="patch_3">
    <path d="M 57.6 307.584 
L 57.6 41.472 
" style="fill: none; stroke: #000000; stroke-width: 0.8; stroke-linejoin: miter; stroke-linecap: square"/>
   </g>
   <g id="patch_4">
    <path d="M 414.72 307.584 
L 414.72 41.472 
" style="fill: none; stroke: #000000; stroke-width: 0.8; stroke-linejoin: miter; stroke-linecap: square"/>
   </g>
   <g id="patch_5">
    <path d="M 57.6 307.584 
L 414.72 307.584 
" style="fill: none; stroke: #000000; stroke-width: 0.8; stroke-linejoin: miter; stroke-linecap: square"/>
   </g>
   <g id="patch_6">
    <path d="M 57.6 41.472 
L 414.72 41.472 
" style="fill: none; stroke: #000000; stroke-width: 0.8; stroke-linejoin: miter; stroke-linecap: square"/>
   </g>
   <g id="text_16">
    <!-- Density plot of episode_20029_actions/price_refurbished -->
    <g transform="translate(65.934375 35.472)scale(0.12 -0.12)">
     <defs>
      <path id="DejaVuSans-44" d="M 1259 4147 
L 1259 519 
L 2022 519 
Q 2988 519 3436 956 
Q 3884 1394 3884 2338 
Q 3884 3275 3436 3711 
Q 2988 4147 2022 4147 
L 1259 4147 
z
M 628 4666 
L 1925 4666 
Q 3281 4666 3915 4102 
Q 4550 3538 4550 2338 
Q 4550 1131 3912 565 
Q 3275 0 1925 0 
L 628 0 
L 628 4666 
z
" transform="scale(0.015625)"/>
     </defs>
     <use xlink:href="#DejaVuSans-44"/>
     <use xlink:href="#DejaVuSans-65" x="77.001953"/>
     <use xlink:href="#DejaVuSans-6e" x="138.525391"/>
     <use xlink:href="#DejaVuSans-73" x="201.904297"/>
     <use xlink:href="#DejaVuSans-69" x="254.003906"/>
     <use xlink:href="#DejaVuSans-74" x="281.787109"/>
     <use xlink:href="#DejaVuSans-79" x="320.996094"/>
     <use xlink:href="#DejaVuSans-20" x="380.175781"/>
     <use xlink:href="#DejaVuSans-70" x="411.962891"/>
     <use xlink:href="#DejaVuSans-6c" x="475.439453"/>
     <use xlink:href="#DejaVuSans-6f" x="503.222656"/>
     <use xlink:href="#DejaVuSans-74" x="564.404297"/>
     <use xlink:href="#DejaVuSans-20" x="603.613281"/>
     <use xlink:href="#DejaVuSans-6f" x="635.400391"/>
     <use xlink:href="#DejaVuSans-66" x="696.582031"/>
     <use xlink:href="#DejaVuSans-20" x="731.787109"/>
     <use xlink:href="#DejaVuSans-65" x="763.574219"/>
     <use xlink:href="#DejaVuSans-70" x="825.097656"/>
     <use xlink:href="#DejaVuSans-69" x="888.574219"/>
     <use xlink:href="#DejaVuSans-73" x="916.357422"/>
     <use xlink:href="#DejaVuSans-6f" x="968.457031"/>
     <use xlink:href="#DejaVuSans-64" x="1029.638672"/>
     <use xlink:href="#DejaVuSans-65" x="1093.115234"/>
     <use xlink:href="#DejaVuSans-5f" x="1154.638672"/>
     <use xlink:href="#DejaVuSans-32" x="1204.638672"/>
     <use xlink:href="#DejaVuSans-30" x="1268.261719"/>
     <use xlink:href="#DejaVuSans-30" x="1331.884766"/>
     <use xlink:href="#DejaVuSans-32" x="1395.507812"/>
     <use xlink:href="#DejaVuSans-39" x="1459.130859"/>
     <use xlink:href="#DejaVuSans-5f" x="1522.753906"/>
     <use xlink:href="#DejaVuSans-61" x="1572.753906"/>
     <use xlink:href="#DejaVuSans-63" x="1634.033203"/>
     <use xlink:href="#DejaVuSans-74" x="1689.013672"/>
     <use xlink:href="#DejaVuSans-69" x="1728.222656"/>
     <use xlink:href="#DejaVuSans-6f" x="1756.005859"/>
     <use xlink:href="#DejaVuSans-6e" x="1817.1875"/>
     <use xlink:href="#DejaVuSans-73" x="1880.566406"/>
     <use xlink:href="#DejaVuSans-2f" x="1932.666016"/>
     <use xlink:href="#DejaVuSans-70" x="1966.357422"/>
     <use xlink:href="#DejaVuSans-72" x="2029.833984"/>
     <use xlink:href="#DejaVuSans-69" x="2070.947266"/>
     <use xlink:href="#DejaVuSans-63" x="2098.730469"/>
     <use xlink:href="#DejaVuSans-65" x="2153.710938"/>
     <use xlink:href="#DejaVuSans-5f" x="2215.234375"/>
     <use xlink:href="#DejaVuSans-72" x="2265.234375"/>
     <use xlink:href="#DejaVuSans-65" x="2304.097656"/>
     <use xlink:href="#DejaVuSans-66" x="2365.621094"/>
     <use xlink:href="#DejaVuSans-75" x="2400.826172"/>
     <use xlink:href="#DejaVuSans-72" x="2464.205078"/>
     <use xlink:href="#DejaVuSans-62" x="2505.318359"/>
     <use xlink:href="#DejaVuSans-69" x="2568.794922"/>
     <use xlink:href="#DejaVuSans-73" x="2596.578125"/>
     <use xlink:href="#DejaVuSans-68" x="2648.677734"/>
     <use xlink:href="#DejaVuSans-65" x="2712.056641"/>
     <use xlink:href="#DejaVuSans-64" x="2773.580078"/>
    </g>
   </g>
   <g id="legend_1">
    <g id="patch_7">
     <path d="M 161.41375 123.14075 
L 407.72 123.14075 
Q 409.72 123.14075 409.72 121.14075 
L 409.72 48.472 
Q 409.72 46.472 407.72 46.472 
L 161.41375 46.472 
Q 159.41375 46.472 159.41375 48.472 
L 159.41375 121.14075 
Q 159.41375 123.14075 161.41375 123.14075 
z
" style="fill: #ffffff; opacity: 0.8; stroke: #cccccc; stroke-linejoin: miter"/>
    </g>
    <g id="line2d_32">
     <path d="M 163.41375 54.570437 
L 173.41375 54.570437 
L 183.41375 54.570437 
" style="fill: none; stroke: #1f77b4; stroke-width: 1.5; stroke-linecap: square"/>
    </g>
    <g id="text_17">
     <!-- StableBaselinesPPO_episode_20029 -->
     <g transform="translate(191.41375 58.070437)scale(0.1 -0.1)">
      <defs>
       <path id="DejaVuSans-53" d="M 3425 4513 
L 3425 3897 
Q 3066 4069 2747 4153 
Q 2428 4238 2131 4238 
Q 1616 4238 1336 4038 
Q 1056 3838 1056 3469 
Q 1056 3159 1242 3001 
Q 1428 2844 1947 2747 
L 2328 2669 
Q 3034 2534 3370 2195 
Q 3706 1856 3706 1288 
Q 3706 609 3251 259 
Q 2797 -91 1919 -91 
Q 1588 -91 1214 -16 
Q 841 59 441 206 
L 441 856 
Q 825 641 1194 531 
Q 1563 422 1919 422 
Q 2459 422 2753 634 
Q 3047 847 3047 1241 
Q 3047 1584 2836 1778 
Q 2625 1972 2144 2069 
L 1759 2144 
Q 1053 2284 737 2584 
Q 422 2884 422 3419 
Q 422 4038 858 4394 
Q 1294 4750 2059 4750 
Q 2388 4750 2728 4690 
Q 3069 4631 3425 4513 
z
" transform="scale(0.015625)"/>
       <path id="DejaVuSans-42" d="M 1259 2228 
L 1259 519 
L 2272 519 
Q 2781 519 3026 730 
Q 3272 941 3272 1375 
Q 3272 1813 3026 2020 
Q 2781 2228 2272 2228 
L 1259 2228 
z
M 1259 4147 
L 1259 2741 
L 2194 2741 
Q 2656 2741 2882 2914 
Q 3109 3088 3109 3444 
Q 3109 3797 2882 3972 
Q 2656 4147 2194 4147 
L 1259 4147 
z
M 628 4666 
L 2241 4666 
Q 2963 4666 3353 4366 
Q 3744 4066 3744 3513 
Q 3744 3084 3544 2831 
Q 3344 2578 2956 2516 
Q 3422 2416 3680 2098 
Q 3938 1781 3938 1306 
Q 3938 681 3513 340 
Q 3088 0 2303 0 
L 628 0 
L 628 4666 
z
" transform="scale(0.015625)"/>
       <path id="DejaVuSans-4f" d="M 2522 4238 
Q 1834 4238 1429 3725 
Q 1025 3213 1025 2328 
Q 1025 1447 1429 934 
Q 1834 422 2522 422 
Q 3209 422 3611 934 
Q 4013 1447 4013 2328 
Q 4013 3213 3611 3725 
Q 3209 4238 2522 4238 
z
M 2522 4750 
Q 3503 4750 4090 4092 
Q 4678 3434 4678 2328 
Q 4678 1225 4090 567 
Q 3503 -91 2522 -91 
Q 1538 -91 948 565 
Q 359 1222 359 2328 
Q 359 3434 948 4092 
Q 1538 4750 2522 4750 
z
" transform="scale(0.015625)"/>
      </defs>
      <use xlink:href="#DejaVuSans-53"/>
      <use xlink:href="#DejaVuSans-74" x="63.476562"/>
      <use xlink:href="#DejaVuSans-61" x="102.685547"/>
      <use xlink:href="#DejaVuSans-62" x="163.964844"/>
      <use xlink:href="#DejaVuSans-6c" x="227.441406"/>
      <use xlink:href="#DejaVuSans-65" x="255.224609"/>
      <use xlink:href="#DejaVuSans-42" x="316.748047"/>
      <use xlink:href="#DejaVuSans-61" x="385.351562"/>
      <use xlink:href="#DejaVuSans-73" x="446.630859"/>
      <use xlink:href="#DejaVuSans-65" x="498.730469"/>
      <use xlink:href="#DejaVuSans-6c" x="560.253906"/>
      <use xlink:href="#DejaVuSans-69" x="588.037109"/>
      <use xlink:href="#DejaVuSans-6e" x="615.820312"/>
      <use xlink:href="#DejaVuSans-65" x="679.199219"/>
      <use xlink:href="#DejaVuSans-73" x="740.722656"/>
      <use xlink:href="#DejaVuSans-50" x="792.822266"/>
      <use xlink:href="#DejaVuSans-50" x="853.125"/>
      <use xlink:href="#DejaVuSans-4f" x="913.427734"/>
      <use xlink:href="#DejaVuSans-5f" x="992.138672"/>
      <use xlink:href="#DejaVuSans-65" x="1042.138672"/>
      <use xlink:href="#DejaVuSans-70" x="1103.662109"/>
      <use xlink:href="#DejaVuSans-69" x="1167.138672"/>
      <use xlink:href="#DejaVuSans-73" x="1194.921875"/>
      <use xlink:href="#DejaVuSans-6f" x="1247.021484"/>
      <use xlink:href="#DejaVuSans-64" x="1308.203125"/>
      <use xlink:href="#DejaVuSans-65" x="1371.679688"/>
      <use xlink:href="#DejaVuSans-5f" x="1433.203125"/>
      <use xlink:href="#DejaVuSans-32" x="1483.203125"/>
      <use xlink:href="#DejaVuSans-30" x="1546.826172"/>
      <use xlink:href="#DejaVuSans-30" x="1610.449219"/>
      <use xlink:href="#DejaVuSans-32" x="1674.072266"/>
      <use xlink:href="#DejaVuSans-39" x="1737.695312"/>
     </g>
    </g>
    <g id="line2d_33">
     <path d="M 163.41375 69.526687 
L 173.41375 69.526687 
L 183.41375 69.526687 
" style="fill: none; stroke: #ff7f0e; stroke-width: 1.5; stroke-linecap: square"/>
    </g>
    <g id="text_18">
     <!-- RuleBasedCERebuyAgentCompetitive -->
     <g transform="translate(191.41375 73.026687)scale(0.1 -0.1)">
      <defs>
       <path id="DejaVuSans-52" d="M 2841 2188 
Q 3044 2119 3236 1894 
Q 3428 1669 3622 1275 
L 4263 0 
L 3584 0 
L 2988 1197 
Q 2756 1666 2539 1819 
Q 2322 1972 1947 1972 
L 1259 1972 
L 1259 0 
L 628 0 
L 628 4666 
L 2053 4666 
Q 2853 4666 3247 4331 
Q 3641 3997 3641 3322 
Q 3641 2881 3436 2590 
Q 3231 2300 2841 2188 
z
M 1259 4147 
L 1259 2491 
L 2053 2491 
Q 2509 2491 2742 2702 
Q 2975 2913 2975 3322 
Q 2975 3731 2742 3939 
Q 2509 4147 2053 4147 
L 1259 4147 
z
" transform="scale(0.015625)"/>
       <path id="DejaVuSans-43" d="M 4122 4306 
L 4122 3641 
Q 3803 3938 3442 4084 
Q 3081 4231 2675 4231 
Q 1875 4231 1450 3742 
Q 1025 3253 1025 2328 
Q 1025 1406 1450 917 
Q 1875 428 2675 428 
Q 3081 428 3442 575 
Q 3803 722 4122 1019 
L 4122 359 
Q 3791 134 3420 21 
Q 3050 -91 2638 -91 
Q 1578 -91 968 557 
Q 359 1206 359 2328 
Q 359 3453 968 4101 
Q 1578 4750 2638 4750 
Q 3056 4750 3426 4639 
Q 3797 4528 4122 4306 
z
" transform="scale(0.015625)"/>
       <path id="DejaVuSans-45" d="M 628 4666 
L 3578 4666 
L 3578 4134 
L 1259 4134 
L 1259 2753 
L 3481 2753 
L 3481 2222 
L 1259 2222 
L 1259 531 
L 3634 531 
L 3634 0 
L 628 0 
L 628 4666 
z
" transform="scale(0.015625)"/>
       <path id="DejaVuSans-41" d="M 2188 4044 
L 1331 1722 
L 3047 1722 
L 2188 4044 
z
M 1831 4666 
L 2547 4666 
L 4325 0 
L 3669 0 
L 3244 1197 
L 1141 1197 
L 716 0 
L 50 0 
L 1831 4666 
z
" transform="scale(0.015625)"/>
       <path id="DejaVuSans-67" d="M 2906 1791 
Q 2906 2416 2648 2759 
Q 2391 3103 1925 3103 
Q 1463 3103 1205 2759 
Q 947 2416 947 1791 
Q 947 1169 1205 825 
Q 1463 481 1925 481 
Q 2391 481 2648 825 
Q 2906 1169 2906 1791 
z
M 3481 434 
Q 3481 -459 3084 -895 
Q 2688 -1331 1869 -1331 
Q 1566 -1331 1297 -1286 
Q 1028 -1241 775 -1147 
L 775 -588 
Q 1028 -725 1275 -790 
Q 1522 -856 1778 -856 
Q 2344 -856 2625 -561 
Q 2906 -266 2906 331 
L 2906 616 
Q 2728 306 2450 153 
Q 2172 0 1784 0 
Q 1141 0 747 490 
Q 353 981 353 1791 
Q 353 2603 747 3093 
Q 1141 3584 1784 3584 
Q 2172 3584 2450 3431 
Q 2728 3278 2906 2969 
L 2906 3500 
L 3481 3500 
L 3481 434 
z
" transform="scale(0.015625)"/>
       <path id="DejaVuSans-6d" d="M 3328 2828 
Q 3544 3216 3844 3400 
Q 4144 3584 4550 3584 
Q 5097 3584 5394 3201 
Q 5691 2819 5691 2113 
L 5691 0 
L 5113 0 
L 5113 2094 
Q 5113 2597 4934 2840 
Q 4756 3084 4391 3084 
Q 3944 3084 3684 2787 
Q 3425 2491 3425 1978 
L 3425 0 
L 2847 0 
L 2847 2094 
Q 2847 2600 2669 2842 
Q 2491 3084 2119 3084 
Q 1678 3084 1418 2786 
Q 1159 2488 1159 1978 
L 1159 0 
L 581 0 
L 581 3500 
L 1159 3500 
L 1159 2956 
Q 1356 3278 1631 3431 
Q 1906 3584 2284 3584 
Q 2666 3584 2933 3390 
Q 3200 3197 3328 2828 
z
" transform="scale(0.015625)"/>
       <path id="DejaVuSans-76" d="M 191 3500 
L 800 3500 
L 1894 563 
L 2988 3500 
L 3597 3500 
L 2284 0 
L 1503 0 
L 191 3500 
z
" transform="scale(0.015625)"/>
      </defs>
      <use xlink:href="#DejaVuSans-52"/>
      <use xlink:href="#DejaVuSans-75" x="64.982422"/>
      <use xlink:href="#DejaVuSans-6c" x="128.361328"/>
      <use xlink:href="#DejaVuSans-65" x="156.144531"/>
      <use xlink:href="#DejaVuSans-42" x="217.667969"/>
      <use xlink:href="#DejaVuSans-61" x="286.271484"/>
      <use xlink:href="#DejaVuSans-73" x="347.550781"/>
      <use xlink:href="#DejaVuSans-65" x="399.650391"/>
      <use xlink:href="#DejaVuSans-64" x="461.173828"/>
      <use xlink:href="#DejaVuSans-43" x="524.650391"/>
      <use xlink:href="#DejaVuSans-45" x="594.474609"/>
      <use xlink:href="#DejaVuSans-52" x="657.658203"/>
      <use xlink:href="#DejaVuSans-65" x="722.640625"/>
      <use xlink:href="#DejaVuSans-62" x="784.164062"/>
      <use xlink:href="#DejaVuSans-75" x="847.640625"/>
      <use xlink:href="#DejaVuSans-79" x="911.019531"/>
      <use xlink:href="#DejaVuSans-41" x="970.199219"/>
      <use xlink:href="#DejaVuSans-67" x="1038.607422"/>
      <use xlink:href="#DejaVuSans-65" x="1102.083984"/>
      <use xlink:href="#DejaVuSans-6e" x="1163.607422"/>
      <use xlink:href="#DejaVuSans-74" x="1226.986328"/>
      <use xlink:href="#DejaVuSans-43" x="1266.195312"/>
      <use xlink:href="#DejaVuSans-6f" x="1336.019531"/>
      <use xlink:href="#DejaVuSans-6d" x="1397.201172"/>
      <use xlink:href="#DejaVuSans-70" x="1494.613281"/>
      <use xlink:href="#DejaVuSans-65" x="1558.089844"/>
      <use xlink:href="#DejaVuSans-74" x="1619.613281"/>
      <use xlink:href="#DejaVuSans-69" x="1658.822266"/>
      <use xlink:href="#DejaVuSans-74" x="1686.605469"/>
      <use xlink:href="#DejaVuSans-69" x="1725.814453"/>
      <use xlink:href="#DejaVuSans-76" x="1753.597656"/>
      <use xlink:href="#DejaVuSans-65" x="1812.777344"/>
     </g>
    </g>
    <g id="line2d_34">
     <path d="M 163.41375 84.204812 
L 173.41375 84.204812 
L 183.41375 84.204812 
" style="fill: none; stroke: #2ca02c; stroke-width: 1.5; stroke-linecap: square"/>
    </g>
    <g id="text_19">
     <!-- RuleBasedCERebuyAgent -->
     <g transform="translate(191.41375 87.704812)scale(0.1 -0.1)">
      <use xlink:href="#DejaVuSans-52"/>
      <use xlink:href="#DejaVuSans-75" x="64.982422"/>
      <use xlink:href="#DejaVuSans-6c" x="128.361328"/>
      <use xlink:href="#DejaVuSans-65" x="156.144531"/>
      <use xlink:href="#DejaVuSans-42" x="217.667969"/>
      <use xlink:href="#DejaVuSans-61" x="286.271484"/>
      <use xlink:href="#DejaVuSans-73" x="347.550781"/>
      <use xlink:href="#DejaVuSans-65" x="399.650391"/>
      <use xlink:href="#DejaVuSans-64" x="461.173828"/>
      <use xlink:href="#DejaVuSans-43" x="524.650391"/>
      <use xlink:href="#DejaVuSans-45" x="594.474609"/>
      <use xlink:href="#DejaVuSans-52" x="657.658203"/>
      <use xlink:href="#DejaVuSans-65" x="722.640625"/>
      <use xlink:href="#DejaVuSans-62" x="784.164062"/>
      <use xlink:href="#DejaVuSans-75" x="847.640625"/>
      <use xlink:href="#DejaVuSans-79" x="911.019531"/>
      <use xlink:href="#DejaVuSans-41" x="970.199219"/>
      <use xlink:href="#DejaVuSans-67" x="1038.607422"/>
      <use xlink:href="#DejaVuSans-65" x="1102.083984"/>
      <use xlink:href="#DejaVuSans-6e" x="1163.607422"/>
      <use xlink:href="#DejaVuSans-74" x="1226.986328"/>
     </g>
    </g>
    <g id="line2d_35">
     <path d="M 163.41375 98.882937 
L 173.41375 98.882937 
L 183.41375 98.882937 
" style="fill: none; stroke: #d62728; stroke-width: 1.5; stroke-linecap: square"/>
    </g>
    <g id="text_20">
     <!-- FixedPriceCERebuyAgent -->
     <g transform="translate(191.41375 102.382937)scale(0.1 -0.1)">
      <defs>
       <path id="DejaVuSans-46" d="M 628 4666 
L 3309 4666 
L 3309 4134 
L 1259 4134 
L 1259 2759 
L 3109 2759 
L 3109 2228 
L 1259 2228 
L 1259 0 
L 628 0 
L 628 4666 
z
" transform="scale(0.015625)"/>
       <path id="DejaVuSans-78" d="M 3513 3500 
L 2247 1797 
L 3578 0 
L 2900 0 
L 1881 1375 
L 863 0 
L 184 0 
L 1544 1831 
L 300 3500 
L 978 3500 
L 1906 2253 
L 2834 3500 
L 3513 3500 
z
" transform="scale(0.015625)"/>
      </defs>
      <use xlink:href="#DejaVuSans-46"/>
      <use xlink:href="#DejaVuSans-69" x="50.269531"/>
      <use xlink:href="#DejaVuSans-78" x="78.052734"/>
      <use xlink:href="#DejaVuSans-65" x="134.107422"/>
      <use xlink:href="#DejaVuSans-64" x="195.630859"/>
      <use xlink:href="#DejaVuSans-50" x="259.107422"/>
      <use xlink:href="#DejaVuSans-72" x="317.660156"/>
      <use xlink:href="#DejaVuSans-69" x="358.773438"/>
      <use xlink:href="#DejaVuSans-63" x="386.556641"/>
      <use xlink:href="#DejaVuSans-65" x="441.537109"/>
      <use xlink:href="#DejaVuSans-43" x="503.060547"/>
      <use xlink:href="#DejaVuSans-45" x="572.884766"/>
      <use xlink:href="#DejaVuSans-52" x="636.068359"/>
      <use xlink:href="#DejaVuSans-65" x="701.050781"/>
      <use xlink:href="#DejaVuSans-62" x="762.574219"/>
      <use xlink:href="#DejaVuSans-75" x="826.050781"/>
      <use xlink:href="#DejaVuSans-79" x="889.429688"/>
      <use xlink:href="#DejaVuSans-41" x="948.609375"/>
      <use xlink:href="#DejaVuSans-67" x="1017.017578"/>
      <use xlink:href="#DejaVuSans-65" x="1080.494141"/>
      <use xlink:href="#DejaVuSans-6e" x="1142.017578"/>
      <use xlink:href="#DejaVuSans-74" x="1205.396484"/>
     </g>
    </g>
    <g id="line2d_36">
     <path d="M 163.41375 113.561062 
L 173.41375 113.561062 
L 183.41375 113.561062 
" style="fill: none; stroke: #9467bd; stroke-width: 1.5; stroke-linecap: square"/>
    </g>
    <g id="text_21">
     <!-- RuleBasedCERebuyAgentStorageMinimizer -->
     <g transform="translate(191.41375 117.061062)scale(0.1 -0.1)">
      <defs>
       <path id="DejaVuSans-4d" d="M 628 4666 
L 1569 4666 
L 2759 1491 
L 3956 4666 
L 4897 4666 
L 4897 0 
L 4281 0 
L 4281 4097 
L 3078 897 
L 2444 897 
L 1241 4097 
L 1241 0 
L 628 0 
L 628 4666 
z
" transform="scale(0.015625)"/>
       <path id="DejaVuSans-7a" d="M 353 3500 
L 3084 3500 
L 3084 2975 
L 922 459 
L 3084 459 
L 3084 0 
L 275 0 
L 275 525 
L 2438 3041 
L 353 3041 
L 353 3500 
z
" transform="scale(0.015625)"/>
      </defs>
      <use xlink:href="#DejaVuSans-52"/>
      <use xlink:href="#DejaVuSans-75" x="64.982422"/>
      <use xlink:href="#DejaVuSans-6c" x="128.361328"/>
      <use xlink:href="#DejaVuSans-65" x="156.144531"/>
      <use xlink:href="#DejaVuSans-42" x="217.667969"/>
      <use xlink:href="#DejaVuSans-61" x="286.271484"/>
      <use xlink:href="#DejaVuSans-73" x="347.550781"/>
      <use xlink:href="#DejaVuSans-65" x="399.650391"/>
      <use xlink:href="#DejaVuSans-64" x="461.173828"/>
      <use xlink:href="#DejaVuSans-43" x="524.650391"/>
      <use xlink:href="#DejaVuSans-45" x="594.474609"/>
      <use xlink:href="#DejaVuSans-52" x="657.658203"/>
      <use xlink:href="#DejaVuSans-65" x="722.640625"/>
      <use xlink:href="#DejaVuSans-62" x="784.164062"/>
      <use xlink:href="#DejaVuSans-75" x="847.640625"/>
      <use xlink:href="#DejaVuSans-79" x="911.019531"/>
      <use xlink:href="#DejaVuSans-41" x="970.199219"/>
      <use xlink:href="#DejaVuSans-67" x="1038.607422"/>
      <use xlink:href="#DejaVuSans-65" x="1102.083984"/>
      <use xlink:href="#DejaVuSans-6e" x="1163.607422"/>
      <use xlink:href="#DejaVuSans-74" x="1226.986328"/>
      <use xlink:href="#DejaVuSans-53" x="1266.195312"/>
      <use xlink:href="#DejaVuSans-74" x="1329.671875"/>
      <use xlink:href="#DejaVuSans-6f" x="1368.880859"/>
      <use xlink:href="#DejaVuSans-72" x="1430.0625"/>
      <use xlink:href="#DejaVuSans-61" x="1471.175781"/>
      <use xlink:href="#DejaVuSans-67" x="1532.455078"/>
      <use xlink:href="#DejaVuSans-65" x="1595.931641"/>
      <use xlink:href="#DejaVuSans-4d" x="1657.455078"/>
      <use xlink:href="#DejaVuSans-69" x="1743.734375"/>
      <use xlink:href="#DejaVuSans-6e" x="1771.517578"/>
      <use xlink:href="#DejaVuSans-69" x="1834.896484"/>
      <use xlink:href="#DejaVuSans-6d" x="1862.679688"/>
      <use xlink:href="#DejaVuSans-69" x="1960.091797"/>
      <use xlink:href="#DejaVuSans-7a" x="1987.875"/>
      <use xlink:href="#DejaVuSans-65" x="2040.365234"/>
      <use xlink:href="#DejaVuSans-72" x="2101.888672"/>
     </g>
    </g>
   </g>
  </g>
 </g>
 <defs>
  <clipPath id="p0b8404305d">
   <rect x="57.6" y="41.472" width="357.12" height="266.112"/>
  </clipPath>
 </defs>
</svg>
