<?xml version="1.0" encoding="utf-8" standalone="no"?>
<!DOCTYPE svg PUBLIC "-//W3C//DTD SVG 1.1//EN"
  "http://www.w3.org/Graphics/SVG/1.1/DTD/svg11.dtd">
<svg xmlns:xlink="http://www.w3.org/1999/xlink" width="460.8pt" height="345.6pt" viewBox="0 0 460.8 345.6" xmlns="http://www.w3.org/2000/svg" version="1.1">
 <metadata>
  <rdf:RDF xmlns:dc="http://purl.org/dc/elements/1.1/" xmlns:cc="http://creativecommons.org/ns#" xmlns:rdf="http://www.w3.org/1999/02/22-rdf-syntax-ns#">
   <cc:Work>
    <dc:type rdf:resource="http://purl.org/dc/dcmitype/StillImage"/>
    <dc:date>2022-06-16T11:35:08.853152</dc:date>
    <dc:format>image/svg+xml</dc:format>
    <dc:creator>
     <cc:Agent>
      <dc:title>Matplotlib v3.5.2, https://matplotlib.org/</dc:title>
     </cc:Agent>
    </dc:creator>
   </cc:Work>
  </rdf:RDF>
 </metadata>
 <defs>
  <style type="text/css">*{stroke-linejoin: round; stroke-linecap: butt}</style>
 </defs>
 <g id="figure_1">
  <g id="patch_1">
   <path d="M 0 345.6 
L 460.8 345.6 
L 460.8 0 
L 0 0 
z
" style="fill: #ffffff"/>
  </g>
  <g id="axes_1">
   <g id="patch_2">
    <path d="M 57.6 307.584 
L 414.72 307.584 
L 414.72 41.472 
L 57.6 41.472 
z
" style="fill: #ffffff"/>
   </g>
   <g id="matplotlib.axis_1">
    <g id="xtick_1">
     <g id="line2d_1">
      <defs>
       <path id="ma63a7f17ec" d="M 0 0 
L 0 3.5 
" style="stroke: #000000; stroke-width: 0.8"/>
      </defs>
      <g>
       <use xlink:href="#ma63a7f17ec" x="71.378182" y="307.584" style="stroke: #000000; stroke-width: 0.8"/>
      </g>
     </g>
     <g id="text_1">
      <!-- 0 -->
      <g transform="translate(68.196932 322.182437)scale(0.1 -0.1)">
       <defs>
        <path id="DejaVuSans-30" d="M 2034 4250 
Q 1547 4250 1301 3770 
Q 1056 3291 1056 2328 
Q 1056 1369 1301 889 
Q 1547 409 2034 409 
Q 2525 409 2770 889 
Q 3016 1369 3016 2328 
Q 3016 3291 2770 3770 
Q 2525 4250 2034 4250 
z
M 2034 4750 
Q 2819 4750 3233 4129 
Q 3647 3509 3647 2328 
Q 3647 1150 3233 529 
Q 2819 -91 2034 -91 
Q 1250 -91 836 529 
Q 422 1150 422 2328 
Q 422 3509 836 4129 
Q 1250 4750 2034 4750 
z
" transform="scale(0.015625)"/>
       </defs>
       <use xlink:href="#DejaVuSans-30"/>
      </g>
     </g>
    </g>
    <g id="xtick_2">
     <g id="line2d_2">
      <g>
       <use xlink:href="#ma63a7f17ec" x="112.287273" y="307.584" style="stroke: #000000; stroke-width: 0.8"/>
      </g>
     </g>
     <g id="text_2">
      <!-- 250 -->
      <g transform="translate(102.743523 322.182437)scale(0.1 -0.1)">
       <defs>
        <path id="DejaVuSans-32" d="M 1228 531 
L 3431 531 
L 3431 0 
L 469 0 
L 469 531 
Q 828 903 1448 1529 
Q 2069 2156 2228 2338 
Q 2531 2678 2651 2914 
Q 2772 3150 2772 3378 
Q 2772 3750 2511 3984 
Q 2250 4219 1831 4219 
Q 1534 4219 1204 4116 
Q 875 4013 500 3803 
L 500 4441 
Q 881 4594 1212 4672 
Q 1544 4750 1819 4750 
Q 2544 4750 2975 4387 
Q 3406 4025 3406 3419 
Q 3406 3131 3298 2873 
Q 3191 2616 2906 2266 
Q 2828 2175 2409 1742 
Q 1991 1309 1228 531 
z
" transform="scale(0.015625)"/>
        <path id="DejaVuSans-35" d="M 691 4666 
L 3169 4666 
L 3169 4134 
L 1269 4134 
L 1269 2991 
Q 1406 3038 1543 3061 
Q 1681 3084 1819 3084 
Q 2600 3084 3056 2656 
Q 3513 2228 3513 1497 
Q 3513 744 3044 326 
Q 2575 -91 1722 -91 
Q 1428 -91 1123 -41 
Q 819 9 494 109 
L 494 744 
Q 775 591 1075 516 
Q 1375 441 1709 441 
Q 2250 441 2565 725 
Q 2881 1009 2881 1497 
Q 2881 1984 2565 2268 
Q 2250 2553 1709 2553 
Q 1456 2553 1204 2497 
Q 953 2441 691 2322 
L 691 4666 
z
" transform="scale(0.015625)"/>
       </defs>
       <use xlink:href="#DejaVuSans-32"/>
       <use xlink:href="#DejaVuSans-35" x="63.623047"/>
       <use xlink:href="#DejaVuSans-30" x="127.246094"/>
      </g>
     </g>
    </g>
    <g id="xtick_3">
     <g id="line2d_3">
      <g>
       <use xlink:href="#ma63a7f17ec" x="153.196364" y="307.584" style="stroke: #000000; stroke-width: 0.8"/>
      </g>
     </g>
     <g id="text_3">
      <!-- 500 -->
      <g transform="translate(143.652614 322.182437)scale(0.1 -0.1)">
       <use xlink:href="#DejaVuSans-35"/>
       <use xlink:href="#DejaVuSans-30" x="63.623047"/>
       <use xlink:href="#DejaVuSans-30" x="127.246094"/>
      </g>
     </g>
    </g>
    <g id="xtick_4">
     <g id="line2d_4">
      <g>
       <use xlink:href="#ma63a7f17ec" x="194.105455" y="307.584" style="stroke: #000000; stroke-width: 0.8"/>
      </g>
     </g>
     <g id="text_4">
      <!-- 750 -->
      <g transform="translate(184.561705 322.182437)scale(0.1 -0.1)">
       <defs>
        <path id="DejaVuSans-37" d="M 525 4666 
L 3525 4666 
L 3525 4397 
L 1831 0 
L 1172 0 
L 2766 4134 
L 525 4134 
L 525 4666 
z
" transform="scale(0.015625)"/>
       </defs>
       <use xlink:href="#DejaVuSans-37"/>
       <use xlink:href="#DejaVuSans-35" x="63.623047"/>
       <use xlink:href="#DejaVuSans-30" x="127.246094"/>
      </g>
     </g>
    </g>
    <g id="xtick_5">
     <g id="line2d_5">
      <g>
       <use xlink:href="#ma63a7f17ec" x="235.014545" y="307.584" style="stroke: #000000; stroke-width: 0.8"/>
      </g>
     </g>
     <g id="text_5">
      <!-- 1000 -->
      <g transform="translate(222.289545 322.182437)scale(0.1 -0.1)">
       <defs>
        <path id="DejaVuSans-31" d="M 794 531 
L 1825 531 
L 1825 4091 
L 703 3866 
L 703 4441 
L 1819 4666 
L 2450 4666 
L 2450 531 
L 3481 531 
L 3481 0 
L 794 0 
L 794 531 
z
" transform="scale(0.015625)"/>
       </defs>
       <use xlink:href="#DejaVuSans-31"/>
       <use xlink:href="#DejaVuSans-30" x="63.623047"/>
       <use xlink:href="#DejaVuSans-30" x="127.246094"/>
       <use xlink:href="#DejaVuSans-30" x="190.869141"/>
      </g>
     </g>
    </g>
    <g id="xtick_6">
     <g id="line2d_6">
      <g>
       <use xlink:href="#ma63a7f17ec" x="275.923636" y="307.584" style="stroke: #000000; stroke-width: 0.8"/>
      </g>
     </g>
     <g id="text_6">
      <!-- 1250 -->
      <g transform="translate(263.198636 322.182437)scale(0.1 -0.1)">
       <use xlink:href="#DejaVuSans-31"/>
       <use xlink:href="#DejaVuSans-32" x="63.623047"/>
       <use xlink:href="#DejaVuSans-35" x="127.246094"/>
       <use xlink:href="#DejaVuSans-30" x="190.869141"/>
      </g>
     </g>
    </g>
    <g id="xtick_7">
     <g id="line2d_7">
      <g>
       <use xlink:href="#ma63a7f17ec" x="316.832727" y="307.584" style="stroke: #000000; stroke-width: 0.8"/>
      </g>
     </g>
     <g id="text_7">
      <!-- 1500 -->
      <g transform="translate(304.107727 322.182437)scale(0.1 -0.1)">
       <use xlink:href="#DejaVuSans-31"/>
       <use xlink:href="#DejaVuSans-35" x="63.623047"/>
       <use xlink:href="#DejaVuSans-30" x="127.246094"/>
       <use xlink:href="#DejaVuSans-30" x="190.869141"/>
      </g>
     </g>
    </g>
    <g id="xtick_8">
     <g id="line2d_8">
      <g>
       <use xlink:href="#ma63a7f17ec" x="357.741818" y="307.584" style="stroke: #000000; stroke-width: 0.8"/>
      </g>
     </g>
     <g id="text_8">
      <!-- 1750 -->
      <g transform="translate(345.016818 322.182437)scale(0.1 -0.1)">
       <use xlink:href="#DejaVuSans-31"/>
       <use xlink:href="#DejaVuSans-37" x="63.623047"/>
       <use xlink:href="#DejaVuSans-35" x="127.246094"/>
       <use xlink:href="#DejaVuSans-30" x="190.869141"/>
      </g>
     </g>
    </g>
    <g id="xtick_9">
     <g id="line2d_9">
      <g>
       <use xlink:href="#ma63a7f17ec" x="398.650909" y="307.584" style="stroke: #000000; stroke-width: 0.8"/>
      </g>
     </g>
     <g id="text_9">
      <!-- 2000 -->
      <g transform="translate(385.925909 322.182437)scale(0.1 -0.1)">
       <use xlink:href="#DejaVuSans-32"/>
       <use xlink:href="#DejaVuSans-30" x="63.623047"/>
       <use xlink:href="#DejaVuSans-30" x="127.246094"/>
       <use xlink:href="#DejaVuSans-30" x="190.869141"/>
      </g>
     </g>
    </g>
    <g id="text_10">
     <!-- Episode -->
     <g transform="translate(216.5225 335.860562)scale(0.1 -0.1)">
      <defs>
       <path id="DejaVuSans-45" d="M 628 4666 
L 3578 4666 
L 3578 4134 
L 1259 4134 
L 1259 2753 
L 3481 2753 
L 3481 2222 
L 1259 2222 
L 1259 531 
L 3634 531 
L 3634 0 
L 628 0 
L 628 4666 
z
" transform="scale(0.015625)"/>
       <path id="DejaVuSans-70" d="M 1159 525 
L 1159 -1331 
L 581 -1331 
L 581 3500 
L 1159 3500 
L 1159 2969 
Q 1341 3281 1617 3432 
Q 1894 3584 2278 3584 
Q 2916 3584 3314 3078 
Q 3713 2572 3713 1747 
Q 3713 922 3314 415 
Q 2916 -91 2278 -91 
Q 1894 -91 1617 61 
Q 1341 213 1159 525 
z
M 3116 1747 
Q 3116 2381 2855 2742 
Q 2594 3103 2138 3103 
Q 1681 3103 1420 2742 
Q 1159 2381 1159 1747 
Q 1159 1113 1420 752 
Q 1681 391 2138 391 
Q 2594 391 2855 752 
Q 3116 1113 3116 1747 
z
" transform="scale(0.015625)"/>
       <path id="DejaVuSans-69" d="M 603 3500 
L 1178 3500 
L 1178 0 
L 603 0 
L 603 3500 
z
M 603 4863 
L 1178 4863 
L 1178 4134 
L 603 4134 
L 603 4863 
z
" transform="scale(0.015625)"/>
       <path id="DejaVuSans-73" d="M 2834 3397 
L 2834 2853 
Q 2591 2978 2328 3040 
Q 2066 3103 1784 3103 
Q 1356 3103 1142 2972 
Q 928 2841 928 2578 
Q 928 2378 1081 2264 
Q 1234 2150 1697 2047 
L 1894 2003 
Q 2506 1872 2764 1633 
Q 3022 1394 3022 966 
Q 3022 478 2636 193 
Q 2250 -91 1575 -91 
Q 1294 -91 989 -36 
Q 684 19 347 128 
L 347 722 
Q 666 556 975 473 
Q 1284 391 1588 391 
Q 1994 391 2212 530 
Q 2431 669 2431 922 
Q 2431 1156 2273 1281 
Q 2116 1406 1581 1522 
L 1381 1569 
Q 847 1681 609 1914 
Q 372 2147 372 2553 
Q 372 3047 722 3315 
Q 1072 3584 1716 3584 
Q 2034 3584 2315 3537 
Q 2597 3491 2834 3397 
z
" transform="scale(0.015625)"/>
       <path id="DejaVuSans-6f" d="M 1959 3097 
Q 1497 3097 1228 2736 
Q 959 2375 959 1747 
Q 959 1119 1226 758 
Q 1494 397 1959 397 
Q 2419 397 2687 759 
Q 2956 1122 2956 1747 
Q 2956 2369 2687 2733 
Q 2419 3097 1959 3097 
z
M 1959 3584 
Q 2709 3584 3137 3096 
Q 3566 2609 3566 1747 
Q 3566 888 3137 398 
Q 2709 -91 1959 -91 
Q 1206 -91 779 398 
Q 353 888 353 1747 
Q 353 2609 779 3096 
Q 1206 3584 1959 3584 
z
" transform="scale(0.015625)"/>
       <path id="DejaVuSans-64" d="M 2906 2969 
L 2906 4863 
L 3481 4863 
L 3481 0 
L 2906 0 
L 2906 525 
Q 2725 213 2448 61 
Q 2172 -91 1784 -91 
Q 1150 -91 751 415 
Q 353 922 353 1747 
Q 353 2572 751 3078 
Q 1150 3584 1784 3584 
Q 2172 3584 2448 3432 
Q 2725 3281 2906 2969 
z
M 947 1747 
Q 947 1113 1208 752 
Q 1469 391 1925 391 
Q 2381 391 2643 752 
Q 2906 1113 2906 1747 
Q 2906 2381 2643 2742 
Q 2381 3103 1925 3103 
Q 1469 3103 1208 2742 
Q 947 2381 947 1747 
z
" transform="scale(0.015625)"/>
       <path id="DejaVuSans-65" d="M 3597 1894 
L 3597 1613 
L 953 1613 
Q 991 1019 1311 708 
Q 1631 397 2203 397 
Q 2534 397 2845 478 
Q 3156 559 3463 722 
L 3463 178 
Q 3153 47 2828 -22 
Q 2503 -91 2169 -91 
Q 1331 -91 842 396 
Q 353 884 353 1716 
Q 353 2575 817 3079 
Q 1281 3584 2069 3584 
Q 2775 3584 3186 3129 
Q 3597 2675 3597 1894 
z
M 3022 2063 
Q 3016 2534 2758 2815 
Q 2500 3097 2075 3097 
Q 1594 3097 1305 2825 
Q 1016 2553 972 2059 
L 3022 2063 
z
" transform="scale(0.015625)"/>
      </defs>
      <use xlink:href="#DejaVuSans-45"/>
      <use xlink:href="#DejaVuSans-70" x="63.183594"/>
      <use xlink:href="#DejaVuSans-69" x="126.660156"/>
      <use xlink:href="#DejaVuSans-73" x="154.443359"/>
      <use xlink:href="#DejaVuSans-6f" x="206.542969"/>
      <use xlink:href="#DejaVuSans-64" x="267.724609"/>
      <use xlink:href="#DejaVuSans-65" x="331.201172"/>
     </g>
    </g>
   </g>
   <g id="matplotlib.axis_2">
    <g id="ytick_1">
     <g id="line2d_10">
      <defs>
       <path id="m5cc1559669" d="M 0 0 
L -3.5 0 
" style="stroke: #000000; stroke-width: 0.8"/>
      </defs>
      <g>
       <use xlink:href="#m5cc1559669" x="57.6" y="296.007249" style="stroke: #000000; stroke-width: 0.8"/>
      </g>
     </g>
     <g id="text_11">
      <!-- −800 -->
      <g transform="translate(23.132812 299.806467)scale(0.1 -0.1)">
       <defs>
        <path id="DejaVuSans-2212" d="M 678 2272 
L 4684 2272 
L 4684 1741 
L 678 1741 
L 678 2272 
z
" transform="scale(0.015625)"/>
        <path id="DejaVuSans-38" d="M 2034 2216 
Q 1584 2216 1326 1975 
Q 1069 1734 1069 1313 
Q 1069 891 1326 650 
Q 1584 409 2034 409 
Q 2484 409 2743 651 
Q 3003 894 3003 1313 
Q 3003 1734 2745 1975 
Q 2488 2216 2034 2216 
z
M 1403 2484 
Q 997 2584 770 2862 
Q 544 3141 544 3541 
Q 544 4100 942 4425 
Q 1341 4750 2034 4750 
Q 2731 4750 3128 4425 
Q 3525 4100 3525 3541 
Q 3525 3141 3298 2862 
Q 3072 2584 2669 2484 
Q 3125 2378 3379 2068 
Q 3634 1759 3634 1313 
Q 3634 634 3220 271 
Q 2806 -91 2034 -91 
Q 1263 -91 848 271 
Q 434 634 434 1313 
Q 434 1759 690 2068 
Q 947 2378 1403 2484 
z
M 1172 3481 
Q 1172 3119 1398 2916 
Q 1625 2713 2034 2713 
Q 2441 2713 2670 2916 
Q 2900 3119 2900 3481 
Q 2900 3844 2670 4047 
Q 2441 4250 2034 4250 
Q 1625 4250 1398 4047 
Q 1172 3844 1172 3481 
z
" transform="scale(0.015625)"/>
       </defs>
       <use xlink:href="#DejaVuSans-2212"/>
       <use xlink:href="#DejaVuSans-38" x="83.789062"/>
       <use xlink:href="#DejaVuSans-30" x="147.412109"/>
       <use xlink:href="#DejaVuSans-30" x="211.035156"/>
      </g>
     </g>
    </g>
    <g id="ytick_2">
     <g id="line2d_11">
      <g>
       <use xlink:href="#m5cc1559669" x="57.6" y="262.05123" style="stroke: #000000; stroke-width: 0.8"/>
      </g>
     </g>
     <g id="text_12">
      <!-- −600 -->
      <g transform="translate(23.132812 265.850449)scale(0.1 -0.1)">
       <defs>
        <path id="DejaVuSans-36" d="M 2113 2584 
Q 1688 2584 1439 2293 
Q 1191 2003 1191 1497 
Q 1191 994 1439 701 
Q 1688 409 2113 409 
Q 2538 409 2786 701 
Q 3034 994 3034 1497 
Q 3034 2003 2786 2293 
Q 2538 2584 2113 2584 
z
M 3366 4563 
L 3366 3988 
Q 3128 4100 2886 4159 
Q 2644 4219 2406 4219 
Q 1781 4219 1451 3797 
Q 1122 3375 1075 2522 
Q 1259 2794 1537 2939 
Q 1816 3084 2150 3084 
Q 2853 3084 3261 2657 
Q 3669 2231 3669 1497 
Q 3669 778 3244 343 
Q 2819 -91 2113 -91 
Q 1303 -91 875 529 
Q 447 1150 447 2328 
Q 447 3434 972 4092 
Q 1497 4750 2381 4750 
Q 2619 4750 2861 4703 
Q 3103 4656 3366 4563 
z
" transform="scale(0.015625)"/>
       </defs>
       <use xlink:href="#DejaVuSans-2212"/>
       <use xlink:href="#DejaVuSans-36" x="83.789062"/>
       <use xlink:href="#DejaVuSans-30" x="147.412109"/>
       <use xlink:href="#DejaVuSans-30" x="211.035156"/>
      </g>
     </g>
    </g>
    <g id="ytick_3">
     <g id="line2d_12">
      <g>
       <use xlink:href="#m5cc1559669" x="57.6" y="228.095211" style="stroke: #000000; stroke-width: 0.8"/>
      </g>
     </g>
     <g id="text_13">
      <!-- −400 -->
      <g transform="translate(23.132812 231.89443)scale(0.1 -0.1)">
       <defs>
        <path id="DejaVuSans-34" d="M 2419 4116 
L 825 1625 
L 2419 1625 
L 2419 4116 
z
M 2253 4666 
L 3047 4666 
L 3047 1625 
L 3713 1625 
L 3713 1100 
L 3047 1100 
L 3047 0 
L 2419 0 
L 2419 1100 
L 313 1100 
L 313 1709 
L 2253 4666 
z
" transform="scale(0.015625)"/>
       </defs>
       <use xlink:href="#DejaVuSans-2212"/>
       <use xlink:href="#DejaVuSans-34" x="83.789062"/>
       <use xlink:href="#DejaVuSans-30" x="147.412109"/>
       <use xlink:href="#DejaVuSans-30" x="211.035156"/>
      </g>
     </g>
    </g>
    <g id="ytick_4">
     <g id="line2d_13">
      <g>
       <use xlink:href="#m5cc1559669" x="57.6" y="194.139193" style="stroke: #000000; stroke-width: 0.8"/>
      </g>
     </g>
     <g id="text_14">
      <!-- −200 -->
      <g transform="translate(23.132812 197.938412)scale(0.1 -0.1)">
       <use xlink:href="#DejaVuSans-2212"/>
       <use xlink:href="#DejaVuSans-32" x="83.789062"/>
       <use xlink:href="#DejaVuSans-30" x="147.412109"/>
       <use xlink:href="#DejaVuSans-30" x="211.035156"/>
      </g>
     </g>
    </g>
    <g id="ytick_5">
     <g id="line2d_14">
      <g>
       <use xlink:href="#m5cc1559669" x="57.6" y="160.183174" style="stroke: #000000; stroke-width: 0.8"/>
      </g>
     </g>
     <g id="text_15">
      <!-- 0 -->
      <g transform="translate(44.2375 163.982393)scale(0.1 -0.1)">
       <use xlink:href="#DejaVuSans-30"/>
      </g>
     </g>
    </g>
    <g id="ytick_6">
     <g id="line2d_15">
      <g>
       <use xlink:href="#m5cc1559669" x="57.6" y="126.227156" style="stroke: #000000; stroke-width: 0.8"/>
      </g>
     </g>
     <g id="text_16">
      <!-- 200 -->
      <g transform="translate(31.5125 130.026375)scale(0.1 -0.1)">
       <use xlink:href="#DejaVuSans-32"/>
       <use xlink:href="#DejaVuSans-30" x="63.623047"/>
       <use xlink:href="#DejaVuSans-30" x="127.246094"/>
      </g>
     </g>
    </g>
    <g id="ytick_7">
     <g id="line2d_16">
      <g>
       <use xlink:href="#m5cc1559669" x="57.6" y="92.271137" style="stroke: #000000; stroke-width: 0.8"/>
      </g>
     </g>
     <g id="text_17">
      <!-- 400 -->
      <g transform="translate(31.5125 96.070356)scale(0.1 -0.1)">
       <use xlink:href="#DejaVuSans-34"/>
       <use xlink:href="#DejaVuSans-30" x="63.623047"/>
       <use xlink:href="#DejaVuSans-30" x="127.246094"/>
      </g>
     </g>
    </g>
    <g id="ytick_8">
     <g id="line2d_17">
      <g>
       <use xlink:href="#m5cc1559669" x="57.6" y="58.315119" style="stroke: #000000; stroke-width: 0.8"/>
      </g>
     </g>
     <g id="text_18">
      <!-- 600 -->
      <g transform="translate(31.5125 62.114337)scale(0.1 -0.1)">
       <use xlink:href="#DejaVuSans-36"/>
       <use xlink:href="#DejaVuSans-30" x="63.623047"/>
       <use xlink:href="#DejaVuSans-30" x="127.246094"/>
      </g>
     </g>
    </g>
    <g id="text_19">
     <!-- profits/by_selling_new -->
     <g transform="translate(16.775 229.762375)rotate(-90)scale(0.1 -0.1)">
      <defs>
       <path id="DejaVuSans-72" d="M 2631 2963 
Q 2534 3019 2420 3045 
Q 2306 3072 2169 3072 
Q 1681 3072 1420 2755 
Q 1159 2438 1159 1844 
L 1159 0 
L 581 0 
L 581 3500 
L 1159 3500 
L 1159 2956 
Q 1341 3275 1631 3429 
Q 1922 3584 2338 3584 
Q 2397 3584 2469 3576 
Q 2541 3569 2628 3553 
L 2631 2963 
z
" transform="scale(0.015625)"/>
       <path id="DejaVuSans-66" d="M 2375 4863 
L 2375 4384 
L 1825 4384 
Q 1516 4384 1395 4259 
Q 1275 4134 1275 3809 
L 1275 3500 
L 2222 3500 
L 2222 3053 
L 1275 3053 
L 1275 0 
L 697 0 
L 697 3053 
L 147 3053 
L 147 3500 
L 697 3500 
L 697 3744 
Q 697 4328 969 4595 
Q 1241 4863 1831 4863 
L 2375 4863 
z
" transform="scale(0.015625)"/>
       <path id="DejaVuSans-74" d="M 1172 4494 
L 1172 3500 
L 2356 3500 
L 2356 3053 
L 1172 3053 
L 1172 1153 
Q 1172 725 1289 603 
Q 1406 481 1766 481 
L 2356 481 
L 2356 0 
L 1766 0 
Q 1100 0 847 248 
Q 594 497 594 1153 
L 594 3053 
L 172 3053 
L 172 3500 
L 594 3500 
L 594 4494 
L 1172 4494 
z
" transform="scale(0.015625)"/>
       <path id="DejaVuSans-2f" d="M 1625 4666 
L 2156 4666 
L 531 -594 
L 0 -594 
L 1625 4666 
z
" transform="scale(0.015625)"/>
       <path id="DejaVuSans-62" d="M 3116 1747 
Q 3116 2381 2855 2742 
Q 2594 3103 2138 3103 
Q 1681 3103 1420 2742 
Q 1159 2381 1159 1747 
Q 1159 1113 1420 752 
Q 1681 391 2138 391 
Q 2594 391 2855 752 
Q 3116 1113 3116 1747 
z
M 1159 2969 
Q 1341 3281 1617 3432 
Q 1894 3584 2278 3584 
Q 2916 3584 3314 3078 
Q 3713 2572 3713 1747 
Q 3713 922 3314 415 
Q 2916 -91 2278 -91 
Q 1894 -91 1617 61 
Q 1341 213 1159 525 
L 1159 0 
L 581 0 
L 581 4863 
L 1159 4863 
L 1159 2969 
z
" transform="scale(0.015625)"/>
       <path id="DejaVuSans-79" d="M 2059 -325 
Q 1816 -950 1584 -1140 
Q 1353 -1331 966 -1331 
L 506 -1331 
L 506 -850 
L 844 -850 
Q 1081 -850 1212 -737 
Q 1344 -625 1503 -206 
L 1606 56 
L 191 3500 
L 800 3500 
L 1894 763 
L 2988 3500 
L 3597 3500 
L 2059 -325 
z
" transform="scale(0.015625)"/>
       <path id="DejaVuSans-5f" d="M 3263 -1063 
L 3263 -1509 
L -63 -1509 
L -63 -1063 
L 3263 -1063 
z
" transform="scale(0.015625)"/>
       <path id="DejaVuSans-6c" d="M 603 4863 
L 1178 4863 
L 1178 0 
L 603 0 
L 603 4863 
z
" transform="scale(0.015625)"/>
       <path id="DejaVuSans-6e" d="M 3513 2113 
L 3513 0 
L 2938 0 
L 2938 2094 
Q 2938 2591 2744 2837 
Q 2550 3084 2163 3084 
Q 1697 3084 1428 2787 
Q 1159 2491 1159 1978 
L 1159 0 
L 581 0 
L 581 3500 
L 1159 3500 
L 1159 2956 
Q 1366 3272 1645 3428 
Q 1925 3584 2291 3584 
Q 2894 3584 3203 3211 
Q 3513 2838 3513 2113 
z
" transform="scale(0.015625)"/>
       <path id="DejaVuSans-67" d="M 2906 1791 
Q 2906 2416 2648 2759 
Q 2391 3103 1925 3103 
Q 1463 3103 1205 2759 
Q 947 2416 947 1791 
Q 947 1169 1205 825 
Q 1463 481 1925 481 
Q 2391 481 2648 825 
Q 2906 1169 2906 1791 
z
M 3481 434 
Q 3481 -459 3084 -895 
Q 2688 -1331 1869 -1331 
Q 1566 -1331 1297 -1286 
Q 1028 -1241 775 -1147 
L 775 -588 
Q 1028 -725 1275 -790 
Q 1522 -856 1778 -856 
Q 2344 -856 2625 -561 
Q 2906 -266 2906 331 
L 2906 616 
Q 2728 306 2450 153 
Q 2172 0 1784 0 
Q 1141 0 747 490 
Q 353 981 353 1791 
Q 353 2603 747 3093 
Q 1141 3584 1784 3584 
Q 2172 3584 2450 3431 
Q 2728 3278 2906 2969 
L 2906 3500 
L 3481 3500 
L 3481 434 
z
" transform="scale(0.015625)"/>
       <path id="DejaVuSans-77" d="M 269 3500 
L 844 3500 
L 1563 769 
L 2278 3500 
L 2956 3500 
L 3675 769 
L 4391 3500 
L 4966 3500 
L 4050 0 
L 3372 0 
L 2619 2869 
L 1863 0 
L 1184 0 
L 269 3500 
z
" transform="scale(0.015625)"/>
      </defs>
      <use xlink:href="#DejaVuSans-70"/>
      <use xlink:href="#DejaVuSans-72" x="63.476562"/>
      <use xlink:href="#DejaVuSans-6f" x="102.339844"/>
      <use xlink:href="#DejaVuSans-66" x="163.521484"/>
      <use xlink:href="#DejaVuSans-69" x="198.726562"/>
      <use xlink:href="#DejaVuSans-74" x="226.509766"/>
      <use xlink:href="#DejaVuSans-73" x="265.71875"/>
      <use xlink:href="#DejaVuSans-2f" x="317.818359"/>
      <use xlink:href="#DejaVuSans-62" x="351.509766"/>
      <use xlink:href="#DejaVuSans-79" x="414.986328"/>
      <use xlink:href="#DejaVuSans-5f" x="474.166016"/>
      <use xlink:href="#DejaVuSans-73" x="524.166016"/>
      <use xlink:href="#DejaVuSans-65" x="576.265625"/>
      <use xlink:href="#DejaVuSans-6c" x="637.789062"/>
      <use xlink:href="#DejaVuSans-6c" x="665.572266"/>
      <use xlink:href="#DejaVuSans-69" x="693.355469"/>
      <use xlink:href="#DejaVuSans-6e" x="721.138672"/>
      <use xlink:href="#DejaVuSans-67" x="784.517578"/>
      <use xlink:href="#DejaVuSans-5f" x="847.994141"/>
      <use xlink:href="#DejaVuSans-6e" x="897.994141"/>
      <use xlink:href="#DejaVuSans-65" x="961.373047"/>
      <use xlink:href="#DejaVuSans-77" x="1022.896484"/>
     </g>
    </g>
   </g>
   <g id="line2d_18">
    <path d="M 73.832727 295.488 
L 74.650909 261.750635 
L 75.305455 244.887329 
L 76.123636 230.600533 
L 76.941818 220.442216 
L 77.76 212.849625 
L 78.741818 205.9617 
L 79.723636 200.60273 
L 80.869091 195.65373 
L 82.178182 191.336168 
L 83.323636 188.208755 
L 85.123636 184.304414 
L 86.923636 181.273129 
L 87.741818 180.131966 
L 87.905455 180.142697 
L 88.069091 179.741611 
L 88.723636 170.312644 
L 89.869091 159.848663 
L 90.36 157.97105 
L 90.523636 157.921616 
L 91.014545 158.154647 
L 91.669091 158.218804 
L 92.16 157.920966 
L 93.141818 157.912634 
L 93.469091 157.78854 
L 94.778182 157.457729 
L 95.105455 157.152416 
L 95.432727 156.990918 
L 95.76 156.976842 
L 96.087273 156.808417 
L 96.905455 156.652895 
L 97.887273 155.797067 
L 98.214545 155.737399 
L 99.032727 155.052654 
L 99.36 154.98813 
L 100.014545 154.57445 
L 100.341818 154.511475 
L 101.650909 154.083665 
L 101.978182 153.757914 
L 102.796364 153.570986 
L 102.96 153.656116 
L 105.087273 151.650367 
L 105.250909 151.675447 
L 105.905455 151.289581 
L 106.56 151.262361 
L 107.378182 150.458117 
L 107.541818 150.543554 
L 108.032727 150.095702 
L 108.36 150.154339 
L 108.687273 149.805516 
L 109.014545 149.64161 
L 109.341818 149.17684 
L 109.505455 149.146673 
L 109.669091 148.939237 
L 109.832727 148.922177 
L 110.16 148.465884 
L 110.487273 148.40532 
L 111.632727 147.523371 
L 111.796364 147.569537 
L 112.450909 147.040331 
L 112.778182 146.516306 
L 113.269091 146.122126 
L 113.596364 145.697532 
L 113.76 145.698334 
L 113.923636 145.951485 
L 114.250909 146.047642 
L 114.578182 145.622146 
L 116.869091 144.37508 
L 117.36 143.684265 
L 117.850909 143.412882 
L 118.178182 143.057892 
L 118.341818 143.196678 
L 118.669091 142.892097 
L 119.323636 141.82667 
L 119.650909 141.647099 
L 119.814545 141.614802 
L 119.978182 141.452557 
L 120.305455 140.835496 
L 120.796364 140.683456 
L 120.96 140.331292 
L 121.287273 140.528386 
L 121.778182 140.016364 
L 122.105455 139.59807 
L 122.76 139.134905 
L 123.578182 138.118338 
L 123.741818 138.035136 
L 123.905455 138.196473 
L 124.887273 136.450514 
L 125.050909 136.405691 
L 125.378182 136.104904 
L 125.705455 135.895357 
L 127.505455 134.571997 
L 127.832727 133.932071 
L 127.996364 133.947454 
L 128.323636 133.218679 
L 128.487273 133.268437 
L 128.814545 132.9505 
L 128.978182 132.942302 
L 129.141818 133.059255 
L 129.305455 132.601738 
L 129.632727 132.353709 
L 129.96 131.823179 
L 130.614545 130.67409 
L 130.941818 130.049199 
L 131.105455 129.947715 
L 131.596364 129.395364 
L 131.76 129.514812 
L 131.923636 129.428047 
L 132.250909 128.779824 
L 132.414545 128.789088 
L 132.578182 128.649139 
L 132.905455 127.981903 
L 133.069091 128.033784 
L 133.723636 126.821815 
L 133.887273 126.558482 
L 134.050909 126.557121 
L 134.378182 126.179774 
L 134.541818 126.408241 
L 134.705455 126.246216 
L 135.196364 125.237584 
L 135.687273 124.936116 
L 136.341818 124.113455 
L 136.832727 124.241109 
L 137.650909 123.515219 
L 137.814545 123.054505 
L 138.141818 122.993635 
L 138.305455 122.583563 
L 138.469091 122.706924 
L 139.287273 121.973238 
L 139.450909 122.150336 
L 139.614545 122.022912 
L 139.778182 121.729042 
L 139.941818 122.007671 
L 140.105455 122.04574 
L 140.76 121.110196 
L 141.087273 121.206381 
L 141.250909 121.13723 
L 141.578182 120.834151 
L 141.741818 121.107163 
L 141.905455 120.838508 
L 142.069091 120.842869 
L 144.196364 118.218028 
L 144.36 118.554862 
L 144.523636 118.391124 
L 144.850909 118.654456 
L 145.178182 118.033479 
L 145.341818 117.651837 
L 145.505455 117.654377 
L 145.669091 117.38275 
L 145.832727 117.412582 
L 146.16 117.021655 
L 146.814545 117.166124 
L 147.141818 117.026042 
L 147.469091 117.173875 
L 147.632727 117.082577 
L 147.796364 117.147492 
L 148.123636 116.94802 
L 148.287273 116.369753 
L 148.450909 116.255282 
L 148.614545 116.374584 
L 148.778182 116.34207 
L 149.105455 115.566583 
L 149.269091 115.755252 
L 149.76 115.633685 
L 149.923636 115.833651 
L 150.087273 116.25613 
L 150.905455 115.618374 
L 151.069091 115.228686 
L 151.396364 115.159007 
L 151.887273 115.395573 
L 152.050909 115.215265 
L 152.378182 115.218477 
L 152.869091 115.165783 
L 153.196364 114.993421 
L 153.523636 114.607714 
L 154.341818 114.87473 
L 154.669091 114.800814 
L 155.323636 114.592584 
L 155.487273 114.425829 
L 155.650909 114.454551 
L 155.814545 114.359408 
L 155.978182 114.014803 
L 156.141818 113.933313 
L 156.305455 114.310998 
L 157.123636 113.380698 
L 157.287273 113.536261 
L 157.450909 113.414912 
L 157.778182 113.366967 
L 158.105455 113.142236 
L 158.596364 112.582082 
L 158.923636 112.637426 
L 159.087273 113.026694 
L 159.250909 112.751399 
L 159.414545 112.767343 
L 159.741818 113.263242 
L 160.069091 113.254523 
L 160.232727 112.875647 
L 160.396364 112.962101 
L 160.56 112.906529 
L 160.723636 112.981244 
L 161.050909 112.746572 
L 161.214545 112.858152 
L 161.378182 112.625825 
L 161.541818 112.684652 
L 161.705455 112.58976 
L 162.523636 113.586176 
L 162.687273 113.940923 
L 163.178182 113.417193 
L 163.341818 113.462262 
L 163.505455 113.226732 
L 163.996364 113.185213 
L 164.16 113.281626 
L 164.650909 113.031999 
L 164.814545 113.291172 
L 165.141818 113.121308 
L 165.96 112.82708 
L 166.450909 112.941378 
L 166.614545 112.891826 
L 166.778182 113.018501 
L 167.105455 112.814422 
L 168.087273 112.55582 
L 168.414545 112.607227 
L 169.069091 112.819999 
L 169.232727 112.633404 
L 169.396364 112.940767 
L 169.723636 112.498215 
L 169.887273 112.612397 
L 170.050909 112.547473 
L 170.214545 112.05901 
L 170.705455 111.847612 
L 171.032727 111.807189 
L 171.196364 111.536753 
L 171.36 111.687229 
L 171.687273 111.673785 
L 172.178182 111.604034 
L 172.505455 111.231169 
L 172.832727 110.935993 
L 172.996364 110.838804 
L 173.323636 111.145781 
L 173.650909 111.877738 
L 173.814545 111.582057 
L 174.141818 111.769953 
L 174.305455 111.649932 
L 174.469091 111.824509 
L 174.96 111.506232 
L 175.123636 111.530099 
L 175.287273 111.850092 
L 175.450909 111.751942 
L 175.614545 111.492282 
L 175.778182 111.741675 
L 176.105455 111.286604 
L 176.432727 110.618184 
L 176.596364 110.566758 
L 176.76 110.888464 
L 176.923636 110.719304 
L 177.087273 110.9466 
L 177.250909 110.804927 
L 177.578182 110.380101 
L 177.741818 110.168313 
L 178.069091 110.290476 
L 178.232727 110.190215 
L 178.396364 110.289533 
L 179.050909 109.805939 
L 179.214545 109.518594 
L 179.541818 109.78019 
L 179.705455 109.928098 
L 179.869091 109.858962 
L 180.032727 110.099014 
L 180.196364 110.058584 
L 180.687273 109.342609 
L 180.850909 109.106383 
L 181.178182 109.4857 
L 181.341818 109.392822 
L 181.669091 109.717336 
L 181.832727 109.714932 
L 182.487273 110.282756 
L 182.650909 109.812242 
L 182.814545 109.873037 
L 182.978182 109.583947 
L 183.141818 109.556432 
L 183.632727 109.028325 
L 183.796364 108.874319 
L 184.123636 109.150209 
L 184.287273 109.23171 
L 185.105455 108.862549 
L 185.269091 108.955263 
L 185.923636 108.48379 
L 186.578182 108.863975 
L 186.741818 109.124227 
L 186.905455 108.950816 
L 187.069091 109.004998 
L 187.232727 108.831395 
L 187.396364 109.043671 
L 188.541818 108.880221 
L 188.869091 108.82503 
L 189.032727 109.00858 
L 189.196364 108.887695 
L 189.523636 108.50863 
L 189.850909 108.007847 
L 190.014545 107.728305 
L 190.178182 107.746165 
L 190.341818 108.061076 
L 190.505455 107.994796 
L 190.669091 107.805953 
L 191.16 108.062097 
L 191.323636 108.285312 
L 191.487273 108.122753 
L 191.650909 108.298567 
L 191.814545 107.880616 
L 191.978182 107.777537 
L 192.141818 107.974254 
L 192.305455 107.684963 
L 192.632727 107.765013 
L 192.96 108.279207 
L 193.287273 107.606698 
L 193.450909 107.900912 
L 193.614545 107.545012 
L 194.76 108.478971 
L 195.087273 108.347432 
L 195.250909 108.092723 
L 195.741818 108.06611 
L 195.905455 107.812148 
L 196.232727 108.005048 
L 196.56 107.52055 
L 197.378182 108.413212 
L 197.705455 108.088555 
L 198.196364 107.721234 
L 198.850909 106.991711 
L 199.014545 106.905844 
L 199.505455 107.516787 
L 199.669091 107.358033 
L 200.16 107.907918 
L 200.323636 107.973322 
L 200.487273 107.727196 
L 200.650909 107.789987 
L 200.814545 107.592476 
L 200.978182 107.616479 
L 201.305455 107.324338 
L 201.469091 107.406446 
L 201.796364 106.994048 
L 202.123636 106.908701 
L 202.450909 106.667259 
L 202.778182 106.779757 
L 202.941818 106.732333 
L 203.105455 106.461999 
L 203.432727 106.748584 
L 203.596364 106.537731 
L 203.76 106.774645 
L 203.923636 106.441987 
L 204.414545 106.288914 
L 204.741818 105.904656 
L 204.905455 105.920982 
L 205.069091 106.111832 
L 205.396364 105.903757 
L 205.56 105.978744 
L 205.723636 106.296177 
L 205.887273 106.290405 
L 206.214545 106.731938 
L 206.705455 106.534077 
L 207.032727 105.987026 
L 207.523636 105.699057 
L 207.850909 105.33998 
L 208.014545 105.422331 
L 208.178182 105.222296 
L 208.505455 105.262393 
L 208.669091 104.86267 
L 209.16 105.463572 
L 209.487273 105.262579 
L 209.814545 105.621487 
L 209.978182 105.51318 
L 210.141818 105.723563 
L 210.305455 105.51413 
L 210.469091 105.580658 
L 210.632727 105.397616 
L 210.796364 105.013891 
L 210.96 105.027145 
L 211.287273 104.482325 
L 212.105455 105.003052 
L 212.269091 104.882402 
L 212.432727 105.169645 
L 212.76 104.831627 
L 212.923636 105.197116 
L 213.087273 105.172428 
L 213.250909 104.81086 
L 213.578182 104.771341 
L 213.741818 105.018642 
L 213.905455 104.538938 
L 214.396364 104.953755 
L 214.723636 104.659631 
L 215.378182 105.262593 
L 215.541818 105.308039 
L 215.869091 104.770086 
L 216.032727 104.835895 
L 216.196364 105.047816 
L 216.36 104.893639 
L 216.523636 104.947917 
L 216.850909 104.790976 
L 217.014545 104.970755 
L 217.178182 104.469142 
L 217.505455 105.063796 
L 217.669091 105.257362 
L 217.996364 105.052656 
L 218.16 105.259868 
L 218.323636 104.981723 
L 218.487273 105.086023 
L 218.650909 105.349874 
L 218.978182 105.198758 
L 219.141818 105.031516 
L 219.305455 105.033401 
L 219.469091 104.920299 
L 219.632727 104.970776 
L 219.96 104.680717 
L 220.123636 104.801629 
L 220.287273 104.579566 
L 220.778182 105.187387 
L 220.941818 105.241955 
L 221.105455 105.499653 
L 221.432727 105.604351 
L 221.76 105.791026 
L 222.414545 105.663418 
L 222.578182 105.247513 
L 222.741818 105.137226 
L 223.232727 105.747117 
L 223.396364 105.758462 
L 223.56 105.980719 
L 223.723636 106.005238 
L 224.214545 106.335298 
L 224.705455 106.313421 
L 224.869091 106.507208 
L 225.196364 106.475269 
L 225.523636 105.823959 
L 225.687273 105.825947 
L 225.850909 106.051635 
L 226.014545 105.937373 
L 226.178182 106.017979 
L 226.669091 105.832793 
L 226.832727 105.873559 
L 226.996364 105.562011 
L 227.16 105.601906 
L 227.323636 105.861265 
L 227.487273 105.512437 
L 227.814545 106.085244 
L 228.305455 105.997735 
L 228.469091 105.754708 
L 229.123636 106.01855 
L 229.287273 105.754909 
L 229.614545 105.718605 
L 229.778182 106.030469 
L 229.941818 105.81119 
L 230.105455 105.90221 
L 230.269091 105.636624 
L 230.596364 105.984062 
L 230.76 105.66479 
L 231.250909 105.776396 
L 231.578182 105.649976 
L 232.069091 105.530153 
L 232.232727 105.737708 
L 232.56 105.448881 
L 232.723636 105.219088 
L 232.887273 105.358244 
L 233.541818 104.999734 
L 233.705455 105.165751 
L 234.196364 104.736436 
L 234.523636 104.854823 
L 234.687273 104.510266 
L 234.850909 104.694822 
L 235.178182 104.559966 
L 235.341818 104.89266 
L 235.505455 104.930655 
L 236.16 105.575926 
L 237.305455 105.610026 
L 237.469091 105.400321 
L 237.632727 105.382006 
L 237.96 105.467187 
L 238.287273 105.348366 
L 238.450909 105.459146 
L 238.614545 105.302603 
L 239.105455 105.579528 
L 239.269091 105.442179 
L 239.432727 105.533603 
L 239.76 105.295395 
L 239.923636 105.35442 
L 240.578182 104.858819 
L 240.905455 105.209622 
L 241.069091 105.023751 
L 241.232727 105.156768 
L 241.396364 105.136441 
L 242.050909 106.05529 
L 242.705455 105.362071 
L 243.523636 105.544227 
L 243.687273 105.609175 
L 243.850909 105.55087 
L 244.014545 105.911439 
L 244.178182 105.842339 
L 244.341818 105.908554 
L 244.505455 105.748169 
L 244.669091 105.910049 
L 244.832727 105.579218 
L 244.996364 105.775802 
L 245.16 105.648797 
L 245.323636 105.676148 
L 245.650909 105.375549 
L 245.814545 105.713761 
L 245.978182 105.436889 
L 246.141818 105.610002 
L 246.305455 105.466098 
L 246.632727 105.63247 
L 246.96 105.571902 
L 247.123636 105.435543 
L 247.450909 105.472179 
L 247.614545 105.393665 
L 247.778182 105.660314 
L 248.105455 105.4041 
L 248.269091 105.5384 
L 248.923636 105.076713 
L 249.087273 105.341564 
L 249.250909 105.334675 
L 249.414545 104.983373 
L 249.741818 104.972227 
L 250.232727 105.545692 
L 250.396364 105.439871 
L 250.56 105.637375 
L 251.214545 105.629709 
L 251.378182 105.740578 
L 252.196364 105.308124 
L 252.36 105.051011 
L 252.523636 105.02492 
L 252.687273 104.84844 
L 252.850909 104.893992 
L 253.178182 104.544018 
L 253.341818 104.648439 
L 253.669091 104.54919 
L 253.832727 104.390646 
L 253.996364 104.557794 
L 254.16 104.196535 
L 254.650909 104.065496 
L 254.814545 104.307427 
L 254.978182 104.155294 
L 255.632727 104.8115 
L 256.123636 104.240066 
L 256.450909 104.591715 
L 256.614545 104.616013 
L 257.105455 105.187876 
L 257.269091 104.857087 
L 257.596364 104.995542 
L 258.087273 104.148474 
L 258.250909 104.229761 
L 258.414545 104.131597 
L 258.741818 104.511671 
L 258.905455 104.507663 
L 259.069091 104.925056 
L 259.396364 105.000209 
L 259.56 104.692767 
L 259.723636 104.66623 
L 260.378182 105.423198 
L 260.541818 105.043397 
L 260.705455 105.02438 
L 261.196364 104.370519 
L 261.523636 104.751337 
L 261.850909 104.310648 
L 262.178182 104.711166 
L 262.341818 104.492987 
L 262.505455 104.517433 
L 262.832727 104.268381 
L 263.16 103.697439 
L 263.650909 104.066966 
L 263.978182 104.17025 
L 264.305455 104.235513 
L 264.632727 104.784214 
L 264.96 104.484977 
L 265.123636 104.405243 
L 265.450909 104.651062 
L 265.778182 104.433872 
L 265.941818 104.626119 
L 266.105455 104.507043 
L 266.269091 104.568958 
L 266.432727 104.422797 
L 266.596364 104.630281 
L 266.923636 104.474017 
L 267.087273 104.270778 
L 267.578182 104.723625 
L 268.069091 104.844031 
L 268.232727 104.64867 
L 268.56 104.766697 
L 268.887273 105.314072 
L 269.050909 105.130727 
L 269.869091 105.75806 
L 270.032727 105.764722 
L 270.196364 105.56528 
L 270.687273 105.707564 
L 271.178182 105.527689 
L 271.341818 105.168839 
L 271.669091 105.269114 
L 271.996364 105.013847 
L 272.16 104.694192 
L 272.323636 104.670459 
L 272.650909 104.389256 
L 272.814545 104.392235 
L 272.978182 104.510568 
L 273.632727 104.258923 
L 273.796364 104.553343 
L 273.96 104.382968 
L 274.123636 104.432718 
L 274.450909 104.877099 
L 274.614545 105.283715 
L 274.778182 105.149817 
L 274.941818 105.289406 
L 275.105455 105.282335 
L 275.432727 105.518816 
L 275.596364 105.201388 
L 275.76 105.24573 
L 275.923636 105.113772 
L 276.087273 105.47203 
L 276.414545 105.127927 
L 276.578182 105.230735 
L 276.905455 104.427107 
L 277.069091 104.513399 
L 277.232727 104.338182 
L 278.050909 104.711935 
L 278.214545 104.558235 
L 278.541818 105.12497 
L 278.705455 104.817047 
L 279.196364 105.295757 
L 279.523636 105.833771 
L 279.850909 106.220486 
L 280.014545 106.36085 
L 280.178182 106.025218 
L 280.341818 106.206024 
L 280.505455 105.787887 
L 280.669091 105.882759 
L 280.996364 105.566672 
L 281.323636 105.312666 
L 281.487273 105.21797 
L 281.650909 105.77604 
L 281.978182 105.611069 
L 282.469091 105.890951 
L 282.632727 105.839366 
L 282.796364 105.906734 
L 282.96 106.237782 
L 283.287273 105.667976 
L 283.450909 106.023398 
L 283.778182 106.001337 
L 283.941818 105.796428 
L 284.269091 106.209935 
L 284.432727 106.163896 
L 284.76 106.851742 
L 284.923636 106.84492 
L 285.414545 106.278855 
L 285.578182 106.494912 
L 285.741818 106.522516 
L 286.069091 106.225367 
L 286.232727 106.559974 
L 286.56 106.544198 
L 286.723636 106.7785 
L 286.887273 106.758118 
L 287.378182 107.123854 
L 287.541818 107.229791 
L 287.705455 107.019069 
L 287.869091 107.141695 
L 288.523636 106.254352 
L 289.178182 107.337559 
L 289.341818 107.109711 
L 289.505455 106.634367 
L 289.832727 106.769076 
L 289.996364 106.606745 
L 290.16 106.84008 
L 290.487273 106.674376 
L 290.650909 106.795885 
L 291.305455 106.239878 
L 291.796364 105.64004 
L 292.123636 105.83937 
L 292.450909 106.053356 
L 292.614545 106.023309 
L 292.941818 106.40506 
L 293.105455 106.137831 
L 293.596364 106.824295 
L 293.76 106.65135 
L 294.250909 106.772759 
L 294.578182 106.412205 
L 294.741818 106.877023 
L 295.069091 106.690905 
L 295.232727 106.898703 
L 295.56 106.890687 
L 295.723636 106.605906 
L 296.214545 106.731782 
L 296.705455 106.70398 
L 296.869091 106.736918 
L 297.032727 106.96625 
L 297.196364 106.886895 
L 297.36 107.0576 
L 297.687273 106.755604 
L 298.014545 107.006404 
L 298.669091 107.082617 
L 298.832727 106.915343 
L 299.323636 107.107631 
L 299.487273 106.842636 
L 299.814545 107.226376 
L 300.141818 106.840881 
L 300.305455 106.84171 
L 300.469091 106.720623 
L 300.632727 106.207972 
L 300.96 106.356203 
L 301.123636 106.239663 
L 301.287273 106.265758 
L 301.614545 105.974645 
L 301.778182 106.234524 
L 302.596364 105.769641 
L 302.76 105.359275 
L 302.923636 105.36362 
L 303.250909 105.034161 
L 303.414545 105.112075 
L 303.741818 104.742963 
L 303.905455 104.750617 
L 304.069091 104.444683 
L 304.232727 104.49019 
L 304.396364 104.803628 
L 304.56 104.796077 
L 304.887273 105.420769 
L 305.050909 105.437034 
L 305.378182 105.050674 
L 305.541818 105.08532 
L 305.705455 105.322331 
L 305.869091 105.356053 
L 306.032727 105.518077 
L 306.687273 105.092566 
L 306.850909 105.202801 
L 307.014545 104.99802 
L 307.341818 104.947134 
L 307.505455 105.160641 
L 307.669091 104.870163 
L 307.832727 105.249859 
L 308.16 105.336645 
L 308.323636 105.039269 
L 308.650909 105.323831 
L 308.814545 105.227456 
L 309.141818 105.36477 
L 309.469091 104.940457 
L 309.796364 104.983155 
L 309.96 105.297468 
L 310.123636 104.971175 
L 310.287273 105.269646 
L 310.450909 105.239611 
L 310.614545 105.431706 
L 310.778182 105.250918 
L 310.941818 105.544871 
L 311.432727 104.66598 
L 311.76 104.798378 
L 312.578182 104.370195 
L 313.069091 103.895256 
L 313.232727 103.840429 
L 313.396364 103.58593 
L 313.56 103.563537 
L 313.723636 103.703395 
L 313.887273 103.506893 
L 314.541818 104.226866 
L 314.705455 103.863612 
L 314.869091 104.019052 
L 315.032727 103.779102 
L 315.196364 103.869497 
L 315.36 104.147842 
L 315.687273 103.88313 
L 316.341818 104.144479 
L 316.832727 104.197831 
L 317.16 104.905562 
L 317.487273 104.276687 
L 317.650909 104.233825 
L 317.814545 103.99717 
L 318.141818 104.296982 
L 318.305455 103.922226 
L 318.469091 103.889403 
L 318.796364 104.202367 
L 319.123636 103.971998 
L 319.287273 104.125261 
L 319.450909 104.447773 
L 319.614545 104.296421 
L 319.778182 104.302482 
L 320.105455 103.706244 
L 320.269091 104.02602 
L 320.76 104.122013 
L 320.923636 103.963836 
L 321.087273 104.364446 
L 321.741818 104.094764 
L 321.905455 104.365991 
L 322.232727 104.271023 
L 322.56 104.585722 
L 323.050909 105.125857 
L 323.214545 104.766961 
L 323.541818 105.025045 
L 323.705455 104.883269 
L 323.869091 105.315394 
L 324.196364 105.014551 
L 324.36 105.007917 
L 324.523636 105.218275 
L 324.687273 105.243465 
L 324.850909 105.555076 
L 325.178182 105.124 
L 325.505455 105.334782 
L 325.669091 105.319095 
L 326.16 105.844444 
L 326.323636 105.501679 
L 326.978182 105.393825 
L 327.141818 105.454481 
L 327.305455 105.905749 
L 327.469091 105.831765 
L 327.96 106.237214 
L 328.123636 106.065969 
L 328.287273 106.098581 
L 328.614545 105.935586 
L 328.778182 106.220372 
L 329.105455 106.346034 
L 329.432727 106.236334 
L 329.76 106.501832 
L 329.923636 106.853244 
L 330.087273 106.631383 
L 330.250909 106.972684 
L 330.414545 106.949207 
L 330.578182 106.724672 
L 331.069091 106.553031 
L 331.396364 106.101894 
L 331.56 106.330723 
L 331.887273 105.915863 
L 332.541818 106.480965 
L 332.705455 106.297499 
L 332.869091 105.941207 
L 333.032727 106.192843 
L 333.196364 106.67353 
L 333.36 106.666489 
L 333.523636 106.848683 
L 333.687273 106.806288 
L 333.850909 106.904485 
L 334.341818 107.749166 
L 334.505455 107.581675 
L 334.996364 108.185603 
L 335.16 107.615474 
L 335.323636 107.541999 
L 335.487273 107.599027 
L 335.814545 108.449374 
L 335.978182 108.308424 
L 336.141818 108.65479 
L 336.305455 108.334816 
L 336.632727 108.668475 
L 336.796364 108.511847 
L 337.287273 109.248956 
L 337.614545 108.813985 
L 337.778182 108.635041 
L 337.941818 108.718362 
L 338.269091 109.179873 
L 338.432727 108.977525 
L 338.596364 109.139724 
L 338.76 109.109377 
L 339.414545 108.471409 
L 340.232727 109.162507 
L 340.396364 108.619518 
L 340.723636 109.187953 
L 341.214545 108.973747 
L 341.378182 109.155707 
L 341.541818 109.038518 
L 341.705455 109.429597 
L 341.869091 108.961345 
L 342.850909 109.439159 
L 343.014545 109.348663 
L 343.178182 109.76287 
L 343.341818 109.799171 
L 343.505455 110.201603 
L 343.832727 109.848058 
L 344.16 110.018126 
L 344.323636 110.030112 
L 344.650909 110.751532 
L 344.814545 110.507324 
L 345.305455 110.852637 
L 345.469091 110.722149 
L 345.632727 110.988086 
L 345.796364 111.039893 
L 346.287273 110.617175 
L 346.450909 110.4568 
L 346.614545 110.600072 
L 346.778182 110.163952 
L 347.105455 110.486546 
L 347.269091 110.536644 
L 347.432727 110.823313 
L 347.596364 110.831163 
L 347.76 111.152891 
L 347.923636 111.076175 
L 348.087273 111.416817 
L 348.250909 111.375356 
L 348.741818 111.927161 
L 349.069091 111.291796 
L 349.232727 111.426255 
L 349.396364 111.940854 
L 349.56 112.086591 
L 349.887273 111.554184 
L 350.869091 110.924522 
L 351.032727 111.197199 
L 351.36 111.002549 
L 351.850909 111.759493 
L 352.178182 112.111019 
L 352.669091 111.466191 
L 352.832727 111.673344 
L 352.996364 112.114188 
L 353.16 112.157338 
L 353.650909 111.73933 
L 354.632727 113.147536 
L 354.96 113.215024 
L 355.123636 112.766956 
L 355.614545 112.735316 
L 355.941818 113.253085 
L 356.105455 112.95842 
L 356.269091 112.912029 
L 356.596364 112.683226 
L 356.76 112.802766 
L 356.923636 113.253657 
L 357.087273 113.056331 
L 357.414545 113.43243 
L 357.578182 113.070903 
L 357.741818 113.360288 
L 358.069091 113.404918 
L 358.396364 113.641895 
L 358.56 113.517195 
L 358.723636 113.692315 
L 358.887273 113.548764 
L 359.214545 113.962966 
L 360.032727 113.788287 
L 360.523636 112.824198 
L 360.687273 112.846339 
L 360.850909 113.130855 
L 361.014545 112.899137 
L 361.178182 112.256279 
L 361.341818 112.55039 
L 361.505455 112.45578 
L 362.16 111.648543 
L 362.323636 111.715139 
L 362.650909 112.399514 
L 363.141818 112.975444 
L 363.305455 113.250183 
L 363.96 112.567109 
L 364.123636 112.87601 
L 364.287273 112.637024 
L 364.450909 112.941151 
L 364.614545 112.524128 
L 364.778182 113.10256 
L 364.941818 113.114293 
L 365.105455 113.458588 
L 365.269091 113.415847 
L 365.432727 113.231065 
L 365.596364 113.296617 
L 365.76 113.522938 
L 365.923636 113.302226 
L 366.414545 113.755919 
L 366.741818 113.459069 
L 366.905455 113.628171 
L 367.069091 113.995627 
L 367.232727 113.492197 
L 367.396364 113.69803 
L 367.56 113.461507 
L 367.723636 113.650469 
L 367.887273 113.65709 
L 368.378182 114.202379 
L 368.541818 114.26603 
L 368.705455 113.87485 
L 369.032727 114.518774 
L 369.196364 114.3447 
L 369.36 114.448507 
L 369.523636 114.215959 
L 369.850909 114.472788 
L 370.178182 113.784709 
L 370.341818 113.89142 
L 370.669091 113.826094 
L 370.996364 113.235152 
L 371.16 113.218629 
L 371.323636 112.857696 
L 371.487273 112.78091 
L 371.650909 113.329128 
L 371.978182 113.241517 
L 372.141818 113.442621 
L 372.305455 113.272993 
L 372.469091 113.310313 
L 372.796364 114.067029 
L 372.96 114.132201 
L 373.123636 113.737384 
L 373.287273 113.784465 
L 373.941818 112.694884 
L 374.105455 112.928069 
L 374.432727 112.429335 
L 374.596364 112.487679 
L 374.76 111.998116 
L 375.087273 112.628279 
L 375.250909 112.238419 
L 375.414545 112.36499 
L 375.578182 112.250847 
L 375.905455 112.728054 
L 376.069091 112.616352 
L 376.232727 112.863332 
L 376.56 112.312935 
L 376.887273 112.977755 
L 377.050909 113.239618 
L 377.214545 113.22537 
L 377.378182 112.994646 
L 377.705455 113.11723 
L 377.869091 112.931701 
L 378.032727 113.03046 
L 378.196364 113.459032 
L 378.523636 113.692448 
L 378.687273 114.061756 
L 378.850909 114.028139 
L 379.178182 113.166545 
L 379.341818 113.25451 
L 379.832727 112.610665 
L 379.996364 113.046045 
L 380.487273 113.370138 
L 380.650909 112.970689 
L 380.978182 113.645394 
L 381.141818 113.564562 
L 381.796364 112.302313 
L 382.123636 113.059654 
L 382.287273 112.523756 
L 382.450909 112.683211 
L 382.614545 112.527341 
L 382.778182 112.752929 
L 383.105455 112.305073 
L 383.269091 112.296792 
L 383.596364 111.765206 
L 383.76 111.936334 
L 384.087273 111.759723 
L 384.414545 111.077358 
L 384.741818 110.668786 
L 385.069091 110.121726 
L 385.232727 110.257145 
L 385.56 109.725646 
L 385.723636 109.854501 
L 385.887273 109.668067 
L 386.050909 109.719003 
L 386.214545 109.567703 
L 386.705455 110.118861 
L 386.869091 109.961758 
L 387.032727 110.25902 
L 387.196364 110.237882 
L 387.36 109.903658 
L 387.687273 109.708179 
L 387.850909 110.043513 
L 388.014545 109.952641 
L 388.178182 109.574536 
L 388.505455 110.118721 
L 388.669091 110.280229 
L 388.832727 110.11605 
L 388.996364 110.259366 
L 389.323636 109.794283 
L 389.487273 109.77541 
L 389.650909 110.241599 
L 389.978182 110.067958 
L 390.141818 110.251117 
L 390.305455 110.242677 
L 390.632727 110.88262 
L 390.96 111.386759 
L 391.123636 111.205608 
L 391.450909 111.705564 
L 391.778182 111.329983 
L 392.105455 111.11449 
L 392.269091 110.972757 
L 392.923636 111.281308 
L 393.087273 111.358885 
L 393.905455 110.930058 
L 394.069091 110.62709 
L 394.232727 110.731223 
L 394.396364 110.411063 
L 394.56 110.357869 
L 394.887273 109.823993 
L 395.050909 109.823696 
L 395.214545 109.549529 
L 395.541818 110.158504 
L 395.705455 110.182827 
L 396.032727 109.929145 
L 396.196364 110.093674 
L 396.523636 110.038445 
L 396.687273 110.327556 
L 397.014545 109.712721 
L 397.178182 109.86525 
L 397.505455 109.443726 
L 397.832727 109.280791 
L 397.996364 109.814671 
L 398.487273 109.04895 
L 398.487273 109.04895 
" clip-path="url(#p4aeda84e2f)" style="fill: none; stroke: #1f77b4; stroke-width: 1.5; stroke-linecap: square"/>
   </g>
   <g id="line2d_19">
    <path d="M 73.832727 129.771315 
L 73.996364 128.064776 
L 74.16 124.529355 
L 74.814545 120.740172 
L 75.141818 118.51631 
L 75.469091 117.940581 
L 75.632727 118.090288 
L 75.96 116.889251 
L 76.123636 116.826998 
L 76.287273 116.544214 
L 76.778182 116.489768 
L 76.941818 116.156771 
L 77.105455 116.427072 
L 77.269091 115.714556 
L 77.432727 115.544414 
L 77.596364 115.552777 
L 77.76 115.238139 
L 77.923636 115.195591 
L 78.087273 115.619942 
L 78.414545 114.990801 
L 78.741818 114.04728 
L 78.905455 114.107747 
L 79.069091 113.695263 
L 79.232727 113.96141 
L 79.396364 113.80944 
L 79.56 113.853183 
L 80.050909 113.449632 
L 80.378182 113.508808 
L 80.541818 113.160046 
L 81.032727 113.173896 
L 81.196364 113.031624 
L 81.36 113.039076 
L 81.523636 112.687867 
L 81.687273 112.61822 
L 81.850909 112.73878 
L 82.014545 112.451816 
L 82.178182 112.505377 
L 83.323636 111.49988 
L 83.487273 111.587584 
L 83.814545 111.529051 
L 84.141818 111.866769 
L 84.469091 111.357773 
L 85.287273 111.24505 
L 85.614545 111.498733 
L 85.941818 110.914878 
L 86.105455 111.017845 
L 86.269091 110.825149 
L 86.596364 110.132364 
L 86.923636 110.228919 
L 87.250909 110.349252 
L 87.414545 110.415313 
L 88.56 109.089452 
L 89.214545 107.663972 
L 89.378182 107.52445 
L 89.541818 106.909207 
L 89.705455 106.798262 
L 90.36 105.712341 
L 90.850909 106.188062 
L 91.014545 105.959447 
L 91.178182 106.263706 
L 91.669091 106.283878 
L 91.832727 105.838416 
L 91.996364 105.917422 
L 92.16 105.618206 
L 92.323636 105.766133 
L 92.650909 105.651826 
L 92.978182 105.808158 
L 93.632727 105.298818 
L 93.796364 105.483727 
L 94.123636 105.256793 
L 94.450909 105.621568 
L 94.614545 105.40472 
L 94.778182 105.429935 
L 95.432727 104.705428 
L 95.596364 104.959257 
L 96.414545 104.175916 
L 96.741818 104.226345 
L 97.232727 103.493433 
L 97.396364 103.041247 
L 97.56 102.950473 
L 97.723636 102.652938 
L 98.050909 102.844571 
L 98.214545 102.684877 
L 98.705455 101.545165 
L 98.869091 101.62249 
L 99.523636 101.114831 
L 99.687273 101.2325 
L 99.850909 101.091297 
L 100.014545 100.726522 
L 100.178182 100.671049 
L 100.669091 99.944861 
L 100.996364 100.501269 
L 101.323636 100.385281 
L 101.487273 100.065893 
L 101.650909 100.028911 
L 102.141818 98.912733 
L 102.305455 98.911052 
L 102.469091 99.151433 
L 102.632727 98.668989 
L 102.796364 98.626964 
L 102.96 98.744634 
L 103.614545 97.063643 
L 104.105455 96.051686 
L 104.269091 96.009661 
L 104.432727 96.107159 
L 104.76 95.591094 
L 105.087273 95.157399 
L 105.250909 95.288516 
L 105.414545 95.259939 
L 105.578182 94.700169 
L 106.069091 94.585862 
L 106.396364 93.935318 
L 107.214545 93.157019 
L 107.378182 92.708195 
L 107.541818 92.856122 
L 108.196364 92.126572 
L 108.36 92.363592 
L 108.523636 91.605465 
L 108.687273 91.422237 
L 108.850909 91.047376 
L 109.014545 91.239009 
L 109.341818 89.983308 
L 109.996364 89.040272 
L 110.16 88.574638 
L 110.487273 88.616663 
L 110.650909 88.541018 
L 111.305455 86.786064 
L 111.632727 86.844898 
L 111.796364 86.954163 
L 112.123636 86.670075 
L 112.778182 85.392522 
L 112.941818 85.35554 
L 113.432727 84.419228 
L 113.596364 84.109926 
L 113.923636 84.622628 
L 114.087273 84.427633 
L 114.250909 84.587327 
L 114.414545 84.067901 
L 114.741818 84.035962 
L 114.905455 83.809028 
L 115.069091 83.867863 
L 115.232727 83.740108 
L 115.396364 83.291283 
L 115.56 83.313136 
L 115.723636 82.729832 
L 116.050909 82.763452 
L 116.214545 82.440702 
L 116.378182 82.497855 
L 116.869091 81.428745 
L 117.032727 81.290904 
L 117.523636 79.899043 
L 118.014545 79.55444 
L 118.178182 78.962731 
L 118.341818 78.912302 
L 118.669091 79.13083 
L 118.996364 78.628214 
L 119.16 78.557612 
L 119.323636 78.276887 
L 119.487273 78.334041 
L 119.814545 78.880363 
L 120.305455 78.350851 
L 120.469091 77.735608 
L 120.796364 77.885216 
L 120.96 77.500269 
L 121.123636 77.646515 
L 121.287273 77.530527 
L 121.941818 76.419392 
L 122.105455 76.558914 
L 123.087273 74.773702 
L 123.250909 74.597198 
L 123.578182 73.716358 
L 123.741818 73.699548 
L 123.905455 74.071047 
L 124.396364 72.727936 
L 124.887273 71.87063 
L 125.050909 72.063944 
L 126.196364 70.441788 
L 126.523636 70.152657 
L 127.505455 67.775736 
L 127.832727 67.871553 
L 127.996364 67.804313 
L 128.487273 66.575508 
L 128.814545 66.140132 
L 129.141818 65.958585 
L 129.305455 65.622387 
L 129.632727 65.708117 
L 129.796364 65.091193 
L 129.96 65.114727 
L 130.123636 65.33998 
L 130.778182 63.578302 
L 131.105455 63.49089 
L 131.432727 62.821856 
L 131.596364 62.544492 
L 131.76 62.643671 
L 132.087273 62.206613 
L 132.250909 62.480614 
L 132.414545 62.463804 
L 132.741818 61.976317 
L 132.905455 61.448486 
L 133.069091 61.59137 
L 133.723636 60.89544 
L 133.887273 60.819795 
L 134.050909 60.959318 
L 134.541818 60.125546 
L 134.869091 59.977619 
L 135.196364 59.345566 
L 135.36 59.481726 
L 135.687273 58.807649 
L 136.178182 58.237793 
L 136.505455 57.758711 
L 136.832727 57.77384 
L 136.996364 58.3521 
L 137.16 58.426064 
L 137.487273 57.696514 
L 137.814545 57.563716 
L 137.978182 57.767116 
L 138.141818 57.745263 
L 138.469091 57.398979 
L 138.632727 57.388893 
L 138.796364 57.580526 
L 138.96 57.513286 
L 139.450909 57.785606 
L 139.778182 57.543544 
L 140.105455 57.698195 
L 140.269091 57.261137 
L 140.432727 57.276266 
L 140.596364 57.43596 
L 140.76 57.351911 
L 140.923636 57.777202 
L 141.087273 57.866294 
L 141.414545 57.388893 
L 141.578182 57.548587 
L 141.905455 57.393936 
L 142.069091 57.461175 
L 142.232727 57.676342 
L 143.050909 57.861251 
L 143.214545 57.958749 
L 143.378182 57.762073 
L 143.705455 58.192406 
L 143.869091 58.177277 
L 144.032727 57.720048 
L 144.196364 57.676342 
L 144.36 57.763754 
L 144.523636 57.38385 
L 145.014545 58.005816 
L 145.341818 57.467899 
L 145.832727 58.005816 
L 146.16 57.745263 
L 146.487273 58.120124 
L 146.814545 58.152063 
L 146.978182 58.481537 
L 147.469091 58.577353 
L 147.632727 58.326886 
L 147.96 58.785796 
L 148.123636 58.955576 
L 148.287273 58.827821 
L 148.778182 59.19932 
L 149.105455 58.854717 
L 149.269091 58.60593 
L 149.432727 58.642912 
L 149.76 58.525243 
L 150.087273 58.92868 
L 150.250909 59.095098 
L 150.905455 58.985834 
L 151.232727 59.207725 
L 151.723636 59.50526 
L 151.887273 59.412806 
L 152.050909 59.580905 
L 152.214545 60.004515 
L 152.378182 60.073435 
L 152.705455 59.834735 
L 153.032727 60.08184 
L 153.196364 60.014601 
L 153.36 60.231448 
L 153.687273 59.676721 
L 154.014545 60.254982 
L 154.178182 60.254982 
L 154.341818 60.550837 
L 154.832727 60.549156 
L 155.16 60.969403 
L 155.487273 60.480235 
L 155.650909 60.698764 
L 155.814545 60.481916 
L 155.978182 60.481916 
L 156.469091 60.771047 
L 156.632727 60.732384 
L 156.796364 60.939146 
L 156.96 60.33567 
L 157.123636 60.249939 
L 157.287273 60.586138 
L 157.450909 60.40459 
L 157.778182 60.473511 
L 157.941818 60.643291 
L 158.105455 60.527303 
L 158.269091 60.880311 
L 158.432727 60.925698 
L 158.76 60.628162 
L 159.087273 60.950913 
L 159.250909 60.560923 
L 159.414545 60.549156 
L 159.741818 60.972765 
L 159.905455 61.145908 
L 160.232727 61.001342 
L 160.396364 60.940827 
L 161.050909 61.89563 
L 161.214545 62.020023 
L 161.378182 61.99817 
L 161.541818 61.858648 
L 161.869091 62.344454 
L 162.032727 61.887225 
L 162.196364 61.860329 
L 162.36 62.109115 
L 162.523636 62.078858 
L 162.687273 62.241914 
L 163.505455 62.179717 
L 163.669091 61.818304 
L 163.996364 62.058686 
L 164.650909 62.347816 
L 164.814545 62.534406 
L 165.141818 62.230147 
L 165.305455 62.0839 
L 165.632727 62.236871 
L 165.796364 62.554578 
L 165.96 62.50751 
L 166.614545 63.576621 
L 166.778182 63.729591 
L 166.941818 63.512743 
L 167.269091 63.67748 
L 167.432727 63.516105 
L 167.76 63.806916 
L 167.923636 63.785063 
L 168.087273 63.55813 
L 168.250909 63.543001 
L 168.578182 63.786744 
L 168.741818 63.776658 
L 169.232727 64.475951 
L 169.56 64.181777 
L 169.887273 63.756487 
L 170.050909 63.867432 
L 170.214545 63.827088 
L 170.378182 63.650584 
L 170.541818 63.788425 
L 170.869091 63.684204 
L 171.032727 63.885923 
L 171.687273 63.548044 
L 172.014545 64.116219 
L 172.178182 63.98342 
L 172.341818 64.324662 
L 172.505455 64.217078 
L 172.669091 63.964929 
L 172.832727 64.094366 
L 172.996364 63.944758 
L 173.16 63.588387 
L 173.650909 64.39022 
L 173.978182 64.343152 
L 174.469091 64.596982 
L 174.96 63.922905 
L 175.123636 63.912819 
L 175.450909 64.366686 
L 175.614545 63.929629 
L 175.778182 64.464184 
L 175.941818 64.469227 
L 176.105455 64.223802 
L 176.432727 64.255741 
L 176.596364 63.998549 
L 177.087273 64.605387 
L 177.905455 63.506019 
L 178.56 64.047298 
L 179.050909 64.433926 
L 179.378182 64.022083 
L 179.541818 64.193544 
L 179.869091 63.579983 
L 180.196364 64.121262 
L 180.36 63.537958 
L 180.523636 63.721186 
L 180.850909 63.001722 
L 181.014545 63.119391 
L 181.341818 63.122753 
L 181.505455 63.348006 
L 182.16 63.28749 
L 182.323636 63.512743 
L 182.487273 63.416926 
L 183.141818 62.231828 
L 183.305455 61.74434 
L 183.469091 62.006575 
L 183.632727 61.877139 
L 183.796364 61.979679 
L 183.96 62.416737 
L 184.287273 62.141054 
L 184.450909 62.223423 
L 184.614545 62.593241 
L 185.105455 62.418418 
L 185.269091 62.514234 
L 185.432727 62.433547 
L 185.596364 61.910758 
L 185.76 62.16795 
L 185.923636 62.004894 
L 187.069091 62.759659 
L 187.396364 62.33773 
L 187.56 62.193165 
L 187.723636 62.257043 
L 187.887273 62.10071 
L 188.214545 62.351178 
L 188.378182 62.203251 
L 188.705455 61.712401 
L 189.032727 61.735935 
L 189.196364 61.932611 
L 189.36 61.771236 
L 189.687273 62.401608 
L 190.178182 61.808218 
L 190.341818 61.988084 
L 191.16 62.043557 
L 191.323636 62.188122 
L 191.487273 62.130968 
L 191.650909 62.534406 
L 191.814545 62.262086 
L 191.978182 62.288981 
L 192.141818 62.766383 
L 192.305455 62.381436 
L 192.632727 62.386479 
L 192.96 62.399927 
L 193.123636 62.531044 
L 193.287273 62.332687 
L 193.450909 62.42178 
L 193.614545 62.146097 
L 193.778182 62.278895 
L 194.432727 63.527872 
L 194.923636 63.78002 
L 195.087273 63.717824 
L 195.414545 63.42365 
L 195.578182 63.252189 
L 195.741818 63.595111 
L 196.069091 63.043746 
L 196.396364 63.596792 
L 196.723636 63.057194 
L 196.887273 63.707738 
L 197.050909 63.428693 
L 197.378182 63.949801 
L 197.541818 63.855665 
L 197.705455 64.001911 
L 198.032727 63.795149 
L 198.36 63.926267 
L 198.523636 63.852303 
L 198.687273 63.573259 
L 198.850909 63.737996 
L 199.178182 64.442331 
L 199.832727 65.22063 
L 200.16 64.88107 
L 200.487273 64.343152 
L 200.814545 64.803744 
L 200.978182 64.628921 
L 201.141818 64.154881 
L 201.469091 64.201949 
L 201.96 63.265637 
L 202.123636 63.390031 
L 202.287273 62.989955 
L 202.450909 63.11771 
L 202.614545 62.936163 
L 202.778182 63.03366 
L 202.941818 63.327834 
L 203.105455 63.011808 
L 203.269091 63.127796 
L 204.087273 62.860518 
L 204.250909 62.689057 
L 204.414545 62.959697 
L 204.578182 62.845389 
L 204.741818 62.515915 
L 204.905455 62.544492 
L 205.232727 62.942887 
L 205.56 62.709229 
L 205.723636 62.781512 
L 205.887273 62.690738 
L 206.050909 62.840346 
L 206.214545 62.670566 
L 206.378182 62.722677 
L 206.705455 63.250508 
L 206.869091 62.747892 
L 207.032727 62.756297 
L 207.523636 62.47389 
L 207.850909 62.568026 
L 208.014545 62.576431 
L 208.178182 62.362945 
L 208.341818 62.579793 
L 208.832727 61.774598 
L 208.996364 61.687187 
L 209.323636 61.843519 
L 209.487273 61.712401 
L 209.650909 61.779641 
L 209.814545 61.596413 
L 210.141818 61.650205 
L 210.632727 61.275344 
L 210.796364 60.705488 
L 210.96 60.698764 
L 211.450909 60.159166 
L 211.614545 60.179338 
L 211.778182 60.344075 
L 212.105455 60.135632 
L 212.269091 59.883483 
L 212.432727 60.478554 
L 212.596364 60.629843 
L 212.76 60.357523 
L 212.923636 60.744151 
L 213.741818 61.194656 
L 213.905455 60.925698 
L 214.069091 60.927379 
L 214.396364 61.144227 
L 214.887273 61.034962 
L 215.214545 61.446805 
L 215.705455 61.125736 
L 216.36 61.122374 
L 216.687273 61.092116 
L 216.850909 61.137503 
L 217.014545 61.413185 
L 217.178182 60.784494 
L 217.669091 61.290473 
L 217.832727 61.056815 
L 217.996364 61.204742 
L 218.323636 61.937654 
L 218.487273 62.050281 
L 218.814545 62.746211 
L 219.141818 63.210164 
L 219.305455 63.284128 
L 219.469091 62.956335 
L 219.632727 63.080728 
L 219.96 62.892457 
L 220.450909 63.356411 
L 220.941818 62.74453 
L 221.269091 63.213526 
L 221.596364 63.579983 
L 221.923636 63.502657 
L 222.087273 63.932991 
L 222.414545 63.976696 
L 222.578182 63.462313 
L 222.905455 63.748082 
L 223.069091 63.783382 
L 223.232727 63.704376 
L 223.56 63.848941 
L 223.723636 63.756487 
L 223.887273 64.060746 
L 224.378182 63.961567 
L 224.541818 64.112857 
L 224.869091 63.712781 
L 225.36 64.131348 
L 225.523636 63.988463 
L 225.687273 64.085961 
L 225.850909 63.993506 
L 226.014545 64.116219 
L 226.178182 63.968291 
L 226.341818 64.03385 
L 226.505455 63.924586 
L 226.669091 64.008635 
L 227.16 63.467356 
L 227.323636 63.9145 
L 227.487273 63.67748 
L 227.978182 64.415435 
L 228.469091 64.341471 
L 228.796364 64.744909 
L 228.96 64.301128 
L 229.287273 64.442331 
L 229.450909 64.27087 
L 229.778182 64.575129 
L 229.941818 64.185139 
L 230.105455 64.173372 
L 230.269091 64.030488 
L 230.432727 64.181777 
L 230.596364 64.529742 
L 230.76 64.215397 
L 230.923636 64.173372 
L 231.250909 64.578491 
L 231.578182 64.042255 
L 231.905455 64.181777 
L 232.396364 63.601835 
L 232.56 63.672437 
L 232.723636 63.500976 
L 232.887273 63.739677 
L 233.214545 63.596792 
L 233.378182 63.832131 
L 233.541818 63.534596 
L 233.705455 63.801873 
L 234.032727 63.40684 
L 234.196364 63.433736 
L 234.523636 63.786744 
L 234.850909 63.136201 
L 235.178182 62.924396 
L 235.341818 63.119391 
L 235.505455 62.892457 
L 235.832727 63.102581 
L 235.996364 63.381626 
L 236.323636 63.339601 
L 236.487273 63.248827 
L 236.814545 62.431866 
L 237.469091 63.437098 
L 237.632727 63.223612 
L 237.796364 63.374902 
L 237.96 63.215207 
L 238.123636 63.27068 
L 238.287273 63.065599 
L 238.450909 63.191674 
L 238.778182 62.571388 
L 239.105455 62.86388 
L 239.269091 62.71091 
L 239.432727 62.8975 
L 239.596364 62.764702 
L 240.087273 62.974826 
L 240.250909 63.161416 
L 240.414545 62.889095 
L 241.069091 62.818494 
L 242.050909 63.862389 
L 242.214545 63.561492 
L 242.378182 63.590068 
L 242.705455 63.403478 
L 243.032727 63.699333 
L 243.36 63.976696 
L 243.687273 64.366686 
L 243.850909 64.230526 
L 244.014545 64.702885 
L 244.341818 64.487718 
L 244.505455 64.262465 
L 244.669091 64.262465 
L 244.832727 64.141434 
L 244.996364 64.497804 
L 245.16 64.42384 
L 245.650909 63.889285 
L 245.814545 63.990144 
L 245.978182 63.874156 
L 246.141818 64.077556 
L 246.305455 63.667394 
L 246.469091 63.746401 
L 246.632727 63.998549 
L 246.96 63.901052 
L 247.123636 63.492571 
L 247.287273 63.526191 
L 247.450909 63.896009 
L 247.614545 63.695971 
L 247.941818 63.869113 
L 248.105455 63.712781 
L 248.269091 63.988463 
L 248.432727 63.590068 
L 248.596364 63.823726 
L 248.76 63.758168 
L 249.087273 63.980058 
L 249.250909 64.156562 
L 249.414545 63.79683 
L 249.741818 63.98342 
L 249.905455 63.835493 
L 250.232727 64.126305 
L 250.56 64.766762 
L 250.723636 64.62724 
L 250.887273 64.766762 
L 251.050909 64.467546 
L 251.541818 64.865941 
L 252.032727 64.828959 
L 252.523636 64.230526 
L 252.687273 64.358281 
L 253.014545 64.23725 
L 253.341818 64.496123 
L 253.832727 64.025445 
L 253.996364 64.085961 
L 254.16 63.635455 
L 254.323636 63.822045 
L 254.650909 63.455589 
L 254.814545 63.912819 
L 255.141818 63.93131 
L 255.305455 64.102771 
L 255.469091 63.998549 
L 255.796364 64.213716 
L 255.96 63.743039 
L 256.123636 63.623688 
L 256.450909 63.722867 
L 256.614545 63.526191 
L 256.941818 63.776658 
L 257.269091 64.144795 
L 257.432727 64.279275 
L 257.923636 63.556449 
L 258.087273 63.502657 
L 258.250909 63.087452 
L 258.414545 63.136201 
L 258.741818 63.822045 
L 259.396364 63.477442 
L 259.56 63.272361 
L 259.723636 63.247146 
L 260.214545 63.690928 
L 260.378182 63.941396 
L 260.541818 63.630412 
L 260.705455 63.754806 
L 260.869091 63.45727 
L 261.196364 63.307662 
L 261.36 63.566535 
L 261.687273 63.311024 
L 261.850909 63.28749 
L 262.178182 63.906095 
L 262.341818 63.781701 
L 262.505455 63.902733 
L 262.669091 63.78002 
L 262.832727 63.848941 
L 262.996364 63.737996 
L 263.16 63.472399 
L 263.323636 63.548044 
L 263.487273 63.384988 
L 263.650909 63.811959 
L 264.141818 63.349687 
L 264.632727 63.922905 
L 264.796364 63.605197 
L 264.96 63.630412 
L 265.123636 63.40684 
L 265.450909 64.151519 
L 265.614545 64.154881 
L 265.941818 63.901052 
L 266.269091 63.783382 
L 266.432727 63.806916 
L 266.76 64.043936 
L 267.087273 63.430374 
L 267.250909 63.586706 
L 267.741818 63.090814 
L 268.069091 63.25387 
L 268.232727 62.665523 
L 268.56 62.430185 
L 268.887273 62.81177 
L 269.050909 62.717634 
L 269.214545 62.815132 
L 269.378182 63.055513 
L 269.705455 63.000041 
L 270.032727 62.919353 
L 270.36 62.865561 
L 270.523636 62.890776 
L 270.687273 63.121072 
L 270.850909 62.707548 
L 271.014545 62.682333 
L 271.341818 61.813261 
L 271.669091 62.21838 
L 271.996364 62.156183 
L 272.323636 61.82839 
L 272.650909 62.188122 
L 272.814545 62.16795 
L 272.978182 62.26881 
L 273.141818 62.194846 
L 273.469091 61.774598 
L 273.632727 61.663653 
L 273.796364 61.767874 
L 273.96 61.640119 
L 274.287273 62.077177 
L 274.450909 62.110796 
L 274.614545 62.008256 
L 274.778182 62.213337 
L 274.941818 62.090624 
L 275.105455 61.712401 
L 275.76 61.924206 
L 275.923636 61.783003 
L 276.087273 62.136011 
L 276.741818 61.478744 
L 276.905455 61.08203 
L 277.069091 61.029919 
L 277.232727 60.855096 
L 277.56 61.196337 
L 278.050909 60.470149 
L 278.541818 61.147589 
L 278.705455 60.860139 
L 278.869091 60.897121 
L 279.032727 60.60799 
L 279.196364 60.569328 
L 280.014545 61.456891 
L 280.178182 61.261896 
L 280.341818 61.458572 
L 280.505455 61.216509 
L 280.669091 61.189613 
L 280.832727 60.564285 
L 281.16 60.631524 
L 281.650909 60.6248 
L 281.978182 59.940637 
L 282.141818 59.935594 
L 282.632727 60.52226 
L 282.796364 60.283559 
L 282.96 60.382738 
L 283.287273 59.564095 
L 283.450909 59.839777 
L 283.941818 59.636378 
L 284.269091 60.278516 
L 284.432727 60.056625 
L 284.76 60.930741 
L 284.923636 60.908888 
L 285.087273 61.103883 
L 285.578182 61.011428 
L 285.741818 60.888716 
L 285.905455 60.493683 
L 286.069091 60.671868 
L 286.232727 61.01479 
L 286.396364 60.955956 
L 286.56 61.248448 
L 286.723636 61.189613 
L 287.378182 61.6418 
L 287.705455 61.577922 
L 287.869091 61.660291 
L 288.523636 60.618076 
L 288.687273 60.732384 
L 288.850909 61.149269 
L 289.014545 60.791218 
L 289.505455 60.557561 
L 289.832727 60.892078 
L 290.487273 60.576052 
L 290.650909 60.60799 
L 290.814545 60.848372 
L 290.978182 60.885354 
L 291.141818 61.061858 
L 291.469091 60.823157 
L 291.96 60.52226 
L 292.123636 60.510493 
L 292.450909 61.124055 
L 292.614545 60.918974 
L 292.941818 61.33754 
L 293.105455 61.219871 
L 293.596364 61.509002 
L 293.923636 61.561112 
L 294.087273 61.073625 
L 294.250909 61.37116 
L 294.578182 61.393013 
L 295.069091 60.651696 
L 295.396364 60.535708 
L 295.723636 60.507131 
L 296.050909 60.355842 
L 296.214545 60.451658 
L 296.541818 60.123865 
L 296.869091 60.187743 
L 297.523636 60.718936 
L 298.014545 60.441572 
L 298.341818 60.982851 
L 298.505455 60.992937 
L 299.16 60.465106 
L 299.323636 60.70885 
L 299.487273 60.534027 
L 299.814545 60.924017 
L 299.978182 60.787856 
L 300.141818 60.853415 
L 300.305455 61.060177 
L 300.796364 60.485278 
L 300.96 60.565966 
L 301.123636 60.325584 
L 301.287273 60.468468 
L 301.614545 60.248258 
L 302.269091 60.224724 
L 302.432727 60.503769 
L 302.76 60.019644 
L 302.923636 60.189424 
L 303.087273 60.029729 
L 303.250909 60.068392 
L 303.741818 59.360695 
L 303.905455 59.259836 
L 304.723636 60.449977 
L 304.887273 60.565966 
L 305.050909 60.907207 
L 305.214545 60.917293 
L 305.378182 60.670187 
L 306.032727 61.0316 
L 306.36 60.750875 
L 306.523636 60.735746 
L 306.687273 60.426443 
L 306.850909 60.557561 
L 307.341818 60.236491 
L 307.505455 60.475192 
L 307.669091 60.392824 
L 308.487273 61.54094 
L 308.650909 61.520769 
L 308.978182 61.159355 
L 309.141818 61.350988 
L 309.305455 61.139184 
L 309.469091 60.643291 
L 309.632727 60.821476 
L 309.796364 60.567647 
L 309.96 60.586138 
L 310.123636 60.286921 
L 310.287273 60.278516 
L 310.450909 60.09865 
L 310.614545 60.414676 
L 310.778182 60.30205 
L 310.941818 60.535708 
L 311.105455 60.397867 
L 311.432727 60.483597 
L 311.596364 60.651696 
L 311.76 60.979489 
L 311.923636 60.814752 
L 312.087273 61.029919 
L 312.250909 61.038324 
L 312.414545 61.213147 
L 312.578182 61.142546 
L 312.905455 60.813071 
L 313.232727 60.789537 
L 313.396364 60.283559 
L 313.56 60.276835 
L 313.723636 60.076797 
L 313.887273 60.100331 
L 314.050909 59.849863 
L 314.378182 60.179338 
L 314.541818 60.40459 
L 314.869091 60.088564 
L 315.032727 60.297007 
L 315.523636 59.896931 
L 316.178182 59.982662 
L 316.505455 59.624611 
L 316.832727 59.617887 
L 317.16 60.216319 
L 317.650909 59.636378 
L 317.814545 59.246388 
L 318.141818 59.478364 
L 318.469091 59.333799 
L 318.632727 59.407763 
L 318.96 59.254793 
L 319.450909 59.627973 
L 319.614545 59.342204 
L 320.105455 59.286731 
L 320.432727 59.685126 
L 320.596364 59.754047 
L 320.76 59.957447 
L 321.578182 58.794201 
L 321.741818 58.688299 
L 322.069091 59.026178 
L 322.56 58.511795 
L 323.378182 59.569138 
L 323.705455 59.121994 
L 323.869091 59.261517 
L 324.032727 58.747133 
L 324.687273 58.303352 
L 324.850909 58.303352 
L 325.014545 57.963792 
L 325.178182 57.908319 
L 325.505455 58.251241 
L 325.832727 58.152063 
L 325.996364 58.474813 
L 326.16 58.415978 
L 326.487273 58.866484 
L 326.650909 58.920275 
L 326.814545 58.785796 
L 327.305455 59.07997 
L 327.469091 58.913551 
L 327.796364 59.387591 
L 328.287273 58.814373 
L 328.450909 59.002644 
L 328.614545 58.841269 
L 329.105455 59.088375 
L 329.432727 58.718556 
L 329.76 58.540371 
L 329.923636 58.920275 
L 330.087273 58.565586 
L 330.250909 58.969024 
L 330.741818 59.06316 
L 330.905455 59.064841 
L 331.232727 58.65636 
L 331.396364 58.553819 
L 331.56 58.3168 
L 332.050909 58.294947 
L 332.541818 58.767305 
L 332.705455 58.708471 
L 333.196364 59.004325 
L 333.687273 58.568948 
L 333.850909 58.617697 
L 334.178182 58.94549 
L 334.505455 58.755538 
L 334.832727 59.074927 
L 335.16 58.720237 
L 335.814545 59.401039 
L 335.978182 59.219492 
L 336.141818 59.527113 
L 336.469091 59.40272 
L 336.632727 59.475002 
L 336.796364 59.401039 
L 337.287273 59.53888 
L 337.450909 59.345566 
L 337.778182 59.977619 
L 337.941818 60.002834 
L 338.269091 60.749194 
L 338.432727 60.431486 
L 338.76 60.597904 
L 338.923636 60.957637 
L 339.250909 60.72566 
L 339.414545 60.444934 
L 339.578182 60.584457 
L 339.741818 60.547475 
L 339.905455 60.243215 
L 340.069091 60.599585 
L 340.232727 60.453339 
L 340.396364 60.500407 
L 340.723636 60.823157 
L 340.887273 60.792899 
L 341.050909 60.597904 
L 341.214545 60.127227 
L 341.378182 59.999472 
L 341.705455 60.451658 
L 342.196364 59.777581 
L 342.523636 60.071754 
L 342.687273 60.06503 
L 342.850909 59.898612 
L 343.178182 59.905336 
L 343.505455 59.893569 
L 343.669091 59.570819 
L 343.996364 59.680083 
L 344.16 59.214449 
L 344.323636 59.174105 
L 344.650909 59.938956 
L 344.978182 59.673359 
L 345.141818 59.733875 
L 345.305455 60.023006 
L 345.469091 59.629654 
L 345.632727 59.822968 
L 345.796364 60.233129 
L 346.450909 60.061668 
L 346.614545 60.283559 
L 347.269091 59.201001 
L 347.432727 59.441383 
L 347.596364 59.432978 
L 347.76 59.204363 
L 347.923636 59.169062 
L 348.087273 59.459874 
L 348.250909 59.511984 
L 348.414545 59.688488 
L 348.741818 59.616206 
L 349.069091 58.903465 
L 349.396364 59.111908 
L 349.887273 58.990877 
L 350.050909 59.11527 
L 350.214545 58.72528 
L 350.378182 58.819416 
L 350.705455 58.79252 
L 350.869091 58.992558 
L 351.032727 58.994239 
L 351.36 58.777391 
L 351.523636 58.987515 
L 351.850909 58.811011 
L 352.178182 58.686618 
L 352.341818 58.353781 
L 352.505455 58.342014 
L 352.669091 58.052884 
L 352.832727 58.093228 
L 353.16 58.389082 
L 353.650909 58.099952 
L 353.978182 58.494985 
L 354.305455 58.444555 
L 354.469091 58.382358 
L 354.796364 57.946982 
L 354.96 57.883104 
L 355.614545 56.849294 
L 355.941818 57.04597 
L 356.269091 56.812313 
L 356.432727 56.714815 
L 356.596364 56.472752 
L 356.76 56.879552 
L 357.087273 56.479476 
L 357.905455 56.634128 
L 358.396364 56.284481 
L 358.723636 56.758521 
L 358.887273 56.588741 
L 359.050909 56.77365 
L 359.214545 56.67279 
L 359.378182 56.395427 
L 359.541818 56.440814 
L 359.705455 56.62068 
L 359.869091 56.598827 
L 360.196364 57.066142 
L 360.523636 56.763564 
L 360.850909 56.94343 
L 361.178182 56.376936 
L 361.505455 56.444176 
L 361.669091 56.289524 
L 361.832727 55.835657 
L 362.16 55.785227 
L 362.323636 55.432219 
L 362.650909 56.269353 
L 362.814545 56.301291 
L 362.978182 56.069315 
L 363.141818 56.437452 
L 363.305455 56.227328 
L 363.632727 56.590422 
L 363.96 56.466029 
L 364.287273 56.850975 
L 364.450909 56.869466 
L 364.614545 56.600508 
L 364.778182 57.034203 
L 364.941818 56.687919 
L 365.105455 56.997222 
L 365.432727 57.143468 
L 365.76 57.414107 
L 366.087273 57.361997 
L 366.250909 57.629274 
L 366.578182 57.326696 
L 366.741818 57.654489 
L 367.232727 57.035884 
L 367.396364 57.24937 
L 367.723636 57.071185 
L 368.050909 56.856018 
L 368.214545 56.795503 
L 368.541818 57.047651 
L 368.705455 56.777012 
L 369.032727 56.918215 
L 369.687273 56.662704 
L 369.850909 56.504691 
L 370.014545 56.168493 
L 370.178182 56.183622 
L 370.669091 55.617128 
L 370.832727 55.348169 
L 370.996364 55.601999 
L 371.16 55.427176 
L 371.323636 54.946413 
L 371.487273 54.845553 
L 371.978182 55.203604 
L 372.141818 55.544845 
L 372.305455 55.309507 
L 372.632727 55.282611 
L 372.796364 55.507864 
L 372.96 55.29774 
L 373.123636 55.4339 
L 373.287273 55.203604 
L 373.778182 55.489373 
L 373.941818 55.259077 
L 374.269091 55.672601 
L 374.432727 55.669239 
L 374.596364 55.876001 
L 375.250909 55.45071 
L 375.414545 55.877682 
L 375.578182 55.781865 
L 376.396364 56.677833 
L 376.56 56.477795 
L 377.050909 56.850975 
L 377.378182 56.812313 
L 377.541818 56.982093 
L 378.032727 56.842571 
L 378.196364 57.148511 
L 378.36 57.212389 
L 378.687273 56.741711 
L 378.850909 56.677833 
L 379.178182 55.77346 
L 379.341818 55.817166 
L 379.505455 55.998713 
L 379.669091 55.830614 
L 379.832727 55.869277 
L 379.996364 56.131511 
L 380.16 56.109658 
L 380.323636 56.217242 
L 380.487273 55.682687 
L 380.650909 55.798675 
L 380.978182 56.326506 
L 381.141818 56.344997 
L 381.305455 56.070996 
L 381.469091 56.2828 
L 381.632727 56.23069 
L 381.796364 56.050824 
L 381.96 56.308015 
L 382.450909 55.997032 
L 382.614545 56.054186 
L 382.778182 55.971817 
L 382.941818 56.170174 
L 383.105455 55.983584 
L 383.432727 56.223966 
L 383.596364 56.346678 
L 383.923636 56.097891 
L 384.250909 55.914663 
L 384.414545 56.025609 
L 384.578182 55.892811 
L 384.741818 55.919706 
L 385.069091 55.338084 
L 385.232727 55.538121 
L 385.396364 55.464158 
L 385.56 55.223776 
L 386.050909 55.259077 
L 386.214545 55.082573 
L 387.36 55.716307 
L 387.687273 55.511226 
L 387.850909 55.766736 
L 388.178182 55.886087 
L 388.996364 56.96024 
L 389.323636 56.301291 
L 389.650909 57.017394 
L 389.978182 56.837528 
L 390.141818 56.755159 
L 390.305455 56.413918 
L 390.469091 56.529906 
L 390.632727 56.408875 
L 390.96 56.506372 
L 391.123636 56.302972 
L 391.287273 56.284481 
L 391.614545 56.533268 
L 391.778182 56.314739 
L 392.105455 55.469201 
L 392.269091 55.143089 
L 392.596364 55.575103 
L 392.76 54.974989 
L 393.250909 54.351342 
L 393.414545 54.104236 
L 393.905455 54.289145 
L 394.069091 53.989929 
L 394.232727 54.223586 
L 394.887273 53.568 
L 395.541818 55.183432 
L 396.032727 54.946413 
L 396.36 55.001885 
L 396.523636 54.642153 
L 396.687273 54.902707 
L 396.850909 54.943051 
L 397.014545 55.327998 
L 397.341818 54.571552 
L 397.669091 54.758142 
L 397.832727 54.623662 
L 397.996364 54.758142 
L 398.487273 53.815106 
L 398.487273 53.815106 
" clip-path="url(#p4aeda84e2f)" style="fill: none; stroke: #ff7f0e; stroke-width: 1.5; stroke-linecap: square"/>
   </g>
   <g id="patch_3">
    <path d="M 57.6 307.584 
L 57.6 41.472 
" style="fill: none; stroke: #000000; stroke-width: 0.8; stroke-linejoin: miter; stroke-linecap: square"/>
   </g>
   <g id="patch_4">
    <path d="M 414.72 307.584 
L 414.72 41.472 
" style="fill: none; stroke: #000000; stroke-width: 0.8; stroke-linejoin: miter; stroke-linecap: square"/>
   </g>
   <g id="patch_5">
    <path d="M 57.6 307.584 
L 414.72 307.584 
" style="fill: none; stroke: #000000; stroke-width: 0.8; stroke-linejoin: miter; stroke-linecap: square"/>
   </g>
   <g id="patch_6">
    <path d="M 57.6 41.472 
L 414.72 41.472 
" style="fill: none; stroke: #000000; stroke-width: 0.8; stroke-linejoin: miter; stroke-linecap: square"/>
   </g>
   <g id="text_20">
    <!-- Rolling average training progress of profits/by_selling_new -->
    <g transform="translate(60.675 35.472)scale(0.12 -0.12)">
     <defs>
      <path id="DejaVuSans-52" d="M 2841 2188 
Q 3044 2119 3236 1894 
Q 3428 1669 3622 1275 
L 4263 0 
L 3584 0 
L 2988 1197 
Q 2756 1666 2539 1819 
Q 2322 1972 1947 1972 
L 1259 1972 
L 1259 0 
L 628 0 
L 628 4666 
L 2053 4666 
Q 2853 4666 3247 4331 
Q 3641 3997 3641 3322 
Q 3641 2881 3436 2590 
Q 3231 2300 2841 2188 
z
M 1259 4147 
L 1259 2491 
L 2053 2491 
Q 2509 2491 2742 2702 
Q 2975 2913 2975 3322 
Q 2975 3731 2742 3939 
Q 2509 4147 2053 4147 
L 1259 4147 
z
" transform="scale(0.015625)"/>
      <path id="DejaVuSans-20" transform="scale(0.015625)"/>
      <path id="DejaVuSans-61" d="M 2194 1759 
Q 1497 1759 1228 1600 
Q 959 1441 959 1056 
Q 959 750 1161 570 
Q 1363 391 1709 391 
Q 2188 391 2477 730 
Q 2766 1069 2766 1631 
L 2766 1759 
L 2194 1759 
z
M 3341 1997 
L 3341 0 
L 2766 0 
L 2766 531 
Q 2569 213 2275 61 
Q 1981 -91 1556 -91 
Q 1019 -91 701 211 
Q 384 513 384 1019 
Q 384 1609 779 1909 
Q 1175 2209 1959 2209 
L 2766 2209 
L 2766 2266 
Q 2766 2663 2505 2880 
Q 2244 3097 1772 3097 
Q 1472 3097 1187 3025 
Q 903 2953 641 2809 
L 641 3341 
Q 956 3463 1253 3523 
Q 1550 3584 1831 3584 
Q 2591 3584 2966 3190 
Q 3341 2797 3341 1997 
z
" transform="scale(0.015625)"/>
      <path id="DejaVuSans-76" d="M 191 3500 
L 800 3500 
L 1894 563 
L 2988 3500 
L 3597 3500 
L 2284 0 
L 1503 0 
L 191 3500 
z
" transform="scale(0.015625)"/>
     </defs>
     <use xlink:href="#DejaVuSans-52"/>
     <use xlink:href="#DejaVuSans-6f" x="64.982422"/>
     <use xlink:href="#DejaVuSans-6c" x="126.164062"/>
     <use xlink:href="#DejaVuSans-6c" x="153.947266"/>
     <use xlink:href="#DejaVuSans-69" x="181.730469"/>
     <use xlink:href="#DejaVuSans-6e" x="209.513672"/>
     <use xlink:href="#DejaVuSans-67" x="272.892578"/>
     <use xlink:href="#DejaVuSans-20" x="336.369141"/>
     <use xlink:href="#DejaVuSans-61" x="368.15625"/>
     <use xlink:href="#DejaVuSans-76" x="429.435547"/>
     <use xlink:href="#DejaVuSans-65" x="488.615234"/>
     <use xlink:href="#DejaVuSans-72" x="550.138672"/>
     <use xlink:href="#DejaVuSans-61" x="591.251953"/>
     <use xlink:href="#DejaVuSans-67" x="652.53125"/>
     <use xlink:href="#DejaVuSans-65" x="716.007812"/>
     <use xlink:href="#DejaVuSans-20" x="777.53125"/>
     <use xlink:href="#DejaVuSans-74" x="809.318359"/>
     <use xlink:href="#DejaVuSans-72" x="848.527344"/>
     <use xlink:href="#DejaVuSans-61" x="889.640625"/>
     <use xlink:href="#DejaVuSans-69" x="950.919922"/>
     <use xlink:href="#DejaVuSans-6e" x="978.703125"/>
     <use xlink:href="#DejaVuSans-69" x="1042.082031"/>
     <use xlink:href="#DejaVuSans-6e" x="1069.865234"/>
     <use xlink:href="#DejaVuSans-67" x="1133.244141"/>
     <use xlink:href="#DejaVuSans-20" x="1196.720703"/>
     <use xlink:href="#DejaVuSans-70" x="1228.507812"/>
     <use xlink:href="#DejaVuSans-72" x="1291.984375"/>
     <use xlink:href="#DejaVuSans-6f" x="1330.847656"/>
     <use xlink:href="#DejaVuSans-67" x="1392.029297"/>
     <use xlink:href="#DejaVuSans-72" x="1455.505859"/>
     <use xlink:href="#DejaVuSans-65" x="1494.369141"/>
     <use xlink:href="#DejaVuSans-73" x="1555.892578"/>
     <use xlink:href="#DejaVuSans-73" x="1607.992188"/>
     <use xlink:href="#DejaVuSans-20" x="1660.091797"/>
     <use xlink:href="#DejaVuSans-6f" x="1691.878906"/>
     <use xlink:href="#DejaVuSans-66" x="1753.060547"/>
     <use xlink:href="#DejaVuSans-20" x="1788.265625"/>
     <use xlink:href="#DejaVuSans-70" x="1820.052734"/>
     <use xlink:href="#DejaVuSans-72" x="1883.529297"/>
     <use xlink:href="#DejaVuSans-6f" x="1922.392578"/>
     <use xlink:href="#DejaVuSans-66" x="1983.574219"/>
     <use xlink:href="#DejaVuSans-69" x="2018.779297"/>
     <use xlink:href="#DejaVuSans-74" x="2046.5625"/>
     <use xlink:href="#DejaVuSans-73" x="2085.771484"/>
     <use xlink:href="#DejaVuSans-2f" x="2137.871094"/>
     <use xlink:href="#DejaVuSans-62" x="2171.5625"/>
     <use xlink:href="#DejaVuSans-79" x="2235.039062"/>
     <use xlink:href="#DejaVuSans-5f" x="2294.21875"/>
     <use xlink:href="#DejaVuSans-73" x="2344.21875"/>
     <use xlink:href="#DejaVuSans-65" x="2396.318359"/>
     <use xlink:href="#DejaVuSans-6c" x="2457.841797"/>
     <use xlink:href="#DejaVuSans-6c" x="2485.625"/>
     <use xlink:href="#DejaVuSans-69" x="2513.408203"/>
     <use xlink:href="#DejaVuSans-6e" x="2541.191406"/>
     <use xlink:href="#DejaVuSans-67" x="2604.570312"/>
     <use xlink:href="#DejaVuSans-5f" x="2668.046875"/>
     <use xlink:href="#DejaVuSans-6e" x="2718.046875"/>
     <use xlink:href="#DejaVuSans-65" x="2781.425781"/>
     <use xlink:href="#DejaVuSans-77" x="2842.949219"/>
    </g>
   </g>
   <g id="legend_1">
    <g id="patch_7">
     <path d="M 276.25125 302.584 
L 407.72 302.584 
Q 409.72 302.584 409.72 300.584 
L 409.72 272.22775 
Q 409.72 270.22775 407.72 270.22775 
L 276.25125 270.22775 
Q 274.25125 270.22775 274.25125 272.22775 
L 274.25125 300.584 
Q 274.25125 302.584 276.25125 302.584 
z
" style="fill: #ffffff; opacity: 0.8; stroke: #cccccc; stroke-linejoin: miter"/>
    </g>
    <g id="line2d_20">
     <path d="M 278.25125 278.326187 
L 288.25125 278.326187 
L 298.25125 278.326187 
" style="fill: none; stroke: #1f77b4; stroke-width: 1.5; stroke-linecap: square"/>
    </g>
    <g id="text_21">
     <!-- StableBaselinesSAC -->
     <g transform="translate(306.25125 281.826187)scale(0.1 -0.1)">
      <defs>
       <path id="DejaVuSans-53" d="M 3425 4513 
L 3425 3897 
Q 3066 4069 2747 4153 
Q 2428 4238 2131 4238 
Q 1616 4238 1336 4038 
Q 1056 3838 1056 3469 
Q 1056 3159 1242 3001 
Q 1428 2844 1947 2747 
L 2328 2669 
Q 3034 2534 3370 2195 
Q 3706 1856 3706 1288 
Q 3706 609 3251 259 
Q 2797 -91 1919 -91 
Q 1588 -91 1214 -16 
Q 841 59 441 206 
L 441 856 
Q 825 641 1194 531 
Q 1563 422 1919 422 
Q 2459 422 2753 634 
Q 3047 847 3047 1241 
Q 3047 1584 2836 1778 
Q 2625 1972 2144 2069 
L 1759 2144 
Q 1053 2284 737 2584 
Q 422 2884 422 3419 
Q 422 4038 858 4394 
Q 1294 4750 2059 4750 
Q 2388 4750 2728 4690 
Q 3069 4631 3425 4513 
z
" transform="scale(0.015625)"/>
       <path id="DejaVuSans-42" d="M 1259 2228 
L 1259 519 
L 2272 519 
Q 2781 519 3026 730 
Q 3272 941 3272 1375 
Q 3272 1813 3026 2020 
Q 2781 2228 2272 2228 
L 1259 2228 
z
M 1259 4147 
L 1259 2741 
L 2194 2741 
Q 2656 2741 2882 2914 
Q 3109 3088 3109 3444 
Q 3109 3797 2882 3972 
Q 2656 4147 2194 4147 
L 1259 4147 
z
M 628 4666 
L 2241 4666 
Q 2963 4666 3353 4366 
Q 3744 4066 3744 3513 
Q 3744 3084 3544 2831 
Q 3344 2578 2956 2516 
Q 3422 2416 3680 2098 
Q 3938 1781 3938 1306 
Q 3938 681 3513 340 
Q 3088 0 2303 0 
L 628 0 
L 628 4666 
z
" transform="scale(0.015625)"/>
       <path id="DejaVuSans-41" d="M 2188 4044 
L 1331 1722 
L 3047 1722 
L 2188 4044 
z
M 1831 4666 
L 2547 4666 
L 4325 0 
L 3669 0 
L 3244 1197 
L 1141 1197 
L 716 0 
L 50 0 
L 1831 4666 
z
" transform="scale(0.015625)"/>
       <path id="DejaVuSans-43" d="M 4122 4306 
L 4122 3641 
Q 3803 3938 3442 4084 
Q 3081 4231 2675 4231 
Q 1875 4231 1450 3742 
Q 1025 3253 1025 2328 
Q 1025 1406 1450 917 
Q 1875 428 2675 428 
Q 3081 428 3442 575 
Q 3803 722 4122 1019 
L 4122 359 
Q 3791 134 3420 21 
Q 3050 -91 2638 -91 
Q 1578 -91 968 557 
Q 359 1206 359 2328 
Q 359 3453 968 4101 
Q 1578 4750 2638 4750 
Q 3056 4750 3426 4639 
Q 3797 4528 4122 4306 
z
" transform="scale(0.015625)"/>
      </defs>
      <use xlink:href="#DejaVuSans-53"/>
      <use xlink:href="#DejaVuSans-74" x="63.476562"/>
      <use xlink:href="#DejaVuSans-61" x="102.685547"/>
      <use xlink:href="#DejaVuSans-62" x="163.964844"/>
      <use xlink:href="#DejaVuSans-6c" x="227.441406"/>
      <use xlink:href="#DejaVuSans-65" x="255.224609"/>
      <use xlink:href="#DejaVuSans-42" x="316.748047"/>
      <use xlink:href="#DejaVuSans-61" x="385.351562"/>
      <use xlink:href="#DejaVuSans-73" x="446.630859"/>
      <use xlink:href="#DejaVuSans-65" x="498.730469"/>
      <use xlink:href="#DejaVuSans-6c" x="560.253906"/>
      <use xlink:href="#DejaVuSans-69" x="588.037109"/>
      <use xlink:href="#DejaVuSans-6e" x="615.820312"/>
      <use xlink:href="#DejaVuSans-65" x="679.199219"/>
      <use xlink:href="#DejaVuSans-73" x="740.722656"/>
      <use xlink:href="#DejaVuSans-53" x="792.822266"/>
      <use xlink:href="#DejaVuSans-41" x="858.173828"/>
      <use xlink:href="#DejaVuSans-43" x="924.832031"/>
     </g>
    </g>
    <g id="line2d_21">
     <path d="M 278.25125 293.004312 
L 288.25125 293.004312 
L 298.25125 293.004312 
" style="fill: none; stroke: #ff7f0e; stroke-width: 1.5; stroke-linecap: square"/>
    </g>
    <g id="text_22">
     <!-- Storage-Minimizer -->
     <g transform="translate(306.25125 296.504312)scale(0.1 -0.1)">
      <defs>
       <path id="DejaVuSans-2d" d="M 313 2009 
L 1997 2009 
L 1997 1497 
L 313 1497 
L 313 2009 
z
" transform="scale(0.015625)"/>
       <path id="DejaVuSans-4d" d="M 628 4666 
L 1569 4666 
L 2759 1491 
L 3956 4666 
L 4897 4666 
L 4897 0 
L 4281 0 
L 4281 4097 
L 3078 897 
L 2444 897 
L 1241 4097 
L 1241 0 
L 628 0 
L 628 4666 
z
" transform="scale(0.015625)"/>
       <path id="DejaVuSans-6d" d="M 3328 2828 
Q 3544 3216 3844 3400 
Q 4144 3584 4550 3584 
Q 5097 3584 5394 3201 
Q 5691 2819 5691 2113 
L 5691 0 
L 5113 0 
L 5113 2094 
Q 5113 2597 4934 2840 
Q 4756 3084 4391 3084 
Q 3944 3084 3684 2787 
Q 3425 2491 3425 1978 
L 3425 0 
L 2847 0 
L 2847 2094 
Q 2847 2600 2669 2842 
Q 2491 3084 2119 3084 
Q 1678 3084 1418 2786 
Q 1159 2488 1159 1978 
L 1159 0 
L 581 0 
L 581 3500 
L 1159 3500 
L 1159 2956 
Q 1356 3278 1631 3431 
Q 1906 3584 2284 3584 
Q 2666 3584 2933 3390 
Q 3200 3197 3328 2828 
z
" transform="scale(0.015625)"/>
       <path id="DejaVuSans-7a" d="M 353 3500 
L 3084 3500 
L 3084 2975 
L 922 459 
L 3084 459 
L 3084 0 
L 275 0 
L 275 525 
L 2438 3041 
L 353 3041 
L 353 3500 
z
" transform="scale(0.015625)"/>
      </defs>
      <use xlink:href="#DejaVuSans-53"/>
      <use xlink:href="#DejaVuSans-74" x="63.476562"/>
      <use xlink:href="#DejaVuSans-6f" x="102.685547"/>
      <use xlink:href="#DejaVuSans-72" x="163.867188"/>
      <use xlink:href="#DejaVuSans-61" x="204.980469"/>
      <use xlink:href="#DejaVuSans-67" x="266.259766"/>
      <use xlink:href="#DejaVuSans-65" x="329.736328"/>
      <use xlink:href="#DejaVuSans-2d" x="391.259766"/>
      <use xlink:href="#DejaVuSans-4d" x="427.34375"/>
      <use xlink:href="#DejaVuSans-69" x="513.623047"/>
      <use xlink:href="#DejaVuSans-6e" x="541.40625"/>
      <use xlink:href="#DejaVuSans-69" x="604.785156"/>
      <use xlink:href="#DejaVuSans-6d" x="632.568359"/>
      <use xlink:href="#DejaVuSans-69" x="729.980469"/>
      <use xlink:href="#DejaVuSans-7a" x="757.763672"/>
      <use xlink:href="#DejaVuSans-65" x="810.253906"/>
      <use xlink:href="#DejaVuSans-72" x="871.777344"/>
     </g>
    </g>
   </g>
  </g>
 </g>
 <defs>
  <clipPath id="p4aeda84e2f">
   <rect x="57.6" y="41.472" width="357.12" height="266.112"/>
  </clipPath>
 </defs>
</svg>
