<?xml version="1.0" encoding="utf-8" standalone="no"?>
<!DOCTYPE svg PUBLIC "-//W3C//DTD SVG 1.1//EN"
  "http://www.w3.org/Graphics/SVG/1.1/DTD/svg11.dtd">
<svg xmlns:xlink="http://www.w3.org/1999/xlink" width="460.8pt" height="345.6pt" viewBox="0 0 460.8 345.6" xmlns="http://www.w3.org/2000/svg" version="1.1">
 <metadata>
  <rdf:RDF xmlns:dc="http://purl.org/dc/elements/1.1/" xmlns:cc="http://creativecommons.org/ns#" xmlns:rdf="http://www.w3.org/1999/02/22-rdf-syntax-ns#">
   <cc:Work>
    <dc:type rdf:resource="http://purl.org/dc/dcmitype/StillImage"/>
    <dc:date>2022-06-16T11:35:08.171133</dc:date>
    <dc:format>image/svg+xml</dc:format>
    <dc:creator>
     <cc:Agent>
      <dc:title>Matplotlib v3.5.2, https://matplotlib.org/</dc:title>
     </cc:Agent>
    </dc:creator>
   </cc:Work>
  </rdf:RDF>
 </metadata>
 <defs>
  <style type="text/css">*{stroke-linejoin: round; stroke-linecap: butt}</style>
 </defs>
 <g id="figure_1">
  <g id="patch_1">
   <path d="M 0 345.6 
L 460.8 345.6 
L 460.8 0 
L 0 0 
z
" style="fill: #ffffff"/>
  </g>
  <g id="axes_1">
   <g id="patch_2">
    <path d="M 57.6 307.584 
L 414.72 307.584 
L 414.72 41.472 
L 57.6 41.472 
z
" style="fill: #ffffff"/>
   </g>
   <g id="matplotlib.axis_1">
    <g id="xtick_1">
     <g id="line2d_1">
      <defs>
       <path id="m398cca8821" d="M 0 0 
L 0 3.5 
" style="stroke: #000000; stroke-width: 0.8"/>
      </defs>
      <g>
       <use xlink:href="#m398cca8821" x="71.378182" y="307.584" style="stroke: #000000; stroke-width: 0.8"/>
      </g>
     </g>
     <g id="text_1">
      <!-- 0 -->
      <g transform="translate(68.196932 322.182437)scale(0.1 -0.1)">
       <defs>
        <path id="DejaVuSans-30" d="M 2034 4250 
Q 1547 4250 1301 3770 
Q 1056 3291 1056 2328 
Q 1056 1369 1301 889 
Q 1547 409 2034 409 
Q 2525 409 2770 889 
Q 3016 1369 3016 2328 
Q 3016 3291 2770 3770 
Q 2525 4250 2034 4250 
z
M 2034 4750 
Q 2819 4750 3233 4129 
Q 3647 3509 3647 2328 
Q 3647 1150 3233 529 
Q 2819 -91 2034 -91 
Q 1250 -91 836 529 
Q 422 1150 422 2328 
Q 422 3509 836 4129 
Q 1250 4750 2034 4750 
z
" transform="scale(0.015625)"/>
       </defs>
       <use xlink:href="#DejaVuSans-30"/>
      </g>
     </g>
    </g>
    <g id="xtick_2">
     <g id="line2d_2">
      <g>
       <use xlink:href="#m398cca8821" x="112.287273" y="307.584" style="stroke: #000000; stroke-width: 0.8"/>
      </g>
     </g>
     <g id="text_2">
      <!-- 250 -->
      <g transform="translate(102.743523 322.182437)scale(0.1 -0.1)">
       <defs>
        <path id="DejaVuSans-32" d="M 1228 531 
L 3431 531 
L 3431 0 
L 469 0 
L 469 531 
Q 828 903 1448 1529 
Q 2069 2156 2228 2338 
Q 2531 2678 2651 2914 
Q 2772 3150 2772 3378 
Q 2772 3750 2511 3984 
Q 2250 4219 1831 4219 
Q 1534 4219 1204 4116 
Q 875 4013 500 3803 
L 500 4441 
Q 881 4594 1212 4672 
Q 1544 4750 1819 4750 
Q 2544 4750 2975 4387 
Q 3406 4025 3406 3419 
Q 3406 3131 3298 2873 
Q 3191 2616 2906 2266 
Q 2828 2175 2409 1742 
Q 1991 1309 1228 531 
z
" transform="scale(0.015625)"/>
        <path id="DejaVuSans-35" d="M 691 4666 
L 3169 4666 
L 3169 4134 
L 1269 4134 
L 1269 2991 
Q 1406 3038 1543 3061 
Q 1681 3084 1819 3084 
Q 2600 3084 3056 2656 
Q 3513 2228 3513 1497 
Q 3513 744 3044 326 
Q 2575 -91 1722 -91 
Q 1428 -91 1123 -41 
Q 819 9 494 109 
L 494 744 
Q 775 591 1075 516 
Q 1375 441 1709 441 
Q 2250 441 2565 725 
Q 2881 1009 2881 1497 
Q 2881 1984 2565 2268 
Q 2250 2553 1709 2553 
Q 1456 2553 1204 2497 
Q 953 2441 691 2322 
L 691 4666 
z
" transform="scale(0.015625)"/>
       </defs>
       <use xlink:href="#DejaVuSans-32"/>
       <use xlink:href="#DejaVuSans-35" x="63.623047"/>
       <use xlink:href="#DejaVuSans-30" x="127.246094"/>
      </g>
     </g>
    </g>
    <g id="xtick_3">
     <g id="line2d_3">
      <g>
       <use xlink:href="#m398cca8821" x="153.196364" y="307.584" style="stroke: #000000; stroke-width: 0.8"/>
      </g>
     </g>
     <g id="text_3">
      <!-- 500 -->
      <g transform="translate(143.652614 322.182437)scale(0.1 -0.1)">
       <use xlink:href="#DejaVuSans-35"/>
       <use xlink:href="#DejaVuSans-30" x="63.623047"/>
       <use xlink:href="#DejaVuSans-30" x="127.246094"/>
      </g>
     </g>
    </g>
    <g id="xtick_4">
     <g id="line2d_4">
      <g>
       <use xlink:href="#m398cca8821" x="194.105455" y="307.584" style="stroke: #000000; stroke-width: 0.8"/>
      </g>
     </g>
     <g id="text_4">
      <!-- 750 -->
      <g transform="translate(184.561705 322.182437)scale(0.1 -0.1)">
       <defs>
        <path id="DejaVuSans-37" d="M 525 4666 
L 3525 4666 
L 3525 4397 
L 1831 0 
L 1172 0 
L 2766 4134 
L 525 4134 
L 525 4666 
z
" transform="scale(0.015625)"/>
       </defs>
       <use xlink:href="#DejaVuSans-37"/>
       <use xlink:href="#DejaVuSans-35" x="63.623047"/>
       <use xlink:href="#DejaVuSans-30" x="127.246094"/>
      </g>
     </g>
    </g>
    <g id="xtick_5">
     <g id="line2d_5">
      <g>
       <use xlink:href="#m398cca8821" x="235.014545" y="307.584" style="stroke: #000000; stroke-width: 0.8"/>
      </g>
     </g>
     <g id="text_5">
      <!-- 1000 -->
      <g transform="translate(222.289545 322.182437)scale(0.1 -0.1)">
       <defs>
        <path id="DejaVuSans-31" d="M 794 531 
L 1825 531 
L 1825 4091 
L 703 3866 
L 703 4441 
L 1819 4666 
L 2450 4666 
L 2450 531 
L 3481 531 
L 3481 0 
L 794 0 
L 794 531 
z
" transform="scale(0.015625)"/>
       </defs>
       <use xlink:href="#DejaVuSans-31"/>
       <use xlink:href="#DejaVuSans-30" x="63.623047"/>
       <use xlink:href="#DejaVuSans-30" x="127.246094"/>
       <use xlink:href="#DejaVuSans-30" x="190.869141"/>
      </g>
     </g>
    </g>
    <g id="xtick_6">
     <g id="line2d_6">
      <g>
       <use xlink:href="#m398cca8821" x="275.923636" y="307.584" style="stroke: #000000; stroke-width: 0.8"/>
      </g>
     </g>
     <g id="text_6">
      <!-- 1250 -->
      <g transform="translate(263.198636 322.182437)scale(0.1 -0.1)">
       <use xlink:href="#DejaVuSans-31"/>
       <use xlink:href="#DejaVuSans-32" x="63.623047"/>
       <use xlink:href="#DejaVuSans-35" x="127.246094"/>
       <use xlink:href="#DejaVuSans-30" x="190.869141"/>
      </g>
     </g>
    </g>
    <g id="xtick_7">
     <g id="line2d_7">
      <g>
       <use xlink:href="#m398cca8821" x="316.832727" y="307.584" style="stroke: #000000; stroke-width: 0.8"/>
      </g>
     </g>
     <g id="text_7">
      <!-- 1500 -->
      <g transform="translate(304.107727 322.182437)scale(0.1 -0.1)">
       <use xlink:href="#DejaVuSans-31"/>
       <use xlink:href="#DejaVuSans-35" x="63.623047"/>
       <use xlink:href="#DejaVuSans-30" x="127.246094"/>
       <use xlink:href="#DejaVuSans-30" x="190.869141"/>
      </g>
     </g>
    </g>
    <g id="xtick_8">
     <g id="line2d_8">
      <g>
       <use xlink:href="#m398cca8821" x="357.741818" y="307.584" style="stroke: #000000; stroke-width: 0.8"/>
      </g>
     </g>
     <g id="text_8">
      <!-- 1750 -->
      <g transform="translate(345.016818 322.182437)scale(0.1 -0.1)">
       <use xlink:href="#DejaVuSans-31"/>
       <use xlink:href="#DejaVuSans-37" x="63.623047"/>
       <use xlink:href="#DejaVuSans-35" x="127.246094"/>
       <use xlink:href="#DejaVuSans-30" x="190.869141"/>
      </g>
     </g>
    </g>
    <g id="xtick_9">
     <g id="line2d_9">
      <g>
       <use xlink:href="#m398cca8821" x="398.650909" y="307.584" style="stroke: #000000; stroke-width: 0.8"/>
      </g>
     </g>
     <g id="text_9">
      <!-- 2000 -->
      <g transform="translate(385.925909 322.182437)scale(0.1 -0.1)">
       <use xlink:href="#DejaVuSans-32"/>
       <use xlink:href="#DejaVuSans-30" x="63.623047"/>
       <use xlink:href="#DejaVuSans-30" x="127.246094"/>
       <use xlink:href="#DejaVuSans-30" x="190.869141"/>
      </g>
     </g>
    </g>
    <g id="text_10">
     <!-- Episode -->
     <g transform="translate(216.5225 335.860562)scale(0.1 -0.1)">
      <defs>
       <path id="DejaVuSans-45" d="M 628 4666 
L 3578 4666 
L 3578 4134 
L 1259 4134 
L 1259 2753 
L 3481 2753 
L 3481 2222 
L 1259 2222 
L 1259 531 
L 3634 531 
L 3634 0 
L 628 0 
L 628 4666 
z
" transform="scale(0.015625)"/>
       <path id="DejaVuSans-70" d="M 1159 525 
L 1159 -1331 
L 581 -1331 
L 581 3500 
L 1159 3500 
L 1159 2969 
Q 1341 3281 1617 3432 
Q 1894 3584 2278 3584 
Q 2916 3584 3314 3078 
Q 3713 2572 3713 1747 
Q 3713 922 3314 415 
Q 2916 -91 2278 -91 
Q 1894 -91 1617 61 
Q 1341 213 1159 525 
z
M 3116 1747 
Q 3116 2381 2855 2742 
Q 2594 3103 2138 3103 
Q 1681 3103 1420 2742 
Q 1159 2381 1159 1747 
Q 1159 1113 1420 752 
Q 1681 391 2138 391 
Q 2594 391 2855 752 
Q 3116 1113 3116 1747 
z
" transform="scale(0.015625)"/>
       <path id="DejaVuSans-69" d="M 603 3500 
L 1178 3500 
L 1178 0 
L 603 0 
L 603 3500 
z
M 603 4863 
L 1178 4863 
L 1178 4134 
L 603 4134 
L 603 4863 
z
" transform="scale(0.015625)"/>
       <path id="DejaVuSans-73" d="M 2834 3397 
L 2834 2853 
Q 2591 2978 2328 3040 
Q 2066 3103 1784 3103 
Q 1356 3103 1142 2972 
Q 928 2841 928 2578 
Q 928 2378 1081 2264 
Q 1234 2150 1697 2047 
L 1894 2003 
Q 2506 1872 2764 1633 
Q 3022 1394 3022 966 
Q 3022 478 2636 193 
Q 2250 -91 1575 -91 
Q 1294 -91 989 -36 
Q 684 19 347 128 
L 347 722 
Q 666 556 975 473 
Q 1284 391 1588 391 
Q 1994 391 2212 530 
Q 2431 669 2431 922 
Q 2431 1156 2273 1281 
Q 2116 1406 1581 1522 
L 1381 1569 
Q 847 1681 609 1914 
Q 372 2147 372 2553 
Q 372 3047 722 3315 
Q 1072 3584 1716 3584 
Q 2034 3584 2315 3537 
Q 2597 3491 2834 3397 
z
" transform="scale(0.015625)"/>
       <path id="DejaVuSans-6f" d="M 1959 3097 
Q 1497 3097 1228 2736 
Q 959 2375 959 1747 
Q 959 1119 1226 758 
Q 1494 397 1959 397 
Q 2419 397 2687 759 
Q 2956 1122 2956 1747 
Q 2956 2369 2687 2733 
Q 2419 3097 1959 3097 
z
M 1959 3584 
Q 2709 3584 3137 3096 
Q 3566 2609 3566 1747 
Q 3566 888 3137 398 
Q 2709 -91 1959 -91 
Q 1206 -91 779 398 
Q 353 888 353 1747 
Q 353 2609 779 3096 
Q 1206 3584 1959 3584 
z
" transform="scale(0.015625)"/>
       <path id="DejaVuSans-64" d="M 2906 2969 
L 2906 4863 
L 3481 4863 
L 3481 0 
L 2906 0 
L 2906 525 
Q 2725 213 2448 61 
Q 2172 -91 1784 -91 
Q 1150 -91 751 415 
Q 353 922 353 1747 
Q 353 2572 751 3078 
Q 1150 3584 1784 3584 
Q 2172 3584 2448 3432 
Q 2725 3281 2906 2969 
z
M 947 1747 
Q 947 1113 1208 752 
Q 1469 391 1925 391 
Q 2381 391 2643 752 
Q 2906 1113 2906 1747 
Q 2906 2381 2643 2742 
Q 2381 3103 1925 3103 
Q 1469 3103 1208 2742 
Q 947 2381 947 1747 
z
" transform="scale(0.015625)"/>
       <path id="DejaVuSans-65" d="M 3597 1894 
L 3597 1613 
L 953 1613 
Q 991 1019 1311 708 
Q 1631 397 2203 397 
Q 2534 397 2845 478 
Q 3156 559 3463 722 
L 3463 178 
Q 3153 47 2828 -22 
Q 2503 -91 2169 -91 
Q 1331 -91 842 396 
Q 353 884 353 1716 
Q 353 2575 817 3079 
Q 1281 3584 2069 3584 
Q 2775 3584 3186 3129 
Q 3597 2675 3597 1894 
z
M 3022 2063 
Q 3016 2534 2758 2815 
Q 2500 3097 2075 3097 
Q 1594 3097 1305 2825 
Q 1016 2553 972 2059 
L 3022 2063 
z
" transform="scale(0.015625)"/>
      </defs>
      <use xlink:href="#DejaVuSans-45"/>
      <use xlink:href="#DejaVuSans-70" x="63.183594"/>
      <use xlink:href="#DejaVuSans-69" x="126.660156"/>
      <use xlink:href="#DejaVuSans-73" x="154.443359"/>
      <use xlink:href="#DejaVuSans-6f" x="206.542969"/>
      <use xlink:href="#DejaVuSans-64" x="267.724609"/>
      <use xlink:href="#DejaVuSans-65" x="331.201172"/>
     </g>
    </g>
   </g>
   <g id="matplotlib.axis_2">
    <g id="ytick_1">
     <g id="line2d_10">
      <defs>
       <path id="m14f23e19a3" d="M 0 0 
L -3.5 0 
" style="stroke: #000000; stroke-width: 0.8"/>
      </defs>
      <g>
       <use xlink:href="#m14f23e19a3" x="57.6" y="302.326895" style="stroke: #000000; stroke-width: 0.8"/>
      </g>
     </g>
     <g id="text_11">
      <!-- 250 -->
      <g transform="translate(31.5125 306.126113)scale(0.1 -0.1)">
       <use xlink:href="#DejaVuSans-32"/>
       <use xlink:href="#DejaVuSans-35" x="63.623047"/>
       <use xlink:href="#DejaVuSans-30" x="127.246094"/>
      </g>
     </g>
    </g>
    <g id="ytick_2">
     <g id="line2d_11">
      <g>
       <use xlink:href="#m14f23e19a3" x="57.6" y="272.554121" style="stroke: #000000; stroke-width: 0.8"/>
      </g>
     </g>
     <g id="text_12">
      <!-- 300 -->
      <g transform="translate(31.5125 276.35334)scale(0.1 -0.1)">
       <defs>
        <path id="DejaVuSans-33" d="M 2597 2516 
Q 3050 2419 3304 2112 
Q 3559 1806 3559 1356 
Q 3559 666 3084 287 
Q 2609 -91 1734 -91 
Q 1441 -91 1130 -33 
Q 819 25 488 141 
L 488 750 
Q 750 597 1062 519 
Q 1375 441 1716 441 
Q 2309 441 2620 675 
Q 2931 909 2931 1356 
Q 2931 1769 2642 2001 
Q 2353 2234 1838 2234 
L 1294 2234 
L 1294 2753 
L 1863 2753 
Q 2328 2753 2575 2939 
Q 2822 3125 2822 3475 
Q 2822 3834 2567 4026 
Q 2313 4219 1838 4219 
Q 1578 4219 1281 4162 
Q 984 4106 628 3988 
L 628 4550 
Q 988 4650 1302 4700 
Q 1616 4750 1894 4750 
Q 2613 4750 3031 4423 
Q 3450 4097 3450 3541 
Q 3450 3153 3228 2886 
Q 3006 2619 2597 2516 
z
" transform="scale(0.015625)"/>
       </defs>
       <use xlink:href="#DejaVuSans-33"/>
       <use xlink:href="#DejaVuSans-30" x="63.623047"/>
       <use xlink:href="#DejaVuSans-30" x="127.246094"/>
      </g>
     </g>
    </g>
    <g id="ytick_3">
     <g id="line2d_12">
      <g>
       <use xlink:href="#m14f23e19a3" x="57.6" y="242.781347" style="stroke: #000000; stroke-width: 0.8"/>
      </g>
     </g>
     <g id="text_13">
      <!-- 350 -->
      <g transform="translate(31.5125 246.580566)scale(0.1 -0.1)">
       <use xlink:href="#DejaVuSans-33"/>
       <use xlink:href="#DejaVuSans-35" x="63.623047"/>
       <use xlink:href="#DejaVuSans-30" x="127.246094"/>
      </g>
     </g>
    </g>
    <g id="ytick_4">
     <g id="line2d_13">
      <g>
       <use xlink:href="#m14f23e19a3" x="57.6" y="213.008573" style="stroke: #000000; stroke-width: 0.8"/>
      </g>
     </g>
     <g id="text_14">
      <!-- 400 -->
      <g transform="translate(31.5125 216.807792)scale(0.1 -0.1)">
       <defs>
        <path id="DejaVuSans-34" d="M 2419 4116 
L 825 1625 
L 2419 1625 
L 2419 4116 
z
M 2253 4666 
L 3047 4666 
L 3047 1625 
L 3713 1625 
L 3713 1100 
L 3047 1100 
L 3047 0 
L 2419 0 
L 2419 1100 
L 313 1100 
L 313 1709 
L 2253 4666 
z
" transform="scale(0.015625)"/>
       </defs>
       <use xlink:href="#DejaVuSans-34"/>
       <use xlink:href="#DejaVuSans-30" x="63.623047"/>
       <use xlink:href="#DejaVuSans-30" x="127.246094"/>
      </g>
     </g>
    </g>
    <g id="ytick_5">
     <g id="line2d_14">
      <g>
       <use xlink:href="#m14f23e19a3" x="57.6" y="183.235799" style="stroke: #000000; stroke-width: 0.8"/>
      </g>
     </g>
     <g id="text_15">
      <!-- 450 -->
      <g transform="translate(31.5125 187.035018)scale(0.1 -0.1)">
       <use xlink:href="#DejaVuSans-34"/>
       <use xlink:href="#DejaVuSans-35" x="63.623047"/>
       <use xlink:href="#DejaVuSans-30" x="127.246094"/>
      </g>
     </g>
    </g>
    <g id="ytick_6">
     <g id="line2d_15">
      <g>
       <use xlink:href="#m14f23e19a3" x="57.6" y="153.463026" style="stroke: #000000; stroke-width: 0.8"/>
      </g>
     </g>
     <g id="text_16">
      <!-- 500 -->
      <g transform="translate(31.5125 157.262244)scale(0.1 -0.1)">
       <use xlink:href="#DejaVuSans-35"/>
       <use xlink:href="#DejaVuSans-30" x="63.623047"/>
       <use xlink:href="#DejaVuSans-30" x="127.246094"/>
      </g>
     </g>
    </g>
    <g id="ytick_7">
     <g id="line2d_16">
      <g>
       <use xlink:href="#m14f23e19a3" x="57.6" y="123.690252" style="stroke: #000000; stroke-width: 0.8"/>
      </g>
     </g>
     <g id="text_17">
      <!-- 550 -->
      <g transform="translate(31.5125 127.489471)scale(0.1 -0.1)">
       <use xlink:href="#DejaVuSans-35"/>
       <use xlink:href="#DejaVuSans-35" x="63.623047"/>
       <use xlink:href="#DejaVuSans-30" x="127.246094"/>
      </g>
     </g>
    </g>
    <g id="ytick_8">
     <g id="line2d_17">
      <g>
       <use xlink:href="#m14f23e19a3" x="57.6" y="93.917478" style="stroke: #000000; stroke-width: 0.8"/>
      </g>
     </g>
     <g id="text_18">
      <!-- 600 -->
      <g transform="translate(31.5125 97.716697)scale(0.1 -0.1)">
       <defs>
        <path id="DejaVuSans-36" d="M 2113 2584 
Q 1688 2584 1439 2293 
Q 1191 2003 1191 1497 
Q 1191 994 1439 701 
Q 1688 409 2113 409 
Q 2538 409 2786 701 
Q 3034 994 3034 1497 
Q 3034 2003 2786 2293 
Q 2538 2584 2113 2584 
z
M 3366 4563 
L 3366 3988 
Q 3128 4100 2886 4159 
Q 2644 4219 2406 4219 
Q 1781 4219 1451 3797 
Q 1122 3375 1075 2522 
Q 1259 2794 1537 2939 
Q 1816 3084 2150 3084 
Q 2853 3084 3261 2657 
Q 3669 2231 3669 1497 
Q 3669 778 3244 343 
Q 2819 -91 2113 -91 
Q 1303 -91 875 529 
Q 447 1150 447 2328 
Q 447 3434 972 4092 
Q 1497 4750 2381 4750 
Q 2619 4750 2861 4703 
Q 3103 4656 3366 4563 
z
" transform="scale(0.015625)"/>
       </defs>
       <use xlink:href="#DejaVuSans-36"/>
       <use xlink:href="#DejaVuSans-30" x="63.623047"/>
       <use xlink:href="#DejaVuSans-30" x="127.246094"/>
      </g>
     </g>
    </g>
    <g id="ytick_9">
     <g id="line2d_18">
      <g>
       <use xlink:href="#m14f23e19a3" x="57.6" y="64.144704" style="stroke: #000000; stroke-width: 0.8"/>
      </g>
     </g>
     <g id="text_19">
      <!-- 650 -->
      <g transform="translate(31.5125 67.943923)scale(0.1 -0.1)">
       <use xlink:href="#DejaVuSans-36"/>
       <use xlink:href="#DejaVuSans-35" x="63.623047"/>
       <use xlink:href="#DejaVuSans-30" x="127.246094"/>
      </g>
     </g>
    </g>
    <g id="text_20">
     <!-- customer/buy_nothing -->
     <g transform="translate(25.154687 230.648313)rotate(-90)scale(0.1 -0.1)">
      <defs>
       <path id="DejaVuSans-63" d="M 3122 3366 
L 3122 2828 
Q 2878 2963 2633 3030 
Q 2388 3097 2138 3097 
Q 1578 3097 1268 2742 
Q 959 2388 959 1747 
Q 959 1106 1268 751 
Q 1578 397 2138 397 
Q 2388 397 2633 464 
Q 2878 531 3122 666 
L 3122 134 
Q 2881 22 2623 -34 
Q 2366 -91 2075 -91 
Q 1284 -91 818 406 
Q 353 903 353 1747 
Q 353 2603 823 3093 
Q 1294 3584 2113 3584 
Q 2378 3584 2631 3529 
Q 2884 3475 3122 3366 
z
" transform="scale(0.015625)"/>
       <path id="DejaVuSans-75" d="M 544 1381 
L 544 3500 
L 1119 3500 
L 1119 1403 
Q 1119 906 1312 657 
Q 1506 409 1894 409 
Q 2359 409 2629 706 
Q 2900 1003 2900 1516 
L 2900 3500 
L 3475 3500 
L 3475 0 
L 2900 0 
L 2900 538 
Q 2691 219 2414 64 
Q 2138 -91 1772 -91 
Q 1169 -91 856 284 
Q 544 659 544 1381 
z
M 1991 3584 
L 1991 3584 
z
" transform="scale(0.015625)"/>
       <path id="DejaVuSans-74" d="M 1172 4494 
L 1172 3500 
L 2356 3500 
L 2356 3053 
L 1172 3053 
L 1172 1153 
Q 1172 725 1289 603 
Q 1406 481 1766 481 
L 2356 481 
L 2356 0 
L 1766 0 
Q 1100 0 847 248 
Q 594 497 594 1153 
L 594 3053 
L 172 3053 
L 172 3500 
L 594 3500 
L 594 4494 
L 1172 4494 
z
" transform="scale(0.015625)"/>
       <path id="DejaVuSans-6d" d="M 3328 2828 
Q 3544 3216 3844 3400 
Q 4144 3584 4550 3584 
Q 5097 3584 5394 3201 
Q 5691 2819 5691 2113 
L 5691 0 
L 5113 0 
L 5113 2094 
Q 5113 2597 4934 2840 
Q 4756 3084 4391 3084 
Q 3944 3084 3684 2787 
Q 3425 2491 3425 1978 
L 3425 0 
L 2847 0 
L 2847 2094 
Q 2847 2600 2669 2842 
Q 2491 3084 2119 3084 
Q 1678 3084 1418 2786 
Q 1159 2488 1159 1978 
L 1159 0 
L 581 0 
L 581 3500 
L 1159 3500 
L 1159 2956 
Q 1356 3278 1631 3431 
Q 1906 3584 2284 3584 
Q 2666 3584 2933 3390 
Q 3200 3197 3328 2828 
z
" transform="scale(0.015625)"/>
       <path id="DejaVuSans-72" d="M 2631 2963 
Q 2534 3019 2420 3045 
Q 2306 3072 2169 3072 
Q 1681 3072 1420 2755 
Q 1159 2438 1159 1844 
L 1159 0 
L 581 0 
L 581 3500 
L 1159 3500 
L 1159 2956 
Q 1341 3275 1631 3429 
Q 1922 3584 2338 3584 
Q 2397 3584 2469 3576 
Q 2541 3569 2628 3553 
L 2631 2963 
z
" transform="scale(0.015625)"/>
       <path id="DejaVuSans-2f" d="M 1625 4666 
L 2156 4666 
L 531 -594 
L 0 -594 
L 1625 4666 
z
" transform="scale(0.015625)"/>
       <path id="DejaVuSans-62" d="M 3116 1747 
Q 3116 2381 2855 2742 
Q 2594 3103 2138 3103 
Q 1681 3103 1420 2742 
Q 1159 2381 1159 1747 
Q 1159 1113 1420 752 
Q 1681 391 2138 391 
Q 2594 391 2855 752 
Q 3116 1113 3116 1747 
z
M 1159 2969 
Q 1341 3281 1617 3432 
Q 1894 3584 2278 3584 
Q 2916 3584 3314 3078 
Q 3713 2572 3713 1747 
Q 3713 922 3314 415 
Q 2916 -91 2278 -91 
Q 1894 -91 1617 61 
Q 1341 213 1159 525 
L 1159 0 
L 581 0 
L 581 4863 
L 1159 4863 
L 1159 2969 
z
" transform="scale(0.015625)"/>
       <path id="DejaVuSans-79" d="M 2059 -325 
Q 1816 -950 1584 -1140 
Q 1353 -1331 966 -1331 
L 506 -1331 
L 506 -850 
L 844 -850 
Q 1081 -850 1212 -737 
Q 1344 -625 1503 -206 
L 1606 56 
L 191 3500 
L 800 3500 
L 1894 763 
L 2988 3500 
L 3597 3500 
L 2059 -325 
z
" transform="scale(0.015625)"/>
       <path id="DejaVuSans-5f" d="M 3263 -1063 
L 3263 -1509 
L -63 -1509 
L -63 -1063 
L 3263 -1063 
z
" transform="scale(0.015625)"/>
       <path id="DejaVuSans-6e" d="M 3513 2113 
L 3513 0 
L 2938 0 
L 2938 2094 
Q 2938 2591 2744 2837 
Q 2550 3084 2163 3084 
Q 1697 3084 1428 2787 
Q 1159 2491 1159 1978 
L 1159 0 
L 581 0 
L 581 3500 
L 1159 3500 
L 1159 2956 
Q 1366 3272 1645 3428 
Q 1925 3584 2291 3584 
Q 2894 3584 3203 3211 
Q 3513 2838 3513 2113 
z
" transform="scale(0.015625)"/>
       <path id="DejaVuSans-68" d="M 3513 2113 
L 3513 0 
L 2938 0 
L 2938 2094 
Q 2938 2591 2744 2837 
Q 2550 3084 2163 3084 
Q 1697 3084 1428 2787 
Q 1159 2491 1159 1978 
L 1159 0 
L 581 0 
L 581 4863 
L 1159 4863 
L 1159 2956 
Q 1366 3272 1645 3428 
Q 1925 3584 2291 3584 
Q 2894 3584 3203 3211 
Q 3513 2838 3513 2113 
z
" transform="scale(0.015625)"/>
       <path id="DejaVuSans-67" d="M 2906 1791 
Q 2906 2416 2648 2759 
Q 2391 3103 1925 3103 
Q 1463 3103 1205 2759 
Q 947 2416 947 1791 
Q 947 1169 1205 825 
Q 1463 481 1925 481 
Q 2391 481 2648 825 
Q 2906 1169 2906 1791 
z
M 3481 434 
Q 3481 -459 3084 -895 
Q 2688 -1331 1869 -1331 
Q 1566 -1331 1297 -1286 
Q 1028 -1241 775 -1147 
L 775 -588 
Q 1028 -725 1275 -790 
Q 1522 -856 1778 -856 
Q 2344 -856 2625 -561 
Q 2906 -266 2906 331 
L 2906 616 
Q 2728 306 2450 153 
Q 2172 0 1784 0 
Q 1141 0 747 490 
Q 353 981 353 1791 
Q 353 2603 747 3093 
Q 1141 3584 1784 3584 
Q 2172 3584 2450 3431 
Q 2728 3278 2906 2969 
L 2906 3500 
L 3481 3500 
L 3481 434 
z
" transform="scale(0.015625)"/>
      </defs>
      <use xlink:href="#DejaVuSans-63"/>
      <use xlink:href="#DejaVuSans-75" x="54.980469"/>
      <use xlink:href="#DejaVuSans-73" x="118.359375"/>
      <use xlink:href="#DejaVuSans-74" x="170.458984"/>
      <use xlink:href="#DejaVuSans-6f" x="209.667969"/>
      <use xlink:href="#DejaVuSans-6d" x="270.849609"/>
      <use xlink:href="#DejaVuSans-65" x="368.261719"/>
      <use xlink:href="#DejaVuSans-72" x="429.785156"/>
      <use xlink:href="#DejaVuSans-2f" x="470.898438"/>
      <use xlink:href="#DejaVuSans-62" x="504.589844"/>
      <use xlink:href="#DejaVuSans-75" x="568.066406"/>
      <use xlink:href="#DejaVuSans-79" x="631.445312"/>
      <use xlink:href="#DejaVuSans-5f" x="690.625"/>
      <use xlink:href="#DejaVuSans-6e" x="740.625"/>
      <use xlink:href="#DejaVuSans-6f" x="804.003906"/>
      <use xlink:href="#DejaVuSans-74" x="865.185547"/>
      <use xlink:href="#DejaVuSans-68" x="904.394531"/>
      <use xlink:href="#DejaVuSans-69" x="967.773438"/>
      <use xlink:href="#DejaVuSans-6e" x="995.556641"/>
      <use xlink:href="#DejaVuSans-67" x="1058.935547"/>
     </g>
    </g>
   </g>
   <g id="line2d_19">
    <path d="M 73.832727 249.629085 
L 74.487273 213.991075 
L 75.469091 176.342257 
L 75.796364 166.584312 
L 76.450909 150.65322 
L 77.596364 127.522542 
L 78.250909 118.940456 
L 79.232727 105.158219 
L 79.396364 103.12322 
L 79.56 102.825959 
L 80.050909 97.920262 
L 80.214545 97.479384 
L 80.378182 97.745406 
L 80.705455 96.525162 
L 80.869091 97.702153 
L 81.196364 94.05414 
L 81.36 94.397684 
L 81.687273 90.875073 
L 81.850909 91.004327 
L 82.014545 89.785378 
L 82.341818 90.020747 
L 82.669091 87.792793 
L 82.832727 87.602295 
L 82.996364 87.880221 
L 83.16 87.506135 
L 83.323636 86.675452 
L 83.487273 86.597345 
L 83.814545 84.714984 
L 84.141818 85.973047 
L 84.469091 82.883173 
L 84.96 82.086345 
L 85.287273 82.139923 
L 85.614545 83.043649 
L 85.941818 81.406297 
L 86.269091 80.959849 
L 86.432727 80.298835 
L 86.596364 78.974079 
L 86.923636 79.111726 
L 87.087273 79.681795 
L 87.250909 79.456416 
L 87.414545 79.885179 
L 87.578182 79.924274 
L 87.741818 79.832893 
L 89.214545 58.290375 
L 89.378182 57.500364 
L 89.705455 54.493609 
L 89.869091 53.632852 
L 90.196364 53.591582 
L 90.36 53.709494 
L 90.687273 55.525339 
L 90.850909 54.35801 
L 91.014545 54.287263 
L 91.341818 55.065482 
L 91.669091 56.167959 
L 91.832727 56.256393 
L 91.996364 56.71625 
L 92.323636 55.772954 
L 92.487273 56.109003 
L 92.650909 56.044151 
L 92.978182 57.612381 
L 93.305455 59.310313 
L 93.469091 60.059054 
L 93.632727 59.705318 
L 94.941818 66.019505 
L 95.269091 68.548716 
L 95.432727 68.702002 
L 95.923636 71.083824 
L 96.087273 70.60628 
L 96.741818 73.135492 
L 96.905455 72.746383 
L 97.069091 73.129597 
L 97.232727 72.887877 
L 97.396364 72.203988 
L 97.723636 73.618931 
L 97.887273 73.536393 
L 98.050909 75.700078 
L 98.378182 76.336802 
L 98.541818 76.95584 
L 98.869091 76.566731 
L 99.032727 78.046526 
L 99.36 78.718624 
L 99.523636 78.612504 
L 99.687273 79.944909 
L 99.850909 79.939013 
L 100.014545 80.770293 
L 100.341818 83.216966 
L 100.505455 82.432852 
L 100.669091 82.892708 
L 100.996364 87.037314 
L 101.487273 87.815533 
L 101.814545 88.976966 
L 102.141818 87.68583 
L 102.632727 90.273998 
L 102.96 91.400057 
L 103.287273 93.39277 
L 103.450909 94.294796 
L 103.614545 94.123824 
L 103.778182 94.713384 
L 103.941818 94.760549 
L 104.596364 97.148266 
L 104.76 97.118788 
L 104.923636 97.743722 
L 105.414545 101.080631 
L 105.578182 101.298768 
L 105.741818 102.601695 
L 105.905455 102.855206 
L 106.069091 104.140446 
L 106.396364 104.900979 
L 106.56 103.892831 
L 106.723636 104.128655 
L 106.887273 104.883292 
L 107.050909 104.52366 
L 107.214545 105.189863 
L 107.378182 106.899586 
L 107.541818 106.551746 
L 107.705455 107.630641 
L 107.869091 107.642432 
L 108.36 110.089105 
L 108.523636 110.307243 
L 109.178182 115.147529 
L 109.505455 113.37885 
L 109.669091 113.667734 
L 109.996364 116.297171 
L 110.16 115.807836 
L 110.323636 116.998747 
L 110.487273 117.140242 
L 110.650909 117.835922 
L 110.814545 117.712115 
L 110.978182 118.625932 
L 111.141818 118.8028 
L 111.305455 119.180119 
L 111.469091 120.146997 
L 111.632727 120.317969 
L 111.796364 119.68714 
L 112.123636 121.962841 
L 112.287273 121.844929 
L 112.450909 122.499341 
L 112.778182 124.763251 
L 112.941818 124.999075 
L 113.269091 126.909249 
L 114.250909 132.350886 
L 114.578182 133.700979 
L 114.741818 134.962637 
L 114.905455 134.231582 
L 115.232727 136.065114 
L 115.396364 136.37758 
L 115.56 137.161695 
L 115.723636 136.984827 
L 115.887273 136.147652 
L 116.050909 137.120426 
L 116.214545 136.41885 
L 116.378182 137.857376 
L 116.541818 137.202964 
L 116.705455 137.338563 
L 117.196364 139.997478 
L 117.523636 139.962104 
L 118.014545 142.414673 
L 118.178182 142.402882 
L 118.505455 144.896721 
L 118.832727 147.467202 
L 118.996364 147.838624 
L 119.814545 152.266219 
L 119.978182 152.743763 
L 120.305455 154.311992 
L 120.469091 154.382739 
L 120.96 156.334182 
L 121.123636 157.460242 
L 121.287273 157.183148 
L 121.450909 158.032115 
L 121.614545 157.920098 
L 122.269091 160.136843 
L 122.923636 161.48104 
L 123.250909 164.051521 
L 123.741818 165.938113 
L 123.905455 165.590272 
L 124.069091 167.488655 
L 124.232727 167.848287 
L 124.56 170.017867 
L 125.214545 173.661347 
L 125.378182 172.647304 
L 125.541818 173.089474 
L 125.869091 175.789658 
L 126.196364 178.914325 
L 126.36 179.079402 
L 126.523636 178.731562 
L 126.687273 180.352852 
L 126.850909 179.946055 
L 127.341818 182.663926 
L 127.505455 183.117887 
L 127.669091 184.1732 
L 127.996364 187.256598 
L 128.16 188.353179 
L 128.323636 190.841122 
L 128.650909 192.373977 
L 129.141818 195.976188 
L 129.305455 196.724929 
L 129.469091 198.316741 
L 129.632727 198.352115 
L 129.96 200.226915 
L 130.287273 202.172463 
L 130.450909 202.490825 
L 130.614545 203.221879 
L 130.941818 205.59191 
L 131.269091 206.906628 
L 131.432727 208.757846 
L 131.596364 208.59277 
L 131.76 208.244929 
L 132.414545 211.959157 
L 132.578182 212.53103 
L 133.069091 216.781756 
L 133.887273 220.767181 
L 134.050909 220.16583 
L 134.214545 220.714121 
L 134.378182 221.651521 
L 134.541818 220.991214 
L 135.032727 222.742207 
L 135.196364 222.889597 
L 135.36 223.891849 
L 135.523636 223.408409 
L 136.669091 227.440999 
L 136.832727 228.001081 
L 137.16 230.589249 
L 137.650909 231.986506 
L 137.814545 233.89668 
L 138.141818 235.028635 
L 138.632727 237.439934 
L 138.96 238.353752 
L 139.287273 240.063476 
L 139.450909 238.790027 
L 139.778182 240.222657 
L 139.941818 239.544663 
L 140.269091 240.493855 
L 140.432727 242.722391 
L 140.596364 243.418072 
L 141.250909 244.019423 
L 141.414545 244.432115 
L 141.578182 245.410784 
L 141.741818 244.249351 
L 141.905455 246.731398 
L 142.56 248.517765 
L 142.723636 248.641572 
L 142.887273 249.307775 
L 143.214545 251.058768 
L 143.869091 253.304991 
L 144.032727 253.192974 
L 144.196364 253.58798 
L 144.523636 252.520876 
L 144.850909 253.381634 
L 145.014545 253.829699 
L 145.178182 253.487754 
L 145.341818 253.422903 
L 145.996364 254.466424 
L 146.323636 255.657335 
L 146.978182 256.630108 
L 147.141818 257.302207 
L 147.305455 257.131234 
L 147.469091 257.543926 
L 147.632727 257.426014 
L 147.96 257.933036 
L 148.123636 258.740733 
L 148.450909 261.287632 
L 148.614545 261.352483 
L 148.778182 261.936147 
L 148.941818 264.500733 
L 149.105455 264.807304 
L 149.269091 264.500733 
L 149.432727 264.577376 
L 149.596364 263.003251 
L 149.923636 263.362882 
L 150.087273 261.871296 
L 150.414545 262.89713 
L 150.578182 264.995963 
L 150.905455 265.355595 
L 151.069091 267.466219 
L 151.232727 267.937867 
L 151.396364 268.038092 
L 151.56 267.690252 
L 151.723636 268.049883 
L 151.887273 267.873015 
L 152.050909 269.500201 
L 152.378182 269.730129 
L 152.705455 269.494305 
L 152.869091 270.172299 
L 153.032727 270.366854 
L 153.196364 270.744172 
L 153.36 271.604929 
L 153.523636 271.36321 
L 153.687273 270.838502 
L 154.014545 271.669781 
L 154.178182 271.646199 
L 154.505455 272.182698 
L 155.16 273.509208 
L 155.323636 273.108307 
L 155.650909 273.815779 
L 155.814545 273.049351 
L 155.978182 275.218931 
L 156.141818 275.348635 
L 156.305455 274.287427 
L 156.469091 275.389904 
L 156.632727 275.655206 
L 156.96 274.735492 
L 157.123636 274.888778 
L 157.450909 274.871091 
L 157.614545 275.124602 
L 157.778182 274.759075 
L 157.941818 274.935943 
L 158.105455 274.835718 
L 158.269091 276.657458 
L 158.432727 276.427529 
L 158.76 275.560876 
L 158.923636 275.696475 
L 159.087273 274.941838 
L 159.414545 275.15408 
L 159.741818 275.578563 
L 159.905455 276.303722 
L 160.232727 275.578563 
L 160.56 275.790805 
L 160.723636 275.902821 
L 161.050909 276.43932 
L 161.214545 276.18581 
L 161.378182 276.321408 
L 161.541818 276.297826 
L 161.705455 277.034776 
L 161.869091 276.775369 
L 162.196364 274.110559 
L 162.36 274.36407 
L 162.687273 273.067038 
L 163.014545 272.925544 
L 163.178182 273.002186 
L 163.505455 273.638911 
L 163.669091 272.966813 
L 163.832727 273.291071 
L 163.996364 273.33234 
L 164.16 273.503312 
L 164.323636 273.910108 
L 164.487273 273.739136 
L 164.814545 274.187202 
L 165.141818 273.927795 
L 165.469091 273.969064 
L 165.632727 273.833466 
L 165.796364 274.134141 
L 165.96 273.350027 
L 166.287273 273.143681 
L 166.450909 273.344131 
L 166.614545 275.030272 
L 166.778182 275.071541 
L 167.105455 274.287427 
L 167.269091 274.334592 
L 167.432727 274.033916 
L 167.596364 274.092872 
L 167.923636 274.829822 
L 168.250909 273.821675 
L 168.414545 273.880631 
L 168.578182 273.249801 
L 168.741818 273.721449 
L 168.905455 273.733241 
L 169.232727 274.694223 
L 169.396364 272.725093 
L 169.56 272.666137 
L 169.887273 272.070682 
L 170.050909 272.24755 
L 170.214545 272.801736 
L 170.378182 272.789945 
L 171.032727 273.114203 
L 171.687273 272.389044 
L 171.850909 273.078829 
L 172.014545 273.108307 
L 172.178182 272.565912 
L 172.341818 273.609433 
L 172.505455 273.77451 
L 172.669091 273.656598 
L 172.832727 274.464295 
L 172.996364 274.582207 
L 173.16 274.051603 
L 173.323636 273.933691 
L 173.487273 274.016229 
L 173.650909 273.886526 
L 173.814545 274.305114 
L 173.978182 274.311009 
L 174.141818 274.493773 
L 174.305455 275.189453 
L 174.469091 274.894673 
L 174.796364 275.000794 
L 174.96 275.15408 
L 175.123636 275.484233 
L 175.287273 275.266096 
L 176.269091 276.846117 
L 176.923636 277.942698 
L 177.087273 278.208 
L 177.250909 278.101879 
L 177.578182 279.068757 
L 177.741818 279.1454 
L 177.905455 278.94495 
L 178.069091 279.051071 
L 178.232727 278.862411 
L 178.396364 279.198461 
L 178.723636 281.70409 
L 178.887273 281.786628 
L 179.214545 282.959853 
L 179.378182 282.88321 
L 179.541818 283.060078 
L 179.869091 282.470518 
L 180.032727 282.405666 
L 180.196364 283.095451 
L 180.36 283.060078 
L 180.850909 282.718133 
L 181.014545 283.142616 
L 181.341818 282.4941 
L 181.505455 282.824254 
L 181.669091 282.116782 
L 181.832727 281.922227 
L 181.996364 282.004766 
L 182.323636 282.464622 
L 182.487273 282.535369 
L 182.650909 284.46323 
L 182.978182 284.174346 
L 183.305455 282.558952 
L 183.469091 282.78888 
L 183.796364 283.490456 
L 183.96 283.773445 
L 184.123636 282.753507 
L 184.450909 282.317232 
L 184.778182 284.056434 
L 184.941818 284.162555 
L 185.105455 284.728532 
L 185.596364 284.398379 
L 185.76 284.75801 
L 185.923636 286.143476 
L 186.087273 286.249597 
L 186.250909 286.791992 
L 186.414545 286.827365 
L 186.578182 286.567959 
L 186.741818 286.538481 
L 187.069091 286.762514 
L 187.396364 286.208328 
L 187.56 285.93713 
L 187.723636 286.17885 
L 187.887273 286.119894 
L 188.214545 286.503107 
L 188.541818 286.290866 
L 188.705455 286.314448 
L 188.869091 286.503107 
L 189.032727 286.444151 
L 189.196364 286.544377 
L 189.687273 287.770661 
L 189.850909 288.448655 
L 190.014545 287.912156 
L 190.341818 287.971112 
L 190.669091 287.399238 
L 190.832727 287.269535 
L 190.996364 287.534837 
L 191.16 287.375656 
L 191.487273 287.587898 
L 192.141818 289.445011 
L 192.469091 288.784704 
L 192.796364 288.596045 
L 192.96 288.089024 
L 193.123636 288.20104 
L 193.287273 288.159771 
L 193.450909 287.422821 
L 193.614545 287.328491 
L 193.941818 286.803783 
L 194.105455 286.697662 
L 194.269091 286.980651 
L 194.596364 286.951173 
L 194.923636 287.428716 
L 195.250909 287.157519 
L 195.414545 287.186997 
L 195.578182 286.544377 
L 195.741818 286.662289 
L 196.232727 286.043251 
L 196.56 286.367509 
L 196.723636 285.866383 
L 197.214545 286.226014 
L 197.541818 285.925339 
L 197.705455 286.650497 
L 197.869091 286.809679 
L 198.032727 286.644602 
L 198.196364 287.540733 
L 198.36 287.658645 
L 198.850909 287.499464 
L 199.014545 288.54888 
L 199.341818 288.725748 
L 199.505455 288.708061 
L 199.832727 290.323455 
L 200.323636 289.539341 
L 200.487273 289.728 
L 200.650909 290.789208 
L 200.814545 290.889433 
L 201.469091 290.37062 
L 201.632727 290.423681 
L 201.796364 290.276291 
L 202.123636 290.459054 
L 202.287273 290.252708 
L 202.450909 290.565175 
L 202.941818 289.940242 
L 203.269091 290.453159 
L 203.432727 290.211439 
L 203.596364 290.187857 
L 203.923636 289.28583 
L 204.087273 289.315308 
L 204.905455 288.767017 
L 205.069091 288.767017 
L 205.232727 289.08538 
L 205.723636 288.837765 
L 205.887273 289.002841 
L 206.214545 288.419177 
L 206.378182 288.419177 
L 206.705455 289.356577 
L 206.869091 289.28583 
L 207.196364 289.798747 
L 207.36 289.92845 
L 207.687273 289.786956 
L 207.850909 288.908512 
L 208.178182 289.321204 
L 208.341818 288.731644 
L 208.669091 288.554776 
L 208.832727 288.472237 
L 208.996364 288.560671 
L 209.650909 288.466342 
L 209.814545 288.206936 
L 209.978182 288.814182 
L 210.141818 288.825973 
L 210.305455 289.33889 
L 210.96 289.220979 
L 211.123636 289.167918 
L 211.287273 289.238665 
L 211.450909 289.002841 
L 211.614545 289.055902 
L 211.778182 289.297621 
L 211.941818 289.297621 
L 212.105455 289.810538 
L 212.269091 289.533445 
L 212.76 290.453159 
L 213.087273 290.31756 
L 213.250909 291.013241 
L 213.578182 291.172422 
L 213.741818 291.036823 
L 213.905455 291.25496 
L 214.069091 291.225482 
L 214.232727 291.390559 
L 214.396364 290.989658 
L 214.723636 291.25496 
L 214.887273 291.184213 
L 215.050909 291.260856 
L 215.214545 291.184213 
L 215.378182 291.260856 
L 215.541818 290.971971 
L 215.869091 290.995554 
L 216.523636 289.798747 
L 216.687273 290.099423 
L 216.850909 290.087632 
L 217.014545 289.910764 
L 217.178182 290.010989 
L 217.341818 289.922555 
L 217.505455 289.610088 
L 217.832727 289.43322 
L 217.996364 289.680835 
L 218.16 289.498072 
L 218.323636 289.745687 
L 218.814545 289.786956 
L 219.305455 290.423681 
L 219.632727 290.229126 
L 219.796364 289.845912 
L 219.96 290.058154 
L 220.123636 290.087632 
L 220.450909 291.384663 
L 220.778182 290.948389 
L 221.105455 290.706669 
L 221.596364 291.166526 
L 221.76 291.296229 
L 221.923636 291.078092 
L 222.250909 291.142944 
L 222.414545 290.730252 
L 222.905455 291.125257 
L 223.232727 290.659505 
L 223.723636 290.547488 
L 224.050909 290.594653 
L 224.214545 290.553384 
L 224.378182 291.284438 
L 224.705455 290.800999 
L 224.869091 291.272647 
L 225.032727 291.325707 
L 225.523636 291.761982 
L 225.687273 291.714817 
L 226.014545 291.431828 
L 226.341818 291.313916 
L 226.505455 291.443619 
L 226.832727 291.036823 
L 226.996364 291.266751 
L 227.16 291.101675 
L 227.650909 291.319812 
L 227.814545 291.101675 
L 227.978182 291.083988 
L 228.796364 290.429576 
L 228.96 290.37062 
L 229.123636 290.181961 
L 229.287273 290.382411 
L 229.450909 290.347038 
L 229.614545 290.523906 
L 229.941818 289.851808 
L 230.105455 289.840016 
L 230.432727 289.503967 
L 230.596364 289.728 
L 230.76 289.386055 
L 230.923636 289.639566 
L 231.250909 288.7906 
L 231.741818 288.802391 
L 231.905455 288.820078 
L 232.232727 289.020528 
L 232.723636 289.150231 
L 232.887273 288.908512 
L 233.050909 289.002841 
L 233.214545 288.879034 
L 233.378182 289.067693 
L 233.705455 288.637314 
L 233.869091 288.743435 
L 234.196364 289.551132 
L 234.36 289.592401 
L 234.523636 289.462698 
L 234.687273 289.722104 
L 234.850909 289.327099 
L 235.014545 289.327099 
L 235.341818 289.026424 
L 235.505455 288.584254 
L 235.669091 288.513507 
L 235.832727 288.318952 
L 235.996364 288.354325 
L 236.814545 287.623271 
L 236.978182 287.670436 
L 237.469091 288.560671 
L 237.632727 288.625523 
L 237.96 288.501715 
L 238.123636 288.666792 
L 238.287273 288.54888 
L 238.778182 288.761122 
L 238.941818 289.315308 
L 239.105455 289.203292 
L 239.269091 289.362473 
L 239.432727 289.032319 
L 239.596364 289.179709 
L 239.76 288.566567 
L 239.923636 288.54888 
L 240.087273 288.755226 
L 240.414545 288.259996 
L 240.741818 288.242309 
L 241.069091 288.10671 
L 241.56 288.69627 
L 242.050909 288.884929 
L 242.214545 288.708061 
L 242.378182 288.743435 
L 243.196364 290.158379 
L 243.687273 289.692626 
L 244.505455 290.02278 
L 244.832727 289.686731 
L 245.323636 290.565175 
L 245.487273 290.6654 
L 245.650909 290.576966 
L 245.814545 290.193752 
L 245.978182 290.358829 
L 246.141818 289.067693 
L 246.305455 289.391951 
L 246.469091 289.114858 
L 246.632727 289.191501 
L 246.796364 289.509863 
L 246.96 289.344786 
L 247.123636 289.002841 
L 247.287273 289.279934 
L 247.450909 289.268143 
L 247.778182 290.293977 
L 247.941818 290.099423 
L 248.76 290.305769 
L 249.087273 290.535697 
L 249.250909 290.523906 
L 249.414545 290.936598 
L 249.578182 290.547488 
L 249.741818 290.588757 
L 250.069091 291.266751 
L 250.232727 290.989658 
L 250.887273 291.101675 
L 251.050909 291.425932 
L 251.214545 291.060405 
L 251.378182 291.40235 
L 251.541818 291.408246 
L 252.032727 292.28669 
L 252.196364 292.056762 
L 252.687273 293.0767 
L 253.178182 293.359689 
L 253.341818 293.265359 
L 253.505455 293.454018 
L 253.669091 293.200508 
L 253.832727 293.31842 
L 253.996364 292.935206 
L 254.16 292.917519 
L 254.323636 293.017744 
L 254.487273 292.78192 
L 254.650909 292.840876 
L 254.814545 292.722964 
L 254.978182 292.92931 
L 255.141818 292.605052 
L 255.305455 292.646321 
L 255.469091 292.351541 
L 255.796364 292.463558 
L 255.96 292.705277 
L 256.123636 292.675799 
L 256.287273 293.17103 
L 256.450909 293.182821 
L 257.105455 294.008205 
L 257.269091 293.984622 
L 257.432727 294.10843 
L 257.596364 294.090743 
L 257.76 293.784172 
L 257.923636 293.754694 
L 258.087273 293.860815 
L 258.414545 293.512974 
L 258.905455 293.966936 
L 259.069091 293.784172 
L 259.396364 294.073056 
L 259.56 293.837232 
L 259.723636 293.807754 
L 259.887273 294.073056 
L 260.214545 294.214551 
L 260.378182 293.978727 
L 260.541818 293.966936 
L 260.705455 293.695738 
L 261.032727 293.784172 
L 261.196364 294.432688 
L 261.36 294.397314 
L 261.523636 293.76059 
L 262.014545 293.925666 
L 262.178182 293.766485 
L 262.341818 294.037683 
L 262.505455 293.86671 
L 262.669091 294.780528 
L 262.832727 294.692094 
L 262.996364 295.163742 
L 263.487273 295.281654 
L 263.650909 295.488 
L 263.814545 295.429044 
L 263.978182 295.181429 
L 264.469091 295.034039 
L 265.287273 293.57193 
L 265.614545 293.306628 
L 265.778182 293.51887 
L 265.941818 293.300733 
L 266.269091 293.778276 
L 266.432727 293.235881 
L 266.596364 293.265359 
L 266.923636 293.919771 
L 267.414545 292.982371 
L 267.578182 292.510723 
L 267.741818 292.534305 
L 267.905455 292.263107 
L 268.396364 292.322063 
L 268.723636 291.608696 
L 268.887273 291.45541 
L 269.050909 291.473097 
L 269.541818 290.235021 
L 269.705455 290.282186 
L 269.869091 290.576966 
L 270.032727 290.282186 
L 270.36 290.777417 
L 270.850909 290.240917 
L 271.014545 290.22323 
L 271.178182 289.63367 
L 271.341818 289.828225 
L 271.505455 289.179709 
L 271.669091 289.291726 
L 271.832727 289.226874 
L 272.16 289.409638 
L 272.487273 289.073589 
L 272.650909 289.244561 
L 272.978182 288.99105 
L 273.469091 288.283578 
L 273.632727 288.030068 
L 273.96 288.590149 
L 274.287273 288.802391 
L 274.614545 287.806035 
L 274.941818 288.065441 
L 275.269091 287.446403 
L 275.432727 287.334387 
L 275.596364 287.576106 
L 275.76 286.962964 
L 275.923636 286.927591 
L 276.250909 286.597437 
L 276.414545 286.733036 
L 276.578182 286.650497 
L 277.232727 287.717601 
L 277.56 287.847304 
L 277.887273 286.898113 
L 278.378182 287.36976 
L 278.541818 286.957069 
L 278.705455 287.128041 
L 278.869091 287.004233 
L 279.196364 286.373404 
L 279.36 286.585646 
L 279.523636 286.338031 
L 279.687273 286.32624 
L 279.850909 286.184745 
L 280.014545 285.742575 
L 280.178182 286.019668 
L 280.341818 285.943026 
L 280.505455 286.338031 
L 280.669091 285.760262 
L 280.832727 285.648246 
L 281.16 286.001982 
L 281.487273 286.803783 
L 281.650909 286.461838 
L 282.141818 286.744827 
L 282.469091 286.951173 
L 282.96 286.161163 
L 283.287273 286.361613 
L 283.450909 285.954817 
L 283.614545 285.931234 
L 283.941818 286.485421 
L 284.596364 286.255492 
L 284.923636 285.612872 
L 285.250909 286.355718 
L 285.414545 286.408778 
L 285.578182 286.007877 
L 285.741818 286.172954 
L 286.069091 286.850948 
L 286.396364 286.261388 
L 286.56 286.503107 
L 286.723636 286.066833 
L 286.887273 286.019668 
L 287.050909 286.108102 
L 287.378182 285.831009 
L 287.541818 285.754366 
L 287.705455 286.184745 
L 287.869091 286.143476 
L 288.196364 287.186997 
L 288.36 287.428716 
L 288.687273 287.122145 
L 288.850909 286.738931 
L 289.014545 286.72714 
L 289.178182 286.396987 
L 289.341818 286.650497 
L 289.505455 287.110354 
L 289.669091 286.72714 
L 289.996364 287.240057 
L 290.323636 287.122145 
L 290.650909 286.750723 
L 290.814545 286.82147 
L 290.978182 286.23191 
L 291.141818 286.52669 
L 291.305455 286.57975 
L 291.469091 286.226014 
L 291.632727 286.273179 
L 292.614545 285.813322 
L 293.105455 286.17885 
L 293.923636 284.433752 
L 294.087273 284.239198 
L 294.578182 285.430108 
L 294.741818 284.993834 
L 294.905455 284.993834 
L 295.232727 285.270927 
L 295.396364 285.447795 
L 295.723636 286.025564 
L 295.887273 285.571603 
L 296.050909 285.553916 
L 296.214545 285.176598 
L 296.378182 284.492708 
L 296.541818 285.05279 
L 296.705455 284.769801 
L 296.869091 284.787488 
L 297.032727 284.510395 
L 297.196364 284.934878 
L 297.36 284.634203 
L 297.687273 284.681367 
L 298.178182 284.451439 
L 298.505455 284.032852 
L 298.669091 284.056434 
L 298.832727 284.298154 
L 298.996364 284.321736 
L 299.16 284.793384 
L 299.323636 284.793384 
L 299.487273 284.982043 
L 299.814545 284.622411 
L 299.978182 284.811071 
L 300.141818 284.816966 
L 300.305455 284.55756 
L 300.632727 285.276823 
L 300.96 284.822862 
L 301.123636 285.040999 
L 301.287273 284.746219 
L 301.450909 285.211971 
L 301.614545 285.14712 
L 301.778182 284.917191 
L 301.941818 285.335779 
L 302.105455 285.377048 
L 302.269091 285.217867 
L 302.432727 285.341675 
L 303.087273 286.444151 
L 303.250909 286.408778 
L 303.414545 286.049146 
L 303.578182 286.13758 
L 303.741818 286.509003 
L 303.905455 286.249597 
L 304.069091 286.332135 
L 304.232727 286.626915 
L 304.56 286.391091 
L 304.723636 286.290866 
L 304.887273 285.813322 
L 305.050909 285.825114 
L 305.705455 286.473629 
L 306.032727 285.689515 
L 306.196364 286.237806 
L 306.523636 286.155267 
L 306.850909 285.966608 
L 307.014545 285.99019 
L 307.178182 285.73668 
L 307.341818 285.99019 
L 307.505455 287.02192 
L 307.669091 287.092667 
L 307.832727 287.010129 
L 307.996364 287.51715 
L 308.16 287.487672 
L 308.487273 287.699914 
L 308.650909 287.652749 
L 308.814545 287.8532 
L 309.141818 287.841408 
L 309.305455 288.00059 
L 309.632727 287.888573 
L 309.796364 287.682227 
L 309.96 287.729392 
L 310.287273 288.230518 
L 310.450909 288.377908 
L 310.614545 288.012381 
L 310.778182 288.159771 
L 310.941818 287.994694 
L 311.105455 288.171562 
L 311.269091 288.690375 
L 311.432727 288.684479 
L 311.76 288.212831 
L 312.087273 288.265892 
L 312.414545 288.584254 
L 312.578182 288.542985 
L 312.905455 289.922555 
L 313.396364 289.014633 
L 313.56 289.215083 
L 313.723636 289.073589 
L 313.887273 289.692626 
L 314.050909 289.445011 
L 314.378182 288.637314 
L 314.541818 288.195144 
L 314.705455 288.814182 
L 314.869091 288.725748 
L 315.032727 289.132545 
L 315.196364 288.996946 
L 315.36 288.454551 
L 315.523636 288.731644 
L 315.687273 288.49582 
L 315.850909 288.649105 
L 316.178182 288.248205 
L 316.341818 288.454551 
L 316.505455 288.354325 
L 316.832727 288.607836 
L 317.16 288.018276 
L 317.487273 288.884929 
L 317.650909 288.54888 
L 317.814545 289.079484 
L 317.978182 288.873138 
L 318.141818 288.949781 
L 318.305455 289.362473 
L 318.469091 289.073589 
L 318.632727 289.055902 
L 318.796364 289.256352 
L 319.287273 288.896721 
L 319.450909 288.206936 
L 319.614545 288.171562 
L 320.105455 288.649105 
L 320.269091 288.513507 
L 320.432727 288.713957 
L 320.76 287.51715 
L 321.250909 287.287222 
L 321.578182 287.988798 
L 322.069091 287.658645 
L 322.232727 287.729392 
L 322.396364 288.313056 
L 322.56 288.40149 
L 322.723636 288.224622 
L 322.887273 287.682227 
L 323.050909 287.599689 
L 323.214545 287.847304 
L 323.541818 287.652749 
L 323.705455 287.95932 
L 323.869091 287.505359 
L 324.196364 287.304909 
L 324.523636 286.52669 
L 324.687273 286.703558 
L 324.850909 286.591541 
L 325.341818 286.756618 
L 326.16 286.025564 
L 326.323636 286.615124 
L 326.487273 286.343926 
L 326.650909 286.32624 
L 326.814545 285.742575 
L 326.978182 285.8428 
L 327.141818 285.742575 
L 327.469091 284.533977 
L 327.632727 284.551664 
L 327.796364 284.156659 
L 328.123636 284.657785 
L 328.450909 284.351214 
L 328.614545 284.504499 
L 328.941818 283.909044 
L 329.105455 284.026956 
L 329.269091 283.826506 
L 329.76 283.91494 
L 329.923636 283.643742 
L 330.087273 283.696802 
L 330.414545 282.505892 
L 330.741818 283.201572 
L 330.905455 283.295902 
L 331.069091 283.584786 
L 331.56 283.425605 
L 331.887273 283.968 
L 332.050909 283.814714 
L 332.378182 282.665073 
L 332.541818 282.370293 
L 332.705455 282.429249 
L 332.869091 282.729924 
L 333.032727 282.435144 
L 333.36 281.373937 
L 333.523636 280.695943 
L 333.687273 280.813855 
L 334.014545 280.466014 
L 334.669091 278.715021 
L 334.832727 277.925011 
L 334.996364 277.689187 
L 335.16 278.090088 
L 335.814545 276.569024 
L 335.978182 276.580815 
L 336.141818 276.020733 
L 336.305455 276.451112 
L 336.469091 276.515963 
L 336.796364 276.126854 
L 336.96 275.655206 
L 337.123636 276.156332 
L 337.287273 276.215288 
L 337.450909 276.728205 
L 337.614545 276.728205 
L 337.778182 276.427529 
L 338.269091 274.983107 
L 338.596364 275.036168 
L 338.923636 273.927795 
L 339.250909 273.526895 
L 339.414545 274.045707 
L 339.741818 273.467939 
L 339.905455 273.279279 
L 340.232727 272.271132 
L 340.396364 272.660242 
L 340.887273 272.359566 
L 341.050909 271.752319 
L 341.214545 271.669781 
L 341.378182 271.375001 
L 341.541818 271.469331 
L 341.705455 271.245298 
L 341.869091 271.817171 
L 342.032727 271.876127 
L 342.196364 272.070682 
L 342.36 271.398583 
L 342.687273 271.545973 
L 342.850909 271.009474 
L 343.014545 271.280671 
L 343.178182 270.396332 
L 343.341818 270.702903 
L 343.505455 270.296106 
L 343.669091 270.472974 
L 343.832727 270.856188 
L 344.323636 269.818563 
L 344.650909 268.356454 
L 344.814545 268.916536 
L 344.978182 268.627652 
L 345.141818 268.079361 
L 345.469091 268.332872 
L 345.796364 267.578235 
L 346.123636 267.601818 
L 346.450909 268.26802 
L 346.614545 268.032197 
L 346.778182 268.792729 
L 347.269091 268.049883 
L 347.432727 267.265769 
L 347.596364 267.342411 
L 347.76 267.141961 
L 347.923636 267.324725 
L 348.087273 266.092545 
L 348.250909 266.175083 
L 348.578182 265.650375 
L 348.741818 265.45582 
L 349.069091 266.581879 
L 349.232727 266.157396 
L 349.56 264.406403 
L 349.887273 265.532463 
L 350.050909 265.986424 
L 350.214545 265.886199 
L 350.378182 265.945155 
L 350.541818 266.416802 
L 350.869091 265.874407 
L 351.032727 265.155144 
L 351.196364 265.650375 
L 351.523636 265.768287 
L 351.687273 265.50888 
L 351.850909 265.691644 
L 352.014545 265.290743 
L 352.178182 264.583271 
L 352.505455 265.320221 
L 352.832727 264.783722 
L 353.16 264.235431 
L 353.323636 264.848573 
L 353.487273 264.824991 
L 353.650909 264.995963 
L 354.632727 261.983312 
L 355.123636 262.578768 
L 355.450909 263.410047 
L 355.614545 263.398256 
L 355.941818 262.885339 
L 356.269091 263.162432 
L 356.432727 263.032729 
L 356.596364 263.13885 
L 356.76 263.463107 
L 356.923636 262.649515 
L 357.087273 262.791009 
L 357.414545 261.71801 
L 357.578182 262.519812 
L 357.741818 261.965625 
L 358.069091 261.741593 
L 358.232727 261.02233 
L 358.396364 261.028225 
L 358.56 260.733445 
L 358.723636 260.208737 
L 358.887273 260.68628 
L 359.050909 260.456352 
L 359.214545 259.312606 
L 359.378182 259.141634 
L 359.541818 259.300815 
L 359.705455 259.300815 
L 359.869091 258.917601 
L 360.032727 258.899914 
L 360.523636 259.996495 
L 360.850909 259.324397 
L 361.014545 259.725298 
L 361.178182 260.692176 
L 361.341818 259.566117 
L 361.505455 259.890375 
L 361.832727 260.674489 
L 362.323636 261.582411 
L 362.650909 259.937539 
L 362.814545 259.931644 
L 363.141818 258.687672 
L 363.305455 258.009679 
L 363.469091 258.552074 
L 363.632727 258.493118 
L 363.96 259.719402 
L 364.123636 258.941183 
L 364.287273 259.265441 
L 364.450909 258.669986 
L 364.614545 259.742985 
L 365.269091 257.266833 
L 365.432727 257.709003 
L 365.596364 257.614673 
L 365.76 257.661838 
L 366.087273 258.16886 
L 366.414545 256.465032 
L 366.578182 256.388389 
L 366.741818 256.771603 
L 367.069091 255.851889 
L 367.232727 257.007427 
L 367.396364 257.101756 
L 367.56 257.48497 
L 367.723636 256.942575 
L 367.887273 257.031009 
L 368.214545 256.016966 
L 368.378182 255.545318 
L 368.541818 255.845994 
L 368.705455 256.865932 
L 369.032727 256.064131 
L 369.196364 256.500405 
L 369.36 256.093609 
L 369.523636 256.594735 
L 369.850909 255.981593 
L 370.178182 256.512197 
L 370.341818 256.217417 
L 370.669091 256.388389 
L 370.996364 257.991992 
L 371.16 257.980201 
L 371.487273 258.669986 
L 371.650909 257.655943 
L 372.305455 257.838706 
L 372.469091 257.644151 
L 372.96 256.19973 
L 373.123636 256.98974 
L 373.287273 256.170252 
L 373.450909 257.054592 
L 373.614545 257.184295 
L 373.941818 258.481327 
L 374.105455 258.186547 
L 374.269091 258.681777 
L 374.432727 258.81148 
L 374.596364 258.398788 
L 374.76 259.20059 
L 374.923636 258.917601 
L 375.087273 258.994244 
L 375.250909 259.801941 
L 375.414545 259.689924 
L 375.578182 259.731193 
L 375.905455 260.143885 
L 376.069091 259.560221 
L 376.232727 259.412831 
L 376.396364 259.418727 
L 376.56 260.04366 
L 377.050909 258.675881 
L 377.378182 259.40104 
L 377.541818 259.094469 
L 377.705455 259.123947 
L 377.869091 259.807836 
L 378.523636 258.322145 
L 378.687273 257.343476 
L 378.850909 257.243251 
L 379.178182 258.782002 
L 379.341818 258.581552 
L 379.832727 260.503517 
L 380.323636 259.188798 
L 380.487273 258.687672 
L 380.650909 259.60149 
L 380.814545 258.693568 
L 380.978182 258.652299 
L 381.141818 258.734837 
L 381.305455 259.188798 
L 381.796364 262.065851 
L 381.96 261.71801 
L 382.123636 260.963374 
L 382.287273 261.541142 
L 382.450909 261.452708 
L 382.614545 261.199198 
L 382.778182 261.258154 
L 383.105455 262.614141 
L 383.269091 262.413691 
L 383.76 263.374673 
L 383.923636 263.374673 
L 384.578182 265.703435 
L 384.905455 266.912033 
L 385.069091 267.259873 
L 385.232727 266.941511 
L 385.56 267.601818 
L 385.723636 267.531071 
L 385.887273 268.055779 
L 386.050909 268.008614 
L 386.214545 268.326976 
L 386.378182 267.973241 
L 386.541818 268.156004 
L 386.705455 268.049883 
L 386.869091 268.521531 
L 387.032727 268.049883 
L 387.36 267.931971 
L 387.523636 267.926076 
L 387.687273 268.663026 
L 388.014545 268.344663 
L 388.178182 268.851685 
L 388.669091 267.053527 
L 388.996364 267.519279 
L 389.487273 269.341019 
L 389.650909 268.580487 
L 389.814545 269.570948 
L 389.978182 269.240794 
L 390.305455 269.058031 
L 390.632727 267.766895 
L 390.796364 267.212708 
L 390.96 267.307038 
L 391.123636 267.755103 
L 391.287273 267.342411 
L 391.450909 266.522923 
L 391.614545 266.735165 
L 391.778182 266.410907 
L 392.105455 266.316577 
L 392.269091 266.575984 
L 392.432727 266.057171 
L 392.76 266.752852 
L 392.923636 266.864868 
L 393.250909 266.387324 
L 394.069091 268.621756 
L 394.232727 268.627652 
L 394.56 269.240794 
L 395.050909 269.659382 
L 395.214545 270.449392 
L 395.378182 269.918788 
L 396.032727 270.178194 
L 396.196364 269.794981 
L 396.523636 270.083865 
L 396.687273 270.13103 
L 397.014545 270.809024 
L 397.178182 270.443496 
L 397.505455 271.392688 
L 397.832727 271.846649 
L 397.996364 271.310149 
L 398.16 272.05889 
L 398.323636 271.970456 
L 398.487273 272.20628 
L 398.487273 272.20628 
" clip-path="url(#p07696108b8)" style="fill: none; stroke: #1f77b4; stroke-width: 1.5; stroke-linecap: square"/>
   </g>
   <g id="patch_3">
    <path d="M 57.6 307.584 
L 57.6 41.472 
" style="fill: none; stroke: #000000; stroke-width: 0.8; stroke-linejoin: miter; stroke-linecap: square"/>
   </g>
   <g id="patch_4">
    <path d="M 414.72 307.584 
L 414.72 41.472 
" style="fill: none; stroke: #000000; stroke-width: 0.8; stroke-linejoin: miter; stroke-linecap: square"/>
   </g>
   <g id="patch_5">
    <path d="M 57.6 307.584 
L 414.72 307.584 
" style="fill: none; stroke: #000000; stroke-width: 0.8; stroke-linejoin: miter; stroke-linecap: square"/>
   </g>
   <g id="patch_6">
    <path d="M 57.6 41.472 
L 414.72 41.472 
" style="fill: none; stroke: #000000; stroke-width: 0.8; stroke-linejoin: miter; stroke-linecap: square"/>
   </g>
   <g id="text_21">
    <!-- Rolling average training progress of customer/buy_nothing -->
    <g transform="translate(59.611875 35.472)scale(0.12 -0.12)">
     <defs>
      <path id="DejaVuSans-52" d="M 2841 2188 
Q 3044 2119 3236 1894 
Q 3428 1669 3622 1275 
L 4263 0 
L 3584 0 
L 2988 1197 
Q 2756 1666 2539 1819 
Q 2322 1972 1947 1972 
L 1259 1972 
L 1259 0 
L 628 0 
L 628 4666 
L 2053 4666 
Q 2853 4666 3247 4331 
Q 3641 3997 3641 3322 
Q 3641 2881 3436 2590 
Q 3231 2300 2841 2188 
z
M 1259 4147 
L 1259 2491 
L 2053 2491 
Q 2509 2491 2742 2702 
Q 2975 2913 2975 3322 
Q 2975 3731 2742 3939 
Q 2509 4147 2053 4147 
L 1259 4147 
z
" transform="scale(0.015625)"/>
      <path id="DejaVuSans-6c" d="M 603 4863 
L 1178 4863 
L 1178 0 
L 603 0 
L 603 4863 
z
" transform="scale(0.015625)"/>
      <path id="DejaVuSans-20" transform="scale(0.015625)"/>
      <path id="DejaVuSans-61" d="M 2194 1759 
Q 1497 1759 1228 1600 
Q 959 1441 959 1056 
Q 959 750 1161 570 
Q 1363 391 1709 391 
Q 2188 391 2477 730 
Q 2766 1069 2766 1631 
L 2766 1759 
L 2194 1759 
z
M 3341 1997 
L 3341 0 
L 2766 0 
L 2766 531 
Q 2569 213 2275 61 
Q 1981 -91 1556 -91 
Q 1019 -91 701 211 
Q 384 513 384 1019 
Q 384 1609 779 1909 
Q 1175 2209 1959 2209 
L 2766 2209 
L 2766 2266 
Q 2766 2663 2505 2880 
Q 2244 3097 1772 3097 
Q 1472 3097 1187 3025 
Q 903 2953 641 2809 
L 641 3341 
Q 956 3463 1253 3523 
Q 1550 3584 1831 3584 
Q 2591 3584 2966 3190 
Q 3341 2797 3341 1997 
z
" transform="scale(0.015625)"/>
      <path id="DejaVuSans-76" d="M 191 3500 
L 800 3500 
L 1894 563 
L 2988 3500 
L 3597 3500 
L 2284 0 
L 1503 0 
L 191 3500 
z
" transform="scale(0.015625)"/>
      <path id="DejaVuSans-66" d="M 2375 4863 
L 2375 4384 
L 1825 4384 
Q 1516 4384 1395 4259 
Q 1275 4134 1275 3809 
L 1275 3500 
L 2222 3500 
L 2222 3053 
L 1275 3053 
L 1275 0 
L 697 0 
L 697 3053 
L 147 3053 
L 147 3500 
L 697 3500 
L 697 3744 
Q 697 4328 969 4595 
Q 1241 4863 1831 4863 
L 2375 4863 
z
" transform="scale(0.015625)"/>
     </defs>
     <use xlink:href="#DejaVuSans-52"/>
     <use xlink:href="#DejaVuSans-6f" x="64.982422"/>
     <use xlink:href="#DejaVuSans-6c" x="126.164062"/>
     <use xlink:href="#DejaVuSans-6c" x="153.947266"/>
     <use xlink:href="#DejaVuSans-69" x="181.730469"/>
     <use xlink:href="#DejaVuSans-6e" x="209.513672"/>
     <use xlink:href="#DejaVuSans-67" x="272.892578"/>
     <use xlink:href="#DejaVuSans-20" x="336.369141"/>
     <use xlink:href="#DejaVuSans-61" x="368.15625"/>
     <use xlink:href="#DejaVuSans-76" x="429.435547"/>
     <use xlink:href="#DejaVuSans-65" x="488.615234"/>
     <use xlink:href="#DejaVuSans-72" x="550.138672"/>
     <use xlink:href="#DejaVuSans-61" x="591.251953"/>
     <use xlink:href="#DejaVuSans-67" x="652.53125"/>
     <use xlink:href="#DejaVuSans-65" x="716.007812"/>
     <use xlink:href="#DejaVuSans-20" x="777.53125"/>
     <use xlink:href="#DejaVuSans-74" x="809.318359"/>
     <use xlink:href="#DejaVuSans-72" x="848.527344"/>
     <use xlink:href="#DejaVuSans-61" x="889.640625"/>
     <use xlink:href="#DejaVuSans-69" x="950.919922"/>
     <use xlink:href="#DejaVuSans-6e" x="978.703125"/>
     <use xlink:href="#DejaVuSans-69" x="1042.082031"/>
     <use xlink:href="#DejaVuSans-6e" x="1069.865234"/>
     <use xlink:href="#DejaVuSans-67" x="1133.244141"/>
     <use xlink:href="#DejaVuSans-20" x="1196.720703"/>
     <use xlink:href="#DejaVuSans-70" x="1228.507812"/>
     <use xlink:href="#DejaVuSans-72" x="1291.984375"/>
     <use xlink:href="#DejaVuSans-6f" x="1330.847656"/>
     <use xlink:href="#DejaVuSans-67" x="1392.029297"/>
     <use xlink:href="#DejaVuSans-72" x="1455.505859"/>
     <use xlink:href="#DejaVuSans-65" x="1494.369141"/>
     <use xlink:href="#DejaVuSans-73" x="1555.892578"/>
     <use xlink:href="#DejaVuSans-73" x="1607.992188"/>
     <use xlink:href="#DejaVuSans-20" x="1660.091797"/>
     <use xlink:href="#DejaVuSans-6f" x="1691.878906"/>
     <use xlink:href="#DejaVuSans-66" x="1753.060547"/>
     <use xlink:href="#DejaVuSans-20" x="1788.265625"/>
     <use xlink:href="#DejaVuSans-63" x="1820.052734"/>
     <use xlink:href="#DejaVuSans-75" x="1875.033203"/>
     <use xlink:href="#DejaVuSans-73" x="1938.412109"/>
     <use xlink:href="#DejaVuSans-74" x="1990.511719"/>
     <use xlink:href="#DejaVuSans-6f" x="2029.720703"/>
     <use xlink:href="#DejaVuSans-6d" x="2090.902344"/>
     <use xlink:href="#DejaVuSans-65" x="2188.314453"/>
     <use xlink:href="#DejaVuSans-72" x="2249.837891"/>
     <use xlink:href="#DejaVuSans-2f" x="2290.951172"/>
     <use xlink:href="#DejaVuSans-62" x="2324.642578"/>
     <use xlink:href="#DejaVuSans-75" x="2388.119141"/>
     <use xlink:href="#DejaVuSans-79" x="2451.498047"/>
     <use xlink:href="#DejaVuSans-5f" x="2510.677734"/>
     <use xlink:href="#DejaVuSans-6e" x="2560.677734"/>
     <use xlink:href="#DejaVuSans-6f" x="2624.056641"/>
     <use xlink:href="#DejaVuSans-74" x="2685.238281"/>
     <use xlink:href="#DejaVuSans-68" x="2724.447266"/>
     <use xlink:href="#DejaVuSans-69" x="2787.826172"/>
     <use xlink:href="#DejaVuSans-6e" x="2815.609375"/>
     <use xlink:href="#DejaVuSans-67" x="2878.988281"/>
    </g>
   </g>
  </g>
 </g>
 <defs>
  <clipPath id="p07696108b8">
   <rect x="57.6" y="41.472" width="357.12" height="266.112"/>
  </clipPath>
 </defs>
</svg>
