<?xml version="1.0" encoding="utf-8" standalone="no"?>
<!DOCTYPE svg PUBLIC "-//W3C//DTD SVG 1.1//EN"
  "http://www.w3.org/Graphics/SVG/1.1/DTD/svg11.dtd">
<svg xmlns:xlink="http://www.w3.org/1999/xlink" width="460.8pt" height="345.6pt" viewBox="0 0 460.8 345.6" xmlns="http://www.w3.org/2000/svg" version="1.1">
 <metadata>
  <rdf:RDF xmlns:dc="http://purl.org/dc/elements/1.1/" xmlns:cc="http://creativecommons.org/ns#" xmlns:rdf="http://www.w3.org/1999/02/22-rdf-syntax-ns#">
   <cc:Work>
    <dc:type rdf:resource="http://purl.org/dc/dcmitype/StillImage"/>
    <dc:date>2022-06-20T18:27:34.831759</dc:date>
    <dc:format>image/svg+xml</dc:format>
    <dc:creator>
     <cc:Agent>
      <dc:title>Matplotlib v3.5.2, https://matplotlib.org/</dc:title>
     </cc:Agent>
    </dc:creator>
   </cc:Work>
  </rdf:RDF>
 </metadata>
 <defs>
  <style type="text/css">*{stroke-linejoin: round; stroke-linecap: butt}</style>
 </defs>
 <g id="figure_1">
  <g id="patch_1">
   <path d="M 0 345.6 
L 460.8 345.6 
L 460.8 0 
L 0 0 
L 0 345.6 
z
" style="fill: none"/>
  </g>
  <g id="axes_1">
   <g id="patch_2">
    <path d="M 57.6 307.584 
L 414.72 307.584 
L 414.72 41.472 
L 57.6 41.472 
L 57.6 307.584 
z
" style="fill: none"/>
   </g>
   <g id="matplotlib.axis_1">
    <g id="xtick_1">
     <g id="line2d_1">
      <path d="M 72.200477 307.584 
L 72.200477 41.472 
" clip-path="url(#pe818f5a377)" style="fill: none; stroke-dasharray: 2.96,1.28; stroke-dashoffset: 0; stroke: #b0b0b0; stroke-width: 0.8"/>
     </g>
     <g id="line2d_2">
      <defs>
       <path id="m7af7888b9b" d="M 0 0 
L 0 3.5 
" style="stroke: #000000; stroke-width: 0.8"/>
      </defs>
      <g>
       <use xlink:href="#m7af7888b9b" x="72.200477" y="307.584" style="stroke: #000000; stroke-width: 0.8"/>
      </g>
     </g>
     <g id="text_1">
      <!-- 0 -->
      <g transform="translate(69.019227 322.182437)scale(0.1 -0.1)">
       <defs>
        <path id="DejaVuSans-30" d="M 2034 4250 
Q 1547 4250 1301 3770 
Q 1056 3291 1056 2328 
Q 1056 1369 1301 889 
Q 1547 409 2034 409 
Q 2525 409 2770 889 
Q 3016 1369 3016 2328 
Q 3016 3291 2770 3770 
Q 2525 4250 2034 4250 
z
M 2034 4750 
Q 2819 4750 3233 4129 
Q 3647 3509 3647 2328 
Q 3647 1150 3233 529 
Q 2819 -91 2034 -91 
Q 1250 -91 836 529 
Q 422 1150 422 2328 
Q 422 3509 836 4129 
Q 1250 4750 2034 4750 
z
" transform="scale(0.015625)"/>
       </defs>
       <use xlink:href="#DejaVuSans-30"/>
      </g>
     </g>
    </g>
    <g id="xtick_2">
     <g id="line2d_3">
      <path d="M 113.00673 307.584 
L 113.00673 41.472 
" clip-path="url(#pe818f5a377)" style="fill: none; stroke-dasharray: 2.96,1.28; stroke-dashoffset: 0; stroke: #b0b0b0; stroke-width: 0.8"/>
     </g>
     <g id="line2d_4">
      <g>
       <use xlink:href="#m7af7888b9b" x="113.00673" y="307.584" style="stroke: #000000; stroke-width: 0.8"/>
      </g>
     </g>
     <g id="text_2">
      <!-- 250 -->
      <g transform="translate(103.46298 322.182437)scale(0.1 -0.1)">
       <defs>
        <path id="DejaVuSans-32" d="M 1228 531 
L 3431 531 
L 3431 0 
L 469 0 
L 469 531 
Q 828 903 1448 1529 
Q 2069 2156 2228 2338 
Q 2531 2678 2651 2914 
Q 2772 3150 2772 3378 
Q 2772 3750 2511 3984 
Q 2250 4219 1831 4219 
Q 1534 4219 1204 4116 
Q 875 4013 500 3803 
L 500 4441 
Q 881 4594 1212 4672 
Q 1544 4750 1819 4750 
Q 2544 4750 2975 4387 
Q 3406 4025 3406 3419 
Q 3406 3131 3298 2873 
Q 3191 2616 2906 2266 
Q 2828 2175 2409 1742 
Q 1991 1309 1228 531 
z
" transform="scale(0.015625)"/>
        <path id="DejaVuSans-35" d="M 691 4666 
L 3169 4666 
L 3169 4134 
L 1269 4134 
L 1269 2991 
Q 1406 3038 1543 3061 
Q 1681 3084 1819 3084 
Q 2600 3084 3056 2656 
Q 3513 2228 3513 1497 
Q 3513 744 3044 326 
Q 2575 -91 1722 -91 
Q 1428 -91 1123 -41 
Q 819 9 494 109 
L 494 744 
Q 775 591 1075 516 
Q 1375 441 1709 441 
Q 2250 441 2565 725 
Q 2881 1009 2881 1497 
Q 2881 1984 2565 2268 
Q 2250 2553 1709 2553 
Q 1456 2553 1204 2497 
Q 953 2441 691 2322 
L 691 4666 
z
" transform="scale(0.015625)"/>
       </defs>
       <use xlink:href="#DejaVuSans-32"/>
       <use xlink:href="#DejaVuSans-35" x="63.623047"/>
       <use xlink:href="#DejaVuSans-30" x="127.246094"/>
      </g>
     </g>
    </g>
    <g id="xtick_3">
     <g id="line2d_5">
      <path d="M 153.812982 307.584 
L 153.812982 41.472 
" clip-path="url(#pe818f5a377)" style="fill: none; stroke-dasharray: 2.96,1.28; stroke-dashoffset: 0; stroke: #b0b0b0; stroke-width: 0.8"/>
     </g>
     <g id="line2d_6">
      <g>
       <use xlink:href="#m7af7888b9b" x="153.812982" y="307.584" style="stroke: #000000; stroke-width: 0.8"/>
      </g>
     </g>
     <g id="text_3">
      <!-- 500 -->
      <g transform="translate(144.269232 322.182437)scale(0.1 -0.1)">
       <use xlink:href="#DejaVuSans-35"/>
       <use xlink:href="#DejaVuSans-30" x="63.623047"/>
       <use xlink:href="#DejaVuSans-30" x="127.246094"/>
      </g>
     </g>
    </g>
    <g id="xtick_4">
     <g id="line2d_7">
      <path d="M 194.619235 307.584 
L 194.619235 41.472 
" clip-path="url(#pe818f5a377)" style="fill: none; stroke-dasharray: 2.96,1.28; stroke-dashoffset: 0; stroke: #b0b0b0; stroke-width: 0.8"/>
     </g>
     <g id="line2d_8">
      <g>
       <use xlink:href="#m7af7888b9b" x="194.619235" y="307.584" style="stroke: #000000; stroke-width: 0.8"/>
      </g>
     </g>
     <g id="text_4">
      <!-- 750 -->
      <g transform="translate(185.075485 322.182437)scale(0.1 -0.1)">
       <defs>
        <path id="DejaVuSans-37" d="M 525 4666 
L 3525 4666 
L 3525 4397 
L 1831 0 
L 1172 0 
L 2766 4134 
L 525 4134 
L 525 4666 
z
" transform="scale(0.015625)"/>
       </defs>
       <use xlink:href="#DejaVuSans-37"/>
       <use xlink:href="#DejaVuSans-35" x="63.623047"/>
       <use xlink:href="#DejaVuSans-30" x="127.246094"/>
      </g>
     </g>
    </g>
    <g id="xtick_5">
     <g id="line2d_9">
      <path d="M 235.425487 307.584 
L 235.425487 41.472 
" clip-path="url(#pe818f5a377)" style="fill: none; stroke-dasharray: 2.96,1.28; stroke-dashoffset: 0; stroke: #b0b0b0; stroke-width: 0.8"/>
     </g>
     <g id="line2d_10">
      <g>
       <use xlink:href="#m7af7888b9b" x="235.425487" y="307.584" style="stroke: #000000; stroke-width: 0.8"/>
      </g>
     </g>
     <g id="text_5">
      <!-- 1000 -->
      <g transform="translate(222.700487 322.182437)scale(0.1 -0.1)">
       <defs>
        <path id="DejaVuSans-31" d="M 794 531 
L 1825 531 
L 1825 4091 
L 703 3866 
L 703 4441 
L 1819 4666 
L 2450 4666 
L 2450 531 
L 3481 531 
L 3481 0 
L 794 0 
L 794 531 
z
" transform="scale(0.015625)"/>
       </defs>
       <use xlink:href="#DejaVuSans-31"/>
       <use xlink:href="#DejaVuSans-30" x="63.623047"/>
       <use xlink:href="#DejaVuSans-30" x="127.246094"/>
       <use xlink:href="#DejaVuSans-30" x="190.869141"/>
      </g>
     </g>
    </g>
    <g id="xtick_6">
     <g id="line2d_11">
      <path d="M 276.23174 307.584 
L 276.23174 41.472 
" clip-path="url(#pe818f5a377)" style="fill: none; stroke-dasharray: 2.96,1.28; stroke-dashoffset: 0; stroke: #b0b0b0; stroke-width: 0.8"/>
     </g>
     <g id="line2d_12">
      <g>
       <use xlink:href="#m7af7888b9b" x="276.23174" y="307.584" style="stroke: #000000; stroke-width: 0.8"/>
      </g>
     </g>
     <g id="text_6">
      <!-- 1250 -->
      <g transform="translate(263.50674 322.182437)scale(0.1 -0.1)">
       <use xlink:href="#DejaVuSans-31"/>
       <use xlink:href="#DejaVuSans-32" x="63.623047"/>
       <use xlink:href="#DejaVuSans-35" x="127.246094"/>
       <use xlink:href="#DejaVuSans-30" x="190.869141"/>
      </g>
     </g>
    </g>
    <g id="xtick_7">
     <g id="line2d_13">
      <path d="M 317.037993 307.584 
L 317.037993 41.472 
" clip-path="url(#pe818f5a377)" style="fill: none; stroke-dasharray: 2.96,1.28; stroke-dashoffset: 0; stroke: #b0b0b0; stroke-width: 0.8"/>
     </g>
     <g id="line2d_14">
      <g>
       <use xlink:href="#m7af7888b9b" x="317.037993" y="307.584" style="stroke: #000000; stroke-width: 0.8"/>
      </g>
     </g>
     <g id="text_7">
      <!-- 1500 -->
      <g transform="translate(304.312993 322.182437)scale(0.1 -0.1)">
       <use xlink:href="#DejaVuSans-31"/>
       <use xlink:href="#DejaVuSans-35" x="63.623047"/>
       <use xlink:href="#DejaVuSans-30" x="127.246094"/>
       <use xlink:href="#DejaVuSans-30" x="190.869141"/>
      </g>
     </g>
    </g>
    <g id="xtick_8">
     <g id="line2d_15">
      <path d="M 357.844245 307.584 
L 357.844245 41.472 
" clip-path="url(#pe818f5a377)" style="fill: none; stroke-dasharray: 2.96,1.28; stroke-dashoffset: 0; stroke: #b0b0b0; stroke-width: 0.8"/>
     </g>
     <g id="line2d_16">
      <g>
       <use xlink:href="#m7af7888b9b" x="357.844245" y="307.584" style="stroke: #000000; stroke-width: 0.8"/>
      </g>
     </g>
     <g id="text_8">
      <!-- 1750 -->
      <g transform="translate(345.119245 322.182437)scale(0.1 -0.1)">
       <use xlink:href="#DejaVuSans-31"/>
       <use xlink:href="#DejaVuSans-37" x="63.623047"/>
       <use xlink:href="#DejaVuSans-35" x="127.246094"/>
       <use xlink:href="#DejaVuSans-30" x="190.869141"/>
      </g>
     </g>
    </g>
    <g id="xtick_9">
     <g id="line2d_17">
      <path d="M 398.650498 307.584 
L 398.650498 41.472 
" clip-path="url(#pe818f5a377)" style="fill: none; stroke-dasharray: 2.96,1.28; stroke-dashoffset: 0; stroke: #b0b0b0; stroke-width: 0.8"/>
     </g>
     <g id="line2d_18">
      <g>
       <use xlink:href="#m7af7888b9b" x="398.650498" y="307.584" style="stroke: #000000; stroke-width: 0.8"/>
      </g>
     </g>
     <g id="text_9">
      <!-- 2000 -->
      <g transform="translate(385.925498 322.182437)scale(0.1 -0.1)">
       <use xlink:href="#DejaVuSans-32"/>
       <use xlink:href="#DejaVuSans-30" x="63.623047"/>
       <use xlink:href="#DejaVuSans-30" x="127.246094"/>
       <use xlink:href="#DejaVuSans-30" x="190.869141"/>
      </g>
     </g>
    </g>
    <g id="text_10">
     <!-- Episode -->
     <g transform="translate(216.5225 335.860562)scale(0.1 -0.1)">
      <defs>
       <path id="DejaVuSans-45" d="M 628 4666 
L 3578 4666 
L 3578 4134 
L 1259 4134 
L 1259 2753 
L 3481 2753 
L 3481 2222 
L 1259 2222 
L 1259 531 
L 3634 531 
L 3634 0 
L 628 0 
L 628 4666 
z
" transform="scale(0.015625)"/>
       <path id="DejaVuSans-70" d="M 1159 525 
L 1159 -1331 
L 581 -1331 
L 581 3500 
L 1159 3500 
L 1159 2969 
Q 1341 3281 1617 3432 
Q 1894 3584 2278 3584 
Q 2916 3584 3314 3078 
Q 3713 2572 3713 1747 
Q 3713 922 3314 415 
Q 2916 -91 2278 -91 
Q 1894 -91 1617 61 
Q 1341 213 1159 525 
z
M 3116 1747 
Q 3116 2381 2855 2742 
Q 2594 3103 2138 3103 
Q 1681 3103 1420 2742 
Q 1159 2381 1159 1747 
Q 1159 1113 1420 752 
Q 1681 391 2138 391 
Q 2594 391 2855 752 
Q 3116 1113 3116 1747 
z
" transform="scale(0.015625)"/>
       <path id="DejaVuSans-69" d="M 603 3500 
L 1178 3500 
L 1178 0 
L 603 0 
L 603 3500 
z
M 603 4863 
L 1178 4863 
L 1178 4134 
L 603 4134 
L 603 4863 
z
" transform="scale(0.015625)"/>
       <path id="DejaVuSans-73" d="M 2834 3397 
L 2834 2853 
Q 2591 2978 2328 3040 
Q 2066 3103 1784 3103 
Q 1356 3103 1142 2972 
Q 928 2841 928 2578 
Q 928 2378 1081 2264 
Q 1234 2150 1697 2047 
L 1894 2003 
Q 2506 1872 2764 1633 
Q 3022 1394 3022 966 
Q 3022 478 2636 193 
Q 2250 -91 1575 -91 
Q 1294 -91 989 -36 
Q 684 19 347 128 
L 347 722 
Q 666 556 975 473 
Q 1284 391 1588 391 
Q 1994 391 2212 530 
Q 2431 669 2431 922 
Q 2431 1156 2273 1281 
Q 2116 1406 1581 1522 
L 1381 1569 
Q 847 1681 609 1914 
Q 372 2147 372 2553 
Q 372 3047 722 3315 
Q 1072 3584 1716 3584 
Q 2034 3584 2315 3537 
Q 2597 3491 2834 3397 
z
" transform="scale(0.015625)"/>
       <path id="DejaVuSans-6f" d="M 1959 3097 
Q 1497 3097 1228 2736 
Q 959 2375 959 1747 
Q 959 1119 1226 758 
Q 1494 397 1959 397 
Q 2419 397 2687 759 
Q 2956 1122 2956 1747 
Q 2956 2369 2687 2733 
Q 2419 3097 1959 3097 
z
M 1959 3584 
Q 2709 3584 3137 3096 
Q 3566 2609 3566 1747 
Q 3566 888 3137 398 
Q 2709 -91 1959 -91 
Q 1206 -91 779 398 
Q 353 888 353 1747 
Q 353 2609 779 3096 
Q 1206 3584 1959 3584 
z
" transform="scale(0.015625)"/>
       <path id="DejaVuSans-64" d="M 2906 2969 
L 2906 4863 
L 3481 4863 
L 3481 0 
L 2906 0 
L 2906 525 
Q 2725 213 2448 61 
Q 2172 -91 1784 -91 
Q 1150 -91 751 415 
Q 353 922 353 1747 
Q 353 2572 751 3078 
Q 1150 3584 1784 3584 
Q 2172 3584 2448 3432 
Q 2725 3281 2906 2969 
z
M 947 1747 
Q 947 1113 1208 752 
Q 1469 391 1925 391 
Q 2381 391 2643 752 
Q 2906 1113 2906 1747 
Q 2906 2381 2643 2742 
Q 2381 3103 1925 3103 
Q 1469 3103 1208 2742 
Q 947 2381 947 1747 
z
" transform="scale(0.015625)"/>
       <path id="DejaVuSans-65" d="M 3597 1894 
L 3597 1613 
L 953 1613 
Q 991 1019 1311 708 
Q 1631 397 2203 397 
Q 2534 397 2845 478 
Q 3156 559 3463 722 
L 3463 178 
Q 3153 47 2828 -22 
Q 2503 -91 2169 -91 
Q 1331 -91 842 396 
Q 353 884 353 1716 
Q 353 2575 817 3079 
Q 1281 3584 2069 3584 
Q 2775 3584 3186 3129 
Q 3597 2675 3597 1894 
z
M 3022 2063 
Q 3016 2534 2758 2815 
Q 2500 3097 2075 3097 
Q 1594 3097 1305 2825 
Q 1016 2553 972 2059 
L 3022 2063 
z
" transform="scale(0.015625)"/>
      </defs>
      <use xlink:href="#DejaVuSans-45"/>
      <use xlink:href="#DejaVuSans-70" x="63.183594"/>
      <use xlink:href="#DejaVuSans-69" x="126.660156"/>
      <use xlink:href="#DejaVuSans-73" x="154.443359"/>
      <use xlink:href="#DejaVuSans-6f" x="206.542969"/>
      <use xlink:href="#DejaVuSans-64" x="267.724609"/>
      <use xlink:href="#DejaVuSans-65" x="331.201172"/>
     </g>
    </g>
   </g>
   <g id="matplotlib.axis_2">
    <g id="ytick_1">
     <g id="line2d_19">
      <path d="M 57.6 307.53505 
L 414.72 307.53505 
" clip-path="url(#pe818f5a377)" style="fill: none; stroke-dasharray: 2.96,1.28; stroke-dashoffset: 0; stroke: #b0b0b0; stroke-width: 0.8"/>
     </g>
     <g id="line2d_20">
      <defs>
       <path id="mca896098ac" d="M 0 0 
L -3.5 0 
" style="stroke: #000000; stroke-width: 0.8"/>
      </defs>
      <g>
       <use xlink:href="#mca896098ac" x="57.6" y="307.53505" style="stroke: #000000; stroke-width: 0.8"/>
      </g>
     </g>
     <g id="text_11">
      <!-- 0 -->
      <g transform="translate(44.2375 311.334268)scale(0.1 -0.1)">
       <use xlink:href="#DejaVuSans-30"/>
      </g>
     </g>
    </g>
    <g id="ytick_2">
     <g id="line2d_21">
      <path d="M 57.6 251.992888 
L 414.72 251.992888 
" clip-path="url(#pe818f5a377)" style="fill: none; stroke-dasharray: 2.96,1.28; stroke-dashoffset: 0; stroke: #b0b0b0; stroke-width: 0.8"/>
     </g>
     <g id="line2d_22">
      <g>
       <use xlink:href="#mca896098ac" x="57.6" y="251.992888" style="stroke: #000000; stroke-width: 0.8"/>
      </g>
     </g>
     <g id="text_12">
      <!-- 1 -->
      <g transform="translate(44.2375 255.792107)scale(0.1 -0.1)">
       <use xlink:href="#DejaVuSans-31"/>
      </g>
     </g>
    </g>
    <g id="ytick_3">
     <g id="line2d_23">
      <path d="M 57.6 196.450727 
L 414.72 196.450727 
" clip-path="url(#pe818f5a377)" style="fill: none; stroke-dasharray: 2.96,1.28; stroke-dashoffset: 0; stroke: #b0b0b0; stroke-width: 0.8"/>
     </g>
     <g id="line2d_24">
      <g>
       <use xlink:href="#mca896098ac" x="57.6" y="196.450727" style="stroke: #000000; stroke-width: 0.8"/>
      </g>
     </g>
     <g id="text_13">
      <!-- 2 -->
      <g transform="translate(44.2375 200.249945)scale(0.1 -0.1)">
       <use xlink:href="#DejaVuSans-32"/>
      </g>
     </g>
    </g>
    <g id="ytick_4">
     <g id="line2d_25">
      <path d="M 57.6 140.908565 
L 414.72 140.908565 
" clip-path="url(#pe818f5a377)" style="fill: none; stroke-dasharray: 2.96,1.28; stroke-dashoffset: 0; stroke: #b0b0b0; stroke-width: 0.8"/>
     </g>
     <g id="line2d_26">
      <g>
       <use xlink:href="#mca896098ac" x="57.6" y="140.908565" style="stroke: #000000; stroke-width: 0.8"/>
      </g>
     </g>
     <g id="text_14">
      <!-- 3 -->
      <g transform="translate(44.2375 144.707784)scale(0.1 -0.1)">
       <defs>
        <path id="DejaVuSans-33" d="M 2597 2516 
Q 3050 2419 3304 2112 
Q 3559 1806 3559 1356 
Q 3559 666 3084 287 
Q 2609 -91 1734 -91 
Q 1441 -91 1130 -33 
Q 819 25 488 141 
L 488 750 
Q 750 597 1062 519 
Q 1375 441 1716 441 
Q 2309 441 2620 675 
Q 2931 909 2931 1356 
Q 2931 1769 2642 2001 
Q 2353 2234 1838 2234 
L 1294 2234 
L 1294 2753 
L 1863 2753 
Q 2328 2753 2575 2939 
Q 2822 3125 2822 3475 
Q 2822 3834 2567 4026 
Q 2313 4219 1838 4219 
Q 1578 4219 1281 4162 
Q 984 4106 628 3988 
L 628 4550 
Q 988 4650 1302 4700 
Q 1616 4750 1894 4750 
Q 2613 4750 3031 4423 
Q 3450 4097 3450 3541 
Q 3450 3153 3228 2886 
Q 3006 2619 2597 2516 
z
" transform="scale(0.015625)"/>
       </defs>
       <use xlink:href="#DejaVuSans-33"/>
      </g>
     </g>
    </g>
    <g id="ytick_5">
     <g id="line2d_27">
      <path d="M 57.6 85.366403 
L 414.72 85.366403 
" clip-path="url(#pe818f5a377)" style="fill: none; stroke-dasharray: 2.96,1.28; stroke-dashoffset: 0; stroke: #b0b0b0; stroke-width: 0.8"/>
     </g>
     <g id="line2d_28">
      <g>
       <use xlink:href="#mca896098ac" x="57.6" y="85.366403" style="stroke: #000000; stroke-width: 0.8"/>
      </g>
     </g>
     <g id="text_15">
      <!-- 4 -->
      <g transform="translate(44.2375 89.165622)scale(0.1 -0.1)">
       <defs>
        <path id="DejaVuSans-34" d="M 2419 4116 
L 825 1625 
L 2419 1625 
L 2419 4116 
z
M 2253 4666 
L 3047 4666 
L 3047 1625 
L 3713 1625 
L 3713 1100 
L 3047 1100 
L 3047 0 
L 2419 0 
L 2419 1100 
L 313 1100 
L 313 1709 
L 2253 4666 
z
" transform="scale(0.015625)"/>
       </defs>
       <use xlink:href="#DejaVuSans-34"/>
      </g>
     </g>
    </g>
    <g id="text_16">
     <!-- actions/price_rebuy -->
     <g transform="translate(37.879687 223.474094)rotate(-90)scale(0.1 -0.1)">
      <defs>
       <path id="DejaVuSans-61" d="M 2194 1759 
Q 1497 1759 1228 1600 
Q 959 1441 959 1056 
Q 959 750 1161 570 
Q 1363 391 1709 391 
Q 2188 391 2477 730 
Q 2766 1069 2766 1631 
L 2766 1759 
L 2194 1759 
z
M 3341 1997 
L 3341 0 
L 2766 0 
L 2766 531 
Q 2569 213 2275 61 
Q 1981 -91 1556 -91 
Q 1019 -91 701 211 
Q 384 513 384 1019 
Q 384 1609 779 1909 
Q 1175 2209 1959 2209 
L 2766 2209 
L 2766 2266 
Q 2766 2663 2505 2880 
Q 2244 3097 1772 3097 
Q 1472 3097 1187 3025 
Q 903 2953 641 2809 
L 641 3341 
Q 956 3463 1253 3523 
Q 1550 3584 1831 3584 
Q 2591 3584 2966 3190 
Q 3341 2797 3341 1997 
z
" transform="scale(0.015625)"/>
       <path id="DejaVuSans-63" d="M 3122 3366 
L 3122 2828 
Q 2878 2963 2633 3030 
Q 2388 3097 2138 3097 
Q 1578 3097 1268 2742 
Q 959 2388 959 1747 
Q 959 1106 1268 751 
Q 1578 397 2138 397 
Q 2388 397 2633 464 
Q 2878 531 3122 666 
L 3122 134 
Q 2881 22 2623 -34 
Q 2366 -91 2075 -91 
Q 1284 -91 818 406 
Q 353 903 353 1747 
Q 353 2603 823 3093 
Q 1294 3584 2113 3584 
Q 2378 3584 2631 3529 
Q 2884 3475 3122 3366 
z
" transform="scale(0.015625)"/>
       <path id="DejaVuSans-74" d="M 1172 4494 
L 1172 3500 
L 2356 3500 
L 2356 3053 
L 1172 3053 
L 1172 1153 
Q 1172 725 1289 603 
Q 1406 481 1766 481 
L 2356 481 
L 2356 0 
L 1766 0 
Q 1100 0 847 248 
Q 594 497 594 1153 
L 594 3053 
L 172 3053 
L 172 3500 
L 594 3500 
L 594 4494 
L 1172 4494 
z
" transform="scale(0.015625)"/>
       <path id="DejaVuSans-6e" d="M 3513 2113 
L 3513 0 
L 2938 0 
L 2938 2094 
Q 2938 2591 2744 2837 
Q 2550 3084 2163 3084 
Q 1697 3084 1428 2787 
Q 1159 2491 1159 1978 
L 1159 0 
L 581 0 
L 581 3500 
L 1159 3500 
L 1159 2956 
Q 1366 3272 1645 3428 
Q 1925 3584 2291 3584 
Q 2894 3584 3203 3211 
Q 3513 2838 3513 2113 
z
" transform="scale(0.015625)"/>
       <path id="DejaVuSans-2f" d="M 1625 4666 
L 2156 4666 
L 531 -594 
L 0 -594 
L 1625 4666 
z
" transform="scale(0.015625)"/>
       <path id="DejaVuSans-72" d="M 2631 2963 
Q 2534 3019 2420 3045 
Q 2306 3072 2169 3072 
Q 1681 3072 1420 2755 
Q 1159 2438 1159 1844 
L 1159 0 
L 581 0 
L 581 3500 
L 1159 3500 
L 1159 2956 
Q 1341 3275 1631 3429 
Q 1922 3584 2338 3584 
Q 2397 3584 2469 3576 
Q 2541 3569 2628 3553 
L 2631 2963 
z
" transform="scale(0.015625)"/>
       <path id="DejaVuSans-5f" d="M 3263 -1063 
L 3263 -1509 
L -63 -1509 
L -63 -1063 
L 3263 -1063 
z
" transform="scale(0.015625)"/>
       <path id="DejaVuSans-62" d="M 3116 1747 
Q 3116 2381 2855 2742 
Q 2594 3103 2138 3103 
Q 1681 3103 1420 2742 
Q 1159 2381 1159 1747 
Q 1159 1113 1420 752 
Q 1681 391 2138 391 
Q 2594 391 2855 752 
Q 3116 1113 3116 1747 
z
M 1159 2969 
Q 1341 3281 1617 3432 
Q 1894 3584 2278 3584 
Q 2916 3584 3314 3078 
Q 3713 2572 3713 1747 
Q 3713 922 3314 415 
Q 2916 -91 2278 -91 
Q 1894 -91 1617 61 
Q 1341 213 1159 525 
L 1159 0 
L 581 0 
L 581 4863 
L 1159 4863 
L 1159 2969 
z
" transform="scale(0.015625)"/>
       <path id="DejaVuSans-75" d="M 544 1381 
L 544 3500 
L 1119 3500 
L 1119 1403 
Q 1119 906 1312 657 
Q 1506 409 1894 409 
Q 2359 409 2629 706 
Q 2900 1003 2900 1516 
L 2900 3500 
L 3475 3500 
L 3475 0 
L 2900 0 
L 2900 538 
Q 2691 219 2414 64 
Q 2138 -91 1772 -91 
Q 1169 -91 856 284 
Q 544 659 544 1381 
z
M 1991 3584 
L 1991 3584 
z
" transform="scale(0.015625)"/>
       <path id="DejaVuSans-79" d="M 2059 -325 
Q 1816 -950 1584 -1140 
Q 1353 -1331 966 -1331 
L 506 -1331 
L 506 -850 
L 844 -850 
Q 1081 -850 1212 -737 
Q 1344 -625 1503 -206 
L 1606 56 
L 191 3500 
L 800 3500 
L 1894 763 
L 2988 3500 
L 3597 3500 
L 2059 -325 
z
" transform="scale(0.015625)"/>
      </defs>
      <use xlink:href="#DejaVuSans-61"/>
      <use xlink:href="#DejaVuSans-63" x="61.279297"/>
      <use xlink:href="#DejaVuSans-74" x="116.259766"/>
      <use xlink:href="#DejaVuSans-69" x="155.46875"/>
      <use xlink:href="#DejaVuSans-6f" x="183.251953"/>
      <use xlink:href="#DejaVuSans-6e" x="244.433594"/>
      <use xlink:href="#DejaVuSans-73" x="307.8125"/>
      <use xlink:href="#DejaVuSans-2f" x="359.912109"/>
      <use xlink:href="#DejaVuSans-70" x="393.603516"/>
      <use xlink:href="#DejaVuSans-72" x="457.080078"/>
      <use xlink:href="#DejaVuSans-69" x="498.193359"/>
      <use xlink:href="#DejaVuSans-63" x="525.976562"/>
      <use xlink:href="#DejaVuSans-65" x="580.957031"/>
      <use xlink:href="#DejaVuSans-5f" x="642.480469"/>
      <use xlink:href="#DejaVuSans-72" x="692.480469"/>
      <use xlink:href="#DejaVuSans-65" x="731.34375"/>
      <use xlink:href="#DejaVuSans-62" x="792.867188"/>
      <use xlink:href="#DejaVuSans-75" x="856.34375"/>
      <use xlink:href="#DejaVuSans-79" x="919.722656"/>
     </g>
    </g>
   </g>
   <g id="line2d_29">
    <path d="M 73.832727 53.568 
L 73.995952 66.203601 
L 74.159177 69.33797 
L 75.628202 138.689489 
L 76.607552 172.508109 
L 77.423677 191.536542 
L 78.403028 207.806719 
L 78.729478 211.824746 
L 79.055928 215.170283 
L 80.198503 226.218995 
L 80.361728 226.717388 
L 80.851403 230.478819 
L 81.504303 235.16868 
L 82.483653 240.156379 
L 82.646878 239.890282 
L 82.810103 239.908245 
L 83.299778 242.526152 
L 83.463003 242.662289 
L 83.789453 243.224451 
L 83.952678 243.518595 
L 84.442353 245.620251 
L 84.768803 245.8148 
L 84.932028 246.065093 
L 85.095253 246.042031 
L 85.258478 245.702247 
L 85.421703 245.848316 
L 85.748153 246.736529 
L 86.074603 247.841969 
L 86.401053 247.584042 
L 86.564278 247.993037 
L 86.727503 247.895997 
L 87.053953 248.737392 
L 87.380403 249.166985 
L 87.543628 248.747099 
L 87.706853 248.982169 
L 87.870078 248.997689 
L 88.196528 249.585315 
L 88.359753 249.640655 
L 88.522978 249.997144 
L 88.686203 251.467706 
L 89.665553 265.540459 
L 89.992003 269.47006 
L 90.318453 272.815829 
L 90.481678 273.430513 
L 90.808128 275.907902 
L 91.134578 276.99756 
L 91.297803 276.97815 
L 91.461028 277.772644 
L 91.624253 277.233766 
L 91.787478 277.61858 
L 91.950703 277.629965 
L 92.113928 277.080579 
L 92.277153 276.9918 
L 92.603603 276.316771 
L 92.930053 275.110276 
L 93.582954 273.860615 
L 94.562304 272.155893 
L 94.725529 271.543673 
L 95.051979 271.553535 
L 95.215204 271.128196 
L 95.378429 270.311419 
L 95.541654 270.445579 
L 96.031329 269.807212 
L 96.521004 268.707983 
L 96.684229 268.685663 
L 96.847454 268.885817 
L 97.173904 267.963274 
L 97.337129 267.838055 
L 97.826804 266.860989 
L 99.132604 265.304041 
L 99.295829 265.558415 
L 99.785504 264.561967 
L 99.948729 264.70593 
L 100.275179 263.77222 
L 100.438404 263.894572 
L 100.764854 262.448356 
L 100.928079 261.833169 
L 101.417754 262.33042 
L 101.744204 262.235185 
L 101.907429 262.314818 
L 102.070654 262.171165 
L 102.233879 262.213249 
L 102.560329 261.935876 
L 102.886779 262.641839 
L 103.050004 262.475314 
L 103.213229 262.666364 
L 103.539679 261.022301 
L 103.702904 261.121271 
L 103.866129 261.08071 
L 104.029354 261.768775 
L 104.192579 261.815795 
L 104.682254 261.010353 
L 105.008704 260.358932 
L 105.171929 261.259043 
L 105.335154 260.684504 
L 105.498379 259.042663 
L 105.661604 259.015811 
L 105.988054 259.642415 
L 106.151279 259.707097 
L 106.314504 259.193979 
L 107.293854 259.382744 
L 107.620304 259.642419 
L 107.783529 259.637483 
L 107.946754 259.520265 
L 108.109979 259.911125 
L 108.273204 259.613266 
L 108.436429 259.672638 
L 108.762879 259.965474 
L 109.089329 260.041326 
L 109.41578 260.817433 
L 109.579005 260.765017 
L 109.74223 260.930466 
L 109.905455 260.931098 
L 110.06868 261.118516 
L 110.39513 260.754099 
L 110.72158 261.124485 
L 110.884805 260.962466 
L 111.04803 261.058568 
L 111.37448 261.560054 
L 111.537705 261.054271 
L 111.70093 261.219346 
L 111.864155 261.78113 
L 112.190605 261.906776 
L 112.35383 261.924541 
L 112.843505 262.386409 
L 113.00673 261.694575 
L 113.169955 261.643626 
L 113.65963 261.849792 
L 113.98608 261.896583 
L 114.31253 261.896424 
L 114.475755 261.79957 
L 114.802205 262.398068 
L 115.128655 262.221923 
L 115.29188 262.33143 
L 115.455105 261.65907 
L 115.61833 262.388802 
L 115.94478 262.178203 
L 116.434455 262.621323 
L 116.760905 264.025965 
L 116.92413 264.018546 
L 117.087355 264.846514 
L 117.25058 264.300653 
L 117.413805 264.816037 
L 117.57703 264.840922 
L 117.740255 264.570654 
L 117.90348 264.533274 
L 118.22993 265.437864 
L 118.55638 265.261464 
L 118.719605 265.395118 
L 118.88283 265.194723 
L 119.046055 265.177796 
L 119.53573 265.619198 
L 119.698955 265.910048 
L 120.18863 267.393107 
L 120.351855 267.209248 
L 120.678305 266.340743 
L 120.84153 266.844145 
L 121.16798 267.154647 
L 121.331205 267.711988 
L 121.657655 267.80046 
L 122.14733 270.251361 
L 122.310555 269.894257 
L 122.637005 269.781651 
L 122.80023 270.344365 
L 123.77958 270.874474 
L 123.942805 270.601256 
L 124.595705 271.17712 
L 124.75893 271.640891 
L 125.248606 271.779885 
L 125.738281 271.215883 
L 125.901506 271.264092 
L 126.227956 271.13687 
L 126.554406 271.229572 
L 126.880856 271.706149 
L 127.044081 271.573981 
L 127.207306 271.600912 
L 127.370531 271.752997 
L 127.696981 271.527633 
L 127.860206 271.342734 
L 128.023431 271.941199 
L 128.186656 271.79954 
L 129.329231 272.170877 
L 129.492456 272.948858 
L 129.655681 272.974303 
L 129.818906 272.855182 
L 129.982131 273.426295 
L 130.145356 273.201931 
L 130.308581 273.315808 
L 130.635031 272.723394 
L 130.798256 272.846534 
L 130.961481 273.168848 
L 131.451156 273.361967 
L 131.777606 273.494867 
L 131.940831 274.068718 
L 132.104056 274.133966 
L 132.430506 274.62836 
L 132.593731 274.651494 
L 132.920181 274.036046 
L 133.246631 273.487236 
L 133.573081 273.742726 
L 133.736306 274.400397 
L 134.225981 274.701325 
L 134.389206 274.851674 
L 134.552431 274.608612 
L 134.715656 274.771555 
L 135.042106 275.250572 
L 135.531781 275.42585 
L 135.695006 275.118447 
L 135.858231 275.096935 
L 136.184681 274.950707 
L 136.674356 275.113564 
L 137.653706 277.032328 
L 138.143381 277.414867 
L 138.469831 277.40083 
L 138.633056 277.426464 
L 138.796281 277.749877 
L 138.959506 277.701483 
L 139.285956 277.879287 
L 139.775631 278.139134 
L 139.938856 278.023132 
L 140.265306 278.119549 
L 140.428531 278.648763 
L 140.754981 278.686706 
L 141.081432 278.550274 
L 141.734332 278.852661 
L 142.713682 280.33244 
L 142.876907 280.457572 
L 143.040132 280.4021 
L 143.203357 280.538811 
L 143.366582 280.503774 
L 144.345932 281.588444 
L 145.325282 282.098623 
L 145.651732 281.991092 
L 145.978182 282.331029 
L 146.141407 282.422385 
L 146.467857 282.738944 
L 146.794307 283.014157 
L 147.120757 283.915959 
L 147.936882 284.323059 
L 148.100107 284.146397 
L 148.263332 284.196333 
L 148.426557 284.551397 
L 148.589782 284.614584 
L 148.753007 284.450343 
L 149.079457 284.476401 
L 149.569132 285.663495 
L 149.732357 285.935639 
L 150.058807 286.044661 
L 151.364607 286.964388 
L 151.691057 287.023763 
L 152.180732 287.627104 
L 152.670407 287.88171 
L 152.833632 287.637923 
L 153.486532 288.076451 
L 155.118782 288.703594 
L 155.445232 289.038783 
L 155.608457 288.832675 
L 155.934907 289.064523 
L 156.587807 289.37327 
L 156.751032 289.467704 
L 157.077483 289.385203 
L 157.240708 289.442484 
L 157.567158 289.797053 
L 157.730383 289.921552 
L 158.383283 289.898626 
L 158.546508 289.938606 
L 158.709733 289.32372 
L 158.872958 289.273103 
L 159.036183 289.369001 
L 159.199408 289.656549 
L 159.362633 289.618098 
L 159.525858 289.725745 
L 159.689083 289.688631 
L 160.015533 289.7882 
L 160.831658 289.99767 
L 161.158108 290.052192 
L 161.811008 290.317335 
L 162.300683 290.43693 
L 162.627133 290.420736 
L 163.443258 290.468703 
L 163.606483 290.558439 
L 163.932933 290.031762 
L 164.422608 290.052488 
L 164.749058 290.242847 
L 165.075508 290.191944 
L 165.401958 290.56442 
L 165.728408 290.570607 
L 166.054858 290.733717 
L 167.197433 290.827575 
L 167.360658 290.763345 
L 167.523883 290.831877 
L 167.687108 290.738293 
L 167.850333 290.841102 
L 168.340008 290.655518 
L 168.503233 290.655795 
L 168.829683 290.870754 
L 169.156133 290.807901 
L 169.319358 291.074155 
L 169.809033 290.957035 
L 170.788383 291.152334 
L 171.767733 290.869275 
L 171.930958 290.834682 
L 172.094183 291.162057 
L 172.583858 290.934071 
L 172.910309 290.971387 
L 174.379334 291.154853 
L 175.032234 291.355135 
L 175.195459 291.994517 
L 175.848359 291.796687 
L 176.174809 291.763103 
L 176.827709 291.669099 
L 176.990934 290.892946 
L 177.317384 290.872713 
L 177.643834 290.908969 
L 178.623184 290.930091 
L 179.928984 291.135785 
L 180.092209 291.173946 
L 180.418659 291.680844 
L 182.214134 291.8493 
L 182.540584 291.777385 
L 183.683159 291.895622 
L 184.825734 292.312865 
L 184.988959 292.304679 
L 185.152184 292.129527 
L 185.641859 292.256325 
L 186.131534 292.463282 
L 186.457984 292.336984 
L 186.947659 292.345619 
L 187.600559 292.220927 
L 189.88571 292.787971 
L 191.028285 292.874101 
L 191.354735 292.748878 
L 191.681185 292.737603 
L 191.84441 292.899465 
L 192.007635 291.765841 
L 192.82376 292.090451 
L 192.986985 291.963861 
L 193.313435 292.012275 
L 193.47666 292.823078 
L 193.80311 292.916928 
L 194.619235 293.045122 
L 195.10891 293.150401 
L 195.43536 293.116059 
L 196.08826 293.255427 
L 197.72051 293.53329 
L 198.04696 293.545683 
L 198.210185 293.343611 
L 199.02631 293.595188 
L 199.35276 293.489337 
L 199.515985 293.489549 
L 199.842435 293.658843 
L 200.33211 293.667762 
L 200.98501 293.840521 
L 201.148235 292.648621 
L 201.474685 292.702034 
L 201.63791 292.923945 
L 205.555311 293.418479 
L 205.718536 292.873533 
L 208.166911 293.142282 
L 208.330136 293.176541 
L 208.493361 294.342959 
L 209.635936 294.390368 
L 210.125611 294.508866 
L 210.778511 294.442667 
L 211.431411 294.33945 
L 211.594636 294.272806 
L 211.921086 294.392638 
L 212.410761 294.380143 
L 212.737211 294.365593 
L 212.900436 293.190125 
L 214.206236 293.282375 
L 215.185586 293.617014 
L 215.512036 293.42055 
L 215.838486 293.562883 
L 217.470736 293.555175 
L 217.633961 294.800114 
L 217.797186 294.806808 
L 218.123636 294.659916 
L 218.776536 294.626162 
L 219.102986 294.475957 
L 219.266211 294.427676 
L 219.429436 294.612222 
L 220.408787 294.630844 
L 220.572012 294.291699 
L 220.735237 294.302884 
L 220.898462 294.044163 
L 221.714587 294.183225 
L 221.877812 293.373206 
L 222.041037 293.36718 
L 222.204262 293.928323 
L 222.530712 293.78972 
L 223.020387 293.815961 
L 223.346837 293.760642 
L 224.979087 293.967552 
L 225.142312 293.848264 
L 226.121662 293.981079 
L 226.448112 293.928177 
L 226.611337 293.828706 
L 227.101012 293.920264 
L 227.753912 294.006776 
L 228.080362 294.229821 
L 228.570037 294.139782 
L 229.059712 294.063509 
L 229.222937 294.045401 
L 229.386162 295.203699 
L 230.691962 295.116735 
L 231.181637 295.040942 
L 231.671312 294.948853 
L 232.160987 295.144393 
L 232.487437 295.077491 
L 232.977112 295.027899 
L 233.793237 294.974869 
L 233.956462 294.535001 
L 234.282912 294.546975 
L 234.446137 294.698751 
L 235.262262 294.459718 
L 235.751937 294.588365 
L 236.078387 294.603775 
L 236.731288 294.548243 
L 236.894513 294.311697 
L 237.057738 294.671871 
L 237.710638 294.759194 
L 238.200313 294.700022 
L 238.363538 295.488 
L 238.689988 295.367311 
L 239.016438 295.459913 
L 239.506113 295.383142 
L 240.159013 295.388238 
L 240.975138 295.234153 
L 241.138363 294.985037 
L 241.464813 294.951676 
L 241.628038 295.094822 
L 241.954488 295.033682 
L 242.117713 295.038414 
L 242.280938 294.401255 
L 243.097063 294.444261 
L 243.423513 294.37699 
L 244.892538 294.105482 
L 245.218988 294.256454 
L 245.708663 294.154943 
L 245.871888 293.894549 
L 247.014463 293.875464 
L 247.177688 293.151813 
L 247.340913 293.085299 
L 247.667363 293.172693 
L 248.157038 293.101327 
L 248.320263 292.552941 
L 249.462838 292.481361 
L 249.626063 292.178139 
L 250.278963 292.172869 
L 250.442188 292.625483 
L 251.095088 292.588958 
L 251.258313 292.762568 
L 251.421538 292.537396 
L 252.074439 292.662219 
L 252.890564 292.596685 
L 253.217014 292.645085 
L 253.380239 292.867495 
L 253.706689 292.820837 
L 253.869914 292.971039 
L 254.196364 292.919737 
L 254.359589 292.280848 
L 254.686039 292.179091 
L 257.460864 292.153957 
L 257.624089 292.416312 
L 258.276989 292.337158 
L 258.603439 292.306816 
L 258.766664 292.908496 
L 259.093114 292.842339 
L 259.256339 292.542766 
L 259.582789 292.526042 
L 259.909239 292.582583 
L 260.562139 292.535239 
L 261.215039 292.468807 
L 261.541489 292.448383 
L 261.704714 292.444958 
L 261.867939 291.402598 
L 262.194389 291.46872 
L 262.357614 291.718909 
L 263.500189 291.530302 
L 263.663414 292.266565 
L 263.989864 292.264342 
L 264.642764 292.312009 
L 264.805989 292.791161 
L 265.785339 292.687519 
L 265.948564 292.689063 
L 266.111789 292.082189 
L 267.744039 291.769385 
L 267.907265 291.985889 
L 270.35564 291.903004 
L 270.518865 291.464854 
L 270.68209 291.476146 
L 270.845315 292.038854 
L 271.171765 292.129176 
L 271.498215 292.099899 
L 272.151115 292.100708 
L 272.31434 292.095392 
L 272.477565 291.381017 
L 272.64079 291.393802 
L 272.804015 291.210582 
L 273.29369 291.20071 
L 274.436265 291.101616 
L 274.59949 290.805666 
L 275.089165 290.789045 
L 275.57884 290.78494 
L 275.742065 291.098009 
L 276.068515 291.122334 
L 276.23174 290.954534 
L 278.027215 290.866607 
L 278.19044 290.811569 
L 278.353665 291.944486 
L 278.680115 291.860411 
L 279.16979 291.83557 
L 279.49624 291.700843 
L 281.291715 291.436749 
L 281.45494 290.696573 
L 282.271065 290.673796 
L 282.43429 290.655974 
L 282.597515 291.515421 
L 282.923965 291.416029 
L 283.08719 291.362819 
L 283.576865 291.475179 
L 283.74009 290.311207 
L 283.903316 290.257005 
L 284.229766 290.388142 
L 284.556216 290.13026 
L 285.045891 290.003324 
L 285.209116 289.300012 
L 285.535566 289.221487 
L 285.862016 289.080912 
L 286.025241 288.356479 
L 286.351691 288.259203 
L 286.678141 288.303833 
L 286.841366 288.174719 
L 287.004591 288.643315 
L 287.657491 288.5639 
L 287.983941 288.572193 
L 288.147166 288.022079 
L 288.800066 287.926128 
L 288.963291 288.671232 
L 289.126516 288.608048 
L 289.289741 288.769829 
L 290.758766 288.635006 
L 290.921991 288.559181 
L 291.085216 288.837356 
L 291.411666 288.810711 
L 291.574891 288.708045 
L 291.738116 288.284628 
L 292.391016 288.277967 
L 292.554241 288.221208 
L 292.880691 288.230179 
L 293.533591 288.087423 
L 294.186491 287.984467 
L 294.512941 288.017776 
L 294.839391 287.975176 
L 295.165841 287.669948 
L 295.492291 287.542845 
L 296.634866 287.735315 
L 297.614216 287.662446 
L 297.777441 287.7288 
L 297.940666 288.483913 
L 298.267116 288.482875 
L 298.430341 288.432871 
L 298.756791 288.482215 
L 300.062592 288.549075 
L 300.225817 289.664502 
L 300.552267 289.515032 
L 300.715492 289.502033 
L 300.878717 289.633734 
L 301.531617 289.435073 
L 301.694842 290.161628 
L 301.858067 290.186611 
L 302.021292 289.871214 
L 302.347742 289.907328 
L 302.510967 290.648565 
L 303.000642 290.612001 
L 303.653542 290.514352 
L 303.979992 290.511911 
L 304.469667 290.466875 
L 304.632892 290.987426 
L 306.101917 290.768384 
L 306.265142 290.40535 
L 306.591592 290.35903 
L 306.754817 290.380233 
L 307.081267 290.299371 
L 307.244492 290.251243 
L 307.570942 290.348961 
L 307.734167 290.359047 
L 307.897392 289.736559 
L 308.060617 289.719398 
L 308.223842 290.151855 
L 308.713517 289.979132 
L 309.203192 290.015004 
L 311.161892 290.021926 
L 311.325117 289.93321 
L 311.488342 290.179645 
L 312.304467 290.192792 
L 312.957367 290.186915 
L 313.120592 290.219048 
L 313.447042 290.023481 
L 314.099942 290.165804 
L 314.263167 289.868995 
L 316.711543 289.443436 
L 317.037993 289.524435 
L 317.854118 289.610596 
L 318.017343 289.690424 
L 318.343793 289.58047 
L 318.507018 289.929734 
L 319.649593 289.952161 
L 319.812818 289.497987 
L 320.465718 289.53644 
L 321.281843 289.449075 
L 321.608293 289.537214 
L 322.587643 289.37781 
L 322.750868 289.67739 
L 323.077318 289.762899 
L 323.403768 289.784353 
L 324.219893 289.784229 
L 324.383118 290.444278 
L 324.709568 290.442978 
L 325.199243 290.347736 
L 325.852143 290.449387 
L 326.015368 290.141195 
L 326.668268 290.115579 
L 326.831493 290.140447 
L 327.157943 289.957019 
L 329.279868 290.003641 
L 329.606318 289.839478 
L 329.769543 289.871502 
L 329.932768 289.252851 
L 330.585668 289.104665 
L 330.748893 289.473587 
L 331.401794 289.513999 
L 331.728244 289.557078 
L 331.891469 289.487998 
L 332.217919 289.530785 
L 333.197269 289.408418 
L 333.360494 289.157214 
L 334.013394 289.074789 
L 334.176619 289.138507 
L 334.503069 289.050267 
L 334.992744 289.125815 
L 335.319194 289.081375 
L 335.645644 289.1396 
L 335.808869 288.655343 
L 336.135319 288.655896 
L 336.298544 289.01929 
L 336.461769 289.088309 
L 336.624994 288.975445 
L 337.441119 289.084328 
L 337.767569 289.00425 
L 338.094019 288.940555 
L 338.746919 288.939805 
L 339.073369 288.765568 
L 339.399819 288.781204 
L 340.705619 288.567308 
L 341.032069 288.469843 
L 341.195294 288.496136 
L 341.358519 288.651987 
L 342.011419 288.580198 
L 342.337869 288.434167 
L 342.501094 288.644069 
L 343.317219 288.406999 
L 343.643669 288.516031 
L 344.133344 288.374297 
L 344.459794 288.348497 
L 345.112694 288.34353 
L 345.275919 288.252701 
L 345.439144 288.306414 
L 345.602369 287.613971 
L 345.928819 287.632366 
L 346.255269 287.67502 
L 346.418494 288.305352 
L 347.56107 288.336692 
L 348.86687 288.286226 
L 349.19332 288.236297 
L 349.356545 288.421942 
L 349.682995 288.432662 
L 350.009445 288.716671 
L 350.662345 288.627698 
L 351.315245 288.549499 
L 351.47847 288.206481 
L 351.80492 288.217718 
L 352.13137 288.087823 
L 352.294595 288.486782 
L 352.621045 288.420582 
L 352.947495 288.508098 
L 353.76362 288.235122 
L 354.579745 288.186377 
L 354.906195 288.209377 
L 355.72232 288.308865 
L 356.211995 288.213858 
L 356.70167 288.352897 
L 357.35457 288.352099 
L 358.170695 288.332117 
L 358.33392 288.195786 
L 358.823595 288.307254 
L 359.802945 288.317487 
L 360.94552 288.488156 
L 361.59842 288.32867 
L 361.761645 288.394963 
L 361.92487 288.325304 
L 362.088095 289.007768 
L 362.25132 288.969291 
L 362.414545 288.482675 
L 362.740995 288.556193 
L 363.067445 288.565807 
L 364.210021 288.116739 
L 364.536471 288.227324 
L 364.699696 288.01506 
L 365.679046 288.089139 
L 366.495171 287.915662 
L 366.658396 287.997387 
L 366.984846 287.968495 
L 367.474521 287.964587 
L 367.637746 287.607067 
L 367.800971 286.860462 
L 367.964196 287.149112 
L 368.127421 286.852604 
L 368.453871 286.862738 
L 368.780321 286.813611 
L 369.106771 286.843111 
L 369.759671 286.976719 
L 370.086121 287.126089 
L 370.249346 286.971765 
L 371.065471 287.114967 
L 372.208046 287.053058 
L 372.697721 287.111347 
L 373.350621 287.059257 
L 373.513846 286.250686 
L 374.656421 286.156666 
L 374.819646 286.256938 
L 375.146096 286.214504 
L 375.309321 285.329848 
L 375.635771 285.437993 
L 375.962221 285.582492 
L 376.125446 285.611195 
L 376.451896 285.453119 
L 376.615121 284.769183 
L 377.104796 284.753865 
L 377.594471 284.771232 
L 377.920921 284.842721 
L 378.737046 284.565915 
L 378.900271 285.039183 
L 379.063497 284.375079 
L 379.879622 284.412566 
L 380.369297 284.647278 
L 380.695747 284.441499 
L 381.022197 284.347894 
L 381.185422 284.553334 
L 381.675097 284.472374 
L 382.164772 284.303265 
L 383.960247 284.473794 
L 384.123472 284.877445 
L 384.286697 285.641578 
L 384.776372 285.728629 
L 384.939597 284.733015 
L 385.266047 284.802502 
L 387.877647 284.553805 
L 388.367322 284.283509 
L 388.530547 284.263144 
L 388.856997 283.879167 
L 389.183447 283.890428 
L 389.346672 283.82452 
L 389.673122 283.948022 
L 389.836347 283.933355 
L 389.999572 284.75411 
L 390.162797 284.794932 
L 390.326022 284.613656 
L 390.815697 284.698168 
L 390.978922 284.285777 
L 391.142147 284.295601 
L 391.305372 283.69825 
L 391.631822 283.726984 
L 391.795047 284.575263 
L 392.611172 284.535101 
L 392.937622 283.825117 
L 393.100847 284.202678 
L 393.916972 284.195727 
L 394.406647 284.31854 
L 395.222773 284.553133 
L 395.385998 284.413174 
L 395.549223 285.049726 
L 396.038898 284.882231 
L 396.365348 284.870413 
L 396.691798 284.975329 
L 396.855023 284.95426 
L 397.018248 285.169363 
L 397.834373 285.175052 
L 398.487273 285.401098 
L 398.487273 285.401098 
" clip-path="url(#pe818f5a377)" style="fill: none; stroke: #1f77b4; stroke-width: 1.5; stroke-linecap: square"/>
   </g>
   <g id="line2d_30">
    <path d="M 73.832727 120.86305 
L 73.995952 130.102428 
L 74.159177 131.801904 
L 75.301752 168.029123 
L 76.117877 193.632383 
L 77.260452 211.304237 
L 77.423677 213.96664 
L 77.586903 214.159914 
L 78.403028 225.279428 
L 78.729478 228.573949 
L 79.219153 232.887425 
L 79.382378 234.127951 
L 79.545603 234.458767 
L 80.035278 238.772478 
L 80.198503 238.428796 
L 80.361728 237.718726 
L 80.524953 238.756775 
L 80.688178 238.272937 
L 81.177853 240.80717 
L 81.341078 241.958346 
L 81.504303 241.657332 
L 81.667528 242.45437 
L 81.830753 242.512754 
L 81.993978 242.344615 
L 82.320428 241.595566 
L 82.483653 241.455641 
L 82.810103 240.937368 
L 83.136553 242.732765 
L 83.299778 242.677804 
L 83.463003 242.878166 
L 83.789453 242.857995 
L 84.442353 241.554793 
L 84.605578 241.935841 
L 84.768803 241.351047 
L 84.932028 241.295899 
L 85.095253 241.514112 
L 85.258478 241.256023 
L 85.421703 241.281082 
L 85.748153 240.814394 
L 86.074603 241.00796 
L 86.564278 240.032673 
L 86.727503 239.629263 
L 87.217178 240.29884 
L 87.380403 240.30101 
L 87.706853 239.361106 
L 88.033303 238.826155 
L 88.196528 238.820746 
L 88.359753 238.525942 
L 88.686203 239.409 
L 90.155228 252.795701 
L 90.644903 255.144644 
L 90.971353 255.912663 
L 91.134578 255.88761 
L 91.297803 256.06682 
L 91.461028 256.414081 
L 91.624253 255.488676 
L 91.787478 256.075356 
L 91.950703 256.006994 
L 92.113928 255.201242 
L 92.277153 254.965117 
L 92.766828 253.149465 
L 93.093278 252.837704 
L 93.256503 252.925164 
L 93.582954 252.363398 
L 93.746179 252.2694 
L 93.909404 251.871041 
L 94.072629 251.836873 
L 94.888754 248.628739 
L 95.051979 248.402455 
L 95.215204 247.780582 
L 95.541654 246.018448 
L 95.704879 245.414288 
L 95.868104 245.358581 
L 96.194554 244.151688 
L 96.521004 242.829099 
L 96.847454 244.15225 
L 97.010679 244.122637 
L 97.337129 244.604236 
L 97.500354 243.72539 
L 97.663579 243.561276 
L 97.826804 242.698335 
L 97.990029 242.851108 
L 98.153254 242.053859 
L 98.316479 242.562463 
L 98.479704 242.565261 
L 98.642929 242.813937 
L 98.806154 243.381931 
L 98.969379 243.459079 
L 99.132604 242.701997 
L 99.295829 242.774961 
L 99.622279 241.81699 
L 99.785504 241.942574 
L 99.948729 241.737607 
L 100.275179 240.345405 
L 100.438404 240.479578 
L 100.601629 239.787126 
L 100.764854 240.49755 
L 101.091304 240.13816 
L 101.417754 241.482321 
L 101.744204 240.426741 
L 101.907429 240.509765 
L 102.560329 243.194982 
L 102.723554 243.638416 
L 103.050004 245.077873 
L 103.213229 245.353782 
L 103.539679 243.643983 
L 103.866129 244.074976 
L 104.192579 245.935792 
L 104.355804 245.834672 
L 104.519029 246.395888 
L 105.008704 245.012755 
L 105.171929 245.795953 
L 105.335154 244.921086 
L 105.498379 243.260502 
L 105.661604 243.527843 
L 105.824829 242.994461 
L 105.988054 243.250087 
L 106.151279 243.084147 
L 106.314504 242.232467 
L 106.477729 242.43818 
L 106.640954 242.146372 
L 106.804179 242.084682 
L 106.967404 241.50805 
L 107.130629 241.349389 
L 107.457079 240.683264 
L 107.946754 240.485454 
L 108.109979 240.773332 
L 108.436429 239.700815 
L 108.599654 239.987609 
L 108.926104 239.507368 
L 109.089329 240.144264 
L 109.252555 240.279882 
L 109.41578 239.778672 
L 109.579005 239.763362 
L 109.74223 240.00056 
L 110.06868 240.118582 
L 110.39513 239.123749 
L 110.72158 240.358147 
L 110.884805 240.34629 
L 111.04803 241.129064 
L 111.211255 240.660382 
L 111.37448 241.079128 
L 111.537705 240.221727 
L 111.70093 240.236816 
L 112.190605 241.881422 
L 112.35383 241.277283 
L 112.517055 241.671473 
L 112.68028 242.356259 
L 112.843505 242.289177 
L 113.00673 241.503709 
L 113.33318 241.301471 
L 113.496405 240.235899 
L 113.65963 240.229986 
L 113.822855 239.614757 
L 113.98608 239.773132 
L 114.149305 239.376173 
L 114.31253 239.469465 
L 114.475755 239.005282 
L 114.63898 239.299905 
L 114.802205 238.855311 
L 114.96543 238.903329 
L 115.128655 238.487412 
L 115.29188 238.767396 
L 115.455105 237.900353 
L 115.61833 238.822863 
L 116.27123 237.520682 
L 116.434455 237.468506 
L 116.760905 239.604865 
L 116.92413 239.551761 
L 117.087355 240.182368 
L 117.25058 238.712 
L 117.57703 239.897541 
L 117.90348 238.65947 
L 118.22993 239.527739 
L 118.393155 239.091566 
L 118.55638 238.15654 
L 118.719605 238.13657 
L 119.046055 236.316809 
L 119.20928 236.848028 
L 119.53573 235.851485 
L 119.698955 236.059012 
L 120.025405 237.789558 
L 120.678305 234.599304 
L 120.84153 235.509727 
L 121.004755 235.778126 
L 121.331205 236.904716 
L 121.49443 236.997146 
L 121.657655 236.760008 
L 121.82088 237.633121 
L 121.984105 239.223122 
L 122.14733 238.504205 
L 122.637005 238.076421 
L 122.80023 238.521921 
L 122.963455 237.824606 
L 123.12668 238.064425 
L 123.289905 237.592 
L 123.45313 237.963424 
L 123.616355 238.692859 
L 123.77958 238.878575 
L 123.942805 238.832956 
L 124.10603 238.922788 
L 124.269255 238.828799 
L 124.595705 239.668497 
L 124.922155 240.358859 
L 125.085381 240.047926 
L 125.248606 240.247591 
L 125.411831 240.245326 
L 125.738281 239.43494 
L 125.901506 240.239371 
L 126.064731 240.06468 
L 126.227956 239.284878 
L 126.391181 239.74694 
L 126.554406 239.437098 
L 126.880856 240.242389 
L 127.044081 239.441854 
L 127.370531 239.794283 
L 127.860206 238.490236 
L 128.023431 239.153711 
L 128.186656 238.7834 
L 128.349881 238.765778 
L 128.513106 239.15822 
L 128.676331 239.195462 
L 128.839556 240.016012 
L 129.166006 240.020937 
L 129.329231 240.306585 
L 129.492456 240.959936 
L 129.818906 240.06593 
L 129.982131 240.734175 
L 130.145356 240.638884 
L 130.308581 241.096347 
L 130.635031 240.596342 
L 131.287931 242.762418 
L 131.451156 242.518041 
L 131.614381 243.303945 
L 131.777606 242.657814 
L 132.267281 244.281156 
L 132.430506 244.421242 
L 132.593731 244.762377 
L 132.756956 244.718737 
L 132.920181 244.384898 
L 133.246631 242.871633 
L 133.409856 243.04092 
L 133.736306 244.934935 
L 133.899531 244.88947 
L 134.062756 244.184024 
L 134.225981 244.301499 
L 134.389206 244.777583 
L 134.552431 244.746811 
L 134.715656 245.140753 
L 135.042106 246.524354 
L 135.205331 246.550144 
L 135.531781 247.448615 
L 135.695006 246.385155 
L 135.858231 246.40743 
L 136.184681 247.063838 
L 136.347906 246.808858 
L 136.837581 249.009917 
L 137.000806 249.262842 
L 137.164031 250.223273 
L 137.490481 249.08619 
L 137.653706 249.30028 
L 137.980156 250.056985 
L 138.143381 250.517778 
L 138.306606 250.282266 
L 138.469831 250.255846 
L 138.959506 252.158226 
L 139.285956 252.438024 
L 139.449181 252.413492 
L 139.612406 252.707326 
L 139.775631 253.285423 
L 140.102081 252.406509 
L 140.428531 253.415878 
L 140.591756 253.472669 
L 141.081432 252.229927 
L 141.734332 253.193626 
L 142.060782 254.280589 
L 142.224007 254.692533 
L 142.387232 254.342035 
L 142.713682 254.74306 
L 142.876907 254.591101 
L 143.203357 254.932574 
L 143.529807 255.703964 
L 143.693032 255.745621 
L 143.856257 256.051005 
L 144.019482 256.109528 
L 144.345932 257.007085 
L 144.509157 257.265229 
L 144.835607 258.173579 
L 145.325282 256.626703 
L 145.488507 256.762641 
L 145.651732 256.175381 
L 145.814957 256.488538 
L 146.304632 258.048678 
L 146.631082 258.225408 
L 146.794307 257.795342 
L 147.120757 259.615246 
L 147.283982 259.253507 
L 147.447207 259.456862 
L 147.773657 258.838136 
L 147.936882 259.309599 
L 148.100107 258.856534 
L 148.263332 259.074009 
L 148.426557 259.924693 
L 148.589782 259.402974 
L 148.753007 259.385327 
L 148.916232 259.961176 
L 149.079457 259.886975 
L 149.405907 261.050574 
L 149.732357 262.145341 
L 149.895582 262.337814 
L 150.058807 262.053801 
L 150.222032 262.104776 
L 150.548482 262.641341 
L 150.711707 262.985887 
L 150.874932 262.705427 
L 151.201382 262.982524 
L 151.364607 262.495764 
L 151.527832 262.645225 
L 151.691057 262.272572 
L 151.854282 262.354194 
L 152.017507 262.619951 
L 152.343957 263.801173 
L 152.507182 263.670716 
L 152.996857 262.798504 
L 153.160082 262.790255 
L 153.323307 262.913688 
L 153.486532 263.238471 
L 153.649757 263.165738 
L 153.976207 263.683413 
L 154.139432 263.664058 
L 154.302657 263.434311 
L 154.465882 263.492233 
L 154.629107 263.349861 
L 154.792332 263.604489 
L 154.955557 263.573542 
L 155.118782 263.241054 
L 155.282007 263.46467 
L 155.445232 263.142988 
L 155.608457 263.233978 
L 155.934907 263.949737 
L 156.261357 263.885054 
L 156.587807 264.424406 
L 156.751032 264.074498 
L 157.077483 264.4861 
L 157.567158 265.86291 
L 157.893608 265.707311 
L 158.220058 266.173052 
L 158.709733 265.720034 
L 159.199408 266.561807 
L 159.362633 266.574755 
L 159.689083 266.953037 
L 159.852308 266.842164 
L 160.015533 266.951091 
L 160.178758 266.674481 
L 160.505208 267.039856 
L 160.668433 267.02397 
L 160.831658 267.129927 
L 160.994883 267.074971 
L 161.321333 267.244852 
L 161.647783 267.708589 
L 162.137458 268.615863 
L 162.300683 268.512142 
L 162.627133 267.994486 
L 162.953583 268.25212 
L 163.280033 268.879329 
L 163.606483 268.465279 
L 164.422608 268.575546 
L 164.749058 269.25506 
L 164.912283 269.061204 
L 165.238733 269.753576 
L 165.401958 269.529277 
L 165.728408 269.688875 
L 165.891633 269.66526 
L 166.054858 269.7962 
L 166.544533 269.697653 
L 167.034208 270.170442 
L 167.197433 270.303325 
L 167.687108 270.926659 
L 167.850333 271.157705 
L 168.013558 271.121402 
L 168.340008 271.291794 
L 168.503233 271.266302 
L 168.666458 271.455316 
L 168.829683 271.097461 
L 169.482583 271.227377 
L 169.645808 270.761861 
L 170.625158 271.03441 
L 170.788383 270.977681 
L 170.951608 271.058508 
L 171.278058 270.755463 
L 171.604508 271.344209 
L 171.767733 271.146493 
L 172.420633 271.398486 
L 172.583858 271.254015 
L 172.910309 271.363771 
L 173.073534 271.558993 
L 173.726434 271.516199 
L 173.889659 271.436828 
L 174.216109 271.514798 
L 174.379334 271.253585 
L 174.542559 271.204755 
L 174.869009 271.287154 
L 175.032234 271.24316 
L 175.195459 271.447259 
L 175.358684 271.144052 
L 175.685134 271.220688 
L 175.848359 270.994661 
L 176.011584 271.076049 
L 176.338034 270.511783 
L 176.664484 270.892477 
L 176.827709 270.853275 
L 176.990934 270.015233 
L 177.317384 270.125188 
L 177.480609 270.315913 
L 177.643834 270.087181 
L 177.807059 270.248127 
L 177.970284 270.11387 
L 178.133509 270.289997 
L 178.459959 269.83037 
L 178.786409 270.217917 
L 178.949634 270.176673 
L 179.276084 270.30251 
L 179.928984 270.590731 
L 180.092209 270.531706 
L 180.255434 271.018749 
L 180.418659 270.980512 
L 180.581884 271.189483 
L 181.398009 270.82229 
L 181.724459 271.085453 
L 182.540584 271.143797 
L 183.356709 271.935386 
L 183.519934 271.798119 
L 184.172834 272.173762 
L 184.336059 271.896051 
L 184.499284 272.026844 
L 184.825734 271.642138 
L 184.988959 271.641925 
L 185.152184 271.3739 
L 185.641859 271.646334 
L 185.805084 272.162051 
L 186.131534 272.148675 
L 186.784434 271.817183 
L 187.110884 271.904273 
L 187.600559 272.137194 
L 187.763784 272.272643 
L 188.090234 271.8833 
L 188.253459 272.026024 
L 188.57991 271.914134 
L 188.743135 272.141092 
L 188.90636 272.090993 
L 189.23281 272.382137 
L 189.396035 272.557699 
L 189.55926 272.472461 
L 189.722485 272.548474 
L 190.048935 272.955359 
L 190.21216 272.739272 
L 190.375385 272.885025 
L 190.53861 272.860279 
L 191.028285 273.195624 
L 191.19151 272.991512 
L 191.51796 273.060502 
L 191.681185 273.069283 
L 191.84441 273.209034 
L 192.007635 272.51787 
L 192.334085 272.726712 
L 192.49731 272.596026 
L 192.82376 273.124421 
L 193.15021 272.722027 
L 193.313435 272.647564 
L 193.47666 273.472691 
L 194.292785 273.414575 
L 194.45601 273.442071 
L 194.619235 273.339947 
L 194.945685 273.531139 
L 195.43536 273.208888 
L 195.598585 273.368365 
L 195.76181 273.227486 
L 196.08826 273.232323 
L 196.251485 273.069641 
L 196.577935 273.50984 
L 196.74116 273.256876 
L 196.904385 273.360912 
L 197.06761 273.180164 
L 197.39406 273.470981 
L 197.557285 273.451777 
L 197.72051 273.557114 
L 198.210185 272.827131 
L 199.02631 272.993771 
L 199.189535 273.030558 
L 199.35276 272.706103 
L 199.515985 272.739099 
L 199.67921 272.488884 
L 200.168885 272.32903 
L 200.495335 271.822863 
L 200.65856 271.803616 
L 200.98501 271.98234 
L 201.148235 270.928214 
L 201.474685 271.01446 
L 201.63791 271.384221 
L 201.96436 271.334545 
L 202.127585 271.391372 
L 202.29081 271.097164 
L 202.454035 271.154879 
L 202.780485 271.640898 
L 202.94371 271.415845 
L 203.759835 271.788342 
L 204.086285 271.82093 
L 204.412735 272.037829 
L 204.575961 271.939835 
L 204.902411 272.066445 
L 205.065636 272.338657 
L 205.228861 272.294429 
L 205.555311 272.418767 
L 205.718536 271.763906 
L 206.044986 271.640501 
L 206.208211 271.528224 
L 206.371436 271.256955 
L 206.697886 271.389546 
L 206.861111 271.12105 
L 207.024336 271.157322 
L 207.187561 271.340941 
L 207.677236 271.415519 
L 208.003686 271.897738 
L 208.166911 272.156201 
L 208.330136 271.94296 
L 208.493361 272.465488 
L 208.983036 272.242876 
L 209.309486 271.868929 
L 210.941736 272.400046 
L 211.104961 272.71209 
L 211.268186 272.470124 
L 211.431411 272.809908 
L 211.594636 272.689871 
L 212.247536 272.892551 
L 212.573986 272.641195 
L 212.737211 272.63615 
L 212.900436 271.086814 
L 213.390111 271.091137 
L 214.043011 271.200167 
L 214.206236 271.070991 
L 214.695911 271.362851 
L 215.348811 271.038481 
L 216.654611 271.303818 
L 216.981061 271.562071 
L 217.144286 271.512578 
L 217.470736 271.710223 
L 217.633961 273.03931 
L 217.797186 273.110696 
L 217.960411 272.902632 
L 218.450086 273.028698 
L 218.613311 272.807473 
L 218.776536 273.002696 
L 218.939761 272.998433 
L 219.266211 272.583168 
L 219.592661 272.898195 
L 219.755886 272.842764 
L 219.919111 272.967393 
L 220.082336 272.851909 
L 220.408787 273.006502 
L 220.898462 272.196831 
L 221.388137 272.333191 
L 221.551362 272.052731 
L 221.714587 272.022719 
L 221.877812 271.342985 
L 222.041037 271.463968 
L 222.204262 272.088584 
L 222.530712 271.644606 
L 223.020387 271.668865 
L 223.183612 271.515496 
L 223.346837 271.922927 
L 223.510062 271.872907 
L 223.673287 271.615765 
L 223.836512 271.739467 
L 224.162962 271.752623 
L 224.652637 271.121431 
L 225.142312 270.966685 
L 225.305537 271.030165 
L 225.468762 271.284239 
L 225.631987 271.295237 
L 225.795212 271.542702 
L 226.448112 271.397149 
L 226.611337 271.167536 
L 226.774562 271.243097 
L 226.937787 271.163358 
L 227.427462 271.333714 
L 227.590687 270.910274 
L 227.753912 271.196233 
L 227.917137 270.806957 
L 228.080362 271.221202 
L 228.406812 271.465918 
L 228.733262 271.056179 
L 229.222937 271.244937 
L 229.386162 272.471302 
L 229.712612 272.233761 
L 229.875837 272.324498 
L 230.039062 272.266985 
L 230.528737 271.72426 
L 230.691962 271.94148 
L 230.855187 271.861741 
L 231.018412 271.654977 
L 231.181637 271.630082 
L 231.834537 272.422605 
L 232.160987 272.53469 
L 232.487437 272.593029 
L 232.813887 272.117099 
L 232.977112 272.172608 
L 233.140337 272.005987 
L 233.303562 272.157665 
L 233.630012 272.122074 
L 233.793237 271.831769 
L 233.956462 271.248455 
L 234.282912 271.023297 
L 234.609362 271.149416 
L 235.262262 270.561234 
L 235.425487 270.392599 
L 235.915162 270.927415 
L 236.404838 270.767952 
L 236.568063 270.847691 
L 236.731288 270.69102 
L 236.894513 270.331472 
L 237.057738 270.829571 
L 237.547413 270.993772 
L 237.873863 270.649123 
L 238.037088 270.789353 
L 238.200313 270.682118 
L 238.363538 271.447091 
L 238.689988 271.044469 
L 239.016438 271.23043 
L 239.342888 271.118386 
L 239.506113 271.232641 
L 239.669338 271.154775 
L 239.832563 270.926558 
L 240.159013 271.159559 
L 240.648688 270.694047 
L 241.138363 270.369206 
L 241.464813 270.535565 
L 241.628038 270.528328 
L 241.954488 270.238003 
L 242.117713 270.312018 
L 242.280938 269.679144 
L 243.260288 269.84042 
L 243.586738 269.570828 
L 243.749963 269.381564 
L 244.076413 269.758261 
L 244.566088 269.455567 
L 244.729313 269.505431 
L 244.892538 269.313756 
L 245.218988 269.594985 
L 246.035113 268.979931 
L 246.198338 269.206324 
L 246.524788 268.956074 
L 246.688013 269.335807 
L 247.014463 269.309075 
L 247.177688 268.874079 
L 247.340913 268.772344 
L 247.504138 268.869123 
L 248.157038 268.190505 
L 248.320263 267.336377 
L 248.809938 266.893558 
L 248.973163 266.679765 
L 249.136388 266.932729 
L 249.299613 266.968474 
L 249.626063 266.728197 
L 249.952513 266.249747 
L 250.115738 265.970143 
L 250.442188 266.822093 
L 250.768638 266.757028 
L 251.095088 267.0003 
L 251.258313 267.217948 
L 251.421538 267.059319 
L 251.747988 267.414306 
L 252.074439 267.506938 
L 252.400889 267.348064 
L 252.727339 267.25821 
L 252.890564 267.01834 
L 253.217014 267.065897 
L 253.380239 267.24397 
L 253.543464 267.117487 
L 253.706689 267.263217 
L 253.869914 267.577019 
L 254.196364 267.638222 
L 254.522814 267.245194 
L 254.686039 267.269941 
L 254.849264 267.099465 
L 255.175714 267.075485 
L 255.338939 267.362324 
L 255.665389 267.040742 
L 255.828614 267.351553 
L 255.991839 267.122255 
L 256.318289 267.13653 
L 256.644739 266.730582 
L 257.460864 266.788046 
L 257.624089 267.049157 
L 257.950539 267.121214 
L 258.113764 267.234114 
L 258.276989 267.075012 
L 258.440214 267.179498 
L 258.603439 267.113265 
L 258.766664 267.630514 
L 259.093114 267.750769 
L 259.419564 267.374463 
L 259.746014 267.533887 
L 259.909239 267.572382 
L 260.072464 267.734739 
L 260.235689 267.65775 
L 260.398914 267.292526 
L 260.725364 267.351067 
L 261.051814 267.274078 
L 261.215039 267.03881 
L 261.704714 267.402003 
L 261.867939 266.505166 
L 262.031164 266.764173 
L 262.357614 267.463157 
L 262.520839 267.480353 
L 262.684064 267.142151 
L 263.010514 267.488637 
L 263.173739 267.139487 
L 263.500189 267.202719 
L 263.826639 267.909386 
L 263.989864 267.795804 
L 264.479539 268.306416 
L 264.642764 268.256206 
L 264.805989 268.78092 
L 264.969214 268.90364 
L 265.132439 268.849849 
L 265.458889 269.232242 
L 265.622114 269.236343 
L 265.948564 269.691547 
L 266.111789 269.142549 
L 266.601464 269.279839 
L 266.764689 269.049834 
L 267.091139 269.236636 
L 267.417589 268.897044 
L 267.580814 268.533979 
L 268.233715 268.398272 
L 268.39694 268.434017 
L 268.560165 268.167029 
L 269.37629 268.136479 
L 269.539515 268.338712 
L 269.865965 268.231691 
L 270.68209 267.16988 
L 271.00854 267.341337 
L 271.498215 267.317738 
L 271.66144 267.395653 
L 271.824665 267.247174 
L 271.98789 267.299416 
L 272.151115 267.544508 
L 272.31434 267.344099 
L 272.477565 266.658085 
L 272.804015 266.561069 
L 272.96724 266.880204 
L 273.29369 266.855391 
L 273.94659 266.959483 
L 274.436265 266.863833 
L 274.59949 266.521936 
L 274.762715 266.718399 
L 275.57884 266.115394 
L 275.742065 266.418612 
L 275.90529 266.450343 
L 276.068515 266.634878 
L 277.047865 266.587013 
L 277.21109 266.441029 
L 277.53754 266.499355 
L 277.700765 266.866232 
L 278.027215 266.496074 
L 278.19044 266.290674 
L 278.353665 267.257695 
L 278.84334 266.862942 
L 279.16979 266.983335 
L 279.49624 266.816094 
L 279.659465 267.009859 
L 279.985915 266.960001 
L 280.312365 266.705354 
L 280.47559 266.844757 
L 280.638815 266.787134 
L 281.12849 266.303383 
L 281.291715 266.480326 
L 281.45494 265.780077 
L 282.271065 264.953753 
L 282.43429 265.000511 
L 282.597515 265.995674 
L 282.76074 266.141927 
L 283.250415 266.186418 
L 283.41364 265.959351 
L 283.576865 266.058508 
L 283.74009 265.230938 
L 283.903316 265.263932 
L 284.066541 265.531738 
L 284.556216 265.261875 
L 284.719441 265.28381 
L 284.882666 265.126877 
L 285.045891 265.227106 
L 285.209116 264.584474 
L 285.698791 264.083306 
L 285.862016 264.11654 
L 286.025241 263.110226 
L 286.351691 263.486217 
L 286.514916 263.52509 
L 287.004591 264.105875 
L 287.494266 263.813893 
L 287.657491 263.850883 
L 287.820716 264.274323 
L 287.983941 264.324361 
L 288.147166 263.864254 
L 288.310391 263.976429 
L 288.636841 263.901352 
L 288.800066 263.989027 
L 288.963291 264.599131 
L 289.289741 264.82799 
L 289.452966 264.644413 
L 289.616191 264.944353 
L 289.779416 264.859019 
L 289.942641 264.943746 
L 290.105866 264.886134 
L 290.269091 265.135568 
L 290.432316 264.955466 
L 290.921991 265.070413 
L 291.085216 265.293142 
L 291.411666 265.257239 
L 291.574891 265.41121 
L 291.738116 265.109487 
L 293.370366 264.592285 
L 293.533591 264.702243 
L 293.860041 264.52194 
L 294.186491 264.053297 
L 294.512941 264.20587 
L 294.676166 264.244233 
L 294.839391 264.678672 
L 295.655516 264.244404 
L 295.981966 264.180654 
L 296.471641 264.054549 
L 296.634866 264.174264 
L 296.798091 264.048275 
L 296.961316 264.327662 
L 297.450991 264.069227 
L 297.614216 264.131737 
L 297.777441 264.029942 
L 298.103891 265.283474 
L 298.593566 265.339219 
L 298.920016 264.87727 
L 299.246466 264.606283 
L 299.899367 264.888816 
L 300.062592 264.644101 
L 300.225817 265.552013 
L 300.389042 265.557409 
L 300.552267 265.304629 
L 300.878717 265.793579 
L 301.041942 265.72657 
L 301.531617 265.951456 
L 301.858067 266.934185 
L 302.021292 266.882762 
L 302.184517 267.060163 
L 302.347742 267.022083 
L 302.510967 267.764434 
L 302.674192 267.614927 
L 303.000642 267.735892 
L 303.327092 267.443971 
L 303.979992 268.047599 
L 304.143217 268.01883 
L 304.469667 267.366382 
L 304.632892 267.769834 
L 304.796117 267.619413 
L 304.959342 267.686478 
L 305.285792 267.492165 
L 305.449017 267.503163 
L 306.591592 266.327479 
L 306.754817 266.030065 
L 306.918042 266.092693 
L 307.407717 265.847879 
L 307.734167 266.194263 
L 307.897392 265.50005 
L 308.060617 265.303633 
L 308.223842 265.542338 
L 308.387067 265.413615 
L 308.713517 265.512576 
L 309.203192 265.121539 
L 309.692867 265.137497 
L 309.856092 265.00367 
L 310.019317 265.027853 
L 310.182542 265.173601 
L 310.345767 265.036283 
L 310.508992 265.107006 
L 310.672217 264.804382 
L 310.835442 264.848437 
L 311.161892 264.662857 
L 311.325117 264.087278 
L 311.651567 264.008659 
L 311.978017 264.00437 
L 312.304467 263.828342 
L 312.467692 264.246307 
L 312.957367 264.170551 
L 313.120592 264.16255 
L 313.283817 264.43931 
L 313.447042 264.179261 
L 313.773492 264.341784 
L 313.936717 264.90789 
L 314.589617 263.981756 
L 314.752842 264.177917 
L 315.079292 264.098431 
L 315.242517 264.382646 
L 315.405742 264.398383 
L 315.568968 264.291607 
L 315.732193 264.374465 
L 316.058643 264.07872 
L 316.221868 263.811392 
L 316.548318 264.216178 
L 316.874768 264.247881 
L 317.037993 264.36868 
L 317.201218 264.089741 
L 318.017343 264.011994 
L 318.180568 264.140759 
L 318.343793 263.824618 
L 318.507018 263.916029 
L 318.833468 264.39073 
L 318.996693 264.186783 
L 319.159918 264.242591 
L 319.323143 264.017123 
L 319.649593 264.089708 
L 320.139268 263.474799 
L 320.465718 263.763164 
L 320.792168 263.664005 
L 321.118618 263.670778 
L 321.281843 263.555045 
L 321.445068 263.867427 
L 321.934743 263.914539 
L 322.424418 264.149733 
L 322.587643 264.15791 
L 322.914093 264.909525 
L 324.219893 264.75999 
L 324.383118 265.390577 
L 324.709568 265.343464 
L 324.872793 265.491059 
L 325.362468 265.299515 
L 325.525693 265.421436 
L 326.668268 264.974694 
L 326.831493 265.192311 
L 326.994718 265.205742 
L 327.157943 265.419083 
L 327.321168 265.311111 
L 327.647618 265.487547 
L 327.810843 265.777167 
L 327.974068 265.710063 
L 328.137293 265.855387 
L 328.300518 266.284329 
L 328.790193 266.351404 
L 328.953418 266.060265 
L 329.116643 266.019409 
L 329.279868 266.343871 
L 330.095993 265.192797 
L 330.259218 265.227634 
L 330.422443 264.677975 
L 330.585668 264.724952 
L 330.748893 265.17435 
L 330.912118 265.2928 
L 331.238568 264.966462 
L 331.401794 265.12148 
L 331.565019 264.907554 
L 331.891469 265.065114 
L 332.217919 265.121149 
L 332.381144 265.118399 
L 332.707594 265.475383 
L 332.870819 265.035929 
L 333.034044 265.043644 
L 333.197269 265.308173 
L 333.360494 265.047444 
L 333.523719 265.283725 
L 333.686944 265.127875 
L 334.176619 265.135965 
L 334.503069 264.750453 
L 334.992744 264.579468 
L 335.155969 264.130562 
L 335.319194 264.100442 
L 335.482419 264.304389 
L 336.135319 263.804785 
L 336.298544 263.828837 
L 336.624994 264.059869 
L 336.788219 264.141906 
L 337.114669 263.940625 
L 337.441119 264.020912 
L 337.604344 263.963461 
L 337.767569 264.367654 
L 337.930794 264.22706 
L 338.094019 264.266683 
L 338.420469 264.156098 
L 338.583694 264.211757 
L 338.746919 263.951995 
L 338.910144 264.094975 
L 339.073369 263.969637 
L 339.236594 263.998898 
L 339.399819 263.851123 
L 340.379169 264.76903 
L 340.542394 264.818895 
L 340.705619 264.54729 
L 340.868844 264.619029 
L 341.195294 265.159559 
L 341.358519 265.37345 
L 341.521744 265.277927 
L 341.848194 265.577154 
L 342.827544 265.652494 
L 343.643669 265.49976 
L 343.806894 265.587222 
L 343.970119 265.469249 
L 344.133344 265.504127 
L 344.296569 265.262512 
L 344.459794 265.781827 
L 344.623019 265.70492 
L 344.786244 265.369448 
L 344.949469 265.320699 
L 345.439144 265.42028 
L 345.765594 264.62797 
L 346.255269 264.770929 
L 346.418494 265.36154 
L 346.744944 265.224045 
L 346.908169 265.212325 
L 347.071394 265.494772 
L 347.234619 265.33419 
L 347.56107 265.646273 
L 347.724295 266.03844 
L 347.88752 265.820601 
L 348.050745 266.028999 
L 348.21397 266.017698 
L 348.54042 266.275307 
L 348.703645 266.08707 
L 348.86687 266.158894 
L 349.19332 265.970619 
L 349.51977 266.45051 
L 349.682995 266.343047 
L 349.84622 266.598273 
L 350.009445 266.224691 
L 350.17267 266.294725 
L 350.49912 266.0082 
L 350.82557 266.107109 
L 350.988795 266.313538 
L 351.315245 266.385056 
L 351.47847 266.023822 
L 351.641695 266.19701 
L 351.80492 265.970915 
L 351.968145 266.063045 
L 352.13137 266.025332 
L 352.294595 266.312216 
L 352.45782 266.198482 
L 353.11072 266.833227 
L 353.273945 266.565943 
L 353.43717 266.542243 
L 353.926845 266.9124 
L 354.09007 266.990848 
L 354.579745 266.298859 
L 354.74297 266.589822 
L 355.06942 266.208563 
L 355.232645 266.27077 
L 355.39587 266.085728 
L 355.559095 266.249845 
L 355.72232 266.054317 
L 355.885545 266.069405 
L 356.04877 265.869314 
L 356.211995 265.450026 
L 356.37522 265.470938 
L 356.70167 265.086387 
L 356.864895 264.760246 
L 357.02812 264.788555 
L 357.35457 264.604947 
L 357.68102 264.181051 
L 357.844245 264.027093 
L 358.00747 264.182599 
L 358.170695 264.03972 
L 358.497145 264.008702 
L 358.823595 264.067266 
L 359.150045 264.438496 
L 359.31327 264.669864 
L 359.476495 264.604637 
L 359.96617 264.743246 
L 360.129395 264.6073 
L 360.455845 264.595658 
L 360.61907 264.563907 
L 360.782295 264.69455 
L 361.108745 264.056692 
L 361.27197 263.799716 
L 361.435195 263.996452 
L 361.761645 263.812074 
L 361.92487 263.599965 
L 362.088095 264.18745 
L 362.25132 264.312706 
L 362.57777 263.945103 
L 362.90422 264.599132 
L 363.393896 265.088651 
L 363.720346 264.325637 
L 364.046796 264.573698 
L 364.210021 264.355927 
L 364.536471 264.960412 
L 364.862921 264.253952 
L 365.352596 264.177757 
L 365.679046 264.492432 
L 366.005496 264.00061 
L 366.331946 264.003317 
L 366.495171 264.150196 
L 366.984846 264.207797 
L 367.148071 264.212331 
L 367.474521 263.968317 
L 367.800971 262.869345 
L 367.964196 263.275727 
L 368.127421 263.020083 
L 368.290646 263.165316 
L 368.453871 262.996197 
L 368.617096 263.058216 
L 368.943546 263.548511 
L 369.106771 263.308099 
L 369.433221 263.271457 
L 369.596446 263.099446 
L 369.759671 263.172015 
L 370.086121 262.931441 
L 370.249346 262.817446 
L 370.412571 263.144536 
L 370.739021 263.070113 
L 370.902246 263.028862 
L 371.228696 263.188371 
L 371.391921 263.475503 
L 371.718371 263.426814 
L 371.881596 263.467082 
L 372.208046 263.072068 
L 372.697721 263.508925 
L 372.860946 263.473376 
L 373.350621 263.767754 
L 373.513846 262.741714 
L 374.003521 263.138924 
L 374.656421 263.00844 
L 375.146096 263.371007 
L 375.309321 262.584983 
L 375.798996 262.376559 
L 375.962221 262.73384 
L 376.288671 262.576404 
L 376.451896 262.533774 
L 376.615121 261.94435 
L 376.941571 262.252223 
L 377.431246 262.23934 
L 377.594471 262.118674 
L 377.757696 262.243198 
L 378.084146 262.02305 
L 378.410596 262.043286 
L 378.573821 261.818171 
L 378.737046 261.925449 
L 378.900271 262.25377 
L 379.226722 261.454666 
L 379.553172 260.816237 
L 379.716397 260.833436 
L 379.879622 260.693678 
L 380.206072 261.708614 
L 380.369297 261.568379 
L 380.695747 261.036586 
L 381.022197 260.665815 
L 381.348647 260.895783 
L 381.511872 260.853309 
L 381.675097 260.932202 
L 382.164772 260.81068 
L 382.327997 260.853422 
L 382.491222 261.352523 
L 382.817672 261.059431 
L 382.980897 261.126842 
L 383.144122 261.331077 
L 383.307347 261.311844 
L 383.960247 261.793272 
L 384.286697 262.842134 
L 384.776372 262.746458 
L 384.939597 262.118394 
L 385.102822 262.390336 
L 385.429272 261.983801 
L 385.755722 262.019791 
L 385.918947 261.732365 
L 386.245397 262.004547 
L 386.571847 262.55673 
L 386.735072 262.629481 
L 386.898297 262.199412 
L 387.061522 262.251848 
L 387.224747 262.18378 
L 387.387972 262.432121 
L 387.551197 262.950691 
L 387.877647 262.538253 
L 388.040872 262.553481 
L 388.204097 262.414667 
L 388.530547 262.536161 
L 388.693772 262.485809 
L 388.856997 262.238178 
L 389.020222 262.266288 
L 389.183447 262.12436 
L 389.346672 262.215832 
L 389.836347 261.92695 
L 389.999572 263.141405 
L 390.815697 263.075422 
L 390.978922 262.894599 
L 391.142147 262.974396 
L 391.305372 262.235119 
L 391.631822 262.255055 
L 391.795047 262.904695 
L 391.958272 262.767999 
L 392.121497 262.882932 
L 392.284722 262.783372 
L 392.611172 262.837843 
L 392.774397 262.532453 
L 392.937622 262.697741 
L 393.100847 263.171603 
L 393.264072 263.106975 
L 393.427297 263.260503 
L 393.753747 263.311098 
L 394.080197 263.934559 
L 394.243422 264.347491 
L 394.406647 264.411539 
L 394.569872 264.623718 
L 394.896323 264.748843 
L 395.059548 265.052133 
L 395.385998 264.949934 
L 395.549223 265.487174 
L 395.712448 265.263276 
L 395.875673 265.343587 
L 396.038898 265.274848 
L 396.528573 265.455821 
L 396.855023 265.038091 
L 397.018248 265.257709 
L 397.181473 265.246574 
L 397.344698 265.358554 
L 397.507923 265.083322 
L 397.671148 265.164516 
L 397.834373 265.033282 
L 398.487273 265.694801 
L 398.487273 265.694801 
" clip-path="url(#pe818f5a377)" style="fill: none; stroke: #ff7f0e; stroke-width: 1.5; stroke-linecap: square"/>
   </g>
   <g id="patch_3">
    <path d="M 57.6 307.584 
L 57.6 41.472 
" style="fill: none; stroke: #000000; stroke-width: 0.8; stroke-linejoin: miter; stroke-linecap: square"/>
   </g>
   <g id="patch_4">
    <path d="M 414.72 307.584 
L 414.72 41.472 
" style="fill: none; stroke: #000000; stroke-width: 0.8; stroke-linejoin: miter; stroke-linecap: square"/>
   </g>
   <g id="patch_5">
    <path d="M 57.6 307.584 
L 414.72 307.584 
" style="fill: none; stroke: #000000; stroke-width: 0.8; stroke-linejoin: miter; stroke-linecap: square"/>
   </g>
   <g id="patch_6">
    <path d="M 57.6 41.472 
L 414.72 41.472 
" style="fill: none; stroke: #000000; stroke-width: 0.8; stroke-linejoin: miter; stroke-linecap: square"/>
   </g>
   <g id="text_17">
    <!-- Rolling average training progress of actions/price_rebuy -->
    <g transform="translate(68.220937 35.472)scale(0.12 -0.12)">
     <defs>
      <path id="DejaVuSans-52" d="M 2841 2188 
Q 3044 2119 3236 1894 
Q 3428 1669 3622 1275 
L 4263 0 
L 3584 0 
L 2988 1197 
Q 2756 1666 2539 1819 
Q 2322 1972 1947 1972 
L 1259 1972 
L 1259 0 
L 628 0 
L 628 4666 
L 2053 4666 
Q 2853 4666 3247 4331 
Q 3641 3997 3641 3322 
Q 3641 2881 3436 2590 
Q 3231 2300 2841 2188 
z
M 1259 4147 
L 1259 2491 
L 2053 2491 
Q 2509 2491 2742 2702 
Q 2975 2913 2975 3322 
Q 2975 3731 2742 3939 
Q 2509 4147 2053 4147 
L 1259 4147 
z
" transform="scale(0.015625)"/>
      <path id="DejaVuSans-6c" d="M 603 4863 
L 1178 4863 
L 1178 0 
L 603 0 
L 603 4863 
z
" transform="scale(0.015625)"/>
      <path id="DejaVuSans-67" d="M 2906 1791 
Q 2906 2416 2648 2759 
Q 2391 3103 1925 3103 
Q 1463 3103 1205 2759 
Q 947 2416 947 1791 
Q 947 1169 1205 825 
Q 1463 481 1925 481 
Q 2391 481 2648 825 
Q 2906 1169 2906 1791 
z
M 3481 434 
Q 3481 -459 3084 -895 
Q 2688 -1331 1869 -1331 
Q 1566 -1331 1297 -1286 
Q 1028 -1241 775 -1147 
L 775 -588 
Q 1028 -725 1275 -790 
Q 1522 -856 1778 -856 
Q 2344 -856 2625 -561 
Q 2906 -266 2906 331 
L 2906 616 
Q 2728 306 2450 153 
Q 2172 0 1784 0 
Q 1141 0 747 490 
Q 353 981 353 1791 
Q 353 2603 747 3093 
Q 1141 3584 1784 3584 
Q 2172 3584 2450 3431 
Q 2728 3278 2906 2969 
L 2906 3500 
L 3481 3500 
L 3481 434 
z
" transform="scale(0.015625)"/>
      <path id="DejaVuSans-20" transform="scale(0.015625)"/>
      <path id="DejaVuSans-76" d="M 191 3500 
L 800 3500 
L 1894 563 
L 2988 3500 
L 3597 3500 
L 2284 0 
L 1503 0 
L 191 3500 
z
" transform="scale(0.015625)"/>
      <path id="DejaVuSans-66" d="M 2375 4863 
L 2375 4384 
L 1825 4384 
Q 1516 4384 1395 4259 
Q 1275 4134 1275 3809 
L 1275 3500 
L 2222 3500 
L 2222 3053 
L 1275 3053 
L 1275 0 
L 697 0 
L 697 3053 
L 147 3053 
L 147 3500 
L 697 3500 
L 697 3744 
Q 697 4328 969 4595 
Q 1241 4863 1831 4863 
L 2375 4863 
z
" transform="scale(0.015625)"/>
     </defs>
     <use xlink:href="#DejaVuSans-52"/>
     <use xlink:href="#DejaVuSans-6f" x="64.982422"/>
     <use xlink:href="#DejaVuSans-6c" x="126.164062"/>
     <use xlink:href="#DejaVuSans-6c" x="153.947266"/>
     <use xlink:href="#DejaVuSans-69" x="181.730469"/>
     <use xlink:href="#DejaVuSans-6e" x="209.513672"/>
     <use xlink:href="#DejaVuSans-67" x="272.892578"/>
     <use xlink:href="#DejaVuSans-20" x="336.369141"/>
     <use xlink:href="#DejaVuSans-61" x="368.15625"/>
     <use xlink:href="#DejaVuSans-76" x="429.435547"/>
     <use xlink:href="#DejaVuSans-65" x="488.615234"/>
     <use xlink:href="#DejaVuSans-72" x="550.138672"/>
     <use xlink:href="#DejaVuSans-61" x="591.251953"/>
     <use xlink:href="#DejaVuSans-67" x="652.53125"/>
     <use xlink:href="#DejaVuSans-65" x="716.007812"/>
     <use xlink:href="#DejaVuSans-20" x="777.53125"/>
     <use xlink:href="#DejaVuSans-74" x="809.318359"/>
     <use xlink:href="#DejaVuSans-72" x="848.527344"/>
     <use xlink:href="#DejaVuSans-61" x="889.640625"/>
     <use xlink:href="#DejaVuSans-69" x="950.919922"/>
     <use xlink:href="#DejaVuSans-6e" x="978.703125"/>
     <use xlink:href="#DejaVuSans-69" x="1042.082031"/>
     <use xlink:href="#DejaVuSans-6e" x="1069.865234"/>
     <use xlink:href="#DejaVuSans-67" x="1133.244141"/>
     <use xlink:href="#DejaVuSans-20" x="1196.720703"/>
     <use xlink:href="#DejaVuSans-70" x="1228.507812"/>
     <use xlink:href="#DejaVuSans-72" x="1291.984375"/>
     <use xlink:href="#DejaVuSans-6f" x="1330.847656"/>
     <use xlink:href="#DejaVuSans-67" x="1392.029297"/>
     <use xlink:href="#DejaVuSans-72" x="1455.505859"/>
     <use xlink:href="#DejaVuSans-65" x="1494.369141"/>
     <use xlink:href="#DejaVuSans-73" x="1555.892578"/>
     <use xlink:href="#DejaVuSans-73" x="1607.992188"/>
     <use xlink:href="#DejaVuSans-20" x="1660.091797"/>
     <use xlink:href="#DejaVuSans-6f" x="1691.878906"/>
     <use xlink:href="#DejaVuSans-66" x="1753.060547"/>
     <use xlink:href="#DejaVuSans-20" x="1788.265625"/>
     <use xlink:href="#DejaVuSans-61" x="1820.052734"/>
     <use xlink:href="#DejaVuSans-63" x="1881.332031"/>
     <use xlink:href="#DejaVuSans-74" x="1936.3125"/>
     <use xlink:href="#DejaVuSans-69" x="1975.521484"/>
     <use xlink:href="#DejaVuSans-6f" x="2003.304688"/>
     <use xlink:href="#DejaVuSans-6e" x="2064.486328"/>
     <use xlink:href="#DejaVuSans-73" x="2127.865234"/>
     <use xlink:href="#DejaVuSans-2f" x="2179.964844"/>
     <use xlink:href="#DejaVuSans-70" x="2213.65625"/>
     <use xlink:href="#DejaVuSans-72" x="2277.132812"/>
     <use xlink:href="#DejaVuSans-69" x="2318.246094"/>
     <use xlink:href="#DejaVuSans-63" x="2346.029297"/>
     <use xlink:href="#DejaVuSans-65" x="2401.009766"/>
     <use xlink:href="#DejaVuSans-5f" x="2462.533203"/>
     <use xlink:href="#DejaVuSans-72" x="2512.533203"/>
     <use xlink:href="#DejaVuSans-65" x="2551.396484"/>
     <use xlink:href="#DejaVuSans-62" x="2612.919922"/>
     <use xlink:href="#DejaVuSans-75" x="2676.396484"/>
     <use xlink:href="#DejaVuSans-79" x="2739.775391"/>
    </g>
   </g>
   <g id="legend_1">
    <g id="patch_7">
     <path d="M 188.2825 78.82825 
L 407.72 78.82825 
Q 409.72 78.82825 409.72 76.82825 
L 409.72 48.472 
Q 409.72 46.472 407.72 46.472 
L 188.2825 46.472 
Q 186.2825 46.472 186.2825 48.472 
L 186.2825 76.82825 
Q 186.2825 78.82825 188.2825 78.82825 
z
" style="fill: #ffffff; opacity: 0.8; stroke: #cccccc; stroke-linejoin: miter"/>
    </g>
    <g id="line2d_31">
     <path d="M 190.2825 54.570437 
L 200.2825 54.570437 
L 210.2825 54.570437 
" style="fill: none; stroke: #1f77b4; stroke-width: 1.5; stroke-linecap: square"/>
    </g>
    <g id="text_18">
     <!-- StableBaselinesSAC -->
     <g transform="translate(218.2825 58.070437)scale(0.1 -0.1)">
      <defs>
       <path id="DejaVuSans-53" d="M 3425 4513 
L 3425 3897 
Q 3066 4069 2747 4153 
Q 2428 4238 2131 4238 
Q 1616 4238 1336 4038 
Q 1056 3838 1056 3469 
Q 1056 3159 1242 3001 
Q 1428 2844 1947 2747 
L 2328 2669 
Q 3034 2534 3370 2195 
Q 3706 1856 3706 1288 
Q 3706 609 3251 259 
Q 2797 -91 1919 -91 
Q 1588 -91 1214 -16 
Q 841 59 441 206 
L 441 856 
Q 825 641 1194 531 
Q 1563 422 1919 422 
Q 2459 422 2753 634 
Q 3047 847 3047 1241 
Q 3047 1584 2836 1778 
Q 2625 1972 2144 2069 
L 1759 2144 
Q 1053 2284 737 2584 
Q 422 2884 422 3419 
Q 422 4038 858 4394 
Q 1294 4750 2059 4750 
Q 2388 4750 2728 4690 
Q 3069 4631 3425 4513 
z
" transform="scale(0.015625)"/>
       <path id="DejaVuSans-42" d="M 1259 2228 
L 1259 519 
L 2272 519 
Q 2781 519 3026 730 
Q 3272 941 3272 1375 
Q 3272 1813 3026 2020 
Q 2781 2228 2272 2228 
L 1259 2228 
z
M 1259 4147 
L 1259 2741 
L 2194 2741 
Q 2656 2741 2882 2914 
Q 3109 3088 3109 3444 
Q 3109 3797 2882 3972 
Q 2656 4147 2194 4147 
L 1259 4147 
z
M 628 4666 
L 2241 4666 
Q 2963 4666 3353 4366 
Q 3744 4066 3744 3513 
Q 3744 3084 3544 2831 
Q 3344 2578 2956 2516 
Q 3422 2416 3680 2098 
Q 3938 1781 3938 1306 
Q 3938 681 3513 340 
Q 3088 0 2303 0 
L 628 0 
L 628 4666 
z
" transform="scale(0.015625)"/>
       <path id="DejaVuSans-41" d="M 2188 4044 
L 1331 1722 
L 3047 1722 
L 2188 4044 
z
M 1831 4666 
L 2547 4666 
L 4325 0 
L 3669 0 
L 3244 1197 
L 1141 1197 
L 716 0 
L 50 0 
L 1831 4666 
z
" transform="scale(0.015625)"/>
       <path id="DejaVuSans-43" d="M 4122 4306 
L 4122 3641 
Q 3803 3938 3442 4084 
Q 3081 4231 2675 4231 
Q 1875 4231 1450 3742 
Q 1025 3253 1025 2328 
Q 1025 1406 1450 917 
Q 1875 428 2675 428 
Q 3081 428 3442 575 
Q 3803 722 4122 1019 
L 4122 359 
Q 3791 134 3420 21 
Q 3050 -91 2638 -91 
Q 1578 -91 968 557 
Q 359 1206 359 2328 
Q 359 3453 968 4101 
Q 1578 4750 2638 4750 
Q 3056 4750 3426 4639 
Q 3797 4528 4122 4306 
z
" transform="scale(0.015625)"/>
      </defs>
      <use xlink:href="#DejaVuSans-53"/>
      <use xlink:href="#DejaVuSans-74" x="63.476562"/>
      <use xlink:href="#DejaVuSans-61" x="102.685547"/>
      <use xlink:href="#DejaVuSans-62" x="163.964844"/>
      <use xlink:href="#DejaVuSans-6c" x="227.441406"/>
      <use xlink:href="#DejaVuSans-65" x="255.224609"/>
      <use xlink:href="#DejaVuSans-42" x="316.748047"/>
      <use xlink:href="#DejaVuSans-61" x="385.351562"/>
      <use xlink:href="#DejaVuSans-73" x="446.630859"/>
      <use xlink:href="#DejaVuSans-65" x="498.730469"/>
      <use xlink:href="#DejaVuSans-6c" x="560.253906"/>
      <use xlink:href="#DejaVuSans-69" x="588.037109"/>
      <use xlink:href="#DejaVuSans-6e" x="615.820312"/>
      <use xlink:href="#DejaVuSans-65" x="679.199219"/>
      <use xlink:href="#DejaVuSans-73" x="740.722656"/>
      <use xlink:href="#DejaVuSans-53" x="792.822266"/>
      <use xlink:href="#DejaVuSans-41" x="858.173828"/>
      <use xlink:href="#DejaVuSans-43" x="924.832031"/>
     </g>
    </g>
    <g id="line2d_32">
     <path d="M 190.2825 69.248562 
L 200.2825 69.248562 
L 210.2825 69.248562 
" style="fill: none; stroke: #ff7f0e; stroke-width: 1.5; stroke-linecap: square"/>
    </g>
    <g id="text_19">
     <!-- RuleBasedCERebuyAgentCompetitive -->
     <g transform="translate(218.2825 72.748562)scale(0.1 -0.1)">
      <defs>
       <path id="DejaVuSans-6d" d="M 3328 2828 
Q 3544 3216 3844 3400 
Q 4144 3584 4550 3584 
Q 5097 3584 5394 3201 
Q 5691 2819 5691 2113 
L 5691 0 
L 5113 0 
L 5113 2094 
Q 5113 2597 4934 2840 
Q 4756 3084 4391 3084 
Q 3944 3084 3684 2787 
Q 3425 2491 3425 1978 
L 3425 0 
L 2847 0 
L 2847 2094 
Q 2847 2600 2669 2842 
Q 2491 3084 2119 3084 
Q 1678 3084 1418 2786 
Q 1159 2488 1159 1978 
L 1159 0 
L 581 0 
L 581 3500 
L 1159 3500 
L 1159 2956 
Q 1356 3278 1631 3431 
Q 1906 3584 2284 3584 
Q 2666 3584 2933 3390 
Q 3200 3197 3328 2828 
z
" transform="scale(0.015625)"/>
      </defs>
      <use xlink:href="#DejaVuSans-52"/>
      <use xlink:href="#DejaVuSans-75" x="64.982422"/>
      <use xlink:href="#DejaVuSans-6c" x="128.361328"/>
      <use xlink:href="#DejaVuSans-65" x="156.144531"/>
      <use xlink:href="#DejaVuSans-42" x="217.667969"/>
      <use xlink:href="#DejaVuSans-61" x="286.271484"/>
      <use xlink:href="#DejaVuSans-73" x="347.550781"/>
      <use xlink:href="#DejaVuSans-65" x="399.650391"/>
      <use xlink:href="#DejaVuSans-64" x="461.173828"/>
      <use xlink:href="#DejaVuSans-43" x="524.650391"/>
      <use xlink:href="#DejaVuSans-45" x="594.474609"/>
      <use xlink:href="#DejaVuSans-52" x="657.658203"/>
      <use xlink:href="#DejaVuSans-65" x="722.640625"/>
      <use xlink:href="#DejaVuSans-62" x="784.164062"/>
      <use xlink:href="#DejaVuSans-75" x="847.640625"/>
      <use xlink:href="#DejaVuSans-79" x="911.019531"/>
      <use xlink:href="#DejaVuSans-41" x="970.199219"/>
      <use xlink:href="#DejaVuSans-67" x="1038.607422"/>
      <use xlink:href="#DejaVuSans-65" x="1102.083984"/>
      <use xlink:href="#DejaVuSans-6e" x="1163.607422"/>
      <use xlink:href="#DejaVuSans-74" x="1226.986328"/>
      <use xlink:href="#DejaVuSans-43" x="1266.195312"/>
      <use xlink:href="#DejaVuSans-6f" x="1336.019531"/>
      <use xlink:href="#DejaVuSans-6d" x="1397.201172"/>
      <use xlink:href="#DejaVuSans-70" x="1494.613281"/>
      <use xlink:href="#DejaVuSans-65" x="1558.089844"/>
      <use xlink:href="#DejaVuSans-74" x="1619.613281"/>
      <use xlink:href="#DejaVuSans-69" x="1658.822266"/>
      <use xlink:href="#DejaVuSans-74" x="1686.605469"/>
      <use xlink:href="#DejaVuSans-69" x="1725.814453"/>
      <use xlink:href="#DejaVuSans-76" x="1753.597656"/>
      <use xlink:href="#DejaVuSans-65" x="1812.777344"/>
     </g>
    </g>
   </g>
  </g>
 </g>
 <defs>
  <clipPath id="pe818f5a377">
   <rect x="57.6" y="41.472" width="357.12" height="266.112"/>
  </clipPath>
 </defs>
</svg>
