<?xml version="1.0" encoding="utf-8" standalone="no"?>
<!DOCTYPE svg PUBLIC "-//W3C//DTD SVG 1.1//EN"
  "http://www.w3.org/Graphics/SVG/1.1/DTD/svg11.dtd">
<svg xmlns:xlink="http://www.w3.org/1999/xlink" width="460.8pt" height="345.6pt" viewBox="0 0 460.8 345.6" xmlns="http://www.w3.org/2000/svg" version="1.1">
 <metadata>
  <rdf:RDF xmlns:dc="http://purl.org/dc/elements/1.1/" xmlns:cc="http://creativecommons.org/ns#" xmlns:rdf="http://www.w3.org/1999/02/22-rdf-syntax-ns#">
   <cc:Work>
    <dc:type rdf:resource="http://purl.org/dc/dcmitype/StillImage"/>
    <dc:date>2022-06-21T22:14:26.477433</dc:date>
    <dc:format>image/svg+xml</dc:format>
    <dc:creator>
     <cc:Agent>
      <dc:title>Matplotlib v3.5.2, https://matplotlib.org/</dc:title>
     </cc:Agent>
    </dc:creator>
   </cc:Work>
  </rdf:RDF>
 </metadata>
 <defs>
  <style type="text/css">*{stroke-linejoin: round; stroke-linecap: butt}</style>
 </defs>
 <g id="figure_1">
  <g id="patch_1">
   <path d="M 0 345.6 
L 460.8 345.6 
L 460.8 0 
L 0 0 
z
" style="fill: #ffffff"/>
  </g>
  <g id="axes_1">
   <g id="patch_2">
    <path d="M 57.6 307.584 
L 414.72 307.584 
L 414.72 41.472 
L 57.6 41.472 
z
" style="fill: #ffffff"/>
   </g>
   <g id="PolyCollection_1">
    <path d="M 123.277222 282.920727 
L 121.341382 282.920727 
L 121.133198 280.604033 
L 120.89771 278.287339 
L 120.633142 275.970645 
L 120.338017 273.65395 
L 120.010965 271.337256 
L 119.650128 269.020562 
L 119.252228 266.703868 
L 118.811641 264.387174 
L 118.319871 262.070479 
L 117.765753 259.753785 
L 117.13644 257.437091 
L 116.418924 255.120397 
L 115.601567 252.803702 
L 114.675121 250.487008 
L 113.632911 248.170314 
L 112.470333 245.85362 
L 111.184168 243.536926 
L 109.772479 241.220231 
L 108.235659 238.903537 
L 106.578665 236.586843 
L 104.813822 234.270149 
L 102.963014 231.953455 
L 101.058061 229.63676 
L 99.138535 227.320066 
L 97.247226 225.003372 
L 95.424291 222.686678 
L 93.701691 220.369983 
L 92.099324 218.053289 
L 90.623687 215.736595 
L 89.269081 213.419901 
L 88.020693 211.103207 
L 86.858628 208.786512 
L 85.761908 206.469818 
L 84.711653 204.153124 
L 83.692905 201.83643 
L 82.694934 199.519736 
L 81.710346 197.203041 
L 80.733836 194.886347 
L 79.76169 192.569653 
L 78.792971 190.252959 
L 77.832496 187.936264 
L 76.894692 185.61957 
L 76.006546 183.302876 
L 75.207756 180.986182 
L 74.54696 178.669488 
L 74.074386 176.352793 
L 73.832727 174.036099 
L 73.84892 171.719405 
L 74.129404 169.402711 
L 74.660346 167.086017 
L 75.412743 164.769322 
L 76.350795 162.452628 
L 77.441062 160.135934 
L 78.659829 157.81924 
L 79.99687 155.502545 
L 81.454885 153.185851 
L 83.045106 150.869157 
L 84.780445 148.552463 
L 86.66801 146.235769 
L 88.702795 143.919074 
L 90.863971 141.60238 
L 93.114555 139.285686 
L 95.40448 136.968992 
L 97.676339 134.652298 
L 99.872548 132.335603 
L 101.94241 130.018909 
L 103.847692 127.702215 
L 105.565797 125.385521 
L 107.090211 123.068826 
L 108.428585 120.752132 
L 109.599187 118.435438 
L 110.626691 116.118744 
L 111.538144 113.80205 
L 112.359741 111.485355 
L 113.114679 109.168661 
L 113.822066 106.851967 
L 114.496636 104.535273 
L 115.148907 102.218579 
L 115.78545 99.901884 
L 116.409126 97.58519 
L 117.019289 95.268496 
L 117.612137 92.951802 
L 118.181351 90.635107 
L 118.719094 88.318413 
L 119.217209 86.001719 
L 119.668397 83.685025 
L 120.067131 81.368331 
L 120.410175 79.051636 
L 120.696778 76.734942 
L 120.928628 74.418248 
L 121.109732 72.101554 
L 121.246229 69.78486 
L 121.346101 67.468165 
L 121.418673 65.151471 
L 121.473851 62.834777 
L 121.521142 60.518083 
L 121.568617 58.201388 
L 121.622034 55.884694 
L 121.684317 53.568 
L 122.934287 53.568 
L 122.934287 53.568 
L 122.996569 55.884694 
L 123.049987 58.201388 
L 123.097462 60.518083 
L 123.144753 62.834777 
L 123.19993 65.151471 
L 123.272503 67.468165 
L 123.372375 69.78486 
L 123.508872 72.101554 
L 123.689975 74.418248 
L 123.921826 76.734942 
L 124.208428 79.051636 
L 124.551473 81.368331 
L 124.950206 83.685025 
L 125.401395 86.001719 
L 125.89951 88.318413 
L 126.437252 90.635107 
L 127.006467 92.951802 
L 127.599314 95.268496 
L 128.209478 97.58519 
L 128.833154 99.901884 
L 129.469697 102.218579 
L 130.121967 104.535273 
L 130.796538 106.851967 
L 131.503925 109.168661 
L 132.258863 111.485355 
L 133.08046 113.80205 
L 133.991913 116.118744 
L 135.019416 118.435438 
L 136.190019 120.752132 
L 137.528393 123.068826 
L 139.052807 125.385521 
L 140.770911 127.702215 
L 142.676194 130.018909 
L 144.746056 132.335603 
L 146.942265 134.652298 
L 149.214124 136.968992 
L 151.504049 139.285686 
L 153.754633 141.60238 
L 155.915809 143.919074 
L 157.950594 146.235769 
L 159.838159 148.552463 
L 161.573498 150.869157 
L 163.163719 153.185851 
L 164.621734 155.502545 
L 165.958775 157.81924 
L 167.177542 160.135934 
L 168.267808 162.452628 
L 169.205861 164.769322 
L 169.958257 167.086017 
L 170.489199 169.402711 
L 170.769683 171.719405 
L 170.785877 174.036099 
L 170.544217 176.352793 
L 170.071644 178.669488 
L 169.410847 180.986182 
L 168.612057 183.302876 
L 167.723912 185.61957 
L 166.786108 187.936264 
L 165.825632 190.252959 
L 164.856913 192.569653 
L 163.884768 194.886347 
L 162.908257 197.203041 
L 161.92367 199.519736 
L 160.925699 201.83643 
L 159.906951 204.153124 
L 158.856696 206.469818 
L 157.759976 208.786512 
L 156.597911 211.103207 
L 155.349523 213.419901 
L 153.994917 215.736595 
L 152.51928 218.053289 
L 150.916913 220.369983 
L 149.194313 222.686678 
L 147.371378 225.003372 
L 145.480068 227.320066 
L 143.560543 229.63676 
L 141.65559 231.953455 
L 139.804782 234.270149 
L 138.039939 236.586843 
L 136.382945 238.903537 
L 134.846125 241.220231 
L 133.434436 243.536926 
L 132.14827 245.85362 
L 130.985692 248.170314 
L 129.943483 250.487008 
L 129.017036 252.803702 
L 128.19968 255.120397 
L 127.482164 257.437091 
L 126.852851 259.753785 
L 126.298733 262.070479 
L 125.806963 264.387174 
L 125.366376 266.703868 
L 124.968475 269.020562 
L 124.607638 271.337256 
L 124.280587 273.65395 
L 123.985461 275.970645 
L 123.720894 278.287339 
L 123.485405 280.604033 
L 123.277222 282.920727 
z
" clip-path="url(#pf9cac12b8f)" style="fill: #1f77b4; fill-opacity: 0.3"/>
   </g>
   <g id="PolyCollection_2">
    <path d="M 245.221111 281.349818 
L 241.780366 281.349818 
L 241.382235 279.826512 
L 240.940475 278.303207 
L 240.462903 276.779901 
L 239.96061 275.256595 
L 239.446686 273.733289 
L 238.933921 272.209983 
L 238.431838 270.686678 
L 237.943798 269.163372 
L 237.465042 267.640066 
L 236.982437 266.11676 
L 236.476254 264.593455 
L 235.923752 263.070149 
L 235.303742 261.546843 
L 234.600964 260.023537 
L 233.808982 258.500231 
L 232.930653 256.976926 
L 231.975805 255.45362 
L 230.956586 253.930314 
L 229.881707 252.407008 
L 228.751285 250.883702 
L 227.554 249.360397 
L 226.267782 247.837091 
L 224.864258 246.313785 
L 223.3161 244.790479 
L 221.60549 243.267174 
L 219.731474 241.743868 
L 217.71422 240.220562 
L 215.59497 238.697256 
L 213.431626 237.17395 
L 211.291017 235.650645 
L 209.239645 234.127339 
L 207.33492 232.604033 
L 205.618554 231.080727 
L 204.113045 229.557421 
L 202.821405 228.034116 
L 201.729568 226.51081 
L 200.81062 224.987504 
L 200.029943 223.464198 
L 199.350515 221.940893 
L 198.737853 220.417587 
L 198.164211 218.894281 
L 197.611711 217.370975 
L 197.074136 215.847669 
L 196.557159 214.324364 
L 196.07692 212.801058 
L 195.657107 211.277752 
L 195.324938 209.754446 
L 195.106769 208.23114 
L 195.024164 206.707835 
L 195.091316 205.184529 
L 195.314366 203.661223 
L 195.692632 202.137917 
L 196.221165 200.614612 
L 196.893577 199.091306 
L 197.704155 197.568 
L 198.64866 196.044694 
L 199.723991 194.521388 
L 200.927437 192.998083 
L 202.256381 191.474777 
L 203.70889 189.951471 
L 205.284849 188.428165 
L 206.986689 186.90486 
L 208.818567 185.381554 
L 210.783395 183.858248 
L 212.87809 182.334942 
L 215.0884 180.811636 
L 217.385172 179.288331 
L 219.723781 177.765025 
L 222.047522 176.241719 
L 224.294529 174.718413 
L 226.406664 173.195107 
L 228.338176 171.671802 
L 230.062037 170.148496 
L 231.572544 168.62519 
L 232.883833 167.101884 
L 234.024969 165.578579 
L 235.032976 164.055273 
L 235.945422 162.531967 
L 236.794069 161.008661 
L 237.600634 159.485355 
L 238.375187 157.96205 
L 239.117106 156.438744 
L 239.817988 154.915438 
L 240.465592 153.392132 
L 241.047741 151.868826 
L 241.555326 150.345521 
L 241.983893 148.822215 
L 242.333804 147.298909 
L 242.609368 145.775603 
L 242.817509 144.252298 
L 242.966533 142.728992 
L 243.06532 141.205686 
L 243.122994 139.68238 
L 243.148888 138.159074 
L 243.152544 136.635769 
L 243.143498 135.112463 
L 243.13076 133.589157 
L 243.122063 132.065851 
L 243.123079 130.542545 
L 243.878398 130.542545 
L 243.878398 130.542545 
L 243.879414 132.065851 
L 243.870717 133.589157 
L 243.857979 135.112463 
L 243.848933 136.635769 
L 243.852589 138.159074 
L 243.878483 139.68238 
L 243.936157 141.205686 
L 244.034944 142.728992 
L 244.183968 144.252298 
L 244.392109 145.775603 
L 244.667673 147.298909 
L 245.017584 148.822215 
L 245.446151 150.345521 
L 245.953736 151.868826 
L 246.535885 153.392132 
L 247.183489 154.915438 
L 247.884371 156.438744 
L 248.62629 157.96205 
L 249.400843 159.485355 
L 250.207408 161.008661 
L 251.056054 162.531967 
L 251.968501 164.055273 
L 252.976508 165.578579 
L 254.117644 167.101884 
L 255.428933 168.62519 
L 256.939439 170.148496 
L 258.663301 171.671802 
L 260.594813 173.195107 
L 262.706947 174.718413 
L 264.953955 176.241719 
L 267.277696 177.765025 
L 269.616305 179.288331 
L 271.913076 180.811636 
L 274.123386 182.334942 
L 276.218082 183.858248 
L 278.18291 185.381554 
L 280.014787 186.90486 
L 281.716628 188.428165 
L 283.292587 189.951471 
L 284.745095 191.474777 
L 286.07404 192.998083 
L 287.277486 194.521388 
L 288.352817 196.044694 
L 289.297322 197.568 
L 290.1079 199.091306 
L 290.780312 200.614612 
L 291.308844 202.137917 
L 291.687111 203.661223 
L 291.910161 205.184529 
L 291.977313 206.707835 
L 291.894708 208.23114 
L 291.676538 209.754446 
L 291.34437 211.277752 
L 290.924556 212.801058 
L 290.444318 214.324364 
L 289.927341 215.847669 
L 289.389766 217.370975 
L 288.837266 218.894281 
L 288.263623 220.417587 
L 287.650962 221.940893 
L 286.971534 223.464198 
L 286.190857 224.987504 
L 285.271909 226.51081 
L 284.180072 228.034116 
L 282.888432 229.557421 
L 281.382923 231.080727 
L 279.666557 232.604033 
L 277.761832 234.127339 
L 275.71046 235.650645 
L 273.569851 237.17395 
L 271.406507 238.697256 
L 269.287256 240.220562 
L 267.270003 241.743868 
L 265.395987 243.267174 
L 263.685377 244.790479 
L 262.137219 246.313785 
L 260.733695 247.837091 
L 259.447477 249.360397 
L 258.250192 250.883702 
L 257.11977 252.407008 
L 256.044891 253.930314 
L 255.025672 255.45362 
L 254.070824 256.976926 
L 253.192495 258.500231 
L 252.400513 260.023537 
L 251.697735 261.546843 
L 251.077725 263.070149 
L 250.525222 264.593455 
L 250.01904 266.11676 
L 249.536435 267.640066 
L 249.057679 269.163372 
L 248.569639 270.686678 
L 248.067556 272.209983 
L 247.554791 273.733289 
L 247.040867 275.256595 
L 246.538573 276.779901 
L 246.061002 278.303207 
L 245.619242 279.826512 
L 245.221111 281.349818 
z
" clip-path="url(#pf9cac12b8f)" style="fill: #1f77b4; fill-opacity: 0.3"/>
   </g>
   <g id="PolyCollection_3">
    <path d="M 352.897269 295.488 
L 347.124127 295.488 
L 346.620199 294.155107 
L 346.065992 292.822215 
L 345.457921 291.489322 
L 344.790574 290.15643 
L 344.056622 288.823537 
L 343.247118 287.490645 
L 342.35222 286.157752 
L 341.362358 284.82486 
L 340.26969 283.491967 
L 339.069685 282.159074 
L 337.762522 280.826182 
L 336.354038 279.493289 
L 334.855936 278.160397 
L 333.285111 276.827504 
L 331.662101 275.494612 
L 330.008847 274.161719 
L 328.346126 272.828826 
L 326.691121 271.495934 
L 325.05561 270.163041 
L 323.445131 268.830149 
L 321.85934 267.497256 
L 320.293469 266.164364 
L 318.740614 264.831471 
L 317.194388 263.498579 
L 315.651409 262.165686 
L 314.11316 260.832793 
L 312.586918 259.499901 
L 311.085662 258.167008 
L 309.627086 256.834116 
L 308.232001 255.501223 
L 306.92249 254.168331 
L 305.720142 252.835438 
L 304.644621 251.502545 
L 303.712662 250.169653 
L 302.937486 248.83676 
L 302.328526 247.503868 
L 301.891305 246.170975 
L 301.62736 244.838083 
L 301.534123 243.50519 
L 301.604785 242.172298 
L 301.828197 240.839405 
L 302.188948 239.506512 
L 302.667723 238.17362 
L 303.242057 236.840727 
L 303.887495 235.507835 
L 304.579119 234.174942 
L 305.293285 232.84205 
L 306.009366 231.509157 
L 306.711235 230.176264 
L 307.388274 228.843372 
L 308.035731 227.510479 
L 308.654372 226.177587 
L 309.24949 224.844694 
L 309.829445 223.511802 
L 310.403958 222.178909 
L 310.982428 220.846017 
L 311.572471 219.513124 
L 312.178823 218.180231 
L 312.80267 216.847339 
L 313.441372 215.514446 
L 314.088556 214.181554 
L 314.734489 212.848661 
L 315.366726 211.515769 
L 315.970998 210.182876 
L 316.532353 208.849983 
L 317.036535 207.517091 
L 317.471545 206.184198 
L 317.829276 204.851306 
L 318.107055 203.518413 
L 318.308904 202.185521 
L 318.446295 200.852628 
L 318.538255 199.519736 
L 318.610732 198.186843 
L 318.695188 196.85395 
L 318.826559 195.521058 
L 319.040719 194.188165 
L 319.371708 192.855273 
L 319.848995 191.52238 
L 320.495017 190.189488 
L 321.323259 188.856595 
L 322.337028 187.523702 
L 323.529057 186.19081 
L 324.881956 184.857917 
L 326.369491 183.525025 
L 327.958555 182.192132 
L 329.611679 180.85924 
L 331.289823 179.526347 
L 332.955205 178.193455 
L 334.573896 176.860562 
L 336.117905 175.527669 
L 337.566586 174.194777 
L 338.907218 172.861884 
L 340.134749 171.528992 
L 341.250787 170.196099 
L 342.262022 168.863207 
L 343.178321 167.530314 
L 344.010802 166.197421 
L 344.77012 164.864529 
L 345.46521 163.531636 
L 354.556186 163.531636 
L 354.556186 163.531636 
L 355.251277 164.864529 
L 356.010595 166.197421 
L 356.843075 167.530314 
L 357.759374 168.863207 
L 358.770609 170.196099 
L 359.886647 171.528992 
L 361.114178 172.861884 
L 362.45481 174.194777 
L 363.903491 175.527669 
L 365.4475 176.860562 
L 367.066191 178.193455 
L 368.731573 179.526347 
L 370.409717 180.85924 
L 372.062841 182.192132 
L 373.651906 183.525025 
L 375.13944 184.857917 
L 376.492339 186.19081 
L 377.684368 187.523702 
L 378.698137 188.856595 
L 379.526379 190.189488 
L 380.172401 191.52238 
L 380.649688 192.855273 
L 380.980678 194.188165 
L 381.194837 195.521058 
L 381.326208 196.85395 
L 381.410664 198.186843 
L 381.483141 199.519736 
L 381.575102 200.852628 
L 381.712492 202.185521 
L 381.914341 203.518413 
L 382.192121 204.851306 
L 382.549851 206.184198 
L 382.984861 207.517091 
L 383.489043 208.849983 
L 384.050399 210.182876 
L 384.654671 211.515769 
L 385.286908 212.848661 
L 385.932841 214.181554 
L 386.580024 215.514446 
L 387.218727 216.847339 
L 387.842573 218.180231 
L 388.448925 219.513124 
L 389.038968 220.846017 
L 389.617438 222.178909 
L 390.191951 223.511802 
L 390.771906 224.844694 
L 391.367025 226.177587 
L 391.985665 227.510479 
L 392.633122 228.843372 
L 393.310161 230.176264 
L 394.01203 231.509157 
L 394.728111 232.84205 
L 395.442278 234.174942 
L 396.133901 235.507835 
L 396.779339 236.840727 
L 397.353673 238.17362 
L 397.832449 239.506512 
L 398.193199 240.839405 
L 398.416611 242.172298 
L 398.487273 243.50519 
L 398.394036 244.838083 
L 398.130091 246.170975 
L 397.692871 247.503868 
L 397.08391 248.83676 
L 396.308735 250.169653 
L 395.376775 251.502545 
L 394.301254 252.835438 
L 393.098907 254.168331 
L 391.789395 255.501223 
L 390.394311 256.834116 
L 388.935734 258.167008 
L 387.434478 259.499901 
L 385.908236 260.832793 
L 384.369987 262.165686 
L 382.827008 263.498579 
L 381.280782 264.831471 
L 379.727927 266.164364 
L 378.162056 267.497256 
L 376.576265 268.830149 
L 374.965787 270.163041 
L 373.330275 271.495934 
L 371.675271 272.828826 
L 370.012549 274.161719 
L 368.359296 275.494612 
L 366.736286 276.827504 
L 365.165461 278.160397 
L 363.667358 279.493289 
L 362.258874 280.826182 
L 360.951712 282.159074 
L 359.751706 283.491967 
L 358.659038 284.82486 
L 357.669176 286.157752 
L 356.774279 287.490645 
L 355.964774 288.823537 
L 355.230823 290.15643 
L 354.563475 291.489322 
L 353.955404 292.822215 
L 353.401197 294.155107 
L 352.897269 295.488 
z
" clip-path="url(#pf9cac12b8f)" style="fill: #1f77b4; fill-opacity: 0.3"/>
   </g>
   <g id="matplotlib.axis_1">
    <g id="xtick_1">
     <g id="line2d_1">
      <path d="M 70.370115 307.584 
L 70.370115 41.472 
" clip-path="url(#pf9cac12b8f)" style="fill: none; stroke-dasharray: 2.96,1.28; stroke-dashoffset: 0; stroke: #b0b0b0; stroke-width: 0.8"/>
     </g>
     <g id="line2d_2">
      <defs>
       <path id="m657b52916d" d="M 0 0 
L 0 3.5 
" style="stroke: #000000; stroke-width: 0.8"/>
      </defs>
      <g>
       <use xlink:href="#m657b52916d" x="70.370115" y="307.584" style="stroke: #000000; stroke-width: 0.8"/>
      </g>
     </g>
     <g id="text_1">
      <!-- 1000 -->
      <g transform="translate(57.645115 322.182437)scale(0.1 -0.1)">
       <defs>
        <path id="DejaVuSans-31" d="M 794 531 
L 1825 531 
L 1825 4091 
L 703 3866 
L 703 4441 
L 1819 4666 
L 2450 4666 
L 2450 531 
L 3481 531 
L 3481 0 
L 794 0 
L 794 531 
z
" transform="scale(0.015625)"/>
        <path id="DejaVuSans-30" d="M 2034 4250 
Q 1547 4250 1301 3770 
Q 1056 3291 1056 2328 
Q 1056 1369 1301 889 
Q 1547 409 2034 409 
Q 2525 409 2770 889 
Q 3016 1369 3016 2328 
Q 3016 3291 2770 3770 
Q 2525 4250 2034 4250 
z
M 2034 4750 
Q 2819 4750 3233 4129 
Q 3647 3509 3647 2328 
Q 3647 1150 3233 529 
Q 2819 -91 2034 -91 
Q 1250 -91 836 529 
Q 422 1150 422 2328 
Q 422 3509 836 4129 
Q 1250 4750 2034 4750 
z
" transform="scale(0.015625)"/>
       </defs>
       <use xlink:href="#DejaVuSans-31"/>
       <use xlink:href="#DejaVuSans-30" x="63.623047"/>
       <use xlink:href="#DejaVuSans-30" x="127.246094"/>
       <use xlink:href="#DejaVuSans-30" x="190.869141"/>
      </g>
     </g>
    </g>
    <g id="xtick_2">
     <g id="line2d_3">
      <path d="M 139.622364 307.584 
L 139.622364 41.472 
" clip-path="url(#pf9cac12b8f)" style="fill: none; stroke-dasharray: 2.96,1.28; stroke-dashoffset: 0; stroke: #b0b0b0; stroke-width: 0.8"/>
     </g>
     <g id="line2d_4">
      <g>
       <use xlink:href="#m657b52916d" x="139.622364" y="307.584" style="stroke: #000000; stroke-width: 0.8"/>
      </g>
     </g>
     <g id="text_2">
      <!-- 2000 -->
      <g transform="translate(126.897364 322.182437)scale(0.1 -0.1)">
       <defs>
        <path id="DejaVuSans-32" d="M 1228 531 
L 3431 531 
L 3431 0 
L 469 0 
L 469 531 
Q 828 903 1448 1529 
Q 2069 2156 2228 2338 
Q 2531 2678 2651 2914 
Q 2772 3150 2772 3378 
Q 2772 3750 2511 3984 
Q 2250 4219 1831 4219 
Q 1534 4219 1204 4116 
Q 875 4013 500 3803 
L 500 4441 
Q 881 4594 1212 4672 
Q 1544 4750 1819 4750 
Q 2544 4750 2975 4387 
Q 3406 4025 3406 3419 
Q 3406 3131 3298 2873 
Q 3191 2616 2906 2266 
Q 2828 2175 2409 1742 
Q 1991 1309 1228 531 
z
" transform="scale(0.015625)"/>
       </defs>
       <use xlink:href="#DejaVuSans-32"/>
       <use xlink:href="#DejaVuSans-30" x="63.623047"/>
       <use xlink:href="#DejaVuSans-30" x="127.246094"/>
       <use xlink:href="#DejaVuSans-30" x="190.869141"/>
      </g>
     </g>
    </g>
    <g id="xtick_3">
     <g id="line2d_5">
      <path d="M 208.874614 307.584 
L 208.874614 41.472 
" clip-path="url(#pf9cac12b8f)" style="fill: none; stroke-dasharray: 2.96,1.28; stroke-dashoffset: 0; stroke: #b0b0b0; stroke-width: 0.8"/>
     </g>
     <g id="line2d_6">
      <g>
       <use xlink:href="#m657b52916d" x="208.874614" y="307.584" style="stroke: #000000; stroke-width: 0.8"/>
      </g>
     </g>
     <g id="text_3">
      <!-- 3000 -->
      <g transform="translate(196.149614 322.182437)scale(0.1 -0.1)">
       <defs>
        <path id="DejaVuSans-33" d="M 2597 2516 
Q 3050 2419 3304 2112 
Q 3559 1806 3559 1356 
Q 3559 666 3084 287 
Q 2609 -91 1734 -91 
Q 1441 -91 1130 -33 
Q 819 25 488 141 
L 488 750 
Q 750 597 1062 519 
Q 1375 441 1716 441 
Q 2309 441 2620 675 
Q 2931 909 2931 1356 
Q 2931 1769 2642 2001 
Q 2353 2234 1838 2234 
L 1294 2234 
L 1294 2753 
L 1863 2753 
Q 2328 2753 2575 2939 
Q 2822 3125 2822 3475 
Q 2822 3834 2567 4026 
Q 2313 4219 1838 4219 
Q 1578 4219 1281 4162 
Q 984 4106 628 3988 
L 628 4550 
Q 988 4650 1302 4700 
Q 1616 4750 1894 4750 
Q 2613 4750 3031 4423 
Q 3450 4097 3450 3541 
Q 3450 3153 3228 2886 
Q 3006 2619 2597 2516 
z
" transform="scale(0.015625)"/>
       </defs>
       <use xlink:href="#DejaVuSans-33"/>
       <use xlink:href="#DejaVuSans-30" x="63.623047"/>
       <use xlink:href="#DejaVuSans-30" x="127.246094"/>
       <use xlink:href="#DejaVuSans-30" x="190.869141"/>
      </g>
     </g>
    </g>
    <g id="xtick_4">
     <g id="line2d_7">
      <path d="M 278.126863 307.584 
L 278.126863 41.472 
" clip-path="url(#pf9cac12b8f)" style="fill: none; stroke-dasharray: 2.96,1.28; stroke-dashoffset: 0; stroke: #b0b0b0; stroke-width: 0.8"/>
     </g>
     <g id="line2d_8">
      <g>
       <use xlink:href="#m657b52916d" x="278.126863" y="307.584" style="stroke: #000000; stroke-width: 0.8"/>
      </g>
     </g>
     <g id="text_4">
      <!-- 4000 -->
      <g transform="translate(265.401863 322.182437)scale(0.1 -0.1)">
       <defs>
        <path id="DejaVuSans-34" d="M 2419 4116 
L 825 1625 
L 2419 1625 
L 2419 4116 
z
M 2253 4666 
L 3047 4666 
L 3047 1625 
L 3713 1625 
L 3713 1100 
L 3047 1100 
L 3047 0 
L 2419 0 
L 2419 1100 
L 313 1100 
L 313 1709 
L 2253 4666 
z
" transform="scale(0.015625)"/>
       </defs>
       <use xlink:href="#DejaVuSans-34"/>
       <use xlink:href="#DejaVuSans-30" x="63.623047"/>
       <use xlink:href="#DejaVuSans-30" x="127.246094"/>
       <use xlink:href="#DejaVuSans-30" x="190.869141"/>
      </g>
     </g>
    </g>
    <g id="xtick_5">
     <g id="line2d_9">
      <path d="M 347.379113 307.584 
L 347.379113 41.472 
" clip-path="url(#pf9cac12b8f)" style="fill: none; stroke-dasharray: 2.96,1.28; stroke-dashoffset: 0; stroke: #b0b0b0; stroke-width: 0.8"/>
     </g>
     <g id="line2d_10">
      <g>
       <use xlink:href="#m657b52916d" x="347.379113" y="307.584" style="stroke: #000000; stroke-width: 0.8"/>
      </g>
     </g>
     <g id="text_5">
      <!-- 5000 -->
      <g transform="translate(334.654113 322.182437)scale(0.1 -0.1)">
       <defs>
        <path id="DejaVuSans-35" d="M 691 4666 
L 3169 4666 
L 3169 4134 
L 1269 4134 
L 1269 2991 
Q 1406 3038 1543 3061 
Q 1681 3084 1819 3084 
Q 2600 3084 3056 2656 
Q 3513 2228 3513 1497 
Q 3513 744 3044 326 
Q 2575 -91 1722 -91 
Q 1428 -91 1123 -41 
Q 819 9 494 109 
L 494 744 
Q 775 591 1075 516 
Q 1375 441 1709 441 
Q 2250 441 2565 725 
Q 2881 1009 2881 1497 
Q 2881 1984 2565 2268 
Q 2250 2553 1709 2553 
Q 1456 2553 1204 2497 
Q 953 2441 691 2322 
L 691 4666 
z
" transform="scale(0.015625)"/>
       </defs>
       <use xlink:href="#DejaVuSans-35"/>
       <use xlink:href="#DejaVuSans-30" x="63.623047"/>
       <use xlink:href="#DejaVuSans-30" x="127.246094"/>
       <use xlink:href="#DejaVuSans-30" x="190.869141"/>
      </g>
     </g>
    </g>
    <g id="text_6">
     <!-- Learned Episodes -->
     <g transform="translate(192.102187 335.860562)scale(0.1 -0.1)">
      <defs>
       <path id="DejaVuSans-4c" d="M 628 4666 
L 1259 4666 
L 1259 531 
L 3531 531 
L 3531 0 
L 628 0 
L 628 4666 
z
" transform="scale(0.015625)"/>
       <path id="DejaVuSans-65" d="M 3597 1894 
L 3597 1613 
L 953 1613 
Q 991 1019 1311 708 
Q 1631 397 2203 397 
Q 2534 397 2845 478 
Q 3156 559 3463 722 
L 3463 178 
Q 3153 47 2828 -22 
Q 2503 -91 2169 -91 
Q 1331 -91 842 396 
Q 353 884 353 1716 
Q 353 2575 817 3079 
Q 1281 3584 2069 3584 
Q 2775 3584 3186 3129 
Q 3597 2675 3597 1894 
z
M 3022 2063 
Q 3016 2534 2758 2815 
Q 2500 3097 2075 3097 
Q 1594 3097 1305 2825 
Q 1016 2553 972 2059 
L 3022 2063 
z
" transform="scale(0.015625)"/>
       <path id="DejaVuSans-61" d="M 2194 1759 
Q 1497 1759 1228 1600 
Q 959 1441 959 1056 
Q 959 750 1161 570 
Q 1363 391 1709 391 
Q 2188 391 2477 730 
Q 2766 1069 2766 1631 
L 2766 1759 
L 2194 1759 
z
M 3341 1997 
L 3341 0 
L 2766 0 
L 2766 531 
Q 2569 213 2275 61 
Q 1981 -91 1556 -91 
Q 1019 -91 701 211 
Q 384 513 384 1019 
Q 384 1609 779 1909 
Q 1175 2209 1959 2209 
L 2766 2209 
L 2766 2266 
Q 2766 2663 2505 2880 
Q 2244 3097 1772 3097 
Q 1472 3097 1187 3025 
Q 903 2953 641 2809 
L 641 3341 
Q 956 3463 1253 3523 
Q 1550 3584 1831 3584 
Q 2591 3584 2966 3190 
Q 3341 2797 3341 1997 
z
" transform="scale(0.015625)"/>
       <path id="DejaVuSans-72" d="M 2631 2963 
Q 2534 3019 2420 3045 
Q 2306 3072 2169 3072 
Q 1681 3072 1420 2755 
Q 1159 2438 1159 1844 
L 1159 0 
L 581 0 
L 581 3500 
L 1159 3500 
L 1159 2956 
Q 1341 3275 1631 3429 
Q 1922 3584 2338 3584 
Q 2397 3584 2469 3576 
Q 2541 3569 2628 3553 
L 2631 2963 
z
" transform="scale(0.015625)"/>
       <path id="DejaVuSans-6e" d="M 3513 2113 
L 3513 0 
L 2938 0 
L 2938 2094 
Q 2938 2591 2744 2837 
Q 2550 3084 2163 3084 
Q 1697 3084 1428 2787 
Q 1159 2491 1159 1978 
L 1159 0 
L 581 0 
L 581 3500 
L 1159 3500 
L 1159 2956 
Q 1366 3272 1645 3428 
Q 1925 3584 2291 3584 
Q 2894 3584 3203 3211 
Q 3513 2838 3513 2113 
z
" transform="scale(0.015625)"/>
       <path id="DejaVuSans-64" d="M 2906 2969 
L 2906 4863 
L 3481 4863 
L 3481 0 
L 2906 0 
L 2906 525 
Q 2725 213 2448 61 
Q 2172 -91 1784 -91 
Q 1150 -91 751 415 
Q 353 922 353 1747 
Q 353 2572 751 3078 
Q 1150 3584 1784 3584 
Q 2172 3584 2448 3432 
Q 2725 3281 2906 2969 
z
M 947 1747 
Q 947 1113 1208 752 
Q 1469 391 1925 391 
Q 2381 391 2643 752 
Q 2906 1113 2906 1747 
Q 2906 2381 2643 2742 
Q 2381 3103 1925 3103 
Q 1469 3103 1208 2742 
Q 947 2381 947 1747 
z
" transform="scale(0.015625)"/>
       <path id="DejaVuSans-20" transform="scale(0.015625)"/>
       <path id="DejaVuSans-45" d="M 628 4666 
L 3578 4666 
L 3578 4134 
L 1259 4134 
L 1259 2753 
L 3481 2753 
L 3481 2222 
L 1259 2222 
L 1259 531 
L 3634 531 
L 3634 0 
L 628 0 
L 628 4666 
z
" transform="scale(0.015625)"/>
       <path id="DejaVuSans-70" d="M 1159 525 
L 1159 -1331 
L 581 -1331 
L 581 3500 
L 1159 3500 
L 1159 2969 
Q 1341 3281 1617 3432 
Q 1894 3584 2278 3584 
Q 2916 3584 3314 3078 
Q 3713 2572 3713 1747 
Q 3713 922 3314 415 
Q 2916 -91 2278 -91 
Q 1894 -91 1617 61 
Q 1341 213 1159 525 
z
M 3116 1747 
Q 3116 2381 2855 2742 
Q 2594 3103 2138 3103 
Q 1681 3103 1420 2742 
Q 1159 2381 1159 1747 
Q 1159 1113 1420 752 
Q 1681 391 2138 391 
Q 2594 391 2855 752 
Q 3116 1113 3116 1747 
z
" transform="scale(0.015625)"/>
       <path id="DejaVuSans-69" d="M 603 3500 
L 1178 3500 
L 1178 0 
L 603 0 
L 603 3500 
z
M 603 4863 
L 1178 4863 
L 1178 4134 
L 603 4134 
L 603 4863 
z
" transform="scale(0.015625)"/>
       <path id="DejaVuSans-73" d="M 2834 3397 
L 2834 2853 
Q 2591 2978 2328 3040 
Q 2066 3103 1784 3103 
Q 1356 3103 1142 2972 
Q 928 2841 928 2578 
Q 928 2378 1081 2264 
Q 1234 2150 1697 2047 
L 1894 2003 
Q 2506 1872 2764 1633 
Q 3022 1394 3022 966 
Q 3022 478 2636 193 
Q 2250 -91 1575 -91 
Q 1294 -91 989 -36 
Q 684 19 347 128 
L 347 722 
Q 666 556 975 473 
Q 1284 391 1588 391 
Q 1994 391 2212 530 
Q 2431 669 2431 922 
Q 2431 1156 2273 1281 
Q 2116 1406 1581 1522 
L 1381 1569 
Q 847 1681 609 1914 
Q 372 2147 372 2553 
Q 372 3047 722 3315 
Q 1072 3584 1716 3584 
Q 2034 3584 2315 3537 
Q 2597 3491 2834 3397 
z
" transform="scale(0.015625)"/>
       <path id="DejaVuSans-6f" d="M 1959 3097 
Q 1497 3097 1228 2736 
Q 959 2375 959 1747 
Q 959 1119 1226 758 
Q 1494 397 1959 397 
Q 2419 397 2687 759 
Q 2956 1122 2956 1747 
Q 2956 2369 2687 2733 
Q 2419 3097 1959 3097 
z
M 1959 3584 
Q 2709 3584 3137 3096 
Q 3566 2609 3566 1747 
Q 3566 888 3137 398 
Q 2709 -91 1959 -91 
Q 1206 -91 779 398 
Q 353 888 353 1747 
Q 353 2609 779 3096 
Q 1206 3584 1959 3584 
z
" transform="scale(0.015625)"/>
      </defs>
      <use xlink:href="#DejaVuSans-4c"/>
      <use xlink:href="#DejaVuSans-65" x="53.962891"/>
      <use xlink:href="#DejaVuSans-61" x="115.486328"/>
      <use xlink:href="#DejaVuSans-72" x="176.765625"/>
      <use xlink:href="#DejaVuSans-6e" x="216.128906"/>
      <use xlink:href="#DejaVuSans-65" x="279.507812"/>
      <use xlink:href="#DejaVuSans-64" x="341.03125"/>
      <use xlink:href="#DejaVuSans-20" x="404.507812"/>
      <use xlink:href="#DejaVuSans-45" x="436.294922"/>
      <use xlink:href="#DejaVuSans-70" x="499.478516"/>
      <use xlink:href="#DejaVuSans-69" x="562.955078"/>
      <use xlink:href="#DejaVuSans-73" x="590.738281"/>
      <use xlink:href="#DejaVuSans-6f" x="642.837891"/>
      <use xlink:href="#DejaVuSans-64" x="704.019531"/>
      <use xlink:href="#DejaVuSans-65" x="767.496094"/>
      <use xlink:href="#DejaVuSans-73" x="829.019531"/>
     </g>
    </g>
   </g>
   <g id="matplotlib.axis_2">
    <g id="ytick_1">
     <g id="line2d_11">
      <path d="M 57.6 289.204364 
L 414.72 289.204364 
" clip-path="url(#pf9cac12b8f)" style="fill: none; stroke-dasharray: 2.96,1.28; stroke-dashoffset: 0; stroke: #b0b0b0; stroke-width: 0.8"/>
     </g>
     <g id="line2d_12">
      <defs>
       <path id="m39d53e4031" d="M 0 0 
L -3.5 0 
" style="stroke: #000000; stroke-width: 0.8"/>
      </defs>
      <g>
       <use xlink:href="#m39d53e4031" x="57.6" y="289.204364" style="stroke: #000000; stroke-width: 0.8"/>
      </g>
     </g>
     <g id="text_7">
      <!-- 40 -->
      <g transform="translate(37.875 293.003582)scale(0.1 -0.1)">
       <use xlink:href="#DejaVuSans-34"/>
       <use xlink:href="#DejaVuSans-30" x="63.623047"/>
      </g>
     </g>
    </g>
    <g id="ytick_2">
     <g id="line2d_13">
      <path d="M 57.6 257.786182 
L 414.72 257.786182 
" clip-path="url(#pf9cac12b8f)" style="fill: none; stroke-dasharray: 2.96,1.28; stroke-dashoffset: 0; stroke: #b0b0b0; stroke-width: 0.8"/>
     </g>
     <g id="line2d_14">
      <g>
       <use xlink:href="#m39d53e4031" x="57.6" y="257.786182" style="stroke: #000000; stroke-width: 0.8"/>
      </g>
     </g>
     <g id="text_8">
      <!-- 60 -->
      <g transform="translate(37.875 261.585401)scale(0.1 -0.1)">
       <defs>
        <path id="DejaVuSans-36" d="M 2113 2584 
Q 1688 2584 1439 2293 
Q 1191 2003 1191 1497 
Q 1191 994 1439 701 
Q 1688 409 2113 409 
Q 2538 409 2786 701 
Q 3034 994 3034 1497 
Q 3034 2003 2786 2293 
Q 2538 2584 2113 2584 
z
M 3366 4563 
L 3366 3988 
Q 3128 4100 2886 4159 
Q 2644 4219 2406 4219 
Q 1781 4219 1451 3797 
Q 1122 3375 1075 2522 
Q 1259 2794 1537 2939 
Q 1816 3084 2150 3084 
Q 2853 3084 3261 2657 
Q 3669 2231 3669 1497 
Q 3669 778 3244 343 
Q 2819 -91 2113 -91 
Q 1303 -91 875 529 
Q 447 1150 447 2328 
Q 447 3434 972 4092 
Q 1497 4750 2381 4750 
Q 2619 4750 2861 4703 
Q 3103 4656 3366 4563 
z
" transform="scale(0.015625)"/>
       </defs>
       <use xlink:href="#DejaVuSans-36"/>
       <use xlink:href="#DejaVuSans-30" x="63.623047"/>
      </g>
     </g>
    </g>
    <g id="ytick_3">
     <g id="line2d_15">
      <path d="M 57.6 226.368 
L 414.72 226.368 
" clip-path="url(#pf9cac12b8f)" style="fill: none; stroke-dasharray: 2.96,1.28; stroke-dashoffset: 0; stroke: #b0b0b0; stroke-width: 0.8"/>
     </g>
     <g id="line2d_16">
      <g>
       <use xlink:href="#m39d53e4031" x="57.6" y="226.368" style="stroke: #000000; stroke-width: 0.8"/>
      </g>
     </g>
     <g id="text_9">
      <!-- 80 -->
      <g transform="translate(37.875 230.167219)scale(0.1 -0.1)">
       <defs>
        <path id="DejaVuSans-38" d="M 2034 2216 
Q 1584 2216 1326 1975 
Q 1069 1734 1069 1313 
Q 1069 891 1326 650 
Q 1584 409 2034 409 
Q 2484 409 2743 651 
Q 3003 894 3003 1313 
Q 3003 1734 2745 1975 
Q 2488 2216 2034 2216 
z
M 1403 2484 
Q 997 2584 770 2862 
Q 544 3141 544 3541 
Q 544 4100 942 4425 
Q 1341 4750 2034 4750 
Q 2731 4750 3128 4425 
Q 3525 4100 3525 3541 
Q 3525 3141 3298 2862 
Q 3072 2584 2669 2484 
Q 3125 2378 3379 2068 
Q 3634 1759 3634 1313 
Q 3634 634 3220 271 
Q 2806 -91 2034 -91 
Q 1263 -91 848 271 
Q 434 634 434 1313 
Q 434 1759 690 2068 
Q 947 2378 1403 2484 
z
M 1172 3481 
Q 1172 3119 1398 2916 
Q 1625 2713 2034 2713 
Q 2441 2713 2670 2916 
Q 2900 3119 2900 3481 
Q 2900 3844 2670 4047 
Q 2441 4250 2034 4250 
Q 1625 4250 1398 4047 
Q 1172 3844 1172 3481 
z
" transform="scale(0.015625)"/>
       </defs>
       <use xlink:href="#DejaVuSans-38"/>
       <use xlink:href="#DejaVuSans-30" x="63.623047"/>
      </g>
     </g>
    </g>
    <g id="ytick_4">
     <g id="line2d_17">
      <path d="M 57.6 194.949818 
L 414.72 194.949818 
" clip-path="url(#pf9cac12b8f)" style="fill: none; stroke-dasharray: 2.96,1.28; stroke-dashoffset: 0; stroke: #b0b0b0; stroke-width: 0.8"/>
     </g>
     <g id="line2d_18">
      <g>
       <use xlink:href="#m39d53e4031" x="57.6" y="194.949818" style="stroke: #000000; stroke-width: 0.8"/>
      </g>
     </g>
     <g id="text_10">
      <!-- 100 -->
      <g transform="translate(31.5125 198.749037)scale(0.1 -0.1)">
       <use xlink:href="#DejaVuSans-31"/>
       <use xlink:href="#DejaVuSans-30" x="63.623047"/>
       <use xlink:href="#DejaVuSans-30" x="127.246094"/>
      </g>
     </g>
    </g>
    <g id="ytick_5">
     <g id="line2d_19">
      <path d="M 57.6 163.531636 
L 414.72 163.531636 
" clip-path="url(#pf9cac12b8f)" style="fill: none; stroke-dasharray: 2.96,1.28; stroke-dashoffset: 0; stroke: #b0b0b0; stroke-width: 0.8"/>
     </g>
     <g id="line2d_20">
      <g>
       <use xlink:href="#m39d53e4031" x="57.6" y="163.531636" style="stroke: #000000; stroke-width: 0.8"/>
      </g>
     </g>
     <g id="text_11">
      <!-- 120 -->
      <g transform="translate(31.5125 167.330855)scale(0.1 -0.1)">
       <use xlink:href="#DejaVuSans-31"/>
       <use xlink:href="#DejaVuSans-32" x="63.623047"/>
       <use xlink:href="#DejaVuSans-30" x="127.246094"/>
      </g>
     </g>
    </g>
    <g id="ytick_6">
     <g id="line2d_21">
      <path d="M 57.6 132.113455 
L 414.72 132.113455 
" clip-path="url(#pf9cac12b8f)" style="fill: none; stroke-dasharray: 2.96,1.28; stroke-dashoffset: 0; stroke: #b0b0b0; stroke-width: 0.8"/>
     </g>
     <g id="line2d_22">
      <g>
       <use xlink:href="#m39d53e4031" x="57.6" y="132.113455" style="stroke: #000000; stroke-width: 0.8"/>
      </g>
     </g>
     <g id="text_12">
      <!-- 140 -->
      <g transform="translate(31.5125 135.912673)scale(0.1 -0.1)">
       <use xlink:href="#DejaVuSans-31"/>
       <use xlink:href="#DejaVuSans-34" x="63.623047"/>
       <use xlink:href="#DejaVuSans-30" x="127.246094"/>
      </g>
     </g>
    </g>
    <g id="ytick_7">
     <g id="line2d_23">
      <path d="M 57.6 100.695273 
L 414.72 100.695273 
" clip-path="url(#pf9cac12b8f)" style="fill: none; stroke-dasharray: 2.96,1.28; stroke-dashoffset: 0; stroke: #b0b0b0; stroke-width: 0.8"/>
     </g>
     <g id="line2d_24">
      <g>
       <use xlink:href="#m39d53e4031" x="57.6" y="100.695273" style="stroke: #000000; stroke-width: 0.8"/>
      </g>
     </g>
     <g id="text_13">
      <!-- 160 -->
      <g transform="translate(31.5125 104.494491)scale(0.1 -0.1)">
       <use xlink:href="#DejaVuSans-31"/>
       <use xlink:href="#DejaVuSans-36" x="63.623047"/>
       <use xlink:href="#DejaVuSans-30" x="127.246094"/>
      </g>
     </g>
    </g>
    <g id="ytick_8">
     <g id="line2d_25">
      <path d="M 57.6 69.277091 
L 414.72 69.277091 
" clip-path="url(#pf9cac12b8f)" style="fill: none; stroke-dasharray: 2.96,1.28; stroke-dashoffset: 0; stroke: #b0b0b0; stroke-width: 0.8"/>
     </g>
     <g id="line2d_26">
      <g>
       <use xlink:href="#m39d53e4031" x="57.6" y="69.277091" style="stroke: #000000; stroke-width: 0.8"/>
      </g>
     </g>
     <g id="text_14">
      <!-- 180 -->
      <g transform="translate(31.5125 73.07631)scale(0.1 -0.1)">
       <use xlink:href="#DejaVuSans-31"/>
       <use xlink:href="#DejaVuSans-38" x="63.623047"/>
       <use xlink:href="#DejaVuSans-30" x="127.246094"/>
      </g>
     </g>
    </g>
    <g id="text_15">
     <!-- Reward Density -->
     <g transform="translate(25.432812 213.74675)rotate(-90)scale(0.1 -0.1)">
      <defs>
       <path id="DejaVuSans-52" d="M 2841 2188 
Q 3044 2119 3236 1894 
Q 3428 1669 3622 1275 
L 4263 0 
L 3584 0 
L 2988 1197 
Q 2756 1666 2539 1819 
Q 2322 1972 1947 1972 
L 1259 1972 
L 1259 0 
L 628 0 
L 628 4666 
L 2053 4666 
Q 2853 4666 3247 4331 
Q 3641 3997 3641 3322 
Q 3641 2881 3436 2590 
Q 3231 2300 2841 2188 
z
M 1259 4147 
L 1259 2491 
L 2053 2491 
Q 2509 2491 2742 2702 
Q 2975 2913 2975 3322 
Q 2975 3731 2742 3939 
Q 2509 4147 2053 4147 
L 1259 4147 
z
" transform="scale(0.015625)"/>
       <path id="DejaVuSans-77" d="M 269 3500 
L 844 3500 
L 1563 769 
L 2278 3500 
L 2956 3500 
L 3675 769 
L 4391 3500 
L 4966 3500 
L 4050 0 
L 3372 0 
L 2619 2869 
L 1863 0 
L 1184 0 
L 269 3500 
z
" transform="scale(0.015625)"/>
       <path id="DejaVuSans-44" d="M 1259 4147 
L 1259 519 
L 2022 519 
Q 2988 519 3436 956 
Q 3884 1394 3884 2338 
Q 3884 3275 3436 3711 
Q 2988 4147 2022 4147 
L 1259 4147 
z
M 628 4666 
L 1925 4666 
Q 3281 4666 3915 4102 
Q 4550 3538 4550 2338 
Q 4550 1131 3912 565 
Q 3275 0 1925 0 
L 628 0 
L 628 4666 
z
" transform="scale(0.015625)"/>
       <path id="DejaVuSans-74" d="M 1172 4494 
L 1172 3500 
L 2356 3500 
L 2356 3053 
L 1172 3053 
L 1172 1153 
Q 1172 725 1289 603 
Q 1406 481 1766 481 
L 2356 481 
L 2356 0 
L 1766 0 
Q 1100 0 847 248 
Q 594 497 594 1153 
L 594 3053 
L 172 3053 
L 172 3500 
L 594 3500 
L 594 4494 
L 1172 4494 
z
" transform="scale(0.015625)"/>
       <path id="DejaVuSans-79" d="M 2059 -325 
Q 1816 -950 1584 -1140 
Q 1353 -1331 966 -1331 
L 506 -1331 
L 506 -850 
L 844 -850 
Q 1081 -850 1212 -737 
Q 1344 -625 1503 -206 
L 1606 56 
L 191 3500 
L 800 3500 
L 1894 763 
L 2988 3500 
L 3597 3500 
L 2059 -325 
z
" transform="scale(0.015625)"/>
      </defs>
      <use xlink:href="#DejaVuSans-52"/>
      <use xlink:href="#DejaVuSans-65" x="64.982422"/>
      <use xlink:href="#DejaVuSans-77" x="126.505859"/>
      <use xlink:href="#DejaVuSans-61" x="208.292969"/>
      <use xlink:href="#DejaVuSans-72" x="269.572266"/>
      <use xlink:href="#DejaVuSans-64" x="308.935547"/>
      <use xlink:href="#DejaVuSans-20" x="372.412109"/>
      <use xlink:href="#DejaVuSans-44" x="404.199219"/>
      <use xlink:href="#DejaVuSans-65" x="481.201172"/>
      <use xlink:href="#DejaVuSans-6e" x="542.724609"/>
      <use xlink:href="#DejaVuSans-73" x="606.103516"/>
      <use xlink:href="#DejaVuSans-69" x="658.203125"/>
      <use xlink:href="#DejaVuSans-74" x="685.986328"/>
      <use xlink:href="#DejaVuSans-79" x="725.195312"/>
     </g>
    </g>
   </g>
   <g id="LineCollection_1">
    <path d="M 98.071015 177.808058 
L 146.547589 177.808058 
" clip-path="url(#pf9cac12b8f)" style="fill: none; stroke: #1f77b4; stroke-width: 1.5"/>
    <path d="M 219.262451 211.422371 
L 267.739026 211.422371 
" clip-path="url(#pf9cac12b8f)" style="fill: none; stroke: #1f77b4; stroke-width: 1.5"/>
    <path d="M 325.772411 229.214487 
L 374.248985 229.214487 
" clip-path="url(#pf9cac12b8f)" style="fill: none; stroke: #1f77b4; stroke-width: 1.5"/>
   </g>
   <g id="LineCollection_2">
    <path d="M 98.071015 53.568 
L 146.547589 53.568 
" clip-path="url(#pf9cac12b8f)" style="fill: none; stroke: #1f77b4; stroke-width: 1.5"/>
    <path d="M 219.262451 130.542545 
L 267.739026 130.542545 
" clip-path="url(#pf9cac12b8f)" style="fill: none; stroke: #1f77b4; stroke-width: 1.5"/>
    <path d="M 325.772411 163.531636 
L 374.248985 163.531636 
" clip-path="url(#pf9cac12b8f)" style="fill: none; stroke: #1f77b4; stroke-width: 1.5"/>
   </g>
   <g id="LineCollection_3">
    <path d="M 98.071015 282.920727 
L 146.547589 282.920727 
" clip-path="url(#pf9cac12b8f)" style="fill: none; stroke: #1f77b4; stroke-width: 1.5"/>
    <path d="M 219.262451 281.349818 
L 267.739026 281.349818 
" clip-path="url(#pf9cac12b8f)" style="fill: none; stroke: #1f77b4; stroke-width: 1.5"/>
    <path d="M 325.772411 295.488 
L 374.248985 295.488 
" clip-path="url(#pf9cac12b8f)" style="fill: none; stroke: #1f77b4; stroke-width: 1.5"/>
   </g>
   <g id="LineCollection_4">
    <path d="M 122.309302 282.920727 
L 122.309302 53.568 
" clip-path="url(#pf9cac12b8f)" style="fill: none; stroke: #1f77b4; stroke-width: 1.5"/>
    <path d="M 243.500738 281.349818 
L 243.500738 130.542545 
" clip-path="url(#pf9cac12b8f)" style="fill: none; stroke: #1f77b4; stroke-width: 1.5"/>
    <path d="M 350.010698 295.488 
L 350.010698 163.531636 
" clip-path="url(#pf9cac12b8f)" style="fill: none; stroke: #1f77b4; stroke-width: 1.5"/>
   </g>
   <g id="line2d_27">
    <path d="M 122.309302 177.808058 
L 243.500738 211.422371 
L 350.010698 229.214487 
" clip-path="url(#pf9cac12b8f)" style="fill: none; stroke: #4682b4; stroke-width: 1.5; stroke-linecap: square"/>
   </g>
   <g id="line2d_28">
    <path d="M 122.309302 177.808058 
L 243.500738 211.422371 
L 350.010698 229.214487 
" clip-path="url(#pf9cac12b8f)" style="fill: none; stroke: #4682b4; stroke-width: 1.5; stroke-linecap: square"/>
   </g>
   <g id="patch_3">
    <path d="M 57.6 307.584 
L 57.6 41.472 
" style="fill: none; stroke: #000000; stroke-width: 0.8; stroke-linejoin: miter; stroke-linecap: square"/>
   </g>
   <g id="patch_4">
    <path d="M 414.72 307.584 
L 414.72 41.472 
" style="fill: none; stroke: #000000; stroke-width: 0.8; stroke-linejoin: miter; stroke-linecap: square"/>
   </g>
   <g id="patch_5">
    <path d="M 57.6 307.584 
L 414.72 307.584 
" style="fill: none; stroke: #000000; stroke-width: 0.8; stroke-linejoin: miter; stroke-linecap: square"/>
   </g>
   <g id="patch_6">
    <path d="M 57.6 41.472 
L 414.72 41.472 
" style="fill: none; stroke: #000000; stroke-width: 0.8; stroke-linejoin: miter; stroke-linecap: square"/>
   </g>
   <g id="text_16">
    <!-- Violinplot for progress of customer/purchases_refurbished -->
    <g transform="translate(62.41125 35.472)scale(0.12 -0.12)">
     <defs>
      <path id="DejaVuSans-56" d="M 1831 0 
L 50 4666 
L 709 4666 
L 2188 738 
L 3669 4666 
L 4325 4666 
L 2547 0 
L 1831 0 
z
" transform="scale(0.015625)"/>
      <path id="DejaVuSans-6c" d="M 603 4863 
L 1178 4863 
L 1178 0 
L 603 0 
L 603 4863 
z
" transform="scale(0.015625)"/>
      <path id="DejaVuSans-66" d="M 2375 4863 
L 2375 4384 
L 1825 4384 
Q 1516 4384 1395 4259 
Q 1275 4134 1275 3809 
L 1275 3500 
L 2222 3500 
L 2222 3053 
L 1275 3053 
L 1275 0 
L 697 0 
L 697 3053 
L 147 3053 
L 147 3500 
L 697 3500 
L 697 3744 
Q 697 4328 969 4595 
Q 1241 4863 1831 4863 
L 2375 4863 
z
" transform="scale(0.015625)"/>
      <path id="DejaVuSans-67" d="M 2906 1791 
Q 2906 2416 2648 2759 
Q 2391 3103 1925 3103 
Q 1463 3103 1205 2759 
Q 947 2416 947 1791 
Q 947 1169 1205 825 
Q 1463 481 1925 481 
Q 2391 481 2648 825 
Q 2906 1169 2906 1791 
z
M 3481 434 
Q 3481 -459 3084 -895 
Q 2688 -1331 1869 -1331 
Q 1566 -1331 1297 -1286 
Q 1028 -1241 775 -1147 
L 775 -588 
Q 1028 -725 1275 -790 
Q 1522 -856 1778 -856 
Q 2344 -856 2625 -561 
Q 2906 -266 2906 331 
L 2906 616 
Q 2728 306 2450 153 
Q 2172 0 1784 0 
Q 1141 0 747 490 
Q 353 981 353 1791 
Q 353 2603 747 3093 
Q 1141 3584 1784 3584 
Q 2172 3584 2450 3431 
Q 2728 3278 2906 2969 
L 2906 3500 
L 3481 3500 
L 3481 434 
z
" transform="scale(0.015625)"/>
      <path id="DejaVuSans-63" d="M 3122 3366 
L 3122 2828 
Q 2878 2963 2633 3030 
Q 2388 3097 2138 3097 
Q 1578 3097 1268 2742 
Q 959 2388 959 1747 
Q 959 1106 1268 751 
Q 1578 397 2138 397 
Q 2388 397 2633 464 
Q 2878 531 3122 666 
L 3122 134 
Q 2881 22 2623 -34 
Q 2366 -91 2075 -91 
Q 1284 -91 818 406 
Q 353 903 353 1747 
Q 353 2603 823 3093 
Q 1294 3584 2113 3584 
Q 2378 3584 2631 3529 
Q 2884 3475 3122 3366 
z
" transform="scale(0.015625)"/>
      <path id="DejaVuSans-75" d="M 544 1381 
L 544 3500 
L 1119 3500 
L 1119 1403 
Q 1119 906 1312 657 
Q 1506 409 1894 409 
Q 2359 409 2629 706 
Q 2900 1003 2900 1516 
L 2900 3500 
L 3475 3500 
L 3475 0 
L 2900 0 
L 2900 538 
Q 2691 219 2414 64 
Q 2138 -91 1772 -91 
Q 1169 -91 856 284 
Q 544 659 544 1381 
z
M 1991 3584 
L 1991 3584 
z
" transform="scale(0.015625)"/>
      <path id="DejaVuSans-6d" d="M 3328 2828 
Q 3544 3216 3844 3400 
Q 4144 3584 4550 3584 
Q 5097 3584 5394 3201 
Q 5691 2819 5691 2113 
L 5691 0 
L 5113 0 
L 5113 2094 
Q 5113 2597 4934 2840 
Q 4756 3084 4391 3084 
Q 3944 3084 3684 2787 
Q 3425 2491 3425 1978 
L 3425 0 
L 2847 0 
L 2847 2094 
Q 2847 2600 2669 2842 
Q 2491 3084 2119 3084 
Q 1678 3084 1418 2786 
Q 1159 2488 1159 1978 
L 1159 0 
L 581 0 
L 581 3500 
L 1159 3500 
L 1159 2956 
Q 1356 3278 1631 3431 
Q 1906 3584 2284 3584 
Q 2666 3584 2933 3390 
Q 3200 3197 3328 2828 
z
" transform="scale(0.015625)"/>
      <path id="DejaVuSans-2f" d="M 1625 4666 
L 2156 4666 
L 531 -594 
L 0 -594 
L 1625 4666 
z
" transform="scale(0.015625)"/>
      <path id="DejaVuSans-68" d="M 3513 2113 
L 3513 0 
L 2938 0 
L 2938 2094 
Q 2938 2591 2744 2837 
Q 2550 3084 2163 3084 
Q 1697 3084 1428 2787 
Q 1159 2491 1159 1978 
L 1159 0 
L 581 0 
L 581 4863 
L 1159 4863 
L 1159 2956 
Q 1366 3272 1645 3428 
Q 1925 3584 2291 3584 
Q 2894 3584 3203 3211 
Q 3513 2838 3513 2113 
z
" transform="scale(0.015625)"/>
      <path id="DejaVuSans-5f" d="M 3263 -1063 
L 3263 -1509 
L -63 -1509 
L -63 -1063 
L 3263 -1063 
z
" transform="scale(0.015625)"/>
      <path id="DejaVuSans-62" d="M 3116 1747 
Q 3116 2381 2855 2742 
Q 2594 3103 2138 3103 
Q 1681 3103 1420 2742 
Q 1159 2381 1159 1747 
Q 1159 1113 1420 752 
Q 1681 391 2138 391 
Q 2594 391 2855 752 
Q 3116 1113 3116 1747 
z
M 1159 2969 
Q 1341 3281 1617 3432 
Q 1894 3584 2278 3584 
Q 2916 3584 3314 3078 
Q 3713 2572 3713 1747 
Q 3713 922 3314 415 
Q 2916 -91 2278 -91 
Q 1894 -91 1617 61 
Q 1341 213 1159 525 
L 1159 0 
L 581 0 
L 581 4863 
L 1159 4863 
L 1159 2969 
z
" transform="scale(0.015625)"/>
     </defs>
     <use xlink:href="#DejaVuSans-56"/>
     <use xlink:href="#DejaVuSans-69" x="66.158203"/>
     <use xlink:href="#DejaVuSans-6f" x="93.941406"/>
     <use xlink:href="#DejaVuSans-6c" x="155.123047"/>
     <use xlink:href="#DejaVuSans-69" x="182.90625"/>
     <use xlink:href="#DejaVuSans-6e" x="210.689453"/>
     <use xlink:href="#DejaVuSans-70" x="274.068359"/>
     <use xlink:href="#DejaVuSans-6c" x="337.544922"/>
     <use xlink:href="#DejaVuSans-6f" x="365.328125"/>
     <use xlink:href="#DejaVuSans-74" x="426.509766"/>
     <use xlink:href="#DejaVuSans-20" x="465.71875"/>
     <use xlink:href="#DejaVuSans-66" x="497.505859"/>
     <use xlink:href="#DejaVuSans-6f" x="532.710938"/>
     <use xlink:href="#DejaVuSans-72" x="593.892578"/>
     <use xlink:href="#DejaVuSans-20" x="635.005859"/>
     <use xlink:href="#DejaVuSans-70" x="666.792969"/>
     <use xlink:href="#DejaVuSans-72" x="730.269531"/>
     <use xlink:href="#DejaVuSans-6f" x="769.132812"/>
     <use xlink:href="#DejaVuSans-67" x="830.314453"/>
     <use xlink:href="#DejaVuSans-72" x="893.791016"/>
     <use xlink:href="#DejaVuSans-65" x="932.654297"/>
     <use xlink:href="#DejaVuSans-73" x="994.177734"/>
     <use xlink:href="#DejaVuSans-73" x="1046.277344"/>
     <use xlink:href="#DejaVuSans-20" x="1098.376953"/>
     <use xlink:href="#DejaVuSans-6f" x="1130.164062"/>
     <use xlink:href="#DejaVuSans-66" x="1191.345703"/>
     <use xlink:href="#DejaVuSans-20" x="1226.550781"/>
     <use xlink:href="#DejaVuSans-63" x="1258.337891"/>
     <use xlink:href="#DejaVuSans-75" x="1313.318359"/>
     <use xlink:href="#DejaVuSans-73" x="1376.697266"/>
     <use xlink:href="#DejaVuSans-74" x="1428.796875"/>
     <use xlink:href="#DejaVuSans-6f" x="1468.005859"/>
     <use xlink:href="#DejaVuSans-6d" x="1529.1875"/>
     <use xlink:href="#DejaVuSans-65" x="1626.599609"/>
     <use xlink:href="#DejaVuSans-72" x="1688.123047"/>
     <use xlink:href="#DejaVuSans-2f" x="1729.236328"/>
     <use xlink:href="#DejaVuSans-70" x="1762.927734"/>
     <use xlink:href="#DejaVuSans-75" x="1826.404297"/>
     <use xlink:href="#DejaVuSans-72" x="1889.783203"/>
     <use xlink:href="#DejaVuSans-63" x="1928.646484"/>
     <use xlink:href="#DejaVuSans-68" x="1983.626953"/>
     <use xlink:href="#DejaVuSans-61" x="2047.005859"/>
     <use xlink:href="#DejaVuSans-73" x="2108.285156"/>
     <use xlink:href="#DejaVuSans-65" x="2160.384766"/>
     <use xlink:href="#DejaVuSans-73" x="2221.908203"/>
     <use xlink:href="#DejaVuSans-5f" x="2274.007812"/>
     <use xlink:href="#DejaVuSans-72" x="2324.007812"/>
     <use xlink:href="#DejaVuSans-65" x="2362.871094"/>
     <use xlink:href="#DejaVuSans-66" x="2424.394531"/>
     <use xlink:href="#DejaVuSans-75" x="2459.599609"/>
     <use xlink:href="#DejaVuSans-72" x="2522.978516"/>
     <use xlink:href="#DejaVuSans-62" x="2564.091797"/>
     <use xlink:href="#DejaVuSans-69" x="2627.568359"/>
     <use xlink:href="#DejaVuSans-73" x="2655.351562"/>
     <use xlink:href="#DejaVuSans-68" x="2707.451172"/>
     <use xlink:href="#DejaVuSans-65" x="2770.830078"/>
     <use xlink:href="#DejaVuSans-64" x="2832.353516"/>
    </g>
   </g>
   <g id="legend_1">
    <g id="patch_7">
     <path d="M 276.504375 64.150125 
L 407.72 64.150125 
Q 409.72 64.150125 409.72 62.150125 
L 409.72 48.472 
Q 409.72 46.472 407.72 46.472 
L 276.504375 46.472 
Q 274.504375 46.472 274.504375 48.472 
L 274.504375 62.150125 
Q 274.504375 64.150125 276.504375 64.150125 
z
" style="fill: #ffffff; opacity: 0.8; stroke: #cccccc; stroke-linejoin: miter"/>
    </g>
    <g id="line2d_29">
     <path d="M 278.504375 54.570438 
L 288.504375 54.570438 
L 298.504375 54.570438 
" style="fill: none; stroke: #4682b4; stroke-width: 1.5; stroke-linecap: square"/>
    </g>
    <g id="text_17">
     <!-- StableBaselinesPPO -->
     <g transform="translate(306.504375 58.070438)scale(0.1 -0.1)">
      <defs>
       <path id="DejaVuSans-53" d="M 3425 4513 
L 3425 3897 
Q 3066 4069 2747 4153 
Q 2428 4238 2131 4238 
Q 1616 4238 1336 4038 
Q 1056 3838 1056 3469 
Q 1056 3159 1242 3001 
Q 1428 2844 1947 2747 
L 2328 2669 
Q 3034 2534 3370 2195 
Q 3706 1856 3706 1288 
Q 3706 609 3251 259 
Q 2797 -91 1919 -91 
Q 1588 -91 1214 -16 
Q 841 59 441 206 
L 441 856 
Q 825 641 1194 531 
Q 1563 422 1919 422 
Q 2459 422 2753 634 
Q 3047 847 3047 1241 
Q 3047 1584 2836 1778 
Q 2625 1972 2144 2069 
L 1759 2144 
Q 1053 2284 737 2584 
Q 422 2884 422 3419 
Q 422 4038 858 4394 
Q 1294 4750 2059 4750 
Q 2388 4750 2728 4690 
Q 3069 4631 3425 4513 
z
" transform="scale(0.015625)"/>
       <path id="DejaVuSans-42" d="M 1259 2228 
L 1259 519 
L 2272 519 
Q 2781 519 3026 730 
Q 3272 941 3272 1375 
Q 3272 1813 3026 2020 
Q 2781 2228 2272 2228 
L 1259 2228 
z
M 1259 4147 
L 1259 2741 
L 2194 2741 
Q 2656 2741 2882 2914 
Q 3109 3088 3109 3444 
Q 3109 3797 2882 3972 
Q 2656 4147 2194 4147 
L 1259 4147 
z
M 628 4666 
L 2241 4666 
Q 2963 4666 3353 4366 
Q 3744 4066 3744 3513 
Q 3744 3084 3544 2831 
Q 3344 2578 2956 2516 
Q 3422 2416 3680 2098 
Q 3938 1781 3938 1306 
Q 3938 681 3513 340 
Q 3088 0 2303 0 
L 628 0 
L 628 4666 
z
" transform="scale(0.015625)"/>
       <path id="DejaVuSans-50" d="M 1259 4147 
L 1259 2394 
L 2053 2394 
Q 2494 2394 2734 2622 
Q 2975 2850 2975 3272 
Q 2975 3691 2734 3919 
Q 2494 4147 2053 4147 
L 1259 4147 
z
M 628 4666 
L 2053 4666 
Q 2838 4666 3239 4311 
Q 3641 3956 3641 3272 
Q 3641 2581 3239 2228 
Q 2838 1875 2053 1875 
L 1259 1875 
L 1259 0 
L 628 0 
L 628 4666 
z
" transform="scale(0.015625)"/>
       <path id="DejaVuSans-4f" d="M 2522 4238 
Q 1834 4238 1429 3725 
Q 1025 3213 1025 2328 
Q 1025 1447 1429 934 
Q 1834 422 2522 422 
Q 3209 422 3611 934 
Q 4013 1447 4013 2328 
Q 4013 3213 3611 3725 
Q 3209 4238 2522 4238 
z
M 2522 4750 
Q 3503 4750 4090 4092 
Q 4678 3434 4678 2328 
Q 4678 1225 4090 567 
Q 3503 -91 2522 -91 
Q 1538 -91 948 565 
Q 359 1222 359 2328 
Q 359 3434 948 4092 
Q 1538 4750 2522 4750 
z
" transform="scale(0.015625)"/>
      </defs>
      <use xlink:href="#DejaVuSans-53"/>
      <use xlink:href="#DejaVuSans-74" x="63.476562"/>
      <use xlink:href="#DejaVuSans-61" x="102.685547"/>
      <use xlink:href="#DejaVuSans-62" x="163.964844"/>
      <use xlink:href="#DejaVuSans-6c" x="227.441406"/>
      <use xlink:href="#DejaVuSans-65" x="255.224609"/>
      <use xlink:href="#DejaVuSans-42" x="316.748047"/>
      <use xlink:href="#DejaVuSans-61" x="385.351562"/>
      <use xlink:href="#DejaVuSans-73" x="446.630859"/>
      <use xlink:href="#DejaVuSans-65" x="498.730469"/>
      <use xlink:href="#DejaVuSans-6c" x="560.253906"/>
      <use xlink:href="#DejaVuSans-69" x="588.037109"/>
      <use xlink:href="#DejaVuSans-6e" x="615.820312"/>
      <use xlink:href="#DejaVuSans-65" x="679.199219"/>
      <use xlink:href="#DejaVuSans-73" x="740.722656"/>
      <use xlink:href="#DejaVuSans-50" x="792.822266"/>
      <use xlink:href="#DejaVuSans-50" x="853.125"/>
      <use xlink:href="#DejaVuSans-4f" x="913.427734"/>
     </g>
    </g>
   </g>
  </g>
 </g>
 <defs>
  <clipPath id="pf9cac12b8f">
   <rect x="57.6" y="41.472" width="357.12" height="266.112"/>
  </clipPath>
 </defs>
</svg>
