<?xml version="1.0" encoding="utf-8" standalone="no"?>
<!DOCTYPE svg PUBLIC "-//W3C//DTD SVG 1.1//EN"
  "http://www.w3.org/Graphics/SVG/1.1/DTD/svg11.dtd">
<svg xmlns:xlink="http://www.w3.org/1999/xlink" width="460.8pt" height="345.6pt" viewBox="0 0 460.8 345.6" xmlns="http://www.w3.org/2000/svg" version="1.1">
 <metadata>
  <rdf:RDF xmlns:dc="http://purl.org/dc/elements/1.1/" xmlns:cc="http://creativecommons.org/ns#" xmlns:rdf="http://www.w3.org/1999/02/22-rdf-syntax-ns#">
   <cc:Work>
    <dc:type rdf:resource="http://purl.org/dc/dcmitype/StillImage"/>
    <dc:date>2022-06-21T22:14:27.839433</dc:date>
    <dc:format>image/svg+xml</dc:format>
    <dc:creator>
     <cc:Agent>
      <dc:title>Matplotlib v3.5.2, https://matplotlib.org/</dc:title>
     </cc:Agent>
    </dc:creator>
   </cc:Work>
  </rdf:RDF>
 </metadata>
 <defs>
  <style type="text/css">*{stroke-linejoin: round; stroke-linecap: butt}</style>
 </defs>
 <g id="figure_1">
  <g id="patch_1">
   <path d="M 0 345.6 
L 460.8 345.6 
L 460.8 0 
L 0 0 
z
" style="fill: #ffffff"/>
  </g>
  <g id="axes_1">
   <g id="patch_2">
    <path d="M 57.6 307.584 
L 414.72 307.584 
L 414.72 41.472 
L 57.6 41.472 
z
" style="fill: #ffffff"/>
   </g>
   <g id="PolyCollection_1">
    <path d="M 122.802673 295.488 
L 121.81593 295.488 
L 121.751038 293.51567 
L 121.669581 291.54334 
L 121.562277 289.571011 
L 121.418334 287.598681 
L 121.226387 285.626351 
L 120.975751 283.654021 
L 120.657876 281.681691 
L 120.267862 279.709362 
L 119.80582 277.737032 
L 119.277868 275.764702 
L 118.696508 273.792372 
L 118.080217 271.820043 
L 117.452156 269.847713 
L 116.838042 267.875383 
L 116.263401 265.903053 
L 115.75052 263.930723 
L 115.315516 261.958394 
L 114.965938 259.986064 
L 114.699256 258.013734 
L 114.502454 256.041404 
L 114.352805 254.069074 
L 114.219752 252.096745 
L 114.067669 250.124415 
L 113.859184 248.152085 
L 113.558662 246.179755 
L 113.135449 244.207425 
L 112.566503 242.235096 
L 111.838126 240.262766 
L 110.946664 238.290436 
L 109.898185 236.318106 
L 108.707316 234.345776 
L 107.395537 232.373447 
L 105.989262 230.401117 
L 104.518015 228.428787 
L 103.012914 226.456457 
L 101.505461 224.484128 
L 100.026553 222.511798 
L 98.605428 220.539468 
L 97.268318 218.567138 
L 96.036636 216.594808 
L 94.924743 214.622479 
L 93.937614 212.650149 
L 93.068924 210.677819 
L 92.300204 208.705489 
L 91.601615 206.733159 
L 90.934618 204.76083 
L 90.25641 202.7885 
L 89.525489 200.81617 
L 88.707418 198.84384 
L 87.779647 196.87151 
L 86.734455 194.899181 
L 85.579433 192.926851 
L 84.335521 190.954521 
L 83.033199 188.982191 
L 81.707835 187.009861 
L 80.395378 185.037532 
L 79.129365 183.065202 
L 77.939737 181.092872 
L 76.853348 179.120542 
L 75.895422 177.148213 
L 75.090884 175.175883 
L 74.464515 173.203553 
L 74.039255 171.231223 
L 73.832727 169.258893 
L 73.852762 167.286564 
L 74.093302 165.314234 
L 74.532196 163.341904 
L 75.132064 161.369574 
L 75.844633 159.397244 
L 76.617969 157.424915 
L 77.405167 155.452585 
L 78.172529 153.480255 
L 78.905328 151.507925 
L 79.609796 149.535595 
L 80.310934 147.563266 
L 81.046752 145.590936 
L 81.860373 143.618606 
L 82.791842 141.646276 
L 83.871359 139.673946 
L 85.115148 137.701617 
L 86.524404 135.729287 
L 88.086991 133.756957 
L 89.78101 131.784627 
L 91.579111 129.812298 
L 93.452513 127.839968 
L 95.37401 125.867638 
L 97.319675 123.895308 
L 99.269353 121.922978 
L 101.206277 119.950649 
L 103.116216 117.978319 
L 104.986524 116.005989 
L 106.805325 114.033659 
L 108.560943 112.061329 
L 110.241609 110.089 
L 111.835444 108.11667 
L 113.330692 106.14434 
L 114.716202 104.17201 
L 115.982103 102.19968 
L 117.120591 100.227351 
L 127.498013 100.227351 
L 127.498013 100.227351 
L 128.636501 102.19968 
L 129.902401 104.17201 
L 131.287912 106.14434 
L 132.78316 108.11667 
L 134.376995 110.089 
L 136.057661 112.061329 
L 137.813278 114.033659 
L 139.63208 116.005989 
L 141.502388 117.978319 
L 143.412327 119.950649 
L 145.349251 121.922978 
L 147.298929 123.895308 
L 149.244594 125.867638 
L 151.166091 127.839968 
L 153.039493 129.812298 
L 154.837594 131.784627 
L 156.531612 133.756957 
L 158.094199 135.729287 
L 159.503456 137.701617 
L 160.747245 139.673946 
L 161.826762 141.646276 
L 162.758231 143.618606 
L 163.571852 145.590936 
L 164.30767 147.563266 
L 165.008808 149.535595 
L 165.713276 151.507925 
L 166.446075 153.480255 
L 167.213436 155.452585 
L 168.000634 157.424915 
L 168.773971 159.397244 
L 169.48654 161.369574 
L 170.086408 163.341904 
L 170.525302 165.314234 
L 170.765841 167.286564 
L 170.785877 169.258893 
L 170.579349 171.231223 
L 170.154089 173.203553 
L 169.52772 175.175883 
L 168.723182 177.148213 
L 167.765255 179.120542 
L 166.678866 181.092872 
L 165.489239 183.065202 
L 164.223225 185.037532 
L 162.910769 187.009861 
L 161.585405 188.982191 
L 160.283083 190.954521 
L 159.039171 192.926851 
L 157.884149 194.899181 
L 156.838956 196.87151 
L 155.911185 198.84384 
L 155.093114 200.81617 
L 154.362194 202.7885 
L 153.683986 204.76083 
L 153.016989 206.733159 
L 152.318399 208.705489 
L 151.54968 210.677819 
L 150.68099 212.650149 
L 149.693861 214.622479 
L 148.581968 216.594808 
L 147.350285 218.567138 
L 146.013176 220.539468 
L 144.592051 222.511798 
L 143.113142 224.484128 
L 141.60569 226.456457 
L 140.100588 228.428787 
L 138.629342 230.401117 
L 137.223066 232.373447 
L 135.911288 234.345776 
L 134.720419 236.318106 
L 133.67194 238.290436 
L 132.780478 240.262766 
L 132.052101 242.235096 
L 131.483155 244.207425 
L 131.059942 246.179755 
L 130.75942 248.152085 
L 130.550934 250.124415 
L 130.398852 252.096745 
L 130.265799 254.069074 
L 130.11615 256.041404 
L 129.919348 258.013734 
L 129.652666 259.986064 
L 129.303088 261.958394 
L 128.868083 263.930723 
L 128.355202 265.903053 
L 127.780562 267.875383 
L 127.166448 269.847713 
L 126.538386 271.820043 
L 125.922096 273.792372 
L 125.340736 275.764702 
L 124.812784 277.737032 
L 124.350742 279.709362 
L 123.960728 281.681691 
L 123.642853 283.654021 
L 123.392217 285.626351 
L 123.20027 287.598681 
L 123.056327 289.571011 
L 122.949023 291.54334 
L 122.867566 293.51567 
L 122.802673 295.488 
z
" clip-path="url(#p0e3f7d6179)" style="fill: #1f77b4; fill-opacity: 0.3"/>
   </g>
   <g id="PolyCollection_2">
    <path d="M 244.111278 165.555606 
L 242.890199 165.555606 
L 242.854318 164.504125 
L 242.833195 163.452644 
L 242.825684 162.401163 
L 242.828922 161.349682 
L 242.838809 160.298201 
L 242.850623 159.246719 
L 242.859647 158.195238 
L 242.861667 157.143757 
L 242.853323 156.092276 
L 242.832295 155.040795 
L 242.797404 153.989313 
L 242.748669 152.937832 
L 242.68733 151.886351 
L 242.615827 150.83487 
L 242.537637 149.783389 
L 242.456927 148.731908 
L 242.377991 147.680426 
L 242.304547 146.628945 
L 242.239043 145.577464 
L 242.182163 144.525983 
L 242.132685 143.474502 
L 242.087778 142.42302 
L 242.043664 141.371539 
L 241.996475 140.320058 
L 241.943065 139.268577 
L 241.881565 138.217096 
L 241.811541 137.165615 
L 241.73376 136.114133 
L 241.649656 135.062652 
L 241.56069 134.011171 
L 241.467766 132.95969 
L 241.37084 131.908209 
L 241.268792 130.856728 
L 241.159546 129.805246 
L 241.040385 128.753765 
L 240.908409 127.702284 
L 240.761072 126.650803 
L 240.596738 125.599322 
L 240.415213 124.54784 
L 240.218141 123.496359 
L 240.009159 122.444878 
L 239.793715 121.393397 
L 239.578507 120.341916 
L 239.370568 119.290435 
L 239.176182 118.238953 
L 238.999839 117.187472 
L 238.843482 116.135991 
L 238.70619 115.08451 
L 238.584358 114.033029 
L 238.472244 112.981547 
L 238.362673 111.930066 
L 238.247641 110.878585 
L 238.118644 109.827104 
L 237.966673 108.775623 
L 237.782013 107.724142 
L 237.554091 106.67266 
L 237.271642 105.621179 
L 236.923378 104.569698 
L 236.499125 103.518217 
L 235.991194 102.466736 
L 235.395585 101.415254 
L 234.712632 100.363773 
L 233.946843 99.312292 
L 233.105933 98.260811 
L 232.199294 97.20933 
L 231.23632 96.157849 
L 230.224991 95.106367 
L 229.170996 94.054886 
L 228.077439 93.003405 
L 226.944964 91.951924 
L 225.771999 90.900443 
L 224.554858 89.848962 
L 223.287563 88.79748 
L 221.961514 87.745999 
L 220.565286 86.694518 
L 219.084943 85.643037 
L 217.505136 84.591556 
L 215.811063 83.540074 
L 213.991128 82.488593 
L 212.040032 81.437112 
L 209.962087 80.385631 
L 207.774673 79.33415 
L 205.511872 78.282669 
L 203.228191 77.231187 
L 201.001857 76.179706 
L 198.936531 75.128225 
L 197.159836 74.076744 
L 195.817024 73.025263 
L 195.058855 71.973781 
L 195.024164 70.9223 
L 195.819349 69.870819 
L 197.498556 68.819338 
L 200.048964 67.767857 
L 203.385047 66.716376 
L 207.35389 65.664894 
L 211.751213 64.613413 
L 216.345275 63.561932 
L 220.90411 62.510451 
L 225.221033 61.45897 
L 261.780444 61.45897 
L 261.780444 61.45897 
L 266.097367 62.510451 
L 270.656202 63.561932 
L 275.250264 64.613413 
L 279.647587 65.664894 
L 283.61643 66.716376 
L 286.952513 67.767857 
L 289.502921 68.819338 
L 291.182128 69.870819 
L 291.977313 70.9223 
L 291.942622 71.973781 
L 291.184453 73.025263 
L 289.84164 74.076744 
L 288.064946 75.128225 
L 285.99962 76.179706 
L 283.773286 77.231187 
L 281.489605 78.282669 
L 279.226803 79.33415 
L 277.039389 80.385631 
L 274.961445 81.437112 
L 273.010349 82.488593 
L 271.190414 83.540074 
L 269.496341 84.591556 
L 267.916534 85.643037 
L 266.436191 86.694518 
L 265.039963 87.745999 
L 263.713913 88.79748 
L 262.446619 89.848962 
L 261.229478 90.900443 
L 260.056513 91.951924 
L 258.924038 93.003405 
L 257.830481 94.054886 
L 256.776486 95.106367 
L 255.765157 96.157849 
L 254.802182 97.20933 
L 253.895544 98.260811 
L 253.054634 99.312292 
L 252.288845 100.363773 
L 251.605892 101.415254 
L 251.010283 102.466736 
L 250.502352 103.518217 
L 250.078099 104.569698 
L 249.729835 105.621179 
L 249.447386 106.67266 
L 249.219464 107.724142 
L 249.034804 108.775623 
L 248.882833 109.827104 
L 248.753836 110.878585 
L 248.638804 111.930066 
L 248.529233 112.981547 
L 248.417119 114.033029 
L 248.295287 115.08451 
L 248.157995 116.135991 
L 248.001638 117.187472 
L 247.825295 118.238953 
L 247.630909 119.290435 
L 247.422969 120.341916 
L 247.207761 121.393397 
L 246.992318 122.444878 
L 246.783336 123.496359 
L 246.586263 124.54784 
L 246.404739 125.599322 
L 246.240405 126.650803 
L 246.093067 127.702284 
L 245.961092 128.753765 
L 245.841931 129.805246 
L 245.732685 130.856728 
L 245.630637 131.908209 
L 245.533711 132.95969 
L 245.440786 134.011171 
L 245.351821 135.062652 
L 245.267717 136.114133 
L 245.189935 137.165615 
L 245.119912 138.217096 
L 245.058412 139.268577 
L 245.005002 140.320058 
L 244.957813 141.371539 
L 244.913699 142.42302 
L 244.868792 143.474502 
L 244.819314 144.525983 
L 244.762433 145.577464 
L 244.69693 146.628945 
L 244.623486 147.680426 
L 244.54455 148.731908 
L 244.46384 149.783389 
L 244.38565 150.83487 
L 244.314147 151.886351 
L 244.252808 152.937832 
L 244.204073 153.989313 
L 244.169182 155.040795 
L 244.148154 156.092276 
L 244.13981 157.143757 
L 244.14183 158.195238 
L 244.150854 159.246719 
L 244.162668 160.298201 
L 244.172554 161.349682 
L 244.175793 162.401163 
L 244.168282 163.452644 
L 244.147158 164.504125 
L 244.111278 165.555606 
z
" clip-path="url(#p0e3f7d6179)" style="fill: #1f77b4; fill-opacity: 0.3"/>
   </g>
   <g id="PolyCollection_3">
    <path d="M 350.209147 98.910432 
L 349.812249 98.910432 
L 349.811855 98.452427 
L 349.819816 97.994423 
L 349.829689 97.536419 
L 349.83487 97.078414 
L 349.83133 96.62041 
L 349.819096 96.162406 
L 349.801743 95.704401 
L 349.784262 95.246397 
L 349.770534 94.788392 
L 349.761835 94.330388 
L 349.757073 93.872384 
L 349.754297 93.414379 
L 349.752189 92.956375 
L 349.750334 92.498371 
L 349.748095 92.040366 
L 349.743059 91.582362 
L 349.730432 91.124358 
L 349.704148 90.666353 
L 349.659367 90.208349 
L 349.595178 89.750344 
L 349.516274 89.29234 
L 349.432784 88.834336 
L 349.35815 88.376331 
L 349.305493 87.918327 
L 349.283555 87.460323 
L 349.293705 87.002318 
L 349.329451 86.544314 
L 349.37884 86.08631 
L 349.428752 85.628305 
L 349.468999 85.170301 
L 349.49445 84.712297 
L 349.504698 84.254292 
L 349.502248 83.796288 
L 349.490721 83.338283 
L 349.473941 82.880279 
L 349.455705 82.422275 
L 349.439432 81.96427 
L 349.427204 81.506266 
L 349.418627 81.048262 
L 349.410499 80.590257 
L 349.398023 80.132253 
L 349.377238 79.674249 
L 349.347428 79.216244 
L 349.312093 78.75824 
L 349.277894 78.300235 
L 349.252067 77.842231 
L 349.239588 77.384227 
L 349.241332 76.926222 
L 349.253842 76.468218 
L 349.270551 76.010214 
L 349.283801 75.552209 
L 349.286913 75.094205 
L 349.27569 74.636201 
L 349.248916 74.178196 
L 349.207672 73.720192 
L 349.153654 73.262187 
L 349.08722 72.804183 
L 349.006172 72.346179 
L 348.906168 71.888174 
L 348.782835 71.43017 
L 348.634556 70.972166 
L 348.464121 70.514161 
L 348.277594 70.056157 
L 348.080057 69.598153 
L 347.86966 69.140148 
L 347.632535 68.682144 
L 347.340829 68.22414 
L 346.954478 67.766135 
L 346.425644 67.308131 
L 345.704014 66.850126 
L 344.741655 66.392122 
L 343.496823 65.934118 
L 341.936378 65.476113 
L 340.036163 65.018109 
L 337.778911 64.560105 
L 335.150681 64.1021 
L 332.139019 63.644096 
L 328.737357 63.186092 
L 324.958923 62.728087 
L 320.859317 62.270083 
L 316.561593 61.812078 
L 312.273563 61.354074 
L 308.286214 60.89607 
L 304.945898 60.438065 
L 302.601002 59.980061 
L 301.534123 59.522057 
L 301.89896 59.064052 
L 303.68253 58.606048 
L 306.705872 58.148044 
L 310.663072 57.690039 
L 315.185559 57.232035 
L 319.911782 56.774031 
L 324.543261 56.316026 
L 328.874707 55.858022 
L 332.795202 55.400017 
L 336.266543 54.942013 
L 339.291325 54.484009 
L 341.884781 54.026004 
L 344.059977 53.568 
L 355.96142 53.568 
L 355.96142 53.568 
L 358.136615 54.026004 
L 360.730071 54.484009 
L 363.754853 54.942013 
L 367.226195 55.400017 
L 371.14669 55.858022 
L 375.478135 56.316026 
L 380.109614 56.774031 
L 384.835837 57.232035 
L 389.358324 57.690039 
L 393.315524 58.148044 
L 396.338867 58.606048 
L 398.122437 59.064052 
L 398.487273 59.522057 
L 397.420394 59.980061 
L 395.075499 60.438065 
L 391.735182 60.89607 
L 387.747833 61.354074 
L 383.459803 61.812078 
L 379.162079 62.270083 
L 375.062473 62.728087 
L 371.284039 63.186092 
L 367.882377 63.644096 
L 364.870715 64.1021 
L 362.242486 64.560105 
L 359.985234 65.018109 
L 358.085018 65.476113 
L 356.524573 65.934118 
L 355.279741 66.392122 
L 354.317382 66.850126 
L 353.595752 67.308131 
L 353.066918 67.766135 
L 352.680568 68.22414 
L 352.388861 68.682144 
L 352.151736 69.140148 
L 351.941339 69.598153 
L 351.743803 70.056157 
L 351.557275 70.514161 
L 351.38684 70.972166 
L 351.238562 71.43017 
L 351.115229 71.888174 
L 351.015224 72.346179 
L 350.934176 72.804183 
L 350.867742 73.262187 
L 350.813725 73.720192 
L 350.77248 74.178196 
L 350.745706 74.636201 
L 350.734483 75.094205 
L 350.737596 75.552209 
L 350.750845 76.010214 
L 350.767555 76.468218 
L 350.780065 76.926222 
L 350.781808 77.384227 
L 350.769329 77.842231 
L 350.743502 78.300235 
L 350.709303 78.75824 
L 350.673968 79.216244 
L 350.644158 79.674249 
L 350.623374 80.132253 
L 350.610897 80.590257 
L 350.602769 81.048262 
L 350.594192 81.506266 
L 350.581965 81.96427 
L 350.565691 82.422275 
L 350.547455 82.880279 
L 350.530675 83.338283 
L 350.519148 83.796288 
L 350.516698 84.254292 
L 350.526946 84.712297 
L 350.552397 85.170301 
L 350.592645 85.628305 
L 350.642556 86.08631 
L 350.691946 86.544314 
L 350.727691 87.002318 
L 350.737842 87.460323 
L 350.715903 87.918327 
L 350.663246 88.376331 
L 350.588612 88.834336 
L 350.505122 89.29234 
L 350.426218 89.750344 
L 350.362029 90.208349 
L 350.317248 90.666353 
L 350.290964 91.124358 
L 350.278337 91.582362 
L 350.273301 92.040366 
L 350.271062 92.498371 
L 350.269207 92.956375 
L 350.267099 93.414379 
L 350.264323 93.872384 
L 350.259561 94.330388 
L 350.250863 94.788392 
L 350.237135 95.246397 
L 350.219653 95.704401 
L 350.2023 96.162406 
L 350.190066 96.62041 
L 350.186526 97.078414 
L 350.191707 97.536419 
L 350.20158 97.994423 
L 350.209541 98.452427 
L 350.209147 98.910432 
z
" clip-path="url(#p0e3f7d6179)" style="fill: #1f77b4; fill-opacity: 0.3"/>
   </g>
   <g id="matplotlib.axis_1">
    <g id="xtick_1">
     <g id="line2d_1">
      <path d="M 70.370115 307.584 
L 70.370115 41.472 
" clip-path="url(#p0e3f7d6179)" style="fill: none; stroke-dasharray: 2.96,1.28; stroke-dashoffset: 0; stroke: #b0b0b0; stroke-width: 0.8"/>
     </g>
     <g id="line2d_2">
      <defs>
       <path id="m332180a7f0" d="M 0 0 
L 0 3.5 
" style="stroke: #000000; stroke-width: 0.8"/>
      </defs>
      <g>
       <use xlink:href="#m332180a7f0" x="70.370115" y="307.584" style="stroke: #000000; stroke-width: 0.8"/>
      </g>
     </g>
     <g id="text_1">
      <!-- 1000 -->
      <g transform="translate(57.645115 322.182437)scale(0.1 -0.1)">
       <defs>
        <path id="DejaVuSans-31" d="M 794 531 
L 1825 531 
L 1825 4091 
L 703 3866 
L 703 4441 
L 1819 4666 
L 2450 4666 
L 2450 531 
L 3481 531 
L 3481 0 
L 794 0 
L 794 531 
z
" transform="scale(0.015625)"/>
        <path id="DejaVuSans-30" d="M 2034 4250 
Q 1547 4250 1301 3770 
Q 1056 3291 1056 2328 
Q 1056 1369 1301 889 
Q 1547 409 2034 409 
Q 2525 409 2770 889 
Q 3016 1369 3016 2328 
Q 3016 3291 2770 3770 
Q 2525 4250 2034 4250 
z
M 2034 4750 
Q 2819 4750 3233 4129 
Q 3647 3509 3647 2328 
Q 3647 1150 3233 529 
Q 2819 -91 2034 -91 
Q 1250 -91 836 529 
Q 422 1150 422 2328 
Q 422 3509 836 4129 
Q 1250 4750 2034 4750 
z
" transform="scale(0.015625)"/>
       </defs>
       <use xlink:href="#DejaVuSans-31"/>
       <use xlink:href="#DejaVuSans-30" x="63.623047"/>
       <use xlink:href="#DejaVuSans-30" x="127.246094"/>
       <use xlink:href="#DejaVuSans-30" x="190.869141"/>
      </g>
     </g>
    </g>
    <g id="xtick_2">
     <g id="line2d_3">
      <path d="M 139.622364 307.584 
L 139.622364 41.472 
" clip-path="url(#p0e3f7d6179)" style="fill: none; stroke-dasharray: 2.96,1.28; stroke-dashoffset: 0; stroke: #b0b0b0; stroke-width: 0.8"/>
     </g>
     <g id="line2d_4">
      <g>
       <use xlink:href="#m332180a7f0" x="139.622364" y="307.584" style="stroke: #000000; stroke-width: 0.8"/>
      </g>
     </g>
     <g id="text_2">
      <!-- 2000 -->
      <g transform="translate(126.897364 322.182437)scale(0.1 -0.1)">
       <defs>
        <path id="DejaVuSans-32" d="M 1228 531 
L 3431 531 
L 3431 0 
L 469 0 
L 469 531 
Q 828 903 1448 1529 
Q 2069 2156 2228 2338 
Q 2531 2678 2651 2914 
Q 2772 3150 2772 3378 
Q 2772 3750 2511 3984 
Q 2250 4219 1831 4219 
Q 1534 4219 1204 4116 
Q 875 4013 500 3803 
L 500 4441 
Q 881 4594 1212 4672 
Q 1544 4750 1819 4750 
Q 2544 4750 2975 4387 
Q 3406 4025 3406 3419 
Q 3406 3131 3298 2873 
Q 3191 2616 2906 2266 
Q 2828 2175 2409 1742 
Q 1991 1309 1228 531 
z
" transform="scale(0.015625)"/>
       </defs>
       <use xlink:href="#DejaVuSans-32"/>
       <use xlink:href="#DejaVuSans-30" x="63.623047"/>
       <use xlink:href="#DejaVuSans-30" x="127.246094"/>
       <use xlink:href="#DejaVuSans-30" x="190.869141"/>
      </g>
     </g>
    </g>
    <g id="xtick_3">
     <g id="line2d_5">
      <path d="M 208.874614 307.584 
L 208.874614 41.472 
" clip-path="url(#p0e3f7d6179)" style="fill: none; stroke-dasharray: 2.96,1.28; stroke-dashoffset: 0; stroke: #b0b0b0; stroke-width: 0.8"/>
     </g>
     <g id="line2d_6">
      <g>
       <use xlink:href="#m332180a7f0" x="208.874614" y="307.584" style="stroke: #000000; stroke-width: 0.8"/>
      </g>
     </g>
     <g id="text_3">
      <!-- 3000 -->
      <g transform="translate(196.149614 322.182437)scale(0.1 -0.1)">
       <defs>
        <path id="DejaVuSans-33" d="M 2597 2516 
Q 3050 2419 3304 2112 
Q 3559 1806 3559 1356 
Q 3559 666 3084 287 
Q 2609 -91 1734 -91 
Q 1441 -91 1130 -33 
Q 819 25 488 141 
L 488 750 
Q 750 597 1062 519 
Q 1375 441 1716 441 
Q 2309 441 2620 675 
Q 2931 909 2931 1356 
Q 2931 1769 2642 2001 
Q 2353 2234 1838 2234 
L 1294 2234 
L 1294 2753 
L 1863 2753 
Q 2328 2753 2575 2939 
Q 2822 3125 2822 3475 
Q 2822 3834 2567 4026 
Q 2313 4219 1838 4219 
Q 1578 4219 1281 4162 
Q 984 4106 628 3988 
L 628 4550 
Q 988 4650 1302 4700 
Q 1616 4750 1894 4750 
Q 2613 4750 3031 4423 
Q 3450 4097 3450 3541 
Q 3450 3153 3228 2886 
Q 3006 2619 2597 2516 
z
" transform="scale(0.015625)"/>
       </defs>
       <use xlink:href="#DejaVuSans-33"/>
       <use xlink:href="#DejaVuSans-30" x="63.623047"/>
       <use xlink:href="#DejaVuSans-30" x="127.246094"/>
       <use xlink:href="#DejaVuSans-30" x="190.869141"/>
      </g>
     </g>
    </g>
    <g id="xtick_4">
     <g id="line2d_7">
      <path d="M 278.126863 307.584 
L 278.126863 41.472 
" clip-path="url(#p0e3f7d6179)" style="fill: none; stroke-dasharray: 2.96,1.28; stroke-dashoffset: 0; stroke: #b0b0b0; stroke-width: 0.8"/>
     </g>
     <g id="line2d_8">
      <g>
       <use xlink:href="#m332180a7f0" x="278.126863" y="307.584" style="stroke: #000000; stroke-width: 0.8"/>
      </g>
     </g>
     <g id="text_4">
      <!-- 4000 -->
      <g transform="translate(265.401863 322.182437)scale(0.1 -0.1)">
       <defs>
        <path id="DejaVuSans-34" d="M 2419 4116 
L 825 1625 
L 2419 1625 
L 2419 4116 
z
M 2253 4666 
L 3047 4666 
L 3047 1625 
L 3713 1625 
L 3713 1100 
L 3047 1100 
L 3047 0 
L 2419 0 
L 2419 1100 
L 313 1100 
L 313 1709 
L 2253 4666 
z
" transform="scale(0.015625)"/>
       </defs>
       <use xlink:href="#DejaVuSans-34"/>
       <use xlink:href="#DejaVuSans-30" x="63.623047"/>
       <use xlink:href="#DejaVuSans-30" x="127.246094"/>
       <use xlink:href="#DejaVuSans-30" x="190.869141"/>
      </g>
     </g>
    </g>
    <g id="xtick_5">
     <g id="line2d_9">
      <path d="M 347.379113 307.584 
L 347.379113 41.472 
" clip-path="url(#p0e3f7d6179)" style="fill: none; stroke-dasharray: 2.96,1.28; stroke-dashoffset: 0; stroke: #b0b0b0; stroke-width: 0.8"/>
     </g>
     <g id="line2d_10">
      <g>
       <use xlink:href="#m332180a7f0" x="347.379113" y="307.584" style="stroke: #000000; stroke-width: 0.8"/>
      </g>
     </g>
     <g id="text_5">
      <!-- 5000 -->
      <g transform="translate(334.654113 322.182437)scale(0.1 -0.1)">
       <defs>
        <path id="DejaVuSans-35" d="M 691 4666 
L 3169 4666 
L 3169 4134 
L 1269 4134 
L 1269 2991 
Q 1406 3038 1543 3061 
Q 1681 3084 1819 3084 
Q 2600 3084 3056 2656 
Q 3513 2228 3513 1497 
Q 3513 744 3044 326 
Q 2575 -91 1722 -91 
Q 1428 -91 1123 -41 
Q 819 9 494 109 
L 494 744 
Q 775 591 1075 516 
Q 1375 441 1709 441 
Q 2250 441 2565 725 
Q 2881 1009 2881 1497 
Q 2881 1984 2565 2268 
Q 2250 2553 1709 2553 
Q 1456 2553 1204 2497 
Q 953 2441 691 2322 
L 691 4666 
z
" transform="scale(0.015625)"/>
       </defs>
       <use xlink:href="#DejaVuSans-35"/>
       <use xlink:href="#DejaVuSans-30" x="63.623047"/>
       <use xlink:href="#DejaVuSans-30" x="127.246094"/>
       <use xlink:href="#DejaVuSans-30" x="190.869141"/>
      </g>
     </g>
    </g>
    <g id="text_6">
     <!-- Learned Episodes -->
     <g transform="translate(192.102187 335.860562)scale(0.1 -0.1)">
      <defs>
       <path id="DejaVuSans-4c" d="M 628 4666 
L 1259 4666 
L 1259 531 
L 3531 531 
L 3531 0 
L 628 0 
L 628 4666 
z
" transform="scale(0.015625)"/>
       <path id="DejaVuSans-65" d="M 3597 1894 
L 3597 1613 
L 953 1613 
Q 991 1019 1311 708 
Q 1631 397 2203 397 
Q 2534 397 2845 478 
Q 3156 559 3463 722 
L 3463 178 
Q 3153 47 2828 -22 
Q 2503 -91 2169 -91 
Q 1331 -91 842 396 
Q 353 884 353 1716 
Q 353 2575 817 3079 
Q 1281 3584 2069 3584 
Q 2775 3584 3186 3129 
Q 3597 2675 3597 1894 
z
M 3022 2063 
Q 3016 2534 2758 2815 
Q 2500 3097 2075 3097 
Q 1594 3097 1305 2825 
Q 1016 2553 972 2059 
L 3022 2063 
z
" transform="scale(0.015625)"/>
       <path id="DejaVuSans-61" d="M 2194 1759 
Q 1497 1759 1228 1600 
Q 959 1441 959 1056 
Q 959 750 1161 570 
Q 1363 391 1709 391 
Q 2188 391 2477 730 
Q 2766 1069 2766 1631 
L 2766 1759 
L 2194 1759 
z
M 3341 1997 
L 3341 0 
L 2766 0 
L 2766 531 
Q 2569 213 2275 61 
Q 1981 -91 1556 -91 
Q 1019 -91 701 211 
Q 384 513 384 1019 
Q 384 1609 779 1909 
Q 1175 2209 1959 2209 
L 2766 2209 
L 2766 2266 
Q 2766 2663 2505 2880 
Q 2244 3097 1772 3097 
Q 1472 3097 1187 3025 
Q 903 2953 641 2809 
L 641 3341 
Q 956 3463 1253 3523 
Q 1550 3584 1831 3584 
Q 2591 3584 2966 3190 
Q 3341 2797 3341 1997 
z
" transform="scale(0.015625)"/>
       <path id="DejaVuSans-72" d="M 2631 2963 
Q 2534 3019 2420 3045 
Q 2306 3072 2169 3072 
Q 1681 3072 1420 2755 
Q 1159 2438 1159 1844 
L 1159 0 
L 581 0 
L 581 3500 
L 1159 3500 
L 1159 2956 
Q 1341 3275 1631 3429 
Q 1922 3584 2338 3584 
Q 2397 3584 2469 3576 
Q 2541 3569 2628 3553 
L 2631 2963 
z
" transform="scale(0.015625)"/>
       <path id="DejaVuSans-6e" d="M 3513 2113 
L 3513 0 
L 2938 0 
L 2938 2094 
Q 2938 2591 2744 2837 
Q 2550 3084 2163 3084 
Q 1697 3084 1428 2787 
Q 1159 2491 1159 1978 
L 1159 0 
L 581 0 
L 581 3500 
L 1159 3500 
L 1159 2956 
Q 1366 3272 1645 3428 
Q 1925 3584 2291 3584 
Q 2894 3584 3203 3211 
Q 3513 2838 3513 2113 
z
" transform="scale(0.015625)"/>
       <path id="DejaVuSans-64" d="M 2906 2969 
L 2906 4863 
L 3481 4863 
L 3481 0 
L 2906 0 
L 2906 525 
Q 2725 213 2448 61 
Q 2172 -91 1784 -91 
Q 1150 -91 751 415 
Q 353 922 353 1747 
Q 353 2572 751 3078 
Q 1150 3584 1784 3584 
Q 2172 3584 2448 3432 
Q 2725 3281 2906 2969 
z
M 947 1747 
Q 947 1113 1208 752 
Q 1469 391 1925 391 
Q 2381 391 2643 752 
Q 2906 1113 2906 1747 
Q 2906 2381 2643 2742 
Q 2381 3103 1925 3103 
Q 1469 3103 1208 2742 
Q 947 2381 947 1747 
z
" transform="scale(0.015625)"/>
       <path id="DejaVuSans-20" transform="scale(0.015625)"/>
       <path id="DejaVuSans-45" d="M 628 4666 
L 3578 4666 
L 3578 4134 
L 1259 4134 
L 1259 2753 
L 3481 2753 
L 3481 2222 
L 1259 2222 
L 1259 531 
L 3634 531 
L 3634 0 
L 628 0 
L 628 4666 
z
" transform="scale(0.015625)"/>
       <path id="DejaVuSans-70" d="M 1159 525 
L 1159 -1331 
L 581 -1331 
L 581 3500 
L 1159 3500 
L 1159 2969 
Q 1341 3281 1617 3432 
Q 1894 3584 2278 3584 
Q 2916 3584 3314 3078 
Q 3713 2572 3713 1747 
Q 3713 922 3314 415 
Q 2916 -91 2278 -91 
Q 1894 -91 1617 61 
Q 1341 213 1159 525 
z
M 3116 1747 
Q 3116 2381 2855 2742 
Q 2594 3103 2138 3103 
Q 1681 3103 1420 2742 
Q 1159 2381 1159 1747 
Q 1159 1113 1420 752 
Q 1681 391 2138 391 
Q 2594 391 2855 752 
Q 3116 1113 3116 1747 
z
" transform="scale(0.015625)"/>
       <path id="DejaVuSans-69" d="M 603 3500 
L 1178 3500 
L 1178 0 
L 603 0 
L 603 3500 
z
M 603 4863 
L 1178 4863 
L 1178 4134 
L 603 4134 
L 603 4863 
z
" transform="scale(0.015625)"/>
       <path id="DejaVuSans-73" d="M 2834 3397 
L 2834 2853 
Q 2591 2978 2328 3040 
Q 2066 3103 1784 3103 
Q 1356 3103 1142 2972 
Q 928 2841 928 2578 
Q 928 2378 1081 2264 
Q 1234 2150 1697 2047 
L 1894 2003 
Q 2506 1872 2764 1633 
Q 3022 1394 3022 966 
Q 3022 478 2636 193 
Q 2250 -91 1575 -91 
Q 1294 -91 989 -36 
Q 684 19 347 128 
L 347 722 
Q 666 556 975 473 
Q 1284 391 1588 391 
Q 1994 391 2212 530 
Q 2431 669 2431 922 
Q 2431 1156 2273 1281 
Q 2116 1406 1581 1522 
L 1381 1569 
Q 847 1681 609 1914 
Q 372 2147 372 2553 
Q 372 3047 722 3315 
Q 1072 3584 1716 3584 
Q 2034 3584 2315 3537 
Q 2597 3491 2834 3397 
z
" transform="scale(0.015625)"/>
       <path id="DejaVuSans-6f" d="M 1959 3097 
Q 1497 3097 1228 2736 
Q 959 2375 959 1747 
Q 959 1119 1226 758 
Q 1494 397 1959 397 
Q 2419 397 2687 759 
Q 2956 1122 2956 1747 
Q 2956 2369 2687 2733 
Q 2419 3097 1959 3097 
z
M 1959 3584 
Q 2709 3584 3137 3096 
Q 3566 2609 3566 1747 
Q 3566 888 3137 398 
Q 2709 -91 1959 -91 
Q 1206 -91 779 398 
Q 353 888 353 1747 
Q 353 2609 779 3096 
Q 1206 3584 1959 3584 
z
" transform="scale(0.015625)"/>
      </defs>
      <use xlink:href="#DejaVuSans-4c"/>
      <use xlink:href="#DejaVuSans-65" x="53.962891"/>
      <use xlink:href="#DejaVuSans-61" x="115.486328"/>
      <use xlink:href="#DejaVuSans-72" x="176.765625"/>
      <use xlink:href="#DejaVuSans-6e" x="216.128906"/>
      <use xlink:href="#DejaVuSans-65" x="279.507812"/>
      <use xlink:href="#DejaVuSans-64" x="341.03125"/>
      <use xlink:href="#DejaVuSans-20" x="404.507812"/>
      <use xlink:href="#DejaVuSans-45" x="436.294922"/>
      <use xlink:href="#DejaVuSans-70" x="499.478516"/>
      <use xlink:href="#DejaVuSans-69" x="562.955078"/>
      <use xlink:href="#DejaVuSans-73" x="590.738281"/>
      <use xlink:href="#DejaVuSans-6f" x="642.837891"/>
      <use xlink:href="#DejaVuSans-64" x="704.019531"/>
      <use xlink:href="#DejaVuSans-65" x="767.496094"/>
      <use xlink:href="#DejaVuSans-73" x="829.019531"/>
     </g>
    </g>
   </g>
   <g id="matplotlib.axis_2">
    <g id="ytick_1">
     <g id="line2d_11">
      <path d="M 57.6 305.705133 
L 414.72 305.705133 
" clip-path="url(#p0e3f7d6179)" style="fill: none; stroke-dasharray: 2.96,1.28; stroke-dashoffset: 0; stroke: #b0b0b0; stroke-width: 0.8"/>
     </g>
     <g id="line2d_12">
      <defs>
       <path id="m1313f4963b" d="M 0 0 
L -3.5 0 
" style="stroke: #000000; stroke-width: 0.8"/>
      </defs>
      <g>
       <use xlink:href="#m1313f4963b" x="57.6" y="305.705133" style="stroke: #000000; stroke-width: 0.8"/>
      </g>
     </g>
     <g id="text_7">
      <!-- −2000 -->
      <g transform="translate(16.770313 309.504352)scale(0.1 -0.1)">
       <defs>
        <path id="DejaVuSans-2212" d="M 678 2272 
L 4684 2272 
L 4684 1741 
L 678 1741 
L 678 2272 
z
" transform="scale(0.015625)"/>
       </defs>
       <use xlink:href="#DejaVuSans-2212"/>
       <use xlink:href="#DejaVuSans-32" x="83.789062"/>
       <use xlink:href="#DejaVuSans-30" x="147.412109"/>
       <use xlink:href="#DejaVuSans-30" x="211.035156"/>
       <use xlink:href="#DejaVuSans-30" x="274.658203"/>
      </g>
     </g>
    </g>
    <g id="ytick_2">
     <g id="line2d_13">
      <path d="M 57.6 248.427005 
L 414.72 248.427005 
" clip-path="url(#p0e3f7d6179)" style="fill: none; stroke-dasharray: 2.96,1.28; stroke-dashoffset: 0; stroke: #b0b0b0; stroke-width: 0.8"/>
     </g>
     <g id="line2d_14">
      <g>
       <use xlink:href="#m1313f4963b" x="57.6" y="248.427005" style="stroke: #000000; stroke-width: 0.8"/>
      </g>
     </g>
     <g id="text_8">
      <!-- −1500 -->
      <g transform="translate(16.770313 252.226224)scale(0.1 -0.1)">
       <use xlink:href="#DejaVuSans-2212"/>
       <use xlink:href="#DejaVuSans-31" x="83.789062"/>
       <use xlink:href="#DejaVuSans-35" x="147.412109"/>
       <use xlink:href="#DejaVuSans-30" x="211.035156"/>
       <use xlink:href="#DejaVuSans-30" x="274.658203"/>
      </g>
     </g>
    </g>
    <g id="ytick_3">
     <g id="line2d_15">
      <path d="M 57.6 191.148878 
L 414.72 191.148878 
" clip-path="url(#p0e3f7d6179)" style="fill: none; stroke-dasharray: 2.96,1.28; stroke-dashoffset: 0; stroke: #b0b0b0; stroke-width: 0.8"/>
     </g>
     <g id="line2d_16">
      <g>
       <use xlink:href="#m1313f4963b" x="57.6" y="191.148878" style="stroke: #000000; stroke-width: 0.8"/>
      </g>
     </g>
     <g id="text_9">
      <!-- −1000 -->
      <g transform="translate(16.770313 194.948096)scale(0.1 -0.1)">
       <use xlink:href="#DejaVuSans-2212"/>
       <use xlink:href="#DejaVuSans-31" x="83.789062"/>
       <use xlink:href="#DejaVuSans-30" x="147.412109"/>
       <use xlink:href="#DejaVuSans-30" x="211.035156"/>
       <use xlink:href="#DejaVuSans-30" x="274.658203"/>
      </g>
     </g>
    </g>
    <g id="ytick_4">
     <g id="line2d_17">
      <path d="M 57.6 133.87075 
L 414.72 133.87075 
" clip-path="url(#p0e3f7d6179)" style="fill: none; stroke-dasharray: 2.96,1.28; stroke-dashoffset: 0; stroke: #b0b0b0; stroke-width: 0.8"/>
     </g>
     <g id="line2d_18">
      <g>
       <use xlink:href="#m1313f4963b" x="57.6" y="133.87075" style="stroke: #000000; stroke-width: 0.8"/>
      </g>
     </g>
     <g id="text_10">
      <!-- −500 -->
      <g transform="translate(23.132812 137.669969)scale(0.1 -0.1)">
       <use xlink:href="#DejaVuSans-2212"/>
       <use xlink:href="#DejaVuSans-35" x="83.789062"/>
       <use xlink:href="#DejaVuSans-30" x="147.412109"/>
       <use xlink:href="#DejaVuSans-30" x="211.035156"/>
      </g>
     </g>
    </g>
    <g id="ytick_5">
     <g id="line2d_19">
      <path d="M 57.6 76.592622 
L 414.72 76.592622 
" clip-path="url(#p0e3f7d6179)" style="fill: none; stroke-dasharray: 2.96,1.28; stroke-dashoffset: 0; stroke: #b0b0b0; stroke-width: 0.8"/>
     </g>
     <g id="line2d_20">
      <g>
       <use xlink:href="#m1313f4963b" x="57.6" y="76.592622" style="stroke: #000000; stroke-width: 0.8"/>
      </g>
     </g>
     <g id="text_11">
      <!-- 0 -->
      <g transform="translate(44.2375 80.391841)scale(0.1 -0.1)">
       <use xlink:href="#DejaVuSans-30"/>
      </g>
     </g>
    </g>
    <g id="text_12">
     <!-- Reward Density -->
     <g transform="translate(10.690625 213.74675)rotate(-90)scale(0.1 -0.1)">
      <defs>
       <path id="DejaVuSans-52" d="M 2841 2188 
Q 3044 2119 3236 1894 
Q 3428 1669 3622 1275 
L 4263 0 
L 3584 0 
L 2988 1197 
Q 2756 1666 2539 1819 
Q 2322 1972 1947 1972 
L 1259 1972 
L 1259 0 
L 628 0 
L 628 4666 
L 2053 4666 
Q 2853 4666 3247 4331 
Q 3641 3997 3641 3322 
Q 3641 2881 3436 2590 
Q 3231 2300 2841 2188 
z
M 1259 4147 
L 1259 2491 
L 2053 2491 
Q 2509 2491 2742 2702 
Q 2975 2913 2975 3322 
Q 2975 3731 2742 3939 
Q 2509 4147 2053 4147 
L 1259 4147 
z
" transform="scale(0.015625)"/>
       <path id="DejaVuSans-77" d="M 269 3500 
L 844 3500 
L 1563 769 
L 2278 3500 
L 2956 3500 
L 3675 769 
L 4391 3500 
L 4966 3500 
L 4050 0 
L 3372 0 
L 2619 2869 
L 1863 0 
L 1184 0 
L 269 3500 
z
" transform="scale(0.015625)"/>
       <path id="DejaVuSans-44" d="M 1259 4147 
L 1259 519 
L 2022 519 
Q 2988 519 3436 956 
Q 3884 1394 3884 2338 
Q 3884 3275 3436 3711 
Q 2988 4147 2022 4147 
L 1259 4147 
z
M 628 4666 
L 1925 4666 
Q 3281 4666 3915 4102 
Q 4550 3538 4550 2338 
Q 4550 1131 3912 565 
Q 3275 0 1925 0 
L 628 0 
L 628 4666 
z
" transform="scale(0.015625)"/>
       <path id="DejaVuSans-74" d="M 1172 4494 
L 1172 3500 
L 2356 3500 
L 2356 3053 
L 1172 3053 
L 1172 1153 
Q 1172 725 1289 603 
Q 1406 481 1766 481 
L 2356 481 
L 2356 0 
L 1766 0 
Q 1100 0 847 248 
Q 594 497 594 1153 
L 594 3053 
L 172 3053 
L 172 3500 
L 594 3500 
L 594 4494 
L 1172 4494 
z
" transform="scale(0.015625)"/>
       <path id="DejaVuSans-79" d="M 2059 -325 
Q 1816 -950 1584 -1140 
Q 1353 -1331 966 -1331 
L 506 -1331 
L 506 -850 
L 844 -850 
Q 1081 -850 1212 -737 
Q 1344 -625 1503 -206 
L 1606 56 
L 191 3500 
L 800 3500 
L 1894 763 
L 2988 3500 
L 3597 3500 
L 2059 -325 
z
" transform="scale(0.015625)"/>
      </defs>
      <use xlink:href="#DejaVuSans-52"/>
      <use xlink:href="#DejaVuSans-65" x="64.982422"/>
      <use xlink:href="#DejaVuSans-77" x="126.505859"/>
      <use xlink:href="#DejaVuSans-61" x="208.292969"/>
      <use xlink:href="#DejaVuSans-72" x="269.572266"/>
      <use xlink:href="#DejaVuSans-64" x="308.935547"/>
      <use xlink:href="#DejaVuSans-20" x="372.412109"/>
      <use xlink:href="#DejaVuSans-44" x="404.199219"/>
      <use xlink:href="#DejaVuSans-65" x="481.201172"/>
      <use xlink:href="#DejaVuSans-6e" x="542.724609"/>
      <use xlink:href="#DejaVuSans-73" x="606.103516"/>
      <use xlink:href="#DejaVuSans-69" x="658.203125"/>
      <use xlink:href="#DejaVuSans-74" x="685.986328"/>
      <use xlink:href="#DejaVuSans-79" x="725.195312"/>
     </g>
    </g>
   </g>
   <g id="LineCollection_1">
    <path d="M 98.071015 175.41004 
L 146.547589 175.41004 
" clip-path="url(#p0e3f7d6179)" style="fill: none; stroke: #1f77b4; stroke-width: 1.5"/>
    <path d="M 219.262451 82.172176 
L 267.739026 82.172176 
" clip-path="url(#p0e3f7d6179)" style="fill: none; stroke: #1f77b4; stroke-width: 1.5"/>
    <path d="M 325.772411 60.75277 
L 374.248985 60.75277 
" clip-path="url(#p0e3f7d6179)" style="fill: none; stroke: #1f77b4; stroke-width: 1.5"/>
   </g>
   <g id="LineCollection_2">
    <path d="M 98.071015 100.227351 
L 146.547589 100.227351 
" clip-path="url(#p0e3f7d6179)" style="fill: none; stroke: #1f77b4; stroke-width: 1.5"/>
    <path d="M 219.262451 61.45897 
L 267.739026 61.45897 
" clip-path="url(#p0e3f7d6179)" style="fill: none; stroke: #1f77b4; stroke-width: 1.5"/>
    <path d="M 325.772411 53.568 
L 374.248985 53.568 
" clip-path="url(#p0e3f7d6179)" style="fill: none; stroke: #1f77b4; stroke-width: 1.5"/>
   </g>
   <g id="LineCollection_3">
    <path d="M 98.071015 295.488 
L 146.547589 295.488 
" clip-path="url(#p0e3f7d6179)" style="fill: none; stroke: #1f77b4; stroke-width: 1.5"/>
    <path d="M 219.262451 165.555606 
L 267.739026 165.555606 
" clip-path="url(#p0e3f7d6179)" style="fill: none; stroke: #1f77b4; stroke-width: 1.5"/>
    <path d="M 325.772411 98.910432 
L 374.248985 98.910432 
" clip-path="url(#p0e3f7d6179)" style="fill: none; stroke: #1f77b4; stroke-width: 1.5"/>
   </g>
   <g id="LineCollection_4">
    <path d="M 122.309302 295.488 
L 122.309302 100.227351 
" clip-path="url(#p0e3f7d6179)" style="fill: none; stroke: #1f77b4; stroke-width: 1.5"/>
    <path d="M 243.500738 165.555606 
L 243.500738 61.45897 
" clip-path="url(#p0e3f7d6179)" style="fill: none; stroke: #1f77b4; stroke-width: 1.5"/>
    <path d="M 350.010698 98.910432 
L 350.010698 53.568 
" clip-path="url(#p0e3f7d6179)" style="fill: none; stroke: #1f77b4; stroke-width: 1.5"/>
   </g>
   <g id="line2d_21">
    <path d="M 122.309302 175.41004 
L 243.500738 82.172176 
L 350.010698 60.75277 
" clip-path="url(#p0e3f7d6179)" style="fill: none; stroke: #4682b4; stroke-width: 1.5; stroke-linecap: square"/>
   </g>
   <g id="line2d_22">
    <path d="M 122.309302 175.41004 
L 243.500738 82.172176 
L 350.010698 60.75277 
" clip-path="url(#p0e3f7d6179)" style="fill: none; stroke: #4682b4; stroke-width: 1.5; stroke-linecap: square"/>
   </g>
   <g id="patch_3">
    <path d="M 57.6 307.584 
L 57.6 41.472 
" style="fill: none; stroke: #000000; stroke-width: 0.8; stroke-linejoin: miter; stroke-linecap: square"/>
   </g>
   <g id="patch_4">
    <path d="M 414.72 307.584 
L 414.72 41.472 
" style="fill: none; stroke: #000000; stroke-width: 0.8; stroke-linejoin: miter; stroke-linecap: square"/>
   </g>
   <g id="patch_5">
    <path d="M 57.6 307.584 
L 414.72 307.584 
" style="fill: none; stroke: #000000; stroke-width: 0.8; stroke-linejoin: miter; stroke-linecap: square"/>
   </g>
   <g id="patch_6">
    <path d="M 57.6 41.472 
L 414.72 41.472 
" style="fill: none; stroke: #000000; stroke-width: 0.8; stroke-linejoin: miter; stroke-linecap: square"/>
   </g>
   <g id="text_13">
    <!-- Violinplot for progress of profits/by_selling_new -->
    <g transform="translate(94.379063 35.472)scale(0.12 -0.12)">
     <defs>
      <path id="DejaVuSans-56" d="M 1831 0 
L 50 4666 
L 709 4666 
L 2188 738 
L 3669 4666 
L 4325 4666 
L 2547 0 
L 1831 0 
z
" transform="scale(0.015625)"/>
      <path id="DejaVuSans-6c" d="M 603 4863 
L 1178 4863 
L 1178 0 
L 603 0 
L 603 4863 
z
" transform="scale(0.015625)"/>
      <path id="DejaVuSans-66" d="M 2375 4863 
L 2375 4384 
L 1825 4384 
Q 1516 4384 1395 4259 
Q 1275 4134 1275 3809 
L 1275 3500 
L 2222 3500 
L 2222 3053 
L 1275 3053 
L 1275 0 
L 697 0 
L 697 3053 
L 147 3053 
L 147 3500 
L 697 3500 
L 697 3744 
Q 697 4328 969 4595 
Q 1241 4863 1831 4863 
L 2375 4863 
z
" transform="scale(0.015625)"/>
      <path id="DejaVuSans-67" d="M 2906 1791 
Q 2906 2416 2648 2759 
Q 2391 3103 1925 3103 
Q 1463 3103 1205 2759 
Q 947 2416 947 1791 
Q 947 1169 1205 825 
Q 1463 481 1925 481 
Q 2391 481 2648 825 
Q 2906 1169 2906 1791 
z
M 3481 434 
Q 3481 -459 3084 -895 
Q 2688 -1331 1869 -1331 
Q 1566 -1331 1297 -1286 
Q 1028 -1241 775 -1147 
L 775 -588 
Q 1028 -725 1275 -790 
Q 1522 -856 1778 -856 
Q 2344 -856 2625 -561 
Q 2906 -266 2906 331 
L 2906 616 
Q 2728 306 2450 153 
Q 2172 0 1784 0 
Q 1141 0 747 490 
Q 353 981 353 1791 
Q 353 2603 747 3093 
Q 1141 3584 1784 3584 
Q 2172 3584 2450 3431 
Q 2728 3278 2906 2969 
L 2906 3500 
L 3481 3500 
L 3481 434 
z
" transform="scale(0.015625)"/>
      <path id="DejaVuSans-2f" d="M 1625 4666 
L 2156 4666 
L 531 -594 
L 0 -594 
L 1625 4666 
z
" transform="scale(0.015625)"/>
      <path id="DejaVuSans-62" d="M 3116 1747 
Q 3116 2381 2855 2742 
Q 2594 3103 2138 3103 
Q 1681 3103 1420 2742 
Q 1159 2381 1159 1747 
Q 1159 1113 1420 752 
Q 1681 391 2138 391 
Q 2594 391 2855 752 
Q 3116 1113 3116 1747 
z
M 1159 2969 
Q 1341 3281 1617 3432 
Q 1894 3584 2278 3584 
Q 2916 3584 3314 3078 
Q 3713 2572 3713 1747 
Q 3713 922 3314 415 
Q 2916 -91 2278 -91 
Q 1894 -91 1617 61 
Q 1341 213 1159 525 
L 1159 0 
L 581 0 
L 581 4863 
L 1159 4863 
L 1159 2969 
z
" transform="scale(0.015625)"/>
      <path id="DejaVuSans-5f" d="M 3263 -1063 
L 3263 -1509 
L -63 -1509 
L -63 -1063 
L 3263 -1063 
z
" transform="scale(0.015625)"/>
     </defs>
     <use xlink:href="#DejaVuSans-56"/>
     <use xlink:href="#DejaVuSans-69" x="66.158203"/>
     <use xlink:href="#DejaVuSans-6f" x="93.941406"/>
     <use xlink:href="#DejaVuSans-6c" x="155.123047"/>
     <use xlink:href="#DejaVuSans-69" x="182.90625"/>
     <use xlink:href="#DejaVuSans-6e" x="210.689453"/>
     <use xlink:href="#DejaVuSans-70" x="274.068359"/>
     <use xlink:href="#DejaVuSans-6c" x="337.544922"/>
     <use xlink:href="#DejaVuSans-6f" x="365.328125"/>
     <use xlink:href="#DejaVuSans-74" x="426.509766"/>
     <use xlink:href="#DejaVuSans-20" x="465.71875"/>
     <use xlink:href="#DejaVuSans-66" x="497.505859"/>
     <use xlink:href="#DejaVuSans-6f" x="532.710938"/>
     <use xlink:href="#DejaVuSans-72" x="593.892578"/>
     <use xlink:href="#DejaVuSans-20" x="635.005859"/>
     <use xlink:href="#DejaVuSans-70" x="666.792969"/>
     <use xlink:href="#DejaVuSans-72" x="730.269531"/>
     <use xlink:href="#DejaVuSans-6f" x="769.132812"/>
     <use xlink:href="#DejaVuSans-67" x="830.314453"/>
     <use xlink:href="#DejaVuSans-72" x="893.791016"/>
     <use xlink:href="#DejaVuSans-65" x="932.654297"/>
     <use xlink:href="#DejaVuSans-73" x="994.177734"/>
     <use xlink:href="#DejaVuSans-73" x="1046.277344"/>
     <use xlink:href="#DejaVuSans-20" x="1098.376953"/>
     <use xlink:href="#DejaVuSans-6f" x="1130.164062"/>
     <use xlink:href="#DejaVuSans-66" x="1191.345703"/>
     <use xlink:href="#DejaVuSans-20" x="1226.550781"/>
     <use xlink:href="#DejaVuSans-70" x="1258.337891"/>
     <use xlink:href="#DejaVuSans-72" x="1321.814453"/>
     <use xlink:href="#DejaVuSans-6f" x="1360.677734"/>
     <use xlink:href="#DejaVuSans-66" x="1421.859375"/>
     <use xlink:href="#DejaVuSans-69" x="1457.064453"/>
     <use xlink:href="#DejaVuSans-74" x="1484.847656"/>
     <use xlink:href="#DejaVuSans-73" x="1524.056641"/>
     <use xlink:href="#DejaVuSans-2f" x="1576.15625"/>
     <use xlink:href="#DejaVuSans-62" x="1609.847656"/>
     <use xlink:href="#DejaVuSans-79" x="1673.324219"/>
     <use xlink:href="#DejaVuSans-5f" x="1732.503906"/>
     <use xlink:href="#DejaVuSans-73" x="1782.503906"/>
     <use xlink:href="#DejaVuSans-65" x="1834.603516"/>
     <use xlink:href="#DejaVuSans-6c" x="1896.126953"/>
     <use xlink:href="#DejaVuSans-6c" x="1923.910156"/>
     <use xlink:href="#DejaVuSans-69" x="1951.693359"/>
     <use xlink:href="#DejaVuSans-6e" x="1979.476562"/>
     <use xlink:href="#DejaVuSans-67" x="2042.855469"/>
     <use xlink:href="#DejaVuSans-5f" x="2106.332031"/>
     <use xlink:href="#DejaVuSans-6e" x="2156.332031"/>
     <use xlink:href="#DejaVuSans-65" x="2219.710938"/>
     <use xlink:href="#DejaVuSans-77" x="2281.234375"/>
    </g>
   </g>
   <g id="legend_1">
    <g id="patch_7">
     <path d="M 64.6 64.150125 
L 195.815625 64.150125 
Q 197.815625 64.150125 197.815625 62.150125 
L 197.815625 48.472 
Q 197.815625 46.472 195.815625 46.472 
L 64.6 46.472 
Q 62.6 46.472 62.6 48.472 
L 62.6 62.150125 
Q 62.6 64.150125 64.6 64.150125 
z
" style="fill: #ffffff; opacity: 0.8; stroke: #cccccc; stroke-linejoin: miter"/>
    </g>
    <g id="line2d_23">
     <path d="M 66.6 54.570438 
L 76.6 54.570438 
L 86.6 54.570438 
" style="fill: none; stroke: #4682b4; stroke-width: 1.5; stroke-linecap: square"/>
    </g>
    <g id="text_14">
     <!-- StableBaselinesPPO -->
     <g transform="translate(94.6 58.070438)scale(0.1 -0.1)">
      <defs>
       <path id="DejaVuSans-53" d="M 3425 4513 
L 3425 3897 
Q 3066 4069 2747 4153 
Q 2428 4238 2131 4238 
Q 1616 4238 1336 4038 
Q 1056 3838 1056 3469 
Q 1056 3159 1242 3001 
Q 1428 2844 1947 2747 
L 2328 2669 
Q 3034 2534 3370 2195 
Q 3706 1856 3706 1288 
Q 3706 609 3251 259 
Q 2797 -91 1919 -91 
Q 1588 -91 1214 -16 
Q 841 59 441 206 
L 441 856 
Q 825 641 1194 531 
Q 1563 422 1919 422 
Q 2459 422 2753 634 
Q 3047 847 3047 1241 
Q 3047 1584 2836 1778 
Q 2625 1972 2144 2069 
L 1759 2144 
Q 1053 2284 737 2584 
Q 422 2884 422 3419 
Q 422 4038 858 4394 
Q 1294 4750 2059 4750 
Q 2388 4750 2728 4690 
Q 3069 4631 3425 4513 
z
" transform="scale(0.015625)"/>
       <path id="DejaVuSans-42" d="M 1259 2228 
L 1259 519 
L 2272 519 
Q 2781 519 3026 730 
Q 3272 941 3272 1375 
Q 3272 1813 3026 2020 
Q 2781 2228 2272 2228 
L 1259 2228 
z
M 1259 4147 
L 1259 2741 
L 2194 2741 
Q 2656 2741 2882 2914 
Q 3109 3088 3109 3444 
Q 3109 3797 2882 3972 
Q 2656 4147 2194 4147 
L 1259 4147 
z
M 628 4666 
L 2241 4666 
Q 2963 4666 3353 4366 
Q 3744 4066 3744 3513 
Q 3744 3084 3544 2831 
Q 3344 2578 2956 2516 
Q 3422 2416 3680 2098 
Q 3938 1781 3938 1306 
Q 3938 681 3513 340 
Q 3088 0 2303 0 
L 628 0 
L 628 4666 
z
" transform="scale(0.015625)"/>
       <path id="DejaVuSans-50" d="M 1259 4147 
L 1259 2394 
L 2053 2394 
Q 2494 2394 2734 2622 
Q 2975 2850 2975 3272 
Q 2975 3691 2734 3919 
Q 2494 4147 2053 4147 
L 1259 4147 
z
M 628 4666 
L 2053 4666 
Q 2838 4666 3239 4311 
Q 3641 3956 3641 3272 
Q 3641 2581 3239 2228 
Q 2838 1875 2053 1875 
L 1259 1875 
L 1259 0 
L 628 0 
L 628 4666 
z
" transform="scale(0.015625)"/>
       <path id="DejaVuSans-4f" d="M 2522 4238 
Q 1834 4238 1429 3725 
Q 1025 3213 1025 2328 
Q 1025 1447 1429 934 
Q 1834 422 2522 422 
Q 3209 422 3611 934 
Q 4013 1447 4013 2328 
Q 4013 3213 3611 3725 
Q 3209 4238 2522 4238 
z
M 2522 4750 
Q 3503 4750 4090 4092 
Q 4678 3434 4678 2328 
Q 4678 1225 4090 567 
Q 3503 -91 2522 -91 
Q 1538 -91 948 565 
Q 359 1222 359 2328 
Q 359 3434 948 4092 
Q 1538 4750 2522 4750 
z
" transform="scale(0.015625)"/>
      </defs>
      <use xlink:href="#DejaVuSans-53"/>
      <use xlink:href="#DejaVuSans-74" x="63.476562"/>
      <use xlink:href="#DejaVuSans-61" x="102.685547"/>
      <use xlink:href="#DejaVuSans-62" x="163.964844"/>
      <use xlink:href="#DejaVuSans-6c" x="227.441406"/>
      <use xlink:href="#DejaVuSans-65" x="255.224609"/>
      <use xlink:href="#DejaVuSans-42" x="316.748047"/>
      <use xlink:href="#DejaVuSans-61" x="385.351562"/>
      <use xlink:href="#DejaVuSans-73" x="446.630859"/>
      <use xlink:href="#DejaVuSans-65" x="498.730469"/>
      <use xlink:href="#DejaVuSans-6c" x="560.253906"/>
      <use xlink:href="#DejaVuSans-69" x="588.037109"/>
      <use xlink:href="#DejaVuSans-6e" x="615.820312"/>
      <use xlink:href="#DejaVuSans-65" x="679.199219"/>
      <use xlink:href="#DejaVuSans-73" x="740.722656"/>
      <use xlink:href="#DejaVuSans-50" x="792.822266"/>
      <use xlink:href="#DejaVuSans-50" x="853.125"/>
      <use xlink:href="#DejaVuSans-4f" x="913.427734"/>
     </g>
    </g>
   </g>
  </g>
 </g>
 <defs>
  <clipPath id="p0e3f7d6179">
   <rect x="57.6" y="41.472" width="357.12" height="266.112"/>
  </clipPath>
 </defs>
</svg>
