<?xml version="1.0" encoding="utf-8" standalone="no"?>
<!DOCTYPE svg PUBLIC "-//W3C//DTD SVG 1.1//EN"
  "http://www.w3.org/Graphics/SVG/1.1/DTD/svg11.dtd">
<svg xmlns:xlink="http://www.w3.org/1999/xlink" width="460.8pt" height="345.6pt" viewBox="0 0 460.8 345.6" xmlns="http://www.w3.org/2000/svg" version="1.1">
 <metadata>
  <rdf:RDF xmlns:dc="http://purl.org/dc/elements/1.1/" xmlns:cc="http://creativecommons.org/ns#" xmlns:rdf="http://www.w3.org/1999/02/22-rdf-syntax-ns#">
   <cc:Work>
    <dc:type rdf:resource="http://purl.org/dc/dcmitype/StillImage"/>
    <dc:date>2022-06-21T22:14:27.352432</dc:date>
    <dc:format>image/svg+xml</dc:format>
    <dc:creator>
     <cc:Agent>
      <dc:title>Matplotlib v3.5.2, https://matplotlib.org/</dc:title>
     </cc:Agent>
    </dc:creator>
   </cc:Work>
  </rdf:RDF>
 </metadata>
 <defs>
  <style type="text/css">*{stroke-linejoin: round; stroke-linecap: butt}</style>
 </defs>
 <g id="figure_1">
  <g id="patch_1">
   <path d="M 0 345.6 
L 460.8 345.6 
L 460.8 0 
L 0 0 
z
" style="fill: #ffffff"/>
  </g>
  <g id="axes_1">
   <g id="patch_2">
    <path d="M 57.6 307.584 
L 414.72 307.584 
L 414.72 41.472 
L 57.6 41.472 
z
" style="fill: #ffffff"/>
   </g>
   <g id="PolyCollection_1">
    <path d="M 134.65731 295.488 
L 109.961293 295.488 
L 108.343082 293.808 
L 106.631881 292.128 
L 104.82671 290.448 
L 102.933254 288.768 
L 100.96454 287.088 
L 98.938848 285.408 
L 96.875535 283.728 
L 94.790511 282.048 
L 92.693491 280.368 
L 90.588719 278.688 
L 88.479513 277.008 
L 86.375296 275.328 
L 84.298409 273.648 
L 82.287608 271.968 
L 80.396029 270.288 
L 78.683374 268.608 
L 77.204359 266.928 
L 75.997156 265.248 
L 75.075892 263.568 
L 74.429977 261.888 
L 74.030573 260.208 
L 73.841832 258.528 
L 73.832727 256.848 
L 73.985133 255.168 
L 74.295348 253.488 
L 74.76892 251.808 
L 75.411236 250.128 
L 76.217926 248.448 
L 77.168971 246.768 
L 78.228726 245.088 
L 79.351575 243.408 
L 80.490749 241.728 
L 81.606844 240.048 
L 82.673096 238.368 
L 83.676176 236.688 
L 84.6133 235.008 
L 85.487915 233.328 
L 86.306459 231.648 
L 87.07771 229.968 
L 87.81463 228.288 
L 88.537057 226.608 
L 89.272983 224.928 
L 90.056675 223.248 
L 90.923283 221.568 
L 91.901273 219.888 
L 93.005114 218.208 
L 94.230808 216.528 
L 95.555895 214.848 
L 96.94396 213.168 
L 98.35215 211.488 
L 99.739274 209.808 
L 101.072122 208.128 
L 102.328571 206.448 
L 103.497357 204.768 
L 104.57552 203.088 
L 105.565138 201.408 
L 106.470752 199.728 
L 107.298183 198.048 
L 108.054588 196.368 
L 108.748995 194.688 
L 109.392429 193.008 
L 109.997131 191.328 
L 110.574917 189.648 
L 111.135295 187.968 
L 111.684099 186.288 
L 112.223243 184.608 
L 112.751675 182.928 
L 113.267137 181.248 
L 113.767972 179.568 
L 114.254259 177.888 
L 114.727879 176.208 
L 115.191551 174.528 
L 115.647316 172.848 
L 116.095131 171.168 
L 116.532124 169.488 
L 116.952775 167.808 
L 117.34992 166.128 
L 117.7162 164.448 
L 118.045471 162.768 
L 118.333825 161.088 
L 118.58006 159.408 
L 118.785661 157.728 
L 118.954507 156.048 
L 119.092477 154.368 
L 119.20707 152.688 
L 119.307011 151.008 
L 119.401722 149.328 
L 119.500585 147.648 
L 119.611989 145.968 
L 119.742292 144.288 
L 119.894939 142.608 
L 120.069968 140.928 
L 120.264086 139.248 
L 120.471319 137.568 
L 120.684091 135.888 
L 120.894499 134.208 
L 121.095466 132.528 
L 121.281574 130.848 
L 121.449431 129.168 
L 123.169173 129.168 
L 123.169173 129.168 
L 123.33703 130.848 
L 123.523138 132.528 
L 123.724105 134.208 
L 123.934512 135.888 
L 124.147285 137.568 
L 124.354517 139.248 
L 124.548636 140.928 
L 124.723665 142.608 
L 124.876311 144.288 
L 125.006615 145.968 
L 125.118019 147.648 
L 125.216882 149.328 
L 125.311593 151.008 
L 125.411534 152.688 
L 125.526127 154.368 
L 125.664097 156.048 
L 125.832942 157.728 
L 126.038544 159.408 
L 126.284779 161.088 
L 126.573133 162.768 
L 126.902404 164.448 
L 127.268683 166.128 
L 127.665829 167.808 
L 128.08648 169.488 
L 128.523473 171.168 
L 128.971288 172.848 
L 129.427053 174.528 
L 129.890724 176.208 
L 130.364345 177.888 
L 130.850632 179.568 
L 131.351466 181.248 
L 131.866929 182.928 
L 132.395361 184.608 
L 132.934504 186.288 
L 133.483309 187.968 
L 134.043687 189.648 
L 134.621473 191.328 
L 135.226175 193.008 
L 135.869609 194.688 
L 136.564016 196.368 
L 137.320421 198.048 
L 138.147852 199.728 
L 139.053465 201.408 
L 140.043084 203.088 
L 141.121246 204.768 
L 142.290032 206.448 
L 143.546482 208.128 
L 144.879329 209.808 
L 146.266453 211.488 
L 147.674644 213.168 
L 149.062709 214.848 
L 150.387796 216.528 
L 151.61349 218.208 
L 152.71733 219.888 
L 153.695321 221.568 
L 154.561929 223.248 
L 155.345621 224.928 
L 156.081547 226.608 
L 156.803974 228.288 
L 157.540894 229.968 
L 158.312145 231.648 
L 159.130688 233.328 
L 160.005304 235.008 
L 160.942428 236.688 
L 161.945508 238.368 
L 163.01176 240.048 
L 164.127855 241.728 
L 165.267028 243.408 
L 166.389878 245.088 
L 167.449633 246.768 
L 168.400678 248.448 
L 169.207368 250.128 
L 169.849684 251.808 
L 170.323256 253.488 
L 170.633471 255.168 
L 170.785877 256.848 
L 170.776772 258.528 
L 170.588031 260.208 
L 170.188627 261.888 
L 169.542712 263.568 
L 168.621448 265.248 
L 167.414245 266.928 
L 165.93523 268.608 
L 164.222575 270.288 
L 162.330996 271.968 
L 160.320195 273.648 
L 158.243308 275.328 
L 156.13909 277.008 
L 154.029884 278.688 
L 151.925113 280.368 
L 149.828093 282.048 
L 147.743068 283.728 
L 145.679756 285.408 
L 143.654063 287.088 
L 141.68535 288.768 
L 139.791894 290.448 
L 137.986722 292.128 
L 136.275521 293.808 
L 134.65731 295.488 
z
" clip-path="url(#pd5d1b94b3f)" style="fill: #1f77b4; fill-opacity: 0.3"/>
   </g>
   <g id="PolyCollection_2">
    <path d="M 252.204257 295.488 
L 234.79722 295.488 
L 233.017467 293.044364 
L 231.065488 290.600727 
L 228.953175 288.157091 
L 226.700047 285.713455 
L 224.329067 283.269818 
L 221.862004 280.826182 
L 219.318859 278.382545 
L 216.723053 275.938909 
L 214.10905 273.495273 
L 211.525766 271.051636 
L 209.031023 268.608 
L 206.678709 266.164364 
L 204.506451 263.720727 
L 202.532263 261.277091 
L 200.762383 258.833455 
L 199.204021 256.389818 
L 197.872898 253.946182 
L 196.789776 251.502545 
L 195.969386 249.058909 
L 195.411551 246.615273 
L 195.102321 244.171636 
L 195.024164 241.728 
L 195.166188 239.284364 
L 195.525027 236.840727 
L 196.094819 234.397091 
L 196.854038 231.953455 
L 197.759872 229.509818 
L 198.7552 227.066182 
L 199.783982 224.622545 
L 200.805779 222.178909 
L 201.802764 219.735273 
L 202.779503 217.291636 
L 203.7604 214.848 
L 204.788042 212.404364 
L 205.920338 209.960727 
L 207.221367 207.517091 
L 208.743957 205.073455 
L 210.509131 202.629818 
L 212.492545 200.186182 
L 214.62605 197.742545 
L 216.814598 195.298909 
L 218.960483 192.855273 
L 220.984024 190.411636 
L 222.833711 187.968 
L 224.485709 185.524364 
L 225.937525 183.080727 
L 227.201 180.637091 
L 228.297023 178.193455 
L 229.251658 175.749818 
L 230.092847 173.306182 
L 230.847787 170.862545 
L 231.541791 168.418909 
L 232.198674 165.975273 
L 232.841375 163.531636 
L 233.491057 161.088 
L 234.164174 158.644364 
L 234.868943 156.200727 
L 235.603631 153.757091 
L 236.358102 151.313455 
L 237.117937 148.869818 
L 237.868734 146.426182 
L 238.598267 143.982545 
L 239.295869 141.538909 
L 239.950324 139.095273 
L 240.548446 136.651636 
L 241.075827 134.208 
L 241.519745 131.764364 
L 241.872869 129.320727 
L 242.136088 126.877091 
L 242.31929 124.433455 
L 242.439872 121.989818 
L 242.519512 119.546182 
L 242.580166 117.102545 
L 242.640272 114.658909 
L 242.712003 112.215273 
L 242.800121 109.771636 
L 242.902584 107.328 
L 243.012572 104.884364 
L 243.121239 102.440727 
L 243.220357 99.997091 
L 243.304148 97.553455 
L 243.370011 95.109818 
L 243.418234 92.666182 
L 243.451069 90.222545 
L 243.471615 87.778909 
L 243.482859 85.335273 
L 243.487037 82.891636 
L 243.485337 80.448 
L 243.477893 78.004364 
L 243.464021 75.560727 
L 243.442635 73.117091 
L 243.41285 70.673455 
L 243.374654 68.229818 
L 243.329534 65.786182 
L 243.280817 63.342545 
L 243.23352 60.898909 
L 243.193626 58.455273 
L 243.166885 56.011636 
L 243.157463 53.568 
L 243.844013 53.568 
L 243.844013 53.568 
L 243.834592 56.011636 
L 243.80785 58.455273 
L 243.767957 60.898909 
L 243.72066 63.342545 
L 243.671942 65.786182 
L 243.626823 68.229818 
L 243.588627 70.673455 
L 243.558842 73.117091 
L 243.537456 75.560727 
L 243.523583 78.004364 
L 243.51614 80.448 
L 243.514439 82.891636 
L 243.518618 85.335273 
L 243.529862 87.778909 
L 243.550408 90.222545 
L 243.583243 92.666182 
L 243.631466 95.109818 
L 243.697329 97.553455 
L 243.78112 99.997091 
L 243.880238 102.440727 
L 243.988905 104.884364 
L 244.098893 107.328 
L 244.201356 109.771636 
L 244.289474 112.215273 
L 244.361205 114.658909 
L 244.421311 117.102545 
L 244.481965 119.546182 
L 244.561605 121.989818 
L 244.682187 124.433455 
L 244.865389 126.877091 
L 245.128608 129.320727 
L 245.481732 131.764364 
L 245.92565 134.208 
L 246.453031 136.651636 
L 247.051153 139.095273 
L 247.705608 141.538909 
L 248.40321 143.982545 
L 249.132743 146.426182 
L 249.88354 148.869818 
L 250.643375 151.313455 
L 251.397846 153.757091 
L 252.132533 156.200727 
L 252.837303 158.644364 
L 253.51042 161.088 
L 254.160102 163.531636 
L 254.802803 165.975273 
L 255.459686 168.418909 
L 256.15369 170.862545 
L 256.90863 173.306182 
L 257.749819 175.749818 
L 258.704454 178.193455 
L 259.800477 180.637091 
L 261.063952 183.080727 
L 262.515768 185.524364 
L 264.167766 187.968 
L 266.017453 190.411636 
L 268.040994 192.855273 
L 270.186879 195.298909 
L 272.375427 197.742545 
L 274.508932 200.186182 
L 276.492346 202.629818 
L 278.25752 205.073455 
L 279.780109 207.517091 
L 281.081139 209.960727 
L 282.213435 212.404364 
L 283.241077 214.848 
L 284.221974 217.291636 
L 285.198713 219.735273 
L 286.195697 222.178909 
L 287.217495 224.622545 
L 288.246277 227.066182 
L 289.241605 229.509818 
L 290.147439 231.953455 
L 290.906658 234.397091 
L 291.47645 236.840727 
L 291.835289 239.284364 
L 291.977313 241.728 
L 291.899156 244.171636 
L 291.589926 246.615273 
L 291.032091 249.058909 
L 290.211701 251.502545 
L 289.128579 253.946182 
L 287.797456 256.389818 
L 286.239094 258.833455 
L 284.469214 261.277091 
L 282.495025 263.720727 
L 280.322768 266.164364 
L 277.970454 268.608 
L 275.475711 271.051636 
L 272.892426 273.495273 
L 270.278424 275.938909 
L 267.682618 278.382545 
L 265.139472 280.826182 
L 262.67241 283.269818 
L 260.30143 285.713455 
L 258.048302 288.157091 
L 255.935989 290.600727 
L 253.98401 293.044364 
L 252.204257 295.488 
z
" clip-path="url(#pd5d1b94b3f)" style="fill: #1f77b4; fill-opacity: 0.3"/>
   </g>
   <g id="PolyCollection_3">
    <path d="M 356.137267 295.488 
L 343.884129 295.488 
L 342.695893 293.349818 
L 341.407235 291.211636 
L 340.039721 289.073455 
L 338.619481 286.935273 
L 337.174266 284.797091 
L 335.730044 282.658909 
L 334.307914 280.520727 
L 332.92204 278.382545 
L 331.57895 276.244364 
L 330.278085 274.106182 
L 329.013135 271.968 
L 327.773605 269.829818 
L 326.546165 267.691636 
L 325.3157 265.553455 
L 324.066171 263.415273 
L 322.78154 261.277091 
L 321.4469 259.138909 
L 320.049808 257.000727 
L 318.581749 254.862545 
L 317.039602 252.724364 
L 315.427079 250.586182 
L 313.756026 248.448 
L 312.047396 246.309818 
L 310.331491 244.171636 
L 308.647083 242.033455 
L 307.039241 239.895273 
L 305.556138 237.757091 
L 304.245557 235.618909 
L 303.151952 233.480727 
L 302.31459 231.342545 
L 301.766602 229.204364 
L 301.534123 227.066182 
L 301.634466 224.928 
L 302.072731 222.789818 
L 302.83728 220.651636 
L 303.895491 218.513455 
L 305.191814 216.375273 
L 306.649826 214.237091 
L 308.17895 212.098909 
L 309.685091 209.960727 
L 311.083249 207.822545 
L 312.309568 205.684364 
L 313.330412 203.546182 
L 314.146704 201.408 
L 314.792755 199.269818 
L 315.329732 197.131636 
L 315.834876 194.993455 
L 316.388282 192.855273 
L 317.059599 190.717091 
L 317.897066 188.578909 
L 318.920936 186.440727 
L 320.122365 184.302545 
L 321.467589 182.164364 
L 322.906027 180.026182 
L 324.380171 177.888 
L 325.835011 175.749818 
L 327.225302 173.611636 
L 328.519773 171.473455 
L 329.702302 169.335273 
L 330.770669 167.197091 
L 331.733745 165.058909 
L 332.608004 162.920727 
L 333.41404 160.782545 
L 334.173602 158.644364 
L 334.907398 156.506182 
L 335.633732 154.368 
L 336.367795 152.229818 
L 337.121289 150.091636 
L 337.902054 147.953455 
L 338.713504 145.815273 
L 339.553939 143.677091 
L 340.416043 141.538909 
L 341.286961 139.400727 
L 342.149275 137.262545 
L 342.9829 135.124364 
L 343.767621 132.986182 
L 344.485754 130.848 
L 345.124345 128.709818 
L 345.676499 126.571636 
L 346.141631 124.433455 
L 346.524744 122.295273 
L 346.835016 120.157091 
L 347.084074 118.018909 
L 347.284312 115.880727 
L 347.447524 113.742545 
L 347.583983 111.604364 
L 347.702016 109.466182 
L 347.807969 107.328 
L 347.906467 105.189818 
L 348.000798 103.051636 
L 348.093314 100.913455 
L 348.185765 98.775273 
L 348.279526 96.637091 
L 348.375742 94.498909 
L 348.475382 92.360727 
L 348.579233 90.222545 
L 348.687821 88.084364 
L 348.801283 85.946182 
L 348.919211 83.808 
L 351.102185 83.808 
L 351.102185 83.808 
L 351.220114 85.946182 
L 351.333576 88.084364 
L 351.442163 90.222545 
L 351.546014 92.360727 
L 351.645655 94.498909 
L 351.74187 96.637091 
L 351.835631 98.775273 
L 351.928082 100.913455 
L 352.020598 103.051636 
L 352.114929 105.189818 
L 352.213427 107.328 
L 352.31938 109.466182 
L 352.437413 111.604364 
L 352.573872 113.742545 
L 352.737084 115.880727 
L 352.937322 118.018909 
L 353.18638 120.157091 
L 353.496652 122.295273 
L 353.879765 124.433455 
L 354.344897 126.571636 
L 354.897051 128.709818 
L 355.535642 130.848 
L 356.253775 132.986182 
L 357.038497 135.124364 
L 357.872121 137.262545 
L 358.734435 139.400727 
L 359.605353 141.538909 
L 360.467457 143.677091 
L 361.307893 145.815273 
L 362.119342 147.953455 
L 362.900107 150.091636 
L 363.653602 152.229818 
L 364.387664 154.368 
L 365.113998 156.506182 
L 365.847794 158.644364 
L 366.607356 160.782545 
L 367.413393 162.920727 
L 368.287651 165.058909 
L 369.250727 167.197091 
L 370.319094 169.335273 
L 371.501623 171.473455 
L 372.796094 173.611636 
L 374.186385 175.749818 
L 375.641226 177.888 
L 377.115369 180.026182 
L 378.553807 182.164364 
L 379.899031 184.302545 
L 381.10046 186.440727 
L 382.12433 188.578909 
L 382.961797 190.717091 
L 383.633114 192.855273 
L 384.186521 194.993455 
L 384.691664 197.131636 
L 385.228641 199.269818 
L 385.874692 201.408 
L 386.690985 203.546182 
L 387.711828 205.684364 
L 388.938147 207.822545 
L 390.336305 209.960727 
L 391.842446 212.098909 
L 393.37157 214.237091 
L 394.829582 216.375273 
L 396.125905 218.513455 
L 397.184116 220.651636 
L 397.948665 222.789818 
L 398.386931 224.928 
L 398.487273 227.066182 
L 398.254795 229.204364 
L 397.706806 231.342545 
L 396.869444 233.480727 
L 395.775839 235.618909 
L 394.465258 237.757091 
L 392.982155 239.895273 
L 391.374314 242.033455 
L 389.689905 244.171636 
L 387.974 246.309818 
L 386.26537 248.448 
L 384.594318 250.586182 
L 382.981794 252.724364 
L 381.439648 254.862545 
L 379.971588 257.000727 
L 378.574497 259.138909 
L 377.239856 261.277091 
L 375.955226 263.415273 
L 374.705697 265.553455 
L 373.475231 267.691636 
L 372.247791 269.829818 
L 371.008261 271.968 
L 369.743312 274.106182 
L 368.442446 276.244364 
L 367.099356 278.382545 
L 365.713483 280.520727 
L 364.291352 282.658909 
L 362.84713 284.797091 
L 361.401916 286.935273 
L 359.981675 289.073455 
L 358.614161 291.211636 
L 357.325503 293.349818 
L 356.137267 295.488 
z
" clip-path="url(#pd5d1b94b3f)" style="fill: #1f77b4; fill-opacity: 0.3"/>
   </g>
   <g id="matplotlib.axis_1">
    <g id="xtick_1">
     <g id="line2d_1">
      <path d="M 70.370115 307.584 
L 70.370115 41.472 
" clip-path="url(#pd5d1b94b3f)" style="fill: none; stroke-dasharray: 2.96,1.28; stroke-dashoffset: 0; stroke: #b0b0b0; stroke-width: 0.8"/>
     </g>
     <g id="line2d_2">
      <defs>
       <path id="m09af989c57" d="M 0 0 
L 0 3.5 
" style="stroke: #000000; stroke-width: 0.8"/>
      </defs>
      <g>
       <use xlink:href="#m09af989c57" x="70.370115" y="307.584" style="stroke: #000000; stroke-width: 0.8"/>
      </g>
     </g>
     <g id="text_1">
      <!-- 1000 -->
      <g transform="translate(57.645115 322.182437)scale(0.1 -0.1)">
       <defs>
        <path id="DejaVuSans-31" d="M 794 531 
L 1825 531 
L 1825 4091 
L 703 3866 
L 703 4441 
L 1819 4666 
L 2450 4666 
L 2450 531 
L 3481 531 
L 3481 0 
L 794 0 
L 794 531 
z
" transform="scale(0.015625)"/>
        <path id="DejaVuSans-30" d="M 2034 4250 
Q 1547 4250 1301 3770 
Q 1056 3291 1056 2328 
Q 1056 1369 1301 889 
Q 1547 409 2034 409 
Q 2525 409 2770 889 
Q 3016 1369 3016 2328 
Q 3016 3291 2770 3770 
Q 2525 4250 2034 4250 
z
M 2034 4750 
Q 2819 4750 3233 4129 
Q 3647 3509 3647 2328 
Q 3647 1150 3233 529 
Q 2819 -91 2034 -91 
Q 1250 -91 836 529 
Q 422 1150 422 2328 
Q 422 3509 836 4129 
Q 1250 4750 2034 4750 
z
" transform="scale(0.015625)"/>
       </defs>
       <use xlink:href="#DejaVuSans-31"/>
       <use xlink:href="#DejaVuSans-30" x="63.623047"/>
       <use xlink:href="#DejaVuSans-30" x="127.246094"/>
       <use xlink:href="#DejaVuSans-30" x="190.869141"/>
      </g>
     </g>
    </g>
    <g id="xtick_2">
     <g id="line2d_3">
      <path d="M 139.622364 307.584 
L 139.622364 41.472 
" clip-path="url(#pd5d1b94b3f)" style="fill: none; stroke-dasharray: 2.96,1.28; stroke-dashoffset: 0; stroke: #b0b0b0; stroke-width: 0.8"/>
     </g>
     <g id="line2d_4">
      <g>
       <use xlink:href="#m09af989c57" x="139.622364" y="307.584" style="stroke: #000000; stroke-width: 0.8"/>
      </g>
     </g>
     <g id="text_2">
      <!-- 2000 -->
      <g transform="translate(126.897364 322.182437)scale(0.1 -0.1)">
       <defs>
        <path id="DejaVuSans-32" d="M 1228 531 
L 3431 531 
L 3431 0 
L 469 0 
L 469 531 
Q 828 903 1448 1529 
Q 2069 2156 2228 2338 
Q 2531 2678 2651 2914 
Q 2772 3150 2772 3378 
Q 2772 3750 2511 3984 
Q 2250 4219 1831 4219 
Q 1534 4219 1204 4116 
Q 875 4013 500 3803 
L 500 4441 
Q 881 4594 1212 4672 
Q 1544 4750 1819 4750 
Q 2544 4750 2975 4387 
Q 3406 4025 3406 3419 
Q 3406 3131 3298 2873 
Q 3191 2616 2906 2266 
Q 2828 2175 2409 1742 
Q 1991 1309 1228 531 
z
" transform="scale(0.015625)"/>
       </defs>
       <use xlink:href="#DejaVuSans-32"/>
       <use xlink:href="#DejaVuSans-30" x="63.623047"/>
       <use xlink:href="#DejaVuSans-30" x="127.246094"/>
       <use xlink:href="#DejaVuSans-30" x="190.869141"/>
      </g>
     </g>
    </g>
    <g id="xtick_3">
     <g id="line2d_5">
      <path d="M 208.874614 307.584 
L 208.874614 41.472 
" clip-path="url(#pd5d1b94b3f)" style="fill: none; stroke-dasharray: 2.96,1.28; stroke-dashoffset: 0; stroke: #b0b0b0; stroke-width: 0.8"/>
     </g>
     <g id="line2d_6">
      <g>
       <use xlink:href="#m09af989c57" x="208.874614" y="307.584" style="stroke: #000000; stroke-width: 0.8"/>
      </g>
     </g>
     <g id="text_3">
      <!-- 3000 -->
      <g transform="translate(196.149614 322.182437)scale(0.1 -0.1)">
       <defs>
        <path id="DejaVuSans-33" d="M 2597 2516 
Q 3050 2419 3304 2112 
Q 3559 1806 3559 1356 
Q 3559 666 3084 287 
Q 2609 -91 1734 -91 
Q 1441 -91 1130 -33 
Q 819 25 488 141 
L 488 750 
Q 750 597 1062 519 
Q 1375 441 1716 441 
Q 2309 441 2620 675 
Q 2931 909 2931 1356 
Q 2931 1769 2642 2001 
Q 2353 2234 1838 2234 
L 1294 2234 
L 1294 2753 
L 1863 2753 
Q 2328 2753 2575 2939 
Q 2822 3125 2822 3475 
Q 2822 3834 2567 4026 
Q 2313 4219 1838 4219 
Q 1578 4219 1281 4162 
Q 984 4106 628 3988 
L 628 4550 
Q 988 4650 1302 4700 
Q 1616 4750 1894 4750 
Q 2613 4750 3031 4423 
Q 3450 4097 3450 3541 
Q 3450 3153 3228 2886 
Q 3006 2619 2597 2516 
z
" transform="scale(0.015625)"/>
       </defs>
       <use xlink:href="#DejaVuSans-33"/>
       <use xlink:href="#DejaVuSans-30" x="63.623047"/>
       <use xlink:href="#DejaVuSans-30" x="127.246094"/>
       <use xlink:href="#DejaVuSans-30" x="190.869141"/>
      </g>
     </g>
    </g>
    <g id="xtick_4">
     <g id="line2d_7">
      <path d="M 278.126863 307.584 
L 278.126863 41.472 
" clip-path="url(#pd5d1b94b3f)" style="fill: none; stroke-dasharray: 2.96,1.28; stroke-dashoffset: 0; stroke: #b0b0b0; stroke-width: 0.8"/>
     </g>
     <g id="line2d_8">
      <g>
       <use xlink:href="#m09af989c57" x="278.126863" y="307.584" style="stroke: #000000; stroke-width: 0.8"/>
      </g>
     </g>
     <g id="text_4">
      <!-- 4000 -->
      <g transform="translate(265.401863 322.182437)scale(0.1 -0.1)">
       <defs>
        <path id="DejaVuSans-34" d="M 2419 4116 
L 825 1625 
L 2419 1625 
L 2419 4116 
z
M 2253 4666 
L 3047 4666 
L 3047 1625 
L 3713 1625 
L 3713 1100 
L 3047 1100 
L 3047 0 
L 2419 0 
L 2419 1100 
L 313 1100 
L 313 1709 
L 2253 4666 
z
" transform="scale(0.015625)"/>
       </defs>
       <use xlink:href="#DejaVuSans-34"/>
       <use xlink:href="#DejaVuSans-30" x="63.623047"/>
       <use xlink:href="#DejaVuSans-30" x="127.246094"/>
       <use xlink:href="#DejaVuSans-30" x="190.869141"/>
      </g>
     </g>
    </g>
    <g id="xtick_5">
     <g id="line2d_9">
      <path d="M 347.379113 307.584 
L 347.379113 41.472 
" clip-path="url(#pd5d1b94b3f)" style="fill: none; stroke-dasharray: 2.96,1.28; stroke-dashoffset: 0; stroke: #b0b0b0; stroke-width: 0.8"/>
     </g>
     <g id="line2d_10">
      <g>
       <use xlink:href="#m09af989c57" x="347.379113" y="307.584" style="stroke: #000000; stroke-width: 0.8"/>
      </g>
     </g>
     <g id="text_5">
      <!-- 5000 -->
      <g transform="translate(334.654113 322.182437)scale(0.1 -0.1)">
       <defs>
        <path id="DejaVuSans-35" d="M 691 4666 
L 3169 4666 
L 3169 4134 
L 1269 4134 
L 1269 2991 
Q 1406 3038 1543 3061 
Q 1681 3084 1819 3084 
Q 2600 3084 3056 2656 
Q 3513 2228 3513 1497 
Q 3513 744 3044 326 
Q 2575 -91 1722 -91 
Q 1428 -91 1123 -41 
Q 819 9 494 109 
L 494 744 
Q 775 591 1075 516 
Q 1375 441 1709 441 
Q 2250 441 2565 725 
Q 2881 1009 2881 1497 
Q 2881 1984 2565 2268 
Q 2250 2553 1709 2553 
Q 1456 2553 1204 2497 
Q 953 2441 691 2322 
L 691 4666 
z
" transform="scale(0.015625)"/>
       </defs>
       <use xlink:href="#DejaVuSans-35"/>
       <use xlink:href="#DejaVuSans-30" x="63.623047"/>
       <use xlink:href="#DejaVuSans-30" x="127.246094"/>
       <use xlink:href="#DejaVuSans-30" x="190.869141"/>
      </g>
     </g>
    </g>
    <g id="text_6">
     <!-- Learned Episodes -->
     <g transform="translate(192.102187 335.860562)scale(0.1 -0.1)">
      <defs>
       <path id="DejaVuSans-4c" d="M 628 4666 
L 1259 4666 
L 1259 531 
L 3531 531 
L 3531 0 
L 628 0 
L 628 4666 
z
" transform="scale(0.015625)"/>
       <path id="DejaVuSans-65" d="M 3597 1894 
L 3597 1613 
L 953 1613 
Q 991 1019 1311 708 
Q 1631 397 2203 397 
Q 2534 397 2845 478 
Q 3156 559 3463 722 
L 3463 178 
Q 3153 47 2828 -22 
Q 2503 -91 2169 -91 
Q 1331 -91 842 396 
Q 353 884 353 1716 
Q 353 2575 817 3079 
Q 1281 3584 2069 3584 
Q 2775 3584 3186 3129 
Q 3597 2675 3597 1894 
z
M 3022 2063 
Q 3016 2534 2758 2815 
Q 2500 3097 2075 3097 
Q 1594 3097 1305 2825 
Q 1016 2553 972 2059 
L 3022 2063 
z
" transform="scale(0.015625)"/>
       <path id="DejaVuSans-61" d="M 2194 1759 
Q 1497 1759 1228 1600 
Q 959 1441 959 1056 
Q 959 750 1161 570 
Q 1363 391 1709 391 
Q 2188 391 2477 730 
Q 2766 1069 2766 1631 
L 2766 1759 
L 2194 1759 
z
M 3341 1997 
L 3341 0 
L 2766 0 
L 2766 531 
Q 2569 213 2275 61 
Q 1981 -91 1556 -91 
Q 1019 -91 701 211 
Q 384 513 384 1019 
Q 384 1609 779 1909 
Q 1175 2209 1959 2209 
L 2766 2209 
L 2766 2266 
Q 2766 2663 2505 2880 
Q 2244 3097 1772 3097 
Q 1472 3097 1187 3025 
Q 903 2953 641 2809 
L 641 3341 
Q 956 3463 1253 3523 
Q 1550 3584 1831 3584 
Q 2591 3584 2966 3190 
Q 3341 2797 3341 1997 
z
" transform="scale(0.015625)"/>
       <path id="DejaVuSans-72" d="M 2631 2963 
Q 2534 3019 2420 3045 
Q 2306 3072 2169 3072 
Q 1681 3072 1420 2755 
Q 1159 2438 1159 1844 
L 1159 0 
L 581 0 
L 581 3500 
L 1159 3500 
L 1159 2956 
Q 1341 3275 1631 3429 
Q 1922 3584 2338 3584 
Q 2397 3584 2469 3576 
Q 2541 3569 2628 3553 
L 2631 2963 
z
" transform="scale(0.015625)"/>
       <path id="DejaVuSans-6e" d="M 3513 2113 
L 3513 0 
L 2938 0 
L 2938 2094 
Q 2938 2591 2744 2837 
Q 2550 3084 2163 3084 
Q 1697 3084 1428 2787 
Q 1159 2491 1159 1978 
L 1159 0 
L 581 0 
L 581 3500 
L 1159 3500 
L 1159 2956 
Q 1366 3272 1645 3428 
Q 1925 3584 2291 3584 
Q 2894 3584 3203 3211 
Q 3513 2838 3513 2113 
z
" transform="scale(0.015625)"/>
       <path id="DejaVuSans-64" d="M 2906 2969 
L 2906 4863 
L 3481 4863 
L 3481 0 
L 2906 0 
L 2906 525 
Q 2725 213 2448 61 
Q 2172 -91 1784 -91 
Q 1150 -91 751 415 
Q 353 922 353 1747 
Q 353 2572 751 3078 
Q 1150 3584 1784 3584 
Q 2172 3584 2448 3432 
Q 2725 3281 2906 2969 
z
M 947 1747 
Q 947 1113 1208 752 
Q 1469 391 1925 391 
Q 2381 391 2643 752 
Q 2906 1113 2906 1747 
Q 2906 2381 2643 2742 
Q 2381 3103 1925 3103 
Q 1469 3103 1208 2742 
Q 947 2381 947 1747 
z
" transform="scale(0.015625)"/>
       <path id="DejaVuSans-20" transform="scale(0.015625)"/>
       <path id="DejaVuSans-45" d="M 628 4666 
L 3578 4666 
L 3578 4134 
L 1259 4134 
L 1259 2753 
L 3481 2753 
L 3481 2222 
L 1259 2222 
L 1259 531 
L 3634 531 
L 3634 0 
L 628 0 
L 628 4666 
z
" transform="scale(0.015625)"/>
       <path id="DejaVuSans-70" d="M 1159 525 
L 1159 -1331 
L 581 -1331 
L 581 3500 
L 1159 3500 
L 1159 2969 
Q 1341 3281 1617 3432 
Q 1894 3584 2278 3584 
Q 2916 3584 3314 3078 
Q 3713 2572 3713 1747 
Q 3713 922 3314 415 
Q 2916 -91 2278 -91 
Q 1894 -91 1617 61 
Q 1341 213 1159 525 
z
M 3116 1747 
Q 3116 2381 2855 2742 
Q 2594 3103 2138 3103 
Q 1681 3103 1420 2742 
Q 1159 2381 1159 1747 
Q 1159 1113 1420 752 
Q 1681 391 2138 391 
Q 2594 391 2855 752 
Q 3116 1113 3116 1747 
z
" transform="scale(0.015625)"/>
       <path id="DejaVuSans-69" d="M 603 3500 
L 1178 3500 
L 1178 0 
L 603 0 
L 603 3500 
z
M 603 4863 
L 1178 4863 
L 1178 4134 
L 603 4134 
L 603 4863 
z
" transform="scale(0.015625)"/>
       <path id="DejaVuSans-73" d="M 2834 3397 
L 2834 2853 
Q 2591 2978 2328 3040 
Q 2066 3103 1784 3103 
Q 1356 3103 1142 2972 
Q 928 2841 928 2578 
Q 928 2378 1081 2264 
Q 1234 2150 1697 2047 
L 1894 2003 
Q 2506 1872 2764 1633 
Q 3022 1394 3022 966 
Q 3022 478 2636 193 
Q 2250 -91 1575 -91 
Q 1294 -91 989 -36 
Q 684 19 347 128 
L 347 722 
Q 666 556 975 473 
Q 1284 391 1588 391 
Q 1994 391 2212 530 
Q 2431 669 2431 922 
Q 2431 1156 2273 1281 
Q 2116 1406 1581 1522 
L 1381 1569 
Q 847 1681 609 1914 
Q 372 2147 372 2553 
Q 372 3047 722 3315 
Q 1072 3584 1716 3584 
Q 2034 3584 2315 3537 
Q 2597 3491 2834 3397 
z
" transform="scale(0.015625)"/>
       <path id="DejaVuSans-6f" d="M 1959 3097 
Q 1497 3097 1228 2736 
Q 959 2375 959 1747 
Q 959 1119 1226 758 
Q 1494 397 1959 397 
Q 2419 397 2687 759 
Q 2956 1122 2956 1747 
Q 2956 2369 2687 2733 
Q 2419 3097 1959 3097 
z
M 1959 3584 
Q 2709 3584 3137 3096 
Q 3566 2609 3566 1747 
Q 3566 888 3137 398 
Q 2709 -91 1959 -91 
Q 1206 -91 779 398 
Q 353 888 353 1747 
Q 353 2609 779 3096 
Q 1206 3584 1959 3584 
z
" transform="scale(0.015625)"/>
      </defs>
      <use xlink:href="#DejaVuSans-4c"/>
      <use xlink:href="#DejaVuSans-65" x="53.962891"/>
      <use xlink:href="#DejaVuSans-61" x="115.486328"/>
      <use xlink:href="#DejaVuSans-72" x="176.765625"/>
      <use xlink:href="#DejaVuSans-6e" x="216.128906"/>
      <use xlink:href="#DejaVuSans-65" x="279.507812"/>
      <use xlink:href="#DejaVuSans-64" x="341.03125"/>
      <use xlink:href="#DejaVuSans-20" x="404.507812"/>
      <use xlink:href="#DejaVuSans-45" x="436.294922"/>
      <use xlink:href="#DejaVuSans-70" x="499.478516"/>
      <use xlink:href="#DejaVuSans-69" x="562.955078"/>
      <use xlink:href="#DejaVuSans-73" x="590.738281"/>
      <use xlink:href="#DejaVuSans-6f" x="642.837891"/>
      <use xlink:href="#DejaVuSans-64" x="704.019531"/>
      <use xlink:href="#DejaVuSans-65" x="767.496094"/>
      <use xlink:href="#DejaVuSans-73" x="829.019531"/>
     </g>
    </g>
   </g>
   <g id="matplotlib.axis_2">
    <g id="ytick_1">
     <g id="line2d_11">
      <path d="M 57.6 295.488 
L 414.72 295.488 
" clip-path="url(#pd5d1b94b3f)" style="fill: none; stroke-dasharray: 2.96,1.28; stroke-dashoffset: 0; stroke: #b0b0b0; stroke-width: 0.8"/>
     </g>
     <g id="line2d_12">
      <defs>
       <path id="m79f4262054" d="M 0 0 
L -3.5 0 
" style="stroke: #000000; stroke-width: 0.8"/>
      </defs>
      <g>
       <use xlink:href="#m79f4262054" x="57.6" y="295.488" style="stroke: #000000; stroke-width: 0.8"/>
      </g>
     </g>
     <g id="text_7">
      <!-- 0 -->
      <g transform="translate(44.2375 299.287219)scale(0.1 -0.1)">
       <use xlink:href="#DejaVuSans-30"/>
      </g>
     </g>
    </g>
    <g id="ytick_2">
     <g id="line2d_13">
      <path d="M 57.6 265.248 
L 414.72 265.248 
" clip-path="url(#pd5d1b94b3f)" style="fill: none; stroke-dasharray: 2.96,1.28; stroke-dashoffset: 0; stroke: #b0b0b0; stroke-width: 0.8"/>
     </g>
     <g id="line2d_14">
      <g>
       <use xlink:href="#m79f4262054" x="57.6" y="265.248" style="stroke: #000000; stroke-width: 0.8"/>
      </g>
     </g>
     <g id="text_8">
      <!-- 2 -->
      <g transform="translate(44.2375 269.047219)scale(0.1 -0.1)">
       <use xlink:href="#DejaVuSans-32"/>
      </g>
     </g>
    </g>
    <g id="ytick_3">
     <g id="line2d_15">
      <path d="M 57.6 235.008 
L 414.72 235.008 
" clip-path="url(#pd5d1b94b3f)" style="fill: none; stroke-dasharray: 2.96,1.28; stroke-dashoffset: 0; stroke: #b0b0b0; stroke-width: 0.8"/>
     </g>
     <g id="line2d_16">
      <g>
       <use xlink:href="#m79f4262054" x="57.6" y="235.008" style="stroke: #000000; stroke-width: 0.8"/>
      </g>
     </g>
     <g id="text_9">
      <!-- 4 -->
      <g transform="translate(44.2375 238.807219)scale(0.1 -0.1)">
       <use xlink:href="#DejaVuSans-34"/>
      </g>
     </g>
    </g>
    <g id="ytick_4">
     <g id="line2d_17">
      <path d="M 57.6 204.768 
L 414.72 204.768 
" clip-path="url(#pd5d1b94b3f)" style="fill: none; stroke-dasharray: 2.96,1.28; stroke-dashoffset: 0; stroke: #b0b0b0; stroke-width: 0.8"/>
     </g>
     <g id="line2d_18">
      <g>
       <use xlink:href="#m79f4262054" x="57.6" y="204.768" style="stroke: #000000; stroke-width: 0.8"/>
      </g>
     </g>
     <g id="text_10">
      <!-- 6 -->
      <g transform="translate(44.2375 208.567219)scale(0.1 -0.1)">
       <defs>
        <path id="DejaVuSans-36" d="M 2113 2584 
Q 1688 2584 1439 2293 
Q 1191 2003 1191 1497 
Q 1191 994 1439 701 
Q 1688 409 2113 409 
Q 2538 409 2786 701 
Q 3034 994 3034 1497 
Q 3034 2003 2786 2293 
Q 2538 2584 2113 2584 
z
M 3366 4563 
L 3366 3988 
Q 3128 4100 2886 4159 
Q 2644 4219 2406 4219 
Q 1781 4219 1451 3797 
Q 1122 3375 1075 2522 
Q 1259 2794 1537 2939 
Q 1816 3084 2150 3084 
Q 2853 3084 3261 2657 
Q 3669 2231 3669 1497 
Q 3669 778 3244 343 
Q 2819 -91 2113 -91 
Q 1303 -91 875 529 
Q 447 1150 447 2328 
Q 447 3434 972 4092 
Q 1497 4750 2381 4750 
Q 2619 4750 2861 4703 
Q 3103 4656 3366 4563 
z
" transform="scale(0.015625)"/>
       </defs>
       <use xlink:href="#DejaVuSans-36"/>
      </g>
     </g>
    </g>
    <g id="ytick_5">
     <g id="line2d_19">
      <path d="M 57.6 174.528 
L 414.72 174.528 
" clip-path="url(#pd5d1b94b3f)" style="fill: none; stroke-dasharray: 2.96,1.28; stroke-dashoffset: 0; stroke: #b0b0b0; stroke-width: 0.8"/>
     </g>
     <g id="line2d_20">
      <g>
       <use xlink:href="#m79f4262054" x="57.6" y="174.528" style="stroke: #000000; stroke-width: 0.8"/>
      </g>
     </g>
     <g id="text_11">
      <!-- 8 -->
      <g transform="translate(44.2375 178.327219)scale(0.1 -0.1)">
       <defs>
        <path id="DejaVuSans-38" d="M 2034 2216 
Q 1584 2216 1326 1975 
Q 1069 1734 1069 1313 
Q 1069 891 1326 650 
Q 1584 409 2034 409 
Q 2484 409 2743 651 
Q 3003 894 3003 1313 
Q 3003 1734 2745 1975 
Q 2488 2216 2034 2216 
z
M 1403 2484 
Q 997 2584 770 2862 
Q 544 3141 544 3541 
Q 544 4100 942 4425 
Q 1341 4750 2034 4750 
Q 2731 4750 3128 4425 
Q 3525 4100 3525 3541 
Q 3525 3141 3298 2862 
Q 3072 2584 2669 2484 
Q 3125 2378 3379 2068 
Q 3634 1759 3634 1313 
Q 3634 634 3220 271 
Q 2806 -91 2034 -91 
Q 1263 -91 848 271 
Q 434 634 434 1313 
Q 434 1759 690 2068 
Q 947 2378 1403 2484 
z
M 1172 3481 
Q 1172 3119 1398 2916 
Q 1625 2713 2034 2713 
Q 2441 2713 2670 2916 
Q 2900 3119 2900 3481 
Q 2900 3844 2670 4047 
Q 2441 4250 2034 4250 
Q 1625 4250 1398 4047 
Q 1172 3844 1172 3481 
z
" transform="scale(0.015625)"/>
       </defs>
       <use xlink:href="#DejaVuSans-38"/>
      </g>
     </g>
    </g>
    <g id="ytick_6">
     <g id="line2d_21">
      <path d="M 57.6 144.288 
L 414.72 144.288 
" clip-path="url(#pd5d1b94b3f)" style="fill: none; stroke-dasharray: 2.96,1.28; stroke-dashoffset: 0; stroke: #b0b0b0; stroke-width: 0.8"/>
     </g>
     <g id="line2d_22">
      <g>
       <use xlink:href="#m79f4262054" x="57.6" y="144.288" style="stroke: #000000; stroke-width: 0.8"/>
      </g>
     </g>
     <g id="text_12">
      <!-- 10 -->
      <g transform="translate(37.875 148.087219)scale(0.1 -0.1)">
       <use xlink:href="#DejaVuSans-31"/>
       <use xlink:href="#DejaVuSans-30" x="63.623047"/>
      </g>
     </g>
    </g>
    <g id="ytick_7">
     <g id="line2d_23">
      <path d="M 57.6 114.048 
L 414.72 114.048 
" clip-path="url(#pd5d1b94b3f)" style="fill: none; stroke-dasharray: 2.96,1.28; stroke-dashoffset: 0; stroke: #b0b0b0; stroke-width: 0.8"/>
     </g>
     <g id="line2d_24">
      <g>
       <use xlink:href="#m79f4262054" x="57.6" y="114.048" style="stroke: #000000; stroke-width: 0.8"/>
      </g>
     </g>
     <g id="text_13">
      <!-- 12 -->
      <g transform="translate(37.875 117.847219)scale(0.1 -0.1)">
       <use xlink:href="#DejaVuSans-31"/>
       <use xlink:href="#DejaVuSans-32" x="63.623047"/>
      </g>
     </g>
    </g>
    <g id="ytick_8">
     <g id="line2d_25">
      <path d="M 57.6 83.808 
L 414.72 83.808 
" clip-path="url(#pd5d1b94b3f)" style="fill: none; stroke-dasharray: 2.96,1.28; stroke-dashoffset: 0; stroke: #b0b0b0; stroke-width: 0.8"/>
     </g>
     <g id="line2d_26">
      <g>
       <use xlink:href="#m79f4262054" x="57.6" y="83.808" style="stroke: #000000; stroke-width: 0.8"/>
      </g>
     </g>
     <g id="text_14">
      <!-- 14 -->
      <g transform="translate(37.875 87.607219)scale(0.1 -0.1)">
       <use xlink:href="#DejaVuSans-31"/>
       <use xlink:href="#DejaVuSans-34" x="63.623047"/>
      </g>
     </g>
    </g>
    <g id="ytick_9">
     <g id="line2d_27">
      <path d="M 57.6 53.568 
L 414.72 53.568 
" clip-path="url(#pd5d1b94b3f)" style="fill: none; stroke-dasharray: 2.96,1.28; stroke-dashoffset: 0; stroke: #b0b0b0; stroke-width: 0.8"/>
     </g>
     <g id="line2d_28">
      <g>
       <use xlink:href="#m79f4262054" x="57.6" y="53.568" style="stroke: #000000; stroke-width: 0.8"/>
      </g>
     </g>
     <g id="text_15">
      <!-- 16 -->
      <g transform="translate(37.875 57.367219)scale(0.1 -0.1)">
       <use xlink:href="#DejaVuSans-31"/>
       <use xlink:href="#DejaVuSans-36" x="63.623047"/>
      </g>
     </g>
    </g>
    <g id="text_16">
     <!-- Reward Density -->
     <g transform="translate(31.795312 213.74675)rotate(-90)scale(0.1 -0.1)">
      <defs>
       <path id="DejaVuSans-52" d="M 2841 2188 
Q 3044 2119 3236 1894 
Q 3428 1669 3622 1275 
L 4263 0 
L 3584 0 
L 2988 1197 
Q 2756 1666 2539 1819 
Q 2322 1972 1947 1972 
L 1259 1972 
L 1259 0 
L 628 0 
L 628 4666 
L 2053 4666 
Q 2853 4666 3247 4331 
Q 3641 3997 3641 3322 
Q 3641 2881 3436 2590 
Q 3231 2300 2841 2188 
z
M 1259 4147 
L 1259 2491 
L 2053 2491 
Q 2509 2491 2742 2702 
Q 2975 2913 2975 3322 
Q 2975 3731 2742 3939 
Q 2509 4147 2053 4147 
L 1259 4147 
z
" transform="scale(0.015625)"/>
       <path id="DejaVuSans-77" d="M 269 3500 
L 844 3500 
L 1563 769 
L 2278 3500 
L 2956 3500 
L 3675 769 
L 4391 3500 
L 4966 3500 
L 4050 0 
L 3372 0 
L 2619 2869 
L 1863 0 
L 1184 0 
L 269 3500 
z
" transform="scale(0.015625)"/>
       <path id="DejaVuSans-44" d="M 1259 4147 
L 1259 519 
L 2022 519 
Q 2988 519 3436 956 
Q 3884 1394 3884 2338 
Q 3884 3275 3436 3711 
Q 2988 4147 2022 4147 
L 1259 4147 
z
M 628 4666 
L 1925 4666 
Q 3281 4666 3915 4102 
Q 4550 3538 4550 2338 
Q 4550 1131 3912 565 
Q 3275 0 1925 0 
L 628 0 
L 628 4666 
z
" transform="scale(0.015625)"/>
       <path id="DejaVuSans-74" d="M 1172 4494 
L 1172 3500 
L 2356 3500 
L 2356 3053 
L 1172 3053 
L 1172 1153 
Q 1172 725 1289 603 
Q 1406 481 1766 481 
L 2356 481 
L 2356 0 
L 1766 0 
Q 1100 0 847 248 
Q 594 497 594 1153 
L 594 3053 
L 172 3053 
L 172 3500 
L 594 3500 
L 594 4494 
L 1172 4494 
z
" transform="scale(0.015625)"/>
       <path id="DejaVuSans-79" d="M 2059 -325 
Q 1816 -950 1584 -1140 
Q 1353 -1331 966 -1331 
L 506 -1331 
L 506 -850 
L 844 -850 
Q 1081 -850 1212 -737 
Q 1344 -625 1503 -206 
L 1606 56 
L 191 3500 
L 800 3500 
L 1894 763 
L 2988 3500 
L 3597 3500 
L 2059 -325 
z
" transform="scale(0.015625)"/>
      </defs>
      <use xlink:href="#DejaVuSans-52"/>
      <use xlink:href="#DejaVuSans-65" x="64.982422"/>
      <use xlink:href="#DejaVuSans-77" x="126.505859"/>
      <use xlink:href="#DejaVuSans-61" x="208.292969"/>
      <use xlink:href="#DejaVuSans-72" x="269.572266"/>
      <use xlink:href="#DejaVuSans-64" x="308.935547"/>
      <use xlink:href="#DejaVuSans-20" x="372.412109"/>
      <use xlink:href="#DejaVuSans-44" x="404.199219"/>
      <use xlink:href="#DejaVuSans-65" x="481.201172"/>
      <use xlink:href="#DejaVuSans-6e" x="542.724609"/>
      <use xlink:href="#DejaVuSans-73" x="606.103516"/>
      <use xlink:href="#DejaVuSans-69" x="658.203125"/>
      <use xlink:href="#DejaVuSans-74" x="685.986328"/>
      <use xlink:href="#DejaVuSans-79" x="725.195312"/>
     </g>
    </g>
   </g>
   <g id="LineCollection_1">
    <path d="M 98.071015 241.99344 
L 146.547589 241.99344 
" clip-path="url(#pd5d1b94b3f)" style="fill: none; stroke: #1f77b4; stroke-width: 1.5"/>
    <path d="M 219.262451 229.62528 
L 267.739026 229.62528 
" clip-path="url(#pd5d1b94b3f)" style="fill: none; stroke: #1f77b4; stroke-width: 1.5"/>
    <path d="M 325.772411 216.19872 
L 374.248985 216.19872 
" clip-path="url(#pd5d1b94b3f)" style="fill: none; stroke: #1f77b4; stroke-width: 1.5"/>
   </g>
   <g id="LineCollection_2">
    <path d="M 98.071015 129.168 
L 146.547589 129.168 
" clip-path="url(#pd5d1b94b3f)" style="fill: none; stroke: #1f77b4; stroke-width: 1.5"/>
    <path d="M 219.262451 53.568 
L 267.739026 53.568 
" clip-path="url(#pd5d1b94b3f)" style="fill: none; stroke: #1f77b4; stroke-width: 1.5"/>
    <path d="M 325.772411 83.808 
L 374.248985 83.808 
" clip-path="url(#pd5d1b94b3f)" style="fill: none; stroke: #1f77b4; stroke-width: 1.5"/>
   </g>
   <g id="LineCollection_3">
    <path d="M 98.071015 295.488 
L 146.547589 295.488 
" clip-path="url(#pd5d1b94b3f)" style="fill: none; stroke: #1f77b4; stroke-width: 1.5"/>
    <path d="M 219.262451 295.488 
L 267.739026 295.488 
" clip-path="url(#pd5d1b94b3f)" style="fill: none; stroke: #1f77b4; stroke-width: 1.5"/>
    <path d="M 325.772411 295.488 
L 374.248985 295.488 
" clip-path="url(#pd5d1b94b3f)" style="fill: none; stroke: #1f77b4; stroke-width: 1.5"/>
   </g>
   <g id="LineCollection_4">
    <path d="M 122.309302 295.488 
L 122.309302 129.168 
" clip-path="url(#pd5d1b94b3f)" style="fill: none; stroke: #1f77b4; stroke-width: 1.5"/>
    <path d="M 243.500738 295.488 
L 243.500738 53.568 
" clip-path="url(#pd5d1b94b3f)" style="fill: none; stroke: #1f77b4; stroke-width: 1.5"/>
    <path d="M 350.010698 295.488 
L 350.010698 83.808 
" clip-path="url(#pd5d1b94b3f)" style="fill: none; stroke: #1f77b4; stroke-width: 1.5"/>
   </g>
   <g id="line2d_29">
    <path d="M 122.309302 241.99344 
L 243.500738 229.62528 
L 350.010698 216.19872 
" clip-path="url(#pd5d1b94b3f)" style="fill: none; stroke: #4682b4; stroke-width: 1.5; stroke-linecap: square"/>
   </g>
   <g id="line2d_30">
    <path d="M 122.309302 241.99344 
L 243.500738 229.62528 
L 350.010698 216.19872 
" clip-path="url(#pd5d1b94b3f)" style="fill: none; stroke: #4682b4; stroke-width: 1.5; stroke-linecap: square"/>
   </g>
   <g id="patch_3">
    <path d="M 57.6 307.584 
L 57.6 41.472 
" style="fill: none; stroke: #000000; stroke-width: 0.8; stroke-linejoin: miter; stroke-linecap: square"/>
   </g>
   <g id="patch_4">
    <path d="M 414.72 307.584 
L 414.72 41.472 
" style="fill: none; stroke: #000000; stroke-width: 0.8; stroke-linejoin: miter; stroke-linecap: square"/>
   </g>
   <g id="patch_5">
    <path d="M 57.6 307.584 
L 414.72 307.584 
" style="fill: none; stroke: #000000; stroke-width: 0.8; stroke-linejoin: miter; stroke-linecap: square"/>
   </g>
   <g id="patch_6">
    <path d="M 57.6 41.472 
L 414.72 41.472 
" style="fill: none; stroke: #000000; stroke-width: 0.8; stroke-linejoin: miter; stroke-linecap: square"/>
   </g>
   <g id="text_17">
    <!-- Violinplot for progress of owner/throw_away -->
    <g transform="translate(104.22375 35.472)scale(0.12 -0.12)">
     <defs>
      <path id="DejaVuSans-56" d="M 1831 0 
L 50 4666 
L 709 4666 
L 2188 738 
L 3669 4666 
L 4325 4666 
L 2547 0 
L 1831 0 
z
" transform="scale(0.015625)"/>
      <path id="DejaVuSans-6c" d="M 603 4863 
L 1178 4863 
L 1178 0 
L 603 0 
L 603 4863 
z
" transform="scale(0.015625)"/>
      <path id="DejaVuSans-66" d="M 2375 4863 
L 2375 4384 
L 1825 4384 
Q 1516 4384 1395 4259 
Q 1275 4134 1275 3809 
L 1275 3500 
L 2222 3500 
L 2222 3053 
L 1275 3053 
L 1275 0 
L 697 0 
L 697 3053 
L 147 3053 
L 147 3500 
L 697 3500 
L 697 3744 
Q 697 4328 969 4595 
Q 1241 4863 1831 4863 
L 2375 4863 
z
" transform="scale(0.015625)"/>
      <path id="DejaVuSans-67" d="M 2906 1791 
Q 2906 2416 2648 2759 
Q 2391 3103 1925 3103 
Q 1463 3103 1205 2759 
Q 947 2416 947 1791 
Q 947 1169 1205 825 
Q 1463 481 1925 481 
Q 2391 481 2648 825 
Q 2906 1169 2906 1791 
z
M 3481 434 
Q 3481 -459 3084 -895 
Q 2688 -1331 1869 -1331 
Q 1566 -1331 1297 -1286 
Q 1028 -1241 775 -1147 
L 775 -588 
Q 1028 -725 1275 -790 
Q 1522 -856 1778 -856 
Q 2344 -856 2625 -561 
Q 2906 -266 2906 331 
L 2906 616 
Q 2728 306 2450 153 
Q 2172 0 1784 0 
Q 1141 0 747 490 
Q 353 981 353 1791 
Q 353 2603 747 3093 
Q 1141 3584 1784 3584 
Q 2172 3584 2450 3431 
Q 2728 3278 2906 2969 
L 2906 3500 
L 3481 3500 
L 3481 434 
z
" transform="scale(0.015625)"/>
      <path id="DejaVuSans-2f" d="M 1625 4666 
L 2156 4666 
L 531 -594 
L 0 -594 
L 1625 4666 
z
" transform="scale(0.015625)"/>
      <path id="DejaVuSans-68" d="M 3513 2113 
L 3513 0 
L 2938 0 
L 2938 2094 
Q 2938 2591 2744 2837 
Q 2550 3084 2163 3084 
Q 1697 3084 1428 2787 
Q 1159 2491 1159 1978 
L 1159 0 
L 581 0 
L 581 4863 
L 1159 4863 
L 1159 2956 
Q 1366 3272 1645 3428 
Q 1925 3584 2291 3584 
Q 2894 3584 3203 3211 
Q 3513 2838 3513 2113 
z
" transform="scale(0.015625)"/>
      <path id="DejaVuSans-5f" d="M 3263 -1063 
L 3263 -1509 
L -63 -1509 
L -63 -1063 
L 3263 -1063 
z
" transform="scale(0.015625)"/>
     </defs>
     <use xlink:href="#DejaVuSans-56"/>
     <use xlink:href="#DejaVuSans-69" x="66.158203"/>
     <use xlink:href="#DejaVuSans-6f" x="93.941406"/>
     <use xlink:href="#DejaVuSans-6c" x="155.123047"/>
     <use xlink:href="#DejaVuSans-69" x="182.90625"/>
     <use xlink:href="#DejaVuSans-6e" x="210.689453"/>
     <use xlink:href="#DejaVuSans-70" x="274.068359"/>
     <use xlink:href="#DejaVuSans-6c" x="337.544922"/>
     <use xlink:href="#DejaVuSans-6f" x="365.328125"/>
     <use xlink:href="#DejaVuSans-74" x="426.509766"/>
     <use xlink:href="#DejaVuSans-20" x="465.71875"/>
     <use xlink:href="#DejaVuSans-66" x="497.505859"/>
     <use xlink:href="#DejaVuSans-6f" x="532.710938"/>
     <use xlink:href="#DejaVuSans-72" x="593.892578"/>
     <use xlink:href="#DejaVuSans-20" x="635.005859"/>
     <use xlink:href="#DejaVuSans-70" x="666.792969"/>
     <use xlink:href="#DejaVuSans-72" x="730.269531"/>
     <use xlink:href="#DejaVuSans-6f" x="769.132812"/>
     <use xlink:href="#DejaVuSans-67" x="830.314453"/>
     <use xlink:href="#DejaVuSans-72" x="893.791016"/>
     <use xlink:href="#DejaVuSans-65" x="932.654297"/>
     <use xlink:href="#DejaVuSans-73" x="994.177734"/>
     <use xlink:href="#DejaVuSans-73" x="1046.277344"/>
     <use xlink:href="#DejaVuSans-20" x="1098.376953"/>
     <use xlink:href="#DejaVuSans-6f" x="1130.164062"/>
     <use xlink:href="#DejaVuSans-66" x="1191.345703"/>
     <use xlink:href="#DejaVuSans-20" x="1226.550781"/>
     <use xlink:href="#DejaVuSans-6f" x="1258.337891"/>
     <use xlink:href="#DejaVuSans-77" x="1319.519531"/>
     <use xlink:href="#DejaVuSans-6e" x="1401.306641"/>
     <use xlink:href="#DejaVuSans-65" x="1464.685547"/>
     <use xlink:href="#DejaVuSans-72" x="1526.208984"/>
     <use xlink:href="#DejaVuSans-2f" x="1567.322266"/>
     <use xlink:href="#DejaVuSans-74" x="1601.013672"/>
     <use xlink:href="#DejaVuSans-68" x="1640.222656"/>
     <use xlink:href="#DejaVuSans-72" x="1703.601562"/>
     <use xlink:href="#DejaVuSans-6f" x="1742.464844"/>
     <use xlink:href="#DejaVuSans-77" x="1803.646484"/>
     <use xlink:href="#DejaVuSans-5f" x="1885.433594"/>
     <use xlink:href="#DejaVuSans-61" x="1935.433594"/>
     <use xlink:href="#DejaVuSans-77" x="1996.712891"/>
     <use xlink:href="#DejaVuSans-61" x="2078.5"/>
     <use xlink:href="#DejaVuSans-79" x="2139.779297"/>
    </g>
   </g>
  </g>
 </g>
 <defs>
  <clipPath id="pd5d1b94b3f">
   <rect x="57.6" y="41.472" width="357.12" height="266.112"/>
  </clipPath>
 </defs>
</svg>
