<?xml version="1.0" encoding="utf-8" standalone="no"?>
<!DOCTYPE svg PUBLIC "-//W3C//DTD SVG 1.1//EN"
  "http://www.w3.org/Graphics/SVG/1.1/DTD/svg11.dtd">
<svg xmlns:xlink="http://www.w3.org/1999/xlink" width="460.8pt" height="345.6pt" viewBox="0 0 460.8 345.6" xmlns="http://www.w3.org/2000/svg" version="1.1">
 <metadata>
  <rdf:RDF xmlns:dc="http://purl.org/dc/elements/1.1/" xmlns:cc="http://creativecommons.org/ns#" xmlns:rdf="http://www.w3.org/1999/02/22-rdf-syntax-ns#">
   <cc:Work>
    <dc:type rdf:resource="http://purl.org/dc/dcmitype/StillImage"/>
    <dc:date>2022-06-21T22:14:28.624432</dc:date>
    <dc:format>image/svg+xml</dc:format>
    <dc:creator>
     <cc:Agent>
      <dc:title>Matplotlib v3.5.2, https://matplotlib.org/</dc:title>
     </cc:Agent>
    </dc:creator>
   </cc:Work>
  </rdf:RDF>
 </metadata>
 <defs>
  <style type="text/css">*{stroke-linejoin: round; stroke-linecap: butt}</style>
 </defs>
 <g id="figure_1">
  <g id="patch_1">
   <path d="M 0 345.6 
L 460.8 345.6 
L 460.8 0 
L 0 0 
z
" style="fill: #ffffff"/>
  </g>
  <g id="axes_1">
   <g id="patch_2">
    <path d="M 57.6 307.584 
L 414.72 307.584 
L 414.72 41.472 
L 57.6 41.472 
z
" style="fill: #ffffff"/>
   </g>
   <g id="PolyCollection_1">
    <path d="M 122.653316 295.488 
L 121.965288 295.488 
L 121.964802 293.17161 
L 121.97495 290.85522 
L 121.990923 288.53883 
L 122.006831 286.22244 
L 122.017135 283.90605 
L 122.017979 281.58966 
L 122.007986 279.27327 
L 121.98826 276.95688 
L 121.961542 274.64049 
L 121.93073 272.3241 
L 121.897204 270.00771 
L 121.859492 267.69132 
L 121.812763 265.37493 
L 121.749433 263.05854 
L 121.660818 260.74215 
L 121.53945 258.42576 
L 121.381389 256.10937 
L 121.187835 253.79298 
L 120.965507 251.47659 
L 120.725625 249.1602 
L 120.481783 246.84381 
L 120.247318 244.52742 
L 120.032945 242.21103 
L 119.845241 239.89464 
L 119.686238 237.578249 
L 119.553925 235.261859 
L 119.443183 232.945469 
L 119.346633 230.629079 
L 119.255025 228.312689 
L 119.157174 225.996299 
L 119.03971 223.679909 
L 118.887039 221.363519 
L 118.681868 219.047129 
L 118.406455 216.730739 
L 118.044533 214.414349 
L 117.583739 212.097959 
L 117.01822 209.781569 
L 116.350982 207.465179 
L 115.595322 205.148789 
L 114.77453 202.832399 
L 113.91913 200.516009 
L 113.061396 198.199619 
L 112.227787 195.883229 
L 111.430998 193.566839 
L 110.664032 191.250449 
L 109.898659 188.934059 
L 109.089556 186.617669 
L 108.183646 184.301279 
L 107.132271 181.984889 
L 105.902623 179.668499 
L 104.484879 177.352109 
L 102.892869 175.035719 
L 101.158312 172.719329 
L 99.320974 170.402939 
L 97.418548 168.086549 
L 95.480061 165.770159 
L 93.525126 163.453769 
L 91.568897 161.137379 
L 89.630081 158.820989 
L 87.737896 156.504599 
L 85.934059 154.188209 
L 84.267752 151.871819 
L 82.784486 149.555429 
L 81.512593 147.239039 
L 80.452582 144.922649 
L 79.574068 142.606259 
L 78.822397 140.289869 
L 78.133456 137.973479 
L 77.452002 135.657089 
L 76.747406 133.340699 
L 76.021918 131.024309 
L 75.309576 128.707919 
L 74.667509 126.391529 
L 74.163766 124.075139 
L 73.865902 121.758748 
L 73.832727 119.442358 
L 74.109079 117.125968 
L 74.721977 114.809578 
L 75.676864 112.493188 
L 76.954411 110.176798 
L 78.510151 107.860408 
L 80.279492 105.544018 
L 82.188864 103.227628 
L 84.170832 100.911238 
L 86.178494 98.594848 
L 88.194006 96.278458 
L 90.228014 93.962068 
L 92.310263 91.645678 
L 94.474941 89.329288 
L 96.745961 87.012898 
L 99.126717 84.696508 
L 101.59656 82.380118 
L 104.113563 80.063728 
L 106.621333 77.747338 
L 109.057201 75.430948 
L 111.359832 73.114558 
L 113.475326 70.798168 
L 115.361717 68.481778 
L 116.991923 66.165388 
L 127.626681 66.165388 
L 127.626681 66.165388 
L 129.256887 68.481778 
L 131.143277 70.798168 
L 133.258772 73.114558 
L 135.561402 75.430948 
L 137.997271 77.747338 
L 140.50504 80.063728 
L 143.022043 82.380118 
L 145.491886 84.696508 
L 147.872643 87.012898 
L 150.143663 89.329288 
L 152.308341 91.645678 
L 154.39059 93.962068 
L 156.424598 96.278458 
L 158.44011 98.594848 
L 160.447772 100.911238 
L 162.42974 103.227628 
L 164.339112 105.544018 
L 166.108453 107.860408 
L 167.664193 110.176798 
L 168.941739 112.493188 
L 169.896627 114.809578 
L 170.509525 117.125968 
L 170.785877 119.442358 
L 170.752702 121.758748 
L 170.454838 124.075139 
L 169.951095 126.391529 
L 169.309028 128.707919 
L 168.596686 131.024309 
L 167.871198 133.340699 
L 167.166602 135.657089 
L 166.485147 137.973479 
L 165.796207 140.289869 
L 165.044535 142.606259 
L 164.166022 144.922649 
L 163.106011 147.239039 
L 161.834118 149.555429 
L 160.350852 151.871819 
L 158.684545 154.188209 
L 156.880707 156.504599 
L 154.988523 158.820989 
L 153.049706 161.137379 
L 151.093478 163.453769 
L 149.138543 165.770159 
L 147.200055 168.086549 
L 145.29763 170.402939 
L 143.460292 172.719329 
L 141.725735 175.035719 
L 140.133725 177.352109 
L 138.715981 179.668499 
L 137.486332 181.984889 
L 136.434958 184.301279 
L 135.529048 186.617669 
L 134.719945 188.934059 
L 133.954572 191.250449 
L 133.187606 193.566839 
L 132.390817 195.883229 
L 131.557208 198.199619 
L 130.699474 200.516009 
L 129.844074 202.832399 
L 129.023282 205.148789 
L 128.267622 207.465179 
L 127.600384 209.781569 
L 127.034865 212.097959 
L 126.574071 214.414349 
L 126.212149 216.730739 
L 125.936736 219.047129 
L 125.731565 221.363519 
L 125.578894 223.679909 
L 125.46143 225.996299 
L 125.363579 228.312689 
L 125.271971 230.629079 
L 125.17542 232.945469 
L 125.064679 235.261859 
L 124.932366 237.578249 
L 124.773363 239.89464 
L 124.585659 242.21103 
L 124.371285 244.52742 
L 124.136821 246.84381 
L 123.892978 249.1602 
L 123.653097 251.47659 
L 123.430769 253.79298 
L 123.237215 256.10937 
L 123.079154 258.42576 
L 122.957786 260.74215 
L 122.869171 263.05854 
L 122.805841 265.37493 
L 122.759112 267.69132 
L 122.7214 270.00771 
L 122.687874 272.3241 
L 122.657062 274.64049 
L 122.630344 276.95688 
L 122.610618 279.27327 
L 122.600625 281.58966 
L 122.601469 283.90605 
L 122.611773 286.22244 
L 122.627681 288.53883 
L 122.643654 290.85522 
L 122.653801 293.17161 
L 122.653316 295.488 
z
" clip-path="url(#p845cab5fc1)" style="fill: #1f77b4; fill-opacity: 0.3"/>
   </g>
   <g id="PolyCollection_2">
    <path d="M 245.162555 171.965076 
L 241.838922 171.965076 
L 241.601237 170.852914 
L 241.356865 169.740751 
L 241.108417 168.628588 
L 240.85784 167.516426 
L 240.606233 166.404263 
L 240.353739 165.2921 
L 240.099532 164.179938 
L 239.841882 163.067775 
L 239.578289 161.955612 
L 239.305668 160.84345 
L 239.020545 159.731287 
L 238.719255 158.619125 
L 238.398078 157.506962 
L 238.053316 156.394799 
L 237.681247 155.282637 
L 237.277994 154.170474 
L 236.839301 153.058311 
L 236.360297 151.946149 
L 235.835344 150.833986 
L 235.258054 149.721823 
L 234.621607 148.609661 
L 233.91939 147.497498 
L 233.145951 146.385335 
L 232.298169 145.273173 
L 231.376421 144.16101 
L 230.385538 143.048847 
L 229.335282 141.936685 
L 228.240166 140.824522 
L 227.11854 139.712359 
L 225.991005 138.600197 
L 224.878341 137.488034 
L 223.799285 136.375871 
L 222.768497 135.263709 
L 221.795076 134.151546 
L 220.881892 133.039383 
L 220.025834 131.927221 
L 219.218958 130.815058 
L 218.450311 129.702896 
L 217.708114 128.590733 
L 216.981922 127.47857 
L 216.26438 126.366408 
L 215.552291 125.254245 
L 214.846833 124.142082 
L 214.152921 123.02992 
L 213.477863 121.917757 
L 212.829554 120.805594 
L 212.214526 119.693432 
L 211.636166 118.581269 
L 211.093367 117.469106 
L 210.579806 116.356944 
L 210.083967 115.244781 
L 209.58992 114.132618 
L 209.078813 113.020456 
L 208.530917 111.908293 
L 207.928017 110.79613 
L 207.255847 109.683968 
L 206.506242 108.571805 
L 205.678652 107.459642 
L 204.78075 106.34748 
L 203.827975 105.235317 
L 202.842018 104.123154 
L 201.84848 103.010992 
L 200.874045 101.898829 
L 199.943656 100.786667 
L 199.078133 99.674504 
L 198.292603 98.562341 
L 197.595923 97.450179 
L 196.991082 96.338016 
L 196.476403 95.225853 
L 196.047226 94.113691 
L 195.697742 93.001528 
L 195.422683 91.889365 
L 195.218641 90.777203 
L 195.084959 89.66504 
L 195.024164 88.552877 
L 195.042043 87.440715 
L 195.147437 86.328552 
L 195.351849 85.216389 
L 195.668902 84.104227 
L 196.113689 82.992064 
L 196.701971 81.879901 
L 197.449256 80.767739 
L 198.369724 79.655576 
L 199.475071 78.543413 
L 200.773318 77.431251 
L 202.267713 76.319088 
L 203.955825 75.206926 
L 205.828971 74.094763 
L 207.872047 72.9826 
L 210.063815 71.870438 
L 212.377615 70.758275 
L 214.782445 69.646112 
L 217.244253 68.53395 
L 219.727351 67.421787 
L 222.195776 66.309624 
L 224.614551 65.197462 
L 226.950784 64.085299 
L 229.17461 62.973136 
L 231.260008 61.860974 
L 255.741469 61.860974 
L 255.741469 61.860974 
L 257.826867 62.973136 
L 260.050693 64.085299 
L 262.386926 65.197462 
L 264.805701 66.309624 
L 267.274126 67.421787 
L 269.757223 68.53395 
L 272.219032 69.646112 
L 274.623861 70.758275 
L 276.937662 71.870438 
L 279.12943 72.9826 
L 281.172506 74.094763 
L 283.045652 75.206926 
L 284.733764 76.319088 
L 286.228158 77.431251 
L 287.526406 78.543413 
L 288.631753 79.655576 
L 289.552221 80.767739 
L 290.299505 81.879901 
L 290.887788 82.992064 
L 291.332575 84.104227 
L 291.649628 85.216389 
L 291.854039 86.328552 
L 291.959434 87.440715 
L 291.977313 88.552877 
L 291.916518 89.66504 
L 291.782836 90.777203 
L 291.578794 91.889365 
L 291.303734 93.001528 
L 290.954251 94.113691 
L 290.525074 95.225853 
L 290.010395 96.338016 
L 289.405554 97.450179 
L 288.708873 98.562341 
L 287.923344 99.674504 
L 287.057821 100.786667 
L 286.127432 101.898829 
L 285.152997 103.010992 
L 284.159459 104.123154 
L 283.173502 105.235317 
L 282.220726 106.34748 
L 281.322825 107.459642 
L 280.495235 108.571805 
L 279.74563 109.683968 
L 279.07346 110.79613 
L 278.47056 111.908293 
L 277.922664 113.020456 
L 277.411557 114.132618 
L 276.91751 115.244781 
L 276.42167 116.356944 
L 275.90811 117.469106 
L 275.365311 118.581269 
L 274.786951 119.693432 
L 274.171923 120.805594 
L 273.523613 121.917757 
L 272.848555 123.02992 
L 272.154644 124.142082 
L 271.449186 125.254245 
L 270.737097 126.366408 
L 270.019555 127.47857 
L 269.293363 128.590733 
L 268.551166 129.702896 
L 267.782519 130.815058 
L 266.975643 131.927221 
L 266.119585 133.039383 
L 265.206401 134.151546 
L 264.23298 135.263709 
L 263.202191 136.375871 
L 262.123136 137.488034 
L 261.010472 138.600197 
L 259.882936 139.712359 
L 258.761311 140.824522 
L 257.666195 141.936685 
L 256.615939 143.048847 
L 255.625056 144.16101 
L 254.703308 145.273173 
L 253.855526 146.385335 
L 253.082087 147.497498 
L 252.37987 148.609661 
L 251.743423 149.721823 
L 251.166133 150.833986 
L 250.64118 151.946149 
L 250.162176 153.058311 
L 249.723483 154.170474 
L 249.32023 155.282637 
L 248.948161 156.394799 
L 248.603399 157.506962 
L 248.282222 158.619125 
L 247.980932 159.731287 
L 247.695809 160.84345 
L 247.423188 161.955612 
L 247.159595 163.067775 
L 246.901945 164.179938 
L 246.647738 165.2921 
L 246.395244 166.404263 
L 246.143637 167.516426 
L 245.89306 168.628588 
L 245.644612 169.740751 
L 245.40024 170.852914 
L 245.162555 171.965076 
z
" clip-path="url(#p845cab5fc1)" style="fill: #1f77b4; fill-opacity: 0.3"/>
   </g>
   <g id="PolyCollection_3">
    <path d="M 350.35099 144.765772 
L 349.670407 144.765772 
L 349.673328 143.844582 
L 349.684892 142.923393 
L 349.703024 142.002203 
L 349.724725 141.081013 
L 349.746329 140.159824 
L 349.763792 139.238634 
L 349.772957 138.317444 
L 349.76972 137.396255 
L 349.750094 136.475065 
L 349.710138 135.553876 
L 349.645787 134.632686 
L 349.552638 133.711496 
L 349.425757 132.790307 
L 349.259596 131.869117 
L 349.048117 130.947928 
L 348.785161 130.026738 
L 348.465117 129.105548 
L 348.083809 128.184359 
L 347.639518 127.263169 
L 347.133929 126.34198 
L 346.572817 125.42079 
L 345.966241 124.4996 
L 345.328111 123.578411 
L 344.675078 122.657221 
L 344.024827 121.736031 
L 343.393978 120.814842 
L 342.795895 119.893652 
L 342.23874 118.972463 
L 341.724102 118.051273 
L 341.24646 117.130083 
L 340.793577 116.208894 
L 340.347832 115.287704 
L 339.888279 114.366515 
L 339.39314 113.445325 
L 338.842339 112.524135 
L 338.219671 111.602946 
L 337.514291 110.681756 
L 336.721319 109.760566 
L 335.84155 108.839377 
L 334.880455 107.918187 
L 333.846794 106.996998 
L 332.751244 106.075808 
L 331.605419 105.154618 
L 330.421523 104.233429 
L 329.212688 103.312239 
L 327.993806 102.39105 
L 326.782471 101.46986 
L 325.599555 100.54867 
L 324.468957 99.627481 
L 323.416259 98.706291 
L 322.466277 97.785101 
L 321.639843 96.863912 
L 320.950409 95.942722 
L 320.401223 95.021533 
L 319.983767 94.100343 
L 319.677949 93.179153 
L 319.454134 92.257964 
L 319.276745 91.336774 
L 319.10875 90.415585 
L 318.916211 89.494395 
L 318.672039 88.573205 
L 318.358319 87.652016 
L 317.966921 86.730826 
L 317.498486 85.809636 
L 316.960235 84.888447 
L 316.363248 83.967257 
L 315.719861 83.046068 
L 315.041732 82.124878 
L 314.338791 81.203688 
L 313.619078 80.282499 
L 312.889158 79.361309 
L 312.154752 78.44012 
L 311.421188 77.51893 
L 310.693463 76.59774 
L 309.975874 75.676551 
L 309.271368 74.755361 
L 308.58087 73.834172 
L 307.902884 72.912982 
L 307.233581 71.991792 
L 306.56752 71.070603 
L 305.89902 70.149413 
L 305.224141 69.228223 
L 304.543165 68.307034 
L 303.863377 67.385844 
L 303.201891 66.464655 
L 302.588115 65.543465 
L 302.065336 64.622275 
L 301.690857 63.701086 
L 301.534123 62.779896 
L 301.672477 61.858707 
L 302.184535 60.937517 
L 303.141632 60.016327 
L 304.59829 59.095138 
L 306.583062 58.173948 
L 309.0913 57.252758 
L 312.081309 56.331569 
L 315.474874 55.410379 
L 319.162503 54.48919 
L 323.012849 53.568 
L 377.008547 53.568 
L 377.008547 53.568 
L 380.858893 54.48919 
L 384.546523 55.410379 
L 387.940088 56.331569 
L 390.930096 57.252758 
L 393.438335 58.173948 
L 395.423106 59.095138 
L 396.879764 60.016327 
L 397.836861 60.937517 
L 398.348919 61.858707 
L 398.487273 62.779896 
L 398.330539 63.701086 
L 397.956061 64.622275 
L 397.433281 65.543465 
L 396.819505 66.464655 
L 396.158019 67.385844 
L 395.478231 68.307034 
L 394.797255 69.228223 
L 394.122376 70.149413 
L 393.453876 71.070603 
L 392.787815 71.991792 
L 392.118513 72.912982 
L 391.440526 73.834172 
L 390.750028 74.755361 
L 390.045522 75.676551 
L 389.327933 76.59774 
L 388.600208 77.51893 
L 387.866644 78.44012 
L 387.132238 79.361309 
L 386.402318 80.282499 
L 385.682605 81.203688 
L 384.979664 82.124878 
L 384.301535 83.046068 
L 383.658149 83.967257 
L 383.061161 84.888447 
L 382.52291 85.809636 
L 382.054475 86.730826 
L 381.663077 87.652016 
L 381.349358 88.573205 
L 381.105185 89.494395 
L 380.912647 90.415585 
L 380.744652 91.336774 
L 380.567262 92.257964 
L 380.343448 93.179153 
L 380.037629 94.100343 
L 379.620174 95.021533 
L 379.070987 95.942722 
L 378.381554 96.863912 
L 377.555119 97.785101 
L 376.605137 98.706291 
L 375.552439 99.627481 
L 374.421842 100.54867 
L 373.238925 101.46986 
L 372.02759 102.39105 
L 370.808708 103.312239 
L 369.599873 104.233429 
L 368.415977 105.154618 
L 367.270152 106.075808 
L 366.174602 106.996998 
L 365.140942 107.918187 
L 364.179847 108.839377 
L 363.300077 109.760566 
L 362.507105 110.681756 
L 361.801726 111.602946 
L 361.179058 112.524135 
L 360.628256 113.445325 
L 360.133117 114.366515 
L 359.673564 115.287704 
L 359.227819 116.208894 
L 358.774937 117.130083 
L 358.297294 118.051273 
L 357.782657 118.972463 
L 357.225501 119.893652 
L 356.627418 120.814842 
L 355.996569 121.736031 
L 355.346318 122.657221 
L 354.693285 123.578411 
L 354.055155 124.4996 
L 353.448579 125.42079 
L 352.887467 126.34198 
L 352.381878 127.263169 
L 351.937587 128.184359 
L 351.55628 129.105548 
L 351.236235 130.026738 
L 350.97328 130.947928 
L 350.7618 131.869117 
L 350.59564 132.790307 
L 350.468758 133.711496 
L 350.375609 134.632686 
L 350.311258 135.553876 
L 350.271302 136.475065 
L 350.251676 137.396255 
L 350.24844 138.317444 
L 350.257604 139.238634 
L 350.275068 140.159824 
L 350.296671 141.081013 
L 350.318373 142.002203 
L 350.336505 142.923393 
L 350.348068 143.844582 
L 350.35099 144.765772 
z
" clip-path="url(#p845cab5fc1)" style="fill: #1f77b4; fill-opacity: 0.3"/>
   </g>
   <g id="matplotlib.axis_1">
    <g id="xtick_1">
     <g id="line2d_1">
      <path d="M 70.370115 307.584 
L 70.370115 41.472 
" clip-path="url(#p845cab5fc1)" style="fill: none; stroke-dasharray: 2.96,1.28; stroke-dashoffset: 0; stroke: #b0b0b0; stroke-width: 0.8"/>
     </g>
     <g id="line2d_2">
      <defs>
       <path id="m563251c723" d="M 0 0 
L 0 3.5 
" style="stroke: #000000; stroke-width: 0.8"/>
      </defs>
      <g>
       <use xlink:href="#m563251c723" x="70.370115" y="307.584" style="stroke: #000000; stroke-width: 0.8"/>
      </g>
     </g>
     <g id="text_1">
      <!-- 1000 -->
      <g transform="translate(57.645115 322.182437)scale(0.1 -0.1)">
       <defs>
        <path id="DejaVuSans-31" d="M 794 531 
L 1825 531 
L 1825 4091 
L 703 3866 
L 703 4441 
L 1819 4666 
L 2450 4666 
L 2450 531 
L 3481 531 
L 3481 0 
L 794 0 
L 794 531 
z
" transform="scale(0.015625)"/>
        <path id="DejaVuSans-30" d="M 2034 4250 
Q 1547 4250 1301 3770 
Q 1056 3291 1056 2328 
Q 1056 1369 1301 889 
Q 1547 409 2034 409 
Q 2525 409 2770 889 
Q 3016 1369 3016 2328 
Q 3016 3291 2770 3770 
Q 2525 4250 2034 4250 
z
M 2034 4750 
Q 2819 4750 3233 4129 
Q 3647 3509 3647 2328 
Q 3647 1150 3233 529 
Q 2819 -91 2034 -91 
Q 1250 -91 836 529 
Q 422 1150 422 2328 
Q 422 3509 836 4129 
Q 1250 4750 2034 4750 
z
" transform="scale(0.015625)"/>
       </defs>
       <use xlink:href="#DejaVuSans-31"/>
       <use xlink:href="#DejaVuSans-30" x="63.623047"/>
       <use xlink:href="#DejaVuSans-30" x="127.246094"/>
       <use xlink:href="#DejaVuSans-30" x="190.869141"/>
      </g>
     </g>
    </g>
    <g id="xtick_2">
     <g id="line2d_3">
      <path d="M 139.622364 307.584 
L 139.622364 41.472 
" clip-path="url(#p845cab5fc1)" style="fill: none; stroke-dasharray: 2.96,1.28; stroke-dashoffset: 0; stroke: #b0b0b0; stroke-width: 0.8"/>
     </g>
     <g id="line2d_4">
      <g>
       <use xlink:href="#m563251c723" x="139.622364" y="307.584" style="stroke: #000000; stroke-width: 0.8"/>
      </g>
     </g>
     <g id="text_2">
      <!-- 2000 -->
      <g transform="translate(126.897364 322.182437)scale(0.1 -0.1)">
       <defs>
        <path id="DejaVuSans-32" d="M 1228 531 
L 3431 531 
L 3431 0 
L 469 0 
L 469 531 
Q 828 903 1448 1529 
Q 2069 2156 2228 2338 
Q 2531 2678 2651 2914 
Q 2772 3150 2772 3378 
Q 2772 3750 2511 3984 
Q 2250 4219 1831 4219 
Q 1534 4219 1204 4116 
Q 875 4013 500 3803 
L 500 4441 
Q 881 4594 1212 4672 
Q 1544 4750 1819 4750 
Q 2544 4750 2975 4387 
Q 3406 4025 3406 3419 
Q 3406 3131 3298 2873 
Q 3191 2616 2906 2266 
Q 2828 2175 2409 1742 
Q 1991 1309 1228 531 
z
" transform="scale(0.015625)"/>
       </defs>
       <use xlink:href="#DejaVuSans-32"/>
       <use xlink:href="#DejaVuSans-30" x="63.623047"/>
       <use xlink:href="#DejaVuSans-30" x="127.246094"/>
       <use xlink:href="#DejaVuSans-30" x="190.869141"/>
      </g>
     </g>
    </g>
    <g id="xtick_3">
     <g id="line2d_5">
      <path d="M 208.874614 307.584 
L 208.874614 41.472 
" clip-path="url(#p845cab5fc1)" style="fill: none; stroke-dasharray: 2.96,1.28; stroke-dashoffset: 0; stroke: #b0b0b0; stroke-width: 0.8"/>
     </g>
     <g id="line2d_6">
      <g>
       <use xlink:href="#m563251c723" x="208.874614" y="307.584" style="stroke: #000000; stroke-width: 0.8"/>
      </g>
     </g>
     <g id="text_3">
      <!-- 3000 -->
      <g transform="translate(196.149614 322.182437)scale(0.1 -0.1)">
       <defs>
        <path id="DejaVuSans-33" d="M 2597 2516 
Q 3050 2419 3304 2112 
Q 3559 1806 3559 1356 
Q 3559 666 3084 287 
Q 2609 -91 1734 -91 
Q 1441 -91 1130 -33 
Q 819 25 488 141 
L 488 750 
Q 750 597 1062 519 
Q 1375 441 1716 441 
Q 2309 441 2620 675 
Q 2931 909 2931 1356 
Q 2931 1769 2642 2001 
Q 2353 2234 1838 2234 
L 1294 2234 
L 1294 2753 
L 1863 2753 
Q 2328 2753 2575 2939 
Q 2822 3125 2822 3475 
Q 2822 3834 2567 4026 
Q 2313 4219 1838 4219 
Q 1578 4219 1281 4162 
Q 984 4106 628 3988 
L 628 4550 
Q 988 4650 1302 4700 
Q 1616 4750 1894 4750 
Q 2613 4750 3031 4423 
Q 3450 4097 3450 3541 
Q 3450 3153 3228 2886 
Q 3006 2619 2597 2516 
z
" transform="scale(0.015625)"/>
       </defs>
       <use xlink:href="#DejaVuSans-33"/>
       <use xlink:href="#DejaVuSans-30" x="63.623047"/>
       <use xlink:href="#DejaVuSans-30" x="127.246094"/>
       <use xlink:href="#DejaVuSans-30" x="190.869141"/>
      </g>
     </g>
    </g>
    <g id="xtick_4">
     <g id="line2d_7">
      <path d="M 278.126863 307.584 
L 278.126863 41.472 
" clip-path="url(#p845cab5fc1)" style="fill: none; stroke-dasharray: 2.96,1.28; stroke-dashoffset: 0; stroke: #b0b0b0; stroke-width: 0.8"/>
     </g>
     <g id="line2d_8">
      <g>
       <use xlink:href="#m563251c723" x="278.126863" y="307.584" style="stroke: #000000; stroke-width: 0.8"/>
      </g>
     </g>
     <g id="text_4">
      <!-- 4000 -->
      <g transform="translate(265.401863 322.182437)scale(0.1 -0.1)">
       <defs>
        <path id="DejaVuSans-34" d="M 2419 4116 
L 825 1625 
L 2419 1625 
L 2419 4116 
z
M 2253 4666 
L 3047 4666 
L 3047 1625 
L 3713 1625 
L 3713 1100 
L 3047 1100 
L 3047 0 
L 2419 0 
L 2419 1100 
L 313 1100 
L 313 1709 
L 2253 4666 
z
" transform="scale(0.015625)"/>
       </defs>
       <use xlink:href="#DejaVuSans-34"/>
       <use xlink:href="#DejaVuSans-30" x="63.623047"/>
       <use xlink:href="#DejaVuSans-30" x="127.246094"/>
       <use xlink:href="#DejaVuSans-30" x="190.869141"/>
      </g>
     </g>
    </g>
    <g id="xtick_5">
     <g id="line2d_9">
      <path d="M 347.379113 307.584 
L 347.379113 41.472 
" clip-path="url(#p845cab5fc1)" style="fill: none; stroke-dasharray: 2.96,1.28; stroke-dashoffset: 0; stroke: #b0b0b0; stroke-width: 0.8"/>
     </g>
     <g id="line2d_10">
      <g>
       <use xlink:href="#m563251c723" x="347.379113" y="307.584" style="stroke: #000000; stroke-width: 0.8"/>
      </g>
     </g>
     <g id="text_5">
      <!-- 5000 -->
      <g transform="translate(334.654113 322.182437)scale(0.1 -0.1)">
       <defs>
        <path id="DejaVuSans-35" d="M 691 4666 
L 3169 4666 
L 3169 4134 
L 1269 4134 
L 1269 2991 
Q 1406 3038 1543 3061 
Q 1681 3084 1819 3084 
Q 2600 3084 3056 2656 
Q 3513 2228 3513 1497 
Q 3513 744 3044 326 
Q 2575 -91 1722 -91 
Q 1428 -91 1123 -41 
Q 819 9 494 109 
L 494 744 
Q 775 591 1075 516 
Q 1375 441 1709 441 
Q 2250 441 2565 725 
Q 2881 1009 2881 1497 
Q 2881 1984 2565 2268 
Q 2250 2553 1709 2553 
Q 1456 2553 1204 2497 
Q 953 2441 691 2322 
L 691 4666 
z
" transform="scale(0.015625)"/>
       </defs>
       <use xlink:href="#DejaVuSans-35"/>
       <use xlink:href="#DejaVuSans-30" x="63.623047"/>
       <use xlink:href="#DejaVuSans-30" x="127.246094"/>
       <use xlink:href="#DejaVuSans-30" x="190.869141"/>
      </g>
     </g>
    </g>
    <g id="text_6">
     <!-- Learned Episodes -->
     <g transform="translate(192.102187 335.860562)scale(0.1 -0.1)">
      <defs>
       <path id="DejaVuSans-4c" d="M 628 4666 
L 1259 4666 
L 1259 531 
L 3531 531 
L 3531 0 
L 628 0 
L 628 4666 
z
" transform="scale(0.015625)"/>
       <path id="DejaVuSans-65" d="M 3597 1894 
L 3597 1613 
L 953 1613 
Q 991 1019 1311 708 
Q 1631 397 2203 397 
Q 2534 397 2845 478 
Q 3156 559 3463 722 
L 3463 178 
Q 3153 47 2828 -22 
Q 2503 -91 2169 -91 
Q 1331 -91 842 396 
Q 353 884 353 1716 
Q 353 2575 817 3079 
Q 1281 3584 2069 3584 
Q 2775 3584 3186 3129 
Q 3597 2675 3597 1894 
z
M 3022 2063 
Q 3016 2534 2758 2815 
Q 2500 3097 2075 3097 
Q 1594 3097 1305 2825 
Q 1016 2553 972 2059 
L 3022 2063 
z
" transform="scale(0.015625)"/>
       <path id="DejaVuSans-61" d="M 2194 1759 
Q 1497 1759 1228 1600 
Q 959 1441 959 1056 
Q 959 750 1161 570 
Q 1363 391 1709 391 
Q 2188 391 2477 730 
Q 2766 1069 2766 1631 
L 2766 1759 
L 2194 1759 
z
M 3341 1997 
L 3341 0 
L 2766 0 
L 2766 531 
Q 2569 213 2275 61 
Q 1981 -91 1556 -91 
Q 1019 -91 701 211 
Q 384 513 384 1019 
Q 384 1609 779 1909 
Q 1175 2209 1959 2209 
L 2766 2209 
L 2766 2266 
Q 2766 2663 2505 2880 
Q 2244 3097 1772 3097 
Q 1472 3097 1187 3025 
Q 903 2953 641 2809 
L 641 3341 
Q 956 3463 1253 3523 
Q 1550 3584 1831 3584 
Q 2591 3584 2966 3190 
Q 3341 2797 3341 1997 
z
" transform="scale(0.015625)"/>
       <path id="DejaVuSans-72" d="M 2631 2963 
Q 2534 3019 2420 3045 
Q 2306 3072 2169 3072 
Q 1681 3072 1420 2755 
Q 1159 2438 1159 1844 
L 1159 0 
L 581 0 
L 581 3500 
L 1159 3500 
L 1159 2956 
Q 1341 3275 1631 3429 
Q 1922 3584 2338 3584 
Q 2397 3584 2469 3576 
Q 2541 3569 2628 3553 
L 2631 2963 
z
" transform="scale(0.015625)"/>
       <path id="DejaVuSans-6e" d="M 3513 2113 
L 3513 0 
L 2938 0 
L 2938 2094 
Q 2938 2591 2744 2837 
Q 2550 3084 2163 3084 
Q 1697 3084 1428 2787 
Q 1159 2491 1159 1978 
L 1159 0 
L 581 0 
L 581 3500 
L 1159 3500 
L 1159 2956 
Q 1366 3272 1645 3428 
Q 1925 3584 2291 3584 
Q 2894 3584 3203 3211 
Q 3513 2838 3513 2113 
z
" transform="scale(0.015625)"/>
       <path id="DejaVuSans-64" d="M 2906 2969 
L 2906 4863 
L 3481 4863 
L 3481 0 
L 2906 0 
L 2906 525 
Q 2725 213 2448 61 
Q 2172 -91 1784 -91 
Q 1150 -91 751 415 
Q 353 922 353 1747 
Q 353 2572 751 3078 
Q 1150 3584 1784 3584 
Q 2172 3584 2448 3432 
Q 2725 3281 2906 2969 
z
M 947 1747 
Q 947 1113 1208 752 
Q 1469 391 1925 391 
Q 2381 391 2643 752 
Q 2906 1113 2906 1747 
Q 2906 2381 2643 2742 
Q 2381 3103 1925 3103 
Q 1469 3103 1208 2742 
Q 947 2381 947 1747 
z
" transform="scale(0.015625)"/>
       <path id="DejaVuSans-20" transform="scale(0.015625)"/>
       <path id="DejaVuSans-45" d="M 628 4666 
L 3578 4666 
L 3578 4134 
L 1259 4134 
L 1259 2753 
L 3481 2753 
L 3481 2222 
L 1259 2222 
L 1259 531 
L 3634 531 
L 3634 0 
L 628 0 
L 628 4666 
z
" transform="scale(0.015625)"/>
       <path id="DejaVuSans-70" d="M 1159 525 
L 1159 -1331 
L 581 -1331 
L 581 3500 
L 1159 3500 
L 1159 2969 
Q 1341 3281 1617 3432 
Q 1894 3584 2278 3584 
Q 2916 3584 3314 3078 
Q 3713 2572 3713 1747 
Q 3713 922 3314 415 
Q 2916 -91 2278 -91 
Q 1894 -91 1617 61 
Q 1341 213 1159 525 
z
M 3116 1747 
Q 3116 2381 2855 2742 
Q 2594 3103 2138 3103 
Q 1681 3103 1420 2742 
Q 1159 2381 1159 1747 
Q 1159 1113 1420 752 
Q 1681 391 2138 391 
Q 2594 391 2855 752 
Q 3116 1113 3116 1747 
z
" transform="scale(0.015625)"/>
       <path id="DejaVuSans-69" d="M 603 3500 
L 1178 3500 
L 1178 0 
L 603 0 
L 603 3500 
z
M 603 4863 
L 1178 4863 
L 1178 4134 
L 603 4134 
L 603 4863 
z
" transform="scale(0.015625)"/>
       <path id="DejaVuSans-73" d="M 2834 3397 
L 2834 2853 
Q 2591 2978 2328 3040 
Q 2066 3103 1784 3103 
Q 1356 3103 1142 2972 
Q 928 2841 928 2578 
Q 928 2378 1081 2264 
Q 1234 2150 1697 2047 
L 1894 2003 
Q 2506 1872 2764 1633 
Q 3022 1394 3022 966 
Q 3022 478 2636 193 
Q 2250 -91 1575 -91 
Q 1294 -91 989 -36 
Q 684 19 347 128 
L 347 722 
Q 666 556 975 473 
Q 1284 391 1588 391 
Q 1994 391 2212 530 
Q 2431 669 2431 922 
Q 2431 1156 2273 1281 
Q 2116 1406 1581 1522 
L 1381 1569 
Q 847 1681 609 1914 
Q 372 2147 372 2553 
Q 372 3047 722 3315 
Q 1072 3584 1716 3584 
Q 2034 3584 2315 3537 
Q 2597 3491 2834 3397 
z
" transform="scale(0.015625)"/>
       <path id="DejaVuSans-6f" d="M 1959 3097 
Q 1497 3097 1228 2736 
Q 959 2375 959 1747 
Q 959 1119 1226 758 
Q 1494 397 1959 397 
Q 2419 397 2687 759 
Q 2956 1122 2956 1747 
Q 2956 2369 2687 2733 
Q 2419 3097 1959 3097 
z
M 1959 3584 
Q 2709 3584 3137 3096 
Q 3566 2609 3566 1747 
Q 3566 888 3137 398 
Q 2709 -91 1959 -91 
Q 1206 -91 779 398 
Q 353 888 353 1747 
Q 353 2609 779 3096 
Q 1206 3584 1959 3584 
z
" transform="scale(0.015625)"/>
      </defs>
      <use xlink:href="#DejaVuSans-4c"/>
      <use xlink:href="#DejaVuSans-65" x="53.962891"/>
      <use xlink:href="#DejaVuSans-61" x="115.486328"/>
      <use xlink:href="#DejaVuSans-72" x="176.765625"/>
      <use xlink:href="#DejaVuSans-6e" x="216.128906"/>
      <use xlink:href="#DejaVuSans-65" x="279.507812"/>
      <use xlink:href="#DejaVuSans-64" x="341.03125"/>
      <use xlink:href="#DejaVuSans-20" x="404.507812"/>
      <use xlink:href="#DejaVuSans-45" x="436.294922"/>
      <use xlink:href="#DejaVuSans-70" x="499.478516"/>
      <use xlink:href="#DejaVuSans-69" x="562.955078"/>
      <use xlink:href="#DejaVuSans-73" x="590.738281"/>
      <use xlink:href="#DejaVuSans-6f" x="642.837891"/>
      <use xlink:href="#DejaVuSans-64" x="704.019531"/>
      <use xlink:href="#DejaVuSans-65" x="767.496094"/>
      <use xlink:href="#DejaVuSans-73" x="829.019531"/>
     </g>
    </g>
   </g>
   <g id="matplotlib.axis_2">
    <g id="ytick_1">
     <g id="line2d_11">
      <path d="M 57.6 295.154834 
L 414.72 295.154834 
" clip-path="url(#p845cab5fc1)" style="fill: none; stroke-dasharray: 2.96,1.28; stroke-dashoffset: 0; stroke: #b0b0b0; stroke-width: 0.8"/>
     </g>
     <g id="line2d_12">
      <defs>
       <path id="mf95bbfba29" d="M 0 0 
L -3.5 0 
" style="stroke: #000000; stroke-width: 0.8"/>
      </defs>
      <g>
       <use xlink:href="#mf95bbfba29" x="57.6" y="295.154834" style="stroke: #000000; stroke-width: 0.8"/>
      </g>
     </g>
     <g id="text_7">
      <!-- −300 -->
      <g transform="translate(23.132812 298.954052)scale(0.1 -0.1)">
       <defs>
        <path id="DejaVuSans-2212" d="M 678 2272 
L 4684 2272 
L 4684 1741 
L 678 1741 
L 678 2272 
z
" transform="scale(0.015625)"/>
       </defs>
       <use xlink:href="#DejaVuSans-2212"/>
       <use xlink:href="#DejaVuSans-33" x="83.789062"/>
       <use xlink:href="#DejaVuSans-30" x="147.412109"/>
       <use xlink:href="#DejaVuSans-30" x="211.035156"/>
      </g>
     </g>
    </g>
    <g id="ytick_2">
     <g id="line2d_13">
      <path d="M 57.6 254.771322 
L 414.72 254.771322 
" clip-path="url(#p845cab5fc1)" style="fill: none; stroke-dasharray: 2.96,1.28; stroke-dashoffset: 0; stroke: #b0b0b0; stroke-width: 0.8"/>
     </g>
     <g id="line2d_14">
      <g>
       <use xlink:href="#mf95bbfba29" x="57.6" y="254.771322" style="stroke: #000000; stroke-width: 0.8"/>
      </g>
     </g>
     <g id="text_8">
      <!-- −250 -->
      <g transform="translate(23.132812 258.570541)scale(0.1 -0.1)">
       <use xlink:href="#DejaVuSans-2212"/>
       <use xlink:href="#DejaVuSans-32" x="83.789062"/>
       <use xlink:href="#DejaVuSans-35" x="147.412109"/>
       <use xlink:href="#DejaVuSans-30" x="211.035156"/>
      </g>
     </g>
    </g>
    <g id="ytick_3">
     <g id="line2d_15">
      <path d="M 57.6 214.387811 
L 414.72 214.387811 
" clip-path="url(#p845cab5fc1)" style="fill: none; stroke-dasharray: 2.96,1.28; stroke-dashoffset: 0; stroke: #b0b0b0; stroke-width: 0.8"/>
     </g>
     <g id="line2d_16">
      <g>
       <use xlink:href="#mf95bbfba29" x="57.6" y="214.387811" style="stroke: #000000; stroke-width: 0.8"/>
      </g>
     </g>
     <g id="text_9">
      <!-- −200 -->
      <g transform="translate(23.132812 218.18703)scale(0.1 -0.1)">
       <use xlink:href="#DejaVuSans-2212"/>
       <use xlink:href="#DejaVuSans-32" x="83.789062"/>
       <use xlink:href="#DejaVuSans-30" x="147.412109"/>
       <use xlink:href="#DejaVuSans-30" x="211.035156"/>
      </g>
     </g>
    </g>
    <g id="ytick_4">
     <g id="line2d_17">
      <path d="M 57.6 174.0043 
L 414.72 174.0043 
" clip-path="url(#p845cab5fc1)" style="fill: none; stroke-dasharray: 2.96,1.28; stroke-dashoffset: 0; stroke: #b0b0b0; stroke-width: 0.8"/>
     </g>
     <g id="line2d_18">
      <g>
       <use xlink:href="#mf95bbfba29" x="57.6" y="174.0043" style="stroke: #000000; stroke-width: 0.8"/>
      </g>
     </g>
     <g id="text_10">
      <!-- −150 -->
      <g transform="translate(23.132812 177.803519)scale(0.1 -0.1)">
       <use xlink:href="#DejaVuSans-2212"/>
       <use xlink:href="#DejaVuSans-31" x="83.789062"/>
       <use xlink:href="#DejaVuSans-35" x="147.412109"/>
       <use xlink:href="#DejaVuSans-30" x="211.035156"/>
      </g>
     </g>
    </g>
    <g id="ytick_5">
     <g id="line2d_19">
      <path d="M 57.6 133.620789 
L 414.72 133.620789 
" clip-path="url(#p845cab5fc1)" style="fill: none; stroke-dasharray: 2.96,1.28; stroke-dashoffset: 0; stroke: #b0b0b0; stroke-width: 0.8"/>
     </g>
     <g id="line2d_20">
      <g>
       <use xlink:href="#mf95bbfba29" x="57.6" y="133.620789" style="stroke: #000000; stroke-width: 0.8"/>
      </g>
     </g>
     <g id="text_11">
      <!-- −100 -->
      <g transform="translate(23.132812 137.420008)scale(0.1 -0.1)">
       <use xlink:href="#DejaVuSans-2212"/>
       <use xlink:href="#DejaVuSans-31" x="83.789062"/>
       <use xlink:href="#DejaVuSans-30" x="147.412109"/>
       <use xlink:href="#DejaVuSans-30" x="211.035156"/>
      </g>
     </g>
    </g>
    <g id="ytick_6">
     <g id="line2d_21">
      <path d="M 57.6 93.237278 
L 414.72 93.237278 
" clip-path="url(#p845cab5fc1)" style="fill: none; stroke-dasharray: 2.96,1.28; stroke-dashoffset: 0; stroke: #b0b0b0; stroke-width: 0.8"/>
     </g>
     <g id="line2d_22">
      <g>
       <use xlink:href="#mf95bbfba29" x="57.6" y="93.237278" style="stroke: #000000; stroke-width: 0.8"/>
      </g>
     </g>
     <g id="text_12">
      <!-- −50 -->
      <g transform="translate(29.495313 97.036497)scale(0.1 -0.1)">
       <use xlink:href="#DejaVuSans-2212"/>
       <use xlink:href="#DejaVuSans-35" x="83.789062"/>
       <use xlink:href="#DejaVuSans-30" x="147.412109"/>
      </g>
     </g>
    </g>
    <g id="ytick_7">
     <g id="line2d_23">
      <path d="M 57.6 52.853767 
L 414.72 52.853767 
" clip-path="url(#p845cab5fc1)" style="fill: none; stroke-dasharray: 2.96,1.28; stroke-dashoffset: 0; stroke: #b0b0b0; stroke-width: 0.8"/>
     </g>
     <g id="line2d_24">
      <g>
       <use xlink:href="#mf95bbfba29" x="57.6" y="52.853767" style="stroke: #000000; stroke-width: 0.8"/>
      </g>
     </g>
     <g id="text_13">
      <!-- 0 -->
      <g transform="translate(44.2375 56.652986)scale(0.1 -0.1)">
       <use xlink:href="#DejaVuSans-30"/>
      </g>
     </g>
    </g>
    <g id="text_14">
     <!-- Reward Density -->
     <g transform="translate(17.053125 213.74675)rotate(-90)scale(0.1 -0.1)">
      <defs>
       <path id="DejaVuSans-52" d="M 2841 2188 
Q 3044 2119 3236 1894 
Q 3428 1669 3622 1275 
L 4263 0 
L 3584 0 
L 2988 1197 
Q 2756 1666 2539 1819 
Q 2322 1972 1947 1972 
L 1259 1972 
L 1259 0 
L 628 0 
L 628 4666 
L 2053 4666 
Q 2853 4666 3247 4331 
Q 3641 3997 3641 3322 
Q 3641 2881 3436 2590 
Q 3231 2300 2841 2188 
z
M 1259 4147 
L 1259 2491 
L 2053 2491 
Q 2509 2491 2742 2702 
Q 2975 2913 2975 3322 
Q 2975 3731 2742 3939 
Q 2509 4147 2053 4147 
L 1259 4147 
z
" transform="scale(0.015625)"/>
       <path id="DejaVuSans-77" d="M 269 3500 
L 844 3500 
L 1563 769 
L 2278 3500 
L 2956 3500 
L 3675 769 
L 4391 3500 
L 4966 3500 
L 4050 0 
L 3372 0 
L 2619 2869 
L 1863 0 
L 1184 0 
L 269 3500 
z
" transform="scale(0.015625)"/>
       <path id="DejaVuSans-44" d="M 1259 4147 
L 1259 519 
L 2022 519 
Q 2988 519 3436 956 
Q 3884 1394 3884 2338 
Q 3884 3275 3436 3711 
Q 2988 4147 2022 4147 
L 1259 4147 
z
M 628 4666 
L 1925 4666 
Q 3281 4666 3915 4102 
Q 4550 3538 4550 2338 
Q 4550 1131 3912 565 
Q 3275 0 1925 0 
L 628 0 
L 628 4666 
z
" transform="scale(0.015625)"/>
       <path id="DejaVuSans-74" d="M 1172 4494 
L 1172 3500 
L 2356 3500 
L 2356 3053 
L 1172 3053 
L 1172 1153 
Q 1172 725 1289 603 
Q 1406 481 1766 481 
L 2356 481 
L 2356 0 
L 1766 0 
Q 1100 0 847 248 
Q 594 497 594 1153 
L 594 3053 
L 172 3053 
L 172 3500 
L 594 3500 
L 594 4494 
L 1172 4494 
z
" transform="scale(0.015625)"/>
       <path id="DejaVuSans-79" d="M 2059 -325 
Q 1816 -950 1584 -1140 
Q 1353 -1331 966 -1331 
L 506 -1331 
L 506 -850 
L 844 -850 
Q 1081 -850 1212 -737 
Q 1344 -625 1503 -206 
L 1606 56 
L 191 3500 
L 800 3500 
L 1894 763 
L 2988 3500 
L 3597 3500 
L 2059 -325 
z
" transform="scale(0.015625)"/>
      </defs>
      <use xlink:href="#DejaVuSans-52"/>
      <use xlink:href="#DejaVuSans-65" x="64.982422"/>
      <use xlink:href="#DejaVuSans-77" x="126.505859"/>
      <use xlink:href="#DejaVuSans-61" x="208.292969"/>
      <use xlink:href="#DejaVuSans-72" x="269.572266"/>
      <use xlink:href="#DejaVuSans-64" x="308.935547"/>
      <use xlink:href="#DejaVuSans-20" x="372.412109"/>
      <use xlink:href="#DejaVuSans-44" x="404.199219"/>
      <use xlink:href="#DejaVuSans-65" x="481.201172"/>
      <use xlink:href="#DejaVuSans-6e" x="542.724609"/>
      <use xlink:href="#DejaVuSans-73" x="606.103516"/>
      <use xlink:href="#DejaVuSans-69" x="658.203125"/>
      <use xlink:href="#DejaVuSans-74" x="685.986328"/>
      <use xlink:href="#DejaVuSans-79" x="725.195312"/>
     </g>
    </g>
   </g>
   <g id="LineCollection_1">
    <path d="M 98.071015 134.239725 
L 146.547589 134.239725 
" clip-path="url(#p845cab5fc1)" style="fill: none; stroke: #1f77b4; stroke-width: 1.5"/>
    <path d="M 219.262451 101.785042 
L 267.739026 101.785042 
" clip-path="url(#p845cab5fc1)" style="fill: none; stroke: #1f77b4; stroke-width: 1.5"/>
    <path d="M 325.772411 79.089529 
L 374.248985 79.089529 
" clip-path="url(#p845cab5fc1)" style="fill: none; stroke: #1f77b4; stroke-width: 1.5"/>
   </g>
   <g id="LineCollection_2">
    <path d="M 98.071015 66.165388 
L 146.547589 66.165388 
" clip-path="url(#p845cab5fc1)" style="fill: none; stroke: #1f77b4; stroke-width: 1.5"/>
    <path d="M 219.262451 61.860974 
L 267.739026 61.860974 
" clip-path="url(#p845cab5fc1)" style="fill: none; stroke: #1f77b4; stroke-width: 1.5"/>
    <path d="M 325.772411 53.568 
L 374.248985 53.568 
" clip-path="url(#p845cab5fc1)" style="fill: none; stroke: #1f77b4; stroke-width: 1.5"/>
   </g>
   <g id="LineCollection_3">
    <path d="M 98.071015 295.488 
L 146.547589 295.488 
" clip-path="url(#p845cab5fc1)" style="fill: none; stroke: #1f77b4; stroke-width: 1.5"/>
    <path d="M 219.262451 171.965076 
L 267.739026 171.965076 
" clip-path="url(#p845cab5fc1)" style="fill: none; stroke: #1f77b4; stroke-width: 1.5"/>
    <path d="M 325.772411 144.765772 
L 374.248985 144.765772 
" clip-path="url(#p845cab5fc1)" style="fill: none; stroke: #1f77b4; stroke-width: 1.5"/>
   </g>
   <g id="LineCollection_4">
    <path d="M 122.309302 295.488 
L 122.309302 66.165388 
" clip-path="url(#p845cab5fc1)" style="fill: none; stroke: #1f77b4; stroke-width: 1.5"/>
    <path d="M 243.500738 171.965076 
L 243.500738 61.860974 
" clip-path="url(#p845cab5fc1)" style="fill: none; stroke: #1f77b4; stroke-width: 1.5"/>
    <path d="M 350.010698 144.765772 
L 350.010698 53.568 
" clip-path="url(#p845cab5fc1)" style="fill: none; stroke: #1f77b4; stroke-width: 1.5"/>
   </g>
   <g id="line2d_25">
    <path d="M 122.309302 134.239725 
L 243.500738 101.785042 
L 350.010698 79.089529 
" clip-path="url(#p845cab5fc1)" style="fill: none; stroke: #4682b4; stroke-width: 1.5; stroke-linecap: square"/>
   </g>
   <g id="line2d_26">
    <path d="M 122.309302 134.239725 
L 243.500738 101.785042 
L 350.010698 79.089529 
" clip-path="url(#p845cab5fc1)" style="fill: none; stroke: #4682b4; stroke-width: 1.5; stroke-linecap: square"/>
   </g>
   <g id="patch_3">
    <path d="M 57.6 307.584 
L 57.6 41.472 
" style="fill: none; stroke: #000000; stroke-width: 0.8; stroke-linejoin: miter; stroke-linecap: square"/>
   </g>
   <g id="patch_4">
    <path d="M 414.72 307.584 
L 414.72 41.472 
" style="fill: none; stroke: #000000; stroke-width: 0.8; stroke-linejoin: miter; stroke-linecap: square"/>
   </g>
   <g id="patch_5">
    <path d="M 57.6 307.584 
L 414.72 307.584 
" style="fill: none; stroke: #000000; stroke-width: 0.8; stroke-linejoin: miter; stroke-linecap: square"/>
   </g>
   <g id="patch_6">
    <path d="M 57.6 41.472 
L 414.72 41.472 
" style="fill: none; stroke: #000000; stroke-width: 0.8; stroke-linejoin: miter; stroke-linecap: square"/>
   </g>
   <g id="text_15">
    <!-- Violinplot for progress of profits/rebuy_cost -->
    <g transform="translate(106.935937 35.472)scale(0.12 -0.12)">
     <defs>
      <path id="DejaVuSans-56" d="M 1831 0 
L 50 4666 
L 709 4666 
L 2188 738 
L 3669 4666 
L 4325 4666 
L 2547 0 
L 1831 0 
z
" transform="scale(0.015625)"/>
      <path id="DejaVuSans-6c" d="M 603 4863 
L 1178 4863 
L 1178 0 
L 603 0 
L 603 4863 
z
" transform="scale(0.015625)"/>
      <path id="DejaVuSans-66" d="M 2375 4863 
L 2375 4384 
L 1825 4384 
Q 1516 4384 1395 4259 
Q 1275 4134 1275 3809 
L 1275 3500 
L 2222 3500 
L 2222 3053 
L 1275 3053 
L 1275 0 
L 697 0 
L 697 3053 
L 147 3053 
L 147 3500 
L 697 3500 
L 697 3744 
Q 697 4328 969 4595 
Q 1241 4863 1831 4863 
L 2375 4863 
z
" transform="scale(0.015625)"/>
      <path id="DejaVuSans-67" d="M 2906 1791 
Q 2906 2416 2648 2759 
Q 2391 3103 1925 3103 
Q 1463 3103 1205 2759 
Q 947 2416 947 1791 
Q 947 1169 1205 825 
Q 1463 481 1925 481 
Q 2391 481 2648 825 
Q 2906 1169 2906 1791 
z
M 3481 434 
Q 3481 -459 3084 -895 
Q 2688 -1331 1869 -1331 
Q 1566 -1331 1297 -1286 
Q 1028 -1241 775 -1147 
L 775 -588 
Q 1028 -725 1275 -790 
Q 1522 -856 1778 -856 
Q 2344 -856 2625 -561 
Q 2906 -266 2906 331 
L 2906 616 
Q 2728 306 2450 153 
Q 2172 0 1784 0 
Q 1141 0 747 490 
Q 353 981 353 1791 
Q 353 2603 747 3093 
Q 1141 3584 1784 3584 
Q 2172 3584 2450 3431 
Q 2728 3278 2906 2969 
L 2906 3500 
L 3481 3500 
L 3481 434 
z
" transform="scale(0.015625)"/>
      <path id="DejaVuSans-2f" d="M 1625 4666 
L 2156 4666 
L 531 -594 
L 0 -594 
L 1625 4666 
z
" transform="scale(0.015625)"/>
      <path id="DejaVuSans-62" d="M 3116 1747 
Q 3116 2381 2855 2742 
Q 2594 3103 2138 3103 
Q 1681 3103 1420 2742 
Q 1159 2381 1159 1747 
Q 1159 1113 1420 752 
Q 1681 391 2138 391 
Q 2594 391 2855 752 
Q 3116 1113 3116 1747 
z
M 1159 2969 
Q 1341 3281 1617 3432 
Q 1894 3584 2278 3584 
Q 2916 3584 3314 3078 
Q 3713 2572 3713 1747 
Q 3713 922 3314 415 
Q 2916 -91 2278 -91 
Q 1894 -91 1617 61 
Q 1341 213 1159 525 
L 1159 0 
L 581 0 
L 581 4863 
L 1159 4863 
L 1159 2969 
z
" transform="scale(0.015625)"/>
      <path id="DejaVuSans-75" d="M 544 1381 
L 544 3500 
L 1119 3500 
L 1119 1403 
Q 1119 906 1312 657 
Q 1506 409 1894 409 
Q 2359 409 2629 706 
Q 2900 1003 2900 1516 
L 2900 3500 
L 3475 3500 
L 3475 0 
L 2900 0 
L 2900 538 
Q 2691 219 2414 64 
Q 2138 -91 1772 -91 
Q 1169 -91 856 284 
Q 544 659 544 1381 
z
M 1991 3584 
L 1991 3584 
z
" transform="scale(0.015625)"/>
      <path id="DejaVuSans-5f" d="M 3263 -1063 
L 3263 -1509 
L -63 -1509 
L -63 -1063 
L 3263 -1063 
z
" transform="scale(0.015625)"/>
      <path id="DejaVuSans-63" d="M 3122 3366 
L 3122 2828 
Q 2878 2963 2633 3030 
Q 2388 3097 2138 3097 
Q 1578 3097 1268 2742 
Q 959 2388 959 1747 
Q 959 1106 1268 751 
Q 1578 397 2138 397 
Q 2388 397 2633 464 
Q 2878 531 3122 666 
L 3122 134 
Q 2881 22 2623 -34 
Q 2366 -91 2075 -91 
Q 1284 -91 818 406 
Q 353 903 353 1747 
Q 353 2603 823 3093 
Q 1294 3584 2113 3584 
Q 2378 3584 2631 3529 
Q 2884 3475 3122 3366 
z
" transform="scale(0.015625)"/>
     </defs>
     <use xlink:href="#DejaVuSans-56"/>
     <use xlink:href="#DejaVuSans-69" x="66.158203"/>
     <use xlink:href="#DejaVuSans-6f" x="93.941406"/>
     <use xlink:href="#DejaVuSans-6c" x="155.123047"/>
     <use xlink:href="#DejaVuSans-69" x="182.90625"/>
     <use xlink:href="#DejaVuSans-6e" x="210.689453"/>
     <use xlink:href="#DejaVuSans-70" x="274.068359"/>
     <use xlink:href="#DejaVuSans-6c" x="337.544922"/>
     <use xlink:href="#DejaVuSans-6f" x="365.328125"/>
     <use xlink:href="#DejaVuSans-74" x="426.509766"/>
     <use xlink:href="#DejaVuSans-20" x="465.71875"/>
     <use xlink:href="#DejaVuSans-66" x="497.505859"/>
     <use xlink:href="#DejaVuSans-6f" x="532.710938"/>
     <use xlink:href="#DejaVuSans-72" x="593.892578"/>
     <use xlink:href="#DejaVuSans-20" x="635.005859"/>
     <use xlink:href="#DejaVuSans-70" x="666.792969"/>
     <use xlink:href="#DejaVuSans-72" x="730.269531"/>
     <use xlink:href="#DejaVuSans-6f" x="769.132812"/>
     <use xlink:href="#DejaVuSans-67" x="830.314453"/>
     <use xlink:href="#DejaVuSans-72" x="893.791016"/>
     <use xlink:href="#DejaVuSans-65" x="932.654297"/>
     <use xlink:href="#DejaVuSans-73" x="994.177734"/>
     <use xlink:href="#DejaVuSans-73" x="1046.277344"/>
     <use xlink:href="#DejaVuSans-20" x="1098.376953"/>
     <use xlink:href="#DejaVuSans-6f" x="1130.164062"/>
     <use xlink:href="#DejaVuSans-66" x="1191.345703"/>
     <use xlink:href="#DejaVuSans-20" x="1226.550781"/>
     <use xlink:href="#DejaVuSans-70" x="1258.337891"/>
     <use xlink:href="#DejaVuSans-72" x="1321.814453"/>
     <use xlink:href="#DejaVuSans-6f" x="1360.677734"/>
     <use xlink:href="#DejaVuSans-66" x="1421.859375"/>
     <use xlink:href="#DejaVuSans-69" x="1457.064453"/>
     <use xlink:href="#DejaVuSans-74" x="1484.847656"/>
     <use xlink:href="#DejaVuSans-73" x="1524.056641"/>
     <use xlink:href="#DejaVuSans-2f" x="1576.15625"/>
     <use xlink:href="#DejaVuSans-72" x="1609.847656"/>
     <use xlink:href="#DejaVuSans-65" x="1648.710938"/>
     <use xlink:href="#DejaVuSans-62" x="1710.234375"/>
     <use xlink:href="#DejaVuSans-75" x="1773.710938"/>
     <use xlink:href="#DejaVuSans-79" x="1837.089844"/>
     <use xlink:href="#DejaVuSans-5f" x="1896.269531"/>
     <use xlink:href="#DejaVuSans-63" x="1946.269531"/>
     <use xlink:href="#DejaVuSans-6f" x="2001.25"/>
     <use xlink:href="#DejaVuSans-73" x="2062.431641"/>
     <use xlink:href="#DejaVuSans-74" x="2114.53125"/>
    </g>
   </g>
   <g id="legend_1">
    <g id="patch_7">
     <path d="M 276.504375 64.150125 
L 407.72 64.150125 
Q 409.72 64.150125 409.72 62.150125 
L 409.72 48.472 
Q 409.72 46.472 407.72 46.472 
L 276.504375 46.472 
Q 274.504375 46.472 274.504375 48.472 
L 274.504375 62.150125 
Q 274.504375 64.150125 276.504375 64.150125 
z
" style="fill: #ffffff; opacity: 0.8; stroke: #cccccc; stroke-linejoin: miter"/>
    </g>
    <g id="line2d_27">
     <path d="M 278.504375 54.570438 
L 288.504375 54.570438 
L 298.504375 54.570438 
" style="fill: none; stroke: #4682b4; stroke-width: 1.5; stroke-linecap: square"/>
    </g>
    <g id="text_16">
     <!-- StableBaselinesPPO -->
     <g transform="translate(306.504375 58.070438)scale(0.1 -0.1)">
      <defs>
       <path id="DejaVuSans-53" d="M 3425 4513 
L 3425 3897 
Q 3066 4069 2747 4153 
Q 2428 4238 2131 4238 
Q 1616 4238 1336 4038 
Q 1056 3838 1056 3469 
Q 1056 3159 1242 3001 
Q 1428 2844 1947 2747 
L 2328 2669 
Q 3034 2534 3370 2195 
Q 3706 1856 3706 1288 
Q 3706 609 3251 259 
Q 2797 -91 1919 -91 
Q 1588 -91 1214 -16 
Q 841 59 441 206 
L 441 856 
Q 825 641 1194 531 
Q 1563 422 1919 422 
Q 2459 422 2753 634 
Q 3047 847 3047 1241 
Q 3047 1584 2836 1778 
Q 2625 1972 2144 2069 
L 1759 2144 
Q 1053 2284 737 2584 
Q 422 2884 422 3419 
Q 422 4038 858 4394 
Q 1294 4750 2059 4750 
Q 2388 4750 2728 4690 
Q 3069 4631 3425 4513 
z
" transform="scale(0.015625)"/>
       <path id="DejaVuSans-42" d="M 1259 2228 
L 1259 519 
L 2272 519 
Q 2781 519 3026 730 
Q 3272 941 3272 1375 
Q 3272 1813 3026 2020 
Q 2781 2228 2272 2228 
L 1259 2228 
z
M 1259 4147 
L 1259 2741 
L 2194 2741 
Q 2656 2741 2882 2914 
Q 3109 3088 3109 3444 
Q 3109 3797 2882 3972 
Q 2656 4147 2194 4147 
L 1259 4147 
z
M 628 4666 
L 2241 4666 
Q 2963 4666 3353 4366 
Q 3744 4066 3744 3513 
Q 3744 3084 3544 2831 
Q 3344 2578 2956 2516 
Q 3422 2416 3680 2098 
Q 3938 1781 3938 1306 
Q 3938 681 3513 340 
Q 3088 0 2303 0 
L 628 0 
L 628 4666 
z
" transform="scale(0.015625)"/>
       <path id="DejaVuSans-50" d="M 1259 4147 
L 1259 2394 
L 2053 2394 
Q 2494 2394 2734 2622 
Q 2975 2850 2975 3272 
Q 2975 3691 2734 3919 
Q 2494 4147 2053 4147 
L 1259 4147 
z
M 628 4666 
L 2053 4666 
Q 2838 4666 3239 4311 
Q 3641 3956 3641 3272 
Q 3641 2581 3239 2228 
Q 2838 1875 2053 1875 
L 1259 1875 
L 1259 0 
L 628 0 
L 628 4666 
z
" transform="scale(0.015625)"/>
       <path id="DejaVuSans-4f" d="M 2522 4238 
Q 1834 4238 1429 3725 
Q 1025 3213 1025 2328 
Q 1025 1447 1429 934 
Q 1834 422 2522 422 
Q 3209 422 3611 934 
Q 4013 1447 4013 2328 
Q 4013 3213 3611 3725 
Q 3209 4238 2522 4238 
z
M 2522 4750 
Q 3503 4750 4090 4092 
Q 4678 3434 4678 2328 
Q 4678 1225 4090 567 
Q 3503 -91 2522 -91 
Q 1538 -91 948 565 
Q 359 1222 359 2328 
Q 359 3434 948 4092 
Q 1538 4750 2522 4750 
z
" transform="scale(0.015625)"/>
      </defs>
      <use xlink:href="#DejaVuSans-53"/>
      <use xlink:href="#DejaVuSans-74" x="63.476562"/>
      <use xlink:href="#DejaVuSans-61" x="102.685547"/>
      <use xlink:href="#DejaVuSans-62" x="163.964844"/>
      <use xlink:href="#DejaVuSans-6c" x="227.441406"/>
      <use xlink:href="#DejaVuSans-65" x="255.224609"/>
      <use xlink:href="#DejaVuSans-42" x="316.748047"/>
      <use xlink:href="#DejaVuSans-61" x="385.351562"/>
      <use xlink:href="#DejaVuSans-73" x="446.630859"/>
      <use xlink:href="#DejaVuSans-65" x="498.730469"/>
      <use xlink:href="#DejaVuSans-6c" x="560.253906"/>
      <use xlink:href="#DejaVuSans-69" x="588.037109"/>
      <use xlink:href="#DejaVuSans-6e" x="615.820312"/>
      <use xlink:href="#DejaVuSans-65" x="679.199219"/>
      <use xlink:href="#DejaVuSans-73" x="740.722656"/>
      <use xlink:href="#DejaVuSans-50" x="792.822266"/>
      <use xlink:href="#DejaVuSans-50" x="853.125"/>
      <use xlink:href="#DejaVuSans-4f" x="913.427734"/>
     </g>
    </g>
   </g>
  </g>
 </g>
 <defs>
  <clipPath id="p845cab5fc1">
   <rect x="57.6" y="41.472" width="357.12" height="266.112"/>
  </clipPath>
 </defs>
</svg>
