<?xml version="1.0" encoding="utf-8" standalone="no"?>
<!DOCTYPE svg PUBLIC "-//W3C//DTD SVG 1.1//EN"
  "http://www.w3.org/Graphics/SVG/1.1/DTD/svg11.dtd">
<svg xmlns:xlink="http://www.w3.org/1999/xlink" width="460.8pt" height="345.6pt" viewBox="0 0 460.8 345.6" xmlns="http://www.w3.org/2000/svg" version="1.1">
 <metadata>
  <rdf:RDF xmlns:dc="http://purl.org/dc/elements/1.1/" xmlns:cc="http://creativecommons.org/ns#" xmlns:rdf="http://www.w3.org/1999/02/22-rdf-syntax-ns#">
   <cc:Work>
    <dc:type rdf:resource="http://purl.org/dc/dcmitype/StillImage"/>
    <dc:date>2022-06-16T11:35:09.169312</dc:date>
    <dc:format>image/svg+xml</dc:format>
    <dc:creator>
     <cc:Agent>
      <dc:title>Matplotlib v3.5.2, https://matplotlib.org/</dc:title>
     </cc:Agent>
    </dc:creator>
   </cc:Work>
  </rdf:RDF>
 </metadata>
 <defs>
  <style type="text/css">*{stroke-linejoin: round; stroke-linecap: butt}</style>
 </defs>
 <g id="figure_1">
  <g id="patch_1">
   <path d="M 0 345.6 
L 460.8 345.6 
L 460.8 0 
L 0 0 
z
" style="fill: #ffffff"/>
  </g>
  <g id="axes_1">
   <g id="patch_2">
    <path d="M 57.6 307.584 
L 414.72 307.584 
L 414.72 41.472 
L 57.6 41.472 
z
" style="fill: #ffffff"/>
   </g>
   <g id="matplotlib.axis_1">
    <g id="xtick_1">
     <g id="line2d_1">
      <defs>
       <path id="mf91f53f710" d="M 0 0 
L 0 3.5 
" style="stroke: #000000; stroke-width: 0.8"/>
      </defs>
      <g>
       <use xlink:href="#mf91f53f710" x="71.378182" y="307.584" style="stroke: #000000; stroke-width: 0.8"/>
      </g>
     </g>
     <g id="text_1">
      <!-- 0 -->
      <g transform="translate(68.196932 322.182437)scale(0.1 -0.1)">
       <defs>
        <path id="DejaVuSans-30" d="M 2034 4250 
Q 1547 4250 1301 3770 
Q 1056 3291 1056 2328 
Q 1056 1369 1301 889 
Q 1547 409 2034 409 
Q 2525 409 2770 889 
Q 3016 1369 3016 2328 
Q 3016 3291 2770 3770 
Q 2525 4250 2034 4250 
z
M 2034 4750 
Q 2819 4750 3233 4129 
Q 3647 3509 3647 2328 
Q 3647 1150 3233 529 
Q 2819 -91 2034 -91 
Q 1250 -91 836 529 
Q 422 1150 422 2328 
Q 422 3509 836 4129 
Q 1250 4750 2034 4750 
z
" transform="scale(0.015625)"/>
       </defs>
       <use xlink:href="#DejaVuSans-30"/>
      </g>
     </g>
    </g>
    <g id="xtick_2">
     <g id="line2d_2">
      <g>
       <use xlink:href="#mf91f53f710" x="112.287273" y="307.584" style="stroke: #000000; stroke-width: 0.8"/>
      </g>
     </g>
     <g id="text_2">
      <!-- 250 -->
      <g transform="translate(102.743523 322.182437)scale(0.1 -0.1)">
       <defs>
        <path id="DejaVuSans-32" d="M 1228 531 
L 3431 531 
L 3431 0 
L 469 0 
L 469 531 
Q 828 903 1448 1529 
Q 2069 2156 2228 2338 
Q 2531 2678 2651 2914 
Q 2772 3150 2772 3378 
Q 2772 3750 2511 3984 
Q 2250 4219 1831 4219 
Q 1534 4219 1204 4116 
Q 875 4013 500 3803 
L 500 4441 
Q 881 4594 1212 4672 
Q 1544 4750 1819 4750 
Q 2544 4750 2975 4387 
Q 3406 4025 3406 3419 
Q 3406 3131 3298 2873 
Q 3191 2616 2906 2266 
Q 2828 2175 2409 1742 
Q 1991 1309 1228 531 
z
" transform="scale(0.015625)"/>
        <path id="DejaVuSans-35" d="M 691 4666 
L 3169 4666 
L 3169 4134 
L 1269 4134 
L 1269 2991 
Q 1406 3038 1543 3061 
Q 1681 3084 1819 3084 
Q 2600 3084 3056 2656 
Q 3513 2228 3513 1497 
Q 3513 744 3044 326 
Q 2575 -91 1722 -91 
Q 1428 -91 1123 -41 
Q 819 9 494 109 
L 494 744 
Q 775 591 1075 516 
Q 1375 441 1709 441 
Q 2250 441 2565 725 
Q 2881 1009 2881 1497 
Q 2881 1984 2565 2268 
Q 2250 2553 1709 2553 
Q 1456 2553 1204 2497 
Q 953 2441 691 2322 
L 691 4666 
z
" transform="scale(0.015625)"/>
       </defs>
       <use xlink:href="#DejaVuSans-32"/>
       <use xlink:href="#DejaVuSans-35" x="63.623047"/>
       <use xlink:href="#DejaVuSans-30" x="127.246094"/>
      </g>
     </g>
    </g>
    <g id="xtick_3">
     <g id="line2d_3">
      <g>
       <use xlink:href="#mf91f53f710" x="153.196364" y="307.584" style="stroke: #000000; stroke-width: 0.8"/>
      </g>
     </g>
     <g id="text_3">
      <!-- 500 -->
      <g transform="translate(143.652614 322.182437)scale(0.1 -0.1)">
       <use xlink:href="#DejaVuSans-35"/>
       <use xlink:href="#DejaVuSans-30" x="63.623047"/>
       <use xlink:href="#DejaVuSans-30" x="127.246094"/>
      </g>
     </g>
    </g>
    <g id="xtick_4">
     <g id="line2d_4">
      <g>
       <use xlink:href="#mf91f53f710" x="194.105455" y="307.584" style="stroke: #000000; stroke-width: 0.8"/>
      </g>
     </g>
     <g id="text_4">
      <!-- 750 -->
      <g transform="translate(184.561705 322.182437)scale(0.1 -0.1)">
       <defs>
        <path id="DejaVuSans-37" d="M 525 4666 
L 3525 4666 
L 3525 4397 
L 1831 0 
L 1172 0 
L 2766 4134 
L 525 4134 
L 525 4666 
z
" transform="scale(0.015625)"/>
       </defs>
       <use xlink:href="#DejaVuSans-37"/>
       <use xlink:href="#DejaVuSans-35" x="63.623047"/>
       <use xlink:href="#DejaVuSans-30" x="127.246094"/>
      </g>
     </g>
    </g>
    <g id="xtick_5">
     <g id="line2d_5">
      <g>
       <use xlink:href="#mf91f53f710" x="235.014545" y="307.584" style="stroke: #000000; stroke-width: 0.8"/>
      </g>
     </g>
     <g id="text_5">
      <!-- 1000 -->
      <g transform="translate(222.289545 322.182437)scale(0.1 -0.1)">
       <defs>
        <path id="DejaVuSans-31" d="M 794 531 
L 1825 531 
L 1825 4091 
L 703 3866 
L 703 4441 
L 1819 4666 
L 2450 4666 
L 2450 531 
L 3481 531 
L 3481 0 
L 794 0 
L 794 531 
z
" transform="scale(0.015625)"/>
       </defs>
       <use xlink:href="#DejaVuSans-31"/>
       <use xlink:href="#DejaVuSans-30" x="63.623047"/>
       <use xlink:href="#DejaVuSans-30" x="127.246094"/>
       <use xlink:href="#DejaVuSans-30" x="190.869141"/>
      </g>
     </g>
    </g>
    <g id="xtick_6">
     <g id="line2d_6">
      <g>
       <use xlink:href="#mf91f53f710" x="275.923636" y="307.584" style="stroke: #000000; stroke-width: 0.8"/>
      </g>
     </g>
     <g id="text_6">
      <!-- 1250 -->
      <g transform="translate(263.198636 322.182437)scale(0.1 -0.1)">
       <use xlink:href="#DejaVuSans-31"/>
       <use xlink:href="#DejaVuSans-32" x="63.623047"/>
       <use xlink:href="#DejaVuSans-35" x="127.246094"/>
       <use xlink:href="#DejaVuSans-30" x="190.869141"/>
      </g>
     </g>
    </g>
    <g id="xtick_7">
     <g id="line2d_7">
      <g>
       <use xlink:href="#mf91f53f710" x="316.832727" y="307.584" style="stroke: #000000; stroke-width: 0.8"/>
      </g>
     </g>
     <g id="text_7">
      <!-- 1500 -->
      <g transform="translate(304.107727 322.182437)scale(0.1 -0.1)">
       <use xlink:href="#DejaVuSans-31"/>
       <use xlink:href="#DejaVuSans-35" x="63.623047"/>
       <use xlink:href="#DejaVuSans-30" x="127.246094"/>
       <use xlink:href="#DejaVuSans-30" x="190.869141"/>
      </g>
     </g>
    </g>
    <g id="xtick_8">
     <g id="line2d_8">
      <g>
       <use xlink:href="#mf91f53f710" x="357.741818" y="307.584" style="stroke: #000000; stroke-width: 0.8"/>
      </g>
     </g>
     <g id="text_8">
      <!-- 1750 -->
      <g transform="translate(345.016818 322.182437)scale(0.1 -0.1)">
       <use xlink:href="#DejaVuSans-31"/>
       <use xlink:href="#DejaVuSans-37" x="63.623047"/>
       <use xlink:href="#DejaVuSans-35" x="127.246094"/>
       <use xlink:href="#DejaVuSans-30" x="190.869141"/>
      </g>
     </g>
    </g>
    <g id="xtick_9">
     <g id="line2d_9">
      <g>
       <use xlink:href="#mf91f53f710" x="398.650909" y="307.584" style="stroke: #000000; stroke-width: 0.8"/>
      </g>
     </g>
     <g id="text_9">
      <!-- 2000 -->
      <g transform="translate(385.925909 322.182437)scale(0.1 -0.1)">
       <use xlink:href="#DejaVuSans-32"/>
       <use xlink:href="#DejaVuSans-30" x="63.623047"/>
       <use xlink:href="#DejaVuSans-30" x="127.246094"/>
       <use xlink:href="#DejaVuSans-30" x="190.869141"/>
      </g>
     </g>
    </g>
    <g id="text_10">
     <!-- Episode -->
     <g transform="translate(216.5225 335.860562)scale(0.1 -0.1)">
      <defs>
       <path id="DejaVuSans-45" d="M 628 4666 
L 3578 4666 
L 3578 4134 
L 1259 4134 
L 1259 2753 
L 3481 2753 
L 3481 2222 
L 1259 2222 
L 1259 531 
L 3634 531 
L 3634 0 
L 628 0 
L 628 4666 
z
" transform="scale(0.015625)"/>
       <path id="DejaVuSans-70" d="M 1159 525 
L 1159 -1331 
L 581 -1331 
L 581 3500 
L 1159 3500 
L 1159 2969 
Q 1341 3281 1617 3432 
Q 1894 3584 2278 3584 
Q 2916 3584 3314 3078 
Q 3713 2572 3713 1747 
Q 3713 922 3314 415 
Q 2916 -91 2278 -91 
Q 1894 -91 1617 61 
Q 1341 213 1159 525 
z
M 3116 1747 
Q 3116 2381 2855 2742 
Q 2594 3103 2138 3103 
Q 1681 3103 1420 2742 
Q 1159 2381 1159 1747 
Q 1159 1113 1420 752 
Q 1681 391 2138 391 
Q 2594 391 2855 752 
Q 3116 1113 3116 1747 
z
" transform="scale(0.015625)"/>
       <path id="DejaVuSans-69" d="M 603 3500 
L 1178 3500 
L 1178 0 
L 603 0 
L 603 3500 
z
M 603 4863 
L 1178 4863 
L 1178 4134 
L 603 4134 
L 603 4863 
z
" transform="scale(0.015625)"/>
       <path id="DejaVuSans-73" d="M 2834 3397 
L 2834 2853 
Q 2591 2978 2328 3040 
Q 2066 3103 1784 3103 
Q 1356 3103 1142 2972 
Q 928 2841 928 2578 
Q 928 2378 1081 2264 
Q 1234 2150 1697 2047 
L 1894 2003 
Q 2506 1872 2764 1633 
Q 3022 1394 3022 966 
Q 3022 478 2636 193 
Q 2250 -91 1575 -91 
Q 1294 -91 989 -36 
Q 684 19 347 128 
L 347 722 
Q 666 556 975 473 
Q 1284 391 1588 391 
Q 1994 391 2212 530 
Q 2431 669 2431 922 
Q 2431 1156 2273 1281 
Q 2116 1406 1581 1522 
L 1381 1569 
Q 847 1681 609 1914 
Q 372 2147 372 2553 
Q 372 3047 722 3315 
Q 1072 3584 1716 3584 
Q 2034 3584 2315 3537 
Q 2597 3491 2834 3397 
z
" transform="scale(0.015625)"/>
       <path id="DejaVuSans-6f" d="M 1959 3097 
Q 1497 3097 1228 2736 
Q 959 2375 959 1747 
Q 959 1119 1226 758 
Q 1494 397 1959 397 
Q 2419 397 2687 759 
Q 2956 1122 2956 1747 
Q 2956 2369 2687 2733 
Q 2419 3097 1959 3097 
z
M 1959 3584 
Q 2709 3584 3137 3096 
Q 3566 2609 3566 1747 
Q 3566 888 3137 398 
Q 2709 -91 1959 -91 
Q 1206 -91 779 398 
Q 353 888 353 1747 
Q 353 2609 779 3096 
Q 1206 3584 1959 3584 
z
" transform="scale(0.015625)"/>
       <path id="DejaVuSans-64" d="M 2906 2969 
L 2906 4863 
L 3481 4863 
L 3481 0 
L 2906 0 
L 2906 525 
Q 2725 213 2448 61 
Q 2172 -91 1784 -91 
Q 1150 -91 751 415 
Q 353 922 353 1747 
Q 353 2572 751 3078 
Q 1150 3584 1784 3584 
Q 2172 3584 2448 3432 
Q 2725 3281 2906 2969 
z
M 947 1747 
Q 947 1113 1208 752 
Q 1469 391 1925 391 
Q 2381 391 2643 752 
Q 2906 1113 2906 1747 
Q 2906 2381 2643 2742 
Q 2381 3103 1925 3103 
Q 1469 3103 1208 2742 
Q 947 2381 947 1747 
z
" transform="scale(0.015625)"/>
       <path id="DejaVuSans-65" d="M 3597 1894 
L 3597 1613 
L 953 1613 
Q 991 1019 1311 708 
Q 1631 397 2203 397 
Q 2534 397 2845 478 
Q 3156 559 3463 722 
L 3463 178 
Q 3153 47 2828 -22 
Q 2503 -91 2169 -91 
Q 1331 -91 842 396 
Q 353 884 353 1716 
Q 353 2575 817 3079 
Q 1281 3584 2069 3584 
Q 2775 3584 3186 3129 
Q 3597 2675 3597 1894 
z
M 3022 2063 
Q 3016 2534 2758 2815 
Q 2500 3097 2075 3097 
Q 1594 3097 1305 2825 
Q 1016 2553 972 2059 
L 3022 2063 
z
" transform="scale(0.015625)"/>
      </defs>
      <use xlink:href="#DejaVuSans-45"/>
      <use xlink:href="#DejaVuSans-70" x="63.183594"/>
      <use xlink:href="#DejaVuSans-69" x="126.660156"/>
      <use xlink:href="#DejaVuSans-73" x="154.443359"/>
      <use xlink:href="#DejaVuSans-6f" x="206.542969"/>
      <use xlink:href="#DejaVuSans-64" x="267.724609"/>
      <use xlink:href="#DejaVuSans-65" x="331.201172"/>
     </g>
    </g>
   </g>
   <g id="matplotlib.axis_2">
    <g id="ytick_1">
     <g id="line2d_10">
      <defs>
       <path id="md32b9c4f72" d="M 0 0 
L -3.5 0 
" style="stroke: #000000; stroke-width: 0.8"/>
      </defs>
      <g>
       <use xlink:href="#md32b9c4f72" x="57.6" y="287.473252" style="stroke: #000000; stroke-width: 0.8"/>
      </g>
     </g>
     <g id="text_11">
      <!-- −1200 -->
      <g transform="translate(16.770313 291.272471)scale(0.1 -0.1)">
       <defs>
        <path id="DejaVuSans-2212" d="M 678 2272 
L 4684 2272 
L 4684 1741 
L 678 1741 
L 678 2272 
z
" transform="scale(0.015625)"/>
       </defs>
       <use xlink:href="#DejaVuSans-2212"/>
       <use xlink:href="#DejaVuSans-31" x="83.789062"/>
       <use xlink:href="#DejaVuSans-32" x="147.412109"/>
       <use xlink:href="#DejaVuSans-30" x="211.035156"/>
       <use xlink:href="#DejaVuSans-30" x="274.658203"/>
      </g>
     </g>
    </g>
    <g id="ytick_2">
     <g id="line2d_11">
      <g>
       <use xlink:href="#md32b9c4f72" x="57.6" y="247.59344" style="stroke: #000000; stroke-width: 0.8"/>
      </g>
     </g>
     <g id="text_12">
      <!-- −1000 -->
      <g transform="translate(16.770313 251.392659)scale(0.1 -0.1)">
       <use xlink:href="#DejaVuSans-2212"/>
       <use xlink:href="#DejaVuSans-31" x="83.789062"/>
       <use xlink:href="#DejaVuSans-30" x="147.412109"/>
       <use xlink:href="#DejaVuSans-30" x="211.035156"/>
       <use xlink:href="#DejaVuSans-30" x="274.658203"/>
      </g>
     </g>
    </g>
    <g id="ytick_3">
     <g id="line2d_12">
      <g>
       <use xlink:href="#md32b9c4f72" x="57.6" y="207.713628" style="stroke: #000000; stroke-width: 0.8"/>
      </g>
     </g>
     <g id="text_13">
      <!-- −800 -->
      <g transform="translate(23.132812 211.512847)scale(0.1 -0.1)">
       <defs>
        <path id="DejaVuSans-38" d="M 2034 2216 
Q 1584 2216 1326 1975 
Q 1069 1734 1069 1313 
Q 1069 891 1326 650 
Q 1584 409 2034 409 
Q 2484 409 2743 651 
Q 3003 894 3003 1313 
Q 3003 1734 2745 1975 
Q 2488 2216 2034 2216 
z
M 1403 2484 
Q 997 2584 770 2862 
Q 544 3141 544 3541 
Q 544 4100 942 4425 
Q 1341 4750 2034 4750 
Q 2731 4750 3128 4425 
Q 3525 4100 3525 3541 
Q 3525 3141 3298 2862 
Q 3072 2584 2669 2484 
Q 3125 2378 3379 2068 
Q 3634 1759 3634 1313 
Q 3634 634 3220 271 
Q 2806 -91 2034 -91 
Q 1263 -91 848 271 
Q 434 634 434 1313 
Q 434 1759 690 2068 
Q 947 2378 1403 2484 
z
M 1172 3481 
Q 1172 3119 1398 2916 
Q 1625 2713 2034 2713 
Q 2441 2713 2670 2916 
Q 2900 3119 2900 3481 
Q 2900 3844 2670 4047 
Q 2441 4250 2034 4250 
Q 1625 4250 1398 4047 
Q 1172 3844 1172 3481 
z
" transform="scale(0.015625)"/>
       </defs>
       <use xlink:href="#DejaVuSans-2212"/>
       <use xlink:href="#DejaVuSans-38" x="83.789062"/>
       <use xlink:href="#DejaVuSans-30" x="147.412109"/>
       <use xlink:href="#DejaVuSans-30" x="211.035156"/>
      </g>
     </g>
    </g>
    <g id="ytick_4">
     <g id="line2d_13">
      <g>
       <use xlink:href="#md32b9c4f72" x="57.6" y="167.833816" style="stroke: #000000; stroke-width: 0.8"/>
      </g>
     </g>
     <g id="text_14">
      <!-- −600 -->
      <g transform="translate(23.132812 171.633035)scale(0.1 -0.1)">
       <defs>
        <path id="DejaVuSans-36" d="M 2113 2584 
Q 1688 2584 1439 2293 
Q 1191 2003 1191 1497 
Q 1191 994 1439 701 
Q 1688 409 2113 409 
Q 2538 409 2786 701 
Q 3034 994 3034 1497 
Q 3034 2003 2786 2293 
Q 2538 2584 2113 2584 
z
M 3366 4563 
L 3366 3988 
Q 3128 4100 2886 4159 
Q 2644 4219 2406 4219 
Q 1781 4219 1451 3797 
Q 1122 3375 1075 2522 
Q 1259 2794 1537 2939 
Q 1816 3084 2150 3084 
Q 2853 3084 3261 2657 
Q 3669 2231 3669 1497 
Q 3669 778 3244 343 
Q 2819 -91 2113 -91 
Q 1303 -91 875 529 
Q 447 1150 447 2328 
Q 447 3434 972 4092 
Q 1497 4750 2381 4750 
Q 2619 4750 2861 4703 
Q 3103 4656 3366 4563 
z
" transform="scale(0.015625)"/>
       </defs>
       <use xlink:href="#DejaVuSans-2212"/>
       <use xlink:href="#DejaVuSans-36" x="83.789062"/>
       <use xlink:href="#DejaVuSans-30" x="147.412109"/>
       <use xlink:href="#DejaVuSans-30" x="211.035156"/>
      </g>
     </g>
    </g>
    <g id="ytick_5">
     <g id="line2d_14">
      <g>
       <use xlink:href="#md32b9c4f72" x="57.6" y="127.954004" style="stroke: #000000; stroke-width: 0.8"/>
      </g>
     </g>
     <g id="text_15">
      <!-- −400 -->
      <g transform="translate(23.132812 131.753223)scale(0.1 -0.1)">
       <defs>
        <path id="DejaVuSans-34" d="M 2419 4116 
L 825 1625 
L 2419 1625 
L 2419 4116 
z
M 2253 4666 
L 3047 4666 
L 3047 1625 
L 3713 1625 
L 3713 1100 
L 3047 1100 
L 3047 0 
L 2419 0 
L 2419 1100 
L 313 1100 
L 313 1709 
L 2253 4666 
z
" transform="scale(0.015625)"/>
       </defs>
       <use xlink:href="#DejaVuSans-2212"/>
       <use xlink:href="#DejaVuSans-34" x="83.789062"/>
       <use xlink:href="#DejaVuSans-30" x="147.412109"/>
       <use xlink:href="#DejaVuSans-30" x="211.035156"/>
      </g>
     </g>
    </g>
    <g id="ytick_6">
     <g id="line2d_15">
      <g>
       <use xlink:href="#md32b9c4f72" x="57.6" y="88.074192" style="stroke: #000000; stroke-width: 0.8"/>
      </g>
     </g>
     <g id="text_16">
      <!-- −200 -->
      <g transform="translate(23.132812 91.873411)scale(0.1 -0.1)">
       <use xlink:href="#DejaVuSans-2212"/>
       <use xlink:href="#DejaVuSans-32" x="83.789062"/>
       <use xlink:href="#DejaVuSans-30" x="147.412109"/>
       <use xlink:href="#DejaVuSans-30" x="211.035156"/>
      </g>
     </g>
    </g>
    <g id="ytick_7">
     <g id="line2d_16">
      <g>
       <use xlink:href="#md32b9c4f72" x="57.6" y="48.19438" style="stroke: #000000; stroke-width: 0.8"/>
      </g>
     </g>
     <g id="text_17">
      <!-- 0 -->
      <g transform="translate(44.2375 51.993599)scale(0.1 -0.1)">
       <use xlink:href="#DejaVuSans-30"/>
      </g>
     </g>
    </g>
    <g id="text_18">
     <!-- profits/rebuy_cost -->
     <g transform="translate(10.4125 219.298313)rotate(-90)scale(0.1 -0.1)">
      <defs>
       <path id="DejaVuSans-72" d="M 2631 2963 
Q 2534 3019 2420 3045 
Q 2306 3072 2169 3072 
Q 1681 3072 1420 2755 
Q 1159 2438 1159 1844 
L 1159 0 
L 581 0 
L 581 3500 
L 1159 3500 
L 1159 2956 
Q 1341 3275 1631 3429 
Q 1922 3584 2338 3584 
Q 2397 3584 2469 3576 
Q 2541 3569 2628 3553 
L 2631 2963 
z
" transform="scale(0.015625)"/>
       <path id="DejaVuSans-66" d="M 2375 4863 
L 2375 4384 
L 1825 4384 
Q 1516 4384 1395 4259 
Q 1275 4134 1275 3809 
L 1275 3500 
L 2222 3500 
L 2222 3053 
L 1275 3053 
L 1275 0 
L 697 0 
L 697 3053 
L 147 3053 
L 147 3500 
L 697 3500 
L 697 3744 
Q 697 4328 969 4595 
Q 1241 4863 1831 4863 
L 2375 4863 
z
" transform="scale(0.015625)"/>
       <path id="DejaVuSans-74" d="M 1172 4494 
L 1172 3500 
L 2356 3500 
L 2356 3053 
L 1172 3053 
L 1172 1153 
Q 1172 725 1289 603 
Q 1406 481 1766 481 
L 2356 481 
L 2356 0 
L 1766 0 
Q 1100 0 847 248 
Q 594 497 594 1153 
L 594 3053 
L 172 3053 
L 172 3500 
L 594 3500 
L 594 4494 
L 1172 4494 
z
" transform="scale(0.015625)"/>
       <path id="DejaVuSans-2f" d="M 1625 4666 
L 2156 4666 
L 531 -594 
L 0 -594 
L 1625 4666 
z
" transform="scale(0.015625)"/>
       <path id="DejaVuSans-62" d="M 3116 1747 
Q 3116 2381 2855 2742 
Q 2594 3103 2138 3103 
Q 1681 3103 1420 2742 
Q 1159 2381 1159 1747 
Q 1159 1113 1420 752 
Q 1681 391 2138 391 
Q 2594 391 2855 752 
Q 3116 1113 3116 1747 
z
M 1159 2969 
Q 1341 3281 1617 3432 
Q 1894 3584 2278 3584 
Q 2916 3584 3314 3078 
Q 3713 2572 3713 1747 
Q 3713 922 3314 415 
Q 2916 -91 2278 -91 
Q 1894 -91 1617 61 
Q 1341 213 1159 525 
L 1159 0 
L 581 0 
L 581 4863 
L 1159 4863 
L 1159 2969 
z
" transform="scale(0.015625)"/>
       <path id="DejaVuSans-75" d="M 544 1381 
L 544 3500 
L 1119 3500 
L 1119 1403 
Q 1119 906 1312 657 
Q 1506 409 1894 409 
Q 2359 409 2629 706 
Q 2900 1003 2900 1516 
L 2900 3500 
L 3475 3500 
L 3475 0 
L 2900 0 
L 2900 538 
Q 2691 219 2414 64 
Q 2138 -91 1772 -91 
Q 1169 -91 856 284 
Q 544 659 544 1381 
z
M 1991 3584 
L 1991 3584 
z
" transform="scale(0.015625)"/>
       <path id="DejaVuSans-79" d="M 2059 -325 
Q 1816 -950 1584 -1140 
Q 1353 -1331 966 -1331 
L 506 -1331 
L 506 -850 
L 844 -850 
Q 1081 -850 1212 -737 
Q 1344 -625 1503 -206 
L 1606 56 
L 191 3500 
L 800 3500 
L 1894 763 
L 2988 3500 
L 3597 3500 
L 2059 -325 
z
" transform="scale(0.015625)"/>
       <path id="DejaVuSans-5f" d="M 3263 -1063 
L 3263 -1509 
L -63 -1509 
L -63 -1063 
L 3263 -1063 
z
" transform="scale(0.015625)"/>
       <path id="DejaVuSans-63" d="M 3122 3366 
L 3122 2828 
Q 2878 2963 2633 3030 
Q 2388 3097 2138 3097 
Q 1578 3097 1268 2742 
Q 959 2388 959 1747 
Q 959 1106 1268 751 
Q 1578 397 2138 397 
Q 2388 397 2633 464 
Q 2878 531 3122 666 
L 3122 134 
Q 2881 22 2623 -34 
Q 2366 -91 2075 -91 
Q 1284 -91 818 406 
Q 353 903 353 1747 
Q 353 2603 823 3093 
Q 1294 3584 2113 3584 
Q 2378 3584 2631 3529 
Q 2884 3475 3122 3366 
z
" transform="scale(0.015625)"/>
      </defs>
      <use xlink:href="#DejaVuSans-70"/>
      <use xlink:href="#DejaVuSans-72" x="63.476562"/>
      <use xlink:href="#DejaVuSans-6f" x="102.339844"/>
      <use xlink:href="#DejaVuSans-66" x="163.521484"/>
      <use xlink:href="#DejaVuSans-69" x="198.726562"/>
      <use xlink:href="#DejaVuSans-74" x="226.509766"/>
      <use xlink:href="#DejaVuSans-73" x="265.71875"/>
      <use xlink:href="#DejaVuSans-2f" x="317.818359"/>
      <use xlink:href="#DejaVuSans-72" x="351.509766"/>
      <use xlink:href="#DejaVuSans-65" x="390.373047"/>
      <use xlink:href="#DejaVuSans-62" x="451.896484"/>
      <use xlink:href="#DejaVuSans-75" x="515.373047"/>
      <use xlink:href="#DejaVuSans-79" x="578.751953"/>
      <use xlink:href="#DejaVuSans-5f" x="637.931641"/>
      <use xlink:href="#DejaVuSans-63" x="687.931641"/>
      <use xlink:href="#DejaVuSans-6f" x="742.912109"/>
      <use xlink:href="#DejaVuSans-73" x="804.09375"/>
      <use xlink:href="#DejaVuSans-74" x="856.193359"/>
     </g>
    </g>
   </g>
   <g id="line2d_17">
    <path d="M 73.832727 295.488 
L 74.487273 248.455283 
L 75.141818 215.915414 
L 75.96 187.742652 
L 76.778182 167.655084 
L 77.596364 152.585683 
L 78.578182 139.087076 
L 79.56 128.725648 
L 80.541818 120.561757 
L 81.36 115.19382 
L 82.341818 109.726939 
L 83.323636 105.110262 
L 84.469091 100.755714 
L 86.269091 95.369105 
L 87.250909 92.992592 
L 87.741818 91.984754 
L 87.905455 89.077463 
L 88.723636 64.853076 
L 89.214545 58.813909 
L 89.541818 56.3616 
L 89.869091 54.578517 
L 90.36 54.22873 
L 90.687273 54.229063 
L 91.341818 54.166779 
L 91.669091 54.320494 
L 92.650909 54.551994 
L 93.305455 55.076933 
L 94.123636 55.380451 
L 95.596364 55.698082 
L 95.923636 55.926014 
L 96.414545 56.187686 
L 98.869091 56.609543 
L 99.196364 56.755572 
L 100.178182 56.899369 
L 100.505455 56.943167 
L 100.832727 56.872329 
L 101.487273 57.026084 
L 102.796364 56.977517 
L 103.287273 57.086864 
L 105.578182 56.922564 
L 105.741818 56.958539 
L 106.069091 56.872302 
L 106.56 56.866081 
L 107.705455 56.810621 
L 109.505455 56.757503 
L 109.669091 56.574079 
L 110.323636 56.660165 
L 112.450909 56.908057 
L 112.778182 56.784633 
L 113.269091 56.870743 
L 113.76 56.895334 
L 114.087273 56.959718 
L 114.578182 57.021344 
L 115.723636 56.928558 
L 115.887273 56.899649 
L 116.050909 57.032596 
L 116.705455 57.050814 
L 117.523636 57.053345 
L 117.687273 56.984629 
L 118.669091 57.288826 
L 119.487273 57.282492 
L 119.650909 57.417426 
L 120.96 57.394289 
L 121.287273 57.475482 
L 121.778182 57.456707 
L 122.105455 57.439668 
L 128.978182 57.150597 
L 129.469091 57.234038 
L 129.96 57.15076 
L 130.450909 57.106139 
L 130.941818 57.041832 
L 134.214545 56.967623 
L 134.869091 56.693835 
L 136.014545 56.562551 
L 136.341818 56.456797 
L 137.16 56.473156 
L 137.814545 56.439903 
L 138.469091 56.428265 
L 142.56 56.645769 
L 142.887273 56.710546 
L 143.541818 56.630677 
L 143.869091 56.669017 
L 146.650909 56.084982 
L 147.141818 56.138596 
L 148.450909 56.041793 
L 148.941818 56.042046 
L 149.432727 55.952851 
L 149.76 56.001399 
L 150.250909 55.888669 
L 151.396364 55.878001 
L 152.541818 55.845618 
L 153.36 55.743796 
L 154.014545 55.732775 
L 154.669091 55.59551 
L 155.16 55.578838 
L 155.487273 55.466354 
L 155.978182 55.490294 
L 156.305455 55.349214 
L 156.632727 55.406763 
L 157.941818 55.079636 
L 158.596364 55.012092 
L 159.741818 54.784891 
L 160.723636 54.612778 
L 161.378182 54.669256 
L 164.978182 54.495228 
L 165.305455 54.448394 
L 165.96 54.472191 
L 166.287273 54.382791 
L 168.250909 54.340888 
L 168.741818 54.315602 
L 173.16 54.297957 
L 173.814545 54.350626 
L 184.287273 53.974247 
L 184.941818 53.927436 
L 185.432727 54.002151 
L 186.578182 53.946121 
L 189.196364 53.794076 
L 189.687273 53.721068 
L 196.069091 53.617785 
L 197.050909 53.665268 
L 204.087273 53.929842 
L 205.723636 53.894758 
L 210.305455 53.88849 
L 213.741818 54.026389 
L 214.396364 54.085328 
L 214.723636 54.094387 
L 215.050909 54.051092 
L 215.705455 54.104154 
L 216.687273 54.057621 
L 217.996364 54.105584 
L 219.469091 54.056173 
L 222.905455 54.369028 
L 223.56 54.509983 
L 224.541818 54.536141 
L 230.923636 54.645184 
L 231.250909 54.599955 
L 232.723636 54.582892 
L 234.032727 54.471194 
L 234.850909 54.643237 
L 235.832727 54.725488 
L 236.814545 54.718163 
L 237.305455 54.762493 
L 238.123636 54.652784 
L 238.941818 54.656854 
L 239.432727 54.59694 
L 239.923636 54.558167 
L 240.250909 54.500472 
L 242.050909 54.679503 
L 242.541818 54.594546 
L 243.36 54.592394 
L 245.487273 54.742958 
L 246.305455 54.80048 
L 246.96 54.762025 
L 247.941818 54.856456 
L 248.432727 54.918255 
L 250.887273 55.028336 
L 252.523636 54.9743 
L 253.341818 55.022407 
L 253.669091 55.031652 
L 254.487273 55.108852 
L 256.614545 55.178071 
L 256.941818 55.187632 
L 258.414545 55.195125 
L 259.232727 55.360149 
L 259.887273 55.298094 
L 261.36 55.128541 
L 262.669091 54.979479 
L 264.796364 55.136711 
L 265.614545 55.013261 
L 266.269091 55.045577 
L 267.087273 55.021905 
L 267.578182 55.106494 
L 268.56 55.096082 
L 270.032727 55.169618 
L 270.523636 55.116654 
L 271.014545 55.08087 
L 272.814545 55.129698 
L 273.796364 55.249619 
L 274.450909 55.174612 
L 274.941818 55.174097 
L 275.596364 55.058576 
L 276.250909 55.118232 
L 278.705455 55.525037 
L 280.996364 55.611413 
L 281.650909 55.779979 
L 281.978182 55.845007 
L 282.469091 55.904107 
L 283.287273 55.902073 
L 291.96 55.782255 
L 292.450909 55.865008 
L 293.269091 55.692987 
L 294.087273 55.653169 
L 294.905455 55.763434 
L 297.850909 55.542552 
L 298.178182 55.486907 
L 298.505455 55.456651 
L 299.323636 55.59156 
L 299.650909 55.545102 
L 300.305455 55.63125 
L 300.796364 55.613911 
L 305.378182 55.64903 
L 306.523636 55.646987 
L 306.687273 55.679337 
L 307.014545 55.584453 
L 307.505455 55.635022 
L 307.996364 55.788167 
L 310.123636 55.807941 
L 310.614545 55.858732 
L 313.56 55.574203 
L 314.378182 55.713877 
L 315.032727 55.563281 
L 315.523636 55.562281 
L 318.141818 55.663405 
L 318.96 55.599091 
L 320.432727 55.580016 
L 320.76 55.496378 
L 322.232727 55.569501 
L 322.56 55.736539 
L 323.050909 55.727642 
L 324.196364 55.662283 
L 324.523636 55.63694 
L 329.269091 55.738538 
L 330.087273 55.822567 
L 331.396364 55.708289 
L 331.723636 55.72426 
L 332.050909 55.577629 
L 334.014545 55.495704 
L 335.16 55.644123 
L 337.614545 55.725294 
L 338.269091 55.636636 
L 339.741818 55.443972 
L 340.887273 55.467534 
L 341.214545 55.396103 
L 342.032727 55.467763 
L 342.36 55.429776 
L 342.687273 55.531001 
L 343.505455 55.406608 
L 344.16 55.31407 
L 345.305455 55.367963 
L 345.796364 55.368049 
L 346.778182 55.330461 
L 350.705455 55.691789 
L 351.032727 55.597333 
L 351.523636 55.593832 
L 352.178182 55.615712 
L 352.341818 55.668478 
L 352.669091 55.564634 
L 353.323636 55.598598 
L 353.650909 55.541043 
L 353.978182 55.64772 
L 355.450909 55.889904 
L 356.923636 55.807153 
L 357.087273 55.755793 
L 357.414545 55.86133 
L 358.723636 55.813406 
L 359.869091 55.756695 
L 360.850909 55.81548 
L 364.614545 55.603744 
L 365.105455 55.576429 
L 367.232727 55.399701 
L 367.723636 55.39319 
L 369.523636 55.320222 
L 370.014545 55.330766 
L 370.669091 55.253289 
L 371.323636 55.116382 
L 371.814545 55.18768 
L 372.632727 55.223841 
L 373.287273 55.271751 
L 374.596364 55.271635 
L 375.905455 55.202528 
L 379.996364 54.956537 
L 380.487273 55.009079 
L 380.814545 54.969167 
L 386.378182 55.253642 
L 386.869091 55.445189 
L 387.850909 55.618818 
L 388.178182 55.506246 
L 392.269091 55.901798 
L 392.596364 55.967798 
L 393.414545 56.153805 
L 394.723636 56.182958 
L 395.378182 56.15006 
L 396.36 56.238371 
L 396.523636 56.297145 
L 397.014545 56.206611 
L 397.505455 56.264033 
L 398.487273 56.380593 
L 398.487273 56.380593 
" clip-path="url(#pd93b675e46)" style="fill: none; stroke: #1f77b4; stroke-width: 1.5; stroke-linecap: square"/>
   </g>
   <g id="line2d_18">
    <path d="M 73.832727 65.405011 
L 73.996364 66.879245 
L 74.16 65.841197 
L 74.323636 67.588562 
L 74.487273 67.625818 
L 74.650909 68.248228 
L 74.814545 69.394125 
L 74.978182 69.200637 
L 75.305455 72.042508 
L 75.632727 70.30552 
L 75.796364 70.534196 
L 75.96 69.791361 
L 76.123636 70.06181 
L 76.287273 69.375706 
L 76.450909 69.280831 
L 76.614545 69.6328 
L 76.778182 70.738203 
L 76.941818 70.453012 
L 77.105455 71.62377 
L 77.432727 70.878647 
L 77.76 72.52605 
L 77.923636 71.947185 
L 78.087273 72.644503 
L 78.250909 72.456145 
L 78.414545 72.906268 
L 78.578182 72.760344 
L 78.741818 72.230636 
L 78.905455 73.356844 
L 79.069091 72.832626 
L 79.232727 73.798847 
L 79.396364 73.733412 
L 79.723636 74.890846 
L 79.887273 75.207309 
L 80.050909 74.718148 
L 80.214545 75.015366 
L 80.541818 74.738943 
L 80.705455 75.670195 
L 81.196364 75.394373 
L 81.36 75.631047 
L 82.014545 74.191788 
L 82.178182 74.535889 
L 82.341818 75.336111 
L 82.505455 75.009219 
L 82.832727 75.093594 
L 83.16 76.156684 
L 83.323636 75.986298 
L 83.650909 76.453949 
L 83.814545 76.138734 
L 84.141818 76.890176 
L 84.632727 75.99839 
L 84.796364 76.08142 
L 84.96 75.789786 
L 85.123636 76.063331 
L 85.287273 75.792601 
L 85.450909 76.735949 
L 85.614545 76.760561 
L 85.941818 76.125757 
L 86.105455 76.513429 
L 86.269091 76.491707 
L 86.596364 76.016913 
L 86.76 76.429287 
L 87.087273 76.371317 
L 87.578182 76.838055 
L 87.741818 76.554454 
L 88.069091 76.953252 
L 88.232727 77.172394 
L 88.56 77.780462 
L 88.723636 77.821922 
L 88.887273 77.500119 
L 89.050909 77.58896 
L 89.214545 77.535656 
L 89.705455 77.889046 
L 90.196364 79.215741 
L 90.36 79.375655 
L 90.687273 80.052822 
L 90.850909 79.555311 
L 91.014545 79.687586 
L 91.178182 80.117972 
L 91.341818 80.060719 
L 91.505455 80.212736 
L 91.832727 79.507929 
L 91.996364 80.275912 
L 92.487273 80.335139 
L 92.650909 80.662865 
L 92.978182 81.58089 
L 93.141818 81.760547 
L 93.305455 81.681577 
L 93.469091 81.965868 
L 93.632727 81.942177 
L 93.796364 82.364666 
L 94.287273 82.011276 
L 94.614545 82.611447 
L 94.941818 82.340975 
L 95.105455 82.354795 
L 95.269091 82.637113 
L 95.432727 82.192907 
L 95.596364 83.225439 
L 95.76 83.043808 
L 95.923636 83.215567 
L 96.087273 82.61737 
L 96.414545 82.412048 
L 96.578182 82.601576 
L 96.741818 82.972735 
L 97.069091 82.60355 
L 97.396364 81.910589 
L 97.723636 82.094194 
L 97.887273 82.581834 
L 98.050909 83.555138 
L 98.214545 83.586726 
L 98.541818 84.486983 
L 98.869091 83.799945 
L 99.196364 84.226382 
L 99.850909 84.621232 
L 100.014545 84.250073 
L 100.178182 84.504751 
L 100.341818 85.055567 
L 100.505455 84.694279 
L 100.669091 84.684408 
L 100.996364 86.054536 
L 101.323636 86.184837 
L 101.814545 87.014021 
L 101.978182 85.930159 
L 102.141818 86.299343 
L 102.469091 87.588527 
L 102.796364 87.72475 
L 103.123636 88.313076 
L 103.287273 88.014965 
L 103.614545 88.751359 
L 103.778182 88.504578 
L 103.941818 88.907325 
L 104.269091 88.899428 
L 104.432727 89.566724 
L 104.923636 89.424578 
L 105.414545 90.792732 
L 105.578182 90.320886 
L 106.232727 91.95359 
L 106.396364 91.685092 
L 106.56 91.146122 
L 106.723636 91.266551 
L 106.887273 92.068096 
L 107.050909 91.835135 
L 107.214545 92.117452 
L 107.378182 92.111529 
L 107.705455 91.65153 
L 107.869091 91.997023 
L 108.032727 91.866723 
L 108.36 92.790671 
L 108.523636 92.022688 
L 108.687273 92.3208 
L 108.850909 92.103632 
L 109.014545 93.142087 
L 109.178182 92.776851 
L 109.341818 92.693933 
L 109.505455 92.182602 
L 109.669091 92.279341 
L 109.832727 92.123375 
L 109.996364 92.206293 
L 110.16 91.592302 
L 110.323636 91.791701 
L 110.650909 92.875563 
L 110.814545 92.889383 
L 110.978182 93.187495 
L 111.305455 93.092731 
L 111.469091 93.094705 
L 111.632727 93.513246 
L 111.796364 93.232902 
L 111.96 93.586293 
L 112.287273 92.982173 
L 112.450909 93.053246 
L 112.614545 93.625778 
L 112.778182 93.692902 
L 113.105455 94.518138 
L 113.596364 95.623717 
L 113.76 95.939597 
L 114.087273 97.483459 
L 114.250909 98.067836 
L 114.414545 97.943458 
L 114.578182 97.564403 
L 114.741818 98.760797 
L 114.905455 98.119166 
L 115.069091 98.285003 
L 115.232727 99.001655 
L 115.396364 98.472557 
L 115.56 98.602857 
L 115.887273 97.751956 
L 116.050909 97.834875 
L 116.214545 97.680883 
L 116.378182 98.050068 
L 116.541818 97.892128 
L 116.705455 98.190239 
L 117.032727 97.941484 
L 117.36 98.142857 
L 117.523636 97.978995 
L 117.850909 98.78054 
L 118.014545 99.122085 
L 118.341818 98.944402 
L 118.669091 99.726204 
L 118.832727 99.412299 
L 118.996364 99.799252 
L 119.16 99.599853 
L 119.814545 101.149637 
L 119.978182 101.145689 
L 120.141818 100.871268 
L 120.305455 101.189122 
L 120.469091 100.474444 
L 120.796364 101.337191 
L 120.96 100.855474 
L 121.123636 101.426032 
L 121.287273 101.185174 
L 121.450909 101.408264 
L 121.778182 100.804144 
L 121.941818 100.354015 
L 122.269091 100.547492 
L 122.432727 100.211869 
L 122.596364 100.219766 
L 122.923636 100.598822 
L 123.250909 101.700453 
L 123.578182 100.849552 
L 123.741818 101.116075 
L 123.905455 101.118049 
L 124.069091 101.24835 
L 124.396364 100.257277 
L 124.56 100.425088 
L 124.723636 100.123028 
L 124.887273 100.34217 
L 125.050909 100.93247 
L 125.214545 101.023285 
L 125.541818 100.746891 
L 125.705455 100.91865 
L 125.869091 101.351011 
L 126.196364 102.606632 
L 126.523636 102.089379 
L 126.687273 102.557276 
L 126.850909 101.895903 
L 127.178182 102.229551 
L 127.341818 101.779422 
L 127.996364 103.410151 
L 128.16 102.979765 
L 128.323636 103.307491 
L 128.487273 102.778392 
L 128.650909 102.946203 
L 129.141818 103.955044 
L 129.305455 103.579937 
L 129.469091 103.62337 
L 129.796364 102.369723 
L 130.123636 102.71719 
L 130.614545 101.617534 
L 130.941818 100.466547 
L 131.105455 100.585002 
L 131.269091 100.237535 
L 131.432727 101.007491 
L 131.76 99.761741 
L 131.923636 100.245432 
L 132.087273 100.028264 
L 132.250909 100.539595 
L 132.905455 100.502084 
L 133.069091 101.420109 
L 133.232727 101.058822 
L 133.56 101.400367 
L 133.723636 101.864315 
L 134.050909 101.058822 
L 134.378182 100.920625 
L 134.705455 99.765689 
L 134.869091 99.935475 
L 135.032727 99.589981 
L 135.196364 98.92466 
L 135.36 98.97599 
L 135.523636 98.042171 
L 135.687273 97.935561 
L 136.505455 96.642429 
L 136.669091 97.062944 
L 136.832727 96.802343 
L 136.996364 97.499253 
L 137.487273 97.325519 
L 137.650909 97.120197 
L 137.814545 97.676935 
L 137.978182 97.54466 
L 138.141818 97.149811 
L 138.796364 98.731183 
L 138.96 98.198136 
L 139.123636 98.281055 
L 139.287273 98.079682 
L 139.450909 97.315647 
L 139.614545 97.116248 
L 139.941818 96.105433 
L 140.105455 96.733244 
L 140.269091 96.328523 
L 141.250909 99.218823 
L 141.578182 99.552471 
L 141.741818 99.163544 
L 141.905455 99.937449 
L 142.069091 99.980882 
L 142.232727 100.261226 
L 142.396364 99.965088 
L 142.56 99.380711 
L 142.723636 99.228694 
L 143.050909 99.899938 
L 143.378182 99.988779 
L 143.541818 99.740024 
L 143.869091 100.002599 
L 144.196364 98.942428 
L 144.523636 98.186291 
L 144.850909 98.926634 
L 145.014545 98.999681 
L 145.341818 98.318566 
L 145.505455 98.500196 
L 145.669091 98.166548 
L 145.996364 98.046119 
L 146.16 98.375819 
L 146.650909 98.442943 
L 146.814545 98.559424 
L 146.978182 98.271184 
L 147.141818 98.431098 
L 147.469091 98.889123 
L 147.632727 98.895046 
L 147.796364 99.171441 
L 147.96 98.796334 
L 148.287273 99.453758 
L 148.450909 99.548522 
L 148.614545 100.140797 
L 148.778182 100.231612 
L 148.941818 100.652127 
L 149.105455 100.462599 
L 149.432727 100.511955 
L 149.596364 99.59393 
L 149.923636 99.416247 
L 150.087273 98.970067 
L 150.414545 98.977964 
L 150.578182 99.71041 
L 150.741818 99.923629 
L 150.905455 99.846634 
L 151.232727 100.523801 
L 151.396364 100.569208 
L 151.56 100.413243 
L 151.723636 100.646204 
L 151.887273 100.42114 
L 152.050909 101.153586 
L 152.705455 100.847577 
L 152.869091 101.078564 
L 153.032727 101.578049 
L 153.196364 101.416161 
L 153.36 101.491182 
L 153.687273 100.904831 
L 154.014545 101.47144 
L 154.178182 101.872212 
L 154.341818 101.771526 
L 154.505455 101.901826 
L 154.669091 102.618478 
L 154.832727 102.533585 
L 154.996364 102.170324 
L 155.16 102.188092 
L 155.487273 101.718221 
L 155.650909 101.927491 
L 155.814545 101.445775 
L 156.141818 103.110066 
L 156.305455 102.847491 
L 156.469091 103.575988 
L 156.796364 103.044916 
L 157.123636 102.391439 
L 157.287273 101.860367 
L 157.614545 101.722169 
L 157.941818 100.395475 
L 158.105455 100.188179 
L 158.269091 100.879165 
L 158.596364 99.992728 
L 158.76 99.285947 
L 159.087273 98.918737 
L 159.414545 98.33436 
L 159.578182 98.468608 
L 159.741818 98.750926 
L 159.905455 99.35702 
L 160.069091 99.236591 
L 160.232727 98.535733 
L 160.56 99.062857 
L 160.887273 99.862428 
L 161.214545 99.720282 
L 161.378182 99.641312 
L 161.705455 100.361912 
L 161.869091 100.101312 
L 162.032727 99.181312 
L 162.196364 99.124059 
L 162.36 99.445861 
L 163.014545 98.113244 
L 163.178182 98.000712 
L 163.341818 98.192214 
L 163.505455 98.132986 
L 163.669091 97.649295 
L 163.832727 98.310669 
L 163.996364 98.099424 
L 164.16 98.261312 
L 164.323636 97.674961 
L 164.487273 97.805261 
L 164.650909 97.732214 
L 164.814545 97.79539 
L 165.141818 97.130068 
L 165.305455 97.268266 
L 165.796364 96.934618 
L 165.96 96.304832 
L 166.123636 96.306807 
L 166.287273 96.137021 
L 166.450909 96.49436 
L 166.614545 97.365004 
L 167.432727 95.343374 
L 167.76 95.775734 
L 168.250909 95.351271 
L 168.414545 96.261399 
L 168.578182 95.706635 
L 168.905455 96.409468 
L 169.069091 96.598995 
L 169.396364 95.949468 
L 169.723636 94.832043 
L 169.887273 94.922859 
L 170.214545 95.347322 
L 170.705455 93.898224 
L 170.869091 94.018653 
L 171.032727 93.992988 
L 171.196364 93.596164 
L 171.523636 94.141057 
L 171.687273 93.81728 
L 172.014545 94.826121 
L 172.178182 94.772816 
L 172.341818 95.039339 
L 172.505455 94.531958 
L 172.669091 93.538911 
L 172.832727 93.94758 
L 172.996364 93.80346 
L 173.16 93.276336 
L 173.323636 93.151958 
L 174.305455 95.0117 
L 174.469091 95.52303 
L 174.796364 95.066979 
L 174.96 95.082773 
L 175.123636 94.782687 
L 175.287273 94.907065 
L 176.269091 93.97522 
L 176.76 93.302001 
L 177.087273 92.984147 
L 177.414545 92.855821 
L 177.578182 92.403718 
L 177.905455 92.555735 
L 178.232727 92.09771 
L 178.396364 92.875563 
L 178.887273 93.053246 
L 179.541818 94.863631 
L 179.705455 94.5517 
L 179.869091 93.943632 
L 180.032727 94.107494 
L 180.196364 94.614876 
L 180.36 93.894275 
L 180.523636 94.020627 
L 180.850909 93.479683 
L 181.014545 93.479683 
L 181.178182 93.144061 
L 181.505455 93.604061 
L 181.832727 92.776851 
L 182.650909 93.696851 
L 182.814545 93.929812 
L 182.978182 93.455992 
L 183.141818 92.587323 
L 183.305455 92.346465 
L 183.632727 92.407667 
L 183.96 93.286207 
L 184.287273 92.08389 
L 184.450909 92.137195 
L 184.778182 92.680113 
L 184.941818 92.093761 
L 185.105455 92.537967 
L 185.269091 92.46492 
L 185.432727 92.569555 
L 185.596364 92.127323 
L 185.76 92.46492 
L 186.250909 92.537967 
L 186.414545 92.796594 
L 186.578182 92.840027 
L 186.905455 92.784748 
L 187.069091 92.936765 
L 187.396364 92.166808 
L 187.723636 92.427409 
L 187.887273 91.752216 
L 188.050909 91.805521 
L 188.214545 92.044405 
L 188.541818 91.274448 
L 188.869091 91.566637 
L 189.032727 91.647581 
L 189.196364 91.529126 
L 189.36 91.70286 
L 189.523636 91.65153 
L 189.850909 92.026637 
L 190.178182 91.017796 
L 190.341818 91.185607 
L 190.669091 89.854964 
L 191.16 88.7099 
L 191.323636 88.702003 
L 191.487273 88.350587 
L 191.650909 88.836252 
L 191.814545 88.771102 
L 191.978182 88.830329 
L 192.141818 89.554878 
L 192.305455 89.454191 
L 192.469091 89.552904 
L 192.796364 89.434449 
L 193.123636 90.36432 
L 193.287273 90.399856 
L 193.614545 89.991187 
L 193.778182 89.916166 
L 193.941818 90.149127 
L 194.269091 90.719685 
L 194.432727 91.063204 
L 194.923636 90.255736 
L 195.087273 90.792732 
L 195.414545 90.792732 
L 195.578182 90.125436 
L 195.741818 90.054363 
L 195.905455 89.140286 
L 196.232727 89.110672 
L 196.396364 89.432475 
L 196.723636 88.857969 
L 197.050909 89.645694 
L 197.214545 89.353505 
L 197.541818 89.440372 
L 197.705455 90.184663 
L 197.869091 89.896423 
L 198.032727 89.902346 
L 198.196364 90.024749 
L 198.36 89.967496 
L 198.523636 89.661488 
L 198.687273 89.770071 
L 198.850909 89.460114 
L 199.014545 89.98329 
L 199.178182 90.014878 
L 199.341818 89.827324 
L 199.505455 89.856938 
L 200.16 90.820371 
L 200.487273 89.768097 
L 200.814545 91.055307 
L 201.141818 90.362346 
L 201.305455 90.433419 
L 201.632727 90.20638 
L 202.287273 88.646724 
L 202.614545 89.45814 
L 202.778182 89.835221 
L 202.941818 89.596337 
L 203.105455 89.083033 
L 203.269091 88.99814 
L 203.596364 89.171874 
L 203.923636 89.162003 
L 204.250909 88.47299 
L 204.414545 88.826381 
L 204.578182 88.719771 
L 204.741818 88.338741 
L 205.069091 88.56578 
L 205.232727 88.028784 
L 205.396364 87.995222 
L 205.723636 88.354535 
L 205.887273 87.997196 
L 206.214545 87.843205 
L 206.705455 88.611188 
L 206.869091 87.93402 
L 207.032727 88.411788 
L 207.196364 88.062347 
L 207.36 88.024836 
L 207.523636 88.147239 
L 207.687273 88.465093 
L 207.850909 88.232132 
L 208.014545 88.936938 
L 208.178182 88.745436 
L 208.505455 89.280458 
L 208.669091 88.741488 
L 208.996364 89.377196 
L 209.16 89.724663 
L 209.323636 89.663462 
L 209.650909 88.895479 
L 209.814545 89.150157 
L 209.978182 89.823376 
L 210.632727 89.209385 
L 210.96 87.669471 
L 211.123636 87.778055 
L 211.287273 88.030759 
L 211.450909 88.062347 
L 211.778182 88.289385 
L 211.941818 87.833334 
L 212.105455 87.951789 
L 212.269091 87.898484 
L 212.432727 88.273591 
L 212.596364 88.200544 
L 212.76 88.603291 
L 213.250909 88.8402 
L 213.414545 88.623033 
L 213.578182 88.648698 
L 213.741818 89.211359 
L 213.905455 89.185694 
L 214.232727 89.3002 
L 214.396364 89.872732 
L 214.887273 89.858912 
L 215.050909 90.28535 
L 215.378182 90.261659 
L 215.541818 90.393934 
L 215.705455 90.275479 
L 216.196364 91.302088 
L 216.523636 90.960543 
L 216.687273 90.486723 
L 216.850909 90.743375 
L 217.014545 91.385006 
L 217.178182 90.705865 
L 217.341818 90.90329 
L 217.505455 90.917109 
L 217.669091 91.542946 
L 217.996364 91.215221 
L 218.487273 92.020714 
L 218.814545 93.34346 
L 219.305455 93.06904 
L 219.632727 93.363203 
L 219.796364 93.714619 
L 219.96 93.475735 
L 220.123636 93.552731 
L 220.287273 93.994962 
L 220.450909 94.115391 
L 220.614545 93.550756 
L 220.941818 93.653417 
L 221.269091 94.32861 
L 221.432727 93.767924 
L 221.596364 93.771872 
L 221.76 93.647494 
L 221.923636 93.714619 
L 222.087273 94.164747 
L 222.414545 94.210155 
L 222.578182 94.048267 
L 222.741818 94.488524 
L 222.905455 94.514189 
L 223.069091 94.721485 
L 223.232727 94.63067 
L 224.050909 95.876421 
L 224.214545 95.866549 
L 224.378182 95.990927 
L 224.541818 95.663202 
L 224.705455 95.933674 
L 225.032727 95.505262 
L 225.196364 95.698738 
L 225.523636 95.167666 
L 225.850909 94.770842 
L 226.341818 94.524061 
L 226.505455 94.261486 
L 226.669091 94.539855 
L 226.832727 94.145005 
L 226.996364 94.241743 
L 227.323636 95.173588 
L 227.487273 95.199254 
L 227.814545 95.836936 
L 227.978182 96.052129 
L 228.141818 96.060026 
L 228.305455 96.87539 
L 228.796364 97.550583 
L 228.96 97.901999 
L 229.123636 97.955304 
L 229.287273 97.856591 
L 229.450909 97.890154 
L 229.614545 97.783544 
L 229.778182 98.438995 
L 229.941818 98.067836 
L 230.596364 97.828952 
L 231.087273 96.529897 
L 231.414545 97.147836 
L 231.578182 96.999768 
L 231.741818 97.013588 
L 231.905455 97.203115 
L 232.069091 96.778652 
L 232.232727 96.752987 
L 232.396364 96.210069 
L 232.56 96.087665 
L 232.723636 95.36509 
L 232.887273 95.521056 
L 233.050909 95.329554 
L 233.378182 95.789554 
L 233.541818 95.258481 
L 233.705455 95.517107 
L 233.869091 94.991957 
L 234.032727 95.264404 
L 234.196364 95.082773 
L 234.36 95.193331 
L 234.523636 95.655305 
L 234.687273 95.02552 
L 234.850909 95.007751 
L 235.178182 94.470756 
L 235.341818 94.924833 
L 235.505455 95.029468 
L 235.669091 94.737279 
L 236.16 94.680026 
L 236.323636 94.362172 
L 236.487273 94.608953 
L 236.814545 93.588267 
L 237.305455 94.727408 
L 237.469091 94.86758 
L 237.632727 94.45891 
L 237.796364 94.447065 
L 238.123636 95.497365 
L 238.450909 95.623717 
L 238.778182 94.70964 
L 238.941818 94.916936 
L 239.432727 94.510241 
L 239.76 94.646464 
L 239.923636 94.757022 
L 240.087273 94.188438 
L 240.250909 94.271357 
L 240.414545 94.689897 
L 240.578182 94.543803 
L 240.741818 94.227923 
L 240.905455 94.370069 
L 241.069091 94.283202 
L 241.232727 94.038396 
L 241.56 95.10449 
L 242.050909 95.783631 
L 242.378182 95.530927 
L 242.705455 95.62964 
L 242.869091 95.596077 
L 243.032727 95.398653 
L 243.196364 95.673073 
L 243.36 95.609897 
L 243.523636 95.301914 
L 243.687273 94.441142 
L 243.850909 94.445091 
L 244.014545 95.266378 
L 244.505455 94.008782 
L 244.669091 94.310842 
L 244.832727 93.568525 
L 244.996364 93.72449 
L 245.16 94.05419 
L 245.323636 94.006808 
L 245.487273 93.536937 
L 245.814545 94.056164 
L 245.978182 93.931786 
L 246.141818 94.018653 
L 246.305455 93.007838 
L 246.469091 93.459941 
L 246.796364 93.303975 
L 246.96 93.503374 
L 247.123636 93.191443 
L 247.450909 93.244748 
L 247.614545 93.250671 
L 247.778182 93.685005 
L 247.941818 93.635649 
L 248.432727 92.4511 
L 248.596364 92.502431 
L 249.250909 93.546808 
L 249.414545 93.205263 
L 249.578182 93.75213 
L 250.069091 93.246722 
L 250.723636 94.887322 
L 250.887273 94.796507 
L 251.050909 94.417451 
L 251.378182 94.705691 
L 251.541818 94.599082 
L 251.869091 93.929812 
L 252.196364 94.395735 
L 252.523636 93.833074 
L 252.687273 93.300027 
L 252.850909 93.639597 
L 253.014545 93.550756 
L 253.178182 93.878482 
L 253.341818 94.526035 
L 253.832727 94.516164 
L 254.16 93.989039 
L 254.323636 94.148953 
L 254.650909 93.546808 
L 254.978182 93.906121 
L 255.141818 93.941657 
L 255.305455 94.676078 
L 255.469091 94.851786 
L 255.632727 95.303889 
L 255.796364 95.15582 
L 255.96 95.321657 
L 256.123636 95.201228 
L 256.450909 96.261399 
L 256.614545 96.393674 
L 256.941818 95.870498 
L 257.105455 95.951442 
L 257.269091 96.308781 
L 257.596364 96.389725 
L 257.76 96.269296 
L 258.087273 94.871528 
L 258.250909 94.306893 
L 259.232727 95.232816 
L 259.56 95.187408 
L 259.723636 94.713588 
L 260.378182 96.160712 
L 260.541818 95.264404 
L 260.705455 95.692816 
L 261.032727 95.467751 
L 261.36 94.535906 
L 261.523636 94.912988 
L 261.687273 94.751099 
L 262.014545 94.253589 
L 262.178182 94.857709 
L 262.505455 94.638567 
L 262.832727 95.371013 
L 262.996364 95.157794 
L 263.487273 93.552731 
L 263.814545 94.103546 
L 263.978182 94.826121 
L 264.469091 94.291099 
L 264.632727 94.770842 
L 265.123636 94.575391 
L 265.450909 94.855734 
L 265.614545 94.476679 
L 265.778182 94.443116 
L 265.941818 94.65831 
L 266.105455 94.231872 
L 266.269091 94.713588 
L 266.432727 94.786636 
L 266.596364 95.50921 
L 266.923636 94.642516 
L 267.087273 94.689897 
L 267.250909 94.350327 
L 267.414545 94.940627 
L 267.578182 94.77479 
L 267.905455 94.962344 
L 268.069091 94.689897 
L 268.232727 94.717537 
L 268.56 94.245692 
L 268.723636 94.360198 
L 269.050909 95.284146 
L 269.214545 95.801399 
L 269.378182 95.876421 
L 269.541818 96.472644 
L 269.869091 95.657279 
L 270.032727 95.568438 
L 270.36 94.610928 
L 270.523636 94.559597 
L 270.687273 94.950498 
L 271.014545 94.320713 
L 271.178182 94.192387 
L 271.505455 93.262516 
L 271.669091 93.377022 
L 271.996364 93.187495 
L 272.16 92.812388 
L 272.323636 92.952559 
L 272.487273 92.486637 
L 272.650909 92.518225 
L 272.814545 91.827238 
L 272.978182 92.575478 
L 273.141818 92.733418 
L 273.305455 92.597194 
L 273.469091 92.877538 
L 273.632727 92.84595 
L 274.123636 91.886465 
L 274.287273 92.103632 
L 274.614545 93.217108 
L 274.941818 93.665263 
L 275.105455 93.394791 
L 275.432727 93.894275 
L 275.596364 93.708696 
L 275.76 94.066035 
L 275.923636 94.038396 
L 276.087273 95.072902 
L 276.578182 95.007751 
L 276.905455 93.692902 
L 277.069091 93.813331 
L 277.232727 93.463889 
L 277.396364 93.392816 
L 277.56 93.578396 
L 277.723636 93.572473 
L 277.887273 93.78964 
L 278.214545 93.167752 
L 278.541818 94.129211 
L 278.705455 93.268439 
L 278.869091 93.268439 
L 279.196364 92.978224 
L 279.523636 94.494447 
L 279.850909 95.45788 
L 280.014545 96.520025 
L 280.178182 95.761914 
L 280.341818 95.868524 
L 280.505455 94.758996 
L 280.669091 95.10449 
L 280.832727 95.065005 
L 280.996364 94.719511 
L 281.16 94.656335 
L 281.323636 94.780713 
L 281.487273 94.5517 
L 281.650909 94.676078 
L 281.978182 94.591185 
L 282.305455 95.177537 
L 282.469091 95.138052 
L 282.632727 95.382859 
L 282.96 95.215047 
L 283.123636 94.745176 
L 283.287273 94.662258 
L 283.450909 95.023545 
L 283.941818 93.611958 
L 284.105455 94.445091 
L 284.432727 94.682 
L 284.76 96.073845 
L 284.923636 95.85273 
L 285.087273 95.906034 
L 285.414545 95.698738 
L 285.578182 96.062 
L 285.741818 95.639511 
L 286.069091 94.50037 
L 286.396364 95.315734 
L 286.56 95.497365 
L 286.723636 96.018566 
L 286.887273 96.111356 
L 287.050909 96.551613 
L 287.214545 96.512129 
L 287.378182 96.294961 
L 287.541818 96.529897 
L 287.705455 96.563459 
L 287.869091 97.029382 
L 288.196364 96.58715 
L 288.523636 95.892215 
L 289.178182 96.974103 
L 289.341818 96.701656 
L 289.505455 95.295992 
L 289.832727 95.598052 
L 290.16 95.218996 
L 290.323636 96.03436 
L 290.487273 96.038309 
L 290.650909 96.366034 
L 290.814545 96.413416 
L 291.141818 95.724404 
L 291.469091 95.530927 
L 291.632727 95.29994 
L 291.796364 94.820198 
L 291.96 95.32758 
L 292.123636 95.065005 
L 292.450909 95.872472 
L 292.614545 95.023545 
L 292.778182 95.213073 
L 293.269091 94.822172 
L 293.432727 95.102515 
L 293.596364 95.061056 
L 293.76 95.143975 
L 293.923636 95.627665 
L 294.087273 95.602 
L 294.414545 95.23479 
L 294.578182 95.20715 
L 294.741818 96.087665 
L 294.905455 95.81127 
L 295.069091 95.246635 
L 295.232727 95.538824 
L 295.396364 95.451957 
L 295.56 96.079768 
L 295.887273 95.18346 
L 296.050909 94.954447 
L 296.214545 95.072902 
L 296.378182 95.345348 
L 296.541818 94.287151 
L 296.705455 94.835992 
L 296.869091 94.547752 
L 297.032727 95.272301 
L 297.196364 95.098567 
L 297.523636 95.515133 
L 297.687273 95.094618 
L 297.850909 95.16964 
L 298.341818 96.675991 
L 298.505455 96.539768 
L 298.669091 96.172558 
L 298.832727 96.259425 
L 299.16 95.977107 
L 299.814545 97.041227 
L 299.978182 96.75891 
L 300.141818 97.057021 
L 300.469091 96.936592 
L 300.632727 96.208094 
L 300.96 96.908952 
L 301.123636 96.1923 
L 301.450909 96.419339 
L 301.614545 96.263373 
L 301.778182 96.628609 
L 301.941818 96.275219 
L 302.105455 95.475648 
L 302.432727 95.856678 
L 302.923636 95.446035 
L 303.087273 95.112387 
L 303.414545 95.092644 
L 303.578182 95.082773 
L 303.741818 94.903116 
L 303.905455 95.106464 
L 304.396364 95.163717 
L 305.050909 95.669125 
L 305.378182 94.790584 
L 305.541818 94.095649 
L 305.869091 93.813331 
L 306.196364 94.066035 
L 306.36 94.117366 
L 307.014545 93.546808 
L 307.178182 93.592216 
L 307.341818 93.406636 
L 307.505455 93.639597 
L 307.669091 93.394791 
L 307.832727 93.773846 
L 307.996364 93.349383 
L 308.16 93.604061 
L 308.323636 93.479683 
L 308.487273 92.940714 
L 308.650909 93.124319 
L 308.814545 92.099684 
L 308.978182 91.908182 
L 309.141818 92.322774 
L 309.305455 91.95359 
L 309.469091 92.172731 
L 309.96 92.243804 
L 310.123636 92.30698 
L 310.450909 91.513332 
L 310.614545 91.633761 
L 310.941818 91.633761 
L 311.432727 90.158998 
L 311.596364 90.437367 
L 311.923636 90.449213 
L 312.087273 89.977367 
L 312.250909 90.395908 
L 312.414545 89.730586 
L 312.578182 89.570672 
L 312.905455 88.80269 
L 313.069091 89.312046 
L 313.232727 89.053419 
L 313.396364 89.148183 
L 313.56 88.271617 
L 313.723636 88.10578 
L 313.887273 87.383205 
L 314.050909 87.612218 
L 314.214545 88.425608 
L 314.378182 88.478913 
L 314.541818 88.994192 
L 314.869091 87.983377 
L 315.032727 87.770158 
L 315.196364 87.851102 
L 315.523636 87.258828 
L 315.687273 87.361488 
L 316.014545 86.790931 
L 316.341818 86.05651 
L 316.505455 86.068356 
L 316.832727 85.714966 
L 317.16 86.210502 
L 317.487273 84.654794 
L 317.650909 84.818657 
L 317.814545 84.151361 
L 318.141818 84.180975 
L 318.305455 83.568958 
L 318.469091 83.438657 
L 318.632727 84.425781 
L 318.96 84.447498 
L 319.287273 84.279687 
L 319.450909 84.891704 
L 319.614545 84.808786 
L 319.941818 85.002262 
L 320.105455 84.644923 
L 320.432727 84.759429 
L 320.596364 84.42973 
L 320.76 84.368528 
L 321.087273 85.140459 
L 321.250909 85.11282 
L 321.414545 84.609387 
L 321.578182 84.743635 
L 322.069091 86.137455 
L 322.232727 86.21445 
L 322.56 87.294364 
L 322.723636 86.668527 
L 322.887273 86.548098 
L 323.050909 86.757369 
L 323.214545 86.591532 
L 323.541818 86.97651 
L 323.705455 86.907411 
L 323.869091 87.008098 
L 324.032727 86.747497 
L 324.36 87.26475 
L 324.523636 87.479943 
L 324.687273 87.215394 
L 325.014545 87.6596 
L 325.178182 87.397025 
L 325.505455 88.45917 
L 325.669091 88.461145 
L 325.832727 88.950758 
L 325.996364 88.966552 
L 326.323636 88.522346 
L 326.650909 89.237024 
L 326.814545 89.464063 
L 326.978182 89.487754 
L 327.305455 90.881573 
L 327.632727 90.958569 
L 327.796364 91.41462 
L 327.96 91.367238 
L 328.450909 90.50844 
L 328.614545 90.57359 
L 328.941818 91.691015 
L 329.105455 91.238912 
L 329.269091 91.187581 
L 329.432727 90.786809 
L 329.596364 90.697968 
L 329.923636 91.998997 
L 330.087273 91.995049 
L 330.250909 92.867666 
L 330.414545 93.043375 
L 330.741818 92.443203 
L 330.905455 92.139169 
L 331.069091 91.367238 
L 331.232727 91.355392 
L 331.396364 91.11256 
L 331.56 91.452131 
L 331.723636 91.183633 
L 332.050909 91.406723 
L 332.705455 93.015735 
L 332.869091 92.73934 
L 333.032727 92.99007 
L 333.36 94.071958 
L 333.523636 94.64449 
L 333.687273 94.53788 
L 333.850909 94.784661 
L 334.014545 95.900112 
L 334.178182 96.176506 
L 334.341818 96.190326 
L 334.505455 96.008695 
L 334.832727 96.784575 
L 334.996364 96.654274 
L 335.16 95.866549 
L 335.323636 95.714532 
L 335.814545 96.632558 
L 336.305455 95.738223 
L 336.632727 96.056077 
L 336.796364 96.014618 
L 337.287273 97.252472 
L 337.614545 96.065948 
L 337.778182 96.010669 
L 338.105455 96.543716 
L 338.269091 96.294961 
L 338.432727 96.320626 
L 338.596364 95.909983 
L 338.76 95.888266 
L 338.923636 95.659253 
L 339.087273 95.232816 
L 339.414545 95.497365 
L 339.741818 96.701656 
L 339.905455 96.476592 
L 340.069091 96.664146 
L 340.723636 96.050154 
L 340.887273 96.014618 
L 341.214545 96.502257 
L 341.378182 96.314704 
L 341.541818 95.864575 
L 341.705455 96.212043 
L 342.032727 95.120284 
L 342.196364 94.837966 
L 342.687273 95.596077 
L 342.850909 95.714532 
L 343.014545 95.372987 
L 343.178182 95.858652 
L 343.505455 95.998824 
L 343.832727 94.851786 
L 343.996364 94.94655 
L 344.16 95.284146 
L 344.323636 95.068953 
L 344.487273 95.448009 
L 344.650909 96.441056 
L 344.814545 96.227837 
L 345.141818 97.108351 
L 345.469091 95.878395 
L 345.632727 96.770755 
L 345.796364 96.735219 
L 345.96 96.934618 
L 346.123636 96.608867 
L 346.450909 94.620799 
L 346.614545 95.029468 
L 346.778182 94.441142 
L 346.941818 94.474704 
L 347.432727 95.765863 
L 347.596364 95.819167 
L 347.76 95.448009 
L 347.923636 95.493416 
L 348.087273 95.925777 
L 348.250909 95.908009 
L 348.414545 96.514103 
L 348.578182 96.188352 
L 348.741818 96.381828 
L 348.905455 96.018566 
L 349.232727 95.055133 
L 349.396364 95.594103 
L 349.56 95.339425 
L 349.887273 94.050241 
L 350.214545 92.838053 
L 350.378182 92.745263 
L 350.541818 91.801572 
L 350.869091 92.366207 
L 351.032727 93.132216 
L 351.196364 92.938739 
L 351.523636 93.414533 
L 351.687273 94.044318 
L 352.178182 93.963374 
L 352.505455 93.098653 
L 352.669091 93.047323 
L 352.996364 93.876507 
L 353.16 93.987065 
L 353.487273 93.58037 
L 353.650909 93.116422 
L 354.141818 94.729382 
L 354.469091 95.282172 
L 354.632727 95.357193 
L 354.796364 95.673073 
L 354.96 95.465777 
L 355.287273 95.635562 
L 355.450909 95.301914 
L 355.614545 95.479597 
L 355.778182 95.40655 
L 355.941818 95.801399 
L 356.269091 94.419425 
L 356.596364 93.941657 
L 356.923636 93.850842 
L 357.087273 94.216078 
L 357.250909 93.951529 
L 357.414545 94.034447 
L 357.741818 93.576422 
L 357.905455 93.414533 
L 358.069091 93.708696 
L 358.232727 94.705691 
L 358.56 94.80243 
L 358.723636 94.729382 
L 359.050909 93.657366 
L 359.378182 94.387838 
L 359.541818 94.435219 
L 359.705455 94.168696 
L 359.869091 94.15685 
L 360.032727 94.405606 
L 360.196364 94.002859 
L 360.36 93.927838 
L 360.687273 94.247666 
L 360.850909 94.032473 
L 361.178182 93.132216 
L 361.341818 93.633675 
L 361.669091 92.522173 
L 361.996364 92.43728 
L 362.16 91.981229 
L 362.487273 92.563632 
L 362.978182 94.154876 
L 363.141818 94.835992 
L 363.305455 94.628696 
L 363.469091 94.650413 
L 363.796364 94.379941 
L 363.96 93.945606 
L 364.450909 95.250584 
L 364.614545 94.484576 
L 364.778182 95.110412 
L 364.941818 94.903116 
L 365.105455 95.921828 
L 365.269091 95.754017 
L 365.432727 95.18346 
L 365.596364 95.24861 
L 365.76 95.572386 
L 365.923636 95.149897 
L 366.087273 95.102515 
L 366.414545 96.129124 
L 366.741818 96.032386 
L 367.069091 95.568438 
L 367.232727 94.614876 
L 367.396364 95.159769 
L 367.56 94.683975 
L 367.723636 94.922859 
L 367.887273 94.218052 
L 368.050909 95.066979 
L 368.214545 94.776764 
L 368.378182 95.530927 
L 368.541818 95.461829 
L 368.705455 95.173588 
L 369.196364 96.180455 
L 369.523636 95.132129 
L 369.687273 95.32758 
L 370.014545 94.626722 
L 370.178182 94.8814 
L 370.341818 94.701743 
L 370.505455 94.701743 
L 370.996364 93.428353 
L 371.16 93.30595 
L 371.323636 92.9111 
L 371.487273 92.982173 
L 371.814545 92.828182 
L 371.978182 92.768954 
L 372.141818 92.378053 
L 372.305455 92.735392 
L 372.469091 91.977281 
L 372.632727 92.549813 
L 372.796364 92.559684 
L 372.96 92.930842 
L 373.123636 92.873589 
L 373.287273 93.394791 
L 373.614545 93.179598 
L 373.778182 93.925863 
L 373.941818 93.377022 
L 374.105455 93.5014 
L 374.269091 93.262516 
L 374.596364 94.18449 
L 374.76 93.12037 
L 375.087273 93.779769 
L 375.250909 93.718567 
L 375.741818 94.431271 
L 375.905455 94.350327 
L 376.069091 94.02655 
L 376.232727 94.330584 
L 376.56 94.085778 
L 377.378182 95.339425 
L 377.541818 95.909983 
L 378.032727 94.772816 
L 378.196364 95.027494 
L 378.36 95.704661 
L 378.523636 95.582258 
L 378.850909 96.095562 
L 379.014545 95.975133 
L 379.178182 95.400627 
L 379.341818 95.455906 
L 379.832727 94.379941 
L 380.16 94.814275 
L 380.487273 94.405606 
L 380.650909 94.143031 
L 381.141818 95.039339 
L 381.305455 94.879425 
L 381.469091 94.443116 
L 381.632727 93.675134 
L 381.796364 93.448095 
L 382.123636 94.451013 
L 382.287273 94.222001 
L 382.614545 94.865606 
L 383.105455 94.146979 
L 383.432727 94.358224 
L 383.76 94.954447 
L 383.923636 94.496421 
L 384.087273 94.670155 
L 384.250909 93.937709 
L 384.414545 94.004833 
L 385.069091 92.38595 
L 385.232727 92.822259 
L 385.396364 92.855821 
L 385.723636 91.902259 
L 385.887273 91.902259 
L 386.050909 92.077967 
L 386.214545 92.010843 
L 386.378182 92.526122 
L 386.541818 92.318825 
L 386.705455 92.360285 
L 386.869091 91.460028 
L 387.032727 91.515307 
L 387.196364 91.797624 
L 387.523636 91.671272 
L 387.687273 91.268525 
L 388.178182 91.392903 
L 388.669091 93.234877 
L 388.832727 93.169726 
L 388.996364 93.499426 
L 389.323636 92.772903 
L 389.487273 92.537967 
L 389.650909 93.298053 
L 389.814545 92.642602 
L 390.141818 92.942688 
L 390.305455 92.601143 
L 390.469091 93.43625 
L 390.96 93.230928 
L 391.287273 92.184577 
L 391.450909 91.556766 
L 391.778182 91.665349 
L 391.941818 91.564663 
L 392.269091 90.543976 
L 392.596364 90.808526 
L 392.76 90.368268 
L 392.923636 90.275479 
L 393.250909 90.358397 
L 393.578182 89.758226 
L 393.741818 89.312046 
L 393.905455 89.456166 
L 394.069091 89.045522 
L 394.232727 88.99814 
L 394.56 89.7602 
L 394.723636 89.612131 
L 394.887273 88.88166 
L 395.050909 89.154106 
L 395.214545 88.611188 
L 395.378182 89.027754 
L 395.705455 89.333762 
L 395.869091 89.858912 
L 396.032727 89.706895 
L 396.36 90.342603 
L 396.523636 90.149127 
L 396.687273 90.624921 
L 396.850909 90.33668 
L 397.014545 90.344577 
L 397.178182 90.196509 
L 397.341818 89.385093 
L 397.505455 89.347582 
L 397.669091 89.027754 
L 397.832727 88.368355 
L 397.996364 88.666466 
L 398.16 88.593419 
L 398.487273 87.797797 
L 398.487273 87.797797 
" clip-path="url(#pd93b675e46)" style="fill: none; stroke: #ff7f0e; stroke-width: 1.5; stroke-linecap: square"/>
   </g>
   <g id="patch_3">
    <path d="M 57.6 307.584 
L 57.6 41.472 
" style="fill: none; stroke: #000000; stroke-width: 0.8; stroke-linejoin: miter; stroke-linecap: square"/>
   </g>
   <g id="patch_4">
    <path d="M 414.72 307.584 
L 414.72 41.472 
" style="fill: none; stroke: #000000; stroke-width: 0.8; stroke-linejoin: miter; stroke-linecap: square"/>
   </g>
   <g id="patch_5">
    <path d="M 57.6 307.584 
L 414.72 307.584 
" style="fill: none; stroke: #000000; stroke-width: 0.8; stroke-linejoin: miter; stroke-linecap: square"/>
   </g>
   <g id="patch_6">
    <path d="M 57.6 41.472 
L 414.72 41.472 
" style="fill: none; stroke: #000000; stroke-width: 0.8; stroke-linejoin: miter; stroke-linecap: square"/>
   </g>
   <g id="text_19">
    <!-- Rolling average training progress of profits/rebuy_cost -->
    <g transform="translate(73.231875 35.472)scale(0.12 -0.12)">
     <defs>
      <path id="DejaVuSans-52" d="M 2841 2188 
Q 3044 2119 3236 1894 
Q 3428 1669 3622 1275 
L 4263 0 
L 3584 0 
L 2988 1197 
Q 2756 1666 2539 1819 
Q 2322 1972 1947 1972 
L 1259 1972 
L 1259 0 
L 628 0 
L 628 4666 
L 2053 4666 
Q 2853 4666 3247 4331 
Q 3641 3997 3641 3322 
Q 3641 2881 3436 2590 
Q 3231 2300 2841 2188 
z
M 1259 4147 
L 1259 2491 
L 2053 2491 
Q 2509 2491 2742 2702 
Q 2975 2913 2975 3322 
Q 2975 3731 2742 3939 
Q 2509 4147 2053 4147 
L 1259 4147 
z
" transform="scale(0.015625)"/>
      <path id="DejaVuSans-6c" d="M 603 4863 
L 1178 4863 
L 1178 0 
L 603 0 
L 603 4863 
z
" transform="scale(0.015625)"/>
      <path id="DejaVuSans-6e" d="M 3513 2113 
L 3513 0 
L 2938 0 
L 2938 2094 
Q 2938 2591 2744 2837 
Q 2550 3084 2163 3084 
Q 1697 3084 1428 2787 
Q 1159 2491 1159 1978 
L 1159 0 
L 581 0 
L 581 3500 
L 1159 3500 
L 1159 2956 
Q 1366 3272 1645 3428 
Q 1925 3584 2291 3584 
Q 2894 3584 3203 3211 
Q 3513 2838 3513 2113 
z
" transform="scale(0.015625)"/>
      <path id="DejaVuSans-67" d="M 2906 1791 
Q 2906 2416 2648 2759 
Q 2391 3103 1925 3103 
Q 1463 3103 1205 2759 
Q 947 2416 947 1791 
Q 947 1169 1205 825 
Q 1463 481 1925 481 
Q 2391 481 2648 825 
Q 2906 1169 2906 1791 
z
M 3481 434 
Q 3481 -459 3084 -895 
Q 2688 -1331 1869 -1331 
Q 1566 -1331 1297 -1286 
Q 1028 -1241 775 -1147 
L 775 -588 
Q 1028 -725 1275 -790 
Q 1522 -856 1778 -856 
Q 2344 -856 2625 -561 
Q 2906 -266 2906 331 
L 2906 616 
Q 2728 306 2450 153 
Q 2172 0 1784 0 
Q 1141 0 747 490 
Q 353 981 353 1791 
Q 353 2603 747 3093 
Q 1141 3584 1784 3584 
Q 2172 3584 2450 3431 
Q 2728 3278 2906 2969 
L 2906 3500 
L 3481 3500 
L 3481 434 
z
" transform="scale(0.015625)"/>
      <path id="DejaVuSans-20" transform="scale(0.015625)"/>
      <path id="DejaVuSans-61" d="M 2194 1759 
Q 1497 1759 1228 1600 
Q 959 1441 959 1056 
Q 959 750 1161 570 
Q 1363 391 1709 391 
Q 2188 391 2477 730 
Q 2766 1069 2766 1631 
L 2766 1759 
L 2194 1759 
z
M 3341 1997 
L 3341 0 
L 2766 0 
L 2766 531 
Q 2569 213 2275 61 
Q 1981 -91 1556 -91 
Q 1019 -91 701 211 
Q 384 513 384 1019 
Q 384 1609 779 1909 
Q 1175 2209 1959 2209 
L 2766 2209 
L 2766 2266 
Q 2766 2663 2505 2880 
Q 2244 3097 1772 3097 
Q 1472 3097 1187 3025 
Q 903 2953 641 2809 
L 641 3341 
Q 956 3463 1253 3523 
Q 1550 3584 1831 3584 
Q 2591 3584 2966 3190 
Q 3341 2797 3341 1997 
z
" transform="scale(0.015625)"/>
      <path id="DejaVuSans-76" d="M 191 3500 
L 800 3500 
L 1894 563 
L 2988 3500 
L 3597 3500 
L 2284 0 
L 1503 0 
L 191 3500 
z
" transform="scale(0.015625)"/>
     </defs>
     <use xlink:href="#DejaVuSans-52"/>
     <use xlink:href="#DejaVuSans-6f" x="64.982422"/>
     <use xlink:href="#DejaVuSans-6c" x="126.164062"/>
     <use xlink:href="#DejaVuSans-6c" x="153.947266"/>
     <use xlink:href="#DejaVuSans-69" x="181.730469"/>
     <use xlink:href="#DejaVuSans-6e" x="209.513672"/>
     <use xlink:href="#DejaVuSans-67" x="272.892578"/>
     <use xlink:href="#DejaVuSans-20" x="336.369141"/>
     <use xlink:href="#DejaVuSans-61" x="368.15625"/>
     <use xlink:href="#DejaVuSans-76" x="429.435547"/>
     <use xlink:href="#DejaVuSans-65" x="488.615234"/>
     <use xlink:href="#DejaVuSans-72" x="550.138672"/>
     <use xlink:href="#DejaVuSans-61" x="591.251953"/>
     <use xlink:href="#DejaVuSans-67" x="652.53125"/>
     <use xlink:href="#DejaVuSans-65" x="716.007812"/>
     <use xlink:href="#DejaVuSans-20" x="777.53125"/>
     <use xlink:href="#DejaVuSans-74" x="809.318359"/>
     <use xlink:href="#DejaVuSans-72" x="848.527344"/>
     <use xlink:href="#DejaVuSans-61" x="889.640625"/>
     <use xlink:href="#DejaVuSans-69" x="950.919922"/>
     <use xlink:href="#DejaVuSans-6e" x="978.703125"/>
     <use xlink:href="#DejaVuSans-69" x="1042.082031"/>
     <use xlink:href="#DejaVuSans-6e" x="1069.865234"/>
     <use xlink:href="#DejaVuSans-67" x="1133.244141"/>
     <use xlink:href="#DejaVuSans-20" x="1196.720703"/>
     <use xlink:href="#DejaVuSans-70" x="1228.507812"/>
     <use xlink:href="#DejaVuSans-72" x="1291.984375"/>
     <use xlink:href="#DejaVuSans-6f" x="1330.847656"/>
     <use xlink:href="#DejaVuSans-67" x="1392.029297"/>
     <use xlink:href="#DejaVuSans-72" x="1455.505859"/>
     <use xlink:href="#DejaVuSans-65" x="1494.369141"/>
     <use xlink:href="#DejaVuSans-73" x="1555.892578"/>
     <use xlink:href="#DejaVuSans-73" x="1607.992188"/>
     <use xlink:href="#DejaVuSans-20" x="1660.091797"/>
     <use xlink:href="#DejaVuSans-6f" x="1691.878906"/>
     <use xlink:href="#DejaVuSans-66" x="1753.060547"/>
     <use xlink:href="#DejaVuSans-20" x="1788.265625"/>
     <use xlink:href="#DejaVuSans-70" x="1820.052734"/>
     <use xlink:href="#DejaVuSans-72" x="1883.529297"/>
     <use xlink:href="#DejaVuSans-6f" x="1922.392578"/>
     <use xlink:href="#DejaVuSans-66" x="1983.574219"/>
     <use xlink:href="#DejaVuSans-69" x="2018.779297"/>
     <use xlink:href="#DejaVuSans-74" x="2046.5625"/>
     <use xlink:href="#DejaVuSans-73" x="2085.771484"/>
     <use xlink:href="#DejaVuSans-2f" x="2137.871094"/>
     <use xlink:href="#DejaVuSans-72" x="2171.5625"/>
     <use xlink:href="#DejaVuSans-65" x="2210.425781"/>
     <use xlink:href="#DejaVuSans-62" x="2271.949219"/>
     <use xlink:href="#DejaVuSans-75" x="2335.425781"/>
     <use xlink:href="#DejaVuSans-79" x="2398.804688"/>
     <use xlink:href="#DejaVuSans-5f" x="2457.984375"/>
     <use xlink:href="#DejaVuSans-63" x="2507.984375"/>
     <use xlink:href="#DejaVuSans-6f" x="2562.964844"/>
     <use xlink:href="#DejaVuSans-73" x="2624.146484"/>
     <use xlink:href="#DejaVuSans-74" x="2676.246094"/>
    </g>
   </g>
   <g id="legend_1">
    <g id="patch_7">
     <path d="M 276.25125 302.584 
L 407.72 302.584 
Q 409.72 302.584 409.72 300.584 
L 409.72 272.22775 
Q 409.72 270.22775 407.72 270.22775 
L 276.25125 270.22775 
Q 274.25125 270.22775 274.25125 272.22775 
L 274.25125 300.584 
Q 274.25125 302.584 276.25125 302.584 
z
" style="fill: #ffffff; opacity: 0.8; stroke: #cccccc; stroke-linejoin: miter"/>
    </g>
    <g id="line2d_19">
     <path d="M 278.25125 278.326187 
L 288.25125 278.326187 
L 298.25125 278.326187 
" style="fill: none; stroke: #1f77b4; stroke-width: 1.5; stroke-linecap: square"/>
    </g>
    <g id="text_20">
     <!-- StableBaselinesSAC -->
     <g transform="translate(306.25125 281.826187)scale(0.1 -0.1)">
      <defs>
       <path id="DejaVuSans-53" d="M 3425 4513 
L 3425 3897 
Q 3066 4069 2747 4153 
Q 2428 4238 2131 4238 
Q 1616 4238 1336 4038 
Q 1056 3838 1056 3469 
Q 1056 3159 1242 3001 
Q 1428 2844 1947 2747 
L 2328 2669 
Q 3034 2534 3370 2195 
Q 3706 1856 3706 1288 
Q 3706 609 3251 259 
Q 2797 -91 1919 -91 
Q 1588 -91 1214 -16 
Q 841 59 441 206 
L 441 856 
Q 825 641 1194 531 
Q 1563 422 1919 422 
Q 2459 422 2753 634 
Q 3047 847 3047 1241 
Q 3047 1584 2836 1778 
Q 2625 1972 2144 2069 
L 1759 2144 
Q 1053 2284 737 2584 
Q 422 2884 422 3419 
Q 422 4038 858 4394 
Q 1294 4750 2059 4750 
Q 2388 4750 2728 4690 
Q 3069 4631 3425 4513 
z
" transform="scale(0.015625)"/>
       <path id="DejaVuSans-42" d="M 1259 2228 
L 1259 519 
L 2272 519 
Q 2781 519 3026 730 
Q 3272 941 3272 1375 
Q 3272 1813 3026 2020 
Q 2781 2228 2272 2228 
L 1259 2228 
z
M 1259 4147 
L 1259 2741 
L 2194 2741 
Q 2656 2741 2882 2914 
Q 3109 3088 3109 3444 
Q 3109 3797 2882 3972 
Q 2656 4147 2194 4147 
L 1259 4147 
z
M 628 4666 
L 2241 4666 
Q 2963 4666 3353 4366 
Q 3744 4066 3744 3513 
Q 3744 3084 3544 2831 
Q 3344 2578 2956 2516 
Q 3422 2416 3680 2098 
Q 3938 1781 3938 1306 
Q 3938 681 3513 340 
Q 3088 0 2303 0 
L 628 0 
L 628 4666 
z
" transform="scale(0.015625)"/>
       <path id="DejaVuSans-41" d="M 2188 4044 
L 1331 1722 
L 3047 1722 
L 2188 4044 
z
M 1831 4666 
L 2547 4666 
L 4325 0 
L 3669 0 
L 3244 1197 
L 1141 1197 
L 716 0 
L 50 0 
L 1831 4666 
z
" transform="scale(0.015625)"/>
       <path id="DejaVuSans-43" d="M 4122 4306 
L 4122 3641 
Q 3803 3938 3442 4084 
Q 3081 4231 2675 4231 
Q 1875 4231 1450 3742 
Q 1025 3253 1025 2328 
Q 1025 1406 1450 917 
Q 1875 428 2675 428 
Q 3081 428 3442 575 
Q 3803 722 4122 1019 
L 4122 359 
Q 3791 134 3420 21 
Q 3050 -91 2638 -91 
Q 1578 -91 968 557 
Q 359 1206 359 2328 
Q 359 3453 968 4101 
Q 1578 4750 2638 4750 
Q 3056 4750 3426 4639 
Q 3797 4528 4122 4306 
z
" transform="scale(0.015625)"/>
      </defs>
      <use xlink:href="#DejaVuSans-53"/>
      <use xlink:href="#DejaVuSans-74" x="63.476562"/>
      <use xlink:href="#DejaVuSans-61" x="102.685547"/>
      <use xlink:href="#DejaVuSans-62" x="163.964844"/>
      <use xlink:href="#DejaVuSans-6c" x="227.441406"/>
      <use xlink:href="#DejaVuSans-65" x="255.224609"/>
      <use xlink:href="#DejaVuSans-42" x="316.748047"/>
      <use xlink:href="#DejaVuSans-61" x="385.351562"/>
      <use xlink:href="#DejaVuSans-73" x="446.630859"/>
      <use xlink:href="#DejaVuSans-65" x="498.730469"/>
      <use xlink:href="#DejaVuSans-6c" x="560.253906"/>
      <use xlink:href="#DejaVuSans-69" x="588.037109"/>
      <use xlink:href="#DejaVuSans-6e" x="615.820312"/>
      <use xlink:href="#DejaVuSans-65" x="679.199219"/>
      <use xlink:href="#DejaVuSans-73" x="740.722656"/>
      <use xlink:href="#DejaVuSans-53" x="792.822266"/>
      <use xlink:href="#DejaVuSans-41" x="858.173828"/>
      <use xlink:href="#DejaVuSans-43" x="924.832031"/>
     </g>
    </g>
    <g id="line2d_20">
     <path d="M 278.25125 293.004312 
L 288.25125 293.004312 
L 298.25125 293.004312 
" style="fill: none; stroke: #ff7f0e; stroke-width: 1.5; stroke-linecap: square"/>
    </g>
    <g id="text_21">
     <!-- Storage-Minimizer -->
     <g transform="translate(306.25125 296.504312)scale(0.1 -0.1)">
      <defs>
       <path id="DejaVuSans-2d" d="M 313 2009 
L 1997 2009 
L 1997 1497 
L 313 1497 
L 313 2009 
z
" transform="scale(0.015625)"/>
       <path id="DejaVuSans-4d" d="M 628 4666 
L 1569 4666 
L 2759 1491 
L 3956 4666 
L 4897 4666 
L 4897 0 
L 4281 0 
L 4281 4097 
L 3078 897 
L 2444 897 
L 1241 4097 
L 1241 0 
L 628 0 
L 628 4666 
z
" transform="scale(0.015625)"/>
       <path id="DejaVuSans-6d" d="M 3328 2828 
Q 3544 3216 3844 3400 
Q 4144 3584 4550 3584 
Q 5097 3584 5394 3201 
Q 5691 2819 5691 2113 
L 5691 0 
L 5113 0 
L 5113 2094 
Q 5113 2597 4934 2840 
Q 4756 3084 4391 3084 
Q 3944 3084 3684 2787 
Q 3425 2491 3425 1978 
L 3425 0 
L 2847 0 
L 2847 2094 
Q 2847 2600 2669 2842 
Q 2491 3084 2119 3084 
Q 1678 3084 1418 2786 
Q 1159 2488 1159 1978 
L 1159 0 
L 581 0 
L 581 3500 
L 1159 3500 
L 1159 2956 
Q 1356 3278 1631 3431 
Q 1906 3584 2284 3584 
Q 2666 3584 2933 3390 
Q 3200 3197 3328 2828 
z
" transform="scale(0.015625)"/>
       <path id="DejaVuSans-7a" d="M 353 3500 
L 3084 3500 
L 3084 2975 
L 922 459 
L 3084 459 
L 3084 0 
L 275 0 
L 275 525 
L 2438 3041 
L 353 3041 
L 353 3500 
z
" transform="scale(0.015625)"/>
      </defs>
      <use xlink:href="#DejaVuSans-53"/>
      <use xlink:href="#DejaVuSans-74" x="63.476562"/>
      <use xlink:href="#DejaVuSans-6f" x="102.685547"/>
      <use xlink:href="#DejaVuSans-72" x="163.867188"/>
      <use xlink:href="#DejaVuSans-61" x="204.980469"/>
      <use xlink:href="#DejaVuSans-67" x="266.259766"/>
      <use xlink:href="#DejaVuSans-65" x="329.736328"/>
      <use xlink:href="#DejaVuSans-2d" x="391.259766"/>
      <use xlink:href="#DejaVuSans-4d" x="427.34375"/>
      <use xlink:href="#DejaVuSans-69" x="513.623047"/>
      <use xlink:href="#DejaVuSans-6e" x="541.40625"/>
      <use xlink:href="#DejaVuSans-69" x="604.785156"/>
      <use xlink:href="#DejaVuSans-6d" x="632.568359"/>
      <use xlink:href="#DejaVuSans-69" x="729.980469"/>
      <use xlink:href="#DejaVuSans-7a" x="757.763672"/>
      <use xlink:href="#DejaVuSans-65" x="810.253906"/>
      <use xlink:href="#DejaVuSans-72" x="871.777344"/>
     </g>
    </g>
   </g>
  </g>
 </g>
 <defs>
  <clipPath id="pd93b675e46">
   <rect x="57.6" y="41.472" width="357.12" height="266.112"/>
  </clipPath>
 </defs>
</svg>
