<?xml version="1.0" encoding="utf-8" standalone="no"?>
<!DOCTYPE svg PUBLIC "-//W3C//DTD SVG 1.1//EN"
  "http://www.w3.org/Graphics/SVG/1.1/DTD/svg11.dtd">
<svg xmlns:xlink="http://www.w3.org/1999/xlink" width="460.8pt" height="345.6pt" viewBox="0 0 460.8 345.6" xmlns="http://www.w3.org/2000/svg" version="1.1">
 <metadata>
  <rdf:RDF xmlns:dc="http://purl.org/dc/elements/1.1/" xmlns:cc="http://creativecommons.org/ns#" xmlns:rdf="http://www.w3.org/1999/02/22-rdf-syntax-ns#">
   <cc:Work>
    <dc:type rdf:resource="http://purl.org/dc/dcmitype/StillImage"/>
    <dc:date>2022-06-16T11:35:08.752909</dc:date>
    <dc:format>image/svg+xml</dc:format>
    <dc:creator>
     <cc:Agent>
      <dc:title>Matplotlib v3.5.2, https://matplotlib.org/</dc:title>
     </cc:Agent>
    </dc:creator>
   </cc:Work>
  </rdf:RDF>
 </metadata>
 <defs>
  <style type="text/css">*{stroke-linejoin: round; stroke-linecap: butt}</style>
 </defs>
 <g id="figure_1">
  <g id="patch_1">
   <path d="M 0 345.6 
L 460.8 345.6 
L 460.8 0 
L 0 0 
z
" style="fill: #ffffff"/>
  </g>
  <g id="axes_1">
   <g id="patch_2">
    <path d="M 57.6 307.584 
L 414.72 307.584 
L 414.72 41.472 
L 57.6 41.472 
z
" style="fill: #ffffff"/>
   </g>
   <g id="matplotlib.axis_1">
    <g id="xtick_1">
     <g id="line2d_1">
      <defs>
       <path id="mc7e4955f39" d="M 0 0 
L 0 3.5 
" style="stroke: #000000; stroke-width: 0.8"/>
      </defs>
      <g>
       <use xlink:href="#mc7e4955f39" x="71.378182" y="307.584" style="stroke: #000000; stroke-width: 0.8"/>
      </g>
     </g>
     <g id="text_1">
      <!-- 0 -->
      <g transform="translate(68.196932 322.182437)scale(0.1 -0.1)">
       <defs>
        <path id="DejaVuSans-30" d="M 2034 4250 
Q 1547 4250 1301 3770 
Q 1056 3291 1056 2328 
Q 1056 1369 1301 889 
Q 1547 409 2034 409 
Q 2525 409 2770 889 
Q 3016 1369 3016 2328 
Q 3016 3291 2770 3770 
Q 2525 4250 2034 4250 
z
M 2034 4750 
Q 2819 4750 3233 4129 
Q 3647 3509 3647 2328 
Q 3647 1150 3233 529 
Q 2819 -91 2034 -91 
Q 1250 -91 836 529 
Q 422 1150 422 2328 
Q 422 3509 836 4129 
Q 1250 4750 2034 4750 
z
" transform="scale(0.015625)"/>
       </defs>
       <use xlink:href="#DejaVuSans-30"/>
      </g>
     </g>
    </g>
    <g id="xtick_2">
     <g id="line2d_2">
      <g>
       <use xlink:href="#mc7e4955f39" x="112.287273" y="307.584" style="stroke: #000000; stroke-width: 0.8"/>
      </g>
     </g>
     <g id="text_2">
      <!-- 250 -->
      <g transform="translate(102.743523 322.182437)scale(0.1 -0.1)">
       <defs>
        <path id="DejaVuSans-32" d="M 1228 531 
L 3431 531 
L 3431 0 
L 469 0 
L 469 531 
Q 828 903 1448 1529 
Q 2069 2156 2228 2338 
Q 2531 2678 2651 2914 
Q 2772 3150 2772 3378 
Q 2772 3750 2511 3984 
Q 2250 4219 1831 4219 
Q 1534 4219 1204 4116 
Q 875 4013 500 3803 
L 500 4441 
Q 881 4594 1212 4672 
Q 1544 4750 1819 4750 
Q 2544 4750 2975 4387 
Q 3406 4025 3406 3419 
Q 3406 3131 3298 2873 
Q 3191 2616 2906 2266 
Q 2828 2175 2409 1742 
Q 1991 1309 1228 531 
z
" transform="scale(0.015625)"/>
        <path id="DejaVuSans-35" d="M 691 4666 
L 3169 4666 
L 3169 4134 
L 1269 4134 
L 1269 2991 
Q 1406 3038 1543 3061 
Q 1681 3084 1819 3084 
Q 2600 3084 3056 2656 
Q 3513 2228 3513 1497 
Q 3513 744 3044 326 
Q 2575 -91 1722 -91 
Q 1428 -91 1123 -41 
Q 819 9 494 109 
L 494 744 
Q 775 591 1075 516 
Q 1375 441 1709 441 
Q 2250 441 2565 725 
Q 2881 1009 2881 1497 
Q 2881 1984 2565 2268 
Q 2250 2553 1709 2553 
Q 1456 2553 1204 2497 
Q 953 2441 691 2322 
L 691 4666 
z
" transform="scale(0.015625)"/>
       </defs>
       <use xlink:href="#DejaVuSans-32"/>
       <use xlink:href="#DejaVuSans-35" x="63.623047"/>
       <use xlink:href="#DejaVuSans-30" x="127.246094"/>
      </g>
     </g>
    </g>
    <g id="xtick_3">
     <g id="line2d_3">
      <g>
       <use xlink:href="#mc7e4955f39" x="153.196364" y="307.584" style="stroke: #000000; stroke-width: 0.8"/>
      </g>
     </g>
     <g id="text_3">
      <!-- 500 -->
      <g transform="translate(143.652614 322.182437)scale(0.1 -0.1)">
       <use xlink:href="#DejaVuSans-35"/>
       <use xlink:href="#DejaVuSans-30" x="63.623047"/>
       <use xlink:href="#DejaVuSans-30" x="127.246094"/>
      </g>
     </g>
    </g>
    <g id="xtick_4">
     <g id="line2d_4">
      <g>
       <use xlink:href="#mc7e4955f39" x="194.105455" y="307.584" style="stroke: #000000; stroke-width: 0.8"/>
      </g>
     </g>
     <g id="text_4">
      <!-- 750 -->
      <g transform="translate(184.561705 322.182437)scale(0.1 -0.1)">
       <defs>
        <path id="DejaVuSans-37" d="M 525 4666 
L 3525 4666 
L 3525 4397 
L 1831 0 
L 1172 0 
L 2766 4134 
L 525 4134 
L 525 4666 
z
" transform="scale(0.015625)"/>
       </defs>
       <use xlink:href="#DejaVuSans-37"/>
       <use xlink:href="#DejaVuSans-35" x="63.623047"/>
       <use xlink:href="#DejaVuSans-30" x="127.246094"/>
      </g>
     </g>
    </g>
    <g id="xtick_5">
     <g id="line2d_5">
      <g>
       <use xlink:href="#mc7e4955f39" x="235.014545" y="307.584" style="stroke: #000000; stroke-width: 0.8"/>
      </g>
     </g>
     <g id="text_5">
      <!-- 1000 -->
      <g transform="translate(222.289545 322.182437)scale(0.1 -0.1)">
       <defs>
        <path id="DejaVuSans-31" d="M 794 531 
L 1825 531 
L 1825 4091 
L 703 3866 
L 703 4441 
L 1819 4666 
L 2450 4666 
L 2450 531 
L 3481 531 
L 3481 0 
L 794 0 
L 794 531 
z
" transform="scale(0.015625)"/>
       </defs>
       <use xlink:href="#DejaVuSans-31"/>
       <use xlink:href="#DejaVuSans-30" x="63.623047"/>
       <use xlink:href="#DejaVuSans-30" x="127.246094"/>
       <use xlink:href="#DejaVuSans-30" x="190.869141"/>
      </g>
     </g>
    </g>
    <g id="xtick_6">
     <g id="line2d_6">
      <g>
       <use xlink:href="#mc7e4955f39" x="275.923636" y="307.584" style="stroke: #000000; stroke-width: 0.8"/>
      </g>
     </g>
     <g id="text_6">
      <!-- 1250 -->
      <g transform="translate(263.198636 322.182437)scale(0.1 -0.1)">
       <use xlink:href="#DejaVuSans-31"/>
       <use xlink:href="#DejaVuSans-32" x="63.623047"/>
       <use xlink:href="#DejaVuSans-35" x="127.246094"/>
       <use xlink:href="#DejaVuSans-30" x="190.869141"/>
      </g>
     </g>
    </g>
    <g id="xtick_7">
     <g id="line2d_7">
      <g>
       <use xlink:href="#mc7e4955f39" x="316.832727" y="307.584" style="stroke: #000000; stroke-width: 0.8"/>
      </g>
     </g>
     <g id="text_7">
      <!-- 1500 -->
      <g transform="translate(304.107727 322.182437)scale(0.1 -0.1)">
       <use xlink:href="#DejaVuSans-31"/>
       <use xlink:href="#DejaVuSans-35" x="63.623047"/>
       <use xlink:href="#DejaVuSans-30" x="127.246094"/>
       <use xlink:href="#DejaVuSans-30" x="190.869141"/>
      </g>
     </g>
    </g>
    <g id="xtick_8">
     <g id="line2d_8">
      <g>
       <use xlink:href="#mc7e4955f39" x="357.741818" y="307.584" style="stroke: #000000; stroke-width: 0.8"/>
      </g>
     </g>
     <g id="text_8">
      <!-- 1750 -->
      <g transform="translate(345.016818 322.182437)scale(0.1 -0.1)">
       <use xlink:href="#DejaVuSans-31"/>
       <use xlink:href="#DejaVuSans-37" x="63.623047"/>
       <use xlink:href="#DejaVuSans-35" x="127.246094"/>
       <use xlink:href="#DejaVuSans-30" x="190.869141"/>
      </g>
     </g>
    </g>
    <g id="xtick_9">
     <g id="line2d_9">
      <g>
       <use xlink:href="#mc7e4955f39" x="398.650909" y="307.584" style="stroke: #000000; stroke-width: 0.8"/>
      </g>
     </g>
     <g id="text_9">
      <!-- 2000 -->
      <g transform="translate(385.925909 322.182437)scale(0.1 -0.1)">
       <use xlink:href="#DejaVuSans-32"/>
       <use xlink:href="#DejaVuSans-30" x="63.623047"/>
       <use xlink:href="#DejaVuSans-30" x="127.246094"/>
       <use xlink:href="#DejaVuSans-30" x="190.869141"/>
      </g>
     </g>
    </g>
    <g id="text_10">
     <!-- Episode -->
     <g transform="translate(216.5225 335.860562)scale(0.1 -0.1)">
      <defs>
       <path id="DejaVuSans-45" d="M 628 4666 
L 3578 4666 
L 3578 4134 
L 1259 4134 
L 1259 2753 
L 3481 2753 
L 3481 2222 
L 1259 2222 
L 1259 531 
L 3634 531 
L 3634 0 
L 628 0 
L 628 4666 
z
" transform="scale(0.015625)"/>
       <path id="DejaVuSans-70" d="M 1159 525 
L 1159 -1331 
L 581 -1331 
L 581 3500 
L 1159 3500 
L 1159 2969 
Q 1341 3281 1617 3432 
Q 1894 3584 2278 3584 
Q 2916 3584 3314 3078 
Q 3713 2572 3713 1747 
Q 3713 922 3314 415 
Q 2916 -91 2278 -91 
Q 1894 -91 1617 61 
Q 1341 213 1159 525 
z
M 3116 1747 
Q 3116 2381 2855 2742 
Q 2594 3103 2138 3103 
Q 1681 3103 1420 2742 
Q 1159 2381 1159 1747 
Q 1159 1113 1420 752 
Q 1681 391 2138 391 
Q 2594 391 2855 752 
Q 3116 1113 3116 1747 
z
" transform="scale(0.015625)"/>
       <path id="DejaVuSans-69" d="M 603 3500 
L 1178 3500 
L 1178 0 
L 603 0 
L 603 3500 
z
M 603 4863 
L 1178 4863 
L 1178 4134 
L 603 4134 
L 603 4863 
z
" transform="scale(0.015625)"/>
       <path id="DejaVuSans-73" d="M 2834 3397 
L 2834 2853 
Q 2591 2978 2328 3040 
Q 2066 3103 1784 3103 
Q 1356 3103 1142 2972 
Q 928 2841 928 2578 
Q 928 2378 1081 2264 
Q 1234 2150 1697 2047 
L 1894 2003 
Q 2506 1872 2764 1633 
Q 3022 1394 3022 966 
Q 3022 478 2636 193 
Q 2250 -91 1575 -91 
Q 1294 -91 989 -36 
Q 684 19 347 128 
L 347 722 
Q 666 556 975 473 
Q 1284 391 1588 391 
Q 1994 391 2212 530 
Q 2431 669 2431 922 
Q 2431 1156 2273 1281 
Q 2116 1406 1581 1522 
L 1381 1569 
Q 847 1681 609 1914 
Q 372 2147 372 2553 
Q 372 3047 722 3315 
Q 1072 3584 1716 3584 
Q 2034 3584 2315 3537 
Q 2597 3491 2834 3397 
z
" transform="scale(0.015625)"/>
       <path id="DejaVuSans-6f" d="M 1959 3097 
Q 1497 3097 1228 2736 
Q 959 2375 959 1747 
Q 959 1119 1226 758 
Q 1494 397 1959 397 
Q 2419 397 2687 759 
Q 2956 1122 2956 1747 
Q 2956 2369 2687 2733 
Q 2419 3097 1959 3097 
z
M 1959 3584 
Q 2709 3584 3137 3096 
Q 3566 2609 3566 1747 
Q 3566 888 3137 398 
Q 2709 -91 1959 -91 
Q 1206 -91 779 398 
Q 353 888 353 1747 
Q 353 2609 779 3096 
Q 1206 3584 1959 3584 
z
" transform="scale(0.015625)"/>
       <path id="DejaVuSans-64" d="M 2906 2969 
L 2906 4863 
L 3481 4863 
L 3481 0 
L 2906 0 
L 2906 525 
Q 2725 213 2448 61 
Q 2172 -91 1784 -91 
Q 1150 -91 751 415 
Q 353 922 353 1747 
Q 353 2572 751 3078 
Q 1150 3584 1784 3584 
Q 2172 3584 2448 3432 
Q 2725 3281 2906 2969 
z
M 947 1747 
Q 947 1113 1208 752 
Q 1469 391 1925 391 
Q 2381 391 2643 752 
Q 2906 1113 2906 1747 
Q 2906 2381 2643 2742 
Q 2381 3103 1925 3103 
Q 1469 3103 1208 2742 
Q 947 2381 947 1747 
z
" transform="scale(0.015625)"/>
       <path id="DejaVuSans-65" d="M 3597 1894 
L 3597 1613 
L 953 1613 
Q 991 1019 1311 708 
Q 1631 397 2203 397 
Q 2534 397 2845 478 
Q 3156 559 3463 722 
L 3463 178 
Q 3153 47 2828 -22 
Q 2503 -91 2169 -91 
Q 1331 -91 842 396 
Q 353 884 353 1716 
Q 353 2575 817 3079 
Q 1281 3584 2069 3584 
Q 2775 3584 3186 3129 
Q 3597 2675 3597 1894 
z
M 3022 2063 
Q 3016 2534 2758 2815 
Q 2500 3097 2075 3097 
Q 1594 3097 1305 2825 
Q 1016 2553 972 2059 
L 3022 2063 
z
" transform="scale(0.015625)"/>
      </defs>
      <use xlink:href="#DejaVuSans-45"/>
      <use xlink:href="#DejaVuSans-70" x="63.183594"/>
      <use xlink:href="#DejaVuSans-69" x="126.660156"/>
      <use xlink:href="#DejaVuSans-73" x="154.443359"/>
      <use xlink:href="#DejaVuSans-6f" x="206.542969"/>
      <use xlink:href="#DejaVuSans-64" x="267.724609"/>
      <use xlink:href="#DejaVuSans-65" x="331.201172"/>
     </g>
    </g>
   </g>
   <g id="matplotlib.axis_2">
    <g id="ytick_1">
     <g id="line2d_10">
      <defs>
       <path id="m48e7142926" d="M 0 0 
L -3.5 0 
" style="stroke: #000000; stroke-width: 0.8"/>
      </defs>
      <g>
       <use xlink:href="#m48e7142926" x="57.6" y="270.64875" style="stroke: #000000; stroke-width: 0.8"/>
      </g>
     </g>
     <g id="text_11">
      <!-- −2000 -->
      <g transform="translate(16.770313 274.447968)scale(0.1 -0.1)">
       <defs>
        <path id="DejaVuSans-2212" d="M 678 2272 
L 4684 2272 
L 4684 1741 
L 678 1741 
L 678 2272 
z
" transform="scale(0.015625)"/>
       </defs>
       <use xlink:href="#DejaVuSans-2212"/>
       <use xlink:href="#DejaVuSans-32" x="83.789062"/>
       <use xlink:href="#DejaVuSans-30" x="147.412109"/>
       <use xlink:href="#DejaVuSans-30" x="211.035156"/>
       <use xlink:href="#DejaVuSans-30" x="274.658203"/>
      </g>
     </g>
    </g>
    <g id="ytick_2">
     <g id="line2d_11">
      <g>
       <use xlink:href="#m48e7142926" x="57.6" y="231.748468" style="stroke: #000000; stroke-width: 0.8"/>
      </g>
     </g>
     <g id="text_12">
      <!-- −1500 -->
      <g transform="translate(16.770313 235.547687)scale(0.1 -0.1)">
       <use xlink:href="#DejaVuSans-2212"/>
       <use xlink:href="#DejaVuSans-31" x="83.789062"/>
       <use xlink:href="#DejaVuSans-35" x="147.412109"/>
       <use xlink:href="#DejaVuSans-30" x="211.035156"/>
       <use xlink:href="#DejaVuSans-30" x="274.658203"/>
      </g>
     </g>
    </g>
    <g id="ytick_3">
     <g id="line2d_12">
      <g>
       <use xlink:href="#m48e7142926" x="57.6" y="192.848186" style="stroke: #000000; stroke-width: 0.8"/>
      </g>
     </g>
     <g id="text_13">
      <!-- −1000 -->
      <g transform="translate(16.770313 196.647405)scale(0.1 -0.1)">
       <use xlink:href="#DejaVuSans-2212"/>
       <use xlink:href="#DejaVuSans-31" x="83.789062"/>
       <use xlink:href="#DejaVuSans-30" x="147.412109"/>
       <use xlink:href="#DejaVuSans-30" x="211.035156"/>
       <use xlink:href="#DejaVuSans-30" x="274.658203"/>
      </g>
     </g>
    </g>
    <g id="ytick_4">
     <g id="line2d_13">
      <g>
       <use xlink:href="#m48e7142926" x="57.6" y="153.947904" style="stroke: #000000; stroke-width: 0.8"/>
      </g>
     </g>
     <g id="text_14">
      <!-- −500 -->
      <g transform="translate(23.132812 157.747123)scale(0.1 -0.1)">
       <use xlink:href="#DejaVuSans-2212"/>
       <use xlink:href="#DejaVuSans-35" x="83.789062"/>
       <use xlink:href="#DejaVuSans-30" x="147.412109"/>
       <use xlink:href="#DejaVuSans-30" x="211.035156"/>
      </g>
     </g>
    </g>
    <g id="ytick_5">
     <g id="line2d_14">
      <g>
       <use xlink:href="#m48e7142926" x="57.6" y="115.047623" style="stroke: #000000; stroke-width: 0.8"/>
      </g>
     </g>
     <g id="text_15">
      <!-- 0 -->
      <g transform="translate(44.2375 118.846842)scale(0.1 -0.1)">
       <use xlink:href="#DejaVuSans-30"/>
      </g>
     </g>
    </g>
    <g id="ytick_6">
     <g id="line2d_15">
      <g>
       <use xlink:href="#m48e7142926" x="57.6" y="76.147341" style="stroke: #000000; stroke-width: 0.8"/>
      </g>
     </g>
     <g id="text_16">
      <!-- 500 -->
      <g transform="translate(31.5125 79.94656)scale(0.1 -0.1)">
       <use xlink:href="#DejaVuSans-35"/>
       <use xlink:href="#DejaVuSans-30" x="63.623047"/>
       <use xlink:href="#DejaVuSans-30" x="127.246094"/>
      </g>
     </g>
    </g>
    <g id="text_17">
     <!-- profits/all -->
     <g transform="translate(10.690625 197.945188)rotate(-90)scale(0.1 -0.1)">
      <defs>
       <path id="DejaVuSans-72" d="M 2631 2963 
Q 2534 3019 2420 3045 
Q 2306 3072 2169 3072 
Q 1681 3072 1420 2755 
Q 1159 2438 1159 1844 
L 1159 0 
L 581 0 
L 581 3500 
L 1159 3500 
L 1159 2956 
Q 1341 3275 1631 3429 
Q 1922 3584 2338 3584 
Q 2397 3584 2469 3576 
Q 2541 3569 2628 3553 
L 2631 2963 
z
" transform="scale(0.015625)"/>
       <path id="DejaVuSans-66" d="M 2375 4863 
L 2375 4384 
L 1825 4384 
Q 1516 4384 1395 4259 
Q 1275 4134 1275 3809 
L 1275 3500 
L 2222 3500 
L 2222 3053 
L 1275 3053 
L 1275 0 
L 697 0 
L 697 3053 
L 147 3053 
L 147 3500 
L 697 3500 
L 697 3744 
Q 697 4328 969 4595 
Q 1241 4863 1831 4863 
L 2375 4863 
z
" transform="scale(0.015625)"/>
       <path id="DejaVuSans-74" d="M 1172 4494 
L 1172 3500 
L 2356 3500 
L 2356 3053 
L 1172 3053 
L 1172 1153 
Q 1172 725 1289 603 
Q 1406 481 1766 481 
L 2356 481 
L 2356 0 
L 1766 0 
Q 1100 0 847 248 
Q 594 497 594 1153 
L 594 3053 
L 172 3053 
L 172 3500 
L 594 3500 
L 594 4494 
L 1172 4494 
z
" transform="scale(0.015625)"/>
       <path id="DejaVuSans-2f" d="M 1625 4666 
L 2156 4666 
L 531 -594 
L 0 -594 
L 1625 4666 
z
" transform="scale(0.015625)"/>
       <path id="DejaVuSans-61" d="M 2194 1759 
Q 1497 1759 1228 1600 
Q 959 1441 959 1056 
Q 959 750 1161 570 
Q 1363 391 1709 391 
Q 2188 391 2477 730 
Q 2766 1069 2766 1631 
L 2766 1759 
L 2194 1759 
z
M 3341 1997 
L 3341 0 
L 2766 0 
L 2766 531 
Q 2569 213 2275 61 
Q 1981 -91 1556 -91 
Q 1019 -91 701 211 
Q 384 513 384 1019 
Q 384 1609 779 1909 
Q 1175 2209 1959 2209 
L 2766 2209 
L 2766 2266 
Q 2766 2663 2505 2880 
Q 2244 3097 1772 3097 
Q 1472 3097 1187 3025 
Q 903 2953 641 2809 
L 641 3341 
Q 956 3463 1253 3523 
Q 1550 3584 1831 3584 
Q 2591 3584 2966 3190 
Q 3341 2797 3341 1997 
z
" transform="scale(0.015625)"/>
       <path id="DejaVuSans-6c" d="M 603 4863 
L 1178 4863 
L 1178 0 
L 603 0 
L 603 4863 
z
" transform="scale(0.015625)"/>
      </defs>
      <use xlink:href="#DejaVuSans-70"/>
      <use xlink:href="#DejaVuSans-72" x="63.476562"/>
      <use xlink:href="#DejaVuSans-6f" x="102.339844"/>
      <use xlink:href="#DejaVuSans-66" x="163.521484"/>
      <use xlink:href="#DejaVuSans-69" x="198.726562"/>
      <use xlink:href="#DejaVuSans-74" x="226.509766"/>
      <use xlink:href="#DejaVuSans-73" x="265.71875"/>
      <use xlink:href="#DejaVuSans-2f" x="317.818359"/>
      <use xlink:href="#DejaVuSans-61" x="351.509766"/>
      <use xlink:href="#DejaVuSans-6c" x="412.789062"/>
      <use xlink:href="#DejaVuSans-6c" x="440.572266"/>
     </g>
    </g>
   </g>
   <g id="line2d_16">
    <path d="M 73.832727 295.488 
L 73.996364 291.225924 
L 74.650909 258.157196 
L 75.305455 235.625008 
L 76.123636 214.866586 
L 76.778182 202.295606 
L 78.087273 185.447853 
L 78.905455 177.895988 
L 79.069091 177.893756 
L 80.050909 170.957801 
L 82.178182 159.940371 
L 84.632727 151.548831 
L 86.923636 145.880215 
L 87.741818 144.229585 
L 87.905455 142.915078 
L 88.396364 133.962805 
L 89.214545 121.65444 
L 89.705455 117.563343 
L 90.032727 115.840575 
L 90.523636 113.812473 
L 91.014545 113.477601 
L 91.341818 113.501151 
L 91.996364 113.1311 
L 92.650909 113.064272 
L 92.814545 113.28172 
L 92.978182 113.231941 
L 93.141818 113.347136 
L 93.305455 113.311491 
L 93.796364 112.909577 
L 94.287273 112.784759 
L 94.614545 112.839708 
L 95.105455 112.578283 
L 95.432727 112.384874 
L 95.596364 111.665126 
L 96.250909 111.342981 
L 96.414545 111.37697 
L 96.741818 110.986733 
L 98.214545 109.930162 
L 98.869091 109.410789 
L 99.850909 108.595571 
L 100.505455 108.454742 
L 101.323636 107.732986 
L 102.305455 107.155258 
L 102.796364 106.589359 
L 103.123636 106.562609 
L 104.923636 104.892626 
L 105.250909 104.765047 
L 106.396364 103.724504 
L 106.56 103.750775 
L 106.887273 103.482547 
L 107.214545 103.127609 
L 108.032727 102.504482 
L 108.36 102.488974 
L 108.850909 102.044896 
L 109.178182 101.823102 
L 109.341818 101.566607 
L 109.505455 101.602364 
L 109.832727 101.217833 
L 109.996364 101.094366 
L 110.487273 101.05403 
L 111.141818 100.409955 
L 111.305455 100.39405 
L 111.632727 100.225598 
L 111.796364 100.246832 
L 113.76 98.959501 
L 114.087273 98.958757 
L 114.741818 98.515445 
L 115.069091 98.505002 
L 115.56 98.123938 
L 115.887273 98.293914 
L 116.050909 98.230487 
L 116.705455 97.602266 
L 117.032727 97.414336 
L 118.178182 96.577463 
L 118.341818 96.579036 
L 118.832727 96.047467 
L 122.269091 93.698066 
L 122.432727 93.687295 
L 123.087273 93.078278 
L 123.414545 92.692209 
L 123.741818 92.681485 
L 124.069091 92.421689 
L 125.705455 91.172265 
L 125.869091 91.069451 
L 126.196364 90.57198 
L 126.523636 90.517311 
L 126.687273 90.193117 
L 126.850909 90.134743 
L 127.178182 89.722053 
L 127.505455 89.500237 
L 128.16 88.77999 
L 128.487273 88.307634 
L 129.141818 87.98745 
L 129.469091 87.528181 
L 130.287273 86.705975 
L 130.778182 86.055258 
L 130.941818 85.816266 
L 131.269091 85.719783 
L 131.432727 85.394828 
L 131.923636 85.177253 
L 132.414545 84.687356 
L 132.741818 84.560282 
L 133.396364 83.778938 
L 133.723636 83.372817 
L 133.887273 83.226406 
L 134.050909 83.248159 
L 134.378182 82.977032 
L 134.541818 83.29667 
L 134.705455 83.225112 
L 135.196364 82.618117 
L 135.36 82.513084 
L 135.523636 82.57224 
L 136.178182 81.977117 
L 137.323636 81.457213 
L 138.469091 80.318589 
L 139.450909 79.809812 
L 139.941818 79.828196 
L 140.923636 78.957615 
L 141.578182 78.573115 
L 141.741818 78.694147 
L 141.905455 78.34531 
L 142.069091 78.299475 
L 142.723636 77.705916 
L 142.887273 77.609854 
L 143.214545 77.25107 
L 143.541818 77.158943 
L 143.705455 77.220423 
L 144.196364 76.851902 
L 144.36 76.961405 
L 144.523636 76.719625 
L 144.850909 76.736814 
L 145.341818 76.215842 
L 145.505455 76.243256 
L 145.669091 76.086542 
L 145.996364 76.020044 
L 147.141818 75.427673 
L 147.632727 75.467217 
L 148.123636 75.155048 
L 148.450909 74.801729 
L 148.778182 74.827661 
L 149.105455 74.191236 
L 149.432727 74.083852 
L 149.596364 74.263027 
L 149.923636 74.372044 
L 150.087273 74.663725 
L 150.414545 74.659158 
L 151.232727 73.717057 
L 151.887273 73.76711 
L 152.214545 73.466546 
L 152.541818 73.238778 
L 152.705455 73.258061 
L 153.196364 72.902942 
L 153.687273 72.587208 
L 154.014545 72.739018 
L 154.341818 72.75197 
L 154.505455 72.820352 
L 155.487273 72.558088 
L 155.650909 72.557047 
L 155.814545 72.680542 
L 156.141818 72.093767 
L 156.305455 72.275671 
L 156.632727 72.021427 
L 156.796364 72.103829 
L 157.123636 71.667252 
L 157.287273 71.762348 
L 157.450909 71.641656 
L 157.778182 71.675625 
L 158.105455 71.513765 
L 158.432727 71.134867 
L 158.596364 71.05729 
L 159.087273 71.288542 
L 159.414545 71.105487 
L 159.741818 71.237117 
L 160.069091 70.851435 
L 160.396364 70.738254 
L 160.887273 70.450297 
L 162.36 70.404943 
L 162.523636 70.425136 
L 162.687273 70.559325 
L 163.178182 70.408901 
L 163.341818 70.490033 
L 163.669091 70.40779 
L 163.832727 70.461138 
L 164.16 70.395374 
L 164.323636 70.519849 
L 164.978182 70.421296 
L 165.141818 70.446709 
L 165.305455 70.238293 
L 165.632727 70.287839 
L 165.796364 70.245265 
L 165.96 70.32125 
L 166.287273 70.182321 
L 166.450909 70.160237 
L 166.614545 69.989026 
L 166.778182 69.986963 
L 167.105455 69.736006 
L 167.596364 69.821732 
L 168.414545 69.538934 
L 168.741818 69.60829 
L 169.069091 69.791915 
L 169.232727 69.653153 
L 169.396364 69.923375 
L 169.56 69.764672 
L 169.887273 69.792264 
L 170.050909 69.777743 
L 170.378182 69.459437 
L 171.032727 69.438357 
L 171.196364 69.33382 
L 171.36 69.387119 
L 172.996364 68.499336 
L 173.16 68.633177 
L 173.323636 68.579136 
L 173.650909 68.766844 
L 173.978182 68.640471 
L 174.632727 68.385746 
L 174.96 68.229546 
L 175.450909 68.26083 
L 175.614545 68.265165 
L 175.778182 68.398295 
L 176.105455 68.226505 
L 176.432727 67.932881 
L 176.596364 67.982678 
L 176.923636 67.843401 
L 177.250909 67.90164 
L 177.578182 67.830714 
L 177.905455 67.662866 
L 178.232727 67.681139 
L 178.396364 67.806567 
L 178.56 67.574011 
L 178.887273 67.455429 
L 179.378182 67.15398 
L 179.705455 67.187447 
L 180.032727 67.120806 
L 180.523636 66.882202 
L 180.850909 66.315704 
L 181.178182 66.470029 
L 181.341818 66.325556 
L 181.832727 66.482884 
L 182.323636 66.593805 
L 182.487273 66.549431 
L 182.814545 66.19208 
L 183.469091 65.857542 
L 183.796364 65.837023 
L 184.123636 65.936375 
L 184.450909 65.948678 
L 184.614545 65.755632 
L 185.432727 65.724918 
L 185.596364 65.604213 
L 185.76 65.672413 
L 185.923636 65.525822 
L 186.087273 65.581073 
L 186.414545 65.511306 
L 187.396364 65.348614 
L 187.56 65.195063 
L 188.050909 65.277652 
L 188.705455 65.415813 
L 190.178182 64.973157 
L 190.505455 65.169582 
L 190.832727 65.04115 
L 191.650909 65.576153 
L 191.978182 65.437422 
L 192.141818 65.44386 
L 192.469091 65.256726 
L 192.632727 65.265125 
L 192.96 65.470264 
L 193.287273 65.356549 
L 193.450909 65.509208 
L 193.614545 65.353247 
L 194.105455 65.302248 
L 194.269091 65.492252 
L 195.087273 65.480332 
L 195.414545 65.340846 
L 195.905455 65.525195 
L 196.56 65.492092 
L 196.723636 65.46348 
L 196.887273 65.576042 
L 197.050909 65.54821 
L 197.378182 65.852664 
L 197.705455 65.717079 
L 198.032727 65.733435 
L 198.850909 65.160368 
L 199.178182 65.162827 
L 199.505455 65.23718 
L 199.669091 65.138256 
L 199.996364 65.431309 
L 200.814545 65.194725 
L 201.141818 65.314432 
L 202.778182 64.905886 
L 203.269091 65.077915 
L 203.432727 65.129812 
L 203.596364 65.044965 
L 203.76 65.162493 
L 204.087273 65.029563 
L 204.741818 64.755171 
L 204.905455 64.669007 
L 205.069091 64.709741 
L 205.396364 64.643484 
L 206.050909 65.00729 
L 206.214545 65.10266 
L 206.541818 64.941922 
L 206.705455 65.036821 
L 207.196364 64.872956 
L 207.36 64.915802 
L 207.523636 64.836609 
L 207.850909 64.55164 
L 208.014545 64.559806 
L 208.341818 64.428744 
L 208.505455 64.466205 
L 208.669091 64.294699 
L 209.323636 64.458151 
L 209.650909 64.493197 
L 209.814545 64.551408 
L 209.978182 64.405096 
L 210.141818 64.507068 
L 210.305455 64.400757 
L 210.632727 64.371472 
L 210.796364 64.199666 
L 211.123636 64.202491 
L 211.450909 64.141993 
L 211.614545 64.153856 
L 211.778182 64.30458 
L 212.432727 64.219806 
L 212.76 63.963821 
L 212.923636 64.171058 
L 213.578182 63.928397 
L 213.741818 63.993553 
L 213.905455 63.798809 
L 215.378182 64.371221 
L 217.505455 63.736535 
L 219.796364 63.433491 
L 220.450909 63.291421 
L 220.778182 63.461692 
L 220.941818 63.426742 
L 221.269091 63.598415 
L 222.087273 63.701189 
L 222.741818 63.261349 
L 223.069091 63.444073 
L 223.396364 63.253345 
L 223.56 63.356323 
L 224.214545 63.248919 
L 224.541818 63.251023 
L 225.032727 63.173351 
L 225.36 63.022358 
L 225.523636 62.7848 
L 225.687273 62.744421 
L 226.014545 62.945221 
L 226.341818 62.948082 
L 227.487273 62.799359 
L 227.814545 62.818246 
L 228.632727 62.664993 
L 230.105455 62.474422 
L 230.269091 62.288077 
L 230.596364 62.389379 
L 230.76 62.221457 
L 230.923636 62.304789 
L 231.250909 62.116591 
L 231.741818 62.042784 
L 232.232727 62.230836 
L 232.396364 62.258997 
L 232.723636 62.139743 
L 233.050909 62.301542 
L 233.214545 62.233386 
L 233.541818 62.292466 
L 234.687273 61.99527 
L 234.850909 62.124963 
L 235.341818 62.153359 
L 235.832727 62.183001 
L 236.650909 62.537194 
L 236.814545 62.510937 
L 237.141818 62.597231 
L 237.305455 62.640597 
L 237.632727 62.521422 
L 238.450909 62.449671 
L 239.269091 62.493717 
L 239.596364 62.511984 
L 241.887273 62.625103 
L 242.050909 62.703023 
L 242.869091 62.331835 
L 243.36 62.419189 
L 244.014545 62.656275 
L 244.341818 62.627568 
L 244.996364 62.610177 
L 245.487273 62.538903 
L 245.650909 62.514692 
L 245.814545 62.625618 
L 245.978182 62.531725 
L 246.141818 62.704314 
L 247.614545 62.751672 
L 247.778182 62.85896 
L 248.105455 62.742149 
L 248.269091 62.835734 
L 248.76 62.477573 
L 248.923636 62.427594 
L 249.087273 62.571549 
L 249.250909 62.514972 
L 249.414545 62.339445 
L 251.541818 62.387516 
L 251.869091 62.270471 
L 252.523636 62.130517 
L 253.832727 61.596667 
L 253.996364 61.700171 
L 254.16 61.544479 
L 254.323636 61.574369 
L 254.650909 61.365378 
L 254.978182 61.344823 
L 255.141818 61.322771 
L 255.632727 61.581815 
L 256.123636 61.382513 
L 256.614545 61.289108 
L 256.941818 61.339803 
L 257.923636 61.284737 
L 258.414545 61.187252 
L 258.741818 61.34207 
L 258.905455 61.312184 
L 259.232727 61.442181 
L 259.887273 61.358102 
L 260.214545 61.507479 
L 260.378182 61.570901 
L 260.705455 61.359513 
L 260.869091 61.38196 
L 261.196364 61.106759 
L 261.523636 61.2865 
L 262.014545 61.244041 
L 262.178182 61.320949 
L 263.16 60.837573 
L 263.650909 61.101133 
L 264.469091 61.118023 
L 264.796364 61.065458 
L 265.123636 61.073121 
L 265.614545 61.091923 
L 266.269091 60.974161 
L 266.432727 60.904708 
L 266.76 61.019397 
L 267.250909 60.97134 
L 268.396364 61.029802 
L 268.887273 61.072739 
L 269.214545 60.965791 
L 269.705455 61.13653 
L 270.032727 61.188501 
L 270.196364 61.09371 
L 270.523636 61.108568 
L 271.341818 61.114262 
L 271.669091 61.284431 
L 272.487273 60.933861 
L 274.287273 61.063602 
L 274.614545 61.241266 
L 274.778182 61.13009 
L 275.432727 61.319921 
L 275.596364 61.180264 
L 276.250909 61.251148 
L 276.905455 60.977887 
L 277.232727 60.984838 
L 277.56 61.061642 
L 277.723636 61.095704 
L 278.214545 60.899282 
L 278.541818 61.039942 
L 278.869091 61.019558 
L 279.196364 61.235279 
L 279.36 61.25315 
L 279.687273 61.478562 
L 280.014545 61.38836 
L 280.669091 61.221312 
L 281.16 61.13136 
L 281.323636 61.055885 
L 281.978182 61.249488 
L 282.141818 61.164854 
L 282.469091 61.200659 
L 282.632727 61.151265 
L 282.96 61.337328 
L 283.287273 61.04864 
L 283.778182 61.188461 
L 283.941818 61.137483 
L 284.269091 61.238053 
L 285.087273 61.286868 
L 285.414545 61.180213 
L 285.741818 61.361157 
L 286.069091 61.333891 
L 287.705455 61.420866 
L 288.36 61.026244 
L 288.687273 61.131464 
L 289.014545 61.373272 
L 289.996364 61.303825 
L 290.16 61.399548 
L 290.323636 61.239541 
L 290.650909 61.22418 
L 290.978182 61.063857 
L 291.469091 60.971115 
L 291.796364 60.729953 
L 292.287273 60.802523 
L 292.614545 60.805072 
L 293.432727 60.819223 
L 293.76 60.816943 
L 294.578182 60.796477 
L 294.741818 60.910577 
L 295.069091 60.840122 
L 295.396364 60.859461 
L 295.723636 60.623655 
L 296.214545 60.631569 
L 296.378182 60.568675 
L 296.705455 60.603518 
L 297.196364 60.583776 
L 297.687273 60.479412 
L 297.850909 60.574895 
L 298.014545 60.526421 
L 298.341818 60.586575 
L 298.669091 60.610669 
L 298.832727 60.481702 
L 299.16 60.574078 
L 299.323636 60.578357 
L 299.487273 60.436415 
L 299.978182 60.574688 
L 300.305455 60.505387 
L 300.469091 60.474283 
L 300.632727 60.297579 
L 301.123636 60.256563 
L 302.105455 60.271728 
L 303.250909 59.785026 
L 303.414545 59.840274 
L 303.741818 59.753758 
L 304.232727 59.666478 
L 304.396364 59.794588 
L 304.723636 59.820468 
L 304.887273 59.874701 
L 305.541818 59.632451 
L 306.032727 59.762025 
L 306.523636 59.610829 
L 306.850909 59.790978 
L 307.178182 59.689518 
L 307.505455 59.781153 
L 307.669091 59.735419 
L 307.996364 59.840864 
L 308.16 59.898783 
L 308.323636 59.753298 
L 308.814545 59.938526 
L 309.141818 60.018863 
L 309.796364 59.917619 
L 309.96 59.976755 
L 310.123636 59.87088 
L 310.614545 60.08154 
L 310.778182 60.051952 
L 310.941818 60.156986 
L 311.596364 59.959517 
L 312.087273 60.06002 
L 312.414545 60.030544 
L 312.905455 59.968353 
L 313.232727 59.892918 
L 313.56 60.025712 
L 313.723636 60.139005 
L 314.050909 60.123202 
L 314.541818 60.19909 
L 314.705455 60.006327 
L 314.869091 60.102118 
L 315.196364 60.078409 
L 315.36 60.307104 
L 315.687273 60.211202 
L 316.014545 60.403472 
L 316.669091 60.530483 
L 316.832727 60.535385 
L 317.16 60.736082 
L 317.650909 60.594865 
L 318.305455 60.540573 
L 318.632727 60.477051 
L 318.96 60.590276 
L 319.123636 60.500266 
L 319.778182 60.659387 
L 320.105455 60.541684 
L 322.396364 61.197972 
L 322.56 61.175044 
L 322.723636 61.283803 
L 323.378182 61.173371 
L 323.869091 61.364693 
L 324.36 61.389859 
L 324.850909 61.640794 
L 325.178182 61.446902 
L 325.832727 61.518761 
L 326.16 61.654077 
L 327.141818 61.643408 
L 327.305455 61.792426 
L 328.450909 61.820425 
L 329.105455 61.834862 
L 329.432727 61.843978 
L 329.76 61.927486 
L 330.250909 61.955502 
L 331.232727 61.801459 
L 331.56 61.735596 
L 331.723636 61.752058 
L 331.887273 61.590911 
L 332.541818 61.751551 
L 332.869091 61.584389 
L 333.032727 61.592965 
L 333.36 61.84505 
L 333.687273 61.996841 
L 334.178182 62.161344 
L 334.832727 62.393908 
L 334.996364 62.569569 
L 335.16 62.339355 
L 335.487273 62.30375 
L 335.814545 62.65577 
L 336.469091 62.677114 
L 337.287273 62.913103 
L 337.941818 62.824586 
L 338.269091 62.996744 
L 338.432727 62.89079 
L 338.76 62.925668 
L 338.923636 62.841609 
L 339.250909 62.882484 
L 340.232727 62.988171 
L 340.396364 62.846415 
L 342.36 63.108637 
L 342.850909 63.161133 
L 343.014545 63.112352 
L 343.505455 63.393488 
L 343.832727 63.285353 
L 345.469091 63.842444 
L 345.796364 63.899848 
L 345.96 63.743025 
L 346.614545 63.889438 
L 346.778182 63.822912 
L 346.941818 64.022302 
L 347.105455 63.998306 
L 347.432727 64.245779 
L 347.596364 64.246038 
L 347.76 64.435769 
L 347.923636 64.44851 
L 348.087273 64.706968 
L 348.414545 64.76024 
L 348.741818 64.966243 
L 349.069091 64.776557 
L 349.56 65.230117 
L 350.050909 64.958872 
L 350.378182 65.008275 
L 350.869091 65.054455 
L 351.032727 65.224039 
L 351.523636 65.179105 
L 352.014545 65.520137 
L 352.341818 65.592067 
L 352.505455 65.472321 
L 353.16 65.747454 
L 353.650909 65.566269 
L 353.814545 65.70186 
L 353.978182 65.647162 
L 354.469091 66.059803 
L 354.632727 66.314931 
L 355.614545 66.159595 
L 355.941818 66.264869 
L 356.105455 66.189774 
L 356.76 66.469544 
L 356.923636 66.703719 
L 357.087273 66.631783 
L 357.414545 66.92351 
L 357.578182 66.811395 
L 357.905455 67.009404 
L 359.050909 67.179062 
L 359.214545 67.273449 
L 360.36 66.919444 
L 360.523636 66.764713 
L 361.014545 66.919028 
L 361.178182 66.668411 
L 361.341818 66.809377 
L 361.996364 66.54885 
L 362.16 66.428714 
L 362.323636 66.509692 
L 362.487273 66.784243 
L 362.978182 66.812759 
L 363.305455 67.12391 
L 363.469091 66.954354 
L 363.632727 66.982455 
L 363.96 66.647754 
L 364.123636 66.786173 
L 364.287273 66.571554 
L 364.450909 66.642019 
L 364.614545 66.409021 
L 365.269091 66.891293 
L 365.596364 66.906737 
L 365.76 67.020917 
L 365.923636 66.897463 
L 366.414545 66.985582 
L 366.741818 66.778818 
L 367.069091 67.053698 
L 367.232727 66.916032 
L 367.396364 66.995722 
L 367.56 66.848011 
L 367.887273 67.005807 
L 368.378182 67.321347 
L 368.541818 67.262249 
L 368.705455 67.050419 
L 369.032727 67.295061 
L 369.196364 67.127673 
L 369.36 67.269382 
L 369.523636 67.199082 
L 369.850909 67.357497 
L 370.178182 67.081699 
L 370.669091 67.027876 
L 371.323636 66.605647 
L 371.487273 66.544936 
L 371.650909 66.861012 
L 371.978182 66.830446 
L 372.305455 66.800569 
L 372.796364 67.245433 
L 372.96 67.229459 
L 373.450909 66.873856 
L 373.778182 66.645001 
L 373.941818 66.510288 
L 374.105455 66.618897 
L 374.432727 66.313352 
L 374.596364 66.333294 
L 374.76 66.115455 
L 374.923636 66.189886 
L 375.087273 66.394158 
L 375.250909 66.212372 
L 375.414545 66.319025 
L 375.578182 66.151338 
L 376.232727 66.312377 
L 376.56 66.044318 
L 376.723636 66.222171 
L 376.887273 66.22483 
L 377.050909 66.374768 
L 377.869091 66.036683 
L 378.196364 66.33508 
L 378.36 66.314464 
L 378.850909 66.56812 
L 379.178182 66.110474 
L 379.341818 66.078881 
L 379.669091 65.778387 
L 379.832727 65.672611 
L 380.487273 66.113509 
L 380.650909 65.890358 
L 380.978182 66.200601 
L 381.305455 66.06426 
L 381.632727 65.711413 
L 381.796364 65.54214 
L 382.123636 65.681968 
L 382.287273 65.487602 
L 382.450909 65.561333 
L 382.614545 65.505763 
L 382.778182 65.670023 
L 383.105455 65.487429 
L 383.432727 65.393113 
L 383.76 65.146056 
L 384.250909 64.962303 
L 384.905455 64.353978 
L 386.050909 63.98937 
L 386.378182 63.876564 
L 386.705455 64.058368 
L 386.869091 63.970035 
L 387.032727 64.162964 
L 388.014545 64.061087 
L 388.178182 63.823057 
L 388.341818 64.091723 
L 388.505455 64.047972 
L 388.669091 64.122292 
L 389.487273 63.714877 
L 389.650909 63.864082 
L 389.978182 63.784981 
L 390.469091 64.209778 
L 390.96 64.546561 
L 391.287273 64.831299 
L 391.450909 64.982112 
L 391.778182 64.712464 
L 391.941818 64.637017 
L 392.105455 64.745492 
L 392.269091 64.71467 
L 392.923636 65.046768 
L 393.414545 65.169168 
L 395.050909 64.468931 
L 395.214545 64.26461 
L 395.541818 64.58063 
L 396.523636 64.387662 
L 396.850909 64.46962 
L 397.014545 64.178465 
L 397.178182 64.356768 
L 397.669091 64.233018 
L 397.832727 64.266138 
L 397.996364 64.522473 
L 398.487273 64.361778 
L 398.487273 64.361778 
" clip-path="url(#pcbaa4e215d)" style="fill: none; stroke: #1f77b4; stroke-width: 1.5; stroke-linecap: square"/>
   </g>
   <g id="line2d_17">
    <path d="M 73.832727 114.642574 
L 73.996364 114.096625 
L 74.16 111.713436 
L 74.323636 113.402755 
L 74.487273 113.374522 
L 74.650909 112.762509 
L 74.814545 113.180763 
L 74.978182 112.279614 
L 75.141818 112.609548 
L 75.305455 114.077917 
L 75.632727 112.806102 
L 75.796364 112.731667 
L 75.96 111.442237 
L 76.123636 111.500176 
L 76.450909 110.147646 
L 76.614545 110.4001 
L 76.778182 111.342028 
L 76.941818 111.080016 
L 77.105455 111.80053 
L 77.432727 110.636126 
L 77.596364 111.257738 
L 77.76 111.400916 
L 77.923636 110.775803 
L 78.087273 111.488988 
L 78.250909 111.175145 
L 78.414545 111.196849 
L 78.578182 111.04902 
L 78.741818 110.541617 
L 78.905455 111.063572 
L 79.069091 110.496128 
L 79.232727 111.054707 
L 79.56 110.605516 
L 79.887273 112.014722 
L 80.050909 111.896844 
L 80.214545 112.277357 
L 80.378182 112.227352 
L 80.541818 111.674354 
L 80.705455 112.778932 
L 81.032727 112.25938 
L 81.196364 112.043373 
L 81.36 112.047658 
L 81.850909 111.184167 
L 82.014545 110.935156 
L 82.178182 111.366611 
L 82.341818 112.297487 
L 82.505455 111.89467 
L 82.669091 112.012956 
L 82.832727 111.799833 
L 83.16 113.040049 
L 83.323636 112.966247 
L 83.650909 113.158298 
L 83.814545 112.831014 
L 83.978182 113.443335 
L 84.305455 113.486944 
L 84.96 112.420187 
L 85.123636 112.548669 
L 85.287273 112.234409 
L 85.450909 112.942268 
L 85.614545 112.804668 
L 85.941818 112.251298 
L 86.105455 112.44327 
L 86.596364 111.552888 
L 86.76 112.126416 
L 87.087273 112.158014 
L 87.414545 112.332383 
L 87.578182 112.359847 
L 87.741818 111.983513 
L 87.905455 112.123862 
L 88.069091 111.807499 
L 88.396364 111.794404 
L 88.56 111.776918 
L 89.214545 110.542046 
L 89.705455 110.339841 
L 90.032727 111.004613 
L 90.36 111.091657 
L 90.687273 111.90656 
L 91.014545 111.249954 
L 91.178182 112.02457 
L 91.341818 111.916343 
L 91.505455 112.149513 
L 91.669091 111.967799 
L 91.832727 111.221453 
L 91.996364 112.06971 
L 92.323636 111.966335 
L 92.650909 112.009241 
L 92.978182 112.795489 
L 93.632727 112.393468 
L 93.796364 112.585967 
L 93.96 112.529966 
L 94.123636 112.195115 
L 94.287273 112.304729 
L 94.614545 112.897323 
L 94.778182 112.901021 
L 95.432727 112.257972 
L 95.596364 113.245885 
L 95.76 112.993534 
L 95.923636 113.089514 
L 96.250909 112.29279 
L 96.578182 111.971804 
L 96.741818 112.238483 
L 97.069091 111.853563 
L 97.232727 110.990208 
L 97.396364 110.847086 
L 97.56 110.870118 
L 97.723636 110.718368 
L 97.887273 110.812037 
L 98.050909 111.606835 
L 98.214545 111.471724 
L 98.541818 111.792401 
L 98.869091 110.717752 
L 99.032727 110.753263 
L 99.196364 110.523019 
L 99.36 110.641415 
L 99.523636 110.091804 
L 100.014545 109.549511 
L 100.341818 110.022477 
L 100.505455 109.276053 
L 100.669091 109.311025 
L 100.996364 110.161439 
L 101.16 110.226684 
L 101.323636 110.048436 
L 101.487273 110.116377 
L 101.650909 109.964858 
L 101.814545 110.062455 
L 101.978182 109.185543 
L 102.141818 109.202027 
L 102.469091 109.901077 
L 102.632727 109.501829 
L 102.796364 109.544427 
L 102.96 109.753641 
L 103.123636 109.646184 
L 103.287273 109.007757 
L 103.450909 109.21389 
L 103.614545 109.000978 
L 103.778182 108.513223 
L 103.941818 108.797927 
L 104.105455 108.596878 
L 104.269091 108.591177 
L 104.432727 109.190088 
L 104.923636 108.980797 
L 105.250909 110.181005 
L 105.414545 110.338763 
L 105.578182 109.572697 
L 105.905455 110.263813 
L 106.232727 110.039886 
L 106.56 109.036258 
L 106.887273 109.459231 
L 107.050909 108.952449 
L 107.214545 109.164822 
L 107.378182 108.728214 
L 107.541818 108.86502 
L 107.705455 108.439428 
L 107.869091 108.516997 
L 108.032727 108.320416 
L 108.36 108.96385 
L 108.523636 107.803004 
L 108.687273 107.725588 
L 108.850909 107.255704 
L 109.014545 107.989725 
L 109.505455 107.115047 
L 109.669091 106.963066 
L 109.832727 106.481627 
L 109.996364 106.422005 
L 110.16 106.21464 
L 110.487273 106.647165 
L 110.650909 107.029312 
L 110.814545 107.058814 
L 110.978182 107.477089 
L 111.141818 106.769104 
L 111.632727 106.577683 
L 111.96 106.941806 
L 112.287273 106.060964 
L 112.450909 105.966988 
L 112.614545 106.366929 
L 112.778182 106.251845 
L 112.941818 106.306537 
L 113.105455 106.869859 
L 113.269091 106.835119 
L 113.432727 106.606724 
L 113.596364 106.716338 
L 114.087273 108.284905 
L 114.414545 108.878115 
L 114.578182 108.723053 
L 114.741818 109.220669 
L 115.069091 108.728985 
L 115.232727 108.888668 
L 115.396364 108.356697 
L 115.887273 107.873332 
L 116.050909 108.161117 
L 116.214545 107.72374 
L 116.378182 108.042414 
L 117.196364 107.525387 
L 117.523636 106.775497 
L 117.850909 107.229514 
L 118.014545 107.333967 
L 118.178182 107.115355 
L 118.341818 107.091552 
L 118.669091 107.714496 
L 118.832727 107.294142 
L 118.996364 107.712724 
L 119.16 107.731982 
L 119.323636 107.876414 
L 119.650909 108.800392 
L 120.141818 108.316411 
L 120.305455 108.253015 
L 120.469091 107.253162 
L 120.632727 107.220039 
L 120.796364 107.457985 
L 120.96 106.768102 
L 121.123636 107.34452 
L 121.450909 106.802381 
L 121.778182 105.581297 
L 121.941818 105.18644 
L 122.105455 105.256692 
L 122.269091 105.153548 
L 122.76 104.572278 
L 122.923636 104.559722 
L 123.087273 104.687669 
L 123.250909 104.61372 
L 123.578182 103.555478 
L 123.905455 103.992394 
L 124.232727 102.746275 
L 124.396364 102.082274 
L 124.723636 101.9296 
L 125.050909 102.249353 
L 125.214545 102.22401 
L 125.378182 102.421439 
L 125.541818 102.057625 
L 125.705455 101.975048 
L 126.196364 102.218926 
L 126.523636 101.585506 
L 127.178182 99.985665 
L 127.341818 99.126623 
L 127.669091 98.78561 
L 127.832727 98.659974 
L 127.996364 99.476649 
L 128.650909 97.830127 
L 128.814545 97.924181 
L 128.978182 98.339528 
L 129.141818 98.20357 
L 129.305455 97.431418 
L 129.469091 97.261182 
L 129.796364 95.698238 
L 129.96 95.918467 
L 130.123636 95.850449 
L 130.941818 92.391791 
L 131.269091 92.006639 
L 131.432727 91.92491 
L 131.76 91.079041 
L 131.923636 91.053852 
L 132.087273 90.881458 
L 132.250909 91.159615 
L 132.414545 91.08089 
L 132.578182 90.562938 
L 132.741818 90.690808 
L 132.905455 90.169082 
L 133.069091 90.491223 
L 133.56 89.534815 
L 133.723636 89.662763 
L 134.050909 89.013937 
L 134.378182 88.401546 
L 134.705455 87.577707 
L 134.869091 87.593114 
L 135.032727 87.281834 
L 135.196364 86.461539 
L 135.36 86.377653 
L 135.687273 85.053503 
L 135.850909 84.826726 
L 136.341818 83.368235 
L 136.505455 83.094007 
L 136.669091 83.486707 
L 136.832727 83.450426 
L 136.996364 84.640235 
L 137.16 84.840129 
L 137.814545 83.381869 
L 137.978182 83.177046 
L 138.141818 82.688597 
L 138.305455 82.802216 
L 138.632727 83.611111 
L 138.796364 83.60441 
L 138.96 83.019981 
L 139.123636 83.207087 
L 139.450909 82.518745 
L 139.614545 82.279412 
L 139.941818 81.647918 
L 140.105455 81.9062 
L 140.269091 81.171794 
L 140.596364 81.915983 
L 140.76 82.133286 
L 140.923636 82.800137 
L 141.087273 82.798904 
L 141.250909 82.23304 
L 141.414545 82.250295 
L 141.578182 82.828946 
L 142.069091 82.760697 
L 142.232727 83.324482 
L 142.56 82.231576 
L 143.214545 82.762161 
L 143.378182 82.59539 
L 143.705455 83.044323 
L 143.869091 83.168187 
L 144.032727 82.212088 
L 144.36 81.800592 
L 144.523636 80.731104 
L 144.850909 81.291653 
L 145.014545 81.383781 
L 145.341818 80.720782 
L 145.505455 80.838792 
L 145.669091 80.791496 
L 145.832727 80.861824 
L 145.996364 80.61163 
L 146.323636 80.748744 
L 146.650909 80.708996 
L 146.978182 80.298964 
L 147.141818 80.611861 
L 147.305455 80.661854 
L 147.632727 81.092915 
L 147.796364 81.143909 
L 147.96 80.90681 
L 148.778182 81.705306 
L 148.941818 81.481302 
L 149.105455 81.476988 
L 149.432727 81.026207 
L 149.76 80.56002 
L 150.087273 80.820998 
L 150.250909 81.088986 
L 150.414545 81.116871 
L 150.578182 81.276632 
L 150.741818 81.090681 
L 151.069091 81.553787 
L 151.232727 81.67511 
L 151.396364 81.630355 
L 151.56 81.285414 
L 151.723636 81.512037 
L 151.887273 81.13351 
L 152.214545 81.480916 
L 152.541818 81.408354 
L 152.705455 80.933847 
L 152.869091 81.525671 
L 153.032727 81.690901 
L 153.196364 81.259377 
L 153.36 81.379236 
L 153.687273 79.772616 
L 153.850909 80.369139 
L 154.014545 80.444012 
L 154.669091 81.847889 
L 154.996364 81.542849 
L 155.16 81.730726 
L 155.323636 81.313067 
L 155.650909 81.770473 
L 155.814545 81.679577 
L 155.978182 81.837335 
L 156.141818 82.330714 
L 156.305455 82.256611 
L 156.469091 82.674115 
L 156.796364 82.264699 
L 156.96 81.492317 
L 157.778182 80.505482 
L 158.105455 79.405875 
L 158.269091 79.805123 
L 158.432727 79.518262 
L 158.923636 78.099519 
L 159.087273 78.141423 
L 159.250909 77.643577 
L 159.414545 77.541743 
L 159.578182 77.66268 
L 159.905455 78.476043 
L 160.069091 77.700887 
L 160.396364 77.457395 
L 160.56 77.698654 
L 160.723636 78.272837 
L 160.887273 78.223615 
L 161.050909 78.549299 
L 161.214545 78.282389 
L 161.869091 78.807504 
L 162.196364 77.639417 
L 162.36 78.006312 
L 162.687273 77.463557 
L 163.014545 77.104673 
L 163.178182 77.25234 
L 163.341818 77.57995 
L 163.505455 77.607296 
L 163.669091 77.086109 
L 163.832727 77.60329 
L 163.996364 77.615076 
L 164.16 77.487668 
L 164.487273 77.67385 
L 164.814545 77.720068 
L 165.305455 77.065773 
L 165.469091 77.211668 
L 166.287273 76.884752 
L 166.614545 77.944919 
L 167.432727 76.09758 
L 167.76 76.356863 
L 167.923636 76.162824 
L 168.087273 76.200723 
L 168.250909 75.892448 
L 168.414545 76.56731 
L 168.578182 76.239315 
L 168.741818 76.499292 
L 168.905455 76.535574 
L 169.069091 76.838688 
L 169.232727 76.856944 
L 169.723636 75.6924 
L 169.887273 75.740082 
L 170.214545 76.182005 
L 170.378182 75.509531 
L 170.541818 75.554285 
L 170.869091 74.943897 
L 171.032727 74.916398 
L 171.196364 74.615825 
L 171.523636 74.907385 
L 171.687273 74.316563 
L 172.014545 75.084169 
L 172.178182 74.716427 
L 172.341818 75.07092 
L 172.669091 73.849451 
L 172.832727 74.012447 
L 173.323636 73.384112 
L 173.487273 73.869787 
L 173.650909 73.922861 
L 173.814545 74.163196 
L 174.141818 73.913849 
L 174.469091 74.665048 
L 174.796364 73.947126 
L 175.287273 73.9063 
L 175.450909 74.017454 
L 175.614545 73.863471 
L 175.778182 73.963148 
L 176.432727 73.291213 
L 176.76 72.856223 
L 177.087273 73.174358 
L 177.250909 72.924703 
L 177.414545 72.927861 
L 177.578182 72.373552 
L 177.741818 72.255079 
L 178.069091 71.904977 
L 178.232727 71.760699 
L 178.396364 72.449118 
L 178.56 72.257929 
L 178.723636 72.490098 
L 178.887273 72.528228 
L 179.214545 73.097636 
L 179.541818 73.433719 
L 179.869091 72.307999 
L 180.032727 72.397816 
L 180.196364 72.712485 
L 180.36 72.009044 
L 180.523636 71.864767 
L 180.850909 70.605014 
L 181.014545 70.678886 
L 181.178182 70.485386 
L 181.505455 70.588221 
L 181.996364 70.214547 
L 182.16 70.315842 
L 182.323636 70.69175 
L 182.487273 70.555483 
L 182.814545 69.889557 
L 183.141818 68.469581 
L 183.305455 68.160536 
L 183.796364 69.344028 
L 183.96 69.90658 
L 184.287273 69.451409 
L 184.614545 69.588523 
L 184.778182 69.828549 
L 184.941818 69.443475 
L 185.269091 69.928072 
L 185.432727 69.933387 
L 185.596364 69.440085 
L 185.76 69.986769 
L 185.923636 69.898338 
L 186.250909 70.282411 
L 186.414545 70.251522 
L 186.741818 70.008337 
L 187.069091 70.2194 
L 187.56 69.419518 
L 187.723636 69.545 
L 187.887273 69.039913 
L 188.050909 69.139205 
L 188.214545 69.440085 
L 188.378182 69.135354 
L 188.541818 68.589825 
L 188.705455 68.888317 
L 188.869091 68.681568 
L 189.196364 68.99978 
L 189.850909 69.358202 
L 190.178182 68.72016 
L 190.341818 68.992154 
L 190.996364 67.993842 
L 191.323636 68.06109 
L 191.487273 67.959872 
L 191.650909 68.386619 
L 191.814545 68.181719 
L 191.978182 68.23279 
L 192.141818 68.789642 
L 192.305455 68.52666 
L 192.469091 68.554006 
L 192.632727 68.310591 
L 192.796364 68.349876 
L 192.96 68.570953 
L 193.123636 69.2519 
L 193.450909 69.253056 
L 193.614545 69.008793 
L 193.778182 69.145984 
L 194.105455 70.022742 
L 194.432727 71.066964 
L 194.76 70.790118 
L 194.923636 70.495323 
L 195.087273 70.877778 
L 195.250909 70.766546 
L 195.414545 70.821777 
L 195.578182 70.585679 
L 195.741818 70.783955 
L 196.069091 70.209695 
L 196.396364 70.610637 
L 196.723636 69.990621 
L 196.887273 70.77294 
L 197.050909 70.917372 
L 197.214545 70.908975 
L 197.541818 70.776714 
L 197.705455 71.315002 
L 198.196364 71.069275 
L 198.36 71.162559 
L 198.523636 70.837722 
L 198.687273 70.831021 
L 198.850909 70.557486 
L 199.178182 71.278721 
L 199.669091 71.296129 
L 199.832727 71.577521 
L 200.16 71.234659 
L 200.487273 70.109401 
L 200.814545 71.024058 
L 201.141818 70.555946 
L 201.469091 70.667948 
L 201.632727 70.355436 
L 201.96 69.442935 
L 202.123636 69.37253 
L 202.287273 68.64806 
L 202.450909 68.738263 
L 202.614545 68.578656 
L 202.941818 68.748739 
L 203.105455 68.441388 
L 203.432727 68.806203 
L 203.596364 68.710224 
L 203.923636 69.007021 
L 204.250909 68.553236 
L 204.414545 68.966503 
L 204.741818 68.282243 
L 205.069091 68.635273 
L 205.232727 68.285787 
L 205.396364 68.212916 
L 205.56 67.99985 
L 205.723636 68.05408 
L 205.887273 67.973891 
L 206.541818 68.312285 
L 206.705455 68.809593 
L 206.869091 68.184492 
L 207.032727 68.517263 
L 207.523636 68.25251 
L 207.687273 68.386465 
L 207.850909 68.205213 
L 208.014545 68.545456 
L 208.178182 68.3669 
L 208.341818 68.687423 
L 208.505455 68.639202 
L 208.669091 68.156376 
L 208.996364 68.146439 
L 209.16 68.709838 
L 209.323636 68.725013 
L 209.650909 67.890082 
L 209.814545 67.848871 
L 209.978182 67.982288 
L 210.141818 67.78224 
L 210.469091 67.149976 
L 210.632727 66.968877 
L 210.96 65.532725 
L 211.123636 65.580869 
L 211.450909 65.243323 
L 211.778182 65.442369 
L 212.105455 64.790462 
L 212.269091 64.504756 
L 212.76 65.149731 
L 213.250909 65.805489 
L 213.578182 65.382054 
L 213.741818 65.785076 
L 213.905455 65.695182 
L 214.396364 66.433594 
L 214.723636 66.525029 
L 214.887273 66.400163 
L 215.050909 66.933212 
L 215.378182 66.905559 
L 215.705455 66.846784 
L 216.196364 67.310276 
L 216.523636 66.824831 
L 216.687273 66.540281 
L 216.850909 66.635567 
L 217.014545 67.120319 
L 217.178182 66.150123 
L 217.505455 66.383756 
L 217.669091 66.770216 
L 217.832727 66.708515 
L 217.996364 66.480043 
L 218.323636 67.606996 
L 218.487273 67.855188 
L 218.814545 69.430456 
L 219.141818 70.008492 
L 219.469091 69.713928 
L 219.796364 70.030137 
L 219.96 69.775244 
L 220.450909 69.952953 
L 220.941818 69.192048 
L 221.269091 69.718242 
L 221.432727 69.326851 
L 221.596364 69.363286 
L 221.923636 69.302586 
L 222.087273 69.925915 
L 222.250909 69.963429 
L 222.414545 69.765153 
L 222.578182 69.325926 
L 222.741818 69.717086 
L 222.905455 69.532059 
L 223.069091 69.584671 
L 223.232727 69.472361 
L 223.396364 69.545077 
L 223.56 69.383699 
L 223.723636 69.384546 
L 224.050909 69.75252 
L 224.378182 69.628116 
L 224.869091 69.11548 
L 225.36 69.271389 
L 225.523636 69.324386 
L 225.850909 68.574804 
L 226.014545 68.75467 
L 226.505455 68.405877 
L 226.669091 68.540911 
L 226.832727 68.238336 
L 226.996364 68.244961 
L 227.650909 69.074269 
L 227.978182 69.852351 
L 228.141818 69.856203 
L 228.305455 70.464819 
L 228.632727 70.747597 
L 228.796364 71.035074 
L 229.450909 70.494013 
L 229.778182 70.586373 
L 229.941818 70.169639 
L 230.105455 70.228798 
L 230.269091 70.022434 
L 230.432727 70.045004 
L 230.596364 70.192594 
L 230.76 69.483145 
L 231.087273 69.230409 
L 231.250909 69.483376 
L 231.578182 69.027588 
L 231.741818 69.195437 
L 231.905455 69.627731 
L 232.396364 68.992925 
L 232.56 69.126726 
L 232.723636 68.830314 
L 233.378182 69.522662 
L 233.541818 69.005326 
L 233.705455 69.303125 
L 233.869091 68.936538 
L 234.36 68.753283 
L 234.523636 69.013106 
L 234.687273 68.196355 
L 235.014545 67.836777 
L 235.178182 67.422509 
L 235.341818 67.755202 
L 235.832727 67.057231 
L 236.16 67.196348 
L 236.323636 66.839236 
L 236.487273 66.960173 
L 236.814545 66.272216 
L 237.469091 67.494994 
L 237.632727 67.389386 
L 237.796364 67.521878 
L 238.123636 68.293952 
L 238.450909 68.276928 
L 238.778182 67.533432 
L 238.941818 67.76252 
L 239.76 67.553537 
L 240.250909 67.711834 
L 240.414545 67.854648 
L 240.905455 67.314897 
L 241.232727 67.299876 
L 241.396364 67.827688 
L 241.56 67.82684 
L 241.723636 68.224702 
L 241.887273 68.270766 
L 242.050909 68.166852 
L 242.214545 67.899788 
L 242.378182 67.977666 
L 242.705455 67.825069 
L 242.869091 67.965418 
L 243.032727 67.890313 
L 243.36 68.282706 
L 243.523636 68.197818 
L 243.687273 67.752506 
L 243.850909 67.727086 
L 244.014545 68.50748 
L 244.341818 67.758129 
L 244.505455 67.217762 
L 244.669091 67.464028 
L 244.832727 66.81759 
L 245.16 67.026804 
L 245.487273 66.57895 
L 245.814545 66.831918 
L 245.978182 66.712675 
L 246.141818 66.976272 
L 246.305455 66.395079 
L 246.632727 66.682864 
L 246.796364 66.428356 
L 246.96 66.516094 
L 247.123636 66.165452 
L 247.287273 66.271831 
L 247.450909 66.564237 
L 247.614545 66.501073 
L 247.778182 66.96726 
L 247.941818 67.09644 
L 248.432727 65.888759 
L 248.76 66.109759 
L 249.087273 66.462403 
L 249.250909 66.684328 
L 249.414545 66.406634 
L 249.578182 66.606604 
L 249.905455 66.592199 
L 250.069091 66.48428 
L 250.232727 66.640343 
L 250.723636 67.714607 
L 250.887273 67.701743 
L 251.050909 67.44192 
L 251.378182 67.653831 
L 251.541818 67.512172 
L 251.869091 66.580799 
L 252.032727 66.809117 
L 252.196364 66.786855 
L 252.850909 66.33384 
L 253.014545 66.231852 
L 253.341818 66.594896 
L 253.996364 65.99637 
L 254.16 65.573628 
L 254.323636 65.653894 
L 254.487273 65.040579 
L 254.650909 64.883745 
L 255.141818 65.119997 
L 255.305455 65.706428 
L 255.469091 65.763431 
L 255.632727 66.207741 
L 255.796364 66.26744 
L 256.123636 66.022098 
L 256.450909 66.714524 
L 256.941818 66.259352 
L 257.596364 67.138652 
L 257.76 67.068709 
L 258.250909 65.778298 
L 258.414545 65.905937 
L 258.741818 66.739866 
L 259.069091 66.626324 
L 259.396364 66.62124 
L 259.56 66.766134 
L 259.723636 66.533888 
L 260.378182 67.638116 
L 260.541818 66.939837 
L 260.705455 67.248266 
L 261.032727 67.051608 
L 261.196364 66.465716 
L 261.36 66.385681 
L 261.523636 66.678859 
L 262.014545 66.629713 
L 262.178182 67.033275 
L 262.996364 67.495071 
L 263.487273 66.76598 
L 263.650909 66.958016 
L 263.814545 66.867506 
L 263.978182 66.957939 
L 264.141818 66.875979 
L 264.469091 66.530652 
L 264.632727 66.657213 
L 264.796364 66.369428 
L 264.96 66.350787 
L 265.123636 66.124087 
L 265.450909 66.7971 
L 265.778182 66.250031 
L 265.941818 66.19534 
L 266.105455 65.892688 
L 266.269091 66.05422 
L 266.432727 65.950229 
L 266.596364 66.596205 
L 266.76 66.391073 
L 267.087273 65.655126 
L 267.578182 65.762661 
L 268.069091 65.653432 
L 268.723636 65.184626 
L 268.887273 65.795398 
L 269.214545 66.027722 
L 269.705455 66.569553 
L 270.36 65.833297 
L 270.687273 66.211362 
L 270.850909 65.832527 
L 271.014545 65.750721 
L 271.341818 65.150193 
L 271.505455 65.037729 
L 271.669091 65.363336 
L 271.996364 65.012386 
L 272.16 64.623075 
L 272.487273 64.611751 
L 272.650909 64.710812 
L 272.814545 64.259723 
L 272.978182 64.747248 
L 273.141818 64.786687 
L 273.796364 64.500058 
L 274.123636 63.959998 
L 274.287273 63.992736 
L 274.450909 64.235459 
L 274.614545 64.184079 
L 274.778182 64.325584 
L 274.941818 64.31634 
L 275.105455 63.82119 
L 275.596364 64.455688 
L 275.76 64.623306 
L 275.923636 64.465702 
L 276.087273 64.847002 
L 276.250909 64.870034 
L 276.414545 64.623999 
L 276.578182 64.599118 
L 277.069091 63.690547 
L 277.232727 63.471627 
L 277.56 63.810021 
L 277.723636 63.784909 
L 277.887273 63.617137 
L 278.050909 63.244233 
L 278.214545 63.257791 
L 278.541818 63.9999 
L 278.705455 63.489575 
L 278.869091 63.348455 
L 279.196364 62.820721 
L 279.523636 63.797311 
L 279.687273 63.765343 
L 280.014545 64.793851 
L 280.178182 64.431655 
L 280.341818 64.483804 
L 280.505455 63.905538 
L 280.669091 64.02817 
L 280.832727 63.641555 
L 281.487273 63.755791 
L 281.650909 63.640554 
L 281.978182 63.106272 
L 282.632727 63.721821 
L 282.96 63.599112 
L 283.287273 62.730441 
L 283.450909 62.956987 
L 283.614545 62.856078 
L 283.778182 62.390892 
L 283.941818 62.428406 
L 284.105455 62.950748 
L 284.432727 63.012911 
L 284.76 64.007218 
L 284.923636 63.749167 
L 285.250909 64.222518 
L 285.414545 63.848844 
L 285.578182 64.010684 
L 285.741818 63.801547 
L 286.069091 63.074844 
L 286.232727 63.045418 
L 286.396364 63.16235 
L 286.56 63.679916 
L 287.050909 63.97086 
L 287.214545 63.996973 
L 287.378182 63.906154 
L 287.869091 64.196558 
L 288.032727 64.046503 
L 288.36 63.310248 
L 288.523636 63.080005 
L 289.014545 63.373721 
L 289.178182 63.344989 
L 289.341818 63.180991 
L 289.505455 62.381186 
L 289.832727 62.581619 
L 290.16 62.48094 
L 290.814545 63.055586 
L 291.141818 63.045957 
L 291.632727 63.041567 
L 291.796364 62.602879 
L 291.96 62.728208 
L 292.123636 62.42933 
L 292.450909 63.157574 
L 292.614545 62.624217 
L 292.941818 62.700014 
L 293.269091 62.483251 
L 293.596364 62.636387 
L 293.923636 62.740224 
L 294.087273 62.367244 
L 294.414545 62.287826 
L 294.741818 62.598874 
L 294.905455 62.302769 
L 295.069091 61.7386 
L 295.56 62.10018 
L 295.723636 61.97724 
L 296.050909 61.319709 
L 296.378182 61.391193 
L 296.541818 60.814237 
L 296.705455 61.094935 
L 296.869091 61.070824 
L 297.032727 61.365234 
L 297.196364 61.208015 
L 297.523636 61.645624 
L 298.014545 61.603951 
L 298.341818 62.469694 
L 299.16 61.585001 
L 299.487273 61.784972 
L 299.814545 62.132301 
L 299.978182 61.963913 
L 300.305455 62.081924 
L 300.632727 61.229815 
L 300.96 61.709636 
L 301.123636 61.150089 
L 301.287273 61.327181 
L 301.450909 61.30515 
L 301.614545 61.062813 
L 301.941818 61.142386 
L 302.105455 60.824482 
L 302.76 61.009816 
L 302.923636 60.967912 
L 303.087273 60.61519 
L 303.250909 60.635372 
L 303.741818 60.383637 
L 303.905455 60.347818 
L 304.069091 60.51767 
L 304.232727 60.511662 
L 304.56 60.847899 
L 305.050909 61.294443 
L 305.214545 61.245144 
L 305.541818 60.679203 
L 305.705455 60.608489 
L 306.032727 60.663565 
L 306.196364 60.574904 
L 306.36 60.618118 
L 307.505455 59.95897 
L 307.669091 59.883326 
L 307.832727 60.063038 
L 307.996364 59.840189 
L 308.16 60.024753 
L 308.487273 59.967674 
L 308.650909 60.087148 
L 308.814545 59.440864 
L 308.978182 59.258148 
L 309.141818 59.683278 
L 309.469091 59.344037 
L 309.632727 59.479687 
L 310.123636 59.274633 
L 310.450909 58.874538 
L 310.614545 59.135054 
L 310.941818 59.213317 
L 311.269091 58.655541 
L 311.923636 58.797199 
L 312.087273 58.702221 
L 312.250909 58.892178 
L 312.414545 58.594995 
L 312.578182 58.636822 
L 312.905455 58.254752 
L 313.069091 58.403729 
L 314.050909 57.377917 
L 314.214545 57.579351 
L 314.378182 57.601921 
L 314.541818 58.024663 
L 314.869091 57.296419 
L 315.032727 57.449247 
L 316.014545 57.151063 
L 316.341818 56.762676 
L 316.669091 56.800267 
L 316.832727 56.75297 
L 317.16 57.19782 
L 317.487273 56.276076 
L 317.650909 56.347945 
L 317.814545 55.78624 
L 318.141818 55.920812 
L 318.469091 55.501999 
L 318.632727 55.859188 
L 318.96 55.787319 
L 319.123636 55.88792 
L 319.287273 55.802186 
L 319.450909 56.173086 
L 319.614545 55.996995 
L 320.105455 56.011939 
L 320.432727 56.036358 
L 320.76 56.102142 
L 320.923636 56.215068 
L 321.250909 55.985056 
L 321.414545 55.704742 
L 321.578182 55.677936 
L 321.905455 56.149669 
L 322.069091 56.408876 
L 322.232727 56.340242 
L 322.56 56.521956 
L 322.723636 56.313204 
L 323.378182 56.878067 
L 323.869091 56.872136 
L 324.032727 56.575492 
L 324.196364 56.685954 
L 324.687273 56.530199 
L 324.850909 56.668699 
L 325.178182 56.544218 
L 325.505455 57.139585 
L 325.669091 56.972738 
L 325.996364 57.363666 
L 326.16 57.269612 
L 326.487273 57.857584 
L 326.978182 58.042457 
L 327.305455 58.660394 
L 327.469091 58.564183 
L 327.632727 58.602929 
L 327.796364 58.776786 
L 328.123636 58.240656 
L 328.287273 58.136049 
L 328.450909 58.217855 
L 328.614545 58.162932 
L 328.941818 58.854818 
L 329.269091 58.37569 
L 329.432727 58.044614 
L 329.596364 58.009565 
L 329.76 58.209458 
L 329.923636 58.661626 
L 330.087273 58.457804 
L 330.414545 59.096847 
L 330.905455 58.902191 
L 331.069091 58.330627 
L 331.396364 58.397335 
L 331.56 58.22317 
L 332.050909 58.295809 
L 332.869091 59.465129 
L 333.032727 59.46975 
L 333.36 59.728572 
L 333.523636 59.674574 
L 333.850909 60.154472 
L 334.014545 60.786737 
L 334.178182 60.911372 
L 334.669091 60.840889 
L 334.832727 61.062813 
L 334.996364 60.912835 
L 335.16 60.602095 
L 335.323636 60.626129 
L 335.814545 61.141307 
L 335.978182 61.079606 
L 336.141818 61.142309 
L 336.305455 61.030152 
L 336.632727 61.126286 
L 336.796364 61.155404 
L 337.287273 61.62575 
L 337.450909 61.107953 
L 337.614545 61.201776 
L 338.105455 61.914229 
L 338.432727 61.903522 
L 338.596364 61.717185 
L 338.923636 62.018528 
L 339.087273 61.947198 
L 339.250909 62.079151 
L 339.414545 61.972849 
L 339.741818 62.807549 
L 339.905455 62.602263 
L 340.069091 62.745385 
L 340.232727 62.52531 
L 340.396364 62.675211 
L 340.723636 62.394204 
L 341.050909 62.573839 
L 341.214545 62.486333 
L 341.541818 62.128065 
L 341.705455 62.335738 
L 342.196364 61.510744 
L 342.687273 61.717879 
L 343.014545 61.367853 
L 343.341818 61.537089 
L 343.505455 61.511283 
L 343.669091 61.076987 
L 344.16 60.903592 
L 344.323636 60.914684 
L 344.650909 61.809622 
L 344.814545 61.676282 
L 345.141818 61.884572 
L 345.469091 61.050488 
L 345.632727 61.683908 
L 345.96 61.920776 
L 346.123636 61.793907 
L 346.450909 61.095012 
L 346.614545 61.433406 
L 346.941818 60.885875 
L 347.432727 61.321327 
L 347.596364 61.312314 
L 347.76 60.930398 
L 347.923636 60.896967 
L 348.087273 61.275263 
L 348.250909 61.223421 
L 348.414545 61.639077 
L 348.905455 61.29506 
L 349.232727 60.645309 
L 349.396364 60.627515 
L 350.050909 60.02537 
L 350.214545 59.457349 
L 350.378182 59.34527 
L 350.541818 58.842262 
L 351.032727 59.604707 
L 351.196364 59.444716 
L 351.523636 59.828095 
L 351.687273 60.339422 
L 352.014545 60.170649 
L 352.341818 59.761926 
L 352.669091 59.287959 
L 353.16 59.794279 
L 353.650909 59.198758 
L 353.978182 59.951883 
L 354.141818 60.04948 
L 354.632727 59.805063 
L 354.796364 59.965363 
L 354.96 59.691212 
L 355.287273 59.518125 
L 355.450909 59.15254 
L 355.614545 59.215936 
L 355.778182 59.085832 
L 355.941818 59.197371 
L 356.269091 58.182421 
L 356.596364 57.894174 
L 356.76 58.052856 
L 356.923636 57.882619 
L 357.087273 58.087211 
L 358.069091 57.626185 
L 358.232727 58.173716 
L 358.396364 58.16894 
L 358.723636 58.411817 
L 358.887273 58.054628 
L 359.050909 57.978753 
L 359.705455 58.335865 
L 359.869091 58.171559 
L 360.196364 58.347651 
L 360.36 58.296426 
L 360.687273 58.583517 
L 360.850909 58.437853 
L 361.178182 57.879923 
L 361.341818 58.177106 
L 361.669091 57.778936 
L 361.832727 57.744427 
L 361.996364 57.915126 
L 362.323636 57.54253 
L 362.814545 58.220782 
L 362.978182 58.297581 
L 363.141818 58.743971 
L 363.305455 58.415206 
L 363.469091 58.609862 
L 363.796364 58.36791 
L 363.96 58.15261 
L 364.450909 58.865063 
L 364.614545 58.491158 
L 364.778182 58.83687 
L 364.941818 58.410199 
L 365.105455 58.975447 
L 365.269091 58.989467 
L 365.432727 58.847423 
L 365.76 59.020279 
L 366.087273 59.013654 
L 366.414545 59.385248 
L 366.578182 59.334408 
L 366.741818 59.642375 
L 367.232727 58.748978 
L 367.396364 59.154235 
L 367.56 59.05579 
L 367.723636 59.210929 
L 367.887273 58.752368 
L 368.050909 58.926071 
L 368.214545 58.520969 
L 368.378182 58.772396 
L 368.541818 58.800512 
L 368.705455 58.609708 
L 369.196364 58.910588 
L 369.523636 58.331166 
L 370.669091 57.211069 
L 370.832727 56.965805 
L 370.996364 57.012177 
L 371.16 56.855729 
L 371.323636 56.364044 
L 371.650909 56.199893 
L 371.814545 56.320753 
L 372.141818 56.057849 
L 372.305455 56.189725 
L 372.469091 56.007702 
L 372.796364 56.403946 
L 373.123636 56.507167 
L 373.287273 56.690576 
L 373.614545 56.566711 
L 373.778182 57.013564 
L 373.941818 56.812823 
L 374.596364 57.707298 
L 374.76 57.024887 
L 374.923636 57.196125 
L 375.250909 57.103458 
L 375.578182 57.538602 
L 376.232727 57.529435 
L 376.396364 57.641283 
L 376.56 57.59468 
L 377.378182 58.313834 
L 377.541818 58.800897 
L 377.869091 58.277014 
L 378.032727 58.061098 
L 378.36 58.354969 
L 378.523636 57.977751 
L 379.014545 57.767151 
L 379.341818 57.51765 
L 379.505455 57.488224 
L 379.669091 57.180103 
L 380.323636 57.44709 
L 380.487273 57.28109 
L 380.650909 57.329542 
L 380.814545 57.569491 
L 380.978182 57.487454 
L 381.141818 57.687501 
L 381.469091 57.582663 
L 381.796364 57.096217 
L 382.614545 57.626108 
L 382.778182 57.501473 
L 382.941818 57.551235 
L 383.269091 57.282861 
L 383.76 57.623027 
L 383.923636 57.179333 
L 384.087273 57.079347 
L 384.250909 56.775309 
L 384.414545 56.95764 
L 385.069091 56.239178 
L 385.232727 56.626872 
L 385.396364 56.652523 
L 385.723636 56.264059 
L 386.050909 56.514639 
L 386.214545 56.47258 
L 386.378182 56.613777 
L 386.541818 56.529505 
L 386.705455 56.717459 
L 386.869091 56.298029 
L 387.032727 56.331152 
L 387.36 56.65052 
L 387.687273 56.445003 
L 388.505455 57.48884 
L 388.669091 57.821534 
L 388.832727 57.874377 
L 388.996364 58.121644 
L 389.323636 57.534673 
L 389.487273 57.680029 
L 389.650909 58.097071 
L 389.814545 57.796114 
L 389.978182 57.987765 
L 390.141818 57.929145 
L 390.305455 57.540142 
L 390.469091 57.929145 
L 390.632727 57.753747 
L 390.96 57.7197 
L 391.287273 57.144361 
L 391.450909 56.900406 
L 391.778182 56.933991 
L 392.269091 56.01348 
L 392.432727 56.105454 
L 392.596364 56.067632 
L 392.76 55.491831 
L 393.250909 54.969026 
L 393.578182 54.384444 
L 393.741818 54.08495 
L 393.905455 54.385522 
L 394.069091 53.903313 
L 394.723636 54.117303 
L 394.887273 53.851779 
L 395.050909 54.102359 
L 395.214545 53.982808 
L 395.541818 54.490514 
L 395.705455 54.467559 
L 395.869091 54.710359 
L 396.032727 54.582566 
L 396.36 54.710513 
L 396.523636 54.503455 
L 396.687273 54.803951 
L 396.850909 54.728692 
L 397.014545 55.002303 
L 397.341818 54.326979 
L 397.505455 54.47765 
L 398.487273 53.568 
L 398.487273 53.568 
" clip-path="url(#pcbaa4e215d)" style="fill: none; stroke: #ff7f0e; stroke-width: 1.5; stroke-linecap: square"/>
   </g>
   <g id="patch_3">
    <path d="M 57.6 307.584 
L 57.6 41.472 
" style="fill: none; stroke: #000000; stroke-width: 0.8; stroke-linejoin: miter; stroke-linecap: square"/>
   </g>
   <g id="patch_4">
    <path d="M 414.72 307.584 
L 414.72 41.472 
" style="fill: none; stroke: #000000; stroke-width: 0.8; stroke-linejoin: miter; stroke-linecap: square"/>
   </g>
   <g id="patch_5">
    <path d="M 57.6 307.584 
L 414.72 307.584 
" style="fill: none; stroke: #000000; stroke-width: 0.8; stroke-linejoin: miter; stroke-linecap: square"/>
   </g>
   <g id="patch_6">
    <path d="M 57.6 41.472 
L 414.72 41.472 
" style="fill: none; stroke: #000000; stroke-width: 0.8; stroke-linejoin: miter; stroke-linecap: square"/>
   </g>
   <g id="text_18">
    <!-- Rolling average training progress of profits/all -->
    <g transform="translate(98.855625 35.472)scale(0.12 -0.12)">
     <defs>
      <path id="DejaVuSans-52" d="M 2841 2188 
Q 3044 2119 3236 1894 
Q 3428 1669 3622 1275 
L 4263 0 
L 3584 0 
L 2988 1197 
Q 2756 1666 2539 1819 
Q 2322 1972 1947 1972 
L 1259 1972 
L 1259 0 
L 628 0 
L 628 4666 
L 2053 4666 
Q 2853 4666 3247 4331 
Q 3641 3997 3641 3322 
Q 3641 2881 3436 2590 
Q 3231 2300 2841 2188 
z
M 1259 4147 
L 1259 2491 
L 2053 2491 
Q 2509 2491 2742 2702 
Q 2975 2913 2975 3322 
Q 2975 3731 2742 3939 
Q 2509 4147 2053 4147 
L 1259 4147 
z
" transform="scale(0.015625)"/>
      <path id="DejaVuSans-6e" d="M 3513 2113 
L 3513 0 
L 2938 0 
L 2938 2094 
Q 2938 2591 2744 2837 
Q 2550 3084 2163 3084 
Q 1697 3084 1428 2787 
Q 1159 2491 1159 1978 
L 1159 0 
L 581 0 
L 581 3500 
L 1159 3500 
L 1159 2956 
Q 1366 3272 1645 3428 
Q 1925 3584 2291 3584 
Q 2894 3584 3203 3211 
Q 3513 2838 3513 2113 
z
" transform="scale(0.015625)"/>
      <path id="DejaVuSans-67" d="M 2906 1791 
Q 2906 2416 2648 2759 
Q 2391 3103 1925 3103 
Q 1463 3103 1205 2759 
Q 947 2416 947 1791 
Q 947 1169 1205 825 
Q 1463 481 1925 481 
Q 2391 481 2648 825 
Q 2906 1169 2906 1791 
z
M 3481 434 
Q 3481 -459 3084 -895 
Q 2688 -1331 1869 -1331 
Q 1566 -1331 1297 -1286 
Q 1028 -1241 775 -1147 
L 775 -588 
Q 1028 -725 1275 -790 
Q 1522 -856 1778 -856 
Q 2344 -856 2625 -561 
Q 2906 -266 2906 331 
L 2906 616 
Q 2728 306 2450 153 
Q 2172 0 1784 0 
Q 1141 0 747 490 
Q 353 981 353 1791 
Q 353 2603 747 3093 
Q 1141 3584 1784 3584 
Q 2172 3584 2450 3431 
Q 2728 3278 2906 2969 
L 2906 3500 
L 3481 3500 
L 3481 434 
z
" transform="scale(0.015625)"/>
      <path id="DejaVuSans-20" transform="scale(0.015625)"/>
      <path id="DejaVuSans-76" d="M 191 3500 
L 800 3500 
L 1894 563 
L 2988 3500 
L 3597 3500 
L 2284 0 
L 1503 0 
L 191 3500 
z
" transform="scale(0.015625)"/>
     </defs>
     <use xlink:href="#DejaVuSans-52"/>
     <use xlink:href="#DejaVuSans-6f" x="64.982422"/>
     <use xlink:href="#DejaVuSans-6c" x="126.164062"/>
     <use xlink:href="#DejaVuSans-6c" x="153.947266"/>
     <use xlink:href="#DejaVuSans-69" x="181.730469"/>
     <use xlink:href="#DejaVuSans-6e" x="209.513672"/>
     <use xlink:href="#DejaVuSans-67" x="272.892578"/>
     <use xlink:href="#DejaVuSans-20" x="336.369141"/>
     <use xlink:href="#DejaVuSans-61" x="368.15625"/>
     <use xlink:href="#DejaVuSans-76" x="429.435547"/>
     <use xlink:href="#DejaVuSans-65" x="488.615234"/>
     <use xlink:href="#DejaVuSans-72" x="550.138672"/>
     <use xlink:href="#DejaVuSans-61" x="591.251953"/>
     <use xlink:href="#DejaVuSans-67" x="652.53125"/>
     <use xlink:href="#DejaVuSans-65" x="716.007812"/>
     <use xlink:href="#DejaVuSans-20" x="777.53125"/>
     <use xlink:href="#DejaVuSans-74" x="809.318359"/>
     <use xlink:href="#DejaVuSans-72" x="848.527344"/>
     <use xlink:href="#DejaVuSans-61" x="889.640625"/>
     <use xlink:href="#DejaVuSans-69" x="950.919922"/>
     <use xlink:href="#DejaVuSans-6e" x="978.703125"/>
     <use xlink:href="#DejaVuSans-69" x="1042.082031"/>
     <use xlink:href="#DejaVuSans-6e" x="1069.865234"/>
     <use xlink:href="#DejaVuSans-67" x="1133.244141"/>
     <use xlink:href="#DejaVuSans-20" x="1196.720703"/>
     <use xlink:href="#DejaVuSans-70" x="1228.507812"/>
     <use xlink:href="#DejaVuSans-72" x="1291.984375"/>
     <use xlink:href="#DejaVuSans-6f" x="1330.847656"/>
     <use xlink:href="#DejaVuSans-67" x="1392.029297"/>
     <use xlink:href="#DejaVuSans-72" x="1455.505859"/>
     <use xlink:href="#DejaVuSans-65" x="1494.369141"/>
     <use xlink:href="#DejaVuSans-73" x="1555.892578"/>
     <use xlink:href="#DejaVuSans-73" x="1607.992188"/>
     <use xlink:href="#DejaVuSans-20" x="1660.091797"/>
     <use xlink:href="#DejaVuSans-6f" x="1691.878906"/>
     <use xlink:href="#DejaVuSans-66" x="1753.060547"/>
     <use xlink:href="#DejaVuSans-20" x="1788.265625"/>
     <use xlink:href="#DejaVuSans-70" x="1820.052734"/>
     <use xlink:href="#DejaVuSans-72" x="1883.529297"/>
     <use xlink:href="#DejaVuSans-6f" x="1922.392578"/>
     <use xlink:href="#DejaVuSans-66" x="1983.574219"/>
     <use xlink:href="#DejaVuSans-69" x="2018.779297"/>
     <use xlink:href="#DejaVuSans-74" x="2046.5625"/>
     <use xlink:href="#DejaVuSans-73" x="2085.771484"/>
     <use xlink:href="#DejaVuSans-2f" x="2137.871094"/>
     <use xlink:href="#DejaVuSans-61" x="2171.5625"/>
     <use xlink:href="#DejaVuSans-6c" x="2232.841797"/>
     <use xlink:href="#DejaVuSans-6c" x="2260.625"/>
    </g>
   </g>
   <g id="legend_1">
    <g id="patch_7">
     <path d="M 276.25125 302.584 
L 407.72 302.584 
Q 409.72 302.584 409.72 300.584 
L 409.72 272.22775 
Q 409.72 270.22775 407.72 270.22775 
L 276.25125 270.22775 
Q 274.25125 270.22775 274.25125 272.22775 
L 274.25125 300.584 
Q 274.25125 302.584 276.25125 302.584 
z
" style="fill: #ffffff; opacity: 0.8; stroke: #cccccc; stroke-linejoin: miter"/>
    </g>
    <g id="line2d_18">
     <path d="M 278.25125 278.326187 
L 288.25125 278.326187 
L 298.25125 278.326187 
" style="fill: none; stroke: #1f77b4; stroke-width: 1.5; stroke-linecap: square"/>
    </g>
    <g id="text_19">
     <!-- StableBaselinesSAC -->
     <g transform="translate(306.25125 281.826187)scale(0.1 -0.1)">
      <defs>
       <path id="DejaVuSans-53" d="M 3425 4513 
L 3425 3897 
Q 3066 4069 2747 4153 
Q 2428 4238 2131 4238 
Q 1616 4238 1336 4038 
Q 1056 3838 1056 3469 
Q 1056 3159 1242 3001 
Q 1428 2844 1947 2747 
L 2328 2669 
Q 3034 2534 3370 2195 
Q 3706 1856 3706 1288 
Q 3706 609 3251 259 
Q 2797 -91 1919 -91 
Q 1588 -91 1214 -16 
Q 841 59 441 206 
L 441 856 
Q 825 641 1194 531 
Q 1563 422 1919 422 
Q 2459 422 2753 634 
Q 3047 847 3047 1241 
Q 3047 1584 2836 1778 
Q 2625 1972 2144 2069 
L 1759 2144 
Q 1053 2284 737 2584 
Q 422 2884 422 3419 
Q 422 4038 858 4394 
Q 1294 4750 2059 4750 
Q 2388 4750 2728 4690 
Q 3069 4631 3425 4513 
z
" transform="scale(0.015625)"/>
       <path id="DejaVuSans-62" d="M 3116 1747 
Q 3116 2381 2855 2742 
Q 2594 3103 2138 3103 
Q 1681 3103 1420 2742 
Q 1159 2381 1159 1747 
Q 1159 1113 1420 752 
Q 1681 391 2138 391 
Q 2594 391 2855 752 
Q 3116 1113 3116 1747 
z
M 1159 2969 
Q 1341 3281 1617 3432 
Q 1894 3584 2278 3584 
Q 2916 3584 3314 3078 
Q 3713 2572 3713 1747 
Q 3713 922 3314 415 
Q 2916 -91 2278 -91 
Q 1894 -91 1617 61 
Q 1341 213 1159 525 
L 1159 0 
L 581 0 
L 581 4863 
L 1159 4863 
L 1159 2969 
z
" transform="scale(0.015625)"/>
       <path id="DejaVuSans-42" d="M 1259 2228 
L 1259 519 
L 2272 519 
Q 2781 519 3026 730 
Q 3272 941 3272 1375 
Q 3272 1813 3026 2020 
Q 2781 2228 2272 2228 
L 1259 2228 
z
M 1259 4147 
L 1259 2741 
L 2194 2741 
Q 2656 2741 2882 2914 
Q 3109 3088 3109 3444 
Q 3109 3797 2882 3972 
Q 2656 4147 2194 4147 
L 1259 4147 
z
M 628 4666 
L 2241 4666 
Q 2963 4666 3353 4366 
Q 3744 4066 3744 3513 
Q 3744 3084 3544 2831 
Q 3344 2578 2956 2516 
Q 3422 2416 3680 2098 
Q 3938 1781 3938 1306 
Q 3938 681 3513 340 
Q 3088 0 2303 0 
L 628 0 
L 628 4666 
z
" transform="scale(0.015625)"/>
       <path id="DejaVuSans-41" d="M 2188 4044 
L 1331 1722 
L 3047 1722 
L 2188 4044 
z
M 1831 4666 
L 2547 4666 
L 4325 0 
L 3669 0 
L 3244 1197 
L 1141 1197 
L 716 0 
L 50 0 
L 1831 4666 
z
" transform="scale(0.015625)"/>
       <path id="DejaVuSans-43" d="M 4122 4306 
L 4122 3641 
Q 3803 3938 3442 4084 
Q 3081 4231 2675 4231 
Q 1875 4231 1450 3742 
Q 1025 3253 1025 2328 
Q 1025 1406 1450 917 
Q 1875 428 2675 428 
Q 3081 428 3442 575 
Q 3803 722 4122 1019 
L 4122 359 
Q 3791 134 3420 21 
Q 3050 -91 2638 -91 
Q 1578 -91 968 557 
Q 359 1206 359 2328 
Q 359 3453 968 4101 
Q 1578 4750 2638 4750 
Q 3056 4750 3426 4639 
Q 3797 4528 4122 4306 
z
" transform="scale(0.015625)"/>
      </defs>
      <use xlink:href="#DejaVuSans-53"/>
      <use xlink:href="#DejaVuSans-74" x="63.476562"/>
      <use xlink:href="#DejaVuSans-61" x="102.685547"/>
      <use xlink:href="#DejaVuSans-62" x="163.964844"/>
      <use xlink:href="#DejaVuSans-6c" x="227.441406"/>
      <use xlink:href="#DejaVuSans-65" x="255.224609"/>
      <use xlink:href="#DejaVuSans-42" x="316.748047"/>
      <use xlink:href="#DejaVuSans-61" x="385.351562"/>
      <use xlink:href="#DejaVuSans-73" x="446.630859"/>
      <use xlink:href="#DejaVuSans-65" x="498.730469"/>
      <use xlink:href="#DejaVuSans-6c" x="560.253906"/>
      <use xlink:href="#DejaVuSans-69" x="588.037109"/>
      <use xlink:href="#DejaVuSans-6e" x="615.820312"/>
      <use xlink:href="#DejaVuSans-65" x="679.199219"/>
      <use xlink:href="#DejaVuSans-73" x="740.722656"/>
      <use xlink:href="#DejaVuSans-53" x="792.822266"/>
      <use xlink:href="#DejaVuSans-41" x="858.173828"/>
      <use xlink:href="#DejaVuSans-43" x="924.832031"/>
     </g>
    </g>
    <g id="line2d_19">
     <path d="M 278.25125 293.004312 
L 288.25125 293.004312 
L 298.25125 293.004312 
" style="fill: none; stroke: #ff7f0e; stroke-width: 1.5; stroke-linecap: square"/>
    </g>
    <g id="text_20">
     <!-- Storage-Minimizer -->
     <g transform="translate(306.25125 296.504312)scale(0.1 -0.1)">
      <defs>
       <path id="DejaVuSans-2d" d="M 313 2009 
L 1997 2009 
L 1997 1497 
L 313 1497 
L 313 2009 
z
" transform="scale(0.015625)"/>
       <path id="DejaVuSans-4d" d="M 628 4666 
L 1569 4666 
L 2759 1491 
L 3956 4666 
L 4897 4666 
L 4897 0 
L 4281 0 
L 4281 4097 
L 3078 897 
L 2444 897 
L 1241 4097 
L 1241 0 
L 628 0 
L 628 4666 
z
" transform="scale(0.015625)"/>
       <path id="DejaVuSans-6d" d="M 3328 2828 
Q 3544 3216 3844 3400 
Q 4144 3584 4550 3584 
Q 5097 3584 5394 3201 
Q 5691 2819 5691 2113 
L 5691 0 
L 5113 0 
L 5113 2094 
Q 5113 2597 4934 2840 
Q 4756 3084 4391 3084 
Q 3944 3084 3684 2787 
Q 3425 2491 3425 1978 
L 3425 0 
L 2847 0 
L 2847 2094 
Q 2847 2600 2669 2842 
Q 2491 3084 2119 3084 
Q 1678 3084 1418 2786 
Q 1159 2488 1159 1978 
L 1159 0 
L 581 0 
L 581 3500 
L 1159 3500 
L 1159 2956 
Q 1356 3278 1631 3431 
Q 1906 3584 2284 3584 
Q 2666 3584 2933 3390 
Q 3200 3197 3328 2828 
z
" transform="scale(0.015625)"/>
       <path id="DejaVuSans-7a" d="M 353 3500 
L 3084 3500 
L 3084 2975 
L 922 459 
L 3084 459 
L 3084 0 
L 275 0 
L 275 525 
L 2438 3041 
L 353 3041 
L 353 3500 
z
" transform="scale(0.015625)"/>
      </defs>
      <use xlink:href="#DejaVuSans-53"/>
      <use xlink:href="#DejaVuSans-74" x="63.476562"/>
      <use xlink:href="#DejaVuSans-6f" x="102.685547"/>
      <use xlink:href="#DejaVuSans-72" x="163.867188"/>
      <use xlink:href="#DejaVuSans-61" x="204.980469"/>
      <use xlink:href="#DejaVuSans-67" x="266.259766"/>
      <use xlink:href="#DejaVuSans-65" x="329.736328"/>
      <use xlink:href="#DejaVuSans-2d" x="391.259766"/>
      <use xlink:href="#DejaVuSans-4d" x="427.34375"/>
      <use xlink:href="#DejaVuSans-69" x="513.623047"/>
      <use xlink:href="#DejaVuSans-6e" x="541.40625"/>
      <use xlink:href="#DejaVuSans-69" x="604.785156"/>
      <use xlink:href="#DejaVuSans-6d" x="632.568359"/>
      <use xlink:href="#DejaVuSans-69" x="729.980469"/>
      <use xlink:href="#DejaVuSans-7a" x="757.763672"/>
      <use xlink:href="#DejaVuSans-65" x="810.253906"/>
      <use xlink:href="#DejaVuSans-72" x="871.777344"/>
     </g>
    </g>
   </g>
  </g>
 </g>
 <defs>
  <clipPath id="pcbaa4e215d">
   <rect x="57.6" y="41.472" width="357.12" height="266.112"/>
  </clipPath>
 </defs>
</svg>
