<?xml version="1.0" encoding="utf-8" standalone="no"?>
<!DOCTYPE svg PUBLIC "-//W3C//DTD SVG 1.1//EN"
  "http://www.w3.org/Graphics/SVG/1.1/DTD/svg11.dtd">
<svg xmlns:xlink="http://www.w3.org/1999/xlink" width="460.8pt" height="345.6pt" viewBox="0 0 460.8 345.6" xmlns="http://www.w3.org/2000/svg" version="1.1">
 <metadata>
  <rdf:RDF xmlns:dc="http://purl.org/dc/elements/1.1/" xmlns:cc="http://creativecommons.org/ns#" xmlns:rdf="http://www.w3.org/1999/02/22-rdf-syntax-ns#">
   <cc:Work>
    <dc:type rdf:resource="http://purl.org/dc/dcmitype/StillImage"/>
    <dc:date>2022-06-16T13:18:29.176136</dc:date>
    <dc:format>image/svg+xml</dc:format>
    <dc:creator>
     <cc:Agent>
      <dc:title>Matplotlib v3.5.2, https://matplotlib.org/</dc:title>
     </cc:Agent>
    </dc:creator>
   </cc:Work>
  </rdf:RDF>
 </metadata>
 <defs>
  <style type="text/css">*{stroke-linejoin: round; stroke-linecap: butt}</style>
 </defs>
 <g id="figure_1">
  <g id="patch_1">
   <path d="M 0 345.6 
L 460.8 345.6 
L 460.8 0 
L 0 0 
z
" style="fill: #ffffff"/>
  </g>
  <g id="axes_1">
   <g id="patch_2">
    <path d="M 57.6 307.584 
L 414.72 307.584 
L 414.72 41.472 
L 57.6 41.472 
z
" style="fill: #ffffff"/>
   </g>
   <g id="PolyCollection_1">
    <path d="M 87.022497 295.488 
L 85.20079 295.488 
L 85.080669 293.290781 
L 84.955568 291.093561 
L 84.825999 288.896342 
L 84.692207 286.699123 
L 84.554119 284.501904 
L 84.411335 282.304684 
L 84.263141 280.107465 
L 84.108547 277.910246 
L 83.946361 275.713027 
L 83.775268 273.515807 
L 83.59393 271.318588 
L 83.401079 269.121369 
L 83.195616 266.92415 
L 82.976686 264.72693 
L 82.743744 262.529711 
L 82.496592 260.332492 
L 82.235391 258.135273 
L 81.960654 255.938053 
L 81.673208 253.740834 
L 81.374142 251.543615 
L 81.064746 249.346396 
L 80.746449 247.149176 
L 80.420751 244.951957 
L 80.089182 242.754738 
L 79.753264 240.557519 
L 79.414492 238.360299 
L 79.074327 236.16308 
L 78.734201 233.965861 
L 78.395515 231.768642 
L 78.059644 229.571422 
L 77.727935 227.374203 
L 77.401701 225.176984 
L 77.082224 222.979765 
L 76.770756 220.782545 
L 76.468542 218.585326 
L 76.176844 216.388107 
L 75.89697 214.190888 
L 75.630298 211.993668 
L 75.37828 209.796449 
L 75.142405 207.59923 
L 74.924139 205.402011 
L 74.724828 203.204791 
L 74.545582 201.007572 
L 74.387174 198.810353 
L 74.249954 196.613134 
L 74.133825 194.415914 
L 74.038262 192.218695 
L 73.96239 190.021476 
L 73.905095 187.824257 
L 73.865161 185.627037 
L 73.841394 183.429818 
L 73.832727 181.232599 
L 73.838302 179.03538 
L 73.857519 176.83816 
L 73.890077 174.640941 
L 73.936006 172.443722 
L 73.995708 170.246503 
L 74.069996 168.049283 
L 74.160131 165.852064 
L 74.26783 163.654845 
L 74.395228 161.457626 
L 74.54478 159.260406 
L 74.719076 157.063187 
L 74.920602 154.865968 
L 75.151441 152.668749 
L 75.412957 150.471529 
L 75.705516 148.27431 
L 76.028259 146.077091 
L 76.378994 143.879872 
L 76.754216 141.682652 
L 77.149269 139.485433 
L 77.558637 137.288214 
L 77.976334 135.090995 
L 78.396353 132.893775 
L 78.813097 130.696556 
L 79.221762 128.499337 
L 79.618604 126.302118 
L 80.001062 124.104898 
L 80.367726 121.907679 
L 80.718171 119.71046 
L 81.052687 117.513241 
L 81.371965 115.316021 
L 81.676788 113.118802 
L 81.967796 110.921583 
L 82.245347 108.724364 
L 82.509492 106.527144 
L 82.760065 104.329925 
L 82.996839 102.132706 
L 83.219722 99.935487 
L 83.428927 97.738267 
L 83.625092 95.541048 
L 83.809305 93.343829 
L 83.983044 91.14661 
L 84.148033 88.94939 
L 84.306036 86.752171 
L 84.458644 84.554952 
L 84.607079 82.357733 
L 84.752044 80.160513 
L 84.893661 77.963294 
L 87.329626 77.963294 
L 87.329626 77.963294 
L 87.471243 80.160513 
L 87.616208 82.357733 
L 87.764643 84.554952 
L 87.917251 86.752171 
L 88.075254 88.94939 
L 88.240243 91.14661 
L 88.413982 93.343829 
L 88.598195 95.541048 
L 88.79436 97.738267 
L 89.003565 99.935487 
L 89.226448 102.132706 
L 89.463222 104.329925 
L 89.713795 106.527144 
L 89.97794 108.724364 
L 90.255491 110.921583 
L 90.546499 113.118802 
L 90.851322 115.316021 
L 91.1706 117.513241 
L 91.505116 119.71046 
L 91.855561 121.907679 
L 92.222225 124.104898 
L 92.604683 126.302118 
L 93.001525 128.499337 
L 93.410191 130.696556 
L 93.826934 132.893775 
L 94.246953 135.090995 
L 94.66465 137.288214 
L 95.074018 139.485433 
L 95.469071 141.682652 
L 95.844293 143.879872 
L 96.195028 146.077091 
L 96.517771 148.27431 
L 96.81033 150.471529 
L 97.071846 152.668749 
L 97.302685 154.865968 
L 97.504211 157.063187 
L 97.678507 159.260406 
L 97.828059 161.457626 
L 97.955457 163.654845 
L 98.063156 165.852064 
L 98.153291 168.049283 
L 98.227579 170.246503 
L 98.287281 172.443722 
L 98.33321 174.640941 
L 98.365768 176.83816 
L 98.384985 179.03538 
L 98.39056 181.232599 
L 98.381893 183.429818 
L 98.358126 185.627037 
L 98.318192 187.824257 
L 98.260897 190.021476 
L 98.185025 192.218695 
L 98.089462 194.415914 
L 97.973333 196.613134 
L 97.836114 198.810353 
L 97.677705 201.007572 
L 97.498459 203.204791 
L 97.299148 205.402011 
L 97.080882 207.59923 
L 96.845007 209.796449 
L 96.592989 211.993668 
L 96.326317 214.190888 
L 96.046443 216.388107 
L 95.754745 218.585326 
L 95.452531 220.782545 
L 95.141063 222.979765 
L 94.821586 225.176984 
L 94.495352 227.374203 
L 94.163643 229.571422 
L 93.827772 231.768642 
L 93.489086 233.965861 
L 93.14896 236.16308 
L 92.808795 238.360299 
L 92.470023 240.557519 
L 92.134105 242.754738 
L 91.802536 244.951957 
L 91.476838 247.149176 
L 91.158541 249.346396 
L 90.849145 251.543615 
L 90.550079 253.740834 
L 90.262633 255.938053 
L 89.987896 258.135273 
L 89.726695 260.332492 
L 89.479543 262.529711 
L 89.246601 264.72693 
L 89.027671 266.92415 
L 88.822208 269.121369 
L 88.629358 271.318588 
L 88.448019 273.515807 
L 88.276926 275.713027 
L 88.11474 277.910246 
L 87.960147 280.107465 
L 87.811952 282.304684 
L 87.669168 284.501904 
L 87.53108 286.699123 
L 87.397288 288.896342 
L 87.267719 291.093561 
L 87.142618 293.290781 
L 87.022497 295.488 
z
" clip-path="url(#p2ad871323b)" style="fill: #1f77b4; fill-opacity: 0.3"/>
   </g>
   <g id="PolyCollection_2">
    <path d="M 114.873085 256.862118 
L 111.923163 256.862118 
L 111.719229 254.818909 
L 111.504847 252.775701 
L 111.280683 250.732492 
L 111.04718 248.689283 
L 110.804644 246.646075 
L 110.553387 244.602866 
L 110.293907 242.559658 
L 110.027066 240.516449 
L 109.754231 238.473241 
L 109.477326 236.430032 
L 109.198787 234.386824 
L 108.921393 232.343615 
L 108.648008 230.300406 
L 108.381242 228.257198 
L 108.123105 226.213989 
L 107.87469 224.170781 
L 107.635954 222.127572 
L 107.405641 220.084364 
L 107.181371 218.041155 
L 106.959896 215.997947 
L 106.737508 213.954738 
L 106.510542 211.911529 
L 106.275915 209.868321 
L 106.031622 207.825112 
L 105.777105 205.781904 
L 105.51345 203.738695 
L 105.243355 201.695487 
L 104.970863 199.652278 
L 104.700896 197.60907 
L 104.438635 195.565861 
L 104.188858 193.522652 
L 103.955305 191.479444 
L 103.74021 189.436235 
L 103.544048 187.393027 
L 103.365555 185.349818 
L 103.202022 183.30661 
L 103.049799 181.263401 
L 102.904937 179.220193 
L 102.763831 177.176984 
L 102.623773 175.133775 
L 102.4833 173.090567 
L 102.342299 171.047358 
L 102.201855 169.00415 
L 102.063908 166.960941 
L 101.930784 164.917733 
L 101.804735 162.874524 
L 101.687557 160.831316 
L 101.58039 158.788107 
L 101.483705 156.744898 
L 101.397488 154.70169 
L 101.32155 152.658481 
L 101.255895 150.615273 
L 101.20106 148.572064 
L 101.158371 146.528856 
L 101.130055 144.485647 
L 101.119208 142.442439 
L 101.129638 140.39923 
L 101.165608 138.356021 
L 101.231528 136.312813 
L 101.331634 134.269604 
L 101.469686 132.226396 
L 101.648697 130.183187 
L 101.870718 128.139979 
L 102.13667 126.09677 
L 102.446229 124.053561 
L 102.797773 122.010353 
L 103.188398 119.967144 
L 103.613997 117.923936 
L 104.069403 115.880727 
L 104.548603 113.837519 
L 105.044989 111.79431 
L 105.551643 109.751102 
L 106.06162 107.707893 
L 106.568228 105.664684 
L 107.065268 103.621476 
L 107.547239 101.578267 
L 108.009493 99.535059 
L 108.448344 97.49185 
L 108.861129 95.448642 
L 109.246224 93.405433 
L 109.603012 91.362225 
L 109.931802 89.319016 
L 110.233709 87.275807 
L 110.510488 85.232599 
L 110.764341 83.18939 
L 110.9977 81.146182 
L 111.213025 79.102973 
L 111.41261 77.059765 
L 111.598437 75.016556 
L 111.772087 72.973348 
L 111.934697 70.930139 
L 112.086996 68.88693 
L 112.229365 66.843722 
L 112.361948 64.800513 
L 112.484759 62.757305 
L 112.597789 60.714096 
L 112.701086 58.670888 
L 112.794812 56.627679 
L 112.879257 54.584471 
L 113.916991 54.584471 
L 113.916991 54.584471 
L 114.001436 56.627679 
L 114.095162 58.670888 
L 114.19846 60.714096 
L 114.311489 62.757305 
L 114.4343 64.800513 
L 114.566883 66.843722 
L 114.709252 68.88693 
L 114.861551 70.930139 
L 115.024161 72.973348 
L 115.197811 75.016556 
L 115.383639 77.059765 
L 115.583223 79.102973 
L 115.798548 81.146182 
L 116.031907 83.18939 
L 116.28576 85.232599 
L 116.562539 87.275807 
L 116.864446 89.319016 
L 117.193236 91.362225 
L 117.550024 93.405433 
L 117.935119 95.448642 
L 118.347904 97.49185 
L 118.786755 99.535059 
L 119.249009 101.578267 
L 119.73098 103.621476 
L 120.22802 105.664684 
L 120.734628 107.707893 
L 121.244605 109.751102 
L 121.751259 111.79431 
L 122.247645 113.837519 
L 122.726845 115.880727 
L 123.182252 117.923936 
L 123.60785 119.967144 
L 123.998475 122.010353 
L 124.35002 124.053561 
L 124.659578 126.09677 
L 124.92553 128.139979 
L 125.147552 130.183187 
L 125.326563 132.226396 
L 125.464614 134.269604 
L 125.56472 136.312813 
L 125.63064 138.356021 
L 125.66661 140.39923 
L 125.67704 142.442439 
L 125.666193 144.485647 
L 125.637877 146.528856 
L 125.595188 148.572064 
L 125.540353 150.615273 
L 125.474698 152.658481 
L 125.39876 154.70169 
L 125.312544 156.744898 
L 125.215858 158.788107 
L 125.108691 160.831316 
L 124.991513 162.874524 
L 124.865464 164.917733 
L 124.73234 166.960941 
L 124.594393 169.00415 
L 124.453949 171.047358 
L 124.312948 173.090567 
L 124.172475 175.133775 
L 124.032417 177.176984 
L 123.891311 179.220193 
L 123.746449 181.263401 
L 123.594226 183.30661 
L 123.430693 185.349818 
L 123.2522 187.393027 
L 123.056038 189.436235 
L 122.840943 191.479444 
L 122.60739 193.522652 
L 122.357613 195.565861 
L 122.095353 197.60907 
L 121.825385 199.652278 
L 121.552893 201.695487 
L 121.282798 203.738695 
L 121.019144 205.781904 
L 120.764626 207.825112 
L 120.520333 209.868321 
L 120.285706 211.911529 
L 120.05874 213.954738 
L 119.836352 215.997947 
L 119.614877 218.041155 
L 119.390607 220.084364 
L 119.160294 222.127572 
L 118.921558 224.170781 
L 118.673143 226.213989 
L 118.415006 228.257198 
L 118.148241 230.300406 
L 117.874855 232.343615 
L 117.597461 234.386824 
L 117.318922 236.430032 
L 117.042017 238.473241 
L 116.769182 240.516449 
L 116.502341 242.559658 
L 116.242861 244.602866 
L 115.991604 246.646075 
L 115.749068 248.689283 
L 115.515566 250.732492 
L 115.291401 252.775701 
L 115.077019 254.818909 
L 114.873085 256.862118 
z
" clip-path="url(#p2ad871323b)" style="fill: #1f77b4; fill-opacity: 0.3"/>
   </g>
   <g id="PolyCollection_3">
    <path d="M 141.83153 251.779765 
L 139.537679 251.779765 
L 139.376442 249.777626 
L 139.203792 247.775487 
L 139.019663 245.773348 
L 138.823922 243.771209 
L 138.61641 241.76907 
L 138.397002 239.76693 
L 138.165667 237.764791 
L 137.922536 235.762652 
L 137.66794 233.760513 
L 137.402434 231.758374 
L 137.126782 229.756235 
L 136.841915 227.754096 
L 136.548873 225.751957 
L 136.248745 223.749818 
L 135.94262 221.747679 
L 135.631587 219.74554 
L 135.316782 217.743401 
L 134.999495 215.741262 
L 134.681328 213.739123 
L 134.364375 211.736984 
L 134.051398 209.734845 
L 133.74594 207.732706 
L 133.452333 205.730567 
L 133.175574 203.728428 
L 132.921038 201.726289 
L 132.694043 199.72415 
L 132.499303 197.722011 
L 132.340328 195.719872 
L 132.218845 193.717733 
L 132.13433 191.715594 
L 132.083723 189.713455 
L 132.061381 187.711316 
L 132.059299 185.709176 
L 132.067579 183.707037 
L 132.075134 181.704898 
L 132.070529 179.702759 
L 132.042897 177.70062 
L 131.982837 175.698481 
L 131.88319 173.696342 
L 131.739644 171.694203 
L 131.551091 169.692064 
L 131.319714 167.689925 
L 131.050803 165.687786 
L 130.752321 163.685647 
L 130.434268 161.683508 
L 130.107911 159.681369 
L 129.784969 157.67923 
L 129.476837 155.677091 
L 129.193918 153.674952 
L 128.945148 151.672813 
L 128.73772 149.670674 
L 128.57703 147.668535 
L 128.466796 145.666396 
L 128.409302 143.664257 
L 128.405688 141.662118 
L 128.456208 139.659979 
L 128.560408 137.65784 
L 128.717183 135.655701 
L 128.924726 133.653561 
L 129.180396 131.651422 
L 129.480562 129.649283 
L 129.8205 127.647144 
L 130.194386 125.645005 
L 130.595433 123.642866 
L 131.01617 121.640727 
L 131.448836 119.638588 
L 131.885847 117.636449 
L 132.320254 115.63431 
L 132.74614 113.632171 
L 133.1589 111.630032 
L 133.555358 109.627893 
L 133.933747 107.625754 
L 134.293538 105.623615 
L 134.635187 103.621476 
L 134.959825 101.619337 
L 135.26896 99.617198 
L 135.564212 97.615059 
L 135.847116 95.61292 
L 136.119009 93.610781 
L 136.380985 91.608642 
L 136.63391 89.606503 
L 136.878471 87.604364 
L 137.115238 85.602225 
L 137.344715 83.600086 
L 137.567371 81.597947 
L 137.783638 79.595807 
L 137.993883 77.593668 
L 138.198365 75.591529 
L 138.397187 73.58939 
L 138.590256 71.587251 
L 138.777268 69.585112 
L 138.957718 67.582973 
L 139.130938 65.580834 
L 139.296161 63.578695 
L 139.452594 61.576556 
L 139.599494 59.574417 
L 139.736238 57.572278 
L 139.862369 55.570139 
L 139.977629 53.568 
L 141.39158 53.568 
L 141.39158 53.568 
L 141.50684 55.570139 
L 141.632972 57.572278 
L 141.769715 59.574417 
L 141.916615 61.576556 
L 142.073048 63.578695 
L 142.238271 65.580834 
L 142.411491 67.582973 
L 142.591941 69.585112 
L 142.778953 71.587251 
L 142.972022 73.58939 
L 143.170844 75.591529 
L 143.375326 77.593668 
L 143.585571 79.595807 
L 143.801838 81.597947 
L 144.024494 83.600086 
L 144.253971 85.602225 
L 144.490738 87.604364 
L 144.735299 89.606503 
L 144.988224 91.608642 
L 145.2502 93.610781 
L 145.522093 95.61292 
L 145.804997 97.615059 
L 146.100249 99.617198 
L 146.409384 101.619337 
L 146.734023 103.621476 
L 147.075671 105.623615 
L 147.435462 107.625754 
L 147.813851 109.627893 
L 148.210309 111.630032 
L 148.623069 113.632171 
L 149.048956 115.63431 
L 149.483362 117.636449 
L 149.920373 119.638588 
L 150.353039 121.640727 
L 150.773776 123.642866 
L 151.174824 125.645005 
L 151.54871 127.647144 
L 151.888647 129.649283 
L 152.188813 131.651422 
L 152.444483 133.653561 
L 152.652026 135.655701 
L 152.808802 137.65784 
L 152.913001 139.659979 
L 152.963521 141.662118 
L 152.959907 143.664257 
L 152.902413 145.666396 
L 152.79218 147.668535 
L 152.631489 149.670674 
L 152.424062 151.672813 
L 152.175291 153.674952 
L 151.892373 155.677091 
L 151.58424 157.67923 
L 151.261299 159.681369 
L 150.934941 161.683508 
L 150.616888 163.685647 
L 150.318406 165.687786 
L 150.049495 167.689925 
L 149.818118 169.692064 
L 149.629565 171.694203 
L 149.486019 173.696342 
L 149.386372 175.698481 
L 149.326312 177.70062 
L 149.29868 179.702759 
L 149.294075 181.704898 
L 149.30163 183.707037 
L 149.309911 185.709176 
L 149.307828 187.711316 
L 149.285487 189.713455 
L 149.234879 191.715594 
L 149.150364 193.717733 
L 149.028881 195.719872 
L 148.869906 197.722011 
L 148.675166 199.72415 
L 148.448172 201.726289 
L 148.193635 203.728428 
L 147.916876 205.730567 
L 147.623269 207.732706 
L 147.317811 209.734845 
L 147.004834 211.736984 
L 146.687881 213.739123 
L 146.369714 215.741262 
L 146.052427 217.743401 
L 145.737622 219.74554 
L 145.426589 221.747679 
L 145.120464 223.749818 
L 144.820336 225.751957 
L 144.527294 227.754096 
L 144.242428 229.756235 
L 143.966775 231.758374 
L 143.70127 233.760513 
L 143.446674 235.762652 
L 143.203542 237.764791 
L 142.972207 239.76693 
L 142.752799 241.76907 
L 142.545288 243.771209 
L 142.349546 245.773348 
L 142.165417 247.775487 
L 141.992767 249.777626 
L 141.83153 251.779765 
z
" clip-path="url(#p2ad871323b)" style="fill: #1f77b4; fill-opacity: 0.3"/>
   </g>
   <g id="PolyCollection_4">
    <path d="M 169.276678 252.796235 
L 166.665492 252.796235 
L 166.486266 250.93784 
L 166.297346 249.079444 
L 166.098805 247.221048 
L 165.890404 245.362652 
L 165.671678 243.504257 
L 165.442086 241.645861 
L 165.201193 239.787465 
L 164.948871 237.92907 
L 164.685475 236.070674 
L 164.411988 234.212278 
L 164.130095 232.353882 
L 163.842198 230.495487 
L 163.551349 228.637091 
L 163.261119 226.778695 
L 162.975406 224.920299 
L 162.698192 223.061904 
L 162.433248 221.203508 
L 162.183822 219.345112 
L 161.9523 217.486717 
L 161.739896 215.628321 
L 161.546368 213.769925 
L 161.369829 211.911529 
L 161.206669 210.053134 
L 161.051619 208.194738 
L 160.897997 206.336342 
L 160.738111 204.477947 
L 160.563825 202.619551 
L 160.367241 200.761155 
L 160.141444 198.902759 
L 159.881256 197.044364 
L 159.583905 195.185968 
L 159.249567 193.327572 
L 158.881684 191.469176 
L 158.487024 189.610781 
L 158.075436 187.752385 
L 157.659293 185.893989 
L 157.252648 184.035594 
L 156.870162 182.177198 
L 156.525902 180.318802 
L 156.232127 178.460406 
L 155.998219 176.602011 
L 155.829875 174.743615 
L 155.72869 172.885219 
L 155.692169 171.026824 
L 155.714191 169.168428 
L 155.785855 167.310032 
L 155.89659 165.451636 
L 156.035375 163.593241 
L 156.19192 161.734845 
L 156.357646 159.876449 
L 156.526362 158.018053 
L 156.694587 156.159658 
L 156.861516 154.301262 
L 157.028672 152.442866 
L 157.199339 150.584471 
L 157.377854 148.726075 
L 157.568877 146.867679 
L 157.776705 145.009283 
L 158.004703 143.150888 
L 158.254882 141.292492 
L 158.527659 139.434096 
L 158.821797 137.575701 
L 159.134503 135.717305 
L 159.461695 133.858909 
L 159.798379 132.000513 
L 160.139105 130.142118 
L 160.478469 128.283722 
L 160.811581 126.425326 
L 161.134479 124.56693 
L 161.444419 122.708535 
L 161.740034 120.850139 
L 162.021335 118.991743 
L 162.289575 117.133348 
L 162.546994 115.274952 
L 162.796496 113.416556 
L 163.041282 111.55816 
L 163.284503 109.699765 
L 163.528941 107.841369 
L 163.77677 105.982973 
L 164.029374 104.124578 
L 164.28726 102.266182 
L 164.550026 100.407786 
L 164.816408 98.54939 
L 165.084373 96.690995 
L 165.351264 94.832599 
L 165.613984 92.974203 
L 165.869205 91.115807 
L 166.113599 89.257412 
L 166.344065 87.399016 
L 166.557938 85.54062 
L 166.753167 83.682225 
L 166.928439 81.823829 
L 167.083239 79.965433 
L 167.21784 78.107037 
L 167.333229 76.248642 
L 167.430976 74.390246 
L 167.513062 72.53185 
L 167.581689 70.673455 
L 167.639098 68.815059 
L 168.303072 68.815059 
L 168.303072 68.815059 
L 168.360481 70.673455 
L 168.429108 72.53185 
L 168.511194 74.390246 
L 168.608941 76.248642 
L 168.724331 78.107037 
L 168.858932 79.965433 
L 169.013731 81.823829 
L 169.189003 83.682225 
L 169.384232 85.54062 
L 169.598105 87.399016 
L 169.828571 89.257412 
L 170.072965 91.115807 
L 170.328187 92.974203 
L 170.590906 94.832599 
L 170.857797 96.690995 
L 171.125762 98.54939 
L 171.392144 100.407786 
L 171.654911 102.266182 
L 171.912796 104.124578 
L 172.165401 105.982973 
L 172.413229 107.841369 
L 172.657667 109.699765 
L 172.900888 111.55816 
L 173.145675 113.416556 
L 173.395176 115.274952 
L 173.652596 117.133348 
L 173.920835 118.991743 
L 174.202136 120.850139 
L 174.497751 122.708535 
L 174.807692 124.56693 
L 175.13059 126.425326 
L 175.463702 128.283722 
L 175.803065 130.142118 
L 176.143792 132.000513 
L 176.480475 133.858909 
L 176.807668 135.717305 
L 177.120374 137.575701 
L 177.414511 139.434096 
L 177.687289 141.292492 
L 177.937467 143.150888 
L 178.165465 145.009283 
L 178.373293 146.867679 
L 178.564316 148.726075 
L 178.742831 150.584471 
L 178.913498 152.442866 
L 179.080654 154.301262 
L 179.247583 156.159658 
L 179.415808 158.018053 
L 179.584524 159.876449 
L 179.75025 161.734845 
L 179.906796 163.593241 
L 180.045581 165.451636 
L 180.156315 167.310032 
L 180.227979 169.168428 
L 180.250001 171.026824 
L 180.21348 172.885219 
L 180.112295 174.743615 
L 179.943952 176.602011 
L 179.710043 178.460406 
L 179.416268 180.318802 
L 179.072008 182.177198 
L 178.689523 184.035594 
L 178.282878 185.893989 
L 177.866734 187.752385 
L 177.455146 189.610781 
L 177.060486 191.469176 
L 176.692603 193.327572 
L 176.358265 195.185968 
L 176.060914 197.044364 
L 175.800726 198.902759 
L 175.57493 200.761155 
L 175.378345 202.619551 
L 175.204059 204.477947 
L 175.044173 206.336342 
L 174.890551 208.194738 
L 174.735502 210.053134 
L 174.572341 211.911529 
L 174.395803 213.769925 
L 174.202275 215.628321 
L 173.98987 217.486717 
L 173.758348 219.345112 
L 173.508922 221.203508 
L 173.243978 223.061904 
L 172.966764 224.920299 
L 172.681052 226.778695 
L 172.390821 228.637091 
L 172.099972 230.495487 
L 171.812075 232.353882 
L 171.530183 234.212278 
L 171.256695 236.070674 
L 170.993299 237.92907 
L 170.740977 239.787465 
L 170.500084 241.645861 
L 170.270492 243.504257 
L 170.051767 245.362652 
L 169.843365 247.221048 
L 169.644824 249.079444 
L 169.455905 250.93784 
L 169.276678 252.796235 
z
" clip-path="url(#p2ad871323b)" style="fill: #1f77b4; fill-opacity: 0.3"/>
   </g>
   <g id="PolyCollection_5">
    <path d="M 195.647749 270.076235 
L 194.867383 270.076235 
L 194.826579 268.012492 
L 194.782781 265.948749 
L 194.733545 263.885005 
L 194.675781 261.821262 
L 194.605957 259.757519 
L 194.520382 257.693775 
L 194.415512 255.630032 
L 194.288247 253.566289 
L 194.136179 251.502545 
L 193.957789 249.438802 
L 193.752553 247.375059 
L 193.520985 245.311316 
L 193.264616 243.247572 
L 192.985917 241.183829 
L 192.688182 239.120086 
L 192.375387 237.056342 
L 192.052031 234.992599 
L 191.722968 232.928856 
L 191.393234 230.865112 
L 191.067864 228.801369 
L 190.751696 226.737626 
L 190.449133 224.673882 
L 190.163868 222.610139 
L 189.898549 220.546396 
L 189.65442 218.482652 
L 189.430981 216.418909 
L 189.225723 214.355166 
L 189.034049 212.291422 
L 188.849436 210.227679 
L 188.663908 208.163936 
L 188.4688 206.100193 
L 188.255769 204.036449 
L 188.017911 201.972706 
L 187.750828 199.908963 
L 187.453442 197.845219 
L 187.128391 195.781476 
L 186.781898 193.717733 
L 186.423083 191.653989 
L 186.062782 189.590246 
L 185.712077 187.526503 
L 185.380766 185.462759 
L 185.076054 183.399016 
L 184.801733 181.335273 
L 184.557981 179.271529 
L 184.34185 177.207786 
L 184.148302 175.144043 
L 183.97159 173.080299 
L 183.806671 171.016556 
L 183.650355 168.952813 
L 183.501966 166.88907 
L 183.3634 164.825326 
L 183.238631 162.761583 
L 183.132833 160.69784 
L 183.051356 158.634096 
L 182.998841 156.570353 
L 182.978649 154.50661 
L 182.992727 152.442866 
L 183.041866 150.379123 
L 183.126231 148.31538 
L 183.245959 146.251636 
L 183.401615 144.187893 
L 183.594377 142.12415 
L 183.825869 140.060406 
L 184.097693 137.996663 
L 184.410785 135.93292 
L 184.764754 133.869176 
L 185.157385 131.805433 
L 185.584422 129.74169 
L 186.039681 127.677947 
L 186.515474 125.614203 
L 187.003253 123.55046 
L 187.494356 121.486717 
L 187.980727 119.422973 
L 188.45552 117.35923 
L 188.913518 115.295487 
L 189.351348 113.231743 
L 189.767503 111.168 
L 190.162181 109.104257 
L 190.536991 107.040513 
L 190.894535 104.97677 
L 191.237919 102.913027 
L 191.570224 100.849283 
L 191.894002 98.78554 
L 192.210839 96.721797 
L 192.521068 94.658053 
L 192.823659 92.59431 
L 193.11632 90.530567 
L 193.395796 88.466824 
L 193.658318 86.40308 
L 193.900132 84.339337 
L 194.118027 82.275594 
L 194.309775 80.21185 
L 194.474416 78.148107 
L 194.612361 76.084364 
L 194.725304 74.02062 
L 194.815977 71.956877 
L 194.887794 69.893134 
L 194.944457 67.82939 
L 194.98957 65.765647 
L 195.525561 65.765647 
L 195.525561 65.765647 
L 195.570675 67.82939 
L 195.627337 69.893134 
L 195.699155 71.956877 
L 195.789828 74.02062 
L 195.902771 76.084364 
L 196.040715 78.148107 
L 196.205356 80.21185 
L 196.397104 82.275594 
L 196.615 84.339337 
L 196.856814 86.40308 
L 197.119335 88.466824 
L 197.398811 90.530567 
L 197.691473 92.59431 
L 197.994063 94.658053 
L 198.304292 96.721797 
L 198.621129 98.78554 
L 198.944907 100.849283 
L 199.277212 102.913027 
L 199.620596 104.97677 
L 199.97814 107.040513 
L 200.35295 109.104257 
L 200.747629 111.168 
L 201.163783 113.231743 
L 201.601613 115.295487 
L 202.059611 117.35923 
L 202.534404 119.422973 
L 203.020775 121.486717 
L 203.511878 123.55046 
L 203.999657 125.614203 
L 204.47545 127.677947 
L 204.930709 129.74169 
L 205.357746 131.805433 
L 205.750377 133.869176 
L 206.104346 135.93292 
L 206.417438 137.996663 
L 206.689262 140.060406 
L 206.920754 142.12415 
L 207.113516 144.187893 
L 207.269172 146.251636 
L 207.3889 148.31538 
L 207.473266 150.379123 
L 207.522405 152.442866 
L 207.536482 154.50661 
L 207.51629 156.570353 
L 207.463775 158.634096 
L 207.382298 160.69784 
L 207.2765 162.761583 
L 207.151732 164.825326 
L 207.013165 166.88907 
L 206.864776 168.952813 
L 206.708461 171.016556 
L 206.543541 173.080299 
L 206.366829 175.144043 
L 206.173281 177.207786 
L 205.95715 179.271529 
L 205.713399 181.335273 
L 205.439077 183.399016 
L 205.134366 185.462759 
L 204.803054 187.526503 
L 204.45235 189.590246 
L 204.092049 191.653989 
L 203.733233 193.717733 
L 203.386741 195.781476 
L 203.06169 197.845219 
L 202.764303 199.908963 
L 202.49722 201.972706 
L 202.259363 204.036449 
L 202.046331 206.100193 
L 201.851223 208.163936 
L 201.665695 210.227679 
L 201.481083 212.291422 
L 201.289408 214.355166 
L 201.08415 216.418909 
L 200.860711 218.482652 
L 200.616583 220.546396 
L 200.351263 222.610139 
L 200.065998 224.673882 
L 199.763436 226.737626 
L 199.447268 228.801369 
L 199.121898 230.865112 
L 198.792164 232.928856 
L 198.463101 234.992599 
L 198.139745 237.056342 
L 197.82695 239.120086 
L 197.529214 241.183829 
L 197.250515 243.247572 
L 196.994146 245.311316 
L 196.762578 247.375059 
L 196.557342 249.438802 
L 196.378952 251.502545 
L 196.226885 253.566289 
L 196.099619 255.630032 
L 195.99475 257.693775 
L 195.909175 259.757519 
L 195.839351 261.821262 
L 195.781586 263.885005 
L 195.732351 265.948749 
L 195.688552 268.012492 
L 195.647749 270.076235 
z
" clip-path="url(#p2ad871323b)" style="fill: #1f77b4; fill-opacity: 0.3"/>
   </g>
   <g id="PolyCollection_6">
    <path d="M 223.750208 250.763294 
L 221.337884 250.763294 
L 221.167196 249.110246 
L 220.985636 247.457198 
L 220.793959 245.80415 
L 220.59294 244.151102 
L 220.383361 242.498053 
L 220.166007 240.845005 
L 219.941678 239.191957 
L 219.711218 237.538909 
L 219.475543 235.885861 
L 219.235676 234.232813 
L 218.992766 232.579765 
L 218.74809 230.926717 
L 218.503035 229.273668 
L 218.259056 227.62062 
L 218.017606 225.967572 
L 217.780065 224.314524 
L 217.547649 222.661476 
L 217.321341 221.008428 
L 217.101829 219.35538 
L 216.889476 217.702332 
L 216.684321 216.049283 
L 216.486107 214.396235 
L 216.294332 212.743187 
L 216.108329 211.090139 
L 215.927349 209.437091 
L 215.750646 207.784043 
L 215.57756 206.130995 
L 215.407585 204.477947 
L 215.240418 202.824898 
L 215.075987 201.17185 
L 214.914444 199.518802 
L 214.756136 197.865754 
L 214.601537 196.212706 
L 214.451157 194.559658 
L 214.305429 192.90661 
L 214.164587 191.253561 
L 214.028544 189.600513 
L 213.896801 187.947465 
L 213.76838 186.294417 
L 213.641818 184.641369 
L 213.515202 182.988321 
L 213.386277 181.335273 
L 213.252591 179.682225 
L 213.111688 178.029176 
L 212.961321 176.376128 
L 212.799671 174.72308 
L 212.625561 173.070032 
L 212.438635 171.416984 
L 212.239491 169.763936 
L 212.029769 168.110888 
L 211.812166 166.45784 
L 211.590382 164.804791 
L 211.368999 163.151743 
L 211.153289 161.498695 
L 210.948972 159.845647 
L 210.761925 158.192599 
L 210.597878 156.539551 
L 210.462106 154.886503 
L 210.359163 153.233455 
L 210.292661 151.580406 
L 210.26513 149.927358 
L 210.277963 148.27431 
L 210.33145 146.621262 
L 210.424896 144.968214 
L 210.556795 143.315166 
L 210.725045 141.662118 
L 210.927171 140.00907 
L 211.160531 138.356021 
L 211.422481 136.702973 
L 211.710488 135.049925 
L 212.022185 133.396877 
L 212.35537 131.743829 
L 212.707964 130.090781 
L 213.077947 128.437733 
L 213.463273 126.784684 
L 213.861808 125.131636 
L 214.271269 123.478588 
L 214.689206 121.82554 
L 215.113005 120.172492 
L 215.539921 118.519444 
L 215.967139 116.866396 
L 216.391846 115.213348 
L 216.811313 113.560299 
L 217.22297 111.907251 
L 217.624476 110.254203 
L 218.013766 108.601155 
L 218.389079 106.948107 
L 218.748968 105.295059 
L 219.092293 103.642011 
L 219.418193 101.988963 
L 219.726059 100.335914 
L 220.015501 98.682866 
L 220.286318 97.029818 
L 220.538474 95.37677 
L 220.77208 93.723722 
L 220.987378 92.070674 
L 221.184732 90.417626 
L 221.364616 88.764578 
L 221.527606 87.111529 
L 223.560486 87.111529 
L 223.560486 87.111529 
L 223.723476 88.764578 
L 223.903361 90.417626 
L 224.100715 92.070674 
L 224.316013 93.723722 
L 224.549619 95.37677 
L 224.801775 97.029818 
L 225.072592 98.682866 
L 225.362033 100.335914 
L 225.669899 101.988963 
L 225.995799 103.642011 
L 226.339124 105.295059 
L 226.699014 106.948107 
L 227.074327 108.601155 
L 227.463616 110.254203 
L 227.865122 111.907251 
L 228.27678 113.560299 
L 228.696247 115.213348 
L 229.120954 116.866396 
L 229.548172 118.519444 
L 229.975087 120.172492 
L 230.398886 121.82554 
L 230.816823 123.478588 
L 231.226285 125.131636 
L 231.624819 126.784684 
L 232.010146 128.437733 
L 232.380128 130.090781 
L 232.732722 131.743829 
L 233.065907 133.396877 
L 233.377604 135.049925 
L 233.665611 136.702973 
L 233.927562 138.356021 
L 234.160921 140.00907 
L 234.363047 141.662118 
L 234.531297 143.315166 
L 234.663196 144.968214 
L 234.756642 146.621262 
L 234.81013 148.27431 
L 234.822962 149.927358 
L 234.795431 151.580406 
L 234.728929 153.233455 
L 234.625986 154.886503 
L 234.490215 156.539551 
L 234.326167 158.192599 
L 234.13912 159.845647 
L 233.934803 161.498695 
L 233.719094 163.151743 
L 233.49771 164.804791 
L 233.275926 166.45784 
L 233.058323 168.110888 
L 232.848602 169.763936 
L 232.649458 171.416984 
L 232.462531 173.070032 
L 232.288422 174.72308 
L 232.126772 176.376128 
L 231.976404 178.029176 
L 231.835501 179.682225 
L 231.701815 181.335273 
L 231.57289 182.988321 
L 231.446275 184.641369 
L 231.319712 186.294417 
L 231.191292 187.947465 
L 231.059549 189.600513 
L 230.923506 191.253561 
L 230.782663 192.90661 
L 230.636935 194.559658 
L 230.486556 196.212706 
L 230.331956 197.865754 
L 230.173648 199.518802 
L 230.012106 201.17185 
L 229.847674 202.824898 
L 229.680508 204.477947 
L 229.510533 206.130995 
L 229.337446 207.784043 
L 229.160743 209.437091 
L 228.979763 211.090139 
L 228.793761 212.743187 
L 228.601986 214.396235 
L 228.403771 216.049283 
L 228.198616 217.702332 
L 227.986264 219.35538 
L 227.766751 221.008428 
L 227.540443 222.661476 
L 227.308027 224.314524 
L 227.070486 225.967572 
L 226.829037 227.62062 
L 226.585057 229.273668 
L 226.340002 230.926717 
L 226.095326 232.579765 
L 225.852416 234.232813 
L 225.612549 235.885861 
L 225.376875 237.538909 
L 225.146414 239.191957 
L 224.922086 240.845005 
L 224.704732 242.498053 
L 224.495153 244.151102 
L 224.294134 245.80415 
L 224.102456 247.457198 
L 223.920897 249.110246 
L 223.750208 250.763294 
z
" clip-path="url(#p2ad871323b)" style="fill: #1f77b4; fill-opacity: 0.3"/>
   </g>
   <g id="PolyCollection_7">
    <path d="M 250.553047 262.960941 
L 249.108006 262.960941 
L 249.011931 261.215487 
L 248.912518 259.470032 
L 248.810668 257.724578 
L 248.707053 255.979123 
L 248.602002 254.233668 
L 248.495415 252.488214 
L 248.38671 250.742759 
L 248.274823 248.997305 
L 248.158267 247.25185 
L 248.035236 245.506396 
L 247.903761 243.760941 
L 247.76189 242.015487 
L 247.607874 240.270032 
L 247.440339 238.524578 
L 247.258434 236.779123 
L 247.061918 235.033668 
L 246.851199 233.288214 
L 246.62732 231.542759 
L 246.391883 229.797305 
L 246.146948 228.05185 
L 245.894901 226.306396 
L 245.63831 224.560941 
L 245.379803 222.815487 
L 245.121942 221.070032 
L 244.867143 219.324578 
L 244.617608 217.579123 
L 244.375287 215.833668 
L 244.141864 214.088214 
L 243.918748 212.342759 
L 243.70707 210.597305 
L 243.507664 208.85185 
L 243.321047 207.106396 
L 243.14736 205.360941 
L 242.986308 203.615487 
L 242.837081 201.870032 
L 242.698286 200.124578 
L 242.567906 198.379123 
L 242.443305 196.633668 
L 242.321299 194.888214 
L 242.198304 193.142759 
L 242.070555 191.397305 
L 241.934384 189.65185 
L 241.786526 187.906396 
L 241.624419 186.160941 
L 241.446451 184.415487 
L 241.252123 182.670032 
L 241.042098 180.924578 
L 240.818134 179.179123 
L 240.582897 177.433668 
L 240.339694 175.688214 
L 240.09215 173.942759 
L 239.843893 172.197305 
L 239.598275 170.45185 
L 239.358172 168.706396 
L 239.125898 166.960941 
L 238.903221 165.215487 
L 238.691489 163.470032 
L 238.491833 161.724578 
L 238.305405 159.979123 
L 238.133621 158.233668 
L 237.978348 156.488214 
L 237.842019 154.742759 
L 237.727633 152.997305 
L 237.638643 151.25185 
L 237.578749 149.506396 
L 237.551611 147.760941 
L 237.560539 146.015487 
L 237.608206 144.270032 
L 237.696411 142.524578 
L 237.825956 140.779123 
L 237.996626 139.033668 
L 238.20727 137.288214 
L 238.455971 135.542759 
L 238.74024 133.797305 
L 239.057212 132.05185 
L 239.403788 130.306396 
L 239.776709 128.560941 
L 240.172554 126.815487 
L 240.587688 125.070032 
L 241.018183 123.324578 
L 241.459768 121.579123 
L 241.907833 119.833668 
L 242.357528 118.088214 
L 242.803946 116.342759 
L 243.242388 114.597305 
L 243.668661 112.85185 
L 244.079361 111.106396 
L 244.472111 109.360941 
L 244.845677 107.615487 
L 245.199978 105.870032 
L 245.535952 104.124578 
L 245.855315 102.379123 
L 246.160245 100.633668 
L 246.453026 98.888214 
L 246.735716 97.142759 
L 247.009867 95.397305 
L 247.276333 93.65185 
L 247.535196 91.906396 
L 247.785781 90.160941 
L 251.875272 90.160941 
L 251.875272 90.160941 
L 252.125858 91.906396 
L 252.38472 93.65185 
L 252.651187 95.397305 
L 252.925337 97.142759 
L 253.208027 98.888214 
L 253.500808 100.633668 
L 253.805738 102.379123 
L 254.125101 104.124578 
L 254.461075 105.870032 
L 254.815376 107.615487 
L 255.188943 109.360941 
L 255.581692 111.106396 
L 255.992393 112.85185 
L 256.418665 114.597305 
L 256.857108 116.342759 
L 257.303526 118.088214 
L 257.75322 119.833668 
L 258.201285 121.579123 
L 258.64287 123.324578 
L 259.073366 125.070032 
L 259.4885 126.815487 
L 259.884345 128.560941 
L 260.257265 130.306396 
L 260.603841 132.05185 
L 260.920813 133.797305 
L 261.205083 135.542759 
L 261.453783 137.288214 
L 261.664428 139.033668 
L 261.835097 140.779123 
L 261.964643 142.524578 
L 262.052848 144.270032 
L 262.100514 146.015487 
L 262.109443 147.760941 
L 262.082305 149.506396 
L 262.02241 151.25185 
L 261.933421 152.997305 
L 261.819034 154.742759 
L 261.682706 156.488214 
L 261.527433 158.233668 
L 261.355648 159.979123 
L 261.16922 161.724578 
L 260.969564 163.470032 
L 260.757833 165.215487 
L 260.535156 166.960941 
L 260.302881 168.706396 
L 260.062779 170.45185 
L 259.81716 172.197305 
L 259.568903 173.942759 
L 259.32136 175.688214 
L 259.078156 177.433668 
L 258.842919 179.179123 
L 258.618955 180.924578 
L 258.408931 182.670032 
L 258.214602 184.415487 
L 258.036634 186.160941 
L 257.874528 187.906396 
L 257.72667 189.65185 
L 257.590498 191.397305 
L 257.462749 193.142759 
L 257.339754 194.888214 
L 257.217748 196.633668 
L 257.093147 198.379123 
L 256.962768 200.124578 
L 256.823973 201.870032 
L 256.674746 203.615487 
L 256.513694 205.360941 
L 256.340007 207.106396 
L 256.153389 208.85185 
L 255.953984 210.597305 
L 255.742305 212.342759 
L 255.519189 214.088214 
L 255.285766 215.833668 
L 255.043446 217.579123 
L 254.79391 219.324578 
L 254.539111 221.070032 
L 254.281251 222.815487 
L 254.022743 224.560941 
L 253.766153 226.306396 
L 253.514105 228.05185 
L 253.269171 229.797305 
L 253.033734 231.542759 
L 252.809854 233.288214 
L 252.599136 235.033668 
L 252.402619 236.779123 
L 252.220714 238.524578 
L 252.05318 240.270032 
L 251.899163 242.015487 
L 251.757292 243.760941 
L 251.625818 245.506396 
L 251.502787 247.25185 
L 251.38623 248.997305 
L 251.274343 250.742759 
L 251.165638 252.488214 
L 251.059051 254.233668 
L 250.954001 255.979123 
L 250.850385 257.724578 
L 250.748535 259.470032 
L 250.649122 261.215487 
L 250.553047 262.960941 
z
" clip-path="url(#p2ad871323b)" style="fill: #1f77b4; fill-opacity: 0.3"/>
   </g>
   <g id="PolyCollection_8">
    <path d="M 277.684875 258.895059 
L 276.549139 258.895059 
L 276.4667 256.923722 
L 276.371411 254.952385 
L 276.260395 252.981048 
L 276.13081 251.009711 
L 275.980146 249.038374 
L 275.806527 247.067037 
L 275.608975 245.095701 
L 275.38761 243.124364 
L 275.143751 241.153027 
L 274.879915 239.18169 
L 274.599709 237.210353 
L 274.307631 235.239016 
L 274.008787 233.267679 
L 273.708572 231.296342 
L 273.412316 229.325005 
L 273.124951 227.353668 
L 272.85071 225.382332 
L 272.592886 223.410995 
L 272.353671 221.439658 
L 272.134084 219.468321 
L 271.933991 217.496984 
L 271.752204 215.525647 
L 271.586643 213.55431 
L 271.434537 211.582973 
L 271.292626 209.611636 
L 271.15735 207.640299 
L 271.024985 205.668963 
L 270.891743 203.697626 
L 270.753831 201.726289 
L 270.607492 199.754952 
L 270.449073 197.783615 
L 270.275129 195.812278 
L 270.082609 193.840941 
L 269.869096 191.869604 
L 269.633095 189.898267 
L 269.374322 187.92693 
L 269.09393 185.955594 
L 268.79461 183.984257 
L 268.480533 182.01292 
L 268.157103 180.041583 
L 267.830535 178.070246 
L 267.507308 176.098909 
L 267.193573 174.127572 
L 266.894585 172.156235 
L 266.614276 170.184898 
L 266.355013 168.213561 
L 266.1176 166.242225 
L 265.901515 164.270888 
L 265.705358 162.299551 
L 265.52744 160.328214 
L 265.366422 158.356877 
L 265.221908 156.38554 
L 265.094906 154.414203 
L 264.988071 152.442866 
L 264.90571 150.471529 
L 264.853517 148.500193 
L 264.838091 146.528856 
L 264.866289 144.557519 
L 264.944501 142.586182 
L 265.077945 140.614845 
L 265.270062 138.643508 
L 265.522093 136.672171 
L 265.832859 134.700834 
L 266.198783 132.729497 
L 266.614099 130.75816 
L 267.07124 128.786824 
L 267.561328 126.815487 
L 268.074712 124.84415 
L 268.60151 122.872813 
L 269.132101 120.901476 
L 269.657547 118.930139 
L 270.169925 116.958802 
L 270.662567 114.987465 
L 271.130212 113.016128 
L 271.569082 111.044791 
L 271.976882 109.073455 
L 272.352751 107.102118 
L 272.697156 105.130781 
L 273.011751 103.159444 
L 273.299186 101.188107 
L 273.562877 99.21677 
L 273.806741 97.245433 
L 274.034891 95.274096 
L 274.251316 93.302759 
L 274.459564 91.331422 
L 274.662458 89.360086 
L 274.861887 87.388749 
L 275.058685 85.417412 
L 275.252643 83.446075 
L 275.44263 81.474738 
L 275.626833 79.503401 
L 275.803058 77.532064 
L 275.969064 75.560727 
L 276.122872 73.58939 
L 276.263003 71.618053 
L 276.388624 69.646717 
L 276.499588 67.67538 
L 276.596376 65.704043 
L 276.679965 63.732706 
L 277.55405 63.732706 
L 277.55405 63.732706 
L 277.637638 65.704043 
L 277.734426 67.67538 
L 277.845391 69.646717 
L 277.971012 71.618053 
L 278.111143 73.58939 
L 278.26495 75.560727 
L 278.430957 77.532064 
L 278.607181 79.503401 
L 278.791384 81.474738 
L 278.981371 83.446075 
L 279.175329 85.417412 
L 279.372128 87.388749 
L 279.571557 89.360086 
L 279.774451 91.331422 
L 279.982699 93.302759 
L 280.199123 95.274096 
L 280.427273 97.245433 
L 280.671137 99.21677 
L 280.934829 101.188107 
L 281.222263 103.159444 
L 281.536859 105.130781 
L 281.881264 107.102118 
L 282.257132 109.073455 
L 282.664932 111.044791 
L 283.103802 113.016128 
L 283.571448 114.987465 
L 284.06409 116.958802 
L 284.576467 118.930139 
L 285.101914 120.901476 
L 285.632505 122.872813 
L 286.159303 124.84415 
L 286.672687 126.815487 
L 287.162774 128.786824 
L 287.619916 130.75816 
L 288.035232 132.729497 
L 288.401155 134.700834 
L 288.711922 136.672171 
L 288.963952 138.643508 
L 289.15607 140.614845 
L 289.289513 142.586182 
L 289.367726 144.557519 
L 289.395924 146.528856 
L 289.380498 148.500193 
L 289.328305 150.471529 
L 289.245943 152.442866 
L 289.139109 154.414203 
L 289.012106 156.38554 
L 288.867592 158.356877 
L 288.706574 160.328214 
L 288.528657 162.299551 
L 288.3325 164.270888 
L 288.116414 166.242225 
L 287.879001 168.213561 
L 287.619739 170.184898 
L 287.33943 172.156235 
L 287.040442 174.127572 
L 286.726706 176.098909 
L 286.40348 178.070246 
L 286.076911 180.041583 
L 285.753481 182.01292 
L 285.439404 183.984257 
L 285.140084 185.955594 
L 284.859692 187.92693 
L 284.60092 189.898267 
L 284.364919 191.869604 
L 284.151405 193.840941 
L 283.958885 195.812278 
L 283.784942 197.783615 
L 283.626522 199.754952 
L 283.480183 201.726289 
L 283.342271 203.697626 
L 283.20903 205.668963 
L 283.076664 207.640299 
L 282.941388 209.611636 
L 282.799478 211.582973 
L 282.647372 213.55431 
L 282.481811 215.525647 
L 282.300023 217.496984 
L 282.099931 219.468321 
L 281.880344 221.439658 
L 281.641128 223.410995 
L 281.383304 225.382332 
L 281.109063 227.353668 
L 280.821699 229.325005 
L 280.525443 231.296342 
L 280.225227 233.267679 
L 279.926384 235.239016 
L 279.634305 237.210353 
L 279.3541 239.18169 
L 279.090263 241.153027 
L 278.846404 243.124364 
L 278.625039 245.095701 
L 278.427488 247.067037 
L 278.253869 249.038374 
L 278.103204 251.009711 
L 277.973619 252.981048 
L 277.862604 254.952385 
L 277.767315 256.923722 
L 277.684875 258.895059 
z
" clip-path="url(#p2ad871323b)" style="fill: #1f77b4; fill-opacity: 0.3"/>
   </g>
   <g id="PolyCollection_9">
    <path d="M 305.323066 254.829176 
L 303.483909 254.829176 
L 303.329534 253.093989 
L 303.160072 251.358802 
L 302.975453 249.623615 
L 302.775617 247.888428 
L 302.560474 246.153241 
L 302.329908 244.418053 
L 302.083815 242.682866 
L 301.822193 240.947679 
L 301.545287 239.212492 
L 301.253756 237.477305 
L 300.948854 235.742118 
L 300.632592 234.00693 
L 300.307836 232.271743 
L 299.978326 230.536556 
L 299.648578 228.801369 
L 299.323682 227.066182 
L 299.008997 225.330995 
L 298.709768 223.595807 
L 298.430721 221.86062 
L 298.175663 220.125433 
L 297.947156 218.390246 
L 297.746294 216.655059 
L 297.572604 214.919872 
L 297.4241 213.184684 
L 297.297458 211.449497 
L 297.188317 209.71431 
L 297.091643 207.979123 
L 297.002137 206.243936 
L 296.914634 204.508749 
L 296.824463 202.773561 
L 296.72773 201.038374 
L 296.621521 199.303187 
L 296.504 197.568 
L 296.374417 195.832813 
L 296.233025 194.097626 
L 296.080923 192.362439 
L 295.919847 190.627251 
L 295.751911 188.892064 
L 295.579336 187.156877 
L 295.404176 185.42169 
L 295.228072 183.686503 
L 295.052054 181.951316 
L 294.876425 180.216128 
L 294.700736 178.480941 
L 294.523878 176.745754 
L 294.344292 175.010567 
L 294.16027 173.27538 
L 293.970335 171.540193 
L 293.773651 169.805005 
L 293.570402 168.069818 
L 293.362098 166.334631 
L 293.151754 164.599444 
L 292.943908 162.864257 
L 292.744464 161.12907 
L 292.560373 159.393882 
L 292.399177 157.658695 
L 292.268473 155.923508 
L 292.175348 154.188321 
L 292.125853 152.453134 
L 292.124572 150.717947 
L 292.174323 148.982759 
L 292.276023 147.247572 
L 292.428704 145.512385 
L 292.629685 143.777198 
L 292.874847 142.042011 
L 293.158982 140.306824 
L 293.476171 138.571636 
L 293.820145 136.836449 
L 294.184613 135.101262 
L 294.563528 133.366075 
L 294.951289 131.630888 
L 295.342892 129.895701 
L 295.734032 128.160513 
L 296.121172 126.425326 
L 296.501583 124.690139 
L 296.873375 122.954952 
L 297.235486 121.219765 
L 297.587654 119.484578 
L 297.93034 117.74939 
L 298.264601 116.014203 
L 298.591918 114.279016 
L 298.913978 112.543829 
L 299.232439 110.808642 
L 299.548685 109.073455 
L 299.863613 107.338267 
L 300.17748 105.60308 
L 300.489819 103.867893 
L 300.799442 102.132706 
L 301.104536 100.397519 
L 301.402824 98.662332 
L 301.691778 96.927144 
L 301.968858 95.191957 
L 302.231733 93.45677 
L 302.478466 91.721583 
L 302.707643 89.986396 
L 302.918433 88.251209 
L 303.110584 86.516021 
L 303.284355 84.780834 
L 303.440419 83.045647 
L 305.366556 83.045647 
L 305.366556 83.045647 
L 305.522621 84.780834 
L 305.696392 86.516021 
L 305.888542 88.251209 
L 306.099333 89.986396 
L 306.32851 91.721583 
L 306.575243 93.45677 
L 306.838117 95.191957 
L 307.115198 96.927144 
L 307.404152 98.662332 
L 307.702439 100.397519 
L 308.007534 102.132706 
L 308.317157 103.867893 
L 308.629496 105.60308 
L 308.943363 107.338267 
L 309.258291 109.073455 
L 309.574536 110.808642 
L 309.892997 112.543829 
L 310.215058 114.279016 
L 310.542375 116.014203 
L 310.876636 117.74939 
L 311.219322 119.484578 
L 311.57149 121.219765 
L 311.933601 122.954952 
L 312.305392 124.690139 
L 312.685804 126.425326 
L 313.072943 128.160513 
L 313.464084 129.895701 
L 313.855687 131.630888 
L 314.243448 133.366075 
L 314.622362 135.101262 
L 314.986831 136.836449 
L 315.330805 138.571636 
L 315.647994 140.306824 
L 315.932129 142.042011 
L 316.177291 143.777198 
L 316.378272 145.512385 
L 316.530953 147.247572 
L 316.632653 148.982759 
L 316.682404 150.717947 
L 316.681123 152.453134 
L 316.631628 154.188321 
L 316.538502 155.923508 
L 316.407799 157.658695 
L 316.246603 159.393882 
L 316.062512 161.12907 
L 315.863068 162.864257 
L 315.655221 164.599444 
L 315.444878 166.334631 
L 315.236574 168.069818 
L 315.033324 169.805005 
L 314.83664 171.540193 
L 314.646706 173.27538 
L 314.462683 175.010567 
L 314.283097 176.745754 
L 314.10624 178.480941 
L 313.930551 180.216128 
L 313.754922 181.951316 
L 313.578904 183.686503 
L 313.4028 185.42169 
L 313.22764 187.156877 
L 313.055065 188.892064 
L 312.887129 190.627251 
L 312.726052 192.362439 
L 312.573951 194.097626 
L 312.432558 195.832813 
L 312.302975 197.568 
L 312.185455 199.303187 
L 312.079246 201.038374 
L 311.982513 202.773561 
L 311.892341 204.508749 
L 311.804839 206.243936 
L 311.715333 207.979123 
L 311.618659 209.71431 
L 311.509518 211.449497 
L 311.382876 213.184684 
L 311.234371 214.919872 
L 311.060682 216.655059 
L 310.859819 218.390246 
L 310.631313 220.125433 
L 310.376255 221.86062 
L 310.097207 223.595807 
L 309.797979 225.330995 
L 309.483294 227.066182 
L 309.158398 228.801369 
L 308.82865 230.536556 
L 308.499139 232.271743 
L 308.174384 234.00693 
L 307.858122 235.742118 
L 307.55322 237.477305 
L 307.261688 239.212492 
L 306.984782 240.947679 
L 306.723161 242.682866 
L 306.477067 244.418053 
L 306.246501 246.153241 
L 306.031359 247.888428 
L 305.831522 249.623615 
L 305.646904 251.358802 
L 305.477442 253.093989 
L 305.323066 254.829176 
z
" clip-path="url(#p2ad871323b)" style="fill: #1f77b4; fill-opacity: 0.3"/>
   </g>
   <g id="PolyCollection_10">
    <path d="M 331.856686 283.290353 
L 331.523251 283.290353 
L 331.52005 281.308749 
L 331.518339 279.327144 
L 331.516692 277.34554 
L 331.513222 275.363936 
L 331.50568 273.382332 
L 331.49159 271.400727 
L 331.468406 269.419123 
L 331.433675 267.437519 
L 331.385185 265.455914 
L 331.321089 263.47431 
L 331.240001 261.492706 
L 331.141034 259.511102 
L 331.023807 257.529497 
L 330.888402 255.547893 
L 330.735286 253.566289 
L 330.565219 251.584684 
L 330.379145 249.60308 
L 330.178103 247.621476 
L 329.963147 245.639872 
L 329.735308 243.658267 
L 329.495575 241.676663 
L 329.244909 239.695059 
L 328.984284 237.713455 
L 328.714737 235.73185 
L 328.437432 233.750246 
L 328.153724 231.768642 
L 327.865212 229.787037 
L 327.573764 227.805433 
L 327.281502 225.823829 
L 326.990736 223.842225 
L 326.703832 221.86062 
L 326.423036 219.879016 
L 326.150265 217.897412 
L 325.886917 215.915807 
L 325.633716 213.934203 
L 325.390656 211.952599 
L 325.157031 209.970995 
L 324.931569 207.98939 
L 324.71263 206.007786 
L 324.498429 204.026182 
L 324.287253 202.044578 
L 324.077622 200.062973 
L 323.868409 198.081369 
L 323.658894 196.099765 
L 323.448787 194.11816 
L 323.23822 192.136556 
L 323.027723 190.154952 
L 322.818149 188.173348 
L 322.610568 186.191743 
L 322.406077 184.210139 
L 322.205564 182.228535 
L 322.009442 180.24693 
L 321.817419 178.265326 
L 321.628375 176.283722 
L 321.440415 174.302118 
L 321.251147 172.320513 
L 321.058157 170.338909 
L 320.859653 168.357305 
L 320.655147 166.375701 
L 320.446062 164.394096 
L 320.23613 162.412492 
L 320.031485 160.430888 
L 319.840395 158.449283 
L 319.672651 156.467679 
L 319.538695 154.486075 
L 319.4486 152.504471 
L 319.411052 150.522866 
L 319.432493 148.541262 
L 319.516543 146.559658 
L 319.663766 144.578053 
L 319.871808 142.596449 
L 320.135845 140.614845 
L 320.449251 138.633241 
L 320.804357 136.651636 
L 321.193183 134.670032 
L 321.608042 132.688428 
L 322.041949 130.706824 
L 322.488842 128.725219 
L 322.943632 126.743615 
L 323.402144 124.762011 
L 323.861 122.780406 
L 324.317509 120.798802 
L 324.769584 118.817198 
L 325.215676 116.835594 
L 325.654729 114.853989 
L 326.086111 112.872385 
L 326.509503 110.890781 
L 326.924742 108.909176 
L 327.331616 106.927572 
L 327.72965 104.945968 
L 328.117922 102.964364 
L 328.494941 100.982759 
L 328.858629 99.001155 
L 329.206418 97.019551 
L 329.535444 95.037947 
L 329.842821 93.056342 
L 330.125937 91.074738 
L 330.382725 89.093134 
L 330.611876 87.111529 
L 332.76806 87.111529 
L 332.76806 87.111529 
L 332.997212 89.093134 
L 333.254 91.074738 
L 333.537116 93.056342 
L 333.844493 95.037947 
L 334.173519 97.019551 
L 334.521307 99.001155 
L 334.884996 100.982759 
L 335.262015 102.964364 
L 335.650287 104.945968 
L 336.048321 106.927572 
L 336.455195 108.909176 
L 336.870433 110.890781 
L 337.293826 112.872385 
L 337.725208 114.853989 
L 338.164261 116.835594 
L 338.610353 118.817198 
L 339.062427 120.798802 
L 339.518937 122.780406 
L 339.977793 124.762011 
L 340.436304 126.743615 
L 340.891095 128.725219 
L 341.337988 130.706824 
L 341.771895 132.688428 
L 342.186753 134.670032 
L 342.57558 136.651636 
L 342.930686 138.633241 
L 343.244092 140.614845 
L 343.508129 142.596449 
L 343.716171 144.578053 
L 343.863394 146.559658 
L 343.947443 148.541262 
L 343.968885 150.522866 
L 343.931336 152.504471 
L 343.841241 154.486075 
L 343.707286 156.467679 
L 343.539542 158.449283 
L 343.348451 160.430888 
L 343.143807 162.412492 
L 342.933875 164.394096 
L 342.72479 166.375701 
L 342.520283 168.357305 
L 342.321779 170.338909 
L 342.12879 172.320513 
L 341.939521 174.302118 
L 341.751562 176.283722 
L 341.562517 178.265326 
L 341.370494 180.24693 
L 341.174373 182.228535 
L 340.97386 184.210139 
L 340.769369 186.191743 
L 340.561788 188.173348 
L 340.352214 190.154952 
L 340.141716 192.136556 
L 339.93115 194.11816 
L 339.721043 196.099765 
L 339.511528 198.081369 
L 339.302315 200.062973 
L 339.092684 202.044578 
L 338.881508 204.026182 
L 338.667307 206.007786 
L 338.448368 207.98939 
L 338.222906 209.970995 
L 337.989281 211.952599 
L 337.74622 213.934203 
L 337.49302 215.915807 
L 337.229671 217.897412 
L 336.956901 219.879016 
L 336.676104 221.86062 
L 336.3892 223.842225 
L 336.098435 225.823829 
L 335.806173 227.805433 
L 335.514725 229.787037 
L 335.226213 231.768642 
L 334.942505 233.750246 
L 334.6652 235.73185 
L 334.395652 237.713455 
L 334.135027 239.695059 
L 333.884362 241.676663 
L 333.644629 243.658267 
L 333.41679 245.639872 
L 333.201834 247.621476 
L 333.000791 249.60308 
L 332.814718 251.584684 
L 332.644651 253.566289 
L 332.491535 255.547893 
L 332.35613 257.529497 
L 332.238903 259.511102 
L 332.139936 261.492706 
L 332.058847 263.47431 
L 331.994752 265.455914 
L 331.946261 267.437519 
L 331.91153 269.419123 
L 331.888347 271.400727 
L 331.874257 273.382332 
L 331.866715 275.363936 
L 331.863245 277.34554 
L 331.861598 279.327144 
L 331.859887 281.308749 
L 331.856686 283.290353 
z
" clip-path="url(#p2ad871323b)" style="fill: #1f77b4; fill-opacity: 0.3"/>
   </g>
   <g id="PolyCollection_11">
    <path d="M 359.315251 275.158588 
L 358.637647 275.158588 
L 358.583971 273.218053 
L 358.522299 271.277519 
L 358.451588 269.336984 
L 358.370972 267.396449 
L 358.279844 265.455914 
L 358.177913 263.51538 
L 358.065202 261.574845 
L 357.941987 259.63431 
L 357.808672 257.693775 
L 357.665622 255.753241 
L 357.512974 253.812706 
L 357.350467 251.872171 
L 357.177314 249.931636 
L 356.992163 247.991102 
L 356.793172 246.050567 
L 356.578194 244.110032 
L 356.34508 242.169497 
L 356.092076 240.228963 
L 355.818248 238.288428 
L 355.523911 236.347893 
L 355.210957 234.407358 
L 354.883055 232.466824 
L 354.545644 230.526289 
L 354.205705 228.585754 
L 353.8713 226.645219 
L 353.550926 224.704684 
L 353.252739 222.76415 
L 352.983738 220.823615 
L 352.749026 218.88308 
L 352.55123 216.942545 
L 352.390168 215.002011 
L 352.262818 213.061476 
L 352.163564 211.120941 
L 352.084718 209.180406 
L 352.017213 207.239872 
L 351.951398 205.299337 
L 351.877823 203.358802 
L 351.787948 201.418267 
L 351.674691 199.477733 
L 351.532806 197.537198 
L 351.35907 195.596663 
L 351.152308 193.656128 
L 350.913268 191.715594 
L 350.644407 189.775059 
L 350.349602 187.834524 
L 350.033831 185.893989 
L 349.70285 183.953455 
L 349.362889 182.01292 
L 349.020389 180.072385 
L 348.681787 178.13185 
L 348.353363 176.191316 
L 348.04113 174.250781 
L 347.75076 172.310246 
L 347.487523 170.369711 
L 347.256212 168.429176 
L 347.061039 166.488642 
L 346.905498 164.548107 
L 346.792207 162.607572 
L 346.722745 160.667037 
L 346.697533 158.726503 
L 346.715773 156.785968 
L 346.775488 154.845433 
L 346.873659 152.904898 
L 347.006448 150.964364 
L 347.169488 149.023829 
L 347.358183 147.083294 
L 347.567994 145.142759 
L 347.794654 143.202225 
L 348.034318 141.26169 
L 348.283627 139.321155 
L 348.539724 137.38062 
L 348.800242 135.440086 
L 349.063299 133.499551 
L 349.327535 131.559016 
L 349.592182 129.618481 
L 349.857174 127.677947 
L 350.123259 125.737412 
L 350.39206 123.796877 
L 350.666061 121.856342 
L 350.948463 119.915807 
L 351.242906 117.975273 
L 351.553071 116.034738 
L 351.882198 114.094203 
L 352.232589 112.153668 
L 352.605164 110.213134 
L 352.999153 108.272599 
L 353.411968 106.332064 
L 353.839287 104.391529 
L 354.275345 102.450995 
L 354.713391 100.51046 
L 355.14624 98.569925 
L 355.566862 96.62939 
L 355.968903 94.688856 
L 356.3471 92.748321 
L 356.697536 90.807786 
L 357.017731 88.867251 
L 357.30658 86.926717 
L 357.564172 84.986182 
L 357.791539 83.045647 
L 360.161359 83.045647 
L 360.161359 83.045647 
L 360.388726 84.986182 
L 360.646318 86.926717 
L 360.935167 88.867251 
L 361.255362 90.807786 
L 361.605798 92.748321 
L 361.983995 94.688856 
L 362.386036 96.62939 
L 362.806658 98.569925 
L 363.239507 100.51046 
L 363.677552 102.450995 
L 364.113611 104.391529 
L 364.54093 106.332064 
L 364.953745 108.272599 
L 365.347734 110.213134 
L 365.720309 112.153668 
L 366.0707 114.094203 
L 366.399827 116.034738 
L 366.709992 117.975273 
L 367.004435 119.915807 
L 367.286837 121.856342 
L 367.560838 123.796877 
L 367.829639 125.737412 
L 368.095724 127.677947 
L 368.360716 129.618481 
L 368.625363 131.559016 
L 368.889598 133.499551 
L 369.152656 135.440086 
L 369.413174 137.38062 
L 369.669271 139.321155 
L 369.91858 141.26169 
L 370.158243 143.202225 
L 370.384904 145.142759 
L 370.594715 147.083294 
L 370.78341 149.023829 
L 370.94645 150.964364 
L 371.079239 152.904898 
L 371.17741 154.845433 
L 371.237125 156.785968 
L 371.255365 158.726503 
L 371.230153 160.667037 
L 371.160691 162.607572 
L 371.047399 164.548107 
L 370.891859 166.488642 
L 370.696686 168.429176 
L 370.465375 170.369711 
L 370.202138 172.310246 
L 369.911768 174.250781 
L 369.599535 176.191316 
L 369.271111 178.13185 
L 368.932509 180.072385 
L 368.590009 182.01292 
L 368.250048 183.953455 
L 367.919067 185.893989 
L 367.603296 187.834524 
L 367.308491 189.775059 
L 367.03963 191.715594 
L 366.80059 193.656128 
L 366.593827 195.596663 
L 366.420092 197.537198 
L 366.278207 199.477733 
L 366.16495 201.418267 
L 366.075074 203.358802 
L 366.0015 205.299337 
L 365.935684 207.239872 
L 365.868179 209.180406 
L 365.789334 211.120941 
L 365.69008 213.061476 
L 365.562729 215.002011 
L 365.401668 216.942545 
L 365.203871 218.88308 
L 364.969159 220.823615 
L 364.700159 222.76415 
L 364.401972 224.704684 
L 364.081598 226.645219 
L 363.747193 228.585754 
L 363.407253 230.526289 
L 363.069843 232.466824 
L 362.741941 234.407358 
L 362.428987 236.347893 
L 362.134649 238.288428 
L 361.860822 240.228963 
L 361.607817 242.169497 
L 361.374704 244.110032 
L 361.159725 246.050567 
L 360.960735 247.991102 
L 360.775584 249.931636 
L 360.602431 251.872171 
L 360.439924 253.812706 
L 360.287276 255.753241 
L 360.144226 257.693775 
L 360.010911 259.63431 
L 359.887695 261.574845 
L 359.774985 263.51538 
L 359.673054 265.455914 
L 359.581925 267.396449 
L 359.501309 269.336984 
L 359.430599 271.277519 
L 359.368926 273.218053 
L 359.315251 275.158588 
z
" clip-path="url(#p2ad871323b)" style="fill: #1f77b4; fill-opacity: 0.3"/>
   </g>
   <g id="PolyCollection_12">
    <path d="M 387.33784 256.862118 
L 385.078873 256.862118 
L 384.927019 255.075594 
L 384.763476 253.28907 
L 384.587873 251.502545 
L 384.399935 249.716021 
L 384.199557 247.929497 
L 383.986875 246.142973 
L 383.762296 244.356449 
L 383.526505 242.569925 
L 383.280423 240.783401 
L 383.025138 238.996877 
L 382.761821 237.210353 
L 382.491639 235.423829 
L 382.215698 233.637305 
L 381.93502 231.850781 
L 381.650564 230.064257 
L 381.363293 228.277733 
L 381.074264 226.491209 
L 380.784716 224.704684 
L 380.496143 222.91816 
L 380.210308 221.131636 
L 379.929198 219.345112 
L 379.654898 217.558588 
L 379.389405 215.772064 
L 379.134403 213.98554 
L 378.891019 212.199016 
L 378.659609 210.412492 
L 378.439618 208.625968 
L 378.229521 206.839444 
L 378.026885 205.05292 
L 377.828553 203.266396 
L 377.630925 201.479872 
L 377.430317 199.693348 
L 377.223361 197.906824 
L 377.00739 196.120299 
L 376.780767 194.333775 
L 376.543123 192.547251 
L 376.295461 190.760727 
L 376.040136 188.974203 
L 375.780698 187.187679 
L 375.521626 185.401155 
L 375.267989 183.614631 
L 375.025071 181.828107 
L 374.798004 180.041583 
L 374.591444 178.255059 
L 374.409314 176.468535 
L 374.25463 174.682011 
L 374.129416 172.895487 
L 374.034686 171.108963 
L 373.970481 169.322439 
L 373.935951 167.535914 
L 373.92944 165.74939 
L 373.948585 163.962866 
L 373.990402 162.176342 
L 374.05137 160.389818 
L 374.127531 158.603294 
L 374.214591 156.81677 
L 374.308059 155.030246 
L 374.403421 153.243722 
L 374.496352 151.457198 
L 374.582952 149.670674 
L 374.660004 147.88415 
L 374.725213 146.097626 
L 374.77742 144.311102 
L 374.816747 142.524578 
L 374.844669 140.738053 
L 374.863988 138.951529 
L 374.878724 137.165005 
L 374.893915 135.378481 
L 374.915358 133.591957 
L 374.949303 131.805433 
L 375.002142 130.018909 
L 375.080085 128.232385 
L 375.188875 126.445861 
L 375.333531 124.659337 
L 375.518132 122.872813 
L 375.745645 121.086289 
L 376.017791 119.299765 
L 376.334961 117.513241 
L 376.696171 115.726717 
L 377.099057 113.940193 
L 377.539933 112.153668 
L 378.013889 110.367144 
L 378.514956 108.58062 
L 379.036314 106.794096 
L 379.570558 105.007572 
L 380.109988 103.221048 
L 380.646922 101.434524 
L 381.17401 99.648 
L 381.684517 97.861476 
L 382.172568 96.074952 
L 382.633335 94.288428 
L 383.063146 92.501904 
L 383.459531 90.71538 
L 383.821183 88.928856 
L 384.147864 87.142332 
L 384.440257 85.355807 
L 384.69979 83.569283 
L 384.928436 81.782759 
L 385.128528 79.996235 
L 387.288184 79.996235 
L 387.288184 79.996235 
L 387.488277 81.782759 
L 387.716923 83.569283 
L 387.976456 85.355807 
L 388.268849 87.142332 
L 388.59553 88.928856 
L 388.957182 90.71538 
L 389.353567 92.501904 
L 389.783378 94.288428 
L 390.244145 96.074952 
L 390.732196 97.861476 
L 391.242703 99.648 
L 391.769791 101.434524 
L 392.306725 103.221048 
L 392.846155 105.007572 
L 393.380399 106.794096 
L 393.901757 108.58062 
L 394.402824 110.367144 
L 394.87678 112.153668 
L 395.317656 113.940193 
L 395.720542 115.726717 
L 396.081752 117.513241 
L 396.398922 119.299765 
L 396.671068 121.086289 
L 396.898581 122.872813 
L 397.083182 124.659337 
L 397.227838 126.445861 
L 397.336628 128.232385 
L 397.414571 130.018909 
L 397.467409 131.805433 
L 397.501355 133.591957 
L 397.522798 135.378481 
L 397.537989 137.165005 
L 397.552725 138.951529 
L 397.572044 140.738053 
L 397.599966 142.524578 
L 397.639293 144.311102 
L 397.6915 146.097626 
L 397.756709 147.88415 
L 397.833761 149.670674 
L 397.920361 151.457198 
L 398.013292 153.243722 
L 398.108654 155.030246 
L 398.202122 156.81677 
L 398.289181 158.603294 
L 398.365343 160.389818 
L 398.426311 162.176342 
L 398.468128 163.962866 
L 398.487273 165.74939 
L 398.480762 167.535914 
L 398.446232 169.322439 
L 398.382027 171.108963 
L 398.287297 172.895487 
L 398.162083 174.682011 
L 398.007399 176.468535 
L 397.825269 178.255059 
L 397.618709 180.041583 
L 397.391642 181.828107 
L 397.148724 183.614631 
L 396.895087 185.401155 
L 396.636015 187.187679 
L 396.376577 188.974203 
L 396.121252 190.760727 
L 395.87359 192.547251 
L 395.635946 194.333775 
L 395.409323 196.120299 
L 395.193352 197.906824 
L 394.986396 199.693348 
L 394.785788 201.479872 
L 394.58816 203.266396 
L 394.389828 205.05292 
L 394.187192 206.839444 
L 393.977094 208.625968 
L 393.757104 210.412492 
L 393.525694 212.199016 
L 393.28231 213.98554 
L 393.027308 215.772064 
L 392.761815 217.558588 
L 392.487515 219.345112 
L 392.206404 221.131636 
L 391.92057 222.91816 
L 391.631997 224.704684 
L 391.342449 226.491209 
L 391.05342 228.277733 
L 390.766149 230.064257 
L 390.481693 231.850781 
L 390.201015 233.637305 
L 389.925074 235.423829 
L 389.654892 237.210353 
L 389.391575 238.996877 
L 389.13629 240.783401 
L 388.890208 242.569925 
L 388.654417 244.356449 
L 388.429838 246.142973 
L 388.217156 247.929497 
L 388.016778 249.716021 
L 387.82884 251.502545 
L 387.653237 253.28907 
L 387.489694 255.075594 
L 387.33784 256.862118 
z
" clip-path="url(#p2ad871323b)" style="fill: #1f77b4; fill-opacity: 0.3"/>
   </g>
   <g id="matplotlib.axis_1">
    <g id="xtick_1">
     <g id="line2d_1">
      <defs>
       <path id="mb13837d01a" d="M 0 0 
L 0 3.5 
" style="stroke: #000000; stroke-width: 0.8"/>
      </defs>
      <g>
       <use xlink:href="#mb13837d01a" x="58.825163" y="307.584" style="stroke: #000000; stroke-width: 0.8"/>
      </g>
     </g>
     <g id="text_1">
      <!-- 0 -->
      <g transform="translate(55.643913 322.182437)scale(0.1 -0.1)">
       <defs>
        <path id="DejaVuSans-30" d="M 2034 4250 
Q 1547 4250 1301 3770 
Q 1056 3291 1056 2328 
Q 1056 1369 1301 889 
Q 1547 409 2034 409 
Q 2525 409 2770 889 
Q 3016 1369 3016 2328 
Q 3016 3291 2770 3770 
Q 2525 4250 2034 4250 
z
M 2034 4750 
Q 2819 4750 3233 4129 
Q 3647 3509 3647 2328 
Q 3647 1150 3233 529 
Q 2819 -91 2034 -91 
Q 1250 -91 836 529 
Q 422 1150 422 2328 
Q 422 3509 836 4129 
Q 1250 4750 2034 4750 
z
" transform="scale(0.015625)"/>
       </defs>
       <use xlink:href="#DejaVuSans-30"/>
      </g>
     </g>
    </g>
    <g id="xtick_2">
     <g id="line2d_2">
      <g>
       <use xlink:href="#mb13837d01a" x="113.398124" y="307.584" style="stroke: #000000; stroke-width: 0.8"/>
      </g>
     </g>
     <g id="text_2">
      <!-- 1000 -->
      <g transform="translate(100.673124 322.182437)scale(0.1 -0.1)">
       <defs>
        <path id="DejaVuSans-31" d="M 794 531 
L 1825 531 
L 1825 4091 
L 703 3866 
L 703 4441 
L 1819 4666 
L 2450 4666 
L 2450 531 
L 3481 531 
L 3481 0 
L 794 0 
L 794 531 
z
" transform="scale(0.015625)"/>
       </defs>
       <use xlink:href="#DejaVuSans-31"/>
       <use xlink:href="#DejaVuSans-30" x="63.623047"/>
       <use xlink:href="#DejaVuSans-30" x="127.246094"/>
       <use xlink:href="#DejaVuSans-30" x="190.869141"/>
      </g>
     </g>
    </g>
    <g id="xtick_3">
     <g id="line2d_3">
      <g>
       <use xlink:href="#mb13837d01a" x="167.971085" y="307.584" style="stroke: #000000; stroke-width: 0.8"/>
      </g>
     </g>
     <g id="text_3">
      <!-- 2000 -->
      <g transform="translate(155.246085 322.182437)scale(0.1 -0.1)">
       <defs>
        <path id="DejaVuSans-32" d="M 1228 531 
L 3431 531 
L 3431 0 
L 469 0 
L 469 531 
Q 828 903 1448 1529 
Q 2069 2156 2228 2338 
Q 2531 2678 2651 2914 
Q 2772 3150 2772 3378 
Q 2772 3750 2511 3984 
Q 2250 4219 1831 4219 
Q 1534 4219 1204 4116 
Q 875 4013 500 3803 
L 500 4441 
Q 881 4594 1212 4672 
Q 1544 4750 1819 4750 
Q 2544 4750 2975 4387 
Q 3406 4025 3406 3419 
Q 3406 3131 3298 2873 
Q 3191 2616 2906 2266 
Q 2828 2175 2409 1742 
Q 1991 1309 1228 531 
z
" transform="scale(0.015625)"/>
       </defs>
       <use xlink:href="#DejaVuSans-32"/>
       <use xlink:href="#DejaVuSans-30" x="63.623047"/>
       <use xlink:href="#DejaVuSans-30" x="127.246094"/>
       <use xlink:href="#DejaVuSans-30" x="190.869141"/>
      </g>
     </g>
    </g>
    <g id="xtick_4">
     <g id="line2d_4">
      <g>
       <use xlink:href="#mb13837d01a" x="222.544046" y="307.584" style="stroke: #000000; stroke-width: 0.8"/>
      </g>
     </g>
     <g id="text_4">
      <!-- 3000 -->
      <g transform="translate(209.819046 322.182437)scale(0.1 -0.1)">
       <defs>
        <path id="DejaVuSans-33" d="M 2597 2516 
Q 3050 2419 3304 2112 
Q 3559 1806 3559 1356 
Q 3559 666 3084 287 
Q 2609 -91 1734 -91 
Q 1441 -91 1130 -33 
Q 819 25 488 141 
L 488 750 
Q 750 597 1062 519 
Q 1375 441 1716 441 
Q 2309 441 2620 675 
Q 2931 909 2931 1356 
Q 2931 1769 2642 2001 
Q 2353 2234 1838 2234 
L 1294 2234 
L 1294 2753 
L 1863 2753 
Q 2328 2753 2575 2939 
Q 2822 3125 2822 3475 
Q 2822 3834 2567 4026 
Q 2313 4219 1838 4219 
Q 1578 4219 1281 4162 
Q 984 4106 628 3988 
L 628 4550 
Q 988 4650 1302 4700 
Q 1616 4750 1894 4750 
Q 2613 4750 3031 4423 
Q 3450 4097 3450 3541 
Q 3450 3153 3228 2886 
Q 3006 2619 2597 2516 
z
" transform="scale(0.015625)"/>
       </defs>
       <use xlink:href="#DejaVuSans-33"/>
       <use xlink:href="#DejaVuSans-30" x="63.623047"/>
       <use xlink:href="#DejaVuSans-30" x="127.246094"/>
       <use xlink:href="#DejaVuSans-30" x="190.869141"/>
      </g>
     </g>
    </g>
    <g id="xtick_5">
     <g id="line2d_5">
      <g>
       <use xlink:href="#mb13837d01a" x="277.117007" y="307.584" style="stroke: #000000; stroke-width: 0.8"/>
      </g>
     </g>
     <g id="text_5">
      <!-- 4000 -->
      <g transform="translate(264.392007 322.182437)scale(0.1 -0.1)">
       <defs>
        <path id="DejaVuSans-34" d="M 2419 4116 
L 825 1625 
L 2419 1625 
L 2419 4116 
z
M 2253 4666 
L 3047 4666 
L 3047 1625 
L 3713 1625 
L 3713 1100 
L 3047 1100 
L 3047 0 
L 2419 0 
L 2419 1100 
L 313 1100 
L 313 1709 
L 2253 4666 
z
" transform="scale(0.015625)"/>
       </defs>
       <use xlink:href="#DejaVuSans-34"/>
       <use xlink:href="#DejaVuSans-30" x="63.623047"/>
       <use xlink:href="#DejaVuSans-30" x="127.246094"/>
       <use xlink:href="#DejaVuSans-30" x="190.869141"/>
      </g>
     </g>
    </g>
    <g id="xtick_6">
     <g id="line2d_6">
      <g>
       <use xlink:href="#mb13837d01a" x="331.689968" y="307.584" style="stroke: #000000; stroke-width: 0.8"/>
      </g>
     </g>
     <g id="text_6">
      <!-- 5000 -->
      <g transform="translate(318.964968 322.182437)scale(0.1 -0.1)">
       <defs>
        <path id="DejaVuSans-35" d="M 691 4666 
L 3169 4666 
L 3169 4134 
L 1269 4134 
L 1269 2991 
Q 1406 3038 1543 3061 
Q 1681 3084 1819 3084 
Q 2600 3084 3056 2656 
Q 3513 2228 3513 1497 
Q 3513 744 3044 326 
Q 2575 -91 1722 -91 
Q 1428 -91 1123 -41 
Q 819 9 494 109 
L 494 744 
Q 775 591 1075 516 
Q 1375 441 1709 441 
Q 2250 441 2565 725 
Q 2881 1009 2881 1497 
Q 2881 1984 2565 2268 
Q 2250 2553 1709 2553 
Q 1456 2553 1204 2497 
Q 953 2441 691 2322 
L 691 4666 
z
" transform="scale(0.015625)"/>
       </defs>
       <use xlink:href="#DejaVuSans-35"/>
       <use xlink:href="#DejaVuSans-30" x="63.623047"/>
       <use xlink:href="#DejaVuSans-30" x="127.246094"/>
       <use xlink:href="#DejaVuSans-30" x="190.869141"/>
      </g>
     </g>
    </g>
    <g id="xtick_7">
     <g id="line2d_7">
      <g>
       <use xlink:href="#mb13837d01a" x="386.262929" y="307.584" style="stroke: #000000; stroke-width: 0.8"/>
      </g>
     </g>
     <g id="text_7">
      <!-- 6000 -->
      <g transform="translate(373.537929 322.182437)scale(0.1 -0.1)">
       <defs>
        <path id="DejaVuSans-36" d="M 2113 2584 
Q 1688 2584 1439 2293 
Q 1191 2003 1191 1497 
Q 1191 994 1439 701 
Q 1688 409 2113 409 
Q 2538 409 2786 701 
Q 3034 994 3034 1497 
Q 3034 2003 2786 2293 
Q 2538 2584 2113 2584 
z
M 3366 4563 
L 3366 3988 
Q 3128 4100 2886 4159 
Q 2644 4219 2406 4219 
Q 1781 4219 1451 3797 
Q 1122 3375 1075 2522 
Q 1259 2794 1537 2939 
Q 1816 3084 2150 3084 
Q 2853 3084 3261 2657 
Q 3669 2231 3669 1497 
Q 3669 778 3244 343 
Q 2819 -91 2113 -91 
Q 1303 -91 875 529 
Q 447 1150 447 2328 
Q 447 3434 972 4092 
Q 1497 4750 2381 4750 
Q 2619 4750 2861 4703 
Q 3103 4656 3366 4563 
z
" transform="scale(0.015625)"/>
       </defs>
       <use xlink:href="#DejaVuSans-36"/>
       <use xlink:href="#DejaVuSans-30" x="63.623047"/>
       <use xlink:href="#DejaVuSans-30" x="127.246094"/>
       <use xlink:href="#DejaVuSans-30" x="190.869141"/>
      </g>
     </g>
    </g>
    <g id="text_8">
     <!-- Learned Episodes -->
     <g transform="translate(192.102187 335.860562)scale(0.1 -0.1)">
      <defs>
       <path id="DejaVuSans-4c" d="M 628 4666 
L 1259 4666 
L 1259 531 
L 3531 531 
L 3531 0 
L 628 0 
L 628 4666 
z
" transform="scale(0.015625)"/>
       <path id="DejaVuSans-65" d="M 3597 1894 
L 3597 1613 
L 953 1613 
Q 991 1019 1311 708 
Q 1631 397 2203 397 
Q 2534 397 2845 478 
Q 3156 559 3463 722 
L 3463 178 
Q 3153 47 2828 -22 
Q 2503 -91 2169 -91 
Q 1331 -91 842 396 
Q 353 884 353 1716 
Q 353 2575 817 3079 
Q 1281 3584 2069 3584 
Q 2775 3584 3186 3129 
Q 3597 2675 3597 1894 
z
M 3022 2063 
Q 3016 2534 2758 2815 
Q 2500 3097 2075 3097 
Q 1594 3097 1305 2825 
Q 1016 2553 972 2059 
L 3022 2063 
z
" transform="scale(0.015625)"/>
       <path id="DejaVuSans-61" d="M 2194 1759 
Q 1497 1759 1228 1600 
Q 959 1441 959 1056 
Q 959 750 1161 570 
Q 1363 391 1709 391 
Q 2188 391 2477 730 
Q 2766 1069 2766 1631 
L 2766 1759 
L 2194 1759 
z
M 3341 1997 
L 3341 0 
L 2766 0 
L 2766 531 
Q 2569 213 2275 61 
Q 1981 -91 1556 -91 
Q 1019 -91 701 211 
Q 384 513 384 1019 
Q 384 1609 779 1909 
Q 1175 2209 1959 2209 
L 2766 2209 
L 2766 2266 
Q 2766 2663 2505 2880 
Q 2244 3097 1772 3097 
Q 1472 3097 1187 3025 
Q 903 2953 641 2809 
L 641 3341 
Q 956 3463 1253 3523 
Q 1550 3584 1831 3584 
Q 2591 3584 2966 3190 
Q 3341 2797 3341 1997 
z
" transform="scale(0.015625)"/>
       <path id="DejaVuSans-72" d="M 2631 2963 
Q 2534 3019 2420 3045 
Q 2306 3072 2169 3072 
Q 1681 3072 1420 2755 
Q 1159 2438 1159 1844 
L 1159 0 
L 581 0 
L 581 3500 
L 1159 3500 
L 1159 2956 
Q 1341 3275 1631 3429 
Q 1922 3584 2338 3584 
Q 2397 3584 2469 3576 
Q 2541 3569 2628 3553 
L 2631 2963 
z
" transform="scale(0.015625)"/>
       <path id="DejaVuSans-6e" d="M 3513 2113 
L 3513 0 
L 2938 0 
L 2938 2094 
Q 2938 2591 2744 2837 
Q 2550 3084 2163 3084 
Q 1697 3084 1428 2787 
Q 1159 2491 1159 1978 
L 1159 0 
L 581 0 
L 581 3500 
L 1159 3500 
L 1159 2956 
Q 1366 3272 1645 3428 
Q 1925 3584 2291 3584 
Q 2894 3584 3203 3211 
Q 3513 2838 3513 2113 
z
" transform="scale(0.015625)"/>
       <path id="DejaVuSans-64" d="M 2906 2969 
L 2906 4863 
L 3481 4863 
L 3481 0 
L 2906 0 
L 2906 525 
Q 2725 213 2448 61 
Q 2172 -91 1784 -91 
Q 1150 -91 751 415 
Q 353 922 353 1747 
Q 353 2572 751 3078 
Q 1150 3584 1784 3584 
Q 2172 3584 2448 3432 
Q 2725 3281 2906 2969 
z
M 947 1747 
Q 947 1113 1208 752 
Q 1469 391 1925 391 
Q 2381 391 2643 752 
Q 2906 1113 2906 1747 
Q 2906 2381 2643 2742 
Q 2381 3103 1925 3103 
Q 1469 3103 1208 2742 
Q 947 2381 947 1747 
z
" transform="scale(0.015625)"/>
       <path id="DejaVuSans-20" transform="scale(0.015625)"/>
       <path id="DejaVuSans-45" d="M 628 4666 
L 3578 4666 
L 3578 4134 
L 1259 4134 
L 1259 2753 
L 3481 2753 
L 3481 2222 
L 1259 2222 
L 1259 531 
L 3634 531 
L 3634 0 
L 628 0 
L 628 4666 
z
" transform="scale(0.015625)"/>
       <path id="DejaVuSans-70" d="M 1159 525 
L 1159 -1331 
L 581 -1331 
L 581 3500 
L 1159 3500 
L 1159 2969 
Q 1341 3281 1617 3432 
Q 1894 3584 2278 3584 
Q 2916 3584 3314 3078 
Q 3713 2572 3713 1747 
Q 3713 922 3314 415 
Q 2916 -91 2278 -91 
Q 1894 -91 1617 61 
Q 1341 213 1159 525 
z
M 3116 1747 
Q 3116 2381 2855 2742 
Q 2594 3103 2138 3103 
Q 1681 3103 1420 2742 
Q 1159 2381 1159 1747 
Q 1159 1113 1420 752 
Q 1681 391 2138 391 
Q 2594 391 2855 752 
Q 3116 1113 3116 1747 
z
" transform="scale(0.015625)"/>
       <path id="DejaVuSans-69" d="M 603 3500 
L 1178 3500 
L 1178 0 
L 603 0 
L 603 3500 
z
M 603 4863 
L 1178 4863 
L 1178 4134 
L 603 4134 
L 603 4863 
z
" transform="scale(0.015625)"/>
       <path id="DejaVuSans-73" d="M 2834 3397 
L 2834 2853 
Q 2591 2978 2328 3040 
Q 2066 3103 1784 3103 
Q 1356 3103 1142 2972 
Q 928 2841 928 2578 
Q 928 2378 1081 2264 
Q 1234 2150 1697 2047 
L 1894 2003 
Q 2506 1872 2764 1633 
Q 3022 1394 3022 966 
Q 3022 478 2636 193 
Q 2250 -91 1575 -91 
Q 1294 -91 989 -36 
Q 684 19 347 128 
L 347 722 
Q 666 556 975 473 
Q 1284 391 1588 391 
Q 1994 391 2212 530 
Q 2431 669 2431 922 
Q 2431 1156 2273 1281 
Q 2116 1406 1581 1522 
L 1381 1569 
Q 847 1681 609 1914 
Q 372 2147 372 2553 
Q 372 3047 722 3315 
Q 1072 3584 1716 3584 
Q 2034 3584 2315 3537 
Q 2597 3491 2834 3397 
z
" transform="scale(0.015625)"/>
       <path id="DejaVuSans-6f" d="M 1959 3097 
Q 1497 3097 1228 2736 
Q 959 2375 959 1747 
Q 959 1119 1226 758 
Q 1494 397 1959 397 
Q 2419 397 2687 759 
Q 2956 1122 2956 1747 
Q 2956 2369 2687 2733 
Q 2419 3097 1959 3097 
z
M 1959 3584 
Q 2709 3584 3137 3096 
Q 3566 2609 3566 1747 
Q 3566 888 3137 398 
Q 2709 -91 1959 -91 
Q 1206 -91 779 398 
Q 353 888 353 1747 
Q 353 2609 779 3096 
Q 1206 3584 1959 3584 
z
" transform="scale(0.015625)"/>
      </defs>
      <use xlink:href="#DejaVuSans-4c"/>
      <use xlink:href="#DejaVuSans-65" x="53.962891"/>
      <use xlink:href="#DejaVuSans-61" x="115.486328"/>
      <use xlink:href="#DejaVuSans-72" x="176.765625"/>
      <use xlink:href="#DejaVuSans-6e" x="216.128906"/>
      <use xlink:href="#DejaVuSans-65" x="279.507812"/>
      <use xlink:href="#DejaVuSans-64" x="341.03125"/>
      <use xlink:href="#DejaVuSans-20" x="404.507812"/>
      <use xlink:href="#DejaVuSans-45" x="436.294922"/>
      <use xlink:href="#DejaVuSans-70" x="499.478516"/>
      <use xlink:href="#DejaVuSans-69" x="562.955078"/>
      <use xlink:href="#DejaVuSans-73" x="590.738281"/>
      <use xlink:href="#DejaVuSans-6f" x="642.837891"/>
      <use xlink:href="#DejaVuSans-64" x="704.019531"/>
      <use xlink:href="#DejaVuSans-65" x="767.496094"/>
      <use xlink:href="#DejaVuSans-73" x="829.019531"/>
     </g>
    </g>
   </g>
   <g id="matplotlib.axis_2">
    <g id="ytick_1">
     <g id="line2d_8">
      <defs>
       <path id="m00e7ae9276" d="M 0 0 
L -3.5 0 
" style="stroke: #000000; stroke-width: 0.8"/>
      </defs>
      <g>
       <use xlink:href="#m00e7ae9276" x="57.6" y="303.619765" style="stroke: #000000; stroke-width: 0.8"/>
      </g>
     </g>
     <g id="text_9">
      <!-- 50 -->
      <g transform="translate(37.875 307.418983)scale(0.1 -0.1)">
       <use xlink:href="#DejaVuSans-35"/>
       <use xlink:href="#DejaVuSans-30" x="63.623047"/>
      </g>
     </g>
    </g>
    <g id="ytick_2">
     <g id="line2d_9">
      <g>
       <use xlink:href="#m00e7ae9276" x="57.6" y="252.796235" style="stroke: #000000; stroke-width: 0.8"/>
      </g>
     </g>
     <g id="text_10">
      <!-- 100 -->
      <g transform="translate(31.5125 256.595454)scale(0.1 -0.1)">
       <use xlink:href="#DejaVuSans-31"/>
       <use xlink:href="#DejaVuSans-30" x="63.623047"/>
       <use xlink:href="#DejaVuSans-30" x="127.246094"/>
      </g>
     </g>
    </g>
    <g id="ytick_3">
     <g id="line2d_10">
      <g>
       <use xlink:href="#m00e7ae9276" x="57.6" y="201.972706" style="stroke: #000000; stroke-width: 0.8"/>
      </g>
     </g>
     <g id="text_11">
      <!-- 150 -->
      <g transform="translate(31.5125 205.771925)scale(0.1 -0.1)">
       <use xlink:href="#DejaVuSans-31"/>
       <use xlink:href="#DejaVuSans-35" x="63.623047"/>
       <use xlink:href="#DejaVuSans-30" x="127.246094"/>
      </g>
     </g>
    </g>
    <g id="ytick_4">
     <g id="line2d_11">
      <g>
       <use xlink:href="#m00e7ae9276" x="57.6" y="151.149176" style="stroke: #000000; stroke-width: 0.8"/>
      </g>
     </g>
     <g id="text_12">
      <!-- 200 -->
      <g transform="translate(31.5125 154.948395)scale(0.1 -0.1)">
       <use xlink:href="#DejaVuSans-32"/>
       <use xlink:href="#DejaVuSans-30" x="63.623047"/>
       <use xlink:href="#DejaVuSans-30" x="127.246094"/>
      </g>
     </g>
    </g>
    <g id="ytick_5">
     <g id="line2d_12">
      <g>
       <use xlink:href="#m00e7ae9276" x="57.6" y="100.325647" style="stroke: #000000; stroke-width: 0.8"/>
      </g>
     </g>
     <g id="text_13">
      <!-- 250 -->
      <g transform="translate(31.5125 104.124866)scale(0.1 -0.1)">
       <use xlink:href="#DejaVuSans-32"/>
       <use xlink:href="#DejaVuSans-35" x="63.623047"/>
       <use xlink:href="#DejaVuSans-30" x="127.246094"/>
      </g>
     </g>
    </g>
    <g id="ytick_6">
     <g id="line2d_13">
      <g>
       <use xlink:href="#m00e7ae9276" x="57.6" y="49.502118" style="stroke: #000000; stroke-width: 0.8"/>
      </g>
     </g>
     <g id="text_14">
      <!-- 300 -->
      <g transform="translate(31.5125 53.301336)scale(0.1 -0.1)">
       <use xlink:href="#DejaVuSans-33"/>
       <use xlink:href="#DejaVuSans-30" x="63.623047"/>
       <use xlink:href="#DejaVuSans-30" x="127.246094"/>
      </g>
     </g>
    </g>
    <g id="text_15">
     <!-- Reward Density -->
     <g transform="translate(25.432812 213.74675)rotate(-90)scale(0.1 -0.1)">
      <defs>
       <path id="DejaVuSans-52" d="M 2841 2188 
Q 3044 2119 3236 1894 
Q 3428 1669 3622 1275 
L 4263 0 
L 3584 0 
L 2988 1197 
Q 2756 1666 2539 1819 
Q 2322 1972 1947 1972 
L 1259 1972 
L 1259 0 
L 628 0 
L 628 4666 
L 2053 4666 
Q 2853 4666 3247 4331 
Q 3641 3997 3641 3322 
Q 3641 2881 3436 2590 
Q 3231 2300 2841 2188 
z
M 1259 4147 
L 1259 2491 
L 2053 2491 
Q 2509 2491 2742 2702 
Q 2975 2913 2975 3322 
Q 2975 3731 2742 3939 
Q 2509 4147 2053 4147 
L 1259 4147 
z
" transform="scale(0.015625)"/>
       <path id="DejaVuSans-77" d="M 269 3500 
L 844 3500 
L 1563 769 
L 2278 3500 
L 2956 3500 
L 3675 769 
L 4391 3500 
L 4966 3500 
L 4050 0 
L 3372 0 
L 2619 2869 
L 1863 0 
L 1184 0 
L 269 3500 
z
" transform="scale(0.015625)"/>
       <path id="DejaVuSans-44" d="M 1259 4147 
L 1259 519 
L 2022 519 
Q 2988 519 3436 956 
Q 3884 1394 3884 2338 
Q 3884 3275 3436 3711 
Q 2988 4147 2022 4147 
L 1259 4147 
z
M 628 4666 
L 1925 4666 
Q 3281 4666 3915 4102 
Q 4550 3538 4550 2338 
Q 4550 1131 3912 565 
Q 3275 0 1925 0 
L 628 0 
L 628 4666 
z
" transform="scale(0.015625)"/>
       <path id="DejaVuSans-74" d="M 1172 4494 
L 1172 3500 
L 2356 3500 
L 2356 3053 
L 1172 3053 
L 1172 1153 
Q 1172 725 1289 603 
Q 1406 481 1766 481 
L 2356 481 
L 2356 0 
L 1766 0 
Q 1100 0 847 248 
Q 594 497 594 1153 
L 594 3053 
L 172 3053 
L 172 3500 
L 594 3500 
L 594 4494 
L 1172 4494 
z
" transform="scale(0.015625)"/>
       <path id="DejaVuSans-79" d="M 2059 -325 
Q 1816 -950 1584 -1140 
Q 1353 -1331 966 -1331 
L 506 -1331 
L 506 -850 
L 844 -850 
Q 1081 -850 1212 -737 
Q 1344 -625 1503 -206 
L 1606 56 
L 191 3500 
L 800 3500 
L 1894 763 
L 2988 3500 
L 3597 3500 
L 2059 -325 
z
" transform="scale(0.015625)"/>
      </defs>
      <use xlink:href="#DejaVuSans-52"/>
      <use xlink:href="#DejaVuSans-65" x="64.982422"/>
      <use xlink:href="#DejaVuSans-77" x="126.505859"/>
      <use xlink:href="#DejaVuSans-61" x="208.292969"/>
      <use xlink:href="#DejaVuSans-72" x="269.572266"/>
      <use xlink:href="#DejaVuSans-64" x="308.935547"/>
      <use xlink:href="#DejaVuSans-20" x="372.412109"/>
      <use xlink:href="#DejaVuSans-44" x="404.199219"/>
      <use xlink:href="#DejaVuSans-65" x="481.201172"/>
      <use xlink:href="#DejaVuSans-6e" x="542.724609"/>
      <use xlink:href="#DejaVuSans-73" x="606.103516"/>
      <use xlink:href="#DejaVuSans-69" x="658.203125"/>
      <use xlink:href="#DejaVuSans-74" x="685.986328"/>
      <use xlink:href="#DejaVuSans-79" x="725.195312"/>
     </g>
    </g>
   </g>
   <g id="LineCollection_1">
    <path d="M 79.972185 183.176132 
L 92.251102 183.176132 
" clip-path="url(#p2ad871323b)" style="fill: none; stroke: #1f77b4; stroke-width: 1.5"/>
    <path d="M 107.258666 160.744659 
L 119.537582 160.744659 
" clip-path="url(#p2ad871323b)" style="fill: none; stroke: #1f77b4; stroke-width: 1.5"/>
    <path d="M 134.545146 155.792414 
L 146.824063 155.792414 
" clip-path="url(#p2ad871323b)" style="fill: none; stroke: #1f77b4; stroke-width: 1.5"/>
    <path d="M 161.831627 167.498089 
L 174.110543 167.498089 
" clip-path="url(#p2ad871323b)" style="fill: none; stroke: #1f77b4; stroke-width: 1.5"/>
    <path d="M 189.118108 164.651972 
L 201.397024 164.651972 
" clip-path="url(#p2ad871323b)" style="fill: none; stroke: #1f77b4; stroke-width: 1.5"/>
    <path d="M 216.404588 165.497675 
L 228.683504 165.497675 
" clip-path="url(#p2ad871323b)" style="fill: none; stroke: #1f77b4; stroke-width: 1.5"/>
    <path d="M 243.691069 163.285835 
L 255.969985 163.285835 
" clip-path="url(#p2ad871323b)" style="fill: none; stroke: #1f77b4; stroke-width: 1.5"/>
    <path d="M 270.977549 160.675539 
L 283.256465 160.675539 
" clip-path="url(#p2ad871323b)" style="fill: none; stroke: #1f77b4; stroke-width: 1.5"/>
    <path d="M 298.26403 166.473487 
L 310.542946 166.473487 
" clip-path="url(#p2ad871323b)" style="fill: none; stroke: #1f77b4; stroke-width: 1.5"/>
    <path d="M 325.55051 165.871736 
L 337.829426 165.871736 
" clip-path="url(#p2ad871323b)" style="fill: none; stroke: #1f77b4; stroke-width: 1.5"/>
    <path d="M 352.836991 165.619652 
L 365.115907 165.619652 
" clip-path="url(#p2ad871323b)" style="fill: none; stroke: #1f77b4; stroke-width: 1.5"/>
    <path d="M 380.068898 163.513525 
L 392.347815 163.513525 
" clip-path="url(#p2ad871323b)" style="fill: none; stroke: #1f77b4; stroke-width: 1.5"/>
   </g>
   <g id="LineCollection_2">
    <path d="M 79.972185 77.963294 
L 92.251102 77.963294 
" clip-path="url(#p2ad871323b)" style="fill: none; stroke: #1f77b4; stroke-width: 1.5"/>
    <path d="M 107.258666 54.584471 
L 119.537582 54.584471 
" clip-path="url(#p2ad871323b)" style="fill: none; stroke: #1f77b4; stroke-width: 1.5"/>
    <path d="M 134.545146 53.568 
L 146.824063 53.568 
" clip-path="url(#p2ad871323b)" style="fill: none; stroke: #1f77b4; stroke-width: 1.5"/>
    <path d="M 161.831627 68.815059 
L 174.110543 68.815059 
" clip-path="url(#p2ad871323b)" style="fill: none; stroke: #1f77b4; stroke-width: 1.5"/>
    <path d="M 189.118108 65.765647 
L 201.397024 65.765647 
" clip-path="url(#p2ad871323b)" style="fill: none; stroke: #1f77b4; stroke-width: 1.5"/>
    <path d="M 216.404588 87.111529 
L 228.683504 87.111529 
" clip-path="url(#p2ad871323b)" style="fill: none; stroke: #1f77b4; stroke-width: 1.5"/>
    <path d="M 243.691069 90.160941 
L 255.969985 90.160941 
" clip-path="url(#p2ad871323b)" style="fill: none; stroke: #1f77b4; stroke-width: 1.5"/>
    <path d="M 270.977549 63.732706 
L 283.256465 63.732706 
" clip-path="url(#p2ad871323b)" style="fill: none; stroke: #1f77b4; stroke-width: 1.5"/>
    <path d="M 298.26403 83.045647 
L 310.542946 83.045647 
" clip-path="url(#p2ad871323b)" style="fill: none; stroke: #1f77b4; stroke-width: 1.5"/>
    <path d="M 325.55051 87.111529 
L 337.829426 87.111529 
" clip-path="url(#p2ad871323b)" style="fill: none; stroke: #1f77b4; stroke-width: 1.5"/>
    <path d="M 352.836991 83.045647 
L 365.115907 83.045647 
" clip-path="url(#p2ad871323b)" style="fill: none; stroke: #1f77b4; stroke-width: 1.5"/>
    <path d="M 380.068898 79.996235 
L 392.347815 79.996235 
" clip-path="url(#p2ad871323b)" style="fill: none; stroke: #1f77b4; stroke-width: 1.5"/>
   </g>
   <g id="LineCollection_3">
    <path d="M 79.972185 295.488 
L 92.251102 295.488 
" clip-path="url(#p2ad871323b)" style="fill: none; stroke: #1f77b4; stroke-width: 1.5"/>
    <path d="M 107.258666 256.862118 
L 119.537582 256.862118 
" clip-path="url(#p2ad871323b)" style="fill: none; stroke: #1f77b4; stroke-width: 1.5"/>
    <path d="M 134.545146 251.779765 
L 146.824063 251.779765 
" clip-path="url(#p2ad871323b)" style="fill: none; stroke: #1f77b4; stroke-width: 1.5"/>
    <path d="M 161.831627 252.796235 
L 174.110543 252.796235 
" clip-path="url(#p2ad871323b)" style="fill: none; stroke: #1f77b4; stroke-width: 1.5"/>
    <path d="M 189.118108 270.076235 
L 201.397024 270.076235 
" clip-path="url(#p2ad871323b)" style="fill: none; stroke: #1f77b4; stroke-width: 1.5"/>
    <path d="M 216.404588 250.763294 
L 228.683504 250.763294 
" clip-path="url(#p2ad871323b)" style="fill: none; stroke: #1f77b4; stroke-width: 1.5"/>
    <path d="M 243.691069 262.960941 
L 255.969985 262.960941 
" clip-path="url(#p2ad871323b)" style="fill: none; stroke: #1f77b4; stroke-width: 1.5"/>
    <path d="M 270.977549 258.895059 
L 283.256465 258.895059 
" clip-path="url(#p2ad871323b)" style="fill: none; stroke: #1f77b4; stroke-width: 1.5"/>
    <path d="M 298.26403 254.829176 
L 310.542946 254.829176 
" clip-path="url(#p2ad871323b)" style="fill: none; stroke: #1f77b4; stroke-width: 1.5"/>
    <path d="M 325.55051 283.290353 
L 337.829426 283.290353 
" clip-path="url(#p2ad871323b)" style="fill: none; stroke: #1f77b4; stroke-width: 1.5"/>
    <path d="M 352.836991 275.158588 
L 365.115907 275.158588 
" clip-path="url(#p2ad871323b)" style="fill: none; stroke: #1f77b4; stroke-width: 1.5"/>
    <path d="M 380.068898 256.862118 
L 392.347815 256.862118 
" clip-path="url(#p2ad871323b)" style="fill: none; stroke: #1f77b4; stroke-width: 1.5"/>
   </g>
   <g id="LineCollection_4">
    <path d="M 86.111644 295.488 
L 86.111644 77.963294 
" clip-path="url(#p2ad871323b)" style="fill: none; stroke: #1f77b4; stroke-width: 1.5"/>
    <path d="M 113.398124 256.862118 
L 113.398124 54.584471 
" clip-path="url(#p2ad871323b)" style="fill: none; stroke: #1f77b4; stroke-width: 1.5"/>
    <path d="M 140.684605 251.779765 
L 140.684605 53.568 
" clip-path="url(#p2ad871323b)" style="fill: none; stroke: #1f77b4; stroke-width: 1.5"/>
    <path d="M 167.971085 252.796235 
L 167.971085 68.815059 
" clip-path="url(#p2ad871323b)" style="fill: none; stroke: #1f77b4; stroke-width: 1.5"/>
    <path d="M 195.257566 270.076235 
L 195.257566 65.765647 
" clip-path="url(#p2ad871323b)" style="fill: none; stroke: #1f77b4; stroke-width: 1.5"/>
    <path d="M 222.544046 250.763294 
L 222.544046 87.111529 
" clip-path="url(#p2ad871323b)" style="fill: none; stroke: #1f77b4; stroke-width: 1.5"/>
    <path d="M 249.830527 262.960941 
L 249.830527 90.160941 
" clip-path="url(#p2ad871323b)" style="fill: none; stroke: #1f77b4; stroke-width: 1.5"/>
    <path d="M 277.117007 258.895059 
L 277.117007 63.732706 
" clip-path="url(#p2ad871323b)" style="fill: none; stroke: #1f77b4; stroke-width: 1.5"/>
    <path d="M 304.403488 254.829176 
L 304.403488 83.045647 
" clip-path="url(#p2ad871323b)" style="fill: none; stroke: #1f77b4; stroke-width: 1.5"/>
    <path d="M 331.689968 283.290353 
L 331.689968 87.111529 
" clip-path="url(#p2ad871323b)" style="fill: none; stroke: #1f77b4; stroke-width: 1.5"/>
    <path d="M 358.976449 275.158588 
L 358.976449 83.045647 
" clip-path="url(#p2ad871323b)" style="fill: none; stroke: #1f77b4; stroke-width: 1.5"/>
    <path d="M 386.208356 256.862118 
L 386.208356 79.996235 
" clip-path="url(#p2ad871323b)" style="fill: none; stroke: #1f77b4; stroke-width: 1.5"/>
   </g>
   <g id="line2d_14">
    <path d="M 86.111644 183.176132 
L 113.398124 160.744659 
L 140.684605 155.792414 
L 167.971085 167.498089 
L 195.257566 164.651972 
L 222.544046 165.497675 
L 249.830527 163.285835 
L 277.117007 160.675539 
L 304.403488 166.473487 
L 331.689968 165.871736 
L 358.976449 165.619652 
L 386.208356 163.513525 
" clip-path="url(#p2ad871323b)" style="fill: none; stroke: #4682b4; stroke-width: 1.5; stroke-linecap: square"/>
   </g>
   <g id="patch_3">
    <path d="M 57.6 307.584 
L 57.6 41.472 
" style="fill: none; stroke: #000000; stroke-width: 0.8; stroke-linejoin: miter; stroke-linecap: square"/>
   </g>
   <g id="patch_4">
    <path d="M 414.72 307.584 
L 414.72 41.472 
" style="fill: none; stroke: #000000; stroke-width: 0.8; stroke-linejoin: miter; stroke-linecap: square"/>
   </g>
   <g id="patch_5">
    <path d="M 57.6 307.584 
L 414.72 307.584 
" style="fill: none; stroke: #000000; stroke-width: 0.8; stroke-linejoin: miter; stroke-linecap: square"/>
   </g>
   <g id="patch_6">
    <path d="M 57.6 41.472 
L 414.72 41.472 
" style="fill: none; stroke: #000000; stroke-width: 0.8; stroke-linejoin: miter; stroke-linecap: square"/>
   </g>
   <g id="text_16">
    <!-- Violinplot for progress of customer/purchases_refurbished -->
    <g transform="translate(62.41125 35.472)scale(0.12 -0.12)">
     <defs>
      <path id="DejaVuSans-56" d="M 1831 0 
L 50 4666 
L 709 4666 
L 2188 738 
L 3669 4666 
L 4325 4666 
L 2547 0 
L 1831 0 
z
" transform="scale(0.015625)"/>
      <path id="DejaVuSans-6c" d="M 603 4863 
L 1178 4863 
L 1178 0 
L 603 0 
L 603 4863 
z
" transform="scale(0.015625)"/>
      <path id="DejaVuSans-66" d="M 2375 4863 
L 2375 4384 
L 1825 4384 
Q 1516 4384 1395 4259 
Q 1275 4134 1275 3809 
L 1275 3500 
L 2222 3500 
L 2222 3053 
L 1275 3053 
L 1275 0 
L 697 0 
L 697 3053 
L 147 3053 
L 147 3500 
L 697 3500 
L 697 3744 
Q 697 4328 969 4595 
Q 1241 4863 1831 4863 
L 2375 4863 
z
" transform="scale(0.015625)"/>
      <path id="DejaVuSans-67" d="M 2906 1791 
Q 2906 2416 2648 2759 
Q 2391 3103 1925 3103 
Q 1463 3103 1205 2759 
Q 947 2416 947 1791 
Q 947 1169 1205 825 
Q 1463 481 1925 481 
Q 2391 481 2648 825 
Q 2906 1169 2906 1791 
z
M 3481 434 
Q 3481 -459 3084 -895 
Q 2688 -1331 1869 -1331 
Q 1566 -1331 1297 -1286 
Q 1028 -1241 775 -1147 
L 775 -588 
Q 1028 -725 1275 -790 
Q 1522 -856 1778 -856 
Q 2344 -856 2625 -561 
Q 2906 -266 2906 331 
L 2906 616 
Q 2728 306 2450 153 
Q 2172 0 1784 0 
Q 1141 0 747 490 
Q 353 981 353 1791 
Q 353 2603 747 3093 
Q 1141 3584 1784 3584 
Q 2172 3584 2450 3431 
Q 2728 3278 2906 2969 
L 2906 3500 
L 3481 3500 
L 3481 434 
z
" transform="scale(0.015625)"/>
      <path id="DejaVuSans-63" d="M 3122 3366 
L 3122 2828 
Q 2878 2963 2633 3030 
Q 2388 3097 2138 3097 
Q 1578 3097 1268 2742 
Q 959 2388 959 1747 
Q 959 1106 1268 751 
Q 1578 397 2138 397 
Q 2388 397 2633 464 
Q 2878 531 3122 666 
L 3122 134 
Q 2881 22 2623 -34 
Q 2366 -91 2075 -91 
Q 1284 -91 818 406 
Q 353 903 353 1747 
Q 353 2603 823 3093 
Q 1294 3584 2113 3584 
Q 2378 3584 2631 3529 
Q 2884 3475 3122 3366 
z
" transform="scale(0.015625)"/>
      <path id="DejaVuSans-75" d="M 544 1381 
L 544 3500 
L 1119 3500 
L 1119 1403 
Q 1119 906 1312 657 
Q 1506 409 1894 409 
Q 2359 409 2629 706 
Q 2900 1003 2900 1516 
L 2900 3500 
L 3475 3500 
L 3475 0 
L 2900 0 
L 2900 538 
Q 2691 219 2414 64 
Q 2138 -91 1772 -91 
Q 1169 -91 856 284 
Q 544 659 544 1381 
z
M 1991 3584 
L 1991 3584 
z
" transform="scale(0.015625)"/>
      <path id="DejaVuSans-6d" d="M 3328 2828 
Q 3544 3216 3844 3400 
Q 4144 3584 4550 3584 
Q 5097 3584 5394 3201 
Q 5691 2819 5691 2113 
L 5691 0 
L 5113 0 
L 5113 2094 
Q 5113 2597 4934 2840 
Q 4756 3084 4391 3084 
Q 3944 3084 3684 2787 
Q 3425 2491 3425 1978 
L 3425 0 
L 2847 0 
L 2847 2094 
Q 2847 2600 2669 2842 
Q 2491 3084 2119 3084 
Q 1678 3084 1418 2786 
Q 1159 2488 1159 1978 
L 1159 0 
L 581 0 
L 581 3500 
L 1159 3500 
L 1159 2956 
Q 1356 3278 1631 3431 
Q 1906 3584 2284 3584 
Q 2666 3584 2933 3390 
Q 3200 3197 3328 2828 
z
" transform="scale(0.015625)"/>
      <path id="DejaVuSans-2f" d="M 1625 4666 
L 2156 4666 
L 531 -594 
L 0 -594 
L 1625 4666 
z
" transform="scale(0.015625)"/>
      <path id="DejaVuSans-68" d="M 3513 2113 
L 3513 0 
L 2938 0 
L 2938 2094 
Q 2938 2591 2744 2837 
Q 2550 3084 2163 3084 
Q 1697 3084 1428 2787 
Q 1159 2491 1159 1978 
L 1159 0 
L 581 0 
L 581 4863 
L 1159 4863 
L 1159 2956 
Q 1366 3272 1645 3428 
Q 1925 3584 2291 3584 
Q 2894 3584 3203 3211 
Q 3513 2838 3513 2113 
z
" transform="scale(0.015625)"/>
      <path id="DejaVuSans-5f" d="M 3263 -1063 
L 3263 -1509 
L -63 -1509 
L -63 -1063 
L 3263 -1063 
z
" transform="scale(0.015625)"/>
      <path id="DejaVuSans-62" d="M 3116 1747 
Q 3116 2381 2855 2742 
Q 2594 3103 2138 3103 
Q 1681 3103 1420 2742 
Q 1159 2381 1159 1747 
Q 1159 1113 1420 752 
Q 1681 391 2138 391 
Q 2594 391 2855 752 
Q 3116 1113 3116 1747 
z
M 1159 2969 
Q 1341 3281 1617 3432 
Q 1894 3584 2278 3584 
Q 2916 3584 3314 3078 
Q 3713 2572 3713 1747 
Q 3713 922 3314 415 
Q 2916 -91 2278 -91 
Q 1894 -91 1617 61 
Q 1341 213 1159 525 
L 1159 0 
L 581 0 
L 581 4863 
L 1159 4863 
L 1159 2969 
z
" transform="scale(0.015625)"/>
     </defs>
     <use xlink:href="#DejaVuSans-56"/>
     <use xlink:href="#DejaVuSans-69" x="66.158203"/>
     <use xlink:href="#DejaVuSans-6f" x="93.941406"/>
     <use xlink:href="#DejaVuSans-6c" x="155.123047"/>
     <use xlink:href="#DejaVuSans-69" x="182.90625"/>
     <use xlink:href="#DejaVuSans-6e" x="210.689453"/>
     <use xlink:href="#DejaVuSans-70" x="274.068359"/>
     <use xlink:href="#DejaVuSans-6c" x="337.544922"/>
     <use xlink:href="#DejaVuSans-6f" x="365.328125"/>
     <use xlink:href="#DejaVuSans-74" x="426.509766"/>
     <use xlink:href="#DejaVuSans-20" x="465.71875"/>
     <use xlink:href="#DejaVuSans-66" x="497.505859"/>
     <use xlink:href="#DejaVuSans-6f" x="532.710938"/>
     <use xlink:href="#DejaVuSans-72" x="593.892578"/>
     <use xlink:href="#DejaVuSans-20" x="635.005859"/>
     <use xlink:href="#DejaVuSans-70" x="666.792969"/>
     <use xlink:href="#DejaVuSans-72" x="730.269531"/>
     <use xlink:href="#DejaVuSans-6f" x="769.132812"/>
     <use xlink:href="#DejaVuSans-67" x="830.314453"/>
     <use xlink:href="#DejaVuSans-72" x="893.791016"/>
     <use xlink:href="#DejaVuSans-65" x="932.654297"/>
     <use xlink:href="#DejaVuSans-73" x="994.177734"/>
     <use xlink:href="#DejaVuSans-73" x="1046.277344"/>
     <use xlink:href="#DejaVuSans-20" x="1098.376953"/>
     <use xlink:href="#DejaVuSans-6f" x="1130.164062"/>
     <use xlink:href="#DejaVuSans-66" x="1191.345703"/>
     <use xlink:href="#DejaVuSans-20" x="1226.550781"/>
     <use xlink:href="#DejaVuSans-63" x="1258.337891"/>
     <use xlink:href="#DejaVuSans-75" x="1313.318359"/>
     <use xlink:href="#DejaVuSans-73" x="1376.697266"/>
     <use xlink:href="#DejaVuSans-74" x="1428.796875"/>
     <use xlink:href="#DejaVuSans-6f" x="1468.005859"/>
     <use xlink:href="#DejaVuSans-6d" x="1529.1875"/>
     <use xlink:href="#DejaVuSans-65" x="1626.599609"/>
     <use xlink:href="#DejaVuSans-72" x="1688.123047"/>
     <use xlink:href="#DejaVuSans-2f" x="1729.236328"/>
     <use xlink:href="#DejaVuSans-70" x="1762.927734"/>
     <use xlink:href="#DejaVuSans-75" x="1826.404297"/>
     <use xlink:href="#DejaVuSans-72" x="1889.783203"/>
     <use xlink:href="#DejaVuSans-63" x="1928.646484"/>
     <use xlink:href="#DejaVuSans-68" x="1983.626953"/>
     <use xlink:href="#DejaVuSans-61" x="2047.005859"/>
     <use xlink:href="#DejaVuSans-73" x="2108.285156"/>
     <use xlink:href="#DejaVuSans-65" x="2160.384766"/>
     <use xlink:href="#DejaVuSans-73" x="2221.908203"/>
     <use xlink:href="#DejaVuSans-5f" x="2274.007812"/>
     <use xlink:href="#DejaVuSans-72" x="2324.007812"/>
     <use xlink:href="#DejaVuSans-65" x="2362.871094"/>
     <use xlink:href="#DejaVuSans-66" x="2424.394531"/>
     <use xlink:href="#DejaVuSans-75" x="2459.599609"/>
     <use xlink:href="#DejaVuSans-72" x="2522.978516"/>
     <use xlink:href="#DejaVuSans-62" x="2564.091797"/>
     <use xlink:href="#DejaVuSans-69" x="2627.568359"/>
     <use xlink:href="#DejaVuSans-73" x="2655.351562"/>
     <use xlink:href="#DejaVuSans-68" x="2707.451172"/>
     <use xlink:href="#DejaVuSans-65" x="2770.830078"/>
     <use xlink:href="#DejaVuSans-64" x="2832.353516"/>
    </g>
   </g>
   <g id="legend_1">
    <g id="patch_7">
     <path d="M 284.430938 64.150125 
L 407.72 64.150125 
Q 409.72 64.150125 409.72 62.150125 
L 409.72 48.472 
Q 409.72 46.472 407.72 46.472 
L 284.430938 46.472 
Q 282.430938 46.472 282.430938 48.472 
L 282.430938 62.150125 
Q 282.430938 64.150125 284.430938 64.150125 
z
" style="fill: #ffffff; opacity: 0.8; stroke: #cccccc; stroke-linejoin: miter"/>
    </g>
    <g id="line2d_15">
     <path d="M 286.430938 54.570438 
L 296.430938 54.570438 
L 306.430938 54.570438 
" style="fill: none; stroke: #4682b4; stroke-width: 1.5; stroke-linecap: square"/>
    </g>
    <g id="text_17">
     <!-- Storage-Minimizer -->
     <g transform="translate(314.430938 58.070438)scale(0.1 -0.1)">
      <defs>
       <path id="DejaVuSans-53" d="M 3425 4513 
L 3425 3897 
Q 3066 4069 2747 4153 
Q 2428 4238 2131 4238 
Q 1616 4238 1336 4038 
Q 1056 3838 1056 3469 
Q 1056 3159 1242 3001 
Q 1428 2844 1947 2747 
L 2328 2669 
Q 3034 2534 3370 2195 
Q 3706 1856 3706 1288 
Q 3706 609 3251 259 
Q 2797 -91 1919 -91 
Q 1588 -91 1214 -16 
Q 841 59 441 206 
L 441 856 
Q 825 641 1194 531 
Q 1563 422 1919 422 
Q 2459 422 2753 634 
Q 3047 847 3047 1241 
Q 3047 1584 2836 1778 
Q 2625 1972 2144 2069 
L 1759 2144 
Q 1053 2284 737 2584 
Q 422 2884 422 3419 
Q 422 4038 858 4394 
Q 1294 4750 2059 4750 
Q 2388 4750 2728 4690 
Q 3069 4631 3425 4513 
z
" transform="scale(0.015625)"/>
       <path id="DejaVuSans-2d" d="M 313 2009 
L 1997 2009 
L 1997 1497 
L 313 1497 
L 313 2009 
z
" transform="scale(0.015625)"/>
       <path id="DejaVuSans-4d" d="M 628 4666 
L 1569 4666 
L 2759 1491 
L 3956 4666 
L 4897 4666 
L 4897 0 
L 4281 0 
L 4281 4097 
L 3078 897 
L 2444 897 
L 1241 4097 
L 1241 0 
L 628 0 
L 628 4666 
z
" transform="scale(0.015625)"/>
       <path id="DejaVuSans-7a" d="M 353 3500 
L 3084 3500 
L 3084 2975 
L 922 459 
L 3084 459 
L 3084 0 
L 275 0 
L 275 525 
L 2438 3041 
L 353 3041 
L 353 3500 
z
" transform="scale(0.015625)"/>
      </defs>
      <use xlink:href="#DejaVuSans-53"/>
      <use xlink:href="#DejaVuSans-74" x="63.476562"/>
      <use xlink:href="#DejaVuSans-6f" x="102.685547"/>
      <use xlink:href="#DejaVuSans-72" x="163.867188"/>
      <use xlink:href="#DejaVuSans-61" x="204.980469"/>
      <use xlink:href="#DejaVuSans-67" x="266.259766"/>
      <use xlink:href="#DejaVuSans-65" x="329.736328"/>
      <use xlink:href="#DejaVuSans-2d" x="391.259766"/>
      <use xlink:href="#DejaVuSans-4d" x="427.34375"/>
      <use xlink:href="#DejaVuSans-69" x="513.623047"/>
      <use xlink:href="#DejaVuSans-6e" x="541.40625"/>
      <use xlink:href="#DejaVuSans-69" x="604.785156"/>
      <use xlink:href="#DejaVuSans-6d" x="632.568359"/>
      <use xlink:href="#DejaVuSans-69" x="729.980469"/>
      <use xlink:href="#DejaVuSans-7a" x="757.763672"/>
      <use xlink:href="#DejaVuSans-65" x="810.253906"/>
      <use xlink:href="#DejaVuSans-72" x="871.777344"/>
     </g>
    </g>
   </g>
  </g>
 </g>
 <defs>
  <clipPath id="p2ad871323b">
   <rect x="57.6" y="41.472" width="357.12" height="266.112"/>
  </clipPath>
 </defs>
</svg>
