<?xml version="1.0" encoding="utf-8" standalone="no"?>
<!DOCTYPE svg PUBLIC "-//W3C//DTD SVG 1.1//EN"
  "http://www.w3.org/Graphics/SVG/1.1/DTD/svg11.dtd">
<svg xmlns:xlink="http://www.w3.org/1999/xlink" width="460.8pt" height="345.6pt" viewBox="0 0 460.8 345.6" xmlns="http://www.w3.org/2000/svg" version="1.1">
 <metadata>
  <rdf:RDF xmlns:dc="http://purl.org/dc/elements/1.1/" xmlns:cc="http://creativecommons.org/ns#" xmlns:rdf="http://www.w3.org/1999/02/22-rdf-syntax-ns#">
   <cc:Work>
    <dc:type rdf:resource="http://purl.org/dc/dcmitype/StillImage"/>
    <dc:date>2022-06-16T13:18:29.373052</dc:date>
    <dc:format>image/svg+xml</dc:format>
    <dc:creator>
     <cc:Agent>
      <dc:title>Matplotlib v3.5.2, https://matplotlib.org/</dc:title>
     </cc:Agent>
    </dc:creator>
   </cc:Work>
  </rdf:RDF>
 </metadata>
 <defs>
  <style type="text/css">*{stroke-linejoin: round; stroke-linecap: butt}</style>
 </defs>
 <g id="figure_1">
  <g id="patch_1">
   <path d="M 0 345.6 
L 460.8 345.6 
L 460.8 0 
L 0 0 
z
" style="fill: #ffffff"/>
  </g>
  <g id="axes_1">
   <g id="patch_2">
    <path d="M 57.6 307.584 
L 414.72 307.584 
L 414.72 41.472 
L 57.6 41.472 
z
" style="fill: #ffffff"/>
   </g>
   <g id="PolyCollection_1">
    <path d="M 87.006499 295.488 
L 85.216788 295.488 
L 85.082981 293.502545 
L 84.936113 291.517091 
L 84.77592 289.531636 
L 84.602391 287.546182 
L 84.41583 285.560727 
L 84.216894 283.575273 
L 84.006612 281.589818 
L 83.786373 279.604364 
L 83.557876 277.618909 
L 83.323045 275.633455 
L 83.08391 273.648 
L 82.842459 271.662545 
L 82.600477 269.677091 
L 82.359375 267.691636 
L 82.12004 265.706182 
L 81.882706 263.720727 
L 81.646881 261.735273 
L 81.411327 259.749818 
L 81.174125 257.764364 
L 80.932807 255.778909 
L 80.684563 253.793455 
L 80.426507 251.808 
L 80.155975 249.822545 
L 79.870828 247.837091 
L 79.569731 245.851636 
L 79.252369 243.866182 
L 78.919584 241.880727 
L 78.573406 239.895273 
L 78.216984 237.909818 
L 77.854419 235.924364 
L 77.49052 233.938909 
L 77.130504 231.953455 
L 76.779684 229.968 
L 76.443156 227.982545 
L 76.125525 225.997091 
L 75.830684 224.011636 
L 75.561648 222.026182 
L 75.320454 220.040727 
L 75.108126 218.055273 
L 74.924679 216.069818 
L 74.76917 214.084364 
L 74.639787 212.098909 
L 74.533957 210.113455 
L 74.448488 208.128 
L 74.379731 206.142545 
L 74.323777 204.157091 
L 74.276669 202.171636 
L 74.234647 200.186182 
L 74.194395 198.200727 
L 74.153291 196.215273 
L 74.109639 194.229818 
L 74.062846 192.244364 
L 74.013543 190.258909 
L 73.963617 188.273455 
L 73.916142 186.288 
L 73.875208 184.302545 
L 73.845655 182.317091 
L 73.832727 180.331636 
L 73.841674 178.346182 
L 73.877336 176.360727 
L 73.943749 174.375273 
L 74.043802 172.389818 
L 74.178985 170.404364 
L 74.349238 168.418909 
L 74.552923 166.433455 
L 74.786915 164.448 
L 75.04679 162.462545 
L 75.327118 160.477091 
L 75.621803 158.491636 
L 75.924465 156.506182 
L 76.228837 154.520727 
L 76.529135 152.535273 
L 76.820392 150.549818 
L 77.098733 148.564364 
L 77.361568 146.578909 
L 77.607701 144.593455 
L 77.837341 142.608 
L 78.052007 140.622545 
L 78.254353 138.637091 
L 78.447904 136.651636 
L 78.636746 134.666182 
L 78.82518 132.680727 
L 79.017391 130.695273 
L 79.217149 128.709818 
L 79.427577 126.724364 
L 79.650999 124.738909 
L 79.888876 122.753455 
L 80.141823 120.768 
L 80.409684 118.782545 
L 80.691652 116.797091 
L 80.986394 114.811636 
L 81.292174 112.826182 
L 81.60694 110.840727 
L 81.928388 108.855273 
L 82.253987 106.869818 
L 82.581002 104.884364 
L 82.906499 102.898909 
L 83.227381 100.913455 
L 83.540445 98.928 
L 88.682842 98.928 
L 88.682842 98.928 
L 88.995906 100.913455 
L 89.316788 102.898909 
L 89.642285 104.884364 
L 89.9693 106.869818 
L 90.294899 108.855273 
L 90.616347 110.840727 
L 90.931113 112.826182 
L 91.236893 114.811636 
L 91.531635 116.797091 
L 91.813603 118.782545 
L 92.081464 120.768 
L 92.334411 122.753455 
L 92.572288 124.738909 
L 92.79571 126.724364 
L 93.006138 128.709818 
L 93.205896 130.695273 
L 93.398107 132.680727 
L 93.586541 134.666182 
L 93.775383 136.651636 
L 93.968934 138.637091 
L 94.17128 140.622545 
L 94.385946 142.608 
L 94.615586 144.593455 
L 94.861719 146.578909 
L 95.124554 148.564364 
L 95.402895 150.549818 
L 95.694152 152.535273 
L 95.99445 154.520727 
L 96.298822 156.506182 
L 96.601484 158.491636 
L 96.896169 160.477091 
L 97.176497 162.462545 
L 97.436372 164.448 
L 97.670364 166.433455 
L 97.874049 168.418909 
L 98.044302 170.404364 
L 98.179485 172.389818 
L 98.279538 174.375273 
L 98.345951 176.360727 
L 98.381613 178.346182 
L 98.39056 180.331636 
L 98.377632 182.317091 
L 98.348079 184.302545 
L 98.307145 186.288 
L 98.25967 188.273455 
L 98.209744 190.258909 
L 98.160441 192.244364 
L 98.113648 194.229818 
L 98.069996 196.215273 
L 98.028892 198.200727 
L 97.98864 200.186182 
L 97.946618 202.171636 
L 97.89951 204.157091 
L 97.843556 206.142545 
L 97.774799 208.128 
L 97.68933 210.113455 
L 97.5835 212.098909 
L 97.454117 214.084364 
L 97.298608 216.069818 
L 97.115161 218.055273 
L 96.902833 220.040727 
L 96.661639 222.026182 
L 96.392603 224.011636 
L 96.097762 225.997091 
L 95.780131 227.982545 
L 95.443603 229.968 
L 95.092783 231.953455 
L 94.732767 233.938909 
L 94.368868 235.924364 
L 94.006303 237.909818 
L 93.649881 239.895273 
L 93.303703 241.880727 
L 92.970918 243.866182 
L 92.653557 245.851636 
L 92.352459 247.837091 
L 92.067312 249.822545 
L 91.79678 251.808 
L 91.538724 253.793455 
L 91.29048 255.778909 
L 91.049162 257.764364 
L 90.81196 259.749818 
L 90.576406 261.735273 
L 90.340581 263.720727 
L 90.103247 265.706182 
L 89.863912 267.691636 
L 89.62281 269.677091 
L 89.380828 271.662545 
L 89.139377 273.648 
L 88.900242 275.633455 
L 88.665411 277.618909 
L 88.436914 279.604364 
L 88.216675 281.589818 
L 88.006393 283.575273 
L 87.807457 285.560727 
L 87.620896 287.546182 
L 87.447367 289.531636 
L 87.287174 291.517091 
L 87.140306 293.502545 
L 87.006499 295.488 
z
" clip-path="url(#pa335d1e3b9)" style="fill: #1f77b4; fill-opacity: 0.3"/>
   </g>
   <g id="PolyCollection_2">
    <path d="M 115.241482 250.128 
L 111.554766 250.128 
L 111.292694 248.257091 
L 111.014108 246.386182 
L 110.721172 244.515273 
L 110.416434 242.644364 
L 110.102724 240.773455 
L 109.783033 238.902545 
L 109.460375 237.031636 
L 109.13763 235.160727 
L 108.817406 233.289818 
L 108.501915 231.418909 
L 108.192885 229.548 
L 107.891519 227.677091 
L 107.598507 225.806182 
L 107.314096 223.935273 
L 107.038199 222.064364 
L 106.770542 220.193455 
L 106.510827 218.322545 
L 106.258887 216.451636 
L 106.014819 214.580727 
L 105.779063 212.709818 
L 105.552421 210.838909 
L 105.336013 208.968 
L 105.131148 207.097091 
L 104.939141 205.226182 
L 104.761089 203.355273 
L 104.597616 201.484364 
L 104.448647 199.613455 
L 104.313213 197.742545 
L 104.189344 195.871636 
L 104.074063 194.000727 
L 103.963499 192.129818 
L 103.853127 190.258909 
L 103.738112 188.388 
L 103.613741 186.517091 
L 103.475895 184.646182 
L 103.321511 182.775273 
L 103.148983 180.904364 
L 102.95846 179.033455 
L 102.751979 177.162545 
L 102.533442 175.291636 
L 102.308404 173.420727 
L 102.083705 171.549818 
L 101.866971 169.678909 
L 101.66605 167.808 
L 101.488414 165.937091 
L 101.340616 164.066182 
L 101.227824 162.195273 
L 101.153497 160.324364 
L 101.119208 158.453455 
L 101.12463 156.582545 
L 101.167668 154.711636 
L 101.244719 152.840727 
L 101.351024 150.969818 
L 101.481067 149.098909 
L 101.62901 147.228 
L 101.789092 145.357091 
L 101.955999 143.486182 
L 102.12516 141.615273 
L 102.292966 139.744364 
L 102.456902 137.873455 
L 102.61558 136.002545 
L 102.768699 134.131636 
L 102.916925 132.260727 
L 103.061709 130.389818 
L 103.205083 128.518909 
L 103.349422 126.648 
L 103.497227 124.777091 
L 103.650932 122.906182 
L 103.812752 121.035273 
L 103.984583 119.164364 
L 104.167953 117.293455 
L 104.364024 115.422545 
L 104.573619 113.551636 
L 104.797284 111.680727 
L 105.035336 109.809818 
L 105.287918 107.938909 
L 105.55502 106.068 
L 105.836475 104.197091 
L 106.131934 102.326182 
L 106.44081 100.455273 
L 106.762218 98.584364 
L 107.094912 96.713455 
L 107.437238 94.842545 
L 107.787114 92.971636 
L 108.142048 91.100727 
L 108.499194 89.229818 
L 108.855448 87.358909 
L 109.20758 85.488 
L 109.552378 83.617091 
L 109.886807 81.746182 
L 110.208153 79.875273 
L 110.514141 78.004364 
L 110.80302 76.133455 
L 111.073597 74.262545 
L 111.325235 72.391636 
L 111.557803 70.520727 
L 111.771595 68.649818 
L 111.967232 66.778909 
L 112.145554 64.908 
L 114.650695 64.908 
L 114.650695 64.908 
L 114.829016 66.778909 
L 115.024653 68.649818 
L 115.238445 70.520727 
L 115.471013 72.391636 
L 115.722651 74.262545 
L 115.993228 76.133455 
L 116.282107 78.004364 
L 116.588095 79.875273 
L 116.909441 81.746182 
L 117.24387 83.617091 
L 117.588668 85.488 
L 117.9408 87.358909 
L 118.297054 89.229818 
L 118.6542 91.100727 
L 119.009134 92.971636 
L 119.35901 94.842545 
L 119.701336 96.713455 
L 120.03403 98.584364 
L 120.355438 100.455273 
L 120.664314 102.326182 
L 120.959773 104.197091 
L 121.241228 106.068 
L 121.50833 107.938909 
L 121.760912 109.809818 
L 121.998965 111.680727 
L 122.222629 113.551636 
L 122.432224 115.422545 
L 122.628295 117.293455 
L 122.811665 119.164364 
L 122.983496 121.035273 
L 123.145316 122.906182 
L 123.299021 124.777091 
L 123.446826 126.648 
L 123.591165 128.518909 
L 123.734539 130.389818 
L 123.879324 132.260727 
L 124.027549 134.131636 
L 124.180668 136.002545 
L 124.339346 137.873455 
L 124.503282 139.744364 
L 124.671089 141.615273 
L 124.840249 143.486182 
L 125.007156 145.357091 
L 125.167238 147.228 
L 125.315181 149.098909 
L 125.445225 150.969818 
L 125.551529 152.840727 
L 125.62858 154.711636 
L 125.671619 156.582545 
L 125.67704 158.453455 
L 125.642751 160.324364 
L 125.568424 162.195273 
L 125.455632 164.066182 
L 125.307834 165.937091 
L 125.130198 167.808 
L 124.929277 169.678909 
L 124.712544 171.549818 
L 124.487844 173.420727 
L 124.262806 175.291636 
L 124.044269 177.162545 
L 123.837788 179.033455 
L 123.647265 180.904364 
L 123.474738 182.775273 
L 123.320353 184.646182 
L 123.182507 186.517091 
L 123.058136 188.388 
L 122.943121 190.258909 
L 122.832749 192.129818 
L 122.722185 194.000727 
L 122.606904 195.871636 
L 122.483035 197.742545 
L 122.347601 199.613455 
L 122.198632 201.484364 
L 122.035159 203.355273 
L 121.857107 205.226182 
L 121.6651 207.097091 
L 121.460235 208.968 
L 121.243827 210.838909 
L 121.017186 212.709818 
L 120.781429 214.580727 
L 120.537361 216.451636 
L 120.285421 218.322545 
L 120.025706 220.193455 
L 119.758049 222.064364 
L 119.482152 223.935273 
L 119.197741 225.806182 
L 118.90473 227.677091 
L 118.603363 229.548 
L 118.294333 231.418909 
L 117.978842 233.289818 
L 117.658619 235.160727 
L 117.335873 237.031636 
L 117.013215 238.902545 
L 116.693524 240.773455 
L 116.379814 242.644364 
L 116.075076 244.515273 
L 115.782141 246.386182 
L 115.503554 248.257091 
L 115.241482 250.128 
z
" clip-path="url(#pa335d1e3b9)" style="fill: #1f77b4; fill-opacity: 0.3"/>
   </g>
   <g id="PolyCollection_3">
    <path d="M 142.77375 242.568 
L 138.595459 242.568 
L 138.343698 240.748 
L 138.085496 238.928 
L 137.822905 237.108 
L 137.557505 235.288 
L 137.290258 233.468 
L 137.021429 231.648 
L 136.750565 229.828 
L 136.476569 228.008 
L 136.197829 226.188 
L 135.912422 224.368 
L 135.618361 222.548 
L 135.313862 220.728 
L 134.997619 218.908 
L 134.669042 217.088 
L 134.328459 215.268 
L 133.977234 213.448 
L 133.617823 211.628 
L 133.253729 209.808 
L 132.889373 207.988 
L 132.529889 206.168 
L 132.180848 204.348 
L 131.847929 202.528 
L 131.536574 200.708 
L 131.251636 198.888 
L 130.997051 197.068 
L 130.775567 195.248 
L 130.588549 193.428 
L 130.435869 191.608 
L 130.315908 189.788 
L 130.225657 187.968 
L 130.160921 186.148 
L 130.11661 184.328 
L 130.087081 182.508 
L 130.066524 180.688 
L 130.04934 178.868 
L 130.030491 177.048 
L 130.005781 175.228 
L 129.972063 173.408 
L 129.92734 171.588 
L 129.870761 169.768 
L 129.802536 167.948 
L 129.723749 166.128 
L 129.636138 164.308 
L 129.541833 162.488 
L 129.443102 160.668 
L 129.34213 158.848 
L 129.240853 157.028 
L 129.140848 155.208 
L 129.043317 153.388 
L 128.949129 151.568 
L 128.858925 149.748 
L 128.773275 147.928 
L 128.692848 146.108 
L 128.618584 144.288 
L 128.551843 142.468 
L 128.494501 140.648 
L 128.448991 138.828 
L 128.418265 137.008 
L 128.405688 135.188 
L 128.414855 133.368 
L 128.449362 131.548 
L 128.512536 129.728 
L 128.607167 127.908 
L 128.735251 126.088 
L 128.897794 124.268 
L 129.094678 122.448 
L 129.324625 120.628 
L 129.585248 118.808 
L 129.873192 116.988 
L 130.184348 115.168 
L 130.514116 113.348 
L 130.857687 111.528 
L 131.210321 109.708 
L 131.567588 107.888 
L 131.925565 106.068 
L 132.280962 104.248 
L 132.631198 102.428 
L 132.97441 100.608 
L 133.309429 98.788 
L 133.63571 96.968 
L 133.953257 95.148 
L 134.262528 93.328 
L 134.564339 91.508 
L 134.85977 89.688 
L 135.150064 87.868 
L 135.436528 86.048 
L 135.720425 84.228 
L 136.002875 82.408 
L 136.284742 80.588 
L 136.56655 78.768 
L 136.848402 76.948 
L 137.129936 75.128 
L 137.410311 73.308 
L 137.688231 71.488 
L 137.962012 69.668 
L 138.229668 67.848 
L 138.489044 66.028 
L 138.737938 64.208 
L 138.974244 62.388 
L 142.394965 62.388 
L 142.394965 62.388 
L 142.631271 64.208 
L 142.880165 66.028 
L 143.139541 67.848 
L 143.407198 69.668 
L 143.680978 71.488 
L 143.958898 73.308 
L 144.239273 75.128 
L 144.520807 76.948 
L 144.802659 78.768 
L 145.084467 80.588 
L 145.366334 82.408 
L 145.648784 84.228 
L 145.932682 86.048 
L 146.219145 87.868 
L 146.509439 89.688 
L 146.80487 91.508 
L 147.106681 93.328 
L 147.415952 95.148 
L 147.733499 96.968 
L 148.05978 98.788 
L 148.394799 100.608 
L 148.738011 102.428 
L 149.088247 104.248 
L 149.443644 106.068 
L 149.801621 107.888 
L 150.158889 109.708 
L 150.511522 111.528 
L 150.855093 113.348 
L 151.184861 115.168 
L 151.496017 116.988 
L 151.783961 118.808 
L 152.044584 120.628 
L 152.274531 122.448 
L 152.471416 124.268 
L 152.633958 126.088 
L 152.762042 127.908 
L 152.856673 129.728 
L 152.919847 131.548 
L 152.954354 133.368 
L 152.963521 135.188 
L 152.950944 137.008 
L 152.920218 138.828 
L 152.874708 140.648 
L 152.817366 142.468 
L 152.750625 144.288 
L 152.676361 146.108 
L 152.595934 147.928 
L 152.510284 149.748 
L 152.42008 151.568 
L 152.325892 153.388 
L 152.228361 155.208 
L 152.128357 157.028 
L 152.027079 158.848 
L 151.926108 160.668 
L 151.827376 162.488 
L 151.733071 164.308 
L 151.64546 166.128 
L 151.566673 167.948 
L 151.498448 169.768 
L 151.44187 171.588 
L 151.397146 173.408 
L 151.363428 175.228 
L 151.338718 177.048 
L 151.319869 178.868 
L 151.302685 180.688 
L 151.282129 182.508 
L 151.252599 184.328 
L 151.208288 186.148 
L 151.143552 187.968 
L 151.053301 189.788 
L 150.93334 191.608 
L 150.78066 193.428 
L 150.593642 195.248 
L 150.372159 197.068 
L 150.117573 198.888 
L 149.832635 200.708 
L 149.521281 202.528 
L 149.188362 204.348 
L 148.83932 206.168 
L 148.479836 207.988 
L 148.11548 209.808 
L 147.751386 211.628 
L 147.391975 213.448 
L 147.04075 215.268 
L 146.700167 217.088 
L 146.371591 218.908 
L 146.055347 220.728 
L 145.750849 222.548 
L 145.456787 224.368 
L 145.17138 226.188 
L 144.89264 228.008 
L 144.618644 229.828 
L 144.34778 231.648 
L 144.078951 233.468 
L 143.811705 235.288 
L 143.546305 237.108 
L 143.283714 238.928 
L 143.025511 240.748 
L 142.77375 242.568 
z
" clip-path="url(#pa335d1e3b9)" style="fill: #1f77b4; fill-opacity: 0.3"/>
   </g>
   <g id="PolyCollection_4">
    <path d="M 170.000644 241.308 
L 165.941526 241.308 
L 165.654701 239.602545 
L 165.35241 237.897091 
L 165.036713 236.191636 
L 164.709608 234.486182 
L 164.372948 232.780727 
L 164.028399 231.075273 
L 163.677444 229.369818 
L 163.321429 227.664364 
L 162.961638 225.958909 
L 162.599383 224.253455 
L 162.236091 222.548 
L 161.873359 220.842545 
L 161.512982 219.137091 
L 161.15693 217.431636 
L 160.807287 215.726182 
L 160.466145 214.020727 
L 160.135483 212.315273 
L 159.817031 210.609818 
L 159.512143 208.904364 
L 159.221706 207.198909 
L 158.946082 205.493455 
L 158.685096 203.788 
L 158.438092 202.082545 
L 158.204029 200.377091 
L 157.981627 198.671636 
L 157.769543 196.966182 
L 157.566563 195.260727 
L 157.371783 193.555273 
L 157.184756 191.849818 
L 157.005587 190.144364 
L 156.834958 188.438909 
L 156.674071 186.733455 
L 156.524515 185.028 
L 156.388062 183.322545 
L 156.266421 181.617091 
L 156.160981 179.911636 
L 156.072566 178.206182 
L 156.001254 176.500727 
L 155.946274 174.795273 
L 155.906003 173.089818 
L 155.878065 171.384364 
L 155.859528 169.678909 
L 155.847173 167.973455 
L 155.837807 166.268 
L 155.828577 164.562545 
L 155.817261 162.857091 
L 155.802497 161.151636 
L 155.783931 159.446182 
L 155.76227 157.740727 
L 155.739256 156.035273 
L 155.717544 154.329818 
L 155.700537 152.624364 
L 155.692169 150.918909 
L 155.696679 149.213455 
L 155.71838 147.508 
L 155.761447 145.802545 
L 155.829719 144.097091 
L 155.926522 142.391636 
L 156.054517 140.686182 
L 156.215561 138.980727 
L 156.410596 137.275273 
L 156.639559 135.569818 
L 156.901337 133.864364 
L 157.193766 132.158909 
L 157.513692 130.453455 
L 157.857092 128.748 
L 158.219265 127.042545 
L 158.595074 125.337091 
L 158.979223 123.631636 
L 159.366547 121.926182 
L 159.752285 120.220727 
L 160.132316 118.515273 
L 160.503329 116.809818 
L 160.862919 115.104364 
L 161.209607 113.398909 
L 161.542777 111.693455 
L 161.862557 109.988 
L 162.169655 108.282545 
L 162.465165 106.577091 
L 162.750375 104.871636 
L 163.026587 103.166182 
L 163.294968 101.460727 
L 163.556442 99.755273 
L 163.811633 98.049818 
L 164.060848 96.344364 
L 164.30411 94.638909 
L 164.541217 92.933455 
L 164.771826 91.228 
L 164.995539 89.522545 
L 165.211986 87.817091 
L 165.420879 86.111636 
L 165.622045 84.406182 
L 165.81543 82.700727 
L 166.001073 80.995273 
L 166.179053 79.289818 
L 166.349444 77.584364 
L 166.512254 75.878909 
L 166.667387 74.173455 
L 166.814623 72.468 
L 169.127547 72.468 
L 169.127547 72.468 
L 169.274783 74.173455 
L 169.429916 75.878909 
L 169.592726 77.584364 
L 169.763117 79.289818 
L 169.941098 80.995273 
L 170.12674 82.700727 
L 170.320125 84.406182 
L 170.521292 86.111636 
L 170.730184 87.817091 
L 170.946631 89.522545 
L 171.170345 91.228 
L 171.400954 92.933455 
L 171.638061 94.638909 
L 171.881322 96.344364 
L 172.130538 98.049818 
L 172.385728 99.755273 
L 172.647203 101.460727 
L 172.915583 103.166182 
L 173.191795 104.871636 
L 173.477005 106.577091 
L 173.772515 108.282545 
L 174.079613 109.988 
L 174.399393 111.693455 
L 174.732563 113.398909 
L 175.079251 115.104364 
L 175.438842 116.809818 
L 175.809854 118.515273 
L 176.189885 120.220727 
L 176.575623 121.926182 
L 176.962947 123.631636 
L 177.347096 125.337091 
L 177.722905 127.042545 
L 178.085079 128.748 
L 178.428478 130.453455 
L 178.748404 132.158909 
L 179.040833 133.864364 
L 179.302612 135.569818 
L 179.531575 137.275273 
L 179.726609 138.980727 
L 179.887653 140.686182 
L 180.015648 142.391636 
L 180.112451 144.097091 
L 180.180723 145.802545 
L 180.22379 147.508 
L 180.245492 149.213455 
L 180.250001 150.918909 
L 180.241633 152.624364 
L 180.224626 154.329818 
L 180.202915 156.035273 
L 180.1799 157.740727 
L 180.158239 159.446182 
L 180.139673 161.151636 
L 180.124909 162.857091 
L 180.113593 164.562545 
L 180.104363 166.268 
L 180.094997 167.973455 
L 180.082642 169.678909 
L 180.064105 171.384364 
L 180.036167 173.089818 
L 179.995896 174.795273 
L 179.940916 176.500727 
L 179.869605 178.206182 
L 179.781189 179.911636 
L 179.675749 181.617091 
L 179.554109 183.322545 
L 179.417656 185.028 
L 179.2681 186.733455 
L 179.107213 188.438909 
L 178.936583 190.144364 
L 178.757414 191.849818 
L 178.570387 193.555273 
L 178.375607 195.260727 
L 178.172628 196.966182 
L 177.960544 198.671636 
L 177.738141 200.377091 
L 177.504078 202.082545 
L 177.257074 203.788 
L 176.996089 205.493455 
L 176.720464 207.198909 
L 176.430028 208.904364 
L 176.12514 210.609818 
L 175.806687 212.315273 
L 175.476025 214.020727 
L 175.134883 215.726182 
L 174.78524 217.431636 
L 174.429188 219.137091 
L 174.068811 220.842545 
L 173.706079 222.548 
L 173.342787 224.253455 
L 172.980533 225.958909 
L 172.620741 227.664364 
L 172.264726 229.369818 
L 171.913771 231.075273 
L 171.569222 232.780727 
L 171.232563 234.486182 
L 170.905458 236.191636 
L 170.58976 237.897091 
L 170.287469 239.602545 
L 170.000644 241.308 
z
" clip-path="url(#pa335d1e3b9)" style="fill: #1f77b4; fill-opacity: 0.3"/>
   </g>
   <g id="PolyCollection_5">
    <path d="M 197.122431 242.568 
L 193.392701 242.568 
L 193.153444 240.824364 
L 192.905227 239.080727 
L 192.649633 237.337091 
L 192.387807 235.593455 
L 192.120329 233.849818 
L 191.84714 232.106182 
L 191.567549 230.362545 
L 191.280315 228.618909 
L 190.983827 226.875273 
L 190.676339 225.131636 
L 190.356269 223.388 
L 190.02252 221.644364 
L 189.674786 219.900727 
L 189.313819 218.157091 
L 188.941606 216.413455 
L 188.56144 214.669818 
L 188.177859 212.926182 
L 187.796457 211.182545 
L 187.423553 209.438909 
L 187.065782 207.695273 
L 186.729599 205.951636 
L 186.420781 204.208 
L 186.143959 202.464364 
L 185.902232 200.720727 
L 185.696901 198.977091 
L 185.527367 197.233455 
L 185.391185 195.489818 
L 185.284276 193.746182 
L 185.201276 192.002545 
L 185.135978 190.258909 
L 185.08182 188.515273 
L 185.032373 186.771636 
L 184.981771 185.028 
L 184.925067 183.284364 
L 184.858465 181.540727 
L 184.779445 179.797091 
L 184.686771 178.053455 
L 184.580407 176.309818 
L 184.461373 174.566182 
L 184.331545 172.822545 
L 184.193455 171.078909 
L 184.050088 169.335273 
L 183.904688 167.591636 
L 183.760601 165.848 
L 183.621128 164.104364 
L 183.48941 162.360727 
L 183.368326 160.617091 
L 183.260416 158.873455 
L 183.167826 157.129818 
L 183.092274 155.386182 
L 183.035042 153.642545 
L 182.996999 151.898909 
L 182.978649 150.155273 
L 182.980213 148.411636 
L 183.001725 146.668 
L 183.043157 144.924364 
L 183.104532 143.180727 
L 183.18605 141.437091 
L 183.288174 139.693455 
L 183.411689 137.949818 
L 183.557708 136.206182 
L 183.727612 134.462545 
L 183.922925 132.718909 
L 184.14512 130.975273 
L 184.395379 129.231636 
L 184.674322 127.488 
L 184.981742 125.744364 
L 185.316386 124.000727 
L 185.675809 122.257091 
L 186.056343 120.513455 
L 186.453193 118.769818 
L 186.86066 117.026182 
L 187.272475 115.282545 
L 187.682212 113.538909 
L 188.083733 111.795273 
L 188.471612 110.051636 
L 188.84149 108.308 
L 189.190329 106.564364 
L 189.516524 104.820727 
L 189.819898 103.077091 
L 190.101556 101.333455 
L 190.363661 99.589818 
L 190.609131 97.846182 
L 190.841329 96.102545 
L 191.063747 94.358909 
L 191.279734 92.615273 
L 191.49227 90.871636 
L 191.703796 89.128 
L 191.916107 87.384364 
L 192.130292 85.640727 
L 192.346726 83.897091 
L 192.565098 82.153455 
L 192.784475 80.409818 
L 193.003402 78.666182 
L 193.220017 76.922545 
L 193.432188 75.178909 
L 193.637669 73.435273 
L 193.834242 71.691636 
L 194.019864 69.948 
L 196.495268 69.948 
L 196.495268 69.948 
L 196.680889 71.691636 
L 196.877462 73.435273 
L 197.082943 75.178909 
L 197.295115 76.922545 
L 197.511729 78.666182 
L 197.730656 80.409818 
L 197.950034 82.153455 
L 198.168405 83.897091 
L 198.384839 85.640727 
L 198.599024 87.384364 
L 198.811335 89.128 
L 199.022862 90.871636 
L 199.235397 92.615273 
L 199.451385 94.358909 
L 199.673803 96.102545 
L 199.906 97.846182 
L 200.151471 99.589818 
L 200.413575 101.333455 
L 200.695234 103.077091 
L 200.998607 104.820727 
L 201.324803 106.564364 
L 201.673641 108.308 
L 202.043519 110.051636 
L 202.431398 111.795273 
L 202.832919 113.538909 
L 203.242656 115.282545 
L 203.654471 117.026182 
L 204.061938 118.769818 
L 204.458789 120.513455 
L 204.839323 122.257091 
L 205.198745 124.000727 
L 205.533389 125.744364 
L 205.84081 127.488 
L 206.119752 129.231636 
L 206.370011 130.975273 
L 206.592206 132.718909 
L 206.787519 134.462545 
L 206.957423 136.206182 
L 207.103443 137.949818 
L 207.226958 139.693455 
L 207.329081 141.437091 
L 207.410599 143.180727 
L 207.471975 144.924364 
L 207.513406 146.668 
L 207.534919 148.411636 
L 207.536482 150.155273 
L 207.518132 151.898909 
L 207.480089 153.642545 
L 207.422857 155.386182 
L 207.347306 157.129818 
L 207.254716 158.873455 
L 207.146806 160.617091 
L 207.025721 162.360727 
L 206.894003 164.104364 
L 206.754531 165.848 
L 206.610444 167.591636 
L 206.465044 169.335273 
L 206.321676 171.078909 
L 206.183587 172.822545 
L 206.053759 174.566182 
L 205.934724 176.309818 
L 205.828361 178.053455 
L 205.735686 179.797091 
L 205.656666 181.540727 
L 205.590064 183.284364 
L 205.53336 185.028 
L 205.482759 186.771636 
L 205.433311 188.515273 
L 205.379153 190.258909 
L 205.313855 192.002545 
L 205.230855 193.746182 
L 205.123946 195.489818 
L 204.987764 197.233455 
L 204.818231 198.977091 
L 204.6129 200.720727 
L 204.371172 202.464364 
L 204.094351 204.208 
L 203.785533 205.951636 
L 203.449349 207.695273 
L 203.091578 209.438909 
L 202.718675 211.182545 
L 202.337272 212.926182 
L 201.953692 214.669818 
L 201.573525 216.413455 
L 201.201312 218.157091 
L 200.840345 219.900727 
L 200.492611 221.644364 
L 200.158862 223.388 
L 199.838792 225.131636 
L 199.531304 226.875273 
L 199.234816 228.618909 
L 198.947583 230.362545 
L 198.667991 232.106182 
L 198.394802 233.849818 
L 198.127324 235.593455 
L 197.865498 237.337091 
L 197.609904 239.080727 
L 197.361687 240.824364 
L 197.122431 242.568 
z
" clip-path="url(#pa335d1e3b9)" style="fill: #1f77b4; fill-opacity: 0.3"/>
   </g>
   <g id="PolyCollection_6">
    <path d="M 224.171791 242.568 
L 220.916301 242.568 
L 220.695277 240.773455 
L 220.458208 238.978909 
L 220.204588 237.184364 
L 219.93387 235.389818 
L 219.64563 233.595273 
L 219.339785 231.800727 
L 219.016838 230.006182 
L 218.678121 228.211636 
L 218.326002 226.417091 
L 217.964006 224.622545 
L 217.59683 222.828 
L 217.230229 221.033455 
L 216.870768 219.238909 
L 216.525456 217.444364 
L 216.201283 215.649818 
L 215.904722 213.855273 
L 215.641219 212.060727 
L 215.41475 210.266182 
L 215.227465 208.471636 
L 215.079477 206.677091 
L 214.968793 204.882545 
L 214.891413 203.088 
L 214.84156 201.293455 
L 214.812043 199.498909 
L 214.794691 197.704364 
L 214.780839 195.909818 
L 214.761814 194.115273 
L 214.729394 192.320727 
L 214.67621 190.526182 
L 214.596076 188.731636 
L 214.484226 186.937091 
L 214.337482 185.142545 
L 214.154332 183.348 
L 213.934952 181.553455 
L 213.681174 179.758909 
L 213.396409 177.964364 
L 213.085546 176.169818 
L 212.754817 174.375273 
L 212.411649 172.580727 
L 212.064469 170.786182 
L 211.722489 168.991636 
L 211.39543 167.197091 
L 211.093206 165.402545 
L 210.82555 163.608 
L 210.601597 161.813455 
L 210.429443 160.018909 
L 210.315705 158.224364 
L 210.26513 156.429818 
L 210.280272 154.635273 
L 210.3613 152.840727 
L 210.505946 151.046182 
L 210.709621 149.251636 
L 210.965687 147.457091 
L 211.265859 145.662545 
L 211.600715 143.868 
L 211.960242 142.073455 
L 212.334387 140.278909 
L 212.713549 138.484364 
L 213.08899 136.689818 
L 213.453133 134.895273 
L 213.799759 133.100727 
L 214.12409 131.306182 
L 214.422801 129.511636 
L 214.693973 127.717091 
L 214.937001 125.922545 
L 215.152496 124.128 
L 215.342164 122.333455 
L 215.508685 120.538909 
L 215.655581 118.744364 
L 215.787063 116.949818 
L 215.907869 115.155273 
L 216.023074 113.360727 
L 216.137883 111.566182 
L 216.257421 109.771636 
L 216.386507 107.977091 
L 216.529447 106.182545 
L 216.689837 104.388 
L 216.870391 102.593455 
L 217.072813 100.798909 
L 217.297695 99.004364 
L 217.54448 97.209818 
L 217.811472 95.415273 
L 218.095906 93.620727 
L 218.39408 91.826182 
L 218.701548 90.031636 
L 219.013364 88.237091 
L 219.324357 86.442545 
L 219.629429 84.648 
L 219.923846 82.853455 
L 220.203492 81.058909 
L 220.465082 79.264364 
L 220.706287 77.469818 
L 220.925788 75.675273 
L 221.123246 73.880727 
L 221.299193 72.086182 
L 221.454869 70.291636 
L 221.592019 68.497091 
L 221.712679 66.702545 
L 221.818974 64.908 
L 223.269119 64.908 
L 223.269119 64.908 
L 223.375413 66.702545 
L 223.496073 68.497091 
L 223.633223 70.291636 
L 223.7889 72.086182 
L 223.964847 73.880727 
L 224.162305 75.675273 
L 224.381806 77.469818 
L 224.62301 79.264364 
L 224.8846 81.058909 
L 225.164247 82.853455 
L 225.458663 84.648 
L 225.763735 86.442545 
L 226.074728 88.237091 
L 226.386544 90.031636 
L 226.694013 91.826182 
L 226.992187 93.620727 
L 227.27662 95.415273 
L 227.543612 97.209818 
L 227.790398 99.004364 
L 228.01528 100.798909 
L 228.217701 102.593455 
L 228.398256 104.388 
L 228.558645 106.182545 
L 228.701585 107.977091 
L 228.830672 109.771636 
L 228.950209 111.566182 
L 229.065019 113.360727 
L 229.180223 115.155273 
L 229.301029 116.949818 
L 229.432512 118.744364 
L 229.579407 120.538909 
L 229.745928 122.333455 
L 229.935596 124.128 
L 230.151091 125.922545 
L 230.39412 127.717091 
L 230.665291 129.511636 
L 230.964003 131.306182 
L 231.288333 133.100727 
L 231.634959 134.895273 
L 231.999103 136.689818 
L 232.374543 138.484364 
L 232.753705 140.278909 
L 233.12785 142.073455 
L 233.487378 143.868 
L 233.822233 145.662545 
L 234.122406 147.457091 
L 234.378471 149.251636 
L 234.582147 151.046182 
L 234.726793 152.840727 
L 234.807821 154.635273 
L 234.822962 156.429818 
L 234.772387 158.224364 
L 234.65865 160.018909 
L 234.486495 161.813455 
L 234.262542 163.608 
L 233.994886 165.402545 
L 233.692663 167.197091 
L 233.365604 168.991636 
L 233.023623 170.786182 
L 232.676444 172.580727 
L 232.333275 174.375273 
L 232.002547 176.169818 
L 231.691683 177.964364 
L 231.406918 179.758909 
L 231.15314 181.553455 
L 230.933761 183.348 
L 230.75061 185.142545 
L 230.603866 186.937091 
L 230.492016 188.731636 
L 230.411882 190.526182 
L 230.358699 192.320727 
L 230.326279 194.115273 
L 230.307253 195.909818 
L 230.293401 197.704364 
L 230.276049 199.498909 
L 230.246532 201.293455 
L 230.19668 203.088 
L 230.119299 204.882545 
L 230.008616 206.677091 
L 229.860627 208.471636 
L 229.673343 210.266182 
L 229.446873 212.060727 
L 229.18337 213.855273 
L 228.886809 215.649818 
L 228.562636 217.444364 
L 228.217324 219.238909 
L 227.857864 221.033455 
L 227.491263 222.828 
L 227.124087 224.622545 
L 226.76209 226.417091 
L 226.409972 228.211636 
L 226.071255 230.006182 
L 225.748307 231.800727 
L 225.442462 233.595273 
L 225.154223 235.389818 
L 224.883505 237.184364 
L 224.629884 238.978909 
L 224.392815 240.773455 
L 224.171791 242.568 
z
" clip-path="url(#pa335d1e3b9)" style="fill: #1f77b4; fill-opacity: 0.3"/>
   </g>
   <g id="PolyCollection_7">
    <path d="M 251.337271 243.828 
L 248.323782 243.828 
L 248.114023 242.109818 
L 247.890741 240.391636 
L 247.654667 238.673455 
L 247.406507 236.955273 
L 247.146921 235.237091 
L 246.876499 233.518909 
L 246.595771 231.800727 
L 246.305218 230.082545 
L 246.005287 228.364364 
L 245.696418 226.646182 
L 245.379052 224.928 
L 245.053645 223.209818 
L 244.720668 221.491636 
L 244.380613 219.773455 
L 244.034004 218.055273 
L 243.681415 216.337091 
L 243.323511 214.618909 
L 242.961105 212.900727 
L 242.595228 211.182545 
L 242.227209 209.464364 
L 241.858741 207.746182 
L 241.491931 206.028 
L 241.129305 204.309818 
L 240.773772 202.591636 
L 240.42853 200.873455 
L 240.096917 199.155273 
L 239.782234 197.437091 
L 239.487527 195.718909 
L 239.215387 194.000727 
L 238.967763 192.282545 
L 238.74582 190.564364 
L 238.549868 188.846182 
L 238.379352 187.128 
L 238.232923 185.409818 
L 238.108571 183.691636 
L 238.003809 181.973455 
L 237.915893 180.255273 
L 237.84205 178.537091 
L 237.779696 176.818909 
L 237.726628 175.100727 
L 237.68117 173.382545 
L 237.642264 171.664364 
L 237.609505 169.946182 
L 237.583112 168.228 
L 237.563844 166.509818 
L 237.552873 164.791636 
L 237.551611 163.073455 
L 237.561521 161.355273 
L 237.583919 159.637091 
L 237.619784 157.918909 
L 237.669589 156.200727 
L 237.733181 154.482545 
L 237.809714 152.764364 
L 237.897643 151.046182 
L 237.994798 149.328 
L 238.098532 147.609818 
L 238.205928 145.891636 
L 238.314067 144.173455 
L 238.420321 142.455273 
L 238.522648 140.737091 
L 238.619858 139.018909 
L 238.711816 137.300727 
L 238.799549 135.582545 
L 238.885245 133.864364 
L 238.972125 132.146182 
L 239.0642 130.428 
L 239.165936 128.709818 
L 239.281853 126.991636 
L 239.416111 125.273455 
L 239.572122 123.555273 
L 239.752249 121.837091 
L 239.957601 120.118909 
L 240.187982 118.400727 
L 240.441962 116.682545 
L 240.717075 114.964364 
L 241.010108 113.246182 
L 241.317436 111.528 
L 241.635355 109.809818 
L 241.960377 108.091636 
L 242.289451 106.373455 
L 242.620088 104.655273 
L 242.950397 102.937091 
L 243.279038 101.218909 
L 243.605115 99.500727 
L 243.928048 97.782545 
L 244.247438 96.064364 
L 244.562958 94.346182 
L 244.874274 92.628 
L 245.181011 90.909818 
L 245.482746 89.191636 
L 245.77902 87.473455 
L 246.06936 85.755273 
L 246.353291 84.037091 
L 246.630331 82.318909 
L 246.899983 80.600727 
L 247.161693 78.882545 
L 247.414827 77.164364 
L 247.658638 75.446182 
L 247.892259 73.728 
L 251.768794 73.728 
L 251.768794 73.728 
L 252.002416 75.446182 
L 252.246227 77.164364 
L 252.499361 78.882545 
L 252.761071 80.600727 
L 253.030722 82.318909 
L 253.307763 84.037091 
L 253.591693 85.755273 
L 253.882033 87.473455 
L 254.178308 89.191636 
L 254.480043 90.909818 
L 254.78678 92.628 
L 255.098096 94.346182 
L 255.413615 96.064364 
L 255.733006 97.782545 
L 256.055939 99.500727 
L 256.382016 101.218909 
L 256.710656 102.937091 
L 257.040965 104.655273 
L 257.371602 106.373455 
L 257.700676 108.091636 
L 258.025698 109.809818 
L 258.343617 111.528 
L 258.650945 113.246182 
L 258.943979 114.964364 
L 259.219092 116.682545 
L 259.473072 118.400727 
L 259.703453 120.118909 
L 259.908805 121.837091 
L 260.088931 123.555273 
L 260.244943 125.273455 
L 260.379201 126.991636 
L 260.495118 128.709818 
L 260.596854 130.428 
L 260.688929 132.146182 
L 260.775808 133.864364 
L 260.861504 135.582545 
L 260.949238 137.300727 
L 261.041196 139.018909 
L 261.138406 140.737091 
L 261.240733 142.455273 
L 261.346986 144.173455 
L 261.455125 145.891636 
L 261.562522 147.609818 
L 261.666256 149.328 
L 261.763411 151.046182 
L 261.851339 152.764364 
L 261.927872 154.482545 
L 261.991465 156.200727 
L 262.04127 157.918909 
L 262.077134 159.637091 
L 262.099533 161.355273 
L 262.109443 163.073455 
L 262.10818 164.791636 
L 262.097209 166.509818 
L 262.077941 168.228 
L 262.051548 169.946182 
L 262.018789 171.664364 
L 261.979884 173.382545 
L 261.934426 175.100727 
L 261.881358 176.818909 
L 261.819004 178.537091 
L 261.745161 180.255273 
L 261.657245 181.973455 
L 261.552483 183.691636 
L 261.42813 185.409818 
L 261.281701 187.128 
L 261.111185 188.846182 
L 260.915233 190.564364 
L 260.693291 192.282545 
L 260.445666 194.000727 
L 260.173527 195.718909 
L 259.87882 197.437091 
L 259.564136 199.155273 
L 259.232524 200.873455 
L 258.887281 202.591636 
L 258.531749 204.309818 
L 258.169123 206.028 
L 257.802312 207.746182 
L 257.433845 209.464364 
L 257.065825 211.182545 
L 256.699949 212.900727 
L 256.337542 214.618909 
L 255.979638 216.337091 
L 255.627049 218.055273 
L 255.28044 219.773455 
L 254.940386 221.491636 
L 254.607409 223.209818 
L 254.282001 224.928 
L 253.964635 226.646182 
L 253.655766 228.364364 
L 253.355836 230.082545 
L 253.065282 231.800727 
L 252.784554 233.518909 
L 252.514133 235.237091 
L 252.254546 236.955273 
L 252.006387 238.673455 
L 251.770312 240.391636 
L 251.54703 242.109818 
L 251.337271 243.828 
z
" clip-path="url(#pa335d1e3b9)" style="fill: #1f77b4; fill-opacity: 0.3"/>
   </g>
   <g id="PolyCollection_8">
    <path d="M 278.079911 251.388 
L 276.154104 251.388 
L 275.961068 249.478909 
L 275.741768 247.569818 
L 275.495872 245.660727 
L 275.223815 243.751636 
L 274.926839 241.842545 
L 274.606973 239.933455 
L 274.266969 238.024364 
L 273.910191 236.115273 
L 273.54047 234.206182 
L 273.161956 232.297091 
L 272.778956 230.388 
L 272.395787 228.478909 
L 272.016638 226.569818 
L 271.645436 224.660727 
L 271.285718 222.751636 
L 270.940513 220.842545 
L 270.612221 218.933455 
L 270.302516 217.024364 
L 270.012283 215.115273 
L 269.741594 213.206182 
L 269.489759 211.297091 
L 269.255437 209.388 
L 269.036815 207.478909 
L 268.831833 205.569818 
L 268.638422 203.660727 
L 268.454727 201.751636 
L 268.279286 199.842545 
L 268.111116 197.933455 
L 267.949726 196.024364 
L 267.795038 194.115273 
L 267.647237 192.206182 
L 267.506584 190.297091 
L 267.373234 188.388 
L 267.247065 186.478909 
L 267.127574 184.569818 
L 267.01383 182.660727 
L 266.904495 180.751636 
L 266.797895 178.842545 
L 266.692134 176.933455 
L 266.585235 175.024364 
L 266.475278 173.115273 
L 266.360561 171.206182 
L 266.239739 169.297091 
L 266.111987 167.388 
L 265.977146 165.478909 
L 265.835871 163.569818 
L 265.68976 161.660727 
L 265.541433 159.751636 
L 265.394552 157.842545 
L 265.253741 155.933455 
L 265.124404 154.024364 
L 265.012423 152.115273 
L 264.923773 150.206182 
L 264.864067 148.297091 
L 264.838091 146.388 
L 264.849385 144.478909 
L 264.899914 142.569818 
L 264.989885 140.660727 
L 265.117729 138.751636 
L 265.280251 136.842545 
L 265.472933 134.933455 
L 265.690348 133.024364 
L 265.926646 131.115273 
L 266.176027 129.206182 
L 266.43319 127.297091 
L 266.693681 125.388 
L 266.954128 123.478909 
L 267.212358 121.569818 
L 267.467391 119.660727 
L 267.719342 117.751636 
L 267.969247 115.842545 
L 268.218857 113.933455 
L 268.470405 112.024364 
L 268.726394 110.115273 
L 268.989391 108.206182 
L 269.261853 106.297091 
L 269.545973 104.388 
L 269.843546 102.478909 
L 270.155846 100.569818 
L 270.483524 98.660727 
L 270.826509 96.751636 
L 271.183947 94.842545 
L 271.554152 92.933455 
L 271.934617 91.024364 
L 272.322068 89.115273 
L 272.712577 87.206182 
L 273.10173 85.297091 
L 273.484854 83.388 
L 273.857261 81.478909 
L 274.214512 79.569818 
L 274.552664 77.660727 
L 274.868478 75.751636 
L 275.159569 73.842545 
L 275.42448 71.933455 
L 275.662684 70.024364 
L 275.874515 68.115273 
L 276.061035 66.206182 
L 276.223869 64.297091 
L 276.36502 62.388 
L 277.868995 62.388 
L 277.868995 62.388 
L 278.010145 64.297091 
L 278.172979 66.206182 
L 278.359499 68.115273 
L 278.57133 70.024364 
L 278.809535 71.933455 
L 279.074446 73.842545 
L 279.365536 75.751636 
L 279.68135 77.660727 
L 280.019502 79.569818 
L 280.376753 81.478909 
L 280.74916 83.388 
L 281.132284 85.297091 
L 281.521438 87.206182 
L 281.911946 89.115273 
L 282.299397 91.024364 
L 282.679863 92.933455 
L 283.050068 94.842545 
L 283.407505 96.751636 
L 283.750491 98.660727 
L 284.078168 100.569818 
L 284.390469 102.478909 
L 284.688041 104.388 
L 284.972162 106.297091 
L 285.244624 108.206182 
L 285.507621 110.115273 
L 285.76361 112.024364 
L 286.015158 113.933455 
L 286.264767 115.842545 
L 286.514673 117.751636 
L 286.766623 119.660727 
L 287.021656 121.569818 
L 287.279886 123.478909 
L 287.540334 125.388 
L 287.800824 127.297091 
L 288.057988 129.206182 
L 288.307369 131.115273 
L 288.543666 133.024364 
L 288.761082 134.933455 
L 288.953763 136.842545 
L 289.116285 138.751636 
L 289.244129 140.660727 
L 289.334101 142.569818 
L 289.38463 144.478909 
L 289.395924 146.388 
L 289.369948 148.297091 
L 289.310242 150.206182 
L 289.221592 152.115273 
L 289.109611 154.024364 
L 288.980273 155.933455 
L 288.839463 157.842545 
L 288.692582 159.751636 
L 288.544255 161.660727 
L 288.398144 163.569818 
L 288.256869 165.478909 
L 288.122027 167.388 
L 287.994275 169.297091 
L 287.873454 171.206182 
L 287.758736 173.115273 
L 287.64878 175.024364 
L 287.54188 176.933455 
L 287.43612 178.842545 
L 287.329519 180.751636 
L 287.220184 182.660727 
L 287.106441 184.569818 
L 286.98695 186.478909 
L 286.860781 188.388 
L 286.72743 190.297091 
L 286.586778 192.206182 
L 286.438976 194.115273 
L 286.284288 196.024364 
L 286.122899 197.933455 
L 285.954729 199.842545 
L 285.779287 201.751636 
L 285.595593 203.660727 
L 285.402181 205.569818 
L 285.197199 207.478909 
L 284.978578 209.388 
L 284.744256 211.297091 
L 284.492421 213.206182 
L 284.221732 215.115273 
L 283.931498 217.024364 
L 283.621794 218.933455 
L 283.293501 220.842545 
L 282.948296 222.751636 
L 282.588579 224.660727 
L 282.217376 226.569818 
L 281.838227 228.478909 
L 281.455059 230.388 
L 281.072059 232.297091 
L 280.693544 234.206182 
L 280.323824 236.115273 
L 279.967045 238.024364 
L 279.627042 239.933455 
L 279.307176 241.842545 
L 279.010199 243.751636 
L 278.738143 245.660727 
L 278.492247 247.569818 
L 278.272946 249.478909 
L 278.079911 251.388 
z
" clip-path="url(#pa335d1e3b9)" style="fill: #1f77b4; fill-opacity: 0.3"/>
   </g>
   <g id="PolyCollection_9">
    <path d="M 305.936117 248.868 
L 302.870858 248.868 
L 302.645961 246.946182 
L 302.404898 245.024364 
L 302.148464 243.102545 
L 301.877583 241.180727 
L 301.593285 239.258909 
L 301.29665 237.337091 
L 300.988754 235.415273 
L 300.670598 233.493455 
L 300.343036 231.571636 
L 300.006722 229.649818 
L 299.662079 227.728 
L 299.309316 225.806182 
L 298.948497 223.884364 
L 298.579658 221.962545 
L 298.20297 220.040727 
L 297.818931 218.118909 
L 297.428544 216.197091 
L 297.033465 214.275273 
L 296.636082 212.353455 
L 296.239511 210.431636 
L 295.847481 208.509818 
L 295.464137 206.588 
L 295.093757 204.666182 
L 294.740432 202.744364 
L 294.407755 200.822545 
L 294.098545 198.900727 
L 293.814666 196.978909 
L 293.556952 195.057091 
L 293.325255 193.135273 
L 293.118603 191.213455 
L 292.935436 189.291636 
L 292.773899 187.369818 
L 292.632128 185.448 
L 292.508513 183.526182 
L 292.401895 181.604364 
L 292.311694 179.682545 
L 292.237955 177.760727 
L 292.181327 175.838909 
L 292.142998 173.917091 
L 292.124572 171.995273 
L 292.127941 170.073455 
L 292.155123 168.151636 
L 292.208088 166.229818 
L 292.28857 164.308 
L 292.39786 162.386182 
L 292.536599 160.464364 
L 292.704576 158.542545 
L 292.900552 156.620727 
L 293.122145 154.698909 
L 293.365786 152.777091 
L 293.626785 150.855273 
L 293.899507 148.933455 
L 294.177663 147.011636 
L 294.454687 145.089818 
L 294.724189 143.168 
L 294.980414 141.246182 
L 295.218677 139.324364 
L 295.435712 137.402545 
L 295.629909 135.480727 
L 295.801407 133.558909 
L 295.952035 131.637091 
L 296.085115 129.715273 
L 296.205159 127.793455 
L 296.317486 125.871636 
L 296.427813 123.949818 
L 296.541859 122.028 
L 296.664984 120.106182 
L 296.80191 118.184364 
L 296.956515 116.262545 
L 297.131709 114.340727 
L 297.329381 112.418909 
L 297.550412 110.497091 
L 297.794717 108.575273 
L 298.06132 106.653455 
L 298.348446 104.731636 
L 298.653611 102.809818 
L 298.973725 100.888 
L 299.305198 98.966182 
L 299.64406 97.044364 
L 299.986085 95.122545 
L 300.326937 93.200727 
L 300.662316 91.278909 
L 300.988113 89.357091 
L 301.300562 87.435273 
L 301.596374 85.513455 
L 301.872865 83.591636 
L 302.128041 81.669818 
L 302.360667 79.748 
L 302.570289 77.826182 
L 302.757221 75.904364 
L 302.922495 73.982545 
L 303.067766 72.060727 
L 303.195181 70.138909 
L 303.307219 68.217091 
L 303.406514 66.295273 
L 303.495669 64.373455 
L 303.577085 62.451636 
L 303.652811 60.529818 
L 303.724442 58.608 
L 305.082534 58.608 
L 305.082534 58.608 
L 305.154165 60.529818 
L 305.229891 62.451636 
L 305.311306 64.373455 
L 305.400462 66.295273 
L 305.499757 68.217091 
L 305.611795 70.138909 
L 305.739209 72.060727 
L 305.88448 73.982545 
L 306.049755 75.904364 
L 306.236687 77.826182 
L 306.446309 79.748 
L 306.678934 81.669818 
L 306.934111 83.591636 
L 307.210601 85.513455 
L 307.506414 87.435273 
L 307.818862 89.357091 
L 308.14466 91.278909 
L 308.480039 93.200727 
L 308.820891 95.122545 
L 309.162916 97.044364 
L 309.501778 98.966182 
L 309.833251 100.888 
L 310.153364 102.809818 
L 310.458529 104.731636 
L 310.745655 106.653455 
L 311.012259 108.575273 
L 311.256563 110.497091 
L 311.477594 112.418909 
L 311.675267 114.340727 
L 311.85046 116.262545 
L 312.005066 118.184364 
L 312.141992 120.106182 
L 312.265117 122.028 
L 312.379162 123.949818 
L 312.48949 125.871636 
L 312.601817 127.793455 
L 312.72186 129.715273 
L 312.854941 131.637091 
L 313.005568 133.558909 
L 313.177067 135.480727 
L 313.371264 137.402545 
L 313.588299 139.324364 
L 313.826561 141.246182 
L 314.082787 143.168 
L 314.352289 145.089818 
L 314.629313 147.011636 
L 314.907468 148.933455 
L 315.180191 150.855273 
L 315.44119 152.777091 
L 315.684831 154.698909 
L 315.906424 156.620727 
L 316.1024 158.542545 
L 316.270377 160.464364 
L 316.409116 162.386182 
L 316.518405 164.308 
L 316.598887 166.229818 
L 316.651853 168.151636 
L 316.679035 170.073455 
L 316.682404 171.995273 
L 316.663978 173.917091 
L 316.625648 175.838909 
L 316.569021 177.760727 
L 316.495282 179.682545 
L 316.405081 181.604364 
L 316.298463 183.526182 
L 316.174848 185.448 
L 316.033076 187.369818 
L 315.871539 189.291636 
L 315.688373 191.213455 
L 315.48172 193.135273 
L 315.250024 195.057091 
L 314.99231 196.978909 
L 314.708431 198.900727 
L 314.399221 200.822545 
L 314.066543 202.744364 
L 313.713219 204.666182 
L 313.342838 206.588 
L 312.959494 208.509818 
L 312.567465 210.431636 
L 312.170894 212.353455 
L 311.773511 214.275273 
L 311.378431 216.197091 
L 310.988044 218.118909 
L 310.604005 220.040727 
L 310.227318 221.962545 
L 309.858478 223.884364 
L 309.497659 225.806182 
L 309.144897 227.728 
L 308.800254 229.649818 
L 308.46394 231.571636 
L 308.136378 233.493455 
L 307.818221 235.415273 
L 307.510326 237.337091 
L 307.213691 239.258909 
L 306.929392 241.180727 
L 306.658512 243.102545 
L 306.402077 245.024364 
L 306.161015 246.946182 
L 305.936117 248.868 
z
" clip-path="url(#pa335d1e3b9)" style="fill: #1f77b4; fill-opacity: 0.3"/>
   </g>
   <g id="PolyCollection_10">
    <path d="M 332.599784 253.908 
L 330.780153 253.908 
L 330.622952 252.037091 
L 330.449558 250.166182 
L 330.260435 248.295273 
L 330.056449 246.424364 
L 329.838839 244.553455 
L 329.609125 242.682545 
L 329.368986 240.811636 
L 329.120096 238.940727 
L 328.863944 237.069818 
L 328.601652 235.198909 
L 328.333818 233.328 
L 328.060413 231.457091 
L 327.780742 229.586182 
L 327.49348 227.715273 
L 327.196792 225.844364 
L 326.888521 223.973455 
L 326.566425 222.102545 
L 326.228447 220.231636 
L 325.872982 218.360727 
L 325.499123 216.489818 
L 325.106867 214.618909 
L 324.697256 212.748 
L 324.272455 210.877091 
L 323.83576 209.006182 
L 323.391531 207.135273 
L 322.945062 205.264364 
L 322.502379 203.393455 
L 322.069987 201.522545 
L 321.654571 199.651636 
L 321.26266 197.780727 
L 320.900293 195.909818 
L 320.572683 194.038909 
L 320.283939 192.168 
L 320.036853 190.297091 
L 319.832774 188.426182 
L 319.671602 186.555273 
L 319.551877 184.684364 
L 319.470976 182.813455 
L 319.425392 180.942545 
L 319.411052 179.071636 
L 319.423653 177.200727 
L 319.458974 175.329818 
L 319.513136 173.458909 
L 319.582788 171.588 
L 319.66521 169.717091 
L 319.758348 167.846182 
L 319.860775 165.975273 
L 319.971622 164.104364 
L 320.090483 162.233455 
L 320.217331 160.362545 
L 320.352441 158.491636 
L 320.496327 156.620727 
L 320.649689 154.749818 
L 320.813354 152.878909 
L 320.988192 151.008 
L 321.175 149.137091 
L 321.374362 147.266182 
L 321.586474 145.395273 
L 321.810985 143.524364 
L 322.046856 141.653455 
L 322.292284 139.782545 
L 322.544708 137.911636 
L 322.800904 136.040727 
L 323.05718 134.169818 
L 323.309639 132.298909 
L 323.554491 130.428 
L 323.788372 128.557091 
L 324.008632 126.686182 
L 324.213564 124.815273 
L 324.40254 122.944364 
L 324.576056 121.073455 
L 324.735673 119.202545 
L 324.883864 117.331636 
L 325.023801 115.460727 
L 325.159095 113.589818 
L 325.293517 111.718909 
L 325.430732 109.848 
L 325.574081 107.977091 
L 325.7264 106.106182 
L 325.889918 104.235273 
L 326.066217 102.364364 
L 326.256249 100.493455 
L 326.460391 98.622545 
L 326.678527 96.751636 
L 326.910127 94.880727 
L 327.154307 93.009818 
L 327.409863 91.138909 
L 327.675283 89.268 
L 327.948732 87.397091 
L 328.228037 85.526182 
L 328.510686 83.655273 
L 328.793853 81.784364 
L 329.074465 79.913455 
L 329.349308 78.042545 
L 329.615171 76.171636 
L 329.869002 74.300727 
L 330.108075 72.429818 
L 330.330127 70.558909 
L 330.533468 68.688 
L 332.846469 68.688 
L 332.846469 68.688 
L 333.049809 70.558909 
L 333.271861 72.429818 
L 333.510934 74.300727 
L 333.764766 76.171636 
L 334.030629 78.042545 
L 334.305472 79.913455 
L 334.586084 81.784364 
L 334.869251 83.655273 
L 335.1519 85.526182 
L 335.431205 87.397091 
L 335.704654 89.268 
L 335.970074 91.138909 
L 336.22563 93.009818 
L 336.46981 94.880727 
L 336.70141 96.751636 
L 336.919546 98.622545 
L 337.123688 100.493455 
L 337.31372 102.364364 
L 337.490019 104.235273 
L 337.653537 106.106182 
L 337.805855 107.977091 
L 337.949204 109.848 
L 338.08642 111.718909 
L 338.220841 113.589818 
L 338.356135 115.460727 
L 338.496073 117.331636 
L 338.644264 119.202545 
L 338.80388 121.073455 
L 338.977397 122.944364 
L 339.166373 124.815273 
L 339.371304 126.686182 
L 339.591565 128.557091 
L 339.825446 130.428 
L 340.070298 132.298909 
L 340.322757 134.169818 
L 340.579033 136.040727 
L 340.835229 137.911636 
L 341.087653 139.782545 
L 341.333081 141.653455 
L 341.568952 143.524364 
L 341.793463 145.395273 
L 342.005575 147.266182 
L 342.204936 149.137091 
L 342.391745 151.008 
L 342.566583 152.878909 
L 342.730248 154.749818 
L 342.88361 156.620727 
L 343.027496 158.491636 
L 343.162605 160.362545 
L 343.289454 162.233455 
L 343.408315 164.104364 
L 343.519161 165.975273 
L 343.621588 167.846182 
L 343.714726 169.717091 
L 343.797149 171.588 
L 343.8668 173.458909 
L 343.920962 175.329818 
L 343.956284 177.200727 
L 343.968885 179.071636 
L 343.954545 180.942545 
L 343.908961 182.813455 
L 343.82806 184.684364 
L 343.708334 186.555273 
L 343.547162 188.426182 
L 343.343084 190.297091 
L 343.095998 192.168 
L 342.807254 194.038909 
L 342.479644 195.909818 
L 342.117276 197.780727 
L 341.725366 199.651636 
L 341.30995 201.522545 
L 340.877558 203.393455 
L 340.434874 205.264364 
L 339.988405 207.135273 
L 339.544177 209.006182 
L 339.107482 210.877091 
L 338.682681 212.748 
L 338.27307 214.618909 
L 337.880814 216.489818 
L 337.506955 218.360727 
L 337.15149 220.231636 
L 336.813512 222.102545 
L 336.491416 223.973455 
L 336.183145 225.844364 
L 335.886457 227.715273 
L 335.599195 229.586182 
L 335.319524 231.457091 
L 335.046119 233.328 
L 334.778285 235.198909 
L 334.515992 237.069818 
L 334.259841 238.940727 
L 334.010951 240.811636 
L 333.770812 242.682545 
L 333.541098 244.553455 
L 333.323487 246.424364 
L 333.119502 248.295273 
L 332.930379 250.166182 
L 332.756985 252.037091 
L 332.599784 253.908 
z
" clip-path="url(#pa335d1e3b9)" style="fill: #1f77b4; fill-opacity: 0.3"/>
   </g>
   <g id="PolyCollection_11">
    <path d="M 360.751717 241.308 
L 357.201181 241.308 
L 356.933608 239.411636 
L 356.640746 237.515273 
L 356.32165 235.618909 
L 355.9756 233.722545 
L 355.60228 231.826182 
L 355.201988 229.929818 
L 354.77586 228.033455 
L 354.32608 226.137091 
L 353.856042 224.240727 
L 353.370442 222.344364 
L 352.875267 220.448 
L 352.377669 218.551636 
L 351.885713 216.655273 
L 351.408015 214.758909 
L 350.953278 212.862545 
L 350.529768 210.966182 
L 350.144767 209.069818 
L 349.804048 207.173455 
L 349.511427 205.277091 
L 349.268424 203.380727 
L 349.074077 201.484364 
L 348.924927 199.588 
L 348.815183 197.691636 
L 348.737062 195.795273 
L 348.681284 193.898909 
L 348.637691 192.002545 
L 348.595951 190.106182 
L 348.546302 188.209818 
L 348.480276 186.313455 
L 348.391369 184.417091 
L 348.27559 182.520727 
L 348.131852 180.624364 
L 347.962164 178.728 
L 347.771591 176.831636 
L 347.567981 174.935273 
L 347.36145 173.038909 
L 347.163669 171.142545 
L 346.986994 169.246182 
L 346.843513 167.349818 
L 346.744096 165.453455 
L 346.697533 163.557091 
L 346.709839 161.660727 
L 346.783807 159.764364 
L 346.918827 157.868 
L 347.111005 155.971636 
L 347.353534 154.075273 
L 347.637294 152.178909 
L 347.95159 150.282545 
L 348.284953 148.386182 
L 348.625926 146.489818 
L 348.963766 144.593455 
L 349.288999 142.697091 
L 349.593811 140.800727 
L 349.872258 138.904364 
L 350.120313 137.008 
L 350.33578 135.111636 
L 350.518106 133.215273 
L 350.668138 131.318909 
L 350.787869 129.422545 
L 350.880189 127.526182 
L 350.948678 125.629818 
L 350.997443 123.733455 
L 351.031 121.837091 
L 351.054186 119.940727 
L 351.07209 118.044364 
L 351.089985 116.148 
L 351.113231 114.251636 
L 351.147158 112.355273 
L 351.196896 110.458909 
L 351.267188 108.562545 
L 351.362166 106.666182 
L 351.485136 104.769818 
L 351.638379 102.873455 
L 351.823003 100.977091 
L 352.038856 99.080727 
L 352.284521 97.184364 
L 352.557396 95.288 
L 352.85385 93.391636 
L 353.169452 91.495273 
L 353.499232 89.598909 
L 353.837973 87.702545 
L 354.180488 85.806182 
L 354.52187 83.909818 
L 354.857699 82.013455 
L 355.184187 80.117091 
L 355.498264 78.220727 
L 355.797608 76.324364 
L 356.080623 74.428 
L 356.34638 72.531636 
L 356.594528 70.635273 
L 356.825194 68.738909 
L 357.038872 66.842545 
L 357.23632 64.946182 
L 357.418458 63.049818 
L 357.586281 61.153455 
L 357.74079 59.257091 
L 357.882931 57.360727 
L 358.013558 55.464364 
L 358.133408 53.568 
L 359.81949 53.568 
L 359.81949 53.568 
L 359.93934 55.464364 
L 360.069967 57.360727 
L 360.212108 59.257091 
L 360.366617 61.153455 
L 360.53444 63.049818 
L 360.716578 64.946182 
L 360.914025 66.842545 
L 361.127704 68.738909 
L 361.35837 70.635273 
L 361.606518 72.531636 
L 361.872275 74.428 
L 362.15529 76.324364 
L 362.454634 78.220727 
L 362.768711 80.117091 
L 363.095199 82.013455 
L 363.431028 83.909818 
L 363.77241 85.806182 
L 364.114925 87.702545 
L 364.453666 89.598909 
L 364.783446 91.495273 
L 365.099048 93.391636 
L 365.395502 95.288 
L 365.668377 97.184364 
L 365.914042 99.080727 
L 366.129895 100.977091 
L 366.314519 102.873455 
L 366.467762 104.769818 
L 366.590732 106.666182 
L 366.685709 108.562545 
L 366.756001 110.458909 
L 366.80574 112.355273 
L 366.839667 114.251636 
L 366.862913 116.148 
L 366.880808 118.044364 
L 366.898712 119.940727 
L 366.921898 121.837091 
L 366.955455 123.733455 
L 367.00422 125.629818 
L 367.072709 127.526182 
L 367.165029 129.422545 
L 367.28476 131.318909 
L 367.434792 133.215273 
L 367.617118 135.111636 
L 367.832585 137.008 
L 368.08064 138.904364 
L 368.359086 140.800727 
L 368.663898 142.697091 
L 368.989132 144.593455 
L 369.326972 146.489818 
L 369.667945 148.386182 
L 370.001308 150.282545 
L 370.315604 152.178909 
L 370.599364 154.075273 
L 370.841893 155.971636 
L 371.03407 157.868 
L 371.169091 159.764364 
L 371.243059 161.660727 
L 371.255365 163.557091 
L 371.208802 165.453455 
L 371.109385 167.349818 
L 370.965904 169.246182 
L 370.789229 171.142545 
L 370.591448 173.038909 
L 370.384917 174.935273 
L 370.181307 176.831636 
L 369.990734 178.728 
L 369.821046 180.624364 
L 369.677308 182.520727 
L 369.561529 184.417091 
L 369.472622 186.313455 
L 369.406596 188.209818 
L 369.356946 190.106182 
L 369.315207 192.002545 
L 369.271614 193.898909 
L 369.215835 195.795273 
L 369.137714 197.691636 
L 369.02797 199.588 
L 368.878821 201.484364 
L 368.684474 203.380727 
L 368.441471 205.277091 
L 368.148849 207.173455 
L 367.808131 209.069818 
L 367.423129 210.966182 
L 366.999619 212.862545 
L 366.544882 214.758909 
L 366.067184 216.655273 
L 365.575229 218.551636 
L 365.07763 220.448 
L 364.582456 222.344364 
L 364.096856 224.240727 
L 363.626818 226.137091 
L 363.177038 228.033455 
L 362.75091 229.929818 
L 362.350618 231.826182 
L 361.977298 233.722545 
L 361.631248 235.618909 
L 361.312152 237.515273 
L 361.019289 239.411636 
L 360.751717 241.308 
z
" clip-path="url(#pa335d1e3b9)" style="fill: #1f77b4; fill-opacity: 0.3"/>
   </g>
   <g id="PolyCollection_12">
    <path d="M 388.573446 241.308 
L 383.843267 241.308 
L 383.521417 239.424364 
L 383.180352 237.540727 
L 382.821789 235.657091 
L 382.447593 233.773455 
L 382.059742 231.889818 
L 381.66031 230.006182 
L 381.251457 228.122545 
L 380.835438 226.238909 
L 380.414597 224.355273 
L 379.991371 222.471636 
L 379.568276 220.588 
L 379.147878 218.704364 
L 378.732755 216.820727 
L 378.325448 214.937091 
L 377.9284 213.053455 
L 377.543906 211.169818 
L 377.174064 209.286182 
L 376.820736 207.402545 
L 376.485524 205.518909 
L 376.169754 203.635273 
L 375.874467 201.751636 
L 375.600418 199.868 
L 375.348078 197.984364 
L 375.117632 196.100727 
L 374.908999 194.217091 
L 374.721853 192.333455 
L 374.555673 190.449818 
L 374.409817 188.566182 
L 374.283617 186.682545 
L 374.176507 184.798909 
L 374.088148 182.915273 
L 374.018554 181.031636 
L 373.968188 179.148 
L 373.938006 177.264364 
L 373.92944 175.380727 
L 373.944309 173.497091 
L 373.984654 171.613455 
L 374.052518 169.729818 
L 374.149692 167.846182 
L 374.277447 165.962545 
L 374.436295 164.078909 
L 374.625803 162.195273 
L 374.844469 160.311636 
L 375.089693 158.428 
L 375.357832 156.544364 
L 375.644327 154.660727 
L 375.943898 152.777091 
L 376.250789 150.893455 
L 376.55903 149.009818 
L 376.862714 147.126182 
L 377.15627 145.242545 
L 377.434716 143.358909 
L 377.693884 141.475273 
L 377.93061 139.591636 
L 378.142871 137.708 
L 378.329861 135.824364 
L 378.491999 133.940727 
L 378.630852 132.057091 
L 378.74898 130.173455 
L 378.849704 128.289818 
L 378.936826 126.406182 
L 379.014311 124.522545 
L 379.085982 122.638909 
L 379.155248 120.755273 
L 379.224917 118.871636 
L 379.297097 116.988 
L 379.373207 115.104364 
L 379.454096 113.220727 
L 379.540232 111.337091 
L 379.631936 109.453455 
L 379.729624 107.569818 
L 379.834 105.686182 
L 379.946171 103.802545 
L 380.067668 101.918909 
L 380.200357 100.035273 
L 380.34625 98.151636 
L 380.507254 96.268 
L 380.684889 94.384364 
L 380.880016 92.500727 
L 381.092625 90.617091 
L 381.321702 88.733455 
L 381.565215 86.849818 
L 381.820202 84.966182 
L 382.082967 83.082545 
L 382.349357 81.198909 
L 382.61507 79.315273 
L 382.875992 77.431636 
L 383.128482 75.548 
L 383.369613 73.664364 
L 383.597317 71.780727 
L 383.810446 69.897091 
L 384.00873 68.013455 
L 384.192662 66.129818 
L 384.363317 64.246182 
L 384.522137 62.362545 
L 384.67071 60.478909 
L 384.810564 58.595273 
L 384.943007 56.711636 
L 385.069009 54.828 
L 387.347704 54.828 
L 387.347704 54.828 
L 387.473706 56.711636 
L 387.606149 58.595273 
L 387.746003 60.478909 
L 387.894576 62.362545 
L 388.053396 64.246182 
L 388.224051 66.129818 
L 388.407983 68.013455 
L 388.606267 69.897091 
L 388.819396 71.780727 
L 389.0471 73.664364 
L 389.288231 75.548 
L 389.540721 77.431636 
L 389.801643 79.315273 
L 390.067356 81.198909 
L 390.333746 83.082545 
L 390.596511 84.966182 
L 390.851498 86.849818 
L 391.095011 88.733455 
L 391.324088 90.617091 
L 391.536697 92.500727 
L 391.731824 94.384364 
L 391.909459 96.268 
L 392.070463 98.151636 
L 392.216355 100.035273 
L 392.349044 101.918909 
L 392.470542 103.802545 
L 392.582713 105.686182 
L 392.687089 107.569818 
L 392.784777 109.453455 
L 392.876481 111.337091 
L 392.962617 113.220727 
L 393.043506 115.104364 
L 393.119616 116.988 
L 393.191796 118.871636 
L 393.261465 120.755273 
L 393.330731 122.638909 
L 393.402402 124.522545 
L 393.479887 126.406182 
L 393.567009 128.289818 
L 393.667733 130.173455 
L 393.785861 132.057091 
L 393.924714 133.940727 
L 394.086852 135.824364 
L 394.273842 137.708 
L 394.486103 139.591636 
L 394.722829 141.475273 
L 394.981997 143.358909 
L 395.260443 145.242545 
L 395.553999 147.126182 
L 395.857683 149.009818 
L 396.165924 150.893455 
L 396.472815 152.777091 
L 396.772386 154.660727 
L 397.058881 156.544364 
L 397.32702 158.428 
L 397.572244 160.311636 
L 397.79091 162.195273 
L 397.980418 164.078909 
L 398.139266 165.962545 
L 398.267021 167.846182 
L 398.364195 169.729818 
L 398.432059 171.613455 
L 398.472404 173.497091 
L 398.487273 175.380727 
L 398.478707 177.264364 
L 398.448525 179.148 
L 398.398159 181.031636 
L 398.328565 182.915273 
L 398.240206 184.798909 
L 398.133096 186.682545 
L 398.006896 188.566182 
L 397.86104 190.449818 
L 397.69486 192.333455 
L 397.507714 194.217091 
L 397.299081 196.100727 
L 397.068635 197.984364 
L 396.816294 199.868 
L 396.542246 201.751636 
L 396.246959 203.635273 
L 395.931189 205.518909 
L 395.595977 207.402545 
L 395.242649 209.286182 
L 394.872807 211.169818 
L 394.488313 213.053455 
L 394.091265 214.937091 
L 393.683958 216.820727 
L 393.268835 218.704364 
L 392.848437 220.588 
L 392.425342 222.471636 
L 392.002116 224.355273 
L 391.581275 226.238909 
L 391.165255 228.122545 
L 390.756403 230.006182 
L 390.356971 231.889818 
L 389.96912 233.773455 
L 389.594924 235.657091 
L 389.236361 237.540727 
L 388.895296 239.424364 
L 388.573446 241.308 
z
" clip-path="url(#pa335d1e3b9)" style="fill: #1f77b4; fill-opacity: 0.3"/>
   </g>
   <g id="matplotlib.axis_1">
    <g id="xtick_1">
     <g id="line2d_1">
      <defs>
       <path id="m37621e3f54" d="M 0 0 
L 0 3.5 
" style="stroke: #000000; stroke-width: 0.8"/>
      </defs>
      <g>
       <use xlink:href="#m37621e3f54" x="58.825163" y="307.584" style="stroke: #000000; stroke-width: 0.8"/>
      </g>
     </g>
     <g id="text_1">
      <!-- 0 -->
      <g transform="translate(55.643913 322.182437)scale(0.1 -0.1)">
       <defs>
        <path id="DejaVuSans-30" d="M 2034 4250 
Q 1547 4250 1301 3770 
Q 1056 3291 1056 2328 
Q 1056 1369 1301 889 
Q 1547 409 2034 409 
Q 2525 409 2770 889 
Q 3016 1369 3016 2328 
Q 3016 3291 2770 3770 
Q 2525 4250 2034 4250 
z
M 2034 4750 
Q 2819 4750 3233 4129 
Q 3647 3509 3647 2328 
Q 3647 1150 3233 529 
Q 2819 -91 2034 -91 
Q 1250 -91 836 529 
Q 422 1150 422 2328 
Q 422 3509 836 4129 
Q 1250 4750 2034 4750 
z
" transform="scale(0.015625)"/>
       </defs>
       <use xlink:href="#DejaVuSans-30"/>
      </g>
     </g>
    </g>
    <g id="xtick_2">
     <g id="line2d_2">
      <g>
       <use xlink:href="#m37621e3f54" x="113.398124" y="307.584" style="stroke: #000000; stroke-width: 0.8"/>
      </g>
     </g>
     <g id="text_2">
      <!-- 1000 -->
      <g transform="translate(100.673124 322.182437)scale(0.1 -0.1)">
       <defs>
        <path id="DejaVuSans-31" d="M 794 531 
L 1825 531 
L 1825 4091 
L 703 3866 
L 703 4441 
L 1819 4666 
L 2450 4666 
L 2450 531 
L 3481 531 
L 3481 0 
L 794 0 
L 794 531 
z
" transform="scale(0.015625)"/>
       </defs>
       <use xlink:href="#DejaVuSans-31"/>
       <use xlink:href="#DejaVuSans-30" x="63.623047"/>
       <use xlink:href="#DejaVuSans-30" x="127.246094"/>
       <use xlink:href="#DejaVuSans-30" x="190.869141"/>
      </g>
     </g>
    </g>
    <g id="xtick_3">
     <g id="line2d_3">
      <g>
       <use xlink:href="#m37621e3f54" x="167.971085" y="307.584" style="stroke: #000000; stroke-width: 0.8"/>
      </g>
     </g>
     <g id="text_3">
      <!-- 2000 -->
      <g transform="translate(155.246085 322.182437)scale(0.1 -0.1)">
       <defs>
        <path id="DejaVuSans-32" d="M 1228 531 
L 3431 531 
L 3431 0 
L 469 0 
L 469 531 
Q 828 903 1448 1529 
Q 2069 2156 2228 2338 
Q 2531 2678 2651 2914 
Q 2772 3150 2772 3378 
Q 2772 3750 2511 3984 
Q 2250 4219 1831 4219 
Q 1534 4219 1204 4116 
Q 875 4013 500 3803 
L 500 4441 
Q 881 4594 1212 4672 
Q 1544 4750 1819 4750 
Q 2544 4750 2975 4387 
Q 3406 4025 3406 3419 
Q 3406 3131 3298 2873 
Q 3191 2616 2906 2266 
Q 2828 2175 2409 1742 
Q 1991 1309 1228 531 
z
" transform="scale(0.015625)"/>
       </defs>
       <use xlink:href="#DejaVuSans-32"/>
       <use xlink:href="#DejaVuSans-30" x="63.623047"/>
       <use xlink:href="#DejaVuSans-30" x="127.246094"/>
       <use xlink:href="#DejaVuSans-30" x="190.869141"/>
      </g>
     </g>
    </g>
    <g id="xtick_4">
     <g id="line2d_4">
      <g>
       <use xlink:href="#m37621e3f54" x="222.544046" y="307.584" style="stroke: #000000; stroke-width: 0.8"/>
      </g>
     </g>
     <g id="text_4">
      <!-- 3000 -->
      <g transform="translate(209.819046 322.182437)scale(0.1 -0.1)">
       <defs>
        <path id="DejaVuSans-33" d="M 2597 2516 
Q 3050 2419 3304 2112 
Q 3559 1806 3559 1356 
Q 3559 666 3084 287 
Q 2609 -91 1734 -91 
Q 1441 -91 1130 -33 
Q 819 25 488 141 
L 488 750 
Q 750 597 1062 519 
Q 1375 441 1716 441 
Q 2309 441 2620 675 
Q 2931 909 2931 1356 
Q 2931 1769 2642 2001 
Q 2353 2234 1838 2234 
L 1294 2234 
L 1294 2753 
L 1863 2753 
Q 2328 2753 2575 2939 
Q 2822 3125 2822 3475 
Q 2822 3834 2567 4026 
Q 2313 4219 1838 4219 
Q 1578 4219 1281 4162 
Q 984 4106 628 3988 
L 628 4550 
Q 988 4650 1302 4700 
Q 1616 4750 1894 4750 
Q 2613 4750 3031 4423 
Q 3450 4097 3450 3541 
Q 3450 3153 3228 2886 
Q 3006 2619 2597 2516 
z
" transform="scale(0.015625)"/>
       </defs>
       <use xlink:href="#DejaVuSans-33"/>
       <use xlink:href="#DejaVuSans-30" x="63.623047"/>
       <use xlink:href="#DejaVuSans-30" x="127.246094"/>
       <use xlink:href="#DejaVuSans-30" x="190.869141"/>
      </g>
     </g>
    </g>
    <g id="xtick_5">
     <g id="line2d_5">
      <g>
       <use xlink:href="#m37621e3f54" x="277.117007" y="307.584" style="stroke: #000000; stroke-width: 0.8"/>
      </g>
     </g>
     <g id="text_5">
      <!-- 4000 -->
      <g transform="translate(264.392007 322.182437)scale(0.1 -0.1)">
       <defs>
        <path id="DejaVuSans-34" d="M 2419 4116 
L 825 1625 
L 2419 1625 
L 2419 4116 
z
M 2253 4666 
L 3047 4666 
L 3047 1625 
L 3713 1625 
L 3713 1100 
L 3047 1100 
L 3047 0 
L 2419 0 
L 2419 1100 
L 313 1100 
L 313 1709 
L 2253 4666 
z
" transform="scale(0.015625)"/>
       </defs>
       <use xlink:href="#DejaVuSans-34"/>
       <use xlink:href="#DejaVuSans-30" x="63.623047"/>
       <use xlink:href="#DejaVuSans-30" x="127.246094"/>
       <use xlink:href="#DejaVuSans-30" x="190.869141"/>
      </g>
     </g>
    </g>
    <g id="xtick_6">
     <g id="line2d_6">
      <g>
       <use xlink:href="#m37621e3f54" x="331.689968" y="307.584" style="stroke: #000000; stroke-width: 0.8"/>
      </g>
     </g>
     <g id="text_6">
      <!-- 5000 -->
      <g transform="translate(318.964968 322.182437)scale(0.1 -0.1)">
       <defs>
        <path id="DejaVuSans-35" d="M 691 4666 
L 3169 4666 
L 3169 4134 
L 1269 4134 
L 1269 2991 
Q 1406 3038 1543 3061 
Q 1681 3084 1819 3084 
Q 2600 3084 3056 2656 
Q 3513 2228 3513 1497 
Q 3513 744 3044 326 
Q 2575 -91 1722 -91 
Q 1428 -91 1123 -41 
Q 819 9 494 109 
L 494 744 
Q 775 591 1075 516 
Q 1375 441 1709 441 
Q 2250 441 2565 725 
Q 2881 1009 2881 1497 
Q 2881 1984 2565 2268 
Q 2250 2553 1709 2553 
Q 1456 2553 1204 2497 
Q 953 2441 691 2322 
L 691 4666 
z
" transform="scale(0.015625)"/>
       </defs>
       <use xlink:href="#DejaVuSans-35"/>
       <use xlink:href="#DejaVuSans-30" x="63.623047"/>
       <use xlink:href="#DejaVuSans-30" x="127.246094"/>
       <use xlink:href="#DejaVuSans-30" x="190.869141"/>
      </g>
     </g>
    </g>
    <g id="xtick_7">
     <g id="line2d_7">
      <g>
       <use xlink:href="#m37621e3f54" x="386.262929" y="307.584" style="stroke: #000000; stroke-width: 0.8"/>
      </g>
     </g>
     <g id="text_7">
      <!-- 6000 -->
      <g transform="translate(373.537929 322.182437)scale(0.1 -0.1)">
       <defs>
        <path id="DejaVuSans-36" d="M 2113 2584 
Q 1688 2584 1439 2293 
Q 1191 2003 1191 1497 
Q 1191 994 1439 701 
Q 1688 409 2113 409 
Q 2538 409 2786 701 
Q 3034 994 3034 1497 
Q 3034 2003 2786 2293 
Q 2538 2584 2113 2584 
z
M 3366 4563 
L 3366 3988 
Q 3128 4100 2886 4159 
Q 2644 4219 2406 4219 
Q 1781 4219 1451 3797 
Q 1122 3375 1075 2522 
Q 1259 2794 1537 2939 
Q 1816 3084 2150 3084 
Q 2853 3084 3261 2657 
Q 3669 2231 3669 1497 
Q 3669 778 3244 343 
Q 2819 -91 2113 -91 
Q 1303 -91 875 529 
Q 447 1150 447 2328 
Q 447 3434 972 4092 
Q 1497 4750 2381 4750 
Q 2619 4750 2861 4703 
Q 3103 4656 3366 4563 
z
" transform="scale(0.015625)"/>
       </defs>
       <use xlink:href="#DejaVuSans-36"/>
       <use xlink:href="#DejaVuSans-30" x="63.623047"/>
       <use xlink:href="#DejaVuSans-30" x="127.246094"/>
       <use xlink:href="#DejaVuSans-30" x="190.869141"/>
      </g>
     </g>
    </g>
    <g id="text_8">
     <!-- Learned Episodes -->
     <g transform="translate(192.102187 335.860562)scale(0.1 -0.1)">
      <defs>
       <path id="DejaVuSans-4c" d="M 628 4666 
L 1259 4666 
L 1259 531 
L 3531 531 
L 3531 0 
L 628 0 
L 628 4666 
z
" transform="scale(0.015625)"/>
       <path id="DejaVuSans-65" d="M 3597 1894 
L 3597 1613 
L 953 1613 
Q 991 1019 1311 708 
Q 1631 397 2203 397 
Q 2534 397 2845 478 
Q 3156 559 3463 722 
L 3463 178 
Q 3153 47 2828 -22 
Q 2503 -91 2169 -91 
Q 1331 -91 842 396 
Q 353 884 353 1716 
Q 353 2575 817 3079 
Q 1281 3584 2069 3584 
Q 2775 3584 3186 3129 
Q 3597 2675 3597 1894 
z
M 3022 2063 
Q 3016 2534 2758 2815 
Q 2500 3097 2075 3097 
Q 1594 3097 1305 2825 
Q 1016 2553 972 2059 
L 3022 2063 
z
" transform="scale(0.015625)"/>
       <path id="DejaVuSans-61" d="M 2194 1759 
Q 1497 1759 1228 1600 
Q 959 1441 959 1056 
Q 959 750 1161 570 
Q 1363 391 1709 391 
Q 2188 391 2477 730 
Q 2766 1069 2766 1631 
L 2766 1759 
L 2194 1759 
z
M 3341 1997 
L 3341 0 
L 2766 0 
L 2766 531 
Q 2569 213 2275 61 
Q 1981 -91 1556 -91 
Q 1019 -91 701 211 
Q 384 513 384 1019 
Q 384 1609 779 1909 
Q 1175 2209 1959 2209 
L 2766 2209 
L 2766 2266 
Q 2766 2663 2505 2880 
Q 2244 3097 1772 3097 
Q 1472 3097 1187 3025 
Q 903 2953 641 2809 
L 641 3341 
Q 956 3463 1253 3523 
Q 1550 3584 1831 3584 
Q 2591 3584 2966 3190 
Q 3341 2797 3341 1997 
z
" transform="scale(0.015625)"/>
       <path id="DejaVuSans-72" d="M 2631 2963 
Q 2534 3019 2420 3045 
Q 2306 3072 2169 3072 
Q 1681 3072 1420 2755 
Q 1159 2438 1159 1844 
L 1159 0 
L 581 0 
L 581 3500 
L 1159 3500 
L 1159 2956 
Q 1341 3275 1631 3429 
Q 1922 3584 2338 3584 
Q 2397 3584 2469 3576 
Q 2541 3569 2628 3553 
L 2631 2963 
z
" transform="scale(0.015625)"/>
       <path id="DejaVuSans-6e" d="M 3513 2113 
L 3513 0 
L 2938 0 
L 2938 2094 
Q 2938 2591 2744 2837 
Q 2550 3084 2163 3084 
Q 1697 3084 1428 2787 
Q 1159 2491 1159 1978 
L 1159 0 
L 581 0 
L 581 3500 
L 1159 3500 
L 1159 2956 
Q 1366 3272 1645 3428 
Q 1925 3584 2291 3584 
Q 2894 3584 3203 3211 
Q 3513 2838 3513 2113 
z
" transform="scale(0.015625)"/>
       <path id="DejaVuSans-64" d="M 2906 2969 
L 2906 4863 
L 3481 4863 
L 3481 0 
L 2906 0 
L 2906 525 
Q 2725 213 2448 61 
Q 2172 -91 1784 -91 
Q 1150 -91 751 415 
Q 353 922 353 1747 
Q 353 2572 751 3078 
Q 1150 3584 1784 3584 
Q 2172 3584 2448 3432 
Q 2725 3281 2906 2969 
z
M 947 1747 
Q 947 1113 1208 752 
Q 1469 391 1925 391 
Q 2381 391 2643 752 
Q 2906 1113 2906 1747 
Q 2906 2381 2643 2742 
Q 2381 3103 1925 3103 
Q 1469 3103 1208 2742 
Q 947 2381 947 1747 
z
" transform="scale(0.015625)"/>
       <path id="DejaVuSans-20" transform="scale(0.015625)"/>
       <path id="DejaVuSans-45" d="M 628 4666 
L 3578 4666 
L 3578 4134 
L 1259 4134 
L 1259 2753 
L 3481 2753 
L 3481 2222 
L 1259 2222 
L 1259 531 
L 3634 531 
L 3634 0 
L 628 0 
L 628 4666 
z
" transform="scale(0.015625)"/>
       <path id="DejaVuSans-70" d="M 1159 525 
L 1159 -1331 
L 581 -1331 
L 581 3500 
L 1159 3500 
L 1159 2969 
Q 1341 3281 1617 3432 
Q 1894 3584 2278 3584 
Q 2916 3584 3314 3078 
Q 3713 2572 3713 1747 
Q 3713 922 3314 415 
Q 2916 -91 2278 -91 
Q 1894 -91 1617 61 
Q 1341 213 1159 525 
z
M 3116 1747 
Q 3116 2381 2855 2742 
Q 2594 3103 2138 3103 
Q 1681 3103 1420 2742 
Q 1159 2381 1159 1747 
Q 1159 1113 1420 752 
Q 1681 391 2138 391 
Q 2594 391 2855 752 
Q 3116 1113 3116 1747 
z
" transform="scale(0.015625)"/>
       <path id="DejaVuSans-69" d="M 603 3500 
L 1178 3500 
L 1178 0 
L 603 0 
L 603 3500 
z
M 603 4863 
L 1178 4863 
L 1178 4134 
L 603 4134 
L 603 4863 
z
" transform="scale(0.015625)"/>
       <path id="DejaVuSans-73" d="M 2834 3397 
L 2834 2853 
Q 2591 2978 2328 3040 
Q 2066 3103 1784 3103 
Q 1356 3103 1142 2972 
Q 928 2841 928 2578 
Q 928 2378 1081 2264 
Q 1234 2150 1697 2047 
L 1894 2003 
Q 2506 1872 2764 1633 
Q 3022 1394 3022 966 
Q 3022 478 2636 193 
Q 2250 -91 1575 -91 
Q 1294 -91 989 -36 
Q 684 19 347 128 
L 347 722 
Q 666 556 975 473 
Q 1284 391 1588 391 
Q 1994 391 2212 530 
Q 2431 669 2431 922 
Q 2431 1156 2273 1281 
Q 2116 1406 1581 1522 
L 1381 1569 
Q 847 1681 609 1914 
Q 372 2147 372 2553 
Q 372 3047 722 3315 
Q 1072 3584 1716 3584 
Q 2034 3584 2315 3537 
Q 2597 3491 2834 3397 
z
" transform="scale(0.015625)"/>
       <path id="DejaVuSans-6f" d="M 1959 3097 
Q 1497 3097 1228 2736 
Q 959 2375 959 1747 
Q 959 1119 1226 758 
Q 1494 397 1959 397 
Q 2419 397 2687 759 
Q 2956 1122 2956 1747 
Q 2956 2369 2687 2733 
Q 2419 3097 1959 3097 
z
M 1959 3584 
Q 2709 3584 3137 3096 
Q 3566 2609 3566 1747 
Q 3566 888 3137 398 
Q 2709 -91 1959 -91 
Q 1206 -91 779 398 
Q 353 888 353 1747 
Q 353 2609 779 3096 
Q 1206 3584 1959 3584 
z
" transform="scale(0.015625)"/>
      </defs>
      <use xlink:href="#DejaVuSans-4c"/>
      <use xlink:href="#DejaVuSans-65" x="53.962891"/>
      <use xlink:href="#DejaVuSans-61" x="115.486328"/>
      <use xlink:href="#DejaVuSans-72" x="176.765625"/>
      <use xlink:href="#DejaVuSans-6e" x="216.128906"/>
      <use xlink:href="#DejaVuSans-65" x="279.507812"/>
      <use xlink:href="#DejaVuSans-64" x="341.03125"/>
      <use xlink:href="#DejaVuSans-20" x="404.507812"/>
      <use xlink:href="#DejaVuSans-45" x="436.294922"/>
      <use xlink:href="#DejaVuSans-70" x="499.478516"/>
      <use xlink:href="#DejaVuSans-69" x="562.955078"/>
      <use xlink:href="#DejaVuSans-73" x="590.738281"/>
      <use xlink:href="#DejaVuSans-6f" x="642.837891"/>
      <use xlink:href="#DejaVuSans-64" x="704.019531"/>
      <use xlink:href="#DejaVuSans-65" x="767.496094"/>
      <use xlink:href="#DejaVuSans-73" x="829.019531"/>
     </g>
    </g>
   </g>
   <g id="matplotlib.axis_2">
    <g id="ytick_1">
     <g id="line2d_8">
      <defs>
       <path id="m6eb6a80d1e" d="M 0 0 
L -3.5 0 
" style="stroke: #000000; stroke-width: 0.8"/>
      </defs>
      <g>
       <use xlink:href="#m6eb6a80d1e" x="57.6" y="290.448" style="stroke: #000000; stroke-width: 0.8"/>
      </g>
     </g>
     <g id="text_9">
      <!-- 50 -->
      <g transform="translate(37.875 294.247219)scale(0.1 -0.1)">
       <use xlink:href="#DejaVuSans-35"/>
       <use xlink:href="#DejaVuSans-30" x="63.623047"/>
      </g>
     </g>
    </g>
    <g id="ytick_2">
     <g id="line2d_9">
      <g>
       <use xlink:href="#m6eb6a80d1e" x="57.6" y="258.948" style="stroke: #000000; stroke-width: 0.8"/>
      </g>
     </g>
     <g id="text_10">
      <!-- 75 -->
      <g transform="translate(37.875 262.747219)scale(0.1 -0.1)">
       <defs>
        <path id="DejaVuSans-37" d="M 525 4666 
L 3525 4666 
L 3525 4397 
L 1831 0 
L 1172 0 
L 2766 4134 
L 525 4134 
L 525 4666 
z
" transform="scale(0.015625)"/>
       </defs>
       <use xlink:href="#DejaVuSans-37"/>
       <use xlink:href="#DejaVuSans-35" x="63.623047"/>
      </g>
     </g>
    </g>
    <g id="ytick_3">
     <g id="line2d_10">
      <g>
       <use xlink:href="#m6eb6a80d1e" x="57.6" y="227.448" style="stroke: #000000; stroke-width: 0.8"/>
      </g>
     </g>
     <g id="text_11">
      <!-- 100 -->
      <g transform="translate(31.5125 231.247219)scale(0.1 -0.1)">
       <use xlink:href="#DejaVuSans-31"/>
       <use xlink:href="#DejaVuSans-30" x="63.623047"/>
       <use xlink:href="#DejaVuSans-30" x="127.246094"/>
      </g>
     </g>
    </g>
    <g id="ytick_4">
     <g id="line2d_11">
      <g>
       <use xlink:href="#m6eb6a80d1e" x="57.6" y="195.948" style="stroke: #000000; stroke-width: 0.8"/>
      </g>
     </g>
     <g id="text_12">
      <!-- 125 -->
      <g transform="translate(31.5125 199.747219)scale(0.1 -0.1)">
       <use xlink:href="#DejaVuSans-31"/>
       <use xlink:href="#DejaVuSans-32" x="63.623047"/>
       <use xlink:href="#DejaVuSans-35" x="127.246094"/>
      </g>
     </g>
    </g>
    <g id="ytick_5">
     <g id="line2d_12">
      <g>
       <use xlink:href="#m6eb6a80d1e" x="57.6" y="164.448" style="stroke: #000000; stroke-width: 0.8"/>
      </g>
     </g>
     <g id="text_13">
      <!-- 150 -->
      <g transform="translate(31.5125 168.247219)scale(0.1 -0.1)">
       <use xlink:href="#DejaVuSans-31"/>
       <use xlink:href="#DejaVuSans-35" x="63.623047"/>
       <use xlink:href="#DejaVuSans-30" x="127.246094"/>
      </g>
     </g>
    </g>
    <g id="ytick_6">
     <g id="line2d_13">
      <g>
       <use xlink:href="#m6eb6a80d1e" x="57.6" y="132.948" style="stroke: #000000; stroke-width: 0.8"/>
      </g>
     </g>
     <g id="text_14">
      <!-- 175 -->
      <g transform="translate(31.5125 136.747219)scale(0.1 -0.1)">
       <use xlink:href="#DejaVuSans-31"/>
       <use xlink:href="#DejaVuSans-37" x="63.623047"/>
       <use xlink:href="#DejaVuSans-35" x="127.246094"/>
      </g>
     </g>
    </g>
    <g id="ytick_7">
     <g id="line2d_14">
      <g>
       <use xlink:href="#m6eb6a80d1e" x="57.6" y="101.448" style="stroke: #000000; stroke-width: 0.8"/>
      </g>
     </g>
     <g id="text_15">
      <!-- 200 -->
      <g transform="translate(31.5125 105.247219)scale(0.1 -0.1)">
       <use xlink:href="#DejaVuSans-32"/>
       <use xlink:href="#DejaVuSans-30" x="63.623047"/>
       <use xlink:href="#DejaVuSans-30" x="127.246094"/>
      </g>
     </g>
    </g>
    <g id="ytick_8">
     <g id="line2d_15">
      <g>
       <use xlink:href="#m6eb6a80d1e" x="57.6" y="69.948" style="stroke: #000000; stroke-width: 0.8"/>
      </g>
     </g>
     <g id="text_16">
      <!-- 225 -->
      <g transform="translate(31.5125 73.747219)scale(0.1 -0.1)">
       <use xlink:href="#DejaVuSans-32"/>
       <use xlink:href="#DejaVuSans-32" x="63.623047"/>
       <use xlink:href="#DejaVuSans-35" x="127.246094"/>
      </g>
     </g>
    </g>
    <g id="text_17">
     <!-- Reward Density -->
     <g transform="translate(25.432812 213.74675)rotate(-90)scale(0.1 -0.1)">
      <defs>
       <path id="DejaVuSans-52" d="M 2841 2188 
Q 3044 2119 3236 1894 
Q 3428 1669 3622 1275 
L 4263 0 
L 3584 0 
L 2988 1197 
Q 2756 1666 2539 1819 
Q 2322 1972 1947 1972 
L 1259 1972 
L 1259 0 
L 628 0 
L 628 4666 
L 2053 4666 
Q 2853 4666 3247 4331 
Q 3641 3997 3641 3322 
Q 3641 2881 3436 2590 
Q 3231 2300 2841 2188 
z
M 1259 4147 
L 1259 2491 
L 2053 2491 
Q 2509 2491 2742 2702 
Q 2975 2913 2975 3322 
Q 2975 3731 2742 3939 
Q 2509 4147 2053 4147 
L 1259 4147 
z
" transform="scale(0.015625)"/>
       <path id="DejaVuSans-77" d="M 269 3500 
L 844 3500 
L 1563 769 
L 2278 3500 
L 2956 3500 
L 3675 769 
L 4391 3500 
L 4966 3500 
L 4050 0 
L 3372 0 
L 2619 2869 
L 1863 0 
L 1184 0 
L 269 3500 
z
" transform="scale(0.015625)"/>
       <path id="DejaVuSans-44" d="M 1259 4147 
L 1259 519 
L 2022 519 
Q 2988 519 3436 956 
Q 3884 1394 3884 2338 
Q 3884 3275 3436 3711 
Q 2988 4147 2022 4147 
L 1259 4147 
z
M 628 4666 
L 1925 4666 
Q 3281 4666 3915 4102 
Q 4550 3538 4550 2338 
Q 4550 1131 3912 565 
Q 3275 0 1925 0 
L 628 0 
L 628 4666 
z
" transform="scale(0.015625)"/>
       <path id="DejaVuSans-74" d="M 1172 4494 
L 1172 3500 
L 2356 3500 
L 2356 3053 
L 1172 3053 
L 1172 1153 
Q 1172 725 1289 603 
Q 1406 481 1766 481 
L 2356 481 
L 2356 0 
L 1766 0 
Q 1100 0 847 248 
Q 594 497 594 1153 
L 594 3053 
L 172 3053 
L 172 3500 
L 594 3500 
L 594 4494 
L 1172 4494 
z
" transform="scale(0.015625)"/>
       <path id="DejaVuSans-79" d="M 2059 -325 
Q 1816 -950 1584 -1140 
Q 1353 -1331 966 -1331 
L 506 -1331 
L 506 -850 
L 844 -850 
Q 1081 -850 1212 -737 
Q 1344 -625 1503 -206 
L 1606 56 
L 191 3500 
L 800 3500 
L 1894 763 
L 2988 3500 
L 3597 3500 
L 2059 -325 
z
" transform="scale(0.015625)"/>
      </defs>
      <use xlink:href="#DejaVuSans-52"/>
      <use xlink:href="#DejaVuSans-65" x="64.982422"/>
      <use xlink:href="#DejaVuSans-77" x="126.505859"/>
      <use xlink:href="#DejaVuSans-61" x="208.292969"/>
      <use xlink:href="#DejaVuSans-72" x="269.572266"/>
      <use xlink:href="#DejaVuSans-64" x="308.935547"/>
      <use xlink:href="#DejaVuSans-20" x="372.412109"/>
      <use xlink:href="#DejaVuSans-44" x="404.199219"/>
      <use xlink:href="#DejaVuSans-65" x="481.201172"/>
      <use xlink:href="#DejaVuSans-6e" x="542.724609"/>
      <use xlink:href="#DejaVuSans-73" x="606.103516"/>
      <use xlink:href="#DejaVuSans-69" x="658.203125"/>
      <use xlink:href="#DejaVuSans-74" x="685.986328"/>
      <use xlink:href="#DejaVuSans-79" x="725.195312"/>
     </g>
    </g>
   </g>
   <g id="LineCollection_1">
    <path d="M 79.972185 188.40312 
L 92.251102 188.40312 
" clip-path="url(#pa335d1e3b9)" style="fill: none; stroke: #1f77b4; stroke-width: 1.5"/>
    <path d="M 107.258666 159.34752 
L 119.537582 159.34752 
" clip-path="url(#pa335d1e3b9)" style="fill: none; stroke: #1f77b4; stroke-width: 1.5"/>
    <path d="M 134.545146 153.38016 
L 146.824063 153.38016 
" clip-path="url(#pa335d1e3b9)" style="fill: none; stroke: #1f77b4; stroke-width: 1.5"/>
    <path d="M 161.831627 162.73944 
L 174.110543 162.73944 
" clip-path="url(#pa335d1e3b9)" style="fill: none; stroke: #1f77b4; stroke-width: 1.5"/>
    <path d="M 189.118108 159.81624 
L 201.397024 159.81624 
" clip-path="url(#pa335d1e3b9)" style="fill: none; stroke: #1f77b4; stroke-width: 1.5"/>
    <path d="M 216.404588 159.4584 
L 228.683504 159.4584 
" clip-path="url(#pa335d1e3b9)" style="fill: none; stroke: #1f77b4; stroke-width: 1.5"/>
    <path d="M 243.691069 157.91616 
L 255.969985 157.91616 
" clip-path="url(#pa335d1e3b9)" style="fill: none; stroke: #1f77b4; stroke-width: 1.5"/>
    <path d="M 270.977549 157.64904 
L 283.256465 157.64904 
" clip-path="url(#pa335d1e3b9)" style="fill: none; stroke: #1f77b4; stroke-width: 1.5"/>
    <path d="M 298.26403 163.30896 
L 310.542946 163.30896 
" clip-path="url(#pa335d1e3b9)" style="fill: none; stroke: #1f77b4; stroke-width: 1.5"/>
    <path d="M 325.55051 162.54792 
L 337.829426 162.54792 
" clip-path="url(#pa335d1e3b9)" style="fill: none; stroke: #1f77b4; stroke-width: 1.5"/>
    <path d="M 352.836991 157.01904 
L 365.115907 157.01904 
" clip-path="url(#pa335d1e3b9)" style="fill: none; stroke: #1f77b4; stroke-width: 1.5"/>
    <path d="M 380.068898 160.30512 
L 392.347815 160.30512 
" clip-path="url(#pa335d1e3b9)" style="fill: none; stroke: #1f77b4; stroke-width: 1.5"/>
   </g>
   <g id="LineCollection_2">
    <path d="M 79.972185 98.928 
L 92.251102 98.928 
" clip-path="url(#pa335d1e3b9)" style="fill: none; stroke: #1f77b4; stroke-width: 1.5"/>
    <path d="M 107.258666 64.908 
L 119.537582 64.908 
" clip-path="url(#pa335d1e3b9)" style="fill: none; stroke: #1f77b4; stroke-width: 1.5"/>
    <path d="M 134.545146 62.388 
L 146.824063 62.388 
" clip-path="url(#pa335d1e3b9)" style="fill: none; stroke: #1f77b4; stroke-width: 1.5"/>
    <path d="M 161.831627 72.468 
L 174.110543 72.468 
" clip-path="url(#pa335d1e3b9)" style="fill: none; stroke: #1f77b4; stroke-width: 1.5"/>
    <path d="M 189.118108 69.948 
L 201.397024 69.948 
" clip-path="url(#pa335d1e3b9)" style="fill: none; stroke: #1f77b4; stroke-width: 1.5"/>
    <path d="M 216.404588 64.908 
L 228.683504 64.908 
" clip-path="url(#pa335d1e3b9)" style="fill: none; stroke: #1f77b4; stroke-width: 1.5"/>
    <path d="M 243.691069 73.728 
L 255.969985 73.728 
" clip-path="url(#pa335d1e3b9)" style="fill: none; stroke: #1f77b4; stroke-width: 1.5"/>
    <path d="M 270.977549 62.388 
L 283.256465 62.388 
" clip-path="url(#pa335d1e3b9)" style="fill: none; stroke: #1f77b4; stroke-width: 1.5"/>
    <path d="M 298.26403 58.608 
L 310.542946 58.608 
" clip-path="url(#pa335d1e3b9)" style="fill: none; stroke: #1f77b4; stroke-width: 1.5"/>
    <path d="M 325.55051 68.688 
L 337.829426 68.688 
" clip-path="url(#pa335d1e3b9)" style="fill: none; stroke: #1f77b4; stroke-width: 1.5"/>
    <path d="M 352.836991 53.568 
L 365.115907 53.568 
" clip-path="url(#pa335d1e3b9)" style="fill: none; stroke: #1f77b4; stroke-width: 1.5"/>
    <path d="M 380.068898 54.828 
L 392.347815 54.828 
" clip-path="url(#pa335d1e3b9)" style="fill: none; stroke: #1f77b4; stroke-width: 1.5"/>
   </g>
   <g id="LineCollection_3">
    <path d="M 79.972185 295.488 
L 92.251102 295.488 
" clip-path="url(#pa335d1e3b9)" style="fill: none; stroke: #1f77b4; stroke-width: 1.5"/>
    <path d="M 107.258666 250.128 
L 119.537582 250.128 
" clip-path="url(#pa335d1e3b9)" style="fill: none; stroke: #1f77b4; stroke-width: 1.5"/>
    <path d="M 134.545146 242.568 
L 146.824063 242.568 
" clip-path="url(#pa335d1e3b9)" style="fill: none; stroke: #1f77b4; stroke-width: 1.5"/>
    <path d="M 161.831627 241.308 
L 174.110543 241.308 
" clip-path="url(#pa335d1e3b9)" style="fill: none; stroke: #1f77b4; stroke-width: 1.5"/>
    <path d="M 189.118108 242.568 
L 201.397024 242.568 
" clip-path="url(#pa335d1e3b9)" style="fill: none; stroke: #1f77b4; stroke-width: 1.5"/>
    <path d="M 216.404588 242.568 
L 228.683504 242.568 
" clip-path="url(#pa335d1e3b9)" style="fill: none; stroke: #1f77b4; stroke-width: 1.5"/>
    <path d="M 243.691069 243.828 
L 255.969985 243.828 
" clip-path="url(#pa335d1e3b9)" style="fill: none; stroke: #1f77b4; stroke-width: 1.5"/>
    <path d="M 270.977549 251.388 
L 283.256465 251.388 
" clip-path="url(#pa335d1e3b9)" style="fill: none; stroke: #1f77b4; stroke-width: 1.5"/>
    <path d="M 298.26403 248.868 
L 310.542946 248.868 
" clip-path="url(#pa335d1e3b9)" style="fill: none; stroke: #1f77b4; stroke-width: 1.5"/>
    <path d="M 325.55051 253.908 
L 337.829426 253.908 
" clip-path="url(#pa335d1e3b9)" style="fill: none; stroke: #1f77b4; stroke-width: 1.5"/>
    <path d="M 352.836991 241.308 
L 365.115907 241.308 
" clip-path="url(#pa335d1e3b9)" style="fill: none; stroke: #1f77b4; stroke-width: 1.5"/>
    <path d="M 380.068898 241.308 
L 392.347815 241.308 
" clip-path="url(#pa335d1e3b9)" style="fill: none; stroke: #1f77b4; stroke-width: 1.5"/>
   </g>
   <g id="LineCollection_4">
    <path d="M 86.111644 295.488 
L 86.111644 98.928 
" clip-path="url(#pa335d1e3b9)" style="fill: none; stroke: #1f77b4; stroke-width: 1.5"/>
    <path d="M 113.398124 250.128 
L 113.398124 64.908 
" clip-path="url(#pa335d1e3b9)" style="fill: none; stroke: #1f77b4; stroke-width: 1.5"/>
    <path d="M 140.684605 242.568 
L 140.684605 62.388 
" clip-path="url(#pa335d1e3b9)" style="fill: none; stroke: #1f77b4; stroke-width: 1.5"/>
    <path d="M 167.971085 241.308 
L 167.971085 72.468 
" clip-path="url(#pa335d1e3b9)" style="fill: none; stroke: #1f77b4; stroke-width: 1.5"/>
    <path d="M 195.257566 242.568 
L 195.257566 69.948 
" clip-path="url(#pa335d1e3b9)" style="fill: none; stroke: #1f77b4; stroke-width: 1.5"/>
    <path d="M 222.544046 242.568 
L 222.544046 64.908 
" clip-path="url(#pa335d1e3b9)" style="fill: none; stroke: #1f77b4; stroke-width: 1.5"/>
    <path d="M 249.830527 243.828 
L 249.830527 73.728 
" clip-path="url(#pa335d1e3b9)" style="fill: none; stroke: #1f77b4; stroke-width: 1.5"/>
    <path d="M 277.117007 251.388 
L 277.117007 62.388 
" clip-path="url(#pa335d1e3b9)" style="fill: none; stroke: #1f77b4; stroke-width: 1.5"/>
    <path d="M 304.403488 248.868 
L 304.403488 58.608 
" clip-path="url(#pa335d1e3b9)" style="fill: none; stroke: #1f77b4; stroke-width: 1.5"/>
    <path d="M 331.689968 253.908 
L 331.689968 68.688 
" clip-path="url(#pa335d1e3b9)" style="fill: none; stroke: #1f77b4; stroke-width: 1.5"/>
    <path d="M 358.976449 241.308 
L 358.976449 53.568 
" clip-path="url(#pa335d1e3b9)" style="fill: none; stroke: #1f77b4; stroke-width: 1.5"/>
    <path d="M 386.208356 241.308 
L 386.208356 54.828 
" clip-path="url(#pa335d1e3b9)" style="fill: none; stroke: #1f77b4; stroke-width: 1.5"/>
   </g>
   <g id="line2d_16">
    <path d="M 86.111644 188.40312 
L 113.398124 159.34752 
L 140.684605 153.38016 
L 167.971085 162.73944 
L 195.257566 159.81624 
L 222.544046 159.4584 
L 249.830527 157.91616 
L 277.117007 157.64904 
L 304.403488 163.30896 
L 331.689968 162.54792 
L 358.976449 157.01904 
L 386.208356 160.30512 
" clip-path="url(#pa335d1e3b9)" style="fill: none; stroke: #4682b4; stroke-width: 1.5; stroke-linecap: square"/>
   </g>
   <g id="patch_3">
    <path d="M 57.6 307.584 
L 57.6 41.472 
" style="fill: none; stroke: #000000; stroke-width: 0.8; stroke-linejoin: miter; stroke-linecap: square"/>
   </g>
   <g id="patch_4">
    <path d="M 414.72 307.584 
L 414.72 41.472 
" style="fill: none; stroke: #000000; stroke-width: 0.8; stroke-linejoin: miter; stroke-linecap: square"/>
   </g>
   <g id="patch_5">
    <path d="M 57.6 307.584 
L 414.72 307.584 
" style="fill: none; stroke: #000000; stroke-width: 0.8; stroke-linejoin: miter; stroke-linecap: square"/>
   </g>
   <g id="patch_6">
    <path d="M 57.6 41.472 
L 414.72 41.472 
" style="fill: none; stroke: #000000; stroke-width: 0.8; stroke-linejoin: miter; stroke-linecap: square"/>
   </g>
   <g id="text_18">
    <!-- Violinplot for progress of owner/rebuys -->
    <g transform="translate(119.788125 35.472)scale(0.12 -0.12)">
     <defs>
      <path id="DejaVuSans-56" d="M 1831 0 
L 50 4666 
L 709 4666 
L 2188 738 
L 3669 4666 
L 4325 4666 
L 2547 0 
L 1831 0 
z
" transform="scale(0.015625)"/>
      <path id="DejaVuSans-6c" d="M 603 4863 
L 1178 4863 
L 1178 0 
L 603 0 
L 603 4863 
z
" transform="scale(0.015625)"/>
      <path id="DejaVuSans-66" d="M 2375 4863 
L 2375 4384 
L 1825 4384 
Q 1516 4384 1395 4259 
Q 1275 4134 1275 3809 
L 1275 3500 
L 2222 3500 
L 2222 3053 
L 1275 3053 
L 1275 0 
L 697 0 
L 697 3053 
L 147 3053 
L 147 3500 
L 697 3500 
L 697 3744 
Q 697 4328 969 4595 
Q 1241 4863 1831 4863 
L 2375 4863 
z
" transform="scale(0.015625)"/>
      <path id="DejaVuSans-67" d="M 2906 1791 
Q 2906 2416 2648 2759 
Q 2391 3103 1925 3103 
Q 1463 3103 1205 2759 
Q 947 2416 947 1791 
Q 947 1169 1205 825 
Q 1463 481 1925 481 
Q 2391 481 2648 825 
Q 2906 1169 2906 1791 
z
M 3481 434 
Q 3481 -459 3084 -895 
Q 2688 -1331 1869 -1331 
Q 1566 -1331 1297 -1286 
Q 1028 -1241 775 -1147 
L 775 -588 
Q 1028 -725 1275 -790 
Q 1522 -856 1778 -856 
Q 2344 -856 2625 -561 
Q 2906 -266 2906 331 
L 2906 616 
Q 2728 306 2450 153 
Q 2172 0 1784 0 
Q 1141 0 747 490 
Q 353 981 353 1791 
Q 353 2603 747 3093 
Q 1141 3584 1784 3584 
Q 2172 3584 2450 3431 
Q 2728 3278 2906 2969 
L 2906 3500 
L 3481 3500 
L 3481 434 
z
" transform="scale(0.015625)"/>
      <path id="DejaVuSans-2f" d="M 1625 4666 
L 2156 4666 
L 531 -594 
L 0 -594 
L 1625 4666 
z
" transform="scale(0.015625)"/>
      <path id="DejaVuSans-62" d="M 3116 1747 
Q 3116 2381 2855 2742 
Q 2594 3103 2138 3103 
Q 1681 3103 1420 2742 
Q 1159 2381 1159 1747 
Q 1159 1113 1420 752 
Q 1681 391 2138 391 
Q 2594 391 2855 752 
Q 3116 1113 3116 1747 
z
M 1159 2969 
Q 1341 3281 1617 3432 
Q 1894 3584 2278 3584 
Q 2916 3584 3314 3078 
Q 3713 2572 3713 1747 
Q 3713 922 3314 415 
Q 2916 -91 2278 -91 
Q 1894 -91 1617 61 
Q 1341 213 1159 525 
L 1159 0 
L 581 0 
L 581 4863 
L 1159 4863 
L 1159 2969 
z
" transform="scale(0.015625)"/>
      <path id="DejaVuSans-75" d="M 544 1381 
L 544 3500 
L 1119 3500 
L 1119 1403 
Q 1119 906 1312 657 
Q 1506 409 1894 409 
Q 2359 409 2629 706 
Q 2900 1003 2900 1516 
L 2900 3500 
L 3475 3500 
L 3475 0 
L 2900 0 
L 2900 538 
Q 2691 219 2414 64 
Q 2138 -91 1772 -91 
Q 1169 -91 856 284 
Q 544 659 544 1381 
z
M 1991 3584 
L 1991 3584 
z
" transform="scale(0.015625)"/>
     </defs>
     <use xlink:href="#DejaVuSans-56"/>
     <use xlink:href="#DejaVuSans-69" x="66.158203"/>
     <use xlink:href="#DejaVuSans-6f" x="93.941406"/>
     <use xlink:href="#DejaVuSans-6c" x="155.123047"/>
     <use xlink:href="#DejaVuSans-69" x="182.90625"/>
     <use xlink:href="#DejaVuSans-6e" x="210.689453"/>
     <use xlink:href="#DejaVuSans-70" x="274.068359"/>
     <use xlink:href="#DejaVuSans-6c" x="337.544922"/>
     <use xlink:href="#DejaVuSans-6f" x="365.328125"/>
     <use xlink:href="#DejaVuSans-74" x="426.509766"/>
     <use xlink:href="#DejaVuSans-20" x="465.71875"/>
     <use xlink:href="#DejaVuSans-66" x="497.505859"/>
     <use xlink:href="#DejaVuSans-6f" x="532.710938"/>
     <use xlink:href="#DejaVuSans-72" x="593.892578"/>
     <use xlink:href="#DejaVuSans-20" x="635.005859"/>
     <use xlink:href="#DejaVuSans-70" x="666.792969"/>
     <use xlink:href="#DejaVuSans-72" x="730.269531"/>
     <use xlink:href="#DejaVuSans-6f" x="769.132812"/>
     <use xlink:href="#DejaVuSans-67" x="830.314453"/>
     <use xlink:href="#DejaVuSans-72" x="893.791016"/>
     <use xlink:href="#DejaVuSans-65" x="932.654297"/>
     <use xlink:href="#DejaVuSans-73" x="994.177734"/>
     <use xlink:href="#DejaVuSans-73" x="1046.277344"/>
     <use xlink:href="#DejaVuSans-20" x="1098.376953"/>
     <use xlink:href="#DejaVuSans-6f" x="1130.164062"/>
     <use xlink:href="#DejaVuSans-66" x="1191.345703"/>
     <use xlink:href="#DejaVuSans-20" x="1226.550781"/>
     <use xlink:href="#DejaVuSans-6f" x="1258.337891"/>
     <use xlink:href="#DejaVuSans-77" x="1319.519531"/>
     <use xlink:href="#DejaVuSans-6e" x="1401.306641"/>
     <use xlink:href="#DejaVuSans-65" x="1464.685547"/>
     <use xlink:href="#DejaVuSans-72" x="1526.208984"/>
     <use xlink:href="#DejaVuSans-2f" x="1567.322266"/>
     <use xlink:href="#DejaVuSans-72" x="1601.013672"/>
     <use xlink:href="#DejaVuSans-65" x="1639.876953"/>
     <use xlink:href="#DejaVuSans-62" x="1701.400391"/>
     <use xlink:href="#DejaVuSans-75" x="1764.876953"/>
     <use xlink:href="#DejaVuSans-79" x="1828.255859"/>
     <use xlink:href="#DejaVuSans-73" x="1887.435547"/>
    </g>
   </g>
   <g id="legend_1">
    <g id="patch_7">
     <path d="M 284.430938 64.150125 
L 407.72 64.150125 
Q 409.72 64.150125 409.72 62.150125 
L 409.72 48.472 
Q 409.72 46.472 407.72 46.472 
L 284.430938 46.472 
Q 282.430938 46.472 282.430938 48.472 
L 282.430938 62.150125 
Q 282.430938 64.150125 284.430938 64.150125 
z
" style="fill: #ffffff; opacity: 0.8; stroke: #cccccc; stroke-linejoin: miter"/>
    </g>
    <g id="line2d_17">
     <path d="M 286.430938 54.570438 
L 296.430938 54.570438 
L 306.430938 54.570438 
" style="fill: none; stroke: #4682b4; stroke-width: 1.5; stroke-linecap: square"/>
    </g>
    <g id="text_19">
     <!-- Storage-Minimizer -->
     <g transform="translate(314.430938 58.070438)scale(0.1 -0.1)">
      <defs>
       <path id="DejaVuSans-53" d="M 3425 4513 
L 3425 3897 
Q 3066 4069 2747 4153 
Q 2428 4238 2131 4238 
Q 1616 4238 1336 4038 
Q 1056 3838 1056 3469 
Q 1056 3159 1242 3001 
Q 1428 2844 1947 2747 
L 2328 2669 
Q 3034 2534 3370 2195 
Q 3706 1856 3706 1288 
Q 3706 609 3251 259 
Q 2797 -91 1919 -91 
Q 1588 -91 1214 -16 
Q 841 59 441 206 
L 441 856 
Q 825 641 1194 531 
Q 1563 422 1919 422 
Q 2459 422 2753 634 
Q 3047 847 3047 1241 
Q 3047 1584 2836 1778 
Q 2625 1972 2144 2069 
L 1759 2144 
Q 1053 2284 737 2584 
Q 422 2884 422 3419 
Q 422 4038 858 4394 
Q 1294 4750 2059 4750 
Q 2388 4750 2728 4690 
Q 3069 4631 3425 4513 
z
" transform="scale(0.015625)"/>
       <path id="DejaVuSans-2d" d="M 313 2009 
L 1997 2009 
L 1997 1497 
L 313 1497 
L 313 2009 
z
" transform="scale(0.015625)"/>
       <path id="DejaVuSans-4d" d="M 628 4666 
L 1569 4666 
L 2759 1491 
L 3956 4666 
L 4897 4666 
L 4897 0 
L 4281 0 
L 4281 4097 
L 3078 897 
L 2444 897 
L 1241 4097 
L 1241 0 
L 628 0 
L 628 4666 
z
" transform="scale(0.015625)"/>
       <path id="DejaVuSans-6d" d="M 3328 2828 
Q 3544 3216 3844 3400 
Q 4144 3584 4550 3584 
Q 5097 3584 5394 3201 
Q 5691 2819 5691 2113 
L 5691 0 
L 5113 0 
L 5113 2094 
Q 5113 2597 4934 2840 
Q 4756 3084 4391 3084 
Q 3944 3084 3684 2787 
Q 3425 2491 3425 1978 
L 3425 0 
L 2847 0 
L 2847 2094 
Q 2847 2600 2669 2842 
Q 2491 3084 2119 3084 
Q 1678 3084 1418 2786 
Q 1159 2488 1159 1978 
L 1159 0 
L 581 0 
L 581 3500 
L 1159 3500 
L 1159 2956 
Q 1356 3278 1631 3431 
Q 1906 3584 2284 3584 
Q 2666 3584 2933 3390 
Q 3200 3197 3328 2828 
z
" transform="scale(0.015625)"/>
       <path id="DejaVuSans-7a" d="M 353 3500 
L 3084 3500 
L 3084 2975 
L 922 459 
L 3084 459 
L 3084 0 
L 275 0 
L 275 525 
L 2438 3041 
L 353 3041 
L 353 3500 
z
" transform="scale(0.015625)"/>
      </defs>
      <use xlink:href="#DejaVuSans-53"/>
      <use xlink:href="#DejaVuSans-74" x="63.476562"/>
      <use xlink:href="#DejaVuSans-6f" x="102.685547"/>
      <use xlink:href="#DejaVuSans-72" x="163.867188"/>
      <use xlink:href="#DejaVuSans-61" x="204.980469"/>
      <use xlink:href="#DejaVuSans-67" x="266.259766"/>
      <use xlink:href="#DejaVuSans-65" x="329.736328"/>
      <use xlink:href="#DejaVuSans-2d" x="391.259766"/>
      <use xlink:href="#DejaVuSans-4d" x="427.34375"/>
      <use xlink:href="#DejaVuSans-69" x="513.623047"/>
      <use xlink:href="#DejaVuSans-6e" x="541.40625"/>
      <use xlink:href="#DejaVuSans-69" x="604.785156"/>
      <use xlink:href="#DejaVuSans-6d" x="632.568359"/>
      <use xlink:href="#DejaVuSans-69" x="729.980469"/>
      <use xlink:href="#DejaVuSans-7a" x="757.763672"/>
      <use xlink:href="#DejaVuSans-65" x="810.253906"/>
      <use xlink:href="#DejaVuSans-72" x="871.777344"/>
     </g>
    </g>
   </g>
  </g>
 </g>
 <defs>
  <clipPath id="pa335d1e3b9">
   <rect x="57.6" y="41.472" width="357.12" height="266.112"/>
  </clipPath>
 </defs>
</svg>
