<?xml version="1.0" encoding="utf-8" standalone="no"?>
<!DOCTYPE svg PUBLIC "-//W3C//DTD SVG 1.1//EN"
  "http://www.w3.org/Graphics/SVG/1.1/DTD/svg11.dtd">
<svg xmlns:xlink="http://www.w3.org/1999/xlink" width="460.8pt" height="345.6pt" viewBox="0 0 460.8 345.6" xmlns="http://www.w3.org/2000/svg" version="1.1">
 <metadata>
  <rdf:RDF xmlns:dc="http://purl.org/dc/elements/1.1/" xmlns:cc="http://creativecommons.org/ns#" xmlns:rdf="http://www.w3.org/1999/02/22-rdf-syntax-ns#">
   <cc:Work>
    <dc:type rdf:resource="http://purl.org/dc/dcmitype/StillImage"/>
    <dc:date>2022-06-16T13:18:29.710360</dc:date>
    <dc:format>image/svg+xml</dc:format>
    <dc:creator>
     <cc:Agent>
      <dc:title>Matplotlib v3.5.2, https://matplotlib.org/</dc:title>
     </cc:Agent>
    </dc:creator>
   </cc:Work>
  </rdf:RDF>
 </metadata>
 <defs>
  <style type="text/css">*{stroke-linejoin: round; stroke-linecap: butt}</style>
 </defs>
 <g id="figure_1">
  <g id="patch_1">
   <path d="M 0 345.6 
L 460.8 345.6 
L 460.8 0 
L 0 0 
z
" style="fill: #ffffff"/>
  </g>
  <g id="axes_1">
   <g id="patch_2">
    <path d="M 57.6 307.584 
L 414.72 307.584 
L 414.72 41.472 
L 57.6 41.472 
z
" style="fill: #ffffff"/>
   </g>
   <g id="PolyCollection_1">
    <path d="M 86.276234 295.488 
L 85.947053 295.488 
L 85.941138 293.251963 
L 85.936634 291.015926 
L 85.932754 288.779889 
L 85.928533 286.543852 
L 85.922943 284.307815 
L 85.915002 282.071779 
L 85.903864 279.835742 
L 85.888875 277.599705 
L 85.869584 275.363668 
L 85.845701 273.127631 
L 85.817031 270.891594 
L 85.783387 268.655557 
L 85.744511 266.41952 
L 85.700026 264.183483 
L 85.649423 261.947446 
L 85.592101 259.711409 
L 85.527458 257.475373 
L 85.454994 255.239336 
L 85.374439 253.003299 
L 85.285845 250.767262 
L 85.189636 248.531225 
L 85.086581 246.295188 
L 84.9777 244.059151 
L 84.864085 241.823114 
L 84.746685 239.587077 
L 84.626084 237.35104 
L 84.502313 235.115003 
L 84.374752 232.878967 
L 84.242146 230.64293 
L 84.102737 228.406893 
L 83.954506 226.170856 
L 83.795469 223.934819 
L 83.623974 221.698782 
L 83.438936 219.462745 
L 83.239974 217.226708 
L 83.027414 214.990671 
L 82.80219 212.754634 
L 82.56567 210.518597 
L 82.319475 208.28256 
L 82.065346 206.046524 
L 81.805103 203.810487 
L 81.540702 201.57445 
L 81.274362 199.338413 
L 81.00871 197.102376 
L 80.746868 194.866339 
L 80.492413 192.630302 
L 80.249166 190.394265 
L 80.020825 188.158228 
L 79.810471 185.922191 
L 79.620032 183.686154 
L 79.449818 181.450118 
L 79.298209 179.214081 
L 79.161567 176.978044 
L 79.034403 174.742007 
L 78.909771 172.50597 
L 78.779844 170.269933 
L 78.636577 168.033896 
L 78.472406 165.797859 
L 78.280894 163.561822 
L 78.057288 161.325785 
L 77.79897 159.089748 
L 77.505768 156.853712 
L 77.180116 154.617675 
L 76.827049 152.381638 
L 76.454009 150.145601 
L 76.070451 147.909564 
L 75.687259 145.673527 
L 75.316018 143.43749 
L 74.9682 141.201453 
L 74.654373 138.965416 
L 74.383514 136.729379 
L 74.16251 134.493342 
L 73.995916 132.257306 
L 73.885951 130.021269 
L 73.832727 127.785232 
L 73.834654 125.549195 
L 73.88893 123.313158 
L 73.992078 121.077121 
L 74.140446 118.841084 
L 74.330653 116.605047 
L 74.559926 114.36901 
L 74.826318 112.132973 
L 75.128784 109.896936 
L 75.467098 107.6609 
L 75.841602 105.424863 
L 76.252817 103.188826 
L 76.700947 100.952789 
L 77.185352 98.716752 
L 77.704074 96.480715 
L 78.253508 94.244678 
L 78.828276 92.008641 
L 79.421341 89.772604 
L 80.024354 87.536567 
L 80.628157 85.30053 
L 81.223383 83.064494 
L 81.801043 80.828457 
L 82.353028 78.59242 
L 82.872478 76.356383 
L 83.353994 74.120346 
L 88.869293 74.120346 
L 88.869293 74.120346 
L 89.350809 76.356383 
L 89.870259 78.59242 
L 90.422244 80.828457 
L 90.999904 83.064494 
L 91.59513 85.30053 
L 92.198933 87.536567 
L 92.801946 89.772604 
L 93.395012 92.008641 
L 93.969779 94.244678 
L 94.519213 96.480715 
L 95.037935 98.716752 
L 95.52234 100.952789 
L 95.97047 103.188826 
L 96.381685 105.424863 
L 96.756189 107.6609 
L 97.094503 109.896936 
L 97.396969 112.132973 
L 97.663361 114.36901 
L 97.892634 116.605047 
L 98.082841 118.841084 
L 98.231209 121.077121 
L 98.334357 123.313158 
L 98.388633 125.549195 
L 98.39056 127.785232 
L 98.337336 130.021269 
L 98.227371 132.257306 
L 98.060777 134.493342 
L 97.839773 136.729379 
L 97.568914 138.965416 
L 97.255087 141.201453 
L 96.907269 143.43749 
L 96.536028 145.673527 
L 96.152836 147.909564 
L 95.769278 150.145601 
L 95.396238 152.381638 
L 95.043171 154.617675 
L 94.717519 156.853712 
L 94.424317 159.089748 
L 94.165999 161.325785 
L 93.942393 163.561822 
L 93.750881 165.797859 
L 93.58671 168.033896 
L 93.443443 170.269933 
L 93.313516 172.50597 
L 93.188884 174.742007 
L 93.06172 176.978044 
L 92.925078 179.214081 
L 92.773469 181.450118 
L 92.603255 183.686154 
L 92.412816 185.922191 
L 92.202462 188.158228 
L 91.974121 190.394265 
L 91.730874 192.630302 
L 91.476419 194.866339 
L 91.214577 197.102376 
L 90.948925 199.338413 
L 90.682585 201.57445 
L 90.418184 203.810487 
L 90.157941 206.046524 
L 89.903812 208.28256 
L 89.657617 210.518597 
L 89.421097 212.754634 
L 89.195873 214.990671 
L 88.983314 217.226708 
L 88.784351 219.462745 
L 88.599313 221.698782 
L 88.427818 223.934819 
L 88.268781 226.170856 
L 88.12055 228.406893 
L 87.981141 230.64293 
L 87.848535 232.878967 
L 87.720974 235.115003 
L 87.597203 237.35104 
L 87.476602 239.587077 
L 87.359202 241.823114 
L 87.245587 244.059151 
L 87.136706 246.295188 
L 87.033651 248.531225 
L 86.937442 250.767262 
L 86.848848 253.003299 
L 86.768293 255.239336 
L 86.695829 257.475373 
L 86.631186 259.711409 
L 86.573865 261.947446 
L 86.523261 264.183483 
L 86.478776 266.41952 
L 86.4399 268.655557 
L 86.406256 270.891594 
L 86.377586 273.127631 
L 86.353703 275.363668 
L 86.334412 277.599705 
L 86.319424 279.835742 
L 86.308285 282.071779 
L 86.300344 284.307815 
L 86.294754 286.543852 
L 86.290533 288.779889 
L 86.286653 291.015926 
L 86.282149 293.251963 
L 86.276234 295.488 
z
" clip-path="url(#p612b2e36c9)" style="fill: #1f77b4; fill-opacity: 0.3"/>
   </g>
   <g id="PolyCollection_2">
    <path d="M 113.849919 247.053253 
L 112.94633 247.053253 
L 112.897152 245.286665 
L 112.846935 243.520076 
L 112.795515 241.753487 
L 112.742629 239.986898 
L 112.68799 238.22031 
L 112.631358 236.453721 
L 112.572616 234.687132 
L 112.511817 232.920543 
L 112.449206 231.153955 
L 112.385221 229.387366 
L 112.320462 227.620777 
L 112.255642 225.854188 
L 112.191524 224.0876 
L 112.128846 222.321011 
L 112.068248 220.554422 
L 112.010196 218.787833 
L 111.954917 217.021244 
L 111.902351 215.254656 
L 111.85212 213.488067 
L 111.803521 211.721478 
L 111.755546 209.954889 
L 111.706913 208.188301 
L 111.656125 206.421712 
L 111.601514 204.655123 
L 111.541304 202.888534 
L 111.473645 201.121946 
L 111.39666 199.355357 
L 111.308477 197.588768 
L 111.207286 195.822179 
L 111.091401 194.055591 
L 110.959347 192.289002 
L 110.809961 190.522413 
L 110.642485 188.755824 
L 110.456632 186.989235 
L 110.252608 185.222647 
L 110.031062 183.456058 
L 109.792971 181.689469 
L 109.539468 179.92288 
L 109.271653 178.156292 
L 108.990413 176.389703 
L 108.69632 174.623114 
L 108.389612 172.856525 
L 108.0703 171.089937 
L 107.738373 169.323348 
L 107.39408 167.556759 
L 107.038221 165.79017 
L 106.672403 164.023582 
L 106.299195 162.256993 
L 105.922134 160.490404 
L 105.545589 158.723815 
L 105.174477 156.957227 
L 104.813876 155.190638 
L 104.468592 153.424049 
L 104.142735 151.65746 
L 103.839363 149.890871 
L 103.560235 148.124283 
L 103.305704 146.357694 
L 103.074753 144.591105 
L 102.865176 142.824516 
L 102.673872 141.057928 
L 102.497235 139.291339 
L 102.3316 137.52475 
L 102.1737 135.758161 
L 102.02109 133.991573 
L 101.872504 132.224984 
L 101.728087 130.458395 
L 101.589497 128.691806 
L 101.459835 126.925218 
L 101.343439 125.158629 
L 101.245539 123.39204 
L 101.171824 121.625451 
L 101.127975 119.858862 
L 101.119208 118.092274 
L 101.149877 116.325685 
L 101.223181 114.559096 
L 101.340996 112.792507 
L 101.503832 111.025919 
L 101.71094 109.25933 
L 101.960509 107.492741 
L 102.249971 105.726152 
L 102.576332 103.959564 
L 102.936512 102.192975 
L 103.327629 100.426386 
L 103.747181 98.659797 
L 104.193102 96.893209 
L 104.663664 95.12662 
L 105.157247 93.360031 
L 105.672019 91.593442 
L 106.205568 89.826853 
L 106.754578 88.060265 
L 107.314603 86.293676 
L 107.880005 84.527087 
L 108.44407 82.760498 
L 108.9993 80.99391 
L 109.537851 79.227321 
L 110.052048 77.460732 
L 110.534906 75.694143 
L 110.980597 73.927555 
L 111.38479 72.160966 
L 115.411458 72.160966 
L 115.411458 72.160966 
L 115.815651 73.927555 
L 116.261342 75.694143 
L 116.7442 77.460732 
L 117.258397 79.227321 
L 117.796948 80.99391 
L 118.352178 82.760498 
L 118.916243 84.527087 
L 119.481645 86.293676 
L 120.04167 88.060265 
L 120.59068 89.826853 
L 121.124229 91.593442 
L 121.639001 93.360031 
L 122.132585 95.12662 
L 122.603146 96.893209 
L 123.049067 98.659797 
L 123.468619 100.426386 
L 123.859736 102.192975 
L 124.219917 103.959564 
L 124.546278 105.726152 
L 124.835739 107.492741 
L 125.085309 109.25933 
L 125.292416 111.025919 
L 125.455253 112.792507 
L 125.573067 114.559096 
L 125.646371 116.325685 
L 125.67704 118.092274 
L 125.668273 119.858862 
L 125.624424 121.625451 
L 125.550709 123.39204 
L 125.452809 125.158629 
L 125.336413 126.925218 
L 125.206751 128.691806 
L 125.068161 130.458395 
L 124.923744 132.224984 
L 124.775158 133.991573 
L 124.622549 135.758161 
L 124.464648 137.52475 
L 124.299013 139.291339 
L 124.122376 141.057928 
L 123.931072 142.824516 
L 123.721495 144.591105 
L 123.490544 146.357694 
L 123.236013 148.124283 
L 122.956885 149.890871 
L 122.653513 151.65746 
L 122.327656 153.424049 
L 121.982372 155.190638 
L 121.621771 156.957227 
L 121.250659 158.723815 
L 120.874114 160.490404 
L 120.497053 162.256993 
L 120.123845 164.023582 
L 119.758028 165.79017 
L 119.402168 167.556759 
L 119.057875 169.323348 
L 118.725948 171.089937 
L 118.406636 172.856525 
L 118.099928 174.623114 
L 117.805835 176.389703 
L 117.524596 178.156292 
L 117.25678 179.92288 
L 117.003277 181.689469 
L 116.765186 183.456058 
L 116.54364 185.222647 
L 116.339616 186.989235 
L 116.153763 188.755824 
L 115.986287 190.522413 
L 115.836901 192.289002 
L 115.704847 194.055591 
L 115.588962 195.822179 
L 115.487771 197.588768 
L 115.399588 199.355357 
L 115.322603 201.121946 
L 115.254944 202.888534 
L 115.194734 204.655123 
L 115.140124 206.421712 
L 115.089335 208.188301 
L 115.040702 209.954889 
L 114.992727 211.721478 
L 114.944129 213.488067 
L 114.893898 215.254656 
L 114.841332 217.021244 
L 114.786052 218.787833 
L 114.728 220.554422 
L 114.667402 222.321011 
L 114.604724 224.0876 
L 114.540606 225.854188 
L 114.475786 227.620777 
L 114.411027 229.387366 
L 114.347042 231.153955 
L 114.284431 232.920543 
L 114.223632 234.687132 
L 114.16489 236.453721 
L 114.108259 238.22031 
L 114.053619 239.986898 
L 114.000733 241.753487 
L 113.949313 243.520076 
L 113.899096 245.286665 
L 113.849919 247.053253 
z
" clip-path="url(#p612b2e36c9)" style="fill: #1f77b4; fill-opacity: 0.3"/>
   </g>
   <g id="PolyCollection_3">
    <path d="M 140.812187 293.331272 
L 140.557022 293.331272 
L 140.559245 291.222244 
L 140.565687 289.113216 
L 140.575694 287.004188 
L 140.588301 284.89516 
L 140.602381 282.786131 
L 140.616804 280.677103 
L 140.630578 278.568075 
L 140.642934 276.459047 
L 140.653362 274.350019 
L 140.661585 272.24099 
L 140.667482 270.131962 
L 140.671004 268.022934 
L 140.67206 265.913906 
L 140.670432 263.804878 
L 140.665703 261.695849 
L 140.657218 259.586821 
L 140.644091 257.477793 
L 140.625255 255.368765 
L 140.599559 253.259737 
L 140.565895 251.150709 
L 140.523362 249.04168 
L 140.471404 246.932652 
L 140.409932 244.823624 
L 140.339375 242.714596 
L 140.260658 240.605568 
L 140.175102 238.496539 
L 140.084285 236.387511 
L 139.989875 234.278483 
L 139.893503 232.169455 
L 139.79668 230.060427 
L 139.70078 227.951398 
L 139.60706 225.84237 
L 139.516674 223.733342 
L 139.430643 221.624314 
L 139.349767 219.515286 
L 139.274483 217.406257 
L 139.204714 215.297229 
L 139.139791 213.188201 
L 139.078483 211.079173 
L 139.019183 208.970145 
L 138.960203 206.861117 
L 138.900113 204.752088 
L 138.838015 202.64306 
L 138.77365 200.534032 
L 138.707291 198.425004 
L 138.639431 196.315976 
L 138.570329 194.206947 
L 138.499565 192.097919 
L 138.425702 189.988891 
L 138.346179 187.879863 
L 138.257459 185.770835 
L 138.155404 183.661806 
L 138.035783 181.552778 
L 137.894796 179.44375 
L 137.729505 177.334722 
L 137.538083 175.225694 
L 137.319867 173.116665 
L 137.075241 171.007637 
L 136.805379 168.898609 
L 136.511935 166.789581 
L 136.196733 164.680553 
L 135.861483 162.571524 
L 135.507582 160.462496 
L 135.135998 158.353468 
L 134.747268 156.24444 
L 134.341607 154.135412 
L 133.919134 152.026384 
L 133.480201 149.917355 
L 133.025781 147.808327 
L 132.557885 145.699299 
L 132.079931 143.590271 
L 131.597019 141.481243 
L 131.116027 139.372214 
L 130.645492 137.263186 
L 130.195255 135.154158 
L 129.775873 133.04513 
L 129.397876 130.936102 
L 129.070967 128.827073 
L 128.803303 126.718045 
L 128.600985 124.609017 
L 128.467859 122.499989 
L 128.405688 120.390961 
L 128.414647 118.281932 
L 128.494048 116.172904 
L 128.643141 114.063876 
L 128.861799 111.954848 
L 129.150894 109.84582 
L 129.512253 107.736792 
L 129.948127 105.627763 
L 130.460221 103.518735 
L 131.048454 101.409707 
L 131.709661 99.300679 
L 132.436524 97.191651 
L 133.216992 95.082622 
L 134.034372 92.973594 
L 134.868168 90.864566 
L 135.695597 88.755538 
L 136.493558 86.64651 
L 137.24076 84.537481 
L 144.128449 84.537481 
L 144.128449 84.537481 
L 144.875651 86.64651 
L 145.673612 88.755538 
L 146.501041 90.864566 
L 147.334837 92.973594 
L 148.152217 95.082622 
L 148.932685 97.191651 
L 149.659549 99.300679 
L 150.320755 101.409707 
L 150.908988 103.518735 
L 151.421082 105.627763 
L 151.856956 107.736792 
L 152.218316 109.84582 
L 152.50741 111.954848 
L 152.726068 114.063876 
L 152.875162 116.172904 
L 152.954562 118.281932 
L 152.963521 120.390961 
L 152.901351 122.499989 
L 152.768225 124.609017 
L 152.565906 126.718045 
L 152.298242 128.827073 
L 151.971334 130.936102 
L 151.593337 133.04513 
L 151.173954 135.154158 
L 150.723717 137.263186 
L 150.253182 139.372214 
L 149.77219 141.481243 
L 149.289278 143.590271 
L 148.811325 145.699299 
L 148.343428 147.808327 
L 147.889008 149.917355 
L 147.450075 152.026384 
L 147.027603 154.135412 
L 146.621941 156.24444 
L 146.233211 158.353468 
L 145.861627 160.462496 
L 145.507726 162.571524 
L 145.172476 164.680553 
L 144.857274 166.789581 
L 144.563831 168.898609 
L 144.293968 171.007637 
L 144.049342 173.116665 
L 143.831126 175.225694 
L 143.639704 177.334722 
L 143.474413 179.44375 
L 143.333427 181.552778 
L 143.213805 183.661806 
L 143.11175 185.770835 
L 143.02303 187.879863 
L 142.943507 189.988891 
L 142.869644 192.097919 
L 142.79888 194.206947 
L 142.729779 196.315976 
L 142.661918 198.425004 
L 142.59556 200.534032 
L 142.531194 202.64306 
L 142.469096 204.752088 
L 142.409006 206.861117 
L 142.350026 208.970145 
L 142.290726 211.079173 
L 142.229418 213.188201 
L 142.164495 215.297229 
L 142.094727 217.406257 
L 142.019442 219.515286 
L 141.938566 221.624314 
L 141.852535 223.733342 
L 141.762149 225.84237 
L 141.668429 227.951398 
L 141.57253 230.060427 
L 141.475706 232.169455 
L 141.379334 234.278483 
L 141.284924 236.387511 
L 141.194107 238.496539 
L 141.108551 240.605568 
L 141.029834 242.714596 
L 140.959277 244.823624 
L 140.897805 246.932652 
L 140.845847 249.04168 
L 140.803314 251.150709 
L 140.769651 253.259737 
L 140.743954 255.368765 
L 140.725118 257.477793 
L 140.711991 259.586821 
L 140.703506 261.695849 
L 140.698777 263.804878 
L 140.697149 265.913906 
L 140.698206 268.022934 
L 140.701727 270.131962 
L 140.707625 272.24099 
L 140.715847 274.350019 
L 140.726276 276.459047 
L 140.738632 278.568075 
L 140.752405 280.677103 
L 140.766828 282.786131 
L 140.780908 284.89516 
L 140.793515 287.004188 
L 140.803523 289.113216 
L 140.809964 291.222244 
L 140.812187 293.331272 
z
" clip-path="url(#p612b2e36c9)" style="fill: #1f77b4; fill-opacity: 0.3"/>
   </g>
   <g id="PolyCollection_4">
    <path d="M 168.298401 207.569632 
L 167.643769 207.569632 
L 167.603061 206.076852 
L 167.564768 204.584072 
L 167.530419 203.091293 
L 167.501395 201.598513 
L 167.478745 200.105733 
L 167.463007 198.612954 
L 167.45406 197.120174 
L 167.451038 195.627395 
L 167.452335 194.134615 
L 167.455723 192.641835 
L 167.458542 191.149056 
L 167.457957 189.656276 
L 167.451207 188.163497 
L 167.435832 186.670717 
L 167.409809 185.177937 
L 167.371623 183.685158 
L 167.320259 182.192378 
L 167.255147 180.699599 
L 167.176099 179.206819 
L 167.083237 177.714039 
L 166.976936 176.22126 
L 166.857774 174.72848 
L 166.726478 173.235701 
L 166.583853 171.742921 
L 166.430701 170.250141 
L 166.26773 168.757362 
L 166.095473 167.264582 
L 165.914233 165.771802 
L 165.724061 164.279023 
L 165.524775 162.786243 
L 165.316028 161.293464 
L 165.097406 159.800684 
L 164.868571 158.307904 
L 164.629434 156.815125 
L 164.380346 155.322345 
L 164.122288 153.829566 
L 163.857018 152.336786 
L 163.587123 150.844006 
L 163.315938 149.351227 
L 163.047275 147.858447 
L 162.784986 146.365668 
L 162.532362 144.872888 
L 162.29147 143.380108 
L 162.062533 141.887329 
L 161.843472 140.394549 
L 161.629728 138.90177 
L 161.414456 137.40899 
L 161.189096 135.91621 
L 160.944295 134.423431 
L 160.671073 132.930651 
L 160.362094 131.437871 
L 160.012864 129.945092 
L 159.622691 128.452312 
L 159.195268 126.959533 
L 158.738772 125.466753 
L 158.265444 123.973973 
L 157.790665 122.481194 
L 157.331617 120.988414 
L 156.905686 119.495635 
L 156.528812 118.002855 
L 156.214027 116.510075 
L 155.970396 115.017296 
L 155.802549 113.524516 
L 155.710848 112.031737 
L 155.692169 110.538957 
L 155.741105 109.046177 
L 155.851353 107.553398 
L 156.017003 106.060618 
L 156.233474 104.567839 
L 156.497972 103.075059 
L 156.809404 101.582279 
L 157.167856 100.0895 
L 157.573783 98.59672 
L 158.027118 97.103941 
L 158.526487 95.611161 
L 159.068677 94.118381 
L 159.648406 92.625602 
L 160.258411 91.132822 
L 160.88977 89.640042 
L 161.532389 88.147263 
L 162.175534 86.654483 
L 162.808368 85.161704 
L 163.420423 83.668924 
L 164.002015 82.176144 
L 164.544603 80.683365 
L 165.041114 79.190585 
L 165.48622 77.697806 
L 165.876582 76.205026 
L 166.21101 74.712246 
L 166.490522 73.219467 
L 166.718263 71.726687 
L 166.899268 70.233908 
L 167.040074 68.741128 
L 167.148199 67.248348 
L 167.231539 65.755569 
L 167.297736 64.262789 
L 167.353596 62.77001 
L 167.404624 61.27723 
L 167.454728 59.78445 
L 168.487443 59.78445 
L 168.487443 59.78445 
L 168.537547 61.27723 
L 168.588574 62.77001 
L 168.644434 64.262789 
L 168.710631 65.755569 
L 168.793971 67.248348 
L 168.902097 68.741128 
L 169.042902 70.233908 
L 169.223907 71.726687 
L 169.451648 73.219467 
L 169.73116 74.712246 
L 170.065588 76.205026 
L 170.45595 77.697806 
L 170.901056 79.190585 
L 171.397567 80.683365 
L 171.940156 82.176144 
L 172.521747 83.668924 
L 173.133802 85.161704 
L 173.766636 86.654483 
L 174.409781 88.147263 
L 175.0524 89.640042 
L 175.68376 91.132822 
L 176.293764 92.625602 
L 176.873493 94.118381 
L 177.415683 95.611161 
L 177.915052 97.103941 
L 178.368387 98.59672 
L 178.774314 100.0895 
L 179.132766 101.582279 
L 179.444198 103.075059 
L 179.708696 104.567839 
L 179.925167 106.060618 
L 180.090817 107.553398 
L 180.201066 109.046177 
L 180.250001 110.538957 
L 180.231322 112.031737 
L 180.139621 113.524516 
L 179.971774 115.017296 
L 179.728144 116.510075 
L 179.413358 118.002855 
L 179.036484 119.495635 
L 178.610553 120.988414 
L 178.151505 122.481194 
L 177.676726 123.973973 
L 177.203398 125.466753 
L 176.746902 126.959533 
L 176.319479 128.452312 
L 175.929306 129.945092 
L 175.580077 131.437871 
L 175.271098 132.930651 
L 174.997875 134.423431 
L 174.753074 135.91621 
L 174.527714 137.40899 
L 174.312443 138.90177 
L 174.098699 140.394549 
L 173.879637 141.887329 
L 173.6507 143.380108 
L 173.409809 144.872888 
L 173.157184 146.365668 
L 172.894895 147.858447 
L 172.626233 149.351227 
L 172.355047 150.844006 
L 172.085152 152.336786 
L 171.819882 153.829566 
L 171.561824 155.322345 
L 171.312737 156.815125 
L 171.0736 158.307904 
L 170.844765 159.800684 
L 170.626142 161.293464 
L 170.417395 162.786243 
L 170.218109 164.279023 
L 170.027937 165.771802 
L 169.846697 167.264582 
L 169.674441 168.757362 
L 169.511469 170.250141 
L 169.358317 171.742921 
L 169.215692 173.235701 
L 169.084396 174.72848 
L 168.965234 176.22126 
L 168.858933 177.714039 
L 168.766071 179.206819 
L 168.687023 180.699599 
L 168.621912 182.192378 
L 168.570547 183.685158 
L 168.532361 185.177937 
L 168.506338 186.670717 
L 168.490963 188.163497 
L 168.484214 189.656276 
L 168.483628 191.149056 
L 168.486447 192.641835 
L 168.489835 194.134615 
L 168.491133 195.627395 
L 168.48811 197.120174 
L 168.479163 198.612954 
L 168.463426 200.105733 
L 168.440775 201.598513 
L 168.411751 203.091293 
L 168.377403 204.584072 
L 168.339109 206.076852 
L 168.298401 207.569632 
z
" clip-path="url(#p612b2e36c9)" style="fill: #1f77b4; fill-opacity: 0.3"/>
   </g>
   <g id="PolyCollection_5">
    <path d="M 195.460623 219.692414 
L 195.054509 219.692414 
L 195.037843 218.01439 
L 195.021961 216.336366 
L 195.006084 214.658341 
L 194.989468 212.980317 
L 194.971639 211.302292 
L 194.952579 209.624268 
L 194.932795 207.946244 
L 194.913251 206.268219 
L 194.895191 204.590195 
L 194.87987 202.912171 
L 194.868261 201.234146 
L 194.860759 199.556122 
L 194.856942 197.878097 
L 194.855396 196.200073 
L 194.853639 194.522049 
L 194.848153 192.844024 
L 194.834576 191.166 
L 194.808043 189.487975 
L 194.763697 187.809951 
L 194.697311 186.131927 
L 194.60593 184.453902 
L 194.488405 182.775878 
L 194.345675 181.097853 
L 194.180689 179.419829 
L 193.997921 177.741805 
L 193.802553 176.06378 
L 193.599483 174.385756 
L 193.392382 172.707732 
L 193.183045 171.029707 
L 192.971206 169.351683 
L 192.754878 167.673658 
L 192.531112 165.995634 
L 192.296985 164.31761 
L 192.050509 162.639585 
L 191.791208 160.961561 
L 191.520162 159.283536 
L 191.239481 157.605512 
L 190.951314 155.927488 
L 190.656639 154.249463 
L 190.354151 152.571439 
L 190.039578 150.893414 
L 189.705694 149.21539 
L 189.34315 147.537366 
L 188.942097 145.859341 
L 188.494356 144.181317 
L 187.995745 142.503293 
L 187.448095 140.825268 
L 186.860435 139.147244 
L 186.249023 137.469219 
L 185.636022 135.791195 
L 185.046962 134.113171 
L 184.507373 132.435146 
L 184.039172 130.757122 
L 183.657516 129.079097 
L 183.368756 127.401073 
L 183.169948 125.723049 
L 183.050029 124.045024 
L 182.992449 122.367 
L 182.978649 120.688976 
L 182.991652 119.010951 
L 183.018955 117.332927 
L 183.054161 115.654902 
L 183.097091 113.976878 
L 183.152558 112.298854 
L 183.228301 110.620829 
L 183.332726 108.942805 
L 183.473092 107.26478 
L 183.654502 105.586756 
L 183.879781 103.908732 
L 184.149994 102.230707 
L 184.465223 100.552683 
L 184.825185 98.874658 
L 185.229433 97.196634 
L 185.677069 95.51861 
L 186.166124 93.840585 
L 186.692856 92.162561 
L 187.251255 90.484537 
L 187.832954 88.806512 
L 188.427643 87.128488 
L 189.023907 85.450463 
L 189.610347 83.772439 
L 190.176719 82.094415 
L 190.714888 80.41639 
L 191.219387 78.738366 
L 191.687487 77.060341 
L 192.11881 75.382317 
L 192.514596 73.704293 
L 192.876825 72.026268 
L 193.207424 70.348244 
L 193.507734 68.670219 
L 193.77834 66.992195 
L 194.01925 65.314171 
L 194.230327 63.636146 
L 194.4118 61.958122 
L 194.564689 60.280098 
L 194.691023 58.602073 
L 194.793789 56.924049 
L 194.876651 55.246024 
L 194.943515 53.568 
L 195.571616 53.568 
L 195.571616 53.568 
L 195.638481 55.246024 
L 195.721342 56.924049 
L 195.824109 58.602073 
L 195.950443 60.280098 
L 196.103331 61.958122 
L 196.284804 63.636146 
L 196.495881 65.314171 
L 196.736792 66.992195 
L 197.007397 68.670219 
L 197.307707 70.348244 
L 197.638306 72.026268 
L 198.000535 73.704293 
L 198.396321 75.382317 
L 198.827645 77.060341 
L 199.295745 78.738366 
L 199.800243 80.41639 
L 200.338413 82.094415 
L 200.904784 83.772439 
L 201.491224 85.450463 
L 202.087489 87.128488 
L 202.682177 88.806512 
L 203.263876 90.484537 
L 203.822275 92.162561 
L 204.349007 93.840585 
L 204.838062 95.51861 
L 205.285698 97.196634 
L 205.689946 98.874658 
L 206.049908 100.552683 
L 206.365137 102.230707 
L 206.63535 103.908732 
L 206.860629 105.586756 
L 207.04204 107.26478 
L 207.182406 108.942805 
L 207.286831 110.620829 
L 207.362573 112.298854 
L 207.418041 113.976878 
L 207.46097 115.654902 
L 207.496176 117.332927 
L 207.523479 119.010951 
L 207.536482 120.688976 
L 207.522682 122.367 
L 207.465102 124.045024 
L 207.345184 125.723049 
L 207.146375 127.401073 
L 206.857615 129.079097 
L 206.475959 130.757122 
L 206.007758 132.435146 
L 205.468169 134.113171 
L 204.87911 135.791195 
L 204.266108 137.469219 
L 203.654696 139.147244 
L 203.067037 140.825268 
L 202.519386 142.503293 
L 202.020776 144.181317 
L 201.573034 145.859341 
L 201.171982 147.537366 
L 200.809438 149.21539 
L 200.475553 150.893414 
L 200.16098 152.571439 
L 199.858492 154.249463 
L 199.563817 155.927488 
L 199.27565 157.605512 
L 198.994969 159.283536 
L 198.723923 160.961561 
L 198.464622 162.639585 
L 198.218146 164.31761 
L 197.984019 165.995634 
L 197.760253 167.673658 
L 197.543925 169.351683 
L 197.332087 171.029707 
L 197.122749 172.707732 
L 196.915648 174.385756 
L 196.712578 176.06378 
L 196.517211 177.741805 
L 196.334442 179.419829 
L 196.169456 181.097853 
L 196.026727 182.775878 
L 195.909201 184.453902 
L 195.81782 186.131927 
L 195.751434 187.809951 
L 195.707088 189.487975 
L 195.680555 191.166 
L 195.666978 192.844024 
L 195.661493 194.522049 
L 195.659735 196.200073 
L 195.65819 197.878097 
L 195.654372 199.556122 
L 195.64687 201.234146 
L 195.635261 202.912171 
L 195.619941 204.590195 
L 195.60188 206.268219 
L 195.582336 207.946244 
L 195.562552 209.624268 
L 195.543493 211.302292 
L 195.525664 212.980317 
L 195.509047 214.658341 
L 195.493171 216.336366 
L 195.477288 218.01439 
L 195.460623 219.692414 
z
" clip-path="url(#p612b2e36c9)" style="fill: #1f77b4; fill-opacity: 0.3"/>
   </g>
   <g id="PolyCollection_6">
    <path d="M 222.790332 181.660707 
L 222.297761 181.660707 
L 222.275843 180.39062 
L 222.255728 179.120533 
L 222.237066 177.850446 
L 222.219309 176.580358 
L 222.201833 175.310271 
L 222.184077 174.040184 
L 222.165657 172.770097 
L 222.146452 171.50001 
L 222.12664 170.229922 
L 222.106696 168.959835 
L 222.087324 167.689748 
L 222.069348 166.419661 
L 222.053553 165.149574 
L 222.040509 163.879486 
L 222.030384 162.609399 
L 222.022801 161.339312 
L 222.016731 160.069225 
L 222.010465 158.799138 
L 222.001645 157.529051 
L 221.987333 156.258963 
L 221.964108 154.988876 
L 221.928147 153.718789 
L 221.875268 152.448702 
L 221.800968 151.178615 
L 221.700457 149.908527 
L 221.568761 148.63844 
L 221.400956 147.368353 
L 221.192582 146.098266 
L 220.940244 144.828179 
L 220.64235 143.558091 
L 220.299851 142.288004 
L 219.916769 141.017917 
L 219.500314 139.74783 
L 219.06038 138.477743 
L 218.608375 137.207655 
L 218.155482 135.937568 
L 217.710666 134.667481 
L 217.278871 133.397394 
L 216.85992 132.127307 
L 216.448493 130.85722 
L 216.035363 129.587132 
L 215.609706 128.317045 
L 215.162022 127.046958 
L 214.686969 125.776871 
L 214.185403 124.506784 
L 213.665071 123.236696 
L 213.139759 121.966609 
L 212.627092 120.696522 
L 212.145516 119.426435 
L 211.711231 118.156348 
L 211.335778 116.88626 
L 211.024797 115.616173 
L 210.778103 114.346086 
L 210.590856 113.075999 
L 210.455345 111.805912 
L 210.362818 110.535824 
L 210.304894 109.265737 
L 210.27432 107.99565 
L 210.26513 106.725563 
L 210.272422 105.455476 
L 210.292071 104.185389 
L 210.320595 102.915301 
L 210.35529 101.645214 
L 210.394558 100.375127 
L 210.438301 99.10504 
L 210.488224 97.834953 
L 210.547948 96.564865 
L 210.62292 95.294778 
L 210.720118 94.024691 
L 210.847629 92.754604 
L 211.014084 91.484517 
L 211.227982 90.214429 
L 211.496895 88.944342 
L 211.826603 87.674255 
L 212.220245 86.404168 
L 212.677625 85.134081 
L 213.194803 83.863993 
L 213.764101 82.593906 
L 214.374534 81.323819 
L 215.012641 80.053732 
L 215.663583 78.783645 
L 216.312337 77.513558 
L 216.944827 76.24347 
L 217.548858 74.973383 
L 218.114767 73.703296 
L 218.635775 72.433209 
L 219.108068 71.163122 
L 219.530634 69.893034 
L 219.904904 68.622947 
L 220.234254 67.35286 
L 220.523394 66.082773 
L 220.777716 64.812686 
L 221.002662 63.542598 
L 221.203186 62.272511 
L 221.383381 61.002424 
L 221.546303 59.732337 
L 221.693986 58.46225 
L 221.827612 57.192162 
L 221.947775 55.922075 
L 223.140317 55.922075 
L 223.140317 55.922075 
L 223.26048 57.192162 
L 223.394107 58.46225 
L 223.541789 59.732337 
L 223.704711 61.002424 
L 223.884907 62.272511 
L 224.08543 63.542598 
L 224.310376 64.812686 
L 224.564699 66.082773 
L 224.853839 67.35286 
L 225.183188 68.622947 
L 225.557459 69.893034 
L 225.980024 71.163122 
L 226.452318 72.433209 
L 226.973326 73.703296 
L 227.539234 74.973383 
L 228.143265 76.24347 
L 228.775756 77.513558 
L 229.424509 78.783645 
L 230.075451 80.053732 
L 230.713558 81.323819 
L 231.323991 82.593906 
L 231.893289 83.863993 
L 232.410468 85.134081 
L 232.867847 86.404168 
L 233.26149 87.674255 
L 233.591198 88.944342 
L 233.86011 90.214429 
L 234.074008 91.484517 
L 234.240463 92.754604 
L 234.367974 94.024691 
L 234.465173 95.294778 
L 234.540144 96.564865 
L 234.599869 97.834953 
L 234.649791 99.10504 
L 234.693534 100.375127 
L 234.732802 101.645214 
L 234.767497 102.915301 
L 234.796022 104.185389 
L 234.81567 105.455476 
L 234.822962 106.725563 
L 234.813772 107.99565 
L 234.783198 109.265737 
L 234.725274 110.535824 
L 234.632748 111.805912 
L 234.497237 113.075999 
L 234.30999 114.346086 
L 234.063296 115.616173 
L 233.752315 116.88626 
L 233.376861 118.156348 
L 232.942576 119.426435 
L 232.461001 120.696522 
L 231.948333 121.966609 
L 231.423022 123.236696 
L 230.902689 124.506784 
L 230.401123 125.776871 
L 229.926071 127.046958 
L 229.478387 128.317045 
L 229.05273 129.587132 
L 228.639599 130.85722 
L 228.228173 132.127307 
L 227.809222 133.397394 
L 227.377427 134.667481 
L 226.93261 135.937568 
L 226.479717 137.207655 
L 226.027713 138.477743 
L 225.587779 139.74783 
L 225.171324 141.017917 
L 224.788242 142.288004 
L 224.445742 143.558091 
L 224.147849 144.828179 
L 223.89551 146.098266 
L 223.687136 147.368353 
L 223.519331 148.63844 
L 223.387636 149.908527 
L 223.287124 151.178615 
L 223.212825 152.448702 
L 223.159946 153.718789 
L 223.123984 154.988876 
L 223.10076 156.258963 
L 223.086448 157.529051 
L 223.077627 158.799138 
L 223.071362 160.069225 
L 223.065292 161.339312 
L 223.057708 162.609399 
L 223.047584 163.879486 
L 223.034539 165.149574 
L 223.018744 166.419661 
L 223.000768 167.689748 
L 222.981396 168.959835 
L 222.961452 170.229922 
L 222.941641 171.50001 
L 222.922435 172.770097 
L 222.904016 174.040184 
L 222.88626 175.310271 
L 222.868784 176.580358 
L 222.851026 177.850446 
L 222.832364 179.120533 
L 222.812249 180.39062 
L 222.790332 181.660707 
z
" clip-path="url(#p612b2e36c9)" style="fill: #1f77b4; fill-opacity: 0.3"/>
   </g>
   <g id="PolyCollection_7">
    <path d="M 250.099379 171.469112 
L 249.561674 171.469112 
L 249.526174 170.437664 
L 249.487164 169.406217 
L 249.44397 168.374769 
L 249.395937 167.343322 
L 249.342521 166.311874 
L 249.283377 165.280427 
L 249.218428 164.248979 
L 249.147907 163.217532 
L 249.072372 162.186084 
L 248.992681 161.154637 
L 248.909931 160.123189 
L 248.825355 159.091742 
L 248.740202 158.060294 
L 248.655583 157.028847 
L 248.572331 155.997399 
L 248.490879 154.965952 
L 248.411177 153.934504 
L 248.332674 152.903057 
L 248.254352 151.871609 
L 248.174801 150.840162 
L 248.092314 149.808714 
L 248.004962 148.777267 
L 247.910628 147.745819 
L 247.806999 146.714372 
L 247.691514 145.682925 
L 247.561318 144.651477 
L 247.413262 143.62003 
L 247.243995 142.588582 
L 247.050183 141.557135 
L 246.828853 140.525687 
L 246.577808 139.49424 
L 246.29607 138.462792 
L 245.984236 137.431345 
L 245.644666 136.399897 
L 245.281446 135.36845 
L 244.900082 134.337002 
L 244.506959 133.305555 
L 244.108643 132.274107 
L 243.711124 131.24266 
L 243.319131 130.211212 
L 242.935642 129.179765 
L 242.56167 128.148317 
L 242.196362 127.11687 
L 241.837396 126.085422 
L 241.481611 125.053975 
L 241.125767 124.022527 
L 240.767321 122.99108 
L 240.40511 121.959632 
L 240.039847 120.928185 
L 239.674383 119.896737 
L 239.313702 118.86529 
L 238.964675 117.833842 
L 238.635587 116.802395 
L 238.335512 115.770947 
L 238.073576 114.7395 
L 237.858206 113.708052 
L 237.696434 112.676605 
L 237.593323 111.645157 
L 237.551611 110.61371 
L 237.571586 109.582262 
L 237.651221 108.550815 
L 237.786528 107.519367 
L 237.972058 106.48792 
L 238.201452 105.456472 
L 238.46795 104.425025 
L 238.764768 103.393577 
L 239.085322 102.36213 
L 239.423304 101.330682 
L 239.772674 100.299235 
L 240.127643 99.267787 
L 240.482723 98.23634 
L 240.832883 97.204893 
L 241.173819 96.173445 
L 241.502274 95.141998 
L 241.816339 94.11055 
L 242.115648 93.079103 
L 242.401399 92.047655 
L 242.676172 91.016208 
L 242.943569 89.98476 
L 243.207718 88.953313 
L 243.472741 87.921865 
L 243.742248 86.890418 
L 244.018947 85.85897 
L 244.304402 84.827523 
L 244.598962 83.796075 
L 244.901837 82.764628 
L 245.211308 81.73318 
L 245.525005 80.701733 
L 245.840214 79.670285 
L 246.154165 78.638838 
L 246.464256 77.60739 
L 246.768192 76.575943 
L 247.064029 75.544495 
L 247.350133 74.513048 
L 247.625085 73.4816 
L 247.887564 72.450153 
L 248.136251 71.418705 
L 248.369784 70.387258 
L 248.586773 69.35581 
L 251.074281 69.35581 
L 251.074281 69.35581 
L 251.29127 70.387258 
L 251.524802 71.418705 
L 251.77349 72.450153 
L 252.035969 73.4816 
L 252.310921 74.513048 
L 252.597025 75.544495 
L 252.892862 76.575943 
L 253.196798 77.60739 
L 253.506889 78.638838 
L 253.82084 79.670285 
L 254.136049 80.701733 
L 254.449745 81.73318 
L 254.759216 82.764628 
L 255.062092 83.796075 
L 255.356651 84.827523 
L 255.642107 85.85897 
L 255.918806 86.890418 
L 256.188313 87.921865 
L 256.453335 88.953313 
L 256.717485 89.98476 
L 256.984881 91.016208 
L 257.259655 92.047655 
L 257.545405 93.079103 
L 257.844714 94.11055 
L 258.158779 95.141998 
L 258.487234 96.173445 
L 258.828171 97.204893 
L 259.178331 98.23634 
L 259.53341 99.267787 
L 259.888379 100.299235 
L 260.23775 101.330682 
L 260.575732 102.36213 
L 260.896286 103.393577 
L 261.193104 104.425025 
L 261.459601 105.456472 
L 261.688995 106.48792 
L 261.874525 107.519367 
L 262.009832 108.550815 
L 262.089468 109.582262 
L 262.109443 110.61371 
L 262.067731 111.645157 
L 261.96462 112.676605 
L 261.802847 113.708052 
L 261.587478 114.7395 
L 261.325542 115.770947 
L 261.025466 116.802395 
L 260.696379 117.833842 
L 260.347351 118.86529 
L 259.98667 119.896737 
L 259.621206 120.928185 
L 259.255944 121.959632 
L 258.893733 122.99108 
L 258.535287 124.022527 
L 258.179442 125.053975 
L 257.823657 126.085422 
L 257.464692 127.11687 
L 257.099384 128.148317 
L 256.725412 129.179765 
L 256.341923 130.211212 
L 255.949929 131.24266 
L 255.55241 132.274107 
L 255.154095 133.305555 
L 254.760972 134.337002 
L 254.379607 135.36845 
L 254.016387 136.399897 
L 253.676818 137.431345 
L 253.364983 138.462792 
L 253.083246 139.49424 
L 252.832201 140.525687 
L 252.61087 141.557135 
L 252.417059 142.588582 
L 252.247791 143.62003 
L 252.099735 144.651477 
L 251.96954 145.682925 
L 251.854055 146.714372 
L 251.750426 147.745819 
L 251.656092 148.777267 
L 251.568739 149.808714 
L 251.486252 150.840162 
L 251.406702 151.871609 
L 251.32838 152.903057 
L 251.249877 153.934504 
L 251.170175 154.965952 
L 251.088722 155.997399 
L 251.00547 157.028847 
L 250.920851 158.060294 
L 250.835698 159.091742 
L 250.751123 160.123189 
L 250.668372 161.154637 
L 250.588682 162.186084 
L 250.513147 163.217532 
L 250.442626 164.248979 
L 250.377676 165.280427 
L 250.318532 166.311874 
L 250.265117 167.343322 
L 250.217084 168.374769 
L 250.17389 169.406217 
L 250.13488 170.437664 
L 250.099379 171.469112 
z
" clip-path="url(#p612b2e36c9)" style="fill: #1f77b4; fill-opacity: 0.3"/>
   </g>
   <g id="PolyCollection_8">
    <path d="M 277.282988 191.4858 
L 276.951027 191.4858 
L 276.941361 190.366215 
L 276.931697 189.24663 
L 276.920747 188.127046 
L 276.90706 187.007461 
L 276.889217 185.887876 
L 276.866039 184.768292 
L 276.836752 183.648707 
L 276.801091 182.529122 
L 276.759325 181.409537 
L 276.712204 180.289953 
L 276.660856 179.170368 
L 276.606652 178.050783 
L 276.551083 176.931199 
L 276.495648 175.811614 
L 276.441775 174.692029 
L 276.390757 173.572444 
L 276.343679 172.45286 
L 276.301335 171.333275 
L 276.264113 170.21369 
L 276.231862 169.094106 
L 276.203781 167.974521 
L 276.178341 166.854936 
L 276.153282 165.735352 
L 276.125698 164.615767 
L 276.092196 163.496182 
L 276.049109 162.376597 
L 275.992727 161.257013 
L 275.9195 160.137428 
L 275.826203 159.017843 
L 275.710058 157.898259 
L 275.568823 156.778674 
L 275.400882 155.659089 
L 275.205352 154.539504 
L 274.982231 153.41992 
L 274.732554 152.300335 
L 274.458545 151.18075 
L 274.163708 150.061166 
L 273.852807 148.941581 
L 273.531702 147.821996 
L 273.207024 146.702412 
L 272.885687 145.582827 
L 272.57429 144.463242 
L 272.278458 143.343657 
L 272.002201 142.224073 
L 271.747372 141.104488 
L 271.513317 139.984903 
L 271.296765 138.865319 
L 271.092017 137.745734 
L 270.891446 136.626149 
L 270.686257 135.506564 
L 270.467461 134.38698 
L 270.226923 133.267395 
L 269.958361 132.14781 
L 269.658124 131.028226 
L 269.325657 129.908641 
L 268.963537 128.789056 
L 268.577114 127.669472 
L 268.173814 126.549887 
L 267.762256 125.430302 
L 267.351372 124.310717 
L 266.949705 123.191133 
L 266.56499 122.071548 
L 266.204086 120.951963 
L 265.873154 119.832379 
L 265.577995 118.712794 
L 265.324348 117.593209 
L 265.118022 116.473624 
L 264.964783 115.35404 
L 264.869992 114.234455 
L 264.838091 113.11487 
L 264.872052 111.995286 
L 264.97294 110.875701 
L 265.139689 109.756116 
L 265.36914 108.636532 
L 265.656324 107.516947 
L 265.994927 106.397362 
L 266.377827 105.277777 
L 266.79762 104.158193 
L 267.247043 103.038608 
L 267.719247 101.919023 
L 268.207923 100.799439 
L 268.707298 99.679854 
L 269.212069 98.560269 
L 269.717315 97.440684 
L 270.218472 96.3211 
L 270.711372 95.201515 
L 271.192359 94.08193 
L 271.658448 92.962346 
L 272.107473 91.842761 
L 272.538167 90.723176 
L 272.95013 89.603592 
L 273.343663 88.484007 
L 273.719497 87.364422 
L 274.078449 86.244837 
L 274.421082 85.125253 
L 274.747434 84.005668 
L 275.056868 82.886083 
L 275.348085 81.766499 
L 275.619282 80.646914 
L 278.614733 80.646914 
L 278.614733 80.646914 
L 278.885929 81.766499 
L 279.177147 82.886083 
L 279.486581 84.005668 
L 279.812932 85.125253 
L 280.155566 86.244837 
L 280.514518 87.364422 
L 280.890352 88.484007 
L 281.283885 89.603592 
L 281.695847 90.723176 
L 282.126542 91.842761 
L 282.575567 92.962346 
L 283.041655 94.08193 
L 283.522642 95.201515 
L 284.015542 96.3211 
L 284.5167 97.440684 
L 285.021946 98.560269 
L 285.526716 99.679854 
L 286.026092 100.799439 
L 286.514768 101.919023 
L 286.986972 103.038608 
L 287.436394 104.158193 
L 287.856188 105.277777 
L 288.239088 106.397362 
L 288.57769 107.516947 
L 288.864875 108.636532 
L 289.094326 109.756116 
L 289.261074 110.875701 
L 289.361962 111.995286 
L 289.395924 113.11487 
L 289.364023 114.234455 
L 289.269232 115.35404 
L 289.115992 116.473624 
L 288.909666 117.593209 
L 288.656019 118.712794 
L 288.360861 119.832379 
L 288.029929 120.951963 
L 287.669024 122.071548 
L 287.28431 123.191133 
L 286.882642 124.310717 
L 286.471759 125.430302 
L 286.0602 126.549887 
L 285.6569 127.669472 
L 285.270478 128.789056 
L 284.908358 129.908641 
L 284.57589 131.028226 
L 284.275654 132.14781 
L 284.007091 133.267395 
L 283.766554 134.38698 
L 283.547758 135.506564 
L 283.342569 136.626149 
L 283.141997 137.745734 
L 282.93725 138.865319 
L 282.720697 139.984903 
L 282.486642 141.104488 
L 282.231814 142.224073 
L 281.955556 143.343657 
L 281.659725 144.463242 
L 281.348328 145.582827 
L 281.026991 146.702412 
L 280.702312 147.821996 
L 280.381208 148.941581 
L 280.070307 150.061166 
L 279.77547 151.18075 
L 279.501461 152.300335 
L 279.251783 153.41992 
L 279.028662 154.539504 
L 278.833133 155.659089 
L 278.665191 156.778674 
L 278.523956 157.898259 
L 278.407812 159.017843 
L 278.314515 160.137428 
L 278.241287 161.257013 
L 278.184905 162.376597 
L 278.141819 163.496182 
L 278.108317 164.615767 
L 278.080733 165.735352 
L 278.055674 166.854936 
L 278.030234 167.974521 
L 278.002153 169.094106 
L 277.969902 170.21369 
L 277.932679 171.333275 
L 277.890336 172.45286 
L 277.843258 173.572444 
L 277.79224 174.692029 
L 277.738367 175.811614 
L 277.682932 176.931199 
L 277.627362 178.050783 
L 277.573159 179.170368 
L 277.521811 180.289953 
L 277.47469 181.409537 
L 277.432924 182.529122 
L 277.397263 183.648707 
L 277.367976 184.768292 
L 277.344798 185.887876 
L 277.326955 187.007461 
L 277.313267 188.127046 
L 277.302318 189.24663 
L 277.292654 190.366215 
L 277.282988 191.4858 
z
" clip-path="url(#p612b2e36c9)" style="fill: #1f77b4; fill-opacity: 0.3"/>
   </g>
   <g id="PolyCollection_9">
    <path d="M 305.148157 171.257668 
L 303.658819 171.257668 
L 303.573853 170.121424 
L 303.490948 168.98518 
L 303.411126 167.848936 
L 303.335158 166.712692 
L 303.26359 165.576448 
L 303.196761 164.440204 
L 303.134805 163.30396 
L 303.077635 162.167716 
L 303.024913 161.031473 
L 302.976039 159.895229 
L 302.930158 158.758985 
L 302.886216 157.622741 
L 302.843035 156.486497 
L 302.799414 155.350253 
L 302.75421 154.214009 
L 302.706381 153.077765 
L 302.654966 151.941521 
L 302.599001 150.805277 
L 302.537366 149.669033 
L 302.468608 148.532789 
L 302.390762 147.396546 
L 302.301208 146.260302 
L 302.196618 145.124058 
L 302.073001 143.987814 
L 301.925877 142.85157 
L 301.750584 141.715326 
L 301.542674 140.579082 
L 301.298379 139.442838 
L 301.015078 138.306594 
L 300.691694 137.17035 
L 300.328938 136.034106 
L 299.929375 134.897862 
L 299.497243 133.761618 
L 299.038072 132.625375 
L 298.558146 131.489131 
L 298.063892 130.352887 
L 297.561343 129.216643 
L 297.05575 128.080399 
L 296.551451 126.944155 
L 296.052018 125.807911 
L 295.56064 124.671667 
L 295.080645 123.535423 
L 294.616022 122.399179 
L 294.171792 121.262935 
L 293.754107 120.126691 
L 293.370027 118.990447 
L 293.026995 117.854204 
L 292.732126 116.71796 
L 292.491444 115.581716 
L 292.309246 114.445472 
L 292.187715 113.309228 
L 292.126831 112.172984 
L 292.124572 111.03674 
L 292.177301 109.900496 
L 292.280239 108.764252 
L 292.42789 107.628008 
L 292.614379 106.491764 
L 292.833681 105.35552 
L 293.079801 104.219276 
L 293.34696 103.083033 
L 293.629848 101.946789 
L 293.923936 100.810545 
L 294.225817 99.674301 
L 294.533463 98.538057 
L 294.846322 97.401813 
L 295.165184 96.265569 
L 295.491804 95.129325 
L 295.828349 93.993081 
L 296.176775 92.856837 
L 296.538266 91.720593 
L 296.91285 90.584349 
L 297.299265 89.448106 
L 297.695079 88.311862 
L 298.097023 87.175618 
L 298.501451 86.039374 
L 298.904815 84.90313 
L 299.304062 83.766886 
L 299.696877 82.630642 
L 300.081737 81.494398 
L 300.457777 80.358154 
L 300.824513 79.22191 
L 301.181484 78.085666 
L 301.527898 76.949422 
L 301.862366 75.813178 
L 302.182773 74.676935 
L 302.486337 73.540691 
L 302.769831 72.404447 
L 303.029944 71.268203 
L 303.263707 70.131959 
L 303.468903 68.995715 
L 303.644407 67.859471 
L 303.790368 66.723227 
L 303.908241 65.586983 
L 304.000645 64.450739 
L 304.071088 63.314495 
L 304.123611 62.178251 
L 304.162393 61.042007 
L 304.191388 59.905764 
L 304.214031 58.76952 
L 304.592944 58.76952 
L 304.592944 58.76952 
L 304.615588 59.905764 
L 304.644583 61.042007 
L 304.683365 62.178251 
L 304.735887 63.314495 
L 304.806331 64.450739 
L 304.898734 65.586983 
L 305.016607 66.723227 
L 305.162569 67.859471 
L 305.338072 68.995715 
L 305.543269 70.131959 
L 305.777031 71.268203 
L 306.037144 72.404447 
L 306.320638 73.540691 
L 306.624202 74.676935 
L 306.94461 75.813178 
L 307.279077 76.949422 
L 307.625492 78.085666 
L 307.982463 79.22191 
L 308.349199 80.358154 
L 308.725239 81.494398 
L 309.110099 82.630642 
L 309.502913 83.766886 
L 309.90216 84.90313 
L 310.305524 86.039374 
L 310.709953 87.175618 
L 311.111897 88.311862 
L 311.50771 89.448106 
L 311.894126 90.584349 
L 312.26871 91.720593 
L 312.630201 92.856837 
L 312.978627 93.993081 
L 313.315172 95.129325 
L 313.641792 96.265569 
L 313.960654 97.401813 
L 314.273513 98.538057 
L 314.581159 99.674301 
L 314.88304 100.810545 
L 315.177128 101.946789 
L 315.460015 103.083033 
L 315.727175 104.219276 
L 315.973295 105.35552 
L 316.192597 106.491764 
L 316.379086 107.628008 
L 316.526737 108.764252 
L 316.629675 109.900496 
L 316.682404 111.03674 
L 316.680144 112.172984 
L 316.619261 113.309228 
L 316.49773 114.445472 
L 316.315532 115.581716 
L 316.07485 116.71796 
L 315.779981 117.854204 
L 315.436949 118.990447 
L 315.052868 120.126691 
L 314.635183 121.262935 
L 314.190954 122.399179 
L 313.726331 123.535423 
L 313.246336 124.671667 
L 312.754958 125.807911 
L 312.255525 126.944155 
L 311.751226 128.080399 
L 311.245632 129.216643 
L 310.743083 130.352887 
L 310.24883 131.489131 
L 309.768903 132.625375 
L 309.309733 133.761618 
L 308.877601 134.897862 
L 308.478038 136.034106 
L 308.115282 137.17035 
L 307.791897 138.306594 
L 307.508597 139.442838 
L 307.264302 140.579082 
L 307.056392 141.715326 
L 306.881098 142.85157 
L 306.733975 143.987814 
L 306.610357 145.124058 
L 306.505767 146.260302 
L 306.416214 147.396546 
L 306.338368 148.532789 
L 306.26961 149.669033 
L 306.207975 150.805277 
L 306.152009 151.941521 
L 306.100595 153.077765 
L 306.052766 154.214009 
L 306.007562 155.350253 
L 305.963941 156.486497 
L 305.92076 157.622741 
L 305.876817 158.758985 
L 305.830937 159.895229 
L 305.782062 161.031473 
L 305.72934 162.167716 
L 305.67217 163.30396 
L 305.610215 164.440204 
L 305.543386 165.576448 
L 305.471818 166.712692 
L 305.39585 167.848936 
L 305.316027 168.98518 
L 305.233122 170.121424 
L 305.148157 171.257668 
z
" clip-path="url(#p612b2e36c9)" style="fill: #1f77b4; fill-opacity: 0.3"/>
   </g>
   <g id="PolyCollection_10">
    <path d="M 332.278496 177.023038 
L 331.101441 177.023038 
L 331.071078 175.817737 
L 331.051901 174.612435 
L 331.043223 173.407134 
L 331.043016 172.201832 
L 331.047995 170.996531 
L 331.053832 169.79123 
L 331.055451 168.585928 
L 331.047394 167.380627 
L 331.024194 166.175326 
L 330.980765 164.970024 
L 330.912767 163.764723 
L 330.816931 162.559422 
L 330.691339 161.35412 
L 330.535621 160.148819 
L 330.351049 158.943518 
L 330.140491 157.738216 
L 329.908224 156.532915 
L 329.659593 155.327614 
L 329.400538 154.122312 
L 329.137055 152.917011 
L 328.874633 151.711709 
L 328.617757 150.506408 
L 328.369556 149.301107 
L 328.131621 148.095805 
L 327.904057 146.890504 
L 327.685711 145.685203 
L 327.47456 144.479901 
L 327.268165 143.2746 
L 327.064103 142.069299 
L 326.860297 140.863997 
L 326.655183 139.658696 
L 326.447703 138.453395 
L 326.237125 137.248093 
L 326.022786 136.042792 
L 325.803809 134.837491 
L 325.578901 133.632189 
L 325.346309 132.426888 
L 325.103939 131.221586 
L 324.849656 130.016285 
L 324.581671 128.810984 
L 324.298939 127.605682 
L 324.001466 126.400381 
L 323.690428 125.19508 
L 323.368078 123.989778 
L 323.037455 122.784477 
L 322.701978 121.579176 
L 322.365027 120.373874 
L 322.029645 119.168573 
L 321.698439 117.963272 
L 321.373728 116.75797 
L 321.057887 115.552669 
L 320.753806 114.347368 
L 320.465319 113.142066 
L 320.19748 111.936765 
L 319.956585 110.731463 
L 319.74991 109.526162 
L 319.585205 108.320861 
L 319.47003 107.115559 
L 319.411052 105.910258 
L 319.413433 104.704957 
L 319.48038 103.499655 
L 319.612916 102.294354 
L 319.809884 101.089053 
L 320.068135 99.883751 
L 320.382878 98.67845 
L 320.748118 97.473149 
L 321.157143 96.267847 
L 321.602985 95.062546 
L 322.078818 93.857245 
L 322.578247 92.651943 
L 323.09544 91.446642 
L 323.62512 90.24134 
L 324.162415 89.036039 
L 324.702637 87.830738 
L 325.241048 86.625436 
L 325.7727 85.420135 
L 326.292398 84.214834 
L 326.794831 83.009532 
L 327.274836 81.804231 
L 327.727759 80.59893 
L 328.149831 79.393628 
L 328.538463 78.188327 
L 328.892417 76.983026 
L 329.211796 75.777724 
L 329.497865 74.572423 
L 329.752752 73.367122 
L 329.979089 72.16182 
L 330.179663 70.956519 
L 330.357153 69.751217 
L 330.513973 68.545916 
L 330.652238 67.340615 
L 330.773827 66.135313 
L 330.880485 64.930012 
L 330.973932 63.724711 
L 331.055926 62.519409 
L 331.128263 61.314108 
L 331.192706 60.108807 
L 331.250879 58.903505 
L 331.304148 57.698204 
L 332.075789 57.698204 
L 332.075789 57.698204 
L 332.129057 58.903505 
L 332.187231 60.108807 
L 332.251674 61.314108 
L 332.32401 62.519409 
L 332.406005 63.724711 
L 332.499452 64.930012 
L 332.606109 66.135313 
L 332.727698 67.340615 
L 332.865964 68.545916 
L 333.022784 69.751217 
L 333.200273 70.956519 
L 333.400848 72.16182 
L 333.627184 73.367122 
L 333.882072 74.572423 
L 334.16814 75.777724 
L 334.487519 76.983026 
L 334.841474 78.188327 
L 335.230106 79.393628 
L 335.652177 80.59893 
L 336.105101 81.804231 
L 336.585106 83.009532 
L 337.087539 84.214834 
L 337.607237 85.420135 
L 338.138888 86.625436 
L 338.6773 87.830738 
L 339.217522 89.036039 
L 339.754817 90.24134 
L 340.284497 91.446642 
L 340.80169 92.651943 
L 341.301118 93.857245 
L 341.776952 95.062546 
L 342.222793 96.267847 
L 342.631818 97.473149 
L 342.997059 98.67845 
L 343.311802 99.883751 
L 343.570053 101.089053 
L 343.76702 102.294354 
L 343.899557 103.499655 
L 343.966503 104.704957 
L 343.968885 105.910258 
L 343.909907 107.115559 
L 343.794732 108.320861 
L 343.630027 109.526162 
L 343.423352 110.731463 
L 343.182457 111.936765 
L 342.914618 113.142066 
L 342.626131 114.347368 
L 342.32205 115.552669 
L 342.006209 116.75797 
L 341.681497 117.963272 
L 341.350292 119.168573 
L 341.014909 120.373874 
L 340.677959 121.579176 
L 340.342482 122.784477 
L 340.011859 123.989778 
L 339.689509 125.19508 
L 339.378471 126.400381 
L 339.080998 127.605682 
L 338.798266 128.810984 
L 338.53028 130.016285 
L 338.275997 131.221586 
L 338.033628 132.426888 
L 337.801035 133.632189 
L 337.576128 134.837491 
L 337.35715 136.042792 
L 337.142812 137.248093 
L 336.932234 138.453395 
L 336.724753 139.658696 
L 336.51964 140.863997 
L 336.315833 142.069299 
L 336.111771 143.2746 
L 335.905377 144.479901 
L 335.694226 145.685203 
L 335.47588 146.890504 
L 335.248315 148.095805 
L 335.010381 149.301107 
L 334.762179 150.506408 
L 334.505304 151.711709 
L 334.242881 152.917011 
L 333.979398 154.122312 
L 333.720344 155.327614 
L 333.471712 156.532915 
L 333.239446 157.738216 
L 333.028888 158.943518 
L 332.844316 160.148819 
L 332.688598 161.35412 
L 332.563006 162.559422 
L 332.46717 163.764723 
L 332.399171 164.970024 
L 332.355743 166.175326 
L 332.332543 167.380627 
L 332.324485 168.585928 
L 332.326105 169.79123 
L 332.331941 170.996531 
L 332.336921 172.201832 
L 332.336714 173.407134 
L 332.328036 174.612435 
L 332.308858 175.817737 
L 332.278496 177.023038 
z
" clip-path="url(#p612b2e36c9)" style="fill: #1f77b4; fill-opacity: 0.3"/>
   </g>
   <g id="PolyCollection_11">
    <path d="M 359.149872 185.931874 
L 358.803026 185.931874 
L 358.795909 184.743943 
L 358.791089 183.556013 
L 358.787576 182.368083 
L 358.784202 181.180153 
L 358.779837 179.992223 
L 358.773558 178.804292 
L 358.764742 177.616362 
L 358.753047 176.428432 
L 358.738296 175.240502 
L 358.720316 174.052572 
L 358.698777 172.864641 
L 358.673079 171.676711 
L 358.642331 170.488781 
L 358.605397 169.300851 
L 358.561009 168.112921 
L 358.507894 166.92499 
L 358.444869 165.73706 
L 358.370894 164.54913 
L 358.285063 163.3612 
L 358.186552 162.17327 
L 358.074574 160.985339 
L 357.948359 159.797409 
L 357.807228 158.609479 
L 357.650746 157.421549 
L 357.478961 156.233619 
L 357.292661 155.045688 
L 357.093564 153.857758 
L 356.884353 152.669828 
L 356.668479 151.481898 
L 356.449711 150.293968 
L 356.231479 149.106037 
L 356.016131 147.918107 
L 355.804245 146.730177 
L 355.594156 145.542247 
L 355.381808 144.354316 
L 355.160977 143.166386 
L 354.92383 141.978456 
L 354.661742 140.790526 
L 354.366233 139.602596 
L 354.029916 138.414665 
L 353.647337 137.226735 
L 353.215644 136.038805 
L 352.735053 134.850875 
L 352.2091 133.662945 
L 351.644706 132.475014 
L 351.052048 131.287084 
L 350.444232 130.099154 
L 349.836731 128.911224 
L 349.246551 127.723294 
L 348.691102 126.535363 
L 348.186818 125.347433 
L 347.747659 124.159503 
L 347.383708 122.971573 
L 347.100133 121.783643 
L 346.896754 120.595712 
L 346.768365 119.407782 
L 346.705795 118.219852 
L 346.697533 117.031922 
L 346.731592 115.843992 
L 346.797256 114.656061 
L 346.886379 113.468131 
L 346.994047 112.280201 
L 347.118587 111.092271 
L 347.261036 109.904341 
L 347.4243 108.71641 
L 347.612261 107.52848 
L 347.82899 106.34055 
L 348.078179 105.15262 
L 348.362767 103.96469 
L 348.684675 102.776759 
L 349.044553 101.588829 
L 349.441479 100.400899 
L 349.87263 99.212969 
L 350.333018 98.025038 
L 350.815453 96.837108 
L 351.310867 95.649178 
L 351.809075 94.461248 
L 352.299912 93.273318 
L 352.774562 92.085387 
L 353.226773 90.897457 
L 353.653654 89.709527 
L 354.055809 88.521597 
L 354.436733 87.333667 
L 354.801591 86.145736 
L 355.155673 84.957806 
L 355.502926 83.769876 
L 355.844908 82.581946 
L 356.180413 81.394016 
L 356.505813 80.206085 
L 356.815957 79.018155 
L 357.105358 77.830225 
L 357.369348 76.642295 
L 357.604928 75.454365 
L 357.811159 74.266434 
L 357.989093 73.078504 
L 358.141325 71.890574 
L 358.271349 70.702644 
L 358.382893 69.514714 
L 358.479371 68.326783 
L 359.473527 68.326783 
L 359.473527 68.326783 
L 359.570005 69.514714 
L 359.681549 70.702644 
L 359.811573 71.890574 
L 359.963804 73.078504 
L 360.141738 74.266434 
L 360.34797 75.454365 
L 360.58355 76.642295 
L 360.84754 77.830225 
L 361.136941 79.018155 
L 361.447085 80.206085 
L 361.772485 81.394016 
L 362.10799 82.581946 
L 362.449972 83.769876 
L 362.797225 84.957806 
L 363.151307 86.145736 
L 363.516165 87.333667 
L 363.897089 88.521597 
L 364.299244 89.709527 
L 364.726125 90.897457 
L 365.178336 92.085387 
L 365.652985 93.273318 
L 366.143823 94.461248 
L 366.642031 95.649178 
L 367.137445 96.837108 
L 367.61988 98.025038 
L 368.080268 99.212969 
L 368.511419 100.400899 
L 368.908345 101.588829 
L 369.268223 102.776759 
L 369.590131 103.96469 
L 369.874719 105.15262 
L 370.123908 106.34055 
L 370.340636 107.52848 
L 370.528598 108.71641 
L 370.691862 109.904341 
L 370.834311 111.092271 
L 370.958851 112.280201 
L 371.066519 113.468131 
L 371.155642 114.656061 
L 371.221306 115.843992 
L 371.255365 117.031922 
L 371.247103 118.219852 
L 371.184533 119.407782 
L 371.056143 120.595712 
L 370.852765 121.783643 
L 370.569189 122.971573 
L 370.205238 124.159503 
L 369.766079 125.347433 
L 369.261795 126.535363 
L 368.706346 127.723294 
L 368.116166 128.911224 
L 367.508665 130.099154 
L 366.900849 131.287084 
L 366.308192 132.475014 
L 365.743798 133.662945 
L 365.217845 134.850875 
L 364.737253 136.038805 
L 364.305561 137.226735 
L 363.922982 138.414665 
L 363.586665 139.602596 
L 363.291156 140.790526 
L 363.029068 141.978456 
L 362.791921 143.166386 
L 362.571089 144.354316 
L 362.358742 145.542247 
L 362.148653 146.730177 
L 361.936767 147.918107 
L 361.721419 149.106037 
L 361.503187 150.293968 
L 361.284419 151.481898 
L 361.068545 152.669828 
L 360.859334 153.857758 
L 360.660237 155.045688 
L 360.473937 156.233619 
L 360.302152 157.421549 
L 360.14567 158.609479 
L 360.004539 159.797409 
L 359.878324 160.985339 
L 359.766345 162.17327 
L 359.667835 163.3612 
L 359.582004 164.54913 
L 359.508029 165.73706 
L 359.445004 166.92499 
L 359.391889 168.112921 
L 359.347501 169.300851 
L 359.310567 170.488781 
L 359.279818 171.676711 
L 359.254121 172.864641 
L 359.232582 174.052572 
L 359.214602 175.240502 
L 359.199851 176.428432 
L 359.188155 177.616362 
L 359.17934 178.804292 
L 359.173061 179.992223 
L 359.168696 181.180153 
L 359.165322 182.368083 
L 359.161809 183.556013 
L 359.156989 184.743943 
L 359.149872 185.931874 
z
" clip-path="url(#p612b2e36c9)" style="fill: #1f77b4; fill-opacity: 0.3"/>
   </g>
   <g id="PolyCollection_12">
    <path d="M 386.407756 182.36552 
L 386.008957 182.36552 
L 385.994787 181.194819 
L 385.983155 180.024117 
L 385.973975 178.853416 
L 385.966901 177.682714 
L 385.961339 176.512013 
L 385.95646 175.341311 
L 385.951228 174.17061 
L 385.944417 172.999909 
L 385.934657 171.829207 
L 385.920486 170.658506 
L 385.900433 169.487804 
L 385.873117 168.317103 
L 385.837369 167.146401 
L 385.792359 165.9757 
L 385.73772 164.804998 
L 385.673665 163.634297 
L 385.60105 162.463596 
L 385.521393 161.292894 
L 385.436797 160.122193 
L 385.349782 158.951491 
L 385.263003 157.78079 
L 385.178895 156.610088 
L 385.099268 155.439387 
L 385.024932 154.268685 
L 384.955422 153.097984 
L 384.888888 151.927283 
L 384.822195 150.756581 
L 384.75124 149.58588 
L 384.671441 148.415178 
L 384.578306 147.244477 
L 384.467993 146.073775 
L 384.337739 144.903074 
L 384.186082 143.732372 
L 384.012864 142.561671 
L 383.819019 141.39097 
L 383.606247 140.220268 
L 383.376657 139.049567 
L 383.132479 137.878865 
L 382.875889 136.708164 
L 382.608956 135.537462 
L 382.333645 134.366761 
L 382.051813 133.196059 
L 381.765121 132.025358 
L 381.474827 130.854657 
L 381.181484 129.683955 
L 380.884627 128.513254 
L 380.582526 127.342552 
L 380.272145 126.171851 
L 379.949346 125.001149 
L 379.609366 123.830448 
L 379.247516 122.659746 
L 378.86001 121.489045 
L 378.444805 120.318344 
L 378.002326 119.147642 
L 377.535976 117.976941 
L 377.052364 116.806239 
L 376.561187 115.635538 
L 376.074772 114.464836 
L 375.607274 113.294135 
L 375.173621 112.123433 
L 374.788289 110.952732 
L 374.464087 109.782031 
L 374.211128 108.611329 
L 374.036148 107.440628 
L 373.942303 106.269926 
L 373.92944 105.099225 
L 373.994768 103.928523 
L 374.133718 102.757822 
L 374.340789 101.58712 
L 374.610161 100.416419 
L 374.935954 99.245718 
L 375.312119 98.075016 
L 375.732067 96.904315 
L 376.188204 95.733613 
L 376.671582 94.562912 
L 377.171835 93.39221 
L 377.677507 92.221509 
L 378.17678 91.050807 
L 378.658501 89.880106 
L 379.113348 88.709405 
L 379.534899 87.538703 
L 379.920396 86.368002 
L 380.271023 85.1973 
L 380.591605 84.026599 
L 380.88977 82.855897 
L 381.174708 81.685196 
L 381.455743 80.514494 
L 381.740971 79.343793 
L 382.036197 78.173092 
L 382.344309 77.00239 
L 382.665156 75.831689 
L 382.99586 74.660987 
L 383.331462 73.490286 
L 383.665734 72.319584 
L 383.992014 71.148883 
L 384.303933 69.978181 
L 384.595978 68.80748 
L 384.863847 67.636779 
L 385.104619 66.466077 
L 387.312094 66.466077 
L 387.312094 66.466077 
L 387.552866 67.636779 
L 387.820735 68.80748 
L 388.11278 69.978181 
L 388.424699 71.148883 
L 388.750978 72.319584 
L 389.085251 73.490286 
L 389.420853 74.660987 
L 389.751557 75.831689 
L 390.072404 77.00239 
L 390.380516 78.173092 
L 390.675742 79.343793 
L 390.96097 80.514494 
L 391.242005 81.685196 
L 391.526943 82.855897 
L 391.825108 84.026599 
L 392.14569 85.1973 
L 392.496316 86.368002 
L 392.881814 87.538703 
L 393.303365 88.709405 
L 393.758212 89.880106 
L 394.239933 91.050807 
L 394.739206 92.221509 
L 395.244878 93.39221 
L 395.745131 94.562912 
L 396.228509 95.733613 
L 396.684646 96.904315 
L 397.104594 98.075016 
L 397.480759 99.245718 
L 397.806552 100.416419 
L 398.075924 101.58712 
L 398.282995 102.757822 
L 398.421945 103.928523 
L 398.487273 105.099225 
L 398.47441 106.269926 
L 398.380565 107.440628 
L 398.205585 108.611329 
L 397.952626 109.782031 
L 397.628424 110.952732 
L 397.243092 112.123433 
L 396.809439 113.294135 
L 396.341941 114.464836 
L 395.855526 115.635538 
L 395.364349 116.806239 
L 394.880737 117.976941 
L 394.414387 119.147642 
L 393.971908 120.318344 
L 393.556703 121.489045 
L 393.169197 122.659746 
L 392.807347 123.830448 
L 392.467367 125.001149 
L 392.144568 126.171851 
L 391.834187 127.342552 
L 391.532086 128.513254 
L 391.235229 129.683955 
L 390.941886 130.854657 
L 390.651592 132.025358 
L 390.3649 133.196059 
L 390.083068 134.366761 
L 389.807757 135.537462 
L 389.540824 136.708164 
L 389.284234 137.878865 
L 389.040056 139.049567 
L 388.810466 140.220268 
L 388.597693 141.39097 
L 388.403849 142.561671 
L 388.230631 143.732372 
L 388.078974 144.903074 
L 387.94872 146.073775 
L 387.838407 147.244477 
L 387.745272 148.415178 
L 387.665473 149.58588 
L 387.594518 150.756581 
L 387.527825 151.927283 
L 387.461291 153.097984 
L 387.391781 154.268685 
L 387.317445 155.439387 
L 387.237818 156.610088 
L 387.15371 157.78079 
L 387.066931 158.951491 
L 386.979916 160.122193 
L 386.89532 161.292894 
L 386.815663 162.463596 
L 386.743048 163.634297 
L 386.678993 164.804998 
L 386.624354 165.9757 
L 386.579344 167.146401 
L 386.543596 168.317103 
L 386.51628 169.487804 
L 386.496227 170.658506 
L 386.482056 171.829207 
L 386.472296 172.999909 
L 386.465485 174.17061 
L 386.460253 175.341311 
L 386.455374 176.512013 
L 386.449812 177.682714 
L 386.442738 178.853416 
L 386.433558 180.024117 
L 386.421926 181.194819 
L 386.407756 182.36552 
z
" clip-path="url(#p612b2e36c9)" style="fill: #1f77b4; fill-opacity: 0.3"/>
   </g>
   <g id="matplotlib.axis_1">
    <g id="xtick_1">
     <g id="line2d_1">
      <defs>
       <path id="mb2ac92c8e3" d="M 0 0 
L 0 3.5 
" style="stroke: #000000; stroke-width: 0.8"/>
      </defs>
      <g>
       <use xlink:href="#mb2ac92c8e3" x="58.825163" y="307.584" style="stroke: #000000; stroke-width: 0.8"/>
      </g>
     </g>
     <g id="text_1">
      <!-- 0 -->
      <g transform="translate(55.643913 322.182437)scale(0.1 -0.1)">
       <defs>
        <path id="DejaVuSans-30" d="M 2034 4250 
Q 1547 4250 1301 3770 
Q 1056 3291 1056 2328 
Q 1056 1369 1301 889 
Q 1547 409 2034 409 
Q 2525 409 2770 889 
Q 3016 1369 3016 2328 
Q 3016 3291 2770 3770 
Q 2525 4250 2034 4250 
z
M 2034 4750 
Q 2819 4750 3233 4129 
Q 3647 3509 3647 2328 
Q 3647 1150 3233 529 
Q 2819 -91 2034 -91 
Q 1250 -91 836 529 
Q 422 1150 422 2328 
Q 422 3509 836 4129 
Q 1250 4750 2034 4750 
z
" transform="scale(0.015625)"/>
       </defs>
       <use xlink:href="#DejaVuSans-30"/>
      </g>
     </g>
    </g>
    <g id="xtick_2">
     <g id="line2d_2">
      <g>
       <use xlink:href="#mb2ac92c8e3" x="113.398124" y="307.584" style="stroke: #000000; stroke-width: 0.8"/>
      </g>
     </g>
     <g id="text_2">
      <!-- 1000 -->
      <g transform="translate(100.673124 322.182437)scale(0.1 -0.1)">
       <defs>
        <path id="DejaVuSans-31" d="M 794 531 
L 1825 531 
L 1825 4091 
L 703 3866 
L 703 4441 
L 1819 4666 
L 2450 4666 
L 2450 531 
L 3481 531 
L 3481 0 
L 794 0 
L 794 531 
z
" transform="scale(0.015625)"/>
       </defs>
       <use xlink:href="#DejaVuSans-31"/>
       <use xlink:href="#DejaVuSans-30" x="63.623047"/>
       <use xlink:href="#DejaVuSans-30" x="127.246094"/>
       <use xlink:href="#DejaVuSans-30" x="190.869141"/>
      </g>
     </g>
    </g>
    <g id="xtick_3">
     <g id="line2d_3">
      <g>
       <use xlink:href="#mb2ac92c8e3" x="167.971085" y="307.584" style="stroke: #000000; stroke-width: 0.8"/>
      </g>
     </g>
     <g id="text_3">
      <!-- 2000 -->
      <g transform="translate(155.246085 322.182437)scale(0.1 -0.1)">
       <defs>
        <path id="DejaVuSans-32" d="M 1228 531 
L 3431 531 
L 3431 0 
L 469 0 
L 469 531 
Q 828 903 1448 1529 
Q 2069 2156 2228 2338 
Q 2531 2678 2651 2914 
Q 2772 3150 2772 3378 
Q 2772 3750 2511 3984 
Q 2250 4219 1831 4219 
Q 1534 4219 1204 4116 
Q 875 4013 500 3803 
L 500 4441 
Q 881 4594 1212 4672 
Q 1544 4750 1819 4750 
Q 2544 4750 2975 4387 
Q 3406 4025 3406 3419 
Q 3406 3131 3298 2873 
Q 3191 2616 2906 2266 
Q 2828 2175 2409 1742 
Q 1991 1309 1228 531 
z
" transform="scale(0.015625)"/>
       </defs>
       <use xlink:href="#DejaVuSans-32"/>
       <use xlink:href="#DejaVuSans-30" x="63.623047"/>
       <use xlink:href="#DejaVuSans-30" x="127.246094"/>
       <use xlink:href="#DejaVuSans-30" x="190.869141"/>
      </g>
     </g>
    </g>
    <g id="xtick_4">
     <g id="line2d_4">
      <g>
       <use xlink:href="#mb2ac92c8e3" x="222.544046" y="307.584" style="stroke: #000000; stroke-width: 0.8"/>
      </g>
     </g>
     <g id="text_4">
      <!-- 3000 -->
      <g transform="translate(209.819046 322.182437)scale(0.1 -0.1)">
       <defs>
        <path id="DejaVuSans-33" d="M 2597 2516 
Q 3050 2419 3304 2112 
Q 3559 1806 3559 1356 
Q 3559 666 3084 287 
Q 2609 -91 1734 -91 
Q 1441 -91 1130 -33 
Q 819 25 488 141 
L 488 750 
Q 750 597 1062 519 
Q 1375 441 1716 441 
Q 2309 441 2620 675 
Q 2931 909 2931 1356 
Q 2931 1769 2642 2001 
Q 2353 2234 1838 2234 
L 1294 2234 
L 1294 2753 
L 1863 2753 
Q 2328 2753 2575 2939 
Q 2822 3125 2822 3475 
Q 2822 3834 2567 4026 
Q 2313 4219 1838 4219 
Q 1578 4219 1281 4162 
Q 984 4106 628 3988 
L 628 4550 
Q 988 4650 1302 4700 
Q 1616 4750 1894 4750 
Q 2613 4750 3031 4423 
Q 3450 4097 3450 3541 
Q 3450 3153 3228 2886 
Q 3006 2619 2597 2516 
z
" transform="scale(0.015625)"/>
       </defs>
       <use xlink:href="#DejaVuSans-33"/>
       <use xlink:href="#DejaVuSans-30" x="63.623047"/>
       <use xlink:href="#DejaVuSans-30" x="127.246094"/>
       <use xlink:href="#DejaVuSans-30" x="190.869141"/>
      </g>
     </g>
    </g>
    <g id="xtick_5">
     <g id="line2d_5">
      <g>
       <use xlink:href="#mb2ac92c8e3" x="277.117007" y="307.584" style="stroke: #000000; stroke-width: 0.8"/>
      </g>
     </g>
     <g id="text_5">
      <!-- 4000 -->
      <g transform="translate(264.392007 322.182437)scale(0.1 -0.1)">
       <defs>
        <path id="DejaVuSans-34" d="M 2419 4116 
L 825 1625 
L 2419 1625 
L 2419 4116 
z
M 2253 4666 
L 3047 4666 
L 3047 1625 
L 3713 1625 
L 3713 1100 
L 3047 1100 
L 3047 0 
L 2419 0 
L 2419 1100 
L 313 1100 
L 313 1709 
L 2253 4666 
z
" transform="scale(0.015625)"/>
       </defs>
       <use xlink:href="#DejaVuSans-34"/>
       <use xlink:href="#DejaVuSans-30" x="63.623047"/>
       <use xlink:href="#DejaVuSans-30" x="127.246094"/>
       <use xlink:href="#DejaVuSans-30" x="190.869141"/>
      </g>
     </g>
    </g>
    <g id="xtick_6">
     <g id="line2d_6">
      <g>
       <use xlink:href="#mb2ac92c8e3" x="331.689968" y="307.584" style="stroke: #000000; stroke-width: 0.8"/>
      </g>
     </g>
     <g id="text_6">
      <!-- 5000 -->
      <g transform="translate(318.964968 322.182437)scale(0.1 -0.1)">
       <defs>
        <path id="DejaVuSans-35" d="M 691 4666 
L 3169 4666 
L 3169 4134 
L 1269 4134 
L 1269 2991 
Q 1406 3038 1543 3061 
Q 1681 3084 1819 3084 
Q 2600 3084 3056 2656 
Q 3513 2228 3513 1497 
Q 3513 744 3044 326 
Q 2575 -91 1722 -91 
Q 1428 -91 1123 -41 
Q 819 9 494 109 
L 494 744 
Q 775 591 1075 516 
Q 1375 441 1709 441 
Q 2250 441 2565 725 
Q 2881 1009 2881 1497 
Q 2881 1984 2565 2268 
Q 2250 2553 1709 2553 
Q 1456 2553 1204 2497 
Q 953 2441 691 2322 
L 691 4666 
z
" transform="scale(0.015625)"/>
       </defs>
       <use xlink:href="#DejaVuSans-35"/>
       <use xlink:href="#DejaVuSans-30" x="63.623047"/>
       <use xlink:href="#DejaVuSans-30" x="127.246094"/>
       <use xlink:href="#DejaVuSans-30" x="190.869141"/>
      </g>
     </g>
    </g>
    <g id="xtick_7">
     <g id="line2d_7">
      <g>
       <use xlink:href="#mb2ac92c8e3" x="386.262929" y="307.584" style="stroke: #000000; stroke-width: 0.8"/>
      </g>
     </g>
     <g id="text_7">
      <!-- 6000 -->
      <g transform="translate(373.537929 322.182437)scale(0.1 -0.1)">
       <defs>
        <path id="DejaVuSans-36" d="M 2113 2584 
Q 1688 2584 1439 2293 
Q 1191 2003 1191 1497 
Q 1191 994 1439 701 
Q 1688 409 2113 409 
Q 2538 409 2786 701 
Q 3034 994 3034 1497 
Q 3034 2003 2786 2293 
Q 2538 2584 2113 2584 
z
M 3366 4563 
L 3366 3988 
Q 3128 4100 2886 4159 
Q 2644 4219 2406 4219 
Q 1781 4219 1451 3797 
Q 1122 3375 1075 2522 
Q 1259 2794 1537 2939 
Q 1816 3084 2150 3084 
Q 2853 3084 3261 2657 
Q 3669 2231 3669 1497 
Q 3669 778 3244 343 
Q 2819 -91 2113 -91 
Q 1303 -91 875 529 
Q 447 1150 447 2328 
Q 447 3434 972 4092 
Q 1497 4750 2381 4750 
Q 2619 4750 2861 4703 
Q 3103 4656 3366 4563 
z
" transform="scale(0.015625)"/>
       </defs>
       <use xlink:href="#DejaVuSans-36"/>
       <use xlink:href="#DejaVuSans-30" x="63.623047"/>
       <use xlink:href="#DejaVuSans-30" x="127.246094"/>
       <use xlink:href="#DejaVuSans-30" x="190.869141"/>
      </g>
     </g>
    </g>
    <g id="text_8">
     <!-- Learned Episodes -->
     <g transform="translate(192.102187 335.860562)scale(0.1 -0.1)">
      <defs>
       <path id="DejaVuSans-4c" d="M 628 4666 
L 1259 4666 
L 1259 531 
L 3531 531 
L 3531 0 
L 628 0 
L 628 4666 
z
" transform="scale(0.015625)"/>
       <path id="DejaVuSans-65" d="M 3597 1894 
L 3597 1613 
L 953 1613 
Q 991 1019 1311 708 
Q 1631 397 2203 397 
Q 2534 397 2845 478 
Q 3156 559 3463 722 
L 3463 178 
Q 3153 47 2828 -22 
Q 2503 -91 2169 -91 
Q 1331 -91 842 396 
Q 353 884 353 1716 
Q 353 2575 817 3079 
Q 1281 3584 2069 3584 
Q 2775 3584 3186 3129 
Q 3597 2675 3597 1894 
z
M 3022 2063 
Q 3016 2534 2758 2815 
Q 2500 3097 2075 3097 
Q 1594 3097 1305 2825 
Q 1016 2553 972 2059 
L 3022 2063 
z
" transform="scale(0.015625)"/>
       <path id="DejaVuSans-61" d="M 2194 1759 
Q 1497 1759 1228 1600 
Q 959 1441 959 1056 
Q 959 750 1161 570 
Q 1363 391 1709 391 
Q 2188 391 2477 730 
Q 2766 1069 2766 1631 
L 2766 1759 
L 2194 1759 
z
M 3341 1997 
L 3341 0 
L 2766 0 
L 2766 531 
Q 2569 213 2275 61 
Q 1981 -91 1556 -91 
Q 1019 -91 701 211 
Q 384 513 384 1019 
Q 384 1609 779 1909 
Q 1175 2209 1959 2209 
L 2766 2209 
L 2766 2266 
Q 2766 2663 2505 2880 
Q 2244 3097 1772 3097 
Q 1472 3097 1187 3025 
Q 903 2953 641 2809 
L 641 3341 
Q 956 3463 1253 3523 
Q 1550 3584 1831 3584 
Q 2591 3584 2966 3190 
Q 3341 2797 3341 1997 
z
" transform="scale(0.015625)"/>
       <path id="DejaVuSans-72" d="M 2631 2963 
Q 2534 3019 2420 3045 
Q 2306 3072 2169 3072 
Q 1681 3072 1420 2755 
Q 1159 2438 1159 1844 
L 1159 0 
L 581 0 
L 581 3500 
L 1159 3500 
L 1159 2956 
Q 1341 3275 1631 3429 
Q 1922 3584 2338 3584 
Q 2397 3584 2469 3576 
Q 2541 3569 2628 3553 
L 2631 2963 
z
" transform="scale(0.015625)"/>
       <path id="DejaVuSans-6e" d="M 3513 2113 
L 3513 0 
L 2938 0 
L 2938 2094 
Q 2938 2591 2744 2837 
Q 2550 3084 2163 3084 
Q 1697 3084 1428 2787 
Q 1159 2491 1159 1978 
L 1159 0 
L 581 0 
L 581 3500 
L 1159 3500 
L 1159 2956 
Q 1366 3272 1645 3428 
Q 1925 3584 2291 3584 
Q 2894 3584 3203 3211 
Q 3513 2838 3513 2113 
z
" transform="scale(0.015625)"/>
       <path id="DejaVuSans-64" d="M 2906 2969 
L 2906 4863 
L 3481 4863 
L 3481 0 
L 2906 0 
L 2906 525 
Q 2725 213 2448 61 
Q 2172 -91 1784 -91 
Q 1150 -91 751 415 
Q 353 922 353 1747 
Q 353 2572 751 3078 
Q 1150 3584 1784 3584 
Q 2172 3584 2448 3432 
Q 2725 3281 2906 2969 
z
M 947 1747 
Q 947 1113 1208 752 
Q 1469 391 1925 391 
Q 2381 391 2643 752 
Q 2906 1113 2906 1747 
Q 2906 2381 2643 2742 
Q 2381 3103 1925 3103 
Q 1469 3103 1208 2742 
Q 947 2381 947 1747 
z
" transform="scale(0.015625)"/>
       <path id="DejaVuSans-20" transform="scale(0.015625)"/>
       <path id="DejaVuSans-45" d="M 628 4666 
L 3578 4666 
L 3578 4134 
L 1259 4134 
L 1259 2753 
L 3481 2753 
L 3481 2222 
L 1259 2222 
L 1259 531 
L 3634 531 
L 3634 0 
L 628 0 
L 628 4666 
z
" transform="scale(0.015625)"/>
       <path id="DejaVuSans-70" d="M 1159 525 
L 1159 -1331 
L 581 -1331 
L 581 3500 
L 1159 3500 
L 1159 2969 
Q 1341 3281 1617 3432 
Q 1894 3584 2278 3584 
Q 2916 3584 3314 3078 
Q 3713 2572 3713 1747 
Q 3713 922 3314 415 
Q 2916 -91 2278 -91 
Q 1894 -91 1617 61 
Q 1341 213 1159 525 
z
M 3116 1747 
Q 3116 2381 2855 2742 
Q 2594 3103 2138 3103 
Q 1681 3103 1420 2742 
Q 1159 2381 1159 1747 
Q 1159 1113 1420 752 
Q 1681 391 2138 391 
Q 2594 391 2855 752 
Q 3116 1113 3116 1747 
z
" transform="scale(0.015625)"/>
       <path id="DejaVuSans-69" d="M 603 3500 
L 1178 3500 
L 1178 0 
L 603 0 
L 603 3500 
z
M 603 4863 
L 1178 4863 
L 1178 4134 
L 603 4134 
L 603 4863 
z
" transform="scale(0.015625)"/>
       <path id="DejaVuSans-73" d="M 2834 3397 
L 2834 2853 
Q 2591 2978 2328 3040 
Q 2066 3103 1784 3103 
Q 1356 3103 1142 2972 
Q 928 2841 928 2578 
Q 928 2378 1081 2264 
Q 1234 2150 1697 2047 
L 1894 2003 
Q 2506 1872 2764 1633 
Q 3022 1394 3022 966 
Q 3022 478 2636 193 
Q 2250 -91 1575 -91 
Q 1294 -91 989 -36 
Q 684 19 347 128 
L 347 722 
Q 666 556 975 473 
Q 1284 391 1588 391 
Q 1994 391 2212 530 
Q 2431 669 2431 922 
Q 2431 1156 2273 1281 
Q 2116 1406 1581 1522 
L 1381 1569 
Q 847 1681 609 1914 
Q 372 2147 372 2553 
Q 372 3047 722 3315 
Q 1072 3584 1716 3584 
Q 2034 3584 2315 3537 
Q 2597 3491 2834 3397 
z
" transform="scale(0.015625)"/>
       <path id="DejaVuSans-6f" d="M 1959 3097 
Q 1497 3097 1228 2736 
Q 959 2375 959 1747 
Q 959 1119 1226 758 
Q 1494 397 1959 397 
Q 2419 397 2687 759 
Q 2956 1122 2956 1747 
Q 2956 2369 2687 2733 
Q 2419 3097 1959 3097 
z
M 1959 3584 
Q 2709 3584 3137 3096 
Q 3566 2609 3566 1747 
Q 3566 888 3137 398 
Q 2709 -91 1959 -91 
Q 1206 -91 779 398 
Q 353 888 353 1747 
Q 353 2609 779 3096 
Q 1206 3584 1959 3584 
z
" transform="scale(0.015625)"/>
      </defs>
      <use xlink:href="#DejaVuSans-4c"/>
      <use xlink:href="#DejaVuSans-65" x="53.962891"/>
      <use xlink:href="#DejaVuSans-61" x="115.486328"/>
      <use xlink:href="#DejaVuSans-72" x="176.765625"/>
      <use xlink:href="#DejaVuSans-6e" x="216.128906"/>
      <use xlink:href="#DejaVuSans-65" x="279.507812"/>
      <use xlink:href="#DejaVuSans-64" x="341.03125"/>
      <use xlink:href="#DejaVuSans-20" x="404.507812"/>
      <use xlink:href="#DejaVuSans-45" x="436.294922"/>
      <use xlink:href="#DejaVuSans-70" x="499.478516"/>
      <use xlink:href="#DejaVuSans-69" x="562.955078"/>
      <use xlink:href="#DejaVuSans-73" x="590.738281"/>
      <use xlink:href="#DejaVuSans-6f" x="642.837891"/>
      <use xlink:href="#DejaVuSans-64" x="704.019531"/>
      <use xlink:href="#DejaVuSans-65" x="767.496094"/>
      <use xlink:href="#DejaVuSans-73" x="829.019531"/>
     </g>
    </g>
   </g>
   <g id="matplotlib.axis_2">
    <g id="ytick_1">
     <g id="line2d_8">
      <defs>
       <path id="m9d30cf9317" d="M 0 0 
L -3.5 0 
" style="stroke: #000000; stroke-width: 0.8"/>
      </defs>
      <g>
       <use xlink:href="#m9d30cf9317" x="57.6" y="284.126415" style="stroke: #000000; stroke-width: 0.8"/>
      </g>
     </g>
     <g id="text_9">
      <!-- 500 -->
      <g transform="translate(23.132812 287.925634)scale(0.1 -0.1)">
       <defs>
        <path id="DejaVuSans-2212" d="M 678 2272 
L 4684 2272 
L 4684 1741 
L 678 1741 
L 678 2272 
z
" transform="scale(0.015625)"/>
       </defs>
       <use xlink:href="#DejaVuSans-2212"/>
       <use xlink:href="#DejaVuSans-35" x="83.789062"/>
       <use xlink:href="#DejaVuSans-30" x="147.412109"/>
       <use xlink:href="#DejaVuSans-30" x="211.035156"/>
      </g>
     </g>
    </g>
    <g id="ytick_2">
     <g id="line2d_9">
      <g>
       <use xlink:href="#m9d30cf9317" x="57.6" y="248.885767" style="stroke: #000000; stroke-width: 0.8"/>
      </g>
     </g>
     <g id="text_10">
      <!-- 250 -->
      <g transform="translate(23.132812 252.684986)scale(0.1 -0.1)">
       <use xlink:href="#DejaVuSans-2212"/>
       <use xlink:href="#DejaVuSans-32" x="83.789062"/>
       <use xlink:href="#DejaVuSans-35" x="147.412109"/>
       <use xlink:href="#DejaVuSans-30" x="211.035156"/>
      </g>
     </g>
    </g>
    <g id="ytick_3">
     <g id="line2d_10">
      <g>
       <use xlink:href="#m9d30cf9317" x="57.6" y="213.645119" style="stroke: #000000; stroke-width: 0.8"/>
      </g>
     </g>
     <g id="text_11">
      <!-- 0 -->
      <g transform="translate(44.2375 217.444338)scale(0.1 -0.1)">
       <use xlink:href="#DejaVuSans-30"/>
      </g>
     </g>
    </g>
    <g id="ytick_4">
     <g id="line2d_11">
      <g>
       <use xlink:href="#m9d30cf9317" x="57.6" y="178.404471" style="stroke: #000000; stroke-width: 0.8"/>
      </g>
     </g>
     <g id="text_12">
      <!-- 250 -->
      <g transform="translate(31.5125 182.20369)scale(0.1 -0.1)">
       <use xlink:href="#DejaVuSans-32"/>
       <use xlink:href="#DejaVuSans-35" x="63.623047"/>
       <use xlink:href="#DejaVuSans-30" x="127.246094"/>
      </g>
     </g>
    </g>
    <g id="ytick_5">
     <g id="line2d_12">
      <g>
       <use xlink:href="#m9d30cf9317" x="57.6" y="143.163823" style="stroke: #000000; stroke-width: 0.8"/>
      </g>
     </g>
     <g id="text_13">
      <!-- 500 -->
      <g transform="translate(31.5125 146.963042)scale(0.1 -0.1)">
       <use xlink:href="#DejaVuSans-35"/>
       <use xlink:href="#DejaVuSans-30" x="63.623047"/>
       <use xlink:href="#DejaVuSans-30" x="127.246094"/>
      </g>
     </g>
    </g>
    <g id="ytick_6">
     <g id="line2d_13">
      <g>
       <use xlink:href="#m9d30cf9317" x="57.6" y="107.923175" style="stroke: #000000; stroke-width: 0.8"/>
      </g>
     </g>
     <g id="text_14">
      <!-- 750 -->
      <g transform="translate(31.5125 111.722394)scale(0.1 -0.1)">
       <defs>
        <path id="DejaVuSans-37" d="M 525 4666 
L 3525 4666 
L 3525 4397 
L 1831 0 
L 1172 0 
L 2766 4134 
L 525 4134 
L 525 4666 
z
" transform="scale(0.015625)"/>
       </defs>
       <use xlink:href="#DejaVuSans-37"/>
       <use xlink:href="#DejaVuSans-35" x="63.623047"/>
       <use xlink:href="#DejaVuSans-30" x="127.246094"/>
      </g>
     </g>
    </g>
    <g id="ytick_7">
     <g id="line2d_14">
      <g>
       <use xlink:href="#m9d30cf9317" x="57.6" y="72.682527" style="stroke: #000000; stroke-width: 0.8"/>
      </g>
     </g>
     <g id="text_15">
      <!-- 1000 -->
      <g transform="translate(25.15 76.481746)scale(0.1 -0.1)">
       <use xlink:href="#DejaVuSans-31"/>
       <use xlink:href="#DejaVuSans-30" x="63.623047"/>
       <use xlink:href="#DejaVuSans-30" x="127.246094"/>
       <use xlink:href="#DejaVuSans-30" x="190.869141"/>
      </g>
     </g>
    </g>
    <g id="text_16">
     <!-- Reward Density -->
     <g transform="translate(17.053125 213.74675)rotate(-90)scale(0.1 -0.1)">
      <defs>
       <path id="DejaVuSans-52" d="M 2841 2188 
Q 3044 2119 3236 1894 
Q 3428 1669 3622 1275 
L 4263 0 
L 3584 0 
L 2988 1197 
Q 2756 1666 2539 1819 
Q 2322 1972 1947 1972 
L 1259 1972 
L 1259 0 
L 628 0 
L 628 4666 
L 2053 4666 
Q 2853 4666 3247 4331 
Q 3641 3997 3641 3322 
Q 3641 2881 3436 2590 
Q 3231 2300 2841 2188 
z
M 1259 4147 
L 1259 2491 
L 2053 2491 
Q 2509 2491 2742 2702 
Q 2975 2913 2975 3322 
Q 2975 3731 2742 3939 
Q 2509 4147 2053 4147 
L 1259 4147 
z
" transform="scale(0.015625)"/>
       <path id="DejaVuSans-77" d="M 269 3500 
L 844 3500 
L 1563 769 
L 2278 3500 
L 2956 3500 
L 3675 769 
L 4391 3500 
L 4966 3500 
L 4050 0 
L 3372 0 
L 2619 2869 
L 1863 0 
L 1184 0 
L 269 3500 
z
" transform="scale(0.015625)"/>
       <path id="DejaVuSans-44" d="M 1259 4147 
L 1259 519 
L 2022 519 
Q 2988 519 3436 956 
Q 3884 1394 3884 2338 
Q 3884 3275 3436 3711 
Q 2988 4147 2022 4147 
L 1259 4147 
z
M 628 4666 
L 1925 4666 
Q 3281 4666 3915 4102 
Q 4550 3538 4550 2338 
Q 4550 1131 3912 565 
Q 3275 0 1925 0 
L 628 0 
L 628 4666 
z
" transform="scale(0.015625)"/>
       <path id="DejaVuSans-74" d="M 1172 4494 
L 1172 3500 
L 2356 3500 
L 2356 3053 
L 1172 3053 
L 1172 1153 
Q 1172 725 1289 603 
Q 1406 481 1766 481 
L 2356 481 
L 2356 0 
L 1766 0 
Q 1100 0 847 248 
Q 594 497 594 1153 
L 594 3053 
L 172 3053 
L 172 3500 
L 594 3500 
L 594 4494 
L 1172 4494 
z
" transform="scale(0.015625)"/>
       <path id="DejaVuSans-79" d="M 2059 -325 
Q 1816 -950 1584 -1140 
Q 1353 -1331 966 -1331 
L 506 -1331 
L 506 -850 
L 844 -850 
Q 1081 -850 1212 -737 
Q 1344 -625 1503 -206 
L 1606 56 
L 191 3500 
L 800 3500 
L 1894 763 
L 2988 3500 
L 3597 3500 
L 2059 -325 
z
" transform="scale(0.015625)"/>
      </defs>
      <use xlink:href="#DejaVuSans-52"/>
      <use xlink:href="#DejaVuSans-65" x="64.982422"/>
      <use xlink:href="#DejaVuSans-77" x="126.505859"/>
      <use xlink:href="#DejaVuSans-61" x="208.292969"/>
      <use xlink:href="#DejaVuSans-72" x="269.572266"/>
      <use xlink:href="#DejaVuSans-64" x="308.935547"/>
      <use xlink:href="#DejaVuSans-20" x="372.412109"/>
      <use xlink:href="#DejaVuSans-44" x="404.199219"/>
      <use xlink:href="#DejaVuSans-65" x="481.201172"/>
      <use xlink:href="#DejaVuSans-6e" x="542.724609"/>
      <use xlink:href="#DejaVuSans-73" x="606.103516"/>
      <use xlink:href="#DejaVuSans-69" x="658.203125"/>
      <use xlink:href="#DejaVuSans-74" x="685.986328"/>
      <use xlink:href="#DejaVuSans-79" x="725.195312"/>
     </g>
    </g>
   </g>
   <g id="LineCollection_1">
    <path d="M 79.972185 144.308496 
L 92.251102 144.308496 
" clip-path="url(#p612b2e36c9)" style="fill: none; stroke: #1f77b4; stroke-width: 1.5"/>
    <path d="M 107.258666 134.234125 
L 119.537582 134.234125 
" clip-path="url(#p612b2e36c9)" style="fill: none; stroke: #1f77b4; stroke-width: 1.5"/>
    <path d="M 134.545146 134.844944 
L 146.824063 134.844944 
" clip-path="url(#p612b2e36c9)" style="fill: none; stroke: #1f77b4; stroke-width: 1.5"/>
    <path d="M 161.831627 118.608083 
L 174.110543 118.608083 
" clip-path="url(#p612b2e36c9)" style="fill: none; stroke: #1f77b4; stroke-width: 1.5"/>
    <path d="M 189.118108 119.633896 
L 201.397024 119.633896 
" clip-path="url(#p612b2e36c9)" style="fill: none; stroke: #1f77b4; stroke-width: 1.5"/>
    <path d="M 216.404588 105.23468 
L 228.683504 105.23468 
" clip-path="url(#p612b2e36c9)" style="fill: none; stroke: #1f77b4; stroke-width: 1.5"/>
    <path d="M 243.691069 110.763572 
L 255.969985 110.763572 
" clip-path="url(#p612b2e36c9)" style="fill: none; stroke: #1f77b4; stroke-width: 1.5"/>
    <path d="M 270.977549 118.79562 
L 283.256465 118.79562 
" clip-path="url(#p612b2e36c9)" style="fill: none; stroke: #1f77b4; stroke-width: 1.5"/>
    <path d="M 298.26403 111.887043 
L 310.542946 111.887043 
" clip-path="url(#p612b2e36c9)" style="fill: none; stroke: #1f77b4; stroke-width: 1.5"/>
    <path d="M 325.55051 112.624391 
L 337.829426 112.624391 
" clip-path="url(#p612b2e36c9)" style="fill: none; stroke: #1f77b4; stroke-width: 1.5"/>
    <path d="M 352.836991 115.44742 
L 365.115907 115.44742 
" clip-path="url(#p612b2e36c9)" style="fill: none; stroke: #1f77b4; stroke-width: 1.5"/>
    <path d="M 380.068898 108.158808 
L 392.347815 108.158808 
" clip-path="url(#p612b2e36c9)" style="fill: none; stroke: #1f77b4; stroke-width: 1.5"/>
   </g>
   <g id="LineCollection_2">
    <path d="M 79.972185 74.120346 
L 92.251102 74.120346 
" clip-path="url(#p612b2e36c9)" style="fill: none; stroke: #1f77b4; stroke-width: 1.5"/>
    <path d="M 107.258666 72.160966 
L 119.537582 72.160966 
" clip-path="url(#p612b2e36c9)" style="fill: none; stroke: #1f77b4; stroke-width: 1.5"/>
    <path d="M 134.545146 84.537481 
L 146.824063 84.537481 
" clip-path="url(#p612b2e36c9)" style="fill: none; stroke: #1f77b4; stroke-width: 1.5"/>
    <path d="M 161.831627 59.78445 
L 174.110543 59.78445 
" clip-path="url(#p612b2e36c9)" style="fill: none; stroke: #1f77b4; stroke-width: 1.5"/>
    <path d="M 189.118108 53.568 
L 201.397024 53.568 
" clip-path="url(#p612b2e36c9)" style="fill: none; stroke: #1f77b4; stroke-width: 1.5"/>
    <path d="M 216.404588 55.922075 
L 228.683504 55.922075 
" clip-path="url(#p612b2e36c9)" style="fill: none; stroke: #1f77b4; stroke-width: 1.5"/>
    <path d="M 243.691069 69.35581 
L 255.969985 69.35581 
" clip-path="url(#p612b2e36c9)" style="fill: none; stroke: #1f77b4; stroke-width: 1.5"/>
    <path d="M 270.977549 80.646914 
L 283.256465 80.646914 
" clip-path="url(#p612b2e36c9)" style="fill: none; stroke: #1f77b4; stroke-width: 1.5"/>
    <path d="M 298.26403 58.76952 
L 310.542946 58.76952 
" clip-path="url(#p612b2e36c9)" style="fill: none; stroke: #1f77b4; stroke-width: 1.5"/>
    <path d="M 325.55051 57.698204 
L 337.829426 57.698204 
" clip-path="url(#p612b2e36c9)" style="fill: none; stroke: #1f77b4; stroke-width: 1.5"/>
    <path d="M 352.836991 68.326783 
L 365.115907 68.326783 
" clip-path="url(#p612b2e36c9)" style="fill: none; stroke: #1f77b4; stroke-width: 1.5"/>
    <path d="M 380.068898 66.466077 
L 392.347815 66.466077 
" clip-path="url(#p612b2e36c9)" style="fill: none; stroke: #1f77b4; stroke-width: 1.5"/>
   </g>
   <g id="LineCollection_3">
    <path d="M 79.972185 295.488 
L 92.251102 295.488 
" clip-path="url(#p612b2e36c9)" style="fill: none; stroke: #1f77b4; stroke-width: 1.5"/>
    <path d="M 107.258666 247.053253 
L 119.537582 247.053253 
" clip-path="url(#p612b2e36c9)" style="fill: none; stroke: #1f77b4; stroke-width: 1.5"/>
    <path d="M 134.545146 293.331272 
L 146.824063 293.331272 
" clip-path="url(#p612b2e36c9)" style="fill: none; stroke: #1f77b4; stroke-width: 1.5"/>
    <path d="M 161.831627 207.569632 
L 174.110543 207.569632 
" clip-path="url(#p612b2e36c9)" style="fill: none; stroke: #1f77b4; stroke-width: 1.5"/>
    <path d="M 189.118108 219.692414 
L 201.397024 219.692414 
" clip-path="url(#p612b2e36c9)" style="fill: none; stroke: #1f77b4; stroke-width: 1.5"/>
    <path d="M 216.404588 181.660707 
L 228.683504 181.660707 
" clip-path="url(#p612b2e36c9)" style="fill: none; stroke: #1f77b4; stroke-width: 1.5"/>
    <path d="M 243.691069 171.469112 
L 255.969985 171.469112 
" clip-path="url(#p612b2e36c9)" style="fill: none; stroke: #1f77b4; stroke-width: 1.5"/>
    <path d="M 270.977549 191.4858 
L 283.256465 191.4858 
" clip-path="url(#p612b2e36c9)" style="fill: none; stroke: #1f77b4; stroke-width: 1.5"/>
    <path d="M 298.26403 171.257668 
L 310.542946 171.257668 
" clip-path="url(#p612b2e36c9)" style="fill: none; stroke: #1f77b4; stroke-width: 1.5"/>
    <path d="M 325.55051 177.023038 
L 337.829426 177.023038 
" clip-path="url(#p612b2e36c9)" style="fill: none; stroke: #1f77b4; stroke-width: 1.5"/>
    <path d="M 352.836991 185.931874 
L 365.115907 185.931874 
" clip-path="url(#p612b2e36c9)" style="fill: none; stroke: #1f77b4; stroke-width: 1.5"/>
    <path d="M 380.068898 182.36552 
L 392.347815 182.36552 
" clip-path="url(#p612b2e36c9)" style="fill: none; stroke: #1f77b4; stroke-width: 1.5"/>
   </g>
   <g id="LineCollection_4">
    <path d="M 86.111644 295.488 
L 86.111644 74.120346 
" clip-path="url(#p612b2e36c9)" style="fill: none; stroke: #1f77b4; stroke-width: 1.5"/>
    <path d="M 113.398124 247.053253 
L 113.398124 72.160966 
" clip-path="url(#p612b2e36c9)" style="fill: none; stroke: #1f77b4; stroke-width: 1.5"/>
    <path d="M 140.684605 293.331272 
L 140.684605 84.537481 
" clip-path="url(#p612b2e36c9)" style="fill: none; stroke: #1f77b4; stroke-width: 1.5"/>
    <path d="M 167.971085 207.569632 
L 167.971085 59.78445 
" clip-path="url(#p612b2e36c9)" style="fill: none; stroke: #1f77b4; stroke-width: 1.5"/>
    <path d="M 195.257566 219.692414 
L 195.257566 53.568 
" clip-path="url(#p612b2e36c9)" style="fill: none; stroke: #1f77b4; stroke-width: 1.5"/>
    <path d="M 222.544046 181.660707 
L 222.544046 55.922075 
" clip-path="url(#p612b2e36c9)" style="fill: none; stroke: #1f77b4; stroke-width: 1.5"/>
    <path d="M 249.830527 171.469112 
L 249.830527 69.35581 
" clip-path="url(#p612b2e36c9)" style="fill: none; stroke: #1f77b4; stroke-width: 1.5"/>
    <path d="M 277.117007 191.4858 
L 277.117007 80.646914 
" clip-path="url(#p612b2e36c9)" style="fill: none; stroke: #1f77b4; stroke-width: 1.5"/>
    <path d="M 304.403488 171.257668 
L 304.403488 58.76952 
" clip-path="url(#p612b2e36c9)" style="fill: none; stroke: #1f77b4; stroke-width: 1.5"/>
    <path d="M 331.689968 177.023038 
L 331.689968 57.698204 
" clip-path="url(#p612b2e36c9)" style="fill: none; stroke: #1f77b4; stroke-width: 1.5"/>
    <path d="M 358.976449 185.931874 
L 358.976449 68.326783 
" clip-path="url(#p612b2e36c9)" style="fill: none; stroke: #1f77b4; stroke-width: 1.5"/>
    <path d="M 386.208356 182.36552 
L 386.208356 66.466077 
" clip-path="url(#p612b2e36c9)" style="fill: none; stroke: #1f77b4; stroke-width: 1.5"/>
   </g>
   <g id="line2d_15">
    <path d="M 86.111644 144.308496 
L 113.398124 134.234125 
L 140.684605 134.844944 
L 167.971085 118.608083 
L 195.257566 119.633896 
L 222.544046 105.23468 
L 249.830527 110.763572 
L 277.117007 118.79562 
L 304.403488 111.887043 
L 331.689968 112.624391 
L 358.976449 115.44742 
L 386.208356 108.158808 
" clip-path="url(#p612b2e36c9)" style="fill: none; stroke: #4682b4; stroke-width: 1.5; stroke-linecap: square"/>
   </g>
   <g id="patch_3">
    <path d="M 57.6 307.584 
L 57.6 41.472 
" style="fill: none; stroke: #000000; stroke-width: 0.8; stroke-linejoin: miter; stroke-linecap: square"/>
   </g>
   <g id="patch_4">
    <path d="M 414.72 307.584 
L 414.72 41.472 
" style="fill: none; stroke: #000000; stroke-width: 0.8; stroke-linejoin: miter; stroke-linecap: square"/>
   </g>
   <g id="patch_5">
    <path d="M 57.6 307.584 
L 414.72 307.584 
" style="fill: none; stroke: #000000; stroke-width: 0.8; stroke-linejoin: miter; stroke-linecap: square"/>
   </g>
   <g id="patch_6">
    <path d="M 57.6 41.472 
L 414.72 41.472 
" style="fill: none; stroke: #000000; stroke-width: 0.8; stroke-linejoin: miter; stroke-linecap: square"/>
   </g>
   <g id="text_17">
    <!-- Violinplot for progress of profits/all -->
    <g transform="translate(132.559687 35.472)scale(0.12 -0.12)">
     <defs>
      <path id="DejaVuSans-56" d="M 1831 0 
L 50 4666 
L 709 4666 
L 2188 738 
L 3669 4666 
L 4325 4666 
L 2547 0 
L 1831 0 
z
" transform="scale(0.015625)"/>
      <path id="DejaVuSans-6c" d="M 603 4863 
L 1178 4863 
L 1178 0 
L 603 0 
L 603 4863 
z
" transform="scale(0.015625)"/>
      <path id="DejaVuSans-66" d="M 2375 4863 
L 2375 4384 
L 1825 4384 
Q 1516 4384 1395 4259 
Q 1275 4134 1275 3809 
L 1275 3500 
L 2222 3500 
L 2222 3053 
L 1275 3053 
L 1275 0 
L 697 0 
L 697 3053 
L 147 3053 
L 147 3500 
L 697 3500 
L 697 3744 
Q 697 4328 969 4595 
Q 1241 4863 1831 4863 
L 2375 4863 
z
" transform="scale(0.015625)"/>
      <path id="DejaVuSans-67" d="M 2906 1791 
Q 2906 2416 2648 2759 
Q 2391 3103 1925 3103 
Q 1463 3103 1205 2759 
Q 947 2416 947 1791 
Q 947 1169 1205 825 
Q 1463 481 1925 481 
Q 2391 481 2648 825 
Q 2906 1169 2906 1791 
z
M 3481 434 
Q 3481 -459 3084 -895 
Q 2688 -1331 1869 -1331 
Q 1566 -1331 1297 -1286 
Q 1028 -1241 775 -1147 
L 775 -588 
Q 1028 -725 1275 -790 
Q 1522 -856 1778 -856 
Q 2344 -856 2625 -561 
Q 2906 -266 2906 331 
L 2906 616 
Q 2728 306 2450 153 
Q 2172 0 1784 0 
Q 1141 0 747 490 
Q 353 981 353 1791 
Q 353 2603 747 3093 
Q 1141 3584 1784 3584 
Q 2172 3584 2450 3431 
Q 2728 3278 2906 2969 
L 2906 3500 
L 3481 3500 
L 3481 434 
z
" transform="scale(0.015625)"/>
      <path id="DejaVuSans-2f" d="M 1625 4666 
L 2156 4666 
L 531 -594 
L 0 -594 
L 1625 4666 
z
" transform="scale(0.015625)"/>
     </defs>
     <use xlink:href="#DejaVuSans-56"/>
     <use xlink:href="#DejaVuSans-69" x="66.158203"/>
     <use xlink:href="#DejaVuSans-6f" x="93.941406"/>
     <use xlink:href="#DejaVuSans-6c" x="155.123047"/>
     <use xlink:href="#DejaVuSans-69" x="182.90625"/>
     <use xlink:href="#DejaVuSans-6e" x="210.689453"/>
     <use xlink:href="#DejaVuSans-70" x="274.068359"/>
     <use xlink:href="#DejaVuSans-6c" x="337.544922"/>
     <use xlink:href="#DejaVuSans-6f" x="365.328125"/>
     <use xlink:href="#DejaVuSans-74" x="426.509766"/>
     <use xlink:href="#DejaVuSans-20" x="465.71875"/>
     <use xlink:href="#DejaVuSans-66" x="497.505859"/>
     <use xlink:href="#DejaVuSans-6f" x="532.710938"/>
     <use xlink:href="#DejaVuSans-72" x="593.892578"/>
     <use xlink:href="#DejaVuSans-20" x="635.005859"/>
     <use xlink:href="#DejaVuSans-70" x="666.792969"/>
     <use xlink:href="#DejaVuSans-72" x="730.269531"/>
     <use xlink:href="#DejaVuSans-6f" x="769.132812"/>
     <use xlink:href="#DejaVuSans-67" x="830.314453"/>
     <use xlink:href="#DejaVuSans-72" x="893.791016"/>
     <use xlink:href="#DejaVuSans-65" x="932.654297"/>
     <use xlink:href="#DejaVuSans-73" x="994.177734"/>
     <use xlink:href="#DejaVuSans-73" x="1046.277344"/>
     <use xlink:href="#DejaVuSans-20" x="1098.376953"/>
     <use xlink:href="#DejaVuSans-6f" x="1130.164062"/>
     <use xlink:href="#DejaVuSans-66" x="1191.345703"/>
     <use xlink:href="#DejaVuSans-20" x="1226.550781"/>
     <use xlink:href="#DejaVuSans-70" x="1258.337891"/>
     <use xlink:href="#DejaVuSans-72" x="1321.814453"/>
     <use xlink:href="#DejaVuSans-6f" x="1360.677734"/>
     <use xlink:href="#DejaVuSans-66" x="1421.859375"/>
     <use xlink:href="#DejaVuSans-69" x="1457.064453"/>
     <use xlink:href="#DejaVuSans-74" x="1484.847656"/>
     <use xlink:href="#DejaVuSans-73" x="1524.056641"/>
     <use xlink:href="#DejaVuSans-2f" x="1576.15625"/>
     <use xlink:href="#DejaVuSans-61" x="1609.847656"/>
     <use xlink:href="#DejaVuSans-6c" x="1671.126953"/>
     <use xlink:href="#DejaVuSans-6c" x="1698.910156"/>
    </g>
   </g>
   <g id="legend_1">
    <g id="patch_7">
     <path d="M 284.430938 64.150125 
L 407.72 64.150125 
Q 409.72 64.150125 409.72 62.150125 
L 409.72 48.472 
Q 409.72 46.472 407.72 46.472 
L 284.430938 46.472 
Q 282.430938 46.472 282.430938 48.472 
L 282.430938 62.150125 
Q 282.430938 64.150125 284.430938 64.150125 
z
" style="fill: #ffffff; opacity: 0.8; stroke: #cccccc; stroke-linejoin: miter"/>
    </g>
    <g id="line2d_16">
     <path d="M 286.430938 54.570438 
L 296.430938 54.570438 
L 306.430938 54.570438 
" style="fill: none; stroke: #4682b4; stroke-width: 1.5; stroke-linecap: square"/>
    </g>
    <g id="text_18">
     <!-- Storage-Minimizer -->
     <g transform="translate(314.430938 58.070438)scale(0.1 -0.1)">
      <defs>
       <path id="DejaVuSans-53" d="M 3425 4513 
L 3425 3897 
Q 3066 4069 2747 4153 
Q 2428 4238 2131 4238 
Q 1616 4238 1336 4038 
Q 1056 3838 1056 3469 
Q 1056 3159 1242 3001 
Q 1428 2844 1947 2747 
L 2328 2669 
Q 3034 2534 3370 2195 
Q 3706 1856 3706 1288 
Q 3706 609 3251 259 
Q 2797 -91 1919 -91 
Q 1588 -91 1214 -16 
Q 841 59 441 206 
L 441 856 
Q 825 641 1194 531 
Q 1563 422 1919 422 
Q 2459 422 2753 634 
Q 3047 847 3047 1241 
Q 3047 1584 2836 1778 
Q 2625 1972 2144 2069 
L 1759 2144 
Q 1053 2284 737 2584 
Q 422 2884 422 3419 
Q 422 4038 858 4394 
Q 1294 4750 2059 4750 
Q 2388 4750 2728 4690 
Q 3069 4631 3425 4513 
z
" transform="scale(0.015625)"/>
       <path id="DejaVuSans-2d" d="M 313 2009 
L 1997 2009 
L 1997 1497 
L 313 1497 
L 313 2009 
z
" transform="scale(0.015625)"/>
       <path id="DejaVuSans-4d" d="M 628 4666 
L 1569 4666 
L 2759 1491 
L 3956 4666 
L 4897 4666 
L 4897 0 
L 4281 0 
L 4281 4097 
L 3078 897 
L 2444 897 
L 1241 4097 
L 1241 0 
L 628 0 
L 628 4666 
z
" transform="scale(0.015625)"/>
       <path id="DejaVuSans-6d" d="M 3328 2828 
Q 3544 3216 3844 3400 
Q 4144 3584 4550 3584 
Q 5097 3584 5394 3201 
Q 5691 2819 5691 2113 
L 5691 0 
L 5113 0 
L 5113 2094 
Q 5113 2597 4934 2840 
Q 4756 3084 4391 3084 
Q 3944 3084 3684 2787 
Q 3425 2491 3425 1978 
L 3425 0 
L 2847 0 
L 2847 2094 
Q 2847 2600 2669 2842 
Q 2491 3084 2119 3084 
Q 1678 3084 1418 2786 
Q 1159 2488 1159 1978 
L 1159 0 
L 581 0 
L 581 3500 
L 1159 3500 
L 1159 2956 
Q 1356 3278 1631 3431 
Q 1906 3584 2284 3584 
Q 2666 3584 2933 3390 
Q 3200 3197 3328 2828 
z
" transform="scale(0.015625)"/>
       <path id="DejaVuSans-7a" d="M 353 3500 
L 3084 3500 
L 3084 2975 
L 922 459 
L 3084 459 
L 3084 0 
L 275 0 
L 275 525 
L 2438 3041 
L 353 3041 
L 353 3500 
z
" transform="scale(0.015625)"/>
      </defs>
      <use xlink:href="#DejaVuSans-53"/>
      <use xlink:href="#DejaVuSans-74" x="63.476562"/>
      <use xlink:href="#DejaVuSans-6f" x="102.685547"/>
      <use xlink:href="#DejaVuSans-72" x="163.867188"/>
      <use xlink:href="#DejaVuSans-61" x="204.980469"/>
      <use xlink:href="#DejaVuSans-67" x="266.259766"/>
      <use xlink:href="#DejaVuSans-65" x="329.736328"/>
      <use xlink:href="#DejaVuSans-2d" x="391.259766"/>
      <use xlink:href="#DejaVuSans-4d" x="427.34375"/>
      <use xlink:href="#DejaVuSans-69" x="513.623047"/>
      <use xlink:href="#DejaVuSans-6e" x="541.40625"/>
      <use xlink:href="#DejaVuSans-69" x="604.785156"/>
      <use xlink:href="#DejaVuSans-6d" x="632.568359"/>
      <use xlink:href="#DejaVuSans-69" x="729.980469"/>
      <use xlink:href="#DejaVuSans-7a" x="757.763672"/>
      <use xlink:href="#DejaVuSans-65" x="810.253906"/>
      <use xlink:href="#DejaVuSans-72" x="871.777344"/>
     </g>
    </g>
   </g>
  </g>
 </g>
 <defs>
  <clipPath id="p612b2e36c9">
   <rect x="57.6" y="41.472" width="357.12" height="266.112"/>
  </clipPath>
 </defs>
</svg>
