<?xml version="1.0" encoding="utf-8" standalone="no"?>
<!DOCTYPE svg PUBLIC "-//W3C//DTD SVG 1.1//EN"
  "http://www.w3.org/Graphics/SVG/1.1/DTD/svg11.dtd">
<svg xmlns:xlink="http://www.w3.org/1999/xlink" width="460.8pt" height="345.6pt" viewBox="0 0 460.8 345.6" xmlns="http://www.w3.org/2000/svg" version="1.1">
 <metadata>
  <rdf:RDF xmlns:dc="http://purl.org/dc/elements/1.1/" xmlns:cc="http://creativecommons.org/ns#" xmlns:rdf="http://www.w3.org/1999/02/22-rdf-syntax-ns#">
   <cc:Work>
    <dc:type rdf:resource="http://purl.org/dc/dcmitype/StillImage"/>
    <dc:date>2022-06-16T13:18:30.113974</dc:date>
    <dc:format>image/svg+xml</dc:format>
    <dc:creator>
     <cc:Agent>
      <dc:title>Matplotlib v3.5.2, https://matplotlib.org/</dc:title>
     </cc:Agent>
    </dc:creator>
   </cc:Work>
  </rdf:RDF>
 </metadata>
 <defs>
  <style type="text/css">*{stroke-linejoin: round; stroke-linecap: butt}</style>
 </defs>
 <g id="figure_1">
  <g id="patch_1">
   <path d="M 0 345.6 
L 460.8 345.6 
L 460.8 0 
L 0 0 
z
" style="fill: #ffffff"/>
  </g>
  <g id="axes_1">
   <g id="patch_2">
    <path d="M 57.6 307.584 
L 414.72 307.584 
L 414.72 41.472 
L 57.6 41.472 
z
" style="fill: #ffffff"/>
   </g>
   <g id="PolyCollection_1">
    <path d="M 86.247685 295.488 
L 85.975602 295.488 
L 85.978281 293.298949 
L 85.986006 291.109899 
L 85.997897 288.920848 
L 86.012675 286.731797 
L 86.028878 284.542746 
L 86.045098 282.353696 
L 86.060163 280.164645 
L 86.073241 277.975594 
L 86.083857 275.786543 
L 86.091838 273.597493 
L 86.097203 271.408442 
L 86.100044 269.219391 
L 86.100417 267.030341 
L 86.098264 264.84129 
L 86.093378 262.652239 
L 86.085415 260.463188 
L 86.073933 258.274138 
L 86.058454 256.085087 
L 86.038525 253.896036 
L 86.013744 251.706985 
L 85.983731 249.517935 
L 85.948051 247.328884 
L 85.906068 245.139833 
L 85.856806 242.950783 
L 85.798843 240.761732 
L 85.730323 238.572681 
L 85.649142 236.38363 
L 85.55332 234.19458 
L 85.441539 232.005529 
L 85.313743 229.816478 
L 85.171672 227.627427 
L 85.019156 225.438377 
L 84.862036 223.249326 
L 84.707645 221.060275 
L 84.563867 218.871225 
L 84.437925 216.682174 
L 84.335109 214.493123 
L 84.257703 212.304072 
L 84.204337 210.115022 
L 84.169886 207.925971 
L 84.145941 205.73692 
L 84.12174 203.547869 
L 84.085378 201.358819 
L 84.025087 199.169768 
L 83.930375 196.980717 
L 83.792914 194.791666 
L 83.607118 192.602616 
L 83.370432 190.413565 
L 83.083406 188.224514 
L 82.749607 186.035464 
L 82.375413 183.846413 
L 81.969649 181.657362 
L 81.543039 179.468311 
L 81.107421 177.279261 
L 80.674756 175.09021 
L 80.256025 172.901159 
L 79.86019 170.712108 
L 79.493418 168.523058 
L 79.15868 166.334007 
L 78.855781 164.144956 
L 78.581717 161.955906 
L 78.331213 159.766855 
L 78.097291 157.577804 
L 77.871773 155.388753 
L 77.645742 153.199703 
L 77.410046 151.010652 
L 77.155978 148.821601 
L 76.876195 146.63255 
L 76.565867 144.4435 
L 76.223922 142.254449 
L 75.854158 140.065398 
L 75.465961 137.876348 
L 75.074369 135.687297 
L 74.699335 133.498246 
L 74.364169 131.309195 
L 74.093319 129.120145 
L 73.909809 126.931094 
L 73.832727 124.742043 
L 73.875201 122.552992 
L 74.043149 120.363942 
L 74.334985 118.174891 
L 74.742218 115.98584 
L 75.250754 113.79679 
L 75.84261 111.607739 
L 76.497738 109.418688 
L 77.19573 107.229637 
L 77.917245 105.040587 
L 78.645086 102.851536 
L 79.364899 100.662485 
L 80.065479 98.473434 
L 80.73871 96.284384 
L 81.379143 94.095333 
L 81.983335 91.906282 
L 82.549061 89.717232 
L 83.0746 87.528181 
L 83.558235 85.33913 
L 83.99809 83.150079 
L 84.392292 80.961029 
L 84.739366 78.771978 
L 87.483921 78.771978 
L 87.483921 78.771978 
L 87.830995 80.961029 
L 88.225197 83.150079 
L 88.665052 85.33913 
L 89.148687 87.528181 
L 89.674226 89.717232 
L 90.239952 91.906282 
L 90.844144 94.095333 
L 91.484577 96.284384 
L 92.157808 98.473434 
L 92.858388 100.662485 
L 93.578201 102.851536 
L 94.306042 105.040587 
L 95.027557 107.229637 
L 95.725549 109.418688 
L 96.380677 111.607739 
L 96.972533 113.79679 
L 97.481069 115.98584 
L 97.888302 118.174891 
L 98.180138 120.363942 
L 98.348086 122.552992 
L 98.39056 124.742043 
L 98.313478 126.931094 
L 98.129968 129.120145 
L 97.859118 131.309195 
L 97.523952 133.498246 
L 97.148918 135.687297 
L 96.757326 137.876348 
L 96.369129 140.065398 
L 95.999365 142.254449 
L 95.65742 144.4435 
L 95.347092 146.63255 
L 95.067309 148.821601 
L 94.813241 151.010652 
L 94.577545 153.199703 
L 94.351514 155.388753 
L 94.125996 157.577804 
L 93.892074 159.766855 
L 93.64157 161.955906 
L 93.367506 164.144956 
L 93.064607 166.334007 
L 92.729869 168.523058 
L 92.363097 170.712108 
L 91.967262 172.901159 
L 91.548531 175.09021 
L 91.115866 177.279261 
L 90.680249 179.468311 
L 90.253638 181.657362 
L 89.847874 183.846413 
L 89.47368 186.035464 
L 89.139881 188.224514 
L 88.852855 190.413565 
L 88.616169 192.602616 
L 88.430373 194.791666 
L 88.292912 196.980717 
L 88.1982 199.169768 
L 88.137909 201.358819 
L 88.101547 203.547869 
L 88.077346 205.73692 
L 88.053401 207.925971 
L 88.01895 210.115022 
L 87.965584 212.304072 
L 87.888178 214.493123 
L 87.785362 216.682174 
L 87.65942 218.871225 
L 87.515642 221.060275 
L 87.361251 223.249326 
L 87.204131 225.438377 
L 87.051615 227.627427 
L 86.909544 229.816478 
L 86.781748 232.005529 
L 86.669967 234.19458 
L 86.574145 236.38363 
L 86.492964 238.572681 
L 86.424444 240.761732 
L 86.366481 242.950783 
L 86.317219 245.139833 
L 86.275237 247.328884 
L 86.239556 249.517935 
L 86.209543 251.706985 
L 86.184762 253.896036 
L 86.164833 256.085087 
L 86.149355 258.274138 
L 86.137872 260.463188 
L 86.129909 262.652239 
L 86.125023 264.84129 
L 86.12287 267.030341 
L 86.123243 269.219391 
L 86.126084 271.408442 
L 86.131449 273.597493 
L 86.13943 275.786543 
L 86.150046 277.975594 
L 86.163124 280.164645 
L 86.178189 282.353696 
L 86.194409 284.542746 
L 86.210612 286.731797 
L 86.22539 288.920848 
L 86.237281 291.109899 
L 86.245006 293.298949 
L 86.247685 295.488 
z
" clip-path="url(#p3287eab99e)" style="fill: #1f77b4; fill-opacity: 0.3"/>
   </g>
   <g id="PolyCollection_2">
    <path d="M 113.683956 232.287116 
L 113.112292 232.287116 
L 113.099541 230.836749 
L 113.088748 229.386383 
L 113.078343 227.936016 
L 113.066376 226.485649 
L 113.050764 225.035283 
L 113.02957 223.584916 
L 113.001285 222.134549 
L 112.965061 220.684183 
L 112.920851 219.233816 
L 112.869437 217.78345 
L 112.812345 216.333083 
L 112.751645 214.882716 
L 112.689688 213.43235 
L 112.628809 211.981983 
L 112.571043 210.531616 
L 112.517896 209.08125 
L 112.470193 207.630883 
L 112.428004 206.180516 
L 112.390663 204.73015 
L 112.356843 203.279783 
L 112.324682 201.829416 
L 112.291931 200.37905 
L 112.256134 198.928683 
L 112.214799 197.478316 
L 112.165594 196.02795 
L 112.10653 194.577583 
L 112.036138 193.127216 
L 111.953608 191.67685 
L 111.858882 190.226483 
L 111.752667 188.776117 
L 111.636366 187.32575 
L 111.511924 185.875383 
L 111.381611 184.425017 
L 111.247758 182.97465 
L 111.112505 181.524283 
L 110.97757 180.073917 
L 110.844088 178.62355 
L 110.712516 177.173183 
L 110.582612 175.722817 
L 110.45347 174.27245 
L 110.323603 172.822083 
L 110.191035 171.371717 
L 110.053414 169.92135 
L 109.908121 168.470983 
L 109.75238 167.020617 
L 109.583384 165.57025 
L 109.398421 164.119883 
L 109.195025 162.669517 
L 108.971133 161.21915 
L 108.725253 159.768784 
L 108.456633 158.318417 
L 108.165423 156.86805 
L 107.852813 155.417684 
L 107.521131 153.967317 
L 107.173874 152.51695 
L 106.815638 151.066584 
L 106.451937 149.616217 
L 106.088861 148.16585 
L 105.732609 146.715484 
L 105.388914 145.265117 
L 105.062419 143.81475 
L 104.7561 142.364384 
L 104.470844 140.914017 
L 104.20526 139.46365 
L 103.955797 138.013284 
L 103.717205 136.562917 
L 103.483289 135.11255 
L 103.247893 133.662184 
L 103.005986 132.211817 
L 102.754698 130.761451 
L 102.494177 129.311084 
L 102.228117 127.860717 
L 101.963894 126.410351 
L 101.712279 124.959984 
L 101.486736 123.509617 
L 101.302418 122.059251 
L 101.17496 120.608884 
L 101.119208 119.158517 
L 101.148029 117.708151 
L 101.271301 116.257784 
L 101.495167 114.807417 
L 101.821577 113.357051 
L 102.248145 111.906684 
L 102.768264 110.456317 
L 103.371489 109.005951 
L 104.044106 107.555584 
L 104.769884 106.105217 
L 105.530948 104.654851 
L 106.308736 103.204484 
L 107.084984 101.754118 
L 107.842667 100.303751 
L 108.566835 98.853384 
L 109.245257 97.403018 
L 109.868837 95.952651 
L 110.431759 94.502284 
L 110.931367 93.051918 
L 111.367818 91.601551 
L 111.743569 90.151184 
L 112.062776 88.700818 
L 114.733472 88.700818 
L 114.733472 88.700818 
L 115.052679 90.151184 
L 115.42843 91.601551 
L 115.864881 93.051918 
L 116.364489 94.502284 
L 116.927411 95.952651 
L 117.550991 97.403018 
L 118.229413 98.853384 
L 118.953581 100.303751 
L 119.711264 101.754118 
L 120.487512 103.204484 
L 121.2653 104.654851 
L 122.026364 106.105217 
L 122.752142 107.555584 
L 123.424759 109.005951 
L 124.027984 110.456317 
L 124.548103 111.906684 
L 124.974671 113.357051 
L 125.301082 114.807417 
L 125.524947 116.257784 
L 125.648219 117.708151 
L 125.67704 119.158517 
L 125.621288 120.608884 
L 125.49383 122.059251 
L 125.309512 123.509617 
L 125.083969 124.959984 
L 124.832354 126.410351 
L 124.568132 127.860717 
L 124.302071 129.311084 
L 124.04155 130.761451 
L 123.790262 132.211817 
L 123.548355 133.662184 
L 123.312959 135.11255 
L 123.079043 136.562917 
L 122.840451 138.013284 
L 122.590989 139.46365 
L 122.325404 140.914017 
L 122.040148 142.364384 
L 121.73383 143.81475 
L 121.407334 145.265117 
L 121.063639 146.715484 
L 120.707388 148.16585 
L 120.344311 149.616217 
L 119.98061 151.066584 
L 119.622374 152.51695 
L 119.275117 153.967317 
L 118.943435 155.417684 
L 118.630825 156.86805 
L 118.339616 158.318417 
L 118.070995 159.768784 
L 117.825115 161.21915 
L 117.601223 162.669517 
L 117.397827 164.119883 
L 117.212864 165.57025 
L 117.043868 167.020617 
L 116.888127 168.470983 
L 116.742834 169.92135 
L 116.605213 171.371717 
L 116.472646 172.822083 
L 116.342778 174.27245 
L 116.213637 175.722817 
L 116.083732 177.173183 
L 115.95216 178.62355 
L 115.818678 180.073917 
L 115.683743 181.524283 
L 115.54849 182.97465 
L 115.414637 184.425017 
L 115.284324 185.875383 
L 115.159882 187.32575 
L 115.043581 188.776117 
L 114.937366 190.226483 
L 114.84264 191.67685 
L 114.76011 193.127216 
L 114.689718 194.577583 
L 114.630655 196.02795 
L 114.58145 197.478316 
L 114.540115 198.928683 
L 114.504317 200.37905 
L 114.471566 201.829416 
L 114.439405 203.279783 
L 114.405585 204.73015 
L 114.368244 206.180516 
L 114.326055 207.630883 
L 114.278352 209.08125 
L 114.225205 210.531616 
L 114.167439 211.981983 
L 114.10656 213.43235 
L 114.044603 214.882716 
L 113.983903 216.333083 
L 113.926811 217.78345 
L 113.875397 219.233816 
L 113.831187 220.684183 
L 113.794963 222.134549 
L 113.766678 223.584916 
L 113.745484 225.035283 
L 113.729872 226.485649 
L 113.717905 227.936016 
L 113.7075 229.386383 
L 113.696707 230.836749 
L 113.683956 232.287116 
z
" clip-path="url(#p3287eab99e)" style="fill: #1f77b4; fill-opacity: 0.3"/>
   </g>
   <g id="PolyCollection_3">
    <path d="M 140.803845 270.85684 
L 140.565364 270.85684 
L 140.567957 268.98795 
L 140.575404 267.11906 
L 140.586771 265.25017 
L 140.60072 263.38128 
L 140.615758 261.51239 
L 140.630494 259.6435 
L 140.643825 257.77461 
L 140.655023 255.90572 
L 140.663732 254.03683 
L 140.669871 252.16794 
L 140.673513 250.29905 
L 140.674752 248.43016 
L 140.673611 246.56127 
L 140.669995 244.69238 
L 140.66371 242.82349 
L 140.654522 240.9546 
L 140.642266 239.08571 
L 140.626951 237.21682 
L 140.608854 235.34793 
L 140.588541 233.47904 
L 140.566831 231.61015 
L 140.544672 229.74126 
L 140.522967 227.87237 
L 140.502393 226.00348 
L 140.483237 224.13459 
L 140.465307 222.2657 
L 140.447903 220.39681 
L 140.429869 218.52792 
L 140.409688 216.65903 
L 140.38562 214.79014 
L 140.355876 212.92125 
L 140.318816 211.05236 
L 140.273183 209.18347 
L 140.218333 207.31458 
L 140.154424 205.44569 
L 140.082506 203.5768 
L 140.004451 201.70791 
L 139.922689 199.83902 
L 139.839765 197.97013 
L 139.75778 196.10124 
L 139.677836 194.23235 
L 139.599633 192.36346 
L 139.521376 190.49457 
L 139.440056 188.62568 
L 139.352145 186.75679 
L 139.254555 184.8879 
L 139.145679 183.01901 
L 139.026219 181.15012 
L 138.899549 179.28123 
L 138.771422 177.41234 
L 138.649024 175.54345 
L 138.539496 173.67456 
L 138.44825 171.80567 
L 138.377453 169.93678 
L 138.325029 168.06789 
L 138.284436 166.198999 
L 138.245265 164.330109 
L 138.194556 162.461219 
L 138.11853 160.592329 
L 138.004404 158.723439 
L 137.841903 156.854549 
L 137.624215 154.985659 
L 137.348212 153.116769 
L 137.013978 151.247879 
L 136.623818 149.378989 
L 136.181083 147.510099 
L 135.689203 145.641209 
L 135.151278 143.772319 
L 134.57044 141.903429 
L 133.950935 140.034539 
L 133.299564 138.165649 
L 132.626974 136.296759 
L 131.948187 134.427869 
L 131.281995 132.558979 
L 130.649198 130.690089 
L 130.070148 128.821199 
L 129.562315 126.952309 
L 129.138699 125.083419 
L 128.807545 123.214529 
L 128.573363 121.345639 
L 128.438677 119.476749 
L 128.405688 117.607859 
L 128.477073 115.738969 
L 128.655592 113.870079 
L 128.942726 112.001189 
L 129.336986 110.132299 
L 129.83267 108.263409 
L 130.419579 106.394519 
L 131.083777 104.525629 
L 131.809009 102.656739 
L 132.57819 100.787849 
L 133.374479 98.918959 
L 134.181715 97.050069 
L 134.984364 95.181179 
L 135.767339 93.312289 
L 136.516035 91.443399 
L 137.216783 89.574509 
L 137.857662 87.705619 
L 138.429443 85.836729 
L 142.939767 85.836729 
L 142.939767 85.836729 
L 143.511547 87.705619 
L 144.152427 89.574509 
L 144.853175 91.443399 
L 145.60187 93.312289 
L 146.384845 95.181179 
L 147.187494 97.050069 
L 147.99473 98.918959 
L 148.791019 100.787849 
L 149.5602 102.656739 
L 150.285432 104.525629 
L 150.94963 106.394519 
L 151.53654 108.263409 
L 152.032223 110.132299 
L 152.426484 112.001189 
L 152.713618 113.870079 
L 152.892136 115.738969 
L 152.963521 117.607859 
L 152.930532 119.476749 
L 152.795847 121.345639 
L 152.561664 123.214529 
L 152.23051 125.083419 
L 151.806894 126.952309 
L 151.299061 128.821199 
L 150.720011 130.690089 
L 150.087214 132.558979 
L 149.421022 134.427869 
L 148.742235 136.296759 
L 148.069645 138.165649 
L 147.418274 140.034539 
L 146.798769 141.903429 
L 146.217932 143.772319 
L 145.680006 145.641209 
L 145.188126 147.510099 
L 144.745391 149.378989 
L 144.355231 151.247879 
L 144.020997 153.116769 
L 143.744994 154.985659 
L 143.527306 156.854549 
L 143.364805 158.723439 
L 143.250679 160.592329 
L 143.174653 162.461219 
L 143.123944 164.330109 
L 143.084774 166.198999 
L 143.04418 168.06789 
L 142.991756 169.93678 
L 142.920959 171.80567 
L 142.829713 173.67456 
L 142.720185 175.54345 
L 142.597787 177.41234 
L 142.469661 179.28123 
L 142.34299 181.15012 
L 142.22353 183.01901 
L 142.114654 184.8879 
L 142.017064 186.75679 
L 141.929153 188.62568 
L 141.847833 190.49457 
L 141.769576 192.36346 
L 141.691373 194.23235 
L 141.611429 196.10124 
L 141.529444 197.97013 
L 141.44652 199.83902 
L 141.364758 201.70791 
L 141.286703 203.5768 
L 141.214785 205.44569 
L 141.150876 207.31458 
L 141.096026 209.18347 
L 141.050393 211.05236 
L 141.013333 212.92125 
L 140.983589 214.79014 
L 140.959521 216.65903 
L 140.93934 218.52792 
L 140.921306 220.39681 
L 140.903902 222.2657 
L 140.885972 224.13459 
L 140.866816 226.00348 
L 140.846242 227.87237 
L 140.824537 229.74126 
L 140.802378 231.61015 
L 140.780668 233.47904 
L 140.760355 235.34793 
L 140.742258 237.21682 
L 140.726944 239.08571 
L 140.714687 240.9546 
L 140.705499 242.82349 
L 140.699214 244.69238 
L 140.695599 246.56127 
L 140.694457 248.43016 
L 140.695696 250.29905 
L 140.699338 252.16794 
L 140.705477 254.03683 
L 140.714186 255.90572 
L 140.725384 257.77461 
L 140.738715 259.6435 
L 140.753451 261.51239 
L 140.76849 263.38128 
L 140.782438 265.25017 
L 140.793806 267.11906 
L 140.801252 268.98795 
L 140.803845 270.85684 
z
" clip-path="url(#p3287eab99e)" style="fill: #1f77b4; fill-opacity: 0.3"/>
   </g>
   <g id="PolyCollection_4">
    <path d="M 168.363224 169.65905 
L 167.578946 169.65905 
L 167.55343 168.685067 
L 167.537157 167.711084 
L 167.530875 166.737101 
L 167.53437 165.763118 
L 167.546404 164.789135 
L 167.564751 163.815152 
L 167.586356 162.841169 
L 167.607578 161.867186 
L 167.624511 160.893203 
L 167.63334 159.91922 
L 167.630699 158.945238 
L 167.613995 157.971255 
L 167.581651 156.997272 
L 167.533238 156.023289 
L 167.469476 155.049306 
L 167.392071 154.075323 
L 167.303431 153.10134 
L 167.206264 152.127357 
L 167.103128 151.153374 
L 166.996002 150.179391 
L 166.885931 149.205408 
L 166.772819 148.231425 
L 166.655379 147.257442 
L 166.531245 146.28346 
L 166.397212 145.309477 
L 166.249555 144.335494 
L 166.084369 143.361511 
L 165.897883 142.387528 
L 165.686724 141.413545 
L 165.448118 140.439562 
L 165.180039 139.465579 
L 164.88132 138.491596 
L 164.551757 137.517613 
L 164.192204 136.54363 
L 163.804678 135.569647 
L 163.392449 134.595664 
L 162.960088 133.621682 
L 162.51345 132.647699 
L 162.059518 131.673716 
L 161.606113 130.699733 
L 161.161409 129.72575 
L 160.733319 128.751767 
L 160.328767 127.777784 
L 159.952961 126.803801 
L 159.608773 125.829818 
L 159.296342 124.855835 
L 159.012989 123.881852 
L 158.75351 122.907869 
L 158.510822 121.933886 
L 158.276921 120.959904 
L 158.04402 119.985921 
L 157.805726 119.011938 
L 157.558099 118.037955 
L 157.300423 117.063972 
L 157.035572 116.089989 
L 156.769891 115.116006 
L 156.512565 114.142023 
L 156.274523 113.16804 
L 156.066998 112.194057 
L 155.899934 111.220074 
L 155.780458 110.246091 
L 155.711701 109.272108 
L 155.692169 108.298126 
L 155.715854 107.324143 
L 155.773125 106.35016 
L 155.852322 105.376177 
L 155.941816 104.402194 
L 156.03223 103.428211 
L 156.118399 102.454228 
L 156.20073 101.480245 
L 156.285662 100.506262 
L 156.385123 99.532279 
L 156.515014 98.558296 
L 156.692986 97.584313 
L 156.935836 96.61033 
L 157.256981 95.636348 
L 157.664383 94.662365 
L 158.15925 93.688382 
L 158.735654 92.714399 
L 159.381088 91.740416 
L 160.077784 90.766433 
L 160.804562 89.79245 
L 161.538907 88.818467 
L 162.258988 87.844484 
L 162.945391 86.870501 
L 163.582415 85.896518 
L 164.158855 84.922535 
L 164.668288 83.948552 
L 165.1089 82.97457 
L 165.48296 82.000587 
L 165.796029 81.026604 
L 166.056012 80.052621 
L 166.272155 79.078638 
L 166.454066 78.104655 
L 166.610842 77.130672 
L 166.750368 76.156689 
L 166.878839 75.182706 
L 167.00052 74.208723 
L 167.11776 73.23474 
L 168.82441 73.23474 
L 168.82441 73.23474 
L 168.94165 74.208723 
L 169.063331 75.182706 
L 169.191802 76.156689 
L 169.331328 77.130672 
L 169.488104 78.104655 
L 169.670015 79.078638 
L 169.886158 80.052621 
L 170.146142 81.026604 
L 170.45921 82.000587 
L 170.83327 82.97457 
L 171.273882 83.948552 
L 171.783315 84.922535 
L 172.359756 85.896518 
L 172.996779 86.870501 
L 173.683182 87.844484 
L 174.403263 88.818467 
L 175.137608 89.79245 
L 175.864386 90.766433 
L 176.561082 91.740416 
L 177.206516 92.714399 
L 177.782921 93.688382 
L 178.277787 94.662365 
L 178.68519 95.636348 
L 179.006335 96.61033 
L 179.249185 97.584313 
L 179.427156 98.558296 
L 179.557048 99.532279 
L 179.656508 100.506262 
L 179.741441 101.480245 
L 179.823771 102.454228 
L 179.90994 103.428211 
L 180.000354 104.402194 
L 180.089849 105.376177 
L 180.169045 106.35016 
L 180.226317 107.324143 
L 180.250001 108.298126 
L 180.230469 109.272108 
L 180.161712 110.246091 
L 180.042237 111.220074 
L 179.875172 112.194057 
L 179.667648 113.16804 
L 179.429605 114.142023 
L 179.172279 115.116006 
L 178.906598 116.089989 
L 178.641747 117.063972 
L 178.384071 118.037955 
L 178.136444 119.011938 
L 177.898151 119.985921 
L 177.665249 120.959904 
L 177.431348 121.933886 
L 177.18866 122.907869 
L 176.929181 123.881852 
L 176.645828 124.855835 
L 176.333397 125.829818 
L 175.989209 126.803801 
L 175.613403 127.777784 
L 175.208851 128.751767 
L 174.780761 129.72575 
L 174.336058 130.699733 
L 173.882652 131.673716 
L 173.428721 132.647699 
L 172.982082 133.621682 
L 172.549722 134.595664 
L 172.137492 135.569647 
L 171.749966 136.54363 
L 171.390413 137.517613 
L 171.06085 138.491596 
L 170.762131 139.465579 
L 170.494052 140.439562 
L 170.255446 141.413545 
L 170.044287 142.387528 
L 169.857801 143.361511 
L 169.692615 144.335494 
L 169.544958 145.309477 
L 169.410925 146.28346 
L 169.286791 147.257442 
L 169.169351 148.231425 
L 169.05624 149.205408 
L 168.946169 150.179391 
L 168.839042 151.153374 
L 168.735906 152.127357 
L 168.638739 153.10134 
L 168.550099 154.075323 
L 168.472695 155.049306 
L 168.408932 156.023289 
L 168.36052 156.997272 
L 168.328175 157.971255 
L 168.311471 158.945238 
L 168.30883 159.91922 
L 168.317659 160.893203 
L 168.334593 161.867186 
L 168.355815 162.841169 
L 168.377419 163.815152 
L 168.395766 164.789135 
L 168.4078 165.763118 
L 168.411295 166.737101 
L 168.405013 167.711084 
L 168.38874 168.685067 
L 168.363224 169.65905 
z
" clip-path="url(#p3287eab99e)" style="fill: #1f77b4; fill-opacity: 0.3"/>
   </g>
   <g id="PolyCollection_5">
    <path d="M 195.576584 170.613746 
L 194.938547 170.613746 
L 194.885367 169.485469 
L 194.825276 168.357191 
L 194.757509 167.228914 
L 194.681453 166.100637 
L 194.596705 164.97236 
L 194.503071 163.844082 
L 194.400529 162.715805 
L 194.289151 161.587528 
L 194.169058 160.459251 
L 194.040421 159.330973 
L 193.903548 158.202696 
L 193.759064 157.074419 
L 193.608124 155.946142 
L 193.45262 154.817864 
L 193.295267 153.689587 
L 193.139517 152.56131 
L 192.989229 151.433033 
L 192.848125 150.304755 
L 192.719099 149.176478 
L 192.603498 148.048201 
L 192.50055 146.919924 
L 192.407066 145.791646 
L 192.317532 144.663369 
L 192.22461 143.535092 
L 192.119984 142.406815 
L 191.99542 141.278537 
L 191.84385 140.15026 
L 191.660288 139.021983 
L 191.442418 137.893706 
L 191.190761 136.765428 
L 190.908397 135.637151 
L 190.600307 134.508874 
L 190.272461 133.380597 
L 189.930814 132.252319 
L 189.580384 131.124042 
L 189.22457 129.995765 
L 188.864843 128.867488 
L 188.500843 127.73921 
L 188.130899 126.610933 
L 187.75287 125.482656 
L 187.365174 124.354379 
L 186.967801 123.226101 
L 186.563109 122.097824 
L 186.156229 120.969547 
L 185.754934 119.84127 
L 185.36896 118.712992 
L 185.00883 117.584715 
L 184.684368 116.456438 
L 184.403147 115.328161 
L 184.169173 114.199883 
L 183.982058 113.071606 
L 183.836894 111.943329 
L 183.724906 110.815052 
L 183.634821 109.686774 
L 183.554752 108.558497 
L 183.47432 107.43022 
L 183.386661 106.301943 
L 183.28998 105.173665 
L 183.188416 104.045388 
L 183.092033 102.917111 
L 183.015943 101.788834 
L 182.978649 100.660557 
L 182.999848 99.532279 
L 183.097971 98.404002 
L 183.287819 97.275725 
L 183.578612 96.147448 
L 183.97271 95.01917 
L 184.465175 93.890893 
L 185.044217 92.762616 
L 185.692409 91.634339 
L 186.388493 90.506061 
L 187.109464 89.377784 
L 187.832666 88.249507 
L 188.537619 87.12123 
L 189.20739 85.992952 
L 189.829423 84.864675 
L 190.395807 83.736398 
L 190.903086 82.608121 
L 191.351692 81.479843 
L 191.745167 80.351566 
L 192.089267 79.223289 
L 192.391077 78.095012 
L 192.658173 76.966734 
L 192.897914 75.838457 
L 193.116858 74.71018 
L 193.320349 73.581903 
L 193.512266 72.453625 
L 193.694946 71.325348 
L 193.869276 70.197071 
L 194.034942 69.068794 
L 194.190784 67.940516 
L 194.335227 66.812239 
L 194.466708 65.683962 
L 194.584055 64.555685 
L 194.68674 63.427407 
L 194.774997 62.29913 
L 194.849787 61.170853 
L 194.912633 60.042576 
L 194.96539 58.914298 
L 195.549742 58.914298 
L 195.549742 58.914298 
L 195.602498 60.042576 
L 195.665345 61.170853 
L 195.740134 62.29913 
L 195.828391 63.427407 
L 195.931077 64.555685 
L 196.048423 65.683962 
L 196.179905 66.812239 
L 196.324347 67.940516 
L 196.480189 69.068794 
L 196.645855 70.197071 
L 196.820186 71.325348 
L 197.002865 72.453625 
L 197.194782 73.581903 
L 197.398274 74.71018 
L 197.617217 75.838457 
L 197.856958 76.966734 
L 198.124054 78.095012 
L 198.425864 79.223289 
L 198.769965 80.351566 
L 199.163439 81.479843 
L 199.612046 82.608121 
L 200.119324 83.736398 
L 200.685709 84.864675 
L 201.307741 85.992952 
L 201.977513 87.12123 
L 202.682466 88.249507 
L 203.405668 89.377784 
L 204.126638 90.506061 
L 204.822722 91.634339 
L 205.470915 92.762616 
L 206.049956 93.890893 
L 206.542422 95.01917 
L 206.936519 96.147448 
L 207.227313 97.275725 
L 207.417161 98.404002 
L 207.515283 99.532279 
L 207.536482 100.660557 
L 207.499189 101.788834 
L 207.423098 102.917111 
L 207.326716 104.045388 
L 207.225151 105.173665 
L 207.128471 106.301943 
L 207.040811 107.43022 
L 206.960379 108.558497 
L 206.88031 109.686774 
L 206.790225 110.815052 
L 206.678238 111.943329 
L 206.533074 113.071606 
L 206.345958 114.199883 
L 206.111984 115.328161 
L 205.830764 116.456438 
L 205.506301 117.584715 
L 205.146171 118.712992 
L 204.760197 119.84127 
L 204.358902 120.969547 
L 203.952022 122.097824 
L 203.54733 123.226101 
L 203.149957 124.354379 
L 202.762261 125.482656 
L 202.384233 126.610933 
L 202.014288 127.73921 
L 201.650288 128.867488 
L 201.290561 129.995765 
L 200.934748 131.124042 
L 200.584317 132.252319 
L 200.24267 133.380597 
L 199.914825 134.508874 
L 199.606735 135.637151 
L 199.324371 136.765428 
L 199.072714 137.893706 
L 198.854844 139.021983 
L 198.671281 140.15026 
L 198.519711 141.278537 
L 198.395147 142.406815 
L 198.290521 143.535092 
L 198.197599 144.663369 
L 198.108066 145.791646 
L 198.014581 146.919924 
L 197.911633 148.048201 
L 197.796032 149.176478 
L 197.667006 150.304755 
L 197.525903 151.433033 
L 197.375615 152.56131 
L 197.219864 153.689587 
L 197.062512 154.817864 
L 196.907007 155.946142 
L 196.756067 157.074419 
L 196.611583 158.202696 
L 196.474711 159.330973 
L 196.346073 160.459251 
L 196.22598 161.587528 
L 196.114603 162.715805 
L 196.01206 163.844082 
L 195.918427 164.97236 
L 195.833678 166.100637 
L 195.757622 167.228914 
L 195.689855 168.357191 
L 195.629764 169.485469 
L 195.576584 170.613746 
z
" clip-path="url(#p3287eab99e)" style="fill: #1f77b4; fill-opacity: 0.3"/>
   </g>
   <g id="PolyCollection_6">
    <path d="M 222.804652 150.756066 
L 222.28344 150.756066 
L 222.245395 149.8168 
L 222.199208 148.877533 
L 222.142585 147.938266 
L 222.073172 146.998999 
L 221.988765 146.059733 
L 221.887526 145.120466 
L 221.768206 144.181199 
L 221.630314 143.241933 
L 221.474237 142.302666 
L 221.30129 141.363399 
L 221.113678 140.424133 
L 220.914389 139.484866 
L 220.707025 138.545599 
L 220.495581 137.606332 
L 220.284202 136.667066 
L 220.07692 135.727799 
L 219.877397 134.788532 
L 219.68868 133.849266 
L 219.512964 132.909999 
L 219.3514 131.970732 
L 219.203931 131.031466 
L 219.069201 130.092199 
L 218.944544 129.152932 
L 218.826084 128.213665 
L 218.708954 127.274399 
L 218.587643 126.335132 
L 218.456453 125.395865 
L 218.310016 124.456599 
L 218.143834 123.517332 
L 217.954753 122.578065 
L 217.741313 121.638799 
L 217.503915 120.699532 
L 217.244764 119.760265 
L 216.967596 118.820998 
L 216.677221 117.881732 
L 216.378942 116.942465 
L 216.077942 116.003198 
L 215.778724 115.063932 
L 215.484682 114.124665 
L 215.19787 113.185398 
L 214.918963 112.246132 
L 214.647421 111.306865 
L 214.381787 110.367598 
L 214.120068 109.428331 
L 213.860122 108.489065 
L 213.599998 107.549798 
L 213.338191 106.610531 
L 213.073811 105.671265 
L 212.80667 104.731998 
L 212.537312 103.792731 
L 212.267028 102.853465 
L 211.997863 101.914198 
L 211.732624 100.974931 
L 211.474876 100.035664 
L 211.228903 99.096398 
L 210.999609 98.157131 
L 210.792334 97.217864 
L 210.612587 96.278598 
L 210.46571 95.339331 
L 210.35649 94.400064 
L 210.288775 93.460798 
L 210.26513 92.521531 
L 210.286565 91.582264 
L 210.352375 90.642997 
L 210.460106 89.703731 
L 210.605645 88.764464 
L 210.783443 87.825197 
L 210.986858 86.885931 
L 211.208593 85.946664 
L 211.441221 85.007397 
L 211.677741 84.068131 
L 211.912154 83.128864 
L 212.139988 82.189597 
L 212.358719 81.25033 
L 212.568058 80.311064 
L 212.770028 79.371797 
L 212.968835 78.43253 
L 213.1705 77.493264 
L 213.382297 76.553997 
L 213.612021 75.61473 
L 213.867172 74.675464 
L 214.15413 73.736197 
L 214.477424 72.79693 
L 214.839164 71.857663 
L 215.23873 70.918397 
L 215.672724 69.97913 
L 216.135228 69.039863 
L 216.618303 68.100597 
L 217.112687 67.16133 
L 217.608586 66.222063 
L 218.096475 65.282797 
L 218.567802 64.34353 
L 219.015521 63.404263 
L 219.434411 62.464996 
L 219.821163 61.52573 
L 220.174264 60.586463 
L 220.493715 59.647196 
L 220.780655 58.70793 
L 221.036958 57.768663 
L 224.051134 57.768663 
L 224.051134 57.768663 
L 224.307437 58.70793 
L 224.594377 59.647196 
L 224.913828 60.586463 
L 225.266929 61.52573 
L 225.653682 62.464996 
L 226.072571 63.404263 
L 226.52029 64.34353 
L 226.991617 65.282797 
L 227.479507 66.222063 
L 227.975406 67.16133 
L 228.469789 68.100597 
L 228.952865 69.039863 
L 229.415369 69.97913 
L 229.849363 70.918397 
L 230.248928 71.857663 
L 230.610669 72.79693 
L 230.933962 73.736197 
L 231.220921 74.675464 
L 231.476071 75.61473 
L 231.705796 76.553997 
L 231.917593 77.493264 
L 232.119258 78.43253 
L 232.318064 79.371797 
L 232.520034 80.311064 
L 232.729373 81.25033 
L 232.948105 82.189597 
L 233.175938 83.128864 
L 233.410352 84.068131 
L 233.646872 85.007397 
L 233.879499 85.946664 
L 234.101235 86.885931 
L 234.30465 87.825197 
L 234.482448 88.764464 
L 234.627986 89.703731 
L 234.735717 90.642997 
L 234.801528 91.582264 
L 234.822962 92.521531 
L 234.799317 93.460798 
L 234.731602 94.400064 
L 234.622382 95.339331 
L 234.475505 96.278598 
L 234.295759 97.217864 
L 234.088483 98.157131 
L 233.859189 99.096398 
L 233.613217 100.035664 
L 233.355469 100.974931 
L 233.09023 101.914198 
L 232.821065 102.853465 
L 232.550781 103.792731 
L 232.281422 104.731998 
L 232.014281 105.671265 
L 231.749902 106.610531 
L 231.488095 107.549798 
L 231.22797 108.489065 
L 230.968024 109.428331 
L 230.706306 110.367598 
L 230.440672 111.306865 
L 230.169129 112.246132 
L 229.890222 113.185398 
L 229.60341 114.124665 
L 229.309369 115.063932 
L 229.01015 116.003198 
L 228.709151 116.942465 
L 228.410872 117.881732 
L 228.120497 118.820998 
L 227.843329 119.760265 
L 227.584177 120.699532 
L 227.346779 121.638799 
L 227.133339 122.578065 
L 226.944258 123.517332 
L 226.778076 124.456599 
L 226.631639 125.395865 
L 226.500449 126.335132 
L 226.379139 127.274399 
L 226.262009 128.213665 
L 226.143548 129.152932 
L 226.018891 130.092199 
L 225.884161 131.031466 
L 225.736692 131.970732 
L 225.575128 132.909999 
L 225.399413 133.849266 
L 225.210695 134.788532 
L 225.011173 135.727799 
L 224.803891 136.667066 
L 224.592511 137.606332 
L 224.381068 138.545599 
L 224.173703 139.484866 
L 223.974415 140.424133 
L 223.786802 141.363399 
L 223.613855 142.302666 
L 223.457779 143.241933 
L 223.319886 144.181199 
L 223.200566 145.120466 
L 223.099328 146.059733 
L 223.01492 146.998999 
L 222.945508 147.938266 
L 222.888885 148.877533 
L 222.842698 149.8168 
L 222.804652 150.756066 
z
" clip-path="url(#p3287eab99e)" style="fill: #1f77b4; fill-opacity: 0.3"/>
   </g>
   <g id="PolyCollection_7">
    <path d="M 250.369335 151.519823 
L 249.291719 151.519823 
L 249.252145 150.570913 
L 249.213293 149.622003 
L 249.173525 148.673093 
L 249.130573 147.724183 
L 249.081655 146.775273 
L 249.023643 145.826363 
L 248.95329 144.877453 
L 248.867475 143.928542 
L 248.763441 142.979632 
L 248.63902 142.030722 
L 248.492791 141.081812 
L 248.324182 140.132902 
L 248.133472 139.183992 
L 247.921724 138.235082 
L 247.690629 137.286172 
L 247.442296 136.337262 
L 247.179006 135.388352 
L 246.902969 134.439441 
L 246.61611 133.490531 
L 246.319917 132.541621 
L 246.015373 131.592711 
L 245.70298 130.643801 
L 245.382879 129.694891 
L 245.055046 128.745981 
L 244.719537 127.797071 
L 244.376751 126.848161 
L 244.027677 125.899251 
L 243.674074 124.950341 
L 243.318566 124.00143 
L 242.964626 123.05252 
L 242.616432 122.10361 
L 242.278626 121.1547 
L 241.95598 120.20579 
L 241.653012 119.25688 
L 241.373607 118.30797 
L 241.120686 117.35906 
L 240.895957 116.41015 
L 240.699789 115.46124 
L 240.531217 114.512329 
L 240.388058 113.563419 
L 240.267134 112.614509 
L 240.16455 111.665599 
L 240.07599 110.716689 
L 239.997 109.767779 
L 239.923222 108.818869 
L 239.850575 107.869959 
L 239.775374 106.921049 
L 239.694407 105.972139 
L 239.604984 105.023229 
L 239.504979 104.074318 
L 239.392892 103.125408 
L 239.267919 102.176498 
L 239.130045 101.227588 
L 238.980141 100.278678 
L 238.820037 99.329768 
L 238.652546 98.380858 
L 238.481424 97.431948 
L 238.311225 96.483038 
L 238.147063 95.534128 
L 237.994292 94.585217 
L 237.858111 93.636307 
L 237.743169 92.687397 
L 237.65319 91.738487 
L 237.5907 90.789577 
L 237.556884 89.840667 
L 237.551611 88.891757 
L 237.573634 87.942847 
L 237.620935 86.993937 
L 237.691181 86.045027 
L 237.782211 85.096117 
L 237.892499 84.147206 
L 238.021509 83.198296 
L 238.169893 82.249386 
L 238.339508 81.300476 
L 238.533232 80.351566 
L 238.754633 79.402656 
L 239.007515 78.453746 
L 239.295413 77.504836 
L 239.621108 76.555926 
L 239.986211 75.607016 
L 240.390858 74.658105 
L 240.833543 73.709195 
L 241.311091 72.760285 
L 241.818761 71.811375 
L 242.35046 70.862465 
L 242.89904 69.913555 
L 243.456651 68.964645 
L 244.01513 68.015735 
L 244.566393 67.066825 
L 245.102819 66.117915 
L 245.617589 65.169005 
L 246.104958 64.220094 
L 246.560457 63.271184 
L 246.980986 62.322274 
L 247.36481 61.373364 
L 247.711465 60.424454 
L 248.021577 59.475544 
L 248.296638 58.526634 
L 248.538755 57.577724 
L 251.122299 57.577724 
L 251.122299 57.577724 
L 251.364415 58.526634 
L 251.639476 59.475544 
L 251.949589 60.424454 
L 252.296243 61.373364 
L 252.680068 62.322274 
L 253.100596 63.271184 
L 253.556095 64.220094 
L 254.043465 65.169005 
L 254.558234 66.117915 
L 255.094661 67.066825 
L 255.645924 68.015735 
L 256.204402 68.964645 
L 256.762013 69.913555 
L 257.310593 70.862465 
L 257.842293 71.811375 
L 258.349963 72.760285 
L 258.82751 73.709195 
L 259.270195 74.658105 
L 259.674842 75.607016 
L 260.039946 76.555926 
L 260.365641 77.504836 
L 260.653539 78.453746 
L 260.90642 79.402656 
L 261.127822 80.351566 
L 261.321546 81.300476 
L 261.49116 82.249386 
L 261.639545 83.198296 
L 261.768554 84.147206 
L 261.878842 85.096117 
L 261.969872 86.045027 
L 262.040118 86.993937 
L 262.08742 87.942847 
L 262.109443 88.891757 
L 262.10417 89.840667 
L 262.070353 90.789577 
L 262.007863 91.738487 
L 261.917884 92.687397 
L 261.802942 93.636307 
L 261.666762 94.585217 
L 261.51399 95.534128 
L 261.349829 96.483038 
L 261.179629 97.431948 
L 261.008507 98.380858 
L 260.841017 99.329768 
L 260.680912 100.278678 
L 260.531009 101.227588 
L 260.393135 102.176498 
L 260.268161 103.125408 
L 260.156074 104.074318 
L 260.05607 105.023229 
L 259.966646 105.972139 
L 259.885679 106.921049 
L 259.810479 107.869959 
L 259.737832 108.818869 
L 259.664054 109.767779 
L 259.585063 110.716689 
L 259.496503 111.665599 
L 259.393919 112.614509 
L 259.272995 113.563419 
L 259.129836 114.512329 
L 258.961264 115.46124 
L 258.765097 116.41015 
L 258.540367 117.35906 
L 258.287446 118.30797 
L 258.008042 119.25688 
L 257.705073 120.20579 
L 257.382427 121.1547 
L 257.044622 122.10361 
L 256.696428 123.05252 
L 256.342487 124.00143 
L 255.98698 124.950341 
L 255.633376 125.899251 
L 255.284302 126.848161 
L 254.941517 127.797071 
L 254.606007 128.745981 
L 254.278174 129.694891 
L 253.958074 130.643801 
L 253.645681 131.592711 
L 253.341136 132.541621 
L 253.044944 133.490531 
L 252.758085 134.439441 
L 252.482048 135.388352 
L 252.218758 136.337262 
L 251.970424 137.286172 
L 251.739329 138.235082 
L 251.527581 139.183992 
L 251.336872 140.132902 
L 251.168262 141.081812 
L 251.022034 142.030722 
L 250.897613 142.979632 
L 250.793579 143.928542 
L 250.707763 144.877453 
L 250.637411 145.826363 
L 250.579399 146.775273 
L 250.53048 147.724183 
L 250.487529 148.673093 
L 250.447761 149.622003 
L 250.408909 150.570913 
L 250.369335 151.519823 
z
" clip-path="url(#p3287eab99e)" style="fill: #1f77b4; fill-opacity: 0.3"/>
   </g>
   <g id="PolyCollection_8">
    <path d="M 277.411101 165.076508 
L 276.822914 165.076508 
L 276.80401 164.054308 
L 276.788406 163.032108 
L 276.775354 162.009909 
L 276.763545 160.987709 
L 276.751221 159.965509 
L 276.736346 158.943309 
L 276.716811 157.921109 
L 276.69065 156.898909 
L 276.656228 155.876709 
L 276.612368 154.854509 
L 276.558429 153.832309 
L 276.494299 152.810109 
L 276.420334 151.78791 
L 276.337246 150.76571 
L 276.245967 149.74351 
L 276.147502 148.72131 
L 276.042782 147.69911 
L 275.932538 146.67691 
L 275.817193 145.65471 
L 275.696782 144.63251 
L 275.570898 143.61031 
L 275.43867 142.58811 
L 275.298773 141.565911 
L 275.149487 140.543711 
L 274.988794 139.521511 
L 274.814534 138.499311 
L 274.624599 137.477111 
L 274.417171 136.454911 
L 274.190977 135.432711 
L 273.945528 134.410511 
L 273.681323 133.388311 
L 273.399967 132.366112 
L 273.104182 131.343912 
L 272.797703 130.321712 
L 272.485025 129.299512 
L 272.171041 128.277312 
L 271.860582 127.255112 
L 271.557894 126.232912 
L 271.266104 125.210712 
L 270.98674 124.188512 
L 270.719353 123.166312 
L 270.461322 122.144113 
L 270.207887 121.121913 
L 269.952473 120.099713 
L 269.687291 119.077513 
L 269.404228 118.055313 
L 269.095913 117.033113 
L 268.756882 116.010913 
L 268.384665 114.988713 
L 267.980638 113.966513 
L 267.550509 112.944313 
L 267.104314 111.922114 
L 266.655903 110.899914 
L 266.221946 109.877714 
L 265.820551 108.855514 
L 265.469675 107.833314 
L 265.185474 106.811114 
L 264.980805 105.788914 
L 264.864004 104.766714 
L 264.838091 103.744514 
L 264.90044 102.722314 
L 265.042981 101.700115 
L 265.252893 100.677915 
L 265.513758 99.655715 
L 265.80708 98.633515 
L 266.114032 97.611315 
L 266.417286 96.589115 
L 266.702712 95.566915 
L 266.960748 94.544715 
L 267.18727 93.522515 
L 267.383805 92.500315 
L 267.557059 91.478116 
L 267.717807 90.455916 
L 267.879302 89.433716 
L 268.055444 88.411516 
L 268.258976 87.389316 
L 268.499971 86.367116 
L 268.784797 85.344916 
L 269.115643 84.322716 
L 269.490603 83.300516 
L 269.904213 82.278316 
L 270.348277 81.256117 
L 270.812843 80.233917 
L 271.287175 79.211717 
L 271.760633 78.189517 
L 272.223421 77.167317 
L 272.667179 76.145117 
L 273.08541 75.122917 
L 273.473757 74.100717 
L 273.830083 73.078517 
L 274.154378 72.056317 
L 274.448465 71.034118 
L 274.715534 70.011918 
L 274.959569 68.989718 
L 275.18472 67.967518 
L 275.394729 66.945318 
L 275.59249 65.923118 
L 275.779783 64.900918 
L 275.957237 63.878718 
L 278.276778 63.878718 
L 278.276778 63.878718 
L 278.454232 64.900918 
L 278.641525 65.923118 
L 278.839285 66.945318 
L 279.049295 67.967518 
L 279.274446 68.989718 
L 279.518481 70.011918 
L 279.78555 71.034118 
L 280.079636 72.056317 
L 280.403932 73.078517 
L 280.760258 74.100717 
L 281.148604 75.122917 
L 281.566836 76.145117 
L 282.010593 77.167317 
L 282.473381 78.189517 
L 282.946839 79.211717 
L 283.421171 80.233917 
L 283.885738 81.256117 
L 284.329802 82.278316 
L 284.743411 83.300516 
L 285.118372 84.322716 
L 285.449218 85.344916 
L 285.734044 86.367116 
L 285.975039 87.389316 
L 286.17857 88.411516 
L 286.354712 89.433716 
L 286.516208 90.455916 
L 286.676956 91.478116 
L 286.85021 92.500315 
L 287.046744 93.522515 
L 287.273266 94.544715 
L 287.531303 95.566915 
L 287.816728 96.589115 
L 288.119983 97.611315 
L 288.426935 98.633515 
L 288.720256 99.655715 
L 288.981122 100.677915 
L 289.191034 101.700115 
L 289.333574 102.722314 
L 289.395924 103.744514 
L 289.37001 104.766714 
L 289.25321 105.788914 
L 289.04854 106.811114 
L 288.76434 107.833314 
L 288.413463 108.855514 
L 288.012069 109.877714 
L 287.578111 110.899914 
L 287.129701 111.922114 
L 286.683506 112.944313 
L 286.253377 113.966513 
L 285.84935 114.988713 
L 285.477133 116.010913 
L 285.138102 117.033113 
L 284.829787 118.055313 
L 284.546723 119.077513 
L 284.281542 120.099713 
L 284.026127 121.121913 
L 283.772693 122.144113 
L 283.514661 123.166312 
L 283.247274 124.188512 
L 282.96791 125.210712 
L 282.676121 126.232912 
L 282.373432 127.255112 
L 282.062974 128.277312 
L 281.74899 129.299512 
L 281.436311 130.321712 
L 281.129832 131.343912 
L 280.834048 132.366112 
L 280.552691 133.388311 
L 280.288486 134.410511 
L 280.043038 135.432711 
L 279.816843 136.454911 
L 279.609416 137.477111 
L 279.419481 138.499311 
L 279.245221 139.521511 
L 279.084528 140.543711 
L 278.935242 141.565911 
L 278.795345 142.58811 
L 278.663116 143.61031 
L 278.537233 144.63251 
L 278.416822 145.65471 
L 278.301477 146.67691 
L 278.191232 147.69911 
L 278.086512 148.72131 
L 277.988047 149.74351 
L 277.896769 150.76571 
L 277.813681 151.78791 
L 277.739715 152.810109 
L 277.675586 153.832309 
L 277.621647 154.854509 
L 277.577787 155.876709 
L 277.543364 156.898909 
L 277.517204 157.921109 
L 277.497669 158.943309 
L 277.482794 159.965509 
L 277.47047 160.987709 
L 277.458661 162.009909 
L 277.445608 163.032108 
L 277.430005 164.054308 
L 277.411101 165.076508 
z
" clip-path="url(#p3287eab99e)" style="fill: #1f77b4; fill-opacity: 0.3"/>
   </g>
   <g id="PolyCollection_9">
    <path d="M 304.943743 157.629878 
L 303.863232 157.629878 
L 303.77713 156.626965 
L 303.680987 155.624052 
L 303.574108 154.621139 
L 303.456111 153.618226 
L 303.327081 152.615313 
L 303.187709 151.6124 
L 303.039382 150.609487 
L 302.884198 149.606574 
L 302.724888 148.60366 
L 302.564659 147.600747 
L 302.40695 146.597834 
L 302.255145 145.594921 
L 302.112247 144.592008 
L 301.980578 143.589095 
L 301.861517 142.586182 
L 301.755301 141.583269 
L 301.660923 140.580356 
L 301.576102 139.577442 
L 301.497356 138.574529 
L 301.42014 137.571616 
L 301.339055 136.568703 
L 301.248109 135.56579 
L 301.141028 134.562877 
L 301.011608 133.559964 
L 300.854088 132.557051 
L 300.663553 131.554138 
L 300.436316 130.551225 
L 300.170268 129.548311 
L 299.865144 128.545398 
L 299.52266 127.542485 
L 299.146497 126.539572 
L 298.742094 125.536659 
L 298.316268 124.533746 
L 297.876687 123.530833 
L 297.431246 122.52792 
L 296.987439 121.525007 
L 296.551795 120.522093 
L 296.129477 119.51918 
L 295.724087 118.516267 
L 295.337718 117.513354 
L 294.971238 116.510441 
L 294.624753 115.507528 
L 294.298182 114.504615 
L 293.991824 113.501702 
L 293.706812 112.498789 
L 293.445359 111.495875 
L 293.210729 110.492962 
L 293.006901 109.490049 
L 292.837964 108.487136 
L 292.707331 107.484223 
L 292.616881 106.48131 
L 292.566203 105.478397 
L 292.552077 104.475484 
L 292.568316 103.472571 
L 292.606042 102.469657 
L 292.654399 101.466744 
L 292.701628 100.463831 
L 292.736376 99.460918 
L 292.749076 98.458005 
L 292.733193 97.455092 
L 292.686181 96.452179 
L 292.610001 95.449266 
L 292.511143 94.446353 
L 292.400124 93.443439 
L 292.290543 92.440526 
L 292.197796 91.437613 
L 292.137609 90.4347 
L 292.124572 89.431787 
L 292.170822 88.428874 
L 292.285035 87.425961 
L 292.471804 86.423048 
L 292.731454 85.420135 
L 293.060277 84.417221 
L 293.451128 83.414308 
L 293.894262 82.411395 
L 294.378317 81.408482 
L 294.891292 80.405569 
L 295.421439 79.402656 
L 295.957971 78.399743 
L 296.491557 77.39683 
L 297.014592 76.393917 
L 297.521281 75.391004 
L 298.00756 74.38809 
L 298.470928 73.385177 
L 298.910224 72.382264 
L 299.325384 71.379351 
L 299.717203 70.376438 
L 300.087107 69.373525 
L 300.436926 68.370612 
L 300.768681 67.367699 
L 301.084364 66.364786 
L 301.38574 65.361872 
L 301.674174 64.358959 
L 301.950505 63.356046 
L 302.214983 62.353133 
L 302.467282 61.35022 
L 302.706585 60.347307 
L 302.931726 59.344394 
L 303.141378 58.341481 
L 305.665598 58.341481 
L 305.665598 58.341481 
L 305.87525 59.344394 
L 306.100391 60.347307 
L 306.339694 61.35022 
L 306.591993 62.353133 
L 306.856471 63.356046 
L 307.132801 64.358959 
L 307.421235 65.361872 
L 307.722612 66.364786 
L 308.038295 67.367699 
L 308.37005 68.370612 
L 308.719869 69.373525 
L 309.089772 70.376438 
L 309.481591 71.379351 
L 309.896751 72.382264 
L 310.336047 73.385177 
L 310.799416 74.38809 
L 311.285695 75.391004 
L 311.792384 76.393917 
L 312.315419 77.39683 
L 312.849004 78.399743 
L 313.385536 79.402656 
L 313.915684 80.405569 
L 314.428659 81.408482 
L 314.912713 82.411395 
L 315.355848 83.414308 
L 315.746698 84.417221 
L 316.075522 85.420135 
L 316.335172 86.423048 
L 316.52194 87.425961 
L 316.636154 88.428874 
L 316.682404 89.431787 
L 316.669367 90.4347 
L 316.60918 91.437613 
L 316.516432 92.440526 
L 316.406851 93.443439 
L 316.295832 94.446353 
L 316.196974 95.449266 
L 316.120795 96.452179 
L 316.073782 97.455092 
L 316.0579 98.458005 
L 316.0706 99.460918 
L 316.105348 100.463831 
L 316.152577 101.466744 
L 316.200934 102.469657 
L 316.23866 103.472571 
L 316.254899 104.475484 
L 316.240772 105.478397 
L 316.190095 106.48131 
L 316.099644 107.484223 
L 315.969011 108.487136 
L 315.800075 109.490049 
L 315.596246 110.492962 
L 315.361616 111.495875 
L 315.100164 112.498789 
L 314.815151 113.501702 
L 314.508793 114.504615 
L 314.182223 115.507528 
L 313.835738 116.510441 
L 313.469257 117.513354 
L 313.082888 118.516267 
L 312.677499 119.51918 
L 312.255181 120.522093 
L 311.819537 121.525007 
L 311.375729 122.52792 
L 310.930289 123.530833 
L 310.490708 124.533746 
L 310.064882 125.536659 
L 309.660479 126.539572 
L 309.284315 127.542485 
L 308.941832 128.545398 
L 308.636708 129.548311 
L 308.37066 130.551225 
L 308.143423 131.554138 
L 307.952888 132.557051 
L 307.795368 133.559964 
L 307.665947 134.562877 
L 307.558867 135.56579 
L 307.467921 136.568703 
L 307.386836 137.571616 
L 307.30962 138.574529 
L 307.230874 139.577442 
L 307.146053 140.580356 
L 307.051674 141.583269 
L 306.945459 142.586182 
L 306.826398 143.589095 
L 306.694729 144.592008 
L 306.551831 145.594921 
L 306.400025 146.597834 
L 306.242317 147.600747 
L 306.082088 148.60366 
L 305.922778 149.606574 
L 305.767593 150.609487 
L 305.619267 151.6124 
L 305.479895 152.615313 
L 305.350864 153.618226 
L 305.232867 154.621139 
L 305.125989 155.624052 
L 305.029845 156.626965 
L 304.943743 157.629878 
z
" clip-path="url(#p3287eab99e)" style="fill: #1f77b4; fill-opacity: 0.3"/>
   </g>
   <g id="PolyCollection_10">
    <path d="M 331.99537 157.248 
L 331.384566 157.248 
L 331.339733 156.200727 
L 331.287786 155.153455 
L 331.22696 154.106182 
L 331.155448 153.058909 
L 331.071578 152.011636 
L 330.973983 150.964364 
L 330.861744 149.917091 
L 330.734471 148.869818 
L 330.592307 147.822545 
L 330.435862 146.775273 
L 330.266083 145.728 
L 330.084089 144.680727 
L 329.891026 143.633455 
L 329.687956 142.586182 
L 329.475834 141.538909 
L 329.255549 140.491636 
L 329.028049 139.444364 
L 328.794474 138.397091 
L 328.55627 137.349818 
L 328.315225 136.302545 
L 328.073385 135.255273 
L 327.832852 134.208 
L 327.595486 133.160727 
L 327.362548 132.113455 
L 327.134377 131.066182 
L 326.910144 130.018909 
L 326.68776 128.971636 
L 326.463954 127.924364 
L 326.234522 126.877091 
L 325.994729 125.829818 
L 325.739797 124.782545 
L 325.465449 123.735273 
L 325.168424 122.688 
L 324.846924 121.640727 
L 324.500948 120.593455 
L 324.132454 119.546182 
L 323.745355 118.498909 
L 323.345293 117.451636 
L 322.939238 116.404364 
L 322.534922 115.357091 
L 322.140174 114.309818 
L 321.762257 113.262545 
L 321.407278 112.215273 
L 321.079781 111.168 
L 320.782567 110.120727 
L 320.516778 109.073455 
L 320.282197 108.026182 
L 320.077707 106.978909 
L 319.901815 105.931636 
L 319.753141 104.884364 
L 319.630791 103.837091 
L 319.534567 102.789818 
L 319.465017 101.742545 
L 319.423319 100.695273 
L 319.411052 99.648 
L 319.429899 98.600727 
L 319.481295 97.553455 
L 319.566065 96.506182 
L 319.684075 95.458909 
L 319.833926 94.411636 
L 320.012732 93.364364 
L 320.216069 92.317091 
L 320.438123 91.269818 
L 320.672111 90.222545 
L 320.910956 89.175273 
L 321.148171 88.128 
L 321.378817 87.080727 
L 321.60038 86.033455 
L 321.813372 84.986182 
L 322.021503 83.938909 
L 322.231343 82.891636 
L 322.451471 81.844364 
L 322.691232 80.797091 
L 322.959314 79.749818 
L 323.262375 78.702545 
L 323.603982 77.655273 
L 323.984029 76.608 
L 324.398738 75.560727 
L 324.841202 74.513455 
L 325.302353 73.466182 
L 325.772142 72.418909 
L 326.240719 71.371636 
L 326.699404 70.324364 
L 327.141317 69.277091 
L 327.561623 68.229818 
L 327.957424 67.182545 
L 328.327401 66.135273 
L 328.671338 65.088 
L 328.989656 64.040727 
L 329.283056 62.993455 
L 329.55231 61.946182 
L 329.798206 60.898909 
L 330.021597 59.851636 
L 330.223491 58.804364 
L 330.40513 57.757091 
L 330.568011 56.709818 
L 330.713832 55.662545 
L 330.844381 54.615273 
L 330.961399 53.568 
L 332.418538 53.568 
L 332.418538 53.568 
L 332.535555 54.615273 
L 332.666105 55.662545 
L 332.811926 56.709818 
L 332.974807 57.757091 
L 333.156446 58.804364 
L 333.35834 59.851636 
L 333.581731 60.898909 
L 333.827627 61.946182 
L 334.096881 62.993455 
L 334.390281 64.040727 
L 334.708599 65.088 
L 335.052536 66.135273 
L 335.422513 67.182545 
L 335.818314 68.229818 
L 336.23862 69.277091 
L 336.680533 70.324364 
L 337.139218 71.371636 
L 337.607795 72.418909 
L 338.077584 73.466182 
L 338.538734 74.513455 
L 338.981198 75.560727 
L 339.395907 76.608 
L 339.775955 77.655273 
L 340.117562 78.702545 
L 340.420623 79.749818 
L 340.688705 80.797091 
L 340.928466 81.844364 
L 341.148593 82.891636 
L 341.358434 83.938909 
L 341.566565 84.986182 
L 341.779556 86.033455 
L 342.001119 87.080727 
L 342.231766 88.128 
L 342.468981 89.175273 
L 342.707826 90.222545 
L 342.941814 91.269818 
L 343.163868 92.317091 
L 343.367204 93.364364 
L 343.546011 94.411636 
L 343.695861 95.458909 
L 343.813872 96.506182 
L 343.898642 97.553455 
L 343.950037 98.600727 
L 343.968885 99.648 
L 343.956618 100.695273 
L 343.914919 101.742545 
L 343.84537 102.789818 
L 343.749146 103.837091 
L 343.626795 104.884364 
L 343.478122 105.931636 
L 343.30223 106.978909 
L 343.09774 108.026182 
L 342.863159 109.073455 
L 342.59737 110.120727 
L 342.300156 111.168 
L 341.972658 112.215273 
L 341.617679 113.262545 
L 341.239763 114.309818 
L 340.845015 115.357091 
L 340.440698 116.404364 
L 340.034644 117.451636 
L 339.634582 118.498909 
L 339.247482 119.546182 
L 338.878989 120.593455 
L 338.533012 121.640727 
L 338.211513 122.688 
L 337.914488 123.735273 
L 337.64014 124.782545 
L 337.385208 125.829818 
L 337.145414 126.877091 
L 336.915983 127.924364 
L 336.692177 128.971636 
L 336.469793 130.018909 
L 336.24556 131.066182 
L 336.017389 132.113455 
L 335.784451 133.160727 
L 335.547085 134.208 
L 335.306552 135.255273 
L 335.064712 136.302545 
L 334.823667 137.349818 
L 334.585463 138.397091 
L 334.351888 139.444364 
L 334.124388 140.491636 
L 333.904103 141.538909 
L 333.69198 142.586182 
L 333.488911 143.633455 
L 333.295848 144.680727 
L 333.113854 145.728 
L 332.944074 146.775273 
L 332.78763 147.822545 
L 332.645466 148.869818 
L 332.518193 149.917091 
L 332.405954 150.964364 
L 332.308359 152.011636 
L 332.224489 153.058909 
L 332.152977 154.106182 
L 332.09215 155.153455 
L 332.040204 156.200727 
L 331.99537 157.248 
z
" clip-path="url(#p3287eab99e)" style="fill: #1f77b4; fill-opacity: 0.3"/>
   </g>
   <g id="PolyCollection_11">
    <path d="M 359.765518 153.238276 
L 358.187379 153.238276 
L 358.100755 152.306724 
L 358.012368 151.375172 
L 357.921854 150.44362 
L 357.828515 149.512068 
L 357.731406 148.580516 
L 357.629466 147.648964 
L 357.521656 146.717412 
L 357.40709 145.78586 
L 357.285131 144.854308 
L 357.155442 143.922756 
L 357.01798 142.991204 
L 356.872947 142.059652 
L 356.720705 141.1281 
L 356.561676 140.196548 
L 356.396247 139.264996 
L 356.2247 138.333445 
L 356.047175 137.401893 
L 355.863675 136.470341 
L 355.674093 135.538789 
L 355.478273 134.607237 
L 355.276075 133.675685 
L 355.067434 132.744133 
L 354.852426 131.812581 
L 354.631306 130.881029 
L 354.40455 129.949477 
L 354.172879 129.017925 
L 353.937284 128.086373 
L 353.699019 127.154821 
L 353.459583 126.223269 
L 353.220641 125.291717 
L 352.983909 124.360165 
L 352.750967 123.428613 
L 352.523028 122.497061 
L 352.300693 121.565509 
L 352.083714 120.633957 
L 351.870832 119.702405 
L 351.659726 118.770853 
L 351.447117 117.839301 
L 351.229033 116.907749 
L 351.001228 115.976197 
L 350.759707 115.044645 
L 350.501292 114.113093 
L 350.224151 113.181541 
L 349.928205 112.249989 
L 349.615353 111.318437 
L 349.289469 110.386885 
L 348.956178 109.455333 
L 348.622426 108.523781 
L 348.295925 107.592229 
L 347.984539 106.660677 
L 347.695698 105.729125 
L 347.435937 104.797573 
L 347.210575 103.866021 
L 347.023594 102.934469 
L 346.877678 102.002917 
L 346.774374 101.071365 
L 346.714332 100.139813 
L 346.697533 99.208261 
L 346.723468 98.276709 
L 346.791238 97.345157 
L 346.899543 96.413605 
L 347.046616 95.482053 
L 347.230115 94.550501 
L 347.447032 93.618949 
L 347.693677 92.687397 
L 347.965755 91.755845 
L 348.258563 90.824293 
L 348.567268 89.892741 
L 348.887253 88.961189 
L 349.214453 88.029637 
L 349.545636 87.098085 
L 349.87857 86.166533 
L 350.212048 85.234981 
L 350.545768 84.303429 
L 350.880098 83.371877 
L 351.215765 82.440325 
L 351.553538 81.508773 
L 351.893956 80.577221 
L 352.237159 79.64567 
L 352.582825 78.714118 
L 352.930227 77.782566 
L 353.278356 76.851014 
L 353.626085 75.919462 
L 353.972309 74.98791 
L 354.31603 74.056358 
L 354.65636 73.124806 
L 354.992454 72.193254 
L 355.323389 71.261702 
L 355.648037 70.33015 
L 355.964963 69.398598 
L 356.272389 68.467046 
L 356.568238 67.535494 
L 356.850252 66.603942 
L 357.11617 65.67239 
L 357.363929 64.740838 
L 357.591848 63.809286 
L 357.798783 62.877734 
L 357.9842 61.946182 
L 358.148196 61.01463 
L 359.804702 61.01463 
L 359.804702 61.01463 
L 359.968697 61.946182 
L 360.154115 62.877734 
L 360.361049 63.809286 
L 360.588969 64.740838 
L 360.836727 65.67239 
L 361.102646 66.603942 
L 361.38466 67.535494 
L 361.680509 68.467046 
L 361.987935 69.398598 
L 362.304861 70.33015 
L 362.629509 71.261702 
L 362.960444 72.193254 
L 363.296538 73.124806 
L 363.636868 74.056358 
L 363.980589 74.98791 
L 364.326813 75.919462 
L 364.674542 76.851014 
L 365.022671 77.782566 
L 365.370073 78.714118 
L 365.715739 79.64567 
L 366.058942 80.577221 
L 366.39936 81.508773 
L 366.737133 82.440325 
L 367.0728 83.371877 
L 367.40713 84.303429 
L 367.74085 85.234981 
L 368.074328 86.166533 
L 368.407262 87.098085 
L 368.738445 88.029637 
L 369.065645 88.961189 
L 369.38563 89.892741 
L 369.694335 90.824293 
L 369.987142 91.755845 
L 370.259221 92.687397 
L 370.505866 93.618949 
L 370.722783 94.550501 
L 370.906281 95.482053 
L 371.053355 96.413605 
L 371.16166 97.345157 
L 371.229429 98.276709 
L 371.255365 99.208261 
L 371.238565 100.139813 
L 371.178524 101.071365 
L 371.07522 102.002917 
L 370.929303 102.934469 
L 370.742323 103.866021 
L 370.516961 104.797573 
L 370.257199 105.729125 
L 369.968359 106.660677 
L 369.656972 107.592229 
L 369.330472 108.523781 
L 368.99672 109.455333 
L 368.663429 110.386885 
L 368.337545 111.318437 
L 368.024692 112.249989 
L 367.728747 113.181541 
L 367.451605 114.113093 
L 367.19319 115.044645 
L 366.951669 115.976197 
L 366.723864 116.907749 
L 366.505781 117.839301 
L 366.293172 118.770853 
L 366.082066 119.702405 
L 365.869183 120.633957 
L 365.652205 121.565509 
L 365.42987 122.497061 
L 365.201931 123.428613 
L 364.968988 124.360165 
L 364.732257 125.291717 
L 364.493315 126.223269 
L 364.253878 127.154821 
L 364.015614 128.086373 
L 363.780018 129.017925 
L 363.548348 129.949477 
L 363.321591 130.881029 
L 363.100472 131.812581 
L 362.885464 132.744133 
L 362.676823 133.675685 
L 362.474624 134.607237 
L 362.278805 135.538789 
L 362.089223 136.470341 
L 361.905723 137.401893 
L 361.728198 138.333445 
L 361.556651 139.264996 
L 361.391222 140.196548 
L 361.232193 141.1281 
L 361.079951 142.059652 
L 360.934918 142.991204 
L 360.797456 143.922756 
L 360.667767 144.854308 
L 360.545808 145.78586 
L 360.431242 146.717412 
L 360.323432 147.648964 
L 360.221491 148.580516 
L 360.124382 149.512068 
L 360.031043 150.44362 
L 359.94053 151.375172 
L 359.852143 152.306724 
L 359.765518 153.238276 
z
" clip-path="url(#p3287eab99e)" style="fill: #1f77b4; fill-opacity: 0.3"/>
   </g>
   <g id="PolyCollection_12">
    <path d="M 386.72676 164.312751 
L 385.689953 164.312751 
L 385.630216 163.331054 
L 385.570486 162.349356 
L 385.511386 161.367658 
L 385.453364 160.385961 
L 385.396661 159.404263 
L 385.341288 158.422566 
L 385.287007 157.440868 
L 385.23333 156.45917 
L 385.179522 155.477473 
L 385.12462 154.495775 
L 385.067471 153.514077 
L 385.006792 152.53238 
L 384.941245 151.550682 
L 384.869543 150.568984 
L 384.79055 149.587287 
L 384.703399 148.605589 
L 384.607574 147.623892 
L 384.502972 146.642194 
L 384.389919 145.660496 
L 384.269135 144.678799 
L 384.141642 143.697101 
L 384.008644 142.715403 
L 383.871366 141.733706 
L 383.730886 140.752008 
L 383.587983 139.77031 
L 383.443006 138.788613 
L 383.295783 137.806915 
L 383.145592 136.825217 
L 382.991179 135.84352 
L 382.830848 134.861822 
L 382.662593 133.880125 
L 382.484296 132.898427 
L 382.293938 131.916729 
L 382.089844 130.935032 
L 381.870905 129.953334 
L 381.636769 128.971636 
L 381.387963 127.989939 
L 381.125936 127.008241 
L 380.853001 126.026543 
L 380.572171 125.044846 
L 380.286922 124.063148 
L 380.000885 123.081451 
L 379.717517 122.099753 
L 379.439788 121.118055 
L 379.16991 120.136358 
L 378.909146 119.15466 
L 378.657708 118.172962 
L 378.414751 117.191265 
L 378.178466 116.209567 
L 377.946247 115.227869 
L 377.714933 114.246172 
L 377.481104 113.264474 
L 377.241418 112.282776 
L 376.992984 111.301079 
L 376.733738 110.319381 
L 376.4628 109.337684 
L 376.180791 108.355986 
L 375.89005 107.374288 
L 375.594721 106.392591 
L 375.30068 105.410893 
L 375.01527 104.429195 
L 374.746854 103.447498 
L 374.50422 102.4658 
L 374.295885 101.484102 
L 374.12939 100.502405 
L 374.010658 99.520707 
L 373.943517 98.53901 
L 373.92944 97.557312 
L 373.967542 96.575614 
L 374.05483 95.593917 
L 374.186668 94.612219 
L 374.357378 93.630521 
L 374.560892 92.648824 
L 374.791366 91.667126 
L 375.043679 90.685428 
L 375.313763 89.703731 
L 375.598754 88.722033 
L 375.896971 87.740336 
L 376.207769 86.758638 
L 376.53131 85.77694 
L 376.868298 84.795243 
L 377.219732 83.813545 
L 377.586687 82.831847 
L 377.970125 81.85015 
L 378.37074 80.868452 
L 378.788812 79.886754 
L 379.224051 78.905057 
L 379.675448 77.923359 
L 380.141119 76.941661 
L 380.618192 75.959964 
L 381.10275 74.978266 
L 381.58987 73.996569 
L 382.073774 73.014871 
L 382.548099 72.033173 
L 383.006263 71.051476 
L 383.441887 70.069778 
L 383.849228 69.08808 
L 384.223559 68.106383 
L 384.56146 67.124685 
L 387.855253 67.124685 
L 387.855253 67.124685 
L 388.193154 68.106383 
L 388.567485 69.08808 
L 388.974825 70.069778 
L 389.41045 71.051476 
L 389.868614 72.033173 
L 390.342939 73.014871 
L 390.826843 73.996569 
L 391.313963 74.978266 
L 391.798521 75.959964 
L 392.275594 76.941661 
L 392.741265 77.923359 
L 393.192662 78.905057 
L 393.627901 79.886754 
L 394.045973 80.868452 
L 394.446588 81.85015 
L 394.830026 82.831847 
L 395.196981 83.813545 
L 395.548415 84.795243 
L 395.885403 85.77694 
L 396.208944 86.758638 
L 396.519742 87.740336 
L 396.817959 88.722033 
L 397.10295 89.703731 
L 397.373034 90.685428 
L 397.625347 91.667126 
L 397.855821 92.648824 
L 398.059335 93.630521 
L 398.230045 94.612219 
L 398.361883 95.593917 
L 398.449171 96.575614 
L 398.487273 97.557312 
L 398.473196 98.53901 
L 398.406055 99.520707 
L 398.287323 100.502405 
L 398.120828 101.484102 
L 397.912493 102.4658 
L 397.669859 103.447498 
L 397.401443 104.429195 
L 397.116033 105.410893 
L 396.821992 106.392591 
L 396.526663 107.374288 
L 396.235922 108.355986 
L 395.953913 109.337684 
L 395.682975 110.319381 
L 395.423729 111.301079 
L 395.175295 112.282776 
L 394.935609 113.264474 
L 394.70178 114.246172 
L 394.470466 115.227869 
L 394.238247 116.209567 
L 394.001962 117.191265 
L 393.759005 118.172962 
L 393.507567 119.15466 
L 393.246803 120.136358 
L 392.976925 121.118055 
L 392.699196 122.099753 
L 392.415828 123.081451 
L 392.12979 124.063148 
L 391.844542 125.044846 
L 391.563712 126.026543 
L 391.290777 127.008241 
L 391.02875 127.989939 
L 390.779944 128.971636 
L 390.545808 129.953334 
L 390.326869 130.935032 
L 390.122775 131.916729 
L 389.932417 132.898427 
L 389.75412 133.880125 
L 389.585865 134.861822 
L 389.425534 135.84352 
L 389.271121 136.825217 
L 389.12093 137.806915 
L 388.973707 138.788613 
L 388.82873 139.77031 
L 388.685827 140.752008 
L 388.545347 141.733706 
L 388.408069 142.715403 
L 388.275071 143.697101 
L 388.147578 144.678799 
L 388.026794 145.660496 
L 387.913741 146.642194 
L 387.809139 147.623892 
L 387.713314 148.605589 
L 387.626163 149.587287 
L 387.54717 150.568984 
L 387.475468 151.550682 
L 387.409921 152.53238 
L 387.349242 153.514077 
L 387.292093 154.495775 
L 387.237191 155.477473 
L 387.183383 156.45917 
L 387.129706 157.440868 
L 387.075425 158.422566 
L 387.020052 159.404263 
L 386.963349 160.385961 
L 386.905327 161.367658 
L 386.846227 162.349356 
L 386.786497 163.331054 
L 386.72676 164.312751 
z
" clip-path="url(#p3287eab99e)" style="fill: #1f77b4; fill-opacity: 0.3"/>
   </g>
   <g id="matplotlib.axis_1">
    <g id="xtick_1">
     <g id="line2d_1">
      <defs>
       <path id="m622969581c" d="M 0 0 
L 0 3.5 
" style="stroke: #000000; stroke-width: 0.8"/>
      </defs>
      <g>
       <use xlink:href="#m622969581c" x="58.825163" y="307.584" style="stroke: #000000; stroke-width: 0.8"/>
      </g>
     </g>
     <g id="text_1">
      <!-- 0 -->
      <g transform="translate(55.643913 322.182437)scale(0.1 -0.1)">
       <defs>
        <path id="DejaVuSans-30" d="M 2034 4250 
Q 1547 4250 1301 3770 
Q 1056 3291 1056 2328 
Q 1056 1369 1301 889 
Q 1547 409 2034 409 
Q 2525 409 2770 889 
Q 3016 1369 3016 2328 
Q 3016 3291 2770 3770 
Q 2525 4250 2034 4250 
z
M 2034 4750 
Q 2819 4750 3233 4129 
Q 3647 3509 3647 2328 
Q 3647 1150 3233 529 
Q 2819 -91 2034 -91 
Q 1250 -91 836 529 
Q 422 1150 422 2328 
Q 422 3509 836 4129 
Q 1250 4750 2034 4750 
z
" transform="scale(0.015625)"/>
       </defs>
       <use xlink:href="#DejaVuSans-30"/>
      </g>
     </g>
    </g>
    <g id="xtick_2">
     <g id="line2d_2">
      <g>
       <use xlink:href="#m622969581c" x="113.398124" y="307.584" style="stroke: #000000; stroke-width: 0.8"/>
      </g>
     </g>
     <g id="text_2">
      <!-- 1000 -->
      <g transform="translate(100.673124 322.182437)scale(0.1 -0.1)">
       <defs>
        <path id="DejaVuSans-31" d="M 794 531 
L 1825 531 
L 1825 4091 
L 703 3866 
L 703 4441 
L 1819 4666 
L 2450 4666 
L 2450 531 
L 3481 531 
L 3481 0 
L 794 0 
L 794 531 
z
" transform="scale(0.015625)"/>
       </defs>
       <use xlink:href="#DejaVuSans-31"/>
       <use xlink:href="#DejaVuSans-30" x="63.623047"/>
       <use xlink:href="#DejaVuSans-30" x="127.246094"/>
       <use xlink:href="#DejaVuSans-30" x="190.869141"/>
      </g>
     </g>
    </g>
    <g id="xtick_3">
     <g id="line2d_3">
      <g>
       <use xlink:href="#m622969581c" x="167.971085" y="307.584" style="stroke: #000000; stroke-width: 0.8"/>
      </g>
     </g>
     <g id="text_3">
      <!-- 2000 -->
      <g transform="translate(155.246085 322.182437)scale(0.1 -0.1)">
       <defs>
        <path id="DejaVuSans-32" d="M 1228 531 
L 3431 531 
L 3431 0 
L 469 0 
L 469 531 
Q 828 903 1448 1529 
Q 2069 2156 2228 2338 
Q 2531 2678 2651 2914 
Q 2772 3150 2772 3378 
Q 2772 3750 2511 3984 
Q 2250 4219 1831 4219 
Q 1534 4219 1204 4116 
Q 875 4013 500 3803 
L 500 4441 
Q 881 4594 1212 4672 
Q 1544 4750 1819 4750 
Q 2544 4750 2975 4387 
Q 3406 4025 3406 3419 
Q 3406 3131 3298 2873 
Q 3191 2616 2906 2266 
Q 2828 2175 2409 1742 
Q 1991 1309 1228 531 
z
" transform="scale(0.015625)"/>
       </defs>
       <use xlink:href="#DejaVuSans-32"/>
       <use xlink:href="#DejaVuSans-30" x="63.623047"/>
       <use xlink:href="#DejaVuSans-30" x="127.246094"/>
       <use xlink:href="#DejaVuSans-30" x="190.869141"/>
      </g>
     </g>
    </g>
    <g id="xtick_4">
     <g id="line2d_4">
      <g>
       <use xlink:href="#m622969581c" x="222.544046" y="307.584" style="stroke: #000000; stroke-width: 0.8"/>
      </g>
     </g>
     <g id="text_4">
      <!-- 3000 -->
      <g transform="translate(209.819046 322.182437)scale(0.1 -0.1)">
       <defs>
        <path id="DejaVuSans-33" d="M 2597 2516 
Q 3050 2419 3304 2112 
Q 3559 1806 3559 1356 
Q 3559 666 3084 287 
Q 2609 -91 1734 -91 
Q 1441 -91 1130 -33 
Q 819 25 488 141 
L 488 750 
Q 750 597 1062 519 
Q 1375 441 1716 441 
Q 2309 441 2620 675 
Q 2931 909 2931 1356 
Q 2931 1769 2642 2001 
Q 2353 2234 1838 2234 
L 1294 2234 
L 1294 2753 
L 1863 2753 
Q 2328 2753 2575 2939 
Q 2822 3125 2822 3475 
Q 2822 3834 2567 4026 
Q 2313 4219 1838 4219 
Q 1578 4219 1281 4162 
Q 984 4106 628 3988 
L 628 4550 
Q 988 4650 1302 4700 
Q 1616 4750 1894 4750 
Q 2613 4750 3031 4423 
Q 3450 4097 3450 3541 
Q 3450 3153 3228 2886 
Q 3006 2619 2597 2516 
z
" transform="scale(0.015625)"/>
       </defs>
       <use xlink:href="#DejaVuSans-33"/>
       <use xlink:href="#DejaVuSans-30" x="63.623047"/>
       <use xlink:href="#DejaVuSans-30" x="127.246094"/>
       <use xlink:href="#DejaVuSans-30" x="190.869141"/>
      </g>
     </g>
    </g>
    <g id="xtick_5">
     <g id="line2d_5">
      <g>
       <use xlink:href="#m622969581c" x="277.117007" y="307.584" style="stroke: #000000; stroke-width: 0.8"/>
      </g>
     </g>
     <g id="text_5">
      <!-- 4000 -->
      <g transform="translate(264.392007 322.182437)scale(0.1 -0.1)">
       <defs>
        <path id="DejaVuSans-34" d="M 2419 4116 
L 825 1625 
L 2419 1625 
L 2419 4116 
z
M 2253 4666 
L 3047 4666 
L 3047 1625 
L 3713 1625 
L 3713 1100 
L 3047 1100 
L 3047 0 
L 2419 0 
L 2419 1100 
L 313 1100 
L 313 1709 
L 2253 4666 
z
" transform="scale(0.015625)"/>
       </defs>
       <use xlink:href="#DejaVuSans-34"/>
       <use xlink:href="#DejaVuSans-30" x="63.623047"/>
       <use xlink:href="#DejaVuSans-30" x="127.246094"/>
       <use xlink:href="#DejaVuSans-30" x="190.869141"/>
      </g>
     </g>
    </g>
    <g id="xtick_6">
     <g id="line2d_6">
      <g>
       <use xlink:href="#m622969581c" x="331.689968" y="307.584" style="stroke: #000000; stroke-width: 0.8"/>
      </g>
     </g>
     <g id="text_6">
      <!-- 5000 -->
      <g transform="translate(318.964968 322.182437)scale(0.1 -0.1)">
       <defs>
        <path id="DejaVuSans-35" d="M 691 4666 
L 3169 4666 
L 3169 4134 
L 1269 4134 
L 1269 2991 
Q 1406 3038 1543 3061 
Q 1681 3084 1819 3084 
Q 2600 3084 3056 2656 
Q 3513 2228 3513 1497 
Q 3513 744 3044 326 
Q 2575 -91 1722 -91 
Q 1428 -91 1123 -41 
Q 819 9 494 109 
L 494 744 
Q 775 591 1075 516 
Q 1375 441 1709 441 
Q 2250 441 2565 725 
Q 2881 1009 2881 1497 
Q 2881 1984 2565 2268 
Q 2250 2553 1709 2553 
Q 1456 2553 1204 2497 
Q 953 2441 691 2322 
L 691 4666 
z
" transform="scale(0.015625)"/>
       </defs>
       <use xlink:href="#DejaVuSans-35"/>
       <use xlink:href="#DejaVuSans-30" x="63.623047"/>
       <use xlink:href="#DejaVuSans-30" x="127.246094"/>
       <use xlink:href="#DejaVuSans-30" x="190.869141"/>
      </g>
     </g>
    </g>
    <g id="xtick_7">
     <g id="line2d_7">
      <g>
       <use xlink:href="#m622969581c" x="386.262929" y="307.584" style="stroke: #000000; stroke-width: 0.8"/>
      </g>
     </g>
     <g id="text_7">
      <!-- 6000 -->
      <g transform="translate(373.537929 322.182437)scale(0.1 -0.1)">
       <defs>
        <path id="DejaVuSans-36" d="M 2113 2584 
Q 1688 2584 1439 2293 
Q 1191 2003 1191 1497 
Q 1191 994 1439 701 
Q 1688 409 2113 409 
Q 2538 409 2786 701 
Q 3034 994 3034 1497 
Q 3034 2003 2786 2293 
Q 2538 2584 2113 2584 
z
M 3366 4563 
L 3366 3988 
Q 3128 4100 2886 4159 
Q 2644 4219 2406 4219 
Q 1781 4219 1451 3797 
Q 1122 3375 1075 2522 
Q 1259 2794 1537 2939 
Q 1816 3084 2150 3084 
Q 2853 3084 3261 2657 
Q 3669 2231 3669 1497 
Q 3669 778 3244 343 
Q 2819 -91 2113 -91 
Q 1303 -91 875 529 
Q 447 1150 447 2328 
Q 447 3434 972 4092 
Q 1497 4750 2381 4750 
Q 2619 4750 2861 4703 
Q 3103 4656 3366 4563 
z
" transform="scale(0.015625)"/>
       </defs>
       <use xlink:href="#DejaVuSans-36"/>
       <use xlink:href="#DejaVuSans-30" x="63.623047"/>
       <use xlink:href="#DejaVuSans-30" x="127.246094"/>
       <use xlink:href="#DejaVuSans-30" x="190.869141"/>
      </g>
     </g>
    </g>
    <g id="text_8">
     <!-- Learned Episodes -->
     <g transform="translate(192.102187 335.860562)scale(0.1 -0.1)">
      <defs>
       <path id="DejaVuSans-4c" d="M 628 4666 
L 1259 4666 
L 1259 531 
L 3531 531 
L 3531 0 
L 628 0 
L 628 4666 
z
" transform="scale(0.015625)"/>
       <path id="DejaVuSans-65" d="M 3597 1894 
L 3597 1613 
L 953 1613 
Q 991 1019 1311 708 
Q 1631 397 2203 397 
Q 2534 397 2845 478 
Q 3156 559 3463 722 
L 3463 178 
Q 3153 47 2828 -22 
Q 2503 -91 2169 -91 
Q 1331 -91 842 396 
Q 353 884 353 1716 
Q 353 2575 817 3079 
Q 1281 3584 2069 3584 
Q 2775 3584 3186 3129 
Q 3597 2675 3597 1894 
z
M 3022 2063 
Q 3016 2534 2758 2815 
Q 2500 3097 2075 3097 
Q 1594 3097 1305 2825 
Q 1016 2553 972 2059 
L 3022 2063 
z
" transform="scale(0.015625)"/>
       <path id="DejaVuSans-61" d="M 2194 1759 
Q 1497 1759 1228 1600 
Q 959 1441 959 1056 
Q 959 750 1161 570 
Q 1363 391 1709 391 
Q 2188 391 2477 730 
Q 2766 1069 2766 1631 
L 2766 1759 
L 2194 1759 
z
M 3341 1997 
L 3341 0 
L 2766 0 
L 2766 531 
Q 2569 213 2275 61 
Q 1981 -91 1556 -91 
Q 1019 -91 701 211 
Q 384 513 384 1019 
Q 384 1609 779 1909 
Q 1175 2209 1959 2209 
L 2766 2209 
L 2766 2266 
Q 2766 2663 2505 2880 
Q 2244 3097 1772 3097 
Q 1472 3097 1187 3025 
Q 903 2953 641 2809 
L 641 3341 
Q 956 3463 1253 3523 
Q 1550 3584 1831 3584 
Q 2591 3584 2966 3190 
Q 3341 2797 3341 1997 
z
" transform="scale(0.015625)"/>
       <path id="DejaVuSans-72" d="M 2631 2963 
Q 2534 3019 2420 3045 
Q 2306 3072 2169 3072 
Q 1681 3072 1420 2755 
Q 1159 2438 1159 1844 
L 1159 0 
L 581 0 
L 581 3500 
L 1159 3500 
L 1159 2956 
Q 1341 3275 1631 3429 
Q 1922 3584 2338 3584 
Q 2397 3584 2469 3576 
Q 2541 3569 2628 3553 
L 2631 2963 
z
" transform="scale(0.015625)"/>
       <path id="DejaVuSans-6e" d="M 3513 2113 
L 3513 0 
L 2938 0 
L 2938 2094 
Q 2938 2591 2744 2837 
Q 2550 3084 2163 3084 
Q 1697 3084 1428 2787 
Q 1159 2491 1159 1978 
L 1159 0 
L 581 0 
L 581 3500 
L 1159 3500 
L 1159 2956 
Q 1366 3272 1645 3428 
Q 1925 3584 2291 3584 
Q 2894 3584 3203 3211 
Q 3513 2838 3513 2113 
z
" transform="scale(0.015625)"/>
       <path id="DejaVuSans-64" d="M 2906 2969 
L 2906 4863 
L 3481 4863 
L 3481 0 
L 2906 0 
L 2906 525 
Q 2725 213 2448 61 
Q 2172 -91 1784 -91 
Q 1150 -91 751 415 
Q 353 922 353 1747 
Q 353 2572 751 3078 
Q 1150 3584 1784 3584 
Q 2172 3584 2448 3432 
Q 2725 3281 2906 2969 
z
M 947 1747 
Q 947 1113 1208 752 
Q 1469 391 1925 391 
Q 2381 391 2643 752 
Q 2906 1113 2906 1747 
Q 2906 2381 2643 2742 
Q 2381 3103 1925 3103 
Q 1469 3103 1208 2742 
Q 947 2381 947 1747 
z
" transform="scale(0.015625)"/>
       <path id="DejaVuSans-20" transform="scale(0.015625)"/>
       <path id="DejaVuSans-45" d="M 628 4666 
L 3578 4666 
L 3578 4134 
L 1259 4134 
L 1259 2753 
L 3481 2753 
L 3481 2222 
L 1259 2222 
L 1259 531 
L 3634 531 
L 3634 0 
L 628 0 
L 628 4666 
z
" transform="scale(0.015625)"/>
       <path id="DejaVuSans-70" d="M 1159 525 
L 1159 -1331 
L 581 -1331 
L 581 3500 
L 1159 3500 
L 1159 2969 
Q 1341 3281 1617 3432 
Q 1894 3584 2278 3584 
Q 2916 3584 3314 3078 
Q 3713 2572 3713 1747 
Q 3713 922 3314 415 
Q 2916 -91 2278 -91 
Q 1894 -91 1617 61 
Q 1341 213 1159 525 
z
M 3116 1747 
Q 3116 2381 2855 2742 
Q 2594 3103 2138 3103 
Q 1681 3103 1420 2742 
Q 1159 2381 1159 1747 
Q 1159 1113 1420 752 
Q 1681 391 2138 391 
Q 2594 391 2855 752 
Q 3116 1113 3116 1747 
z
" transform="scale(0.015625)"/>
       <path id="DejaVuSans-69" d="M 603 3500 
L 1178 3500 
L 1178 0 
L 603 0 
L 603 3500 
z
M 603 4863 
L 1178 4863 
L 1178 4134 
L 603 4134 
L 603 4863 
z
" transform="scale(0.015625)"/>
       <path id="DejaVuSans-73" d="M 2834 3397 
L 2834 2853 
Q 2591 2978 2328 3040 
Q 2066 3103 1784 3103 
Q 1356 3103 1142 2972 
Q 928 2841 928 2578 
Q 928 2378 1081 2264 
Q 1234 2150 1697 2047 
L 1894 2003 
Q 2506 1872 2764 1633 
Q 3022 1394 3022 966 
Q 3022 478 2636 193 
Q 2250 -91 1575 -91 
Q 1294 -91 989 -36 
Q 684 19 347 128 
L 347 722 
Q 666 556 975 473 
Q 1284 391 1588 391 
Q 1994 391 2212 530 
Q 2431 669 2431 922 
Q 2431 1156 2273 1281 
Q 2116 1406 1581 1522 
L 1381 1569 
Q 847 1681 609 1914 
Q 372 2147 372 2553 
Q 372 3047 722 3315 
Q 1072 3584 1716 3584 
Q 2034 3584 2315 3537 
Q 2597 3491 2834 3397 
z
" transform="scale(0.015625)"/>
       <path id="DejaVuSans-6f" d="M 1959 3097 
Q 1497 3097 1228 2736 
Q 959 2375 959 1747 
Q 959 1119 1226 758 
Q 1494 397 1959 397 
Q 2419 397 2687 759 
Q 2956 1122 2956 1747 
Q 2956 2369 2687 2733 
Q 2419 3097 1959 3097 
z
M 1959 3584 
Q 2709 3584 3137 3096 
Q 3566 2609 3566 1747 
Q 3566 888 3137 398 
Q 2709 -91 1959 -91 
Q 1206 -91 779 398 
Q 353 888 353 1747 
Q 353 2609 779 3096 
Q 1206 3584 1959 3584 
z
" transform="scale(0.015625)"/>
      </defs>
      <use xlink:href="#DejaVuSans-4c"/>
      <use xlink:href="#DejaVuSans-65" x="53.962891"/>
      <use xlink:href="#DejaVuSans-61" x="115.486328"/>
      <use xlink:href="#DejaVuSans-72" x="176.765625"/>
      <use xlink:href="#DejaVuSans-6e" x="216.128906"/>
      <use xlink:href="#DejaVuSans-65" x="279.507812"/>
      <use xlink:href="#DejaVuSans-64" x="341.03125"/>
      <use xlink:href="#DejaVuSans-20" x="404.507812"/>
      <use xlink:href="#DejaVuSans-45" x="436.294922"/>
      <use xlink:href="#DejaVuSans-70" x="499.478516"/>
      <use xlink:href="#DejaVuSans-69" x="562.955078"/>
      <use xlink:href="#DejaVuSans-73" x="590.738281"/>
      <use xlink:href="#DejaVuSans-6f" x="642.837891"/>
      <use xlink:href="#DejaVuSans-64" x="704.019531"/>
      <use xlink:href="#DejaVuSans-65" x="767.496094"/>
      <use xlink:href="#DejaVuSans-73" x="829.019531"/>
     </g>
    </g>
   </g>
   <g id="matplotlib.axis_2">
    <g id="ytick_1">
     <g id="line2d_8">
      <defs>
       <path id="me3fc7e9bc0" d="M 0 0 
L -3.5 0 
" style="stroke: #000000; stroke-width: 0.8"/>
      </defs>
      <g>
       <use xlink:href="#me3fc7e9bc0" x="57.6" y="303.889326" style="stroke: #000000; stroke-width: 0.8"/>
      </g>
     </g>
     <g id="text_9">
      <!-- 600 -->
      <g transform="translate(23.132812 307.688545)scale(0.1 -0.1)">
       <defs>
        <path id="DejaVuSans-2212" d="M 678 2272 
L 4684 2272 
L 4684 1741 
L 678 1741 
L 678 2272 
z
" transform="scale(0.015625)"/>
       </defs>
       <use xlink:href="#DejaVuSans-2212"/>
       <use xlink:href="#DejaVuSans-36" x="83.789062"/>
       <use xlink:href="#DejaVuSans-30" x="147.412109"/>
       <use xlink:href="#DejaVuSans-30" x="211.035156"/>
      </g>
     </g>
    </g>
    <g id="ytick_2">
     <g id="line2d_9">
      <g>
       <use xlink:href="#me3fc7e9bc0" x="57.6" y="265.701481" style="stroke: #000000; stroke-width: 0.8"/>
      </g>
     </g>
     <g id="text_10">
      <!-- 400 -->
      <g transform="translate(23.132812 269.500699)scale(0.1 -0.1)">
       <use xlink:href="#DejaVuSans-2212"/>
       <use xlink:href="#DejaVuSans-34" x="83.789062"/>
       <use xlink:href="#DejaVuSans-30" x="147.412109"/>
       <use xlink:href="#DejaVuSans-30" x="211.035156"/>
      </g>
     </g>
    </g>
    <g id="ytick_3">
     <g id="line2d_10">
      <g>
       <use xlink:href="#me3fc7e9bc0" x="57.6" y="227.513635" style="stroke: #000000; stroke-width: 0.8"/>
      </g>
     </g>
     <g id="text_11">
      <!-- 200 -->
      <g transform="translate(23.132812 231.312854)scale(0.1 -0.1)">
       <use xlink:href="#DejaVuSans-2212"/>
       <use xlink:href="#DejaVuSans-32" x="83.789062"/>
       <use xlink:href="#DejaVuSans-30" x="147.412109"/>
       <use xlink:href="#DejaVuSans-30" x="211.035156"/>
      </g>
     </g>
    </g>
    <g id="ytick_4">
     <g id="line2d_11">
      <g>
       <use xlink:href="#me3fc7e9bc0" x="57.6" y="189.32579" style="stroke: #000000; stroke-width: 0.8"/>
      </g>
     </g>
     <g id="text_12">
      <!-- 0 -->
      <g transform="translate(44.2375 193.125009)scale(0.1 -0.1)">
       <use xlink:href="#DejaVuSans-30"/>
      </g>
     </g>
    </g>
    <g id="ytick_5">
     <g id="line2d_12">
      <g>
       <use xlink:href="#me3fc7e9bc0" x="57.6" y="151.137945" style="stroke: #000000; stroke-width: 0.8"/>
      </g>
     </g>
     <g id="text_13">
      <!-- 200 -->
      <g transform="translate(31.5125 154.937164)scale(0.1 -0.1)">
       <use xlink:href="#DejaVuSans-32"/>
       <use xlink:href="#DejaVuSans-30" x="63.623047"/>
       <use xlink:href="#DejaVuSans-30" x="127.246094"/>
      </g>
     </g>
    </g>
    <g id="ytick_6">
     <g id="line2d_13">
      <g>
       <use xlink:href="#me3fc7e9bc0" x="57.6" y="112.950099" style="stroke: #000000; stroke-width: 0.8"/>
      </g>
     </g>
     <g id="text_14">
      <!-- 400 -->
      <g transform="translate(31.5125 116.749318)scale(0.1 -0.1)">
       <use xlink:href="#DejaVuSans-34"/>
       <use xlink:href="#DejaVuSans-30" x="63.623047"/>
       <use xlink:href="#DejaVuSans-30" x="127.246094"/>
      </g>
     </g>
    </g>
    <g id="ytick_7">
     <g id="line2d_14">
      <g>
       <use xlink:href="#me3fc7e9bc0" x="57.6" y="74.762254" style="stroke: #000000; stroke-width: 0.8"/>
      </g>
     </g>
     <g id="text_15">
      <!-- 600 -->
      <g transform="translate(31.5125 78.561473)scale(0.1 -0.1)">
       <use xlink:href="#DejaVuSans-36"/>
       <use xlink:href="#DejaVuSans-30" x="63.623047"/>
       <use xlink:href="#DejaVuSans-30" x="127.246094"/>
      </g>
     </g>
    </g>
    <g id="text_16">
     <!-- Reward Density -->
     <g transform="translate(17.053125 213.74675)rotate(-90)scale(0.1 -0.1)">
      <defs>
       <path id="DejaVuSans-52" d="M 2841 2188 
Q 3044 2119 3236 1894 
Q 3428 1669 3622 1275 
L 4263 0 
L 3584 0 
L 2988 1197 
Q 2756 1666 2539 1819 
Q 2322 1972 1947 1972 
L 1259 1972 
L 1259 0 
L 628 0 
L 628 4666 
L 2053 4666 
Q 2853 4666 3247 4331 
Q 3641 3997 3641 3322 
Q 3641 2881 3436 2590 
Q 3231 2300 2841 2188 
z
M 1259 4147 
L 1259 2491 
L 2053 2491 
Q 2509 2491 2742 2702 
Q 2975 2913 2975 3322 
Q 2975 3731 2742 3939 
Q 2509 4147 2053 4147 
L 1259 4147 
z
" transform="scale(0.015625)"/>
       <path id="DejaVuSans-77" d="M 269 3500 
L 844 3500 
L 1563 769 
L 2278 3500 
L 2956 3500 
L 3675 769 
L 4391 3500 
L 4966 3500 
L 4050 0 
L 3372 0 
L 2619 2869 
L 1863 0 
L 1184 0 
L 269 3500 
z
" transform="scale(0.015625)"/>
       <path id="DejaVuSans-44" d="M 1259 4147 
L 1259 519 
L 2022 519 
Q 2988 519 3436 956 
Q 3884 1394 3884 2338 
Q 3884 3275 3436 3711 
Q 2988 4147 2022 4147 
L 1259 4147 
z
M 628 4666 
L 1925 4666 
Q 3281 4666 3915 4102 
Q 4550 3538 4550 2338 
Q 4550 1131 3912 565 
Q 3275 0 1925 0 
L 628 0 
L 628 4666 
z
" transform="scale(0.015625)"/>
       <path id="DejaVuSans-74" d="M 1172 4494 
L 1172 3500 
L 2356 3500 
L 2356 3053 
L 1172 3053 
L 1172 1153 
Q 1172 725 1289 603 
Q 1406 481 1766 481 
L 2356 481 
L 2356 0 
L 1766 0 
Q 1100 0 847 248 
Q 594 497 594 1153 
L 594 3053 
L 172 3053 
L 172 3500 
L 594 3500 
L 594 4494 
L 1172 4494 
z
" transform="scale(0.015625)"/>
       <path id="DejaVuSans-79" d="M 2059 -325 
Q 1816 -950 1584 -1140 
Q 1353 -1331 966 -1331 
L 506 -1331 
L 506 -850 
L 844 -850 
Q 1081 -850 1212 -737 
Q 1344 -625 1503 -206 
L 1606 56 
L 191 3500 
L 800 3500 
L 1894 763 
L 2988 3500 
L 3597 3500 
L 2059 -325 
z
" transform="scale(0.015625)"/>
      </defs>
      <use xlink:href="#DejaVuSans-52"/>
      <use xlink:href="#DejaVuSans-65" x="64.982422"/>
      <use xlink:href="#DejaVuSans-77" x="126.505859"/>
      <use xlink:href="#DejaVuSans-61" x="208.292969"/>
      <use xlink:href="#DejaVuSans-72" x="269.572266"/>
      <use xlink:href="#DejaVuSans-64" x="308.935547"/>
      <use xlink:href="#DejaVuSans-20" x="372.412109"/>
      <use xlink:href="#DejaVuSans-44" x="404.199219"/>
      <use xlink:href="#DejaVuSans-65" x="481.201172"/>
      <use xlink:href="#DejaVuSans-6e" x="542.724609"/>
      <use xlink:href="#DejaVuSans-73" x="606.103516"/>
      <use xlink:href="#DejaVuSans-69" x="658.203125"/>
      <use xlink:href="#DejaVuSans-74" x="685.986328"/>
      <use xlink:href="#DejaVuSans-79" x="725.195312"/>
     </g>
    </g>
   </g>
   <g id="LineCollection_1">
    <path d="M 79.972185 140.847848 
L 92.251102 140.847848 
" clip-path="url(#p3287eab99e)" style="fill: none; stroke: #1f77b4; stroke-width: 1.5"/>
    <path d="M 107.258666 135.299154 
L 119.537582 135.299154 
" clip-path="url(#p3287eab99e)" style="fill: none; stroke: #1f77b4; stroke-width: 1.5"/>
    <path d="M 134.545146 127.797534 
L 146.824063 127.797534 
" clip-path="url(#p3287eab99e)" style="fill: none; stroke: #1f77b4; stroke-width: 1.5"/>
    <path d="M 161.831627 110.98037 
L 174.110543 110.98037 
" clip-path="url(#p3287eab99e)" style="fill: none; stroke: #1f77b4; stroke-width: 1.5"/>
    <path d="M 189.118108 110.445741 
L 201.397024 110.445741 
" clip-path="url(#p3287eab99e)" style="fill: none; stroke: #1f77b4; stroke-width: 1.5"/>
    <path d="M 216.404588 95.812922 
L 228.683504 95.812922 
" clip-path="url(#p3287eab99e)" style="fill: none; stroke: #1f77b4; stroke-width: 1.5"/>
    <path d="M 243.691069 97.652812 
L 255.969985 97.652812 
" clip-path="url(#p3287eab99e)" style="fill: none; stroke: #1f77b4; stroke-width: 1.5"/>
    <path d="M 270.977549 104.085173 
L 283.256465 104.085173 
" clip-path="url(#p3287eab99e)" style="fill: none; stroke: #1f77b4; stroke-width: 1.5"/>
    <path d="M 298.26403 101.280658 
L 310.542946 101.280658 
" clip-path="url(#p3287eab99e)" style="fill: none; stroke: #1f77b4; stroke-width: 1.5"/>
    <path d="M 325.55051 100.548979 
L 337.829426 100.548979 
" clip-path="url(#p3287eab99e)" style="fill: none; stroke: #1f77b4; stroke-width: 1.5"/>
    <path d="M 352.836991 103.013622 
L 365.115907 103.013622 
" clip-path="url(#p3287eab99e)" style="fill: none; stroke: #1f77b4; stroke-width: 1.5"/>
    <path d="M 380.068898 104.186753 
L 392.347815 104.186753 
" clip-path="url(#p3287eab99e)" style="fill: none; stroke: #1f77b4; stroke-width: 1.5"/>
   </g>
   <g id="LineCollection_2">
    <path d="M 79.972185 78.771978 
L 92.251102 78.771978 
" clip-path="url(#p3287eab99e)" style="fill: none; stroke: #1f77b4; stroke-width: 1.5"/>
    <path d="M 107.258666 88.700818 
L 119.537582 88.700818 
" clip-path="url(#p3287eab99e)" style="fill: none; stroke: #1f77b4; stroke-width: 1.5"/>
    <path d="M 134.545146 85.836729 
L 146.824063 85.836729 
" clip-path="url(#p3287eab99e)" style="fill: none; stroke: #1f77b4; stroke-width: 1.5"/>
    <path d="M 161.831627 73.23474 
L 174.110543 73.23474 
" clip-path="url(#p3287eab99e)" style="fill: none; stroke: #1f77b4; stroke-width: 1.5"/>
    <path d="M 189.118108 58.914298 
L 201.397024 58.914298 
" clip-path="url(#p3287eab99e)" style="fill: none; stroke: #1f77b4; stroke-width: 1.5"/>
    <path d="M 216.404588 57.768663 
L 228.683504 57.768663 
" clip-path="url(#p3287eab99e)" style="fill: none; stroke: #1f77b4; stroke-width: 1.5"/>
    <path d="M 243.691069 57.577724 
L 255.969985 57.577724 
" clip-path="url(#p3287eab99e)" style="fill: none; stroke: #1f77b4; stroke-width: 1.5"/>
    <path d="M 270.977549 63.878718 
L 283.256465 63.878718 
" clip-path="url(#p3287eab99e)" style="fill: none; stroke: #1f77b4; stroke-width: 1.5"/>
    <path d="M 298.26403 58.341481 
L 310.542946 58.341481 
" clip-path="url(#p3287eab99e)" style="fill: none; stroke: #1f77b4; stroke-width: 1.5"/>
    <path d="M 325.55051 53.568 
L 337.829426 53.568 
" clip-path="url(#p3287eab99e)" style="fill: none; stroke: #1f77b4; stroke-width: 1.5"/>
    <path d="M 352.836991 61.01463 
L 365.115907 61.01463 
" clip-path="url(#p3287eab99e)" style="fill: none; stroke: #1f77b4; stroke-width: 1.5"/>
    <path d="M 380.068898 67.124685 
L 392.347815 67.124685 
" clip-path="url(#p3287eab99e)" style="fill: none; stroke: #1f77b4; stroke-width: 1.5"/>
   </g>
   <g id="LineCollection_3">
    <path d="M 79.972185 295.488 
L 92.251102 295.488 
" clip-path="url(#p3287eab99e)" style="fill: none; stroke: #1f77b4; stroke-width: 1.5"/>
    <path d="M 107.258666 232.287116 
L 119.537582 232.287116 
" clip-path="url(#p3287eab99e)" style="fill: none; stroke: #1f77b4; stroke-width: 1.5"/>
    <path d="M 134.545146 270.85684 
L 146.824063 270.85684 
" clip-path="url(#p3287eab99e)" style="fill: none; stroke: #1f77b4; stroke-width: 1.5"/>
    <path d="M 161.831627 169.65905 
L 174.110543 169.65905 
" clip-path="url(#p3287eab99e)" style="fill: none; stroke: #1f77b4; stroke-width: 1.5"/>
    <path d="M 189.118108 170.613746 
L 201.397024 170.613746 
" clip-path="url(#p3287eab99e)" style="fill: none; stroke: #1f77b4; stroke-width: 1.5"/>
    <path d="M 216.404588 150.756066 
L 228.683504 150.756066 
" clip-path="url(#p3287eab99e)" style="fill: none; stroke: #1f77b4; stroke-width: 1.5"/>
    <path d="M 243.691069 151.519823 
L 255.969985 151.519823 
" clip-path="url(#p3287eab99e)" style="fill: none; stroke: #1f77b4; stroke-width: 1.5"/>
    <path d="M 270.977549 165.076508 
L 283.256465 165.076508 
" clip-path="url(#p3287eab99e)" style="fill: none; stroke: #1f77b4; stroke-width: 1.5"/>
    <path d="M 298.26403 157.629878 
L 310.542946 157.629878 
" clip-path="url(#p3287eab99e)" style="fill: none; stroke: #1f77b4; stroke-width: 1.5"/>
    <path d="M 325.55051 157.248 
L 337.829426 157.248 
" clip-path="url(#p3287eab99e)" style="fill: none; stroke: #1f77b4; stroke-width: 1.5"/>
    <path d="M 352.836991 153.238276 
L 365.115907 153.238276 
" clip-path="url(#p3287eab99e)" style="fill: none; stroke: #1f77b4; stroke-width: 1.5"/>
    <path d="M 380.068898 164.312751 
L 392.347815 164.312751 
" clip-path="url(#p3287eab99e)" style="fill: none; stroke: #1f77b4; stroke-width: 1.5"/>
   </g>
   <g id="LineCollection_4">
    <path d="M 86.111644 295.488 
L 86.111644 78.771978 
" clip-path="url(#p3287eab99e)" style="fill: none; stroke: #1f77b4; stroke-width: 1.5"/>
    <path d="M 113.398124 232.287116 
L 113.398124 88.700818 
" clip-path="url(#p3287eab99e)" style="fill: none; stroke: #1f77b4; stroke-width: 1.5"/>
    <path d="M 140.684605 270.85684 
L 140.684605 85.836729 
" clip-path="url(#p3287eab99e)" style="fill: none; stroke: #1f77b4; stroke-width: 1.5"/>
    <path d="M 167.971085 169.65905 
L 167.971085 73.23474 
" clip-path="url(#p3287eab99e)" style="fill: none; stroke: #1f77b4; stroke-width: 1.5"/>
    <path d="M 195.257566 170.613746 
L 195.257566 58.914298 
" clip-path="url(#p3287eab99e)" style="fill: none; stroke: #1f77b4; stroke-width: 1.5"/>
    <path d="M 222.544046 150.756066 
L 222.544046 57.768663 
" clip-path="url(#p3287eab99e)" style="fill: none; stroke: #1f77b4; stroke-width: 1.5"/>
    <path d="M 249.830527 151.519823 
L 249.830527 57.577724 
" clip-path="url(#p3287eab99e)" style="fill: none; stroke: #1f77b4; stroke-width: 1.5"/>
    <path d="M 277.117007 165.076508 
L 277.117007 63.878718 
" clip-path="url(#p3287eab99e)" style="fill: none; stroke: #1f77b4; stroke-width: 1.5"/>
    <path d="M 304.403488 157.629878 
L 304.403488 58.341481 
" clip-path="url(#p3287eab99e)" style="fill: none; stroke: #1f77b4; stroke-width: 1.5"/>
    <path d="M 331.689968 157.248 
L 331.689968 53.568 
" clip-path="url(#p3287eab99e)" style="fill: none; stroke: #1f77b4; stroke-width: 1.5"/>
    <path d="M 358.976449 153.238276 
L 358.976449 61.01463 
" clip-path="url(#p3287eab99e)" style="fill: none; stroke: #1f77b4; stroke-width: 1.5"/>
    <path d="M 386.208356 164.312751 
L 386.208356 67.124685 
" clip-path="url(#p3287eab99e)" style="fill: none; stroke: #1f77b4; stroke-width: 1.5"/>
   </g>
   <g id="line2d_15">
    <path d="M 86.111644 140.847848 
L 113.398124 135.299154 
L 140.684605 127.797534 
L 167.971085 110.98037 
L 195.257566 110.445741 
L 222.544046 95.812922 
L 249.830527 97.652812 
L 277.117007 104.085173 
L 304.403488 101.280658 
L 331.689968 100.548979 
L 358.976449 103.013622 
L 386.208356 104.186753 
" clip-path="url(#p3287eab99e)" style="fill: none; stroke: #4682b4; stroke-width: 1.5; stroke-linecap: square"/>
   </g>
   <g id="patch_3">
    <path d="M 57.6 307.584 
L 57.6 41.472 
" style="fill: none; stroke: #000000; stroke-width: 0.8; stroke-linejoin: miter; stroke-linecap: square"/>
   </g>
   <g id="patch_4">
    <path d="M 414.72 307.584 
L 414.72 41.472 
" style="fill: none; stroke: #000000; stroke-width: 0.8; stroke-linejoin: miter; stroke-linecap: square"/>
   </g>
   <g id="patch_5">
    <path d="M 57.6 307.584 
L 414.72 307.584 
" style="fill: none; stroke: #000000; stroke-width: 0.8; stroke-linejoin: miter; stroke-linecap: square"/>
   </g>
   <g id="patch_6">
    <path d="M 57.6 41.472 
L 414.72 41.472 
" style="fill: none; stroke: #000000; stroke-width: 0.8; stroke-linejoin: miter; stroke-linecap: square"/>
   </g>
   <g id="text_17">
    <!-- Violinplot for progress of profits/by_selling_refurbished -->
    <g transform="translate(72.470625 35.472)scale(0.12 -0.12)">
     <defs>
      <path id="DejaVuSans-56" d="M 1831 0 
L 50 4666 
L 709 4666 
L 2188 738 
L 3669 4666 
L 4325 4666 
L 2547 0 
L 1831 0 
z
" transform="scale(0.015625)"/>
      <path id="DejaVuSans-6c" d="M 603 4863 
L 1178 4863 
L 1178 0 
L 603 0 
L 603 4863 
z
" transform="scale(0.015625)"/>
      <path id="DejaVuSans-66" d="M 2375 4863 
L 2375 4384 
L 1825 4384 
Q 1516 4384 1395 4259 
Q 1275 4134 1275 3809 
L 1275 3500 
L 2222 3500 
L 2222 3053 
L 1275 3053 
L 1275 0 
L 697 0 
L 697 3053 
L 147 3053 
L 147 3500 
L 697 3500 
L 697 3744 
Q 697 4328 969 4595 
Q 1241 4863 1831 4863 
L 2375 4863 
z
" transform="scale(0.015625)"/>
      <path id="DejaVuSans-67" d="M 2906 1791 
Q 2906 2416 2648 2759 
Q 2391 3103 1925 3103 
Q 1463 3103 1205 2759 
Q 947 2416 947 1791 
Q 947 1169 1205 825 
Q 1463 481 1925 481 
Q 2391 481 2648 825 
Q 2906 1169 2906 1791 
z
M 3481 434 
Q 3481 -459 3084 -895 
Q 2688 -1331 1869 -1331 
Q 1566 -1331 1297 -1286 
Q 1028 -1241 775 -1147 
L 775 -588 
Q 1028 -725 1275 -790 
Q 1522 -856 1778 -856 
Q 2344 -856 2625 -561 
Q 2906 -266 2906 331 
L 2906 616 
Q 2728 306 2450 153 
Q 2172 0 1784 0 
Q 1141 0 747 490 
Q 353 981 353 1791 
Q 353 2603 747 3093 
Q 1141 3584 1784 3584 
Q 2172 3584 2450 3431 
Q 2728 3278 2906 2969 
L 2906 3500 
L 3481 3500 
L 3481 434 
z
" transform="scale(0.015625)"/>
      <path id="DejaVuSans-2f" d="M 1625 4666 
L 2156 4666 
L 531 -594 
L 0 -594 
L 1625 4666 
z
" transform="scale(0.015625)"/>
      <path id="DejaVuSans-62" d="M 3116 1747 
Q 3116 2381 2855 2742 
Q 2594 3103 2138 3103 
Q 1681 3103 1420 2742 
Q 1159 2381 1159 1747 
Q 1159 1113 1420 752 
Q 1681 391 2138 391 
Q 2594 391 2855 752 
Q 3116 1113 3116 1747 
z
M 1159 2969 
Q 1341 3281 1617 3432 
Q 1894 3584 2278 3584 
Q 2916 3584 3314 3078 
Q 3713 2572 3713 1747 
Q 3713 922 3314 415 
Q 2916 -91 2278 -91 
Q 1894 -91 1617 61 
Q 1341 213 1159 525 
L 1159 0 
L 581 0 
L 581 4863 
L 1159 4863 
L 1159 2969 
z
" transform="scale(0.015625)"/>
      <path id="DejaVuSans-5f" d="M 3263 -1063 
L 3263 -1509 
L -63 -1509 
L -63 -1063 
L 3263 -1063 
z
" transform="scale(0.015625)"/>
      <path id="DejaVuSans-75" d="M 544 1381 
L 544 3500 
L 1119 3500 
L 1119 1403 
Q 1119 906 1312 657 
Q 1506 409 1894 409 
Q 2359 409 2629 706 
Q 2900 1003 2900 1516 
L 2900 3500 
L 3475 3500 
L 3475 0 
L 2900 0 
L 2900 538 
Q 2691 219 2414 64 
Q 2138 -91 1772 -91 
Q 1169 -91 856 284 
Q 544 659 544 1381 
z
M 1991 3584 
L 1991 3584 
z
" transform="scale(0.015625)"/>
      <path id="DejaVuSans-68" d="M 3513 2113 
L 3513 0 
L 2938 0 
L 2938 2094 
Q 2938 2591 2744 2837 
Q 2550 3084 2163 3084 
Q 1697 3084 1428 2787 
Q 1159 2491 1159 1978 
L 1159 0 
L 581 0 
L 581 4863 
L 1159 4863 
L 1159 2956 
Q 1366 3272 1645 3428 
Q 1925 3584 2291 3584 
Q 2894 3584 3203 3211 
Q 3513 2838 3513 2113 
z
" transform="scale(0.015625)"/>
     </defs>
     <use xlink:href="#DejaVuSans-56"/>
     <use xlink:href="#DejaVuSans-69" x="66.158203"/>
     <use xlink:href="#DejaVuSans-6f" x="93.941406"/>
     <use xlink:href="#DejaVuSans-6c" x="155.123047"/>
     <use xlink:href="#DejaVuSans-69" x="182.90625"/>
     <use xlink:href="#DejaVuSans-6e" x="210.689453"/>
     <use xlink:href="#DejaVuSans-70" x="274.068359"/>
     <use xlink:href="#DejaVuSans-6c" x="337.544922"/>
     <use xlink:href="#DejaVuSans-6f" x="365.328125"/>
     <use xlink:href="#DejaVuSans-74" x="426.509766"/>
     <use xlink:href="#DejaVuSans-20" x="465.71875"/>
     <use xlink:href="#DejaVuSans-66" x="497.505859"/>
     <use xlink:href="#DejaVuSans-6f" x="532.710938"/>
     <use xlink:href="#DejaVuSans-72" x="593.892578"/>
     <use xlink:href="#DejaVuSans-20" x="635.005859"/>
     <use xlink:href="#DejaVuSans-70" x="666.792969"/>
     <use xlink:href="#DejaVuSans-72" x="730.269531"/>
     <use xlink:href="#DejaVuSans-6f" x="769.132812"/>
     <use xlink:href="#DejaVuSans-67" x="830.314453"/>
     <use xlink:href="#DejaVuSans-72" x="893.791016"/>
     <use xlink:href="#DejaVuSans-65" x="932.654297"/>
     <use xlink:href="#DejaVuSans-73" x="994.177734"/>
     <use xlink:href="#DejaVuSans-73" x="1046.277344"/>
     <use xlink:href="#DejaVuSans-20" x="1098.376953"/>
     <use xlink:href="#DejaVuSans-6f" x="1130.164062"/>
     <use xlink:href="#DejaVuSans-66" x="1191.345703"/>
     <use xlink:href="#DejaVuSans-20" x="1226.550781"/>
     <use xlink:href="#DejaVuSans-70" x="1258.337891"/>
     <use xlink:href="#DejaVuSans-72" x="1321.814453"/>
     <use xlink:href="#DejaVuSans-6f" x="1360.677734"/>
     <use xlink:href="#DejaVuSans-66" x="1421.859375"/>
     <use xlink:href="#DejaVuSans-69" x="1457.064453"/>
     <use xlink:href="#DejaVuSans-74" x="1484.847656"/>
     <use xlink:href="#DejaVuSans-73" x="1524.056641"/>
     <use xlink:href="#DejaVuSans-2f" x="1576.15625"/>
     <use xlink:href="#DejaVuSans-62" x="1609.847656"/>
     <use xlink:href="#DejaVuSans-79" x="1673.324219"/>
     <use xlink:href="#DejaVuSans-5f" x="1732.503906"/>
     <use xlink:href="#DejaVuSans-73" x="1782.503906"/>
     <use xlink:href="#DejaVuSans-65" x="1834.603516"/>
     <use xlink:href="#DejaVuSans-6c" x="1896.126953"/>
     <use xlink:href="#DejaVuSans-6c" x="1923.910156"/>
     <use xlink:href="#DejaVuSans-69" x="1951.693359"/>
     <use xlink:href="#DejaVuSans-6e" x="1979.476562"/>
     <use xlink:href="#DejaVuSans-67" x="2042.855469"/>
     <use xlink:href="#DejaVuSans-5f" x="2106.332031"/>
     <use xlink:href="#DejaVuSans-72" x="2156.332031"/>
     <use xlink:href="#DejaVuSans-65" x="2195.195312"/>
     <use xlink:href="#DejaVuSans-66" x="2256.71875"/>
     <use xlink:href="#DejaVuSans-75" x="2291.923828"/>
     <use xlink:href="#DejaVuSans-72" x="2355.302734"/>
     <use xlink:href="#DejaVuSans-62" x="2396.416016"/>
     <use xlink:href="#DejaVuSans-69" x="2459.892578"/>
     <use xlink:href="#DejaVuSans-73" x="2487.675781"/>
     <use xlink:href="#DejaVuSans-68" x="2539.775391"/>
     <use xlink:href="#DejaVuSans-65" x="2603.154297"/>
     <use xlink:href="#DejaVuSans-64" x="2664.677734"/>
    </g>
   </g>
   <g id="legend_1">
    <g id="patch_7">
     <path d="M 284.430938 64.150125 
L 407.72 64.150125 
Q 409.72 64.150125 409.72 62.150125 
L 409.72 48.472 
Q 409.72 46.472 407.72 46.472 
L 284.430938 46.472 
Q 282.430938 46.472 282.430938 48.472 
L 282.430938 62.150125 
Q 282.430938 64.150125 284.430938 64.150125 
z
" style="fill: #ffffff; opacity: 0.8; stroke: #cccccc; stroke-linejoin: miter"/>
    </g>
    <g id="line2d_16">
     <path d="M 286.430938 54.570438 
L 296.430938 54.570438 
L 306.430938 54.570438 
" style="fill: none; stroke: #4682b4; stroke-width: 1.5; stroke-linecap: square"/>
    </g>
    <g id="text_18">
     <!-- Storage-Minimizer -->
     <g transform="translate(314.430938 58.070438)scale(0.1 -0.1)">
      <defs>
       <path id="DejaVuSans-53" d="M 3425 4513 
L 3425 3897 
Q 3066 4069 2747 4153 
Q 2428 4238 2131 4238 
Q 1616 4238 1336 4038 
Q 1056 3838 1056 3469 
Q 1056 3159 1242 3001 
Q 1428 2844 1947 2747 
L 2328 2669 
Q 3034 2534 3370 2195 
Q 3706 1856 3706 1288 
Q 3706 609 3251 259 
Q 2797 -91 1919 -91 
Q 1588 -91 1214 -16 
Q 841 59 441 206 
L 441 856 
Q 825 641 1194 531 
Q 1563 422 1919 422 
Q 2459 422 2753 634 
Q 3047 847 3047 1241 
Q 3047 1584 2836 1778 
Q 2625 1972 2144 2069 
L 1759 2144 
Q 1053 2284 737 2584 
Q 422 2884 422 3419 
Q 422 4038 858 4394 
Q 1294 4750 2059 4750 
Q 2388 4750 2728 4690 
Q 3069 4631 3425 4513 
z
" transform="scale(0.015625)"/>
       <path id="DejaVuSans-2d" d="M 313 2009 
L 1997 2009 
L 1997 1497 
L 313 1497 
L 313 2009 
z
" transform="scale(0.015625)"/>
       <path id="DejaVuSans-4d" d="M 628 4666 
L 1569 4666 
L 2759 1491 
L 3956 4666 
L 4897 4666 
L 4897 0 
L 4281 0 
L 4281 4097 
L 3078 897 
L 2444 897 
L 1241 4097 
L 1241 0 
L 628 0 
L 628 4666 
z
" transform="scale(0.015625)"/>
       <path id="DejaVuSans-6d" d="M 3328 2828 
Q 3544 3216 3844 3400 
Q 4144 3584 4550 3584 
Q 5097 3584 5394 3201 
Q 5691 2819 5691 2113 
L 5691 0 
L 5113 0 
L 5113 2094 
Q 5113 2597 4934 2840 
Q 4756 3084 4391 3084 
Q 3944 3084 3684 2787 
Q 3425 2491 3425 1978 
L 3425 0 
L 2847 0 
L 2847 2094 
Q 2847 2600 2669 2842 
Q 2491 3084 2119 3084 
Q 1678 3084 1418 2786 
Q 1159 2488 1159 1978 
L 1159 0 
L 581 0 
L 581 3500 
L 1159 3500 
L 1159 2956 
Q 1356 3278 1631 3431 
Q 1906 3584 2284 3584 
Q 2666 3584 2933 3390 
Q 3200 3197 3328 2828 
z
" transform="scale(0.015625)"/>
       <path id="DejaVuSans-7a" d="M 353 3500 
L 3084 3500 
L 3084 2975 
L 922 459 
L 3084 459 
L 3084 0 
L 275 0 
L 275 525 
L 2438 3041 
L 353 3041 
L 353 3500 
z
" transform="scale(0.015625)"/>
      </defs>
      <use xlink:href="#DejaVuSans-53"/>
      <use xlink:href="#DejaVuSans-74" x="63.476562"/>
      <use xlink:href="#DejaVuSans-6f" x="102.685547"/>
      <use xlink:href="#DejaVuSans-72" x="163.867188"/>
      <use xlink:href="#DejaVuSans-61" x="204.980469"/>
      <use xlink:href="#DejaVuSans-67" x="266.259766"/>
      <use xlink:href="#DejaVuSans-65" x="329.736328"/>
      <use xlink:href="#DejaVuSans-2d" x="391.259766"/>
      <use xlink:href="#DejaVuSans-4d" x="427.34375"/>
      <use xlink:href="#DejaVuSans-69" x="513.623047"/>
      <use xlink:href="#DejaVuSans-6e" x="541.40625"/>
      <use xlink:href="#DejaVuSans-69" x="604.785156"/>
      <use xlink:href="#DejaVuSans-6d" x="632.568359"/>
      <use xlink:href="#DejaVuSans-69" x="729.980469"/>
      <use xlink:href="#DejaVuSans-7a" x="757.763672"/>
      <use xlink:href="#DejaVuSans-65" x="810.253906"/>
      <use xlink:href="#DejaVuSans-72" x="871.777344"/>
     </g>
    </g>
   </g>
  </g>
 </g>
 <defs>
  <clipPath id="p3287eab99e">
   <rect x="57.6" y="41.472" width="357.12" height="266.112"/>
  </clipPath>
 </defs>
</svg>
