<?xml version="1.0" encoding="utf-8" standalone="no"?>
<!DOCTYPE svg PUBLIC "-//W3C//DTD SVG 1.1//EN"
  "http://www.w3.org/Graphics/SVG/1.1/DTD/svg11.dtd">
<svg xmlns:xlink="http://www.w3.org/1999/xlink" width="460.8pt" height="345.6pt" viewBox="0 0 460.8 345.6" xmlns="http://www.w3.org/2000/svg" version="1.1">
 <metadata>
  <rdf:RDF xmlns:dc="http://purl.org/dc/elements/1.1/" xmlns:cc="http://creativecommons.org/ns#" xmlns:rdf="http://www.w3.org/1999/02/22-rdf-syntax-ns#">
   <cc:Work>
    <dc:type rdf:resource="http://purl.org/dc/dcmitype/StillImage"/>
    <dc:date>2022-06-16T13:18:30.316821</dc:date>
    <dc:format>image/svg+xml</dc:format>
    <dc:creator>
     <cc:Agent>
      <dc:title>Matplotlib v3.5.2, https://matplotlib.org/</dc:title>
     </cc:Agent>
    </dc:creator>
   </cc:Work>
  </rdf:RDF>
 </metadata>
 <defs>
  <style type="text/css">*{stroke-linejoin: round; stroke-linecap: butt}</style>
 </defs>
 <g id="figure_1">
  <g id="patch_1">
   <path d="M 0 345.6 
L 460.8 345.6 
L 460.8 0 
L 0 0 
z
" style="fill: #ffffff"/>
  </g>
  <g id="axes_1">
   <g id="patch_2">
    <path d="M 57.6 307.584 
L 414.72 307.584 
L 414.72 41.472 
L 57.6 41.472 
z
" style="fill: #ffffff"/>
   </g>
   <g id="PolyCollection_1">
    <path d="M 87.007898 279.818616 
L 85.215389 279.818616 
L 85.125778 277.533256 
L 85.040012 275.247897 
L 84.959941 272.962537 
L 84.8871 270.677177 
L 84.822569 268.391817 
L 84.766835 266.106458 
L 84.719683 263.821098 
L 84.68013 261.535738 
L 84.646385 259.250378 
L 84.615883 256.965019 
L 84.585355 254.679659 
L 84.55097 252.394299 
L 84.508519 250.108939 
L 84.453644 247.823579 
L 84.382097 245.53822 
L 84.290005 243.25286 
L 84.174121 240.9675 
L 84.032039 238.68214 
L 83.862363 236.396781 
L 83.66479 234.111421 
L 83.44012 231.826061 
L 83.190174 229.540701 
L 82.917634 227.255342 
L 82.625807 224.969982 
L 82.318351 222.684622 
L 81.998965 220.399262 
L 81.671092 218.113903 
L 81.337656 215.828543 
L 81.000855 213.543183 
L 80.662038 211.257823 
L 80.321678 208.972464 
L 79.979435 206.687104 
L 79.634326 204.401744 
L 79.28495 202.116384 
L 78.929788 199.831025 
L 78.567518 197.545665 
L 78.197326 195.260305 
L 77.819188 192.974945 
L 77.434087 190.689586 
L 77.044155 188.404226 
L 76.652715 186.118866 
L 76.264224 183.833506 
L 75.884124 181.548146 
L 75.518597 179.262787 
L 75.174255 176.977427 
L 74.857784 174.692067 
L 74.575552 172.406707 
L 74.333239 170.121348 
L 74.135483 167.835988 
L 73.985594 165.550628 
L 73.885351 163.265268 
L 73.834893 160.979909 
L 73.832727 158.694549 
L 73.875845 156.409189 
L 73.959945 154.123829 
L 74.079747 151.83847 
L 74.229362 149.55311 
L 74.402694 147.26775 
L 74.59384 144.98239 
L 74.797442 142.697031 
L 75.00897 140.411671 
L 75.224911 138.126311 
L 75.442842 135.840951 
L 75.661403 133.555592 
L 75.880159 131.270232 
L 76.099391 128.984872 
L 76.319836 126.699512 
L 76.54241 124.414153 
L 76.767959 122.128793 
L 76.997045 119.843433 
L 77.229816 117.558073 
L 77.46595 115.272713 
L 77.704677 112.987354 
L 77.944864 110.701994 
L 78.185143 108.416634 
L 78.42405 106.131274 
L 78.66015 103.845915 
L 78.892117 101.560555 
L 79.118775 99.275195 
L 79.33908 96.989835 
L 79.552067 94.704476 
L 79.756786 92.419116 
L 79.952243 90.133756 
L 80.13739 87.848396 
L 80.311168 85.563037 
L 80.472633 83.277677 
L 80.621135 80.992317 
L 80.756556 78.706957 
L 80.879542 76.421598 
L 80.991714 74.136238 
L 81.095788 71.850878 
L 81.195587 69.565518 
L 81.295894 67.280159 
L 81.402173 64.994799 
L 81.520146 62.709439 
L 81.655284 60.424079 
L 81.812272 58.13872 
L 81.994496 55.85336 
L 82.203638 53.568 
L 90.019649 53.568 
L 90.019649 53.568 
L 90.228791 55.85336 
L 90.411015 58.13872 
L 90.568003 60.424079 
L 90.703142 62.709439 
L 90.821114 64.994799 
L 90.927393 67.280159 
L 91.0277 69.565518 
L 91.127499 71.850878 
L 91.231574 74.136238 
L 91.343745 76.421598 
L 91.466731 78.706957 
L 91.602152 80.992317 
L 91.750654 83.277677 
L 91.912119 85.563037 
L 92.085897 87.848396 
L 92.271044 90.133756 
L 92.466501 92.419116 
L 92.67122 94.704476 
L 92.884207 96.989835 
L 93.104512 99.275195 
L 93.33117 101.560555 
L 93.563137 103.845915 
L 93.799237 106.131274 
L 94.038144 108.416634 
L 94.278424 110.701994 
L 94.51861 112.987354 
L 94.757337 115.272713 
L 94.993471 117.558073 
L 95.226242 119.843433 
L 95.455328 122.128793 
L 95.680877 124.414153 
L 95.903451 126.699512 
L 96.123896 128.984872 
L 96.343128 131.270232 
L 96.561884 133.555592 
L 96.780445 135.840951 
L 96.998376 138.126311 
L 97.214317 140.411671 
L 97.425845 142.697031 
L 97.629447 144.98239 
L 97.820593 147.26775 
L 97.993925 149.55311 
L 98.14354 151.83847 
L 98.263342 154.123829 
L 98.347442 156.409189 
L 98.39056 158.694549 
L 98.388394 160.979909 
L 98.337936 163.265268 
L 98.237693 165.550628 
L 98.087804 167.835988 
L 97.890048 170.121348 
L 97.647735 172.406707 
L 97.365503 174.692067 
L 97.049032 176.977427 
L 96.70469 179.262787 
L 96.339163 181.548146 
L 95.959063 183.833506 
L 95.570572 186.118866 
L 95.179132 188.404226 
L 94.7892 190.689586 
L 94.404099 192.974945 
L 94.025961 195.260305 
L 93.655769 197.545665 
L 93.293499 199.831025 
L 92.938337 202.116384 
L 92.588961 204.401744 
L 92.243852 206.687104 
L 91.901609 208.972464 
L 91.561249 211.257823 
L 91.222432 213.543183 
L 90.885631 215.828543 
L 90.552195 218.113903 
L 90.224322 220.399262 
L 89.904936 222.684622 
L 89.59748 224.969982 
L 89.305654 227.255342 
L 89.033113 229.540701 
L 88.783167 231.826061 
L 88.558497 234.111421 
L 88.360924 236.396781 
L 88.191248 238.68214 
L 88.049166 240.9675 
L 87.933282 243.25286 
L 87.84119 245.53822 
L 87.769643 247.823579 
L 87.714768 250.108939 
L 87.672317 252.394299 
L 87.637932 254.679659 
L 87.607404 256.965019 
L 87.576902 259.250378 
L 87.543157 261.535738 
L 87.503604 263.821098 
L 87.456452 266.106458 
L 87.400718 268.391817 
L 87.336187 270.677177 
L 87.263346 272.962537 
L 87.183275 275.247897 
L 87.097509 277.533256 
L 87.007898 279.818616 
z
" clip-path="url(#p809bd83cca)" style="fill: #1f77b4; fill-opacity: 0.3"/>
   </g>
   <g id="PolyCollection_2">
    <path d="M 113.753621 276.761175 
L 113.042627 276.761175 
L 112.996184 274.506699 
L 112.945755 272.252222 
L 112.890952 269.997746 
L 112.831347 267.743269 
L 112.766505 265.488793 
L 112.69602 263.234316 
L 112.61956 260.97984 
L 112.536915 258.725363 
L 112.448043 256.470887 
L 112.353103 254.21641 
L 112.25248 251.961934 
L 112.146794 249.707457 
L 112.036874 247.452981 
L 111.923723 245.198504 
L 111.808451 242.944028 
L 111.69219 240.689551 
L 111.576001 238.435075 
L 111.460782 236.180598 
L 111.34718 233.926121 
L 111.235524 231.671645 
L 111.125787 229.417168 
L 111.017573 227.162692 
L 110.910142 224.908215 
L 110.802446 222.653739 
L 110.693198 220.399262 
L 110.580933 218.144786 
L 110.46408 215.890309 
L 110.341007 213.635833 
L 110.210055 211.381356 
L 110.069548 209.12688 
L 109.917777 206.872403 
L 109.752978 204.617927 
L 109.573303 202.36345 
L 109.376798 200.108974 
L 109.161405 197.854497 
L 108.92501 195.600021 
L 108.665514 193.345544 
L 108.380971 191.091068 
L 108.069752 188.836591 
L 107.730745 186.582115 
L 107.363573 184.327638 
L 106.968794 182.073162 
L 106.548084 179.818685 
L 106.104362 177.564209 
L 105.641848 175.309732 
L 105.166042 173.055255 
L 104.683608 170.800779 
L 104.202175 168.546302 
L 103.730056 166.291826 
L 103.275894 164.037349 
L 102.848281 161.782873 
L 102.455348 159.528396 
L 102.10439 157.27392 
L 101.801532 155.019443 
L 101.551484 152.764967 
L 101.357395 150.51049 
L 101.220831 148.256014 
L 101.141854 146.001537 
L 101.119208 143.747061 
L 101.150573 141.492584 
L 101.232859 139.238108 
L 101.362494 136.983631 
L 101.53568 134.729155 
L 101.748593 132.474678 
L 101.997496 130.220202 
L 102.278784 127.965725 
L 102.588951 125.711249 
L 102.924516 123.456772 
L 103.281914 121.202296 
L 103.657395 118.947819 
L 104.046939 116.693343 
L 104.446209 114.438866 
L 104.850544 112.184389 
L 105.255005 109.929913 
L 105.654443 107.675436 
L 106.043613 105.42096 
L 106.417285 103.166483 
L 106.77038 100.912007 
L 107.098091 98.65753 
L 107.396015 96.403054 
L 107.660273 94.148577 
L 107.88764 91.894101 
L 108.075686 89.639624 
L 108.222926 87.385148 
L 108.328991 85.130671 
L 108.394809 82.876195 
L 108.422786 80.621718 
L 108.416955 78.367242 
L 108.383079 76.112765 
L 108.328646 73.858289 
L 108.262744 71.603812 
L 108.195764 69.349336 
L 108.138944 67.094859 
L 108.103738 64.840383 
L 108.101066 62.585906 
L 108.140506 60.33143 
L 108.229503 58.076953 
L 108.372704 55.822477 
L 108.571486 53.568 
L 118.224762 53.568 
L 118.224762 53.568 
L 118.423544 55.822477 
L 118.566745 58.076953 
L 118.655742 60.33143 
L 118.695182 62.585906 
L 118.69251 64.840383 
L 118.657304 67.094859 
L 118.600484 69.349336 
L 118.533505 71.603812 
L 118.467602 73.858289 
L 118.413169 76.112765 
L 118.379293 78.367242 
L 118.373462 80.621718 
L 118.401439 82.876195 
L 118.467257 85.130671 
L 118.573322 87.385148 
L 118.720562 89.639624 
L 118.908608 91.894101 
L 119.135975 94.148577 
L 119.400233 96.403054 
L 119.698157 98.65753 
L 120.025868 100.912007 
L 120.378963 103.166483 
L 120.752635 105.42096 
L 121.141805 107.675436 
L 121.541244 109.929913 
L 121.945704 112.184389 
L 122.35004 114.438866 
L 122.749309 116.693343 
L 123.138853 118.947819 
L 123.514334 121.202296 
L 123.871732 123.456772 
L 124.207297 125.711249 
L 124.517465 127.965725 
L 124.798752 130.220202 
L 125.047655 132.474678 
L 125.260568 134.729155 
L 125.433754 136.983631 
L 125.563389 139.238108 
L 125.645675 141.492584 
L 125.67704 143.747061 
L 125.654394 146.001537 
L 125.575417 148.256014 
L 125.438853 150.51049 
L 125.244764 152.764967 
L 124.994716 155.019443 
L 124.691858 157.27392 
L 124.3409 159.528396 
L 123.947967 161.782873 
L 123.520354 164.037349 
L 123.066192 166.291826 
L 122.594073 168.546302 
L 122.112641 170.800779 
L 121.630207 173.055255 
L 121.1544 175.309732 
L 120.691886 177.564209 
L 120.248164 179.818685 
L 119.827454 182.073162 
L 119.432675 184.327638 
L 119.065503 186.582115 
L 118.726496 188.836591 
L 118.415277 191.091068 
L 118.130734 193.345544 
L 117.871238 195.600021 
L 117.634843 197.854497 
L 117.419451 200.108974 
L 117.222945 202.36345 
L 117.04327 204.617927 
L 116.878472 206.872403 
L 116.7267 209.12688 
L 116.586193 211.381356 
L 116.455241 213.635833 
L 116.332168 215.890309 
L 116.215315 218.144786 
L 116.10305 220.399262 
L 115.993802 222.653739 
L 115.886106 224.908215 
L 115.778675 227.162692 
L 115.670462 229.417168 
L 115.560724 231.671645 
L 115.449068 233.926121 
L 115.335466 236.180598 
L 115.220247 238.435075 
L 115.104058 240.689551 
L 114.987797 242.944028 
L 114.872525 245.198504 
L 114.759374 247.452981 
L 114.649455 249.707457 
L 114.543768 251.961934 
L 114.443146 254.21641 
L 114.348205 256.470887 
L 114.259333 258.725363 
L 114.176689 260.97984 
L 114.100228 263.234316 
L 114.029743 265.488793 
L 113.964901 267.743269 
L 113.905296 269.997746 
L 113.850493 272.252222 
L 113.800064 274.506699 
L 113.753621 276.761175 
z
" clip-path="url(#p809bd83cca)" style="fill: #1f77b4; fill-opacity: 0.3"/>
   </g>
   <g id="PolyCollection_3">
    <path d="M 141.518591 261.091791 
L 139.850619 261.091791 
L 139.769778 258.995592 
L 139.692275 256.899392 
L 139.619403 254.803192 
L 139.55209 252.706992 
L 139.490798 250.610792 
L 139.435456 248.514592 
L 139.385426 246.418392 
L 139.339501 244.322192 
L 139.295958 242.225992 
L 139.252636 240.129792 
L 139.207045 238.033592 
L 139.156507 235.937393 
L 139.098299 233.841193 
L 139.029798 231.744993 
L 138.94863 229.648793 
L 138.852786 227.552593 
L 138.740726 225.456393 
L 138.61146 223.360193 
L 138.464593 221.263993 
L 138.300346 219.167793 
L 138.119549 217.071593 
L 137.923605 214.975393 
L 137.71442 212.879193 
L 137.494314 210.782994 
L 137.265896 208.686794 
L 137.031919 206.590594 
L 136.795119 204.494394 
L 136.558041 202.398194 
L 136.322876 200.301994 
L 136.091305 198.205794 
L 135.864387 196.109594 
L 135.642474 194.013394 
L 135.425185 191.917194 
L 135.211426 189.820994 
L 134.999458 187.724794 
L 134.787001 185.628595 
L 134.571372 183.532395 
L 134.349641 181.436195 
L 134.118787 179.339995 
L 133.875876 177.243795 
L 133.618225 175.147595 
L 133.343582 173.051395 
L 133.050307 170.955195 
L 132.737561 168.858995 
L 132.405495 166.762795 
L 132.05542 164.666595 
L 131.689959 162.570396 
L 131.313124 160.474196 
L 130.930317 158.377996 
L 130.548221 156.281796 
L 130.174566 154.185596 
L 129.817761 152.089396 
L 129.486428 149.993196 
L 129.188857 147.896996 
L 128.932435 145.800796 
L 128.723112 143.704596 
L 128.564969 141.608396 
L 128.459929 139.512196 
L 128.407662 137.415997 
L 128.405688 135.319797 
L 128.449676 133.223597 
L 128.533893 131.127397 
L 128.651758 129.031197 
L 128.796438 126.934997 
L 128.961409 124.838797 
L 129.140931 122.742597 
L 129.330397 120.646397 
L 129.526516 118.550197 
L 129.727343 116.453997 
L 129.932159 114.357798 
L 130.141236 112.261598 
L 130.355516 110.165398 
L 130.576258 108.069198 
L 130.804685 105.972998 
L 131.041665 103.876798 
L 131.287468 101.780598 
L 131.541589 99.684398 
L 131.802684 97.588198 
L 132.068586 95.491998 
L 132.336412 93.395798 
L 132.602743 91.299598 
L 132.863873 89.203399 
L 133.11608 87.107199 
L 133.355931 85.010999 
L 133.580586 82.914799 
L 133.788078 80.818599 
L 133.977556 78.722399 
L 134.149467 76.626199 
L 134.305665 74.529999 
L 134.44941 72.433799 
L 134.585265 70.337599 
L 134.718869 68.241399 
L 134.856585 66.145199 
L 135.005057 64.049 
L 135.170684 61.9528 
L 135.359075 59.8566 
L 135.574525 57.7604 
L 135.819575 55.6642 
L 136.094709 53.568 
L 145.2745 53.568 
L 145.2745 53.568 
L 145.549634 55.6642 
L 145.794684 57.7604 
L 146.010134 59.8566 
L 146.198525 61.9528 
L 146.364153 64.049 
L 146.512624 66.145199 
L 146.65034 68.241399 
L 146.783944 70.337599 
L 146.9198 72.433799 
L 147.063544 74.529999 
L 147.219742 76.626199 
L 147.391653 78.722399 
L 147.581131 80.818599 
L 147.788623 82.914799 
L 148.013278 85.010999 
L 148.25313 87.107199 
L 148.505336 89.203399 
L 148.766466 91.299598 
L 149.032798 93.395798 
L 149.300623 95.491998 
L 149.566525 97.588198 
L 149.82762 99.684398 
L 150.081742 101.780598 
L 150.327544 103.876798 
L 150.564525 105.972998 
L 150.792951 108.069198 
L 151.013693 110.165398 
L 151.227973 112.261598 
L 151.43705 114.357798 
L 151.641866 116.453997 
L 151.842693 118.550197 
L 152.038812 120.646397 
L 152.228278 122.742597 
L 152.407801 124.838797 
L 152.572771 126.934997 
L 152.717451 129.031197 
L 152.835316 131.127397 
L 152.919533 133.223597 
L 152.963521 135.319797 
L 152.961548 137.415997 
L 152.909281 139.512196 
L 152.804241 141.608396 
L 152.646097 143.704596 
L 152.436775 145.800796 
L 152.180352 147.896996 
L 151.882781 149.993196 
L 151.551448 152.089396 
L 151.194643 154.185596 
L 150.820988 156.281796 
L 150.438893 158.377996 
L 150.056086 160.474196 
L 149.67925 162.570396 
L 149.313789 164.666595 
L 148.963714 166.762795 
L 148.631648 168.858995 
L 148.318902 170.955195 
L 148.025628 173.051395 
L 147.750984 175.147595 
L 147.493333 177.243795 
L 147.250422 179.339995 
L 147.019568 181.436195 
L 146.797837 183.532395 
L 146.582209 185.628595 
L 146.369752 187.724794 
L 146.157783 189.820994 
L 145.944024 191.917194 
L 145.726736 194.013394 
L 145.504822 196.109594 
L 145.277904 198.205794 
L 145.046334 200.301994 
L 144.811168 202.398194 
L 144.57409 204.494394 
L 144.33729 206.590594 
L 144.103313 208.686794 
L 143.874895 210.782994 
L 143.654789 212.879193 
L 143.445605 214.975393 
L 143.24966 217.071593 
L 143.068863 219.167793 
L 142.904616 221.263993 
L 142.757749 223.360193 
L 142.628483 225.456393 
L 142.516423 227.552593 
L 142.420579 229.648793 
L 142.339411 231.744993 
L 142.270911 233.841193 
L 142.212702 235.937393 
L 142.162164 238.033592 
L 142.116573 240.129792 
L 142.073251 242.225992 
L 142.029708 244.322192 
L 141.983784 246.418392 
L 141.933753 248.514592 
L 141.878411 250.610792 
L 141.817119 252.706992 
L 141.749806 254.803192 
L 141.676934 256.899392 
L 141.599431 258.995592 
L 141.518591 261.091791 
z
" clip-path="url(#p809bd83cca)" style="fill: #1f77b4; fill-opacity: 0.3"/>
   </g>
   <g id="PolyCollection_4">
    <path d="M 168.248075 295.488 
L 167.694096 295.488 
L 167.67035 293.044364 
L 167.646245 290.600727 
L 167.621452 288.157091 
L 167.595524 285.713455 
L 167.567924 283.269818 
L 167.538045 280.826182 
L 167.505241 278.382545 
L 167.468853 275.938909 
L 167.428229 273.495273 
L 167.382739 271.051636 
L 167.331788 268.608 
L 167.274813 266.164364 
L 167.211281 263.720727 
L 167.140675 261.277091 
L 167.062477 258.833455 
L 166.976157 256.389818 
L 166.881166 253.946182 
L 166.776939 251.502545 
L 166.662922 249.058909 
L 166.538625 246.615273 
L 166.40369 244.171636 
L 166.257984 241.728 
L 166.101698 239.284364 
L 165.935427 236.840727 
L 165.76022 234.397091 
L 165.577575 231.953455 
L 165.389355 229.509818 
L 165.197625 227.066182 
L 165.00441 224.622545 
L 164.811394 222.178909 
L 164.619604 219.735273 
L 164.429105 217.291636 
L 164.238783 214.848 
L 164.046241 212.404364 
L 163.847848 209.960727 
L 163.63897 207.517091 
L 163.414349 205.073455 
L 163.168616 202.629818 
L 162.896882 200.186182 
L 162.595327 197.742545 
L 162.261724 195.298909 
L 161.895833 192.855273 
L 161.499614 190.411636 
L 161.077229 187.968 
L 160.634838 185.524364 
L 160.180218 183.080727 
L 159.722229 180.637091 
L 159.270214 178.193455 
L 158.83336 175.749818 
L 158.420106 173.306182 
L 158.037621 170.862545 
L 157.691405 168.418909 
L 157.385019 165.975273 
L 157.119957 163.531636 
L 156.895666 161.088 
L 156.709694 158.644364 
L 156.557968 156.200727 
L 156.435171 153.757091 
L 156.335213 151.313455 
L 156.251764 148.869818 
L 156.178813 146.426182 
L 156.111217 143.982545 
L 156.045187 141.538909 
L 155.978676 139.095273 
L 155.911608 136.651636 
L 155.845921 134.208 
L 155.78541 131.764364 
L 155.735372 129.320727 
L 155.702085 126.877091 
L 155.692169 124.433455 
L 155.711907 121.989818 
L 155.766594 119.546182 
L 155.859982 117.102545 
L 155.993892 114.658909 
L 156.168009 112.215273 
L 156.379868 109.771636 
L 156.625014 107.328 
L 156.897279 104.884364 
L 157.18914 102.440727 
L 157.492091 99.997091 
L 157.796995 97.553455 
L 158.094419 95.109818 
L 158.374943 92.666182 
L 158.629493 90.222545 
L 158.849735 87.778909 
L 159.028566 85.335273 
L 159.160717 82.891636 
L 159.243437 80.448 
L 159.277202 78.004364 
L 159.266322 75.560727 
L 159.219328 73.117091 
L 159.149003 70.673455 
L 159.071944 68.229818 
L 159.007631 65.786182 
L 158.977011 63.342545 
L 159.000731 60.898909 
L 159.097208 58.455273 
L 159.280765 56.011636 
L 159.560092 53.568 
L 176.382078 53.568 
L 176.382078 53.568 
L 176.661405 56.011636 
L 176.844962 58.455273 
L 176.941439 60.898909 
L 176.96516 63.342545 
L 176.934539 65.786182 
L 176.870226 68.229818 
L 176.793168 70.673455 
L 176.722842 73.117091 
L 176.675848 75.560727 
L 176.664968 78.004364 
L 176.698733 80.448 
L 176.781454 82.891636 
L 176.913604 85.335273 
L 177.092435 87.778909 
L 177.312677 90.222545 
L 177.567227 92.666182 
L 177.847751 95.109818 
L 178.145175 97.553455 
L 178.45008 99.997091 
L 178.75303 102.440727 
L 179.044892 104.884364 
L 179.317157 107.328 
L 179.562302 109.771636 
L 179.774161 112.215273 
L 179.948278 114.658909 
L 180.082189 117.102545 
L 180.175577 119.546182 
L 180.230263 121.989818 
L 180.250001 124.433455 
L 180.240086 126.877091 
L 180.206798 129.320727 
L 180.15676 131.764364 
L 180.096249 134.208 
L 180.030562 136.651636 
L 179.963494 139.095273 
L 179.896983 141.538909 
L 179.830954 143.982545 
L 179.763357 146.426182 
L 179.690406 148.869818 
L 179.606958 151.313455 
L 179.507 153.757091 
L 179.384202 156.200727 
L 179.232476 158.644364 
L 179.046505 161.088 
L 178.822213 163.531636 
L 178.557152 165.975273 
L 178.250765 168.418909 
L 177.90455 170.862545 
L 177.522065 173.306182 
L 177.10881 175.749818 
L 176.671956 178.193455 
L 176.219941 180.637091 
L 175.761953 183.080727 
L 175.307332 185.524364 
L 174.864942 187.968 
L 174.442556 190.411636 
L 174.046337 192.855273 
L 173.680447 195.298909 
L 173.346843 197.742545 
L 173.045288 200.186182 
L 172.773555 202.629818 
L 172.527822 205.073455 
L 172.3032 207.517091 
L 172.094322 209.960727 
L 171.89593 212.404364 
L 171.703387 214.848 
L 171.513066 217.291636 
L 171.322567 219.735273 
L 171.130776 222.178909 
L 170.93776 224.622545 
L 170.744545 227.066182 
L 170.552815 229.509818 
L 170.364595 231.953455 
L 170.18195 234.397091 
L 170.006744 236.840727 
L 169.840472 239.284364 
L 169.684186 241.728 
L 169.53848 244.171636 
L 169.403545 246.615273 
L 169.279248 249.058909 
L 169.165231 251.502545 
L 169.061004 253.946182 
L 168.966013 256.389818 
L 168.879693 258.833455 
L 168.801495 261.277091 
L 168.730889 263.720727 
L 168.667357 266.164364 
L 168.610382 268.608 
L 168.559431 271.051636 
L 168.513941 273.495273 
L 168.473317 275.938909 
L 168.436929 278.382545 
L 168.404126 280.826182 
L 168.374247 283.269818 
L 168.346646 285.713455 
L 168.320719 288.157091 
L 168.295925 290.600727 
L 168.27182 293.044364 
L 168.248075 295.488 
z
" clip-path="url(#p809bd83cca)" style="fill: #1f77b4; fill-opacity: 0.3"/>
   </g>
   <g id="PolyCollection_5">
    <path d="M 196.103336 256.88781 
L 194.411795 256.88781 
L 194.336399 254.834075 
L 194.259955 252.78034 
L 194.182421 250.726604 
L 194.103649 248.672869 
L 194.023421 246.619133 
L 193.941497 244.565398 
L 193.857655 242.511662 
L 193.771733 240.457927 
L 193.683635 238.404191 
L 193.593334 236.350456 
L 193.500834 234.29672 
L 193.406125 232.242985 
L 193.309107 230.189249 
L 193.20952 228.135514 
L 193.10687 226.081779 
L 193.000373 224.028043 
L 192.888932 221.974308 
L 192.771137 219.920572 
L 192.645316 217.866837 
L 192.509613 215.813101 
L 192.362102 213.759366 
L 192.200918 211.70563 
L 192.024395 209.651895 
L 191.831197 207.598159 
L 191.62042 205.544424 
L 191.391672 203.490688 
L 191.145105 201.436953 
L 190.881406 199.383218 
L 190.601757 197.329482 
L 190.307756 195.275747 
L 190.001326 193.222011 
L 189.684611 191.168276 
L 189.359871 189.11454 
L 189.029394 187.060805 
L 188.695414 185.007069 
L 188.360051 182.953334 
L 188.025264 180.899598 
L 187.692816 178.845863 
L 187.364254 176.792128 
L 187.04089 174.738392 
L 186.723797 172.684657 
L 186.413811 170.630921 
L 186.111544 168.577186 
L 185.817424 166.52345 
L 185.531738 164.469715 
L 185.254715 162.415979 
L 184.986614 160.362244 
L 184.727833 158.308508 
L 184.479025 156.254773 
L 184.241202 154.201037 
L 184.015823 152.147302 
L 183.804847 150.093567 
L 183.610738 148.039831 
L 183.43642 145.986096 
L 183.285169 143.93236 
L 183.160456 141.878625 
L 183.065742 139.824889 
L 183.004236 137.771154 
L 182.978649 135.717418 
L 182.990957 133.663683 
L 183.042192 131.609947 
L 183.1323 129.556212 
L 183.260066 127.502477 
L 183.423127 125.448741 
L 183.618081 123.395006 
L 183.840671 121.34127 
L 184.086045 119.287535 
L 184.349054 117.233799 
L 184.624568 115.180064 
L 184.907764 113.126328 
L 185.194362 111.072593 
L 185.480777 109.018857 
L 185.764158 106.965122 
L 186.042333 104.911386 
L 186.31363 102.857651 
L 186.576631 100.803916 
L 186.829872 98.75018 
L 187.071545 96.696445 
L 187.299239 94.642709 
L 187.509782 92.588974 
L 187.699215 90.535238 
L 187.862924 88.481503 
L 187.995938 86.427767 
L 188.093389 84.374032 
L 188.151081 82.320296 
L 188.166135 80.266561 
L 188.13762 78.212826 
L 188.067111 76.15909 
L 187.959086 74.105355 
L 187.821092 72.051619 
L 187.663649 69.997884 
L 187.499853 67.944148 
L 187.344701 65.890413 
L 187.214175 63.836677 
L 187.124164 61.782942 
L 187.089317 59.729206 
L 187.121938 57.675471 
L 187.231032 55.621735 
L 187.421597 53.568 
L 203.093534 53.568 
L 203.093534 53.568 
L 203.2841 55.621735 
L 203.393194 57.675471 
L 203.425814 59.729206 
L 203.390967 61.782942 
L 203.300956 63.836677 
L 203.17043 65.890413 
L 203.015278 67.944148 
L 202.851483 69.997884 
L 202.694039 72.051619 
L 202.556045 74.105355 
L 202.44802 76.15909 
L 202.377512 78.212826 
L 202.348997 80.266561 
L 202.36405 82.320296 
L 202.421742 84.374032 
L 202.519193 86.427767 
L 202.652207 88.481503 
L 202.815916 90.535238 
L 203.005349 92.588974 
L 203.215893 94.642709 
L 203.443586 96.696445 
L 203.685259 98.75018 
L 203.938501 100.803916 
L 204.201502 102.857651 
L 204.472798 104.911386 
L 204.750973 106.965122 
L 205.034355 109.018857 
L 205.320769 111.072593 
L 205.607367 113.126328 
L 205.890564 115.180064 
L 206.166078 117.233799 
L 206.429087 119.287535 
L 206.67446 121.34127 
L 206.89705 123.395006 
L 207.092004 125.448741 
L 207.255066 127.502477 
L 207.382831 129.556212 
L 207.472939 131.609947 
L 207.524174 133.663683 
L 207.536482 135.717418 
L 207.510895 137.771154 
L 207.449389 139.824889 
L 207.354675 141.878625 
L 207.229963 143.93236 
L 207.078712 145.986096 
L 206.904393 148.039831 
L 206.710284 150.093567 
L 206.499308 152.147302 
L 206.273929 154.201037 
L 206.036106 156.254773 
L 205.787298 158.308508 
L 205.528517 160.362244 
L 205.260416 162.415979 
L 204.983393 164.469715 
L 204.697708 166.52345 
L 204.403587 168.577186 
L 204.101321 170.630921 
L 203.791334 172.684657 
L 203.474241 174.738392 
L 203.150877 176.792128 
L 202.822315 178.845863 
L 202.489868 180.899598 
L 202.155081 182.953334 
L 201.819718 185.007069 
L 201.485738 187.060805 
L 201.15526 189.11454 
L 200.83052 191.168276 
L 200.513805 193.222011 
L 200.207375 195.275747 
L 199.913374 197.329482 
L 199.633725 199.383218 
L 199.370026 201.436953 
L 199.123459 203.490688 
L 198.894712 205.544424 
L 198.683935 207.598159 
L 198.490736 209.651895 
L 198.314213 211.70563 
L 198.153029 213.759366 
L 198.005518 215.813101 
L 197.869815 217.866837 
L 197.743994 219.920572 
L 197.6262 221.974308 
L 197.514758 224.028043 
L 197.408262 226.081779 
L 197.305611 228.135514 
L 197.206024 230.189249 
L 197.109007 232.242985 
L 197.014297 234.29672 
L 196.921798 236.350456 
L 196.831496 238.404191 
L 196.743398 240.457927 
L 196.657476 242.511662 
L 196.573635 244.565398 
L 196.49171 246.619133 
L 196.411482 248.672869 
L 196.33271 250.726604 
L 196.255177 252.78034 
L 196.178732 254.834075 
L 196.103336 256.88781 
z
" clip-path="url(#p809bd83cca)" style="fill: #1f77b4; fill-opacity: 0.3"/>
   </g>
   <g id="PolyCollection_6">
    <path d="M 222.956737 278.672076 
L 222.131355 278.672076 
L 222.102123 276.398297 
L 222.074231 274.124519 
L 222.047662 271.85074 
L 222.022296 269.576962 
L 221.99794 267.303183 
L 221.974356 265.029405 
L 221.951292 262.755626 
L 221.928514 260.481847 
L 221.90582 258.208069 
L 221.883047 255.93429 
L 221.860066 253.660512 
L 221.836762 251.386733 
L 221.813001 249.112955 
L 221.788593 246.839176 
L 221.763247 244.565398 
L 221.736517 242.291619 
L 221.707767 240.017841 
L 221.676129 237.744062 
L 221.640478 235.470283 
L 221.599422 233.196505 
L 221.55131 230.922726 
L 221.494258 228.648948 
L 221.426192 226.375169 
L 221.344921 224.101391 
L 221.248216 221.827612 
L 221.133917 219.553834 
L 221.000035 217.280055 
L 220.844875 215.006277 
L 220.667145 212.732498 
L 220.466059 210.45872 
L 220.241416 208.184941 
L 219.993653 205.911162 
L 219.723854 203.637384 
L 219.433726 201.363605 
L 219.125523 199.089827 
L 218.801935 196.816048 
L 218.46594 194.54227 
L 218.120638 192.268491 
L 217.769087 189.994713 
L 217.414143 187.720934 
L 217.058338 185.447156 
L 216.703799 183.173377 
L 216.352218 180.899598 
L 216.004876 178.62582 
L 215.662722 176.352041 
L 215.326477 174.078263 
L 214.996783 171.804484 
L 214.674347 169.530706 
L 214.360084 167.256927 
L 214.055242 164.983149 
L 213.761493 162.70937 
L 213.48099 160.435592 
L 213.21637 158.161813 
L 212.970716 155.888034 
L 212.747475 153.614256 
L 212.550314 151.340477 
L 212.382951 149.066699 
L 212.248939 146.79292 
L 212.151432 144.519142 
L 212.092944 142.245363 
L 212.075114 139.971585 
L 212.098515 137.697806 
L 212.162507 135.424028 
L 212.265175 133.150249 
L 212.403346 130.87647 
L 212.572703 128.602692 
L 212.767978 126.328913 
L 212.983226 124.055135 
L 213.212124 121.781356 
L 213.448301 119.507578 
L 213.685625 117.233799 
L 213.918441 114.960021 
L 214.141723 112.686242 
L 214.351111 110.412464 
L 214.542845 108.138685 
L 214.713596 105.864907 
L 214.860216 103.591128 
L 214.979455 101.317349 
L 215.067682 99.043571 
L 215.120683 96.769792 
L 215.133569 94.496014 
L 215.100872 92.222235 
L 215.016847 89.948457 
L 214.875988 87.674678 
L 214.67377 85.4009 
L 214.407525 83.127121 
L 214.077411 80.853343 
L 213.687328 78.579564 
L 213.245663 76.305785 
L 212.765737 74.032007 
L 212.265815 71.758228 
L 211.768622 69.48445 
L 211.300316 67.210671 
L 210.888975 64.936893 
L 210.562695 62.663114 
L 210.34748 60.389336 
L 210.26513 58.115557 
L 210.331359 55.841779 
L 210.554366 53.568 
L 234.533726 53.568 
L 234.533726 53.568 
L 234.756734 55.841779 
L 234.822962 58.115557 
L 234.740612 60.389336 
L 234.525397 62.663114 
L 234.199117 64.936893 
L 233.787776 67.210671 
L 233.31947 69.48445 
L 232.822277 71.758228 
L 232.322356 74.032007 
L 231.842429 76.305785 
L 231.400765 78.579564 
L 231.010681 80.853343 
L 230.680568 83.127121 
L 230.414323 85.4009 
L 230.212104 87.674678 
L 230.071246 89.948457 
L 229.98722 92.222235 
L 229.954524 94.496014 
L 229.967409 96.769792 
L 230.02041 99.043571 
L 230.108638 101.317349 
L 230.227877 103.591128 
L 230.374497 105.864907 
L 230.545247 108.138685 
L 230.736981 110.412464 
L 230.946369 112.686242 
L 231.169651 114.960021 
L 231.402468 117.233799 
L 231.639791 119.507578 
L 231.875968 121.781356 
L 232.104867 124.055135 
L 232.320114 126.328913 
L 232.51539 128.602692 
L 232.684746 130.87647 
L 232.822917 133.150249 
L 232.925586 135.424028 
L 232.989578 137.697806 
L 233.012978 139.971585 
L 232.995149 142.245363 
L 232.93666 144.519142 
L 232.839154 146.79292 
L 232.705142 149.066699 
L 232.537779 151.340477 
L 232.340618 153.614256 
L 232.117376 155.888034 
L 231.871723 158.161813 
L 231.607102 160.435592 
L 231.326599 162.70937 
L 231.032851 164.983149 
L 230.728009 167.256927 
L 230.413745 169.530706 
L 230.091309 171.804484 
L 229.761616 174.078263 
L 229.425371 176.352041 
L 229.083216 178.62582 
L 228.735875 180.899598 
L 228.384293 183.173377 
L 228.029754 185.447156 
L 227.673949 187.720934 
L 227.319005 189.994713 
L 226.967454 192.268491 
L 226.622153 194.54227 
L 226.286157 196.816048 
L 225.962569 199.089827 
L 225.654367 201.363605 
L 225.364239 203.637384 
L 225.09444 205.911162 
L 224.846676 208.184941 
L 224.622033 210.45872 
L 224.420948 212.732498 
L 224.243218 215.006277 
L 224.088058 217.280055 
L 223.954176 219.553834 
L 223.839876 221.827612 
L 223.743172 224.101391 
L 223.661901 226.375169 
L 223.593835 228.648948 
L 223.536782 230.922726 
L 223.48867 233.196505 
L 223.447615 235.470283 
L 223.411964 237.744062 
L 223.380325 240.017841 
L 223.351575 242.291619 
L 223.324846 244.565398 
L 223.299499 246.839176 
L 223.275092 249.112955 
L 223.251331 251.386733 
L 223.228026 253.660512 
L 223.205045 255.93429 
L 223.182272 258.208069 
L 223.159578 260.481847 
L 223.1368 262.755626 
L 223.113737 265.029405 
L 223.090152 267.303183 
L 223.065796 269.576962 
L 223.04043 271.85074 
L 223.013861 274.124519 
L 222.98597 276.398297 
L 222.956737 278.672076 
z
" clip-path="url(#p809bd83cca)" style="fill: #1f77b4; fill-opacity: 0.3"/>
   </g>
   <g id="PolyCollection_7">
    <path d="M 250.328806 264.913592 
L 249.332247 264.913592 
L 249.287997 262.778788 
L 249.242869 260.643984 
L 249.196548 258.509181 
L 249.148559 256.374377 
L 249.09829 254.239573 
L 249.045022 252.104769 
L 248.987966 249.969965 
L 248.926307 247.835161 
L 248.85923 245.700357 
L 248.785955 243.565553 
L 248.705739 241.430749 
L 248.617883 239.295945 
L 248.52171 237.161141 
L 248.416551 235.026337 
L 248.301715 232.891533 
L 248.176472 230.756729 
L 248.040053 228.621925 
L 247.891665 226.487121 
L 247.730534 224.352317 
L 247.555973 222.217513 
L 247.367473 220.082709 
L 247.164801 217.947905 
L 246.948109 215.813101 
L 246.718018 213.678297 
L 246.47568 211.543493 
L 246.222792 209.408689 
L 245.961572 207.273885 
L 245.694666 205.139081 
L 245.42502 203.004277 
L 245.155705 200.869474 
L 244.889718 198.73467 
L 244.629783 196.599866 
L 244.378154 194.465062 
L 244.136452 192.330258 
L 243.905549 190.195454 
L 243.685494 188.06065 
L 243.475504 185.925846 
L 243.274005 183.791042 
L 243.078729 181.656238 
L 242.886857 179.521434 
L 242.695197 177.38663 
L 242.500391 175.251826 
L 242.299147 173.117022 
L 242.088473 170.982218 
L 241.865911 168.847414 
L 241.629753 166.71261 
L 241.379221 164.577806 
L 241.1146 162.443002 
L 240.837306 160.308198 
L 240.549872 158.173394 
L 240.255848 156.03859 
L 239.959619 153.903786 
L 239.666137 151.768982 
L 239.380604 149.634178 
L 239.108118 147.499374 
L 238.853322 145.36457 
L 238.620093 143.229766 
L 238.411309 141.094963 
L 238.228715 138.960159 
L 238.072904 136.825355 
L 237.943426 134.690551 
L 237.839007 132.555747 
L 237.757848 130.420943 
L 237.697971 128.286139 
L 237.657571 126.151335 
L 237.635318 124.016531 
L 237.630579 121.881727 
L 237.643518 119.746923 
L 237.675061 117.612119 
L 237.726722 115.477315 
L 237.800304 113.342511 
L 237.897507 111.207707 
L 238.019471 109.072903 
L 238.166324 106.938099 
L 238.336766 104.803295 
L 238.527745 102.668491 
L 238.73427 100.533687 
L 238.949385 98.398883 
L 239.164329 96.264079 
L 239.368876 94.129275 
L 239.551864 91.994471 
L 239.70187 89.859667 
L 239.808008 87.724863 
L 239.860805 85.590059 
L 239.853087 83.455255 
L 239.780819 81.320452 
L 239.643831 79.185648 
L 239.446349 77.050844 
L 239.197266 74.91604 
L 238.910095 72.781236 
L 238.602569 70.646432 
L 238.295869 68.511628 
L 238.0135 66.376824 
L 237.779891 64.24202 
L 237.618791 62.107216 
L 237.551611 59.972412 
L 237.59584 57.837608 
L 237.763703 55.702804 
L 238.061182 53.568 
L 261.599872 53.568 
L 261.599872 53.568 
L 261.89735 55.702804 
L 262.065214 57.837608 
L 262.109443 59.972412 
L 262.042262 62.107216 
L 261.881162 64.24202 
L 261.647553 66.376824 
L 261.365185 68.511628 
L 261.058484 70.646432 
L 260.750959 72.781236 
L 260.463788 74.91604 
L 260.214704 77.050844 
L 260.017222 79.185648 
L 259.880235 81.320452 
L 259.807967 83.455255 
L 259.800248 85.590059 
L 259.853045 87.724863 
L 259.959184 89.859667 
L 260.109189 91.994471 
L 260.292177 94.129275 
L 260.496724 96.264079 
L 260.711668 98.398883 
L 260.926784 100.533687 
L 261.133309 102.668491 
L 261.324288 104.803295 
L 261.49473 106.938099 
L 261.641583 109.072903 
L 261.763547 111.207707 
L 261.860749 113.342511 
L 261.934332 115.477315 
L 261.985992 117.612119 
L 262.017535 119.746923 
L 262.030474 121.881727 
L 262.025735 124.016531 
L 262.003483 126.151335 
L 261.963083 128.286139 
L 261.903206 130.420943 
L 261.822046 132.555747 
L 261.717628 134.690551 
L 261.58815 136.825355 
L 261.432338 138.960159 
L 261.249744 141.094963 
L 261.040961 143.229766 
L 260.807732 145.36457 
L 260.552935 147.499374 
L 260.280449 149.634178 
L 259.994917 151.768982 
L 259.701435 153.903786 
L 259.405205 156.03859 
L 259.111181 158.173394 
L 258.823747 160.308198 
L 258.546454 162.443002 
L 258.281833 164.577806 
L 258.0313 166.71261 
L 257.795142 168.847414 
L 257.572581 170.982218 
L 257.361907 173.117022 
L 257.160663 175.251826 
L 256.965857 177.38663 
L 256.774196 179.521434 
L 256.582325 181.656238 
L 256.387049 183.791042 
L 256.18555 185.925846 
L 255.975559 188.06065 
L 255.755504 190.195454 
L 255.524601 192.330258 
L 255.2829 194.465062 
L 255.03127 196.599866 
L 254.771335 198.73467 
L 254.505349 200.869474 
L 254.236033 203.004277 
L 253.966387 205.139081 
L 253.699481 207.273885 
L 253.438261 209.408689 
L 253.185374 211.543493 
L 252.943035 213.678297 
L 252.712945 215.813101 
L 252.496253 217.947905 
L 252.293581 220.082709 
L 252.10508 222.217513 
L 251.930519 224.352317 
L 251.769388 226.487121 
L 251.621001 228.621925 
L 251.484582 230.756729 
L 251.359339 232.891533 
L 251.244502 235.026337 
L 251.139343 237.161141 
L 251.043171 239.295945 
L 250.955314 241.430749 
L 250.875099 243.565553 
L 250.801823 245.700357 
L 250.734747 247.835161 
L 250.673087 249.969965 
L 250.616032 252.104769 
L 250.562763 254.239573 
L 250.512494 256.374377 
L 250.464506 258.509181 
L 250.418185 260.643984 
L 250.373057 262.778788 
L 250.328806 264.913592 
z
" clip-path="url(#p809bd83cca)" style="fill: #1f77b4; fill-opacity: 0.3"/>
   </g>
   <g id="PolyCollection_8">
    <path d="M 277.622177 267.588853 
L 276.611837 267.588853 
L 276.541819 265.427026 
L 276.466494 263.265199 
L 276.386219 261.103373 
L 276.301518 258.941546 
L 276.21308 256.779719 
L 276.121737 254.617892 
L 276.028436 252.456065 
L 275.934187 250.294239 
L 275.840005 248.132412 
L 275.746843 245.970585 
L 275.655515 243.808758 
L 275.566626 241.646931 
L 275.4805 239.485105 
L 275.397121 237.323278 
L 275.316082 235.161451 
L 275.236549 232.999624 
L 275.157246 230.837798 
L 275.076461 228.675971 
L 274.992081 226.514144 
L 274.901646 224.352317 
L 274.802444 222.19049 
L 274.691626 220.028664 
L 274.566349 217.866837 
L 274.423935 215.70501 
L 274.262033 213.543183 
L 274.078779 211.381356 
L 273.872929 209.21953 
L 273.643963 207.057703 
L 273.39214 204.895876 
L 273.118504 202.734049 
L 272.824843 200.572222 
L 272.513589 198.410396 
L 272.187693 196.248569 
L 271.850469 194.086742 
L 271.50542 191.924915 
L 271.156072 189.763088 
L 270.805817 187.601262 
L 270.457775 185.439435 
L 270.114684 183.277608 
L 269.778821 181.115781 
L 269.45195 178.953954 
L 269.135309 176.792128 
L 268.829627 174.630301 
L 268.53517 172.468474 
L 268.251816 170.306647 
L 267.979155 168.14482 
L 267.716602 165.982994 
L 267.463516 163.821167 
L 267.219309 161.65934 
L 266.983545 159.497513 
L 266.756009 157.335686 
L 266.536742 155.17386 
L 266.326048 153.012033 
L 266.124476 150.850206 
L 265.932781 148.688379 
L 265.751886 146.526552 
L 265.58285 144.364726 
L 265.426856 142.202899 
L 265.285223 140.041072 
L 265.159439 137.879245 
L 265.051216 135.717418 
L 264.962537 133.555592 
L 264.895687 131.393765 
L 264.853258 129.231938 
L 264.838091 127.070111 
L 264.853167 124.908284 
L 264.901431 122.746458 
L 264.98557 120.584631 
L 265.107747 118.422804 
L 265.269332 116.260977 
L 265.470642 114.09915 
L 265.710735 111.937324 
L 265.987259 109.775497 
L 266.296402 107.61367 
L 266.632919 105.451843 
L 266.990258 103.290016 
L 267.360762 101.12819 
L 267.73593 98.966363 
L 268.106727 96.804536 
L 268.463912 94.642709 
L 268.798396 92.480882 
L 269.101598 90.319056 
L 269.365817 88.157229 
L 269.584619 85.995402 
L 269.75323 83.833575 
L 269.868933 81.671748 
L 269.931447 79.509922 
L 269.943245 77.348095 
L 269.909772 75.186268 
L 269.839507 73.024441 
L 269.74381 70.862614 
L 269.636528 68.700788 
L 269.533334 66.538961 
L 269.450833 64.377134 
L 269.405473 62.215307 
L 269.412359 60.05348 
L 269.48409 57.891654 
L 269.629726 55.729827 
L 269.854019 53.568 
L 284.379996 53.568 
L 284.379996 53.568 
L 284.604288 55.729827 
L 284.749924 57.891654 
L 284.821655 60.05348 
L 284.828542 62.215307 
L 284.783182 64.377134 
L 284.700681 66.538961 
L 284.597487 68.700788 
L 284.490204 70.862614 
L 284.394507 73.024441 
L 284.324242 75.186268 
L 284.29077 77.348095 
L 284.302568 79.509922 
L 284.365082 81.671748 
L 284.480785 83.833575 
L 284.649395 85.995402 
L 284.868197 88.157229 
L 285.132416 90.319056 
L 285.435618 92.480882 
L 285.770103 94.642709 
L 286.127288 96.804536 
L 286.498084 98.966363 
L 286.873252 101.12819 
L 287.243756 103.290016 
L 287.601095 105.451843 
L 287.937612 107.61367 
L 288.246755 109.775497 
L 288.52328 111.937324 
L 288.763372 114.09915 
L 288.964683 116.260977 
L 289.126268 118.422804 
L 289.248445 120.584631 
L 289.332583 122.746458 
L 289.380848 124.908284 
L 289.395924 127.070111 
L 289.380757 129.231938 
L 289.338328 131.393765 
L 289.271478 133.555592 
L 289.182798 135.717418 
L 289.074576 137.879245 
L 288.948792 140.041072 
L 288.807158 142.202899 
L 288.651164 144.364726 
L 288.482129 146.526552 
L 288.301234 148.688379 
L 288.109539 150.850206 
L 287.907967 153.012033 
L 287.697273 155.17386 
L 287.478005 157.335686 
L 287.250469 159.497513 
L 287.014706 161.65934 
L 286.770499 163.821167 
L 286.517412 165.982994 
L 286.25486 168.14482 
L 285.982199 170.306647 
L 285.698845 172.468474 
L 285.404387 174.630301 
L 285.098705 176.792128 
L 284.782065 178.953954 
L 284.455194 181.115781 
L 284.11933 183.277608 
L 283.77624 185.439435 
L 283.428198 187.601262 
L 283.077942 189.763088 
L 282.728594 191.924915 
L 282.383545 194.086742 
L 282.046321 196.248569 
L 281.720426 198.410396 
L 281.409172 200.572222 
L 281.11551 202.734049 
L 280.841875 204.895876 
L 280.590051 207.057703 
L 280.361085 209.21953 
L 280.155235 211.381356 
L 279.971981 213.543183 
L 279.81008 215.70501 
L 279.667666 217.866837 
L 279.542389 220.028664 
L 279.431571 222.19049 
L 279.332369 224.352317 
L 279.241934 226.514144 
L 279.157553 228.675971 
L 279.076769 230.837798 
L 278.997466 232.999624 
L 278.917932 235.161451 
L 278.836893 237.323278 
L 278.753515 239.485105 
L 278.667389 241.646931 
L 278.5785 243.808758 
L 278.487172 245.970585 
L 278.394009 248.132412 
L 278.299828 250.294239 
L 278.205579 252.456065 
L 278.112278 254.617892 
L 278.020935 256.779719 
L 277.932497 258.941546 
L 277.847796 261.103373 
L 277.767521 263.265199 
L 277.692195 265.427026 
L 277.622177 267.588853 
z
" clip-path="url(#p809bd83cca)" style="fill: #1f77b4; fill-opacity: 0.3"/>
   </g>
   <g id="PolyCollection_9">
    <path d="M 304.67613 277.525536 
L 304.130845 277.525536 
L 304.102789 275.263338 
L 304.07329 273.001141 
L 304.0421 270.738944 
L 304.008936 268.476746 
L 303.973496 266.214549 
L 303.935487 263.952352 
L 303.894636 261.690154 
L 303.850704 259.427957 
L 303.803496 257.16576 
L 303.752855 254.903562 
L 303.698665 252.641365 
L 303.640838 250.379168 
L 303.579305 248.11697 
L 303.513993 245.854773 
L 303.444809 243.592576 
L 303.371608 241.330378 
L 303.29417 239.068181 
L 303.212172 236.805984 
L 303.125164 234.543786 
L 303.032553 232.281589 
L 302.933601 230.019392 
L 302.827426 227.757194 
L 302.713017 225.494997 
L 302.589254 223.2328 
L 302.454933 220.970602 
L 302.308792 218.708405 
L 302.149544 216.446208 
L 301.975905 214.18401 
L 301.786639 211.921813 
L 301.580608 209.659616 
L 301.356853 207.397418 
L 301.114679 205.135221 
L 300.85377 202.873024 
L 300.574309 200.610826 
L 300.277086 198.348629 
L 299.963591 196.086432 
L 299.636059 193.824234 
L 299.297448 191.562037 
L 298.951351 189.29984 
L 298.601815 187.037642 
L 298.253102 184.775445 
L 297.90938 182.513248 
L 297.574398 180.25105 
L 297.251161 177.988853 
L 296.941654 175.726656 
L 296.646654 173.464458 
L 296.365656 171.202261 
L 296.096926 168.940064 
L 295.837706 166.677866 
L 295.584538 164.415669 
L 295.333683 162.153472 
L 295.0816 159.891274 
L 294.825428 157.629077 
L 294.563408 155.36688 
L 294.295212 153.104682 
L 294.022127 150.842485 
L 293.747082 148.580288 
L 293.474505 146.31809 
L 293.210044 144.055893 
L 292.960176 141.793696 
L 292.731755 139.531498 
L 292.531554 137.269301 
L 292.365846 135.007104 
L 292.240065 132.744907 
L 292.15858 130.482709 
L 292.124572 128.220512 
L 292.140029 125.958315 
L 292.205815 123.696117 
L 292.321796 121.43392 
L 292.486977 119.171723 
L 292.699624 116.909525 
L 292.957342 114.647328 
L 293.257099 112.385131 
L 293.59518 110.122933 
L 293.967104 107.860736 
L 294.367494 105.598539 
L 294.789961 103.336341 
L 295.226994 101.074144 
L 295.669922 98.811947 
L 296.108958 96.549749 
L 296.533348 94.287552 
L 296.931669 92.025355 
L 297.292261 89.763157 
L 297.603818 87.50096 
L 297.856115 85.238763 
L 298.040842 82.976565 
L 298.15249 80.714368 
L 298.189204 78.452171 
L 298.153502 76.189973 
L 298.052753 73.927776 
L 297.899291 71.665579 
L 297.710085 69.403381 
L 297.505921 67.141184 
L 297.31011 64.878987 
L 297.146799 62.616789 
L 297.039052 60.354592 
L 297.006887 58.092395 
L 297.065508 55.830197 
L 297.223943 53.568 
L 311.583032 53.568 
L 311.583032 53.568 
L 311.741467 55.830197 
L 311.800089 58.092395 
L 311.767924 60.354592 
L 311.660177 62.616789 
L 311.496866 64.878987 
L 311.301054 67.141184 
L 311.096891 69.403381 
L 310.907685 71.665579 
L 310.754222 73.927776 
L 310.653473 76.189973 
L 310.617772 78.452171 
L 310.654485 80.714368 
L 310.766134 82.976565 
L 310.950861 85.238763 
L 311.203158 87.50096 
L 311.514715 89.763157 
L 311.875307 92.025355 
L 312.273628 94.287552 
L 312.698018 96.549749 
L 313.137053 98.811947 
L 313.579982 101.074144 
L 314.017015 103.336341 
L 314.439481 105.598539 
L 314.839872 107.860736 
L 315.211795 110.122933 
L 315.549877 112.385131 
L 315.849633 114.647328 
L 316.107352 116.909525 
L 316.319998 119.171723 
L 316.485179 121.43392 
L 316.60116 123.696117 
L 316.666947 125.958315 
L 316.682404 128.220512 
L 316.648396 130.482709 
L 316.56691 132.744907 
L 316.44113 135.007104 
L 316.275421 137.269301 
L 316.07522 139.531498 
L 315.8468 141.793696 
L 315.596932 144.055893 
L 315.332471 146.31809 
L 315.059894 148.580288 
L 314.784848 150.842485 
L 314.511764 153.104682 
L 314.243568 155.36688 
L 313.981547 157.629077 
L 313.725375 159.891274 
L 313.473293 162.153472 
L 313.222437 164.415669 
L 312.969269 166.677866 
L 312.71005 168.940064 
L 312.44132 171.202261 
L 312.160321 173.464458 
L 311.865322 175.726656 
L 311.555815 177.988853 
L 311.232577 180.25105 
L 310.897596 182.513248 
L 310.553874 184.775445 
L 310.205161 187.037642 
L 309.855625 189.29984 
L 309.509527 191.562037 
L 309.170917 193.824234 
L 308.843385 196.086432 
L 308.52989 198.348629 
L 308.232667 200.610826 
L 307.953205 202.873024 
L 307.692297 205.135221 
L 307.450123 207.397418 
L 307.226368 209.659616 
L 307.020337 211.921813 
L 306.83107 214.18401 
L 306.657431 216.446208 
L 306.498184 218.708405 
L 306.352043 220.970602 
L 306.217722 223.2328 
L 306.093958 225.494997 
L 305.979549 227.757194 
L 305.873375 230.019392 
L 305.774423 232.281589 
L 305.681812 234.543786 
L 305.594803 236.805984 
L 305.512805 239.068181 
L 305.435368 241.330378 
L 305.362167 243.592576 
L 305.292983 245.854773 
L 305.227671 248.11697 
L 305.166138 250.379168 
L 305.108311 252.641365 
L 305.054121 254.903562 
L 305.00348 257.16576 
L 304.956271 259.427957 
L 304.91234 261.690154 
L 304.871489 263.952352 
L 304.833479 266.214549 
L 304.79804 268.476746 
L 304.764875 270.738944 
L 304.733686 273.001141 
L 304.704187 275.263338 
L 304.67613 277.525536 
z
" clip-path="url(#p809bd83cca)" style="fill: #1f77b4; fill-opacity: 0.3"/>
   </g>
   <g id="PolyCollection_10">
    <path d="M 331.985981 292.048379 
L 331.393956 292.048379 
L 331.380339 289.639486 
L 331.370129 287.230594 
L 331.362882 284.821701 
L 331.357808 282.412808 
L 331.353845 280.003916 
L 331.349757 277.595023 
L 331.344265 275.18613 
L 331.336175 272.777237 
L 331.324494 270.368345 
L 331.308513 267.959452 
L 331.287854 265.550559 
L 331.262451 263.141667 
L 331.232501 260.732774 
L 331.198358 258.323881 
L 331.160413 255.914988 
L 331.118961 253.506096 
L 331.074087 251.097203 
L 331.025576 248.68831 
L 330.972873 246.279417 
L 330.915093 243.870525 
L 330.851073 241.461632 
L 330.779472 239.052739 
L 330.698884 236.643847 
L 330.607961 234.234954 
L 330.505519 231.826061 
L 330.390616 229.417168 
L 330.262585 227.008276 
L 330.121032 224.599383 
L 329.965795 222.19049 
L 329.796898 219.781598 
L 329.614492 217.372705 
L 329.41882 214.963812 
L 329.210223 212.554919 
L 328.989161 210.146027 
L 328.756282 207.737134 
L 328.512487 205.328241 
L 328.258993 202.919349 
L 327.997358 200.510456 
L 327.729451 198.101563 
L 327.457362 195.69267 
L 327.183253 193.283778 
L 326.909166 190.874885 
L 326.636815 188.465992 
L 326.367394 186.0571 
L 326.101439 183.648207 
L 325.838754 181.239314 
L 325.578432 178.830421 
L 325.318964 176.421529 
L 325.058428 174.012636 
L 324.79474 171.603743 
L 324.525921 169.19485 
L 324.250375 166.785958 
L 323.967102 164.377065 
L 323.675858 161.968172 
L 323.37721 159.55928 
L 323.07249 157.150387 
L 322.763659 154.741494 
L 322.453097 152.332601 
L 322.143364 149.923709 
L 321.836983 147.514816 
L 321.536283 145.105923 
L 321.24335 142.697031 
L 320.96011 140.288138 
L 320.688536 137.879245 
L 320.430948 135.470352 
L 320.19036 133.06146 
L 319.970798 130.652567 
L 319.777509 128.243674 
L 319.617008 125.834782 
L 319.496896 123.425889 
L 319.425461 121.016996 
L 319.411052 118.608103 
L 319.461303 116.199211 
L 319.582267 113.790318 
L 319.777571 111.381425 
L 320.047672 108.972533 
L 320.389314 106.56364 
L 320.795253 104.154747 
L 321.254279 101.745854 
L 321.75155 99.336962 
L 322.269235 96.928069 
L 322.787402 94.519176 
L 323.285126 92.110283 
L 323.741737 89.701391 
L 324.138162 87.292498 
L 324.458278 84.883605 
L 324.690216 82.474713 
L 324.827516 80.06582 
L 324.870034 77.656927 
L 324.824489 75.248034 
L 324.704534 72.839142 
L 324.530249 70.430249 
L 324.327015 68.021356 
L 324.123772 65.612464 
L 323.950781 63.203571 
L 323.837069 60.794678 
L 323.807833 58.385785 
L 323.88211 55.976893 
L 324.070998 53.568 
L 339.308938 53.568 
L 339.308938 53.568 
L 339.497827 55.976893 
L 339.572103 58.385785 
L 339.542868 60.794678 
L 339.429156 63.203571 
L 339.256164 65.612464 
L 339.052922 68.021356 
L 338.849687 70.430249 
L 338.675403 72.839142 
L 338.555448 75.248034 
L 338.509903 77.656927 
L 338.55242 80.06582 
L 338.689721 82.474713 
L 338.921659 84.883605 
L 339.241775 87.292498 
L 339.638199 89.701391 
L 340.09481 92.110283 
L 340.592534 94.519176 
L 341.110702 96.928069 
L 341.628387 99.336962 
L 342.125658 101.745854 
L 342.584684 104.154747 
L 342.990623 106.56364 
L 343.332265 108.972533 
L 343.602365 111.381425 
L 343.797669 113.790318 
L 343.918634 116.199211 
L 343.968885 118.608103 
L 343.954476 121.016996 
L 343.883041 123.425889 
L 343.762929 125.834782 
L 343.602427 128.243674 
L 343.409139 130.652567 
L 343.189577 133.06146 
L 342.948989 135.470352 
L 342.691401 137.879245 
L 342.419827 140.288138 
L 342.136587 142.697031 
L 341.843654 145.105923 
L 341.542954 147.514816 
L 341.236573 149.923709 
L 340.92684 152.332601 
L 340.616277 154.741494 
L 340.307446 157.150387 
L 340.002727 159.55928 
L 339.704079 161.968172 
L 339.412835 164.377065 
L 339.129562 166.785958 
L 338.854015 169.19485 
L 338.585197 171.603743 
L 338.321509 174.012636 
L 338.060973 176.421529 
L 337.801505 178.830421 
L 337.541182 181.239314 
L 337.278497 183.648207 
L 337.012542 186.0571 
L 336.743122 188.465992 
L 336.47077 190.874885 
L 336.196683 193.283778 
L 335.922575 195.69267 
L 335.650486 198.101563 
L 335.382579 200.510456 
L 335.120944 202.919349 
L 334.86745 205.328241 
L 334.623655 207.737134 
L 334.390776 210.146027 
L 334.169714 212.554919 
L 333.961116 214.963812 
L 333.765445 217.372705 
L 333.583038 219.781598 
L 333.414141 222.19049 
L 333.258905 224.599383 
L 333.117351 227.008276 
L 332.989321 229.417168 
L 332.874418 231.826061 
L 332.771976 234.234954 
L 332.681053 236.643847 
L 332.600464 239.052739 
L 332.528863 241.461632 
L 332.464844 243.870525 
L 332.407064 246.279417 
L 332.354361 248.68831 
L 332.30585 251.097203 
L 332.260975 253.506096 
L 332.219524 255.914988 
L 332.181579 258.323881 
L 332.147436 260.732774 
L 332.117485 263.141667 
L 332.092083 265.550559 
L 332.071423 267.959452 
L 332.055443 270.368345 
L 332.043761 272.777237 
L 332.035671 275.18613 
L 332.03018 277.595023 
L 332.026092 280.003916 
L 332.022128 282.412808 
L 332.017055 284.821701 
L 332.009807 287.230594 
L 331.999597 289.639486 
L 331.985981 292.048379 
z
" clip-path="url(#p809bd83cca)" style="fill: #1f77b4; fill-opacity: 0.3"/>
   </g>
   <g id="PolyCollection_11">
    <path d="M 359.536003 259.563071 
L 358.416895 259.563071 
L 358.385471 257.482313 
L 358.358371 255.401555 
L 358.335523 253.320796 
L 358.316515 251.240038 
L 358.300616 249.15928 
L 358.286805 247.078521 
L 358.273826 244.997763 
L 358.260251 242.917005 
L 358.244543 240.836246 
L 358.225127 238.755488 
L 358.200459 236.67473 
L 358.169078 234.593972 
L 358.129667 232.513213 
L 358.081101 230.432455 
L 358.022482 228.351697 
L 357.953176 226.270938 
L 357.872836 224.19018 
L 357.78141 222.109422 
L 357.679141 220.028664 
L 357.566548 217.947905 
L 357.444389 215.867147 
L 357.313616 213.786389 
L 357.175314 211.70563 
L 357.030634 209.624872 
L 356.880736 207.544114 
L 356.726729 205.463355 
L 356.569633 203.382597 
L 356.410354 201.301839 
L 356.249671 199.221081 
L 356.08824 197.140322 
L 355.926602 195.059564 
L 355.765188 192.978806 
L 355.604316 190.898047 
L 355.444177 188.817289 
L 355.284798 186.736531 
L 355.126004 184.655773 
L 354.967357 182.575014 
L 354.808107 180.494256 
L 354.647146 178.413498 
L 354.482991 176.332739 
L 354.313781 174.251981 
L 354.137325 172.171223 
L 353.951172 170.090464 
L 353.752719 168.009706 
L 353.539338 165.928948 
L 353.308532 163.84819 
L 353.058086 161.767431 
L 352.78622 159.686673 
L 352.491734 157.605915 
L 352.17413 155.525156 
L 351.833715 153.444398 
L 351.471681 151.36364 
L 351.090161 149.282882 
L 350.692254 147.202123 
L 350.282031 145.121365 
L 349.864496 143.040607 
L 349.44552 140.959848 
L 349.031725 138.87909 
L 348.630312 136.798332 
L 348.248842 134.717573 
L 347.894957 132.636815 
L 347.576063 130.556057 
L 347.298981 128.475299 
L 347.069591 126.39454 
L 346.892519 124.313782 
L 346.770858 122.233024 
L 346.705995 120.152265 
L 346.697533 118.071507 
L 346.74333 115.990749 
L 346.839647 113.909991 
L 346.981385 111.829232 
L 347.162375 109.748474 
L 347.375694 107.667716 
L 347.613947 105.586957 
L 347.869499 103.506199 
L 348.134623 101.425441 
L 348.401566 99.344682 
L 348.662542 97.263924 
L 348.909683 95.183166 
L 349.135008 93.102408 
L 349.330444 91.021649 
L 349.487974 88.940891 
L 349.599935 86.860133 
L 349.659491 84.779374 
L 349.661271 82.698616 
L 349.602127 80.617858 
L 349.481934 78.5371 
L 349.304327 76.456341 
L 349.077252 74.375583 
L 348.813224 72.294825 
L 348.529185 70.214066 
L 348.245901 68.133308 
L 347.986893 66.05255 
L 347.776962 63.971791 
L 347.640411 61.891033 
L 347.599138 59.810275 
L 347.670802 57.729517 
L 347.867256 55.648758 
L 348.193442 53.568 
L 369.759456 53.568 
L 369.759456 53.568 
L 370.085642 55.648758 
L 370.282096 57.729517 
L 370.35376 59.810275 
L 370.312487 61.891033 
L 370.175936 63.971791 
L 369.966005 66.05255 
L 369.706997 68.133308 
L 369.423713 70.214066 
L 369.139674 72.294825 
L 368.875646 74.375583 
L 368.648571 76.456341 
L 368.470963 78.5371 
L 368.350771 80.617858 
L 368.291627 82.698616 
L 368.293407 84.779374 
L 368.352962 86.860133 
L 368.464924 88.940891 
L 368.622454 91.021649 
L 368.81789 93.102408 
L 369.043215 95.183166 
L 369.290356 97.263924 
L 369.551331 99.344682 
L 369.818275 101.425441 
L 370.083399 103.506199 
L 370.338951 105.586957 
L 370.577203 107.667716 
L 370.790522 109.748474 
L 370.971513 111.829232 
L 371.113251 113.909991 
L 371.209568 115.990749 
L 371.255365 118.071507 
L 371.246903 120.152265 
L 371.18204 122.233024 
L 371.060379 124.313782 
L 370.883306 126.39454 
L 370.653917 128.475299 
L 370.376834 130.556057 
L 370.057941 132.636815 
L 369.704056 134.717573 
L 369.322586 136.798332 
L 368.921173 138.87909 
L 368.507377 140.959848 
L 368.088402 143.040607 
L 367.670867 145.121365 
L 367.260644 147.202123 
L 366.862737 149.282882 
L 366.481217 151.36364 
L 366.119183 153.444398 
L 365.778767 155.525156 
L 365.461163 157.605915 
L 365.166678 159.686673 
L 364.894812 161.767431 
L 364.644366 163.84819 
L 364.41356 165.928948 
L 364.200179 168.009706 
L 364.001725 170.090464 
L 363.815573 172.171223 
L 363.639117 174.251981 
L 363.469907 176.332739 
L 363.305751 178.413498 
L 363.144791 180.494256 
L 362.985541 182.575014 
L 362.826894 184.655773 
L 362.6681 186.736531 
L 362.508721 188.817289 
L 362.348581 190.898047 
L 362.18771 192.978806 
L 362.026295 195.059564 
L 361.864657 197.140322 
L 361.703227 199.221081 
L 361.542543 201.301839 
L 361.383264 203.382597 
L 361.226169 205.463355 
L 361.072162 207.544114 
L 360.922264 209.624872 
L 360.777584 211.70563 
L 360.639281 213.786389 
L 360.508509 215.867147 
L 360.38635 217.947905 
L 360.273757 220.028664 
L 360.171488 222.109422 
L 360.080062 224.19018 
L 359.999722 226.270938 
L 359.930416 228.351697 
L 359.871797 230.432455 
L 359.823231 232.513213 
L 359.78382 234.593972 
L 359.752439 236.67473 
L 359.72777 238.755488 
L 359.708355 240.836246 
L 359.692647 242.917005 
L 359.679071 244.997763 
L 359.666093 247.078521 
L 359.652282 249.15928 
L 359.636383 251.240038 
L 359.617375 253.320796 
L 359.594527 255.401555 
L 359.567427 257.482313 
L 359.536003 259.563071 
z
" clip-path="url(#p809bd83cca)" style="fill: #1f77b4; fill-opacity: 0.3"/>
   </g>
   <g id="PolyCollection_12">
    <path d="M 386.760538 268.353213 
L 385.656175 268.353213 
L 385.612815 266.183666 
L 385.574821 264.014118 
L 385.542869 261.84457 
L 385.517079 259.675023 
L 385.496946 257.505475 
L 385.481326 255.335928 
L 385.468495 253.16638 
L 385.456269 250.996832 
L 385.442188 248.827285 
L 385.423727 246.657737 
L 385.398535 244.48819 
L 385.364644 242.318642 
L 385.320652 240.149094 
L 385.265826 237.979547 
L 385.200137 235.809999 
L 385.124208 233.640452 
L 385.039186 231.470904 
L 384.946558 229.301356 
L 384.84794 227.131809 
L 384.744854 224.962261 
L 384.638535 222.792713 
L 384.529785 220.623166 
L 384.418886 218.453618 
L 384.305575 216.284071 
L 384.189083 214.114523 
L 384.068218 211.944975 
L 383.941476 209.775428 
L 383.807168 207.60588 
L 383.663535 205.436333 
L 383.508858 203.266785 
L 383.341538 201.097237 
L 383.160156 198.92769 
L 382.963518 196.758142 
L 382.750674 194.588595 
L 382.520924 192.419047 
L 382.273815 190.249499 
L 382.00912 188.079952 
L 381.726803 185.910404 
L 381.426987 183.740857 
L 381.109914 181.571309 
L 380.775922 179.401761 
L 380.425443 177.232214 
L 380.059035 175.062666 
L 379.677464 172.893118 
L 379.281815 170.723571 
L 378.873646 168.554023 
L 378.455135 166.384476 
L 378.029228 164.214928 
L 377.599718 162.04538 
L 377.171259 159.875833 
L 376.749277 157.706285 
L 376.339773 155.536738 
L 375.949033 153.36719 
L 375.583262 151.197642 
L 375.248174 149.028095 
L 374.948587 146.858547 
L 374.688072 144.689 
L 374.468677 142.519452 
L 374.29078 140.349904 
L 374.15307 138.180357 
L 374.052681 136.010809 
L 373.98544 133.841262 
L 373.946238 131.671714 
L 373.929457 129.502166 
L 373.92944 127.332619 
L 373.940942 125.163071 
L 373.959527 122.993523 
L 373.981885 120.823976 
L 374.006014 118.654428 
L 374.031298 116.484881 
L 374.05843 114.315333 
L 374.089237 112.145785 
L 374.126393 109.976238 
L 374.173078 107.80669 
L 374.232585 105.637143 
L 374.307935 103.467595 
L 374.401511 101.298047 
L 374.514742 99.1285 
L 374.647856 96.958952 
L 374.799726 94.789405 
L 374.967824 92.619857 
L 375.148301 90.450309 
L 375.336209 88.280762 
L 375.525867 86.111214 
L 375.711373 83.941667 
L 375.887235 81.772119 
L 376.049076 79.602571 
L 376.194347 77.433024 
L 376.322961 75.263476 
L 376.437745 73.093928 
L 376.544629 70.924381 
L 376.652485 68.754833 
L 376.772599 66.585286 
L 376.917777 64.415738 
L 377.101165 62.24619 
L 377.334904 60.076643 
L 377.628769 57.907095 
L 377.98898 55.737548 
L 378.417329 53.568 
L 393.999384 53.568 
L 393.999384 53.568 
L 394.427733 55.737548 
L 394.787944 57.907095 
L 395.081809 60.076643 
L 395.315548 62.24619 
L 395.498936 64.415738 
L 395.644114 66.585286 
L 395.764228 68.754833 
L 395.872084 70.924381 
L 395.978968 73.093928 
L 396.093752 75.263476 
L 396.222366 77.433024 
L 396.367637 79.602571 
L 396.529478 81.772119 
L 396.70534 83.941667 
L 396.890846 86.111214 
L 397.080504 88.280762 
L 397.268412 90.450309 
L 397.448889 92.619857 
L 397.616987 94.789405 
L 397.768857 96.958952 
L 397.901971 99.1285 
L 398.015202 101.298047 
L 398.108778 103.467595 
L 398.184128 105.637143 
L 398.243635 107.80669 
L 398.29032 109.976238 
L 398.327476 112.145785 
L 398.358283 114.315333 
L 398.385415 116.484881 
L 398.410699 118.654428 
L 398.434828 120.823976 
L 398.457186 122.993523 
L 398.475771 125.163071 
L 398.487273 127.332619 
L 398.487255 129.502166 
L 398.470475 131.671714 
L 398.431273 133.841262 
L 398.364032 136.010809 
L 398.263643 138.180357 
L 398.125933 140.349904 
L 397.948036 142.519452 
L 397.728641 144.689 
L 397.468126 146.858547 
L 397.168539 149.028095 
L 396.833451 151.197642 
L 396.46768 153.36719 
L 396.07694 155.536738 
L 395.667436 157.706285 
L 395.245454 159.875833 
L 394.816995 162.04538 
L 394.387485 164.214928 
L 393.961578 166.384476 
L 393.543067 168.554023 
L 393.134898 170.723571 
L 392.739249 172.893118 
L 392.357678 175.062666 
L 391.99127 177.232214 
L 391.640791 179.401761 
L 391.306799 181.571309 
L 390.989726 183.740857 
L 390.68991 185.910404 
L 390.407593 188.079952 
L 390.142898 190.249499 
L 389.895789 192.419047 
L 389.666039 194.588595 
L 389.453195 196.758142 
L 389.256557 198.92769 
L 389.075175 201.097237 
L 388.907855 203.266785 
L 388.753178 205.436333 
L 388.609545 207.60588 
L 388.475237 209.775428 
L 388.348495 211.944975 
L 388.22763 214.114523 
L 388.111138 216.284071 
L 387.997827 218.453618 
L 387.886928 220.623166 
L 387.778178 222.792713 
L 387.671859 224.962261 
L 387.568773 227.131809 
L 387.470155 229.301356 
L 387.377527 231.470904 
L 387.292505 233.640452 
L 387.216576 235.809999 
L 387.150887 237.979547 
L 387.096061 240.149094 
L 387.052069 242.318642 
L 387.018178 244.48819 
L 386.992986 246.657737 
L 386.974525 248.827285 
L 386.960444 250.996832 
L 386.948218 253.16638 
L 386.935387 255.335928 
L 386.919767 257.505475 
L 386.899634 259.675023 
L 386.873844 261.84457 
L 386.841892 264.014118 
L 386.803898 266.183666 
L 386.760538 268.353213 
z
" clip-path="url(#p809bd83cca)" style="fill: #1f77b4; fill-opacity: 0.3"/>
   </g>
   <g id="matplotlib.axis_1">
    <g id="xtick_1">
     <g id="line2d_1">
      <defs>
       <path id="me8f7221eda" d="M 0 0 
L 0 3.5 
" style="stroke: #000000; stroke-width: 0.8"/>
      </defs>
      <g>
       <use xlink:href="#me8f7221eda" x="58.825163" y="307.584" style="stroke: #000000; stroke-width: 0.8"/>
      </g>
     </g>
     <g id="text_1">
      <!-- 0 -->
      <g transform="translate(55.643913 322.182437)scale(0.1 -0.1)">
       <defs>
        <path id="DejaVuSans-30" d="M 2034 4250 
Q 1547 4250 1301 3770 
Q 1056 3291 1056 2328 
Q 1056 1369 1301 889 
Q 1547 409 2034 409 
Q 2525 409 2770 889 
Q 3016 1369 3016 2328 
Q 3016 3291 2770 3770 
Q 2525 4250 2034 4250 
z
M 2034 4750 
Q 2819 4750 3233 4129 
Q 3647 3509 3647 2328 
Q 3647 1150 3233 529 
Q 2819 -91 2034 -91 
Q 1250 -91 836 529 
Q 422 1150 422 2328 
Q 422 3509 836 4129 
Q 1250 4750 2034 4750 
z
" transform="scale(0.015625)"/>
       </defs>
       <use xlink:href="#DejaVuSans-30"/>
      </g>
     </g>
    </g>
    <g id="xtick_2">
     <g id="line2d_2">
      <g>
       <use xlink:href="#me8f7221eda" x="113.398124" y="307.584" style="stroke: #000000; stroke-width: 0.8"/>
      </g>
     </g>
     <g id="text_2">
      <!-- 1000 -->
      <g transform="translate(100.673124 322.182437)scale(0.1 -0.1)">
       <defs>
        <path id="DejaVuSans-31" d="M 794 531 
L 1825 531 
L 1825 4091 
L 703 3866 
L 703 4441 
L 1819 4666 
L 2450 4666 
L 2450 531 
L 3481 531 
L 3481 0 
L 794 0 
L 794 531 
z
" transform="scale(0.015625)"/>
       </defs>
       <use xlink:href="#DejaVuSans-31"/>
       <use xlink:href="#DejaVuSans-30" x="63.623047"/>
       <use xlink:href="#DejaVuSans-30" x="127.246094"/>
       <use xlink:href="#DejaVuSans-30" x="190.869141"/>
      </g>
     </g>
    </g>
    <g id="xtick_3">
     <g id="line2d_3">
      <g>
       <use xlink:href="#me8f7221eda" x="167.971085" y="307.584" style="stroke: #000000; stroke-width: 0.8"/>
      </g>
     </g>
     <g id="text_3">
      <!-- 2000 -->
      <g transform="translate(155.246085 322.182437)scale(0.1 -0.1)">
       <defs>
        <path id="DejaVuSans-32" d="M 1228 531 
L 3431 531 
L 3431 0 
L 469 0 
L 469 531 
Q 828 903 1448 1529 
Q 2069 2156 2228 2338 
Q 2531 2678 2651 2914 
Q 2772 3150 2772 3378 
Q 2772 3750 2511 3984 
Q 2250 4219 1831 4219 
Q 1534 4219 1204 4116 
Q 875 4013 500 3803 
L 500 4441 
Q 881 4594 1212 4672 
Q 1544 4750 1819 4750 
Q 2544 4750 2975 4387 
Q 3406 4025 3406 3419 
Q 3406 3131 3298 2873 
Q 3191 2616 2906 2266 
Q 2828 2175 2409 1742 
Q 1991 1309 1228 531 
z
" transform="scale(0.015625)"/>
       </defs>
       <use xlink:href="#DejaVuSans-32"/>
       <use xlink:href="#DejaVuSans-30" x="63.623047"/>
       <use xlink:href="#DejaVuSans-30" x="127.246094"/>
       <use xlink:href="#DejaVuSans-30" x="190.869141"/>
      </g>
     </g>
    </g>
    <g id="xtick_4">
     <g id="line2d_4">
      <g>
       <use xlink:href="#me8f7221eda" x="222.544046" y="307.584" style="stroke: #000000; stroke-width: 0.8"/>
      </g>
     </g>
     <g id="text_4">
      <!-- 3000 -->
      <g transform="translate(209.819046 322.182437)scale(0.1 -0.1)">
       <defs>
        <path id="DejaVuSans-33" d="M 2597 2516 
Q 3050 2419 3304 2112 
Q 3559 1806 3559 1356 
Q 3559 666 3084 287 
Q 2609 -91 1734 -91 
Q 1441 -91 1130 -33 
Q 819 25 488 141 
L 488 750 
Q 750 597 1062 519 
Q 1375 441 1716 441 
Q 2309 441 2620 675 
Q 2931 909 2931 1356 
Q 2931 1769 2642 2001 
Q 2353 2234 1838 2234 
L 1294 2234 
L 1294 2753 
L 1863 2753 
Q 2328 2753 2575 2939 
Q 2822 3125 2822 3475 
Q 2822 3834 2567 4026 
Q 2313 4219 1838 4219 
Q 1578 4219 1281 4162 
Q 984 4106 628 3988 
L 628 4550 
Q 988 4650 1302 4700 
Q 1616 4750 1894 4750 
Q 2613 4750 3031 4423 
Q 3450 4097 3450 3541 
Q 3450 3153 3228 2886 
Q 3006 2619 2597 2516 
z
" transform="scale(0.015625)"/>
       </defs>
       <use xlink:href="#DejaVuSans-33"/>
       <use xlink:href="#DejaVuSans-30" x="63.623047"/>
       <use xlink:href="#DejaVuSans-30" x="127.246094"/>
       <use xlink:href="#DejaVuSans-30" x="190.869141"/>
      </g>
     </g>
    </g>
    <g id="xtick_5">
     <g id="line2d_5">
      <g>
       <use xlink:href="#me8f7221eda" x="277.117007" y="307.584" style="stroke: #000000; stroke-width: 0.8"/>
      </g>
     </g>
     <g id="text_5">
      <!-- 4000 -->
      <g transform="translate(264.392007 322.182437)scale(0.1 -0.1)">
       <defs>
        <path id="DejaVuSans-34" d="M 2419 4116 
L 825 1625 
L 2419 1625 
L 2419 4116 
z
M 2253 4666 
L 3047 4666 
L 3047 1625 
L 3713 1625 
L 3713 1100 
L 3047 1100 
L 3047 0 
L 2419 0 
L 2419 1100 
L 313 1100 
L 313 1709 
L 2253 4666 
z
" transform="scale(0.015625)"/>
       </defs>
       <use xlink:href="#DejaVuSans-34"/>
       <use xlink:href="#DejaVuSans-30" x="63.623047"/>
       <use xlink:href="#DejaVuSans-30" x="127.246094"/>
       <use xlink:href="#DejaVuSans-30" x="190.869141"/>
      </g>
     </g>
    </g>
    <g id="xtick_6">
     <g id="line2d_6">
      <g>
       <use xlink:href="#me8f7221eda" x="331.689968" y="307.584" style="stroke: #000000; stroke-width: 0.8"/>
      </g>
     </g>
     <g id="text_6">
      <!-- 5000 -->
      <g transform="translate(318.964968 322.182437)scale(0.1 -0.1)">
       <defs>
        <path id="DejaVuSans-35" d="M 691 4666 
L 3169 4666 
L 3169 4134 
L 1269 4134 
L 1269 2991 
Q 1406 3038 1543 3061 
Q 1681 3084 1819 3084 
Q 2600 3084 3056 2656 
Q 3513 2228 3513 1497 
Q 3513 744 3044 326 
Q 2575 -91 1722 -91 
Q 1428 -91 1123 -41 
Q 819 9 494 109 
L 494 744 
Q 775 591 1075 516 
Q 1375 441 1709 441 
Q 2250 441 2565 725 
Q 2881 1009 2881 1497 
Q 2881 1984 2565 2268 
Q 2250 2553 1709 2553 
Q 1456 2553 1204 2497 
Q 953 2441 691 2322 
L 691 4666 
z
" transform="scale(0.015625)"/>
       </defs>
       <use xlink:href="#DejaVuSans-35"/>
       <use xlink:href="#DejaVuSans-30" x="63.623047"/>
       <use xlink:href="#DejaVuSans-30" x="127.246094"/>
       <use xlink:href="#DejaVuSans-30" x="190.869141"/>
      </g>
     </g>
    </g>
    <g id="xtick_7">
     <g id="line2d_7">
      <g>
       <use xlink:href="#me8f7221eda" x="386.262929" y="307.584" style="stroke: #000000; stroke-width: 0.8"/>
      </g>
     </g>
     <g id="text_7">
      <!-- 6000 -->
      <g transform="translate(373.537929 322.182437)scale(0.1 -0.1)">
       <defs>
        <path id="DejaVuSans-36" d="M 2113 2584 
Q 1688 2584 1439 2293 
Q 1191 2003 1191 1497 
Q 1191 994 1439 701 
Q 1688 409 2113 409 
Q 2538 409 2786 701 
Q 3034 994 3034 1497 
Q 3034 2003 2786 2293 
Q 2538 2584 2113 2584 
z
M 3366 4563 
L 3366 3988 
Q 3128 4100 2886 4159 
Q 2644 4219 2406 4219 
Q 1781 4219 1451 3797 
Q 1122 3375 1075 2522 
Q 1259 2794 1537 2939 
Q 1816 3084 2150 3084 
Q 2853 3084 3261 2657 
Q 3669 2231 3669 1497 
Q 3669 778 3244 343 
Q 2819 -91 2113 -91 
Q 1303 -91 875 529 
Q 447 1150 447 2328 
Q 447 3434 972 4092 
Q 1497 4750 2381 4750 
Q 2619 4750 2861 4703 
Q 3103 4656 3366 4563 
z
" transform="scale(0.015625)"/>
       </defs>
       <use xlink:href="#DejaVuSans-36"/>
       <use xlink:href="#DejaVuSans-30" x="63.623047"/>
       <use xlink:href="#DejaVuSans-30" x="127.246094"/>
       <use xlink:href="#DejaVuSans-30" x="190.869141"/>
      </g>
     </g>
    </g>
    <g id="text_8">
     <!-- Learned Episodes -->
     <g transform="translate(192.102187 335.860562)scale(0.1 -0.1)">
      <defs>
       <path id="DejaVuSans-4c" d="M 628 4666 
L 1259 4666 
L 1259 531 
L 3531 531 
L 3531 0 
L 628 0 
L 628 4666 
z
" transform="scale(0.015625)"/>
       <path id="DejaVuSans-65" d="M 3597 1894 
L 3597 1613 
L 953 1613 
Q 991 1019 1311 708 
Q 1631 397 2203 397 
Q 2534 397 2845 478 
Q 3156 559 3463 722 
L 3463 178 
Q 3153 47 2828 -22 
Q 2503 -91 2169 -91 
Q 1331 -91 842 396 
Q 353 884 353 1716 
Q 353 2575 817 3079 
Q 1281 3584 2069 3584 
Q 2775 3584 3186 3129 
Q 3597 2675 3597 1894 
z
M 3022 2063 
Q 3016 2534 2758 2815 
Q 2500 3097 2075 3097 
Q 1594 3097 1305 2825 
Q 1016 2553 972 2059 
L 3022 2063 
z
" transform="scale(0.015625)"/>
       <path id="DejaVuSans-61" d="M 2194 1759 
Q 1497 1759 1228 1600 
Q 959 1441 959 1056 
Q 959 750 1161 570 
Q 1363 391 1709 391 
Q 2188 391 2477 730 
Q 2766 1069 2766 1631 
L 2766 1759 
L 2194 1759 
z
M 3341 1997 
L 3341 0 
L 2766 0 
L 2766 531 
Q 2569 213 2275 61 
Q 1981 -91 1556 -91 
Q 1019 -91 701 211 
Q 384 513 384 1019 
Q 384 1609 779 1909 
Q 1175 2209 1959 2209 
L 2766 2209 
L 2766 2266 
Q 2766 2663 2505 2880 
Q 2244 3097 1772 3097 
Q 1472 3097 1187 3025 
Q 903 2953 641 2809 
L 641 3341 
Q 956 3463 1253 3523 
Q 1550 3584 1831 3584 
Q 2591 3584 2966 3190 
Q 3341 2797 3341 1997 
z
" transform="scale(0.015625)"/>
       <path id="DejaVuSans-72" d="M 2631 2963 
Q 2534 3019 2420 3045 
Q 2306 3072 2169 3072 
Q 1681 3072 1420 2755 
Q 1159 2438 1159 1844 
L 1159 0 
L 581 0 
L 581 3500 
L 1159 3500 
L 1159 2956 
Q 1341 3275 1631 3429 
Q 1922 3584 2338 3584 
Q 2397 3584 2469 3576 
Q 2541 3569 2628 3553 
L 2631 2963 
z
" transform="scale(0.015625)"/>
       <path id="DejaVuSans-6e" d="M 3513 2113 
L 3513 0 
L 2938 0 
L 2938 2094 
Q 2938 2591 2744 2837 
Q 2550 3084 2163 3084 
Q 1697 3084 1428 2787 
Q 1159 2491 1159 1978 
L 1159 0 
L 581 0 
L 581 3500 
L 1159 3500 
L 1159 2956 
Q 1366 3272 1645 3428 
Q 1925 3584 2291 3584 
Q 2894 3584 3203 3211 
Q 3513 2838 3513 2113 
z
" transform="scale(0.015625)"/>
       <path id="DejaVuSans-64" d="M 2906 2969 
L 2906 4863 
L 3481 4863 
L 3481 0 
L 2906 0 
L 2906 525 
Q 2725 213 2448 61 
Q 2172 -91 1784 -91 
Q 1150 -91 751 415 
Q 353 922 353 1747 
Q 353 2572 751 3078 
Q 1150 3584 1784 3584 
Q 2172 3584 2448 3432 
Q 2725 3281 2906 2969 
z
M 947 1747 
Q 947 1113 1208 752 
Q 1469 391 1925 391 
Q 2381 391 2643 752 
Q 2906 1113 2906 1747 
Q 2906 2381 2643 2742 
Q 2381 3103 1925 3103 
Q 1469 3103 1208 2742 
Q 947 2381 947 1747 
z
" transform="scale(0.015625)"/>
       <path id="DejaVuSans-20" transform="scale(0.015625)"/>
       <path id="DejaVuSans-45" d="M 628 4666 
L 3578 4666 
L 3578 4134 
L 1259 4134 
L 1259 2753 
L 3481 2753 
L 3481 2222 
L 1259 2222 
L 1259 531 
L 3634 531 
L 3634 0 
L 628 0 
L 628 4666 
z
" transform="scale(0.015625)"/>
       <path id="DejaVuSans-70" d="M 1159 525 
L 1159 -1331 
L 581 -1331 
L 581 3500 
L 1159 3500 
L 1159 2969 
Q 1341 3281 1617 3432 
Q 1894 3584 2278 3584 
Q 2916 3584 3314 3078 
Q 3713 2572 3713 1747 
Q 3713 922 3314 415 
Q 2916 -91 2278 -91 
Q 1894 -91 1617 61 
Q 1341 213 1159 525 
z
M 3116 1747 
Q 3116 2381 2855 2742 
Q 2594 3103 2138 3103 
Q 1681 3103 1420 2742 
Q 1159 2381 1159 1747 
Q 1159 1113 1420 752 
Q 1681 391 2138 391 
Q 2594 391 2855 752 
Q 3116 1113 3116 1747 
z
" transform="scale(0.015625)"/>
       <path id="DejaVuSans-69" d="M 603 3500 
L 1178 3500 
L 1178 0 
L 603 0 
L 603 3500 
z
M 603 4863 
L 1178 4863 
L 1178 4134 
L 603 4134 
L 603 4863 
z
" transform="scale(0.015625)"/>
       <path id="DejaVuSans-73" d="M 2834 3397 
L 2834 2853 
Q 2591 2978 2328 3040 
Q 2066 3103 1784 3103 
Q 1356 3103 1142 2972 
Q 928 2841 928 2578 
Q 928 2378 1081 2264 
Q 1234 2150 1697 2047 
L 1894 2003 
Q 2506 1872 2764 1633 
Q 3022 1394 3022 966 
Q 3022 478 2636 193 
Q 2250 -91 1575 -91 
Q 1294 -91 989 -36 
Q 684 19 347 128 
L 347 722 
Q 666 556 975 473 
Q 1284 391 1588 391 
Q 1994 391 2212 530 
Q 2431 669 2431 922 
Q 2431 1156 2273 1281 
Q 2116 1406 1581 1522 
L 1381 1569 
Q 847 1681 609 1914 
Q 372 2147 372 2553 
Q 372 3047 722 3315 
Q 1072 3584 1716 3584 
Q 2034 3584 2315 3537 
Q 2597 3491 2834 3397 
z
" transform="scale(0.015625)"/>
       <path id="DejaVuSans-6f" d="M 1959 3097 
Q 1497 3097 1228 2736 
Q 959 2375 959 1747 
Q 959 1119 1226 758 
Q 1494 397 1959 397 
Q 2419 397 2687 759 
Q 2956 1122 2956 1747 
Q 2956 2369 2687 2733 
Q 2419 3097 1959 3097 
z
M 1959 3584 
Q 2709 3584 3137 3096 
Q 3566 2609 3566 1747 
Q 3566 888 3137 398 
Q 2709 -91 1959 -91 
Q 1206 -91 779 398 
Q 353 888 353 1747 
Q 353 2609 779 3096 
Q 1206 3584 1959 3584 
z
" transform="scale(0.015625)"/>
      </defs>
      <use xlink:href="#DejaVuSans-4c"/>
      <use xlink:href="#DejaVuSans-65" x="53.962891"/>
      <use xlink:href="#DejaVuSans-61" x="115.486328"/>
      <use xlink:href="#DejaVuSans-72" x="176.765625"/>
      <use xlink:href="#DejaVuSans-6e" x="216.128906"/>
      <use xlink:href="#DejaVuSans-65" x="279.507812"/>
      <use xlink:href="#DejaVuSans-64" x="341.03125"/>
      <use xlink:href="#DejaVuSans-20" x="404.507812"/>
      <use xlink:href="#DejaVuSans-45" x="436.294922"/>
      <use xlink:href="#DejaVuSans-70" x="499.478516"/>
      <use xlink:href="#DejaVuSans-69" x="562.955078"/>
      <use xlink:href="#DejaVuSans-73" x="590.738281"/>
      <use xlink:href="#DejaVuSans-6f" x="642.837891"/>
      <use xlink:href="#DejaVuSans-64" x="704.019531"/>
      <use xlink:href="#DejaVuSans-65" x="767.496094"/>
      <use xlink:href="#DejaVuSans-73" x="829.019531"/>
     </g>
    </g>
   </g>
   <g id="matplotlib.axis_2">
    <g id="ytick_1">
     <g id="line2d_8">
      <defs>
       <path id="md2062f5b1e" d="M 0 0 
L -3.5 0 
" style="stroke: #000000; stroke-width: 0.8"/>
      </defs>
      <g>
       <use xlink:href="#md2062f5b1e" x="57.6" y="282.876057" style="stroke: #000000; stroke-width: 0.8"/>
      </g>
     </g>
     <g id="text_9">
      <!-- 600 -->
      <g transform="translate(23.132812 286.675276)scale(0.1 -0.1)">
       <defs>
        <path id="DejaVuSans-2212" d="M 678 2272 
L 4684 2272 
L 4684 1741 
L 678 1741 
L 678 2272 
z
" transform="scale(0.015625)"/>
       </defs>
       <use xlink:href="#DejaVuSans-2212"/>
       <use xlink:href="#DejaVuSans-36" x="83.789062"/>
       <use xlink:href="#DejaVuSans-30" x="147.412109"/>
       <use xlink:href="#DejaVuSans-30" x="211.035156"/>
      </g>
     </g>
    </g>
    <g id="ytick_2">
     <g id="line2d_9">
      <g>
       <use xlink:href="#md2062f5b1e" x="57.6" y="244.658047" style="stroke: #000000; stroke-width: 0.8"/>
      </g>
     </g>
     <g id="text_10">
      <!-- 500 -->
      <g transform="translate(23.132812 248.457266)scale(0.1 -0.1)">
       <use xlink:href="#DejaVuSans-2212"/>
       <use xlink:href="#DejaVuSans-35" x="83.789062"/>
       <use xlink:href="#DejaVuSans-30" x="147.412109"/>
       <use xlink:href="#DejaVuSans-30" x="211.035156"/>
      </g>
     </g>
    </g>
    <g id="ytick_3">
     <g id="line2d_10">
      <g>
       <use xlink:href="#md2062f5b1e" x="57.6" y="206.440038" style="stroke: #000000; stroke-width: 0.8"/>
      </g>
     </g>
     <g id="text_11">
      <!-- 400 -->
      <g transform="translate(23.132812 210.239257)scale(0.1 -0.1)">
       <use xlink:href="#DejaVuSans-2212"/>
       <use xlink:href="#DejaVuSans-34" x="83.789062"/>
       <use xlink:href="#DejaVuSans-30" x="147.412109"/>
       <use xlink:href="#DejaVuSans-30" x="211.035156"/>
      </g>
     </g>
    </g>
    <g id="ytick_4">
     <g id="line2d_11">
      <g>
       <use xlink:href="#md2062f5b1e" x="57.6" y="168.222028" style="stroke: #000000; stroke-width: 0.8"/>
      </g>
     </g>
     <g id="text_12">
      <!-- 300 -->
      <g transform="translate(23.132812 172.021247)scale(0.1 -0.1)">
       <use xlink:href="#DejaVuSans-2212"/>
       <use xlink:href="#DejaVuSans-33" x="83.789062"/>
       <use xlink:href="#DejaVuSans-30" x="147.412109"/>
       <use xlink:href="#DejaVuSans-30" x="211.035156"/>
      </g>
     </g>
    </g>
    <g id="ytick_5">
     <g id="line2d_12">
      <g>
       <use xlink:href="#md2062f5b1e" x="57.6" y="130.004019" style="stroke: #000000; stroke-width: 0.8"/>
      </g>
     </g>
     <g id="text_13">
      <!-- 200 -->
      <g transform="translate(23.132812 133.803238)scale(0.1 -0.1)">
       <use xlink:href="#DejaVuSans-2212"/>
       <use xlink:href="#DejaVuSans-32" x="83.789062"/>
       <use xlink:href="#DejaVuSans-30" x="147.412109"/>
       <use xlink:href="#DejaVuSans-30" x="211.035156"/>
      </g>
     </g>
    </g>
    <g id="ytick_6">
     <g id="line2d_13">
      <g>
       <use xlink:href="#md2062f5b1e" x="57.6" y="91.786009" style="stroke: #000000; stroke-width: 0.8"/>
      </g>
     </g>
     <g id="text_14">
      <!-- 100 -->
      <g transform="translate(23.132812 95.585228)scale(0.1 -0.1)">
       <use xlink:href="#DejaVuSans-2212"/>
       <use xlink:href="#DejaVuSans-31" x="83.789062"/>
       <use xlink:href="#DejaVuSans-30" x="147.412109"/>
       <use xlink:href="#DejaVuSans-30" x="211.035156"/>
      </g>
     </g>
    </g>
    <g id="ytick_7">
     <g id="line2d_14">
      <g>
       <use xlink:href="#md2062f5b1e" x="57.6" y="53.568" style="stroke: #000000; stroke-width: 0.8"/>
      </g>
     </g>
     <g id="text_15">
      <!-- 0 -->
      <g transform="translate(44.2375 57.367219)scale(0.1 -0.1)">
       <use xlink:href="#DejaVuSans-30"/>
      </g>
     </g>
    </g>
    <g id="text_16">
     <!-- Reward Density -->
     <g transform="translate(17.053125 213.74675)rotate(-90)scale(0.1 -0.1)">
      <defs>
       <path id="DejaVuSans-52" d="M 2841 2188 
Q 3044 2119 3236 1894 
Q 3428 1669 3622 1275 
L 4263 0 
L 3584 0 
L 2988 1197 
Q 2756 1666 2539 1819 
Q 2322 1972 1947 1972 
L 1259 1972 
L 1259 0 
L 628 0 
L 628 4666 
L 2053 4666 
Q 2853 4666 3247 4331 
Q 3641 3997 3641 3322 
Q 3641 2881 3436 2590 
Q 3231 2300 2841 2188 
z
M 1259 4147 
L 1259 2491 
L 2053 2491 
Q 2509 2491 2742 2702 
Q 2975 2913 2975 3322 
Q 2975 3731 2742 3939 
Q 2509 4147 2053 4147 
L 1259 4147 
z
" transform="scale(0.015625)"/>
       <path id="DejaVuSans-77" d="M 269 3500 
L 844 3500 
L 1563 769 
L 2278 3500 
L 2956 3500 
L 3675 769 
L 4391 3500 
L 4966 3500 
L 4050 0 
L 3372 0 
L 2619 2869 
L 1863 0 
L 1184 0 
L 269 3500 
z
" transform="scale(0.015625)"/>
       <path id="DejaVuSans-44" d="M 1259 4147 
L 1259 519 
L 2022 519 
Q 2988 519 3436 956 
Q 3884 1394 3884 2338 
Q 3884 3275 3436 3711 
Q 2988 4147 2022 4147 
L 1259 4147 
z
M 628 4666 
L 1925 4666 
Q 3281 4666 3915 4102 
Q 4550 3538 4550 2338 
Q 4550 1131 3912 565 
Q 3275 0 1925 0 
L 628 0 
L 628 4666 
z
" transform="scale(0.015625)"/>
       <path id="DejaVuSans-74" d="M 1172 4494 
L 1172 3500 
L 2356 3500 
L 2356 3053 
L 1172 3053 
L 1172 1153 
Q 1172 725 1289 603 
Q 1406 481 1766 481 
L 2356 481 
L 2356 0 
L 1766 0 
Q 1100 0 847 248 
Q 594 497 594 1153 
L 594 3053 
L 172 3053 
L 172 3500 
L 594 3500 
L 594 4494 
L 1172 4494 
z
" transform="scale(0.015625)"/>
       <path id="DejaVuSans-79" d="M 2059 -325 
Q 1816 -950 1584 -1140 
Q 1353 -1331 966 -1331 
L 506 -1331 
L 506 -850 
L 844 -850 
Q 1081 -850 1212 -737 
Q 1344 -625 1503 -206 
L 1606 56 
L 191 3500 
L 800 3500 
L 1894 763 
L 2988 3500 
L 3597 3500 
L 2059 -325 
z
" transform="scale(0.015625)"/>
      </defs>
      <use xlink:href="#DejaVuSans-52"/>
      <use xlink:href="#DejaVuSans-65" x="64.982422"/>
      <use xlink:href="#DejaVuSans-77" x="126.505859"/>
      <use xlink:href="#DejaVuSans-61" x="208.292969"/>
      <use xlink:href="#DejaVuSans-72" x="269.572266"/>
      <use xlink:href="#DejaVuSans-64" x="308.935547"/>
      <use xlink:href="#DejaVuSans-20" x="372.412109"/>
      <use xlink:href="#DejaVuSans-44" x="404.199219"/>
      <use xlink:href="#DejaVuSans-65" x="481.201172"/>
      <use xlink:href="#DejaVuSans-6e" x="542.724609"/>
      <use xlink:href="#DejaVuSans-73" x="606.103516"/>
      <use xlink:href="#DejaVuSans-69" x="658.203125"/>
      <use xlink:href="#DejaVuSans-74" x="685.986328"/>
      <use xlink:href="#DejaVuSans-79" x="725.195312"/>
     </g>
    </g>
   </g>
   <g id="LineCollection_1">
    <path d="M 79.972185 146.969758 
L 92.251102 146.969758 
" clip-path="url(#p809bd83cca)" style="fill: none; stroke: #1f77b4; stroke-width: 1.5"/>
    <path d="M 107.258666 136.679941 
L 119.537582 136.679941 
" clip-path="url(#p809bd83cca)" style="fill: none; stroke: #1f77b4; stroke-width: 1.5"/>
    <path d="M 134.545146 132.789347 
L 146.824063 132.789347 
" clip-path="url(#p809bd83cca)" style="fill: none; stroke: #1f77b4; stroke-width: 1.5"/>
    <path d="M 161.831627 128.486 
L 174.110543 128.486 
" clip-path="url(#p809bd83cca)" style="fill: none; stroke: #1f77b4; stroke-width: 1.5"/>
    <path d="M 189.118108 127.32723 
L 201.397024 127.32723 
" clip-path="url(#p809bd83cca)" style="fill: none; stroke: #1f77b4; stroke-width: 1.5"/>
    <path d="M 216.404588 115.074536 
L 228.683504 115.074536 
" clip-path="url(#p809bd83cca)" style="fill: none; stroke: #1f77b4; stroke-width: 1.5"/>
    <path d="M 243.691069 117.914898 
L 255.969985 117.914898 
" clip-path="url(#p809bd83cca)" style="fill: none; stroke: #1f77b4; stroke-width: 1.5"/>
    <path d="M 270.977549 128.169555 
L 283.256465 128.169555 
" clip-path="url(#p809bd83cca)" style="fill: none; stroke: #1f77b4; stroke-width: 1.5"/>
    <path d="M 298.26403 126.504778 
L 310.542946 126.504778 
" clip-path="url(#p809bd83cca)" style="fill: none; stroke: #1f77b4; stroke-width: 1.5"/>
    <path d="M 325.55051 123.499314 
L 337.829426 123.499314 
" clip-path="url(#p809bd83cca)" style="fill: none; stroke: #1f77b4; stroke-width: 1.5"/>
    <path d="M 352.836991 111.812246 
L 365.115907 111.812246 
" clip-path="url(#p809bd83cca)" style="fill: none; stroke: #1f77b4; stroke-width: 1.5"/>
    <path d="M 380.068898 120.383782 
L 392.347815 120.383782 
" clip-path="url(#p809bd83cca)" style="fill: none; stroke: #1f77b4; stroke-width: 1.5"/>
   </g>
   <g id="LineCollection_2">
    <path d="M 79.972185 53.568 
L 92.251102 53.568 
" clip-path="url(#p809bd83cca)" style="fill: none; stroke: #1f77b4; stroke-width: 1.5"/>
    <path d="M 107.258666 53.568 
L 119.537582 53.568 
" clip-path="url(#p809bd83cca)" style="fill: none; stroke: #1f77b4; stroke-width: 1.5"/>
    <path d="M 134.545146 53.568 
L 146.824063 53.568 
" clip-path="url(#p809bd83cca)" style="fill: none; stroke: #1f77b4; stroke-width: 1.5"/>
    <path d="M 161.831627 53.568 
L 174.110543 53.568 
" clip-path="url(#p809bd83cca)" style="fill: none; stroke: #1f77b4; stroke-width: 1.5"/>
    <path d="M 189.118108 53.568 
L 201.397024 53.568 
" clip-path="url(#p809bd83cca)" style="fill: none; stroke: #1f77b4; stroke-width: 1.5"/>
    <path d="M 216.404588 53.568 
L 228.683504 53.568 
" clip-path="url(#p809bd83cca)" style="fill: none; stroke: #1f77b4; stroke-width: 1.5"/>
    <path d="M 243.691069 53.568 
L 255.969985 53.568 
" clip-path="url(#p809bd83cca)" style="fill: none; stroke: #1f77b4; stroke-width: 1.5"/>
    <path d="M 270.977549 53.568 
L 283.256465 53.568 
" clip-path="url(#p809bd83cca)" style="fill: none; stroke: #1f77b4; stroke-width: 1.5"/>
    <path d="M 298.26403 53.568 
L 310.542946 53.568 
" clip-path="url(#p809bd83cca)" style="fill: none; stroke: #1f77b4; stroke-width: 1.5"/>
    <path d="M 325.55051 53.568 
L 337.829426 53.568 
" clip-path="url(#p809bd83cca)" style="fill: none; stroke: #1f77b4; stroke-width: 1.5"/>
    <path d="M 352.836991 53.568 
L 365.115907 53.568 
" clip-path="url(#p809bd83cca)" style="fill: none; stroke: #1f77b4; stroke-width: 1.5"/>
    <path d="M 380.068898 53.568 
L 392.347815 53.568 
" clip-path="url(#p809bd83cca)" style="fill: none; stroke: #1f77b4; stroke-width: 1.5"/>
   </g>
   <g id="LineCollection_3">
    <path d="M 79.972185 279.818616 
L 92.251102 279.818616 
" clip-path="url(#p809bd83cca)" style="fill: none; stroke: #1f77b4; stroke-width: 1.5"/>
    <path d="M 107.258666 276.761175 
L 119.537582 276.761175 
" clip-path="url(#p809bd83cca)" style="fill: none; stroke: #1f77b4; stroke-width: 1.5"/>
    <path d="M 134.545146 261.091791 
L 146.824063 261.091791 
" clip-path="url(#p809bd83cca)" style="fill: none; stroke: #1f77b4; stroke-width: 1.5"/>
    <path d="M 161.831627 295.488 
L 174.110543 295.488 
" clip-path="url(#p809bd83cca)" style="fill: none; stroke: #1f77b4; stroke-width: 1.5"/>
    <path d="M 189.118108 256.88781 
L 201.397024 256.88781 
" clip-path="url(#p809bd83cca)" style="fill: none; stroke: #1f77b4; stroke-width: 1.5"/>
    <path d="M 216.404588 278.672076 
L 228.683504 278.672076 
" clip-path="url(#p809bd83cca)" style="fill: none; stroke: #1f77b4; stroke-width: 1.5"/>
    <path d="M 243.691069 264.913592 
L 255.969985 264.913592 
" clip-path="url(#p809bd83cca)" style="fill: none; stroke: #1f77b4; stroke-width: 1.5"/>
    <path d="M 270.977549 267.588853 
L 283.256465 267.588853 
" clip-path="url(#p809bd83cca)" style="fill: none; stroke: #1f77b4; stroke-width: 1.5"/>
    <path d="M 298.26403 277.525536 
L 310.542946 277.525536 
" clip-path="url(#p809bd83cca)" style="fill: none; stroke: #1f77b4; stroke-width: 1.5"/>
    <path d="M 325.55051 292.048379 
L 337.829426 292.048379 
" clip-path="url(#p809bd83cca)" style="fill: none; stroke: #1f77b4; stroke-width: 1.5"/>
    <path d="M 352.836991 259.563071 
L 365.115907 259.563071 
" clip-path="url(#p809bd83cca)" style="fill: none; stroke: #1f77b4; stroke-width: 1.5"/>
    <path d="M 380.068898 268.353213 
L 392.347815 268.353213 
" clip-path="url(#p809bd83cca)" style="fill: none; stroke: #1f77b4; stroke-width: 1.5"/>
   </g>
   <g id="LineCollection_4">
    <path d="M 86.111644 279.818616 
L 86.111644 53.568 
" clip-path="url(#p809bd83cca)" style="fill: none; stroke: #1f77b4; stroke-width: 1.5"/>
    <path d="M 113.398124 276.761175 
L 113.398124 53.568 
" clip-path="url(#p809bd83cca)" style="fill: none; stroke: #1f77b4; stroke-width: 1.5"/>
    <path d="M 140.684605 261.091791 
L 140.684605 53.568 
" clip-path="url(#p809bd83cca)" style="fill: none; stroke: #1f77b4; stroke-width: 1.5"/>
    <path d="M 167.971085 295.488 
L 167.971085 53.568 
" clip-path="url(#p809bd83cca)" style="fill: none; stroke: #1f77b4; stroke-width: 1.5"/>
    <path d="M 195.257566 256.88781 
L 195.257566 53.568 
" clip-path="url(#p809bd83cca)" style="fill: none; stroke: #1f77b4; stroke-width: 1.5"/>
    <path d="M 222.544046 278.672076 
L 222.544046 53.568 
" clip-path="url(#p809bd83cca)" style="fill: none; stroke: #1f77b4; stroke-width: 1.5"/>
    <path d="M 249.830527 264.913592 
L 249.830527 53.568 
" clip-path="url(#p809bd83cca)" style="fill: none; stroke: #1f77b4; stroke-width: 1.5"/>
    <path d="M 277.117007 267.588853 
L 277.117007 53.568 
" clip-path="url(#p809bd83cca)" style="fill: none; stroke: #1f77b4; stroke-width: 1.5"/>
    <path d="M 304.403488 277.525536 
L 304.403488 53.568 
" clip-path="url(#p809bd83cca)" style="fill: none; stroke: #1f77b4; stroke-width: 1.5"/>
    <path d="M 331.689968 292.048379 
L 331.689968 53.568 
" clip-path="url(#p809bd83cca)" style="fill: none; stroke: #1f77b4; stroke-width: 1.5"/>
    <path d="M 358.976449 259.563071 
L 358.976449 53.568 
" clip-path="url(#p809bd83cca)" style="fill: none; stroke: #1f77b4; stroke-width: 1.5"/>
    <path d="M 386.208356 268.353213 
L 386.208356 53.568 
" clip-path="url(#p809bd83cca)" style="fill: none; stroke: #1f77b4; stroke-width: 1.5"/>
   </g>
   <g id="line2d_15">
    <path d="M 86.111644 146.969758 
L 113.398124 136.679941 
L 140.684605 132.789347 
L 167.971085 128.486 
L 195.257566 127.32723 
L 222.544046 115.074536 
L 249.830527 117.914898 
L 277.117007 128.169555 
L 304.403488 126.504778 
L 331.689968 123.499314 
L 358.976449 111.812246 
L 386.208356 120.383782 
" clip-path="url(#p809bd83cca)" style="fill: none; stroke: #4682b4; stroke-width: 1.5; stroke-linecap: square"/>
   </g>
   <g id="patch_3">
    <path d="M 57.6 307.584 
L 57.6 41.472 
" style="fill: none; stroke: #000000; stroke-width: 0.8; stroke-linejoin: miter; stroke-linecap: square"/>
   </g>
   <g id="patch_4">
    <path d="M 414.72 307.584 
L 414.72 41.472 
" style="fill: none; stroke: #000000; stroke-width: 0.8; stroke-linejoin: miter; stroke-linecap: square"/>
   </g>
   <g id="patch_5">
    <path d="M 57.6 307.584 
L 414.72 307.584 
" style="fill: none; stroke: #000000; stroke-width: 0.8; stroke-linejoin: miter; stroke-linecap: square"/>
   </g>
   <g id="patch_6">
    <path d="M 57.6 41.472 
L 414.72 41.472 
" style="fill: none; stroke: #000000; stroke-width: 0.8; stroke-linejoin: miter; stroke-linecap: square"/>
   </g>
   <g id="text_17">
    <!-- Violinplot for progress of profits/rebuy_cost -->
    <g transform="translate(106.935937 35.472)scale(0.12 -0.12)">
     <defs>
      <path id="DejaVuSans-56" d="M 1831 0 
L 50 4666 
L 709 4666 
L 2188 738 
L 3669 4666 
L 4325 4666 
L 2547 0 
L 1831 0 
z
" transform="scale(0.015625)"/>
      <path id="DejaVuSans-6c" d="M 603 4863 
L 1178 4863 
L 1178 0 
L 603 0 
L 603 4863 
z
" transform="scale(0.015625)"/>
      <path id="DejaVuSans-66" d="M 2375 4863 
L 2375 4384 
L 1825 4384 
Q 1516 4384 1395 4259 
Q 1275 4134 1275 3809 
L 1275 3500 
L 2222 3500 
L 2222 3053 
L 1275 3053 
L 1275 0 
L 697 0 
L 697 3053 
L 147 3053 
L 147 3500 
L 697 3500 
L 697 3744 
Q 697 4328 969 4595 
Q 1241 4863 1831 4863 
L 2375 4863 
z
" transform="scale(0.015625)"/>
      <path id="DejaVuSans-67" d="M 2906 1791 
Q 2906 2416 2648 2759 
Q 2391 3103 1925 3103 
Q 1463 3103 1205 2759 
Q 947 2416 947 1791 
Q 947 1169 1205 825 
Q 1463 481 1925 481 
Q 2391 481 2648 825 
Q 2906 1169 2906 1791 
z
M 3481 434 
Q 3481 -459 3084 -895 
Q 2688 -1331 1869 -1331 
Q 1566 -1331 1297 -1286 
Q 1028 -1241 775 -1147 
L 775 -588 
Q 1028 -725 1275 -790 
Q 1522 -856 1778 -856 
Q 2344 -856 2625 -561 
Q 2906 -266 2906 331 
L 2906 616 
Q 2728 306 2450 153 
Q 2172 0 1784 0 
Q 1141 0 747 490 
Q 353 981 353 1791 
Q 353 2603 747 3093 
Q 1141 3584 1784 3584 
Q 2172 3584 2450 3431 
Q 2728 3278 2906 2969 
L 2906 3500 
L 3481 3500 
L 3481 434 
z
" transform="scale(0.015625)"/>
      <path id="DejaVuSans-2f" d="M 1625 4666 
L 2156 4666 
L 531 -594 
L 0 -594 
L 1625 4666 
z
" transform="scale(0.015625)"/>
      <path id="DejaVuSans-62" d="M 3116 1747 
Q 3116 2381 2855 2742 
Q 2594 3103 2138 3103 
Q 1681 3103 1420 2742 
Q 1159 2381 1159 1747 
Q 1159 1113 1420 752 
Q 1681 391 2138 391 
Q 2594 391 2855 752 
Q 3116 1113 3116 1747 
z
M 1159 2969 
Q 1341 3281 1617 3432 
Q 1894 3584 2278 3584 
Q 2916 3584 3314 3078 
Q 3713 2572 3713 1747 
Q 3713 922 3314 415 
Q 2916 -91 2278 -91 
Q 1894 -91 1617 61 
Q 1341 213 1159 525 
L 1159 0 
L 581 0 
L 581 4863 
L 1159 4863 
L 1159 2969 
z
" transform="scale(0.015625)"/>
      <path id="DejaVuSans-75" d="M 544 1381 
L 544 3500 
L 1119 3500 
L 1119 1403 
Q 1119 906 1312 657 
Q 1506 409 1894 409 
Q 2359 409 2629 706 
Q 2900 1003 2900 1516 
L 2900 3500 
L 3475 3500 
L 3475 0 
L 2900 0 
L 2900 538 
Q 2691 219 2414 64 
Q 2138 -91 1772 -91 
Q 1169 -91 856 284 
Q 544 659 544 1381 
z
M 1991 3584 
L 1991 3584 
z
" transform="scale(0.015625)"/>
      <path id="DejaVuSans-5f" d="M 3263 -1063 
L 3263 -1509 
L -63 -1509 
L -63 -1063 
L 3263 -1063 
z
" transform="scale(0.015625)"/>
      <path id="DejaVuSans-63" d="M 3122 3366 
L 3122 2828 
Q 2878 2963 2633 3030 
Q 2388 3097 2138 3097 
Q 1578 3097 1268 2742 
Q 959 2388 959 1747 
Q 959 1106 1268 751 
Q 1578 397 2138 397 
Q 2388 397 2633 464 
Q 2878 531 3122 666 
L 3122 134 
Q 2881 22 2623 -34 
Q 2366 -91 2075 -91 
Q 1284 -91 818 406 
Q 353 903 353 1747 
Q 353 2603 823 3093 
Q 1294 3584 2113 3584 
Q 2378 3584 2631 3529 
Q 2884 3475 3122 3366 
z
" transform="scale(0.015625)"/>
     </defs>
     <use xlink:href="#DejaVuSans-56"/>
     <use xlink:href="#DejaVuSans-69" x="66.158203"/>
     <use xlink:href="#DejaVuSans-6f" x="93.941406"/>
     <use xlink:href="#DejaVuSans-6c" x="155.123047"/>
     <use xlink:href="#DejaVuSans-69" x="182.90625"/>
     <use xlink:href="#DejaVuSans-6e" x="210.689453"/>
     <use xlink:href="#DejaVuSans-70" x="274.068359"/>
     <use xlink:href="#DejaVuSans-6c" x="337.544922"/>
     <use xlink:href="#DejaVuSans-6f" x="365.328125"/>
     <use xlink:href="#DejaVuSans-74" x="426.509766"/>
     <use xlink:href="#DejaVuSans-20" x="465.71875"/>
     <use xlink:href="#DejaVuSans-66" x="497.505859"/>
     <use xlink:href="#DejaVuSans-6f" x="532.710938"/>
     <use xlink:href="#DejaVuSans-72" x="593.892578"/>
     <use xlink:href="#DejaVuSans-20" x="635.005859"/>
     <use xlink:href="#DejaVuSans-70" x="666.792969"/>
     <use xlink:href="#DejaVuSans-72" x="730.269531"/>
     <use xlink:href="#DejaVuSans-6f" x="769.132812"/>
     <use xlink:href="#DejaVuSans-67" x="830.314453"/>
     <use xlink:href="#DejaVuSans-72" x="893.791016"/>
     <use xlink:href="#DejaVuSans-65" x="932.654297"/>
     <use xlink:href="#DejaVuSans-73" x="994.177734"/>
     <use xlink:href="#DejaVuSans-73" x="1046.277344"/>
     <use xlink:href="#DejaVuSans-20" x="1098.376953"/>
     <use xlink:href="#DejaVuSans-6f" x="1130.164062"/>
     <use xlink:href="#DejaVuSans-66" x="1191.345703"/>
     <use xlink:href="#DejaVuSans-20" x="1226.550781"/>
     <use xlink:href="#DejaVuSans-70" x="1258.337891"/>
     <use xlink:href="#DejaVuSans-72" x="1321.814453"/>
     <use xlink:href="#DejaVuSans-6f" x="1360.677734"/>
     <use xlink:href="#DejaVuSans-66" x="1421.859375"/>
     <use xlink:href="#DejaVuSans-69" x="1457.064453"/>
     <use xlink:href="#DejaVuSans-74" x="1484.847656"/>
     <use xlink:href="#DejaVuSans-73" x="1524.056641"/>
     <use xlink:href="#DejaVuSans-2f" x="1576.15625"/>
     <use xlink:href="#DejaVuSans-72" x="1609.847656"/>
     <use xlink:href="#DejaVuSans-65" x="1648.710938"/>
     <use xlink:href="#DejaVuSans-62" x="1710.234375"/>
     <use xlink:href="#DejaVuSans-75" x="1773.710938"/>
     <use xlink:href="#DejaVuSans-79" x="1837.089844"/>
     <use xlink:href="#DejaVuSans-5f" x="1896.269531"/>
     <use xlink:href="#DejaVuSans-63" x="1946.269531"/>
     <use xlink:href="#DejaVuSans-6f" x="2001.25"/>
     <use xlink:href="#DejaVuSans-73" x="2062.431641"/>
     <use xlink:href="#DejaVuSans-74" x="2114.53125"/>
    </g>
   </g>
   <g id="legend_1">
    <g id="patch_7">
     <path d="M 284.430938 64.150125 
L 407.72 64.150125 
Q 409.72 64.150125 409.72 62.150125 
L 409.72 48.472 
Q 409.72 46.472 407.72 46.472 
L 284.430938 46.472 
Q 282.430938 46.472 282.430938 48.472 
L 282.430938 62.150125 
Q 282.430938 64.150125 284.430938 64.150125 
z
" style="fill: #ffffff; opacity: 0.8; stroke: #cccccc; stroke-linejoin: miter"/>
    </g>
    <g id="line2d_16">
     <path d="M 286.430938 54.570438 
L 296.430938 54.570438 
L 306.430938 54.570438 
" style="fill: none; stroke: #4682b4; stroke-width: 1.5; stroke-linecap: square"/>
    </g>
    <g id="text_18">
     <!-- Storage-Minimizer -->
     <g transform="translate(314.430938 58.070438)scale(0.1 -0.1)">
      <defs>
       <path id="DejaVuSans-53" d="M 3425 4513 
L 3425 3897 
Q 3066 4069 2747 4153 
Q 2428 4238 2131 4238 
Q 1616 4238 1336 4038 
Q 1056 3838 1056 3469 
Q 1056 3159 1242 3001 
Q 1428 2844 1947 2747 
L 2328 2669 
Q 3034 2534 3370 2195 
Q 3706 1856 3706 1288 
Q 3706 609 3251 259 
Q 2797 -91 1919 -91 
Q 1588 -91 1214 -16 
Q 841 59 441 206 
L 441 856 
Q 825 641 1194 531 
Q 1563 422 1919 422 
Q 2459 422 2753 634 
Q 3047 847 3047 1241 
Q 3047 1584 2836 1778 
Q 2625 1972 2144 2069 
L 1759 2144 
Q 1053 2284 737 2584 
Q 422 2884 422 3419 
Q 422 4038 858 4394 
Q 1294 4750 2059 4750 
Q 2388 4750 2728 4690 
Q 3069 4631 3425 4513 
z
" transform="scale(0.015625)"/>
       <path id="DejaVuSans-2d" d="M 313 2009 
L 1997 2009 
L 1997 1497 
L 313 1497 
L 313 2009 
z
" transform="scale(0.015625)"/>
       <path id="DejaVuSans-4d" d="M 628 4666 
L 1569 4666 
L 2759 1491 
L 3956 4666 
L 4897 4666 
L 4897 0 
L 4281 0 
L 4281 4097 
L 3078 897 
L 2444 897 
L 1241 4097 
L 1241 0 
L 628 0 
L 628 4666 
z
" transform="scale(0.015625)"/>
       <path id="DejaVuSans-6d" d="M 3328 2828 
Q 3544 3216 3844 3400 
Q 4144 3584 4550 3584 
Q 5097 3584 5394 3201 
Q 5691 2819 5691 2113 
L 5691 0 
L 5113 0 
L 5113 2094 
Q 5113 2597 4934 2840 
Q 4756 3084 4391 3084 
Q 3944 3084 3684 2787 
Q 3425 2491 3425 1978 
L 3425 0 
L 2847 0 
L 2847 2094 
Q 2847 2600 2669 2842 
Q 2491 3084 2119 3084 
Q 1678 3084 1418 2786 
Q 1159 2488 1159 1978 
L 1159 0 
L 581 0 
L 581 3500 
L 1159 3500 
L 1159 2956 
Q 1356 3278 1631 3431 
Q 1906 3584 2284 3584 
Q 2666 3584 2933 3390 
Q 3200 3197 3328 2828 
z
" transform="scale(0.015625)"/>
       <path id="DejaVuSans-7a" d="M 353 3500 
L 3084 3500 
L 3084 2975 
L 922 459 
L 3084 459 
L 3084 0 
L 275 0 
L 275 525 
L 2438 3041 
L 353 3041 
L 353 3500 
z
" transform="scale(0.015625)"/>
      </defs>
      <use xlink:href="#DejaVuSans-53"/>
      <use xlink:href="#DejaVuSans-74" x="63.476562"/>
      <use xlink:href="#DejaVuSans-6f" x="102.685547"/>
      <use xlink:href="#DejaVuSans-72" x="163.867188"/>
      <use xlink:href="#DejaVuSans-61" x="204.980469"/>
      <use xlink:href="#DejaVuSans-67" x="266.259766"/>
      <use xlink:href="#DejaVuSans-65" x="329.736328"/>
      <use xlink:href="#DejaVuSans-2d" x="391.259766"/>
      <use xlink:href="#DejaVuSans-4d" x="427.34375"/>
      <use xlink:href="#DejaVuSans-69" x="513.623047"/>
      <use xlink:href="#DejaVuSans-6e" x="541.40625"/>
      <use xlink:href="#DejaVuSans-69" x="604.785156"/>
      <use xlink:href="#DejaVuSans-6d" x="632.568359"/>
      <use xlink:href="#DejaVuSans-69" x="729.980469"/>
      <use xlink:href="#DejaVuSans-7a" x="757.763672"/>
      <use xlink:href="#DejaVuSans-65" x="810.253906"/>
      <use xlink:href="#DejaVuSans-72" x="871.777344"/>
     </g>
    </g>
   </g>
  </g>
 </g>
 <defs>
  <clipPath id="p809bd83cca">
   <rect x="57.6" y="41.472" width="357.12" height="266.112"/>
  </clipPath>
 </defs>
</svg>
