<?xml version="1.0" encoding="utf-8" standalone="no"?>
<!DOCTYPE svg PUBLIC "-//W3C//DTD SVG 1.1//EN"
  "http://www.w3.org/Graphics/SVG/1.1/DTD/svg11.dtd">
<svg xmlns:xlink="http://www.w3.org/1999/xlink" width="460.8pt" height="345.6pt" viewBox="0 0 460.8 345.6" xmlns="http://www.w3.org/2000/svg" version="1.1">
 <metadata>
  <rdf:RDF xmlns:dc="http://purl.org/dc/elements/1.1/" xmlns:cc="http://creativecommons.org/ns#" xmlns:rdf="http://www.w3.org/1999/02/22-rdf-syntax-ns#">
   <cc:Work>
    <dc:type rdf:resource="http://purl.org/dc/dcmitype/StillImage"/>
    <dc:date>2022-06-20T20:26:29.102101</dc:date>
    <dc:format>image/svg+xml</dc:format>
    <dc:creator>
     <cc:Agent>
      <dc:title>Matplotlib v3.5.2, https://matplotlib.org/</dc:title>
     </cc:Agent>
    </dc:creator>
   </cc:Work>
  </rdf:RDF>
 </metadata>
 <defs>
  <style type="text/css">*{stroke-linejoin: round; stroke-linecap: butt}</style>
 </defs>
 <g id="figure_1">
  <g id="patch_1">
   <path d="M 0 345.6 
L 460.8 345.6 
L 460.8 0 
L 0 0 
z
" style="fill: #ffffff"/>
  </g>
  <g id="axes_1">
   <g id="patch_2">
    <path d="M 57.6 307.584 
L 414.72 307.584 
L 414.72 41.472 
L 57.6 41.472 
z
" style="fill: #ffffff"/>
   </g>
   <g id="PolyCollection_1">
    <path d="M 108.910894 288.266507 
L 107.102886 288.266507 
L 106.744118 285.986996 
L 106.263175 283.707484 
L 105.626655 281.427973 
L 104.803415 279.148461 
L 103.769804 276.86895 
L 102.512286 274.589438 
L 101.026721 272.309927 
L 99.315979 270.030415 
L 97.388798 267.750904 
L 95.261673 265.471392 
L 92.962547 263.191881 
L 90.532893 260.912369 
L 88.025717 258.632858 
L 85.500981 256.353346 
L 83.023083 254.073834 
L 80.663702 251.794323 
L 78.507523 249.514811 
L 76.65329 247.2353 
L 75.203826 244.955788 
L 74.246363 242.676277 
L 73.832727 240.396765 
L 73.97039 238.117254 
L 74.628543 235.837742 
L 75.753713 233.558231 
L 77.284449 231.278719 
L 79.157537 228.999208 
L 81.305547 226.719696 
L 83.651403 224.440185 
L 86.106336 222.160673 
L 88.574014 219.881161 
L 90.959418 217.60165 
L 93.178825 215.322138 
L 95.167604 213.042627 
L 96.884131 210.763115 
L 98.309995 208.483604 
L 99.447978 206.204092 
L 100.319537 203.924581 
L 100.962344 201.645069 
L 101.426636 199.365558 
L 101.768522 197.086046 
L 102.040294 194.806535 
L 102.281139 192.527023 
L 102.513298 190.247512 
L 102.746234 187.968 
L 102.986056 185.688488 
L 103.243447 183.408977 
L 103.534303 181.129465 
L 103.87275 178.849954 
L 104.2618 176.570442 
L 104.688446 174.290931 
L 105.126579 172.011419 
L 105.545862 169.731908 
L 105.921462 167.452396 
L 106.240068 165.172885 
L 106.500624 162.893373 
L 106.711165 160.613862 
L 106.884206 158.33435 
L 107.032478 156.054839 
L 107.165617 153.775327 
L 107.287803 151.495815 
L 107.396638 149.216304 
L 107.483884 146.936792 
L 107.538507 144.657281 
L 107.551483 142.377769 
L 107.520692 140.098258 
L 107.453776 137.818746 
L 107.367438 135.539235 
L 107.283168 133.259723 
L 107.221062 130.980212 
L 107.194277 128.7007 
L 107.206325 126.421189 
L 107.251967 124.141677 
L 107.320803 121.862166 
L 107.401639 119.582654 
L 107.485741 117.303142 
L 107.568018 115.023631 
L 107.646296 112.744119 
L 107.719655 110.464608 
L 107.787013 108.185096 
L 107.846645 105.905585 
L 107.896652 103.626073 
L 107.935813 101.346562 
L 107.964175 99.06705 
L 107.983055 96.787539 
L 107.994552 94.508027 
L 108.000897 92.228516 
L 108.003927 89.949004 
L 108.004811 87.669493 
L 108.003959 85.389981 
L 108.001035 83.110469 
L 107.995028 80.830958 
L 107.984457 78.551446 
L 107.967839 76.271935 
L 107.944448 73.992423 
L 107.915209 71.712912 
L 107.883291 69.4334 
L 107.853892 67.153889 
L 107.832995 64.874377 
L 107.825413 62.594866 
L 108.188367 62.594866 
L 108.188367 62.594866 
L 108.180785 64.874377 
L 108.159888 67.153889 
L 108.130489 69.4334 
L 108.098571 71.712912 
L 108.069332 73.992423 
L 108.045941 76.271935 
L 108.029323 78.551446 
L 108.018752 80.830958 
L 108.012745 83.110469 
L 108.009821 85.389981 
L 108.008969 87.669493 
L 108.009853 89.949004 
L 108.012883 92.228516 
L 108.019228 94.508027 
L 108.030725 96.787539 
L 108.049605 99.06705 
L 108.077967 101.346562 
L 108.117128 103.626073 
L 108.167135 105.905585 
L 108.226767 108.185096 
L 108.294125 110.464608 
L 108.367484 112.744119 
L 108.445762 115.023631 
L 108.528039 117.303142 
L 108.612141 119.582654 
L 108.692977 121.862166 
L 108.761813 124.141677 
L 108.807455 126.421189 
L 108.819503 128.7007 
L 108.792718 130.980212 
L 108.730612 133.259723 
L 108.646342 135.539235 
L 108.560004 137.818746 
L 108.493088 140.098258 
L 108.462297 142.377769 
L 108.475272 144.657281 
L 108.529896 146.936792 
L 108.617142 149.216304 
L 108.725977 151.495815 
L 108.848163 153.775327 
L 108.981302 156.054839 
L 109.129574 158.33435 
L 109.302615 160.613862 
L 109.513156 162.893373 
L 109.773712 165.172885 
L 110.092318 167.452396 
L 110.467918 169.731908 
L 110.887201 172.011419 
L 111.325334 174.290931 
L 111.75198 176.570442 
L 112.14103 178.849954 
L 112.479477 181.129465 
L 112.770333 183.408977 
L 113.027723 185.688488 
L 113.267546 187.968 
L 113.500482 190.247512 
L 113.732641 192.527023 
L 113.973486 194.806535 
L 114.245258 197.086046 
L 114.587144 199.365558 
L 115.051436 201.645069 
L 115.694243 203.924581 
L 116.565802 206.204092 
L 117.703785 208.483604 
L 119.129648 210.763115 
L 120.846176 213.042627 
L 122.834955 215.322138 
L 125.054362 217.60165 
L 127.439765 219.881161 
L 129.907444 222.160673 
L 132.362377 224.440185 
L 134.708233 226.719696 
L 136.856243 228.999208 
L 138.729331 231.278719 
L 140.260067 233.558231 
L 141.385237 235.837742 
L 142.04339 238.117254 
L 142.181053 240.396765 
L 141.767417 242.676277 
L 140.809954 244.955788 
L 139.36049 247.2353 
L 137.506257 249.514811 
L 135.350078 251.794323 
L 132.990697 254.073834 
L 130.512799 256.353346 
L 127.988062 258.632858 
L 125.480887 260.912369 
L 123.051233 263.191881 
L 120.752107 265.471392 
L 118.624981 267.750904 
L 116.697801 270.030415 
L 114.987059 272.309927 
L 113.501494 274.589438 
L 112.243976 276.86895 
L 111.210365 279.148461 
L 110.387125 281.427973 
L 109.750605 283.707484 
L 109.269662 285.986996 
L 108.910894 288.266507 
z
" clip-path="url(#p74062bd88e)" style="fill: #1f77b4; fill-opacity: 0.3"/>
   </g>
   <g id="PolyCollection_2">
    <path d="M 195.122664 288.266507 
L 191.761929 288.266507 
L 191.121067 286.103707 
L 190.285667 283.940906 
L 189.215229 281.778106 
L 187.871803 279.615305 
L 186.226083 277.452505 
L 184.263784 275.289704 
L 181.991106 273.126904 
L 179.438527 270.964103 
L 176.662718 268.801303 
L 173.746665 266.638502 
L 170.797792 264.475701 
L 167.943116 262.312901 
L 165.320052 260.1501 
L 163.062172 257.9873 
L 161.281295 255.824499 
L 160.049872 253.661699 
L 159.389195 251.498898 
L 159.268134 249.336098 
L 159.613849 247.173297 
L 160.331482 245.010497 
L 161.326331 242.847696 
L 162.521135 240.684896 
L 163.863308 238.522095 
L 165.321222 236.359294 
L 166.873061 234.196494 
L 168.494426 232.033693 
L 170.150711 229.870893 
L 171.797477 227.708092 
L 173.388023 225.545292 
L 174.884008 223.382491 
L 176.263881 221.219691 
L 177.525334 219.05689 
L 178.681203 216.89409 
L 179.751289 214.731289 
L 180.754142 212.568488 
L 181.702173 210.405688 
L 182.601261 208.242887 
L 183.453589 206.080087 
L 184.261032 203.917286 
L 185.026641 201.754486 
L 185.753317 199.591685 
L 186.440665 197.428885 
L 187.082201 195.266084 
L 187.664946 193.103284 
L 188.172161 190.940483 
L 188.588343 188.777682 
L 188.904474 186.614882 
L 189.121548 184.452081 
L 189.251359 182.289281 
L 189.314798 180.12648 
L 189.338675 177.96368 
L 189.352145 175.800879 
L 189.383266 173.638079 
L 189.455744 171.475278 
L 189.585841 169.312478 
L 189.779863 167.149677 
L 190.033017 164.986877 
L 190.330441 162.824076 
L 190.650546 160.661275 
L 190.969919 158.498475 
L 191.268339 156.335674 
L 191.532408 154.172874 
L 191.756917 152.010073 
L 191.943936 149.847273 
L 192.100386 147.684472 
L 192.235125 145.521672 
L 192.356418 143.358871 
L 192.470238 141.196071 
L 192.579449 139.03327 
L 192.683714 136.870469 
L 192.77997 134.707669 
L 192.863369 132.544868 
L 192.928648 130.382068 
L 192.971745 128.219267 
L 192.991332 126.056467 
L 192.989829 123.893666 
L 192.973468 121.730866 
L 192.951293 119.568065 
L 192.933299 117.405265 
L 192.928237 115.242464 
L 192.941756 113.079664 
L 192.975386 110.916863 
L 193.0266 108.754062 
L 193.08982 106.591262 
L 193.157971 104.428461 
L 193.224091 102.265661 
L 193.282558 100.10286 
L 193.329703 97.94006 
L 193.3638 95.777259 
L 193.384627 93.614459 
L 193.392905 91.451658 
L 193.389866 89.288858 
L 193.377128 87.126057 
L 193.35683 84.963256 
L 193.331861 82.800456 
L 193.305907 80.637655 
L 193.283147 78.474855 
L 193.267556 76.312054 
L 193.262031 74.149254 
L 193.622562 74.149254 
L 193.622562 74.149254 
L 193.617037 76.312054 
L 193.601446 78.474855 
L 193.578686 80.637655 
L 193.552733 82.800456 
L 193.527763 84.963256 
L 193.507466 87.126057 
L 193.494727 89.288858 
L 193.491688 91.451658 
L 193.499966 93.614459 
L 193.520794 95.777259 
L 193.55489 97.94006 
L 193.602035 100.10286 
L 193.660502 102.265661 
L 193.726622 104.428461 
L 193.794773 106.591262 
L 193.857993 108.754062 
L 193.909207 110.916863 
L 193.942838 113.079664 
L 193.956357 115.242464 
L 193.951295 117.405265 
L 193.9333 119.568065 
L 193.911126 121.730866 
L 193.894764 123.893666 
L 193.893261 126.056467 
L 193.912849 128.219267 
L 193.955945 130.382068 
L 194.021225 132.544868 
L 194.104624 134.707669 
L 194.200879 136.870469 
L 194.305144 139.03327 
L 194.414355 141.196071 
L 194.528175 143.358871 
L 194.649468 145.521672 
L 194.784207 147.684472 
L 194.940657 149.847273 
L 195.127676 152.010073 
L 195.352185 154.172874 
L 195.616254 156.335674 
L 195.914674 158.498475 
L 196.234048 160.661275 
L 196.554153 162.824076 
L 196.851577 164.986877 
L 197.10473 167.149677 
L 197.298752 169.312478 
L 197.428849 171.475278 
L 197.501327 173.638079 
L 197.532448 175.800879 
L 197.545918 177.96368 
L 197.569795 180.12648 
L 197.633234 182.289281 
L 197.763046 184.452081 
L 197.980119 186.614882 
L 198.29625 188.777682 
L 198.712433 190.940483 
L 199.219648 193.103284 
L 199.802392 195.266084 
L 200.443928 197.428885 
L 201.131277 199.591685 
L 201.857952 201.754486 
L 202.623561 203.917286 
L 203.431004 206.080087 
L 204.283332 208.242887 
L 205.18242 210.405688 
L 206.130451 212.568488 
L 207.133305 214.731289 
L 208.203391 216.89409 
L 209.359259 219.05689 
L 210.620713 221.219691 
L 212.000585 223.382491 
L 213.496571 225.545292 
L 215.087116 227.708092 
L 216.733882 229.870893 
L 218.390167 232.033693 
L 220.011532 234.196494 
L 221.563372 236.359294 
L 223.021286 238.522095 
L 224.363458 240.684896 
L 225.558262 242.847696 
L 226.553112 245.010497 
L 227.270745 247.173297 
L 227.616459 249.336098 
L 227.495398 251.498898 
L 226.834722 253.661699 
L 225.603299 255.824499 
L 223.822421 257.9873 
L 221.564541 260.1501 
L 218.941477 262.312901 
L 216.086801 264.475701 
L 213.137928 266.638502 
L 210.221875 268.801303 
L 207.446066 270.964103 
L 204.893487 273.126904 
L 202.620809 275.289704 
L 200.65851 277.452505 
L 199.012791 279.615305 
L 197.669364 281.778106 
L 196.598927 283.940906 
L 195.763526 286.103707 
L 195.122664 288.266507 
z
" clip-path="url(#p74062bd88e)" style="fill: #1f77b4; fill-opacity: 0.3"/>
   </g>
   <g id="PolyCollection_3">
    <path d="M 283.216293 289.349731 
L 274.539114 289.349731 
L 273.152824 286.968098 
L 271.484388 284.586464 
L 269.526756 282.20483 
L 267.288313 279.823197 
L 264.796241 277.441563 
L 262.09909 275.059929 
L 259.267949 272.678296 
L 256.395533 270.296662 
L 253.592649 267.915028 
L 250.981825 265.533395 
L 248.688422 263.151761 
L 246.830048 260.770128 
L 245.50559 258.388494 
L 244.785321 256.00686 
L 244.703541 253.625227 
L 245.254836 251.243593 
L 246.394578 248.861959 
L 248.043661 246.480326 
L 250.096884 244.098692 
L 252.433793 241.717058 
L 254.930468 239.335425 
L 257.470559 236.953791 
L 259.95411 234.572157 
L 262.303179 232.190524 
L 264.463934 229.80889 
L 266.40557 227.427256 
L 268.116886 225.045623 
L 269.601606 222.663989 
L 270.873458 220.282355 
L 271.951789 217.900722 
L 272.858162 215.519088 
L 273.61407 213.137455 
L 274.239678 210.755821 
L 274.753371 208.374187 
L 275.171833 205.992554 
L 275.510402 203.61092 
L 275.783459 201.229286 
L 276.004686 198.847653 
L 276.187082 196.466019 
L 276.342695 194.084385 
L 276.482119 191.702752 
L 276.613895 189.321118 
L 276.743963 186.939484 
L 276.875379 184.557851 
L 277.008392 182.176217 
L 277.140937 179.794583 
L 277.269432 177.41295 
L 277.389731 175.031316 
L 277.498019 172.649682 
L 277.591486 170.268049 
L 277.668695 167.886415 
L 277.729609 165.504782 
L 277.775372 163.123148 
L 277.80792 160.741514 
L 277.829528 158.359881 
L 277.842403 155.978247 
L 277.848367 153.596613 
L 277.848681 151.21498 
L 277.844018 148.833346 
L 277.834562 146.451712 
L 277.820221 144.070079 
L 277.800894 141.688445 
L 277.776752 139.306811 
L 277.74848 136.925178 
L 277.717443 134.543544 
L 277.685696 132.16191 
L 277.65585 129.780277 
L 277.630754 127.398643 
L 277.613074 125.017009 
L 277.604849 122.635376 
L 277.607146 120.253742 
L 277.619925 117.872109 
L 277.642146 115.490475 
L 277.672074 113.108841 
L 277.707687 110.727208 
L 277.747029 108.345574 
L 277.788415 105.96394 
L 277.830446 103.582307 
L 277.87189 101.200673 
L 277.911545 98.819039 
L 277.948185 96.437406 
L 277.980666 94.055772 
L 278.008149 91.674138 
L 278.030363 89.292505 
L 278.047768 86.910871 
L 278.061526 84.529237 
L 278.07327 82.147604 
L 278.084736 79.76597 
L 278.09739 77.384336 
L 278.112179 75.002703 
L 278.129498 72.621069 
L 278.149369 70.239436 
L 278.171742 67.857802 
L 278.196805 65.476168 
L 278.225146 63.094535 
L 278.257719 60.712901 
L 278.295588 58.331267 
L 278.339543 55.949634 
L 278.389712 53.568 
L 279.365695 53.568 
L 279.365695 53.568 
L 279.415864 55.949634 
L 279.459819 58.331267 
L 279.497688 60.712901 
L 279.530261 63.094535 
L 279.558602 65.476168 
L 279.583664 67.857802 
L 279.606038 70.239436 
L 279.625909 72.621069 
L 279.643228 75.002703 
L 279.658017 77.384336 
L 279.670671 79.76597 
L 279.682137 82.147604 
L 279.693881 84.529237 
L 279.707638 86.910871 
L 279.725043 89.292505 
L 279.747258 91.674138 
L 279.774741 94.055772 
L 279.807221 96.437406 
L 279.843861 98.819039 
L 279.883516 101.200673 
L 279.924961 103.582307 
L 279.966992 105.96394 
L 280.008378 108.345574 
L 280.04772 110.727208 
L 280.083332 113.108841 
L 280.11326 115.490475 
L 280.135481 117.872109 
L 280.148261 120.253742 
L 280.150558 122.635376 
L 280.142332 125.017009 
L 280.124652 127.398643 
L 280.099557 129.780277 
L 280.069711 132.16191 
L 280.037964 134.543544 
L 280.006926 136.925178 
L 279.978655 139.306811 
L 279.954512 141.688445 
L 279.935185 144.070079 
L 279.920845 146.451712 
L 279.911389 148.833346 
L 279.906726 151.21498 
L 279.90704 153.596613 
L 279.913004 155.978247 
L 279.925879 158.359881 
L 279.947487 160.741514 
L 279.980034 163.123148 
L 280.025798 165.504782 
L 280.086712 167.886415 
L 280.16392 170.268049 
L 280.257388 172.649682 
L 280.365675 175.031316 
L 280.485974 177.41295 
L 280.61447 179.794583 
L 280.747015 182.176217 
L 280.880028 184.557851 
L 281.011443 186.939484 
L 281.141512 189.321118 
L 281.273287 191.702752 
L 281.412712 194.084385 
L 281.568324 196.466019 
L 281.750721 198.847653 
L 281.971948 201.229286 
L 282.245005 203.61092 
L 282.583574 205.992554 
L 283.002036 208.374187 
L 283.515729 210.755821 
L 284.141337 213.137455 
L 284.897245 215.519088 
L 285.803618 217.900722 
L 286.881949 220.282355 
L 288.153801 222.663989 
L 289.638521 225.045623 
L 291.349836 227.427256 
L 293.291472 229.80889 
L 295.452228 232.190524 
L 297.801297 234.572157 
L 300.284847 236.953791 
L 302.824939 239.335425 
L 305.321614 241.717058 
L 307.658523 244.098692 
L 309.711745 246.480326 
L 311.360829 248.861959 
L 312.50057 251.243593 
L 313.051866 253.625227 
L 312.970086 256.00686 
L 312.249817 258.388494 
L 310.925358 260.770128 
L 309.066985 263.151761 
L 306.773581 265.533395 
L 304.162758 267.915028 
L 301.359874 270.296662 
L 298.487458 272.678296 
L 295.656317 275.059929 
L 292.959166 277.441563 
L 290.467093 279.823197 
L 288.228651 282.20483 
L 286.271018 284.586464 
L 284.602582 286.968098 
L 283.216293 289.349731 
z
" clip-path="url(#p74062bd88e)" style="fill: #1f77b4; fill-opacity: 0.3"/>
   </g>
   <g id="PolyCollection_4">
    <path d="M 370.525799 295.488 
L 358.100421 295.488 
L 356.472299 293.255902 
L 354.596553 291.023805 
L 352.486441 288.791707 
L 350.170907 286.559609 
L 347.695339 284.327512 
L 345.120766 282.095414 
L 342.521369 279.863316 
L 339.980422 277.631218 
L 337.584997 275.399121 
L 335.419922 273.167023 
L 333.561582 270.934925 
L 332.072158 268.702828 
L 330.994917 266.47073 
L 330.35111 264.238632 
L 330.138947 262.006535 
L 330.334908 259.774437 
L 330.897346 257.542339 
L 331.771936 255.310242 
L 332.898136 253.078144 
L 334.215592 250.846046 
L 335.669412 248.613948 
L 337.213505 246.381851 
L 338.811657 244.149753 
L 340.436576 241.917655 
L 342.067583 239.685558 
L 343.687854 237.45346 
L 345.282083 235.221362 
L 346.835132 232.989265 
L 348.33184 230.757167 
L 349.757778 228.525069 
L 351.100452 226.292972 
L 352.350431 224.060874 
L 353.501971 221.828776 
L 354.552961 219.596678 
L 355.5043 217.364581 
L 356.358979 215.132483 
L 357.121219 212.900385 
L 357.795934 210.668288 
L 358.388594 208.43619 
L 358.905419 206.204092 
L 359.353641 203.971995 
L 359.741618 201.739897 
L 360.078624 199.507799 
L 360.374277 197.275701 
L 360.637743 195.043604 
L 360.876891 192.811506 
L 361.097627 190.579408 
L 361.303527 188.347311 
L 361.495836 186.115213 
L 361.673787 183.883115 
L 361.835123 181.651018 
L 361.976719 179.41892 
L 362.095191 177.186822 
L 362.187402 174.954725 
L 362.250836 172.722627 
L 362.283806 170.490529 
L 362.285521 168.258431 
L 362.256058 166.026334 
L 362.19631 163.794236 
L 362.108002 161.562138 
L 361.993845 159.330041 
L 361.857831 157.097943 
L 361.70563 154.865845 
L 361.544924 152.633748 
L 361.38552 150.40165 
L 361.239052 148.169552 
L 361.118187 145.937455 
L 361.035365 143.705357 
L 361.001248 141.473259 
L 361.023153 139.241161 
L 361.103793 137.009064 
L 361.240614 134.776966 
L 361.4259 132.544868 
L 361.647657 130.312771 
L 361.89112 128.080673 
L 362.140626 125.848575 
L 362.381496 123.616478 
L 362.601629 121.38438 
L 362.792563 119.152282 
L 362.949907 116.920185 
L 363.073159 114.688087 
L 363.165046 112.455989 
L 363.230575 110.223891 
L 363.275976 107.991794 
L 363.307727 105.759696 
L 363.331744 103.527598 
L 363.352829 101.295501 
L 363.374377 99.063403 
L 363.398346 96.831305 
L 363.425449 94.599208 
L 363.455519 92.36711 
L 363.487974 90.135012 
L 363.522261 87.902915 
L 363.558197 85.670817 
L 363.596124 83.438719 
L 363.636835 81.206621 
L 363.68131 78.974524 
L 363.730345 76.742426 
L 363.784196 74.510328 
L 364.842025 74.510328 
L 364.842025 74.510328 
L 364.895875 76.742426 
L 364.94491 78.974524 
L 364.989385 81.206621 
L 365.030096 83.438719 
L 365.068023 85.670817 
L 365.103959 87.902915 
L 365.138246 90.135012 
L 365.170701 92.36711 
L 365.200772 94.599208 
L 365.227874 96.831305 
L 365.251843 99.063403 
L 365.273392 101.295501 
L 365.294476 103.527598 
L 365.318493 105.759696 
L 365.350244 107.991794 
L 365.395646 110.223891 
L 365.461174 112.455989 
L 365.553061 114.688087 
L 365.676313 116.920185 
L 365.833657 119.152282 
L 366.024591 121.38438 
L 366.244724 123.616478 
L 366.485594 125.848575 
L 366.7351 128.080673 
L 366.978563 130.312771 
L 367.20032 132.544868 
L 367.385606 134.776966 
L 367.522427 137.009064 
L 367.603067 139.241161 
L 367.624972 141.473259 
L 367.590855 143.705357 
L 367.508033 145.937455 
L 367.387168 148.169552 
L 367.2407 150.40165 
L 367.081297 152.633748 
L 366.920591 154.865845 
L 366.768389 157.097943 
L 366.632375 159.330041 
L 366.518218 161.562138 
L 366.42991 163.794236 
L 366.370162 166.026334 
L 366.340699 168.258431 
L 366.342414 170.490529 
L 366.375384 172.722627 
L 366.438818 174.954725 
L 366.531029 177.186822 
L 366.649501 179.41892 
L 366.791098 181.651018 
L 366.952433 183.883115 
L 367.130384 186.115213 
L 367.322694 188.347311 
L 367.528593 190.579408 
L 367.749329 192.811506 
L 367.988477 195.043604 
L 368.251943 197.275701 
L 368.547596 199.507799 
L 368.884602 201.739897 
L 369.272579 203.971995 
L 369.720801 206.204092 
L 370.237626 208.43619 
L 370.830287 210.668288 
L 371.505001 212.900385 
L 372.267241 215.132483 
L 373.12192 217.364581 
L 374.073259 219.596678 
L 375.124249 221.828776 
L 376.275789 224.060874 
L 377.525768 226.292972 
L 378.868442 228.525069 
L 380.29438 230.757167 
L 381.791088 232.989265 
L 383.344137 235.221362 
L 384.938366 237.45346 
L 386.558637 239.685558 
L 388.189644 241.917655 
L 389.814563 244.149753 
L 391.412715 246.381851 
L 392.956808 248.613948 
L 394.410628 250.846046 
L 395.728084 253.078144 
L 396.854284 255.310242 
L 397.728874 257.542339 
L 398.291312 259.774437 
L 398.487273 262.006535 
L 398.27511 264.238632 
L 397.631303 266.47073 
L 396.554062 268.702828 
L 395.064638 270.934925 
L 393.206298 273.167023 
L 391.041224 275.399121 
L 388.645798 277.631218 
L 386.104851 279.863316 
L 383.505454 282.095414 
L 380.930881 284.327512 
L 378.455313 286.559609 
L 376.139779 288.791707 
L 374.029667 291.023805 
L 372.153921 293.255902 
L 370.525799 295.488 
z
" clip-path="url(#p74062bd88e)" style="fill: #1f77b4; fill-opacity: 0.3"/>
   </g>
   <g id="matplotlib.axis_1">
    <g id="xtick_1">
     <g id="line2d_1">
      <path d="M 79.528421 307.584 
L 79.528421 41.472 
" clip-path="url(#p74062bd88e)" style="fill: none; stroke-dasharray: 2.96,1.28; stroke-dashoffset: 0; stroke: #b0b0b0; stroke-width: 0.8"/>
     </g>
     <g id="line2d_2">
      <defs>
       <path id="ma0de107e07" d="M 0 0 
L 0 3.5 
" style="stroke: #000000; stroke-width: 0.8"/>
      </defs>
      <g>
       <use xlink:href="#ma0de107e07" x="79.528421" y="307.584" style="stroke: #000000; stroke-width: 0.8"/>
      </g>
     </g>
     <g id="text_1">
      <!-- 1000 -->
      <g transform="translate(66.803421 322.182437)scale(0.1 -0.1)">
       <defs>
        <path id="DejaVuSans-31" d="M 794 531 
L 1825 531 
L 1825 4091 
L 703 3866 
L 703 4441 
L 1819 4666 
L 2450 4666 
L 2450 531 
L 3481 531 
L 3481 0 
L 794 0 
L 794 531 
z
" transform="scale(0.015625)"/>
        <path id="DejaVuSans-30" d="M 2034 4250 
Q 1547 4250 1301 3770 
Q 1056 3291 1056 2328 
Q 1056 1369 1301 889 
Q 1547 409 2034 409 
Q 2525 409 2770 889 
Q 3016 1369 3016 2328 
Q 3016 3291 2770 3770 
Q 2525 4250 2034 4250 
z
M 2034 4750 
Q 2819 4750 3233 4129 
Q 3647 3509 3647 2328 
Q 3647 1150 3233 529 
Q 2819 -91 2034 -91 
Q 1250 -91 836 529 
Q 422 1150 422 2328 
Q 422 3509 836 4129 
Q 1250 4750 2034 4750 
z
" transform="scale(0.015625)"/>
       </defs>
       <use xlink:href="#DejaVuSans-31"/>
       <use xlink:href="#DejaVuSans-30" x="63.623047"/>
       <use xlink:href="#DejaVuSans-30" x="127.246094"/>
       <use xlink:href="#DejaVuSans-30" x="190.869141"/>
      </g>
     </g>
    </g>
    <g id="xtick_2">
     <g id="line2d_3">
      <path d="M 136.485359 307.584 
L 136.485359 41.472 
" clip-path="url(#p74062bd88e)" style="fill: none; stroke-dasharray: 2.96,1.28; stroke-dashoffset: 0; stroke: #b0b0b0; stroke-width: 0.8"/>
     </g>
     <g id="line2d_4">
      <g>
       <use xlink:href="#ma0de107e07" x="136.485359" y="307.584" style="stroke: #000000; stroke-width: 0.8"/>
      </g>
     </g>
     <g id="text_2">
      <!-- 2000 -->
      <g transform="translate(123.760359 322.182437)scale(0.1 -0.1)">
       <defs>
        <path id="DejaVuSans-32" d="M 1228 531 
L 3431 531 
L 3431 0 
L 469 0 
L 469 531 
Q 828 903 1448 1529 
Q 2069 2156 2228 2338 
Q 2531 2678 2651 2914 
Q 2772 3150 2772 3378 
Q 2772 3750 2511 3984 
Q 2250 4219 1831 4219 
Q 1534 4219 1204 4116 
Q 875 4013 500 3803 
L 500 4441 
Q 881 4594 1212 4672 
Q 1544 4750 1819 4750 
Q 2544 4750 2975 4387 
Q 3406 4025 3406 3419 
Q 3406 3131 3298 2873 
Q 3191 2616 2906 2266 
Q 2828 2175 2409 1742 
Q 1991 1309 1228 531 
z
" transform="scale(0.015625)"/>
       </defs>
       <use xlink:href="#DejaVuSans-32"/>
       <use xlink:href="#DejaVuSans-30" x="63.623047"/>
       <use xlink:href="#DejaVuSans-30" x="127.246094"/>
       <use xlink:href="#DejaVuSans-30" x="190.869141"/>
      </g>
     </g>
    </g>
    <g id="xtick_3">
     <g id="line2d_5">
      <path d="M 193.442297 307.584 
L 193.442297 41.472 
" clip-path="url(#p74062bd88e)" style="fill: none; stroke-dasharray: 2.96,1.28; stroke-dashoffset: 0; stroke: #b0b0b0; stroke-width: 0.8"/>
     </g>
     <g id="line2d_6">
      <g>
       <use xlink:href="#ma0de107e07" x="193.442297" y="307.584" style="stroke: #000000; stroke-width: 0.8"/>
      </g>
     </g>
     <g id="text_3">
      <!-- 3000 -->
      <g transform="translate(180.717297 322.182437)scale(0.1 -0.1)">
       <defs>
        <path id="DejaVuSans-33" d="M 2597 2516 
Q 3050 2419 3304 2112 
Q 3559 1806 3559 1356 
Q 3559 666 3084 287 
Q 2609 -91 1734 -91 
Q 1441 -91 1130 -33 
Q 819 25 488 141 
L 488 750 
Q 750 597 1062 519 
Q 1375 441 1716 441 
Q 2309 441 2620 675 
Q 2931 909 2931 1356 
Q 2931 1769 2642 2001 
Q 2353 2234 1838 2234 
L 1294 2234 
L 1294 2753 
L 1863 2753 
Q 2328 2753 2575 2939 
Q 2822 3125 2822 3475 
Q 2822 3834 2567 4026 
Q 2313 4219 1838 4219 
Q 1578 4219 1281 4162 
Q 984 4106 628 3988 
L 628 4550 
Q 988 4650 1302 4700 
Q 1616 4750 1894 4750 
Q 2613 4750 3031 4423 
Q 3450 4097 3450 3541 
Q 3450 3153 3228 2886 
Q 3006 2619 2597 2516 
z
" transform="scale(0.015625)"/>
       </defs>
       <use xlink:href="#DejaVuSans-33"/>
       <use xlink:href="#DejaVuSans-30" x="63.623047"/>
       <use xlink:href="#DejaVuSans-30" x="127.246094"/>
       <use xlink:href="#DejaVuSans-30" x="190.869141"/>
      </g>
     </g>
    </g>
    <g id="xtick_4">
     <g id="line2d_7">
      <path d="M 250.399234 307.584 
L 250.399234 41.472 
" clip-path="url(#p74062bd88e)" style="fill: none; stroke-dasharray: 2.96,1.28; stroke-dashoffset: 0; stroke: #b0b0b0; stroke-width: 0.8"/>
     </g>
     <g id="line2d_8">
      <g>
       <use xlink:href="#ma0de107e07" x="250.399234" y="307.584" style="stroke: #000000; stroke-width: 0.8"/>
      </g>
     </g>
     <g id="text_4">
      <!-- 4000 -->
      <g transform="translate(237.674234 322.182437)scale(0.1 -0.1)">
       <defs>
        <path id="DejaVuSans-34" d="M 2419 4116 
L 825 1625 
L 2419 1625 
L 2419 4116 
z
M 2253 4666 
L 3047 4666 
L 3047 1625 
L 3713 1625 
L 3713 1100 
L 3047 1100 
L 3047 0 
L 2419 0 
L 2419 1100 
L 313 1100 
L 313 1709 
L 2253 4666 
z
" transform="scale(0.015625)"/>
       </defs>
       <use xlink:href="#DejaVuSans-34"/>
       <use xlink:href="#DejaVuSans-30" x="63.623047"/>
       <use xlink:href="#DejaVuSans-30" x="127.246094"/>
       <use xlink:href="#DejaVuSans-30" x="190.869141"/>
      </g>
     </g>
    </g>
    <g id="xtick_5">
     <g id="line2d_9">
      <path d="M 307.356172 307.584 
L 307.356172 41.472 
" clip-path="url(#p74062bd88e)" style="fill: none; stroke-dasharray: 2.96,1.28; stroke-dashoffset: 0; stroke: #b0b0b0; stroke-width: 0.8"/>
     </g>
     <g id="line2d_10">
      <g>
       <use xlink:href="#ma0de107e07" x="307.356172" y="307.584" style="stroke: #000000; stroke-width: 0.8"/>
      </g>
     </g>
     <g id="text_5">
      <!-- 5000 -->
      <g transform="translate(294.631172 322.182437)scale(0.1 -0.1)">
       <defs>
        <path id="DejaVuSans-35" d="M 691 4666 
L 3169 4666 
L 3169 4134 
L 1269 4134 
L 1269 2991 
Q 1406 3038 1543 3061 
Q 1681 3084 1819 3084 
Q 2600 3084 3056 2656 
Q 3513 2228 3513 1497 
Q 3513 744 3044 326 
Q 2575 -91 1722 -91 
Q 1428 -91 1123 -41 
Q 819 9 494 109 
L 494 744 
Q 775 591 1075 516 
Q 1375 441 1709 441 
Q 2250 441 2565 725 
Q 2881 1009 2881 1497 
Q 2881 1984 2565 2268 
Q 2250 2553 1709 2553 
Q 1456 2553 1204 2497 
Q 953 2441 691 2322 
L 691 4666 
z
" transform="scale(0.015625)"/>
       </defs>
       <use xlink:href="#DejaVuSans-35"/>
       <use xlink:href="#DejaVuSans-30" x="63.623047"/>
       <use xlink:href="#DejaVuSans-30" x="127.246094"/>
       <use xlink:href="#DejaVuSans-30" x="190.869141"/>
      </g>
     </g>
    </g>
    <g id="xtick_6">
     <g id="line2d_11">
      <path d="M 364.31311 307.584 
L 364.31311 41.472 
" clip-path="url(#p74062bd88e)" style="fill: none; stroke-dasharray: 2.96,1.28; stroke-dashoffset: 0; stroke: #b0b0b0; stroke-width: 0.8"/>
     </g>
     <g id="line2d_12">
      <g>
       <use xlink:href="#ma0de107e07" x="364.31311" y="307.584" style="stroke: #000000; stroke-width: 0.8"/>
      </g>
     </g>
     <g id="text_6">
      <!-- 6000 -->
      <g transform="translate(351.58811 322.182437)scale(0.1 -0.1)">
       <defs>
        <path id="DejaVuSans-36" d="M 2113 2584 
Q 1688 2584 1439 2293 
Q 1191 2003 1191 1497 
Q 1191 994 1439 701 
Q 1688 409 2113 409 
Q 2538 409 2786 701 
Q 3034 994 3034 1497 
Q 3034 2003 2786 2293 
Q 2538 2584 2113 2584 
z
M 3366 4563 
L 3366 3988 
Q 3128 4100 2886 4159 
Q 2644 4219 2406 4219 
Q 1781 4219 1451 3797 
Q 1122 3375 1075 2522 
Q 1259 2794 1537 2939 
Q 1816 3084 2150 3084 
Q 2853 3084 3261 2657 
Q 3669 2231 3669 1497 
Q 3669 778 3244 343 
Q 2819 -91 2113 -91 
Q 1303 -91 875 529 
Q 447 1150 447 2328 
Q 447 3434 972 4092 
Q 1497 4750 2381 4750 
Q 2619 4750 2861 4703 
Q 3103 4656 3366 4563 
z
" transform="scale(0.015625)"/>
       </defs>
       <use xlink:href="#DejaVuSans-36"/>
       <use xlink:href="#DejaVuSans-30" x="63.623047"/>
       <use xlink:href="#DejaVuSans-30" x="127.246094"/>
       <use xlink:href="#DejaVuSans-30" x="190.869141"/>
      </g>
     </g>
    </g>
    <g id="text_7">
     <!-- Learned Episodes -->
     <g transform="translate(192.102187 335.860562)scale(0.1 -0.1)">
      <defs>
       <path id="DejaVuSans-4c" d="M 628 4666 
L 1259 4666 
L 1259 531 
L 3531 531 
L 3531 0 
L 628 0 
L 628 4666 
z
" transform="scale(0.015625)"/>
       <path id="DejaVuSans-65" d="M 3597 1894 
L 3597 1613 
L 953 1613 
Q 991 1019 1311 708 
Q 1631 397 2203 397 
Q 2534 397 2845 478 
Q 3156 559 3463 722 
L 3463 178 
Q 3153 47 2828 -22 
Q 2503 -91 2169 -91 
Q 1331 -91 842 396 
Q 353 884 353 1716 
Q 353 2575 817 3079 
Q 1281 3584 2069 3584 
Q 2775 3584 3186 3129 
Q 3597 2675 3597 1894 
z
M 3022 2063 
Q 3016 2534 2758 2815 
Q 2500 3097 2075 3097 
Q 1594 3097 1305 2825 
Q 1016 2553 972 2059 
L 3022 2063 
z
" transform="scale(0.015625)"/>
       <path id="DejaVuSans-61" d="M 2194 1759 
Q 1497 1759 1228 1600 
Q 959 1441 959 1056 
Q 959 750 1161 570 
Q 1363 391 1709 391 
Q 2188 391 2477 730 
Q 2766 1069 2766 1631 
L 2766 1759 
L 2194 1759 
z
M 3341 1997 
L 3341 0 
L 2766 0 
L 2766 531 
Q 2569 213 2275 61 
Q 1981 -91 1556 -91 
Q 1019 -91 701 211 
Q 384 513 384 1019 
Q 384 1609 779 1909 
Q 1175 2209 1959 2209 
L 2766 2209 
L 2766 2266 
Q 2766 2663 2505 2880 
Q 2244 3097 1772 3097 
Q 1472 3097 1187 3025 
Q 903 2953 641 2809 
L 641 3341 
Q 956 3463 1253 3523 
Q 1550 3584 1831 3584 
Q 2591 3584 2966 3190 
Q 3341 2797 3341 1997 
z
" transform="scale(0.015625)"/>
       <path id="DejaVuSans-72" d="M 2631 2963 
Q 2534 3019 2420 3045 
Q 2306 3072 2169 3072 
Q 1681 3072 1420 2755 
Q 1159 2438 1159 1844 
L 1159 0 
L 581 0 
L 581 3500 
L 1159 3500 
L 1159 2956 
Q 1341 3275 1631 3429 
Q 1922 3584 2338 3584 
Q 2397 3584 2469 3576 
Q 2541 3569 2628 3553 
L 2631 2963 
z
" transform="scale(0.015625)"/>
       <path id="DejaVuSans-6e" d="M 3513 2113 
L 3513 0 
L 2938 0 
L 2938 2094 
Q 2938 2591 2744 2837 
Q 2550 3084 2163 3084 
Q 1697 3084 1428 2787 
Q 1159 2491 1159 1978 
L 1159 0 
L 581 0 
L 581 3500 
L 1159 3500 
L 1159 2956 
Q 1366 3272 1645 3428 
Q 1925 3584 2291 3584 
Q 2894 3584 3203 3211 
Q 3513 2838 3513 2113 
z
" transform="scale(0.015625)"/>
       <path id="DejaVuSans-64" d="M 2906 2969 
L 2906 4863 
L 3481 4863 
L 3481 0 
L 2906 0 
L 2906 525 
Q 2725 213 2448 61 
Q 2172 -91 1784 -91 
Q 1150 -91 751 415 
Q 353 922 353 1747 
Q 353 2572 751 3078 
Q 1150 3584 1784 3584 
Q 2172 3584 2448 3432 
Q 2725 3281 2906 2969 
z
M 947 1747 
Q 947 1113 1208 752 
Q 1469 391 1925 391 
Q 2381 391 2643 752 
Q 2906 1113 2906 1747 
Q 2906 2381 2643 2742 
Q 2381 3103 1925 3103 
Q 1469 3103 1208 2742 
Q 947 2381 947 1747 
z
" transform="scale(0.015625)"/>
       <path id="DejaVuSans-20" transform="scale(0.015625)"/>
       <path id="DejaVuSans-45" d="M 628 4666 
L 3578 4666 
L 3578 4134 
L 1259 4134 
L 1259 2753 
L 3481 2753 
L 3481 2222 
L 1259 2222 
L 1259 531 
L 3634 531 
L 3634 0 
L 628 0 
L 628 4666 
z
" transform="scale(0.015625)"/>
       <path id="DejaVuSans-70" d="M 1159 525 
L 1159 -1331 
L 581 -1331 
L 581 3500 
L 1159 3500 
L 1159 2969 
Q 1341 3281 1617 3432 
Q 1894 3584 2278 3584 
Q 2916 3584 3314 3078 
Q 3713 2572 3713 1747 
Q 3713 922 3314 415 
Q 2916 -91 2278 -91 
Q 1894 -91 1617 61 
Q 1341 213 1159 525 
z
M 3116 1747 
Q 3116 2381 2855 2742 
Q 2594 3103 2138 3103 
Q 1681 3103 1420 2742 
Q 1159 2381 1159 1747 
Q 1159 1113 1420 752 
Q 1681 391 2138 391 
Q 2594 391 2855 752 
Q 3116 1113 3116 1747 
z
" transform="scale(0.015625)"/>
       <path id="DejaVuSans-69" d="M 603 3500 
L 1178 3500 
L 1178 0 
L 603 0 
L 603 3500 
z
M 603 4863 
L 1178 4863 
L 1178 4134 
L 603 4134 
L 603 4863 
z
" transform="scale(0.015625)"/>
       <path id="DejaVuSans-73" d="M 2834 3397 
L 2834 2853 
Q 2591 2978 2328 3040 
Q 2066 3103 1784 3103 
Q 1356 3103 1142 2972 
Q 928 2841 928 2578 
Q 928 2378 1081 2264 
Q 1234 2150 1697 2047 
L 1894 2003 
Q 2506 1872 2764 1633 
Q 3022 1394 3022 966 
Q 3022 478 2636 193 
Q 2250 -91 1575 -91 
Q 1294 -91 989 -36 
Q 684 19 347 128 
L 347 722 
Q 666 556 975 473 
Q 1284 391 1588 391 
Q 1994 391 2212 530 
Q 2431 669 2431 922 
Q 2431 1156 2273 1281 
Q 2116 1406 1581 1522 
L 1381 1569 
Q 847 1681 609 1914 
Q 372 2147 372 2553 
Q 372 3047 722 3315 
Q 1072 3584 1716 3584 
Q 2034 3584 2315 3537 
Q 2597 3491 2834 3397 
z
" transform="scale(0.015625)"/>
       <path id="DejaVuSans-6f" d="M 1959 3097 
Q 1497 3097 1228 2736 
Q 959 2375 959 1747 
Q 959 1119 1226 758 
Q 1494 397 1959 397 
Q 2419 397 2687 759 
Q 2956 1122 2956 1747 
Q 2956 2369 2687 2733 
Q 2419 3097 1959 3097 
z
M 1959 3584 
Q 2709 3584 3137 3096 
Q 3566 2609 3566 1747 
Q 3566 888 3137 398 
Q 2709 -91 1959 -91 
Q 1206 -91 779 398 
Q 353 888 353 1747 
Q 353 2609 779 3096 
Q 1206 3584 1959 3584 
z
" transform="scale(0.015625)"/>
      </defs>
      <use xlink:href="#DejaVuSans-4c"/>
      <use xlink:href="#DejaVuSans-65" x="53.962891"/>
      <use xlink:href="#DejaVuSans-61" x="115.486328"/>
      <use xlink:href="#DejaVuSans-72" x="176.765625"/>
      <use xlink:href="#DejaVuSans-6e" x="216.128906"/>
      <use xlink:href="#DejaVuSans-65" x="279.507812"/>
      <use xlink:href="#DejaVuSans-64" x="341.03125"/>
      <use xlink:href="#DejaVuSans-20" x="404.507812"/>
      <use xlink:href="#DejaVuSans-45" x="436.294922"/>
      <use xlink:href="#DejaVuSans-70" x="499.478516"/>
      <use xlink:href="#DejaVuSans-69" x="562.955078"/>
      <use xlink:href="#DejaVuSans-73" x="590.738281"/>
      <use xlink:href="#DejaVuSans-6f" x="642.837891"/>
      <use xlink:href="#DejaVuSans-64" x="704.019531"/>
      <use xlink:href="#DejaVuSans-65" x="767.496094"/>
      <use xlink:href="#DejaVuSans-73" x="829.019531"/>
     </g>
    </g>
   </g>
   <g id="matplotlib.axis_2">
    <g id="ytick_1">
     <g id="line2d_13">
      <path d="M 57.6 293.321552 
L 414.72 293.321552 
" clip-path="url(#p74062bd88e)" style="fill: none; stroke-dasharray: 2.96,1.28; stroke-dashoffset: 0; stroke: #b0b0b0; stroke-width: 0.8"/>
     </g>
     <g id="line2d_14">
      <defs>
       <path id="m5e40f502ba" d="M 0 0 
L -3.5 0 
" style="stroke: #000000; stroke-width: 0.8"/>
      </defs>
      <g>
       <use xlink:href="#m5e40f502ba" x="57.6" y="293.321552" style="stroke: #000000; stroke-width: 0.8"/>
      </g>
     </g>
     <g id="text_8">
      <!-- 100 -->
      <g transform="translate(31.5125 297.120771)scale(0.1 -0.1)">
       <use xlink:href="#DejaVuSans-31"/>
       <use xlink:href="#DejaVuSans-30" x="63.623047"/>
       <use xlink:href="#DejaVuSans-30" x="127.246094"/>
      </g>
     </g>
    </g>
    <g id="ytick_2">
     <g id="line2d_15">
      <path d="M 57.6 257.21409 
L 414.72 257.21409 
" clip-path="url(#p74062bd88e)" style="fill: none; stroke-dasharray: 2.96,1.28; stroke-dashoffset: 0; stroke: #b0b0b0; stroke-width: 0.8"/>
     </g>
     <g id="line2d_16">
      <g>
       <use xlink:href="#m5e40f502ba" x="57.6" y="257.21409" style="stroke: #000000; stroke-width: 0.8"/>
      </g>
     </g>
     <g id="text_9">
      <!-- 200 -->
      <g transform="translate(31.5125 261.013308)scale(0.1 -0.1)">
       <use xlink:href="#DejaVuSans-32"/>
       <use xlink:href="#DejaVuSans-30" x="63.623047"/>
       <use xlink:href="#DejaVuSans-30" x="127.246094"/>
      </g>
     </g>
    </g>
    <g id="ytick_3">
     <g id="line2d_17">
      <path d="M 57.6 221.106627 
L 414.72 221.106627 
" clip-path="url(#p74062bd88e)" style="fill: none; stroke-dasharray: 2.96,1.28; stroke-dashoffset: 0; stroke: #b0b0b0; stroke-width: 0.8"/>
     </g>
     <g id="line2d_18">
      <g>
       <use xlink:href="#m5e40f502ba" x="57.6" y="221.106627" style="stroke: #000000; stroke-width: 0.8"/>
      </g>
     </g>
     <g id="text_10">
      <!-- 300 -->
      <g transform="translate(31.5125 224.905846)scale(0.1 -0.1)">
       <use xlink:href="#DejaVuSans-33"/>
       <use xlink:href="#DejaVuSans-30" x="63.623047"/>
       <use xlink:href="#DejaVuSans-30" x="127.246094"/>
      </g>
     </g>
    </g>
    <g id="ytick_4">
     <g id="line2d_19">
      <path d="M 57.6 184.999164 
L 414.72 184.999164 
" clip-path="url(#p74062bd88e)" style="fill: none; stroke-dasharray: 2.96,1.28; stroke-dashoffset: 0; stroke: #b0b0b0; stroke-width: 0.8"/>
     </g>
     <g id="line2d_20">
      <g>
       <use xlink:href="#m5e40f502ba" x="57.6" y="184.999164" style="stroke: #000000; stroke-width: 0.8"/>
      </g>
     </g>
     <g id="text_11">
      <!-- 400 -->
      <g transform="translate(31.5125 188.798383)scale(0.1 -0.1)">
       <use xlink:href="#DejaVuSans-34"/>
       <use xlink:href="#DejaVuSans-30" x="63.623047"/>
       <use xlink:href="#DejaVuSans-30" x="127.246094"/>
      </g>
     </g>
    </g>
    <g id="ytick_5">
     <g id="line2d_21">
      <path d="M 57.6 148.891701 
L 414.72 148.891701 
" clip-path="url(#p74062bd88e)" style="fill: none; stroke-dasharray: 2.96,1.28; stroke-dashoffset: 0; stroke: #b0b0b0; stroke-width: 0.8"/>
     </g>
     <g id="line2d_22">
      <g>
       <use xlink:href="#m5e40f502ba" x="57.6" y="148.891701" style="stroke: #000000; stroke-width: 0.8"/>
      </g>
     </g>
     <g id="text_12">
      <!-- 500 -->
      <g transform="translate(31.5125 152.69092)scale(0.1 -0.1)">
       <use xlink:href="#DejaVuSans-35"/>
       <use xlink:href="#DejaVuSans-30" x="63.623047"/>
       <use xlink:href="#DejaVuSans-30" x="127.246094"/>
      </g>
     </g>
    </g>
    <g id="ytick_6">
     <g id="line2d_23">
      <path d="M 57.6 112.784239 
L 414.72 112.784239 
" clip-path="url(#p74062bd88e)" style="fill: none; stroke-dasharray: 2.96,1.28; stroke-dashoffset: 0; stroke: #b0b0b0; stroke-width: 0.8"/>
     </g>
     <g id="line2d_24">
      <g>
       <use xlink:href="#m5e40f502ba" x="57.6" y="112.784239" style="stroke: #000000; stroke-width: 0.8"/>
      </g>
     </g>
     <g id="text_13">
      <!-- 600 -->
      <g transform="translate(31.5125 116.583458)scale(0.1 -0.1)">
       <use xlink:href="#DejaVuSans-36"/>
       <use xlink:href="#DejaVuSans-30" x="63.623047"/>
       <use xlink:href="#DejaVuSans-30" x="127.246094"/>
      </g>
     </g>
    </g>
    <g id="ytick_7">
     <g id="line2d_25">
      <path d="M 57.6 76.676776 
L 414.72 76.676776 
" clip-path="url(#p74062bd88e)" style="fill: none; stroke-dasharray: 2.96,1.28; stroke-dashoffset: 0; stroke: #b0b0b0; stroke-width: 0.8"/>
     </g>
     <g id="line2d_26">
      <g>
       <use xlink:href="#m5e40f502ba" x="57.6" y="76.676776" style="stroke: #000000; stroke-width: 0.8"/>
      </g>
     </g>
     <g id="text_14">
      <!-- 700 -->
      <g transform="translate(31.5125 80.475995)scale(0.1 -0.1)">
       <defs>
        <path id="DejaVuSans-37" d="M 525 4666 
L 3525 4666 
L 3525 4397 
L 1831 0 
L 1172 0 
L 2766 4134 
L 525 4134 
L 525 4666 
z
" transform="scale(0.015625)"/>
       </defs>
       <use xlink:href="#DejaVuSans-37"/>
       <use xlink:href="#DejaVuSans-30" x="63.623047"/>
       <use xlink:href="#DejaVuSans-30" x="127.246094"/>
      </g>
     </g>
    </g>
    <g id="text_15">
     <!-- Reward Density -->
     <g transform="translate(25.432812 213.74675)rotate(-90)scale(0.1 -0.1)">
      <defs>
       <path id="DejaVuSans-52" d="M 2841 2188 
Q 3044 2119 3236 1894 
Q 3428 1669 3622 1275 
L 4263 0 
L 3584 0 
L 2988 1197 
Q 2756 1666 2539 1819 
Q 2322 1972 1947 1972 
L 1259 1972 
L 1259 0 
L 628 0 
L 628 4666 
L 2053 4666 
Q 2853 4666 3247 4331 
Q 3641 3997 3641 3322 
Q 3641 2881 3436 2590 
Q 3231 2300 2841 2188 
z
M 1259 4147 
L 1259 2491 
L 2053 2491 
Q 2509 2491 2742 2702 
Q 2975 2913 2975 3322 
Q 2975 3731 2742 3939 
Q 2509 4147 2053 4147 
L 1259 4147 
z
" transform="scale(0.015625)"/>
       <path id="DejaVuSans-77" d="M 269 3500 
L 844 3500 
L 1563 769 
L 2278 3500 
L 2956 3500 
L 3675 769 
L 4391 3500 
L 4966 3500 
L 4050 0 
L 3372 0 
L 2619 2869 
L 1863 0 
L 1184 0 
L 269 3500 
z
" transform="scale(0.015625)"/>
       <path id="DejaVuSans-44" d="M 1259 4147 
L 1259 519 
L 2022 519 
Q 2988 519 3436 956 
Q 3884 1394 3884 2338 
Q 3884 3275 3436 3711 
Q 2988 4147 2022 4147 
L 1259 4147 
z
M 628 4666 
L 1925 4666 
Q 3281 4666 3915 4102 
Q 4550 3538 4550 2338 
Q 4550 1131 3912 565 
Q 3275 0 1925 0 
L 628 0 
L 628 4666 
z
" transform="scale(0.015625)"/>
       <path id="DejaVuSans-74" d="M 1172 4494 
L 1172 3500 
L 2356 3500 
L 2356 3053 
L 1172 3053 
L 1172 1153 
Q 1172 725 1289 603 
Q 1406 481 1766 481 
L 2356 481 
L 2356 0 
L 1766 0 
Q 1100 0 847 248 
Q 594 497 594 1153 
L 594 3053 
L 172 3053 
L 172 3500 
L 594 3500 
L 594 4494 
L 1172 4494 
z
" transform="scale(0.015625)"/>
       <path id="DejaVuSans-79" d="M 2059 -325 
Q 1816 -950 1584 -1140 
Q 1353 -1331 966 -1331 
L 506 -1331 
L 506 -850 
L 844 -850 
Q 1081 -850 1212 -737 
Q 1344 -625 1503 -206 
L 1606 56 
L 191 3500 
L 800 3500 
L 1894 763 
L 2988 3500 
L 3597 3500 
L 2059 -325 
z
" transform="scale(0.015625)"/>
      </defs>
      <use xlink:href="#DejaVuSans-52"/>
      <use xlink:href="#DejaVuSans-65" x="64.982422"/>
      <use xlink:href="#DejaVuSans-77" x="126.505859"/>
      <use xlink:href="#DejaVuSans-61" x="208.292969"/>
      <use xlink:href="#DejaVuSans-72" x="269.572266"/>
      <use xlink:href="#DejaVuSans-64" x="308.935547"/>
      <use xlink:href="#DejaVuSans-20" x="372.412109"/>
      <use xlink:href="#DejaVuSans-44" x="404.199219"/>
      <use xlink:href="#DejaVuSans-65" x="481.201172"/>
      <use xlink:href="#DejaVuSans-6e" x="542.724609"/>
      <use xlink:href="#DejaVuSans-73" x="606.103516"/>
      <use xlink:href="#DejaVuSans-69" x="658.203125"/>
      <use xlink:href="#DejaVuSans-74" x="685.986328"/>
      <use xlink:href="#DejaVuSans-79" x="725.195312"/>
     </g>
    </g>
   </g>
   <g id="LineCollection_1">
    <path d="M 90.919809 232.223392 
L 125.093971 232.223392 
" clip-path="url(#p74062bd88e)" style="fill: none; stroke: #1f77b4; stroke-width: 1.5"/>
    <path d="M 176.355215 234.613707 
L 210.529378 234.613707 
" clip-path="url(#p74062bd88e)" style="fill: none; stroke: #1f77b4; stroke-width: 1.5"/>
    <path d="M 261.790622 240.329518 
L 295.964785 240.329518 
" clip-path="url(#p74062bd88e)" style="fill: none; stroke: #1f77b4; stroke-width: 1.5"/>
    <path d="M 347.226029 242.718388 
L 381.400191 242.718388 
" clip-path="url(#p74062bd88e)" style="fill: none; stroke: #1f77b4; stroke-width: 1.5"/>
   </g>
   <g id="LineCollection_2">
    <path d="M 90.919809 62.594866 
L 125.093971 62.594866 
" clip-path="url(#p74062bd88e)" style="fill: none; stroke: #1f77b4; stroke-width: 1.5"/>
    <path d="M 176.355215 74.149254 
L 210.529378 74.149254 
" clip-path="url(#p74062bd88e)" style="fill: none; stroke: #1f77b4; stroke-width: 1.5"/>
    <path d="M 261.790622 53.568 
L 295.964785 53.568 
" clip-path="url(#p74062bd88e)" style="fill: none; stroke: #1f77b4; stroke-width: 1.5"/>
    <path d="M 347.226029 74.510328 
L 381.400191 74.510328 
" clip-path="url(#p74062bd88e)" style="fill: none; stroke: #1f77b4; stroke-width: 1.5"/>
   </g>
   <g id="LineCollection_3">
    <path d="M 90.919809 288.266507 
L 125.093971 288.266507 
" clip-path="url(#p74062bd88e)" style="fill: none; stroke: #1f77b4; stroke-width: 1.5"/>
    <path d="M 176.355215 288.266507 
L 210.529378 288.266507 
" clip-path="url(#p74062bd88e)" style="fill: none; stroke: #1f77b4; stroke-width: 1.5"/>
    <path d="M 261.790622 289.349731 
L 295.964785 289.349731 
" clip-path="url(#p74062bd88e)" style="fill: none; stroke: #1f77b4; stroke-width: 1.5"/>
    <path d="M 347.226029 295.488 
L 381.400191 295.488 
" clip-path="url(#p74062bd88e)" style="fill: none; stroke: #1f77b4; stroke-width: 1.5"/>
   </g>
   <g id="LineCollection_4">
    <path d="M 108.00689 288.266507 
L 108.00689 62.594866 
" clip-path="url(#p74062bd88e)" style="fill: none; stroke: #1f77b4; stroke-width: 1.5"/>
    <path d="M 193.442297 288.266507 
L 193.442297 74.149254 
" clip-path="url(#p74062bd88e)" style="fill: none; stroke: #1f77b4; stroke-width: 1.5"/>
    <path d="M 278.877703 289.349731 
L 278.877703 53.568 
" clip-path="url(#p74062bd88e)" style="fill: none; stroke: #1f77b4; stroke-width: 1.5"/>
    <path d="M 364.31311 295.488 
L 364.31311 74.510328 
" clip-path="url(#p74062bd88e)" style="fill: none; stroke: #1f77b4; stroke-width: 1.5"/>
   </g>
   <g id="line2d_27">
    <path d="M 108.00689 232.223392 
L 193.442297 234.613707 
L 278.877703 240.329518 
L 364.31311 242.718388 
" clip-path="url(#p74062bd88e)" style="fill: none; stroke: #4682b4; stroke-width: 1.5; stroke-linecap: square"/>
   </g>
   <g id="line2d_28">
    <path d="M 108.00689 232.223392 
L 193.442297 234.613707 
L 278.877703 240.329518 
L 364.31311 242.718388 
" clip-path="url(#p74062bd88e)" style="fill: none; stroke: #4682b4; stroke-width: 1.5; stroke-linecap: square"/>
   </g>
   <g id="patch_3">
    <path d="M 57.6 307.584 
L 57.6 41.472 
" style="fill: none; stroke: #000000; stroke-width: 0.8; stroke-linejoin: miter; stroke-linecap: square"/>
   </g>
   <g id="patch_4">
    <path d="M 414.72 307.584 
L 414.72 41.472 
" style="fill: none; stroke: #000000; stroke-width: 0.8; stroke-linejoin: miter; stroke-linecap: square"/>
   </g>
   <g id="patch_5">
    <path d="M 57.6 307.584 
L 414.72 307.584 
" style="fill: none; stroke: #000000; stroke-width: 0.8; stroke-linejoin: miter; stroke-linecap: square"/>
   </g>
   <g id="patch_6">
    <path d="M 57.6 41.472 
L 414.72 41.472 
" style="fill: none; stroke: #000000; stroke-width: 0.8; stroke-linejoin: miter; stroke-linecap: square"/>
   </g>
   <g id="text_16">
    <!-- Violinplot for progress of owner/throw_away -->
    <g transform="translate(104.22375 35.472)scale(0.12 -0.12)">
     <defs>
      <path id="DejaVuSans-56" d="M 1831 0 
L 50 4666 
L 709 4666 
L 2188 738 
L 3669 4666 
L 4325 4666 
L 2547 0 
L 1831 0 
z
" transform="scale(0.015625)"/>
      <path id="DejaVuSans-6c" d="M 603 4863 
L 1178 4863 
L 1178 0 
L 603 0 
L 603 4863 
z
" transform="scale(0.015625)"/>
      <path id="DejaVuSans-66" d="M 2375 4863 
L 2375 4384 
L 1825 4384 
Q 1516 4384 1395 4259 
Q 1275 4134 1275 3809 
L 1275 3500 
L 2222 3500 
L 2222 3053 
L 1275 3053 
L 1275 0 
L 697 0 
L 697 3053 
L 147 3053 
L 147 3500 
L 697 3500 
L 697 3744 
Q 697 4328 969 4595 
Q 1241 4863 1831 4863 
L 2375 4863 
z
" transform="scale(0.015625)"/>
      <path id="DejaVuSans-67" d="M 2906 1791 
Q 2906 2416 2648 2759 
Q 2391 3103 1925 3103 
Q 1463 3103 1205 2759 
Q 947 2416 947 1791 
Q 947 1169 1205 825 
Q 1463 481 1925 481 
Q 2391 481 2648 825 
Q 2906 1169 2906 1791 
z
M 3481 434 
Q 3481 -459 3084 -895 
Q 2688 -1331 1869 -1331 
Q 1566 -1331 1297 -1286 
Q 1028 -1241 775 -1147 
L 775 -588 
Q 1028 -725 1275 -790 
Q 1522 -856 1778 -856 
Q 2344 -856 2625 -561 
Q 2906 -266 2906 331 
L 2906 616 
Q 2728 306 2450 153 
Q 2172 0 1784 0 
Q 1141 0 747 490 
Q 353 981 353 1791 
Q 353 2603 747 3093 
Q 1141 3584 1784 3584 
Q 2172 3584 2450 3431 
Q 2728 3278 2906 2969 
L 2906 3500 
L 3481 3500 
L 3481 434 
z
" transform="scale(0.015625)"/>
      <path id="DejaVuSans-2f" d="M 1625 4666 
L 2156 4666 
L 531 -594 
L 0 -594 
L 1625 4666 
z
" transform="scale(0.015625)"/>
      <path id="DejaVuSans-68" d="M 3513 2113 
L 3513 0 
L 2938 0 
L 2938 2094 
Q 2938 2591 2744 2837 
Q 2550 3084 2163 3084 
Q 1697 3084 1428 2787 
Q 1159 2491 1159 1978 
L 1159 0 
L 581 0 
L 581 4863 
L 1159 4863 
L 1159 2956 
Q 1366 3272 1645 3428 
Q 1925 3584 2291 3584 
Q 2894 3584 3203 3211 
Q 3513 2838 3513 2113 
z
" transform="scale(0.015625)"/>
      <path id="DejaVuSans-5f" d="M 3263 -1063 
L 3263 -1509 
L -63 -1509 
L -63 -1063 
L 3263 -1063 
z
" transform="scale(0.015625)"/>
     </defs>
     <use xlink:href="#DejaVuSans-56"/>
     <use xlink:href="#DejaVuSans-69" x="66.158203"/>
     <use xlink:href="#DejaVuSans-6f" x="93.941406"/>
     <use xlink:href="#DejaVuSans-6c" x="155.123047"/>
     <use xlink:href="#DejaVuSans-69" x="182.90625"/>
     <use xlink:href="#DejaVuSans-6e" x="210.689453"/>
     <use xlink:href="#DejaVuSans-70" x="274.068359"/>
     <use xlink:href="#DejaVuSans-6c" x="337.544922"/>
     <use xlink:href="#DejaVuSans-6f" x="365.328125"/>
     <use xlink:href="#DejaVuSans-74" x="426.509766"/>
     <use xlink:href="#DejaVuSans-20" x="465.71875"/>
     <use xlink:href="#DejaVuSans-66" x="497.505859"/>
     <use xlink:href="#DejaVuSans-6f" x="532.710938"/>
     <use xlink:href="#DejaVuSans-72" x="593.892578"/>
     <use xlink:href="#DejaVuSans-20" x="635.005859"/>
     <use xlink:href="#DejaVuSans-70" x="666.792969"/>
     <use xlink:href="#DejaVuSans-72" x="730.269531"/>
     <use xlink:href="#DejaVuSans-6f" x="769.132812"/>
     <use xlink:href="#DejaVuSans-67" x="830.314453"/>
     <use xlink:href="#DejaVuSans-72" x="893.791016"/>
     <use xlink:href="#DejaVuSans-65" x="932.654297"/>
     <use xlink:href="#DejaVuSans-73" x="994.177734"/>
     <use xlink:href="#DejaVuSans-73" x="1046.277344"/>
     <use xlink:href="#DejaVuSans-20" x="1098.376953"/>
     <use xlink:href="#DejaVuSans-6f" x="1130.164062"/>
     <use xlink:href="#DejaVuSans-66" x="1191.345703"/>
     <use xlink:href="#DejaVuSans-20" x="1226.550781"/>
     <use xlink:href="#DejaVuSans-6f" x="1258.337891"/>
     <use xlink:href="#DejaVuSans-77" x="1319.519531"/>
     <use xlink:href="#DejaVuSans-6e" x="1401.306641"/>
     <use xlink:href="#DejaVuSans-65" x="1464.685547"/>
     <use xlink:href="#DejaVuSans-72" x="1526.208984"/>
     <use xlink:href="#DejaVuSans-2f" x="1567.322266"/>
     <use xlink:href="#DejaVuSans-74" x="1601.013672"/>
     <use xlink:href="#DejaVuSans-68" x="1640.222656"/>
     <use xlink:href="#DejaVuSans-72" x="1703.601562"/>
     <use xlink:href="#DejaVuSans-6f" x="1742.464844"/>
     <use xlink:href="#DejaVuSans-77" x="1803.646484"/>
     <use xlink:href="#DejaVuSans-5f" x="1885.433594"/>
     <use xlink:href="#DejaVuSans-61" x="1935.433594"/>
     <use xlink:href="#DejaVuSans-77" x="1996.712891"/>
     <use xlink:href="#DejaVuSans-61" x="2078.5"/>
     <use xlink:href="#DejaVuSans-79" x="2139.779297"/>
    </g>
   </g>
  </g>
 </g>
 <defs>
  <clipPath id="p74062bd88e">
   <rect x="57.6" y="41.472" width="357.12" height="266.112"/>
  </clipPath>
 </defs>
</svg>
