<?xml version="1.0" encoding="utf-8" standalone="no"?>
<!DOCTYPE svg PUBLIC "-//W3C//DTD SVG 1.1//EN"
  "http://www.w3.org/Graphics/SVG/1.1/DTD/svg11.dtd">
<svg xmlns:xlink="http://www.w3.org/1999/xlink" width="460.8pt" height="345.6pt" viewBox="0 0 460.8 345.6" xmlns="http://www.w3.org/2000/svg" version="1.1">
 <metadata>
  <rdf:RDF xmlns:dc="http://purl.org/dc/elements/1.1/" xmlns:cc="http://creativecommons.org/ns#" xmlns:rdf="http://www.w3.org/1999/02/22-rdf-syntax-ns#">
   <cc:Work>
    <dc:type rdf:resource="http://purl.org/dc/dcmitype/StillImage"/>
    <dc:date>2022-06-16T13:18:28.921929</dc:date>
    <dc:format>image/svg+xml</dc:format>
    <dc:creator>
     <cc:Agent>
      <dc:title>Matplotlib v3.5.2, https://matplotlib.org/</dc:title>
     </cc:Agent>
    </dc:creator>
   </cc:Work>
  </rdf:RDF>
 </metadata>
 <defs>
  <style type="text/css">*{stroke-linejoin: round; stroke-linecap: butt}</style>
 </defs>
 <g id="figure_1">
  <g id="patch_1">
   <path d="M 0 345.6 
L 460.8 345.6 
L 460.8 0 
L 0 0 
z
" style="fill: #ffffff"/>
  </g>
  <g id="axes_1">
   <g id="patch_2">
    <path d="M 57.6 307.584 
L 414.72 307.584 
L 414.72 41.472 
L 57.6 41.472 
z
" style="fill: #ffffff"/>
   </g>
   <g id="PolyCollection_1">
    <path d="M 88.138073 295.488 
L 84.085214 295.488 
L 83.792718 294.185445 
L 83.475611 292.88289 
L 83.133657 291.580335 
L 82.766775 290.27778 
L 82.375099 288.975225 
L 81.95907 287.67267 
L 81.519532 286.370115 
L 81.057842 285.067559 
L 80.575983 283.765004 
L 80.076644 282.462449 
L 79.563291 281.159894 
L 79.040182 279.857339 
L 78.512337 278.554784 
L 77.985453 277.252229 
L 77.465756 275.949674 
L 76.959811 274.647119 
L 76.474288 273.344564 
L 76.015707 272.042009 
L 75.590185 270.739454 
L 75.203193 269.436899 
L 74.859367 268.134344 
L 74.562353 266.831789 
L 74.314733 265.529233 
L 74.117995 264.226678 
L 73.972579 262.924123 
L 73.877952 261.621568 
L 73.832727 260.319013 
L 73.834789 259.016458 
L 73.881424 257.713903 
L 73.969441 256.411348 
L 74.09527 255.108793 
L 74.255053 253.806238 
L 74.444714 252.503683 
L 74.660015 251.201128 
L 74.89662 249.898573 
L 75.150141 248.596018 
L 75.416207 247.293463 
L 75.690522 245.990907 
L 75.968929 244.688352 
L 76.24748 243.385797 
L 76.522493 242.083242 
L 76.79061 240.780687 
L 77.048836 239.478132 
L 77.294573 238.175577 
L 77.525636 236.873022 
L 77.740255 235.570467 
L 77.937066 234.267912 
L 78.115093 232.965357 
L 78.273723 231.662802 
L 78.412679 230.360247 
L 78.531999 229.057692 
L 78.632015 227.755137 
L 78.713351 226.452581 
L 78.776918 225.150026 
L 78.823931 223.847471 
L 78.855922 222.544916 
L 78.874762 221.242361 
L 78.882671 219.939806 
L 78.882223 218.637251 
L 78.876337 217.334696 
L 78.86825 216.032141 
L 78.861458 214.729586 
L 78.85965 213.427031 
L 78.866605 212.124476 
L 78.886079 210.821921 
L 78.92167 209.519366 
L 78.976678 208.216811 
L 79.053953 206.914256 
L 79.155763 205.6117 
L 79.283661 204.309145 
L 79.438393 203.00659 
L 79.619829 201.704035 
L 79.826939 200.40148 
L 80.057818 199.098925 
L 80.309749 197.79637 
L 80.579314 196.493815 
L 80.862538 195.19126 
L 81.155062 193.888705 
L 81.452329 192.58615 
L 81.749774 191.283595 
L 82.043009 189.98104 
L 82.327997 188.678485 
L 82.601194 187.37593 
L 82.859669 186.073374 
L 83.101196 184.770819 
L 83.324307 183.468264 
L 83.528309 182.165709 
L 83.713273 180.863154 
L 83.879978 179.560599 
L 84.029832 178.258044 
L 84.164747 176.955489 
L 84.287006 175.652934 
L 84.399095 174.350379 
L 84.50354 173.047824 
L 84.602738 171.745269 
L 84.698806 170.442714 
L 84.793455 169.140159 
L 84.887906 167.837604 
L 84.982842 166.535048 
L 87.240445 166.535048 
L 87.240445 166.535048 
L 87.335381 167.837604 
L 87.429832 169.140159 
L 87.524481 170.442714 
L 87.620549 171.745269 
L 87.719747 173.047824 
L 87.824192 174.350379 
L 87.936281 175.652934 
L 88.05854 176.955489 
L 88.193455 178.258044 
L 88.343309 179.560599 
L 88.510014 180.863154 
L 88.694978 182.165709 
L 88.89898 183.468264 
L 89.122091 184.770819 
L 89.363618 186.073374 
L 89.622093 187.37593 
L 89.89529 188.678485 
L 90.180278 189.98104 
L 90.473513 191.283595 
L 90.770958 192.58615 
L 91.068225 193.888705 
L 91.360749 195.19126 
L 91.643973 196.493815 
L 91.913538 197.79637 
L 92.165469 199.098925 
L 92.396348 200.40148 
L 92.603458 201.704035 
L 92.784894 203.00659 
L 92.939626 204.309145 
L 93.067524 205.6117 
L 93.169334 206.914256 
L 93.246609 208.216811 
L 93.301617 209.519366 
L 93.337208 210.821921 
L 93.356682 212.124476 
L 93.363637 213.427031 
L 93.361829 214.729586 
L 93.355037 216.032141 
L 93.34695 217.334696 
L 93.341064 218.637251 
L 93.340616 219.939806 
L 93.348525 221.242361 
L 93.367365 222.544916 
L 93.399356 223.847471 
L 93.446369 225.150026 
L 93.509936 226.452581 
L 93.591272 227.755137 
L 93.691288 229.057692 
L 93.810608 230.360247 
L 93.949564 231.662802 
L 94.108194 232.965357 
L 94.286221 234.267912 
L 94.483032 235.570467 
L 94.697651 236.873022 
L 94.928714 238.175577 
L 95.174451 239.478132 
L 95.432677 240.780687 
L 95.700794 242.083242 
L 95.975807 243.385797 
L 96.254358 244.688352 
L 96.532765 245.990907 
L 96.80708 247.293463 
L 97.073146 248.596018 
L 97.326668 249.898573 
L 97.563272 251.201128 
L 97.778573 252.503683 
L 97.968234 253.806238 
L 98.128017 255.108793 
L 98.253846 256.411348 
L 98.341863 257.713903 
L 98.388498 259.016458 
L 98.39056 260.319013 
L 98.345335 261.621568 
L 98.250708 262.924123 
L 98.105292 264.226678 
L 97.908554 265.529233 
L 97.660934 266.831789 
L 97.36392 268.134344 
L 97.020094 269.436899 
L 96.633102 270.739454 
L 96.20758 272.042009 
L 95.748999 273.344564 
L 95.263476 274.647119 
L 94.757531 275.949674 
L 94.237834 277.252229 
L 93.71095 278.554784 
L 93.183105 279.857339 
L 92.659996 281.159894 
L 92.146643 282.462449 
L 91.647304 283.765004 
L 91.165445 285.067559 
L 90.703755 286.370115 
L 90.264217 287.67267 
L 89.848188 288.975225 
L 89.456512 290.27778 
L 89.08963 291.580335 
L 88.747676 292.88289 
L 88.430569 294.185445 
L 88.138073 295.488 
z
" clip-path="url(#pc0d9effdd6)" style="fill: #1f77b4; fill-opacity: 0.3"/>
   </g>
   <g id="PolyCollection_2">
    <path d="M 114.495548 256.056106 
L 112.3007 256.056106 
L 112.06784 254.495193 
L 111.803591 252.93428 
L 111.508485 251.373366 
L 111.184209 249.812453 
L 110.833532 248.25154 
L 110.46011 246.690627 
L 110.068146 245.129714 
L 109.661968 243.568801 
L 109.245557 242.007888 
L 108.822113 240.446975 
L 108.39372 238.886062 
L 107.961194 237.325149 
L 107.524132 235.764235 
L 107.081198 234.203322 
L 106.630602 232.642409 
L 106.170727 231.081496 
L 105.700803 229.520583 
L 105.221544 227.95967 
L 104.735625 226.398757 
L 104.247935 224.837844 
L 103.765531 223.276931 
L 103.297294 221.716018 
L 102.853306 220.155105 
L 102.444018 218.594191 
L 102.079318 217.033278 
L 101.767613 215.472365 
L 101.515051 213.911452 
L 101.324993 212.350539 
L 101.197785 210.789626 
L 101.13087 209.228713 
L 101.119208 207.6678 
L 101.155923 206.106887 
L 101.23309 204.545974 
L 101.342527 202.98506 
L 101.476493 201.424147 
L 101.628201 199.863234 
L 101.792107 198.302321 
L 101.963947 196.741408 
L 102.140598 195.180495 
L 102.319786 193.619582 
L 102.499756 192.058669 
L 102.678969 190.497756 
L 102.855897 188.936843 
L 103.02894 187.37593 
L 103.196484 185.815016 
L 103.357071 184.254103 
L 103.509617 182.69319 
L 103.653641 181.132277 
L 103.789438 179.571364 
L 103.91815 178.010451 
L 104.041728 176.449538 
L 104.162775 174.888625 
L 104.284316 173.327712 
L 104.409523 171.766799 
L 104.541459 170.205885 
L 104.682869 168.644972 
L 104.83606 167.084059 
L 105.002867 165.523146 
L 105.184691 163.962233 
L 105.382582 162.40132 
L 105.597331 160.840407 
L 105.829517 159.279494 
L 106.079506 157.718581 
L 106.347378 156.157668 
L 106.632797 154.596755 
L 106.934849 153.035841 
L 107.251898 151.474928 
L 107.581476 149.914015 
L 107.920261 148.353102 
L 108.264144 146.792189 
L 108.6084 145.231276 
L 108.947939 143.670363 
L 109.277618 142.10945 
L 109.592574 140.548537 
L 109.888539 138.987624 
L 110.162116 137.42671 
L 110.410975 135.865797 
L 110.633961 134.304884 
L 110.831107 132.743971 
L 111.003559 131.183058 
L 111.15342 129.622145 
L 111.283545 128.061232 
L 111.397294 126.500319 
L 111.498277 124.939406 
L 111.590107 123.378493 
L 111.676181 121.817579 
L 111.759493 120.256666 
L 111.842492 118.695753 
L 111.926997 117.13484 
L 112.014153 115.573927 
L 112.104444 114.013014 
L 112.197745 112.452101 
L 112.293416 110.891188 
L 112.39042 109.330275 
L 112.487467 107.769362 
L 112.583143 106.208449 
L 112.676047 104.647535 
L 112.764894 103.086622 
L 112.848594 101.525709 
L 113.947654 101.525709 
L 113.947654 101.525709 
L 114.031354 103.086622 
L 114.120201 104.647535 
L 114.213105 106.208449 
L 114.308781 107.769362 
L 114.405828 109.330275 
L 114.502833 110.891188 
L 114.598503 112.452101 
L 114.691804 114.013014 
L 114.782095 115.573927 
L 114.869252 117.13484 
L 114.953756 118.695753 
L 115.036755 120.256666 
L 115.120067 121.817579 
L 115.206141 123.378493 
L 115.297972 124.939406 
L 115.398954 126.500319 
L 115.512703 128.061232 
L 115.642828 129.622145 
L 115.792689 131.183058 
L 115.965141 132.743971 
L 116.162287 134.304884 
L 116.385273 135.865797 
L 116.634132 137.42671 
L 116.907709 138.987624 
L 117.203674 140.548537 
L 117.51863 142.10945 
L 117.848309 143.670363 
L 118.187849 145.231276 
L 118.532104 146.792189 
L 118.875987 148.353102 
L 119.214772 149.914015 
L 119.54435 151.474928 
L 119.861399 153.035841 
L 120.163451 154.596755 
L 120.44887 156.157668 
L 120.716742 157.718581 
L 120.966731 159.279494 
L 121.198917 160.840407 
L 121.413666 162.40132 
L 121.611557 163.962233 
L 121.793381 165.523146 
L 121.960188 167.084059 
L 122.113379 168.644972 
L 122.254789 170.205885 
L 122.386725 171.766799 
L 122.511932 173.327712 
L 122.633473 174.888625 
L 122.75452 176.449538 
L 122.878098 178.010451 
L 123.006811 179.571364 
L 123.142608 181.132277 
L 123.286632 182.69319 
L 123.439177 184.254103 
L 123.599764 185.815016 
L 123.767309 187.37593 
L 123.940351 188.936843 
L 124.117279 190.497756 
L 124.296492 192.058669 
L 124.476462 193.619582 
L 124.65565 195.180495 
L 124.832301 196.741408 
L 125.004142 198.302321 
L 125.168047 199.863234 
L 125.319756 201.424147 
L 125.453721 202.98506 
L 125.563158 204.545974 
L 125.640325 206.106887 
L 125.67704 207.6678 
L 125.665378 209.228713 
L 125.598463 210.789626 
L 125.471255 212.350539 
L 125.281197 213.911452 
L 125.028635 215.472365 
L 124.71693 217.033278 
L 124.35223 218.594191 
L 123.942942 220.155105 
L 123.498954 221.716018 
L 123.030717 223.276931 
L 122.548313 224.837844 
L 122.060623 226.398757 
L 121.574704 227.95967 
L 121.095445 229.520583 
L 120.625521 231.081496 
L 120.165646 232.642409 
L 119.71505 234.203322 
L 119.272116 235.764235 
L 118.835054 237.325149 
L 118.402528 238.886062 
L 117.974135 240.446975 
L 117.550691 242.007888 
L 117.13428 243.568801 
L 116.728102 245.129714 
L 116.336139 246.690627 
L 115.962716 248.25154 
L 115.612039 249.812453 
L 115.287763 251.373366 
L 114.992657 252.93428 
L 114.728408 254.495193 
L 114.495548 256.056106 
z
" clip-path="url(#pc0d9effdd6)" style="fill: #1f77b4; fill-opacity: 0.3"/>
   </g>
   <g id="PolyCollection_3">
    <path d="M 141.007587 251.793198 
L 140.361622 251.793198 
L 140.309843 250.19999 
L 140.248215 248.606783 
L 140.174295 247.013575 
L 140.085407 245.420367 
L 139.97876 243.827159 
L 139.851566 242.233951 
L 139.701172 240.640743 
L 139.525184 239.047535 
L 139.321579 237.454328 
L 139.088814 235.86112 
L 138.825918 234.267912 
L 138.532571 232.674704 
L 138.209172 231.081496 
L 137.856877 229.488288 
L 137.477612 227.89508 
L 137.074055 226.301873 
L 136.649559 224.708665 
L 136.208046 223.115457 
L 135.753836 221.522249 
L 135.291455 219.929041 
L 134.825407 218.335833 
L 134.359942 216.742626 
L 133.898844 215.149418 
L 133.445269 213.55621 
L 133.001637 211.963002 
L 132.569633 210.369794 
L 132.150295 208.776586 
L 131.744207 207.183378 
L 131.351766 205.590171 
L 130.973495 203.996963 
L 130.610345 202.403755 
L 130.263941 200.810547 
L 129.936709 199.217339 
L 129.63186 197.624131 
L 129.353209 196.030924 
L 129.104845 194.437716 
L 128.890707 192.844508 
L 128.714101 191.2513 
L 128.577267 189.658092 
L 128.481032 188.064884 
L 128.424627 186.471676 
L 128.405688 184.878469 
L 128.420456 183.285261 
L 128.464131 181.692053 
L 128.531362 180.098845 
L 128.616787 178.505637 
L 128.71557 176.912429 
L 128.823857 175.319221 
L 128.939111 173.726014 
L 129.060267 172.132806 
L 129.187698 170.539598 
L 129.323002 168.94639 
L 129.468624 167.353182 
L 129.627375 165.759974 
L 129.801915 164.166767 
L 129.994263 162.573559 
L 130.205407 160.980351 
L 130.435076 159.387143 
L 130.681683 157.793935 
L 130.942451 156.200727 
L 131.2137 154.607519 
L 131.491215 153.014312 
L 131.770665 151.421104 
L 132.047984 149.827896 
L 132.319677 148.234688 
L 132.583022 146.64148 
L 132.836153 145.048272 
L 133.078066 143.455064 
L 133.308549 141.861857 
L 133.528105 140.268649 
L 133.737863 138.675441 
L 133.93952 137.082233 
L 134.135285 135.489025 
L 134.32782 133.895817 
L 134.520136 132.30261 
L 134.715434 130.709402 
L 134.916876 129.116194 
L 135.127289 127.522986 
L 135.348841 125.929778 
L 135.582736 124.33657 
L 135.828984 122.743362 
L 136.086294 121.150155 
L 136.352124 119.556947 
L 136.622895 117.963739 
L 136.894354 116.370531 
L 137.162024 114.777323 
L 137.421689 113.184115 
L 137.669836 111.590907 
L 137.903987 109.9977 
L 138.122885 108.404492 
L 138.326495 106.811284 
L 138.515855 105.218076 
L 138.692781 103.624868 
L 138.859504 102.03166 
L 139.018283 100.438453 
L 139.171059 98.845245 
L 139.319194 97.252037 
L 139.46333 95.658829 
L 139.603369 94.065621 
L 141.765841 94.065621 
L 141.765841 94.065621 
L 141.905879 95.658829 
L 142.050016 97.252037 
L 142.198151 98.845245 
L 142.350926 100.438453 
L 142.509705 102.03166 
L 142.676429 103.624868 
L 142.853355 105.218076 
L 143.042714 106.811284 
L 143.246325 108.404492 
L 143.465222 109.9977 
L 143.699373 111.590907 
L 143.94752 113.184115 
L 144.207185 114.777323 
L 144.474855 116.370531 
L 144.746314 117.963739 
L 145.017086 119.556947 
L 145.282915 121.150155 
L 145.540225 122.743362 
L 145.786474 124.33657 
L 146.020368 125.929778 
L 146.24192 127.522986 
L 146.452333 129.116194 
L 146.653775 130.709402 
L 146.849073 132.30261 
L 147.041389 133.895817 
L 147.233924 135.489025 
L 147.429689 137.082233 
L 147.631347 138.675441 
L 147.841104 140.268649 
L 148.06066 141.861857 
L 148.291144 143.455064 
L 148.533056 145.048272 
L 148.786188 146.64148 
L 149.049532 148.234688 
L 149.321225 149.827896 
L 149.598544 151.421104 
L 149.877994 153.014312 
L 150.155509 154.607519 
L 150.426758 156.200727 
L 150.687527 157.793935 
L 150.934133 159.387143 
L 151.163802 160.980351 
L 151.374947 162.573559 
L 151.567294 164.166767 
L 151.741834 165.759974 
L 151.900586 167.353182 
L 152.046207 168.94639 
L 152.181511 170.539598 
L 152.308942 172.132806 
L 152.430098 173.726014 
L 152.545352 175.319221 
L 152.65364 176.912429 
L 152.752422 178.505637 
L 152.837848 180.098845 
L 152.905079 181.692053 
L 152.948754 183.285261 
L 152.963521 184.878469 
L 152.944582 186.471676 
L 152.888177 188.064884 
L 152.791942 189.658092 
L 152.655108 191.2513 
L 152.478503 192.844508 
L 152.264364 194.437716 
L 152.016 196.030924 
L 151.737349 197.624131 
L 151.4325 199.217339 
L 151.105268 200.810547 
L 150.758864 202.403755 
L 150.395714 203.996963 
L 150.017443 205.590171 
L 149.625002 207.183378 
L 149.218914 208.776586 
L 148.799576 210.369794 
L 148.367572 211.963002 
L 147.923941 213.55621 
L 147.470365 215.149418 
L 147.009268 216.742626 
L 146.543802 218.335833 
L 146.077754 219.929041 
L 145.615373 221.522249 
L 145.161164 223.115457 
L 144.71965 224.708665 
L 144.295155 226.301873 
L 143.891597 227.89508 
L 143.512333 229.488288 
L 143.160037 231.081496 
L 142.836638 232.674704 
L 142.543291 234.267912 
L 142.280395 235.86112 
L 142.04763 237.454328 
L 141.844025 239.047535 
L 141.668037 240.640743 
L 141.517643 242.233951 
L 141.390449 243.827159 
L 141.283802 245.420367 
L 141.194914 247.013575 
L 141.120994 248.606783 
L 141.059367 250.19999 
L 141.007587 251.793198 
z
" clip-path="url(#pc0d9effdd6)" style="fill: #1f77b4; fill-opacity: 0.3"/>
   </g>
   <g id="PolyCollection_4">
    <path d="M 169.327953 253.924652 
L 166.614218 253.924652 
L 166.332038 252.159205 
L 166.008611 250.393759 
L 165.641948 248.628312 
L 165.230919 246.862866 
L 164.775457 245.097419 
L 164.276743 243.331973 
L 163.737349 241.566526 
L 163.161337 239.80108 
L 162.55429 238.035633 
L 161.923271 236.270187 
L 161.276698 234.50474 
L 160.62413 232.739294 
L 159.975975 230.973847 
L 159.34312 229.2084 
L 158.736497 227.442954 
L 158.166621 225.677507 
L 157.643103 223.912061 
L 157.174195 222.146614 
L 156.766385 220.381168 
L 156.424084 218.615721 
L 156.149438 216.850275 
L 155.94227 215.084828 
L 155.800185 213.319382 
L 155.71881 211.553935 
L 155.692169 209.788489 
L 155.713148 208.023042 
L 155.774018 206.257596 
L 155.866964 204.492149 
L 155.984574 202.726702 
L 156.120254 200.961256 
L 156.268522 199.195809 
L 156.42517 197.430363 
L 156.58728 195.664916 
L 156.753104 193.89947 
L 156.921822 192.134023 
L 157.093208 190.368577 
L 157.267256 188.60313 
L 157.443785 186.837684 
L 157.622098 185.072237 
L 157.800706 183.306791 
L 157.977174 181.541344 
L 158.148096 179.775897 
L 158.309211 178.010451 
L 158.455657 176.245004 
L 158.582339 174.479558 
L 158.684379 172.714111 
L 158.75761 170.948665 
L 158.799062 169.183218 
L 158.807398 167.417772 
L 158.783253 165.652325 
L 158.729437 163.886879 
L 158.650985 162.121432 
L 158.555031 160.355986 
L 158.450519 158.590539 
L 158.347759 156.825093 
L 158.257855 155.059646 
L 158.192052 153.294199 
L 158.161041 151.528753 
L 158.174278 149.763306 
L 158.239366 147.99786 
L 158.361555 146.232413 
L 158.543389 144.466967 
L 158.784555 142.70152 
L 159.081915 140.936074 
L 159.429746 139.170627 
L 159.82015 137.405181 
L 160.243597 135.639734 
L 160.68956 133.874288 
L 161.147177 132.108841 
L 161.605887 130.343394 
L 162.05601 128.577948 
L 162.489204 126.812501 
L 162.898809 125.047055 
L 163.280045 123.281608 
L 163.63007 121.516162 
L 163.94792 119.750715 
L 164.234318 117.985269 
L 164.49141 116.219822 
L 164.722418 114.454376 
L 164.931264 112.688929 
L 165.122179 110.923483 
L 165.299336 109.158036 
L 165.466531 107.39259 
L 165.626932 105.627143 
L 165.782926 103.861696 
L 165.936047 102.09625 
L 166.087 100.330803 
L 166.235762 98.565357 
L 166.381738 96.79991 
L 166.523945 95.034464 
L 166.661211 93.269017 
L 166.792352 91.503571 
L 166.916318 89.738124 
L 167.032299 87.972678 
L 167.139779 86.207231 
L 167.238545 84.441785 
L 167.328665 82.676338 
L 167.410427 80.910891 
L 167.484279 79.145445 
L 168.457892 79.145445 
L 168.457892 79.145445 
L 168.531743 80.910891 
L 168.613506 82.676338 
L 168.703625 84.441785 
L 168.802391 86.207231 
L 168.909871 87.972678 
L 169.025852 89.738124 
L 169.149818 91.503571 
L 169.280959 93.269017 
L 169.418225 95.034464 
L 169.560432 96.79991 
L 169.706408 98.565357 
L 169.85517 100.330803 
L 170.006123 102.09625 
L 170.159244 103.861696 
L 170.315238 105.627143 
L 170.47564 107.39259 
L 170.642834 109.158036 
L 170.819991 110.923483 
L 171.010907 112.688929 
L 171.219752 114.454376 
L 171.45076 116.219822 
L 171.707852 117.985269 
L 171.994251 119.750715 
L 172.3121 121.516162 
L 172.662126 123.281608 
L 173.043361 125.047055 
L 173.452966 126.812501 
L 173.88616 128.577948 
L 174.336283 130.343394 
L 174.794994 132.108841 
L 175.25261 133.874288 
L 175.698573 135.639734 
L 176.122021 137.405181 
L 176.512424 139.170627 
L 176.860255 140.936074 
L 177.157615 142.70152 
L 177.398781 144.466967 
L 177.580616 146.232413 
L 177.702804 147.99786 
L 177.767893 149.763306 
L 177.78113 151.528753 
L 177.750118 153.294199 
L 177.684315 155.059646 
L 177.594411 156.825093 
L 177.491651 158.590539 
L 177.38714 160.355986 
L 177.291186 162.121432 
L 177.212733 163.886879 
L 177.158917 165.652325 
L 177.134772 167.417772 
L 177.143108 169.183218 
L 177.18456 170.948665 
L 177.257791 172.714111 
L 177.359831 174.479558 
L 177.486513 176.245004 
L 177.632959 178.010451 
L 177.794074 179.775897 
L 177.964996 181.541344 
L 178.141465 183.306791 
L 178.320073 185.072237 
L 178.498385 186.837684 
L 178.674915 188.60313 
L 178.848962 190.368577 
L 179.020349 192.134023 
L 179.189066 193.89947 
L 179.35489 195.664916 
L 179.517 197.430363 
L 179.673648 199.195809 
L 179.821916 200.961256 
L 179.957596 202.726702 
L 180.075206 204.492149 
L 180.168152 206.257596 
L 180.229022 208.023042 
L 180.250001 209.788489 
L 180.22336 211.553935 
L 180.141985 213.319382 
L 179.9999 215.084828 
L 179.792732 216.850275 
L 179.518086 218.615721 
L 179.175785 220.381168 
L 178.767975 222.146614 
L 178.299067 223.912061 
L 177.775549 225.677507 
L 177.205673 227.442954 
L 176.599051 229.2084 
L 175.966195 230.973847 
L 175.31804 232.739294 
L 174.665472 234.50474 
L 174.018899 236.270187 
L 173.387881 238.035633 
L 172.780834 239.80108 
L 172.204821 241.566526 
L 171.665427 243.331973 
L 171.166713 245.097419 
L 170.711252 246.862866 
L 170.300222 248.628312 
L 169.933559 250.393759 
L 169.610132 252.159205 
L 169.327953 253.924652 
z
" clip-path="url(#pc0d9effdd6)" style="fill: #1f77b4; fill-opacity: 0.3"/>
   </g>
   <g id="PolyCollection_5">
    <path d="M 196.200532 258.187559 
L 194.3146 258.187559 
L 194.131086 256.389818 
L 193.9228 254.592077 
L 193.688833 252.794336 
L 193.428782 250.996594 
L 193.142825 249.198853 
L 192.831755 247.401112 
L 192.496982 245.60337 
L 192.140491 243.805629 
L 191.764753 242.007888 
L 191.3726 240.210147 
L 190.96706 238.412405 
L 190.551183 236.614664 
L 190.127859 234.816923 
L 189.699666 233.019181 
L 189.268755 231.22144 
L 188.836812 229.423699 
L 188.405096 227.625958 
L 187.974559 225.828216 
L 187.546044 224.030475 
L 187.12053 222.232734 
L 186.699384 220.434992 
L 186.284579 218.637251 
L 185.878819 216.83951 
L 185.485563 215.041769 
L 185.108893 213.244027 
L 184.753274 211.446286 
L 184.4232 209.648545 
L 184.122815 207.850803 
L 183.855536 206.053062 
L 183.623772 204.255321 
L 183.428769 202.457579 
L 183.270611 200.659838 
L 183.14837 198.862097 
L 183.060373 197.064356 
L 183.004529 195.266614 
L 182.978649 193.468873 
L 182.9807 191.671132 
L 183.008942 189.87339 
L 183.061946 188.075649 
L 183.138478 186.277908 
L 183.237317 184.480167 
L 183.357044 182.682425 
L 183.495866 180.884684 
L 183.651544 179.086943 
L 183.821429 177.289201 
L 184.002637 175.49146 
L 184.192317 173.693719 
L 184.387966 171.895978 
L 184.587726 170.098236 
L 184.790596 168.300495 
L 184.996503 166.502754 
L 185.206207 164.705012 
L 185.42104 162.907271 
L 185.642525 161.10953 
L 185.871928 159.311789 
L 186.109818 157.514047 
L 186.355724 155.716306 
L 186.607939 153.918565 
L 186.863523 152.120823 
L 187.118494 150.323082 
L 187.368211 148.525341 
L 187.607871 146.7276 
L 187.833066 144.929858 
L 188.040323 143.132117 
L 188.227552 141.334376 
L 188.394343 139.536634 
L 188.542089 137.738893 
L 188.673898 135.941152 
L 188.794329 134.14341 
L 188.908972 132.345669 
L 189.023921 130.547928 
L 189.145206 128.750187 
L 189.278237 126.952445 
L 189.427321 125.154704 
L 189.595315 123.356963 
L 189.783424 121.559221 
L 189.991183 119.76148 
L 190.2166 117.963739 
L 190.456448 116.165998 
L 190.706653 114.368256 
L 190.962731 112.570515 
L 191.220228 110.772774 
L 191.475092 108.975032 
L 191.723966 107.177291 
L 191.964359 105.37955 
L 192.194696 103.581809 
L 192.414268 101.784067 
L 192.623089 99.986326 
L 192.821702 98.188585 
L 193.010967 96.390843 
L 193.191853 94.593102 
L 193.365263 92.795361 
L 193.531905 90.99762 
L 193.692216 89.199878 
L 193.846332 87.402137 
L 193.994103 85.604396 
L 194.135142 83.806654 
L 194.268898 82.008913 
L 194.39473 80.211172 
L 196.120401 80.211172 
L 196.120401 80.211172 
L 196.246233 82.008913 
L 196.379989 83.806654 
L 196.521029 85.604396 
L 196.668799 87.402137 
L 196.822915 89.199878 
L 196.983226 90.99762 
L 197.149869 92.795361 
L 197.323279 94.593102 
L 197.504164 96.390843 
L 197.693429 98.188585 
L 197.892042 99.986326 
L 198.100863 101.784067 
L 198.320435 103.581809 
L 198.550773 105.37955 
L 198.791165 107.177291 
L 199.04004 108.975032 
L 199.294904 110.772774 
L 199.5524 112.570515 
L 199.808479 114.368256 
L 200.058683 116.165998 
L 200.298531 117.963739 
L 200.523948 119.76148 
L 200.731707 121.559221 
L 200.919816 123.356963 
L 201.08781 125.154704 
L 201.236895 126.952445 
L 201.369925 128.750187 
L 201.49121 130.547928 
L 201.60616 132.345669 
L 201.720802 134.14341 
L 201.841233 135.941152 
L 201.973042 137.738893 
L 202.120788 139.536634 
L 202.28758 141.334376 
L 202.474808 143.132117 
L 202.682065 144.929858 
L 202.90726 146.7276 
L 203.14692 148.525341 
L 203.396637 150.323082 
L 203.651609 152.120823 
L 203.907192 153.918565 
L 204.159408 155.716306 
L 204.405314 157.514047 
L 204.643204 159.311789 
L 204.872606 161.10953 
L 205.094092 162.907271 
L 205.308925 164.705012 
L 205.518628 166.502754 
L 205.724535 168.300495 
L 205.927406 170.098236 
L 206.127166 171.895978 
L 206.322814 173.693719 
L 206.512494 175.49146 
L 206.693703 177.289201 
L 206.863588 179.086943 
L 207.019265 180.884684 
L 207.158088 182.682425 
L 207.277814 184.480167 
L 207.376654 186.277908 
L 207.453186 188.075649 
L 207.506189 189.87339 
L 207.534432 191.671132 
L 207.536482 193.468873 
L 207.510602 195.266614 
L 207.454758 197.064356 
L 207.366761 198.862097 
L 207.24452 200.659838 
L 207.086362 202.457579 
L 206.89136 204.255321 
L 206.659596 206.053062 
L 206.392316 207.850803 
L 206.091931 209.648545 
L 205.761858 211.446286 
L 205.406238 213.244027 
L 205.029568 215.041769 
L 204.636312 216.83951 
L 204.230553 218.637251 
L 203.815747 220.434992 
L 203.394602 222.232734 
L 202.969088 224.030475 
L 202.540572 225.828216 
L 202.110035 227.625958 
L 201.678319 229.423699 
L 201.246377 231.22144 
L 200.815466 233.019181 
L 200.387272 234.816923 
L 199.963948 236.614664 
L 199.548071 238.412405 
L 199.142531 240.210147 
L 198.750378 242.007888 
L 198.374641 243.805629 
L 198.018149 245.60337 
L 197.683376 247.401112 
L 197.372306 249.198853 
L 197.086349 250.996594 
L 196.826299 252.794336 
L 196.592331 254.592077 
L 196.384045 256.389818 
L 196.200532 258.187559 
z
" clip-path="url(#pc0d9effdd6)" style="fill: #1f77b4; fill-opacity: 0.3"/>
   </g>
   <g id="PolyCollection_6">
    <path d="M 223.193326 265.647648 
L 221.894767 265.647648 
L 221.765037 263.666903 
L 221.61402 261.686158 
L 221.439248 259.705413 
L 221.238402 257.724668 
L 221.009501 255.743923 
L 220.751103 253.763178 
L 220.462515 251.782433 
L 220.143985 249.801688 
L 219.796848 247.820944 
L 219.423603 245.840199 
L 219.027901 243.859454 
L 218.61442 241.878709 
L 218.188634 239.897964 
L 217.756489 237.917219 
L 217.324003 235.936474 
L 216.896848 233.955729 
L 216.479949 231.974984 
L 216.077166 229.994239 
L 215.691086 228.013495 
L 215.322967 226.03275 
L 214.972828 224.052005 
L 214.639675 222.07126 
L 214.321831 220.090515 
L 214.017298 218.10977 
L 213.724121 216.129025 
L 213.440674 214.14828 
L 213.165847 212.167535 
L 212.899097 210.186791 
L 212.640394 208.206046 
L 212.39006 206.225301 
L 212.148584 204.244556 
L 211.916446 202.263811 
L 211.694016 200.283066 
L 211.481568 198.302321 
L 211.279415 196.321576 
L 211.088147 194.340831 
L 210.90892 192.360087 
L 210.743734 190.379342 
L 210.59561 188.398597 
L 210.468604 186.417852 
L 210.367623 184.437107 
L 210.298037 182.456362 
L 210.26513 180.475617 
L 210.273464 178.494872 
L 210.326258 176.514127 
L 210.424885 174.533382 
L 210.56856 172.552638 
L 210.754285 170.571893 
L 210.977044 168.591148 
L 211.230237 166.610403 
L 211.506263 164.629658 
L 211.797181 162.648913 
L 212.09536 160.668168 
L 212.394032 158.687423 
L 212.687704 156.706678 
L 212.972394 154.725934 
L 213.245698 152.745189 
L 213.506719 150.764444 
L 213.755869 148.783699 
L 213.994616 146.802954 
L 214.225194 144.822209 
L 214.45031 142.841464 
L 214.672873 140.860719 
L 214.895744 138.879974 
L 215.121533 136.899229 
L 215.352431 134.918485 
L 215.590076 132.93774 
L 215.835476 130.956995 
L 216.088967 128.97625 
L 216.350226 126.995505 
L 216.618328 125.01476 
L 216.891835 123.034015 
L 217.168918 121.05327 
L 217.447491 119.072525 
L 217.725341 117.091781 
L 218.000242 115.111036 
L 218.27005 113.130291 
L 218.532773 111.149546 
L 218.786616 109.168801 
L 219.030014 107.188056 
L 219.261651 105.207311 
L 219.480488 103.226566 
L 219.685791 101.245821 
L 219.877159 99.265076 
L 220.054561 97.284332 
L 220.218358 95.303587 
L 220.369315 93.322842 
L 220.50858 91.342097 
L 220.637643 89.361352 
L 220.758246 87.380607 
L 220.872276 85.399862 
L 220.981627 83.419117 
L 221.088047 81.438372 
L 221.193001 79.457628 
L 221.29755 77.476883 
L 221.40226 75.496138 
L 221.507175 73.515393 
L 221.611832 71.534648 
L 221.71533 69.553903 
L 223.372762 69.553903 
L 223.372762 69.553903 
L 223.476261 71.534648 
L 223.580917 73.515393 
L 223.685833 75.496138 
L 223.790543 77.476883 
L 223.895091 79.457628 
L 224.000046 81.438372 
L 224.106466 83.419117 
L 224.215816 85.399862 
L 224.329847 87.380607 
L 224.45045 89.361352 
L 224.579512 91.342097 
L 224.718778 93.322842 
L 224.869734 95.303587 
L 225.033531 97.284332 
L 225.210933 99.265076 
L 225.402301 101.245821 
L 225.607604 103.226566 
L 225.826442 105.207311 
L 226.058079 107.188056 
L 226.301476 109.168801 
L 226.55532 111.149546 
L 226.818043 113.130291 
L 227.087851 115.111036 
L 227.362751 117.091781 
L 227.640601 119.072525 
L 227.919175 121.05327 
L 228.196258 123.034015 
L 228.469764 125.01476 
L 228.737866 126.995505 
L 228.999126 128.97625 
L 229.252617 130.956995 
L 229.498016 132.93774 
L 229.735661 134.918485 
L 229.966559 136.899229 
L 230.192349 138.879974 
L 230.41522 140.860719 
L 230.637782 142.841464 
L 230.862899 144.822209 
L 231.093477 146.802954 
L 231.332224 148.783699 
L 231.581373 150.764444 
L 231.842394 152.745189 
L 232.115699 154.725934 
L 232.400388 156.706678 
L 232.69406 158.687423 
L 232.992732 160.668168 
L 233.290911 162.648913 
L 233.58183 164.629658 
L 233.857855 166.610403 
L 234.111048 168.591148 
L 234.333808 170.571893 
L 234.519532 172.552638 
L 234.663207 174.533382 
L 234.761834 176.514127 
L 234.814629 178.494872 
L 234.822962 180.475617 
L 234.790055 182.456362 
L 234.72047 184.437107 
L 234.619489 186.417852 
L 234.492483 188.398597 
L 234.344358 190.379342 
L 234.179173 192.360087 
L 233.999946 194.340831 
L 233.808677 196.321576 
L 233.606524 198.302321 
L 233.394077 200.283066 
L 233.171647 202.263811 
L 232.939508 204.244556 
L 232.698032 206.225301 
L 232.447699 208.206046 
L 232.188995 210.186791 
L 231.922246 212.167535 
L 231.647418 214.14828 
L 231.363971 216.129025 
L 231.070794 218.10977 
L 230.766261 220.090515 
L 230.448417 222.07126 
L 230.115265 224.052005 
L 229.765125 226.03275 
L 229.397007 228.013495 
L 229.010927 229.994239 
L 228.608144 231.974984 
L 228.191245 233.955729 
L 227.764089 235.936474 
L 227.331604 237.917219 
L 226.899459 239.897964 
L 226.473673 241.878709 
L 226.060191 243.859454 
L 225.664489 245.840199 
L 225.291245 247.820944 
L 224.944107 249.801688 
L 224.625577 251.782433 
L 224.33699 253.763178 
L 224.078591 255.743923 
L 223.849691 257.724668 
L 223.648845 259.705413 
L 223.474072 261.686158 
L 223.323055 263.666903 
L 223.193326 265.647648 
z
" clip-path="url(#pc0d9effdd6)" style="fill: #1f77b4; fill-opacity: 0.3"/>
   </g>
   <g id="PolyCollection_7">
    <path d="M 252.329218 253.924652 
L 247.331836 253.924652 
L 246.947696 251.922377 
L 246.53348 249.920103 
L 246.09137 247.917828 
L 245.624148 245.915553 
L 245.135141 243.913278 
L 244.628157 241.911004 
L 244.107418 239.908729 
L 243.577503 237.906454 
L 243.043281 235.904179 
L 242.509857 233.901905 
L 241.982507 231.89963 
L 241.466594 229.897355 
L 240.967482 227.89508 
L 240.490405 225.892806 
L 240.040325 223.890531 
L 239.621762 221.888256 
L 239.238617 219.885982 
L 238.893994 217.883707 
L 238.590058 215.881432 
L 238.327925 213.879157 
L 238.107626 211.876883 
L 237.928132 209.874608 
L 237.787468 207.872333 
L 237.682885 205.870058 
L 237.611092 203.867784 
L 237.568525 201.865509 
L 237.551611 199.863234 
L 237.557015 197.86096 
L 237.581847 195.858685 
L 237.623788 193.85641 
L 237.681148 191.854135 
L 237.752841 189.851861 
L 237.838286 187.849586 
L 237.937243 185.847311 
L 238.04962 183.845036 
L 238.175256 181.842762 
L 238.313723 179.840487 
L 238.464162 177.838212 
L 238.625178 175.835938 
L 238.794807 173.833663 
L 238.970561 171.831388 
L 239.149545 169.829113 
L 239.328643 167.826839 
L 239.504738 165.824564 
L 239.674962 163.822289 
L 239.836929 161.820014 
L 239.988935 159.81774 
L 240.130101 157.815465 
L 240.260449 155.81319 
L 240.380886 153.810915 
L 240.493122 151.808641 
L 240.599513 149.806366 
L 240.702859 147.804091 
L 240.806163 145.801817 
L 240.912395 143.799542 
L 241.024264 141.797267 
L 241.144027 139.794992 
L 241.273353 137.792718 
L 241.41324 135.790443 
L 241.563998 133.788168 
L 241.725286 131.785893 
L 241.896202 129.783619 
L 242.075408 127.781344 
L 242.261273 125.779069 
L 242.452025 123.776795 
L 242.645887 121.77452 
L 242.841198 119.772245 
L 243.036502 117.76997 
L 243.230602 115.767696 
L 243.422587 113.765421 
L 243.611832 111.763146 
L 243.797976 109.760871 
L 243.980894 107.758597 
L 244.160659 105.756322 
L 244.337506 103.754047 
L 244.5118 101.751773 
L 244.684005 99.749498 
L 244.85465 97.747223 
L 245.024305 95.744948 
L 245.193548 93.742674 
L 245.362929 91.740399 
L 245.532941 89.738124 
L 245.70399 87.735849 
L 245.876366 85.733575 
L 246.050232 83.7313 
L 246.225617 81.729025 
L 246.402423 79.726751 
L 246.580433 77.724476 
L 246.759339 75.722201 
L 246.938753 73.719926 
L 247.118228 71.717652 
L 247.297265 69.715377 
L 247.47532 67.713102 
L 247.651791 65.710827 
L 247.826016 63.708553 
L 247.997257 61.706278 
L 248.164701 59.704003 
L 248.32746 57.701728 
L 248.484585 55.699454 
L 251.176468 55.699454 
L 251.176468 55.699454 
L 251.333593 57.701728 
L 251.496352 59.704003 
L 251.663797 61.706278 
L 251.835038 63.708553 
L 252.009262 65.710827 
L 252.185733 67.713102 
L 252.363788 69.715377 
L 252.542826 71.717652 
L 252.722301 73.719926 
L 252.901715 75.722201 
L 253.08062 77.724476 
L 253.258631 79.726751 
L 253.435436 81.729025 
L 253.610822 83.7313 
L 253.784688 85.733575 
L 253.957064 87.735849 
L 254.128112 89.738124 
L 254.298125 91.740399 
L 254.467506 93.742674 
L 254.636749 95.744948 
L 254.806404 97.747223 
L 254.977049 99.749498 
L 255.149253 101.751773 
L 255.323547 103.754047 
L 255.500395 105.756322 
L 255.68016 107.758597 
L 255.863078 109.760871 
L 256.049222 111.763146 
L 256.238466 113.765421 
L 256.430451 115.767696 
L 256.624551 117.76997 
L 256.819856 119.772245 
L 257.015167 121.77452 
L 257.209029 123.776795 
L 257.39978 125.779069 
L 257.585646 127.781344 
L 257.764852 129.783619 
L 257.935768 131.785893 
L 258.097056 133.788168 
L 258.247813 135.790443 
L 258.387701 137.792718 
L 258.517027 139.794992 
L 258.63679 141.797267 
L 258.748658 143.799542 
L 258.85489 145.801817 
L 258.958194 147.804091 
L 259.06154 149.806366 
L 259.167932 151.808641 
L 259.280168 153.810915 
L 259.400604 155.81319 
L 259.530952 157.815465 
L 259.672119 159.81774 
L 259.824124 161.820014 
L 259.986091 163.822289 
L 260.156315 165.824564 
L 260.332411 167.826839 
L 260.511508 169.829113 
L 260.690493 171.831388 
L 260.866247 173.833663 
L 261.035876 175.835938 
L 261.196892 177.838212 
L 261.34733 179.840487 
L 261.485797 181.842762 
L 261.611433 183.845036 
L 261.72381 185.847311 
L 261.822768 187.849586 
L 261.908212 189.851861 
L 261.979906 191.854135 
L 262.037266 193.85641 
L 262.079206 195.858685 
L 262.104038 197.86096 
L 262.109443 199.863234 
L 262.092528 201.865509 
L 262.049961 203.867784 
L 261.978169 205.870058 
L 261.873585 207.872333 
L 261.732921 209.874608 
L 261.553428 211.876883 
L 261.333129 213.879157 
L 261.070996 215.881432 
L 260.767059 217.883707 
L 260.422437 219.885982 
L 260.039291 221.888256 
L 259.620729 223.890531 
L 259.170649 225.892806 
L 258.693572 227.89508 
L 258.194459 229.897355 
L 257.678547 231.89963 
L 257.151196 233.901905 
L 256.617773 235.904179 
L 256.083551 237.906454 
L 255.553635 239.908729 
L 255.032897 241.911004 
L 254.525912 243.913278 
L 254.036906 245.915553 
L 253.569684 247.917828 
L 253.127574 249.920103 
L 252.713358 251.922377 
L 252.329218 253.924652 
z
" clip-path="url(#pc0d9effdd6)" style="fill: #1f77b4; fill-opacity: 0.3"/>
   </g>
   <g id="PolyCollection_8">
    <path d="M 278.307888 259.253286 
L 275.926126 259.253286 
L 275.746263 257.358661 
L 275.549567 255.464035 
L 275.334253 253.56941 
L 275.098051 251.674784 
L 274.83832 249.780159 
L 274.552252 247.885533 
L 274.237179 245.990907 
L 273.890949 244.096282 
L 273.512329 242.201656 
L 273.101396 240.307031 
L 272.659852 238.412405 
L 272.191211 236.51778 
L 271.700825 234.623154 
L 271.195715 232.728529 
L 270.684224 230.833903 
L 270.175517 228.939278 
L 269.67898 227.044652 
L 269.203588 225.150026 
L 268.757311 223.255401 
L 268.346609 221.360775 
L 267.976089 219.46615 
L 267.64831 217.571524 
L 267.363765 215.676899 
L 267.120995 213.782273 
L 266.91682 211.887648 
L 266.746637 209.993022 
L 266.604754 208.098396 
L 266.484755 206.203771 
L 266.379861 204.309145 
L 266.28331 202.41452 
L 266.188744 200.519894 
L 266.090617 198.625269 
L 265.984598 196.730643 
L 265.867954 194.836018 
L 265.73987 192.941392 
L 265.601661 191.046767 
L 265.456812 189.152141 
L 265.310832 187.257515 
L 265.170892 185.36289 
L 265.04526 183.468264 
L 264.942596 181.573639 
L 264.871168 179.679013 
L 264.838091 177.784388 
L 264.84869 175.889762 
L 264.90605 173.995137 
L 265.01082 172.100511 
L 265.161281 170.205885 
L 265.353638 168.31126 
L 265.582488 166.416634 
L 265.841385 164.522009 
L 266.123407 162.627383 
L 266.421657 160.732758 
L 266.729658 158.838132 
L 267.04161 156.943507 
L 267.352519 155.048881 
L 267.658226 153.154256 
L 267.955381 151.25963 
L 268.241374 149.365004 
L 268.514279 147.470379 
L 268.772811 145.575753 
L 269.01629 143.681128 
L 269.244626 141.786502 
L 269.458288 139.891877 
L 269.658266 137.997251 
L 269.846 136.102626 
L 270.023301 134.208 
L 270.192248 132.313374 
L 270.355083 130.418749 
L 270.514115 128.524123 
L 270.671636 126.629498 
L 270.829856 124.734872 
L 270.990851 122.840247 
L 271.156526 120.945621 
L 271.32858 119.050996 
L 271.508473 117.15637 
L 271.697388 115.261744 
L 271.896195 113.367119 
L 272.105412 111.472493 
L 272.325173 109.577868 
L 272.5552 107.683242 
L 272.7948 105.788617 
L 273.042857 103.893991 
L 273.297855 101.999366 
L 273.557911 100.10474 
L 273.820818 98.210115 
L 274.084118 96.315489 
L 274.345174 94.420863 
L 274.601277 92.526238 
L 274.84975 90.631612 
L 275.088072 88.736987 
L 275.313993 86.842361 
L 275.525643 84.947736 
L 275.721615 83.05311 
L 275.901018 81.158485 
L 276.063487 79.263859 
L 276.209163 77.369233 
L 276.338626 75.474608 
L 276.452805 73.579982 
L 276.552875 71.685357 
L 277.681139 71.685357 
L 277.681139 71.685357 
L 277.781209 73.579982 
L 277.895389 75.474608 
L 278.024851 77.369233 
L 278.170527 79.263859 
L 278.332997 81.158485 
L 278.512399 83.05311 
L 278.708372 84.947736 
L 278.920022 86.842361 
L 279.145943 88.736987 
L 279.384265 90.631612 
L 279.632738 92.526238 
L 279.88884 94.420863 
L 280.149897 96.315489 
L 280.413196 98.210115 
L 280.676104 100.10474 
L 280.93616 101.999366 
L 281.191158 103.893991 
L 281.439215 105.788617 
L 281.678814 107.683242 
L 281.908842 109.577868 
L 282.128602 111.472493 
L 282.337819 113.367119 
L 282.536626 115.261744 
L 282.725542 117.15637 
L 282.905434 119.050996 
L 283.077489 120.945621 
L 283.243164 122.840247 
L 283.404159 124.734872 
L 283.562379 126.629498 
L 283.7199 128.524123 
L 283.878932 130.418749 
L 284.041766 132.313374 
L 284.210713 134.208 
L 284.388015 136.102626 
L 284.575749 137.997251 
L 284.775726 139.891877 
L 284.989389 141.786502 
L 285.217725 143.681128 
L 285.461204 145.575753 
L 285.719735 147.470379 
L 285.992641 149.365004 
L 286.278633 151.25963 
L 286.575788 153.154256 
L 286.881496 155.048881 
L 287.192404 156.943507 
L 287.504356 158.838132 
L 287.812357 160.732758 
L 288.110608 162.627383 
L 288.392629 164.522009 
L 288.651527 166.416634 
L 288.880377 168.31126 
L 289.072733 170.205885 
L 289.223194 172.100511 
L 289.327965 173.995137 
L 289.385325 175.889762 
L 289.395924 177.784388 
L 289.362847 179.679013 
L 289.291418 181.573639 
L 289.188754 183.468264 
L 289.063122 185.36289 
L 288.923182 187.257515 
L 288.777203 189.152141 
L 288.632353 191.046767 
L 288.494144 192.941392 
L 288.366061 194.836018 
L 288.249417 196.730643 
L 288.143398 198.625269 
L 288.045271 200.519894 
L 287.950705 202.41452 
L 287.854154 204.309145 
L 287.74926 206.203771 
L 287.629261 208.098396 
L 287.487378 209.993022 
L 287.317194 211.887648 
L 287.11302 213.782273 
L 286.87025 215.676899 
L 286.585705 217.571524 
L 286.257926 219.46615 
L 285.887406 221.360775 
L 285.476704 223.255401 
L 285.030426 225.150026 
L 284.555035 227.044652 
L 284.058498 228.939278 
L 283.549791 230.833903 
L 283.038299 232.728529 
L 282.533189 234.623154 
L 282.042803 236.51778 
L 281.574163 238.412405 
L 281.132619 240.307031 
L 280.721686 242.201656 
L 280.343066 244.096282 
L 279.996836 245.990907 
L 279.681763 247.885533 
L 279.395695 249.780159 
L 279.135963 251.674784 
L 278.899762 253.56941 
L 278.684448 255.464035 
L 278.487752 257.358661 
L 278.307888 259.253286 
z
" clip-path="url(#pc0d9effdd6)" style="fill: #1f77b4; fill-opacity: 0.3"/>
   </g>
   <g id="PolyCollection_9">
    <path d="M 305.653994 268.844828 
L 303.152982 268.844828 
L 302.937492 266.993262 
L 302.702129 265.141696 
L 302.447868 263.290131 
L 302.175954 261.438565 
L 301.887814 259.586999 
L 301.584985 257.735433 
L 301.269062 255.883867 
L 300.941686 254.032301 
L 300.604586 252.180735 
L 300.25965 250.329169 
L 299.909024 248.477604 
L 299.555208 246.626038 
L 299.201107 244.774472 
L 298.850023 242.922906 
L 298.505549 241.07134 
L 298.171353 239.219774 
L 297.85088 237.368208 
L 297.546979 235.516642 
L 297.261517 233.665076 
L 296.995034 231.813511 
L 296.746504 229.961945 
L 296.513255 228.110379 
L 296.291083 226.258813 
L 296.07458 224.407247 
L 295.857638 222.555681 
L 295.634105 220.704115 
L 295.398503 218.852549 
L 295.146731 217.000984 
L 294.87666 215.149418 
L 294.588553 213.297852 
L 294.285241 211.446286 
L 293.972042 209.59472 
L 293.656424 207.743154 
L 293.347442 205.891588 
L 293.055031 204.040022 
L 292.78921 202.188457 
L 292.559293 200.336891 
L 292.373175 198.485325 
L 292.236762 196.633759 
L 292.153577 194.782193 
L 292.124572 192.930627 
L 292.148131 191.079061 
L 292.220272 189.227495 
L 292.334995 187.37593 
L 292.484763 185.524364 
L 292.661065 183.672798 
L 292.855043 181.821232 
L 293.058121 179.969666 
L 293.262613 178.1181 
L 293.462263 176.266534 
L 293.652667 174.414968 
L 293.831545 172.563402 
L 293.998827 170.711837 
L 294.15653 168.860271 
L 294.308436 167.008705 
L 294.459578 165.157139 
L 294.615609 163.305573 
L 294.782084 161.454007 
L 294.963768 159.602441 
L 295.164024 157.750875 
L 295.384369 155.89931 
L 295.62424 154.047744 
L 295.881004 152.196178 
L 296.150207 150.344612 
L 296.426028 148.493046 
L 296.701888 146.64148 
L 296.971134 144.789914 
L 297.22773 142.938348 
L 297.46686 141.086783 
L 297.6854 139.235217 
L 297.882197 137.383651 
L 298.058139 135.532085 
L 298.216019 133.680519 
L 298.36022 131.828953 
L 298.496261 129.977387 
L 298.630263 128.125821 
L 298.768394 126.274256 
L 298.916353 124.42269 
L 299.07893 122.571124 
L 299.259682 120.719558 
L 299.460738 118.867992 
L 299.682728 117.016426 
L 299.924837 115.16486 
L 300.184949 113.313294 
L 300.459869 111.461728 
L 300.745588 109.610163 
L 301.03757 107.758597 
L 301.33105 105.907031 
L 301.62131 104.055465 
L 301.903928 102.203899 
L 302.174992 100.352333 
L 302.431251 98.500767 
L 302.670227 96.649201 
L 302.890249 94.797636 
L 303.090445 92.94607 
L 303.27067 91.094504 
L 303.431399 89.242938 
L 303.573592 87.391372 
L 303.698545 85.539806 
L 305.10843 85.539806 
L 305.10843 85.539806 
L 305.233384 87.391372 
L 305.375577 89.242938 
L 305.536306 91.094504 
L 305.71653 92.94607 
L 305.916726 94.797636 
L 306.136749 96.649201 
L 306.375724 98.500767 
L 306.631984 100.352333 
L 306.903047 102.203899 
L 307.185666 104.055465 
L 307.475926 105.907031 
L 307.769406 107.758597 
L 308.061388 109.610163 
L 308.347106 111.461728 
L 308.622027 113.313294 
L 308.882139 115.16486 
L 309.124248 117.016426 
L 309.346238 118.867992 
L 309.547293 120.719558 
L 309.728046 122.571124 
L 309.890623 124.42269 
L 310.038582 126.274256 
L 310.176713 128.125821 
L 310.310714 129.977387 
L 310.446755 131.828953 
L 310.590957 133.680519 
L 310.748837 135.532085 
L 310.924779 137.383651 
L 311.121576 139.235217 
L 311.340116 141.086783 
L 311.579245 142.938348 
L 311.835841 144.789914 
L 312.105088 146.64148 
L 312.380948 148.493046 
L 312.656769 150.344612 
L 312.925971 152.196178 
L 313.182735 154.047744 
L 313.422606 155.89931 
L 313.642951 157.750875 
L 313.843208 159.602441 
L 314.024892 161.454007 
L 314.191367 163.305573 
L 314.347397 165.157139 
L 314.49854 167.008705 
L 314.650445 168.860271 
L 314.808149 170.711837 
L 314.975431 172.563402 
L 315.154309 174.414968 
L 315.344713 176.266534 
L 315.544362 178.1181 
L 315.748855 179.969666 
L 315.951932 181.821232 
L 316.145911 183.672798 
L 316.322213 185.524364 
L 316.47198 187.37593 
L 316.586704 189.227495 
L 316.658845 191.079061 
L 316.682404 192.930627 
L 316.653398 194.782193 
L 316.570214 196.633759 
L 316.433801 198.485325 
L 316.247683 200.336891 
L 316.017766 202.188457 
L 315.751945 204.040022 
L 315.459534 205.891588 
L 315.150552 207.743154 
L 314.834933 209.59472 
L 314.521735 211.446286 
L 314.218423 213.297852 
L 313.930316 215.149418 
L 313.660245 217.000984 
L 313.408472 218.852549 
L 313.172871 220.704115 
L 312.949338 222.555681 
L 312.732395 224.407247 
L 312.515892 226.258813 
L 312.293721 228.110379 
L 312.060472 229.961945 
L 311.811942 231.813511 
L 311.545459 233.665076 
L 311.259997 235.516642 
L 310.956096 237.368208 
L 310.635623 239.219774 
L 310.301427 241.07134 
L 309.956952 242.922906 
L 309.605869 244.774472 
L 309.251768 246.626038 
L 308.897951 248.477604 
L 308.547326 250.329169 
L 308.20239 252.180735 
L 307.86529 254.032301 
L 307.537914 255.883867 
L 307.22199 257.735433 
L 306.919162 259.586999 
L 306.631022 261.438565 
L 306.359108 263.290131 
L 306.104847 265.141696 
L 305.869484 266.993262 
L 305.653994 268.844828 
z
" clip-path="url(#pc0d9effdd6)" style="fill: #1f77b4; fill-opacity: 0.3"/>
   </g>
   <g id="PolyCollection_10">
    <path d="M 333.636251 263.516194 
L 329.743685 263.516194 
L 329.448859 261.589274 
L 329.133728 259.662353 
L 328.800269 257.735433 
L 328.450747 255.808513 
L 328.087664 253.881592 
L 327.713724 251.954672 
L 327.331816 250.027752 
L 326.944991 248.100831 
L 326.556444 246.173911 
L 326.169461 244.246991 
L 325.787348 242.32007 
L 325.413302 240.39315 
L 325.050258 238.46623 
L 324.700698 236.53931 
L 324.366452 234.612389 
L 324.048528 232.685469 
L 323.746982 230.758549 
L 323.460883 228.831628 
L 323.188367 226.904708 
L 322.926809 224.977788 
L 322.673098 223.050867 
L 322.423994 221.123947 
L 322.176527 219.197027 
L 321.928401 217.270107 
L 321.678347 215.343186 
L 321.42638 213.416266 
L 321.173925 211.489346 
L 320.923786 209.562425 
L 320.679948 207.635505 
L 320.447228 205.708585 
L 320.230808 203.781664 
L 320.035685 201.854744 
L 319.866122 199.927824 
L 319.725137 198.000903 
L 319.614116 196.073983 
L 319.532594 194.147063 
L 319.478241 192.220143 
L 319.44707 190.293222 
L 319.433845 188.366302 
L 319.432654 186.439382 
L 319.43758 184.512461 
L 319.443392 182.585541 
L 319.446168 180.658621 
L 319.443775 178.7317 
L 319.43614 176.80478 
L 319.425288 174.87786 
L 319.415133 172.95094 
L 319.411052 171.024019 
L 319.419313 169.097099 
L 319.446412 167.170179 
L 319.498421 165.243258 
L 319.580409 163.316338 
L 319.696018 161.389418 
L 319.847211 159.462497 
L 320.034216 157.535577 
L 320.255641 155.608657 
L 320.508729 153.681736 
L 320.789694 151.754816 
L 321.094088 149.827896 
L 321.417149 147.900976 
L 321.7541 145.974055 
L 322.100379 144.047135 
L 322.451793 142.120215 
L 322.804618 140.193294 
L 323.155656 138.266374 
L 323.502258 136.339454 
L 323.842343 134.412533 
L 324.174402 132.485613 
L 324.497499 130.558693 
L 324.811247 128.631773 
L 325.115757 126.704852 
L 325.411554 124.777932 
L 325.699455 122.851012 
L 325.980417 120.924091 
L 326.255361 118.997171 
L 326.52501 117.070251 
L 326.789741 115.14333 
L 327.049483 113.21641 
L 327.303676 111.28949 
L 327.551296 109.362569 
L 327.790945 107.435649 
L 328.020996 105.508729 
L 328.239777 103.581809 
L 328.445768 101.654888 
L 328.637794 99.727968 
L 328.815187 97.801048 
L 328.977898 95.874127 
L 329.126549 93.947207 
L 329.262421 92.020287 
L 329.387368 90.093366 
L 329.503684 88.166446 
L 329.613917 86.239526 
L 329.720666 84.312606 
L 329.82636 82.385685 
L 329.93307 80.458765 
L 330.042339 78.531845 
L 330.155075 76.604924 
L 330.271495 74.678004 
L 330.391142 72.751084 
L 332.988795 72.751084 
L 332.988795 72.751084 
L 333.108441 74.678004 
L 333.224862 76.604924 
L 333.337598 78.531845 
L 333.446867 80.458765 
L 333.553577 82.385685 
L 333.659271 84.312606 
L 333.766019 86.239526 
L 333.876253 88.166446 
L 333.992569 90.093366 
L 334.117516 92.020287 
L 334.253387 93.947207 
L 334.402039 95.874127 
L 334.56475 97.801048 
L 334.742143 99.727968 
L 334.934169 101.654888 
L 335.14016 103.581809 
L 335.358941 105.508729 
L 335.588992 107.435649 
L 335.828641 109.362569 
L 336.076261 111.28949 
L 336.330454 113.21641 
L 336.590195 115.14333 
L 336.854926 117.070251 
L 337.124576 118.997171 
L 337.39952 120.924091 
L 337.680481 122.851012 
L 337.968383 124.777932 
L 338.26418 126.704852 
L 338.56869 128.631773 
L 338.882437 130.558693 
L 339.205535 132.485613 
L 339.537594 134.412533 
L 339.877678 136.339454 
L 340.22428 138.266374 
L 340.575318 140.193294 
L 340.928144 142.120215 
L 341.279558 144.047135 
L 341.625837 145.974055 
L 341.962788 147.900976 
L 342.285849 149.827896 
L 342.590243 151.754816 
L 342.871208 153.681736 
L 343.124296 155.608657 
L 343.345721 157.535577 
L 343.532725 159.462497 
L 343.683919 161.389418 
L 343.799528 163.316338 
L 343.881516 165.243258 
L 343.933524 167.170179 
L 343.960624 169.097099 
L 343.968885 171.024019 
L 343.964804 172.95094 
L 343.954649 174.87786 
L 343.943797 176.80478 
L 343.936162 178.7317 
L 343.933768 180.658621 
L 343.936545 182.585541 
L 343.942357 184.512461 
L 343.947283 186.439382 
L 343.946092 188.366302 
L 343.932867 190.293222 
L 343.901696 192.220143 
L 343.847343 194.147063 
L 343.765821 196.073983 
L 343.654799 198.000903 
L 343.513814 199.927824 
L 343.344251 201.854744 
L 343.149129 203.781664 
L 342.932708 205.708585 
L 342.699989 207.635505 
L 342.456151 209.562425 
L 342.206012 211.489346 
L 341.953557 213.416266 
L 341.70159 215.343186 
L 341.451535 217.270107 
L 341.20341 219.197027 
L 340.955943 221.123947 
L 340.706839 223.050867 
L 340.453128 224.977788 
L 340.19157 226.904708 
L 339.919053 228.831628 
L 339.632954 230.758549 
L 339.331409 232.685469 
L 339.013485 234.612389 
L 338.679239 236.53931 
L 338.329678 238.46623 
L 337.966635 240.39315 
L 337.592589 242.32007 
L 337.210475 244.246991 
L 336.823493 246.173911 
L 336.434945 248.100831 
L 336.048121 250.027752 
L 335.666213 251.954672 
L 335.292273 253.881592 
L 334.929189 255.808513 
L 334.579668 257.735433 
L 334.246209 259.662353 
L 333.931078 261.589274 
L 333.636251 263.516194 
z
" clip-path="url(#pc0d9effdd6)" style="fill: #1f77b4; fill-opacity: 0.3"/>
   </g>
   <g id="PolyCollection_11">
    <path d="M 359.807893 272.042009 
L 358.145004 272.042009 
L 357.987185 269.835201 
L 357.807711 267.628392 
L 357.605497 265.421584 
L 357.379899 263.214776 
L 357.130814 261.007968 
L 356.858744 258.80116 
L 356.564816 256.594352 
L 356.25076 254.387543 
L 355.918834 252.180735 
L 355.571706 249.973927 
L 355.212308 247.767119 
L 354.843667 245.560311 
L 354.468737 243.353503 
L 354.090252 241.146694 
L 353.710596 238.939886 
L 353.331719 236.733078 
L 352.955087 234.52627 
L 352.581673 232.319462 
L 352.211983 230.112654 
L 351.84612 227.905845 
L 351.483873 225.699037 
L 351.124832 223.492229 
L 350.768537 221.285421 
L 350.414639 219.078613 
L 350.063084 216.871805 
L 349.714297 214.664996 
L 349.369349 212.458188 
L 349.030086 210.25138 
L 348.699191 208.044572 
L 348.380157 205.837764 
L 348.077156 203.630956 
L 347.794799 201.424147 
L 347.537806 199.217339 
L 347.310618 197.010531 
L 347.116987 194.803723 
L 346.959607 192.596915 
L 346.839839 190.390107 
L 346.757548 188.183298 
L 346.711106 185.97649 
L 346.697533 183.769682 
L 346.712763 181.562874 
L 346.751997 179.356066 
L 346.810084 177.149258 
L 346.881882 174.942449 
L 346.962565 172.735641 
L 347.047833 170.528833 
L 347.134046 168.322025 
L 347.218269 166.115217 
L 347.298277 163.908408 
L 347.37253 161.7016 
L 347.440159 159.494792 
L 347.500965 157.287984 
L 347.555431 155.081176 
L 347.604741 152.874368 
L 347.650767 150.667559 
L 347.696009 148.460751 
L 347.74347 146.253943 
L 347.796463 144.047135 
L 347.858366 141.840327 
L 347.932355 139.633519 
L 348.021168 137.42671 
L 348.126919 135.219902 
L 348.251025 133.013094 
L 348.394226 130.806286 
L 348.55672 128.599478 
L 348.738357 126.39267 
L 348.938864 124.185861 
L 349.158042 121.979053 
L 349.395888 119.772245 
L 349.652618 117.565437 
L 349.928581 115.358629 
L 350.22408 113.151821 
L 350.539131 110.945012 
L 350.873225 108.738204 
L 351.225122 106.531396 
L 351.592733 104.324588 
L 351.973113 102.11778 
L 352.362565 99.910972 
L 352.756854 97.704163 
L 353.151479 95.497355 
L 353.54199 93.290547 
L 353.924273 91.083739 
L 354.294803 88.876931 
L 354.650803 86.670123 
L 354.990326 84.463314 
L 355.312241 82.256506 
L 355.616149 80.049698 
L 355.902245 77.84289 
L 356.171151 75.636082 
L 356.423749 73.429274 
L 356.661024 71.222465 
L 356.883945 69.015657 
L 357.093368 66.808849 
L 357.28999 64.602041 
L 357.474323 62.395233 
L 357.646708 60.188425 
L 357.807334 57.981616 
L 357.956282 55.774808 
L 358.093572 53.568 
L 359.859326 53.568 
L 359.859326 53.568 
L 359.996615 55.774808 
L 360.145564 57.981616 
L 360.30619 60.188425 
L 360.478575 62.395233 
L 360.662908 64.602041 
L 360.859529 66.808849 
L 361.068953 69.015657 
L 361.291873 71.222465 
L 361.529149 73.429274 
L 361.781747 75.636082 
L 362.050653 77.84289 
L 362.336748 80.049698 
L 362.640656 82.256506 
L 362.962572 84.463314 
L 363.302095 86.670123 
L 363.658095 88.876931 
L 364.028625 91.083739 
L 364.410908 93.290547 
L 364.801419 95.497355 
L 365.196044 97.704163 
L 365.590333 99.910972 
L 365.979785 102.11778 
L 366.360164 104.324588 
L 366.727776 106.531396 
L 367.079673 108.738204 
L 367.413767 110.945012 
L 367.728818 113.151821 
L 368.024316 115.358629 
L 368.30028 117.565437 
L 368.55701 119.772245 
L 368.794856 121.979053 
L 369.014034 124.185861 
L 369.214541 126.39267 
L 369.396178 128.599478 
L 369.558672 130.806286 
L 369.701873 133.013094 
L 369.825978 135.219902 
L 369.93173 137.42671 
L 370.020542 139.633519 
L 370.094532 141.840327 
L 370.156435 144.047135 
L 370.209428 146.253943 
L 370.256889 148.460751 
L 370.302131 150.667559 
L 370.348157 152.874368 
L 370.397467 155.081176 
L 370.451933 157.287984 
L 370.512739 159.494792 
L 370.580368 161.7016 
L 370.654621 163.908408 
L 370.734629 166.115217 
L 370.818852 168.322025 
L 370.905065 170.528833 
L 370.990333 172.735641 
L 371.071016 174.942449 
L 371.142814 177.149258 
L 371.200901 179.356066 
L 371.240135 181.562874 
L 371.255365 183.769682 
L 371.241792 185.97649 
L 371.19535 188.183298 
L 371.113059 190.390107 
L 370.99329 192.596915 
L 370.835911 194.803723 
L 370.642279 197.010531 
L 370.415091 199.217339 
L 370.158099 201.424147 
L 369.875742 203.630956 
L 369.572741 205.837764 
L 369.253707 208.044572 
L 368.922812 210.25138 
L 368.583549 212.458188 
L 368.238601 214.664996 
L 367.889814 216.871805 
L 367.538259 219.078613 
L 367.184361 221.285421 
L 366.828066 223.492229 
L 366.469025 225.699037 
L 366.106778 227.905845 
L 365.740915 230.112654 
L 365.371225 232.319462 
L 364.997811 234.52627 
L 364.621179 236.733078 
L 364.242302 238.939886 
L 363.862646 241.146694 
L 363.484161 243.353503 
L 363.109231 245.560311 
L 362.740589 247.767119 
L 362.381192 249.973927 
L 362.034064 252.180735 
L 361.702138 254.387543 
L 361.388082 256.594352 
L 361.094154 258.80116 
L 360.822084 261.007968 
L 360.572999 263.214776 
L 360.347401 265.421584 
L 360.145187 267.628392 
L 359.965713 269.835201 
L 359.807893 272.042009 
z
" clip-path="url(#pc0d9effdd6)" style="fill: #1f77b4; fill-opacity: 0.3"/>
   </g>
   <g id="PolyCollection_12">
    <path d="M 387.856992 267.779101 
L 384.559721 267.779101 
L 384.345253 266.153599 
L 384.121234 264.528096 
L 383.889898 262.902594 
L 383.653722 261.277091 
L 383.415347 259.651588 
L 383.17746 258.026086 
L 382.942659 256.400583 
L 382.713305 254.77508 
L 382.491367 253.149578 
L 382.278283 251.524075 
L 382.074849 249.898573 
L 381.88116 248.27307 
L 381.696601 246.647567 
L 381.519906 245.022065 
L 381.349275 243.396562 
L 381.182531 241.77106 
L 381.017315 240.145557 
L 380.851271 238.520054 
L 380.682216 236.894552 
L 380.508263 235.269049 
L 380.327893 233.643547 
L 380.13996 232.018044 
L 379.94365 230.392541 
L 379.738408 228.767039 
L 379.523842 227.141536 
L 379.299654 225.516034 
L 379.065589 223.890531 
L 378.821446 222.265028 
L 378.567123 220.639526 
L 378.302717 219.014023 
L 378.028633 217.388521 
L 377.745696 215.763018 
L 377.45524 214.137515 
L 377.159135 212.512013 
L 376.859762 210.88651 
L 376.559925 209.261008 
L 376.262713 207.635505 
L 375.971332 206.010002 
L 375.688949 204.3845 
L 375.418565 202.758997 
L 375.162937 201.133495 
L 374.924585 199.507992 
L 374.705843 197.882489 
L 374.508976 196.256987 
L 374.336307 194.631484 
L 374.190326 193.005982 
L 374.073743 191.380479 
L 373.989461 189.754976 
L 373.940434 188.129474 
L 373.92944 186.503971 
L 373.958755 184.878469 
L 374.029789 183.252966 
L 374.142728 181.627463 
L 374.296224 180.001961 
L 374.487202 178.376458 
L 374.710809 176.750956 
L 374.960539 175.125453 
L 375.228527 173.49995 
L 375.505999 171.874448 
L 375.783835 170.248945 
L 376.053187 168.623443 
L 376.306104 166.99794 
L 376.536084 165.372437 
L 376.738517 163.746935 
L 376.910971 162.121432 
L 377.053304 160.49593 
L 377.167596 158.870427 
L 377.257926 157.244924 
L 377.330006 155.619422 
L 377.390742 153.993919 
L 377.447733 152.368416 
L 377.508778 150.742914 
L 377.581405 149.117411 
L 377.672474 147.491909 
L 377.787849 145.866406 
L 377.932159 144.240903 
L 378.108646 142.615401 
L 378.319088 140.989898 
L 378.5638 139.364396 
L 378.841679 137.738893 
L 379.150318 136.11339 
L 379.486145 134.487888 
L 379.844614 132.862385 
L 380.220419 131.236883 
L 380.60775 129.61138 
L 381.000552 127.985877 
L 381.392812 126.360375 
L 381.778834 124.734872 
L 382.153491 123.10937 
L 382.512447 121.483867 
L 382.852311 119.858364 
L 383.170733 118.232862 
L 383.466412 116.607359 
L 383.739036 114.981857 
L 383.989148 113.356354 
L 384.217957 111.730851 
L 384.427124 110.105349 
L 384.618532 108.479846 
L 384.794084 106.854344 
L 387.622629 106.854344 
L 387.622629 106.854344 
L 387.798181 108.479846 
L 387.989589 110.105349 
L 388.198756 111.730851 
L 388.427565 113.356354 
L 388.677677 114.981857 
L 388.950301 116.607359 
L 389.24598 118.232862 
L 389.564402 119.858364 
L 389.904266 121.483867 
L 390.263222 123.10937 
L 390.637879 124.734872 
L 391.023901 126.360375 
L 391.416161 127.985877 
L 391.808963 129.61138 
L 392.196293 131.236883 
L 392.572099 132.862385 
L 392.930568 134.487888 
L 393.266395 136.11339 
L 393.575034 137.738893 
L 393.852913 139.364396 
L 394.097625 140.989898 
L 394.308067 142.615401 
L 394.484554 144.240903 
L 394.628864 145.866406 
L 394.744239 147.491909 
L 394.835308 149.117411 
L 394.907935 150.742914 
L 394.96898 152.368416 
L 395.025971 153.993919 
L 395.086707 155.619422 
L 395.158787 157.244924 
L 395.249117 158.870427 
L 395.363409 160.49593 
L 395.505742 162.121432 
L 395.678196 163.746935 
L 395.880629 165.372437 
L 396.110609 166.99794 
L 396.363525 168.623443 
L 396.632878 170.248945 
L 396.910714 171.874448 
L 397.188186 173.49995 
L 397.456174 175.125453 
L 397.705904 176.750956 
L 397.929511 178.376458 
L 398.120489 180.001961 
L 398.273985 181.627463 
L 398.386924 183.252966 
L 398.457958 184.878469 
L 398.487273 186.503971 
L 398.476279 188.129474 
L 398.427252 189.754976 
L 398.342969 191.380479 
L 398.226387 193.005982 
L 398.080406 194.631484 
L 397.907737 196.256987 
L 397.71087 197.882489 
L 397.492128 199.507992 
L 397.253776 201.133495 
L 396.998148 202.758997 
L 396.727764 204.3845 
L 396.445381 206.010002 
L 396.154 207.635505 
L 395.856788 209.261008 
L 395.556951 210.88651 
L 395.257578 212.512013 
L 394.961473 214.137515 
L 394.671017 215.763018 
L 394.38808 217.388521 
L 394.113996 219.014023 
L 393.84959 220.639526 
L 393.595267 222.265028 
L 393.351124 223.890531 
L 393.117059 225.516034 
L 392.892871 227.141536 
L 392.678305 228.767039 
L 392.473063 230.392541 
L 392.276753 232.018044 
L 392.08882 233.643547 
L 391.90845 235.269049 
L 391.734497 236.894552 
L 391.565442 238.520054 
L 391.399398 240.145557 
L 391.234182 241.77106 
L 391.067438 243.396562 
L 390.896807 245.022065 
L 390.720112 246.647567 
L 390.535553 248.27307 
L 390.341864 249.898573 
L 390.13843 251.524075 
L 389.925346 253.149578 
L 389.703407 254.77508 
L 389.474054 256.400583 
L 389.239253 258.026086 
L 389.001366 259.651588 
L 388.762991 261.277091 
L 388.526815 262.902594 
L 388.295479 264.528096 
L 388.07146 266.153599 
L 387.856992 267.779101 
z
" clip-path="url(#pc0d9effdd6)" style="fill: #1f77b4; fill-opacity: 0.3"/>
   </g>
   <g id="matplotlib.axis_1">
    <g id="xtick_1">
     <g id="line2d_1">
      <defs>
       <path id="mb6c95308fa" d="M 0 0 
L 0 3.5 
" style="stroke: #000000; stroke-width: 0.8"/>
      </defs>
      <g>
       <use xlink:href="#mb6c95308fa" x="58.825163" y="307.584" style="stroke: #000000; stroke-width: 0.8"/>
      </g>
     </g>
     <g id="text_1">
      <!-- 0 -->
      <g transform="translate(55.643913 322.182437)scale(0.1 -0.1)">
       <defs>
        <path id="DejaVuSans-30" d="M 2034 4250 
Q 1547 4250 1301 3770 
Q 1056 3291 1056 2328 
Q 1056 1369 1301 889 
Q 1547 409 2034 409 
Q 2525 409 2770 889 
Q 3016 1369 3016 2328 
Q 3016 3291 2770 3770 
Q 2525 4250 2034 4250 
z
M 2034 4750 
Q 2819 4750 3233 4129 
Q 3647 3509 3647 2328 
Q 3647 1150 3233 529 
Q 2819 -91 2034 -91 
Q 1250 -91 836 529 
Q 422 1150 422 2328 
Q 422 3509 836 4129 
Q 1250 4750 2034 4750 
z
" transform="scale(0.015625)"/>
       </defs>
       <use xlink:href="#DejaVuSans-30"/>
      </g>
     </g>
    </g>
    <g id="xtick_2">
     <g id="line2d_2">
      <g>
       <use xlink:href="#mb6c95308fa" x="113.398124" y="307.584" style="stroke: #000000; stroke-width: 0.8"/>
      </g>
     </g>
     <g id="text_2">
      <!-- 1000 -->
      <g transform="translate(100.673124 322.182437)scale(0.1 -0.1)">
       <defs>
        <path id="DejaVuSans-31" d="M 794 531 
L 1825 531 
L 1825 4091 
L 703 3866 
L 703 4441 
L 1819 4666 
L 2450 4666 
L 2450 531 
L 3481 531 
L 3481 0 
L 794 0 
L 794 531 
z
" transform="scale(0.015625)"/>
       </defs>
       <use xlink:href="#DejaVuSans-31"/>
       <use xlink:href="#DejaVuSans-30" x="63.623047"/>
       <use xlink:href="#DejaVuSans-30" x="127.246094"/>
       <use xlink:href="#DejaVuSans-30" x="190.869141"/>
      </g>
     </g>
    </g>
    <g id="xtick_3">
     <g id="line2d_3">
      <g>
       <use xlink:href="#mb6c95308fa" x="167.971085" y="307.584" style="stroke: #000000; stroke-width: 0.8"/>
      </g>
     </g>
     <g id="text_3">
      <!-- 2000 -->
      <g transform="translate(155.246085 322.182437)scale(0.1 -0.1)">
       <defs>
        <path id="DejaVuSans-32" d="M 1228 531 
L 3431 531 
L 3431 0 
L 469 0 
L 469 531 
Q 828 903 1448 1529 
Q 2069 2156 2228 2338 
Q 2531 2678 2651 2914 
Q 2772 3150 2772 3378 
Q 2772 3750 2511 3984 
Q 2250 4219 1831 4219 
Q 1534 4219 1204 4116 
Q 875 4013 500 3803 
L 500 4441 
Q 881 4594 1212 4672 
Q 1544 4750 1819 4750 
Q 2544 4750 2975 4387 
Q 3406 4025 3406 3419 
Q 3406 3131 3298 2873 
Q 3191 2616 2906 2266 
Q 2828 2175 2409 1742 
Q 1991 1309 1228 531 
z
" transform="scale(0.015625)"/>
       </defs>
       <use xlink:href="#DejaVuSans-32"/>
       <use xlink:href="#DejaVuSans-30" x="63.623047"/>
       <use xlink:href="#DejaVuSans-30" x="127.246094"/>
       <use xlink:href="#DejaVuSans-30" x="190.869141"/>
      </g>
     </g>
    </g>
    <g id="xtick_4">
     <g id="line2d_4">
      <g>
       <use xlink:href="#mb6c95308fa" x="222.544046" y="307.584" style="stroke: #000000; stroke-width: 0.8"/>
      </g>
     </g>
     <g id="text_4">
      <!-- 3000 -->
      <g transform="translate(209.819046 322.182437)scale(0.1 -0.1)">
       <defs>
        <path id="DejaVuSans-33" d="M 2597 2516 
Q 3050 2419 3304 2112 
Q 3559 1806 3559 1356 
Q 3559 666 3084 287 
Q 2609 -91 1734 -91 
Q 1441 -91 1130 -33 
Q 819 25 488 141 
L 488 750 
Q 750 597 1062 519 
Q 1375 441 1716 441 
Q 2309 441 2620 675 
Q 2931 909 2931 1356 
Q 2931 1769 2642 2001 
Q 2353 2234 1838 2234 
L 1294 2234 
L 1294 2753 
L 1863 2753 
Q 2328 2753 2575 2939 
Q 2822 3125 2822 3475 
Q 2822 3834 2567 4026 
Q 2313 4219 1838 4219 
Q 1578 4219 1281 4162 
Q 984 4106 628 3988 
L 628 4550 
Q 988 4650 1302 4700 
Q 1616 4750 1894 4750 
Q 2613 4750 3031 4423 
Q 3450 4097 3450 3541 
Q 3450 3153 3228 2886 
Q 3006 2619 2597 2516 
z
" transform="scale(0.015625)"/>
       </defs>
       <use xlink:href="#DejaVuSans-33"/>
       <use xlink:href="#DejaVuSans-30" x="63.623047"/>
       <use xlink:href="#DejaVuSans-30" x="127.246094"/>
       <use xlink:href="#DejaVuSans-30" x="190.869141"/>
      </g>
     </g>
    </g>
    <g id="xtick_5">
     <g id="line2d_5">
      <g>
       <use xlink:href="#mb6c95308fa" x="277.117007" y="307.584" style="stroke: #000000; stroke-width: 0.8"/>
      </g>
     </g>
     <g id="text_5">
      <!-- 4000 -->
      <g transform="translate(264.392007 322.182437)scale(0.1 -0.1)">
       <defs>
        <path id="DejaVuSans-34" d="M 2419 4116 
L 825 1625 
L 2419 1625 
L 2419 4116 
z
M 2253 4666 
L 3047 4666 
L 3047 1625 
L 3713 1625 
L 3713 1100 
L 3047 1100 
L 3047 0 
L 2419 0 
L 2419 1100 
L 313 1100 
L 313 1709 
L 2253 4666 
z
" transform="scale(0.015625)"/>
       </defs>
       <use xlink:href="#DejaVuSans-34"/>
       <use xlink:href="#DejaVuSans-30" x="63.623047"/>
       <use xlink:href="#DejaVuSans-30" x="127.246094"/>
       <use xlink:href="#DejaVuSans-30" x="190.869141"/>
      </g>
     </g>
    </g>
    <g id="xtick_6">
     <g id="line2d_6">
      <g>
       <use xlink:href="#mb6c95308fa" x="331.689968" y="307.584" style="stroke: #000000; stroke-width: 0.8"/>
      </g>
     </g>
     <g id="text_6">
      <!-- 5000 -->
      <g transform="translate(318.964968 322.182437)scale(0.1 -0.1)">
       <defs>
        <path id="DejaVuSans-35" d="M 691 4666 
L 3169 4666 
L 3169 4134 
L 1269 4134 
L 1269 2991 
Q 1406 3038 1543 3061 
Q 1681 3084 1819 3084 
Q 2600 3084 3056 2656 
Q 3513 2228 3513 1497 
Q 3513 744 3044 326 
Q 2575 -91 1722 -91 
Q 1428 -91 1123 -41 
Q 819 9 494 109 
L 494 744 
Q 775 591 1075 516 
Q 1375 441 1709 441 
Q 2250 441 2565 725 
Q 2881 1009 2881 1497 
Q 2881 1984 2565 2268 
Q 2250 2553 1709 2553 
Q 1456 2553 1204 2497 
Q 953 2441 691 2322 
L 691 4666 
z
" transform="scale(0.015625)"/>
       </defs>
       <use xlink:href="#DejaVuSans-35"/>
       <use xlink:href="#DejaVuSans-30" x="63.623047"/>
       <use xlink:href="#DejaVuSans-30" x="127.246094"/>
       <use xlink:href="#DejaVuSans-30" x="190.869141"/>
      </g>
     </g>
    </g>
    <g id="xtick_7">
     <g id="line2d_7">
      <g>
       <use xlink:href="#mb6c95308fa" x="386.262929" y="307.584" style="stroke: #000000; stroke-width: 0.8"/>
      </g>
     </g>
     <g id="text_7">
      <!-- 6000 -->
      <g transform="translate(373.537929 322.182437)scale(0.1 -0.1)">
       <defs>
        <path id="DejaVuSans-36" d="M 2113 2584 
Q 1688 2584 1439 2293 
Q 1191 2003 1191 1497 
Q 1191 994 1439 701 
Q 1688 409 2113 409 
Q 2538 409 2786 701 
Q 3034 994 3034 1497 
Q 3034 2003 2786 2293 
Q 2538 2584 2113 2584 
z
M 3366 4563 
L 3366 3988 
Q 3128 4100 2886 4159 
Q 2644 4219 2406 4219 
Q 1781 4219 1451 3797 
Q 1122 3375 1075 2522 
Q 1259 2794 1537 2939 
Q 1816 3084 2150 3084 
Q 2853 3084 3261 2657 
Q 3669 2231 3669 1497 
Q 3669 778 3244 343 
Q 2819 -91 2113 -91 
Q 1303 -91 875 529 
Q 447 1150 447 2328 
Q 447 3434 972 4092 
Q 1497 4750 2381 4750 
Q 2619 4750 2861 4703 
Q 3103 4656 3366 4563 
z
" transform="scale(0.015625)"/>
       </defs>
       <use xlink:href="#DejaVuSans-36"/>
       <use xlink:href="#DejaVuSans-30" x="63.623047"/>
       <use xlink:href="#DejaVuSans-30" x="127.246094"/>
       <use xlink:href="#DejaVuSans-30" x="190.869141"/>
      </g>
     </g>
    </g>
    <g id="text_8">
     <!-- Learned Episodes -->
     <g transform="translate(192.102187 335.860562)scale(0.1 -0.1)">
      <defs>
       <path id="DejaVuSans-4c" d="M 628 4666 
L 1259 4666 
L 1259 531 
L 3531 531 
L 3531 0 
L 628 0 
L 628 4666 
z
" transform="scale(0.015625)"/>
       <path id="DejaVuSans-65" d="M 3597 1894 
L 3597 1613 
L 953 1613 
Q 991 1019 1311 708 
Q 1631 397 2203 397 
Q 2534 397 2845 478 
Q 3156 559 3463 722 
L 3463 178 
Q 3153 47 2828 -22 
Q 2503 -91 2169 -91 
Q 1331 -91 842 396 
Q 353 884 353 1716 
Q 353 2575 817 3079 
Q 1281 3584 2069 3584 
Q 2775 3584 3186 3129 
Q 3597 2675 3597 1894 
z
M 3022 2063 
Q 3016 2534 2758 2815 
Q 2500 3097 2075 3097 
Q 1594 3097 1305 2825 
Q 1016 2553 972 2059 
L 3022 2063 
z
" transform="scale(0.015625)"/>
       <path id="DejaVuSans-61" d="M 2194 1759 
Q 1497 1759 1228 1600 
Q 959 1441 959 1056 
Q 959 750 1161 570 
Q 1363 391 1709 391 
Q 2188 391 2477 730 
Q 2766 1069 2766 1631 
L 2766 1759 
L 2194 1759 
z
M 3341 1997 
L 3341 0 
L 2766 0 
L 2766 531 
Q 2569 213 2275 61 
Q 1981 -91 1556 -91 
Q 1019 -91 701 211 
Q 384 513 384 1019 
Q 384 1609 779 1909 
Q 1175 2209 1959 2209 
L 2766 2209 
L 2766 2266 
Q 2766 2663 2505 2880 
Q 2244 3097 1772 3097 
Q 1472 3097 1187 3025 
Q 903 2953 641 2809 
L 641 3341 
Q 956 3463 1253 3523 
Q 1550 3584 1831 3584 
Q 2591 3584 2966 3190 
Q 3341 2797 3341 1997 
z
" transform="scale(0.015625)"/>
       <path id="DejaVuSans-72" d="M 2631 2963 
Q 2534 3019 2420 3045 
Q 2306 3072 2169 3072 
Q 1681 3072 1420 2755 
Q 1159 2438 1159 1844 
L 1159 0 
L 581 0 
L 581 3500 
L 1159 3500 
L 1159 2956 
Q 1341 3275 1631 3429 
Q 1922 3584 2338 3584 
Q 2397 3584 2469 3576 
Q 2541 3569 2628 3553 
L 2631 2963 
z
" transform="scale(0.015625)"/>
       <path id="DejaVuSans-6e" d="M 3513 2113 
L 3513 0 
L 2938 0 
L 2938 2094 
Q 2938 2591 2744 2837 
Q 2550 3084 2163 3084 
Q 1697 3084 1428 2787 
Q 1159 2491 1159 1978 
L 1159 0 
L 581 0 
L 581 3500 
L 1159 3500 
L 1159 2956 
Q 1366 3272 1645 3428 
Q 1925 3584 2291 3584 
Q 2894 3584 3203 3211 
Q 3513 2838 3513 2113 
z
" transform="scale(0.015625)"/>
       <path id="DejaVuSans-64" d="M 2906 2969 
L 2906 4863 
L 3481 4863 
L 3481 0 
L 2906 0 
L 2906 525 
Q 2725 213 2448 61 
Q 2172 -91 1784 -91 
Q 1150 -91 751 415 
Q 353 922 353 1747 
Q 353 2572 751 3078 
Q 1150 3584 1784 3584 
Q 2172 3584 2448 3432 
Q 2725 3281 2906 2969 
z
M 947 1747 
Q 947 1113 1208 752 
Q 1469 391 1925 391 
Q 2381 391 2643 752 
Q 2906 1113 2906 1747 
Q 2906 2381 2643 2742 
Q 2381 3103 1925 3103 
Q 1469 3103 1208 2742 
Q 947 2381 947 1747 
z
" transform="scale(0.015625)"/>
       <path id="DejaVuSans-20" transform="scale(0.015625)"/>
       <path id="DejaVuSans-45" d="M 628 4666 
L 3578 4666 
L 3578 4134 
L 1259 4134 
L 1259 2753 
L 3481 2753 
L 3481 2222 
L 1259 2222 
L 1259 531 
L 3634 531 
L 3634 0 
L 628 0 
L 628 4666 
z
" transform="scale(0.015625)"/>
       <path id="DejaVuSans-70" d="M 1159 525 
L 1159 -1331 
L 581 -1331 
L 581 3500 
L 1159 3500 
L 1159 2969 
Q 1341 3281 1617 3432 
Q 1894 3584 2278 3584 
Q 2916 3584 3314 3078 
Q 3713 2572 3713 1747 
Q 3713 922 3314 415 
Q 2916 -91 2278 -91 
Q 1894 -91 1617 61 
Q 1341 213 1159 525 
z
M 3116 1747 
Q 3116 2381 2855 2742 
Q 2594 3103 2138 3103 
Q 1681 3103 1420 2742 
Q 1159 2381 1159 1747 
Q 1159 1113 1420 752 
Q 1681 391 2138 391 
Q 2594 391 2855 752 
Q 3116 1113 3116 1747 
z
" transform="scale(0.015625)"/>
       <path id="DejaVuSans-69" d="M 603 3500 
L 1178 3500 
L 1178 0 
L 603 0 
L 603 3500 
z
M 603 4863 
L 1178 4863 
L 1178 4134 
L 603 4134 
L 603 4863 
z
" transform="scale(0.015625)"/>
       <path id="DejaVuSans-73" d="M 2834 3397 
L 2834 2853 
Q 2591 2978 2328 3040 
Q 2066 3103 1784 3103 
Q 1356 3103 1142 2972 
Q 928 2841 928 2578 
Q 928 2378 1081 2264 
Q 1234 2150 1697 2047 
L 1894 2003 
Q 2506 1872 2764 1633 
Q 3022 1394 3022 966 
Q 3022 478 2636 193 
Q 2250 -91 1575 -91 
Q 1294 -91 989 -36 
Q 684 19 347 128 
L 347 722 
Q 666 556 975 473 
Q 1284 391 1588 391 
Q 1994 391 2212 530 
Q 2431 669 2431 922 
Q 2431 1156 2273 1281 
Q 2116 1406 1581 1522 
L 1381 1569 
Q 847 1681 609 1914 
Q 372 2147 372 2553 
Q 372 3047 722 3315 
Q 1072 3584 1716 3584 
Q 2034 3584 2315 3537 
Q 2597 3491 2834 3397 
z
" transform="scale(0.015625)"/>
       <path id="DejaVuSans-6f" d="M 1959 3097 
Q 1497 3097 1228 2736 
Q 959 2375 959 1747 
Q 959 1119 1226 758 
Q 1494 397 1959 397 
Q 2419 397 2687 759 
Q 2956 1122 2956 1747 
Q 2956 2369 2687 2733 
Q 2419 3097 1959 3097 
z
M 1959 3584 
Q 2709 3584 3137 3096 
Q 3566 2609 3566 1747 
Q 3566 888 3137 398 
Q 2709 -91 1959 -91 
Q 1206 -91 779 398 
Q 353 888 353 1747 
Q 353 2609 779 3096 
Q 1206 3584 1959 3584 
z
" transform="scale(0.015625)"/>
      </defs>
      <use xlink:href="#DejaVuSans-4c"/>
      <use xlink:href="#DejaVuSans-65" x="53.962891"/>
      <use xlink:href="#DejaVuSans-61" x="115.486328"/>
      <use xlink:href="#DejaVuSans-72" x="176.765625"/>
      <use xlink:href="#DejaVuSans-6e" x="216.128906"/>
      <use xlink:href="#DejaVuSans-65" x="279.507812"/>
      <use xlink:href="#DejaVuSans-64" x="341.03125"/>
      <use xlink:href="#DejaVuSans-20" x="404.507812"/>
      <use xlink:href="#DejaVuSans-45" x="436.294922"/>
      <use xlink:href="#DejaVuSans-70" x="499.478516"/>
      <use xlink:href="#DejaVuSans-69" x="562.955078"/>
      <use xlink:href="#DejaVuSans-73" x="590.738281"/>
      <use xlink:href="#DejaVuSans-6f" x="642.837891"/>
      <use xlink:href="#DejaVuSans-64" x="704.019531"/>
      <use xlink:href="#DejaVuSans-65" x="767.496094"/>
      <use xlink:href="#DejaVuSans-73" x="829.019531"/>
     </g>
    </g>
   </g>
   <g id="matplotlib.axis_2">
    <g id="ytick_1">
     <g id="line2d_8">
      <defs>
       <path id="m9b2e8da940" d="M 0 0 
L -3.5 0 
" style="stroke: #000000; stroke-width: 0.8"/>
      </defs>
      <g>
       <use xlink:href="#m9b2e8da940" x="57.6" y="257.121833" style="stroke: #000000; stroke-width: 0.8"/>
      </g>
     </g>
     <g id="text_9">
      <!-- 50 -->
      <g transform="translate(37.875 260.921051)scale(0.1 -0.1)">
       <use xlink:href="#DejaVuSans-35"/>
       <use xlink:href="#DejaVuSans-30" x="63.623047"/>
      </g>
     </g>
    </g>
    <g id="ytick_2">
     <g id="line2d_9">
      <g>
       <use xlink:href="#m9b2e8da940" x="57.6" y="203.835489" style="stroke: #000000; stroke-width: 0.8"/>
      </g>
     </g>
     <g id="text_10">
      <!-- 100 -->
      <g transform="translate(31.5125 207.634708)scale(0.1 -0.1)">
       <use xlink:href="#DejaVuSans-31"/>
       <use xlink:href="#DejaVuSans-30" x="63.623047"/>
       <use xlink:href="#DejaVuSans-30" x="127.246094"/>
      </g>
     </g>
    </g>
    <g id="ytick_3">
     <g id="line2d_10">
      <g>
       <use xlink:href="#m9b2e8da940" x="57.6" y="150.549145" style="stroke: #000000; stroke-width: 0.8"/>
      </g>
     </g>
     <g id="text_11">
      <!-- 150 -->
      <g transform="translate(31.5125 154.348364)scale(0.1 -0.1)">
       <use xlink:href="#DejaVuSans-31"/>
       <use xlink:href="#DejaVuSans-35" x="63.623047"/>
       <use xlink:href="#DejaVuSans-30" x="127.246094"/>
      </g>
     </g>
    </g>
    <g id="ytick_4">
     <g id="line2d_11">
      <g>
       <use xlink:href="#m9b2e8da940" x="57.6" y="97.262802" style="stroke: #000000; stroke-width: 0.8"/>
      </g>
     </g>
     <g id="text_12">
      <!-- 200 -->
      <g transform="translate(31.5125 101.062021)scale(0.1 -0.1)">
       <use xlink:href="#DejaVuSans-32"/>
       <use xlink:href="#DejaVuSans-30" x="63.623047"/>
       <use xlink:href="#DejaVuSans-30" x="127.246094"/>
      </g>
     </g>
    </g>
    <g id="ytick_5">
     <g id="line2d_12">
      <g>
       <use xlink:href="#m9b2e8da940" x="57.6" y="43.976458" style="stroke: #000000; stroke-width: 0.8"/>
      </g>
     </g>
     <g id="text_13">
      <!-- 250 -->
      <g transform="translate(31.5125 47.775677)scale(0.1 -0.1)">
       <use xlink:href="#DejaVuSans-32"/>
       <use xlink:href="#DejaVuSans-35" x="63.623047"/>
       <use xlink:href="#DejaVuSans-30" x="127.246094"/>
      </g>
     </g>
    </g>
    <g id="text_14">
     <!-- Reward Density -->
     <g transform="translate(25.432812 213.74675)rotate(-90)scale(0.1 -0.1)">
      <defs>
       <path id="DejaVuSans-52" d="M 2841 2188 
Q 3044 2119 3236 1894 
Q 3428 1669 3622 1275 
L 4263 0 
L 3584 0 
L 2988 1197 
Q 2756 1666 2539 1819 
Q 2322 1972 1947 1972 
L 1259 1972 
L 1259 0 
L 628 0 
L 628 4666 
L 2053 4666 
Q 2853 4666 3247 4331 
Q 3641 3997 3641 3322 
Q 3641 2881 3436 2590 
Q 3231 2300 2841 2188 
z
M 1259 4147 
L 1259 2491 
L 2053 2491 
Q 2509 2491 2742 2702 
Q 2975 2913 2975 3322 
Q 2975 3731 2742 3939 
Q 2509 4147 2053 4147 
L 1259 4147 
z
" transform="scale(0.015625)"/>
       <path id="DejaVuSans-77" d="M 269 3500 
L 844 3500 
L 1563 769 
L 2278 3500 
L 2956 3500 
L 3675 769 
L 4391 3500 
L 4966 3500 
L 4050 0 
L 3372 0 
L 2619 2869 
L 1863 0 
L 1184 0 
L 269 3500 
z
" transform="scale(0.015625)"/>
       <path id="DejaVuSans-44" d="M 1259 4147 
L 1259 519 
L 2022 519 
Q 2988 519 3436 956 
Q 3884 1394 3884 2338 
Q 3884 3275 3436 3711 
Q 2988 4147 2022 4147 
L 1259 4147 
z
M 628 4666 
L 1925 4666 
Q 3281 4666 3915 4102 
Q 4550 3538 4550 2338 
Q 4550 1131 3912 565 
Q 3275 0 1925 0 
L 628 0 
L 628 4666 
z
" transform="scale(0.015625)"/>
       <path id="DejaVuSans-74" d="M 1172 4494 
L 1172 3500 
L 2356 3500 
L 2356 3053 
L 1172 3053 
L 1172 1153 
Q 1172 725 1289 603 
Q 1406 481 1766 481 
L 2356 481 
L 2356 0 
L 1766 0 
Q 1100 0 847 248 
Q 594 497 594 1153 
L 594 3053 
L 172 3053 
L 172 3500 
L 594 3500 
L 594 4494 
L 1172 4494 
z
" transform="scale(0.015625)"/>
       <path id="DejaVuSans-79" d="M 2059 -325 
Q 1816 -950 1584 -1140 
Q 1353 -1331 966 -1331 
L 506 -1331 
L 506 -850 
L 844 -850 
Q 1081 -850 1212 -737 
Q 1344 -625 1503 -206 
L 1606 56 
L 191 3500 
L 800 3500 
L 1894 763 
L 2988 3500 
L 3597 3500 
L 2059 -325 
z
" transform="scale(0.015625)"/>
      </defs>
      <use xlink:href="#DejaVuSans-52"/>
      <use xlink:href="#DejaVuSans-65" x="64.982422"/>
      <use xlink:href="#DejaVuSans-77" x="126.505859"/>
      <use xlink:href="#DejaVuSans-61" x="208.292969"/>
      <use xlink:href="#DejaVuSans-72" x="269.572266"/>
      <use xlink:href="#DejaVuSans-64" x="308.935547"/>
      <use xlink:href="#DejaVuSans-20" x="372.412109"/>
      <use xlink:href="#DejaVuSans-44" x="404.199219"/>
      <use xlink:href="#DejaVuSans-65" x="481.201172"/>
      <use xlink:href="#DejaVuSans-6e" x="542.724609"/>
      <use xlink:href="#DejaVuSans-73" x="606.103516"/>
      <use xlink:href="#DejaVuSans-69" x="658.203125"/>
      <use xlink:href="#DejaVuSans-74" x="685.986328"/>
      <use xlink:href="#DejaVuSans-79" x="725.195312"/>
     </g>
    </g>
   </g>
   <g id="LineCollection_1">
    <path d="M 79.972185 240.347292 
L 92.251102 240.347292 
" clip-path="url(#pc0d9effdd6)" style="fill: none; stroke: #1f77b4; stroke-width: 1.5"/>
    <path d="M 107.258666 190.871987 
L 119.537582 190.871987 
" clip-path="url(#pc0d9effdd6)" style="fill: none; stroke: #1f77b4; stroke-width: 1.5"/>
    <path d="M 134.545146 172.413598 
L 146.824063 172.413598 
" clip-path="url(#pc0d9effdd6)" style="fill: none; stroke: #1f77b4; stroke-width: 1.5"/>
    <path d="M 161.831627 180.59838 
L 174.110543 180.59838 
" clip-path="url(#pc0d9effdd6)" style="fill: none; stroke: #1f77b4; stroke-width: 1.5"/>
    <path d="M 189.118108 176.825707 
L 201.397024 176.825707 
" clip-path="url(#pc0d9effdd6)" style="fill: none; stroke: #1f77b4; stroke-width: 1.5"/>
    <path d="M 216.404588 174.911662 
L 228.683504 174.911662 
" clip-path="url(#pc0d9effdd6)" style="fill: none; stroke: #1f77b4; stroke-width: 1.5"/>
    <path d="M 243.691069 169.229206 
L 255.969985 169.229206 
" clip-path="url(#pc0d9effdd6)" style="fill: none; stroke: #1f77b4; stroke-width: 1.5"/>
    <path d="M 270.977549 174.574892 
L 283.256465 174.574892 
" clip-path="url(#pc0d9effdd6)" style="fill: none; stroke: #1f77b4; stroke-width: 1.5"/>
    <path d="M 298.26403 183.185965 
L 310.542946 183.185965 
" clip-path="url(#pc0d9effdd6)" style="fill: none; stroke: #1f77b4; stroke-width: 1.5"/>
    <path d="M 325.55051 177.541876 
L 337.829426 177.541876 
" clip-path="url(#pc0d9effdd6)" style="fill: none; stroke: #1f77b4; stroke-width: 1.5"/>
    <path d="M 352.836991 165.068608 
L 365.115907 165.068608 
" clip-path="url(#pc0d9effdd6)" style="fill: none; stroke: #1f77b4; stroke-width: 1.5"/>
    <path d="M 380.068898 185.786339 
L 392.347815 185.786339 
" clip-path="url(#pc0d9effdd6)" style="fill: none; stroke: #1f77b4; stroke-width: 1.5"/>
   </g>
   <g id="LineCollection_2">
    <path d="M 79.972185 166.535048 
L 92.251102 166.535048 
" clip-path="url(#pc0d9effdd6)" style="fill: none; stroke: #1f77b4; stroke-width: 1.5"/>
    <path d="M 107.258666 101.525709 
L 119.537582 101.525709 
" clip-path="url(#pc0d9effdd6)" style="fill: none; stroke: #1f77b4; stroke-width: 1.5"/>
    <path d="M 134.545146 94.065621 
L 146.824063 94.065621 
" clip-path="url(#pc0d9effdd6)" style="fill: none; stroke: #1f77b4; stroke-width: 1.5"/>
    <path d="M 161.831627 79.145445 
L 174.110543 79.145445 
" clip-path="url(#pc0d9effdd6)" style="fill: none; stroke: #1f77b4; stroke-width: 1.5"/>
    <path d="M 189.118108 80.211172 
L 201.397024 80.211172 
" clip-path="url(#pc0d9effdd6)" style="fill: none; stroke: #1f77b4; stroke-width: 1.5"/>
    <path d="M 216.404588 69.553903 
L 228.683504 69.553903 
" clip-path="url(#pc0d9effdd6)" style="fill: none; stroke: #1f77b4; stroke-width: 1.5"/>
    <path d="M 243.691069 55.699454 
L 255.969985 55.699454 
" clip-path="url(#pc0d9effdd6)" style="fill: none; stroke: #1f77b4; stroke-width: 1.5"/>
    <path d="M 270.977549 71.685357 
L 283.256465 71.685357 
" clip-path="url(#pc0d9effdd6)" style="fill: none; stroke: #1f77b4; stroke-width: 1.5"/>
    <path d="M 298.26403 85.539806 
L 310.542946 85.539806 
" clip-path="url(#pc0d9effdd6)" style="fill: none; stroke: #1f77b4; stroke-width: 1.5"/>
    <path d="M 325.55051 72.751084 
L 337.829426 72.751084 
" clip-path="url(#pc0d9effdd6)" style="fill: none; stroke: #1f77b4; stroke-width: 1.5"/>
    <path d="M 352.836991 53.568 
L 365.115907 53.568 
" clip-path="url(#pc0d9effdd6)" style="fill: none; stroke: #1f77b4; stroke-width: 1.5"/>
    <path d="M 380.068898 106.854344 
L 392.347815 106.854344 
" clip-path="url(#pc0d9effdd6)" style="fill: none; stroke: #1f77b4; stroke-width: 1.5"/>
   </g>
   <g id="LineCollection_3">
    <path d="M 79.972185 295.488 
L 92.251102 295.488 
" clip-path="url(#pc0d9effdd6)" style="fill: none; stroke: #1f77b4; stroke-width: 1.5"/>
    <path d="M 107.258666 256.056106 
L 119.537582 256.056106 
" clip-path="url(#pc0d9effdd6)" style="fill: none; stroke: #1f77b4; stroke-width: 1.5"/>
    <path d="M 134.545146 251.793198 
L 146.824063 251.793198 
" clip-path="url(#pc0d9effdd6)" style="fill: none; stroke: #1f77b4; stroke-width: 1.5"/>
    <path d="M 161.831627 253.924652 
L 174.110543 253.924652 
" clip-path="url(#pc0d9effdd6)" style="fill: none; stroke: #1f77b4; stroke-width: 1.5"/>
    <path d="M 189.118108 258.187559 
L 201.397024 258.187559 
" clip-path="url(#pc0d9effdd6)" style="fill: none; stroke: #1f77b4; stroke-width: 1.5"/>
    <path d="M 216.404588 265.647648 
L 228.683504 265.647648 
" clip-path="url(#pc0d9effdd6)" style="fill: none; stroke: #1f77b4; stroke-width: 1.5"/>
    <path d="M 243.691069 253.924652 
L 255.969985 253.924652 
" clip-path="url(#pc0d9effdd6)" style="fill: none; stroke: #1f77b4; stroke-width: 1.5"/>
    <path d="M 270.977549 259.253286 
L 283.256465 259.253286 
" clip-path="url(#pc0d9effdd6)" style="fill: none; stroke: #1f77b4; stroke-width: 1.5"/>
    <path d="M 298.26403 268.844828 
L 310.542946 268.844828 
" clip-path="url(#pc0d9effdd6)" style="fill: none; stroke: #1f77b4; stroke-width: 1.5"/>
    <path d="M 325.55051 263.516194 
L 337.829426 263.516194 
" clip-path="url(#pc0d9effdd6)" style="fill: none; stroke: #1f77b4; stroke-width: 1.5"/>
    <path d="M 352.836991 272.042009 
L 365.115907 272.042009 
" clip-path="url(#pc0d9effdd6)" style="fill: none; stroke: #1f77b4; stroke-width: 1.5"/>
    <path d="M 380.068898 267.779101 
L 392.347815 267.779101 
" clip-path="url(#pc0d9effdd6)" style="fill: none; stroke: #1f77b4; stroke-width: 1.5"/>
   </g>
   <g id="LineCollection_4">
    <path d="M 86.111644 295.488 
L 86.111644 166.535048 
" clip-path="url(#pc0d9effdd6)" style="fill: none; stroke: #1f77b4; stroke-width: 1.5"/>
    <path d="M 113.398124 256.056106 
L 113.398124 101.525709 
" clip-path="url(#pc0d9effdd6)" style="fill: none; stroke: #1f77b4; stroke-width: 1.5"/>
    <path d="M 140.684605 251.793198 
L 140.684605 94.065621 
" clip-path="url(#pc0d9effdd6)" style="fill: none; stroke: #1f77b4; stroke-width: 1.5"/>
    <path d="M 167.971085 253.924652 
L 167.971085 79.145445 
" clip-path="url(#pc0d9effdd6)" style="fill: none; stroke: #1f77b4; stroke-width: 1.5"/>
    <path d="M 195.257566 258.187559 
L 195.257566 80.211172 
" clip-path="url(#pc0d9effdd6)" style="fill: none; stroke: #1f77b4; stroke-width: 1.5"/>
    <path d="M 222.544046 265.647648 
L 222.544046 69.553903 
" clip-path="url(#pc0d9effdd6)" style="fill: none; stroke: #1f77b4; stroke-width: 1.5"/>
    <path d="M 249.830527 253.924652 
L 249.830527 55.699454 
" clip-path="url(#pc0d9effdd6)" style="fill: none; stroke: #1f77b4; stroke-width: 1.5"/>
    <path d="M 277.117007 259.253286 
L 277.117007 71.685357 
" clip-path="url(#pc0d9effdd6)" style="fill: none; stroke: #1f77b4; stroke-width: 1.5"/>
    <path d="M 304.403488 268.844828 
L 304.403488 85.539806 
" clip-path="url(#pc0d9effdd6)" style="fill: none; stroke: #1f77b4; stroke-width: 1.5"/>
    <path d="M 331.689968 263.516194 
L 331.689968 72.751084 
" clip-path="url(#pc0d9effdd6)" style="fill: none; stroke: #1f77b4; stroke-width: 1.5"/>
    <path d="M 358.976449 272.042009 
L 358.976449 53.568 
" clip-path="url(#pc0d9effdd6)" style="fill: none; stroke: #1f77b4; stroke-width: 1.5"/>
    <path d="M 386.208356 267.779101 
L 386.208356 106.854344 
" clip-path="url(#pc0d9effdd6)" style="fill: none; stroke: #1f77b4; stroke-width: 1.5"/>
   </g>
   <g id="line2d_13">
    <path d="M 86.111644 240.347292 
L 113.398124 190.871987 
L 140.684605 172.413598 
L 167.971085 180.59838 
L 195.257566 176.825707 
L 222.544046 174.911662 
L 249.830527 169.229206 
L 277.117007 174.574892 
L 304.403488 183.185965 
L 331.689968 177.541876 
L 358.976449 165.068608 
L 386.208356 185.786339 
" clip-path="url(#pc0d9effdd6)" style="fill: none; stroke: #4682b4; stroke-width: 1.5; stroke-linecap: square"/>
   </g>
   <g id="patch_3">
    <path d="M 57.6 307.584 
L 57.6 41.472 
" style="fill: none; stroke: #000000; stroke-width: 0.8; stroke-linejoin: miter; stroke-linecap: square"/>
   </g>
   <g id="patch_4">
    <path d="M 414.72 307.584 
L 414.72 41.472 
" style="fill: none; stroke: #000000; stroke-width: 0.8; stroke-linejoin: miter; stroke-linecap: square"/>
   </g>
   <g id="patch_5">
    <path d="M 57.6 307.584 
L 414.72 307.584 
" style="fill: none; stroke: #000000; stroke-width: 0.8; stroke-linejoin: miter; stroke-linecap: square"/>
   </g>
   <g id="patch_6">
    <path d="M 57.6 41.472 
L 414.72 41.472 
" style="fill: none; stroke: #000000; stroke-width: 0.8; stroke-linejoin: miter; stroke-linecap: square"/>
   </g>
   <g id="text_15">
    <!-- Violinplot for progress of customer/purchases_new -->
    <g transform="translate(84.319688 35.472)scale(0.12 -0.12)">
     <defs>
      <path id="DejaVuSans-56" d="M 1831 0 
L 50 4666 
L 709 4666 
L 2188 738 
L 3669 4666 
L 4325 4666 
L 2547 0 
L 1831 0 
z
" transform="scale(0.015625)"/>
      <path id="DejaVuSans-6c" d="M 603 4863 
L 1178 4863 
L 1178 0 
L 603 0 
L 603 4863 
z
" transform="scale(0.015625)"/>
      <path id="DejaVuSans-66" d="M 2375 4863 
L 2375 4384 
L 1825 4384 
Q 1516 4384 1395 4259 
Q 1275 4134 1275 3809 
L 1275 3500 
L 2222 3500 
L 2222 3053 
L 1275 3053 
L 1275 0 
L 697 0 
L 697 3053 
L 147 3053 
L 147 3500 
L 697 3500 
L 697 3744 
Q 697 4328 969 4595 
Q 1241 4863 1831 4863 
L 2375 4863 
z
" transform="scale(0.015625)"/>
      <path id="DejaVuSans-67" d="M 2906 1791 
Q 2906 2416 2648 2759 
Q 2391 3103 1925 3103 
Q 1463 3103 1205 2759 
Q 947 2416 947 1791 
Q 947 1169 1205 825 
Q 1463 481 1925 481 
Q 2391 481 2648 825 
Q 2906 1169 2906 1791 
z
M 3481 434 
Q 3481 -459 3084 -895 
Q 2688 -1331 1869 -1331 
Q 1566 -1331 1297 -1286 
Q 1028 -1241 775 -1147 
L 775 -588 
Q 1028 -725 1275 -790 
Q 1522 -856 1778 -856 
Q 2344 -856 2625 -561 
Q 2906 -266 2906 331 
L 2906 616 
Q 2728 306 2450 153 
Q 2172 0 1784 0 
Q 1141 0 747 490 
Q 353 981 353 1791 
Q 353 2603 747 3093 
Q 1141 3584 1784 3584 
Q 2172 3584 2450 3431 
Q 2728 3278 2906 2969 
L 2906 3500 
L 3481 3500 
L 3481 434 
z
" transform="scale(0.015625)"/>
      <path id="DejaVuSans-63" d="M 3122 3366 
L 3122 2828 
Q 2878 2963 2633 3030 
Q 2388 3097 2138 3097 
Q 1578 3097 1268 2742 
Q 959 2388 959 1747 
Q 959 1106 1268 751 
Q 1578 397 2138 397 
Q 2388 397 2633 464 
Q 2878 531 3122 666 
L 3122 134 
Q 2881 22 2623 -34 
Q 2366 -91 2075 -91 
Q 1284 -91 818 406 
Q 353 903 353 1747 
Q 353 2603 823 3093 
Q 1294 3584 2113 3584 
Q 2378 3584 2631 3529 
Q 2884 3475 3122 3366 
z
" transform="scale(0.015625)"/>
      <path id="DejaVuSans-75" d="M 544 1381 
L 544 3500 
L 1119 3500 
L 1119 1403 
Q 1119 906 1312 657 
Q 1506 409 1894 409 
Q 2359 409 2629 706 
Q 2900 1003 2900 1516 
L 2900 3500 
L 3475 3500 
L 3475 0 
L 2900 0 
L 2900 538 
Q 2691 219 2414 64 
Q 2138 -91 1772 -91 
Q 1169 -91 856 284 
Q 544 659 544 1381 
z
M 1991 3584 
L 1991 3584 
z
" transform="scale(0.015625)"/>
      <path id="DejaVuSans-6d" d="M 3328 2828 
Q 3544 3216 3844 3400 
Q 4144 3584 4550 3584 
Q 5097 3584 5394 3201 
Q 5691 2819 5691 2113 
L 5691 0 
L 5113 0 
L 5113 2094 
Q 5113 2597 4934 2840 
Q 4756 3084 4391 3084 
Q 3944 3084 3684 2787 
Q 3425 2491 3425 1978 
L 3425 0 
L 2847 0 
L 2847 2094 
Q 2847 2600 2669 2842 
Q 2491 3084 2119 3084 
Q 1678 3084 1418 2786 
Q 1159 2488 1159 1978 
L 1159 0 
L 581 0 
L 581 3500 
L 1159 3500 
L 1159 2956 
Q 1356 3278 1631 3431 
Q 1906 3584 2284 3584 
Q 2666 3584 2933 3390 
Q 3200 3197 3328 2828 
z
" transform="scale(0.015625)"/>
      <path id="DejaVuSans-2f" d="M 1625 4666 
L 2156 4666 
L 531 -594 
L 0 -594 
L 1625 4666 
z
" transform="scale(0.015625)"/>
      <path id="DejaVuSans-68" d="M 3513 2113 
L 3513 0 
L 2938 0 
L 2938 2094 
Q 2938 2591 2744 2837 
Q 2550 3084 2163 3084 
Q 1697 3084 1428 2787 
Q 1159 2491 1159 1978 
L 1159 0 
L 581 0 
L 581 4863 
L 1159 4863 
L 1159 2956 
Q 1366 3272 1645 3428 
Q 1925 3584 2291 3584 
Q 2894 3584 3203 3211 
Q 3513 2838 3513 2113 
z
" transform="scale(0.015625)"/>
      <path id="DejaVuSans-5f" d="M 3263 -1063 
L 3263 -1509 
L -63 -1509 
L -63 -1063 
L 3263 -1063 
z
" transform="scale(0.015625)"/>
     </defs>
     <use xlink:href="#DejaVuSans-56"/>
     <use xlink:href="#DejaVuSans-69" x="66.158203"/>
     <use xlink:href="#DejaVuSans-6f" x="93.941406"/>
     <use xlink:href="#DejaVuSans-6c" x="155.123047"/>
     <use xlink:href="#DejaVuSans-69" x="182.90625"/>
     <use xlink:href="#DejaVuSans-6e" x="210.689453"/>
     <use xlink:href="#DejaVuSans-70" x="274.068359"/>
     <use xlink:href="#DejaVuSans-6c" x="337.544922"/>
     <use xlink:href="#DejaVuSans-6f" x="365.328125"/>
     <use xlink:href="#DejaVuSans-74" x="426.509766"/>
     <use xlink:href="#DejaVuSans-20" x="465.71875"/>
     <use xlink:href="#DejaVuSans-66" x="497.505859"/>
     <use xlink:href="#DejaVuSans-6f" x="532.710938"/>
     <use xlink:href="#DejaVuSans-72" x="593.892578"/>
     <use xlink:href="#DejaVuSans-20" x="635.005859"/>
     <use xlink:href="#DejaVuSans-70" x="666.792969"/>
     <use xlink:href="#DejaVuSans-72" x="730.269531"/>
     <use xlink:href="#DejaVuSans-6f" x="769.132812"/>
     <use xlink:href="#DejaVuSans-67" x="830.314453"/>
     <use xlink:href="#DejaVuSans-72" x="893.791016"/>
     <use xlink:href="#DejaVuSans-65" x="932.654297"/>
     <use xlink:href="#DejaVuSans-73" x="994.177734"/>
     <use xlink:href="#DejaVuSans-73" x="1046.277344"/>
     <use xlink:href="#DejaVuSans-20" x="1098.376953"/>
     <use xlink:href="#DejaVuSans-6f" x="1130.164062"/>
     <use xlink:href="#DejaVuSans-66" x="1191.345703"/>
     <use xlink:href="#DejaVuSans-20" x="1226.550781"/>
     <use xlink:href="#DejaVuSans-63" x="1258.337891"/>
     <use xlink:href="#DejaVuSans-75" x="1313.318359"/>
     <use xlink:href="#DejaVuSans-73" x="1376.697266"/>
     <use xlink:href="#DejaVuSans-74" x="1428.796875"/>
     <use xlink:href="#DejaVuSans-6f" x="1468.005859"/>
     <use xlink:href="#DejaVuSans-6d" x="1529.1875"/>
     <use xlink:href="#DejaVuSans-65" x="1626.599609"/>
     <use xlink:href="#DejaVuSans-72" x="1688.123047"/>
     <use xlink:href="#DejaVuSans-2f" x="1729.236328"/>
     <use xlink:href="#DejaVuSans-70" x="1762.927734"/>
     <use xlink:href="#DejaVuSans-75" x="1826.404297"/>
     <use xlink:href="#DejaVuSans-72" x="1889.783203"/>
     <use xlink:href="#DejaVuSans-63" x="1928.646484"/>
     <use xlink:href="#DejaVuSans-68" x="1983.626953"/>
     <use xlink:href="#DejaVuSans-61" x="2047.005859"/>
     <use xlink:href="#DejaVuSans-73" x="2108.285156"/>
     <use xlink:href="#DejaVuSans-65" x="2160.384766"/>
     <use xlink:href="#DejaVuSans-73" x="2221.908203"/>
     <use xlink:href="#DejaVuSans-5f" x="2274.007812"/>
     <use xlink:href="#DejaVuSans-6e" x="2324.007812"/>
     <use xlink:href="#DejaVuSans-65" x="2387.386719"/>
     <use xlink:href="#DejaVuSans-77" x="2448.910156"/>
    </g>
   </g>
   <g id="legend_1">
    <g id="patch_7">
     <path d="M 276.25125 64.150125 
L 407.72 64.150125 
Q 409.72 64.150125 409.72 62.150125 
L 409.72 48.472 
Q 409.72 46.472 407.72 46.472 
L 276.25125 46.472 
Q 274.25125 46.472 274.25125 48.472 
L 274.25125 62.150125 
Q 274.25125 64.150125 276.25125 64.150125 
z
" style="fill: #ffffff; opacity: 0.8; stroke: #cccccc; stroke-linejoin: miter"/>
    </g>
    <g id="line2d_14">
     <path d="M 278.25125 54.570438 
L 288.25125 54.570438 
L 298.25125 54.570438 
" style="fill: none; stroke: #4682b4; stroke-width: 1.5; stroke-linecap: square"/>
    </g>
    <g id="text_16">
     <!-- StableBaselinesSAC -->
     <g transform="translate(306.25125 58.070438)scale(0.1 -0.1)">
      <defs>
       <path id="DejaVuSans-53" d="M 3425 4513 
L 3425 3897 
Q 3066 4069 2747 4153 
Q 2428 4238 2131 4238 
Q 1616 4238 1336 4038 
Q 1056 3838 1056 3469 
Q 1056 3159 1242 3001 
Q 1428 2844 1947 2747 
L 2328 2669 
Q 3034 2534 3370 2195 
Q 3706 1856 3706 1288 
Q 3706 609 3251 259 
Q 2797 -91 1919 -91 
Q 1588 -91 1214 -16 
Q 841 59 441 206 
L 441 856 
Q 825 641 1194 531 
Q 1563 422 1919 422 
Q 2459 422 2753 634 
Q 3047 847 3047 1241 
Q 3047 1584 2836 1778 
Q 2625 1972 2144 2069 
L 1759 2144 
Q 1053 2284 737 2584 
Q 422 2884 422 3419 
Q 422 4038 858 4394 
Q 1294 4750 2059 4750 
Q 2388 4750 2728 4690 
Q 3069 4631 3425 4513 
z
" transform="scale(0.015625)"/>
       <path id="DejaVuSans-62" d="M 3116 1747 
Q 3116 2381 2855 2742 
Q 2594 3103 2138 3103 
Q 1681 3103 1420 2742 
Q 1159 2381 1159 1747 
Q 1159 1113 1420 752 
Q 1681 391 2138 391 
Q 2594 391 2855 752 
Q 3116 1113 3116 1747 
z
M 1159 2969 
Q 1341 3281 1617 3432 
Q 1894 3584 2278 3584 
Q 2916 3584 3314 3078 
Q 3713 2572 3713 1747 
Q 3713 922 3314 415 
Q 2916 -91 2278 -91 
Q 1894 -91 1617 61 
Q 1341 213 1159 525 
L 1159 0 
L 581 0 
L 581 4863 
L 1159 4863 
L 1159 2969 
z
" transform="scale(0.015625)"/>
       <path id="DejaVuSans-42" d="M 1259 2228 
L 1259 519 
L 2272 519 
Q 2781 519 3026 730 
Q 3272 941 3272 1375 
Q 3272 1813 3026 2020 
Q 2781 2228 2272 2228 
L 1259 2228 
z
M 1259 4147 
L 1259 2741 
L 2194 2741 
Q 2656 2741 2882 2914 
Q 3109 3088 3109 3444 
Q 3109 3797 2882 3972 
Q 2656 4147 2194 4147 
L 1259 4147 
z
M 628 4666 
L 2241 4666 
Q 2963 4666 3353 4366 
Q 3744 4066 3744 3513 
Q 3744 3084 3544 2831 
Q 3344 2578 2956 2516 
Q 3422 2416 3680 2098 
Q 3938 1781 3938 1306 
Q 3938 681 3513 340 
Q 3088 0 2303 0 
L 628 0 
L 628 4666 
z
" transform="scale(0.015625)"/>
       <path id="DejaVuSans-41" d="M 2188 4044 
L 1331 1722 
L 3047 1722 
L 2188 4044 
z
M 1831 4666 
L 2547 4666 
L 4325 0 
L 3669 0 
L 3244 1197 
L 1141 1197 
L 716 0 
L 50 0 
L 1831 4666 
z
" transform="scale(0.015625)"/>
       <path id="DejaVuSans-43" d="M 4122 4306 
L 4122 3641 
Q 3803 3938 3442 4084 
Q 3081 4231 2675 4231 
Q 1875 4231 1450 3742 
Q 1025 3253 1025 2328 
Q 1025 1406 1450 917 
Q 1875 428 2675 428 
Q 3081 428 3442 575 
Q 3803 722 4122 1019 
L 4122 359 
Q 3791 134 3420 21 
Q 3050 -91 2638 -91 
Q 1578 -91 968 557 
Q 359 1206 359 2328 
Q 359 3453 968 4101 
Q 1578 4750 2638 4750 
Q 3056 4750 3426 4639 
Q 3797 4528 4122 4306 
z
" transform="scale(0.015625)"/>
      </defs>
      <use xlink:href="#DejaVuSans-53"/>
      <use xlink:href="#DejaVuSans-74" x="63.476562"/>
      <use xlink:href="#DejaVuSans-61" x="102.685547"/>
      <use xlink:href="#DejaVuSans-62" x="163.964844"/>
      <use xlink:href="#DejaVuSans-6c" x="227.441406"/>
      <use xlink:href="#DejaVuSans-65" x="255.224609"/>
      <use xlink:href="#DejaVuSans-42" x="316.748047"/>
      <use xlink:href="#DejaVuSans-61" x="385.351562"/>
      <use xlink:href="#DejaVuSans-73" x="446.630859"/>
      <use xlink:href="#DejaVuSans-65" x="498.730469"/>
      <use xlink:href="#DejaVuSans-6c" x="560.253906"/>
      <use xlink:href="#DejaVuSans-69" x="588.037109"/>
      <use xlink:href="#DejaVuSans-6e" x="615.820312"/>
      <use xlink:href="#DejaVuSans-65" x="679.199219"/>
      <use xlink:href="#DejaVuSans-73" x="740.722656"/>
      <use xlink:href="#DejaVuSans-53" x="792.822266"/>
      <use xlink:href="#DejaVuSans-41" x="858.173828"/>
      <use xlink:href="#DejaVuSans-43" x="924.832031"/>
     </g>
    </g>
   </g>
  </g>
 </g>
 <defs>
  <clipPath id="pc0d9effdd6">
   <rect x="57.6" y="41.472" width="357.12" height="266.112"/>
  </clipPath>
 </defs>
</svg>
