<?xml version="1.0" encoding="utf-8" standalone="no"?>
<!DOCTYPE svg PUBLIC "-//W3C//DTD SVG 1.1//EN"
  "http://www.w3.org/Graphics/SVG/1.1/DTD/svg11.dtd">
<svg xmlns:xlink="http://www.w3.org/1999/xlink" width="460.8pt" height="345.6pt" viewBox="0 0 460.8 345.6" xmlns="http://www.w3.org/2000/svg" version="1.1">
 <metadata>
  <rdf:RDF xmlns:dc="http://purl.org/dc/elements/1.1/" xmlns:cc="http://creativecommons.org/ns#" xmlns:rdf="http://www.w3.org/1999/02/22-rdf-syntax-ns#">
   <cc:Work>
    <dc:type rdf:resource="http://purl.org/dc/dcmitype/StillImage"/>
    <dc:date>2022-06-20T20:26:30.064101</dc:date>
    <dc:format>image/svg+xml</dc:format>
    <dc:creator>
     <cc:Agent>
      <dc:title>Matplotlib v3.5.2, https://matplotlib.org/</dc:title>
     </cc:Agent>
    </dc:creator>
   </cc:Work>
  </rdf:RDF>
 </metadata>
 <defs>
  <style type="text/css">*{stroke-linejoin: round; stroke-linecap: butt}</style>
 </defs>
 <g id="figure_1">
  <g id="patch_1">
   <path d="M 0 345.6 
L 460.8 345.6 
L 460.8 0 
L 0 0 
z
" style="fill: #ffffff"/>
  </g>
  <g id="axes_1">
   <g id="patch_2">
    <path d="M 57.6 307.584 
L 414.72 307.584 
L 414.72 41.472 
L 57.6 41.472 
z
" style="fill: #ffffff"/>
   </g>
   <g id="PolyCollection_1">
    <path d="M 108.638976 295.488 
L 107.374804 295.488 
L 107.218442 293.044364 
L 107.021883 290.600727 
L 106.77528 288.157091 
L 106.468714 285.713455 
L 106.092883 283.269818 
L 105.639669 280.826182 
L 105.102595 278.382545 
L 104.477259 275.938909 
L 103.761831 273.495273 
L 102.95753 271.051636 
L 102.06895 268.608 
L 101.103972 266.164364 
L 100.07317 263.720727 
L 98.988776 261.277091 
L 97.863514 258.833455 
L 96.709732 256.389818 
L 95.539104 253.946182 
L 94.36294 251.502545 
L 93.192767 249.058909 
L 92.040671 246.615273 
L 90.918925 244.171636 
L 89.838752 241.728 
L 88.808491 239.284364 
L 87.83183 236.840727 
L 86.906836 234.397091 
L 86.026328 231.953455 
L 85.179597 229.509818 
L 84.354929 227.066182 
L 83.542017 224.622545 
L 82.733386 222.178909 
L 81.924432 219.735273 
L 81.112365 217.291636 
L 80.295001 214.848 
L 79.470474 212.404364 
L 78.638593 209.960727 
L 77.803671 207.517091 
L 76.977807 205.073455 
L 76.183021 202.629818 
L 75.450794 200.186182 
L 74.818337 197.742545 
L 74.322035 195.298909 
L 73.989564 192.855273 
L 73.832727 190.411636 
L 73.843004 187.968 
L 73.991091 185.524364 
L 74.230737 183.080727 
L 74.506126 180.637091 
L 74.761247 178.193455 
L 74.949321 175.749818 
L 75.040377 173.306182 
L 75.025584 170.862545 
L 74.917715 168.418909 
L 74.748046 165.975273 
L 74.560767 163.531636 
L 74.40645 161.088 
L 74.336029 158.644364 
L 74.396277 156.200727 
L 74.627003 153.757091 
L 75.059501 151.313455 
L 75.715491 148.869818 
L 76.605948 146.426182 
L 77.729758 143.982545 
L 79.072719 141.538909 
L 80.607745 139.095273 
L 82.296924 136.651636 
L 84.095487 134.208 
L 85.956958 131.764364 
L 87.838216 129.320727 
L 89.703161 126.877091 
L 91.524145 124.433455 
L 93.281153 121.989818 
L 94.959456 119.546182 
L 96.546892 117.102545 
L 98.031844 114.658909 
L 99.40256 112.215273 
L 100.64784 109.771636 
L 101.758644 107.328 
L 102.729938 104.884364 
L 103.562101 102.440727 
L 104.261475 99.997091 
L 104.839913 97.553455 
L 105.313437 95.109818 
L 105.700336 92.666182 
L 106.019068 90.222545 
L 106.286366 87.778909 
L 106.515847 85.335273 
L 106.717292 82.891636 
L 106.896634 80.448 
L 107.056522 78.004364 
L 107.197286 75.560727 
L 107.318064 73.117091 
L 107.417892 70.673455 
L 107.496603 68.229818 
L 107.555403 65.786182 
L 107.597069 63.342545 
L 107.625745 60.898909 
L 107.646405 58.455273 
L 107.664082 56.011636 
L 107.683072 53.568 
L 108.330708 53.568 
L 108.330708 53.568 
L 108.349698 56.011636 
L 108.367375 58.455273 
L 108.388035 60.898909 
L 108.416711 63.342545 
L 108.458376 65.786182 
L 108.517177 68.229818 
L 108.595888 70.673455 
L 108.695716 73.117091 
L 108.816494 75.560727 
L 108.957258 78.004364 
L 109.117146 80.448 
L 109.296488 82.891636 
L 109.497933 85.335273 
L 109.727413 87.778909 
L 109.994712 90.222545 
L 110.313444 92.666182 
L 110.700343 95.109818 
L 111.173867 97.553455 
L 111.752305 99.997091 
L 112.451679 102.440727 
L 113.283842 104.884364 
L 114.255136 107.328 
L 115.36594 109.771636 
L 116.61122 112.215273 
L 117.981936 114.658909 
L 119.466888 117.102545 
L 121.054324 119.546182 
L 122.732626 121.989818 
L 124.489635 124.433455 
L 126.310619 126.877091 
L 128.175564 129.320727 
L 130.056822 131.764364 
L 131.918293 134.208 
L 133.716856 136.651636 
L 135.406035 139.095273 
L 136.941061 141.538909 
L 138.284022 143.982545 
L 139.407832 146.426182 
L 140.298289 148.869818 
L 140.954279 151.313455 
L 141.386776 153.757091 
L 141.617503 156.200727 
L 141.677751 158.644364 
L 141.60733 161.088 
L 141.453013 163.531636 
L 141.265734 165.975273 
L 141.096064 168.418909 
L 140.988196 170.862545 
L 140.973403 173.306182 
L 141.064459 175.749818 
L 141.252533 178.193455 
L 141.507654 180.637091 
L 141.783043 183.080727 
L 142.022689 185.524364 
L 142.170776 187.968 
L 142.181053 190.411636 
L 142.024216 192.855273 
L 141.691745 195.298909 
L 141.195443 197.742545 
L 140.562986 200.186182 
L 139.830759 202.629818 
L 139.035973 205.073455 
L 138.210109 207.517091 
L 137.375187 209.960727 
L 136.543306 212.404364 
L 135.718779 214.848 
L 134.901414 217.291636 
L 134.089348 219.735273 
L 133.280393 222.178909 
L 132.471763 224.622545 
L 131.658851 227.066182 
L 130.834183 229.509818 
L 129.987452 231.953455 
L 129.106944 234.397091 
L 128.18195 236.840727 
L 127.205289 239.284364 
L 126.175028 241.728 
L 125.094855 244.171636 
L 123.973109 246.615273 
L 122.821013 249.058909 
L 121.65084 251.502545 
L 120.474676 253.946182 
L 119.304048 256.389818 
L 118.150266 258.833455 
L 117.025004 261.277091 
L 115.94061 263.720727 
L 114.909808 266.164364 
L 113.94483 268.608 
L 113.056249 271.051636 
L 112.251949 273.495273 
L 111.536521 275.938909 
L 110.911185 278.382545 
L 110.37411 280.826182 
L 109.920897 283.269818 
L 109.545066 285.713455 
L 109.2385 288.157091 
L 108.991897 290.600727 
L 108.795338 293.044364 
L 108.638976 295.488 
z
" clip-path="url(#pd3a5b4c7bd)" style="fill: #1f77b4; fill-opacity: 0.3"/>
   </g>
   <g id="PolyCollection_2">
    <path d="M 196.085523 279.53221 
L 190.79907 279.53221 
L 190.221882 277.3692 
L 189.57255 275.206191 
L 188.85094 273.043181 
L 188.058157 270.880172 
L 187.196712 268.717162 
L 186.270699 266.554153 
L 185.285909 264.391143 
L 184.249769 262.228134 
L 183.171021 260.065124 
L 182.059057 257.902114 
L 180.92292 255.739105 
L 179.770116 253.576095 
L 178.60554 251.413086 
L 177.430909 249.250076 
L 176.245068 247.087067 
L 175.045379 244.924057 
L 173.830062 242.761047 
L 172.600996 240.598038 
L 171.366209 238.435028 
L 170.141199 236.272019 
L 168.948435 234.109009 
L 167.814823 231.946 
L 166.767516 229.78299 
L 165.828958 227.61998 
L 165.012357 225.456971 
L 164.318745 223.293961 
L 163.736441 221.130952 
L 163.243139 218.967942 
L 162.810194 216.804933 
L 162.408153 214.641923 
L 162.01232 212.478913 
L 161.607176 210.315904 
L 161.188795 208.152894 
L 160.764936 205.989885 
L 160.352981 203.826875 
L 159.97635 201.663866 
L 159.660191 199.500856 
L 159.427153 197.337846 
L 159.29382 195.174837 
L 159.268134 193.011827 
L 159.347905 190.848818 
L 159.520375 188.685808 
L 159.762852 186.522799 
L 160.044455 184.359789 
L 160.329076 182.196779 
L 160.579539 180.03377 
L 160.762703 177.87076 
L 160.854931 175.707751 
L 160.847041 173.544741 
L 160.747734 171.381732 
L 160.584637 169.218722 
L 160.402475 167.055713 
L 160.258506 164.892703 
L 160.215885 162.729693 
L 160.336097 160.566684 
L 160.671699 158.403674 
L 161.260484 156.240665 
L 162.121771 154.077655 
L 163.255059 151.914646 
L 164.64087 149.751636 
L 166.243321 147.588626 
L 168.013883 145.425617 
L 169.89582 143.262607 
L 171.828864 141.099598 
L 173.753776 138.936588 
L 175.616472 136.773579 
L 177.371408 134.610569 
L 178.983979 132.447559 
L 180.431774 130.28455 
L 181.704683 128.12154 
L 182.80399 125.958531 
L 183.740723 123.795521 
L 184.533559 121.632512 
L 185.206532 119.469502 
L 185.786726 117.306492 
L 186.302004 115.143483 
L 186.778823 112.980473 
L 187.240194 110.817464 
L 187.703915 108.654454 
L 188.181295 106.491445 
L 188.676582 104.328435 
L 189.187234 102.165425 
L 189.705042 100.002416 
L 190.217913 97.839406 
L 190.711996 95.676397 
L 191.173777 93.513387 
L 191.591799 91.350378 
L 191.957812 89.187368 
L 192.267279 87.024358 
L 192.519337 84.861349 
L 192.716369 82.698339 
L 192.863356 80.53533 
L 192.967169 78.37232 
L 193.035858 76.209311 
L 193.077988 74.046301 
L 193.102013 71.883292 
L 193.115696 69.720282 
L 193.125602 67.557272 
L 193.136708 65.394263 
L 193.747885 65.394263 
L 193.747885 65.394263 
L 193.758991 67.557272 
L 193.768897 69.720282 
L 193.78258 71.883292 
L 193.806606 74.046301 
L 193.848736 76.209311 
L 193.917424 78.37232 
L 194.021237 80.53533 
L 194.168225 82.698339 
L 194.365256 84.861349 
L 194.617314 87.024358 
L 194.926781 89.187368 
L 195.292794 91.350378 
L 195.710816 93.513387 
L 196.172597 95.676397 
L 196.66668 97.839406 
L 197.179551 100.002416 
L 197.697359 102.165425 
L 198.208011 104.328435 
L 198.703298 106.491445 
L 199.180678 108.654454 
L 199.644399 110.817464 
L 200.10577 112.980473 
L 200.582589 115.143483 
L 201.097867 117.306492 
L 201.678061 119.469502 
L 202.351035 121.632512 
L 203.14387 123.795521 
L 204.080603 125.958531 
L 205.17991 128.12154 
L 206.452819 130.28455 
L 207.900615 132.447559 
L 209.513186 134.610569 
L 211.268122 136.773579 
L 213.130818 138.936588 
L 215.05573 141.099598 
L 216.988773 143.262607 
L 218.87071 145.425617 
L 220.641272 147.588626 
L 222.243723 149.751636 
L 223.629534 151.914646 
L 224.762822 154.077655 
L 225.624109 156.240665 
L 226.212894 158.403674 
L 226.548497 160.566684 
L 226.668709 162.729693 
L 226.626088 164.892703 
L 226.482118 167.055713 
L 226.299956 169.218722 
L 226.136859 171.381732 
L 226.037553 173.544741 
L 226.029662 175.707751 
L 226.12189 177.87076 
L 226.305055 180.03377 
L 226.555518 182.196779 
L 226.840139 184.359789 
L 227.121741 186.522799 
L 227.364218 188.685808 
L 227.536688 190.848818 
L 227.616459 193.011827 
L 227.590774 195.174837 
L 227.45744 197.337846 
L 227.224402 199.500856 
L 226.908243 201.663866 
L 226.531613 203.826875 
L 226.119658 205.989885 
L 225.695798 208.152894 
L 225.277417 210.315904 
L 224.872273 212.478913 
L 224.476441 214.641923 
L 224.074399 216.804933 
L 223.641454 218.967942 
L 223.148153 221.130952 
L 222.565849 223.293961 
L 221.872236 225.456971 
L 221.055635 227.61998 
L 220.117078 229.78299 
L 219.06977 231.946 
L 217.936158 234.109009 
L 216.743394 236.272019 
L 215.518384 238.435028 
L 214.283597 240.598038 
L 213.054531 242.761047 
L 211.839214 244.924057 
L 210.639526 247.087067 
L 209.453685 249.250076 
L 208.279053 251.413086 
L 207.114478 253.576095 
L 205.961673 255.739105 
L 204.825536 257.902114 
L 203.713573 260.065124 
L 202.634825 262.228134 
L 201.598684 264.391143 
L 200.613894 266.554153 
L 199.687882 268.717162 
L 198.826436 270.880172 
L 198.033653 273.043181 
L 197.312044 275.206191 
L 196.662711 277.3692 
L 196.085523 279.53221 
z
" clip-path="url(#pd3a5b4c7bd)" style="fill: #1f77b4; fill-opacity: 0.3"/>
   </g>
   <g id="PolyCollection_3">
    <path d="M 284.059859 276.773334 
L 273.695548 276.773334 
L 272.893473 274.708127 
L 272.055946 272.64292 
L 271.185962 270.577713 
L 270.282865 268.512505 
L 269.342438 266.447298 
L 268.357641 264.382091 
L 267.319898 262.316883 
L 266.220677 260.251676 
L 265.053106 258.186469 
L 263.813354 256.121261 
L 262.501598 254.056054 
L 261.122472 251.990847 
L 259.685042 249.925639 
L 258.202422 247.860432 
L 256.691201 245.795225 
L 255.170854 243.730017 
L 253.663246 241.66481 
L 252.19225 239.599603 
L 250.783407 237.534396 
L 249.463469 235.469188 
L 248.259679 233.403981 
L 247.198635 231.338774 
L 246.304727 229.273566 
L 245.598228 227.208359 
L 245.093278 225.143152 
L 244.796061 223.077944 
L 244.703541 221.012737 
L 244.803032 218.94753 
L 245.072805 216.882322 
L 245.483702 214.817115 
L 246.001585 212.751908 
L 246.590257 210.6867 
L 247.214409 208.621493 
L 247.842148 206.556286 
L 248.44678 204.491079 
L 249.00769 202.425871 
L 249.510388 200.360664 
L 249.945963 198.295457 
L 250.310275 196.230249 
L 250.6032 194.165042 
L 250.828115 192.099835 
L 250.991648 190.034627 
L 251.10353 187.96942 
L 251.176331 185.904213 
L 251.224853 183.839005 
L 251.265094 181.773798 
L 251.31286 179.708591 
L 251.382277 177.643383 
L 251.48451 175.578176 
L 251.62701 173.512969 
L 251.813452 171.447761 
L 252.044377 169.382554 
L 252.318349 167.317347 
L 252.633359 165.25214 
L 252.98814 163.186932 
L 253.38316 161.121725 
L 253.821117 159.056518 
L 254.30693 156.99131 
L 254.847265 154.926103 
L 255.449743 152.860896 
L 256.121949 150.795688 
L 256.870386 148.730481 
L 257.699479 146.665274 
L 258.610723 144.600066 
L 259.602029 142.534859 
L 260.667337 140.469652 
L 261.796499 138.404444 
L 262.975451 136.339237 
L 264.18667 134.27403 
L 265.409896 132.208823 
L 266.623101 130.143615 
L 267.803697 128.078408 
L 268.929899 126.013201 
L 269.982202 123.947993 
L 270.944801 121.882786 
L 271.806811 119.817579 
L 272.563087 117.752371 
L 273.21449 115.687164 
L 273.767503 113.621957 
L 274.23322 111.556749 
L 274.625821 109.491542 
L 274.960776 107.426335 
L 275.253031 105.361127 
L 275.51547 103.29592 
L 275.757853 101.230713 
L 275.986364 99.165505 
L 276.203757 97.100298 
L 276.41002 95.035091 
L 276.603382 92.969884 
L 276.78144 90.904676 
L 276.942213 88.839469 
L 277.084935 86.774262 
L 277.21049 84.709054 
L 277.321429 82.643847 
L 277.421631 80.57864 
L 277.515682 78.513432 
L 277.608126 76.448225 
L 277.702745 74.383018 
L 277.801993 72.31781 
L 279.953414 72.31781 
L 279.953414 72.31781 
L 280.052662 74.383018 
L 280.14728 76.448225 
L 280.239724 78.513432 
L 280.333775 80.57864 
L 280.433978 82.643847 
L 280.544917 84.709054 
L 280.670471 86.774262 
L 280.813194 88.839469 
L 280.973966 90.904676 
L 281.152025 92.969884 
L 281.345387 95.035091 
L 281.55165 97.100298 
L 281.769043 99.165505 
L 281.997553 101.230713 
L 282.239937 103.29592 
L 282.502376 105.361127 
L 282.794631 107.426335 
L 283.129586 109.491542 
L 283.522187 111.556749 
L 283.987904 113.621957 
L 284.540917 115.687164 
L 285.19232 117.752371 
L 285.948596 119.817579 
L 286.810606 121.882786 
L 287.773205 123.947993 
L 288.825507 126.013201 
L 289.95171 128.078408 
L 291.132305 130.143615 
L 292.345511 132.208823 
L 293.568736 134.27403 
L 294.779956 136.339237 
L 295.958908 138.404444 
L 297.08807 140.469652 
L 298.153378 142.534859 
L 299.144684 144.600066 
L 300.055927 146.665274 
L 300.885021 148.730481 
L 301.633458 150.795688 
L 302.305664 152.860896 
L 302.908142 154.926103 
L 303.448477 156.99131 
L 303.93429 159.056518 
L 304.372247 161.121725 
L 304.767267 163.186932 
L 305.122048 165.25214 
L 305.437058 167.317347 
L 305.71103 169.382554 
L 305.941955 171.447761 
L 306.128397 173.512969 
L 306.270897 175.578176 
L 306.37313 177.643383 
L 306.442546 179.708591 
L 306.490313 181.773798 
L 306.530553 183.839005 
L 306.579075 185.904213 
L 306.651877 187.96942 
L 306.763759 190.034627 
L 306.927292 192.099835 
L 307.152207 194.165042 
L 307.445132 196.230249 
L 307.809444 198.295457 
L 308.245019 200.360664 
L 308.747716 202.425871 
L 309.308626 204.491079 
L 309.913259 206.556286 
L 310.540998 208.621493 
L 311.16515 210.6867 
L 311.753822 212.751908 
L 312.271705 214.817115 
L 312.682601 216.882322 
L 312.952375 218.94753 
L 313.051866 221.012737 
L 312.959345 223.077944 
L 312.662129 225.143152 
L 312.157179 227.208359 
L 311.45068 229.273566 
L 310.556771 231.338774 
L 309.495728 233.403981 
L 308.291937 235.469188 
L 306.972 237.534396 
L 305.563156 239.599603 
L 304.092161 241.66481 
L 302.584553 243.730017 
L 301.064206 245.795225 
L 299.552984 247.860432 
L 298.070364 249.925639 
L 296.632935 251.990847 
L 295.253808 254.056054 
L 293.942052 256.121261 
L 292.702301 258.186469 
L 291.534729 260.251676 
L 290.435509 262.316883 
L 289.397766 264.382091 
L 288.412969 266.447298 
L 287.472541 268.512505 
L 286.569445 270.577713 
L 285.69946 272.64292 
L 284.861933 274.708127 
L 284.059859 276.773334 
z
" clip-path="url(#pd3a5b4c7bd)" style="fill: #1f77b4; fill-opacity: 0.3"/>
   </g>
   <g id="PolyCollection_4">
    <path d="M 366.619298 286.280033 
L 362.006922 286.280033 
L 361.435141 284.028451 
L 360.771221 281.776869 
L 360.013325 279.525288 
L 359.162213 277.273706 
L 358.221018 275.022124 
L 357.194663 272.770542 
L 356.089029 270.51896 
L 354.91001 268.267378 
L 353.662682 266.015797 
L 352.350801 263.764215 
L 350.976827 261.512633 
L 349.542536 259.261051 
L 348.050199 257.009469 
L 346.504115 254.757887 
L 344.912203 252.506305 
L 343.287299 250.254724 
L 341.647813 248.003142 
L 340.017559 245.75156 
L 338.424701 243.499978 
L 336.899973 241.248396 
L 335.474484 238.996814 
L 334.177475 236.745233 
L 333.034419 234.493651 
L 332.065683 232.242069 
L 331.285857 229.990487 
L 330.703643 227.738905 
L 330.322094 225.487323 
L 330.138947 223.235741 
L 330.146857 220.98416 
L 330.333443 218.732578 
L 330.681243 216.480996 
L 331.167762 214.229414 
L 331.765856 211.977832 
L 332.444672 209.72625 
L 333.171217 207.474669 
L 333.912494 205.223087 
L 334.637961 202.971505 
L 335.321968 200.719923 
L 335.945797 198.468341 
L 336.498962 196.216759 
L 336.979564 193.965177 
L 337.393672 191.713596 
L 337.753853 189.462014 
L 338.077126 187.210432 
L 338.382705 184.95885 
L 338.689865 182.707268 
L 339.016245 180.455686 
L 339.376728 178.204105 
L 339.782946 175.952523 
L 340.243271 173.700941 
L 340.763117 171.449359 
L 341.345301 169.197777 
L 341.990292 166.946195 
L 342.696217 164.694613 
L 343.458661 162.443032 
L 344.27035 160.19145 
L 345.120929 157.939868 
L 345.997012 155.688286 
L 346.882671 153.436704 
L 347.760416 151.185122 
L 348.612586 148.933541 
L 349.422968 146.681959 
L 350.178363 144.430377 
L 350.869804 142.178795 
L 351.493191 139.927213 
L 352.0492 137.675631 
L 352.542507 135.424049 
L 352.980481 133.172468 
L 353.371654 130.920886 
L 353.724274 128.669304 
L 354.045261 126.417722 
L 354.339741 124.16614 
L 354.611188 121.914558 
L 354.862093 119.662977 
L 355.09489 117.411395 
L 355.31288 115.159813 
L 355.52088 112.908231 
L 355.725406 110.656649 
L 355.934335 108.405067 
L 356.156115 106.153485 
L 356.398698 103.901904 
L 356.668422 101.650322 
L 356.969083 99.39874 
L 357.30138 97.147158 
L 357.662834 94.895576 
L 358.048176 92.643994 
L 358.450122 90.392413 
L 358.86038 88.140831 
L 359.270702 85.889249 
L 359.673806 83.637667 
L 360.064045 81.386085 
L 360.437724 79.134503 
L 360.793075 76.882921 
L 361.129934 74.63134 
L 361.449213 72.379758 
L 361.752295 70.128176 
L 362.040464 67.876594 
L 362.314476 65.625012 
L 362.574317 63.37343 
L 366.051903 63.37343 
L 366.051903 63.37343 
L 366.311744 65.625012 
L 366.585756 67.876594 
L 366.873925 70.128176 
L 367.177007 72.379758 
L 367.496286 74.63134 
L 367.833145 76.882921 
L 368.188496 79.134503 
L 368.562175 81.386085 
L 368.952414 83.637667 
L 369.355519 85.889249 
L 369.76584 88.140831 
L 370.176098 90.392413 
L 370.578044 92.643994 
L 370.963386 94.895576 
L 371.32484 97.147158 
L 371.657137 99.39874 
L 371.957798 101.650322 
L 372.227522 103.901904 
L 372.470105 106.153485 
L 372.691885 108.405067 
L 372.900814 110.656649 
L 373.10534 112.908231 
L 373.31334 115.159813 
L 373.53133 117.411395 
L 373.764127 119.662977 
L 374.015032 121.914558 
L 374.28648 124.16614 
L 374.580959 126.417722 
L 374.901946 128.669304 
L 375.254566 130.920886 
L 375.645739 133.172468 
L 376.083713 135.424049 
L 376.57702 137.675631 
L 377.133029 139.927213 
L 377.756416 142.178795 
L 378.447857 144.430377 
L 379.203252 146.681959 
L 380.013634 148.933541 
L 380.865804 151.185122 
L 381.743549 153.436704 
L 382.629208 155.688286 
L 383.505291 157.939868 
L 384.35587 160.19145 
L 385.16756 162.443032 
L 385.930003 164.694613 
L 386.635928 166.946195 
L 387.280919 169.197777 
L 387.863103 171.449359 
L 388.382949 173.700941 
L 388.843274 175.952523 
L 389.249492 178.204105 
L 389.609975 180.455686 
L 389.936355 182.707268 
L 390.243515 184.95885 
L 390.549094 187.210432 
L 390.872367 189.462014 
L 391.232548 191.713596 
L 391.646656 193.965177 
L 392.127258 196.216759 
L 392.680423 198.468341 
L 393.304252 200.719923 
L 393.988259 202.971505 
L 394.713726 205.223087 
L 395.455003 207.474669 
L 396.181548 209.72625 
L 396.860364 211.977832 
L 397.458459 214.229414 
L 397.944977 216.480996 
L 398.292777 218.732578 
L 398.479363 220.98416 
L 398.487273 223.235741 
L 398.304127 225.487323 
L 397.922577 227.738905 
L 397.340363 229.990487 
L 396.560537 232.242069 
L 395.591801 234.493651 
L 394.448745 236.745233 
L 393.151736 238.996814 
L 391.726247 241.248396 
L 390.20152 243.499978 
L 388.608661 245.75156 
L 386.978407 248.003142 
L 385.338921 250.254724 
L 383.714017 252.506305 
L 382.122105 254.757887 
L 380.576021 257.009469 
L 379.083684 259.261051 
L 377.649393 261.512633 
L 376.275419 263.764215 
L 374.963538 266.015797 
L 373.71621 268.267378 
L 372.537191 270.51896 
L 371.431557 272.770542 
L 370.405202 275.022124 
L 369.464007 277.273706 
L 368.612895 279.525288 
L 367.854999 281.776869 
L 367.19108 284.028451 
L 366.619298 286.280033 
z
" clip-path="url(#pd3a5b4c7bd)" style="fill: #1f77b4; fill-opacity: 0.3"/>
   </g>
   <g id="matplotlib.axis_1">
    <g id="xtick_1">
     <g id="line2d_1">
      <path d="M 79.528421 307.584 
L 79.528421 41.472 
" clip-path="url(#pd3a5b4c7bd)" style="fill: none; stroke-dasharray: 2.96,1.28; stroke-dashoffset: 0; stroke: #b0b0b0; stroke-width: 0.8"/>
     </g>
     <g id="line2d_2">
      <defs>
       <path id="m8ecfb229eb" d="M 0 0 
L 0 3.5 
" style="stroke: #000000; stroke-width: 0.8"/>
      </defs>
      <g>
       <use xlink:href="#m8ecfb229eb" x="79.528421" y="307.584" style="stroke: #000000; stroke-width: 0.8"/>
      </g>
     </g>
     <g id="text_1">
      <!-- 1000 -->
      <g transform="translate(66.803421 322.182437)scale(0.1 -0.1)">
       <defs>
        <path id="DejaVuSans-31" d="M 794 531 
L 1825 531 
L 1825 4091 
L 703 3866 
L 703 4441 
L 1819 4666 
L 2450 4666 
L 2450 531 
L 3481 531 
L 3481 0 
L 794 0 
L 794 531 
z
" transform="scale(0.015625)"/>
        <path id="DejaVuSans-30" d="M 2034 4250 
Q 1547 4250 1301 3770 
Q 1056 3291 1056 2328 
Q 1056 1369 1301 889 
Q 1547 409 2034 409 
Q 2525 409 2770 889 
Q 3016 1369 3016 2328 
Q 3016 3291 2770 3770 
Q 2525 4250 2034 4250 
z
M 2034 4750 
Q 2819 4750 3233 4129 
Q 3647 3509 3647 2328 
Q 3647 1150 3233 529 
Q 2819 -91 2034 -91 
Q 1250 -91 836 529 
Q 422 1150 422 2328 
Q 422 3509 836 4129 
Q 1250 4750 2034 4750 
z
" transform="scale(0.015625)"/>
       </defs>
       <use xlink:href="#DejaVuSans-31"/>
       <use xlink:href="#DejaVuSans-30" x="63.623047"/>
       <use xlink:href="#DejaVuSans-30" x="127.246094"/>
       <use xlink:href="#DejaVuSans-30" x="190.869141"/>
      </g>
     </g>
    </g>
    <g id="xtick_2">
     <g id="line2d_3">
      <path d="M 136.485359 307.584 
L 136.485359 41.472 
" clip-path="url(#pd3a5b4c7bd)" style="fill: none; stroke-dasharray: 2.96,1.28; stroke-dashoffset: 0; stroke: #b0b0b0; stroke-width: 0.8"/>
     </g>
     <g id="line2d_4">
      <g>
       <use xlink:href="#m8ecfb229eb" x="136.485359" y="307.584" style="stroke: #000000; stroke-width: 0.8"/>
      </g>
     </g>
     <g id="text_2">
      <!-- 2000 -->
      <g transform="translate(123.760359 322.182437)scale(0.1 -0.1)">
       <defs>
        <path id="DejaVuSans-32" d="M 1228 531 
L 3431 531 
L 3431 0 
L 469 0 
L 469 531 
Q 828 903 1448 1529 
Q 2069 2156 2228 2338 
Q 2531 2678 2651 2914 
Q 2772 3150 2772 3378 
Q 2772 3750 2511 3984 
Q 2250 4219 1831 4219 
Q 1534 4219 1204 4116 
Q 875 4013 500 3803 
L 500 4441 
Q 881 4594 1212 4672 
Q 1544 4750 1819 4750 
Q 2544 4750 2975 4387 
Q 3406 4025 3406 3419 
Q 3406 3131 3298 2873 
Q 3191 2616 2906 2266 
Q 2828 2175 2409 1742 
Q 1991 1309 1228 531 
z
" transform="scale(0.015625)"/>
       </defs>
       <use xlink:href="#DejaVuSans-32"/>
       <use xlink:href="#DejaVuSans-30" x="63.623047"/>
       <use xlink:href="#DejaVuSans-30" x="127.246094"/>
       <use xlink:href="#DejaVuSans-30" x="190.869141"/>
      </g>
     </g>
    </g>
    <g id="xtick_3">
     <g id="line2d_5">
      <path d="M 193.442297 307.584 
L 193.442297 41.472 
" clip-path="url(#pd3a5b4c7bd)" style="fill: none; stroke-dasharray: 2.96,1.28; stroke-dashoffset: 0; stroke: #b0b0b0; stroke-width: 0.8"/>
     </g>
     <g id="line2d_6">
      <g>
       <use xlink:href="#m8ecfb229eb" x="193.442297" y="307.584" style="stroke: #000000; stroke-width: 0.8"/>
      </g>
     </g>
     <g id="text_3">
      <!-- 3000 -->
      <g transform="translate(180.717297 322.182437)scale(0.1 -0.1)">
       <defs>
        <path id="DejaVuSans-33" d="M 2597 2516 
Q 3050 2419 3304 2112 
Q 3559 1806 3559 1356 
Q 3559 666 3084 287 
Q 2609 -91 1734 -91 
Q 1441 -91 1130 -33 
Q 819 25 488 141 
L 488 750 
Q 750 597 1062 519 
Q 1375 441 1716 441 
Q 2309 441 2620 675 
Q 2931 909 2931 1356 
Q 2931 1769 2642 2001 
Q 2353 2234 1838 2234 
L 1294 2234 
L 1294 2753 
L 1863 2753 
Q 2328 2753 2575 2939 
Q 2822 3125 2822 3475 
Q 2822 3834 2567 4026 
Q 2313 4219 1838 4219 
Q 1578 4219 1281 4162 
Q 984 4106 628 3988 
L 628 4550 
Q 988 4650 1302 4700 
Q 1616 4750 1894 4750 
Q 2613 4750 3031 4423 
Q 3450 4097 3450 3541 
Q 3450 3153 3228 2886 
Q 3006 2619 2597 2516 
z
" transform="scale(0.015625)"/>
       </defs>
       <use xlink:href="#DejaVuSans-33"/>
       <use xlink:href="#DejaVuSans-30" x="63.623047"/>
       <use xlink:href="#DejaVuSans-30" x="127.246094"/>
       <use xlink:href="#DejaVuSans-30" x="190.869141"/>
      </g>
     </g>
    </g>
    <g id="xtick_4">
     <g id="line2d_7">
      <path d="M 250.399234 307.584 
L 250.399234 41.472 
" clip-path="url(#pd3a5b4c7bd)" style="fill: none; stroke-dasharray: 2.96,1.28; stroke-dashoffset: 0; stroke: #b0b0b0; stroke-width: 0.8"/>
     </g>
     <g id="line2d_8">
      <g>
       <use xlink:href="#m8ecfb229eb" x="250.399234" y="307.584" style="stroke: #000000; stroke-width: 0.8"/>
      </g>
     </g>
     <g id="text_4">
      <!-- 4000 -->
      <g transform="translate(237.674234 322.182437)scale(0.1 -0.1)">
       <defs>
        <path id="DejaVuSans-34" d="M 2419 4116 
L 825 1625 
L 2419 1625 
L 2419 4116 
z
M 2253 4666 
L 3047 4666 
L 3047 1625 
L 3713 1625 
L 3713 1100 
L 3047 1100 
L 3047 0 
L 2419 0 
L 2419 1100 
L 313 1100 
L 313 1709 
L 2253 4666 
z
" transform="scale(0.015625)"/>
       </defs>
       <use xlink:href="#DejaVuSans-34"/>
       <use xlink:href="#DejaVuSans-30" x="63.623047"/>
       <use xlink:href="#DejaVuSans-30" x="127.246094"/>
       <use xlink:href="#DejaVuSans-30" x="190.869141"/>
      </g>
     </g>
    </g>
    <g id="xtick_5">
     <g id="line2d_9">
      <path d="M 307.356172 307.584 
L 307.356172 41.472 
" clip-path="url(#pd3a5b4c7bd)" style="fill: none; stroke-dasharray: 2.96,1.28; stroke-dashoffset: 0; stroke: #b0b0b0; stroke-width: 0.8"/>
     </g>
     <g id="line2d_10">
      <g>
       <use xlink:href="#m8ecfb229eb" x="307.356172" y="307.584" style="stroke: #000000; stroke-width: 0.8"/>
      </g>
     </g>
     <g id="text_5">
      <!-- 5000 -->
      <g transform="translate(294.631172 322.182437)scale(0.1 -0.1)">
       <defs>
        <path id="DejaVuSans-35" d="M 691 4666 
L 3169 4666 
L 3169 4134 
L 1269 4134 
L 1269 2991 
Q 1406 3038 1543 3061 
Q 1681 3084 1819 3084 
Q 2600 3084 3056 2656 
Q 3513 2228 3513 1497 
Q 3513 744 3044 326 
Q 2575 -91 1722 -91 
Q 1428 -91 1123 -41 
Q 819 9 494 109 
L 494 744 
Q 775 591 1075 516 
Q 1375 441 1709 441 
Q 2250 441 2565 725 
Q 2881 1009 2881 1497 
Q 2881 1984 2565 2268 
Q 2250 2553 1709 2553 
Q 1456 2553 1204 2497 
Q 953 2441 691 2322 
L 691 4666 
z
" transform="scale(0.015625)"/>
       </defs>
       <use xlink:href="#DejaVuSans-35"/>
       <use xlink:href="#DejaVuSans-30" x="63.623047"/>
       <use xlink:href="#DejaVuSans-30" x="127.246094"/>
       <use xlink:href="#DejaVuSans-30" x="190.869141"/>
      </g>
     </g>
    </g>
    <g id="xtick_6">
     <g id="line2d_11">
      <path d="M 364.31311 307.584 
L 364.31311 41.472 
" clip-path="url(#pd3a5b4c7bd)" style="fill: none; stroke-dasharray: 2.96,1.28; stroke-dashoffset: 0; stroke: #b0b0b0; stroke-width: 0.8"/>
     </g>
     <g id="line2d_12">
      <g>
       <use xlink:href="#m8ecfb229eb" x="364.31311" y="307.584" style="stroke: #000000; stroke-width: 0.8"/>
      </g>
     </g>
     <g id="text_6">
      <!-- 6000 -->
      <g transform="translate(351.58811 322.182437)scale(0.1 -0.1)">
       <defs>
        <path id="DejaVuSans-36" d="M 2113 2584 
Q 1688 2584 1439 2293 
Q 1191 2003 1191 1497 
Q 1191 994 1439 701 
Q 1688 409 2113 409 
Q 2538 409 2786 701 
Q 3034 994 3034 1497 
Q 3034 2003 2786 2293 
Q 2538 2584 2113 2584 
z
M 3366 4563 
L 3366 3988 
Q 3128 4100 2886 4159 
Q 2644 4219 2406 4219 
Q 1781 4219 1451 3797 
Q 1122 3375 1075 2522 
Q 1259 2794 1537 2939 
Q 1816 3084 2150 3084 
Q 2853 3084 3261 2657 
Q 3669 2231 3669 1497 
Q 3669 778 3244 343 
Q 2819 -91 2113 -91 
Q 1303 -91 875 529 
Q 447 1150 447 2328 
Q 447 3434 972 4092 
Q 1497 4750 2381 4750 
Q 2619 4750 2861 4703 
Q 3103 4656 3366 4563 
z
" transform="scale(0.015625)"/>
       </defs>
       <use xlink:href="#DejaVuSans-36"/>
       <use xlink:href="#DejaVuSans-30" x="63.623047"/>
       <use xlink:href="#DejaVuSans-30" x="127.246094"/>
       <use xlink:href="#DejaVuSans-30" x="190.869141"/>
      </g>
     </g>
    </g>
    <g id="text_7">
     <!-- Learned Episodes -->
     <g transform="translate(192.102187 335.860562)scale(0.1 -0.1)">
      <defs>
       <path id="DejaVuSans-4c" d="M 628 4666 
L 1259 4666 
L 1259 531 
L 3531 531 
L 3531 0 
L 628 0 
L 628 4666 
z
" transform="scale(0.015625)"/>
       <path id="DejaVuSans-65" d="M 3597 1894 
L 3597 1613 
L 953 1613 
Q 991 1019 1311 708 
Q 1631 397 2203 397 
Q 2534 397 2845 478 
Q 3156 559 3463 722 
L 3463 178 
Q 3153 47 2828 -22 
Q 2503 -91 2169 -91 
Q 1331 -91 842 396 
Q 353 884 353 1716 
Q 353 2575 817 3079 
Q 1281 3584 2069 3584 
Q 2775 3584 3186 3129 
Q 3597 2675 3597 1894 
z
M 3022 2063 
Q 3016 2534 2758 2815 
Q 2500 3097 2075 3097 
Q 1594 3097 1305 2825 
Q 1016 2553 972 2059 
L 3022 2063 
z
" transform="scale(0.015625)"/>
       <path id="DejaVuSans-61" d="M 2194 1759 
Q 1497 1759 1228 1600 
Q 959 1441 959 1056 
Q 959 750 1161 570 
Q 1363 391 1709 391 
Q 2188 391 2477 730 
Q 2766 1069 2766 1631 
L 2766 1759 
L 2194 1759 
z
M 3341 1997 
L 3341 0 
L 2766 0 
L 2766 531 
Q 2569 213 2275 61 
Q 1981 -91 1556 -91 
Q 1019 -91 701 211 
Q 384 513 384 1019 
Q 384 1609 779 1909 
Q 1175 2209 1959 2209 
L 2766 2209 
L 2766 2266 
Q 2766 2663 2505 2880 
Q 2244 3097 1772 3097 
Q 1472 3097 1187 3025 
Q 903 2953 641 2809 
L 641 3341 
Q 956 3463 1253 3523 
Q 1550 3584 1831 3584 
Q 2591 3584 2966 3190 
Q 3341 2797 3341 1997 
z
" transform="scale(0.015625)"/>
       <path id="DejaVuSans-72" d="M 2631 2963 
Q 2534 3019 2420 3045 
Q 2306 3072 2169 3072 
Q 1681 3072 1420 2755 
Q 1159 2438 1159 1844 
L 1159 0 
L 581 0 
L 581 3500 
L 1159 3500 
L 1159 2956 
Q 1341 3275 1631 3429 
Q 1922 3584 2338 3584 
Q 2397 3584 2469 3576 
Q 2541 3569 2628 3553 
L 2631 2963 
z
" transform="scale(0.015625)"/>
       <path id="DejaVuSans-6e" d="M 3513 2113 
L 3513 0 
L 2938 0 
L 2938 2094 
Q 2938 2591 2744 2837 
Q 2550 3084 2163 3084 
Q 1697 3084 1428 2787 
Q 1159 2491 1159 1978 
L 1159 0 
L 581 0 
L 581 3500 
L 1159 3500 
L 1159 2956 
Q 1366 3272 1645 3428 
Q 1925 3584 2291 3584 
Q 2894 3584 3203 3211 
Q 3513 2838 3513 2113 
z
" transform="scale(0.015625)"/>
       <path id="DejaVuSans-64" d="M 2906 2969 
L 2906 4863 
L 3481 4863 
L 3481 0 
L 2906 0 
L 2906 525 
Q 2725 213 2448 61 
Q 2172 -91 1784 -91 
Q 1150 -91 751 415 
Q 353 922 353 1747 
Q 353 2572 751 3078 
Q 1150 3584 1784 3584 
Q 2172 3584 2448 3432 
Q 2725 3281 2906 2969 
z
M 947 1747 
Q 947 1113 1208 752 
Q 1469 391 1925 391 
Q 2381 391 2643 752 
Q 2906 1113 2906 1747 
Q 2906 2381 2643 2742 
Q 2381 3103 1925 3103 
Q 1469 3103 1208 2742 
Q 947 2381 947 1747 
z
" transform="scale(0.015625)"/>
       <path id="DejaVuSans-20" transform="scale(0.015625)"/>
       <path id="DejaVuSans-45" d="M 628 4666 
L 3578 4666 
L 3578 4134 
L 1259 4134 
L 1259 2753 
L 3481 2753 
L 3481 2222 
L 1259 2222 
L 1259 531 
L 3634 531 
L 3634 0 
L 628 0 
L 628 4666 
z
" transform="scale(0.015625)"/>
       <path id="DejaVuSans-70" d="M 1159 525 
L 1159 -1331 
L 581 -1331 
L 581 3500 
L 1159 3500 
L 1159 2969 
Q 1341 3281 1617 3432 
Q 1894 3584 2278 3584 
Q 2916 3584 3314 3078 
Q 3713 2572 3713 1747 
Q 3713 922 3314 415 
Q 2916 -91 2278 -91 
Q 1894 -91 1617 61 
Q 1341 213 1159 525 
z
M 3116 1747 
Q 3116 2381 2855 2742 
Q 2594 3103 2138 3103 
Q 1681 3103 1420 2742 
Q 1159 2381 1159 1747 
Q 1159 1113 1420 752 
Q 1681 391 2138 391 
Q 2594 391 2855 752 
Q 3116 1113 3116 1747 
z
" transform="scale(0.015625)"/>
       <path id="DejaVuSans-69" d="M 603 3500 
L 1178 3500 
L 1178 0 
L 603 0 
L 603 3500 
z
M 603 4863 
L 1178 4863 
L 1178 4134 
L 603 4134 
L 603 4863 
z
" transform="scale(0.015625)"/>
       <path id="DejaVuSans-73" d="M 2834 3397 
L 2834 2853 
Q 2591 2978 2328 3040 
Q 2066 3103 1784 3103 
Q 1356 3103 1142 2972 
Q 928 2841 928 2578 
Q 928 2378 1081 2264 
Q 1234 2150 1697 2047 
L 1894 2003 
Q 2506 1872 2764 1633 
Q 3022 1394 3022 966 
Q 3022 478 2636 193 
Q 2250 -91 1575 -91 
Q 1294 -91 989 -36 
Q 684 19 347 128 
L 347 722 
Q 666 556 975 473 
Q 1284 391 1588 391 
Q 1994 391 2212 530 
Q 2431 669 2431 922 
Q 2431 1156 2273 1281 
Q 2116 1406 1581 1522 
L 1381 1569 
Q 847 1681 609 1914 
Q 372 2147 372 2553 
Q 372 3047 722 3315 
Q 1072 3584 1716 3584 
Q 2034 3584 2315 3537 
Q 2597 3491 2834 3397 
z
" transform="scale(0.015625)"/>
       <path id="DejaVuSans-6f" d="M 1959 3097 
Q 1497 3097 1228 2736 
Q 959 2375 959 1747 
Q 959 1119 1226 758 
Q 1494 397 1959 397 
Q 2419 397 2687 759 
Q 2956 1122 2956 1747 
Q 2956 2369 2687 2733 
Q 2419 3097 1959 3097 
z
M 1959 3584 
Q 2709 3584 3137 3096 
Q 3566 2609 3566 1747 
Q 3566 888 3137 398 
Q 2709 -91 1959 -91 
Q 1206 -91 779 398 
Q 353 888 353 1747 
Q 353 2609 779 3096 
Q 1206 3584 1959 3584 
z
" transform="scale(0.015625)"/>
      </defs>
      <use xlink:href="#DejaVuSans-4c"/>
      <use xlink:href="#DejaVuSans-65" x="53.962891"/>
      <use xlink:href="#DejaVuSans-61" x="115.486328"/>
      <use xlink:href="#DejaVuSans-72" x="176.765625"/>
      <use xlink:href="#DejaVuSans-6e" x="216.128906"/>
      <use xlink:href="#DejaVuSans-65" x="279.507812"/>
      <use xlink:href="#DejaVuSans-64" x="341.03125"/>
      <use xlink:href="#DejaVuSans-20" x="404.507812"/>
      <use xlink:href="#DejaVuSans-45" x="436.294922"/>
      <use xlink:href="#DejaVuSans-70" x="499.478516"/>
      <use xlink:href="#DejaVuSans-69" x="562.955078"/>
      <use xlink:href="#DejaVuSans-73" x="590.738281"/>
      <use xlink:href="#DejaVuSans-6f" x="642.837891"/>
      <use xlink:href="#DejaVuSans-64" x="704.019531"/>
      <use xlink:href="#DejaVuSans-65" x="767.496094"/>
      <use xlink:href="#DejaVuSans-73" x="829.019531"/>
     </g>
    </g>
   </g>
   <g id="matplotlib.axis_2">
    <g id="ytick_1">
     <g id="line2d_13">
      <path d="M 57.6 292.34253 
L 414.72 292.34253 
" clip-path="url(#pd3a5b4c7bd)" style="fill: none; stroke-dasharray: 2.96,1.28; stroke-dashoffset: 0; stroke: #b0b0b0; stroke-width: 0.8"/>
     </g>
     <g id="line2d_14">
      <defs>
       <path id="m135f891641" d="M 0 0 
L -3.5 0 
" style="stroke: #000000; stroke-width: 0.8"/>
      </defs>
      <g>
       <use xlink:href="#m135f891641" x="57.6" y="292.34253" style="stroke: #000000; stroke-width: 0.8"/>
      </g>
     </g>
     <g id="text_8">
      <!-- 100 -->
      <g transform="translate(31.5125 296.141749)scale(0.1 -0.1)">
       <use xlink:href="#DejaVuSans-31"/>
       <use xlink:href="#DejaVuSans-30" x="63.623047"/>
       <use xlink:href="#DejaVuSans-30" x="127.246094"/>
      </g>
     </g>
    </g>
    <g id="ytick_2">
     <g id="line2d_15">
      <path d="M 57.6 248.411391 
L 414.72 248.411391 
" clip-path="url(#pd3a5b4c7bd)" style="fill: none; stroke-dasharray: 2.96,1.28; stroke-dashoffset: 0; stroke: #b0b0b0; stroke-width: 0.8"/>
     </g>
     <g id="line2d_16">
      <g>
       <use xlink:href="#m135f891641" x="57.6" y="248.411391" style="stroke: #000000; stroke-width: 0.8"/>
      </g>
     </g>
     <g id="text_9">
      <!-- 150 -->
      <g transform="translate(31.5125 252.210609)scale(0.1 -0.1)">
       <use xlink:href="#DejaVuSans-31"/>
       <use xlink:href="#DejaVuSans-35" x="63.623047"/>
       <use xlink:href="#DejaVuSans-30" x="127.246094"/>
      </g>
     </g>
    </g>
    <g id="ytick_3">
     <g id="line2d_17">
      <path d="M 57.6 204.480251 
L 414.72 204.480251 
" clip-path="url(#pd3a5b4c7bd)" style="fill: none; stroke-dasharray: 2.96,1.28; stroke-dashoffset: 0; stroke: #b0b0b0; stroke-width: 0.8"/>
     </g>
     <g id="line2d_18">
      <g>
       <use xlink:href="#m135f891641" x="57.6" y="204.480251" style="stroke: #000000; stroke-width: 0.8"/>
      </g>
     </g>
     <g id="text_10">
      <!-- 200 -->
      <g transform="translate(31.5125 208.27947)scale(0.1 -0.1)">
       <use xlink:href="#DejaVuSans-32"/>
       <use xlink:href="#DejaVuSans-30" x="63.623047"/>
       <use xlink:href="#DejaVuSans-30" x="127.246094"/>
      </g>
     </g>
    </g>
    <g id="ytick_4">
     <g id="line2d_19">
      <path d="M 57.6 160.549111 
L 414.72 160.549111 
" clip-path="url(#pd3a5b4c7bd)" style="fill: none; stroke-dasharray: 2.96,1.28; stroke-dashoffset: 0; stroke: #b0b0b0; stroke-width: 0.8"/>
     </g>
     <g id="line2d_20">
      <g>
       <use xlink:href="#m135f891641" x="57.6" y="160.549111" style="stroke: #000000; stroke-width: 0.8"/>
      </g>
     </g>
     <g id="text_11">
      <!-- 250 -->
      <g transform="translate(31.5125 164.34833)scale(0.1 -0.1)">
       <use xlink:href="#DejaVuSans-32"/>
       <use xlink:href="#DejaVuSans-35" x="63.623047"/>
       <use xlink:href="#DejaVuSans-30" x="127.246094"/>
      </g>
     </g>
    </g>
    <g id="ytick_5">
     <g id="line2d_21">
      <path d="M 57.6 116.617972 
L 414.72 116.617972 
" clip-path="url(#pd3a5b4c7bd)" style="fill: none; stroke-dasharray: 2.96,1.28; stroke-dashoffset: 0; stroke: #b0b0b0; stroke-width: 0.8"/>
     </g>
     <g id="line2d_22">
      <g>
       <use xlink:href="#m135f891641" x="57.6" y="116.617972" style="stroke: #000000; stroke-width: 0.8"/>
      </g>
     </g>
     <g id="text_12">
      <!-- 300 -->
      <g transform="translate(31.5125 120.41719)scale(0.1 -0.1)">
       <use xlink:href="#DejaVuSans-33"/>
       <use xlink:href="#DejaVuSans-30" x="63.623047"/>
       <use xlink:href="#DejaVuSans-30" x="127.246094"/>
      </g>
     </g>
    </g>
    <g id="ytick_6">
     <g id="line2d_23">
      <path d="M 57.6 72.686832 
L 414.72 72.686832 
" clip-path="url(#pd3a5b4c7bd)" style="fill: none; stroke-dasharray: 2.96,1.28; stroke-dashoffset: 0; stroke: #b0b0b0; stroke-width: 0.8"/>
     </g>
     <g id="line2d_24">
      <g>
       <use xlink:href="#m135f891641" x="57.6" y="72.686832" style="stroke: #000000; stroke-width: 0.8"/>
      </g>
     </g>
     <g id="text_13">
      <!-- 350 -->
      <g transform="translate(31.5125 76.486051)scale(0.1 -0.1)">
       <use xlink:href="#DejaVuSans-33"/>
       <use xlink:href="#DejaVuSans-35" x="63.623047"/>
       <use xlink:href="#DejaVuSans-30" x="127.246094"/>
      </g>
     </g>
    </g>
    <g id="text_14">
     <!-- Reward Density -->
     <g transform="translate(25.432812 213.74675)rotate(-90)scale(0.1 -0.1)">
      <defs>
       <path id="DejaVuSans-52" d="M 2841 2188 
Q 3044 2119 3236 1894 
Q 3428 1669 3622 1275 
L 4263 0 
L 3584 0 
L 2988 1197 
Q 2756 1666 2539 1819 
Q 2322 1972 1947 1972 
L 1259 1972 
L 1259 0 
L 628 0 
L 628 4666 
L 2053 4666 
Q 2853 4666 3247 4331 
Q 3641 3997 3641 3322 
Q 3641 2881 3436 2590 
Q 3231 2300 2841 2188 
z
M 1259 4147 
L 1259 2491 
L 2053 2491 
Q 2509 2491 2742 2702 
Q 2975 2913 2975 3322 
Q 2975 3731 2742 3939 
Q 2509 4147 2053 4147 
L 1259 4147 
z
" transform="scale(0.015625)"/>
       <path id="DejaVuSans-77" d="M 269 3500 
L 844 3500 
L 1563 769 
L 2278 3500 
L 2956 3500 
L 3675 769 
L 4391 3500 
L 4966 3500 
L 4050 0 
L 3372 0 
L 2619 2869 
L 1863 0 
L 1184 0 
L 269 3500 
z
" transform="scale(0.015625)"/>
       <path id="DejaVuSans-44" d="M 1259 4147 
L 1259 519 
L 2022 519 
Q 2988 519 3436 956 
Q 3884 1394 3884 2338 
Q 3884 3275 3436 3711 
Q 2988 4147 2022 4147 
L 1259 4147 
z
M 628 4666 
L 1925 4666 
Q 3281 4666 3915 4102 
Q 4550 3538 4550 2338 
Q 4550 1131 3912 565 
Q 3275 0 1925 0 
L 628 0 
L 628 4666 
z
" transform="scale(0.015625)"/>
       <path id="DejaVuSans-74" d="M 1172 4494 
L 1172 3500 
L 2356 3500 
L 2356 3053 
L 1172 3053 
L 1172 1153 
Q 1172 725 1289 603 
Q 1406 481 1766 481 
L 2356 481 
L 2356 0 
L 1766 0 
Q 1100 0 847 248 
Q 594 497 594 1153 
L 594 3053 
L 172 3053 
L 172 3500 
L 594 3500 
L 594 4494 
L 1172 4494 
z
" transform="scale(0.015625)"/>
       <path id="DejaVuSans-79" d="M 2059 -325 
Q 1816 -950 1584 -1140 
Q 1353 -1331 966 -1331 
L 506 -1331 
L 506 -850 
L 844 -850 
Q 1081 -850 1212 -737 
Q 1344 -625 1503 -206 
L 1606 56 
L 191 3500 
L 800 3500 
L 1894 763 
L 2988 3500 
L 3597 3500 
L 2059 -325 
z
" transform="scale(0.015625)"/>
      </defs>
      <use xlink:href="#DejaVuSans-52"/>
      <use xlink:href="#DejaVuSans-65" x="64.982422"/>
      <use xlink:href="#DejaVuSans-77" x="126.505859"/>
      <use xlink:href="#DejaVuSans-61" x="208.292969"/>
      <use xlink:href="#DejaVuSans-72" x="269.572266"/>
      <use xlink:href="#DejaVuSans-64" x="308.935547"/>
      <use xlink:href="#DejaVuSans-20" x="372.412109"/>
      <use xlink:href="#DejaVuSans-44" x="404.199219"/>
      <use xlink:href="#DejaVuSans-65" x="481.201172"/>
      <use xlink:href="#DejaVuSans-6e" x="542.724609"/>
      <use xlink:href="#DejaVuSans-73" x="606.103516"/>
      <use xlink:href="#DejaVuSans-69" x="658.203125"/>
      <use xlink:href="#DejaVuSans-74" x="685.986328"/>
      <use xlink:href="#DejaVuSans-79" x="725.195312"/>
     </g>
    </g>
   </g>
   <g id="LineCollection_1">
    <path d="M 90.919809 184.099471 
L 125.093971 184.099471 
" clip-path="url(#pd3a5b4c7bd)" style="fill: none; stroke: #1f77b4; stroke-width: 1.5"/>
    <path d="M 176.355215 189.45053 
L 210.529378 189.45053 
" clip-path="url(#pd3a5b4c7bd)" style="fill: none; stroke: #1f77b4; stroke-width: 1.5"/>
    <path d="M 261.790622 195.312736 
L 295.964785 195.312736 
" clip-path="url(#pd3a5b4c7bd)" style="fill: none; stroke: #1f77b4; stroke-width: 1.5"/>
    <path d="M 347.226029 193.540413 
L 381.400191 193.540413 
" clip-path="url(#pd3a5b4c7bd)" style="fill: none; stroke: #1f77b4; stroke-width: 1.5"/>
   </g>
   <g id="LineCollection_2">
    <path d="M 90.919809 53.568 
L 125.093971 53.568 
" clip-path="url(#pd3a5b4c7bd)" style="fill: none; stroke: #1f77b4; stroke-width: 1.5"/>
    <path d="M 176.355215 65.394263 
L 210.529378 65.394263 
" clip-path="url(#pd3a5b4c7bd)" style="fill: none; stroke: #1f77b4; stroke-width: 1.5"/>
    <path d="M 261.790622 72.31781 
L 295.964785 72.31781 
" clip-path="url(#pd3a5b4c7bd)" style="fill: none; stroke: #1f77b4; stroke-width: 1.5"/>
    <path d="M 347.226029 63.37343 
L 381.400191 63.37343 
" clip-path="url(#pd3a5b4c7bd)" style="fill: none; stroke: #1f77b4; stroke-width: 1.5"/>
   </g>
   <g id="LineCollection_3">
    <path d="M 90.919809 295.488 
L 125.093971 295.488 
" clip-path="url(#pd3a5b4c7bd)" style="fill: none; stroke: #1f77b4; stroke-width: 1.5"/>
    <path d="M 176.355215 279.53221 
L 210.529378 279.53221 
" clip-path="url(#pd3a5b4c7bd)" style="fill: none; stroke: #1f77b4; stroke-width: 1.5"/>
    <path d="M 261.790622 276.773334 
L 295.964785 276.773334 
" clip-path="url(#pd3a5b4c7bd)" style="fill: none; stroke: #1f77b4; stroke-width: 1.5"/>
    <path d="M 347.226029 286.280033 
L 381.400191 286.280033 
" clip-path="url(#pd3a5b4c7bd)" style="fill: none; stroke: #1f77b4; stroke-width: 1.5"/>
   </g>
   <g id="LineCollection_4">
    <path d="M 108.00689 295.488 
L 108.00689 53.568 
" clip-path="url(#pd3a5b4c7bd)" style="fill: none; stroke: #1f77b4; stroke-width: 1.5"/>
    <path d="M 193.442297 279.53221 
L 193.442297 65.394263 
" clip-path="url(#pd3a5b4c7bd)" style="fill: none; stroke: #1f77b4; stroke-width: 1.5"/>
    <path d="M 278.877703 276.773334 
L 278.877703 72.31781 
" clip-path="url(#pd3a5b4c7bd)" style="fill: none; stroke: #1f77b4; stroke-width: 1.5"/>
    <path d="M 364.31311 286.280033 
L 364.31311 63.37343 
" clip-path="url(#pd3a5b4c7bd)" style="fill: none; stroke: #1f77b4; stroke-width: 1.5"/>
   </g>
   <g id="line2d_25">
    <path d="M 108.00689 184.099471 
L 193.442297 189.45053 
L 278.877703 195.312736 
L 364.31311 193.540413 
" clip-path="url(#pd3a5b4c7bd)" style="fill: none; stroke: #4682b4; stroke-width: 1.5; stroke-linecap: square"/>
   </g>
   <g id="line2d_26">
    <path d="M 108.00689 184.099471 
L 193.442297 189.45053 
L 278.877703 195.312736 
L 364.31311 193.540413 
" clip-path="url(#pd3a5b4c7bd)" style="fill: none; stroke: #4682b4; stroke-width: 1.5; stroke-linecap: square"/>
   </g>
   <g id="patch_3">
    <path d="M 57.6 307.584 
L 57.6 41.472 
" style="fill: none; stroke: #000000; stroke-width: 0.8; stroke-linejoin: miter; stroke-linecap: square"/>
   </g>
   <g id="patch_4">
    <path d="M 414.72 307.584 
L 414.72 41.472 
" style="fill: none; stroke: #000000; stroke-width: 0.8; stroke-linejoin: miter; stroke-linecap: square"/>
   </g>
   <g id="patch_5">
    <path d="M 57.6 307.584 
L 414.72 307.584 
" style="fill: none; stroke: #000000; stroke-width: 0.8; stroke-linejoin: miter; stroke-linecap: square"/>
   </g>
   <g id="patch_6">
    <path d="M 57.6 41.472 
L 414.72 41.472 
" style="fill: none; stroke: #000000; stroke-width: 0.8; stroke-linejoin: miter; stroke-linecap: square"/>
   </g>
   <g id="text_15">
    <!-- Violinplot for progress of state/in_circulation -->
    <g transform="translate(103.735312 35.472)scale(0.12 -0.12)">
     <defs>
      <path id="DejaVuSans-56" d="M 1831 0 
L 50 4666 
L 709 4666 
L 2188 738 
L 3669 4666 
L 4325 4666 
L 2547 0 
L 1831 0 
z
" transform="scale(0.015625)"/>
      <path id="DejaVuSans-6c" d="M 603 4863 
L 1178 4863 
L 1178 0 
L 603 0 
L 603 4863 
z
" transform="scale(0.015625)"/>
      <path id="DejaVuSans-66" d="M 2375 4863 
L 2375 4384 
L 1825 4384 
Q 1516 4384 1395 4259 
Q 1275 4134 1275 3809 
L 1275 3500 
L 2222 3500 
L 2222 3053 
L 1275 3053 
L 1275 0 
L 697 0 
L 697 3053 
L 147 3053 
L 147 3500 
L 697 3500 
L 697 3744 
Q 697 4328 969 4595 
Q 1241 4863 1831 4863 
L 2375 4863 
z
" transform="scale(0.015625)"/>
      <path id="DejaVuSans-67" d="M 2906 1791 
Q 2906 2416 2648 2759 
Q 2391 3103 1925 3103 
Q 1463 3103 1205 2759 
Q 947 2416 947 1791 
Q 947 1169 1205 825 
Q 1463 481 1925 481 
Q 2391 481 2648 825 
Q 2906 1169 2906 1791 
z
M 3481 434 
Q 3481 -459 3084 -895 
Q 2688 -1331 1869 -1331 
Q 1566 -1331 1297 -1286 
Q 1028 -1241 775 -1147 
L 775 -588 
Q 1028 -725 1275 -790 
Q 1522 -856 1778 -856 
Q 2344 -856 2625 -561 
Q 2906 -266 2906 331 
L 2906 616 
Q 2728 306 2450 153 
Q 2172 0 1784 0 
Q 1141 0 747 490 
Q 353 981 353 1791 
Q 353 2603 747 3093 
Q 1141 3584 1784 3584 
Q 2172 3584 2450 3431 
Q 2728 3278 2906 2969 
L 2906 3500 
L 3481 3500 
L 3481 434 
z
" transform="scale(0.015625)"/>
      <path id="DejaVuSans-2f" d="M 1625 4666 
L 2156 4666 
L 531 -594 
L 0 -594 
L 1625 4666 
z
" transform="scale(0.015625)"/>
      <path id="DejaVuSans-5f" d="M 3263 -1063 
L 3263 -1509 
L -63 -1509 
L -63 -1063 
L 3263 -1063 
z
" transform="scale(0.015625)"/>
      <path id="DejaVuSans-63" d="M 3122 3366 
L 3122 2828 
Q 2878 2963 2633 3030 
Q 2388 3097 2138 3097 
Q 1578 3097 1268 2742 
Q 959 2388 959 1747 
Q 959 1106 1268 751 
Q 1578 397 2138 397 
Q 2388 397 2633 464 
Q 2878 531 3122 666 
L 3122 134 
Q 2881 22 2623 -34 
Q 2366 -91 2075 -91 
Q 1284 -91 818 406 
Q 353 903 353 1747 
Q 353 2603 823 3093 
Q 1294 3584 2113 3584 
Q 2378 3584 2631 3529 
Q 2884 3475 3122 3366 
z
" transform="scale(0.015625)"/>
      <path id="DejaVuSans-75" d="M 544 1381 
L 544 3500 
L 1119 3500 
L 1119 1403 
Q 1119 906 1312 657 
Q 1506 409 1894 409 
Q 2359 409 2629 706 
Q 2900 1003 2900 1516 
L 2900 3500 
L 3475 3500 
L 3475 0 
L 2900 0 
L 2900 538 
Q 2691 219 2414 64 
Q 2138 -91 1772 -91 
Q 1169 -91 856 284 
Q 544 659 544 1381 
z
M 1991 3584 
L 1991 3584 
z
" transform="scale(0.015625)"/>
     </defs>
     <use xlink:href="#DejaVuSans-56"/>
     <use xlink:href="#DejaVuSans-69" x="66.158203"/>
     <use xlink:href="#DejaVuSans-6f" x="93.941406"/>
     <use xlink:href="#DejaVuSans-6c" x="155.123047"/>
     <use xlink:href="#DejaVuSans-69" x="182.90625"/>
     <use xlink:href="#DejaVuSans-6e" x="210.689453"/>
     <use xlink:href="#DejaVuSans-70" x="274.068359"/>
     <use xlink:href="#DejaVuSans-6c" x="337.544922"/>
     <use xlink:href="#DejaVuSans-6f" x="365.328125"/>
     <use xlink:href="#DejaVuSans-74" x="426.509766"/>
     <use xlink:href="#DejaVuSans-20" x="465.71875"/>
     <use xlink:href="#DejaVuSans-66" x="497.505859"/>
     <use xlink:href="#DejaVuSans-6f" x="532.710938"/>
     <use xlink:href="#DejaVuSans-72" x="593.892578"/>
     <use xlink:href="#DejaVuSans-20" x="635.005859"/>
     <use xlink:href="#DejaVuSans-70" x="666.792969"/>
     <use xlink:href="#DejaVuSans-72" x="730.269531"/>
     <use xlink:href="#DejaVuSans-6f" x="769.132812"/>
     <use xlink:href="#DejaVuSans-67" x="830.314453"/>
     <use xlink:href="#DejaVuSans-72" x="893.791016"/>
     <use xlink:href="#DejaVuSans-65" x="932.654297"/>
     <use xlink:href="#DejaVuSans-73" x="994.177734"/>
     <use xlink:href="#DejaVuSans-73" x="1046.277344"/>
     <use xlink:href="#DejaVuSans-20" x="1098.376953"/>
     <use xlink:href="#DejaVuSans-6f" x="1130.164062"/>
     <use xlink:href="#DejaVuSans-66" x="1191.345703"/>
     <use xlink:href="#DejaVuSans-20" x="1226.550781"/>
     <use xlink:href="#DejaVuSans-73" x="1258.337891"/>
     <use xlink:href="#DejaVuSans-74" x="1310.4375"/>
     <use xlink:href="#DejaVuSans-61" x="1349.646484"/>
     <use xlink:href="#DejaVuSans-74" x="1410.925781"/>
     <use xlink:href="#DejaVuSans-65" x="1450.134766"/>
     <use xlink:href="#DejaVuSans-2f" x="1511.658203"/>
     <use xlink:href="#DejaVuSans-69" x="1545.349609"/>
     <use xlink:href="#DejaVuSans-6e" x="1573.132812"/>
     <use xlink:href="#DejaVuSans-5f" x="1636.511719"/>
     <use xlink:href="#DejaVuSans-63" x="1686.511719"/>
     <use xlink:href="#DejaVuSans-69" x="1741.492188"/>
     <use xlink:href="#DejaVuSans-72" x="1769.275391"/>
     <use xlink:href="#DejaVuSans-63" x="1808.138672"/>
     <use xlink:href="#DejaVuSans-75" x="1863.119141"/>
     <use xlink:href="#DejaVuSans-6c" x="1926.498047"/>
     <use xlink:href="#DejaVuSans-61" x="1954.28125"/>
     <use xlink:href="#DejaVuSans-74" x="2015.560547"/>
     <use xlink:href="#DejaVuSans-69" x="2054.769531"/>
     <use xlink:href="#DejaVuSans-6f" x="2082.552734"/>
     <use xlink:href="#DejaVuSans-6e" x="2143.734375"/>
    </g>
   </g>
  </g>
 </g>
 <defs>
  <clipPath id="pd3a5b4c7bd">
   <rect x="57.6" y="41.472" width="357.12" height="266.112"/>
  </clipPath>
 </defs>
</svg>
