<?xml version="1.0" encoding="utf-8" standalone="no"?>
<!DOCTYPE svg PUBLIC "-//W3C//DTD SVG 1.1//EN"
  "http://www.w3.org/Graphics/SVG/1.1/DTD/svg11.dtd">
<svg xmlns:xlink="http://www.w3.org/1999/xlink" width="460.8pt" height="345.6pt" viewBox="0 0 460.8 345.6" xmlns="http://www.w3.org/2000/svg" version="1.1">
 <metadata>
  <rdf:RDF xmlns:dc="http://purl.org/dc/elements/1.1/" xmlns:cc="http://creativecommons.org/ns#" xmlns:rdf="http://www.w3.org/1999/02/22-rdf-syntax-ns#">
   <cc:Work>
    <dc:type rdf:resource="http://purl.org/dc/dcmitype/StillImage"/>
    <dc:date>2022-06-15T18:26:48.856613</dc:date>
    <dc:format>image/svg+xml</dc:format>
    <dc:creator>
     <cc:Agent>
      <dc:title>Matplotlib v3.5.2, https://matplotlib.org/</dc:title>
     </cc:Agent>
    </dc:creator>
   </cc:Work>
  </rdf:RDF>
 </metadata>
 <defs>
  <style type="text/css">*{stroke-linejoin: round; stroke-linecap: butt}</style>
 </defs>
 <g id="figure_1">
  <g id="patch_1">
   <path d="M 0 345.6 
L 460.8 345.6 
L 460.8 0 
L 0 0 
z
" style="fill: #ffffff"/>
  </g>
  <g id="axes_1">
   <g id="patch_2">
    <path d="M 57.6 307.584 
L 414.72 307.584 
L 414.72 41.472 
L 57.6 41.472 
z
" style="fill: #ffffff"/>
   </g>
   <g id="PolyCollection_1">
    <path d="M 116.312808 214.619558 
L 106.311366 214.619558 
L 105.454839 212.992775 
L 104.518251 211.365991 
L 103.498238 209.739208 
L 102.389802 208.112424 
L 101.186568 206.485641 
L 99.881565 204.858858 
L 98.468528 203.232074 
L 96.943622 201.605291 
L 95.307363 199.978507 
L 93.566478 198.351724 
L 91.735338 196.724941 
L 89.836665 195.098157 
L 87.901266 193.471374 
L 85.966691 191.84459 
L 84.074864 190.217807 
L 82.26894 188.591023 
L 80.589762 186.96424 
L 79.072408 185.337457 
L 77.743328 183.710673 
L 76.618483 182.08389 
L 75.702753 180.457106 
L 74.990671 178.830323 
L 74.46832 177.20354 
L 74.116046 175.576756 
L 73.911527 173.949973 
L 73.832727 172.323189 
L 73.860327 170.696406 
L 73.979386 169.069622 
L 74.180141 167.442839 
L 74.458041 165.816056 
L 74.813195 164.189272 
L 75.24947 162.562489 
L 75.773437 160.935705 
L 76.393295 159.308922 
L 77.117763 157.682139 
L 77.95492 156.055355 
L 78.910897 154.428572 
L 79.9884 152.801788 
L 81.185125 151.175005 
L 82.49226 149.548221 
L 83.893344 147.921438 
L 85.363805 146.294655 
L 86.871437 144.667871 
L 88.377954 143.041088 
L 89.841578 141.414304 
L 91.220392 139.787521 
L 92.476069 138.160738 
L 93.577473 136.533954 
L 94.503634 134.907171 
L 95.245713 133.280387 
L 95.807691 131.653604 
L 96.205754 130.02682 
L 96.466475 128.400037 
L 96.624062 126.773254 
L 96.717048 125.14647 
L 96.784804 123.519687 
L 96.864266 121.892903 
L 96.98719 120.26612 
L 97.178149 118.639337 
L 97.453403 117.012553 
L 97.820611 115.38577 
L 98.279307 113.758986 
L 98.821966 112.132203 
L 99.435462 110.50542 
L 100.102714 108.878636 
L 100.80437 107.251853 
L 101.520412 105.625069 
L 102.231592 103.998286 
L 102.920687 102.371502 
L 103.573526 100.744719 
L 104.179782 99.117936 
L 104.733462 97.491152 
L 105.23307 95.864369 
L 105.681386 94.237585 
L 106.084847 92.610802 
L 106.452556 90.984019 
L 106.795018 89.357235 
L 107.12273 87.730452 
L 107.444823 86.103668 
L 107.767925 84.476885 
L 108.095421 82.850101 
L 108.427196 81.223318 
L 108.759875 79.596535 
L 109.08751 77.969751 
L 109.402559 76.342968 
L 109.697008 74.716184 
L 109.963451 73.089401 
L 110.195988 71.462618 
L 110.390843 69.835834 
L 110.546676 68.209051 
L 110.664576 66.582267 
L 110.747812 64.955484 
L 110.801387 63.3287 
L 110.831483 61.701917 
L 110.844852 60.075134 
L 110.848222 58.44835 
L 110.847758 56.821567 
L 110.848623 55.194783 
L 110.854674 53.568 
L 111.769501 53.568 
L 111.769501 53.568 
L 111.775552 55.194783 
L 111.776417 56.821567 
L 111.775952 58.44835 
L 111.779322 60.075134 
L 111.792692 61.701917 
L 111.822788 63.3287 
L 111.876363 64.955484 
L 111.959598 66.582267 
L 112.077498 68.209051 
L 112.233331 69.835834 
L 112.428187 71.462618 
L 112.660724 73.089401 
L 112.927167 74.716184 
L 113.221616 76.342968 
L 113.536665 77.969751 
L 113.864299 79.596535 
L 114.196979 81.223318 
L 114.528754 82.850101 
L 114.85625 84.476885 
L 115.179352 86.103668 
L 115.501445 87.730452 
L 115.829157 89.357235 
L 116.171618 90.984019 
L 116.539328 92.610802 
L 116.942788 94.237585 
L 117.391105 95.864369 
L 117.890713 97.491152 
L 118.444392 99.117936 
L 119.050648 100.744719 
L 119.703488 102.371502 
L 120.392582 103.998286 
L 121.103762 105.625069 
L 121.819804 107.251853 
L 122.521461 108.878636 
L 123.188712 110.50542 
L 123.802208 112.132203 
L 124.344868 113.758986 
L 124.803564 115.38577 
L 125.170771 117.012553 
L 125.446025 118.639337 
L 125.636985 120.26612 
L 125.759908 121.892903 
L 125.839371 123.519687 
L 125.907127 125.14647 
L 126.000113 126.773254 
L 126.1577 128.400037 
L 126.41842 130.02682 
L 126.816484 131.653604 
L 127.378462 133.280387 
L 128.12054 134.907171 
L 129.046702 136.533954 
L 130.148106 138.160738 
L 131.403783 139.787521 
L 132.782596 141.414304 
L 134.24622 143.041088 
L 135.752738 144.667871 
L 137.260369 146.294655 
L 138.73083 147.921438 
L 140.131915 149.548221 
L 141.43905 151.175005 
L 142.635775 152.801788 
L 143.713277 154.428572 
L 144.669255 156.055355 
L 145.506412 157.682139 
L 146.23088 159.308922 
L 146.850737 160.935705 
L 147.374705 162.562489 
L 147.810979 164.189272 
L 148.166134 165.816056 
L 148.444034 167.442839 
L 148.644789 169.069622 
L 148.763847 170.696406 
L 148.791447 172.323189 
L 148.712648 173.949973 
L 148.508129 175.576756 
L 148.155855 177.20354 
L 147.633504 178.830323 
L 146.921421 180.457106 
L 146.005691 182.08389 
L 144.880847 183.710673 
L 143.551767 185.337457 
L 142.034413 186.96424 
L 140.355234 188.591023 
L 138.54931 190.217807 
L 136.657484 191.84459 
L 134.722908 193.471374 
L 132.78751 195.098157 
L 130.888836 196.724941 
L 129.057697 198.351724 
L 127.316812 199.978507 
L 125.680553 201.605291 
L 124.155646 203.232074 
L 122.74261 204.858858 
L 121.437607 206.485641 
L 120.234373 208.112424 
L 119.125936 209.739208 
L 118.105923 211.365991 
L 117.169335 212.992775 
L 116.312808 214.619558 
z
" clip-path="url(#p2baac12ac1)" style="fill: #1f77b4; fill-opacity: 0.3"/>
   </g>
   <g id="PolyCollection_2">
    <path d="M 197.480809 295.488 
L 191.718299 295.488 
L 191.296181 294.269643 
L 190.850556 293.051286 
L 190.379907 291.832929 
L 189.880842 290.614572 
L 189.348506 289.396215 
L 188.777395 288.177858 
L 188.162415 286.959501 
L 187.500015 285.741144 
L 186.789131 284.522788 
L 186.031723 283.304431 
L 185.232747 282.086074 
L 184.399519 280.867717 
L 183.54057 279.64936 
L 182.664192 278.431003 
L 181.776977 277.212646 
L 180.882645 275.994289 
L 179.981418 274.775932 
L 179.070058 273.557575 
L 178.142578 272.339218 
L 177.191449 271.120861 
L 176.209052 269.902504 
L 175.189082 268.684147 
L 174.127619 267.46579 
L 173.023698 266.247433 
L 171.879339 265.029076 
L 170.699139 263.81072 
L 169.48963 262.592363 
L 168.25867 261.374006 
L 167.01512 260.155649 
L 165.768938 258.937292 
L 164.531714 257.718935 
L 163.317485 256.500578 
L 162.143567 255.282221 
L 161.031065 254.063864 
L 160.004761 252.845507 
L 159.092221 251.62715 
L 158.322099 250.408793 
L 157.721866 249.190436 
L 157.315305 247.972079 
L 157.120194 246.753722 
L 157.146577 245.535365 
L 157.395863 244.317008 
L 157.860838 243.098652 
L 158.526484 241.880295 
L 159.371362 240.661938 
L 160.369263 239.443581 
L 161.490892 238.225224 
L 162.705423 237.006867 
L 163.981858 235.78851 
L 165.290257 234.570153 
L 166.602865 233.351796 
L 167.895202 232.133439 
L 169.147053 230.915082 
L 170.343279 229.696725 
L 171.474291 228.478368 
L 172.536065 227.260011 
L 173.529639 226.041654 
L 174.46012 224.823297 
L 175.33535 223.604941 
L 176.164439 222.386584 
L 176.956416 221.168227 
L 177.719184 219.94987 
L 178.458926 218.731513 
L 179.179947 217.513156 
L 179.884895 216.294799 
L 180.575182 215.076442 
L 181.251449 213.858085 
L 181.913922 212.639728 
L 182.562579 211.421371 
L 183.197145 210.203014 
L 183.816967 208.984657 
L 184.420911 207.7663 
L 185.007361 206.547943 
L 185.5744 205.329586 
L 186.120149 204.111229 
L 186.643209 202.892873 
L 187.143067 201.674516 
L 187.620339 200.456159 
L 188.07677 199.237802 
L 188.51494 198.019445 
L 188.937754 196.801088 
L 189.347795 195.582731 
L 189.746719 194.364374 
L 190.134821 193.146017 
L 190.51086 191.92766 
L 190.872207 190.709303 
L 191.215256 189.490946 
L 191.536034 188.272589 
L 191.830879 187.054232 
L 192.097071 185.835875 
L 192.333312 184.617518 
L 192.53999 183.399161 
L 192.719198 182.180805 
L 192.874505 180.962448 
L 193.01055 179.744091 
L 193.132487 178.525734 
L 193.245397 177.307377 
L 193.353728 176.08902 
L 193.460854 174.870663 
L 195.738254 174.870663 
L 195.738254 174.870663 
L 195.84538 176.08902 
L 195.953712 177.307377 
L 196.066621 178.525734 
L 196.188558 179.744091 
L 196.324603 180.962448 
L 196.47991 182.180805 
L 196.659118 183.399161 
L 196.865796 184.617518 
L 197.102037 185.835875 
L 197.368229 187.054232 
L 197.663074 188.272589 
L 197.983852 189.490946 
L 198.326901 190.709303 
L 198.688248 191.92766 
L 199.064287 193.146017 
L 199.452389 194.364374 
L 199.851314 195.582731 
L 200.261354 196.801088 
L 200.684168 198.019445 
L 201.122339 199.237802 
L 201.578769 200.456159 
L 202.056041 201.674516 
L 202.555899 202.892873 
L 203.078959 204.111229 
L 203.624708 205.329586 
L 204.191747 206.547943 
L 204.778197 207.7663 
L 205.382141 208.984657 
L 206.001963 210.203014 
L 206.636529 211.421371 
L 207.285187 212.639728 
L 207.947659 213.858085 
L 208.623927 215.076442 
L 209.314213 216.294799 
L 210.019161 217.513156 
L 210.740182 218.731513 
L 211.479924 219.94987 
L 212.242693 221.168227 
L 213.034669 222.386584 
L 213.863758 223.604941 
L 214.738988 224.823297 
L 215.669469 226.041654 
L 216.663044 227.260011 
L 217.724817 228.478368 
L 218.855829 229.696725 
L 220.052055 230.915082 
L 221.303906 232.133439 
L 222.596243 233.351796 
L 223.908851 234.570153 
L 225.21725 235.78851 
L 226.493685 237.006867 
L 227.708216 238.225224 
L 228.829846 239.443581 
L 229.827746 240.661938 
L 230.672624 241.880295 
L 231.338271 243.098652 
L 231.803245 244.317008 
L 232.052531 245.535365 
L 232.078914 246.753722 
L 231.883804 247.972079 
L 231.477242 249.190436 
L 230.877009 250.408793 
L 230.106887 251.62715 
L 229.194347 252.845507 
L 228.168043 254.063864 
L 227.055541 255.282221 
L 225.881623 256.500578 
L 224.667394 257.718935 
L 223.43017 258.937292 
L 222.183988 260.155649 
L 220.940438 261.374006 
L 219.709478 262.592363 
L 218.499969 263.81072 
L 217.319769 265.029076 
L 216.17541 266.247433 
L 215.071489 267.46579 
L 214.010026 268.684147 
L 212.990056 269.902504 
L 212.00766 271.120861 
L 211.05653 272.339218 
L 210.12905 273.557575 
L 209.21769 274.775932 
L 208.316463 275.994289 
L 207.422131 277.212646 
L 206.534916 278.431003 
L 205.658539 279.64936 
L 204.799589 280.867717 
L 203.966361 282.086074 
L 203.167385 283.304431 
L 202.409977 284.522788 
L 201.699093 285.741144 
L 201.036693 286.959501 
L 200.421713 288.177858 
L 199.850602 289.396215 
L 199.318267 290.614572 
L 198.819201 291.832929 
L 198.348552 293.051286 
L 197.902927 294.269643 
L 197.480809 295.488 
z
" clip-path="url(#p2baac12ac1)" style="fill: #1f77b4; fill-opacity: 0.3"/>
   </g>
   <g id="PolyCollection_3">
    <path d="M 281.185377 283.152136 
L 274.588665 283.152136 
L 274.031079 282.079151 
L 273.399268 281.006166 
L 272.687349 279.933182 
L 271.891168 278.860197 
L 271.009148 277.787212 
L 270.043061 276.714227 
L 268.998592 275.641242 
L 267.885586 274.568258 
L 266.71791 273.495273 
L 265.512864 272.422288 
L 264.290199 271.349303 
L 263.07079 270.276318 
L 261.875126 269.203334 
L 260.721784 268.130349 
L 259.62607 267.057364 
L 258.599008 265.984379 
L 257.646798 264.911394 
L 256.770811 263.838409 
L 255.968094 262.765425 
L 255.2323 261.69244 
L 254.554872 260.619455 
L 253.926297 259.54647 
L 253.33724 258.473485 
L 252.779389 257.400501 
L 252.245924 256.327516 
L 251.731586 255.254531 
L 251.232389 254.181546 
L 250.745108 253.108561 
L 250.266666 252.035577 
L 249.793572 250.962592 
L 249.321543 249.889607 
L 248.845371 248.816622 
L 248.359065 247.743637 
L 247.85627 246.670653 
L 247.330883 245.597668 
L 246.77782 244.524683 
L 246.193863 243.451698 
L 245.578505 242.378713 
L 244.934741 241.305729 
L 244.26971 240.232744 
L 243.595132 239.159759 
L 242.927415 238.086774 
L 242.287384 237.013789 
L 241.699524 235.940805 
L 241.190757 234.86782 
L 240.788769 233.794835 
L 240.520025 232.72185 
L 240.407661 231.648865 
L 240.46949 230.575881 
L 240.716381 229.502896 
L 241.151216 228.429911 
L 241.768576 227.356926 
L 242.555202 226.283941 
L 243.491157 225.210956 
L 244.551532 224.137972 
L 245.708479 223.064987 
L 246.933296 221.992002 
L 248.198353 220.919017 
L 249.478648 219.846032 
L 250.752892 218.773048 
L 252.004075 217.700063 
L 253.219536 216.627078 
L 254.390646 215.554093 
L 255.512184 214.481108 
L 256.581572 213.408124 
L 257.598061 212.335139 
L 258.561993 211.262154 
L 259.474202 210.189169 
L 260.335616 209.116184 
L 261.147064 208.0432 
L 261.909286 206.970215 
L 262.623105 205.89723 
L 263.289701 204.824245 
L 263.910919 203.75126 
L 264.489531 202.678276 
L 265.029388 201.605291 
L 265.53542 200.532306 
L 266.013465 199.459321 
L 266.469936 198.386336 
L 266.911389 197.313352 
L 267.344054 196.240367 
L 267.773399 195.167382 
L 268.203802 194.094397 
L 268.638375 193.021412 
L 269.078949 191.948428 
L 269.526196 190.875443 
L 269.979855 189.802458 
L 270.43899 188.729473 
L 270.90223 187.656488 
L 271.36794 186.583503 
L 271.834314 185.510519 
L 272.299384 184.437534 
L 272.760975 183.364549 
L 273.216643 182.291564 
L 273.663634 181.218579 
L 274.09889 180.145595 
L 274.519121 179.07261 
L 274.920935 177.999625 
L 275.301021 176.92664 
L 280.47302 176.92664 
L 280.47302 176.92664 
L 280.853107 177.999625 
L 281.254921 179.07261 
L 281.675151 180.145595 
L 282.110408 181.218579 
L 282.557399 182.291564 
L 283.013067 183.364549 
L 283.474658 184.437534 
L 283.939727 185.510519 
L 284.406101 186.583503 
L 284.871812 187.656488 
L 285.335052 188.729473 
L 285.794187 189.802458 
L 286.247846 190.875443 
L 286.695093 191.948428 
L 287.135666 193.021412 
L 287.57024 194.094397 
L 288.000643 195.167382 
L 288.429988 196.240367 
L 288.862653 197.313352 
L 289.304106 198.386336 
L 289.760576 199.459321 
L 290.238621 200.532306 
L 290.744654 201.605291 
L 291.284511 202.678276 
L 291.863122 203.75126 
L 292.484341 204.824245 
L 293.150937 205.89723 
L 293.864756 206.970215 
L 294.626978 208.0432 
L 295.438426 209.116184 
L 296.29984 210.189169 
L 297.212049 211.262154 
L 298.17598 212.335139 
L 299.19247 213.408124 
L 300.261857 214.481108 
L 301.383396 215.554093 
L 302.554505 216.627078 
L 303.769967 217.700063 
L 305.021149 218.773048 
L 306.295394 219.846032 
L 307.575689 220.919017 
L 308.840746 221.992002 
L 310.065563 223.064987 
L 311.222509 224.137972 
L 312.282885 225.210956 
L 313.218839 226.283941 
L 314.005465 227.356926 
L 314.622826 228.429911 
L 315.05766 229.502896 
L 315.304552 230.575881 
L 315.366381 231.648865 
L 315.254017 232.72185 
L 314.985273 233.794835 
L 314.583285 234.86782 
L 314.074518 235.940805 
L 313.486658 237.013789 
L 312.846626 238.086774 
L 312.17891 239.159759 
L 311.504331 240.232744 
L 310.839301 241.305729 
L 310.195536 242.378713 
L 309.580179 243.451698 
L 308.996222 244.524683 
L 308.443159 245.597668 
L 307.917771 246.670653 
L 307.414977 247.743637 
L 306.928671 248.816622 
L 306.452498 249.889607 
L 305.98047 250.962592 
L 305.507376 252.035577 
L 305.028934 253.108561 
L 304.541653 254.181546 
L 304.042456 255.254531 
L 303.528117 256.327516 
L 302.994653 257.400501 
L 302.436802 258.473485 
L 301.847745 259.54647 
L 301.21917 260.619455 
L 300.541742 261.69244 
L 299.805947 262.765425 
L 299.003231 263.838409 
L 298.127243 264.911394 
L 297.175033 265.984379 
L 296.147971 267.057364 
L 295.052258 268.130349 
L 293.898916 269.203334 
L 292.703252 270.276318 
L 291.483842 271.349303 
L 290.261177 272.422288 
L 289.056132 273.495273 
L 287.888456 274.568258 
L 286.77545 275.641242 
L 285.73098 276.714227 
L 284.764894 277.787212 
L 283.882874 278.860197 
L 283.086693 279.933182 
L 282.374774 281.006166 
L 281.742963 282.079151 
L 281.185377 283.152136 
z
" clip-path="url(#p2baac12ac1)" style="fill: #1f77b4; fill-opacity: 0.3"/>
   </g>
   <g id="PolyCollection_4">
    <path d="M 365.924271 294.117348 
L 356.091555 294.117348 
L 355.428486 292.912836 
L 354.715583 291.708324 
L 353.948722 290.503813 
L 353.123156 289.299301 
L 352.234204 288.094789 
L 351.278124 286.890277 
L 350.253064 285.685765 
L 349.159965 284.481253 
L 348.003264 283.276741 
L 346.791284 282.072229 
L 345.536204 280.867717 
L 344.253564 279.663205 
L 342.961336 278.458693 
L 341.67862 277.254181 
L 340.424113 276.049669 
L 339.214522 274.845157 
L 338.063115 273.640645 
L 336.978589 272.436133 
L 335.964426 271.231621 
L 335.018812 270.027109 
L 334.135161 268.822597 
L 333.303188 267.618085 
L 332.510407 266.413573 
L 331.743868 265.209061 
L 330.991921 264.004549 
L 330.245787 262.800037 
L 329.500731 261.595525 
L 328.75671 260.391013 
L 328.018416 259.186501 
L 327.294762 257.981989 
L 326.597879 256.777477 
L 325.941825 255.572965 
L 325.341185 254.368453 
L 324.809778 253.163941 
L 324.359651 251.959429 
L 324.000469 250.754917 
L 323.739341 249.550405 
L 323.581049 248.345893 
L 323.528553 247.141381 
L 323.583628 245.936869 
L 323.747455 244.732357 
L 324.021002 243.527845 
L 324.405105 242.323334 
L 324.9002 241.118822 
L 325.505762 239.91431 
L 326.219553 238.709798 
L 327.036839 237.505286 
L 327.94976 236.300774 
L 328.947001 235.096262 
L 330.013889 233.89175 
L 331.132946 232.687238 
L 332.284884 231.482726 
L 333.449919 230.278214 
L 334.609251 229.073702 
L 335.746513 227.86919 
L 336.849005 226.664678 
L 337.908522 225.460166 
L 338.921677 224.255654 
L 339.889667 223.051142 
L 340.817502 221.84663 
L 341.712806 220.642118 
L 342.58435 219.437606 
L 343.440509 218.233094 
L 344.287852 217.028582 
L 345.130057 215.82407 
L 345.967271 214.619558 
L 346.796005 213.415046 
L 347.609544 212.210534 
L 348.398793 211.006022 
L 349.153429 209.80151 
L 349.863188 208.596998 
L 350.519095 207.392486 
L 351.114498 206.187974 
L 351.645764 204.983462 
L 352.112597 203.77895 
L 352.517935 202.574438 
L 352.867513 201.369926 
L 353.169138 200.165414 
L 353.431831 198.960902 
L 353.664926 197.75639 
L 353.877276 196.551878 
L 354.076625 195.347366 
L 354.269238 194.142854 
L 354.459782 192.938343 
L 354.651445 191.733831 
L 354.846242 190.529319 
L 355.045409 189.324807 
L 355.249816 188.120295 
L 355.460317 186.915783 
L 355.677961 185.711271 
L 355.904055 184.506759 
L 356.140065 183.302247 
L 356.387399 182.097735 
L 356.647115 180.893223 
L 356.919621 179.688711 
L 357.204422 178.484199 
L 357.499972 177.279687 
L 357.803635 176.075175 
L 358.111798 174.870663 
L 363.904027 174.870663 
L 363.904027 174.870663 
L 364.21219 176.075175 
L 364.515854 177.279687 
L 364.811403 178.484199 
L 365.096205 179.688711 
L 365.368711 180.893223 
L 365.628427 182.097735 
L 365.875761 183.302247 
L 366.111771 184.506759 
L 366.337864 185.711271 
L 366.555509 186.915783 
L 366.76601 188.120295 
L 366.970417 189.324807 
L 367.169583 190.529319 
L 367.36438 191.733831 
L 367.556044 192.938343 
L 367.746587 194.142854 
L 367.9392 195.347366 
L 368.138549 196.551878 
L 368.350899 197.75639 
L 368.583995 198.960902 
L 368.846687 200.165414 
L 369.148313 201.369926 
L 369.49789 202.574438 
L 369.903229 203.77895 
L 370.370061 204.983462 
L 370.901328 206.187974 
L 371.49673 207.392486 
L 372.152638 208.596998 
L 372.862396 209.80151 
L 373.617033 211.006022 
L 374.406281 212.210534 
L 375.21982 213.415046 
L 376.048555 214.619558 
L 376.885769 215.82407 
L 377.727973 217.028582 
L 378.575317 218.233094 
L 379.431476 219.437606 
L 380.30302 220.642118 
L 381.198324 221.84663 
L 382.126158 223.051142 
L 383.094148 224.255654 
L 384.107303 225.460166 
L 385.16682 226.664678 
L 386.269312 227.86919 
L 387.406575 229.073702 
L 388.565906 230.278214 
L 389.730941 231.482726 
L 390.88288 232.687238 
L 392.001937 233.89175 
L 393.068824 235.096262 
L 394.066066 236.300774 
L 394.978987 237.505286 
L 395.796273 238.709798 
L 396.510064 239.91431 
L 397.115626 241.118822 
L 397.610721 242.323334 
L 397.994823 243.527845 
L 398.26837 244.732357 
L 398.432197 245.936869 
L 398.487273 247.141381 
L 398.434776 248.345893 
L 398.276484 249.550405 
L 398.015357 250.754917 
L 397.656175 251.959429 
L 397.206048 253.163941 
L 396.67464 254.368453 
L 396.074 255.572965 
L 395.417946 256.777477 
L 394.721064 257.981989 
L 393.997409 259.186501 
L 393.259116 260.391013 
L 392.515094 261.595525 
L 391.770038 262.800037 
L 391.023905 264.004549 
L 390.271958 265.209061 
L 389.505418 266.413573 
L 388.712637 267.618085 
L 387.880665 268.822597 
L 386.997014 270.027109 
L 386.0514 271.231621 
L 385.037237 272.436133 
L 383.952711 273.640645 
L 382.801303 274.845157 
L 381.591713 276.049669 
L 380.337206 277.254181 
L 379.05449 278.458693 
L 377.762262 279.663205 
L 376.479622 280.867717 
L 375.224541 282.072229 
L 374.012561 283.276741 
L 372.85586 284.481253 
L 371.762761 285.685765 
L 370.737701 286.890277 
L 369.781621 288.094789 
L 368.892669 289.299301 
L 368.067103 290.503813 
L 367.300242 291.708324 
L 366.587339 292.912836 
L 365.924271 294.117348 
z
" clip-path="url(#p2baac12ac1)" style="fill: #1f77b4; fill-opacity: 0.3"/>
   </g>
   <g id="matplotlib.axis_1">
    <g id="xtick_1">
     <g id="line2d_1">
      <defs>
       <path id="md5d65759e1" d="M 0 0 
L 0 3.5 
" style="stroke: #000000; stroke-width: 0.8"/>
      </defs>
      <g>
       <use xlink:href="#md5d65759e1" x="69.668354" y="307.584" style="stroke: #000000; stroke-width: 0.8"/>
      </g>
     </g>
     <g id="text_1">
      <!-- 250 -->
      <g transform="translate(60.124604 322.182437)scale(0.1 -0.1)">
       <defs>
        <path id="DejaVuSans-32" d="M 1228 531 
L 3431 531 
L 3431 0 
L 469 0 
L 469 531 
Q 828 903 1448 1529 
Q 2069 2156 2228 2338 
Q 2531 2678 2651 2914 
Q 2772 3150 2772 3378 
Q 2772 3750 2511 3984 
Q 2250 4219 1831 4219 
Q 1534 4219 1204 4116 
Q 875 4013 500 3803 
L 500 4441 
Q 881 4594 1212 4672 
Q 1544 4750 1819 4750 
Q 2544 4750 2975 4387 
Q 3406 4025 3406 3419 
Q 3406 3131 3298 2873 
Q 3191 2616 2906 2266 
Q 2828 2175 2409 1742 
Q 1991 1309 1228 531 
z
" transform="scale(0.015625)"/>
        <path id="DejaVuSans-35" d="M 691 4666 
L 3169 4666 
L 3169 4134 
L 1269 4134 
L 1269 2991 
Q 1406 3038 1543 3061 
Q 1681 3084 1819 3084 
Q 2600 3084 3056 2656 
Q 3513 2228 3513 1497 
Q 3513 744 3044 326 
Q 2575 -91 1722 -91 
Q 1428 -91 1123 -41 
Q 819 9 494 109 
L 494 744 
Q 775 591 1075 516 
Q 1375 441 1709 441 
Q 2250 441 2565 725 
Q 2881 1009 2881 1497 
Q 2881 1984 2565 2268 
Q 2250 2553 1709 2553 
Q 1456 2553 1204 2497 
Q 953 2441 691 2322 
L 691 4666 
z
" transform="scale(0.015625)"/>
        <path id="DejaVuSans-30" d="M 2034 4250 
Q 1547 4250 1301 3770 
Q 1056 3291 1056 2328 
Q 1056 1369 1301 889 
Q 1547 409 2034 409 
Q 2525 409 2770 889 
Q 3016 1369 3016 2328 
Q 3016 3291 2770 3770 
Q 2525 4250 2034 4250 
z
M 2034 4750 
Q 2819 4750 3233 4129 
Q 3647 3509 3647 2328 
Q 3647 1150 3233 529 
Q 2819 -91 2034 -91 
Q 1250 -91 836 529 
Q 422 1150 422 2328 
Q 422 3509 836 4129 
Q 1250 4750 2034 4750 
z
" transform="scale(0.015625)"/>
       </defs>
       <use xlink:href="#DejaVuSans-32"/>
       <use xlink:href="#DejaVuSans-35" x="63.623047"/>
       <use xlink:href="#DejaVuSans-30" x="127.246094"/>
      </g>
     </g>
    </g>
    <g id="xtick_2">
     <g id="line2d_2">
      <g>
       <use xlink:href="#md5d65759e1" x="111.312087" y="307.584" style="stroke: #000000; stroke-width: 0.8"/>
      </g>
     </g>
     <g id="text_2">
      <!-- 500 -->
      <g transform="translate(101.768337 322.182437)scale(0.1 -0.1)">
       <use xlink:href="#DejaVuSans-35"/>
       <use xlink:href="#DejaVuSans-30" x="63.623047"/>
       <use xlink:href="#DejaVuSans-30" x="127.246094"/>
      </g>
     </g>
    </g>
    <g id="xtick_3">
     <g id="line2d_3">
      <g>
       <use xlink:href="#md5d65759e1" x="152.955821" y="307.584" style="stroke: #000000; stroke-width: 0.8"/>
      </g>
     </g>
     <g id="text_3">
      <!-- 750 -->
      <g transform="translate(143.412071 322.182437)scale(0.1 -0.1)">
       <defs>
        <path id="DejaVuSans-37" d="M 525 4666 
L 3525 4666 
L 3525 4397 
L 1831 0 
L 1172 0 
L 2766 4134 
L 525 4134 
L 525 4666 
z
" transform="scale(0.015625)"/>
       </defs>
       <use xlink:href="#DejaVuSans-37"/>
       <use xlink:href="#DejaVuSans-35" x="63.623047"/>
       <use xlink:href="#DejaVuSans-30" x="127.246094"/>
      </g>
     </g>
    </g>
    <g id="xtick_4">
     <g id="line2d_4">
      <g>
       <use xlink:href="#md5d65759e1" x="194.599554" y="307.584" style="stroke: #000000; stroke-width: 0.8"/>
      </g>
     </g>
     <g id="text_4">
      <!-- 1000 -->
      <g transform="translate(181.874554 322.182437)scale(0.1 -0.1)">
       <defs>
        <path id="DejaVuSans-31" d="M 794 531 
L 1825 531 
L 1825 4091 
L 703 3866 
L 703 4441 
L 1819 4666 
L 2450 4666 
L 2450 531 
L 3481 531 
L 3481 0 
L 794 0 
L 794 531 
z
" transform="scale(0.015625)"/>
       </defs>
       <use xlink:href="#DejaVuSans-31"/>
       <use xlink:href="#DejaVuSans-30" x="63.623047"/>
       <use xlink:href="#DejaVuSans-30" x="127.246094"/>
       <use xlink:href="#DejaVuSans-30" x="190.869141"/>
      </g>
     </g>
    </g>
    <g id="xtick_5">
     <g id="line2d_5">
      <g>
       <use xlink:href="#md5d65759e1" x="236.243287" y="307.584" style="stroke: #000000; stroke-width: 0.8"/>
      </g>
     </g>
     <g id="text_5">
      <!-- 1250 -->
      <g transform="translate(223.518287 322.182437)scale(0.1 -0.1)">
       <use xlink:href="#DejaVuSans-31"/>
       <use xlink:href="#DejaVuSans-32" x="63.623047"/>
       <use xlink:href="#DejaVuSans-35" x="127.246094"/>
       <use xlink:href="#DejaVuSans-30" x="190.869141"/>
      </g>
     </g>
    </g>
    <g id="xtick_6">
     <g id="line2d_6">
      <g>
       <use xlink:href="#md5d65759e1" x="277.887021" y="307.584" style="stroke: #000000; stroke-width: 0.8"/>
      </g>
     </g>
     <g id="text_6">
      <!-- 1500 -->
      <g transform="translate(265.162021 322.182437)scale(0.1 -0.1)">
       <use xlink:href="#DejaVuSans-31"/>
       <use xlink:href="#DejaVuSans-35" x="63.623047"/>
       <use xlink:href="#DejaVuSans-30" x="127.246094"/>
       <use xlink:href="#DejaVuSans-30" x="190.869141"/>
      </g>
     </g>
    </g>
    <g id="xtick_7">
     <g id="line2d_7">
      <g>
       <use xlink:href="#md5d65759e1" x="319.530754" y="307.584" style="stroke: #000000; stroke-width: 0.8"/>
      </g>
     </g>
     <g id="text_7">
      <!-- 1750 -->
      <g transform="translate(306.805754 322.182437)scale(0.1 -0.1)">
       <use xlink:href="#DejaVuSans-31"/>
       <use xlink:href="#DejaVuSans-37" x="63.623047"/>
       <use xlink:href="#DejaVuSans-35" x="127.246094"/>
       <use xlink:href="#DejaVuSans-30" x="190.869141"/>
      </g>
     </g>
    </g>
    <g id="xtick_8">
     <g id="line2d_8">
      <g>
       <use xlink:href="#md5d65759e1" x="361.174488" y="307.584" style="stroke: #000000; stroke-width: 0.8"/>
      </g>
     </g>
     <g id="text_8">
      <!-- 2000 -->
      <g transform="translate(348.449488 322.182437)scale(0.1 -0.1)">
       <use xlink:href="#DejaVuSans-32"/>
       <use xlink:href="#DejaVuSans-30" x="63.623047"/>
       <use xlink:href="#DejaVuSans-30" x="127.246094"/>
       <use xlink:href="#DejaVuSans-30" x="190.869141"/>
      </g>
     </g>
    </g>
    <g id="xtick_9">
     <g id="line2d_9">
      <g>
       <use xlink:href="#md5d65759e1" x="402.818221" y="307.584" style="stroke: #000000; stroke-width: 0.8"/>
      </g>
     </g>
     <g id="text_9">
      <!-- 2250 -->
      <g transform="translate(390.093221 322.182437)scale(0.1 -0.1)">
       <use xlink:href="#DejaVuSans-32"/>
       <use xlink:href="#DejaVuSans-32" x="63.623047"/>
       <use xlink:href="#DejaVuSans-35" x="127.246094"/>
       <use xlink:href="#DejaVuSans-30" x="190.869141"/>
      </g>
     </g>
    </g>
    <g id="text_10">
     <!-- Learned Episodes -->
     <g transform="translate(192.102187 335.860562)scale(0.1 -0.1)">
      <defs>
       <path id="DejaVuSans-4c" d="M 628 4666 
L 1259 4666 
L 1259 531 
L 3531 531 
L 3531 0 
L 628 0 
L 628 4666 
z
" transform="scale(0.015625)"/>
       <path id="DejaVuSans-65" d="M 3597 1894 
L 3597 1613 
L 953 1613 
Q 991 1019 1311 708 
Q 1631 397 2203 397 
Q 2534 397 2845 478 
Q 3156 559 3463 722 
L 3463 178 
Q 3153 47 2828 -22 
Q 2503 -91 2169 -91 
Q 1331 -91 842 396 
Q 353 884 353 1716 
Q 353 2575 817 3079 
Q 1281 3584 2069 3584 
Q 2775 3584 3186 3129 
Q 3597 2675 3597 1894 
z
M 3022 2063 
Q 3016 2534 2758 2815 
Q 2500 3097 2075 3097 
Q 1594 3097 1305 2825 
Q 1016 2553 972 2059 
L 3022 2063 
z
" transform="scale(0.015625)"/>
       <path id="DejaVuSans-61" d="M 2194 1759 
Q 1497 1759 1228 1600 
Q 959 1441 959 1056 
Q 959 750 1161 570 
Q 1363 391 1709 391 
Q 2188 391 2477 730 
Q 2766 1069 2766 1631 
L 2766 1759 
L 2194 1759 
z
M 3341 1997 
L 3341 0 
L 2766 0 
L 2766 531 
Q 2569 213 2275 61 
Q 1981 -91 1556 -91 
Q 1019 -91 701 211 
Q 384 513 384 1019 
Q 384 1609 779 1909 
Q 1175 2209 1959 2209 
L 2766 2209 
L 2766 2266 
Q 2766 2663 2505 2880 
Q 2244 3097 1772 3097 
Q 1472 3097 1187 3025 
Q 903 2953 641 2809 
L 641 3341 
Q 956 3463 1253 3523 
Q 1550 3584 1831 3584 
Q 2591 3584 2966 3190 
Q 3341 2797 3341 1997 
z
" transform="scale(0.015625)"/>
       <path id="DejaVuSans-72" d="M 2631 2963 
Q 2534 3019 2420 3045 
Q 2306 3072 2169 3072 
Q 1681 3072 1420 2755 
Q 1159 2438 1159 1844 
L 1159 0 
L 581 0 
L 581 3500 
L 1159 3500 
L 1159 2956 
Q 1341 3275 1631 3429 
Q 1922 3584 2338 3584 
Q 2397 3584 2469 3576 
Q 2541 3569 2628 3553 
L 2631 2963 
z
" transform="scale(0.015625)"/>
       <path id="DejaVuSans-6e" d="M 3513 2113 
L 3513 0 
L 2938 0 
L 2938 2094 
Q 2938 2591 2744 2837 
Q 2550 3084 2163 3084 
Q 1697 3084 1428 2787 
Q 1159 2491 1159 1978 
L 1159 0 
L 581 0 
L 581 3500 
L 1159 3500 
L 1159 2956 
Q 1366 3272 1645 3428 
Q 1925 3584 2291 3584 
Q 2894 3584 3203 3211 
Q 3513 2838 3513 2113 
z
" transform="scale(0.015625)"/>
       <path id="DejaVuSans-64" d="M 2906 2969 
L 2906 4863 
L 3481 4863 
L 3481 0 
L 2906 0 
L 2906 525 
Q 2725 213 2448 61 
Q 2172 -91 1784 -91 
Q 1150 -91 751 415 
Q 353 922 353 1747 
Q 353 2572 751 3078 
Q 1150 3584 1784 3584 
Q 2172 3584 2448 3432 
Q 2725 3281 2906 2969 
z
M 947 1747 
Q 947 1113 1208 752 
Q 1469 391 1925 391 
Q 2381 391 2643 752 
Q 2906 1113 2906 1747 
Q 2906 2381 2643 2742 
Q 2381 3103 1925 3103 
Q 1469 3103 1208 2742 
Q 947 2381 947 1747 
z
" transform="scale(0.015625)"/>
       <path id="DejaVuSans-20" transform="scale(0.015625)"/>
       <path id="DejaVuSans-45" d="M 628 4666 
L 3578 4666 
L 3578 4134 
L 1259 4134 
L 1259 2753 
L 3481 2753 
L 3481 2222 
L 1259 2222 
L 1259 531 
L 3634 531 
L 3634 0 
L 628 0 
L 628 4666 
z
" transform="scale(0.015625)"/>
       <path id="DejaVuSans-70" d="M 1159 525 
L 1159 -1331 
L 581 -1331 
L 581 3500 
L 1159 3500 
L 1159 2969 
Q 1341 3281 1617 3432 
Q 1894 3584 2278 3584 
Q 2916 3584 3314 3078 
Q 3713 2572 3713 1747 
Q 3713 922 3314 415 
Q 2916 -91 2278 -91 
Q 1894 -91 1617 61 
Q 1341 213 1159 525 
z
M 3116 1747 
Q 3116 2381 2855 2742 
Q 2594 3103 2138 3103 
Q 1681 3103 1420 2742 
Q 1159 2381 1159 1747 
Q 1159 1113 1420 752 
Q 1681 391 2138 391 
Q 2594 391 2855 752 
Q 3116 1113 3116 1747 
z
" transform="scale(0.015625)"/>
       <path id="DejaVuSans-69" d="M 603 3500 
L 1178 3500 
L 1178 0 
L 603 0 
L 603 3500 
z
M 603 4863 
L 1178 4863 
L 1178 4134 
L 603 4134 
L 603 4863 
z
" transform="scale(0.015625)"/>
       <path id="DejaVuSans-73" d="M 2834 3397 
L 2834 2853 
Q 2591 2978 2328 3040 
Q 2066 3103 1784 3103 
Q 1356 3103 1142 2972 
Q 928 2841 928 2578 
Q 928 2378 1081 2264 
Q 1234 2150 1697 2047 
L 1894 2003 
Q 2506 1872 2764 1633 
Q 3022 1394 3022 966 
Q 3022 478 2636 193 
Q 2250 -91 1575 -91 
Q 1294 -91 989 -36 
Q 684 19 347 128 
L 347 722 
Q 666 556 975 473 
Q 1284 391 1588 391 
Q 1994 391 2212 530 
Q 2431 669 2431 922 
Q 2431 1156 2273 1281 
Q 2116 1406 1581 1522 
L 1381 1569 
Q 847 1681 609 1914 
Q 372 2147 372 2553 
Q 372 3047 722 3315 
Q 1072 3584 1716 3584 
Q 2034 3584 2315 3537 
Q 2597 3491 2834 3397 
z
" transform="scale(0.015625)"/>
       <path id="DejaVuSans-6f" d="M 1959 3097 
Q 1497 3097 1228 2736 
Q 959 2375 959 1747 
Q 959 1119 1226 758 
Q 1494 397 1959 397 
Q 2419 397 2687 759 
Q 2956 1122 2956 1747 
Q 2956 2369 2687 2733 
Q 2419 3097 1959 3097 
z
M 1959 3584 
Q 2709 3584 3137 3096 
Q 3566 2609 3566 1747 
Q 3566 888 3137 398 
Q 2709 -91 1959 -91 
Q 1206 -91 779 398 
Q 353 888 353 1747 
Q 353 2609 779 3096 
Q 1206 3584 1959 3584 
z
" transform="scale(0.015625)"/>
      </defs>
      <use xlink:href="#DejaVuSans-4c"/>
      <use xlink:href="#DejaVuSans-65" x="53.962891"/>
      <use xlink:href="#DejaVuSans-61" x="115.486328"/>
      <use xlink:href="#DejaVuSans-72" x="176.765625"/>
      <use xlink:href="#DejaVuSans-6e" x="216.128906"/>
      <use xlink:href="#DejaVuSans-65" x="279.507812"/>
      <use xlink:href="#DejaVuSans-64" x="341.03125"/>
      <use xlink:href="#DejaVuSans-20" x="404.507812"/>
      <use xlink:href="#DejaVuSans-45" x="436.294922"/>
      <use xlink:href="#DejaVuSans-70" x="499.478516"/>
      <use xlink:href="#DejaVuSans-69" x="562.955078"/>
      <use xlink:href="#DejaVuSans-73" x="590.738281"/>
      <use xlink:href="#DejaVuSans-6f" x="642.837891"/>
      <use xlink:href="#DejaVuSans-64" x="704.019531"/>
      <use xlink:href="#DejaVuSans-65" x="767.496094"/>
      <use xlink:href="#DejaVuSans-73" x="829.019531"/>
     </g>
    </g>
   </g>
   <g id="matplotlib.axis_2">
    <g id="ytick_1">
     <g id="line2d_10">
      <defs>
       <path id="m323e93980b" d="M 0 0 
L -3.5 0 
" style="stroke: #000000; stroke-width: 0.8"/>
      </defs>
      <g>
       <use xlink:href="#m323e93980b" x="57.6" y="300.970606" style="stroke: #000000; stroke-width: 0.8"/>
      </g>
     </g>
     <g id="text_11">
      <!-- 150 -->
      <g transform="translate(31.5125 304.769825)scale(0.1 -0.1)">
       <use xlink:href="#DejaVuSans-31"/>
       <use xlink:href="#DejaVuSans-35" x="63.623047"/>
       <use xlink:href="#DejaVuSans-30" x="127.246094"/>
      </g>
     </g>
    </g>
    <g id="ytick_2">
     <g id="line2d_11">
      <g>
       <use xlink:href="#m323e93980b" x="57.6" y="266.704317" style="stroke: #000000; stroke-width: 0.8"/>
      </g>
     </g>
     <g id="text_12">
      <!-- 200 -->
      <g transform="translate(31.5125 270.503536)scale(0.1 -0.1)">
       <use xlink:href="#DejaVuSans-32"/>
       <use xlink:href="#DejaVuSans-30" x="63.623047"/>
       <use xlink:href="#DejaVuSans-30" x="127.246094"/>
      </g>
     </g>
    </g>
    <g id="ytick_3">
     <g id="line2d_12">
      <g>
       <use xlink:href="#m323e93980b" x="57.6" y="232.438028" style="stroke: #000000; stroke-width: 0.8"/>
      </g>
     </g>
     <g id="text_13">
      <!-- 250 -->
      <g transform="translate(31.5125 236.237247)scale(0.1 -0.1)">
       <use xlink:href="#DejaVuSans-32"/>
       <use xlink:href="#DejaVuSans-35" x="63.623047"/>
       <use xlink:href="#DejaVuSans-30" x="127.246094"/>
      </g>
     </g>
    </g>
    <g id="ytick_4">
     <g id="line2d_13">
      <g>
       <use xlink:href="#m323e93980b" x="57.6" y="198.171739" style="stroke: #000000; stroke-width: 0.8"/>
      </g>
     </g>
     <g id="text_14">
      <!-- 300 -->
      <g transform="translate(31.5125 201.970958)scale(0.1 -0.1)">
       <defs>
        <path id="DejaVuSans-33" d="M 2597 2516 
Q 3050 2419 3304 2112 
Q 3559 1806 3559 1356 
Q 3559 666 3084 287 
Q 2609 -91 1734 -91 
Q 1441 -91 1130 -33 
Q 819 25 488 141 
L 488 750 
Q 750 597 1062 519 
Q 1375 441 1716 441 
Q 2309 441 2620 675 
Q 2931 909 2931 1356 
Q 2931 1769 2642 2001 
Q 2353 2234 1838 2234 
L 1294 2234 
L 1294 2753 
L 1863 2753 
Q 2328 2753 2575 2939 
Q 2822 3125 2822 3475 
Q 2822 3834 2567 4026 
Q 2313 4219 1838 4219 
Q 1578 4219 1281 4162 
Q 984 4106 628 3988 
L 628 4550 
Q 988 4650 1302 4700 
Q 1616 4750 1894 4750 
Q 2613 4750 3031 4423 
Q 3450 4097 3450 3541 
Q 3450 3153 3228 2886 
Q 3006 2619 2597 2516 
z
" transform="scale(0.015625)"/>
       </defs>
       <use xlink:href="#DejaVuSans-33"/>
       <use xlink:href="#DejaVuSans-30" x="63.623047"/>
       <use xlink:href="#DejaVuSans-30" x="127.246094"/>
      </g>
     </g>
    </g>
    <g id="ytick_5">
     <g id="line2d_14">
      <g>
       <use xlink:href="#m323e93980b" x="57.6" y="163.90545" style="stroke: #000000; stroke-width: 0.8"/>
      </g>
     </g>
     <g id="text_15">
      <!-- 350 -->
      <g transform="translate(31.5125 167.704669)scale(0.1 -0.1)">
       <use xlink:href="#DejaVuSans-33"/>
       <use xlink:href="#DejaVuSans-35" x="63.623047"/>
       <use xlink:href="#DejaVuSans-30" x="127.246094"/>
      </g>
     </g>
    </g>
    <g id="ytick_6">
     <g id="line2d_15">
      <g>
       <use xlink:href="#m323e93980b" x="57.6" y="129.639161" style="stroke: #000000; stroke-width: 0.8"/>
      </g>
     </g>
     <g id="text_16">
      <!-- 400 -->
      <g transform="translate(31.5125 133.43838)scale(0.1 -0.1)">
       <defs>
        <path id="DejaVuSans-34" d="M 2419 4116 
L 825 1625 
L 2419 1625 
L 2419 4116 
z
M 2253 4666 
L 3047 4666 
L 3047 1625 
L 3713 1625 
L 3713 1100 
L 3047 1100 
L 3047 0 
L 2419 0 
L 2419 1100 
L 313 1100 
L 313 1709 
L 2253 4666 
z
" transform="scale(0.015625)"/>
       </defs>
       <use xlink:href="#DejaVuSans-34"/>
       <use xlink:href="#DejaVuSans-30" x="63.623047"/>
       <use xlink:href="#DejaVuSans-30" x="127.246094"/>
      </g>
     </g>
    </g>
    <g id="ytick_7">
     <g id="line2d_16">
      <g>
       <use xlink:href="#m323e93980b" x="57.6" y="95.372873" style="stroke: #000000; stroke-width: 0.8"/>
      </g>
     </g>
     <g id="text_17">
      <!-- 450 -->
      <g transform="translate(31.5125 99.172091)scale(0.1 -0.1)">
       <use xlink:href="#DejaVuSans-34"/>
       <use xlink:href="#DejaVuSans-35" x="63.623047"/>
       <use xlink:href="#DejaVuSans-30" x="127.246094"/>
      </g>
     </g>
    </g>
    <g id="ytick_8">
     <g id="line2d_17">
      <g>
       <use xlink:href="#m323e93980b" x="57.6" y="61.106584" style="stroke: #000000; stroke-width: 0.8"/>
      </g>
     </g>
     <g id="text_18">
      <!-- 500 -->
      <g transform="translate(31.5125 64.905802)scale(0.1 -0.1)">
       <use xlink:href="#DejaVuSans-35"/>
       <use xlink:href="#DejaVuSans-30" x="63.623047"/>
       <use xlink:href="#DejaVuSans-30" x="127.246094"/>
      </g>
     </g>
    </g>
    <g id="text_19">
     <!-- Reward Density -->
     <g transform="translate(25.432812 213.74675)rotate(-90)scale(0.1 -0.1)">
      <defs>
       <path id="DejaVuSans-52" d="M 2841 2188 
Q 3044 2119 3236 1894 
Q 3428 1669 3622 1275 
L 4263 0 
L 3584 0 
L 2988 1197 
Q 2756 1666 2539 1819 
Q 2322 1972 1947 1972 
L 1259 1972 
L 1259 0 
L 628 0 
L 628 4666 
L 2053 4666 
Q 2853 4666 3247 4331 
Q 3641 3997 3641 3322 
Q 3641 2881 3436 2590 
Q 3231 2300 2841 2188 
z
M 1259 4147 
L 1259 2491 
L 2053 2491 
Q 2509 2491 2742 2702 
Q 2975 2913 2975 3322 
Q 2975 3731 2742 3939 
Q 2509 4147 2053 4147 
L 1259 4147 
z
" transform="scale(0.015625)"/>
       <path id="DejaVuSans-77" d="M 269 3500 
L 844 3500 
L 1563 769 
L 2278 3500 
L 2956 3500 
L 3675 769 
L 4391 3500 
L 4966 3500 
L 4050 0 
L 3372 0 
L 2619 2869 
L 1863 0 
L 1184 0 
L 269 3500 
z
" transform="scale(0.015625)"/>
       <path id="DejaVuSans-44" d="M 1259 4147 
L 1259 519 
L 2022 519 
Q 2988 519 3436 956 
Q 3884 1394 3884 2338 
Q 3884 3275 3436 3711 
Q 2988 4147 2022 4147 
L 1259 4147 
z
M 628 4666 
L 1925 4666 
Q 3281 4666 3915 4102 
Q 4550 3538 4550 2338 
Q 4550 1131 3912 565 
Q 3275 0 1925 0 
L 628 0 
L 628 4666 
z
" transform="scale(0.015625)"/>
       <path id="DejaVuSans-74" d="M 1172 4494 
L 1172 3500 
L 2356 3500 
L 2356 3053 
L 1172 3053 
L 1172 1153 
Q 1172 725 1289 603 
Q 1406 481 1766 481 
L 2356 481 
L 2356 0 
L 1766 0 
Q 1100 0 847 248 
Q 594 497 594 1153 
L 594 3053 
L 172 3053 
L 172 3500 
L 594 3500 
L 594 4494 
L 1172 4494 
z
" transform="scale(0.015625)"/>
       <path id="DejaVuSans-79" d="M 2059 -325 
Q 1816 -950 1584 -1140 
Q 1353 -1331 966 -1331 
L 506 -1331 
L 506 -850 
L 844 -850 
Q 1081 -850 1212 -737 
Q 1344 -625 1503 -206 
L 1606 56 
L 191 3500 
L 800 3500 
L 1894 763 
L 2988 3500 
L 3597 3500 
L 2059 -325 
z
" transform="scale(0.015625)"/>
      </defs>
      <use xlink:href="#DejaVuSans-52"/>
      <use xlink:href="#DejaVuSans-65" x="64.982422"/>
      <use xlink:href="#DejaVuSans-77" x="126.505859"/>
      <use xlink:href="#DejaVuSans-61" x="208.292969"/>
      <use xlink:href="#DejaVuSans-72" x="269.572266"/>
      <use xlink:href="#DejaVuSans-64" x="308.935547"/>
      <use xlink:href="#DejaVuSans-20" x="372.412109"/>
      <use xlink:href="#DejaVuSans-44" x="404.199219"/>
      <use xlink:href="#DejaVuSans-65" x="481.201172"/>
      <use xlink:href="#DejaVuSans-6e" x="542.724609"/>
      <use xlink:href="#DejaVuSans-73" x="606.103516"/>
      <use xlink:href="#DejaVuSans-69" x="658.203125"/>
      <use xlink:href="#DejaVuSans-74" x="685.986328"/>
      <use xlink:href="#DejaVuSans-79" x="725.195312"/>
     </g>
    </g>
   </g>
   <g id="LineCollection_1">
    <path d="M 92.572407 158.713422 
L 130.051767 158.713422 
" clip-path="url(#p2baac12ac1)" style="fill: none; stroke: #1f77b4; stroke-width: 1.5"/>
    <path d="M 175.859874 243.641734 
L 213.339234 243.641734 
" clip-path="url(#p2baac12ac1)" style="fill: none; stroke: #1f77b4; stroke-width: 1.5"/>
    <path d="M 259.147341 234.52416 
L 296.626701 234.52416 
" clip-path="url(#p2baac12ac1)" style="fill: none; stroke: #1f77b4; stroke-width: 1.5"/>
    <path d="M 342.268233 244.132427 
L 379.747593 244.132427 
" clip-path="url(#p2baac12ac1)" style="fill: none; stroke: #1f77b4; stroke-width: 1.5"/>
   </g>
   <g id="LineCollection_2">
    <path d="M 92.572407 53.568 
L 130.051767 53.568 
" clip-path="url(#p2baac12ac1)" style="fill: none; stroke: #1f77b4; stroke-width: 1.5"/>
    <path d="M 175.859874 174.870663 
L 213.339234 174.870663 
" clip-path="url(#p2baac12ac1)" style="fill: none; stroke: #1f77b4; stroke-width: 1.5"/>
    <path d="M 259.147341 176.92664 
L 296.626701 176.92664 
" clip-path="url(#p2baac12ac1)" style="fill: none; stroke: #1f77b4; stroke-width: 1.5"/>
    <path d="M 342.268233 174.870663 
L 379.747593 174.870663 
" clip-path="url(#p2baac12ac1)" style="fill: none; stroke: #1f77b4; stroke-width: 1.5"/>
   </g>
   <g id="LineCollection_3">
    <path d="M 92.572407 214.619558 
L 130.051767 214.619558 
" clip-path="url(#p2baac12ac1)" style="fill: none; stroke: #1f77b4; stroke-width: 1.5"/>
    <path d="M 175.859874 295.488 
L 213.339234 295.488 
" clip-path="url(#p2baac12ac1)" style="fill: none; stroke: #1f77b4; stroke-width: 1.5"/>
    <path d="M 259.147341 283.152136 
L 296.626701 283.152136 
" clip-path="url(#p2baac12ac1)" style="fill: none; stroke: #1f77b4; stroke-width: 1.5"/>
    <path d="M 342.268233 294.117348 
L 379.747593 294.117348 
" clip-path="url(#p2baac12ac1)" style="fill: none; stroke: #1f77b4; stroke-width: 1.5"/>
   </g>
   <g id="LineCollection_4">
    <path d="M 111.312087 214.619558 
L 111.312087 53.568 
" clip-path="url(#p2baac12ac1)" style="fill: none; stroke: #1f77b4; stroke-width: 1.5"/>
    <path d="M 194.599554 295.488 
L 194.599554 174.870663 
" clip-path="url(#p2baac12ac1)" style="fill: none; stroke: #1f77b4; stroke-width: 1.5"/>
    <path d="M 277.887021 283.152136 
L 277.887021 176.92664 
" clip-path="url(#p2baac12ac1)" style="fill: none; stroke: #1f77b4; stroke-width: 1.5"/>
    <path d="M 361.007913 294.117348 
L 361.007913 174.870663 
" clip-path="url(#p2baac12ac1)" style="fill: none; stroke: #1f77b4; stroke-width: 1.5"/>
   </g>
   <g id="line2d_18">
    <path d="M 111.312087 158.713422 
L 194.599554 243.641734 
L 277.887021 234.52416 
L 361.007913 244.132427 
" clip-path="url(#p2baac12ac1)" style="fill: none; stroke: #4682b4; stroke-width: 1.5; stroke-linecap: square"/>
   </g>
   <g id="patch_3">
    <path d="M 57.6 307.584 
L 57.6 41.472 
" style="fill: none; stroke: #000000; stroke-width: 0.8; stroke-linejoin: miter; stroke-linecap: square"/>
   </g>
   <g id="patch_4">
    <path d="M 414.72 307.584 
L 414.72 41.472 
" style="fill: none; stroke: #000000; stroke-width: 0.8; stroke-linejoin: miter; stroke-linecap: square"/>
   </g>
   <g id="patch_5">
    <path d="M 57.6 307.584 
L 414.72 307.584 
" style="fill: none; stroke: #000000; stroke-width: 0.8; stroke-linejoin: miter; stroke-linecap: square"/>
   </g>
   <g id="patch_6">
    <path d="M 57.6 41.472 
L 414.72 41.472 
" style="fill: none; stroke: #000000; stroke-width: 0.8; stroke-linejoin: miter; stroke-linecap: square"/>
   </g>
   <g id="text_20">
    <!-- Violinplot for progress of customer/buy_nothing -->
    <g transform="translate(93.315937 35.472)scale(0.12 -0.12)">
     <defs>
      <path id="DejaVuSans-56" d="M 1831 0 
L 50 4666 
L 709 4666 
L 2188 738 
L 3669 4666 
L 4325 4666 
L 2547 0 
L 1831 0 
z
" transform="scale(0.015625)"/>
      <path id="DejaVuSans-6c" d="M 603 4863 
L 1178 4863 
L 1178 0 
L 603 0 
L 603 4863 
z
" transform="scale(0.015625)"/>
      <path id="DejaVuSans-66" d="M 2375 4863 
L 2375 4384 
L 1825 4384 
Q 1516 4384 1395 4259 
Q 1275 4134 1275 3809 
L 1275 3500 
L 2222 3500 
L 2222 3053 
L 1275 3053 
L 1275 0 
L 697 0 
L 697 3053 
L 147 3053 
L 147 3500 
L 697 3500 
L 697 3744 
Q 697 4328 969 4595 
Q 1241 4863 1831 4863 
L 2375 4863 
z
" transform="scale(0.015625)"/>
      <path id="DejaVuSans-67" d="M 2906 1791 
Q 2906 2416 2648 2759 
Q 2391 3103 1925 3103 
Q 1463 3103 1205 2759 
Q 947 2416 947 1791 
Q 947 1169 1205 825 
Q 1463 481 1925 481 
Q 2391 481 2648 825 
Q 2906 1169 2906 1791 
z
M 3481 434 
Q 3481 -459 3084 -895 
Q 2688 -1331 1869 -1331 
Q 1566 -1331 1297 -1286 
Q 1028 -1241 775 -1147 
L 775 -588 
Q 1028 -725 1275 -790 
Q 1522 -856 1778 -856 
Q 2344 -856 2625 -561 
Q 2906 -266 2906 331 
L 2906 616 
Q 2728 306 2450 153 
Q 2172 0 1784 0 
Q 1141 0 747 490 
Q 353 981 353 1791 
Q 353 2603 747 3093 
Q 1141 3584 1784 3584 
Q 2172 3584 2450 3431 
Q 2728 3278 2906 2969 
L 2906 3500 
L 3481 3500 
L 3481 434 
z
" transform="scale(0.015625)"/>
      <path id="DejaVuSans-63" d="M 3122 3366 
L 3122 2828 
Q 2878 2963 2633 3030 
Q 2388 3097 2138 3097 
Q 1578 3097 1268 2742 
Q 959 2388 959 1747 
Q 959 1106 1268 751 
Q 1578 397 2138 397 
Q 2388 397 2633 464 
Q 2878 531 3122 666 
L 3122 134 
Q 2881 22 2623 -34 
Q 2366 -91 2075 -91 
Q 1284 -91 818 406 
Q 353 903 353 1747 
Q 353 2603 823 3093 
Q 1294 3584 2113 3584 
Q 2378 3584 2631 3529 
Q 2884 3475 3122 3366 
z
" transform="scale(0.015625)"/>
      <path id="DejaVuSans-75" d="M 544 1381 
L 544 3500 
L 1119 3500 
L 1119 1403 
Q 1119 906 1312 657 
Q 1506 409 1894 409 
Q 2359 409 2629 706 
Q 2900 1003 2900 1516 
L 2900 3500 
L 3475 3500 
L 3475 0 
L 2900 0 
L 2900 538 
Q 2691 219 2414 64 
Q 2138 -91 1772 -91 
Q 1169 -91 856 284 
Q 544 659 544 1381 
z
M 1991 3584 
L 1991 3584 
z
" transform="scale(0.015625)"/>
      <path id="DejaVuSans-6d" d="M 3328 2828 
Q 3544 3216 3844 3400 
Q 4144 3584 4550 3584 
Q 5097 3584 5394 3201 
Q 5691 2819 5691 2113 
L 5691 0 
L 5113 0 
L 5113 2094 
Q 5113 2597 4934 2840 
Q 4756 3084 4391 3084 
Q 3944 3084 3684 2787 
Q 3425 2491 3425 1978 
L 3425 0 
L 2847 0 
L 2847 2094 
Q 2847 2600 2669 2842 
Q 2491 3084 2119 3084 
Q 1678 3084 1418 2786 
Q 1159 2488 1159 1978 
L 1159 0 
L 581 0 
L 581 3500 
L 1159 3500 
L 1159 2956 
Q 1356 3278 1631 3431 
Q 1906 3584 2284 3584 
Q 2666 3584 2933 3390 
Q 3200 3197 3328 2828 
z
" transform="scale(0.015625)"/>
      <path id="DejaVuSans-2f" d="M 1625 4666 
L 2156 4666 
L 531 -594 
L 0 -594 
L 1625 4666 
z
" transform="scale(0.015625)"/>
      <path id="DejaVuSans-62" d="M 3116 1747 
Q 3116 2381 2855 2742 
Q 2594 3103 2138 3103 
Q 1681 3103 1420 2742 
Q 1159 2381 1159 1747 
Q 1159 1113 1420 752 
Q 1681 391 2138 391 
Q 2594 391 2855 752 
Q 3116 1113 3116 1747 
z
M 1159 2969 
Q 1341 3281 1617 3432 
Q 1894 3584 2278 3584 
Q 2916 3584 3314 3078 
Q 3713 2572 3713 1747 
Q 3713 922 3314 415 
Q 2916 -91 2278 -91 
Q 1894 -91 1617 61 
Q 1341 213 1159 525 
L 1159 0 
L 581 0 
L 581 4863 
L 1159 4863 
L 1159 2969 
z
" transform="scale(0.015625)"/>
      <path id="DejaVuSans-5f" d="M 3263 -1063 
L 3263 -1509 
L -63 -1509 
L -63 -1063 
L 3263 -1063 
z
" transform="scale(0.015625)"/>
      <path id="DejaVuSans-68" d="M 3513 2113 
L 3513 0 
L 2938 0 
L 2938 2094 
Q 2938 2591 2744 2837 
Q 2550 3084 2163 3084 
Q 1697 3084 1428 2787 
Q 1159 2491 1159 1978 
L 1159 0 
L 581 0 
L 581 4863 
L 1159 4863 
L 1159 2956 
Q 1366 3272 1645 3428 
Q 1925 3584 2291 3584 
Q 2894 3584 3203 3211 
Q 3513 2838 3513 2113 
z
" transform="scale(0.015625)"/>
     </defs>
     <use xlink:href="#DejaVuSans-56"/>
     <use xlink:href="#DejaVuSans-69" x="66.158203"/>
     <use xlink:href="#DejaVuSans-6f" x="93.941406"/>
     <use xlink:href="#DejaVuSans-6c" x="155.123047"/>
     <use xlink:href="#DejaVuSans-69" x="182.90625"/>
     <use xlink:href="#DejaVuSans-6e" x="210.689453"/>
     <use xlink:href="#DejaVuSans-70" x="274.068359"/>
     <use xlink:href="#DejaVuSans-6c" x="337.544922"/>
     <use xlink:href="#DejaVuSans-6f" x="365.328125"/>
     <use xlink:href="#DejaVuSans-74" x="426.509766"/>
     <use xlink:href="#DejaVuSans-20" x="465.71875"/>
     <use xlink:href="#DejaVuSans-66" x="497.505859"/>
     <use xlink:href="#DejaVuSans-6f" x="532.710938"/>
     <use xlink:href="#DejaVuSans-72" x="593.892578"/>
     <use xlink:href="#DejaVuSans-20" x="635.005859"/>
     <use xlink:href="#DejaVuSans-70" x="666.792969"/>
     <use xlink:href="#DejaVuSans-72" x="730.269531"/>
     <use xlink:href="#DejaVuSans-6f" x="769.132812"/>
     <use xlink:href="#DejaVuSans-67" x="830.314453"/>
     <use xlink:href="#DejaVuSans-72" x="893.791016"/>
     <use xlink:href="#DejaVuSans-65" x="932.654297"/>
     <use xlink:href="#DejaVuSans-73" x="994.177734"/>
     <use xlink:href="#DejaVuSans-73" x="1046.277344"/>
     <use xlink:href="#DejaVuSans-20" x="1098.376953"/>
     <use xlink:href="#DejaVuSans-6f" x="1130.164062"/>
     <use xlink:href="#DejaVuSans-66" x="1191.345703"/>
     <use xlink:href="#DejaVuSans-20" x="1226.550781"/>
     <use xlink:href="#DejaVuSans-63" x="1258.337891"/>
     <use xlink:href="#DejaVuSans-75" x="1313.318359"/>
     <use xlink:href="#DejaVuSans-73" x="1376.697266"/>
     <use xlink:href="#DejaVuSans-74" x="1428.796875"/>
     <use xlink:href="#DejaVuSans-6f" x="1468.005859"/>
     <use xlink:href="#DejaVuSans-6d" x="1529.1875"/>
     <use xlink:href="#DejaVuSans-65" x="1626.599609"/>
     <use xlink:href="#DejaVuSans-72" x="1688.123047"/>
     <use xlink:href="#DejaVuSans-2f" x="1729.236328"/>
     <use xlink:href="#DejaVuSans-62" x="1762.927734"/>
     <use xlink:href="#DejaVuSans-75" x="1826.404297"/>
     <use xlink:href="#DejaVuSans-79" x="1889.783203"/>
     <use xlink:href="#DejaVuSans-5f" x="1948.962891"/>
     <use xlink:href="#DejaVuSans-6e" x="1998.962891"/>
     <use xlink:href="#DejaVuSans-6f" x="2062.341797"/>
     <use xlink:href="#DejaVuSans-74" x="2123.523438"/>
     <use xlink:href="#DejaVuSans-68" x="2162.732422"/>
     <use xlink:href="#DejaVuSans-69" x="2226.111328"/>
     <use xlink:href="#DejaVuSans-6e" x="2253.894531"/>
     <use xlink:href="#DejaVuSans-67" x="2317.273438"/>
    </g>
   </g>
  </g>
 </g>
 <defs>
  <clipPath id="p2baac12ac1">
   <rect x="57.6" y="41.472" width="357.12" height="266.112"/>
  </clipPath>
 </defs>
</svg>
