<?xml version="1.0" encoding="utf-8" standalone="no"?>
<!DOCTYPE svg PUBLIC "-//W3C//DTD SVG 1.1//EN"
  "http://www.w3.org/Graphics/SVG/1.1/DTD/svg11.dtd">
<svg xmlns:xlink="http://www.w3.org/1999/xlink" width="460.8pt" height="345.6pt" viewBox="0 0 460.8 345.6" xmlns="http://www.w3.org/2000/svg" version="1.1">
 <metadata>
  <rdf:RDF xmlns:dc="http://purl.org/dc/elements/1.1/" xmlns:cc="http://creativecommons.org/ns#" xmlns:rdf="http://www.w3.org/1999/02/22-rdf-syntax-ns#">
   <cc:Work>
    <dc:type rdf:resource="http://purl.org/dc/dcmitype/StillImage"/>
    <dc:date>2022-06-20T17:59:09.250797</dc:date>
    <dc:format>image/svg+xml</dc:format>
    <dc:creator>
     <cc:Agent>
      <dc:title>Matplotlib v3.5.2, https://matplotlib.org/</dc:title>
     </cc:Agent>
    </dc:creator>
   </cc:Work>
  </rdf:RDF>
 </metadata>
 <defs>
  <style type="text/css">*{stroke-linejoin: round; stroke-linecap: butt}</style>
 </defs>
 <g id="figure_1">
  <g id="patch_1">
   <path d="M 0 345.6 
L 460.8 345.6 
L 460.8 0 
L 0 0 
z
" style="fill: #ffffff"/>
  </g>
  <g id="axes_1">
   <g id="patch_2">
    <path d="M 57.6 307.584 
L 414.72 307.584 
L 414.72 41.472 
L 57.6 41.472 
z
" style="fill: #ffffff"/>
   </g>
   <g id="PolyCollection_1">
    <path d="M 134.030343 294.389795 
L 81.983437 294.389795 
L 73.832727 291.957251 
L 78.464526 289.524708 
L 90.977925 287.092165 
L 101.273026 284.659621 
L 105.993272 282.227078 
L 107.352686 279.794534 
L 107.646081 277.361991 
L 107.755581 274.929448 
L 107.818086 272.496904 
L 107.838798 270.064361 
L 107.865839 267.631817 
L 107.912105 265.199274 
L 107.938135 262.766731 
L 107.93277 260.334187 
L 107.931665 257.901644 
L 107.95541 255.469101 
L 107.984756 253.036557 
L 108.000975 250.604014 
L 108.005909 248.17147 
L 108.006789 245.738927 
L 108.006884 243.306384 
L 108.00689 240.87384 
L 108.00689 238.441297 
L 108.00689 236.008754 
L 108.00689 233.57621 
L 108.00689 231.143667 
L 108.00689 228.711123 
L 108.00689 226.27858 
L 108.00689 223.846037 
L 108.00689 221.413493 
L 108.00689 218.98095 
L 108.00689 216.548406 
L 108.00689 214.115863 
L 108.00689 211.68332 
L 108.00689 209.250776 
L 108.00689 206.818233 
L 108.00689 204.38569 
L 108.00689 201.953146 
L 108.00689 199.520603 
L 108.00689 197.088059 
L 108.00689 194.655516 
L 108.00689 192.222973 
L 108.00689 189.790429 
L 108.006885 187.357886 
L 108.006803 184.925343 
L 108.006025 182.492799 
L 108.001518 180.060256 
L 107.986197 177.627712 
L 107.957443 175.195169 
L 107.933589 172.762626 
L 107.939478 170.330082 
L 107.968429 167.897539 
L 107.993277 165.464995 
L 108.003901 163.032452 
L 108.006483 160.599909 
L 108.006856 158.167365 
L 108.006888 155.734822 
L 108.00689 153.302279 
L 108.00689 150.869735 
L 108.00689 148.437192 
L 108.00689 146.004648 
L 108.00689 143.572105 
L 108.00689 141.139562 
L 108.00689 138.707018 
L 108.00689 136.274475 
L 108.00689 133.841932 
L 108.00689 131.409388 
L 108.00689 128.976845 
L 108.00689 126.544301 
L 108.00689 124.111758 
L 108.00689 121.679215 
L 108.00689 119.246671 
L 108.00689 116.814128 
L 108.00689 114.381585 
L 108.00689 111.949041 
L 108.00689 109.516498 
L 108.00689 107.083954 
L 108.00689 104.651411 
L 108.00689 102.218868 
L 108.00689 99.786324 
L 108.00689 97.353781 
L 108.00689 94.921237 
L 108.00689 92.488694 
L 108.00689 90.056151 
L 108.00689 87.623607 
L 108.00689 85.191064 
L 108.00689 82.758521 
L 108.00689 80.325977 
L 108.00689 77.893434 
L 108.00689 75.46089 
L 108.00689 73.028347 
L 108.006889 70.595804 
L 108.006876 68.16326 
L 108.006698 65.730717 
L 108.005241 63.298174 
L 107.99812 60.86563 
L 107.97796 58.433087 
L 107.947685 56.000543 
L 107.931722 53.568 
L 108.082058 53.568 
L 108.082058 53.568 
L 108.066095 56.000543 
L 108.03582 58.433087 
L 108.01566 60.86563 
L 108.008539 63.298174 
L 108.007082 65.730717 
L 108.006904 68.16326 
L 108.006891 70.595804 
L 108.00689 73.028347 
L 108.00689 75.46089 
L 108.00689 77.893434 
L 108.00689 80.325977 
L 108.00689 82.758521 
L 108.00689 85.191064 
L 108.00689 87.623607 
L 108.00689 90.056151 
L 108.00689 92.488694 
L 108.00689 94.921237 
L 108.00689 97.353781 
L 108.00689 99.786324 
L 108.00689 102.218868 
L 108.00689 104.651411 
L 108.00689 107.083954 
L 108.00689 109.516498 
L 108.00689 111.949041 
L 108.00689 114.381585 
L 108.00689 116.814128 
L 108.00689 119.246671 
L 108.00689 121.679215 
L 108.00689 124.111758 
L 108.00689 126.544301 
L 108.00689 128.976845 
L 108.00689 131.409388 
L 108.00689 133.841932 
L 108.00689 136.274475 
L 108.00689 138.707018 
L 108.00689 141.139562 
L 108.00689 143.572105 
L 108.00689 146.004648 
L 108.00689 148.437192 
L 108.00689 150.869735 
L 108.00689 153.302279 
L 108.006892 155.734822 
L 108.006924 158.167365 
L 108.007297 160.599909 
L 108.009879 163.032452 
L 108.020503 165.464995 
L 108.045351 167.897539 
L 108.074302 170.330082 
L 108.080191 172.762626 
L 108.056337 175.195169 
L 108.027583 177.627712 
L 108.012262 180.060256 
L 108.007755 182.492799 
L 108.006976 184.925343 
L 108.006895 187.357886 
L 108.00689 189.790429 
L 108.00689 192.222973 
L 108.00689 194.655516 
L 108.00689 197.088059 
L 108.00689 199.520603 
L 108.00689 201.953146 
L 108.00689 204.38569 
L 108.00689 206.818233 
L 108.00689 209.250776 
L 108.00689 211.68332 
L 108.00689 214.115863 
L 108.00689 216.548406 
L 108.00689 218.98095 
L 108.00689 221.413493 
L 108.00689 223.846037 
L 108.00689 226.27858 
L 108.00689 228.711123 
L 108.00689 231.143667 
L 108.00689 233.57621 
L 108.00689 236.008754 
L 108.00689 238.441297 
L 108.00689 240.87384 
L 108.006896 243.306384 
L 108.006991 245.738927 
L 108.007871 248.17147 
L 108.012805 250.604014 
L 108.029024 253.036557 
L 108.05837 255.469101 
L 108.082115 257.901644 
L 108.08101 260.334187 
L 108.075645 262.766731 
L 108.101675 265.199274 
L 108.147941 267.631817 
L 108.174981 270.064361 
L 108.195694 272.496904 
L 108.258199 274.929448 
L 108.367699 277.361991 
L 108.661094 279.794534 
L 110.020508 282.227078 
L 114.740754 284.659621 
L 125.035855 287.092165 
L 137.549254 289.524708 
L 142.181053 291.957251 
L 134.030343 294.389795 
z
" clip-path="url(#p8f36e5829b)" style="fill: #1f77b4; fill-opacity: 0.3"/>
   </g>
   <g id="PolyCollection_2">
    <path d="M 216.008756 295.488 
L 170.875837 295.488 
L 159.268134 293.9593 
L 161.549311 292.4306 
L 174.364247 290.9019 
L 185.590616 289.3732 
L 190.894496 287.8445 
L 192.632319 286.3158 
L 193.131742 284.7871 
L 193.269313 283.2584 
L 193.283673 281.7297 
L 193.274856 280.201 
L 193.313799 278.6723 
L 193.382243 277.1436 
L 193.426005 275.6149 
L 193.439776 274.0862 
L 193.442077 272.5575 
L 193.442286 271.0288 
L 193.442296 269.5001 
L 193.442297 267.9714 
L 193.442297 266.4427 
L 193.442297 264.914 
L 193.442297 263.3853 
L 193.442297 261.8566 
L 193.442297 260.3279 
L 193.442297 258.7992 
L 193.442297 257.2705 
L 193.442297 255.7418 
L 193.442297 254.2131 
L 193.442297 252.6844 
L 193.442297 251.1557 
L 193.442297 249.627 
L 193.442297 248.0983 
L 193.442297 246.5696 
L 193.442297 245.0409 
L 193.442297 243.5122 
L 193.442297 241.9835 
L 193.442297 240.4548 
L 193.442297 238.9261 
L 193.442297 237.3974 
L 193.442297 235.8687 
L 193.442297 234.339999 
L 193.442297 232.811299 
L 193.442297 231.282599 
L 193.442297 229.753899 
L 193.442297 228.225199 
L 193.442297 226.696499 
L 193.442297 225.167799 
L 193.442297 223.639099 
L 193.442297 222.110399 
L 193.442297 220.581699 
L 193.442297 219.052999 
L 193.442297 217.524299 
L 193.442297 215.995599 
L 193.442297 214.466899 
L 193.442297 212.938199 
L 193.442297 211.409499 
L 193.442297 209.880799 
L 193.442297 208.352099 
L 193.442297 206.823399 
L 193.442297 205.294699 
L 193.442297 203.765999 
L 193.442297 202.237299 
L 193.442297 200.708599 
L 193.442297 199.179899 
L 193.442297 197.651199 
L 193.442297 196.122499 
L 193.442297 194.593799 
L 193.442297 193.065099 
L 193.442297 191.536399 
L 193.442297 190.007699 
L 193.442297 188.478999 
L 193.442297 186.950299 
L 193.442297 185.421599 
L 193.442297 183.892899 
L 193.442297 182.364199 
L 193.442297 180.835499 
L 193.442297 179.306799 
L 193.442297 177.778099 
L 193.442297 176.249399 
L 193.442297 174.720699 
L 193.442297 173.191999 
L 193.442297 171.663299 
L 193.442297 170.134599 
L 193.442297 168.605899 
L 193.442297 167.077199 
L 193.442297 165.548499 
L 193.442297 164.019799 
L 193.442297 162.491099 
L 193.442297 160.962399 
L 193.442297 159.433699 
L 193.442297 157.904999 
L 193.442297 156.376299 
L 193.442297 154.847599 
L 193.442295 153.318899 
L 193.442251 151.790199 
L 193.441625 150.261499 
L 193.436822 148.732799 
L 193.417788 147.204099 
L 193.382055 145.675399 
L 193.360996 144.146699 
L 193.523597 144.146699 
L 193.523597 144.146699 
L 193.502539 145.675399 
L 193.466805 147.204099 
L 193.447771 148.732799 
L 193.442968 150.261499 
L 193.442342 151.790199 
L 193.442298 153.318899 
L 193.442297 154.847599 
L 193.442297 156.376299 
L 193.442297 157.904999 
L 193.442297 159.433699 
L 193.442297 160.962399 
L 193.442297 162.491099 
L 193.442297 164.019799 
L 193.442297 165.548499 
L 193.442297 167.077199 
L 193.442297 168.605899 
L 193.442297 170.134599 
L 193.442297 171.663299 
L 193.442297 173.191999 
L 193.442297 174.720699 
L 193.442297 176.249399 
L 193.442297 177.778099 
L 193.442297 179.306799 
L 193.442297 180.835499 
L 193.442297 182.364199 
L 193.442297 183.892899 
L 193.442297 185.421599 
L 193.442297 186.950299 
L 193.442297 188.478999 
L 193.442297 190.007699 
L 193.442297 191.536399 
L 193.442297 193.065099 
L 193.442297 194.593799 
L 193.442297 196.122499 
L 193.442297 197.651199 
L 193.442297 199.179899 
L 193.442297 200.708599 
L 193.442297 202.237299 
L 193.442297 203.765999 
L 193.442297 205.294699 
L 193.442297 206.823399 
L 193.442297 208.352099 
L 193.442297 209.880799 
L 193.442297 211.409499 
L 193.442297 212.938199 
L 193.442297 214.466899 
L 193.442297 215.995599 
L 193.442297 217.524299 
L 193.442297 219.052999 
L 193.442297 220.581699 
L 193.442297 222.110399 
L 193.442297 223.639099 
L 193.442297 225.167799 
L 193.442297 226.696499 
L 193.442297 228.225199 
L 193.442297 229.753899 
L 193.442297 231.282599 
L 193.442297 232.811299 
L 193.442297 234.339999 
L 193.442297 235.8687 
L 193.442297 237.3974 
L 193.442297 238.9261 
L 193.442297 240.4548 
L 193.442297 241.9835 
L 193.442297 243.5122 
L 193.442297 245.0409 
L 193.442297 246.5696 
L 193.442297 248.0983 
L 193.442297 249.627 
L 193.442297 251.1557 
L 193.442297 252.6844 
L 193.442297 254.2131 
L 193.442297 255.7418 
L 193.442297 257.2705 
L 193.442297 258.7992 
L 193.442297 260.3279 
L 193.442297 261.8566 
L 193.442297 263.3853 
L 193.442297 264.914 
L 193.442297 266.4427 
L 193.442297 267.9714 
L 193.442297 269.5001 
L 193.442307 271.0288 
L 193.442517 272.5575 
L 193.444817 274.0862 
L 193.458589 275.6149 
L 193.50235 277.1436 
L 193.570795 278.6723 
L 193.609738 280.201 
L 193.60092 281.7297 
L 193.615281 283.2584 
L 193.752851 284.7871 
L 194.252274 286.3158 
L 195.990097 287.8445 
L 201.293977 289.3732 
L 212.520347 290.9019 
L 225.335282 292.4306 
L 227.616459 293.9593 
L 216.008756 295.488 
z
" clip-path="url(#p8f36e5829b)" style="fill: #1f77b4; fill-opacity: 0.3"/>
   </g>
   <g id="PolyCollection_3">
    <path d="M 288.337953 294.994507 
L 269.417454 294.994507 
L 265.187203 294.716795 
L 260.39382 294.439084 
L 255.492975 294.161373 
L 251.02656 293.883661 
L 247.510417 293.60595 
L 245.335466 293.328239 
L 244.703541 293.050527 
L 245.601118 292.772816 
L 247.809492 292.495105 
L 250.952668 292.217394 
L 254.579692 291.939682 
L 258.26307 291.661971 
L 261.682167 291.38426 
L 264.663435 291.106548 
L 267.169014 290.828837 
L 269.249048 290.551126 
L 270.98571 290.273414 
L 272.45247 289.995703 
L 273.697224 289.717992 
L 274.74454 289.44028 
L 275.606967 289.162569 
L 276.29661 288.884858 
L 276.831834 288.607147 
L 277.237759 288.329435 
L 277.54249 288.051724 
L 277.772435 287.774013 
L 277.949036 287.496301 
L 278.087263 287.21859 
L 278.195476 286.940879 
L 278.276829 286.663167 
L 278.332544 286.385456 
L 278.365949 286.107745 
L 278.384713 285.830033 
L 278.399286 285.552322 
L 278.41834 285.274611 
L 278.444474 284.9969 
L 278.473309 284.719188 
L 278.496589 284.441477 
L 278.507268 284.163766 
L 278.503755 283.886054 
L 278.491318 283.608343 
L 278.479912 283.330632 
L 278.479198 283.05292 
L 278.492958 282.775209 
L 278.516074 282.497498 
L 278.536363 282.219786 
L 278.540739 281.942075 
L 278.522307 281.664364 
L 278.484249 281.386653 
L 278.438543 281.108941 
L 278.400819 280.83123 
L 278.384505 280.553519 
L 278.396942 280.275807 
L 278.438256 279.998096 
L 278.502372 279.720385 
L 278.57924 279.442673 
L 278.657611 279.164962 
L 278.727756 278.887251 
L 278.783404 278.609539 
L 278.822264 278.331828 
L 278.845117 278.054117 
L 278.854139 277.776405 
L 278.851524 277.498694 
L 278.83914 277.220983 
L 278.81928 276.943272 
L 278.795738 276.66556 
L 278.774066 276.387849 
L 278.760337 276.110138 
L 278.758824 275.832426 
L 278.770037 275.554715 
L 278.790521 275.277004 
L 278.814586 274.999292 
L 278.83685 274.721581 
L 278.854061 274.44387 
L 278.865471 274.166158 
L 278.872045 273.888447 
L 278.875363 273.610736 
L 278.876838 273.333025 
L 278.877416 273.055313 
L 278.877614 272.777602 
L 278.877662 272.499891 
L 278.877625 272.222179 
L 278.877453 271.944468 
L 278.876936 271.666757 
L 278.875589 271.389045 
L 278.872483 271.111334 
L 278.866133 270.833623 
L 278.854633 270.555911 
L 278.836187 270.2782 
L 278.809947 270.000489 
L 278.776721 269.722778 
L 278.739014 269.445066 
L 278.700258 269.167355 
L 278.663874 268.889644 
L 278.63301 268.611932 
L 278.611052 268.334221 
L 278.601975 268.05651 
L 278.609393 267.778798 
L 278.634475 267.501087 
L 279.120932 267.501087 
L 279.120932 267.501087 
L 279.146014 267.778798 
L 279.153432 268.05651 
L 279.144354 268.334221 
L 279.122397 268.611932 
L 279.091532 268.889644 
L 279.055149 269.167355 
L 279.016392 269.445066 
L 278.978685 269.722778 
L 278.94546 270.000489 
L 278.919219 270.2782 
L 278.900774 270.555911 
L 278.889274 270.833623 
L 278.882924 271.111334 
L 278.879818 271.389045 
L 278.878471 271.666757 
L 278.877954 271.944468 
L 278.877781 272.222179 
L 278.877745 272.499891 
L 278.877792 272.777602 
L 278.87799 273.055313 
L 278.878569 273.333025 
L 278.880044 273.610736 
L 278.883362 273.888447 
L 278.889936 274.166158 
L 278.901345 274.44387 
L 278.918557 274.721581 
L 278.94082 274.999292 
L 278.964885 275.277004 
L 278.98537 275.554715 
L 278.996583 275.832426 
L 278.995069 276.110138 
L 278.981341 276.387849 
L 278.959669 276.66556 
L 278.936126 276.943272 
L 278.916267 277.220983 
L 278.903883 277.498694 
L 278.901268 277.776405 
L 278.91029 278.054117 
L 278.933142 278.331828 
L 278.972003 278.609539 
L 279.027651 278.887251 
L 279.097796 279.164962 
L 279.176166 279.442673 
L 279.253035 279.720385 
L 279.317151 279.998096 
L 279.358465 280.275807 
L 279.370902 280.553519 
L 279.354587 280.83123 
L 279.316863 281.108941 
L 279.271158 281.386653 
L 279.233099 281.664364 
L 279.214668 281.942075 
L 279.219044 282.219786 
L 279.239333 282.497498 
L 279.262449 282.775209 
L 279.276208 283.05292 
L 279.275494 283.330632 
L 279.264089 283.608343 
L 279.251651 283.886054 
L 279.248139 284.163766 
L 279.258817 284.441477 
L 279.282098 284.719188 
L 279.310933 284.9969 
L 279.337066 285.274611 
L 279.356121 285.552322 
L 279.370694 285.830033 
L 279.389458 286.107745 
L 279.422863 286.385456 
L 279.478578 286.663167 
L 279.559931 286.940879 
L 279.668144 287.21859 
L 279.806371 287.496301 
L 279.982972 287.774013 
L 280.212917 288.051724 
L 280.517648 288.329435 
L 280.923572 288.607147 
L 281.458797 288.884858 
L 282.14844 289.162569 
L 283.010866 289.44028 
L 284.058182 289.717992 
L 285.302936 289.995703 
L 286.769697 290.273414 
L 288.506359 290.551126 
L 290.586392 290.828837 
L 293.091971 291.106548 
L 296.073239 291.38426 
L 299.492337 291.661971 
L 303.175714 291.939682 
L 306.802738 292.217394 
L 309.945915 292.495105 
L 312.154288 292.772816 
L 313.051866 293.050527 
L 312.419941 293.328239 
L 310.24499 293.60595 
L 306.728847 293.883661 
L 302.262432 294.161373 
L 297.361586 294.439084 
L 292.568203 294.716795 
L 288.337953 294.994507 
z
" clip-path="url(#p8f36e5829b)" style="fill: #1f77b4; fill-opacity: 0.3"/>
   </g>
   <g id="PolyCollection_4">
    <path d="M 370.122896 294.793193 
L 358.503324 294.793193 
L 353.904103 294.380859 
L 347.84802 293.968526 
L 341.167193 293.556192 
L 335.207658 293.143859 
L 331.298775 292.731525 
L 330.138947 292.319192 
L 331.55443 291.906858 
L 334.784607 291.494525 
L 338.97579 291.082192 
L 343.470039 290.669858 
L 347.812695 290.257525 
L 351.684731 289.845191 
L 354.892035 289.432858 
L 357.364895 289.020524 
L 359.130739 288.608191 
L 360.304117 288.195857 
L 361.085098 287.783524 
L 361.689735 287.37119 
L 362.233019 286.958857 
L 362.695405 286.546523 
L 363.015604 286.13419 
L 363.193667 285.721857 
L 363.29716 285.309523 
L 363.393016 284.89719 
L 363.492808 284.484856 
L 363.563139 284.072523 
L 363.583196 283.660189 
L 363.583694 283.247856 
L 363.619621 282.835522 
L 363.707726 282.423189 
L 363.805661 282.010855 
L 363.85918 281.598522 
L 363.863258 281.186188 
L 363.868462 280.773855 
L 363.925997 280.361522 
L 364.035644 279.949188 
L 364.15376 279.536855 
L 364.240367 279.124521 
L 364.286013 278.712188 
L 364.301623 278.299854 
L 364.298273 277.887521 
L 364.279283 277.475187 
L 364.245907 277.062854 
L 364.207231 276.65052 
L 364.181746 276.238187 
L 364.184823 275.825853 
L 364.214503 275.41352 
L 364.253453 275.001187 
L 364.284693 274.588853 
L 364.302387 274.17652 
L 364.309521 273.764186 
L 364.310303 273.351853 
L 364.305409 272.939519 
L 364.291395 272.527186 
L 364.264149 272.114852 
L 364.226154 271.702519 
L 364.191549 271.290185 
L 364.179356 270.877852 
L 364.197274 270.465518 
L 364.234152 270.053185 
L 364.270748 269.640852 
L 364.295222 269.228518 
L 364.307165 268.816185 
L 364.311555 268.403851 
L 364.31279 267.991518 
L 364.313058 267.579184 
L 364.313103 267.166851 
L 364.313109 266.754517 
L 364.31311 266.342184 
L 364.31311 265.92985 
L 364.31311 265.517517 
L 364.31311 265.105183 
L 364.31311 264.69285 
L 364.31311 264.280517 
L 364.31311 263.868183 
L 364.31311 263.45585 
L 364.31311 263.043516 
L 364.31311 262.631183 
L 364.31311 262.218849 
L 364.31311 261.806516 
L 364.31311 261.394182 
L 364.31311 260.981849 
L 364.31311 260.569515 
L 364.31311 260.157182 
L 364.31311 259.744849 
L 364.31311 259.332515 
L 364.31311 258.920182 
L 364.31311 258.507848 
L 364.313109 258.095515 
L 364.313102 257.683181 
L 364.313047 257.270848 
L 364.31273 256.858514 
L 364.31131 256.446181 
L 364.306394 256.033847 
L 364.293386 255.621514 
L 364.267514 255.20918 
L 364.230148 254.796847 
L 364.194302 254.384514 
L 364.179193 253.97218 
L 364.447027 253.97218 
L 364.447027 253.97218 
L 364.431918 254.384514 
L 364.396072 254.796847 
L 364.358706 255.20918 
L 364.332834 255.621514 
L 364.319826 256.033847 
L 364.31491 256.446181 
L 364.31349 256.858514 
L 364.313173 257.270848 
L 364.313118 257.683181 
L 364.313111 258.095515 
L 364.31311 258.507848 
L 364.31311 258.920182 
L 364.31311 259.332515 
L 364.31311 259.744849 
L 364.31311 260.157182 
L 364.31311 260.569515 
L 364.31311 260.981849 
L 364.31311 261.394182 
L 364.31311 261.806516 
L 364.31311 262.218849 
L 364.31311 262.631183 
L 364.31311 263.043516 
L 364.31311 263.45585 
L 364.31311 263.868183 
L 364.31311 264.280517 
L 364.31311 264.69285 
L 364.31311 265.105183 
L 364.31311 265.517517 
L 364.31311 265.92985 
L 364.31311 266.342184 
L 364.313111 266.754517 
L 364.313117 267.166851 
L 364.313162 267.579184 
L 364.31343 267.991518 
L 364.314665 268.403851 
L 364.319056 268.816185 
L 364.330998 269.228518 
L 364.355472 269.640852 
L 364.392069 270.053185 
L 364.428946 270.465518 
L 364.446864 270.877852 
L 364.434671 271.290185 
L 364.400066 271.702519 
L 364.362071 272.114852 
L 364.334825 272.527186 
L 364.320811 272.939519 
L 364.315917 273.351853 
L 364.3167 273.764186 
L 364.323833 274.17652 
L 364.341527 274.588853 
L 364.372767 275.001187 
L 364.411717 275.41352 
L 364.441397 275.825853 
L 364.444474 276.238187 
L 364.418989 276.65052 
L 364.380313 277.062854 
L 364.346937 277.475187 
L 364.327947 277.887521 
L 364.324597 278.299854 
L 364.340207 278.712188 
L 364.385853 279.124521 
L 364.47246 279.536855 
L 364.590576 279.949188 
L 364.700223 280.361522 
L 364.757758 280.773855 
L 364.762962 281.186188 
L 364.76704 281.598522 
L 364.820559 282.010855 
L 364.918495 282.423189 
L 365.006599 282.835522 
L 365.042526 283.247856 
L 365.043024 283.660189 
L 365.063081 284.072523 
L 365.133412 284.484856 
L 365.233204 284.89719 
L 365.32906 285.309523 
L 365.432553 285.721857 
L 365.610616 286.13419 
L 365.930815 286.546523 
L 366.393201 286.958857 
L 366.936485 287.37119 
L 367.541122 287.783524 
L 368.322103 288.195857 
L 369.495481 288.608191 
L 371.261325 289.020524 
L 373.734185 289.432858 
L 376.941489 289.845191 
L 380.813525 290.257525 
L 385.156181 290.669858 
L 389.650431 291.082192 
L 393.841613 291.494525 
L 397.07179 291.906858 
L 398.487273 292.319192 
L 397.327445 292.731525 
L 393.418562 293.143859 
L 387.459027 293.556192 
L 380.7782 293.968526 
L 374.722117 294.380859 
L 370.122896 294.793193 
z
" clip-path="url(#p8f36e5829b)" style="fill: #1f77b4; fill-opacity: 0.3"/>
   </g>
   <g id="matplotlib.axis_1">
    <g id="xtick_1">
     <g id="line2d_1">
      <path d="M 65.289187 307.584 
L 65.289187 41.472 
" clip-path="url(#p8f36e5829b)" style="fill: none; stroke-dasharray: 2.96,1.28; stroke-dashoffset: 0; stroke: #b0b0b0; stroke-width: 0.8"/>
     </g>
     <g id="line2d_2">
      <defs>
       <path id="m53033e5d90" d="M 0 0 
L 0 3.5 
" style="stroke: #000000; stroke-width: 0.8"/>
      </defs>
      <g>
       <use xlink:href="#m53033e5d90" x="65.289187" y="307.584" style="stroke: #000000; stroke-width: 0.8"/>
      </g>
     </g>
     <g id="text_1">
      <!-- 250 -->
      <g transform="translate(55.745437 322.182437)scale(0.1 -0.1)">
       <defs>
        <path id="DejaVuSans-32" d="M 1228 531 
L 3431 531 
L 3431 0 
L 469 0 
L 469 531 
Q 828 903 1448 1529 
Q 2069 2156 2228 2338 
Q 2531 2678 2651 2914 
Q 2772 3150 2772 3378 
Q 2772 3750 2511 3984 
Q 2250 4219 1831 4219 
Q 1534 4219 1204 4116 
Q 875 4013 500 3803 
L 500 4441 
Q 881 4594 1212 4672 
Q 1544 4750 1819 4750 
Q 2544 4750 2975 4387 
Q 3406 4025 3406 3419 
Q 3406 3131 3298 2873 
Q 3191 2616 2906 2266 
Q 2828 2175 2409 1742 
Q 1991 1309 1228 531 
z
" transform="scale(0.015625)"/>
        <path id="DejaVuSans-35" d="M 691 4666 
L 3169 4666 
L 3169 4134 
L 1269 4134 
L 1269 2991 
Q 1406 3038 1543 3061 
Q 1681 3084 1819 3084 
Q 2600 3084 3056 2656 
Q 3513 2228 3513 1497 
Q 3513 744 3044 326 
Q 2575 -91 1722 -91 
Q 1428 -91 1123 -41 
Q 819 9 494 109 
L 494 744 
Q 775 591 1075 516 
Q 1375 441 1709 441 
Q 2250 441 2565 725 
Q 2881 1009 2881 1497 
Q 2881 1984 2565 2268 
Q 2250 2553 1709 2553 
Q 1456 2553 1204 2497 
Q 953 2441 691 2322 
L 691 4666 
z
" transform="scale(0.015625)"/>
        <path id="DejaVuSans-30" d="M 2034 4250 
Q 1547 4250 1301 3770 
Q 1056 3291 1056 2328 
Q 1056 1369 1301 889 
Q 1547 409 2034 409 
Q 2525 409 2770 889 
Q 3016 1369 3016 2328 
Q 3016 3291 2770 3770 
Q 2525 4250 2034 4250 
z
M 2034 4750 
Q 2819 4750 3233 4129 
Q 3647 3509 3647 2328 
Q 3647 1150 3233 529 
Q 2819 -91 2034 -91 
Q 1250 -91 836 529 
Q 422 1150 422 2328 
Q 422 3509 836 4129 
Q 1250 4750 2034 4750 
z
" transform="scale(0.015625)"/>
       </defs>
       <use xlink:href="#DejaVuSans-32"/>
       <use xlink:href="#DejaVuSans-35" x="63.623047"/>
       <use xlink:href="#DejaVuSans-30" x="127.246094"/>
      </g>
     </g>
    </g>
    <g id="xtick_2">
     <g id="line2d_3">
      <path d="M 108.00689 307.584 
L 108.00689 41.472 
" clip-path="url(#p8f36e5829b)" style="fill: none; stroke-dasharray: 2.96,1.28; stroke-dashoffset: 0; stroke: #b0b0b0; stroke-width: 0.8"/>
     </g>
     <g id="line2d_4">
      <g>
       <use xlink:href="#m53033e5d90" x="108.00689" y="307.584" style="stroke: #000000; stroke-width: 0.8"/>
      </g>
     </g>
     <g id="text_2">
      <!-- 500 -->
      <g transform="translate(98.46314 322.182437)scale(0.1 -0.1)">
       <use xlink:href="#DejaVuSans-35"/>
       <use xlink:href="#DejaVuSans-30" x="63.623047"/>
       <use xlink:href="#DejaVuSans-30" x="127.246094"/>
      </g>
     </g>
    </g>
    <g id="xtick_3">
     <g id="line2d_5">
      <path d="M 150.724593 307.584 
L 150.724593 41.472 
" clip-path="url(#p8f36e5829b)" style="fill: none; stroke-dasharray: 2.96,1.28; stroke-dashoffset: 0; stroke: #b0b0b0; stroke-width: 0.8"/>
     </g>
     <g id="line2d_6">
      <g>
       <use xlink:href="#m53033e5d90" x="150.724593" y="307.584" style="stroke: #000000; stroke-width: 0.8"/>
      </g>
     </g>
     <g id="text_3">
      <!-- 750 -->
      <g transform="translate(141.180843 322.182437)scale(0.1 -0.1)">
       <defs>
        <path id="DejaVuSans-37" d="M 525 4666 
L 3525 4666 
L 3525 4397 
L 1831 0 
L 1172 0 
L 2766 4134 
L 525 4134 
L 525 4666 
z
" transform="scale(0.015625)"/>
       </defs>
       <use xlink:href="#DejaVuSans-37"/>
       <use xlink:href="#DejaVuSans-35" x="63.623047"/>
       <use xlink:href="#DejaVuSans-30" x="127.246094"/>
      </g>
     </g>
    </g>
    <g id="xtick_4">
     <g id="line2d_7">
      <path d="M 193.442297 307.584 
L 193.442297 41.472 
" clip-path="url(#p8f36e5829b)" style="fill: none; stroke-dasharray: 2.96,1.28; stroke-dashoffset: 0; stroke: #b0b0b0; stroke-width: 0.8"/>
     </g>
     <g id="line2d_8">
      <g>
       <use xlink:href="#m53033e5d90" x="193.442297" y="307.584" style="stroke: #000000; stroke-width: 0.8"/>
      </g>
     </g>
     <g id="text_4">
      <!-- 1000 -->
      <g transform="translate(180.717297 322.182437)scale(0.1 -0.1)">
       <defs>
        <path id="DejaVuSans-31" d="M 794 531 
L 1825 531 
L 1825 4091 
L 703 3866 
L 703 4441 
L 1819 4666 
L 2450 4666 
L 2450 531 
L 3481 531 
L 3481 0 
L 794 0 
L 794 531 
z
" transform="scale(0.015625)"/>
       </defs>
       <use xlink:href="#DejaVuSans-31"/>
       <use xlink:href="#DejaVuSans-30" x="63.623047"/>
       <use xlink:href="#DejaVuSans-30" x="127.246094"/>
       <use xlink:href="#DejaVuSans-30" x="190.869141"/>
      </g>
     </g>
    </g>
    <g id="xtick_5">
     <g id="line2d_9">
      <path d="M 236.16 307.584 
L 236.16 41.472 
" clip-path="url(#p8f36e5829b)" style="fill: none; stroke-dasharray: 2.96,1.28; stroke-dashoffset: 0; stroke: #b0b0b0; stroke-width: 0.8"/>
     </g>
     <g id="line2d_10">
      <g>
       <use xlink:href="#m53033e5d90" x="236.16" y="307.584" style="stroke: #000000; stroke-width: 0.8"/>
      </g>
     </g>
     <g id="text_5">
      <!-- 1250 -->
      <g transform="translate(223.435 322.182437)scale(0.1 -0.1)">
       <use xlink:href="#DejaVuSans-31"/>
       <use xlink:href="#DejaVuSans-32" x="63.623047"/>
       <use xlink:href="#DejaVuSans-35" x="127.246094"/>
       <use xlink:href="#DejaVuSans-30" x="190.869141"/>
      </g>
     </g>
    </g>
    <g id="xtick_6">
     <g id="line2d_11">
      <path d="M 278.877703 307.584 
L 278.877703 41.472 
" clip-path="url(#p8f36e5829b)" style="fill: none; stroke-dasharray: 2.96,1.28; stroke-dashoffset: 0; stroke: #b0b0b0; stroke-width: 0.8"/>
     </g>
     <g id="line2d_12">
      <g>
       <use xlink:href="#m53033e5d90" x="278.877703" y="307.584" style="stroke: #000000; stroke-width: 0.8"/>
      </g>
     </g>
     <g id="text_6">
      <!-- 1500 -->
      <g transform="translate(266.152703 322.182437)scale(0.1 -0.1)">
       <use xlink:href="#DejaVuSans-31"/>
       <use xlink:href="#DejaVuSans-35" x="63.623047"/>
       <use xlink:href="#DejaVuSans-30" x="127.246094"/>
       <use xlink:href="#DejaVuSans-30" x="190.869141"/>
      </g>
     </g>
    </g>
    <g id="xtick_7">
     <g id="line2d_13">
      <path d="M 321.595407 307.584 
L 321.595407 41.472 
" clip-path="url(#p8f36e5829b)" style="fill: none; stroke-dasharray: 2.96,1.28; stroke-dashoffset: 0; stroke: #b0b0b0; stroke-width: 0.8"/>
     </g>
     <g id="line2d_14">
      <g>
       <use xlink:href="#m53033e5d90" x="321.595407" y="307.584" style="stroke: #000000; stroke-width: 0.8"/>
      </g>
     </g>
     <g id="text_7">
      <!-- 1750 -->
      <g transform="translate(308.870407 322.182437)scale(0.1 -0.1)">
       <use xlink:href="#DejaVuSans-31"/>
       <use xlink:href="#DejaVuSans-37" x="63.623047"/>
       <use xlink:href="#DejaVuSans-35" x="127.246094"/>
       <use xlink:href="#DejaVuSans-30" x="190.869141"/>
      </g>
     </g>
    </g>
    <g id="xtick_8">
     <g id="line2d_15">
      <path d="M 364.31311 307.584 
L 364.31311 41.472 
" clip-path="url(#p8f36e5829b)" style="fill: none; stroke-dasharray: 2.96,1.28; stroke-dashoffset: 0; stroke: #b0b0b0; stroke-width: 0.8"/>
     </g>
     <g id="line2d_16">
      <g>
       <use xlink:href="#m53033e5d90" x="364.31311" y="307.584" style="stroke: #000000; stroke-width: 0.8"/>
      </g>
     </g>
     <g id="text_8">
      <!-- 2000 -->
      <g transform="translate(351.58811 322.182437)scale(0.1 -0.1)">
       <use xlink:href="#DejaVuSans-32"/>
       <use xlink:href="#DejaVuSans-30" x="63.623047"/>
       <use xlink:href="#DejaVuSans-30" x="127.246094"/>
       <use xlink:href="#DejaVuSans-30" x="190.869141"/>
      </g>
     </g>
    </g>
    <g id="xtick_9">
     <g id="line2d_17">
      <path d="M 407.030813 307.584 
L 407.030813 41.472 
" clip-path="url(#p8f36e5829b)" style="fill: none; stroke-dasharray: 2.96,1.28; stroke-dashoffset: 0; stroke: #b0b0b0; stroke-width: 0.8"/>
     </g>
     <g id="line2d_18">
      <g>
       <use xlink:href="#m53033e5d90" x="407.030813" y="307.584" style="stroke: #000000; stroke-width: 0.8"/>
      </g>
     </g>
     <g id="text_9">
      <!-- 2250 -->
      <g transform="translate(394.305813 322.182437)scale(0.1 -0.1)">
       <use xlink:href="#DejaVuSans-32"/>
       <use xlink:href="#DejaVuSans-32" x="63.623047"/>
       <use xlink:href="#DejaVuSans-35" x="127.246094"/>
       <use xlink:href="#DejaVuSans-30" x="190.869141"/>
      </g>
     </g>
    </g>
    <g id="text_10">
     <!-- Learned Episodes -->
     <g transform="translate(192.102187 335.860562)scale(0.1 -0.1)">
      <defs>
       <path id="DejaVuSans-4c" d="M 628 4666 
L 1259 4666 
L 1259 531 
L 3531 531 
L 3531 0 
L 628 0 
L 628 4666 
z
" transform="scale(0.015625)"/>
       <path id="DejaVuSans-65" d="M 3597 1894 
L 3597 1613 
L 953 1613 
Q 991 1019 1311 708 
Q 1631 397 2203 397 
Q 2534 397 2845 478 
Q 3156 559 3463 722 
L 3463 178 
Q 3153 47 2828 -22 
Q 2503 -91 2169 -91 
Q 1331 -91 842 396 
Q 353 884 353 1716 
Q 353 2575 817 3079 
Q 1281 3584 2069 3584 
Q 2775 3584 3186 3129 
Q 3597 2675 3597 1894 
z
M 3022 2063 
Q 3016 2534 2758 2815 
Q 2500 3097 2075 3097 
Q 1594 3097 1305 2825 
Q 1016 2553 972 2059 
L 3022 2063 
z
" transform="scale(0.015625)"/>
       <path id="DejaVuSans-61" d="M 2194 1759 
Q 1497 1759 1228 1600 
Q 959 1441 959 1056 
Q 959 750 1161 570 
Q 1363 391 1709 391 
Q 2188 391 2477 730 
Q 2766 1069 2766 1631 
L 2766 1759 
L 2194 1759 
z
M 3341 1997 
L 3341 0 
L 2766 0 
L 2766 531 
Q 2569 213 2275 61 
Q 1981 -91 1556 -91 
Q 1019 -91 701 211 
Q 384 513 384 1019 
Q 384 1609 779 1909 
Q 1175 2209 1959 2209 
L 2766 2209 
L 2766 2266 
Q 2766 2663 2505 2880 
Q 2244 3097 1772 3097 
Q 1472 3097 1187 3025 
Q 903 2953 641 2809 
L 641 3341 
Q 956 3463 1253 3523 
Q 1550 3584 1831 3584 
Q 2591 3584 2966 3190 
Q 3341 2797 3341 1997 
z
" transform="scale(0.015625)"/>
       <path id="DejaVuSans-72" d="M 2631 2963 
Q 2534 3019 2420 3045 
Q 2306 3072 2169 3072 
Q 1681 3072 1420 2755 
Q 1159 2438 1159 1844 
L 1159 0 
L 581 0 
L 581 3500 
L 1159 3500 
L 1159 2956 
Q 1341 3275 1631 3429 
Q 1922 3584 2338 3584 
Q 2397 3584 2469 3576 
Q 2541 3569 2628 3553 
L 2631 2963 
z
" transform="scale(0.015625)"/>
       <path id="DejaVuSans-6e" d="M 3513 2113 
L 3513 0 
L 2938 0 
L 2938 2094 
Q 2938 2591 2744 2837 
Q 2550 3084 2163 3084 
Q 1697 3084 1428 2787 
Q 1159 2491 1159 1978 
L 1159 0 
L 581 0 
L 581 3500 
L 1159 3500 
L 1159 2956 
Q 1366 3272 1645 3428 
Q 1925 3584 2291 3584 
Q 2894 3584 3203 3211 
Q 3513 2838 3513 2113 
z
" transform="scale(0.015625)"/>
       <path id="DejaVuSans-64" d="M 2906 2969 
L 2906 4863 
L 3481 4863 
L 3481 0 
L 2906 0 
L 2906 525 
Q 2725 213 2448 61 
Q 2172 -91 1784 -91 
Q 1150 -91 751 415 
Q 353 922 353 1747 
Q 353 2572 751 3078 
Q 1150 3584 1784 3584 
Q 2172 3584 2448 3432 
Q 2725 3281 2906 2969 
z
M 947 1747 
Q 947 1113 1208 752 
Q 1469 391 1925 391 
Q 2381 391 2643 752 
Q 2906 1113 2906 1747 
Q 2906 2381 2643 2742 
Q 2381 3103 1925 3103 
Q 1469 3103 1208 2742 
Q 947 2381 947 1747 
z
" transform="scale(0.015625)"/>
       <path id="DejaVuSans-20" transform="scale(0.015625)"/>
       <path id="DejaVuSans-45" d="M 628 4666 
L 3578 4666 
L 3578 4134 
L 1259 4134 
L 1259 2753 
L 3481 2753 
L 3481 2222 
L 1259 2222 
L 1259 531 
L 3634 531 
L 3634 0 
L 628 0 
L 628 4666 
z
" transform="scale(0.015625)"/>
       <path id="DejaVuSans-70" d="M 1159 525 
L 1159 -1331 
L 581 -1331 
L 581 3500 
L 1159 3500 
L 1159 2969 
Q 1341 3281 1617 3432 
Q 1894 3584 2278 3584 
Q 2916 3584 3314 3078 
Q 3713 2572 3713 1747 
Q 3713 922 3314 415 
Q 2916 -91 2278 -91 
Q 1894 -91 1617 61 
Q 1341 213 1159 525 
z
M 3116 1747 
Q 3116 2381 2855 2742 
Q 2594 3103 2138 3103 
Q 1681 3103 1420 2742 
Q 1159 2381 1159 1747 
Q 1159 1113 1420 752 
Q 1681 391 2138 391 
Q 2594 391 2855 752 
Q 3116 1113 3116 1747 
z
" transform="scale(0.015625)"/>
       <path id="DejaVuSans-69" d="M 603 3500 
L 1178 3500 
L 1178 0 
L 603 0 
L 603 3500 
z
M 603 4863 
L 1178 4863 
L 1178 4134 
L 603 4134 
L 603 4863 
z
" transform="scale(0.015625)"/>
       <path id="DejaVuSans-73" d="M 2834 3397 
L 2834 2853 
Q 2591 2978 2328 3040 
Q 2066 3103 1784 3103 
Q 1356 3103 1142 2972 
Q 928 2841 928 2578 
Q 928 2378 1081 2264 
Q 1234 2150 1697 2047 
L 1894 2003 
Q 2506 1872 2764 1633 
Q 3022 1394 3022 966 
Q 3022 478 2636 193 
Q 2250 -91 1575 -91 
Q 1294 -91 989 -36 
Q 684 19 347 128 
L 347 722 
Q 666 556 975 473 
Q 1284 391 1588 391 
Q 1994 391 2212 530 
Q 2431 669 2431 922 
Q 2431 1156 2273 1281 
Q 2116 1406 1581 1522 
L 1381 1569 
Q 847 1681 609 1914 
Q 372 2147 372 2553 
Q 372 3047 722 3315 
Q 1072 3584 1716 3584 
Q 2034 3584 2315 3537 
Q 2597 3491 2834 3397 
z
" transform="scale(0.015625)"/>
       <path id="DejaVuSans-6f" d="M 1959 3097 
Q 1497 3097 1228 2736 
Q 959 2375 959 1747 
Q 959 1119 1226 758 
Q 1494 397 1959 397 
Q 2419 397 2687 759 
Q 2956 1122 2956 1747 
Q 2956 2369 2687 2733 
Q 2419 3097 1959 3097 
z
M 1959 3584 
Q 2709 3584 3137 3096 
Q 3566 2609 3566 1747 
Q 3566 888 3137 398 
Q 2709 -91 1959 -91 
Q 1206 -91 779 398 
Q 353 888 353 1747 
Q 353 2609 779 3096 
Q 1206 3584 1959 3584 
z
" transform="scale(0.015625)"/>
      </defs>
      <use xlink:href="#DejaVuSans-4c"/>
      <use xlink:href="#DejaVuSans-65" x="53.962891"/>
      <use xlink:href="#DejaVuSans-61" x="115.486328"/>
      <use xlink:href="#DejaVuSans-72" x="176.765625"/>
      <use xlink:href="#DejaVuSans-6e" x="216.128906"/>
      <use xlink:href="#DejaVuSans-65" x="279.507812"/>
      <use xlink:href="#DejaVuSans-64" x="341.03125"/>
      <use xlink:href="#DejaVuSans-20" x="404.507812"/>
      <use xlink:href="#DejaVuSans-45" x="436.294922"/>
      <use xlink:href="#DejaVuSans-70" x="499.478516"/>
      <use xlink:href="#DejaVuSans-69" x="562.955078"/>
      <use xlink:href="#DejaVuSans-73" x="590.738281"/>
      <use xlink:href="#DejaVuSans-6f" x="642.837891"/>
      <use xlink:href="#DejaVuSans-64" x="704.019531"/>
      <use xlink:href="#DejaVuSans-65" x="767.496094"/>
      <use xlink:href="#DejaVuSans-73" x="829.019531"/>
     </g>
    </g>
   </g>
   <g id="matplotlib.axis_2">
    <g id="ytick_1">
     <g id="line2d_19">
      <path d="M 57.6 298.093191 
L 414.72 298.093191 
" clip-path="url(#p8f36e5829b)" style="fill: none; stroke-dasharray: 2.96,1.28; stroke-dashoffset: 0; stroke: #b0b0b0; stroke-width: 0.8"/>
     </g>
     <g id="line2d_20">
      <defs>
       <path id="mcb06f1c375" d="M 0 0 
L -3.5 0 
" style="stroke: #000000; stroke-width: 0.8"/>
      </defs>
      <g>
       <use xlink:href="#mcb06f1c375" x="57.6" y="298.093191" style="stroke: #000000; stroke-width: 0.8"/>
      </g>
     </g>
     <g id="text_11">
      <!-- 0 -->
      <g transform="translate(44.2375 301.89241)scale(0.1 -0.1)">
       <use xlink:href="#DejaVuSans-30"/>
      </g>
     </g>
    </g>
    <g id="ytick_2">
     <g id="line2d_21">
      <path d="M 57.6 249.120705 
L 414.72 249.120705 
" clip-path="url(#p8f36e5829b)" style="fill: none; stroke-dasharray: 2.96,1.28; stroke-dashoffset: 0; stroke: #b0b0b0; stroke-width: 0.8"/>
     </g>
     <g id="line2d_22">
      <g>
       <use xlink:href="#mcb06f1c375" x="57.6" y="249.120705" style="stroke: #000000; stroke-width: 0.8"/>
      </g>
     </g>
     <g id="text_12">
      <!-- 2 -->
      <g transform="translate(44.2375 252.919924)scale(0.1 -0.1)">
       <use xlink:href="#DejaVuSans-32"/>
      </g>
     </g>
    </g>
    <g id="ytick_3">
     <g id="line2d_23">
      <path d="M 57.6 200.148219 
L 414.72 200.148219 
" clip-path="url(#p8f36e5829b)" style="fill: none; stroke-dasharray: 2.96,1.28; stroke-dashoffset: 0; stroke: #b0b0b0; stroke-width: 0.8"/>
     </g>
     <g id="line2d_24">
      <g>
       <use xlink:href="#mcb06f1c375" x="57.6" y="200.148219" style="stroke: #000000; stroke-width: 0.8"/>
      </g>
     </g>
     <g id="text_13">
      <!-- 4 -->
      <g transform="translate(44.2375 203.947438)scale(0.1 -0.1)">
       <defs>
        <path id="DejaVuSans-34" d="M 2419 4116 
L 825 1625 
L 2419 1625 
L 2419 4116 
z
M 2253 4666 
L 3047 4666 
L 3047 1625 
L 3713 1625 
L 3713 1100 
L 3047 1100 
L 3047 0 
L 2419 0 
L 2419 1100 
L 313 1100 
L 313 1709 
L 2253 4666 
z
" transform="scale(0.015625)"/>
       </defs>
       <use xlink:href="#DejaVuSans-34"/>
      </g>
     </g>
    </g>
    <g id="ytick_4">
     <g id="line2d_25">
      <path d="M 57.6 151.175733 
L 414.72 151.175733 
" clip-path="url(#p8f36e5829b)" style="fill: none; stroke-dasharray: 2.96,1.28; stroke-dashoffset: 0; stroke: #b0b0b0; stroke-width: 0.8"/>
     </g>
     <g id="line2d_26">
      <g>
       <use xlink:href="#mcb06f1c375" x="57.6" y="151.175733" style="stroke: #000000; stroke-width: 0.8"/>
      </g>
     </g>
     <g id="text_14">
      <!-- 6 -->
      <g transform="translate(44.2375 154.974952)scale(0.1 -0.1)">
       <defs>
        <path id="DejaVuSans-36" d="M 2113 2584 
Q 1688 2584 1439 2293 
Q 1191 2003 1191 1497 
Q 1191 994 1439 701 
Q 1688 409 2113 409 
Q 2538 409 2786 701 
Q 3034 994 3034 1497 
Q 3034 2003 2786 2293 
Q 2538 2584 2113 2584 
z
M 3366 4563 
L 3366 3988 
Q 3128 4100 2886 4159 
Q 2644 4219 2406 4219 
Q 1781 4219 1451 3797 
Q 1122 3375 1075 2522 
Q 1259 2794 1537 2939 
Q 1816 3084 2150 3084 
Q 2853 3084 3261 2657 
Q 3669 2231 3669 1497 
Q 3669 778 3244 343 
Q 2819 -91 2113 -91 
Q 1303 -91 875 529 
Q 447 1150 447 2328 
Q 447 3434 972 4092 
Q 1497 4750 2381 4750 
Q 2619 4750 2861 4703 
Q 3103 4656 3366 4563 
z
" transform="scale(0.015625)"/>
       </defs>
       <use xlink:href="#DejaVuSans-36"/>
      </g>
     </g>
    </g>
    <g id="ytick_5">
     <g id="line2d_27">
      <path d="M 57.6 102.203247 
L 414.72 102.203247 
" clip-path="url(#p8f36e5829b)" style="fill: none; stroke-dasharray: 2.96,1.28; stroke-dashoffset: 0; stroke: #b0b0b0; stroke-width: 0.8"/>
     </g>
     <g id="line2d_28">
      <g>
       <use xlink:href="#mcb06f1c375" x="57.6" y="102.203247" style="stroke: #000000; stroke-width: 0.8"/>
      </g>
     </g>
     <g id="text_15">
      <!-- 8 -->
      <g transform="translate(44.2375 106.002466)scale(0.1 -0.1)">
       <defs>
        <path id="DejaVuSans-38" d="M 2034 2216 
Q 1584 2216 1326 1975 
Q 1069 1734 1069 1313 
Q 1069 891 1326 650 
Q 1584 409 2034 409 
Q 2484 409 2743 651 
Q 3003 894 3003 1313 
Q 3003 1734 2745 1975 
Q 2488 2216 2034 2216 
z
M 1403 2484 
Q 997 2584 770 2862 
Q 544 3141 544 3541 
Q 544 4100 942 4425 
Q 1341 4750 2034 4750 
Q 2731 4750 3128 4425 
Q 3525 4100 3525 3541 
Q 3525 3141 3298 2862 
Q 3072 2584 2669 2484 
Q 3125 2378 3379 2068 
Q 3634 1759 3634 1313 
Q 3634 634 3220 271 
Q 2806 -91 2034 -91 
Q 1263 -91 848 271 
Q 434 634 434 1313 
Q 434 1759 690 2068 
Q 947 2378 1403 2484 
z
M 1172 3481 
Q 1172 3119 1398 2916 
Q 1625 2713 2034 2713 
Q 2441 2713 2670 2916 
Q 2900 3119 2900 3481 
Q 2900 3844 2670 4047 
Q 2441 4250 2034 4250 
Q 1625 4250 1398 4047 
Q 1172 3844 1172 3481 
z
" transform="scale(0.015625)"/>
       </defs>
       <use xlink:href="#DejaVuSans-38"/>
      </g>
     </g>
    </g>
    <g id="ytick_6">
     <g id="line2d_29">
      <path d="M 57.6 53.230761 
L 414.72 53.230761 
" clip-path="url(#p8f36e5829b)" style="fill: none; stroke-dasharray: 2.96,1.28; stroke-dashoffset: 0; stroke: #b0b0b0; stroke-width: 0.8"/>
     </g>
     <g id="line2d_30">
      <g>
       <use xlink:href="#mcb06f1c375" x="57.6" y="53.230761" style="stroke: #000000; stroke-width: 0.8"/>
      </g>
     </g>
     <g id="text_16">
      <!-- 10 -->
      <g transform="translate(37.875 57.02998)scale(0.1 -0.1)">
       <use xlink:href="#DejaVuSans-31"/>
       <use xlink:href="#DejaVuSans-30" x="63.623047"/>
      </g>
     </g>
    </g>
    <g id="text_17">
     <!-- Reward Density -->
     <g transform="translate(31.795312 213.74675)rotate(-90)scale(0.1 -0.1)">
      <defs>
       <path id="DejaVuSans-52" d="M 2841 2188 
Q 3044 2119 3236 1894 
Q 3428 1669 3622 1275 
L 4263 0 
L 3584 0 
L 2988 1197 
Q 2756 1666 2539 1819 
Q 2322 1972 1947 1972 
L 1259 1972 
L 1259 0 
L 628 0 
L 628 4666 
L 2053 4666 
Q 2853 4666 3247 4331 
Q 3641 3997 3641 3322 
Q 3641 2881 3436 2590 
Q 3231 2300 2841 2188 
z
M 1259 4147 
L 1259 2491 
L 2053 2491 
Q 2509 2491 2742 2702 
Q 2975 2913 2975 3322 
Q 2975 3731 2742 3939 
Q 2509 4147 2053 4147 
L 1259 4147 
z
" transform="scale(0.015625)"/>
       <path id="DejaVuSans-77" d="M 269 3500 
L 844 3500 
L 1563 769 
L 2278 3500 
L 2956 3500 
L 3675 769 
L 4391 3500 
L 4966 3500 
L 4050 0 
L 3372 0 
L 2619 2869 
L 1863 0 
L 1184 0 
L 269 3500 
z
" transform="scale(0.015625)"/>
       <path id="DejaVuSans-44" d="M 1259 4147 
L 1259 519 
L 2022 519 
Q 2988 519 3436 956 
Q 3884 1394 3884 2338 
Q 3884 3275 3436 3711 
Q 2988 4147 2022 4147 
L 1259 4147 
z
M 628 4666 
L 1925 4666 
Q 3281 4666 3915 4102 
Q 4550 3538 4550 2338 
Q 4550 1131 3912 565 
Q 3275 0 1925 0 
L 628 0 
L 628 4666 
z
" transform="scale(0.015625)"/>
       <path id="DejaVuSans-74" d="M 1172 4494 
L 1172 3500 
L 2356 3500 
L 2356 3053 
L 1172 3053 
L 1172 1153 
Q 1172 725 1289 603 
Q 1406 481 1766 481 
L 2356 481 
L 2356 0 
L 1766 0 
Q 1100 0 847 248 
Q 594 497 594 1153 
L 594 3053 
L 172 3053 
L 172 3500 
L 594 3500 
L 594 4494 
L 1172 4494 
z
" transform="scale(0.015625)"/>
       <path id="DejaVuSans-79" d="M 2059 -325 
Q 1816 -950 1584 -1140 
Q 1353 -1331 966 -1331 
L 506 -1331 
L 506 -850 
L 844 -850 
Q 1081 -850 1212 -737 
Q 1344 -625 1503 -206 
L 1606 56 
L 191 3500 
L 800 3500 
L 1894 763 
L 2988 3500 
L 3597 3500 
L 2059 -325 
z
" transform="scale(0.015625)"/>
      </defs>
      <use xlink:href="#DejaVuSans-52"/>
      <use xlink:href="#DejaVuSans-65" x="64.982422"/>
      <use xlink:href="#DejaVuSans-77" x="126.505859"/>
      <use xlink:href="#DejaVuSans-61" x="208.292969"/>
      <use xlink:href="#DejaVuSans-72" x="269.572266"/>
      <use xlink:href="#DejaVuSans-64" x="308.935547"/>
      <use xlink:href="#DejaVuSans-20" x="372.412109"/>
      <use xlink:href="#DejaVuSans-44" x="404.199219"/>
      <use xlink:href="#DejaVuSans-65" x="481.201172"/>
      <use xlink:href="#DejaVuSans-6e" x="542.724609"/>
      <use xlink:href="#DejaVuSans-73" x="606.103516"/>
      <use xlink:href="#DejaVuSans-69" x="658.203125"/>
      <use xlink:href="#DejaVuSans-74" x="685.986328"/>
      <use xlink:href="#DejaVuSans-79" x="725.195312"/>
     </g>
    </g>
   </g>
   <g id="LineCollection_1">
    <path d="M 90.919809 290.52647 
L 125.093971 290.52647 
" clip-path="url(#p8f36e5829b)" style="fill: none; stroke: #1f77b4; stroke-width: 1.5"/>
    <path d="M 176.355215 292.872605 
L 210.529378 292.872605 
" clip-path="url(#p8f36e5829b)" style="fill: none; stroke: #1f77b4; stroke-width: 1.5"/>
    <path d="M 261.790622 292.208227 
L 295.964785 292.208227 
" clip-path="url(#p8f36e5829b)" style="fill: none; stroke: #1f77b4; stroke-width: 1.5"/>
    <path d="M 347.226029 291.414177 
L 381.400191 291.414177 
" clip-path="url(#p8f36e5829b)" style="fill: none; stroke: #1f77b4; stroke-width: 1.5"/>
   </g>
   <g id="LineCollection_2">
    <path d="M 90.919809 53.568 
L 125.093971 53.568 
" clip-path="url(#p8f36e5829b)" style="fill: none; stroke: #1f77b4; stroke-width: 1.5"/>
    <path d="M 176.355215 144.146699 
L 210.529378 144.146699 
" clip-path="url(#p8f36e5829b)" style="fill: none; stroke: #1f77b4; stroke-width: 1.5"/>
    <path d="M 261.790622 267.501087 
L 295.964785 267.501087 
" clip-path="url(#p8f36e5829b)" style="fill: none; stroke: #1f77b4; stroke-width: 1.5"/>
    <path d="M 347.226029 253.97218 
L 381.400191 253.97218 
" clip-path="url(#p8f36e5829b)" style="fill: none; stroke: #1f77b4; stroke-width: 1.5"/>
   </g>
   <g id="LineCollection_3">
    <path d="M 90.919809 294.389795 
L 125.093971 294.389795 
" clip-path="url(#p8f36e5829b)" style="fill: none; stroke: #1f77b4; stroke-width: 1.5"/>
    <path d="M 176.355215 295.488 
L 210.529378 295.488 
" clip-path="url(#p8f36e5829b)" style="fill: none; stroke: #1f77b4; stroke-width: 1.5"/>
    <path d="M 261.790622 294.994507 
L 295.964785 294.994507 
" clip-path="url(#p8f36e5829b)" style="fill: none; stroke: #1f77b4; stroke-width: 1.5"/>
    <path d="M 347.226029 294.793193 
L 381.400191 294.793193 
" clip-path="url(#p8f36e5829b)" style="fill: none; stroke: #1f77b4; stroke-width: 1.5"/>
   </g>
   <g id="LineCollection_4">
    <path d="M 108.00689 294.389795 
L 108.00689 53.568 
" clip-path="url(#p8f36e5829b)" style="fill: none; stroke: #1f77b4; stroke-width: 1.5"/>
    <path d="M 193.442297 295.488 
L 193.442297 144.146699 
" clip-path="url(#p8f36e5829b)" style="fill: none; stroke: #1f77b4; stroke-width: 1.5"/>
    <path d="M 278.877703 294.994507 
L 278.877703 267.501087 
" clip-path="url(#p8f36e5829b)" style="fill: none; stroke: #1f77b4; stroke-width: 1.5"/>
    <path d="M 364.31311 294.793193 
L 364.31311 253.97218 
" clip-path="url(#p8f36e5829b)" style="fill: none; stroke: #1f77b4; stroke-width: 1.5"/>
   </g>
   <g id="line2d_31">
    <path d="M 108.00689 290.52647 
L 193.442297 292.872605 
L 278.877703 292.208227 
L 364.31311 291.414177 
" clip-path="url(#p8f36e5829b)" style="fill: none; stroke: #4682b4; stroke-width: 1.5; stroke-linecap: square"/>
   </g>
   <g id="line2d_32">
    <path d="M 108.00689 290.52647 
L 193.442297 292.872605 
L 278.877703 292.208227 
L 364.31311 291.414177 
" clip-path="url(#p8f36e5829b)" style="fill: none; stroke: #4682b4; stroke-width: 1.5; stroke-linecap: square"/>
   </g>
   <g id="patch_3">
    <path d="M 57.6 307.584 
L 57.6 41.472 
" style="fill: none; stroke: #000000; stroke-width: 0.8; stroke-linejoin: miter; stroke-linecap: square"/>
   </g>
   <g id="patch_4">
    <path d="M 414.72 307.584 
L 414.72 41.472 
" style="fill: none; stroke: #000000; stroke-width: 0.8; stroke-linejoin: miter; stroke-linecap: square"/>
   </g>
   <g id="patch_5">
    <path d="M 57.6 307.584 
L 414.72 307.584 
" style="fill: none; stroke: #000000; stroke-width: 0.8; stroke-linejoin: miter; stroke-linecap: square"/>
   </g>
   <g id="patch_6">
    <path d="M 57.6 41.472 
L 414.72 41.472 
" style="fill: none; stroke: #000000; stroke-width: 0.8; stroke-linejoin: miter; stroke-linecap: square"/>
   </g>
   <g id="text_18">
    <!-- Violinplot for progress of actions/price_rebuy -->
    <g transform="translate(101.925 35.472)scale(0.12 -0.12)">
     <defs>
      <path id="DejaVuSans-56" d="M 1831 0 
L 50 4666 
L 709 4666 
L 2188 738 
L 3669 4666 
L 4325 4666 
L 2547 0 
L 1831 0 
z
" transform="scale(0.015625)"/>
      <path id="DejaVuSans-6c" d="M 603 4863 
L 1178 4863 
L 1178 0 
L 603 0 
L 603 4863 
z
" transform="scale(0.015625)"/>
      <path id="DejaVuSans-66" d="M 2375 4863 
L 2375 4384 
L 1825 4384 
Q 1516 4384 1395 4259 
Q 1275 4134 1275 3809 
L 1275 3500 
L 2222 3500 
L 2222 3053 
L 1275 3053 
L 1275 0 
L 697 0 
L 697 3053 
L 147 3053 
L 147 3500 
L 697 3500 
L 697 3744 
Q 697 4328 969 4595 
Q 1241 4863 1831 4863 
L 2375 4863 
z
" transform="scale(0.015625)"/>
      <path id="DejaVuSans-67" d="M 2906 1791 
Q 2906 2416 2648 2759 
Q 2391 3103 1925 3103 
Q 1463 3103 1205 2759 
Q 947 2416 947 1791 
Q 947 1169 1205 825 
Q 1463 481 1925 481 
Q 2391 481 2648 825 
Q 2906 1169 2906 1791 
z
M 3481 434 
Q 3481 -459 3084 -895 
Q 2688 -1331 1869 -1331 
Q 1566 -1331 1297 -1286 
Q 1028 -1241 775 -1147 
L 775 -588 
Q 1028 -725 1275 -790 
Q 1522 -856 1778 -856 
Q 2344 -856 2625 -561 
Q 2906 -266 2906 331 
L 2906 616 
Q 2728 306 2450 153 
Q 2172 0 1784 0 
Q 1141 0 747 490 
Q 353 981 353 1791 
Q 353 2603 747 3093 
Q 1141 3584 1784 3584 
Q 2172 3584 2450 3431 
Q 2728 3278 2906 2969 
L 2906 3500 
L 3481 3500 
L 3481 434 
z
" transform="scale(0.015625)"/>
      <path id="DejaVuSans-63" d="M 3122 3366 
L 3122 2828 
Q 2878 2963 2633 3030 
Q 2388 3097 2138 3097 
Q 1578 3097 1268 2742 
Q 959 2388 959 1747 
Q 959 1106 1268 751 
Q 1578 397 2138 397 
Q 2388 397 2633 464 
Q 2878 531 3122 666 
L 3122 134 
Q 2881 22 2623 -34 
Q 2366 -91 2075 -91 
Q 1284 -91 818 406 
Q 353 903 353 1747 
Q 353 2603 823 3093 
Q 1294 3584 2113 3584 
Q 2378 3584 2631 3529 
Q 2884 3475 3122 3366 
z
" transform="scale(0.015625)"/>
      <path id="DejaVuSans-2f" d="M 1625 4666 
L 2156 4666 
L 531 -594 
L 0 -594 
L 1625 4666 
z
" transform="scale(0.015625)"/>
      <path id="DejaVuSans-5f" d="M 3263 -1063 
L 3263 -1509 
L -63 -1509 
L -63 -1063 
L 3263 -1063 
z
" transform="scale(0.015625)"/>
      <path id="DejaVuSans-62" d="M 3116 1747 
Q 3116 2381 2855 2742 
Q 2594 3103 2138 3103 
Q 1681 3103 1420 2742 
Q 1159 2381 1159 1747 
Q 1159 1113 1420 752 
Q 1681 391 2138 391 
Q 2594 391 2855 752 
Q 3116 1113 3116 1747 
z
M 1159 2969 
Q 1341 3281 1617 3432 
Q 1894 3584 2278 3584 
Q 2916 3584 3314 3078 
Q 3713 2572 3713 1747 
Q 3713 922 3314 415 
Q 2916 -91 2278 -91 
Q 1894 -91 1617 61 
Q 1341 213 1159 525 
L 1159 0 
L 581 0 
L 581 4863 
L 1159 4863 
L 1159 2969 
z
" transform="scale(0.015625)"/>
      <path id="DejaVuSans-75" d="M 544 1381 
L 544 3500 
L 1119 3500 
L 1119 1403 
Q 1119 906 1312 657 
Q 1506 409 1894 409 
Q 2359 409 2629 706 
Q 2900 1003 2900 1516 
L 2900 3500 
L 3475 3500 
L 3475 0 
L 2900 0 
L 2900 538 
Q 2691 219 2414 64 
Q 2138 -91 1772 -91 
Q 1169 -91 856 284 
Q 544 659 544 1381 
z
M 1991 3584 
L 1991 3584 
z
" transform="scale(0.015625)"/>
     </defs>
     <use xlink:href="#DejaVuSans-56"/>
     <use xlink:href="#DejaVuSans-69" x="66.158203"/>
     <use xlink:href="#DejaVuSans-6f" x="93.941406"/>
     <use xlink:href="#DejaVuSans-6c" x="155.123047"/>
     <use xlink:href="#DejaVuSans-69" x="182.90625"/>
     <use xlink:href="#DejaVuSans-6e" x="210.689453"/>
     <use xlink:href="#DejaVuSans-70" x="274.068359"/>
     <use xlink:href="#DejaVuSans-6c" x="337.544922"/>
     <use xlink:href="#DejaVuSans-6f" x="365.328125"/>
     <use xlink:href="#DejaVuSans-74" x="426.509766"/>
     <use xlink:href="#DejaVuSans-20" x="465.71875"/>
     <use xlink:href="#DejaVuSans-66" x="497.505859"/>
     <use xlink:href="#DejaVuSans-6f" x="532.710938"/>
     <use xlink:href="#DejaVuSans-72" x="593.892578"/>
     <use xlink:href="#DejaVuSans-20" x="635.005859"/>
     <use xlink:href="#DejaVuSans-70" x="666.792969"/>
     <use xlink:href="#DejaVuSans-72" x="730.269531"/>
     <use xlink:href="#DejaVuSans-6f" x="769.132812"/>
     <use xlink:href="#DejaVuSans-67" x="830.314453"/>
     <use xlink:href="#DejaVuSans-72" x="893.791016"/>
     <use xlink:href="#DejaVuSans-65" x="932.654297"/>
     <use xlink:href="#DejaVuSans-73" x="994.177734"/>
     <use xlink:href="#DejaVuSans-73" x="1046.277344"/>
     <use xlink:href="#DejaVuSans-20" x="1098.376953"/>
     <use xlink:href="#DejaVuSans-6f" x="1130.164062"/>
     <use xlink:href="#DejaVuSans-66" x="1191.345703"/>
     <use xlink:href="#DejaVuSans-20" x="1226.550781"/>
     <use xlink:href="#DejaVuSans-61" x="1258.337891"/>
     <use xlink:href="#DejaVuSans-63" x="1319.617188"/>
     <use xlink:href="#DejaVuSans-74" x="1374.597656"/>
     <use xlink:href="#DejaVuSans-69" x="1413.806641"/>
     <use xlink:href="#DejaVuSans-6f" x="1441.589844"/>
     <use xlink:href="#DejaVuSans-6e" x="1502.771484"/>
     <use xlink:href="#DejaVuSans-73" x="1566.150391"/>
     <use xlink:href="#DejaVuSans-2f" x="1618.25"/>
     <use xlink:href="#DejaVuSans-70" x="1651.941406"/>
     <use xlink:href="#DejaVuSans-72" x="1715.417969"/>
     <use xlink:href="#DejaVuSans-69" x="1756.53125"/>
     <use xlink:href="#DejaVuSans-63" x="1784.314453"/>
     <use xlink:href="#DejaVuSans-65" x="1839.294922"/>
     <use xlink:href="#DejaVuSans-5f" x="1900.818359"/>
     <use xlink:href="#DejaVuSans-72" x="1950.818359"/>
     <use xlink:href="#DejaVuSans-65" x="1989.681641"/>
     <use xlink:href="#DejaVuSans-62" x="2051.205078"/>
     <use xlink:href="#DejaVuSans-75" x="2114.681641"/>
     <use xlink:href="#DejaVuSans-79" x="2178.060547"/>
    </g>
   </g>
   <g id="legend_1">
    <g id="patch_7">
     <path d="M 276.25125 64.150125 
L 407.72 64.150125 
Q 409.72 64.150125 409.72 62.150125 
L 409.72 48.472 
Q 409.72 46.472 407.72 46.472 
L 276.25125 46.472 
Q 274.25125 46.472 274.25125 48.472 
L 274.25125 62.150125 
Q 274.25125 64.150125 276.25125 64.150125 
z
" style="fill: #ffffff; opacity: 0.8; stroke: #cccccc; stroke-linejoin: miter"/>
    </g>
    <g id="line2d_33">
     <path d="M 278.25125 54.570438 
L 288.25125 54.570438 
L 298.25125 54.570438 
" style="fill: none; stroke: #4682b4; stroke-width: 1.5; stroke-linecap: square"/>
    </g>
    <g id="text_19">
     <!-- StableBaselinesSAC -->
     <g transform="translate(306.25125 58.070438)scale(0.1 -0.1)">
      <defs>
       <path id="DejaVuSans-53" d="M 3425 4513 
L 3425 3897 
Q 3066 4069 2747 4153 
Q 2428 4238 2131 4238 
Q 1616 4238 1336 4038 
Q 1056 3838 1056 3469 
Q 1056 3159 1242 3001 
Q 1428 2844 1947 2747 
L 2328 2669 
Q 3034 2534 3370 2195 
Q 3706 1856 3706 1288 
Q 3706 609 3251 259 
Q 2797 -91 1919 -91 
Q 1588 -91 1214 -16 
Q 841 59 441 206 
L 441 856 
Q 825 641 1194 531 
Q 1563 422 1919 422 
Q 2459 422 2753 634 
Q 3047 847 3047 1241 
Q 3047 1584 2836 1778 
Q 2625 1972 2144 2069 
L 1759 2144 
Q 1053 2284 737 2584 
Q 422 2884 422 3419 
Q 422 4038 858 4394 
Q 1294 4750 2059 4750 
Q 2388 4750 2728 4690 
Q 3069 4631 3425 4513 
z
" transform="scale(0.015625)"/>
       <path id="DejaVuSans-42" d="M 1259 2228 
L 1259 519 
L 2272 519 
Q 2781 519 3026 730 
Q 3272 941 3272 1375 
Q 3272 1813 3026 2020 
Q 2781 2228 2272 2228 
L 1259 2228 
z
M 1259 4147 
L 1259 2741 
L 2194 2741 
Q 2656 2741 2882 2914 
Q 3109 3088 3109 3444 
Q 3109 3797 2882 3972 
Q 2656 4147 2194 4147 
L 1259 4147 
z
M 628 4666 
L 2241 4666 
Q 2963 4666 3353 4366 
Q 3744 4066 3744 3513 
Q 3744 3084 3544 2831 
Q 3344 2578 2956 2516 
Q 3422 2416 3680 2098 
Q 3938 1781 3938 1306 
Q 3938 681 3513 340 
Q 3088 0 2303 0 
L 628 0 
L 628 4666 
z
" transform="scale(0.015625)"/>
       <path id="DejaVuSans-41" d="M 2188 4044 
L 1331 1722 
L 3047 1722 
L 2188 4044 
z
M 1831 4666 
L 2547 4666 
L 4325 0 
L 3669 0 
L 3244 1197 
L 1141 1197 
L 716 0 
L 50 0 
L 1831 4666 
z
" transform="scale(0.015625)"/>
       <path id="DejaVuSans-43" d="M 4122 4306 
L 4122 3641 
Q 3803 3938 3442 4084 
Q 3081 4231 2675 4231 
Q 1875 4231 1450 3742 
Q 1025 3253 1025 2328 
Q 1025 1406 1450 917 
Q 1875 428 2675 428 
Q 3081 428 3442 575 
Q 3803 722 4122 1019 
L 4122 359 
Q 3791 134 3420 21 
Q 3050 -91 2638 -91 
Q 1578 -91 968 557 
Q 359 1206 359 2328 
Q 359 3453 968 4101 
Q 1578 4750 2638 4750 
Q 3056 4750 3426 4639 
Q 3797 4528 4122 4306 
z
" transform="scale(0.015625)"/>
      </defs>
      <use xlink:href="#DejaVuSans-53"/>
      <use xlink:href="#DejaVuSans-74" x="63.476562"/>
      <use xlink:href="#DejaVuSans-61" x="102.685547"/>
      <use xlink:href="#DejaVuSans-62" x="163.964844"/>
      <use xlink:href="#DejaVuSans-6c" x="227.441406"/>
      <use xlink:href="#DejaVuSans-65" x="255.224609"/>
      <use xlink:href="#DejaVuSans-42" x="316.748047"/>
      <use xlink:href="#DejaVuSans-61" x="385.351562"/>
      <use xlink:href="#DejaVuSans-73" x="446.630859"/>
      <use xlink:href="#DejaVuSans-65" x="498.730469"/>
      <use xlink:href="#DejaVuSans-6c" x="560.253906"/>
      <use xlink:href="#DejaVuSans-69" x="588.037109"/>
      <use xlink:href="#DejaVuSans-6e" x="615.820312"/>
      <use xlink:href="#DejaVuSans-65" x="679.199219"/>
      <use xlink:href="#DejaVuSans-73" x="740.722656"/>
      <use xlink:href="#DejaVuSans-53" x="792.822266"/>
      <use xlink:href="#DejaVuSans-41" x="858.173828"/>
      <use xlink:href="#DejaVuSans-43" x="924.832031"/>
     </g>
    </g>
   </g>
  </g>
 </g>
 <defs>
  <clipPath id="p8f36e5829b">
   <rect x="57.6" y="41.472" width="357.12" height="266.112"/>
  </clipPath>
 </defs>
</svg>
