<?xml version="1.0" encoding="utf-8" standalone="no"?>
<!DOCTYPE svg PUBLIC "-//W3C//DTD SVG 1.1//EN"
  "http://www.w3.org/Graphics/SVG/1.1/DTD/svg11.dtd">
<svg xmlns:xlink="http://www.w3.org/1999/xlink" width="460.8pt" height="345.6pt" viewBox="0 0 460.8 345.6" xmlns="http://www.w3.org/2000/svg" version="1.1">
 <metadata>
  <rdf:RDF xmlns:dc="http://purl.org/dc/elements/1.1/" xmlns:cc="http://creativecommons.org/ns#" xmlns:rdf="http://www.w3.org/1999/02/22-rdf-syntax-ns#">
   <cc:Work>
    <dc:type rdf:resource="http://purl.org/dc/dcmitype/StillImage"/>
    <dc:date>2022-06-20T18:30:17.307824</dc:date>
    <dc:format>image/svg+xml</dc:format>
    <dc:creator>
     <cc:Agent>
      <dc:title>Matplotlib v3.5.2, https://matplotlib.org/</dc:title>
     </cc:Agent>
    </dc:creator>
   </cc:Work>
  </rdf:RDF>
 </metadata>
 <defs>
  <style type="text/css">*{stroke-linejoin: round; stroke-linecap: butt}</style>
 </defs>
 <g id="figure_1">
  <g id="patch_1">
   <path d="M 0 345.6 
L 460.8 345.6 
L 460.8 0 
L 0 0 
z
" style="fill: #ffffff"/>
  </g>
  <g id="axes_1">
   <g id="patch_2">
    <path d="M 57.6 307.584 
L 414.72 307.584 
L 414.72 41.472 
L 57.6 41.472 
z
" style="fill: #ffffff"/>
   </g>
   <g id="PolyCollection_1">
    <path d="M 108.630744 295.488 
L 107.383036 295.488 
L 107.29478 293.586897 
L 107.21281 291.685794 
L 107.139055 289.784691 
L 107.074651 287.883588 
L 107.020086 285.982484 
L 106.975212 284.081381 
L 106.938993 282.180278 
L 106.909088 280.279175 
L 106.881512 278.378072 
L 106.850716 276.476969 
L 106.810314 274.575866 
L 106.754431 272.674763 
L 106.679323 270.773659 
L 106.584744 268.872556 
L 106.4745 266.971453 
L 106.355946 265.07035 
L 106.238493 263.169247 
L 106.131625 261.268144 
L 106.04301 259.367041 
L 105.977244 257.465938 
L 105.935435 255.564835 
L 105.915498 253.663731 
L 105.912832 251.762628 
L 105.921052 249.861525 
L 105.932598 247.960422 
L 105.939255 246.059319 
L 105.932725 244.158216 
L 105.905362 242.257113 
L 105.851035 240.35601 
L 105.765986 238.454907 
L 105.649447 236.553803 
L 105.503818 234.6527 
L 105.334294 232.751597 
L 105.147911 230.850494 
L 104.952112 228.949391 
L 104.753027 227.048288 
L 104.553754 225.147185 
L 104.352982 223.246082 
L 104.144249 221.344978 
L 103.915986 219.443875 
L 103.652328 217.542772 
L 103.334458 215.641669 
L 102.942154 213.740566 
L 102.455224 211.839463 
L 101.854596 209.93836 
L 101.123035 208.037257 
L 100.245598 206.136154 
L 99.210066 204.23505 
L 98.007601 202.333947 
L 96.633877 200.432844 
L 95.090756 198.531741 
L 93.388482 196.630638 
L 91.548026 194.729535 
L 89.602928 192.828432 
L 87.599667 190.927329 
L 85.595545 189.026226 
L 83.653505 187.125122 
L 81.83425 185.224019 
L 80.18727 183.322916 
L 78.743339 181.421813 
L 77.511241 179.52071 
L 76.480463 177.619607 
L 75.629656 175.718504 
L 74.938428 173.817401 
L 74.398555 171.916297 
L 74.02051 170.015194 
L 73.832727 168.114091 
L 73.873504 166.212988 
L 74.17811 164.311885 
L 74.765408 162.410782 
L 75.628491 160.509679 
L 76.732439 158.608576 
L 78.019873 156.707473 
L 79.422467 154.806369 
L 80.874807 152.905266 
L 82.32659 151.004163 
L 83.750018 149.10306 
L 85.140976 147.201957 
L 86.514485 145.300854 
L 87.8963 143.399751 
L 89.313209 141.498648 
L 90.784352 139.597545 
L 92.315261 137.696441 
L 93.89537 135.795338 
L 95.49897 133.894235 
L 97.088945 131.993132 
L 98.622305 130.092029 
L 100.056379 128.190926 
L 101.354606 126.289823 
L 102.491069 124.38872 
L 103.453196 122.487616 
L 104.242386 120.586513 
L 104.872629 118.68541 
L 105.367452 116.784307 
L 105.755786 114.883204 
L 106.067456 112.982101 
L 106.3291 111.080998 
L 106.561184 109.179895 
L 106.77659 107.278792 
L 109.23719 107.278792 
L 109.23719 107.278792 
L 109.452596 109.179895 
L 109.68468 111.080998 
L 109.946323 112.982101 
L 110.257994 114.883204 
L 110.646328 116.784307 
L 111.141151 118.68541 
L 111.771394 120.586513 
L 112.560584 122.487616 
L 113.522711 124.38872 
L 114.659174 126.289823 
L 115.957401 128.190926 
L 117.391475 130.092029 
L 118.924835 131.993132 
L 120.51481 133.894235 
L 122.118409 135.795338 
L 123.698519 137.696441 
L 125.229428 139.597545 
L 126.700571 141.498648 
L 128.11748 143.399751 
L 129.499295 145.300854 
L 130.872804 147.201957 
L 132.263762 149.10306 
L 133.68719 151.004163 
L 135.138972 152.905266 
L 136.591312 154.806369 
L 137.993907 156.707473 
L 139.281341 158.608576 
L 140.385289 160.509679 
L 141.248372 162.410782 
L 141.83567 164.311885 
L 142.140276 166.212988 
L 142.181053 168.114091 
L 141.99327 170.015194 
L 141.615224 171.916297 
L 141.075351 173.817401 
L 140.384124 175.718504 
L 139.533317 177.619607 
L 138.502539 179.52071 
L 137.27044 181.421813 
L 135.826509 183.322916 
L 134.17953 185.224019 
L 132.360275 187.125122 
L 130.418234 189.026226 
L 128.414112 190.927329 
L 126.410852 192.828432 
L 124.465754 194.729535 
L 122.625298 196.630638 
L 120.923024 198.531741 
L 119.379903 200.432844 
L 118.006179 202.333947 
L 116.803714 204.23505 
L 115.768182 206.136154 
L 114.890745 208.037257 
L 114.159184 209.93836 
L 113.558556 211.839463 
L 113.071626 213.740566 
L 112.679322 215.641669 
L 112.361452 217.542772 
L 112.097794 219.443875 
L 111.869531 221.344978 
L 111.660798 223.246082 
L 111.460026 225.147185 
L 111.260753 227.048288 
L 111.061668 228.949391 
L 110.865869 230.850494 
L 110.679486 232.751597 
L 110.509962 234.6527 
L 110.364333 236.553803 
L 110.247794 238.454907 
L 110.162745 240.35601 
L 110.108418 242.257113 
L 110.081055 244.158216 
L 110.074525 246.059319 
L 110.081182 247.960422 
L 110.092728 249.861525 
L 110.100948 251.762628 
L 110.098282 253.663731 
L 110.078345 255.564835 
L 110.036536 257.465938 
L 109.97077 259.367041 
L 109.882155 261.268144 
L 109.775287 263.169247 
L 109.657834 265.07035 
L 109.53928 266.971453 
L 109.429036 268.872556 
L 109.334457 270.773659 
L 109.259349 272.674763 
L 109.203466 274.575866 
L 109.163064 276.476969 
L 109.132268 278.378072 
L 109.104692 280.279175 
L 109.074787 282.180278 
L 109.038568 284.081381 
L 108.993694 285.982484 
L 108.939129 287.883588 
L 108.874725 289.784691 
L 108.80097 291.685794 
L 108.719 293.586897 
L 108.630744 295.488 
z
" clip-path="url(#p5d8602afd7)" style="fill: #1f77b4; fill-opacity: 0.3"/>
   </g>
   <g id="PolyCollection_2">
    <path d="M 194.107814 195.160335 
L 192.776779 195.160335 
L 192.701244 193.877508 
L 192.626409 192.594681 
L 192.548397 191.311854 
L 192.461395 190.029027 
L 192.358422 188.746199 
L 192.232474 187.463372 
L 192.077806 186.180545 
L 191.891039 184.897718 
L 191.671774 183.614891 
L 191.422472 182.332064 
L 191.147539 181.049237 
L 190.85179 179.766409 
L 190.538668 178.483582 
L 190.208747 177.200755 
L 189.85899 175.917928 
L 189.483094 174.635101 
L 189.072916 173.352274 
L 188.620664 172.069447 
L 188.121271 170.786619 
L 187.574277 169.503792 
L 186.984696 168.220965 
L 186.362583 166.938138 
L 185.721414 165.655311 
L 185.075668 164.372484 
L 184.438189 163.089657 
L 183.817867 161.806829 
L 183.218047 160.524002 
L 182.635834 159.241175 
L 182.062259 157.958348 
L 181.483142 156.675521 
L 180.880465 155.392694 
L 180.234072 154.109867 
L 179.523607 152.82704 
L 178.730605 151.544212 
L 177.840656 150.261385 
L 176.845487 148.978558 
L 175.744761 147.695731 
L 174.547284 146.412904 
L 173.271334 145.130077 
L 171.943866 143.84725 
L 170.598483 142.564422 
L 169.272264 141.281595 
L 168.001754 139.998768 
L 166.81864 138.715941 
L 165.745774 137.433114 
L 164.79428 136.150287 
L 163.962415 134.86746 
L 163.236647 133.584632 
L 162.595053 132.301805 
L 162.012667 131.018978 
L 161.467879 129.736151 
L 160.948577 128.453324 
L 160.456563 127.170497 
L 160.009 125.88767 
L 159.636265 124.604842 
L 159.376516 123.322015 
L 159.268134 122.039188 
L 159.341892 120.756361 
L 159.614739 119.473534 
L 160.086648 118.190707 
L 160.74106 116.90788 
L 161.548444 115.625052 
L 162.471712 114.342225 
L 163.471905 113.059398 
L 164.512763 111.776571 
L 165.563402 110.493744 
L 166.599029 109.210917 
L 167.600266 107.92809 
L 168.551965 106.645263 
L 169.442372 105.362435 
L 170.263185 104.079608 
L 171.010596 102.796781 
L 171.68696 101.513954 
L 172.302439 100.231127 
L 172.875897 98.9483 
L 173.434454 97.665473 
L 174.011432 96.382645 
L 174.642781 95.099818 
L 175.362462 93.816991 
L 176.197496 92.534164 
L 177.163513 91.251337 
L 178.261608 89.96851 
L 179.477113 88.685683 
L 180.780625 87.402855 
L 182.131209 86.120028 
L 183.48135 84.837201 
L 184.782864 83.554374 
L 185.992783 82.271547 
L 187.078269 80.98872 
L 188.019759 79.705893 
L 188.811944 78.423065 
L 189.462595 77.140238 
L 189.98965 75.857411 
L 190.417217 74.574584 
L 190.771319 73.291757 
L 191.076085 72.00893 
L 191.350947 70.726103 
L 191.609137 69.443275 
L 191.857478 68.160448 
L 195.027115 68.160448 
L 195.027115 68.160448 
L 195.275457 69.443275 
L 195.533646 70.726103 
L 195.808509 72.00893 
L 196.113275 73.291757 
L 196.467377 74.574584 
L 196.894944 75.857411 
L 197.421998 77.140238 
L 198.07265 78.423065 
L 198.864834 79.705893 
L 199.806324 80.98872 
L 200.89181 82.271547 
L 202.10173 83.554374 
L 203.403243 84.837201 
L 204.753384 86.120028 
L 206.103968 87.402855 
L 207.40748 88.685683 
L 208.622986 89.96851 
L 209.72108 91.251337 
L 210.687097 92.534164 
L 211.522131 93.816991 
L 212.241813 95.099818 
L 212.873161 96.382645 
L 213.450139 97.665473 
L 214.008696 98.9483 
L 214.582154 100.231127 
L 215.197633 101.513954 
L 215.873997 102.796781 
L 216.621408 104.079608 
L 217.442221 105.362435 
L 218.332628 106.645263 
L 219.284327 107.92809 
L 220.285564 109.210917 
L 221.321191 110.493744 
L 222.371831 111.776571 
L 223.412689 113.059398 
L 224.412881 114.342225 
L 225.336149 115.625052 
L 226.143533 116.90788 
L 226.797945 118.190707 
L 227.269855 119.473534 
L 227.542701 120.756361 
L 227.616459 122.039188 
L 227.508077 123.322015 
L 227.248328 124.604842 
L 226.875594 125.88767 
L 226.42803 127.170497 
L 225.936016 128.453324 
L 225.416714 129.736151 
L 224.871926 131.018978 
L 224.28954 132.301805 
L 223.647947 133.584632 
L 222.922178 134.86746 
L 222.090313 136.150287 
L 221.138819 137.433114 
L 220.065953 138.715941 
L 218.882839 139.998768 
L 217.61233 141.281595 
L 216.28611 142.564422 
L 214.940727 143.84725 
L 213.613259 145.130077 
L 212.33731 146.412904 
L 211.139833 147.695731 
L 210.039107 148.978558 
L 209.043938 150.261385 
L 208.153988 151.544212 
L 207.360987 152.82704 
L 206.650522 154.109867 
L 206.004129 155.392694 
L 205.401451 156.675521 
L 204.822335 157.958348 
L 204.248759 159.241175 
L 203.666546 160.524002 
L 203.066726 161.806829 
L 202.446404 163.089657 
L 201.808925 164.372484 
L 201.163179 165.655311 
L 200.52201 166.938138 
L 199.899897 168.220965 
L 199.310316 169.503792 
L 198.763323 170.786619 
L 198.263929 172.069447 
L 197.811678 173.352274 
L 197.4015 174.635101 
L 197.025604 175.917928 
L 196.675847 177.200755 
L 196.345925 178.483582 
L 196.032804 179.766409 
L 195.737054 181.049237 
L 195.462122 182.332064 
L 195.21282 183.614891 
L 194.993555 184.897718 
L 194.806787 186.180545 
L 194.652119 187.463372 
L 194.526171 188.746199 
L 194.423199 190.029027 
L 194.336196 191.311854 
L 194.258184 192.594681 
L 194.183349 193.877508 
L 194.107814 195.160335 
z
" clip-path="url(#p5d8602afd7)" style="fill: #1f77b4; fill-opacity: 0.3"/>
   </g>
   <g id="PolyCollection_3">
    <path d="M 279.172749 191.238191 
L 278.582658 191.238191 
L 278.553403 189.860237 
L 278.515578 188.482283 
L 278.460907 187.104329 
L 278.379888 185.726375 
L 278.263186 184.348421 
L 278.103288 182.970467 
L 277.896114 181.592513 
L 277.642204 180.214559 
L 277.347163 178.836605 
L 277.021134 177.458651 
L 276.677294 176.080697 
L 276.32964 174.702743 
L 275.990549 173.324789 
L 275.668714 171.946834 
L 275.367987 170.56888 
L 275.087401 169.190926 
L 274.822212 167.812972 
L 274.565488 166.435018 
L 274.309532 165.057064 
L 274.04655 163.67911 
L 273.768288 162.301156 
L 273.464895 160.923202 
L 273.123645 159.545248 
L 272.728367 158.167294 
L 272.260215 156.78934 
L 271.69997 155.411386 
L 271.031446 154.033432 
L 270.24515 152.655478 
L 269.341137 151.277524 
L 268.330228 149.89957 
L 267.23319 148.521616 
L 266.078002 147.143662 
L 264.895746 145.765707 
L 263.715911 144.387753 
L 262.561902 143.009799 
L 261.447506 141.631845 
L 260.374951 140.253891 
L 259.335017 138.875937 
L 258.309426 137.497983 
L 257.275365 136.120029 
L 256.211463 134.742075 
L 255.104084 133.364121 
L 253.952446 131.986167 
L 252.771119 130.608213 
L 251.58897 129.230259 
L 250.444434 127.852305 
L 249.3781 126.474351 
L 248.424426 125.096397 
L 247.604849 123.718443 
L 246.924275 122.340489 
L 246.371991 120.962534 
L 245.926723 119.58458 
L 245.564266 118.206626 
L 245.265316 116.828672 
L 245.021148 115.450718 
L 244.835592 114.072764 
L 244.723045 112.69481 
L 244.703541 111.316856 
L 244.796732 109.938902 
L 245.016776 108.560948 
L 245.369537 107.182994 
L 245.852624 105.80504 
L 246.457782 104.427086 
L 247.174521 103.049132 
L 247.993607 101.671178 
L 248.909275 100.293224 
L 249.919541 98.91527 
L 251.024605 97.537316 
L 252.223988 96.159362 
L 253.513349 94.781407 
L 254.882066 93.403453 
L 256.312367 92.025499 
L 257.780319 90.647545 
L 259.25838 89.269591 
L 260.718745 87.891637 
L 262.136556 86.513683 
L 263.492169 85.135729 
L 264.772116 83.757775 
L 265.968836 82.379821 
L 267.079651 81.001867 
L 268.105496 79.623913 
L 269.049859 78.245959 
L 269.918048 76.868005 
L 270.716738 75.490051 
L 271.453579 74.112097 
L 272.136677 72.734143 
L 272.77392 71.356189 
L 273.372197 69.978234 
L 273.936703 68.60028 
L 274.470512 67.222326 
L 274.974543 65.844372 
L 275.447946 64.466418 
L 275.888803 63.088464 
L 276.294988 61.71051 
L 276.664953 60.332556 
L 276.998254 58.954602 
L 277.295718 57.576648 
L 277.559239 56.198694 
L 277.791335 54.82074 
L 279.964071 54.82074 
L 279.964071 54.82074 
L 280.196168 56.198694 
L 280.459689 57.576648 
L 280.757153 58.954602 
L 281.090454 60.332556 
L 281.460418 61.71051 
L 281.866603 63.088464 
L 282.307461 64.466418 
L 282.780863 65.844372 
L 283.284895 67.222326 
L 283.818704 68.60028 
L 284.38321 69.978234 
L 284.981486 71.356189 
L 285.61873 72.734143 
L 286.301828 74.112097 
L 287.038668 75.490051 
L 287.837359 76.868005 
L 288.705548 78.245959 
L 289.64991 79.623913 
L 290.675756 81.001867 
L 291.78657 82.379821 
L 292.983291 83.757775 
L 294.263237 85.135729 
L 295.618851 86.513683 
L 297.036662 87.891637 
L 298.497027 89.269591 
L 299.975087 90.647545 
L 301.44304 92.025499 
L 302.87334 93.403453 
L 304.242057 94.781407 
L 305.531419 96.159362 
L 306.730802 97.537316 
L 307.835866 98.91527 
L 308.846131 100.293224 
L 309.7618 101.671178 
L 310.580886 103.049132 
L 311.297625 104.427086 
L 311.902783 105.80504 
L 312.385869 107.182994 
L 312.738631 108.560948 
L 312.958674 109.938902 
L 313.051866 111.316856 
L 313.032361 112.69481 
L 312.919815 114.072764 
L 312.734259 115.450718 
L 312.490091 116.828672 
L 312.191141 118.206626 
L 311.828684 119.58458 
L 311.383416 120.962534 
L 310.831131 122.340489 
L 310.150557 123.718443 
L 309.330981 125.096397 
L 308.377306 126.474351 
L 307.310972 127.852305 
L 306.166437 129.230259 
L 304.984287 130.608213 
L 303.802961 131.986167 
L 302.651322 133.364121 
L 301.543944 134.742075 
L 300.480042 136.120029 
L 299.44598 137.497983 
L 298.42039 138.875937 
L 297.380456 140.253891 
L 296.307901 141.631845 
L 295.193505 143.009799 
L 294.039495 144.387753 
L 292.859661 145.765707 
L 291.677405 147.143662 
L 290.522216 148.521616 
L 289.425179 149.89957 
L 288.41427 151.277524 
L 287.510257 152.655478 
L 286.723961 154.033432 
L 286.055437 155.411386 
L 285.495192 156.78934 
L 285.02704 158.167294 
L 284.631762 159.545248 
L 284.290512 160.923202 
L 283.987119 162.301156 
L 283.708857 163.67911 
L 283.445875 165.057064 
L 283.189919 166.435018 
L 282.933194 167.812972 
L 282.668006 169.190926 
L 282.38742 170.56888 
L 282.086693 171.946834 
L 281.764857 173.324789 
L 281.425767 174.702743 
L 281.078113 176.080697 
L 280.734273 177.458651 
L 280.408243 178.836605 
L 280.113203 180.214559 
L 279.859292 181.592513 
L 279.652118 182.970467 
L 279.492221 184.348421 
L 279.375519 185.726375 
L 279.294499 187.104329 
L 279.239828 188.482283 
L 279.202004 189.860237 
L 279.172749 191.238191 
z
" clip-path="url(#p5d8602afd7)" style="fill: #1f77b4; fill-opacity: 0.3"/>
   </g>
   <g id="PolyCollection_4">
    <path d="M 364.964871 192.328705 
L 363.661349 192.328705 
L 363.525901 190.927082 
L 363.362339 189.525458 
L 363.165072 188.123835 
L 362.928799 186.722212 
L 362.64904 185.320589 
L 362.32254 183.918965 
L 361.947465 182.517342 
L 361.523315 181.115719 
L 361.050528 179.714095 
L 360.529815 178.312472 
L 359.96134 176.910849 
L 359.343883 175.509226 
L 358.674205 174.107602 
L 357.946822 172.705979 
L 357.154339 171.304356 
L 356.28843 169.902733 
L 355.34135 168.501109 
L 354.307756 167.099486 
L 353.186472 165.697863 
L 351.981786 164.296239 
L 350.703974 162.894616 
L 349.368892 161.492993 
L 347.996717 160.09137 
L 346.610132 158.689746 
L 345.232341 157.288123 
L 343.88532 155.8865 
L 342.588547 154.484876 
L 341.358326 153.083253 
L 340.207591 151.68163 
L 339.146045 150.280007 
L 338.180471 148.878383 
L 337.315084 147.47676 
L 336.5519 146.075137 
L 335.891081 144.673513 
L 335.331167 143.27189 
L 334.869088 141.870267 
L 334.49979 140.468644 
L 334.215463 139.06702 
L 334.004492 137.665397 
L 333.850523 136.263774 
L 333.732162 134.86215 
L 333.623826 133.460527 
L 333.498033 132.058904 
L 333.329005 130.657281 
L 333.096995 129.255657 
L 332.792398 127.854034 
L 332.418578 126.452411 
L 331.992528 125.050787 
L 331.542967 123.649164 
L 331.106062 122.247541 
L 330.719566 120.845918 
L 330.416541 119.444294 
L 330.21992 118.042671 
L 330.138947 116.641048 
L 330.168133 115.239424 
L 330.288781 113.837801 
L 330.472719 112.436178 
L 330.687477 111.034555 
L 330.902006 109.632931 
L 331.091986 108.231308 
L 331.243921 106.829685 
L 331.357414 105.428061 
L 331.445291 104.026438 
L 331.531598 102.624815 
L 331.647828 101.223192 
L 331.828088 99.821568 
L 332.104103 98.419945 
L 332.500996 97.018322 
L 333.034619 95.616698 
L 333.710799 94.215075 
L 334.526403 92.813452 
L 335.471688 91.411829 
L 336.533132 90.010205 
L 337.69594 88.608582 
L 338.94565 87.206959 
L 340.268666 85.805336 
L 341.651906 84.403712 
L 343.082026 83.002089 
L 344.54472 81.600466 
L 346.024454 80.198842 
L 347.504747 78.797219 
L 348.96887 77.395596 
L 350.400702 75.993973 
L 351.785498 74.592349 
L 353.110387 73.190726 
L 354.364612 71.789103 
L 355.539575 70.387479 
L 356.628834 68.985856 
L 357.628113 67.584233 
L 358.535354 66.18261 
L 359.350732 64.780986 
L 360.07658 63.379363 
L 360.717143 61.97774 
L 361.278177 60.576116 
L 361.766427 59.174493 
L 362.189094 57.77287 
L 362.553347 56.371247 
L 362.865965 54.969623 
L 363.133115 53.568 
L 365.493105 53.568 
L 365.493105 53.568 
L 365.760255 54.969623 
L 366.072873 56.371247 
L 366.437126 57.77287 
L 366.859793 59.174493 
L 367.348044 60.576116 
L 367.909077 61.97774 
L 368.54964 63.379363 
L 369.275488 64.780986 
L 370.090866 66.18261 
L 370.998107 67.584233 
L 371.997386 68.985856 
L 373.086645 70.387479 
L 374.261608 71.789103 
L 375.515833 73.190726 
L 376.840722 74.592349 
L 378.225518 75.993973 
L 379.657351 77.395596 
L 381.121473 78.797219 
L 382.601766 80.198842 
L 384.081501 81.600466 
L 385.544194 83.002089 
L 386.974314 84.403712 
L 388.357554 85.805336 
L 389.68057 87.206959 
L 390.93028 88.608582 
L 392.093088 90.010205 
L 393.154532 91.411829 
L 394.099817 92.813452 
L 394.915421 94.215075 
L 395.591601 95.616698 
L 396.125224 97.018322 
L 396.522117 98.419945 
L 396.798132 99.821568 
L 396.978393 101.223192 
L 397.094622 102.624815 
L 397.180929 104.026438 
L 397.268806 105.428061 
L 397.382299 106.829685 
L 397.534234 108.231308 
L 397.724214 109.632931 
L 397.938743 111.034555 
L 398.153501 112.436178 
L 398.337439 113.837801 
L 398.458087 115.239424 
L 398.487273 116.641048 
L 398.406301 118.042671 
L 398.209679 119.444294 
L 397.906654 120.845918 
L 397.520158 122.247541 
L 397.083253 123.649164 
L 396.633692 125.050787 
L 396.207642 126.452411 
L 395.833822 127.854034 
L 395.529225 129.255657 
L 395.297215 130.657281 
L 395.128187 132.058904 
L 395.002394 133.460527 
L 394.894058 134.86215 
L 394.775697 136.263774 
L 394.621728 137.665397 
L 394.410757 139.06702 
L 394.12643 140.468644 
L 393.757133 141.870267 
L 393.295053 143.27189 
L 392.735139 144.673513 
L 392.07432 146.075137 
L 391.311136 147.47676 
L 390.445749 148.878383 
L 389.480175 150.280007 
L 388.418629 151.68163 
L 387.267894 153.083253 
L 386.037673 154.484876 
L 384.7409 155.8865 
L 383.393879 157.288123 
L 382.016088 158.689746 
L 380.629503 160.09137 
L 379.257328 161.492993 
L 377.922246 162.894616 
L 376.644434 164.296239 
L 375.439748 165.697863 
L 374.318464 167.099486 
L 373.28487 168.501109 
L 372.33779 169.902733 
L 371.471881 171.304356 
L 370.679399 172.705979 
L 369.952015 174.107602 
L 369.282337 175.509226 
L 368.66488 176.910849 
L 368.096405 178.312472 
L 367.575692 179.714095 
L 367.102905 181.115719 
L 366.678755 182.517342 
L 366.30368 183.918965 
L 365.97718 185.320589 
L 365.697421 186.722212 
L 365.461148 188.123835 
L 365.263881 189.525458 
L 365.100319 190.927082 
L 364.964871 192.328705 
z
" clip-path="url(#p5d8602afd7)" style="fill: #1f77b4; fill-opacity: 0.3"/>
   </g>
   <g id="matplotlib.axis_1">
    <g id="xtick_1">
     <g id="line2d_1">
      <path d="M 65.289187 307.584 
L 65.289187 41.472 
" clip-path="url(#p5d8602afd7)" style="fill: none; stroke-dasharray: 2.96,1.28; stroke-dashoffset: 0; stroke: #b0b0b0; stroke-width: 0.8"/>
     </g>
     <g id="line2d_2">
      <defs>
       <path id="meeecc841de" d="M 0 0 
L 0 3.5 
" style="stroke: #000000; stroke-width: 0.8"/>
      </defs>
      <g>
       <use xlink:href="#meeecc841de" x="65.289187" y="307.584" style="stroke: #000000; stroke-width: 0.8"/>
      </g>
     </g>
     <g id="text_1">
      <!-- 250 -->
      <g transform="translate(55.745437 322.182437)scale(0.1 -0.1)">
       <defs>
        <path id="DejaVuSans-32" d="M 1228 531 
L 3431 531 
L 3431 0 
L 469 0 
L 469 531 
Q 828 903 1448 1529 
Q 2069 2156 2228 2338 
Q 2531 2678 2651 2914 
Q 2772 3150 2772 3378 
Q 2772 3750 2511 3984 
Q 2250 4219 1831 4219 
Q 1534 4219 1204 4116 
Q 875 4013 500 3803 
L 500 4441 
Q 881 4594 1212 4672 
Q 1544 4750 1819 4750 
Q 2544 4750 2975 4387 
Q 3406 4025 3406 3419 
Q 3406 3131 3298 2873 
Q 3191 2616 2906 2266 
Q 2828 2175 2409 1742 
Q 1991 1309 1228 531 
z
" transform="scale(0.015625)"/>
        <path id="DejaVuSans-35" d="M 691 4666 
L 3169 4666 
L 3169 4134 
L 1269 4134 
L 1269 2991 
Q 1406 3038 1543 3061 
Q 1681 3084 1819 3084 
Q 2600 3084 3056 2656 
Q 3513 2228 3513 1497 
Q 3513 744 3044 326 
Q 2575 -91 1722 -91 
Q 1428 -91 1123 -41 
Q 819 9 494 109 
L 494 744 
Q 775 591 1075 516 
Q 1375 441 1709 441 
Q 2250 441 2565 725 
Q 2881 1009 2881 1497 
Q 2881 1984 2565 2268 
Q 2250 2553 1709 2553 
Q 1456 2553 1204 2497 
Q 953 2441 691 2322 
L 691 4666 
z
" transform="scale(0.015625)"/>
        <path id="DejaVuSans-30" d="M 2034 4250 
Q 1547 4250 1301 3770 
Q 1056 3291 1056 2328 
Q 1056 1369 1301 889 
Q 1547 409 2034 409 
Q 2525 409 2770 889 
Q 3016 1369 3016 2328 
Q 3016 3291 2770 3770 
Q 2525 4250 2034 4250 
z
M 2034 4750 
Q 2819 4750 3233 4129 
Q 3647 3509 3647 2328 
Q 3647 1150 3233 529 
Q 2819 -91 2034 -91 
Q 1250 -91 836 529 
Q 422 1150 422 2328 
Q 422 3509 836 4129 
Q 1250 4750 2034 4750 
z
" transform="scale(0.015625)"/>
       </defs>
       <use xlink:href="#DejaVuSans-32"/>
       <use xlink:href="#DejaVuSans-35" x="63.623047"/>
       <use xlink:href="#DejaVuSans-30" x="127.246094"/>
      </g>
     </g>
    </g>
    <g id="xtick_2">
     <g id="line2d_3">
      <path d="M 108.00689 307.584 
L 108.00689 41.472 
" clip-path="url(#p5d8602afd7)" style="fill: none; stroke-dasharray: 2.96,1.28; stroke-dashoffset: 0; stroke: #b0b0b0; stroke-width: 0.8"/>
     </g>
     <g id="line2d_4">
      <g>
       <use xlink:href="#meeecc841de" x="108.00689" y="307.584" style="stroke: #000000; stroke-width: 0.8"/>
      </g>
     </g>
     <g id="text_2">
      <!-- 500 -->
      <g transform="translate(98.46314 322.182437)scale(0.1 -0.1)">
       <use xlink:href="#DejaVuSans-35"/>
       <use xlink:href="#DejaVuSans-30" x="63.623047"/>
       <use xlink:href="#DejaVuSans-30" x="127.246094"/>
      </g>
     </g>
    </g>
    <g id="xtick_3">
     <g id="line2d_5">
      <path d="M 150.724593 307.584 
L 150.724593 41.472 
" clip-path="url(#p5d8602afd7)" style="fill: none; stroke-dasharray: 2.96,1.28; stroke-dashoffset: 0; stroke: #b0b0b0; stroke-width: 0.8"/>
     </g>
     <g id="line2d_6">
      <g>
       <use xlink:href="#meeecc841de" x="150.724593" y="307.584" style="stroke: #000000; stroke-width: 0.8"/>
      </g>
     </g>
     <g id="text_3">
      <!-- 750 -->
      <g transform="translate(141.180843 322.182437)scale(0.1 -0.1)">
       <defs>
        <path id="DejaVuSans-37" d="M 525 4666 
L 3525 4666 
L 3525 4397 
L 1831 0 
L 1172 0 
L 2766 4134 
L 525 4134 
L 525 4666 
z
" transform="scale(0.015625)"/>
       </defs>
       <use xlink:href="#DejaVuSans-37"/>
       <use xlink:href="#DejaVuSans-35" x="63.623047"/>
       <use xlink:href="#DejaVuSans-30" x="127.246094"/>
      </g>
     </g>
    </g>
    <g id="xtick_4">
     <g id="line2d_7">
      <path d="M 193.442297 307.584 
L 193.442297 41.472 
" clip-path="url(#p5d8602afd7)" style="fill: none; stroke-dasharray: 2.96,1.28; stroke-dashoffset: 0; stroke: #b0b0b0; stroke-width: 0.8"/>
     </g>
     <g id="line2d_8">
      <g>
       <use xlink:href="#meeecc841de" x="193.442297" y="307.584" style="stroke: #000000; stroke-width: 0.8"/>
      </g>
     </g>
     <g id="text_4">
      <!-- 1000 -->
      <g transform="translate(180.717297 322.182437)scale(0.1 -0.1)">
       <defs>
        <path id="DejaVuSans-31" d="M 794 531 
L 1825 531 
L 1825 4091 
L 703 3866 
L 703 4441 
L 1819 4666 
L 2450 4666 
L 2450 531 
L 3481 531 
L 3481 0 
L 794 0 
L 794 531 
z
" transform="scale(0.015625)"/>
       </defs>
       <use xlink:href="#DejaVuSans-31"/>
       <use xlink:href="#DejaVuSans-30" x="63.623047"/>
       <use xlink:href="#DejaVuSans-30" x="127.246094"/>
       <use xlink:href="#DejaVuSans-30" x="190.869141"/>
      </g>
     </g>
    </g>
    <g id="xtick_5">
     <g id="line2d_9">
      <path d="M 236.16 307.584 
L 236.16 41.472 
" clip-path="url(#p5d8602afd7)" style="fill: none; stroke-dasharray: 2.96,1.28; stroke-dashoffset: 0; stroke: #b0b0b0; stroke-width: 0.8"/>
     </g>
     <g id="line2d_10">
      <g>
       <use xlink:href="#meeecc841de" x="236.16" y="307.584" style="stroke: #000000; stroke-width: 0.8"/>
      </g>
     </g>
     <g id="text_5">
      <!-- 1250 -->
      <g transform="translate(223.435 322.182437)scale(0.1 -0.1)">
       <use xlink:href="#DejaVuSans-31"/>
       <use xlink:href="#DejaVuSans-32" x="63.623047"/>
       <use xlink:href="#DejaVuSans-35" x="127.246094"/>
       <use xlink:href="#DejaVuSans-30" x="190.869141"/>
      </g>
     </g>
    </g>
    <g id="xtick_6">
     <g id="line2d_11">
      <path d="M 278.877703 307.584 
L 278.877703 41.472 
" clip-path="url(#p5d8602afd7)" style="fill: none; stroke-dasharray: 2.96,1.28; stroke-dashoffset: 0; stroke: #b0b0b0; stroke-width: 0.8"/>
     </g>
     <g id="line2d_12">
      <g>
       <use xlink:href="#meeecc841de" x="278.877703" y="307.584" style="stroke: #000000; stroke-width: 0.8"/>
      </g>
     </g>
     <g id="text_6">
      <!-- 1500 -->
      <g transform="translate(266.152703 322.182437)scale(0.1 -0.1)">
       <use xlink:href="#DejaVuSans-31"/>
       <use xlink:href="#DejaVuSans-35" x="63.623047"/>
       <use xlink:href="#DejaVuSans-30" x="127.246094"/>
       <use xlink:href="#DejaVuSans-30" x="190.869141"/>
      </g>
     </g>
    </g>
    <g id="xtick_7">
     <g id="line2d_13">
      <path d="M 321.595407 307.584 
L 321.595407 41.472 
" clip-path="url(#p5d8602afd7)" style="fill: none; stroke-dasharray: 2.96,1.28; stroke-dashoffset: 0; stroke: #b0b0b0; stroke-width: 0.8"/>
     </g>
     <g id="line2d_14">
      <g>
       <use xlink:href="#meeecc841de" x="321.595407" y="307.584" style="stroke: #000000; stroke-width: 0.8"/>
      </g>
     </g>
     <g id="text_7">
      <!-- 1750 -->
      <g transform="translate(308.870407 322.182437)scale(0.1 -0.1)">
       <use xlink:href="#DejaVuSans-31"/>
       <use xlink:href="#DejaVuSans-37" x="63.623047"/>
       <use xlink:href="#DejaVuSans-35" x="127.246094"/>
       <use xlink:href="#DejaVuSans-30" x="190.869141"/>
      </g>
     </g>
    </g>
    <g id="xtick_8">
     <g id="line2d_15">
      <path d="M 364.31311 307.584 
L 364.31311 41.472 
" clip-path="url(#p5d8602afd7)" style="fill: none; stroke-dasharray: 2.96,1.28; stroke-dashoffset: 0; stroke: #b0b0b0; stroke-width: 0.8"/>
     </g>
     <g id="line2d_16">
      <g>
       <use xlink:href="#meeecc841de" x="364.31311" y="307.584" style="stroke: #000000; stroke-width: 0.8"/>
      </g>
     </g>
     <g id="text_8">
      <!-- 2000 -->
      <g transform="translate(351.58811 322.182437)scale(0.1 -0.1)">
       <use xlink:href="#DejaVuSans-32"/>
       <use xlink:href="#DejaVuSans-30" x="63.623047"/>
       <use xlink:href="#DejaVuSans-30" x="127.246094"/>
       <use xlink:href="#DejaVuSans-30" x="190.869141"/>
      </g>
     </g>
    </g>
    <g id="xtick_9">
     <g id="line2d_17">
      <path d="M 407.030813 307.584 
L 407.030813 41.472 
" clip-path="url(#p5d8602afd7)" style="fill: none; stroke-dasharray: 2.96,1.28; stroke-dashoffset: 0; stroke: #b0b0b0; stroke-width: 0.8"/>
     </g>
     <g id="line2d_18">
      <g>
       <use xlink:href="#meeecc841de" x="407.030813" y="307.584" style="stroke: #000000; stroke-width: 0.8"/>
      </g>
     </g>
     <g id="text_9">
      <!-- 2250 -->
      <g transform="translate(394.305813 322.182437)scale(0.1 -0.1)">
       <use xlink:href="#DejaVuSans-32"/>
       <use xlink:href="#DejaVuSans-32" x="63.623047"/>
       <use xlink:href="#DejaVuSans-35" x="127.246094"/>
       <use xlink:href="#DejaVuSans-30" x="190.869141"/>
      </g>
     </g>
    </g>
    <g id="text_10">
     <!-- Learned Episodes -->
     <g transform="translate(192.102187 335.860562)scale(0.1 -0.1)">
      <defs>
       <path id="DejaVuSans-4c" d="M 628 4666 
L 1259 4666 
L 1259 531 
L 3531 531 
L 3531 0 
L 628 0 
L 628 4666 
z
" transform="scale(0.015625)"/>
       <path id="DejaVuSans-65" d="M 3597 1894 
L 3597 1613 
L 953 1613 
Q 991 1019 1311 708 
Q 1631 397 2203 397 
Q 2534 397 2845 478 
Q 3156 559 3463 722 
L 3463 178 
Q 3153 47 2828 -22 
Q 2503 -91 2169 -91 
Q 1331 -91 842 396 
Q 353 884 353 1716 
Q 353 2575 817 3079 
Q 1281 3584 2069 3584 
Q 2775 3584 3186 3129 
Q 3597 2675 3597 1894 
z
M 3022 2063 
Q 3016 2534 2758 2815 
Q 2500 3097 2075 3097 
Q 1594 3097 1305 2825 
Q 1016 2553 972 2059 
L 3022 2063 
z
" transform="scale(0.015625)"/>
       <path id="DejaVuSans-61" d="M 2194 1759 
Q 1497 1759 1228 1600 
Q 959 1441 959 1056 
Q 959 750 1161 570 
Q 1363 391 1709 391 
Q 2188 391 2477 730 
Q 2766 1069 2766 1631 
L 2766 1759 
L 2194 1759 
z
M 3341 1997 
L 3341 0 
L 2766 0 
L 2766 531 
Q 2569 213 2275 61 
Q 1981 -91 1556 -91 
Q 1019 -91 701 211 
Q 384 513 384 1019 
Q 384 1609 779 1909 
Q 1175 2209 1959 2209 
L 2766 2209 
L 2766 2266 
Q 2766 2663 2505 2880 
Q 2244 3097 1772 3097 
Q 1472 3097 1187 3025 
Q 903 2953 641 2809 
L 641 3341 
Q 956 3463 1253 3523 
Q 1550 3584 1831 3584 
Q 2591 3584 2966 3190 
Q 3341 2797 3341 1997 
z
" transform="scale(0.015625)"/>
       <path id="DejaVuSans-72" d="M 2631 2963 
Q 2534 3019 2420 3045 
Q 2306 3072 2169 3072 
Q 1681 3072 1420 2755 
Q 1159 2438 1159 1844 
L 1159 0 
L 581 0 
L 581 3500 
L 1159 3500 
L 1159 2956 
Q 1341 3275 1631 3429 
Q 1922 3584 2338 3584 
Q 2397 3584 2469 3576 
Q 2541 3569 2628 3553 
L 2631 2963 
z
" transform="scale(0.015625)"/>
       <path id="DejaVuSans-6e" d="M 3513 2113 
L 3513 0 
L 2938 0 
L 2938 2094 
Q 2938 2591 2744 2837 
Q 2550 3084 2163 3084 
Q 1697 3084 1428 2787 
Q 1159 2491 1159 1978 
L 1159 0 
L 581 0 
L 581 3500 
L 1159 3500 
L 1159 2956 
Q 1366 3272 1645 3428 
Q 1925 3584 2291 3584 
Q 2894 3584 3203 3211 
Q 3513 2838 3513 2113 
z
" transform="scale(0.015625)"/>
       <path id="DejaVuSans-64" d="M 2906 2969 
L 2906 4863 
L 3481 4863 
L 3481 0 
L 2906 0 
L 2906 525 
Q 2725 213 2448 61 
Q 2172 -91 1784 -91 
Q 1150 -91 751 415 
Q 353 922 353 1747 
Q 353 2572 751 3078 
Q 1150 3584 1784 3584 
Q 2172 3584 2448 3432 
Q 2725 3281 2906 2969 
z
M 947 1747 
Q 947 1113 1208 752 
Q 1469 391 1925 391 
Q 2381 391 2643 752 
Q 2906 1113 2906 1747 
Q 2906 2381 2643 2742 
Q 2381 3103 1925 3103 
Q 1469 3103 1208 2742 
Q 947 2381 947 1747 
z
" transform="scale(0.015625)"/>
       <path id="DejaVuSans-20" transform="scale(0.015625)"/>
       <path id="DejaVuSans-45" d="M 628 4666 
L 3578 4666 
L 3578 4134 
L 1259 4134 
L 1259 2753 
L 3481 2753 
L 3481 2222 
L 1259 2222 
L 1259 531 
L 3634 531 
L 3634 0 
L 628 0 
L 628 4666 
z
" transform="scale(0.015625)"/>
       <path id="DejaVuSans-70" d="M 1159 525 
L 1159 -1331 
L 581 -1331 
L 581 3500 
L 1159 3500 
L 1159 2969 
Q 1341 3281 1617 3432 
Q 1894 3584 2278 3584 
Q 2916 3584 3314 3078 
Q 3713 2572 3713 1747 
Q 3713 922 3314 415 
Q 2916 -91 2278 -91 
Q 1894 -91 1617 61 
Q 1341 213 1159 525 
z
M 3116 1747 
Q 3116 2381 2855 2742 
Q 2594 3103 2138 3103 
Q 1681 3103 1420 2742 
Q 1159 2381 1159 1747 
Q 1159 1113 1420 752 
Q 1681 391 2138 391 
Q 2594 391 2855 752 
Q 3116 1113 3116 1747 
z
" transform="scale(0.015625)"/>
       <path id="DejaVuSans-69" d="M 603 3500 
L 1178 3500 
L 1178 0 
L 603 0 
L 603 3500 
z
M 603 4863 
L 1178 4863 
L 1178 4134 
L 603 4134 
L 603 4863 
z
" transform="scale(0.015625)"/>
       <path id="DejaVuSans-73" d="M 2834 3397 
L 2834 2853 
Q 2591 2978 2328 3040 
Q 2066 3103 1784 3103 
Q 1356 3103 1142 2972 
Q 928 2841 928 2578 
Q 928 2378 1081 2264 
Q 1234 2150 1697 2047 
L 1894 2003 
Q 2506 1872 2764 1633 
Q 3022 1394 3022 966 
Q 3022 478 2636 193 
Q 2250 -91 1575 -91 
Q 1294 -91 989 -36 
Q 684 19 347 128 
L 347 722 
Q 666 556 975 473 
Q 1284 391 1588 391 
Q 1994 391 2212 530 
Q 2431 669 2431 922 
Q 2431 1156 2273 1281 
Q 2116 1406 1581 1522 
L 1381 1569 
Q 847 1681 609 1914 
Q 372 2147 372 2553 
Q 372 3047 722 3315 
Q 1072 3584 1716 3584 
Q 2034 3584 2315 3537 
Q 2597 3491 2834 3397 
z
" transform="scale(0.015625)"/>
       <path id="DejaVuSans-6f" d="M 1959 3097 
Q 1497 3097 1228 2736 
Q 959 2375 959 1747 
Q 959 1119 1226 758 
Q 1494 397 1959 397 
Q 2419 397 2687 759 
Q 2956 1122 2956 1747 
Q 2956 2369 2687 2733 
Q 2419 3097 1959 3097 
z
M 1959 3584 
Q 2709 3584 3137 3096 
Q 3566 2609 3566 1747 
Q 3566 888 3137 398 
Q 2709 -91 1959 -91 
Q 1206 -91 779 398 
Q 353 888 353 1747 
Q 353 2609 779 3096 
Q 1206 3584 1959 3584 
z
" transform="scale(0.015625)"/>
      </defs>
      <use xlink:href="#DejaVuSans-4c"/>
      <use xlink:href="#DejaVuSans-65" x="53.962891"/>
      <use xlink:href="#DejaVuSans-61" x="115.486328"/>
      <use xlink:href="#DejaVuSans-72" x="176.765625"/>
      <use xlink:href="#DejaVuSans-6e" x="216.128906"/>
      <use xlink:href="#DejaVuSans-65" x="279.507812"/>
      <use xlink:href="#DejaVuSans-64" x="341.03125"/>
      <use xlink:href="#DejaVuSans-20" x="404.507812"/>
      <use xlink:href="#DejaVuSans-45" x="436.294922"/>
      <use xlink:href="#DejaVuSans-70" x="499.478516"/>
      <use xlink:href="#DejaVuSans-69" x="562.955078"/>
      <use xlink:href="#DejaVuSans-73" x="590.738281"/>
      <use xlink:href="#DejaVuSans-6f" x="642.837891"/>
      <use xlink:href="#DejaVuSans-64" x="704.019531"/>
      <use xlink:href="#DejaVuSans-65" x="767.496094"/>
      <use xlink:href="#DejaVuSans-73" x="829.019531"/>
     </g>
    </g>
   </g>
   <g id="matplotlib.axis_2">
    <g id="ytick_1">
     <g id="line2d_19">
      <path d="M 57.6 305.059195 
L 414.72 305.059195 
" clip-path="url(#p5d8602afd7)" style="fill: none; stroke-dasharray: 2.96,1.28; stroke-dashoffset: 0; stroke: #b0b0b0; stroke-width: 0.8"/>
     </g>
     <g id="line2d_20">
      <defs>
       <path id="m0a75b6bc07" d="M 0 0 
L -3.5 0 
" style="stroke: #000000; stroke-width: 0.8"/>
      </defs>
      <g>
       <use xlink:href="#m0a75b6bc07" x="57.6" y="305.059195" style="stroke: #000000; stroke-width: 0.8"/>
      </g>
     </g>
     <g id="text_11">
      <!-- 100 -->
      <g transform="translate(31.5125 308.858413)scale(0.1 -0.1)">
       <use xlink:href="#DejaVuSans-31"/>
       <use xlink:href="#DejaVuSans-30" x="63.623047"/>
       <use xlink:href="#DejaVuSans-30" x="127.246094"/>
      </g>
     </g>
    </g>
    <g id="ytick_2">
     <g id="line2d_21">
      <path d="M 57.6 272.951732 
L 414.72 272.951732 
" clip-path="url(#p5d8602afd7)" style="fill: none; stroke-dasharray: 2.96,1.28; stroke-dashoffset: 0; stroke: #b0b0b0; stroke-width: 0.8"/>
     </g>
     <g id="line2d_22">
      <g>
       <use xlink:href="#m0a75b6bc07" x="57.6" y="272.951732" style="stroke: #000000; stroke-width: 0.8"/>
      </g>
     </g>
     <g id="text_12">
      <!-- 200 -->
      <g transform="translate(31.5125 276.750951)scale(0.1 -0.1)">
       <use xlink:href="#DejaVuSans-32"/>
       <use xlink:href="#DejaVuSans-30" x="63.623047"/>
       <use xlink:href="#DejaVuSans-30" x="127.246094"/>
      </g>
     </g>
    </g>
    <g id="ytick_3">
     <g id="line2d_23">
      <path d="M 57.6 240.84427 
L 414.72 240.84427 
" clip-path="url(#p5d8602afd7)" style="fill: none; stroke-dasharray: 2.96,1.28; stroke-dashoffset: 0; stroke: #b0b0b0; stroke-width: 0.8"/>
     </g>
     <g id="line2d_24">
      <g>
       <use xlink:href="#m0a75b6bc07" x="57.6" y="240.84427" style="stroke: #000000; stroke-width: 0.8"/>
      </g>
     </g>
     <g id="text_13">
      <!-- 300 -->
      <g transform="translate(31.5125 244.643489)scale(0.1 -0.1)">
       <defs>
        <path id="DejaVuSans-33" d="M 2597 2516 
Q 3050 2419 3304 2112 
Q 3559 1806 3559 1356 
Q 3559 666 3084 287 
Q 2609 -91 1734 -91 
Q 1441 -91 1130 -33 
Q 819 25 488 141 
L 488 750 
Q 750 597 1062 519 
Q 1375 441 1716 441 
Q 2309 441 2620 675 
Q 2931 909 2931 1356 
Q 2931 1769 2642 2001 
Q 2353 2234 1838 2234 
L 1294 2234 
L 1294 2753 
L 1863 2753 
Q 2328 2753 2575 2939 
Q 2822 3125 2822 3475 
Q 2822 3834 2567 4026 
Q 2313 4219 1838 4219 
Q 1578 4219 1281 4162 
Q 984 4106 628 3988 
L 628 4550 
Q 988 4650 1302 4700 
Q 1616 4750 1894 4750 
Q 2613 4750 3031 4423 
Q 3450 4097 3450 3541 
Q 3450 3153 3228 2886 
Q 3006 2619 2597 2516 
z
" transform="scale(0.015625)"/>
       </defs>
       <use xlink:href="#DejaVuSans-33"/>
       <use xlink:href="#DejaVuSans-30" x="63.623047"/>
       <use xlink:href="#DejaVuSans-30" x="127.246094"/>
      </g>
     </g>
    </g>
    <g id="ytick_4">
     <g id="line2d_25">
      <path d="M 57.6 208.736808 
L 414.72 208.736808 
" clip-path="url(#p5d8602afd7)" style="fill: none; stroke-dasharray: 2.96,1.28; stroke-dashoffset: 0; stroke: #b0b0b0; stroke-width: 0.8"/>
     </g>
     <g id="line2d_26">
      <g>
       <use xlink:href="#m0a75b6bc07" x="57.6" y="208.736808" style="stroke: #000000; stroke-width: 0.8"/>
      </g>
     </g>
     <g id="text_14">
      <!-- 400 -->
      <g transform="translate(31.5125 212.536026)scale(0.1 -0.1)">
       <defs>
        <path id="DejaVuSans-34" d="M 2419 4116 
L 825 1625 
L 2419 1625 
L 2419 4116 
z
M 2253 4666 
L 3047 4666 
L 3047 1625 
L 3713 1625 
L 3713 1100 
L 3047 1100 
L 3047 0 
L 2419 0 
L 2419 1100 
L 313 1100 
L 313 1709 
L 2253 4666 
z
" transform="scale(0.015625)"/>
       </defs>
       <use xlink:href="#DejaVuSans-34"/>
       <use xlink:href="#DejaVuSans-30" x="63.623047"/>
       <use xlink:href="#DejaVuSans-30" x="127.246094"/>
      </g>
     </g>
    </g>
    <g id="ytick_5">
     <g id="line2d_27">
      <path d="M 57.6 176.629345 
L 414.72 176.629345 
" clip-path="url(#p5d8602afd7)" style="fill: none; stroke-dasharray: 2.96,1.28; stroke-dashoffset: 0; stroke: #b0b0b0; stroke-width: 0.8"/>
     </g>
     <g id="line2d_28">
      <g>
       <use xlink:href="#m0a75b6bc07" x="57.6" y="176.629345" style="stroke: #000000; stroke-width: 0.8"/>
      </g>
     </g>
     <g id="text_15">
      <!-- 500 -->
      <g transform="translate(31.5125 180.428564)scale(0.1 -0.1)">
       <use xlink:href="#DejaVuSans-35"/>
       <use xlink:href="#DejaVuSans-30" x="63.623047"/>
       <use xlink:href="#DejaVuSans-30" x="127.246094"/>
      </g>
     </g>
    </g>
    <g id="ytick_6">
     <g id="line2d_29">
      <path d="M 57.6 144.521883 
L 414.72 144.521883 
" clip-path="url(#p5d8602afd7)" style="fill: none; stroke-dasharray: 2.96,1.28; stroke-dashoffset: 0; stroke: #b0b0b0; stroke-width: 0.8"/>
     </g>
     <g id="line2d_30">
      <g>
       <use xlink:href="#m0a75b6bc07" x="57.6" y="144.521883" style="stroke: #000000; stroke-width: 0.8"/>
      </g>
     </g>
     <g id="text_16">
      <!-- 600 -->
      <g transform="translate(31.5125 148.321102)scale(0.1 -0.1)">
       <defs>
        <path id="DejaVuSans-36" d="M 2113 2584 
Q 1688 2584 1439 2293 
Q 1191 2003 1191 1497 
Q 1191 994 1439 701 
Q 1688 409 2113 409 
Q 2538 409 2786 701 
Q 3034 994 3034 1497 
Q 3034 2003 2786 2293 
Q 2538 2584 2113 2584 
z
M 3366 4563 
L 3366 3988 
Q 3128 4100 2886 4159 
Q 2644 4219 2406 4219 
Q 1781 4219 1451 3797 
Q 1122 3375 1075 2522 
Q 1259 2794 1537 2939 
Q 1816 3084 2150 3084 
Q 2853 3084 3261 2657 
Q 3669 2231 3669 1497 
Q 3669 778 3244 343 
Q 2819 -91 2113 -91 
Q 1303 -91 875 529 
Q 447 1150 447 2328 
Q 447 3434 972 4092 
Q 1497 4750 2381 4750 
Q 2619 4750 2861 4703 
Q 3103 4656 3366 4563 
z
" transform="scale(0.015625)"/>
       </defs>
       <use xlink:href="#DejaVuSans-36"/>
       <use xlink:href="#DejaVuSans-30" x="63.623047"/>
       <use xlink:href="#DejaVuSans-30" x="127.246094"/>
      </g>
     </g>
    </g>
    <g id="ytick_7">
     <g id="line2d_31">
      <path d="M 57.6 112.414421 
L 414.72 112.414421 
" clip-path="url(#p5d8602afd7)" style="fill: none; stroke-dasharray: 2.96,1.28; stroke-dashoffset: 0; stroke: #b0b0b0; stroke-width: 0.8"/>
     </g>
     <g id="line2d_32">
      <g>
       <use xlink:href="#m0a75b6bc07" x="57.6" y="112.414421" style="stroke: #000000; stroke-width: 0.8"/>
      </g>
     </g>
     <g id="text_17">
      <!-- 700 -->
      <g transform="translate(31.5125 116.213639)scale(0.1 -0.1)">
       <use xlink:href="#DejaVuSans-37"/>
       <use xlink:href="#DejaVuSans-30" x="63.623047"/>
       <use xlink:href="#DejaVuSans-30" x="127.246094"/>
      </g>
     </g>
    </g>
    <g id="ytick_8">
     <g id="line2d_33">
      <path d="M 57.6 80.306958 
L 414.72 80.306958 
" clip-path="url(#p5d8602afd7)" style="fill: none; stroke-dasharray: 2.96,1.28; stroke-dashoffset: 0; stroke: #b0b0b0; stroke-width: 0.8"/>
     </g>
     <g id="line2d_34">
      <g>
       <use xlink:href="#m0a75b6bc07" x="57.6" y="80.306958" style="stroke: #000000; stroke-width: 0.8"/>
      </g>
     </g>
     <g id="text_18">
      <!-- 800 -->
      <g transform="translate(31.5125 84.106177)scale(0.1 -0.1)">
       <defs>
        <path id="DejaVuSans-38" d="M 2034 2216 
Q 1584 2216 1326 1975 
Q 1069 1734 1069 1313 
Q 1069 891 1326 650 
Q 1584 409 2034 409 
Q 2484 409 2743 651 
Q 3003 894 3003 1313 
Q 3003 1734 2745 1975 
Q 2488 2216 2034 2216 
z
M 1403 2484 
Q 997 2584 770 2862 
Q 544 3141 544 3541 
Q 544 4100 942 4425 
Q 1341 4750 2034 4750 
Q 2731 4750 3128 4425 
Q 3525 4100 3525 3541 
Q 3525 3141 3298 2862 
Q 3072 2584 2669 2484 
Q 3125 2378 3379 2068 
Q 3634 1759 3634 1313 
Q 3634 634 3220 271 
Q 2806 -91 2034 -91 
Q 1263 -91 848 271 
Q 434 634 434 1313 
Q 434 1759 690 2068 
Q 947 2378 1403 2484 
z
M 1172 3481 
Q 1172 3119 1398 2916 
Q 1625 2713 2034 2713 
Q 2441 2713 2670 2916 
Q 2900 3119 2900 3481 
Q 2900 3844 2670 4047 
Q 2441 4250 2034 4250 
Q 1625 4250 1398 4047 
Q 1172 3844 1172 3481 
z
" transform="scale(0.015625)"/>
       </defs>
       <use xlink:href="#DejaVuSans-38"/>
       <use xlink:href="#DejaVuSans-30" x="63.623047"/>
       <use xlink:href="#DejaVuSans-30" x="127.246094"/>
      </g>
     </g>
    </g>
    <g id="ytick_9">
     <g id="line2d_35">
      <path d="M 57.6 48.199496 
L 414.72 48.199496 
" clip-path="url(#p5d8602afd7)" style="fill: none; stroke-dasharray: 2.96,1.28; stroke-dashoffset: 0; stroke: #b0b0b0; stroke-width: 0.8"/>
     </g>
     <g id="line2d_36">
      <g>
       <use xlink:href="#m0a75b6bc07" x="57.6" y="48.199496" style="stroke: #000000; stroke-width: 0.8"/>
      </g>
     </g>
     <g id="text_19">
      <!-- 900 -->
      <g transform="translate(31.5125 51.998715)scale(0.1 -0.1)">
       <defs>
        <path id="DejaVuSans-39" d="M 703 97 
L 703 672 
Q 941 559 1184 500 
Q 1428 441 1663 441 
Q 2288 441 2617 861 
Q 2947 1281 2994 2138 
Q 2813 1869 2534 1725 
Q 2256 1581 1919 1581 
Q 1219 1581 811 2004 
Q 403 2428 403 3163 
Q 403 3881 828 4315 
Q 1253 4750 1959 4750 
Q 2769 4750 3195 4129 
Q 3622 3509 3622 2328 
Q 3622 1225 3098 567 
Q 2575 -91 1691 -91 
Q 1453 -91 1209 -44 
Q 966 3 703 97 
z
M 1959 2075 
Q 2384 2075 2632 2365 
Q 2881 2656 2881 3163 
Q 2881 3666 2632 3958 
Q 2384 4250 1959 4250 
Q 1534 4250 1286 3958 
Q 1038 3666 1038 3163 
Q 1038 2656 1286 2365 
Q 1534 2075 1959 2075 
z
" transform="scale(0.015625)"/>
       </defs>
       <use xlink:href="#DejaVuSans-39"/>
       <use xlink:href="#DejaVuSans-30" x="63.623047"/>
       <use xlink:href="#DejaVuSans-30" x="127.246094"/>
      </g>
     </g>
    </g>
    <g id="text_20">
     <!-- Reward Density -->
     <g transform="translate(25.432812 213.74675)rotate(-90)scale(0.1 -0.1)">
      <defs>
       <path id="DejaVuSans-52" d="M 2841 2188 
Q 3044 2119 3236 1894 
Q 3428 1669 3622 1275 
L 4263 0 
L 3584 0 
L 2988 1197 
Q 2756 1666 2539 1819 
Q 2322 1972 1947 1972 
L 1259 1972 
L 1259 0 
L 628 0 
L 628 4666 
L 2053 4666 
Q 2853 4666 3247 4331 
Q 3641 3997 3641 3322 
Q 3641 2881 3436 2590 
Q 3231 2300 2841 2188 
z
M 1259 4147 
L 1259 2491 
L 2053 2491 
Q 2509 2491 2742 2702 
Q 2975 2913 2975 3322 
Q 2975 3731 2742 3939 
Q 2509 4147 2053 4147 
L 1259 4147 
z
" transform="scale(0.015625)"/>
       <path id="DejaVuSans-77" d="M 269 3500 
L 844 3500 
L 1563 769 
L 2278 3500 
L 2956 3500 
L 3675 769 
L 4391 3500 
L 4966 3500 
L 4050 0 
L 3372 0 
L 2619 2869 
L 1863 0 
L 1184 0 
L 269 3500 
z
" transform="scale(0.015625)"/>
       <path id="DejaVuSans-44" d="M 1259 4147 
L 1259 519 
L 2022 519 
Q 2988 519 3436 956 
Q 3884 1394 3884 2338 
Q 3884 3275 3436 3711 
Q 2988 4147 2022 4147 
L 1259 4147 
z
M 628 4666 
L 1925 4666 
Q 3281 4666 3915 4102 
Q 4550 3538 4550 2338 
Q 4550 1131 3912 565 
Q 3275 0 1925 0 
L 628 0 
L 628 4666 
z
" transform="scale(0.015625)"/>
       <path id="DejaVuSans-74" d="M 1172 4494 
L 1172 3500 
L 2356 3500 
L 2356 3053 
L 1172 3053 
L 1172 1153 
Q 1172 725 1289 603 
Q 1406 481 1766 481 
L 2356 481 
L 2356 0 
L 1766 0 
Q 1100 0 847 248 
Q 594 497 594 1153 
L 594 3053 
L 172 3053 
L 172 3500 
L 594 3500 
L 594 4494 
L 1172 4494 
z
" transform="scale(0.015625)"/>
       <path id="DejaVuSans-79" d="M 2059 -325 
Q 1816 -950 1584 -1140 
Q 1353 -1331 966 -1331 
L 506 -1331 
L 506 -850 
L 844 -850 
Q 1081 -850 1212 -737 
Q 1344 -625 1503 -206 
L 1606 56 
L 191 3500 
L 800 3500 
L 1894 763 
L 2988 3500 
L 3597 3500 
L 2059 -325 
z
" transform="scale(0.015625)"/>
      </defs>
      <use xlink:href="#DejaVuSans-52"/>
      <use xlink:href="#DejaVuSans-65" x="64.982422"/>
      <use xlink:href="#DejaVuSans-77" x="126.505859"/>
      <use xlink:href="#DejaVuSans-61" x="208.292969"/>
      <use xlink:href="#DejaVuSans-72" x="269.572266"/>
      <use xlink:href="#DejaVuSans-64" x="308.935547"/>
      <use xlink:href="#DejaVuSans-20" x="372.412109"/>
      <use xlink:href="#DejaVuSans-44" x="404.199219"/>
      <use xlink:href="#DejaVuSans-65" x="481.201172"/>
      <use xlink:href="#DejaVuSans-6e" x="542.724609"/>
      <use xlink:href="#DejaVuSans-73" x="606.103516"/>
      <use xlink:href="#DejaVuSans-69" x="658.203125"/>
      <use xlink:href="#DejaVuSans-74" x="685.986328"/>
      <use xlink:href="#DejaVuSans-79" x="725.195312"/>
     </g>
    </g>
   </g>
   <g id="LineCollection_1">
    <path d="M 90.919809 172.818181 
L 125.093971 172.818181 
" clip-path="url(#p5d8602afd7)" style="fill: none; stroke: #1f77b4; stroke-width: 1.5"/>
    <path d="M 176.355215 123.819184 
L 210.529378 123.819184 
" clip-path="url(#p5d8602afd7)" style="fill: none; stroke: #1f77b4; stroke-width: 1.5"/>
    <path d="M 261.790622 115.266843 
L 295.964785 115.266843 
" clip-path="url(#p5d8602afd7)" style="fill: none; stroke: #1f77b4; stroke-width: 1.5"/>
    <path d="M 347.226029 119.296642 
L 381.400191 119.296642 
" clip-path="url(#p5d8602afd7)" style="fill: none; stroke: #1f77b4; stroke-width: 1.5"/>
   </g>
   <g id="LineCollection_2">
    <path d="M 90.919809 107.278792 
L 125.093971 107.278792 
" clip-path="url(#p5d8602afd7)" style="fill: none; stroke: #1f77b4; stroke-width: 1.5"/>
    <path d="M 176.355215 68.160448 
L 210.529378 68.160448 
" clip-path="url(#p5d8602afd7)" style="fill: none; stroke: #1f77b4; stroke-width: 1.5"/>
    <path d="M 261.790622 54.82074 
L 295.964785 54.82074 
" clip-path="url(#p5d8602afd7)" style="fill: none; stroke: #1f77b4; stroke-width: 1.5"/>
    <path d="M 347.226029 53.568 
L 381.400191 53.568 
" clip-path="url(#p5d8602afd7)" style="fill: none; stroke: #1f77b4; stroke-width: 1.5"/>
   </g>
   <g id="LineCollection_3">
    <path d="M 90.919809 295.488 
L 125.093971 295.488 
" clip-path="url(#p5d8602afd7)" style="fill: none; stroke: #1f77b4; stroke-width: 1.5"/>
    <path d="M 176.355215 195.160335 
L 210.529378 195.160335 
" clip-path="url(#p5d8602afd7)" style="fill: none; stroke: #1f77b4; stroke-width: 1.5"/>
    <path d="M 261.790622 191.238191 
L 295.964785 191.238191 
" clip-path="url(#p5d8602afd7)" style="fill: none; stroke: #1f77b4; stroke-width: 1.5"/>
    <path d="M 347.226029 192.328705 
L 381.400191 192.328705 
" clip-path="url(#p5d8602afd7)" style="fill: none; stroke: #1f77b4; stroke-width: 1.5"/>
   </g>
   <g id="LineCollection_4">
    <path d="M 108.00689 295.488 
L 108.00689 107.278792 
" clip-path="url(#p5d8602afd7)" style="fill: none; stroke: #1f77b4; stroke-width: 1.5"/>
    <path d="M 193.442297 195.160335 
L 193.442297 68.160448 
" clip-path="url(#p5d8602afd7)" style="fill: none; stroke: #1f77b4; stroke-width: 1.5"/>
    <path d="M 278.877703 191.238191 
L 278.877703 54.82074 
" clip-path="url(#p5d8602afd7)" style="fill: none; stroke: #1f77b4; stroke-width: 1.5"/>
    <path d="M 364.31311 192.328705 
L 364.31311 53.568 
" clip-path="url(#p5d8602afd7)" style="fill: none; stroke: #1f77b4; stroke-width: 1.5"/>
   </g>
   <g id="line2d_37">
    <path d="M 108.00689 172.818181 
L 193.442297 123.819184 
L 278.877703 115.266843 
L 364.31311 119.296642 
" clip-path="url(#p5d8602afd7)" style="fill: none; stroke: #4682b4; stroke-width: 1.5; stroke-linecap: square"/>
   </g>
   <g id="line2d_38">
    <path d="M 108.00689 172.818181 
L 193.442297 123.819184 
L 278.877703 115.266843 
L 364.31311 119.296642 
" clip-path="url(#p5d8602afd7)" style="fill: none; stroke: #4682b4; stroke-width: 1.5; stroke-linecap: square"/>
   </g>
   <g id="patch_3">
    <path d="M 57.6 307.584 
L 57.6 41.472 
" style="fill: none; stroke: #000000; stroke-width: 0.8; stroke-linejoin: miter; stroke-linecap: square"/>
   </g>
   <g id="patch_4">
    <path d="M 414.72 307.584 
L 414.72 41.472 
" style="fill: none; stroke: #000000; stroke-width: 0.8; stroke-linejoin: miter; stroke-linecap: square"/>
   </g>
   <g id="patch_5">
    <path d="M 57.6 307.584 
L 414.72 307.584 
" style="fill: none; stroke: #000000; stroke-width: 0.8; stroke-linejoin: miter; stroke-linecap: square"/>
   </g>
   <g id="patch_6">
    <path d="M 57.6 41.472 
L 414.72 41.472 
" style="fill: none; stroke: #000000; stroke-width: 0.8; stroke-linejoin: miter; stroke-linecap: square"/>
   </g>
   <g id="text_21">
    <!-- Violinplot for progress of a/reward -->
    <g transform="translate(134.184375 35.472)scale(0.12 -0.12)">
     <defs>
      <path id="DejaVuSans-56" d="M 1831 0 
L 50 4666 
L 709 4666 
L 2188 738 
L 3669 4666 
L 4325 4666 
L 2547 0 
L 1831 0 
z
" transform="scale(0.015625)"/>
      <path id="DejaVuSans-6c" d="M 603 4863 
L 1178 4863 
L 1178 0 
L 603 0 
L 603 4863 
z
" transform="scale(0.015625)"/>
      <path id="DejaVuSans-66" d="M 2375 4863 
L 2375 4384 
L 1825 4384 
Q 1516 4384 1395 4259 
Q 1275 4134 1275 3809 
L 1275 3500 
L 2222 3500 
L 2222 3053 
L 1275 3053 
L 1275 0 
L 697 0 
L 697 3053 
L 147 3053 
L 147 3500 
L 697 3500 
L 697 3744 
Q 697 4328 969 4595 
Q 1241 4863 1831 4863 
L 2375 4863 
z
" transform="scale(0.015625)"/>
      <path id="DejaVuSans-67" d="M 2906 1791 
Q 2906 2416 2648 2759 
Q 2391 3103 1925 3103 
Q 1463 3103 1205 2759 
Q 947 2416 947 1791 
Q 947 1169 1205 825 
Q 1463 481 1925 481 
Q 2391 481 2648 825 
Q 2906 1169 2906 1791 
z
M 3481 434 
Q 3481 -459 3084 -895 
Q 2688 -1331 1869 -1331 
Q 1566 -1331 1297 -1286 
Q 1028 -1241 775 -1147 
L 775 -588 
Q 1028 -725 1275 -790 
Q 1522 -856 1778 -856 
Q 2344 -856 2625 -561 
Q 2906 -266 2906 331 
L 2906 616 
Q 2728 306 2450 153 
Q 2172 0 1784 0 
Q 1141 0 747 490 
Q 353 981 353 1791 
Q 353 2603 747 3093 
Q 1141 3584 1784 3584 
Q 2172 3584 2450 3431 
Q 2728 3278 2906 2969 
L 2906 3500 
L 3481 3500 
L 3481 434 
z
" transform="scale(0.015625)"/>
      <path id="DejaVuSans-2f" d="M 1625 4666 
L 2156 4666 
L 531 -594 
L 0 -594 
L 1625 4666 
z
" transform="scale(0.015625)"/>
     </defs>
     <use xlink:href="#DejaVuSans-56"/>
     <use xlink:href="#DejaVuSans-69" x="66.158203"/>
     <use xlink:href="#DejaVuSans-6f" x="93.941406"/>
     <use xlink:href="#DejaVuSans-6c" x="155.123047"/>
     <use xlink:href="#DejaVuSans-69" x="182.90625"/>
     <use xlink:href="#DejaVuSans-6e" x="210.689453"/>
     <use xlink:href="#DejaVuSans-70" x="274.068359"/>
     <use xlink:href="#DejaVuSans-6c" x="337.544922"/>
     <use xlink:href="#DejaVuSans-6f" x="365.328125"/>
     <use xlink:href="#DejaVuSans-74" x="426.509766"/>
     <use xlink:href="#DejaVuSans-20" x="465.71875"/>
     <use xlink:href="#DejaVuSans-66" x="497.505859"/>
     <use xlink:href="#DejaVuSans-6f" x="532.710938"/>
     <use xlink:href="#DejaVuSans-72" x="593.892578"/>
     <use xlink:href="#DejaVuSans-20" x="635.005859"/>
     <use xlink:href="#DejaVuSans-70" x="666.792969"/>
     <use xlink:href="#DejaVuSans-72" x="730.269531"/>
     <use xlink:href="#DejaVuSans-6f" x="769.132812"/>
     <use xlink:href="#DejaVuSans-67" x="830.314453"/>
     <use xlink:href="#DejaVuSans-72" x="893.791016"/>
     <use xlink:href="#DejaVuSans-65" x="932.654297"/>
     <use xlink:href="#DejaVuSans-73" x="994.177734"/>
     <use xlink:href="#DejaVuSans-73" x="1046.277344"/>
     <use xlink:href="#DejaVuSans-20" x="1098.376953"/>
     <use xlink:href="#DejaVuSans-6f" x="1130.164062"/>
     <use xlink:href="#DejaVuSans-66" x="1191.345703"/>
     <use xlink:href="#DejaVuSans-20" x="1226.550781"/>
     <use xlink:href="#DejaVuSans-61" x="1258.337891"/>
     <use xlink:href="#DejaVuSans-2f" x="1319.617188"/>
     <use xlink:href="#DejaVuSans-72" x="1353.308594"/>
     <use xlink:href="#DejaVuSans-65" x="1392.171875"/>
     <use xlink:href="#DejaVuSans-77" x="1453.695312"/>
     <use xlink:href="#DejaVuSans-61" x="1535.482422"/>
     <use xlink:href="#DejaVuSans-72" x="1596.761719"/>
     <use xlink:href="#DejaVuSans-64" x="1636.125"/>
    </g>
   </g>
  </g>
 </g>
 <defs>
  <clipPath id="p5d8602afd7">
   <rect x="57.6" y="41.472" width="357.12" height="266.112"/>
  </clipPath>
 </defs>
</svg>
