<?xml version="1.0" encoding="utf-8" standalone="no"?>
<!DOCTYPE svg PUBLIC "-//W3C//DTD SVG 1.1//EN"
  "http://www.w3.org/Graphics/SVG/1.1/DTD/svg11.dtd">
<svg xmlns:xlink="http://www.w3.org/1999/xlink" width="460.8pt" height="345.6pt" viewBox="0 0 460.8 345.6" xmlns="http://www.w3.org/2000/svg" version="1.1">
 <metadata>
  <rdf:RDF xmlns:dc="http://purl.org/dc/elements/1.1/" xmlns:cc="http://creativecommons.org/ns#" xmlns:rdf="http://www.w3.org/1999/02/22-rdf-syntax-ns#">
   <cc:Work>
    <dc:type rdf:resource="http://purl.org/dc/dcmitype/StillImage"/>
    <dc:date>2022-06-15T18:26:50.122035</dc:date>
    <dc:format>image/svg+xml</dc:format>
    <dc:creator>
     <cc:Agent>
      <dc:title>Matplotlib v3.5.2, https://matplotlib.org/</dc:title>
     </cc:Agent>
    </dc:creator>
   </cc:Work>
  </rdf:RDF>
 </metadata>
 <defs>
  <style type="text/css">*{stroke-linejoin: round; stroke-linecap: butt}</style>
 </defs>
 <g id="figure_1">
  <g id="patch_1">
   <path d="M 0 345.6 
L 460.8 345.6 
L 460.8 0 
L 0 0 
z
" style="fill: #ffffff"/>
  </g>
  <g id="axes_1">
   <g id="patch_2">
    <path d="M 57.6 307.584 
L 414.72 307.584 
L 414.72 41.472 
L 57.6 41.472 
z
" style="fill: #ffffff"/>
   </g>
   <g id="PolyCollection_1">
    <path d="M 111.980429 282.873689 
L 110.643746 282.873689 
L 110.581876 280.55747 
L 110.532655 278.241251 
L 110.499031 275.925032 
L 110.483037 273.608813 
L 110.485552 271.292594 
L 110.506145 268.976375 
L 110.543023 266.660156 
L 110.593105 264.343937 
L 110.652227 262.027717 
L 110.715476 259.711498 
L 110.777616 257.395279 
L 110.833562 255.07906 
L 110.878839 252.762841 
L 110.909958 250.446622 
L 110.924673 248.130403 
L 110.92208 245.814184 
L 110.902578 243.497965 
L 110.867699 241.181746 
L 110.819871 238.865527 
L 110.76213 236.549308 
L 110.697853 234.233088 
L 110.630501 231.916869 
L 110.563401 229.60065 
L 110.499566 227.284431 
L 110.441539 224.968212 
L 110.39128 222.651993 
L 110.350088 220.335774 
L 110.318583 218.019555 
L 110.296753 215.703336 
L 110.284069 213.387117 
L 110.279651 211.070898 
L 110.282454 208.754679 
L 110.291444 206.438459 
L 110.305718 204.12224 
L 110.324551 201.806021 
L 110.347357 199.489802 
L 110.373575 197.173583 
L 110.402515 194.857364 
L 110.433173 192.541145 
L 110.464076 190.224926 
L 110.493172 187.908707 
L 110.517786 185.592488 
L 110.534687 183.276269 
L 110.540262 180.96005 
L 110.530821 178.64383 
L 110.503011 176.327611 
L 110.454303 174.011392 
L 110.383492 171.695173 
L 110.291082 169.378954 
L 110.179481 167.062735 
L 110.052896 164.746516 
L 109.916914 162.430297 
L 109.777797 160.114078 
L 109.641617 157.797859 
L 109.513392 155.48164 
L 109.396411 153.165421 
L 109.291856 150.849201 
L 109.198784 148.532982 
L 109.11441 146.216763 
L 109.034529 143.900544 
L 108.953929 141.584325 
L 108.866603 139.268106 
L 108.765706 136.951887 
L 108.64327 134.635668 
L 108.489812 132.319449 
L 108.294033 130.00323 
L 108.042802 127.687011 
L 107.721549 125.370792 
L 107.315096 123.054572 
L 106.808781 120.738353 
L 106.189655 118.422134 
L 105.447444 116.105915 
L 104.575032 113.789696 
L 103.568302 111.473477 
L 102.42538 109.157258 
L 101.145507 106.841039 
L 99.727895 104.52482 
L 98.171036 102.208601 
L 96.472836 99.892382 
L 94.631838 97.576163 
L 92.649586 95.259943 
L 90.533951 92.943724 
L 88.303025 90.627505 
L 85.989061 88.311286 
L 83.641782 85.995067 
L 81.330329 83.678848 
L 79.143131 81.362629 
L 77.185031 79.04641 
L 75.571284 76.730191 
L 74.418436 74.413972 
L 73.832727 72.097753 
L 73.897282 69.781534 
L 74.659972 67.465314 
L 76.124077 65.149095 
L 78.24373 62.832876 
L 80.925441 60.516657 
L 84.035962 58.200438 
L 87.415513 55.884219 
L 90.894326 53.568 
L 131.729848 53.568 
L 131.729848 53.568 
L 135.208662 55.884219 
L 138.588213 58.200438 
L 141.698734 60.516657 
L 144.380445 62.832876 
L 146.500097 65.149095 
L 147.964203 67.465314 
L 148.726893 69.781534 
L 148.791447 72.097753 
L 148.205738 74.413972 
L 147.052891 76.730191 
L 145.439144 79.04641 
L 143.481044 81.362629 
L 141.293846 83.678848 
L 138.982393 85.995067 
L 136.635113 88.311286 
L 134.32115 90.627505 
L 132.090224 92.943724 
L 129.974588 95.259943 
L 127.992337 97.576163 
L 126.151339 99.892382 
L 124.453139 102.208601 
L 122.89628 104.52482 
L 121.478668 106.841039 
L 120.198794 109.157258 
L 119.055873 111.473477 
L 118.049142 113.789696 
L 117.17673 116.105915 
L 116.43452 118.422134 
L 115.815393 120.738353 
L 115.309078 123.054572 
L 114.902625 125.370792 
L 114.581373 127.687011 
L 114.330141 130.00323 
L 114.134363 132.319449 
L 113.980905 134.635668 
L 113.858469 136.951887 
L 113.757571 139.268106 
L 113.670245 141.584325 
L 113.589645 143.900544 
L 113.509765 146.216763 
L 113.42539 148.532982 
L 113.332319 150.849201 
L 113.227763 153.165421 
L 113.110782 155.48164 
L 112.982558 157.797859 
L 112.846377 160.114078 
L 112.70726 162.430297 
L 112.571279 164.746516 
L 112.444694 167.062735 
L 112.333093 169.378954 
L 112.240683 171.695173 
L 112.169872 174.011392 
L 112.121164 176.327611 
L 112.093353 178.64383 
L 112.083912 180.96005 
L 112.089488 183.276269 
L 112.106389 185.592488 
L 112.131003 187.908707 
L 112.160098 190.224926 
L 112.191002 192.541145 
L 112.22166 194.857364 
L 112.250599 197.173583 
L 112.276818 199.489802 
L 112.299623 201.806021 
L 112.318456 204.12224 
L 112.33273 206.438459 
L 112.34172 208.754679 
L 112.344524 211.070898 
L 112.340105 213.387117 
L 112.327422 215.703336 
L 112.305591 218.019555 
L 112.274086 220.335774 
L 112.232894 222.651993 
L 112.182635 224.968212 
L 112.124609 227.284431 
L 112.060774 229.60065 
L 111.993674 231.916869 
L 111.926321 234.233088 
L 111.862045 236.549308 
L 111.804304 238.865527 
L 111.756475 241.181746 
L 111.721597 243.497965 
L 111.702095 245.814184 
L 111.699502 248.130403 
L 111.714216 250.446622 
L 111.745336 252.762841 
L 111.790612 255.07906 
L 111.846559 257.395279 
L 111.908698 259.711498 
L 111.971947 262.027717 
L 112.03107 264.343937 
L 112.081152 266.660156 
L 112.11803 268.976375 
L 112.138623 271.292594 
L 112.141138 273.608813 
L 112.125143 275.925032 
L 112.091519 278.241251 
L 112.042299 280.55747 
L 111.980429 282.873689 
z
" clip-path="url(#p014598ef6b)" style="fill: #1f77b4; fill-opacity: 0.3"/>
   </g>
   <g id="PolyCollection_2">
    <path d="M 194.857137 295.488 
L 194.341971 295.488 
L 194.347007 293.084103 
L 194.361749 290.680205 
L 194.384202 288.276308 
L 194.411452 285.872411 
L 194.440122 283.468513 
L 194.466835 281.064616 
L 194.488603 278.660719 
L 194.503083 276.256822 
L 194.508711 273.852924 
L 194.504724 271.449027 
L 194.491148 269.04513 
L 194.468738 266.641232 
L 194.438894 264.237335 
L 194.403501 261.833438 
L 194.364682 259.42954 
L 194.324452 257.025643 
L 194.284324 254.621746 
L 194.244954 252.217848 
L 194.205922 249.813951 
L 194.165746 247.410054 
L 194.122148 245.006156 
L 194.072553 242.602259 
L 194.014727 240.198362 
L 193.947425 237.794465 
L 193.870935 235.390567 
L 193.787394 232.98667 
L 193.700808 230.582773 
L 193.616746 228.178875 
L 193.541708 225.774978 
L 193.482266 223.371081 
L 193.444096 220.967183 
L 193.431109 218.563286 
L 193.444841 216.159389 
L 193.484251 213.755491 
L 193.545958 211.351594 
L 193.624804 208.947697 
L 193.714601 206.5438 
L 193.808818 204.139902 
L 193.901081 201.736005 
L 193.985403 199.332108 
L 194.056204 196.92821 
L 194.108252 194.524313 
L 194.136664 192.120416 
L 194.137073 189.716518 
L 194.105982 187.312621 
L 194.041239 184.908724 
L 193.942508 182.504826 
L 193.811591 180.100929 
L 193.652489 177.697032 
L 193.471147 175.293134 
L 193.274898 172.889237 
L 193.071691 170.48534 
L 192.869229 168.081443 
L 192.674164 165.677545 
L 192.491455 163.273648 
L 192.323979 160.869751 
L 192.172434 158.465853 
L 192.035489 156.061956 
L 191.910127 153.658059 
L 191.792072 151.254161 
L 191.67619 148.850264 
L 191.556775 146.446367 
L 191.427708 144.042469 
L 191.282525 141.638572 
L 191.114526 139.234675 
L 190.917019 136.830777 
L 190.683785 134.42688 
L 190.409662 132.022983 
L 190.09103 129.619086 
L 189.725874 127.215188 
L 189.313124 124.811291 
L 188.851186 122.407394 
L 188.335892 120.003496 
L 187.758396 117.599599 
L 187.103764 115.195702 
L 186.35091 112.791804 
L 185.474239 110.387907 
L 184.446816 107.98401 
L 183.244381 105.580112 
L 181.849215 103.176215 
L 180.252882 100.772318 
L 178.457301 98.368421 
L 176.474281 95.964523 
L 174.324345 93.560626 
L 172.036174 91.156729 
L 169.647873 88.752831 
L 167.210671 86.348934 
L 164.794433 83.945037 
L 162.493107 81.541139 
L 160.427232 79.137242 
L 158.740531 76.733345 
L 157.588656 74.329447 
L 157.120194 71.92555 
L 157.452643 69.521653 
L 158.648306 67.117755 
L 160.696089 64.713858 
L 163.504483 62.309961 
L 166.908541 59.906064 
L 170.690182 57.502166 
L 218.508926 57.502166 
L 218.508926 57.502166 
L 222.290567 59.906064 
L 225.694625 62.309961 
L 228.503019 64.713858 
L 230.550802 67.117755 
L 231.746465 69.521653 
L 232.078914 71.92555 
L 231.610452 74.329447 
L 230.458577 76.733345 
L 228.771876 79.137242 
L 226.706001 81.541139 
L 224.404676 83.945037 
L 221.988437 86.348934 
L 219.551235 88.752831 
L 217.162934 91.156729 
L 214.874763 93.560626 
L 212.724828 95.964523 
L 210.741807 98.368421 
L 208.946226 100.772318 
L 207.349893 103.176215 
L 205.954727 105.580112 
L 204.752293 107.98401 
L 203.724869 110.387907 
L 202.848198 112.791804 
L 202.095344 115.195702 
L 201.440712 117.599599 
L 200.863216 120.003496 
L 200.347922 122.407394 
L 199.885984 124.811291 
L 199.473234 127.215188 
L 199.108078 129.619086 
L 198.789447 132.022983 
L 198.515323 134.42688 
L 198.282089 136.830777 
L 198.084582 139.234675 
L 197.916583 141.638572 
L 197.7714 144.042469 
L 197.642333 146.446367 
L 197.522918 148.850264 
L 197.407036 151.254161 
L 197.288981 153.658059 
L 197.163619 156.061956 
L 197.026674 158.465853 
L 196.875129 160.869751 
L 196.707653 163.273648 
L 196.524944 165.677545 
L 196.329879 168.081443 
L 196.127418 170.48534 
L 195.92421 172.889237 
L 195.727961 175.293134 
L 195.546619 177.697032 
L 195.387517 180.100929 
L 195.2566 182.504826 
L 195.157869 184.908724 
L 195.093127 187.312621 
L 195.062036 189.716518 
L 195.062444 192.120416 
L 195.090856 194.524313 
L 195.142904 196.92821 
L 195.213705 199.332108 
L 195.298027 201.736005 
L 195.390291 204.139902 
L 195.484508 206.5438 
L 195.574304 208.947697 
L 195.65315 211.351594 
L 195.714857 213.755491 
L 195.754268 216.159389 
L 195.767999 218.563286 
L 195.755012 220.967183 
L 195.716842 223.371081 
L 195.6574 225.774978 
L 195.582362 228.178875 
L 195.4983 230.582773 
L 195.411714 232.98667 
L 195.328173 235.390567 
L 195.251683 237.794465 
L 195.184381 240.198362 
L 195.126555 242.602259 
L 195.07696 245.006156 
L 195.033362 247.410054 
L 194.993186 249.813951 
L 194.954154 252.217848 
L 194.914784 254.621746 
L 194.874656 257.025643 
L 194.834426 259.42954 
L 194.795607 261.833438 
L 194.760215 264.237335 
L 194.73037 266.641232 
L 194.707961 269.04513 
L 194.694384 271.449027 
L 194.690398 273.852924 
L 194.696025 276.256822 
L 194.710506 278.660719 
L 194.732273 281.064616 
L 194.758986 283.468513 
L 194.787656 285.872411 
L 194.814906 288.276308 
L 194.837359 290.680205 
L 194.852101 293.084103 
L 194.857137 295.488 
z
" clip-path="url(#p014598ef6b)" style="fill: #1f77b4; fill-opacity: 0.3"/>
   </g>
   <g id="PolyCollection_3">
    <path d="M 278.42873 260.392739 
L 277.345311 260.392739 
L 277.33146 258.34397 
L 277.332341 256.295201 
L 277.346526 254.246432 
L 277.37106 252.197663 
L 277.401844 250.148895 
L 277.434192 248.100126 
L 277.463462 246.051357 
L 277.485627 244.002588 
L 277.497708 241.953819 
L 277.497991 239.90505 
L 277.486011 237.856281 
L 277.462333 235.807512 
L 277.428195 233.758743 
L 277.385092 231.709974 
L 277.334393 229.661205 
L 277.277064 227.612436 
L 277.213532 225.563667 
L 277.143735 223.514898 
L 277.067311 221.466129 
L 276.983921 219.41736 
L 276.893628 217.368591 
L 276.797278 215.319822 
L 276.696802 213.271053 
L 276.595374 211.222285 
L 276.497367 209.173516 
L 276.408077 207.124747 
L 276.333229 205.075978 
L 276.278317 203.027209 
L 276.247874 200.97844 
L 276.244808 198.929671 
L 276.269904 196.880902 
L 276.321609 194.832133 
L 276.39612 192.783364 
L 276.487757 190.734595 
L 276.589535 188.685826 
L 276.693843 186.637057 
L 276.793096 184.588288 
L 276.880318 182.539519 
L 276.949593 180.49075 
L 276.996405 178.441981 
L 277.017882 176.393212 
L 277.012961 174.344443 
L 276.982472 172.295674 
L 276.929098 170.246906 
L 276.857185 168.198137 
L 276.772343 166.149368 
L 276.68084 164.100599 
L 276.588824 162.05183 
L 276.501453 160.003061 
L 276.422037 157.954292 
L 276.351335 155.905523 
L 276.287085 153.856754 
L 276.223868 151.807985 
L 276.153333 149.759216 
L 276.064769 147.710447 
L 275.946008 145.661678 
L 275.784561 143.612909 
L 275.568899 141.56414 
L 275.28972 139.515371 
L 274.941051 137.466602 
L 274.520992 135.417833 
L 274.031928 133.369064 
L 273.480114 131.320295 
L 272.874605 129.271527 
L 272.225647 127.222758 
L 271.542769 125.173989 
L 270.832933 123.12522 
L 270.099103 121.076451 
L 269.3396 119.027682 
L 268.548417 116.978913 
L 267.716518 114.930144 
L 266.833888 112.881375 
L 265.891915 110.832606 
L 264.885547 108.783837 
L 263.814665 106.735068 
L 262.684227 104.686299 
L 261.502974 102.63753 
L 260.280868 100.588761 
L 259.025745 98.539992 
L 257.740049 96.491223 
L 256.418637 94.442454 
L 255.04864 92.393685 
L 253.61204 90.344917 
L 252.091092 88.296148 
L 250.476015 86.247379 
L 248.773684 84.19861 
L 247.015536 82.149841 
L 245.262681 80.101072 
L 243.606495 78.052303 
L 242.163613 76.003534 
L 241.065306 73.954765 
L 240.442361 71.905996 
L 240.407661 69.857227 
L 241.039333 67.808458 
L 242.367484 65.759689 
L 244.367019 63.71092 
L 246.958026 61.662151 
L 250.013779 59.613382 
L 253.375042 57.564613 
L 302.398999 57.564613 
L 302.398999 57.564613 
L 305.760263 59.613382 
L 308.816016 61.662151 
L 311.407022 63.71092 
L 313.406558 65.759689 
L 314.734708 67.808458 
L 315.366381 69.857227 
L 315.331681 71.905996 
L 314.708736 73.954765 
L 313.610429 76.003534 
L 312.167547 78.052303 
L 310.51136 80.101072 
L 308.758506 82.149841 
L 307.000357 84.19861 
L 305.298027 86.247379 
L 303.682949 88.296148 
L 302.162001 90.344917 
L 300.725402 92.393685 
L 299.355405 94.442454 
L 298.033992 96.491223 
L 296.748296 98.539992 
L 295.493174 100.588761 
L 294.271067 102.63753 
L 293.089815 104.686299 
L 291.959376 106.735068 
L 290.888495 108.783837 
L 289.882127 110.832606 
L 288.940153 112.881375 
L 288.057523 114.930144 
L 287.225624 116.978913 
L 286.434442 119.027682 
L 285.674939 121.076451 
L 284.941109 123.12522 
L 284.231272 125.173989 
L 283.548395 127.222758 
L 282.899437 129.271527 
L 282.293928 131.320295 
L 281.742114 133.369064 
L 281.25305 135.417833 
L 280.83299 137.466602 
L 280.484322 139.515371 
L 280.205143 141.56414 
L 279.989481 143.612909 
L 279.828034 145.661678 
L 279.709273 147.710447 
L 279.620709 149.759216 
L 279.550173 151.807985 
L 279.486957 153.856754 
L 279.422707 155.905523 
L 279.352005 157.954292 
L 279.272589 160.003061 
L 279.185217 162.05183 
L 279.093202 164.100599 
L 279.001699 166.149368 
L 278.916857 168.198137 
L 278.844944 170.246906 
L 278.79157 172.295674 
L 278.76108 174.344443 
L 278.75616 176.393212 
L 278.777637 178.441981 
L 278.824449 180.49075 
L 278.893724 182.539519 
L 278.980946 184.588288 
L 279.080199 186.637057 
L 279.184506 188.685826 
L 279.286285 190.734595 
L 279.377921 192.783364 
L 279.452433 194.832133 
L 279.504138 196.880902 
L 279.529234 198.929671 
L 279.526168 200.97844 
L 279.495725 203.027209 
L 279.440813 205.075978 
L 279.365965 207.124747 
L 279.276675 209.173516 
L 279.178668 211.222285 
L 279.07724 213.271053 
L 278.976764 215.319822 
L 278.880414 217.368591 
L 278.790121 219.41736 
L 278.706731 221.466129 
L 278.630307 223.514898 
L 278.56051 225.563667 
L 278.496978 227.612436 
L 278.439648 229.661205 
L 278.38895 231.709974 
L 278.345847 233.758743 
L 278.311708 235.807512 
L 278.28803 237.856281 
L 278.27605 239.90505 
L 278.276334 241.953819 
L 278.288415 244.002588 
L 278.31058 246.051357 
L 278.33985 248.100126 
L 278.372198 250.148895 
L 278.402981 252.197663 
L 278.427516 254.246432 
L 278.441701 256.295201 
L 278.442581 258.34397 
L 278.42873 260.392739 
z
" clip-path="url(#p014598ef6b)" style="fill: #1f77b4; fill-opacity: 0.3"/>
   </g>
   <g id="PolyCollection_4">
    <path d="M 361.699637 269.884696 
L 360.316188 269.884696 
L 360.278263 267.71671 
L 360.250794 265.548724 
L 360.233293 263.380738 
L 360.224499 261.212751 
L 360.222612 259.044765 
L 360.225586 256.876779 
L 360.231416 254.708793 
L 360.238384 252.540807 
L 360.245216 250.372821 
L 360.251164 248.204835 
L 360.255987 246.036849 
L 360.259876 243.868863 
L 360.263334 241.700877 
L 360.267029 239.53289 
L 360.271648 237.364904 
L 360.277759 235.196918 
L 360.285683 233.028932 
L 360.295382 230.860946 
L 360.306365 228.69296 
L 360.317612 226.524974 
L 360.327543 224.356988 
L 360.334032 222.189002 
L 360.334503 220.021015 
L 360.32611 217.853029 
L 360.306001 215.685043 
L 360.271657 213.517057 
L 360.22125 211.349071 
L 360.153965 209.181085 
L 360.070215 207.013099 
L 359.971691 204.845113 
L 359.861211 202.677127 
L 359.742375 200.50914 
L 359.619063 198.341154 
L 359.494867 196.173168 
L 359.372541 194.005182 
L 359.25358 191.837196 
L 359.137989 189.66921 
L 359.024281 187.501224 
L 358.909718 185.333238 
L 358.790747 183.165252 
L 358.663593 180.997265 
L 358.524924 178.829279 
L 358.372544 176.661293 
L 358.206001 174.493307 
L 358.027075 172.325321 
L 357.840017 170.157335 
L 357.651509 167.989349 
L 357.470251 165.821363 
L 357.306188 163.653377 
L 357.169397 161.485391 
L 357.068748 159.317404 
L 357.010491 157.149418 
L 356.996967 154.981432 
L 357.025636 152.813446 
L 357.088587 150.64546 
L 357.172616 148.477474 
L 357.259903 146.309488 
L 357.32921 144.141502 
L 357.357477 141.973516 
L 357.321648 139.805529 
L 357.200534 137.637543 
L 356.97655 135.469557 
L 356.637162 133.301571 
L 356.175908 131.133585 
L 355.592898 128.965599 
L 354.894713 126.797613 
L 354.093672 124.629627 
L 353.206479 122.461641 
L 352.252352 120.293654 
L 351.250782 118.125668 
L 350.219172 115.957682 
L 349.170648 113.789696 
L 348.112341 111.62171 
L 347.044416 109.453724 
L 345.959998 107.285738 
L 344.84605 105.117752 
L 343.685087 102.949766 
L 342.457534 100.78178 
L 341.144432 98.613793 
L 339.730286 96.445807 
L 338.205848 94.277821 
L 336.570759 92.109835 
L 334.836035 89.941849 
L 333.026323 87.773863 
L 331.181768 85.605877 
L 329.359133 83.437891 
L 327.631631 81.269905 
L 326.086862 79.101918 
L 324.822317 76.933932 
L 323.938295 74.765946 
L 323.528553 72.59796 
L 323.66967 70.429974 
L 324.410607 68.261988 
L 325.764238 66.094002 
L 327.702527 63.926016 
L 330.156521 61.75803 
L 333.021507 59.590043 
L 336.166751 57.422057 
L 339.448356 55.254071 
L 382.567469 55.254071 
L 382.567469 55.254071 
L 385.849075 57.422057 
L 388.994318 59.590043 
L 391.859304 61.75803 
L 394.313298 63.926016 
L 396.251587 66.094002 
L 397.605218 68.261988 
L 398.346155 70.429974 
L 398.487273 72.59796 
L 398.077531 74.765946 
L 397.193509 76.933932 
L 395.928964 79.101918 
L 394.384194 81.269905 
L 392.656693 83.437891 
L 390.834057 85.605877 
L 388.989502 87.773863 
L 387.17979 89.941849 
L 385.445067 92.109835 
L 383.809978 94.277821 
L 382.285539 96.445807 
L 380.871394 98.613793 
L 379.558292 100.78178 
L 378.330738 102.949766 
L 377.169776 105.117752 
L 376.055827 107.285738 
L 374.971409 109.453724 
L 373.903484 111.62171 
L 372.845177 113.789696 
L 371.796653 115.957682 
L 370.765043 118.125668 
L 369.763473 120.293654 
L 368.809347 122.461641 
L 367.922154 124.629627 
L 367.121112 126.797613 
L 366.422927 128.965599 
L 365.839918 131.133585 
L 365.378664 133.301571 
L 365.039275 135.469557 
L 364.815292 137.637543 
L 364.694177 139.805529 
L 364.658348 141.973516 
L 364.686616 144.141502 
L 364.755923 146.309488 
L 364.84321 148.477474 
L 364.927239 150.64546 
L 364.990189 152.813446 
L 365.018859 154.981432 
L 365.005335 157.149418 
L 364.947078 159.317404 
L 364.846429 161.485391 
L 364.709638 163.653377 
L 364.545575 165.821363 
L 364.364317 167.989349 
L 364.175808 170.157335 
L 363.988751 172.325321 
L 363.809824 174.493307 
L 363.643282 176.661293 
L 363.490901 178.829279 
L 363.352233 180.997265 
L 363.225078 183.165252 
L 363.106108 185.333238 
L 362.991544 187.501224 
L 362.877837 189.66921 
L 362.762245 191.837196 
L 362.643285 194.005182 
L 362.520959 196.173168 
L 362.396762 198.341154 
L 362.27345 200.50914 
L 362.154614 202.677127 
L 362.044134 204.845113 
L 361.94561 207.013099 
L 361.86186 209.181085 
L 361.794575 211.349071 
L 361.744169 213.517057 
L 361.709825 215.685043 
L 361.689716 217.853029 
L 361.681322 220.021015 
L 361.681794 222.189002 
L 361.688283 224.356988 
L 361.698213 226.524974 
L 361.70946 228.69296 
L 361.720443 230.860946 
L 361.730142 233.028932 
L 361.738066 235.196918 
L 361.744177 237.364904 
L 361.748796 239.53289 
L 361.752491 241.700877 
L 361.755949 243.868863 
L 361.759839 246.036849 
L 361.764661 248.204835 
L 361.770609 250.372821 
L 361.777442 252.540807 
L 361.784409 254.708793 
L 361.79024 256.876779 
L 361.793213 259.044765 
L 361.791326 261.212751 
L 361.782532 263.380738 
L 361.765032 265.548724 
L 361.737562 267.71671 
L 361.699637 269.884696 
z
" clip-path="url(#p014598ef6b)" style="fill: #1f77b4; fill-opacity: 0.3"/>
   </g>
   <g id="matplotlib.axis_1">
    <g id="xtick_1">
     <g id="line2d_1">
      <defs>
       <path id="m4949ed421d" d="M 0 0 
L 0 3.5 
" style="stroke: #000000; stroke-width: 0.8"/>
      </defs>
      <g>
       <use xlink:href="#m4949ed421d" x="69.668354" y="307.584" style="stroke: #000000; stroke-width: 0.8"/>
      </g>
     </g>
     <g id="text_1">
      <!-- 250 -->
      <g transform="translate(60.124604 322.182437)scale(0.1 -0.1)">
       <defs>
        <path id="DejaVuSans-32" d="M 1228 531 
L 3431 531 
L 3431 0 
L 469 0 
L 469 531 
Q 828 903 1448 1529 
Q 2069 2156 2228 2338 
Q 2531 2678 2651 2914 
Q 2772 3150 2772 3378 
Q 2772 3750 2511 3984 
Q 2250 4219 1831 4219 
Q 1534 4219 1204 4116 
Q 875 4013 500 3803 
L 500 4441 
Q 881 4594 1212 4672 
Q 1544 4750 1819 4750 
Q 2544 4750 2975 4387 
Q 3406 4025 3406 3419 
Q 3406 3131 3298 2873 
Q 3191 2616 2906 2266 
Q 2828 2175 2409 1742 
Q 1991 1309 1228 531 
z
" transform="scale(0.015625)"/>
        <path id="DejaVuSans-35" d="M 691 4666 
L 3169 4666 
L 3169 4134 
L 1269 4134 
L 1269 2991 
Q 1406 3038 1543 3061 
Q 1681 3084 1819 3084 
Q 2600 3084 3056 2656 
Q 3513 2228 3513 1497 
Q 3513 744 3044 326 
Q 2575 -91 1722 -91 
Q 1428 -91 1123 -41 
Q 819 9 494 109 
L 494 744 
Q 775 591 1075 516 
Q 1375 441 1709 441 
Q 2250 441 2565 725 
Q 2881 1009 2881 1497 
Q 2881 1984 2565 2268 
Q 2250 2553 1709 2553 
Q 1456 2553 1204 2497 
Q 953 2441 691 2322 
L 691 4666 
z
" transform="scale(0.015625)"/>
        <path id="DejaVuSans-30" d="M 2034 4250 
Q 1547 4250 1301 3770 
Q 1056 3291 1056 2328 
Q 1056 1369 1301 889 
Q 1547 409 2034 409 
Q 2525 409 2770 889 
Q 3016 1369 3016 2328 
Q 3016 3291 2770 3770 
Q 2525 4250 2034 4250 
z
M 2034 4750 
Q 2819 4750 3233 4129 
Q 3647 3509 3647 2328 
Q 3647 1150 3233 529 
Q 2819 -91 2034 -91 
Q 1250 -91 836 529 
Q 422 1150 422 2328 
Q 422 3509 836 4129 
Q 1250 4750 2034 4750 
z
" transform="scale(0.015625)"/>
       </defs>
       <use xlink:href="#DejaVuSans-32"/>
       <use xlink:href="#DejaVuSans-35" x="63.623047"/>
       <use xlink:href="#DejaVuSans-30" x="127.246094"/>
      </g>
     </g>
    </g>
    <g id="xtick_2">
     <g id="line2d_2">
      <g>
       <use xlink:href="#m4949ed421d" x="111.312087" y="307.584" style="stroke: #000000; stroke-width: 0.8"/>
      </g>
     </g>
     <g id="text_2">
      <!-- 500 -->
      <g transform="translate(101.768337 322.182437)scale(0.1 -0.1)">
       <use xlink:href="#DejaVuSans-35"/>
       <use xlink:href="#DejaVuSans-30" x="63.623047"/>
       <use xlink:href="#DejaVuSans-30" x="127.246094"/>
      </g>
     </g>
    </g>
    <g id="xtick_3">
     <g id="line2d_3">
      <g>
       <use xlink:href="#m4949ed421d" x="152.955821" y="307.584" style="stroke: #000000; stroke-width: 0.8"/>
      </g>
     </g>
     <g id="text_3">
      <!-- 750 -->
      <g transform="translate(143.412071 322.182437)scale(0.1 -0.1)">
       <defs>
        <path id="DejaVuSans-37" d="M 525 4666 
L 3525 4666 
L 3525 4397 
L 1831 0 
L 1172 0 
L 2766 4134 
L 525 4134 
L 525 4666 
z
" transform="scale(0.015625)"/>
       </defs>
       <use xlink:href="#DejaVuSans-37"/>
       <use xlink:href="#DejaVuSans-35" x="63.623047"/>
       <use xlink:href="#DejaVuSans-30" x="127.246094"/>
      </g>
     </g>
    </g>
    <g id="xtick_4">
     <g id="line2d_4">
      <g>
       <use xlink:href="#m4949ed421d" x="194.599554" y="307.584" style="stroke: #000000; stroke-width: 0.8"/>
      </g>
     </g>
     <g id="text_4">
      <!-- 1000 -->
      <g transform="translate(181.874554 322.182437)scale(0.1 -0.1)">
       <defs>
        <path id="DejaVuSans-31" d="M 794 531 
L 1825 531 
L 1825 4091 
L 703 3866 
L 703 4441 
L 1819 4666 
L 2450 4666 
L 2450 531 
L 3481 531 
L 3481 0 
L 794 0 
L 794 531 
z
" transform="scale(0.015625)"/>
       </defs>
       <use xlink:href="#DejaVuSans-31"/>
       <use xlink:href="#DejaVuSans-30" x="63.623047"/>
       <use xlink:href="#DejaVuSans-30" x="127.246094"/>
       <use xlink:href="#DejaVuSans-30" x="190.869141"/>
      </g>
     </g>
    </g>
    <g id="xtick_5">
     <g id="line2d_5">
      <g>
       <use xlink:href="#m4949ed421d" x="236.243287" y="307.584" style="stroke: #000000; stroke-width: 0.8"/>
      </g>
     </g>
     <g id="text_5">
      <!-- 1250 -->
      <g transform="translate(223.518287 322.182437)scale(0.1 -0.1)">
       <use xlink:href="#DejaVuSans-31"/>
       <use xlink:href="#DejaVuSans-32" x="63.623047"/>
       <use xlink:href="#DejaVuSans-35" x="127.246094"/>
       <use xlink:href="#DejaVuSans-30" x="190.869141"/>
      </g>
     </g>
    </g>
    <g id="xtick_6">
     <g id="line2d_6">
      <g>
       <use xlink:href="#m4949ed421d" x="277.887021" y="307.584" style="stroke: #000000; stroke-width: 0.8"/>
      </g>
     </g>
     <g id="text_6">
      <!-- 1500 -->
      <g transform="translate(265.162021 322.182437)scale(0.1 -0.1)">
       <use xlink:href="#DejaVuSans-31"/>
       <use xlink:href="#DejaVuSans-35" x="63.623047"/>
       <use xlink:href="#DejaVuSans-30" x="127.246094"/>
       <use xlink:href="#DejaVuSans-30" x="190.869141"/>
      </g>
     </g>
    </g>
    <g id="xtick_7">
     <g id="line2d_7">
      <g>
       <use xlink:href="#m4949ed421d" x="319.530754" y="307.584" style="stroke: #000000; stroke-width: 0.8"/>
      </g>
     </g>
     <g id="text_7">
      <!-- 1750 -->
      <g transform="translate(306.805754 322.182437)scale(0.1 -0.1)">
       <use xlink:href="#DejaVuSans-31"/>
       <use xlink:href="#DejaVuSans-37" x="63.623047"/>
       <use xlink:href="#DejaVuSans-35" x="127.246094"/>
       <use xlink:href="#DejaVuSans-30" x="190.869141"/>
      </g>
     </g>
    </g>
    <g id="xtick_8">
     <g id="line2d_8">
      <g>
       <use xlink:href="#m4949ed421d" x="361.174488" y="307.584" style="stroke: #000000; stroke-width: 0.8"/>
      </g>
     </g>
     <g id="text_8">
      <!-- 2000 -->
      <g transform="translate(348.449488 322.182437)scale(0.1 -0.1)">
       <use xlink:href="#DejaVuSans-32"/>
       <use xlink:href="#DejaVuSans-30" x="63.623047"/>
       <use xlink:href="#DejaVuSans-30" x="127.246094"/>
       <use xlink:href="#DejaVuSans-30" x="190.869141"/>
      </g>
     </g>
    </g>
    <g id="xtick_9">
     <g id="line2d_9">
      <g>
       <use xlink:href="#m4949ed421d" x="402.818221" y="307.584" style="stroke: #000000; stroke-width: 0.8"/>
      </g>
     </g>
     <g id="text_9">
      <!-- 2250 -->
      <g transform="translate(390.093221 322.182437)scale(0.1 -0.1)">
       <use xlink:href="#DejaVuSans-32"/>
       <use xlink:href="#DejaVuSans-32" x="63.623047"/>
       <use xlink:href="#DejaVuSans-35" x="127.246094"/>
       <use xlink:href="#DejaVuSans-30" x="190.869141"/>
      </g>
     </g>
    </g>
    <g id="text_10">
     <!-- Learned Episodes -->
     <g transform="translate(192.102187 335.860562)scale(0.1 -0.1)">
      <defs>
       <path id="DejaVuSans-4c" d="M 628 4666 
L 1259 4666 
L 1259 531 
L 3531 531 
L 3531 0 
L 628 0 
L 628 4666 
z
" transform="scale(0.015625)"/>
       <path id="DejaVuSans-65" d="M 3597 1894 
L 3597 1613 
L 953 1613 
Q 991 1019 1311 708 
Q 1631 397 2203 397 
Q 2534 397 2845 478 
Q 3156 559 3463 722 
L 3463 178 
Q 3153 47 2828 -22 
Q 2503 -91 2169 -91 
Q 1331 -91 842 396 
Q 353 884 353 1716 
Q 353 2575 817 3079 
Q 1281 3584 2069 3584 
Q 2775 3584 3186 3129 
Q 3597 2675 3597 1894 
z
M 3022 2063 
Q 3016 2534 2758 2815 
Q 2500 3097 2075 3097 
Q 1594 3097 1305 2825 
Q 1016 2553 972 2059 
L 3022 2063 
z
" transform="scale(0.015625)"/>
       <path id="DejaVuSans-61" d="M 2194 1759 
Q 1497 1759 1228 1600 
Q 959 1441 959 1056 
Q 959 750 1161 570 
Q 1363 391 1709 391 
Q 2188 391 2477 730 
Q 2766 1069 2766 1631 
L 2766 1759 
L 2194 1759 
z
M 3341 1997 
L 3341 0 
L 2766 0 
L 2766 531 
Q 2569 213 2275 61 
Q 1981 -91 1556 -91 
Q 1019 -91 701 211 
Q 384 513 384 1019 
Q 384 1609 779 1909 
Q 1175 2209 1959 2209 
L 2766 2209 
L 2766 2266 
Q 2766 2663 2505 2880 
Q 2244 3097 1772 3097 
Q 1472 3097 1187 3025 
Q 903 2953 641 2809 
L 641 3341 
Q 956 3463 1253 3523 
Q 1550 3584 1831 3584 
Q 2591 3584 2966 3190 
Q 3341 2797 3341 1997 
z
" transform="scale(0.015625)"/>
       <path id="DejaVuSans-72" d="M 2631 2963 
Q 2534 3019 2420 3045 
Q 2306 3072 2169 3072 
Q 1681 3072 1420 2755 
Q 1159 2438 1159 1844 
L 1159 0 
L 581 0 
L 581 3500 
L 1159 3500 
L 1159 2956 
Q 1341 3275 1631 3429 
Q 1922 3584 2338 3584 
Q 2397 3584 2469 3576 
Q 2541 3569 2628 3553 
L 2631 2963 
z
" transform="scale(0.015625)"/>
       <path id="DejaVuSans-6e" d="M 3513 2113 
L 3513 0 
L 2938 0 
L 2938 2094 
Q 2938 2591 2744 2837 
Q 2550 3084 2163 3084 
Q 1697 3084 1428 2787 
Q 1159 2491 1159 1978 
L 1159 0 
L 581 0 
L 581 3500 
L 1159 3500 
L 1159 2956 
Q 1366 3272 1645 3428 
Q 1925 3584 2291 3584 
Q 2894 3584 3203 3211 
Q 3513 2838 3513 2113 
z
" transform="scale(0.015625)"/>
       <path id="DejaVuSans-64" d="M 2906 2969 
L 2906 4863 
L 3481 4863 
L 3481 0 
L 2906 0 
L 2906 525 
Q 2725 213 2448 61 
Q 2172 -91 1784 -91 
Q 1150 -91 751 415 
Q 353 922 353 1747 
Q 353 2572 751 3078 
Q 1150 3584 1784 3584 
Q 2172 3584 2448 3432 
Q 2725 3281 2906 2969 
z
M 947 1747 
Q 947 1113 1208 752 
Q 1469 391 1925 391 
Q 2381 391 2643 752 
Q 2906 1113 2906 1747 
Q 2906 2381 2643 2742 
Q 2381 3103 1925 3103 
Q 1469 3103 1208 2742 
Q 947 2381 947 1747 
z
" transform="scale(0.015625)"/>
       <path id="DejaVuSans-20" transform="scale(0.015625)"/>
       <path id="DejaVuSans-45" d="M 628 4666 
L 3578 4666 
L 3578 4134 
L 1259 4134 
L 1259 2753 
L 3481 2753 
L 3481 2222 
L 1259 2222 
L 1259 531 
L 3634 531 
L 3634 0 
L 628 0 
L 628 4666 
z
" transform="scale(0.015625)"/>
       <path id="DejaVuSans-70" d="M 1159 525 
L 1159 -1331 
L 581 -1331 
L 581 3500 
L 1159 3500 
L 1159 2969 
Q 1341 3281 1617 3432 
Q 1894 3584 2278 3584 
Q 2916 3584 3314 3078 
Q 3713 2572 3713 1747 
Q 3713 922 3314 415 
Q 2916 -91 2278 -91 
Q 1894 -91 1617 61 
Q 1341 213 1159 525 
z
M 3116 1747 
Q 3116 2381 2855 2742 
Q 2594 3103 2138 3103 
Q 1681 3103 1420 2742 
Q 1159 2381 1159 1747 
Q 1159 1113 1420 752 
Q 1681 391 2138 391 
Q 2594 391 2855 752 
Q 3116 1113 3116 1747 
z
" transform="scale(0.015625)"/>
       <path id="DejaVuSans-69" d="M 603 3500 
L 1178 3500 
L 1178 0 
L 603 0 
L 603 3500 
z
M 603 4863 
L 1178 4863 
L 1178 4134 
L 603 4134 
L 603 4863 
z
" transform="scale(0.015625)"/>
       <path id="DejaVuSans-73" d="M 2834 3397 
L 2834 2853 
Q 2591 2978 2328 3040 
Q 2066 3103 1784 3103 
Q 1356 3103 1142 2972 
Q 928 2841 928 2578 
Q 928 2378 1081 2264 
Q 1234 2150 1697 2047 
L 1894 2003 
Q 2506 1872 2764 1633 
Q 3022 1394 3022 966 
Q 3022 478 2636 193 
Q 2250 -91 1575 -91 
Q 1294 -91 989 -36 
Q 684 19 347 128 
L 347 722 
Q 666 556 975 473 
Q 1284 391 1588 391 
Q 1994 391 2212 530 
Q 2431 669 2431 922 
Q 2431 1156 2273 1281 
Q 2116 1406 1581 1522 
L 1381 1569 
Q 847 1681 609 1914 
Q 372 2147 372 2553 
Q 372 3047 722 3315 
Q 1072 3584 1716 3584 
Q 2034 3584 2315 3537 
Q 2597 3491 2834 3397 
z
" transform="scale(0.015625)"/>
       <path id="DejaVuSans-6f" d="M 1959 3097 
Q 1497 3097 1228 2736 
Q 959 2375 959 1747 
Q 959 1119 1226 758 
Q 1494 397 1959 397 
Q 2419 397 2687 759 
Q 2956 1122 2956 1747 
Q 2956 2369 2687 2733 
Q 2419 3097 1959 3097 
z
M 1959 3584 
Q 2709 3584 3137 3096 
Q 3566 2609 3566 1747 
Q 3566 888 3137 398 
Q 2709 -91 1959 -91 
Q 1206 -91 779 398 
Q 353 888 353 1747 
Q 353 2609 779 3096 
Q 1206 3584 1959 3584 
z
" transform="scale(0.015625)"/>
      </defs>
      <use xlink:href="#DejaVuSans-4c"/>
      <use xlink:href="#DejaVuSans-65" x="53.962891"/>
      <use xlink:href="#DejaVuSans-61" x="115.486328"/>
      <use xlink:href="#DejaVuSans-72" x="176.765625"/>
      <use xlink:href="#DejaVuSans-6e" x="216.128906"/>
      <use xlink:href="#DejaVuSans-65" x="279.507812"/>
      <use xlink:href="#DejaVuSans-64" x="341.03125"/>
      <use xlink:href="#DejaVuSans-20" x="404.507812"/>
      <use xlink:href="#DejaVuSans-45" x="436.294922"/>
      <use xlink:href="#DejaVuSans-70" x="499.478516"/>
      <use xlink:href="#DejaVuSans-69" x="562.955078"/>
      <use xlink:href="#DejaVuSans-73" x="590.738281"/>
      <use xlink:href="#DejaVuSans-6f" x="642.837891"/>
      <use xlink:href="#DejaVuSans-64" x="704.019531"/>
      <use xlink:href="#DejaVuSans-65" x="767.496094"/>
      <use xlink:href="#DejaVuSans-73" x="829.019531"/>
     </g>
    </g>
   </g>
   <g id="matplotlib.axis_2">
    <g id="ytick_1">
     <g id="line2d_10">
      <defs>
       <path id="m47e45cbe6f" d="M 0 0 
L -3.5 0 
" style="stroke: #000000; stroke-width: 0.8"/>
      </defs>
      <g>
       <use xlink:href="#m47e45cbe6f" x="57.6" y="286.558067" style="stroke: #000000; stroke-width: 0.8"/>
      </g>
     </g>
     <g id="text_11">
      <!-- −400 -->
      <g transform="translate(23.132812 290.357286)scale(0.1 -0.1)">
       <defs>
        <path id="DejaVuSans-2212" d="M 678 2272 
L 4684 2272 
L 4684 1741 
L 678 1741 
L 678 2272 
z
" transform="scale(0.015625)"/>
        <path id="DejaVuSans-34" d="M 2419 4116 
L 825 1625 
L 2419 1625 
L 2419 4116 
z
M 2253 4666 
L 3047 4666 
L 3047 1625 
L 3713 1625 
L 3713 1100 
L 3047 1100 
L 3047 0 
L 2419 0 
L 2419 1100 
L 313 1100 
L 313 1709 
L 2253 4666 
z
" transform="scale(0.015625)"/>
       </defs>
       <use xlink:href="#DejaVuSans-2212"/>
       <use xlink:href="#DejaVuSans-34" x="83.789062"/>
       <use xlink:href="#DejaVuSans-30" x="147.412109"/>
       <use xlink:href="#DejaVuSans-30" x="211.035156"/>
      </g>
     </g>
    </g>
    <g id="ytick_2">
     <g id="line2d_11">
      <g>
       <use xlink:href="#m47e45cbe6f" x="57.6" y="255.334526" style="stroke: #000000; stroke-width: 0.8"/>
      </g>
     </g>
     <g id="text_12">
      <!-- −350 -->
      <g transform="translate(23.132812 259.133744)scale(0.1 -0.1)">
       <defs>
        <path id="DejaVuSans-33" d="M 2597 2516 
Q 3050 2419 3304 2112 
Q 3559 1806 3559 1356 
Q 3559 666 3084 287 
Q 2609 -91 1734 -91 
Q 1441 -91 1130 -33 
Q 819 25 488 141 
L 488 750 
Q 750 597 1062 519 
Q 1375 441 1716 441 
Q 2309 441 2620 675 
Q 2931 909 2931 1356 
Q 2931 1769 2642 2001 
Q 2353 2234 1838 2234 
L 1294 2234 
L 1294 2753 
L 1863 2753 
Q 2328 2753 2575 2939 
Q 2822 3125 2822 3475 
Q 2822 3834 2567 4026 
Q 2313 4219 1838 4219 
Q 1578 4219 1281 4162 
Q 984 4106 628 3988 
L 628 4550 
Q 988 4650 1302 4700 
Q 1616 4750 1894 4750 
Q 2613 4750 3031 4423 
Q 3450 4097 3450 3541 
Q 3450 3153 3228 2886 
Q 3006 2619 2597 2516 
z
" transform="scale(0.015625)"/>
       </defs>
       <use xlink:href="#DejaVuSans-2212"/>
       <use xlink:href="#DejaVuSans-33" x="83.789062"/>
       <use xlink:href="#DejaVuSans-35" x="147.412109"/>
       <use xlink:href="#DejaVuSans-30" x="211.035156"/>
      </g>
     </g>
    </g>
    <g id="ytick_3">
     <g id="line2d_12">
      <g>
       <use xlink:href="#m47e45cbe6f" x="57.6" y="224.110984" style="stroke: #000000; stroke-width: 0.8"/>
      </g>
     </g>
     <g id="text_13">
      <!-- −300 -->
      <g transform="translate(23.132812 227.910203)scale(0.1 -0.1)">
       <use xlink:href="#DejaVuSans-2212"/>
       <use xlink:href="#DejaVuSans-33" x="83.789062"/>
       <use xlink:href="#DejaVuSans-30" x="147.412109"/>
       <use xlink:href="#DejaVuSans-30" x="211.035156"/>
      </g>
     </g>
    </g>
    <g id="ytick_4">
     <g id="line2d_13">
      <g>
       <use xlink:href="#m47e45cbe6f" x="57.6" y="192.887442" style="stroke: #000000; stroke-width: 0.8"/>
      </g>
     </g>
     <g id="text_14">
      <!-- −250 -->
      <g transform="translate(23.132812 196.686661)scale(0.1 -0.1)">
       <use xlink:href="#DejaVuSans-2212"/>
       <use xlink:href="#DejaVuSans-32" x="83.789062"/>
       <use xlink:href="#DejaVuSans-35" x="147.412109"/>
       <use xlink:href="#DejaVuSans-30" x="211.035156"/>
      </g>
     </g>
    </g>
    <g id="ytick_5">
     <g id="line2d_14">
      <g>
       <use xlink:href="#m47e45cbe6f" x="57.6" y="161.663901" style="stroke: #000000; stroke-width: 0.8"/>
      </g>
     </g>
     <g id="text_15">
      <!-- −200 -->
      <g transform="translate(23.132812 165.46312)scale(0.1 -0.1)">
       <use xlink:href="#DejaVuSans-2212"/>
       <use xlink:href="#DejaVuSans-32" x="83.789062"/>
       <use xlink:href="#DejaVuSans-30" x="147.412109"/>
       <use xlink:href="#DejaVuSans-30" x="211.035156"/>
      </g>
     </g>
    </g>
    <g id="ytick_6">
     <g id="line2d_15">
      <g>
       <use xlink:href="#m47e45cbe6f" x="57.6" y="130.440359" style="stroke: #000000; stroke-width: 0.8"/>
      </g>
     </g>
     <g id="text_16">
      <!-- −150 -->
      <g transform="translate(23.132812 134.239578)scale(0.1 -0.1)">
       <use xlink:href="#DejaVuSans-2212"/>
       <use xlink:href="#DejaVuSans-31" x="83.789062"/>
       <use xlink:href="#DejaVuSans-35" x="147.412109"/>
       <use xlink:href="#DejaVuSans-30" x="211.035156"/>
      </g>
     </g>
    </g>
    <g id="ytick_7">
     <g id="line2d_16">
      <g>
       <use xlink:href="#m47e45cbe6f" x="57.6" y="99.216818" style="stroke: #000000; stroke-width: 0.8"/>
      </g>
     </g>
     <g id="text_17">
      <!-- −100 -->
      <g transform="translate(23.132812 103.016037)scale(0.1 -0.1)">
       <use xlink:href="#DejaVuSans-2212"/>
       <use xlink:href="#DejaVuSans-31" x="83.789062"/>
       <use xlink:href="#DejaVuSans-30" x="147.412109"/>
       <use xlink:href="#DejaVuSans-30" x="211.035156"/>
      </g>
     </g>
    </g>
    <g id="ytick_8">
     <g id="line2d_17">
      <g>
       <use xlink:href="#m47e45cbe6f" x="57.6" y="67.993276" style="stroke: #000000; stroke-width: 0.8"/>
      </g>
     </g>
     <g id="text_18">
      <!-- −50 -->
      <g transform="translate(29.495313 71.792495)scale(0.1 -0.1)">
       <use xlink:href="#DejaVuSans-2212"/>
       <use xlink:href="#DejaVuSans-35" x="83.789062"/>
       <use xlink:href="#DejaVuSans-30" x="147.412109"/>
      </g>
     </g>
    </g>
    <g id="text_19">
     <!-- Reward Density -->
     <g transform="translate(17.053125 213.74675)rotate(-90)scale(0.1 -0.1)">
      <defs>
       <path id="DejaVuSans-52" d="M 2841 2188 
Q 3044 2119 3236 1894 
Q 3428 1669 3622 1275 
L 4263 0 
L 3584 0 
L 2988 1197 
Q 2756 1666 2539 1819 
Q 2322 1972 1947 1972 
L 1259 1972 
L 1259 0 
L 628 0 
L 628 4666 
L 2053 4666 
Q 2853 4666 3247 4331 
Q 3641 3997 3641 3322 
Q 3641 2881 3436 2590 
Q 3231 2300 2841 2188 
z
M 1259 4147 
L 1259 2491 
L 2053 2491 
Q 2509 2491 2742 2702 
Q 2975 2913 2975 3322 
Q 2975 3731 2742 3939 
Q 2509 4147 2053 4147 
L 1259 4147 
z
" transform="scale(0.015625)"/>
       <path id="DejaVuSans-77" d="M 269 3500 
L 844 3500 
L 1563 769 
L 2278 3500 
L 2956 3500 
L 3675 769 
L 4391 3500 
L 4966 3500 
L 4050 0 
L 3372 0 
L 2619 2869 
L 1863 0 
L 1184 0 
L 269 3500 
z
" transform="scale(0.015625)"/>
       <path id="DejaVuSans-44" d="M 1259 4147 
L 1259 519 
L 2022 519 
Q 2988 519 3436 956 
Q 3884 1394 3884 2338 
Q 3884 3275 3436 3711 
Q 2988 4147 2022 4147 
L 1259 4147 
z
M 628 4666 
L 1925 4666 
Q 3281 4666 3915 4102 
Q 4550 3538 4550 2338 
Q 4550 1131 3912 565 
Q 3275 0 1925 0 
L 628 0 
L 628 4666 
z
" transform="scale(0.015625)"/>
       <path id="DejaVuSans-74" d="M 1172 4494 
L 1172 3500 
L 2356 3500 
L 2356 3053 
L 1172 3053 
L 1172 1153 
Q 1172 725 1289 603 
Q 1406 481 1766 481 
L 2356 481 
L 2356 0 
L 1766 0 
Q 1100 0 847 248 
Q 594 497 594 1153 
L 594 3053 
L 172 3053 
L 172 3500 
L 594 3500 
L 594 4494 
L 1172 4494 
z
" transform="scale(0.015625)"/>
       <path id="DejaVuSans-79" d="M 2059 -325 
Q 1816 -950 1584 -1140 
Q 1353 -1331 966 -1331 
L 506 -1331 
L 506 -850 
L 844 -850 
Q 1081 -850 1212 -737 
Q 1344 -625 1503 -206 
L 1606 56 
L 191 3500 
L 800 3500 
L 1894 763 
L 2988 3500 
L 3597 3500 
L 2059 -325 
z
" transform="scale(0.015625)"/>
      </defs>
      <use xlink:href="#DejaVuSans-52"/>
      <use xlink:href="#DejaVuSans-65" x="64.982422"/>
      <use xlink:href="#DejaVuSans-77" x="126.505859"/>
      <use xlink:href="#DejaVuSans-61" x="208.292969"/>
      <use xlink:href="#DejaVuSans-72" x="269.572266"/>
      <use xlink:href="#DejaVuSans-64" x="308.935547"/>
      <use xlink:href="#DejaVuSans-20" x="372.412109"/>
      <use xlink:href="#DejaVuSans-44" x="404.199219"/>
      <use xlink:href="#DejaVuSans-65" x="481.201172"/>
      <use xlink:href="#DejaVuSans-6e" x="542.724609"/>
      <use xlink:href="#DejaVuSans-73" x="606.103516"/>
      <use xlink:href="#DejaVuSans-69" x="658.203125"/>
      <use xlink:href="#DejaVuSans-74" x="685.986328"/>
      <use xlink:href="#DejaVuSans-79" x="725.195312"/>
     </g>
    </g>
   </g>
   <g id="LineCollection_1">
    <path d="M 92.572407 86.857791 
L 130.051767 86.857791 
" clip-path="url(#p014598ef6b)" style="fill: none; stroke: #1f77b4; stroke-width: 1.5"/>
    <path d="M 175.859874 88.455187 
L 213.339234 88.455187 
" clip-path="url(#p014598ef6b)" style="fill: none; stroke: #1f77b4; stroke-width: 1.5"/>
    <path d="M 259.147341 88.742194 
L 296.626701 88.742194 
" clip-path="url(#p014598ef6b)" style="fill: none; stroke: #1f77b4; stroke-width: 1.5"/>
    <path d="M 342.268233 92.612914 
L 379.747593 92.612914 
" clip-path="url(#p014598ef6b)" style="fill: none; stroke: #1f77b4; stroke-width: 1.5"/>
   </g>
   <g id="LineCollection_2">
    <path d="M 92.572407 53.568 
L 130.051767 53.568 
" clip-path="url(#p014598ef6b)" style="fill: none; stroke: #1f77b4; stroke-width: 1.5"/>
    <path d="M 175.859874 57.502166 
L 213.339234 57.502166 
" clip-path="url(#p014598ef6b)" style="fill: none; stroke: #1f77b4; stroke-width: 1.5"/>
    <path d="M 259.147341 57.564613 
L 296.626701 57.564613 
" clip-path="url(#p014598ef6b)" style="fill: none; stroke: #1f77b4; stroke-width: 1.5"/>
    <path d="M 342.268233 55.254071 
L 379.747593 55.254071 
" clip-path="url(#p014598ef6b)" style="fill: none; stroke: #1f77b4; stroke-width: 1.5"/>
   </g>
   <g id="LineCollection_3">
    <path d="M 92.572407 282.873689 
L 130.051767 282.873689 
" clip-path="url(#p014598ef6b)" style="fill: none; stroke: #1f77b4; stroke-width: 1.5"/>
    <path d="M 175.859874 295.488 
L 213.339234 295.488 
" clip-path="url(#p014598ef6b)" style="fill: none; stroke: #1f77b4; stroke-width: 1.5"/>
    <path d="M 259.147341 260.392739 
L 296.626701 260.392739 
" clip-path="url(#p014598ef6b)" style="fill: none; stroke: #1f77b4; stroke-width: 1.5"/>
    <path d="M 342.268233 269.884696 
L 379.747593 269.884696 
" clip-path="url(#p014598ef6b)" style="fill: none; stroke: #1f77b4; stroke-width: 1.5"/>
   </g>
   <g id="LineCollection_4">
    <path d="M 111.312087 282.873689 
L 111.312087 53.568 
" clip-path="url(#p014598ef6b)" style="fill: none; stroke: #1f77b4; stroke-width: 1.5"/>
    <path d="M 194.599554 295.488 
L 194.599554 57.502166 
" clip-path="url(#p014598ef6b)" style="fill: none; stroke: #1f77b4; stroke-width: 1.5"/>
    <path d="M 277.887021 260.392739 
L 277.887021 57.564613 
" clip-path="url(#p014598ef6b)" style="fill: none; stroke: #1f77b4; stroke-width: 1.5"/>
    <path d="M 361.007913 269.884696 
L 361.007913 55.254071 
" clip-path="url(#p014598ef6b)" style="fill: none; stroke: #1f77b4; stroke-width: 1.5"/>
   </g>
   <g id="line2d_18">
    <path d="M 111.312087 86.857791 
L 194.599554 88.455187 
L 277.887021 88.742194 
L 361.007913 92.612914 
" clip-path="url(#p014598ef6b)" style="fill: none; stroke: #4682b4; stroke-width: 1.5; stroke-linecap: square"/>
   </g>
   <g id="patch_3">
    <path d="M 57.6 307.584 
L 57.6 41.472 
" style="fill: none; stroke: #000000; stroke-width: 0.8; stroke-linejoin: miter; stroke-linecap: square"/>
   </g>
   <g id="patch_4">
    <path d="M 414.72 307.584 
L 414.72 41.472 
" style="fill: none; stroke: #000000; stroke-width: 0.8; stroke-linejoin: miter; stroke-linecap: square"/>
   </g>
   <g id="patch_5">
    <path d="M 57.6 307.584 
L 414.72 307.584 
" style="fill: none; stroke: #000000; stroke-width: 0.8; stroke-linejoin: miter; stroke-linecap: square"/>
   </g>
   <g id="patch_6">
    <path d="M 57.6 41.472 
L 414.72 41.472 
" style="fill: none; stroke: #000000; stroke-width: 0.8; stroke-linejoin: miter; stroke-linecap: square"/>
   </g>
   <g id="text_20">
    <!-- Violinplot for progress of profits/storage_cost -->
    <g transform="translate(101.32875 35.472)scale(0.12 -0.12)">
     <defs>
      <path id="DejaVuSans-56" d="M 1831 0 
L 50 4666 
L 709 4666 
L 2188 738 
L 3669 4666 
L 4325 4666 
L 2547 0 
L 1831 0 
z
" transform="scale(0.015625)"/>
      <path id="DejaVuSans-6c" d="M 603 4863 
L 1178 4863 
L 1178 0 
L 603 0 
L 603 4863 
z
" transform="scale(0.015625)"/>
      <path id="DejaVuSans-66" d="M 2375 4863 
L 2375 4384 
L 1825 4384 
Q 1516 4384 1395 4259 
Q 1275 4134 1275 3809 
L 1275 3500 
L 2222 3500 
L 2222 3053 
L 1275 3053 
L 1275 0 
L 697 0 
L 697 3053 
L 147 3053 
L 147 3500 
L 697 3500 
L 697 3744 
Q 697 4328 969 4595 
Q 1241 4863 1831 4863 
L 2375 4863 
z
" transform="scale(0.015625)"/>
      <path id="DejaVuSans-67" d="M 2906 1791 
Q 2906 2416 2648 2759 
Q 2391 3103 1925 3103 
Q 1463 3103 1205 2759 
Q 947 2416 947 1791 
Q 947 1169 1205 825 
Q 1463 481 1925 481 
Q 2391 481 2648 825 
Q 2906 1169 2906 1791 
z
M 3481 434 
Q 3481 -459 3084 -895 
Q 2688 -1331 1869 -1331 
Q 1566 -1331 1297 -1286 
Q 1028 -1241 775 -1147 
L 775 -588 
Q 1028 -725 1275 -790 
Q 1522 -856 1778 -856 
Q 2344 -856 2625 -561 
Q 2906 -266 2906 331 
L 2906 616 
Q 2728 306 2450 153 
Q 2172 0 1784 0 
Q 1141 0 747 490 
Q 353 981 353 1791 
Q 353 2603 747 3093 
Q 1141 3584 1784 3584 
Q 2172 3584 2450 3431 
Q 2728 3278 2906 2969 
L 2906 3500 
L 3481 3500 
L 3481 434 
z
" transform="scale(0.015625)"/>
      <path id="DejaVuSans-2f" d="M 1625 4666 
L 2156 4666 
L 531 -594 
L 0 -594 
L 1625 4666 
z
" transform="scale(0.015625)"/>
      <path id="DejaVuSans-5f" d="M 3263 -1063 
L 3263 -1509 
L -63 -1509 
L -63 -1063 
L 3263 -1063 
z
" transform="scale(0.015625)"/>
      <path id="DejaVuSans-63" d="M 3122 3366 
L 3122 2828 
Q 2878 2963 2633 3030 
Q 2388 3097 2138 3097 
Q 1578 3097 1268 2742 
Q 959 2388 959 1747 
Q 959 1106 1268 751 
Q 1578 397 2138 397 
Q 2388 397 2633 464 
Q 2878 531 3122 666 
L 3122 134 
Q 2881 22 2623 -34 
Q 2366 -91 2075 -91 
Q 1284 -91 818 406 
Q 353 903 353 1747 
Q 353 2603 823 3093 
Q 1294 3584 2113 3584 
Q 2378 3584 2631 3529 
Q 2884 3475 3122 3366 
z
" transform="scale(0.015625)"/>
     </defs>
     <use xlink:href="#DejaVuSans-56"/>
     <use xlink:href="#DejaVuSans-69" x="66.158203"/>
     <use xlink:href="#DejaVuSans-6f" x="93.941406"/>
     <use xlink:href="#DejaVuSans-6c" x="155.123047"/>
     <use xlink:href="#DejaVuSans-69" x="182.90625"/>
     <use xlink:href="#DejaVuSans-6e" x="210.689453"/>
     <use xlink:href="#DejaVuSans-70" x="274.068359"/>
     <use xlink:href="#DejaVuSans-6c" x="337.544922"/>
     <use xlink:href="#DejaVuSans-6f" x="365.328125"/>
     <use xlink:href="#DejaVuSans-74" x="426.509766"/>
     <use xlink:href="#DejaVuSans-20" x="465.71875"/>
     <use xlink:href="#DejaVuSans-66" x="497.505859"/>
     <use xlink:href="#DejaVuSans-6f" x="532.710938"/>
     <use xlink:href="#DejaVuSans-72" x="593.892578"/>
     <use xlink:href="#DejaVuSans-20" x="635.005859"/>
     <use xlink:href="#DejaVuSans-70" x="666.792969"/>
     <use xlink:href="#DejaVuSans-72" x="730.269531"/>
     <use xlink:href="#DejaVuSans-6f" x="769.132812"/>
     <use xlink:href="#DejaVuSans-67" x="830.314453"/>
     <use xlink:href="#DejaVuSans-72" x="893.791016"/>
     <use xlink:href="#DejaVuSans-65" x="932.654297"/>
     <use xlink:href="#DejaVuSans-73" x="994.177734"/>
     <use xlink:href="#DejaVuSans-73" x="1046.277344"/>
     <use xlink:href="#DejaVuSans-20" x="1098.376953"/>
     <use xlink:href="#DejaVuSans-6f" x="1130.164062"/>
     <use xlink:href="#DejaVuSans-66" x="1191.345703"/>
     <use xlink:href="#DejaVuSans-20" x="1226.550781"/>
     <use xlink:href="#DejaVuSans-70" x="1258.337891"/>
     <use xlink:href="#DejaVuSans-72" x="1321.814453"/>
     <use xlink:href="#DejaVuSans-6f" x="1360.677734"/>
     <use xlink:href="#DejaVuSans-66" x="1421.859375"/>
     <use xlink:href="#DejaVuSans-69" x="1457.064453"/>
     <use xlink:href="#DejaVuSans-74" x="1484.847656"/>
     <use xlink:href="#DejaVuSans-73" x="1524.056641"/>
     <use xlink:href="#DejaVuSans-2f" x="1576.15625"/>
     <use xlink:href="#DejaVuSans-73" x="1609.847656"/>
     <use xlink:href="#DejaVuSans-74" x="1661.947266"/>
     <use xlink:href="#DejaVuSans-6f" x="1701.15625"/>
     <use xlink:href="#DejaVuSans-72" x="1762.337891"/>
     <use xlink:href="#DejaVuSans-61" x="1803.451172"/>
     <use xlink:href="#DejaVuSans-67" x="1864.730469"/>
     <use xlink:href="#DejaVuSans-65" x="1928.207031"/>
     <use xlink:href="#DejaVuSans-5f" x="1989.730469"/>
     <use xlink:href="#DejaVuSans-63" x="2039.730469"/>
     <use xlink:href="#DejaVuSans-6f" x="2094.710938"/>
     <use xlink:href="#DejaVuSans-73" x="2155.892578"/>
     <use xlink:href="#DejaVuSans-74" x="2207.992188"/>
    </g>
   </g>
   <g id="legend_1">
    <g id="patch_7">
     <path d="M 284.430938 64.150125 
L 407.72 64.150125 
Q 409.72 64.150125 409.72 62.150125 
L 409.72 48.472 
Q 409.72 46.472 407.72 46.472 
L 284.430938 46.472 
Q 282.430938 46.472 282.430938 48.472 
L 282.430938 62.150125 
Q 282.430938 64.150125 284.430938 64.150125 
z
" style="fill: #ffffff; opacity: 0.8; stroke: #cccccc; stroke-linejoin: miter"/>
    </g>
    <g id="line2d_19">
     <path d="M 286.430938 54.570438 
L 296.430938 54.570438 
L 306.430938 54.570438 
" style="fill: none; stroke: #4682b4; stroke-width: 1.5; stroke-linecap: square"/>
    </g>
    <g id="text_21">
     <!-- Storage-Minimizer -->
     <g transform="translate(314.430938 58.070438)scale(0.1 -0.1)">
      <defs>
       <path id="DejaVuSans-53" d="M 3425 4513 
L 3425 3897 
Q 3066 4069 2747 4153 
Q 2428 4238 2131 4238 
Q 1616 4238 1336 4038 
Q 1056 3838 1056 3469 
Q 1056 3159 1242 3001 
Q 1428 2844 1947 2747 
L 2328 2669 
Q 3034 2534 3370 2195 
Q 3706 1856 3706 1288 
Q 3706 609 3251 259 
Q 2797 -91 1919 -91 
Q 1588 -91 1214 -16 
Q 841 59 441 206 
L 441 856 
Q 825 641 1194 531 
Q 1563 422 1919 422 
Q 2459 422 2753 634 
Q 3047 847 3047 1241 
Q 3047 1584 2836 1778 
Q 2625 1972 2144 2069 
L 1759 2144 
Q 1053 2284 737 2584 
Q 422 2884 422 3419 
Q 422 4038 858 4394 
Q 1294 4750 2059 4750 
Q 2388 4750 2728 4690 
Q 3069 4631 3425 4513 
z
" transform="scale(0.015625)"/>
       <path id="DejaVuSans-2d" d="M 313 2009 
L 1997 2009 
L 1997 1497 
L 313 1497 
L 313 2009 
z
" transform="scale(0.015625)"/>
       <path id="DejaVuSans-4d" d="M 628 4666 
L 1569 4666 
L 2759 1491 
L 3956 4666 
L 4897 4666 
L 4897 0 
L 4281 0 
L 4281 4097 
L 3078 897 
L 2444 897 
L 1241 4097 
L 1241 0 
L 628 0 
L 628 4666 
z
" transform="scale(0.015625)"/>
       <path id="DejaVuSans-6d" d="M 3328 2828 
Q 3544 3216 3844 3400 
Q 4144 3584 4550 3584 
Q 5097 3584 5394 3201 
Q 5691 2819 5691 2113 
L 5691 0 
L 5113 0 
L 5113 2094 
Q 5113 2597 4934 2840 
Q 4756 3084 4391 3084 
Q 3944 3084 3684 2787 
Q 3425 2491 3425 1978 
L 3425 0 
L 2847 0 
L 2847 2094 
Q 2847 2600 2669 2842 
Q 2491 3084 2119 3084 
Q 1678 3084 1418 2786 
Q 1159 2488 1159 1978 
L 1159 0 
L 581 0 
L 581 3500 
L 1159 3500 
L 1159 2956 
Q 1356 3278 1631 3431 
Q 1906 3584 2284 3584 
Q 2666 3584 2933 3390 
Q 3200 3197 3328 2828 
z
" transform="scale(0.015625)"/>
       <path id="DejaVuSans-7a" d="M 353 3500 
L 3084 3500 
L 3084 2975 
L 922 459 
L 3084 459 
L 3084 0 
L 275 0 
L 275 525 
L 2438 3041 
L 353 3041 
L 353 3500 
z
" transform="scale(0.015625)"/>
      </defs>
      <use xlink:href="#DejaVuSans-53"/>
      <use xlink:href="#DejaVuSans-74" x="63.476562"/>
      <use xlink:href="#DejaVuSans-6f" x="102.685547"/>
      <use xlink:href="#DejaVuSans-72" x="163.867188"/>
      <use xlink:href="#DejaVuSans-61" x="204.980469"/>
      <use xlink:href="#DejaVuSans-67" x="266.259766"/>
      <use xlink:href="#DejaVuSans-65" x="329.736328"/>
      <use xlink:href="#DejaVuSans-2d" x="391.259766"/>
      <use xlink:href="#DejaVuSans-4d" x="427.34375"/>
      <use xlink:href="#DejaVuSans-69" x="513.623047"/>
      <use xlink:href="#DejaVuSans-6e" x="541.40625"/>
      <use xlink:href="#DejaVuSans-69" x="604.785156"/>
      <use xlink:href="#DejaVuSans-6d" x="632.568359"/>
      <use xlink:href="#DejaVuSans-69" x="729.980469"/>
      <use xlink:href="#DejaVuSans-7a" x="757.763672"/>
      <use xlink:href="#DejaVuSans-65" x="810.253906"/>
      <use xlink:href="#DejaVuSans-72" x="871.777344"/>
     </g>
    </g>
   </g>
  </g>
 </g>
 <defs>
  <clipPath id="p014598ef6b">
   <rect x="57.6" y="41.472" width="357.12" height="266.112"/>
  </clipPath>
 </defs>
</svg>
