<?xml version="1.0" encoding="utf-8" standalone="no"?>
<!DOCTYPE svg PUBLIC "-//W3C//DTD SVG 1.1//EN"
  "http://www.w3.org/Graphics/SVG/1.1/DTD/svg11.dtd">
<svg xmlns:xlink="http://www.w3.org/1999/xlink" width="460.8pt" height="345.6pt" viewBox="0 0 460.8 345.6" xmlns="http://www.w3.org/2000/svg" version="1.1">
 <metadata>
  <rdf:RDF xmlns:dc="http://purl.org/dc/elements/1.1/" xmlns:cc="http://creativecommons.org/ns#" xmlns:rdf="http://www.w3.org/1999/02/22-rdf-syntax-ns#">
   <cc:Work>
    <dc:type rdf:resource="http://purl.org/dc/dcmitype/StillImage"/>
    <dc:date>2022-06-20T17:59:09.086797</dc:date>
    <dc:format>image/svg+xml</dc:format>
    <dc:creator>
     <cc:Agent>
      <dc:title>Matplotlib v3.5.2, https://matplotlib.org/</dc:title>
     </cc:Agent>
    </dc:creator>
   </cc:Work>
  </rdf:RDF>
 </metadata>
 <defs>
  <style type="text/css">*{stroke-linejoin: round; stroke-linecap: butt}</style>
 </defs>
 <g id="figure_1">
  <g id="patch_1">
   <path d="M 0 345.6 
L 460.8 345.6 
L 460.8 0 
L 0 0 
z
" style="fill: #ffffff"/>
  </g>
  <g id="axes_1">
   <g id="patch_2">
    <path d="M 57.6 307.584 
L 414.72 307.584 
L 414.72 41.472 
L 57.6 41.472 
z
" style="fill: #ffffff"/>
   </g>
   <g id="PolyCollection_1">
    <path d="M 112.992597 182.662738 
L 103.021183 182.662738 
L 102.064486 181.358751 
L 101.037275 180.054764 
L 99.942113 178.750776 
L 98.783001 177.446789 
L 97.569226 176.142802 
L 96.318701 174.838815 
L 95.059286 173.534827 
L 93.827133 172.23084 
L 92.662091 170.926853 
L 91.601245 169.622865 
L 90.672374 168.318878 
L 89.889137 167.014891 
L 89.249259 165.710904 
L 88.735998 164.406916 
L 88.322203 163.102929 
L 87.975641 161.798942 
L 87.66417 160.494955 
L 87.35969 159.190967 
L 87.04048 157.88698 
L 86.692055 156.582993 
L 86.30702 155.279006 
L 85.884358 153.975018 
L 85.428331 152.671031 
L 84.946966 151.367044 
L 84.449956 150.063057 
L 83.946031 148.759069 
L 83.440137 147.455082 
L 82.931116 146.151095 
L 82.410721 144.847108 
L 81.864638 143.54312 
L 81.275691 142.239133 
L 80.628753 140.935146 
L 79.916195 139.631159 
L 79.142316 138.327171 
L 78.325232 137.023184 
L 77.495318 135.719197 
L 76.69029 134.41521 
L 75.948202 133.111222 
L 75.300467 131.807235 
L 74.767162 130.503248 
L 74.356152 129.199261 
L 74.066184 127.895273 
L 73.892522 126.591286 
L 73.832727 125.287299 
L 73.890145 123.983312 
L 74.073723 122.679324 
L 74.39446 121.375337 
L 74.860321 120.07135 
L 75.472137 118.767363 
L 76.222597 117.463375 
L 77.099011 116.159388 
L 78.088826 114.855401 
L 79.18561 113.551414 
L 80.39288 112.247426 
L 81.723945 110.943439 
L 83.19741 109.639452 
L 84.829581 108.335465 
L 86.626098 107.031477 
L 88.575346 105.72749 
L 90.64558 104.423503 
L 92.786519 103.119516 
L 94.9349 101.815528 
L 97.022557 100.511541 
L 98.98509 99.207554 
L 100.769367 97.903567 
L 102.338553 96.599579 
L 103.674127 95.295592 
L 104.775026 93.991605 
L 105.654605 92.687618 
L 106.336377 91.38363 
L 106.849501 90.079643 
L 107.224783 88.775656 
L 107.491647 87.471669 
L 107.676202 86.167681 
L 107.800315 84.863694 
L 107.881434 83.559707 
L 107.932913 82.25572 
L 107.964592 80.951732 
L 107.98346 79.647745 
L 107.994299 78.343758 
L 108.000254 77.039771 
L 108.003291 75.735783 
L 108.004543 74.431796 
L 108.004558 73.127809 
L 108.003455 71.823822 
L 108.001019 70.519834 
L 107.996751 69.215847 
L 107.989927 67.91186 
L 107.979674 66.607873 
L 107.965121 65.303885 
L 107.945603 63.999898 
L 107.920927 62.695911 
L 107.891634 61.391924 
L 107.859175 60.087936 
L 107.825925 58.783949 
L 107.794971 57.479962 
L 107.76967 56.175975 
L 107.753061 54.871987 
L 107.74727 53.568 
L 108.26651 53.568 
L 108.26651 53.568 
L 108.260719 54.871987 
L 108.24411 56.175975 
L 108.218809 57.479962 
L 108.187855 58.783949 
L 108.154605 60.087936 
L 108.122146 61.391924 
L 108.092853 62.695911 
L 108.068177 63.999898 
L 108.048659 65.303885 
L 108.034106 66.607873 
L 108.023853 67.91186 
L 108.017029 69.215847 
L 108.012761 70.519834 
L 108.010325 71.823822 
L 108.009222 73.127809 
L 108.009237 74.431796 
L 108.010489 75.735783 
L 108.013525 77.039771 
L 108.019481 78.343758 
L 108.03032 79.647745 
L 108.049188 80.951732 
L 108.080867 82.25572 
L 108.132346 83.559707 
L 108.213465 84.863694 
L 108.337578 86.167681 
L 108.522133 87.471669 
L 108.788997 88.775656 
L 109.164279 90.079643 
L 109.677403 91.38363 
L 110.359175 92.687618 
L 111.238754 93.991605 
L 112.339653 95.295592 
L 113.675227 96.599579 
L 115.244413 97.903567 
L 117.02869 99.207554 
L 118.991223 100.511541 
L 121.07888 101.815528 
L 123.227261 103.119516 
L 125.3682 104.423503 
L 127.438434 105.72749 
L 129.387682 107.031477 
L 131.184199 108.335465 
L 132.81637 109.639452 
L 134.289835 110.943439 
L 135.6209 112.247426 
L 136.82817 113.551414 
L 137.924954 114.855401 
L 138.914769 116.159388 
L 139.791182 117.463375 
L 140.541643 118.767363 
L 141.153459 120.07135 
L 141.61932 121.375337 
L 141.940057 122.679324 
L 142.123635 123.983312 
L 142.181053 125.287299 
L 142.121258 126.591286 
L 141.947596 127.895273 
L 141.657628 129.199261 
L 141.246618 130.503248 
L 140.713313 131.807235 
L 140.065578 133.111222 
L 139.32349 134.41521 
L 138.518462 135.719197 
L 137.688548 137.023184 
L 136.871464 138.327171 
L 136.097585 139.631159 
L 135.385027 140.935146 
L 134.738089 142.239133 
L 134.149142 143.54312 
L 133.603059 144.847108 
L 133.082664 146.151095 
L 132.573643 147.455082 
L 132.067749 148.759069 
L 131.563824 150.063057 
L 131.066814 151.367044 
L 130.585449 152.671031 
L 130.129422 153.975018 
L 129.70676 155.279006 
L 129.321725 156.582993 
L 128.9733 157.88698 
L 128.65409 159.190967 
L 128.34961 160.494955 
L 128.038139 161.798942 
L 127.691577 163.102929 
L 127.277782 164.406916 
L 126.764521 165.710904 
L 126.124643 167.014891 
L 125.341406 168.318878 
L 124.412535 169.622865 
L 123.351689 170.926853 
L 122.186646 172.23084 
L 120.954494 173.534827 
L 119.695079 174.838815 
L 118.444554 176.142802 
L 117.230779 177.446789 
L 116.071667 178.750776 
L 114.976505 180.054764 
L 113.949294 181.358751 
L 112.992597 182.662738 
z
" clip-path="url(#p3042bf2719)" style="fill: #1f77b4; fill-opacity: 0.3"/>
   </g>
   <g id="PolyCollection_2">
    <path d="M 195.59568 293.318448 
L 191.288914 293.318448 
L 190.891284 291.724413 
L 190.45492 290.130379 
L 189.97338 288.536344 
L 189.438278 286.942309 
L 188.840701 285.348274 
L 188.172986 283.754239 
L 187.430424 282.160204 
L 186.612444 280.566169 
L 185.722968 278.972134 
L 184.769836 277.3781 
L 183.763483 275.784065 
L 182.715246 274.19003 
L 181.635835 272.595995 
L 180.534414 271.00196 
L 179.418573 269.407925 
L 178.295083 267.81389 
L 177.171005 266.219855 
L 176.054473 264.62582 
L 174.954493 263.031786 
L 173.879418 261.437751 
L 172.834278 259.843716 
L 171.817789 258.249681 
L 170.820229 256.655646 
L 169.823473 255.061611 
L 168.803995 253.467576 
L 167.738821 251.873541 
L 166.613353 250.279506 
L 165.429132 248.685472 
L 164.209153 247.091437 
L 162.998681 245.497402 
L 161.860502 243.903367 
L 160.865004 242.309332 
L 160.077028 240.715297 
L 159.542527 239.121262 
L 159.278388 237.527227 
L 159.268134 235.933193 
L 159.464813 234.339158 
L 159.800555 232.745123 
L 160.200614 231.151088 
L 160.598588 229.557053 
L 160.949304 227.963018 
L 161.236492 226.368983 
L 161.473725 224.774948 
L 161.698724 223.180913 
L 161.962672 221.586879 
L 162.317265 219.992844 
L 162.802606 218.398809 
L 163.438679 216.804774 
L 164.222156 215.210739 
L 165.128848 213.616704 
L 166.120732 212.022669 
L 167.155345 210.428634 
L 168.194952 208.8346 
L 169.21312 207.240565 
L 170.197298 205.64653 
L 171.147239 204.052495 
L 172.070298 202.45846 
L 172.97544 200.864425 
L 173.867931 199.27039 
L 174.74629 197.676355 
L 175.602184 196.08232 
L 176.423019 194.488286 
L 177.196185 192.894251 
L 177.913544 191.300216 
L 178.574827 189.706181 
L 179.189002 188.112146 
L 179.773357 186.518111 
L 180.350599 184.924076 
L 180.944766 183.330041 
L 181.576929 181.736006 
L 182.261609 180.141972 
L 183.004574 178.547937 
L 183.802324 176.953902 
L 184.643174 175.359867 
L 185.509543 173.765832 
L 186.380875 172.171797 
L 187.236537 170.577762 
L 188.058184 168.983727 
L 188.831239 167.389693 
L 189.545428 165.795658 
L 190.194491 164.201623 
L 190.775412 162.607588 
L 191.287494 161.013553 
L 191.73157 159.419518 
L 192.10952 157.825483 
L 192.424065 156.231448 
L 192.678769 154.637413 
L 192.878081 153.043379 
L 193.027326 151.449344 
L 193.132583 149.855309 
L 193.200474 148.261274 
L 193.237923 146.667239 
L 193.251913 145.073204 
L 193.249288 143.479169 
L 193.236548 141.885134 
L 193.219641 140.291099 
L 193.203709 138.697065 
L 193.192812 137.10303 
L 193.189684 135.508995 
L 193.694909 135.508995 
L 193.694909 135.508995 
L 193.691781 137.10303 
L 193.680884 138.697065 
L 193.664952 140.291099 
L 193.648046 141.885134 
L 193.635306 143.479169 
L 193.63268 145.073204 
L 193.64667 146.667239 
L 193.684119 148.261274 
L 193.75201 149.855309 
L 193.857267 151.449344 
L 194.006512 153.043379 
L 194.205824 154.637413 
L 194.460528 156.231448 
L 194.775073 157.825483 
L 195.153023 159.419518 
L 195.5971 161.013553 
L 196.109181 162.607588 
L 196.690103 164.201623 
L 197.339166 165.795658 
L 198.053354 167.389693 
L 198.82641 168.983727 
L 199.648056 170.577762 
L 200.503718 172.171797 
L 201.37505 173.765832 
L 202.24142 175.359867 
L 203.082269 176.953902 
L 203.880019 178.547937 
L 204.622984 180.141972 
L 205.307664 181.736006 
L 205.939828 183.330041 
L 206.533995 184.924076 
L 207.111236 186.518111 
L 207.695591 188.112146 
L 208.309766 189.706181 
L 208.971049 191.300216 
L 209.688409 192.894251 
L 210.461574 194.488286 
L 211.282409 196.08232 
L 212.138303 197.676355 
L 213.016662 199.27039 
L 213.909153 200.864425 
L 214.814295 202.45846 
L 215.737355 204.052495 
L 216.687295 205.64653 
L 217.671473 207.240565 
L 218.689641 208.8346 
L 219.729248 210.428634 
L 220.763862 212.022669 
L 221.755745 213.616704 
L 222.662438 215.210739 
L 223.445914 216.804774 
L 224.081987 218.398809 
L 224.567328 219.992844 
L 224.921922 221.586879 
L 225.185869 223.180913 
L 225.410868 224.774948 
L 225.648101 226.368983 
L 225.935289 227.963018 
L 226.286005 229.557053 
L 226.68398 231.151088 
L 227.084038 232.745123 
L 227.419781 234.339158 
L 227.616459 235.933193 
L 227.606205 237.527227 
L 227.342066 239.121262 
L 226.807565 240.715297 
L 226.019589 242.309332 
L 225.024091 243.903367 
L 223.885913 245.497402 
L 222.675441 247.091437 
L 221.455461 248.685472 
L 220.27124 250.279506 
L 219.145773 251.873541 
L 218.080598 253.467576 
L 217.06112 255.061611 
L 216.064364 256.655646 
L 215.066804 258.249681 
L 214.050315 259.843716 
L 213.005176 261.437751 
L 211.9301 263.031786 
L 210.830121 264.62582 
L 209.713589 266.219855 
L 208.589511 267.81389 
L 207.466021 269.407925 
L 206.350179 271.00196 
L 205.248758 272.595995 
L 204.169347 274.19003 
L 203.121111 275.784065 
L 202.114757 277.3781 
L 201.161626 278.972134 
L 200.272149 280.566169 
L 199.45417 282.160204 
L 198.711608 283.754239 
L 198.043892 285.348274 
L 197.446315 286.942309 
L 196.911213 288.536344 
L 196.429673 290.130379 
L 195.99331 291.724413 
L 195.59568 293.318448 
z
" clip-path="url(#p3042bf2719)" style="fill: #1f77b4; fill-opacity: 0.3"/>
   </g>
   <g id="PolyCollection_3">
    <path d="M 281.568754 295.488 
L 276.186652 295.488 
L 275.523742 294.228595 
L 274.7583 292.96919 
L 273.889486 291.709786 
L 272.919881 290.450381 
L 271.855577 289.190976 
L 270.705889 287.931571 
L 269.482673 286.672166 
L 268.199269 285.412762 
L 266.869172 284.153357 
L 265.504642 282.893952 
L 264.115482 281.634547 
L 262.708279 280.375143 
L 261.286344 279.115738 
L 259.850475 277.856333 
L 258.400528 276.596928 
L 256.937554 275.337523 
L 255.466105 274.078119 
L 253.996225 272.818714 
L 252.544614 271.559309 
L 251.134646 270.299904 
L 249.795113 269.040499 
L 248.557865 267.781095 
L 247.454743 266.52169 
L 246.514352 265.262285 
L 245.759215 264.00288 
L 245.203728 262.743475 
L 244.85314 261.484071 
L 244.703541 260.224666 
L 244.742684 258.965261 
L 244.951352 257.705856 
L 245.305013 256.446452 
L 245.775567 255.187047 
L 246.333097 253.927642 
L 246.947636 252.668237 
L 247.590948 251.408832 
L 248.23829 250.149428 
L 248.87004 248.890023 
L 249.472958 247.630618 
L 250.040844 246.371213 
L 250.574374 245.111808 
L 251.080051 243.852404 
L 251.568406 242.592999 
L 252.051728 241.333594 
L 252.541769 240.074189 
L 253.04783 238.814784 
L 253.57557 237.55538 
L 254.126677 236.295975 
L 254.69936 235.03657 
L 255.289436 233.777165 
L 255.891718 232.517761 
L 256.501407 231.258356 
L 257.115227 229.998951 
L 257.732168 228.739546 
L 258.35375 227.480141 
L 258.983813 226.220737 
L 259.627869 224.961332 
L 260.292087 223.701927 
L 260.982027 222.442522 
L 261.70127 221.183117 
L 262.450164 219.923713 
L 263.224883 218.664308 
L 264.017033 217.404903 
L 264.813941 216.145498 
L 265.599673 214.886093 
L 266.356691 213.626689 
L 267.067921 212.367284 
L 267.718921 211.107879 
L 268.299788 209.848474 
L 268.806481 208.58907 
L 269.241351 207.329665 
L 269.612783 206.07026 
L 269.934054 204.810855 
L 270.221593 203.55145 
L 270.492958 202.292046 
L 270.764831 201.032641 
L 271.0513 199.773236 
L 271.362645 198.513831 
L 271.704692 197.254426 
L 272.078754 195.995022 
L 272.482072 194.735617 
L 272.90862 193.476212 
L 273.35013 192.216807 
L 273.797174 190.957402 
L 274.240187 189.697998 
L 274.670322 188.438593 
L 275.080099 187.179188 
L 275.463811 185.919783 
L 275.817714 184.660379 
L 276.140019 183.400974 
L 276.430731 182.141569 
L 276.691365 180.882164 
L 276.924581 179.622759 
L 277.133769 178.363355 
L 277.322621 177.10395 
L 277.494724 175.844545 
L 277.653223 174.58514 
L 277.800566 173.325735 
L 277.938382 172.066331 
L 278.067471 170.806926 
L 279.687936 170.806926 
L 279.687936 170.806926 
L 279.817024 172.066331 
L 279.95484 173.325735 
L 280.102184 174.58514 
L 280.260682 175.844545 
L 280.432786 177.10395 
L 280.621638 178.363355 
L 280.830826 179.622759 
L 281.064042 180.882164 
L 281.324676 182.141569 
L 281.615388 183.400974 
L 281.937693 184.660379 
L 282.291595 185.919783 
L 282.675308 187.179188 
L 283.085085 188.438593 
L 283.51522 189.697998 
L 283.958233 190.957402 
L 284.405277 192.216807 
L 284.846787 193.476212 
L 285.273335 194.735617 
L 285.676653 195.995022 
L 286.050715 197.254426 
L 286.392762 198.513831 
L 286.704107 199.773236 
L 286.990576 201.032641 
L 287.262448 202.292046 
L 287.533814 203.55145 
L 287.821353 204.810855 
L 288.142624 206.07026 
L 288.514056 207.329665 
L 288.948926 208.58907 
L 289.455619 209.848474 
L 290.036486 211.107879 
L 290.687486 212.367284 
L 291.398716 213.626689 
L 292.155734 214.886093 
L 292.941466 216.145498 
L 293.738374 217.404903 
L 294.530524 218.664308 
L 295.305243 219.923713 
L 296.054137 221.183117 
L 296.77338 222.442522 
L 297.463319 223.701927 
L 298.127538 224.961332 
L 298.771594 226.220737 
L 299.401657 227.480141 
L 300.023239 228.739546 
L 300.64018 229.998951 
L 301.254 231.258356 
L 301.863689 232.517761 
L 302.465971 233.777165 
L 303.056047 235.03657 
L 303.62873 236.295975 
L 304.179837 237.55538 
L 304.707577 238.814784 
L 305.213637 240.074189 
L 305.703679 241.333594 
L 306.187001 242.592999 
L 306.675355 243.852404 
L 307.181033 245.111808 
L 307.714562 246.371213 
L 308.282449 247.630618 
L 308.885367 248.890023 
L 309.517116 250.149428 
L 310.164458 251.408832 
L 310.80777 252.668237 
L 311.42231 253.927642 
L 311.97984 255.187047 
L 312.450393 256.446452 
L 312.804055 257.705856 
L 313.012723 258.965261 
L 313.051866 260.224666 
L 312.902267 261.484071 
L 312.551679 262.743475 
L 311.996192 264.00288 
L 311.241055 265.262285 
L 310.300664 266.52169 
L 309.197542 267.781095 
L 307.960293 269.040499 
L 306.620761 270.299904 
L 305.210793 271.559309 
L 303.759182 272.818714 
L 302.289302 274.078119 
L 300.817853 275.337523 
L 299.354879 276.596928 
L 297.904932 277.856333 
L 296.469063 279.115738 
L 295.047128 280.375143 
L 293.639925 281.634547 
L 292.250764 282.893952 
L 290.886235 284.153357 
L 289.556138 285.412762 
L 288.272733 286.672166 
L 287.049518 287.931571 
L 285.89983 289.190976 
L 284.835525 290.450381 
L 283.865921 291.709786 
L 282.997107 292.96919 
L 282.231665 294.228595 
L 281.568754 295.488 
z
" clip-path="url(#p3042bf2719)" style="fill: #1f77b4; fill-opacity: 0.3"/>
   </g>
   <g id="PolyCollection_4">
    <path d="M 367.429836 293.79465 
L 361.196384 293.79465 
L 360.444079 292.616183 
L 359.577986 291.437717 
L 358.596428 290.25925 
L 357.500607 289.080783 
L 356.29464 287.902317 
L 354.985464 286.72385 
L 353.582648 285.545383 
L 352.09815 284.366916 
L 350.546083 283.18845 
L 348.942497 282.009983 
L 347.305202 280.831516 
L 345.653584 279.653049 
L 344.008355 278.474583 
L 342.391166 277.296116 
L 340.823993 276.117649 
L 339.328247 274.939183 
L 337.923656 273.760716 
L 336.626996 272.582249 
L 335.450893 271.403782 
L 334.402933 270.225316 
L 333.48532 269.046849 
L 332.695271 267.868382 
L 332.026149 266.689915 
L 331.469197 265.511449 
L 331.015548 264.332982 
L 330.658092 263.154515 
L 330.392766 261.976049 
L 330.218962 260.797582 
L 330.138947 259.619115 
L 330.156413 258.440648 
L 330.274517 257.262182 
L 330.493892 256.083715 
L 330.811111 254.905248 
L 331.217984 253.726781 
L 331.701861 252.548315 
L 332.24685 251.369848 
L 332.835654 250.191381 
L 333.451597 249.012914 
L 334.080351 247.834448 
L 334.711006 246.655981 
L 335.336286 245.477514 
L 335.951922 244.299048 
L 336.555438 243.120581 
L 337.144709 241.942114 
L 337.716713 240.763647 
L 338.266846 239.585181 
L 338.788996 238.406714 
L 339.276414 237.228247 
L 339.723212 236.04978 
L 340.126173 234.871314 
L 340.486489 233.692847 
L 340.811024 232.51438 
L 341.112796 231.335914 
L 341.410487 230.157447 
L 341.726966 228.97898 
L 342.08697 227.800513 
L 342.514273 226.622047 
L 343.028719 225.44358 
L 343.643596 224.265113 
L 344.363741 223.086646 
L 345.184658 221.90818 
L 346.092778 220.729713 
L 347.066809 219.551246 
L 348.079927 218.37278 
L 349.102511 217.194313 
L 350.10502 216.015846 
L 351.060688 214.837379 
L 351.947737 213.658913 
L 352.750944 212.480446 
L 353.462461 211.301979 
L 354.081882 210.123512 
L 354.61561 208.945046 
L 355.075618 207.766579 
L 355.477751 206.588112 
L 355.839752 205.409645 
L 356.179211 204.231179 
L 356.511689 203.052712 
L 356.849221 201.874245 
L 357.199375 200.695779 
L 357.564972 199.517312 
L 357.944457 198.338845 
L 358.332819 197.160378 
L 358.722868 195.981912 
L 359.106636 194.803445 
L 359.476677 193.624978 
L 359.827072 192.446511 
L 360.154043 191.268045 
L 360.456137 190.089578 
L 360.734058 188.911111 
L 360.990223 187.732645 
L 361.228185 186.554178 
L 361.452025 185.375711 
L 361.665795 184.197244 
L 361.873069 183.018778 
L 362.07661 181.840311 
L 362.278168 180.661844 
L 362.478391 179.483377 
L 362.676836 178.304911 
L 362.872094 177.126444 
L 365.754126 177.126444 
L 365.754126 177.126444 
L 365.949384 178.304911 
L 366.14783 179.483377 
L 366.348052 180.661844 
L 366.54961 181.840311 
L 366.753151 183.018778 
L 366.960425 184.197244 
L 367.174195 185.375711 
L 367.398035 186.554178 
L 367.635997 187.732645 
L 367.892162 188.911111 
L 368.170083 190.089578 
L 368.472177 191.268045 
L 368.799148 192.446511 
L 369.149543 193.624978 
L 369.519584 194.803445 
L 369.903352 195.981912 
L 370.293401 197.160378 
L 370.681763 198.338845 
L 371.061248 199.517312 
L 371.426845 200.695779 
L 371.776999 201.874245 
L 372.114531 203.052712 
L 372.44701 204.231179 
L 372.786468 205.409645 
L 373.148469 206.588112 
L 373.550602 207.766579 
L 374.01061 208.945046 
L 374.544338 210.123512 
L 375.163759 211.301979 
L 375.875276 212.480446 
L 376.678483 213.658913 
L 377.565532 214.837379 
L 378.5212 216.015846 
L 379.52371 217.194313 
L 380.546293 218.37278 
L 381.559411 219.551246 
L 382.533442 220.729713 
L 383.441563 221.90818 
L 384.262479 223.086646 
L 384.982624 224.265113 
L 385.597501 225.44358 
L 386.111947 226.622047 
L 386.53925 227.800513 
L 386.899255 228.97898 
L 387.215733 230.157447 
L 387.513424 231.335914 
L 387.815196 232.51438 
L 388.139731 233.692847 
L 388.500047 234.871314 
L 388.903008 236.04978 
L 389.349806 237.228247 
L 389.837224 238.406714 
L 390.359374 239.585181 
L 390.909507 240.763647 
L 391.481512 241.942114 
L 392.070782 243.120581 
L 392.674298 244.299048 
L 393.289934 245.477514 
L 393.915214 246.655981 
L 394.54587 247.834448 
L 395.174623 249.012914 
L 395.790566 250.191381 
L 396.37937 251.369848 
L 396.924359 252.548315 
L 397.408236 253.726781 
L 397.815109 254.905248 
L 398.132328 256.083715 
L 398.351703 257.262182 
L 398.469807 258.440648 
L 398.487273 259.619115 
L 398.407258 260.797582 
L 398.233454 261.976049 
L 397.968128 263.154515 
L 397.610672 264.332982 
L 397.157024 265.511449 
L 396.600071 266.689915 
L 395.930949 267.868382 
L 395.1409 269.046849 
L 394.223287 270.225316 
L 393.175327 271.403782 
L 391.999224 272.582249 
L 390.702564 273.760716 
L 389.297973 274.939183 
L 387.802228 276.117649 
L 386.235054 277.296116 
L 384.617866 278.474583 
L 382.972636 279.653049 
L 381.321018 280.831516 
L 379.683723 282.009983 
L 378.080138 283.18845 
L 376.52807 284.366916 
L 375.043572 285.545383 
L 373.640756 286.72385 
L 372.331581 287.902317 
L 371.125613 289.080783 
L 370.029792 290.25925 
L 369.048234 291.437717 
L 368.182141 292.616183 
L 367.429836 293.79465 
z
" clip-path="url(#p3042bf2719)" style="fill: #1f77b4; fill-opacity: 0.3"/>
   </g>
   <g id="matplotlib.axis_1">
    <g id="xtick_1">
     <g id="line2d_1">
      <path d="M 65.289187 307.584 
L 65.289187 41.472 
" clip-path="url(#p3042bf2719)" style="fill: none; stroke-dasharray: 2.96,1.28; stroke-dashoffset: 0; stroke: #b0b0b0; stroke-width: 0.8"/>
     </g>
     <g id="line2d_2">
      <defs>
       <path id="m177ab20bee" d="M 0 0 
L 0 3.5 
" style="stroke: #000000; stroke-width: 0.8"/>
      </defs>
      <g>
       <use xlink:href="#m177ab20bee" x="65.289187" y="307.584" style="stroke: #000000; stroke-width: 0.8"/>
      </g>
     </g>
     <g id="text_1">
      <!-- 250 -->
      <g transform="translate(55.745437 322.182437)scale(0.1 -0.1)">
       <defs>
        <path id="DejaVuSans-32" d="M 1228 531 
L 3431 531 
L 3431 0 
L 469 0 
L 469 531 
Q 828 903 1448 1529 
Q 2069 2156 2228 2338 
Q 2531 2678 2651 2914 
Q 2772 3150 2772 3378 
Q 2772 3750 2511 3984 
Q 2250 4219 1831 4219 
Q 1534 4219 1204 4116 
Q 875 4013 500 3803 
L 500 4441 
Q 881 4594 1212 4672 
Q 1544 4750 1819 4750 
Q 2544 4750 2975 4387 
Q 3406 4025 3406 3419 
Q 3406 3131 3298 2873 
Q 3191 2616 2906 2266 
Q 2828 2175 2409 1742 
Q 1991 1309 1228 531 
z
" transform="scale(0.015625)"/>
        <path id="DejaVuSans-35" d="M 691 4666 
L 3169 4666 
L 3169 4134 
L 1269 4134 
L 1269 2991 
Q 1406 3038 1543 3061 
Q 1681 3084 1819 3084 
Q 2600 3084 3056 2656 
Q 3513 2228 3513 1497 
Q 3513 744 3044 326 
Q 2575 -91 1722 -91 
Q 1428 -91 1123 -41 
Q 819 9 494 109 
L 494 744 
Q 775 591 1075 516 
Q 1375 441 1709 441 
Q 2250 441 2565 725 
Q 2881 1009 2881 1497 
Q 2881 1984 2565 2268 
Q 2250 2553 1709 2553 
Q 1456 2553 1204 2497 
Q 953 2441 691 2322 
L 691 4666 
z
" transform="scale(0.015625)"/>
        <path id="DejaVuSans-30" d="M 2034 4250 
Q 1547 4250 1301 3770 
Q 1056 3291 1056 2328 
Q 1056 1369 1301 889 
Q 1547 409 2034 409 
Q 2525 409 2770 889 
Q 3016 1369 3016 2328 
Q 3016 3291 2770 3770 
Q 2525 4250 2034 4250 
z
M 2034 4750 
Q 2819 4750 3233 4129 
Q 3647 3509 3647 2328 
Q 3647 1150 3233 529 
Q 2819 -91 2034 -91 
Q 1250 -91 836 529 
Q 422 1150 422 2328 
Q 422 3509 836 4129 
Q 1250 4750 2034 4750 
z
" transform="scale(0.015625)"/>
       </defs>
       <use xlink:href="#DejaVuSans-32"/>
       <use xlink:href="#DejaVuSans-35" x="63.623047"/>
       <use xlink:href="#DejaVuSans-30" x="127.246094"/>
      </g>
     </g>
    </g>
    <g id="xtick_2">
     <g id="line2d_3">
      <path d="M 108.00689 307.584 
L 108.00689 41.472 
" clip-path="url(#p3042bf2719)" style="fill: none; stroke-dasharray: 2.96,1.28; stroke-dashoffset: 0; stroke: #b0b0b0; stroke-width: 0.8"/>
     </g>
     <g id="line2d_4">
      <g>
       <use xlink:href="#m177ab20bee" x="108.00689" y="307.584" style="stroke: #000000; stroke-width: 0.8"/>
      </g>
     </g>
     <g id="text_2">
      <!-- 500 -->
      <g transform="translate(98.46314 322.182437)scale(0.1 -0.1)">
       <use xlink:href="#DejaVuSans-35"/>
       <use xlink:href="#DejaVuSans-30" x="63.623047"/>
       <use xlink:href="#DejaVuSans-30" x="127.246094"/>
      </g>
     </g>
    </g>
    <g id="xtick_3">
     <g id="line2d_5">
      <path d="M 150.724593 307.584 
L 150.724593 41.472 
" clip-path="url(#p3042bf2719)" style="fill: none; stroke-dasharray: 2.96,1.28; stroke-dashoffset: 0; stroke: #b0b0b0; stroke-width: 0.8"/>
     </g>
     <g id="line2d_6">
      <g>
       <use xlink:href="#m177ab20bee" x="150.724593" y="307.584" style="stroke: #000000; stroke-width: 0.8"/>
      </g>
     </g>
     <g id="text_3">
      <!-- 750 -->
      <g transform="translate(141.180843 322.182437)scale(0.1 -0.1)">
       <defs>
        <path id="DejaVuSans-37" d="M 525 4666 
L 3525 4666 
L 3525 4397 
L 1831 0 
L 1172 0 
L 2766 4134 
L 525 4134 
L 525 4666 
z
" transform="scale(0.015625)"/>
       </defs>
       <use xlink:href="#DejaVuSans-37"/>
       <use xlink:href="#DejaVuSans-35" x="63.623047"/>
       <use xlink:href="#DejaVuSans-30" x="127.246094"/>
      </g>
     </g>
    </g>
    <g id="xtick_4">
     <g id="line2d_7">
      <path d="M 193.442297 307.584 
L 193.442297 41.472 
" clip-path="url(#p3042bf2719)" style="fill: none; stroke-dasharray: 2.96,1.28; stroke-dashoffset: 0; stroke: #b0b0b0; stroke-width: 0.8"/>
     </g>
     <g id="line2d_8">
      <g>
       <use xlink:href="#m177ab20bee" x="193.442297" y="307.584" style="stroke: #000000; stroke-width: 0.8"/>
      </g>
     </g>
     <g id="text_4">
      <!-- 1000 -->
      <g transform="translate(180.717297 322.182437)scale(0.1 -0.1)">
       <defs>
        <path id="DejaVuSans-31" d="M 794 531 
L 1825 531 
L 1825 4091 
L 703 3866 
L 703 4441 
L 1819 4666 
L 2450 4666 
L 2450 531 
L 3481 531 
L 3481 0 
L 794 0 
L 794 531 
z
" transform="scale(0.015625)"/>
       </defs>
       <use xlink:href="#DejaVuSans-31"/>
       <use xlink:href="#DejaVuSans-30" x="63.623047"/>
       <use xlink:href="#DejaVuSans-30" x="127.246094"/>
       <use xlink:href="#DejaVuSans-30" x="190.869141"/>
      </g>
     </g>
    </g>
    <g id="xtick_5">
     <g id="line2d_9">
      <path d="M 236.16 307.584 
L 236.16 41.472 
" clip-path="url(#p3042bf2719)" style="fill: none; stroke-dasharray: 2.96,1.28; stroke-dashoffset: 0; stroke: #b0b0b0; stroke-width: 0.8"/>
     </g>
     <g id="line2d_10">
      <g>
       <use xlink:href="#m177ab20bee" x="236.16" y="307.584" style="stroke: #000000; stroke-width: 0.8"/>
      </g>
     </g>
     <g id="text_5">
      <!-- 1250 -->
      <g transform="translate(223.435 322.182437)scale(0.1 -0.1)">
       <use xlink:href="#DejaVuSans-31"/>
       <use xlink:href="#DejaVuSans-32" x="63.623047"/>
       <use xlink:href="#DejaVuSans-35" x="127.246094"/>
       <use xlink:href="#DejaVuSans-30" x="190.869141"/>
      </g>
     </g>
    </g>
    <g id="xtick_6">
     <g id="line2d_11">
      <path d="M 278.877703 307.584 
L 278.877703 41.472 
" clip-path="url(#p3042bf2719)" style="fill: none; stroke-dasharray: 2.96,1.28; stroke-dashoffset: 0; stroke: #b0b0b0; stroke-width: 0.8"/>
     </g>
     <g id="line2d_12">
      <g>
       <use xlink:href="#m177ab20bee" x="278.877703" y="307.584" style="stroke: #000000; stroke-width: 0.8"/>
      </g>
     </g>
     <g id="text_6">
      <!-- 1500 -->
      <g transform="translate(266.152703 322.182437)scale(0.1 -0.1)">
       <use xlink:href="#DejaVuSans-31"/>
       <use xlink:href="#DejaVuSans-35" x="63.623047"/>
       <use xlink:href="#DejaVuSans-30" x="127.246094"/>
       <use xlink:href="#DejaVuSans-30" x="190.869141"/>
      </g>
     </g>
    </g>
    <g id="xtick_7">
     <g id="line2d_13">
      <path d="M 321.595407 307.584 
L 321.595407 41.472 
" clip-path="url(#p3042bf2719)" style="fill: none; stroke-dasharray: 2.96,1.28; stroke-dashoffset: 0; stroke: #b0b0b0; stroke-width: 0.8"/>
     </g>
     <g id="line2d_14">
      <g>
       <use xlink:href="#m177ab20bee" x="321.595407" y="307.584" style="stroke: #000000; stroke-width: 0.8"/>
      </g>
     </g>
     <g id="text_7">
      <!-- 1750 -->
      <g transform="translate(308.870407 322.182437)scale(0.1 -0.1)">
       <use xlink:href="#DejaVuSans-31"/>
       <use xlink:href="#DejaVuSans-37" x="63.623047"/>
       <use xlink:href="#DejaVuSans-35" x="127.246094"/>
       <use xlink:href="#DejaVuSans-30" x="190.869141"/>
      </g>
     </g>
    </g>
    <g id="xtick_8">
     <g id="line2d_15">
      <path d="M 364.31311 307.584 
L 364.31311 41.472 
" clip-path="url(#p3042bf2719)" style="fill: none; stroke-dasharray: 2.96,1.28; stroke-dashoffset: 0; stroke: #b0b0b0; stroke-width: 0.8"/>
     </g>
     <g id="line2d_16">
      <g>
       <use xlink:href="#m177ab20bee" x="364.31311" y="307.584" style="stroke: #000000; stroke-width: 0.8"/>
      </g>
     </g>
     <g id="text_8">
      <!-- 2000 -->
      <g transform="translate(351.58811 322.182437)scale(0.1 -0.1)">
       <use xlink:href="#DejaVuSans-32"/>
       <use xlink:href="#DejaVuSans-30" x="63.623047"/>
       <use xlink:href="#DejaVuSans-30" x="127.246094"/>
       <use xlink:href="#DejaVuSans-30" x="190.869141"/>
      </g>
     </g>
    </g>
    <g id="xtick_9">
     <g id="line2d_17">
      <path d="M 407.030813 307.584 
L 407.030813 41.472 
" clip-path="url(#p3042bf2719)" style="fill: none; stroke-dasharray: 2.96,1.28; stroke-dashoffset: 0; stroke: #b0b0b0; stroke-width: 0.8"/>
     </g>
     <g id="line2d_18">
      <g>
       <use xlink:href="#m177ab20bee" x="407.030813" y="307.584" style="stroke: #000000; stroke-width: 0.8"/>
      </g>
     </g>
     <g id="text_9">
      <!-- 2250 -->
      <g transform="translate(394.305813 322.182437)scale(0.1 -0.1)">
       <use xlink:href="#DejaVuSans-32"/>
       <use xlink:href="#DejaVuSans-32" x="63.623047"/>
       <use xlink:href="#DejaVuSans-35" x="127.246094"/>
       <use xlink:href="#DejaVuSans-30" x="190.869141"/>
      </g>
     </g>
    </g>
    <g id="text_10">
     <!-- Learned Episodes -->
     <g transform="translate(192.102187 335.860562)scale(0.1 -0.1)">
      <defs>
       <path id="DejaVuSans-4c" d="M 628 4666 
L 1259 4666 
L 1259 531 
L 3531 531 
L 3531 0 
L 628 0 
L 628 4666 
z
" transform="scale(0.015625)"/>
       <path id="DejaVuSans-65" d="M 3597 1894 
L 3597 1613 
L 953 1613 
Q 991 1019 1311 708 
Q 1631 397 2203 397 
Q 2534 397 2845 478 
Q 3156 559 3463 722 
L 3463 178 
Q 3153 47 2828 -22 
Q 2503 -91 2169 -91 
Q 1331 -91 842 396 
Q 353 884 353 1716 
Q 353 2575 817 3079 
Q 1281 3584 2069 3584 
Q 2775 3584 3186 3129 
Q 3597 2675 3597 1894 
z
M 3022 2063 
Q 3016 2534 2758 2815 
Q 2500 3097 2075 3097 
Q 1594 3097 1305 2825 
Q 1016 2553 972 2059 
L 3022 2063 
z
" transform="scale(0.015625)"/>
       <path id="DejaVuSans-61" d="M 2194 1759 
Q 1497 1759 1228 1600 
Q 959 1441 959 1056 
Q 959 750 1161 570 
Q 1363 391 1709 391 
Q 2188 391 2477 730 
Q 2766 1069 2766 1631 
L 2766 1759 
L 2194 1759 
z
M 3341 1997 
L 3341 0 
L 2766 0 
L 2766 531 
Q 2569 213 2275 61 
Q 1981 -91 1556 -91 
Q 1019 -91 701 211 
Q 384 513 384 1019 
Q 384 1609 779 1909 
Q 1175 2209 1959 2209 
L 2766 2209 
L 2766 2266 
Q 2766 2663 2505 2880 
Q 2244 3097 1772 3097 
Q 1472 3097 1187 3025 
Q 903 2953 641 2809 
L 641 3341 
Q 956 3463 1253 3523 
Q 1550 3584 1831 3584 
Q 2591 3584 2966 3190 
Q 3341 2797 3341 1997 
z
" transform="scale(0.015625)"/>
       <path id="DejaVuSans-72" d="M 2631 2963 
Q 2534 3019 2420 3045 
Q 2306 3072 2169 3072 
Q 1681 3072 1420 2755 
Q 1159 2438 1159 1844 
L 1159 0 
L 581 0 
L 581 3500 
L 1159 3500 
L 1159 2956 
Q 1341 3275 1631 3429 
Q 1922 3584 2338 3584 
Q 2397 3584 2469 3576 
Q 2541 3569 2628 3553 
L 2631 2963 
z
" transform="scale(0.015625)"/>
       <path id="DejaVuSans-6e" d="M 3513 2113 
L 3513 0 
L 2938 0 
L 2938 2094 
Q 2938 2591 2744 2837 
Q 2550 3084 2163 3084 
Q 1697 3084 1428 2787 
Q 1159 2491 1159 1978 
L 1159 0 
L 581 0 
L 581 3500 
L 1159 3500 
L 1159 2956 
Q 1366 3272 1645 3428 
Q 1925 3584 2291 3584 
Q 2894 3584 3203 3211 
Q 3513 2838 3513 2113 
z
" transform="scale(0.015625)"/>
       <path id="DejaVuSans-64" d="M 2906 2969 
L 2906 4863 
L 3481 4863 
L 3481 0 
L 2906 0 
L 2906 525 
Q 2725 213 2448 61 
Q 2172 -91 1784 -91 
Q 1150 -91 751 415 
Q 353 922 353 1747 
Q 353 2572 751 3078 
Q 1150 3584 1784 3584 
Q 2172 3584 2448 3432 
Q 2725 3281 2906 2969 
z
M 947 1747 
Q 947 1113 1208 752 
Q 1469 391 1925 391 
Q 2381 391 2643 752 
Q 2906 1113 2906 1747 
Q 2906 2381 2643 2742 
Q 2381 3103 1925 3103 
Q 1469 3103 1208 2742 
Q 947 2381 947 1747 
z
" transform="scale(0.015625)"/>
       <path id="DejaVuSans-20" transform="scale(0.015625)"/>
       <path id="DejaVuSans-45" d="M 628 4666 
L 3578 4666 
L 3578 4134 
L 1259 4134 
L 1259 2753 
L 3481 2753 
L 3481 2222 
L 1259 2222 
L 1259 531 
L 3634 531 
L 3634 0 
L 628 0 
L 628 4666 
z
" transform="scale(0.015625)"/>
       <path id="DejaVuSans-70" d="M 1159 525 
L 1159 -1331 
L 581 -1331 
L 581 3500 
L 1159 3500 
L 1159 2969 
Q 1341 3281 1617 3432 
Q 1894 3584 2278 3584 
Q 2916 3584 3314 3078 
Q 3713 2572 3713 1747 
Q 3713 922 3314 415 
Q 2916 -91 2278 -91 
Q 1894 -91 1617 61 
Q 1341 213 1159 525 
z
M 3116 1747 
Q 3116 2381 2855 2742 
Q 2594 3103 2138 3103 
Q 1681 3103 1420 2742 
Q 1159 2381 1159 1747 
Q 1159 1113 1420 752 
Q 1681 391 2138 391 
Q 2594 391 2855 752 
Q 3116 1113 3116 1747 
z
" transform="scale(0.015625)"/>
       <path id="DejaVuSans-69" d="M 603 3500 
L 1178 3500 
L 1178 0 
L 603 0 
L 603 3500 
z
M 603 4863 
L 1178 4863 
L 1178 4134 
L 603 4134 
L 603 4863 
z
" transform="scale(0.015625)"/>
       <path id="DejaVuSans-73" d="M 2834 3397 
L 2834 2853 
Q 2591 2978 2328 3040 
Q 2066 3103 1784 3103 
Q 1356 3103 1142 2972 
Q 928 2841 928 2578 
Q 928 2378 1081 2264 
Q 1234 2150 1697 2047 
L 1894 2003 
Q 2506 1872 2764 1633 
Q 3022 1394 3022 966 
Q 3022 478 2636 193 
Q 2250 -91 1575 -91 
Q 1294 -91 989 -36 
Q 684 19 347 128 
L 347 722 
Q 666 556 975 473 
Q 1284 391 1588 391 
Q 1994 391 2212 530 
Q 2431 669 2431 922 
Q 2431 1156 2273 1281 
Q 2116 1406 1581 1522 
L 1381 1569 
Q 847 1681 609 1914 
Q 372 2147 372 2553 
Q 372 3047 722 3315 
Q 1072 3584 1716 3584 
Q 2034 3584 2315 3537 
Q 2597 3491 2834 3397 
z
" transform="scale(0.015625)"/>
       <path id="DejaVuSans-6f" d="M 1959 3097 
Q 1497 3097 1228 2736 
Q 959 2375 959 1747 
Q 959 1119 1226 758 
Q 1494 397 1959 397 
Q 2419 397 2687 759 
Q 2956 1122 2956 1747 
Q 2956 2369 2687 2733 
Q 2419 3097 1959 3097 
z
M 1959 3584 
Q 2709 3584 3137 3096 
Q 3566 2609 3566 1747 
Q 3566 888 3137 398 
Q 2709 -91 1959 -91 
Q 1206 -91 779 398 
Q 353 888 353 1747 
Q 353 2609 779 3096 
Q 1206 3584 1959 3584 
z
" transform="scale(0.015625)"/>
      </defs>
      <use xlink:href="#DejaVuSans-4c"/>
      <use xlink:href="#DejaVuSans-65" x="53.962891"/>
      <use xlink:href="#DejaVuSans-61" x="115.486328"/>
      <use xlink:href="#DejaVuSans-72" x="176.765625"/>
      <use xlink:href="#DejaVuSans-6e" x="216.128906"/>
      <use xlink:href="#DejaVuSans-65" x="279.507812"/>
      <use xlink:href="#DejaVuSans-64" x="341.03125"/>
      <use xlink:href="#DejaVuSans-20" x="404.507812"/>
      <use xlink:href="#DejaVuSans-45" x="436.294922"/>
      <use xlink:href="#DejaVuSans-70" x="499.478516"/>
      <use xlink:href="#DejaVuSans-69" x="562.955078"/>
      <use xlink:href="#DejaVuSans-73" x="590.738281"/>
      <use xlink:href="#DejaVuSans-6f" x="642.837891"/>
      <use xlink:href="#DejaVuSans-64" x="704.019531"/>
      <use xlink:href="#DejaVuSans-65" x="767.496094"/>
      <use xlink:href="#DejaVuSans-73" x="829.019531"/>
     </g>
    </g>
   </g>
   <g id="matplotlib.axis_2">
    <g id="ytick_1">
     <g id="line2d_19">
      <path d="M 57.6 266.241297 
L 414.72 266.241297 
" clip-path="url(#p3042bf2719)" style="fill: none; stroke-dasharray: 2.96,1.28; stroke-dashoffset: 0; stroke: #b0b0b0; stroke-width: 0.8"/>
     </g>
     <g id="line2d_20">
      <defs>
       <path id="me027cb4891" d="M 0 0 
L -3.5 0 
" style="stroke: #000000; stroke-width: 0.8"/>
      </defs>
      <g>
       <use xlink:href="#me027cb4891" x="57.6" y="266.241297" style="stroke: #000000; stroke-width: 0.8"/>
      </g>
     </g>
     <g id="text_11">
      <!-- 6 -->
      <g transform="translate(44.2375 270.040516)scale(0.1 -0.1)">
       <defs>
        <path id="DejaVuSans-36" d="M 2113 2584 
Q 1688 2584 1439 2293 
Q 1191 2003 1191 1497 
Q 1191 994 1439 701 
Q 1688 409 2113 409 
Q 2538 409 2786 701 
Q 3034 994 3034 1497 
Q 3034 2003 2786 2293 
Q 2538 2584 2113 2584 
z
M 3366 4563 
L 3366 3988 
Q 3128 4100 2886 4159 
Q 2644 4219 2406 4219 
Q 1781 4219 1451 3797 
Q 1122 3375 1075 2522 
Q 1259 2794 1537 2939 
Q 1816 3084 2150 3084 
Q 2853 3084 3261 2657 
Q 3669 2231 3669 1497 
Q 3669 778 3244 343 
Q 2819 -91 2113 -91 
Q 1303 -91 875 529 
Q 447 1150 447 2328 
Q 447 3434 972 4092 
Q 1497 4750 2381 4750 
Q 2619 4750 2861 4703 
Q 3103 4656 3366 4563 
z
" transform="scale(0.015625)"/>
       </defs>
       <use xlink:href="#DejaVuSans-36"/>
      </g>
     </g>
    </g>
    <g id="ytick_2">
     <g id="line2d_21">
      <path d="M 57.6 210.915164 
L 414.72 210.915164 
" clip-path="url(#p3042bf2719)" style="fill: none; stroke-dasharray: 2.96,1.28; stroke-dashoffset: 0; stroke: #b0b0b0; stroke-width: 0.8"/>
     </g>
     <g id="line2d_22">
      <g>
       <use xlink:href="#me027cb4891" x="57.6" y="210.915164" style="stroke: #000000; stroke-width: 0.8"/>
      </g>
     </g>
     <g id="text_12">
      <!-- 7 -->
      <g transform="translate(44.2375 214.714383)scale(0.1 -0.1)">
       <use xlink:href="#DejaVuSans-37"/>
      </g>
     </g>
    </g>
    <g id="ytick_3">
     <g id="line2d_23">
      <path d="M 57.6 155.589031 
L 414.72 155.589031 
" clip-path="url(#p3042bf2719)" style="fill: none; stroke-dasharray: 2.96,1.28; stroke-dashoffset: 0; stroke: #b0b0b0; stroke-width: 0.8"/>
     </g>
     <g id="line2d_24">
      <g>
       <use xlink:href="#me027cb4891" x="57.6" y="155.589031" style="stroke: #000000; stroke-width: 0.8"/>
      </g>
     </g>
     <g id="text_13">
      <!-- 8 -->
      <g transform="translate(44.2375 159.38825)scale(0.1 -0.1)">
       <defs>
        <path id="DejaVuSans-38" d="M 2034 2216 
Q 1584 2216 1326 1975 
Q 1069 1734 1069 1313 
Q 1069 891 1326 650 
Q 1584 409 2034 409 
Q 2484 409 2743 651 
Q 3003 894 3003 1313 
Q 3003 1734 2745 1975 
Q 2488 2216 2034 2216 
z
M 1403 2484 
Q 997 2584 770 2862 
Q 544 3141 544 3541 
Q 544 4100 942 4425 
Q 1341 4750 2034 4750 
Q 2731 4750 3128 4425 
Q 3525 4100 3525 3541 
Q 3525 3141 3298 2862 
Q 3072 2584 2669 2484 
Q 3125 2378 3379 2068 
Q 3634 1759 3634 1313 
Q 3634 634 3220 271 
Q 2806 -91 2034 -91 
Q 1263 -91 848 271 
Q 434 634 434 1313 
Q 434 1759 690 2068 
Q 947 2378 1403 2484 
z
M 1172 3481 
Q 1172 3119 1398 2916 
Q 1625 2713 2034 2713 
Q 2441 2713 2670 2916 
Q 2900 3119 2900 3481 
Q 2900 3844 2670 4047 
Q 2441 4250 2034 4250 
Q 1625 4250 1398 4047 
Q 1172 3844 1172 3481 
z
" transform="scale(0.015625)"/>
       </defs>
       <use xlink:href="#DejaVuSans-38"/>
      </g>
     </g>
    </g>
    <g id="ytick_4">
     <g id="line2d_25">
      <path d="M 57.6 100.262898 
L 414.72 100.262898 
" clip-path="url(#p3042bf2719)" style="fill: none; stroke-dasharray: 2.96,1.28; stroke-dashoffset: 0; stroke: #b0b0b0; stroke-width: 0.8"/>
     </g>
     <g id="line2d_26">
      <g>
       <use xlink:href="#me027cb4891" x="57.6" y="100.262898" style="stroke: #000000; stroke-width: 0.8"/>
      </g>
     </g>
     <g id="text_14">
      <!-- 9 -->
      <g transform="translate(44.2375 104.062117)scale(0.1 -0.1)">
       <defs>
        <path id="DejaVuSans-39" d="M 703 97 
L 703 672 
Q 941 559 1184 500 
Q 1428 441 1663 441 
Q 2288 441 2617 861 
Q 2947 1281 2994 2138 
Q 2813 1869 2534 1725 
Q 2256 1581 1919 1581 
Q 1219 1581 811 2004 
Q 403 2428 403 3163 
Q 403 3881 828 4315 
Q 1253 4750 1959 4750 
Q 2769 4750 3195 4129 
Q 3622 3509 3622 2328 
Q 3622 1225 3098 567 
Q 2575 -91 1691 -91 
Q 1453 -91 1209 -44 
Q 966 3 703 97 
z
M 1959 2075 
Q 2384 2075 2632 2365 
Q 2881 2656 2881 3163 
Q 2881 3666 2632 3958 
Q 2384 4250 1959 4250 
Q 1534 4250 1286 3958 
Q 1038 3666 1038 3163 
Q 1038 2656 1286 2365 
Q 1534 2075 1959 2075 
z
" transform="scale(0.015625)"/>
       </defs>
       <use xlink:href="#DejaVuSans-39"/>
      </g>
     </g>
    </g>
    <g id="ytick_5">
     <g id="line2d_27">
      <path d="M 57.6 44.936765 
L 414.72 44.936765 
" clip-path="url(#p3042bf2719)" style="fill: none; stroke-dasharray: 2.96,1.28; stroke-dashoffset: 0; stroke: #b0b0b0; stroke-width: 0.8"/>
     </g>
     <g id="line2d_28">
      <g>
       <use xlink:href="#me027cb4891" x="57.6" y="44.936765" style="stroke: #000000; stroke-width: 0.8"/>
      </g>
     </g>
     <g id="text_15">
      <!-- 10 -->
      <g transform="translate(37.875 48.735984)scale(0.1 -0.1)">
       <use xlink:href="#DejaVuSans-31"/>
       <use xlink:href="#DejaVuSans-30" x="63.623047"/>
      </g>
     </g>
    </g>
    <g id="text_16">
     <!-- Reward Density -->
     <g transform="translate(31.795312 213.74675)rotate(-90)scale(0.1 -0.1)">
      <defs>
       <path id="DejaVuSans-52" d="M 2841 2188 
Q 3044 2119 3236 1894 
Q 3428 1669 3622 1275 
L 4263 0 
L 3584 0 
L 2988 1197 
Q 2756 1666 2539 1819 
Q 2322 1972 1947 1972 
L 1259 1972 
L 1259 0 
L 628 0 
L 628 4666 
L 2053 4666 
Q 2853 4666 3247 4331 
Q 3641 3997 3641 3322 
Q 3641 2881 3436 2590 
Q 3231 2300 2841 2188 
z
M 1259 4147 
L 1259 2491 
L 2053 2491 
Q 2509 2491 2742 2702 
Q 2975 2913 2975 3322 
Q 2975 3731 2742 3939 
Q 2509 4147 2053 4147 
L 1259 4147 
z
" transform="scale(0.015625)"/>
       <path id="DejaVuSans-77" d="M 269 3500 
L 844 3500 
L 1563 769 
L 2278 3500 
L 2956 3500 
L 3675 769 
L 4391 3500 
L 4966 3500 
L 4050 0 
L 3372 0 
L 2619 2869 
L 1863 0 
L 1184 0 
L 269 3500 
z
" transform="scale(0.015625)"/>
       <path id="DejaVuSans-44" d="M 1259 4147 
L 1259 519 
L 2022 519 
Q 2988 519 3436 956 
Q 3884 1394 3884 2338 
Q 3884 3275 3436 3711 
Q 2988 4147 2022 4147 
L 1259 4147 
z
M 628 4666 
L 1925 4666 
Q 3281 4666 3915 4102 
Q 4550 3538 4550 2338 
Q 4550 1131 3912 565 
Q 3275 0 1925 0 
L 628 0 
L 628 4666 
z
" transform="scale(0.015625)"/>
       <path id="DejaVuSans-74" d="M 1172 4494 
L 1172 3500 
L 2356 3500 
L 2356 3053 
L 1172 3053 
L 1172 1153 
Q 1172 725 1289 603 
Q 1406 481 1766 481 
L 2356 481 
L 2356 0 
L 1766 0 
Q 1100 0 847 248 
Q 594 497 594 1153 
L 594 3053 
L 172 3053 
L 172 3500 
L 594 3500 
L 594 4494 
L 1172 4494 
z
" transform="scale(0.015625)"/>
       <path id="DejaVuSans-79" d="M 2059 -325 
Q 1816 -950 1584 -1140 
Q 1353 -1331 966 -1331 
L 506 -1331 
L 506 -850 
L 844 -850 
Q 1081 -850 1212 -737 
Q 1344 -625 1503 -206 
L 1606 56 
L 191 3500 
L 800 3500 
L 1894 763 
L 2988 3500 
L 3597 3500 
L 2059 -325 
z
" transform="scale(0.015625)"/>
      </defs>
      <use xlink:href="#DejaVuSans-52"/>
      <use xlink:href="#DejaVuSans-65" x="64.982422"/>
      <use xlink:href="#DejaVuSans-77" x="126.505859"/>
      <use xlink:href="#DejaVuSans-61" x="208.292969"/>
      <use xlink:href="#DejaVuSans-72" x="269.572266"/>
      <use xlink:href="#DejaVuSans-64" x="308.935547"/>
      <use xlink:href="#DejaVuSans-20" x="372.412109"/>
      <use xlink:href="#DejaVuSans-44" x="404.199219"/>
      <use xlink:href="#DejaVuSans-65" x="481.201172"/>
      <use xlink:href="#DejaVuSans-6e" x="542.724609"/>
      <use xlink:href="#DejaVuSans-73" x="606.103516"/>
      <use xlink:href="#DejaVuSans-69" x="658.203125"/>
      <use xlink:href="#DejaVuSans-74" x="685.986328"/>
      <use xlink:href="#DejaVuSans-79" x="725.195312"/>
     </g>
    </g>
   </g>
   <g id="LineCollection_1">
    <path d="M 90.919809 136.074464 
L 125.093971 136.074464 
" clip-path="url(#p3042bf2719)" style="fill: none; stroke: #1f77b4; stroke-width: 1.5"/>
    <path d="M 176.355215 228.01297 
L 210.529378 228.01297 
" clip-path="url(#p3042bf2719)" style="fill: none; stroke: #1f77b4; stroke-width: 1.5"/>
    <path d="M 261.790622 246.166644 
L 295.964785 246.166644 
" clip-path="url(#p3042bf2719)" style="fill: none; stroke: #1f77b4; stroke-width: 1.5"/>
    <path d="M 347.226029 246.972511 
L 381.400191 246.972511 
" clip-path="url(#p3042bf2719)" style="fill: none; stroke: #1f77b4; stroke-width: 1.5"/>
   </g>
   <g id="LineCollection_2">
    <path d="M 90.919809 53.568 
L 125.093971 53.568 
" clip-path="url(#p3042bf2719)" style="fill: none; stroke: #1f77b4; stroke-width: 1.5"/>
    <path d="M 176.355215 135.508995 
L 210.529378 135.508995 
" clip-path="url(#p3042bf2719)" style="fill: none; stroke: #1f77b4; stroke-width: 1.5"/>
    <path d="M 261.790622 170.806926 
L 295.964785 170.806926 
" clip-path="url(#p3042bf2719)" style="fill: none; stroke: #1f77b4; stroke-width: 1.5"/>
    <path d="M 347.226029 177.126444 
L 381.400191 177.126444 
" clip-path="url(#p3042bf2719)" style="fill: none; stroke: #1f77b4; stroke-width: 1.5"/>
   </g>
   <g id="LineCollection_3">
    <path d="M 90.919809 182.662738 
L 125.093971 182.662738 
" clip-path="url(#p3042bf2719)" style="fill: none; stroke: #1f77b4; stroke-width: 1.5"/>
    <path d="M 176.355215 293.318448 
L 210.529378 293.318448 
" clip-path="url(#p3042bf2719)" style="fill: none; stroke: #1f77b4; stroke-width: 1.5"/>
    <path d="M 261.790622 295.488 
L 295.964785 295.488 
" clip-path="url(#p3042bf2719)" style="fill: none; stroke: #1f77b4; stroke-width: 1.5"/>
    <path d="M 347.226029 293.79465 
L 381.400191 293.79465 
" clip-path="url(#p3042bf2719)" style="fill: none; stroke: #1f77b4; stroke-width: 1.5"/>
   </g>
   <g id="LineCollection_4">
    <path d="M 108.00689 182.662738 
L 108.00689 53.568 
" clip-path="url(#p3042bf2719)" style="fill: none; stroke: #1f77b4; stroke-width: 1.5"/>
    <path d="M 193.442297 293.318448 
L 193.442297 135.508995 
" clip-path="url(#p3042bf2719)" style="fill: none; stroke: #1f77b4; stroke-width: 1.5"/>
    <path d="M 278.877703 295.488 
L 278.877703 170.806926 
" clip-path="url(#p3042bf2719)" style="fill: none; stroke: #1f77b4; stroke-width: 1.5"/>
    <path d="M 364.31311 293.79465 
L 364.31311 177.126444 
" clip-path="url(#p3042bf2719)" style="fill: none; stroke: #1f77b4; stroke-width: 1.5"/>
   </g>
   <g id="line2d_29">
    <path d="M 108.00689 136.074464 
L 193.442297 228.01297 
L 278.877703 246.166644 
L 364.31311 246.972511 
" clip-path="url(#p3042bf2719)" style="fill: none; stroke: #4682b4; stroke-width: 1.5; stroke-linecap: square"/>
   </g>
   <g id="line2d_30">
    <path d="M 108.00689 136.074464 
L 193.442297 228.01297 
L 278.877703 246.166644 
L 364.31311 246.972511 
" clip-path="url(#p3042bf2719)" style="fill: none; stroke: #4682b4; stroke-width: 1.5; stroke-linecap: square"/>
   </g>
   <g id="patch_3">
    <path d="M 57.6 307.584 
L 57.6 41.472 
" style="fill: none; stroke: #000000; stroke-width: 0.8; stroke-linejoin: miter; stroke-linecap: square"/>
   </g>
   <g id="patch_4">
    <path d="M 414.72 307.584 
L 414.72 41.472 
" style="fill: none; stroke: #000000; stroke-width: 0.8; stroke-linejoin: miter; stroke-linecap: square"/>
   </g>
   <g id="patch_5">
    <path d="M 57.6 307.584 
L 414.72 307.584 
" style="fill: none; stroke: #000000; stroke-width: 0.8; stroke-linejoin: miter; stroke-linecap: square"/>
   </g>
   <g id="patch_6">
    <path d="M 57.6 41.472 
L 414.72 41.472 
" style="fill: none; stroke: #000000; stroke-width: 0.8; stroke-linejoin: miter; stroke-linecap: square"/>
   </g>
   <g id="text_17">
    <!-- Violinplot for progress of actions/price_new -->
    <g transform="translate(106.71 35.472)scale(0.12 -0.12)">
     <defs>
      <path id="DejaVuSans-56" d="M 1831 0 
L 50 4666 
L 709 4666 
L 2188 738 
L 3669 4666 
L 4325 4666 
L 2547 0 
L 1831 0 
z
" transform="scale(0.015625)"/>
      <path id="DejaVuSans-6c" d="M 603 4863 
L 1178 4863 
L 1178 0 
L 603 0 
L 603 4863 
z
" transform="scale(0.015625)"/>
      <path id="DejaVuSans-66" d="M 2375 4863 
L 2375 4384 
L 1825 4384 
Q 1516 4384 1395 4259 
Q 1275 4134 1275 3809 
L 1275 3500 
L 2222 3500 
L 2222 3053 
L 1275 3053 
L 1275 0 
L 697 0 
L 697 3053 
L 147 3053 
L 147 3500 
L 697 3500 
L 697 3744 
Q 697 4328 969 4595 
Q 1241 4863 1831 4863 
L 2375 4863 
z
" transform="scale(0.015625)"/>
      <path id="DejaVuSans-67" d="M 2906 1791 
Q 2906 2416 2648 2759 
Q 2391 3103 1925 3103 
Q 1463 3103 1205 2759 
Q 947 2416 947 1791 
Q 947 1169 1205 825 
Q 1463 481 1925 481 
Q 2391 481 2648 825 
Q 2906 1169 2906 1791 
z
M 3481 434 
Q 3481 -459 3084 -895 
Q 2688 -1331 1869 -1331 
Q 1566 -1331 1297 -1286 
Q 1028 -1241 775 -1147 
L 775 -588 
Q 1028 -725 1275 -790 
Q 1522 -856 1778 -856 
Q 2344 -856 2625 -561 
Q 2906 -266 2906 331 
L 2906 616 
Q 2728 306 2450 153 
Q 2172 0 1784 0 
Q 1141 0 747 490 
Q 353 981 353 1791 
Q 353 2603 747 3093 
Q 1141 3584 1784 3584 
Q 2172 3584 2450 3431 
Q 2728 3278 2906 2969 
L 2906 3500 
L 3481 3500 
L 3481 434 
z
" transform="scale(0.015625)"/>
      <path id="DejaVuSans-63" d="M 3122 3366 
L 3122 2828 
Q 2878 2963 2633 3030 
Q 2388 3097 2138 3097 
Q 1578 3097 1268 2742 
Q 959 2388 959 1747 
Q 959 1106 1268 751 
Q 1578 397 2138 397 
Q 2388 397 2633 464 
Q 2878 531 3122 666 
L 3122 134 
Q 2881 22 2623 -34 
Q 2366 -91 2075 -91 
Q 1284 -91 818 406 
Q 353 903 353 1747 
Q 353 2603 823 3093 
Q 1294 3584 2113 3584 
Q 2378 3584 2631 3529 
Q 2884 3475 3122 3366 
z
" transform="scale(0.015625)"/>
      <path id="DejaVuSans-2f" d="M 1625 4666 
L 2156 4666 
L 531 -594 
L 0 -594 
L 1625 4666 
z
" transform="scale(0.015625)"/>
      <path id="DejaVuSans-5f" d="M 3263 -1063 
L 3263 -1509 
L -63 -1509 
L -63 -1063 
L 3263 -1063 
z
" transform="scale(0.015625)"/>
     </defs>
     <use xlink:href="#DejaVuSans-56"/>
     <use xlink:href="#DejaVuSans-69" x="66.158203"/>
     <use xlink:href="#DejaVuSans-6f" x="93.941406"/>
     <use xlink:href="#DejaVuSans-6c" x="155.123047"/>
     <use xlink:href="#DejaVuSans-69" x="182.90625"/>
     <use xlink:href="#DejaVuSans-6e" x="210.689453"/>
     <use xlink:href="#DejaVuSans-70" x="274.068359"/>
     <use xlink:href="#DejaVuSans-6c" x="337.544922"/>
     <use xlink:href="#DejaVuSans-6f" x="365.328125"/>
     <use xlink:href="#DejaVuSans-74" x="426.509766"/>
     <use xlink:href="#DejaVuSans-20" x="465.71875"/>
     <use xlink:href="#DejaVuSans-66" x="497.505859"/>
     <use xlink:href="#DejaVuSans-6f" x="532.710938"/>
     <use xlink:href="#DejaVuSans-72" x="593.892578"/>
     <use xlink:href="#DejaVuSans-20" x="635.005859"/>
     <use xlink:href="#DejaVuSans-70" x="666.792969"/>
     <use xlink:href="#DejaVuSans-72" x="730.269531"/>
     <use xlink:href="#DejaVuSans-6f" x="769.132812"/>
     <use xlink:href="#DejaVuSans-67" x="830.314453"/>
     <use xlink:href="#DejaVuSans-72" x="893.791016"/>
     <use xlink:href="#DejaVuSans-65" x="932.654297"/>
     <use xlink:href="#DejaVuSans-73" x="994.177734"/>
     <use xlink:href="#DejaVuSans-73" x="1046.277344"/>
     <use xlink:href="#DejaVuSans-20" x="1098.376953"/>
     <use xlink:href="#DejaVuSans-6f" x="1130.164062"/>
     <use xlink:href="#DejaVuSans-66" x="1191.345703"/>
     <use xlink:href="#DejaVuSans-20" x="1226.550781"/>
     <use xlink:href="#DejaVuSans-61" x="1258.337891"/>
     <use xlink:href="#DejaVuSans-63" x="1319.617188"/>
     <use xlink:href="#DejaVuSans-74" x="1374.597656"/>
     <use xlink:href="#DejaVuSans-69" x="1413.806641"/>
     <use xlink:href="#DejaVuSans-6f" x="1441.589844"/>
     <use xlink:href="#DejaVuSans-6e" x="1502.771484"/>
     <use xlink:href="#DejaVuSans-73" x="1566.150391"/>
     <use xlink:href="#DejaVuSans-2f" x="1618.25"/>
     <use xlink:href="#DejaVuSans-70" x="1651.941406"/>
     <use xlink:href="#DejaVuSans-72" x="1715.417969"/>
     <use xlink:href="#DejaVuSans-69" x="1756.53125"/>
     <use xlink:href="#DejaVuSans-63" x="1784.314453"/>
     <use xlink:href="#DejaVuSans-65" x="1839.294922"/>
     <use xlink:href="#DejaVuSans-5f" x="1900.818359"/>
     <use xlink:href="#DejaVuSans-6e" x="1950.818359"/>
     <use xlink:href="#DejaVuSans-65" x="2014.197266"/>
     <use xlink:href="#DejaVuSans-77" x="2075.720703"/>
    </g>
   </g>
   <g id="legend_1">
    <g id="patch_7">
     <path d="M 276.25125 64.150125 
L 407.72 64.150125 
Q 409.72 64.150125 409.72 62.150125 
L 409.72 48.472 
Q 409.72 46.472 407.72 46.472 
L 276.25125 46.472 
Q 274.25125 46.472 274.25125 48.472 
L 274.25125 62.150125 
Q 274.25125 64.150125 276.25125 64.150125 
z
" style="fill: #ffffff; opacity: 0.8; stroke: #cccccc; stroke-linejoin: miter"/>
    </g>
    <g id="line2d_31">
     <path d="M 278.25125 54.570438 
L 288.25125 54.570438 
L 298.25125 54.570438 
" style="fill: none; stroke: #4682b4; stroke-width: 1.5; stroke-linecap: square"/>
    </g>
    <g id="text_18">
     <!-- StableBaselinesSAC -->
     <g transform="translate(306.25125 58.070438)scale(0.1 -0.1)">
      <defs>
       <path id="DejaVuSans-53" d="M 3425 4513 
L 3425 3897 
Q 3066 4069 2747 4153 
Q 2428 4238 2131 4238 
Q 1616 4238 1336 4038 
Q 1056 3838 1056 3469 
Q 1056 3159 1242 3001 
Q 1428 2844 1947 2747 
L 2328 2669 
Q 3034 2534 3370 2195 
Q 3706 1856 3706 1288 
Q 3706 609 3251 259 
Q 2797 -91 1919 -91 
Q 1588 -91 1214 -16 
Q 841 59 441 206 
L 441 856 
Q 825 641 1194 531 
Q 1563 422 1919 422 
Q 2459 422 2753 634 
Q 3047 847 3047 1241 
Q 3047 1584 2836 1778 
Q 2625 1972 2144 2069 
L 1759 2144 
Q 1053 2284 737 2584 
Q 422 2884 422 3419 
Q 422 4038 858 4394 
Q 1294 4750 2059 4750 
Q 2388 4750 2728 4690 
Q 3069 4631 3425 4513 
z
" transform="scale(0.015625)"/>
       <path id="DejaVuSans-62" d="M 3116 1747 
Q 3116 2381 2855 2742 
Q 2594 3103 2138 3103 
Q 1681 3103 1420 2742 
Q 1159 2381 1159 1747 
Q 1159 1113 1420 752 
Q 1681 391 2138 391 
Q 2594 391 2855 752 
Q 3116 1113 3116 1747 
z
M 1159 2969 
Q 1341 3281 1617 3432 
Q 1894 3584 2278 3584 
Q 2916 3584 3314 3078 
Q 3713 2572 3713 1747 
Q 3713 922 3314 415 
Q 2916 -91 2278 -91 
Q 1894 -91 1617 61 
Q 1341 213 1159 525 
L 1159 0 
L 581 0 
L 581 4863 
L 1159 4863 
L 1159 2969 
z
" transform="scale(0.015625)"/>
       <path id="DejaVuSans-42" d="M 1259 2228 
L 1259 519 
L 2272 519 
Q 2781 519 3026 730 
Q 3272 941 3272 1375 
Q 3272 1813 3026 2020 
Q 2781 2228 2272 2228 
L 1259 2228 
z
M 1259 4147 
L 1259 2741 
L 2194 2741 
Q 2656 2741 2882 2914 
Q 3109 3088 3109 3444 
Q 3109 3797 2882 3972 
Q 2656 4147 2194 4147 
L 1259 4147 
z
M 628 4666 
L 2241 4666 
Q 2963 4666 3353 4366 
Q 3744 4066 3744 3513 
Q 3744 3084 3544 2831 
Q 3344 2578 2956 2516 
Q 3422 2416 3680 2098 
Q 3938 1781 3938 1306 
Q 3938 681 3513 340 
Q 3088 0 2303 0 
L 628 0 
L 628 4666 
z
" transform="scale(0.015625)"/>
       <path id="DejaVuSans-41" d="M 2188 4044 
L 1331 1722 
L 3047 1722 
L 2188 4044 
z
M 1831 4666 
L 2547 4666 
L 4325 0 
L 3669 0 
L 3244 1197 
L 1141 1197 
L 716 0 
L 50 0 
L 1831 4666 
z
" transform="scale(0.015625)"/>
       <path id="DejaVuSans-43" d="M 4122 4306 
L 4122 3641 
Q 3803 3938 3442 4084 
Q 3081 4231 2675 4231 
Q 1875 4231 1450 3742 
Q 1025 3253 1025 2328 
Q 1025 1406 1450 917 
Q 1875 428 2675 428 
Q 3081 428 3442 575 
Q 3803 722 4122 1019 
L 4122 359 
Q 3791 134 3420 21 
Q 3050 -91 2638 -91 
Q 1578 -91 968 557 
Q 359 1206 359 2328 
Q 359 3453 968 4101 
Q 1578 4750 2638 4750 
Q 3056 4750 3426 4639 
Q 3797 4528 4122 4306 
z
" transform="scale(0.015625)"/>
      </defs>
      <use xlink:href="#DejaVuSans-53"/>
      <use xlink:href="#DejaVuSans-74" x="63.476562"/>
      <use xlink:href="#DejaVuSans-61" x="102.685547"/>
      <use xlink:href="#DejaVuSans-62" x="163.964844"/>
      <use xlink:href="#DejaVuSans-6c" x="227.441406"/>
      <use xlink:href="#DejaVuSans-65" x="255.224609"/>
      <use xlink:href="#DejaVuSans-42" x="316.748047"/>
      <use xlink:href="#DejaVuSans-61" x="385.351562"/>
      <use xlink:href="#DejaVuSans-73" x="446.630859"/>
      <use xlink:href="#DejaVuSans-65" x="498.730469"/>
      <use xlink:href="#DejaVuSans-6c" x="560.253906"/>
      <use xlink:href="#DejaVuSans-69" x="588.037109"/>
      <use xlink:href="#DejaVuSans-6e" x="615.820312"/>
      <use xlink:href="#DejaVuSans-65" x="679.199219"/>
      <use xlink:href="#DejaVuSans-73" x="740.722656"/>
      <use xlink:href="#DejaVuSans-53" x="792.822266"/>
      <use xlink:href="#DejaVuSans-41" x="858.173828"/>
      <use xlink:href="#DejaVuSans-43" x="924.832031"/>
     </g>
    </g>
   </g>
  </g>
 </g>
 <defs>
  <clipPath id="p3042bf2719">
   <rect x="57.6" y="41.472" width="357.12" height="266.112"/>
  </clipPath>
 </defs>
</svg>
