<?xml version="1.0" encoding="utf-8" standalone="no"?>
<!DOCTYPE svg PUBLIC "-//W3C//DTD SVG 1.1//EN"
  "http://www.w3.org/Graphics/SVG/1.1/DTD/svg11.dtd">
<svg xmlns:xlink="http://www.w3.org/1999/xlink" width="460.8pt" height="345.6pt" viewBox="0 0 460.8 345.6" xmlns="http://www.w3.org/2000/svg" version="1.1">
 <metadata>
  <rdf:RDF xmlns:dc="http://purl.org/dc/elements/1.1/" xmlns:cc="http://creativecommons.org/ns#" xmlns:rdf="http://www.w3.org/1999/02/22-rdf-syntax-ns#">
   <cc:Work>
    <dc:type rdf:resource="http://purl.org/dc/dcmitype/StillImage"/>
    <dc:date>2022-06-20T18:30:17.789823</dc:date>
    <dc:format>image/svg+xml</dc:format>
    <dc:creator>
     <cc:Agent>
      <dc:title>Matplotlib v3.5.2, https://matplotlib.org/</dc:title>
     </cc:Agent>
    </dc:creator>
   </cc:Work>
  </rdf:RDF>
 </metadata>
 <defs>
  <style type="text/css">*{stroke-linejoin: round; stroke-linecap: butt}</style>
 </defs>
 <g id="figure_1">
  <g id="patch_1">
   <path d="M 0 345.6 
L 460.8 345.6 
L 460.8 0 
L 0 0 
z
" style="fill: #ffffff"/>
  </g>
  <g id="axes_1">
   <g id="patch_2">
    <path d="M 57.6 307.584 
L 414.72 307.584 
L 414.72 41.472 
L 57.6 41.472 
z
" style="fill: #ffffff"/>
   </g>
   <g id="PolyCollection_1">
    <path d="M 112.052952 261.01762 
L 103.960828 261.01762 
L 102.838124 258.92217 
L 101.54896 256.826719 
L 100.108743 254.731268 
L 98.54158 252.635818 
L 96.878049 250.540367 
L 95.152104 248.444916 
L 93.397676 246.349465 
L 91.645626 244.254015 
L 89.921602 242.158564 
L 88.245102 240.063113 
L 86.62978 237.967663 
L 85.084696 235.872212 
L 83.616083 233.776761 
L 82.229088 231.68131 
L 80.92909 229.58586 
L 79.722346 227.490409 
L 78.615932 225.394958 
L 77.617122 223.299508 
L 76.732473 221.204057 
L 75.966855 219.108606 
L 75.322706 217.013155 
L 74.799649 214.917705 
L 74.394603 212.822254 
L 74.102419 210.726803 
L 73.916995 208.631353 
L 73.832727 206.535902 
L 73.846044 204.440451 
L 73.956665 202.345001 
L 74.168225 200.24955 
L 74.487961 198.154099 
L 74.925415 196.058648 
L 75.490297 193.963198 
L 76.18998 191.867747 
L 77.027179 189.772296 
L 77.99837 187.676846 
L 79.093311 185.581395 
L 80.295697 183.485944 
L 81.584707 181.390493 
L 82.936926 179.295043 
L 84.328138 177.199592 
L 85.734557 175.104141 
L 87.133399 173.008691 
L 88.502935 170.91324 
L 89.822434 168.817789 
L 91.07241 166.722338 
L 92.235461 164.626888 
L 93.29769 162.531437 
L 94.250384 160.435986 
L 95.0914 158.340536 
L 95.82572 156.245085 
L 96.464808 154.149634 
L 97.024787 152.054183 
L 97.523843 149.958733 
L 97.979505 147.863282 
L 98.406502 145.767831 
L 98.815677 143.672381 
L 99.214072 141.57693 
L 99.605899 139.481479 
L 99.99385 137.386028 
L 100.380149 135.290578 
L 100.76692 133.195127 
L 101.155782 131.099676 
L 101.546897 129.004226 
L 101.937942 126.908775 
L 102.323486 124.813324 
L 102.695164 122.717873 
L 103.042713 120.622423 
L 103.355685 118.526972 
L 103.625439 116.431521 
L 103.846893 114.336071 
L 104.019642 112.24062 
L 104.148165 110.145169 
L 104.241149 108.049718 
L 104.310119 105.954268 
L 104.367733 103.858817 
L 104.426115 101.763366 
L 104.495519 99.667916 
L 104.583494 97.572465 
L 104.694557 95.477014 
L 104.830257 93.381564 
L 104.989518 91.286113 
L 105.16909 89.190662 
L 105.364069 87.095211 
L 105.56845 84.999761 
L 105.77571 82.90431 
L 105.979444 80.808859 
L 106.173976 78.713409 
L 106.3549 76.617958 
L 106.519448 74.522507 
L 106.666608 72.427056 
L 106.796987 70.331606 
L 106.912448 68.236155 
L 107.015615 66.140704 
L 107.109351 64.045254 
L 107.196301 61.949803 
L 107.278577 59.854352 
L 107.357598 57.758901 
L 107.434059 55.663451 
L 107.508017 53.568 
L 108.505763 53.568 
L 108.505763 53.568 
L 108.579721 55.663451 
L 108.656182 57.758901 
L 108.735203 59.854352 
L 108.817479 61.949803 
L 108.904429 64.045254 
L 108.998165 66.140704 
L 109.101332 68.236155 
L 109.216793 70.331606 
L 109.347172 72.427056 
L 109.494331 74.522507 
L 109.65888 76.617958 
L 109.839804 78.713409 
L 110.034336 80.808859 
L 110.238069 82.90431 
L 110.44533 84.999761 
L 110.649711 87.095211 
L 110.84469 89.190662 
L 111.024262 91.286113 
L 111.183523 93.381564 
L 111.319223 95.477014 
L 111.430286 97.572465 
L 111.518261 99.667916 
L 111.587665 101.763366 
L 111.646047 103.858817 
L 111.703661 105.954268 
L 111.772631 108.049718 
L 111.865615 110.145169 
L 111.994138 112.24062 
L 112.166887 114.336071 
L 112.388341 116.431521 
L 112.658094 118.526972 
L 112.971067 120.622423 
L 113.318615 122.717873 
L 113.690294 124.813324 
L 114.075838 126.908775 
L 114.466882 129.004226 
L 114.857998 131.099676 
L 115.24686 133.195127 
L 115.633631 135.290578 
L 116.01993 137.386028 
L 116.407881 139.481479 
L 116.799708 141.57693 
L 117.198103 143.672381 
L 117.607278 145.767831 
L 118.034275 147.863282 
L 118.489937 149.958733 
L 118.988993 152.054183 
L 119.548972 154.149634 
L 120.18806 156.245085 
L 120.92238 158.340536 
L 121.763396 160.435986 
L 122.71609 162.531437 
L 123.778319 164.626888 
L 124.94137 166.722338 
L 126.191346 168.817789 
L 127.510845 170.91324 
L 128.880381 173.008691 
L 130.279223 175.104141 
L 131.685642 177.199592 
L 133.076854 179.295043 
L 134.429073 181.390493 
L 135.718083 183.485944 
L 136.920469 185.581395 
L 138.01541 187.676846 
L 138.986601 189.772296 
L 139.8238 191.867747 
L 140.523483 193.963198 
L 141.088365 196.058648 
L 141.525819 198.154099 
L 141.845555 200.24955 
L 142.057114 202.345001 
L 142.167736 204.440451 
L 142.181053 206.535902 
L 142.096785 208.631353 
L 141.911361 210.726803 
L 141.619177 212.822254 
L 141.214131 214.917705 
L 140.691073 217.013155 
L 140.046925 219.108606 
L 139.281307 221.204057 
L 138.396657 223.299508 
L 137.397848 225.394958 
L 136.291433 227.490409 
L 135.08469 229.58586 
L 133.784692 231.68131 
L 132.397697 233.776761 
L 130.929084 235.872212 
L 129.384 237.967663 
L 127.768678 240.063113 
L 126.092178 242.158564 
L 124.368154 244.254015 
L 122.616104 246.349465 
L 120.861676 248.444916 
L 119.13573 250.540367 
L 117.4722 252.635818 
L 115.905037 254.731268 
L 114.46482 256.826719 
L 113.175656 258.92217 
L 112.052952 261.01762 
z
" clip-path="url(#p92e722a048)" style="fill: #1f77b4; fill-opacity: 0.3"/>
   </g>
   <g id="PolyCollection_2">
    <path d="M 194.38168 277.62807 
L 192.502913 277.62807 
L 192.299574 275.489887 
L 192.04742 273.351705 
L 191.72682 271.213522 
L 191.314676 269.075339 
L 190.786993 266.937157 
L 190.12242 264.798974 
L 189.306295 262.660791 
L 188.334545 260.522609 
L 187.216641 258.384426 
L 185.97687 256.246243 
L 184.653319 254.108061 
L 183.29432 251.969878 
L 181.95261 249.831695 
L 180.677993 247.693513 
L 179.509797 245.55533 
L 178.470635 243.417147 
L 177.562864 241.278965 
L 176.768597 239.140782 
L 176.053378 237.0026 
L 175.372763 234.864417 
L 174.680432 232.726234 
L 173.936144 230.588052 
L 173.11199 228.449869 
L 172.195852 226.311686 
L 171.191633 224.173504 
L 170.116525 222.035321 
L 168.996162 219.897138 
L 167.858887 217.758956 
L 166.730524 215.620773 
L 165.630911 213.48259 
L 164.573037 211.344408 
L 163.564988 209.206225 
L 162.614036 207.068043 
L 161.731515 204.92986 
L 160.936683 202.791677 
L 160.257907 200.653495 
L 159.730329 198.515312 
L 159.390308 196.377129 
L 159.268134 194.238947 
L 159.381215 192.100764 
L 159.729794 189.962581 
L 160.296422 187.824399 
L 161.049132 185.686216 
L 161.947136 183.548033 
L 162.947285 181.409851 
L 164.009688 179.271668 
L 165.101485 177.133485 
L 166.19859 174.995303 
L 167.285757 172.85712 
L 168.355567 170.718938 
L 169.406852 168.580755 
L 170.442876 166.442572 
L 171.469455 164.30439 
L 172.493142 162.166207 
L 173.519619 160.028024 
L 174.55246 157.889842 
L 175.59238 155.751659 
L 176.636991 153.613476 
L 177.681028 151.475294 
L 178.716918 149.337111 
L 179.73556 147.198928 
L 180.727167 145.060746 
L 181.682008 142.922563 
L 182.590952 140.78438 
L 183.445794 138.646198 
L 184.23946 136.508015 
L 184.966294 134.369833 
L 185.6226 132.23165 
L 186.207482 130.093467 
L 186.723772 127.955285 
L 187.178661 125.817102 
L 187.583562 123.678919 
L 187.952943 121.540737 
L 188.302204 119.402554 
L 188.645065 117.264371 
L 188.99117 115.126189 
L 189.344604 112.988006 
L 189.703728 110.849823 
L 190.062337 108.711641 
L 190.411741 106.573458 
L 190.743117 104.435276 
L 191.04949 102.297093 
L 191.326886 100.15891 
L 191.57451 98.020728 
L 191.794065 95.882545 
L 191.988579 93.744362 
L 192.161148 91.60618 
L 192.313975 89.467997 
L 192.447938 87.329814 
L 192.562771 85.191632 
L 192.657715 83.053449 
L 192.732432 80.915266 
L 192.787851 78.777084 
L 192.826688 76.638901 
L 192.853445 74.500718 
L 192.87387 72.362536 
L 192.89401 70.224353 
L 192.919115 68.086171 
L 192.952701 65.947988 
L 193.931893 65.947988 
L 193.931893 65.947988 
L 193.965478 68.086171 
L 193.990583 70.224353 
L 194.010723 72.362536 
L 194.031148 74.500718 
L 194.057905 76.638901 
L 194.096742 78.777084 
L 194.152161 80.915266 
L 194.226878 83.053449 
L 194.321822 85.191632 
L 194.436655 87.329814 
L 194.570619 89.467997 
L 194.723445 91.60618 
L 194.896014 93.744362 
L 195.090528 95.882545 
L 195.310083 98.020728 
L 195.557707 100.15891 
L 195.835103 102.297093 
L 196.141476 104.435276 
L 196.472852 106.573458 
L 196.822257 108.711641 
L 197.180866 110.849823 
L 197.539989 112.988006 
L 197.893423 115.126189 
L 198.239529 117.264371 
L 198.582389 119.402554 
L 198.93165 121.540737 
L 199.301031 123.678919 
L 199.705932 125.817102 
L 200.160821 127.955285 
L 200.677111 130.093467 
L 201.261993 132.23165 
L 201.9183 134.369833 
L 202.645133 136.508015 
L 203.438799 138.646198 
L 204.293641 140.78438 
L 205.202585 142.922563 
L 206.157426 145.060746 
L 207.149034 147.198928 
L 208.167676 149.337111 
L 209.203565 151.475294 
L 210.247602 153.613476 
L 211.292213 155.751659 
L 212.332133 157.889842 
L 213.364974 160.028024 
L 214.391451 162.166207 
L 215.415138 164.30439 
L 216.441718 166.442572 
L 217.477741 168.580755 
L 218.529026 170.718938 
L 219.598836 172.85712 
L 220.686003 174.995303 
L 221.783109 177.133485 
L 222.874906 179.271668 
L 223.937308 181.409851 
L 224.937457 183.548033 
L 225.835461 185.686216 
L 226.588172 187.824399 
L 227.154799 189.962581 
L 227.503378 192.100764 
L 227.616459 194.238947 
L 227.494286 196.377129 
L 227.154264 198.515312 
L 226.626687 200.653495 
L 225.947911 202.791677 
L 225.153078 204.92986 
L 224.270557 207.068043 
L 223.319605 209.206225 
L 222.311556 211.344408 
L 221.253683 213.48259 
L 220.154069 215.620773 
L 219.025706 217.758956 
L 217.888432 219.897138 
L 216.768068 222.035321 
L 215.69296 224.173504 
L 214.688741 226.311686 
L 213.772603 228.449869 
L 212.948449 230.588052 
L 212.204161 232.726234 
L 211.51183 234.864417 
L 210.831216 237.0026 
L 210.115997 239.140782 
L 209.32173 241.278965 
L 208.413958 243.417147 
L 207.374796 245.55533 
L 206.2066 247.693513 
L 204.931983 249.831695 
L 203.590273 251.969878 
L 202.231275 254.108061 
L 200.907723 256.246243 
L 199.667952 258.384426 
L 198.550049 260.522609 
L 197.578298 262.660791 
L 196.762174 264.798974 
L 196.0976 266.937157 
L 195.569917 269.075339 
L 195.157774 271.213522 
L 194.837173 273.351705 
L 194.58502 275.489887 
L 194.38168 277.62807 
z
" clip-path="url(#p92e722a048)" style="fill: #1f77b4; fill-opacity: 0.3"/>
   </g>
   <g id="PolyCollection_3">
    <path d="M 291.097187 295.488 
L 266.65822 295.488 
L 263.997837 293.405148 
L 261.153867 291.322296 
L 258.220903 289.239445 
L 255.312368 287.156593 
L 252.55218 285.073741 
L 250.064252 282.990889 
L 247.961099 280.908037 
L 246.333043 278.825185 
L 245.239499 276.742334 
L 244.703541 274.659482 
L 244.71044 272.57663 
L 245.210297 270.493778 
L 246.124265 268.410926 
L 247.353433 266.328074 
L 248.789111 264.245223 
L 250.323199 262.162371 
L 251.85746 260.079519 
L 253.310737 257.996667 
L 254.623558 255.913815 
L 255.759928 253.830963 
L 256.706459 251.748112 
L 257.46932 249.66526 
L 258.069645 247.582408 
L 258.538171 245.499556 
L 258.909826 243.416704 
L 259.218885 241.333852 
L 259.495137 239.251001 
L 259.761274 237.168149 
L 260.031551 235.085297 
L 260.311615 233.002445 
L 260.599319 230.919593 
L 260.886308 228.836741 
L 261.160156 226.75389 
L 261.40682 224.671038 
L 261.613184 222.588186 
L 261.76941 220.505334 
L 261.870824 218.422482 
L 261.919105 216.33963 
L 261.922604 214.256779 
L 261.895773 212.173927 
L 261.857823 210.091075 
L 261.830855 208.008223 
L 261.837789 205.925371 
L 261.900389 203.842519 
L 262.0376 201.759668 
L 262.264295 199.676816 
L 262.590412 197.593964 
L 263.020387 195.511112 
L 263.552805 193.42826 
L 264.18025 191.345408 
L 264.889419 189.262557 
L 265.661627 187.179705 
L 266.473834 185.096853 
L 267.300238 183.014001 
L 268.114373 180.931149 
L 268.891472 178.848298 
L 269.610767 176.765446 
L 270.257368 174.682594 
L 270.823419 172.599742 
L 271.308347 170.51689 
L 271.718213 168.434038 
L 272.064321 166.351187 
L 272.361357 164.268335 
L 272.625386 162.185483 
L 272.871988 160.102631 
L 273.114791 158.019779 
L 273.3645 155.936927 
L 273.628464 153.854076 
L 273.910708 151.771224 
L 274.212305 149.688372 
L 274.531927 147.60552 
L 274.866444 145.522668 
L 275.211442 143.439816 
L 275.561619 141.356965 
L 275.911065 139.274113 
L 276.253457 137.191261 
L 276.582264 135.108409 
L 276.890993 133.025557 
L 277.173522 130.942705 
L 277.424513 128.859854 
L 277.63983 126.777002 
L 277.816926 124.69415 
L 277.9551 122.611298 
L 278.055594 120.528446 
L 278.121495 118.445594 
L 278.157468 116.362743 
L 278.169356 114.279891 
L 278.163693 112.197039 
L 278.147206 110.114187 
L 278.12634 108.031335 
L 278.10685 105.948483 
L 278.0935 103.865632 
L 278.089849 101.78278 
L 278.098164 99.699928 
L 278.119423 97.617076 
L 278.153417 95.534224 
L 278.19892 93.451372 
L 278.253917 91.368521 
L 278.315861 89.285669 
L 279.439546 89.285669 
L 279.439546 89.285669 
L 279.50149 91.368521 
L 279.556487 93.451372 
L 279.60199 95.534224 
L 279.635984 97.617076 
L 279.657243 99.699928 
L 279.665558 101.78278 
L 279.661907 103.865632 
L 279.648556 105.948483 
L 279.629067 108.031335 
L 279.6082 110.114187 
L 279.591713 112.197039 
L 279.586051 114.279891 
L 279.597938 116.362743 
L 279.633912 118.445594 
L 279.699813 120.528446 
L 279.800307 122.611298 
L 279.938481 124.69415 
L 280.115577 126.777002 
L 280.330894 128.859854 
L 280.581884 130.942705 
L 280.864414 133.025557 
L 281.173142 135.108409 
L 281.50195 137.191261 
L 281.844342 139.274113 
L 282.193787 141.356965 
L 282.543965 143.439816 
L 282.888962 145.522668 
L 283.223479 147.60552 
L 283.543102 149.688372 
L 283.844698 151.771224 
L 284.126943 153.854076 
L 284.390907 155.936927 
L 284.640616 158.019779 
L 284.883419 160.102631 
L 285.130021 162.185483 
L 285.394049 164.268335 
L 285.691086 166.351187 
L 286.037194 168.434038 
L 286.44706 170.51689 
L 286.931988 172.599742 
L 287.498039 174.682594 
L 288.14464 176.765446 
L 288.863934 178.848298 
L 289.641033 180.931149 
L 290.455169 183.014001 
L 291.281573 185.096853 
L 292.093779 187.179705 
L 292.865988 189.262557 
L 293.575157 191.345408 
L 294.202602 193.42826 
L 294.73502 195.511112 
L 295.164995 197.593964 
L 295.491112 199.676816 
L 295.717807 201.759668 
L 295.855017 203.842519 
L 295.917617 205.925371 
L 295.924552 208.008223 
L 295.897584 210.091075 
L 295.859634 212.173927 
L 295.832803 214.256779 
L 295.836302 216.33963 
L 295.884582 218.422482 
L 295.985996 220.505334 
L 296.142222 222.588186 
L 296.348587 224.671038 
L 296.595251 226.75389 
L 296.869098 228.836741 
L 297.156088 230.919593 
L 297.443792 233.002445 
L 297.723856 235.085297 
L 297.994133 237.168149 
L 298.260269 239.251001 
L 298.536522 241.333852 
L 298.845581 243.416704 
L 299.217235 245.499556 
L 299.685762 247.582408 
L 300.286087 249.66526 
L 301.048948 251.748112 
L 301.995479 253.830963 
L 303.131848 255.913815 
L 304.44467 257.996667 
L 305.897946 260.079519 
L 307.432207 262.162371 
L 308.966296 264.245223 
L 310.401974 266.328074 
L 311.631142 268.410926 
L 312.54511 270.493778 
L 313.044966 272.57663 
L 313.051866 274.659482 
L 312.515908 276.742334 
L 311.422364 278.825185 
L 309.794307 280.908037 
L 307.691154 282.990889 
L 305.203227 285.073741 
L 302.443039 287.156593 
L 299.534504 289.239445 
L 296.601539 291.322296 
L 293.75757 293.405148 
L 291.097187 295.488 
z
" clip-path="url(#p92e722a048)" style="fill: #1f77b4; fill-opacity: 0.3"/>
   </g>
   <g id="PolyCollection_4">
    <path d="M 379.199845 277.202472 
L 349.426375 277.202472 
L 346.567316 275.545242 
L 343.609508 273.888011 
L 340.666537 272.23078 
L 337.865896 270.57355 
L 335.339403 268.916319 
L 333.212019 267.259088 
L 331.590332 265.601858 
L 330.552192 263.944627 
L 330.138947 262.287396 
L 330.35144 260.630166 
L 331.150391 258.972935 
L 332.461162 257.315704 
L 334.182166 255.658473 
L 336.195666 254.001243 
L 338.379385 252.344012 
L 340.61731 250.686781 
L 342.808382 249.029551 
L 344.872238 247.37232 
L 346.751747 245.715089 
L 348.412641 244.057859 
L 349.840897 242.400628 
L 351.03876 240.743397 
L 352.020254 239.086167 
L 352.806885 237.428936 
L 353.423993 235.771705 
L 353.89798 234.114475 
L 354.254406 232.457244 
L 354.516855 230.800013 
L 354.706377 229.142783 
L 354.841337 227.485552 
L 354.93752 225.828321 
L 355.008372 224.17109 
L 355.065298 222.51386 
L 355.11796 220.856629 
L 355.174522 219.199398 
L 355.241796 217.542168 
L 355.325278 215.884937 
L 355.429066 214.227706 
L 355.55569 212.570476 
L 355.705933 210.913245 
L 355.878709 209.256014 
L 356.071112 207.598784 
L 356.278692 205.941553 
L 356.495984 204.284322 
L 356.717258 202.627092 
L 356.937393 200.969861 
L 357.152732 199.31263 
L 357.361757 197.6554 
L 357.565447 195.998169 
L 357.767211 194.340938 
L 357.972392 192.683707 
L 358.187392 191.026477 
L 358.418552 189.369246 
L 358.67099 187.712015 
L 358.947575 186.054785 
L 359.248246 184.397554 
L 359.569764 182.740323 
L 359.90597 181.083093 
L 360.248469 179.425862 
L 360.587629 177.768631 
L 360.913704 176.111401 
L 361.217895 174.45417 
L 361.493186 172.796939 
L 361.734842 171.139709 
L 361.940555 169.482478 
L 362.110263 167.825247 
L 362.245757 166.168017 
L 362.350172 164.510786 
L 362.427494 162.853555 
L 362.482147 161.196324 
L 362.518708 159.539094 
L 362.541742 157.881863 
L 362.55571 156.224632 
L 362.564919 154.567402 
L 362.573447 152.910171 
L 362.585032 151.25294 
L 362.602907 149.59571 
L 362.629617 147.938479 
L 362.666843 146.281248 
L 362.715289 144.624018 
L 362.77466 142.966787 
L 362.843756 141.309556 
L 362.920672 139.652326 
L 363.003082 137.995095 
L 363.088553 136.337864 
L 363.174839 134.680634 
L 363.260095 133.023403 
L 363.342999 131.366172 
L 363.422747 129.708941 
L 363.498966 128.051711 
L 363.571567 126.39448 
L 363.640596 124.737249 
L 363.706108 123.080019 
L 363.76811 121.422788 
L 363.826548 119.765557 
L 363.881343 118.108327 
L 363.932439 116.451096 
L 363.979836 114.793865 
L 364.023603 113.136635 
L 364.602617 113.136635 
L 364.602617 113.136635 
L 364.646384 114.793865 
L 364.693781 116.451096 
L 364.744877 118.108327 
L 364.799672 119.765557 
L 364.85811 121.422788 
L 364.920112 123.080019 
L 364.985625 124.737249 
L 365.054653 126.39448 
L 365.127254 128.051711 
L 365.203473 129.708941 
L 365.283221 131.366172 
L 365.366125 133.023403 
L 365.451382 134.680634 
L 365.537667 136.337864 
L 365.623138 137.995095 
L 365.705548 139.652326 
L 365.782464 141.309556 
L 365.85156 142.966787 
L 365.910931 144.624018 
L 365.959377 146.281248 
L 365.996604 147.938479 
L 366.023313 149.59571 
L 366.041188 151.25294 
L 366.052773 152.910171 
L 366.061302 154.567402 
L 366.07051 156.224632 
L 366.084479 157.881863 
L 366.107512 159.539094 
L 366.144074 161.196324 
L 366.198726 162.853555 
L 366.276048 164.510786 
L 366.380463 166.168017 
L 366.515957 167.825247 
L 366.685666 169.482478 
L 366.891378 171.139709 
L 367.133034 172.796939 
L 367.408325 174.45417 
L 367.712516 176.111401 
L 368.038591 177.768631 
L 368.377751 179.425862 
L 368.72025 181.083093 
L 369.056456 182.740323 
L 369.377974 184.397554 
L 369.678645 186.054785 
L 369.955231 187.712015 
L 370.207668 189.369246 
L 370.438828 191.026477 
L 370.653828 192.683707 
L 370.859009 194.340938 
L 371.060773 195.998169 
L 371.264463 197.6554 
L 371.473488 199.31263 
L 371.688827 200.969861 
L 371.908962 202.627092 
L 372.130236 204.284322 
L 372.347528 205.941553 
L 372.555108 207.598784 
L 372.747512 209.256014 
L 372.920287 210.913245 
L 373.07053 212.570476 
L 373.197154 214.227706 
L 373.300942 215.884937 
L 373.384424 217.542168 
L 373.451698 219.199398 
L 373.50826 220.856629 
L 373.560922 222.51386 
L 373.617848 224.17109 
L 373.6887 225.828321 
L 373.784883 227.485552 
L 373.919843 229.142783 
L 374.109365 230.800013 
L 374.371814 232.457244 
L 374.72824 234.114475 
L 375.202227 235.771705 
L 375.819336 237.428936 
L 376.605966 239.086167 
L 377.58746 240.743397 
L 378.785323 242.400628 
L 380.213579 244.057859 
L 381.874473 245.715089 
L 383.753983 247.37232 
L 385.817838 249.029551 
L 388.00891 250.686781 
L 390.246835 252.344012 
L 392.430554 254.001243 
L 394.444054 255.658473 
L 396.165058 257.315704 
L 397.475829 258.972935 
L 398.27478 260.630166 
L 398.487273 262.287396 
L 398.074029 263.944627 
L 397.035889 265.601858 
L 395.414201 267.259088 
L 393.286817 268.916319 
L 390.760324 270.57355 
L 387.959683 272.23078 
L 385.016713 273.888011 
L 382.058904 275.545242 
L 379.199845 277.202472 
z
" clip-path="url(#p92e722a048)" style="fill: #1f77b4; fill-opacity: 0.3"/>
   </g>
   <g id="matplotlib.axis_1">
    <g id="xtick_1">
     <g id="line2d_1">
      <path d="M 65.289187 307.584 
L 65.289187 41.472 
" clip-path="url(#p92e722a048)" style="fill: none; stroke-dasharray: 2.96,1.28; stroke-dashoffset: 0; stroke: #b0b0b0; stroke-width: 0.8"/>
     </g>
     <g id="line2d_2">
      <defs>
       <path id="maf0fb1a935" d="M 0 0 
L 0 3.5 
" style="stroke: #000000; stroke-width: 0.8"/>
      </defs>
      <g>
       <use xlink:href="#maf0fb1a935" x="65.289187" y="307.584" style="stroke: #000000; stroke-width: 0.8"/>
      </g>
     </g>
     <g id="text_1">
      <!-- 250 -->
      <g transform="translate(55.745437 322.182437)scale(0.1 -0.1)">
       <defs>
        <path id="DejaVuSans-32" d="M 1228 531 
L 3431 531 
L 3431 0 
L 469 0 
L 469 531 
Q 828 903 1448 1529 
Q 2069 2156 2228 2338 
Q 2531 2678 2651 2914 
Q 2772 3150 2772 3378 
Q 2772 3750 2511 3984 
Q 2250 4219 1831 4219 
Q 1534 4219 1204 4116 
Q 875 4013 500 3803 
L 500 4441 
Q 881 4594 1212 4672 
Q 1544 4750 1819 4750 
Q 2544 4750 2975 4387 
Q 3406 4025 3406 3419 
Q 3406 3131 3298 2873 
Q 3191 2616 2906 2266 
Q 2828 2175 2409 1742 
Q 1991 1309 1228 531 
z
" transform="scale(0.015625)"/>
        <path id="DejaVuSans-35" d="M 691 4666 
L 3169 4666 
L 3169 4134 
L 1269 4134 
L 1269 2991 
Q 1406 3038 1543 3061 
Q 1681 3084 1819 3084 
Q 2600 3084 3056 2656 
Q 3513 2228 3513 1497 
Q 3513 744 3044 326 
Q 2575 -91 1722 -91 
Q 1428 -91 1123 -41 
Q 819 9 494 109 
L 494 744 
Q 775 591 1075 516 
Q 1375 441 1709 441 
Q 2250 441 2565 725 
Q 2881 1009 2881 1497 
Q 2881 1984 2565 2268 
Q 2250 2553 1709 2553 
Q 1456 2553 1204 2497 
Q 953 2441 691 2322 
L 691 4666 
z
" transform="scale(0.015625)"/>
        <path id="DejaVuSans-30" d="M 2034 4250 
Q 1547 4250 1301 3770 
Q 1056 3291 1056 2328 
Q 1056 1369 1301 889 
Q 1547 409 2034 409 
Q 2525 409 2770 889 
Q 3016 1369 3016 2328 
Q 3016 3291 2770 3770 
Q 2525 4250 2034 4250 
z
M 2034 4750 
Q 2819 4750 3233 4129 
Q 3647 3509 3647 2328 
Q 3647 1150 3233 529 
Q 2819 -91 2034 -91 
Q 1250 -91 836 529 
Q 422 1150 422 2328 
Q 422 3509 836 4129 
Q 1250 4750 2034 4750 
z
" transform="scale(0.015625)"/>
       </defs>
       <use xlink:href="#DejaVuSans-32"/>
       <use xlink:href="#DejaVuSans-35" x="63.623047"/>
       <use xlink:href="#DejaVuSans-30" x="127.246094"/>
      </g>
     </g>
    </g>
    <g id="xtick_2">
     <g id="line2d_3">
      <path d="M 108.00689 307.584 
L 108.00689 41.472 
" clip-path="url(#p92e722a048)" style="fill: none; stroke-dasharray: 2.96,1.28; stroke-dashoffset: 0; stroke: #b0b0b0; stroke-width: 0.8"/>
     </g>
     <g id="line2d_4">
      <g>
       <use xlink:href="#maf0fb1a935" x="108.00689" y="307.584" style="stroke: #000000; stroke-width: 0.8"/>
      </g>
     </g>
     <g id="text_2">
      <!-- 500 -->
      <g transform="translate(98.46314 322.182437)scale(0.1 -0.1)">
       <use xlink:href="#DejaVuSans-35"/>
       <use xlink:href="#DejaVuSans-30" x="63.623047"/>
       <use xlink:href="#DejaVuSans-30" x="127.246094"/>
      </g>
     </g>
    </g>
    <g id="xtick_3">
     <g id="line2d_5">
      <path d="M 150.724593 307.584 
L 150.724593 41.472 
" clip-path="url(#p92e722a048)" style="fill: none; stroke-dasharray: 2.96,1.28; stroke-dashoffset: 0; stroke: #b0b0b0; stroke-width: 0.8"/>
     </g>
     <g id="line2d_6">
      <g>
       <use xlink:href="#maf0fb1a935" x="150.724593" y="307.584" style="stroke: #000000; stroke-width: 0.8"/>
      </g>
     </g>
     <g id="text_3">
      <!-- 750 -->
      <g transform="translate(141.180843 322.182437)scale(0.1 -0.1)">
       <defs>
        <path id="DejaVuSans-37" d="M 525 4666 
L 3525 4666 
L 3525 4397 
L 1831 0 
L 1172 0 
L 2766 4134 
L 525 4134 
L 525 4666 
z
" transform="scale(0.015625)"/>
       </defs>
       <use xlink:href="#DejaVuSans-37"/>
       <use xlink:href="#DejaVuSans-35" x="63.623047"/>
       <use xlink:href="#DejaVuSans-30" x="127.246094"/>
      </g>
     </g>
    </g>
    <g id="xtick_4">
     <g id="line2d_7">
      <path d="M 193.442297 307.584 
L 193.442297 41.472 
" clip-path="url(#p92e722a048)" style="fill: none; stroke-dasharray: 2.96,1.28; stroke-dashoffset: 0; stroke: #b0b0b0; stroke-width: 0.8"/>
     </g>
     <g id="line2d_8">
      <g>
       <use xlink:href="#maf0fb1a935" x="193.442297" y="307.584" style="stroke: #000000; stroke-width: 0.8"/>
      </g>
     </g>
     <g id="text_4">
      <!-- 1000 -->
      <g transform="translate(180.717297 322.182437)scale(0.1 -0.1)">
       <defs>
        <path id="DejaVuSans-31" d="M 794 531 
L 1825 531 
L 1825 4091 
L 703 3866 
L 703 4441 
L 1819 4666 
L 2450 4666 
L 2450 531 
L 3481 531 
L 3481 0 
L 794 0 
L 794 531 
z
" transform="scale(0.015625)"/>
       </defs>
       <use xlink:href="#DejaVuSans-31"/>
       <use xlink:href="#DejaVuSans-30" x="63.623047"/>
       <use xlink:href="#DejaVuSans-30" x="127.246094"/>
       <use xlink:href="#DejaVuSans-30" x="190.869141"/>
      </g>
     </g>
    </g>
    <g id="xtick_5">
     <g id="line2d_9">
      <path d="M 236.16 307.584 
L 236.16 41.472 
" clip-path="url(#p92e722a048)" style="fill: none; stroke-dasharray: 2.96,1.28; stroke-dashoffset: 0; stroke: #b0b0b0; stroke-width: 0.8"/>
     </g>
     <g id="line2d_10">
      <g>
       <use xlink:href="#maf0fb1a935" x="236.16" y="307.584" style="stroke: #000000; stroke-width: 0.8"/>
      </g>
     </g>
     <g id="text_5">
      <!-- 1250 -->
      <g transform="translate(223.435 322.182437)scale(0.1 -0.1)">
       <use xlink:href="#DejaVuSans-31"/>
       <use xlink:href="#DejaVuSans-32" x="63.623047"/>
       <use xlink:href="#DejaVuSans-35" x="127.246094"/>
       <use xlink:href="#DejaVuSans-30" x="190.869141"/>
      </g>
     </g>
    </g>
    <g id="xtick_6">
     <g id="line2d_11">
      <path d="M 278.877703 307.584 
L 278.877703 41.472 
" clip-path="url(#p92e722a048)" style="fill: none; stroke-dasharray: 2.96,1.28; stroke-dashoffset: 0; stroke: #b0b0b0; stroke-width: 0.8"/>
     </g>
     <g id="line2d_12">
      <g>
       <use xlink:href="#maf0fb1a935" x="278.877703" y="307.584" style="stroke: #000000; stroke-width: 0.8"/>
      </g>
     </g>
     <g id="text_6">
      <!-- 1500 -->
      <g transform="translate(266.152703 322.182437)scale(0.1 -0.1)">
       <use xlink:href="#DejaVuSans-31"/>
       <use xlink:href="#DejaVuSans-35" x="63.623047"/>
       <use xlink:href="#DejaVuSans-30" x="127.246094"/>
       <use xlink:href="#DejaVuSans-30" x="190.869141"/>
      </g>
     </g>
    </g>
    <g id="xtick_7">
     <g id="line2d_13">
      <path d="M 321.595407 307.584 
L 321.595407 41.472 
" clip-path="url(#p92e722a048)" style="fill: none; stroke-dasharray: 2.96,1.28; stroke-dashoffset: 0; stroke: #b0b0b0; stroke-width: 0.8"/>
     </g>
     <g id="line2d_14">
      <g>
       <use xlink:href="#maf0fb1a935" x="321.595407" y="307.584" style="stroke: #000000; stroke-width: 0.8"/>
      </g>
     </g>
     <g id="text_7">
      <!-- 1750 -->
      <g transform="translate(308.870407 322.182437)scale(0.1 -0.1)">
       <use xlink:href="#DejaVuSans-31"/>
       <use xlink:href="#DejaVuSans-37" x="63.623047"/>
       <use xlink:href="#DejaVuSans-35" x="127.246094"/>
       <use xlink:href="#DejaVuSans-30" x="190.869141"/>
      </g>
     </g>
    </g>
    <g id="xtick_8">
     <g id="line2d_15">
      <path d="M 364.31311 307.584 
L 364.31311 41.472 
" clip-path="url(#p92e722a048)" style="fill: none; stroke-dasharray: 2.96,1.28; stroke-dashoffset: 0; stroke: #b0b0b0; stroke-width: 0.8"/>
     </g>
     <g id="line2d_16">
      <g>
       <use xlink:href="#maf0fb1a935" x="364.31311" y="307.584" style="stroke: #000000; stroke-width: 0.8"/>
      </g>
     </g>
     <g id="text_8">
      <!-- 2000 -->
      <g transform="translate(351.58811 322.182437)scale(0.1 -0.1)">
       <use xlink:href="#DejaVuSans-32"/>
       <use xlink:href="#DejaVuSans-30" x="63.623047"/>
       <use xlink:href="#DejaVuSans-30" x="127.246094"/>
       <use xlink:href="#DejaVuSans-30" x="190.869141"/>
      </g>
     </g>
    </g>
    <g id="xtick_9">
     <g id="line2d_17">
      <path d="M 407.030813 307.584 
L 407.030813 41.472 
" clip-path="url(#p92e722a048)" style="fill: none; stroke-dasharray: 2.96,1.28; stroke-dashoffset: 0; stroke: #b0b0b0; stroke-width: 0.8"/>
     </g>
     <g id="line2d_18">
      <g>
       <use xlink:href="#maf0fb1a935" x="407.030813" y="307.584" style="stroke: #000000; stroke-width: 0.8"/>
      </g>
     </g>
     <g id="text_9">
      <!-- 2250 -->
      <g transform="translate(394.305813 322.182437)scale(0.1 -0.1)">
       <use xlink:href="#DejaVuSans-32"/>
       <use xlink:href="#DejaVuSans-32" x="63.623047"/>
       <use xlink:href="#DejaVuSans-35" x="127.246094"/>
       <use xlink:href="#DejaVuSans-30" x="190.869141"/>
      </g>
     </g>
    </g>
    <g id="text_10">
     <!-- Learned Episodes -->
     <g transform="translate(192.102187 335.860562)scale(0.1 -0.1)">
      <defs>
       <path id="DejaVuSans-4c" d="M 628 4666 
L 1259 4666 
L 1259 531 
L 3531 531 
L 3531 0 
L 628 0 
L 628 4666 
z
" transform="scale(0.015625)"/>
       <path id="DejaVuSans-65" d="M 3597 1894 
L 3597 1613 
L 953 1613 
Q 991 1019 1311 708 
Q 1631 397 2203 397 
Q 2534 397 2845 478 
Q 3156 559 3463 722 
L 3463 178 
Q 3153 47 2828 -22 
Q 2503 -91 2169 -91 
Q 1331 -91 842 396 
Q 353 884 353 1716 
Q 353 2575 817 3079 
Q 1281 3584 2069 3584 
Q 2775 3584 3186 3129 
Q 3597 2675 3597 1894 
z
M 3022 2063 
Q 3016 2534 2758 2815 
Q 2500 3097 2075 3097 
Q 1594 3097 1305 2825 
Q 1016 2553 972 2059 
L 3022 2063 
z
" transform="scale(0.015625)"/>
       <path id="DejaVuSans-61" d="M 2194 1759 
Q 1497 1759 1228 1600 
Q 959 1441 959 1056 
Q 959 750 1161 570 
Q 1363 391 1709 391 
Q 2188 391 2477 730 
Q 2766 1069 2766 1631 
L 2766 1759 
L 2194 1759 
z
M 3341 1997 
L 3341 0 
L 2766 0 
L 2766 531 
Q 2569 213 2275 61 
Q 1981 -91 1556 -91 
Q 1019 -91 701 211 
Q 384 513 384 1019 
Q 384 1609 779 1909 
Q 1175 2209 1959 2209 
L 2766 2209 
L 2766 2266 
Q 2766 2663 2505 2880 
Q 2244 3097 1772 3097 
Q 1472 3097 1187 3025 
Q 903 2953 641 2809 
L 641 3341 
Q 956 3463 1253 3523 
Q 1550 3584 1831 3584 
Q 2591 3584 2966 3190 
Q 3341 2797 3341 1997 
z
" transform="scale(0.015625)"/>
       <path id="DejaVuSans-72" d="M 2631 2963 
Q 2534 3019 2420 3045 
Q 2306 3072 2169 3072 
Q 1681 3072 1420 2755 
Q 1159 2438 1159 1844 
L 1159 0 
L 581 0 
L 581 3500 
L 1159 3500 
L 1159 2956 
Q 1341 3275 1631 3429 
Q 1922 3584 2338 3584 
Q 2397 3584 2469 3576 
Q 2541 3569 2628 3553 
L 2631 2963 
z
" transform="scale(0.015625)"/>
       <path id="DejaVuSans-6e" d="M 3513 2113 
L 3513 0 
L 2938 0 
L 2938 2094 
Q 2938 2591 2744 2837 
Q 2550 3084 2163 3084 
Q 1697 3084 1428 2787 
Q 1159 2491 1159 1978 
L 1159 0 
L 581 0 
L 581 3500 
L 1159 3500 
L 1159 2956 
Q 1366 3272 1645 3428 
Q 1925 3584 2291 3584 
Q 2894 3584 3203 3211 
Q 3513 2838 3513 2113 
z
" transform="scale(0.015625)"/>
       <path id="DejaVuSans-64" d="M 2906 2969 
L 2906 4863 
L 3481 4863 
L 3481 0 
L 2906 0 
L 2906 525 
Q 2725 213 2448 61 
Q 2172 -91 1784 -91 
Q 1150 -91 751 415 
Q 353 922 353 1747 
Q 353 2572 751 3078 
Q 1150 3584 1784 3584 
Q 2172 3584 2448 3432 
Q 2725 3281 2906 2969 
z
M 947 1747 
Q 947 1113 1208 752 
Q 1469 391 1925 391 
Q 2381 391 2643 752 
Q 2906 1113 2906 1747 
Q 2906 2381 2643 2742 
Q 2381 3103 1925 3103 
Q 1469 3103 1208 2742 
Q 947 2381 947 1747 
z
" transform="scale(0.015625)"/>
       <path id="DejaVuSans-20" transform="scale(0.015625)"/>
       <path id="DejaVuSans-45" d="M 628 4666 
L 3578 4666 
L 3578 4134 
L 1259 4134 
L 1259 2753 
L 3481 2753 
L 3481 2222 
L 1259 2222 
L 1259 531 
L 3634 531 
L 3634 0 
L 628 0 
L 628 4666 
z
" transform="scale(0.015625)"/>
       <path id="DejaVuSans-70" d="M 1159 525 
L 1159 -1331 
L 581 -1331 
L 581 3500 
L 1159 3500 
L 1159 2969 
Q 1341 3281 1617 3432 
Q 1894 3584 2278 3584 
Q 2916 3584 3314 3078 
Q 3713 2572 3713 1747 
Q 3713 922 3314 415 
Q 2916 -91 2278 -91 
Q 1894 -91 1617 61 
Q 1341 213 1159 525 
z
M 3116 1747 
Q 3116 2381 2855 2742 
Q 2594 3103 2138 3103 
Q 1681 3103 1420 2742 
Q 1159 2381 1159 1747 
Q 1159 1113 1420 752 
Q 1681 391 2138 391 
Q 2594 391 2855 752 
Q 3116 1113 3116 1747 
z
" transform="scale(0.015625)"/>
       <path id="DejaVuSans-69" d="M 603 3500 
L 1178 3500 
L 1178 0 
L 603 0 
L 603 3500 
z
M 603 4863 
L 1178 4863 
L 1178 4134 
L 603 4134 
L 603 4863 
z
" transform="scale(0.015625)"/>
       <path id="DejaVuSans-73" d="M 2834 3397 
L 2834 2853 
Q 2591 2978 2328 3040 
Q 2066 3103 1784 3103 
Q 1356 3103 1142 2972 
Q 928 2841 928 2578 
Q 928 2378 1081 2264 
Q 1234 2150 1697 2047 
L 1894 2003 
Q 2506 1872 2764 1633 
Q 3022 1394 3022 966 
Q 3022 478 2636 193 
Q 2250 -91 1575 -91 
Q 1294 -91 989 -36 
Q 684 19 347 128 
L 347 722 
Q 666 556 975 473 
Q 1284 391 1588 391 
Q 1994 391 2212 530 
Q 2431 669 2431 922 
Q 2431 1156 2273 1281 
Q 2116 1406 1581 1522 
L 1381 1569 
Q 847 1681 609 1914 
Q 372 2147 372 2553 
Q 372 3047 722 3315 
Q 1072 3584 1716 3584 
Q 2034 3584 2315 3537 
Q 2597 3491 2834 3397 
z
" transform="scale(0.015625)"/>
       <path id="DejaVuSans-6f" d="M 1959 3097 
Q 1497 3097 1228 2736 
Q 959 2375 959 1747 
Q 959 1119 1226 758 
Q 1494 397 1959 397 
Q 2419 397 2687 759 
Q 2956 1122 2956 1747 
Q 2956 2369 2687 2733 
Q 2419 3097 1959 3097 
z
M 1959 3584 
Q 2709 3584 3137 3096 
Q 3566 2609 3566 1747 
Q 3566 888 3137 398 
Q 2709 -91 1959 -91 
Q 1206 -91 779 398 
Q 353 888 353 1747 
Q 353 2609 779 3096 
Q 1206 3584 1959 3584 
z
" transform="scale(0.015625)"/>
      </defs>
      <use xlink:href="#DejaVuSans-4c"/>
      <use xlink:href="#DejaVuSans-65" x="53.962891"/>
      <use xlink:href="#DejaVuSans-61" x="115.486328"/>
      <use xlink:href="#DejaVuSans-72" x="176.765625"/>
      <use xlink:href="#DejaVuSans-6e" x="216.128906"/>
      <use xlink:href="#DejaVuSans-65" x="279.507812"/>
      <use xlink:href="#DejaVuSans-64" x="341.03125"/>
      <use xlink:href="#DejaVuSans-20" x="404.507812"/>
      <use xlink:href="#DejaVuSans-45" x="436.294922"/>
      <use xlink:href="#DejaVuSans-70" x="499.478516"/>
      <use xlink:href="#DejaVuSans-69" x="562.955078"/>
      <use xlink:href="#DejaVuSans-73" x="590.738281"/>
      <use xlink:href="#DejaVuSans-6f" x="642.837891"/>
      <use xlink:href="#DejaVuSans-64" x="704.019531"/>
      <use xlink:href="#DejaVuSans-65" x="767.496094"/>
      <use xlink:href="#DejaVuSans-73" x="829.019531"/>
     </g>
    </g>
   </g>
   <g id="matplotlib.axis_2">
    <g id="ytick_1">
     <g id="line2d_19">
      <path d="M 57.6 298.612482 
L 414.72 298.612482 
" clip-path="url(#p92e722a048)" style="fill: none; stroke-dasharray: 2.96,1.28; stroke-dashoffset: 0; stroke: #b0b0b0; stroke-width: 0.8"/>
     </g>
     <g id="line2d_20">
      <defs>
       <path id="mf28a5a52c8" d="M 0 0 
L -3.5 0 
" style="stroke: #000000; stroke-width: 0.8"/>
      </defs>
      <g>
       <use xlink:href="#mf28a5a52c8" x="57.6" y="298.612482" style="stroke: #000000; stroke-width: 0.8"/>
      </g>
     </g>
     <g id="text_11">
      <!-- 3 -->
      <g transform="translate(44.2375 302.411701)scale(0.1 -0.1)">
       <defs>
        <path id="DejaVuSans-33" d="M 2597 2516 
Q 3050 2419 3304 2112 
Q 3559 1806 3559 1356 
Q 3559 666 3084 287 
Q 2609 -91 1734 -91 
Q 1441 -91 1130 -33 
Q 819 25 488 141 
L 488 750 
Q 750 597 1062 519 
Q 1375 441 1716 441 
Q 2309 441 2620 675 
Q 2931 909 2931 1356 
Q 2931 1769 2642 2001 
Q 2353 2234 1838 2234 
L 1294 2234 
L 1294 2753 
L 1863 2753 
Q 2328 2753 2575 2939 
Q 2822 3125 2822 3475 
Q 2822 3834 2567 4026 
Q 2313 4219 1838 4219 
Q 1578 4219 1281 4162 
Q 984 4106 628 3988 
L 628 4550 
Q 988 4650 1302 4700 
Q 1616 4750 1894 4750 
Q 2613 4750 3031 4423 
Q 3450 4097 3450 3541 
Q 3450 3153 3228 2886 
Q 3006 2619 2597 2516 
z
" transform="scale(0.015625)"/>
       </defs>
       <use xlink:href="#DejaVuSans-33"/>
      </g>
     </g>
    </g>
    <g id="ytick_2">
     <g id="line2d_21">
      <path d="M 57.6 259.583105 
L 414.72 259.583105 
" clip-path="url(#p92e722a048)" style="fill: none; stroke-dasharray: 2.96,1.28; stroke-dashoffset: 0; stroke: #b0b0b0; stroke-width: 0.8"/>
     </g>
     <g id="line2d_22">
      <g>
       <use xlink:href="#mf28a5a52c8" x="57.6" y="259.583105" style="stroke: #000000; stroke-width: 0.8"/>
      </g>
     </g>
     <g id="text_12">
      <!-- 4 -->
      <g transform="translate(44.2375 263.382324)scale(0.1 -0.1)">
       <defs>
        <path id="DejaVuSans-34" d="M 2419 4116 
L 825 1625 
L 2419 1625 
L 2419 4116 
z
M 2253 4666 
L 3047 4666 
L 3047 1625 
L 3713 1625 
L 3713 1100 
L 3047 1100 
L 3047 0 
L 2419 0 
L 2419 1100 
L 313 1100 
L 313 1709 
L 2253 4666 
z
" transform="scale(0.015625)"/>
       </defs>
       <use xlink:href="#DejaVuSans-34"/>
      </g>
     </g>
    </g>
    <g id="ytick_3">
     <g id="line2d_23">
      <path d="M 57.6 220.553728 
L 414.72 220.553728 
" clip-path="url(#p92e722a048)" style="fill: none; stroke-dasharray: 2.96,1.28; stroke-dashoffset: 0; stroke: #b0b0b0; stroke-width: 0.8"/>
     </g>
     <g id="line2d_24">
      <g>
       <use xlink:href="#mf28a5a52c8" x="57.6" y="220.553728" style="stroke: #000000; stroke-width: 0.8"/>
      </g>
     </g>
     <g id="text_13">
      <!-- 5 -->
      <g transform="translate(44.2375 224.352947)scale(0.1 -0.1)">
       <use xlink:href="#DejaVuSans-35"/>
      </g>
     </g>
    </g>
    <g id="ytick_4">
     <g id="line2d_25">
      <path d="M 57.6 181.524351 
L 414.72 181.524351 
" clip-path="url(#p92e722a048)" style="fill: none; stroke-dasharray: 2.96,1.28; stroke-dashoffset: 0; stroke: #b0b0b0; stroke-width: 0.8"/>
     </g>
     <g id="line2d_26">
      <g>
       <use xlink:href="#mf28a5a52c8" x="57.6" y="181.524351" style="stroke: #000000; stroke-width: 0.8"/>
      </g>
     </g>
     <g id="text_14">
      <!-- 6 -->
      <g transform="translate(44.2375 185.323569)scale(0.1 -0.1)">
       <defs>
        <path id="DejaVuSans-36" d="M 2113 2584 
Q 1688 2584 1439 2293 
Q 1191 2003 1191 1497 
Q 1191 994 1439 701 
Q 1688 409 2113 409 
Q 2538 409 2786 701 
Q 3034 994 3034 1497 
Q 3034 2003 2786 2293 
Q 2538 2584 2113 2584 
z
M 3366 4563 
L 3366 3988 
Q 3128 4100 2886 4159 
Q 2644 4219 2406 4219 
Q 1781 4219 1451 3797 
Q 1122 3375 1075 2522 
Q 1259 2794 1537 2939 
Q 1816 3084 2150 3084 
Q 2853 3084 3261 2657 
Q 3669 2231 3669 1497 
Q 3669 778 3244 343 
Q 2819 -91 2113 -91 
Q 1303 -91 875 529 
Q 447 1150 447 2328 
Q 447 3434 972 4092 
Q 1497 4750 2381 4750 
Q 2619 4750 2861 4703 
Q 3103 4656 3366 4563 
z
" transform="scale(0.015625)"/>
       </defs>
       <use xlink:href="#DejaVuSans-36"/>
      </g>
     </g>
    </g>
    <g id="ytick_5">
     <g id="line2d_27">
      <path d="M 57.6 142.494973 
L 414.72 142.494973 
" clip-path="url(#p92e722a048)" style="fill: none; stroke-dasharray: 2.96,1.28; stroke-dashoffset: 0; stroke: #b0b0b0; stroke-width: 0.8"/>
     </g>
     <g id="line2d_28">
      <g>
       <use xlink:href="#mf28a5a52c8" x="57.6" y="142.494973" style="stroke: #000000; stroke-width: 0.8"/>
      </g>
     </g>
     <g id="text_15">
      <!-- 7 -->
      <g transform="translate(44.2375 146.294192)scale(0.1 -0.1)">
       <use xlink:href="#DejaVuSans-37"/>
      </g>
     </g>
    </g>
    <g id="ytick_6">
     <g id="line2d_29">
      <path d="M 57.6 103.465596 
L 414.72 103.465596 
" clip-path="url(#p92e722a048)" style="fill: none; stroke-dasharray: 2.96,1.28; stroke-dashoffset: 0; stroke: #b0b0b0; stroke-width: 0.8"/>
     </g>
     <g id="line2d_30">
      <g>
       <use xlink:href="#mf28a5a52c8" x="57.6" y="103.465596" style="stroke: #000000; stroke-width: 0.8"/>
      </g>
     </g>
     <g id="text_16">
      <!-- 8 -->
      <g transform="translate(44.2375 107.264815)scale(0.1 -0.1)">
       <defs>
        <path id="DejaVuSans-38" d="M 2034 2216 
Q 1584 2216 1326 1975 
Q 1069 1734 1069 1313 
Q 1069 891 1326 650 
Q 1584 409 2034 409 
Q 2484 409 2743 651 
Q 3003 894 3003 1313 
Q 3003 1734 2745 1975 
Q 2488 2216 2034 2216 
z
M 1403 2484 
Q 997 2584 770 2862 
Q 544 3141 544 3541 
Q 544 4100 942 4425 
Q 1341 4750 2034 4750 
Q 2731 4750 3128 4425 
Q 3525 4100 3525 3541 
Q 3525 3141 3298 2862 
Q 3072 2584 2669 2484 
Q 3125 2378 3379 2068 
Q 3634 1759 3634 1313 
Q 3634 634 3220 271 
Q 2806 -91 2034 -91 
Q 1263 -91 848 271 
Q 434 634 434 1313 
Q 434 1759 690 2068 
Q 947 2378 1403 2484 
z
M 1172 3481 
Q 1172 3119 1398 2916 
Q 1625 2713 2034 2713 
Q 2441 2713 2670 2916 
Q 2900 3119 2900 3481 
Q 2900 3844 2670 4047 
Q 2441 4250 2034 4250 
Q 1625 4250 1398 4047 
Q 1172 3844 1172 3481 
z
" transform="scale(0.015625)"/>
       </defs>
       <use xlink:href="#DejaVuSans-38"/>
      </g>
     </g>
    </g>
    <g id="ytick_7">
     <g id="line2d_31">
      <path d="M 57.6 64.436219 
L 414.72 64.436219 
" clip-path="url(#p92e722a048)" style="fill: none; stroke-dasharray: 2.96,1.28; stroke-dashoffset: 0; stroke: #b0b0b0; stroke-width: 0.8"/>
     </g>
     <g id="line2d_32">
      <g>
       <use xlink:href="#mf28a5a52c8" x="57.6" y="64.436219" style="stroke: #000000; stroke-width: 0.8"/>
      </g>
     </g>
     <g id="text_17">
      <!-- 9 -->
      <g transform="translate(44.2375 68.235438)scale(0.1 -0.1)">
       <defs>
        <path id="DejaVuSans-39" d="M 703 97 
L 703 672 
Q 941 559 1184 500 
Q 1428 441 1663 441 
Q 2288 441 2617 861 
Q 2947 1281 2994 2138 
Q 2813 1869 2534 1725 
Q 2256 1581 1919 1581 
Q 1219 1581 811 2004 
Q 403 2428 403 3163 
Q 403 3881 828 4315 
Q 1253 4750 1959 4750 
Q 2769 4750 3195 4129 
Q 3622 3509 3622 2328 
Q 3622 1225 3098 567 
Q 2575 -91 1691 -91 
Q 1453 -91 1209 -44 
Q 966 3 703 97 
z
M 1959 2075 
Q 2384 2075 2632 2365 
Q 2881 2656 2881 3163 
Q 2881 3666 2632 3958 
Q 2384 4250 1959 4250 
Q 1534 4250 1286 3958 
Q 1038 3666 1038 3163 
Q 1038 2656 1286 2365 
Q 1534 2075 1959 2075 
z
" transform="scale(0.015625)"/>
       </defs>
       <use xlink:href="#DejaVuSans-39"/>
      </g>
     </g>
    </g>
    <g id="text_18">
     <!-- Reward Density -->
     <g transform="translate(38.157812 213.74675)rotate(-90)scale(0.1 -0.1)">
      <defs>
       <path id="DejaVuSans-52" d="M 2841 2188 
Q 3044 2119 3236 1894 
Q 3428 1669 3622 1275 
L 4263 0 
L 3584 0 
L 2988 1197 
Q 2756 1666 2539 1819 
Q 2322 1972 1947 1972 
L 1259 1972 
L 1259 0 
L 628 0 
L 628 4666 
L 2053 4666 
Q 2853 4666 3247 4331 
Q 3641 3997 3641 3322 
Q 3641 2881 3436 2590 
Q 3231 2300 2841 2188 
z
M 1259 4147 
L 1259 2491 
L 2053 2491 
Q 2509 2491 2742 2702 
Q 2975 2913 2975 3322 
Q 2975 3731 2742 3939 
Q 2509 4147 2053 4147 
L 1259 4147 
z
" transform="scale(0.015625)"/>
       <path id="DejaVuSans-77" d="M 269 3500 
L 844 3500 
L 1563 769 
L 2278 3500 
L 2956 3500 
L 3675 769 
L 4391 3500 
L 4966 3500 
L 4050 0 
L 3372 0 
L 2619 2869 
L 1863 0 
L 1184 0 
L 269 3500 
z
" transform="scale(0.015625)"/>
       <path id="DejaVuSans-44" d="M 1259 4147 
L 1259 519 
L 2022 519 
Q 2988 519 3436 956 
Q 3884 1394 3884 2338 
Q 3884 3275 3436 3711 
Q 2988 4147 2022 4147 
L 1259 4147 
z
M 628 4666 
L 1925 4666 
Q 3281 4666 3915 4102 
Q 4550 3538 4550 2338 
Q 4550 1131 3912 565 
Q 3275 0 1925 0 
L 628 0 
L 628 4666 
z
" transform="scale(0.015625)"/>
       <path id="DejaVuSans-74" d="M 1172 4494 
L 1172 3500 
L 2356 3500 
L 2356 3053 
L 1172 3053 
L 1172 1153 
Q 1172 725 1289 603 
Q 1406 481 1766 481 
L 2356 481 
L 2356 0 
L 1766 0 
Q 1100 0 847 248 
Q 594 497 594 1153 
L 594 3053 
L 172 3053 
L 172 3500 
L 594 3500 
L 594 4494 
L 1172 4494 
z
" transform="scale(0.015625)"/>
       <path id="DejaVuSans-79" d="M 2059 -325 
Q 1816 -950 1584 -1140 
Q 1353 -1331 966 -1331 
L 506 -1331 
L 506 -850 
L 844 -850 
Q 1081 -850 1212 -737 
Q 1344 -625 1503 -206 
L 1606 56 
L 191 3500 
L 800 3500 
L 1894 763 
L 2988 3500 
L 3597 3500 
L 2059 -325 
z
" transform="scale(0.015625)"/>
      </defs>
      <use xlink:href="#DejaVuSans-52"/>
      <use xlink:href="#DejaVuSans-65" x="64.982422"/>
      <use xlink:href="#DejaVuSans-77" x="126.505859"/>
      <use xlink:href="#DejaVuSans-61" x="208.292969"/>
      <use xlink:href="#DejaVuSans-72" x="269.572266"/>
      <use xlink:href="#DejaVuSans-64" x="308.935547"/>
      <use xlink:href="#DejaVuSans-20" x="372.412109"/>
      <use xlink:href="#DejaVuSans-44" x="404.199219"/>
      <use xlink:href="#DejaVuSans-65" x="481.201172"/>
      <use xlink:href="#DejaVuSans-6e" x="542.724609"/>
      <use xlink:href="#DejaVuSans-73" x="606.103516"/>
      <use xlink:href="#DejaVuSans-69" x="658.203125"/>
      <use xlink:href="#DejaVuSans-74" x="685.986328"/>
      <use xlink:href="#DejaVuSans-79" x="725.195312"/>
     </g>
    </g>
   </g>
   <g id="LineCollection_1">
    <path d="M 90.919809 193.620863 
L 125.093971 193.620863 
" clip-path="url(#p92e722a048)" style="fill: none; stroke: #1f77b4; stroke-width: 1.5"/>
    <path d="M 176.355215 191.541368 
L 210.529378 191.541368 
" clip-path="url(#p92e722a048)" style="fill: none; stroke: #1f77b4; stroke-width: 1.5"/>
    <path d="M 261.790622 237.123137 
L 295.964785 237.123137 
" clip-path="url(#p92e722a048)" style="fill: none; stroke: #1f77b4; stroke-width: 1.5"/>
    <path d="M 347.226029 240.366856 
L 381.400191 240.366856 
" clip-path="url(#p92e722a048)" style="fill: none; stroke: #1f77b4; stroke-width: 1.5"/>
   </g>
   <g id="LineCollection_2">
    <path d="M 90.919809 53.568 
L 125.093971 53.568 
" clip-path="url(#p92e722a048)" style="fill: none; stroke: #1f77b4; stroke-width: 1.5"/>
    <path d="M 176.355215 65.947988 
L 210.529378 65.947988 
" clip-path="url(#p92e722a048)" style="fill: none; stroke: #1f77b4; stroke-width: 1.5"/>
    <path d="M 261.790622 89.285669 
L 295.964785 89.285669 
" clip-path="url(#p92e722a048)" style="fill: none; stroke: #1f77b4; stroke-width: 1.5"/>
    <path d="M 347.226029 113.136635 
L 381.400191 113.136635 
" clip-path="url(#p92e722a048)" style="fill: none; stroke: #1f77b4; stroke-width: 1.5"/>
   </g>
   <g id="LineCollection_3">
    <path d="M 90.919809 261.01762 
L 125.093971 261.01762 
" clip-path="url(#p92e722a048)" style="fill: none; stroke: #1f77b4; stroke-width: 1.5"/>
    <path d="M 176.355215 277.62807 
L 210.529378 277.62807 
" clip-path="url(#p92e722a048)" style="fill: none; stroke: #1f77b4; stroke-width: 1.5"/>
    <path d="M 261.790622 295.488 
L 295.964785 295.488 
" clip-path="url(#p92e722a048)" style="fill: none; stroke: #1f77b4; stroke-width: 1.5"/>
    <path d="M 347.226029 277.202472 
L 381.400191 277.202472 
" clip-path="url(#p92e722a048)" style="fill: none; stroke: #1f77b4; stroke-width: 1.5"/>
   </g>
   <g id="LineCollection_4">
    <path d="M 108.00689 261.01762 
L 108.00689 53.568 
" clip-path="url(#p92e722a048)" style="fill: none; stroke: #1f77b4; stroke-width: 1.5"/>
    <path d="M 193.442297 277.62807 
L 193.442297 65.947988 
" clip-path="url(#p92e722a048)" style="fill: none; stroke: #1f77b4; stroke-width: 1.5"/>
    <path d="M 278.877703 295.488 
L 278.877703 89.285669 
" clip-path="url(#p92e722a048)" style="fill: none; stroke: #1f77b4; stroke-width: 1.5"/>
    <path d="M 364.31311 277.202472 
L 364.31311 113.136635 
" clip-path="url(#p92e722a048)" style="fill: none; stroke: #1f77b4; stroke-width: 1.5"/>
   </g>
   <g id="line2d_33">
    <path d="M 108.00689 193.620863 
L 193.442297 191.541368 
L 278.877703 237.123137 
L 364.31311 240.366856 
" clip-path="url(#p92e722a048)" style="fill: none; stroke: #4682b4; stroke-width: 1.5; stroke-linecap: square"/>
   </g>
   <g id="line2d_34">
    <path d="M 108.00689 193.620863 
L 193.442297 191.541368 
L 278.877703 237.123137 
L 364.31311 240.366856 
" clip-path="url(#p92e722a048)" style="fill: none; stroke: #4682b4; stroke-width: 1.5; stroke-linecap: square"/>
   </g>
   <g id="patch_3">
    <path d="M 57.6 307.584 
L 57.6 41.472 
" style="fill: none; stroke: #000000; stroke-width: 0.8; stroke-linejoin: miter; stroke-linecap: square"/>
   </g>
   <g id="patch_4">
    <path d="M 414.72 307.584 
L 414.72 41.472 
" style="fill: none; stroke: #000000; stroke-width: 0.8; stroke-linejoin: miter; stroke-linecap: square"/>
   </g>
   <g id="patch_5">
    <path d="M 57.6 307.584 
L 414.72 307.584 
" style="fill: none; stroke: #000000; stroke-width: 0.8; stroke-linejoin: miter; stroke-linecap: square"/>
   </g>
   <g id="patch_6">
    <path d="M 57.6 41.472 
L 414.72 41.472 
" style="fill: none; stroke: #000000; stroke-width: 0.8; stroke-linejoin: miter; stroke-linecap: square"/>
   </g>
   <g id="text_19">
    <!-- Violinplot for progress of actions/price_refurbished -->
    <g transform="translate(84.801562 35.472)scale(0.12 -0.12)">
     <defs>
      <path id="DejaVuSans-56" d="M 1831 0 
L 50 4666 
L 709 4666 
L 2188 738 
L 3669 4666 
L 4325 4666 
L 2547 0 
L 1831 0 
z
" transform="scale(0.015625)"/>
      <path id="DejaVuSans-6c" d="M 603 4863 
L 1178 4863 
L 1178 0 
L 603 0 
L 603 4863 
z
" transform="scale(0.015625)"/>
      <path id="DejaVuSans-66" d="M 2375 4863 
L 2375 4384 
L 1825 4384 
Q 1516 4384 1395 4259 
Q 1275 4134 1275 3809 
L 1275 3500 
L 2222 3500 
L 2222 3053 
L 1275 3053 
L 1275 0 
L 697 0 
L 697 3053 
L 147 3053 
L 147 3500 
L 697 3500 
L 697 3744 
Q 697 4328 969 4595 
Q 1241 4863 1831 4863 
L 2375 4863 
z
" transform="scale(0.015625)"/>
      <path id="DejaVuSans-67" d="M 2906 1791 
Q 2906 2416 2648 2759 
Q 2391 3103 1925 3103 
Q 1463 3103 1205 2759 
Q 947 2416 947 1791 
Q 947 1169 1205 825 
Q 1463 481 1925 481 
Q 2391 481 2648 825 
Q 2906 1169 2906 1791 
z
M 3481 434 
Q 3481 -459 3084 -895 
Q 2688 -1331 1869 -1331 
Q 1566 -1331 1297 -1286 
Q 1028 -1241 775 -1147 
L 775 -588 
Q 1028 -725 1275 -790 
Q 1522 -856 1778 -856 
Q 2344 -856 2625 -561 
Q 2906 -266 2906 331 
L 2906 616 
Q 2728 306 2450 153 
Q 2172 0 1784 0 
Q 1141 0 747 490 
Q 353 981 353 1791 
Q 353 2603 747 3093 
Q 1141 3584 1784 3584 
Q 2172 3584 2450 3431 
Q 2728 3278 2906 2969 
L 2906 3500 
L 3481 3500 
L 3481 434 
z
" transform="scale(0.015625)"/>
      <path id="DejaVuSans-63" d="M 3122 3366 
L 3122 2828 
Q 2878 2963 2633 3030 
Q 2388 3097 2138 3097 
Q 1578 3097 1268 2742 
Q 959 2388 959 1747 
Q 959 1106 1268 751 
Q 1578 397 2138 397 
Q 2388 397 2633 464 
Q 2878 531 3122 666 
L 3122 134 
Q 2881 22 2623 -34 
Q 2366 -91 2075 -91 
Q 1284 -91 818 406 
Q 353 903 353 1747 
Q 353 2603 823 3093 
Q 1294 3584 2113 3584 
Q 2378 3584 2631 3529 
Q 2884 3475 3122 3366 
z
" transform="scale(0.015625)"/>
      <path id="DejaVuSans-2f" d="M 1625 4666 
L 2156 4666 
L 531 -594 
L 0 -594 
L 1625 4666 
z
" transform="scale(0.015625)"/>
      <path id="DejaVuSans-5f" d="M 3263 -1063 
L 3263 -1509 
L -63 -1509 
L -63 -1063 
L 3263 -1063 
z
" transform="scale(0.015625)"/>
      <path id="DejaVuSans-75" d="M 544 1381 
L 544 3500 
L 1119 3500 
L 1119 1403 
Q 1119 906 1312 657 
Q 1506 409 1894 409 
Q 2359 409 2629 706 
Q 2900 1003 2900 1516 
L 2900 3500 
L 3475 3500 
L 3475 0 
L 2900 0 
L 2900 538 
Q 2691 219 2414 64 
Q 2138 -91 1772 -91 
Q 1169 -91 856 284 
Q 544 659 544 1381 
z
M 1991 3584 
L 1991 3584 
z
" transform="scale(0.015625)"/>
      <path id="DejaVuSans-62" d="M 3116 1747 
Q 3116 2381 2855 2742 
Q 2594 3103 2138 3103 
Q 1681 3103 1420 2742 
Q 1159 2381 1159 1747 
Q 1159 1113 1420 752 
Q 1681 391 2138 391 
Q 2594 391 2855 752 
Q 3116 1113 3116 1747 
z
M 1159 2969 
Q 1341 3281 1617 3432 
Q 1894 3584 2278 3584 
Q 2916 3584 3314 3078 
Q 3713 2572 3713 1747 
Q 3713 922 3314 415 
Q 2916 -91 2278 -91 
Q 1894 -91 1617 61 
Q 1341 213 1159 525 
L 1159 0 
L 581 0 
L 581 4863 
L 1159 4863 
L 1159 2969 
z
" transform="scale(0.015625)"/>
      <path id="DejaVuSans-68" d="M 3513 2113 
L 3513 0 
L 2938 0 
L 2938 2094 
Q 2938 2591 2744 2837 
Q 2550 3084 2163 3084 
Q 1697 3084 1428 2787 
Q 1159 2491 1159 1978 
L 1159 0 
L 581 0 
L 581 4863 
L 1159 4863 
L 1159 2956 
Q 1366 3272 1645 3428 
Q 1925 3584 2291 3584 
Q 2894 3584 3203 3211 
Q 3513 2838 3513 2113 
z
" transform="scale(0.015625)"/>
     </defs>
     <use xlink:href="#DejaVuSans-56"/>
     <use xlink:href="#DejaVuSans-69" x="66.158203"/>
     <use xlink:href="#DejaVuSans-6f" x="93.941406"/>
     <use xlink:href="#DejaVuSans-6c" x="155.123047"/>
     <use xlink:href="#DejaVuSans-69" x="182.90625"/>
     <use xlink:href="#DejaVuSans-6e" x="210.689453"/>
     <use xlink:href="#DejaVuSans-70" x="274.068359"/>
     <use xlink:href="#DejaVuSans-6c" x="337.544922"/>
     <use xlink:href="#DejaVuSans-6f" x="365.328125"/>
     <use xlink:href="#DejaVuSans-74" x="426.509766"/>
     <use xlink:href="#DejaVuSans-20" x="465.71875"/>
     <use xlink:href="#DejaVuSans-66" x="497.505859"/>
     <use xlink:href="#DejaVuSans-6f" x="532.710938"/>
     <use xlink:href="#DejaVuSans-72" x="593.892578"/>
     <use xlink:href="#DejaVuSans-20" x="635.005859"/>
     <use xlink:href="#DejaVuSans-70" x="666.792969"/>
     <use xlink:href="#DejaVuSans-72" x="730.269531"/>
     <use xlink:href="#DejaVuSans-6f" x="769.132812"/>
     <use xlink:href="#DejaVuSans-67" x="830.314453"/>
     <use xlink:href="#DejaVuSans-72" x="893.791016"/>
     <use xlink:href="#DejaVuSans-65" x="932.654297"/>
     <use xlink:href="#DejaVuSans-73" x="994.177734"/>
     <use xlink:href="#DejaVuSans-73" x="1046.277344"/>
     <use xlink:href="#DejaVuSans-20" x="1098.376953"/>
     <use xlink:href="#DejaVuSans-6f" x="1130.164062"/>
     <use xlink:href="#DejaVuSans-66" x="1191.345703"/>
     <use xlink:href="#DejaVuSans-20" x="1226.550781"/>
     <use xlink:href="#DejaVuSans-61" x="1258.337891"/>
     <use xlink:href="#DejaVuSans-63" x="1319.617188"/>
     <use xlink:href="#DejaVuSans-74" x="1374.597656"/>
     <use xlink:href="#DejaVuSans-69" x="1413.806641"/>
     <use xlink:href="#DejaVuSans-6f" x="1441.589844"/>
     <use xlink:href="#DejaVuSans-6e" x="1502.771484"/>
     <use xlink:href="#DejaVuSans-73" x="1566.150391"/>
     <use xlink:href="#DejaVuSans-2f" x="1618.25"/>
     <use xlink:href="#DejaVuSans-70" x="1651.941406"/>
     <use xlink:href="#DejaVuSans-72" x="1715.417969"/>
     <use xlink:href="#DejaVuSans-69" x="1756.53125"/>
     <use xlink:href="#DejaVuSans-63" x="1784.314453"/>
     <use xlink:href="#DejaVuSans-65" x="1839.294922"/>
     <use xlink:href="#DejaVuSans-5f" x="1900.818359"/>
     <use xlink:href="#DejaVuSans-72" x="1950.818359"/>
     <use xlink:href="#DejaVuSans-65" x="1989.681641"/>
     <use xlink:href="#DejaVuSans-66" x="2051.205078"/>
     <use xlink:href="#DejaVuSans-75" x="2086.410156"/>
     <use xlink:href="#DejaVuSans-72" x="2149.789062"/>
     <use xlink:href="#DejaVuSans-62" x="2190.902344"/>
     <use xlink:href="#DejaVuSans-69" x="2254.378906"/>
     <use xlink:href="#DejaVuSans-73" x="2282.162109"/>
     <use xlink:href="#DejaVuSans-68" x="2334.261719"/>
     <use xlink:href="#DejaVuSans-65" x="2397.640625"/>
     <use xlink:href="#DejaVuSans-64" x="2459.164062"/>
    </g>
   </g>
   <g id="legend_1">
    <g id="patch_7">
     <path d="M 276.25125 64.150125 
L 407.72 64.150125 
Q 409.72 64.150125 409.72 62.150125 
L 409.72 48.472 
Q 409.72 46.472 407.72 46.472 
L 276.25125 46.472 
Q 274.25125 46.472 274.25125 48.472 
L 274.25125 62.150125 
Q 274.25125 64.150125 276.25125 64.150125 
z
" style="fill: #ffffff; opacity: 0.8; stroke: #cccccc; stroke-linejoin: miter"/>
    </g>
    <g id="line2d_35">
     <path d="M 278.25125 54.570438 
L 288.25125 54.570438 
L 298.25125 54.570438 
" style="fill: none; stroke: #4682b4; stroke-width: 1.5; stroke-linecap: square"/>
    </g>
    <g id="text_20">
     <!-- StableBaselinesSAC -->
     <g transform="translate(306.25125 58.070438)scale(0.1 -0.1)">
      <defs>
       <path id="DejaVuSans-53" d="M 3425 4513 
L 3425 3897 
Q 3066 4069 2747 4153 
Q 2428 4238 2131 4238 
Q 1616 4238 1336 4038 
Q 1056 3838 1056 3469 
Q 1056 3159 1242 3001 
Q 1428 2844 1947 2747 
L 2328 2669 
Q 3034 2534 3370 2195 
Q 3706 1856 3706 1288 
Q 3706 609 3251 259 
Q 2797 -91 1919 -91 
Q 1588 -91 1214 -16 
Q 841 59 441 206 
L 441 856 
Q 825 641 1194 531 
Q 1563 422 1919 422 
Q 2459 422 2753 634 
Q 3047 847 3047 1241 
Q 3047 1584 2836 1778 
Q 2625 1972 2144 2069 
L 1759 2144 
Q 1053 2284 737 2584 
Q 422 2884 422 3419 
Q 422 4038 858 4394 
Q 1294 4750 2059 4750 
Q 2388 4750 2728 4690 
Q 3069 4631 3425 4513 
z
" transform="scale(0.015625)"/>
       <path id="DejaVuSans-42" d="M 1259 2228 
L 1259 519 
L 2272 519 
Q 2781 519 3026 730 
Q 3272 941 3272 1375 
Q 3272 1813 3026 2020 
Q 2781 2228 2272 2228 
L 1259 2228 
z
M 1259 4147 
L 1259 2741 
L 2194 2741 
Q 2656 2741 2882 2914 
Q 3109 3088 3109 3444 
Q 3109 3797 2882 3972 
Q 2656 4147 2194 4147 
L 1259 4147 
z
M 628 4666 
L 2241 4666 
Q 2963 4666 3353 4366 
Q 3744 4066 3744 3513 
Q 3744 3084 3544 2831 
Q 3344 2578 2956 2516 
Q 3422 2416 3680 2098 
Q 3938 1781 3938 1306 
Q 3938 681 3513 340 
Q 3088 0 2303 0 
L 628 0 
L 628 4666 
z
" transform="scale(0.015625)"/>
       <path id="DejaVuSans-41" d="M 2188 4044 
L 1331 1722 
L 3047 1722 
L 2188 4044 
z
M 1831 4666 
L 2547 4666 
L 4325 0 
L 3669 0 
L 3244 1197 
L 1141 1197 
L 716 0 
L 50 0 
L 1831 4666 
z
" transform="scale(0.015625)"/>
       <path id="DejaVuSans-43" d="M 4122 4306 
L 4122 3641 
Q 3803 3938 3442 4084 
Q 3081 4231 2675 4231 
Q 1875 4231 1450 3742 
Q 1025 3253 1025 2328 
Q 1025 1406 1450 917 
Q 1875 428 2675 428 
Q 3081 428 3442 575 
Q 3803 722 4122 1019 
L 4122 359 
Q 3791 134 3420 21 
Q 3050 -91 2638 -91 
Q 1578 -91 968 557 
Q 359 1206 359 2328 
Q 359 3453 968 4101 
Q 1578 4750 2638 4750 
Q 3056 4750 3426 4639 
Q 3797 4528 4122 4306 
z
" transform="scale(0.015625)"/>
      </defs>
      <use xlink:href="#DejaVuSans-53"/>
      <use xlink:href="#DejaVuSans-74" x="63.476562"/>
      <use xlink:href="#DejaVuSans-61" x="102.685547"/>
      <use xlink:href="#DejaVuSans-62" x="163.964844"/>
      <use xlink:href="#DejaVuSans-6c" x="227.441406"/>
      <use xlink:href="#DejaVuSans-65" x="255.224609"/>
      <use xlink:href="#DejaVuSans-42" x="316.748047"/>
      <use xlink:href="#DejaVuSans-61" x="385.351562"/>
      <use xlink:href="#DejaVuSans-73" x="446.630859"/>
      <use xlink:href="#DejaVuSans-65" x="498.730469"/>
      <use xlink:href="#DejaVuSans-6c" x="560.253906"/>
      <use xlink:href="#DejaVuSans-69" x="588.037109"/>
      <use xlink:href="#DejaVuSans-6e" x="615.820312"/>
      <use xlink:href="#DejaVuSans-65" x="679.199219"/>
      <use xlink:href="#DejaVuSans-73" x="740.722656"/>
      <use xlink:href="#DejaVuSans-53" x="792.822266"/>
      <use xlink:href="#DejaVuSans-41" x="858.173828"/>
      <use xlink:href="#DejaVuSans-43" x="924.832031"/>
     </g>
    </g>
   </g>
  </g>
 </g>
 <defs>
  <clipPath id="p92e722a048">
   <rect x="57.6" y="41.472" width="357.12" height="266.112"/>
  </clipPath>
 </defs>
</svg>
