<?xml version="1.0" encoding="utf-8" standalone="no"?>
<!DOCTYPE svg PUBLIC "-//W3C//DTD SVG 1.1//EN"
  "http://www.w3.org/Graphics/SVG/1.1/DTD/svg11.dtd">
<svg xmlns:xlink="http://www.w3.org/1999/xlink" width="460.8pt" height="345.6pt" viewBox="0 0 460.8 345.6" xmlns="http://www.w3.org/2000/svg" version="1.1">
 <metadata>
  <rdf:RDF xmlns:dc="http://purl.org/dc/elements/1.1/" xmlns:cc="http://creativecommons.org/ns#" xmlns:rdf="http://www.w3.org/1999/02/22-rdf-syntax-ns#">
   <cc:Work>
    <dc:type rdf:resource="http://purl.org/dc/dcmitype/StillImage"/>
    <dc:date>2022-06-20T17:59:10.671798</dc:date>
    <dc:format>image/svg+xml</dc:format>
    <dc:creator>
     <cc:Agent>
      <dc:title>Matplotlib v3.5.2, https://matplotlib.org/</dc:title>
     </cc:Agent>
    </dc:creator>
   </cc:Work>
  </rdf:RDF>
 </metadata>
 <defs>
  <style type="text/css">*{stroke-linejoin: round; stroke-linecap: butt}</style>
 </defs>
 <g id="figure_1">
  <g id="patch_1">
   <path d="M 0 345.6 
L 460.8 345.6 
L 460.8 0 
L 0 0 
z
" style="fill: #ffffff"/>
  </g>
  <g id="axes_1">
   <g id="patch_2">
    <path d="M 57.6 307.584 
L 414.72 307.584 
L 414.72 41.472 
L 57.6 41.472 
z
" style="fill: #ffffff"/>
   </g>
   <g id="PolyCollection_1">
    <path d="M 116.097108 295.488 
L 99.916672 295.488 
L 99.425107 293.782786 
L 99.036519 292.077573 
L 98.748976 290.372359 
L 98.551353 288.667145 
L 98.424573 286.961932 
L 98.343749 285.256718 
L 98.280928 283.551504 
L 98.208085 281.846291 
L 98.100001 280.141077 
L 97.936702 278.435863 
L 97.705205 276.73065 
L 97.400434 275.025436 
L 97.025253 273.320222 
L 96.589672 271.615009 
L 96.109356 269.909795 
L 95.603621 268.204581 
L 95.093128 266.499368 
L 94.59753 264.794154 
L 94.133285 263.08894 
L 93.711879 261.383727 
L 93.338614 259.678513 
L 93.012126 257.973299 
L 92.724657 256.268086 
L 92.463061 254.562872 
L 92.210408 252.857658 
L 91.947968 251.152445 
L 91.657282 249.447231 
L 91.322025 247.742017 
L 90.929396 246.036804 
L 90.470854 244.33159 
L 89.942151 242.626376 
L 89.342758 240.921163 
L 88.674871 239.215949 
L 87.942312 237.510735 
L 87.149577 235.805522 
L 86.301294 234.100308 
L 85.402182 232.395094 
L 84.457498 230.689881 
L 83.473816 228.984667 
L 82.459889 227.279453 
L 81.42734 225.57424 
L 80.390942 223.869026 
L 79.368372 222.163812 
L 78.379436 220.458599 
L 77.444899 218.753385 
L 76.585119 217.048171 
L 75.818764 215.342958 
L 75.161796 213.637744 
L 74.626905 211.93253 
L 74.223398 210.227317 
L 73.957472 208.522103 
L 73.832727 206.816889 
L 73.850711 205.111676 
L 74.011314 203.406462 
L 74.312911 201.701248 
L 74.752209 199.996035 
L 75.323877 198.290821 
L 76.0201 196.585607 
L 76.830217 194.880394 
L 77.740636 193.17518 
L 78.735119 191.469966 
L 79.79547 189.764753 
L 80.902584 188.059539 
L 82.037688 186.354325 
L 83.183623 184.649112 
L 84.325936 182.943898 
L 85.453645 181.238684 
L 86.55956 179.533471 
L 87.640132 177.828257 
L 88.694887 176.123043 
L 89.725549 174.41783 
L 90.734998 172.712616 
L 91.726224 171.007402 
L 92.701416 169.302189 
L 93.661289 167.596975 
L 94.604734 165.891761 
L 95.528797 164.186548 
L 96.428967 162.481334 
L 97.29972 160.77612 
L 98.13521 159.070907 
L 98.93002 157.365693 
L 99.679835 155.660479 
L 100.38196 153.955266 
L 101.035593 152.250052 
L 101.641834 150.544838 
L 102.203421 148.839625 
L 102.724269 147.134411 
L 103.208885 145.429197 
L 103.661758 143.723984 
L 104.086829 142.01877 
L 104.487126 140.313556 
L 104.864579 138.608343 
L 105.220051 136.903129 
L 105.553527 135.197915 
L 105.864415 133.492702 
L 106.151875 131.787488 
L 106.415134 130.082274 
L 106.65372 128.377061 
L 106.8676 126.671847 
L 109.146179 126.671847 
L 109.146179 126.671847 
L 109.36006 128.377061 
L 109.598646 130.082274 
L 109.861905 131.787488 
L 110.149365 133.492702 
L 110.460253 135.197915 
L 110.793729 136.903129 
L 111.149201 138.608343 
L 111.526654 140.313556 
L 111.92695 142.01877 
L 112.352022 143.723984 
L 112.804895 145.429197 
L 113.289511 147.134411 
L 113.810359 148.839625 
L 114.371946 150.544838 
L 114.978186 152.250052 
L 115.63182 153.955266 
L 116.333945 155.660479 
L 117.08376 157.365693 
L 117.87857 159.070907 
L 118.71406 160.77612 
L 119.584813 162.481334 
L 120.484983 164.186548 
L 121.409046 165.891761 
L 122.352491 167.596975 
L 123.312364 169.302189 
L 124.287555 171.007402 
L 125.278782 172.712616 
L 126.288231 174.41783 
L 127.318893 176.123043 
L 128.373648 177.828257 
L 129.45422 179.533471 
L 130.560134 181.238684 
L 131.687844 182.943898 
L 132.830157 184.649112 
L 133.976092 186.354325 
L 135.111196 188.059539 
L 136.21831 189.764753 
L 137.278661 191.469966 
L 138.273143 193.17518 
L 139.183563 194.880394 
L 139.99368 196.585607 
L 140.689903 198.290821 
L 141.261571 199.996035 
L 141.700869 201.701248 
L 142.002465 203.406462 
L 142.163069 205.111676 
L 142.181053 206.816889 
L 142.056308 208.522103 
L 141.790382 210.227317 
L 141.386875 211.93253 
L 140.851984 213.637744 
L 140.195016 215.342958 
L 139.42866 217.048171 
L 138.568881 218.753385 
L 137.634344 220.458599 
L 136.645408 222.163812 
L 135.622838 223.869026 
L 134.58644 225.57424 
L 133.553891 227.279453 
L 132.539964 228.984667 
L 131.556281 230.689881 
L 130.611598 232.395094 
L 129.712486 234.100308 
L 128.864203 235.805522 
L 128.071468 237.510735 
L 127.338909 239.215949 
L 126.671022 240.921163 
L 126.071629 242.626376 
L 125.542926 244.33159 
L 125.084384 246.036804 
L 124.691755 247.742017 
L 124.356498 249.447231 
L 124.065812 251.152445 
L 123.803372 252.857658 
L 123.550719 254.562872 
L 123.289123 256.268086 
L 123.001654 257.973299 
L 122.675166 259.678513 
L 122.301901 261.383727 
L 121.880494 263.08894 
L 121.41625 264.794154 
L 120.920652 266.499368 
L 120.410159 268.204581 
L 119.904424 269.909795 
L 119.424108 271.615009 
L 118.988527 273.320222 
L 118.613346 275.025436 
L 118.308575 276.73065 
L 118.077078 278.435863 
L 117.913779 280.141077 
L 117.805695 281.846291 
L 117.732851 283.551504 
L 117.670031 285.256718 
L 117.589207 286.961932 
L 117.462427 288.667145 
L 117.264804 290.372359 
L 116.977261 292.077573 
L 116.588673 293.782786 
L 116.097108 295.488 
z
" clip-path="url(#p5706989744)" style="fill: #1f77b4; fill-opacity: 0.3"/>
   </g>
   <g id="PolyCollection_2">
    <path d="M 197.743881 295.488 
L 189.140712 295.488 
L 188.959663 293.121378 
L 188.850367 290.754756 
L 188.80699 288.388134 
L 188.817363 286.021512 
L 188.864399 283.65489 
L 188.928107 281.288268 
L 188.98786 278.921646 
L 189.024595 276.555024 
L 189.022601 274.188402 
L 188.970688 271.82178 
L 188.862627 269.455158 
L 188.696889 267.088536 
L 188.475817 264.721914 
L 188.20444 262.355292 
L 187.889168 259.98867 
L 187.536572 257.622047 
L 187.152419 255.255425 
L 186.741038 252.888803 
L 186.305066 250.522181 
L 185.845524 248.155559 
L 185.362184 245.788937 
L 184.854126 243.422315 
L 184.320424 241.055693 
L 183.760848 238.689071 
L 183.176482 236.322449 
L 182.570162 233.955827 
L 181.946618 231.589205 
L 181.312256 229.222583 
L 180.674541 226.855961 
L 180.041045 224.489339 
L 179.418268 222.122717 
L 178.81044 219.756095 
L 178.21853 217.389473 
L 177.639684 215.022851 
L 177.067234 212.656229 
L 176.491354 210.289607 
L 175.900267 207.922985 
L 175.281852 205.556363 
L 174.625356 203.189741 
L 173.922969 200.823119 
L 173.170974 198.456497 
L 172.370332 196.089875 
L 171.526604 193.723253 
L 170.649291 191.356631 
L 169.750702 188.990009 
L 168.844568 186.623386 
L 167.944615 184.256764 
L 167.063294 181.890142 
L 166.210821 179.52352 
L 165.394615 177.156898 
L 164.619173 174.790276 
L 163.886352 172.423654 
L 163.196024 170.057032 
L 162.547028 167.69041 
L 161.938332 165.323788 
L 161.370321 162.957166 
L 160.846047 160.590544 
L 160.372302 158.223922 
L 159.960276 155.8573 
L 159.625618 153.490678 
L 159.387716 151.124056 
L 159.268134 148.757434 
L 159.288296 146.390812 
L 159.466672 144.02419 
L 159.815876 141.657568 
L 160.3402 139.290946 
L 161.034043 136.924324 
L 161.881625 134.557702 
L 162.858121 132.19108 
L 163.932097 129.824458 
L 165.068881 127.457836 
L 166.234316 125.091214 
L 167.3983 122.724592 
L 168.537533 120.35797 
L 169.637117 117.991348 
L 170.690842 115.624725 
L 171.700254 113.258103 
L 172.672806 110.891481 
L 173.619496 108.524859 
L 174.552449 106.158237 
L 175.482815 103.791615 
L 176.41925 101.424993 
L 177.367081 99.058371 
L 178.328124 96.691749 
L 179.301012 94.325127 
L 180.281843 91.958505 
L 181.264946 89.591883 
L 182.243612 87.225261 
L 183.210685 84.858639 
L 184.158977 82.492017 
L 185.081522 80.125395 
L 185.971718 77.758773 
L 186.8234 75.392151 
L 187.63091 73.025529 
L 188.389183 70.658907 
L 189.093866 68.292285 
L 189.741459 65.925663 
L 190.329466 63.559041 
L 190.856525 61.192419 
L 196.028069 61.192419 
L 196.028069 61.192419 
L 196.555128 63.559041 
L 197.143135 65.925663 
L 197.790728 68.292285 
L 198.49541 70.658907 
L 199.253684 73.025529 
L 200.061194 75.392151 
L 200.912875 77.758773 
L 201.803071 80.125395 
L 202.725617 82.492017 
L 203.673908 84.858639 
L 204.640981 87.225261 
L 205.619648 89.591883 
L 206.60275 91.958505 
L 207.583581 94.325127 
L 208.556469 96.691749 
L 209.517512 99.058371 
L 210.465344 101.424993 
L 211.401779 103.791615 
L 212.332144 106.158237 
L 213.265097 108.524859 
L 214.211787 110.891481 
L 215.184339 113.258103 
L 216.193752 115.624725 
L 217.247476 117.991348 
L 218.34706 120.35797 
L 219.486293 122.724592 
L 220.650277 125.091214 
L 221.815713 127.457836 
L 222.952496 129.824458 
L 224.026472 132.19108 
L 225.002968 134.557702 
L 225.85055 136.924324 
L 226.544393 139.290946 
L 227.068717 141.657568 
L 227.417922 144.02419 
L 227.596297 146.390812 
L 227.616459 148.757434 
L 227.496878 151.124056 
L 227.258976 153.490678 
L 226.924318 155.8573 
L 226.512291 158.223922 
L 226.038546 160.590544 
L 225.514273 162.957166 
L 224.946261 165.323788 
L 224.337566 167.69041 
L 223.688569 170.057032 
L 222.998242 172.423654 
L 222.265421 174.790276 
L 221.489978 177.156898 
L 220.673773 179.52352 
L 219.821299 181.890142 
L 218.939979 184.256764 
L 218.040026 186.623386 
L 217.133891 188.990009 
L 216.235302 191.356631 
L 215.357989 193.723253 
L 214.514261 196.089875 
L 213.713619 198.456497 
L 212.961625 200.823119 
L 212.259237 203.189741 
L 211.602741 205.556363 
L 210.984326 207.922985 
L 210.39324 210.289607 
L 209.817359 212.656229 
L 209.244909 215.022851 
L 208.666063 217.389473 
L 208.074154 219.756095 
L 207.466326 222.122717 
L 206.843548 224.489339 
L 206.210052 226.855961 
L 205.572338 229.222583 
L 204.937975 231.589205 
L 204.314431 233.955827 
L 203.708111 236.322449 
L 203.123745 238.689071 
L 202.564169 241.055693 
L 202.030468 243.422315 
L 201.52241 245.788937 
L 201.039069 248.155559 
L 200.579528 250.522181 
L 200.143555 252.888803 
L 199.732175 255.255425 
L 199.348021 257.622047 
L 198.995426 259.98867 
L 198.680153 262.355292 
L 198.408776 264.721914 
L 198.187704 267.088536 
L 198.021966 269.455158 
L 197.913906 271.82178 
L 197.861992 274.188402 
L 197.859998 276.555024 
L 197.896733 278.921646 
L 197.956487 281.288268 
L 198.020194 283.65489 
L 198.06723 286.021512 
L 198.077603 288.388134 
L 198.034226 290.754756 
L 197.92493 293.121378 
L 197.743881 295.488 
z
" clip-path="url(#p5706989744)" style="fill: #1f77b4; fill-opacity: 0.3"/>
   </g>
   <g id="PolyCollection_3">
    <path d="M 279.881885 295.488 
L 277.873522 295.488 
L 277.748731 293.060384 
L 277.629926 290.632767 
L 277.520035 288.205151 
L 277.421577 285.777535 
L 277.33654 283.349918 
L 277.266184 280.922302 
L 277.210764 278.494685 
L 277.169186 276.067069 
L 277.138686 273.639453 
L 277.114622 271.211836 
L 277.090501 268.78422 
L 277.05831 266.356604 
L 277.009185 263.928987 
L 276.934337 261.501371 
L 276.82607 259.073755 
L 276.678668 256.646138 
L 276.488911 254.218522 
L 276.256051 251.790905 
L 275.981214 249.363289 
L 275.666339 246.935673 
L 275.31292 244.508056 
L 274.920884 242.08044 
L 274.487936 239.652824 
L 274.009612 237.225207 
L 273.480114 234.797591 
L 272.893803 232.369975 
L 272.247039 229.942358 
L 271.539936 227.514742 
L 270.777547 225.087125 
L 269.970112 222.659509 
L 269.13217 220.231893 
L 268.280665 217.804276 
L 267.432393 215.37666 
L 266.601391 212.949044 
L 265.796863 210.521427 
L 265.022096 208.093811 
L 264.274532 205.666195 
L 263.546845 203.238578 
L 262.828593 200.810962 
L 262.107934 198.383346 
L 261.373029 195.955729 
L 260.612938 193.528113 
L 259.818153 191.100496 
L 258.981058 188.67288 
L 258.096609 186.245264 
L 257.163353 183.817647 
L 256.184621 181.390031 
L 255.16948 178.962415 
L 254.132939 176.534798 
L 253.095035 174.107182 
L 252.078778 171.679566 
L 251.107283 169.251949 
L 250.200734 166.824333 
L 249.373928 164.396716 
L 248.634921 161.9691 
L 247.985014 159.541484 
L 247.41988 157.113867 
L 246.931391 154.686251 
L 246.509588 152.258635 
L 246.144384 149.831018 
L 245.826789 147.403402 
L 245.549708 144.975786 
L 245.308487 142.548169 
L 245.10139 140.120553 
L 244.930064 137.692936 
L 244.799915 135.26532 
L 244.72019 132.837704 
L 244.703541 130.410087 
L 244.764984 127.982471 
L 244.920315 125.554855 
L 245.184263 123.127238 
L 245.568788 120.699622 
L 246.081918 118.272006 
L 246.727408 115.844389 
L 247.50524 113.416773 
L 248.412732 110.989156 
L 249.445823 108.56154 
L 250.600017 106.133924 
L 251.870615 103.706307 
L 253.252073 101.278691 
L 254.736643 98.851075 
L 256.312738 96.423458 
L 257.963563 93.995842 
L 259.666545 91.568226 
L 261.393887 89.140609 
L 263.114279 86.712993 
L 264.795499 84.285376 
L 266.407401 81.85776 
L 267.924713 79.430144 
L 269.329082 77.002527 
L 270.610025 74.574911 
L 271.764675 72.147295 
L 272.796484 69.719678 
L 273.713245 67.292062 
L 274.524925 64.864446 
L 275.241748 62.436829 
L 275.87285 60.009213 
L 276.425671 57.581596 
L 276.905997 55.15398 
L 280.84941 55.15398 
L 280.84941 55.15398 
L 281.329735 57.581596 
L 281.882557 60.009213 
L 282.513659 62.436829 
L 283.230481 64.864446 
L 284.042162 67.292062 
L 284.958923 69.719678 
L 285.990731 72.147295 
L 287.145382 74.574911 
L 288.426325 77.002527 
L 289.830694 79.430144 
L 291.348006 81.85776 
L 292.959908 84.285376 
L 294.641127 86.712993 
L 296.36152 89.140609 
L 298.088862 91.568226 
L 299.791844 93.995842 
L 301.442669 96.423458 
L 303.018764 98.851075 
L 304.503334 101.278691 
L 305.884792 103.706307 
L 307.15539 106.133924 
L 308.309584 108.56154 
L 309.342674 110.989156 
L 310.250167 113.416773 
L 311.027999 115.844389 
L 311.673489 118.272006 
L 312.186619 120.699622 
L 312.571144 123.127238 
L 312.835092 125.554855 
L 312.990423 127.982471 
L 313.051866 130.410087 
L 313.035217 132.837704 
L 312.955492 135.26532 
L 312.825343 137.692936 
L 312.654017 140.120553 
L 312.446919 142.548169 
L 312.205699 144.975786 
L 311.928617 147.403402 
L 311.611022 149.831018 
L 311.245819 152.258635 
L 310.824016 154.686251 
L 310.335527 157.113867 
L 309.770393 159.541484 
L 309.120485 161.9691 
L 308.381479 164.396716 
L 307.554673 166.824333 
L 306.648124 169.251949 
L 305.676628 171.679566 
L 304.660372 174.107182 
L 303.622468 176.534798 
L 302.585926 178.962415 
L 301.570786 181.390031 
L 300.592054 183.817647 
L 299.658798 186.245264 
L 298.774349 188.67288 
L 297.937254 191.100496 
L 297.142469 193.528113 
L 296.382377 195.955729 
L 295.647473 198.383346 
L 294.926814 200.810962 
L 294.208561 203.238578 
L 293.480875 205.666195 
L 292.733311 208.093811 
L 291.958543 210.521427 
L 291.154016 212.949044 
L 290.323014 215.37666 
L 289.474741 217.804276 
L 288.623236 220.231893 
L 287.785295 222.659509 
L 286.977859 225.087125 
L 286.21547 227.514742 
L 285.508367 229.942358 
L 284.861604 232.369975 
L 284.275293 234.797591 
L 283.745795 237.225207 
L 283.267471 239.652824 
L 282.834523 242.08044 
L 282.442487 244.508056 
L 282.089068 246.935673 
L 281.774193 249.363289 
L 281.499355 251.790905 
L 281.266495 254.218522 
L 281.076738 256.646138 
L 280.929337 259.073755 
L 280.82107 261.501371 
L 280.746221 263.928987 
L 280.697097 266.356604 
L 280.664905 268.78422 
L 280.640784 271.211836 
L 280.616721 273.639453 
L 280.586221 276.067069 
L 280.544643 278.494685 
L 280.489223 280.922302 
L 280.418867 283.349918 
L 280.333829 285.777535 
L 280.235372 288.205151 
L 280.125481 290.632767 
L 280.006676 293.060384 
L 279.881885 295.488 
z
" clip-path="url(#p5706989744)" style="fill: #1f77b4; fill-opacity: 0.3"/>
   </g>
   <g id="PolyCollection_4">
    <path d="M 365.50837 295.488 
L 363.11785 295.488 
L 363.021171 293.044364 
L 362.944587 290.600727 
L 362.887933 288.157091 
L 362.848027 285.713455 
L 362.818894 283.269818 
L 362.79244 280.826182 
L 362.759461 278.382545 
L 362.710826 275.938909 
L 362.638601 273.495273 
L 362.536886 271.051636 
L 362.402209 268.608 
L 362.233398 266.164364 
L 362.030997 263.720727 
L 361.796385 261.277091 
L 361.530871 258.833455 
L 361.235004 256.389818 
L 360.908316 253.946182 
L 360.549586 251.502545 
L 360.157558 249.058909 
L 359.73194 246.615273 
L 359.274389 244.171636 
L 358.789222 241.728 
L 358.28362 239.284364 
L 357.767227 236.840727 
L 357.251203 234.397091 
L 356.746894 231.953455 
L 356.264372 229.509818 
L 355.811124 227.066182 
L 355.39108 224.622545 
L 355.004121 222.178909 
L 354.646049 219.735273 
L 354.308929 217.291636 
L 353.981652 214.848 
L 353.650582 212.404364 
L 353.300185 209.960727 
L 352.913653 207.517091 
L 352.473599 205.073455 
L 351.962933 202.629818 
L 351.366061 200.186182 
L 350.670381 197.742545 
L 349.868026 195.298909 
L 348.957572 192.855273 
L 347.945436 190.411636 
L 346.846581 187.968 
L 345.684288 185.524364 
L 344.488841 183.080727 
L 343.295184 180.637091 
L 342.139788 178.193455 
L 341.057119 175.749818 
L 340.076164 173.306182 
L 339.217496 170.862545 
L 338.491252 168.418909 
L 337.896281 165.975273 
L 337.420536 163.531636 
L 337.042613 161.088 
L 336.734213 158.644364 
L 336.4632 156.200727 
L 336.196917 153.757091 
L 335.905431 151.313455 
L 335.564412 148.869818 
L 335.157454 146.426182 
L 334.677645 143.982545 
L 334.128293 141.538909 
L 333.522744 139.095273 
L 332.883306 136.651636 
L 332.239358 134.208 
L 331.624836 131.764364 
L 331.075347 129.320727 
L 330.625243 126.877091 
L 330.304961 124.433455 
L 330.138947 121.989818 
L 330.144347 119.546182 
L 330.330561 117.102545 
L 330.699637 114.658909 
L 331.247336 112.215273 
L 331.964669 109.771636 
L 332.839611 107.328 
L 333.858707 104.884364 
L 335.008327 102.440727 
L 336.275378 99.997091 
L 337.647393 97.553455 
L 339.112053 95.109818 
L 340.656315 92.666182 
L 342.265424 90.222545 
L 343.922113 87.778909 
L 345.606284 85.335273 
L 347.295328 82.891636 
L 348.965113 80.448 
L 350.591479 78.004364 
L 352.151961 75.560727 
L 353.627405 73.117091 
L 355.003163 70.673455 
L 356.269676 68.229818 
L 357.422373 65.786182 
L 358.461003 63.342545 
L 359.388595 60.898909 
L 360.21031 58.455273 
L 360.932404 56.011636 
L 361.561488 53.568 
L 367.064732 53.568 
L 367.064732 53.568 
L 367.693816 56.011636 
L 368.41591 58.455273 
L 369.237625 60.898909 
L 370.165217 63.342545 
L 371.203847 65.786182 
L 372.356544 68.229818 
L 373.623057 70.673455 
L 374.998816 73.117091 
L 376.474259 75.560727 
L 378.034741 78.004364 
L 379.661107 80.448 
L 381.330892 82.891636 
L 383.019936 85.335273 
L 384.704107 87.778909 
L 386.360796 90.222545 
L 387.969905 92.666182 
L 389.514167 95.109818 
L 390.978827 97.553455 
L 392.350842 99.997091 
L 393.617893 102.440727 
L 394.767513 104.884364 
L 395.786609 107.328 
L 396.661551 109.771636 
L 397.378884 112.215273 
L 397.926584 114.658909 
L 398.295659 117.102545 
L 398.481874 119.546182 
L 398.487273 121.989818 
L 398.321259 124.433455 
L 398.000977 126.877091 
L 397.550873 129.320727 
L 397.001385 131.764364 
L 396.386862 134.208 
L 395.742914 136.651636 
L 395.103476 139.095273 
L 394.497927 141.538909 
L 393.948575 143.982545 
L 393.468766 146.426182 
L 393.061808 148.869818 
L 392.720789 151.313455 
L 392.429303 153.757091 
L 392.16302 156.200727 
L 391.892007 158.644364 
L 391.583607 161.088 
L 391.205684 163.531636 
L 390.729939 165.975273 
L 390.134968 168.418909 
L 389.408724 170.862545 
L 388.550056 173.306182 
L 387.569102 175.749818 
L 386.486432 178.193455 
L 385.331036 180.637091 
L 384.137379 183.080727 
L 382.941932 185.524364 
L 381.779639 187.968 
L 380.680784 190.411636 
L 379.668648 192.855273 
L 378.758194 195.298909 
L 377.955839 197.742545 
L 377.26016 200.186182 
L 376.663287 202.629818 
L 376.152622 205.073455 
L 375.712567 207.517091 
L 375.326036 209.960727 
L 374.975639 212.404364 
L 374.644568 214.848 
L 374.317291 217.291636 
L 373.980171 219.735273 
L 373.622099 222.178909 
L 373.235141 224.622545 
L 372.815096 227.066182 
L 372.361848 229.509818 
L 371.879326 231.953455 
L 371.375017 234.397091 
L 370.858993 236.840727 
L 370.3426 239.284364 
L 369.836998 241.728 
L 369.351831 244.171636 
L 368.89428 246.615273 
L 368.468662 249.058909 
L 368.076635 251.502545 
L 367.717904 253.946182 
L 367.391216 256.389818 
L 367.095349 258.833455 
L 366.829835 261.277091 
L 366.595223 263.720727 
L 366.392822 266.164364 
L 366.224011 268.608 
L 366.089334 271.051636 
L 365.987619 273.495273 
L 365.915394 275.938909 
L 365.866759 278.382545 
L 365.83378 280.826182 
L 365.807326 283.269818 
L 365.778193 285.713455 
L 365.738287 288.157091 
L 365.681633 290.600727 
L 365.605049 293.044364 
L 365.50837 295.488 
z
" clip-path="url(#p5706989744)" style="fill: #1f77b4; fill-opacity: 0.3"/>
   </g>
   <g id="matplotlib.axis_1">
    <g id="xtick_1">
     <g id="line2d_1">
      <path d="M 65.289187 307.584 
L 65.289187 41.472 
" clip-path="url(#p5706989744)" style="fill: none; stroke-dasharray: 2.96,1.28; stroke-dashoffset: 0; stroke: #b0b0b0; stroke-width: 0.8"/>
     </g>
     <g id="line2d_2">
      <defs>
       <path id="m54e10992ef" d="M 0 0 
L 0 3.5 
" style="stroke: #000000; stroke-width: 0.8"/>
      </defs>
      <g>
       <use xlink:href="#m54e10992ef" x="65.289187" y="307.584" style="stroke: #000000; stroke-width: 0.8"/>
      </g>
     </g>
     <g id="text_1">
      <!-- 250 -->
      <g transform="translate(55.745437 322.182437)scale(0.1 -0.1)">
       <defs>
        <path id="DejaVuSans-32" d="M 1228 531 
L 3431 531 
L 3431 0 
L 469 0 
L 469 531 
Q 828 903 1448 1529 
Q 2069 2156 2228 2338 
Q 2531 2678 2651 2914 
Q 2772 3150 2772 3378 
Q 2772 3750 2511 3984 
Q 2250 4219 1831 4219 
Q 1534 4219 1204 4116 
Q 875 4013 500 3803 
L 500 4441 
Q 881 4594 1212 4672 
Q 1544 4750 1819 4750 
Q 2544 4750 2975 4387 
Q 3406 4025 3406 3419 
Q 3406 3131 3298 2873 
Q 3191 2616 2906 2266 
Q 2828 2175 2409 1742 
Q 1991 1309 1228 531 
z
" transform="scale(0.015625)"/>
        <path id="DejaVuSans-35" d="M 691 4666 
L 3169 4666 
L 3169 4134 
L 1269 4134 
L 1269 2991 
Q 1406 3038 1543 3061 
Q 1681 3084 1819 3084 
Q 2600 3084 3056 2656 
Q 3513 2228 3513 1497 
Q 3513 744 3044 326 
Q 2575 -91 1722 -91 
Q 1428 -91 1123 -41 
Q 819 9 494 109 
L 494 744 
Q 775 591 1075 516 
Q 1375 441 1709 441 
Q 2250 441 2565 725 
Q 2881 1009 2881 1497 
Q 2881 1984 2565 2268 
Q 2250 2553 1709 2553 
Q 1456 2553 1204 2497 
Q 953 2441 691 2322 
L 691 4666 
z
" transform="scale(0.015625)"/>
        <path id="DejaVuSans-30" d="M 2034 4250 
Q 1547 4250 1301 3770 
Q 1056 3291 1056 2328 
Q 1056 1369 1301 889 
Q 1547 409 2034 409 
Q 2525 409 2770 889 
Q 3016 1369 3016 2328 
Q 3016 3291 2770 3770 
Q 2525 4250 2034 4250 
z
M 2034 4750 
Q 2819 4750 3233 4129 
Q 3647 3509 3647 2328 
Q 3647 1150 3233 529 
Q 2819 -91 2034 -91 
Q 1250 -91 836 529 
Q 422 1150 422 2328 
Q 422 3509 836 4129 
Q 1250 4750 2034 4750 
z
" transform="scale(0.015625)"/>
       </defs>
       <use xlink:href="#DejaVuSans-32"/>
       <use xlink:href="#DejaVuSans-35" x="63.623047"/>
       <use xlink:href="#DejaVuSans-30" x="127.246094"/>
      </g>
     </g>
    </g>
    <g id="xtick_2">
     <g id="line2d_3">
      <path d="M 108.00689 307.584 
L 108.00689 41.472 
" clip-path="url(#p5706989744)" style="fill: none; stroke-dasharray: 2.96,1.28; stroke-dashoffset: 0; stroke: #b0b0b0; stroke-width: 0.8"/>
     </g>
     <g id="line2d_4">
      <g>
       <use xlink:href="#m54e10992ef" x="108.00689" y="307.584" style="stroke: #000000; stroke-width: 0.8"/>
      </g>
     </g>
     <g id="text_2">
      <!-- 500 -->
      <g transform="translate(98.46314 322.182437)scale(0.1 -0.1)">
       <use xlink:href="#DejaVuSans-35"/>
       <use xlink:href="#DejaVuSans-30" x="63.623047"/>
       <use xlink:href="#DejaVuSans-30" x="127.246094"/>
      </g>
     </g>
    </g>
    <g id="xtick_3">
     <g id="line2d_5">
      <path d="M 150.724593 307.584 
L 150.724593 41.472 
" clip-path="url(#p5706989744)" style="fill: none; stroke-dasharray: 2.96,1.28; stroke-dashoffset: 0; stroke: #b0b0b0; stroke-width: 0.8"/>
     </g>
     <g id="line2d_6">
      <g>
       <use xlink:href="#m54e10992ef" x="150.724593" y="307.584" style="stroke: #000000; stroke-width: 0.8"/>
      </g>
     </g>
     <g id="text_3">
      <!-- 750 -->
      <g transform="translate(141.180843 322.182437)scale(0.1 -0.1)">
       <defs>
        <path id="DejaVuSans-37" d="M 525 4666 
L 3525 4666 
L 3525 4397 
L 1831 0 
L 1172 0 
L 2766 4134 
L 525 4134 
L 525 4666 
z
" transform="scale(0.015625)"/>
       </defs>
       <use xlink:href="#DejaVuSans-37"/>
       <use xlink:href="#DejaVuSans-35" x="63.623047"/>
       <use xlink:href="#DejaVuSans-30" x="127.246094"/>
      </g>
     </g>
    </g>
    <g id="xtick_4">
     <g id="line2d_7">
      <path d="M 193.442297 307.584 
L 193.442297 41.472 
" clip-path="url(#p5706989744)" style="fill: none; stroke-dasharray: 2.96,1.28; stroke-dashoffset: 0; stroke: #b0b0b0; stroke-width: 0.8"/>
     </g>
     <g id="line2d_8">
      <g>
       <use xlink:href="#m54e10992ef" x="193.442297" y="307.584" style="stroke: #000000; stroke-width: 0.8"/>
      </g>
     </g>
     <g id="text_4">
      <!-- 1000 -->
      <g transform="translate(180.717297 322.182437)scale(0.1 -0.1)">
       <defs>
        <path id="DejaVuSans-31" d="M 794 531 
L 1825 531 
L 1825 4091 
L 703 3866 
L 703 4441 
L 1819 4666 
L 2450 4666 
L 2450 531 
L 3481 531 
L 3481 0 
L 794 0 
L 794 531 
z
" transform="scale(0.015625)"/>
       </defs>
       <use xlink:href="#DejaVuSans-31"/>
       <use xlink:href="#DejaVuSans-30" x="63.623047"/>
       <use xlink:href="#DejaVuSans-30" x="127.246094"/>
       <use xlink:href="#DejaVuSans-30" x="190.869141"/>
      </g>
     </g>
    </g>
    <g id="xtick_5">
     <g id="line2d_9">
      <path d="M 236.16 307.584 
L 236.16 41.472 
" clip-path="url(#p5706989744)" style="fill: none; stroke-dasharray: 2.96,1.28; stroke-dashoffset: 0; stroke: #b0b0b0; stroke-width: 0.8"/>
     </g>
     <g id="line2d_10">
      <g>
       <use xlink:href="#m54e10992ef" x="236.16" y="307.584" style="stroke: #000000; stroke-width: 0.8"/>
      </g>
     </g>
     <g id="text_5">
      <!-- 1250 -->
      <g transform="translate(223.435 322.182437)scale(0.1 -0.1)">
       <use xlink:href="#DejaVuSans-31"/>
       <use xlink:href="#DejaVuSans-32" x="63.623047"/>
       <use xlink:href="#DejaVuSans-35" x="127.246094"/>
       <use xlink:href="#DejaVuSans-30" x="190.869141"/>
      </g>
     </g>
    </g>
    <g id="xtick_6">
     <g id="line2d_11">
      <path d="M 278.877703 307.584 
L 278.877703 41.472 
" clip-path="url(#p5706989744)" style="fill: none; stroke-dasharray: 2.96,1.28; stroke-dashoffset: 0; stroke: #b0b0b0; stroke-width: 0.8"/>
     </g>
     <g id="line2d_12">
      <g>
       <use xlink:href="#m54e10992ef" x="278.877703" y="307.584" style="stroke: #000000; stroke-width: 0.8"/>
      </g>
     </g>
     <g id="text_6">
      <!-- 1500 -->
      <g transform="translate(266.152703 322.182437)scale(0.1 -0.1)">
       <use xlink:href="#DejaVuSans-31"/>
       <use xlink:href="#DejaVuSans-35" x="63.623047"/>
       <use xlink:href="#DejaVuSans-30" x="127.246094"/>
       <use xlink:href="#DejaVuSans-30" x="190.869141"/>
      </g>
     </g>
    </g>
    <g id="xtick_7">
     <g id="line2d_13">
      <path d="M 321.595407 307.584 
L 321.595407 41.472 
" clip-path="url(#p5706989744)" style="fill: none; stroke-dasharray: 2.96,1.28; stroke-dashoffset: 0; stroke: #b0b0b0; stroke-width: 0.8"/>
     </g>
     <g id="line2d_14">
      <g>
       <use xlink:href="#m54e10992ef" x="321.595407" y="307.584" style="stroke: #000000; stroke-width: 0.8"/>
      </g>
     </g>
     <g id="text_7">
      <!-- 1750 -->
      <g transform="translate(308.870407 322.182437)scale(0.1 -0.1)">
       <use xlink:href="#DejaVuSans-31"/>
       <use xlink:href="#DejaVuSans-37" x="63.623047"/>
       <use xlink:href="#DejaVuSans-35" x="127.246094"/>
       <use xlink:href="#DejaVuSans-30" x="190.869141"/>
      </g>
     </g>
    </g>
    <g id="xtick_8">
     <g id="line2d_15">
      <path d="M 364.31311 307.584 
L 364.31311 41.472 
" clip-path="url(#p5706989744)" style="fill: none; stroke-dasharray: 2.96,1.28; stroke-dashoffset: 0; stroke: #b0b0b0; stroke-width: 0.8"/>
     </g>
     <g id="line2d_16">
      <g>
       <use xlink:href="#m54e10992ef" x="364.31311" y="307.584" style="stroke: #000000; stroke-width: 0.8"/>
      </g>
     </g>
     <g id="text_8">
      <!-- 2000 -->
      <g transform="translate(351.58811 322.182437)scale(0.1 -0.1)">
       <use xlink:href="#DejaVuSans-32"/>
       <use xlink:href="#DejaVuSans-30" x="63.623047"/>
       <use xlink:href="#DejaVuSans-30" x="127.246094"/>
       <use xlink:href="#DejaVuSans-30" x="190.869141"/>
      </g>
     </g>
    </g>
    <g id="xtick_9">
     <g id="line2d_17">
      <path d="M 407.030813 307.584 
L 407.030813 41.472 
" clip-path="url(#p5706989744)" style="fill: none; stroke-dasharray: 2.96,1.28; stroke-dashoffset: 0; stroke: #b0b0b0; stroke-width: 0.8"/>
     </g>
     <g id="line2d_18">
      <g>
       <use xlink:href="#m54e10992ef" x="407.030813" y="307.584" style="stroke: #000000; stroke-width: 0.8"/>
      </g>
     </g>
     <g id="text_9">
      <!-- 2250 -->
      <g transform="translate(394.305813 322.182437)scale(0.1 -0.1)">
       <use xlink:href="#DejaVuSans-32"/>
       <use xlink:href="#DejaVuSans-32" x="63.623047"/>
       <use xlink:href="#DejaVuSans-35" x="127.246094"/>
       <use xlink:href="#DejaVuSans-30" x="190.869141"/>
      </g>
     </g>
    </g>
    <g id="text_10">
     <!-- Learned Episodes -->
     <g transform="translate(192.102187 335.860562)scale(0.1 -0.1)">
      <defs>
       <path id="DejaVuSans-4c" d="M 628 4666 
L 1259 4666 
L 1259 531 
L 3531 531 
L 3531 0 
L 628 0 
L 628 4666 
z
" transform="scale(0.015625)"/>
       <path id="DejaVuSans-65" d="M 3597 1894 
L 3597 1613 
L 953 1613 
Q 991 1019 1311 708 
Q 1631 397 2203 397 
Q 2534 397 2845 478 
Q 3156 559 3463 722 
L 3463 178 
Q 3153 47 2828 -22 
Q 2503 -91 2169 -91 
Q 1331 -91 842 396 
Q 353 884 353 1716 
Q 353 2575 817 3079 
Q 1281 3584 2069 3584 
Q 2775 3584 3186 3129 
Q 3597 2675 3597 1894 
z
M 3022 2063 
Q 3016 2534 2758 2815 
Q 2500 3097 2075 3097 
Q 1594 3097 1305 2825 
Q 1016 2553 972 2059 
L 3022 2063 
z
" transform="scale(0.015625)"/>
       <path id="DejaVuSans-61" d="M 2194 1759 
Q 1497 1759 1228 1600 
Q 959 1441 959 1056 
Q 959 750 1161 570 
Q 1363 391 1709 391 
Q 2188 391 2477 730 
Q 2766 1069 2766 1631 
L 2766 1759 
L 2194 1759 
z
M 3341 1997 
L 3341 0 
L 2766 0 
L 2766 531 
Q 2569 213 2275 61 
Q 1981 -91 1556 -91 
Q 1019 -91 701 211 
Q 384 513 384 1019 
Q 384 1609 779 1909 
Q 1175 2209 1959 2209 
L 2766 2209 
L 2766 2266 
Q 2766 2663 2505 2880 
Q 2244 3097 1772 3097 
Q 1472 3097 1187 3025 
Q 903 2953 641 2809 
L 641 3341 
Q 956 3463 1253 3523 
Q 1550 3584 1831 3584 
Q 2591 3584 2966 3190 
Q 3341 2797 3341 1997 
z
" transform="scale(0.015625)"/>
       <path id="DejaVuSans-72" d="M 2631 2963 
Q 2534 3019 2420 3045 
Q 2306 3072 2169 3072 
Q 1681 3072 1420 2755 
Q 1159 2438 1159 1844 
L 1159 0 
L 581 0 
L 581 3500 
L 1159 3500 
L 1159 2956 
Q 1341 3275 1631 3429 
Q 1922 3584 2338 3584 
Q 2397 3584 2469 3576 
Q 2541 3569 2628 3553 
L 2631 2963 
z
" transform="scale(0.015625)"/>
       <path id="DejaVuSans-6e" d="M 3513 2113 
L 3513 0 
L 2938 0 
L 2938 2094 
Q 2938 2591 2744 2837 
Q 2550 3084 2163 3084 
Q 1697 3084 1428 2787 
Q 1159 2491 1159 1978 
L 1159 0 
L 581 0 
L 581 3500 
L 1159 3500 
L 1159 2956 
Q 1366 3272 1645 3428 
Q 1925 3584 2291 3584 
Q 2894 3584 3203 3211 
Q 3513 2838 3513 2113 
z
" transform="scale(0.015625)"/>
       <path id="DejaVuSans-64" d="M 2906 2969 
L 2906 4863 
L 3481 4863 
L 3481 0 
L 2906 0 
L 2906 525 
Q 2725 213 2448 61 
Q 2172 -91 1784 -91 
Q 1150 -91 751 415 
Q 353 922 353 1747 
Q 353 2572 751 3078 
Q 1150 3584 1784 3584 
Q 2172 3584 2448 3432 
Q 2725 3281 2906 2969 
z
M 947 1747 
Q 947 1113 1208 752 
Q 1469 391 1925 391 
Q 2381 391 2643 752 
Q 2906 1113 2906 1747 
Q 2906 2381 2643 2742 
Q 2381 3103 1925 3103 
Q 1469 3103 1208 2742 
Q 947 2381 947 1747 
z
" transform="scale(0.015625)"/>
       <path id="DejaVuSans-20" transform="scale(0.015625)"/>
       <path id="DejaVuSans-45" d="M 628 4666 
L 3578 4666 
L 3578 4134 
L 1259 4134 
L 1259 2753 
L 3481 2753 
L 3481 2222 
L 1259 2222 
L 1259 531 
L 3634 531 
L 3634 0 
L 628 0 
L 628 4666 
z
" transform="scale(0.015625)"/>
       <path id="DejaVuSans-70" d="M 1159 525 
L 1159 -1331 
L 581 -1331 
L 581 3500 
L 1159 3500 
L 1159 2969 
Q 1341 3281 1617 3432 
Q 1894 3584 2278 3584 
Q 2916 3584 3314 3078 
Q 3713 2572 3713 1747 
Q 3713 922 3314 415 
Q 2916 -91 2278 -91 
Q 1894 -91 1617 61 
Q 1341 213 1159 525 
z
M 3116 1747 
Q 3116 2381 2855 2742 
Q 2594 3103 2138 3103 
Q 1681 3103 1420 2742 
Q 1159 2381 1159 1747 
Q 1159 1113 1420 752 
Q 1681 391 2138 391 
Q 2594 391 2855 752 
Q 3116 1113 3116 1747 
z
" transform="scale(0.015625)"/>
       <path id="DejaVuSans-69" d="M 603 3500 
L 1178 3500 
L 1178 0 
L 603 0 
L 603 3500 
z
M 603 4863 
L 1178 4863 
L 1178 4134 
L 603 4134 
L 603 4863 
z
" transform="scale(0.015625)"/>
       <path id="DejaVuSans-73" d="M 2834 3397 
L 2834 2853 
Q 2591 2978 2328 3040 
Q 2066 3103 1784 3103 
Q 1356 3103 1142 2972 
Q 928 2841 928 2578 
Q 928 2378 1081 2264 
Q 1234 2150 1697 2047 
L 1894 2003 
Q 2506 1872 2764 1633 
Q 3022 1394 3022 966 
Q 3022 478 2636 193 
Q 2250 -91 1575 -91 
Q 1294 -91 989 -36 
Q 684 19 347 128 
L 347 722 
Q 666 556 975 473 
Q 1284 391 1588 391 
Q 1994 391 2212 530 
Q 2431 669 2431 922 
Q 2431 1156 2273 1281 
Q 2116 1406 1581 1522 
L 1381 1569 
Q 847 1681 609 1914 
Q 372 2147 372 2553 
Q 372 3047 722 3315 
Q 1072 3584 1716 3584 
Q 2034 3584 2315 3537 
Q 2597 3491 2834 3397 
z
" transform="scale(0.015625)"/>
       <path id="DejaVuSans-6f" d="M 1959 3097 
Q 1497 3097 1228 2736 
Q 959 2375 959 1747 
Q 959 1119 1226 758 
Q 1494 397 1959 397 
Q 2419 397 2687 759 
Q 2956 1122 2956 1747 
Q 2956 2369 2687 2733 
Q 2419 3097 1959 3097 
z
M 1959 3584 
Q 2709 3584 3137 3096 
Q 3566 2609 3566 1747 
Q 3566 888 3137 398 
Q 2709 -91 1959 -91 
Q 1206 -91 779 398 
Q 353 888 353 1747 
Q 353 2609 779 3096 
Q 1206 3584 1959 3584 
z
" transform="scale(0.015625)"/>
      </defs>
      <use xlink:href="#DejaVuSans-4c"/>
      <use xlink:href="#DejaVuSans-65" x="53.962891"/>
      <use xlink:href="#DejaVuSans-61" x="115.486328"/>
      <use xlink:href="#DejaVuSans-72" x="176.765625"/>
      <use xlink:href="#DejaVuSans-6e" x="216.128906"/>
      <use xlink:href="#DejaVuSans-65" x="279.507812"/>
      <use xlink:href="#DejaVuSans-64" x="341.03125"/>
      <use xlink:href="#DejaVuSans-20" x="404.507812"/>
      <use xlink:href="#DejaVuSans-45" x="436.294922"/>
      <use xlink:href="#DejaVuSans-70" x="499.478516"/>
      <use xlink:href="#DejaVuSans-69" x="562.955078"/>
      <use xlink:href="#DejaVuSans-73" x="590.738281"/>
      <use xlink:href="#DejaVuSans-6f" x="642.837891"/>
      <use xlink:href="#DejaVuSans-64" x="704.019531"/>
      <use xlink:href="#DejaVuSans-65" x="767.496094"/>
      <use xlink:href="#DejaVuSans-73" x="829.019531"/>
     </g>
    </g>
   </g>
   <g id="matplotlib.axis_2">
    <g id="ytick_1">
     <g id="line2d_19">
      <path d="M 57.6 295.488 
L 414.72 295.488 
" clip-path="url(#p5706989744)" style="fill: none; stroke-dasharray: 2.96,1.28; stroke-dashoffset: 0; stroke: #b0b0b0; stroke-width: 0.8"/>
     </g>
     <g id="line2d_20">
      <defs>
       <path id="m7c6cd5e943" d="M 0 0 
L -3.5 0 
" style="stroke: #000000; stroke-width: 0.8"/>
      </defs>
      <g>
       <use xlink:href="#m7c6cd5e943" x="57.6" y="295.488" style="stroke: #000000; stroke-width: 0.8"/>
      </g>
     </g>
     <g id="text_11">
      <!-- 0 -->
      <g transform="translate(44.2375 299.287219)scale(0.1 -0.1)">
       <use xlink:href="#DejaVuSans-30"/>
      </g>
     </g>
    </g>
    <g id="ytick_2">
     <g id="line2d_21">
      <path d="M 57.6 252.500836 
L 414.72 252.500836 
" clip-path="url(#p5706989744)" style="fill: none; stroke-dasharray: 2.96,1.28; stroke-dashoffset: 0; stroke: #b0b0b0; stroke-width: 0.8"/>
     </g>
     <g id="line2d_22">
      <g>
       <use xlink:href="#m7c6cd5e943" x="57.6" y="252.500836" style="stroke: #000000; stroke-width: 0.8"/>
      </g>
     </g>
     <g id="text_12">
      <!-- 100 -->
      <g transform="translate(31.5125 256.300055)scale(0.1 -0.1)">
       <use xlink:href="#DejaVuSans-31"/>
       <use xlink:href="#DejaVuSans-30" x="63.623047"/>
       <use xlink:href="#DejaVuSans-30" x="127.246094"/>
      </g>
     </g>
    </g>
    <g id="ytick_3">
     <g id="line2d_23">
      <path d="M 57.6 209.513673 
L 414.72 209.513673 
" clip-path="url(#p5706989744)" style="fill: none; stroke-dasharray: 2.96,1.28; stroke-dashoffset: 0; stroke: #b0b0b0; stroke-width: 0.8"/>
     </g>
     <g id="line2d_24">
      <g>
       <use xlink:href="#m7c6cd5e943" x="57.6" y="209.513673" style="stroke: #000000; stroke-width: 0.8"/>
      </g>
     </g>
     <g id="text_13">
      <!-- 200 -->
      <g transform="translate(31.5125 213.312891)scale(0.1 -0.1)">
       <use xlink:href="#DejaVuSans-32"/>
       <use xlink:href="#DejaVuSans-30" x="63.623047"/>
       <use xlink:href="#DejaVuSans-30" x="127.246094"/>
      </g>
     </g>
    </g>
    <g id="ytick_4">
     <g id="line2d_25">
      <path d="M 57.6 166.526509 
L 414.72 166.526509 
" clip-path="url(#p5706989744)" style="fill: none; stroke-dasharray: 2.96,1.28; stroke-dashoffset: 0; stroke: #b0b0b0; stroke-width: 0.8"/>
     </g>
     <g id="line2d_26">
      <g>
       <use xlink:href="#m7c6cd5e943" x="57.6" y="166.526509" style="stroke: #000000; stroke-width: 0.8"/>
      </g>
     </g>
     <g id="text_14">
      <!-- 300 -->
      <g transform="translate(31.5125 170.325728)scale(0.1 -0.1)">
       <defs>
        <path id="DejaVuSans-33" d="M 2597 2516 
Q 3050 2419 3304 2112 
Q 3559 1806 3559 1356 
Q 3559 666 3084 287 
Q 2609 -91 1734 -91 
Q 1441 -91 1130 -33 
Q 819 25 488 141 
L 488 750 
Q 750 597 1062 519 
Q 1375 441 1716 441 
Q 2309 441 2620 675 
Q 2931 909 2931 1356 
Q 2931 1769 2642 2001 
Q 2353 2234 1838 2234 
L 1294 2234 
L 1294 2753 
L 1863 2753 
Q 2328 2753 2575 2939 
Q 2822 3125 2822 3475 
Q 2822 3834 2567 4026 
Q 2313 4219 1838 4219 
Q 1578 4219 1281 4162 
Q 984 4106 628 3988 
L 628 4550 
Q 988 4650 1302 4700 
Q 1616 4750 1894 4750 
Q 2613 4750 3031 4423 
Q 3450 4097 3450 3541 
Q 3450 3153 3228 2886 
Q 3006 2619 2597 2516 
z
" transform="scale(0.015625)"/>
       </defs>
       <use xlink:href="#DejaVuSans-33"/>
       <use xlink:href="#DejaVuSans-30" x="63.623047"/>
       <use xlink:href="#DejaVuSans-30" x="127.246094"/>
      </g>
     </g>
    </g>
    <g id="ytick_5">
     <g id="line2d_27">
      <path d="M 57.6 123.539345 
L 414.72 123.539345 
" clip-path="url(#p5706989744)" style="fill: none; stroke-dasharray: 2.96,1.28; stroke-dashoffset: 0; stroke: #b0b0b0; stroke-width: 0.8"/>
     </g>
     <g id="line2d_28">
      <g>
       <use xlink:href="#m7c6cd5e943" x="57.6" y="123.539345" style="stroke: #000000; stroke-width: 0.8"/>
      </g>
     </g>
     <g id="text_15">
      <!-- 400 -->
      <g transform="translate(31.5125 127.338564)scale(0.1 -0.1)">
       <defs>
        <path id="DejaVuSans-34" d="M 2419 4116 
L 825 1625 
L 2419 1625 
L 2419 4116 
z
M 2253 4666 
L 3047 4666 
L 3047 1625 
L 3713 1625 
L 3713 1100 
L 3047 1100 
L 3047 0 
L 2419 0 
L 2419 1100 
L 313 1100 
L 313 1709 
L 2253 4666 
z
" transform="scale(0.015625)"/>
       </defs>
       <use xlink:href="#DejaVuSans-34"/>
       <use xlink:href="#DejaVuSans-30" x="63.623047"/>
       <use xlink:href="#DejaVuSans-30" x="127.246094"/>
      </g>
     </g>
    </g>
    <g id="ytick_6">
     <g id="line2d_29">
      <path d="M 57.6 80.552182 
L 414.72 80.552182 
" clip-path="url(#p5706989744)" style="fill: none; stroke-dasharray: 2.96,1.28; stroke-dashoffset: 0; stroke: #b0b0b0; stroke-width: 0.8"/>
     </g>
     <g id="line2d_30">
      <g>
       <use xlink:href="#m7c6cd5e943" x="57.6" y="80.552182" style="stroke: #000000; stroke-width: 0.8"/>
      </g>
     </g>
     <g id="text_16">
      <!-- 500 -->
      <g transform="translate(31.5125 84.3514)scale(0.1 -0.1)">
       <use xlink:href="#DejaVuSans-35"/>
       <use xlink:href="#DejaVuSans-30" x="63.623047"/>
       <use xlink:href="#DejaVuSans-30" x="127.246094"/>
      </g>
     </g>
    </g>
    <g id="text_17">
     <!-- Reward Density -->
     <g transform="translate(25.432812 213.74675)rotate(-90)scale(0.1 -0.1)">
      <defs>
       <path id="DejaVuSans-52" d="M 2841 2188 
Q 3044 2119 3236 1894 
Q 3428 1669 3622 1275 
L 4263 0 
L 3584 0 
L 2988 1197 
Q 2756 1666 2539 1819 
Q 2322 1972 1947 1972 
L 1259 1972 
L 1259 0 
L 628 0 
L 628 4666 
L 2053 4666 
Q 2853 4666 3247 4331 
Q 3641 3997 3641 3322 
Q 3641 2881 3436 2590 
Q 3231 2300 2841 2188 
z
M 1259 4147 
L 1259 2491 
L 2053 2491 
Q 2509 2491 2742 2702 
Q 2975 2913 2975 3322 
Q 2975 3731 2742 3939 
Q 2509 4147 2053 4147 
L 1259 4147 
z
" transform="scale(0.015625)"/>
       <path id="DejaVuSans-77" d="M 269 3500 
L 844 3500 
L 1563 769 
L 2278 3500 
L 2956 3500 
L 3675 769 
L 4391 3500 
L 4966 3500 
L 4050 0 
L 3372 0 
L 2619 2869 
L 1863 0 
L 1184 0 
L 269 3500 
z
" transform="scale(0.015625)"/>
       <path id="DejaVuSans-44" d="M 1259 4147 
L 1259 519 
L 2022 519 
Q 2988 519 3436 956 
Q 3884 1394 3884 2338 
Q 3884 3275 3436 3711 
Q 2988 4147 2022 4147 
L 1259 4147 
z
M 628 4666 
L 1925 4666 
Q 3281 4666 3915 4102 
Q 4550 3538 4550 2338 
Q 4550 1131 3912 565 
Q 3275 0 1925 0 
L 628 0 
L 628 4666 
z
" transform="scale(0.015625)"/>
       <path id="DejaVuSans-74" d="M 1172 4494 
L 1172 3500 
L 2356 3500 
L 2356 3053 
L 1172 3053 
L 1172 1153 
Q 1172 725 1289 603 
Q 1406 481 1766 481 
L 2356 481 
L 2356 0 
L 1766 0 
Q 1100 0 847 248 
Q 594 497 594 1153 
L 594 3053 
L 172 3053 
L 172 3500 
L 594 3500 
L 594 4494 
L 1172 4494 
z
" transform="scale(0.015625)"/>
       <path id="DejaVuSans-79" d="M 2059 -325 
Q 1816 -950 1584 -1140 
Q 1353 -1331 966 -1331 
L 506 -1331 
L 506 -850 
L 844 -850 
Q 1081 -850 1212 -737 
Q 1344 -625 1503 -206 
L 1606 56 
L 191 3500 
L 800 3500 
L 1894 763 
L 2988 3500 
L 3597 3500 
L 2059 -325 
z
" transform="scale(0.015625)"/>
      </defs>
      <use xlink:href="#DejaVuSans-52"/>
      <use xlink:href="#DejaVuSans-65" x="64.982422"/>
      <use xlink:href="#DejaVuSans-77" x="126.505859"/>
      <use xlink:href="#DejaVuSans-61" x="208.292969"/>
      <use xlink:href="#DejaVuSans-72" x="269.572266"/>
      <use xlink:href="#DejaVuSans-64" x="308.935547"/>
      <use xlink:href="#DejaVuSans-20" x="372.412109"/>
      <use xlink:href="#DejaVuSans-44" x="404.199219"/>
      <use xlink:href="#DejaVuSans-65" x="481.201172"/>
      <use xlink:href="#DejaVuSans-6e" x="542.724609"/>
      <use xlink:href="#DejaVuSans-73" x="606.103516"/>
      <use xlink:href="#DejaVuSans-69" x="658.203125"/>
      <use xlink:href="#DejaVuSans-74" x="685.986328"/>
      <use xlink:href="#DejaVuSans-79" x="725.195312"/>
     </g>
    </g>
   </g>
   <g id="LineCollection_1">
    <path d="M 90.919809 217.458029 
L 125.093971 217.458029 
" clip-path="url(#p5706989744)" style="fill: none; stroke: #1f77b4; stroke-width: 1.5"/>
    <path d="M 176.355215 165.554801 
L 210.529378 165.554801 
" clip-path="url(#p5706989744)" style="fill: none; stroke: #1f77b4; stroke-width: 1.5"/>
    <path d="M 261.790622 148.905622 
L 295.964785 148.905622 
" clip-path="url(#p5706989744)" style="fill: none; stroke: #1f77b4; stroke-width: 1.5"/>
    <path d="M 347.226029 145.655038 
L 381.400191 145.655038 
" clip-path="url(#p5706989744)" style="fill: none; stroke: #1f77b4; stroke-width: 1.5"/>
   </g>
   <g id="LineCollection_2">
    <path d="M 90.919809 126.671847 
L 125.093971 126.671847 
" clip-path="url(#p5706989744)" style="fill: none; stroke: #1f77b4; stroke-width: 1.5"/>
    <path d="M 176.355215 61.192419 
L 210.529378 61.192419 
" clip-path="url(#p5706989744)" style="fill: none; stroke: #1f77b4; stroke-width: 1.5"/>
    <path d="M 261.790622 55.15398 
L 295.964785 55.15398 
" clip-path="url(#p5706989744)" style="fill: none; stroke: #1f77b4; stroke-width: 1.5"/>
    <path d="M 347.226029 53.568 
L 381.400191 53.568 
" clip-path="url(#p5706989744)" style="fill: none; stroke: #1f77b4; stroke-width: 1.5"/>
   </g>
   <g id="LineCollection_3">
    <path d="M 90.919809 295.488 
L 125.093971 295.488 
" clip-path="url(#p5706989744)" style="fill: none; stroke: #1f77b4; stroke-width: 1.5"/>
    <path d="M 176.355215 295.488 
L 210.529378 295.488 
" clip-path="url(#p5706989744)" style="fill: none; stroke: #1f77b4; stroke-width: 1.5"/>
    <path d="M 261.790622 295.488 
L 295.964785 295.488 
" clip-path="url(#p5706989744)" style="fill: none; stroke: #1f77b4; stroke-width: 1.5"/>
    <path d="M 347.226029 295.488 
L 381.400191 295.488 
" clip-path="url(#p5706989744)" style="fill: none; stroke: #1f77b4; stroke-width: 1.5"/>
   </g>
   <g id="LineCollection_4">
    <path d="M 108.00689 295.488 
L 108.00689 126.671847 
" clip-path="url(#p5706989744)" style="fill: none; stroke: #1f77b4; stroke-width: 1.5"/>
    <path d="M 193.442297 295.488 
L 193.442297 61.192419 
" clip-path="url(#p5706989744)" style="fill: none; stroke: #1f77b4; stroke-width: 1.5"/>
    <path d="M 278.877703 295.488 
L 278.877703 55.15398 
" clip-path="url(#p5706989744)" style="fill: none; stroke: #1f77b4; stroke-width: 1.5"/>
    <path d="M 364.31311 295.488 
L 364.31311 53.568 
" clip-path="url(#p5706989744)" style="fill: none; stroke: #1f77b4; stroke-width: 1.5"/>
   </g>
   <g id="line2d_31">
    <path d="M 108.00689 217.458029 
L 193.442297 165.554801 
L 278.877703 148.905622 
L 364.31311 145.655038 
" clip-path="url(#p5706989744)" style="fill: none; stroke: #4682b4; stroke-width: 1.5; stroke-linecap: square"/>
   </g>
   <g id="line2d_32">
    <path d="M 108.00689 217.458029 
L 193.442297 165.554801 
L 278.877703 148.905622 
L 364.31311 145.655038 
" clip-path="url(#p5706989744)" style="fill: none; stroke: #4682b4; stroke-width: 1.5; stroke-linecap: square"/>
   </g>
   <g id="patch_3">
    <path d="M 57.6 307.584 
L 57.6 41.472 
" style="fill: none; stroke: #000000; stroke-width: 0.8; stroke-linejoin: miter; stroke-linecap: square"/>
   </g>
   <g id="patch_4">
    <path d="M 414.72 307.584 
L 414.72 41.472 
" style="fill: none; stroke: #000000; stroke-width: 0.8; stroke-linejoin: miter; stroke-linecap: square"/>
   </g>
   <g id="patch_5">
    <path d="M 57.6 307.584 
L 414.72 307.584 
" style="fill: none; stroke: #000000; stroke-width: 0.8; stroke-linejoin: miter; stroke-linecap: square"/>
   </g>
   <g id="patch_6">
    <path d="M 57.6 41.472 
L 414.72 41.472 
" style="fill: none; stroke: #000000; stroke-width: 0.8; stroke-linejoin: miter; stroke-linecap: square"/>
   </g>
   <g id="text_18">
    <!-- Violinplot for progress of profits/by_selling_refurbished -->
    <g transform="translate(72.470625 35.472)scale(0.12 -0.12)">
     <defs>
      <path id="DejaVuSans-56" d="M 1831 0 
L 50 4666 
L 709 4666 
L 2188 738 
L 3669 4666 
L 4325 4666 
L 2547 0 
L 1831 0 
z
" transform="scale(0.015625)"/>
      <path id="DejaVuSans-6c" d="M 603 4863 
L 1178 4863 
L 1178 0 
L 603 0 
L 603 4863 
z
" transform="scale(0.015625)"/>
      <path id="DejaVuSans-66" d="M 2375 4863 
L 2375 4384 
L 1825 4384 
Q 1516 4384 1395 4259 
Q 1275 4134 1275 3809 
L 1275 3500 
L 2222 3500 
L 2222 3053 
L 1275 3053 
L 1275 0 
L 697 0 
L 697 3053 
L 147 3053 
L 147 3500 
L 697 3500 
L 697 3744 
Q 697 4328 969 4595 
Q 1241 4863 1831 4863 
L 2375 4863 
z
" transform="scale(0.015625)"/>
      <path id="DejaVuSans-67" d="M 2906 1791 
Q 2906 2416 2648 2759 
Q 2391 3103 1925 3103 
Q 1463 3103 1205 2759 
Q 947 2416 947 1791 
Q 947 1169 1205 825 
Q 1463 481 1925 481 
Q 2391 481 2648 825 
Q 2906 1169 2906 1791 
z
M 3481 434 
Q 3481 -459 3084 -895 
Q 2688 -1331 1869 -1331 
Q 1566 -1331 1297 -1286 
Q 1028 -1241 775 -1147 
L 775 -588 
Q 1028 -725 1275 -790 
Q 1522 -856 1778 -856 
Q 2344 -856 2625 -561 
Q 2906 -266 2906 331 
L 2906 616 
Q 2728 306 2450 153 
Q 2172 0 1784 0 
Q 1141 0 747 490 
Q 353 981 353 1791 
Q 353 2603 747 3093 
Q 1141 3584 1784 3584 
Q 2172 3584 2450 3431 
Q 2728 3278 2906 2969 
L 2906 3500 
L 3481 3500 
L 3481 434 
z
" transform="scale(0.015625)"/>
      <path id="DejaVuSans-2f" d="M 1625 4666 
L 2156 4666 
L 531 -594 
L 0 -594 
L 1625 4666 
z
" transform="scale(0.015625)"/>
      <path id="DejaVuSans-62" d="M 3116 1747 
Q 3116 2381 2855 2742 
Q 2594 3103 2138 3103 
Q 1681 3103 1420 2742 
Q 1159 2381 1159 1747 
Q 1159 1113 1420 752 
Q 1681 391 2138 391 
Q 2594 391 2855 752 
Q 3116 1113 3116 1747 
z
M 1159 2969 
Q 1341 3281 1617 3432 
Q 1894 3584 2278 3584 
Q 2916 3584 3314 3078 
Q 3713 2572 3713 1747 
Q 3713 922 3314 415 
Q 2916 -91 2278 -91 
Q 1894 -91 1617 61 
Q 1341 213 1159 525 
L 1159 0 
L 581 0 
L 581 4863 
L 1159 4863 
L 1159 2969 
z
" transform="scale(0.015625)"/>
      <path id="DejaVuSans-5f" d="M 3263 -1063 
L 3263 -1509 
L -63 -1509 
L -63 -1063 
L 3263 -1063 
z
" transform="scale(0.015625)"/>
      <path id="DejaVuSans-75" d="M 544 1381 
L 544 3500 
L 1119 3500 
L 1119 1403 
Q 1119 906 1312 657 
Q 1506 409 1894 409 
Q 2359 409 2629 706 
Q 2900 1003 2900 1516 
L 2900 3500 
L 3475 3500 
L 3475 0 
L 2900 0 
L 2900 538 
Q 2691 219 2414 64 
Q 2138 -91 1772 -91 
Q 1169 -91 856 284 
Q 544 659 544 1381 
z
M 1991 3584 
L 1991 3584 
z
" transform="scale(0.015625)"/>
      <path id="DejaVuSans-68" d="M 3513 2113 
L 3513 0 
L 2938 0 
L 2938 2094 
Q 2938 2591 2744 2837 
Q 2550 3084 2163 3084 
Q 1697 3084 1428 2787 
Q 1159 2491 1159 1978 
L 1159 0 
L 581 0 
L 581 4863 
L 1159 4863 
L 1159 2956 
Q 1366 3272 1645 3428 
Q 1925 3584 2291 3584 
Q 2894 3584 3203 3211 
Q 3513 2838 3513 2113 
z
" transform="scale(0.015625)"/>
     </defs>
     <use xlink:href="#DejaVuSans-56"/>
     <use xlink:href="#DejaVuSans-69" x="66.158203"/>
     <use xlink:href="#DejaVuSans-6f" x="93.941406"/>
     <use xlink:href="#DejaVuSans-6c" x="155.123047"/>
     <use xlink:href="#DejaVuSans-69" x="182.90625"/>
     <use xlink:href="#DejaVuSans-6e" x="210.689453"/>
     <use xlink:href="#DejaVuSans-70" x="274.068359"/>
     <use xlink:href="#DejaVuSans-6c" x="337.544922"/>
     <use xlink:href="#DejaVuSans-6f" x="365.328125"/>
     <use xlink:href="#DejaVuSans-74" x="426.509766"/>
     <use xlink:href="#DejaVuSans-20" x="465.71875"/>
     <use xlink:href="#DejaVuSans-66" x="497.505859"/>
     <use xlink:href="#DejaVuSans-6f" x="532.710938"/>
     <use xlink:href="#DejaVuSans-72" x="593.892578"/>
     <use xlink:href="#DejaVuSans-20" x="635.005859"/>
     <use xlink:href="#DejaVuSans-70" x="666.792969"/>
     <use xlink:href="#DejaVuSans-72" x="730.269531"/>
     <use xlink:href="#DejaVuSans-6f" x="769.132812"/>
     <use xlink:href="#DejaVuSans-67" x="830.314453"/>
     <use xlink:href="#DejaVuSans-72" x="893.791016"/>
     <use xlink:href="#DejaVuSans-65" x="932.654297"/>
     <use xlink:href="#DejaVuSans-73" x="994.177734"/>
     <use xlink:href="#DejaVuSans-73" x="1046.277344"/>
     <use xlink:href="#DejaVuSans-20" x="1098.376953"/>
     <use xlink:href="#DejaVuSans-6f" x="1130.164062"/>
     <use xlink:href="#DejaVuSans-66" x="1191.345703"/>
     <use xlink:href="#DejaVuSans-20" x="1226.550781"/>
     <use xlink:href="#DejaVuSans-70" x="1258.337891"/>
     <use xlink:href="#DejaVuSans-72" x="1321.814453"/>
     <use xlink:href="#DejaVuSans-6f" x="1360.677734"/>
     <use xlink:href="#DejaVuSans-66" x="1421.859375"/>
     <use xlink:href="#DejaVuSans-69" x="1457.064453"/>
     <use xlink:href="#DejaVuSans-74" x="1484.847656"/>
     <use xlink:href="#DejaVuSans-73" x="1524.056641"/>
     <use xlink:href="#DejaVuSans-2f" x="1576.15625"/>
     <use xlink:href="#DejaVuSans-62" x="1609.847656"/>
     <use xlink:href="#DejaVuSans-79" x="1673.324219"/>
     <use xlink:href="#DejaVuSans-5f" x="1732.503906"/>
     <use xlink:href="#DejaVuSans-73" x="1782.503906"/>
     <use xlink:href="#DejaVuSans-65" x="1834.603516"/>
     <use xlink:href="#DejaVuSans-6c" x="1896.126953"/>
     <use xlink:href="#DejaVuSans-6c" x="1923.910156"/>
     <use xlink:href="#DejaVuSans-69" x="1951.693359"/>
     <use xlink:href="#DejaVuSans-6e" x="1979.476562"/>
     <use xlink:href="#DejaVuSans-67" x="2042.855469"/>
     <use xlink:href="#DejaVuSans-5f" x="2106.332031"/>
     <use xlink:href="#DejaVuSans-72" x="2156.332031"/>
     <use xlink:href="#DejaVuSans-65" x="2195.195312"/>
     <use xlink:href="#DejaVuSans-66" x="2256.71875"/>
     <use xlink:href="#DejaVuSans-75" x="2291.923828"/>
     <use xlink:href="#DejaVuSans-72" x="2355.302734"/>
     <use xlink:href="#DejaVuSans-62" x="2396.416016"/>
     <use xlink:href="#DejaVuSans-69" x="2459.892578"/>
     <use xlink:href="#DejaVuSans-73" x="2487.675781"/>
     <use xlink:href="#DejaVuSans-68" x="2539.775391"/>
     <use xlink:href="#DejaVuSans-65" x="2603.154297"/>
     <use xlink:href="#DejaVuSans-64" x="2664.677734"/>
    </g>
   </g>
   <g id="legend_1">
    <g id="patch_7">
     <path d="M 276.25125 64.150125 
L 407.72 64.150125 
Q 409.72 64.150125 409.72 62.150125 
L 409.72 48.472 
Q 409.72 46.472 407.72 46.472 
L 276.25125 46.472 
Q 274.25125 46.472 274.25125 48.472 
L 274.25125 62.150125 
Q 274.25125 64.150125 276.25125 64.150125 
z
" style="fill: #ffffff; opacity: 0.8; stroke: #cccccc; stroke-linejoin: miter"/>
    </g>
    <g id="line2d_33">
     <path d="M 278.25125 54.570438 
L 288.25125 54.570438 
L 298.25125 54.570438 
" style="fill: none; stroke: #4682b4; stroke-width: 1.5; stroke-linecap: square"/>
    </g>
    <g id="text_19">
     <!-- StableBaselinesSAC -->
     <g transform="translate(306.25125 58.070438)scale(0.1 -0.1)">
      <defs>
       <path id="DejaVuSans-53" d="M 3425 4513 
L 3425 3897 
Q 3066 4069 2747 4153 
Q 2428 4238 2131 4238 
Q 1616 4238 1336 4038 
Q 1056 3838 1056 3469 
Q 1056 3159 1242 3001 
Q 1428 2844 1947 2747 
L 2328 2669 
Q 3034 2534 3370 2195 
Q 3706 1856 3706 1288 
Q 3706 609 3251 259 
Q 2797 -91 1919 -91 
Q 1588 -91 1214 -16 
Q 841 59 441 206 
L 441 856 
Q 825 641 1194 531 
Q 1563 422 1919 422 
Q 2459 422 2753 634 
Q 3047 847 3047 1241 
Q 3047 1584 2836 1778 
Q 2625 1972 2144 2069 
L 1759 2144 
Q 1053 2284 737 2584 
Q 422 2884 422 3419 
Q 422 4038 858 4394 
Q 1294 4750 2059 4750 
Q 2388 4750 2728 4690 
Q 3069 4631 3425 4513 
z
" transform="scale(0.015625)"/>
       <path id="DejaVuSans-42" d="M 1259 2228 
L 1259 519 
L 2272 519 
Q 2781 519 3026 730 
Q 3272 941 3272 1375 
Q 3272 1813 3026 2020 
Q 2781 2228 2272 2228 
L 1259 2228 
z
M 1259 4147 
L 1259 2741 
L 2194 2741 
Q 2656 2741 2882 2914 
Q 3109 3088 3109 3444 
Q 3109 3797 2882 3972 
Q 2656 4147 2194 4147 
L 1259 4147 
z
M 628 4666 
L 2241 4666 
Q 2963 4666 3353 4366 
Q 3744 4066 3744 3513 
Q 3744 3084 3544 2831 
Q 3344 2578 2956 2516 
Q 3422 2416 3680 2098 
Q 3938 1781 3938 1306 
Q 3938 681 3513 340 
Q 3088 0 2303 0 
L 628 0 
L 628 4666 
z
" transform="scale(0.015625)"/>
       <path id="DejaVuSans-41" d="M 2188 4044 
L 1331 1722 
L 3047 1722 
L 2188 4044 
z
M 1831 4666 
L 2547 4666 
L 4325 0 
L 3669 0 
L 3244 1197 
L 1141 1197 
L 716 0 
L 50 0 
L 1831 4666 
z
" transform="scale(0.015625)"/>
       <path id="DejaVuSans-43" d="M 4122 4306 
L 4122 3641 
Q 3803 3938 3442 4084 
Q 3081 4231 2675 4231 
Q 1875 4231 1450 3742 
Q 1025 3253 1025 2328 
Q 1025 1406 1450 917 
Q 1875 428 2675 428 
Q 3081 428 3442 575 
Q 3803 722 4122 1019 
L 4122 359 
Q 3791 134 3420 21 
Q 3050 -91 2638 -91 
Q 1578 -91 968 557 
Q 359 1206 359 2328 
Q 359 3453 968 4101 
Q 1578 4750 2638 4750 
Q 3056 4750 3426 4639 
Q 3797 4528 4122 4306 
z
" transform="scale(0.015625)"/>
      </defs>
      <use xlink:href="#DejaVuSans-53"/>
      <use xlink:href="#DejaVuSans-74" x="63.476562"/>
      <use xlink:href="#DejaVuSans-61" x="102.685547"/>
      <use xlink:href="#DejaVuSans-62" x="163.964844"/>
      <use xlink:href="#DejaVuSans-6c" x="227.441406"/>
      <use xlink:href="#DejaVuSans-65" x="255.224609"/>
      <use xlink:href="#DejaVuSans-42" x="316.748047"/>
      <use xlink:href="#DejaVuSans-61" x="385.351562"/>
      <use xlink:href="#DejaVuSans-73" x="446.630859"/>
      <use xlink:href="#DejaVuSans-65" x="498.730469"/>
      <use xlink:href="#DejaVuSans-6c" x="560.253906"/>
      <use xlink:href="#DejaVuSans-69" x="588.037109"/>
      <use xlink:href="#DejaVuSans-6e" x="615.820312"/>
      <use xlink:href="#DejaVuSans-65" x="679.199219"/>
      <use xlink:href="#DejaVuSans-73" x="740.722656"/>
      <use xlink:href="#DejaVuSans-53" x="792.822266"/>
      <use xlink:href="#DejaVuSans-41" x="858.173828"/>
      <use xlink:href="#DejaVuSans-43" x="924.832031"/>
     </g>
    </g>
   </g>
  </g>
 </g>
 <defs>
  <clipPath id="p5706989744">
   <rect x="57.6" y="41.472" width="357.12" height="266.112"/>
  </clipPath>
 </defs>
</svg>
