<?xml version="1.0" encoding="utf-8" standalone="no"?>
<!DOCTYPE svg PUBLIC "-//W3C//DTD SVG 1.1//EN"
  "http://www.w3.org/Graphics/SVG/1.1/DTD/svg11.dtd">
<svg xmlns:xlink="http://www.w3.org/1999/xlink" width="460.8pt" height="345.6pt" viewBox="0 0 460.8 345.6" xmlns="http://www.w3.org/2000/svg" version="1.1">
 <metadata>
  <rdf:RDF xmlns:dc="http://purl.org/dc/elements/1.1/" xmlns:cc="http://creativecommons.org/ns#" xmlns:rdf="http://www.w3.org/1999/02/22-rdf-syntax-ns#">
   <cc:Work>
    <dc:type rdf:resource="http://purl.org/dc/dcmitype/StillImage"/>
    <dc:date>2022-06-20T18:30:19.907823</dc:date>
    <dc:format>image/svg+xml</dc:format>
    <dc:creator>
     <cc:Agent>
      <dc:title>Matplotlib v3.5.2, https://matplotlib.org/</dc:title>
     </cc:Agent>
    </dc:creator>
   </cc:Work>
  </rdf:RDF>
 </metadata>
 <defs>
  <style type="text/css">*{stroke-linejoin: round; stroke-linecap: butt}</style>
 </defs>
 <g id="figure_1">
  <g id="patch_1">
   <path d="M 0 345.6 
L 460.8 345.6 
L 460.8 0 
L 0 0 
z
" style="fill: #ffffff"/>
  </g>
  <g id="axes_1">
   <g id="patch_2">
    <path d="M 57.6 307.584 
L 414.72 307.584 
L 414.72 41.472 
L 57.6 41.472 
z
" style="fill: #ffffff"/>
   </g>
   <g id="PolyCollection_1">
    <path d="M 108.40105 295.488 
L 107.61273 295.488 
L 107.549362 293.577889 
L 107.479145 291.667779 
L 107.400904 289.757668 
L 107.313924 287.847558 
L 107.218051 285.937447 
L 107.113412 284.027337 
L 106.999737 282.117226 
L 106.87538 280.207116 
L 106.736292 278.297005 
L 106.575199 276.386894 
L 106.381228 274.476784 
L 106.140117 272.566673 
L 105.835026 270.656563 
L 105.447849 268.746452 
L 104.960827 266.836342 
L 104.358203 264.926231 
L 103.627636 263.01612 
L 102.761129 261.10601 
L 101.755339 259.195899 
L 100.611299 257.285789 
L 99.333801 255.375678 
L 97.930791 253.465568 
L 96.413158 251.555457 
L 94.795103 249.645347 
L 93.094984 247.735236 
L 91.336205 245.825125 
L 89.547511 243.915015 
L 87.762128 242.004904 
L 86.015473 240.094794 
L 84.341705 238.184683 
L 82.769883 236.274573 
L 81.320783 234.364462 
L 80.005373 232.454351 
L 78.825464 230.544241 
L 77.776374 228.63413 
L 76.850775 226.72402 
L 76.042527 224.813909 
L 75.349425 222.903799 
L 74.774257 220.993688 
L 74.324277 219.083578 
L 74.009709 217.173467 
L 73.84205 215.263356 
L 73.832727 213.353246 
L 73.992134 211.443135 
L 74.328686 209.533025 
L 74.847417 207.622914 
L 75.547897 205.712804 
L 76.421756 203.802693 
L 77.450556 201.892583 
L 78.604924 199.982472 
L 79.845643 198.072361 
L 81.126845 196.162251 
L 82.40088 194.25214 
L 83.623937 192.34203 
L 84.761334 190.431919 
L 85.791538 188.521809 
L 86.708253 186.611698 
L 87.520339 184.701587 
L 88.249635 182.791477 
L 88.927086 180.881366 
L 89.587801 178.971256 
L 90.265816 177.061145 
L 90.989394 175.151035 
L 91.777518 173.240924 
L 92.637999 171.330814 
L 93.567216 169.420703 
L 94.551204 167.510592 
L 95.56765 165.600482 
L 96.588418 163.690371 
L 97.58233 161.780261 
L 98.518142 159.87015 
L 99.367637 157.96004 
L 100.108671 156.049929 
L 100.727815 154.139819 
L 101.222099 152.229708 
L 101.599401 150.319597 
L 101.87725 148.409487 
L 102.080167 146.499376 
L 102.236031 144.589266 
L 102.372199 142.679155 
L 102.512136 140.769045 
L 102.673127 138.858934 
L 102.865311 136.948823 
L 103.091992 135.038713 
L 103.350884 133.128602 
L 103.635864 131.218492 
L 103.938816 129.308381 
L 104.251235 127.398271 
L 104.565389 125.48816 
L 104.874986 123.57805 
L 105.175365 121.667939 
L 105.463344 119.757828 
L 105.736898 117.847718 
L 105.994815 115.937607 
L 106.236444 114.027497 
L 106.46155 112.117386 
L 106.670237 110.207276 
L 106.862853 108.297165 
L 107.039831 106.387054 
L 108.973949 106.387054 
L 108.973949 106.387054 
L 109.150927 108.297165 
L 109.343542 110.207276 
L 109.55223 112.117386 
L 109.777336 114.027497 
L 110.018965 115.937607 
L 110.276882 117.847718 
L 110.550436 119.757828 
L 110.838415 121.667939 
L 111.138793 123.57805 
L 111.448391 125.48816 
L 111.762545 127.398271 
L 112.074963 129.308381 
L 112.377916 131.218492 
L 112.662896 133.128602 
L 112.921788 135.038713 
L 113.148469 136.948823 
L 113.340653 138.858934 
L 113.501643 140.769045 
L 113.641581 142.679155 
L 113.777749 144.589266 
L 113.933613 146.499376 
L 114.13653 148.409487 
L 114.414379 150.319597 
L 114.791681 152.229708 
L 115.285965 154.139819 
L 115.905109 156.049929 
L 116.646143 157.96004 
L 117.495638 159.87015 
L 118.43145 161.780261 
L 119.425362 163.690371 
L 120.44613 165.600482 
L 121.462576 167.510592 
L 122.446563 169.420703 
L 123.375781 171.330814 
L 124.236262 173.240924 
L 125.024386 175.151035 
L 125.747963 177.061145 
L 126.425979 178.971256 
L 127.086693 180.881366 
L 127.764144 182.791477 
L 128.493441 184.701587 
L 129.305527 186.611698 
L 130.222242 188.521809 
L 131.252446 190.431919 
L 132.389843 192.34203 
L 133.6129 194.25214 
L 134.886935 196.162251 
L 136.168137 198.072361 
L 137.408856 199.982472 
L 138.563224 201.892583 
L 139.592024 203.802693 
L 140.465883 205.712804 
L 141.166363 207.622914 
L 141.685094 209.533025 
L 142.021646 211.443135 
L 142.181053 213.353246 
L 142.17173 215.263356 
L 142.004071 217.173467 
L 141.689503 219.083578 
L 141.239523 220.993688 
L 140.664355 222.903799 
L 139.971253 224.813909 
L 139.163005 226.72402 
L 138.237406 228.63413 
L 137.188316 230.544241 
L 136.008407 232.454351 
L 134.692997 234.364462 
L 133.243897 236.274573 
L 131.672075 238.184683 
L 129.998307 240.094794 
L 128.251652 242.004904 
L 126.466269 243.915015 
L 124.677575 245.825125 
L 122.918796 247.735236 
L 121.218677 249.645347 
L 119.600622 251.555457 
L 118.082989 253.465568 
L 116.679979 255.375678 
L 115.402481 257.285789 
L 114.258441 259.195899 
L 113.252651 261.10601 
L 112.386144 263.01612 
L 111.655577 264.926231 
L 111.052953 266.836342 
L 110.565931 268.746452 
L 110.178754 270.656563 
L 109.873663 272.566673 
L 109.632552 274.476784 
L 109.438581 276.386894 
L 109.277488 278.297005 
L 109.1384 280.207116 
L 109.014043 282.117226 
L 108.900368 284.027337 
L 108.795729 285.937447 
L 108.699856 287.847558 
L 108.612876 289.757668 
L 108.534635 291.667779 
L 108.464418 293.577889 
L 108.40105 295.488 
z
" clip-path="url(#pc1f687d44c)" style="fill: #1f77b4; fill-opacity: 0.3"/>
   </g>
   <g id="PolyCollection_2">
    <path d="M 198.430734 286.932186 
L 188.453859 286.932186 
L 187.153185 284.831594 
L 185.655389 282.731001 
L 183.967723 280.630409 
L 182.106706 278.529816 
L 180.098037 276.429224 
L 177.975772 274.328631 
L 175.78086 272.228039 
L 173.559219 270.127446 
L 171.359564 268.026854 
L 169.231197 265.926261 
L 167.221901 263.825669 
L 165.375969 261.725076 
L 163.732382 259.624484 
L 162.323117 257.523891 
L 161.171641 255.423299 
L 160.291756 253.322706 
L 159.68702 251.222114 
L 159.350953 249.121521 
L 159.268134 247.020929 
L 159.416091 244.920336 
L 159.76766 242.819744 
L 160.293364 240.719151 
L 160.963353 238.618559 
L 161.748572 236.517966 
L 162.62109 234.417374 
L 163.553809 232.316781 
L 164.519958 230.216189 
L 165.492907 228.115596 
L 166.44673 226.015004 
L 167.357705 223.914411 
L 168.206619 221.813819 
L 168.98136 219.713226 
L 169.679096 217.612634 
L 170.307223 215.512041 
L 170.882568 213.411449 
L 171.428681 211.310856 
L 171.971644 209.210264 
L 172.535245 207.109671 
L 173.136614 205.009079 
L 173.783339 202.908486 
L 174.472697 200.807894 
L 175.193077 198.707301 
L 175.927151 196.606709 
L 176.655905 194.506116 
L 177.362596 192.405524 
L 178.035748 190.304931 
L 178.67072 188.204339 
L 179.269686 186.103746 
L 179.840297 184.003154 
L 180.393461 181.902561 
L 180.940797 179.801969 
L 181.492289 177.701376 
L 182.054505 175.600784 
L 182.629636 173.500191 
L 183.215397 171.399599 
L 183.805709 169.299006 
L 184.391956 167.198414 
L 184.964525 165.097821 
L 185.514333 162.997229 
L 186.034063 160.896636 
L 186.518902 158.796044 
L 186.966723 156.695451 
L 187.377758 154.594859 
L 187.753921 152.494266 
L 188.098035 150.393674 
L 188.413174 148.293081 
L 188.7023 146.192489 
L 188.968219 144.091896 
L 189.213772 141.991304 
L 189.44208 139.890711 
L 189.65662 137.790119 
L 189.860998 135.689526 
L 190.058416 133.588934 
L 190.250961 131.488341 
L 190.438996 129.387749 
L 190.620906 127.287156 
L 190.793402 125.186564 
L 190.952398 123.085971 
L 191.094263 120.985379 
L 191.217141 118.884786 
L 191.321903 116.784194 
L 191.412452 114.683601 
L 191.495214 112.583009 
L 191.577907 110.482416 
L 191.667899 108.381824 
L 191.770567 106.281231 
L 191.888086 104.180639 
L 192.018954 102.080046 
L 192.158351 99.979454 
L 192.299229 97.878861 
L 192.433835 95.778269 
L 192.555288 93.677676 
L 192.65887 91.577084 
L 192.742747 89.476491 
L 192.808038 87.375899 
L 192.858271 85.275306 
L 192.898433 83.174714 
L 192.933842 81.074121 
L 192.969124 78.973529 
L 193.915469 78.973529 
L 193.915469 78.973529 
L 193.950752 81.074121 
L 193.986161 83.174714 
L 194.026322 85.275306 
L 194.076556 87.375899 
L 194.141846 89.476491 
L 194.225724 91.577084 
L 194.329306 93.677676 
L 194.450759 95.778269 
L 194.585364 97.878861 
L 194.726243 99.979454 
L 194.86564 102.080046 
L 194.996507 104.180639 
L 195.114026 106.281231 
L 195.216694 108.381824 
L 195.306686 110.482416 
L 195.389379 112.583009 
L 195.472141 114.683601 
L 195.562691 116.784194 
L 195.667453 118.884786 
L 195.79033 120.985379 
L 195.932196 123.085971 
L 196.091191 125.186564 
L 196.263688 127.287156 
L 196.445598 129.387749 
L 196.633632 131.488341 
L 196.826178 133.588934 
L 197.023595 135.689526 
L 197.227973 137.790119 
L 197.442513 139.890711 
L 197.670822 141.991304 
L 197.916375 144.091896 
L 198.182293 146.192489 
L 198.471419 148.293081 
L 198.786558 150.393674 
L 199.130672 152.494266 
L 199.506835 154.594859 
L 199.91787 156.695451 
L 200.365692 158.796044 
L 200.85053 160.896636 
L 201.37026 162.997229 
L 201.920068 165.097821 
L 202.492637 167.198414 
L 203.078884 169.299006 
L 203.669197 171.399599 
L 204.254958 173.500191 
L 204.830089 175.600784 
L 205.392304 177.701376 
L 205.943796 179.801969 
L 206.491133 181.902561 
L 207.044296 184.003154 
L 207.614908 186.103746 
L 208.213874 188.204339 
L 208.848845 190.304931 
L 209.521997 192.405524 
L 210.228688 194.506116 
L 210.957443 196.606709 
L 211.691516 198.707301 
L 212.411897 200.807894 
L 213.101254 202.908486 
L 213.74798 205.009079 
L 214.349348 207.109671 
L 214.912949 209.210264 
L 215.455912 211.310856 
L 216.002025 213.411449 
L 216.57737 215.512041 
L 217.205498 217.612634 
L 217.903233 219.713226 
L 218.677975 221.813819 
L 219.526888 223.914411 
L 220.437864 226.015004 
L 221.391687 228.115596 
L 222.364636 230.216189 
L 223.330784 232.316781 
L 224.263503 234.417374 
L 225.136022 236.517966 
L 225.92124 238.618559 
L 226.591229 240.719151 
L 227.116934 242.819744 
L 227.468502 244.920336 
L 227.616459 247.020929 
L 227.533641 249.121521 
L 227.197573 251.222114 
L 226.592837 253.322706 
L 225.712953 255.423299 
L 224.561476 257.523891 
L 223.152211 259.624484 
L 221.508625 261.725076 
L 219.662692 263.825669 
L 217.653396 265.926261 
L 215.52503 268.026854 
L 213.325374 270.127446 
L 211.103733 272.228039 
L 208.908822 274.328631 
L 206.786556 276.429224 
L 204.777887 278.529816 
L 202.91687 280.630409 
L 201.229204 282.731001 
L 199.731409 284.831594 
L 198.430734 286.932186 
z
" clip-path="url(#pc1f687d44c)" style="fill: #1f77b4; fill-opacity: 0.3"/>
   </g>
   <g id="PolyCollection_3">
    <path d="M 284.025105 281.344716 
L 273.730302 281.344716 
L 272.628523 279.189448 
L 271.43321 277.03418 
L 270.165832 274.878912 
L 268.849751 272.723644 
L 267.507446 270.568377 
L 266.157799 268.413109 
L 264.813936 266.257841 
L 263.482048 264.102573 
L 262.161483 261.947305 
L 260.846168 259.792037 
L 259.527178 257.636769 
L 258.196051 255.481502 
L 256.848251 253.326234 
L 255.48615 251.170966 
L 254.120903 249.015698 
L 252.772778 246.86043 
L 251.469772 244.705162 
L 250.244666 242.549894 
L 249.13098 240.394626 
L 248.158546 238.239359 
L 247.349511 236.084091 
L 246.715487 233.928823 
L 246.256358 231.773555 
L 245.960872 229.618287 
L 245.808792 227.463019 
L 245.774062 225.307751 
L 245.828286 223.152483 
L 245.943834 220.997216 
L 246.096064 218.841948 
L 246.264439 216.68668 
L 246.432602 214.531412 
L 246.587724 212.376144 
L 246.71954 210.220876 
L 246.819477 208.065608 
L 246.880156 205.91034 
L 246.895349 203.755073 
L 246.860339 201.599805 
L 246.772513 199.444537 
L 246.631994 197.289269 
L 246.442166 195.134001 
L 246.210016 192.978733 
L 245.946272 190.823465 
L 245.665335 188.668198 
L 245.384993 186.51293 
L 245.125871 184.357662 
L 244.910549 182.202394 
L 244.762312 180.047126 
L 244.703541 177.891858 
L 244.753893 175.73659 
L 244.928476 173.581322 
L 245.236312 171.426055 
L 245.679397 169.270787 
L 246.252591 167.115519 
L 246.944456 164.960251 
L 247.738988 162.804983 
L 248.618027 160.649715 
L 249.563965 158.494447 
L 250.562296 156.339179 
L 251.603535 154.183912 
L 252.684146 152.028644 
L 253.806254 149.873376 
L 254.976182 147.718108 
L 256.202049 145.56284 
L 257.490861 143.407572 
L 258.845636 141.252304 
L 260.263067 139.097036 
L 261.732158 136.941769 
L 263.234038 134.786501 
L 264.742977 132.631233 
L 266.228382 130.475965 
L 267.657452 128.320697 
L 268.998071 126.165429 
L 270.221548 124.010161 
L 271.304912 121.854893 
L 272.232594 119.699626 
L 272.997407 117.544358 
L 273.600882 115.38909 
L 274.052969 113.233822 
L 274.37119 111.078554 
L 274.579243 108.923286 
L 274.705122 106.768018 
L 274.778821 104.612751 
L 274.829785 102.457483 
L 274.88437 100.302215 
L 274.963621 98.146947 
L 275.081698 95.991679 
L 275.245191 93.836411 
L 275.45343 91.681143 
L 275.699714 89.525875 
L 275.973188 87.370608 
L 276.261021 85.21534 
L 276.550489 83.060072 
L 276.83063 80.904804 
L 277.093277 78.749536 
L 277.333416 76.594268 
L 277.548968 74.439 
L 277.740166 72.283732 
L 277.908751 70.128465 
L 278.057182 67.973197 
L 279.698224 67.973197 
L 279.698224 67.973197 
L 279.846656 70.128465 
L 280.015241 72.283732 
L 280.206439 74.439 
L 280.42199 76.594268 
L 280.66213 78.749536 
L 280.924776 80.904804 
L 281.204918 83.060072 
L 281.494386 85.21534 
L 281.782219 87.370608 
L 282.055693 89.525875 
L 282.301977 91.681143 
L 282.510216 93.836411 
L 282.673708 95.991679 
L 282.791785 98.146947 
L 282.871037 100.302215 
L 282.925622 102.457483 
L 282.976586 104.612751 
L 283.050284 106.768018 
L 283.176163 108.923286 
L 283.384216 111.078554 
L 283.702437 113.233822 
L 284.154525 115.38909 
L 284.757999 117.544358 
L 285.522813 119.699626 
L 286.450494 121.854893 
L 287.533859 124.010161 
L 288.757335 126.165429 
L 290.097955 128.320697 
L 291.527025 130.475965 
L 293.01243 132.631233 
L 294.521368 134.786501 
L 296.023249 136.941769 
L 297.49234 139.097036 
L 298.909771 141.252304 
L 300.264545 143.407572 
L 301.553358 145.56284 
L 302.779225 147.718108 
L 303.949153 149.873376 
L 305.071261 152.028644 
L 306.151871 154.183912 
L 307.193111 156.339179 
L 308.191442 158.494447 
L 309.13738 160.649715 
L 310.016419 162.804983 
L 310.81095 164.960251 
L 311.502815 167.115519 
L 312.07601 169.270787 
L 312.519095 171.426055 
L 312.82693 173.581322 
L 313.001513 175.73659 
L 313.051866 177.891858 
L 312.993095 180.047126 
L 312.844857 182.202394 
L 312.629536 184.357662 
L 312.370414 186.51293 
L 312.090072 188.668198 
L 311.809135 190.823465 
L 311.545391 192.978733 
L 311.313241 195.134001 
L 311.123413 197.289269 
L 310.982894 199.444537 
L 310.895068 201.599805 
L 310.860058 203.755073 
L 310.875251 205.91034 
L 310.93593 208.065608 
L 311.035867 210.220876 
L 311.167682 212.376144 
L 311.322804 214.531412 
L 311.490968 216.68668 
L 311.659343 218.841948 
L 311.811573 220.997216 
L 311.927121 223.152483 
L 311.981344 225.307751 
L 311.946615 227.463019 
L 311.794535 229.618287 
L 311.499049 231.773555 
L 311.03992 233.928823 
L 310.405896 236.084091 
L 309.596861 238.239359 
L 308.624427 240.394626 
L 307.51074 242.549894 
L 306.285634 244.705162 
L 304.982629 246.86043 
L 303.634503 249.015698 
L 302.269256 251.170966 
L 300.907156 253.326234 
L 299.559356 255.481502 
L 298.228228 257.636769 
L 296.909239 259.792037 
L 295.593924 261.947305 
L 294.273359 264.102573 
L 292.941471 266.257841 
L 291.597608 268.413109 
L 290.247961 270.568377 
L 288.905655 272.723644 
L 287.589574 274.878912 
L 286.322197 277.03418 
L 285.126884 279.189448 
L 284.025105 281.344716 
z
" clip-path="url(#pc1f687d44c)" style="fill: #1f77b4; fill-opacity: 0.3"/>
   </g>
   <g id="PolyCollection_4">
    <path d="M 371.49952 284.051147 
L 357.1267 284.051147 
L 355.951478 281.723034 
L 354.72829 279.394922 
L 353.481323 277.066809 
L 352.236333 274.738696 
L 351.019257 272.410584 
L 349.854802 270.082471 
L 348.765096 267.754359 
L 347.768512 265.426246 
L 346.878724 263.098134 
L 346.104082 260.770021 
L 345.447323 258.441908 
L 344.905636 256.113796 
L 344.471054 253.785683 
L 344.131121 251.457571 
L 343.869784 249.129458 
L 343.668429 246.801345 
L 343.50703 244.473233 
L 343.365339 242.14512 
L 343.224094 239.817008 
L 343.066162 237.488895 
L 342.877567 235.160782 
L 342.648287 232.83267 
L 342.372731 230.504557 
L 342.04981 228.176445 
L 341.682543 225.848332 
L 341.277251 223.520219 
L 340.842412 221.192107 
L 340.387347 218.863994 
L 339.920946 216.535882 
L 339.450614 214.207769 
L 338.981601 211.879656 
L 338.51678 209.551544 
L 338.056863 207.223431 
L 337.60096 204.895319 
L 337.147308 202.567206 
L 336.694018 200.239093 
L 336.239682 197.910981 
L 335.783739 195.582868 
L 335.326577 193.254756 
L 334.869415 190.926643 
L 334.414057 188.59853 
L 333.962616 186.270418 
L 333.517325 183.942305 
L 333.080486 181.614193 
L 332.654584 179.28608 
L 332.242525 176.957968 
L 331.847956 174.629855 
L 331.47557 172.301742 
L 331.131352 169.97363 
L 330.822713 167.645517 
L 330.558494 165.317405 
L 330.348845 162.989292 
L 330.204999 160.661179 
L 330.138947 158.333067 
L 330.163035 156.004954 
L 330.289483 153.676842 
L 330.529841 151.348729 
L 330.894382 149.020616 
L 331.391467 146.692504 
L 332.026904 144.364391 
L 332.803358 142.036279 
L 333.719856 139.708166 
L 334.771439 137.380053 
L 335.94901 135.051941 
L 337.239411 132.723828 
L 338.625761 130.395716 
L 340.088035 128.067603 
L 341.603883 125.73949 
L 343.149609 123.411378 
L 344.701243 121.083265 
L 346.235601 118.755153 
L 347.731237 116.42704 
L 349.169213 114.098927 
L 350.533621 111.770815 
L 351.811879 109.442702 
L 352.9948 107.11459 
L 354.076514 104.786477 
L 355.054279 102.458364 
L 355.928246 100.130252 
L 356.701193 97.802139 
L 357.378239 95.474027 
L 357.966523 93.145914 
L 358.474824 90.817802 
L 358.913127 88.489689 
L 359.292138 86.161576 
L 359.622763 83.833464 
L 359.915615 81.505351 
L 360.18056 79.177239 
L 360.426367 76.849126 
L 360.66045 74.521013 
L 360.88873 72.192901 
L 361.115587 69.864788 
L 361.34389 67.536676 
L 361.575081 65.208563 
L 361.809291 62.88045 
L 362.045503 60.552338 
L 362.281734 58.224225 
L 362.515258 55.896113 
L 362.742863 53.568 
L 365.883357 53.568 
L 365.883357 53.568 
L 366.110962 55.896113 
L 366.344486 58.224225 
L 366.580717 60.552338 
L 366.816929 62.88045 
L 367.051139 65.208563 
L 367.28233 67.536676 
L 367.510633 69.864788 
L 367.737491 72.192901 
L 367.96577 74.521013 
L 368.199853 76.849126 
L 368.44566 79.177239 
L 368.710605 81.505351 
L 369.003457 83.833464 
L 369.334082 86.161576 
L 369.713093 88.489689 
L 370.151396 90.817802 
L 370.659697 93.145914 
L 371.247981 95.474027 
L 371.925027 97.802139 
L 372.697974 100.130252 
L 373.571941 102.458364 
L 374.549706 104.786477 
L 375.63142 107.11459 
L 376.814341 109.442702 
L 378.092599 111.770815 
L 379.457007 114.098927 
L 380.894983 116.42704 
L 382.39062 118.755153 
L 383.924977 121.083265 
L 385.476611 123.411378 
L 387.022337 125.73949 
L 388.538185 128.067603 
L 390.000459 130.395716 
L 391.386809 132.723828 
L 392.67721 135.051941 
L 393.854781 137.380053 
L 394.906364 139.708166 
L 395.822862 142.036279 
L 396.599316 144.364391 
L 397.234753 146.692504 
L 397.731838 149.020616 
L 398.096379 151.348729 
L 398.336737 153.676842 
L 398.463185 156.004954 
L 398.487273 158.333067 
L 398.421221 160.661179 
L 398.277375 162.989292 
L 398.067726 165.317405 
L 397.803507 167.645517 
L 397.494868 169.97363 
L 397.15065 172.301742 
L 396.778264 174.629855 
L 396.383695 176.957968 
L 395.971636 179.28608 
L 395.545734 181.614193 
L 395.108895 183.942305 
L 394.663604 186.270418 
L 394.212163 188.59853 
L 393.756805 190.926643 
L 393.299643 193.254756 
L 392.842481 195.582868 
L 392.386538 197.910981 
L 391.932202 200.239093 
L 391.478913 202.567206 
L 391.02526 204.895319 
L 390.569357 207.223431 
L 390.109441 209.551544 
L 389.644619 211.879656 
L 389.175606 214.207769 
L 388.705274 216.535882 
L 388.238873 218.863994 
L 387.783808 221.192107 
L 387.348969 223.520219 
L 386.943677 225.848332 
L 386.57641 228.176445 
L 386.253489 230.504557 
L 385.977933 232.83267 
L 385.748653 235.160782 
L 385.560058 237.488895 
L 385.402126 239.817008 
L 385.260881 242.14512 
L 385.11919 244.473233 
L 384.957791 246.801345 
L 384.756436 249.129458 
L 384.495099 251.457571 
L 384.155166 253.785683 
L 383.720584 256.113796 
L 383.178897 258.441908 
L 382.522138 260.770021 
L 381.747496 263.098134 
L 380.857708 265.426246 
L 379.861124 267.754359 
L 378.771418 270.082471 
L 377.606963 272.410584 
L 376.389887 274.738696 
L 375.144897 277.066809 
L 373.89793 279.394922 
L 372.674742 281.723034 
L 371.49952 284.051147 
z
" clip-path="url(#pc1f687d44c)" style="fill: #1f77b4; fill-opacity: 0.3"/>
   </g>
   <g id="matplotlib.axis_1">
    <g id="xtick_1">
     <g id="line2d_1">
      <path d="M 65.289187 307.584 
L 65.289187 41.472 
" clip-path="url(#pc1f687d44c)" style="fill: none; stroke-dasharray: 2.96,1.28; stroke-dashoffset: 0; stroke: #b0b0b0; stroke-width: 0.8"/>
     </g>
     <g id="line2d_2">
      <defs>
       <path id="m8aad9975f4" d="M 0 0 
L 0 3.5 
" style="stroke: #000000; stroke-width: 0.8"/>
      </defs>
      <g>
       <use xlink:href="#m8aad9975f4" x="65.289187" y="307.584" style="stroke: #000000; stroke-width: 0.8"/>
      </g>
     </g>
     <g id="text_1">
      <!-- 250 -->
      <g transform="translate(55.745437 322.182437)scale(0.1 -0.1)">
       <defs>
        <path id="DejaVuSans-32" d="M 1228 531 
L 3431 531 
L 3431 0 
L 469 0 
L 469 531 
Q 828 903 1448 1529 
Q 2069 2156 2228 2338 
Q 2531 2678 2651 2914 
Q 2772 3150 2772 3378 
Q 2772 3750 2511 3984 
Q 2250 4219 1831 4219 
Q 1534 4219 1204 4116 
Q 875 4013 500 3803 
L 500 4441 
Q 881 4594 1212 4672 
Q 1544 4750 1819 4750 
Q 2544 4750 2975 4387 
Q 3406 4025 3406 3419 
Q 3406 3131 3298 2873 
Q 3191 2616 2906 2266 
Q 2828 2175 2409 1742 
Q 1991 1309 1228 531 
z
" transform="scale(0.015625)"/>
        <path id="DejaVuSans-35" d="M 691 4666 
L 3169 4666 
L 3169 4134 
L 1269 4134 
L 1269 2991 
Q 1406 3038 1543 3061 
Q 1681 3084 1819 3084 
Q 2600 3084 3056 2656 
Q 3513 2228 3513 1497 
Q 3513 744 3044 326 
Q 2575 -91 1722 -91 
Q 1428 -91 1123 -41 
Q 819 9 494 109 
L 494 744 
Q 775 591 1075 516 
Q 1375 441 1709 441 
Q 2250 441 2565 725 
Q 2881 1009 2881 1497 
Q 2881 1984 2565 2268 
Q 2250 2553 1709 2553 
Q 1456 2553 1204 2497 
Q 953 2441 691 2322 
L 691 4666 
z
" transform="scale(0.015625)"/>
        <path id="DejaVuSans-30" d="M 2034 4250 
Q 1547 4250 1301 3770 
Q 1056 3291 1056 2328 
Q 1056 1369 1301 889 
Q 1547 409 2034 409 
Q 2525 409 2770 889 
Q 3016 1369 3016 2328 
Q 3016 3291 2770 3770 
Q 2525 4250 2034 4250 
z
M 2034 4750 
Q 2819 4750 3233 4129 
Q 3647 3509 3647 2328 
Q 3647 1150 3233 529 
Q 2819 -91 2034 -91 
Q 1250 -91 836 529 
Q 422 1150 422 2328 
Q 422 3509 836 4129 
Q 1250 4750 2034 4750 
z
" transform="scale(0.015625)"/>
       </defs>
       <use xlink:href="#DejaVuSans-32"/>
       <use xlink:href="#DejaVuSans-35" x="63.623047"/>
       <use xlink:href="#DejaVuSans-30" x="127.246094"/>
      </g>
     </g>
    </g>
    <g id="xtick_2">
     <g id="line2d_3">
      <path d="M 108.00689 307.584 
L 108.00689 41.472 
" clip-path="url(#pc1f687d44c)" style="fill: none; stroke-dasharray: 2.96,1.28; stroke-dashoffset: 0; stroke: #b0b0b0; stroke-width: 0.8"/>
     </g>
     <g id="line2d_4">
      <g>
       <use xlink:href="#m8aad9975f4" x="108.00689" y="307.584" style="stroke: #000000; stroke-width: 0.8"/>
      </g>
     </g>
     <g id="text_2">
      <!-- 500 -->
      <g transform="translate(98.46314 322.182437)scale(0.1 -0.1)">
       <use xlink:href="#DejaVuSans-35"/>
       <use xlink:href="#DejaVuSans-30" x="63.623047"/>
       <use xlink:href="#DejaVuSans-30" x="127.246094"/>
      </g>
     </g>
    </g>
    <g id="xtick_3">
     <g id="line2d_5">
      <path d="M 150.724593 307.584 
L 150.724593 41.472 
" clip-path="url(#pc1f687d44c)" style="fill: none; stroke-dasharray: 2.96,1.28; stroke-dashoffset: 0; stroke: #b0b0b0; stroke-width: 0.8"/>
     </g>
     <g id="line2d_6">
      <g>
       <use xlink:href="#m8aad9975f4" x="150.724593" y="307.584" style="stroke: #000000; stroke-width: 0.8"/>
      </g>
     </g>
     <g id="text_3">
      <!-- 750 -->
      <g transform="translate(141.180843 322.182437)scale(0.1 -0.1)">
       <defs>
        <path id="DejaVuSans-37" d="M 525 4666 
L 3525 4666 
L 3525 4397 
L 1831 0 
L 1172 0 
L 2766 4134 
L 525 4134 
L 525 4666 
z
" transform="scale(0.015625)"/>
       </defs>
       <use xlink:href="#DejaVuSans-37"/>
       <use xlink:href="#DejaVuSans-35" x="63.623047"/>
       <use xlink:href="#DejaVuSans-30" x="127.246094"/>
      </g>
     </g>
    </g>
    <g id="xtick_4">
     <g id="line2d_7">
      <path d="M 193.442297 307.584 
L 193.442297 41.472 
" clip-path="url(#pc1f687d44c)" style="fill: none; stroke-dasharray: 2.96,1.28; stroke-dashoffset: 0; stroke: #b0b0b0; stroke-width: 0.8"/>
     </g>
     <g id="line2d_8">
      <g>
       <use xlink:href="#m8aad9975f4" x="193.442297" y="307.584" style="stroke: #000000; stroke-width: 0.8"/>
      </g>
     </g>
     <g id="text_4">
      <!-- 1000 -->
      <g transform="translate(180.717297 322.182437)scale(0.1 -0.1)">
       <defs>
        <path id="DejaVuSans-31" d="M 794 531 
L 1825 531 
L 1825 4091 
L 703 3866 
L 703 4441 
L 1819 4666 
L 2450 4666 
L 2450 531 
L 3481 531 
L 3481 0 
L 794 0 
L 794 531 
z
" transform="scale(0.015625)"/>
       </defs>
       <use xlink:href="#DejaVuSans-31"/>
       <use xlink:href="#DejaVuSans-30" x="63.623047"/>
       <use xlink:href="#DejaVuSans-30" x="127.246094"/>
       <use xlink:href="#DejaVuSans-30" x="190.869141"/>
      </g>
     </g>
    </g>
    <g id="xtick_5">
     <g id="line2d_9">
      <path d="M 236.16 307.584 
L 236.16 41.472 
" clip-path="url(#pc1f687d44c)" style="fill: none; stroke-dasharray: 2.96,1.28; stroke-dashoffset: 0; stroke: #b0b0b0; stroke-width: 0.8"/>
     </g>
     <g id="line2d_10">
      <g>
       <use xlink:href="#m8aad9975f4" x="236.16" y="307.584" style="stroke: #000000; stroke-width: 0.8"/>
      </g>
     </g>
     <g id="text_5">
      <!-- 1250 -->
      <g transform="translate(223.435 322.182437)scale(0.1 -0.1)">
       <use xlink:href="#DejaVuSans-31"/>
       <use xlink:href="#DejaVuSans-32" x="63.623047"/>
       <use xlink:href="#DejaVuSans-35" x="127.246094"/>
       <use xlink:href="#DejaVuSans-30" x="190.869141"/>
      </g>
     </g>
    </g>
    <g id="xtick_6">
     <g id="line2d_11">
      <path d="M 278.877703 307.584 
L 278.877703 41.472 
" clip-path="url(#pc1f687d44c)" style="fill: none; stroke-dasharray: 2.96,1.28; stroke-dashoffset: 0; stroke: #b0b0b0; stroke-width: 0.8"/>
     </g>
     <g id="line2d_12">
      <g>
       <use xlink:href="#m8aad9975f4" x="278.877703" y="307.584" style="stroke: #000000; stroke-width: 0.8"/>
      </g>
     </g>
     <g id="text_6">
      <!-- 1500 -->
      <g transform="translate(266.152703 322.182437)scale(0.1 -0.1)">
       <use xlink:href="#DejaVuSans-31"/>
       <use xlink:href="#DejaVuSans-35" x="63.623047"/>
       <use xlink:href="#DejaVuSans-30" x="127.246094"/>
       <use xlink:href="#DejaVuSans-30" x="190.869141"/>
      </g>
     </g>
    </g>
    <g id="xtick_7">
     <g id="line2d_13">
      <path d="M 321.595407 307.584 
L 321.595407 41.472 
" clip-path="url(#pc1f687d44c)" style="fill: none; stroke-dasharray: 2.96,1.28; stroke-dashoffset: 0; stroke: #b0b0b0; stroke-width: 0.8"/>
     </g>
     <g id="line2d_14">
      <g>
       <use xlink:href="#m8aad9975f4" x="321.595407" y="307.584" style="stroke: #000000; stroke-width: 0.8"/>
      </g>
     </g>
     <g id="text_7">
      <!-- 1750 -->
      <g transform="translate(308.870407 322.182437)scale(0.1 -0.1)">
       <use xlink:href="#DejaVuSans-31"/>
       <use xlink:href="#DejaVuSans-37" x="63.623047"/>
       <use xlink:href="#DejaVuSans-35" x="127.246094"/>
       <use xlink:href="#DejaVuSans-30" x="190.869141"/>
      </g>
     </g>
    </g>
    <g id="xtick_8">
     <g id="line2d_15">
      <path d="M 364.31311 307.584 
L 364.31311 41.472 
" clip-path="url(#pc1f687d44c)" style="fill: none; stroke-dasharray: 2.96,1.28; stroke-dashoffset: 0; stroke: #b0b0b0; stroke-width: 0.8"/>
     </g>
     <g id="line2d_16">
      <g>
       <use xlink:href="#m8aad9975f4" x="364.31311" y="307.584" style="stroke: #000000; stroke-width: 0.8"/>
      </g>
     </g>
     <g id="text_8">
      <!-- 2000 -->
      <g transform="translate(351.58811 322.182437)scale(0.1 -0.1)">
       <use xlink:href="#DejaVuSans-32"/>
       <use xlink:href="#DejaVuSans-30" x="63.623047"/>
       <use xlink:href="#DejaVuSans-30" x="127.246094"/>
       <use xlink:href="#DejaVuSans-30" x="190.869141"/>
      </g>
     </g>
    </g>
    <g id="xtick_9">
     <g id="line2d_17">
      <path d="M 407.030813 307.584 
L 407.030813 41.472 
" clip-path="url(#pc1f687d44c)" style="fill: none; stroke-dasharray: 2.96,1.28; stroke-dashoffset: 0; stroke: #b0b0b0; stroke-width: 0.8"/>
     </g>
     <g id="line2d_18">
      <g>
       <use xlink:href="#m8aad9975f4" x="407.030813" y="307.584" style="stroke: #000000; stroke-width: 0.8"/>
      </g>
     </g>
     <g id="text_9">
      <!-- 2250 -->
      <g transform="translate(394.305813 322.182437)scale(0.1 -0.1)">
       <use xlink:href="#DejaVuSans-32"/>
       <use xlink:href="#DejaVuSans-32" x="63.623047"/>
       <use xlink:href="#DejaVuSans-35" x="127.246094"/>
       <use xlink:href="#DejaVuSans-30" x="190.869141"/>
      </g>
     </g>
    </g>
    <g id="text_10">
     <!-- Learned Episodes -->
     <g transform="translate(192.102187 335.860562)scale(0.1 -0.1)">
      <defs>
       <path id="DejaVuSans-4c" d="M 628 4666 
L 1259 4666 
L 1259 531 
L 3531 531 
L 3531 0 
L 628 0 
L 628 4666 
z
" transform="scale(0.015625)"/>
       <path id="DejaVuSans-65" d="M 3597 1894 
L 3597 1613 
L 953 1613 
Q 991 1019 1311 708 
Q 1631 397 2203 397 
Q 2534 397 2845 478 
Q 3156 559 3463 722 
L 3463 178 
Q 3153 47 2828 -22 
Q 2503 -91 2169 -91 
Q 1331 -91 842 396 
Q 353 884 353 1716 
Q 353 2575 817 3079 
Q 1281 3584 2069 3584 
Q 2775 3584 3186 3129 
Q 3597 2675 3597 1894 
z
M 3022 2063 
Q 3016 2534 2758 2815 
Q 2500 3097 2075 3097 
Q 1594 3097 1305 2825 
Q 1016 2553 972 2059 
L 3022 2063 
z
" transform="scale(0.015625)"/>
       <path id="DejaVuSans-61" d="M 2194 1759 
Q 1497 1759 1228 1600 
Q 959 1441 959 1056 
Q 959 750 1161 570 
Q 1363 391 1709 391 
Q 2188 391 2477 730 
Q 2766 1069 2766 1631 
L 2766 1759 
L 2194 1759 
z
M 3341 1997 
L 3341 0 
L 2766 0 
L 2766 531 
Q 2569 213 2275 61 
Q 1981 -91 1556 -91 
Q 1019 -91 701 211 
Q 384 513 384 1019 
Q 384 1609 779 1909 
Q 1175 2209 1959 2209 
L 2766 2209 
L 2766 2266 
Q 2766 2663 2505 2880 
Q 2244 3097 1772 3097 
Q 1472 3097 1187 3025 
Q 903 2953 641 2809 
L 641 3341 
Q 956 3463 1253 3523 
Q 1550 3584 1831 3584 
Q 2591 3584 2966 3190 
Q 3341 2797 3341 1997 
z
" transform="scale(0.015625)"/>
       <path id="DejaVuSans-72" d="M 2631 2963 
Q 2534 3019 2420 3045 
Q 2306 3072 2169 3072 
Q 1681 3072 1420 2755 
Q 1159 2438 1159 1844 
L 1159 0 
L 581 0 
L 581 3500 
L 1159 3500 
L 1159 2956 
Q 1341 3275 1631 3429 
Q 1922 3584 2338 3584 
Q 2397 3584 2469 3576 
Q 2541 3569 2628 3553 
L 2631 2963 
z
" transform="scale(0.015625)"/>
       <path id="DejaVuSans-6e" d="M 3513 2113 
L 3513 0 
L 2938 0 
L 2938 2094 
Q 2938 2591 2744 2837 
Q 2550 3084 2163 3084 
Q 1697 3084 1428 2787 
Q 1159 2491 1159 1978 
L 1159 0 
L 581 0 
L 581 3500 
L 1159 3500 
L 1159 2956 
Q 1366 3272 1645 3428 
Q 1925 3584 2291 3584 
Q 2894 3584 3203 3211 
Q 3513 2838 3513 2113 
z
" transform="scale(0.015625)"/>
       <path id="DejaVuSans-64" d="M 2906 2969 
L 2906 4863 
L 3481 4863 
L 3481 0 
L 2906 0 
L 2906 525 
Q 2725 213 2448 61 
Q 2172 -91 1784 -91 
Q 1150 -91 751 415 
Q 353 922 353 1747 
Q 353 2572 751 3078 
Q 1150 3584 1784 3584 
Q 2172 3584 2448 3432 
Q 2725 3281 2906 2969 
z
M 947 1747 
Q 947 1113 1208 752 
Q 1469 391 1925 391 
Q 2381 391 2643 752 
Q 2906 1113 2906 1747 
Q 2906 2381 2643 2742 
Q 2381 3103 1925 3103 
Q 1469 3103 1208 2742 
Q 947 2381 947 1747 
z
" transform="scale(0.015625)"/>
       <path id="DejaVuSans-20" transform="scale(0.015625)"/>
       <path id="DejaVuSans-45" d="M 628 4666 
L 3578 4666 
L 3578 4134 
L 1259 4134 
L 1259 2753 
L 3481 2753 
L 3481 2222 
L 1259 2222 
L 1259 531 
L 3634 531 
L 3634 0 
L 628 0 
L 628 4666 
z
" transform="scale(0.015625)"/>
       <path id="DejaVuSans-70" d="M 1159 525 
L 1159 -1331 
L 581 -1331 
L 581 3500 
L 1159 3500 
L 1159 2969 
Q 1341 3281 1617 3432 
Q 1894 3584 2278 3584 
Q 2916 3584 3314 3078 
Q 3713 2572 3713 1747 
Q 3713 922 3314 415 
Q 2916 -91 2278 -91 
Q 1894 -91 1617 61 
Q 1341 213 1159 525 
z
M 3116 1747 
Q 3116 2381 2855 2742 
Q 2594 3103 2138 3103 
Q 1681 3103 1420 2742 
Q 1159 2381 1159 1747 
Q 1159 1113 1420 752 
Q 1681 391 2138 391 
Q 2594 391 2855 752 
Q 3116 1113 3116 1747 
z
" transform="scale(0.015625)"/>
       <path id="DejaVuSans-69" d="M 603 3500 
L 1178 3500 
L 1178 0 
L 603 0 
L 603 3500 
z
M 603 4863 
L 1178 4863 
L 1178 4134 
L 603 4134 
L 603 4863 
z
" transform="scale(0.015625)"/>
       <path id="DejaVuSans-73" d="M 2834 3397 
L 2834 2853 
Q 2591 2978 2328 3040 
Q 2066 3103 1784 3103 
Q 1356 3103 1142 2972 
Q 928 2841 928 2578 
Q 928 2378 1081 2264 
Q 1234 2150 1697 2047 
L 1894 2003 
Q 2506 1872 2764 1633 
Q 3022 1394 3022 966 
Q 3022 478 2636 193 
Q 2250 -91 1575 -91 
Q 1294 -91 989 -36 
Q 684 19 347 128 
L 347 722 
Q 666 556 975 473 
Q 1284 391 1588 391 
Q 1994 391 2212 530 
Q 2431 669 2431 922 
Q 2431 1156 2273 1281 
Q 2116 1406 1581 1522 
L 1381 1569 
Q 847 1681 609 1914 
Q 372 2147 372 2553 
Q 372 3047 722 3315 
Q 1072 3584 1716 3584 
Q 2034 3584 2315 3537 
Q 2597 3491 2834 3397 
z
" transform="scale(0.015625)"/>
       <path id="DejaVuSans-6f" d="M 1959 3097 
Q 1497 3097 1228 2736 
Q 959 2375 959 1747 
Q 959 1119 1226 758 
Q 1494 397 1959 397 
Q 2419 397 2687 759 
Q 2956 1122 2956 1747 
Q 2956 2369 2687 2733 
Q 2419 3097 1959 3097 
z
M 1959 3584 
Q 2709 3584 3137 3096 
Q 3566 2609 3566 1747 
Q 3566 888 3137 398 
Q 2709 -91 1959 -91 
Q 1206 -91 779 398 
Q 353 888 353 1747 
Q 353 2609 779 3096 
Q 1206 3584 1959 3584 
z
" transform="scale(0.015625)"/>
      </defs>
      <use xlink:href="#DejaVuSans-4c"/>
      <use xlink:href="#DejaVuSans-65" x="53.962891"/>
      <use xlink:href="#DejaVuSans-61" x="115.486328"/>
      <use xlink:href="#DejaVuSans-72" x="176.765625"/>
      <use xlink:href="#DejaVuSans-6e" x="216.128906"/>
      <use xlink:href="#DejaVuSans-65" x="279.507812"/>
      <use xlink:href="#DejaVuSans-64" x="341.03125"/>
      <use xlink:href="#DejaVuSans-20" x="404.507812"/>
      <use xlink:href="#DejaVuSans-45" x="436.294922"/>
      <use xlink:href="#DejaVuSans-70" x="499.478516"/>
      <use xlink:href="#DejaVuSans-69" x="562.955078"/>
      <use xlink:href="#DejaVuSans-73" x="590.738281"/>
      <use xlink:href="#DejaVuSans-6f" x="642.837891"/>
      <use xlink:href="#DejaVuSans-64" x="704.019531"/>
      <use xlink:href="#DejaVuSans-65" x="767.496094"/>
      <use xlink:href="#DejaVuSans-73" x="829.019531"/>
     </g>
    </g>
   </g>
   <g id="matplotlib.axis_2">
    <g id="ytick_1">
     <g id="line2d_19">
      <path d="M 57.6 305.266073 
L 414.72 305.266073 
" clip-path="url(#pc1f687d44c)" style="fill: none; stroke-dasharray: 2.96,1.28; stroke-dashoffset: 0; stroke: #b0b0b0; stroke-width: 0.8"/>
     </g>
     <g id="line2d_20">
      <defs>
       <path id="m34f434d36d" d="M 0 0 
L -3.5 0 
" style="stroke: #000000; stroke-width: 0.8"/>
      </defs>
      <g>
       <use xlink:href="#m34f434d36d" x="57.6" y="305.266073" style="stroke: #000000; stroke-width: 0.8"/>
      </g>
     </g>
     <g id="text_11">
      <!-- 0 -->
      <g transform="translate(44.2375 309.065292)scale(0.1 -0.1)">
       <use xlink:href="#DejaVuSans-30"/>
      </g>
     </g>
    </g>
    <g id="ytick_2">
     <g id="line2d_21">
      <path d="M 57.6 261.613962 
L 414.72 261.613962 
" clip-path="url(#pc1f687d44c)" style="fill: none; stroke-dasharray: 2.96,1.28; stroke-dashoffset: 0; stroke: #b0b0b0; stroke-width: 0.8"/>
     </g>
     <g id="line2d_22">
      <g>
       <use xlink:href="#m34f434d36d" x="57.6" y="261.613962" style="stroke: #000000; stroke-width: 0.8"/>
      </g>
     </g>
     <g id="text_12">
      <!-- 10 -->
      <g transform="translate(37.875 265.41318)scale(0.1 -0.1)">
       <use xlink:href="#DejaVuSans-31"/>
       <use xlink:href="#DejaVuSans-30" x="63.623047"/>
      </g>
     </g>
    </g>
    <g id="ytick_3">
     <g id="line2d_23">
      <path d="M 57.6 217.961851 
L 414.72 217.961851 
" clip-path="url(#pc1f687d44c)" style="fill: none; stroke-dasharray: 2.96,1.28; stroke-dashoffset: 0; stroke: #b0b0b0; stroke-width: 0.8"/>
     </g>
     <g id="line2d_24">
      <g>
       <use xlink:href="#m34f434d36d" x="57.6" y="217.961851" style="stroke: #000000; stroke-width: 0.8"/>
      </g>
     </g>
     <g id="text_13">
      <!-- 20 -->
      <g transform="translate(37.875 221.761069)scale(0.1 -0.1)">
       <use xlink:href="#DejaVuSans-32"/>
       <use xlink:href="#DejaVuSans-30" x="63.623047"/>
      </g>
     </g>
    </g>
    <g id="ytick_4">
     <g id="line2d_25">
      <path d="M 57.6 174.309739 
L 414.72 174.309739 
" clip-path="url(#pc1f687d44c)" style="fill: none; stroke-dasharray: 2.96,1.28; stroke-dashoffset: 0; stroke: #b0b0b0; stroke-width: 0.8"/>
     </g>
     <g id="line2d_26">
      <g>
       <use xlink:href="#m34f434d36d" x="57.6" y="174.309739" style="stroke: #000000; stroke-width: 0.8"/>
      </g>
     </g>
     <g id="text_14">
      <!-- 30 -->
      <g transform="translate(37.875 178.108958)scale(0.1 -0.1)">
       <defs>
        <path id="DejaVuSans-33" d="M 2597 2516 
Q 3050 2419 3304 2112 
Q 3559 1806 3559 1356 
Q 3559 666 3084 287 
Q 2609 -91 1734 -91 
Q 1441 -91 1130 -33 
Q 819 25 488 141 
L 488 750 
Q 750 597 1062 519 
Q 1375 441 1716 441 
Q 2309 441 2620 675 
Q 2931 909 2931 1356 
Q 2931 1769 2642 2001 
Q 2353 2234 1838 2234 
L 1294 2234 
L 1294 2753 
L 1863 2753 
Q 2328 2753 2575 2939 
Q 2822 3125 2822 3475 
Q 2822 3834 2567 4026 
Q 2313 4219 1838 4219 
Q 1578 4219 1281 4162 
Q 984 4106 628 3988 
L 628 4550 
Q 988 4650 1302 4700 
Q 1616 4750 1894 4750 
Q 2613 4750 3031 4423 
Q 3450 4097 3450 3541 
Q 3450 3153 3228 2886 
Q 3006 2619 2597 2516 
z
" transform="scale(0.015625)"/>
       </defs>
       <use xlink:href="#DejaVuSans-33"/>
       <use xlink:href="#DejaVuSans-30" x="63.623047"/>
      </g>
     </g>
    </g>
    <g id="ytick_5">
     <g id="line2d_27">
      <path d="M 57.6 130.657628 
L 414.72 130.657628 
" clip-path="url(#pc1f687d44c)" style="fill: none; stroke-dasharray: 2.96,1.28; stroke-dashoffset: 0; stroke: #b0b0b0; stroke-width: 0.8"/>
     </g>
     <g id="line2d_28">
      <g>
       <use xlink:href="#m34f434d36d" x="57.6" y="130.657628" style="stroke: #000000; stroke-width: 0.8"/>
      </g>
     </g>
     <g id="text_15">
      <!-- 40 -->
      <g transform="translate(37.875 134.456847)scale(0.1 -0.1)">
       <defs>
        <path id="DejaVuSans-34" d="M 2419 4116 
L 825 1625 
L 2419 1625 
L 2419 4116 
z
M 2253 4666 
L 3047 4666 
L 3047 1625 
L 3713 1625 
L 3713 1100 
L 3047 1100 
L 3047 0 
L 2419 0 
L 2419 1100 
L 313 1100 
L 313 1709 
L 2253 4666 
z
" transform="scale(0.015625)"/>
       </defs>
       <use xlink:href="#DejaVuSans-34"/>
       <use xlink:href="#DejaVuSans-30" x="63.623047"/>
      </g>
     </g>
    </g>
    <g id="ytick_6">
     <g id="line2d_29">
      <path d="M 57.6 87.005517 
L 414.72 87.005517 
" clip-path="url(#pc1f687d44c)" style="fill: none; stroke-dasharray: 2.96,1.28; stroke-dashoffset: 0; stroke: #b0b0b0; stroke-width: 0.8"/>
     </g>
     <g id="line2d_30">
      <g>
       <use xlink:href="#m34f434d36d" x="57.6" y="87.005517" style="stroke: #000000; stroke-width: 0.8"/>
      </g>
     </g>
     <g id="text_16">
      <!-- 50 -->
      <g transform="translate(37.875 90.804736)scale(0.1 -0.1)">
       <use xlink:href="#DejaVuSans-35"/>
       <use xlink:href="#DejaVuSans-30" x="63.623047"/>
      </g>
     </g>
    </g>
    <g id="ytick_7">
     <g id="line2d_31">
      <path d="M 57.6 43.353406 
L 414.72 43.353406 
" clip-path="url(#pc1f687d44c)" style="fill: none; stroke-dasharray: 2.96,1.28; stroke-dashoffset: 0; stroke: #b0b0b0; stroke-width: 0.8"/>
     </g>
     <g id="line2d_32">
      <g>
       <use xlink:href="#m34f434d36d" x="57.6" y="43.353406" style="stroke: #000000; stroke-width: 0.8"/>
      </g>
     </g>
     <g id="text_17">
      <!-- 60 -->
      <g transform="translate(37.875 47.152625)scale(0.1 -0.1)">
       <defs>
        <path id="DejaVuSans-36" d="M 2113 2584 
Q 1688 2584 1439 2293 
Q 1191 2003 1191 1497 
Q 1191 994 1439 701 
Q 1688 409 2113 409 
Q 2538 409 2786 701 
Q 3034 994 3034 1497 
Q 3034 2003 2786 2293 
Q 2538 2584 2113 2584 
z
M 3366 4563 
L 3366 3988 
Q 3128 4100 2886 4159 
Q 2644 4219 2406 4219 
Q 1781 4219 1451 3797 
Q 1122 3375 1075 2522 
Q 1259 2794 1537 2939 
Q 1816 3084 2150 3084 
Q 2853 3084 3261 2657 
Q 3669 2231 3669 1497 
Q 3669 778 3244 343 
Q 2819 -91 2113 -91 
Q 1303 -91 875 529 
Q 447 1150 447 2328 
Q 447 3434 972 4092 
Q 1497 4750 2381 4750 
Q 2619 4750 2861 4703 
Q 3103 4656 3366 4563 
z
" transform="scale(0.015625)"/>
       </defs>
       <use xlink:href="#DejaVuSans-36"/>
       <use xlink:href="#DejaVuSans-30" x="63.623047"/>
      </g>
     </g>
    </g>
    <g id="text_18">
     <!-- Reward Density -->
     <g transform="translate(31.795312 213.74675)rotate(-90)scale(0.1 -0.1)">
      <defs>
       <path id="DejaVuSans-52" d="M 2841 2188 
Q 3044 2119 3236 1894 
Q 3428 1669 3622 1275 
L 4263 0 
L 3584 0 
L 2988 1197 
Q 2756 1666 2539 1819 
Q 2322 1972 1947 1972 
L 1259 1972 
L 1259 0 
L 628 0 
L 628 4666 
L 2053 4666 
Q 2853 4666 3247 4331 
Q 3641 3997 3641 3322 
Q 3641 2881 3436 2590 
Q 3231 2300 2841 2188 
z
M 1259 4147 
L 1259 2491 
L 2053 2491 
Q 2509 2491 2742 2702 
Q 2975 2913 2975 3322 
Q 2975 3731 2742 3939 
Q 2509 4147 2053 4147 
L 1259 4147 
z
" transform="scale(0.015625)"/>
       <path id="DejaVuSans-77" d="M 269 3500 
L 844 3500 
L 1563 769 
L 2278 3500 
L 2956 3500 
L 3675 769 
L 4391 3500 
L 4966 3500 
L 4050 0 
L 3372 0 
L 2619 2869 
L 1863 0 
L 1184 0 
L 269 3500 
z
" transform="scale(0.015625)"/>
       <path id="DejaVuSans-44" d="M 1259 4147 
L 1259 519 
L 2022 519 
Q 2988 519 3436 956 
Q 3884 1394 3884 2338 
Q 3884 3275 3436 3711 
Q 2988 4147 2022 4147 
L 1259 4147 
z
M 628 4666 
L 1925 4666 
Q 3281 4666 3915 4102 
Q 4550 3538 4550 2338 
Q 4550 1131 3912 565 
Q 3275 0 1925 0 
L 628 0 
L 628 4666 
z
" transform="scale(0.015625)"/>
       <path id="DejaVuSans-74" d="M 1172 4494 
L 1172 3500 
L 2356 3500 
L 2356 3053 
L 1172 3053 
L 1172 1153 
Q 1172 725 1289 603 
Q 1406 481 1766 481 
L 2356 481 
L 2356 0 
L 1766 0 
Q 1100 0 847 248 
Q 594 497 594 1153 
L 594 3053 
L 172 3053 
L 172 3500 
L 594 3500 
L 594 4494 
L 1172 4494 
z
" transform="scale(0.015625)"/>
       <path id="DejaVuSans-79" d="M 2059 -325 
Q 1816 -950 1584 -1140 
Q 1353 -1331 966 -1331 
L 506 -1331 
L 506 -850 
L 844 -850 
Q 1081 -850 1212 -737 
Q 1344 -625 1503 -206 
L 1606 56 
L 191 3500 
L 800 3500 
L 1894 763 
L 2988 3500 
L 3597 3500 
L 2059 -325 
z
" transform="scale(0.015625)"/>
      </defs>
      <use xlink:href="#DejaVuSans-52"/>
      <use xlink:href="#DejaVuSans-65" x="64.982422"/>
      <use xlink:href="#DejaVuSans-77" x="126.505859"/>
      <use xlink:href="#DejaVuSans-61" x="208.292969"/>
      <use xlink:href="#DejaVuSans-72" x="269.572266"/>
      <use xlink:href="#DejaVuSans-64" x="308.935547"/>
      <use xlink:href="#DejaVuSans-20" x="372.412109"/>
      <use xlink:href="#DejaVuSans-44" x="404.199219"/>
      <use xlink:href="#DejaVuSans-65" x="481.201172"/>
      <use xlink:href="#DejaVuSans-6e" x="542.724609"/>
      <use xlink:href="#DejaVuSans-73" x="606.103516"/>
      <use xlink:href="#DejaVuSans-69" x="658.203125"/>
      <use xlink:href="#DejaVuSans-74" x="685.986328"/>
      <use xlink:href="#DejaVuSans-79" x="725.195312"/>
     </g>
    </g>
   </g>
   <g id="LineCollection_1">
    <path d="M 90.919809 205.274452 
L 125.093971 205.274452 
" clip-path="url(#pc1f687d44c)" style="fill: none; stroke: #1f77b4; stroke-width: 1.5"/>
    <path d="M 176.355215 222.803044 
L 210.529378 222.803044 
" clip-path="url(#pc1f687d44c)" style="fill: none; stroke: #1f77b4; stroke-width: 1.5"/>
    <path d="M 261.790622 196.134573 
L 295.964785 196.134573 
" clip-path="url(#pc1f687d44c)" style="fill: none; stroke: #1f77b4; stroke-width: 1.5"/>
    <path d="M 347.226029 183.840741 
L 381.400191 183.840741 
" clip-path="url(#pc1f687d44c)" style="fill: none; stroke: #1f77b4; stroke-width: 1.5"/>
   </g>
   <g id="LineCollection_2">
    <path d="M 90.919809 106.387054 
L 125.093971 106.387054 
" clip-path="url(#pc1f687d44c)" style="fill: none; stroke: #1f77b4; stroke-width: 1.5"/>
    <path d="M 176.355215 78.973529 
L 210.529378 78.973529 
" clip-path="url(#pc1f687d44c)" style="fill: none; stroke: #1f77b4; stroke-width: 1.5"/>
    <path d="M 261.790622 67.973197 
L 295.964785 67.973197 
" clip-path="url(#pc1f687d44c)" style="fill: none; stroke: #1f77b4; stroke-width: 1.5"/>
    <path d="M 347.226029 53.568 
L 381.400191 53.568 
" clip-path="url(#pc1f687d44c)" style="fill: none; stroke: #1f77b4; stroke-width: 1.5"/>
   </g>
   <g id="LineCollection_3">
    <path d="M 90.919809 295.488 
L 125.093971 295.488 
" clip-path="url(#pc1f687d44c)" style="fill: none; stroke: #1f77b4; stroke-width: 1.5"/>
    <path d="M 176.355215 286.932186 
L 210.529378 286.932186 
" clip-path="url(#pc1f687d44c)" style="fill: none; stroke: #1f77b4; stroke-width: 1.5"/>
    <path d="M 261.790622 281.344716 
L 295.964785 281.344716 
" clip-path="url(#pc1f687d44c)" style="fill: none; stroke: #1f77b4; stroke-width: 1.5"/>
    <path d="M 347.226029 284.051147 
L 381.400191 284.051147 
" clip-path="url(#pc1f687d44c)" style="fill: none; stroke: #1f77b4; stroke-width: 1.5"/>
   </g>
   <g id="LineCollection_4">
    <path d="M 108.00689 295.488 
L 108.00689 106.387054 
" clip-path="url(#pc1f687d44c)" style="fill: none; stroke: #1f77b4; stroke-width: 1.5"/>
    <path d="M 193.442297 286.932186 
L 193.442297 78.973529 
" clip-path="url(#pc1f687d44c)" style="fill: none; stroke: #1f77b4; stroke-width: 1.5"/>
    <path d="M 278.877703 281.344716 
L 278.877703 67.973197 
" clip-path="url(#pc1f687d44c)" style="fill: none; stroke: #1f77b4; stroke-width: 1.5"/>
    <path d="M 364.31311 284.051147 
L 364.31311 53.568 
" clip-path="url(#pc1f687d44c)" style="fill: none; stroke: #1f77b4; stroke-width: 1.5"/>
   </g>
   <g id="line2d_33">
    <path d="M 108.00689 205.274452 
L 193.442297 222.803044 
L 278.877703 196.134573 
L 364.31311 183.840741 
" clip-path="url(#pc1f687d44c)" style="fill: none; stroke: #4682b4; stroke-width: 1.5; stroke-linecap: square"/>
   </g>
   <g id="line2d_34">
    <path d="M 108.00689 205.274452 
L 193.442297 222.803044 
L 278.877703 196.134573 
L 364.31311 183.840741 
" clip-path="url(#pc1f687d44c)" style="fill: none; stroke: #4682b4; stroke-width: 1.5; stroke-linecap: square"/>
   </g>
   <g id="patch_3">
    <path d="M 57.6 307.584 
L 57.6 41.472 
" style="fill: none; stroke: #000000; stroke-width: 0.8; stroke-linejoin: miter; stroke-linecap: square"/>
   </g>
   <g id="patch_4">
    <path d="M 414.72 307.584 
L 414.72 41.472 
" style="fill: none; stroke: #000000; stroke-width: 0.8; stroke-linejoin: miter; stroke-linecap: square"/>
   </g>
   <g id="patch_5">
    <path d="M 57.6 307.584 
L 414.72 307.584 
" style="fill: none; stroke: #000000; stroke-width: 0.8; stroke-linejoin: miter; stroke-linecap: square"/>
   </g>
   <g id="patch_6">
    <path d="M 57.6 41.472 
L 414.72 41.472 
" style="fill: none; stroke: #000000; stroke-width: 0.8; stroke-linejoin: miter; stroke-linecap: square"/>
   </g>
   <g id="text_19">
    <!-- Violinplot for progress of state/in_storage -->
    <g transform="translate(112.1775 35.472)scale(0.12 -0.12)">
     <defs>
      <path id="DejaVuSans-56" d="M 1831 0 
L 50 4666 
L 709 4666 
L 2188 738 
L 3669 4666 
L 4325 4666 
L 2547 0 
L 1831 0 
z
" transform="scale(0.015625)"/>
      <path id="DejaVuSans-6c" d="M 603 4863 
L 1178 4863 
L 1178 0 
L 603 0 
L 603 4863 
z
" transform="scale(0.015625)"/>
      <path id="DejaVuSans-66" d="M 2375 4863 
L 2375 4384 
L 1825 4384 
Q 1516 4384 1395 4259 
Q 1275 4134 1275 3809 
L 1275 3500 
L 2222 3500 
L 2222 3053 
L 1275 3053 
L 1275 0 
L 697 0 
L 697 3053 
L 147 3053 
L 147 3500 
L 697 3500 
L 697 3744 
Q 697 4328 969 4595 
Q 1241 4863 1831 4863 
L 2375 4863 
z
" transform="scale(0.015625)"/>
      <path id="DejaVuSans-67" d="M 2906 1791 
Q 2906 2416 2648 2759 
Q 2391 3103 1925 3103 
Q 1463 3103 1205 2759 
Q 947 2416 947 1791 
Q 947 1169 1205 825 
Q 1463 481 1925 481 
Q 2391 481 2648 825 
Q 2906 1169 2906 1791 
z
M 3481 434 
Q 3481 -459 3084 -895 
Q 2688 -1331 1869 -1331 
Q 1566 -1331 1297 -1286 
Q 1028 -1241 775 -1147 
L 775 -588 
Q 1028 -725 1275 -790 
Q 1522 -856 1778 -856 
Q 2344 -856 2625 -561 
Q 2906 -266 2906 331 
L 2906 616 
Q 2728 306 2450 153 
Q 2172 0 1784 0 
Q 1141 0 747 490 
Q 353 981 353 1791 
Q 353 2603 747 3093 
Q 1141 3584 1784 3584 
Q 2172 3584 2450 3431 
Q 2728 3278 2906 2969 
L 2906 3500 
L 3481 3500 
L 3481 434 
z
" transform="scale(0.015625)"/>
      <path id="DejaVuSans-2f" d="M 1625 4666 
L 2156 4666 
L 531 -594 
L 0 -594 
L 1625 4666 
z
" transform="scale(0.015625)"/>
      <path id="DejaVuSans-5f" d="M 3263 -1063 
L 3263 -1509 
L -63 -1509 
L -63 -1063 
L 3263 -1063 
z
" transform="scale(0.015625)"/>
     </defs>
     <use xlink:href="#DejaVuSans-56"/>
     <use xlink:href="#DejaVuSans-69" x="66.158203"/>
     <use xlink:href="#DejaVuSans-6f" x="93.941406"/>
     <use xlink:href="#DejaVuSans-6c" x="155.123047"/>
     <use xlink:href="#DejaVuSans-69" x="182.90625"/>
     <use xlink:href="#DejaVuSans-6e" x="210.689453"/>
     <use xlink:href="#DejaVuSans-70" x="274.068359"/>
     <use xlink:href="#DejaVuSans-6c" x="337.544922"/>
     <use xlink:href="#DejaVuSans-6f" x="365.328125"/>
     <use xlink:href="#DejaVuSans-74" x="426.509766"/>
     <use xlink:href="#DejaVuSans-20" x="465.71875"/>
     <use xlink:href="#DejaVuSans-66" x="497.505859"/>
     <use xlink:href="#DejaVuSans-6f" x="532.710938"/>
     <use xlink:href="#DejaVuSans-72" x="593.892578"/>
     <use xlink:href="#DejaVuSans-20" x="635.005859"/>
     <use xlink:href="#DejaVuSans-70" x="666.792969"/>
     <use xlink:href="#DejaVuSans-72" x="730.269531"/>
     <use xlink:href="#DejaVuSans-6f" x="769.132812"/>
     <use xlink:href="#DejaVuSans-67" x="830.314453"/>
     <use xlink:href="#DejaVuSans-72" x="893.791016"/>
     <use xlink:href="#DejaVuSans-65" x="932.654297"/>
     <use xlink:href="#DejaVuSans-73" x="994.177734"/>
     <use xlink:href="#DejaVuSans-73" x="1046.277344"/>
     <use xlink:href="#DejaVuSans-20" x="1098.376953"/>
     <use xlink:href="#DejaVuSans-6f" x="1130.164062"/>
     <use xlink:href="#DejaVuSans-66" x="1191.345703"/>
     <use xlink:href="#DejaVuSans-20" x="1226.550781"/>
     <use xlink:href="#DejaVuSans-73" x="1258.337891"/>
     <use xlink:href="#DejaVuSans-74" x="1310.4375"/>
     <use xlink:href="#DejaVuSans-61" x="1349.646484"/>
     <use xlink:href="#DejaVuSans-74" x="1410.925781"/>
     <use xlink:href="#DejaVuSans-65" x="1450.134766"/>
     <use xlink:href="#DejaVuSans-2f" x="1511.658203"/>
     <use xlink:href="#DejaVuSans-69" x="1545.349609"/>
     <use xlink:href="#DejaVuSans-6e" x="1573.132812"/>
     <use xlink:href="#DejaVuSans-5f" x="1636.511719"/>
     <use xlink:href="#DejaVuSans-73" x="1686.511719"/>
     <use xlink:href="#DejaVuSans-74" x="1738.611328"/>
     <use xlink:href="#DejaVuSans-6f" x="1777.820312"/>
     <use xlink:href="#DejaVuSans-72" x="1839.001953"/>
     <use xlink:href="#DejaVuSans-61" x="1880.115234"/>
     <use xlink:href="#DejaVuSans-67" x="1941.394531"/>
     <use xlink:href="#DejaVuSans-65" x="2004.871094"/>
    </g>
   </g>
   <g id="legend_1">
    <g id="patch_7">
     <path d="M 276.25125 64.150125 
L 407.72 64.150125 
Q 409.72 64.150125 409.72 62.150125 
L 409.72 48.472 
Q 409.72 46.472 407.72 46.472 
L 276.25125 46.472 
Q 274.25125 46.472 274.25125 48.472 
L 274.25125 62.150125 
Q 274.25125 64.150125 276.25125 64.150125 
z
" style="fill: #ffffff; opacity: 0.8; stroke: #cccccc; stroke-linejoin: miter"/>
    </g>
    <g id="line2d_35">
     <path d="M 278.25125 54.570438 
L 288.25125 54.570438 
L 298.25125 54.570438 
" style="fill: none; stroke: #4682b4; stroke-width: 1.5; stroke-linecap: square"/>
    </g>
    <g id="text_20">
     <!-- StableBaselinesSAC -->
     <g transform="translate(306.25125 58.070438)scale(0.1 -0.1)">
      <defs>
       <path id="DejaVuSans-53" d="M 3425 4513 
L 3425 3897 
Q 3066 4069 2747 4153 
Q 2428 4238 2131 4238 
Q 1616 4238 1336 4038 
Q 1056 3838 1056 3469 
Q 1056 3159 1242 3001 
Q 1428 2844 1947 2747 
L 2328 2669 
Q 3034 2534 3370 2195 
Q 3706 1856 3706 1288 
Q 3706 609 3251 259 
Q 2797 -91 1919 -91 
Q 1588 -91 1214 -16 
Q 841 59 441 206 
L 441 856 
Q 825 641 1194 531 
Q 1563 422 1919 422 
Q 2459 422 2753 634 
Q 3047 847 3047 1241 
Q 3047 1584 2836 1778 
Q 2625 1972 2144 2069 
L 1759 2144 
Q 1053 2284 737 2584 
Q 422 2884 422 3419 
Q 422 4038 858 4394 
Q 1294 4750 2059 4750 
Q 2388 4750 2728 4690 
Q 3069 4631 3425 4513 
z
" transform="scale(0.015625)"/>
       <path id="DejaVuSans-62" d="M 3116 1747 
Q 3116 2381 2855 2742 
Q 2594 3103 2138 3103 
Q 1681 3103 1420 2742 
Q 1159 2381 1159 1747 
Q 1159 1113 1420 752 
Q 1681 391 2138 391 
Q 2594 391 2855 752 
Q 3116 1113 3116 1747 
z
M 1159 2969 
Q 1341 3281 1617 3432 
Q 1894 3584 2278 3584 
Q 2916 3584 3314 3078 
Q 3713 2572 3713 1747 
Q 3713 922 3314 415 
Q 2916 -91 2278 -91 
Q 1894 -91 1617 61 
Q 1341 213 1159 525 
L 1159 0 
L 581 0 
L 581 4863 
L 1159 4863 
L 1159 2969 
z
" transform="scale(0.015625)"/>
       <path id="DejaVuSans-42" d="M 1259 2228 
L 1259 519 
L 2272 519 
Q 2781 519 3026 730 
Q 3272 941 3272 1375 
Q 3272 1813 3026 2020 
Q 2781 2228 2272 2228 
L 1259 2228 
z
M 1259 4147 
L 1259 2741 
L 2194 2741 
Q 2656 2741 2882 2914 
Q 3109 3088 3109 3444 
Q 3109 3797 2882 3972 
Q 2656 4147 2194 4147 
L 1259 4147 
z
M 628 4666 
L 2241 4666 
Q 2963 4666 3353 4366 
Q 3744 4066 3744 3513 
Q 3744 3084 3544 2831 
Q 3344 2578 2956 2516 
Q 3422 2416 3680 2098 
Q 3938 1781 3938 1306 
Q 3938 681 3513 340 
Q 3088 0 2303 0 
L 628 0 
L 628 4666 
z
" transform="scale(0.015625)"/>
       <path id="DejaVuSans-41" d="M 2188 4044 
L 1331 1722 
L 3047 1722 
L 2188 4044 
z
M 1831 4666 
L 2547 4666 
L 4325 0 
L 3669 0 
L 3244 1197 
L 1141 1197 
L 716 0 
L 50 0 
L 1831 4666 
z
" transform="scale(0.015625)"/>
       <path id="DejaVuSans-43" d="M 4122 4306 
L 4122 3641 
Q 3803 3938 3442 4084 
Q 3081 4231 2675 4231 
Q 1875 4231 1450 3742 
Q 1025 3253 1025 2328 
Q 1025 1406 1450 917 
Q 1875 428 2675 428 
Q 3081 428 3442 575 
Q 3803 722 4122 1019 
L 4122 359 
Q 3791 134 3420 21 
Q 3050 -91 2638 -91 
Q 1578 -91 968 557 
Q 359 1206 359 2328 
Q 359 3453 968 4101 
Q 1578 4750 2638 4750 
Q 3056 4750 3426 4639 
Q 3797 4528 4122 4306 
z
" transform="scale(0.015625)"/>
      </defs>
      <use xlink:href="#DejaVuSans-53"/>
      <use xlink:href="#DejaVuSans-74" x="63.476562"/>
      <use xlink:href="#DejaVuSans-61" x="102.685547"/>
      <use xlink:href="#DejaVuSans-62" x="163.964844"/>
      <use xlink:href="#DejaVuSans-6c" x="227.441406"/>
      <use xlink:href="#DejaVuSans-65" x="255.224609"/>
      <use xlink:href="#DejaVuSans-42" x="316.748047"/>
      <use xlink:href="#DejaVuSans-61" x="385.351562"/>
      <use xlink:href="#DejaVuSans-73" x="446.630859"/>
      <use xlink:href="#DejaVuSans-65" x="498.730469"/>
      <use xlink:href="#DejaVuSans-6c" x="560.253906"/>
      <use xlink:href="#DejaVuSans-69" x="588.037109"/>
      <use xlink:href="#DejaVuSans-6e" x="615.820312"/>
      <use xlink:href="#DejaVuSans-65" x="679.199219"/>
      <use xlink:href="#DejaVuSans-73" x="740.722656"/>
      <use xlink:href="#DejaVuSans-53" x="792.822266"/>
      <use xlink:href="#DejaVuSans-41" x="858.173828"/>
      <use xlink:href="#DejaVuSans-43" x="924.832031"/>
     </g>
    </g>
   </g>
  </g>
 </g>
 <defs>
  <clipPath id="pc1f687d44c">
   <rect x="57.6" y="41.472" width="357.12" height="266.112"/>
  </clipPath>
 </defs>
</svg>
