<?xml version="1.0" encoding="utf-8" standalone="no"?>
<!DOCTYPE svg PUBLIC "-//W3C//DTD SVG 1.1//EN"
  "http://www.w3.org/Graphics/SVG/1.1/DTD/svg11.dtd">
<svg xmlns:xlink="http://www.w3.org/1999/xlink" width="460.8pt" height="345.6pt" viewBox="0 0 460.8 345.6" xmlns="http://www.w3.org/2000/svg" version="1.1">
 <metadata>
  <rdf:RDF xmlns:dc="http://purl.org/dc/elements/1.1/" xmlns:cc="http://creativecommons.org/ns#" xmlns:rdf="http://www.w3.org/1999/02/22-rdf-syntax-ns#">
   <cc:Work>
    <dc:type rdf:resource="http://purl.org/dc/dcmitype/StillImage"/>
    <dc:date>2022-06-15T18:26:49.281606</dc:date>
    <dc:format>image/svg+xml</dc:format>
    <dc:creator>
     <cc:Agent>
      <dc:title>Matplotlib v3.5.2, https://matplotlib.org/</dc:title>
     </cc:Agent>
    </dc:creator>
   </cc:Work>
  </rdf:RDF>
 </metadata>
 <defs>
  <style type="text/css">*{stroke-linejoin: round; stroke-linecap: butt}</style>
 </defs>
 <g id="figure_1">
  <g id="patch_1">
   <path d="M 0 345.6 
L 460.8 345.6 
L 460.8 0 
L 0 0 
z
" style="fill: #ffffff"/>
  </g>
  <g id="axes_1">
   <g id="patch_2">
    <path d="M 57.6 307.584 
L 414.72 307.584 
L 414.72 41.472 
L 57.6 41.472 
z
" style="fill: #ffffff"/>
   </g>
   <g id="PolyCollection_1">
    <path d="M 112.876167 295.488 
L 109.748008 295.488 
L 109.474428 293.138869 
L 109.173316 290.789738 
L 108.845056 288.440607 
L 108.490629 286.091476 
L 108.111604 283.742345 
L 107.710048 281.393213 
L 107.288341 279.044082 
L 106.84891 276.694951 
L 106.393892 274.34582 
L 105.924792 271.996689 
L 105.442163 269.647558 
L 104.945385 267.298427 
L 104.43259 264.949296 
L 103.900767 262.600165 
L 103.346038 260.251034 
L 102.764089 257.901903 
L 102.150663 255.552771 
L 101.502028 253.20364 
L 100.815324 250.854509 
L 100.088713 248.505378 
L 99.321316 246.156247 
L 98.512979 243.807116 
L 97.663947 241.457985 
L 96.774593 239.108854 
L 95.845296 236.759723 
L 94.876577 234.410592 
L 93.869508 232.061461 
L 92.826358 229.712329 
L 91.751356 227.363198 
L 90.65144 225.014067 
L 89.536818 222.664936 
L 88.421194 220.315805 
L 87.321546 217.966674 
L 86.257384 215.617543 
L 85.249484 213.268412 
L 84.318141 210.919281 
L 83.481076 208.57015 
L 82.751187 206.221019 
L 82.134416 203.871887 
L 81.628054 201.522756 
L 81.219827 199.173625 
L 80.888072 196.824494 
L 80.603188 194.475363 
L 80.330403 192.126232 
L 80.033654 189.777101 
L 79.680172 187.42797 
L 79.245147 185.078839 
L 78.715788 182.729708 
L 78.094059 180.380577 
L 77.397559 178.031446 
L 76.658259 175.682314 
L 75.91917 173.333183 
L 75.229346 170.984052 
L 74.637984 168.634921 
L 74.188533 166.28579 
L 73.913781 163.936659 
L 73.832727 161.587528 
L 73.949712 159.238397 
L 74.255893 156.889266 
L 74.732662 154.540135 
L 75.356271 152.191004 
L 76.102692 149.841872 
L 76.951753 147.492741 
L 77.889791 145.14361 
L 78.910411 142.794479 
L 80.013388 140.445348 
L 81.20213 138.096217 
L 82.480396 135.747086 
L 83.849063 133.397955 
L 85.303643 131.048824 
L 86.833027 128.699693 
L 88.419619 126.350562 
L 90.040714 124.00143 
L 91.670735 121.652299 
L 93.283825 119.303168 
L 94.856271 116.954037 
L 96.368344 114.604906 
L 97.805329 112.255775 
L 99.157682 109.906644 
L 100.420454 107.557513 
L 101.592232 105.208382 
L 102.673896 102.859251 
L 103.667483 100.51012 
L 104.575357 98.160988 
L 105.399784 95.811857 
L 106.142889 93.462726 
L 106.806909 91.113595 
L 107.394558 88.764464 
L 107.909389 86.415333 
L 108.356004 84.066202 
L 108.740076 81.717071 
L 109.06818 79.36794 
L 109.347481 77.018809 
L 109.585351 74.669678 
L 109.788987 72.320546 
L 109.965068 69.971415 
L 110.119498 67.622284 
L 110.257226 65.273153 
L 110.382152 62.924022 
L 112.242023 62.924022 
L 112.242023 62.924022 
L 112.366949 65.273153 
L 112.504677 67.622284 
L 112.659107 69.971415 
L 112.835188 72.320546 
L 113.038824 74.669678 
L 113.276694 77.018809 
L 113.555995 79.36794 
L 113.884099 81.717071 
L 114.268171 84.066202 
L 114.714786 86.415333 
L 115.229617 88.764464 
L 115.817266 91.113595 
L 116.481285 93.462726 
L 117.224391 95.811857 
L 118.048817 98.160988 
L 118.956692 100.51012 
L 119.950279 102.859251 
L 121.031943 105.208382 
L 122.203721 107.557513 
L 123.466493 109.906644 
L 124.818846 112.255775 
L 126.255831 114.604906 
L 127.767904 116.954037 
L 129.340349 119.303168 
L 130.95344 121.652299 
L 132.583461 124.00143 
L 134.204556 126.350562 
L 135.791148 128.699693 
L 137.320532 131.048824 
L 138.775111 133.397955 
L 140.143778 135.747086 
L 141.422045 138.096217 
L 142.610787 140.445348 
L 143.713764 142.794479 
L 144.734384 145.14361 
L 145.672422 147.492741 
L 146.521483 149.841872 
L 147.267904 152.191004 
L 147.891513 154.540135 
L 148.368282 156.889266 
L 148.674463 159.238397 
L 148.791447 161.587528 
L 148.710393 163.936659 
L 148.435642 166.28579 
L 147.986191 168.634921 
L 147.394828 170.984052 
L 146.705004 173.333183 
L 145.965915 175.682314 
L 145.226616 178.031446 
L 144.530115 180.380577 
L 143.908386 182.729708 
L 143.379027 185.078839 
L 142.944003 187.42797 
L 142.59052 189.777101 
L 142.293772 192.126232 
L 142.020987 194.475363 
L 141.736103 196.824494 
L 141.404348 199.173625 
L 140.996121 201.522756 
L 140.489758 203.871887 
L 139.872987 206.221019 
L 139.143098 208.57015 
L 138.306033 210.919281 
L 137.37469 213.268412 
L 136.36679 215.617543 
L 135.302629 217.966674 
L 134.202981 220.315805 
L 133.087357 222.664936 
L 131.972734 225.014067 
L 130.872818 227.363198 
L 129.797816 229.712329 
L 128.754666 232.061461 
L 127.747598 234.410592 
L 126.778878 236.759723 
L 125.849581 239.108854 
L 124.960227 241.457985 
L 124.111196 243.807116 
L 123.302858 246.156247 
L 122.535462 248.505378 
L 121.80885 250.854509 
L 121.122147 253.20364 
L 120.473512 255.552771 
L 119.860086 257.901903 
L 119.278137 260.251034 
L 118.723408 262.600165 
L 118.191584 264.949296 
L 117.67879 267.298427 
L 117.182012 269.647558 
L 116.699382 271.996689 
L 116.230282 274.34582 
L 115.775265 276.694951 
L 115.335834 279.044082 
L 114.914127 281.393213 
L 114.512571 283.742345 
L 114.133546 286.091476 
L 113.779119 288.440607 
L 113.450859 290.789738 
L 113.149747 293.138869 
L 112.876167 295.488 
z
" clip-path="url(#p87c044b984)" style="fill: #1f77b4; fill-opacity: 0.3"/>
   </g>
   <g id="PolyCollection_2">
    <path d="M 198.603617 247.371315 
L 190.595492 247.371315 
L 190.195983 245.413706 
L 189.808206 243.456096 
L 189.430867 241.498487 
L 189.058209 239.540878 
L 188.680017 237.583269 
L 188.282182 235.625659 
L 187.8478 233.66805 
L 187.358743 231.710441 
L 186.797509 229.752832 
L 186.149161 227.795223 
L 185.403112 225.837613 
L 184.55451 223.880004 
L 183.605071 221.922395 
L 182.563214 219.964786 
L 181.443514 218.007176 
L 180.265519 216.049567 
L 179.052112 214.091958 
L 177.827625 212.134349 
L 176.615954 210.176739 
L 175.438885 208.21913 
L 174.314827 206.261521 
L 173.258035 204.303912 
L 172.278352 202.346302 
L 171.381411 200.388693 
L 170.569166 198.431084 
L 169.840608 196.473475 
L 169.192498 194.515865 
L 168.619994 192.558256 
L 168.117072 190.600647 
L 167.676734 188.643038 
L 167.291023 186.685428 
L 166.950936 184.727819 
L 166.646339 182.77021 
L 166.365995 180.812601 
L 166.097808 178.854991 
L 165.829296 176.897382 
L 165.548307 174.939773 
L 165.243883 172.982164 
L 164.907144 171.024554 
L 164.532065 169.066945 
L 164.115974 167.109336 
L 163.659694 165.151727 
L 163.167272 163.194118 
L 162.645359 161.236508 
L 162.102328 159.278899 
L 161.547335 157.32129 
L 160.989485 155.363681 
L 160.437293 153.406071 
L 159.898524 151.448462 
L 159.380452 149.490853 
L 158.890438 147.533244 
L 158.436675 145.575634 
L 158.028902 143.618025 
L 157.678859 141.660416 
L 157.400337 139.702807 
L 157.208741 137.745197 
L 157.120194 135.787588 
L 157.150316 133.829979 
L 157.312866 131.87237 
L 157.618502 129.91476 
L 158.07383 127.957151 
L 158.680919 125.999542 
L 159.437297 124.041933 
L 160.336383 122.084323 
L 161.368208 120.126714 
L 162.520254 118.169105 
L 163.778222 116.211496 
L 165.126615 114.253886 
L 166.54908 112.296277 
L 168.028544 110.338668 
L 169.54726 108.381059 
L 171.086874 106.42345 
L 172.628657 104.46584 
L 174.153973 102.508231 
L 175.644982 100.550622 
L 177.085508 98.593013 
L 178.461946 96.635403 
L 179.764041 94.677794 
L 180.985397 92.720185 
L 182.123597 90.762576 
L 183.179904 88.804966 
L 184.158573 86.847357 
L 185.065875 84.889748 
L 185.908999 82.932139 
L 186.694984 80.974529 
L 187.429842 79.01692 
L 188.117996 77.059311 
L 188.762079 75.101702 
L 189.363091 73.144092 
L 189.920838 71.186483 
L 190.434551 69.228874 
L 190.903543 67.271265 
L 191.327785 65.313655 
L 191.708292 63.356046 
L 192.047286 61.398437 
L 192.348102 59.440828 
L 192.614907 57.483218 
L 192.852276 55.525609 
L 193.064747 53.568 
L 196.134361 53.568 
L 196.134361 53.568 
L 196.346832 55.525609 
L 196.584202 57.483218 
L 196.851006 59.440828 
L 197.151822 61.398437 
L 197.490816 63.356046 
L 197.871324 65.313655 
L 198.295565 67.271265 
L 198.764557 69.228874 
L 199.27827 71.186483 
L 199.836017 73.144092 
L 200.437029 75.101702 
L 201.081112 77.059311 
L 201.769266 79.01692 
L 202.504124 80.974529 
L 203.290109 82.932139 
L 204.133234 84.889748 
L 205.040536 86.847357 
L 206.019204 88.804966 
L 207.075511 90.762576 
L 208.213711 92.720185 
L 209.435067 94.677794 
L 210.737162 96.635403 
L 212.1136 98.593013 
L 213.554126 100.550622 
L 215.045135 102.508231 
L 216.570451 104.46584 
L 218.112234 106.42345 
L 219.651848 108.381059 
L 221.170564 110.338668 
L 222.650029 112.296277 
L 224.072493 114.253886 
L 225.420886 116.211496 
L 226.678854 118.169105 
L 227.8309 120.126714 
L 228.862725 122.084323 
L 229.761811 124.041933 
L 230.518189 125.999542 
L 231.125278 127.957151 
L 231.580606 129.91476 
L 231.886242 131.87237 
L 232.048793 133.829979 
L 232.078914 135.787588 
L 231.990368 137.745197 
L 231.798772 139.702807 
L 231.52025 141.660416 
L 231.170207 143.618025 
L 230.762434 145.575634 
L 230.308671 147.533244 
L 229.818656 149.490853 
L 229.300584 151.448462 
L 228.761815 153.406071 
L 228.209623 155.363681 
L 227.651773 157.32129 
L 227.09678 159.278899 
L 226.553749 161.236508 
L 226.031836 163.194118 
L 225.539414 165.151727 
L 225.083134 167.109336 
L 224.667043 169.066945 
L 224.291964 171.024554 
L 223.955225 172.982164 
L 223.650801 174.939773 
L 223.369812 176.897382 
L 223.1013 178.854991 
L 222.833113 180.812601 
L 222.55277 182.77021 
L 222.248172 184.727819 
L 221.908085 186.685428 
L 221.522374 188.643038 
L 221.082036 190.600647 
L 220.579114 192.558256 
L 220.00661 194.515865 
L 219.358501 196.473475 
L 218.629942 198.431084 
L 217.817697 200.388693 
L 216.920756 202.346302 
L 215.941073 204.303912 
L 214.884281 206.261521 
L 213.760223 208.21913 
L 212.583154 210.176739 
L 211.371483 212.134349 
L 210.146996 214.091958 
L 208.933589 216.049567 
L 207.755594 218.007176 
L 206.635894 219.964786 
L 205.594038 221.922395 
L 204.644598 223.880004 
L 203.795996 225.837613 
L 203.049947 227.795223 
L 202.4016 229.752832 
L 201.840365 231.710441 
L 201.351308 233.66805 
L 200.916927 235.625659 
L 200.519091 237.583269 
L 200.140899 239.540878 
L 199.768241 241.498487 
L 199.390902 243.456096 
L 199.003125 245.413706 
L 198.603617 247.371315 
z
" clip-path="url(#p87c044b984)" style="fill: #1f77b4; fill-opacity: 0.3"/>
   </g>
   <g id="PolyCollection_3">
    <path d="M 283.261154 248.70789 
L 272.512888 248.70789 
L 271.907838 246.912289 
L 271.311529 245.116689 
L 270.733324 243.321089 
L 270.180498 241.525489 
L 269.657609 239.729888 
L 269.16612 237.934288 
L 268.70431 236.138688 
L 268.267479 234.343088 
L 267.84843 232.547488 
L 267.438172 230.751887 
L 267.026737 228.956287 
L 266.604032 227.160687 
L 266.160624 225.365087 
L 265.688374 223.569487 
L 265.180872 221.773886 
L 264.633652 219.978286 
L 264.044201 218.182686 
L 263.411777 216.387086 
L 262.737119 214.591486 
L 262.022062 212.795885 
L 261.269148 211.000285 
L 260.481241 209.204685 
L 259.661196 207.409085 
L 258.811603 205.613485 
L 257.934606 203.817884 
L 257.031831 202.022284 
L 256.104421 200.226684 
L 255.15319 198.431084 
L 254.178893 196.635484 
L 253.182612 194.839883 
L 252.166209 193.044283 
L 251.132823 191.248683 
L 250.087328 189.453083 
L 249.036689 187.657483 
L 247.990151 185.861882 
L 246.959195 184.066282 
L 245.95724 182.270682 
L 244.999099 180.475082 
L 244.100214 178.679482 
L 243.275756 176.883881 
L 242.53967 175.088281 
L 241.903756 173.292681 
L 241.376878 171.497081 
L 240.964377 169.701481 
L 240.667698 167.90588 
L 240.484279 166.11028 
L 240.407661 164.31468 
L 240.42781 162.51908 
L 240.531608 160.72348 
L 240.703489 158.927879 
L 240.926189 157.132279 
L 241.181603 155.336679 
L 241.451729 153.541079 
L 241.719666 151.745479 
L 241.970661 149.949878 
L 242.193108 148.154278 
L 242.379471 146.358678 
L 242.526999 144.563078 
L 242.638168 142.767478 
L 242.720762 140.971877 
L 242.787535 139.176277 
L 242.855445 137.380677 
L 242.944505 135.585077 
L 243.076336 133.789477 
L 243.272549 131.993876 
L 243.553109 130.198276 
L 243.934851 128.402676 
L 244.43027 126.607076 
L 245.046696 124.811476 
L 245.785916 123.015875 
L 246.644235 121.220275 
L 247.612945 119.424675 
L 248.679119 117.629075 
L 249.826634 115.833475 
L 251.03731 114.037874 
L 252.292081 112.242274 
L 253.572084 110.446674 
L 254.859632 108.651074 
L 256.138993 106.855474 
L 257.396964 105.059873 
L 258.623217 103.264273 
L 259.810424 101.468673 
L 260.954165 99.673073 
L 262.052652 97.877473 
L 263.106297 96.081872 
L 264.117168 94.286272 
L 265.088388 92.490672 
L 266.023527 90.695072 
L 266.926037 88.899472 
L 267.798773 87.103871 
L 268.643645 85.308271 
L 269.461411 83.512671 
L 270.251617 81.717071 
L 271.012678 79.921471 
L 271.742084 78.12587 
L 272.43668 76.33027 
L 273.093006 74.53467 
L 273.707643 72.73907 
L 274.277539 70.94347 
L 281.496503 70.94347 
L 281.496503 70.94347 
L 282.066399 72.73907 
L 282.681036 74.53467 
L 283.337362 76.33027 
L 284.031958 78.12587 
L 284.761363 79.921471 
L 285.522425 81.717071 
L 286.31263 83.512671 
L 287.130396 85.308271 
L 287.975269 87.103871 
L 288.848005 88.899472 
L 289.750514 90.695072 
L 290.685654 92.490672 
L 291.656874 94.286272 
L 292.667744 96.081872 
L 293.721389 97.877473 
L 294.819877 99.673073 
L 295.963618 101.468673 
L 297.150825 103.264273 
L 298.377078 105.059873 
L 299.635049 106.855474 
L 300.91441 108.651074 
L 302.201958 110.446674 
L 303.481961 112.242274 
L 304.736732 114.037874 
L 305.947408 115.833475 
L 307.094923 117.629075 
L 308.161097 119.424675 
L 309.129807 121.220275 
L 309.988125 123.015875 
L 310.727345 124.811476 
L 311.343772 126.607076 
L 311.83919 128.402676 
L 312.220933 130.198276 
L 312.501493 131.993876 
L 312.697705 133.789477 
L 312.829537 135.585077 
L 312.918597 137.380677 
L 312.986507 139.176277 
L 313.053279 140.971877 
L 313.135874 142.767478 
L 313.247043 144.563078 
L 313.39457 146.358678 
L 313.580933 148.154278 
L 313.803381 149.949878 
L 314.054375 151.745479 
L 314.322313 153.541079 
L 314.592438 155.336679 
L 314.847853 157.132279 
L 315.070553 158.927879 
L 315.242433 160.72348 
L 315.346232 162.51908 
L 315.366381 164.31468 
L 315.289763 166.11028 
L 315.106344 167.90588 
L 314.809665 169.701481 
L 314.397163 171.497081 
L 313.870286 173.292681 
L 313.234371 175.088281 
L 312.498285 176.883881 
L 311.673828 178.679482 
L 310.774943 180.475082 
L 309.816801 182.270682 
L 308.814847 184.066282 
L 307.78389 185.861882 
L 306.737353 187.657483 
L 305.686714 189.453083 
L 304.641219 191.248683 
L 303.607833 193.044283 
L 302.59143 194.839883 
L 301.595148 196.635484 
L 300.620852 198.431084 
L 299.669621 200.226684 
L 298.742211 202.022284 
L 297.839436 203.817884 
L 296.962439 205.613485 
L 296.112845 207.409085 
L 295.292801 209.204685 
L 294.504894 211.000285 
L 293.75198 212.795885 
L 293.036923 214.591486 
L 292.362264 216.387086 
L 291.729841 218.182686 
L 291.14039 219.978286 
L 290.59317 221.773886 
L 290.085668 223.569487 
L 289.613417 225.365087 
L 289.17001 227.160687 
L 288.747305 228.956287 
L 288.33587 230.751887 
L 287.925612 232.547488 
L 287.506563 234.343088 
L 287.069731 236.138688 
L 286.607921 237.934288 
L 286.116433 239.729888 
L 285.593544 241.525489 
L 285.040717 243.321089 
L 284.462513 245.116689 
L 283.866204 246.912289 
L 283.261154 248.70789 
z
" clip-path="url(#p87c044b984)" style="fill: #1f77b4; fill-opacity: 0.3"/>
   </g>
   <g id="PolyCollection_4">
    <path d="M 363.703176 251.381039 
L 358.312649 251.381039 
L 357.829342 249.639441 
L 357.281655 247.897844 
L 356.667282 246.156247 
L 355.986009 244.41465 
L 355.240192 242.673053 
L 354.435099 240.931456 
L 353.57905 239.189858 
L 352.683284 237.448261 
L 351.761565 235.706664 
L 350.829503 233.965067 
L 349.903663 232.22347 
L 349.000535 230.481872 
L 348.135471 228.740275 
L 347.321703 226.998678 
L 346.569532 225.257081 
L 345.885798 223.515484 
L 345.273634 221.773886 
L 344.732538 220.032289 
L 344.258706 218.290692 
L 343.845553 216.549095 
L 343.484338 214.807498 
L 343.164803 213.065901 
L 342.875735 211.324303 
L 342.60541 209.582706 
L 342.341902 207.841109 
L 342.073251 206.099512 
L 341.787551 204.357915 
L 341.472999 202.616317 
L 341.117973 200.87472 
L 340.711194 199.133123 
L 340.242006 197.391526 
L 339.700795 195.649929 
L 339.079541 193.908331 
L 338.372461 192.166734 
L 337.576699 190.425137 
L 336.692981 188.68354 
L 335.726163 186.941943 
L 334.685581 185.200346 
L 333.585137 183.458748 
L 332.443055 181.717151 
L 331.281289 179.975554 
L 330.124573 178.233957 
L 328.999166 176.49236 
L 327.93138 174.750762 
L 326.945993 173.009165 
L 326.064705 171.267568 
L 325.304774 169.525971 
L 324.677995 167.784374 
L 324.190107 166.042776 
L 323.840727 164.301179 
L 323.623804 162.559582 
L 323.528553 160.817985 
L 323.540756 159.076388 
L 323.644277 157.334791 
L 323.822609 155.593193 
L 324.06026 153.851596 
L 324.34383 152.109999 
L 324.662647 150.368402 
L 325.008921 148.626805 
L 325.377438 146.885207 
L 325.764875 145.14361 
L 326.168893 143.402013 
L 326.587184 141.660416 
L 327.01664 139.918819 
L 327.452818 138.177221 
L 327.889804 136.435624 
L 328.320493 134.694027 
L 328.737284 132.95243 
L 329.133065 131.210833 
L 329.50235 129.469236 
L 329.842398 127.727638 
L 330.154138 125.986041 
L 330.442758 124.244444 
L 330.717853 122.502847 
L 330.993116 120.76125 
L 331.285555 119.019652 
L 331.614353 117.278055 
L 331.999451 115.536458 
L 332.460028 113.794861 
L 333.013009 112.053264 
L 333.671751 110.311666 
L 334.44502 108.570069 
L 335.336342 106.828472 
L 336.343777 105.086875 
L 337.460087 103.345278 
L 338.673293 101.603681 
L 339.967521 99.862083 
L 341.324046 98.120486 
L 342.722438 96.378889 
L 344.141697 94.637292 
L 345.561295 92.895695 
L 346.962043 91.154097 
L 348.326757 89.4125 
L 349.640697 87.670903 
L 350.891785 85.929306 
L 352.070645 84.187709 
L 353.170494 82.446112 
L 354.186929 80.704514 
L 355.11766 78.962917 
L 366.898165 78.962917 
L 366.898165 78.962917 
L 367.828896 80.704514 
L 368.845331 82.446112 
L 369.94518 84.187709 
L 371.124041 85.929306 
L 372.375128 87.670903 
L 373.689068 89.4125 
L 375.053783 91.154097 
L 376.454531 92.895695 
L 377.874128 94.637292 
L 379.293388 96.378889 
L 380.691779 98.120486 
L 382.048304 99.862083 
L 383.342532 101.603681 
L 384.555739 103.345278 
L 385.672049 105.086875 
L 386.679483 106.828472 
L 387.570806 108.570069 
L 388.344074 110.311666 
L 389.002816 112.053264 
L 389.555797 113.794861 
L 390.016375 115.536458 
L 390.401473 117.278055 
L 390.73027 119.019652 
L 391.02271 120.76125 
L 391.297972 122.502847 
L 391.573068 124.244444 
L 391.861687 125.986041 
L 392.173428 127.727638 
L 392.513476 129.469236 
L 392.88276 131.210833 
L 393.278541 132.95243 
L 393.695332 134.694027 
L 394.126021 136.435624 
L 394.563007 138.177221 
L 394.999186 139.918819 
L 395.428641 141.660416 
L 395.846932 143.402013 
L 396.250951 145.14361 
L 396.638387 146.885207 
L 397.006904 148.626805 
L 397.353178 150.368402 
L 397.671995 152.109999 
L 397.955565 153.851596 
L 398.193217 155.593193 
L 398.371548 157.334791 
L 398.47507 159.076388 
L 398.487273 160.817985 
L 398.392022 162.559582 
L 398.175099 164.301179 
L 397.825718 166.042776 
L 397.33783 167.784374 
L 396.711051 169.525971 
L 395.951121 171.267568 
L 395.069832 173.009165 
L 394.084445 174.750762 
L 393.016659 176.49236 
L 391.891252 178.233957 
L 390.734536 179.975554 
L 389.57277 181.717151 
L 388.430689 183.458748 
L 387.330245 185.200346 
L 386.289662 186.941943 
L 385.322844 188.68354 
L 384.439126 190.425137 
L 383.643364 192.166734 
L 382.936285 193.908331 
L 382.31503 195.649929 
L 381.77382 197.391526 
L 381.304632 199.133123 
L 380.897853 200.87472 
L 380.542827 202.616317 
L 380.228274 204.357915 
L 379.942574 206.099512 
L 379.673923 207.841109 
L 379.410415 209.582706 
L 379.140091 211.324303 
L 378.851022 213.065901 
L 378.531487 214.807498 
L 378.170272 216.549095 
L 377.757119 218.290692 
L 377.283287 220.032289 
L 376.742192 221.773886 
L 376.130027 223.515484 
L 375.446293 225.257081 
L 374.694123 226.998678 
L 373.880354 228.740275 
L 373.015291 230.481872 
L 372.112163 232.22347 
L 371.186322 233.965067 
L 370.25426 235.706664 
L 369.332541 237.448261 
L 368.436776 239.189858 
L 367.580726 240.931456 
L 366.775633 242.673053 
L 366.029816 244.41465 
L 365.348543 246.156247 
L 364.734171 247.897844 
L 364.186483 249.639441 
L 363.703176 251.381039 
z
" clip-path="url(#p87c044b984)" style="fill: #1f77b4; fill-opacity: 0.3"/>
   </g>
   <g id="matplotlib.axis_1">
    <g id="xtick_1">
     <g id="line2d_1">
      <defs>
       <path id="mc496deca8a" d="M 0 0 
L 0 3.5 
" style="stroke: #000000; stroke-width: 0.8"/>
      </defs>
      <g>
       <use xlink:href="#mc496deca8a" x="69.668354" y="307.584" style="stroke: #000000; stroke-width: 0.8"/>
      </g>
     </g>
     <g id="text_1">
      <!-- 250 -->
      <g transform="translate(60.124604 322.182437)scale(0.1 -0.1)">
       <defs>
        <path id="DejaVuSans-32" d="M 1228 531 
L 3431 531 
L 3431 0 
L 469 0 
L 469 531 
Q 828 903 1448 1529 
Q 2069 2156 2228 2338 
Q 2531 2678 2651 2914 
Q 2772 3150 2772 3378 
Q 2772 3750 2511 3984 
Q 2250 4219 1831 4219 
Q 1534 4219 1204 4116 
Q 875 4013 500 3803 
L 500 4441 
Q 881 4594 1212 4672 
Q 1544 4750 1819 4750 
Q 2544 4750 2975 4387 
Q 3406 4025 3406 3419 
Q 3406 3131 3298 2873 
Q 3191 2616 2906 2266 
Q 2828 2175 2409 1742 
Q 1991 1309 1228 531 
z
" transform="scale(0.015625)"/>
        <path id="DejaVuSans-35" d="M 691 4666 
L 3169 4666 
L 3169 4134 
L 1269 4134 
L 1269 2991 
Q 1406 3038 1543 3061 
Q 1681 3084 1819 3084 
Q 2600 3084 3056 2656 
Q 3513 2228 3513 1497 
Q 3513 744 3044 326 
Q 2575 -91 1722 -91 
Q 1428 -91 1123 -41 
Q 819 9 494 109 
L 494 744 
Q 775 591 1075 516 
Q 1375 441 1709 441 
Q 2250 441 2565 725 
Q 2881 1009 2881 1497 
Q 2881 1984 2565 2268 
Q 2250 2553 1709 2553 
Q 1456 2553 1204 2497 
Q 953 2441 691 2322 
L 691 4666 
z
" transform="scale(0.015625)"/>
        <path id="DejaVuSans-30" d="M 2034 4250 
Q 1547 4250 1301 3770 
Q 1056 3291 1056 2328 
Q 1056 1369 1301 889 
Q 1547 409 2034 409 
Q 2525 409 2770 889 
Q 3016 1369 3016 2328 
Q 3016 3291 2770 3770 
Q 2525 4250 2034 4250 
z
M 2034 4750 
Q 2819 4750 3233 4129 
Q 3647 3509 3647 2328 
Q 3647 1150 3233 529 
Q 2819 -91 2034 -91 
Q 1250 -91 836 529 
Q 422 1150 422 2328 
Q 422 3509 836 4129 
Q 1250 4750 2034 4750 
z
" transform="scale(0.015625)"/>
       </defs>
       <use xlink:href="#DejaVuSans-32"/>
       <use xlink:href="#DejaVuSans-35" x="63.623047"/>
       <use xlink:href="#DejaVuSans-30" x="127.246094"/>
      </g>
     </g>
    </g>
    <g id="xtick_2">
     <g id="line2d_2">
      <g>
       <use xlink:href="#mc496deca8a" x="111.312087" y="307.584" style="stroke: #000000; stroke-width: 0.8"/>
      </g>
     </g>
     <g id="text_2">
      <!-- 500 -->
      <g transform="translate(101.768337 322.182437)scale(0.1 -0.1)">
       <use xlink:href="#DejaVuSans-35"/>
       <use xlink:href="#DejaVuSans-30" x="63.623047"/>
       <use xlink:href="#DejaVuSans-30" x="127.246094"/>
      </g>
     </g>
    </g>
    <g id="xtick_3">
     <g id="line2d_3">
      <g>
       <use xlink:href="#mc496deca8a" x="152.955821" y="307.584" style="stroke: #000000; stroke-width: 0.8"/>
      </g>
     </g>
     <g id="text_3">
      <!-- 750 -->
      <g transform="translate(143.412071 322.182437)scale(0.1 -0.1)">
       <defs>
        <path id="DejaVuSans-37" d="M 525 4666 
L 3525 4666 
L 3525 4397 
L 1831 0 
L 1172 0 
L 2766 4134 
L 525 4134 
L 525 4666 
z
" transform="scale(0.015625)"/>
       </defs>
       <use xlink:href="#DejaVuSans-37"/>
       <use xlink:href="#DejaVuSans-35" x="63.623047"/>
       <use xlink:href="#DejaVuSans-30" x="127.246094"/>
      </g>
     </g>
    </g>
    <g id="xtick_4">
     <g id="line2d_4">
      <g>
       <use xlink:href="#mc496deca8a" x="194.599554" y="307.584" style="stroke: #000000; stroke-width: 0.8"/>
      </g>
     </g>
     <g id="text_4">
      <!-- 1000 -->
      <g transform="translate(181.874554 322.182437)scale(0.1 -0.1)">
       <defs>
        <path id="DejaVuSans-31" d="M 794 531 
L 1825 531 
L 1825 4091 
L 703 3866 
L 703 4441 
L 1819 4666 
L 2450 4666 
L 2450 531 
L 3481 531 
L 3481 0 
L 794 0 
L 794 531 
z
" transform="scale(0.015625)"/>
       </defs>
       <use xlink:href="#DejaVuSans-31"/>
       <use xlink:href="#DejaVuSans-30" x="63.623047"/>
       <use xlink:href="#DejaVuSans-30" x="127.246094"/>
       <use xlink:href="#DejaVuSans-30" x="190.869141"/>
      </g>
     </g>
    </g>
    <g id="xtick_5">
     <g id="line2d_5">
      <g>
       <use xlink:href="#mc496deca8a" x="236.243287" y="307.584" style="stroke: #000000; stroke-width: 0.8"/>
      </g>
     </g>
     <g id="text_5">
      <!-- 1250 -->
      <g transform="translate(223.518287 322.182437)scale(0.1 -0.1)">
       <use xlink:href="#DejaVuSans-31"/>
       <use xlink:href="#DejaVuSans-32" x="63.623047"/>
       <use xlink:href="#DejaVuSans-35" x="127.246094"/>
       <use xlink:href="#DejaVuSans-30" x="190.869141"/>
      </g>
     </g>
    </g>
    <g id="xtick_6">
     <g id="line2d_6">
      <g>
       <use xlink:href="#mc496deca8a" x="277.887021" y="307.584" style="stroke: #000000; stroke-width: 0.8"/>
      </g>
     </g>
     <g id="text_6">
      <!-- 1500 -->
      <g transform="translate(265.162021 322.182437)scale(0.1 -0.1)">
       <use xlink:href="#DejaVuSans-31"/>
       <use xlink:href="#DejaVuSans-35" x="63.623047"/>
       <use xlink:href="#DejaVuSans-30" x="127.246094"/>
       <use xlink:href="#DejaVuSans-30" x="190.869141"/>
      </g>
     </g>
    </g>
    <g id="xtick_7">
     <g id="line2d_7">
      <g>
       <use xlink:href="#mc496deca8a" x="319.530754" y="307.584" style="stroke: #000000; stroke-width: 0.8"/>
      </g>
     </g>
     <g id="text_7">
      <!-- 1750 -->
      <g transform="translate(306.805754 322.182437)scale(0.1 -0.1)">
       <use xlink:href="#DejaVuSans-31"/>
       <use xlink:href="#DejaVuSans-37" x="63.623047"/>
       <use xlink:href="#DejaVuSans-35" x="127.246094"/>
       <use xlink:href="#DejaVuSans-30" x="190.869141"/>
      </g>
     </g>
    </g>
    <g id="xtick_8">
     <g id="line2d_8">
      <g>
       <use xlink:href="#mc496deca8a" x="361.174488" y="307.584" style="stroke: #000000; stroke-width: 0.8"/>
      </g>
     </g>
     <g id="text_8">
      <!-- 2000 -->
      <g transform="translate(348.449488 322.182437)scale(0.1 -0.1)">
       <use xlink:href="#DejaVuSans-32"/>
       <use xlink:href="#DejaVuSans-30" x="63.623047"/>
       <use xlink:href="#DejaVuSans-30" x="127.246094"/>
       <use xlink:href="#DejaVuSans-30" x="190.869141"/>
      </g>
     </g>
    </g>
    <g id="xtick_9">
     <g id="line2d_9">
      <g>
       <use xlink:href="#mc496deca8a" x="402.818221" y="307.584" style="stroke: #000000; stroke-width: 0.8"/>
      </g>
     </g>
     <g id="text_9">
      <!-- 2250 -->
      <g transform="translate(390.093221 322.182437)scale(0.1 -0.1)">
       <use xlink:href="#DejaVuSans-32"/>
       <use xlink:href="#DejaVuSans-32" x="63.623047"/>
       <use xlink:href="#DejaVuSans-35" x="127.246094"/>
       <use xlink:href="#DejaVuSans-30" x="190.869141"/>
      </g>
     </g>
    </g>
    <g id="text_10">
     <!-- Learned Episodes -->
     <g transform="translate(192.102187 335.860562)scale(0.1 -0.1)">
      <defs>
       <path id="DejaVuSans-4c" d="M 628 4666 
L 1259 4666 
L 1259 531 
L 3531 531 
L 3531 0 
L 628 0 
L 628 4666 
z
" transform="scale(0.015625)"/>
       <path id="DejaVuSans-65" d="M 3597 1894 
L 3597 1613 
L 953 1613 
Q 991 1019 1311 708 
Q 1631 397 2203 397 
Q 2534 397 2845 478 
Q 3156 559 3463 722 
L 3463 178 
Q 3153 47 2828 -22 
Q 2503 -91 2169 -91 
Q 1331 -91 842 396 
Q 353 884 353 1716 
Q 353 2575 817 3079 
Q 1281 3584 2069 3584 
Q 2775 3584 3186 3129 
Q 3597 2675 3597 1894 
z
M 3022 2063 
Q 3016 2534 2758 2815 
Q 2500 3097 2075 3097 
Q 1594 3097 1305 2825 
Q 1016 2553 972 2059 
L 3022 2063 
z
" transform="scale(0.015625)"/>
       <path id="DejaVuSans-61" d="M 2194 1759 
Q 1497 1759 1228 1600 
Q 959 1441 959 1056 
Q 959 750 1161 570 
Q 1363 391 1709 391 
Q 2188 391 2477 730 
Q 2766 1069 2766 1631 
L 2766 1759 
L 2194 1759 
z
M 3341 1997 
L 3341 0 
L 2766 0 
L 2766 531 
Q 2569 213 2275 61 
Q 1981 -91 1556 -91 
Q 1019 -91 701 211 
Q 384 513 384 1019 
Q 384 1609 779 1909 
Q 1175 2209 1959 2209 
L 2766 2209 
L 2766 2266 
Q 2766 2663 2505 2880 
Q 2244 3097 1772 3097 
Q 1472 3097 1187 3025 
Q 903 2953 641 2809 
L 641 3341 
Q 956 3463 1253 3523 
Q 1550 3584 1831 3584 
Q 2591 3584 2966 3190 
Q 3341 2797 3341 1997 
z
" transform="scale(0.015625)"/>
       <path id="DejaVuSans-72" d="M 2631 2963 
Q 2534 3019 2420 3045 
Q 2306 3072 2169 3072 
Q 1681 3072 1420 2755 
Q 1159 2438 1159 1844 
L 1159 0 
L 581 0 
L 581 3500 
L 1159 3500 
L 1159 2956 
Q 1341 3275 1631 3429 
Q 1922 3584 2338 3584 
Q 2397 3584 2469 3576 
Q 2541 3569 2628 3553 
L 2631 2963 
z
" transform="scale(0.015625)"/>
       <path id="DejaVuSans-6e" d="M 3513 2113 
L 3513 0 
L 2938 0 
L 2938 2094 
Q 2938 2591 2744 2837 
Q 2550 3084 2163 3084 
Q 1697 3084 1428 2787 
Q 1159 2491 1159 1978 
L 1159 0 
L 581 0 
L 581 3500 
L 1159 3500 
L 1159 2956 
Q 1366 3272 1645 3428 
Q 1925 3584 2291 3584 
Q 2894 3584 3203 3211 
Q 3513 2838 3513 2113 
z
" transform="scale(0.015625)"/>
       <path id="DejaVuSans-64" d="M 2906 2969 
L 2906 4863 
L 3481 4863 
L 3481 0 
L 2906 0 
L 2906 525 
Q 2725 213 2448 61 
Q 2172 -91 1784 -91 
Q 1150 -91 751 415 
Q 353 922 353 1747 
Q 353 2572 751 3078 
Q 1150 3584 1784 3584 
Q 2172 3584 2448 3432 
Q 2725 3281 2906 2969 
z
M 947 1747 
Q 947 1113 1208 752 
Q 1469 391 1925 391 
Q 2381 391 2643 752 
Q 2906 1113 2906 1747 
Q 2906 2381 2643 2742 
Q 2381 3103 1925 3103 
Q 1469 3103 1208 2742 
Q 947 2381 947 1747 
z
" transform="scale(0.015625)"/>
       <path id="DejaVuSans-20" transform="scale(0.015625)"/>
       <path id="DejaVuSans-45" d="M 628 4666 
L 3578 4666 
L 3578 4134 
L 1259 4134 
L 1259 2753 
L 3481 2753 
L 3481 2222 
L 1259 2222 
L 1259 531 
L 3634 531 
L 3634 0 
L 628 0 
L 628 4666 
z
" transform="scale(0.015625)"/>
       <path id="DejaVuSans-70" d="M 1159 525 
L 1159 -1331 
L 581 -1331 
L 581 3500 
L 1159 3500 
L 1159 2969 
Q 1341 3281 1617 3432 
Q 1894 3584 2278 3584 
Q 2916 3584 3314 3078 
Q 3713 2572 3713 1747 
Q 3713 922 3314 415 
Q 2916 -91 2278 -91 
Q 1894 -91 1617 61 
Q 1341 213 1159 525 
z
M 3116 1747 
Q 3116 2381 2855 2742 
Q 2594 3103 2138 3103 
Q 1681 3103 1420 2742 
Q 1159 2381 1159 1747 
Q 1159 1113 1420 752 
Q 1681 391 2138 391 
Q 2594 391 2855 752 
Q 3116 1113 3116 1747 
z
" transform="scale(0.015625)"/>
       <path id="DejaVuSans-69" d="M 603 3500 
L 1178 3500 
L 1178 0 
L 603 0 
L 603 3500 
z
M 603 4863 
L 1178 4863 
L 1178 4134 
L 603 4134 
L 603 4863 
z
" transform="scale(0.015625)"/>
       <path id="DejaVuSans-73" d="M 2834 3397 
L 2834 2853 
Q 2591 2978 2328 3040 
Q 2066 3103 1784 3103 
Q 1356 3103 1142 2972 
Q 928 2841 928 2578 
Q 928 2378 1081 2264 
Q 1234 2150 1697 2047 
L 1894 2003 
Q 2506 1872 2764 1633 
Q 3022 1394 3022 966 
Q 3022 478 2636 193 
Q 2250 -91 1575 -91 
Q 1294 -91 989 -36 
Q 684 19 347 128 
L 347 722 
Q 666 556 975 473 
Q 1284 391 1588 391 
Q 1994 391 2212 530 
Q 2431 669 2431 922 
Q 2431 1156 2273 1281 
Q 2116 1406 1581 1522 
L 1381 1569 
Q 847 1681 609 1914 
Q 372 2147 372 2553 
Q 372 3047 722 3315 
Q 1072 3584 1716 3584 
Q 2034 3584 2315 3537 
Q 2597 3491 2834 3397 
z
" transform="scale(0.015625)"/>
       <path id="DejaVuSans-6f" d="M 1959 3097 
Q 1497 3097 1228 2736 
Q 959 2375 959 1747 
Q 959 1119 1226 758 
Q 1494 397 1959 397 
Q 2419 397 2687 759 
Q 2956 1122 2956 1747 
Q 2956 2369 2687 2733 
Q 2419 3097 1959 3097 
z
M 1959 3584 
Q 2709 3584 3137 3096 
Q 3566 2609 3566 1747 
Q 3566 888 3137 398 
Q 2709 -91 1959 -91 
Q 1206 -91 779 398 
Q 353 888 353 1747 
Q 353 2609 779 3096 
Q 1206 3584 1959 3584 
z
" transform="scale(0.015625)"/>
      </defs>
      <use xlink:href="#DejaVuSans-4c"/>
      <use xlink:href="#DejaVuSans-65" x="53.962891"/>
      <use xlink:href="#DejaVuSans-61" x="115.486328"/>
      <use xlink:href="#DejaVuSans-72" x="176.765625"/>
      <use xlink:href="#DejaVuSans-6e" x="216.128906"/>
      <use xlink:href="#DejaVuSans-65" x="279.507812"/>
      <use xlink:href="#DejaVuSans-64" x="341.03125"/>
      <use xlink:href="#DejaVuSans-20" x="404.507812"/>
      <use xlink:href="#DejaVuSans-45" x="436.294922"/>
      <use xlink:href="#DejaVuSans-70" x="499.478516"/>
      <use xlink:href="#DejaVuSans-69" x="562.955078"/>
      <use xlink:href="#DejaVuSans-73" x="590.738281"/>
      <use xlink:href="#DejaVuSans-6f" x="642.837891"/>
      <use xlink:href="#DejaVuSans-64" x="704.019531"/>
      <use xlink:href="#DejaVuSans-65" x="767.496094"/>
      <use xlink:href="#DejaVuSans-73" x="829.019531"/>
     </g>
    </g>
   </g>
   <g id="matplotlib.axis_2">
    <g id="ytick_1">
     <g id="line2d_10">
      <defs>
       <path id="m92ff20b10c" d="M 0 0 
L -3.5 0 
" style="stroke: #000000; stroke-width: 0.8"/>
      </defs>
      <g>
       <use xlink:href="#m92ff20b10c" x="57.6" y="299.497724" style="stroke: #000000; stroke-width: 0.8"/>
      </g>
     </g>
     <g id="text_11">
      <!-- 50 -->
      <g transform="translate(37.875 303.296943)scale(0.1 -0.1)">
       <use xlink:href="#DejaVuSans-35"/>
       <use xlink:href="#DejaVuSans-30" x="63.623047"/>
      </g>
     </g>
    </g>
    <g id="ytick_2">
     <g id="line2d_11">
      <g>
       <use xlink:href="#m92ff20b10c" x="57.6" y="266.083359" style="stroke: #000000; stroke-width: 0.8"/>
      </g>
     </g>
     <g id="text_12">
      <!-- 75 -->
      <g transform="translate(37.875 269.882578)scale(0.1 -0.1)">
       <use xlink:href="#DejaVuSans-37"/>
       <use xlink:href="#DejaVuSans-35" x="63.623047"/>
      </g>
     </g>
    </g>
    <g id="ytick_3">
     <g id="line2d_12">
      <g>
       <use xlink:href="#m92ff20b10c" x="57.6" y="232.668994" style="stroke: #000000; stroke-width: 0.8"/>
      </g>
     </g>
     <g id="text_13">
      <!-- 100 -->
      <g transform="translate(31.5125 236.468213)scale(0.1 -0.1)">
       <use xlink:href="#DejaVuSans-31"/>
       <use xlink:href="#DejaVuSans-30" x="63.623047"/>
       <use xlink:href="#DejaVuSans-30" x="127.246094"/>
      </g>
     </g>
    </g>
    <g id="ytick_4">
     <g id="line2d_13">
      <g>
       <use xlink:href="#m92ff20b10c" x="57.6" y="199.25463" style="stroke: #000000; stroke-width: 0.8"/>
      </g>
     </g>
     <g id="text_14">
      <!-- 125 -->
      <g transform="translate(31.5125 203.053849)scale(0.1 -0.1)">
       <use xlink:href="#DejaVuSans-31"/>
       <use xlink:href="#DejaVuSans-32" x="63.623047"/>
       <use xlink:href="#DejaVuSans-35" x="127.246094"/>
      </g>
     </g>
    </g>
    <g id="ytick_5">
     <g id="line2d_14">
      <g>
       <use xlink:href="#m92ff20b10c" x="57.6" y="165.840265" style="stroke: #000000; stroke-width: 0.8"/>
      </g>
     </g>
     <g id="text_15">
      <!-- 150 -->
      <g transform="translate(31.5125 169.639484)scale(0.1 -0.1)">
       <use xlink:href="#DejaVuSans-31"/>
       <use xlink:href="#DejaVuSans-35" x="63.623047"/>
       <use xlink:href="#DejaVuSans-30" x="127.246094"/>
      </g>
     </g>
    </g>
    <g id="ytick_6">
     <g id="line2d_15">
      <g>
       <use xlink:href="#m92ff20b10c" x="57.6" y="132.425901" style="stroke: #000000; stroke-width: 0.8"/>
      </g>
     </g>
     <g id="text_16">
      <!-- 175 -->
      <g transform="translate(31.5125 136.225119)scale(0.1 -0.1)">
       <use xlink:href="#DejaVuSans-31"/>
       <use xlink:href="#DejaVuSans-37" x="63.623047"/>
       <use xlink:href="#DejaVuSans-35" x="127.246094"/>
      </g>
     </g>
    </g>
    <g id="ytick_7">
     <g id="line2d_16">
      <g>
       <use xlink:href="#m92ff20b10c" x="57.6" y="99.011536" style="stroke: #000000; stroke-width: 0.8"/>
      </g>
     </g>
     <g id="text_17">
      <!-- 200 -->
      <g transform="translate(31.5125 102.810755)scale(0.1 -0.1)">
       <use xlink:href="#DejaVuSans-32"/>
       <use xlink:href="#DejaVuSans-30" x="63.623047"/>
       <use xlink:href="#DejaVuSans-30" x="127.246094"/>
      </g>
     </g>
    </g>
    <g id="ytick_8">
     <g id="line2d_17">
      <g>
       <use xlink:href="#m92ff20b10c" x="57.6" y="65.597171" style="stroke: #000000; stroke-width: 0.8"/>
      </g>
     </g>
     <g id="text_18">
      <!-- 225 -->
      <g transform="translate(31.5125 69.39639)scale(0.1 -0.1)">
       <use xlink:href="#DejaVuSans-32"/>
       <use xlink:href="#DejaVuSans-32" x="63.623047"/>
       <use xlink:href="#DejaVuSans-35" x="127.246094"/>
      </g>
     </g>
    </g>
    <g id="text_19">
     <!-- Reward Density -->
     <g transform="translate(25.432812 213.74675)rotate(-90)scale(0.1 -0.1)">
      <defs>
       <path id="DejaVuSans-52" d="M 2841 2188 
Q 3044 2119 3236 1894 
Q 3428 1669 3622 1275 
L 4263 0 
L 3584 0 
L 2988 1197 
Q 2756 1666 2539 1819 
Q 2322 1972 1947 1972 
L 1259 1972 
L 1259 0 
L 628 0 
L 628 4666 
L 2053 4666 
Q 2853 4666 3247 4331 
Q 3641 3997 3641 3322 
Q 3641 2881 3436 2590 
Q 3231 2300 2841 2188 
z
M 1259 4147 
L 1259 2491 
L 2053 2491 
Q 2509 2491 2742 2702 
Q 2975 2913 2975 3322 
Q 2975 3731 2742 3939 
Q 2509 4147 2053 4147 
L 1259 4147 
z
" transform="scale(0.015625)"/>
       <path id="DejaVuSans-77" d="M 269 3500 
L 844 3500 
L 1563 769 
L 2278 3500 
L 2956 3500 
L 3675 769 
L 4391 3500 
L 4966 3500 
L 4050 0 
L 3372 0 
L 2619 2869 
L 1863 0 
L 1184 0 
L 269 3500 
z
" transform="scale(0.015625)"/>
       <path id="DejaVuSans-44" d="M 1259 4147 
L 1259 519 
L 2022 519 
Q 2988 519 3436 956 
Q 3884 1394 3884 2338 
Q 3884 3275 3436 3711 
Q 2988 4147 2022 4147 
L 1259 4147 
z
M 628 4666 
L 1925 4666 
Q 3281 4666 3915 4102 
Q 4550 3538 4550 2338 
Q 4550 1131 3912 565 
Q 3275 0 1925 0 
L 628 0 
L 628 4666 
z
" transform="scale(0.015625)"/>
       <path id="DejaVuSans-74" d="M 1172 4494 
L 1172 3500 
L 2356 3500 
L 2356 3053 
L 1172 3053 
L 1172 1153 
Q 1172 725 1289 603 
Q 1406 481 1766 481 
L 2356 481 
L 2356 0 
L 1766 0 
Q 1100 0 847 248 
Q 594 497 594 1153 
L 594 3053 
L 172 3053 
L 172 3500 
L 594 3500 
L 594 4494 
L 1172 4494 
z
" transform="scale(0.015625)"/>
       <path id="DejaVuSans-79" d="M 2059 -325 
Q 1816 -950 1584 -1140 
Q 1353 -1331 966 -1331 
L 506 -1331 
L 506 -850 
L 844 -850 
Q 1081 -850 1212 -737 
Q 1344 -625 1503 -206 
L 1606 56 
L 191 3500 
L 800 3500 
L 1894 763 
L 2988 3500 
L 3597 3500 
L 2059 -325 
z
" transform="scale(0.015625)"/>
      </defs>
      <use xlink:href="#DejaVuSans-52"/>
      <use xlink:href="#DejaVuSans-65" x="64.982422"/>
      <use xlink:href="#DejaVuSans-77" x="126.505859"/>
      <use xlink:href="#DejaVuSans-61" x="208.292969"/>
      <use xlink:href="#DejaVuSans-72" x="269.572266"/>
      <use xlink:href="#DejaVuSans-64" x="308.935547"/>
      <use xlink:href="#DejaVuSans-20" x="372.412109"/>
      <use xlink:href="#DejaVuSans-44" x="404.199219"/>
      <use xlink:href="#DejaVuSans-65" x="481.201172"/>
      <use xlink:href="#DejaVuSans-6e" x="542.724609"/>
      <use xlink:href="#DejaVuSans-73" x="606.103516"/>
      <use xlink:href="#DejaVuSans-69" x="658.203125"/>
      <use xlink:href="#DejaVuSans-74" x="685.986328"/>
      <use xlink:href="#DejaVuSans-79" x="725.195312"/>
     </g>
    </g>
   </g>
   <g id="LineCollection_1">
    <path d="M 92.572407 177.671623 
L 130.051767 177.671623 
" clip-path="url(#p87c044b984)" style="fill: none; stroke: #1f77b4; stroke-width: 1.5"/>
    <path d="M 175.859874 153.757631 
L 213.339234 153.757631 
" clip-path="url(#p87c044b984)" style="fill: none; stroke: #1f77b4; stroke-width: 1.5"/>
    <path d="M 259.147341 157.906358 
L 296.626701 157.906358 
" clip-path="url(#p87c044b984)" style="fill: none; stroke: #1f77b4; stroke-width: 1.5"/>
    <path d="M 342.268233 156.703441 
L 379.747593 156.703441 
" clip-path="url(#p87c044b984)" style="fill: none; stroke: #1f77b4; stroke-width: 1.5"/>
   </g>
   <g id="LineCollection_2">
    <path d="M 92.572407 62.924022 
L 130.051767 62.924022 
" clip-path="url(#p87c044b984)" style="fill: none; stroke: #1f77b4; stroke-width: 1.5"/>
    <path d="M 175.859874 53.568 
L 213.339234 53.568 
" clip-path="url(#p87c044b984)" style="fill: none; stroke: #1f77b4; stroke-width: 1.5"/>
    <path d="M 259.147341 70.94347 
L 296.626701 70.94347 
" clip-path="url(#p87c044b984)" style="fill: none; stroke: #1f77b4; stroke-width: 1.5"/>
    <path d="M 342.268233 78.962917 
L 379.747593 78.962917 
" clip-path="url(#p87c044b984)" style="fill: none; stroke: #1f77b4; stroke-width: 1.5"/>
   </g>
   <g id="LineCollection_3">
    <path d="M 92.572407 295.488 
L 130.051767 295.488 
" clip-path="url(#p87c044b984)" style="fill: none; stroke: #1f77b4; stroke-width: 1.5"/>
    <path d="M 175.859874 247.371315 
L 213.339234 247.371315 
" clip-path="url(#p87c044b984)" style="fill: none; stroke: #1f77b4; stroke-width: 1.5"/>
    <path d="M 259.147341 248.70789 
L 296.626701 248.70789 
" clip-path="url(#p87c044b984)" style="fill: none; stroke: #1f77b4; stroke-width: 1.5"/>
    <path d="M 342.268233 251.381039 
L 379.747593 251.381039 
" clip-path="url(#p87c044b984)" style="fill: none; stroke: #1f77b4; stroke-width: 1.5"/>
   </g>
   <g id="LineCollection_4">
    <path d="M 111.312087 295.488 
L 111.312087 62.924022 
" clip-path="url(#p87c044b984)" style="fill: none; stroke: #1f77b4; stroke-width: 1.5"/>
    <path d="M 194.599554 247.371315 
L 194.599554 53.568 
" clip-path="url(#p87c044b984)" style="fill: none; stroke: #1f77b4; stroke-width: 1.5"/>
    <path d="M 277.887021 248.70789 
L 277.887021 70.94347 
" clip-path="url(#p87c044b984)" style="fill: none; stroke: #1f77b4; stroke-width: 1.5"/>
    <path d="M 361.007913 251.381039 
L 361.007913 78.962917 
" clip-path="url(#p87c044b984)" style="fill: none; stroke: #1f77b4; stroke-width: 1.5"/>
   </g>
   <g id="line2d_18">
    <path d="M 111.312087 177.671623 
L 194.599554 153.757631 
L 277.887021 157.906358 
L 361.007913 156.703441 
" clip-path="url(#p87c044b984)" style="fill: none; stroke: #4682b4; stroke-width: 1.5; stroke-linecap: square"/>
   </g>
   <g id="patch_3">
    <path d="M 57.6 307.584 
L 57.6 41.472 
" style="fill: none; stroke: #000000; stroke-width: 0.8; stroke-linejoin: miter; stroke-linecap: square"/>
   </g>
   <g id="patch_4">
    <path d="M 414.72 307.584 
L 414.72 41.472 
" style="fill: none; stroke: #000000; stroke-width: 0.8; stroke-linejoin: miter; stroke-linecap: square"/>
   </g>
   <g id="patch_5">
    <path d="M 57.6 307.584 
L 414.72 307.584 
" style="fill: none; stroke: #000000; stroke-width: 0.8; stroke-linejoin: miter; stroke-linecap: square"/>
   </g>
   <g id="patch_6">
    <path d="M 57.6 41.472 
L 414.72 41.472 
" style="fill: none; stroke: #000000; stroke-width: 0.8; stroke-linejoin: miter; stroke-linecap: square"/>
   </g>
   <g id="text_20">
    <!-- Violinplot for progress of owner/rebuys -->
    <g transform="translate(119.788125 35.472)scale(0.12 -0.12)">
     <defs>
      <path id="DejaVuSans-56" d="M 1831 0 
L 50 4666 
L 709 4666 
L 2188 738 
L 3669 4666 
L 4325 4666 
L 2547 0 
L 1831 0 
z
" transform="scale(0.015625)"/>
      <path id="DejaVuSans-6c" d="M 603 4863 
L 1178 4863 
L 1178 0 
L 603 0 
L 603 4863 
z
" transform="scale(0.015625)"/>
      <path id="DejaVuSans-66" d="M 2375 4863 
L 2375 4384 
L 1825 4384 
Q 1516 4384 1395 4259 
Q 1275 4134 1275 3809 
L 1275 3500 
L 2222 3500 
L 2222 3053 
L 1275 3053 
L 1275 0 
L 697 0 
L 697 3053 
L 147 3053 
L 147 3500 
L 697 3500 
L 697 3744 
Q 697 4328 969 4595 
Q 1241 4863 1831 4863 
L 2375 4863 
z
" transform="scale(0.015625)"/>
      <path id="DejaVuSans-67" d="M 2906 1791 
Q 2906 2416 2648 2759 
Q 2391 3103 1925 3103 
Q 1463 3103 1205 2759 
Q 947 2416 947 1791 
Q 947 1169 1205 825 
Q 1463 481 1925 481 
Q 2391 481 2648 825 
Q 2906 1169 2906 1791 
z
M 3481 434 
Q 3481 -459 3084 -895 
Q 2688 -1331 1869 -1331 
Q 1566 -1331 1297 -1286 
Q 1028 -1241 775 -1147 
L 775 -588 
Q 1028 -725 1275 -790 
Q 1522 -856 1778 -856 
Q 2344 -856 2625 -561 
Q 2906 -266 2906 331 
L 2906 616 
Q 2728 306 2450 153 
Q 2172 0 1784 0 
Q 1141 0 747 490 
Q 353 981 353 1791 
Q 353 2603 747 3093 
Q 1141 3584 1784 3584 
Q 2172 3584 2450 3431 
Q 2728 3278 2906 2969 
L 2906 3500 
L 3481 3500 
L 3481 434 
z
" transform="scale(0.015625)"/>
      <path id="DejaVuSans-2f" d="M 1625 4666 
L 2156 4666 
L 531 -594 
L 0 -594 
L 1625 4666 
z
" transform="scale(0.015625)"/>
      <path id="DejaVuSans-62" d="M 3116 1747 
Q 3116 2381 2855 2742 
Q 2594 3103 2138 3103 
Q 1681 3103 1420 2742 
Q 1159 2381 1159 1747 
Q 1159 1113 1420 752 
Q 1681 391 2138 391 
Q 2594 391 2855 752 
Q 3116 1113 3116 1747 
z
M 1159 2969 
Q 1341 3281 1617 3432 
Q 1894 3584 2278 3584 
Q 2916 3584 3314 3078 
Q 3713 2572 3713 1747 
Q 3713 922 3314 415 
Q 2916 -91 2278 -91 
Q 1894 -91 1617 61 
Q 1341 213 1159 525 
L 1159 0 
L 581 0 
L 581 4863 
L 1159 4863 
L 1159 2969 
z
" transform="scale(0.015625)"/>
      <path id="DejaVuSans-75" d="M 544 1381 
L 544 3500 
L 1119 3500 
L 1119 1403 
Q 1119 906 1312 657 
Q 1506 409 1894 409 
Q 2359 409 2629 706 
Q 2900 1003 2900 1516 
L 2900 3500 
L 3475 3500 
L 3475 0 
L 2900 0 
L 2900 538 
Q 2691 219 2414 64 
Q 2138 -91 1772 -91 
Q 1169 -91 856 284 
Q 544 659 544 1381 
z
M 1991 3584 
L 1991 3584 
z
" transform="scale(0.015625)"/>
     </defs>
     <use xlink:href="#DejaVuSans-56"/>
     <use xlink:href="#DejaVuSans-69" x="66.158203"/>
     <use xlink:href="#DejaVuSans-6f" x="93.941406"/>
     <use xlink:href="#DejaVuSans-6c" x="155.123047"/>
     <use xlink:href="#DejaVuSans-69" x="182.90625"/>
     <use xlink:href="#DejaVuSans-6e" x="210.689453"/>
     <use xlink:href="#DejaVuSans-70" x="274.068359"/>
     <use xlink:href="#DejaVuSans-6c" x="337.544922"/>
     <use xlink:href="#DejaVuSans-6f" x="365.328125"/>
     <use xlink:href="#DejaVuSans-74" x="426.509766"/>
     <use xlink:href="#DejaVuSans-20" x="465.71875"/>
     <use xlink:href="#DejaVuSans-66" x="497.505859"/>
     <use xlink:href="#DejaVuSans-6f" x="532.710938"/>
     <use xlink:href="#DejaVuSans-72" x="593.892578"/>
     <use xlink:href="#DejaVuSans-20" x="635.005859"/>
     <use xlink:href="#DejaVuSans-70" x="666.792969"/>
     <use xlink:href="#DejaVuSans-72" x="730.269531"/>
     <use xlink:href="#DejaVuSans-6f" x="769.132812"/>
     <use xlink:href="#DejaVuSans-67" x="830.314453"/>
     <use xlink:href="#DejaVuSans-72" x="893.791016"/>
     <use xlink:href="#DejaVuSans-65" x="932.654297"/>
     <use xlink:href="#DejaVuSans-73" x="994.177734"/>
     <use xlink:href="#DejaVuSans-73" x="1046.277344"/>
     <use xlink:href="#DejaVuSans-20" x="1098.376953"/>
     <use xlink:href="#DejaVuSans-6f" x="1130.164062"/>
     <use xlink:href="#DejaVuSans-66" x="1191.345703"/>
     <use xlink:href="#DejaVuSans-20" x="1226.550781"/>
     <use xlink:href="#DejaVuSans-6f" x="1258.337891"/>
     <use xlink:href="#DejaVuSans-77" x="1319.519531"/>
     <use xlink:href="#DejaVuSans-6e" x="1401.306641"/>
     <use xlink:href="#DejaVuSans-65" x="1464.685547"/>
     <use xlink:href="#DejaVuSans-72" x="1526.208984"/>
     <use xlink:href="#DejaVuSans-2f" x="1567.322266"/>
     <use xlink:href="#DejaVuSans-72" x="1601.013672"/>
     <use xlink:href="#DejaVuSans-65" x="1639.876953"/>
     <use xlink:href="#DejaVuSans-62" x="1701.400391"/>
     <use xlink:href="#DejaVuSans-75" x="1764.876953"/>
     <use xlink:href="#DejaVuSans-79" x="1828.255859"/>
     <use xlink:href="#DejaVuSans-73" x="1887.435547"/>
    </g>
   </g>
   <g id="legend_1">
    <g id="patch_7">
     <path d="M 284.430938 64.150125 
L 407.72 64.150125 
Q 409.72 64.150125 409.72 62.150125 
L 409.72 48.472 
Q 409.72 46.472 407.72 46.472 
L 284.430938 46.472 
Q 282.430938 46.472 282.430938 48.472 
L 282.430938 62.150125 
Q 282.430938 64.150125 284.430938 64.150125 
z
" style="fill: #ffffff; opacity: 0.8; stroke: #cccccc; stroke-linejoin: miter"/>
    </g>
    <g id="line2d_19">
     <path d="M 286.430938 54.570438 
L 296.430938 54.570438 
L 306.430938 54.570438 
" style="fill: none; stroke: #4682b4; stroke-width: 1.5; stroke-linecap: square"/>
    </g>
    <g id="text_21">
     <!-- Storage-Minimizer -->
     <g transform="translate(314.430938 58.070438)scale(0.1 -0.1)">
      <defs>
       <path id="DejaVuSans-53" d="M 3425 4513 
L 3425 3897 
Q 3066 4069 2747 4153 
Q 2428 4238 2131 4238 
Q 1616 4238 1336 4038 
Q 1056 3838 1056 3469 
Q 1056 3159 1242 3001 
Q 1428 2844 1947 2747 
L 2328 2669 
Q 3034 2534 3370 2195 
Q 3706 1856 3706 1288 
Q 3706 609 3251 259 
Q 2797 -91 1919 -91 
Q 1588 -91 1214 -16 
Q 841 59 441 206 
L 441 856 
Q 825 641 1194 531 
Q 1563 422 1919 422 
Q 2459 422 2753 634 
Q 3047 847 3047 1241 
Q 3047 1584 2836 1778 
Q 2625 1972 2144 2069 
L 1759 2144 
Q 1053 2284 737 2584 
Q 422 2884 422 3419 
Q 422 4038 858 4394 
Q 1294 4750 2059 4750 
Q 2388 4750 2728 4690 
Q 3069 4631 3425 4513 
z
" transform="scale(0.015625)"/>
       <path id="DejaVuSans-2d" d="M 313 2009 
L 1997 2009 
L 1997 1497 
L 313 1497 
L 313 2009 
z
" transform="scale(0.015625)"/>
       <path id="DejaVuSans-4d" d="M 628 4666 
L 1569 4666 
L 2759 1491 
L 3956 4666 
L 4897 4666 
L 4897 0 
L 4281 0 
L 4281 4097 
L 3078 897 
L 2444 897 
L 1241 4097 
L 1241 0 
L 628 0 
L 628 4666 
z
" transform="scale(0.015625)"/>
       <path id="DejaVuSans-6d" d="M 3328 2828 
Q 3544 3216 3844 3400 
Q 4144 3584 4550 3584 
Q 5097 3584 5394 3201 
Q 5691 2819 5691 2113 
L 5691 0 
L 5113 0 
L 5113 2094 
Q 5113 2597 4934 2840 
Q 4756 3084 4391 3084 
Q 3944 3084 3684 2787 
Q 3425 2491 3425 1978 
L 3425 0 
L 2847 0 
L 2847 2094 
Q 2847 2600 2669 2842 
Q 2491 3084 2119 3084 
Q 1678 3084 1418 2786 
Q 1159 2488 1159 1978 
L 1159 0 
L 581 0 
L 581 3500 
L 1159 3500 
L 1159 2956 
Q 1356 3278 1631 3431 
Q 1906 3584 2284 3584 
Q 2666 3584 2933 3390 
Q 3200 3197 3328 2828 
z
" transform="scale(0.015625)"/>
       <path id="DejaVuSans-7a" d="M 353 3500 
L 3084 3500 
L 3084 2975 
L 922 459 
L 3084 459 
L 3084 0 
L 275 0 
L 275 525 
L 2438 3041 
L 353 3041 
L 353 3500 
z
" transform="scale(0.015625)"/>
      </defs>
      <use xlink:href="#DejaVuSans-53"/>
      <use xlink:href="#DejaVuSans-74" x="63.476562"/>
      <use xlink:href="#DejaVuSans-6f" x="102.685547"/>
      <use xlink:href="#DejaVuSans-72" x="163.867188"/>
      <use xlink:href="#DejaVuSans-61" x="204.980469"/>
      <use xlink:href="#DejaVuSans-67" x="266.259766"/>
      <use xlink:href="#DejaVuSans-65" x="329.736328"/>
      <use xlink:href="#DejaVuSans-2d" x="391.259766"/>
      <use xlink:href="#DejaVuSans-4d" x="427.34375"/>
      <use xlink:href="#DejaVuSans-69" x="513.623047"/>
      <use xlink:href="#DejaVuSans-6e" x="541.40625"/>
      <use xlink:href="#DejaVuSans-69" x="604.785156"/>
      <use xlink:href="#DejaVuSans-6d" x="632.568359"/>
      <use xlink:href="#DejaVuSans-69" x="729.980469"/>
      <use xlink:href="#DejaVuSans-7a" x="757.763672"/>
      <use xlink:href="#DejaVuSans-65" x="810.253906"/>
      <use xlink:href="#DejaVuSans-72" x="871.777344"/>
     </g>
    </g>
   </g>
  </g>
 </g>
 <defs>
  <clipPath id="p87c044b984">
   <rect x="57.6" y="41.472" width="357.12" height="266.112"/>
  </clipPath>
 </defs>
</svg>
