<?xml version="1.0" encoding="utf-8" standalone="no"?>
<!DOCTYPE svg PUBLIC "-//W3C//DTD SVG 1.1//EN"
  "http://www.w3.org/Graphics/SVG/1.1/DTD/svg11.dtd">
<svg xmlns:xlink="http://www.w3.org/1999/xlink" width="460.8pt" height="345.6pt" viewBox="0 0 460.8 345.6" xmlns="http://www.w3.org/2000/svg" version="1.1">
 <metadata>
  <rdf:RDF xmlns:dc="http://purl.org/dc/elements/1.1/" xmlns:cc="http://creativecommons.org/ns#" xmlns:rdf="http://www.w3.org/1999/02/22-rdf-syntax-ns#">
   <cc:Work>
    <dc:type rdf:resource="http://purl.org/dc/dcmitype/StillImage"/>
    <dc:date>2022-06-15T18:26:49.853035</dc:date>
    <dc:format>image/svg+xml</dc:format>
    <dc:creator>
     <cc:Agent>
      <dc:title>Matplotlib v3.5.2, https://matplotlib.org/</dc:title>
     </cc:Agent>
    </dc:creator>
   </cc:Work>
  </rdf:RDF>
 </metadata>
 <defs>
  <style type="text/css">*{stroke-linejoin: round; stroke-linecap: butt}</style>
 </defs>
 <g id="figure_1">
  <g id="patch_1">
   <path d="M 0 345.6 
L 460.8 345.6 
L 460.8 0 
L 0 0 
z
" style="fill: #ffffff"/>
  </g>
  <g id="axes_1">
   <g id="patch_2">
    <path d="M 57.6 307.584 
L 414.72 307.584 
L 414.72 41.472 
L 57.6 41.472 
z
" style="fill: #ffffff"/>
   </g>
   <g id="PolyCollection_1">
    <path d="M 111.729784 225.229066 
L 110.894391 225.229066 
L 110.888413 223.495115 
L 110.893166 221.761165 
L 110.903447 220.027215 
L 110.913166 218.293265 
L 110.916885 216.559315 
L 110.911098 214.825365 
L 110.894797 213.091414 
L 110.869139 211.357464 
L 110.836301 209.623514 
L 110.797942 207.889564 
L 110.753855 206.155614 
L 110.701314 204.421664 
L 110.635453 202.687714 
L 110.550588 200.953763 
L 110.442089 199.219813 
L 110.308206 197.485863 
L 110.151257 195.751913 
L 109.977823 194.017963 
L 109.797889 192.284013 
L 109.623185 190.550062 
L 109.465176 188.816112 
L 109.333163 187.082162 
L 109.23292 185.348212 
L 109.166108 183.614262 
L 109.130535 181.880312 
L 109.1211 180.146361 
L 109.131061 178.412411 
L 109.153159 176.678461 
L 109.180134 174.944511 
L 109.204405 173.210561 
L 109.216999 171.476611 
L 109.206163 169.742661 
L 109.15633 168.00871 
L 109.048017 166.27476 
L 108.859001 164.54081 
L 108.566608 162.80686 
L 108.150581 161.07291 
L 107.595733 159.33896 
L 106.893748 157.605009 
L 106.04383 155.871059 
L 105.052465 154.137109 
L 103.932884 152.403159 
L 102.70482 150.669209 
L 101.394699 148.935259 
L 100.035661 147.201308 
L 98.666228 145.467358 
L 97.326392 143.733408 
L 96.050669 141.999458 
L 94.859126 140.265508 
L 93.748942 138.531558 
L 92.689909 136.797608 
L 91.626804 135.063657 
L 90.489681 133.329707 
L 89.210388 131.595757 
L 87.741114 129.861807 
L 86.069638 128.127857 
L 84.22667 126.393907 
L 82.283135 124.659956 
L 80.338398 122.926006 
L 78.503157 121.192056 
L 76.881928 119.458106 
L 75.559538 117.724156 
L 74.59405 115.990206 
L 74.016123 114.256256 
L 73.832727 112.522305 
L 74.032374 110.788355 
L 74.589465 109.054405 
L 75.466857 107.320455 
L 76.617367 105.586505 
L 77.985951 103.852555 
L 79.514096 102.118604 
L 81.146741 100.384654 
L 82.84034 98.650704 
L 84.569395 96.916754 
L 86.328673 95.182804 
L 88.129553 93.448854 
L 89.990997 91.714903 
L 91.927683 89.980953 
L 93.939008 88.247003 
L 96.002444 86.513053 
L 98.0733 84.779103 
L 100.090872 83.045153 
L 101.989056 81.311203 
L 103.708292 79.577252 
L 105.205655 77.843302 
L 106.460693 76.109352 
L 107.476074 74.375402 
L 108.273542 72.641452 
L 108.886875 70.907502 
L 109.354013 69.173551 
L 109.710389 67.439601 
L 109.984788 65.705651 
L 110.19811 63.971701 
L 110.364505 62.237751 
L 110.493777 60.503801 
L 110.593834 58.76985 
L 110.672295 57.0359 
L 110.736861 55.30195 
L 110.794705 53.568 
L 111.82947 53.568 
L 111.82947 53.568 
L 111.887314 55.30195 
L 111.95188 57.0359 
L 112.03034 58.76985 
L 112.130398 60.503801 
L 112.259669 62.237751 
L 112.426065 63.971701 
L 112.639387 65.705651 
L 112.913786 67.439601 
L 113.270161 69.173551 
L 113.7373 70.907502 
L 114.350633 72.641452 
L 115.148101 74.375402 
L 116.163482 76.109352 
L 117.41852 77.843302 
L 118.915883 79.577252 
L 120.635119 81.311203 
L 122.533303 83.045153 
L 124.550875 84.779103 
L 126.62173 86.513053 
L 128.685167 88.247003 
L 130.696492 89.980953 
L 132.633177 91.714903 
L 134.494621 93.448854 
L 136.295502 95.182804 
L 138.05478 96.916754 
L 139.783834 98.650704 
L 141.477434 100.384654 
L 143.110079 102.118604 
L 144.638223 103.852555 
L 146.006808 105.586505 
L 147.157318 107.320455 
L 148.034709 109.054405 
L 148.5918 110.788355 
L 148.791447 112.522305 
L 148.608051 114.256256 
L 148.030124 115.990206 
L 147.064637 117.724156 
L 145.742246 119.458106 
L 144.121018 121.192056 
L 142.285776 122.926006 
L 140.34104 124.659956 
L 138.397504 126.393907 
L 136.554537 128.127857 
L 134.883061 129.861807 
L 133.413786 131.595757 
L 132.134493 133.329707 
L 130.997371 135.063657 
L 129.934265 136.797608 
L 128.875232 138.531558 
L 127.765049 140.265508 
L 126.573506 141.999458 
L 125.297782 143.733408 
L 123.957947 145.467358 
L 122.588514 147.201308 
L 121.229475 148.935259 
L 119.919355 150.669209 
L 118.691291 152.403159 
L 117.57171 154.137109 
L 116.580345 155.871059 
L 115.730427 157.605009 
L 115.028441 159.33896 
L 114.473594 161.07291 
L 114.057566 162.80686 
L 113.765174 164.54081 
L 113.576158 166.27476 
L 113.467845 168.00871 
L 113.418011 169.742661 
L 113.407176 171.476611 
L 113.419769 173.210561 
L 113.444041 174.944511 
L 113.471016 176.678461 
L 113.493114 178.412411 
L 113.503075 180.146361 
L 113.49364 181.880312 
L 113.458067 183.614262 
L 113.391255 185.348212 
L 113.291012 187.082162 
L 113.158999 188.816112 
L 113.00099 190.550062 
L 112.826286 192.284013 
L 112.646351 194.017963 
L 112.472918 195.751913 
L 112.315969 197.485863 
L 112.182085 199.219813 
L 112.073586 200.953763 
L 111.988721 202.687714 
L 111.922861 204.421664 
L 111.87032 206.155614 
L 111.826232 207.889564 
L 111.787874 209.623514 
L 111.755035 211.357464 
L 111.729377 213.091414 
L 111.713077 214.825365 
L 111.707289 216.559315 
L 111.711009 218.293265 
L 111.720728 220.027215 
L 111.731008 221.761165 
L 111.735761 223.495115 
L 111.729784 225.229066 
z
" clip-path="url(#pd30dc309a5)" style="fill: #1f77b4; fill-opacity: 0.3"/>
   </g>
   <g id="PolyCollection_2">
    <path d="M 194.9689 183.602689 
L 194.230208 183.602689 
L 194.239772 182.340398 
L 194.2672 181.078107 
L 194.307795 179.815816 
L 194.354947 178.553525 
L 194.401435 177.291234 
L 194.440634 176.028943 
L 194.467362 174.766652 
L 194.478309 173.504361 
L 194.472173 172.24207 
L 194.449673 170.979779 
L 194.413543 169.717488 
L 194.368433 168.455197 
L 194.320567 167.192906 
L 194.276989 165.930615 
L 194.244389 164.668324 
L 194.227719 163.406033 
L 194.228979 162.143742 
L 194.246573 160.881451 
L 194.275477 159.61916 
L 194.308223 158.356869 
L 194.33641 157.094578 
L 194.352358 155.832287 
L 194.350464 154.569996 
L 194.328007 153.307705 
L 194.285269 152.045414 
L 194.22506 150.783123 
L 194.151846 149.520832 
L 194.07081 148.258541 
L 193.987145 146.99625 
L 193.90578 145.733959 
L 193.831494 144.471667 
L 193.769095 143.209376 
L 193.723246 141.947085 
L 193.697579 140.684794 
L 193.693115 139.422503 
L 193.706417 138.160212 
L 193.728236 136.897921 
L 193.743353 135.63563 
L 193.732023 134.373339 
L 193.672815 133.111048 
L 193.546189 131.848757 
L 193.337808 130.586466 
L 193.040706 129.324175 
L 192.655806 128.061884 
L 192.190897 126.799593 
L 191.65872 125.537302 
L 191.075055 124.275011 
L 190.457488 123.01272 
L 189.824923 121.750429 
L 189.197195 120.488138 
L 188.593876 119.225847 
L 188.031702 117.963556 
L 187.520984 116.701265 
L 187.062201 115.438974 
L 186.644242 114.176683 
L 186.245089 112.914392 
L 185.834511 111.652101 
L 185.377387 110.38981 
L 184.836212 109.127519 
L 184.172324 107.865228 
L 183.346734 106.602937 
L 182.322308 105.340645 
L 181.068667 104.078354 
L 179.569698 102.816063 
L 177.83162 101.553772 
L 175.888349 100.291481 
L 173.801033 99.02919 
L 171.650413 97.766899 
L 169.523239 96.504608 
L 167.496503 95.242317 
L 165.624428 93.980026 
L 163.932551 92.717735 
L 162.420975 91.455444 
L 161.075674 90.193153 
L 159.884103 88.930862 
L 158.85 87.668571 
L 158.002939 86.40628 
L 157.400102 85.143989 
L 157.120194 83.881698 
L 157.2512 82.619407 
L 157.874494 81.357116 
L 159.04785 80.094825 
L 160.789888 78.832534 
L 163.068696 77.570243 
L 165.797619 76.307952 
L 168.840648 75.045661 
L 172.028115 73.78337 
L 175.180517 72.521079 
L 178.135497 71.258788 
L 180.77148 69.996497 
L 183.022109 68.734206 
L 184.87832 67.471915 
L 186.378576 66.209623 
L 187.591068 64.947332 
L 188.593462 63.685041 
L 189.455535 62.42275 
L 190.22826 61.160459 
L 190.940334 59.898168 
L 191.600912 58.635877 
L 197.598196 58.635877 
L 197.598196 58.635877 
L 198.258774 59.898168 
L 198.970848 61.160459 
L 199.743573 62.42275 
L 200.605646 63.685041 
L 201.60804 64.947332 
L 202.820532 66.209623 
L 204.320788 67.471915 
L 206.176999 68.734206 
L 208.427628 69.996497 
L 211.063611 71.258788 
L 214.018591 72.521079 
L 217.170994 73.78337 
L 220.358461 75.045661 
L 223.40149 76.307952 
L 226.130412 77.570243 
L 228.40922 78.832534 
L 230.151258 80.094825 
L 231.324614 81.357116 
L 231.947908 82.619407 
L 232.078914 83.881698 
L 231.799006 85.143989 
L 231.196169 86.40628 
L 230.349108 87.668571 
L 229.315006 88.930862 
L 228.123434 90.193153 
L 226.778134 91.455444 
L 225.266557 92.717735 
L 223.574681 93.980026 
L 221.702605 95.242317 
L 219.675869 96.504608 
L 217.548695 97.766899 
L 215.398075 99.02919 
L 213.31076 100.291481 
L 211.367488 101.553772 
L 209.629411 102.816063 
L 208.130441 104.078354 
L 206.876801 105.340645 
L 205.852374 106.602937 
L 205.026785 107.865228 
L 204.362896 109.127519 
L 203.821721 110.38981 
L 203.364597 111.652101 
L 202.954019 112.914392 
L 202.554866 114.176683 
L 202.136907 115.438974 
L 201.678124 116.701265 
L 201.167406 117.963556 
L 200.605233 119.225847 
L 200.001913 120.488138 
L 199.374186 121.750429 
L 198.741621 123.01272 
L 198.124054 124.275011 
L 197.540388 125.537302 
L 197.008211 126.799593 
L 196.543302 128.061884 
L 196.158402 129.324175 
L 195.8613 130.586466 
L 195.652919 131.848757 
L 195.526293 133.111048 
L 195.467085 134.373339 
L 195.455755 135.63563 
L 195.470872 136.897921 
L 195.492691 138.160212 
L 195.505993 139.422503 
L 195.501529 140.684794 
L 195.475862 141.947085 
L 195.430013 143.209376 
L 195.367614 144.471667 
L 195.293328 145.733959 
L 195.211964 146.99625 
L 195.128298 148.258541 
L 195.047262 149.520832 
L 194.974048 150.783123 
L 194.913839 152.045414 
L 194.871102 153.307705 
L 194.848644 154.569996 
L 194.84675 155.832287 
L 194.862698 157.094578 
L 194.890886 158.356869 
L 194.923631 159.61916 
L 194.952535 160.881451 
L 194.970129 162.143742 
L 194.97139 163.406033 
L 194.954719 164.668324 
L 194.922119 165.930615 
L 194.878541 167.192906 
L 194.830675 168.455197 
L 194.785565 169.717488 
L 194.749435 170.979779 
L 194.726935 172.24207 
L 194.720799 173.504361 
L 194.731746 174.766652 
L 194.758474 176.028943 
L 194.797673 177.291234 
L 194.844161 178.553525 
L 194.891314 179.815816 
L 194.931908 181.078107 
L 194.959336 182.340398 
L 194.9689 183.602689 
z
" clip-path="url(#pd30dc309a5)" style="fill: #1f77b4; fill-opacity: 0.3"/>
   </g>
   <g id="PolyCollection_3">
    <path d="M 278.855632 193.827265 
L 276.91841 193.827265 
L 276.844999 192.535399 
L 276.788086 191.243534 
L 276.748455 189.951669 
L 276.725399 188.659804 
L 276.716956 187.367939 
L 276.720294 186.076074 
L 276.732125 184.784209 
L 276.749063 183.492344 
L 276.76784 182.200478 
L 276.785347 180.908613 
L 276.798515 179.616748 
L 276.804074 178.324883 
L 276.798295 177.033018 
L 276.776794 175.741153 
L 276.734493 174.449288 
L 276.665785 173.157423 
L 276.564914 171.865557 
L 276.42653 170.573692 
L 276.246306 169.281827 
L 276.021509 167.989962 
L 275.751385 166.698097 
L 275.437288 165.406232 
L 275.082513 164.114367 
L 274.691877 162.822502 
L 274.271156 161.530636 
L 273.826474 160.238771 
L 273.363772 158.946906 
L 272.888396 157.655041 
L 272.404805 156.363176 
L 271.916338 155.071311 
L 271.424975 153.779446 
L 270.931024 152.487581 
L 270.432748 151.195716 
L 269.926007 149.90385 
L 269.404069 148.611985 
L 268.857766 147.32012 
L 268.27613 146.028255 
L 267.647564 144.73639 
L 266.96142 143.444525 
L 266.209704 142.15266 
L 265.388524 140.860795 
L 264.498825 139.568929 
L 263.546125 138.277064 
L 262.539137 136.985199 
L 261.487501 135.693334 
L 260.399145 134.401469 
L 259.277976 133.109604 
L 258.122645 131.817739 
L 256.926928 130.525874 
L 255.681907 129.234008 
L 254.379669 127.942143 
L 253.017779 126.650278 
L 251.603481 125.358413 
L 250.156507 124.066548 
L 248.70957 122.774683 
L 247.306042 121.482818 
L 245.994973 120.190953 
L 244.8242 118.899087 
L 243.832801 117.607222 
L 243.044432 116.315357 
L 242.462936 115.023492 
L 242.071258 113.731627 
L 241.833986 112.439762 
L 241.703133 111.147897 
L 241.626073 109.856032 
L 241.554193 108.564166 
L 241.450685 107.272301 
L 241.296207 105.980436 
L 241.091633 104.688571 
L 240.857707 103.396706 
L 240.631958 102.104841 
L 240.463651 100.812976 
L 240.407661 99.521111 
L 240.518173 98.229245 
L 240.842929 96.93738 
L 241.418559 95.645515 
L 242.267312 94.35365 
L 243.395374 93.061785 
L 244.79279 91.76992 
L 246.434881 90.478055 
L 248.284921 89.18619 
L 250.297675 87.894324 
L 252.423321 86.602459 
L 254.611259 85.310594 
L 256.813334 84.018729 
L 258.986209 82.726864 
L 261.092768 81.434999 
L 263.102654 80.143134 
L 264.99216 78.851269 
L 266.743772 77.559403 
L 268.345613 76.267538 
L 269.790932 74.975673 
L 271.077699 73.683808 
L 272.208243 72.391943 
L 273.188826 71.100078 
L 274.029064 69.808213 
L 274.741154 68.516348 
L 275.338934 67.224482 
L 275.836883 65.932617 
L 279.937159 65.932617 
L 279.937159 65.932617 
L 280.435108 67.224482 
L 281.032888 68.516348 
L 281.744978 69.808213 
L 282.585216 71.100078 
L 283.565799 72.391943 
L 284.696343 73.683808 
L 285.98311 74.975673 
L 287.428429 76.267538 
L 289.030269 77.559403 
L 290.781882 78.851269 
L 292.671388 80.143134 
L 294.681273 81.434999 
L 296.787833 82.726864 
L 298.960708 84.018729 
L 301.162783 85.310594 
L 303.35072 86.602459 
L 305.476367 87.894324 
L 307.48912 89.18619 
L 309.33916 90.478055 
L 310.981252 91.76992 
L 312.378668 93.061785 
L 313.50673 94.35365 
L 314.355483 95.645515 
L 314.931112 96.93738 
L 315.255869 98.229245 
L 315.366381 99.521111 
L 315.310391 100.812976 
L 315.142084 102.104841 
L 314.916335 103.396706 
L 314.682408 104.688571 
L 314.477835 105.980436 
L 314.323357 107.272301 
L 314.219848 108.564166 
L 314.147969 109.856032 
L 314.070909 111.147897 
L 313.940055 112.439762 
L 313.702784 113.731627 
L 313.311106 115.023492 
L 312.72961 116.315357 
L 311.94124 117.607222 
L 310.949842 118.899087 
L 309.779068 120.190953 
L 308.468 121.482818 
L 307.064472 122.774683 
L 305.617534 124.066548 
L 304.170561 125.358413 
L 302.756263 126.650278 
L 301.394372 127.942143 
L 300.092135 129.234008 
L 298.847114 130.525874 
L 297.651396 131.817739 
L 296.496065 133.109604 
L 295.374896 134.401469 
L 294.28654 135.693334 
L 293.234905 136.985199 
L 292.227916 138.277064 
L 291.275217 139.568929 
L 290.385518 140.860795 
L 289.564338 142.15266 
L 288.812622 143.444525 
L 288.126477 144.73639 
L 287.497912 146.028255 
L 286.916276 147.32012 
L 286.369972 148.611985 
L 285.848035 149.90385 
L 285.341294 151.195716 
L 284.843017 152.487581 
L 284.349066 153.779446 
L 283.857704 155.071311 
L 283.369237 156.363176 
L 282.885646 157.655041 
L 282.41027 158.946906 
L 281.947568 160.238771 
L 281.502886 161.530636 
L 281.082164 162.822502 
L 280.691529 164.114367 
L 280.336754 165.406232 
L 280.022657 166.698097 
L 279.752533 167.989962 
L 279.527736 169.281827 
L 279.347512 170.573692 
L 279.209128 171.865557 
L 279.108257 173.157423 
L 279.039548 174.449288 
L 278.997247 175.741153 
L 278.975747 177.033018 
L 278.969968 178.324883 
L 278.975526 179.616748 
L 278.988694 180.908613 
L 279.006202 182.200478 
L 279.024979 183.492344 
L 279.041917 184.784209 
L 279.053748 186.076074 
L 279.057086 187.367939 
L 279.048643 188.659804 
L 279.025586 189.951669 
L 278.985956 191.243534 
L 278.929043 192.535399 
L 278.855632 193.827265 
z
" clip-path="url(#pd30dc309a5)" style="fill: #1f77b4; fill-opacity: 0.3"/>
   </g>
   <g id="PolyCollection_4">
    <path d="M 361.416104 295.488 
L 360.599722 295.488 
L 360.609536 293.236513 
L 360.637588 290.985025 
L 360.679989 288.733538 
L 360.731229 286.48205 
L 360.785298 284.230563 
L 360.836743 281.979075 
L 360.881375 279.727588 
L 360.916512 277.476101 
L 360.940799 275.224613 
L 360.953756 272.973126 
L 360.955307 270.721638 
L 360.945449 268.470151 
L 360.924216 266.218663 
L 360.891923 263.967176 
L 360.849623 261.715689 
L 360.799566 259.464201 
L 360.745453 257.212714 
L 360.692287 254.961226 
L 360.645724 252.709739 
L 360.611002 250.458251 
L 360.591698 248.206764 
L 360.588641 245.955277 
L 360.599342 243.703789 
L 360.61814 241.452302 
L 360.637102 239.200814 
L 360.647498 236.949327 
L 360.641532 234.697839 
L 360.613963 232.446352 
L 360.563256 230.194865 
L 360.491991 227.943377 
L 360.406369 225.69189 
L 360.314788 223.440402 
L 360.225701 221.188915 
L 360.145118 218.937427 
L 360.074331 216.68594 
L 360.008469 214.434453 
L 359.936385 212.182965 
L 359.842109 209.931478 
L 359.707705 207.67999 
L 359.516986 205.428503 
L 359.259245 203.177015 
L 358.932049 200.925528 
L 358.542296 198.674041 
L 358.105055 196.422553 
L 357.640317 194.171066 
L 357.168337 191.919578 
L 356.704787 189.668091 
L 356.257053 187.416603 
L 355.822793 185.165116 
L 355.391179 182.913628 
L 354.946391 180.662141 
L 354.472208 178.410654 
L 353.956193 176.159166 
L 353.392145 173.907679 
L 352.780098 171.656191 
L 352.123927 169.404704 
L 351.427362 167.153216 
L 350.689659 164.901729 
L 349.902291 162.650242 
L 349.047799 160.398754 
L 348.101388 158.147267 
L 347.035063 155.895779 
L 345.823364 153.644292 
L 344.449107 151.392804 
L 342.907545 149.141317 
L 341.207866 146.88983 
L 339.372027 144.638342 
L 337.431984 142.386855 
L 335.42702 140.135367 
L 333.402543 137.88388 
L 331.4106 135.632392 
L 329.510929 133.380905 
L 327.770406 131.129418 
L 326.259004 128.87793 
L 325.04182 126.626443 
L 324.168815 124.374955 
L 323.665564 122.123468 
L 323.528553 119.87198 
L 323.727153 117.620493 
L 324.211876 115.369006 
L 324.926053 113.117518 
L 325.816905 110.866031 
L 326.842574 108.614543 
L 327.973804 106.363056 
L 329.191409 104.111568 
L 330.482315 101.860081 
L 331.836995 99.608594 
L 333.249639 97.357106 
L 334.720346 95.105619 
L 336.257099 92.854131 
L 337.875074 90.602644 
L 339.592075 88.351156 
L 341.420836 86.099669 
L 343.36063 83.848182 
L 345.391231 81.596694 
L 347.47157 79.345207 
L 349.543786 77.093719 
L 351.54154 74.842232 
L 353.400226 72.590744 
L 368.615599 72.590744 
L 368.615599 72.590744 
L 370.474285 74.842232 
L 372.472039 77.093719 
L 374.544255 79.345207 
L 376.624594 81.596694 
L 378.655195 83.848182 
L 380.59499 86.099669 
L 382.423751 88.351156 
L 384.140751 90.602644 
L 385.758726 92.854131 
L 387.295479 95.105619 
L 388.766186 97.357106 
L 390.17883 99.608594 
L 391.533511 101.860081 
L 392.824417 104.111568 
L 394.042021 106.363056 
L 395.173251 108.614543 
L 396.19892 110.866031 
L 397.089772 113.117518 
L 397.80395 115.369006 
L 398.288673 117.620493 
L 398.487273 119.87198 
L 398.350261 122.123468 
L 397.84701 124.374955 
L 396.974006 126.626443 
L 395.756822 128.87793 
L 394.24542 131.129418 
L 392.504896 133.380905 
L 390.605225 135.632392 
L 388.613283 137.88388 
L 386.588806 140.135367 
L 384.583842 142.386855 
L 382.643798 144.638342 
L 380.807959 146.88983 
L 379.108281 149.141317 
L 377.566718 151.392804 
L 376.192461 153.644292 
L 374.980762 155.895779 
L 373.914438 158.147267 
L 372.968026 160.398754 
L 372.113535 162.650242 
L 371.326166 164.901729 
L 370.588463 167.153216 
L 369.891899 169.404704 
L 369.235728 171.656191 
L 368.62368 173.907679 
L 368.059632 176.159166 
L 367.543617 178.410654 
L 367.069434 180.662141 
L 366.624646 182.913628 
L 366.193032 185.165116 
L 365.758772 187.416603 
L 365.311038 189.668091 
L 364.847488 191.919578 
L 364.375509 194.171066 
L 363.91077 196.422553 
L 363.473529 198.674041 
L 363.083776 200.925528 
L 362.756581 203.177015 
L 362.498839 205.428503 
L 362.30812 207.67999 
L 362.173716 209.931478 
L 362.07944 212.182965 
L 362.007356 214.434453 
L 361.941494 216.68594 
L 361.870708 218.937427 
L 361.790125 221.188915 
L 361.701038 223.440402 
L 361.609457 225.69189 
L 361.523834 227.943377 
L 361.45257 230.194865 
L 361.401862 232.446352 
L 361.374293 234.697839 
L 361.368327 236.949327 
L 361.378723 239.200814 
L 361.397685 241.452302 
L 361.416483 243.703789 
L 361.427184 245.955277 
L 361.424127 248.206764 
L 361.404823 250.458251 
L 361.370101 252.709739 
L 361.323538 254.961226 
L 361.270372 257.212714 
L 361.21626 259.464201 
L 361.166202 261.715689 
L 361.123902 263.967176 
L 361.09161 266.218663 
L 361.070376 268.470151 
L 361.060519 270.721638 
L 361.062069 272.973126 
L 361.075027 275.224613 
L 361.099313 277.476101 
L 361.134451 279.727588 
L 361.179082 281.979075 
L 361.230527 284.230563 
L 361.284597 286.48205 
L 361.335836 288.733538 
L 361.378237 290.985025 
L 361.406289 293.236513 
L 361.416104 295.488 
z
" clip-path="url(#pd30dc309a5)" style="fill: #1f77b4; fill-opacity: 0.3"/>
   </g>
   <g id="matplotlib.axis_1">
    <g id="xtick_1">
     <g id="line2d_1">
      <defs>
       <path id="md74d0c9915" d="M 0 0 
L 0 3.5 
" style="stroke: #000000; stroke-width: 0.8"/>
      </defs>
      <g>
       <use xlink:href="#md74d0c9915" x="69.668354" y="307.584" style="stroke: #000000; stroke-width: 0.8"/>
      </g>
     </g>
     <g id="text_1">
      <!-- 250 -->
      <g transform="translate(60.124604 322.182437)scale(0.1 -0.1)">
       <defs>
        <path id="DejaVuSans-32" d="M 1228 531 
L 3431 531 
L 3431 0 
L 469 0 
L 469 531 
Q 828 903 1448 1529 
Q 2069 2156 2228 2338 
Q 2531 2678 2651 2914 
Q 2772 3150 2772 3378 
Q 2772 3750 2511 3984 
Q 2250 4219 1831 4219 
Q 1534 4219 1204 4116 
Q 875 4013 500 3803 
L 500 4441 
Q 881 4594 1212 4672 
Q 1544 4750 1819 4750 
Q 2544 4750 2975 4387 
Q 3406 4025 3406 3419 
Q 3406 3131 3298 2873 
Q 3191 2616 2906 2266 
Q 2828 2175 2409 1742 
Q 1991 1309 1228 531 
z
" transform="scale(0.015625)"/>
        <path id="DejaVuSans-35" d="M 691 4666 
L 3169 4666 
L 3169 4134 
L 1269 4134 
L 1269 2991 
Q 1406 3038 1543 3061 
Q 1681 3084 1819 3084 
Q 2600 3084 3056 2656 
Q 3513 2228 3513 1497 
Q 3513 744 3044 326 
Q 2575 -91 1722 -91 
Q 1428 -91 1123 -41 
Q 819 9 494 109 
L 494 744 
Q 775 591 1075 516 
Q 1375 441 1709 441 
Q 2250 441 2565 725 
Q 2881 1009 2881 1497 
Q 2881 1984 2565 2268 
Q 2250 2553 1709 2553 
Q 1456 2553 1204 2497 
Q 953 2441 691 2322 
L 691 4666 
z
" transform="scale(0.015625)"/>
        <path id="DejaVuSans-30" d="M 2034 4250 
Q 1547 4250 1301 3770 
Q 1056 3291 1056 2328 
Q 1056 1369 1301 889 
Q 1547 409 2034 409 
Q 2525 409 2770 889 
Q 3016 1369 3016 2328 
Q 3016 3291 2770 3770 
Q 2525 4250 2034 4250 
z
M 2034 4750 
Q 2819 4750 3233 4129 
Q 3647 3509 3647 2328 
Q 3647 1150 3233 529 
Q 2819 -91 2034 -91 
Q 1250 -91 836 529 
Q 422 1150 422 2328 
Q 422 3509 836 4129 
Q 1250 4750 2034 4750 
z
" transform="scale(0.015625)"/>
       </defs>
       <use xlink:href="#DejaVuSans-32"/>
       <use xlink:href="#DejaVuSans-35" x="63.623047"/>
       <use xlink:href="#DejaVuSans-30" x="127.246094"/>
      </g>
     </g>
    </g>
    <g id="xtick_2">
     <g id="line2d_2">
      <g>
       <use xlink:href="#md74d0c9915" x="111.312087" y="307.584" style="stroke: #000000; stroke-width: 0.8"/>
      </g>
     </g>
     <g id="text_2">
      <!-- 500 -->
      <g transform="translate(101.768337 322.182437)scale(0.1 -0.1)">
       <use xlink:href="#DejaVuSans-35"/>
       <use xlink:href="#DejaVuSans-30" x="63.623047"/>
       <use xlink:href="#DejaVuSans-30" x="127.246094"/>
      </g>
     </g>
    </g>
    <g id="xtick_3">
     <g id="line2d_3">
      <g>
       <use xlink:href="#md74d0c9915" x="152.955821" y="307.584" style="stroke: #000000; stroke-width: 0.8"/>
      </g>
     </g>
     <g id="text_3">
      <!-- 750 -->
      <g transform="translate(143.412071 322.182437)scale(0.1 -0.1)">
       <defs>
        <path id="DejaVuSans-37" d="M 525 4666 
L 3525 4666 
L 3525 4397 
L 1831 0 
L 1172 0 
L 2766 4134 
L 525 4134 
L 525 4666 
z
" transform="scale(0.015625)"/>
       </defs>
       <use xlink:href="#DejaVuSans-37"/>
       <use xlink:href="#DejaVuSans-35" x="63.623047"/>
       <use xlink:href="#DejaVuSans-30" x="127.246094"/>
      </g>
     </g>
    </g>
    <g id="xtick_4">
     <g id="line2d_4">
      <g>
       <use xlink:href="#md74d0c9915" x="194.599554" y="307.584" style="stroke: #000000; stroke-width: 0.8"/>
      </g>
     </g>
     <g id="text_4">
      <!-- 1000 -->
      <g transform="translate(181.874554 322.182437)scale(0.1 -0.1)">
       <defs>
        <path id="DejaVuSans-31" d="M 794 531 
L 1825 531 
L 1825 4091 
L 703 3866 
L 703 4441 
L 1819 4666 
L 2450 4666 
L 2450 531 
L 3481 531 
L 3481 0 
L 794 0 
L 794 531 
z
" transform="scale(0.015625)"/>
       </defs>
       <use xlink:href="#DejaVuSans-31"/>
       <use xlink:href="#DejaVuSans-30" x="63.623047"/>
       <use xlink:href="#DejaVuSans-30" x="127.246094"/>
       <use xlink:href="#DejaVuSans-30" x="190.869141"/>
      </g>
     </g>
    </g>
    <g id="xtick_5">
     <g id="line2d_5">
      <g>
       <use xlink:href="#md74d0c9915" x="236.243287" y="307.584" style="stroke: #000000; stroke-width: 0.8"/>
      </g>
     </g>
     <g id="text_5">
      <!-- 1250 -->
      <g transform="translate(223.518287 322.182437)scale(0.1 -0.1)">
       <use xlink:href="#DejaVuSans-31"/>
       <use xlink:href="#DejaVuSans-32" x="63.623047"/>
       <use xlink:href="#DejaVuSans-35" x="127.246094"/>
       <use xlink:href="#DejaVuSans-30" x="190.869141"/>
      </g>
     </g>
    </g>
    <g id="xtick_6">
     <g id="line2d_6">
      <g>
       <use xlink:href="#md74d0c9915" x="277.887021" y="307.584" style="stroke: #000000; stroke-width: 0.8"/>
      </g>
     </g>
     <g id="text_6">
      <!-- 1500 -->
      <g transform="translate(265.162021 322.182437)scale(0.1 -0.1)">
       <use xlink:href="#DejaVuSans-31"/>
       <use xlink:href="#DejaVuSans-35" x="63.623047"/>
       <use xlink:href="#DejaVuSans-30" x="127.246094"/>
       <use xlink:href="#DejaVuSans-30" x="190.869141"/>
      </g>
     </g>
    </g>
    <g id="xtick_7">
     <g id="line2d_7">
      <g>
       <use xlink:href="#md74d0c9915" x="319.530754" y="307.584" style="stroke: #000000; stroke-width: 0.8"/>
      </g>
     </g>
     <g id="text_7">
      <!-- 1750 -->
      <g transform="translate(306.805754 322.182437)scale(0.1 -0.1)">
       <use xlink:href="#DejaVuSans-31"/>
       <use xlink:href="#DejaVuSans-37" x="63.623047"/>
       <use xlink:href="#DejaVuSans-35" x="127.246094"/>
       <use xlink:href="#DejaVuSans-30" x="190.869141"/>
      </g>
     </g>
    </g>
    <g id="xtick_8">
     <g id="line2d_8">
      <g>
       <use xlink:href="#md74d0c9915" x="361.174488" y="307.584" style="stroke: #000000; stroke-width: 0.8"/>
      </g>
     </g>
     <g id="text_8">
      <!-- 2000 -->
      <g transform="translate(348.449488 322.182437)scale(0.1 -0.1)">
       <use xlink:href="#DejaVuSans-32"/>
       <use xlink:href="#DejaVuSans-30" x="63.623047"/>
       <use xlink:href="#DejaVuSans-30" x="127.246094"/>
       <use xlink:href="#DejaVuSans-30" x="190.869141"/>
      </g>
     </g>
    </g>
    <g id="xtick_9">
     <g id="line2d_9">
      <g>
       <use xlink:href="#md74d0c9915" x="402.818221" y="307.584" style="stroke: #000000; stroke-width: 0.8"/>
      </g>
     </g>
     <g id="text_9">
      <!-- 2250 -->
      <g transform="translate(390.093221 322.182437)scale(0.1 -0.1)">
       <use xlink:href="#DejaVuSans-32"/>
       <use xlink:href="#DejaVuSans-32" x="63.623047"/>
       <use xlink:href="#DejaVuSans-35" x="127.246094"/>
       <use xlink:href="#DejaVuSans-30" x="190.869141"/>
      </g>
     </g>
    </g>
    <g id="text_10">
     <!-- Learned Episodes -->
     <g transform="translate(192.102187 335.860562)scale(0.1 -0.1)">
      <defs>
       <path id="DejaVuSans-4c" d="M 628 4666 
L 1259 4666 
L 1259 531 
L 3531 531 
L 3531 0 
L 628 0 
L 628 4666 
z
" transform="scale(0.015625)"/>
       <path id="DejaVuSans-65" d="M 3597 1894 
L 3597 1613 
L 953 1613 
Q 991 1019 1311 708 
Q 1631 397 2203 397 
Q 2534 397 2845 478 
Q 3156 559 3463 722 
L 3463 178 
Q 3153 47 2828 -22 
Q 2503 -91 2169 -91 
Q 1331 -91 842 396 
Q 353 884 353 1716 
Q 353 2575 817 3079 
Q 1281 3584 2069 3584 
Q 2775 3584 3186 3129 
Q 3597 2675 3597 1894 
z
M 3022 2063 
Q 3016 2534 2758 2815 
Q 2500 3097 2075 3097 
Q 1594 3097 1305 2825 
Q 1016 2553 972 2059 
L 3022 2063 
z
" transform="scale(0.015625)"/>
       <path id="DejaVuSans-61" d="M 2194 1759 
Q 1497 1759 1228 1600 
Q 959 1441 959 1056 
Q 959 750 1161 570 
Q 1363 391 1709 391 
Q 2188 391 2477 730 
Q 2766 1069 2766 1631 
L 2766 1759 
L 2194 1759 
z
M 3341 1997 
L 3341 0 
L 2766 0 
L 2766 531 
Q 2569 213 2275 61 
Q 1981 -91 1556 -91 
Q 1019 -91 701 211 
Q 384 513 384 1019 
Q 384 1609 779 1909 
Q 1175 2209 1959 2209 
L 2766 2209 
L 2766 2266 
Q 2766 2663 2505 2880 
Q 2244 3097 1772 3097 
Q 1472 3097 1187 3025 
Q 903 2953 641 2809 
L 641 3341 
Q 956 3463 1253 3523 
Q 1550 3584 1831 3584 
Q 2591 3584 2966 3190 
Q 3341 2797 3341 1997 
z
" transform="scale(0.015625)"/>
       <path id="DejaVuSans-72" d="M 2631 2963 
Q 2534 3019 2420 3045 
Q 2306 3072 2169 3072 
Q 1681 3072 1420 2755 
Q 1159 2438 1159 1844 
L 1159 0 
L 581 0 
L 581 3500 
L 1159 3500 
L 1159 2956 
Q 1341 3275 1631 3429 
Q 1922 3584 2338 3584 
Q 2397 3584 2469 3576 
Q 2541 3569 2628 3553 
L 2631 2963 
z
" transform="scale(0.015625)"/>
       <path id="DejaVuSans-6e" d="M 3513 2113 
L 3513 0 
L 2938 0 
L 2938 2094 
Q 2938 2591 2744 2837 
Q 2550 3084 2163 3084 
Q 1697 3084 1428 2787 
Q 1159 2491 1159 1978 
L 1159 0 
L 581 0 
L 581 3500 
L 1159 3500 
L 1159 2956 
Q 1366 3272 1645 3428 
Q 1925 3584 2291 3584 
Q 2894 3584 3203 3211 
Q 3513 2838 3513 2113 
z
" transform="scale(0.015625)"/>
       <path id="DejaVuSans-64" d="M 2906 2969 
L 2906 4863 
L 3481 4863 
L 3481 0 
L 2906 0 
L 2906 525 
Q 2725 213 2448 61 
Q 2172 -91 1784 -91 
Q 1150 -91 751 415 
Q 353 922 353 1747 
Q 353 2572 751 3078 
Q 1150 3584 1784 3584 
Q 2172 3584 2448 3432 
Q 2725 3281 2906 2969 
z
M 947 1747 
Q 947 1113 1208 752 
Q 1469 391 1925 391 
Q 2381 391 2643 752 
Q 2906 1113 2906 1747 
Q 2906 2381 2643 2742 
Q 2381 3103 1925 3103 
Q 1469 3103 1208 2742 
Q 947 2381 947 1747 
z
" transform="scale(0.015625)"/>
       <path id="DejaVuSans-20" transform="scale(0.015625)"/>
       <path id="DejaVuSans-45" d="M 628 4666 
L 3578 4666 
L 3578 4134 
L 1259 4134 
L 1259 2753 
L 3481 2753 
L 3481 2222 
L 1259 2222 
L 1259 531 
L 3634 531 
L 3634 0 
L 628 0 
L 628 4666 
z
" transform="scale(0.015625)"/>
       <path id="DejaVuSans-70" d="M 1159 525 
L 1159 -1331 
L 581 -1331 
L 581 3500 
L 1159 3500 
L 1159 2969 
Q 1341 3281 1617 3432 
Q 1894 3584 2278 3584 
Q 2916 3584 3314 3078 
Q 3713 2572 3713 1747 
Q 3713 922 3314 415 
Q 2916 -91 2278 -91 
Q 1894 -91 1617 61 
Q 1341 213 1159 525 
z
M 3116 1747 
Q 3116 2381 2855 2742 
Q 2594 3103 2138 3103 
Q 1681 3103 1420 2742 
Q 1159 2381 1159 1747 
Q 1159 1113 1420 752 
Q 1681 391 2138 391 
Q 2594 391 2855 752 
Q 3116 1113 3116 1747 
z
" transform="scale(0.015625)"/>
       <path id="DejaVuSans-69" d="M 603 3500 
L 1178 3500 
L 1178 0 
L 603 0 
L 603 3500 
z
M 603 4863 
L 1178 4863 
L 1178 4134 
L 603 4134 
L 603 4863 
z
" transform="scale(0.015625)"/>
       <path id="DejaVuSans-73" d="M 2834 3397 
L 2834 2853 
Q 2591 2978 2328 3040 
Q 2066 3103 1784 3103 
Q 1356 3103 1142 2972 
Q 928 2841 928 2578 
Q 928 2378 1081 2264 
Q 1234 2150 1697 2047 
L 1894 2003 
Q 2506 1872 2764 1633 
Q 3022 1394 3022 966 
Q 3022 478 2636 193 
Q 2250 -91 1575 -91 
Q 1294 -91 989 -36 
Q 684 19 347 128 
L 347 722 
Q 666 556 975 473 
Q 1284 391 1588 391 
Q 1994 391 2212 530 
Q 2431 669 2431 922 
Q 2431 1156 2273 1281 
Q 2116 1406 1581 1522 
L 1381 1569 
Q 847 1681 609 1914 
Q 372 2147 372 2553 
Q 372 3047 722 3315 
Q 1072 3584 1716 3584 
Q 2034 3584 2315 3537 
Q 2597 3491 2834 3397 
z
" transform="scale(0.015625)"/>
       <path id="DejaVuSans-6f" d="M 1959 3097 
Q 1497 3097 1228 2736 
Q 959 2375 959 1747 
Q 959 1119 1226 758 
Q 1494 397 1959 397 
Q 2419 397 2687 759 
Q 2956 1122 2956 1747 
Q 2956 2369 2687 2733 
Q 2419 3097 1959 3097 
z
M 1959 3584 
Q 2709 3584 3137 3096 
Q 3566 2609 3566 1747 
Q 3566 888 3137 398 
Q 2709 -91 1959 -91 
Q 1206 -91 779 398 
Q 353 888 353 1747 
Q 353 2609 779 3096 
Q 1206 3584 1959 3584 
z
" transform="scale(0.015625)"/>
      </defs>
      <use xlink:href="#DejaVuSans-4c"/>
      <use xlink:href="#DejaVuSans-65" x="53.962891"/>
      <use xlink:href="#DejaVuSans-61" x="115.486328"/>
      <use xlink:href="#DejaVuSans-72" x="176.765625"/>
      <use xlink:href="#DejaVuSans-6e" x="216.128906"/>
      <use xlink:href="#DejaVuSans-65" x="279.507812"/>
      <use xlink:href="#DejaVuSans-64" x="341.03125"/>
      <use xlink:href="#DejaVuSans-20" x="404.507812"/>
      <use xlink:href="#DejaVuSans-45" x="436.294922"/>
      <use xlink:href="#DejaVuSans-70" x="499.478516"/>
      <use xlink:href="#DejaVuSans-69" x="562.955078"/>
      <use xlink:href="#DejaVuSans-73" x="590.738281"/>
      <use xlink:href="#DejaVuSans-6f" x="642.837891"/>
      <use xlink:href="#DejaVuSans-64" x="704.019531"/>
      <use xlink:href="#DejaVuSans-65" x="767.496094"/>
      <use xlink:href="#DejaVuSans-73" x="829.019531"/>
     </g>
    </g>
   </g>
   <g id="matplotlib.axis_2">
    <g id="ytick_1">
     <g id="line2d_10">
      <defs>
       <path id="m94a4ab97f5" d="M 0 0 
L -3.5 0 
" style="stroke: #000000; stroke-width: 0.8"/>
      </defs>
      <g>
       <use xlink:href="#m94a4ab97f5" x="57.6" y="290.27173" style="stroke: #000000; stroke-width: 0.8"/>
      </g>
     </g>
     <g id="text_11">
      <!-- −120 -->
      <g transform="translate(23.132812 294.070948)scale(0.1 -0.1)">
       <defs>
        <path id="DejaVuSans-2212" d="M 678 2272 
L 4684 2272 
L 4684 1741 
L 678 1741 
L 678 2272 
z
" transform="scale(0.015625)"/>
       </defs>
       <use xlink:href="#DejaVuSans-2212"/>
       <use xlink:href="#DejaVuSans-31" x="83.789062"/>
       <use xlink:href="#DejaVuSans-32" x="147.412109"/>
       <use xlink:href="#DejaVuSans-30" x="211.035156"/>
      </g>
     </g>
    </g>
    <g id="ytick_2">
     <g id="line2d_11">
      <g>
       <use xlink:href="#m94a4ab97f5" x="57.6" y="247.171056" style="stroke: #000000; stroke-width: 0.8"/>
      </g>
     </g>
     <g id="text_12">
      <!-- −100 -->
      <g transform="translate(23.132812 250.970274)scale(0.1 -0.1)">
       <use xlink:href="#DejaVuSans-2212"/>
       <use xlink:href="#DejaVuSans-31" x="83.789062"/>
       <use xlink:href="#DejaVuSans-30" x="147.412109"/>
       <use xlink:href="#DejaVuSans-30" x="211.035156"/>
      </g>
     </g>
    </g>
    <g id="ytick_3">
     <g id="line2d_12">
      <g>
       <use xlink:href="#m94a4ab97f5" x="57.6" y="204.070382" style="stroke: #000000; stroke-width: 0.8"/>
      </g>
     </g>
     <g id="text_13">
      <!-- −80 -->
      <g transform="translate(29.495313 207.8696)scale(0.1 -0.1)">
       <defs>
        <path id="DejaVuSans-38" d="M 2034 2216 
Q 1584 2216 1326 1975 
Q 1069 1734 1069 1313 
Q 1069 891 1326 650 
Q 1584 409 2034 409 
Q 2484 409 2743 651 
Q 3003 894 3003 1313 
Q 3003 1734 2745 1975 
Q 2488 2216 2034 2216 
z
M 1403 2484 
Q 997 2584 770 2862 
Q 544 3141 544 3541 
Q 544 4100 942 4425 
Q 1341 4750 2034 4750 
Q 2731 4750 3128 4425 
Q 3525 4100 3525 3541 
Q 3525 3141 3298 2862 
Q 3072 2584 2669 2484 
Q 3125 2378 3379 2068 
Q 3634 1759 3634 1313 
Q 3634 634 3220 271 
Q 2806 -91 2034 -91 
Q 1263 -91 848 271 
Q 434 634 434 1313 
Q 434 1759 690 2068 
Q 947 2378 1403 2484 
z
M 1172 3481 
Q 1172 3119 1398 2916 
Q 1625 2713 2034 2713 
Q 2441 2713 2670 2916 
Q 2900 3119 2900 3481 
Q 2900 3844 2670 4047 
Q 2441 4250 2034 4250 
Q 1625 4250 1398 4047 
Q 1172 3844 1172 3481 
z
" transform="scale(0.015625)"/>
       </defs>
       <use xlink:href="#DejaVuSans-2212"/>
       <use xlink:href="#DejaVuSans-38" x="83.789062"/>
       <use xlink:href="#DejaVuSans-30" x="147.412109"/>
      </g>
     </g>
    </g>
    <g id="ytick_4">
     <g id="line2d_13">
      <g>
       <use xlink:href="#m94a4ab97f5" x="57.6" y="160.969708" style="stroke: #000000; stroke-width: 0.8"/>
      </g>
     </g>
     <g id="text_14">
      <!-- −60 -->
      <g transform="translate(29.495313 164.768926)scale(0.1 -0.1)">
       <defs>
        <path id="DejaVuSans-36" d="M 2113 2584 
Q 1688 2584 1439 2293 
Q 1191 2003 1191 1497 
Q 1191 994 1439 701 
Q 1688 409 2113 409 
Q 2538 409 2786 701 
Q 3034 994 3034 1497 
Q 3034 2003 2786 2293 
Q 2538 2584 2113 2584 
z
M 3366 4563 
L 3366 3988 
Q 3128 4100 2886 4159 
Q 2644 4219 2406 4219 
Q 1781 4219 1451 3797 
Q 1122 3375 1075 2522 
Q 1259 2794 1537 2939 
Q 1816 3084 2150 3084 
Q 2853 3084 3261 2657 
Q 3669 2231 3669 1497 
Q 3669 778 3244 343 
Q 2819 -91 2113 -91 
Q 1303 -91 875 529 
Q 447 1150 447 2328 
Q 447 3434 972 4092 
Q 1497 4750 2381 4750 
Q 2619 4750 2861 4703 
Q 3103 4656 3366 4563 
z
" transform="scale(0.015625)"/>
       </defs>
       <use xlink:href="#DejaVuSans-2212"/>
       <use xlink:href="#DejaVuSans-36" x="83.789062"/>
       <use xlink:href="#DejaVuSans-30" x="147.412109"/>
      </g>
     </g>
    </g>
    <g id="ytick_5">
     <g id="line2d_14">
      <g>
       <use xlink:href="#m94a4ab97f5" x="57.6" y="117.869034" style="stroke: #000000; stroke-width: 0.8"/>
      </g>
     </g>
     <g id="text_15">
      <!-- −40 -->
      <g transform="translate(29.495313 121.668252)scale(0.1 -0.1)">
       <defs>
        <path id="DejaVuSans-34" d="M 2419 4116 
L 825 1625 
L 2419 1625 
L 2419 4116 
z
M 2253 4666 
L 3047 4666 
L 3047 1625 
L 3713 1625 
L 3713 1100 
L 3047 1100 
L 3047 0 
L 2419 0 
L 2419 1100 
L 313 1100 
L 313 1709 
L 2253 4666 
z
" transform="scale(0.015625)"/>
       </defs>
       <use xlink:href="#DejaVuSans-2212"/>
       <use xlink:href="#DejaVuSans-34" x="83.789062"/>
       <use xlink:href="#DejaVuSans-30" x="147.412109"/>
      </g>
     </g>
    </g>
    <g id="ytick_6">
     <g id="line2d_15">
      <g>
       <use xlink:href="#m94a4ab97f5" x="57.6" y="74.76836" style="stroke: #000000; stroke-width: 0.8"/>
      </g>
     </g>
     <g id="text_16">
      <!-- −20 -->
      <g transform="translate(29.495313 78.567578)scale(0.1 -0.1)">
       <use xlink:href="#DejaVuSans-2212"/>
       <use xlink:href="#DejaVuSans-32" x="83.789062"/>
       <use xlink:href="#DejaVuSans-30" x="147.412109"/>
      </g>
     </g>
    </g>
    <g id="text_17">
     <!-- Reward Density -->
     <g transform="translate(17.053125 213.74675)rotate(-90)scale(0.1 -0.1)">
      <defs>
       <path id="DejaVuSans-52" d="M 2841 2188 
Q 3044 2119 3236 1894 
Q 3428 1669 3622 1275 
L 4263 0 
L 3584 0 
L 2988 1197 
Q 2756 1666 2539 1819 
Q 2322 1972 1947 1972 
L 1259 1972 
L 1259 0 
L 628 0 
L 628 4666 
L 2053 4666 
Q 2853 4666 3247 4331 
Q 3641 3997 3641 3322 
Q 3641 2881 3436 2590 
Q 3231 2300 2841 2188 
z
M 1259 4147 
L 1259 2491 
L 2053 2491 
Q 2509 2491 2742 2702 
Q 2975 2913 2975 3322 
Q 2975 3731 2742 3939 
Q 2509 4147 2053 4147 
L 1259 4147 
z
" transform="scale(0.015625)"/>
       <path id="DejaVuSans-77" d="M 269 3500 
L 844 3500 
L 1563 769 
L 2278 3500 
L 2956 3500 
L 3675 769 
L 4391 3500 
L 4966 3500 
L 4050 0 
L 3372 0 
L 2619 2869 
L 1863 0 
L 1184 0 
L 269 3500 
z
" transform="scale(0.015625)"/>
       <path id="DejaVuSans-44" d="M 1259 4147 
L 1259 519 
L 2022 519 
Q 2988 519 3436 956 
Q 3884 1394 3884 2338 
Q 3884 3275 3436 3711 
Q 2988 4147 2022 4147 
L 1259 4147 
z
M 628 4666 
L 1925 4666 
Q 3281 4666 3915 4102 
Q 4550 3538 4550 2338 
Q 4550 1131 3912 565 
Q 3275 0 1925 0 
L 628 0 
L 628 4666 
z
" transform="scale(0.015625)"/>
       <path id="DejaVuSans-74" d="M 1172 4494 
L 1172 3500 
L 2356 3500 
L 2356 3053 
L 1172 3053 
L 1172 1153 
Q 1172 725 1289 603 
Q 1406 481 1766 481 
L 2356 481 
L 2356 0 
L 1766 0 
Q 1100 0 847 248 
Q 594 497 594 1153 
L 594 3053 
L 172 3053 
L 172 3500 
L 594 3500 
L 594 4494 
L 1172 4494 
z
" transform="scale(0.015625)"/>
       <path id="DejaVuSans-79" d="M 2059 -325 
Q 1816 -950 1584 -1140 
Q 1353 -1331 966 -1331 
L 506 -1331 
L 506 -850 
L 844 -850 
Q 1081 -850 1212 -737 
Q 1344 -625 1503 -206 
L 1606 56 
L 191 3500 
L 800 3500 
L 1894 763 
L 2988 3500 
L 3597 3500 
L 2059 -325 
z
" transform="scale(0.015625)"/>
      </defs>
      <use xlink:href="#DejaVuSans-52"/>
      <use xlink:href="#DejaVuSans-65" x="64.982422"/>
      <use xlink:href="#DejaVuSans-77" x="126.505859"/>
      <use xlink:href="#DejaVuSans-61" x="208.292969"/>
      <use xlink:href="#DejaVuSans-72" x="269.572266"/>
      <use xlink:href="#DejaVuSans-64" x="308.935547"/>
      <use xlink:href="#DejaVuSans-20" x="372.412109"/>
      <use xlink:href="#DejaVuSans-44" x="404.199219"/>
      <use xlink:href="#DejaVuSans-65" x="481.201172"/>
      <use xlink:href="#DejaVuSans-6e" x="542.724609"/>
      <use xlink:href="#DejaVuSans-73" x="606.103516"/>
      <use xlink:href="#DejaVuSans-69" x="658.203125"/>
      <use xlink:href="#DejaVuSans-74" x="685.986328"/>
      <use xlink:href="#DejaVuSans-79" x="725.195312"/>
     </g>
    </g>
   </g>
   <g id="LineCollection_1">
    <path d="M 92.572407 117.254472 
L 130.051767 117.254472 
" clip-path="url(#pd30dc309a5)" style="fill: none; stroke: #1f77b4; stroke-width: 1.5"/>
    <path d="M 175.859874 90.014125 
L 213.339234 90.014125 
" clip-path="url(#pd30dc309a5)" style="fill: none; stroke: #1f77b4; stroke-width: 1.5"/>
    <path d="M 259.147341 111.700642 
L 296.626701 111.700642 
" clip-path="url(#pd30dc309a5)" style="fill: none; stroke: #1f77b4; stroke-width: 1.5"/>
    <path d="M 342.268233 124.373402 
L 379.747593 124.373402 
" clip-path="url(#pd30dc309a5)" style="fill: none; stroke: #1f77b4; stroke-width: 1.5"/>
   </g>
   <g id="LineCollection_2">
    <path d="M 92.572407 53.568 
L 130.051767 53.568 
" clip-path="url(#pd30dc309a5)" style="fill: none; stroke: #1f77b4; stroke-width: 1.5"/>
    <path d="M 175.859874 58.635877 
L 213.339234 58.635877 
" clip-path="url(#pd30dc309a5)" style="fill: none; stroke: #1f77b4; stroke-width: 1.5"/>
    <path d="M 259.147341 65.932617 
L 296.626701 65.932617 
" clip-path="url(#pd30dc309a5)" style="fill: none; stroke: #1f77b4; stroke-width: 1.5"/>
    <path d="M 342.268233 72.590744 
L 379.747593 72.590744 
" clip-path="url(#pd30dc309a5)" style="fill: none; stroke: #1f77b4; stroke-width: 1.5"/>
   </g>
   <g id="LineCollection_3">
    <path d="M 92.572407 225.229066 
L 130.051767 225.229066 
" clip-path="url(#pd30dc309a5)" style="fill: none; stroke: #1f77b4; stroke-width: 1.5"/>
    <path d="M 175.859874 183.602689 
L 213.339234 183.602689 
" clip-path="url(#pd30dc309a5)" style="fill: none; stroke: #1f77b4; stroke-width: 1.5"/>
    <path d="M 259.147341 193.827265 
L 296.626701 193.827265 
" clip-path="url(#pd30dc309a5)" style="fill: none; stroke: #1f77b4; stroke-width: 1.5"/>
    <path d="M 342.268233 295.488 
L 379.747593 295.488 
" clip-path="url(#pd30dc309a5)" style="fill: none; stroke: #1f77b4; stroke-width: 1.5"/>
   </g>
   <g id="LineCollection_4">
    <path d="M 111.312087 225.229066 
L 111.312087 53.568 
" clip-path="url(#pd30dc309a5)" style="fill: none; stroke: #1f77b4; stroke-width: 1.5"/>
    <path d="M 194.599554 183.602689 
L 194.599554 58.635877 
" clip-path="url(#pd30dc309a5)" style="fill: none; stroke: #1f77b4; stroke-width: 1.5"/>
    <path d="M 277.887021 193.827265 
L 277.887021 65.932617 
" clip-path="url(#pd30dc309a5)" style="fill: none; stroke: #1f77b4; stroke-width: 1.5"/>
    <path d="M 361.007913 295.488 
L 361.007913 72.590744 
" clip-path="url(#pd30dc309a5)" style="fill: none; stroke: #1f77b4; stroke-width: 1.5"/>
   </g>
   <g id="line2d_16">
    <path d="M 111.312087 117.254472 
L 194.599554 90.014125 
L 277.887021 111.700642 
L 361.007913 124.373402 
" clip-path="url(#pd30dc309a5)" style="fill: none; stroke: #4682b4; stroke-width: 1.5; stroke-linecap: square"/>
   </g>
   <g id="patch_3">
    <path d="M 57.6 307.584 
L 57.6 41.472 
" style="fill: none; stroke: #000000; stroke-width: 0.8; stroke-linejoin: miter; stroke-linecap: square"/>
   </g>
   <g id="patch_4">
    <path d="M 414.72 307.584 
L 414.72 41.472 
" style="fill: none; stroke: #000000; stroke-width: 0.8; stroke-linejoin: miter; stroke-linecap: square"/>
   </g>
   <g id="patch_5">
    <path d="M 57.6 307.584 
L 414.72 307.584 
" style="fill: none; stroke: #000000; stroke-width: 0.8; stroke-linejoin: miter; stroke-linecap: square"/>
   </g>
   <g id="patch_6">
    <path d="M 57.6 41.472 
L 414.72 41.472 
" style="fill: none; stroke: #000000; stroke-width: 0.8; stroke-linejoin: miter; stroke-linecap: square"/>
   </g>
   <g id="text_18">
    <!-- Violinplot for progress of profits/rebuy_cost -->
    <g transform="translate(106.935937 35.472)scale(0.12 -0.12)">
     <defs>
      <path id="DejaVuSans-56" d="M 1831 0 
L 50 4666 
L 709 4666 
L 2188 738 
L 3669 4666 
L 4325 4666 
L 2547 0 
L 1831 0 
z
" transform="scale(0.015625)"/>
      <path id="DejaVuSans-6c" d="M 603 4863 
L 1178 4863 
L 1178 0 
L 603 0 
L 603 4863 
z
" transform="scale(0.015625)"/>
      <path id="DejaVuSans-66" d="M 2375 4863 
L 2375 4384 
L 1825 4384 
Q 1516 4384 1395 4259 
Q 1275 4134 1275 3809 
L 1275 3500 
L 2222 3500 
L 2222 3053 
L 1275 3053 
L 1275 0 
L 697 0 
L 697 3053 
L 147 3053 
L 147 3500 
L 697 3500 
L 697 3744 
Q 697 4328 969 4595 
Q 1241 4863 1831 4863 
L 2375 4863 
z
" transform="scale(0.015625)"/>
      <path id="DejaVuSans-67" d="M 2906 1791 
Q 2906 2416 2648 2759 
Q 2391 3103 1925 3103 
Q 1463 3103 1205 2759 
Q 947 2416 947 1791 
Q 947 1169 1205 825 
Q 1463 481 1925 481 
Q 2391 481 2648 825 
Q 2906 1169 2906 1791 
z
M 3481 434 
Q 3481 -459 3084 -895 
Q 2688 -1331 1869 -1331 
Q 1566 -1331 1297 -1286 
Q 1028 -1241 775 -1147 
L 775 -588 
Q 1028 -725 1275 -790 
Q 1522 -856 1778 -856 
Q 2344 -856 2625 -561 
Q 2906 -266 2906 331 
L 2906 616 
Q 2728 306 2450 153 
Q 2172 0 1784 0 
Q 1141 0 747 490 
Q 353 981 353 1791 
Q 353 2603 747 3093 
Q 1141 3584 1784 3584 
Q 2172 3584 2450 3431 
Q 2728 3278 2906 2969 
L 2906 3500 
L 3481 3500 
L 3481 434 
z
" transform="scale(0.015625)"/>
      <path id="DejaVuSans-2f" d="M 1625 4666 
L 2156 4666 
L 531 -594 
L 0 -594 
L 1625 4666 
z
" transform="scale(0.015625)"/>
      <path id="DejaVuSans-62" d="M 3116 1747 
Q 3116 2381 2855 2742 
Q 2594 3103 2138 3103 
Q 1681 3103 1420 2742 
Q 1159 2381 1159 1747 
Q 1159 1113 1420 752 
Q 1681 391 2138 391 
Q 2594 391 2855 752 
Q 3116 1113 3116 1747 
z
M 1159 2969 
Q 1341 3281 1617 3432 
Q 1894 3584 2278 3584 
Q 2916 3584 3314 3078 
Q 3713 2572 3713 1747 
Q 3713 922 3314 415 
Q 2916 -91 2278 -91 
Q 1894 -91 1617 61 
Q 1341 213 1159 525 
L 1159 0 
L 581 0 
L 581 4863 
L 1159 4863 
L 1159 2969 
z
" transform="scale(0.015625)"/>
      <path id="DejaVuSans-75" d="M 544 1381 
L 544 3500 
L 1119 3500 
L 1119 1403 
Q 1119 906 1312 657 
Q 1506 409 1894 409 
Q 2359 409 2629 706 
Q 2900 1003 2900 1516 
L 2900 3500 
L 3475 3500 
L 3475 0 
L 2900 0 
L 2900 538 
Q 2691 219 2414 64 
Q 2138 -91 1772 -91 
Q 1169 -91 856 284 
Q 544 659 544 1381 
z
M 1991 3584 
L 1991 3584 
z
" transform="scale(0.015625)"/>
      <path id="DejaVuSans-5f" d="M 3263 -1063 
L 3263 -1509 
L -63 -1509 
L -63 -1063 
L 3263 -1063 
z
" transform="scale(0.015625)"/>
      <path id="DejaVuSans-63" d="M 3122 3366 
L 3122 2828 
Q 2878 2963 2633 3030 
Q 2388 3097 2138 3097 
Q 1578 3097 1268 2742 
Q 959 2388 959 1747 
Q 959 1106 1268 751 
Q 1578 397 2138 397 
Q 2388 397 2633 464 
Q 2878 531 3122 666 
L 3122 134 
Q 2881 22 2623 -34 
Q 2366 -91 2075 -91 
Q 1284 -91 818 406 
Q 353 903 353 1747 
Q 353 2603 823 3093 
Q 1294 3584 2113 3584 
Q 2378 3584 2631 3529 
Q 2884 3475 3122 3366 
z
" transform="scale(0.015625)"/>
     </defs>
     <use xlink:href="#DejaVuSans-56"/>
     <use xlink:href="#DejaVuSans-69" x="66.158203"/>
     <use xlink:href="#DejaVuSans-6f" x="93.941406"/>
     <use xlink:href="#DejaVuSans-6c" x="155.123047"/>
     <use xlink:href="#DejaVuSans-69" x="182.90625"/>
     <use xlink:href="#DejaVuSans-6e" x="210.689453"/>
     <use xlink:href="#DejaVuSans-70" x="274.068359"/>
     <use xlink:href="#DejaVuSans-6c" x="337.544922"/>
     <use xlink:href="#DejaVuSans-6f" x="365.328125"/>
     <use xlink:href="#DejaVuSans-74" x="426.509766"/>
     <use xlink:href="#DejaVuSans-20" x="465.71875"/>
     <use xlink:href="#DejaVuSans-66" x="497.505859"/>
     <use xlink:href="#DejaVuSans-6f" x="532.710938"/>
     <use xlink:href="#DejaVuSans-72" x="593.892578"/>
     <use xlink:href="#DejaVuSans-20" x="635.005859"/>
     <use xlink:href="#DejaVuSans-70" x="666.792969"/>
     <use xlink:href="#DejaVuSans-72" x="730.269531"/>
     <use xlink:href="#DejaVuSans-6f" x="769.132812"/>
     <use xlink:href="#DejaVuSans-67" x="830.314453"/>
     <use xlink:href="#DejaVuSans-72" x="893.791016"/>
     <use xlink:href="#DejaVuSans-65" x="932.654297"/>
     <use xlink:href="#DejaVuSans-73" x="994.177734"/>
     <use xlink:href="#DejaVuSans-73" x="1046.277344"/>
     <use xlink:href="#DejaVuSans-20" x="1098.376953"/>
     <use xlink:href="#DejaVuSans-6f" x="1130.164062"/>
     <use xlink:href="#DejaVuSans-66" x="1191.345703"/>
     <use xlink:href="#DejaVuSans-20" x="1226.550781"/>
     <use xlink:href="#DejaVuSans-70" x="1258.337891"/>
     <use xlink:href="#DejaVuSans-72" x="1321.814453"/>
     <use xlink:href="#DejaVuSans-6f" x="1360.677734"/>
     <use xlink:href="#DejaVuSans-66" x="1421.859375"/>
     <use xlink:href="#DejaVuSans-69" x="1457.064453"/>
     <use xlink:href="#DejaVuSans-74" x="1484.847656"/>
     <use xlink:href="#DejaVuSans-73" x="1524.056641"/>
     <use xlink:href="#DejaVuSans-2f" x="1576.15625"/>
     <use xlink:href="#DejaVuSans-72" x="1609.847656"/>
     <use xlink:href="#DejaVuSans-65" x="1648.710938"/>
     <use xlink:href="#DejaVuSans-62" x="1710.234375"/>
     <use xlink:href="#DejaVuSans-75" x="1773.710938"/>
     <use xlink:href="#DejaVuSans-79" x="1837.089844"/>
     <use xlink:href="#DejaVuSans-5f" x="1896.269531"/>
     <use xlink:href="#DejaVuSans-63" x="1946.269531"/>
     <use xlink:href="#DejaVuSans-6f" x="2001.25"/>
     <use xlink:href="#DejaVuSans-73" x="2062.431641"/>
     <use xlink:href="#DejaVuSans-74" x="2114.53125"/>
    </g>
   </g>
   <g id="legend_1">
    <g id="patch_7">
     <path d="M 276.25125 64.150125 
L 407.72 64.150125 
Q 409.72 64.150125 409.72 62.150125 
L 409.72 48.472 
Q 409.72 46.472 407.72 46.472 
L 276.25125 46.472 
Q 274.25125 46.472 274.25125 48.472 
L 274.25125 62.150125 
Q 274.25125 64.150125 276.25125 64.150125 
z
" style="fill: #ffffff; opacity: 0.8; stroke: #cccccc; stroke-linejoin: miter"/>
    </g>
    <g id="line2d_17">
     <path d="M 278.25125 54.570438 
L 288.25125 54.570438 
L 298.25125 54.570438 
" style="fill: none; stroke: #4682b4; stroke-width: 1.5; stroke-linecap: square"/>
    </g>
    <g id="text_19">
     <!-- StableBaselinesSAC -->
     <g transform="translate(306.25125 58.070438)scale(0.1 -0.1)">
      <defs>
       <path id="DejaVuSans-53" d="M 3425 4513 
L 3425 3897 
Q 3066 4069 2747 4153 
Q 2428 4238 2131 4238 
Q 1616 4238 1336 4038 
Q 1056 3838 1056 3469 
Q 1056 3159 1242 3001 
Q 1428 2844 1947 2747 
L 2328 2669 
Q 3034 2534 3370 2195 
Q 3706 1856 3706 1288 
Q 3706 609 3251 259 
Q 2797 -91 1919 -91 
Q 1588 -91 1214 -16 
Q 841 59 441 206 
L 441 856 
Q 825 641 1194 531 
Q 1563 422 1919 422 
Q 2459 422 2753 634 
Q 3047 847 3047 1241 
Q 3047 1584 2836 1778 
Q 2625 1972 2144 2069 
L 1759 2144 
Q 1053 2284 737 2584 
Q 422 2884 422 3419 
Q 422 4038 858 4394 
Q 1294 4750 2059 4750 
Q 2388 4750 2728 4690 
Q 3069 4631 3425 4513 
z
" transform="scale(0.015625)"/>
       <path id="DejaVuSans-42" d="M 1259 2228 
L 1259 519 
L 2272 519 
Q 2781 519 3026 730 
Q 3272 941 3272 1375 
Q 3272 1813 3026 2020 
Q 2781 2228 2272 2228 
L 1259 2228 
z
M 1259 4147 
L 1259 2741 
L 2194 2741 
Q 2656 2741 2882 2914 
Q 3109 3088 3109 3444 
Q 3109 3797 2882 3972 
Q 2656 4147 2194 4147 
L 1259 4147 
z
M 628 4666 
L 2241 4666 
Q 2963 4666 3353 4366 
Q 3744 4066 3744 3513 
Q 3744 3084 3544 2831 
Q 3344 2578 2956 2516 
Q 3422 2416 3680 2098 
Q 3938 1781 3938 1306 
Q 3938 681 3513 340 
Q 3088 0 2303 0 
L 628 0 
L 628 4666 
z
" transform="scale(0.015625)"/>
       <path id="DejaVuSans-41" d="M 2188 4044 
L 1331 1722 
L 3047 1722 
L 2188 4044 
z
M 1831 4666 
L 2547 4666 
L 4325 0 
L 3669 0 
L 3244 1197 
L 1141 1197 
L 716 0 
L 50 0 
L 1831 4666 
z
" transform="scale(0.015625)"/>
       <path id="DejaVuSans-43" d="M 4122 4306 
L 4122 3641 
Q 3803 3938 3442 4084 
Q 3081 4231 2675 4231 
Q 1875 4231 1450 3742 
Q 1025 3253 1025 2328 
Q 1025 1406 1450 917 
Q 1875 428 2675 428 
Q 3081 428 3442 575 
Q 3803 722 4122 1019 
L 4122 359 
Q 3791 134 3420 21 
Q 3050 -91 2638 -91 
Q 1578 -91 968 557 
Q 359 1206 359 2328 
Q 359 3453 968 4101 
Q 1578 4750 2638 4750 
Q 3056 4750 3426 4639 
Q 3797 4528 4122 4306 
z
" transform="scale(0.015625)"/>
      </defs>
      <use xlink:href="#DejaVuSans-53"/>
      <use xlink:href="#DejaVuSans-74" x="63.476562"/>
      <use xlink:href="#DejaVuSans-61" x="102.685547"/>
      <use xlink:href="#DejaVuSans-62" x="163.964844"/>
      <use xlink:href="#DejaVuSans-6c" x="227.441406"/>
      <use xlink:href="#DejaVuSans-65" x="255.224609"/>
      <use xlink:href="#DejaVuSans-42" x="316.748047"/>
      <use xlink:href="#DejaVuSans-61" x="385.351562"/>
      <use xlink:href="#DejaVuSans-73" x="446.630859"/>
      <use xlink:href="#DejaVuSans-65" x="498.730469"/>
      <use xlink:href="#DejaVuSans-6c" x="560.253906"/>
      <use xlink:href="#DejaVuSans-69" x="588.037109"/>
      <use xlink:href="#DejaVuSans-6e" x="615.820312"/>
      <use xlink:href="#DejaVuSans-65" x="679.199219"/>
      <use xlink:href="#DejaVuSans-73" x="740.722656"/>
      <use xlink:href="#DejaVuSans-53" x="792.822266"/>
      <use xlink:href="#DejaVuSans-41" x="858.173828"/>
      <use xlink:href="#DejaVuSans-43" x="924.832031"/>
     </g>
    </g>
   </g>
  </g>
 </g>
 <defs>
  <clipPath id="pd30dc309a5">
   <rect x="57.6" y="41.472" width="357.12" height="266.112"/>
  </clipPath>
 </defs>
</svg>
