<?xml version="1.0" encoding="utf-8" standalone="no"?>
<!DOCTYPE svg PUBLIC "-//W3C//DTD SVG 1.1//EN"
  "http://www.w3.org/Graphics/SVG/1.1/DTD/svg11.dtd">
<svg xmlns:xlink="http://www.w3.org/1999/xlink" width="460.8pt" height="345.6pt" viewBox="0 0 460.8 345.6" xmlns="http://www.w3.org/2000/svg" version="1.1">
 <metadata>
  <rdf:RDF xmlns:dc="http://purl.org/dc/elements/1.1/" xmlns:cc="http://creativecommons.org/ns#" xmlns:rdf="http://www.w3.org/1999/02/22-rdf-syntax-ns#">
   <cc:Work>
    <dc:type rdf:resource="http://purl.org/dc/dcmitype/StillImage"/>
    <dc:date>2022-06-15T18:26:49.624814</dc:date>
    <dc:format>image/svg+xml</dc:format>
    <dc:creator>
     <cc:Agent>
      <dc:title>Matplotlib v3.5.2, https://matplotlib.org/</dc:title>
     </cc:Agent>
    </dc:creator>
   </cc:Work>
  </rdf:RDF>
 </metadata>
 <defs>
  <style type="text/css">*{stroke-linejoin: round; stroke-linecap: butt}</style>
 </defs>
 <g id="figure_1">
  <g id="patch_1">
   <path d="M 0 345.6 
L 460.8 345.6 
L 460.8 0 
L 0 0 
z
" style="fill: #ffffff"/>
  </g>
  <g id="axes_1">
   <g id="patch_2">
    <path d="M 57.6 307.584 
L 414.72 307.584 
L 414.72 41.472 
L 57.6 41.472 
z
" style="fill: #ffffff"/>
   </g>
   <g id="PolyCollection_1">
    <path d="M 112.87948 272.105398 
L 109.744695 272.105398 
L 109.558334 269.897949 
L 109.361905 267.690501 
L 109.150531 265.483052 
L 108.917292 263.275604 
L 108.653545 261.068155 
L 108.349527 258.860707 
L 107.995158 256.653259 
L 107.580949 254.44581 
L 107.098911 252.238362 
L 106.543311 250.030913 
L 105.911185 247.823465 
L 105.20253 245.616016 
L 104.420159 243.408568 
L 103.569247 241.201119 
L 102.65669 238.993671 
L 101.690367 236.786222 
L 100.678488 234.578774 
L 99.629112 232.371325 
L 98.549958 230.163877 
L 97.448484 227.956429 
L 96.332232 225.74898 
L 95.209294 223.541532 
L 94.088771 221.334083 
L 92.981043 219.126635 
L 91.89773 216.919186 
L 90.851224 214.711738 
L 89.8538 212.504289 
L 88.916363 210.296841 
L 88.046996 208.089392 
L 87.249543 205.881944 
L 86.522474 203.674495 
L 85.858297 201.467047 
L 85.243707 199.259599 
L 84.660551 197.05215 
L 84.087589 194.844702 
L 83.502848 192.637253 
L 82.8863 190.429805 
L 82.222466 188.222356 
L 81.502592 186.014908 
L 80.726047 183.807459 
L 79.900757 181.600011 
L 79.042601 179.392562 
L 78.173874 177.185114 
L 77.321069 174.977665 
L 76.512325 172.770217 
L 75.774892 170.562769 
L 75.132984 168.35532 
L 74.606232 166.147872 
L 74.208897 163.940423 
L 73.949778 161.732975 
L 73.832727 159.525526 
L 73.857513 157.318078 
L 74.020827 155.110629 
L 74.317205 152.903181 
L 74.739733 150.695732 
L 75.280483 148.488284 
L 75.930719 146.280835 
L 76.680949 144.073387 
L 77.52094 141.865938 
L 78.439789 139.65849 
L 79.426076 137.451042 
L 80.468113 135.243593 
L 81.554241 133.036145 
L 82.673094 130.828696 
L 83.813801 128.621248 
L 84.966089 126.413799 
L 86.120309 124.206351 
L 87.267441 121.998902 
L 88.399132 119.791454 
L 89.507837 117.584005 
L 90.587068 115.376557 
L 91.631741 113.169108 
L 92.638541 110.96166 
L 93.606216 108.754212 
L 94.535696 106.546763 
L 95.429959 104.339315 
L 96.2936 102.131866 
L 97.132154 99.924418 
L 97.951227 97.716969 
L 98.755595 95.509521 
L 99.548395 93.302072 
L 100.330559 91.094624 
L 101.100587 88.887175 
L 101.85469 86.679727 
L 102.587298 84.472278 
L 103.291832 82.26483 
L 103.961629 80.057382 
L 104.590868 77.849933 
L 105.175358 75.642485 
L 105.713087 73.435036 
L 106.204453 71.227588 
L 106.652151 69.020139 
L 107.060777 66.812691 
L 107.436179 64.605242 
L 107.784695 62.397794 
L 108.112369 60.190345 
L 108.424269 57.982897 
L 108.723989 55.775448 
L 109.013396 53.568 
L 113.610779 53.568 
L 113.610779 53.568 
L 113.900185 55.775448 
L 114.199905 57.982897 
L 114.511806 60.190345 
L 114.83948 62.397794 
L 115.187996 64.605242 
L 115.563397 66.812691 
L 115.972023 69.020139 
L 116.419722 71.227588 
L 116.911087 73.435036 
L 117.448817 75.642485 
L 118.033307 77.849933 
L 118.662545 80.057382 
L 119.332343 82.26483 
L 120.036877 84.472278 
L 120.769485 86.679727 
L 121.523588 88.887175 
L 122.293615 91.094624 
L 123.07578 93.302072 
L 123.86858 95.509521 
L 124.672948 97.716969 
L 125.492021 99.924418 
L 126.330574 102.131866 
L 127.194216 104.339315 
L 128.088479 106.546763 
L 129.017959 108.754212 
L 129.985634 110.96166 
L 130.992433 113.169108 
L 132.037106 115.376557 
L 133.116338 117.584005 
L 134.225043 119.791454 
L 135.356734 121.998902 
L 136.503865 124.206351 
L 137.658086 126.413799 
L 138.810374 128.621248 
L 139.951081 130.828696 
L 141.069934 133.036145 
L 142.156062 135.243593 
L 143.198099 137.451042 
L 144.184385 139.65849 
L 145.103234 141.865938 
L 145.943226 144.073387 
L 146.693455 146.280835 
L 147.343691 148.488284 
L 147.884442 150.695732 
L 148.306969 152.903181 
L 148.603347 155.110629 
L 148.766661 157.318078 
L 148.791447 159.525526 
L 148.674396 161.732975 
L 148.415278 163.940423 
L 148.017942 166.147872 
L 147.491191 168.35532 
L 146.849282 170.562769 
L 146.11185 172.770217 
L 145.303106 174.977665 
L 144.450301 177.185114 
L 143.581573 179.392562 
L 142.723417 181.600011 
L 141.898128 183.807459 
L 141.121583 186.014908 
L 140.401708 188.222356 
L 139.737875 190.429805 
L 139.121327 192.637253 
L 138.536586 194.844702 
L 137.963623 197.05215 
L 137.380468 199.259599 
L 136.765877 201.467047 
L 136.101701 203.674495 
L 135.374632 205.881944 
L 134.577179 208.089392 
L 133.707812 210.296841 
L 132.770374 212.504289 
L 131.772951 214.711738 
L 130.726445 216.919186 
L 129.643132 219.126635 
L 128.535404 221.334083 
L 127.41488 223.541532 
L 126.291943 225.74898 
L 125.175691 227.956429 
L 124.074217 230.163877 
L 122.995062 232.371325 
L 121.945687 234.578774 
L 120.933807 236.786222 
L 119.967485 238.993671 
L 119.054927 241.201119 
L 118.204016 243.408568 
L 117.421644 245.616016 
L 116.71299 247.823465 
L 116.080864 250.030913 
L 115.525263 252.238362 
L 115.043225 254.44581 
L 114.629017 256.653259 
L 114.274647 258.860707 
L 113.97063 261.068155 
L 113.706883 263.275604 
L 113.473643 265.483052 
L 113.26227 267.690501 
L 113.06584 269.897949 
L 112.87948 272.105398 
z
" clip-path="url(#p29391e4a58)" style="fill: #1f77b4; fill-opacity: 0.3"/>
   </g>
   <g id="PolyCollection_2">
    <path d="M 197.508792 275.702721 
L 191.690316 275.702721 
L 191.257707 273.999443 
L 190.791752 272.296165 
L 190.291564 270.592887 
L 189.756602 268.889609 
L 189.187096 267.186331 
L 188.584361 265.483052 
L 187.950888 263.779774 
L 187.290138 262.076496 
L 186.606029 260.373218 
L 185.902178 258.66994 
L 185.181025 256.966662 
L 184.443021 255.263384 
L 183.686029 253.560105 
L 182.905065 251.856827 
L 182.092453 250.153549 
L 181.238367 248.450271 
L 180.331694 246.746993 
L 179.361118 245.043715 
L 178.316307 243.340437 
L 177.189124 241.637158 
L 175.97478 239.93388 
L 174.672877 238.230602 
L 173.288286 236.527324 
L 171.831772 234.824046 
L 170.320242 233.120768 
L 168.776511 231.41749 
L 167.228448 229.714212 
L 165.707488 228.010933 
L 164.246551 226.307655 
L 162.877569 224.604377 
L 161.628924 222.901099 
L 160.523167 221.197821 
L 159.575371 219.494543 
L 158.792398 217.791265 
L 158.173181 216.087986 
L 157.709951 214.384708 
L 157.390157 212.68143 
L 157.198715 210.978152 
L 157.120194 209.274874 
L 157.1406 207.571596 
L 157.248545 205.868318 
L 157.435739 204.16504 
L 157.69688 202.461761 
L 158.029116 200.758483 
L 158.431284 199.055205 
L 158.903116 197.351927 
L 159.444537 195.648649 
L 160.055108 193.945371 
L 160.733626 192.242093 
L 161.477837 190.538814 
L 162.284231 188.835536 
L 163.147908 187.132258 
L 164.062524 185.42898 
L 165.020343 183.725702 
L 166.012458 182.022424 
L 167.029189 180.319146 
L 168.06069 178.615868 
L 169.097699 176.912589 
L 170.132367 175.209311 
L 171.159017 173.506033 
L 172.174682 171.802755 
L 173.179273 170.099477 
L 174.175257 168.396199 
L 175.166839 166.692921 
L 176.158703 164.989642 
L 177.154543 163.286364 
L 178.155625 161.583086 
L 179.159719 159.879808 
L 180.160643 158.17653 
L 181.14857 156.473252 
L 182.111083 154.769974 
L 183.034808 153.066696 
L 183.907287 151.363417 
L 184.718752 149.660139 
L 185.46344 147.956861 
L 186.140217 146.253583 
L 186.752423 144.550305 
L 187.307029 142.847027 
L 187.813291 141.143749 
L 188.2812 139.44047 
L 188.72001 137.737192 
L 189.137071 136.033914 
L 189.537127 134.330636 
L 189.92212 132.627358 
L 190.291461 130.92408 
L 190.642666 129.220802 
L 190.972201 127.517523 
L 191.276408 125.814245 
L 191.552344 124.110967 
L 191.798451 122.407689 
L 192.014959 120.704411 
L 192.204001 119.001133 
L 192.369431 117.297855 
L 192.516396 115.594577 
L 192.650726 113.891298 
L 192.778241 112.18802 
L 192.904078 110.484742 
L 193.032135 108.781464 
L 193.1647 107.078186 
L 196.034408 107.078186 
L 196.034408 107.078186 
L 196.166973 108.781464 
L 196.29503 110.484742 
L 196.420867 112.18802 
L 196.548382 113.891298 
L 196.682712 115.594577 
L 196.829677 117.297855 
L 196.995107 119.001133 
L 197.184149 120.704411 
L 197.400658 122.407689 
L 197.646764 124.110967 
L 197.9227 125.814245 
L 198.226907 127.517523 
L 198.556442 129.220802 
L 198.907647 130.92408 
L 199.276988 132.627358 
L 199.661981 134.330636 
L 200.062037 136.033914 
L 200.479099 137.737192 
L 200.917908 139.44047 
L 201.385817 141.143749 
L 201.892079 142.847027 
L 202.446685 144.550305 
L 203.058892 146.253583 
L 203.735668 147.956861 
L 204.480357 149.660139 
L 205.291822 151.363417 
L 206.1643 153.066696 
L 207.088025 154.769974 
L 208.050539 156.473252 
L 209.038465 158.17653 
L 210.039389 159.879808 
L 211.043483 161.583086 
L 212.044565 163.286364 
L 213.040405 164.989642 
L 214.03227 166.692921 
L 215.023851 168.396199 
L 216.019835 170.099477 
L 217.024426 171.802755 
L 218.040091 173.506033 
L 219.066741 175.209311 
L 220.101409 176.912589 
L 221.138418 178.615868 
L 222.169919 180.319146 
L 223.18665 182.022424 
L 224.178765 183.725702 
L 225.136584 185.42898 
L 226.0512 187.132258 
L 226.914877 188.835536 
L 227.721271 190.538814 
L 228.465482 192.242093 
L 229.144 193.945371 
L 229.754572 195.648649 
L 230.295992 197.351927 
L 230.767825 199.055205 
L 231.169992 200.758483 
L 231.502228 202.461761 
L 231.763369 204.16504 
L 231.950563 205.868318 
L 232.058508 207.571596 
L 232.078914 209.274874 
L 232.000393 210.978152 
L 231.808951 212.68143 
L 231.489157 214.384708 
L 231.025927 216.087986 
L 230.40671 217.791265 
L 229.623737 219.494543 
L 228.675941 221.197821 
L 227.570184 222.901099 
L 226.321539 224.604377 
L 224.952557 226.307655 
L 223.49162 228.010933 
L 221.97066 229.714212 
L 220.422598 231.41749 
L 218.878866 233.120768 
L 217.367336 234.824046 
L 215.910822 236.527324 
L 214.526231 238.230602 
L 213.224328 239.93388 
L 212.009984 241.637158 
L 210.882802 243.340437 
L 209.837991 245.043715 
L 208.867414 246.746993 
L 207.960741 248.450271 
L 207.106655 250.153549 
L 206.294043 251.856827 
L 205.513079 253.560105 
L 204.756087 255.263384 
L 204.018083 256.966662 
L 203.296931 258.66994 
L 202.593079 260.373218 
L 201.908971 262.076496 
L 201.248221 263.779774 
L 200.614747 265.483052 
L 200.012012 267.186331 
L 199.442507 268.889609 
L 198.907545 270.592887 
L 198.407356 272.296165 
L 197.941402 273.999443 
L 197.508792 275.702721 
z
" clip-path="url(#p29391e4a58)" style="fill: #1f77b4; fill-opacity: 0.3"/>
   </g>
   <g id="PolyCollection_3">
    <path d="M 278.581327 287.394022 
L 277.192714 287.394022 
L 277.111917 285.563566 
L 277.019491 283.73311 
L 276.909895 281.902654 
L 276.777423 280.072197 
L 276.616833 278.241741 
L 276.423793 276.411285 
L 276.194984 274.580829 
L 275.927847 272.750372 
L 275.620035 270.919916 
L 275.26877 269.08946 
L 274.870304 267.259004 
L 274.419698 265.428547 
L 273.910979 263.598091 
L 273.337621 261.767635 
L 272.693113 259.937179 
L 271.971372 258.106723 
L 271.166737 256.276266 
L 270.273511 254.44581 
L 269.285193 252.615354 
L 268.193814 250.784898 
L 266.989887 248.954441 
L 265.663428 247.123985 
L 264.206287 245.293529 
L 262.615599 243.463073 
L 260.897749 241.632616 
L 259.071907 239.80216 
L 257.172085 237.971704 
L 255.246833 236.141248 
L 253.356173 234.310791 
L 251.565956 232.480335 
L 249.940449 230.649879 
L 248.534386 228.819423 
L 247.385845 226.988967 
L 246.511166 225.15851 
L 245.902675 223.328054 
L 245.529468 221.497598 
L 245.341017 219.667142 
L 245.272981 217.836685 
L 245.254451 216.006229 
L 245.215816 214.175773 
L 245.096502 212.345317 
L 244.851903 210.51486 
L 244.45886 208.684404 
L 243.919086 206.853948 
L 243.259983 205.023492 
L 242.532444 203.193035 
L 241.805526 201.362579 
L 241.158295 199.532123 
L 240.669683 197.701667 
L 240.407661 195.871211 
L 240.419402 194.040754 
L 240.724175 192.210298 
L 241.310383 190.379842 
L 242.137513 188.549386 
L 243.14286 186.718929 
L 244.251881 184.888473 
L 245.390292 183.058017 
L 246.495603 181.227561 
L 247.525898 179.397104 
L 248.464318 177.566648 
L 249.318624 175.736192 
L 250.116309 173.905736 
L 250.896624 172.075279 
L 251.701414 170.244823 
L 252.566746 168.414367 
L 253.516905 166.583911 
L 254.561644 164.753455 
L 255.696739 162.922998 
L 256.907178 161.092542 
L 258.171813 159.262086 
L 259.468146 157.43163 
L 260.776119 155.601173 
L 262.080193 153.770717 
L 263.369539 151.940261 
L 264.636691 150.109805 
L 265.875327 148.279348 
L 267.078024 146.448892 
L 268.2347 144.618436 
L 269.332198 142.78798 
L 270.355152 140.957523 
L 271.287873 139.127067 
L 272.116794 137.296611 
L 272.832886 135.466155 
L 273.433466 133.635699 
L 273.923019 131.805242 
L 274.312843 129.974786 
L 274.619611 128.14433 
L 274.863149 126.313874 
L 275.063862 124.483417 
L 275.240309 122.652961 
L 275.40733 120.822505 
L 275.575007 118.992049 
L 275.748526 117.161592 
L 275.928837 115.331136 
L 276.113828 113.50068 
L 276.299699 111.670224 
L 276.482207 109.839767 
L 276.657582 108.009311 
L 276.823002 106.178855 
L 278.95104 106.178855 
L 278.95104 106.178855 
L 279.11646 108.009311 
L 279.291835 109.839767 
L 279.474343 111.670224 
L 279.660213 113.50068 
L 279.845205 115.331136 
L 280.025516 117.161592 
L 280.199035 118.992049 
L 280.366711 120.822505 
L 280.533733 122.652961 
L 280.71018 124.483417 
L 280.910893 126.313874 
L 281.15443 128.14433 
L 281.461199 129.974786 
L 281.851023 131.805242 
L 282.340576 133.635699 
L 282.941156 135.466155 
L 283.657248 137.296611 
L 284.486169 139.127067 
L 285.418889 140.957523 
L 286.441844 142.78798 
L 287.539342 144.618436 
L 288.696017 146.448892 
L 289.898715 148.279348 
L 291.137351 150.109805 
L 292.404502 151.940261 
L 293.693849 153.770717 
L 294.997922 155.601173 
L 296.305896 157.43163 
L 297.602229 159.262086 
L 298.866864 161.092542 
L 300.077303 162.922998 
L 301.212397 164.753455 
L 302.257136 166.583911 
L 303.207296 168.414367 
L 304.072628 170.244823 
L 304.877418 172.075279 
L 305.657732 173.905736 
L 306.455418 175.736192 
L 307.309724 177.566648 
L 308.248143 179.397104 
L 309.278438 181.227561 
L 310.383749 183.058017 
L 311.522161 184.888473 
L 312.631182 186.718929 
L 313.636529 188.549386 
L 314.463659 190.379842 
L 315.049866 192.210298 
L 315.35464 194.040754 
L 315.366381 195.871211 
L 315.104358 197.701667 
L 314.615747 199.532123 
L 313.968516 201.362579 
L 313.241597 203.193035 
L 312.514059 205.023492 
L 311.854956 206.853948 
L 311.315182 208.684404 
L 310.922138 210.51486 
L 310.67754 212.345317 
L 310.558226 214.175773 
L 310.519591 216.006229 
L 310.50106 217.836685 
L 310.433025 219.667142 
L 310.244574 221.497598 
L 309.871367 223.328054 
L 309.262876 225.15851 
L 308.388197 226.988967 
L 307.239656 228.819423 
L 305.833593 230.649879 
L 304.208086 232.480335 
L 302.417869 234.310791 
L 300.527209 236.141248 
L 298.601957 237.971704 
L 296.702135 239.80216 
L 294.876293 241.632616 
L 293.158442 243.463073 
L 291.567754 245.293529 
L 290.110614 247.123985 
L 288.784155 248.954441 
L 287.580227 250.784898 
L 286.488849 252.615354 
L 285.500531 254.44581 
L 284.607304 256.276266 
L 283.80267 258.106723 
L 283.080928 259.937179 
L 282.436421 261.767635 
L 281.863062 263.598091 
L 281.354344 265.428547 
L 280.903738 267.259004 
L 280.505272 269.08946 
L 280.154007 270.919916 
L 279.846195 272.750372 
L 279.579057 274.580829 
L 279.350249 276.411285 
L 279.157208 278.241741 
L 278.996619 280.072197 
L 278.864146 281.902654 
L 278.754551 283.73311 
L 278.662125 285.563566 
L 278.581327 287.394022 
z
" clip-path="url(#p29391e4a58)" style="fill: #1f77b4; fill-opacity: 0.3"/>
   </g>
   <g id="PolyCollection_4">
    <path d="M 362.047722 295.488 
L 359.968103 295.488 
L 359.825016 293.807432 
L 359.67209 292.126864 
L 359.508561 290.446297 
L 359.33318 288.765729 
L 359.144009 287.085161 
L 358.938177 285.404593 
L 358.71167 283.724026 
L 358.459227 282.043458 
L 358.174448 280.36289 
L 357.85015 278.682322 
L 357.478997 277.001755 
L 357.054334 275.321187 
L 356.571094 273.640619 
L 356.026635 271.960051 
L 355.421308 270.279484 
L 354.758659 268.598916 
L 354.045164 266.918348 
L 353.289541 265.23778 
L 352.501711 263.557213 
L 351.691567 261.876645 
L 350.8677 260.196077 
L 350.036268 258.515509 
L 349.2001 256.834942 
L 348.358141 255.154374 
L 347.505286 253.473806 
L 346.632605 251.793238 
L 345.727998 250.11267 
L 344.777256 248.432103 
L 343.765531 246.751535 
L 342.679146 245.070967 
L 341.507628 243.390399 
L 340.245769 241.709832 
L 338.895431 240.029264 
L 337.466783 238.348696 
L 335.978668 236.668128 
L 334.457895 234.987561 
L 332.937412 233.306993 
L 331.453532 231.626425 
L 330.042571 229.945857 
L 328.737438 228.26529 
L 327.564705 226.584722 
L 326.542653 224.904154 
L 325.680551 223.223586 
L 324.979165 221.543019 
L 324.432241 219.862451 
L 324.028519 218.181883 
L 323.753763 216.501315 
L 323.5924 214.820748 
L 323.528553 213.14018 
L 323.546486 211.459612 
L 323.630709 209.779044 
L 323.766072 208.098477 
L 323.938182 206.417909 
L 324.134293 204.737341 
L 324.344639 203.056773 
L 324.563925 201.376205 
L 324.792604 199.695638 
L 325.037517 198.01507 
L 325.311598 196.334502 
L 325.63257 194.653934 
L 326.020759 192.973367 
L 326.496405 191.292799 
L 327.076903 189.612231 
L 327.774475 187.931663 
L 328.594604 186.251096 
L 329.535447 184.570528 
L 330.588219 182.88996 
L 331.73838 181.209392 
L 332.967354 179.528825 
L 334.254466 177.848257 
L 335.57881 176.167689 
L 336.920824 174.487121 
L 338.263445 172.806554 
L 339.592804 171.125986 
L 340.898467 169.445418 
L 342.173309 167.76485 
L 343.413076 166.084283 
L 344.615744 164.403715 
L 345.780738 162.723147 
L 346.908101 161.042579 
L 347.997673 159.362011 
L 349.048384 157.681444 
L 350.057737 156.000876 
L 351.021568 154.320308 
L 351.934151 152.63974 
L 352.788669 150.959173 
L 353.578018 149.278605 
L 354.295846 147.598037 
L 354.937673 145.917469 
L 355.501891 144.236902 
L 355.99047 142.556334 
L 356.409202 140.875766 
L 356.767414 139.195198 
L 357.077157 137.514631 
L 357.351983 135.834063 
L 357.605489 134.153495 
L 357.849855 132.472927 
L 358.094604 130.79236 
L 358.345769 129.111792 
L 363.670057 129.111792 
L 363.670057 129.111792 
L 363.921222 130.79236 
L 364.16597 132.472927 
L 364.410336 134.153495 
L 364.663842 135.834063 
L 364.938669 137.514631 
L 365.248412 139.195198 
L 365.606623 140.875766 
L 366.025355 142.556334 
L 366.513934 144.236902 
L 367.078152 145.917469 
L 367.719979 147.598037 
L 368.437808 149.278605 
L 369.227156 150.959173 
L 370.081674 152.63974 
L 370.994257 154.320308 
L 371.958088 156.000876 
L 372.967441 157.681444 
L 374.018153 159.362011 
L 375.107724 161.042579 
L 376.235087 162.723147 
L 377.400081 164.403715 
L 378.602749 166.084283 
L 379.842516 167.76485 
L 381.117358 169.445418 
L 382.423022 171.125986 
L 383.75238 172.806554 
L 385.095001 174.487121 
L 386.437015 176.167689 
L 387.761359 177.848257 
L 389.048472 179.528825 
L 390.277445 181.209392 
L 391.427606 182.88996 
L 392.480378 184.570528 
L 393.421221 186.251096 
L 394.24135 187.931663 
L 394.938922 189.612231 
L 395.519421 191.292799 
L 395.995066 192.973367 
L 396.383256 194.653934 
L 396.704227 196.334502 
L 396.978309 198.01507 
L 397.223221 199.695638 
L 397.451901 201.376205 
L 397.671186 203.056773 
L 397.881532 204.737341 
L 398.077644 206.417909 
L 398.249753 208.098477 
L 398.385116 209.779044 
L 398.469339 211.459612 
L 398.487273 213.14018 
L 398.423426 214.820748 
L 398.262063 216.501315 
L 397.987306 218.181883 
L 397.583584 219.862451 
L 397.03666 221.543019 
L 396.335274 223.223586 
L 395.473172 224.904154 
L 394.451121 226.584722 
L 393.278387 228.26529 
L 391.973254 229.945857 
L 390.562294 231.626425 
L 389.078413 233.306993 
L 387.55793 234.987561 
L 386.037157 236.668128 
L 384.549042 238.348696 
L 383.120394 240.029264 
L 381.770056 241.709832 
L 380.508198 243.390399 
L 379.336679 245.070967 
L 378.250294 246.751535 
L 377.238569 248.432103 
L 376.287827 250.11267 
L 375.38322 251.793238 
L 374.51054 253.473806 
L 373.657685 255.154374 
L 372.815726 256.834942 
L 371.979557 258.515509 
L 371.148125 260.196077 
L 370.324259 261.876645 
L 369.514114 263.557213 
L 368.726285 265.23778 
L 367.970662 266.918348 
L 367.257167 268.598916 
L 366.594517 270.279484 
L 365.989191 271.960051 
L 365.444731 273.640619 
L 364.961492 275.321187 
L 364.536828 277.001755 
L 364.165675 278.682322 
L 363.841377 280.36289 
L 363.556598 282.043458 
L 363.304156 283.724026 
L 363.077648 285.404593 
L 362.871816 287.085161 
L 362.682645 288.765729 
L 362.507264 290.446297 
L 362.343735 292.126864 
L 362.19081 293.807432 
L 362.047722 295.488 
z
" clip-path="url(#p29391e4a58)" style="fill: #1f77b4; fill-opacity: 0.3"/>
   </g>
   <g id="matplotlib.axis_1">
    <g id="xtick_1">
     <g id="line2d_1">
      <defs>
       <path id="m18d7846439" d="M 0 0 
L 0 3.5 
" style="stroke: #000000; stroke-width: 0.8"/>
      </defs>
      <g>
       <use xlink:href="#m18d7846439" x="69.668354" y="307.584" style="stroke: #000000; stroke-width: 0.8"/>
      </g>
     </g>
     <g id="text_1">
      <!-- 250 -->
      <g transform="translate(60.124604 322.182437)scale(0.1 -0.1)">
       <defs>
        <path id="DejaVuSans-32" d="M 1228 531 
L 3431 531 
L 3431 0 
L 469 0 
L 469 531 
Q 828 903 1448 1529 
Q 2069 2156 2228 2338 
Q 2531 2678 2651 2914 
Q 2772 3150 2772 3378 
Q 2772 3750 2511 3984 
Q 2250 4219 1831 4219 
Q 1534 4219 1204 4116 
Q 875 4013 500 3803 
L 500 4441 
Q 881 4594 1212 4672 
Q 1544 4750 1819 4750 
Q 2544 4750 2975 4387 
Q 3406 4025 3406 3419 
Q 3406 3131 3298 2873 
Q 3191 2616 2906 2266 
Q 2828 2175 2409 1742 
Q 1991 1309 1228 531 
z
" transform="scale(0.015625)"/>
        <path id="DejaVuSans-35" d="M 691 4666 
L 3169 4666 
L 3169 4134 
L 1269 4134 
L 1269 2991 
Q 1406 3038 1543 3061 
Q 1681 3084 1819 3084 
Q 2600 3084 3056 2656 
Q 3513 2228 3513 1497 
Q 3513 744 3044 326 
Q 2575 -91 1722 -91 
Q 1428 -91 1123 -41 
Q 819 9 494 109 
L 494 744 
Q 775 591 1075 516 
Q 1375 441 1709 441 
Q 2250 441 2565 725 
Q 2881 1009 2881 1497 
Q 2881 1984 2565 2268 
Q 2250 2553 1709 2553 
Q 1456 2553 1204 2497 
Q 953 2441 691 2322 
L 691 4666 
z
" transform="scale(0.015625)"/>
        <path id="DejaVuSans-30" d="M 2034 4250 
Q 1547 4250 1301 3770 
Q 1056 3291 1056 2328 
Q 1056 1369 1301 889 
Q 1547 409 2034 409 
Q 2525 409 2770 889 
Q 3016 1369 3016 2328 
Q 3016 3291 2770 3770 
Q 2525 4250 2034 4250 
z
M 2034 4750 
Q 2819 4750 3233 4129 
Q 3647 3509 3647 2328 
Q 3647 1150 3233 529 
Q 2819 -91 2034 -91 
Q 1250 -91 836 529 
Q 422 1150 422 2328 
Q 422 3509 836 4129 
Q 1250 4750 2034 4750 
z
" transform="scale(0.015625)"/>
       </defs>
       <use xlink:href="#DejaVuSans-32"/>
       <use xlink:href="#DejaVuSans-35" x="63.623047"/>
       <use xlink:href="#DejaVuSans-30" x="127.246094"/>
      </g>
     </g>
    </g>
    <g id="xtick_2">
     <g id="line2d_2">
      <g>
       <use xlink:href="#m18d7846439" x="111.312087" y="307.584" style="stroke: #000000; stroke-width: 0.8"/>
      </g>
     </g>
     <g id="text_2">
      <!-- 500 -->
      <g transform="translate(101.768337 322.182437)scale(0.1 -0.1)">
       <use xlink:href="#DejaVuSans-35"/>
       <use xlink:href="#DejaVuSans-30" x="63.623047"/>
       <use xlink:href="#DejaVuSans-30" x="127.246094"/>
      </g>
     </g>
    </g>
    <g id="xtick_3">
     <g id="line2d_3">
      <g>
       <use xlink:href="#m18d7846439" x="152.955821" y="307.584" style="stroke: #000000; stroke-width: 0.8"/>
      </g>
     </g>
     <g id="text_3">
      <!-- 750 -->
      <g transform="translate(143.412071 322.182437)scale(0.1 -0.1)">
       <defs>
        <path id="DejaVuSans-37" d="M 525 4666 
L 3525 4666 
L 3525 4397 
L 1831 0 
L 1172 0 
L 2766 4134 
L 525 4134 
L 525 4666 
z
" transform="scale(0.015625)"/>
       </defs>
       <use xlink:href="#DejaVuSans-37"/>
       <use xlink:href="#DejaVuSans-35" x="63.623047"/>
       <use xlink:href="#DejaVuSans-30" x="127.246094"/>
      </g>
     </g>
    </g>
    <g id="xtick_4">
     <g id="line2d_4">
      <g>
       <use xlink:href="#m18d7846439" x="194.599554" y="307.584" style="stroke: #000000; stroke-width: 0.8"/>
      </g>
     </g>
     <g id="text_4">
      <!-- 1000 -->
      <g transform="translate(181.874554 322.182437)scale(0.1 -0.1)">
       <defs>
        <path id="DejaVuSans-31" d="M 794 531 
L 1825 531 
L 1825 4091 
L 703 3866 
L 703 4441 
L 1819 4666 
L 2450 4666 
L 2450 531 
L 3481 531 
L 3481 0 
L 794 0 
L 794 531 
z
" transform="scale(0.015625)"/>
       </defs>
       <use xlink:href="#DejaVuSans-31"/>
       <use xlink:href="#DejaVuSans-30" x="63.623047"/>
       <use xlink:href="#DejaVuSans-30" x="127.246094"/>
       <use xlink:href="#DejaVuSans-30" x="190.869141"/>
      </g>
     </g>
    </g>
    <g id="xtick_5">
     <g id="line2d_5">
      <g>
       <use xlink:href="#m18d7846439" x="236.243287" y="307.584" style="stroke: #000000; stroke-width: 0.8"/>
      </g>
     </g>
     <g id="text_5">
      <!-- 1250 -->
      <g transform="translate(223.518287 322.182437)scale(0.1 -0.1)">
       <use xlink:href="#DejaVuSans-31"/>
       <use xlink:href="#DejaVuSans-32" x="63.623047"/>
       <use xlink:href="#DejaVuSans-35" x="127.246094"/>
       <use xlink:href="#DejaVuSans-30" x="190.869141"/>
      </g>
     </g>
    </g>
    <g id="xtick_6">
     <g id="line2d_6">
      <g>
       <use xlink:href="#m18d7846439" x="277.887021" y="307.584" style="stroke: #000000; stroke-width: 0.8"/>
      </g>
     </g>
     <g id="text_6">
      <!-- 1500 -->
      <g transform="translate(265.162021 322.182437)scale(0.1 -0.1)">
       <use xlink:href="#DejaVuSans-31"/>
       <use xlink:href="#DejaVuSans-35" x="63.623047"/>
       <use xlink:href="#DejaVuSans-30" x="127.246094"/>
       <use xlink:href="#DejaVuSans-30" x="190.869141"/>
      </g>
     </g>
    </g>
    <g id="xtick_7">
     <g id="line2d_7">
      <g>
       <use xlink:href="#m18d7846439" x="319.530754" y="307.584" style="stroke: #000000; stroke-width: 0.8"/>
      </g>
     </g>
     <g id="text_7">
      <!-- 1750 -->
      <g transform="translate(306.805754 322.182437)scale(0.1 -0.1)">
       <use xlink:href="#DejaVuSans-31"/>
       <use xlink:href="#DejaVuSans-37" x="63.623047"/>
       <use xlink:href="#DejaVuSans-35" x="127.246094"/>
       <use xlink:href="#DejaVuSans-30" x="190.869141"/>
      </g>
     </g>
    </g>
    <g id="xtick_8">
     <g id="line2d_8">
      <g>
       <use xlink:href="#m18d7846439" x="361.174488" y="307.584" style="stroke: #000000; stroke-width: 0.8"/>
      </g>
     </g>
     <g id="text_8">
      <!-- 2000 -->
      <g transform="translate(348.449488 322.182437)scale(0.1 -0.1)">
       <use xlink:href="#DejaVuSans-32"/>
       <use xlink:href="#DejaVuSans-30" x="63.623047"/>
       <use xlink:href="#DejaVuSans-30" x="127.246094"/>
       <use xlink:href="#DejaVuSans-30" x="190.869141"/>
      </g>
     </g>
    </g>
    <g id="xtick_9">
     <g id="line2d_9">
      <g>
       <use xlink:href="#m18d7846439" x="402.818221" y="307.584" style="stroke: #000000; stroke-width: 0.8"/>
      </g>
     </g>
     <g id="text_9">
      <!-- 2250 -->
      <g transform="translate(390.093221 322.182437)scale(0.1 -0.1)">
       <use xlink:href="#DejaVuSans-32"/>
       <use xlink:href="#DejaVuSans-32" x="63.623047"/>
       <use xlink:href="#DejaVuSans-35" x="127.246094"/>
       <use xlink:href="#DejaVuSans-30" x="190.869141"/>
      </g>
     </g>
    </g>
    <g id="text_10">
     <!-- Learned Episodes -->
     <g transform="translate(192.102187 335.860562)scale(0.1 -0.1)">
      <defs>
       <path id="DejaVuSans-4c" d="M 628 4666 
L 1259 4666 
L 1259 531 
L 3531 531 
L 3531 0 
L 628 0 
L 628 4666 
z
" transform="scale(0.015625)"/>
       <path id="DejaVuSans-65" d="M 3597 1894 
L 3597 1613 
L 953 1613 
Q 991 1019 1311 708 
Q 1631 397 2203 397 
Q 2534 397 2845 478 
Q 3156 559 3463 722 
L 3463 178 
Q 3153 47 2828 -22 
Q 2503 -91 2169 -91 
Q 1331 -91 842 396 
Q 353 884 353 1716 
Q 353 2575 817 3079 
Q 1281 3584 2069 3584 
Q 2775 3584 3186 3129 
Q 3597 2675 3597 1894 
z
M 3022 2063 
Q 3016 2534 2758 2815 
Q 2500 3097 2075 3097 
Q 1594 3097 1305 2825 
Q 1016 2553 972 2059 
L 3022 2063 
z
" transform="scale(0.015625)"/>
       <path id="DejaVuSans-61" d="M 2194 1759 
Q 1497 1759 1228 1600 
Q 959 1441 959 1056 
Q 959 750 1161 570 
Q 1363 391 1709 391 
Q 2188 391 2477 730 
Q 2766 1069 2766 1631 
L 2766 1759 
L 2194 1759 
z
M 3341 1997 
L 3341 0 
L 2766 0 
L 2766 531 
Q 2569 213 2275 61 
Q 1981 -91 1556 -91 
Q 1019 -91 701 211 
Q 384 513 384 1019 
Q 384 1609 779 1909 
Q 1175 2209 1959 2209 
L 2766 2209 
L 2766 2266 
Q 2766 2663 2505 2880 
Q 2244 3097 1772 3097 
Q 1472 3097 1187 3025 
Q 903 2953 641 2809 
L 641 3341 
Q 956 3463 1253 3523 
Q 1550 3584 1831 3584 
Q 2591 3584 2966 3190 
Q 3341 2797 3341 1997 
z
" transform="scale(0.015625)"/>
       <path id="DejaVuSans-72" d="M 2631 2963 
Q 2534 3019 2420 3045 
Q 2306 3072 2169 3072 
Q 1681 3072 1420 2755 
Q 1159 2438 1159 1844 
L 1159 0 
L 581 0 
L 581 3500 
L 1159 3500 
L 1159 2956 
Q 1341 3275 1631 3429 
Q 1922 3584 2338 3584 
Q 2397 3584 2469 3576 
Q 2541 3569 2628 3553 
L 2631 2963 
z
" transform="scale(0.015625)"/>
       <path id="DejaVuSans-6e" d="M 3513 2113 
L 3513 0 
L 2938 0 
L 2938 2094 
Q 2938 2591 2744 2837 
Q 2550 3084 2163 3084 
Q 1697 3084 1428 2787 
Q 1159 2491 1159 1978 
L 1159 0 
L 581 0 
L 581 3500 
L 1159 3500 
L 1159 2956 
Q 1366 3272 1645 3428 
Q 1925 3584 2291 3584 
Q 2894 3584 3203 3211 
Q 3513 2838 3513 2113 
z
" transform="scale(0.015625)"/>
       <path id="DejaVuSans-64" d="M 2906 2969 
L 2906 4863 
L 3481 4863 
L 3481 0 
L 2906 0 
L 2906 525 
Q 2725 213 2448 61 
Q 2172 -91 1784 -91 
Q 1150 -91 751 415 
Q 353 922 353 1747 
Q 353 2572 751 3078 
Q 1150 3584 1784 3584 
Q 2172 3584 2448 3432 
Q 2725 3281 2906 2969 
z
M 947 1747 
Q 947 1113 1208 752 
Q 1469 391 1925 391 
Q 2381 391 2643 752 
Q 2906 1113 2906 1747 
Q 2906 2381 2643 2742 
Q 2381 3103 1925 3103 
Q 1469 3103 1208 2742 
Q 947 2381 947 1747 
z
" transform="scale(0.015625)"/>
       <path id="DejaVuSans-20" transform="scale(0.015625)"/>
       <path id="DejaVuSans-45" d="M 628 4666 
L 3578 4666 
L 3578 4134 
L 1259 4134 
L 1259 2753 
L 3481 2753 
L 3481 2222 
L 1259 2222 
L 1259 531 
L 3634 531 
L 3634 0 
L 628 0 
L 628 4666 
z
" transform="scale(0.015625)"/>
       <path id="DejaVuSans-70" d="M 1159 525 
L 1159 -1331 
L 581 -1331 
L 581 3500 
L 1159 3500 
L 1159 2969 
Q 1341 3281 1617 3432 
Q 1894 3584 2278 3584 
Q 2916 3584 3314 3078 
Q 3713 2572 3713 1747 
Q 3713 922 3314 415 
Q 2916 -91 2278 -91 
Q 1894 -91 1617 61 
Q 1341 213 1159 525 
z
M 3116 1747 
Q 3116 2381 2855 2742 
Q 2594 3103 2138 3103 
Q 1681 3103 1420 2742 
Q 1159 2381 1159 1747 
Q 1159 1113 1420 752 
Q 1681 391 2138 391 
Q 2594 391 2855 752 
Q 3116 1113 3116 1747 
z
" transform="scale(0.015625)"/>
       <path id="DejaVuSans-69" d="M 603 3500 
L 1178 3500 
L 1178 0 
L 603 0 
L 603 3500 
z
M 603 4863 
L 1178 4863 
L 1178 4134 
L 603 4134 
L 603 4863 
z
" transform="scale(0.015625)"/>
       <path id="DejaVuSans-73" d="M 2834 3397 
L 2834 2853 
Q 2591 2978 2328 3040 
Q 2066 3103 1784 3103 
Q 1356 3103 1142 2972 
Q 928 2841 928 2578 
Q 928 2378 1081 2264 
Q 1234 2150 1697 2047 
L 1894 2003 
Q 2506 1872 2764 1633 
Q 3022 1394 3022 966 
Q 3022 478 2636 193 
Q 2250 -91 1575 -91 
Q 1294 -91 989 -36 
Q 684 19 347 128 
L 347 722 
Q 666 556 975 473 
Q 1284 391 1588 391 
Q 1994 391 2212 530 
Q 2431 669 2431 922 
Q 2431 1156 2273 1281 
Q 2116 1406 1581 1522 
L 1381 1569 
Q 847 1681 609 1914 
Q 372 2147 372 2553 
Q 372 3047 722 3315 
Q 1072 3584 1716 3584 
Q 2034 3584 2315 3537 
Q 2597 3491 2834 3397 
z
" transform="scale(0.015625)"/>
       <path id="DejaVuSans-6f" d="M 1959 3097 
Q 1497 3097 1228 2736 
Q 959 2375 959 1747 
Q 959 1119 1226 758 
Q 1494 397 1959 397 
Q 2419 397 2687 759 
Q 2956 1122 2956 1747 
Q 2956 2369 2687 2733 
Q 2419 3097 1959 3097 
z
M 1959 3584 
Q 2709 3584 3137 3096 
Q 3566 2609 3566 1747 
Q 3566 888 3137 398 
Q 2709 -91 1959 -91 
Q 1206 -91 779 398 
Q 353 888 353 1747 
Q 353 2609 779 3096 
Q 1206 3584 1959 3584 
z
" transform="scale(0.015625)"/>
      </defs>
      <use xlink:href="#DejaVuSans-4c"/>
      <use xlink:href="#DejaVuSans-65" x="53.962891"/>
      <use xlink:href="#DejaVuSans-61" x="115.486328"/>
      <use xlink:href="#DejaVuSans-72" x="176.765625"/>
      <use xlink:href="#DejaVuSans-6e" x="216.128906"/>
      <use xlink:href="#DejaVuSans-65" x="279.507812"/>
      <use xlink:href="#DejaVuSans-64" x="341.03125"/>
      <use xlink:href="#DejaVuSans-20" x="404.507812"/>
      <use xlink:href="#DejaVuSans-45" x="436.294922"/>
      <use xlink:href="#DejaVuSans-70" x="499.478516"/>
      <use xlink:href="#DejaVuSans-69" x="562.955078"/>
      <use xlink:href="#DejaVuSans-73" x="590.738281"/>
      <use xlink:href="#DejaVuSans-6f" x="642.837891"/>
      <use xlink:href="#DejaVuSans-64" x="704.019531"/>
      <use xlink:href="#DejaVuSans-65" x="767.496094"/>
      <use xlink:href="#DejaVuSans-73" x="829.019531"/>
     </g>
    </g>
   </g>
   <g id="matplotlib.axis_2">
    <g id="ytick_1">
     <g id="line2d_10">
      <defs>
       <path id="m4ec9a0b6ea" d="M 0 0 
L -3.5 0 
" style="stroke: #000000; stroke-width: 0.8"/>
      </defs>
      <g>
       <use xlink:href="#m4ec9a0b6ea" x="57.6" y="279.300045" style="stroke: #000000; stroke-width: 0.8"/>
      </g>
     </g>
     <g id="text_11">
      <!-- 400 -->
      <g transform="translate(31.5125 283.099263)scale(0.1 -0.1)">
       <defs>
        <path id="DejaVuSans-34" d="M 2419 4116 
L 825 1625 
L 2419 1625 
L 2419 4116 
z
M 2253 4666 
L 3047 4666 
L 3047 1625 
L 3713 1625 
L 3713 1100 
L 3047 1100 
L 3047 0 
L 2419 0 
L 2419 1100 
L 313 1100 
L 313 1709 
L 2253 4666 
z
" transform="scale(0.015625)"/>
       </defs>
       <use xlink:href="#DejaVuSans-34"/>
       <use xlink:href="#DejaVuSans-30" x="63.623047"/>
       <use xlink:href="#DejaVuSans-30" x="127.246094"/>
      </g>
     </g>
    </g>
    <g id="ytick_2">
     <g id="line2d_11">
      <g>
       <use xlink:href="#m4ec9a0b6ea" x="57.6" y="234.333502" style="stroke: #000000; stroke-width: 0.8"/>
      </g>
     </g>
     <g id="text_12">
      <!-- 500 -->
      <g transform="translate(31.5125 238.132721)scale(0.1 -0.1)">
       <use xlink:href="#DejaVuSans-35"/>
       <use xlink:href="#DejaVuSans-30" x="63.623047"/>
       <use xlink:href="#DejaVuSans-30" x="127.246094"/>
      </g>
     </g>
    </g>
    <g id="ytick_3">
     <g id="line2d_12">
      <g>
       <use xlink:href="#m4ec9a0b6ea" x="57.6" y="189.366959" style="stroke: #000000; stroke-width: 0.8"/>
      </g>
     </g>
     <g id="text_13">
      <!-- 600 -->
      <g transform="translate(31.5125 193.166178)scale(0.1 -0.1)">
       <defs>
        <path id="DejaVuSans-36" d="M 2113 2584 
Q 1688 2584 1439 2293 
Q 1191 2003 1191 1497 
Q 1191 994 1439 701 
Q 1688 409 2113 409 
Q 2538 409 2786 701 
Q 3034 994 3034 1497 
Q 3034 2003 2786 2293 
Q 2538 2584 2113 2584 
z
M 3366 4563 
L 3366 3988 
Q 3128 4100 2886 4159 
Q 2644 4219 2406 4219 
Q 1781 4219 1451 3797 
Q 1122 3375 1075 2522 
Q 1259 2794 1537 2939 
Q 1816 3084 2150 3084 
Q 2853 3084 3261 2657 
Q 3669 2231 3669 1497 
Q 3669 778 3244 343 
Q 2819 -91 2113 -91 
Q 1303 -91 875 529 
Q 447 1150 447 2328 
Q 447 3434 972 4092 
Q 1497 4750 2381 4750 
Q 2619 4750 2861 4703 
Q 3103 4656 3366 4563 
z
" transform="scale(0.015625)"/>
       </defs>
       <use xlink:href="#DejaVuSans-36"/>
       <use xlink:href="#DejaVuSans-30" x="63.623047"/>
       <use xlink:href="#DejaVuSans-30" x="127.246094"/>
      </g>
     </g>
    </g>
    <g id="ytick_4">
     <g id="line2d_13">
      <g>
       <use xlink:href="#m4ec9a0b6ea" x="57.6" y="144.400416" style="stroke: #000000; stroke-width: 0.8"/>
      </g>
     </g>
     <g id="text_14">
      <!-- 700 -->
      <g transform="translate(31.5125 148.199635)scale(0.1 -0.1)">
       <use xlink:href="#DejaVuSans-37"/>
       <use xlink:href="#DejaVuSans-30" x="63.623047"/>
       <use xlink:href="#DejaVuSans-30" x="127.246094"/>
      </g>
     </g>
    </g>
    <g id="ytick_5">
     <g id="line2d_14">
      <g>
       <use xlink:href="#m4ec9a0b6ea" x="57.6" y="99.433874" style="stroke: #000000; stroke-width: 0.8"/>
      </g>
     </g>
     <g id="text_15">
      <!-- 800 -->
      <g transform="translate(31.5125 103.233092)scale(0.1 -0.1)">
       <defs>
        <path id="DejaVuSans-38" d="M 2034 2216 
Q 1584 2216 1326 1975 
Q 1069 1734 1069 1313 
Q 1069 891 1326 650 
Q 1584 409 2034 409 
Q 2484 409 2743 651 
Q 3003 894 3003 1313 
Q 3003 1734 2745 1975 
Q 2488 2216 2034 2216 
z
M 1403 2484 
Q 997 2584 770 2862 
Q 544 3141 544 3541 
Q 544 4100 942 4425 
Q 1341 4750 2034 4750 
Q 2731 4750 3128 4425 
Q 3525 4100 3525 3541 
Q 3525 3141 3298 2862 
Q 3072 2584 2669 2484 
Q 3125 2378 3379 2068 
Q 3634 1759 3634 1313 
Q 3634 634 3220 271 
Q 2806 -91 2034 -91 
Q 1263 -91 848 271 
Q 434 634 434 1313 
Q 434 1759 690 2068 
Q 947 2378 1403 2484 
z
M 1172 3481 
Q 1172 3119 1398 2916 
Q 1625 2713 2034 2713 
Q 2441 2713 2670 2916 
Q 2900 3119 2900 3481 
Q 2900 3844 2670 4047 
Q 2441 4250 2034 4250 
Q 1625 4250 1398 4047 
Q 1172 3844 1172 3481 
z
" transform="scale(0.015625)"/>
       </defs>
       <use xlink:href="#DejaVuSans-38"/>
       <use xlink:href="#DejaVuSans-30" x="63.623047"/>
       <use xlink:href="#DejaVuSans-30" x="127.246094"/>
      </g>
     </g>
    </g>
    <g id="ytick_6">
     <g id="line2d_15">
      <g>
       <use xlink:href="#m4ec9a0b6ea" x="57.6" y="54.467331" style="stroke: #000000; stroke-width: 0.8"/>
      </g>
     </g>
     <g id="text_16">
      <!-- 900 -->
      <g transform="translate(31.5125 58.26655)scale(0.1 -0.1)">
       <defs>
        <path id="DejaVuSans-39" d="M 703 97 
L 703 672 
Q 941 559 1184 500 
Q 1428 441 1663 441 
Q 2288 441 2617 861 
Q 2947 1281 2994 2138 
Q 2813 1869 2534 1725 
Q 2256 1581 1919 1581 
Q 1219 1581 811 2004 
Q 403 2428 403 3163 
Q 403 3881 828 4315 
Q 1253 4750 1959 4750 
Q 2769 4750 3195 4129 
Q 3622 3509 3622 2328 
Q 3622 1225 3098 567 
Q 2575 -91 1691 -91 
Q 1453 -91 1209 -44 
Q 966 3 703 97 
z
M 1959 2075 
Q 2384 2075 2632 2365 
Q 2881 2656 2881 3163 
Q 2881 3666 2632 3958 
Q 2384 4250 1959 4250 
Q 1534 4250 1286 3958 
Q 1038 3666 1038 3163 
Q 1038 2656 1286 2365 
Q 1534 2075 1959 2075 
z
" transform="scale(0.015625)"/>
       </defs>
       <use xlink:href="#DejaVuSans-39"/>
       <use xlink:href="#DejaVuSans-30" x="63.623047"/>
       <use xlink:href="#DejaVuSans-30" x="127.246094"/>
      </g>
     </g>
    </g>
    <g id="text_17">
     <!-- Reward Density -->
     <g transform="translate(25.432812 213.74675)rotate(-90)scale(0.1 -0.1)">
      <defs>
       <path id="DejaVuSans-52" d="M 2841 2188 
Q 3044 2119 3236 1894 
Q 3428 1669 3622 1275 
L 4263 0 
L 3584 0 
L 2988 1197 
Q 2756 1666 2539 1819 
Q 2322 1972 1947 1972 
L 1259 1972 
L 1259 0 
L 628 0 
L 628 4666 
L 2053 4666 
Q 2853 4666 3247 4331 
Q 3641 3997 3641 3322 
Q 3641 2881 3436 2590 
Q 3231 2300 2841 2188 
z
M 1259 4147 
L 1259 2491 
L 2053 2491 
Q 2509 2491 2742 2702 
Q 2975 2913 2975 3322 
Q 2975 3731 2742 3939 
Q 2509 4147 2053 4147 
L 1259 4147 
z
" transform="scale(0.015625)"/>
       <path id="DejaVuSans-77" d="M 269 3500 
L 844 3500 
L 1563 769 
L 2278 3500 
L 2956 3500 
L 3675 769 
L 4391 3500 
L 4966 3500 
L 4050 0 
L 3372 0 
L 2619 2869 
L 1863 0 
L 1184 0 
L 269 3500 
z
" transform="scale(0.015625)"/>
       <path id="DejaVuSans-44" d="M 1259 4147 
L 1259 519 
L 2022 519 
Q 2988 519 3436 956 
Q 3884 1394 3884 2338 
Q 3884 3275 3436 3711 
Q 2988 4147 2022 4147 
L 1259 4147 
z
M 628 4666 
L 1925 4666 
Q 3281 4666 3915 4102 
Q 4550 3538 4550 2338 
Q 4550 1131 3912 565 
Q 3275 0 1925 0 
L 628 0 
L 628 4666 
z
" transform="scale(0.015625)"/>
       <path id="DejaVuSans-74" d="M 1172 4494 
L 1172 3500 
L 2356 3500 
L 2356 3053 
L 1172 3053 
L 1172 1153 
Q 1172 725 1289 603 
Q 1406 481 1766 481 
L 2356 481 
L 2356 0 
L 1766 0 
Q 1100 0 847 248 
Q 594 497 594 1153 
L 594 3053 
L 172 3053 
L 172 3500 
L 594 3500 
L 594 4494 
L 1172 4494 
z
" transform="scale(0.015625)"/>
       <path id="DejaVuSans-79" d="M 2059 -325 
Q 1816 -950 1584 -1140 
Q 1353 -1331 966 -1331 
L 506 -1331 
L 506 -850 
L 844 -850 
Q 1081 -850 1212 -737 
Q 1344 -625 1503 -206 
L 1606 56 
L 191 3500 
L 800 3500 
L 1894 763 
L 2988 3500 
L 3597 3500 
L 2059 -325 
z
" transform="scale(0.015625)"/>
      </defs>
      <use xlink:href="#DejaVuSans-52"/>
      <use xlink:href="#DejaVuSans-65" x="64.982422"/>
      <use xlink:href="#DejaVuSans-77" x="126.505859"/>
      <use xlink:href="#DejaVuSans-61" x="208.292969"/>
      <use xlink:href="#DejaVuSans-72" x="269.572266"/>
      <use xlink:href="#DejaVuSans-64" x="308.935547"/>
      <use xlink:href="#DejaVuSans-20" x="372.412109"/>
      <use xlink:href="#DejaVuSans-44" x="404.199219"/>
      <use xlink:href="#DejaVuSans-65" x="481.201172"/>
      <use xlink:href="#DejaVuSans-6e" x="542.724609"/>
      <use xlink:href="#DejaVuSans-73" x="606.103516"/>
      <use xlink:href="#DejaVuSans-69" x="658.203125"/>
      <use xlink:href="#DejaVuSans-74" x="685.986328"/>
      <use xlink:href="#DejaVuSans-79" x="725.195312"/>
     </g>
    </g>
   </g>
   <g id="LineCollection_1">
    <path d="M 92.572407 161.806066 
L 130.051767 161.806066 
" clip-path="url(#p29391e4a58)" style="fill: none; stroke: #1f77b4; stroke-width: 1.5"/>
    <path d="M 175.859874 201.621241 
L 213.339234 201.621241 
" clip-path="url(#p29391e4a58)" style="fill: none; stroke: #1f77b4; stroke-width: 1.5"/>
    <path d="M 259.147341 198.205583 
L 296.626701 198.205583 
" clip-path="url(#p29391e4a58)" style="fill: none; stroke: #1f77b4; stroke-width: 1.5"/>
    <path d="M 342.268233 206.812179 
L 379.747593 206.812179 
" clip-path="url(#p29391e4a58)" style="fill: none; stroke: #1f77b4; stroke-width: 1.5"/>
   </g>
   <g id="LineCollection_2">
    <path d="M 92.572407 53.568 
L 130.051767 53.568 
" clip-path="url(#p29391e4a58)" style="fill: none; stroke: #1f77b4; stroke-width: 1.5"/>
    <path d="M 175.859874 107.078186 
L 213.339234 107.078186 
" clip-path="url(#p29391e4a58)" style="fill: none; stroke: #1f77b4; stroke-width: 1.5"/>
    <path d="M 259.147341 106.178855 
L 296.626701 106.178855 
" clip-path="url(#p29391e4a58)" style="fill: none; stroke: #1f77b4; stroke-width: 1.5"/>
    <path d="M 342.268233 129.111792 
L 379.747593 129.111792 
" clip-path="url(#p29391e4a58)" style="fill: none; stroke: #1f77b4; stroke-width: 1.5"/>
   </g>
   <g id="LineCollection_3">
    <path d="M 92.572407 272.105398 
L 130.051767 272.105398 
" clip-path="url(#p29391e4a58)" style="fill: none; stroke: #1f77b4; stroke-width: 1.5"/>
    <path d="M 175.859874 275.702721 
L 213.339234 275.702721 
" clip-path="url(#p29391e4a58)" style="fill: none; stroke: #1f77b4; stroke-width: 1.5"/>
    <path d="M 259.147341 287.394022 
L 296.626701 287.394022 
" clip-path="url(#p29391e4a58)" style="fill: none; stroke: #1f77b4; stroke-width: 1.5"/>
    <path d="M 342.268233 295.488 
L 379.747593 295.488 
" clip-path="url(#p29391e4a58)" style="fill: none; stroke: #1f77b4; stroke-width: 1.5"/>
   </g>
   <g id="LineCollection_4">
    <path d="M 111.312087 272.105398 
L 111.312087 53.568 
" clip-path="url(#p29391e4a58)" style="fill: none; stroke: #1f77b4; stroke-width: 1.5"/>
    <path d="M 194.599554 275.702721 
L 194.599554 107.078186 
" clip-path="url(#p29391e4a58)" style="fill: none; stroke: #1f77b4; stroke-width: 1.5"/>
    <path d="M 277.887021 287.394022 
L 277.887021 106.178855 
" clip-path="url(#p29391e4a58)" style="fill: none; stroke: #1f77b4; stroke-width: 1.5"/>
    <path d="M 361.007913 295.488 
L 361.007913 129.111792 
" clip-path="url(#p29391e4a58)" style="fill: none; stroke: #1f77b4; stroke-width: 1.5"/>
   </g>
   <g id="line2d_16">
    <path d="M 111.312087 161.806066 
L 194.599554 201.621241 
L 277.887021 198.205583 
L 361.007913 206.812179 
" clip-path="url(#p29391e4a58)" style="fill: none; stroke: #4682b4; stroke-width: 1.5; stroke-linecap: square"/>
   </g>
   <g id="patch_3">
    <path d="M 57.6 307.584 
L 57.6 41.472 
" style="fill: none; stroke: #000000; stroke-width: 0.8; stroke-linejoin: miter; stroke-linecap: square"/>
   </g>
   <g id="patch_4">
    <path d="M 414.72 307.584 
L 414.72 41.472 
" style="fill: none; stroke: #000000; stroke-width: 0.8; stroke-linejoin: miter; stroke-linecap: square"/>
   </g>
   <g id="patch_5">
    <path d="M 57.6 307.584 
L 414.72 307.584 
" style="fill: none; stroke: #000000; stroke-width: 0.8; stroke-linejoin: miter; stroke-linecap: square"/>
   </g>
   <g id="patch_6">
    <path d="M 57.6 41.472 
L 414.72 41.472 
" style="fill: none; stroke: #000000; stroke-width: 0.8; stroke-linejoin: miter; stroke-linecap: square"/>
   </g>
   <g id="text_18">
    <!-- Violinplot for progress of profits/by_selling_new -->
    <g transform="translate(94.379063 35.472)scale(0.12 -0.12)">
     <defs>
      <path id="DejaVuSans-56" d="M 1831 0 
L 50 4666 
L 709 4666 
L 2188 738 
L 3669 4666 
L 4325 4666 
L 2547 0 
L 1831 0 
z
" transform="scale(0.015625)"/>
      <path id="DejaVuSans-6c" d="M 603 4863 
L 1178 4863 
L 1178 0 
L 603 0 
L 603 4863 
z
" transform="scale(0.015625)"/>
      <path id="DejaVuSans-66" d="M 2375 4863 
L 2375 4384 
L 1825 4384 
Q 1516 4384 1395 4259 
Q 1275 4134 1275 3809 
L 1275 3500 
L 2222 3500 
L 2222 3053 
L 1275 3053 
L 1275 0 
L 697 0 
L 697 3053 
L 147 3053 
L 147 3500 
L 697 3500 
L 697 3744 
Q 697 4328 969 4595 
Q 1241 4863 1831 4863 
L 2375 4863 
z
" transform="scale(0.015625)"/>
      <path id="DejaVuSans-67" d="M 2906 1791 
Q 2906 2416 2648 2759 
Q 2391 3103 1925 3103 
Q 1463 3103 1205 2759 
Q 947 2416 947 1791 
Q 947 1169 1205 825 
Q 1463 481 1925 481 
Q 2391 481 2648 825 
Q 2906 1169 2906 1791 
z
M 3481 434 
Q 3481 -459 3084 -895 
Q 2688 -1331 1869 -1331 
Q 1566 -1331 1297 -1286 
Q 1028 -1241 775 -1147 
L 775 -588 
Q 1028 -725 1275 -790 
Q 1522 -856 1778 -856 
Q 2344 -856 2625 -561 
Q 2906 -266 2906 331 
L 2906 616 
Q 2728 306 2450 153 
Q 2172 0 1784 0 
Q 1141 0 747 490 
Q 353 981 353 1791 
Q 353 2603 747 3093 
Q 1141 3584 1784 3584 
Q 2172 3584 2450 3431 
Q 2728 3278 2906 2969 
L 2906 3500 
L 3481 3500 
L 3481 434 
z
" transform="scale(0.015625)"/>
      <path id="DejaVuSans-2f" d="M 1625 4666 
L 2156 4666 
L 531 -594 
L 0 -594 
L 1625 4666 
z
" transform="scale(0.015625)"/>
      <path id="DejaVuSans-62" d="M 3116 1747 
Q 3116 2381 2855 2742 
Q 2594 3103 2138 3103 
Q 1681 3103 1420 2742 
Q 1159 2381 1159 1747 
Q 1159 1113 1420 752 
Q 1681 391 2138 391 
Q 2594 391 2855 752 
Q 3116 1113 3116 1747 
z
M 1159 2969 
Q 1341 3281 1617 3432 
Q 1894 3584 2278 3584 
Q 2916 3584 3314 3078 
Q 3713 2572 3713 1747 
Q 3713 922 3314 415 
Q 2916 -91 2278 -91 
Q 1894 -91 1617 61 
Q 1341 213 1159 525 
L 1159 0 
L 581 0 
L 581 4863 
L 1159 4863 
L 1159 2969 
z
" transform="scale(0.015625)"/>
      <path id="DejaVuSans-5f" d="M 3263 -1063 
L 3263 -1509 
L -63 -1509 
L -63 -1063 
L 3263 -1063 
z
" transform="scale(0.015625)"/>
     </defs>
     <use xlink:href="#DejaVuSans-56"/>
     <use xlink:href="#DejaVuSans-69" x="66.158203"/>
     <use xlink:href="#DejaVuSans-6f" x="93.941406"/>
     <use xlink:href="#DejaVuSans-6c" x="155.123047"/>
     <use xlink:href="#DejaVuSans-69" x="182.90625"/>
     <use xlink:href="#DejaVuSans-6e" x="210.689453"/>
     <use xlink:href="#DejaVuSans-70" x="274.068359"/>
     <use xlink:href="#DejaVuSans-6c" x="337.544922"/>
     <use xlink:href="#DejaVuSans-6f" x="365.328125"/>
     <use xlink:href="#DejaVuSans-74" x="426.509766"/>
     <use xlink:href="#DejaVuSans-20" x="465.71875"/>
     <use xlink:href="#DejaVuSans-66" x="497.505859"/>
     <use xlink:href="#DejaVuSans-6f" x="532.710938"/>
     <use xlink:href="#DejaVuSans-72" x="593.892578"/>
     <use xlink:href="#DejaVuSans-20" x="635.005859"/>
     <use xlink:href="#DejaVuSans-70" x="666.792969"/>
     <use xlink:href="#DejaVuSans-72" x="730.269531"/>
     <use xlink:href="#DejaVuSans-6f" x="769.132812"/>
     <use xlink:href="#DejaVuSans-67" x="830.314453"/>
     <use xlink:href="#DejaVuSans-72" x="893.791016"/>
     <use xlink:href="#DejaVuSans-65" x="932.654297"/>
     <use xlink:href="#DejaVuSans-73" x="994.177734"/>
     <use xlink:href="#DejaVuSans-73" x="1046.277344"/>
     <use xlink:href="#DejaVuSans-20" x="1098.376953"/>
     <use xlink:href="#DejaVuSans-6f" x="1130.164062"/>
     <use xlink:href="#DejaVuSans-66" x="1191.345703"/>
     <use xlink:href="#DejaVuSans-20" x="1226.550781"/>
     <use xlink:href="#DejaVuSans-70" x="1258.337891"/>
     <use xlink:href="#DejaVuSans-72" x="1321.814453"/>
     <use xlink:href="#DejaVuSans-6f" x="1360.677734"/>
     <use xlink:href="#DejaVuSans-66" x="1421.859375"/>
     <use xlink:href="#DejaVuSans-69" x="1457.064453"/>
     <use xlink:href="#DejaVuSans-74" x="1484.847656"/>
     <use xlink:href="#DejaVuSans-73" x="1524.056641"/>
     <use xlink:href="#DejaVuSans-2f" x="1576.15625"/>
     <use xlink:href="#DejaVuSans-62" x="1609.847656"/>
     <use xlink:href="#DejaVuSans-79" x="1673.324219"/>
     <use xlink:href="#DejaVuSans-5f" x="1732.503906"/>
     <use xlink:href="#DejaVuSans-73" x="1782.503906"/>
     <use xlink:href="#DejaVuSans-65" x="1834.603516"/>
     <use xlink:href="#DejaVuSans-6c" x="1896.126953"/>
     <use xlink:href="#DejaVuSans-6c" x="1923.910156"/>
     <use xlink:href="#DejaVuSans-69" x="1951.693359"/>
     <use xlink:href="#DejaVuSans-6e" x="1979.476562"/>
     <use xlink:href="#DejaVuSans-67" x="2042.855469"/>
     <use xlink:href="#DejaVuSans-5f" x="2106.332031"/>
     <use xlink:href="#DejaVuSans-6e" x="2156.332031"/>
     <use xlink:href="#DejaVuSans-65" x="2219.710938"/>
     <use xlink:href="#DejaVuSans-77" x="2281.234375"/>
    </g>
   </g>
   <g id="legend_1">
    <g id="patch_7">
     <path d="M 284.430938 64.150125 
L 407.72 64.150125 
Q 409.72 64.150125 409.72 62.150125 
L 409.72 48.472 
Q 409.72 46.472 407.72 46.472 
L 284.430938 46.472 
Q 282.430938 46.472 282.430938 48.472 
L 282.430938 62.150125 
Q 282.430938 64.150125 284.430938 64.150125 
z
" style="fill: #ffffff; opacity: 0.8; stroke: #cccccc; stroke-linejoin: miter"/>
    </g>
    <g id="line2d_17">
     <path d="M 286.430938 54.570438 
L 296.430938 54.570438 
L 306.430938 54.570438 
" style="fill: none; stroke: #4682b4; stroke-width: 1.5; stroke-linecap: square"/>
    </g>
    <g id="text_19">
     <!-- Storage-Minimizer -->
     <g transform="translate(314.430938 58.070438)scale(0.1 -0.1)">
      <defs>
       <path id="DejaVuSans-53" d="M 3425 4513 
L 3425 3897 
Q 3066 4069 2747 4153 
Q 2428 4238 2131 4238 
Q 1616 4238 1336 4038 
Q 1056 3838 1056 3469 
Q 1056 3159 1242 3001 
Q 1428 2844 1947 2747 
L 2328 2669 
Q 3034 2534 3370 2195 
Q 3706 1856 3706 1288 
Q 3706 609 3251 259 
Q 2797 -91 1919 -91 
Q 1588 -91 1214 -16 
Q 841 59 441 206 
L 441 856 
Q 825 641 1194 531 
Q 1563 422 1919 422 
Q 2459 422 2753 634 
Q 3047 847 3047 1241 
Q 3047 1584 2836 1778 
Q 2625 1972 2144 2069 
L 1759 2144 
Q 1053 2284 737 2584 
Q 422 2884 422 3419 
Q 422 4038 858 4394 
Q 1294 4750 2059 4750 
Q 2388 4750 2728 4690 
Q 3069 4631 3425 4513 
z
" transform="scale(0.015625)"/>
       <path id="DejaVuSans-2d" d="M 313 2009 
L 1997 2009 
L 1997 1497 
L 313 1497 
L 313 2009 
z
" transform="scale(0.015625)"/>
       <path id="DejaVuSans-4d" d="M 628 4666 
L 1569 4666 
L 2759 1491 
L 3956 4666 
L 4897 4666 
L 4897 0 
L 4281 0 
L 4281 4097 
L 3078 897 
L 2444 897 
L 1241 4097 
L 1241 0 
L 628 0 
L 628 4666 
z
" transform="scale(0.015625)"/>
       <path id="DejaVuSans-6d" d="M 3328 2828 
Q 3544 3216 3844 3400 
Q 4144 3584 4550 3584 
Q 5097 3584 5394 3201 
Q 5691 2819 5691 2113 
L 5691 0 
L 5113 0 
L 5113 2094 
Q 5113 2597 4934 2840 
Q 4756 3084 4391 3084 
Q 3944 3084 3684 2787 
Q 3425 2491 3425 1978 
L 3425 0 
L 2847 0 
L 2847 2094 
Q 2847 2600 2669 2842 
Q 2491 3084 2119 3084 
Q 1678 3084 1418 2786 
Q 1159 2488 1159 1978 
L 1159 0 
L 581 0 
L 581 3500 
L 1159 3500 
L 1159 2956 
Q 1356 3278 1631 3431 
Q 1906 3584 2284 3584 
Q 2666 3584 2933 3390 
Q 3200 3197 3328 2828 
z
" transform="scale(0.015625)"/>
       <path id="DejaVuSans-7a" d="M 353 3500 
L 3084 3500 
L 3084 2975 
L 922 459 
L 3084 459 
L 3084 0 
L 275 0 
L 275 525 
L 2438 3041 
L 353 3041 
L 353 3500 
z
" transform="scale(0.015625)"/>
      </defs>
      <use xlink:href="#DejaVuSans-53"/>
      <use xlink:href="#DejaVuSans-74" x="63.476562"/>
      <use xlink:href="#DejaVuSans-6f" x="102.685547"/>
      <use xlink:href="#DejaVuSans-72" x="163.867188"/>
      <use xlink:href="#DejaVuSans-61" x="204.980469"/>
      <use xlink:href="#DejaVuSans-67" x="266.259766"/>
      <use xlink:href="#DejaVuSans-65" x="329.736328"/>
      <use xlink:href="#DejaVuSans-2d" x="391.259766"/>
      <use xlink:href="#DejaVuSans-4d" x="427.34375"/>
      <use xlink:href="#DejaVuSans-69" x="513.623047"/>
      <use xlink:href="#DejaVuSans-6e" x="541.40625"/>
      <use xlink:href="#DejaVuSans-69" x="604.785156"/>
      <use xlink:href="#DejaVuSans-6d" x="632.568359"/>
      <use xlink:href="#DejaVuSans-69" x="729.980469"/>
      <use xlink:href="#DejaVuSans-7a" x="757.763672"/>
      <use xlink:href="#DejaVuSans-65" x="810.253906"/>
      <use xlink:href="#DejaVuSans-72" x="871.777344"/>
     </g>
    </g>
   </g>
  </g>
 </g>
 <defs>
  <clipPath id="p29391e4a58">
   <rect x="57.6" y="41.472" width="357.12" height="266.112"/>
  </clipPath>
 </defs>
</svg>
