<?xml version="1.0" encoding="utf-8" standalone="no"?>
<!DOCTYPE svg PUBLIC "-//W3C//DTD SVG 1.1//EN"
  "http://www.w3.org/Graphics/SVG/1.1/DTD/svg11.dtd">
<svg xmlns:xlink="http://www.w3.org/1999/xlink" width="460.8pt" height="345.6pt" viewBox="0 0 460.8 345.6" xmlns="http://www.w3.org/2000/svg" version="1.1">
 <metadata>
  <rdf:RDF xmlns:dc="http://purl.org/dc/elements/1.1/" xmlns:cc="http://creativecommons.org/ns#" xmlns:rdf="http://www.w3.org/1999/02/22-rdf-syntax-ns#">
   <cc:Work>
    <dc:type rdf:resource="http://purl.org/dc/dcmitype/StillImage"/>
    <dc:date>2022-06-15T18:26:48.997419</dc:date>
    <dc:format>image/svg+xml</dc:format>
    <dc:creator>
     <cc:Agent>
      <dc:title>Matplotlib v3.5.2, https://matplotlib.org/</dc:title>
     </cc:Agent>
    </dc:creator>
   </cc:Work>
  </rdf:RDF>
 </metadata>
 <defs>
  <style type="text/css">*{stroke-linejoin: round; stroke-linecap: butt}</style>
 </defs>
 <g id="figure_1">
  <g id="patch_1">
   <path d="M 0 345.6 
L 460.8 345.6 
L 460.8 0 
L 0 0 
z
" style="fill: #ffffff"/>
  </g>
  <g id="axes_1">
   <g id="patch_2">
    <path d="M 57.6 307.584 
L 414.72 307.584 
L 414.72 41.472 
L 57.6 41.472 
z
" style="fill: #ffffff"/>
   </g>
   <g id="PolyCollection_1">
    <path d="M 118.038924 295.488 
L 104.585251 295.488 
L 103.702607 293.33802 
L 102.771569 291.188039 
L 101.793676 289.038059 
L 100.769708 286.888078 
L 99.699855 284.738098 
L 98.58406 282.588117 
L 97.42249 280.438137 
L 96.216078 278.288156 
L 94.967055 276.138176 
L 93.679401 273.988195 
L 92.359133 271.838215 
L 91.014395 269.688234 
L 89.655314 267.538254 
L 88.293633 265.388273 
L 86.94216 263.238293 
L 85.614104 261.088312 
L 84.322362 258.938332 
L 83.078876 256.788351 
L 81.894123 254.638371 
L 80.776806 252.48839 
L 79.733789 250.33841 
L 78.770263 248.188429 
L 77.8901 246.038449 
L 77.096303 243.888468 
L 76.39147 241.738488 
L 75.778131 239.588507 
L 75.258886 237.438527 
L 74.836258 235.288546 
L 74.512262 233.138566 
L 74.287713 230.988585 
L 74.161381 228.838605 
L 74.129113 226.688624 
L 74.183094 224.538644 
L 74.311396 222.388663 
L 74.497943 220.238683 
L 74.722982 218.088702 
L 74.964063 215.938722 
L 75.19748 213.788741 
L 75.400047 211.638761 
L 75.551032 209.48878 
L 75.634045 207.3388 
L 75.638666 205.188819 
L 75.561625 203.038839 
L 75.407384 200.888858 
L 75.188035 198.738878 
L 74.922523 196.588897 
L 74.635229 194.438917 
L 74.354068 192.288936 
L 74.10828 190.138956 
L 73.926125 187.988975 
L 73.832727 185.838995 
L 73.848256 183.689014 
L 73.986641 181.539034 
L 74.254909 179.389053 
L 74.653195 177.239073 
L 75.175382 175.089092 
L 75.810247 172.939112 
L 76.542952 170.789131 
L 77.356677 168.639151 
L 78.234175 166.489171 
L 79.159095 164.33919 
L 80.116927 162.18921 
L 81.095529 160.039229 
L 82.085231 157.889249 
L 83.078618 155.739268 
L 84.070078 153.589288 
L 85.055284 151.439307 
L 86.030716 149.289327 
L 86.993321 147.139346 
L 87.940375 144.989366 
L 88.869548 142.839385 
L 89.779118 140.689405 
L 90.668281 138.539424 
L 91.537457 136.389444 
L 92.388504 134.239463 
L 93.22477 132.089483 
L 94.050936 129.939502 
L 94.872645 127.789522 
L 95.695939 125.639541 
L 96.526564 123.489561 
L 97.369224 121.33958 
L 98.226883 119.1896 
L 99.100207 117.039619 
L 99.987218 114.889639 
L 100.883222 112.739658 
L 101.781019 110.589678 
L 102.671384 108.439697 
L 103.543759 106.289717 
L 104.387081 104.139736 
L 105.190651 101.989756 
L 105.944944 99.839775 
L 106.64228 97.689795 
L 107.277295 95.539814 
L 107.847165 93.389834 
L 108.351592 91.239853 
L 108.792575 89.089873 
L 109.174002 86.939892 
L 109.501138 84.789912 
L 109.780076 82.639931 
L 112.844099 82.639931 
L 112.844099 82.639931 
L 113.123037 84.789912 
L 113.450173 86.939892 
L 113.831599 89.089873 
L 114.272582 91.239853 
L 114.77701 93.389834 
L 115.34688 95.539814 
L 115.981895 97.689795 
L 116.679231 99.839775 
L 117.433523 101.989756 
L 118.237093 104.139736 
L 119.080416 106.289717 
L 119.952791 108.439697 
L 120.843155 110.589678 
L 121.740952 112.739658 
L 122.636956 114.889639 
L 123.523968 117.039619 
L 124.397292 119.1896 
L 125.254951 121.33958 
L 126.09761 123.489561 
L 126.928235 125.639541 
L 127.75153 127.789522 
L 128.573239 129.939502 
L 129.399404 132.089483 
L 130.23567 134.239463 
L 131.086718 136.389444 
L 131.955894 138.539424 
L 132.845057 140.689405 
L 133.754627 142.839385 
L 134.6838 144.989366 
L 135.630854 147.139346 
L 136.593458 149.289327 
L 137.56889 151.439307 
L 138.554097 153.589288 
L 139.545557 155.739268 
L 140.538943 157.889249 
L 141.528646 160.039229 
L 142.507248 162.18921 
L 143.46508 164.33919 
L 144.39 166.489171 
L 145.267498 168.639151 
L 146.081222 170.789131 
L 146.813928 172.939112 
L 147.448793 175.089092 
L 147.97098 177.239073 
L 148.369266 179.389053 
L 148.637534 181.539034 
L 148.775918 183.689014 
L 148.791447 185.838995 
L 148.698049 187.988975 
L 148.515895 190.138956 
L 148.270106 192.288936 
L 147.988946 194.438917 
L 147.701652 196.588897 
L 147.43614 198.738878 
L 147.216791 200.888858 
L 147.062549 203.038839 
L 146.985509 205.188819 
L 146.99013 207.3388 
L 147.073143 209.48878 
L 147.224127 211.638761 
L 147.426694 213.788741 
L 147.660112 215.938722 
L 147.901193 218.088702 
L 148.126232 220.238683 
L 148.312779 222.388663 
L 148.441081 224.538644 
L 148.495062 226.688624 
L 148.462794 228.838605 
L 148.336461 230.988585 
L 148.111913 233.138566 
L 147.787916 235.288546 
L 147.365288 237.438527 
L 146.846043 239.588507 
L 146.232705 241.738488 
L 145.527872 243.888468 
L 144.734075 246.038449 
L 143.853911 248.188429 
L 142.890386 250.33841 
L 141.847369 252.48839 
L 140.730051 254.638371 
L 139.545298 256.788351 
L 138.301813 258.938332 
L 137.010071 261.088312 
L 135.682014 263.238293 
L 134.330542 265.388273 
L 132.968861 267.538254 
L 131.60978 269.688234 
L 130.265042 271.838215 
L 128.944774 273.988195 
L 127.65712 276.138176 
L 126.408097 278.288156 
L 125.201685 280.438137 
L 124.040115 282.588117 
L 122.924319 284.738098 
L 121.854466 286.888078 
L 120.830498 289.038059 
L 119.852605 291.188039 
L 118.921568 293.33802 
L 118.038924 295.488 
z
" clip-path="url(#p0de7883e42)" style="fill: #1f77b4; fill-opacity: 0.3"/>
   </g>
   <g id="PolyCollection_2">
    <path d="M 196.925548 266.416069 
L 192.27356 266.416069 
L 191.956657 264.287064 
L 191.598568 262.158059 
L 191.189746 260.029053 
L 190.719547 257.900048 
L 190.176923 255.771043 
L 189.551291 253.642038 
L 188.83351 251.513033 
L 188.016869 249.384028 
L 187.09798 247.255023 
L 186.077452 245.126018 
L 184.960265 242.997013 
L 183.755767 240.868008 
L 182.477264 238.739003 
L 181.141238 236.609998 
L 179.766251 234.480993 
L 178.37166 232.351988 
L 176.976293 230.222982 
L 175.597245 228.093977 
L 174.24894 225.964972 
L 172.942591 223.835967 
L 171.686102 221.706962 
L 170.484432 219.577957 
L 169.340326 217.448952 
L 168.255314 215.319947 
L 167.230784 213.190942 
L 166.26897 211.061937 
L 165.373673 208.932932 
L 164.550599 206.803927 
L 163.807254 204.674922 
L 163.152386 202.545917 
L 162.595069 200.416911 
L 162.143533 198.287906 
L 161.803908 196.158901 
L 161.579046 194.029896 
L 161.467564 191.900891 
L 161.463228 189.771886 
L 161.554736 187.642881 
L 161.725933 185.513876 
L 161.956437 183.384871 
L 162.222619 181.255866 
L 162.49887 179.126861 
L 162.759077 176.997856 
L 162.978196 174.868851 
L 163.133831 172.739845 
L 163.207709 170.61084 
L 163.186915 168.481835 
L 163.064786 166.35283 
L 162.841334 164.223825 
L 162.523143 162.09482 
L 162.122683 159.965815 
L 161.657111 157.83681 
L 161.146651 155.707805 
L 160.612747 153.5788 
L 160.076222 151.449795 
L 159.555688 149.32079 
L 159.066413 147.191785 
L 158.619819 145.06278 
L 158.223623 142.933774 
L 157.882592 140.804769 
L 157.599719 138.675764 
L 157.377597 136.546759 
L 157.219706 134.417754 
L 157.13137 132.288749 
L 157.120194 130.159744 
L 157.195893 128.030739 
L 157.369534 125.901734 
L 157.652325 123.772729 
L 158.054164 121.643724 
L 158.582193 119.514719 
L 159.239619 117.385714 
L 160.024995 115.256709 
L 160.932094 113.127703 
L 161.950387 110.998698 
L 163.066065 108.869693 
L 164.263412 106.740688 
L 165.52633 104.611683 
L 166.839755 102.482678 
L 168.190755 100.353673 
L 169.569136 98.224668 
L 170.967506 96.095663 
L 172.380795 93.966658 
L 173.80537 91.837653 
L 175.237912 89.708648 
L 176.674283 87.579643 
L 178.10859 85.450638 
L 179.53262 83.321632 
L 180.935738 81.192627 
L 182.305267 79.063622 
L 183.627282 76.934617 
L 184.887673 74.805612 
L 186.073315 72.676607 
L 187.173161 70.547602 
L 188.179102 68.418597 
L 189.086492 66.289592 
L 189.894281 64.160587 
L 190.604792 62.031582 
L 191.223193 59.902577 
L 191.756767 57.773572 
L 192.214108 55.644567 
L 196.985 55.644567 
L 196.985 55.644567 
L 197.442342 57.773572 
L 197.975916 59.902577 
L 198.594316 62.031582 
L 199.304828 64.160587 
L 200.112617 66.289592 
L 201.020006 68.418597 
L 202.025948 70.547602 
L 203.125794 72.676607 
L 204.311435 74.805612 
L 205.571826 76.934617 
L 206.893841 79.063622 
L 208.263371 81.192627 
L 209.666488 83.321632 
L 211.090518 85.450638 
L 212.524825 87.579643 
L 213.961196 89.708648 
L 215.393738 91.837653 
L 216.818313 93.966658 
L 218.231602 96.095663 
L 219.629972 98.224668 
L 221.008353 100.353673 
L 222.359353 102.482678 
L 223.672779 104.611683 
L 224.935697 106.740688 
L 226.133043 108.869693 
L 227.248721 110.998698 
L 228.267014 113.127703 
L 229.174113 115.256709 
L 229.959489 117.385714 
L 230.616915 119.514719 
L 231.144944 121.643724 
L 231.546783 123.772729 
L 231.829574 125.901734 
L 232.003215 128.030739 
L 232.078914 130.159744 
L 232.067739 132.288749 
L 231.979403 134.417754 
L 231.821511 136.546759 
L 231.599389 138.675764 
L 231.316517 140.804769 
L 230.975485 142.933774 
L 230.579289 145.06278 
L 230.132695 147.191785 
L 229.643421 149.32079 
L 229.122886 151.449795 
L 228.586361 153.5788 
L 228.052457 155.707805 
L 227.541997 157.83681 
L 227.076425 159.965815 
L 226.675965 162.09482 
L 226.357774 164.223825 
L 226.134323 166.35283 
L 226.012193 168.481835 
L 225.9914 170.61084 
L 226.065277 172.739845 
L 226.220912 174.868851 
L 226.440031 176.997856 
L 226.700238 179.126861 
L 226.97649 181.255866 
L 227.242671 183.384871 
L 227.473175 185.513876 
L 227.644373 187.642881 
L 227.73588 189.771886 
L 227.731544 191.900891 
L 227.620062 194.029896 
L 227.3952 196.158901 
L 227.055575 198.287906 
L 226.604039 200.416911 
L 226.046722 202.545917 
L 225.391855 204.674922 
L 224.648509 206.803927 
L 223.825435 208.932932 
L 222.930138 211.061937 
L 221.968324 213.190942 
L 220.943794 215.319947 
L 219.858782 217.448952 
L 218.714676 219.577957 
L 217.513006 221.706962 
L 216.256518 223.835967 
L 214.950168 225.964972 
L 213.601863 228.093977 
L 212.222815 230.222982 
L 210.827448 232.351988 
L 209.432857 234.480993 
L 208.05787 236.609998 
L 206.721844 238.739003 
L 205.443341 240.868008 
L 204.238843 242.997013 
L 203.121656 245.126018 
L 202.101128 247.255023 
L 201.182239 249.384028 
L 200.365598 251.513033 
L 199.647817 253.642038 
L 199.022185 255.771043 
L 198.479561 257.900048 
L 198.009362 260.029053 
L 197.60054 262.158059 
L 197.242452 264.287064 
L 196.925548 266.416069 
z
" clip-path="url(#p0de7883e42)" style="fill: #1f77b4; fill-opacity: 0.3"/>
   </g>
   <g id="PolyCollection_3">
    <path d="M 279.145106 276.798901 
L 276.628935 276.798901 
L 276.40385 274.638433 
L 276.130677 272.477965 
L 275.798401 270.317497 
L 275.395305 268.157028 
L 274.909693 265.99656 
L 274.330773 263.836092 
L 273.649666 261.675624 
L 272.860431 259.515156 
L 271.960993 257.354687 
L 270.953848 255.194219 
L 269.84642 253.033751 
L 268.650953 250.873283 
L 267.383893 248.712815 
L 266.064768 246.552346 
L 264.714649 244.391878 
L 263.35435 242.23141 
L 262.002613 240.070942 
L 260.674492 237.910474 
L 259.38022 235.750005 
L 258.124723 233.589537 
L 256.907878 231.429069 
L 255.725526 229.268601 
L 254.571073 227.108133 
L 253.437472 224.947664 
L 252.319269 222.787196 
L 251.214416 220.626728 
L 250.125561 218.46626 
L 249.060628 216.305792 
L 248.032599 214.145323 
L 247.05853 211.984855 
L 246.157935 209.824387 
L 245.350765 207.663919 
L 244.655229 205.503451 
L 244.085722 203.342982 
L 243.651093 201.182514 
L 243.353419 199.022046 
L 243.187407 196.861578 
L 243.140451 194.70111 
L 243.19334 192.540641 
L 243.321532 190.380173 
L 243.496886 188.219705 
L 243.689693 186.059237 
L 243.87085 183.898769 
L 244.013972 181.7383 
L 244.097268 179.577832 
L 244.105003 177.417364 
L 244.02842 175.256896 
L 243.866026 173.096428 
L 243.623247 170.935959 
L 243.311511 168.775491 
L 242.946885 166.615023 
L 242.548473 164.454555 
L 242.13678 162.294087 
L 241.732257 160.133618 
L 241.354199 157.97315 
L 241.020084 155.812682 
L 240.745382 153.652214 
L 240.543736 151.491746 
L 240.42739 149.331277 
L 240.407661 147.170809 
L 240.495266 145.010341 
L 240.700356 142.849873 
L 241.032153 140.689405 
L 241.498206 138.528936 
L 242.103358 136.368468 
L 242.848587 134.208 
L 243.729941 132.047532 
L 244.737795 129.887064 
L 245.856607 127.726595 
L 247.065289 125.566127 
L 248.338215 123.405659 
L 249.646783 121.245191 
L 250.961363 119.084723 
L 252.253413 116.924254 
L 253.497505 114.763786 
L 254.67305 112.603318 
L 255.765534 110.44285 
L 256.767162 108.282382 
L 257.676883 106.121913 
L 258.49986 103.961445 
L 259.246472 101.800977 
L 259.93101 99.640509 
L 260.570214 97.480041 
L 261.181803 95.319572 
L 261.783112 93.159104 
L 262.389929 90.998636 
L 263.01559 88.838168 
L 263.670332 86.6777 
L 264.360925 84.517231 
L 265.090542 82.356763 
L 265.858847 80.196295 
L 266.662257 78.035827 
L 267.494355 75.875359 
L 268.346414 73.71489 
L 269.207993 71.554422 
L 270.067587 69.393954 
L 270.913286 67.233486 
L 271.73342 65.073018 
L 272.517142 62.912549 
L 283.2569 62.912549 
L 283.2569 62.912549 
L 284.040622 65.073018 
L 284.860755 67.233486 
L 285.706455 69.393954 
L 286.566049 71.554422 
L 287.427627 73.71489 
L 288.279686 75.875359 
L 289.111785 78.035827 
L 289.915195 80.196295 
L 290.683499 82.356763 
L 291.413117 84.517231 
L 292.10371 86.6777 
L 292.758452 88.838168 
L 293.384113 90.998636 
L 293.99093 93.159104 
L 294.592238 95.319572 
L 295.203827 97.480041 
L 295.843032 99.640509 
L 296.527569 101.800977 
L 297.274181 103.961445 
L 298.097159 106.121913 
L 299.00688 108.282382 
L 300.008507 110.44285 
L 301.100992 112.603318 
L 302.276537 114.763786 
L 303.520629 116.924254 
L 304.812678 119.084723 
L 306.127259 121.245191 
L 307.435827 123.405659 
L 308.708753 125.566127 
L 309.917435 127.726595 
L 311.036247 129.887064 
L 312.044101 132.047532 
L 312.925455 134.208 
L 313.670683 136.368468 
L 314.275836 138.528936 
L 314.741889 140.689405 
L 315.073685 142.849873 
L 315.278775 145.010341 
L 315.366381 147.170809 
L 315.346651 149.331277 
L 315.230305 151.491746 
L 315.028659 153.652214 
L 314.753957 155.812682 
L 314.419843 157.97315 
L 314.041785 160.133618 
L 313.637262 162.294087 
L 313.225568 164.454555 
L 312.827156 166.615023 
L 312.46253 168.775491 
L 312.150794 170.935959 
L 311.908016 173.096428 
L 311.745621 175.256896 
L 311.669038 177.417364 
L 311.676774 179.577832 
L 311.76007 181.7383 
L 311.903192 183.898769 
L 312.084349 186.059237 
L 312.277156 188.219705 
L 312.452509 190.380173 
L 312.580702 192.540641 
L 312.633591 194.70111 
L 312.586635 196.861578 
L 312.420622 199.022046 
L 312.122949 201.182514 
L 311.68832 203.342982 
L 311.118813 205.503451 
L 310.423277 207.663919 
L 309.616107 209.824387 
L 308.715512 211.984855 
L 307.741443 214.145323 
L 306.713414 216.305792 
L 305.648481 218.46626 
L 304.559626 220.626728 
L 303.454773 222.787196 
L 302.33657 224.947664 
L 301.202968 227.108133 
L 300.048516 229.268601 
L 298.866164 231.429069 
L 297.649319 233.589537 
L 296.393821 235.750005 
L 295.09955 237.910474 
L 293.771429 240.070942 
L 292.419691 242.23141 
L 291.059393 244.391878 
L 289.709273 246.552346 
L 288.390149 248.712815 
L 287.123089 250.873283 
L 285.927622 253.033751 
L 284.820194 255.194219 
L 283.813049 257.354687 
L 282.91361 259.515156 
L 282.124375 261.675624 
L 281.443269 263.836092 
L 280.864349 265.99656 
L 280.378736 268.157028 
L 279.975641 270.317497 
L 279.643364 272.477965 
L 279.370192 274.638433 
L 279.145106 276.798901 
z
" clip-path="url(#p0de7883e42)" style="fill: #1f77b4; fill-opacity: 0.3"/>
   </g>
   <g id="PolyCollection_4">
    <path d="M 364.131249 272.645768 
L 357.884576 272.645768 
L 357.373887 270.432861 
L 356.822093 268.219955 
L 356.232434 266.007048 
L 355.608445 263.794141 
L 354.953625 261.581234 
L 354.271141 259.368328 
L 353.563665 257.155421 
L 352.833375 254.942514 
L 352.082141 252.729607 
L 351.311888 250.516701 
L 350.525066 248.303794 
L 349.725131 246.090887 
L 348.916933 243.87798 
L 348.106887 241.665074 
L 347.302842 239.452167 
L 346.513602 237.23926 
L 345.748122 235.026353 
L 345.014446 232.813447 
L 344.318529 230.60054 
L 343.663109 228.387633 
L 343.046793 226.174726 
L 342.463541 223.96182 
L 341.902635 221.748913 
L 341.349207 219.536006 
L 340.785289 217.323099 
L 340.19132 215.110193 
L 339.547938 212.897286 
L 338.837894 210.684379 
L 338.047875 208.471472 
L 337.170045 206.258566 
L 336.203135 204.045659 
L 335.152969 201.832752 
L 334.032364 199.619845 
L 332.860415 197.406939 
L 331.661238 195.194032 
L 330.462311 192.981125 
L 329.292577 190.768218 
L 328.180502 188.555312 
L 327.152281 186.342405 
L 326.230343 184.129498 
L 325.432256 181.916591 
L 324.770095 179.703685 
L 324.250241 177.490778 
L 323.87356 175.277871 
L 323.635866 173.064964 
L 323.528553 170.852058 
L 323.53932 168.639151 
L 323.652917 166.426244 
L 323.851881 164.213337 
L 324.117289 162.000431 
L 324.429522 159.787524 
L 324.769104 157.574617 
L 325.117602 155.36171 
L 325.458588 153.148804 
L 325.778611 150.935897 
L 326.068088 148.72299 
L 326.322023 146.510083 
L 326.540449 144.297177 
L 326.728499 142.08427 
L 326.896065 139.871363 
L 327.057046 137.658456 
L 327.228233 135.44555 
L 327.42793 133.232643 
L 327.674456 131.019736 
L 327.98467 128.806829 
L 328.372674 126.593923 
L 328.848814 124.381016 
L 329.419048 122.168109 
L 330.084746 119.955202 
L 330.842872 117.742296 
L 331.686513 115.529389 
L 332.605664 113.316482 
L 333.588158 111.103575 
L 334.620641 108.890669 
L 335.6895 106.677762 
L 336.781665 104.464855 
L 337.885239 102.251948 
L 338.989918 100.039042 
L 340.087208 97.826135 
L 341.170447 95.613228 
L 342.234659 93.400321 
L 343.276293 91.187415 
L 344.292888 88.974508 
L 345.282716 86.761601 
L 346.244471 84.548694 
L 347.177023 82.335788 
L 348.079288 80.122881 
L 348.950205 77.909974 
L 349.78881 75.697067 
L 350.594381 73.484161 
L 351.366591 71.271254 
L 352.105639 69.058347 
L 352.812293 66.84544 
L 353.487842 64.632534 
L 354.133924 62.419627 
L 354.752288 60.20672 
L 355.344489 57.993813 
L 355.911607 55.780907 
L 356.454018 53.568 
L 365.561807 53.568 
L 365.561807 53.568 
L 366.104219 55.780907 
L 366.671337 57.993813 
L 367.263538 60.20672 
L 367.881901 62.419627 
L 368.527984 64.632534 
L 369.203532 66.84544 
L 369.910187 69.058347 
L 370.649234 71.271254 
L 371.421445 73.484161 
L 372.227015 75.697067 
L 373.06562 77.909974 
L 373.936537 80.122881 
L 374.838802 82.335788 
L 375.771355 84.548694 
L 376.733109 86.761601 
L 377.722938 88.974508 
L 378.739532 91.187415 
L 379.781167 93.400321 
L 380.845379 95.613228 
L 381.928617 97.826135 
L 383.025907 100.039042 
L 384.130586 102.251948 
L 385.23416 104.464855 
L 386.326326 106.677762 
L 387.395184 108.890669 
L 388.427667 111.103575 
L 389.410161 113.316482 
L 390.329312 115.529389 
L 391.172954 117.742296 
L 391.931079 119.955202 
L 392.596777 122.168109 
L 393.167012 124.381016 
L 393.643151 126.593923 
L 394.031156 128.806829 
L 394.34137 131.019736 
L 394.587895 133.232643 
L 394.787592 135.44555 
L 394.958779 137.658456 
L 395.119761 139.871363 
L 395.287327 142.08427 
L 395.475376 144.297177 
L 395.693802 146.510083 
L 395.947737 148.72299 
L 396.237214 150.935897 
L 396.557237 153.148804 
L 396.898224 155.36171 
L 397.246722 157.574617 
L 397.586303 159.787524 
L 397.898537 162.000431 
L 398.163944 164.213337 
L 398.362909 166.426244 
L 398.476505 168.639151 
L 398.487273 170.852058 
L 398.37996 173.064964 
L 398.142265 175.277871 
L 397.765585 177.490778 
L 397.24573 179.703685 
L 396.583569 181.916591 
L 395.785482 184.129498 
L 394.863544 186.342405 
L 393.835323 188.555312 
L 392.723248 190.768218 
L 391.553514 192.981125 
L 390.354588 195.194032 
L 389.155411 197.406939 
L 387.983461 199.619845 
L 386.862857 201.832752 
L 385.812691 204.045659 
L 384.845781 206.258566 
L 383.96795 208.471472 
L 383.177931 210.684379 
L 382.467887 212.897286 
L 381.824505 215.110193 
L 381.230536 217.323099 
L 380.666619 219.536006 
L 380.11319 221.748913 
L 379.552284 223.96182 
L 378.969032 226.174726 
L 378.352716 228.387633 
L 377.697296 230.60054 
L 377.00138 232.813447 
L 376.267704 235.026353 
L 375.502223 237.23926 
L 374.712983 239.452167 
L 373.908938 241.665074 
L 373.098892 243.87798 
L 372.290694 246.090887 
L 371.490759 248.303794 
L 370.703937 250.516701 
L 369.933685 252.729607 
L 369.182451 254.942514 
L 368.45216 257.155421 
L 367.744685 259.368328 
L 367.062201 261.581234 
L 366.40738 263.794141 
L 365.783392 266.007048 
L 365.193732 268.219955 
L 364.641939 270.432861 
L 364.131249 272.645768 
z
" clip-path="url(#p0de7883e42)" style="fill: #1f77b4; fill-opacity: 0.3"/>
   </g>
   <g id="matplotlib.axis_1">
    <g id="xtick_1">
     <g id="line2d_1">
      <defs>
       <path id="mb41a314cb5" d="M 0 0 
L 0 3.5 
" style="stroke: #000000; stroke-width: 0.8"/>
      </defs>
      <g>
       <use xlink:href="#mb41a314cb5" x="69.668354" y="307.584" style="stroke: #000000; stroke-width: 0.8"/>
      </g>
     </g>
     <g id="text_1">
      <!-- 250 -->
      <g transform="translate(60.124604 322.182437)scale(0.1 -0.1)">
       <defs>
        <path id="DejaVuSans-32" d="M 1228 531 
L 3431 531 
L 3431 0 
L 469 0 
L 469 531 
Q 828 903 1448 1529 
Q 2069 2156 2228 2338 
Q 2531 2678 2651 2914 
Q 2772 3150 2772 3378 
Q 2772 3750 2511 3984 
Q 2250 4219 1831 4219 
Q 1534 4219 1204 4116 
Q 875 4013 500 3803 
L 500 4441 
Q 881 4594 1212 4672 
Q 1544 4750 1819 4750 
Q 2544 4750 2975 4387 
Q 3406 4025 3406 3419 
Q 3406 3131 3298 2873 
Q 3191 2616 2906 2266 
Q 2828 2175 2409 1742 
Q 1991 1309 1228 531 
z
" transform="scale(0.015625)"/>
        <path id="DejaVuSans-35" d="M 691 4666 
L 3169 4666 
L 3169 4134 
L 1269 4134 
L 1269 2991 
Q 1406 3038 1543 3061 
Q 1681 3084 1819 3084 
Q 2600 3084 3056 2656 
Q 3513 2228 3513 1497 
Q 3513 744 3044 326 
Q 2575 -91 1722 -91 
Q 1428 -91 1123 -41 
Q 819 9 494 109 
L 494 744 
Q 775 591 1075 516 
Q 1375 441 1709 441 
Q 2250 441 2565 725 
Q 2881 1009 2881 1497 
Q 2881 1984 2565 2268 
Q 2250 2553 1709 2553 
Q 1456 2553 1204 2497 
Q 953 2441 691 2322 
L 691 4666 
z
" transform="scale(0.015625)"/>
        <path id="DejaVuSans-30" d="M 2034 4250 
Q 1547 4250 1301 3770 
Q 1056 3291 1056 2328 
Q 1056 1369 1301 889 
Q 1547 409 2034 409 
Q 2525 409 2770 889 
Q 3016 1369 3016 2328 
Q 3016 3291 2770 3770 
Q 2525 4250 2034 4250 
z
M 2034 4750 
Q 2819 4750 3233 4129 
Q 3647 3509 3647 2328 
Q 3647 1150 3233 529 
Q 2819 -91 2034 -91 
Q 1250 -91 836 529 
Q 422 1150 422 2328 
Q 422 3509 836 4129 
Q 1250 4750 2034 4750 
z
" transform="scale(0.015625)"/>
       </defs>
       <use xlink:href="#DejaVuSans-32"/>
       <use xlink:href="#DejaVuSans-35" x="63.623047"/>
       <use xlink:href="#DejaVuSans-30" x="127.246094"/>
      </g>
     </g>
    </g>
    <g id="xtick_2">
     <g id="line2d_2">
      <g>
       <use xlink:href="#mb41a314cb5" x="111.312087" y="307.584" style="stroke: #000000; stroke-width: 0.8"/>
      </g>
     </g>
     <g id="text_2">
      <!-- 500 -->
      <g transform="translate(101.768337 322.182437)scale(0.1 -0.1)">
       <use xlink:href="#DejaVuSans-35"/>
       <use xlink:href="#DejaVuSans-30" x="63.623047"/>
       <use xlink:href="#DejaVuSans-30" x="127.246094"/>
      </g>
     </g>
    </g>
    <g id="xtick_3">
     <g id="line2d_3">
      <g>
       <use xlink:href="#mb41a314cb5" x="152.955821" y="307.584" style="stroke: #000000; stroke-width: 0.8"/>
      </g>
     </g>
     <g id="text_3">
      <!-- 750 -->
      <g transform="translate(143.412071 322.182437)scale(0.1 -0.1)">
       <defs>
        <path id="DejaVuSans-37" d="M 525 4666 
L 3525 4666 
L 3525 4397 
L 1831 0 
L 1172 0 
L 2766 4134 
L 525 4134 
L 525 4666 
z
" transform="scale(0.015625)"/>
       </defs>
       <use xlink:href="#DejaVuSans-37"/>
       <use xlink:href="#DejaVuSans-35" x="63.623047"/>
       <use xlink:href="#DejaVuSans-30" x="127.246094"/>
      </g>
     </g>
    </g>
    <g id="xtick_4">
     <g id="line2d_4">
      <g>
       <use xlink:href="#mb41a314cb5" x="194.599554" y="307.584" style="stroke: #000000; stroke-width: 0.8"/>
      </g>
     </g>
     <g id="text_4">
      <!-- 1000 -->
      <g transform="translate(181.874554 322.182437)scale(0.1 -0.1)">
       <defs>
        <path id="DejaVuSans-31" d="M 794 531 
L 1825 531 
L 1825 4091 
L 703 3866 
L 703 4441 
L 1819 4666 
L 2450 4666 
L 2450 531 
L 3481 531 
L 3481 0 
L 794 0 
L 794 531 
z
" transform="scale(0.015625)"/>
       </defs>
       <use xlink:href="#DejaVuSans-31"/>
       <use xlink:href="#DejaVuSans-30" x="63.623047"/>
       <use xlink:href="#DejaVuSans-30" x="127.246094"/>
       <use xlink:href="#DejaVuSans-30" x="190.869141"/>
      </g>
     </g>
    </g>
    <g id="xtick_5">
     <g id="line2d_5">
      <g>
       <use xlink:href="#mb41a314cb5" x="236.243287" y="307.584" style="stroke: #000000; stroke-width: 0.8"/>
      </g>
     </g>
     <g id="text_5">
      <!-- 1250 -->
      <g transform="translate(223.518287 322.182437)scale(0.1 -0.1)">
       <use xlink:href="#DejaVuSans-31"/>
       <use xlink:href="#DejaVuSans-32" x="63.623047"/>
       <use xlink:href="#DejaVuSans-35" x="127.246094"/>
       <use xlink:href="#DejaVuSans-30" x="190.869141"/>
      </g>
     </g>
    </g>
    <g id="xtick_6">
     <g id="line2d_6">
      <g>
       <use xlink:href="#mb41a314cb5" x="277.887021" y="307.584" style="stroke: #000000; stroke-width: 0.8"/>
      </g>
     </g>
     <g id="text_6">
      <!-- 1500 -->
      <g transform="translate(265.162021 322.182437)scale(0.1 -0.1)">
       <use xlink:href="#DejaVuSans-31"/>
       <use xlink:href="#DejaVuSans-35" x="63.623047"/>
       <use xlink:href="#DejaVuSans-30" x="127.246094"/>
       <use xlink:href="#DejaVuSans-30" x="190.869141"/>
      </g>
     </g>
    </g>
    <g id="xtick_7">
     <g id="line2d_7">
      <g>
       <use xlink:href="#mb41a314cb5" x="319.530754" y="307.584" style="stroke: #000000; stroke-width: 0.8"/>
      </g>
     </g>
     <g id="text_7">
      <!-- 1750 -->
      <g transform="translate(306.805754 322.182437)scale(0.1 -0.1)">
       <use xlink:href="#DejaVuSans-31"/>
       <use xlink:href="#DejaVuSans-37" x="63.623047"/>
       <use xlink:href="#DejaVuSans-35" x="127.246094"/>
       <use xlink:href="#DejaVuSans-30" x="190.869141"/>
      </g>
     </g>
    </g>
    <g id="xtick_8">
     <g id="line2d_8">
      <g>
       <use xlink:href="#mb41a314cb5" x="361.174488" y="307.584" style="stroke: #000000; stroke-width: 0.8"/>
      </g>
     </g>
     <g id="text_8">
      <!-- 2000 -->
      <g transform="translate(348.449488 322.182437)scale(0.1 -0.1)">
       <use xlink:href="#DejaVuSans-32"/>
       <use xlink:href="#DejaVuSans-30" x="63.623047"/>
       <use xlink:href="#DejaVuSans-30" x="127.246094"/>
       <use xlink:href="#DejaVuSans-30" x="190.869141"/>
      </g>
     </g>
    </g>
    <g id="xtick_9">
     <g id="line2d_9">
      <g>
       <use xlink:href="#mb41a314cb5" x="402.818221" y="307.584" style="stroke: #000000; stroke-width: 0.8"/>
      </g>
     </g>
     <g id="text_9">
      <!-- 2250 -->
      <g transform="translate(390.093221 322.182437)scale(0.1 -0.1)">
       <use xlink:href="#DejaVuSans-32"/>
       <use xlink:href="#DejaVuSans-32" x="63.623047"/>
       <use xlink:href="#DejaVuSans-35" x="127.246094"/>
       <use xlink:href="#DejaVuSans-30" x="190.869141"/>
      </g>
     </g>
    </g>
    <g id="text_10">
     <!-- Learned Episodes -->
     <g transform="translate(192.102187 335.860562)scale(0.1 -0.1)">
      <defs>
       <path id="DejaVuSans-4c" d="M 628 4666 
L 1259 4666 
L 1259 531 
L 3531 531 
L 3531 0 
L 628 0 
L 628 4666 
z
" transform="scale(0.015625)"/>
       <path id="DejaVuSans-65" d="M 3597 1894 
L 3597 1613 
L 953 1613 
Q 991 1019 1311 708 
Q 1631 397 2203 397 
Q 2534 397 2845 478 
Q 3156 559 3463 722 
L 3463 178 
Q 3153 47 2828 -22 
Q 2503 -91 2169 -91 
Q 1331 -91 842 396 
Q 353 884 353 1716 
Q 353 2575 817 3079 
Q 1281 3584 2069 3584 
Q 2775 3584 3186 3129 
Q 3597 2675 3597 1894 
z
M 3022 2063 
Q 3016 2534 2758 2815 
Q 2500 3097 2075 3097 
Q 1594 3097 1305 2825 
Q 1016 2553 972 2059 
L 3022 2063 
z
" transform="scale(0.015625)"/>
       <path id="DejaVuSans-61" d="M 2194 1759 
Q 1497 1759 1228 1600 
Q 959 1441 959 1056 
Q 959 750 1161 570 
Q 1363 391 1709 391 
Q 2188 391 2477 730 
Q 2766 1069 2766 1631 
L 2766 1759 
L 2194 1759 
z
M 3341 1997 
L 3341 0 
L 2766 0 
L 2766 531 
Q 2569 213 2275 61 
Q 1981 -91 1556 -91 
Q 1019 -91 701 211 
Q 384 513 384 1019 
Q 384 1609 779 1909 
Q 1175 2209 1959 2209 
L 2766 2209 
L 2766 2266 
Q 2766 2663 2505 2880 
Q 2244 3097 1772 3097 
Q 1472 3097 1187 3025 
Q 903 2953 641 2809 
L 641 3341 
Q 956 3463 1253 3523 
Q 1550 3584 1831 3584 
Q 2591 3584 2966 3190 
Q 3341 2797 3341 1997 
z
" transform="scale(0.015625)"/>
       <path id="DejaVuSans-72" d="M 2631 2963 
Q 2534 3019 2420 3045 
Q 2306 3072 2169 3072 
Q 1681 3072 1420 2755 
Q 1159 2438 1159 1844 
L 1159 0 
L 581 0 
L 581 3500 
L 1159 3500 
L 1159 2956 
Q 1341 3275 1631 3429 
Q 1922 3584 2338 3584 
Q 2397 3584 2469 3576 
Q 2541 3569 2628 3553 
L 2631 2963 
z
" transform="scale(0.015625)"/>
       <path id="DejaVuSans-6e" d="M 3513 2113 
L 3513 0 
L 2938 0 
L 2938 2094 
Q 2938 2591 2744 2837 
Q 2550 3084 2163 3084 
Q 1697 3084 1428 2787 
Q 1159 2491 1159 1978 
L 1159 0 
L 581 0 
L 581 3500 
L 1159 3500 
L 1159 2956 
Q 1366 3272 1645 3428 
Q 1925 3584 2291 3584 
Q 2894 3584 3203 3211 
Q 3513 2838 3513 2113 
z
" transform="scale(0.015625)"/>
       <path id="DejaVuSans-64" d="M 2906 2969 
L 2906 4863 
L 3481 4863 
L 3481 0 
L 2906 0 
L 2906 525 
Q 2725 213 2448 61 
Q 2172 -91 1784 -91 
Q 1150 -91 751 415 
Q 353 922 353 1747 
Q 353 2572 751 3078 
Q 1150 3584 1784 3584 
Q 2172 3584 2448 3432 
Q 2725 3281 2906 2969 
z
M 947 1747 
Q 947 1113 1208 752 
Q 1469 391 1925 391 
Q 2381 391 2643 752 
Q 2906 1113 2906 1747 
Q 2906 2381 2643 2742 
Q 2381 3103 1925 3103 
Q 1469 3103 1208 2742 
Q 947 2381 947 1747 
z
" transform="scale(0.015625)"/>
       <path id="DejaVuSans-20" transform="scale(0.015625)"/>
       <path id="DejaVuSans-45" d="M 628 4666 
L 3578 4666 
L 3578 4134 
L 1259 4134 
L 1259 2753 
L 3481 2753 
L 3481 2222 
L 1259 2222 
L 1259 531 
L 3634 531 
L 3634 0 
L 628 0 
L 628 4666 
z
" transform="scale(0.015625)"/>
       <path id="DejaVuSans-70" d="M 1159 525 
L 1159 -1331 
L 581 -1331 
L 581 3500 
L 1159 3500 
L 1159 2969 
Q 1341 3281 1617 3432 
Q 1894 3584 2278 3584 
Q 2916 3584 3314 3078 
Q 3713 2572 3713 1747 
Q 3713 922 3314 415 
Q 2916 -91 2278 -91 
Q 1894 -91 1617 61 
Q 1341 213 1159 525 
z
M 3116 1747 
Q 3116 2381 2855 2742 
Q 2594 3103 2138 3103 
Q 1681 3103 1420 2742 
Q 1159 2381 1159 1747 
Q 1159 1113 1420 752 
Q 1681 391 2138 391 
Q 2594 391 2855 752 
Q 3116 1113 3116 1747 
z
" transform="scale(0.015625)"/>
       <path id="DejaVuSans-69" d="M 603 3500 
L 1178 3500 
L 1178 0 
L 603 0 
L 603 3500 
z
M 603 4863 
L 1178 4863 
L 1178 4134 
L 603 4134 
L 603 4863 
z
" transform="scale(0.015625)"/>
       <path id="DejaVuSans-73" d="M 2834 3397 
L 2834 2853 
Q 2591 2978 2328 3040 
Q 2066 3103 1784 3103 
Q 1356 3103 1142 2972 
Q 928 2841 928 2578 
Q 928 2378 1081 2264 
Q 1234 2150 1697 2047 
L 1894 2003 
Q 2506 1872 2764 1633 
Q 3022 1394 3022 966 
Q 3022 478 2636 193 
Q 2250 -91 1575 -91 
Q 1294 -91 989 -36 
Q 684 19 347 128 
L 347 722 
Q 666 556 975 473 
Q 1284 391 1588 391 
Q 1994 391 2212 530 
Q 2431 669 2431 922 
Q 2431 1156 2273 1281 
Q 2116 1406 1581 1522 
L 1381 1569 
Q 847 1681 609 1914 
Q 372 2147 372 2553 
Q 372 3047 722 3315 
Q 1072 3584 1716 3584 
Q 2034 3584 2315 3537 
Q 2597 3491 2834 3397 
z
" transform="scale(0.015625)"/>
       <path id="DejaVuSans-6f" d="M 1959 3097 
Q 1497 3097 1228 2736 
Q 959 2375 959 1747 
Q 959 1119 1226 758 
Q 1494 397 1959 397 
Q 2419 397 2687 759 
Q 2956 1122 2956 1747 
Q 2956 2369 2687 2733 
Q 2419 3097 1959 3097 
z
M 1959 3584 
Q 2709 3584 3137 3096 
Q 3566 2609 3566 1747 
Q 3566 888 3137 398 
Q 2709 -91 1959 -91 
Q 1206 -91 779 398 
Q 353 888 353 1747 
Q 353 2609 779 3096 
Q 1206 3584 1959 3584 
z
" transform="scale(0.015625)"/>
      </defs>
      <use xlink:href="#DejaVuSans-4c"/>
      <use xlink:href="#DejaVuSans-65" x="53.962891"/>
      <use xlink:href="#DejaVuSans-61" x="115.486328"/>
      <use xlink:href="#DejaVuSans-72" x="176.765625"/>
      <use xlink:href="#DejaVuSans-6e" x="216.128906"/>
      <use xlink:href="#DejaVuSans-65" x="279.507812"/>
      <use xlink:href="#DejaVuSans-64" x="341.03125"/>
      <use xlink:href="#DejaVuSans-20" x="404.507812"/>
      <use xlink:href="#DejaVuSans-45" x="436.294922"/>
      <use xlink:href="#DejaVuSans-70" x="499.478516"/>
      <use xlink:href="#DejaVuSans-69" x="562.955078"/>
      <use xlink:href="#DejaVuSans-73" x="590.738281"/>
      <use xlink:href="#DejaVuSans-6f" x="642.837891"/>
      <use xlink:href="#DejaVuSans-64" x="704.019531"/>
      <use xlink:href="#DejaVuSans-65" x="767.496094"/>
      <use xlink:href="#DejaVuSans-73" x="829.019531"/>
     </g>
    </g>
   </g>
   <g id="matplotlib.axis_2">
    <g id="ytick_1">
     <g id="line2d_10">
      <defs>
       <path id="mfff4386362" d="M 0 0 
L -3.5 0 
" style="stroke: #000000; stroke-width: 0.8"/>
      </defs>
      <g>
       <use xlink:href="#mfff4386362" x="57.6" y="297.564567" style="stroke: #000000; stroke-width: 0.8"/>
      </g>
     </g>
     <g id="text_11">
      <!-- 150 -->
      <g transform="translate(31.5125 301.363785)scale(0.1 -0.1)">
       <use xlink:href="#DejaVuSans-31"/>
       <use xlink:href="#DejaVuSans-35" x="63.623047"/>
       <use xlink:href="#DejaVuSans-30" x="127.246094"/>
      </g>
     </g>
    </g>
    <g id="ytick_2">
     <g id="line2d_11">
      <g>
       <use xlink:href="#mfff4386362" x="57.6" y="245.650403" style="stroke: #000000; stroke-width: 0.8"/>
      </g>
     </g>
     <g id="text_12">
      <!-- 200 -->
      <g transform="translate(31.5125 249.449622)scale(0.1 -0.1)">
       <use xlink:href="#DejaVuSans-32"/>
       <use xlink:href="#DejaVuSans-30" x="63.623047"/>
       <use xlink:href="#DejaVuSans-30" x="127.246094"/>
      </g>
     </g>
    </g>
    <g id="ytick_3">
     <g id="line2d_12">
      <g>
       <use xlink:href="#mfff4386362" x="57.6" y="193.73624" style="stroke: #000000; stroke-width: 0.8"/>
      </g>
     </g>
     <g id="text_13">
      <!-- 250 -->
      <g transform="translate(31.5125 197.535459)scale(0.1 -0.1)">
       <use xlink:href="#DejaVuSans-32"/>
       <use xlink:href="#DejaVuSans-35" x="63.623047"/>
       <use xlink:href="#DejaVuSans-30" x="127.246094"/>
      </g>
     </g>
    </g>
    <g id="ytick_4">
     <g id="line2d_13">
      <g>
       <use xlink:href="#mfff4386362" x="57.6" y="141.822077" style="stroke: #000000; stroke-width: 0.8"/>
      </g>
     </g>
     <g id="text_14">
      <!-- 300 -->
      <g transform="translate(31.5125 145.621296)scale(0.1 -0.1)">
       <defs>
        <path id="DejaVuSans-33" d="M 2597 2516 
Q 3050 2419 3304 2112 
Q 3559 1806 3559 1356 
Q 3559 666 3084 287 
Q 2609 -91 1734 -91 
Q 1441 -91 1130 -33 
Q 819 25 488 141 
L 488 750 
Q 750 597 1062 519 
Q 1375 441 1716 441 
Q 2309 441 2620 675 
Q 2931 909 2931 1356 
Q 2931 1769 2642 2001 
Q 2353 2234 1838 2234 
L 1294 2234 
L 1294 2753 
L 1863 2753 
Q 2328 2753 2575 2939 
Q 2822 3125 2822 3475 
Q 2822 3834 2567 4026 
Q 2313 4219 1838 4219 
Q 1578 4219 1281 4162 
Q 984 4106 628 3988 
L 628 4550 
Q 988 4650 1302 4700 
Q 1616 4750 1894 4750 
Q 2613 4750 3031 4423 
Q 3450 4097 3450 3541 
Q 3450 3153 3228 2886 
Q 3006 2619 2597 2516 
z
" transform="scale(0.015625)"/>
       </defs>
       <use xlink:href="#DejaVuSans-33"/>
       <use xlink:href="#DejaVuSans-30" x="63.623047"/>
       <use xlink:href="#DejaVuSans-30" x="127.246094"/>
      </g>
     </g>
    </g>
    <g id="ytick_5">
     <g id="line2d_14">
      <g>
       <use xlink:href="#mfff4386362" x="57.6" y="89.907914" style="stroke: #000000; stroke-width: 0.8"/>
      </g>
     </g>
     <g id="text_15">
      <!-- 350 -->
      <g transform="translate(31.5125 93.707133)scale(0.1 -0.1)">
       <use xlink:href="#DejaVuSans-33"/>
       <use xlink:href="#DejaVuSans-35" x="63.623047"/>
       <use xlink:href="#DejaVuSans-30" x="127.246094"/>
      </g>
     </g>
    </g>
    <g id="text_16">
     <!-- Reward Density -->
     <g transform="translate(25.432812 213.74675)rotate(-90)scale(0.1 -0.1)">
      <defs>
       <path id="DejaVuSans-52" d="M 2841 2188 
Q 3044 2119 3236 1894 
Q 3428 1669 3622 1275 
L 4263 0 
L 3584 0 
L 2988 1197 
Q 2756 1666 2539 1819 
Q 2322 1972 1947 1972 
L 1259 1972 
L 1259 0 
L 628 0 
L 628 4666 
L 2053 4666 
Q 2853 4666 3247 4331 
Q 3641 3997 3641 3322 
Q 3641 2881 3436 2590 
Q 3231 2300 2841 2188 
z
M 1259 4147 
L 1259 2491 
L 2053 2491 
Q 2509 2491 2742 2702 
Q 2975 2913 2975 3322 
Q 2975 3731 2742 3939 
Q 2509 4147 2053 4147 
L 1259 4147 
z
" transform="scale(0.015625)"/>
       <path id="DejaVuSans-77" d="M 269 3500 
L 844 3500 
L 1563 769 
L 2278 3500 
L 2956 3500 
L 3675 769 
L 4391 3500 
L 4966 3500 
L 4050 0 
L 3372 0 
L 2619 2869 
L 1863 0 
L 1184 0 
L 269 3500 
z
" transform="scale(0.015625)"/>
       <path id="DejaVuSans-44" d="M 1259 4147 
L 1259 519 
L 2022 519 
Q 2988 519 3436 956 
Q 3884 1394 3884 2338 
Q 3884 3275 3436 3711 
Q 2988 4147 2022 4147 
L 1259 4147 
z
M 628 4666 
L 1925 4666 
Q 3281 4666 3915 4102 
Q 4550 3538 4550 2338 
Q 4550 1131 3912 565 
Q 3275 0 1925 0 
L 628 0 
L 628 4666 
z
" transform="scale(0.015625)"/>
       <path id="DejaVuSans-74" d="M 1172 4494 
L 1172 3500 
L 2356 3500 
L 2356 3053 
L 1172 3053 
L 1172 1153 
Q 1172 725 1289 603 
Q 1406 481 1766 481 
L 2356 481 
L 2356 0 
L 1766 0 
Q 1100 0 847 248 
Q 594 497 594 1153 
L 594 3053 
L 172 3053 
L 172 3500 
L 594 3500 
L 594 4494 
L 1172 4494 
z
" transform="scale(0.015625)"/>
       <path id="DejaVuSans-79" d="M 2059 -325 
Q 1816 -950 1584 -1140 
Q 1353 -1331 966 -1331 
L 506 -1331 
L 506 -850 
L 844 -850 
Q 1081 -850 1212 -737 
Q 1344 -625 1503 -206 
L 1606 56 
L 191 3500 
L 800 3500 
L 1894 763 
L 2988 3500 
L 3597 3500 
L 2059 -325 
z
" transform="scale(0.015625)"/>
      </defs>
      <use xlink:href="#DejaVuSans-52"/>
      <use xlink:href="#DejaVuSans-65" x="64.982422"/>
      <use xlink:href="#DejaVuSans-77" x="126.505859"/>
      <use xlink:href="#DejaVuSans-61" x="208.292969"/>
      <use xlink:href="#DejaVuSans-72" x="269.572266"/>
      <use xlink:href="#DejaVuSans-64" x="308.935547"/>
      <use xlink:href="#DejaVuSans-20" x="372.412109"/>
      <use xlink:href="#DejaVuSans-44" x="404.199219"/>
      <use xlink:href="#DejaVuSans-65" x="481.201172"/>
      <use xlink:href="#DejaVuSans-6e" x="542.724609"/>
      <use xlink:href="#DejaVuSans-73" x="606.103516"/>
      <use xlink:href="#DejaVuSans-69" x="658.203125"/>
      <use xlink:href="#DejaVuSans-74" x="685.986328"/>
      <use xlink:href="#DejaVuSans-79" x="725.195312"/>
     </g>
    </g>
   </g>
   <g id="LineCollection_1">
    <path d="M 92.572407 201.668724 
L 130.051767 201.668724 
" clip-path="url(#p0de7883e42)" style="fill: none; stroke: #1f77b4; stroke-width: 1.5"/>
    <path d="M 175.859874 158.14389 
L 213.339234 158.14389 
" clip-path="url(#p0de7883e42)" style="fill: none; stroke: #1f77b4; stroke-width: 1.5"/>
    <path d="M 259.147341 164.7183 
L 296.626701 164.7183 
" clip-path="url(#p0de7883e42)" style="fill: none; stroke: #1f77b4; stroke-width: 1.5"/>
    <path d="M 342.268233 159.198786 
L 379.747593 159.198786 
" clip-path="url(#p0de7883e42)" style="fill: none; stroke: #1f77b4; stroke-width: 1.5"/>
   </g>
   <g id="LineCollection_2">
    <path d="M 92.572407 82.639931 
L 130.051767 82.639931 
" clip-path="url(#p0de7883e42)" style="fill: none; stroke: #1f77b4; stroke-width: 1.5"/>
    <path d="M 175.859874 55.644567 
L 213.339234 55.644567 
" clip-path="url(#p0de7883e42)" style="fill: none; stroke: #1f77b4; stroke-width: 1.5"/>
    <path d="M 259.147341 62.912549 
L 296.626701 62.912549 
" clip-path="url(#p0de7883e42)" style="fill: none; stroke: #1f77b4; stroke-width: 1.5"/>
    <path d="M 342.268233 53.568 
L 379.747593 53.568 
" clip-path="url(#p0de7883e42)" style="fill: none; stroke: #1f77b4; stroke-width: 1.5"/>
   </g>
   <g id="LineCollection_3">
    <path d="M 92.572407 295.488 
L 130.051767 295.488 
" clip-path="url(#p0de7883e42)" style="fill: none; stroke: #1f77b4; stroke-width: 1.5"/>
    <path d="M 175.859874 266.416069 
L 213.339234 266.416069 
" clip-path="url(#p0de7883e42)" style="fill: none; stroke: #1f77b4; stroke-width: 1.5"/>
    <path d="M 259.147341 276.798901 
L 296.626701 276.798901 
" clip-path="url(#p0de7883e42)" style="fill: none; stroke: #1f77b4; stroke-width: 1.5"/>
    <path d="M 342.268233 272.645768 
L 379.747593 272.645768 
" clip-path="url(#p0de7883e42)" style="fill: none; stroke: #1f77b4; stroke-width: 1.5"/>
   </g>
   <g id="LineCollection_4">
    <path d="M 111.312087 295.488 
L 111.312087 82.639931 
" clip-path="url(#p0de7883e42)" style="fill: none; stroke: #1f77b4; stroke-width: 1.5"/>
    <path d="M 194.599554 266.416069 
L 194.599554 55.644567 
" clip-path="url(#p0de7883e42)" style="fill: none; stroke: #1f77b4; stroke-width: 1.5"/>
    <path d="M 277.887021 276.798901 
L 277.887021 62.912549 
" clip-path="url(#p0de7883e42)" style="fill: none; stroke: #1f77b4; stroke-width: 1.5"/>
    <path d="M 361.007913 272.645768 
L 361.007913 53.568 
" clip-path="url(#p0de7883e42)" style="fill: none; stroke: #1f77b4; stroke-width: 1.5"/>
   </g>
   <g id="line2d_15">
    <path d="M 111.312087 201.668724 
L 194.599554 158.14389 
L 277.887021 164.7183 
L 361.007913 159.198786 
" clip-path="url(#p0de7883e42)" style="fill: none; stroke: #4682b4; stroke-width: 1.5; stroke-linecap: square"/>
   </g>
   <g id="patch_3">
    <path d="M 57.6 307.584 
L 57.6 41.472 
" style="fill: none; stroke: #000000; stroke-width: 0.8; stroke-linejoin: miter; stroke-linecap: square"/>
   </g>
   <g id="patch_4">
    <path d="M 414.72 307.584 
L 414.72 41.472 
" style="fill: none; stroke: #000000; stroke-width: 0.8; stroke-linejoin: miter; stroke-linecap: square"/>
   </g>
   <g id="patch_5">
    <path d="M 57.6 307.584 
L 414.72 307.584 
" style="fill: none; stroke: #000000; stroke-width: 0.8; stroke-linejoin: miter; stroke-linecap: square"/>
   </g>
   <g id="patch_6">
    <path d="M 57.6 41.472 
L 414.72 41.472 
" style="fill: none; stroke: #000000; stroke-width: 0.8; stroke-linejoin: miter; stroke-linecap: square"/>
   </g>
   <g id="text_17">
    <!-- Violinplot for progress of customer/purchases_new -->
    <g transform="translate(84.319688 35.472)scale(0.12 -0.12)">
     <defs>
      <path id="DejaVuSans-56" d="M 1831 0 
L 50 4666 
L 709 4666 
L 2188 738 
L 3669 4666 
L 4325 4666 
L 2547 0 
L 1831 0 
z
" transform="scale(0.015625)"/>
      <path id="DejaVuSans-6c" d="M 603 4863 
L 1178 4863 
L 1178 0 
L 603 0 
L 603 4863 
z
" transform="scale(0.015625)"/>
      <path id="DejaVuSans-66" d="M 2375 4863 
L 2375 4384 
L 1825 4384 
Q 1516 4384 1395 4259 
Q 1275 4134 1275 3809 
L 1275 3500 
L 2222 3500 
L 2222 3053 
L 1275 3053 
L 1275 0 
L 697 0 
L 697 3053 
L 147 3053 
L 147 3500 
L 697 3500 
L 697 3744 
Q 697 4328 969 4595 
Q 1241 4863 1831 4863 
L 2375 4863 
z
" transform="scale(0.015625)"/>
      <path id="DejaVuSans-67" d="M 2906 1791 
Q 2906 2416 2648 2759 
Q 2391 3103 1925 3103 
Q 1463 3103 1205 2759 
Q 947 2416 947 1791 
Q 947 1169 1205 825 
Q 1463 481 1925 481 
Q 2391 481 2648 825 
Q 2906 1169 2906 1791 
z
M 3481 434 
Q 3481 -459 3084 -895 
Q 2688 -1331 1869 -1331 
Q 1566 -1331 1297 -1286 
Q 1028 -1241 775 -1147 
L 775 -588 
Q 1028 -725 1275 -790 
Q 1522 -856 1778 -856 
Q 2344 -856 2625 -561 
Q 2906 -266 2906 331 
L 2906 616 
Q 2728 306 2450 153 
Q 2172 0 1784 0 
Q 1141 0 747 490 
Q 353 981 353 1791 
Q 353 2603 747 3093 
Q 1141 3584 1784 3584 
Q 2172 3584 2450 3431 
Q 2728 3278 2906 2969 
L 2906 3500 
L 3481 3500 
L 3481 434 
z
" transform="scale(0.015625)"/>
      <path id="DejaVuSans-63" d="M 3122 3366 
L 3122 2828 
Q 2878 2963 2633 3030 
Q 2388 3097 2138 3097 
Q 1578 3097 1268 2742 
Q 959 2388 959 1747 
Q 959 1106 1268 751 
Q 1578 397 2138 397 
Q 2388 397 2633 464 
Q 2878 531 3122 666 
L 3122 134 
Q 2881 22 2623 -34 
Q 2366 -91 2075 -91 
Q 1284 -91 818 406 
Q 353 903 353 1747 
Q 353 2603 823 3093 
Q 1294 3584 2113 3584 
Q 2378 3584 2631 3529 
Q 2884 3475 3122 3366 
z
" transform="scale(0.015625)"/>
      <path id="DejaVuSans-75" d="M 544 1381 
L 544 3500 
L 1119 3500 
L 1119 1403 
Q 1119 906 1312 657 
Q 1506 409 1894 409 
Q 2359 409 2629 706 
Q 2900 1003 2900 1516 
L 2900 3500 
L 3475 3500 
L 3475 0 
L 2900 0 
L 2900 538 
Q 2691 219 2414 64 
Q 2138 -91 1772 -91 
Q 1169 -91 856 284 
Q 544 659 544 1381 
z
M 1991 3584 
L 1991 3584 
z
" transform="scale(0.015625)"/>
      <path id="DejaVuSans-6d" d="M 3328 2828 
Q 3544 3216 3844 3400 
Q 4144 3584 4550 3584 
Q 5097 3584 5394 3201 
Q 5691 2819 5691 2113 
L 5691 0 
L 5113 0 
L 5113 2094 
Q 5113 2597 4934 2840 
Q 4756 3084 4391 3084 
Q 3944 3084 3684 2787 
Q 3425 2491 3425 1978 
L 3425 0 
L 2847 0 
L 2847 2094 
Q 2847 2600 2669 2842 
Q 2491 3084 2119 3084 
Q 1678 3084 1418 2786 
Q 1159 2488 1159 1978 
L 1159 0 
L 581 0 
L 581 3500 
L 1159 3500 
L 1159 2956 
Q 1356 3278 1631 3431 
Q 1906 3584 2284 3584 
Q 2666 3584 2933 3390 
Q 3200 3197 3328 2828 
z
" transform="scale(0.015625)"/>
      <path id="DejaVuSans-2f" d="M 1625 4666 
L 2156 4666 
L 531 -594 
L 0 -594 
L 1625 4666 
z
" transform="scale(0.015625)"/>
      <path id="DejaVuSans-68" d="M 3513 2113 
L 3513 0 
L 2938 0 
L 2938 2094 
Q 2938 2591 2744 2837 
Q 2550 3084 2163 3084 
Q 1697 3084 1428 2787 
Q 1159 2491 1159 1978 
L 1159 0 
L 581 0 
L 581 4863 
L 1159 4863 
L 1159 2956 
Q 1366 3272 1645 3428 
Q 1925 3584 2291 3584 
Q 2894 3584 3203 3211 
Q 3513 2838 3513 2113 
z
" transform="scale(0.015625)"/>
      <path id="DejaVuSans-5f" d="M 3263 -1063 
L 3263 -1509 
L -63 -1509 
L -63 -1063 
L 3263 -1063 
z
" transform="scale(0.015625)"/>
     </defs>
     <use xlink:href="#DejaVuSans-56"/>
     <use xlink:href="#DejaVuSans-69" x="66.158203"/>
     <use xlink:href="#DejaVuSans-6f" x="93.941406"/>
     <use xlink:href="#DejaVuSans-6c" x="155.123047"/>
     <use xlink:href="#DejaVuSans-69" x="182.90625"/>
     <use xlink:href="#DejaVuSans-6e" x="210.689453"/>
     <use xlink:href="#DejaVuSans-70" x="274.068359"/>
     <use xlink:href="#DejaVuSans-6c" x="337.544922"/>
     <use xlink:href="#DejaVuSans-6f" x="365.328125"/>
     <use xlink:href="#DejaVuSans-74" x="426.509766"/>
     <use xlink:href="#DejaVuSans-20" x="465.71875"/>
     <use xlink:href="#DejaVuSans-66" x="497.505859"/>
     <use xlink:href="#DejaVuSans-6f" x="532.710938"/>
     <use xlink:href="#DejaVuSans-72" x="593.892578"/>
     <use xlink:href="#DejaVuSans-20" x="635.005859"/>
     <use xlink:href="#DejaVuSans-70" x="666.792969"/>
     <use xlink:href="#DejaVuSans-72" x="730.269531"/>
     <use xlink:href="#DejaVuSans-6f" x="769.132812"/>
     <use xlink:href="#DejaVuSans-67" x="830.314453"/>
     <use xlink:href="#DejaVuSans-72" x="893.791016"/>
     <use xlink:href="#DejaVuSans-65" x="932.654297"/>
     <use xlink:href="#DejaVuSans-73" x="994.177734"/>
     <use xlink:href="#DejaVuSans-73" x="1046.277344"/>
     <use xlink:href="#DejaVuSans-20" x="1098.376953"/>
     <use xlink:href="#DejaVuSans-6f" x="1130.164062"/>
     <use xlink:href="#DejaVuSans-66" x="1191.345703"/>
     <use xlink:href="#DejaVuSans-20" x="1226.550781"/>
     <use xlink:href="#DejaVuSans-63" x="1258.337891"/>
     <use xlink:href="#DejaVuSans-75" x="1313.318359"/>
     <use xlink:href="#DejaVuSans-73" x="1376.697266"/>
     <use xlink:href="#DejaVuSans-74" x="1428.796875"/>
     <use xlink:href="#DejaVuSans-6f" x="1468.005859"/>
     <use xlink:href="#DejaVuSans-6d" x="1529.1875"/>
     <use xlink:href="#DejaVuSans-65" x="1626.599609"/>
     <use xlink:href="#DejaVuSans-72" x="1688.123047"/>
     <use xlink:href="#DejaVuSans-2f" x="1729.236328"/>
     <use xlink:href="#DejaVuSans-70" x="1762.927734"/>
     <use xlink:href="#DejaVuSans-75" x="1826.404297"/>
     <use xlink:href="#DejaVuSans-72" x="1889.783203"/>
     <use xlink:href="#DejaVuSans-63" x="1928.646484"/>
     <use xlink:href="#DejaVuSans-68" x="1983.626953"/>
     <use xlink:href="#DejaVuSans-61" x="2047.005859"/>
     <use xlink:href="#DejaVuSans-73" x="2108.285156"/>
     <use xlink:href="#DejaVuSans-65" x="2160.384766"/>
     <use xlink:href="#DejaVuSans-73" x="2221.908203"/>
     <use xlink:href="#DejaVuSans-5f" x="2274.007812"/>
     <use xlink:href="#DejaVuSans-6e" x="2324.007812"/>
     <use xlink:href="#DejaVuSans-65" x="2387.386719"/>
     <use xlink:href="#DejaVuSans-77" x="2448.910156"/>
    </g>
   </g>
   <g id="legend_1">
    <g id="patch_7">
     <path d="M 284.430938 64.150125 
L 407.72 64.150125 
Q 409.72 64.150125 409.72 62.150125 
L 409.72 48.472 
Q 409.72 46.472 407.72 46.472 
L 284.430938 46.472 
Q 282.430938 46.472 282.430938 48.472 
L 282.430938 62.150125 
Q 282.430938 64.150125 284.430938 64.150125 
z
" style="fill: #ffffff; opacity: 0.8; stroke: #cccccc; stroke-linejoin: miter"/>
    </g>
    <g id="line2d_16">
     <path d="M 286.430938 54.570438 
L 296.430938 54.570438 
L 306.430938 54.570438 
" style="fill: none; stroke: #4682b4; stroke-width: 1.5; stroke-linecap: square"/>
    </g>
    <g id="text_18">
     <!-- Storage-Minimizer -->
     <g transform="translate(314.430938 58.070438)scale(0.1 -0.1)">
      <defs>
       <path id="DejaVuSans-53" d="M 3425 4513 
L 3425 3897 
Q 3066 4069 2747 4153 
Q 2428 4238 2131 4238 
Q 1616 4238 1336 4038 
Q 1056 3838 1056 3469 
Q 1056 3159 1242 3001 
Q 1428 2844 1947 2747 
L 2328 2669 
Q 3034 2534 3370 2195 
Q 3706 1856 3706 1288 
Q 3706 609 3251 259 
Q 2797 -91 1919 -91 
Q 1588 -91 1214 -16 
Q 841 59 441 206 
L 441 856 
Q 825 641 1194 531 
Q 1563 422 1919 422 
Q 2459 422 2753 634 
Q 3047 847 3047 1241 
Q 3047 1584 2836 1778 
Q 2625 1972 2144 2069 
L 1759 2144 
Q 1053 2284 737 2584 
Q 422 2884 422 3419 
Q 422 4038 858 4394 
Q 1294 4750 2059 4750 
Q 2388 4750 2728 4690 
Q 3069 4631 3425 4513 
z
" transform="scale(0.015625)"/>
       <path id="DejaVuSans-2d" d="M 313 2009 
L 1997 2009 
L 1997 1497 
L 313 1497 
L 313 2009 
z
" transform="scale(0.015625)"/>
       <path id="DejaVuSans-4d" d="M 628 4666 
L 1569 4666 
L 2759 1491 
L 3956 4666 
L 4897 4666 
L 4897 0 
L 4281 0 
L 4281 4097 
L 3078 897 
L 2444 897 
L 1241 4097 
L 1241 0 
L 628 0 
L 628 4666 
z
" transform="scale(0.015625)"/>
       <path id="DejaVuSans-7a" d="M 353 3500 
L 3084 3500 
L 3084 2975 
L 922 459 
L 3084 459 
L 3084 0 
L 275 0 
L 275 525 
L 2438 3041 
L 353 3041 
L 353 3500 
z
" transform="scale(0.015625)"/>
      </defs>
      <use xlink:href="#DejaVuSans-53"/>
      <use xlink:href="#DejaVuSans-74" x="63.476562"/>
      <use xlink:href="#DejaVuSans-6f" x="102.685547"/>
      <use xlink:href="#DejaVuSans-72" x="163.867188"/>
      <use xlink:href="#DejaVuSans-61" x="204.980469"/>
      <use xlink:href="#DejaVuSans-67" x="266.259766"/>
      <use xlink:href="#DejaVuSans-65" x="329.736328"/>
      <use xlink:href="#DejaVuSans-2d" x="391.259766"/>
      <use xlink:href="#DejaVuSans-4d" x="427.34375"/>
      <use xlink:href="#DejaVuSans-69" x="513.623047"/>
      <use xlink:href="#DejaVuSans-6e" x="541.40625"/>
      <use xlink:href="#DejaVuSans-69" x="604.785156"/>
      <use xlink:href="#DejaVuSans-6d" x="632.568359"/>
      <use xlink:href="#DejaVuSans-69" x="729.980469"/>
      <use xlink:href="#DejaVuSans-7a" x="757.763672"/>
      <use xlink:href="#DejaVuSans-65" x="810.253906"/>
      <use xlink:href="#DejaVuSans-72" x="871.777344"/>
     </g>
    </g>
   </g>
  </g>
 </g>
 <defs>
  <clipPath id="p0de7883e42">
   <rect x="57.6" y="41.472" width="357.12" height="266.112"/>
  </clipPath>
 </defs>
</svg>
