<?xml version="1.0" encoding="utf-8" standalone="no"?>
<!DOCTYPE svg PUBLIC "-//W3C//DTD SVG 1.1//EN"
  "http://www.w3.org/Graphics/SVG/1.1/DTD/svg11.dtd">
<svg xmlns:xlink="http://www.w3.org/1999/xlink" width="460.8pt" height="345.6pt" viewBox="0 0 460.8 345.6" xmlns="http://www.w3.org/2000/svg" version="1.1">
 <metadata>
  <rdf:RDF xmlns:dc="http://purl.org/dc/elements/1.1/" xmlns:cc="http://creativecommons.org/ns#" xmlns:rdf="http://www.w3.org/1999/02/22-rdf-syntax-ns#">
   <cc:Work>
    <dc:type rdf:resource="http://purl.org/dc/dcmitype/StillImage"/>
    <dc:date>2022-06-20T17:59:09.676797</dc:date>
    <dc:format>image/svg+xml</dc:format>
    <dc:creator>
     <cc:Agent>
      <dc:title>Matplotlib v3.5.2, https://matplotlib.org/</dc:title>
     </cc:Agent>
    </dc:creator>
   </cc:Work>
  </rdf:RDF>
 </metadata>
 <defs>
  <style type="text/css">*{stroke-linejoin: round; stroke-linecap: butt}</style>
 </defs>
 <g id="figure_1">
  <g id="patch_1">
   <path d="M 0 345.6 
L 460.8 345.6 
L 460.8 0 
L 0 0 
z
" style="fill: #ffffff"/>
  </g>
  <g id="axes_1">
   <g id="patch_2">
    <path d="M 57.6 307.584 
L 414.72 307.584 
L 414.72 41.472 
L 57.6 41.472 
z
" style="fill: #ffffff"/>
   </g>
   <g id="PolyCollection_1">
    <path d="M 108.285404 295.488 
L 107.728376 295.488 
L 107.715205 294.34114 
L 107.701139 293.19428 
L 107.680145 292.04742 
L 107.64382 290.90056 
L 107.581301 289.7537 
L 107.479164 288.60684 
L 107.321289 287.45998 
L 107.088769 286.31312 
L 106.759996 285.16626 
L 106.311119 284.0194 
L 105.717027 282.87254 
L 104.952961 281.72568 
L 103.996654 280.57882 
L 102.830804 279.43196 
L 101.44551 278.2851 
L 99.840291 277.13824 
L 98.025344 275.99138 
L 96.021895 274.84452 
L 93.861628 273.69766 
L 91.58541 272.5508 
L 89.241572 271.40394 
L 86.884033 270.25708 
L 84.570394 269.11022 
L 82.35999 267.96336 
L 80.311672 266.8165 
L 78.481079 265.66964 
L 76.917169 264.52278 
L 75.658084 263.37592 
L 74.726763 262.22906 
L 74.127122 261.0822 
L 73.841841 259.93534 
L 73.832727 258.78848 
L 74.044187 257.64162 
L 74.409601 256.49476 
L 74.859607 255.3479 
L 75.330679 254.20104 
L 75.772237 253.05418 
L 76.150941 251.90732 
L 76.451603 250.76046 
L 76.675105 249.6136 
L 76.834463 248.46674 
L 76.95041 247.31988 
L 77.047633 246.17302 
L 77.152182 245.02616 
L 77.289862 243.879299 
L 77.48498 242.732439 
L 77.758775 241.585579 
L 78.127211 240.438719 
L 78.598388 239.291859 
L 79.17033 238.144999 
L 79.830079 236.998139 
L 80.554836 235.851279 
L 81.315301 234.704419 
L 82.080686 233.557559 
L 82.824297 232.410699 
L 83.528352 231.263839 
L 84.186885 230.116979 
L 84.806073 228.970119 
L 85.402027 227.823259 
L 85.996697 226.676399 
L 86.612937 225.529539 
L 87.269878 224.382679 
L 87.979554 223.235819 
L 88.745319 222.088959 
L 89.562119 220.942099 
L 90.418244 219.795239 
L 91.297907 218.648379 
L 92.183922 217.501519 
L 93.059872 216.354659 
L 93.911438 215.207799 
L 94.726876 214.060939 
L 95.496901 212.914079 
L 96.21437 211.767219 
L 96.874137 210.620359 
L 97.473291 209.473499 
L 98.011787 208.326639 
L 98.493227 207.179779 
L 98.925488 206.032919 
L 99.320814 204.886059 
L 99.695159 203.739199 
L 100.066685 202.592339 
L 100.453587 201.445479 
L 100.871572 200.298619 
L 101.331437 199.151759 
L 101.837247 198.004899 
L 102.38548 196.858039 
L 102.965359 195.711179 
L 103.560353 194.564319 
L 104.150571 193.417459 
L 104.715632 192.270599 
L 105.23746 191.123739 
L 105.70253 189.976879 
L 106.103205 188.830019 
L 106.438001 187.683159 
L 106.710873 186.536299 
L 106.92976 185.389439 
L 107.104764 184.242579 
L 107.246351 183.095719 
L 107.363881 181.948859 
L 108.649899 181.948859 
L 108.649899 181.948859 
L 108.767429 183.095719 
L 108.909015 184.242579 
L 109.08402 185.389439 
L 109.302907 186.536299 
L 109.575779 187.683159 
L 109.910575 188.830019 
L 110.31125 189.976879 
L 110.77632 191.123739 
L 111.298148 192.270599 
L 111.863209 193.417459 
L 112.453427 194.564319 
L 113.048421 195.711179 
L 113.6283 196.858039 
L 114.176533 198.004899 
L 114.682343 199.151759 
L 115.142208 200.298619 
L 115.560192 201.445479 
L 115.947095 202.592339 
L 116.318621 203.739199 
L 116.692966 204.886059 
L 117.088292 206.032919 
L 117.520552 207.179779 
L 118.001993 208.326639 
L 118.540488 209.473499 
L 119.139643 210.620359 
L 119.79941 211.767219 
L 120.516879 212.914079 
L 121.286904 214.060939 
L 122.102342 215.207799 
L 122.953908 216.354659 
L 123.829858 217.501519 
L 124.715873 218.648379 
L 125.595536 219.795239 
L 126.451661 220.942099 
L 127.268461 222.088959 
L 128.034226 223.235819 
L 128.743902 224.382679 
L 129.400843 225.529539 
L 130.017083 226.676399 
L 130.611753 227.823259 
L 131.207707 228.970119 
L 131.826895 230.116979 
L 132.485428 231.263839 
L 133.189483 232.410699 
L 133.933094 233.557559 
L 134.698479 234.704419 
L 135.458944 235.851279 
L 136.183701 236.998139 
L 136.84345 238.144999 
L 137.415392 239.291859 
L 137.886569 240.438719 
L 138.255005 241.585579 
L 138.5288 242.732439 
L 138.723918 243.879299 
L 138.861598 245.02616 
L 138.966147 246.17302 
L 139.06337 247.31988 
L 139.179317 248.46674 
L 139.338675 249.6136 
L 139.562177 250.76046 
L 139.862839 251.90732 
L 140.241543 253.05418 
L 140.683101 254.20104 
L 141.154173 255.3479 
L 141.604179 256.49476 
L 141.969593 257.64162 
L 142.181053 258.78848 
L 142.171939 259.93534 
L 141.886658 261.0822 
L 141.287017 262.22906 
L 140.355696 263.37592 
L 139.096611 264.52278 
L 137.532701 265.66964 
L 135.702108 266.8165 
L 133.65379 267.96336 
L 131.443386 269.11022 
L 129.129747 270.25708 
L 126.772208 271.40394 
L 124.42837 272.5508 
L 122.152152 273.69766 
L 119.991885 274.84452 
L 117.988436 275.99138 
L 116.173489 277.13824 
L 114.56827 278.2851 
L 113.182976 279.43196 
L 112.017126 280.57882 
L 111.060819 281.72568 
L 110.296753 282.87254 
L 109.702661 284.0194 
L 109.253784 285.16626 
L 108.925011 286.31312 
L 108.692491 287.45998 
L 108.534616 288.60684 
L 108.432479 289.7537 
L 108.36996 290.90056 
L 108.333635 292.04742 
L 108.312641 293.19428 
L 108.298575 294.34114 
L 108.285404 295.488 
z
" clip-path="url(#pf9394a6e1a)" style="fill: #1f77b4; fill-opacity: 0.3"/>
   </g>
   <g id="PolyCollection_2">
    <path d="M 194.697604 230.184442 
L 192.186989 230.184442 
L 191.892129 228.587833 
L 191.5551 226.991224 
L 191.174375 225.394615 
L 190.748895 223.798006 
L 190.278165 222.201397 
L 189.762364 220.604788 
L 189.202411 219.008178 
L 188.599979 217.411569 
L 187.957396 215.81496 
L 187.277451 214.218351 
L 186.563101 212.621742 
L 185.81714 211.025133 
L 185.041879 209.428524 
L 184.238905 207.831915 
L 183.408954 206.235306 
L 182.551906 204.638697 
L 181.666886 203.042088 
L 180.752489 201.445479 
L 179.807145 199.84887 
L 178.829685 198.252261 
L 177.820147 196.655652 
L 176.780774 195.059043 
L 175.717037 193.462434 
L 174.638412 191.865825 
L 173.558593 190.269216 
L 172.494885 188.672607 
L 171.466741 187.075998 
L 170.493587 185.479389 
L 169.592309 183.88278 
L 168.774857 182.286171 
L 168.046419 180.689562 
L 167.404477 179.092953 
L 166.838938 177.496344 
L 166.333318 175.899735 
L 165.866825 174.303125 
L 165.417046 172.706516 
L 164.962857 171.109907 
L 164.487146 169.513298 
L 163.978964 167.916689 
L 163.434834 166.32008 
L 162.859067 164.723471 
L 162.263142 163.126862 
L 161.66432 161.530253 
L 161.083805 159.933644 
L 160.544844 158.337035 
L 160.071127 156.740426 
L 159.685771 155.143817 
L 159.410965 153.547208 
L 159.268134 151.950599 
L 159.278195 150.35399 
L 159.461416 148.757381 
L 159.836399 147.160772 
L 160.418031 145.564163 
L 161.214632 143.967554 
L 162.224952 142.370945 
L 163.435909 140.774336 
L 164.821914 139.177727 
L 166.346237 137.581118 
L 167.964347 135.984509 
L 169.628533 134.3879 
L 171.292795 132.791291 
L 172.916909 131.194682 
L 174.46892 129.598073 
L 175.92582 128.001463 
L 177.272738 126.404854 
L 178.501326 124.808245 
L 179.608142 123.211636 
L 180.593632 121.615027 
L 181.461954 120.018418 
L 182.221457 118.421809 
L 182.885335 116.8252 
L 183.471843 115.228591 
L 184.003586 113.631982 
L 184.505662 112.035373 
L 185.002849 110.438764 
L 185.516365 108.842155 
L 186.060923 107.245546 
L 186.6428 105.648937 
L 187.259384 104.052328 
L 187.900268 102.455719 
L 188.549575 100.85911 
L 189.188894 99.262501 
L 189.800141 97.665892 
L 190.367766 96.069283 
L 190.88 94.472674 
L 191.329164 92.876065 
L 191.711293 91.279456 
L 192.025446 89.682847 
L 192.273075 88.086238 
L 192.457649 86.489629 
L 192.584582 84.89302 
L 192.661328 83.29641 
L 192.697404 81.699801 
L 192.704128 80.103192 
L 192.69393 78.506583 
L 192.679255 76.909974 
L 192.671229 75.313365 
L 192.678368 73.716756 
L 192.705642 72.120147 
L 194.178951 72.120147 
L 194.178951 72.120147 
L 194.206226 73.716756 
L 194.213364 75.313365 
L 194.205338 76.909974 
L 194.190663 78.506583 
L 194.180465 80.103192 
L 194.187189 81.699801 
L 194.223265 83.29641 
L 194.300011 84.89302 
L 194.426944 86.489629 
L 194.611518 88.086238 
L 194.859147 89.682847 
L 195.1733 91.279456 
L 195.555429 92.876065 
L 196.004594 94.472674 
L 196.516827 96.069283 
L 197.084452 97.665892 
L 197.6957 99.262501 
L 198.335019 100.85911 
L 198.984326 102.455719 
L 199.62521 104.052328 
L 200.241794 105.648937 
L 200.82367 107.245546 
L 201.368228 108.842155 
L 201.881744 110.438764 
L 202.378932 112.035373 
L 202.881008 113.631982 
L 203.412751 115.228591 
L 203.999259 116.8252 
L 204.663136 118.421809 
L 205.422639 120.018418 
L 206.290961 121.615027 
L 207.276451 123.211636 
L 208.383267 124.808245 
L 209.611855 126.404854 
L 210.958773 128.001463 
L 212.415673 129.598073 
L 213.967684 131.194682 
L 215.591798 132.791291 
L 217.25606 134.3879 
L 218.920247 135.984509 
L 220.538356 137.581118 
L 222.062679 139.177727 
L 223.448684 140.774336 
L 224.659642 142.370945 
L 225.669961 143.967554 
L 226.466562 145.564163 
L 227.048195 147.160772 
L 227.423177 148.757381 
L 227.606398 150.35399 
L 227.616459 151.950599 
L 227.473628 153.547208 
L 227.198823 155.143817 
L 226.813466 156.740426 
L 226.33975 158.337035 
L 225.800789 159.933644 
L 225.220274 161.530253 
L 224.621451 163.126862 
L 224.025527 164.723471 
L 223.449759 166.32008 
L 222.905629 167.916689 
L 222.397447 169.513298 
L 221.921736 171.109907 
L 221.467547 172.706516 
L 221.017768 174.303125 
L 220.551275 175.899735 
L 220.045655 177.496344 
L 219.480116 179.092953 
L 218.838174 180.689562 
L 218.109736 182.286171 
L 217.292285 183.88278 
L 216.391006 185.479389 
L 215.417852 187.075998 
L 214.389708 188.672607 
L 213.326 190.269216 
L 212.246181 191.865825 
L 211.167557 193.462434 
L 210.103819 195.059043 
L 209.064446 196.655652 
L 208.054908 198.252261 
L 207.077449 199.84887 
L 206.132104 201.445479 
L 205.217707 203.042088 
L 204.332688 204.638697 
L 203.475639 206.235306 
L 202.645689 207.831915 
L 201.842714 209.428524 
L 201.067453 211.025133 
L 200.321492 212.621742 
L 199.607143 214.218351 
L 198.927198 215.81496 
L 198.284615 217.411569 
L 197.682182 219.008178 
L 197.12223 220.604788 
L 196.606428 222.201397 
L 196.135699 223.798006 
L 195.710218 225.394615 
L 195.329494 226.991224 
L 194.992464 228.587833 
L 194.697604 230.184442 
z
" clip-path="url(#pf9394a6e1a)" style="fill: #1f77b4; fill-opacity: 0.3"/>
   </g>
   <g id="PolyCollection_3">
    <path d="M 280.165286 226.474012 
L 277.590121 226.474012 
L 277.300141 225.019824 
L 276.965211 223.565635 
L 276.580487 222.111447 
L 276.140982 220.657258 
L 275.642085 219.20307 
L 275.080297 217.748881 
L 274.454067 216.294693 
L 273.764573 214.840504 
L 273.01622 213.386316 
L 272.21663 211.932127 
L 271.375985 210.477939 
L 270.505717 209.02375 
L 269.616733 207.569562 
L 268.71753 206.115373 
L 267.812651 204.661185 
L 266.901883 203.206996 
L 265.980438 201.752808 
L 265.040094 200.298619 
L 264.071063 198.844431 
L 263.064158 197.390242 
L 262.012865 195.936054 
L 260.914973 194.481865 
L 259.773599 193.027677 
L 258.597561 191.573488 
L 257.401114 190.119299 
L 256.203089 188.665111 
L 255.025443 187.210922 
L 253.89128 185.756734 
L 252.822485 184.302545 
L 251.837266 182.848357 
L 250.948016 181.394168 
L 250.159936 179.93998 
L 249.470774 178.485791 
L 248.871842 177.031603 
L 248.350135 175.577414 
L 247.891196 174.123226 
L 247.482087 172.669037 
L 247.113844 171.214849 
L 246.78282 169.76066 
L 246.49057 168.306472 
L 246.242218 166.852283 
L 246.043648 165.398095 
L 245.898174 163.943906 
L 245.803562 162.489718 
L 245.750316 161.035529 
L 245.721866 159.581341 
L 245.696877 158.127152 
L 245.653299 156.672964 
L 245.573336 155.218775 
L 245.448152 153.764587 
L 245.281249 152.310398 
L 245.089697 150.85621 
L 244.902996 149.402021 
L 244.759843 147.947833 
L 244.703541 146.493644 
L 244.776947 145.039456 
L 245.017836 143.585267 
L 245.455269 142.131079 
L 246.107291 140.67689 
L 246.979924 139.222702 
L 248.067249 137.768513 
L 249.352249 136.314325 
L 250.808153 134.860136 
L 252.400071 133.405948 
L 254.086887 131.951759 
L 255.823455 130.497571 
L 257.563178 129.043382 
L 259.260992 127.589194 
L 260.876658 126.135005 
L 262.378063 124.680817 
L 263.744063 123.226628 
L 264.96634 121.772439 
L 266.049778 120.318251 
L 267.011071 118.864062 
L 267.875602 117.409874 
L 268.673013 115.955685 
L 269.432173 114.501497 
L 270.176455 113.047308 
L 270.920171 111.59312 
L 271.666806 110.138931 
L 272.409309 108.684743 
L 273.132293 107.230554 
L 273.815612 105.776366 
L 274.438574 104.322177 
L 274.983959 102.867989 
L 275.441154 101.4138 
L 275.807896 99.959612 
L 276.090454 98.505423 
L 276.302353 97.051235 
L 276.461994 95.597046 
L 276.589687 94.142858 
L 276.704675 92.688669 
L 276.822662 91.234481 
L 276.954214 89.780292 
L 277.104209 88.326104 
L 277.272274 86.871915 
L 277.453962 85.417727 
L 277.642341 83.963538 
L 277.829612 82.50935 
L 279.925794 82.50935 
L 279.925794 82.50935 
L 280.113066 83.963538 
L 280.301445 85.417727 
L 280.483133 86.871915 
L 280.651197 88.326104 
L 280.801193 89.780292 
L 280.932745 91.234481 
L 281.050731 92.688669 
L 281.16572 94.142858 
L 281.293413 95.597046 
L 281.453053 97.051235 
L 281.664953 98.505423 
L 281.947511 99.959612 
L 282.314253 101.4138 
L 282.771448 102.867989 
L 283.316833 104.322177 
L 283.939794 105.776366 
L 284.623114 107.230554 
L 285.346098 108.684743 
L 286.088601 110.138931 
L 286.835235 111.59312 
L 287.578951 113.047308 
L 288.323233 114.501497 
L 289.082394 115.955685 
L 289.879805 117.409874 
L 290.744336 118.864062 
L 291.705629 120.318251 
L 292.789067 121.772439 
L 294.011344 123.226628 
L 295.377343 124.680817 
L 296.878748 126.135005 
L 298.494415 127.589194 
L 300.192229 129.043382 
L 301.931951 130.497571 
L 303.66852 131.951759 
L 305.355336 133.405948 
L 306.947253 134.860136 
L 308.403158 136.314325 
L 309.688158 137.768513 
L 310.775483 139.222702 
L 311.648116 140.67689 
L 312.300138 142.131079 
L 312.737571 143.585267 
L 312.978459 145.039456 
L 313.051866 146.493644 
L 312.995564 147.947833 
L 312.852411 149.402021 
L 312.66571 150.85621 
L 312.474158 152.310398 
L 312.307254 153.764587 
L 312.182071 155.218775 
L 312.102107 156.672964 
L 312.05853 158.127152 
L 312.033541 159.581341 
L 312.005091 161.035529 
L 311.951845 162.489718 
L 311.857232 163.943906 
L 311.711758 165.398095 
L 311.513189 166.852283 
L 311.264837 168.306472 
L 310.972586 169.76066 
L 310.641563 171.214849 
L 310.273319 172.669037 
L 309.86421 174.123226 
L 309.405271 175.577414 
L 308.883565 177.031603 
L 308.284632 178.485791 
L 307.595471 179.93998 
L 306.80739 181.394168 
L 305.918141 182.848357 
L 304.932922 184.302545 
L 303.864127 185.756734 
L 302.729963 187.210922 
L 301.552317 188.665111 
L 300.354292 190.119299 
L 299.157845 191.573488 
L 297.981807 193.027677 
L 296.840434 194.481865 
L 295.742542 195.936054 
L 294.691249 197.390242 
L 293.684344 198.844431 
L 292.715312 200.298619 
L 291.774969 201.752808 
L 290.853524 203.206996 
L 289.942756 204.661185 
L 289.037876 206.115373 
L 288.138673 207.569562 
L 287.24969 209.02375 
L 286.379422 210.477939 
L 285.538777 211.932127 
L 284.739187 213.386316 
L 283.990833 214.840504 
L 283.30134 216.294693 
L 282.67511 217.748881 
L 282.113322 219.20307 
L 281.614425 220.657258 
L 281.17492 222.111447 
L 280.790196 223.565635 
L 280.455265 225.019824 
L 280.165286 226.474012 
z
" clip-path="url(#pf9394a6e1a)" style="fill: #1f77b4; fill-opacity: 0.3"/>
   </g>
   <g id="PolyCollection_4">
    <path d="M 366.786095 222.763583 
L 361.840125 222.763583 
L 361.217038 221.054537 
L 360.51536 219.34549 
L 359.734239 217.636444 
L 358.871284 215.927398 
L 357.923607 214.218351 
L 356.889978 212.509305 
L 355.773486 210.800259 
L 354.583906 209.091212 
L 353.339056 207.382166 
L 352.064747 205.67312 
L 350.793303 203.964074 
L 349.560831 202.255027 
L 348.403485 200.545981 
L 347.35298 198.836935 
L 346.431741 197.127888 
L 345.64841 195.418842 
L 344.99477 193.709796 
L 344.445285 192.00075 
L 343.960042 190.291703 
L 343.490957 188.582657 
L 342.990008 186.873611 
L 342.417433 185.164564 
L 341.747787 183.455518 
L 340.972534 181.746472 
L 340.099142 180.037426 
L 339.147738 178.328379 
L 338.146883 176.619333 
L 337.12957 174.910287 
L 336.129754 173.20124 
L 335.178959 171.492194 
L 334.302576 169.783148 
L 333.516192 168.074102 
L 332.823302 166.365055 
L 332.21613 164.656009 
L 331.680587 162.946963 
L 331.204608 161.237916 
L 330.787297 159.52887 
L 330.445281 157.819824 
L 330.213403 156.110777 
L 330.138947 154.401731 
L 330.271164 152.692685 
L 330.649599 150.983639 
L 331.294916 149.274592 
L 332.204583 147.565546 
L 333.353765 145.8565 
L 334.700092 144.147453 
L 336.190311 142.438407 
L 337.767124 140.729361 
L 339.375338 139.020315 
L 340.967057 137.311268 
L 342.505839 135.602222 
L 343.969449 133.893176 
L 345.350675 132.184129 
L 346.655764 130.475083 
L 347.90061 128.766037 
L 349.105526 127.056991 
L 350.289858 125.347944 
L 351.46765 123.638898 
L 352.645046 121.929852 
L 353.819493 120.220805 
L 354.980349 118.511759 
L 356.110448 116.802713 
L 357.188286 115.093666 
L 358.190686 113.38462 
L 359.095786 111.675574 
L 359.88603 109.966528 
L 360.55074 108.257481 
L 361.087784 106.548435 
L 361.504079 104.839389 
L 361.814845 103.130342 
L 362.041785 101.421296 
L 362.210427 99.71225 
L 362.346944 98.003204 
L 362.474869 96.294157 
L 362.612165 94.585111 
L 362.769219 92.876065 
L 362.948192 91.167018 
L 363.14389 89.457972 
L 363.345935 87.748926 
L 363.541653 86.03988 
L 363.718935 84.330833 
L 363.868419 82.621787 
L 363.984638 80.912741 
L 364.066149 79.203694 
L 364.11491 77.494648 
L 364.135318 75.785602 
L 364.13321 74.076555 
L 364.115013 72.367509 
L 364.087071 70.658463 
L 364.055101 68.949417 
L 364.023777 67.24037 
L 363.99646 65.531324 
L 363.975171 63.822278 
L 363.96081 62.113231 
L 363.953583 60.404185 
L 363.953458 58.695139 
L 363.960485 56.986093 
L 363.97483 55.277046 
L 363.996549 53.568 
L 364.629671 53.568 
L 364.629671 53.568 
L 364.65139 55.277046 
L 364.665735 56.986093 
L 364.672762 58.695139 
L 364.672638 60.404185 
L 364.66541 62.113231 
L 364.651049 63.822278 
L 364.62976 65.531324 
L 364.602443 67.24037 
L 364.571119 68.949417 
L 364.539149 70.658463 
L 364.511207 72.367509 
L 364.493011 74.076555 
L 364.490902 75.785602 
L 364.51131 77.494648 
L 364.560071 79.203694 
L 364.641582 80.912741 
L 364.757801 82.621787 
L 364.907285 84.330833 
L 365.084567 86.03988 
L 365.280285 87.748926 
L 365.48233 89.457972 
L 365.678028 91.167018 
L 365.857001 92.876065 
L 366.014055 94.585111 
L 366.151351 96.294157 
L 366.279276 98.003204 
L 366.415793 99.71225 
L 366.584435 101.421296 
L 366.811375 103.130342 
L 367.122141 104.839389 
L 367.538436 106.548435 
L 368.07548 108.257481 
L 368.74019 109.966528 
L 369.530434 111.675574 
L 370.435534 113.38462 
L 371.437934 115.093666 
L 372.515772 116.802713 
L 373.645871 118.511759 
L 374.806727 120.220805 
L 375.981174 121.929852 
L 377.15857 123.638898 
L 378.336362 125.347944 
L 379.520694 127.056991 
L 380.72561 128.766037 
L 381.970456 130.475083 
L 383.275545 132.184129 
L 384.656772 133.893176 
L 386.120381 135.602222 
L 387.659163 137.311268 
L 389.250882 139.020315 
L 390.859096 140.729361 
L 392.435909 142.438407 
L 393.926128 144.147453 
L 395.272455 145.8565 
L 396.421637 147.565546 
L 397.331304 149.274592 
L 397.976621 150.983639 
L 398.355056 152.692685 
L 398.487273 154.401731 
L 398.412817 156.110777 
L 398.180939 157.819824 
L 397.838923 159.52887 
L 397.421612 161.237916 
L 396.945634 162.946963 
L 396.41009 164.656009 
L 395.802919 166.365055 
L 395.110028 168.074102 
L 394.323644 169.783148 
L 393.447261 171.492194 
L 392.496466 173.20124 
L 391.49665 174.910287 
L 390.479337 176.619333 
L 389.478482 178.328379 
L 388.527078 180.037426 
L 387.653686 181.746472 
L 386.878433 183.455518 
L 386.208787 185.164564 
L 385.636212 186.873611 
L 385.135263 188.582657 
L 384.666178 190.291703 
L 384.180935 192.00075 
L 383.631451 193.709796 
L 382.97781 195.418842 
L 382.194479 197.127888 
L 381.27324 198.836935 
L 380.222735 200.545981 
L 379.065389 202.255027 
L 377.832917 203.964074 
L 376.561473 205.67312 
L 375.287164 207.382166 
L 374.042314 209.091212 
L 372.852734 210.800259 
L 371.736242 212.509305 
L 370.702613 214.218351 
L 369.754936 215.927398 
L 368.891981 217.636444 
L 368.11086 219.34549 
L 367.409182 221.054537 
L 366.786095 222.763583 
z
" clip-path="url(#pf9394a6e1a)" style="fill: #1f77b4; fill-opacity: 0.3"/>
   </g>
   <g id="matplotlib.axis_1">
    <g id="xtick_1">
     <g id="line2d_1">
      <path d="M 65.289187 307.584 
L 65.289187 41.472 
" clip-path="url(#pf9394a6e1a)" style="fill: none; stroke-dasharray: 2.96,1.28; stroke-dashoffset: 0; stroke: #b0b0b0; stroke-width: 0.8"/>
     </g>
     <g id="line2d_2">
      <defs>
       <path id="m89c64676f0" d="M 0 0 
L 0 3.5 
" style="stroke: #000000; stroke-width: 0.8"/>
      </defs>
      <g>
       <use xlink:href="#m89c64676f0" x="65.289187" y="307.584" style="stroke: #000000; stroke-width: 0.8"/>
      </g>
     </g>
     <g id="text_1">
      <!-- 250 -->
      <g transform="translate(55.745437 322.182437)scale(0.1 -0.1)">
       <defs>
        <path id="DejaVuSans-32" d="M 1228 531 
L 3431 531 
L 3431 0 
L 469 0 
L 469 531 
Q 828 903 1448 1529 
Q 2069 2156 2228 2338 
Q 2531 2678 2651 2914 
Q 2772 3150 2772 3378 
Q 2772 3750 2511 3984 
Q 2250 4219 1831 4219 
Q 1534 4219 1204 4116 
Q 875 4013 500 3803 
L 500 4441 
Q 881 4594 1212 4672 
Q 1544 4750 1819 4750 
Q 2544 4750 2975 4387 
Q 3406 4025 3406 3419 
Q 3406 3131 3298 2873 
Q 3191 2616 2906 2266 
Q 2828 2175 2409 1742 
Q 1991 1309 1228 531 
z
" transform="scale(0.015625)"/>
        <path id="DejaVuSans-35" d="M 691 4666 
L 3169 4666 
L 3169 4134 
L 1269 4134 
L 1269 2991 
Q 1406 3038 1543 3061 
Q 1681 3084 1819 3084 
Q 2600 3084 3056 2656 
Q 3513 2228 3513 1497 
Q 3513 744 3044 326 
Q 2575 -91 1722 -91 
Q 1428 -91 1123 -41 
Q 819 9 494 109 
L 494 744 
Q 775 591 1075 516 
Q 1375 441 1709 441 
Q 2250 441 2565 725 
Q 2881 1009 2881 1497 
Q 2881 1984 2565 2268 
Q 2250 2553 1709 2553 
Q 1456 2553 1204 2497 
Q 953 2441 691 2322 
L 691 4666 
z
" transform="scale(0.015625)"/>
        <path id="DejaVuSans-30" d="M 2034 4250 
Q 1547 4250 1301 3770 
Q 1056 3291 1056 2328 
Q 1056 1369 1301 889 
Q 1547 409 2034 409 
Q 2525 409 2770 889 
Q 3016 1369 3016 2328 
Q 3016 3291 2770 3770 
Q 2525 4250 2034 4250 
z
M 2034 4750 
Q 2819 4750 3233 4129 
Q 3647 3509 3647 2328 
Q 3647 1150 3233 529 
Q 2819 -91 2034 -91 
Q 1250 -91 836 529 
Q 422 1150 422 2328 
Q 422 3509 836 4129 
Q 1250 4750 2034 4750 
z
" transform="scale(0.015625)"/>
       </defs>
       <use xlink:href="#DejaVuSans-32"/>
       <use xlink:href="#DejaVuSans-35" x="63.623047"/>
       <use xlink:href="#DejaVuSans-30" x="127.246094"/>
      </g>
     </g>
    </g>
    <g id="xtick_2">
     <g id="line2d_3">
      <path d="M 108.00689 307.584 
L 108.00689 41.472 
" clip-path="url(#pf9394a6e1a)" style="fill: none; stroke-dasharray: 2.96,1.28; stroke-dashoffset: 0; stroke: #b0b0b0; stroke-width: 0.8"/>
     </g>
     <g id="line2d_4">
      <g>
       <use xlink:href="#m89c64676f0" x="108.00689" y="307.584" style="stroke: #000000; stroke-width: 0.8"/>
      </g>
     </g>
     <g id="text_2">
      <!-- 500 -->
      <g transform="translate(98.46314 322.182437)scale(0.1 -0.1)">
       <use xlink:href="#DejaVuSans-35"/>
       <use xlink:href="#DejaVuSans-30" x="63.623047"/>
       <use xlink:href="#DejaVuSans-30" x="127.246094"/>
      </g>
     </g>
    </g>
    <g id="xtick_3">
     <g id="line2d_5">
      <path d="M 150.724593 307.584 
L 150.724593 41.472 
" clip-path="url(#pf9394a6e1a)" style="fill: none; stroke-dasharray: 2.96,1.28; stroke-dashoffset: 0; stroke: #b0b0b0; stroke-width: 0.8"/>
     </g>
     <g id="line2d_6">
      <g>
       <use xlink:href="#m89c64676f0" x="150.724593" y="307.584" style="stroke: #000000; stroke-width: 0.8"/>
      </g>
     </g>
     <g id="text_3">
      <!-- 750 -->
      <g transform="translate(141.180843 322.182437)scale(0.1 -0.1)">
       <defs>
        <path id="DejaVuSans-37" d="M 525 4666 
L 3525 4666 
L 3525 4397 
L 1831 0 
L 1172 0 
L 2766 4134 
L 525 4134 
L 525 4666 
z
" transform="scale(0.015625)"/>
       </defs>
       <use xlink:href="#DejaVuSans-37"/>
       <use xlink:href="#DejaVuSans-35" x="63.623047"/>
       <use xlink:href="#DejaVuSans-30" x="127.246094"/>
      </g>
     </g>
    </g>
    <g id="xtick_4">
     <g id="line2d_7">
      <path d="M 193.442297 307.584 
L 193.442297 41.472 
" clip-path="url(#pf9394a6e1a)" style="fill: none; stroke-dasharray: 2.96,1.28; stroke-dashoffset: 0; stroke: #b0b0b0; stroke-width: 0.8"/>
     </g>
     <g id="line2d_8">
      <g>
       <use xlink:href="#m89c64676f0" x="193.442297" y="307.584" style="stroke: #000000; stroke-width: 0.8"/>
      </g>
     </g>
     <g id="text_4">
      <!-- 1000 -->
      <g transform="translate(180.717297 322.182437)scale(0.1 -0.1)">
       <defs>
        <path id="DejaVuSans-31" d="M 794 531 
L 1825 531 
L 1825 4091 
L 703 3866 
L 703 4441 
L 1819 4666 
L 2450 4666 
L 2450 531 
L 3481 531 
L 3481 0 
L 794 0 
L 794 531 
z
" transform="scale(0.015625)"/>
       </defs>
       <use xlink:href="#DejaVuSans-31"/>
       <use xlink:href="#DejaVuSans-30" x="63.623047"/>
       <use xlink:href="#DejaVuSans-30" x="127.246094"/>
       <use xlink:href="#DejaVuSans-30" x="190.869141"/>
      </g>
     </g>
    </g>
    <g id="xtick_5">
     <g id="line2d_9">
      <path d="M 236.16 307.584 
L 236.16 41.472 
" clip-path="url(#pf9394a6e1a)" style="fill: none; stroke-dasharray: 2.96,1.28; stroke-dashoffset: 0; stroke: #b0b0b0; stroke-width: 0.8"/>
     </g>
     <g id="line2d_10">
      <g>
       <use xlink:href="#m89c64676f0" x="236.16" y="307.584" style="stroke: #000000; stroke-width: 0.8"/>
      </g>
     </g>
     <g id="text_5">
      <!-- 1250 -->
      <g transform="translate(223.435 322.182437)scale(0.1 -0.1)">
       <use xlink:href="#DejaVuSans-31"/>
       <use xlink:href="#DejaVuSans-32" x="63.623047"/>
       <use xlink:href="#DejaVuSans-35" x="127.246094"/>
       <use xlink:href="#DejaVuSans-30" x="190.869141"/>
      </g>
     </g>
    </g>
    <g id="xtick_6">
     <g id="line2d_11">
      <path d="M 278.877703 307.584 
L 278.877703 41.472 
" clip-path="url(#pf9394a6e1a)" style="fill: none; stroke-dasharray: 2.96,1.28; stroke-dashoffset: 0; stroke: #b0b0b0; stroke-width: 0.8"/>
     </g>
     <g id="line2d_12">
      <g>
       <use xlink:href="#m89c64676f0" x="278.877703" y="307.584" style="stroke: #000000; stroke-width: 0.8"/>
      </g>
     </g>
     <g id="text_6">
      <!-- 1500 -->
      <g transform="translate(266.152703 322.182437)scale(0.1 -0.1)">
       <use xlink:href="#DejaVuSans-31"/>
       <use xlink:href="#DejaVuSans-35" x="63.623047"/>
       <use xlink:href="#DejaVuSans-30" x="127.246094"/>
       <use xlink:href="#DejaVuSans-30" x="190.869141"/>
      </g>
     </g>
    </g>
    <g id="xtick_7">
     <g id="line2d_13">
      <path d="M 321.595407 307.584 
L 321.595407 41.472 
" clip-path="url(#pf9394a6e1a)" style="fill: none; stroke-dasharray: 2.96,1.28; stroke-dashoffset: 0; stroke: #b0b0b0; stroke-width: 0.8"/>
     </g>
     <g id="line2d_14">
      <g>
       <use xlink:href="#m89c64676f0" x="321.595407" y="307.584" style="stroke: #000000; stroke-width: 0.8"/>
      </g>
     </g>
     <g id="text_7">
      <!-- 1750 -->
      <g transform="translate(308.870407 322.182437)scale(0.1 -0.1)">
       <use xlink:href="#DejaVuSans-31"/>
       <use xlink:href="#DejaVuSans-37" x="63.623047"/>
       <use xlink:href="#DejaVuSans-35" x="127.246094"/>
       <use xlink:href="#DejaVuSans-30" x="190.869141"/>
      </g>
     </g>
    </g>
    <g id="xtick_8">
     <g id="line2d_15">
      <path d="M 364.31311 307.584 
L 364.31311 41.472 
" clip-path="url(#pf9394a6e1a)" style="fill: none; stroke-dasharray: 2.96,1.28; stroke-dashoffset: 0; stroke: #b0b0b0; stroke-width: 0.8"/>
     </g>
     <g id="line2d_16">
      <g>
       <use xlink:href="#m89c64676f0" x="364.31311" y="307.584" style="stroke: #000000; stroke-width: 0.8"/>
      </g>
     </g>
     <g id="text_8">
      <!-- 2000 -->
      <g transform="translate(351.58811 322.182437)scale(0.1 -0.1)">
       <use xlink:href="#DejaVuSans-32"/>
       <use xlink:href="#DejaVuSans-30" x="63.623047"/>
       <use xlink:href="#DejaVuSans-30" x="127.246094"/>
       <use xlink:href="#DejaVuSans-30" x="190.869141"/>
      </g>
     </g>
    </g>
    <g id="xtick_9">
     <g id="line2d_17">
      <path d="M 407.030813 307.584 
L 407.030813 41.472 
" clip-path="url(#pf9394a6e1a)" style="fill: none; stroke-dasharray: 2.96,1.28; stroke-dashoffset: 0; stroke: #b0b0b0; stroke-width: 0.8"/>
     </g>
     <g id="line2d_18">
      <g>
       <use xlink:href="#m89c64676f0" x="407.030813" y="307.584" style="stroke: #000000; stroke-width: 0.8"/>
      </g>
     </g>
     <g id="text_9">
      <!-- 2250 -->
      <g transform="translate(394.305813 322.182437)scale(0.1 -0.1)">
       <use xlink:href="#DejaVuSans-32"/>
       <use xlink:href="#DejaVuSans-32" x="63.623047"/>
       <use xlink:href="#DejaVuSans-35" x="127.246094"/>
       <use xlink:href="#DejaVuSans-30" x="190.869141"/>
      </g>
     </g>
    </g>
    <g id="text_10">
     <!-- Learned Episodes -->
     <g transform="translate(192.102187 335.860562)scale(0.1 -0.1)">
      <defs>
       <path id="DejaVuSans-4c" d="M 628 4666 
L 1259 4666 
L 1259 531 
L 3531 531 
L 3531 0 
L 628 0 
L 628 4666 
z
" transform="scale(0.015625)"/>
       <path id="DejaVuSans-65" d="M 3597 1894 
L 3597 1613 
L 953 1613 
Q 991 1019 1311 708 
Q 1631 397 2203 397 
Q 2534 397 2845 478 
Q 3156 559 3463 722 
L 3463 178 
Q 3153 47 2828 -22 
Q 2503 -91 2169 -91 
Q 1331 -91 842 396 
Q 353 884 353 1716 
Q 353 2575 817 3079 
Q 1281 3584 2069 3584 
Q 2775 3584 3186 3129 
Q 3597 2675 3597 1894 
z
M 3022 2063 
Q 3016 2534 2758 2815 
Q 2500 3097 2075 3097 
Q 1594 3097 1305 2825 
Q 1016 2553 972 2059 
L 3022 2063 
z
" transform="scale(0.015625)"/>
       <path id="DejaVuSans-61" d="M 2194 1759 
Q 1497 1759 1228 1600 
Q 959 1441 959 1056 
Q 959 750 1161 570 
Q 1363 391 1709 391 
Q 2188 391 2477 730 
Q 2766 1069 2766 1631 
L 2766 1759 
L 2194 1759 
z
M 3341 1997 
L 3341 0 
L 2766 0 
L 2766 531 
Q 2569 213 2275 61 
Q 1981 -91 1556 -91 
Q 1019 -91 701 211 
Q 384 513 384 1019 
Q 384 1609 779 1909 
Q 1175 2209 1959 2209 
L 2766 2209 
L 2766 2266 
Q 2766 2663 2505 2880 
Q 2244 3097 1772 3097 
Q 1472 3097 1187 3025 
Q 903 2953 641 2809 
L 641 3341 
Q 956 3463 1253 3523 
Q 1550 3584 1831 3584 
Q 2591 3584 2966 3190 
Q 3341 2797 3341 1997 
z
" transform="scale(0.015625)"/>
       <path id="DejaVuSans-72" d="M 2631 2963 
Q 2534 3019 2420 3045 
Q 2306 3072 2169 3072 
Q 1681 3072 1420 2755 
Q 1159 2438 1159 1844 
L 1159 0 
L 581 0 
L 581 3500 
L 1159 3500 
L 1159 2956 
Q 1341 3275 1631 3429 
Q 1922 3584 2338 3584 
Q 2397 3584 2469 3576 
Q 2541 3569 2628 3553 
L 2631 2963 
z
" transform="scale(0.015625)"/>
       <path id="DejaVuSans-6e" d="M 3513 2113 
L 3513 0 
L 2938 0 
L 2938 2094 
Q 2938 2591 2744 2837 
Q 2550 3084 2163 3084 
Q 1697 3084 1428 2787 
Q 1159 2491 1159 1978 
L 1159 0 
L 581 0 
L 581 3500 
L 1159 3500 
L 1159 2956 
Q 1366 3272 1645 3428 
Q 1925 3584 2291 3584 
Q 2894 3584 3203 3211 
Q 3513 2838 3513 2113 
z
" transform="scale(0.015625)"/>
       <path id="DejaVuSans-64" d="M 2906 2969 
L 2906 4863 
L 3481 4863 
L 3481 0 
L 2906 0 
L 2906 525 
Q 2725 213 2448 61 
Q 2172 -91 1784 -91 
Q 1150 -91 751 415 
Q 353 922 353 1747 
Q 353 2572 751 3078 
Q 1150 3584 1784 3584 
Q 2172 3584 2448 3432 
Q 2725 3281 2906 2969 
z
M 947 1747 
Q 947 1113 1208 752 
Q 1469 391 1925 391 
Q 2381 391 2643 752 
Q 2906 1113 2906 1747 
Q 2906 2381 2643 2742 
Q 2381 3103 1925 3103 
Q 1469 3103 1208 2742 
Q 947 2381 947 1747 
z
" transform="scale(0.015625)"/>
       <path id="DejaVuSans-20" transform="scale(0.015625)"/>
       <path id="DejaVuSans-45" d="M 628 4666 
L 3578 4666 
L 3578 4134 
L 1259 4134 
L 1259 2753 
L 3481 2753 
L 3481 2222 
L 1259 2222 
L 1259 531 
L 3634 531 
L 3634 0 
L 628 0 
L 628 4666 
z
" transform="scale(0.015625)"/>
       <path id="DejaVuSans-70" d="M 1159 525 
L 1159 -1331 
L 581 -1331 
L 581 3500 
L 1159 3500 
L 1159 2969 
Q 1341 3281 1617 3432 
Q 1894 3584 2278 3584 
Q 2916 3584 3314 3078 
Q 3713 2572 3713 1747 
Q 3713 922 3314 415 
Q 2916 -91 2278 -91 
Q 1894 -91 1617 61 
Q 1341 213 1159 525 
z
M 3116 1747 
Q 3116 2381 2855 2742 
Q 2594 3103 2138 3103 
Q 1681 3103 1420 2742 
Q 1159 2381 1159 1747 
Q 1159 1113 1420 752 
Q 1681 391 2138 391 
Q 2594 391 2855 752 
Q 3116 1113 3116 1747 
z
" transform="scale(0.015625)"/>
       <path id="DejaVuSans-69" d="M 603 3500 
L 1178 3500 
L 1178 0 
L 603 0 
L 603 3500 
z
M 603 4863 
L 1178 4863 
L 1178 4134 
L 603 4134 
L 603 4863 
z
" transform="scale(0.015625)"/>
       <path id="DejaVuSans-73" d="M 2834 3397 
L 2834 2853 
Q 2591 2978 2328 3040 
Q 2066 3103 1784 3103 
Q 1356 3103 1142 2972 
Q 928 2841 928 2578 
Q 928 2378 1081 2264 
Q 1234 2150 1697 2047 
L 1894 2003 
Q 2506 1872 2764 1633 
Q 3022 1394 3022 966 
Q 3022 478 2636 193 
Q 2250 -91 1575 -91 
Q 1294 -91 989 -36 
Q 684 19 347 128 
L 347 722 
Q 666 556 975 473 
Q 1284 391 1588 391 
Q 1994 391 2212 530 
Q 2431 669 2431 922 
Q 2431 1156 2273 1281 
Q 2116 1406 1581 1522 
L 1381 1569 
Q 847 1681 609 1914 
Q 372 2147 372 2553 
Q 372 3047 722 3315 
Q 1072 3584 1716 3584 
Q 2034 3584 2315 3537 
Q 2597 3491 2834 3397 
z
" transform="scale(0.015625)"/>
       <path id="DejaVuSans-6f" d="M 1959 3097 
Q 1497 3097 1228 2736 
Q 959 2375 959 1747 
Q 959 1119 1226 758 
Q 1494 397 1959 397 
Q 2419 397 2687 759 
Q 2956 1122 2956 1747 
Q 2956 2369 2687 2733 
Q 2419 3097 1959 3097 
z
M 1959 3584 
Q 2709 3584 3137 3096 
Q 3566 2609 3566 1747 
Q 3566 888 3137 398 
Q 2709 -91 1959 -91 
Q 1206 -91 779 398 
Q 353 888 353 1747 
Q 353 2609 779 3096 
Q 1206 3584 1959 3584 
z
" transform="scale(0.015625)"/>
      </defs>
      <use xlink:href="#DejaVuSans-4c"/>
      <use xlink:href="#DejaVuSans-65" x="53.962891"/>
      <use xlink:href="#DejaVuSans-61" x="115.486328"/>
      <use xlink:href="#DejaVuSans-72" x="176.765625"/>
      <use xlink:href="#DejaVuSans-6e" x="216.128906"/>
      <use xlink:href="#DejaVuSans-65" x="279.507812"/>
      <use xlink:href="#DejaVuSans-64" x="341.03125"/>
      <use xlink:href="#DejaVuSans-20" x="404.507812"/>
      <use xlink:href="#DejaVuSans-45" x="436.294922"/>
      <use xlink:href="#DejaVuSans-70" x="499.478516"/>
      <use xlink:href="#DejaVuSans-69" x="562.955078"/>
      <use xlink:href="#DejaVuSans-73" x="590.738281"/>
      <use xlink:href="#DejaVuSans-6f" x="642.837891"/>
      <use xlink:href="#DejaVuSans-64" x="704.019531"/>
      <use xlink:href="#DejaVuSans-65" x="767.496094"/>
      <use xlink:href="#DejaVuSans-73" x="829.019531"/>
     </g>
    </g>
   </g>
   <g id="matplotlib.axis_2">
    <g id="ytick_1">
     <g id="line2d_19">
      <path d="M 57.6 295.488 
L 414.72 295.488 
" clip-path="url(#pf9394a6e1a)" style="fill: none; stroke-dasharray: 2.96,1.28; stroke-dashoffset: 0; stroke: #b0b0b0; stroke-width: 0.8"/>
     </g>
     <g id="line2d_20">
      <defs>
       <path id="md89d8c7107" d="M 0 0 
L -3.5 0 
" style="stroke: #000000; stroke-width: 0.8"/>
      </defs>
      <g>
       <use xlink:href="#md89d8c7107" x="57.6" y="295.488" style="stroke: #000000; stroke-width: 0.8"/>
      </g>
     </g>
     <g id="text_11">
      <!-- 0 -->
      <g transform="translate(44.2375 299.287219)scale(0.1 -0.1)">
       <use xlink:href="#DejaVuSans-30"/>
      </g>
     </g>
    </g>
    <g id="ytick_2">
     <g id="line2d_21">
      <path d="M 57.6 258.383706 
L 414.72 258.383706 
" clip-path="url(#pf9394a6e1a)" style="fill: none; stroke-dasharray: 2.96,1.28; stroke-dashoffset: 0; stroke: #b0b0b0; stroke-width: 0.8"/>
     </g>
     <g id="line2d_22">
      <g>
       <use xlink:href="#md89d8c7107" x="57.6" y="258.383706" style="stroke: #000000; stroke-width: 0.8"/>
      </g>
     </g>
     <g id="text_12">
      <!-- 50 -->
      <g transform="translate(37.875 262.182924)scale(0.1 -0.1)">
       <use xlink:href="#DejaVuSans-35"/>
       <use xlink:href="#DejaVuSans-30" x="63.623047"/>
      </g>
     </g>
    </g>
    <g id="ytick_3">
     <g id="line2d_23">
      <path d="M 57.6 221.279411 
L 414.72 221.279411 
" clip-path="url(#pf9394a6e1a)" style="fill: none; stroke-dasharray: 2.96,1.28; stroke-dashoffset: 0; stroke: #b0b0b0; stroke-width: 0.8"/>
     </g>
     <g id="line2d_24">
      <g>
       <use xlink:href="#md89d8c7107" x="57.6" y="221.279411" style="stroke: #000000; stroke-width: 0.8"/>
      </g>
     </g>
     <g id="text_13">
      <!-- 100 -->
      <g transform="translate(31.5125 225.07863)scale(0.1 -0.1)">
       <use xlink:href="#DejaVuSans-31"/>
       <use xlink:href="#DejaVuSans-30" x="63.623047"/>
       <use xlink:href="#DejaVuSans-30" x="127.246094"/>
      </g>
     </g>
    </g>
    <g id="ytick_4">
     <g id="line2d_25">
      <path d="M 57.6 184.175117 
L 414.72 184.175117 
" clip-path="url(#pf9394a6e1a)" style="fill: none; stroke-dasharray: 2.96,1.28; stroke-dashoffset: 0; stroke: #b0b0b0; stroke-width: 0.8"/>
     </g>
     <g id="line2d_26">
      <g>
       <use xlink:href="#md89d8c7107" x="57.6" y="184.175117" style="stroke: #000000; stroke-width: 0.8"/>
      </g>
     </g>
     <g id="text_14">
      <!-- 150 -->
      <g transform="translate(31.5125 187.974335)scale(0.1 -0.1)">
       <use xlink:href="#DejaVuSans-31"/>
       <use xlink:href="#DejaVuSans-35" x="63.623047"/>
       <use xlink:href="#DejaVuSans-30" x="127.246094"/>
      </g>
     </g>
    </g>
    <g id="ytick_5">
     <g id="line2d_27">
      <path d="M 57.6 147.070822 
L 414.72 147.070822 
" clip-path="url(#pf9394a6e1a)" style="fill: none; stroke-dasharray: 2.96,1.28; stroke-dashoffset: 0; stroke: #b0b0b0; stroke-width: 0.8"/>
     </g>
     <g id="line2d_28">
      <g>
       <use xlink:href="#md89d8c7107" x="57.6" y="147.070822" style="stroke: #000000; stroke-width: 0.8"/>
      </g>
     </g>
     <g id="text_15">
      <!-- 200 -->
      <g transform="translate(31.5125 150.870041)scale(0.1 -0.1)">
       <use xlink:href="#DejaVuSans-32"/>
       <use xlink:href="#DejaVuSans-30" x="63.623047"/>
       <use xlink:href="#DejaVuSans-30" x="127.246094"/>
      </g>
     </g>
    </g>
    <g id="ytick_6">
     <g id="line2d_29">
      <path d="M 57.6 109.966528 
L 414.72 109.966528 
" clip-path="url(#pf9394a6e1a)" style="fill: none; stroke-dasharray: 2.96,1.28; stroke-dashoffset: 0; stroke: #b0b0b0; stroke-width: 0.8"/>
     </g>
     <g id="line2d_30">
      <g>
       <use xlink:href="#md89d8c7107" x="57.6" y="109.966528" style="stroke: #000000; stroke-width: 0.8"/>
      </g>
     </g>
     <g id="text_16">
      <!-- 250 -->
      <g transform="translate(31.5125 113.765746)scale(0.1 -0.1)">
       <use xlink:href="#DejaVuSans-32"/>
       <use xlink:href="#DejaVuSans-35" x="63.623047"/>
       <use xlink:href="#DejaVuSans-30" x="127.246094"/>
      </g>
     </g>
    </g>
    <g id="ytick_7">
     <g id="line2d_31">
      <path d="M 57.6 72.862233 
L 414.72 72.862233 
" clip-path="url(#pf9394a6e1a)" style="fill: none; stroke-dasharray: 2.96,1.28; stroke-dashoffset: 0; stroke: #b0b0b0; stroke-width: 0.8"/>
     </g>
     <g id="line2d_32">
      <g>
       <use xlink:href="#md89d8c7107" x="57.6" y="72.862233" style="stroke: #000000; stroke-width: 0.8"/>
      </g>
     </g>
     <g id="text_17">
      <!-- 300 -->
      <g transform="translate(31.5125 76.661452)scale(0.1 -0.1)">
       <defs>
        <path id="DejaVuSans-33" d="M 2597 2516 
Q 3050 2419 3304 2112 
Q 3559 1806 3559 1356 
Q 3559 666 3084 287 
Q 2609 -91 1734 -91 
Q 1441 -91 1130 -33 
Q 819 25 488 141 
L 488 750 
Q 750 597 1062 519 
Q 1375 441 1716 441 
Q 2309 441 2620 675 
Q 2931 909 2931 1356 
Q 2931 1769 2642 2001 
Q 2353 2234 1838 2234 
L 1294 2234 
L 1294 2753 
L 1863 2753 
Q 2328 2753 2575 2939 
Q 2822 3125 2822 3475 
Q 2822 3834 2567 4026 
Q 2313 4219 1838 4219 
Q 1578 4219 1281 4162 
Q 984 4106 628 3988 
L 628 4550 
Q 988 4650 1302 4700 
Q 1616 4750 1894 4750 
Q 2613 4750 3031 4423 
Q 3450 4097 3450 3541 
Q 3450 3153 3228 2886 
Q 3006 2619 2597 2516 
z
" transform="scale(0.015625)"/>
       </defs>
       <use xlink:href="#DejaVuSans-33"/>
       <use xlink:href="#DejaVuSans-30" x="63.623047"/>
       <use xlink:href="#DejaVuSans-30" x="127.246094"/>
      </g>
     </g>
    </g>
    <g id="text_18">
     <!-- Reward Density -->
     <g transform="translate(25.432812 213.74675)rotate(-90)scale(0.1 -0.1)">
      <defs>
       <path id="DejaVuSans-52" d="M 2841 2188 
Q 3044 2119 3236 1894 
Q 3428 1669 3622 1275 
L 4263 0 
L 3584 0 
L 2988 1197 
Q 2756 1666 2539 1819 
Q 2322 1972 1947 1972 
L 1259 1972 
L 1259 0 
L 628 0 
L 628 4666 
L 2053 4666 
Q 2853 4666 3247 4331 
Q 3641 3997 3641 3322 
Q 3641 2881 3436 2590 
Q 3231 2300 2841 2188 
z
M 1259 4147 
L 1259 2491 
L 2053 2491 
Q 2509 2491 2742 2702 
Q 2975 2913 2975 3322 
Q 2975 3731 2742 3939 
Q 2509 4147 2053 4147 
L 1259 4147 
z
" transform="scale(0.015625)"/>
       <path id="DejaVuSans-77" d="M 269 3500 
L 844 3500 
L 1563 769 
L 2278 3500 
L 2956 3500 
L 3675 769 
L 4391 3500 
L 4966 3500 
L 4050 0 
L 3372 0 
L 2619 2869 
L 1863 0 
L 1184 0 
L 269 3500 
z
" transform="scale(0.015625)"/>
       <path id="DejaVuSans-44" d="M 1259 4147 
L 1259 519 
L 2022 519 
Q 2988 519 3436 956 
Q 3884 1394 3884 2338 
Q 3884 3275 3436 3711 
Q 2988 4147 2022 4147 
L 1259 4147 
z
M 628 4666 
L 1925 4666 
Q 3281 4666 3915 4102 
Q 4550 3538 4550 2338 
Q 4550 1131 3912 565 
Q 3275 0 1925 0 
L 628 0 
L 628 4666 
z
" transform="scale(0.015625)"/>
       <path id="DejaVuSans-74" d="M 1172 4494 
L 1172 3500 
L 2356 3500 
L 2356 3053 
L 1172 3053 
L 1172 1153 
Q 1172 725 1289 603 
Q 1406 481 1766 481 
L 2356 481 
L 2356 0 
L 1766 0 
Q 1100 0 847 248 
Q 594 497 594 1153 
L 594 3053 
L 172 3053 
L 172 3500 
L 594 3500 
L 594 4494 
L 1172 4494 
z
" transform="scale(0.015625)"/>
       <path id="DejaVuSans-79" d="M 2059 -325 
Q 1816 -950 1584 -1140 
Q 1353 -1331 966 -1331 
L 506 -1331 
L 506 -850 
L 844 -850 
Q 1081 -850 1212 -737 
Q 1344 -625 1503 -206 
L 1606 56 
L 191 3500 
L 800 3500 
L 1894 763 
L 2988 3500 
L 3597 3500 
L 2059 -325 
z
" transform="scale(0.015625)"/>
      </defs>
      <use xlink:href="#DejaVuSans-52"/>
      <use xlink:href="#DejaVuSans-65" x="64.982422"/>
      <use xlink:href="#DejaVuSans-77" x="126.505859"/>
      <use xlink:href="#DejaVuSans-61" x="208.292969"/>
      <use xlink:href="#DejaVuSans-72" x="269.572266"/>
      <use xlink:href="#DejaVuSans-64" x="308.935547"/>
      <use xlink:href="#DejaVuSans-20" x="372.412109"/>
      <use xlink:href="#DejaVuSans-44" x="404.199219"/>
      <use xlink:href="#DejaVuSans-65" x="481.201172"/>
      <use xlink:href="#DejaVuSans-6e" x="542.724609"/>
      <use xlink:href="#DejaVuSans-73" x="606.103516"/>
      <use xlink:href="#DejaVuSans-69" x="658.203125"/>
      <use xlink:href="#DejaVuSans-74" x="685.986328"/>
      <use xlink:href="#DejaVuSans-79" x="725.195312"/>
     </g>
    </g>
   </g>
   <g id="LineCollection_1">
    <path d="M 90.919809 242.807323 
L 125.093971 242.807323 
" clip-path="url(#pf9394a6e1a)" style="fill: none; stroke: #1f77b4; stroke-width: 1.5"/>
    <path d="M 176.355215 159.091129 
L 210.529378 159.091129 
" clip-path="url(#pf9394a6e1a)" style="fill: none; stroke: #1f77b4; stroke-width: 1.5"/>
    <path d="M 261.790622 159.282587 
L 295.964785 159.282587 
" clip-path="url(#pf9394a6e1a)" style="fill: none; stroke: #1f77b4; stroke-width: 1.5"/>
    <path d="M 347.226029 161.853173 
L 381.400191 161.853173 
" clip-path="url(#pf9394a6e1a)" style="fill: none; stroke: #1f77b4; stroke-width: 1.5"/>
   </g>
   <g id="LineCollection_2">
    <path d="M 90.919809 181.948859 
L 125.093971 181.948859 
" clip-path="url(#pf9394a6e1a)" style="fill: none; stroke: #1f77b4; stroke-width: 1.5"/>
    <path d="M 176.355215 72.120147 
L 210.529378 72.120147 
" clip-path="url(#pf9394a6e1a)" style="fill: none; stroke: #1f77b4; stroke-width: 1.5"/>
    <path d="M 261.790622 82.50935 
L 295.964785 82.50935 
" clip-path="url(#pf9394a6e1a)" style="fill: none; stroke: #1f77b4; stroke-width: 1.5"/>
    <path d="M 347.226029 53.568 
L 381.400191 53.568 
" clip-path="url(#pf9394a6e1a)" style="fill: none; stroke: #1f77b4; stroke-width: 1.5"/>
   </g>
   <g id="LineCollection_3">
    <path d="M 90.919809 295.488 
L 125.093971 295.488 
" clip-path="url(#pf9394a6e1a)" style="fill: none; stroke: #1f77b4; stroke-width: 1.5"/>
    <path d="M 176.355215 230.184442 
L 210.529378 230.184442 
" clip-path="url(#pf9394a6e1a)" style="fill: none; stroke: #1f77b4; stroke-width: 1.5"/>
    <path d="M 261.790622 226.474012 
L 295.964785 226.474012 
" clip-path="url(#pf9394a6e1a)" style="fill: none; stroke: #1f77b4; stroke-width: 1.5"/>
    <path d="M 347.226029 222.763583 
L 381.400191 222.763583 
" clip-path="url(#pf9394a6e1a)" style="fill: none; stroke: #1f77b4; stroke-width: 1.5"/>
   </g>
   <g id="LineCollection_4">
    <path d="M 108.00689 295.488 
L 108.00689 181.948859 
" clip-path="url(#pf9394a6e1a)" style="fill: none; stroke: #1f77b4; stroke-width: 1.5"/>
    <path d="M 193.442297 230.184442 
L 193.442297 72.120147 
" clip-path="url(#pf9394a6e1a)" style="fill: none; stroke: #1f77b4; stroke-width: 1.5"/>
    <path d="M 278.877703 226.474012 
L 278.877703 82.50935 
" clip-path="url(#pf9394a6e1a)" style="fill: none; stroke: #1f77b4; stroke-width: 1.5"/>
    <path d="M 364.31311 222.763583 
L 364.31311 53.568 
" clip-path="url(#pf9394a6e1a)" style="fill: none; stroke: #1f77b4; stroke-width: 1.5"/>
   </g>
   <g id="line2d_33">
    <path d="M 108.00689 242.807323 
L 193.442297 159.091129 
L 278.877703 159.282587 
L 364.31311 161.853173 
" clip-path="url(#pf9394a6e1a)" style="fill: none; stroke: #4682b4; stroke-width: 1.5; stroke-linecap: square"/>
   </g>
   <g id="line2d_34">
    <path d="M 108.00689 242.807323 
L 193.442297 159.091129 
L 278.877703 159.282587 
L 364.31311 161.853173 
" clip-path="url(#pf9394a6e1a)" style="fill: none; stroke: #4682b4; stroke-width: 1.5; stroke-linecap: square"/>
   </g>
   <g id="patch_3">
    <path d="M 57.6 307.584 
L 57.6 41.472 
" style="fill: none; stroke: #000000; stroke-width: 0.8; stroke-linejoin: miter; stroke-linecap: square"/>
   </g>
   <g id="patch_4">
    <path d="M 414.72 307.584 
L 414.72 41.472 
" style="fill: none; stroke: #000000; stroke-width: 0.8; stroke-linejoin: miter; stroke-linecap: square"/>
   </g>
   <g id="patch_5">
    <path d="M 57.6 307.584 
L 414.72 307.584 
" style="fill: none; stroke: #000000; stroke-width: 0.8; stroke-linejoin: miter; stroke-linecap: square"/>
   </g>
   <g id="patch_6">
    <path d="M 57.6 41.472 
L 414.72 41.472 
" style="fill: none; stroke: #000000; stroke-width: 0.8; stroke-linejoin: miter; stroke-linecap: square"/>
   </g>
   <g id="text_19">
    <!-- Violinplot for progress of customer/purchases_new -->
    <g transform="translate(84.319688 35.472)scale(0.12 -0.12)">
     <defs>
      <path id="DejaVuSans-56" d="M 1831 0 
L 50 4666 
L 709 4666 
L 2188 738 
L 3669 4666 
L 4325 4666 
L 2547 0 
L 1831 0 
z
" transform="scale(0.015625)"/>
      <path id="DejaVuSans-6c" d="M 603 4863 
L 1178 4863 
L 1178 0 
L 603 0 
L 603 4863 
z
" transform="scale(0.015625)"/>
      <path id="DejaVuSans-66" d="M 2375 4863 
L 2375 4384 
L 1825 4384 
Q 1516 4384 1395 4259 
Q 1275 4134 1275 3809 
L 1275 3500 
L 2222 3500 
L 2222 3053 
L 1275 3053 
L 1275 0 
L 697 0 
L 697 3053 
L 147 3053 
L 147 3500 
L 697 3500 
L 697 3744 
Q 697 4328 969 4595 
Q 1241 4863 1831 4863 
L 2375 4863 
z
" transform="scale(0.015625)"/>
      <path id="DejaVuSans-67" d="M 2906 1791 
Q 2906 2416 2648 2759 
Q 2391 3103 1925 3103 
Q 1463 3103 1205 2759 
Q 947 2416 947 1791 
Q 947 1169 1205 825 
Q 1463 481 1925 481 
Q 2391 481 2648 825 
Q 2906 1169 2906 1791 
z
M 3481 434 
Q 3481 -459 3084 -895 
Q 2688 -1331 1869 -1331 
Q 1566 -1331 1297 -1286 
Q 1028 -1241 775 -1147 
L 775 -588 
Q 1028 -725 1275 -790 
Q 1522 -856 1778 -856 
Q 2344 -856 2625 -561 
Q 2906 -266 2906 331 
L 2906 616 
Q 2728 306 2450 153 
Q 2172 0 1784 0 
Q 1141 0 747 490 
Q 353 981 353 1791 
Q 353 2603 747 3093 
Q 1141 3584 1784 3584 
Q 2172 3584 2450 3431 
Q 2728 3278 2906 2969 
L 2906 3500 
L 3481 3500 
L 3481 434 
z
" transform="scale(0.015625)"/>
      <path id="DejaVuSans-63" d="M 3122 3366 
L 3122 2828 
Q 2878 2963 2633 3030 
Q 2388 3097 2138 3097 
Q 1578 3097 1268 2742 
Q 959 2388 959 1747 
Q 959 1106 1268 751 
Q 1578 397 2138 397 
Q 2388 397 2633 464 
Q 2878 531 3122 666 
L 3122 134 
Q 2881 22 2623 -34 
Q 2366 -91 2075 -91 
Q 1284 -91 818 406 
Q 353 903 353 1747 
Q 353 2603 823 3093 
Q 1294 3584 2113 3584 
Q 2378 3584 2631 3529 
Q 2884 3475 3122 3366 
z
" transform="scale(0.015625)"/>
      <path id="DejaVuSans-75" d="M 544 1381 
L 544 3500 
L 1119 3500 
L 1119 1403 
Q 1119 906 1312 657 
Q 1506 409 1894 409 
Q 2359 409 2629 706 
Q 2900 1003 2900 1516 
L 2900 3500 
L 3475 3500 
L 3475 0 
L 2900 0 
L 2900 538 
Q 2691 219 2414 64 
Q 2138 -91 1772 -91 
Q 1169 -91 856 284 
Q 544 659 544 1381 
z
M 1991 3584 
L 1991 3584 
z
" transform="scale(0.015625)"/>
      <path id="DejaVuSans-6d" d="M 3328 2828 
Q 3544 3216 3844 3400 
Q 4144 3584 4550 3584 
Q 5097 3584 5394 3201 
Q 5691 2819 5691 2113 
L 5691 0 
L 5113 0 
L 5113 2094 
Q 5113 2597 4934 2840 
Q 4756 3084 4391 3084 
Q 3944 3084 3684 2787 
Q 3425 2491 3425 1978 
L 3425 0 
L 2847 0 
L 2847 2094 
Q 2847 2600 2669 2842 
Q 2491 3084 2119 3084 
Q 1678 3084 1418 2786 
Q 1159 2488 1159 1978 
L 1159 0 
L 581 0 
L 581 3500 
L 1159 3500 
L 1159 2956 
Q 1356 3278 1631 3431 
Q 1906 3584 2284 3584 
Q 2666 3584 2933 3390 
Q 3200 3197 3328 2828 
z
" transform="scale(0.015625)"/>
      <path id="DejaVuSans-2f" d="M 1625 4666 
L 2156 4666 
L 531 -594 
L 0 -594 
L 1625 4666 
z
" transform="scale(0.015625)"/>
      <path id="DejaVuSans-68" d="M 3513 2113 
L 3513 0 
L 2938 0 
L 2938 2094 
Q 2938 2591 2744 2837 
Q 2550 3084 2163 3084 
Q 1697 3084 1428 2787 
Q 1159 2491 1159 1978 
L 1159 0 
L 581 0 
L 581 4863 
L 1159 4863 
L 1159 2956 
Q 1366 3272 1645 3428 
Q 1925 3584 2291 3584 
Q 2894 3584 3203 3211 
Q 3513 2838 3513 2113 
z
" transform="scale(0.015625)"/>
      <path id="DejaVuSans-5f" d="M 3263 -1063 
L 3263 -1509 
L -63 -1509 
L -63 -1063 
L 3263 -1063 
z
" transform="scale(0.015625)"/>
     </defs>
     <use xlink:href="#DejaVuSans-56"/>
     <use xlink:href="#DejaVuSans-69" x="66.158203"/>
     <use xlink:href="#DejaVuSans-6f" x="93.941406"/>
     <use xlink:href="#DejaVuSans-6c" x="155.123047"/>
     <use xlink:href="#DejaVuSans-69" x="182.90625"/>
     <use xlink:href="#DejaVuSans-6e" x="210.689453"/>
     <use xlink:href="#DejaVuSans-70" x="274.068359"/>
     <use xlink:href="#DejaVuSans-6c" x="337.544922"/>
     <use xlink:href="#DejaVuSans-6f" x="365.328125"/>
     <use xlink:href="#DejaVuSans-74" x="426.509766"/>
     <use xlink:href="#DejaVuSans-20" x="465.71875"/>
     <use xlink:href="#DejaVuSans-66" x="497.505859"/>
     <use xlink:href="#DejaVuSans-6f" x="532.710938"/>
     <use xlink:href="#DejaVuSans-72" x="593.892578"/>
     <use xlink:href="#DejaVuSans-20" x="635.005859"/>
     <use xlink:href="#DejaVuSans-70" x="666.792969"/>
     <use xlink:href="#DejaVuSans-72" x="730.269531"/>
     <use xlink:href="#DejaVuSans-6f" x="769.132812"/>
     <use xlink:href="#DejaVuSans-67" x="830.314453"/>
     <use xlink:href="#DejaVuSans-72" x="893.791016"/>
     <use xlink:href="#DejaVuSans-65" x="932.654297"/>
     <use xlink:href="#DejaVuSans-73" x="994.177734"/>
     <use xlink:href="#DejaVuSans-73" x="1046.277344"/>
     <use xlink:href="#DejaVuSans-20" x="1098.376953"/>
     <use xlink:href="#DejaVuSans-6f" x="1130.164062"/>
     <use xlink:href="#DejaVuSans-66" x="1191.345703"/>
     <use xlink:href="#DejaVuSans-20" x="1226.550781"/>
     <use xlink:href="#DejaVuSans-63" x="1258.337891"/>
     <use xlink:href="#DejaVuSans-75" x="1313.318359"/>
     <use xlink:href="#DejaVuSans-73" x="1376.697266"/>
     <use xlink:href="#DejaVuSans-74" x="1428.796875"/>
     <use xlink:href="#DejaVuSans-6f" x="1468.005859"/>
     <use xlink:href="#DejaVuSans-6d" x="1529.1875"/>
     <use xlink:href="#DejaVuSans-65" x="1626.599609"/>
     <use xlink:href="#DejaVuSans-72" x="1688.123047"/>
     <use xlink:href="#DejaVuSans-2f" x="1729.236328"/>
     <use xlink:href="#DejaVuSans-70" x="1762.927734"/>
     <use xlink:href="#DejaVuSans-75" x="1826.404297"/>
     <use xlink:href="#DejaVuSans-72" x="1889.783203"/>
     <use xlink:href="#DejaVuSans-63" x="1928.646484"/>
     <use xlink:href="#DejaVuSans-68" x="1983.626953"/>
     <use xlink:href="#DejaVuSans-61" x="2047.005859"/>
     <use xlink:href="#DejaVuSans-73" x="2108.285156"/>
     <use xlink:href="#DejaVuSans-65" x="2160.384766"/>
     <use xlink:href="#DejaVuSans-73" x="2221.908203"/>
     <use xlink:href="#DejaVuSans-5f" x="2274.007812"/>
     <use xlink:href="#DejaVuSans-6e" x="2324.007812"/>
     <use xlink:href="#DejaVuSans-65" x="2387.386719"/>
     <use xlink:href="#DejaVuSans-77" x="2448.910156"/>
    </g>
   </g>
   <g id="legend_1">
    <g id="patch_7">
     <path d="M 276.25125 64.150125 
L 407.72 64.150125 
Q 409.72 64.150125 409.72 62.150125 
L 409.72 48.472 
Q 409.72 46.472 407.72 46.472 
L 276.25125 46.472 
Q 274.25125 46.472 274.25125 48.472 
L 274.25125 62.150125 
Q 274.25125 64.150125 276.25125 64.150125 
z
" style="fill: #ffffff; opacity: 0.8; stroke: #cccccc; stroke-linejoin: miter"/>
    </g>
    <g id="line2d_35">
     <path d="M 278.25125 54.570438 
L 288.25125 54.570438 
L 298.25125 54.570438 
" style="fill: none; stroke: #4682b4; stroke-width: 1.5; stroke-linecap: square"/>
    </g>
    <g id="text_20">
     <!-- StableBaselinesSAC -->
     <g transform="translate(306.25125 58.070438)scale(0.1 -0.1)">
      <defs>
       <path id="DejaVuSans-53" d="M 3425 4513 
L 3425 3897 
Q 3066 4069 2747 4153 
Q 2428 4238 2131 4238 
Q 1616 4238 1336 4038 
Q 1056 3838 1056 3469 
Q 1056 3159 1242 3001 
Q 1428 2844 1947 2747 
L 2328 2669 
Q 3034 2534 3370 2195 
Q 3706 1856 3706 1288 
Q 3706 609 3251 259 
Q 2797 -91 1919 -91 
Q 1588 -91 1214 -16 
Q 841 59 441 206 
L 441 856 
Q 825 641 1194 531 
Q 1563 422 1919 422 
Q 2459 422 2753 634 
Q 3047 847 3047 1241 
Q 3047 1584 2836 1778 
Q 2625 1972 2144 2069 
L 1759 2144 
Q 1053 2284 737 2584 
Q 422 2884 422 3419 
Q 422 4038 858 4394 
Q 1294 4750 2059 4750 
Q 2388 4750 2728 4690 
Q 3069 4631 3425 4513 
z
" transform="scale(0.015625)"/>
       <path id="DejaVuSans-62" d="M 3116 1747 
Q 3116 2381 2855 2742 
Q 2594 3103 2138 3103 
Q 1681 3103 1420 2742 
Q 1159 2381 1159 1747 
Q 1159 1113 1420 752 
Q 1681 391 2138 391 
Q 2594 391 2855 752 
Q 3116 1113 3116 1747 
z
M 1159 2969 
Q 1341 3281 1617 3432 
Q 1894 3584 2278 3584 
Q 2916 3584 3314 3078 
Q 3713 2572 3713 1747 
Q 3713 922 3314 415 
Q 2916 -91 2278 -91 
Q 1894 -91 1617 61 
Q 1341 213 1159 525 
L 1159 0 
L 581 0 
L 581 4863 
L 1159 4863 
L 1159 2969 
z
" transform="scale(0.015625)"/>
       <path id="DejaVuSans-42" d="M 1259 2228 
L 1259 519 
L 2272 519 
Q 2781 519 3026 730 
Q 3272 941 3272 1375 
Q 3272 1813 3026 2020 
Q 2781 2228 2272 2228 
L 1259 2228 
z
M 1259 4147 
L 1259 2741 
L 2194 2741 
Q 2656 2741 2882 2914 
Q 3109 3088 3109 3444 
Q 3109 3797 2882 3972 
Q 2656 4147 2194 4147 
L 1259 4147 
z
M 628 4666 
L 2241 4666 
Q 2963 4666 3353 4366 
Q 3744 4066 3744 3513 
Q 3744 3084 3544 2831 
Q 3344 2578 2956 2516 
Q 3422 2416 3680 2098 
Q 3938 1781 3938 1306 
Q 3938 681 3513 340 
Q 3088 0 2303 0 
L 628 0 
L 628 4666 
z
" transform="scale(0.015625)"/>
       <path id="DejaVuSans-41" d="M 2188 4044 
L 1331 1722 
L 3047 1722 
L 2188 4044 
z
M 1831 4666 
L 2547 4666 
L 4325 0 
L 3669 0 
L 3244 1197 
L 1141 1197 
L 716 0 
L 50 0 
L 1831 4666 
z
" transform="scale(0.015625)"/>
       <path id="DejaVuSans-43" d="M 4122 4306 
L 4122 3641 
Q 3803 3938 3442 4084 
Q 3081 4231 2675 4231 
Q 1875 4231 1450 3742 
Q 1025 3253 1025 2328 
Q 1025 1406 1450 917 
Q 1875 428 2675 428 
Q 3081 428 3442 575 
Q 3803 722 4122 1019 
L 4122 359 
Q 3791 134 3420 21 
Q 3050 -91 2638 -91 
Q 1578 -91 968 557 
Q 359 1206 359 2328 
Q 359 3453 968 4101 
Q 1578 4750 2638 4750 
Q 3056 4750 3426 4639 
Q 3797 4528 4122 4306 
z
" transform="scale(0.015625)"/>
      </defs>
      <use xlink:href="#DejaVuSans-53"/>
      <use xlink:href="#DejaVuSans-74" x="63.476562"/>
      <use xlink:href="#DejaVuSans-61" x="102.685547"/>
      <use xlink:href="#DejaVuSans-62" x="163.964844"/>
      <use xlink:href="#DejaVuSans-6c" x="227.441406"/>
      <use xlink:href="#DejaVuSans-65" x="255.224609"/>
      <use xlink:href="#DejaVuSans-42" x="316.748047"/>
      <use xlink:href="#DejaVuSans-61" x="385.351562"/>
      <use xlink:href="#DejaVuSans-73" x="446.630859"/>
      <use xlink:href="#DejaVuSans-65" x="498.730469"/>
      <use xlink:href="#DejaVuSans-6c" x="560.253906"/>
      <use xlink:href="#DejaVuSans-69" x="588.037109"/>
      <use xlink:href="#DejaVuSans-6e" x="615.820312"/>
      <use xlink:href="#DejaVuSans-65" x="679.199219"/>
      <use xlink:href="#DejaVuSans-73" x="740.722656"/>
      <use xlink:href="#DejaVuSans-53" x="792.822266"/>
      <use xlink:href="#DejaVuSans-41" x="858.173828"/>
      <use xlink:href="#DejaVuSans-43" x="924.832031"/>
     </g>
    </g>
   </g>
  </g>
 </g>
 <defs>
  <clipPath id="pf9394a6e1a">
   <rect x="57.6" y="41.472" width="357.12" height="266.112"/>
  </clipPath>
 </defs>
</svg>
