<?xml version="1.0" encoding="utf-8" standalone="no"?>
<!DOCTYPE svg PUBLIC "-//W3C//DTD SVG 1.1//EN"
  "http://www.w3.org/Graphics/SVG/1.1/DTD/svg11.dtd">
<svg xmlns:xlink="http://www.w3.org/1999/xlink" width="460.8pt" height="345.6pt" viewBox="0 0 460.8 345.6" xmlns="http://www.w3.org/2000/svg" version="1.1">
 <metadata>
  <rdf:RDF xmlns:dc="http://purl.org/dc/elements/1.1/" xmlns:cc="http://creativecommons.org/ns#" xmlns:rdf="http://www.w3.org/1999/02/22-rdf-syntax-ns#">
   <cc:Work>
    <dc:type rdf:resource="http://purl.org/dc/dcmitype/StillImage"/>
    <dc:date>2022-06-15T18:26:49.704093</dc:date>
    <dc:format>image/svg+xml</dc:format>
    <dc:creator>
     <cc:Agent>
      <dc:title>Matplotlib v3.5.2, https://matplotlib.org/</dc:title>
     </cc:Agent>
    </dc:creator>
   </cc:Work>
  </rdf:RDF>
 </metadata>
 <defs>
  <style type="text/css">*{stroke-linejoin: round; stroke-linecap: butt}</style>
 </defs>
 <g id="figure_1">
  <g id="patch_1">
   <path d="M 0 345.6 
L 460.8 345.6 
L 460.8 0 
L 0 0 
z
" style="fill: #ffffff"/>
  </g>
  <g id="axes_1">
   <g id="patch_2">
    <path d="M 57.6 307.584 
L 414.72 307.584 
L 414.72 41.472 
L 57.6 41.472 
z
" style="fill: #ffffff"/>
   </g>
   <g id="PolyCollection_1">
    <path d="M 112.929825 275.338285 
L 109.69435 275.338285 
L 109.488409 273.536664 
L 109.275856 271.735044 
L 109.057077 269.933423 
L 108.832855 268.131802 
L 108.604673 266.330181 
L 108.374761 264.52856 
L 108.14577 262.726939 
L 107.920101 260.925319 
L 107.698985 259.123698 
L 107.48153 257.322077 
L 107.263941 255.520456 
L 107.039147 253.718835 
L 106.796944 251.917214 
L 106.524666 250.115594 
L 106.208281 248.313973 
L 105.833724 246.512352 
L 105.388244 244.710731 
L 104.861547 242.90911 
L 104.246622 241.10749 
L 103.540177 239.305869 
L 102.742732 237.504248 
L 101.858471 235.702627 
L 100.894957 233.901006 
L 99.862808 232.099385 
L 98.775389 230.297765 
L 97.648483 228.496144 
L 96.499889 226.694523 
L 95.348835 224.892902 
L 94.215142 223.091281 
L 93.118078 221.289661 
L 92.074964 219.48804 
L 91.099632 217.686419 
L 90.200936 215.884798 
L 89.381521 214.083177 
L 88.637083 212.281556 
L 87.956297 210.479936 
L 87.321524 208.678315 
L 86.710299 206.876694 
L 86.097515 205.075073 
L 85.458091 203.273452 
L 84.769831 201.471832 
L 84.016122 199.670211 
L 83.188118 197.86859 
L 82.286104 196.066969 
L 81.319844 194.265348 
L 80.307879 192.463727 
L 79.275887 190.662107 
L 78.254363 188.860486 
L 77.275981 187.058865 
L 76.372972 185.257244 
L 75.574849 183.455623 
L 74.906665 181.654003 
L 74.387909 179.852382 
L 74.032003 178.050761 
L 73.846338 176.24914 
L 73.832727 174.447519 
L 73.988183 172.645898 
L 74.305932 170.844278 
L 74.776583 169.042657 
L 75.38933 167.241036 
L 76.133085 165.439415 
L 76.997368 163.637794 
L 77.972846 161.836173 
L 79.05145 160.034553 
L 80.226092 158.232932 
L 81.490107 156.431311 
L 82.83661 154.62969 
L 84.257937 152.828069 
L 85.745323 151.026449 
L 87.288831 149.224828 
L 88.877455 147.423207 
L 90.499289 145.621586 
L 92.141576 143.819965 
L 93.790609 142.018344 
L 95.431486 140.216724 
L 97.047863 138.415103 
L 98.621931 136.613482 
L 100.134771 134.811861 
L 101.56723 133.01024 
L 102.901232 131.20862 
L 104.121362 129.406999 
L 105.216385 127.605378 
L 106.180389 125.803757 
L 107.013265 124.002136 
L 107.720419 122.200515 
L 108.311769 120.398895 
L 108.800237 118.597274 
L 109.200077 116.795653 
L 109.525349 114.994032 
L 109.788804 113.192411 
L 110.00132 111.390791 
L 110.171855 109.58917 
L 110.307792 107.787549 
L 110.415459 105.985928 
L 110.500632 104.184307 
L 110.568831 102.382686 
L 110.625373 100.581066 
L 110.675184 98.779445 
L 110.722473 96.977824 
L 111.901702 96.977824 
L 111.901702 96.977824 
L 111.94899 98.779445 
L 111.998802 100.581066 
L 112.055344 102.382686 
L 112.123543 104.184307 
L 112.208715 105.985928 
L 112.316383 107.787549 
L 112.452319 109.58917 
L 112.622854 111.390791 
L 112.835371 113.192411 
L 113.098826 114.994032 
L 113.424097 116.795653 
L 113.823938 118.597274 
L 114.312406 120.398895 
L 114.903755 122.200515 
L 115.61091 124.002136 
L 116.443786 125.803757 
L 117.407789 127.605378 
L 118.502813 129.406999 
L 119.722942 131.20862 
L 121.056945 133.01024 
L 122.489403 134.811861 
L 124.002244 136.613482 
L 125.576311 138.415103 
L 127.192689 140.216724 
L 128.833565 142.018344 
L 130.482599 143.819965 
L 132.124886 145.621586 
L 133.746719 147.423207 
L 135.335344 149.224828 
L 136.878851 151.026449 
L 138.366238 152.828069 
L 139.787565 154.62969 
L 141.134067 156.431311 
L 142.398083 158.232932 
L 143.572724 160.034553 
L 144.651329 161.836173 
L 145.626807 163.637794 
L 146.49109 165.439415 
L 147.234844 167.241036 
L 147.847592 169.042657 
L 148.318242 170.844278 
L 148.635992 172.645898 
L 148.791447 174.447519 
L 148.777836 176.24914 
L 148.592171 178.050761 
L 148.236266 179.852382 
L 147.717509 181.654003 
L 147.049326 183.455623 
L 146.251202 185.257244 
L 145.348194 187.058865 
L 144.369812 188.860486 
L 143.348288 190.662107 
L 142.316295 192.463727 
L 141.304331 194.265348 
L 140.338071 196.066969 
L 139.436057 197.86859 
L 138.608053 199.670211 
L 137.854343 201.471832 
L 137.166083 203.273452 
L 136.526659 205.075073 
L 135.913875 206.876694 
L 135.30265 208.678315 
L 134.667877 210.479936 
L 133.987092 212.281556 
L 133.242654 214.083177 
L 132.423238 215.884798 
L 131.524543 217.686419 
L 130.549211 219.48804 
L 129.506096 221.289661 
L 128.409032 223.091281 
L 127.275339 224.892902 
L 126.124286 226.694523 
L 124.975691 228.496144 
L 123.848785 230.297765 
L 122.761366 232.099385 
L 121.729218 233.901006 
L 120.765703 235.702627 
L 119.881443 237.504248 
L 119.083998 239.305869 
L 118.377552 241.10749 
L 117.762628 242.90911 
L 117.235931 244.710731 
L 116.79045 246.512352 
L 116.415894 248.313973 
L 116.099508 250.115594 
L 115.82723 251.917214 
L 115.585028 253.718835 
L 115.360234 255.520456 
L 115.142645 257.322077 
L 114.925189 259.123698 
L 114.704074 260.925319 
L 114.478404 262.726939 
L 114.249413 264.52856 
L 114.019501 266.330181 
L 113.79132 268.131802 
L 113.567097 269.933423 
L 113.348319 271.735044 
L 113.135766 273.536664 
L 112.929825 275.338285 
z
" clip-path="url(#pe14294f28a)" style="fill: #1f77b4; fill-opacity: 0.3"/>
   </g>
   <g id="PolyCollection_2">
    <path d="M 197.634134 255.698962 
L 191.564975 255.698962 
L 191.198571 253.946823 
L 190.83951 252.194683 
L 190.493089 250.442544 
L 190.162548 248.690405 
L 189.848768 246.938266 
L 189.550217 245.186127 
L 189.263126 243.433987 
L 188.981836 241.681848 
L 188.699236 239.929709 
L 188.407231 238.17757 
L 188.09717 236.42543 
L 187.76021 234.673291 
L 187.387626 232.921152 
L 186.97108 231.169013 
L 186.502887 229.416873 
L 185.976304 227.664734 
L 185.385833 225.912595 
L 184.727531 224.160456 
L 183.999279 222.408316 
L 183.200963 220.656177 
L 182.334523 218.904038 
L 181.40383 217.151899 
L 180.414394 215.399759 
L 179.372914 213.64762 
L 178.286715 211.895481 
L 177.163148 210.143342 
L 176.009024 208.391203 
L 174.830178 206.639063 
L 173.631256 204.886924 
L 172.415787 203.134785 
L 171.186573 201.382646 
L 169.946387 199.630506 
L 168.698898 197.878367 
L 167.449679 196.126228 
L 166.207108 194.374089 
L 164.982955 192.621949 
L 163.792469 190.86981 
L 162.653832 189.117671 
L 161.586969 187.365532 
L 160.61181 185.613392 
L 159.746239 183.861253 
L 159.004023 182.109114 
L 158.393097 180.356975 
L 157.914514 178.604836 
L 157.562289 176.852696 
L 157.32423 175.100557 
L 157.183658 173.348418 
L 157.121759 171.596279 
L 157.120194 169.844139 
L 157.163521 168.092 
L 157.241031 166.339861 
L 157.34769 164.587722 
L 157.484071 162.835582 
L 157.655329 161.083443 
L 157.869483 159.331304 
L 158.135364 157.579165 
L 158.460648 155.827025 
L 158.850341 154.074886 
L 159.305955 152.322747 
L 159.825475 150.570608 
L 160.404029 148.818469 
L 161.035054 147.066329 
L 161.711694 145.31419 
L 162.428144 143.562051 
L 163.180711 141.809912 
L 163.968465 140.057772 
L 164.793401 138.305633 
L 165.660163 136.553494 
L 166.575379 134.801355 
L 167.546719 133.049215 
L 168.581778 131.297076 
L 169.686886 129.544937 
L 170.865949 127.792798 
L 172.119434 126.040658 
L 173.443604 124.288519 
L 174.83009 122.53638 
L 176.265886 120.784241 
L 177.733791 119.032101 
L 179.213276 117.279962 
L 180.681706 115.527823 
L 182.115781 113.775684 
L 183.49305 112.023545 
L 184.793341 110.271405 
L 185.99995 108.519266 
L 187.100503 106.767127 
L 188.087416 105.014988 
L 188.957963 103.262848 
L 189.713969 101.510709 
L 190.361223 99.75857 
L 190.908673 98.006431 
L 191.367528 96.254291 
L 191.750316 94.502152 
L 192.07001 92.750013 
L 192.339239 90.997874 
L 192.569641 89.245734 
L 192.771376 87.493595 
L 192.952787 85.741456 
L 193.120248 83.989317 
L 193.27815 82.237178 
L 195.920958 82.237178 
L 195.920958 82.237178 
L 196.07886 83.989317 
L 196.246321 85.741456 
L 196.427733 87.493595 
L 196.629467 89.245734 
L 196.85987 90.997874 
L 197.129098 92.750013 
L 197.448792 94.502152 
L 197.831581 96.254291 
L 198.290435 98.006431 
L 198.837886 99.75857 
L 199.485139 101.510709 
L 200.241145 103.262848 
L 201.111692 105.014988 
L 202.098606 106.767127 
L 203.199158 108.519266 
L 204.405767 110.271405 
L 205.706058 112.023545 
L 207.083328 113.775684 
L 208.517402 115.527823 
L 209.985832 117.279962 
L 211.465318 119.032101 
L 212.933222 120.784241 
L 214.369018 122.53638 
L 215.755504 124.288519 
L 217.079674 126.040658 
L 218.33316 127.792798 
L 219.512222 129.544937 
L 220.61733 131.297076 
L 221.652389 133.049215 
L 222.62373 134.801355 
L 223.538945 136.553494 
L 224.405707 138.305633 
L 225.230643 140.057772 
L 226.018397 141.809912 
L 226.770964 143.562051 
L 227.487414 145.31419 
L 228.164054 147.066329 
L 228.795079 148.818469 
L 229.373633 150.570608 
L 229.893153 152.322747 
L 230.348767 154.074886 
L 230.73846 155.827025 
L 231.063744 157.579165 
L 231.329626 159.331304 
L 231.54378 161.083443 
L 231.715038 162.835582 
L 231.851418 164.587722 
L 231.958077 166.339861 
L 232.035587 168.092 
L 232.078914 169.844139 
L 232.077349 171.596279 
L 232.015451 173.348418 
L 231.874879 175.100557 
L 231.63682 176.852696 
L 231.284594 178.604836 
L 230.806011 180.356975 
L 230.195085 182.109114 
L 229.452869 183.861253 
L 228.587298 185.613392 
L 227.61214 187.365532 
L 226.545276 189.117671 
L 225.406639 190.86981 
L 224.216153 192.621949 
L 222.992 194.374089 
L 221.749429 196.126228 
L 220.50021 197.878367 
L 219.252722 199.630506 
L 218.012535 201.382646 
L 216.783321 203.134785 
L 215.567852 204.886924 
L 214.36893 206.639063 
L 213.190084 208.391203 
L 212.03596 210.143342 
L 210.912393 211.895481 
L 209.826194 213.64762 
L 208.784714 215.399759 
L 207.795278 217.151899 
L 206.864585 218.904038 
L 205.998145 220.656177 
L 205.19983 222.408316 
L 204.471577 224.160456 
L 203.813275 225.912595 
L 203.222804 227.664734 
L 202.696221 229.416873 
L 202.228028 231.169013 
L 201.811482 232.921152 
L 201.438898 234.673291 
L 201.101938 236.42543 
L 200.791877 238.17757 
L 200.499872 239.929709 
L 200.217273 241.681848 
L 199.935982 243.433987 
L 199.648891 245.186127 
L 199.35034 246.938266 
L 199.03656 248.690405 
L 198.706019 250.442544 
L 198.359599 252.194683 
L 198.000537 253.946823 
L 197.634134 255.698962 
z
" clip-path="url(#pe14294f28a)" style="fill: #1f77b4; fill-opacity: 0.3"/>
   </g>
   <g id="PolyCollection_3">
    <path d="M 278.380478 295.488 
L 277.393564 295.488 
L 277.399189 293.167126 
L 277.418383 290.846252 
L 277.447665 288.525378 
L 277.481851 286.204504 
L 277.514386 283.88363 
L 277.537724 281.562756 
L 277.543679 279.241882 
L 277.523721 276.921009 
L 277.469218 274.600135 
L 277.371684 272.279261 
L 277.223095 269.958387 
L 277.016322 267.637513 
L 276.745694 265.316639 
L 276.407639 262.995765 
L 276.001302 260.674891 
L 275.529005 258.354017 
L 274.996401 256.033143 
L 274.412256 253.712269 
L 273.787801 251.391395 
L 273.135744 249.070521 
L 272.469052 246.749647 
L 271.799701 244.428774 
L 271.137552 242.1079 
L 270.489496 239.787026 
L 269.858935 237.466152 
L 269.245589 235.145278 
L 268.645557 232.824404 
L 268.051583 230.50353 
L 267.453439 228.182656 
L 266.83843 225.861782 
L 266.192048 223.540908 
L 265.498791 221.220034 
L 264.743197 218.89916 
L 263.911025 216.578286 
L 262.990502 214.257412 
L 261.973468 211.936539 
L 260.856256 209.615665 
L 259.640165 207.294791 
L 258.331448 204.973917 
L 256.940856 202.653043 
L 255.48286 200.332169 
L 253.97475 198.011295 
L 252.435864 195.690421 
L 250.887141 193.369547 
L 249.351082 191.048673 
L 247.852053 188.727799 
L 246.416656 186.406925 
L 245.073767 184.086051 
L 243.853819 181.765177 
L 242.78705 179.444303 
L 241.900696 177.12343 
L 241.215472 174.802556 
L 240.742014 172.481682 
L 240.47813 170.160808 
L 240.407661 167.839934 
L 240.501502 165.51906 
L 240.72087 163.198186 
L 241.022417 160.877312 
L 241.36433 158.556438 
L 241.712318 156.235564 
L 242.044353 153.91469 
L 242.353285 151.593816 
L 242.64685 149.272942 
L 242.94513 146.952068 
L 243.276 144.631195 
L 243.669485 142.310321 
L 244.152125 139.989447 
L 244.742403 137.668573 
L 245.448053 135.347699 
L 246.265654 133.026825 
L 247.182458 130.705951 
L 248.179955 128.385077 
L 249.238325 126.064203 
L 250.340789 123.743329 
L 251.47691 121.422455 
L 252.64415 119.101581 
L 253.847405 116.780707 
L 255.096657 114.459833 
L 256.403319 112.13896 
L 257.776095 109.818086 
L 259.217241 107.497212 
L 260.720017 105.176338 
L 262.267825 102.855464 
L 263.835182 100.53459 
L 265.390294 98.213716 
L 266.898709 95.892842 
L 268.327359 93.571968 
L 269.64825 91.251094 
L 270.841202 88.93022 
L 271.895278 86.609346 
L 272.808797 84.288472 
L 273.588122 81.967598 
L 274.245621 79.646724 
L 274.797254 77.325851 
L 275.260239 75.004977 
L 275.651143 72.684103 
L 275.98456 70.363229 
L 276.272411 68.042355 
L 276.523774 65.721481 
L 279.250268 65.721481 
L 279.250268 65.721481 
L 279.501631 68.042355 
L 279.789482 70.363229 
L 280.122899 72.684103 
L 280.513803 75.004977 
L 280.976788 77.325851 
L 281.528421 79.646724 
L 282.18592 81.967598 
L 282.965245 84.288472 
L 283.878763 86.609346 
L 284.93284 88.93022 
L 286.125792 91.251094 
L 287.446682 93.571968 
L 288.875333 95.892842 
L 290.383748 98.213716 
L 291.93886 100.53459 
L 293.506217 102.855464 
L 295.054025 105.176338 
L 296.556801 107.497212 
L 297.997946 109.818086 
L 299.370722 112.13896 
L 300.677385 114.459833 
L 301.926636 116.780707 
L 303.129892 119.101581 
L 304.297132 121.422455 
L 305.433253 123.743329 
L 306.535717 126.064203 
L 307.594086 128.385077 
L 308.591583 130.705951 
L 309.508388 133.026825 
L 310.325989 135.347699 
L 311.031639 137.668573 
L 311.621917 139.989447 
L 312.104556 142.310321 
L 312.498041 144.631195 
L 312.828912 146.952068 
L 313.127192 149.272942 
L 313.420757 151.593816 
L 313.729688 153.91469 
L 314.061723 156.235564 
L 314.409711 158.556438 
L 314.751625 160.877312 
L 315.053172 163.198186 
L 315.27254 165.51906 
L 315.366381 167.839934 
L 315.295912 170.160808 
L 315.032028 172.481682 
L 314.55857 174.802556 
L 313.873346 177.12343 
L 312.986992 179.444303 
L 311.920223 181.765177 
L 310.700275 184.086051 
L 309.357385 186.406925 
L 307.921989 188.727799 
L 306.42296 191.048673 
L 304.886901 193.369547 
L 303.338177 195.690421 
L 301.799292 198.011295 
L 300.291182 200.332169 
L 298.833185 202.653043 
L 297.442594 204.973917 
L 296.133877 207.294791 
L 294.917786 209.615665 
L 293.800574 211.936539 
L 292.78354 214.257412 
L 291.863016 216.578286 
L 291.030844 218.89916 
L 290.27525 221.220034 
L 289.581994 223.540908 
L 288.935611 225.861782 
L 288.320603 228.182656 
L 287.722459 230.50353 
L 287.128485 232.824404 
L 286.528453 235.145278 
L 285.915106 237.466152 
L 285.284546 239.787026 
L 284.63649 242.1079 
L 283.97434 244.428774 
L 283.30499 246.749647 
L 282.638298 249.070521 
L 281.98624 251.391395 
L 281.361786 253.712269 
L 280.777641 256.033143 
L 280.245037 258.354017 
L 279.772739 260.674891 
L 279.366403 262.995765 
L 279.028348 265.316639 
L 278.75772 267.637513 
L 278.550946 269.958387 
L 278.402357 272.279261 
L 278.304823 274.600135 
L 278.25032 276.921009 
L 278.230362 279.241882 
L 278.236318 281.562756 
L 278.259656 283.88363 
L 278.292191 286.204504 
L 278.326377 288.525378 
L 278.355658 290.846252 
L 278.374852 293.167126 
L 278.380478 295.488 
z
" clip-path="url(#pe14294f28a)" style="fill: #1f77b4; fill-opacity: 0.3"/>
   </g>
   <g id="PolyCollection_4">
    <path d="M 362.257857 266.963875 
L 359.757969 266.963875 
L 359.522352 264.808361 
L 359.251773 262.652847 
L 358.943036 260.497333 
L 358.593919 258.341819 
L 358.203587 256.186305 
L 357.772901 254.030791 
L 357.304564 251.875278 
L 356.80312 249.719764 
L 356.274802 247.56425 
L 355.727278 245.408736 
L 355.169292 243.253222 
L 354.61025 241.097708 
L 354.059706 238.942194 
L 353.526761 236.78668 
L 353.019365 234.631166 
L 352.543512 232.475653 
L 352.102399 230.320139 
L 351.69561 228.164625 
L 351.318438 226.009111 
L 350.961462 223.853597 
L 350.610496 221.698083 
L 350.246999 219.542569 
L 349.848978 217.387055 
L 349.392396 215.231542 
L 348.852985 213.076028 
L 348.208346 210.920514 
L 347.44012 208.765 
L 346.535999 206.609486 
L 345.491314 204.453972 
L 344.309975 202.298458 
L 343.004591 200.142944 
L 341.595719 197.98743 
L 340.110308 195.831917 
L 338.579522 193.676403 
L 337.036215 191.520889 
L 335.512373 189.365375 
L 334.036827 187.209861 
L 332.633481 185.054347 
L 331.320227 182.898833 
L 330.108626 180.743319 
L 329.00434 178.587805 
L 328.008221 176.432292 
L 327.117869 174.276778 
L 326.329396 172.121264 
L 325.639078 169.96575 
L 325.044591 167.810236 
L 324.545563 165.654722 
L 324.143344 163.499208 
L 323.840071 161.343694 
L 323.637289 159.18818 
L 323.534568 157.032667 
L 323.528553 154.877153 
L 323.612836 152.721639 
L 323.778791 150.566125 
L 324.017272 148.410611 
L 324.320795 146.255097 
L 324.685655 144.099583 
L 325.113396 141.944069 
L 325.611172 139.788555 
L 326.190805 137.633042 
L 326.866653 135.477528 
L 327.652695 133.322014 
L 328.559444 131.1665 
L 329.591342 129.010986 
L 330.745155 126.855472 
L 332.009673 124.699958 
L 333.366682 122.544444 
L 334.792922 120.38893 
L 336.262537 118.233417 
L 337.749531 116.077903 
L 339.229783 113.922389 
L 340.682428 111.766875 
L 342.090588 109.611361 
L 343.441607 107.455847 
L 344.727023 105.300333 
L 345.942453 103.144819 
L 347.087455 100.989306 
L 348.165306 98.833792 
L 349.182546 96.678278 
L 350.148145 94.522764 
L 351.072248 92.36725 
L 351.964585 90.211736 
L 352.83279 88.056222 
L 353.680956 85.900708 
L 354.508727 83.745194 
L 355.311176 81.589681 
L 356.079488 79.434167 
L 356.802361 77.278653 
L 357.467823 75.123139 
L 358.065148 72.967625 
L 358.586509 70.812111 
L 359.028117 68.656597 
L 359.390701 66.501083 
L 359.679309 64.345569 
L 359.902541 62.190056 
L 360.071386 60.034542 
L 360.197896 57.879028 
L 360.293892 55.723514 
L 360.369889 53.568 
L 361.645936 53.568 
L 361.645936 53.568 
L 361.721933 55.723514 
L 361.817929 57.879028 
L 361.944439 60.034542 
L 362.113284 62.190056 
L 362.336516 64.345569 
L 362.625124 66.501083 
L 362.987708 68.656597 
L 363.429316 70.812111 
L 363.950677 72.967625 
L 364.548002 75.123139 
L 365.213465 77.278653 
L 365.936338 79.434167 
L 366.70465 81.589681 
L 367.507098 83.745194 
L 368.334869 85.900708 
L 369.183035 88.056222 
L 370.051241 90.211736 
L 370.943578 92.36725 
L 371.86768 94.522764 
L 372.83328 96.678278 
L 373.850519 98.833792 
L 374.92837 100.989306 
L 376.073372 103.144819 
L 377.288802 105.300333 
L 378.574218 107.455847 
L 379.925237 109.611361 
L 381.333397 111.766875 
L 382.786043 113.922389 
L 384.266294 116.077903 
L 385.753288 118.233417 
L 387.222904 120.38893 
L 388.649143 122.544444 
L 390.006153 124.699958 
L 391.27067 126.855472 
L 392.424483 129.010986 
L 393.456381 131.1665 
L 394.363131 133.322014 
L 395.149173 135.477528 
L 395.82502 137.633042 
L 396.404653 139.788555 
L 396.902429 141.944069 
L 397.33017 144.099583 
L 397.695031 146.255097 
L 397.998554 148.410611 
L 398.237035 150.566125 
L 398.40299 152.721639 
L 398.487273 154.877153 
L 398.481258 157.032667 
L 398.378536 159.18818 
L 398.175754 161.343694 
L 397.872481 163.499208 
L 397.470263 165.654722 
L 396.971234 167.810236 
L 396.376747 169.96575 
L 395.68643 172.121264 
L 394.897956 174.276778 
L 394.007605 176.432292 
L 393.011486 178.587805 
L 391.907199 180.743319 
L 390.695598 182.898833 
L 389.382345 185.054347 
L 387.978998 187.209861 
L 386.503452 189.365375 
L 384.97961 191.520889 
L 383.436303 193.676403 
L 381.905517 195.831917 
L 380.420107 197.98743 
L 379.011235 200.142944 
L 377.70585 202.298458 
L 376.524511 204.453972 
L 375.479826 206.609486 
L 374.575705 208.765 
L 373.807479 210.920514 
L 373.16284 213.076028 
L 372.623429 215.231542 
L 372.166847 217.387055 
L 371.768826 219.542569 
L 371.405329 221.698083 
L 371.054364 223.853597 
L 370.697388 226.009111 
L 370.320216 228.164625 
L 369.913427 230.320139 
L 369.472314 232.475653 
L 368.99646 234.631166 
L 368.489064 236.78668 
L 367.95612 238.942194 
L 367.405575 241.097708 
L 366.846533 243.253222 
L 366.288548 245.408736 
L 365.741023 247.56425 
L 365.212706 249.719764 
L 364.711261 251.875278 
L 364.242925 254.030791 
L 363.812238 256.186305 
L 363.421907 258.341819 
L 363.072789 260.497333 
L 362.764052 262.652847 
L 362.493473 264.808361 
L 362.257857 266.963875 
z
" clip-path="url(#pe14294f28a)" style="fill: #1f77b4; fill-opacity: 0.3"/>
   </g>
   <g id="matplotlib.axis_1">
    <g id="xtick_1">
     <g id="line2d_1">
      <defs>
       <path id="m762eff8ceb" d="M 0 0 
L 0 3.5 
" style="stroke: #000000; stroke-width: 0.8"/>
      </defs>
      <g>
       <use xlink:href="#m762eff8ceb" x="69.668354" y="307.584" style="stroke: #000000; stroke-width: 0.8"/>
      </g>
     </g>
     <g id="text_1">
      <!-- 250 -->
      <g transform="translate(60.124604 322.182437)scale(0.1 -0.1)">
       <defs>
        <path id="DejaVuSans-32" d="M 1228 531 
L 3431 531 
L 3431 0 
L 469 0 
L 469 531 
Q 828 903 1448 1529 
Q 2069 2156 2228 2338 
Q 2531 2678 2651 2914 
Q 2772 3150 2772 3378 
Q 2772 3750 2511 3984 
Q 2250 4219 1831 4219 
Q 1534 4219 1204 4116 
Q 875 4013 500 3803 
L 500 4441 
Q 881 4594 1212 4672 
Q 1544 4750 1819 4750 
Q 2544 4750 2975 4387 
Q 3406 4025 3406 3419 
Q 3406 3131 3298 2873 
Q 3191 2616 2906 2266 
Q 2828 2175 2409 1742 
Q 1991 1309 1228 531 
z
" transform="scale(0.015625)"/>
        <path id="DejaVuSans-35" d="M 691 4666 
L 3169 4666 
L 3169 4134 
L 1269 4134 
L 1269 2991 
Q 1406 3038 1543 3061 
Q 1681 3084 1819 3084 
Q 2600 3084 3056 2656 
Q 3513 2228 3513 1497 
Q 3513 744 3044 326 
Q 2575 -91 1722 -91 
Q 1428 -91 1123 -41 
Q 819 9 494 109 
L 494 744 
Q 775 591 1075 516 
Q 1375 441 1709 441 
Q 2250 441 2565 725 
Q 2881 1009 2881 1497 
Q 2881 1984 2565 2268 
Q 2250 2553 1709 2553 
Q 1456 2553 1204 2497 
Q 953 2441 691 2322 
L 691 4666 
z
" transform="scale(0.015625)"/>
        <path id="DejaVuSans-30" d="M 2034 4250 
Q 1547 4250 1301 3770 
Q 1056 3291 1056 2328 
Q 1056 1369 1301 889 
Q 1547 409 2034 409 
Q 2525 409 2770 889 
Q 3016 1369 3016 2328 
Q 3016 3291 2770 3770 
Q 2525 4250 2034 4250 
z
M 2034 4750 
Q 2819 4750 3233 4129 
Q 3647 3509 3647 2328 
Q 3647 1150 3233 529 
Q 2819 -91 2034 -91 
Q 1250 -91 836 529 
Q 422 1150 422 2328 
Q 422 3509 836 4129 
Q 1250 4750 2034 4750 
z
" transform="scale(0.015625)"/>
       </defs>
       <use xlink:href="#DejaVuSans-32"/>
       <use xlink:href="#DejaVuSans-35" x="63.623047"/>
       <use xlink:href="#DejaVuSans-30" x="127.246094"/>
      </g>
     </g>
    </g>
    <g id="xtick_2">
     <g id="line2d_2">
      <g>
       <use xlink:href="#m762eff8ceb" x="111.312087" y="307.584" style="stroke: #000000; stroke-width: 0.8"/>
      </g>
     </g>
     <g id="text_2">
      <!-- 500 -->
      <g transform="translate(101.768337 322.182437)scale(0.1 -0.1)">
       <use xlink:href="#DejaVuSans-35"/>
       <use xlink:href="#DejaVuSans-30" x="63.623047"/>
       <use xlink:href="#DejaVuSans-30" x="127.246094"/>
      </g>
     </g>
    </g>
    <g id="xtick_3">
     <g id="line2d_3">
      <g>
       <use xlink:href="#m762eff8ceb" x="152.955821" y="307.584" style="stroke: #000000; stroke-width: 0.8"/>
      </g>
     </g>
     <g id="text_3">
      <!-- 750 -->
      <g transform="translate(143.412071 322.182437)scale(0.1 -0.1)">
       <defs>
        <path id="DejaVuSans-37" d="M 525 4666 
L 3525 4666 
L 3525 4397 
L 1831 0 
L 1172 0 
L 2766 4134 
L 525 4134 
L 525 4666 
z
" transform="scale(0.015625)"/>
       </defs>
       <use xlink:href="#DejaVuSans-37"/>
       <use xlink:href="#DejaVuSans-35" x="63.623047"/>
       <use xlink:href="#DejaVuSans-30" x="127.246094"/>
      </g>
     </g>
    </g>
    <g id="xtick_4">
     <g id="line2d_4">
      <g>
       <use xlink:href="#m762eff8ceb" x="194.599554" y="307.584" style="stroke: #000000; stroke-width: 0.8"/>
      </g>
     </g>
     <g id="text_4">
      <!-- 1000 -->
      <g transform="translate(181.874554 322.182437)scale(0.1 -0.1)">
       <defs>
        <path id="DejaVuSans-31" d="M 794 531 
L 1825 531 
L 1825 4091 
L 703 3866 
L 703 4441 
L 1819 4666 
L 2450 4666 
L 2450 531 
L 3481 531 
L 3481 0 
L 794 0 
L 794 531 
z
" transform="scale(0.015625)"/>
       </defs>
       <use xlink:href="#DejaVuSans-31"/>
       <use xlink:href="#DejaVuSans-30" x="63.623047"/>
       <use xlink:href="#DejaVuSans-30" x="127.246094"/>
       <use xlink:href="#DejaVuSans-30" x="190.869141"/>
      </g>
     </g>
    </g>
    <g id="xtick_5">
     <g id="line2d_5">
      <g>
       <use xlink:href="#m762eff8ceb" x="236.243287" y="307.584" style="stroke: #000000; stroke-width: 0.8"/>
      </g>
     </g>
     <g id="text_5">
      <!-- 1250 -->
      <g transform="translate(223.518287 322.182437)scale(0.1 -0.1)">
       <use xlink:href="#DejaVuSans-31"/>
       <use xlink:href="#DejaVuSans-32" x="63.623047"/>
       <use xlink:href="#DejaVuSans-35" x="127.246094"/>
       <use xlink:href="#DejaVuSans-30" x="190.869141"/>
      </g>
     </g>
    </g>
    <g id="xtick_6">
     <g id="line2d_6">
      <g>
       <use xlink:href="#m762eff8ceb" x="277.887021" y="307.584" style="stroke: #000000; stroke-width: 0.8"/>
      </g>
     </g>
     <g id="text_6">
      <!-- 1500 -->
      <g transform="translate(265.162021 322.182437)scale(0.1 -0.1)">
       <use xlink:href="#DejaVuSans-31"/>
       <use xlink:href="#DejaVuSans-35" x="63.623047"/>
       <use xlink:href="#DejaVuSans-30" x="127.246094"/>
       <use xlink:href="#DejaVuSans-30" x="190.869141"/>
      </g>
     </g>
    </g>
    <g id="xtick_7">
     <g id="line2d_7">
      <g>
       <use xlink:href="#m762eff8ceb" x="319.530754" y="307.584" style="stroke: #000000; stroke-width: 0.8"/>
      </g>
     </g>
     <g id="text_7">
      <!-- 1750 -->
      <g transform="translate(306.805754 322.182437)scale(0.1 -0.1)">
       <use xlink:href="#DejaVuSans-31"/>
       <use xlink:href="#DejaVuSans-37" x="63.623047"/>
       <use xlink:href="#DejaVuSans-35" x="127.246094"/>
       <use xlink:href="#DejaVuSans-30" x="190.869141"/>
      </g>
     </g>
    </g>
    <g id="xtick_8">
     <g id="line2d_8">
      <g>
       <use xlink:href="#m762eff8ceb" x="361.174488" y="307.584" style="stroke: #000000; stroke-width: 0.8"/>
      </g>
     </g>
     <g id="text_8">
      <!-- 2000 -->
      <g transform="translate(348.449488 322.182437)scale(0.1 -0.1)">
       <use xlink:href="#DejaVuSans-32"/>
       <use xlink:href="#DejaVuSans-30" x="63.623047"/>
       <use xlink:href="#DejaVuSans-30" x="127.246094"/>
       <use xlink:href="#DejaVuSans-30" x="190.869141"/>
      </g>
     </g>
    </g>
    <g id="xtick_9">
     <g id="line2d_9">
      <g>
       <use xlink:href="#m762eff8ceb" x="402.818221" y="307.584" style="stroke: #000000; stroke-width: 0.8"/>
      </g>
     </g>
     <g id="text_9">
      <!-- 2250 -->
      <g transform="translate(390.093221 322.182437)scale(0.1 -0.1)">
       <use xlink:href="#DejaVuSans-32"/>
       <use xlink:href="#DejaVuSans-32" x="63.623047"/>
       <use xlink:href="#DejaVuSans-35" x="127.246094"/>
       <use xlink:href="#DejaVuSans-30" x="190.869141"/>
      </g>
     </g>
    </g>
    <g id="text_10">
     <!-- Learned Episodes -->
     <g transform="translate(192.102187 335.860562)scale(0.1 -0.1)">
      <defs>
       <path id="DejaVuSans-4c" d="M 628 4666 
L 1259 4666 
L 1259 531 
L 3531 531 
L 3531 0 
L 628 0 
L 628 4666 
z
" transform="scale(0.015625)"/>
       <path id="DejaVuSans-65" d="M 3597 1894 
L 3597 1613 
L 953 1613 
Q 991 1019 1311 708 
Q 1631 397 2203 397 
Q 2534 397 2845 478 
Q 3156 559 3463 722 
L 3463 178 
Q 3153 47 2828 -22 
Q 2503 -91 2169 -91 
Q 1331 -91 842 396 
Q 353 884 353 1716 
Q 353 2575 817 3079 
Q 1281 3584 2069 3584 
Q 2775 3584 3186 3129 
Q 3597 2675 3597 1894 
z
M 3022 2063 
Q 3016 2534 2758 2815 
Q 2500 3097 2075 3097 
Q 1594 3097 1305 2825 
Q 1016 2553 972 2059 
L 3022 2063 
z
" transform="scale(0.015625)"/>
       <path id="DejaVuSans-61" d="M 2194 1759 
Q 1497 1759 1228 1600 
Q 959 1441 959 1056 
Q 959 750 1161 570 
Q 1363 391 1709 391 
Q 2188 391 2477 730 
Q 2766 1069 2766 1631 
L 2766 1759 
L 2194 1759 
z
M 3341 1997 
L 3341 0 
L 2766 0 
L 2766 531 
Q 2569 213 2275 61 
Q 1981 -91 1556 -91 
Q 1019 -91 701 211 
Q 384 513 384 1019 
Q 384 1609 779 1909 
Q 1175 2209 1959 2209 
L 2766 2209 
L 2766 2266 
Q 2766 2663 2505 2880 
Q 2244 3097 1772 3097 
Q 1472 3097 1187 3025 
Q 903 2953 641 2809 
L 641 3341 
Q 956 3463 1253 3523 
Q 1550 3584 1831 3584 
Q 2591 3584 2966 3190 
Q 3341 2797 3341 1997 
z
" transform="scale(0.015625)"/>
       <path id="DejaVuSans-72" d="M 2631 2963 
Q 2534 3019 2420 3045 
Q 2306 3072 2169 3072 
Q 1681 3072 1420 2755 
Q 1159 2438 1159 1844 
L 1159 0 
L 581 0 
L 581 3500 
L 1159 3500 
L 1159 2956 
Q 1341 3275 1631 3429 
Q 1922 3584 2338 3584 
Q 2397 3584 2469 3576 
Q 2541 3569 2628 3553 
L 2631 2963 
z
" transform="scale(0.015625)"/>
       <path id="DejaVuSans-6e" d="M 3513 2113 
L 3513 0 
L 2938 0 
L 2938 2094 
Q 2938 2591 2744 2837 
Q 2550 3084 2163 3084 
Q 1697 3084 1428 2787 
Q 1159 2491 1159 1978 
L 1159 0 
L 581 0 
L 581 3500 
L 1159 3500 
L 1159 2956 
Q 1366 3272 1645 3428 
Q 1925 3584 2291 3584 
Q 2894 3584 3203 3211 
Q 3513 2838 3513 2113 
z
" transform="scale(0.015625)"/>
       <path id="DejaVuSans-64" d="M 2906 2969 
L 2906 4863 
L 3481 4863 
L 3481 0 
L 2906 0 
L 2906 525 
Q 2725 213 2448 61 
Q 2172 -91 1784 -91 
Q 1150 -91 751 415 
Q 353 922 353 1747 
Q 353 2572 751 3078 
Q 1150 3584 1784 3584 
Q 2172 3584 2448 3432 
Q 2725 3281 2906 2969 
z
M 947 1747 
Q 947 1113 1208 752 
Q 1469 391 1925 391 
Q 2381 391 2643 752 
Q 2906 1113 2906 1747 
Q 2906 2381 2643 2742 
Q 2381 3103 1925 3103 
Q 1469 3103 1208 2742 
Q 947 2381 947 1747 
z
" transform="scale(0.015625)"/>
       <path id="DejaVuSans-20" transform="scale(0.015625)"/>
       <path id="DejaVuSans-45" d="M 628 4666 
L 3578 4666 
L 3578 4134 
L 1259 4134 
L 1259 2753 
L 3481 2753 
L 3481 2222 
L 1259 2222 
L 1259 531 
L 3634 531 
L 3634 0 
L 628 0 
L 628 4666 
z
" transform="scale(0.015625)"/>
       <path id="DejaVuSans-70" d="M 1159 525 
L 1159 -1331 
L 581 -1331 
L 581 3500 
L 1159 3500 
L 1159 2969 
Q 1341 3281 1617 3432 
Q 1894 3584 2278 3584 
Q 2916 3584 3314 3078 
Q 3713 2572 3713 1747 
Q 3713 922 3314 415 
Q 2916 -91 2278 -91 
Q 1894 -91 1617 61 
Q 1341 213 1159 525 
z
M 3116 1747 
Q 3116 2381 2855 2742 
Q 2594 3103 2138 3103 
Q 1681 3103 1420 2742 
Q 1159 2381 1159 1747 
Q 1159 1113 1420 752 
Q 1681 391 2138 391 
Q 2594 391 2855 752 
Q 3116 1113 3116 1747 
z
" transform="scale(0.015625)"/>
       <path id="DejaVuSans-69" d="M 603 3500 
L 1178 3500 
L 1178 0 
L 603 0 
L 603 3500 
z
M 603 4863 
L 1178 4863 
L 1178 4134 
L 603 4134 
L 603 4863 
z
" transform="scale(0.015625)"/>
       <path id="DejaVuSans-73" d="M 2834 3397 
L 2834 2853 
Q 2591 2978 2328 3040 
Q 2066 3103 1784 3103 
Q 1356 3103 1142 2972 
Q 928 2841 928 2578 
Q 928 2378 1081 2264 
Q 1234 2150 1697 2047 
L 1894 2003 
Q 2506 1872 2764 1633 
Q 3022 1394 3022 966 
Q 3022 478 2636 193 
Q 2250 -91 1575 -91 
Q 1294 -91 989 -36 
Q 684 19 347 128 
L 347 722 
Q 666 556 975 473 
Q 1284 391 1588 391 
Q 1994 391 2212 530 
Q 2431 669 2431 922 
Q 2431 1156 2273 1281 
Q 2116 1406 1581 1522 
L 1381 1569 
Q 847 1681 609 1914 
Q 372 2147 372 2553 
Q 372 3047 722 3315 
Q 1072 3584 1716 3584 
Q 2034 3584 2315 3537 
Q 2597 3491 2834 3397 
z
" transform="scale(0.015625)"/>
       <path id="DejaVuSans-6f" d="M 1959 3097 
Q 1497 3097 1228 2736 
Q 959 2375 959 1747 
Q 959 1119 1226 758 
Q 1494 397 1959 397 
Q 2419 397 2687 759 
Q 2956 1122 2956 1747 
Q 2956 2369 2687 2733 
Q 2419 3097 1959 3097 
z
M 1959 3584 
Q 2709 3584 3137 3096 
Q 3566 2609 3566 1747 
Q 3566 888 3137 398 
Q 2709 -91 1959 -91 
Q 1206 -91 779 398 
Q 353 888 353 1747 
Q 353 2609 779 3096 
Q 1206 3584 1959 3584 
z
" transform="scale(0.015625)"/>
      </defs>
      <use xlink:href="#DejaVuSans-4c"/>
      <use xlink:href="#DejaVuSans-65" x="53.962891"/>
      <use xlink:href="#DejaVuSans-61" x="115.486328"/>
      <use xlink:href="#DejaVuSans-72" x="176.765625"/>
      <use xlink:href="#DejaVuSans-6e" x="216.128906"/>
      <use xlink:href="#DejaVuSans-65" x="279.507812"/>
      <use xlink:href="#DejaVuSans-64" x="341.03125"/>
      <use xlink:href="#DejaVuSans-20" x="404.507812"/>
      <use xlink:href="#DejaVuSans-45" x="436.294922"/>
      <use xlink:href="#DejaVuSans-70" x="499.478516"/>
      <use xlink:href="#DejaVuSans-69" x="562.955078"/>
      <use xlink:href="#DejaVuSans-73" x="590.738281"/>
      <use xlink:href="#DejaVuSans-6f" x="642.837891"/>
      <use xlink:href="#DejaVuSans-64" x="704.019531"/>
      <use xlink:href="#DejaVuSans-65" x="767.496094"/>
      <use xlink:href="#DejaVuSans-73" x="829.019531"/>
     </g>
    </g>
   </g>
   <g id="matplotlib.axis_2">
    <g id="ytick_1">
     <g id="line2d_10">
      <defs>
       <path id="m88c76790d2" d="M 0 0 
L -3.5 0 
" style="stroke: #000000; stroke-width: 0.8"/>
      </defs>
      <g>
       <use xlink:href="#m88c76790d2" x="57.6" y="292.068965" style="stroke: #000000; stroke-width: 0.8"/>
      </g>
     </g>
     <g id="text_11">
      <!-- 200 -->
      <g transform="translate(31.5125 295.868184)scale(0.1 -0.1)">
       <use xlink:href="#DejaVuSans-32"/>
       <use xlink:href="#DejaVuSans-30" x="63.623047"/>
       <use xlink:href="#DejaVuSans-30" x="127.246094"/>
      </g>
     </g>
    </g>
    <g id="ytick_2">
     <g id="line2d_11">
      <g>
       <use xlink:href="#m88c76790d2" x="57.6" y="247.498761" style="stroke: #000000; stroke-width: 0.8"/>
      </g>
     </g>
     <g id="text_12">
      <!-- 300 -->
      <g transform="translate(31.5125 251.297979)scale(0.1 -0.1)">
       <defs>
        <path id="DejaVuSans-33" d="M 2597 2516 
Q 3050 2419 3304 2112 
Q 3559 1806 3559 1356 
Q 3559 666 3084 287 
Q 2609 -91 1734 -91 
Q 1441 -91 1130 -33 
Q 819 25 488 141 
L 488 750 
Q 750 597 1062 519 
Q 1375 441 1716 441 
Q 2309 441 2620 675 
Q 2931 909 2931 1356 
Q 2931 1769 2642 2001 
Q 2353 2234 1838 2234 
L 1294 2234 
L 1294 2753 
L 1863 2753 
Q 2328 2753 2575 2939 
Q 2822 3125 2822 3475 
Q 2822 3834 2567 4026 
Q 2313 4219 1838 4219 
Q 1578 4219 1281 4162 
Q 984 4106 628 3988 
L 628 4550 
Q 988 4650 1302 4700 
Q 1616 4750 1894 4750 
Q 2613 4750 3031 4423 
Q 3450 4097 3450 3541 
Q 3450 3153 3228 2886 
Q 3006 2619 2597 2516 
z
" transform="scale(0.015625)"/>
       </defs>
       <use xlink:href="#DejaVuSans-33"/>
       <use xlink:href="#DejaVuSans-30" x="63.623047"/>
       <use xlink:href="#DejaVuSans-30" x="127.246094"/>
      </g>
     </g>
    </g>
    <g id="ytick_3">
     <g id="line2d_12">
      <g>
       <use xlink:href="#m88c76790d2" x="57.6" y="202.928556" style="stroke: #000000; stroke-width: 0.8"/>
      </g>
     </g>
     <g id="text_13">
      <!-- 400 -->
      <g transform="translate(31.5125 206.727775)scale(0.1 -0.1)">
       <defs>
        <path id="DejaVuSans-34" d="M 2419 4116 
L 825 1625 
L 2419 1625 
L 2419 4116 
z
M 2253 4666 
L 3047 4666 
L 3047 1625 
L 3713 1625 
L 3713 1100 
L 3047 1100 
L 3047 0 
L 2419 0 
L 2419 1100 
L 313 1100 
L 313 1709 
L 2253 4666 
z
" transform="scale(0.015625)"/>
       </defs>
       <use xlink:href="#DejaVuSans-34"/>
       <use xlink:href="#DejaVuSans-30" x="63.623047"/>
       <use xlink:href="#DejaVuSans-30" x="127.246094"/>
      </g>
     </g>
    </g>
    <g id="ytick_4">
     <g id="line2d_13">
      <g>
       <use xlink:href="#m88c76790d2" x="57.6" y="158.358352" style="stroke: #000000; stroke-width: 0.8"/>
      </g>
     </g>
     <g id="text_14">
      <!-- 500 -->
      <g transform="translate(31.5125 162.15757)scale(0.1 -0.1)">
       <use xlink:href="#DejaVuSans-35"/>
       <use xlink:href="#DejaVuSans-30" x="63.623047"/>
       <use xlink:href="#DejaVuSans-30" x="127.246094"/>
      </g>
     </g>
    </g>
    <g id="ytick_5">
     <g id="line2d_14">
      <g>
       <use xlink:href="#m88c76790d2" x="57.6" y="113.788147" style="stroke: #000000; stroke-width: 0.8"/>
      </g>
     </g>
     <g id="text_15">
      <!-- 600 -->
      <g transform="translate(31.5125 117.587366)scale(0.1 -0.1)">
       <defs>
        <path id="DejaVuSans-36" d="M 2113 2584 
Q 1688 2584 1439 2293 
Q 1191 2003 1191 1497 
Q 1191 994 1439 701 
Q 1688 409 2113 409 
Q 2538 409 2786 701 
Q 3034 994 3034 1497 
Q 3034 2003 2786 2293 
Q 2538 2584 2113 2584 
z
M 3366 4563 
L 3366 3988 
Q 3128 4100 2886 4159 
Q 2644 4219 2406 4219 
Q 1781 4219 1451 3797 
Q 1122 3375 1075 2522 
Q 1259 2794 1537 2939 
Q 1816 3084 2150 3084 
Q 2853 3084 3261 2657 
Q 3669 2231 3669 1497 
Q 3669 778 3244 343 
Q 2819 -91 2113 -91 
Q 1303 -91 875 529 
Q 447 1150 447 2328 
Q 447 3434 972 4092 
Q 1497 4750 2381 4750 
Q 2619 4750 2861 4703 
Q 3103 4656 3366 4563 
z
" transform="scale(0.015625)"/>
       </defs>
       <use xlink:href="#DejaVuSans-36"/>
       <use xlink:href="#DejaVuSans-30" x="63.623047"/>
       <use xlink:href="#DejaVuSans-30" x="127.246094"/>
      </g>
     </g>
    </g>
    <g id="ytick_6">
     <g id="line2d_15">
      <g>
       <use xlink:href="#m88c76790d2" x="57.6" y="69.217942" style="stroke: #000000; stroke-width: 0.8"/>
      </g>
     </g>
     <g id="text_16">
      <!-- 700 -->
      <g transform="translate(31.5125 73.017161)scale(0.1 -0.1)">
       <use xlink:href="#DejaVuSans-37"/>
       <use xlink:href="#DejaVuSans-30" x="63.623047"/>
       <use xlink:href="#DejaVuSans-30" x="127.246094"/>
      </g>
     </g>
    </g>
    <g id="text_17">
     <!-- Reward Density -->
     <g transform="translate(25.432812 213.74675)rotate(-90)scale(0.1 -0.1)">
      <defs>
       <path id="DejaVuSans-52" d="M 2841 2188 
Q 3044 2119 3236 1894 
Q 3428 1669 3622 1275 
L 4263 0 
L 3584 0 
L 2988 1197 
Q 2756 1666 2539 1819 
Q 2322 1972 1947 1972 
L 1259 1972 
L 1259 0 
L 628 0 
L 628 4666 
L 2053 4666 
Q 2853 4666 3247 4331 
Q 3641 3997 3641 3322 
Q 3641 2881 3436 2590 
Q 3231 2300 2841 2188 
z
M 1259 4147 
L 1259 2491 
L 2053 2491 
Q 2509 2491 2742 2702 
Q 2975 2913 2975 3322 
Q 2975 3731 2742 3939 
Q 2509 4147 2053 4147 
L 1259 4147 
z
" transform="scale(0.015625)"/>
       <path id="DejaVuSans-77" d="M 269 3500 
L 844 3500 
L 1563 769 
L 2278 3500 
L 2956 3500 
L 3675 769 
L 4391 3500 
L 4966 3500 
L 4050 0 
L 3372 0 
L 2619 2869 
L 1863 0 
L 1184 0 
L 269 3500 
z
" transform="scale(0.015625)"/>
       <path id="DejaVuSans-44" d="M 1259 4147 
L 1259 519 
L 2022 519 
Q 2988 519 3436 956 
Q 3884 1394 3884 2338 
Q 3884 3275 3436 3711 
Q 2988 4147 2022 4147 
L 1259 4147 
z
M 628 4666 
L 1925 4666 
Q 3281 4666 3915 4102 
Q 4550 3538 4550 2338 
Q 4550 1131 3912 565 
Q 3275 0 1925 0 
L 628 0 
L 628 4666 
z
" transform="scale(0.015625)"/>
       <path id="DejaVuSans-74" d="M 1172 4494 
L 1172 3500 
L 2356 3500 
L 2356 3053 
L 1172 3053 
L 1172 1153 
Q 1172 725 1289 603 
Q 1406 481 1766 481 
L 2356 481 
L 2356 0 
L 1766 0 
Q 1100 0 847 248 
Q 594 497 594 1153 
L 594 3053 
L 172 3053 
L 172 3500 
L 594 3500 
L 594 4494 
L 1172 4494 
z
" transform="scale(0.015625)"/>
       <path id="DejaVuSans-79" d="M 2059 -325 
Q 1816 -950 1584 -1140 
Q 1353 -1331 966 -1331 
L 506 -1331 
L 506 -850 
L 844 -850 
Q 1081 -850 1212 -737 
Q 1344 -625 1503 -206 
L 1606 56 
L 191 3500 
L 800 3500 
L 1894 763 
L 2988 3500 
L 3597 3500 
L 2059 -325 
z
" transform="scale(0.015625)"/>
      </defs>
      <use xlink:href="#DejaVuSans-52"/>
      <use xlink:href="#DejaVuSans-65" x="64.982422"/>
      <use xlink:href="#DejaVuSans-77" x="126.505859"/>
      <use xlink:href="#DejaVuSans-61" x="208.292969"/>
      <use xlink:href="#DejaVuSans-72" x="269.572266"/>
      <use xlink:href="#DejaVuSans-64" x="308.935547"/>
      <use xlink:href="#DejaVuSans-20" x="372.412109"/>
      <use xlink:href="#DejaVuSans-44" x="404.199219"/>
      <use xlink:href="#DejaVuSans-65" x="481.201172"/>
      <use xlink:href="#DejaVuSans-6e" x="542.724609"/>
      <use xlink:href="#DejaVuSans-73" x="606.103516"/>
      <use xlink:href="#DejaVuSans-69" x="658.203125"/>
      <use xlink:href="#DejaVuSans-74" x="685.986328"/>
      <use xlink:href="#DejaVuSans-79" x="725.195312"/>
     </g>
    </g>
   </g>
   <g id="LineCollection_1">
    <path d="M 92.572407 184.336098 
L 130.051767 184.336098 
" clip-path="url(#pe14294f28a)" style="fill: none; stroke: #1f77b4; stroke-width: 1.5"/>
    <path d="M 175.859874 168.326195 
L 213.339234 168.326195 
" clip-path="url(#pe14294f28a)" style="fill: none; stroke: #1f77b4; stroke-width: 1.5"/>
    <path d="M 259.147341 161.832669 
L 296.626701 161.832669 
" clip-path="url(#pe14294f28a)" style="fill: none; stroke: #1f77b4; stroke-width: 1.5"/>
    <path d="M 342.268233 158.374994 
L 379.747593 158.374994 
" clip-path="url(#pe14294f28a)" style="fill: none; stroke: #1f77b4; stroke-width: 1.5"/>
   </g>
   <g id="LineCollection_2">
    <path d="M 92.572407 96.977824 
L 130.051767 96.977824 
" clip-path="url(#pe14294f28a)" style="fill: none; stroke: #1f77b4; stroke-width: 1.5"/>
    <path d="M 175.859874 82.237178 
L 213.339234 82.237178 
" clip-path="url(#pe14294f28a)" style="fill: none; stroke: #1f77b4; stroke-width: 1.5"/>
    <path d="M 259.147341 65.721481 
L 296.626701 65.721481 
" clip-path="url(#pe14294f28a)" style="fill: none; stroke: #1f77b4; stroke-width: 1.5"/>
    <path d="M 342.268233 53.568 
L 379.747593 53.568 
" clip-path="url(#pe14294f28a)" style="fill: none; stroke: #1f77b4; stroke-width: 1.5"/>
   </g>
   <g id="LineCollection_3">
    <path d="M 92.572407 275.338285 
L 130.051767 275.338285 
" clip-path="url(#pe14294f28a)" style="fill: none; stroke: #1f77b4; stroke-width: 1.5"/>
    <path d="M 175.859874 255.698962 
L 213.339234 255.698962 
" clip-path="url(#pe14294f28a)" style="fill: none; stroke: #1f77b4; stroke-width: 1.5"/>
    <path d="M 259.147341 295.488 
L 296.626701 295.488 
" clip-path="url(#pe14294f28a)" style="fill: none; stroke: #1f77b4; stroke-width: 1.5"/>
    <path d="M 342.268233 266.963875 
L 379.747593 266.963875 
" clip-path="url(#pe14294f28a)" style="fill: none; stroke: #1f77b4; stroke-width: 1.5"/>
   </g>
   <g id="LineCollection_4">
    <path d="M 111.312087 275.338285 
L 111.312087 96.977824 
" clip-path="url(#pe14294f28a)" style="fill: none; stroke: #1f77b4; stroke-width: 1.5"/>
    <path d="M 194.599554 255.698962 
L 194.599554 82.237178 
" clip-path="url(#pe14294f28a)" style="fill: none; stroke: #1f77b4; stroke-width: 1.5"/>
    <path d="M 277.887021 295.488 
L 277.887021 65.721481 
" clip-path="url(#pe14294f28a)" style="fill: none; stroke: #1f77b4; stroke-width: 1.5"/>
    <path d="M 361.007913 266.963875 
L 361.007913 53.568 
" clip-path="url(#pe14294f28a)" style="fill: none; stroke: #1f77b4; stroke-width: 1.5"/>
   </g>
   <g id="line2d_16">
    <path d="M 111.312087 184.336098 
L 194.599554 168.326195 
L 277.887021 161.832669 
L 361.007913 158.374994 
" clip-path="url(#pe14294f28a)" style="fill: none; stroke: #4682b4; stroke-width: 1.5; stroke-linecap: square"/>
   </g>
   <g id="patch_3">
    <path d="M 57.6 307.584 
L 57.6 41.472 
" style="fill: none; stroke: #000000; stroke-width: 0.8; stroke-linejoin: miter; stroke-linecap: square"/>
   </g>
   <g id="patch_4">
    <path d="M 414.72 307.584 
L 414.72 41.472 
" style="fill: none; stroke: #000000; stroke-width: 0.8; stroke-linejoin: miter; stroke-linecap: square"/>
   </g>
   <g id="patch_5">
    <path d="M 57.6 307.584 
L 414.72 307.584 
" style="fill: none; stroke: #000000; stroke-width: 0.8; stroke-linejoin: miter; stroke-linecap: square"/>
   </g>
   <g id="patch_6">
    <path d="M 57.6 41.472 
L 414.72 41.472 
" style="fill: none; stroke: #000000; stroke-width: 0.8; stroke-linejoin: miter; stroke-linecap: square"/>
   </g>
   <g id="text_18">
    <!-- Violinplot for progress of profits/by_selling_refurbished -->
    <g transform="translate(72.470625 35.472)scale(0.12 -0.12)">
     <defs>
      <path id="DejaVuSans-56" d="M 1831 0 
L 50 4666 
L 709 4666 
L 2188 738 
L 3669 4666 
L 4325 4666 
L 2547 0 
L 1831 0 
z
" transform="scale(0.015625)"/>
      <path id="DejaVuSans-6c" d="M 603 4863 
L 1178 4863 
L 1178 0 
L 603 0 
L 603 4863 
z
" transform="scale(0.015625)"/>
      <path id="DejaVuSans-66" d="M 2375 4863 
L 2375 4384 
L 1825 4384 
Q 1516 4384 1395 4259 
Q 1275 4134 1275 3809 
L 1275 3500 
L 2222 3500 
L 2222 3053 
L 1275 3053 
L 1275 0 
L 697 0 
L 697 3053 
L 147 3053 
L 147 3500 
L 697 3500 
L 697 3744 
Q 697 4328 969 4595 
Q 1241 4863 1831 4863 
L 2375 4863 
z
" transform="scale(0.015625)"/>
      <path id="DejaVuSans-67" d="M 2906 1791 
Q 2906 2416 2648 2759 
Q 2391 3103 1925 3103 
Q 1463 3103 1205 2759 
Q 947 2416 947 1791 
Q 947 1169 1205 825 
Q 1463 481 1925 481 
Q 2391 481 2648 825 
Q 2906 1169 2906 1791 
z
M 3481 434 
Q 3481 -459 3084 -895 
Q 2688 -1331 1869 -1331 
Q 1566 -1331 1297 -1286 
Q 1028 -1241 775 -1147 
L 775 -588 
Q 1028 -725 1275 -790 
Q 1522 -856 1778 -856 
Q 2344 -856 2625 -561 
Q 2906 -266 2906 331 
L 2906 616 
Q 2728 306 2450 153 
Q 2172 0 1784 0 
Q 1141 0 747 490 
Q 353 981 353 1791 
Q 353 2603 747 3093 
Q 1141 3584 1784 3584 
Q 2172 3584 2450 3431 
Q 2728 3278 2906 2969 
L 2906 3500 
L 3481 3500 
L 3481 434 
z
" transform="scale(0.015625)"/>
      <path id="DejaVuSans-2f" d="M 1625 4666 
L 2156 4666 
L 531 -594 
L 0 -594 
L 1625 4666 
z
" transform="scale(0.015625)"/>
      <path id="DejaVuSans-62" d="M 3116 1747 
Q 3116 2381 2855 2742 
Q 2594 3103 2138 3103 
Q 1681 3103 1420 2742 
Q 1159 2381 1159 1747 
Q 1159 1113 1420 752 
Q 1681 391 2138 391 
Q 2594 391 2855 752 
Q 3116 1113 3116 1747 
z
M 1159 2969 
Q 1341 3281 1617 3432 
Q 1894 3584 2278 3584 
Q 2916 3584 3314 3078 
Q 3713 2572 3713 1747 
Q 3713 922 3314 415 
Q 2916 -91 2278 -91 
Q 1894 -91 1617 61 
Q 1341 213 1159 525 
L 1159 0 
L 581 0 
L 581 4863 
L 1159 4863 
L 1159 2969 
z
" transform="scale(0.015625)"/>
      <path id="DejaVuSans-5f" d="M 3263 -1063 
L 3263 -1509 
L -63 -1509 
L -63 -1063 
L 3263 -1063 
z
" transform="scale(0.015625)"/>
      <path id="DejaVuSans-75" d="M 544 1381 
L 544 3500 
L 1119 3500 
L 1119 1403 
Q 1119 906 1312 657 
Q 1506 409 1894 409 
Q 2359 409 2629 706 
Q 2900 1003 2900 1516 
L 2900 3500 
L 3475 3500 
L 3475 0 
L 2900 0 
L 2900 538 
Q 2691 219 2414 64 
Q 2138 -91 1772 -91 
Q 1169 -91 856 284 
Q 544 659 544 1381 
z
M 1991 3584 
L 1991 3584 
z
" transform="scale(0.015625)"/>
      <path id="DejaVuSans-68" d="M 3513 2113 
L 3513 0 
L 2938 0 
L 2938 2094 
Q 2938 2591 2744 2837 
Q 2550 3084 2163 3084 
Q 1697 3084 1428 2787 
Q 1159 2491 1159 1978 
L 1159 0 
L 581 0 
L 581 4863 
L 1159 4863 
L 1159 2956 
Q 1366 3272 1645 3428 
Q 1925 3584 2291 3584 
Q 2894 3584 3203 3211 
Q 3513 2838 3513 2113 
z
" transform="scale(0.015625)"/>
     </defs>
     <use xlink:href="#DejaVuSans-56"/>
     <use xlink:href="#DejaVuSans-69" x="66.158203"/>
     <use xlink:href="#DejaVuSans-6f" x="93.941406"/>
     <use xlink:href="#DejaVuSans-6c" x="155.123047"/>
     <use xlink:href="#DejaVuSans-69" x="182.90625"/>
     <use xlink:href="#DejaVuSans-6e" x="210.689453"/>
     <use xlink:href="#DejaVuSans-70" x="274.068359"/>
     <use xlink:href="#DejaVuSans-6c" x="337.544922"/>
     <use xlink:href="#DejaVuSans-6f" x="365.328125"/>
     <use xlink:href="#DejaVuSans-74" x="426.509766"/>
     <use xlink:href="#DejaVuSans-20" x="465.71875"/>
     <use xlink:href="#DejaVuSans-66" x="497.505859"/>
     <use xlink:href="#DejaVuSans-6f" x="532.710938"/>
     <use xlink:href="#DejaVuSans-72" x="593.892578"/>
     <use xlink:href="#DejaVuSans-20" x="635.005859"/>
     <use xlink:href="#DejaVuSans-70" x="666.792969"/>
     <use xlink:href="#DejaVuSans-72" x="730.269531"/>
     <use xlink:href="#DejaVuSans-6f" x="769.132812"/>
     <use xlink:href="#DejaVuSans-67" x="830.314453"/>
     <use xlink:href="#DejaVuSans-72" x="893.791016"/>
     <use xlink:href="#DejaVuSans-65" x="932.654297"/>
     <use xlink:href="#DejaVuSans-73" x="994.177734"/>
     <use xlink:href="#DejaVuSans-73" x="1046.277344"/>
     <use xlink:href="#DejaVuSans-20" x="1098.376953"/>
     <use xlink:href="#DejaVuSans-6f" x="1130.164062"/>
     <use xlink:href="#DejaVuSans-66" x="1191.345703"/>
     <use xlink:href="#DejaVuSans-20" x="1226.550781"/>
     <use xlink:href="#DejaVuSans-70" x="1258.337891"/>
     <use xlink:href="#DejaVuSans-72" x="1321.814453"/>
     <use xlink:href="#DejaVuSans-6f" x="1360.677734"/>
     <use xlink:href="#DejaVuSans-66" x="1421.859375"/>
     <use xlink:href="#DejaVuSans-69" x="1457.064453"/>
     <use xlink:href="#DejaVuSans-74" x="1484.847656"/>
     <use xlink:href="#DejaVuSans-73" x="1524.056641"/>
     <use xlink:href="#DejaVuSans-2f" x="1576.15625"/>
     <use xlink:href="#DejaVuSans-62" x="1609.847656"/>
     <use xlink:href="#DejaVuSans-79" x="1673.324219"/>
     <use xlink:href="#DejaVuSans-5f" x="1732.503906"/>
     <use xlink:href="#DejaVuSans-73" x="1782.503906"/>
     <use xlink:href="#DejaVuSans-65" x="1834.603516"/>
     <use xlink:href="#DejaVuSans-6c" x="1896.126953"/>
     <use xlink:href="#DejaVuSans-6c" x="1923.910156"/>
     <use xlink:href="#DejaVuSans-69" x="1951.693359"/>
     <use xlink:href="#DejaVuSans-6e" x="1979.476562"/>
     <use xlink:href="#DejaVuSans-67" x="2042.855469"/>
     <use xlink:href="#DejaVuSans-5f" x="2106.332031"/>
     <use xlink:href="#DejaVuSans-72" x="2156.332031"/>
     <use xlink:href="#DejaVuSans-65" x="2195.195312"/>
     <use xlink:href="#DejaVuSans-66" x="2256.71875"/>
     <use xlink:href="#DejaVuSans-75" x="2291.923828"/>
     <use xlink:href="#DejaVuSans-72" x="2355.302734"/>
     <use xlink:href="#DejaVuSans-62" x="2396.416016"/>
     <use xlink:href="#DejaVuSans-69" x="2459.892578"/>
     <use xlink:href="#DejaVuSans-73" x="2487.675781"/>
     <use xlink:href="#DejaVuSans-68" x="2539.775391"/>
     <use xlink:href="#DejaVuSans-65" x="2603.154297"/>
     <use xlink:href="#DejaVuSans-64" x="2664.677734"/>
    </g>
   </g>
   <g id="legend_1">
    <g id="patch_7">
     <path d="M 276.25125 64.150125 
L 407.72 64.150125 
Q 409.72 64.150125 409.72 62.150125 
L 409.72 48.472 
Q 409.72 46.472 407.72 46.472 
L 276.25125 46.472 
Q 274.25125 46.472 274.25125 48.472 
L 274.25125 62.150125 
Q 274.25125 64.150125 276.25125 64.150125 
z
" style="fill: #ffffff; opacity: 0.8; stroke: #cccccc; stroke-linejoin: miter"/>
    </g>
    <g id="line2d_17">
     <path d="M 278.25125 54.570438 
L 288.25125 54.570438 
L 298.25125 54.570438 
" style="fill: none; stroke: #4682b4; stroke-width: 1.5; stroke-linecap: square"/>
    </g>
    <g id="text_19">
     <!-- StableBaselinesSAC -->
     <g transform="translate(306.25125 58.070438)scale(0.1 -0.1)">
      <defs>
       <path id="DejaVuSans-53" d="M 3425 4513 
L 3425 3897 
Q 3066 4069 2747 4153 
Q 2428 4238 2131 4238 
Q 1616 4238 1336 4038 
Q 1056 3838 1056 3469 
Q 1056 3159 1242 3001 
Q 1428 2844 1947 2747 
L 2328 2669 
Q 3034 2534 3370 2195 
Q 3706 1856 3706 1288 
Q 3706 609 3251 259 
Q 2797 -91 1919 -91 
Q 1588 -91 1214 -16 
Q 841 59 441 206 
L 441 856 
Q 825 641 1194 531 
Q 1563 422 1919 422 
Q 2459 422 2753 634 
Q 3047 847 3047 1241 
Q 3047 1584 2836 1778 
Q 2625 1972 2144 2069 
L 1759 2144 
Q 1053 2284 737 2584 
Q 422 2884 422 3419 
Q 422 4038 858 4394 
Q 1294 4750 2059 4750 
Q 2388 4750 2728 4690 
Q 3069 4631 3425 4513 
z
" transform="scale(0.015625)"/>
       <path id="DejaVuSans-42" d="M 1259 2228 
L 1259 519 
L 2272 519 
Q 2781 519 3026 730 
Q 3272 941 3272 1375 
Q 3272 1813 3026 2020 
Q 2781 2228 2272 2228 
L 1259 2228 
z
M 1259 4147 
L 1259 2741 
L 2194 2741 
Q 2656 2741 2882 2914 
Q 3109 3088 3109 3444 
Q 3109 3797 2882 3972 
Q 2656 4147 2194 4147 
L 1259 4147 
z
M 628 4666 
L 2241 4666 
Q 2963 4666 3353 4366 
Q 3744 4066 3744 3513 
Q 3744 3084 3544 2831 
Q 3344 2578 2956 2516 
Q 3422 2416 3680 2098 
Q 3938 1781 3938 1306 
Q 3938 681 3513 340 
Q 3088 0 2303 0 
L 628 0 
L 628 4666 
z
" transform="scale(0.015625)"/>
       <path id="DejaVuSans-41" d="M 2188 4044 
L 1331 1722 
L 3047 1722 
L 2188 4044 
z
M 1831 4666 
L 2547 4666 
L 4325 0 
L 3669 0 
L 3244 1197 
L 1141 1197 
L 716 0 
L 50 0 
L 1831 4666 
z
" transform="scale(0.015625)"/>
       <path id="DejaVuSans-43" d="M 4122 4306 
L 4122 3641 
Q 3803 3938 3442 4084 
Q 3081 4231 2675 4231 
Q 1875 4231 1450 3742 
Q 1025 3253 1025 2328 
Q 1025 1406 1450 917 
Q 1875 428 2675 428 
Q 3081 428 3442 575 
Q 3803 722 4122 1019 
L 4122 359 
Q 3791 134 3420 21 
Q 3050 -91 2638 -91 
Q 1578 -91 968 557 
Q 359 1206 359 2328 
Q 359 3453 968 4101 
Q 1578 4750 2638 4750 
Q 3056 4750 3426 4639 
Q 3797 4528 4122 4306 
z
" transform="scale(0.015625)"/>
      </defs>
      <use xlink:href="#DejaVuSans-53"/>
      <use xlink:href="#DejaVuSans-74" x="63.476562"/>
      <use xlink:href="#DejaVuSans-61" x="102.685547"/>
      <use xlink:href="#DejaVuSans-62" x="163.964844"/>
      <use xlink:href="#DejaVuSans-6c" x="227.441406"/>
      <use xlink:href="#DejaVuSans-65" x="255.224609"/>
      <use xlink:href="#DejaVuSans-42" x="316.748047"/>
      <use xlink:href="#DejaVuSans-61" x="385.351562"/>
      <use xlink:href="#DejaVuSans-73" x="446.630859"/>
      <use xlink:href="#DejaVuSans-65" x="498.730469"/>
      <use xlink:href="#DejaVuSans-6c" x="560.253906"/>
      <use xlink:href="#DejaVuSans-69" x="588.037109"/>
      <use xlink:href="#DejaVuSans-6e" x="615.820312"/>
      <use xlink:href="#DejaVuSans-65" x="679.199219"/>
      <use xlink:href="#DejaVuSans-73" x="740.722656"/>
      <use xlink:href="#DejaVuSans-53" x="792.822266"/>
      <use xlink:href="#DejaVuSans-41" x="858.173828"/>
      <use xlink:href="#DejaVuSans-43" x="924.832031"/>
     </g>
    </g>
   </g>
  </g>
 </g>
 <defs>
  <clipPath id="pe14294f28a">
   <rect x="57.6" y="41.472" width="357.12" height="266.112"/>
  </clipPath>
 </defs>
</svg>
