<?xml version="1.0" encoding="utf-8" standalone="no"?>
<!DOCTYPE svg PUBLIC "-//W3C//DTD SVG 1.1//EN"
  "http://www.w3.org/Graphics/SVG/1.1/DTD/svg11.dtd">
<svg xmlns:xlink="http://www.w3.org/1999/xlink" width="460.8pt" height="345.6pt" viewBox="0 0 460.8 345.6" xmlns="http://www.w3.org/2000/svg" version="1.1">
 <metadata>
  <rdf:RDF xmlns:dc="http://purl.org/dc/elements/1.1/" xmlns:cc="http://creativecommons.org/ns#" xmlns:rdf="http://www.w3.org/1999/02/22-rdf-syntax-ns#">
   <cc:Work>
    <dc:type rdf:resource="http://purl.org/dc/dcmitype/StillImage"/>
    <dc:date>2022-06-23T13:41:43.006970</dc:date>
    <dc:format>image/svg+xml</dc:format>
    <dc:creator>
     <cc:Agent>
      <dc:title>Matplotlib v3.5.2, https://matplotlib.org/</dc:title>
     </cc:Agent>
    </dc:creator>
   </cc:Work>
  </rdf:RDF>
 </metadata>
 <defs>
  <style type="text/css">*{stroke-linejoin: round; stroke-linecap: butt}</style>
 </defs>
 <g id="figure_1">
  <g id="patch_1">
   <path d="M 0 345.6 
L 460.8 345.6 
L 460.8 0 
L 0 0 
L 0 345.6 
z
" style="fill: none"/>
  </g>
  <g id="axes_1">
   <g id="patch_2">
    <path d="M 57.6 307.584 
L 414.72 307.584 
L 414.72 41.472 
L 57.6 41.472 
L 57.6 307.584 
z
" style="fill: none"/>
   </g>
   <g id="matplotlib.axis_1">
    <g id="xtick_1">
     <g id="line2d_1">
      <path d="M 73.832727 307.584 
L 73.832727 41.472 
" clip-path="url(#p9c04d3ddc4)" style="fill: none; stroke-dasharray: 2.96,1.28; stroke-dashoffset: 0; stroke: #b0b0b0; stroke-width: 0.8"/>
     </g>
     <g id="line2d_2">
      <defs>
       <path id="m096f7314a6" d="M 0 0 
L 0 3.5 
" style="stroke: #000000; stroke-width: 0.8"/>
      </defs>
      <g>
       <use xlink:href="#m096f7314a6" x="73.832727" y="307.584" style="stroke: #000000; stroke-width: 0.8"/>
      </g>
     </g>
     <g id="text_1">
      <!-- 0 -->
      <g transform="translate(70.651477 322.182437)scale(0.1 -0.1)">
       <defs>
        <path id="DejaVuSans-30" d="M 2034 4250 
Q 1547 4250 1301 3770 
Q 1056 3291 1056 2328 
Q 1056 1369 1301 889 
Q 1547 409 2034 409 
Q 2525 409 2770 889 
Q 3016 1369 3016 2328 
Q 3016 3291 2770 3770 
Q 2525 4250 2034 4250 
z
M 2034 4750 
Q 2819 4750 3233 4129 
Q 3647 3509 3647 2328 
Q 3647 1150 3233 529 
Q 2819 -91 2034 -91 
Q 1250 -91 836 529 
Q 422 1150 422 2328 
Q 422 3509 836 4129 
Q 1250 4750 2034 4750 
z
" transform="scale(0.015625)"/>
       </defs>
       <use xlink:href="#DejaVuSans-30"/>
      </g>
     </g>
    </g>
    <g id="xtick_2">
     <g id="line2d_3">
      <path d="M 138.893758 307.584 
L 138.893758 41.472 
" clip-path="url(#p9c04d3ddc4)" style="fill: none; stroke-dasharray: 2.96,1.28; stroke-dashoffset: 0; stroke: #b0b0b0; stroke-width: 0.8"/>
     </g>
     <g id="line2d_4">
      <g>
       <use xlink:href="#m096f7314a6" x="138.893758" y="307.584" style="stroke: #000000; stroke-width: 0.8"/>
      </g>
     </g>
     <g id="text_2">
      <!-- 100 -->
      <g transform="translate(129.350008 322.182437)scale(0.1 -0.1)">
       <defs>
        <path id="DejaVuSans-31" d="M 794 531 
L 1825 531 
L 1825 4091 
L 703 3866 
L 703 4441 
L 1819 4666 
L 2450 4666 
L 2450 531 
L 3481 531 
L 3481 0 
L 794 0 
L 794 531 
z
" transform="scale(0.015625)"/>
       </defs>
       <use xlink:href="#DejaVuSans-31"/>
       <use xlink:href="#DejaVuSans-30" x="63.623047"/>
       <use xlink:href="#DejaVuSans-30" x="127.246094"/>
      </g>
     </g>
    </g>
    <g id="xtick_3">
     <g id="line2d_5">
      <path d="M 203.95479 307.584 
L 203.95479 41.472 
" clip-path="url(#p9c04d3ddc4)" style="fill: none; stroke-dasharray: 2.96,1.28; stroke-dashoffset: 0; stroke: #b0b0b0; stroke-width: 0.8"/>
     </g>
     <g id="line2d_6">
      <g>
       <use xlink:href="#m096f7314a6" x="203.95479" y="307.584" style="stroke: #000000; stroke-width: 0.8"/>
      </g>
     </g>
     <g id="text_3">
      <!-- 200 -->
      <g transform="translate(194.41104 322.182437)scale(0.1 -0.1)">
       <defs>
        <path id="DejaVuSans-32" d="M 1228 531 
L 3431 531 
L 3431 0 
L 469 0 
L 469 531 
Q 828 903 1448 1529 
Q 2069 2156 2228 2338 
Q 2531 2678 2651 2914 
Q 2772 3150 2772 3378 
Q 2772 3750 2511 3984 
Q 2250 4219 1831 4219 
Q 1534 4219 1204 4116 
Q 875 4013 500 3803 
L 500 4441 
Q 881 4594 1212 4672 
Q 1544 4750 1819 4750 
Q 2544 4750 2975 4387 
Q 3406 4025 3406 3419 
Q 3406 3131 3298 2873 
Q 3191 2616 2906 2266 
Q 2828 2175 2409 1742 
Q 1991 1309 1228 531 
z
" transform="scale(0.015625)"/>
       </defs>
       <use xlink:href="#DejaVuSans-32"/>
       <use xlink:href="#DejaVuSans-30" x="63.623047"/>
       <use xlink:href="#DejaVuSans-30" x="127.246094"/>
      </g>
     </g>
    </g>
    <g id="xtick_4">
     <g id="line2d_7">
      <path d="M 269.015821 307.584 
L 269.015821 41.472 
" clip-path="url(#p9c04d3ddc4)" style="fill: none; stroke-dasharray: 2.96,1.28; stroke-dashoffset: 0; stroke: #b0b0b0; stroke-width: 0.8"/>
     </g>
     <g id="line2d_8">
      <g>
       <use xlink:href="#m096f7314a6" x="269.015821" y="307.584" style="stroke: #000000; stroke-width: 0.8"/>
      </g>
     </g>
     <g id="text_4">
      <!-- 300 -->
      <g transform="translate(259.472071 322.182437)scale(0.1 -0.1)">
       <defs>
        <path id="DejaVuSans-33" d="M 2597 2516 
Q 3050 2419 3304 2112 
Q 3559 1806 3559 1356 
Q 3559 666 3084 287 
Q 2609 -91 1734 -91 
Q 1441 -91 1130 -33 
Q 819 25 488 141 
L 488 750 
Q 750 597 1062 519 
Q 1375 441 1716 441 
Q 2309 441 2620 675 
Q 2931 909 2931 1356 
Q 2931 1769 2642 2001 
Q 2353 2234 1838 2234 
L 1294 2234 
L 1294 2753 
L 1863 2753 
Q 2328 2753 2575 2939 
Q 2822 3125 2822 3475 
Q 2822 3834 2567 4026 
Q 2313 4219 1838 4219 
Q 1578 4219 1281 4162 
Q 984 4106 628 3988 
L 628 4550 
Q 988 4650 1302 4700 
Q 1616 4750 1894 4750 
Q 2613 4750 3031 4423 
Q 3450 4097 3450 3541 
Q 3450 3153 3228 2886 
Q 3006 2619 2597 2516 
z
" transform="scale(0.015625)"/>
       </defs>
       <use xlink:href="#DejaVuSans-33"/>
       <use xlink:href="#DejaVuSans-30" x="63.623047"/>
       <use xlink:href="#DejaVuSans-30" x="127.246094"/>
      </g>
     </g>
    </g>
    <g id="xtick_5">
     <g id="line2d_9">
      <path d="M 334.076852 307.584 
L 334.076852 41.472 
" clip-path="url(#p9c04d3ddc4)" style="fill: none; stroke-dasharray: 2.96,1.28; stroke-dashoffset: 0; stroke: #b0b0b0; stroke-width: 0.8"/>
     </g>
     <g id="line2d_10">
      <g>
       <use xlink:href="#m096f7314a6" x="334.076852" y="307.584" style="stroke: #000000; stroke-width: 0.8"/>
      </g>
     </g>
     <g id="text_5">
      <!-- 400 -->
      <g transform="translate(324.533102 322.182437)scale(0.1 -0.1)">
       <defs>
        <path id="DejaVuSans-34" d="M 2419 4116 
L 825 1625 
L 2419 1625 
L 2419 4116 
z
M 2253 4666 
L 3047 4666 
L 3047 1625 
L 3713 1625 
L 3713 1100 
L 3047 1100 
L 3047 0 
L 2419 0 
L 2419 1100 
L 313 1100 
L 313 1709 
L 2253 4666 
z
" transform="scale(0.015625)"/>
       </defs>
       <use xlink:href="#DejaVuSans-34"/>
       <use xlink:href="#DejaVuSans-30" x="63.623047"/>
       <use xlink:href="#DejaVuSans-30" x="127.246094"/>
      </g>
     </g>
    </g>
    <g id="xtick_6">
     <g id="line2d_11">
      <path d="M 399.137883 307.584 
L 399.137883 41.472 
" clip-path="url(#p9c04d3ddc4)" style="fill: none; stroke-dasharray: 2.96,1.28; stroke-dashoffset: 0; stroke: #b0b0b0; stroke-width: 0.8"/>
     </g>
     <g id="line2d_12">
      <g>
       <use xlink:href="#m096f7314a6" x="399.137883" y="307.584" style="stroke: #000000; stroke-width: 0.8"/>
      </g>
     </g>
     <g id="text_6">
      <!-- 500 -->
      <g transform="translate(389.594133 322.182437)scale(0.1 -0.1)">
       <defs>
        <path id="DejaVuSans-35" d="M 691 4666 
L 3169 4666 
L 3169 4134 
L 1269 4134 
L 1269 2991 
Q 1406 3038 1543 3061 
Q 1681 3084 1819 3084 
Q 2600 3084 3056 2656 
Q 3513 2228 3513 1497 
Q 3513 744 3044 326 
Q 2575 -91 1722 -91 
Q 1428 -91 1123 -41 
Q 819 9 494 109 
L 494 744 
Q 775 591 1075 516 
Q 1375 441 1709 441 
Q 2250 441 2565 725 
Q 2881 1009 2881 1497 
Q 2881 1984 2565 2268 
Q 2250 2553 1709 2553 
Q 1456 2553 1204 2497 
Q 953 2441 691 2322 
L 691 4666 
z
" transform="scale(0.015625)"/>
       </defs>
       <use xlink:href="#DejaVuSans-35"/>
       <use xlink:href="#DejaVuSans-30" x="63.623047"/>
       <use xlink:href="#DejaVuSans-30" x="127.246094"/>
      </g>
     </g>
    </g>
    <g id="text_7">
     <!-- Episode -->
     <g transform="translate(216.5225 335.860562)scale(0.1 -0.1)">
      <defs>
       <path id="DejaVuSans-45" d="M 628 4666 
L 3578 4666 
L 3578 4134 
L 1259 4134 
L 1259 2753 
L 3481 2753 
L 3481 2222 
L 1259 2222 
L 1259 531 
L 3634 531 
L 3634 0 
L 628 0 
L 628 4666 
z
" transform="scale(0.015625)"/>
       <path id="DejaVuSans-70" d="M 1159 525 
L 1159 -1331 
L 581 -1331 
L 581 3500 
L 1159 3500 
L 1159 2969 
Q 1341 3281 1617 3432 
Q 1894 3584 2278 3584 
Q 2916 3584 3314 3078 
Q 3713 2572 3713 1747 
Q 3713 922 3314 415 
Q 2916 -91 2278 -91 
Q 1894 -91 1617 61 
Q 1341 213 1159 525 
z
M 3116 1747 
Q 3116 2381 2855 2742 
Q 2594 3103 2138 3103 
Q 1681 3103 1420 2742 
Q 1159 2381 1159 1747 
Q 1159 1113 1420 752 
Q 1681 391 2138 391 
Q 2594 391 2855 752 
Q 3116 1113 3116 1747 
z
" transform="scale(0.015625)"/>
       <path id="DejaVuSans-69" d="M 603 3500 
L 1178 3500 
L 1178 0 
L 603 0 
L 603 3500 
z
M 603 4863 
L 1178 4863 
L 1178 4134 
L 603 4134 
L 603 4863 
z
" transform="scale(0.015625)"/>
       <path id="DejaVuSans-73" d="M 2834 3397 
L 2834 2853 
Q 2591 2978 2328 3040 
Q 2066 3103 1784 3103 
Q 1356 3103 1142 2972 
Q 928 2841 928 2578 
Q 928 2378 1081 2264 
Q 1234 2150 1697 2047 
L 1894 2003 
Q 2506 1872 2764 1633 
Q 3022 1394 3022 966 
Q 3022 478 2636 193 
Q 2250 -91 1575 -91 
Q 1294 -91 989 -36 
Q 684 19 347 128 
L 347 722 
Q 666 556 975 473 
Q 1284 391 1588 391 
Q 1994 391 2212 530 
Q 2431 669 2431 922 
Q 2431 1156 2273 1281 
Q 2116 1406 1581 1522 
L 1381 1569 
Q 847 1681 609 1914 
Q 372 2147 372 2553 
Q 372 3047 722 3315 
Q 1072 3584 1716 3584 
Q 2034 3584 2315 3537 
Q 2597 3491 2834 3397 
z
" transform="scale(0.015625)"/>
       <path id="DejaVuSans-6f" d="M 1959 3097 
Q 1497 3097 1228 2736 
Q 959 2375 959 1747 
Q 959 1119 1226 758 
Q 1494 397 1959 397 
Q 2419 397 2687 759 
Q 2956 1122 2956 1747 
Q 2956 2369 2687 2733 
Q 2419 3097 1959 3097 
z
M 1959 3584 
Q 2709 3584 3137 3096 
Q 3566 2609 3566 1747 
Q 3566 888 3137 398 
Q 2709 -91 1959 -91 
Q 1206 -91 779 398 
Q 353 888 353 1747 
Q 353 2609 779 3096 
Q 1206 3584 1959 3584 
z
" transform="scale(0.015625)"/>
       <path id="DejaVuSans-64" d="M 2906 2969 
L 2906 4863 
L 3481 4863 
L 3481 0 
L 2906 0 
L 2906 525 
Q 2725 213 2448 61 
Q 2172 -91 1784 -91 
Q 1150 -91 751 415 
Q 353 922 353 1747 
Q 353 2572 751 3078 
Q 1150 3584 1784 3584 
Q 2172 3584 2448 3432 
Q 2725 3281 2906 2969 
z
M 947 1747 
Q 947 1113 1208 752 
Q 1469 391 1925 391 
Q 2381 391 2643 752 
Q 2906 1113 2906 1747 
Q 2906 2381 2643 2742 
Q 2381 3103 1925 3103 
Q 1469 3103 1208 2742 
Q 947 2381 947 1747 
z
" transform="scale(0.015625)"/>
       <path id="DejaVuSans-65" d="M 3597 1894 
L 3597 1613 
L 953 1613 
Q 991 1019 1311 708 
Q 1631 397 2203 397 
Q 2534 397 2845 478 
Q 3156 559 3463 722 
L 3463 178 
Q 3153 47 2828 -22 
Q 2503 -91 2169 -91 
Q 1331 -91 842 396 
Q 353 884 353 1716 
Q 353 2575 817 3079 
Q 1281 3584 2069 3584 
Q 2775 3584 3186 3129 
Q 3597 2675 3597 1894 
z
M 3022 2063 
Q 3016 2534 2758 2815 
Q 2500 3097 2075 3097 
Q 1594 3097 1305 2825 
Q 1016 2553 972 2059 
L 3022 2063 
z
" transform="scale(0.015625)"/>
      </defs>
      <use xlink:href="#DejaVuSans-45"/>
      <use xlink:href="#DejaVuSans-70" x="63.183594"/>
      <use xlink:href="#DejaVuSans-69" x="126.660156"/>
      <use xlink:href="#DejaVuSans-73" x="154.443359"/>
      <use xlink:href="#DejaVuSans-6f" x="206.542969"/>
      <use xlink:href="#DejaVuSans-64" x="267.724609"/>
      <use xlink:href="#DejaVuSans-65" x="331.201172"/>
     </g>
    </g>
   </g>
   <g id="matplotlib.axis_2">
    <g id="ytick_1">
     <g id="line2d_13">
      <path d="M 57.6 282.22162 
L 414.72 282.22162 
" clip-path="url(#p9c04d3ddc4)" style="fill: none; stroke-dasharray: 2.96,1.28; stroke-dashoffset: 0; stroke: #b0b0b0; stroke-width: 0.8"/>
     </g>
     <g id="line2d_14">
      <defs>
       <path id="m570b09f082" d="M 0 0 
L -3.5 0 
" style="stroke: #000000; stroke-width: 0.8"/>
      </defs>
      <g>
       <use xlink:href="#m570b09f082" x="57.6" y="282.22162" style="stroke: #000000; stroke-width: 0.8"/>
      </g>
     </g>
     <g id="text_8">
      <!-- 210 -->
      <g transform="translate(31.5125 286.020838)scale(0.1 -0.1)">
       <use xlink:href="#DejaVuSans-32"/>
       <use xlink:href="#DejaVuSans-31" x="63.623047"/>
       <use xlink:href="#DejaVuSans-30" x="127.246094"/>
      </g>
     </g>
    </g>
    <g id="ytick_2">
     <g id="line2d_15">
      <path d="M 57.6 234.002805 
L 414.72 234.002805 
" clip-path="url(#p9c04d3ddc4)" style="fill: none; stroke-dasharray: 2.96,1.28; stroke-dashoffset: 0; stroke: #b0b0b0; stroke-width: 0.8"/>
     </g>
     <g id="line2d_16">
      <g>
       <use xlink:href="#m570b09f082" x="57.6" y="234.002805" style="stroke: #000000; stroke-width: 0.8"/>
      </g>
     </g>
     <g id="text_9">
      <!-- 220 -->
      <g transform="translate(31.5125 237.802024)scale(0.1 -0.1)">
       <use xlink:href="#DejaVuSans-32"/>
       <use xlink:href="#DejaVuSans-32" x="63.623047"/>
       <use xlink:href="#DejaVuSans-30" x="127.246094"/>
      </g>
     </g>
    </g>
    <g id="ytick_3">
     <g id="line2d_17">
      <path d="M 57.6 185.78399 
L 414.72 185.78399 
" clip-path="url(#p9c04d3ddc4)" style="fill: none; stroke-dasharray: 2.96,1.28; stroke-dashoffset: 0; stroke: #b0b0b0; stroke-width: 0.8"/>
     </g>
     <g id="line2d_18">
      <g>
       <use xlink:href="#m570b09f082" x="57.6" y="185.78399" style="stroke: #000000; stroke-width: 0.8"/>
      </g>
     </g>
     <g id="text_10">
      <!-- 230 -->
      <g transform="translate(31.5125 189.583209)scale(0.1 -0.1)">
       <use xlink:href="#DejaVuSans-32"/>
       <use xlink:href="#DejaVuSans-33" x="63.623047"/>
       <use xlink:href="#DejaVuSans-30" x="127.246094"/>
      </g>
     </g>
    </g>
    <g id="ytick_4">
     <g id="line2d_19">
      <path d="M 57.6 137.565175 
L 414.72 137.565175 
" clip-path="url(#p9c04d3ddc4)" style="fill: none; stroke-dasharray: 2.96,1.28; stroke-dashoffset: 0; stroke: #b0b0b0; stroke-width: 0.8"/>
     </g>
     <g id="line2d_20">
      <g>
       <use xlink:href="#m570b09f082" x="57.6" y="137.565175" style="stroke: #000000; stroke-width: 0.8"/>
      </g>
     </g>
     <g id="text_11">
      <!-- 240 -->
      <g transform="translate(31.5125 141.364394)scale(0.1 -0.1)">
       <use xlink:href="#DejaVuSans-32"/>
       <use xlink:href="#DejaVuSans-34" x="63.623047"/>
       <use xlink:href="#DejaVuSans-30" x="127.246094"/>
      </g>
     </g>
    </g>
    <g id="ytick_5">
     <g id="line2d_21">
      <path d="M 57.6 89.346361 
L 414.72 89.346361 
" clip-path="url(#p9c04d3ddc4)" style="fill: none; stroke-dasharray: 2.96,1.28; stroke-dashoffset: 0; stroke: #b0b0b0; stroke-width: 0.8"/>
     </g>
     <g id="line2d_22">
      <g>
       <use xlink:href="#m570b09f082" x="57.6" y="89.346361" style="stroke: #000000; stroke-width: 0.8"/>
      </g>
     </g>
     <g id="text_12">
      <!-- 250 -->
      <g transform="translate(31.5125 93.145579)scale(0.1 -0.1)">
       <use xlink:href="#DejaVuSans-32"/>
       <use xlink:href="#DejaVuSans-35" x="63.623047"/>
       <use xlink:href="#DejaVuSans-30" x="127.246094"/>
      </g>
     </g>
    </g>
    <g id="text_13">
     <!-- state/in_circulation -->
     <g transform="translate(25.154687 221.9655)rotate(-90)scale(0.1 -0.1)">
      <defs>
       <path id="DejaVuSans-74" d="M 1172 4494 
L 1172 3500 
L 2356 3500 
L 2356 3053 
L 1172 3053 
L 1172 1153 
Q 1172 725 1289 603 
Q 1406 481 1766 481 
L 2356 481 
L 2356 0 
L 1766 0 
Q 1100 0 847 248 
Q 594 497 594 1153 
L 594 3053 
L 172 3053 
L 172 3500 
L 594 3500 
L 594 4494 
L 1172 4494 
z
" transform="scale(0.015625)"/>
       <path id="DejaVuSans-61" d="M 2194 1759 
Q 1497 1759 1228 1600 
Q 959 1441 959 1056 
Q 959 750 1161 570 
Q 1363 391 1709 391 
Q 2188 391 2477 730 
Q 2766 1069 2766 1631 
L 2766 1759 
L 2194 1759 
z
M 3341 1997 
L 3341 0 
L 2766 0 
L 2766 531 
Q 2569 213 2275 61 
Q 1981 -91 1556 -91 
Q 1019 -91 701 211 
Q 384 513 384 1019 
Q 384 1609 779 1909 
Q 1175 2209 1959 2209 
L 2766 2209 
L 2766 2266 
Q 2766 2663 2505 2880 
Q 2244 3097 1772 3097 
Q 1472 3097 1187 3025 
Q 903 2953 641 2809 
L 641 3341 
Q 956 3463 1253 3523 
Q 1550 3584 1831 3584 
Q 2591 3584 2966 3190 
Q 3341 2797 3341 1997 
z
" transform="scale(0.015625)"/>
       <path id="DejaVuSans-2f" d="M 1625 4666 
L 2156 4666 
L 531 -594 
L 0 -594 
L 1625 4666 
z
" transform="scale(0.015625)"/>
       <path id="DejaVuSans-6e" d="M 3513 2113 
L 3513 0 
L 2938 0 
L 2938 2094 
Q 2938 2591 2744 2837 
Q 2550 3084 2163 3084 
Q 1697 3084 1428 2787 
Q 1159 2491 1159 1978 
L 1159 0 
L 581 0 
L 581 3500 
L 1159 3500 
L 1159 2956 
Q 1366 3272 1645 3428 
Q 1925 3584 2291 3584 
Q 2894 3584 3203 3211 
Q 3513 2838 3513 2113 
z
" transform="scale(0.015625)"/>
       <path id="DejaVuSans-5f" d="M 3263 -1063 
L 3263 -1509 
L -63 -1509 
L -63 -1063 
L 3263 -1063 
z
" transform="scale(0.015625)"/>
       <path id="DejaVuSans-63" d="M 3122 3366 
L 3122 2828 
Q 2878 2963 2633 3030 
Q 2388 3097 2138 3097 
Q 1578 3097 1268 2742 
Q 959 2388 959 1747 
Q 959 1106 1268 751 
Q 1578 397 2138 397 
Q 2388 397 2633 464 
Q 2878 531 3122 666 
L 3122 134 
Q 2881 22 2623 -34 
Q 2366 -91 2075 -91 
Q 1284 -91 818 406 
Q 353 903 353 1747 
Q 353 2603 823 3093 
Q 1294 3584 2113 3584 
Q 2378 3584 2631 3529 
Q 2884 3475 3122 3366 
z
" transform="scale(0.015625)"/>
       <path id="DejaVuSans-72" d="M 2631 2963 
Q 2534 3019 2420 3045 
Q 2306 3072 2169 3072 
Q 1681 3072 1420 2755 
Q 1159 2438 1159 1844 
L 1159 0 
L 581 0 
L 581 3500 
L 1159 3500 
L 1159 2956 
Q 1341 3275 1631 3429 
Q 1922 3584 2338 3584 
Q 2397 3584 2469 3576 
Q 2541 3569 2628 3553 
L 2631 2963 
z
" transform="scale(0.015625)"/>
       <path id="DejaVuSans-75" d="M 544 1381 
L 544 3500 
L 1119 3500 
L 1119 1403 
Q 1119 906 1312 657 
Q 1506 409 1894 409 
Q 2359 409 2629 706 
Q 2900 1003 2900 1516 
L 2900 3500 
L 3475 3500 
L 3475 0 
L 2900 0 
L 2900 538 
Q 2691 219 2414 64 
Q 2138 -91 1772 -91 
Q 1169 -91 856 284 
Q 544 659 544 1381 
z
M 1991 3584 
L 1991 3584 
z
" transform="scale(0.015625)"/>
       <path id="DejaVuSans-6c" d="M 603 4863 
L 1178 4863 
L 1178 0 
L 603 0 
L 603 4863 
z
" transform="scale(0.015625)"/>
      </defs>
      <use xlink:href="#DejaVuSans-73"/>
      <use xlink:href="#DejaVuSans-74" x="52.099609"/>
      <use xlink:href="#DejaVuSans-61" x="91.308594"/>
      <use xlink:href="#DejaVuSans-74" x="152.587891"/>
      <use xlink:href="#DejaVuSans-65" x="191.796875"/>
      <use xlink:href="#DejaVuSans-2f" x="253.320312"/>
      <use xlink:href="#DejaVuSans-69" x="287.011719"/>
      <use xlink:href="#DejaVuSans-6e" x="314.794922"/>
      <use xlink:href="#DejaVuSans-5f" x="378.173828"/>
      <use xlink:href="#DejaVuSans-63" x="428.173828"/>
      <use xlink:href="#DejaVuSans-69" x="483.154297"/>
      <use xlink:href="#DejaVuSans-72" x="510.9375"/>
      <use xlink:href="#DejaVuSans-63" x="549.800781"/>
      <use xlink:href="#DejaVuSans-75" x="604.78125"/>
      <use xlink:href="#DejaVuSans-6c" x="668.160156"/>
      <use xlink:href="#DejaVuSans-61" x="695.943359"/>
      <use xlink:href="#DejaVuSans-74" x="757.222656"/>
      <use xlink:href="#DejaVuSans-69" x="796.431641"/>
      <use xlink:href="#DejaVuSans-6f" x="824.214844"/>
      <use xlink:href="#DejaVuSans-6e" x="885.396484"/>
     </g>
    </g>
   </g>
   <g id="line2d_23">
    <path d="M 73.832727 53.568 
L 74.483338 161.674583 
L 75.784558 218.476346 
L 76.435169 227.907947 
L 77.085779 246.507551 
L 77.736389 207.881984 
L 78.386999 247.250924 
L 79.03761 229.05234 
L 79.68822 200.934342 
L 80.33883 195.655696 
L 80.989441 194.75269 
L 81.640051 195.976706 
L 82.290661 178.337627 
L 82.941272 223.838279 
L 83.591882 203.05838 
L 84.242492 211.725712 
L 84.893103 222.424932 
L 85.543713 229.434707 
L 86.194323 246.47219 
L 87.495544 258.164815 
L 88.796764 235.557862 
L 89.447375 229.836699 
L 90.097985 218.305726 
L 92.049816 244.145383 
L 92.700426 238.56109 
L 93.351037 229.171591 
L 94.652257 242.869222 
L 95.302868 242.146112 
L 95.953478 242.205514 
L 96.604088 235.768149 
L 97.254698 227.429407 
L 97.905309 224.310823 
L 98.555919 233.288177 
L 99.206529 236.91281 
L 99.85714 238.911715 
L 100.50775 240.227624 
L 101.15836 248.118582 
L 101.808971 248.334752 
L 102.459581 249.488545 
L 103.760802 256.610247 
L 104.411412 252.573076 
L 105.062022 257.535555 
L 105.712633 257.375429 
L 106.363243 264.883647 
L 107.664463 248.710453 
L 108.315074 248.600605 
L 108.965684 248.990966 
L 109.616294 250.085502 
L 110.266905 255.84339 
L 110.917515 258.531217 
L 111.568125 256.015102 
L 112.218736 250.561146 
L 112.869346 250.621696 
L 113.519956 247.989372 
L 114.170567 248.734801 
L 114.821177 256.314554 
L 115.471787 253.633055 
L 116.122398 246.149563 
L 116.773008 247.308319 
L 117.423618 241.476721 
L 118.074228 238.617835 
L 118.724839 242.719389 
L 119.375449 238.478326 
L 120.026059 237.051305 
L 120.67667 237.577602 
L 121.32728 239.825552 
L 121.97789 238.07633 
L 122.628501 243.934612 
L 123.279111 241.710301 
L 123.929721 240.810312 
L 125.230942 246.891694 
L 125.881552 245.33244 
L 126.532163 246.712579 
L 127.182773 248.569534 
L 127.833383 242.753372 
L 128.483993 241.909556 
L 129.134604 239.740844 
L 130.435824 238.67455 
L 131.086435 236.064836 
L 131.737045 234.745375 
L 133.038266 228.797269 
L 133.688876 229.709775 
L 134.339486 235.451421 
L 134.990097 233.832262 
L 135.640707 233.046465 
L 136.291317 235.968343 
L 136.941927 236.957929 
L 138.893758 242.265886 
L 139.544369 244.998604 
L 140.194979 242.645908 
L 140.845589 244.791407 
L 141.4962 242.756668 
L 142.14681 239.758508 
L 142.79742 240.861334 
L 143.448031 241.494385 
L 144.098641 237.265452 
L 146.050472 246.650457 
L 146.701082 251.728232 
L 147.351692 249.43569 
L 148.002303 249.598011 
L 148.652913 238.41793 
L 149.303523 242.779584 
L 149.954134 242.38524 
L 150.604744 241.21844 
L 151.255354 236.246651 
L 151.905965 233.36116 
L 152.556575 231.155508 
L 153.207185 230.960723 
L 154.508406 239.11018 
L 155.159016 239.542717 
L 155.809627 244.955637 
L 156.460237 245.737641 
L 157.110847 243.648477 
L 157.761457 240.161446 
L 158.412068 241.134415 
L 159.062678 246.408885 
L 159.713288 243.738231 
L 160.363899 240.168129 
L 161.014509 242.701288 
L 161.665119 237.895639 
L 162.31573 239.113044 
L 163.61695 248.837968 
L 164.267561 243.101361 
L 164.918171 243.137644 
L 165.568781 241.548811 
L 166.219392 241.975619 
L 166.870002 235.282274 
L 167.520612 234.037179 
L 168.171222 231.488743 
L 168.821833 226.918936 
L 169.472443 228.092419 
L 170.123053 226.920845 
L 170.773664 222.818904 
L 171.424274 225.22889 
L 172.074884 221.956695 
L 172.725495 228.854372 
L 173.376105 231.287274 
L 174.026715 231.443866 
L 174.677326 232.634536 
L 175.327936 233.279045 
L 175.978546 227.480375 
L 176.629156 228.578427 
L 177.279767 232.149484 
L 177.930377 233.346838 
L 178.580987 234.005669 
L 179.231598 236.597073 
L 179.882208 234.033359 
L 180.532818 228.931713 
L 181.834039 238.52678 
L 182.484649 237.898503 
L 183.13526 243.762102 
L 183.78587 248.272709 
L 184.43648 242.30026 
L 185.087091 247.57664 
L 185.737701 251.252728 
L 186.388311 250.21483 
L 187.038921 251.23745 
L 187.689532 254.481956 
L 188.340142 248.576345 
L 188.990752 249.236131 
L 189.641363 251.51626 
L 190.291973 245.582959 
L 190.942583 240.761077 
L 191.593194 239.781424 
L 192.243804 238.036953 
L 192.894414 238.324356 
L 193.545025 243.225489 
L 194.195635 246.097611 
L 194.846245 249.930291 
L 195.496856 248.608809 
L 196.147466 248.498049 
L 196.798076 251.287102 
L 197.448686 254.921177 
L 198.099297 255.887463 
L 198.749907 260.044784 
L 199.400517 263.081137 
L 200.051128 256.568255 
L 200.701738 255.695542 
L 201.352348 255.305018 
L 202.002959 257.191758 
L 202.653569 252.954231 
L 203.304179 253.09841 
L 203.95479 246.961731 
L 204.6054 247.100181 
L 205.25601 242.464491 
L 205.906621 248.317586 
L 206.557231 245.10459 
L 207.207841 243.376351 
L 207.858451 247.65971 
L 208.509062 246.934995 
L 209.159672 248.651776 
L 209.810282 247.651116 
L 210.460893 247.580459 
L 211.111503 249.346891 
L 212.412724 240.07933 
L 213.063334 241.85531 
L 213.713944 246.819461 
L 214.364555 248.901941 
L 215.015165 246.486226 
L 215.665775 245.805434 
L 216.316385 249.88255 
L 216.966996 251.252728 
L 217.617606 251.90583 
L 218.268216 251.815121 
L 218.918827 252.514056 
L 219.569437 250.378105 
L 220.220047 247.243405 
L 220.870658 245.730002 
L 221.521268 246.537787 
L 222.171878 244.377966 
L 222.822489 238.876247 
L 223.473099 239.086309 
L 224.123709 240.739116 
L 225.42493 236.41661 
L 226.07554 239.590458 
L 226.72615 236.762258 
L 227.376761 246.166359 
L 228.027371 246.321041 
L 228.677981 247.359894 
L 229.328592 246.336318 
L 229.979202 248.579209 
L 230.629812 249.070946 
L 231.280423 249.144467 
L 231.931033 250.653096 
L 232.581643 254.976557 
L 233.232254 253.18339 
L 233.882864 259.32007 
L 234.533474 260.632003 
L 235.184085 260.904129 
L 235.834695 265.538864 
L 236.485305 266.629278 
L 237.786526 259.822309 
L 238.437136 255.272554 
L 239.087746 258.829288 
L 239.738357 261.348124 
L 240.388967 258.246843 
L 241.039577 255.884598 
L 241.690188 256.365832 
L 242.340798 251.57164 
L 242.991408 252.207556 
L 243.642019 253.582508 
L 244.292629 251.567821 
L 244.943239 250.227242 
L 245.59385 249.207486 
L 246.24446 251.52008 
L 246.89507 250.239655 
L 247.54568 248.37965 
L 248.196291 245.541901 
L 249.497511 245.286007 
L 250.148122 246.270435 
L 250.798732 246.733527 
L 251.449342 245.815937 
L 252.099953 246.985601 
L 252.750563 242.170404 
L 253.401173 239.667799 
L 254.051784 245.338523 
L 254.702394 246.778404 
L 255.353004 244.117298 
L 256.003615 248.262206 
L 256.654225 248.82651 
L 257.304835 253.948207 
L 257.955445 251.622246 
L 258.606056 247.947113 
L 259.256666 245.853175 
L 259.907276 240.520461 
L 260.557887 241.162105 
L 261.208497 243.757328 
L 261.859107 245.211531 
L 262.509718 243.379216 
L 263.160328 238.965046 
L 263.810938 241.108635 
L 264.461549 238.642314 
L 265.112159 232.44739 
L 265.762769 236.841508 
L 266.413379 239.30401 
L 267.06399 242.205732 
L 267.7146 238.968865 
L 268.36521 242.179952 
L 269.015821 241.684396 
L 269.666431 243.871907 
L 270.317041 240.189136 
L 270.967652 242.597212 
L 271.618262 241.209847 
L 272.268872 237.982528 
L 272.919483 237.905187 
L 273.570093 232.936262 
L 274.220703 234.481174 
L 274.871314 237.19575 
L 275.521924 241.944109 
L 276.172534 243.479473 
L 276.823144 242.33177 
L 277.473755 244.197504 
L 278.124365 243.703857 
L 278.774975 241.957477 
L 279.425586 240.982598 
L 280.076196 242.069192 
L 280.726806 244.307309 
L 281.377417 244.776129 
L 282.028027 240.194864 
L 282.678637 247.027614 
L 283.329248 243.896733 
L 283.979858 246.032683 
L 285.281079 238.620353 
L 285.931689 241.204118 
L 286.582299 239.260088 
L 287.232909 236.466261 
L 287.88352 232.794947 
L 288.53413 240.347637 
L 289.18474 242.224829 
L 289.835351 239.296371 
L 290.485961 242.055824 
L 291.136571 241.142054 
L 291.787182 237.813523 
L 292.437792 241.814253 
L 293.088402 234.794357 
L 294.389623 233.691531 
L 295.040233 232.551466 
L 295.690844 228.983274 
L 296.341454 228.303436 
L 296.992064 231.990027 
L 297.642674 231.868764 
L 298.293285 231.881177 
L 298.943895 231.359841 
L 299.594505 229.81111 
L 300.245116 233.14346 
L 300.895726 228.262379 
L 301.546336 225.484784 
L 302.196947 228.366455 
L 303.498167 232.427339 
L 304.148778 235.733908 
L 304.799388 235.422634 
L 305.449998 232.808315 
L 306.100608 237.707538 
L 306.751219 238.881976 
L 308.052439 248.631725 
L 308.70305 248.76731 
L 309.35366 250.741895 
L 310.00427 256.154815 
L 310.654881 257.838177 
L 311.305491 258.595355 
L 311.956101 261.193442 
L 312.606712 260.26344 
L 313.257322 261.043534 
L 313.907932 266.786825 
L 314.558543 263.250142 
L 315.209153 264.45227 
L 315.859763 267.762659 
L 317.160984 255.949527 
L 317.811594 254.305313 
L 318.462204 256.964509 
L 319.112815 257.951801 
L 319.763425 253.965394 
L 320.414035 250.867932 
L 321.064646 254.852429 
L 321.715256 257.157384 
L 322.365866 254.477182 
L 323.016477 250.90708 
L 323.667087 255.416733 
L 324.317697 254.050374 
L 324.968308 253.604469 
L 325.618918 255.962894 
L 326.269528 250.584348 
L 326.920138 248.018725 
L 327.570749 249.968484 
L 328.221359 250.464995 
L 328.871969 257.34453 
L 329.52258 255.342256 
L 330.17319 255.483571 
L 330.8238 256.445082 
L 331.474411 255.316476 
L 332.125021 256.145266 
L 333.426242 246.052734 
L 334.076852 245.989716 
L 334.727462 247.370397 
L 335.378073 244.400882 
L 336.028683 246.635179 
L 336.679293 251.652801 
L 337.329903 248.625996 
L 337.980514 252.90458 
L 338.631124 253.933885 
L 339.281734 258.096935 
L 339.932345 257.075269 
L 340.582955 257.12301 
L 341.233565 252.978102 
L 341.884176 251.055078 
L 342.534786 250.215785 
L 343.185396 253.247363 
L 343.836007 251.76738 
L 344.486617 253.472703 
L 345.137227 248.915309 
L 345.787837 251.672852 
L 346.438448 251.555408 
L 347.089058 254.742624 
L 347.739668 255.777658 
L 348.390279 255.283057 
L 349.040889 261.215403 
L 349.691499 260.914632 
L 350.34211 266.819289 
L 350.99272 269.419286 
L 351.64333 268.623914 
L 352.293941 276.364705 
L 352.944551 275.385051 
L 353.595161 279.567198 
L 354.245772 279.452618 
L 354.896382 281.119748 
L 355.546992 283.686326 
L 356.197602 281.789082 
L 356.848213 287.046366 
L 357.498823 285.833734 
L 358.149433 287.263111 
L 358.800044 292.505117 
L 360.101264 289.371372 
L 360.751875 289.801999 
L 361.402485 295.488 
L 362.053095 294.559907 
L 362.703706 295.102249 
L 364.004926 289.310263 
L 364.655537 290.053119 
L 365.306147 285.308579 
L 365.956757 283.540237 
L 366.607367 285.455622 
L 367.257978 286.797155 
L 367.908588 287.736706 
L 368.559198 288.182611 
L 369.209809 290.657525 
L 369.860419 288.477653 
L 370.511029 284.810158 
L 371.16164 285.594072 
L 371.81225 281.187541 
L 372.46286 285.108065 
L 373.113471 283.316807 
L 373.764081 279.165215 
L 374.414691 277.199224 
L 375.065302 272.785054 
L 375.715912 267.522042 
L 376.366522 267.818994 
L 377.017132 269.715282 
L 377.667743 266.780141 
L 378.318353 267.003571 
L 378.968963 269.220681 
L 379.619574 266.333281 
L 380.270184 266.292224 
L 380.920794 263.571919 
L 381.571405 264.164867 
L 382.222015 268.100668 
L 382.872625 273.52791 
L 383.523236 275.954128 
L 384.173846 273.000845 
L 384.824456 272.832796 
L 385.475066 274.367204 
L 386.125677 276.955743 
L 386.776287 273.86592 
L 387.426897 267.388366 
L 388.077508 273.739882 
L 388.728118 271.94767 
L 389.378728 268.038604 
L 390.029339 266.809741 
L 390.679949 269.42406 
L 391.330559 273.060045 
L 391.98117 275.491037 
L 392.63178 279.926213 
L 393.28239 279.621623 
L 393.933001 282.541487 
L 394.583611 281.068187 
L 395.234221 282.765872 
L 395.884831 286.046661 
L 396.535442 290.248859 
L 397.186052 291.240925 
L 398.487273 295.172907 
L 398.487273 295.172907 
" clip-path="url(#p9c04d3ddc4)" style="fill: none; stroke: #1f77b4; stroke-width: 1.5; stroke-linecap: square"/>
   </g>
   <g id="patch_3">
    <path d="M 57.6 307.584 
L 57.6 41.472 
" style="fill: none; stroke: #000000; stroke-width: 0.8; stroke-linejoin: miter; stroke-linecap: square"/>
   </g>
   <g id="patch_4">
    <path d="M 414.72 307.584 
L 414.72 41.472 
" style="fill: none; stroke: #000000; stroke-width: 0.8; stroke-linejoin: miter; stroke-linecap: square"/>
   </g>
   <g id="patch_5">
    <path d="M 57.6 307.584 
L 414.72 307.584 
" style="fill: none; stroke: #000000; stroke-width: 0.8; stroke-linejoin: miter; stroke-linecap: square"/>
   </g>
   <g id="patch_6">
    <path d="M 57.6 41.472 
L 414.72 41.472 
" style="fill: none; stroke: #000000; stroke-width: 0.8; stroke-linejoin: miter; stroke-linecap: square"/>
   </g>
   <g id="text_14">
    <!-- Rolling average monitoring progress of state/in_circulation -->
    <g transform="translate(60.52125 35.472)scale(0.12 -0.12)">
     <defs>
      <path id="DejaVuSans-52" d="M 2841 2188 
Q 3044 2119 3236 1894 
Q 3428 1669 3622 1275 
L 4263 0 
L 3584 0 
L 2988 1197 
Q 2756 1666 2539 1819 
Q 2322 1972 1947 1972 
L 1259 1972 
L 1259 0 
L 628 0 
L 628 4666 
L 2053 4666 
Q 2853 4666 3247 4331 
Q 3641 3997 3641 3322 
Q 3641 2881 3436 2590 
Q 3231 2300 2841 2188 
z
M 1259 4147 
L 1259 2491 
L 2053 2491 
Q 2509 2491 2742 2702 
Q 2975 2913 2975 3322 
Q 2975 3731 2742 3939 
Q 2509 4147 2053 4147 
L 1259 4147 
z
" transform="scale(0.015625)"/>
      <path id="DejaVuSans-67" d="M 2906 1791 
Q 2906 2416 2648 2759 
Q 2391 3103 1925 3103 
Q 1463 3103 1205 2759 
Q 947 2416 947 1791 
Q 947 1169 1205 825 
Q 1463 481 1925 481 
Q 2391 481 2648 825 
Q 2906 1169 2906 1791 
z
M 3481 434 
Q 3481 -459 3084 -895 
Q 2688 -1331 1869 -1331 
Q 1566 -1331 1297 -1286 
Q 1028 -1241 775 -1147 
L 775 -588 
Q 1028 -725 1275 -790 
Q 1522 -856 1778 -856 
Q 2344 -856 2625 -561 
Q 2906 -266 2906 331 
L 2906 616 
Q 2728 306 2450 153 
Q 2172 0 1784 0 
Q 1141 0 747 490 
Q 353 981 353 1791 
Q 353 2603 747 3093 
Q 1141 3584 1784 3584 
Q 2172 3584 2450 3431 
Q 2728 3278 2906 2969 
L 2906 3500 
L 3481 3500 
L 3481 434 
z
" transform="scale(0.015625)"/>
      <path id="DejaVuSans-20" transform="scale(0.015625)"/>
      <path id="DejaVuSans-76" d="M 191 3500 
L 800 3500 
L 1894 563 
L 2988 3500 
L 3597 3500 
L 2284 0 
L 1503 0 
L 191 3500 
z
" transform="scale(0.015625)"/>
      <path id="DejaVuSans-6d" d="M 3328 2828 
Q 3544 3216 3844 3400 
Q 4144 3584 4550 3584 
Q 5097 3584 5394 3201 
Q 5691 2819 5691 2113 
L 5691 0 
L 5113 0 
L 5113 2094 
Q 5113 2597 4934 2840 
Q 4756 3084 4391 3084 
Q 3944 3084 3684 2787 
Q 3425 2491 3425 1978 
L 3425 0 
L 2847 0 
L 2847 2094 
Q 2847 2600 2669 2842 
Q 2491 3084 2119 3084 
Q 1678 3084 1418 2786 
Q 1159 2488 1159 1978 
L 1159 0 
L 581 0 
L 581 3500 
L 1159 3500 
L 1159 2956 
Q 1356 3278 1631 3431 
Q 1906 3584 2284 3584 
Q 2666 3584 2933 3390 
Q 3200 3197 3328 2828 
z
" transform="scale(0.015625)"/>
      <path id="DejaVuSans-66" d="M 2375 4863 
L 2375 4384 
L 1825 4384 
Q 1516 4384 1395 4259 
Q 1275 4134 1275 3809 
L 1275 3500 
L 2222 3500 
L 2222 3053 
L 1275 3053 
L 1275 0 
L 697 0 
L 697 3053 
L 147 3053 
L 147 3500 
L 697 3500 
L 697 3744 
Q 697 4328 969 4595 
Q 1241 4863 1831 4863 
L 2375 4863 
z
" transform="scale(0.015625)"/>
     </defs>
     <use xlink:href="#DejaVuSans-52"/>
     <use xlink:href="#DejaVuSans-6f" x="64.982422"/>
     <use xlink:href="#DejaVuSans-6c" x="126.164062"/>
     <use xlink:href="#DejaVuSans-6c" x="153.947266"/>
     <use xlink:href="#DejaVuSans-69" x="181.730469"/>
     <use xlink:href="#DejaVuSans-6e" x="209.513672"/>
     <use xlink:href="#DejaVuSans-67" x="272.892578"/>
     <use xlink:href="#DejaVuSans-20" x="336.369141"/>
     <use xlink:href="#DejaVuSans-61" x="368.15625"/>
     <use xlink:href="#DejaVuSans-76" x="429.435547"/>
     <use xlink:href="#DejaVuSans-65" x="488.615234"/>
     <use xlink:href="#DejaVuSans-72" x="550.138672"/>
     <use xlink:href="#DejaVuSans-61" x="591.251953"/>
     <use xlink:href="#DejaVuSans-67" x="652.53125"/>
     <use xlink:href="#DejaVuSans-65" x="716.007812"/>
     <use xlink:href="#DejaVuSans-20" x="777.53125"/>
     <use xlink:href="#DejaVuSans-6d" x="809.318359"/>
     <use xlink:href="#DejaVuSans-6f" x="906.730469"/>
     <use xlink:href="#DejaVuSans-6e" x="967.912109"/>
     <use xlink:href="#DejaVuSans-69" x="1031.291016"/>
     <use xlink:href="#DejaVuSans-74" x="1059.074219"/>
     <use xlink:href="#DejaVuSans-6f" x="1098.283203"/>
     <use xlink:href="#DejaVuSans-72" x="1159.464844"/>
     <use xlink:href="#DejaVuSans-69" x="1200.578125"/>
     <use xlink:href="#DejaVuSans-6e" x="1228.361328"/>
     <use xlink:href="#DejaVuSans-67" x="1291.740234"/>
     <use xlink:href="#DejaVuSans-20" x="1355.216797"/>
     <use xlink:href="#DejaVuSans-70" x="1387.003906"/>
     <use xlink:href="#DejaVuSans-72" x="1450.480469"/>
     <use xlink:href="#DejaVuSans-6f" x="1489.34375"/>
     <use xlink:href="#DejaVuSans-67" x="1550.525391"/>
     <use xlink:href="#DejaVuSans-72" x="1614.001953"/>
     <use xlink:href="#DejaVuSans-65" x="1652.865234"/>
     <use xlink:href="#DejaVuSans-73" x="1714.388672"/>
     <use xlink:href="#DejaVuSans-73" x="1766.488281"/>
     <use xlink:href="#DejaVuSans-20" x="1818.587891"/>
     <use xlink:href="#DejaVuSans-6f" x="1850.375"/>
     <use xlink:href="#DejaVuSans-66" x="1911.556641"/>
     <use xlink:href="#DejaVuSans-20" x="1946.761719"/>
     <use xlink:href="#DejaVuSans-73" x="1978.548828"/>
     <use xlink:href="#DejaVuSans-74" x="2030.648438"/>
     <use xlink:href="#DejaVuSans-61" x="2069.857422"/>
     <use xlink:href="#DejaVuSans-74" x="2131.136719"/>
     <use xlink:href="#DejaVuSans-65" x="2170.345703"/>
     <use xlink:href="#DejaVuSans-2f" x="2231.869141"/>
     <use xlink:href="#DejaVuSans-69" x="2265.560547"/>
     <use xlink:href="#DejaVuSans-6e" x="2293.34375"/>
     <use xlink:href="#DejaVuSans-5f" x="2356.722656"/>
     <use xlink:href="#DejaVuSans-63" x="2406.722656"/>
     <use xlink:href="#DejaVuSans-69" x="2461.703125"/>
     <use xlink:href="#DejaVuSans-72" x="2489.486328"/>
     <use xlink:href="#DejaVuSans-63" x="2528.349609"/>
     <use xlink:href="#DejaVuSans-75" x="2583.330078"/>
     <use xlink:href="#DejaVuSans-6c" x="2646.708984"/>
     <use xlink:href="#DejaVuSans-61" x="2674.492188"/>
     <use xlink:href="#DejaVuSans-74" x="2735.771484"/>
     <use xlink:href="#DejaVuSans-69" x="2774.980469"/>
     <use xlink:href="#DejaVuSans-6f" x="2802.763672"/>
     <use xlink:href="#DejaVuSans-6e" x="2863.945312"/>
    </g>
   </g>
  </g>
 </g>
 <defs>
  <clipPath id="p9c04d3ddc4">
   <rect x="57.6" y="41.472" width="357.12" height="266.112"/>
  </clipPath>
 </defs>
</svg>
