<?xml version="1.0" encoding="utf-8" standalone="no"?>
<!DOCTYPE svg PUBLIC "-//W3C//DTD SVG 1.1//EN"
  "http://www.w3.org/Graphics/SVG/1.1/DTD/svg11.dtd">
<svg xmlns:xlink="http://www.w3.org/1999/xlink" width="460.8pt" height="345.6pt" viewBox="0 0 460.8 345.6" xmlns="http://www.w3.org/2000/svg" version="1.1">
 <metadata>
  <rdf:RDF xmlns:dc="http://purl.org/dc/elements/1.1/" xmlns:cc="http://creativecommons.org/ns#" xmlns:rdf="http://www.w3.org/1999/02/22-rdf-syntax-ns#">
   <cc:Work>
    <dc:type rdf:resource="http://purl.org/dc/dcmitype/StillImage"/>
    <dc:date>2022-06-23T13:41:42.288970</dc:date>
    <dc:format>image/svg+xml</dc:format>
    <dc:creator>
     <cc:Agent>
      <dc:title>Matplotlib v3.5.2, https://matplotlib.org/</dc:title>
     </cc:Agent>
    </dc:creator>
   </cc:Work>
  </rdf:RDF>
 </metadata>
 <defs>
  <style type="text/css">*{stroke-linejoin: round; stroke-linecap: butt}</style>
 </defs>
 <g id="figure_1">
  <g id="patch_1">
   <path d="M 0 345.6 
L 460.8 345.6 
L 460.8 0 
L 0 0 
L 0 345.6 
z
" style="fill: none"/>
  </g>
  <g id="axes_1">
   <g id="patch_2">
    <path d="M 57.6 307.584 
L 414.72 307.584 
L 414.72 41.472 
L 57.6 41.472 
L 57.6 307.584 
z
" style="fill: none"/>
   </g>
   <g id="matplotlib.axis_1">
    <g id="xtick_1">
     <g id="line2d_1">
      <path d="M 73.832727 307.584 
L 73.832727 41.472 
" clip-path="url(#p23ff5cf326)" style="fill: none; stroke-dasharray: 2.96,1.28; stroke-dashoffset: 0; stroke: #b0b0b0; stroke-width: 0.8"/>
     </g>
     <g id="line2d_2">
      <defs>
       <path id="m6ca1751d4f" d="M 0 0 
L 0 3.5 
" style="stroke: #000000; stroke-width: 0.8"/>
      </defs>
      <g>
       <use xlink:href="#m6ca1751d4f" x="73.832727" y="307.584" style="stroke: #000000; stroke-width: 0.8"/>
      </g>
     </g>
     <g id="text_1">
      <!-- 0 -->
      <g transform="translate(70.651477 322.182437)scale(0.1 -0.1)">
       <defs>
        <path id="DejaVuSans-30" d="M 2034 4250 
Q 1547 4250 1301 3770 
Q 1056 3291 1056 2328 
Q 1056 1369 1301 889 
Q 1547 409 2034 409 
Q 2525 409 2770 889 
Q 3016 1369 3016 2328 
Q 3016 3291 2770 3770 
Q 2525 4250 2034 4250 
z
M 2034 4750 
Q 2819 4750 3233 4129 
Q 3647 3509 3647 2328 
Q 3647 1150 3233 529 
Q 2819 -91 2034 -91 
Q 1250 -91 836 529 
Q 422 1150 422 2328 
Q 422 3509 836 4129 
Q 1250 4750 2034 4750 
z
" transform="scale(0.015625)"/>
       </defs>
       <use xlink:href="#DejaVuSans-30"/>
      </g>
     </g>
    </g>
    <g id="xtick_2">
     <g id="line2d_3">
      <path d="M 138.893758 307.584 
L 138.893758 41.472 
" clip-path="url(#p23ff5cf326)" style="fill: none; stroke-dasharray: 2.96,1.28; stroke-dashoffset: 0; stroke: #b0b0b0; stroke-width: 0.8"/>
     </g>
     <g id="line2d_4">
      <g>
       <use xlink:href="#m6ca1751d4f" x="138.893758" y="307.584" style="stroke: #000000; stroke-width: 0.8"/>
      </g>
     </g>
     <g id="text_2">
      <!-- 100 -->
      <g transform="translate(129.350008 322.182437)scale(0.1 -0.1)">
       <defs>
        <path id="DejaVuSans-31" d="M 794 531 
L 1825 531 
L 1825 4091 
L 703 3866 
L 703 4441 
L 1819 4666 
L 2450 4666 
L 2450 531 
L 3481 531 
L 3481 0 
L 794 0 
L 794 531 
z
" transform="scale(0.015625)"/>
       </defs>
       <use xlink:href="#DejaVuSans-31"/>
       <use xlink:href="#DejaVuSans-30" x="63.623047"/>
       <use xlink:href="#DejaVuSans-30" x="127.246094"/>
      </g>
     </g>
    </g>
    <g id="xtick_3">
     <g id="line2d_5">
      <path d="M 203.95479 307.584 
L 203.95479 41.472 
" clip-path="url(#p23ff5cf326)" style="fill: none; stroke-dasharray: 2.96,1.28; stroke-dashoffset: 0; stroke: #b0b0b0; stroke-width: 0.8"/>
     </g>
     <g id="line2d_6">
      <g>
       <use xlink:href="#m6ca1751d4f" x="203.95479" y="307.584" style="stroke: #000000; stroke-width: 0.8"/>
      </g>
     </g>
     <g id="text_3">
      <!-- 200 -->
      <g transform="translate(194.41104 322.182437)scale(0.1 -0.1)">
       <defs>
        <path id="DejaVuSans-32" d="M 1228 531 
L 3431 531 
L 3431 0 
L 469 0 
L 469 531 
Q 828 903 1448 1529 
Q 2069 2156 2228 2338 
Q 2531 2678 2651 2914 
Q 2772 3150 2772 3378 
Q 2772 3750 2511 3984 
Q 2250 4219 1831 4219 
Q 1534 4219 1204 4116 
Q 875 4013 500 3803 
L 500 4441 
Q 881 4594 1212 4672 
Q 1544 4750 1819 4750 
Q 2544 4750 2975 4387 
Q 3406 4025 3406 3419 
Q 3406 3131 3298 2873 
Q 3191 2616 2906 2266 
Q 2828 2175 2409 1742 
Q 1991 1309 1228 531 
z
" transform="scale(0.015625)"/>
       </defs>
       <use xlink:href="#DejaVuSans-32"/>
       <use xlink:href="#DejaVuSans-30" x="63.623047"/>
       <use xlink:href="#DejaVuSans-30" x="127.246094"/>
      </g>
     </g>
    </g>
    <g id="xtick_4">
     <g id="line2d_7">
      <path d="M 269.015821 307.584 
L 269.015821 41.472 
" clip-path="url(#p23ff5cf326)" style="fill: none; stroke-dasharray: 2.96,1.28; stroke-dashoffset: 0; stroke: #b0b0b0; stroke-width: 0.8"/>
     </g>
     <g id="line2d_8">
      <g>
       <use xlink:href="#m6ca1751d4f" x="269.015821" y="307.584" style="stroke: #000000; stroke-width: 0.8"/>
      </g>
     </g>
     <g id="text_4">
      <!-- 300 -->
      <g transform="translate(259.472071 322.182437)scale(0.1 -0.1)">
       <defs>
        <path id="DejaVuSans-33" d="M 2597 2516 
Q 3050 2419 3304 2112 
Q 3559 1806 3559 1356 
Q 3559 666 3084 287 
Q 2609 -91 1734 -91 
Q 1441 -91 1130 -33 
Q 819 25 488 141 
L 488 750 
Q 750 597 1062 519 
Q 1375 441 1716 441 
Q 2309 441 2620 675 
Q 2931 909 2931 1356 
Q 2931 1769 2642 2001 
Q 2353 2234 1838 2234 
L 1294 2234 
L 1294 2753 
L 1863 2753 
Q 2328 2753 2575 2939 
Q 2822 3125 2822 3475 
Q 2822 3834 2567 4026 
Q 2313 4219 1838 4219 
Q 1578 4219 1281 4162 
Q 984 4106 628 3988 
L 628 4550 
Q 988 4650 1302 4700 
Q 1616 4750 1894 4750 
Q 2613 4750 3031 4423 
Q 3450 4097 3450 3541 
Q 3450 3153 3228 2886 
Q 3006 2619 2597 2516 
z
" transform="scale(0.015625)"/>
       </defs>
       <use xlink:href="#DejaVuSans-33"/>
       <use xlink:href="#DejaVuSans-30" x="63.623047"/>
       <use xlink:href="#DejaVuSans-30" x="127.246094"/>
      </g>
     </g>
    </g>
    <g id="xtick_5">
     <g id="line2d_9">
      <path d="M 334.076852 307.584 
L 334.076852 41.472 
" clip-path="url(#p23ff5cf326)" style="fill: none; stroke-dasharray: 2.96,1.28; stroke-dashoffset: 0; stroke: #b0b0b0; stroke-width: 0.8"/>
     </g>
     <g id="line2d_10">
      <g>
       <use xlink:href="#m6ca1751d4f" x="334.076852" y="307.584" style="stroke: #000000; stroke-width: 0.8"/>
      </g>
     </g>
     <g id="text_5">
      <!-- 400 -->
      <g transform="translate(324.533102 322.182437)scale(0.1 -0.1)">
       <defs>
        <path id="DejaVuSans-34" d="M 2419 4116 
L 825 1625 
L 2419 1625 
L 2419 4116 
z
M 2253 4666 
L 3047 4666 
L 3047 1625 
L 3713 1625 
L 3713 1100 
L 3047 1100 
L 3047 0 
L 2419 0 
L 2419 1100 
L 313 1100 
L 313 1709 
L 2253 4666 
z
" transform="scale(0.015625)"/>
       </defs>
       <use xlink:href="#DejaVuSans-34"/>
       <use xlink:href="#DejaVuSans-30" x="63.623047"/>
       <use xlink:href="#DejaVuSans-30" x="127.246094"/>
      </g>
     </g>
    </g>
    <g id="xtick_6">
     <g id="line2d_11">
      <path d="M 399.137883 307.584 
L 399.137883 41.472 
" clip-path="url(#p23ff5cf326)" style="fill: none; stroke-dasharray: 2.96,1.28; stroke-dashoffset: 0; stroke: #b0b0b0; stroke-width: 0.8"/>
     </g>
     <g id="line2d_12">
      <g>
       <use xlink:href="#m6ca1751d4f" x="399.137883" y="307.584" style="stroke: #000000; stroke-width: 0.8"/>
      </g>
     </g>
     <g id="text_6">
      <!-- 500 -->
      <g transform="translate(389.594133 322.182437)scale(0.1 -0.1)">
       <defs>
        <path id="DejaVuSans-35" d="M 691 4666 
L 3169 4666 
L 3169 4134 
L 1269 4134 
L 1269 2991 
Q 1406 3038 1543 3061 
Q 1681 3084 1819 3084 
Q 2600 3084 3056 2656 
Q 3513 2228 3513 1497 
Q 3513 744 3044 326 
Q 2575 -91 1722 -91 
Q 1428 -91 1123 -41 
Q 819 9 494 109 
L 494 744 
Q 775 591 1075 516 
Q 1375 441 1709 441 
Q 2250 441 2565 725 
Q 2881 1009 2881 1497 
Q 2881 1984 2565 2268 
Q 2250 2553 1709 2553 
Q 1456 2553 1204 2497 
Q 953 2441 691 2322 
L 691 4666 
z
" transform="scale(0.015625)"/>
       </defs>
       <use xlink:href="#DejaVuSans-35"/>
       <use xlink:href="#DejaVuSans-30" x="63.623047"/>
       <use xlink:href="#DejaVuSans-30" x="127.246094"/>
      </g>
     </g>
    </g>
    <g id="text_7">
     <!-- Episode -->
     <g transform="translate(216.5225 335.860562)scale(0.1 -0.1)">
      <defs>
       <path id="DejaVuSans-45" d="M 628 4666 
L 3578 4666 
L 3578 4134 
L 1259 4134 
L 1259 2753 
L 3481 2753 
L 3481 2222 
L 1259 2222 
L 1259 531 
L 3634 531 
L 3634 0 
L 628 0 
L 628 4666 
z
" transform="scale(0.015625)"/>
       <path id="DejaVuSans-70" d="M 1159 525 
L 1159 -1331 
L 581 -1331 
L 581 3500 
L 1159 3500 
L 1159 2969 
Q 1341 3281 1617 3432 
Q 1894 3584 2278 3584 
Q 2916 3584 3314 3078 
Q 3713 2572 3713 1747 
Q 3713 922 3314 415 
Q 2916 -91 2278 -91 
Q 1894 -91 1617 61 
Q 1341 213 1159 525 
z
M 3116 1747 
Q 3116 2381 2855 2742 
Q 2594 3103 2138 3103 
Q 1681 3103 1420 2742 
Q 1159 2381 1159 1747 
Q 1159 1113 1420 752 
Q 1681 391 2138 391 
Q 2594 391 2855 752 
Q 3116 1113 3116 1747 
z
" transform="scale(0.015625)"/>
       <path id="DejaVuSans-69" d="M 603 3500 
L 1178 3500 
L 1178 0 
L 603 0 
L 603 3500 
z
M 603 4863 
L 1178 4863 
L 1178 4134 
L 603 4134 
L 603 4863 
z
" transform="scale(0.015625)"/>
       <path id="DejaVuSans-73" d="M 2834 3397 
L 2834 2853 
Q 2591 2978 2328 3040 
Q 2066 3103 1784 3103 
Q 1356 3103 1142 2972 
Q 928 2841 928 2578 
Q 928 2378 1081 2264 
Q 1234 2150 1697 2047 
L 1894 2003 
Q 2506 1872 2764 1633 
Q 3022 1394 3022 966 
Q 3022 478 2636 193 
Q 2250 -91 1575 -91 
Q 1294 -91 989 -36 
Q 684 19 347 128 
L 347 722 
Q 666 556 975 473 
Q 1284 391 1588 391 
Q 1994 391 2212 530 
Q 2431 669 2431 922 
Q 2431 1156 2273 1281 
Q 2116 1406 1581 1522 
L 1381 1569 
Q 847 1681 609 1914 
Q 372 2147 372 2553 
Q 372 3047 722 3315 
Q 1072 3584 1716 3584 
Q 2034 3584 2315 3537 
Q 2597 3491 2834 3397 
z
" transform="scale(0.015625)"/>
       <path id="DejaVuSans-6f" d="M 1959 3097 
Q 1497 3097 1228 2736 
Q 959 2375 959 1747 
Q 959 1119 1226 758 
Q 1494 397 1959 397 
Q 2419 397 2687 759 
Q 2956 1122 2956 1747 
Q 2956 2369 2687 2733 
Q 2419 3097 1959 3097 
z
M 1959 3584 
Q 2709 3584 3137 3096 
Q 3566 2609 3566 1747 
Q 3566 888 3137 398 
Q 2709 -91 1959 -91 
Q 1206 -91 779 398 
Q 353 888 353 1747 
Q 353 2609 779 3096 
Q 1206 3584 1959 3584 
z
" transform="scale(0.015625)"/>
       <path id="DejaVuSans-64" d="M 2906 2969 
L 2906 4863 
L 3481 4863 
L 3481 0 
L 2906 0 
L 2906 525 
Q 2725 213 2448 61 
Q 2172 -91 1784 -91 
Q 1150 -91 751 415 
Q 353 922 353 1747 
Q 353 2572 751 3078 
Q 1150 3584 1784 3584 
Q 2172 3584 2448 3432 
Q 2725 3281 2906 2969 
z
M 947 1747 
Q 947 1113 1208 752 
Q 1469 391 1925 391 
Q 2381 391 2643 752 
Q 2906 1113 2906 1747 
Q 2906 2381 2643 2742 
Q 2381 3103 1925 3103 
Q 1469 3103 1208 2742 
Q 947 2381 947 1747 
z
" transform="scale(0.015625)"/>
       <path id="DejaVuSans-65" d="M 3597 1894 
L 3597 1613 
L 953 1613 
Q 991 1019 1311 708 
Q 1631 397 2203 397 
Q 2534 397 2845 478 
Q 3156 559 3463 722 
L 3463 178 
Q 3153 47 2828 -22 
Q 2503 -91 2169 -91 
Q 1331 -91 842 396 
Q 353 884 353 1716 
Q 353 2575 817 3079 
Q 1281 3584 2069 3584 
Q 2775 3584 3186 3129 
Q 3597 2675 3597 1894 
z
M 3022 2063 
Q 3016 2534 2758 2815 
Q 2500 3097 2075 3097 
Q 1594 3097 1305 2825 
Q 1016 2553 972 2059 
L 3022 2063 
z
" transform="scale(0.015625)"/>
      </defs>
      <use xlink:href="#DejaVuSans-45"/>
      <use xlink:href="#DejaVuSans-70" x="63.183594"/>
      <use xlink:href="#DejaVuSans-69" x="126.660156"/>
      <use xlink:href="#DejaVuSans-73" x="154.443359"/>
      <use xlink:href="#DejaVuSans-6f" x="206.542969"/>
      <use xlink:href="#DejaVuSans-64" x="267.724609"/>
      <use xlink:href="#DejaVuSans-65" x="331.201172"/>
     </g>
    </g>
   </g>
   <g id="matplotlib.axis_2">
    <g id="ytick_1">
     <g id="line2d_13">
      <path d="M 57.6 293.332811 
L 414.72 293.332811 
" clip-path="url(#p23ff5cf326)" style="fill: none; stroke-dasharray: 2.96,1.28; stroke-dashoffset: 0; stroke: #b0b0b0; stroke-width: 0.8"/>
     </g>
     <g id="line2d_14">
      <defs>
       <path id="m41c2274b53" d="M 0 0 
L -3.5 0 
" style="stroke: #000000; stroke-width: 0.8"/>
      </defs>
      <g>
       <use xlink:href="#m41c2274b53" x="57.6" y="293.332811" style="stroke: #000000; stroke-width: 0.8"/>
      </g>
     </g>
     <g id="text_8">
      <!-- 150 -->
      <g transform="translate(31.5125 297.132029)scale(0.1 -0.1)">
       <use xlink:href="#DejaVuSans-31"/>
       <use xlink:href="#DejaVuSans-35" x="63.623047"/>
       <use xlink:href="#DejaVuSans-30" x="127.246094"/>
      </g>
     </g>
    </g>
    <g id="ytick_2">
     <g id="line2d_15">
      <path d="M 57.6 239.453078 
L 414.72 239.453078 
" clip-path="url(#p23ff5cf326)" style="fill: none; stroke-dasharray: 2.96,1.28; stroke-dashoffset: 0; stroke: #b0b0b0; stroke-width: 0.8"/>
     </g>
     <g id="line2d_16">
      <g>
       <use xlink:href="#m41c2274b53" x="57.6" y="239.453078" style="stroke: #000000; stroke-width: 0.8"/>
      </g>
     </g>
     <g id="text_9">
      <!-- 200 -->
      <g transform="translate(31.5125 243.252297)scale(0.1 -0.1)">
       <use xlink:href="#DejaVuSans-32"/>
       <use xlink:href="#DejaVuSans-30" x="63.623047"/>
       <use xlink:href="#DejaVuSans-30" x="127.246094"/>
      </g>
     </g>
    </g>
    <g id="ytick_3">
     <g id="line2d_17">
      <path d="M 57.6 185.573345 
L 414.72 185.573345 
" clip-path="url(#p23ff5cf326)" style="fill: none; stroke-dasharray: 2.96,1.28; stroke-dashoffset: 0; stroke: #b0b0b0; stroke-width: 0.8"/>
     </g>
     <g id="line2d_18">
      <g>
       <use xlink:href="#m41c2274b53" x="57.6" y="185.573345" style="stroke: #000000; stroke-width: 0.8"/>
      </g>
     </g>
     <g id="text_10">
      <!-- 250 -->
      <g transform="translate(31.5125 189.372564)scale(0.1 -0.1)">
       <use xlink:href="#DejaVuSans-32"/>
       <use xlink:href="#DejaVuSans-35" x="63.623047"/>
       <use xlink:href="#DejaVuSans-30" x="127.246094"/>
      </g>
     </g>
    </g>
    <g id="ytick_4">
     <g id="line2d_19">
      <path d="M 57.6 131.693612 
L 414.72 131.693612 
" clip-path="url(#p23ff5cf326)" style="fill: none; stroke-dasharray: 2.96,1.28; stroke-dashoffset: 0; stroke: #b0b0b0; stroke-width: 0.8"/>
     </g>
     <g id="line2d_20">
      <g>
       <use xlink:href="#m41c2274b53" x="57.6" y="131.693612" style="stroke: #000000; stroke-width: 0.8"/>
      </g>
     </g>
     <g id="text_11">
      <!-- 300 -->
      <g transform="translate(31.5125 135.492831)scale(0.1 -0.1)">
       <use xlink:href="#DejaVuSans-33"/>
       <use xlink:href="#DejaVuSans-30" x="63.623047"/>
       <use xlink:href="#DejaVuSans-30" x="127.246094"/>
      </g>
     </g>
    </g>
    <g id="ytick_5">
     <g id="line2d_21">
      <path d="M 57.6 77.81388 
L 414.72 77.81388 
" clip-path="url(#p23ff5cf326)" style="fill: none; stroke-dasharray: 2.96,1.28; stroke-dashoffset: 0; stroke: #b0b0b0; stroke-width: 0.8"/>
     </g>
     <g id="line2d_22">
      <g>
       <use xlink:href="#m41c2274b53" x="57.6" y="77.81388" style="stroke: #000000; stroke-width: 0.8"/>
      </g>
     </g>
     <g id="text_12">
      <!-- 350 -->
      <g transform="translate(31.5125 81.613098)scale(0.1 -0.1)">
       <use xlink:href="#DejaVuSans-33"/>
       <use xlink:href="#DejaVuSans-35" x="63.623047"/>
       <use xlink:href="#DejaVuSans-30" x="127.246094"/>
      </g>
     </g>
    </g>
    <g id="text_13">
     <!-- customer/purchases_new -->
     <g transform="translate(25.154687 238.145187)rotate(-90)scale(0.1 -0.1)">
      <defs>
       <path id="DejaVuSans-63" d="M 3122 3366 
L 3122 2828 
Q 2878 2963 2633 3030 
Q 2388 3097 2138 3097 
Q 1578 3097 1268 2742 
Q 959 2388 959 1747 
Q 959 1106 1268 751 
Q 1578 397 2138 397 
Q 2388 397 2633 464 
Q 2878 531 3122 666 
L 3122 134 
Q 2881 22 2623 -34 
Q 2366 -91 2075 -91 
Q 1284 -91 818 406 
Q 353 903 353 1747 
Q 353 2603 823 3093 
Q 1294 3584 2113 3584 
Q 2378 3584 2631 3529 
Q 2884 3475 3122 3366 
z
" transform="scale(0.015625)"/>
       <path id="DejaVuSans-75" d="M 544 1381 
L 544 3500 
L 1119 3500 
L 1119 1403 
Q 1119 906 1312 657 
Q 1506 409 1894 409 
Q 2359 409 2629 706 
Q 2900 1003 2900 1516 
L 2900 3500 
L 3475 3500 
L 3475 0 
L 2900 0 
L 2900 538 
Q 2691 219 2414 64 
Q 2138 -91 1772 -91 
Q 1169 -91 856 284 
Q 544 659 544 1381 
z
M 1991 3584 
L 1991 3584 
z
" transform="scale(0.015625)"/>
       <path id="DejaVuSans-74" d="M 1172 4494 
L 1172 3500 
L 2356 3500 
L 2356 3053 
L 1172 3053 
L 1172 1153 
Q 1172 725 1289 603 
Q 1406 481 1766 481 
L 2356 481 
L 2356 0 
L 1766 0 
Q 1100 0 847 248 
Q 594 497 594 1153 
L 594 3053 
L 172 3053 
L 172 3500 
L 594 3500 
L 594 4494 
L 1172 4494 
z
" transform="scale(0.015625)"/>
       <path id="DejaVuSans-6d" d="M 3328 2828 
Q 3544 3216 3844 3400 
Q 4144 3584 4550 3584 
Q 5097 3584 5394 3201 
Q 5691 2819 5691 2113 
L 5691 0 
L 5113 0 
L 5113 2094 
Q 5113 2597 4934 2840 
Q 4756 3084 4391 3084 
Q 3944 3084 3684 2787 
Q 3425 2491 3425 1978 
L 3425 0 
L 2847 0 
L 2847 2094 
Q 2847 2600 2669 2842 
Q 2491 3084 2119 3084 
Q 1678 3084 1418 2786 
Q 1159 2488 1159 1978 
L 1159 0 
L 581 0 
L 581 3500 
L 1159 3500 
L 1159 2956 
Q 1356 3278 1631 3431 
Q 1906 3584 2284 3584 
Q 2666 3584 2933 3390 
Q 3200 3197 3328 2828 
z
" transform="scale(0.015625)"/>
       <path id="DejaVuSans-72" d="M 2631 2963 
Q 2534 3019 2420 3045 
Q 2306 3072 2169 3072 
Q 1681 3072 1420 2755 
Q 1159 2438 1159 1844 
L 1159 0 
L 581 0 
L 581 3500 
L 1159 3500 
L 1159 2956 
Q 1341 3275 1631 3429 
Q 1922 3584 2338 3584 
Q 2397 3584 2469 3576 
Q 2541 3569 2628 3553 
L 2631 2963 
z
" transform="scale(0.015625)"/>
       <path id="DejaVuSans-2f" d="M 1625 4666 
L 2156 4666 
L 531 -594 
L 0 -594 
L 1625 4666 
z
" transform="scale(0.015625)"/>
       <path id="DejaVuSans-68" d="M 3513 2113 
L 3513 0 
L 2938 0 
L 2938 2094 
Q 2938 2591 2744 2837 
Q 2550 3084 2163 3084 
Q 1697 3084 1428 2787 
Q 1159 2491 1159 1978 
L 1159 0 
L 581 0 
L 581 4863 
L 1159 4863 
L 1159 2956 
Q 1366 3272 1645 3428 
Q 1925 3584 2291 3584 
Q 2894 3584 3203 3211 
Q 3513 2838 3513 2113 
z
" transform="scale(0.015625)"/>
       <path id="DejaVuSans-61" d="M 2194 1759 
Q 1497 1759 1228 1600 
Q 959 1441 959 1056 
Q 959 750 1161 570 
Q 1363 391 1709 391 
Q 2188 391 2477 730 
Q 2766 1069 2766 1631 
L 2766 1759 
L 2194 1759 
z
M 3341 1997 
L 3341 0 
L 2766 0 
L 2766 531 
Q 2569 213 2275 61 
Q 1981 -91 1556 -91 
Q 1019 -91 701 211 
Q 384 513 384 1019 
Q 384 1609 779 1909 
Q 1175 2209 1959 2209 
L 2766 2209 
L 2766 2266 
Q 2766 2663 2505 2880 
Q 2244 3097 1772 3097 
Q 1472 3097 1187 3025 
Q 903 2953 641 2809 
L 641 3341 
Q 956 3463 1253 3523 
Q 1550 3584 1831 3584 
Q 2591 3584 2966 3190 
Q 3341 2797 3341 1997 
z
" transform="scale(0.015625)"/>
       <path id="DejaVuSans-5f" d="M 3263 -1063 
L 3263 -1509 
L -63 -1509 
L -63 -1063 
L 3263 -1063 
z
" transform="scale(0.015625)"/>
       <path id="DejaVuSans-6e" d="M 3513 2113 
L 3513 0 
L 2938 0 
L 2938 2094 
Q 2938 2591 2744 2837 
Q 2550 3084 2163 3084 
Q 1697 3084 1428 2787 
Q 1159 2491 1159 1978 
L 1159 0 
L 581 0 
L 581 3500 
L 1159 3500 
L 1159 2956 
Q 1366 3272 1645 3428 
Q 1925 3584 2291 3584 
Q 2894 3584 3203 3211 
Q 3513 2838 3513 2113 
z
" transform="scale(0.015625)"/>
       <path id="DejaVuSans-77" d="M 269 3500 
L 844 3500 
L 1563 769 
L 2278 3500 
L 2956 3500 
L 3675 769 
L 4391 3500 
L 4966 3500 
L 4050 0 
L 3372 0 
L 2619 2869 
L 1863 0 
L 1184 0 
L 269 3500 
z
" transform="scale(0.015625)"/>
      </defs>
      <use xlink:href="#DejaVuSans-63"/>
      <use xlink:href="#DejaVuSans-75" x="54.980469"/>
      <use xlink:href="#DejaVuSans-73" x="118.359375"/>
      <use xlink:href="#DejaVuSans-74" x="170.458984"/>
      <use xlink:href="#DejaVuSans-6f" x="209.667969"/>
      <use xlink:href="#DejaVuSans-6d" x="270.849609"/>
      <use xlink:href="#DejaVuSans-65" x="368.261719"/>
      <use xlink:href="#DejaVuSans-72" x="429.785156"/>
      <use xlink:href="#DejaVuSans-2f" x="470.898438"/>
      <use xlink:href="#DejaVuSans-70" x="504.589844"/>
      <use xlink:href="#DejaVuSans-75" x="568.066406"/>
      <use xlink:href="#DejaVuSans-72" x="631.445312"/>
      <use xlink:href="#DejaVuSans-63" x="670.308594"/>
      <use xlink:href="#DejaVuSans-68" x="725.289062"/>
      <use xlink:href="#DejaVuSans-61" x="788.667969"/>
      <use xlink:href="#DejaVuSans-73" x="849.947266"/>
      <use xlink:href="#DejaVuSans-65" x="902.046875"/>
      <use xlink:href="#DejaVuSans-73" x="963.570312"/>
      <use xlink:href="#DejaVuSans-5f" x="1015.669922"/>
      <use xlink:href="#DejaVuSans-6e" x="1065.669922"/>
      <use xlink:href="#DejaVuSans-65" x="1129.048828"/>
      <use xlink:href="#DejaVuSans-77" x="1190.572266"/>
     </g>
    </g>
   </g>
   <g id="line2d_23">
    <path d="M 73.832727 295.488 
L 74.483338 268.009336 
L 75.133948 259.927376 
L 75.784558 243.763457 
L 76.435169 251.522138 
L 77.085779 247.894236 
L 77.736389 257.310361 
L 78.386999 260.466174 
L 79.03761 272.259849 
L 79.68822 278.138726 
L 80.33883 281.969085 
L 80.989441 280.671073 
L 81.640051 280.650351 
L 82.290661 285.019938 
L 82.941272 287.226441 
L 83.591882 290.369425 
L 84.242492 288.832268 
L 84.893103 285.849514 
L 85.543713 285.959795 
L 86.194323 287.298281 
L 86.844934 284.763367 
L 87.495544 285.446777 
L 88.146154 287.897985 
L 88.796764 287.45094 
L 89.447375 287.815526 
L 90.097985 289.188216 
L 91.399206 284.942967 
L 92.049816 283.708776 
L 92.700426 283.49078 
L 93.351037 285.302992 
L 94.001647 284.712053 
L 94.652257 283.242606 
L 95.302868 283.507683 
L 95.953478 284.619688 
L 96.604088 284.652187 
L 97.254698 285.614903 
L 97.905309 285.080704 
L 98.555919 283.137107 
L 99.206529 281.775608 
L 99.85714 281.269007 
L 100.50775 281.120071 
L 101.15836 280.552037 
L 101.808971 280.205749 
L 102.459581 281.33559 
L 103.110191 280.846768 
L 103.760802 280.791443 
L 104.411412 281.120071 
L 105.062022 280.885493 
L 105.712633 279.927533 
L 106.363243 280.169252 
L 107.013853 279.904323 
L 107.664463 280.198355 
L 108.965684 280.009822 
L 109.616294 278.881497 
L 110.266905 278.586779 
L 110.917515 278.915337 
L 111.568125 278.977058 
L 112.869346 280.172024 
L 113.519956 281.062136 
L 114.170567 281.154281 
L 114.821177 281.496107 
L 115.471787 281.993199 
L 116.122398 281.871122 
L 116.773008 282.235194 
L 117.423618 281.859597 
L 118.074228 281.932172 
L 118.724839 281.386904 
L 119.375449 281.661398 
L 120.026059 281.34457 
L 121.97789 281.709156 
L 122.628501 281.422554 
L 123.279111 282.067048 
L 124.580332 281.642955 
L 125.230942 280.698013 
L 125.881552 281.479269 
L 126.532163 280.8222 
L 127.833383 280.594102 
L 129.785214 279.955774 
L 130.435824 280.009822 
L 131.737045 279.407893 
L 132.387655 279.774065 
L 133.038266 279.757461 
L 133.688876 279.497886 
L 134.990097 280.186156 
L 135.640707 280.401675 
L 136.291317 280.734952 
L 136.941927 280.588605 
L 138.243148 280.638746 
L 138.893758 279.910889 
L 139.544369 279.366757 
L 140.194979 280.455021 
L 140.845589 280.46569 
L 141.4962 281.703324 
L 142.79742 281.703324 
L 143.448031 281.020492 
L 144.098641 281.052499 
L 144.749251 280.348329 
L 145.399862 279.47345 
L 146.701082 279.089357 
L 147.351692 279.153372 
L 148.652913 278.865302 
L 149.303523 278.406524 
L 149.954134 278.598571 
L 150.604744 278.993333 
L 151.255354 279.03601 
L 151.905965 278.139793 
L 152.556575 278.651917 
L 153.207185 278.427863 
L 154.508406 277.094206 
L 155.159016 276.923498 
L 155.809627 275.835234 
L 156.460237 276.080627 
L 157.110847 276.155312 
L 157.761457 276.582082 
L 158.412068 276.144642 
L 159.062678 274.981694 
L 159.713288 275.685865 
L 160.363899 276.101965 
L 161.014509 276.016611 
L 161.665119 275.557834 
L 162.31573 275.312441 
L 162.96634 274.661616 
L 163.61695 274.629608 
L 164.267561 275.685865 
L 164.918171 275.931257 
L 166.219392 276.966175 
L 166.870002 277.158222 
L 167.520612 276.955506 
L 168.171222 275.920588 
L 168.821833 276.688774 
L 169.472443 276.251335 
L 170.123053 276.304681 
L 170.773664 276.699444 
L 171.424274 276.816805 
L 172.074884 276.347358 
L 173.376105 275.803226 
L 174.026715 275.141733 
L 174.677326 274.778978 
L 175.327936 275.237756 
L 175.978546 276.229997 
L 176.629156 275.429802 
L 177.279767 274.864332 
L 177.930377 274.789647 
L 178.580987 274.512247 
L 179.231598 273.562683 
L 179.882208 273.146582 
L 180.532818 273.530675 
L 181.183429 272.815835 
L 183.13526 272.506427 
L 183.78587 272.068987 
L 184.43648 273.093236 
L 185.087091 272.303711 
L 185.737701 272.431742 
L 186.388311 272.943866 
L 187.038921 272.943866 
L 187.689532 272.197019 
L 188.340142 272.89052 
L 188.990752 272.570442 
L 190.291973 272.250365 
L 190.942583 273.584022 
L 191.593194 273.498667 
L 192.243804 274.192169 
L 192.894414 274.1815 
L 193.545025 274.661616 
L 194.195635 274.917678 
L 194.846245 274.800316 
L 195.496856 275.568503 
L 196.147466 276.091296 
L 196.798076 276.272674 
L 198.099297 275.515156 
L 198.749907 275.867242 
L 199.400517 275.707203 
L 200.051128 274.960355 
L 201.352348 274.714962 
L 202.002959 274.437562 
L 202.653569 274.576262 
L 203.304179 274.512247 
L 203.95479 274.757639 
L 204.6054 275.781888 
L 205.25601 276.443382 
L 205.906621 275.995273 
L 206.557231 276.923498 
L 207.207841 276.091296 
L 207.858451 275.877911 
L 208.509062 276.379366 
L 209.159672 277.190229 
L 210.460893 276.582082 
L 211.111503 276.475389 
L 212.412724 277.371607 
L 213.063334 277.030191 
L 213.713944 275.952596 
L 214.364555 275.568503 
L 215.665775 276.03795 
L 216.316385 276.059288 
L 216.966996 276.379366 
L 217.617606 276.187319 
L 218.268216 276.774128 
L 218.918827 276.208658 
L 219.569437 276.507397 
L 220.220047 277.937077 
L 220.870658 278.630579 
L 221.521268 279.526796 
L 222.822489 280.871122 
L 223.473099 281.095176 
L 224.77432 282.396825 
L 225.42493 282.204779 
L 226.07554 281.884701 
L 226.72615 281.778009 
L 227.376761 281.90604 
L 229.979202 280.945807 
L 230.629812 280.913799 
L 231.280423 280.508367 
L 231.931033 279.932228 
L 232.581643 280.060259 
L 233.232254 280.967145 
L 233.882864 281.148523 
L 234.533474 280.924468 
L 235.184085 281.201869 
L 235.834695 281.04183 
L 236.485305 280.145613 
L 237.135915 280.775099 
L 237.786526 281.61797 
L 239.087746 281.810016 
L 239.738357 282.940957 
L 240.388967 283.47442 
L 241.039577 283.666467 
L 241.690188 283.036981 
L 242.991408 284.007883 
L 243.642019 283.47442 
L 244.292629 283.367727 
L 245.59385 284.968116 
L 246.24446 284.199929 
L 246.89507 284.071898 
L 247.54568 284.690715 
L 248.196291 285.064139 
L 248.846901 285.266855 
L 249.497511 285.245516 
L 250.148122 285.501578 
L 251.449342 286.48315 
L 252.099953 285.533586 
L 253.401173 286.109726 
L 254.051784 285.75764 
L 254.702394 284.648038 
L 256.003615 285.032131 
L 257.304835 284.135914 
L 257.955445 284.445322 
L 258.606056 284.562684 
L 259.907276 285.074808 
L 260.557887 284.9041 
L 261.208497 284.061229 
L 261.859107 283.549105 
L 262.509718 283.954536 
L 263.160328 285.266855 
L 264.461549 285.629609 
L 265.112159 285.939018 
L 265.762769 286.493819 
L 266.413379 286.824566 
L 267.7146 286.312442 
L 268.36521 286.301772 
L 270.967652 284.968116 
L 271.618262 284.786738 
L 272.268872 284.231937 
L 272.919483 285.298862 
L 273.570093 286.013702 
L 274.220703 285.939018 
L 274.871314 285.544255 
L 275.521924 285.576263 
L 276.172534 285.309532 
L 276.823144 285.682956 
L 277.473755 285.309532 
L 278.124365 285.565594 
L 279.425586 285.576263 
L 280.076196 286.504488 
L 280.726806 286.365788 
L 281.377417 286.099056 
L 282.028027 286.429803 
L 282.678637 285.746971 
L 283.329248 286.792558 
L 283.979858 285.714963 
L 284.630468 286.504488 
L 285.281079 286.536496 
L 287.232909 285.928348 
L 287.88352 285.800317 
L 289.18474 284.61603 
L 289.835351 284.818746 
L 290.485961 284.285283 
L 291.136571 284.274614 
L 291.787182 285.128154 
L 292.437792 284.989454 
L 293.088402 285.501578 
L 293.739013 286.344449 
L 294.389623 286.451142 
L 295.040233 286.365788 
L 295.690844 286.696535 
L 296.992064 285.800317 
L 298.293285 285.533586 
L 298.943895 285.19217 
L 299.594505 285.565594 
L 300.245116 284.722723 
L 300.895726 285.661617 
L 301.546336 286.120395 
L 302.847557 286.216418 
L 303.498167 285.704294 
L 304.148778 285.640279 
L 304.799388 285.224178 
L 305.449998 284.946777 
L 306.100608 284.498668 
L 306.751219 284.349299 
L 308.052439 283.730482 
L 308.70305 283.410404 
L 310.00427 283.229027 
L 310.654881 282.834265 
L 311.956101 283.154342 
L 312.606712 283.47442 
L 313.257322 283.004973 
L 315.209153 283.367727 
L 315.859763 282.226117 
L 316.510373 282.599541 
L 317.160984 282.503518 
L 317.811594 282.770249 
L 318.462204 282.642218 
L 319.112815 283.357058 
L 319.763425 282.919619 
L 320.414035 284.093237 
L 321.064646 283.634459 
L 321.715256 283.453081 
L 322.365866 282.930288 
L 323.016477 283.111665 
L 323.667087 282.450172 
L 324.317697 282.770249 
L 324.968308 282.279464 
L 325.618918 282.055409 
L 326.269528 282.791588 
L 326.920138 282.930288 
L 327.570749 282.844934 
L 328.221359 282.962296 
L 328.871969 282.300802 
L 329.52258 282.322141 
L 330.17319 281.863363 
L 331.474411 282.460841 
L 332.125021 281.479269 
L 332.775631 281.265884 
L 333.426242 281.927378 
L 334.076852 282.215448 
L 336.028683 282.268794 
L 337.980514 282.439502 
L 339.281734 282.076748 
L 339.932345 282.055409 
L 340.582955 281.596631 
L 341.233565 282.012732 
L 341.884176 282.247456 
L 342.534786 282.140763 
L 343.185396 281.479269 
L 343.836007 281.500608 
L 344.486617 281.778009 
L 345.137227 282.983634 
L 345.787837 282.19411 
L 346.438448 281.746001 
L 347.089058 281.511277 
L 347.739668 280.999153 
L 348.390279 281.073838 
L 349.040889 280.785768 
L 349.691499 281.447262 
L 350.34211 280.828445 
L 350.99272 280.775099 
L 352.293941 279.633489 
L 352.944551 279.441442 
L 353.595161 279.366757 
L 354.245772 279.75085 
L 355.546992 279.441442 
L 356.197602 279.740181 
L 357.498823 278.417194 
L 358.149433 278.47054 
L 358.800044 278.086447 
L 359.450654 278.0331 
L 360.101264 278.619909 
L 360.751875 278.726602 
L 361.402485 278.33184 
L 363.354316 279.516127 
L 364.004926 279.377426 
L 364.655537 279.910889 
L 365.306147 280.657737 
L 365.956757 281.105846 
L 366.607367 280.444352 
L 367.257978 279.590812 
L 367.908588 280.070928 
L 369.209809 279.32408 
L 369.860419 279.857543 
L 370.511029 280.583052 
L 371.16164 279.90022 
L 371.81225 280.316321 
L 372.46286 280.380336 
L 373.113471 280.881791 
L 373.764081 281.959386 
L 375.065302 282.343479 
L 375.715912 282.855603 
L 376.366522 282.802257 
L 377.017132 281.89537 
L 378.318353 281.201869 
L 378.968963 280.540375 
L 379.619574 280.070928 
L 380.270184 280.593721 
L 380.920794 280.764429 
L 382.222015 280.198959 
L 382.872625 279.345419 
L 383.523236 279.217388 
L 384.173846 279.601481 
L 384.824456 279.398765 
L 386.125677 279.526796 
L 386.776287 279.708173 
L 387.426897 280.412344 
L 388.077508 280.636398 
L 388.728118 280.401675 
L 389.378728 280.90313 
L 390.029339 279.985574 
L 390.679949 280.145613 
L 391.330559 279.814866 
L 391.98117 279.996243 
L 392.63178 279.889551 
L 393.28239 279.921558 
L 393.933001 278.971995 
L 395.234221 278.715933 
L 397.186052 277.083537 
L 397.836662 277.435622 
L 398.487273 277.307591 
L 398.487273 277.307591 
" clip-path="url(#p23ff5cf326)" style="fill: none; stroke: #1f77b4; stroke-width: 1.5; stroke-linecap: square"/>
   </g>
   <g id="line2d_24">
    <path d="M 73.832727 145.702343 
L 74.483338 85.357042 
L 75.133948 63.086753 
L 75.784558 53.568 
L 76.435169 71.348312 
L 77.085779 70.629915 
L 77.736389 78.737532 
L 78.386999 88.993924 
L 79.03761 104.993212 
L 79.68822 116.06849 
L 80.33883 123.366745 
L 80.989441 120.289069 
L 81.640051 118.596693 
L 82.290661 126.767465 
L 82.941272 129.107385 
L 83.591882 134.926396 
L 84.242492 130.172302 
L 84.893103 127.323367 
L 85.543713 127.610096 
L 86.194323 130.669898 
L 86.844934 128.3582 
L 87.495544 132.085465 
L 88.146154 134.129913 
L 88.796764 133.848802 
L 89.447375 131.219471 
L 90.097985 133.061329 
L 90.748595 128.780116 
L 91.399206 127.768089 
L 92.049816 124.596351 
L 93.351037 129.503662 
L 94.001647 130.818067 
L 94.652257 127.219962 
L 95.302868 126.654273 
L 95.953478 127.937425 
L 96.604088 128.041764 
L 97.254698 129.159809 
L 97.905309 128.914553 
L 98.555919 127.880585 
L 99.206529 127.895091 
L 99.85714 127.540931 
L 100.50775 125.920784 
L 101.15836 125.152864 
L 101.808971 123.611653 
L 102.459581 125.874601 
L 103.110191 124.923507 
L 103.760802 125.64074 
L 104.411412 125.721942 
L 105.062022 124.700243 
L 105.712633 123.913379 
L 106.363243 124.129321 
L 107.013853 123.135024 
L 107.664463 124.109786 
L 108.315074 122.773523 
L 108.965684 122.681003 
L 109.616294 121.417978 
L 110.266905 121.068907 
L 110.917515 122.664112 
L 111.568125 122.890212 
L 112.218736 124.312089 
L 113.519956 126.548967 
L 114.170567 126.630628 
L 114.821177 127.113835 
L 115.471787 127.366655 
L 116.122398 127.089344 
L 116.773008 127.624486 
L 117.423618 127.652633 
L 118.074228 128.117248 
L 118.724839 127.66033 
L 119.375449 127.747491 
L 120.67667 126.674678 
L 121.32728 126.771626 
L 121.97789 126.061384 
L 122.628501 126.107135 
L 123.279111 127.005376 
L 123.929721 126.885882 
L 124.580332 126.496605 
L 125.230942 125.807252 
L 125.881552 127.582788 
L 126.532163 126.634174 
L 127.182773 125.92913 
L 127.833383 126.164526 
L 128.483993 125.735148 
L 129.134604 125.754312 
L 129.785214 125.636787 
L 130.435824 125.705615 
L 131.086435 125.397554 
L 131.737045 124.785033 
L 132.387655 125.33462 
L 133.038266 125.239758 
L 133.688876 124.961543 
L 134.339486 125.617813 
L 134.990097 125.568338 
L 135.640707 126.137265 
L 136.291317 125.972363 
L 137.592538 125.097427 
L 138.243148 125.335804 
L 138.893758 124.310489 
L 139.544369 123.841042 
L 140.194979 125.836192 
L 140.845589 126.401662 
L 141.4962 128.279451 
L 142.14681 128.279451 
L 142.79742 128.034058 
L 143.448031 128.140751 
L 144.098641 127.308549 
L 144.749251 126.252293 
L 145.399862 124.694582 
L 146.050472 123.979742 
L 146.701082 124.299819 
L 147.351692 124.353166 
L 148.652913 123.681003 
L 149.303523 123.072855 
L 149.954134 123.403602 
L 150.604744 124.097104 
L 151.255354 124.321158 
L 151.905965 123.691672 
L 152.556575 124.161119 
L 153.207185 123.190217 
L 153.857796 122.507385 
L 154.508406 121.483136 
L 155.159016 122.240653 
L 155.809627 120.928335 
L 156.460237 121.653844 
L 157.110847 121.557821 
L 157.761457 122.85947 
L 159.062678 119.786725 
L 159.713288 120.085464 
L 160.363899 121.067035 
L 161.014509 121.461798 
L 161.665119 120.810973 
L 162.31573 120.352195 
L 162.96634 119.616017 
L 163.61695 119.616017 
L 164.267561 120.053456 
L 164.918171 119.43464 
L 165.568781 120.128141 
L 166.219392 121.685852 
L 166.870002 122.240653 
L 167.520612 122.336677 
L 168.171222 120.213495 
L 168.821833 121.15239 
L 169.472443 120.256172 
L 170.123053 121.056366 
L 170.773664 121.248413 
L 171.424274 121.57916 
L 172.074884 121.00302 
L 172.725495 121.131051 
L 173.376105 120.096133 
L 174.677326 119.242593 
L 175.327936 119.637355 
L 175.978546 121.099043 
L 176.629156 119.42397 
L 177.279767 118.474407 
L 178.580987 117.940944 
L 179.231598 116.628626 
L 179.882208 115.796424 
L 180.532818 116.393902 
L 181.183429 115.956463 
L 181.834039 115.871109 
L 183.13526 115.924455 
L 183.78587 115.252292 
L 184.43648 116.329887 
L 185.087091 115.881778 
L 185.737701 116.159179 
L 186.388311 117.236773 
L 187.038921 117.642205 
L 187.689532 117.215435 
L 188.340142 117.42882 
L 188.990752 116.85268 
L 189.641363 116.71398 
L 190.291973 116.735318 
L 190.942583 118.389053 
L 191.593194 117.85559 
L 192.243804 118.730469 
L 193.545025 119.541332 
L 194.195635 119.519994 
L 194.846245 118.954523 
L 196.147466 121.00302 
L 196.798076 121.163059 
L 197.448686 121.109712 
L 198.099297 120.832312 
L 198.749907 121.184397 
L 199.400517 121.29109 
L 200.051128 119.733379 
L 200.701738 119.317278 
L 201.352348 119.402632 
L 202.002959 119.733379 
L 202.653569 119.733379 
L 203.304179 120.661604 
L 203.95479 120.618927 
L 204.6054 122.390023 
L 205.25601 122.880809 
L 205.906621 122.165969 
L 206.557231 123.926396 
L 207.207841 123.232894 
L 207.858451 122.294 
L 209.159672 123.926396 
L 209.810282 124.449189 
L 211.111503 124.075765 
L 211.762113 124.843951 
L 212.412724 124.619897 
L 213.063334 124.683913 
L 213.713944 123.424941 
L 214.364555 123.211556 
L 215.015165 124.278481 
L 215.665775 125.729499 
L 216.316385 125.537453 
L 216.966996 126.390993 
L 217.617606 125.44143 
L 218.268216 126.316308 
L 218.918827 125.804184 
L 219.569437 126.284301 
L 220.220047 128.055397 
L 220.870658 128.791575 
L 221.521268 130.114563 
L 222.171878 130.989442 
L 223.473099 130.455979 
L 224.123709 131.832313 
L 224.77432 132.387114 
L 226.07554 131.842982 
L 226.72615 131.394873 
L 227.376761 131.629597 
L 228.027371 130.818734 
L 229.328592 129.890509 
L 229.979202 129.922516 
L 230.629812 129.773147 
L 231.931033 127.287211 
L 232.581643 127.319218 
L 233.882864 129.570431 
L 235.184085 129.911847 
L 235.834695 129.399723 
L 236.485305 128.503506 
L 237.135915 128.108743 
L 237.786526 129.100984 
L 239.087746 130.071886 
L 239.738357 131.618928 
L 241.039577 132.280421 
L 241.690188 131.16015 
L 242.991408 131.768297 
L 243.642019 130.487987 
L 244.292629 130.221255 
L 244.943239 130.72271 
L 245.59385 131.864321 
L 246.24446 131.096134 
L 246.89507 130.72271 
L 247.54568 131.320189 
L 248.196291 131.480227 
L 248.846901 131.480227 
L 249.497511 131.16015 
L 250.148122 131.917667 
L 250.798732 132.067036 
L 251.449342 133.16597 
L 252.099953 131.864321 
L 252.750563 131.810974 
L 254.051784 131.949675 
L 254.702394 130.797395 
L 255.353004 130.925426 
L 256.003615 130.359956 
L 257.304835 128.01272 
L 257.955445 128.354136 
L 258.606056 128.215436 
L 259.256666 128.802245 
L 259.907276 129.229015 
L 260.557887 128.983622 
L 261.859107 127.084495 
L 262.509718 128.044728 
L 263.160328 129.4424 
L 263.810938 129.410392 
L 264.461549 129.527754 
L 265.112159 129.090314 
L 265.762769 130.178578 
L 266.413379 130.626687 
L 267.06399 129.111653 
L 267.7146 128.567521 
L 268.36521 128.631537 
L 269.015821 127.948704 
L 269.666431 128.215436 
L 270.967652 126.988471 
L 271.618262 126.657725 
L 272.268872 125.068006 
L 272.919483 125.537453 
L 273.570093 126.465678 
L 274.220703 126.028239 
L 274.871314 125.302729 
L 275.521924 124.769267 
L 276.172534 124.449189 
L 276.823144 125.44143 
L 277.473755 124.875959 
L 278.124365 125.612138 
L 278.774975 125.377414 
L 279.425586 124.897298 
L 280.076196 126.198947 
L 281.377417 123.894388 
L 282.028027 124.449189 
L 282.678637 123.414271 
L 283.329248 125.089344 
L 283.979858 123.648995 
L 284.630468 124.673243 
L 285.281079 124.971982 
L 285.931689 125.110683 
L 286.582299 124.513205 
L 287.232909 124.267812 
L 287.88352 124.267812 
L 288.53413 124.385173 
L 289.18474 123.510295 
L 289.835351 123.190217 
L 290.485961 123.104863 
L 291.136571 123.318248 
L 291.787182 124.630566 
L 292.437792 124.555882 
L 293.088402 125.494776 
L 293.739013 127.607288 
L 294.389623 127.735319 
L 295.690844 127.553942 
L 296.341454 127.372565 
L 296.992064 127.884689 
L 297.642674 127.607288 
L 298.293285 126.935125 
L 298.943895 126.967133 
L 299.594505 127.361895 
L 300.245116 126.081585 
L 300.895726 127.72465 
L 301.546336 128.268782 
L 302.196947 129.079645 
L 302.847557 130.114563 
L 304.148778 129.29303 
L 306.751219 128.268782 
L 308.052439 128.087405 
L 309.35366 128.524844 
L 310.00427 128.332797 
L 310.654881 128.258113 
L 311.305491 129.026299 
L 311.956101 129.090314 
L 312.606712 129.591769 
L 313.257322 129.143661 
L 313.907932 129.485077 
L 314.558543 129.666454 
L 315.209153 130.125232 
L 315.859763 128.57819 
L 316.510373 129.090314 
L 317.160984 128.279451 
L 317.811594 128.610198 
L 318.462204 128.759568 
L 319.112815 130.274602 
L 319.763425 129.623777 
L 320.414035 130.466648 
L 321.064646 129.933186 
L 321.715256 130.648026 
L 322.365866 130.349286 
L 323.016477 130.680033 
L 323.667087 129.7198 
L 324.317697 130.349286 
L 324.968308 129.357046 
L 325.618918 129.474408 
L 326.269528 130.253263 
L 326.920138 130.487987 
L 327.570749 130.253263 
L 328.221359 130.498656 
L 328.871969 130.050547 
L 330.17319 129.762477 
L 330.8238 131.064126 
L 331.474411 131.864321 
L 332.125021 130.818734 
L 333.426242 131.693612 
L 334.076852 132.803215 
L 334.727462 132.931246 
L 335.378073 132.035029 
L 336.028683 131.544243 
L 336.679293 131.800305 
L 337.329903 132.291091 
L 337.980514 132.973923 
L 338.631124 132.568491 
L 339.281734 133.283331 
L 339.932345 133.475378 
L 340.582955 132.312429 
L 341.233565 133.059277 
L 341.884176 132.920577 
L 342.534786 132.653845 
L 343.185396 131.362866 
L 343.836007 131.757628 
L 344.486617 132.003021 
L 345.137227 133.827463 
L 345.787837 133.080615 
L 346.438448 133.048608 
L 347.089058 132.739199 
L 347.739668 131.522904 
L 349.040889 130.840072 
L 349.691499 131.885659 
L 350.99272 131.106804 
L 351.64333 129.666454 
L 352.293941 129.357046 
L 352.944551 128.86626 
L 354.245772 129.453069 
L 354.896382 129.4424 
L 355.546992 129.911847 
L 356.197602 130.093224 
L 356.848213 128.610198 
L 357.498823 127.404572 
L 358.149433 127.991381 
L 358.800044 126.945794 
L 359.450654 126.711071 
L 360.101264 127.137841 
L 360.751875 126.945794 
L 361.402485 126.465678 
L 362.053095 126.796425 
L 362.703706 127.265872 
L 363.354316 128.514175 
L 364.004926 128.599529 
L 364.655537 128.567521 
L 365.306147 129.271692 
L 365.956757 129.261023 
L 366.607367 128.322128 
L 367.257978 126.668394 
L 367.908588 127.500596 
L 369.209809 126.476347 
L 369.860419 126.636386 
L 370.511029 127.479257 
L 371.16164 127.052487 
L 371.81225 127.14851 
L 373.113471 128.183428 
L 373.764081 129.591769 
L 375.065302 129.367715 
L 375.715912 129.506415 
L 376.366522 129.86917 
L 377.017132 128.034058 
L 377.667743 126.988471 
L 378.318353 126.839102 
L 378.968963 125.996231 
L 379.619574 125.473437 
L 380.270184 126.230954 
L 380.920794 126.390993 
L 382.222015 124.971982 
L 382.872625 124.043757 
L 383.523236 124.257142 
L 384.173846 125.249383 
L 384.824456 124.641236 
L 385.475066 123.777026 
L 386.125677 124.449189 
L 386.776287 124.843951 
L 387.426897 125.452099 
L 388.077508 125.644145 
L 388.728118 125.249383 
L 389.378728 125.932215 
L 390.029339 124.86529 
L 391.98117 124.86529 
L 392.63178 124.72659 
L 393.28239 124.854621 
L 393.933001 122.85947 
L 394.583611 122.411361 
L 395.234221 122.368684 
L 395.884831 121.536483 
L 396.535442 120.14948 
L 397.186052 119.221255 
L 397.836662 120.597588 
L 398.487273 120.256172 
L 398.487273 120.256172 
" clip-path="url(#p23ff5cf326)" style="fill: none; stroke: #ff7f0e; stroke-width: 1.5; stroke-linecap: square"/>
   </g>
   <g id="patch_3">
    <path d="M 57.6 307.584 
L 57.6 41.472 
" style="fill: none; stroke: #000000; stroke-width: 0.8; stroke-linejoin: miter; stroke-linecap: square"/>
   </g>
   <g id="patch_4">
    <path d="M 414.72 307.584 
L 414.72 41.472 
" style="fill: none; stroke: #000000; stroke-width: 0.8; stroke-linejoin: miter; stroke-linecap: square"/>
   </g>
   <g id="patch_5">
    <path d="M 57.6 307.584 
L 414.72 307.584 
" style="fill: none; stroke: #000000; stroke-width: 0.8; stroke-linejoin: miter; stroke-linecap: square"/>
   </g>
   <g id="patch_6">
    <path d="M 57.6 41.472 
L 414.72 41.472 
" style="fill: none; stroke: #000000; stroke-width: 0.8; stroke-linejoin: miter; stroke-linecap: square"/>
   </g>
   <g id="text_14">
    <!-- Rolling average monitoring progress of customer/purchases_new -->
    <g transform="translate(41.105625 35.472)scale(0.12 -0.12)">
     <defs>
      <path id="DejaVuSans-52" d="M 2841 2188 
Q 3044 2119 3236 1894 
Q 3428 1669 3622 1275 
L 4263 0 
L 3584 0 
L 2988 1197 
Q 2756 1666 2539 1819 
Q 2322 1972 1947 1972 
L 1259 1972 
L 1259 0 
L 628 0 
L 628 4666 
L 2053 4666 
Q 2853 4666 3247 4331 
Q 3641 3997 3641 3322 
Q 3641 2881 3436 2590 
Q 3231 2300 2841 2188 
z
M 1259 4147 
L 1259 2491 
L 2053 2491 
Q 2509 2491 2742 2702 
Q 2975 2913 2975 3322 
Q 2975 3731 2742 3939 
Q 2509 4147 2053 4147 
L 1259 4147 
z
" transform="scale(0.015625)"/>
      <path id="DejaVuSans-6c" d="M 603 4863 
L 1178 4863 
L 1178 0 
L 603 0 
L 603 4863 
z
" transform="scale(0.015625)"/>
      <path id="DejaVuSans-67" d="M 2906 1791 
Q 2906 2416 2648 2759 
Q 2391 3103 1925 3103 
Q 1463 3103 1205 2759 
Q 947 2416 947 1791 
Q 947 1169 1205 825 
Q 1463 481 1925 481 
Q 2391 481 2648 825 
Q 2906 1169 2906 1791 
z
M 3481 434 
Q 3481 -459 3084 -895 
Q 2688 -1331 1869 -1331 
Q 1566 -1331 1297 -1286 
Q 1028 -1241 775 -1147 
L 775 -588 
Q 1028 -725 1275 -790 
Q 1522 -856 1778 -856 
Q 2344 -856 2625 -561 
Q 2906 -266 2906 331 
L 2906 616 
Q 2728 306 2450 153 
Q 2172 0 1784 0 
Q 1141 0 747 490 
Q 353 981 353 1791 
Q 353 2603 747 3093 
Q 1141 3584 1784 3584 
Q 2172 3584 2450 3431 
Q 2728 3278 2906 2969 
L 2906 3500 
L 3481 3500 
L 3481 434 
z
" transform="scale(0.015625)"/>
      <path id="DejaVuSans-20" transform="scale(0.015625)"/>
      <path id="DejaVuSans-76" d="M 191 3500 
L 800 3500 
L 1894 563 
L 2988 3500 
L 3597 3500 
L 2284 0 
L 1503 0 
L 191 3500 
z
" transform="scale(0.015625)"/>
      <path id="DejaVuSans-66" d="M 2375 4863 
L 2375 4384 
L 1825 4384 
Q 1516 4384 1395 4259 
Q 1275 4134 1275 3809 
L 1275 3500 
L 2222 3500 
L 2222 3053 
L 1275 3053 
L 1275 0 
L 697 0 
L 697 3053 
L 147 3053 
L 147 3500 
L 697 3500 
L 697 3744 
Q 697 4328 969 4595 
Q 1241 4863 1831 4863 
L 2375 4863 
z
" transform="scale(0.015625)"/>
     </defs>
     <use xlink:href="#DejaVuSans-52"/>
     <use xlink:href="#DejaVuSans-6f" x="64.982422"/>
     <use xlink:href="#DejaVuSans-6c" x="126.164062"/>
     <use xlink:href="#DejaVuSans-6c" x="153.947266"/>
     <use xlink:href="#DejaVuSans-69" x="181.730469"/>
     <use xlink:href="#DejaVuSans-6e" x="209.513672"/>
     <use xlink:href="#DejaVuSans-67" x="272.892578"/>
     <use xlink:href="#DejaVuSans-20" x="336.369141"/>
     <use xlink:href="#DejaVuSans-61" x="368.15625"/>
     <use xlink:href="#DejaVuSans-76" x="429.435547"/>
     <use xlink:href="#DejaVuSans-65" x="488.615234"/>
     <use xlink:href="#DejaVuSans-72" x="550.138672"/>
     <use xlink:href="#DejaVuSans-61" x="591.251953"/>
     <use xlink:href="#DejaVuSans-67" x="652.53125"/>
     <use xlink:href="#DejaVuSans-65" x="716.007812"/>
     <use xlink:href="#DejaVuSans-20" x="777.53125"/>
     <use xlink:href="#DejaVuSans-6d" x="809.318359"/>
     <use xlink:href="#DejaVuSans-6f" x="906.730469"/>
     <use xlink:href="#DejaVuSans-6e" x="967.912109"/>
     <use xlink:href="#DejaVuSans-69" x="1031.291016"/>
     <use xlink:href="#DejaVuSans-74" x="1059.074219"/>
     <use xlink:href="#DejaVuSans-6f" x="1098.283203"/>
     <use xlink:href="#DejaVuSans-72" x="1159.464844"/>
     <use xlink:href="#DejaVuSans-69" x="1200.578125"/>
     <use xlink:href="#DejaVuSans-6e" x="1228.361328"/>
     <use xlink:href="#DejaVuSans-67" x="1291.740234"/>
     <use xlink:href="#DejaVuSans-20" x="1355.216797"/>
     <use xlink:href="#DejaVuSans-70" x="1387.003906"/>
     <use xlink:href="#DejaVuSans-72" x="1450.480469"/>
     <use xlink:href="#DejaVuSans-6f" x="1489.34375"/>
     <use xlink:href="#DejaVuSans-67" x="1550.525391"/>
     <use xlink:href="#DejaVuSans-72" x="1614.001953"/>
     <use xlink:href="#DejaVuSans-65" x="1652.865234"/>
     <use xlink:href="#DejaVuSans-73" x="1714.388672"/>
     <use xlink:href="#DejaVuSans-73" x="1766.488281"/>
     <use xlink:href="#DejaVuSans-20" x="1818.587891"/>
     <use xlink:href="#DejaVuSans-6f" x="1850.375"/>
     <use xlink:href="#DejaVuSans-66" x="1911.556641"/>
     <use xlink:href="#DejaVuSans-20" x="1946.761719"/>
     <use xlink:href="#DejaVuSans-63" x="1978.548828"/>
     <use xlink:href="#DejaVuSans-75" x="2033.529297"/>
     <use xlink:href="#DejaVuSans-73" x="2096.908203"/>
     <use xlink:href="#DejaVuSans-74" x="2149.007812"/>
     <use xlink:href="#DejaVuSans-6f" x="2188.216797"/>
     <use xlink:href="#DejaVuSans-6d" x="2249.398438"/>
     <use xlink:href="#DejaVuSans-65" x="2346.810547"/>
     <use xlink:href="#DejaVuSans-72" x="2408.333984"/>
     <use xlink:href="#DejaVuSans-2f" x="2449.447266"/>
     <use xlink:href="#DejaVuSans-70" x="2483.138672"/>
     <use xlink:href="#DejaVuSans-75" x="2546.615234"/>
     <use xlink:href="#DejaVuSans-72" x="2609.994141"/>
     <use xlink:href="#DejaVuSans-63" x="2648.857422"/>
     <use xlink:href="#DejaVuSans-68" x="2703.837891"/>
     <use xlink:href="#DejaVuSans-61" x="2767.216797"/>
     <use xlink:href="#DejaVuSans-73" x="2828.496094"/>
     <use xlink:href="#DejaVuSans-65" x="2880.595703"/>
     <use xlink:href="#DejaVuSans-73" x="2942.119141"/>
     <use xlink:href="#DejaVuSans-5f" x="2994.21875"/>
     <use xlink:href="#DejaVuSans-6e" x="3044.21875"/>
     <use xlink:href="#DejaVuSans-65" x="3107.597656"/>
     <use xlink:href="#DejaVuSans-77" x="3169.121094"/>
    </g>
   </g>
   <g id="legend_1">
    <g id="patch_7">
     <path d="M 284.430938 78.82825 
L 407.72 78.82825 
Q 409.72 78.82825 409.72 76.82825 
L 409.72 48.472 
Q 409.72 46.472 407.72 46.472 
L 284.430938 46.472 
Q 282.430938 46.472 282.430938 48.472 
L 282.430938 76.82825 
Q 282.430938 78.82825 284.430938 78.82825 
z
" style="fill: #ffffff; opacity: 0.8; stroke: #cccccc; stroke-linejoin: miter"/>
    </g>
    <g id="line2d_25">
     <path d="M 286.430938 54.570437 
L 296.430938 54.570437 
L 306.430938 54.570437 
" style="fill: none; stroke: #1f77b4; stroke-width: 1.5; stroke-linecap: square"/>
    </g>
    <g id="text_15">
     <!-- SACAgent -->
     <g transform="translate(314.430938 58.070437)scale(0.1 -0.1)">
      <defs>
       <path id="DejaVuSans-53" d="M 3425 4513 
L 3425 3897 
Q 3066 4069 2747 4153 
Q 2428 4238 2131 4238 
Q 1616 4238 1336 4038 
Q 1056 3838 1056 3469 
Q 1056 3159 1242 3001 
Q 1428 2844 1947 2747 
L 2328 2669 
Q 3034 2534 3370 2195 
Q 3706 1856 3706 1288 
Q 3706 609 3251 259 
Q 2797 -91 1919 -91 
Q 1588 -91 1214 -16 
Q 841 59 441 206 
L 441 856 
Q 825 641 1194 531 
Q 1563 422 1919 422 
Q 2459 422 2753 634 
Q 3047 847 3047 1241 
Q 3047 1584 2836 1778 
Q 2625 1972 2144 2069 
L 1759 2144 
Q 1053 2284 737 2584 
Q 422 2884 422 3419 
Q 422 4038 858 4394 
Q 1294 4750 2059 4750 
Q 2388 4750 2728 4690 
Q 3069 4631 3425 4513 
z
" transform="scale(0.015625)"/>
       <path id="DejaVuSans-41" d="M 2188 4044 
L 1331 1722 
L 3047 1722 
L 2188 4044 
z
M 1831 4666 
L 2547 4666 
L 4325 0 
L 3669 0 
L 3244 1197 
L 1141 1197 
L 716 0 
L 50 0 
L 1831 4666 
z
" transform="scale(0.015625)"/>
       <path id="DejaVuSans-43" d="M 4122 4306 
L 4122 3641 
Q 3803 3938 3442 4084 
Q 3081 4231 2675 4231 
Q 1875 4231 1450 3742 
Q 1025 3253 1025 2328 
Q 1025 1406 1450 917 
Q 1875 428 2675 428 
Q 3081 428 3442 575 
Q 3803 722 4122 1019 
L 4122 359 
Q 3791 134 3420 21 
Q 3050 -91 2638 -91 
Q 1578 -91 968 557 
Q 359 1206 359 2328 
Q 359 3453 968 4101 
Q 1578 4750 2638 4750 
Q 3056 4750 3426 4639 
Q 3797 4528 4122 4306 
z
" transform="scale(0.015625)"/>
      </defs>
      <use xlink:href="#DejaVuSans-53"/>
      <use xlink:href="#DejaVuSans-41" x="65.351562"/>
      <use xlink:href="#DejaVuSans-43" x="132.009766"/>
      <use xlink:href="#DejaVuSans-41" x="201.833984"/>
      <use xlink:href="#DejaVuSans-67" x="270.242188"/>
      <use xlink:href="#DejaVuSans-65" x="333.71875"/>
      <use xlink:href="#DejaVuSans-6e" x="395.242188"/>
      <use xlink:href="#DejaVuSans-74" x="458.621094"/>
     </g>
    </g>
    <g id="line2d_26">
     <path d="M 286.430938 69.248562 
L 296.430938 69.248562 
L 306.430938 69.248562 
" style="fill: none; stroke: #ff7f0e; stroke-width: 1.5; stroke-linecap: square"/>
    </g>
    <g id="text_16">
     <!-- Storage-Minimizer -->
     <g transform="translate(314.430938 72.748562)scale(0.1 -0.1)">
      <defs>
       <path id="DejaVuSans-2d" d="M 313 2009 
L 1997 2009 
L 1997 1497 
L 313 1497 
L 313 2009 
z
" transform="scale(0.015625)"/>
       <path id="DejaVuSans-4d" d="M 628 4666 
L 1569 4666 
L 2759 1491 
L 3956 4666 
L 4897 4666 
L 4897 0 
L 4281 0 
L 4281 4097 
L 3078 897 
L 2444 897 
L 1241 4097 
L 1241 0 
L 628 0 
L 628 4666 
z
" transform="scale(0.015625)"/>
       <path id="DejaVuSans-7a" d="M 353 3500 
L 3084 3500 
L 3084 2975 
L 922 459 
L 3084 459 
L 3084 0 
L 275 0 
L 275 525 
L 2438 3041 
L 353 3041 
L 353 3500 
z
" transform="scale(0.015625)"/>
      </defs>
      <use xlink:href="#DejaVuSans-53"/>
      <use xlink:href="#DejaVuSans-74" x="63.476562"/>
      <use xlink:href="#DejaVuSans-6f" x="102.685547"/>
      <use xlink:href="#DejaVuSans-72" x="163.867188"/>
      <use xlink:href="#DejaVuSans-61" x="204.980469"/>
      <use xlink:href="#DejaVuSans-67" x="266.259766"/>
      <use xlink:href="#DejaVuSans-65" x="329.736328"/>
      <use xlink:href="#DejaVuSans-2d" x="391.259766"/>
      <use xlink:href="#DejaVuSans-4d" x="427.34375"/>
      <use xlink:href="#DejaVuSans-69" x="513.623047"/>
      <use xlink:href="#DejaVuSans-6e" x="541.40625"/>
      <use xlink:href="#DejaVuSans-69" x="604.785156"/>
      <use xlink:href="#DejaVuSans-6d" x="632.568359"/>
      <use xlink:href="#DejaVuSans-69" x="729.980469"/>
      <use xlink:href="#DejaVuSans-7a" x="757.763672"/>
      <use xlink:href="#DejaVuSans-65" x="810.253906"/>
      <use xlink:href="#DejaVuSans-72" x="871.777344"/>
     </g>
    </g>
   </g>
  </g>
 </g>
 <defs>
  <clipPath id="p23ff5cf326">
   <rect x="57.6" y="41.472" width="357.12" height="266.112"/>
  </clipPath>
 </defs>
</svg>
