<?xml version="1.0" encoding="utf-8" standalone="no"?>
<!DOCTYPE svg PUBLIC "-//W3C//DTD SVG 1.1//EN"
  "http://www.w3.org/Graphics/SVG/1.1/DTD/svg11.dtd">
<svg xmlns:xlink="http://www.w3.org/1999/xlink" width="460.8pt" height="345.6pt" viewBox="0 0 460.8 345.6" xmlns="http://www.w3.org/2000/svg" version="1.1">
 <metadata>
  <rdf:RDF xmlns:dc="http://purl.org/dc/elements/1.1/" xmlns:cc="http://creativecommons.org/ns#" xmlns:rdf="http://www.w3.org/1999/02/22-rdf-syntax-ns#">
   <cc:Work>
    <dc:type rdf:resource="http://purl.org/dc/dcmitype/StillImage"/>
    <dc:date>2022-06-23T13:41:42.940972</dc:date>
    <dc:format>image/svg+xml</dc:format>
    <dc:creator>
     <cc:Agent>
      <dc:title>Matplotlib v3.5.2, https://matplotlib.org/</dc:title>
     </cc:Agent>
    </dc:creator>
   </cc:Work>
  </rdf:RDF>
 </metadata>
 <defs>
  <style type="text/css">*{stroke-linejoin: round; stroke-linecap: butt}</style>
 </defs>
 <g id="figure_1">
  <g id="patch_1">
   <path d="M 0 345.6 
L 460.8 345.6 
L 460.8 0 
L 0 0 
L 0 345.6 
z
" style="fill: none"/>
  </g>
  <g id="axes_1">
   <g id="patch_2">
    <path d="M 57.6 307.584 
L 414.72 307.584 
L 414.72 41.472 
L 57.6 41.472 
L 57.6 307.584 
z
" style="fill: none"/>
   </g>
   <g id="matplotlib.axis_1">
    <g id="xtick_1">
     <g id="line2d_1">
      <path d="M 73.832727 307.584 
L 73.832727 41.472 
" clip-path="url(#pe47d4e1f17)" style="fill: none; stroke-dasharray: 2.96,1.28; stroke-dashoffset: 0; stroke: #b0b0b0; stroke-width: 0.8"/>
     </g>
     <g id="line2d_2">
      <defs>
       <path id="mce98e375c6" d="M 0 0 
L 0 3.5 
" style="stroke: #000000; stroke-width: 0.8"/>
      </defs>
      <g>
       <use xlink:href="#mce98e375c6" x="73.832727" y="307.584" style="stroke: #000000; stroke-width: 0.8"/>
      </g>
     </g>
     <g id="text_1">
      <!-- 0 -->
      <g transform="translate(70.651477 322.182437)scale(0.1 -0.1)">
       <defs>
        <path id="DejaVuSans-30" d="M 2034 4250 
Q 1547 4250 1301 3770 
Q 1056 3291 1056 2328 
Q 1056 1369 1301 889 
Q 1547 409 2034 409 
Q 2525 409 2770 889 
Q 3016 1369 3016 2328 
Q 3016 3291 2770 3770 
Q 2525 4250 2034 4250 
z
M 2034 4750 
Q 2819 4750 3233 4129 
Q 3647 3509 3647 2328 
Q 3647 1150 3233 529 
Q 2819 -91 2034 -91 
Q 1250 -91 836 529 
Q 422 1150 422 2328 
Q 422 3509 836 4129 
Q 1250 4750 2034 4750 
z
" transform="scale(0.015625)"/>
       </defs>
       <use xlink:href="#DejaVuSans-30"/>
      </g>
     </g>
    </g>
    <g id="xtick_2">
     <g id="line2d_3">
      <path d="M 138.893758 307.584 
L 138.893758 41.472 
" clip-path="url(#pe47d4e1f17)" style="fill: none; stroke-dasharray: 2.96,1.28; stroke-dashoffset: 0; stroke: #b0b0b0; stroke-width: 0.8"/>
     </g>
     <g id="line2d_4">
      <g>
       <use xlink:href="#mce98e375c6" x="138.893758" y="307.584" style="stroke: #000000; stroke-width: 0.8"/>
      </g>
     </g>
     <g id="text_2">
      <!-- 100 -->
      <g transform="translate(129.350008 322.182437)scale(0.1 -0.1)">
       <defs>
        <path id="DejaVuSans-31" d="M 794 531 
L 1825 531 
L 1825 4091 
L 703 3866 
L 703 4441 
L 1819 4666 
L 2450 4666 
L 2450 531 
L 3481 531 
L 3481 0 
L 794 0 
L 794 531 
z
" transform="scale(0.015625)"/>
       </defs>
       <use xlink:href="#DejaVuSans-31"/>
       <use xlink:href="#DejaVuSans-30" x="63.623047"/>
       <use xlink:href="#DejaVuSans-30" x="127.246094"/>
      </g>
     </g>
    </g>
    <g id="xtick_3">
     <g id="line2d_5">
      <path d="M 203.95479 307.584 
L 203.95479 41.472 
" clip-path="url(#pe47d4e1f17)" style="fill: none; stroke-dasharray: 2.96,1.28; stroke-dashoffset: 0; stroke: #b0b0b0; stroke-width: 0.8"/>
     </g>
     <g id="line2d_6">
      <g>
       <use xlink:href="#mce98e375c6" x="203.95479" y="307.584" style="stroke: #000000; stroke-width: 0.8"/>
      </g>
     </g>
     <g id="text_3">
      <!-- 200 -->
      <g transform="translate(194.41104 322.182437)scale(0.1 -0.1)">
       <defs>
        <path id="DejaVuSans-32" d="M 1228 531 
L 3431 531 
L 3431 0 
L 469 0 
L 469 531 
Q 828 903 1448 1529 
Q 2069 2156 2228 2338 
Q 2531 2678 2651 2914 
Q 2772 3150 2772 3378 
Q 2772 3750 2511 3984 
Q 2250 4219 1831 4219 
Q 1534 4219 1204 4116 
Q 875 4013 500 3803 
L 500 4441 
Q 881 4594 1212 4672 
Q 1544 4750 1819 4750 
Q 2544 4750 2975 4387 
Q 3406 4025 3406 3419 
Q 3406 3131 3298 2873 
Q 3191 2616 2906 2266 
Q 2828 2175 2409 1742 
Q 1991 1309 1228 531 
z
" transform="scale(0.015625)"/>
       </defs>
       <use xlink:href="#DejaVuSans-32"/>
       <use xlink:href="#DejaVuSans-30" x="63.623047"/>
       <use xlink:href="#DejaVuSans-30" x="127.246094"/>
      </g>
     </g>
    </g>
    <g id="xtick_4">
     <g id="line2d_7">
      <path d="M 269.015821 307.584 
L 269.015821 41.472 
" clip-path="url(#pe47d4e1f17)" style="fill: none; stroke-dasharray: 2.96,1.28; stroke-dashoffset: 0; stroke: #b0b0b0; stroke-width: 0.8"/>
     </g>
     <g id="line2d_8">
      <g>
       <use xlink:href="#mce98e375c6" x="269.015821" y="307.584" style="stroke: #000000; stroke-width: 0.8"/>
      </g>
     </g>
     <g id="text_4">
      <!-- 300 -->
      <g transform="translate(259.472071 322.182437)scale(0.1 -0.1)">
       <defs>
        <path id="DejaVuSans-33" d="M 2597 2516 
Q 3050 2419 3304 2112 
Q 3559 1806 3559 1356 
Q 3559 666 3084 287 
Q 2609 -91 1734 -91 
Q 1441 -91 1130 -33 
Q 819 25 488 141 
L 488 750 
Q 750 597 1062 519 
Q 1375 441 1716 441 
Q 2309 441 2620 675 
Q 2931 909 2931 1356 
Q 2931 1769 2642 2001 
Q 2353 2234 1838 2234 
L 1294 2234 
L 1294 2753 
L 1863 2753 
Q 2328 2753 2575 2939 
Q 2822 3125 2822 3475 
Q 2822 3834 2567 4026 
Q 2313 4219 1838 4219 
Q 1578 4219 1281 4162 
Q 984 4106 628 3988 
L 628 4550 
Q 988 4650 1302 4700 
Q 1616 4750 1894 4750 
Q 2613 4750 3031 4423 
Q 3450 4097 3450 3541 
Q 3450 3153 3228 2886 
Q 3006 2619 2597 2516 
z
" transform="scale(0.015625)"/>
       </defs>
       <use xlink:href="#DejaVuSans-33"/>
       <use xlink:href="#DejaVuSans-30" x="63.623047"/>
       <use xlink:href="#DejaVuSans-30" x="127.246094"/>
      </g>
     </g>
    </g>
    <g id="xtick_5">
     <g id="line2d_9">
      <path d="M 334.076852 307.584 
L 334.076852 41.472 
" clip-path="url(#pe47d4e1f17)" style="fill: none; stroke-dasharray: 2.96,1.28; stroke-dashoffset: 0; stroke: #b0b0b0; stroke-width: 0.8"/>
     </g>
     <g id="line2d_10">
      <g>
       <use xlink:href="#mce98e375c6" x="334.076852" y="307.584" style="stroke: #000000; stroke-width: 0.8"/>
      </g>
     </g>
     <g id="text_5">
      <!-- 400 -->
      <g transform="translate(324.533102 322.182437)scale(0.1 -0.1)">
       <defs>
        <path id="DejaVuSans-34" d="M 2419 4116 
L 825 1625 
L 2419 1625 
L 2419 4116 
z
M 2253 4666 
L 3047 4666 
L 3047 1625 
L 3713 1625 
L 3713 1100 
L 3047 1100 
L 3047 0 
L 2419 0 
L 2419 1100 
L 313 1100 
L 313 1709 
L 2253 4666 
z
" transform="scale(0.015625)"/>
       </defs>
       <use xlink:href="#DejaVuSans-34"/>
       <use xlink:href="#DejaVuSans-30" x="63.623047"/>
       <use xlink:href="#DejaVuSans-30" x="127.246094"/>
      </g>
     </g>
    </g>
    <g id="xtick_6">
     <g id="line2d_11">
      <path d="M 399.137883 307.584 
L 399.137883 41.472 
" clip-path="url(#pe47d4e1f17)" style="fill: none; stroke-dasharray: 2.96,1.28; stroke-dashoffset: 0; stroke: #b0b0b0; stroke-width: 0.8"/>
     </g>
     <g id="line2d_12">
      <g>
       <use xlink:href="#mce98e375c6" x="399.137883" y="307.584" style="stroke: #000000; stroke-width: 0.8"/>
      </g>
     </g>
     <g id="text_6">
      <!-- 500 -->
      <g transform="translate(389.594133 322.182437)scale(0.1 -0.1)">
       <defs>
        <path id="DejaVuSans-35" d="M 691 4666 
L 3169 4666 
L 3169 4134 
L 1269 4134 
L 1269 2991 
Q 1406 3038 1543 3061 
Q 1681 3084 1819 3084 
Q 2600 3084 3056 2656 
Q 3513 2228 3513 1497 
Q 3513 744 3044 326 
Q 2575 -91 1722 -91 
Q 1428 -91 1123 -41 
Q 819 9 494 109 
L 494 744 
Q 775 591 1075 516 
Q 1375 441 1709 441 
Q 2250 441 2565 725 
Q 2881 1009 2881 1497 
Q 2881 1984 2565 2268 
Q 2250 2553 1709 2553 
Q 1456 2553 1204 2497 
Q 953 2441 691 2322 
L 691 4666 
z
" transform="scale(0.015625)"/>
       </defs>
       <use xlink:href="#DejaVuSans-35"/>
       <use xlink:href="#DejaVuSans-30" x="63.623047"/>
       <use xlink:href="#DejaVuSans-30" x="127.246094"/>
      </g>
     </g>
    </g>
    <g id="text_7">
     <!-- Episode -->
     <g transform="translate(216.5225 335.860562)scale(0.1 -0.1)">
      <defs>
       <path id="DejaVuSans-45" d="M 628 4666 
L 3578 4666 
L 3578 4134 
L 1259 4134 
L 1259 2753 
L 3481 2753 
L 3481 2222 
L 1259 2222 
L 1259 531 
L 3634 531 
L 3634 0 
L 628 0 
L 628 4666 
z
" transform="scale(0.015625)"/>
       <path id="DejaVuSans-70" d="M 1159 525 
L 1159 -1331 
L 581 -1331 
L 581 3500 
L 1159 3500 
L 1159 2969 
Q 1341 3281 1617 3432 
Q 1894 3584 2278 3584 
Q 2916 3584 3314 3078 
Q 3713 2572 3713 1747 
Q 3713 922 3314 415 
Q 2916 -91 2278 -91 
Q 1894 -91 1617 61 
Q 1341 213 1159 525 
z
M 3116 1747 
Q 3116 2381 2855 2742 
Q 2594 3103 2138 3103 
Q 1681 3103 1420 2742 
Q 1159 2381 1159 1747 
Q 1159 1113 1420 752 
Q 1681 391 2138 391 
Q 2594 391 2855 752 
Q 3116 1113 3116 1747 
z
" transform="scale(0.015625)"/>
       <path id="DejaVuSans-69" d="M 603 3500 
L 1178 3500 
L 1178 0 
L 603 0 
L 603 3500 
z
M 603 4863 
L 1178 4863 
L 1178 4134 
L 603 4134 
L 603 4863 
z
" transform="scale(0.015625)"/>
       <path id="DejaVuSans-73" d="M 2834 3397 
L 2834 2853 
Q 2591 2978 2328 3040 
Q 2066 3103 1784 3103 
Q 1356 3103 1142 2972 
Q 928 2841 928 2578 
Q 928 2378 1081 2264 
Q 1234 2150 1697 2047 
L 1894 2003 
Q 2506 1872 2764 1633 
Q 3022 1394 3022 966 
Q 3022 478 2636 193 
Q 2250 -91 1575 -91 
Q 1294 -91 989 -36 
Q 684 19 347 128 
L 347 722 
Q 666 556 975 473 
Q 1284 391 1588 391 
Q 1994 391 2212 530 
Q 2431 669 2431 922 
Q 2431 1156 2273 1281 
Q 2116 1406 1581 1522 
L 1381 1569 
Q 847 1681 609 1914 
Q 372 2147 372 2553 
Q 372 3047 722 3315 
Q 1072 3584 1716 3584 
Q 2034 3584 2315 3537 
Q 2597 3491 2834 3397 
z
" transform="scale(0.015625)"/>
       <path id="DejaVuSans-6f" d="M 1959 3097 
Q 1497 3097 1228 2736 
Q 959 2375 959 1747 
Q 959 1119 1226 758 
Q 1494 397 1959 397 
Q 2419 397 2687 759 
Q 2956 1122 2956 1747 
Q 2956 2369 2687 2733 
Q 2419 3097 1959 3097 
z
M 1959 3584 
Q 2709 3584 3137 3096 
Q 3566 2609 3566 1747 
Q 3566 888 3137 398 
Q 2709 -91 1959 -91 
Q 1206 -91 779 398 
Q 353 888 353 1747 
Q 353 2609 779 3096 
Q 1206 3584 1959 3584 
z
" transform="scale(0.015625)"/>
       <path id="DejaVuSans-64" d="M 2906 2969 
L 2906 4863 
L 3481 4863 
L 3481 0 
L 2906 0 
L 2906 525 
Q 2725 213 2448 61 
Q 2172 -91 1784 -91 
Q 1150 -91 751 415 
Q 353 922 353 1747 
Q 353 2572 751 3078 
Q 1150 3584 1784 3584 
Q 2172 3584 2448 3432 
Q 2725 3281 2906 2969 
z
M 947 1747 
Q 947 1113 1208 752 
Q 1469 391 1925 391 
Q 2381 391 2643 752 
Q 2906 1113 2906 1747 
Q 2906 2381 2643 2742 
Q 2381 3103 1925 3103 
Q 1469 3103 1208 2742 
Q 947 2381 947 1747 
z
" transform="scale(0.015625)"/>
       <path id="DejaVuSans-65" d="M 3597 1894 
L 3597 1613 
L 953 1613 
Q 991 1019 1311 708 
Q 1631 397 2203 397 
Q 2534 397 2845 478 
Q 3156 559 3463 722 
L 3463 178 
Q 3153 47 2828 -22 
Q 2503 -91 2169 -91 
Q 1331 -91 842 396 
Q 353 884 353 1716 
Q 353 2575 817 3079 
Q 1281 3584 2069 3584 
Q 2775 3584 3186 3129 
Q 3597 2675 3597 1894 
z
M 3022 2063 
Q 3016 2534 2758 2815 
Q 2500 3097 2075 3097 
Q 1594 3097 1305 2825 
Q 1016 2553 972 2059 
L 3022 2063 
z
" transform="scale(0.015625)"/>
      </defs>
      <use xlink:href="#DejaVuSans-45"/>
      <use xlink:href="#DejaVuSans-70" x="63.183594"/>
      <use xlink:href="#DejaVuSans-69" x="126.660156"/>
      <use xlink:href="#DejaVuSans-73" x="154.443359"/>
      <use xlink:href="#DejaVuSans-6f" x="206.542969"/>
      <use xlink:href="#DejaVuSans-64" x="267.724609"/>
      <use xlink:href="#DejaVuSans-65" x="331.201172"/>
     </g>
    </g>
   </g>
   <g id="matplotlib.axis_2">
    <g id="ytick_1">
     <g id="line2d_13">
      <path d="M 57.6 288.359524 
L 414.72 288.359524 
" clip-path="url(#pe47d4e1f17)" style="fill: none; stroke-dasharray: 2.96,1.28; stroke-dashoffset: 0; stroke: #b0b0b0; stroke-width: 0.8"/>
     </g>
     <g id="line2d_14">
      <defs>
       <path id="mcdc83ace2a" d="M 0 0 
L -3.5 0 
" style="stroke: #000000; stroke-width: 0.8"/>
      </defs>
      <g>
       <use xlink:href="#mcdc83ace2a" x="57.6" y="288.359524" style="stroke: #000000; stroke-width: 0.8"/>
      </g>
     </g>
     <g id="text_8">
      <!-- −100 -->
      <g transform="translate(23.132812 292.158743)scale(0.1 -0.1)">
       <defs>
        <path id="DejaVuSans-2212" d="M 678 2272 
L 4684 2272 
L 4684 1741 
L 678 1741 
L 678 2272 
z
" transform="scale(0.015625)"/>
       </defs>
       <use xlink:href="#DejaVuSans-2212"/>
       <use xlink:href="#DejaVuSans-31" x="83.789062"/>
       <use xlink:href="#DejaVuSans-30" x="147.412109"/>
       <use xlink:href="#DejaVuSans-30" x="211.035156"/>
      </g>
     </g>
    </g>
    <g id="ytick_2">
     <g id="line2d_15">
      <path d="M 57.6 238.88745 
L 414.72 238.88745 
" clip-path="url(#pe47d4e1f17)" style="fill: none; stroke-dasharray: 2.96,1.28; stroke-dashoffset: 0; stroke: #b0b0b0; stroke-width: 0.8"/>
     </g>
     <g id="line2d_16">
      <g>
       <use xlink:href="#mcdc83ace2a" x="57.6" y="238.88745" style="stroke: #000000; stroke-width: 0.8"/>
      </g>
     </g>
     <g id="text_9">
      <!-- −90 -->
      <g transform="translate(29.495313 242.686669)scale(0.1 -0.1)">
       <defs>
        <path id="DejaVuSans-39" d="M 703 97 
L 703 672 
Q 941 559 1184 500 
Q 1428 441 1663 441 
Q 2288 441 2617 861 
Q 2947 1281 2994 2138 
Q 2813 1869 2534 1725 
Q 2256 1581 1919 1581 
Q 1219 1581 811 2004 
Q 403 2428 403 3163 
Q 403 3881 828 4315 
Q 1253 4750 1959 4750 
Q 2769 4750 3195 4129 
Q 3622 3509 3622 2328 
Q 3622 1225 3098 567 
Q 2575 -91 1691 -91 
Q 1453 -91 1209 -44 
Q 966 3 703 97 
z
M 1959 2075 
Q 2384 2075 2632 2365 
Q 2881 2656 2881 3163 
Q 2881 3666 2632 3958 
Q 2384 4250 1959 4250 
Q 1534 4250 1286 3958 
Q 1038 3666 1038 3163 
Q 1038 2656 1286 2365 
Q 1534 2075 1959 2075 
z
" transform="scale(0.015625)"/>
       </defs>
       <use xlink:href="#DejaVuSans-2212"/>
       <use xlink:href="#DejaVuSans-39" x="83.789062"/>
       <use xlink:href="#DejaVuSans-30" x="147.412109"/>
      </g>
     </g>
    </g>
    <g id="ytick_3">
     <g id="line2d_17">
      <path d="M 57.6 189.415376 
L 414.72 189.415376 
" clip-path="url(#pe47d4e1f17)" style="fill: none; stroke-dasharray: 2.96,1.28; stroke-dashoffset: 0; stroke: #b0b0b0; stroke-width: 0.8"/>
     </g>
     <g id="line2d_18">
      <g>
       <use xlink:href="#mcdc83ace2a" x="57.6" y="189.415376" style="stroke: #000000; stroke-width: 0.8"/>
      </g>
     </g>
     <g id="text_10">
      <!-- −80 -->
      <g transform="translate(29.495313 193.214595)scale(0.1 -0.1)">
       <defs>
        <path id="DejaVuSans-38" d="M 2034 2216 
Q 1584 2216 1326 1975 
Q 1069 1734 1069 1313 
Q 1069 891 1326 650 
Q 1584 409 2034 409 
Q 2484 409 2743 651 
Q 3003 894 3003 1313 
Q 3003 1734 2745 1975 
Q 2488 2216 2034 2216 
z
M 1403 2484 
Q 997 2584 770 2862 
Q 544 3141 544 3541 
Q 544 4100 942 4425 
Q 1341 4750 2034 4750 
Q 2731 4750 3128 4425 
Q 3525 4100 3525 3541 
Q 3525 3141 3298 2862 
Q 3072 2584 2669 2484 
Q 3125 2378 3379 2068 
Q 3634 1759 3634 1313 
Q 3634 634 3220 271 
Q 2806 -91 2034 -91 
Q 1263 -91 848 271 
Q 434 634 434 1313 
Q 434 1759 690 2068 
Q 947 2378 1403 2484 
z
M 1172 3481 
Q 1172 3119 1398 2916 
Q 1625 2713 2034 2713 
Q 2441 2713 2670 2916 
Q 2900 3119 2900 3481 
Q 2900 3844 2670 4047 
Q 2441 4250 2034 4250 
Q 1625 4250 1398 4047 
Q 1172 3844 1172 3481 
z
" transform="scale(0.015625)"/>
       </defs>
       <use xlink:href="#DejaVuSans-2212"/>
       <use xlink:href="#DejaVuSans-38" x="83.789062"/>
       <use xlink:href="#DejaVuSans-30" x="147.412109"/>
      </g>
     </g>
    </g>
    <g id="ytick_4">
     <g id="line2d_19">
      <path d="M 57.6 139.943302 
L 414.72 139.943302 
" clip-path="url(#pe47d4e1f17)" style="fill: none; stroke-dasharray: 2.96,1.28; stroke-dashoffset: 0; stroke: #b0b0b0; stroke-width: 0.8"/>
     </g>
     <g id="line2d_20">
      <g>
       <use xlink:href="#mcdc83ace2a" x="57.6" y="139.943302" style="stroke: #000000; stroke-width: 0.8"/>
      </g>
     </g>
     <g id="text_11">
      <!-- −70 -->
      <g transform="translate(29.495313 143.742521)scale(0.1 -0.1)">
       <defs>
        <path id="DejaVuSans-37" d="M 525 4666 
L 3525 4666 
L 3525 4397 
L 1831 0 
L 1172 0 
L 2766 4134 
L 525 4134 
L 525 4666 
z
" transform="scale(0.015625)"/>
       </defs>
       <use xlink:href="#DejaVuSans-2212"/>
       <use xlink:href="#DejaVuSans-37" x="83.789062"/>
       <use xlink:href="#DejaVuSans-30" x="147.412109"/>
      </g>
     </g>
    </g>
    <g id="ytick_5">
     <g id="line2d_21">
      <path d="M 57.6 90.471228 
L 414.72 90.471228 
" clip-path="url(#pe47d4e1f17)" style="fill: none; stroke-dasharray: 2.96,1.28; stroke-dashoffset: 0; stroke: #b0b0b0; stroke-width: 0.8"/>
     </g>
     <g id="line2d_22">
      <g>
       <use xlink:href="#mcdc83ace2a" x="57.6" y="90.471228" style="stroke: #000000; stroke-width: 0.8"/>
      </g>
     </g>
     <g id="text_12">
      <!-- −60 -->
      <g transform="translate(29.495313 94.270447)scale(0.1 -0.1)">
       <defs>
        <path id="DejaVuSans-36" d="M 2113 2584 
Q 1688 2584 1439 2293 
Q 1191 2003 1191 1497 
Q 1191 994 1439 701 
Q 1688 409 2113 409 
Q 2538 409 2786 701 
Q 3034 994 3034 1497 
Q 3034 2003 2786 2293 
Q 2538 2584 2113 2584 
z
M 3366 4563 
L 3366 3988 
Q 3128 4100 2886 4159 
Q 2644 4219 2406 4219 
Q 1781 4219 1451 3797 
Q 1122 3375 1075 2522 
Q 1259 2794 1537 2939 
Q 1816 3084 2150 3084 
Q 2853 3084 3261 2657 
Q 3669 2231 3669 1497 
Q 3669 778 3244 343 
Q 2819 -91 2113 -91 
Q 1303 -91 875 529 
Q 447 1150 447 2328 
Q 447 3434 972 4092 
Q 1497 4750 2381 4750 
Q 2619 4750 2861 4703 
Q 3103 4656 3366 4563 
z
" transform="scale(0.015625)"/>
       </defs>
       <use xlink:href="#DejaVuSans-2212"/>
       <use xlink:href="#DejaVuSans-36" x="83.789062"/>
       <use xlink:href="#DejaVuSans-30" x="147.412109"/>
      </g>
     </g>
    </g>
    <g id="text_13">
     <!-- profits/storage_cost -->
     <g transform="translate(16.775 223.970969)rotate(-90)scale(0.1 -0.1)">
      <defs>
       <path id="DejaVuSans-72" d="M 2631 2963 
Q 2534 3019 2420 3045 
Q 2306 3072 2169 3072 
Q 1681 3072 1420 2755 
Q 1159 2438 1159 1844 
L 1159 0 
L 581 0 
L 581 3500 
L 1159 3500 
L 1159 2956 
Q 1341 3275 1631 3429 
Q 1922 3584 2338 3584 
Q 2397 3584 2469 3576 
Q 2541 3569 2628 3553 
L 2631 2963 
z
" transform="scale(0.015625)"/>
       <path id="DejaVuSans-66" d="M 2375 4863 
L 2375 4384 
L 1825 4384 
Q 1516 4384 1395 4259 
Q 1275 4134 1275 3809 
L 1275 3500 
L 2222 3500 
L 2222 3053 
L 1275 3053 
L 1275 0 
L 697 0 
L 697 3053 
L 147 3053 
L 147 3500 
L 697 3500 
L 697 3744 
Q 697 4328 969 4595 
Q 1241 4863 1831 4863 
L 2375 4863 
z
" transform="scale(0.015625)"/>
       <path id="DejaVuSans-74" d="M 1172 4494 
L 1172 3500 
L 2356 3500 
L 2356 3053 
L 1172 3053 
L 1172 1153 
Q 1172 725 1289 603 
Q 1406 481 1766 481 
L 2356 481 
L 2356 0 
L 1766 0 
Q 1100 0 847 248 
Q 594 497 594 1153 
L 594 3053 
L 172 3053 
L 172 3500 
L 594 3500 
L 594 4494 
L 1172 4494 
z
" transform="scale(0.015625)"/>
       <path id="DejaVuSans-2f" d="M 1625 4666 
L 2156 4666 
L 531 -594 
L 0 -594 
L 1625 4666 
z
" transform="scale(0.015625)"/>
       <path id="DejaVuSans-61" d="M 2194 1759 
Q 1497 1759 1228 1600 
Q 959 1441 959 1056 
Q 959 750 1161 570 
Q 1363 391 1709 391 
Q 2188 391 2477 730 
Q 2766 1069 2766 1631 
L 2766 1759 
L 2194 1759 
z
M 3341 1997 
L 3341 0 
L 2766 0 
L 2766 531 
Q 2569 213 2275 61 
Q 1981 -91 1556 -91 
Q 1019 -91 701 211 
Q 384 513 384 1019 
Q 384 1609 779 1909 
Q 1175 2209 1959 2209 
L 2766 2209 
L 2766 2266 
Q 2766 2663 2505 2880 
Q 2244 3097 1772 3097 
Q 1472 3097 1187 3025 
Q 903 2953 641 2809 
L 641 3341 
Q 956 3463 1253 3523 
Q 1550 3584 1831 3584 
Q 2591 3584 2966 3190 
Q 3341 2797 3341 1997 
z
" transform="scale(0.015625)"/>
       <path id="DejaVuSans-67" d="M 2906 1791 
Q 2906 2416 2648 2759 
Q 2391 3103 1925 3103 
Q 1463 3103 1205 2759 
Q 947 2416 947 1791 
Q 947 1169 1205 825 
Q 1463 481 1925 481 
Q 2391 481 2648 825 
Q 2906 1169 2906 1791 
z
M 3481 434 
Q 3481 -459 3084 -895 
Q 2688 -1331 1869 -1331 
Q 1566 -1331 1297 -1286 
Q 1028 -1241 775 -1147 
L 775 -588 
Q 1028 -725 1275 -790 
Q 1522 -856 1778 -856 
Q 2344 -856 2625 -561 
Q 2906 -266 2906 331 
L 2906 616 
Q 2728 306 2450 153 
Q 2172 0 1784 0 
Q 1141 0 747 490 
Q 353 981 353 1791 
Q 353 2603 747 3093 
Q 1141 3584 1784 3584 
Q 2172 3584 2450 3431 
Q 2728 3278 2906 2969 
L 2906 3500 
L 3481 3500 
L 3481 434 
z
" transform="scale(0.015625)"/>
       <path id="DejaVuSans-5f" d="M 3263 -1063 
L 3263 -1509 
L -63 -1509 
L -63 -1063 
L 3263 -1063 
z
" transform="scale(0.015625)"/>
       <path id="DejaVuSans-63" d="M 3122 3366 
L 3122 2828 
Q 2878 2963 2633 3030 
Q 2388 3097 2138 3097 
Q 1578 3097 1268 2742 
Q 959 2388 959 1747 
Q 959 1106 1268 751 
Q 1578 397 2138 397 
Q 2388 397 2633 464 
Q 2878 531 3122 666 
L 3122 134 
Q 2881 22 2623 -34 
Q 2366 -91 2075 -91 
Q 1284 -91 818 406 
Q 353 903 353 1747 
Q 353 2603 823 3093 
Q 1294 3584 2113 3584 
Q 2378 3584 2631 3529 
Q 2884 3475 3122 3366 
z
" transform="scale(0.015625)"/>
      </defs>
      <use xlink:href="#DejaVuSans-70"/>
      <use xlink:href="#DejaVuSans-72" x="63.476562"/>
      <use xlink:href="#DejaVuSans-6f" x="102.339844"/>
      <use xlink:href="#DejaVuSans-66" x="163.521484"/>
      <use xlink:href="#DejaVuSans-69" x="198.726562"/>
      <use xlink:href="#DejaVuSans-74" x="226.509766"/>
      <use xlink:href="#DejaVuSans-73" x="265.71875"/>
      <use xlink:href="#DejaVuSans-2f" x="317.818359"/>
      <use xlink:href="#DejaVuSans-73" x="351.509766"/>
      <use xlink:href="#DejaVuSans-74" x="403.609375"/>
      <use xlink:href="#DejaVuSans-6f" x="442.818359"/>
      <use xlink:href="#DejaVuSans-72" x="504"/>
      <use xlink:href="#DejaVuSans-61" x="545.113281"/>
      <use xlink:href="#DejaVuSans-67" x="606.392578"/>
      <use xlink:href="#DejaVuSans-65" x="669.869141"/>
      <use xlink:href="#DejaVuSans-5f" x="731.392578"/>
      <use xlink:href="#DejaVuSans-63" x="781.392578"/>
      <use xlink:href="#DejaVuSans-6f" x="836.373047"/>
      <use xlink:href="#DejaVuSans-73" x="897.554688"/>
      <use xlink:href="#DejaVuSans-74" x="949.654297"/>
     </g>
    </g>
   </g>
   <g id="line2d_23">
    <path d="M 73.832727 175.563195 
L 74.483338 89.976507 
L 75.133948 66.559726 
L 75.784558 57.077578 
L 76.435169 105.31285 
L 77.085779 93.522006 
L 77.736389 104.464758 
L 78.386999 142.169545 
L 79.03761 199.199853 
L 79.68822 215.882936 
L 80.33883 243.519835 
L 80.989441 227.096606 
L 81.640051 223.36083 
L 82.290661 257.969536 
L 82.941272 282.818652 
L 83.591882 292.37913 
L 84.242492 283.848835 
L 84.893103 273.050665 
L 85.543713 278.126616 
L 86.194323 294.543533 
L 86.844934 287.629222 
L 87.495544 295.488 
L 88.146154 293.650885 
L 88.796764 285.865307 
L 89.447375 275.91235 
L 90.097985 273.898456 
L 90.748595 261.49802 
L 91.399206 261.803621 
L 92.049816 253.251411 
L 93.351037 266.240719 
L 94.001647 268.416094 
L 94.652257 260.355332 
L 95.302868 257.26487 
L 95.953478 261.743548 
L 96.604088 261.98816 
L 97.254698 264.746637 
L 97.905309 260.759314 
L 98.555919 258.28304 
L 99.206529 254.186689 
L 99.85714 252.160445 
L 100.50775 247.639295 
L 101.15836 248.586277 
L 101.808971 244.160723 
L 102.459581 252.365842 
L 103.110191 250.932824 
L 103.760802 251.634403 
L 104.411412 249.678546 
L 105.062022 248.610227 
L 105.712633 245.081354 
L 106.363243 246.424666 
L 107.013853 242.360009 
L 107.664463 245.197473 
L 108.315074 243.037607 
L 108.965684 242.548383 
L 109.616294 238.110032 
L 110.266905 236.535357 
L 110.917515 242.111664 
L 111.568125 242.593663 
L 112.218736 246.341242 
L 112.869346 251.701528 
L 113.519956 254.870122 
L 114.170567 253.477785 
L 114.821177 256.473226 
L 115.471787 257.572672 
L 116.122398 256.472524 
L 116.773008 259.370365 
L 117.423618 257.272146 
L 118.074228 256.202676 
L 118.724839 255.580741 
L 119.375449 253.749976 
L 120.026059 251.557798 
L 120.67667 250.455783 
L 121.32728 248.781865 
L 121.97789 245.985044 
L 122.628501 245.839578 
L 123.279111 247.117804 
L 123.929721 245.001691 
L 124.580332 244.147772 
L 125.230942 240.909621 
L 125.881552 249.673584 
L 126.532163 247.080508 
L 127.182773 245.038677 
L 127.833383 245.012564 
L 128.483993 242.175888 
L 130.435824 239.325952 
L 131.737045 236.661207 
L 132.387655 236.82702 
L 133.038266 235.876106 
L 133.688876 234.195582 
L 134.339486 237.571703 
L 134.990097 237.757404 
L 135.640707 240.742653 
L 136.291317 241.600764 
L 136.941927 239.478086 
L 137.592538 238.562633 
L 138.243148 240.336982 
L 138.893758 238.044955 
L 139.544369 236.859585 
L 140.194979 243.095025 
L 140.845589 242.384783 
L 141.4962 245.75966 
L 142.14681 244.667356 
L 142.79742 245.064112 
L 143.448031 244.18733 
L 144.098641 241.165125 
L 145.399862 233.656146 
L 146.050472 232.377709 
L 146.701082 232.989987 
L 147.351692 232.137696 
L 148.002303 228.743226 
L 148.652913 224.182978 
L 149.303523 223.531514 
L 149.954134 223.815611 
L 150.604744 226.994559 
L 151.255354 225.510397 
L 151.905965 221.013826 
L 152.556575 222.351042 
L 153.207185 220.788508 
L 154.508406 218.667577 
L 155.159016 219.65212 
L 155.809627 217.834878 
L 156.460237 220.186026 
L 157.110847 218.540223 
L 157.761457 222.546971 
L 159.062678 214.200395 
L 159.713288 216.032331 
L 160.363899 217.242193 
L 161.014509 220.475022 
L 161.665119 217.883861 
L 162.31573 216.22826 
L 163.61695 217.957334 
L 164.267561 218.241431 
L 164.918171 217.825082 
L 165.568781 220.558291 
L 166.219392 227.401112 
L 166.870002 226.725157 
L 167.520612 226.597803 
L 168.171222 220.553393 
L 168.821833 222.238383 
L 169.472443 220.499513 
L 170.123053 222.248179 
L 170.773664 220.906065 
L 171.424274 222.106131 
L 172.074884 220.367261 
L 172.725495 222.806577 
L 173.376105 219.299448 
L 174.026715 218.074891 
L 174.677326 217.178516 
L 175.327936 219.020249 
L 175.978546 226.078591 
L 176.629156 221.209755 
L 177.279767 218.295311 
L 177.930377 217.893657 
L 178.580987 215.111465 
L 179.231598 211.158597 
L 179.882208 210.080988 
L 180.532818 210.409169 
L 181.183429 208.831941 
L 181.834039 208.190273 
L 182.484649 208.836839 
L 183.13526 209.889957 
L 183.78587 209.488303 
L 184.43648 210.595302 
L 185.087091 210.825518 
L 185.737701 213.348104 
L 186.388311 217.712423 
L 187.038921 221.136282 
L 187.689532 220.621968 
L 188.340142 220.685645 
L 188.990752 219.559054 
L 189.641363 220.636663 
L 190.291973 220.362362 
L 190.942583 226.984763 
L 191.593194 223.252315 
L 192.243804 225.113641 
L 192.894414 225.58387 
L 193.545025 226.739852 
L 194.195635 227.357028 
L 194.846245 227.04844 
L 196.147466 237.075107 
L 196.798076 238.270274 
L 197.448686 237.736367 
L 198.099297 238.11353 
L 199.400517 242.22804 
L 200.051128 236.502014 
L 200.701738 234.52803 
L 201.352348 232.088713 
L 202.002959 233.181018 
L 202.653569 233.347557 
L 203.304179 235.625232 
L 203.95479 232.896921 
L 204.6054 237.966584 
L 205.25601 239.372374 
L 205.906621 237.491456 
L 206.557231 246.288668 
L 207.207841 243.41341 
L 207.858451 242.370088 
L 208.509062 244.49102 
L 209.159672 248.727984 
L 209.810282 249.212909 
L 210.460893 248.6839 
L 211.111503 249.315771 
L 211.762113 249.217807 
L 212.412724 248.772068 
L 213.063334 248.502666 
L 213.713944 245.470665 
L 214.364555 244.290192 
L 215.015165 247.919777 
L 215.665775 253.552736 
L 216.316385 254.331554 
L 216.966996 257.495807 
L 217.617606 256.565145 
L 218.268216 259.949818 
L 218.918827 257.348861 
L 219.569437 260.194729 
L 220.220047 267.91923 
L 220.870658 269.986281 
L 221.521268 273.498309 
L 222.171878 275.64863 
L 222.822489 275.609444 
L 223.473099 273.184822 
L 224.123709 276.740934 
L 224.77432 277.588327 
L 225.42493 276.574394 
L 226.07554 275.864152 
L 226.72615 271.661474 
L 227.376761 274.340804 
L 228.027371 272.949708 
L 228.677981 269.075212 
L 229.328592 268.413951 
L 229.979202 268.090668 
L 230.629812 268.982145 
L 231.280423 265.293782 
L 231.931033 260.322083 
L 232.581643 261.962989 
L 233.232254 265.406441 
L 233.882864 267.022855 
L 234.533474 267.20409 
L 235.184085 268.242513 
L 235.834695 268.271903 
L 236.485305 267.855553 
L 237.135915 268.007398 
L 237.786526 270.098941 
L 238.437136 268.551101 
L 239.087746 270.657338 
L 239.738357 275.413515 
L 240.388967 276.706646 
L 241.039577 276.721341 
L 241.690188 271.09328 
L 242.340798 271.000214 
L 242.991408 273.733424 
L 243.642019 270.285073 
L 244.292629 269.560136 
L 244.943239 271.73005 
L 245.59385 273.326871 
L 246.89507 270.402631 
L 247.54568 271.818218 
L 248.196291 270.544679 
L 248.846901 270.686728 
L 249.497511 270.035264 
L 250.148122 274.776746 
L 250.798732 275.624139 
L 251.449342 278.73941 
L 252.099953 273.101553 
L 252.750563 272.239465 
L 253.401173 272.695 
L 254.051784 275.016759 
L 254.702394 272.99869 
L 255.353004 271.78393 
L 256.003615 269.858928 
L 256.654225 264.750079 
L 257.304835 261.722976 
L 257.955445 263.47654 
L 258.606056 263.295306 
L 259.256666 266.224444 
L 259.907276 266.635895 
L 260.557887 265.21541 
L 261.208497 259.151407 
L 261.859107 254.816478 
L 262.509718 256.814954 
L 263.160328 259.430606 
L 263.810938 259.102425 
L 264.461549 258.534231 
L 265.112159 256.638618 
L 265.762769 260.890277 
L 266.413379 261.6544 
L 267.06399 259.25427 
L 267.7146 255.433654 
L 268.36521 255.756937 
L 269.015821 253.400891 
L 269.666431 255.286708 
L 270.317041 251.446499 
L 270.967652 249.570479 
L 271.618262 248.370414 
L 272.268872 241.312071 
L 272.919483 243.864047 
L 273.570093 245.044519 
L 274.220703 244.344073 
L 274.871314 242.952977 
L 275.521924 242.36519 
L 276.172534 240.401002 
L 276.823144 240.925112 
L 277.473755 240.391205 
L 278.124365 243.834657 
L 278.774975 244.055077 
L 279.425586 243.281158 
L 280.076196 250.163164 
L 280.726806 247.841406 
L 281.377417 241.258191 
L 282.028027 240.836944 
L 282.678637 238.402526 
L 283.329248 240.920213 
L 283.979858 235.507675 
L 284.630468 237.236748 
L 285.281079 236.614674 
L 286.582299 234.043105 
L 287.232909 233.548385 
L 287.88352 232.647111 
L 289.18474 231.339285 
L 289.835351 229.781649 
L 290.485961 230.104932 
L 291.136571 229.316318 
L 291.787182 234.248831 
L 292.437792 235.551759 
L 293.088402 236.408948 
L 293.739013 242.531729 
L 294.389623 242.11538 
L 295.040233 241.37085 
L 295.690844 241.478611 
L 296.341454 240.420594 
L 296.992064 241.831283 
L 297.642674 240.645913 
L 298.293285 238.172309 
L 298.943895 237.447372 
L 299.594505 238.716012 
L 300.245116 235.845652 
L 300.895726 242.428867 
L 301.546336 243.859148 
L 302.196947 243.85425 
L 302.847557 246.822575 
L 303.498167 244.202024 
L 304.148778 244.956351 
L 305.449998 239.705454 
L 306.100608 239.573201 
L 307.401829 240.484271 
L 308.052439 240.699793 
L 308.70305 239.656471 
L 309.35366 239.783825 
L 310.00427 240.219767 
L 310.654881 239.803418 
L 311.305491 244.574289 
L 311.956101 246.298465 
L 312.606712 246.67073 
L 313.257322 244.926962 
L 313.907932 248.669206 
L 314.558543 247.576901 
L 315.209153 248.772068 
L 315.859763 243.016654 
L 316.510373 242.512137 
L 317.160984 237.501252 
L 317.811594 237.716774 
L 318.462204 237.80984 
L 319.112815 242.36519 
L 319.763425 238.412322 
L 320.414035 239.857299 
L 321.064646 240.371612 
L 321.715256 242.698269 
L 322.365866 242.174159 
L 323.016477 242.884402 
L 323.667087 239.014804 
L 324.317697 241.047567 
L 324.968308 236.23751 
L 325.618918 236.874279 
L 326.920138 239.406662 
L 327.570749 239.666268 
L 328.221359 240.778165 
L 328.871969 241.267987 
L 329.52258 240.934908 
L 330.17319 240.964297 
L 330.8238 245.176771 
L 331.474411 248.228365 
L 332.125021 247.268313 
L 332.775631 247.121366 
L 333.426242 248.453684 
L 334.076852 251.764884 
L 334.727462 252.969847 
L 335.378073 250.902796 
L 336.028683 251.216283 
L 336.679293 252.842493 
L 337.329903 252.587786 
L 337.980514 255.320995 
L 338.631124 253.797647 
L 339.281734 256.016543 
L 339.932345 255.585499 
L 340.582955 251.838357 
L 341.233565 255.325894 
L 341.884176 256.525959 
L 342.534786 257.476214 
L 343.185396 254.669531 
L 343.836007 254.698921 
L 344.486617 254.94873 
L 345.137227 258.157068 
L 345.787837 254.111134 
L 346.438448 250.941982 
L 347.089058 251.80407 
L 347.739668 247.875693 
L 348.390279 248.203874 
L 349.040889 249.98193 
L 349.691499 253.048219 
L 350.34211 253.204962 
L 350.99272 251.19669 
L 351.64333 245.642102 
L 352.293941 245.598018 
L 352.944551 243.202786 
L 353.595161 246.004571 
L 354.245772 247.371176 
L 354.896382 246.989114 
L 355.546992 249.918253 
L 356.197602 250.354195 
L 356.848213 247.669968 
L 357.498823 243.741591 
L 358.149433 244.941656 
L 359.450654 241.155328 
L 360.101264 243.290954 
L 360.751875 242.967672 
L 362.053095 243.183193 
L 362.703706 244.383259 
L 363.354316 247.234026 
L 364.004926 246.357243 
L 364.655537 247.072384 
L 365.306147 250.359093 
L 365.956757 250.275823 
L 367.257978 241.45412 
L 367.908588 246.416022 
L 368.559198 244.613475 
L 369.209809 244.740829 
L 369.860419 245.367802 
L 370.511029 249.056165 
L 371.81225 246.14662 
L 373.113471 249.046369 
L 373.764081 252.85229 
L 374.414691 252.377162 
L 375.065302 252.538803 
L 375.715912 251.245672 
L 376.366522 252.122454 
L 377.017132 245.323718 
L 377.667743 241.023076 
L 378.318353 240.729183 
L 378.968963 240.033635 
L 379.619574 236.98204 
L 380.270184 242.619898 
L 380.920794 242.600305 
L 381.571405 240.890824 
L 382.222015 239.54871 
L 382.872625 237.765756 
L 383.523236 238.877654 
L 384.173846 243.065636 
L 384.824456 240.420594 
L 385.475066 240.337325 
L 386.125677 242.8893 
L 386.776287 241.943942 
L 387.426897 243.408512 
L 388.077508 244.275498 
L 388.728118 242.326004 
L 389.378728 245.426581 
L 390.029339 243.462392 
L 390.679949 244.971046 
L 392.63178 248.052029 
L 393.28239 248.130401 
L 393.933001 242.987264 
L 394.583611 241.796996 
L 395.234221 243.491782 
L 395.884831 240.895722 
L 397.186052 233.249593 
L 397.836662 236.291391 
L 398.487273 236.62447 
L 398.487273 236.62447 
" clip-path="url(#pe47d4e1f17)" style="fill: none; stroke: #1f77b4; stroke-width: 1.5; stroke-linecap: square"/>
   </g>
   <g id="line2d_24">
    <path d="M 73.832727 56.335497 
L 74.483338 61.282705 
L 75.133948 54.0268 
L 75.784558 149.466676 
L 77.085779 99.788469 
L 77.736389 87.290881 
L 78.386999 89.296266 
L 79.03761 76.674016 
L 79.68822 79.834732 
L 80.33883 79.1826 
L 80.989441 81.112761 
L 81.640051 80.044037 
L 82.290661 71.106445 
L 84.242492 62.068438 
L 84.893103 62.382084 
L 85.543713 59.486087 
L 86.194323 61.233233 
L 86.844934 58.761985 
L 87.495544 57.549812 
L 88.796764 71.342026 
L 89.447375 82.911895 
L 90.097985 85.44791 
L 90.748595 82.793895 
L 91.399206 83.474463 
L 92.049816 88.304693 
L 93.351037 82.523779 
L 94.001647 78.752531 
L 94.652257 76.828929 
L 95.302868 74.53831 
L 95.953478 71.784919 
L 96.604088 70.778594 
L 97.254698 69.238349 
L 97.905309 77.59547 
L 98.555919 83.773471 
L 99.206529 83.075153 
L 99.85714 81.819648 
L 100.50775 82.296557 
L 101.15836 83.487612 
L 101.808971 82.971712 
L 102.459581 82.951473 
L 103.110191 81.318895 
L 103.760802 83.050417 
L 104.411412 82.359869 
L 105.062022 81.091727 
L 105.712633 83.089995 
L 106.363243 81.090935 
L 107.013853 80.472161 
L 107.664463 79.624709 
L 108.965684 77.293667 
L 109.616294 76.972419 
L 110.266905 76.775275 
L 110.917515 78.162917 
L 111.568125 77.633644 
L 112.218736 76.256252 
L 112.869346 75.451182 
L 113.519956 76.906305 
L 114.170567 76.791807 
L 114.821177 75.188995 
L 115.471787 77.311657 
L 116.122398 76.394174 
L 117.423618 76.378962 
L 118.074228 77.952643 
L 118.724839 78.915965 
L 119.375449 83.684496 
L 120.026059 82.906124 
L 120.67667 81.742457 
L 121.32728 81.586311 
L 121.97789 82.417175 
L 123.279111 80.551114 
L 123.929721 81.230099 
L 124.580332 79.931798 
L 125.230942 79.90894 
L 125.881552 81.102072 
L 126.532163 82.555696 
L 127.182773 81.226507 
L 127.833383 81.701714 
L 128.483993 89.254797 
L 129.134604 89.464529 
L 129.785214 88.37293 
L 130.435824 87.626584 
L 131.086435 88.553491 
L 132.387655 86.817906 
L 133.038266 85.809023 
L 133.688876 85.651691 
L 134.339486 86.002953 
L 134.990097 85.20115 
L 135.640707 85.621934 
L 136.291317 84.876294 
L 136.941927 86.155042 
L 138.243148 84.485107 
L 138.893758 84.333752 
L 139.544369 86.586936 
L 140.194979 85.817914 
L 140.845589 91.73497 
L 141.4962 87.551886 
L 142.14681 88.178859 
L 142.79742 88.25723 
L 143.448031 90.054879 
L 144.098641 89.290756 
L 144.749251 89.486685 
L 145.399862 93.459146 
L 147.351692 92.161116 
L 148.652913 93.184845 
L 149.303523 94.766972 
L 149.954134 94.904122 
L 150.604744 94.022441 
L 151.255354 94.198778 
L 151.905965 93.630583 
L 152.556575 93.483637 
L 153.207185 93.042796 
L 153.857796 91.725174 
L 154.508406 89.584649 
L 155.159016 88.095589 
L 155.809627 89.927525 
L 156.460237 89.222181 
L 157.110847 88.198452 
L 157.761457 87.556784 
L 158.412068 87.591072 
L 159.062678 87.747815 
L 159.713288 89.966711 
L 160.363899 90.574091 
L 161.014509 91.872121 
L 161.665119 93.704057 
L 162.31573 93.513026 
L 162.96634 94.051831 
L 163.61695 90.481025 
L 164.267561 87.561682 
L 165.568781 86.60163 
L 166.219392 87.84578 
L 166.870002 86.670206 
L 168.171222 85.959963 
L 168.821833 86.753475 
L 170.123053 86.053029 
L 170.773664 88.546226 
L 171.424274 86.263653 
L 172.074884 86.665307 
L 172.725495 85.837507 
L 173.376105 89.173199 
L 174.026715 89.11442 
L 174.677326 89.780578 
L 175.327936 89.511176 
L 175.978546 91.348011 
L 176.629156 91.867222 
L 177.279767 91.578227 
L 177.930377 91.465568 
L 178.580987 92.278673 
L 179.231598 90.8239 
L 179.882208 90.774918 
L 180.532818 90.402653 
L 181.183429 89.320145 
L 183.78587 88.330704 
L 184.43648 87.630258 
L 185.087091 83.76066 
L 185.737701 83.177771 
L 187.038921 84.681526 
L 187.689532 83.67739 
L 188.340142 84.794185 
L 188.990752 84.828473 
L 189.641363 83.966385 
L 190.291973 84.691323 
L 190.942583 84.172111 
L 192.243804 80.655185 
L 192.894414 82.281396 
L 193.545025 80.738455 
L 194.195635 74.380559 
L 194.846245 73.489082 
L 195.496856 73.342135 
L 196.147466 74.571589 
L 196.798076 73.7144 
L 197.448686 75.864721 
L 198.099297 76.36434 
L 198.749907 76.413322 
L 199.400517 75.399389 
L 200.051128 75.45327 
L 200.701738 76.957025 
L 201.352348 75.45327 
L 202.002959 75.801044 
L 202.653569 76.672928 
L 203.304179 78.504864 
L 203.95479 86.131401 
L 204.6054 86.082418 
L 205.25601 83.584324 
L 205.906621 84.857862 
L 206.557231 78.558745 
L 207.207841 79.06816 
L 207.858451 77.961161 
L 208.509062 79.175921 
L 209.159672 77.750538 
L 209.810282 77.995449 
L 210.460893 78.896722 
L 211.111503 74.395253 
L 211.762113 74.292391 
L 212.412724 75.727571 
L 213.063334 76.129225 
L 213.713944 79.450222 
L 214.364555 83.755762 
L 215.015165 82.800608 
L 216.316385 85.450547 
L 216.966996 86.028538 
L 217.617606 86.209772 
L 218.268216 86.542852 
L 218.918827 88.894 
L 219.569437 87.933948 
L 220.220047 88.825425 
L 221.521268 85.411362 
L 222.171878 87.561682 
L 222.822489 89.1683 
L 224.123709 89.03115 
L 224.77432 89.481787 
L 225.42493 88.438465 
L 226.07554 88.178859 
L 226.72615 86.626121 
L 227.376761 85.950166 
L 228.027371 92.59216 
L 228.677981 92.420722 
L 229.328592 92.087643 
L 229.979202 92.112134 
L 230.629812 92.665633 
L 231.280423 93.767734 
L 231.931033 92.131727 
L 232.581643 93.150557 
L 233.232254 93.013407 
L 233.882864 92.312961 
L 234.533474 91.382298 
L 235.184085 91.29413 
L 235.834695 91.54394 
L 236.485305 89.173199 
L 237.135915 89.844255 
L 237.786526 92.557872 
L 238.437136 92.89585 
L 239.087746 88.791137 
L 239.738357 89.614039 
L 240.388967 88.854814 
L 241.039577 88.668681 
L 242.340798 84.759898 
L 243.642019 84.676628 
L 244.292629 83.84393 
L 244.943239 83.45697 
L 245.59385 86.498768 
L 246.24446 86.98859 
L 247.54568 88.825425 
L 248.196291 88.071098 
L 248.846901 89.506278 
L 249.497511 92.489297 
L 250.148122 93.904884 
L 250.798732 94.497569 
L 251.449342 96.020917 
L 252.099953 95.947444 
L 252.750563 94.502468 
L 253.401173 94.340826 
L 254.051784 92.792987 
L 254.702394 93.948968 
L 255.353004 94.63472 
L 256.003615 97.847955 
L 256.654225 98.16634 
L 257.304835 98.097765 
L 257.955445 97.887141 
L 258.606056 97.206288 
L 259.256666 97.583451 
L 259.907276 96.799735 
L 260.557887 104.284223 
L 261.208497 105.851655 
L 261.859107 104.205852 
L 262.509718 103.995228 
L 263.160328 102.511066 
L 263.810938 104.068701 
L 264.461549 104.504643 
L 265.112159 106.806809 
L 265.762769 106.410053 
L 266.413379 105.709607 
L 267.06399 106.821504 
L 267.7146 106.414951 
L 268.36521 103.799299 
L 269.015821 102.22207 
L 269.666431 95.408639 
L 270.317041 97.314049 
L 270.967652 99.802347 
L 271.618262 98.215322 
L 272.268872 98.847193 
L 272.919483 99.895413 
L 273.570093 101.702858 
L 274.220703 101.844907 
L 275.521924 100.331355 
L 276.823144 101.991854 
L 277.473755 102.026141 
L 278.124365 99.998276 
L 278.774975 99.704383 
L 279.425586 96.589111 
L 280.076196 92.72931 
L 280.726806 91.725174 
L 281.377417 91.196166 
L 282.028027 91.166776 
L 282.678637 90.000999 
L 283.329248 89.339738 
L 283.979858 89.11442 
L 284.630468 89.516074 
L 285.281079 90.701445 
L 285.931689 90.63287 
L 286.582299 91.083506 
L 287.88352 89.697309 
L 288.53413 90.103861 
L 289.18474 88.267027 
L 289.835351 89.663021 
L 290.485961 89.187893 
L 291.136571 88.134775 
L 291.787182 88.874407 
L 292.437792 88.962575 
L 293.088402 87.689036 
L 293.739013 82.203024 
L 294.389623 82.663457 
L 295.040233 82.575289 
L 296.341454 83.011231 
L 296.992064 82.109958 
L 297.642674 81.571153 
L 298.943895 81.865047 
L 299.594505 82.139347 
L 300.245116 82.692847 
L 300.895726 83.569629 
L 301.546336 83.995775 
L 302.196947 86.361617 
L 302.847557 87.027776 
L 303.498167 84.740305 
L 304.148778 84.534579 
L 304.799388 86.395905 
L 306.100608 85.092977 
L 306.751219 85.27911 
L 307.401829 85.092977 
L 308.70305 86.885727 
L 309.35366 86.728984 
L 310.00427 86.180383 
L 310.654881 87.017979 
L 311.305491 85.205636 
L 311.956101 85.210534 
L 312.606712 84.58846 
L 313.257322 83.706779 
L 313.907932 84.94603 
L 314.558543 84.897048 
L 315.209153 80.307411 
L 315.859763 78.715488 
L 316.510373 78.857536 
L 317.160984 79.249394 
L 317.811594 81.811166 
L 318.462204 81.620135 
L 319.112815 81.693609 
L 319.763425 84.221093 
L 320.414035 84.14762 
L 321.064646 83.065112 
L 321.715256 79.837181 
L 322.365866 79.915553 
L 323.016477 80.351495 
L 323.667087 82.864285 
L 324.968308 83.628408 
L 325.618918 83.579425 
L 326.269528 77.505626 
L 326.920138 76.413322 
L 328.221359 77.084379 
L 328.871969 76.486795 
L 329.52258 75.379797 
L 330.17319 75.06631 
L 330.8238 73.606639 
L 331.474411 74.18463 
L 332.125021 73.420506 
L 332.775631 77.623184 
L 333.426242 77.402764 
L 334.076852 77.990551 
L 334.727462 78.039533 
L 335.378073 77.63298 
L 336.028683 75.414084 
L 336.679293 72.352693 
L 337.329903 73.675214 
L 338.631124 74.512811 
L 339.281734 74.326678 
L 339.932345 72.911091 
L 340.582955 74.67935 
L 341.233565 74.968346 
L 341.884176 73.376422 
L 342.534786 72.284118 
L 343.185396 74.424643 
L 343.836007 75.007531 
L 345.137227 75.110394 
L 345.787837 74.199324 
L 346.438448 74.160138 
L 347.089058 72.675976 
L 347.739668 72.930684 
L 348.390279 72.44576 
L 349.040889 72.710264 
L 349.691499 73.185392 
L 350.34211 70.37381 
L 350.99272 71.794296 
L 351.64333 71.09385 
L 352.293941 70.07012 
L 352.944551 70.334625 
L 353.595161 69.883988 
L 354.245772 68.169609 
L 354.896382 68.154914 
L 355.546992 67.263437 
L 356.848213 67.459366 
L 357.498823 66.724633 
L 358.149433 67.704278 
L 358.800044 68.145118 
L 360.101264 66.391553 
L 360.751875 67.22915 
L 361.402485 66.773615 
L 362.053095 67.483858 
L 362.703706 67.635703 
L 363.354316 67.155677 
L 364.004926 68.14022 
L 364.655537 67.723871 
L 365.306147 67.738565 
L 365.956757 67.332013 
L 366.607367 65.465789 
L 367.257978 65.230674 
L 367.908588 63.241995 
L 368.559198 62.174182 
L 369.209809 61.963558 
L 369.860419 63.472211 
L 370.511029 61.904779 
L 371.16164 62.257451 
L 371.81225 64.618396 
L 372.46286 65.397214 
L 373.113471 66.5385 
L 373.764081 67.356504 
L 374.414691 67.234048 
L 375.065302 67.875716 
L 375.715912 70.226864 
L 376.366522 69.800718 
L 377.017132 68.507587 
L 377.667743 69.438249 
L 378.318353 69.369674 
L 378.968963 69.746838 
L 379.619574 68.894546 
L 380.270184 69.678262 
L 380.920794 69.800718 
L 381.571405 69.350081 
L 382.222015 68.36064 
L 382.872625 67.591619 
L 383.523236 64.618396 
L 384.173846 64.936781 
L 384.824456 64.393078 
L 385.475066 62.169283 
L 386.125677 61.155351 
L 386.776287 63.246893 
L 387.426897 63.39384 
L 388.077508 62.561141 
L 388.728118 62.492566 
L 389.378728 60.102232 
L 390.029339 59.147078 
L 390.679949 60.214892 
L 391.330559 59.543835 
L 391.98117 58.431938 
L 392.63178 57.976403 
L 393.28239 57.824558 
L 393.933001 57.324939 
L 394.583611 57.947013 
L 395.884831 57.525766 
L 396.535442 57.800067 
L 397.186052 56.854709 
L 397.836662 57.324939 
L 398.487273 53.568 
L 398.487273 53.568 
" clip-path="url(#pe47d4e1f17)" style="fill: none; stroke: #ff7f0e; stroke-width: 1.5; stroke-linecap: square"/>
   </g>
   <g id="patch_3">
    <path d="M 57.6 307.584 
L 57.6 41.472 
" style="fill: none; stroke: #000000; stroke-width: 0.8; stroke-linejoin: miter; stroke-linecap: square"/>
   </g>
   <g id="patch_4">
    <path d="M 414.72 307.584 
L 414.72 41.472 
" style="fill: none; stroke: #000000; stroke-width: 0.8; stroke-linejoin: miter; stroke-linecap: square"/>
   </g>
   <g id="patch_5">
    <path d="M 57.6 307.584 
L 414.72 307.584 
" style="fill: none; stroke: #000000; stroke-width: 0.8; stroke-linejoin: miter; stroke-linecap: square"/>
   </g>
   <g id="patch_6">
    <path d="M 57.6 41.472 
L 414.72 41.472 
" style="fill: none; stroke: #000000; stroke-width: 0.8; stroke-linejoin: miter; stroke-linecap: square"/>
   </g>
   <g id="text_14">
    <!-- Rolling average monitoring progress of profits/storage_cost -->
    <g transform="translate(58.114688 35.472)scale(0.12 -0.12)">
     <defs>
      <path id="DejaVuSans-52" d="M 2841 2188 
Q 3044 2119 3236 1894 
Q 3428 1669 3622 1275 
L 4263 0 
L 3584 0 
L 2988 1197 
Q 2756 1666 2539 1819 
Q 2322 1972 1947 1972 
L 1259 1972 
L 1259 0 
L 628 0 
L 628 4666 
L 2053 4666 
Q 2853 4666 3247 4331 
Q 3641 3997 3641 3322 
Q 3641 2881 3436 2590 
Q 3231 2300 2841 2188 
z
M 1259 4147 
L 1259 2491 
L 2053 2491 
Q 2509 2491 2742 2702 
Q 2975 2913 2975 3322 
Q 2975 3731 2742 3939 
Q 2509 4147 2053 4147 
L 1259 4147 
z
" transform="scale(0.015625)"/>
      <path id="DejaVuSans-6c" d="M 603 4863 
L 1178 4863 
L 1178 0 
L 603 0 
L 603 4863 
z
" transform="scale(0.015625)"/>
      <path id="DejaVuSans-6e" d="M 3513 2113 
L 3513 0 
L 2938 0 
L 2938 2094 
Q 2938 2591 2744 2837 
Q 2550 3084 2163 3084 
Q 1697 3084 1428 2787 
Q 1159 2491 1159 1978 
L 1159 0 
L 581 0 
L 581 3500 
L 1159 3500 
L 1159 2956 
Q 1366 3272 1645 3428 
Q 1925 3584 2291 3584 
Q 2894 3584 3203 3211 
Q 3513 2838 3513 2113 
z
" transform="scale(0.015625)"/>
      <path id="DejaVuSans-20" transform="scale(0.015625)"/>
      <path id="DejaVuSans-76" d="M 191 3500 
L 800 3500 
L 1894 563 
L 2988 3500 
L 3597 3500 
L 2284 0 
L 1503 0 
L 191 3500 
z
" transform="scale(0.015625)"/>
      <path id="DejaVuSans-6d" d="M 3328 2828 
Q 3544 3216 3844 3400 
Q 4144 3584 4550 3584 
Q 5097 3584 5394 3201 
Q 5691 2819 5691 2113 
L 5691 0 
L 5113 0 
L 5113 2094 
Q 5113 2597 4934 2840 
Q 4756 3084 4391 3084 
Q 3944 3084 3684 2787 
Q 3425 2491 3425 1978 
L 3425 0 
L 2847 0 
L 2847 2094 
Q 2847 2600 2669 2842 
Q 2491 3084 2119 3084 
Q 1678 3084 1418 2786 
Q 1159 2488 1159 1978 
L 1159 0 
L 581 0 
L 581 3500 
L 1159 3500 
L 1159 2956 
Q 1356 3278 1631 3431 
Q 1906 3584 2284 3584 
Q 2666 3584 2933 3390 
Q 3200 3197 3328 2828 
z
" transform="scale(0.015625)"/>
     </defs>
     <use xlink:href="#DejaVuSans-52"/>
     <use xlink:href="#DejaVuSans-6f" x="64.982422"/>
     <use xlink:href="#DejaVuSans-6c" x="126.164062"/>
     <use xlink:href="#DejaVuSans-6c" x="153.947266"/>
     <use xlink:href="#DejaVuSans-69" x="181.730469"/>
     <use xlink:href="#DejaVuSans-6e" x="209.513672"/>
     <use xlink:href="#DejaVuSans-67" x="272.892578"/>
     <use xlink:href="#DejaVuSans-20" x="336.369141"/>
     <use xlink:href="#DejaVuSans-61" x="368.15625"/>
     <use xlink:href="#DejaVuSans-76" x="429.435547"/>
     <use xlink:href="#DejaVuSans-65" x="488.615234"/>
     <use xlink:href="#DejaVuSans-72" x="550.138672"/>
     <use xlink:href="#DejaVuSans-61" x="591.251953"/>
     <use xlink:href="#DejaVuSans-67" x="652.53125"/>
     <use xlink:href="#DejaVuSans-65" x="716.007812"/>
     <use xlink:href="#DejaVuSans-20" x="777.53125"/>
     <use xlink:href="#DejaVuSans-6d" x="809.318359"/>
     <use xlink:href="#DejaVuSans-6f" x="906.730469"/>
     <use xlink:href="#DejaVuSans-6e" x="967.912109"/>
     <use xlink:href="#DejaVuSans-69" x="1031.291016"/>
     <use xlink:href="#DejaVuSans-74" x="1059.074219"/>
     <use xlink:href="#DejaVuSans-6f" x="1098.283203"/>
     <use xlink:href="#DejaVuSans-72" x="1159.464844"/>
     <use xlink:href="#DejaVuSans-69" x="1200.578125"/>
     <use xlink:href="#DejaVuSans-6e" x="1228.361328"/>
     <use xlink:href="#DejaVuSans-67" x="1291.740234"/>
     <use xlink:href="#DejaVuSans-20" x="1355.216797"/>
     <use xlink:href="#DejaVuSans-70" x="1387.003906"/>
     <use xlink:href="#DejaVuSans-72" x="1450.480469"/>
     <use xlink:href="#DejaVuSans-6f" x="1489.34375"/>
     <use xlink:href="#DejaVuSans-67" x="1550.525391"/>
     <use xlink:href="#DejaVuSans-72" x="1614.001953"/>
     <use xlink:href="#DejaVuSans-65" x="1652.865234"/>
     <use xlink:href="#DejaVuSans-73" x="1714.388672"/>
     <use xlink:href="#DejaVuSans-73" x="1766.488281"/>
     <use xlink:href="#DejaVuSans-20" x="1818.587891"/>
     <use xlink:href="#DejaVuSans-6f" x="1850.375"/>
     <use xlink:href="#DejaVuSans-66" x="1911.556641"/>
     <use xlink:href="#DejaVuSans-20" x="1946.761719"/>
     <use xlink:href="#DejaVuSans-70" x="1978.548828"/>
     <use xlink:href="#DejaVuSans-72" x="2042.025391"/>
     <use xlink:href="#DejaVuSans-6f" x="2080.888672"/>
     <use xlink:href="#DejaVuSans-66" x="2142.070312"/>
     <use xlink:href="#DejaVuSans-69" x="2177.275391"/>
     <use xlink:href="#DejaVuSans-74" x="2205.058594"/>
     <use xlink:href="#DejaVuSans-73" x="2244.267578"/>
     <use xlink:href="#DejaVuSans-2f" x="2296.367188"/>
     <use xlink:href="#DejaVuSans-73" x="2330.058594"/>
     <use xlink:href="#DejaVuSans-74" x="2382.158203"/>
     <use xlink:href="#DejaVuSans-6f" x="2421.367188"/>
     <use xlink:href="#DejaVuSans-72" x="2482.548828"/>
     <use xlink:href="#DejaVuSans-61" x="2523.662109"/>
     <use xlink:href="#DejaVuSans-67" x="2584.941406"/>
     <use xlink:href="#DejaVuSans-65" x="2648.417969"/>
     <use xlink:href="#DejaVuSans-5f" x="2709.941406"/>
     <use xlink:href="#DejaVuSans-63" x="2759.941406"/>
     <use xlink:href="#DejaVuSans-6f" x="2814.921875"/>
     <use xlink:href="#DejaVuSans-73" x="2876.103516"/>
     <use xlink:href="#DejaVuSans-74" x="2928.203125"/>
    </g>
   </g>
   <g id="legend_1">
    <g id="patch_7">
     <path d="M 284.430938 302.584 
L 407.72 302.584 
Q 409.72 302.584 409.72 300.584 
L 409.72 272.22775 
Q 409.72 270.22775 407.72 270.22775 
L 284.430938 270.22775 
Q 282.430938 270.22775 282.430938 272.22775 
L 282.430938 300.584 
Q 282.430938 302.584 284.430938 302.584 
z
" style="fill: #ffffff; opacity: 0.8; stroke: #cccccc; stroke-linejoin: miter"/>
    </g>
    <g id="line2d_25">
     <path d="M 286.430938 278.326187 
L 296.430938 278.326187 
L 306.430938 278.326187 
" style="fill: none; stroke: #1f77b4; stroke-width: 1.5; stroke-linecap: square"/>
    </g>
    <g id="text_15">
     <!-- SACAgent -->
     <g transform="translate(314.430938 281.826187)scale(0.1 -0.1)">
      <defs>
       <path id="DejaVuSans-53" d="M 3425 4513 
L 3425 3897 
Q 3066 4069 2747 4153 
Q 2428 4238 2131 4238 
Q 1616 4238 1336 4038 
Q 1056 3838 1056 3469 
Q 1056 3159 1242 3001 
Q 1428 2844 1947 2747 
L 2328 2669 
Q 3034 2534 3370 2195 
Q 3706 1856 3706 1288 
Q 3706 609 3251 259 
Q 2797 -91 1919 -91 
Q 1588 -91 1214 -16 
Q 841 59 441 206 
L 441 856 
Q 825 641 1194 531 
Q 1563 422 1919 422 
Q 2459 422 2753 634 
Q 3047 847 3047 1241 
Q 3047 1584 2836 1778 
Q 2625 1972 2144 2069 
L 1759 2144 
Q 1053 2284 737 2584 
Q 422 2884 422 3419 
Q 422 4038 858 4394 
Q 1294 4750 2059 4750 
Q 2388 4750 2728 4690 
Q 3069 4631 3425 4513 
z
" transform="scale(0.015625)"/>
       <path id="DejaVuSans-41" d="M 2188 4044 
L 1331 1722 
L 3047 1722 
L 2188 4044 
z
M 1831 4666 
L 2547 4666 
L 4325 0 
L 3669 0 
L 3244 1197 
L 1141 1197 
L 716 0 
L 50 0 
L 1831 4666 
z
" transform="scale(0.015625)"/>
       <path id="DejaVuSans-43" d="M 4122 4306 
L 4122 3641 
Q 3803 3938 3442 4084 
Q 3081 4231 2675 4231 
Q 1875 4231 1450 3742 
Q 1025 3253 1025 2328 
Q 1025 1406 1450 917 
Q 1875 428 2675 428 
Q 3081 428 3442 575 
Q 3803 722 4122 1019 
L 4122 359 
Q 3791 134 3420 21 
Q 3050 -91 2638 -91 
Q 1578 -91 968 557 
Q 359 1206 359 2328 
Q 359 3453 968 4101 
Q 1578 4750 2638 4750 
Q 3056 4750 3426 4639 
Q 3797 4528 4122 4306 
z
" transform="scale(0.015625)"/>
      </defs>
      <use xlink:href="#DejaVuSans-53"/>
      <use xlink:href="#DejaVuSans-41" x="65.351562"/>
      <use xlink:href="#DejaVuSans-43" x="132.009766"/>
      <use xlink:href="#DejaVuSans-41" x="201.833984"/>
      <use xlink:href="#DejaVuSans-67" x="270.242188"/>
      <use xlink:href="#DejaVuSans-65" x="333.71875"/>
      <use xlink:href="#DejaVuSans-6e" x="395.242188"/>
      <use xlink:href="#DejaVuSans-74" x="458.621094"/>
     </g>
    </g>
    <g id="line2d_26">
     <path d="M 286.430938 293.004312 
L 296.430938 293.004312 
L 306.430938 293.004312 
" style="fill: none; stroke: #ff7f0e; stroke-width: 1.5; stroke-linecap: square"/>
    </g>
    <g id="text_16">
     <!-- Storage-Minimizer -->
     <g transform="translate(314.430938 296.504312)scale(0.1 -0.1)">
      <defs>
       <path id="DejaVuSans-2d" d="M 313 2009 
L 1997 2009 
L 1997 1497 
L 313 1497 
L 313 2009 
z
" transform="scale(0.015625)"/>
       <path id="DejaVuSans-4d" d="M 628 4666 
L 1569 4666 
L 2759 1491 
L 3956 4666 
L 4897 4666 
L 4897 0 
L 4281 0 
L 4281 4097 
L 3078 897 
L 2444 897 
L 1241 4097 
L 1241 0 
L 628 0 
L 628 4666 
z
" transform="scale(0.015625)"/>
       <path id="DejaVuSans-7a" d="M 353 3500 
L 3084 3500 
L 3084 2975 
L 922 459 
L 3084 459 
L 3084 0 
L 275 0 
L 275 525 
L 2438 3041 
L 353 3041 
L 353 3500 
z
" transform="scale(0.015625)"/>
      </defs>
      <use xlink:href="#DejaVuSans-53"/>
      <use xlink:href="#DejaVuSans-74" x="63.476562"/>
      <use xlink:href="#DejaVuSans-6f" x="102.685547"/>
      <use xlink:href="#DejaVuSans-72" x="163.867188"/>
      <use xlink:href="#DejaVuSans-61" x="204.980469"/>
      <use xlink:href="#DejaVuSans-67" x="266.259766"/>
      <use xlink:href="#DejaVuSans-65" x="329.736328"/>
      <use xlink:href="#DejaVuSans-2d" x="391.259766"/>
      <use xlink:href="#DejaVuSans-4d" x="427.34375"/>
      <use xlink:href="#DejaVuSans-69" x="513.623047"/>
      <use xlink:href="#DejaVuSans-6e" x="541.40625"/>
      <use xlink:href="#DejaVuSans-69" x="604.785156"/>
      <use xlink:href="#DejaVuSans-6d" x="632.568359"/>
      <use xlink:href="#DejaVuSans-69" x="729.980469"/>
      <use xlink:href="#DejaVuSans-7a" x="757.763672"/>
      <use xlink:href="#DejaVuSans-65" x="810.253906"/>
      <use xlink:href="#DejaVuSans-72" x="871.777344"/>
     </g>
    </g>
   </g>
  </g>
 </g>
 <defs>
  <clipPath id="pe47d4e1f17">
   <rect x="57.6" y="41.472" width="357.12" height="266.112"/>
  </clipPath>
 </defs>
</svg>
