<?xml version="1.0" encoding="utf-8" standalone="no"?>
<!DOCTYPE svg PUBLIC "-//W3C//DTD SVG 1.1//EN"
  "http://www.w3.org/Graphics/SVG/1.1/DTD/svg11.dtd">
<svg xmlns:xlink="http://www.w3.org/1999/xlink" width="460.8pt" height="345.6pt" viewBox="0 0 460.8 345.6" xmlns="http://www.w3.org/2000/svg" version="1.1">
 <metadata>
  <rdf:RDF xmlns:dc="http://purl.org/dc/elements/1.1/" xmlns:cc="http://creativecommons.org/ns#" xmlns:rdf="http://www.w3.org/1999/02/22-rdf-syntax-ns#">
   <cc:Work>
    <dc:type rdf:resource="http://purl.org/dc/dcmitype/StillImage"/>
    <dc:date>2022-06-23T13:41:42.119970</dc:date>
    <dc:format>image/svg+xml</dc:format>
    <dc:creator>
     <cc:Agent>
      <dc:title>Matplotlib v3.5.2, https://matplotlib.org/</dc:title>
     </cc:Agent>
    </dc:creator>
   </cc:Work>
  </rdf:RDF>
 </metadata>
 <defs>
  <style type="text/css">*{stroke-linejoin: round; stroke-linecap: butt}</style>
 </defs>
 <g id="figure_1">
  <g id="patch_1">
   <path d="M 0 345.6 
L 460.8 345.6 
L 460.8 0 
L 0 0 
L 0 345.6 
z
" style="fill: none"/>
  </g>
  <g id="axes_1">
   <g id="patch_2">
    <path d="M 57.6 307.584 
L 414.72 307.584 
L 414.72 41.472 
L 57.6 41.472 
L 57.6 307.584 
z
" style="fill: none"/>
   </g>
   <g id="matplotlib.axis_1">
    <g id="xtick_1">
     <g id="line2d_1">
      <path d="M 73.832727 307.584 
L 73.832727 41.472 
" clip-path="url(#p3c05dee8c4)" style="fill: none; stroke-dasharray: 2.96,1.28; stroke-dashoffset: 0; stroke: #b0b0b0; stroke-width: 0.8"/>
     </g>
     <g id="line2d_2">
      <defs>
       <path id="m869ea52c71" d="M 0 0 
L 0 3.5 
" style="stroke: #000000; stroke-width: 0.8"/>
      </defs>
      <g>
       <use xlink:href="#m869ea52c71" x="73.832727" y="307.584" style="stroke: #000000; stroke-width: 0.8"/>
      </g>
     </g>
     <g id="text_1">
      <!-- 0 -->
      <g transform="translate(70.651477 322.182437)scale(0.1 -0.1)">
       <defs>
        <path id="DejaVuSans-30" d="M 2034 4250 
Q 1547 4250 1301 3770 
Q 1056 3291 1056 2328 
Q 1056 1369 1301 889 
Q 1547 409 2034 409 
Q 2525 409 2770 889 
Q 3016 1369 3016 2328 
Q 3016 3291 2770 3770 
Q 2525 4250 2034 4250 
z
M 2034 4750 
Q 2819 4750 3233 4129 
Q 3647 3509 3647 2328 
Q 3647 1150 3233 529 
Q 2819 -91 2034 -91 
Q 1250 -91 836 529 
Q 422 1150 422 2328 
Q 422 3509 836 4129 
Q 1250 4750 2034 4750 
z
" transform="scale(0.015625)"/>
       </defs>
       <use xlink:href="#DejaVuSans-30"/>
      </g>
     </g>
    </g>
    <g id="xtick_2">
     <g id="line2d_3">
      <path d="M 138.893758 307.584 
L 138.893758 41.472 
" clip-path="url(#p3c05dee8c4)" style="fill: none; stroke-dasharray: 2.96,1.28; stroke-dashoffset: 0; stroke: #b0b0b0; stroke-width: 0.8"/>
     </g>
     <g id="line2d_4">
      <g>
       <use xlink:href="#m869ea52c71" x="138.893758" y="307.584" style="stroke: #000000; stroke-width: 0.8"/>
      </g>
     </g>
     <g id="text_2">
      <!-- 100 -->
      <g transform="translate(129.350008 322.182437)scale(0.1 -0.1)">
       <defs>
        <path id="DejaVuSans-31" d="M 794 531 
L 1825 531 
L 1825 4091 
L 703 3866 
L 703 4441 
L 1819 4666 
L 2450 4666 
L 2450 531 
L 3481 531 
L 3481 0 
L 794 0 
L 794 531 
z
" transform="scale(0.015625)"/>
       </defs>
       <use xlink:href="#DejaVuSans-31"/>
       <use xlink:href="#DejaVuSans-30" x="63.623047"/>
       <use xlink:href="#DejaVuSans-30" x="127.246094"/>
      </g>
     </g>
    </g>
    <g id="xtick_3">
     <g id="line2d_5">
      <path d="M 203.95479 307.584 
L 203.95479 41.472 
" clip-path="url(#p3c05dee8c4)" style="fill: none; stroke-dasharray: 2.96,1.28; stroke-dashoffset: 0; stroke: #b0b0b0; stroke-width: 0.8"/>
     </g>
     <g id="line2d_6">
      <g>
       <use xlink:href="#m869ea52c71" x="203.95479" y="307.584" style="stroke: #000000; stroke-width: 0.8"/>
      </g>
     </g>
     <g id="text_3">
      <!-- 200 -->
      <g transform="translate(194.41104 322.182437)scale(0.1 -0.1)">
       <defs>
        <path id="DejaVuSans-32" d="M 1228 531 
L 3431 531 
L 3431 0 
L 469 0 
L 469 531 
Q 828 903 1448 1529 
Q 2069 2156 2228 2338 
Q 2531 2678 2651 2914 
Q 2772 3150 2772 3378 
Q 2772 3750 2511 3984 
Q 2250 4219 1831 4219 
Q 1534 4219 1204 4116 
Q 875 4013 500 3803 
L 500 4441 
Q 881 4594 1212 4672 
Q 1544 4750 1819 4750 
Q 2544 4750 2975 4387 
Q 3406 4025 3406 3419 
Q 3406 3131 3298 2873 
Q 3191 2616 2906 2266 
Q 2828 2175 2409 1742 
Q 1991 1309 1228 531 
z
" transform="scale(0.015625)"/>
       </defs>
       <use xlink:href="#DejaVuSans-32"/>
       <use xlink:href="#DejaVuSans-30" x="63.623047"/>
       <use xlink:href="#DejaVuSans-30" x="127.246094"/>
      </g>
     </g>
    </g>
    <g id="xtick_4">
     <g id="line2d_7">
      <path d="M 269.015821 307.584 
L 269.015821 41.472 
" clip-path="url(#p3c05dee8c4)" style="fill: none; stroke-dasharray: 2.96,1.28; stroke-dashoffset: 0; stroke: #b0b0b0; stroke-width: 0.8"/>
     </g>
     <g id="line2d_8">
      <g>
       <use xlink:href="#m869ea52c71" x="269.015821" y="307.584" style="stroke: #000000; stroke-width: 0.8"/>
      </g>
     </g>
     <g id="text_4">
      <!-- 300 -->
      <g transform="translate(259.472071 322.182437)scale(0.1 -0.1)">
       <defs>
        <path id="DejaVuSans-33" d="M 2597 2516 
Q 3050 2419 3304 2112 
Q 3559 1806 3559 1356 
Q 3559 666 3084 287 
Q 2609 -91 1734 -91 
Q 1441 -91 1130 -33 
Q 819 25 488 141 
L 488 750 
Q 750 597 1062 519 
Q 1375 441 1716 441 
Q 2309 441 2620 675 
Q 2931 909 2931 1356 
Q 2931 1769 2642 2001 
Q 2353 2234 1838 2234 
L 1294 2234 
L 1294 2753 
L 1863 2753 
Q 2328 2753 2575 2939 
Q 2822 3125 2822 3475 
Q 2822 3834 2567 4026 
Q 2313 4219 1838 4219 
Q 1578 4219 1281 4162 
Q 984 4106 628 3988 
L 628 4550 
Q 988 4650 1302 4700 
Q 1616 4750 1894 4750 
Q 2613 4750 3031 4423 
Q 3450 4097 3450 3541 
Q 3450 3153 3228 2886 
Q 3006 2619 2597 2516 
z
" transform="scale(0.015625)"/>
       </defs>
       <use xlink:href="#DejaVuSans-33"/>
       <use xlink:href="#DejaVuSans-30" x="63.623047"/>
       <use xlink:href="#DejaVuSans-30" x="127.246094"/>
      </g>
     </g>
    </g>
    <g id="xtick_5">
     <g id="line2d_9">
      <path d="M 334.076852 307.584 
L 334.076852 41.472 
" clip-path="url(#p3c05dee8c4)" style="fill: none; stroke-dasharray: 2.96,1.28; stroke-dashoffset: 0; stroke: #b0b0b0; stroke-width: 0.8"/>
     </g>
     <g id="line2d_10">
      <g>
       <use xlink:href="#m869ea52c71" x="334.076852" y="307.584" style="stroke: #000000; stroke-width: 0.8"/>
      </g>
     </g>
     <g id="text_5">
      <!-- 400 -->
      <g transform="translate(324.533102 322.182437)scale(0.1 -0.1)">
       <defs>
        <path id="DejaVuSans-34" d="M 2419 4116 
L 825 1625 
L 2419 1625 
L 2419 4116 
z
M 2253 4666 
L 3047 4666 
L 3047 1625 
L 3713 1625 
L 3713 1100 
L 3047 1100 
L 3047 0 
L 2419 0 
L 2419 1100 
L 313 1100 
L 313 1709 
L 2253 4666 
z
" transform="scale(0.015625)"/>
       </defs>
       <use xlink:href="#DejaVuSans-34"/>
       <use xlink:href="#DejaVuSans-30" x="63.623047"/>
       <use xlink:href="#DejaVuSans-30" x="127.246094"/>
      </g>
     </g>
    </g>
    <g id="xtick_6">
     <g id="line2d_11">
      <path d="M 399.137883 307.584 
L 399.137883 41.472 
" clip-path="url(#p3c05dee8c4)" style="fill: none; stroke-dasharray: 2.96,1.28; stroke-dashoffset: 0; stroke: #b0b0b0; stroke-width: 0.8"/>
     </g>
     <g id="line2d_12">
      <g>
       <use xlink:href="#m869ea52c71" x="399.137883" y="307.584" style="stroke: #000000; stroke-width: 0.8"/>
      </g>
     </g>
     <g id="text_6">
      <!-- 500 -->
      <g transform="translate(389.594133 322.182437)scale(0.1 -0.1)">
       <defs>
        <path id="DejaVuSans-35" d="M 691 4666 
L 3169 4666 
L 3169 4134 
L 1269 4134 
L 1269 2991 
Q 1406 3038 1543 3061 
Q 1681 3084 1819 3084 
Q 2600 3084 3056 2656 
Q 3513 2228 3513 1497 
Q 3513 744 3044 326 
Q 2575 -91 1722 -91 
Q 1428 -91 1123 -41 
Q 819 9 494 109 
L 494 744 
Q 775 591 1075 516 
Q 1375 441 1709 441 
Q 2250 441 2565 725 
Q 2881 1009 2881 1497 
Q 2881 1984 2565 2268 
Q 2250 2553 1709 2553 
Q 1456 2553 1204 2497 
Q 953 2441 691 2322 
L 691 4666 
z
" transform="scale(0.015625)"/>
       </defs>
       <use xlink:href="#DejaVuSans-35"/>
       <use xlink:href="#DejaVuSans-30" x="63.623047"/>
       <use xlink:href="#DejaVuSans-30" x="127.246094"/>
      </g>
     </g>
    </g>
    <g id="text_7">
     <!-- Episode -->
     <g transform="translate(216.5225 335.860562)scale(0.1 -0.1)">
      <defs>
       <path id="DejaVuSans-45" d="M 628 4666 
L 3578 4666 
L 3578 4134 
L 1259 4134 
L 1259 2753 
L 3481 2753 
L 3481 2222 
L 1259 2222 
L 1259 531 
L 3634 531 
L 3634 0 
L 628 0 
L 628 4666 
z
" transform="scale(0.015625)"/>
       <path id="DejaVuSans-70" d="M 1159 525 
L 1159 -1331 
L 581 -1331 
L 581 3500 
L 1159 3500 
L 1159 2969 
Q 1341 3281 1617 3432 
Q 1894 3584 2278 3584 
Q 2916 3584 3314 3078 
Q 3713 2572 3713 1747 
Q 3713 922 3314 415 
Q 2916 -91 2278 -91 
Q 1894 -91 1617 61 
Q 1341 213 1159 525 
z
M 3116 1747 
Q 3116 2381 2855 2742 
Q 2594 3103 2138 3103 
Q 1681 3103 1420 2742 
Q 1159 2381 1159 1747 
Q 1159 1113 1420 752 
Q 1681 391 2138 391 
Q 2594 391 2855 752 
Q 3116 1113 3116 1747 
z
" transform="scale(0.015625)"/>
       <path id="DejaVuSans-69" d="M 603 3500 
L 1178 3500 
L 1178 0 
L 603 0 
L 603 3500 
z
M 603 4863 
L 1178 4863 
L 1178 4134 
L 603 4134 
L 603 4863 
z
" transform="scale(0.015625)"/>
       <path id="DejaVuSans-73" d="M 2834 3397 
L 2834 2853 
Q 2591 2978 2328 3040 
Q 2066 3103 1784 3103 
Q 1356 3103 1142 2972 
Q 928 2841 928 2578 
Q 928 2378 1081 2264 
Q 1234 2150 1697 2047 
L 1894 2003 
Q 2506 1872 2764 1633 
Q 3022 1394 3022 966 
Q 3022 478 2636 193 
Q 2250 -91 1575 -91 
Q 1294 -91 989 -36 
Q 684 19 347 128 
L 347 722 
Q 666 556 975 473 
Q 1284 391 1588 391 
Q 1994 391 2212 530 
Q 2431 669 2431 922 
Q 2431 1156 2273 1281 
Q 2116 1406 1581 1522 
L 1381 1569 
Q 847 1681 609 1914 
Q 372 2147 372 2553 
Q 372 3047 722 3315 
Q 1072 3584 1716 3584 
Q 2034 3584 2315 3537 
Q 2597 3491 2834 3397 
z
" transform="scale(0.015625)"/>
       <path id="DejaVuSans-6f" d="M 1959 3097 
Q 1497 3097 1228 2736 
Q 959 2375 959 1747 
Q 959 1119 1226 758 
Q 1494 397 1959 397 
Q 2419 397 2687 759 
Q 2956 1122 2956 1747 
Q 2956 2369 2687 2733 
Q 2419 3097 1959 3097 
z
M 1959 3584 
Q 2709 3584 3137 3096 
Q 3566 2609 3566 1747 
Q 3566 888 3137 398 
Q 2709 -91 1959 -91 
Q 1206 -91 779 398 
Q 353 888 353 1747 
Q 353 2609 779 3096 
Q 1206 3584 1959 3584 
z
" transform="scale(0.015625)"/>
       <path id="DejaVuSans-64" d="M 2906 2969 
L 2906 4863 
L 3481 4863 
L 3481 0 
L 2906 0 
L 2906 525 
Q 2725 213 2448 61 
Q 2172 -91 1784 -91 
Q 1150 -91 751 415 
Q 353 922 353 1747 
Q 353 2572 751 3078 
Q 1150 3584 1784 3584 
Q 2172 3584 2448 3432 
Q 2725 3281 2906 2969 
z
M 947 1747 
Q 947 1113 1208 752 
Q 1469 391 1925 391 
Q 2381 391 2643 752 
Q 2906 1113 2906 1747 
Q 2906 2381 2643 2742 
Q 2381 3103 1925 3103 
Q 1469 3103 1208 2742 
Q 947 2381 947 1747 
z
" transform="scale(0.015625)"/>
       <path id="DejaVuSans-65" d="M 3597 1894 
L 3597 1613 
L 953 1613 
Q 991 1019 1311 708 
Q 1631 397 2203 397 
Q 2534 397 2845 478 
Q 3156 559 3463 722 
L 3463 178 
Q 3153 47 2828 -22 
Q 2503 -91 2169 -91 
Q 1331 -91 842 396 
Q 353 884 353 1716 
Q 353 2575 817 3079 
Q 1281 3584 2069 3584 
Q 2775 3584 3186 3129 
Q 3597 2675 3597 1894 
z
M 3022 2063 
Q 3016 2534 2758 2815 
Q 2500 3097 2075 3097 
Q 1594 3097 1305 2825 
Q 1016 2553 972 2059 
L 3022 2063 
z
" transform="scale(0.015625)"/>
      </defs>
      <use xlink:href="#DejaVuSans-45"/>
      <use xlink:href="#DejaVuSans-70" x="63.183594"/>
      <use xlink:href="#DejaVuSans-69" x="126.660156"/>
      <use xlink:href="#DejaVuSans-73" x="154.443359"/>
      <use xlink:href="#DejaVuSans-6f" x="206.542969"/>
      <use xlink:href="#DejaVuSans-64" x="267.724609"/>
      <use xlink:href="#DejaVuSans-65" x="331.201172"/>
     </g>
    </g>
   </g>
   <g id="matplotlib.axis_2">
    <g id="ytick_1">
     <g id="line2d_13">
      <path d="M 57.6 291.245268 
L 414.72 291.245268 
" clip-path="url(#p3c05dee8c4)" style="fill: none; stroke-dasharray: 2.96,1.28; stroke-dashoffset: 0; stroke: #b0b0b0; stroke-width: 0.8"/>
     </g>
     <g id="line2d_14">
      <defs>
       <path id="m7e68331b09" d="M 0 0 
L -3.5 0 
" style="stroke: #000000; stroke-width: 0.8"/>
      </defs>
      <g>
       <use xlink:href="#m7e68331b09" x="57.6" y="291.245268" style="stroke: #000000; stroke-width: 0.8"/>
      </g>
     </g>
     <g id="text_8">
      <!-- 4.75 -->
      <g transform="translate(28.334375 295.044487)scale(0.1 -0.1)">
       <defs>
        <path id="DejaVuSans-2e" d="M 684 794 
L 1344 794 
L 1344 0 
L 684 0 
L 684 794 
z
" transform="scale(0.015625)"/>
        <path id="DejaVuSans-37" d="M 525 4666 
L 3525 4666 
L 3525 4397 
L 1831 0 
L 1172 0 
L 2766 4134 
L 525 4134 
L 525 4666 
z
" transform="scale(0.015625)"/>
       </defs>
       <use xlink:href="#DejaVuSans-34"/>
       <use xlink:href="#DejaVuSans-2e" x="63.623047"/>
       <use xlink:href="#DejaVuSans-37" x="95.410156"/>
       <use xlink:href="#DejaVuSans-35" x="159.033203"/>
      </g>
     </g>
    </g>
    <g id="ytick_2">
     <g id="line2d_15">
      <path d="M 57.6 258.943441 
L 414.72 258.943441 
" clip-path="url(#p3c05dee8c4)" style="fill: none; stroke-dasharray: 2.96,1.28; stroke-dashoffset: 0; stroke: #b0b0b0; stroke-width: 0.8"/>
     </g>
     <g id="line2d_16">
      <g>
       <use xlink:href="#m7e68331b09" x="57.6" y="258.943441" style="stroke: #000000; stroke-width: 0.8"/>
      </g>
     </g>
     <g id="text_9">
      <!-- 5.00 -->
      <g transform="translate(28.334375 262.74266)scale(0.1 -0.1)">
       <use xlink:href="#DejaVuSans-35"/>
       <use xlink:href="#DejaVuSans-2e" x="63.623047"/>
       <use xlink:href="#DejaVuSans-30" x="95.410156"/>
       <use xlink:href="#DejaVuSans-30" x="159.033203"/>
      </g>
     </g>
    </g>
    <g id="ytick_3">
     <g id="line2d_17">
      <path d="M 57.6 226.641614 
L 414.72 226.641614 
" clip-path="url(#p3c05dee8c4)" style="fill: none; stroke-dasharray: 2.96,1.28; stroke-dashoffset: 0; stroke: #b0b0b0; stroke-width: 0.8"/>
     </g>
     <g id="line2d_18">
      <g>
       <use xlink:href="#m7e68331b09" x="57.6" y="226.641614" style="stroke: #000000; stroke-width: 0.8"/>
      </g>
     </g>
     <g id="text_10">
      <!-- 5.25 -->
      <g transform="translate(28.334375 230.440833)scale(0.1 -0.1)">
       <use xlink:href="#DejaVuSans-35"/>
       <use xlink:href="#DejaVuSans-2e" x="63.623047"/>
       <use xlink:href="#DejaVuSans-32" x="95.410156"/>
       <use xlink:href="#DejaVuSans-35" x="159.033203"/>
      </g>
     </g>
    </g>
    <g id="ytick_4">
     <g id="line2d_19">
      <path d="M 57.6 194.339787 
L 414.72 194.339787 
" clip-path="url(#p3c05dee8c4)" style="fill: none; stroke-dasharray: 2.96,1.28; stroke-dashoffset: 0; stroke: #b0b0b0; stroke-width: 0.8"/>
     </g>
     <g id="line2d_20">
      <g>
       <use xlink:href="#m7e68331b09" x="57.6" y="194.339787" style="stroke: #000000; stroke-width: 0.8"/>
      </g>
     </g>
     <g id="text_11">
      <!-- 5.50 -->
      <g transform="translate(28.334375 198.139006)scale(0.1 -0.1)">
       <use xlink:href="#DejaVuSans-35"/>
       <use xlink:href="#DejaVuSans-2e" x="63.623047"/>
       <use xlink:href="#DejaVuSans-35" x="95.410156"/>
       <use xlink:href="#DejaVuSans-30" x="159.033203"/>
      </g>
     </g>
    </g>
    <g id="ytick_5">
     <g id="line2d_21">
      <path d="M 57.6 162.03796 
L 414.72 162.03796 
" clip-path="url(#p3c05dee8c4)" style="fill: none; stroke-dasharray: 2.96,1.28; stroke-dashoffset: 0; stroke: #b0b0b0; stroke-width: 0.8"/>
     </g>
     <g id="line2d_22">
      <g>
       <use xlink:href="#m7e68331b09" x="57.6" y="162.03796" style="stroke: #000000; stroke-width: 0.8"/>
      </g>
     </g>
     <g id="text_12">
      <!-- 5.75 -->
      <g transform="translate(28.334375 165.837179)scale(0.1 -0.1)">
       <use xlink:href="#DejaVuSans-35"/>
       <use xlink:href="#DejaVuSans-2e" x="63.623047"/>
       <use xlink:href="#DejaVuSans-37" x="95.410156"/>
       <use xlink:href="#DejaVuSans-35" x="159.033203"/>
      </g>
     </g>
    </g>
    <g id="ytick_6">
     <g id="line2d_23">
      <path d="M 57.6 129.736133 
L 414.72 129.736133 
" clip-path="url(#p3c05dee8c4)" style="fill: none; stroke-dasharray: 2.96,1.28; stroke-dashoffset: 0; stroke: #b0b0b0; stroke-width: 0.8"/>
     </g>
     <g id="line2d_24">
      <g>
       <use xlink:href="#m7e68331b09" x="57.6" y="129.736133" style="stroke: #000000; stroke-width: 0.8"/>
      </g>
     </g>
     <g id="text_13">
      <!-- 6.00 -->
      <g transform="translate(28.334375 133.535352)scale(0.1 -0.1)">
       <defs>
        <path id="DejaVuSans-36" d="M 2113 2584 
Q 1688 2584 1439 2293 
Q 1191 2003 1191 1497 
Q 1191 994 1439 701 
Q 1688 409 2113 409 
Q 2538 409 2786 701 
Q 3034 994 3034 1497 
Q 3034 2003 2786 2293 
Q 2538 2584 2113 2584 
z
M 3366 4563 
L 3366 3988 
Q 3128 4100 2886 4159 
Q 2644 4219 2406 4219 
Q 1781 4219 1451 3797 
Q 1122 3375 1075 2522 
Q 1259 2794 1537 2939 
Q 1816 3084 2150 3084 
Q 2853 3084 3261 2657 
Q 3669 2231 3669 1497 
Q 3669 778 3244 343 
Q 2819 -91 2113 -91 
Q 1303 -91 875 529 
Q 447 1150 447 2328 
Q 447 3434 972 4092 
Q 1497 4750 2381 4750 
Q 2619 4750 2861 4703 
Q 3103 4656 3366 4563 
z
" transform="scale(0.015625)"/>
       </defs>
       <use xlink:href="#DejaVuSans-36"/>
       <use xlink:href="#DejaVuSans-2e" x="63.623047"/>
       <use xlink:href="#DejaVuSans-30" x="95.410156"/>
       <use xlink:href="#DejaVuSans-30" x="159.033203"/>
      </g>
     </g>
    </g>
    <g id="ytick_7">
     <g id="line2d_25">
      <path d="M 57.6 97.434306 
L 414.72 97.434306 
" clip-path="url(#p3c05dee8c4)" style="fill: none; stroke-dasharray: 2.96,1.28; stroke-dashoffset: 0; stroke: #b0b0b0; stroke-width: 0.8"/>
     </g>
     <g id="line2d_26">
      <g>
       <use xlink:href="#m7e68331b09" x="57.6" y="97.434306" style="stroke: #000000; stroke-width: 0.8"/>
      </g>
     </g>
     <g id="text_14">
      <!-- 6.25 -->
      <g transform="translate(28.334375 101.233525)scale(0.1 -0.1)">
       <use xlink:href="#DejaVuSans-36"/>
       <use xlink:href="#DejaVuSans-2e" x="63.623047"/>
       <use xlink:href="#DejaVuSans-32" x="95.410156"/>
       <use xlink:href="#DejaVuSans-35" x="159.033203"/>
      </g>
     </g>
    </g>
    <g id="ytick_8">
     <g id="line2d_27">
      <path d="M 57.6 65.132479 
L 414.72 65.132479 
" clip-path="url(#p3c05dee8c4)" style="fill: none; stroke-dasharray: 2.96,1.28; stroke-dashoffset: 0; stroke: #b0b0b0; stroke-width: 0.8"/>
     </g>
     <g id="line2d_28">
      <g>
       <use xlink:href="#m7e68331b09" x="57.6" y="65.132479" style="stroke: #000000; stroke-width: 0.8"/>
      </g>
     </g>
     <g id="text_15">
      <!-- 6.50 -->
      <g transform="translate(28.334375 68.931698)scale(0.1 -0.1)">
       <use xlink:href="#DejaVuSans-36"/>
       <use xlink:href="#DejaVuSans-2e" x="63.623047"/>
       <use xlink:href="#DejaVuSans-35" x="95.410156"/>
       <use xlink:href="#DejaVuSans-30" x="159.033203"/>
      </g>
     </g>
    </g>
    <g id="text_16">
     <!-- actions/price_refurbished -->
     <g transform="translate(21.976562 237.743625)rotate(-90)scale(0.1 -0.1)">
      <defs>
       <path id="DejaVuSans-61" d="M 2194 1759 
Q 1497 1759 1228 1600 
Q 959 1441 959 1056 
Q 959 750 1161 570 
Q 1363 391 1709 391 
Q 2188 391 2477 730 
Q 2766 1069 2766 1631 
L 2766 1759 
L 2194 1759 
z
M 3341 1997 
L 3341 0 
L 2766 0 
L 2766 531 
Q 2569 213 2275 61 
Q 1981 -91 1556 -91 
Q 1019 -91 701 211 
Q 384 513 384 1019 
Q 384 1609 779 1909 
Q 1175 2209 1959 2209 
L 2766 2209 
L 2766 2266 
Q 2766 2663 2505 2880 
Q 2244 3097 1772 3097 
Q 1472 3097 1187 3025 
Q 903 2953 641 2809 
L 641 3341 
Q 956 3463 1253 3523 
Q 1550 3584 1831 3584 
Q 2591 3584 2966 3190 
Q 3341 2797 3341 1997 
z
" transform="scale(0.015625)"/>
       <path id="DejaVuSans-63" d="M 3122 3366 
L 3122 2828 
Q 2878 2963 2633 3030 
Q 2388 3097 2138 3097 
Q 1578 3097 1268 2742 
Q 959 2388 959 1747 
Q 959 1106 1268 751 
Q 1578 397 2138 397 
Q 2388 397 2633 464 
Q 2878 531 3122 666 
L 3122 134 
Q 2881 22 2623 -34 
Q 2366 -91 2075 -91 
Q 1284 -91 818 406 
Q 353 903 353 1747 
Q 353 2603 823 3093 
Q 1294 3584 2113 3584 
Q 2378 3584 2631 3529 
Q 2884 3475 3122 3366 
z
" transform="scale(0.015625)"/>
       <path id="DejaVuSans-74" d="M 1172 4494 
L 1172 3500 
L 2356 3500 
L 2356 3053 
L 1172 3053 
L 1172 1153 
Q 1172 725 1289 603 
Q 1406 481 1766 481 
L 2356 481 
L 2356 0 
L 1766 0 
Q 1100 0 847 248 
Q 594 497 594 1153 
L 594 3053 
L 172 3053 
L 172 3500 
L 594 3500 
L 594 4494 
L 1172 4494 
z
" transform="scale(0.015625)"/>
       <path id="DejaVuSans-6e" d="M 3513 2113 
L 3513 0 
L 2938 0 
L 2938 2094 
Q 2938 2591 2744 2837 
Q 2550 3084 2163 3084 
Q 1697 3084 1428 2787 
Q 1159 2491 1159 1978 
L 1159 0 
L 581 0 
L 581 3500 
L 1159 3500 
L 1159 2956 
Q 1366 3272 1645 3428 
Q 1925 3584 2291 3584 
Q 2894 3584 3203 3211 
Q 3513 2838 3513 2113 
z
" transform="scale(0.015625)"/>
       <path id="DejaVuSans-2f" d="M 1625 4666 
L 2156 4666 
L 531 -594 
L 0 -594 
L 1625 4666 
z
" transform="scale(0.015625)"/>
       <path id="DejaVuSans-72" d="M 2631 2963 
Q 2534 3019 2420 3045 
Q 2306 3072 2169 3072 
Q 1681 3072 1420 2755 
Q 1159 2438 1159 1844 
L 1159 0 
L 581 0 
L 581 3500 
L 1159 3500 
L 1159 2956 
Q 1341 3275 1631 3429 
Q 1922 3584 2338 3584 
Q 2397 3584 2469 3576 
Q 2541 3569 2628 3553 
L 2631 2963 
z
" transform="scale(0.015625)"/>
       <path id="DejaVuSans-5f" d="M 3263 -1063 
L 3263 -1509 
L -63 -1509 
L -63 -1063 
L 3263 -1063 
z
" transform="scale(0.015625)"/>
       <path id="DejaVuSans-66" d="M 2375 4863 
L 2375 4384 
L 1825 4384 
Q 1516 4384 1395 4259 
Q 1275 4134 1275 3809 
L 1275 3500 
L 2222 3500 
L 2222 3053 
L 1275 3053 
L 1275 0 
L 697 0 
L 697 3053 
L 147 3053 
L 147 3500 
L 697 3500 
L 697 3744 
Q 697 4328 969 4595 
Q 1241 4863 1831 4863 
L 2375 4863 
z
" transform="scale(0.015625)"/>
       <path id="DejaVuSans-75" d="M 544 1381 
L 544 3500 
L 1119 3500 
L 1119 1403 
Q 1119 906 1312 657 
Q 1506 409 1894 409 
Q 2359 409 2629 706 
Q 2900 1003 2900 1516 
L 2900 3500 
L 3475 3500 
L 3475 0 
L 2900 0 
L 2900 538 
Q 2691 219 2414 64 
Q 2138 -91 1772 -91 
Q 1169 -91 856 284 
Q 544 659 544 1381 
z
M 1991 3584 
L 1991 3584 
z
" transform="scale(0.015625)"/>
       <path id="DejaVuSans-62" d="M 3116 1747 
Q 3116 2381 2855 2742 
Q 2594 3103 2138 3103 
Q 1681 3103 1420 2742 
Q 1159 2381 1159 1747 
Q 1159 1113 1420 752 
Q 1681 391 2138 391 
Q 2594 391 2855 752 
Q 3116 1113 3116 1747 
z
M 1159 2969 
Q 1341 3281 1617 3432 
Q 1894 3584 2278 3584 
Q 2916 3584 3314 3078 
Q 3713 2572 3713 1747 
Q 3713 922 3314 415 
Q 2916 -91 2278 -91 
Q 1894 -91 1617 61 
Q 1341 213 1159 525 
L 1159 0 
L 581 0 
L 581 4863 
L 1159 4863 
L 1159 2969 
z
" transform="scale(0.015625)"/>
       <path id="DejaVuSans-68" d="M 3513 2113 
L 3513 0 
L 2938 0 
L 2938 2094 
Q 2938 2591 2744 2837 
Q 2550 3084 2163 3084 
Q 1697 3084 1428 2787 
Q 1159 2491 1159 1978 
L 1159 0 
L 581 0 
L 581 4863 
L 1159 4863 
L 1159 2956 
Q 1366 3272 1645 3428 
Q 1925 3584 2291 3584 
Q 2894 3584 3203 3211 
Q 3513 2838 3513 2113 
z
" transform="scale(0.015625)"/>
      </defs>
      <use xlink:href="#DejaVuSans-61"/>
      <use xlink:href="#DejaVuSans-63" x="61.279297"/>
      <use xlink:href="#DejaVuSans-74" x="116.259766"/>
      <use xlink:href="#DejaVuSans-69" x="155.46875"/>
      <use xlink:href="#DejaVuSans-6f" x="183.251953"/>
      <use xlink:href="#DejaVuSans-6e" x="244.433594"/>
      <use xlink:href="#DejaVuSans-73" x="307.8125"/>
      <use xlink:href="#DejaVuSans-2f" x="359.912109"/>
      <use xlink:href="#DejaVuSans-70" x="393.603516"/>
      <use xlink:href="#DejaVuSans-72" x="457.080078"/>
      <use xlink:href="#DejaVuSans-69" x="498.193359"/>
      <use xlink:href="#DejaVuSans-63" x="525.976562"/>
      <use xlink:href="#DejaVuSans-65" x="580.957031"/>
      <use xlink:href="#DejaVuSans-5f" x="642.480469"/>
      <use xlink:href="#DejaVuSans-72" x="692.480469"/>
      <use xlink:href="#DejaVuSans-65" x="731.34375"/>
      <use xlink:href="#DejaVuSans-66" x="792.867188"/>
      <use xlink:href="#DejaVuSans-75" x="828.072266"/>
      <use xlink:href="#DejaVuSans-72" x="891.451172"/>
      <use xlink:href="#DejaVuSans-62" x="932.564453"/>
      <use xlink:href="#DejaVuSans-69" x="996.041016"/>
      <use xlink:href="#DejaVuSans-73" x="1023.824219"/>
      <use xlink:href="#DejaVuSans-68" x="1075.923828"/>
      <use xlink:href="#DejaVuSans-65" x="1139.302734"/>
      <use xlink:href="#DejaVuSans-64" x="1200.826172"/>
     </g>
    </g>
   </g>
   <g id="line2d_29">
    <path d="M 73.832727 207.300676 
L 74.483338 76.031992 
L 75.133948 58.472162 
L 75.784558 53.568 
L 76.435169 83.366948 
L 77.085779 87.149299 
L 77.736389 94.12377 
L 79.03761 155.29108 
L 80.33883 176.618968 
L 80.989441 163.606079 
L 81.640051 158.622378 
L 82.290661 174.957816 
L 82.941272 177.308516 
L 83.591882 191.09764 
L 84.242492 187.757038 
L 84.893103 176.589703 
L 85.543713 176.265876 
L 86.194323 182.605324 
L 86.844934 176.411709 
L 88.146154 191.282102 
L 89.447375 187.004585 
L 90.097985 190.1277 
L 90.748595 180.82933 
L 91.399206 178.262252 
L 92.049816 169.645298 
L 92.700426 172.536571 
L 93.351037 176.234146 
L 94.001647 177.329402 
L 94.652257 172.823123 
L 95.302868 173.421858 
L 95.953478 176.026764 
L 96.604088 175.55464 
L 97.905309 178.693405 
L 98.555919 177.999359 
L 99.206529 176.01093 
L 99.85714 176.537703 
L 100.50775 175.678232 
L 101.15836 174.076843 
L 101.808971 170.074294 
L 102.459581 172.438672 
L 103.110191 171.21545 
L 103.760802 172.814868 
L 104.411412 172.240901 
L 105.062022 170.443035 
L 105.712633 169.599213 
L 106.363243 169.268732 
L 107.013853 165.817847 
L 107.664463 169.174283 
L 108.315074 167.631239 
L 108.965684 166.491007 
L 109.616294 163.113562 
L 110.266905 163.354029 
L 110.917515 165.890301 
L 111.568125 167.86382 
L 112.869346 174.102904 
L 113.519956 176.748967 
L 114.170567 177.676703 
L 114.821177 179.268234 
L 115.471787 181.199426 
L 116.122398 180.898888 
L 116.773008 182.103935 
L 117.423618 180.763468 
L 118.074228 180.645052 
L 118.724839 178.691248 
L 119.375449 178.917483 
L 120.67667 177.586135 
L 121.32728 177.254915 
L 121.97789 174.983569 
L 122.628501 174.293281 
L 123.279111 174.877229 
L 123.929721 174.829789 
L 124.580332 175.61545 
L 125.230942 173.662879 
L 125.881552 176.182208 
L 127.182773 175.212392 
L 127.833383 175.52365 
L 128.483993 173.390375 
L 129.785214 171.378904 
L 130.435824 172.261356 
L 131.086435 172.4497 
L 131.737045 172.274479 
L 132.387655 174.10044 
L 133.038266 174.737804 
L 134.339486 175.62081 
L 134.990097 176.565921 
L 135.640707 177.238773 
L 136.291317 176.738246 
L 136.941927 174.985479 
L 137.592538 174.948266 
L 138.243148 176.21172 
L 138.893758 173.913327 
L 139.544369 173.991943 
L 140.194979 177.783844 
L 140.845589 178.264778 
L 141.4962 181.437922 
L 143.448031 180.410191 
L 144.098641 178.160533 
L 144.749251 177.198787 
L 145.399862 175.742492 
L 146.050472 175.097981 
L 147.351692 176.514352 
L 148.002303 176.286269 
L 148.652913 176.603565 
L 149.303523 174.262907 
L 149.954134 174.200865 
L 150.604744 175.896889 
L 151.255354 175.291192 
L 151.905965 173.360986 
L 152.556575 174.899163 
L 153.207185 173.180836 
L 153.857796 170.823728 
L 154.508406 169.678321 
L 155.159016 169.855144 
L 155.809627 167.925493 
L 156.460237 169.851694 
L 157.110847 170.582892 
L 157.761457 173.760594 
L 159.062678 168.561994 
L 160.363899 169.608639 
L 161.014509 169.300831 
L 161.665119 166.9887 
L 162.31573 166.911871 
L 163.61695 164.671023 
L 164.267561 165.855368 
L 165.568781 167.454046 
L 166.870002 169.940906 
L 167.520612 170.559664 
L 168.171222 167.768015 
L 168.821833 168.645046 
L 169.472443 167.176736 
L 170.123053 169.137008 
L 170.773664 168.666486 
L 171.424274 169.40748 
L 172.074884 168.742206 
L 172.725495 169.87677 
L 173.376105 166.657295 
L 174.026715 165.775212 
L 174.677326 165.142223 
L 175.978546 167.830304 
L 177.279767 162.106903 
L 177.930377 161.378786 
L 178.580987 159.51284 
L 179.882208 154.773857 
L 180.532818 155.251834 
L 181.183429 153.069577 
L 181.834039 153.476086 
L 182.484649 152.331849 
L 183.13526 153.694681 
L 183.78587 152.239556 
L 184.43648 154.39076 
L 185.087091 153.910504 
L 187.038921 157.976203 
L 187.689532 158.100041 
L 188.340142 160.102702 
L 188.990752 159.657872 
L 189.641363 158.972204 
L 190.291973 157.801968 
L 190.942583 160.525537 
L 191.593194 159.714554 
L 192.243804 161.09476 
L 192.894414 161.030007 
L 193.545025 161.677783 
L 194.195635 162.570771 
L 194.846245 162.956516 
L 195.496856 166.008717 
L 196.147466 167.256522 
L 196.798076 166.207104 
L 197.448686 165.625375 
L 198.099297 163.723756 
L 198.749907 164.494076 
L 199.400517 162.939943 
L 200.051128 159.740245 
L 200.701738 158.264604 
L 201.352348 158.582947 
L 202.002959 159.153032 
L 202.653569 159.441001 
L 203.304179 160.139052 
L 203.95479 159.126293 
L 204.6054 162.435843 
L 205.25601 163.049733 
L 205.906621 162.351991 
L 206.557231 164.916172 
L 207.207841 162.686106 
L 207.858451 162.91191 
L 208.509062 163.549274 
L 209.159672 164.878528 
L 209.810282 165.352439 
L 210.460893 164.134269 
L 211.111503 164.694743 
L 211.762113 164.80096 
L 212.412724 165.469068 
L 213.063334 165.257065 
L 213.713944 161.815976 
L 214.364555 159.590346 
L 215.015165 161.948378 
L 215.665775 163.667074 
L 216.316385 164.209558 
L 216.966996 165.94304 
L 217.617606 165.02584 
L 218.268216 166.686991 
L 218.918827 166.290649 
L 221.521268 175.566654 
L 222.171878 177.213081 
L 222.822489 175.864789 
L 223.473099 175.621488 
L 224.123709 178.321768 
L 224.77432 180.373286 
L 225.42493 179.994318 
L 226.72615 179.964067 
L 227.376761 181.719298 
L 228.027371 179.251353 
L 228.677981 179.415607 
L 229.328592 178.722239 
L 230.629812 175.881732 
L 231.280423 174.096743 
L 232.581643 171.591338 
L 233.232254 173.455928 
L 233.882864 174.247751 
L 234.533474 174.552725 
L 235.184085 174.988252 
L 235.834695 173.897124 
L 236.485305 173.175599 
L 237.135915 173.656287 
L 238.437136 176.353178 
L 239.087746 178.745897 
L 239.738357 181.952372 
L 240.388967 182.727991 
L 241.039577 183.196418 
L 241.690188 181.923723 
L 242.991408 183.678277 
L 243.642019 182.121186 
L 244.292629 181.499656 
L 244.943239 183.651722 
L 245.59385 186.525992 
L 246.24446 185.475219 
L 246.89507 186.126692 
L 247.54568 186.202596 
L 248.196291 187.88488 
L 248.846901 187.21437 
L 249.497511 187.877241 
L 250.148122 189.478322 
L 250.798732 189.172855 
L 251.449342 189.677386 
L 252.099953 186.962196 
L 252.750563 187.312947 
L 253.401173 187.219791 
L 254.051784 186.426367 
L 254.702394 184.819679 
L 255.353004 185.390381 
L 256.003615 183.961748 
L 256.654225 182.850966 
L 257.304835 181.228568 
L 257.955445 182.24527 
L 258.606056 181.644133 
L 259.256666 182.358018 
L 259.907276 183.478842 
L 260.557887 182.177621 
L 261.208497 179.04243 
L 261.859107 177.528713 
L 263.160328 182.483889 
L 264.461549 183.107514 
L 265.112159 183.196295 
L 265.762769 186.045612 
L 266.413379 185.920912 
L 267.06399 183.870071 
L 267.7146 183.329005 
L 268.36521 185.006545 
L 269.015821 183.725902 
L 269.666431 183.059581 
L 270.317041 181.879918 
L 270.967652 178.876389 
L 271.618262 178.420592 
L 272.268872 176.387064 
L 272.919483 178.437535 
L 273.570093 179.149572 
L 274.220703 178.113216 
L 274.871314 177.990733 
L 275.521924 177.990548 
L 277.473755 176.893875 
L 278.124365 177.794071 
L 278.774975 177.743058 
L 279.425586 177.344559 
L 280.076196 180.769998 
L 280.726806 179.955934 
L 281.377417 178.199964 
L 282.028027 178.234774 
L 282.678637 177.311782 
L 283.329248 179.731301 
L 283.979858 176.292738 
L 284.630468 175.946917 
L 285.281079 175.046967 
L 285.931689 175.841747 
L 286.582299 174.494626 
L 287.232909 173.661277 
L 287.88352 173.365361 
L 288.53413 174.541758 
L 289.18474 173.867427 
L 289.835351 172.505212 
L 290.485961 172.854483 
L 291.136571 174.367091 
L 291.787182 176.985429 
L 292.437792 176.641024 
L 293.088402 178.502904 
L 293.739013 182.936852 
L 294.389623 181.831122 
L 295.040233 183.736622 
L 295.690844 183.592884 
L 296.341454 183.931805 
L 296.992064 184.898233 
L 297.642674 184.138263 
L 298.293285 184.243618 
L 298.943895 184.529123 
L 299.594505 185.388286 
L 300.245116 183.979061 
L 300.895726 185.256562 
L 301.546336 185.855727 
L 302.196947 186.761776 
L 302.847557 185.887149 
L 303.498167 185.438992 
L 304.148778 185.519702 
L 304.799388 184.484455 
L 305.449998 182.988359 
L 306.100608 182.985524 
L 306.751219 182.22845 
L 307.401829 182.245208 
L 308.052439 181.592442 
L 308.70305 180.512034 
L 310.00427 182.025935 
L 310.654881 179.346357 
L 311.956101 178.490705 
L 312.606712 178.963199 
L 313.257322 179.236196 
L 313.907932 179.383261 
L 314.558543 179.728405 
L 315.209153 180.461883 
L 315.859763 176.520267 
L 316.510373 177.135698 
L 317.160984 175.567825 
L 317.811594 176.124048 
L 318.462204 175.246524 
L 319.112815 178.340744 
L 319.763425 178.22547 
L 320.414035 180.510432 
L 321.064646 178.831536 
L 321.715256 180.791501 
L 322.365866 179.563966 
L 323.016477 179.088515 
L 323.667087 176.862454 
L 324.317697 178.362555 
L 324.968308 177.360454 
L 325.618918 178.158438 
L 326.269528 178.40445 
L 326.920138 179.051487 
L 327.570749 177.989747 
L 328.221359 177.869729 
L 328.871969 177.341909 
L 329.52258 177.063798 
L 330.17319 175.49611 
L 330.8238 176.30198 
L 331.474411 177.5764 
L 332.125021 176.646754 
L 332.775631 176.047096 
L 333.426242 176.908785 
L 334.076852 178.123751 
L 334.727462 178.318072 
L 335.378073 177.989008 
L 336.028683 178.57314 
L 336.679293 179.736538 
L 337.329903 179.589042 
L 337.980514 179.761983 
L 338.631124 179.295589 
L 339.281734 179.977005 
L 339.932345 179.810841 
L 340.582955 177.139703 
L 341.233565 177.982046 
L 341.884176 177.014016 
L 342.534786 177.394402 
L 343.185396 175.976921 
L 343.836007 175.802932 
L 344.486617 176.688526 
L 345.137227 180.274524 
L 345.787837 179.225784 
L 346.438448 179.668766 
L 348.390279 177.374501 
L 349.040889 177.255284 
L 349.691499 179.483872 
L 350.34211 179.656814 
L 350.99272 179.970351 
L 351.64333 177.669186 
L 352.293941 176.441652 
L 352.944551 176.030954 
L 353.595161 175.436594 
L 354.245772 174.385451 
L 354.896382 174.207458 
L 355.546992 174.197045 
L 356.197602 174.413361 
L 357.498823 168.995735 
L 358.149433 169.921191 
L 358.800044 167.220726 
L 359.450654 165.395998 
L 360.101264 167.681329 
L 360.751875 165.707317 
L 361.402485 165.465864 
L 362.053095 164.702814 
L 362.703706 166.418923 
L 363.354316 168.94546 
L 364.004926 168.390901 
L 364.655537 169.462868 
L 365.306147 171.218346 
L 365.956757 172.625045 
L 366.607367 172.400042 
L 367.257978 170.105284 
L 367.908588 172.121068 
L 368.559198 172.635518 
L 369.209809 171.41778 
L 369.860419 169.727918 
L 370.511029 170.4723 
L 371.16164 170.638588 
L 371.81225 170.978248 
L 372.46286 171.873516 
L 373.113471 172.17812 
L 373.764081 174.524815 
L 374.414691 175.48157 
L 375.065302 175.117635 
L 375.715912 175.208511 
L 376.366522 175.744094 
L 378.968963 166.756488 
L 379.619574 165.377822 
L 380.270184 166.595622 
L 381.571405 166.203038 
L 382.222015 165.196871 
L 382.872625 163.18996 
L 383.523236 163.613781 
L 384.173846 165.556371 
L 384.824456 165.254724 
L 385.475066 163.70096 
L 386.125677 163.827139 
L 387.426897 167.128988 
L 388.077508 167.706096 
L 388.728118 168.462185 
L 389.378728 168.687372 
L 390.029339 167.218077 
L 390.679949 168.169964 
L 391.330559 168.310992 
L 391.98117 170.700137 
L 392.63178 171.130982 
L 393.28239 172.053666 
L 393.933001 168.680965 
L 394.583611 167.633457 
L 395.234221 167.38418 
L 395.884831 166.541775 
L 396.535442 166.737143 
L 397.186052 164.440105 
L 397.836662 165.660924 
L 398.487273 165.852226 
L 398.487273 165.852226 
" clip-path="url(#p3c05dee8c4)" style="fill: none; stroke: #1f77b4; stroke-width: 1.5; stroke-linecap: square"/>
   </g>
   <g id="line2d_30">
    <path d="M 73.832727 295.488 
L 74.483338 201.429359 
L 75.133948 184.122202 
L 75.784558 207.289518 
L 76.435169 221.654095 
L 77.085779 218.4115 
L 77.736389 220.185147 
L 78.386999 243.625119 
L 79.03761 262.649816 
L 80.33883 277.959798 
L 80.989441 268.298781 
L 81.640051 266.477685 
L 82.290661 276.331455 
L 82.941272 272.34719 
L 83.591882 283.481016 
L 84.242492 279.914977 
L 84.893103 270.822668 
L 85.543713 269.493174 
L 86.194323 273.566027 
L 86.844934 267.307809 
L 88.146154 280.219125 
L 88.796764 280.147953 
L 89.447375 280.822753 
L 90.097985 284.58578 
L 90.748595 276.209712 
L 91.399206 274.273703 
L 92.049816 269.124923 
L 92.700426 270.924242 
L 93.351037 273.255451 
L 94.001647 273.001003 
L 94.652257 268.306335 
L 95.302868 268.383343 
L 95.953478 269.888006 
L 96.604088 269.441497 
L 97.254698 270.638369 
L 97.905309 273.233974 
L 98.555919 273.976661 
L 99.206529 272.236106 
L 99.85714 272.732137 
L 100.50775 272.228558 
L 101.15836 270.618927 
L 101.808971 267.466115 
L 102.459581 269.001114 
L 103.110191 267.426438 
L 103.760802 268.748939 
L 104.411412 268.36547 
L 105.062022 266.677989 
L 105.712633 266.962119 
L 106.363243 265.640831 
L 107.013853 262.993966 
L 107.664463 266.112706 
L 108.315074 264.711944 
L 108.965684 263.680015 
L 109.616294 261.028751 
L 110.266905 260.965786 
L 110.917515 262.559125 
L 112.218736 267.156666 
L 113.519956 271.91442 
L 114.170567 272.598699 
L 114.821177 272.975847 
L 115.471787 274.883397 
L 116.122398 274.509849 
L 116.773008 275.427124 
L 117.423618 274.810617 
L 118.074228 274.948924 
L 118.724839 273.286824 
L 119.375449 274.166331 
L 120.67667 272.868709 
L 121.32728 272.500033 
L 122.628501 270.041246 
L 123.279111 270.39164 
L 124.580332 270.464556 
L 125.230942 268.723936 
L 125.881552 270.746827 
L 126.532163 270.807352 
L 127.182773 269.880566 
L 127.833383 270.449278 
L 129.134604 269.600163 
L 129.785214 268.431368 
L 130.435824 269.06406 
L 131.086435 269.429711 
L 131.737045 269.317828 
L 132.387655 270.705205 
L 133.038266 270.90662 
L 133.688876 271.480589 
L 134.339486 271.622292 
L 134.990097 272.27512 
L 135.640707 273.121894 
L 136.291317 272.322291 
L 136.941927 271.293876 
L 137.592538 270.892116 
L 138.243148 271.783907 
L 138.893758 270.024934 
L 139.544369 270.525217 
L 140.194979 273.065325 
L 140.845589 274.105029 
L 141.4962 275.47585 
L 142.14681 275.373239 
L 142.79742 274.987365 
L 143.448031 275.110753 
L 144.098641 273.457997 
L 144.749251 272.607738 
L 146.050472 271.671147 
L 146.701082 271.569602 
L 148.002303 272.346995 
L 148.652913 273.800069 
L 149.303523 272.186649 
L 149.954134 272.206232 
L 150.604744 273.341778 
L 151.255354 273.006436 
L 151.905965 271.625174 
L 152.556575 272.861911 
L 153.207185 271.455994 
L 153.857796 269.263488 
L 154.508406 267.938061 
L 155.159016 267.79592 
L 155.809627 266.255649 
L 156.460237 267.263601 
L 157.110847 267.749359 
L 157.761457 269.973026 
L 158.412068 268.092762 
L 159.062678 265.458435 
L 159.713288 266.407024 
L 160.363899 267.576333 
L 161.014509 267.556585 
L 161.665119 266.348664 
L 162.31573 266.289973 
L 162.96634 265.369573 
L 163.61695 263.522309 
L 164.918171 264.648948 
L 165.568781 265.031492 
L 166.219392 265.874183 
L 166.870002 267.159205 
L 167.520612 267.476411 
L 168.171222 265.342367 
L 168.821833 266.528357 
L 169.472443 265.314724 
L 170.123053 266.828792 
L 170.773664 267.021496 
L 171.424274 266.595925 
L 172.074884 266.540452 
L 172.725495 266.82419 
L 173.376105 264.919247 
L 174.026715 264.006443 
L 174.677326 263.310725 
L 175.327936 264.063851 
L 175.978546 265.578754 
L 176.629156 263.659598 
L 177.279767 261.032076 
L 177.930377 260.43367 
L 178.580987 259.020155 
L 179.231598 256.697217 
L 179.882208 255.018323 
L 180.532818 255.404569 
L 181.183429 253.305893 
L 181.834039 253.424166 
L 182.484649 252.461632 
L 183.13526 252.997924 
L 183.78587 251.838634 
L 184.43648 253.875677 
L 185.087091 252.849375 
L 185.737701 253.815162 
L 186.388311 255.182451 
L 187.038921 255.991252 
L 187.689532 255.783136 
L 188.340142 257.951324 
L 188.990752 257.478116 
L 189.641363 256.617686 
L 190.291973 256.432696 
L 190.942583 258.844672 
L 191.593194 258.240385 
L 192.243804 259.034905 
L 192.894414 259.561739 
L 193.545025 259.413811 
L 194.846245 258.727097 
L 195.496856 261.375371 
L 196.147466 262.327145 
L 196.798076 261.124741 
L 197.448686 260.867072 
L 198.099297 259.507846 
L 198.749907 260.381977 
L 200.051128 256.046994 
L 200.701738 255.163524 
L 201.352348 254.950914 
L 202.002959 255.332749 
L 202.653569 255.550799 
L 203.304179 256.410982 
L 203.95479 256.345129 
L 204.6054 258.819105 
L 205.25601 259.10661 
L 205.906621 258.633172 
L 206.557231 259.867476 
L 207.207841 258.103178 
L 207.858451 257.882072 
L 209.810282 260.334174 
L 210.460893 259.757949 
L 211.111503 259.425463 
L 211.762113 259.550096 
L 212.412724 260.744246 
L 213.063334 260.285631 
L 213.713944 257.777911 
L 214.364555 256.31119 
L 215.665775 259.4413 
L 216.316385 259.956891 
L 216.966996 261.405831 
L 217.617606 260.825041 
L 218.268216 262.420757 
L 218.918827 262.749277 
L 220.870658 268.274462 
L 221.521268 269.663456 
L 222.171878 271.761945 
L 222.822489 271.133716 
L 223.473099 270.987195 
L 224.77432 275.017396 
L 226.72615 273.555149 
L 227.376761 274.360946 
L 228.027371 273.498174 
L 228.677981 273.625559 
L 229.328592 273.068621 
L 230.629812 270.409114 
L 232.581643 267.28172 
L 233.232254 268.954096 
L 233.882864 268.952264 
L 234.533474 268.750796 
L 235.184085 269.094901 
L 236.485305 267.00502 
L 237.135915 267.984134 
L 238.437136 271.201294 
L 239.087746 271.736585 
L 239.738357 274.270878 
L 240.388967 275.00493 
L 241.039577 275.520915 
L 241.690188 274.289502 
L 242.340798 274.581738 
L 242.991408 275.034383 
L 243.642019 273.611415 
L 244.292629 272.901748 
L 244.943239 274.756163 
L 245.59385 277.367251 
L 246.24446 276.835291 
L 246.89507 277.528009 
L 247.54568 277.597082 
L 248.196291 278.837381 
L 248.846901 278.430672 
L 250.148122 280.45485 
L 250.798732 280.134746 
L 251.449342 280.54554 
L 252.099953 278.430249 
L 252.750563 278.760522 
L 253.401173 278.555345 
L 254.051784 277.28548 
L 254.702394 276.951953 
L 255.353004 277.988183 
L 256.654225 276.296229 
L 257.304835 274.688103 
L 257.955445 275.456199 
L 258.606056 275.141584 
L 259.256666 276.142515 
L 259.907276 276.92163 
L 260.557887 277.173622 
L 261.208497 274.867083 
L 261.859107 273.666163 
L 263.160328 277.624698 
L 263.810938 277.822759 
L 264.461549 278.166882 
L 265.112159 279.64954 
L 265.762769 281.702986 
L 266.413379 281.310855 
L 267.06399 280.070624 
L 267.7146 279.836015 
L 268.36521 280.917804 
L 269.666431 278.86507 
L 270.317041 278.26163 
L 270.967652 276.434318 
L 271.618262 275.797775 
L 272.268872 274.559138 
L 272.919483 276.419144 
L 273.570093 277.489481 
L 274.220703 276.418984 
L 275.521924 275.088406 
L 276.172534 275.082725 
L 277.473755 274.512646 
L 278.124365 275.013682 
L 278.774975 275.179979 
L 279.425586 274.461507 
L 280.076196 276.663403 
L 280.726806 275.799074 
L 281.377417 274.560239 
L 282.028027 274.923395 
L 282.678637 273.584088 
L 283.329248 275.202057 
L 283.979858 272.184529 
L 284.630468 271.773369 
L 285.281079 271.179164 
L 285.931689 271.83182 
L 287.232909 270.37806 
L 287.88352 270.124086 
L 288.53413 270.821226 
L 289.18474 269.806212 
L 289.835351 269.135469 
L 290.485961 269.120597 
L 291.136571 270.052213 
L 291.787182 272.338878 
L 292.437792 271.810407 
L 293.088402 273.310083 
L 293.739013 275.879896 
L 294.389623 274.938301 
L 295.040233 276.734484 
L 295.690844 276.679905 
L 296.341454 277.341876 
L 296.992064 277.700084 
L 297.642674 276.9291 
L 298.293285 277.008273 
L 298.943895 277.249757 
L 299.594505 278.324438 
L 300.245116 277.303606 
L 300.895726 278.493276 
L 301.546336 279.003483 
L 302.196947 280.143508 
L 303.498167 278.448797 
L 304.148778 278.304319 
L 304.799388 278.35104 
L 305.449998 277.269522 
L 306.751219 276.14196 
L 307.401829 275.915764 
L 308.70305 274.984922 
L 310.00427 275.54939 
L 310.654881 273.58178 
L 311.305491 272.789394 
L 311.956101 272.237012 
L 313.257322 272.918615 
L 313.907932 272.857365 
L 314.558543 273.448883 
L 315.209153 273.046865 
L 315.859763 269.785398 
L 316.510373 270.554511 
L 317.160984 270.096851 
L 317.811594 271.301583 
L 318.462204 270.204011 
L 319.112815 272.672863 
L 319.763425 273.520938 
L 320.414035 274.779096 
L 321.064646 272.730986 
L 321.715256 273.578902 
L 322.365866 272.525288 
L 323.016477 272.429519 
L 323.667087 270.919286 
L 324.317697 271.986887 
L 324.968308 271.22876 
L 325.618918 271.921869 
L 326.269528 271.551983 
L 326.920138 271.890342 
L 327.570749 270.886715 
L 328.221359 270.810182 
L 328.871969 269.908835 
L 329.52258 269.917204 
L 330.17319 268.500505 
L 330.8238 268.498069 
L 331.474411 269.405909 
L 332.125021 268.478441 
L 332.775631 268.414529 
L 334.076852 269.878954 
L 334.727462 269.834556 
L 335.378073 269.554306 
L 336.028683 269.47315 
L 336.679293 269.103911 
L 337.329903 269.356871 
L 337.980514 269.319415 
L 338.631124 269.140192 
L 339.281734 269.537587 
L 339.932345 269.201455 
L 340.582955 267.65858 
L 341.233565 268.558539 
L 341.884176 267.103383 
L 342.534786 267.280515 
L 343.185396 266.407505 
L 343.836007 266.263098 
L 344.486617 266.89901 
L 345.137227 269.742464 
L 345.787837 268.562008 
L 346.438448 268.989594 
L 347.089058 267.524844 
L 348.390279 266.517188 
L 349.040889 266.395786 
L 349.691499 268.46593 
L 350.34211 267.824645 
L 350.99272 268.331548 
L 352.293941 264.756806 
L 352.944551 264.38932 
L 353.595161 263.655725 
L 354.245772 262.307906 
L 354.896382 261.870201 
L 355.546992 261.833494 
L 356.197602 262.431455 
L 357.498823 257.945565 
L 358.149433 259.148022 
L 358.800044 256.986136 
L 359.450654 255.528252 
L 360.101264 257.249759 
L 360.751875 255.939825 
L 361.402485 255.599911 
L 362.053095 254.869924 
L 362.703706 256.18254 
L 363.354316 258.274731 
L 364.004926 258.420486 
L 364.655537 259.259326 
L 365.306147 260.832495 
L 365.956757 261.997297 
L 366.607367 261.475031 
L 367.257978 260.090382 
L 367.908588 261.007256 
L 368.559198 260.965039 
L 369.860419 258.603696 
L 370.511029 258.663773 
L 371.16164 259.153009 
L 371.81225 260.200854 
L 373.113471 261.237679 
L 373.764081 263.271799 
L 374.414691 264.140202 
L 375.065302 264.582433 
L 375.715912 265.169132 
L 376.366522 265.255279 
L 377.017132 263.533682 
L 377.667743 262.347358 
L 378.318353 260.306312 
L 378.968963 258.986633 
L 379.619574 258.066292 
L 380.270184 259.06619 
L 380.920794 259.181158 
L 381.571405 258.898915 
L 382.222015 257.665124 
L 382.872625 255.700879 
L 383.523236 255.176654 
L 384.173846 257.288657 
L 384.824456 256.808086 
L 385.475066 254.816925 
L 386.125677 254.689755 
L 386.776287 257.038533 
L 387.426897 258.528085 
L 388.077508 258.446983 
L 388.728118 259.046677 
L 389.378728 258.713327 
L 390.029339 257.350917 
L 390.679949 258.26521 
L 391.330559 257.973152 
L 391.98117 259.419186 
L 392.63178 259.477484 
L 393.28239 260.112237 
L 393.933001 257.528338 
L 394.583611 257.06306 
L 395.234221 256.777892 
L 395.884831 255.863552 
L 396.535442 256.050203 
L 397.186052 253.945953 
L 397.836662 255.005257 
L 398.487273 254.896066 
L 398.487273 254.896066 
" clip-path="url(#p3c05dee8c4)" style="fill: none; stroke: #ff7f0e; stroke-width: 1.5; stroke-linecap: square"/>
   </g>
   <g id="patch_3">
    <path d="M 57.6 307.584 
L 57.6 41.472 
" style="fill: none; stroke: #000000; stroke-width: 0.8; stroke-linejoin: miter; stroke-linecap: square"/>
   </g>
   <g id="patch_4">
    <path d="M 414.72 307.584 
L 414.72 41.472 
" style="fill: none; stroke: #000000; stroke-width: 0.8; stroke-linejoin: miter; stroke-linecap: square"/>
   </g>
   <g id="patch_5">
    <path d="M 57.6 307.584 
L 414.72 307.584 
" style="fill: none; stroke: #000000; stroke-width: 0.8; stroke-linejoin: miter; stroke-linecap: square"/>
   </g>
   <g id="patch_6">
    <path d="M 57.6 41.472 
L 414.72 41.472 
" style="fill: none; stroke: #000000; stroke-width: 0.8; stroke-linejoin: miter; stroke-linecap: square"/>
   </g>
   <g id="text_17">
    <!-- Rolling average monitoring progress of actions/price_refurbished -->
    <g transform="translate(41.5875 35.472)scale(0.12 -0.12)">
     <defs>
      <path id="DejaVuSans-52" d="M 2841 2188 
Q 3044 2119 3236 1894 
Q 3428 1669 3622 1275 
L 4263 0 
L 3584 0 
L 2988 1197 
Q 2756 1666 2539 1819 
Q 2322 1972 1947 1972 
L 1259 1972 
L 1259 0 
L 628 0 
L 628 4666 
L 2053 4666 
Q 2853 4666 3247 4331 
Q 3641 3997 3641 3322 
Q 3641 2881 3436 2590 
Q 3231 2300 2841 2188 
z
M 1259 4147 
L 1259 2491 
L 2053 2491 
Q 2509 2491 2742 2702 
Q 2975 2913 2975 3322 
Q 2975 3731 2742 3939 
Q 2509 4147 2053 4147 
L 1259 4147 
z
" transform="scale(0.015625)"/>
      <path id="DejaVuSans-6c" d="M 603 4863 
L 1178 4863 
L 1178 0 
L 603 0 
L 603 4863 
z
" transform="scale(0.015625)"/>
      <path id="DejaVuSans-67" d="M 2906 1791 
Q 2906 2416 2648 2759 
Q 2391 3103 1925 3103 
Q 1463 3103 1205 2759 
Q 947 2416 947 1791 
Q 947 1169 1205 825 
Q 1463 481 1925 481 
Q 2391 481 2648 825 
Q 2906 1169 2906 1791 
z
M 3481 434 
Q 3481 -459 3084 -895 
Q 2688 -1331 1869 -1331 
Q 1566 -1331 1297 -1286 
Q 1028 -1241 775 -1147 
L 775 -588 
Q 1028 -725 1275 -790 
Q 1522 -856 1778 -856 
Q 2344 -856 2625 -561 
Q 2906 -266 2906 331 
L 2906 616 
Q 2728 306 2450 153 
Q 2172 0 1784 0 
Q 1141 0 747 490 
Q 353 981 353 1791 
Q 353 2603 747 3093 
Q 1141 3584 1784 3584 
Q 2172 3584 2450 3431 
Q 2728 3278 2906 2969 
L 2906 3500 
L 3481 3500 
L 3481 434 
z
" transform="scale(0.015625)"/>
      <path id="DejaVuSans-20" transform="scale(0.015625)"/>
      <path id="DejaVuSans-76" d="M 191 3500 
L 800 3500 
L 1894 563 
L 2988 3500 
L 3597 3500 
L 2284 0 
L 1503 0 
L 191 3500 
z
" transform="scale(0.015625)"/>
      <path id="DejaVuSans-6d" d="M 3328 2828 
Q 3544 3216 3844 3400 
Q 4144 3584 4550 3584 
Q 5097 3584 5394 3201 
Q 5691 2819 5691 2113 
L 5691 0 
L 5113 0 
L 5113 2094 
Q 5113 2597 4934 2840 
Q 4756 3084 4391 3084 
Q 3944 3084 3684 2787 
Q 3425 2491 3425 1978 
L 3425 0 
L 2847 0 
L 2847 2094 
Q 2847 2600 2669 2842 
Q 2491 3084 2119 3084 
Q 1678 3084 1418 2786 
Q 1159 2488 1159 1978 
L 1159 0 
L 581 0 
L 581 3500 
L 1159 3500 
L 1159 2956 
Q 1356 3278 1631 3431 
Q 1906 3584 2284 3584 
Q 2666 3584 2933 3390 
Q 3200 3197 3328 2828 
z
" transform="scale(0.015625)"/>
     </defs>
     <use xlink:href="#DejaVuSans-52"/>
     <use xlink:href="#DejaVuSans-6f" x="64.982422"/>
     <use xlink:href="#DejaVuSans-6c" x="126.164062"/>
     <use xlink:href="#DejaVuSans-6c" x="153.947266"/>
     <use xlink:href="#DejaVuSans-69" x="181.730469"/>
     <use xlink:href="#DejaVuSans-6e" x="209.513672"/>
     <use xlink:href="#DejaVuSans-67" x="272.892578"/>
     <use xlink:href="#DejaVuSans-20" x="336.369141"/>
     <use xlink:href="#DejaVuSans-61" x="368.15625"/>
     <use xlink:href="#DejaVuSans-76" x="429.435547"/>
     <use xlink:href="#DejaVuSans-65" x="488.615234"/>
     <use xlink:href="#DejaVuSans-72" x="550.138672"/>
     <use xlink:href="#DejaVuSans-61" x="591.251953"/>
     <use xlink:href="#DejaVuSans-67" x="652.53125"/>
     <use xlink:href="#DejaVuSans-65" x="716.007812"/>
     <use xlink:href="#DejaVuSans-20" x="777.53125"/>
     <use xlink:href="#DejaVuSans-6d" x="809.318359"/>
     <use xlink:href="#DejaVuSans-6f" x="906.730469"/>
     <use xlink:href="#DejaVuSans-6e" x="967.912109"/>
     <use xlink:href="#DejaVuSans-69" x="1031.291016"/>
     <use xlink:href="#DejaVuSans-74" x="1059.074219"/>
     <use xlink:href="#DejaVuSans-6f" x="1098.283203"/>
     <use xlink:href="#DejaVuSans-72" x="1159.464844"/>
     <use xlink:href="#DejaVuSans-69" x="1200.578125"/>
     <use xlink:href="#DejaVuSans-6e" x="1228.361328"/>
     <use xlink:href="#DejaVuSans-67" x="1291.740234"/>
     <use xlink:href="#DejaVuSans-20" x="1355.216797"/>
     <use xlink:href="#DejaVuSans-70" x="1387.003906"/>
     <use xlink:href="#DejaVuSans-72" x="1450.480469"/>
     <use xlink:href="#DejaVuSans-6f" x="1489.34375"/>
     <use xlink:href="#DejaVuSans-67" x="1550.525391"/>
     <use xlink:href="#DejaVuSans-72" x="1614.001953"/>
     <use xlink:href="#DejaVuSans-65" x="1652.865234"/>
     <use xlink:href="#DejaVuSans-73" x="1714.388672"/>
     <use xlink:href="#DejaVuSans-73" x="1766.488281"/>
     <use xlink:href="#DejaVuSans-20" x="1818.587891"/>
     <use xlink:href="#DejaVuSans-6f" x="1850.375"/>
     <use xlink:href="#DejaVuSans-66" x="1911.556641"/>
     <use xlink:href="#DejaVuSans-20" x="1946.761719"/>
     <use xlink:href="#DejaVuSans-61" x="1978.548828"/>
     <use xlink:href="#DejaVuSans-63" x="2039.828125"/>
     <use xlink:href="#DejaVuSans-74" x="2094.808594"/>
     <use xlink:href="#DejaVuSans-69" x="2134.017578"/>
     <use xlink:href="#DejaVuSans-6f" x="2161.800781"/>
     <use xlink:href="#DejaVuSans-6e" x="2222.982422"/>
     <use xlink:href="#DejaVuSans-73" x="2286.361328"/>
     <use xlink:href="#DejaVuSans-2f" x="2338.460938"/>
     <use xlink:href="#DejaVuSans-70" x="2372.152344"/>
     <use xlink:href="#DejaVuSans-72" x="2435.628906"/>
     <use xlink:href="#DejaVuSans-69" x="2476.742188"/>
     <use xlink:href="#DejaVuSans-63" x="2504.525391"/>
     <use xlink:href="#DejaVuSans-65" x="2559.505859"/>
     <use xlink:href="#DejaVuSans-5f" x="2621.029297"/>
     <use xlink:href="#DejaVuSans-72" x="2671.029297"/>
     <use xlink:href="#DejaVuSans-65" x="2709.892578"/>
     <use xlink:href="#DejaVuSans-66" x="2771.416016"/>
     <use xlink:href="#DejaVuSans-75" x="2806.621094"/>
     <use xlink:href="#DejaVuSans-72" x="2870"/>
     <use xlink:href="#DejaVuSans-62" x="2911.113281"/>
     <use xlink:href="#DejaVuSans-69" x="2974.589844"/>
     <use xlink:href="#DejaVuSans-73" x="3002.373047"/>
     <use xlink:href="#DejaVuSans-68" x="3054.472656"/>
     <use xlink:href="#DejaVuSans-65" x="3117.851562"/>
     <use xlink:href="#DejaVuSans-64" x="3179.375"/>
    </g>
   </g>
   <g id="legend_1">
    <g id="patch_7">
     <path d="M 284.430938 78.82825 
L 407.72 78.82825 
Q 409.72 78.82825 409.72 76.82825 
L 409.72 48.472 
Q 409.72 46.472 407.72 46.472 
L 284.430938 46.472 
Q 282.430938 46.472 282.430938 48.472 
L 282.430938 76.82825 
Q 282.430938 78.82825 284.430938 78.82825 
z
" style="fill: #ffffff; opacity: 0.8; stroke: #cccccc; stroke-linejoin: miter"/>
    </g>
    <g id="line2d_31">
     <path d="M 286.430938 54.570437 
L 296.430938 54.570437 
L 306.430938 54.570437 
" style="fill: none; stroke: #1f77b4; stroke-width: 1.5; stroke-linecap: square"/>
    </g>
    <g id="text_18">
     <!-- SACAgent -->
     <g transform="translate(314.430938 58.070437)scale(0.1 -0.1)">
      <defs>
       <path id="DejaVuSans-53" d="M 3425 4513 
L 3425 3897 
Q 3066 4069 2747 4153 
Q 2428 4238 2131 4238 
Q 1616 4238 1336 4038 
Q 1056 3838 1056 3469 
Q 1056 3159 1242 3001 
Q 1428 2844 1947 2747 
L 2328 2669 
Q 3034 2534 3370 2195 
Q 3706 1856 3706 1288 
Q 3706 609 3251 259 
Q 2797 -91 1919 -91 
Q 1588 -91 1214 -16 
Q 841 59 441 206 
L 441 856 
Q 825 641 1194 531 
Q 1563 422 1919 422 
Q 2459 422 2753 634 
Q 3047 847 3047 1241 
Q 3047 1584 2836 1778 
Q 2625 1972 2144 2069 
L 1759 2144 
Q 1053 2284 737 2584 
Q 422 2884 422 3419 
Q 422 4038 858 4394 
Q 1294 4750 2059 4750 
Q 2388 4750 2728 4690 
Q 3069 4631 3425 4513 
z
" transform="scale(0.015625)"/>
       <path id="DejaVuSans-41" d="M 2188 4044 
L 1331 1722 
L 3047 1722 
L 2188 4044 
z
M 1831 4666 
L 2547 4666 
L 4325 0 
L 3669 0 
L 3244 1197 
L 1141 1197 
L 716 0 
L 50 0 
L 1831 4666 
z
" transform="scale(0.015625)"/>
       <path id="DejaVuSans-43" d="M 4122 4306 
L 4122 3641 
Q 3803 3938 3442 4084 
Q 3081 4231 2675 4231 
Q 1875 4231 1450 3742 
Q 1025 3253 1025 2328 
Q 1025 1406 1450 917 
Q 1875 428 2675 428 
Q 3081 428 3442 575 
Q 3803 722 4122 1019 
L 4122 359 
Q 3791 134 3420 21 
Q 3050 -91 2638 -91 
Q 1578 -91 968 557 
Q 359 1206 359 2328 
Q 359 3453 968 4101 
Q 1578 4750 2638 4750 
Q 3056 4750 3426 4639 
Q 3797 4528 4122 4306 
z
" transform="scale(0.015625)"/>
      </defs>
      <use xlink:href="#DejaVuSans-53"/>
      <use xlink:href="#DejaVuSans-41" x="65.351562"/>
      <use xlink:href="#DejaVuSans-43" x="132.009766"/>
      <use xlink:href="#DejaVuSans-41" x="201.833984"/>
      <use xlink:href="#DejaVuSans-67" x="270.242188"/>
      <use xlink:href="#DejaVuSans-65" x="333.71875"/>
      <use xlink:href="#DejaVuSans-6e" x="395.242188"/>
      <use xlink:href="#DejaVuSans-74" x="458.621094"/>
     </g>
    </g>
    <g id="line2d_32">
     <path d="M 286.430938 69.248562 
L 296.430938 69.248562 
L 306.430938 69.248562 
" style="fill: none; stroke: #ff7f0e; stroke-width: 1.5; stroke-linecap: square"/>
    </g>
    <g id="text_19">
     <!-- Storage-Minimizer -->
     <g transform="translate(314.430938 72.748562)scale(0.1 -0.1)">
      <defs>
       <path id="DejaVuSans-2d" d="M 313 2009 
L 1997 2009 
L 1997 1497 
L 313 1497 
L 313 2009 
z
" transform="scale(0.015625)"/>
       <path id="DejaVuSans-4d" d="M 628 4666 
L 1569 4666 
L 2759 1491 
L 3956 4666 
L 4897 4666 
L 4897 0 
L 4281 0 
L 4281 4097 
L 3078 897 
L 2444 897 
L 1241 4097 
L 1241 0 
L 628 0 
L 628 4666 
z
" transform="scale(0.015625)"/>
       <path id="DejaVuSans-7a" d="M 353 3500 
L 3084 3500 
L 3084 2975 
L 922 459 
L 3084 459 
L 3084 0 
L 275 0 
L 275 525 
L 2438 3041 
L 353 3041 
L 353 3500 
z
" transform="scale(0.015625)"/>
      </defs>
      <use xlink:href="#DejaVuSans-53"/>
      <use xlink:href="#DejaVuSans-74" x="63.476562"/>
      <use xlink:href="#DejaVuSans-6f" x="102.685547"/>
      <use xlink:href="#DejaVuSans-72" x="163.867188"/>
      <use xlink:href="#DejaVuSans-61" x="204.980469"/>
      <use xlink:href="#DejaVuSans-67" x="266.259766"/>
      <use xlink:href="#DejaVuSans-65" x="329.736328"/>
      <use xlink:href="#DejaVuSans-2d" x="391.259766"/>
      <use xlink:href="#DejaVuSans-4d" x="427.34375"/>
      <use xlink:href="#DejaVuSans-69" x="513.623047"/>
      <use xlink:href="#DejaVuSans-6e" x="541.40625"/>
      <use xlink:href="#DejaVuSans-69" x="604.785156"/>
      <use xlink:href="#DejaVuSans-6d" x="632.568359"/>
      <use xlink:href="#DejaVuSans-69" x="729.980469"/>
      <use xlink:href="#DejaVuSans-7a" x="757.763672"/>
      <use xlink:href="#DejaVuSans-65" x="810.253906"/>
      <use xlink:href="#DejaVuSans-72" x="871.777344"/>
     </g>
    </g>
   </g>
  </g>
 </g>
 <defs>
  <clipPath id="p3c05dee8c4">
   <rect x="57.6" y="41.472" width="357.12" height="266.112"/>
  </clipPath>
 </defs>
</svg>
