<?xml version="1.0" encoding="utf-8" standalone="no"?>
<!DOCTYPE svg PUBLIC "-//W3C//DTD SVG 1.1//EN"
  "http://www.w3.org/Graphics/SVG/1.1/DTD/svg11.dtd">
<svg xmlns:xlink="http://www.w3.org/1999/xlink" width="460.8pt" height="345.6pt" viewBox="0 0 460.8 345.6" xmlns="http://www.w3.org/2000/svg" version="1.1">
 <metadata>
  <rdf:RDF xmlns:dc="http://purl.org/dc/elements/1.1/" xmlns:cc="http://creativecommons.org/ns#" xmlns:rdf="http://www.w3.org/1999/02/22-rdf-syntax-ns#">
   <cc:Work>
    <dc:type rdf:resource="http://purl.org/dc/dcmitype/StillImage"/>
    <dc:date>2022-06-23T13:41:42.777970</dc:date>
    <dc:format>image/svg+xml</dc:format>
    <dc:creator>
     <cc:Agent>
      <dc:title>Matplotlib v3.5.2, https://matplotlib.org/</dc:title>
     </cc:Agent>
    </dc:creator>
   </cc:Work>
  </rdf:RDF>
 </metadata>
 <defs>
  <style type="text/css">*{stroke-linejoin: round; stroke-linecap: butt}</style>
 </defs>
 <g id="figure_1">
  <g id="patch_1">
   <path d="M 0 345.6 
L 460.8 345.6 
L 460.8 0 
L 0 0 
L 0 345.6 
z
" style="fill: none"/>
  </g>
  <g id="axes_1">
   <g id="patch_2">
    <path d="M 57.6 307.584 
L 414.72 307.584 
L 414.72 41.472 
L 57.6 41.472 
L 57.6 307.584 
z
" style="fill: none"/>
   </g>
   <g id="matplotlib.axis_1">
    <g id="xtick_1">
     <g id="line2d_1">
      <path d="M 73.832727 307.584 
L 73.832727 41.472 
" clip-path="url(#p1ce3454fa4)" style="fill: none; stroke-dasharray: 2.96,1.28; stroke-dashoffset: 0; stroke: #b0b0b0; stroke-width: 0.8"/>
     </g>
     <g id="line2d_2">
      <defs>
       <path id="m67a78ff699" d="M 0 0 
L 0 3.5 
" style="stroke: #000000; stroke-width: 0.8"/>
      </defs>
      <g>
       <use xlink:href="#m67a78ff699" x="73.832727" y="307.584" style="stroke: #000000; stroke-width: 0.8"/>
      </g>
     </g>
     <g id="text_1">
      <!-- 0 -->
      <g transform="translate(70.651477 322.182437)scale(0.1 -0.1)">
       <defs>
        <path id="DejaVuSans-30" d="M 2034 4250 
Q 1547 4250 1301 3770 
Q 1056 3291 1056 2328 
Q 1056 1369 1301 889 
Q 1547 409 2034 409 
Q 2525 409 2770 889 
Q 3016 1369 3016 2328 
Q 3016 3291 2770 3770 
Q 2525 4250 2034 4250 
z
M 2034 4750 
Q 2819 4750 3233 4129 
Q 3647 3509 3647 2328 
Q 3647 1150 3233 529 
Q 2819 -91 2034 -91 
Q 1250 -91 836 529 
Q 422 1150 422 2328 
Q 422 3509 836 4129 
Q 1250 4750 2034 4750 
z
" transform="scale(0.015625)"/>
       </defs>
       <use xlink:href="#DejaVuSans-30"/>
      </g>
     </g>
    </g>
    <g id="xtick_2">
     <g id="line2d_3">
      <path d="M 138.893758 307.584 
L 138.893758 41.472 
" clip-path="url(#p1ce3454fa4)" style="fill: none; stroke-dasharray: 2.96,1.28; stroke-dashoffset: 0; stroke: #b0b0b0; stroke-width: 0.8"/>
     </g>
     <g id="line2d_4">
      <g>
       <use xlink:href="#m67a78ff699" x="138.893758" y="307.584" style="stroke: #000000; stroke-width: 0.8"/>
      </g>
     </g>
     <g id="text_2">
      <!-- 100 -->
      <g transform="translate(129.350008 322.182437)scale(0.1 -0.1)">
       <defs>
        <path id="DejaVuSans-31" d="M 794 531 
L 1825 531 
L 1825 4091 
L 703 3866 
L 703 4441 
L 1819 4666 
L 2450 4666 
L 2450 531 
L 3481 531 
L 3481 0 
L 794 0 
L 794 531 
z
" transform="scale(0.015625)"/>
       </defs>
       <use xlink:href="#DejaVuSans-31"/>
       <use xlink:href="#DejaVuSans-30" x="63.623047"/>
       <use xlink:href="#DejaVuSans-30" x="127.246094"/>
      </g>
     </g>
    </g>
    <g id="xtick_3">
     <g id="line2d_5">
      <path d="M 203.95479 307.584 
L 203.95479 41.472 
" clip-path="url(#p1ce3454fa4)" style="fill: none; stroke-dasharray: 2.96,1.28; stroke-dashoffset: 0; stroke: #b0b0b0; stroke-width: 0.8"/>
     </g>
     <g id="line2d_6">
      <g>
       <use xlink:href="#m67a78ff699" x="203.95479" y="307.584" style="stroke: #000000; stroke-width: 0.8"/>
      </g>
     </g>
     <g id="text_3">
      <!-- 200 -->
      <g transform="translate(194.41104 322.182437)scale(0.1 -0.1)">
       <defs>
        <path id="DejaVuSans-32" d="M 1228 531 
L 3431 531 
L 3431 0 
L 469 0 
L 469 531 
Q 828 903 1448 1529 
Q 2069 2156 2228 2338 
Q 2531 2678 2651 2914 
Q 2772 3150 2772 3378 
Q 2772 3750 2511 3984 
Q 2250 4219 1831 4219 
Q 1534 4219 1204 4116 
Q 875 4013 500 3803 
L 500 4441 
Q 881 4594 1212 4672 
Q 1544 4750 1819 4750 
Q 2544 4750 2975 4387 
Q 3406 4025 3406 3419 
Q 3406 3131 3298 2873 
Q 3191 2616 2906 2266 
Q 2828 2175 2409 1742 
Q 1991 1309 1228 531 
z
" transform="scale(0.015625)"/>
       </defs>
       <use xlink:href="#DejaVuSans-32"/>
       <use xlink:href="#DejaVuSans-30" x="63.623047"/>
       <use xlink:href="#DejaVuSans-30" x="127.246094"/>
      </g>
     </g>
    </g>
    <g id="xtick_4">
     <g id="line2d_7">
      <path d="M 269.015821 307.584 
L 269.015821 41.472 
" clip-path="url(#p1ce3454fa4)" style="fill: none; stroke-dasharray: 2.96,1.28; stroke-dashoffset: 0; stroke: #b0b0b0; stroke-width: 0.8"/>
     </g>
     <g id="line2d_8">
      <g>
       <use xlink:href="#m67a78ff699" x="269.015821" y="307.584" style="stroke: #000000; stroke-width: 0.8"/>
      </g>
     </g>
     <g id="text_4">
      <!-- 300 -->
      <g transform="translate(259.472071 322.182437)scale(0.1 -0.1)">
       <defs>
        <path id="DejaVuSans-33" d="M 2597 2516 
Q 3050 2419 3304 2112 
Q 3559 1806 3559 1356 
Q 3559 666 3084 287 
Q 2609 -91 1734 -91 
Q 1441 -91 1130 -33 
Q 819 25 488 141 
L 488 750 
Q 750 597 1062 519 
Q 1375 441 1716 441 
Q 2309 441 2620 675 
Q 2931 909 2931 1356 
Q 2931 1769 2642 2001 
Q 2353 2234 1838 2234 
L 1294 2234 
L 1294 2753 
L 1863 2753 
Q 2328 2753 2575 2939 
Q 2822 3125 2822 3475 
Q 2822 3834 2567 4026 
Q 2313 4219 1838 4219 
Q 1578 4219 1281 4162 
Q 984 4106 628 3988 
L 628 4550 
Q 988 4650 1302 4700 
Q 1616 4750 1894 4750 
Q 2613 4750 3031 4423 
Q 3450 4097 3450 3541 
Q 3450 3153 3228 2886 
Q 3006 2619 2597 2516 
z
" transform="scale(0.015625)"/>
       </defs>
       <use xlink:href="#DejaVuSans-33"/>
       <use xlink:href="#DejaVuSans-30" x="63.623047"/>
       <use xlink:href="#DejaVuSans-30" x="127.246094"/>
      </g>
     </g>
    </g>
    <g id="xtick_5">
     <g id="line2d_9">
      <path d="M 334.076852 307.584 
L 334.076852 41.472 
" clip-path="url(#p1ce3454fa4)" style="fill: none; stroke-dasharray: 2.96,1.28; stroke-dashoffset: 0; stroke: #b0b0b0; stroke-width: 0.8"/>
     </g>
     <g id="line2d_10">
      <g>
       <use xlink:href="#m67a78ff699" x="334.076852" y="307.584" style="stroke: #000000; stroke-width: 0.8"/>
      </g>
     </g>
     <g id="text_5">
      <!-- 400 -->
      <g transform="translate(324.533102 322.182437)scale(0.1 -0.1)">
       <defs>
        <path id="DejaVuSans-34" d="M 2419 4116 
L 825 1625 
L 2419 1625 
L 2419 4116 
z
M 2253 4666 
L 3047 4666 
L 3047 1625 
L 3713 1625 
L 3713 1100 
L 3047 1100 
L 3047 0 
L 2419 0 
L 2419 1100 
L 313 1100 
L 313 1709 
L 2253 4666 
z
" transform="scale(0.015625)"/>
       </defs>
       <use xlink:href="#DejaVuSans-34"/>
       <use xlink:href="#DejaVuSans-30" x="63.623047"/>
       <use xlink:href="#DejaVuSans-30" x="127.246094"/>
      </g>
     </g>
    </g>
    <g id="xtick_6">
     <g id="line2d_11">
      <path d="M 399.137883 307.584 
L 399.137883 41.472 
" clip-path="url(#p1ce3454fa4)" style="fill: none; stroke-dasharray: 2.96,1.28; stroke-dashoffset: 0; stroke: #b0b0b0; stroke-width: 0.8"/>
     </g>
     <g id="line2d_12">
      <g>
       <use xlink:href="#m67a78ff699" x="399.137883" y="307.584" style="stroke: #000000; stroke-width: 0.8"/>
      </g>
     </g>
     <g id="text_6">
      <!-- 500 -->
      <g transform="translate(389.594133 322.182437)scale(0.1 -0.1)">
       <defs>
        <path id="DejaVuSans-35" d="M 691 4666 
L 3169 4666 
L 3169 4134 
L 1269 4134 
L 1269 2991 
Q 1406 3038 1543 3061 
Q 1681 3084 1819 3084 
Q 2600 3084 3056 2656 
Q 3513 2228 3513 1497 
Q 3513 744 3044 326 
Q 2575 -91 1722 -91 
Q 1428 -91 1123 -41 
Q 819 9 494 109 
L 494 744 
Q 775 591 1075 516 
Q 1375 441 1709 441 
Q 2250 441 2565 725 
Q 2881 1009 2881 1497 
Q 2881 1984 2565 2268 
Q 2250 2553 1709 2553 
Q 1456 2553 1204 2497 
Q 953 2441 691 2322 
L 691 4666 
z
" transform="scale(0.015625)"/>
       </defs>
       <use xlink:href="#DejaVuSans-35"/>
       <use xlink:href="#DejaVuSans-30" x="63.623047"/>
       <use xlink:href="#DejaVuSans-30" x="127.246094"/>
      </g>
     </g>
    </g>
    <g id="text_7">
     <!-- Episode -->
     <g transform="translate(216.5225 335.860562)scale(0.1 -0.1)">
      <defs>
       <path id="DejaVuSans-45" d="M 628 4666 
L 3578 4666 
L 3578 4134 
L 1259 4134 
L 1259 2753 
L 3481 2753 
L 3481 2222 
L 1259 2222 
L 1259 531 
L 3634 531 
L 3634 0 
L 628 0 
L 628 4666 
z
" transform="scale(0.015625)"/>
       <path id="DejaVuSans-70" d="M 1159 525 
L 1159 -1331 
L 581 -1331 
L 581 3500 
L 1159 3500 
L 1159 2969 
Q 1341 3281 1617 3432 
Q 1894 3584 2278 3584 
Q 2916 3584 3314 3078 
Q 3713 2572 3713 1747 
Q 3713 922 3314 415 
Q 2916 -91 2278 -91 
Q 1894 -91 1617 61 
Q 1341 213 1159 525 
z
M 3116 1747 
Q 3116 2381 2855 2742 
Q 2594 3103 2138 3103 
Q 1681 3103 1420 2742 
Q 1159 2381 1159 1747 
Q 1159 1113 1420 752 
Q 1681 391 2138 391 
Q 2594 391 2855 752 
Q 3116 1113 3116 1747 
z
" transform="scale(0.015625)"/>
       <path id="DejaVuSans-69" d="M 603 3500 
L 1178 3500 
L 1178 0 
L 603 0 
L 603 3500 
z
M 603 4863 
L 1178 4863 
L 1178 4134 
L 603 4134 
L 603 4863 
z
" transform="scale(0.015625)"/>
       <path id="DejaVuSans-73" d="M 2834 3397 
L 2834 2853 
Q 2591 2978 2328 3040 
Q 2066 3103 1784 3103 
Q 1356 3103 1142 2972 
Q 928 2841 928 2578 
Q 928 2378 1081 2264 
Q 1234 2150 1697 2047 
L 1894 2003 
Q 2506 1872 2764 1633 
Q 3022 1394 3022 966 
Q 3022 478 2636 193 
Q 2250 -91 1575 -91 
Q 1294 -91 989 -36 
Q 684 19 347 128 
L 347 722 
Q 666 556 975 473 
Q 1284 391 1588 391 
Q 1994 391 2212 530 
Q 2431 669 2431 922 
Q 2431 1156 2273 1281 
Q 2116 1406 1581 1522 
L 1381 1569 
Q 847 1681 609 1914 
Q 372 2147 372 2553 
Q 372 3047 722 3315 
Q 1072 3584 1716 3584 
Q 2034 3584 2315 3537 
Q 2597 3491 2834 3397 
z
" transform="scale(0.015625)"/>
       <path id="DejaVuSans-6f" d="M 1959 3097 
Q 1497 3097 1228 2736 
Q 959 2375 959 1747 
Q 959 1119 1226 758 
Q 1494 397 1959 397 
Q 2419 397 2687 759 
Q 2956 1122 2956 1747 
Q 2956 2369 2687 2733 
Q 2419 3097 1959 3097 
z
M 1959 3584 
Q 2709 3584 3137 3096 
Q 3566 2609 3566 1747 
Q 3566 888 3137 398 
Q 2709 -91 1959 -91 
Q 1206 -91 779 398 
Q 353 888 353 1747 
Q 353 2609 779 3096 
Q 1206 3584 1959 3584 
z
" transform="scale(0.015625)"/>
       <path id="DejaVuSans-64" d="M 2906 2969 
L 2906 4863 
L 3481 4863 
L 3481 0 
L 2906 0 
L 2906 525 
Q 2725 213 2448 61 
Q 2172 -91 1784 -91 
Q 1150 -91 751 415 
Q 353 922 353 1747 
Q 353 2572 751 3078 
Q 1150 3584 1784 3584 
Q 2172 3584 2448 3432 
Q 2725 3281 2906 2969 
z
M 947 1747 
Q 947 1113 1208 752 
Q 1469 391 1925 391 
Q 2381 391 2643 752 
Q 2906 1113 2906 1747 
Q 2906 2381 2643 2742 
Q 2381 3103 1925 3103 
Q 1469 3103 1208 2742 
Q 947 2381 947 1747 
z
" transform="scale(0.015625)"/>
       <path id="DejaVuSans-65" d="M 3597 1894 
L 3597 1613 
L 953 1613 
Q 991 1019 1311 708 
Q 1631 397 2203 397 
Q 2534 397 2845 478 
Q 3156 559 3463 722 
L 3463 178 
Q 3153 47 2828 -22 
Q 2503 -91 2169 -91 
Q 1331 -91 842 396 
Q 353 884 353 1716 
Q 353 2575 817 3079 
Q 1281 3584 2069 3584 
Q 2775 3584 3186 3129 
Q 3597 2675 3597 1894 
z
M 3022 2063 
Q 3016 2534 2758 2815 
Q 2500 3097 2075 3097 
Q 1594 3097 1305 2825 
Q 1016 2553 972 2059 
L 3022 2063 
z
" transform="scale(0.015625)"/>
      </defs>
      <use xlink:href="#DejaVuSans-45"/>
      <use xlink:href="#DejaVuSans-70" x="63.183594"/>
      <use xlink:href="#DejaVuSans-69" x="126.660156"/>
      <use xlink:href="#DejaVuSans-73" x="154.443359"/>
      <use xlink:href="#DejaVuSans-6f" x="206.542969"/>
      <use xlink:href="#DejaVuSans-64" x="267.724609"/>
      <use xlink:href="#DejaVuSans-65" x="331.201172"/>
     </g>
    </g>
   </g>
   <g id="matplotlib.axis_2">
    <g id="ytick_1">
     <g id="line2d_13">
      <path d="M 57.6 278.095788 
L 414.72 278.095788 
" clip-path="url(#p1ce3454fa4)" style="fill: none; stroke-dasharray: 2.96,1.28; stroke-dashoffset: 0; stroke: #b0b0b0; stroke-width: 0.8"/>
     </g>
     <g id="line2d_14">
      <defs>
       <path id="mccc2cd3f41" d="M 0 0 
L -3.5 0 
" style="stroke: #000000; stroke-width: 0.8"/>
      </defs>
      <g>
       <use xlink:href="#mccc2cd3f41" x="57.6" y="278.095788" style="stroke: #000000; stroke-width: 0.8"/>
      </g>
     </g>
     <g id="text_8">
      <!-- 160 -->
      <g transform="translate(31.5125 281.895007)scale(0.1 -0.1)">
       <defs>
        <path id="DejaVuSans-36" d="M 2113 2584 
Q 1688 2584 1439 2293 
Q 1191 2003 1191 1497 
Q 1191 994 1439 701 
Q 1688 409 2113 409 
Q 2538 409 2786 701 
Q 3034 994 3034 1497 
Q 3034 2003 2786 2293 
Q 2538 2584 2113 2584 
z
M 3366 4563 
L 3366 3988 
Q 3128 4100 2886 4159 
Q 2644 4219 2406 4219 
Q 1781 4219 1451 3797 
Q 1122 3375 1075 2522 
Q 1259 2794 1537 2939 
Q 1816 3084 2150 3084 
Q 2853 3084 3261 2657 
Q 3669 2231 3669 1497 
Q 3669 778 3244 343 
Q 2819 -91 2113 -91 
Q 1303 -91 875 529 
Q 447 1150 447 2328 
Q 447 3434 972 4092 
Q 1497 4750 2381 4750 
Q 2619 4750 2861 4703 
Q 3103 4656 3366 4563 
z
" transform="scale(0.015625)"/>
       </defs>
       <use xlink:href="#DejaVuSans-31"/>
       <use xlink:href="#DejaVuSans-36" x="63.623047"/>
       <use xlink:href="#DejaVuSans-30" x="127.246094"/>
      </g>
     </g>
    </g>
    <g id="ytick_2">
     <g id="line2d_15">
      <path d="M 57.6 244.250967 
L 414.72 244.250967 
" clip-path="url(#p1ce3454fa4)" style="fill: none; stroke-dasharray: 2.96,1.28; stroke-dashoffset: 0; stroke: #b0b0b0; stroke-width: 0.8"/>
     </g>
     <g id="line2d_16">
      <g>
       <use xlink:href="#mccc2cd3f41" x="57.6" y="244.250967" style="stroke: #000000; stroke-width: 0.8"/>
      </g>
     </g>
     <g id="text_9">
      <!-- 180 -->
      <g transform="translate(31.5125 248.050186)scale(0.1 -0.1)">
       <defs>
        <path id="DejaVuSans-38" d="M 2034 2216 
Q 1584 2216 1326 1975 
Q 1069 1734 1069 1313 
Q 1069 891 1326 650 
Q 1584 409 2034 409 
Q 2484 409 2743 651 
Q 3003 894 3003 1313 
Q 3003 1734 2745 1975 
Q 2488 2216 2034 2216 
z
M 1403 2484 
Q 997 2584 770 2862 
Q 544 3141 544 3541 
Q 544 4100 942 4425 
Q 1341 4750 2034 4750 
Q 2731 4750 3128 4425 
Q 3525 4100 3525 3541 
Q 3525 3141 3298 2862 
Q 3072 2584 2669 2484 
Q 3125 2378 3379 2068 
Q 3634 1759 3634 1313 
Q 3634 634 3220 271 
Q 2806 -91 2034 -91 
Q 1263 -91 848 271 
Q 434 634 434 1313 
Q 434 1759 690 2068 
Q 947 2378 1403 2484 
z
M 1172 3481 
Q 1172 3119 1398 2916 
Q 1625 2713 2034 2713 
Q 2441 2713 2670 2916 
Q 2900 3119 2900 3481 
Q 2900 3844 2670 4047 
Q 2441 4250 2034 4250 
Q 1625 4250 1398 4047 
Q 1172 3844 1172 3481 
z
" transform="scale(0.015625)"/>
       </defs>
       <use xlink:href="#DejaVuSans-31"/>
       <use xlink:href="#DejaVuSans-38" x="63.623047"/>
       <use xlink:href="#DejaVuSans-30" x="127.246094"/>
      </g>
     </g>
    </g>
    <g id="ytick_3">
     <g id="line2d_17">
      <path d="M 57.6 210.406146 
L 414.72 210.406146 
" clip-path="url(#p1ce3454fa4)" style="fill: none; stroke-dasharray: 2.96,1.28; stroke-dashoffset: 0; stroke: #b0b0b0; stroke-width: 0.8"/>
     </g>
     <g id="line2d_18">
      <g>
       <use xlink:href="#mccc2cd3f41" x="57.6" y="210.406146" style="stroke: #000000; stroke-width: 0.8"/>
      </g>
     </g>
     <g id="text_10">
      <!-- 200 -->
      <g transform="translate(31.5125 214.205365)scale(0.1 -0.1)">
       <use xlink:href="#DejaVuSans-32"/>
       <use xlink:href="#DejaVuSans-30" x="63.623047"/>
       <use xlink:href="#DejaVuSans-30" x="127.246094"/>
      </g>
     </g>
    </g>
    <g id="ytick_4">
     <g id="line2d_19">
      <path d="M 57.6 176.561325 
L 414.72 176.561325 
" clip-path="url(#p1ce3454fa4)" style="fill: none; stroke-dasharray: 2.96,1.28; stroke-dashoffset: 0; stroke: #b0b0b0; stroke-width: 0.8"/>
     </g>
     <g id="line2d_20">
      <g>
       <use xlink:href="#mccc2cd3f41" x="57.6" y="176.561325" style="stroke: #000000; stroke-width: 0.8"/>
      </g>
     </g>
     <g id="text_11">
      <!-- 220 -->
      <g transform="translate(31.5125 180.360543)scale(0.1 -0.1)">
       <use xlink:href="#DejaVuSans-32"/>
       <use xlink:href="#DejaVuSans-32" x="63.623047"/>
       <use xlink:href="#DejaVuSans-30" x="127.246094"/>
      </g>
     </g>
    </g>
    <g id="ytick_5">
     <g id="line2d_21">
      <path d="M 57.6 142.716503 
L 414.72 142.716503 
" clip-path="url(#p1ce3454fa4)" style="fill: none; stroke-dasharray: 2.96,1.28; stroke-dashoffset: 0; stroke: #b0b0b0; stroke-width: 0.8"/>
     </g>
     <g id="line2d_22">
      <g>
       <use xlink:href="#mccc2cd3f41" x="57.6" y="142.716503" style="stroke: #000000; stroke-width: 0.8"/>
      </g>
     </g>
     <g id="text_12">
      <!-- 240 -->
      <g transform="translate(31.5125 146.515722)scale(0.1 -0.1)">
       <use xlink:href="#DejaVuSans-32"/>
       <use xlink:href="#DejaVuSans-34" x="63.623047"/>
       <use xlink:href="#DejaVuSans-30" x="127.246094"/>
      </g>
     </g>
    </g>
    <g id="ytick_6">
     <g id="line2d_23">
      <path d="M 57.6 108.871682 
L 414.72 108.871682 
" clip-path="url(#p1ce3454fa4)" style="fill: none; stroke-dasharray: 2.96,1.28; stroke-dashoffset: 0; stroke: #b0b0b0; stroke-width: 0.8"/>
     </g>
     <g id="line2d_24">
      <g>
       <use xlink:href="#mccc2cd3f41" x="57.6" y="108.871682" style="stroke: #000000; stroke-width: 0.8"/>
      </g>
     </g>
     <g id="text_13">
      <!-- 260 -->
      <g transform="translate(31.5125 112.670901)scale(0.1 -0.1)">
       <use xlink:href="#DejaVuSans-32"/>
       <use xlink:href="#DejaVuSans-36" x="63.623047"/>
       <use xlink:href="#DejaVuSans-30" x="127.246094"/>
      </g>
     </g>
    </g>
    <g id="ytick_7">
     <g id="line2d_25">
      <path d="M 57.6 75.026861 
L 414.72 75.026861 
" clip-path="url(#p1ce3454fa4)" style="fill: none; stroke-dasharray: 2.96,1.28; stroke-dashoffset: 0; stroke: #b0b0b0; stroke-width: 0.8"/>
     </g>
     <g id="line2d_26">
      <g>
       <use xlink:href="#mccc2cd3f41" x="57.6" y="75.026861" style="stroke: #000000; stroke-width: 0.8"/>
      </g>
     </g>
     <g id="text_14">
      <!-- 280 -->
      <g transform="translate(31.5125 78.826079)scale(0.1 -0.1)">
       <use xlink:href="#DejaVuSans-32"/>
       <use xlink:href="#DejaVuSans-38" x="63.623047"/>
       <use xlink:href="#DejaVuSans-30" x="127.246094"/>
      </g>
     </g>
    </g>
    <g id="text_15">
     <!-- profits/by_selling_refurbished -->
     <g transform="translate(25.154687 248.019406)rotate(-90)scale(0.1 -0.1)">
      <defs>
       <path id="DejaVuSans-72" d="M 2631 2963 
Q 2534 3019 2420 3045 
Q 2306 3072 2169 3072 
Q 1681 3072 1420 2755 
Q 1159 2438 1159 1844 
L 1159 0 
L 581 0 
L 581 3500 
L 1159 3500 
L 1159 2956 
Q 1341 3275 1631 3429 
Q 1922 3584 2338 3584 
Q 2397 3584 2469 3576 
Q 2541 3569 2628 3553 
L 2631 2963 
z
" transform="scale(0.015625)"/>
       <path id="DejaVuSans-66" d="M 2375 4863 
L 2375 4384 
L 1825 4384 
Q 1516 4384 1395 4259 
Q 1275 4134 1275 3809 
L 1275 3500 
L 2222 3500 
L 2222 3053 
L 1275 3053 
L 1275 0 
L 697 0 
L 697 3053 
L 147 3053 
L 147 3500 
L 697 3500 
L 697 3744 
Q 697 4328 969 4595 
Q 1241 4863 1831 4863 
L 2375 4863 
z
" transform="scale(0.015625)"/>
       <path id="DejaVuSans-74" d="M 1172 4494 
L 1172 3500 
L 2356 3500 
L 2356 3053 
L 1172 3053 
L 1172 1153 
Q 1172 725 1289 603 
Q 1406 481 1766 481 
L 2356 481 
L 2356 0 
L 1766 0 
Q 1100 0 847 248 
Q 594 497 594 1153 
L 594 3053 
L 172 3053 
L 172 3500 
L 594 3500 
L 594 4494 
L 1172 4494 
z
" transform="scale(0.015625)"/>
       <path id="DejaVuSans-2f" d="M 1625 4666 
L 2156 4666 
L 531 -594 
L 0 -594 
L 1625 4666 
z
" transform="scale(0.015625)"/>
       <path id="DejaVuSans-62" d="M 3116 1747 
Q 3116 2381 2855 2742 
Q 2594 3103 2138 3103 
Q 1681 3103 1420 2742 
Q 1159 2381 1159 1747 
Q 1159 1113 1420 752 
Q 1681 391 2138 391 
Q 2594 391 2855 752 
Q 3116 1113 3116 1747 
z
M 1159 2969 
Q 1341 3281 1617 3432 
Q 1894 3584 2278 3584 
Q 2916 3584 3314 3078 
Q 3713 2572 3713 1747 
Q 3713 922 3314 415 
Q 2916 -91 2278 -91 
Q 1894 -91 1617 61 
Q 1341 213 1159 525 
L 1159 0 
L 581 0 
L 581 4863 
L 1159 4863 
L 1159 2969 
z
" transform="scale(0.015625)"/>
       <path id="DejaVuSans-79" d="M 2059 -325 
Q 1816 -950 1584 -1140 
Q 1353 -1331 966 -1331 
L 506 -1331 
L 506 -850 
L 844 -850 
Q 1081 -850 1212 -737 
Q 1344 -625 1503 -206 
L 1606 56 
L 191 3500 
L 800 3500 
L 1894 763 
L 2988 3500 
L 3597 3500 
L 2059 -325 
z
" transform="scale(0.015625)"/>
       <path id="DejaVuSans-5f" d="M 3263 -1063 
L 3263 -1509 
L -63 -1509 
L -63 -1063 
L 3263 -1063 
z
" transform="scale(0.015625)"/>
       <path id="DejaVuSans-6c" d="M 603 4863 
L 1178 4863 
L 1178 0 
L 603 0 
L 603 4863 
z
" transform="scale(0.015625)"/>
       <path id="DejaVuSans-6e" d="M 3513 2113 
L 3513 0 
L 2938 0 
L 2938 2094 
Q 2938 2591 2744 2837 
Q 2550 3084 2163 3084 
Q 1697 3084 1428 2787 
Q 1159 2491 1159 1978 
L 1159 0 
L 581 0 
L 581 3500 
L 1159 3500 
L 1159 2956 
Q 1366 3272 1645 3428 
Q 1925 3584 2291 3584 
Q 2894 3584 3203 3211 
Q 3513 2838 3513 2113 
z
" transform="scale(0.015625)"/>
       <path id="DejaVuSans-67" d="M 2906 1791 
Q 2906 2416 2648 2759 
Q 2391 3103 1925 3103 
Q 1463 3103 1205 2759 
Q 947 2416 947 1791 
Q 947 1169 1205 825 
Q 1463 481 1925 481 
Q 2391 481 2648 825 
Q 2906 1169 2906 1791 
z
M 3481 434 
Q 3481 -459 3084 -895 
Q 2688 -1331 1869 -1331 
Q 1566 -1331 1297 -1286 
Q 1028 -1241 775 -1147 
L 775 -588 
Q 1028 -725 1275 -790 
Q 1522 -856 1778 -856 
Q 2344 -856 2625 -561 
Q 2906 -266 2906 331 
L 2906 616 
Q 2728 306 2450 153 
Q 2172 0 1784 0 
Q 1141 0 747 490 
Q 353 981 353 1791 
Q 353 2603 747 3093 
Q 1141 3584 1784 3584 
Q 2172 3584 2450 3431 
Q 2728 3278 2906 2969 
L 2906 3500 
L 3481 3500 
L 3481 434 
z
" transform="scale(0.015625)"/>
       <path id="DejaVuSans-75" d="M 544 1381 
L 544 3500 
L 1119 3500 
L 1119 1403 
Q 1119 906 1312 657 
Q 1506 409 1894 409 
Q 2359 409 2629 706 
Q 2900 1003 2900 1516 
L 2900 3500 
L 3475 3500 
L 3475 0 
L 2900 0 
L 2900 538 
Q 2691 219 2414 64 
Q 2138 -91 1772 -91 
Q 1169 -91 856 284 
Q 544 659 544 1381 
z
M 1991 3584 
L 1991 3584 
z
" transform="scale(0.015625)"/>
       <path id="DejaVuSans-68" d="M 3513 2113 
L 3513 0 
L 2938 0 
L 2938 2094 
Q 2938 2591 2744 2837 
Q 2550 3084 2163 3084 
Q 1697 3084 1428 2787 
Q 1159 2491 1159 1978 
L 1159 0 
L 581 0 
L 581 4863 
L 1159 4863 
L 1159 2956 
Q 1366 3272 1645 3428 
Q 1925 3584 2291 3584 
Q 2894 3584 3203 3211 
Q 3513 2838 3513 2113 
z
" transform="scale(0.015625)"/>
      </defs>
      <use xlink:href="#DejaVuSans-70"/>
      <use xlink:href="#DejaVuSans-72" x="63.476562"/>
      <use xlink:href="#DejaVuSans-6f" x="102.339844"/>
      <use xlink:href="#DejaVuSans-66" x="163.521484"/>
      <use xlink:href="#DejaVuSans-69" x="198.726562"/>
      <use xlink:href="#DejaVuSans-74" x="226.509766"/>
      <use xlink:href="#DejaVuSans-73" x="265.71875"/>
      <use xlink:href="#DejaVuSans-2f" x="317.818359"/>
      <use xlink:href="#DejaVuSans-62" x="351.509766"/>
      <use xlink:href="#DejaVuSans-79" x="414.986328"/>
      <use xlink:href="#DejaVuSans-5f" x="474.166016"/>
      <use xlink:href="#DejaVuSans-73" x="524.166016"/>
      <use xlink:href="#DejaVuSans-65" x="576.265625"/>
      <use xlink:href="#DejaVuSans-6c" x="637.789062"/>
      <use xlink:href="#DejaVuSans-6c" x="665.572266"/>
      <use xlink:href="#DejaVuSans-69" x="693.355469"/>
      <use xlink:href="#DejaVuSans-6e" x="721.138672"/>
      <use xlink:href="#DejaVuSans-67" x="784.517578"/>
      <use xlink:href="#DejaVuSans-5f" x="847.994141"/>
      <use xlink:href="#DejaVuSans-72" x="897.994141"/>
      <use xlink:href="#DejaVuSans-65" x="936.857422"/>
      <use xlink:href="#DejaVuSans-66" x="998.380859"/>
      <use xlink:href="#DejaVuSans-75" x="1033.585938"/>
      <use xlink:href="#DejaVuSans-72" x="1096.964844"/>
      <use xlink:href="#DejaVuSans-62" x="1138.078125"/>
      <use xlink:href="#DejaVuSans-69" x="1201.554688"/>
      <use xlink:href="#DejaVuSans-73" x="1229.337891"/>
      <use xlink:href="#DejaVuSans-68" x="1281.4375"/>
      <use xlink:href="#DejaVuSans-65" x="1344.816406"/>
      <use xlink:href="#DejaVuSans-64" x="1406.339844"/>
     </g>
    </g>
   </g>
   <g id="line2d_27">
    <path d="M 73.832727 100.243136 
L 74.483338 269.378071 
L 75.133948 260.962882 
L 75.784558 295.488 
L 76.435169 244.328453 
L 77.085779 239.375479 
L 77.736389 221.563829 
L 79.03761 138.97354 
L 79.68822 121.005615 
L 80.33883 98.549367 
L 80.989441 114.580145 
L 81.640051 113.130119 
L 82.290661 84.588253 
L 82.941272 79.914569 
L 83.591882 70.979354 
L 84.242492 74.955504 
L 84.893103 81.559531 
L 85.543713 77.1411 
L 86.194323 69.324568 
L 86.844934 76.33442 
L 87.495544 61.725866 
L 88.146154 58.259822 
L 88.796764 63.869023 
L 89.447375 71.478479 
L 90.097985 71.79666 
L 90.748595 85.473989 
L 91.399206 89.075161 
L 92.049816 99.18614 
L 92.700426 90.730276 
L 93.351037 83.96496 
L 94.001647 78.566836 
L 94.652257 85.73523 
L 95.302868 86.197821 
L 95.953478 82.053249 
L 96.604088 82.163992 
L 97.254698 78.982915 
L 97.905309 82.826741 
L 98.555919 88.144161 
L 99.206529 90.421028 
L 99.85714 93.502475 
L 100.50775 103.592275 
L 101.15836 103.992278 
L 101.808971 108.787333 
L 102.459581 103.557706 
L 103.110191 103.26036 
L 103.760802 102.198247 
L 104.411412 102.858417 
L 105.062022 102.846335 
L 105.712633 105.839749 
L 106.363243 103.381714 
L 107.013853 108.666968 
L 107.664463 105.598375 
L 108.315074 107.118305 
L 108.965684 105.744613 
L 109.616294 110.723279 
L 110.266905 111.224186 
L 110.917515 106.202517 
L 111.568125 104.527279 
L 112.869346 98.257006 
L 113.519956 95.620668 
L 114.170567 95.52215 
L 115.471787 91.868266 
L 116.122398 93.263797 
L 116.773008 90.710735 
L 117.423618 92.880008 
L 118.074228 94.348136 
L 118.724839 95.248262 
L 119.375449 95.508198 
L 120.026059 96.985347 
L 121.32728 97.788919 
L 121.97789 100.283742 
L 122.628501 101.138009 
L 123.279111 97.81329 
L 123.929721 99.894289 
L 124.580332 99.512174 
L 125.230942 102.785035 
L 125.881552 98.915458 
L 126.532163 101.395148 
L 127.182773 102.450001 
L 127.833383 102.945894 
L 128.483993 106.006071 
L 129.134604 106.791807 
L 129.785214 107.136732 
L 130.435824 107.011455 
L 131.086435 108.171438 
L 131.737045 109.029123 
L 132.387655 108.048973 
L 133.038266 108.815496 
L 133.688876 110.01449 
L 134.339486 108.208027 
L 134.990097 107.493384 
L 135.640707 105.998258 
L 136.291317 105.2076 
L 136.941927 107.148735 
L 137.592538 107.428313 
L 138.243148 105.928673 
L 138.893758 109.31774 
L 139.544369 110.609036 
L 140.194979 104.760316 
L 140.845589 105.555009 
L 141.4962 100.40186 
L 142.14681 101.178053 
L 142.79742 101.613747 
L 143.448031 102.709974 
L 144.098641 105.338448 
L 144.749251 107.263874 
L 145.399862 110.24469 
L 146.050472 111.028129 
L 146.701082 109.929597 
L 147.351692 111.17169 
L 148.002303 112.764442 
L 148.652913 113.504034 
L 149.303523 114.440619 
L 149.954134 113.672856 
L 150.604744 111.802575 
L 151.255354 111.452909 
L 151.905965 114.069603 
L 152.556575 111.677187 
L 153.207185 114.172738 
L 153.857796 115.543988 
L 154.508406 117.321871 
L 155.159016 116.740097 
L 155.809627 119.288778 
L 156.460237 115.740617 
L 157.110847 114.641087 
L 157.761457 110.977779 
L 158.412068 116.247231 
L 159.062678 119.184001 
L 159.713288 119.350421 
L 160.363899 117.120744 
L 161.014509 115.997437 
L 161.665119 119.350755 
L 162.31573 120.991926 
L 162.96634 121.565948 
L 163.61695 120.179388 
L 164.267561 118.257518 
L 164.918171 117.70435 
L 165.568781 114.501745 
L 166.219392 107.180918 
L 167.520612 106.054319 
L 168.171222 111.556199 
L 168.821833 110.337189 
L 169.472443 112.450578 
L 170.123053 110.855868 
L 170.773664 112.904612 
L 171.424274 110.770115 
L 172.074884 112.566203 
L 172.725495 108.595381 
L 173.376105 112.159681 
L 174.026715 113.724229 
L 174.677326 114.862294 
L 175.327936 112.485975 
L 175.978546 108.512574 
L 176.629156 114.045152 
L 177.279767 118.054577 
L 177.930377 116.881626 
L 178.580987 118.658967 
L 179.231598 121.94359 
L 179.882208 124.486794 
L 180.532818 123.091053 
L 181.183429 125.031798 
L 181.834039 124.812184 
L 182.484649 125.212005 
L 183.13526 122.976198 
L 183.78587 122.945346 
L 184.43648 120.292435 
L 185.087091 120.731506 
L 186.388311 115.067518 
L 187.038921 113.554076 
L 187.689532 115.142809 
L 188.340142 113.692817 
L 188.990752 116.905391 
L 189.641363 115.546976 
L 190.291973 117.57101 
L 190.942583 112.517565 
L 191.593194 112.505145 
L 192.243804 109.492086 
L 192.894414 109.525189 
L 193.545025 106.74489 
L 194.195635 105.593538 
L 194.846245 105.925878 
L 195.496856 101.70568 
L 196.147466 99.110491 
L 196.798076 97.838512 
L 197.448686 99.00287 
L 198.099297 99.363924 
L 198.749907 96.530434 
L 199.400517 94.569537 
L 200.051128 99.353631 
L 200.701738 101.260724 
L 201.352348 101.132887 
L 202.002959 101.668033 
L 202.653569 102.041281 
L 203.304179 100.076428 
L 203.95479 101.894923 
L 204.6054 96.530418 
L 205.25601 95.503877 
L 205.906621 96.156218 
L 206.557231 90.938392 
L 207.207841 92.926007 
L 207.858451 94.145267 
L 208.509062 91.972366 
L 209.159672 89.201441 
L 209.810282 88.891335 
L 210.460893 90.385787 
L 211.111503 90.440693 
L 211.762113 90.676618 
L 212.412724 90.556649 
L 213.063334 90.777086 
L 213.713944 95.676798 
L 214.364555 98.405086 
L 215.015165 96.607553 
L 215.665775 94.15699 
L 216.316385 93.815553 
L 216.966996 93.106896 
L 217.617606 94.420444 
L 218.268216 92.519134 
L 218.918827 95.95602 
L 219.569437 93.657057 
L 220.220047 88.742432 
L 220.870658 85.607129 
L 221.521268 81.273673 
L 222.171878 80.068591 
L 222.822489 82.102686 
L 223.473099 82.519873 
L 224.123709 78.168998 
L 224.77432 77.503283 
L 225.42493 77.512387 
L 226.07554 79.235296 
L 226.72615 82.073889 
L 227.376761 80.525171 
L 228.027371 83.182738 
L 228.677981 86.507153 
L 229.328592 88.045575 
L 229.979202 88.251539 
L 230.629812 89.217517 
L 231.931033 97.327839 
L 232.581643 96.738149 
L 233.232254 92.956188 
L 233.882864 90.216882 
L 234.533474 89.619961 
L 235.184085 88.823304 
L 235.834695 88.787991 
L 236.485305 89.514148 
L 237.135915 89.277725 
L 237.786526 88.181412 
L 238.437136 88.744392 
L 239.087746 85.88541 
L 239.738357 81.168092 
L 240.388967 80.893411 
L 241.039577 80.016013 
L 241.690188 83.758303 
L 242.340798 84.170021 
L 242.991408 81.607469 
L 243.642019 86.017316 
L 244.292629 85.693697 
L 244.943239 83.614965 
L 245.59385 80.945885 
L 246.24446 82.155528 
L 246.89507 83.64167 
L 248.196291 82.692876 
L 248.846901 83.642936 
L 249.497511 85.136634 
L 250.148122 84.184035 
L 250.798732 83.511076 
L 251.449342 83.353599 
L 252.099953 87.560666 
L 252.750563 87.238267 
L 253.401173 86.438317 
L 254.051784 86.05782 
L 254.702394 88.667262 
L 255.353004 89.447851 
L 256.003615 90.413453 
L 257.304835 96.665846 
L 257.955445 96.732404 
L 258.606056 96.973477 
L 259.256666 96.235659 
L 259.907276 95.176167 
L 260.557887 97.713734 
L 261.208497 103.319555 
L 261.859107 105.410534 
L 263.160328 99.404024 
L 263.810938 98.833999 
L 264.461549 99.851093 
L 265.112159 103.039601 
L 265.762769 97.851442 
L 266.413379 97.083083 
L 267.06399 100.974586 
L 267.7146 102.272275 
L 268.36521 100.636983 
L 269.015821 103.096549 
L 269.666431 103.131414 
L 270.317041 106.02643 
L 270.967652 108.013319 
L 271.618262 108.774958 
L 272.268872 113.576162 
L 272.919483 112.673251 
L 273.570093 111.579439 
L 274.220703 112.508336 
L 274.871314 112.306549 
L 275.521924 112.510542 
L 276.172534 113.815831 
L 276.823144 112.559992 
L 277.473755 112.773251 
L 278.124365 110.807753 
L 278.774975 110.66983 
L 279.425586 111.128192 
L 280.076196 105.90918 
L 280.726806 106.020995 
L 281.377417 109.189803 
L 282.028027 108.752048 
L 282.678637 110.398938 
L 283.329248 106.425192 
L 283.979858 110.694675 
L 284.630468 108.257683 
L 285.281079 109.335688 
L 285.931689 109.004066 
L 287.232909 113.455046 
L 287.88352 113.447048 
L 288.53413 113.205954 
L 289.18474 113.643657 
L 289.835351 115.183123 
L 290.485961 114.977565 
L 291.136571 115.153691 
L 291.787182 111.173277 
L 292.437792 109.782551 
L 293.088402 106.869339 
L 293.739013 100.2374 
L 294.389623 99.420719 
L 295.040233 99.825855 
L 295.690844 99.359886 
L 296.341454 100.630503 
L 296.992064 97.77685 
L 297.642674 98.562205 
L 298.293285 100.552344 
L 298.943895 102.027552 
L 299.594505 100.443543 
L 300.245116 103.841002 
L 300.895726 100.193694 
L 301.546336 99.580831 
L 302.196947 99.585555 
L 302.847557 99.197112 
L 303.498167 100.815476 
L 304.148778 101.69284 
L 305.449998 106.789357 
L 306.100608 105.911573 
L 306.751219 106.613202 
L 307.401829 104.856955 
L 308.052439 103.943045 
L 308.70305 104.562576 
L 309.35366 103.940266 
L 310.00427 103.804873 
L 310.654881 103.977145 
L 311.305491 101.807553 
L 311.956101 101.759877 
L 312.606712 100.042768 
L 313.257322 100.108636 
L 313.907932 99.687099 
L 314.558543 99.539792 
L 315.209153 97.492532 
L 315.859763 100.906923 
L 316.510373 100.802705 
L 317.160984 102.71312 
L 317.811594 103.24825 
L 318.462204 102.52012 
L 319.112815 98.178263 
L 319.763425 100.95164 
L 320.414035 97.820972 
L 321.064646 97.670095 
L 321.715256 94.771872 
L 322.365866 95.648618 
L 323.016477 94.506054 
L 323.667087 97.630688 
L 324.317697 95.747825 
L 324.968308 99.118418 
L 325.618918 98.064819 
L 326.269528 95.239245 
L 326.920138 94.129449 
L 327.570749 93.806673 
L 328.221359 93.940167 
L 328.871969 94.267424 
L 329.52258 95.498923 
L 330.17319 95.370547 
L 330.8238 90.876932 
L 331.474411 90.333835 
L 332.125021 91.993766 
L 332.775631 92.289603 
L 333.426242 91.409928 
L 334.076852 88.963593 
L 334.727462 88.233053 
L 335.378073 89.501568 
L 336.028683 88.789959 
L 336.679293 86.879011 
L 337.329903 87.707102 
L 337.980514 85.533835 
L 338.631124 86.308958 
L 339.281734 83.223666 
L 339.932345 83.256128 
L 340.582955 87.678428 
L 341.233565 86.233504 
L 341.884176 84.208105 
L 342.534786 83.746832 
L 343.185396 87.599482 
L 343.836007 87.313284 
L 344.486617 86.409993 
L 345.137227 80.458744 
L 345.787837 81.739118 
L 346.438448 83.864793 
L 347.089058 84.01785 
L 347.739668 87.745784 
L 348.390279 87.065725 
L 349.040889 87.472956 
L 349.691499 84.947601 
L 350.34211 85.269105 
L 350.99272 85.91295 
L 351.64333 90.204621 
L 352.293941 89.363972 
L 352.944551 89.728639 
L 353.595161 89.344946 
L 354.245772 88.478354 
L 354.896382 89.152055 
L 355.546992 87.727747 
L 356.197602 87.945397 
L 356.848213 90.414459 
L 357.498823 93.695122 
L 358.149433 92.953752 
L 358.800044 94.669824 
L 359.450654 94.832909 
L 360.101264 92.375384 
L 360.751875 93.130872 
L 361.402485 94.39043 
L 362.703706 93.196635 
L 363.354316 89.1558 
L 364.004926 90.101246 
L 364.655537 89.081896 
L 365.306147 87.377517 
L 365.956757 87.620406 
L 366.607367 89.296424 
L 367.257978 93.318938 
L 367.908588 89.138801 
L 368.559198 89.47549 
L 369.209809 90.021273 
L 369.860419 89.921428 
L 370.511029 86.283338 
L 371.16164 87.235592 
L 371.81225 88.540801 
L 372.46286 87.291843 
L 373.113471 87.727038 
L 373.764081 83.86819 
L 374.414691 84.295572 
L 375.065302 85.456226 
L 375.715912 86.166178 
L 376.366522 85.550409 
L 377.017132 90.158568 
L 377.667743 92.511279 
L 378.318353 93.742334 
L 378.968963 95.55538 
L 379.619574 96.20896 
L 380.270184 93.285174 
L 380.920794 92.946433 
L 381.571405 93.729764 
L 382.222015 95.011365 
L 382.872625 97.583311 
L 383.523236 95.319595 
L 384.173846 93.608859 
L 384.824456 94.678341 
L 385.475066 94.638791 
L 386.125677 93.39029 
L 386.776287 93.803025 
L 387.426897 93.461969 
L 388.077508 91.567991 
L 388.728118 93.335445 
L 389.378728 90.553348 
L 390.029339 93.194918 
L 390.679949 92.567412 
L 391.330559 92.463695 
L 391.98117 91.023146 
L 392.63178 88.529492 
L 393.28239 88.553306 
L 393.933001 93.064861 
L 394.583611 94.012301 
L 395.234221 93.215916 
L 395.884831 95.967298 
L 396.535442 99.498187 
L 397.186052 101.290508 
L 397.836662 98.717233 
L 398.487273 99.61493 
L 398.487273 99.61493 
" clip-path="url(#p1ce3454fa4)" style="fill: none; stroke: #1f77b4; stroke-width: 1.5; stroke-linecap: square"/>
   </g>
   <g id="line2d_28">
    <path d="M 73.832727 53.568 
L 74.483338 191.701462 
L 75.133948 225.354373 
L 75.784558 239.582398 
L 76.435169 224.492063 
L 77.085779 241.8332 
L 77.736389 232.094982 
L 78.386999 228.738802 
L 79.03761 266.064827 
L 79.68822 237.425094 
L 80.33883 240.883166 
L 80.989441 233.662312 
L 81.640051 244.5996 
L 82.290661 219.429295 
L 82.941272 230.955124 
L 83.591882 231.979407 
L 84.242492 239.573665 
L 84.893103 250.24512 
L 85.543713 252.904793 
L 86.194323 260.987929 
L 86.844934 254.580734 
L 87.495544 253.306054 
L 88.146154 235.608854 
L 88.796764 229.627101 
L 89.447375 224.760308 
L 90.097985 225.120022 
L 90.748595 231.814707 
L 91.399206 232.65629 
L 92.049816 235.200549 
L 92.700426 251.39255 
L 93.351037 253.052959 
L 94.001647 253.633843 
L 94.652257 258.101634 
L 95.302868 257.306481 
L 95.953478 262.229256 
L 96.604088 261.025133 
L 97.254698 264.905848 
L 97.905309 256.116403 
L 98.555919 252.252606 
L 99.206529 251.808001 
L 99.85714 245.74083 
L 100.50775 241.113672 
L 101.15836 243.33567 
L 101.808971 241.384692 
L 102.459581 253.222441 
L 103.110191 251.290978 
L 103.760802 251.406286 
L 104.411412 249.8444 
L 105.062022 258.877071 
L 105.712633 255.934359 
L 106.363243 268.357562 
L 107.013853 268.666527 
L 107.664463 262.118459 
L 108.315074 260.825404 
L 108.965684 270.352888 
L 109.616294 271.455812 
L 110.266905 268.881147 
L 110.917515 263.008088 
L 111.568125 259.282247 
L 112.218736 254.006813 
L 112.869346 256.464137 
L 113.519956 252.737783 
L 114.170567 250.221412 
L 114.821177 259.584723 
L 115.471787 254.065081 
L 116.122398 251.097537 
L 116.773008 249.606521 
L 117.423618 248.700362 
L 118.074228 250.098391 
L 118.724839 255.094975 
L 120.026059 251.544275 
L 120.67667 248.984906 
L 121.32728 245.29066 
L 121.97789 244.7505 
L 122.628501 250.104312 
L 123.279111 256.488141 
L 124.580332 255.606781 
L 125.230942 256.373571 
L 125.881552 258.031188 
L 126.532163 256.843011 
L 127.182773 263.567472 
L 127.833383 263.058181 
L 128.483993 260.804137 
L 129.134604 260.390752 
L 129.785214 260.346306 
L 131.086435 256.387214 
L 131.737045 256.311204 
L 133.038266 249.395837 
L 133.688876 247.495595 
L 134.339486 249.244738 
L 134.990097 249.177669 
L 135.640707 251.061328 
L 136.291317 251.059452 
L 136.941927 250.1209 
L 137.592538 249.637148 
L 138.893758 251.91541 
L 139.544369 252.587175 
L 140.194979 251.662697 
L 140.845589 249.284561 
L 141.4962 247.665256 
L 142.14681 247.001199 
L 142.79742 249.465629 
L 143.448031 248.036104 
L 144.098641 246.319168 
L 144.749251 242.114398 
L 145.399862 241.449835 
L 146.701082 241.693398 
L 147.351692 239.15118 
L 148.002303 248.609162 
L 148.652913 245.461518 
L 149.303523 244.669726 
L 149.954134 244.293525 
L 150.604744 249.250815 
L 151.255354 248.400812 
L 151.905965 246.461693 
L 152.556575 247.066046 
L 153.207185 250.426646 
L 153.857796 253.123121 
L 154.508406 254.83724 
L 155.159016 257.416896 
L 155.809627 256.730059 
L 156.460237 257.760017 
L 157.110847 256.992579 
L 157.761457 255.890328 
L 158.412068 252.111637 
L 159.062678 251.685679 
L 159.713288 252.554379 
L 160.363899 250.517609 
L 161.014509 251.977361 
L 161.665119 249.446601 
L 162.31573 248.647853 
L 162.96634 251.557631 
L 163.61695 256.991753 
L 164.267561 254.246646 
L 164.918171 253.179393 
L 165.568781 255.747702 
L 166.219392 253.413825 
L 166.870002 249.79547 
L 167.520612 250.036049 
L 168.171222 246.15792 
L 168.821833 243.459714 
L 169.472443 244.768084 
L 170.123053 241.984381 
L 170.773664 237.109202 
L 171.424274 240.663063 
L 172.074884 238.159031 
L 172.725495 243.056188 
L 173.376105 245.583209 
L 174.026715 246.63596 
L 174.677326 242.242683 
L 175.327936 242.420527 
L 175.978546 241.250291 
L 176.629156 244.051857 
L 177.279767 249.137274 
L 177.930377 251.130102 
L 178.580987 249.441151 
L 179.231598 250.902813 
L 179.882208 253.238003 
L 180.532818 252.082335 
L 181.183429 255.286088 
L 181.834039 254.763432 
L 182.484649 257.055952 
L 183.13526 255.175367 
L 183.78587 255.149159 
L 184.43648 248.237989 
L 185.087091 249.615232 
L 185.737701 253.842957 
L 186.388311 254.581344 
L 187.038921 259.950634 
L 187.689532 260.880442 
L 188.340142 256.5649 
L 188.990752 253.190409 
L 189.641363 253.07717 
L 190.942583 251.012345 
L 191.593194 250.25294 
L 192.243804 249.842477 
L 192.894414 242.258899 
L 193.545025 244.427599 
L 194.195635 245.24832 
L 194.846245 244.278832 
L 195.496856 243.854878 
L 196.147466 247.337907 
L 196.798076 248.233168 
L 197.448686 246.913882 
L 198.099297 250.92002 
L 198.749907 256.184719 
L 199.400517 263.562832 
L 200.051128 262.211826 
L 200.701738 260.348378 
L 201.352348 265.086241 
L 202.002959 266.69069 
L 202.653569 266.869755 
L 203.304179 267.332685 
L 203.95479 263.467679 
L 204.6054 264.003565 
L 205.25601 262.186965 
L 205.906621 263.988551 
L 206.557231 268.279859 
L 207.207841 269.990152 
L 207.858451 270.812725 
L 208.509062 267.282666 
L 209.159672 274.628466 
L 209.810282 275.100394 
L 211.111503 278.293152 
L 211.762113 279.650129 
L 212.412724 277.945954 
L 213.063334 279.556063 
L 213.713944 272.957576 
L 214.364555 272.641618 
L 215.015165 274.914897 
L 215.665775 271.256889 
L 216.316385 266.904598 
L 216.966996 267.509545 
L 217.617606 268.553418 
L 218.268216 269.342035 
L 218.918827 264.318556 
L 219.569437 265.545544 
L 220.220047 264.243764 
L 220.870658 262.215111 
L 221.521268 261.781972 
L 222.171878 255.088015 
L 222.822489 255.553353 
L 223.473099 254.052642 
L 224.123709 254.023035 
L 224.77432 252.644384 
L 225.42493 250.877036 
L 226.07554 250.60529 
L 226.72615 251.913639 
L 227.376761 257.015765 
L 228.027371 259.757944 
L 228.677981 257.062398 
L 229.328592 260.542863 
L 230.629812 270.416425 
L 231.280423 268.393519 
L 231.931033 276.476172 
L 232.581643 280.069202 
L 233.232254 277.999617 
L 233.882864 279.271721 
L 234.533474 284.841924 
L 235.184085 283.844465 
L 235.834695 284.799397 
L 236.485305 286.434353 
L 237.135915 284.910255 
L 237.786526 280.985306 
L 238.437136 274.344756 
L 239.087746 279.430208 
L 239.738357 276.040678 
L 240.388967 274.432752 
L 241.039577 273.315773 
L 241.690188 275.716667 
L 242.340798 275.642582 
L 242.991408 277.238935 
L 243.642019 280.788527 
L 244.292629 281.036432 
L 244.943239 281.8923 
L 245.59385 279.927154 
L 246.24446 277.060878 
L 246.89507 276.640572 
L 247.54568 276.925807 
L 248.846901 276.00184 
L 249.497511 273.387809 
L 250.148122 278.58436 
L 250.798732 277.757736 
L 251.449342 273.2401 
L 252.099953 275.607196 
L 252.750563 272.707204 
L 253.401173 273.007032 
L 254.051784 278.852819 
L 254.702394 277.730948 
L 255.353004 276.953181 
L 256.003615 276.79458 
L 256.654225 277.814844 
L 257.304835 281.61658 
L 257.955445 282.040459 
L 258.606056 285.103531 
L 259.256666 284.473405 
L 259.907276 285.747496 
L 260.557887 285.851144 
L 261.208497 284.982712 
L 261.859107 285.601583 
L 262.509718 283.7439 
L 263.160328 281.315593 
L 263.810938 277.271013 
L 264.461549 271.467933 
L 265.112159 263.492214 
L 266.413379 265.985475 
L 267.06399 258.851259 
L 267.7146 256.627171 
L 268.36521 257.987961 
L 269.015821 259.799529 
L 269.666431 263.924537 
L 270.317041 260.048126 
L 271.618262 264.904719 
L 272.268872 261.694978 
L 272.919483 255.930325 
L 273.570093 255.507528 
L 274.220703 260.283702 
L 274.871314 255.674873 
L 275.521924 257.588173 
L 276.172534 256.077694 
L 276.823144 258.076763 
L 277.473755 256.553794 
L 278.124365 265.244164 
L 278.774975 263.041504 
L 279.425586 265.16236 
L 280.076196 271.202871 
L 280.726806 270.878951 
L 281.377417 272.2137 
L 282.028027 267.038586 
L 282.678637 270.818206 
L 283.329248 270.584669 
L 283.979858 273.019461 
L 284.630468 273.708072 
L 285.281079 271.951023 
L 285.931689 273.050628 
L 286.582299 274.589778 
L 287.232909 276.740344 
L 287.88352 279.316325 
L 288.53413 277.262445 
L 289.18474 279.576877 
L 289.835351 276.879315 
L 290.485961 277.013033 
L 291.136571 276.243488 
L 291.787182 272.977092 
L 292.437792 271.990764 
L 293.739013 264.071987 
L 294.389623 262.76976 
L 295.040233 255.661541 
L 295.690844 253.674449 
L 296.341454 249.689596 
L 296.992064 251.018054 
L 297.642674 251.481962 
L 298.293285 248.888787 
L 298.943895 249.864245 
L 299.594505 252.176455 
L 300.245116 250.399263 
L 300.895726 248.976638 
L 301.546336 252.679647 
L 302.196947 250.341907 
L 302.847557 249.929554 
L 303.498167 249.07844 
L 304.148778 248.879933 
L 304.799388 243.749055 
L 306.100608 250.446318 
L 306.751219 252.059137 
L 307.401829 253.042917 
L 308.052439 255.458019 
L 308.70305 250.814704 
L 309.35366 250.169643 
L 310.00427 257.082287 
L 311.305491 258.584965 
L 311.956101 262.351389 
L 312.606712 260.267638 
L 313.257322 263.716868 
L 313.907932 264.368041 
L 314.558543 263.845994 
L 315.209153 269.484218 
L 315.859763 269.883636 
L 316.510373 269.621655 
L 317.160984 268.666292 
L 317.811594 266.756199 
L 318.462204 266.749658 
L 319.112815 261.349046 
L 319.763425 253.666303 
L 320.414035 249.863186 
L 321.064646 256.543104 
L 321.715256 261.337336 
L 322.365866 262.374428 
L 323.016477 259.59191 
L 323.667087 258.697435 
L 325.618918 249.346393 
L 326.269528 250.294772 
L 326.920138 250.893972 
L 327.570749 250.134876 
L 328.221359 253.894652 
L 328.871969 258.915255 
L 330.17319 264.723394 
L 330.8238 269.945538 
L 331.474411 267.163714 
L 332.125021 268.79151 
L 332.775631 268.724214 
L 333.426242 269.483171 
L 334.076852 265.363077 
L 334.727462 264.488176 
L 335.378073 261.580187 
L 336.028683 260.85021 
L 336.679293 263.459751 
L 337.329903 257.944454 
L 338.631124 264.043135 
L 339.281734 262.698533 
L 339.932345 262.708279 
L 340.582955 263.003152 
L 341.233565 261.868491 
L 341.884176 264.288143 
L 342.534786 262.746874 
L 343.185396 261.950037 
L 343.836007 254.935282 
L 344.486617 254.485651 
L 345.137227 249.273294 
L 345.787837 245.395326 
L 346.438448 242.449297 
L 347.089058 246.457376 
L 347.739668 245.947597 
L 348.390279 248.57299 
L 349.040889 250.629746 
L 349.691499 246.003051 
L 350.34211 250.693926 
L 350.99272 253.55303 
L 351.64333 252.254744 
L 352.293941 258.115034 
L 352.944551 258.201687 
L 353.595161 260.580818 
L 354.245772 263.756506 
L 354.896382 265.417184 
L 355.546992 269.955968 
L 356.197602 271.771712 
L 356.848213 275.901362 
L 357.498823 280.867965 
L 358.149433 283.022581 
L 358.800044 285.704339 
L 359.450654 286.750815 
L 360.101264 286.514678 
L 360.751875 286.950913 
L 361.402485 289.981795 
L 362.053095 289.203993 
L 362.703706 290.330713 
L 363.354316 286.141817 
L 364.004926 287.309708 
L 364.655537 284.693205 
L 365.306147 278.689179 
L 365.956757 277.186058 
L 366.607367 278.732428 
L 367.257978 278.633769 
L 368.559198 281.751479 
L 369.209809 284.040767 
L 369.860419 284.033462 
L 370.511029 288.869837 
L 371.16164 287.573678 
L 371.81225 282.334242 
L 372.46286 281.884032 
L 373.113471 280.115274 
L 373.764081 279.204966 
L 374.414691 278.586671 
L 375.065302 275.40368 
L 375.715912 265.819847 
L 376.366522 268.807649 
L 377.017132 269.187953 
L 377.667743 266.452774 
L 378.318353 269.14545 
L 378.968963 269.518956 
L 379.619574 267.368679 
L 380.270184 271.665955 
L 380.920794 267.363042 
L 381.571405 266.778193 
L 382.222015 268.755169 
L 382.872625 271.590318 
L 383.523236 271.423386 
L 385.475066 284.145079 
L 386.125677 285.106529 
L 387.426897 270.167464 
L 388.077508 268.972609 
L 388.728118 265.576455 
L 389.378728 268.455261 
L 390.029339 270.473465 
L 390.679949 269.513788 
L 391.330559 278.539668 
L 391.98117 275.465392 
L 393.28239 278.74541 
L 393.933001 281.73305 
L 394.583611 279.308401 
L 395.234221 278.518213 
L 395.884831 279.265708 
L 396.535442 274.432052 
L 397.186052 278.047398 
L 397.836662 278.238986 
L 398.487273 278.572689 
L 398.487273 278.572689 
" clip-path="url(#p1ce3454fa4)" style="fill: none; stroke: #ff7f0e; stroke-width: 1.5; stroke-linecap: square"/>
   </g>
   <g id="patch_3">
    <path d="M 57.6 307.584 
L 57.6 41.472 
" style="fill: none; stroke: #000000; stroke-width: 0.8; stroke-linejoin: miter; stroke-linecap: square"/>
   </g>
   <g id="patch_4">
    <path d="M 414.72 307.584 
L 414.72 41.472 
" style="fill: none; stroke: #000000; stroke-width: 0.8; stroke-linejoin: miter; stroke-linecap: square"/>
   </g>
   <g id="patch_5">
    <path d="M 57.6 307.584 
L 414.72 307.584 
" style="fill: none; stroke: #000000; stroke-width: 0.8; stroke-linejoin: miter; stroke-linecap: square"/>
   </g>
   <g id="patch_6">
    <path d="M 57.6 41.472 
L 414.72 41.472 
" style="fill: none; stroke: #000000; stroke-width: 0.8; stroke-linejoin: miter; stroke-linecap: square"/>
   </g>
   <g id="text_16">
    <!-- Rolling average monitoring progress of profits/by_selling_refurbished -->
    <g transform="translate(29.256563 35.472)scale(0.12 -0.12)">
     <defs>
      <path id="DejaVuSans-52" d="M 2841 2188 
Q 3044 2119 3236 1894 
Q 3428 1669 3622 1275 
L 4263 0 
L 3584 0 
L 2988 1197 
Q 2756 1666 2539 1819 
Q 2322 1972 1947 1972 
L 1259 1972 
L 1259 0 
L 628 0 
L 628 4666 
L 2053 4666 
Q 2853 4666 3247 4331 
Q 3641 3997 3641 3322 
Q 3641 2881 3436 2590 
Q 3231 2300 2841 2188 
z
M 1259 4147 
L 1259 2491 
L 2053 2491 
Q 2509 2491 2742 2702 
Q 2975 2913 2975 3322 
Q 2975 3731 2742 3939 
Q 2509 4147 2053 4147 
L 1259 4147 
z
" transform="scale(0.015625)"/>
      <path id="DejaVuSans-20" transform="scale(0.015625)"/>
      <path id="DejaVuSans-61" d="M 2194 1759 
Q 1497 1759 1228 1600 
Q 959 1441 959 1056 
Q 959 750 1161 570 
Q 1363 391 1709 391 
Q 2188 391 2477 730 
Q 2766 1069 2766 1631 
L 2766 1759 
L 2194 1759 
z
M 3341 1997 
L 3341 0 
L 2766 0 
L 2766 531 
Q 2569 213 2275 61 
Q 1981 -91 1556 -91 
Q 1019 -91 701 211 
Q 384 513 384 1019 
Q 384 1609 779 1909 
Q 1175 2209 1959 2209 
L 2766 2209 
L 2766 2266 
Q 2766 2663 2505 2880 
Q 2244 3097 1772 3097 
Q 1472 3097 1187 3025 
Q 903 2953 641 2809 
L 641 3341 
Q 956 3463 1253 3523 
Q 1550 3584 1831 3584 
Q 2591 3584 2966 3190 
Q 3341 2797 3341 1997 
z
" transform="scale(0.015625)"/>
      <path id="DejaVuSans-76" d="M 191 3500 
L 800 3500 
L 1894 563 
L 2988 3500 
L 3597 3500 
L 2284 0 
L 1503 0 
L 191 3500 
z
" transform="scale(0.015625)"/>
      <path id="DejaVuSans-6d" d="M 3328 2828 
Q 3544 3216 3844 3400 
Q 4144 3584 4550 3584 
Q 5097 3584 5394 3201 
Q 5691 2819 5691 2113 
L 5691 0 
L 5113 0 
L 5113 2094 
Q 5113 2597 4934 2840 
Q 4756 3084 4391 3084 
Q 3944 3084 3684 2787 
Q 3425 2491 3425 1978 
L 3425 0 
L 2847 0 
L 2847 2094 
Q 2847 2600 2669 2842 
Q 2491 3084 2119 3084 
Q 1678 3084 1418 2786 
Q 1159 2488 1159 1978 
L 1159 0 
L 581 0 
L 581 3500 
L 1159 3500 
L 1159 2956 
Q 1356 3278 1631 3431 
Q 1906 3584 2284 3584 
Q 2666 3584 2933 3390 
Q 3200 3197 3328 2828 
z
" transform="scale(0.015625)"/>
     </defs>
     <use xlink:href="#DejaVuSans-52"/>
     <use xlink:href="#DejaVuSans-6f" x="64.982422"/>
     <use xlink:href="#DejaVuSans-6c" x="126.164062"/>
     <use xlink:href="#DejaVuSans-6c" x="153.947266"/>
     <use xlink:href="#DejaVuSans-69" x="181.730469"/>
     <use xlink:href="#DejaVuSans-6e" x="209.513672"/>
     <use xlink:href="#DejaVuSans-67" x="272.892578"/>
     <use xlink:href="#DejaVuSans-20" x="336.369141"/>
     <use xlink:href="#DejaVuSans-61" x="368.15625"/>
     <use xlink:href="#DejaVuSans-76" x="429.435547"/>
     <use xlink:href="#DejaVuSans-65" x="488.615234"/>
     <use xlink:href="#DejaVuSans-72" x="550.138672"/>
     <use xlink:href="#DejaVuSans-61" x="591.251953"/>
     <use xlink:href="#DejaVuSans-67" x="652.53125"/>
     <use xlink:href="#DejaVuSans-65" x="716.007812"/>
     <use xlink:href="#DejaVuSans-20" x="777.53125"/>
     <use xlink:href="#DejaVuSans-6d" x="809.318359"/>
     <use xlink:href="#DejaVuSans-6f" x="906.730469"/>
     <use xlink:href="#DejaVuSans-6e" x="967.912109"/>
     <use xlink:href="#DejaVuSans-69" x="1031.291016"/>
     <use xlink:href="#DejaVuSans-74" x="1059.074219"/>
     <use xlink:href="#DejaVuSans-6f" x="1098.283203"/>
     <use xlink:href="#DejaVuSans-72" x="1159.464844"/>
     <use xlink:href="#DejaVuSans-69" x="1200.578125"/>
     <use xlink:href="#DejaVuSans-6e" x="1228.361328"/>
     <use xlink:href="#DejaVuSans-67" x="1291.740234"/>
     <use xlink:href="#DejaVuSans-20" x="1355.216797"/>
     <use xlink:href="#DejaVuSans-70" x="1387.003906"/>
     <use xlink:href="#DejaVuSans-72" x="1450.480469"/>
     <use xlink:href="#DejaVuSans-6f" x="1489.34375"/>
     <use xlink:href="#DejaVuSans-67" x="1550.525391"/>
     <use xlink:href="#DejaVuSans-72" x="1614.001953"/>
     <use xlink:href="#DejaVuSans-65" x="1652.865234"/>
     <use xlink:href="#DejaVuSans-73" x="1714.388672"/>
     <use xlink:href="#DejaVuSans-73" x="1766.488281"/>
     <use xlink:href="#DejaVuSans-20" x="1818.587891"/>
     <use xlink:href="#DejaVuSans-6f" x="1850.375"/>
     <use xlink:href="#DejaVuSans-66" x="1911.556641"/>
     <use xlink:href="#DejaVuSans-20" x="1946.761719"/>
     <use xlink:href="#DejaVuSans-70" x="1978.548828"/>
     <use xlink:href="#DejaVuSans-72" x="2042.025391"/>
     <use xlink:href="#DejaVuSans-6f" x="2080.888672"/>
     <use xlink:href="#DejaVuSans-66" x="2142.070312"/>
     <use xlink:href="#DejaVuSans-69" x="2177.275391"/>
     <use xlink:href="#DejaVuSans-74" x="2205.058594"/>
     <use xlink:href="#DejaVuSans-73" x="2244.267578"/>
     <use xlink:href="#DejaVuSans-2f" x="2296.367188"/>
     <use xlink:href="#DejaVuSans-62" x="2330.058594"/>
     <use xlink:href="#DejaVuSans-79" x="2393.535156"/>
     <use xlink:href="#DejaVuSans-5f" x="2452.714844"/>
     <use xlink:href="#DejaVuSans-73" x="2502.714844"/>
     <use xlink:href="#DejaVuSans-65" x="2554.814453"/>
     <use xlink:href="#DejaVuSans-6c" x="2616.337891"/>
     <use xlink:href="#DejaVuSans-6c" x="2644.121094"/>
     <use xlink:href="#DejaVuSans-69" x="2671.904297"/>
     <use xlink:href="#DejaVuSans-6e" x="2699.6875"/>
     <use xlink:href="#DejaVuSans-67" x="2763.066406"/>
     <use xlink:href="#DejaVuSans-5f" x="2826.542969"/>
     <use xlink:href="#DejaVuSans-72" x="2876.542969"/>
     <use xlink:href="#DejaVuSans-65" x="2915.40625"/>
     <use xlink:href="#DejaVuSans-66" x="2976.929688"/>
     <use xlink:href="#DejaVuSans-75" x="3012.134766"/>
     <use xlink:href="#DejaVuSans-72" x="3075.513672"/>
     <use xlink:href="#DejaVuSans-62" x="3116.626953"/>
     <use xlink:href="#DejaVuSans-69" x="3180.103516"/>
     <use xlink:href="#DejaVuSans-73" x="3207.886719"/>
     <use xlink:href="#DejaVuSans-68" x="3259.986328"/>
     <use xlink:href="#DejaVuSans-65" x="3323.365234"/>
     <use xlink:href="#DejaVuSans-64" x="3384.888672"/>
    </g>
   </g>
   <g id="legend_1">
    <g id="patch_7">
     <path d="M 284.430938 78.82825 
L 407.72 78.82825 
Q 409.72 78.82825 409.72 76.82825 
L 409.72 48.472 
Q 409.72 46.472 407.72 46.472 
L 284.430938 46.472 
Q 282.430938 46.472 282.430938 48.472 
L 282.430938 76.82825 
Q 282.430938 78.82825 284.430938 78.82825 
z
" style="fill: #ffffff; opacity: 0.8; stroke: #cccccc; stroke-linejoin: miter"/>
    </g>
    <g id="line2d_29">
     <path d="M 286.430938 54.570437 
L 296.430938 54.570437 
L 306.430938 54.570437 
" style="fill: none; stroke: #1f77b4; stroke-width: 1.5; stroke-linecap: square"/>
    </g>
    <g id="text_17">
     <!-- SACAgent -->
     <g transform="translate(314.430938 58.070437)scale(0.1 -0.1)">
      <defs>
       <path id="DejaVuSans-53" d="M 3425 4513 
L 3425 3897 
Q 3066 4069 2747 4153 
Q 2428 4238 2131 4238 
Q 1616 4238 1336 4038 
Q 1056 3838 1056 3469 
Q 1056 3159 1242 3001 
Q 1428 2844 1947 2747 
L 2328 2669 
Q 3034 2534 3370 2195 
Q 3706 1856 3706 1288 
Q 3706 609 3251 259 
Q 2797 -91 1919 -91 
Q 1588 -91 1214 -16 
Q 841 59 441 206 
L 441 856 
Q 825 641 1194 531 
Q 1563 422 1919 422 
Q 2459 422 2753 634 
Q 3047 847 3047 1241 
Q 3047 1584 2836 1778 
Q 2625 1972 2144 2069 
L 1759 2144 
Q 1053 2284 737 2584 
Q 422 2884 422 3419 
Q 422 4038 858 4394 
Q 1294 4750 2059 4750 
Q 2388 4750 2728 4690 
Q 3069 4631 3425 4513 
z
" transform="scale(0.015625)"/>
       <path id="DejaVuSans-41" d="M 2188 4044 
L 1331 1722 
L 3047 1722 
L 2188 4044 
z
M 1831 4666 
L 2547 4666 
L 4325 0 
L 3669 0 
L 3244 1197 
L 1141 1197 
L 716 0 
L 50 0 
L 1831 4666 
z
" transform="scale(0.015625)"/>
       <path id="DejaVuSans-43" d="M 4122 4306 
L 4122 3641 
Q 3803 3938 3442 4084 
Q 3081 4231 2675 4231 
Q 1875 4231 1450 3742 
Q 1025 3253 1025 2328 
Q 1025 1406 1450 917 
Q 1875 428 2675 428 
Q 3081 428 3442 575 
Q 3803 722 4122 1019 
L 4122 359 
Q 3791 134 3420 21 
Q 3050 -91 2638 -91 
Q 1578 -91 968 557 
Q 359 1206 359 2328 
Q 359 3453 968 4101 
Q 1578 4750 2638 4750 
Q 3056 4750 3426 4639 
Q 3797 4528 4122 4306 
z
" transform="scale(0.015625)"/>
      </defs>
      <use xlink:href="#DejaVuSans-53"/>
      <use xlink:href="#DejaVuSans-41" x="65.351562"/>
      <use xlink:href="#DejaVuSans-43" x="132.009766"/>
      <use xlink:href="#DejaVuSans-41" x="201.833984"/>
      <use xlink:href="#DejaVuSans-67" x="270.242188"/>
      <use xlink:href="#DejaVuSans-65" x="333.71875"/>
      <use xlink:href="#DejaVuSans-6e" x="395.242188"/>
      <use xlink:href="#DejaVuSans-74" x="458.621094"/>
     </g>
    </g>
    <g id="line2d_30">
     <path d="M 286.430938 69.248562 
L 296.430938 69.248562 
L 306.430938 69.248562 
" style="fill: none; stroke: #ff7f0e; stroke-width: 1.5; stroke-linecap: square"/>
    </g>
    <g id="text_18">
     <!-- Storage-Minimizer -->
     <g transform="translate(314.430938 72.748562)scale(0.1 -0.1)">
      <defs>
       <path id="DejaVuSans-2d" d="M 313 2009 
L 1997 2009 
L 1997 1497 
L 313 1497 
L 313 2009 
z
" transform="scale(0.015625)"/>
       <path id="DejaVuSans-4d" d="M 628 4666 
L 1569 4666 
L 2759 1491 
L 3956 4666 
L 4897 4666 
L 4897 0 
L 4281 0 
L 4281 4097 
L 3078 897 
L 2444 897 
L 1241 4097 
L 1241 0 
L 628 0 
L 628 4666 
z
" transform="scale(0.015625)"/>
       <path id="DejaVuSans-7a" d="M 353 3500 
L 3084 3500 
L 3084 2975 
L 922 459 
L 3084 459 
L 3084 0 
L 275 0 
L 275 525 
L 2438 3041 
L 353 3041 
L 353 3500 
z
" transform="scale(0.015625)"/>
      </defs>
      <use xlink:href="#DejaVuSans-53"/>
      <use xlink:href="#DejaVuSans-74" x="63.476562"/>
      <use xlink:href="#DejaVuSans-6f" x="102.685547"/>
      <use xlink:href="#DejaVuSans-72" x="163.867188"/>
      <use xlink:href="#DejaVuSans-61" x="204.980469"/>
      <use xlink:href="#DejaVuSans-67" x="266.259766"/>
      <use xlink:href="#DejaVuSans-65" x="329.736328"/>
      <use xlink:href="#DejaVuSans-2d" x="391.259766"/>
      <use xlink:href="#DejaVuSans-4d" x="427.34375"/>
      <use xlink:href="#DejaVuSans-69" x="513.623047"/>
      <use xlink:href="#DejaVuSans-6e" x="541.40625"/>
      <use xlink:href="#DejaVuSans-69" x="604.785156"/>
      <use xlink:href="#DejaVuSans-6d" x="632.568359"/>
      <use xlink:href="#DejaVuSans-69" x="729.980469"/>
      <use xlink:href="#DejaVuSans-7a" x="757.763672"/>
      <use xlink:href="#DejaVuSans-65" x="810.253906"/>
      <use xlink:href="#DejaVuSans-72" x="871.777344"/>
     </g>
    </g>
   </g>
  </g>
 </g>
 <defs>
  <clipPath id="p1ce3454fa4">
   <rect x="57.6" y="41.472" width="357.12" height="266.112"/>
  </clipPath>
 </defs>
</svg>
