<?xml version="1.0" encoding="utf-8" standalone="no"?>
<!DOCTYPE svg PUBLIC "-//W3C//DTD SVG 1.1//EN"
  "http://www.w3.org/Graphics/SVG/1.1/DTD/svg11.dtd">
<svg xmlns:xlink="http://www.w3.org/1999/xlink" width="460.8pt" height="345.6pt" viewBox="0 0 460.8 345.6" xmlns="http://www.w3.org/2000/svg" version="1.1">
 <metadata>
  <rdf:RDF xmlns:dc="http://purl.org/dc/elements/1.1/" xmlns:cc="http://creativecommons.org/ns#" xmlns:rdf="http://www.w3.org/1999/02/22-rdf-syntax-ns#">
   <cc:Work>
    <dc:type rdf:resource="http://purl.org/dc/dcmitype/StillImage"/>
    <dc:date>2022-06-21T20:44:57.704557</dc:date>
    <dc:format>image/svg+xml</dc:format>
    <dc:creator>
     <cc:Agent>
      <dc:title>Matplotlib v3.5.2, https://matplotlib.org/</dc:title>
     </cc:Agent>
    </dc:creator>
   </cc:Work>
  </rdf:RDF>
 </metadata>
 <defs>
  <style type="text/css">*{stroke-linejoin: round; stroke-linecap: butt}</style>
 </defs>
 <g id="figure_1">
  <g id="patch_1">
   <path d="M 0 345.6 
L 460.8 345.6 
L 460.8 0 
L 0 0 
z
" style="fill: #ffffff"/>
  </g>
  <g id="axes_1">
   <g id="patch_2">
    <path d="M 57.6 307.584 
L 414.72 307.584 
L 414.72 41.472 
L 57.6 41.472 
z
" style="fill: #ffffff"/>
   </g>
   <g id="PolyCollection_1">
    <path d="M 109.770579 283.644686 
L 106.139038 283.644686 
L 105.829548 282.351454 
L 105.475041 281.058221 
L 105.064011 279.764989 
L 104.582369 278.471757 
L 104.014138 277.178524 
L 103.342615 275.885292 
L 102.551918 274.59206 
L 101.628805 273.298827 
L 100.56455 272.005595 
L 99.356653 270.712363 
L 98.010159 269.41913 
L 96.538381 268.125898 
L 94.96288 266.832665 
L 93.312661 265.539433 
L 91.622582 264.246201 
L 89.931133 262.952968 
L 88.277757 261.659736 
L 86.699974 260.366504 
L 85.230587 259.073271 
L 83.895235 257.780039 
L 82.710534 256.486806 
L 81.682989 255.193574 
L 80.808798 253.900342 
L 80.074575 252.607109 
L 79.458953 251.313877 
L 78.934949 250.020645 
L 78.472886 248.727412 
L 78.043613 247.43418 
L 77.621706 246.140948 
L 77.188314 244.847715 
L 76.733302 243.554483 
L 76.256418 242.26125 
L 75.767274 240.968018 
L 75.284078 239.674786 
L 74.831219 238.381553 
L 74.43596 237.088321 
L 74.124649 235.795089 
L 73.918968 234.501856 
L 73.832727 233.208624 
L 73.869696 231.915391 
L 74.022773 230.622159 
L 74.274623 229.328927 
L 74.599643 228.035694 
L 74.966924 226.742462 
L 75.343717 225.44923 
L 75.698838 224.155997 
L 76.005522 222.862765 
L 76.243374 221.569533 
L 76.399267 220.2763 
L 76.467281 218.983068 
L 76.447938 217.689835 
L 76.347095 216.396603 
L 76.174842 215.103371 
L 75.94467 213.810138 
L 75.672989 212.516906 
L 75.378934 211.223674 
L 75.084216 209.930441 
L 74.812778 208.637209 
L 74.589988 207.343976 
L 74.44126 206.050744 
L 74.390152 204.757512 
L 74.456155 203.464279 
L 74.652533 202.171047 
L 74.984635 200.877815 
L 75.449028 199.584582 
L 76.033726 198.29135 
L 76.719529 196.998118 
L 77.482337 195.704885 
L 78.296062 194.411653 
L 79.135676 193.11842 
L 79.979911 191.825188 
L 80.813177 190.531956 
L 81.626472 189.238723 
L 82.417225 187.945491 
L 83.188252 186.652259 
L 83.94613 185.359026 
L 84.699398 184.065794 
L 85.456955 182.772561 
L 86.226911 181.479329 
L 87.01602 180.186097 
L 87.829622 178.892864 
L 88.67192 177.599632 
L 89.546328 176.3064 
L 90.455674 175.013167 
L 91.402082 173.719935 
L 92.386521 172.426703 
L 93.408108 171.13347 
L 94.463365 169.840238 
L 95.545646 168.547005 
L 96.64494 167.253773 
L 97.748162 165.960541 
L 98.83993 164.667308 
L 99.903729 163.374076 
L 100.923273 162.080844 
L 101.883834 160.787611 
L 102.773355 159.494379 
L 103.583182 158.201146 
L 104.308368 156.907914 
L 104.94756 155.614682 
L 110.962057 155.614682 
L 110.962057 155.614682 
L 111.60125 156.907914 
L 112.326436 158.201146 
L 113.136263 159.494379 
L 114.025784 160.787611 
L 114.986345 162.080844 
L 116.005889 163.374076 
L 117.069688 164.667308 
L 118.161456 165.960541 
L 119.264677 167.253773 
L 120.363972 168.547005 
L 121.446253 169.840238 
L 122.50151 171.13347 
L 123.523097 172.426703 
L 124.507536 173.719935 
L 125.453944 175.013167 
L 126.36329 176.3064 
L 127.237698 177.599632 
L 128.079995 178.892864 
L 128.893598 180.186097 
L 129.682707 181.479329 
L 130.452663 182.772561 
L 131.21022 184.065794 
L 131.963488 185.359026 
L 132.721366 186.652259 
L 133.492393 187.945491 
L 134.283146 189.238723 
L 135.096441 190.531956 
L 135.929707 191.825188 
L 136.773942 193.11842 
L 137.613556 194.411653 
L 138.42728 195.704885 
L 139.190089 196.998118 
L 139.875892 198.29135 
L 140.460589 199.584582 
L 140.924983 200.877815 
L 141.257084 202.171047 
L 141.453463 203.464279 
L 141.519466 204.757512 
L 141.468358 206.050744 
L 141.31963 207.343976 
L 141.096839 208.637209 
L 140.825402 209.930441 
L 140.530684 211.223674 
L 140.236628 212.516906 
L 139.964948 213.810138 
L 139.734775 215.103371 
L 139.562523 216.396603 
L 139.46168 217.689835 
L 139.442337 218.983068 
L 139.510351 220.2763 
L 139.666243 221.569533 
L 139.904095 222.862765 
L 140.21078 224.155997 
L 140.565901 225.44923 
L 140.942694 226.742462 
L 141.309975 228.035694 
L 141.634994 229.328927 
L 141.886844 230.622159 
L 142.039922 231.915391 
L 142.07689 233.208624 
L 141.99065 234.501856 
L 141.784969 235.795089 
L 141.473658 237.088321 
L 141.078398 238.381553 
L 140.625539 239.674786 
L 140.142344 240.968018 
L 139.653199 242.26125 
L 139.176316 243.554483 
L 138.721304 244.847715 
L 138.287911 246.140948 
L 137.866005 247.43418 
L 137.436732 248.727412 
L 136.974669 250.020645 
L 136.450665 251.313877 
L 135.835043 252.607109 
L 135.100819 253.900342 
L 134.226629 255.193574 
L 133.199084 256.486806 
L 132.014383 257.780039 
L 130.679031 259.073271 
L 129.209644 260.366504 
L 127.631861 261.659736 
L 125.978484 262.952968 
L 124.287035 264.246201 
L 122.596956 265.539433 
L 120.946737 266.832665 
L 119.371237 268.125898 
L 117.899458 269.41913 
L 116.552964 270.712363 
L 115.345067 272.005595 
L 114.280813 273.298827 
L 113.3577 274.59206 
L 112.567003 275.885292 
L 111.895479 277.178524 
L 111.327249 278.471757 
L 110.845607 279.764989 
L 110.434577 281.058221 
L 110.08007 282.351454 
L 109.770579 283.644686 
z
" clip-path="url(#p422a444b21)" style="fill: #1f77b4; fill-opacity: 0.3"/>
   </g>
   <g id="PolyCollection_2">
    <path d="M 196.068728 295.488 
L 190.451298 295.488 
L 189.802013 293.044364 
L 189.05384 290.600727 
L 188.205441 288.157091 
L 187.259298 285.713455 
L 186.222256 283.269818 
L 185.105767 280.826182 
L 183.925715 278.382545 
L 182.701772 275.938909 
L 181.456252 273.495273 
L 180.212542 271.051636 
L 178.993252 268.608 
L 177.818307 266.164364 
L 176.70326 263.720727 
L 175.658065 261.277091 
L 174.686558 258.833455 
L 173.786723 256.389818 
L 172.951726 253.946182 
L 172.17154 251.502545 
L 171.434879 249.058909 
L 170.731081 246.615273 
L 170.051612 244.171636 
L 169.390925 241.728 
L 168.746563 239.284364 
L 168.118537 236.840727 
L 167.508168 234.397091 
L 166.916701 231.953455 
L 166.344025 229.509818 
L 165.787808 227.066182 
L 165.243282 224.622545 
L 164.703764 222.178909 
L 164.161841 219.735273 
L 163.61103 217.291636 
L 163.047603 214.848 
L 162.47224 212.404364 
L 161.891166 209.960727 
L 161.316535 207.517091 
L 160.765919 205.073455 
L 160.2609 202.629818 
L 159.82493 200.186182 
L 159.480695 197.742545 
L 159.247343 195.298909 
L 159.137931 192.855273 
L 159.157441 190.411636 
L 159.301648 187.968 
L 159.55703 185.524364 
L 159.901767 183.080727 
L 160.307752 180.637091 
L 160.743396 178.193455 
L 161.176885 175.749818 
L 161.579469 173.306182 
L 161.928354 170.862545 
L 162.208788 168.418909 
L 162.415061 165.975273 
L 162.550307 163.531636 
L 162.625176 161.088 
L 162.655633 158.644364 
L 162.660272 156.200727 
L 162.657598 153.757091 
L 162.663695 151.313455 
L 162.690603 148.869818 
L 162.745561 146.426182 
L 162.831139 143.982545 
L 162.9461 141.538909 
L 163.086779 139.095273 
L 163.248707 136.651636 
L 163.428248 134.208 
L 163.624037 131.764364 
L 163.8381 129.320727 
L 164.076548 126.877091 
L 164.349799 124.433455 
L 164.672292 121.989818 
L 165.061657 119.546182 
L 165.537384 117.102545 
L 166.119037 114.658909 
L 166.824175 112.215273 
L 167.66618 109.771636 
L 168.652265 107.328 
L 169.781949 104.884364 
L 171.046249 102.440727 
L 172.427729 99.997091 
L 173.901468 97.553455 
L 175.436825 95.109818 
L 176.999776 92.666182 
L 178.555544 90.222545 
L 180.071172 87.778909 
L 181.517758 85.335273 
L 182.872131 82.891636 
L 184.117839 80.448 
L 185.245439 78.004364 
L 186.252146 75.560727 
L 187.140968 73.117091 
L 187.919493 70.673455 
L 188.598483 68.229818 
L 189.190456 65.786182 
L 189.708357 63.342545 
L 190.164455 60.898909 
L 190.569524 58.455273 
L 190.932337 56.011636 
L 191.259488 53.568 
L 195.260538 53.568 
L 195.260538 53.568 
L 195.587689 56.011636 
L 195.950502 58.455273 
L 196.355571 60.898909 
L 196.811669 63.342545 
L 197.329569 65.786182 
L 197.921542 68.229818 
L 198.600533 70.673455 
L 199.379057 73.117091 
L 200.267879 75.560727 
L 201.274587 78.004364 
L 202.402187 80.448 
L 203.647895 82.891636 
L 205.002268 85.335273 
L 206.448854 87.778909 
L 207.964482 90.222545 
L 209.52025 92.666182 
L 211.083201 95.109818 
L 212.618557 97.553455 
L 214.092297 99.997091 
L 215.473777 102.440727 
L 216.738077 104.884364 
L 217.867761 107.328 
L 218.853846 109.771636 
L 219.69585 112.215273 
L 220.400989 114.658909 
L 220.982642 117.102545 
L 221.458369 119.546182 
L 221.847734 121.989818 
L 222.170226 124.433455 
L 222.443478 126.877091 
L 222.681926 129.320727 
L 222.895988 131.764364 
L 223.091778 134.208 
L 223.271319 136.651636 
L 223.433247 139.095273 
L 223.573926 141.538909 
L 223.688887 143.982545 
L 223.774465 146.426182 
L 223.829423 148.869818 
L 223.856331 151.313455 
L 223.862428 153.757091 
L 223.859754 156.200727 
L 223.864393 158.644364 
L 223.89485 161.088 
L 223.969719 163.531636 
L 224.104965 165.975273 
L 224.311238 168.418909 
L 224.591672 170.862545 
L 224.940557 173.306182 
L 225.343141 175.749818 
L 225.77663 178.193455 
L 226.212274 180.637091 
L 226.618259 183.080727 
L 226.962996 185.524364 
L 227.218378 187.968 
L 227.362585 190.411636 
L 227.382095 192.855273 
L 227.272683 195.298909 
L 227.039331 197.742545 
L 226.695096 200.186182 
L 226.259125 202.629818 
L 225.754107 205.073455 
L 225.203491 207.517091 
L 224.62886 209.960727 
L 224.047786 212.404364 
L 223.472422 214.848 
L 222.908996 217.291636 
L 222.358185 219.735273 
L 221.816262 222.178909 
L 221.276744 224.622545 
L 220.732218 227.066182 
L 220.176 229.509818 
L 219.603324 231.953455 
L 219.011858 234.397091 
L 218.401489 236.840727 
L 217.773463 239.284364 
L 217.129101 241.728 
L 216.468414 244.171636 
L 215.788945 246.615273 
L 215.085147 249.058909 
L 214.348486 251.502545 
L 213.5683 253.946182 
L 212.733303 256.389818 
L 211.833468 258.833455 
L 210.861961 261.277091 
L 209.816766 263.720727 
L 208.701718 266.164364 
L 207.526774 268.608 
L 206.307484 271.051636 
L 205.063774 273.495273 
L 203.818254 275.938909 
L 202.594311 278.382545 
L 201.414259 280.826182 
L 200.297769 283.269818 
L 199.260728 285.713455 
L 198.314585 288.157091 
L 197.466186 290.600727 
L 196.718013 293.044364 
L 196.068728 295.488 
z
" clip-path="url(#p422a444b21)" style="fill: #1f77b4; fill-opacity: 0.3"/>
   </g>
   <g id="PolyCollection_3">
    <path d="M 283.303954 289.326918 
L 273.82648 289.326918 
L 272.842881 286.980988 
L 271.753343 284.635058 
L 270.570872 282.289128 
L 269.31369 279.943198 
L 268.004206 277.597267 
L 266.667411 275.251337 
L 265.328888 272.905407 
L 264.012691 270.559477 
L 262.739373 268.213547 
L 261.524473 265.867617 
L 260.37768 263.521687 
L 259.302781 261.175757 
L 258.298394 258.829827 
L 257.359311 256.483897 
L 256.478218 254.137967 
L 255.647479 251.792037 
L 254.860682 249.446107 
L 254.11372 247.100177 
L 253.405249 244.754246 
L 252.736524 242.408316 
L 252.110663 240.062386 
L 251.53155 237.716456 
L 251.002561 235.370526 
L 250.525358 233.024596 
L 250.098948 230.678666 
L 249.719158 228.332736 
L 249.378598 225.986806 
L 249.067128 223.640876 
L 248.772765 221.294946 
L 248.482916 218.949016 
L 248.185784 216.603086 
L 247.871775 214.257156 
L 247.534734 211.911226 
L 247.172862 209.565295 
L 246.789184 207.219365 
L 246.391515 204.873435 
L 245.991898 202.527505 
L 245.605575 200.181575 
L 245.249589 197.835645 
L 244.941174 195.489715 
L 244.696108 193.143785 
L 244.52721 190.797855 
L 244.443135 188.451925 
L 244.447594 186.105995 
L 244.539048 183.760065 
L 244.710879 181.414135 
L 244.951992 179.068205 
L 245.247748 176.722274 
L 245.581129 174.376344 
L 245.93403 172.030414 
L 246.288583 169.684484 
L 246.628436 167.338554 
L 246.939922 164.992624 
L 247.213054 162.646694 
L 247.442278 160.300764 
L 247.626906 157.954834 
L 247.771173 155.608904 
L 247.88385 153.262974 
L 247.977433 150.917044 
L 248.066933 148.571114 
L 248.168401 146.225184 
L 248.297355 143.879254 
L 248.46731 141.533323 
L 248.688612 139.187393 
L 248.967734 136.841463 
L 249.307105 134.495533 
L 249.705476 132.149603 
L 250.158705 129.803673 
L 250.660803 127.457743 
L 251.205045 125.111813 
L 251.784952 122.765883 
L 252.395032 120.419953 
L 253.031181 118.074023 
L 253.690798 115.728093 
L 254.372659 113.382163 
L 255.076662 111.036233 
L 255.803562 108.690302 
L 256.554756 106.344372 
L 257.332152 103.998442 
L 258.138097 101.652512 
L 258.975302 99.306582 
L 259.846691 96.960652 
L 260.755091 94.614722 
L 261.702763 92.268792 
L 262.690767 89.922862 
L 263.718267 87.576932 
L 264.781878 85.231002 
L 265.875195 82.885072 
L 266.988619 80.539142 
L 268.10957 78.193212 
L 269.223086 75.847282 
L 270.312766 73.501351 
L 271.36194 71.155421 
L 272.35491 68.809491 
L 273.278099 66.463561 
L 274.120973 64.117631 
L 274.876611 61.771701 
L 275.5419 59.425771 
L 276.117361 57.079841 
L 281.013073 57.079841 
L 281.013073 57.079841 
L 281.588534 59.425771 
L 282.253823 61.771701 
L 283.009461 64.117631 
L 283.852335 66.463561 
L 284.775524 68.809491 
L 285.768493 71.155421 
L 286.817667 73.501351 
L 287.907348 75.847282 
L 289.020864 78.193212 
L 290.141815 80.539142 
L 291.255239 82.885072 
L 292.348555 85.231002 
L 293.412167 87.576932 
L 294.439667 89.922862 
L 295.427671 92.268792 
L 296.375343 94.614722 
L 297.283743 96.960652 
L 298.155132 99.306582 
L 298.992337 101.652512 
L 299.798282 103.998442 
L 300.575677 106.344372 
L 301.326872 108.690302 
L 302.053772 111.036233 
L 302.757775 113.382163 
L 303.439635 115.728093 
L 304.099253 118.074023 
L 304.735402 120.419953 
L 305.345481 122.765883 
L 305.925389 125.111813 
L 306.46963 127.457743 
L 306.971728 129.803673 
L 307.424957 132.149603 
L 307.823329 134.495533 
L 308.1627 136.841463 
L 308.441822 139.187393 
L 308.663124 141.533323 
L 308.833079 143.879254 
L 308.962033 146.225184 
L 309.063501 148.571114 
L 309.153001 150.917044 
L 309.246584 153.262974 
L 309.359261 155.608904 
L 309.503527 157.954834 
L 309.688156 160.300764 
L 309.917379 162.646694 
L 310.190512 164.992624 
L 310.501998 167.338554 
L 310.841851 169.684484 
L 311.196404 172.030414 
L 311.549305 174.376344 
L 311.882686 176.722274 
L 312.178442 179.068205 
L 312.419555 181.414135 
L 312.591386 183.760065 
L 312.682839 186.105995 
L 312.687299 188.451925 
L 312.603224 190.797855 
L 312.434326 193.143785 
L 312.18926 195.489715 
L 311.880845 197.835645 
L 311.524859 200.181575 
L 311.138536 202.527505 
L 310.738919 204.873435 
L 310.34125 207.219365 
L 309.957572 209.565295 
L 309.5957 211.911226 
L 309.258659 214.257156 
L 308.944649 216.603086 
L 308.647517 218.949016 
L 308.357669 221.294946 
L 308.063306 223.640876 
L 307.751836 225.986806 
L 307.411276 228.332736 
L 307.031486 230.678666 
L 306.605076 233.024596 
L 306.127872 235.370526 
L 305.598884 237.716456 
L 305.019771 240.062386 
L 304.39391 242.408316 
L 303.725184 244.754246 
L 303.016714 247.100177 
L 302.269752 249.446107 
L 301.482955 251.792037 
L 300.652215 254.137967 
L 299.771123 256.483897 
L 298.832039 258.829827 
L 297.827653 261.175757 
L 296.752754 263.521687 
L 295.605961 265.867617 
L 294.391061 268.213547 
L 293.117743 270.559477 
L 291.801546 272.905407 
L 290.463023 275.251337 
L 289.126228 277.597267 
L 287.816744 279.943198 
L 286.559562 282.289128 
L 285.37709 284.635058 
L 284.287553 286.980988 
L 283.303954 289.326918 
z
" clip-path="url(#p422a444b21)" style="fill: #1f77b4; fill-opacity: 0.3"/>
   </g>
   <g id="PolyCollection_4">
    <path d="M 369.901998 287.766533 
L 357.838844 287.766533 
L 356.81037 285.413606 
L 355.708923 283.060679 
L 354.546753 280.707752 
L 353.337927 278.354825 
L 352.097686 276.001898 
L 350.84174 273.648971 
L 349.585545 271.296044 
L 348.343617 268.943117 
L 347.128904 266.59019 
L 345.952278 264.237263 
L 344.822171 261.884336 
L 343.744397 259.531409 
L 342.722152 257.178482 
L 341.756216 254.825554 
L 340.845291 252.472627 
L 339.98646 250.1197 
L 339.175689 247.766773 
L 338.408311 245.413846 
L 337.679472 243.060919 
L 336.984503 240.707992 
L 336.319242 238.355065 
L 335.680319 236.002138 
L 335.065454 233.649211 
L 334.473754 231.296284 
L 333.905999 228.943357 
L 333.36485 226.59043 
L 332.854875 224.237503 
L 332.38232 221.884576 
L 331.954533 219.531649 
L 331.579049 217.178722 
L 331.262406 214.825795 
L 331.008853 212.472868 
L 330.819171 210.119941 
L 330.689846 207.767014 
L 330.612812 205.414086 
L 330.575882 203.061159 
L 330.563886 200.708232 
L 330.560386 198.355305 
L 330.549728 196.002378 
L 330.519128 193.649451 
L 330.460447 191.296524 
L 330.371383 188.943597 
L 330.255881 186.59067 
L 330.123715 184.237743 
L 329.989309 181.884816 
L 329.870002 179.531889 
L 329.784 177.178962 
L 329.748339 174.826035 
L 329.777088 172.473108 
L 329.879994 170.120181 
L 330.061682 167.767254 
L 330.321398 165.414327 
L 330.653251 163.0614 
L 331.04683 160.708473 
L 331.488086 158.355545 
L 331.960366 156.002618 
L 332.445528 153.649691 
L 332.925091 151.296764 
L 333.381405 148.943837 
L 333.798816 146.59091 
L 334.164792 144.237983 
L 334.470955 141.885056 
L 334.713923 139.532129 
L 334.895868 137.179202 
L 335.024679 134.826275 
L 335.113674 132.473348 
L 335.180831 130.120421 
L 335.247589 127.767494 
L 335.337323 125.414567 
L 335.473632 123.06164 
L 335.678643 120.708713 
L 335.971483 118.355786 
L 336.367077 116.002859 
L 336.875376 113.649932 
L 337.501044 111.297005 
L 338.243584 108.944077 
L 339.097846 106.59115 
L 340.054776 104.238223 
L 341.102323 101.885296 
L 342.226351 99.532369 
L 343.411486 97.179442 
L 344.641818 94.826515 
L 345.901461 92.473588 
L 347.174945 90.120661 
L 348.44751 87.767734 
L 349.705325 85.414807 
L 350.935684 83.06188 
L 352.127196 80.708953 
L 353.269988 78.356026 
L 354.355892 76.003099 
L 355.378596 73.650172 
L 356.333727 71.297245 
L 357.218821 68.944318 
L 358.033191 66.591391 
L 358.77768 64.238464 
L 359.454337 61.885536 
L 360.066056 59.532609 
L 360.616232 57.179682 
L 361.108456 54.826755 
L 366.632386 54.826755 
L 366.632386 54.826755 
L 367.12461 57.179682 
L 367.674786 59.532609 
L 368.286505 61.885536 
L 368.963162 64.238464 
L 369.70765 66.591391 
L 370.522021 68.944318 
L 371.407115 71.297245 
L 372.362246 73.650172 
L 373.38495 76.003099 
L 374.470854 78.356026 
L 375.613645 80.708953 
L 376.805158 83.06188 
L 378.035517 85.414807 
L 379.293332 87.767734 
L 380.565897 90.120661 
L 381.839381 92.473588 
L 383.099023 94.826515 
L 384.329356 97.179442 
L 385.51449 99.532369 
L 386.638519 101.885296 
L 387.686066 104.238223 
L 388.642996 106.59115 
L 389.497257 108.944077 
L 390.239798 111.297005 
L 390.865465 113.649932 
L 391.373765 116.002859 
L 391.769359 118.355786 
L 392.062199 120.708713 
L 392.26721 123.06164 
L 392.403519 125.414567 
L 392.493252 127.767494 
L 392.560011 130.120421 
L 392.627168 132.473348 
L 392.716163 134.826275 
L 392.844974 137.179202 
L 393.026919 139.532129 
L 393.269887 141.885056 
L 393.57605 144.237983 
L 393.942026 146.59091 
L 394.359437 148.943837 
L 394.815751 151.296764 
L 395.295314 153.649691 
L 395.780476 156.002618 
L 396.252756 158.355545 
L 396.694012 160.708473 
L 397.087591 163.0614 
L 397.419444 165.414327 
L 397.67916 167.767254 
L 397.860848 170.120181 
L 397.963754 172.473108 
L 397.992503 174.826035 
L 397.956842 177.178962 
L 397.87084 179.531889 
L 397.751532 181.884816 
L 397.617127 184.237743 
L 397.484961 186.59067 
L 397.369459 188.943597 
L 397.280395 191.296524 
L 397.221714 193.649451 
L 397.191114 196.002378 
L 397.180456 198.355305 
L 397.176955 200.708232 
L 397.16496 203.061159 
L 397.12803 205.414086 
L 397.050996 207.767014 
L 396.921671 210.119941 
L 396.731989 212.472868 
L 396.478436 214.825795 
L 396.161793 217.178722 
L 395.786309 219.531649 
L 395.358522 221.884576 
L 394.885967 224.237503 
L 394.375992 226.59043 
L 393.834842 228.943357 
L 393.267088 231.296284 
L 392.675388 233.649211 
L 392.060523 236.002138 
L 391.4216 238.355065 
L 390.756339 240.707992 
L 390.06137 243.060919 
L 389.332531 245.413846 
L 388.565153 247.766773 
L 387.754382 250.1197 
L 386.895551 252.472627 
L 385.984626 254.825554 
L 385.018689 257.178482 
L 383.996445 259.531409 
L 382.918671 261.884336 
L 381.788564 264.237263 
L 380.611938 266.59019 
L 379.397224 268.943117 
L 378.155296 271.296044 
L 376.899102 273.648971 
L 375.643155 276.001898 
L 374.402915 278.354825 
L 373.194089 280.707752 
L 372.031919 283.060679 
L 370.930472 285.413606 
L 369.901998 287.766533 
z
" clip-path="url(#p422a444b21)" style="fill: #1f77b4; fill-opacity: 0.3"/>
   </g>
   <g id="PolyCollection_5">
    <path d="M 366.987207 290.612943 
L 361.743175 290.612943 
L 361.175724 288.337048 
L 360.532711 286.061153 
L 359.814107 283.785259 
L 359.021209 281.509364 
L 358.156214 279.23347 
L 357.221707 276.957575 
L 356.220132 274.68168 
L 355.153387 272.405786 
L 354.02265 270.129891 
L 352.828501 267.853996 
L 351.57136 265.578102 
L 350.252186 263.302207 
L 348.873346 261.026313 
L 347.439502 258.750418 
L 345.958378 256.474523 
L 344.441288 254.198629 
L 342.903341 251.922734 
L 341.363268 249.646839 
L 339.842894 247.370945 
L 338.36626 245.09505 
L 336.958479 242.819156 
L 335.644373 240.543261 
L 334.446982 238.267366 
L 333.386062 235.991472 
L 332.476661 233.715577 
L 331.727945 231.439682 
L 331.14238 229.163788 
L 330.715394 226.887893 
L 330.435594 224.611999 
L 330.285556 222.336104 
L 330.24311 220.060209 
L 330.283006 217.784315 
L 330.378799 215.50842 
L 330.504726 213.232525 
L 330.637416 210.956631 
L 330.757274 208.680736 
L 330.849442 206.404842 
L 330.904298 204.128947 
L 330.91753 201.853052 
L 330.889824 199.577158 
L 330.826249 197.301263 
L 330.735445 195.025368 
L 330.628657 192.749474 
L 330.518717 190.473579 
L 330.41901 188.197685 
L 330.342495 185.92179 
L 330.300822 183.645895 
L 330.303612 181.370001 
L 330.357941 179.094106 
L 330.468052 176.818211 
L 330.635313 174.542317 
L 330.858388 172.266422 
L 331.133556 169.990528 
L 331.455116 167.714633 
L 331.815781 165.438738 
L 332.207022 163.162844 
L 332.619311 160.886949 
L 333.042297 158.611054 
L 333.464963 156.33516 
L 333.87585 154.059265 
L 334.263411 151.78337 
L 334.616583 149.507476 
L 334.925561 147.231581 
L 335.182752 144.955687 
L 335.383796 142.679792 
L 335.528537 140.403897 
L 335.621767 138.128003 
L 335.673613 135.852108 
L 335.699473 133.576213 
L 335.719433 131.300319 
L 335.757219 129.024424 
L 335.838749 126.74853 
L 335.990438 124.472635 
L 336.237414 122.19674 
L 336.601801 119.920846 
L 337.101234 117.644951 
L 337.747688 115.369056 
L 338.546718 113.093162 
L 339.497126 110.817267 
L 340.591071 108.541373 
L 341.814567 106.265478 
L 343.148345 103.989583 
L 344.568986 101.713689 
L 346.050234 99.437794 
L 347.564407 97.161899 
L 349.083791 94.886005 
L 350.58194 92.61011 
L 352.034793 90.334216 
L 353.421577 88.058321 
L 354.725449 85.782426 
L 355.93388 83.506532 
L 357.038776 81.230637 
L 358.036348 78.954742 
L 358.926758 76.678848 
L 359.713568 74.402953 
L 360.403035 72.127059 
L 361.003305 69.851164 
L 361.523585 67.575269 
L 361.973369 65.299375 
L 366.757013 65.299375 
L 366.757013 65.299375 
L 367.206797 67.575269 
L 367.727078 69.851164 
L 368.327347 72.127059 
L 369.016814 74.402953 
L 369.803624 76.678848 
L 370.694035 78.954742 
L 371.691606 81.230637 
L 372.796502 83.506532 
L 374.004934 85.782426 
L 375.308805 88.058321 
L 376.695589 90.334216 
L 378.148442 92.61011 
L 379.646591 94.886005 
L 381.165976 97.161899 
L 382.680148 99.437794 
L 384.161396 101.713689 
L 385.582037 103.989583 
L 386.915816 106.265478 
L 388.139312 108.541373 
L 389.233256 110.817267 
L 390.183665 113.093162 
L 390.982694 115.369056 
L 391.629148 117.644951 
L 392.128581 119.920846 
L 392.492969 122.19674 
L 392.739944 124.472635 
L 392.891633 126.74853 
L 392.973163 129.024424 
L 393.010949 131.300319 
L 393.03091 133.576213 
L 393.056769 135.852108 
L 393.108616 138.128003 
L 393.201845 140.403897 
L 393.346586 142.679792 
L 393.547631 144.955687 
L 393.804821 147.231581 
L 394.113799 149.507476 
L 394.466971 151.78337 
L 394.854532 154.059265 
L 395.265419 156.33516 
L 395.688086 158.611054 
L 396.111071 160.886949 
L 396.52336 163.162844 
L 396.914601 165.438738 
L 397.275267 167.714633 
L 397.596826 169.990528 
L 397.871994 172.266422 
L 398.095069 174.542317 
L 398.26233 176.818211 
L 398.372441 179.094106 
L 398.42677 181.370001 
L 398.429561 183.645895 
L 398.387888 185.92179 
L 398.311372 188.197685 
L 398.211666 190.473579 
L 398.101725 192.749474 
L 397.994937 195.025368 
L 397.904133 197.301263 
L 397.840559 199.577158 
L 397.812852 201.853052 
L 397.826084 204.128947 
L 397.880941 206.404842 
L 397.973108 208.680736 
L 398.092966 210.956631 
L 398.225656 213.232525 
L 398.351583 215.50842 
L 398.447376 217.784315 
L 398.487273 220.060209 
L 398.444826 222.336104 
L 398.294788 224.611999 
L 398.014989 226.887893 
L 397.588002 229.163788 
L 397.002437 231.439682 
L 396.253722 233.715577 
L 395.344321 235.991472 
L 394.2834 238.267366 
L 393.08601 240.543261 
L 391.771903 242.819156 
L 390.364122 245.09505 
L 388.887488 247.370945 
L 387.367114 249.646839 
L 385.827042 251.922734 
L 384.289094 254.198629 
L 382.772005 256.474523 
L 381.29088 258.750418 
L 379.857036 261.026313 
L 378.478197 263.302207 
L 377.159023 265.578102 
L 375.901881 267.853996 
L 374.707732 270.129891 
L 373.576995 272.405786 
L 372.51025 274.68168 
L 371.508675 276.957575 
L 370.574168 279.23347 
L 369.709174 281.509364 
L 368.916275 283.785259 
L 368.197672 286.061153 
L 367.554658 288.337048 
L 366.987207 290.612943 
z
" clip-path="url(#p422a444b21)" style="fill: #1f77b4; fill-opacity: 0.3"/>
   </g>
   <g id="matplotlib.axis_1">
    <g id="xtick_1">
     <g id="line2d_1">
      <path d="M 65.302207 307.584 
L 65.302207 41.472 
" clip-path="url(#p422a444b21)" style="fill: none; stroke-dasharray: 2.96,1.28; stroke-dashoffset: 0; stroke: #b0b0b0; stroke-width: 0.8"/>
     </g>
     <g id="line2d_2">
      <defs>
       <path id="m09efc859b4" d="M 0 0 
L 0 3.5 
" style="stroke: #000000; stroke-width: 0.8"/>
      </defs>
      <g>
       <use xlink:href="#m09efc859b4" x="65.302207" y="307.584" style="stroke: #000000; stroke-width: 0.8"/>
      </g>
     </g>
     <g id="text_1">
      <!-- 2500 -->
      <g transform="translate(52.577207 322.182437)scale(0.1 -0.1)">
       <defs>
        <path id="DejaVuSans-32" d="M 1228 531 
L 3431 531 
L 3431 0 
L 469 0 
L 469 531 
Q 828 903 1448 1529 
Q 2069 2156 2228 2338 
Q 2531 2678 2651 2914 
Q 2772 3150 2772 3378 
Q 2772 3750 2511 3984 
Q 2250 4219 1831 4219 
Q 1534 4219 1204 4116 
Q 875 4013 500 3803 
L 500 4441 
Q 881 4594 1212 4672 
Q 1544 4750 1819 4750 
Q 2544 4750 2975 4387 
Q 3406 4025 3406 3419 
Q 3406 3131 3298 2873 
Q 3191 2616 2906 2266 
Q 2828 2175 2409 1742 
Q 1991 1309 1228 531 
z
" transform="scale(0.015625)"/>
        <path id="DejaVuSans-35" d="M 691 4666 
L 3169 4666 
L 3169 4134 
L 1269 4134 
L 1269 2991 
Q 1406 3038 1543 3061 
Q 1681 3084 1819 3084 
Q 2600 3084 3056 2656 
Q 3513 2228 3513 1497 
Q 3513 744 3044 326 
Q 2575 -91 1722 -91 
Q 1428 -91 1123 -41 
Q 819 9 494 109 
L 494 744 
Q 775 591 1075 516 
Q 1375 441 1709 441 
Q 2250 441 2565 725 
Q 2881 1009 2881 1497 
Q 2881 1984 2565 2268 
Q 2250 2553 1709 2553 
Q 1456 2553 1204 2497 
Q 953 2441 691 2322 
L 691 4666 
z
" transform="scale(0.015625)"/>
        <path id="DejaVuSans-30" d="M 2034 4250 
Q 1547 4250 1301 3770 
Q 1056 3291 1056 2328 
Q 1056 1369 1301 889 
Q 1547 409 2034 409 
Q 2525 409 2770 889 
Q 3016 1369 3016 2328 
Q 3016 3291 2770 3770 
Q 2525 4250 2034 4250 
z
M 2034 4750 
Q 2819 4750 3233 4129 
Q 3647 3509 3647 2328 
Q 3647 1150 3233 529 
Q 2819 -91 2034 -91 
Q 1250 -91 836 529 
Q 422 1150 422 2328 
Q 422 3509 836 4129 
Q 1250 4750 2034 4750 
z
" transform="scale(0.015625)"/>
       </defs>
       <use xlink:href="#DejaVuSans-32"/>
       <use xlink:href="#DejaVuSans-35" x="63.623047"/>
       <use xlink:href="#DejaVuSans-30" x="127.246094"/>
       <use xlink:href="#DejaVuSans-30" x="190.869141"/>
      </g>
     </g>
    </g>
    <g id="xtick_2">
     <g id="line2d_3">
      <path d="M 107.954809 307.584 
L 107.954809 41.472 
" clip-path="url(#p422a444b21)" style="fill: none; stroke-dasharray: 2.96,1.28; stroke-dashoffset: 0; stroke: #b0b0b0; stroke-width: 0.8"/>
     </g>
     <g id="line2d_4">
      <g>
       <use xlink:href="#m09efc859b4" x="107.954809" y="307.584" style="stroke: #000000; stroke-width: 0.8"/>
      </g>
     </g>
     <g id="text_2">
      <!-- 5000 -->
      <g transform="translate(95.229809 322.182437)scale(0.1 -0.1)">
       <use xlink:href="#DejaVuSans-35"/>
       <use xlink:href="#DejaVuSans-30" x="63.623047"/>
       <use xlink:href="#DejaVuSans-30" x="127.246094"/>
       <use xlink:href="#DejaVuSans-30" x="190.869141"/>
      </g>
     </g>
    </g>
    <g id="xtick_3">
     <g id="line2d_5">
      <path d="M 150.607411 307.584 
L 150.607411 41.472 
" clip-path="url(#p422a444b21)" style="fill: none; stroke-dasharray: 2.96,1.28; stroke-dashoffset: 0; stroke: #b0b0b0; stroke-width: 0.8"/>
     </g>
     <g id="line2d_6">
      <g>
       <use xlink:href="#m09efc859b4" x="150.607411" y="307.584" style="stroke: #000000; stroke-width: 0.8"/>
      </g>
     </g>
     <g id="text_3">
      <!-- 7500 -->
      <g transform="translate(137.882411 322.182437)scale(0.1 -0.1)">
       <defs>
        <path id="DejaVuSans-37" d="M 525 4666 
L 3525 4666 
L 3525 4397 
L 1831 0 
L 1172 0 
L 2766 4134 
L 525 4134 
L 525 4666 
z
" transform="scale(0.015625)"/>
       </defs>
       <use xlink:href="#DejaVuSans-37"/>
       <use xlink:href="#DejaVuSans-35" x="63.623047"/>
       <use xlink:href="#DejaVuSans-30" x="127.246094"/>
       <use xlink:href="#DejaVuSans-30" x="190.869141"/>
      </g>
     </g>
    </g>
    <g id="xtick_4">
     <g id="line2d_7">
      <path d="M 193.260013 307.584 
L 193.260013 41.472 
" clip-path="url(#p422a444b21)" style="fill: none; stroke-dasharray: 2.96,1.28; stroke-dashoffset: 0; stroke: #b0b0b0; stroke-width: 0.8"/>
     </g>
     <g id="line2d_8">
      <g>
       <use xlink:href="#m09efc859b4" x="193.260013" y="307.584" style="stroke: #000000; stroke-width: 0.8"/>
      </g>
     </g>
     <g id="text_4">
      <!-- 10000 -->
      <g transform="translate(177.353763 322.182437)scale(0.1 -0.1)">
       <defs>
        <path id="DejaVuSans-31" d="M 794 531 
L 1825 531 
L 1825 4091 
L 703 3866 
L 703 4441 
L 1819 4666 
L 2450 4666 
L 2450 531 
L 3481 531 
L 3481 0 
L 794 0 
L 794 531 
z
" transform="scale(0.015625)"/>
       </defs>
       <use xlink:href="#DejaVuSans-31"/>
       <use xlink:href="#DejaVuSans-30" x="63.623047"/>
       <use xlink:href="#DejaVuSans-30" x="127.246094"/>
       <use xlink:href="#DejaVuSans-30" x="190.869141"/>
       <use xlink:href="#DejaVuSans-30" x="254.492188"/>
      </g>
     </g>
    </g>
    <g id="xtick_5">
     <g id="line2d_9">
      <path d="M 235.912615 307.584 
L 235.912615 41.472 
" clip-path="url(#p422a444b21)" style="fill: none; stroke-dasharray: 2.96,1.28; stroke-dashoffset: 0; stroke: #b0b0b0; stroke-width: 0.8"/>
     </g>
     <g id="line2d_10">
      <g>
       <use xlink:href="#m09efc859b4" x="235.912615" y="307.584" style="stroke: #000000; stroke-width: 0.8"/>
      </g>
     </g>
     <g id="text_5">
      <!-- 12500 -->
      <g transform="translate(220.006365 322.182437)scale(0.1 -0.1)">
       <use xlink:href="#DejaVuSans-31"/>
       <use xlink:href="#DejaVuSans-32" x="63.623047"/>
       <use xlink:href="#DejaVuSans-35" x="127.246094"/>
       <use xlink:href="#DejaVuSans-30" x="190.869141"/>
       <use xlink:href="#DejaVuSans-30" x="254.492188"/>
      </g>
     </g>
    </g>
    <g id="xtick_6">
     <g id="line2d_11">
      <path d="M 278.565217 307.584 
L 278.565217 41.472 
" clip-path="url(#p422a444b21)" style="fill: none; stroke-dasharray: 2.96,1.28; stroke-dashoffset: 0; stroke: #b0b0b0; stroke-width: 0.8"/>
     </g>
     <g id="line2d_12">
      <g>
       <use xlink:href="#m09efc859b4" x="278.565217" y="307.584" style="stroke: #000000; stroke-width: 0.8"/>
      </g>
     </g>
     <g id="text_6">
      <!-- 15000 -->
      <g transform="translate(262.658967 322.182437)scale(0.1 -0.1)">
       <use xlink:href="#DejaVuSans-31"/>
       <use xlink:href="#DejaVuSans-35" x="63.623047"/>
       <use xlink:href="#DejaVuSans-30" x="127.246094"/>
       <use xlink:href="#DejaVuSans-30" x="190.869141"/>
       <use xlink:href="#DejaVuSans-30" x="254.492188"/>
      </g>
     </g>
    </g>
    <g id="xtick_7">
     <g id="line2d_13">
      <path d="M 321.217819 307.584 
L 321.217819 41.472 
" clip-path="url(#p422a444b21)" style="fill: none; stroke-dasharray: 2.96,1.28; stroke-dashoffset: 0; stroke: #b0b0b0; stroke-width: 0.8"/>
     </g>
     <g id="line2d_14">
      <g>
       <use xlink:href="#m09efc859b4" x="321.217819" y="307.584" style="stroke: #000000; stroke-width: 0.8"/>
      </g>
     </g>
     <g id="text_7">
      <!-- 17500 -->
      <g transform="translate(305.311569 322.182437)scale(0.1 -0.1)">
       <use xlink:href="#DejaVuSans-31"/>
       <use xlink:href="#DejaVuSans-37" x="63.623047"/>
       <use xlink:href="#DejaVuSans-35" x="127.246094"/>
       <use xlink:href="#DejaVuSans-30" x="190.869141"/>
       <use xlink:href="#DejaVuSans-30" x="254.492188"/>
      </g>
     </g>
    </g>
    <g id="xtick_8">
     <g id="line2d_15">
      <path d="M 363.870421 307.584 
L 363.870421 41.472 
" clip-path="url(#p422a444b21)" style="fill: none; stroke-dasharray: 2.96,1.28; stroke-dashoffset: 0; stroke: #b0b0b0; stroke-width: 0.8"/>
     </g>
     <g id="line2d_16">
      <g>
       <use xlink:href="#m09efc859b4" x="363.870421" y="307.584" style="stroke: #000000; stroke-width: 0.8"/>
      </g>
     </g>
     <g id="text_8">
      <!-- 20000 -->
      <g transform="translate(347.964171 322.182437)scale(0.1 -0.1)">
       <use xlink:href="#DejaVuSans-32"/>
       <use xlink:href="#DejaVuSans-30" x="63.623047"/>
       <use xlink:href="#DejaVuSans-30" x="127.246094"/>
       <use xlink:href="#DejaVuSans-30" x="190.869141"/>
       <use xlink:href="#DejaVuSans-30" x="254.492188"/>
      </g>
     </g>
    </g>
    <g id="xtick_9">
     <g id="line2d_17">
      <path d="M 406.523023 307.584 
L 406.523023 41.472 
" clip-path="url(#p422a444b21)" style="fill: none; stroke-dasharray: 2.96,1.28; stroke-dashoffset: 0; stroke: #b0b0b0; stroke-width: 0.8"/>
     </g>
     <g id="line2d_18">
      <g>
       <use xlink:href="#m09efc859b4" x="406.523023" y="307.584" style="stroke: #000000; stroke-width: 0.8"/>
      </g>
     </g>
     <g id="text_9">
      <!-- 22500 -->
      <g transform="translate(390.616773 322.182437)scale(0.1 -0.1)">
       <use xlink:href="#DejaVuSans-32"/>
       <use xlink:href="#DejaVuSans-32" x="63.623047"/>
       <use xlink:href="#DejaVuSans-35" x="127.246094"/>
       <use xlink:href="#DejaVuSans-30" x="190.869141"/>
       <use xlink:href="#DejaVuSans-30" x="254.492188"/>
      </g>
     </g>
    </g>
    <g id="text_10">
     <!-- Learned Episodes -->
     <g transform="translate(192.102187 335.860562)scale(0.1 -0.1)">
      <defs>
       <path id="DejaVuSans-4c" d="M 628 4666 
L 1259 4666 
L 1259 531 
L 3531 531 
L 3531 0 
L 628 0 
L 628 4666 
z
" transform="scale(0.015625)"/>
       <path id="DejaVuSans-65" d="M 3597 1894 
L 3597 1613 
L 953 1613 
Q 991 1019 1311 708 
Q 1631 397 2203 397 
Q 2534 397 2845 478 
Q 3156 559 3463 722 
L 3463 178 
Q 3153 47 2828 -22 
Q 2503 -91 2169 -91 
Q 1331 -91 842 396 
Q 353 884 353 1716 
Q 353 2575 817 3079 
Q 1281 3584 2069 3584 
Q 2775 3584 3186 3129 
Q 3597 2675 3597 1894 
z
M 3022 2063 
Q 3016 2534 2758 2815 
Q 2500 3097 2075 3097 
Q 1594 3097 1305 2825 
Q 1016 2553 972 2059 
L 3022 2063 
z
" transform="scale(0.015625)"/>
       <path id="DejaVuSans-61" d="M 2194 1759 
Q 1497 1759 1228 1600 
Q 959 1441 959 1056 
Q 959 750 1161 570 
Q 1363 391 1709 391 
Q 2188 391 2477 730 
Q 2766 1069 2766 1631 
L 2766 1759 
L 2194 1759 
z
M 3341 1997 
L 3341 0 
L 2766 0 
L 2766 531 
Q 2569 213 2275 61 
Q 1981 -91 1556 -91 
Q 1019 -91 701 211 
Q 384 513 384 1019 
Q 384 1609 779 1909 
Q 1175 2209 1959 2209 
L 2766 2209 
L 2766 2266 
Q 2766 2663 2505 2880 
Q 2244 3097 1772 3097 
Q 1472 3097 1187 3025 
Q 903 2953 641 2809 
L 641 3341 
Q 956 3463 1253 3523 
Q 1550 3584 1831 3584 
Q 2591 3584 2966 3190 
Q 3341 2797 3341 1997 
z
" transform="scale(0.015625)"/>
       <path id="DejaVuSans-72" d="M 2631 2963 
Q 2534 3019 2420 3045 
Q 2306 3072 2169 3072 
Q 1681 3072 1420 2755 
Q 1159 2438 1159 1844 
L 1159 0 
L 581 0 
L 581 3500 
L 1159 3500 
L 1159 2956 
Q 1341 3275 1631 3429 
Q 1922 3584 2338 3584 
Q 2397 3584 2469 3576 
Q 2541 3569 2628 3553 
L 2631 2963 
z
" transform="scale(0.015625)"/>
       <path id="DejaVuSans-6e" d="M 3513 2113 
L 3513 0 
L 2938 0 
L 2938 2094 
Q 2938 2591 2744 2837 
Q 2550 3084 2163 3084 
Q 1697 3084 1428 2787 
Q 1159 2491 1159 1978 
L 1159 0 
L 581 0 
L 581 3500 
L 1159 3500 
L 1159 2956 
Q 1366 3272 1645 3428 
Q 1925 3584 2291 3584 
Q 2894 3584 3203 3211 
Q 3513 2838 3513 2113 
z
" transform="scale(0.015625)"/>
       <path id="DejaVuSans-64" d="M 2906 2969 
L 2906 4863 
L 3481 4863 
L 3481 0 
L 2906 0 
L 2906 525 
Q 2725 213 2448 61 
Q 2172 -91 1784 -91 
Q 1150 -91 751 415 
Q 353 922 353 1747 
Q 353 2572 751 3078 
Q 1150 3584 1784 3584 
Q 2172 3584 2448 3432 
Q 2725 3281 2906 2969 
z
M 947 1747 
Q 947 1113 1208 752 
Q 1469 391 1925 391 
Q 2381 391 2643 752 
Q 2906 1113 2906 1747 
Q 2906 2381 2643 2742 
Q 2381 3103 1925 3103 
Q 1469 3103 1208 2742 
Q 947 2381 947 1747 
z
" transform="scale(0.015625)"/>
       <path id="DejaVuSans-20" transform="scale(0.015625)"/>
       <path id="DejaVuSans-45" d="M 628 4666 
L 3578 4666 
L 3578 4134 
L 1259 4134 
L 1259 2753 
L 3481 2753 
L 3481 2222 
L 1259 2222 
L 1259 531 
L 3634 531 
L 3634 0 
L 628 0 
L 628 4666 
z
" transform="scale(0.015625)"/>
       <path id="DejaVuSans-70" d="M 1159 525 
L 1159 -1331 
L 581 -1331 
L 581 3500 
L 1159 3500 
L 1159 2969 
Q 1341 3281 1617 3432 
Q 1894 3584 2278 3584 
Q 2916 3584 3314 3078 
Q 3713 2572 3713 1747 
Q 3713 922 3314 415 
Q 2916 -91 2278 -91 
Q 1894 -91 1617 61 
Q 1341 213 1159 525 
z
M 3116 1747 
Q 3116 2381 2855 2742 
Q 2594 3103 2138 3103 
Q 1681 3103 1420 2742 
Q 1159 2381 1159 1747 
Q 1159 1113 1420 752 
Q 1681 391 2138 391 
Q 2594 391 2855 752 
Q 3116 1113 3116 1747 
z
" transform="scale(0.015625)"/>
       <path id="DejaVuSans-69" d="M 603 3500 
L 1178 3500 
L 1178 0 
L 603 0 
L 603 3500 
z
M 603 4863 
L 1178 4863 
L 1178 4134 
L 603 4134 
L 603 4863 
z
" transform="scale(0.015625)"/>
       <path id="DejaVuSans-73" d="M 2834 3397 
L 2834 2853 
Q 2591 2978 2328 3040 
Q 2066 3103 1784 3103 
Q 1356 3103 1142 2972 
Q 928 2841 928 2578 
Q 928 2378 1081 2264 
Q 1234 2150 1697 2047 
L 1894 2003 
Q 2506 1872 2764 1633 
Q 3022 1394 3022 966 
Q 3022 478 2636 193 
Q 2250 -91 1575 -91 
Q 1294 -91 989 -36 
Q 684 19 347 128 
L 347 722 
Q 666 556 975 473 
Q 1284 391 1588 391 
Q 1994 391 2212 530 
Q 2431 669 2431 922 
Q 2431 1156 2273 1281 
Q 2116 1406 1581 1522 
L 1381 1569 
Q 847 1681 609 1914 
Q 372 2147 372 2553 
Q 372 3047 722 3315 
Q 1072 3584 1716 3584 
Q 2034 3584 2315 3537 
Q 2597 3491 2834 3397 
z
" transform="scale(0.015625)"/>
       <path id="DejaVuSans-6f" d="M 1959 3097 
Q 1497 3097 1228 2736 
Q 959 2375 959 1747 
Q 959 1119 1226 758 
Q 1494 397 1959 397 
Q 2419 397 2687 759 
Q 2956 1122 2956 1747 
Q 2956 2369 2687 2733 
Q 2419 3097 1959 3097 
z
M 1959 3584 
Q 2709 3584 3137 3096 
Q 3566 2609 3566 1747 
Q 3566 888 3137 398 
Q 2709 -91 1959 -91 
Q 1206 -91 779 398 
Q 353 888 353 1747 
Q 353 2609 779 3096 
Q 1206 3584 1959 3584 
z
" transform="scale(0.015625)"/>
      </defs>
      <use xlink:href="#DejaVuSans-4c"/>
      <use xlink:href="#DejaVuSans-65" x="53.962891"/>
      <use xlink:href="#DejaVuSans-61" x="115.486328"/>
      <use xlink:href="#DejaVuSans-72" x="176.765625"/>
      <use xlink:href="#DejaVuSans-6e" x="216.128906"/>
      <use xlink:href="#DejaVuSans-65" x="279.507812"/>
      <use xlink:href="#DejaVuSans-64" x="341.03125"/>
      <use xlink:href="#DejaVuSans-20" x="404.507812"/>
      <use xlink:href="#DejaVuSans-45" x="436.294922"/>
      <use xlink:href="#DejaVuSans-70" x="499.478516"/>
      <use xlink:href="#DejaVuSans-69" x="562.955078"/>
      <use xlink:href="#DejaVuSans-73" x="590.738281"/>
      <use xlink:href="#DejaVuSans-6f" x="642.837891"/>
      <use xlink:href="#DejaVuSans-64" x="704.019531"/>
      <use xlink:href="#DejaVuSans-65" x="767.496094"/>
      <use xlink:href="#DejaVuSans-73" x="829.019531"/>
     </g>
    </g>
   </g>
   <g id="matplotlib.axis_2">
    <g id="ytick_1">
     <g id="line2d_19">
      <path d="M 57.6 273.483335 
L 414.72 273.483335 
" clip-path="url(#p422a444b21)" style="fill: none; stroke-dasharray: 2.96,1.28; stroke-dashoffset: 0; stroke: #b0b0b0; stroke-width: 0.8"/>
     </g>
     <g id="line2d_20">
      <defs>
       <path id="m766004231d" d="M 0 0 
L -3.5 0 
" style="stroke: #000000; stroke-width: 0.8"/>
      </defs>
      <g>
       <use xlink:href="#m766004231d" x="57.6" y="273.483335" style="stroke: #000000; stroke-width: 0.8"/>
      </g>
     </g>
     <g id="text_11">
      <!-- 2.0 -->
      <g transform="translate(34.696875 277.282554)scale(0.1 -0.1)">
       <defs>
        <path id="DejaVuSans-2e" d="M 684 794 
L 1344 794 
L 1344 0 
L 684 0 
L 684 794 
z
" transform="scale(0.015625)"/>
       </defs>
       <use xlink:href="#DejaVuSans-32"/>
       <use xlink:href="#DejaVuSans-2e" x="63.623047"/>
       <use xlink:href="#DejaVuSans-30" x="95.410156"/>
      </g>
     </g>
    </g>
    <g id="ytick_2">
     <g id="line2d_21">
      <path d="M 57.6 222.538601 
L 414.72 222.538601 
" clip-path="url(#p422a444b21)" style="fill: none; stroke-dasharray: 2.96,1.28; stroke-dashoffset: 0; stroke: #b0b0b0; stroke-width: 0.8"/>
     </g>
     <g id="line2d_22">
      <g>
       <use xlink:href="#m766004231d" x="57.6" y="222.538601" style="stroke: #000000; stroke-width: 0.8"/>
      </g>
     </g>
     <g id="text_12">
      <!-- 2.5 -->
      <g transform="translate(34.696875 226.337819)scale(0.1 -0.1)">
       <use xlink:href="#DejaVuSans-32"/>
       <use xlink:href="#DejaVuSans-2e" x="63.623047"/>
       <use xlink:href="#DejaVuSans-35" x="95.410156"/>
      </g>
     </g>
    </g>
    <g id="ytick_3">
     <g id="line2d_23">
      <path d="M 57.6 171.593866 
L 414.72 171.593866 
" clip-path="url(#p422a444b21)" style="fill: none; stroke-dasharray: 2.96,1.28; stroke-dashoffset: 0; stroke: #b0b0b0; stroke-width: 0.8"/>
     </g>
     <g id="line2d_24">
      <g>
       <use xlink:href="#m766004231d" x="57.6" y="171.593866" style="stroke: #000000; stroke-width: 0.8"/>
      </g>
     </g>
     <g id="text_13">
      <!-- 3.0 -->
      <g transform="translate(34.696875 175.393085)scale(0.1 -0.1)">
       <defs>
        <path id="DejaVuSans-33" d="M 2597 2516 
Q 3050 2419 3304 2112 
Q 3559 1806 3559 1356 
Q 3559 666 3084 287 
Q 2609 -91 1734 -91 
Q 1441 -91 1130 -33 
Q 819 25 488 141 
L 488 750 
Q 750 597 1062 519 
Q 1375 441 1716 441 
Q 2309 441 2620 675 
Q 2931 909 2931 1356 
Q 2931 1769 2642 2001 
Q 2353 2234 1838 2234 
L 1294 2234 
L 1294 2753 
L 1863 2753 
Q 2328 2753 2575 2939 
Q 2822 3125 2822 3475 
Q 2822 3834 2567 4026 
Q 2313 4219 1838 4219 
Q 1578 4219 1281 4162 
Q 984 4106 628 3988 
L 628 4550 
Q 988 4650 1302 4700 
Q 1616 4750 1894 4750 
Q 2613 4750 3031 4423 
Q 3450 4097 3450 3541 
Q 3450 3153 3228 2886 
Q 3006 2619 2597 2516 
z
" transform="scale(0.015625)"/>
       </defs>
       <use xlink:href="#DejaVuSans-33"/>
       <use xlink:href="#DejaVuSans-2e" x="63.623047"/>
       <use xlink:href="#DejaVuSans-30" x="95.410156"/>
      </g>
     </g>
    </g>
    <g id="ytick_4">
     <g id="line2d_25">
      <path d="M 57.6 120.649131 
L 414.72 120.649131 
" clip-path="url(#p422a444b21)" style="fill: none; stroke-dasharray: 2.96,1.28; stroke-dashoffset: 0; stroke: #b0b0b0; stroke-width: 0.8"/>
     </g>
     <g id="line2d_26">
      <g>
       <use xlink:href="#m766004231d" x="57.6" y="120.649131" style="stroke: #000000; stroke-width: 0.8"/>
      </g>
     </g>
     <g id="text_14">
      <!-- 3.5 -->
      <g transform="translate(34.696875 124.44835)scale(0.1 -0.1)">
       <use xlink:href="#DejaVuSans-33"/>
       <use xlink:href="#DejaVuSans-2e" x="63.623047"/>
       <use xlink:href="#DejaVuSans-35" x="95.410156"/>
      </g>
     </g>
    </g>
    <g id="ytick_5">
     <g id="line2d_27">
      <path d="M 57.6 69.704396 
L 414.72 69.704396 
" clip-path="url(#p422a444b21)" style="fill: none; stroke-dasharray: 2.96,1.28; stroke-dashoffset: 0; stroke: #b0b0b0; stroke-width: 0.8"/>
     </g>
     <g id="line2d_28">
      <g>
       <use xlink:href="#m766004231d" x="57.6" y="69.704396" style="stroke: #000000; stroke-width: 0.8"/>
      </g>
     </g>
     <g id="text_15">
      <!-- 4.0 -->
      <g transform="translate(34.696875 73.503615)scale(0.1 -0.1)">
       <defs>
        <path id="DejaVuSans-34" d="M 2419 4116 
L 825 1625 
L 2419 1625 
L 2419 4116 
z
M 2253 4666 
L 3047 4666 
L 3047 1625 
L 3713 1625 
L 3713 1100 
L 3047 1100 
L 3047 0 
L 2419 0 
L 2419 1100 
L 313 1100 
L 313 1709 
L 2253 4666 
z
" transform="scale(0.015625)"/>
       </defs>
       <use xlink:href="#DejaVuSans-34"/>
       <use xlink:href="#DejaVuSans-2e" x="63.623047"/>
       <use xlink:href="#DejaVuSans-30" x="95.410156"/>
      </g>
     </g>
    </g>
    <g id="text_16">
     <!-- Reward Density -->
     <g transform="translate(28.617187 213.74675)rotate(-90)scale(0.1 -0.1)">
      <defs>
       <path id="DejaVuSans-52" d="M 2841 2188 
Q 3044 2119 3236 1894 
Q 3428 1669 3622 1275 
L 4263 0 
L 3584 0 
L 2988 1197 
Q 2756 1666 2539 1819 
Q 2322 1972 1947 1972 
L 1259 1972 
L 1259 0 
L 628 0 
L 628 4666 
L 2053 4666 
Q 2853 4666 3247 4331 
Q 3641 3997 3641 3322 
Q 3641 2881 3436 2590 
Q 3231 2300 2841 2188 
z
M 1259 4147 
L 1259 2491 
L 2053 2491 
Q 2509 2491 2742 2702 
Q 2975 2913 2975 3322 
Q 2975 3731 2742 3939 
Q 2509 4147 2053 4147 
L 1259 4147 
z
" transform="scale(0.015625)"/>
       <path id="DejaVuSans-77" d="M 269 3500 
L 844 3500 
L 1563 769 
L 2278 3500 
L 2956 3500 
L 3675 769 
L 4391 3500 
L 4966 3500 
L 4050 0 
L 3372 0 
L 2619 2869 
L 1863 0 
L 1184 0 
L 269 3500 
z
" transform="scale(0.015625)"/>
       <path id="DejaVuSans-44" d="M 1259 4147 
L 1259 519 
L 2022 519 
Q 2988 519 3436 956 
Q 3884 1394 3884 2338 
Q 3884 3275 3436 3711 
Q 2988 4147 2022 4147 
L 1259 4147 
z
M 628 4666 
L 1925 4666 
Q 3281 4666 3915 4102 
Q 4550 3538 4550 2338 
Q 4550 1131 3912 565 
Q 3275 0 1925 0 
L 628 0 
L 628 4666 
z
" transform="scale(0.015625)"/>
       <path id="DejaVuSans-74" d="M 1172 4494 
L 1172 3500 
L 2356 3500 
L 2356 3053 
L 1172 3053 
L 1172 1153 
Q 1172 725 1289 603 
Q 1406 481 1766 481 
L 2356 481 
L 2356 0 
L 1766 0 
Q 1100 0 847 248 
Q 594 497 594 1153 
L 594 3053 
L 172 3053 
L 172 3500 
L 594 3500 
L 594 4494 
L 1172 4494 
z
" transform="scale(0.015625)"/>
       <path id="DejaVuSans-79" d="M 2059 -325 
Q 1816 -950 1584 -1140 
Q 1353 -1331 966 -1331 
L 506 -1331 
L 506 -850 
L 844 -850 
Q 1081 -850 1212 -737 
Q 1344 -625 1503 -206 
L 1606 56 
L 191 3500 
L 800 3500 
L 1894 763 
L 2988 3500 
L 3597 3500 
L 2059 -325 
z
" transform="scale(0.015625)"/>
      </defs>
      <use xlink:href="#DejaVuSans-52"/>
      <use xlink:href="#DejaVuSans-65" x="64.982422"/>
      <use xlink:href="#DejaVuSans-77" x="126.505859"/>
      <use xlink:href="#DejaVuSans-61" x="208.292969"/>
      <use xlink:href="#DejaVuSans-72" x="269.572266"/>
      <use xlink:href="#DejaVuSans-64" x="308.935547"/>
      <use xlink:href="#DejaVuSans-20" x="372.412109"/>
      <use xlink:href="#DejaVuSans-44" x="404.199219"/>
      <use xlink:href="#DejaVuSans-65" x="481.201172"/>
      <use xlink:href="#DejaVuSans-6e" x="542.724609"/>
      <use xlink:href="#DejaVuSans-73" x="606.103516"/>
      <use xlink:href="#DejaVuSans-69" x="658.203125"/>
      <use xlink:href="#DejaVuSans-74" x="685.986328"/>
      <use xlink:href="#DejaVuSans-79" x="725.195312"/>
     </g>
    </g>
   </g>
   <g id="LineCollection_1">
    <path d="M 90.893768 218.983272 
L 125.01585 218.983272 
" clip-path="url(#p422a444b21)" style="fill: none; stroke: #1f77b4; stroke-width: 1.5"/>
    <path d="M 176.198972 177.434239 
L 210.321054 177.434239 
" clip-path="url(#p422a444b21)" style="fill: none; stroke: #1f77b4; stroke-width: 1.5"/>
    <path d="M 261.504176 178.64805 
L 295.626258 178.64805 
" clip-path="url(#p422a444b21)" style="fill: none; stroke: #1f77b4; stroke-width: 1.5"/>
    <path d="M 346.80938 177.962287 
L 380.931462 177.962287 
" clip-path="url(#p422a444b21)" style="fill: none; stroke: #1f77b4; stroke-width: 1.5"/>
    <path d="M 347.30415 179.815669 
L 381.426232 179.815669 
" clip-path="url(#p422a444b21)" style="fill: none; stroke: #1f77b4; stroke-width: 1.5"/>
   </g>
   <g id="LineCollection_2">
    <path d="M 90.893768 155.614682 
L 125.01585 155.614682 
" clip-path="url(#p422a444b21)" style="fill: none; stroke: #1f77b4; stroke-width: 1.5"/>
    <path d="M 176.198972 53.568 
L 210.321054 53.568 
" clip-path="url(#p422a444b21)" style="fill: none; stroke: #1f77b4; stroke-width: 1.5"/>
    <path d="M 261.504176 57.079841 
L 295.626258 57.079841 
" clip-path="url(#p422a444b21)" style="fill: none; stroke: #1f77b4; stroke-width: 1.5"/>
    <path d="M 346.80938 54.826755 
L 380.931462 54.826755 
" clip-path="url(#p422a444b21)" style="fill: none; stroke: #1f77b4; stroke-width: 1.5"/>
    <path d="M 347.30415 65.299375 
L 381.426232 65.299375 
" clip-path="url(#p422a444b21)" style="fill: none; stroke: #1f77b4; stroke-width: 1.5"/>
   </g>
   <g id="LineCollection_3">
    <path d="M 90.893768 283.644686 
L 125.01585 283.644686 
" clip-path="url(#p422a444b21)" style="fill: none; stroke: #1f77b4; stroke-width: 1.5"/>
    <path d="M 176.198972 295.488 
L 210.321054 295.488 
" clip-path="url(#p422a444b21)" style="fill: none; stroke: #1f77b4; stroke-width: 1.5"/>
    <path d="M 261.504176 289.326918 
L 295.626258 289.326918 
" clip-path="url(#p422a444b21)" style="fill: none; stroke: #1f77b4; stroke-width: 1.5"/>
    <path d="M 346.80938 287.766533 
L 380.931462 287.766533 
" clip-path="url(#p422a444b21)" style="fill: none; stroke: #1f77b4; stroke-width: 1.5"/>
    <path d="M 347.30415 290.612943 
L 381.426232 290.612943 
" clip-path="url(#p422a444b21)" style="fill: none; stroke: #1f77b4; stroke-width: 1.5"/>
   </g>
   <g id="LineCollection_4">
    <path d="M 107.954809 283.644686 
L 107.954809 155.614682 
" clip-path="url(#p422a444b21)" style="fill: none; stroke: #1f77b4; stroke-width: 1.5"/>
    <path d="M 193.260013 295.488 
L 193.260013 53.568 
" clip-path="url(#p422a444b21)" style="fill: none; stroke: #1f77b4; stroke-width: 1.5"/>
    <path d="M 278.565217 289.326918 
L 278.565217 57.079841 
" clip-path="url(#p422a444b21)" style="fill: none; stroke: #1f77b4; stroke-width: 1.5"/>
    <path d="M 363.870421 287.766533 
L 363.870421 54.826755 
" clip-path="url(#p422a444b21)" style="fill: none; stroke: #1f77b4; stroke-width: 1.5"/>
    <path d="M 364.365191 290.612943 
L 364.365191 65.299375 
" clip-path="url(#p422a444b21)" style="fill: none; stroke: #1f77b4; stroke-width: 1.5"/>
   </g>
   <g id="line2d_29">
    <path d="M 107.954809 218.983272 
L 193.260013 177.434239 
L 278.565217 178.64805 
L 363.870421 177.962287 
L 364.365191 179.815669 
" clip-path="url(#p422a444b21)" style="fill: none; stroke: #4682b4; stroke-width: 1.5; stroke-linecap: square"/>
   </g>
   <g id="line2d_30">
    <path d="M 107.954809 218.983272 
L 193.260013 177.434239 
L 278.565217 178.64805 
L 363.870421 177.962287 
L 364.365191 179.815669 
" clip-path="url(#p422a444b21)" style="fill: none; stroke: #4682b4; stroke-width: 1.5; stroke-linecap: square"/>
   </g>
   <g id="patch_3">
    <path d="M 57.6 307.584 
L 57.6 41.472 
" style="fill: none; stroke: #000000; stroke-width: 0.8; stroke-linejoin: miter; stroke-linecap: square"/>
   </g>
   <g id="patch_4">
    <path d="M 414.72 307.584 
L 414.72 41.472 
" style="fill: none; stroke: #000000; stroke-width: 0.8; stroke-linejoin: miter; stroke-linecap: square"/>
   </g>
   <g id="patch_5">
    <path d="M 57.6 307.584 
L 414.72 307.584 
" style="fill: none; stroke: #000000; stroke-width: 0.8; stroke-linejoin: miter; stroke-linecap: square"/>
   </g>
   <g id="patch_6">
    <path d="M 57.6 41.472 
L 414.72 41.472 
" style="fill: none; stroke: #000000; stroke-width: 0.8; stroke-linejoin: miter; stroke-linecap: square"/>
   </g>
   <g id="text_17">
    <!-- Violinplot for progress of actions/price_refurbished -->
    <g transform="translate(84.801562 35.472)scale(0.12 -0.12)">
     <defs>
      <path id="DejaVuSans-56" d="M 1831 0 
L 50 4666 
L 709 4666 
L 2188 738 
L 3669 4666 
L 4325 4666 
L 2547 0 
L 1831 0 
z
" transform="scale(0.015625)"/>
      <path id="DejaVuSans-6c" d="M 603 4863 
L 1178 4863 
L 1178 0 
L 603 0 
L 603 4863 
z
" transform="scale(0.015625)"/>
      <path id="DejaVuSans-66" d="M 2375 4863 
L 2375 4384 
L 1825 4384 
Q 1516 4384 1395 4259 
Q 1275 4134 1275 3809 
L 1275 3500 
L 2222 3500 
L 2222 3053 
L 1275 3053 
L 1275 0 
L 697 0 
L 697 3053 
L 147 3053 
L 147 3500 
L 697 3500 
L 697 3744 
Q 697 4328 969 4595 
Q 1241 4863 1831 4863 
L 2375 4863 
z
" transform="scale(0.015625)"/>
      <path id="DejaVuSans-67" d="M 2906 1791 
Q 2906 2416 2648 2759 
Q 2391 3103 1925 3103 
Q 1463 3103 1205 2759 
Q 947 2416 947 1791 
Q 947 1169 1205 825 
Q 1463 481 1925 481 
Q 2391 481 2648 825 
Q 2906 1169 2906 1791 
z
M 3481 434 
Q 3481 -459 3084 -895 
Q 2688 -1331 1869 -1331 
Q 1566 -1331 1297 -1286 
Q 1028 -1241 775 -1147 
L 775 -588 
Q 1028 -725 1275 -790 
Q 1522 -856 1778 -856 
Q 2344 -856 2625 -561 
Q 2906 -266 2906 331 
L 2906 616 
Q 2728 306 2450 153 
Q 2172 0 1784 0 
Q 1141 0 747 490 
Q 353 981 353 1791 
Q 353 2603 747 3093 
Q 1141 3584 1784 3584 
Q 2172 3584 2450 3431 
Q 2728 3278 2906 2969 
L 2906 3500 
L 3481 3500 
L 3481 434 
z
" transform="scale(0.015625)"/>
      <path id="DejaVuSans-63" d="M 3122 3366 
L 3122 2828 
Q 2878 2963 2633 3030 
Q 2388 3097 2138 3097 
Q 1578 3097 1268 2742 
Q 959 2388 959 1747 
Q 959 1106 1268 751 
Q 1578 397 2138 397 
Q 2388 397 2633 464 
Q 2878 531 3122 666 
L 3122 134 
Q 2881 22 2623 -34 
Q 2366 -91 2075 -91 
Q 1284 -91 818 406 
Q 353 903 353 1747 
Q 353 2603 823 3093 
Q 1294 3584 2113 3584 
Q 2378 3584 2631 3529 
Q 2884 3475 3122 3366 
z
" transform="scale(0.015625)"/>
      <path id="DejaVuSans-2f" d="M 1625 4666 
L 2156 4666 
L 531 -594 
L 0 -594 
L 1625 4666 
z
" transform="scale(0.015625)"/>
      <path id="DejaVuSans-5f" d="M 3263 -1063 
L 3263 -1509 
L -63 -1509 
L -63 -1063 
L 3263 -1063 
z
" transform="scale(0.015625)"/>
      <path id="DejaVuSans-75" d="M 544 1381 
L 544 3500 
L 1119 3500 
L 1119 1403 
Q 1119 906 1312 657 
Q 1506 409 1894 409 
Q 2359 409 2629 706 
Q 2900 1003 2900 1516 
L 2900 3500 
L 3475 3500 
L 3475 0 
L 2900 0 
L 2900 538 
Q 2691 219 2414 64 
Q 2138 -91 1772 -91 
Q 1169 -91 856 284 
Q 544 659 544 1381 
z
M 1991 3584 
L 1991 3584 
z
" transform="scale(0.015625)"/>
      <path id="DejaVuSans-62" d="M 3116 1747 
Q 3116 2381 2855 2742 
Q 2594 3103 2138 3103 
Q 1681 3103 1420 2742 
Q 1159 2381 1159 1747 
Q 1159 1113 1420 752 
Q 1681 391 2138 391 
Q 2594 391 2855 752 
Q 3116 1113 3116 1747 
z
M 1159 2969 
Q 1341 3281 1617 3432 
Q 1894 3584 2278 3584 
Q 2916 3584 3314 3078 
Q 3713 2572 3713 1747 
Q 3713 922 3314 415 
Q 2916 -91 2278 -91 
Q 1894 -91 1617 61 
Q 1341 213 1159 525 
L 1159 0 
L 581 0 
L 581 4863 
L 1159 4863 
L 1159 2969 
z
" transform="scale(0.015625)"/>
      <path id="DejaVuSans-68" d="M 3513 2113 
L 3513 0 
L 2938 0 
L 2938 2094 
Q 2938 2591 2744 2837 
Q 2550 3084 2163 3084 
Q 1697 3084 1428 2787 
Q 1159 2491 1159 1978 
L 1159 0 
L 581 0 
L 581 4863 
L 1159 4863 
L 1159 2956 
Q 1366 3272 1645 3428 
Q 1925 3584 2291 3584 
Q 2894 3584 3203 3211 
Q 3513 2838 3513 2113 
z
" transform="scale(0.015625)"/>
     </defs>
     <use xlink:href="#DejaVuSans-56"/>
     <use xlink:href="#DejaVuSans-69" x="66.158203"/>
     <use xlink:href="#DejaVuSans-6f" x="93.941406"/>
     <use xlink:href="#DejaVuSans-6c" x="155.123047"/>
     <use xlink:href="#DejaVuSans-69" x="182.90625"/>
     <use xlink:href="#DejaVuSans-6e" x="210.689453"/>
     <use xlink:href="#DejaVuSans-70" x="274.068359"/>
     <use xlink:href="#DejaVuSans-6c" x="337.544922"/>
     <use xlink:href="#DejaVuSans-6f" x="365.328125"/>
     <use xlink:href="#DejaVuSans-74" x="426.509766"/>
     <use xlink:href="#DejaVuSans-20" x="465.71875"/>
     <use xlink:href="#DejaVuSans-66" x="497.505859"/>
     <use xlink:href="#DejaVuSans-6f" x="532.710938"/>
     <use xlink:href="#DejaVuSans-72" x="593.892578"/>
     <use xlink:href="#DejaVuSans-20" x="635.005859"/>
     <use xlink:href="#DejaVuSans-70" x="666.792969"/>
     <use xlink:href="#DejaVuSans-72" x="730.269531"/>
     <use xlink:href="#DejaVuSans-6f" x="769.132812"/>
     <use xlink:href="#DejaVuSans-67" x="830.314453"/>
     <use xlink:href="#DejaVuSans-72" x="893.791016"/>
     <use xlink:href="#DejaVuSans-65" x="932.654297"/>
     <use xlink:href="#DejaVuSans-73" x="994.177734"/>
     <use xlink:href="#DejaVuSans-73" x="1046.277344"/>
     <use xlink:href="#DejaVuSans-20" x="1098.376953"/>
     <use xlink:href="#DejaVuSans-6f" x="1130.164062"/>
     <use xlink:href="#DejaVuSans-66" x="1191.345703"/>
     <use xlink:href="#DejaVuSans-20" x="1226.550781"/>
     <use xlink:href="#DejaVuSans-61" x="1258.337891"/>
     <use xlink:href="#DejaVuSans-63" x="1319.617188"/>
     <use xlink:href="#DejaVuSans-74" x="1374.597656"/>
     <use xlink:href="#DejaVuSans-69" x="1413.806641"/>
     <use xlink:href="#DejaVuSans-6f" x="1441.589844"/>
     <use xlink:href="#DejaVuSans-6e" x="1502.771484"/>
     <use xlink:href="#DejaVuSans-73" x="1566.150391"/>
     <use xlink:href="#DejaVuSans-2f" x="1618.25"/>
     <use xlink:href="#DejaVuSans-70" x="1651.941406"/>
     <use xlink:href="#DejaVuSans-72" x="1715.417969"/>
     <use xlink:href="#DejaVuSans-69" x="1756.53125"/>
     <use xlink:href="#DejaVuSans-63" x="1784.314453"/>
     <use xlink:href="#DejaVuSans-65" x="1839.294922"/>
     <use xlink:href="#DejaVuSans-5f" x="1900.818359"/>
     <use xlink:href="#DejaVuSans-72" x="1950.818359"/>
     <use xlink:href="#DejaVuSans-65" x="1989.681641"/>
     <use xlink:href="#DejaVuSans-66" x="2051.205078"/>
     <use xlink:href="#DejaVuSans-75" x="2086.410156"/>
     <use xlink:href="#DejaVuSans-72" x="2149.789062"/>
     <use xlink:href="#DejaVuSans-62" x="2190.902344"/>
     <use xlink:href="#DejaVuSans-69" x="2254.378906"/>
     <use xlink:href="#DejaVuSans-73" x="2282.162109"/>
     <use xlink:href="#DejaVuSans-68" x="2334.261719"/>
     <use xlink:href="#DejaVuSans-65" x="2397.640625"/>
     <use xlink:href="#DejaVuSans-64" x="2459.164062"/>
    </g>
   </g>
   <g id="legend_1">
    <g id="patch_7">
     <path d="M 276.504375 64.150125 
L 407.72 64.150125 
Q 409.72 64.150125 409.72 62.150125 
L 409.72 48.472 
Q 409.72 46.472 407.72 46.472 
L 276.504375 46.472 
Q 274.504375 46.472 274.504375 48.472 
L 274.504375 62.150125 
Q 274.504375 64.150125 276.504375 64.150125 
z
" style="fill: #ffffff; opacity: 0.8; stroke: #cccccc; stroke-linejoin: miter"/>
    </g>
    <g id="line2d_31">
     <path d="M 278.504375 54.570438 
L 288.504375 54.570438 
L 298.504375 54.570438 
" style="fill: none; stroke: #4682b4; stroke-width: 1.5; stroke-linecap: square"/>
    </g>
    <g id="text_18">
     <!-- StableBaselinesPPO -->
     <g transform="translate(306.504375 58.070438)scale(0.1 -0.1)">
      <defs>
       <path id="DejaVuSans-53" d="M 3425 4513 
L 3425 3897 
Q 3066 4069 2747 4153 
Q 2428 4238 2131 4238 
Q 1616 4238 1336 4038 
Q 1056 3838 1056 3469 
Q 1056 3159 1242 3001 
Q 1428 2844 1947 2747 
L 2328 2669 
Q 3034 2534 3370 2195 
Q 3706 1856 3706 1288 
Q 3706 609 3251 259 
Q 2797 -91 1919 -91 
Q 1588 -91 1214 -16 
Q 841 59 441 206 
L 441 856 
Q 825 641 1194 531 
Q 1563 422 1919 422 
Q 2459 422 2753 634 
Q 3047 847 3047 1241 
Q 3047 1584 2836 1778 
Q 2625 1972 2144 2069 
L 1759 2144 
Q 1053 2284 737 2584 
Q 422 2884 422 3419 
Q 422 4038 858 4394 
Q 1294 4750 2059 4750 
Q 2388 4750 2728 4690 
Q 3069 4631 3425 4513 
z
" transform="scale(0.015625)"/>
       <path id="DejaVuSans-42" d="M 1259 2228 
L 1259 519 
L 2272 519 
Q 2781 519 3026 730 
Q 3272 941 3272 1375 
Q 3272 1813 3026 2020 
Q 2781 2228 2272 2228 
L 1259 2228 
z
M 1259 4147 
L 1259 2741 
L 2194 2741 
Q 2656 2741 2882 2914 
Q 3109 3088 3109 3444 
Q 3109 3797 2882 3972 
Q 2656 4147 2194 4147 
L 1259 4147 
z
M 628 4666 
L 2241 4666 
Q 2963 4666 3353 4366 
Q 3744 4066 3744 3513 
Q 3744 3084 3544 2831 
Q 3344 2578 2956 2516 
Q 3422 2416 3680 2098 
Q 3938 1781 3938 1306 
Q 3938 681 3513 340 
Q 3088 0 2303 0 
L 628 0 
L 628 4666 
z
" transform="scale(0.015625)"/>
       <path id="DejaVuSans-50" d="M 1259 4147 
L 1259 2394 
L 2053 2394 
Q 2494 2394 2734 2622 
Q 2975 2850 2975 3272 
Q 2975 3691 2734 3919 
Q 2494 4147 2053 4147 
L 1259 4147 
z
M 628 4666 
L 2053 4666 
Q 2838 4666 3239 4311 
Q 3641 3956 3641 3272 
Q 3641 2581 3239 2228 
Q 2838 1875 2053 1875 
L 1259 1875 
L 1259 0 
L 628 0 
L 628 4666 
z
" transform="scale(0.015625)"/>
       <path id="DejaVuSans-4f" d="M 2522 4238 
Q 1834 4238 1429 3725 
Q 1025 3213 1025 2328 
Q 1025 1447 1429 934 
Q 1834 422 2522 422 
Q 3209 422 3611 934 
Q 4013 1447 4013 2328 
Q 4013 3213 3611 3725 
Q 3209 4238 2522 4238 
z
M 2522 4750 
Q 3503 4750 4090 4092 
Q 4678 3434 4678 2328 
Q 4678 1225 4090 567 
Q 3503 -91 2522 -91 
Q 1538 -91 948 565 
Q 359 1222 359 2328 
Q 359 3434 948 4092 
Q 1538 4750 2522 4750 
z
" transform="scale(0.015625)"/>
      </defs>
      <use xlink:href="#DejaVuSans-53"/>
      <use xlink:href="#DejaVuSans-74" x="63.476562"/>
      <use xlink:href="#DejaVuSans-61" x="102.685547"/>
      <use xlink:href="#DejaVuSans-62" x="163.964844"/>
      <use xlink:href="#DejaVuSans-6c" x="227.441406"/>
      <use xlink:href="#DejaVuSans-65" x="255.224609"/>
      <use xlink:href="#DejaVuSans-42" x="316.748047"/>
      <use xlink:href="#DejaVuSans-61" x="385.351562"/>
      <use xlink:href="#DejaVuSans-73" x="446.630859"/>
      <use xlink:href="#DejaVuSans-65" x="498.730469"/>
      <use xlink:href="#DejaVuSans-6c" x="560.253906"/>
      <use xlink:href="#DejaVuSans-69" x="588.037109"/>
      <use xlink:href="#DejaVuSans-6e" x="615.820312"/>
      <use xlink:href="#DejaVuSans-65" x="679.199219"/>
      <use xlink:href="#DejaVuSans-73" x="740.722656"/>
      <use xlink:href="#DejaVuSans-50" x="792.822266"/>
      <use xlink:href="#DejaVuSans-50" x="853.125"/>
      <use xlink:href="#DejaVuSans-4f" x="913.427734"/>
     </g>
    </g>
   </g>
  </g>
 </g>
 <defs>
  <clipPath id="p422a444b21">
   <rect x="57.6" y="41.472" width="357.12" height="266.112"/>
  </clipPath>
 </defs>
</svg>
