<?xml version="1.0" encoding="utf-8" standalone="no"?>
<!DOCTYPE svg PUBLIC "-//W3C//DTD SVG 1.1//EN"
  "http://www.w3.org/Graphics/SVG/1.1/DTD/svg11.dtd">
<svg xmlns:xlink="http://www.w3.org/1999/xlink" width="460.8pt" height="345.6pt" viewBox="0 0 460.8 345.6" xmlns="http://www.w3.org/2000/svg" version="1.1">
 <metadata>
  <rdf:RDF xmlns:dc="http://purl.org/dc/elements/1.1/" xmlns:cc="http://creativecommons.org/ns#" xmlns:rdf="http://www.w3.org/1999/02/22-rdf-syntax-ns#">
   <cc:Work>
    <dc:type rdf:resource="http://purl.org/dc/dcmitype/StillImage"/>
    <dc:date>2022-06-21T20:44:59.428556</dc:date>
    <dc:format>image/svg+xml</dc:format>
    <dc:creator>
     <cc:Agent>
      <dc:title>Matplotlib v3.5.2, https://matplotlib.org/</dc:title>
     </cc:Agent>
    </dc:creator>
   </cc:Work>
  </rdf:RDF>
 </metadata>
 <defs>
  <style type="text/css">*{stroke-linejoin: round; stroke-linecap: butt}</style>
 </defs>
 <g id="figure_1">
  <g id="patch_1">
   <path d="M 0 345.6 
L 460.8 345.6 
L 460.8 0 
L 0 0 
z
" style="fill: #ffffff"/>
  </g>
  <g id="axes_1">
   <g id="patch_2">
    <path d="M 57.6 307.584 
L 414.72 307.584 
L 414.72 41.472 
L 57.6 41.472 
z
" style="fill: #ffffff"/>
   </g>
   <g id="PolyCollection_1">
    <path d="M 111.179065 265.621333 
L 104.730553 265.621333 
L 103.888686 263.47938 
L 102.931678 261.337428 
L 101.865259 259.195475 
L 100.697079 257.053522 
L 99.435933 254.911569 
L 98.091624 252.769616 
L 96.675674 250.627663 
L 95.202748 248.48571 
L 93.69238 246.343758 
L 92.170275 244.201805 
L 90.668448 242.059852 
L 89.223617 239.917899 
L 87.873691 237.775946 
L 86.652734 235.633993 
L 85.585349 233.49204 
L 84.681737 231.350088 
L 83.934721 229.208135 
L 83.319643 227.066182 
L 82.797404 224.924229 
L 82.320191 222.782276 
L 81.838845 220.640323 
L 81.31049 218.49837 
L 80.705075 216.356418 
L 80.00971 214.214465 
L 79.230157 212.072512 
L 78.389285 209.930559 
L 77.522871 207.788606 
L 76.673587 205.646653 
L 75.884424 203.5047 
L 75.192948 201.362747 
L 74.627601 199.220795 
L 74.206727 197.078842 
L 73.940194 194.936889 
L 73.832727 192.794936 
L 73.887541 190.652983 
L 74.108865 188.51103 
L 74.502412 186.369077 
L 75.073644 184.227125 
L 75.824477 182.085172 
L 76.749625 179.943219 
L 77.833901 177.801266 
L 79.051423 175.659313 
L 80.367089 173.51736 
L 81.739956 171.375407 
L 83.127643 169.233455 
L 84.49071 167.091502 
L 85.79608 164.949549 
L 87.019041 162.807596 
L 88.143802 160.665643 
L 89.162993 158.52369 
L 90.076602 156.381737 
L 90.890751 154.239785 
L 91.616504 152.097832 
L 92.268678 149.955879 
L 92.864554 147.813926 
L 93.422477 145.671973 
L 93.960427 143.53002 
L 94.494786 141.388067 
L 95.039458 139.246114 
L 95.605387 137.104162 
L 96.200356 134.962209 
L 96.828866 132.820256 
L 97.491925 130.678303 
L 98.186795 128.53635 
L 98.906843 126.394397 
L 99.641794 124.252444 
L 100.378528 122.110492 
L 101.102433 119.968539 
L 101.79902 117.826586 
L 102.455451 115.684633 
L 103.061605 113.54268 
L 103.610528 111.400727 
L 104.09834 109.258774 
L 104.523862 107.116822 
L 104.888269 104.974869 
L 105.194966 102.832916 
L 105.449673 100.690963 
L 105.660507 98.54901 
L 105.837777 96.407057 
L 105.993225 94.265104 
L 106.138726 92.123152 
L 106.284623 89.981199 
L 106.438127 87.839246 
L 106.602232 85.697293 
L 106.775445 83.55534 
L 106.952442 81.413387 
L 107.125443 79.271434 
L 107.28594 77.129481 
L 107.426357 74.987529 
L 107.541291 72.845576 
L 107.628175 70.703623 
L 107.687355 68.56167 
L 107.721714 66.419717 
L 107.736024 64.277764 
L 107.736165 62.135811 
L 107.728358 59.993859 
L 107.718443 57.851906 
L 107.711287 55.709953 
L 107.710341 53.568 
L 108.199277 53.568 
L 108.199277 53.568 
L 108.198331 55.709953 
L 108.191175 57.851906 
L 108.18126 59.993859 
L 108.173453 62.135811 
L 108.173594 64.277764 
L 108.187903 66.419717 
L 108.222263 68.56167 
L 108.281443 70.703623 
L 108.368326 72.845576 
L 108.483261 74.987529 
L 108.623678 77.129481 
L 108.784175 79.271434 
L 108.957176 81.413387 
L 109.134173 83.55534 
L 109.307386 85.697293 
L 109.47149 87.839246 
L 109.624995 89.981199 
L 109.770892 92.123152 
L 109.916393 94.265104 
L 110.071841 96.407057 
L 110.24911 98.54901 
L 110.459945 100.690963 
L 110.714651 102.832916 
L 111.021349 104.974869 
L 111.385756 107.116822 
L 111.811278 109.258774 
L 112.29909 111.400727 
L 112.848013 113.54268 
L 113.454167 115.684633 
L 114.110598 117.826586 
L 114.807185 119.968539 
L 115.531089 122.110492 
L 116.267824 124.252444 
L 117.002774 126.394397 
L 117.722823 128.53635 
L 118.417693 130.678303 
L 119.080752 132.820256 
L 119.709261 134.962209 
L 120.304231 137.104162 
L 120.87016 139.246114 
L 121.414832 141.388067 
L 121.949191 143.53002 
L 122.487141 145.671973 
L 123.045064 147.813926 
L 123.64094 149.955879 
L 124.293114 152.097832 
L 125.018867 154.239785 
L 125.833016 156.381737 
L 126.746625 158.52369 
L 127.765816 160.665643 
L 128.890577 162.807596 
L 130.113537 164.949549 
L 131.418908 167.091502 
L 132.781975 169.233455 
L 134.169662 171.375407 
L 135.542528 173.51736 
L 136.858195 175.659313 
L 138.075717 177.801266 
L 139.159993 179.943219 
L 140.085141 182.085172 
L 140.835974 184.227125 
L 141.407206 186.369077 
L 141.800753 188.51103 
L 142.022077 190.652983 
L 142.07689 192.794936 
L 141.969424 194.936889 
L 141.702891 197.078842 
L 141.282017 199.220795 
L 140.71667 201.362747 
L 140.025194 203.5047 
L 139.236031 205.646653 
L 138.386747 207.788606 
L 137.520332 209.930559 
L 136.679461 212.072512 
L 135.899907 214.214465 
L 135.204543 216.356418 
L 134.599127 218.49837 
L 134.070773 220.640323 
L 133.589426 222.782276 
L 133.112213 224.924229 
L 132.589974 227.066182 
L 131.974897 229.208135 
L 131.227881 231.350088 
L 130.324268 233.49204 
L 129.256883 235.633993 
L 128.035927 237.775946 
L 126.686001 239.917899 
L 125.24117 242.059852 
L 123.739343 244.201805 
L 122.217237 246.343758 
L 120.70687 248.48571 
L 119.233944 250.627663 
L 117.817993 252.769616 
L 116.473685 254.911569 
L 115.212539 257.053522 
L 114.044359 259.195475 
L 112.97794 261.337428 
L 112.020932 263.47938 
L 111.179065 265.621333 
z
" clip-path="url(#p6cc3826e4e)" style="fill: #1f77b4; fill-opacity: 0.3"/>
   </g>
   <g id="PolyCollection_2">
    <path d="M 194.420976 289.514667 
L 192.099049 289.514667 
L 191.774817 287.855407 
L 191.378474 286.196148 
L 190.896828 284.536889 
L 190.315294 282.87763 
L 189.619042 281.21837 
L 188.795094 279.559111 
L 187.83532 277.899852 
L 186.739829 276.240593 
L 185.519839 274.581333 
L 184.198902 272.922074 
L 182.811497 271.262815 
L 181.398627 269.603556 
L 180.00098 267.944296 
L 178.651175 266.285037 
L 177.367217 264.625778 
L 176.149192 262.966519 
L 174.98047 261.307259 
L 173.833299 259.648 
L 172.677287 257.988741 
L 171.488281 256.329481 
L 170.255065 254.670222 
L 168.982066 253.010963 
L 167.687719 251.351704 
L 166.399611 249.692444 
L 165.148499 248.033185 
L 163.963375 246.373926 
L 162.868963 244.714667 
L 161.885741 243.055407 
L 161.03141 241.396148 
L 160.32216 239.736889 
L 159.772348 238.07763 
L 159.392124 236.41837 
L 159.183717 234.759111 
L 159.137931 233.099852 
L 159.232583 231.440593 
L 159.434011 229.781333 
L 159.701739 228.122074 
L 159.995237 226.462815 
L 160.281015 224.803556 
L 160.538223 223.144296 
L 160.761499 221.485037 
L 160.960714 219.825778 
L 161.15815 218.166519 
L 161.384214 216.507259 
L 161.672807 214.848 
L 162.057178 213.188741 
L 162.566557 211.529481 
L 163.223472 209.870222 
L 164.041473 208.210963 
L 165.023135 206.551704 
L 166.158483 204.892444 
L 167.424265 203.233185 
L 168.784633 201.573926 
L 170.193635 199.914667 
L 171.599586 198.255407 
L 172.950906 196.596148 
L 174.202554 194.936889 
L 175.321899 193.27763 
L 176.292836 191.61837 
L 177.117282 189.959111 
L 177.813702 188.299852 
L 178.413007 186.640593 
L 178.95275 184.981333 
L 179.470888 183.322074 
L 180.000322 181.662815 
L 180.565126 180.003556 
L 181.178805 178.344296 
L 181.844453 176.685037 
L 182.556328 175.025778 
L 183.302276 173.366519 
L 184.066456 171.707259 
L 184.831971 170.048 
L 185.58311 168.388741 
L 186.306973 166.729481 
L 186.994345 165.070222 
L 187.639776 163.410963 
L 188.240998 161.751704 
L 188.797927 160.092444 
L 189.311609 158.433185 
L 189.783401 156.773926 
L 190.214578 155.114667 
L 190.606339 153.455407 
L 190.960041 151.796148 
L 191.277453 150.136889 
L 191.560807 148.47763 
L 191.812624 146.81837 
L 192.03534 145.159111 
L 192.230931 143.499852 
L 192.400675 141.840593 
L 192.5452 140.181333 
L 192.664798 138.522074 
L 192.759948 136.862815 
L 192.831856 135.203556 
L 192.882862 133.544296 
L 192.916564 131.885037 
L 192.937601 130.225778 
L 192.951141 128.566519 
L 192.96219 126.907259 
L 192.974898 125.248 
L 193.545128 125.248 
L 193.545128 125.248 
L 193.557835 126.907259 
L 193.568885 128.566519 
L 193.582425 130.225778 
L 193.603462 131.885037 
L 193.637164 133.544296 
L 193.68817 135.203556 
L 193.760078 136.862815 
L 193.855227 138.522074 
L 193.974826 140.181333 
L 194.119351 141.840593 
L 194.289095 143.499852 
L 194.484686 145.159111 
L 194.707402 146.81837 
L 194.959219 148.47763 
L 195.242573 150.136889 
L 195.559984 151.796148 
L 195.913687 153.455407 
L 196.305447 155.114667 
L 196.736625 156.773926 
L 197.208417 158.433185 
L 197.722099 160.092444 
L 198.279028 161.751704 
L 198.88025 163.410963 
L 199.525681 165.070222 
L 200.213052 166.729481 
L 200.936916 168.388741 
L 201.688055 170.048 
L 202.45357 171.707259 
L 203.21775 173.366519 
L 203.963698 175.025778 
L 204.675573 176.685037 
L 205.34122 178.344296 
L 205.9549 180.003556 
L 206.519704 181.662815 
L 207.049138 183.322074 
L 207.567275 184.981333 
L 208.107019 186.640593 
L 208.706324 188.299852 
L 209.402744 189.959111 
L 210.22719 191.61837 
L 211.198127 193.27763 
L 212.317471 194.936889 
L 213.56912 196.596148 
L 214.92044 198.255407 
L 216.32639 199.914667 
L 217.735392 201.573926 
L 219.095761 203.233185 
L 220.361543 204.892444 
L 221.49689 206.551704 
L 222.478553 208.210963 
L 223.296554 209.870222 
L 223.953469 211.529481 
L 224.462848 213.188741 
L 224.847218 214.848 
L 225.135812 216.507259 
L 225.361876 218.166519 
L 225.559312 219.825778 
L 225.758526 221.485037 
L 225.981803 223.144296 
L 226.239011 224.803556 
L 226.524789 226.462815 
L 226.818287 228.122074 
L 227.086015 229.781333 
L 227.287443 231.440593 
L 227.382095 233.099852 
L 227.336309 234.759111 
L 227.127902 236.41837 
L 226.747678 238.07763 
L 226.197866 239.736889 
L 225.488616 241.396148 
L 224.634285 243.055407 
L 223.651063 244.714667 
L 222.556651 246.373926 
L 221.371527 248.033185 
L 220.120415 249.692444 
L 218.832307 251.351704 
L 217.53796 253.010963 
L 216.264961 254.670222 
L 215.031745 256.329481 
L 213.842739 257.988741 
L 212.686727 259.648 
L 211.539556 261.307259 
L 210.370834 262.966519 
L 209.152809 264.625778 
L 207.868851 266.285037 
L 206.519046 267.944296 
L 205.121398 269.603556 
L 203.708529 271.262815 
L 202.321124 272.922074 
L 201.000187 274.581333 
L 199.780197 276.240593 
L 198.684705 277.899852 
L 197.724932 279.559111 
L 196.900984 281.21837 
L 196.204732 282.87763 
L 195.623198 284.536889 
L 195.141552 286.196148 
L 194.745209 287.855407 
L 194.420976 289.514667 
z
" clip-path="url(#p6cc3826e4e)" style="fill: #1f77b4; fill-opacity: 0.3"/>
   </g>
   <g id="PolyCollection_3">
    <path d="M 279.270567 295.488 
L 277.859867 295.488 
L 277.66791 293.798572 
L 277.420022 292.109145 
L 277.101286 290.419717 
L 276.696659 288.73029 
L 276.192613 287.040862 
L 275.578682 285.351434 
L 274.848571 283.662007 
L 274.000555 281.972579 
L 273.037073 280.283152 
L 271.963663 278.593724 
L 270.787573 276.904296 
L 269.516512 275.214869 
L 268.157945 273.525441 
L 266.719203 271.836013 
L 265.208422 270.146586 
L 263.636088 268.457158 
L 262.016775 266.767731 
L 260.370585 265.078303 
L 258.723772 263.388875 
L 257.108164 261.699448 
L 255.559121 260.01002 
L 254.112072 258.320593 
L 252.797995 256.631165 
L 251.638599 254.941737 
L 250.642279 253.25231 
L 249.802001 251.562882 
L 249.096039 249.873455 
L 248.491865 248.184027 
L 247.952642 246.494599 
L 247.444936 244.805172 
L 246.945765 243.115744 
L 246.447138 241.426316 
L 245.956891 239.736889 
L 245.49565 238.047461 
L 245.090835 236.358034 
L 244.769373 234.668606 
L 244.551031 232.979178 
L 244.443928 231.289751 
L 244.443135 229.600323 
L 244.532411 227.910896 
L 244.688473 226.221468 
L 244.886698 224.53204 
L 245.106938 222.842613 
L 245.338209 221.153185 
L 245.581246 219.463758 
L 245.848421 217.77433 
L 246.161125 216.084902 
L 246.545289 214.395475 
L 247.026155 212.706047 
L 247.623526 211.01662 
L 248.348438 209.327192 
L 249.201754 207.637764 
L 250.174574 205.948337 
L 251.249967 204.258909 
L 252.405378 202.569481 
L 253.61518 200.880054 
L 254.853078 199.190626 
L 256.094318 197.501199 
L 257.317734 195.811771 
L 258.50756 194.122343 
L 259.654781 192.432916 
L 260.757651 190.743488 
L 261.821019 189.054061 
L 262.854338 187.364633 
L 263.868587 185.675205 
L 264.872739 183.985778 
L 265.870647 182.29635 
L 266.859197 180.606923 
L 267.828287 178.917495 
L 268.76265 177.228067 
L 269.645002 175.53864 
L 270.459633 173.849212 
L 271.195466 172.159785 
L 271.847856 170.470357 
L 272.418888 168.780929 
L 272.916355 167.091502 
L 273.351968 165.402074 
L 273.739389 163.712646 
L 274.09252 162.023219 
L 274.424221 160.333791 
L 274.745404 158.644364 
L 275.064344 156.954936 
L 275.386098 155.265508 
L 275.712076 153.576081 
L 276.039908 151.886653 
L 276.363765 150.197226 
L 276.675227 148.507798 
L 276.964615 146.81837 
L 277.222577 145.128943 
L 277.441639 143.439515 
L 277.617449 141.750088 
L 277.749492 140.06066 
L 277.8412 138.371232 
L 277.899449 136.681805 
L 277.933531 134.992377 
L 277.953799 133.302949 
L 277.970175 131.613522 
L 277.990806 129.924094 
L 278.021102 128.234667 
L 279.109332 128.234667 
L 279.109332 128.234667 
L 279.139628 129.924094 
L 279.160259 131.613522 
L 279.176634 133.302949 
L 279.196902 134.992377 
L 279.230985 136.681805 
L 279.289233 138.371232 
L 279.380942 140.06066 
L 279.512985 141.750088 
L 279.688795 143.439515 
L 279.907857 145.128943 
L 280.165819 146.81837 
L 280.455206 148.507798 
L 280.766669 150.197226 
L 281.090526 151.886653 
L 281.418358 153.576081 
L 281.744336 155.265508 
L 282.066089 156.954936 
L 282.385029 158.644364 
L 282.706213 160.333791 
L 283.037914 162.023219 
L 283.391044 163.712646 
L 283.778466 165.402074 
L 284.214079 167.091502 
L 284.711546 168.780929 
L 285.282578 170.470357 
L 285.934968 172.159785 
L 286.670801 173.849212 
L 287.485432 175.53864 
L 288.367784 177.228067 
L 289.302146 178.917495 
L 290.271237 180.606923 
L 291.259787 182.29635 
L 292.257694 183.985778 
L 293.261847 185.675205 
L 294.276096 187.364633 
L 295.309414 189.054061 
L 296.372783 190.743488 
L 297.475653 192.432916 
L 298.622874 194.122343 
L 299.8127 195.811771 
L 301.036116 197.501199 
L 302.277356 199.190626 
L 303.515253 200.880054 
L 304.725056 202.569481 
L 305.880467 204.258909 
L 306.95586 205.948337 
L 307.92868 207.637764 
L 308.781996 209.327192 
L 309.506908 211.01662 
L 310.104279 212.706047 
L 310.585145 214.395475 
L 310.969309 216.084902 
L 311.282013 217.77433 
L 311.549188 219.463758 
L 311.792224 221.153185 
L 312.023496 222.842613 
L 312.243736 224.53204 
L 312.441961 226.221468 
L 312.598023 227.910896 
L 312.687299 229.600323 
L 312.686506 231.289751 
L 312.579403 232.979178 
L 312.361061 234.668606 
L 312.039599 236.358034 
L 311.634784 238.047461 
L 311.173543 239.736889 
L 310.683296 241.426316 
L 310.184669 243.115744 
L 309.685498 244.805172 
L 309.177792 246.494599 
L 308.638569 248.184027 
L 308.034395 249.873455 
L 307.328433 251.562882 
L 306.488155 253.25231 
L 305.491835 254.941737 
L 304.332439 256.631165 
L 303.018362 258.320593 
L 301.571313 260.01002 
L 300.02227 261.699448 
L 298.406662 263.388875 
L 296.759849 265.078303 
L 295.113658 266.767731 
L 293.494346 268.457158 
L 291.922011 270.146586 
L 290.411231 271.836013 
L 288.972489 273.525441 
L 287.613922 275.214869 
L 286.342861 276.904296 
L 285.166771 278.593724 
L 284.093361 280.283152 
L 283.129879 281.972579 
L 282.281863 283.662007 
L 281.551752 285.351434 
L 280.93782 287.040862 
L 280.433775 288.73029 
L 280.029148 290.419717 
L 279.710412 292.109145 
L 279.462524 293.798572 
L 279.270567 295.488 
z
" clip-path="url(#p6cc3826e4e)" style="fill: #1f77b4; fill-opacity: 0.3"/>
   </g>
   <g id="PolyCollection_4">
    <path d="M 364.740506 289.514667 
L 363.000336 289.514667 
L 362.769649 288.036418 
L 362.48438 286.558168 
L 362.133825 285.079919 
L 361.706896 283.60167 
L 361.192888 282.123421 
L 360.582469 280.645172 
L 359.86883 279.166923 
L 359.048894 277.688673 
L 358.124405 276.210424 
L 357.102658 274.732175 
L 355.996599 273.253926 
L 354.824141 271.775677 
L 353.606641 270.297428 
L 352.366709 268.819178 
L 351.12573 267.340929 
L 349.901569 265.86268 
L 348.706962 264.384431 
L 347.548971 262.906182 
L 346.429644 261.427933 
L 345.34774 259.949684 
L 344.301139 258.471434 
L 343.289322 256.993185 
L 342.31529 255.514936 
L 341.386316 254.036687 
L 340.513199 252.558438 
L 339.708011 251.080189 
L 338.980772 249.601939 
L 338.335831 248.12369 
L 337.768986 246.645441 
L 337.266255 245.167192 
L 336.804916 243.688943 
L 336.356793 242.210694 
L 335.893154 240.732444 
L 335.390058 239.254195 
L 334.83287 237.775946 
L 334.218909 236.297697 
L 333.557744 234.819448 
L 332.869387 233.341199 
L 332.181154 231.862949 
L 331.524162 230.3847 
L 330.930303 228.906451 
L 330.430072 227.428202 
L 330.051177 225.949953 
L 329.817546 224.471704 
L 329.748339 222.993455 
L 329.856768 221.515205 
L 330.148882 220.036956 
L 330.622716 218.558707 
L 331.268212 217.080458 
L 332.06814 215.602209 
L 332.999915 214.12396 
L 334.037863 212.64571 
L 335.15536 211.167461 
L 336.326306 209.689212 
L 337.525712 208.210963 
L 338.729524 206.732714 
L 339.914163 205.254465 
L 341.056392 203.776215 
L 342.134033 202.297966 
L 343.127727 200.819717 
L 344.02349 199.341468 
L 344.815449 197.863219 
L 345.50791 196.38497 
L 346.116019 194.906721 
L 346.664593 193.428471 
L 347.18516 191.950222 
L 347.711743 190.471973 
L 348.27621 188.993724 
L 348.904076 187.515475 
L 349.611487 186.037226 
L 350.403771 184.558976 
L 351.275581 183.080727 
L 352.212357 181.602478 
L 353.192648 180.124229 
L 354.19083 178.64598 
L 355.1798 177.167731 
L 356.133367 175.689481 
L 357.028208 174.211232 
L 357.845322 172.732983 
L 358.571028 171.254734 
L 359.197532 169.776485 
L 359.723105 168.298236 
L 360.15188 166.819987 
L 360.493254 165.341737 
L 360.760904 163.863488 
L 360.971436 162.385239 
L 361.142732 160.90699 
L 361.292177 159.428741 
L 361.434947 157.950492 
L 361.582614 156.472242 
L 361.742284 154.993993 
L 361.916412 153.515744 
L 362.103298 152.037495 
L 362.298151 150.559246 
L 362.494477 149.080997 
L 362.685499 147.602747 
L 362.865324 146.124498 
L 363.029685 144.646249 
L 363.176193 143.168 
L 364.564649 143.168 
L 364.564649 143.168 
L 364.711157 144.646249 
L 364.875518 146.124498 
L 365.055343 147.602747 
L 365.246365 149.080997 
L 365.442691 150.559246 
L 365.637544 152.037495 
L 365.82443 153.515744 
L 365.998558 154.993993 
L 366.158228 156.472242 
L 366.305895 157.950492 
L 366.448664 159.428741 
L 366.59811 160.90699 
L 366.769406 162.385239 
L 366.979937 163.863488 
L 367.247588 165.341737 
L 367.588962 166.819987 
L 368.017736 168.298236 
L 368.54331 169.776485 
L 369.169814 171.254734 
L 369.89552 172.732983 
L 370.712634 174.211232 
L 371.607474 175.689481 
L 372.561042 177.167731 
L 373.550012 178.64598 
L 374.548194 180.124229 
L 375.528485 181.602478 
L 376.465261 183.080727 
L 377.337071 184.558976 
L 378.129355 186.037226 
L 378.836766 187.515475 
L 379.464632 188.993724 
L 380.029099 190.471973 
L 380.555682 191.950222 
L 381.076249 193.428471 
L 381.624823 194.906721 
L 382.232932 196.38497 
L 382.925393 197.863219 
L 383.717352 199.341468 
L 384.613115 200.819717 
L 385.606809 202.297966 
L 386.68445 203.776215 
L 387.826679 205.254465 
L 389.011318 206.732714 
L 390.21513 208.210963 
L 391.414536 209.689212 
L 392.585482 211.167461 
L 393.702979 212.64571 
L 394.740927 214.12396 
L 395.672701 215.602209 
L 396.47263 217.080458 
L 397.118126 218.558707 
L 397.59196 220.036956 
L 397.884074 221.515205 
L 397.992503 222.993455 
L 397.923296 224.471704 
L 397.689665 225.949953 
L 397.310769 227.428202 
L 396.810539 228.906451 
L 396.21668 230.3847 
L 395.559688 231.862949 
L 394.871455 233.341199 
L 394.183098 234.819448 
L 393.521932 236.297697 
L 392.907972 237.775946 
L 392.350784 239.254195 
L 391.847687 240.732444 
L 391.384048 242.210694 
L 390.935926 243.688943 
L 390.474587 245.167192 
L 389.971856 246.645441 
L 389.40501 248.12369 
L 388.76007 249.601939 
L 388.032831 251.080189 
L 387.227643 252.558438 
L 386.354526 254.036687 
L 385.425552 255.514936 
L 384.45152 256.993185 
L 383.439703 258.471434 
L 382.393102 259.949684 
L 381.311198 261.427933 
L 380.191871 262.906182 
L 379.03388 264.384431 
L 377.839273 265.86268 
L 376.615112 267.340929 
L 375.374133 268.819178 
L 374.134201 270.297428 
L 372.9167 271.775677 
L 371.744243 273.253926 
L 370.638184 274.732175 
L 369.616437 276.210424 
L 368.691948 277.688673 
L 367.872012 279.166923 
L 367.158373 280.645172 
L 366.547954 282.123421 
L 366.033946 283.60167 
L 365.607017 285.079919 
L 365.256462 286.558168 
L 364.971193 288.036418 
L 364.740506 289.514667 
z
" clip-path="url(#p6cc3826e4e)" style="fill: #1f77b4; fill-opacity: 0.3"/>
   </g>
   <g id="PolyCollection_5">
    <path d="M 366.409462 283.541333 
L 362.320921 283.541333 
L 361.85824 282.063084 
L 361.299505 280.584835 
L 360.629452 279.106586 
L 359.836369 277.628337 
L 358.91488 276.150088 
L 357.868284 274.671838 
L 356.709852 273.193589 
L 355.462665 271.71534 
L 354.157842 270.237091 
L 352.831377 268.758842 
L 351.520156 267.280593 
L 350.25791 265.802343 
L 349.071897 264.324094 
L 347.980892 262.845845 
L 346.994698 261.367596 
L 346.115018 259.889347 
L 345.33719 258.411098 
L 344.652179 256.932848 
L 344.048298 255.454599 
L 343.512353 253.97635 
L 343.030235 252.498101 
L 342.58717 251.019852 
L 342.167943 249.541603 
L 341.757323 248.063354 
L 341.340735 246.585104 
L 340.905055 245.106855 
L 340.439298 243.628606 
L 339.934991 242.150357 
L 339.386183 240.672108 
L 338.789184 239.193859 
L 338.14229 237.715609 
L 337.445739 236.23736 
L 336.702078 234.759111 
L 335.916935 233.280862 
L 335.100039 231.802613 
L 334.26619 230.324364 
L 333.43589 228.846114 
L 332.635366 227.367865 
L 331.895839 225.889616 
L 331.252001 224.411367 
L 330.739782 222.933118 
L 330.393565 221.454869 
L 330.24311 219.97662 
L 330.310515 218.49837 
L 330.607581 217.020121 
L 331.133951 215.541872 
L 331.876346 214.063623 
L 332.809084 212.585374 
L 333.895893 211.107125 
L 335.092838 209.628875 
L 336.352021 208.150626 
L 337.625594 206.672377 
L 338.869576 205.194128 
L 340.047059 203.715879 
L 341.130492 202.23763 
L 342.102906 200.75938 
L 342.958146 199.281131 
L 343.700239 197.802882 
L 344.34213 196.324633 
L 344.903958 194.846384 
L 345.411 193.368135 
L 345.891372 191.889886 
L 346.37354 190.411636 
L 346.883791 188.933387 
L 347.443861 187.455138 
L 348.069009 185.976889 
L 348.766829 184.49864 
L 349.536989 183.020391 
L 350.371962 181.542141 
L 351.258567 180.063892 
L 352.180019 178.585643 
L 353.118073 177.107394 
L 354.054888 175.629145 
L 354.97436 174.150896 
L 355.862847 172.672646 
L 356.709376 171.194397 
L 357.50553 169.716148 
L 358.245233 168.237899 
L 358.924573 166.75965 
L 359.541748 165.281401 
L 360.097052 163.803152 
L 360.592824 162.324902 
L 361.033228 160.846653 
L 361.423816 159.368404 
L 361.770897 157.890155 
L 362.080792 156.411906 
L 362.359133 154.933657 
L 362.61034 153.455407 
L 362.837379 151.977158 
L 363.041841 150.498909 
L 363.224295 149.02066 
L 363.384819 147.542411 
L 363.523569 146.064162 
L 363.641255 144.585912 
L 363.739425 143.107663 
L 363.820498 141.629414 
L 363.887563 140.151165 
L 363.94401 138.672916 
L 363.993096 137.194667 
L 364.737287 137.194667 
L 364.737287 137.194667 
L 364.786372 138.672916 
L 364.84282 140.151165 
L 364.909884 141.629414 
L 364.990957 143.107663 
L 365.089127 144.585912 
L 365.206814 146.064162 
L 365.345563 147.542411 
L 365.506087 149.02066 
L 365.688541 150.498909 
L 365.893003 151.977158 
L 366.120042 153.455407 
L 366.371249 154.933657 
L 366.64959 156.411906 
L 366.959485 157.890155 
L 367.306566 159.368404 
L 367.697154 160.846653 
L 368.137558 162.324902 
L 368.63333 163.803152 
L 369.188634 165.281401 
L 369.805809 166.75965 
L 370.48515 168.237899 
L 371.224852 169.716148 
L 372.021007 171.194397 
L 372.867535 172.672646 
L 373.756022 174.150896 
L 374.675494 175.629145 
L 375.61231 177.107394 
L 376.550364 178.585643 
L 377.471815 180.063892 
L 378.35842 181.542141 
L 379.193393 183.020391 
L 379.963554 184.49864 
L 380.661373 185.976889 
L 381.286522 187.455138 
L 381.846591 188.933387 
L 382.356842 190.411636 
L 382.83901 191.889886 
L 383.319382 193.368135 
L 383.826425 194.846384 
L 384.388252 196.324633 
L 385.030143 197.802882 
L 385.772236 199.281131 
L 386.627476 200.75938 
L 387.599891 202.23763 
L 388.683323 203.715879 
L 389.860807 205.194128 
L 391.104789 206.672377 
L 392.378361 208.150626 
L 393.637545 209.628875 
L 394.834489 211.107125 
L 395.921298 212.585374 
L 396.854037 214.063623 
L 397.596432 215.541872 
L 398.122801 217.020121 
L 398.419867 218.49837 
L 398.487273 219.97662 
L 398.336818 221.454869 
L 397.9906 222.933118 
L 397.478381 224.411367 
L 396.834544 225.889616 
L 396.095016 227.367865 
L 395.294492 228.846114 
L 394.464192 230.324364 
L 393.630343 231.802613 
L 392.813447 233.280862 
L 392.028304 234.759111 
L 391.284643 236.23736 
L 390.588092 237.715609 
L 389.941198 239.193859 
L 389.344199 240.672108 
L 388.795391 242.150357 
L 388.291085 243.628606 
L 387.825327 245.106855 
L 387.389648 246.585104 
L 386.973059 248.063354 
L 386.562439 249.541603 
L 386.143213 251.019852 
L 385.700147 252.498101 
L 385.218029 253.97635 
L 384.682084 255.454599 
L 384.078203 256.932848 
L 383.393193 258.411098 
L 382.615364 259.889347 
L 381.735684 261.367596 
L 380.74949 262.845845 
L 379.658485 264.324094 
L 378.472473 265.802343 
L 377.210226 267.280593 
L 375.899005 268.758842 
L 374.57254 270.237091 
L 373.267717 271.71534 
L 372.020531 273.193589 
L 370.862098 274.671838 
L 369.815502 276.150088 
L 368.894013 277.628337 
L 368.10093 279.106586 
L 367.430877 280.584835 
L 366.872142 282.063084 
L 366.409462 283.541333 
z
" clip-path="url(#p6cc3826e4e)" style="fill: #1f77b4; fill-opacity: 0.3"/>
   </g>
   <g id="matplotlib.axis_1">
    <g id="xtick_1">
     <g id="line2d_1">
      <path d="M 65.302207 307.584 
L 65.302207 41.472 
" clip-path="url(#p6cc3826e4e)" style="fill: none; stroke-dasharray: 2.96,1.28; stroke-dashoffset: 0; stroke: #b0b0b0; stroke-width: 0.8"/>
     </g>
     <g id="line2d_2">
      <defs>
       <path id="ma76cd30e72" d="M 0 0 
L 0 3.5 
" style="stroke: #000000; stroke-width: 0.8"/>
      </defs>
      <g>
       <use xlink:href="#ma76cd30e72" x="65.302207" y="307.584" style="stroke: #000000; stroke-width: 0.8"/>
      </g>
     </g>
     <g id="text_1">
      <!-- 2500 -->
      <g transform="translate(52.577207 322.182437)scale(0.1 -0.1)">
       <defs>
        <path id="DejaVuSans-32" d="M 1228 531 
L 3431 531 
L 3431 0 
L 469 0 
L 469 531 
Q 828 903 1448 1529 
Q 2069 2156 2228 2338 
Q 2531 2678 2651 2914 
Q 2772 3150 2772 3378 
Q 2772 3750 2511 3984 
Q 2250 4219 1831 4219 
Q 1534 4219 1204 4116 
Q 875 4013 500 3803 
L 500 4441 
Q 881 4594 1212 4672 
Q 1544 4750 1819 4750 
Q 2544 4750 2975 4387 
Q 3406 4025 3406 3419 
Q 3406 3131 3298 2873 
Q 3191 2616 2906 2266 
Q 2828 2175 2409 1742 
Q 1991 1309 1228 531 
z
" transform="scale(0.015625)"/>
        <path id="DejaVuSans-35" d="M 691 4666 
L 3169 4666 
L 3169 4134 
L 1269 4134 
L 1269 2991 
Q 1406 3038 1543 3061 
Q 1681 3084 1819 3084 
Q 2600 3084 3056 2656 
Q 3513 2228 3513 1497 
Q 3513 744 3044 326 
Q 2575 -91 1722 -91 
Q 1428 -91 1123 -41 
Q 819 9 494 109 
L 494 744 
Q 775 591 1075 516 
Q 1375 441 1709 441 
Q 2250 441 2565 725 
Q 2881 1009 2881 1497 
Q 2881 1984 2565 2268 
Q 2250 2553 1709 2553 
Q 1456 2553 1204 2497 
Q 953 2441 691 2322 
L 691 4666 
z
" transform="scale(0.015625)"/>
        <path id="DejaVuSans-30" d="M 2034 4250 
Q 1547 4250 1301 3770 
Q 1056 3291 1056 2328 
Q 1056 1369 1301 889 
Q 1547 409 2034 409 
Q 2525 409 2770 889 
Q 3016 1369 3016 2328 
Q 3016 3291 2770 3770 
Q 2525 4250 2034 4250 
z
M 2034 4750 
Q 2819 4750 3233 4129 
Q 3647 3509 3647 2328 
Q 3647 1150 3233 529 
Q 2819 -91 2034 -91 
Q 1250 -91 836 529 
Q 422 1150 422 2328 
Q 422 3509 836 4129 
Q 1250 4750 2034 4750 
z
" transform="scale(0.015625)"/>
       </defs>
       <use xlink:href="#DejaVuSans-32"/>
       <use xlink:href="#DejaVuSans-35" x="63.623047"/>
       <use xlink:href="#DejaVuSans-30" x="127.246094"/>
       <use xlink:href="#DejaVuSans-30" x="190.869141"/>
      </g>
     </g>
    </g>
    <g id="xtick_2">
     <g id="line2d_3">
      <path d="M 107.954809 307.584 
L 107.954809 41.472 
" clip-path="url(#p6cc3826e4e)" style="fill: none; stroke-dasharray: 2.96,1.28; stroke-dashoffset: 0; stroke: #b0b0b0; stroke-width: 0.8"/>
     </g>
     <g id="line2d_4">
      <g>
       <use xlink:href="#ma76cd30e72" x="107.954809" y="307.584" style="stroke: #000000; stroke-width: 0.8"/>
      </g>
     </g>
     <g id="text_2">
      <!-- 5000 -->
      <g transform="translate(95.229809 322.182437)scale(0.1 -0.1)">
       <use xlink:href="#DejaVuSans-35"/>
       <use xlink:href="#DejaVuSans-30" x="63.623047"/>
       <use xlink:href="#DejaVuSans-30" x="127.246094"/>
       <use xlink:href="#DejaVuSans-30" x="190.869141"/>
      </g>
     </g>
    </g>
    <g id="xtick_3">
     <g id="line2d_5">
      <path d="M 150.607411 307.584 
L 150.607411 41.472 
" clip-path="url(#p6cc3826e4e)" style="fill: none; stroke-dasharray: 2.96,1.28; stroke-dashoffset: 0; stroke: #b0b0b0; stroke-width: 0.8"/>
     </g>
     <g id="line2d_6">
      <g>
       <use xlink:href="#ma76cd30e72" x="150.607411" y="307.584" style="stroke: #000000; stroke-width: 0.8"/>
      </g>
     </g>
     <g id="text_3">
      <!-- 7500 -->
      <g transform="translate(137.882411 322.182437)scale(0.1 -0.1)">
       <defs>
        <path id="DejaVuSans-37" d="M 525 4666 
L 3525 4666 
L 3525 4397 
L 1831 0 
L 1172 0 
L 2766 4134 
L 525 4134 
L 525 4666 
z
" transform="scale(0.015625)"/>
       </defs>
       <use xlink:href="#DejaVuSans-37"/>
       <use xlink:href="#DejaVuSans-35" x="63.623047"/>
       <use xlink:href="#DejaVuSans-30" x="127.246094"/>
       <use xlink:href="#DejaVuSans-30" x="190.869141"/>
      </g>
     </g>
    </g>
    <g id="xtick_4">
     <g id="line2d_7">
      <path d="M 193.260013 307.584 
L 193.260013 41.472 
" clip-path="url(#p6cc3826e4e)" style="fill: none; stroke-dasharray: 2.96,1.28; stroke-dashoffset: 0; stroke: #b0b0b0; stroke-width: 0.8"/>
     </g>
     <g id="line2d_8">
      <g>
       <use xlink:href="#ma76cd30e72" x="193.260013" y="307.584" style="stroke: #000000; stroke-width: 0.8"/>
      </g>
     </g>
     <g id="text_4">
      <!-- 10000 -->
      <g transform="translate(177.353763 322.182437)scale(0.1 -0.1)">
       <defs>
        <path id="DejaVuSans-31" d="M 794 531 
L 1825 531 
L 1825 4091 
L 703 3866 
L 703 4441 
L 1819 4666 
L 2450 4666 
L 2450 531 
L 3481 531 
L 3481 0 
L 794 0 
L 794 531 
z
" transform="scale(0.015625)"/>
       </defs>
       <use xlink:href="#DejaVuSans-31"/>
       <use xlink:href="#DejaVuSans-30" x="63.623047"/>
       <use xlink:href="#DejaVuSans-30" x="127.246094"/>
       <use xlink:href="#DejaVuSans-30" x="190.869141"/>
       <use xlink:href="#DejaVuSans-30" x="254.492188"/>
      </g>
     </g>
    </g>
    <g id="xtick_5">
     <g id="line2d_9">
      <path d="M 235.912615 307.584 
L 235.912615 41.472 
" clip-path="url(#p6cc3826e4e)" style="fill: none; stroke-dasharray: 2.96,1.28; stroke-dashoffset: 0; stroke: #b0b0b0; stroke-width: 0.8"/>
     </g>
     <g id="line2d_10">
      <g>
       <use xlink:href="#ma76cd30e72" x="235.912615" y="307.584" style="stroke: #000000; stroke-width: 0.8"/>
      </g>
     </g>
     <g id="text_5">
      <!-- 12500 -->
      <g transform="translate(220.006365 322.182437)scale(0.1 -0.1)">
       <use xlink:href="#DejaVuSans-31"/>
       <use xlink:href="#DejaVuSans-32" x="63.623047"/>
       <use xlink:href="#DejaVuSans-35" x="127.246094"/>
       <use xlink:href="#DejaVuSans-30" x="190.869141"/>
       <use xlink:href="#DejaVuSans-30" x="254.492188"/>
      </g>
     </g>
    </g>
    <g id="xtick_6">
     <g id="line2d_11">
      <path d="M 278.565217 307.584 
L 278.565217 41.472 
" clip-path="url(#p6cc3826e4e)" style="fill: none; stroke-dasharray: 2.96,1.28; stroke-dashoffset: 0; stroke: #b0b0b0; stroke-width: 0.8"/>
     </g>
     <g id="line2d_12">
      <g>
       <use xlink:href="#ma76cd30e72" x="278.565217" y="307.584" style="stroke: #000000; stroke-width: 0.8"/>
      </g>
     </g>
     <g id="text_6">
      <!-- 15000 -->
      <g transform="translate(262.658967 322.182437)scale(0.1 -0.1)">
       <use xlink:href="#DejaVuSans-31"/>
       <use xlink:href="#DejaVuSans-35" x="63.623047"/>
       <use xlink:href="#DejaVuSans-30" x="127.246094"/>
       <use xlink:href="#DejaVuSans-30" x="190.869141"/>
       <use xlink:href="#DejaVuSans-30" x="254.492188"/>
      </g>
     </g>
    </g>
    <g id="xtick_7">
     <g id="line2d_13">
      <path d="M 321.217819 307.584 
L 321.217819 41.472 
" clip-path="url(#p6cc3826e4e)" style="fill: none; stroke-dasharray: 2.96,1.28; stroke-dashoffset: 0; stroke: #b0b0b0; stroke-width: 0.8"/>
     </g>
     <g id="line2d_14">
      <g>
       <use xlink:href="#ma76cd30e72" x="321.217819" y="307.584" style="stroke: #000000; stroke-width: 0.8"/>
      </g>
     </g>
     <g id="text_7">
      <!-- 17500 -->
      <g transform="translate(305.311569 322.182437)scale(0.1 -0.1)">
       <use xlink:href="#DejaVuSans-31"/>
       <use xlink:href="#DejaVuSans-37" x="63.623047"/>
       <use xlink:href="#DejaVuSans-35" x="127.246094"/>
       <use xlink:href="#DejaVuSans-30" x="190.869141"/>
       <use xlink:href="#DejaVuSans-30" x="254.492188"/>
      </g>
     </g>
    </g>
    <g id="xtick_8">
     <g id="line2d_15">
      <path d="M 363.870421 307.584 
L 363.870421 41.472 
" clip-path="url(#p6cc3826e4e)" style="fill: none; stroke-dasharray: 2.96,1.28; stroke-dashoffset: 0; stroke: #b0b0b0; stroke-width: 0.8"/>
     </g>
     <g id="line2d_16">
      <g>
       <use xlink:href="#ma76cd30e72" x="363.870421" y="307.584" style="stroke: #000000; stroke-width: 0.8"/>
      </g>
     </g>
     <g id="text_8">
      <!-- 20000 -->
      <g transform="translate(347.964171 322.182437)scale(0.1 -0.1)">
       <use xlink:href="#DejaVuSans-32"/>
       <use xlink:href="#DejaVuSans-30" x="63.623047"/>
       <use xlink:href="#DejaVuSans-30" x="127.246094"/>
       <use xlink:href="#DejaVuSans-30" x="190.869141"/>
       <use xlink:href="#DejaVuSans-30" x="254.492188"/>
      </g>
     </g>
    </g>
    <g id="xtick_9">
     <g id="line2d_17">
      <path d="M 406.523023 307.584 
L 406.523023 41.472 
" clip-path="url(#p6cc3826e4e)" style="fill: none; stroke-dasharray: 2.96,1.28; stroke-dashoffset: 0; stroke: #b0b0b0; stroke-width: 0.8"/>
     </g>
     <g id="line2d_18">
      <g>
       <use xlink:href="#ma76cd30e72" x="406.523023" y="307.584" style="stroke: #000000; stroke-width: 0.8"/>
      </g>
     </g>
     <g id="text_9">
      <!-- 22500 -->
      <g transform="translate(390.616773 322.182437)scale(0.1 -0.1)">
       <use xlink:href="#DejaVuSans-32"/>
       <use xlink:href="#DejaVuSans-32" x="63.623047"/>
       <use xlink:href="#DejaVuSans-35" x="127.246094"/>
       <use xlink:href="#DejaVuSans-30" x="190.869141"/>
       <use xlink:href="#DejaVuSans-30" x="254.492188"/>
      </g>
     </g>
    </g>
    <g id="text_10">
     <!-- Learned Episodes -->
     <g transform="translate(192.102187 335.860562)scale(0.1 -0.1)">
      <defs>
       <path id="DejaVuSans-4c" d="M 628 4666 
L 1259 4666 
L 1259 531 
L 3531 531 
L 3531 0 
L 628 0 
L 628 4666 
z
" transform="scale(0.015625)"/>
       <path id="DejaVuSans-65" d="M 3597 1894 
L 3597 1613 
L 953 1613 
Q 991 1019 1311 708 
Q 1631 397 2203 397 
Q 2534 397 2845 478 
Q 3156 559 3463 722 
L 3463 178 
Q 3153 47 2828 -22 
Q 2503 -91 2169 -91 
Q 1331 -91 842 396 
Q 353 884 353 1716 
Q 353 2575 817 3079 
Q 1281 3584 2069 3584 
Q 2775 3584 3186 3129 
Q 3597 2675 3597 1894 
z
M 3022 2063 
Q 3016 2534 2758 2815 
Q 2500 3097 2075 3097 
Q 1594 3097 1305 2825 
Q 1016 2553 972 2059 
L 3022 2063 
z
" transform="scale(0.015625)"/>
       <path id="DejaVuSans-61" d="M 2194 1759 
Q 1497 1759 1228 1600 
Q 959 1441 959 1056 
Q 959 750 1161 570 
Q 1363 391 1709 391 
Q 2188 391 2477 730 
Q 2766 1069 2766 1631 
L 2766 1759 
L 2194 1759 
z
M 3341 1997 
L 3341 0 
L 2766 0 
L 2766 531 
Q 2569 213 2275 61 
Q 1981 -91 1556 -91 
Q 1019 -91 701 211 
Q 384 513 384 1019 
Q 384 1609 779 1909 
Q 1175 2209 1959 2209 
L 2766 2209 
L 2766 2266 
Q 2766 2663 2505 2880 
Q 2244 3097 1772 3097 
Q 1472 3097 1187 3025 
Q 903 2953 641 2809 
L 641 3341 
Q 956 3463 1253 3523 
Q 1550 3584 1831 3584 
Q 2591 3584 2966 3190 
Q 3341 2797 3341 1997 
z
" transform="scale(0.015625)"/>
       <path id="DejaVuSans-72" d="M 2631 2963 
Q 2534 3019 2420 3045 
Q 2306 3072 2169 3072 
Q 1681 3072 1420 2755 
Q 1159 2438 1159 1844 
L 1159 0 
L 581 0 
L 581 3500 
L 1159 3500 
L 1159 2956 
Q 1341 3275 1631 3429 
Q 1922 3584 2338 3584 
Q 2397 3584 2469 3576 
Q 2541 3569 2628 3553 
L 2631 2963 
z
" transform="scale(0.015625)"/>
       <path id="DejaVuSans-6e" d="M 3513 2113 
L 3513 0 
L 2938 0 
L 2938 2094 
Q 2938 2591 2744 2837 
Q 2550 3084 2163 3084 
Q 1697 3084 1428 2787 
Q 1159 2491 1159 1978 
L 1159 0 
L 581 0 
L 581 3500 
L 1159 3500 
L 1159 2956 
Q 1366 3272 1645 3428 
Q 1925 3584 2291 3584 
Q 2894 3584 3203 3211 
Q 3513 2838 3513 2113 
z
" transform="scale(0.015625)"/>
       <path id="DejaVuSans-64" d="M 2906 2969 
L 2906 4863 
L 3481 4863 
L 3481 0 
L 2906 0 
L 2906 525 
Q 2725 213 2448 61 
Q 2172 -91 1784 -91 
Q 1150 -91 751 415 
Q 353 922 353 1747 
Q 353 2572 751 3078 
Q 1150 3584 1784 3584 
Q 2172 3584 2448 3432 
Q 2725 3281 2906 2969 
z
M 947 1747 
Q 947 1113 1208 752 
Q 1469 391 1925 391 
Q 2381 391 2643 752 
Q 2906 1113 2906 1747 
Q 2906 2381 2643 2742 
Q 2381 3103 1925 3103 
Q 1469 3103 1208 2742 
Q 947 2381 947 1747 
z
" transform="scale(0.015625)"/>
       <path id="DejaVuSans-20" transform="scale(0.015625)"/>
       <path id="DejaVuSans-45" d="M 628 4666 
L 3578 4666 
L 3578 4134 
L 1259 4134 
L 1259 2753 
L 3481 2753 
L 3481 2222 
L 1259 2222 
L 1259 531 
L 3634 531 
L 3634 0 
L 628 0 
L 628 4666 
z
" transform="scale(0.015625)"/>
       <path id="DejaVuSans-70" d="M 1159 525 
L 1159 -1331 
L 581 -1331 
L 581 3500 
L 1159 3500 
L 1159 2969 
Q 1341 3281 1617 3432 
Q 1894 3584 2278 3584 
Q 2916 3584 3314 3078 
Q 3713 2572 3713 1747 
Q 3713 922 3314 415 
Q 2916 -91 2278 -91 
Q 1894 -91 1617 61 
Q 1341 213 1159 525 
z
M 3116 1747 
Q 3116 2381 2855 2742 
Q 2594 3103 2138 3103 
Q 1681 3103 1420 2742 
Q 1159 2381 1159 1747 
Q 1159 1113 1420 752 
Q 1681 391 2138 391 
Q 2594 391 2855 752 
Q 3116 1113 3116 1747 
z
" transform="scale(0.015625)"/>
       <path id="DejaVuSans-69" d="M 603 3500 
L 1178 3500 
L 1178 0 
L 603 0 
L 603 3500 
z
M 603 4863 
L 1178 4863 
L 1178 4134 
L 603 4134 
L 603 4863 
z
" transform="scale(0.015625)"/>
       <path id="DejaVuSans-73" d="M 2834 3397 
L 2834 2853 
Q 2591 2978 2328 3040 
Q 2066 3103 1784 3103 
Q 1356 3103 1142 2972 
Q 928 2841 928 2578 
Q 928 2378 1081 2264 
Q 1234 2150 1697 2047 
L 1894 2003 
Q 2506 1872 2764 1633 
Q 3022 1394 3022 966 
Q 3022 478 2636 193 
Q 2250 -91 1575 -91 
Q 1294 -91 989 -36 
Q 684 19 347 128 
L 347 722 
Q 666 556 975 473 
Q 1284 391 1588 391 
Q 1994 391 2212 530 
Q 2431 669 2431 922 
Q 2431 1156 2273 1281 
Q 2116 1406 1581 1522 
L 1381 1569 
Q 847 1681 609 1914 
Q 372 2147 372 2553 
Q 372 3047 722 3315 
Q 1072 3584 1716 3584 
Q 2034 3584 2315 3537 
Q 2597 3491 2834 3397 
z
" transform="scale(0.015625)"/>
       <path id="DejaVuSans-6f" d="M 1959 3097 
Q 1497 3097 1228 2736 
Q 959 2375 959 1747 
Q 959 1119 1226 758 
Q 1494 397 1959 397 
Q 2419 397 2687 759 
Q 2956 1122 2956 1747 
Q 2956 2369 2687 2733 
Q 2419 3097 1959 3097 
z
M 1959 3584 
Q 2709 3584 3137 3096 
Q 3566 2609 3566 1747 
Q 3566 888 3137 398 
Q 2709 -91 1959 -91 
Q 1206 -91 779 398 
Q 353 888 353 1747 
Q 353 2609 779 3096 
Q 1206 3584 1959 3584 
z
" transform="scale(0.015625)"/>
      </defs>
      <use xlink:href="#DejaVuSans-4c"/>
      <use xlink:href="#DejaVuSans-65" x="53.962891"/>
      <use xlink:href="#DejaVuSans-61" x="115.486328"/>
      <use xlink:href="#DejaVuSans-72" x="176.765625"/>
      <use xlink:href="#DejaVuSans-6e" x="216.128906"/>
      <use xlink:href="#DejaVuSans-65" x="279.507812"/>
      <use xlink:href="#DejaVuSans-64" x="341.03125"/>
      <use xlink:href="#DejaVuSans-20" x="404.507812"/>
      <use xlink:href="#DejaVuSans-45" x="436.294922"/>
      <use xlink:href="#DejaVuSans-70" x="499.478516"/>
      <use xlink:href="#DejaVuSans-69" x="562.955078"/>
      <use xlink:href="#DejaVuSans-73" x="590.738281"/>
      <use xlink:href="#DejaVuSans-6f" x="642.837891"/>
      <use xlink:href="#DejaVuSans-64" x="704.019531"/>
      <use xlink:href="#DejaVuSans-65" x="767.496094"/>
      <use xlink:href="#DejaVuSans-73" x="829.019531"/>
     </g>
    </g>
   </g>
   <g id="matplotlib.axis_2">
    <g id="ytick_1">
     <g id="line2d_19">
      <path d="M 57.6 283.541333 
L 414.72 283.541333 
" clip-path="url(#p6cc3826e4e)" style="fill: none; stroke-dasharray: 2.96,1.28; stroke-dashoffset: 0; stroke: #b0b0b0; stroke-width: 0.8"/>
     </g>
     <g id="line2d_20">
      <defs>
       <path id="m1af95c5fa7" d="M 0 0 
L -3.5 0 
" style="stroke: #000000; stroke-width: 0.8"/>
      </defs>
      <g>
       <use xlink:href="#m1af95c5fa7" x="57.6" y="283.541333" style="stroke: #000000; stroke-width: 0.8"/>
      </g>
     </g>
     <g id="text_11">
      <!-- 10 -->
      <g transform="translate(37.875 287.340552)scale(0.1 -0.1)">
       <use xlink:href="#DejaVuSans-31"/>
       <use xlink:href="#DejaVuSans-30" x="63.623047"/>
      </g>
     </g>
    </g>
    <g id="ytick_2">
     <g id="line2d_21">
      <path d="M 57.6 253.674667 
L 414.72 253.674667 
" clip-path="url(#p6cc3826e4e)" style="fill: none; stroke-dasharray: 2.96,1.28; stroke-dashoffset: 0; stroke: #b0b0b0; stroke-width: 0.8"/>
     </g>
     <g id="line2d_22">
      <g>
       <use xlink:href="#m1af95c5fa7" x="57.6" y="253.674667" style="stroke: #000000; stroke-width: 0.8"/>
      </g>
     </g>
     <g id="text_12">
      <!-- 20 -->
      <g transform="translate(37.875 257.473885)scale(0.1 -0.1)">
       <use xlink:href="#DejaVuSans-32"/>
       <use xlink:href="#DejaVuSans-30" x="63.623047"/>
      </g>
     </g>
    </g>
    <g id="ytick_3">
     <g id="line2d_23">
      <path d="M 57.6 223.808 
L 414.72 223.808 
" clip-path="url(#p6cc3826e4e)" style="fill: none; stroke-dasharray: 2.96,1.28; stroke-dashoffset: 0; stroke: #b0b0b0; stroke-width: 0.8"/>
     </g>
     <g id="line2d_24">
      <g>
       <use xlink:href="#m1af95c5fa7" x="57.6" y="223.808" style="stroke: #000000; stroke-width: 0.8"/>
      </g>
     </g>
     <g id="text_13">
      <!-- 30 -->
      <g transform="translate(37.875 227.607219)scale(0.1 -0.1)">
       <defs>
        <path id="DejaVuSans-33" d="M 2597 2516 
Q 3050 2419 3304 2112 
Q 3559 1806 3559 1356 
Q 3559 666 3084 287 
Q 2609 -91 1734 -91 
Q 1441 -91 1130 -33 
Q 819 25 488 141 
L 488 750 
Q 750 597 1062 519 
Q 1375 441 1716 441 
Q 2309 441 2620 675 
Q 2931 909 2931 1356 
Q 2931 1769 2642 2001 
Q 2353 2234 1838 2234 
L 1294 2234 
L 1294 2753 
L 1863 2753 
Q 2328 2753 2575 2939 
Q 2822 3125 2822 3475 
Q 2822 3834 2567 4026 
Q 2313 4219 1838 4219 
Q 1578 4219 1281 4162 
Q 984 4106 628 3988 
L 628 4550 
Q 988 4650 1302 4700 
Q 1616 4750 1894 4750 
Q 2613 4750 3031 4423 
Q 3450 4097 3450 3541 
Q 3450 3153 3228 2886 
Q 3006 2619 2597 2516 
z
" transform="scale(0.015625)"/>
       </defs>
       <use xlink:href="#DejaVuSans-33"/>
       <use xlink:href="#DejaVuSans-30" x="63.623047"/>
      </g>
     </g>
    </g>
    <g id="ytick_4">
     <g id="line2d_25">
      <path d="M 57.6 193.941333 
L 414.72 193.941333 
" clip-path="url(#p6cc3826e4e)" style="fill: none; stroke-dasharray: 2.96,1.28; stroke-dashoffset: 0; stroke: #b0b0b0; stroke-width: 0.8"/>
     </g>
     <g id="line2d_26">
      <g>
       <use xlink:href="#m1af95c5fa7" x="57.6" y="193.941333" style="stroke: #000000; stroke-width: 0.8"/>
      </g>
     </g>
     <g id="text_14">
      <!-- 40 -->
      <g transform="translate(37.875 197.740552)scale(0.1 -0.1)">
       <defs>
        <path id="DejaVuSans-34" d="M 2419 4116 
L 825 1625 
L 2419 1625 
L 2419 4116 
z
M 2253 4666 
L 3047 4666 
L 3047 1625 
L 3713 1625 
L 3713 1100 
L 3047 1100 
L 3047 0 
L 2419 0 
L 2419 1100 
L 313 1100 
L 313 1709 
L 2253 4666 
z
" transform="scale(0.015625)"/>
       </defs>
       <use xlink:href="#DejaVuSans-34"/>
       <use xlink:href="#DejaVuSans-30" x="63.623047"/>
      </g>
     </g>
    </g>
    <g id="ytick_5">
     <g id="line2d_27">
      <path d="M 57.6 164.074667 
L 414.72 164.074667 
" clip-path="url(#p6cc3826e4e)" style="fill: none; stroke-dasharray: 2.96,1.28; stroke-dashoffset: 0; stroke: #b0b0b0; stroke-width: 0.8"/>
     </g>
     <g id="line2d_28">
      <g>
       <use xlink:href="#m1af95c5fa7" x="57.6" y="164.074667" style="stroke: #000000; stroke-width: 0.8"/>
      </g>
     </g>
     <g id="text_15">
      <!-- 50 -->
      <g transform="translate(37.875 167.873885)scale(0.1 -0.1)">
       <use xlink:href="#DejaVuSans-35"/>
       <use xlink:href="#DejaVuSans-30" x="63.623047"/>
      </g>
     </g>
    </g>
    <g id="ytick_6">
     <g id="line2d_29">
      <path d="M 57.6 134.208 
L 414.72 134.208 
" clip-path="url(#p6cc3826e4e)" style="fill: none; stroke-dasharray: 2.96,1.28; stroke-dashoffset: 0; stroke: #b0b0b0; stroke-width: 0.8"/>
     </g>
     <g id="line2d_30">
      <g>
       <use xlink:href="#m1af95c5fa7" x="57.6" y="134.208" style="stroke: #000000; stroke-width: 0.8"/>
      </g>
     </g>
     <g id="text_16">
      <!-- 60 -->
      <g transform="translate(37.875 138.007219)scale(0.1 -0.1)">
       <defs>
        <path id="DejaVuSans-36" d="M 2113 2584 
Q 1688 2584 1439 2293 
Q 1191 2003 1191 1497 
Q 1191 994 1439 701 
Q 1688 409 2113 409 
Q 2538 409 2786 701 
Q 3034 994 3034 1497 
Q 3034 2003 2786 2293 
Q 2538 2584 2113 2584 
z
M 3366 4563 
L 3366 3988 
Q 3128 4100 2886 4159 
Q 2644 4219 2406 4219 
Q 1781 4219 1451 3797 
Q 1122 3375 1075 2522 
Q 1259 2794 1537 2939 
Q 1816 3084 2150 3084 
Q 2853 3084 3261 2657 
Q 3669 2231 3669 1497 
Q 3669 778 3244 343 
Q 2819 -91 2113 -91 
Q 1303 -91 875 529 
Q 447 1150 447 2328 
Q 447 3434 972 4092 
Q 1497 4750 2381 4750 
Q 2619 4750 2861 4703 
Q 3103 4656 3366 4563 
z
" transform="scale(0.015625)"/>
       </defs>
       <use xlink:href="#DejaVuSans-36"/>
       <use xlink:href="#DejaVuSans-30" x="63.623047"/>
      </g>
     </g>
    </g>
    <g id="ytick_7">
     <g id="line2d_31">
      <path d="M 57.6 104.341333 
L 414.72 104.341333 
" clip-path="url(#p6cc3826e4e)" style="fill: none; stroke-dasharray: 2.96,1.28; stroke-dashoffset: 0; stroke: #b0b0b0; stroke-width: 0.8"/>
     </g>
     <g id="line2d_32">
      <g>
       <use xlink:href="#m1af95c5fa7" x="57.6" y="104.341333" style="stroke: #000000; stroke-width: 0.8"/>
      </g>
     </g>
     <g id="text_17">
      <!-- 70 -->
      <g transform="translate(37.875 108.140552)scale(0.1 -0.1)">
       <use xlink:href="#DejaVuSans-37"/>
       <use xlink:href="#DejaVuSans-30" x="63.623047"/>
      </g>
     </g>
    </g>
    <g id="ytick_8">
     <g id="line2d_33">
      <path d="M 57.6 74.474667 
L 414.72 74.474667 
" clip-path="url(#p6cc3826e4e)" style="fill: none; stroke-dasharray: 2.96,1.28; stroke-dashoffset: 0; stroke: #b0b0b0; stroke-width: 0.8"/>
     </g>
     <g id="line2d_34">
      <g>
       <use xlink:href="#m1af95c5fa7" x="57.6" y="74.474667" style="stroke: #000000; stroke-width: 0.8"/>
      </g>
     </g>
     <g id="text_18">
      <!-- 80 -->
      <g transform="translate(37.875 78.273885)scale(0.1 -0.1)">
       <defs>
        <path id="DejaVuSans-38" d="M 2034 2216 
Q 1584 2216 1326 1975 
Q 1069 1734 1069 1313 
Q 1069 891 1326 650 
Q 1584 409 2034 409 
Q 2484 409 2743 651 
Q 3003 894 3003 1313 
Q 3003 1734 2745 1975 
Q 2488 2216 2034 2216 
z
M 1403 2484 
Q 997 2584 770 2862 
Q 544 3141 544 3541 
Q 544 4100 942 4425 
Q 1341 4750 2034 4750 
Q 2731 4750 3128 4425 
Q 3525 4100 3525 3541 
Q 3525 3141 3298 2862 
Q 3072 2584 2669 2484 
Q 3125 2378 3379 2068 
Q 3634 1759 3634 1313 
Q 3634 634 3220 271 
Q 2806 -91 2034 -91 
Q 1263 -91 848 271 
Q 434 634 434 1313 
Q 434 1759 690 2068 
Q 947 2378 1403 2484 
z
M 1172 3481 
Q 1172 3119 1398 2916 
Q 1625 2713 2034 2713 
Q 2441 2713 2670 2916 
Q 2900 3119 2900 3481 
Q 2900 3844 2670 4047 
Q 2441 4250 2034 4250 
Q 1625 4250 1398 4047 
Q 1172 3844 1172 3481 
z
" transform="scale(0.015625)"/>
       </defs>
       <use xlink:href="#DejaVuSans-38"/>
       <use xlink:href="#DejaVuSans-30" x="63.623047"/>
      </g>
     </g>
    </g>
    <g id="ytick_9">
     <g id="line2d_35">
      <path d="M 57.6 44.608 
L 414.72 44.608 
" clip-path="url(#p6cc3826e4e)" style="fill: none; stroke-dasharray: 2.96,1.28; stroke-dashoffset: 0; stroke: #b0b0b0; stroke-width: 0.8"/>
     </g>
     <g id="line2d_36">
      <g>
       <use xlink:href="#m1af95c5fa7" x="57.6" y="44.608" style="stroke: #000000; stroke-width: 0.8"/>
      </g>
     </g>
     <g id="text_19">
      <!-- 90 -->
      <g transform="translate(37.875 48.407219)scale(0.1 -0.1)">
       <defs>
        <path id="DejaVuSans-39" d="M 703 97 
L 703 672 
Q 941 559 1184 500 
Q 1428 441 1663 441 
Q 2288 441 2617 861 
Q 2947 1281 2994 2138 
Q 2813 1869 2534 1725 
Q 2256 1581 1919 1581 
Q 1219 1581 811 2004 
Q 403 2428 403 3163 
Q 403 3881 828 4315 
Q 1253 4750 1959 4750 
Q 2769 4750 3195 4129 
Q 3622 3509 3622 2328 
Q 3622 1225 3098 567 
Q 2575 -91 1691 -91 
Q 1453 -91 1209 -44 
Q 966 3 703 97 
z
M 1959 2075 
Q 2384 2075 2632 2365 
Q 2881 2656 2881 3163 
Q 2881 3666 2632 3958 
Q 2384 4250 1959 4250 
Q 1534 4250 1286 3958 
Q 1038 3666 1038 3163 
Q 1038 2656 1286 2365 
Q 1534 2075 1959 2075 
z
" transform="scale(0.015625)"/>
       </defs>
       <use xlink:href="#DejaVuSans-39"/>
       <use xlink:href="#DejaVuSans-30" x="63.623047"/>
      </g>
     </g>
    </g>
    <g id="text_20">
     <!-- Reward Density -->
     <g transform="translate(31.795312 213.74675)rotate(-90)scale(0.1 -0.1)">
      <defs>
       <path id="DejaVuSans-52" d="M 2841 2188 
Q 3044 2119 3236 1894 
Q 3428 1669 3622 1275 
L 4263 0 
L 3584 0 
L 2988 1197 
Q 2756 1666 2539 1819 
Q 2322 1972 1947 1972 
L 1259 1972 
L 1259 0 
L 628 0 
L 628 4666 
L 2053 4666 
Q 2853 4666 3247 4331 
Q 3641 3997 3641 3322 
Q 3641 2881 3436 2590 
Q 3231 2300 2841 2188 
z
M 1259 4147 
L 1259 2491 
L 2053 2491 
Q 2509 2491 2742 2702 
Q 2975 2913 2975 3322 
Q 2975 3731 2742 3939 
Q 2509 4147 2053 4147 
L 1259 4147 
z
" transform="scale(0.015625)"/>
       <path id="DejaVuSans-77" d="M 269 3500 
L 844 3500 
L 1563 769 
L 2278 3500 
L 2956 3500 
L 3675 769 
L 4391 3500 
L 4966 3500 
L 4050 0 
L 3372 0 
L 2619 2869 
L 1863 0 
L 1184 0 
L 269 3500 
z
" transform="scale(0.015625)"/>
       <path id="DejaVuSans-44" d="M 1259 4147 
L 1259 519 
L 2022 519 
Q 2988 519 3436 956 
Q 3884 1394 3884 2338 
Q 3884 3275 3436 3711 
Q 2988 4147 2022 4147 
L 1259 4147 
z
M 628 4666 
L 1925 4666 
Q 3281 4666 3915 4102 
Q 4550 3538 4550 2338 
Q 4550 1131 3912 565 
Q 3275 0 1925 0 
L 628 0 
L 628 4666 
z
" transform="scale(0.015625)"/>
       <path id="DejaVuSans-74" d="M 1172 4494 
L 1172 3500 
L 2356 3500 
L 2356 3053 
L 1172 3053 
L 1172 1153 
Q 1172 725 1289 603 
Q 1406 481 1766 481 
L 2356 481 
L 2356 0 
L 1766 0 
Q 1100 0 847 248 
Q 594 497 594 1153 
L 594 3053 
L 172 3053 
L 172 3500 
L 594 3500 
L 594 4494 
L 1172 4494 
z
" transform="scale(0.015625)"/>
       <path id="DejaVuSans-79" d="M 2059 -325 
Q 1816 -950 1584 -1140 
Q 1353 -1331 966 -1331 
L 506 -1331 
L 506 -850 
L 844 -850 
Q 1081 -850 1212 -737 
Q 1344 -625 1503 -206 
L 1606 56 
L 191 3500 
L 800 3500 
L 1894 763 
L 2988 3500 
L 3597 3500 
L 2059 -325 
z
" transform="scale(0.015625)"/>
      </defs>
      <use xlink:href="#DejaVuSans-52"/>
      <use xlink:href="#DejaVuSans-65" x="64.982422"/>
      <use xlink:href="#DejaVuSans-77" x="126.505859"/>
      <use xlink:href="#DejaVuSans-61" x="208.292969"/>
      <use xlink:href="#DejaVuSans-72" x="269.572266"/>
      <use xlink:href="#DejaVuSans-64" x="308.935547"/>
      <use xlink:href="#DejaVuSans-20" x="372.412109"/>
      <use xlink:href="#DejaVuSans-44" x="404.199219"/>
      <use xlink:href="#DejaVuSans-65" x="481.201172"/>
      <use xlink:href="#DejaVuSans-6e" x="542.724609"/>
      <use xlink:href="#DejaVuSans-73" x="606.103516"/>
      <use xlink:href="#DejaVuSans-69" x="658.203125"/>
      <use xlink:href="#DejaVuSans-74" x="685.986328"/>
      <use xlink:href="#DejaVuSans-79" x="725.195312"/>
     </g>
    </g>
   </g>
   <g id="LineCollection_1">
    <path d="M 90.893768 190.554453 
L 125.01585 190.554453 
" clip-path="url(#p6cc3826e4e)" style="fill: none; stroke: #1f77b4; stroke-width: 1.5"/>
    <path d="M 176.198972 223.043413 
L 210.321054 223.043413 
" clip-path="url(#p6cc3826e4e)" style="fill: none; stroke: #1f77b4; stroke-width: 1.5"/>
    <path d="M 261.504176 224.86528 
L 295.626258 224.86528 
" clip-path="url(#p6cc3826e4e)" style="fill: none; stroke: #1f77b4; stroke-width: 1.5"/>
    <path d="M 346.80938 224.4352 
L 380.931462 224.4352 
" clip-path="url(#p6cc3826e4e)" style="fill: none; stroke: #1f77b4; stroke-width: 1.5"/>
    <path d="M 347.30415 222.129493 
L 381.426232 222.129493 
" clip-path="url(#p6cc3826e4e)" style="fill: none; stroke: #1f77b4; stroke-width: 1.5"/>
   </g>
   <g id="LineCollection_2">
    <path d="M 90.893768 53.568 
L 125.01585 53.568 
" clip-path="url(#p6cc3826e4e)" style="fill: none; stroke: #1f77b4; stroke-width: 1.5"/>
    <path d="M 176.198972 125.248 
L 210.321054 125.248 
" clip-path="url(#p6cc3826e4e)" style="fill: none; stroke: #1f77b4; stroke-width: 1.5"/>
    <path d="M 261.504176 128.234667 
L 295.626258 128.234667 
" clip-path="url(#p6cc3826e4e)" style="fill: none; stroke: #1f77b4; stroke-width: 1.5"/>
    <path d="M 346.80938 143.168 
L 380.931462 143.168 
" clip-path="url(#p6cc3826e4e)" style="fill: none; stroke: #1f77b4; stroke-width: 1.5"/>
    <path d="M 347.30415 137.194667 
L 381.426232 137.194667 
" clip-path="url(#p6cc3826e4e)" style="fill: none; stroke: #1f77b4; stroke-width: 1.5"/>
   </g>
   <g id="LineCollection_3">
    <path d="M 90.893768 265.621333 
L 125.01585 265.621333 
" clip-path="url(#p6cc3826e4e)" style="fill: none; stroke: #1f77b4; stroke-width: 1.5"/>
    <path d="M 176.198972 289.514667 
L 210.321054 289.514667 
" clip-path="url(#p6cc3826e4e)" style="fill: none; stroke: #1f77b4; stroke-width: 1.5"/>
    <path d="M 261.504176 295.488 
L 295.626258 295.488 
" clip-path="url(#p6cc3826e4e)" style="fill: none; stroke: #1f77b4; stroke-width: 1.5"/>
    <path d="M 346.80938 289.514667 
L 380.931462 289.514667 
" clip-path="url(#p6cc3826e4e)" style="fill: none; stroke: #1f77b4; stroke-width: 1.5"/>
    <path d="M 347.30415 283.541333 
L 381.426232 283.541333 
" clip-path="url(#p6cc3826e4e)" style="fill: none; stroke: #1f77b4; stroke-width: 1.5"/>
   </g>
   <g id="LineCollection_4">
    <path d="M 107.954809 265.621333 
L 107.954809 53.568 
" clip-path="url(#p6cc3826e4e)" style="fill: none; stroke: #1f77b4; stroke-width: 1.5"/>
    <path d="M 193.260013 289.514667 
L 193.260013 125.248 
" clip-path="url(#p6cc3826e4e)" style="fill: none; stroke: #1f77b4; stroke-width: 1.5"/>
    <path d="M 278.565217 295.488 
L 278.565217 128.234667 
" clip-path="url(#p6cc3826e4e)" style="fill: none; stroke: #1f77b4; stroke-width: 1.5"/>
    <path d="M 363.870421 289.514667 
L 363.870421 143.168 
" clip-path="url(#p6cc3826e4e)" style="fill: none; stroke: #1f77b4; stroke-width: 1.5"/>
    <path d="M 364.365191 283.541333 
L 364.365191 137.194667 
" clip-path="url(#p6cc3826e4e)" style="fill: none; stroke: #1f77b4; stroke-width: 1.5"/>
   </g>
   <g id="line2d_37">
    <path d="M 107.954809 190.554453 
L 193.260013 223.043413 
L 278.565217 224.86528 
L 363.870421 224.4352 
L 364.365191 222.129493 
" clip-path="url(#p6cc3826e4e)" style="fill: none; stroke: #4682b4; stroke-width: 1.5; stroke-linecap: square"/>
   </g>
   <g id="line2d_38">
    <path d="M 107.954809 190.554453 
L 193.260013 223.043413 
L 278.565217 224.86528 
L 363.870421 224.4352 
L 364.365191 222.129493 
" clip-path="url(#p6cc3826e4e)" style="fill: none; stroke: #4682b4; stroke-width: 1.5; stroke-linecap: square"/>
   </g>
   <g id="patch_3">
    <path d="M 57.6 307.584 
L 57.6 41.472 
" style="fill: none; stroke: #000000; stroke-width: 0.8; stroke-linejoin: miter; stroke-linecap: square"/>
   </g>
   <g id="patch_4">
    <path d="M 414.72 307.584 
L 414.72 41.472 
" style="fill: none; stroke: #000000; stroke-width: 0.8; stroke-linejoin: miter; stroke-linecap: square"/>
   </g>
   <g id="patch_5">
    <path d="M 57.6 307.584 
L 414.72 307.584 
" style="fill: none; stroke: #000000; stroke-width: 0.8; stroke-linejoin: miter; stroke-linecap: square"/>
   </g>
   <g id="patch_6">
    <path d="M 57.6 41.472 
L 414.72 41.472 
" style="fill: none; stroke: #000000; stroke-width: 0.8; stroke-linejoin: miter; stroke-linecap: square"/>
   </g>
   <g id="text_21">
    <!-- Violinplot for progress of owner/rebuys -->
    <g transform="translate(119.788125 35.472)scale(0.12 -0.12)">
     <defs>
      <path id="DejaVuSans-56" d="M 1831 0 
L 50 4666 
L 709 4666 
L 2188 738 
L 3669 4666 
L 4325 4666 
L 2547 0 
L 1831 0 
z
" transform="scale(0.015625)"/>
      <path id="DejaVuSans-6c" d="M 603 4863 
L 1178 4863 
L 1178 0 
L 603 0 
L 603 4863 
z
" transform="scale(0.015625)"/>
      <path id="DejaVuSans-66" d="M 2375 4863 
L 2375 4384 
L 1825 4384 
Q 1516 4384 1395 4259 
Q 1275 4134 1275 3809 
L 1275 3500 
L 2222 3500 
L 2222 3053 
L 1275 3053 
L 1275 0 
L 697 0 
L 697 3053 
L 147 3053 
L 147 3500 
L 697 3500 
L 697 3744 
Q 697 4328 969 4595 
Q 1241 4863 1831 4863 
L 2375 4863 
z
" transform="scale(0.015625)"/>
      <path id="DejaVuSans-67" d="M 2906 1791 
Q 2906 2416 2648 2759 
Q 2391 3103 1925 3103 
Q 1463 3103 1205 2759 
Q 947 2416 947 1791 
Q 947 1169 1205 825 
Q 1463 481 1925 481 
Q 2391 481 2648 825 
Q 2906 1169 2906 1791 
z
M 3481 434 
Q 3481 -459 3084 -895 
Q 2688 -1331 1869 -1331 
Q 1566 -1331 1297 -1286 
Q 1028 -1241 775 -1147 
L 775 -588 
Q 1028 -725 1275 -790 
Q 1522 -856 1778 -856 
Q 2344 -856 2625 -561 
Q 2906 -266 2906 331 
L 2906 616 
Q 2728 306 2450 153 
Q 2172 0 1784 0 
Q 1141 0 747 490 
Q 353 981 353 1791 
Q 353 2603 747 3093 
Q 1141 3584 1784 3584 
Q 2172 3584 2450 3431 
Q 2728 3278 2906 2969 
L 2906 3500 
L 3481 3500 
L 3481 434 
z
" transform="scale(0.015625)"/>
      <path id="DejaVuSans-2f" d="M 1625 4666 
L 2156 4666 
L 531 -594 
L 0 -594 
L 1625 4666 
z
" transform="scale(0.015625)"/>
      <path id="DejaVuSans-62" d="M 3116 1747 
Q 3116 2381 2855 2742 
Q 2594 3103 2138 3103 
Q 1681 3103 1420 2742 
Q 1159 2381 1159 1747 
Q 1159 1113 1420 752 
Q 1681 391 2138 391 
Q 2594 391 2855 752 
Q 3116 1113 3116 1747 
z
M 1159 2969 
Q 1341 3281 1617 3432 
Q 1894 3584 2278 3584 
Q 2916 3584 3314 3078 
Q 3713 2572 3713 1747 
Q 3713 922 3314 415 
Q 2916 -91 2278 -91 
Q 1894 -91 1617 61 
Q 1341 213 1159 525 
L 1159 0 
L 581 0 
L 581 4863 
L 1159 4863 
L 1159 2969 
z
" transform="scale(0.015625)"/>
      <path id="DejaVuSans-75" d="M 544 1381 
L 544 3500 
L 1119 3500 
L 1119 1403 
Q 1119 906 1312 657 
Q 1506 409 1894 409 
Q 2359 409 2629 706 
Q 2900 1003 2900 1516 
L 2900 3500 
L 3475 3500 
L 3475 0 
L 2900 0 
L 2900 538 
Q 2691 219 2414 64 
Q 2138 -91 1772 -91 
Q 1169 -91 856 284 
Q 544 659 544 1381 
z
M 1991 3584 
L 1991 3584 
z
" transform="scale(0.015625)"/>
     </defs>
     <use xlink:href="#DejaVuSans-56"/>
     <use xlink:href="#DejaVuSans-69" x="66.158203"/>
     <use xlink:href="#DejaVuSans-6f" x="93.941406"/>
     <use xlink:href="#DejaVuSans-6c" x="155.123047"/>
     <use xlink:href="#DejaVuSans-69" x="182.90625"/>
     <use xlink:href="#DejaVuSans-6e" x="210.689453"/>
     <use xlink:href="#DejaVuSans-70" x="274.068359"/>
     <use xlink:href="#DejaVuSans-6c" x="337.544922"/>
     <use xlink:href="#DejaVuSans-6f" x="365.328125"/>
     <use xlink:href="#DejaVuSans-74" x="426.509766"/>
     <use xlink:href="#DejaVuSans-20" x="465.71875"/>
     <use xlink:href="#DejaVuSans-66" x="497.505859"/>
     <use xlink:href="#DejaVuSans-6f" x="532.710938"/>
     <use xlink:href="#DejaVuSans-72" x="593.892578"/>
     <use xlink:href="#DejaVuSans-20" x="635.005859"/>
     <use xlink:href="#DejaVuSans-70" x="666.792969"/>
     <use xlink:href="#DejaVuSans-72" x="730.269531"/>
     <use xlink:href="#DejaVuSans-6f" x="769.132812"/>
     <use xlink:href="#DejaVuSans-67" x="830.314453"/>
     <use xlink:href="#DejaVuSans-72" x="893.791016"/>
     <use xlink:href="#DejaVuSans-65" x="932.654297"/>
     <use xlink:href="#DejaVuSans-73" x="994.177734"/>
     <use xlink:href="#DejaVuSans-73" x="1046.277344"/>
     <use xlink:href="#DejaVuSans-20" x="1098.376953"/>
     <use xlink:href="#DejaVuSans-6f" x="1130.164062"/>
     <use xlink:href="#DejaVuSans-66" x="1191.345703"/>
     <use xlink:href="#DejaVuSans-20" x="1226.550781"/>
     <use xlink:href="#DejaVuSans-6f" x="1258.337891"/>
     <use xlink:href="#DejaVuSans-77" x="1319.519531"/>
     <use xlink:href="#DejaVuSans-6e" x="1401.306641"/>
     <use xlink:href="#DejaVuSans-65" x="1464.685547"/>
     <use xlink:href="#DejaVuSans-72" x="1526.208984"/>
     <use xlink:href="#DejaVuSans-2f" x="1567.322266"/>
     <use xlink:href="#DejaVuSans-72" x="1601.013672"/>
     <use xlink:href="#DejaVuSans-65" x="1639.876953"/>
     <use xlink:href="#DejaVuSans-62" x="1701.400391"/>
     <use xlink:href="#DejaVuSans-75" x="1764.876953"/>
     <use xlink:href="#DejaVuSans-79" x="1828.255859"/>
     <use xlink:href="#DejaVuSans-73" x="1887.435547"/>
    </g>
   </g>
   <g id="legend_1">
    <g id="patch_7">
     <path d="M 276.504375 64.150125 
L 407.72 64.150125 
Q 409.72 64.150125 409.72 62.150125 
L 409.72 48.472 
Q 409.72 46.472 407.72 46.472 
L 276.504375 46.472 
Q 274.504375 46.472 274.504375 48.472 
L 274.504375 62.150125 
Q 274.504375 64.150125 276.504375 64.150125 
z
" style="fill: #ffffff; opacity: 0.8; stroke: #cccccc; stroke-linejoin: miter"/>
    </g>
    <g id="line2d_39">
     <path d="M 278.504375 54.570438 
L 288.504375 54.570438 
L 298.504375 54.570438 
" style="fill: none; stroke: #4682b4; stroke-width: 1.5; stroke-linecap: square"/>
    </g>
    <g id="text_22">
     <!-- StableBaselinesPPO -->
     <g transform="translate(306.504375 58.070438)scale(0.1 -0.1)">
      <defs>
       <path id="DejaVuSans-53" d="M 3425 4513 
L 3425 3897 
Q 3066 4069 2747 4153 
Q 2428 4238 2131 4238 
Q 1616 4238 1336 4038 
Q 1056 3838 1056 3469 
Q 1056 3159 1242 3001 
Q 1428 2844 1947 2747 
L 2328 2669 
Q 3034 2534 3370 2195 
Q 3706 1856 3706 1288 
Q 3706 609 3251 259 
Q 2797 -91 1919 -91 
Q 1588 -91 1214 -16 
Q 841 59 441 206 
L 441 856 
Q 825 641 1194 531 
Q 1563 422 1919 422 
Q 2459 422 2753 634 
Q 3047 847 3047 1241 
Q 3047 1584 2836 1778 
Q 2625 1972 2144 2069 
L 1759 2144 
Q 1053 2284 737 2584 
Q 422 2884 422 3419 
Q 422 4038 858 4394 
Q 1294 4750 2059 4750 
Q 2388 4750 2728 4690 
Q 3069 4631 3425 4513 
z
" transform="scale(0.015625)"/>
       <path id="DejaVuSans-42" d="M 1259 2228 
L 1259 519 
L 2272 519 
Q 2781 519 3026 730 
Q 3272 941 3272 1375 
Q 3272 1813 3026 2020 
Q 2781 2228 2272 2228 
L 1259 2228 
z
M 1259 4147 
L 1259 2741 
L 2194 2741 
Q 2656 2741 2882 2914 
Q 3109 3088 3109 3444 
Q 3109 3797 2882 3972 
Q 2656 4147 2194 4147 
L 1259 4147 
z
M 628 4666 
L 2241 4666 
Q 2963 4666 3353 4366 
Q 3744 4066 3744 3513 
Q 3744 3084 3544 2831 
Q 3344 2578 2956 2516 
Q 3422 2416 3680 2098 
Q 3938 1781 3938 1306 
Q 3938 681 3513 340 
Q 3088 0 2303 0 
L 628 0 
L 628 4666 
z
" transform="scale(0.015625)"/>
       <path id="DejaVuSans-50" d="M 1259 4147 
L 1259 2394 
L 2053 2394 
Q 2494 2394 2734 2622 
Q 2975 2850 2975 3272 
Q 2975 3691 2734 3919 
Q 2494 4147 2053 4147 
L 1259 4147 
z
M 628 4666 
L 2053 4666 
Q 2838 4666 3239 4311 
Q 3641 3956 3641 3272 
Q 3641 2581 3239 2228 
Q 2838 1875 2053 1875 
L 1259 1875 
L 1259 0 
L 628 0 
L 628 4666 
z
" transform="scale(0.015625)"/>
       <path id="DejaVuSans-4f" d="M 2522 4238 
Q 1834 4238 1429 3725 
Q 1025 3213 1025 2328 
Q 1025 1447 1429 934 
Q 1834 422 2522 422 
Q 3209 422 3611 934 
Q 4013 1447 4013 2328 
Q 4013 3213 3611 3725 
Q 3209 4238 2522 4238 
z
M 2522 4750 
Q 3503 4750 4090 4092 
Q 4678 3434 4678 2328 
Q 4678 1225 4090 567 
Q 3503 -91 2522 -91 
Q 1538 -91 948 565 
Q 359 1222 359 2328 
Q 359 3434 948 4092 
Q 1538 4750 2522 4750 
z
" transform="scale(0.015625)"/>
      </defs>
      <use xlink:href="#DejaVuSans-53"/>
      <use xlink:href="#DejaVuSans-74" x="63.476562"/>
      <use xlink:href="#DejaVuSans-61" x="102.685547"/>
      <use xlink:href="#DejaVuSans-62" x="163.964844"/>
      <use xlink:href="#DejaVuSans-6c" x="227.441406"/>
      <use xlink:href="#DejaVuSans-65" x="255.224609"/>
      <use xlink:href="#DejaVuSans-42" x="316.748047"/>
      <use xlink:href="#DejaVuSans-61" x="385.351562"/>
      <use xlink:href="#DejaVuSans-73" x="446.630859"/>
      <use xlink:href="#DejaVuSans-65" x="498.730469"/>
      <use xlink:href="#DejaVuSans-6c" x="560.253906"/>
      <use xlink:href="#DejaVuSans-69" x="588.037109"/>
      <use xlink:href="#DejaVuSans-6e" x="615.820312"/>
      <use xlink:href="#DejaVuSans-65" x="679.199219"/>
      <use xlink:href="#DejaVuSans-73" x="740.722656"/>
      <use xlink:href="#DejaVuSans-50" x="792.822266"/>
      <use xlink:href="#DejaVuSans-50" x="853.125"/>
      <use xlink:href="#DejaVuSans-4f" x="913.427734"/>
     </g>
    </g>
   </g>
  </g>
 </g>
 <defs>
  <clipPath id="p6cc3826e4e">
   <rect x="57.6" y="41.472" width="357.12" height="266.112"/>
  </clipPath>
 </defs>
</svg>
