<?xml version="1.0" encoding="utf-8" standalone="no"?>
<!DOCTYPE svg PUBLIC "-//W3C//DTD SVG 1.1//EN"
  "http://www.w3.org/Graphics/SVG/1.1/DTD/svg11.dtd">
<svg xmlns:xlink="http://www.w3.org/1999/xlink" width="460.8pt" height="345.6pt" viewBox="0 0 460.8 345.6" xmlns="http://www.w3.org/2000/svg" version="1.1">
 <metadata>
  <rdf:RDF xmlns:dc="http://purl.org/dc/elements/1.1/" xmlns:cc="http://creativecommons.org/ns#" xmlns:rdf="http://www.w3.org/1999/02/22-rdf-syntax-ns#">
   <cc:Work>
    <dc:type rdf:resource="http://purl.org/dc/dcmitype/StillImage"/>
    <dc:date>2022-06-21T20:44:58.437557</dc:date>
    <dc:format>image/svg+xml</dc:format>
    <dc:creator>
     <cc:Agent>
      <dc:title>Matplotlib v3.5.2, https://matplotlib.org/</dc:title>
     </cc:Agent>
    </dc:creator>
   </cc:Work>
  </rdf:RDF>
 </metadata>
 <defs>
  <style type="text/css">*{stroke-linejoin: round; stroke-linecap: butt}</style>
 </defs>
 <g id="figure_1">
  <g id="patch_1">
   <path d="M 0 345.6 
L 460.8 345.6 
L 460.8 0 
L 0 0 
z
" style="fill: #ffffff"/>
  </g>
  <g id="axes_1">
   <g id="patch_2">
    <path d="M 57.6 307.584 
L 414.72 307.584 
L 414.72 41.472 
L 57.6 41.472 
z
" style="fill: #ffffff"/>
   </g>
   <g id="PolyCollection_1">
    <path d="M 110.654663 247.655909 
L 105.254955 247.655909 
L 104.522078 245.695425 
L 103.649149 243.734941 
L 102.627923 241.774457 
L 101.455607 239.813973 
L 100.136142 237.853489 
L 98.680933 235.893005 
L 97.10887 233.932521 
L 95.445584 231.972037 
L 93.722017 230.011553 
L 91.972505 228.051069 
L 90.232592 226.090586 
L 88.536794 224.130102 
L 86.916469 222.169618 
L 85.397898 220.209134 
L 84.000653 218.24865 
L 82.736383 216.288166 
L 81.608151 214.327682 
L 80.610536 212.367198 
L 79.730638 210.406714 
L 78.950026 208.44623 
L 78.247503 206.485746 
L 77.602338 204.525262 
L 76.997481 202.564778 
L 76.422218 200.604295 
L 75.873802 198.643811 
L 75.357776 196.683327 
L 74.88695 194.722843 
L 74.479285 192.762359 
L 74.155085 190.801875 
L 73.934057 188.841391 
L 73.832727 186.880907 
L 73.862632 184.920423 
L 74.029458 182.959939 
L 74.333138 180.999455 
L 74.768701 179.038971 
L 75.327565 177.078487 
L 75.998929 175.118003 
L 76.770964 173.15752 
L 77.631616 171.197036 
L 78.568964 169.236552 
L 79.571218 167.276068 
L 80.62651 165.315584 
L 81.722701 163.3551 
L 82.847338 161.394616 
L 83.987858 159.434132 
L 85.131986 157.473648 
L 86.268202 155.513164 
L 87.386106 153.55268 
L 88.476535 151.592196 
L 89.531392 149.631712 
L 90.543268 147.671228 
L 91.505043 145.710745 
L 92.409708 143.750261 
L 93.250575 141.789777 
L 94.021961 139.829293 
L 94.720208 137.868809 
L 95.344798 135.908325 
L 95.899224 133.947841 
L 96.391309 131.987357 
L 96.832804 130.026873 
L 97.238262 128.066389 
L 97.623385 126.105905 
L 98.003181 124.145421 
L 98.390266 122.184937 
L 98.793633 120.224454 
L 99.218024 118.26397 
L 99.663945 116.303486 
L 100.128168 114.343002 
L 100.604552 112.382518 
L 101.084974 110.422034 
L 101.560225 108.46155 
L 102.020803 106.501066 
L 102.457573 104.540582 
L 102.862331 102.580098 
L 103.228277 100.619614 
L 103.550407 98.65913 
L 103.825805 96.698646 
L 104.053799 94.738162 
L 104.235965 92.777679 
L 104.375977 90.817195 
L 104.479333 88.856711 
L 104.552976 86.896227 
L 104.604872 84.935743 
L 104.643545 82.975259 
L 104.677609 81.014775 
L 104.715275 79.054291 
L 104.763876 77.093807 
L 104.829404 75.133323 
L 104.916127 73.172839 
L 105.026328 71.212355 
L 105.160231 69.251871 
L 105.316135 67.291387 
L 105.490759 65.330904 
L 105.679734 63.37042 
L 105.878166 61.409936 
L 106.08115 59.449452 
L 106.284171 57.488968 
L 106.483328 55.528484 
L 106.675388 53.568 
L 109.234229 53.568 
L 109.234229 53.568 
L 109.426289 55.528484 
L 109.625447 57.488968 
L 109.828468 59.449452 
L 110.031452 61.409936 
L 110.229883 63.37042 
L 110.418859 65.330904 
L 110.593483 67.291387 
L 110.749387 69.251871 
L 110.88329 71.212355 
L 110.993491 73.172839 
L 111.080214 75.133323 
L 111.145742 77.093807 
L 111.194343 79.054291 
L 111.232009 81.014775 
L 111.266072 82.975259 
L 111.304746 84.935743 
L 111.356642 86.896227 
L 111.430285 88.856711 
L 111.53364 90.817195 
L 111.673653 92.777679 
L 111.855818 94.738162 
L 112.083813 96.698646 
L 112.359211 98.65913 
L 112.681341 100.619614 
L 113.047286 102.580098 
L 113.452044 104.540582 
L 113.888815 106.501066 
L 114.349393 108.46155 
L 114.824644 110.422034 
L 115.305066 112.382518 
L 115.781449 114.343002 
L 116.245672 116.303486 
L 116.691594 118.26397 
L 117.115985 120.224454 
L 117.519352 122.184937 
L 117.906437 124.145421 
L 118.286233 126.105905 
L 118.671356 128.066389 
L 119.076813 130.026873 
L 119.518309 131.987357 
L 120.010394 133.947841 
L 120.564819 135.908325 
L 121.18941 137.868809 
L 121.887657 139.829293 
L 122.659043 141.789777 
L 123.49991 143.750261 
L 124.404574 145.710745 
L 125.36635 147.671228 
L 126.378226 149.631712 
L 127.433083 151.592196 
L 128.523512 153.55268 
L 129.641415 155.513164 
L 130.777631 157.473648 
L 131.921759 159.434132 
L 133.062279 161.394616 
L 134.186917 163.3551 
L 135.283107 165.315584 
L 136.3384 167.276068 
L 137.340653 169.236552 
L 138.278002 171.197036 
L 139.138654 173.15752 
L 139.910689 175.118003 
L 140.582053 177.078487 
L 141.140917 179.038971 
L 141.576479 180.999455 
L 141.880159 182.959939 
L 142.046985 184.920423 
L 142.07689 186.880907 
L 141.975561 188.841391 
L 141.754533 190.801875 
L 141.430333 192.762359 
L 141.022668 194.722843 
L 140.551842 196.683327 
L 140.035815 198.643811 
L 139.4874 200.604295 
L 138.912137 202.564778 
L 138.30728 204.525262 
L 137.662115 206.485746 
L 136.959592 208.44623 
L 136.17898 210.406714 
L 135.299081 212.367198 
L 134.301467 214.327682 
L 133.173235 216.288166 
L 131.908964 218.24865 
L 130.51172 220.209134 
L 128.993149 222.169618 
L 127.372824 224.130102 
L 125.677026 226.090586 
L 123.937113 228.051069 
L 122.187601 230.011553 
L 120.464034 231.972037 
L 118.800748 233.932521 
L 117.228685 235.893005 
L 115.773476 237.853489 
L 114.454011 239.813973 
L 113.281695 241.774457 
L 112.260469 243.734941 
L 111.38754 245.695425 
L 110.654663 247.655909 
z
" clip-path="url(#p1d136d2ebe)" style="fill: #1f77b4; fill-opacity: 0.3"/>
   </g>
   <g id="PolyCollection_2">
    <path d="M 193.860162 285.369673 
L 192.659864 285.369673 
L 192.535625 284.096752 
L 192.387547 282.823831 
L 192.194068 281.55091 
L 191.922552 280.27799 
L 191.530986 279.005069 
L 190.972146 277.732148 
L 190.199296 276.459227 
L 189.171885 275.186306 
L 187.859968 273.913385 
L 186.247062 272.640465 
L 184.332378 271.367544 
L 182.133879 270.094623 
L 179.692724 268.821702 
L 177.077735 267.548781 
L 174.38664 266.27586 
L 171.740464 265.00294 
L 169.269223 263.730019 
L 167.090584 262.457098 
L 165.286774 261.184177 
L 163.887085 259.911256 
L 162.86253 258.638335 
L 162.135604 257.365414 
L 161.602898 256.092494 
L 161.163586 254.819573 
L 160.744666 253.546652 
L 160.315457 252.273731 
L 159.888398 251.00081 
L 159.508511 249.727889 
L 159.237391 248.454969 
L 159.137931 247.182048 
L 159.263617 245.909127 
L 159.652978 244.636206 
L 160.32734 243.363285 
L 161.289391 242.090364 
L 162.521093 240.817443 
L 163.981364 239.544523 
L 165.605704 238.271602 
L 167.310505 236.998681 
L 169.003654 235.72576 
L 170.600269 234.452839 
L 172.039362 233.179918 
L 173.295516 231.906998 
L 174.380719 230.634077 
L 175.335277 229.361156 
L 176.211415 228.088235 
L 177.056439 226.815314 
L 177.90208 225.542393 
L 178.763048 224.269473 
L 179.642861 222.996552 
L 180.541616 221.723631 
L 181.460342 220.45071 
L 182.399732 219.177789 
L 183.355084 217.904868 
L 184.311739 216.631947 
L 185.244805 215.359027 
L 186.124202 214.086106 
L 186.922985 212.813185 
L 187.625184 211.540264 
L 188.229882 210.267343 
L 188.75016 208.994422 
L 189.207774 207.721502 
L 189.625892 206.448581 
L 190.0225 205.17566 
L 190.406388 203.902739 
L 190.776487 202.629818 
L 191.124174 201.356897 
L 191.437433 200.083976 
L 191.705365 198.811056 
L 191.921676 197.538135 
L 192.08626 196.265214 
L 192.204688 194.992293 
L 192.286198 193.719372 
L 192.341189 192.446451 
L 192.379247 191.173531 
L 192.40823 189.90061 
L 192.434345 188.627689 
L 192.462647 187.354768 
L 192.497336 186.081847 
L 192.54151 184.808926 
L 192.596492 183.536006 
L 192.661143 182.263085 
L 192.731655 180.990164 
L 192.802123 179.717243 
L 192.865871 178.444322 
L 192.9172 177.171401 
L 192.952974 175.89848 
L 192.973482 174.62556 
L 192.982191 173.352639 
L 192.984436 172.079718 
L 192.985481 170.806797 
L 192.98874 169.533876 
L 192.994858 168.260955 
L 193.002042 166.988035 
L 193.007456 165.715114 
L 193.009035 164.442193 
L 193.006855 163.169272 
L 193.003464 161.896351 
L 193.003021 160.62343 
L 193.009696 159.35051 
L 193.510329 159.35051 
L 193.510329 159.35051 
L 193.517005 160.62343 
L 193.516562 161.896351 
L 193.513171 163.169272 
L 193.510991 164.442193 
L 193.51257 165.715114 
L 193.517984 166.988035 
L 193.525168 168.260955 
L 193.531286 169.533876 
L 193.534545 170.806797 
L 193.53559 172.079718 
L 193.537835 173.352639 
L 193.546544 174.62556 
L 193.567052 175.89848 
L 193.602826 177.171401 
L 193.654155 178.444322 
L 193.717903 179.717243 
L 193.78837 180.990164 
L 193.858883 182.263085 
L 193.923534 183.536006 
L 193.978516 184.808926 
L 194.02269 186.081847 
L 194.057379 187.354768 
L 194.085681 188.627689 
L 194.111796 189.90061 
L 194.140779 191.173531 
L 194.178836 192.446451 
L 194.233828 193.719372 
L 194.315337 194.992293 
L 194.433766 196.265214 
L 194.59835 197.538135 
L 194.814661 198.811056 
L 195.082593 200.083976 
L 195.395852 201.356897 
L 195.743539 202.629818 
L 196.113637 203.902739 
L 196.497526 205.17566 
L 196.894134 206.448581 
L 197.312251 207.721502 
L 197.769866 208.994422 
L 198.290144 210.267343 
L 198.894842 211.540264 
L 199.597041 212.813185 
L 200.395824 214.086106 
L 201.275221 215.359027 
L 202.208286 216.631947 
L 203.164942 217.904868 
L 204.120294 219.177789 
L 205.059684 220.45071 
L 205.97841 221.723631 
L 206.877164 222.996552 
L 207.756977 224.269473 
L 208.617946 225.542393 
L 209.463587 226.815314 
L 210.308611 228.088235 
L 211.184748 229.361156 
L 212.139306 230.634077 
L 213.22451 231.906998 
L 214.480664 233.179918 
L 215.919757 234.452839 
L 217.516372 235.72576 
L 219.209521 236.998681 
L 220.914322 238.271602 
L 222.538661 239.544523 
L 223.998933 240.817443 
L 225.230635 242.090364 
L 226.192686 243.363285 
L 226.867048 244.636206 
L 227.256409 245.909127 
L 227.382095 247.182048 
L 227.282634 248.454969 
L 227.011515 249.727889 
L 226.631627 251.00081 
L 226.204569 252.273731 
L 225.77536 253.546652 
L 225.356439 254.819573 
L 224.917127 256.092494 
L 224.384422 257.365414 
L 223.657496 258.638335 
L 222.632941 259.911256 
L 221.233252 261.184177 
L 219.429442 262.457098 
L 217.250802 263.730019 
L 214.779562 265.00294 
L 212.133386 266.27586 
L 209.442291 267.548781 
L 206.827302 268.821702 
L 204.386147 270.094623 
L 202.187648 271.367544 
L 200.272964 272.640465 
L 198.660057 273.913385 
L 197.348141 275.186306 
L 196.32073 276.459227 
L 195.547879 277.732148 
L 194.98904 279.005069 
L 194.597474 280.27799 
L 194.325958 281.55091 
L 194.132479 282.823831 
L 193.984401 284.096752 
L 193.860162 285.369673 
z
" clip-path="url(#p1d136d2ebe)" style="fill: #1f77b4; fill-opacity: 0.3"/>
   </g>
   <g id="PolyCollection_3">
    <path d="M 279.500525 290.88876 
L 277.629908 290.88876 
L 277.390587 289.82025 
L 277.095258 288.75174 
L 276.727295 287.68323 
L 276.267116 286.61472 
L 275.693997 285.546209 
L 274.988778 284.477699 
L 274.137112 283.409189 
L 273.132642 282.340679 
L 271.979431 281.272169 
L 270.692998 280.203658 
L 269.299603 279.135148 
L 267.83378 278.066638 
L 266.334494 276.998128 
L 264.840608 275.929618 
L 263.386445 274.861108 
L 261.998206 273.792597 
L 260.691724 272.724087 
L 259.471757 271.655577 
L 258.332647 270.587067 
L 257.260001 269.518557 
L 256.232991 268.450046 
L 255.227053 267.381536 
L 254.217013 266.313026 
L 253.18079 265.244516 
L 252.10372 264.176006 
L 250.983089 263.107495 
L 249.83186 262.038985 
L 248.680225 260.970475 
L 247.573651 259.901965 
L 246.566957 258.833455 
L 245.715171 257.764944 
L 245.063305 256.696434 
L 244.637921 255.627924 
L 244.443135 254.559414 
L 244.462442 253.490904 
L 244.66576 252.422393 
L 245.019288 251.353883 
L 245.494703 250.285373 
L 246.074583 249.216863 
L 246.752468 248.148353 
L 247.528117 247.079842 
L 248.400425 246.011332 
L 249.361226 244.942822 
L 250.392667 243.874312 
L 251.469194 242.805802 
L 252.563231 241.737291 
L 253.652214 240.668781 
L 254.72422 239.600271 
L 255.780117 238.531761 
L 256.831572 237.463251 
L 257.895729 236.39474 
L 258.988468 235.32623 
L 260.118438 234.25772 
L 261.283622 233.18921 
L 262.471205 232.1207 
L 263.660386 231.052189 
L 264.82693 229.983679 
L 265.947897 228.915169 
L 267.005231 227.846659 
L 267.987497 226.778149 
L 268.889774 225.709638 
L 269.712258 224.641128 
L 270.458307 223.572618 
L 271.132618 222.504108 
L 271.739961 221.435598 
L 272.28462 220.367087 
L 272.770492 219.298577 
L 273.201654 218.230067 
L 273.583074 217.161557 
L 273.921164 216.093047 
L 274.223861 215.024536 
L 274.500121 213.956026 
L 274.758888 212.887516 
L 275.007832 211.819006 
L 275.252238 210.750496 
L 275.494382 209.681985 
L 275.733572 208.613475 
L 275.966801 207.544965 
L 276.189788 206.476455 
L 276.398121 205.407945 
L 276.588232 204.339434 
L 276.758069 203.270924 
L 276.907408 202.202414 
L 277.037811 201.133904 
L 277.152274 200.065394 
L 277.254614 198.996884 
L 277.348675 197.928373 
L 277.437511 196.859863 
L 277.52276 195.791353 
L 277.604408 194.722843 
L 277.681079 193.654333 
L 277.750785 192.585822 
L 277.811927 191.517312 
L 277.864172 190.448802 
L 277.908917 189.380292 
L 277.949127 188.311782 
L 277.98863 187.243271 
L 278.031094 186.174761 
L 278.07904 185.106251 
L 279.051394 185.106251 
L 279.051394 185.106251 
L 279.099339 186.174761 
L 279.141804 187.243271 
L 279.181307 188.311782 
L 279.221517 189.380292 
L 279.266261 190.448802 
L 279.318507 191.517312 
L 279.379649 192.585822 
L 279.449355 193.654333 
L 279.526025 194.722843 
L 279.607674 195.791353 
L 279.692923 196.859863 
L 279.781759 197.928373 
L 279.87582 198.996884 
L 279.97816 200.065394 
L 280.092623 201.133904 
L 280.223026 202.202414 
L 280.372365 203.270924 
L 280.542202 204.339434 
L 280.732313 205.407945 
L 280.940645 206.476455 
L 281.163633 207.544965 
L 281.396862 208.613475 
L 281.636052 209.681985 
L 281.878196 210.750496 
L 282.122602 211.819006 
L 282.371546 212.887516 
L 282.630313 213.956026 
L 282.906573 215.024536 
L 283.20927 216.093047 
L 283.54736 217.161557 
L 283.92878 218.230067 
L 284.359941 219.298577 
L 284.845814 220.367087 
L 285.390472 221.435598 
L 285.997816 222.504108 
L 286.672127 223.572618 
L 287.418175 224.641128 
L 288.240659 225.709638 
L 289.142937 226.778149 
L 290.125203 227.846659 
L 291.182537 228.915169 
L 292.303504 229.983679 
L 293.470048 231.052189 
L 294.659229 232.1207 
L 295.846811 233.18921 
L 297.011996 234.25772 
L 298.141966 235.32623 
L 299.234705 236.39474 
L 300.298862 237.463251 
L 301.350317 238.531761 
L 302.406214 239.600271 
L 303.47822 240.668781 
L 304.567203 241.737291 
L 305.661239 242.805802 
L 306.737766 243.874312 
L 307.769208 244.942822 
L 308.730009 246.011332 
L 309.602317 247.079842 
L 310.377966 248.148353 
L 311.055851 249.216863 
L 311.635731 250.285373 
L 312.111146 251.353883 
L 312.464674 252.422393 
L 312.667992 253.490904 
L 312.687299 254.559414 
L 312.492513 255.627924 
L 312.067129 256.696434 
L 311.415263 257.764944 
L 310.563476 258.833455 
L 309.556782 259.901965 
L 308.450209 260.970475 
L 307.298574 262.038985 
L 306.147345 263.107495 
L 305.026714 264.176006 
L 303.949644 265.244516 
L 302.913421 266.313026 
L 301.90338 267.381536 
L 300.897443 268.450046 
L 299.870432 269.518557 
L 298.797787 270.587067 
L 297.658677 271.655577 
L 296.43871 272.724087 
L 295.132228 273.792597 
L 293.743989 274.861108 
L 292.289826 275.929618 
L 290.795939 276.998128 
L 289.296654 278.066638 
L 287.830831 279.135148 
L 286.437436 280.203658 
L 285.151003 281.272169 
L 283.997792 282.340679 
L 282.993322 283.409189 
L 282.141656 284.477699 
L 281.436437 285.546209 
L 280.863317 286.61472 
L 280.403139 287.68323 
L 280.035176 288.75174 
L 279.739847 289.82025 
L 279.500525 290.88876 
z
" clip-path="url(#p1d136d2ebe)" style="fill: #1f77b4; fill-opacity: 0.3"/>
   </g>
   <g id="PolyCollection_4">
    <path d="M 364.39779 295.488 
L 363.343052 295.488 
L 363.236828 294.428781 
L 363.108376 293.369562 
L 362.94857 292.310344 
L 362.746474 291.251125 
L 362.490405 290.191906 
L 362.169276 289.132687 
L 361.773859 288.073468 
L 361.297539 287.01425 
L 360.73617 285.955031 
L 360.08688 284.895812 
L 359.346078 283.836593 
L 358.507321 282.777374 
L 357.559986 281.718156 
L 356.489683 280.658937 
L 355.280914 279.599718 
L 353.921822 278.540499 
L 352.410088 277.48128 
L 350.758478 276.422062 
L 348.998343 275.362843 
L 347.179683 274.303624 
L 345.367102 273.244405 
L 343.631926 272.185186 
L 342.041717 271.125968 
L 340.649195 270.066749 
L 339.482907 269.00753 
L 338.541818 267.948311 
L 337.79529 266.889092 
L 337.188764 265.829873 
L 336.654174 264.770655 
L 336.122987 263.711436 
L 335.539146 262.652217 
L 334.869219 261.592998 
L 334.10778 260.533779 
L 333.27717 259.474561 
L 332.422133 258.415342 
L 331.600864 257.356123 
L 330.874702 256.296904 
L 330.298689 255.237685 
L 329.91475 254.178467 
L 329.748339 253.119248 
L 329.80842 252.060029 
L 330.08986 251.00081 
L 330.576964 249.941591 
L 331.246997 248.882373 
L 332.073036 247.823154 
L 333.026091 246.763935 
L 334.076874 245.704716 
L 335.197648 244.645497 
L 336.364295 243.586279 
L 337.55833 242.52706 
L 338.768187 241.467841 
L 339.989114 240.408622 
L 341.221346 239.349403 
L 342.466784 238.290185 
L 343.725017 237.230966 
L 344.989821 236.171747 
L 346.247201 235.112528 
L 347.475617 234.053309 
L 348.648392 232.994091 
L 349.73772 231.934872 
L 350.719278 230.875653 
L 351.576415 229.816434 
L 352.303069 228.757215 
L 352.90494 227.697997 
L 353.398828 226.638778 
L 353.810368 225.579559 
L 354.170597 224.52034 
L 354.511931 223.461121 
L 354.864188 222.401903 
L 355.251261 221.342684 
L 355.688894 220.283465 
L 356.183812 219.224246 
L 356.734128 218.165027 
L 357.330743 217.105809 
L 357.95931 216.04659 
L 358.602364 214.987371 
L 359.241346 213.928152 
L 359.858352 212.868933 
L 360.437554 211.809714 
L 360.966248 210.750496 
L 361.435472 209.691277 
L 361.840144 208.632058 
L 362.178755 207.572839 
L 362.452719 206.51362 
L 362.66558 205.454402 
L 362.822322 204.395183 
L 362.928939 203.335964 
L 362.99231 202.276745 
L 363.020296 201.217526 
L 363.021832 200.158308 
L 363.006797 199.099089 
L 362.985526 198.03987 
L 362.967955 196.980651 
L 362.962587 195.921432 
L 362.975516 194.862214 
L 363.009791 193.802995 
L 363.065276 192.743776 
L 363.139023 191.684557 
L 363.226049 190.625338 
L 364.514793 190.625338 
L 364.514793 190.625338 
L 364.601819 191.684557 
L 364.675566 192.743776 
L 364.731051 193.802995 
L 364.765326 194.862214 
L 364.778255 195.921432 
L 364.772887 196.980651 
L 364.755316 198.03987 
L 364.734044 199.099089 
L 364.71901 200.158308 
L 364.720546 201.217526 
L 364.748532 202.276745 
L 364.811903 203.335964 
L 364.918519 204.395183 
L 365.075262 205.454402 
L 365.288123 206.51362 
L 365.562087 207.572839 
L 365.900698 208.632058 
L 366.30537 209.691277 
L 366.774593 210.750496 
L 367.303288 211.809714 
L 367.88249 212.868933 
L 368.499496 213.928152 
L 369.138478 214.987371 
L 369.781532 216.04659 
L 370.410099 217.105809 
L 371.006714 218.165027 
L 371.55703 219.224246 
L 372.051948 220.283465 
L 372.489581 221.342684 
L 372.876653 222.401903 
L 373.228911 223.461121 
L 373.570245 224.52034 
L 373.930474 225.579559 
L 374.342014 226.638778 
L 374.835902 227.697997 
L 375.437773 228.757215 
L 376.164427 229.816434 
L 377.021564 230.875653 
L 378.003122 231.934872 
L 379.09245 232.994091 
L 380.265225 234.053309 
L 381.493641 235.112528 
L 382.751021 236.171747 
L 384.015825 237.230966 
L 385.274058 238.290185 
L 386.519495 239.349403 
L 387.751727 240.408622 
L 388.972655 241.467841 
L 390.182511 242.52706 
L 391.376547 243.586279 
L 392.543194 244.645497 
L 393.663968 245.704716 
L 394.714751 246.763935 
L 395.667806 247.823154 
L 396.493845 248.882373 
L 397.163878 249.941591 
L 397.650982 251.00081 
L 397.932422 252.060029 
L 397.992503 253.119248 
L 397.826092 254.178467 
L 397.442153 255.237685 
L 396.86614 256.296904 
L 396.139978 257.356123 
L 395.318709 258.415342 
L 394.463671 259.474561 
L 393.633062 260.533779 
L 392.871622 261.592998 
L 392.201696 262.652217 
L 391.617855 263.711436 
L 391.086668 264.770655 
L 390.552078 265.829873 
L 389.945552 266.889092 
L 389.199024 267.948311 
L 388.257935 269.00753 
L 387.091647 270.066749 
L 385.699125 271.125968 
L 384.108916 272.185186 
L 382.373739 273.244405 
L 380.561159 274.303624 
L 378.742499 275.362843 
L 376.982364 276.422062 
L 375.330754 277.48128 
L 373.81902 278.540499 
L 372.459927 279.599718 
L 371.251159 280.658937 
L 370.180856 281.718156 
L 369.233521 282.777374 
L 368.394763 283.836593 
L 367.653962 284.895812 
L 367.004672 285.955031 
L 366.443303 287.01425 
L 365.966983 288.073468 
L 365.571566 289.132687 
L 365.250437 290.191906 
L 364.994368 291.251125 
L 364.792271 292.310344 
L 364.632465 293.369562 
L 364.504014 294.428781 
L 364.39779 295.488 
z
" clip-path="url(#p1d136d2ebe)" style="fill: #1f77b4; fill-opacity: 0.3"/>
   </g>
   <g id="PolyCollection_5">
    <path d="M 365.247174 294.568152 
L 363.483208 294.568152 
L 363.287462 293.527516 
L 363.047448 292.48688 
L 362.736086 291.446244 
L 362.318675 290.405608 
L 361.757516 289.364972 
L 361.018295 288.324336 
L 360.076793 287.2837 
L 358.924334 286.243064 
L 357.570498 285.202428 
L 356.042167 284.161792 
L 354.378889 283.121156 
L 352.625699 282.08052 
L 350.82559 281.039884 
L 349.014223 279.999248 
L 347.218716 278.958612 
L 345.460516 277.917976 
L 343.760285 276.87734 
L 342.141477 275.836704 
L 340.629875 274.796068 
L 339.24851 273.755432 
L 338.010165 272.714796 
L 336.911371 271.67416 
L 335.931444 270.633524 
L 335.037913 269.592888 
L 334.196773 268.552252 
L 333.384058 267.511616 
L 332.594975 266.47098 
L 331.848038 265.430344 
L 331.183431 264.389708 
L 330.656189 263.349072 
L 330.325657 262.308436 
L 330.24311 261.2678 
L 330.439796 260.227163 
L 330.917985 259.186527 
L 331.647417 258.145891 
L 332.568755 257.105255 
L 333.604074 256.064619 
L 334.672511 255.023983 
L 335.707473 253.983347 
L 336.670835 252.942711 
L 337.559849 251.902075 
L 338.404256 250.861439 
L 339.254047 249.820803 
L 340.161761 248.780167 
L 341.165512 247.739531 
L 342.278908 246.698895 
L 343.491114 245.658259 
L 344.775668 244.617623 
L 346.10261 243.576987 
L 347.447351 242.536351 
L 348.792138 241.495715 
L 350.120608 240.455079 
L 351.410033 239.414443 
L 352.627181 238.373807 
L 353.731639 237.333171 
L 354.686346 236.292535 
L 355.471102 235.251899 
L 356.092934 234.211263 
L 356.588158 233.170627 
L 357.01431 232.129991 
L 357.434365 231.089355 
L 357.898965 230.048719 
L 358.433304 229.008083 
L 359.033213 227.967447 
L 359.671068 226.926811 
L 360.308049 225.886175 
L 360.907268 224.845539 
L 361.442937 223.804903 
L 361.903472 222.764267 
L 362.289485 221.723631 
L 362.609298 220.682995 
L 362.874593 219.642359 
L 363.097503 218.601723 
L 363.289071 217.561087 
L 363.458408 216.520451 
L 363.612023 215.479815 
L 363.753361 214.439179 
L 363.882874 213.398543 
L 363.998824 212.357907 
L 364.098642 211.317271 
L 364.180333 210.276635 
L 364.243418 209.235999 
L 364.289164 208.195363 
L 364.320186 207.154727 
L 364.3397 206.114091 
L 364.350788 205.073455 
L 364.355849 204.032819 
L 364.356331 202.992183 
L 364.352699 201.951546 
L 364.344592 200.91091 
L 364.331135 199.870274 
L 364.31141 198.829638 
L 364.285037 197.789002 
L 364.252767 196.748366 
L 364.216892 195.70773 
L 364.181239 194.667094 
L 364.150636 193.626458 
L 364.129881 192.585822 
L 364.122525 191.545186 
L 364.607857 191.545186 
L 364.607857 191.545186 
L 364.600502 192.585822 
L 364.579747 193.626458 
L 364.549143 194.667094 
L 364.51349 195.70773 
L 364.477615 196.748366 
L 364.445346 197.789002 
L 364.418972 198.829638 
L 364.399247 199.870274 
L 364.38579 200.91091 
L 364.377683 201.951546 
L 364.374052 202.992183 
L 364.374534 204.032819 
L 364.379594 205.073455 
L 364.390682 206.114091 
L 364.410197 207.154727 
L 364.441218 208.195363 
L 364.486965 209.235999 
L 364.550049 210.276635 
L 364.63174 211.317271 
L 364.731559 212.357907 
L 364.847509 213.398543 
L 364.977021 214.439179 
L 365.118359 215.479815 
L 365.271974 216.520451 
L 365.441311 217.561087 
L 365.63288 218.601723 
L 365.855789 219.642359 
L 366.121084 220.682995 
L 366.440897 221.723631 
L 366.82691 222.764267 
L 367.287446 223.804903 
L 367.823114 224.845539 
L 368.422333 225.886175 
L 369.059314 226.926811 
L 369.697169 227.967447 
L 370.297078 229.008083 
L 370.831417 230.048719 
L 371.296018 231.089355 
L 371.716072 232.129991 
L 372.142224 233.170627 
L 372.637448 234.211263 
L 373.25928 235.251899 
L 374.044037 236.292535 
L 374.998744 237.333171 
L 376.103201 238.373807 
L 377.320349 239.414443 
L 378.609775 240.455079 
L 379.938245 241.495715 
L 381.283032 242.536351 
L 382.627773 243.576987 
L 383.954714 244.617623 
L 385.239268 245.658259 
L 386.451475 246.698895 
L 387.56487 247.739531 
L 388.568621 248.780167 
L 389.476336 249.820803 
L 390.326126 250.861439 
L 391.170533 251.902075 
L 392.059548 252.942711 
L 393.022909 253.983347 
L 394.057871 255.023983 
L 395.126309 256.064619 
L 396.161627 257.105255 
L 397.082965 258.145891 
L 397.812397 259.186527 
L 398.290586 260.227163 
L 398.487273 261.2678 
L 398.404725 262.308436 
L 398.074193 263.349072 
L 397.546951 264.389708 
L 396.882344 265.430344 
L 396.135408 266.47098 
L 395.346324 267.511616 
L 394.533609 268.552252 
L 393.692469 269.592888 
L 392.798938 270.633524 
L 391.819011 271.67416 
L 390.720217 272.714796 
L 389.481872 273.755432 
L 388.100507 274.796068 
L 386.588905 275.836704 
L 384.970097 276.87734 
L 383.269866 277.917976 
L 381.511667 278.958612 
L 379.716159 279.999248 
L 377.904792 281.039884 
L 376.104683 282.08052 
L 374.351494 283.121156 
L 372.688215 284.161792 
L 371.159884 285.202428 
L 369.806048 286.243064 
L 368.65359 287.2837 
L 367.712087 288.324336 
L 366.972866 289.364972 
L 366.411708 290.405608 
L 365.994296 291.446244 
L 365.682934 292.48688 
L 365.44292 293.527516 
L 365.247174 294.568152 
z
" clip-path="url(#p1d136d2ebe)" style="fill: #1f77b4; fill-opacity: 0.3"/>
   </g>
   <g id="matplotlib.axis_1">
    <g id="xtick_1">
     <g id="line2d_1">
      <path d="M 65.302207 307.584 
L 65.302207 41.472 
" clip-path="url(#p1d136d2ebe)" style="fill: none; stroke-dasharray: 2.96,1.28; stroke-dashoffset: 0; stroke: #b0b0b0; stroke-width: 0.8"/>
     </g>
     <g id="line2d_2">
      <defs>
       <path id="mac8bd65a87" d="M 0 0 
L 0 3.5 
" style="stroke: #000000; stroke-width: 0.8"/>
      </defs>
      <g>
       <use xlink:href="#mac8bd65a87" x="65.302207" y="307.584" style="stroke: #000000; stroke-width: 0.8"/>
      </g>
     </g>
     <g id="text_1">
      <!-- 2500 -->
      <g transform="translate(52.577207 322.182437)scale(0.1 -0.1)">
       <defs>
        <path id="DejaVuSans-32" d="M 1228 531 
L 3431 531 
L 3431 0 
L 469 0 
L 469 531 
Q 828 903 1448 1529 
Q 2069 2156 2228 2338 
Q 2531 2678 2651 2914 
Q 2772 3150 2772 3378 
Q 2772 3750 2511 3984 
Q 2250 4219 1831 4219 
Q 1534 4219 1204 4116 
Q 875 4013 500 3803 
L 500 4441 
Q 881 4594 1212 4672 
Q 1544 4750 1819 4750 
Q 2544 4750 2975 4387 
Q 3406 4025 3406 3419 
Q 3406 3131 3298 2873 
Q 3191 2616 2906 2266 
Q 2828 2175 2409 1742 
Q 1991 1309 1228 531 
z
" transform="scale(0.015625)"/>
        <path id="DejaVuSans-35" d="M 691 4666 
L 3169 4666 
L 3169 4134 
L 1269 4134 
L 1269 2991 
Q 1406 3038 1543 3061 
Q 1681 3084 1819 3084 
Q 2600 3084 3056 2656 
Q 3513 2228 3513 1497 
Q 3513 744 3044 326 
Q 2575 -91 1722 -91 
Q 1428 -91 1123 -41 
Q 819 9 494 109 
L 494 744 
Q 775 591 1075 516 
Q 1375 441 1709 441 
Q 2250 441 2565 725 
Q 2881 1009 2881 1497 
Q 2881 1984 2565 2268 
Q 2250 2553 1709 2553 
Q 1456 2553 1204 2497 
Q 953 2441 691 2322 
L 691 4666 
z
" transform="scale(0.015625)"/>
        <path id="DejaVuSans-30" d="M 2034 4250 
Q 1547 4250 1301 3770 
Q 1056 3291 1056 2328 
Q 1056 1369 1301 889 
Q 1547 409 2034 409 
Q 2525 409 2770 889 
Q 3016 1369 3016 2328 
Q 3016 3291 2770 3770 
Q 2525 4250 2034 4250 
z
M 2034 4750 
Q 2819 4750 3233 4129 
Q 3647 3509 3647 2328 
Q 3647 1150 3233 529 
Q 2819 -91 2034 -91 
Q 1250 -91 836 529 
Q 422 1150 422 2328 
Q 422 3509 836 4129 
Q 1250 4750 2034 4750 
z
" transform="scale(0.015625)"/>
       </defs>
       <use xlink:href="#DejaVuSans-32"/>
       <use xlink:href="#DejaVuSans-35" x="63.623047"/>
       <use xlink:href="#DejaVuSans-30" x="127.246094"/>
       <use xlink:href="#DejaVuSans-30" x="190.869141"/>
      </g>
     </g>
    </g>
    <g id="xtick_2">
     <g id="line2d_3">
      <path d="M 107.954809 307.584 
L 107.954809 41.472 
" clip-path="url(#p1d136d2ebe)" style="fill: none; stroke-dasharray: 2.96,1.28; stroke-dashoffset: 0; stroke: #b0b0b0; stroke-width: 0.8"/>
     </g>
     <g id="line2d_4">
      <g>
       <use xlink:href="#mac8bd65a87" x="107.954809" y="307.584" style="stroke: #000000; stroke-width: 0.8"/>
      </g>
     </g>
     <g id="text_2">
      <!-- 5000 -->
      <g transform="translate(95.229809 322.182437)scale(0.1 -0.1)">
       <use xlink:href="#DejaVuSans-35"/>
       <use xlink:href="#DejaVuSans-30" x="63.623047"/>
       <use xlink:href="#DejaVuSans-30" x="127.246094"/>
       <use xlink:href="#DejaVuSans-30" x="190.869141"/>
      </g>
     </g>
    </g>
    <g id="xtick_3">
     <g id="line2d_5">
      <path d="M 150.607411 307.584 
L 150.607411 41.472 
" clip-path="url(#p1d136d2ebe)" style="fill: none; stroke-dasharray: 2.96,1.28; stroke-dashoffset: 0; stroke: #b0b0b0; stroke-width: 0.8"/>
     </g>
     <g id="line2d_6">
      <g>
       <use xlink:href="#mac8bd65a87" x="150.607411" y="307.584" style="stroke: #000000; stroke-width: 0.8"/>
      </g>
     </g>
     <g id="text_3">
      <!-- 7500 -->
      <g transform="translate(137.882411 322.182437)scale(0.1 -0.1)">
       <defs>
        <path id="DejaVuSans-37" d="M 525 4666 
L 3525 4666 
L 3525 4397 
L 1831 0 
L 1172 0 
L 2766 4134 
L 525 4134 
L 525 4666 
z
" transform="scale(0.015625)"/>
       </defs>
       <use xlink:href="#DejaVuSans-37"/>
       <use xlink:href="#DejaVuSans-35" x="63.623047"/>
       <use xlink:href="#DejaVuSans-30" x="127.246094"/>
       <use xlink:href="#DejaVuSans-30" x="190.869141"/>
      </g>
     </g>
    </g>
    <g id="xtick_4">
     <g id="line2d_7">
      <path d="M 193.260013 307.584 
L 193.260013 41.472 
" clip-path="url(#p1d136d2ebe)" style="fill: none; stroke-dasharray: 2.96,1.28; stroke-dashoffset: 0; stroke: #b0b0b0; stroke-width: 0.8"/>
     </g>
     <g id="line2d_8">
      <g>
       <use xlink:href="#mac8bd65a87" x="193.260013" y="307.584" style="stroke: #000000; stroke-width: 0.8"/>
      </g>
     </g>
     <g id="text_4">
      <!-- 10000 -->
      <g transform="translate(177.353763 322.182437)scale(0.1 -0.1)">
       <defs>
        <path id="DejaVuSans-31" d="M 794 531 
L 1825 531 
L 1825 4091 
L 703 3866 
L 703 4441 
L 1819 4666 
L 2450 4666 
L 2450 531 
L 3481 531 
L 3481 0 
L 794 0 
L 794 531 
z
" transform="scale(0.015625)"/>
       </defs>
       <use xlink:href="#DejaVuSans-31"/>
       <use xlink:href="#DejaVuSans-30" x="63.623047"/>
       <use xlink:href="#DejaVuSans-30" x="127.246094"/>
       <use xlink:href="#DejaVuSans-30" x="190.869141"/>
       <use xlink:href="#DejaVuSans-30" x="254.492188"/>
      </g>
     </g>
    </g>
    <g id="xtick_5">
     <g id="line2d_9">
      <path d="M 235.912615 307.584 
L 235.912615 41.472 
" clip-path="url(#p1d136d2ebe)" style="fill: none; stroke-dasharray: 2.96,1.28; stroke-dashoffset: 0; stroke: #b0b0b0; stroke-width: 0.8"/>
     </g>
     <g id="line2d_10">
      <g>
       <use xlink:href="#mac8bd65a87" x="235.912615" y="307.584" style="stroke: #000000; stroke-width: 0.8"/>
      </g>
     </g>
     <g id="text_5">
      <!-- 12500 -->
      <g transform="translate(220.006365 322.182437)scale(0.1 -0.1)">
       <use xlink:href="#DejaVuSans-31"/>
       <use xlink:href="#DejaVuSans-32" x="63.623047"/>
       <use xlink:href="#DejaVuSans-35" x="127.246094"/>
       <use xlink:href="#DejaVuSans-30" x="190.869141"/>
       <use xlink:href="#DejaVuSans-30" x="254.492188"/>
      </g>
     </g>
    </g>
    <g id="xtick_6">
     <g id="line2d_11">
      <path d="M 278.565217 307.584 
L 278.565217 41.472 
" clip-path="url(#p1d136d2ebe)" style="fill: none; stroke-dasharray: 2.96,1.28; stroke-dashoffset: 0; stroke: #b0b0b0; stroke-width: 0.8"/>
     </g>
     <g id="line2d_12">
      <g>
       <use xlink:href="#mac8bd65a87" x="278.565217" y="307.584" style="stroke: #000000; stroke-width: 0.8"/>
      </g>
     </g>
     <g id="text_6">
      <!-- 15000 -->
      <g transform="translate(262.658967 322.182437)scale(0.1 -0.1)">
       <use xlink:href="#DejaVuSans-31"/>
       <use xlink:href="#DejaVuSans-35" x="63.623047"/>
       <use xlink:href="#DejaVuSans-30" x="127.246094"/>
       <use xlink:href="#DejaVuSans-30" x="190.869141"/>
       <use xlink:href="#DejaVuSans-30" x="254.492188"/>
      </g>
     </g>
    </g>
    <g id="xtick_7">
     <g id="line2d_13">
      <path d="M 321.217819 307.584 
L 321.217819 41.472 
" clip-path="url(#p1d136d2ebe)" style="fill: none; stroke-dasharray: 2.96,1.28; stroke-dashoffset: 0; stroke: #b0b0b0; stroke-width: 0.8"/>
     </g>
     <g id="line2d_14">
      <g>
       <use xlink:href="#mac8bd65a87" x="321.217819" y="307.584" style="stroke: #000000; stroke-width: 0.8"/>
      </g>
     </g>
     <g id="text_7">
      <!-- 17500 -->
      <g transform="translate(305.311569 322.182437)scale(0.1 -0.1)">
       <use xlink:href="#DejaVuSans-31"/>
       <use xlink:href="#DejaVuSans-37" x="63.623047"/>
       <use xlink:href="#DejaVuSans-35" x="127.246094"/>
       <use xlink:href="#DejaVuSans-30" x="190.869141"/>
       <use xlink:href="#DejaVuSans-30" x="254.492188"/>
      </g>
     </g>
    </g>
    <g id="xtick_8">
     <g id="line2d_15">
      <path d="M 363.870421 307.584 
L 363.870421 41.472 
" clip-path="url(#p1d136d2ebe)" style="fill: none; stroke-dasharray: 2.96,1.28; stroke-dashoffset: 0; stroke: #b0b0b0; stroke-width: 0.8"/>
     </g>
     <g id="line2d_16">
      <g>
       <use xlink:href="#mac8bd65a87" x="363.870421" y="307.584" style="stroke: #000000; stroke-width: 0.8"/>
      </g>
     </g>
     <g id="text_8">
      <!-- 20000 -->
      <g transform="translate(347.964171 322.182437)scale(0.1 -0.1)">
       <use xlink:href="#DejaVuSans-32"/>
       <use xlink:href="#DejaVuSans-30" x="63.623047"/>
       <use xlink:href="#DejaVuSans-30" x="127.246094"/>
       <use xlink:href="#DejaVuSans-30" x="190.869141"/>
       <use xlink:href="#DejaVuSans-30" x="254.492188"/>
      </g>
     </g>
    </g>
    <g id="xtick_9">
     <g id="line2d_17">
      <path d="M 406.523023 307.584 
L 406.523023 41.472 
" clip-path="url(#p1d136d2ebe)" style="fill: none; stroke-dasharray: 2.96,1.28; stroke-dashoffset: 0; stroke: #b0b0b0; stroke-width: 0.8"/>
     </g>
     <g id="line2d_18">
      <g>
       <use xlink:href="#mac8bd65a87" x="406.523023" y="307.584" style="stroke: #000000; stroke-width: 0.8"/>
      </g>
     </g>
     <g id="text_9">
      <!-- 22500 -->
      <g transform="translate(390.616773 322.182437)scale(0.1 -0.1)">
       <use xlink:href="#DejaVuSans-32"/>
       <use xlink:href="#DejaVuSans-32" x="63.623047"/>
       <use xlink:href="#DejaVuSans-35" x="127.246094"/>
       <use xlink:href="#DejaVuSans-30" x="190.869141"/>
       <use xlink:href="#DejaVuSans-30" x="254.492188"/>
      </g>
     </g>
    </g>
    <g id="text_10">
     <!-- Learned Episodes -->
     <g transform="translate(192.102187 335.860562)scale(0.1 -0.1)">
      <defs>
       <path id="DejaVuSans-4c" d="M 628 4666 
L 1259 4666 
L 1259 531 
L 3531 531 
L 3531 0 
L 628 0 
L 628 4666 
z
" transform="scale(0.015625)"/>
       <path id="DejaVuSans-65" d="M 3597 1894 
L 3597 1613 
L 953 1613 
Q 991 1019 1311 708 
Q 1631 397 2203 397 
Q 2534 397 2845 478 
Q 3156 559 3463 722 
L 3463 178 
Q 3153 47 2828 -22 
Q 2503 -91 2169 -91 
Q 1331 -91 842 396 
Q 353 884 353 1716 
Q 353 2575 817 3079 
Q 1281 3584 2069 3584 
Q 2775 3584 3186 3129 
Q 3597 2675 3597 1894 
z
M 3022 2063 
Q 3016 2534 2758 2815 
Q 2500 3097 2075 3097 
Q 1594 3097 1305 2825 
Q 1016 2553 972 2059 
L 3022 2063 
z
" transform="scale(0.015625)"/>
       <path id="DejaVuSans-61" d="M 2194 1759 
Q 1497 1759 1228 1600 
Q 959 1441 959 1056 
Q 959 750 1161 570 
Q 1363 391 1709 391 
Q 2188 391 2477 730 
Q 2766 1069 2766 1631 
L 2766 1759 
L 2194 1759 
z
M 3341 1997 
L 3341 0 
L 2766 0 
L 2766 531 
Q 2569 213 2275 61 
Q 1981 -91 1556 -91 
Q 1019 -91 701 211 
Q 384 513 384 1019 
Q 384 1609 779 1909 
Q 1175 2209 1959 2209 
L 2766 2209 
L 2766 2266 
Q 2766 2663 2505 2880 
Q 2244 3097 1772 3097 
Q 1472 3097 1187 3025 
Q 903 2953 641 2809 
L 641 3341 
Q 956 3463 1253 3523 
Q 1550 3584 1831 3584 
Q 2591 3584 2966 3190 
Q 3341 2797 3341 1997 
z
" transform="scale(0.015625)"/>
       <path id="DejaVuSans-72" d="M 2631 2963 
Q 2534 3019 2420 3045 
Q 2306 3072 2169 3072 
Q 1681 3072 1420 2755 
Q 1159 2438 1159 1844 
L 1159 0 
L 581 0 
L 581 3500 
L 1159 3500 
L 1159 2956 
Q 1341 3275 1631 3429 
Q 1922 3584 2338 3584 
Q 2397 3584 2469 3576 
Q 2541 3569 2628 3553 
L 2631 2963 
z
" transform="scale(0.015625)"/>
       <path id="DejaVuSans-6e" d="M 3513 2113 
L 3513 0 
L 2938 0 
L 2938 2094 
Q 2938 2591 2744 2837 
Q 2550 3084 2163 3084 
Q 1697 3084 1428 2787 
Q 1159 2491 1159 1978 
L 1159 0 
L 581 0 
L 581 3500 
L 1159 3500 
L 1159 2956 
Q 1366 3272 1645 3428 
Q 1925 3584 2291 3584 
Q 2894 3584 3203 3211 
Q 3513 2838 3513 2113 
z
" transform="scale(0.015625)"/>
       <path id="DejaVuSans-64" d="M 2906 2969 
L 2906 4863 
L 3481 4863 
L 3481 0 
L 2906 0 
L 2906 525 
Q 2725 213 2448 61 
Q 2172 -91 1784 -91 
Q 1150 -91 751 415 
Q 353 922 353 1747 
Q 353 2572 751 3078 
Q 1150 3584 1784 3584 
Q 2172 3584 2448 3432 
Q 2725 3281 2906 2969 
z
M 947 1747 
Q 947 1113 1208 752 
Q 1469 391 1925 391 
Q 2381 391 2643 752 
Q 2906 1113 2906 1747 
Q 2906 2381 2643 2742 
Q 2381 3103 1925 3103 
Q 1469 3103 1208 2742 
Q 947 2381 947 1747 
z
" transform="scale(0.015625)"/>
       <path id="DejaVuSans-20" transform="scale(0.015625)"/>
       <path id="DejaVuSans-45" d="M 628 4666 
L 3578 4666 
L 3578 4134 
L 1259 4134 
L 1259 2753 
L 3481 2753 
L 3481 2222 
L 1259 2222 
L 1259 531 
L 3634 531 
L 3634 0 
L 628 0 
L 628 4666 
z
" transform="scale(0.015625)"/>
       <path id="DejaVuSans-70" d="M 1159 525 
L 1159 -1331 
L 581 -1331 
L 581 3500 
L 1159 3500 
L 1159 2969 
Q 1341 3281 1617 3432 
Q 1894 3584 2278 3584 
Q 2916 3584 3314 3078 
Q 3713 2572 3713 1747 
Q 3713 922 3314 415 
Q 2916 -91 2278 -91 
Q 1894 -91 1617 61 
Q 1341 213 1159 525 
z
M 3116 1747 
Q 3116 2381 2855 2742 
Q 2594 3103 2138 3103 
Q 1681 3103 1420 2742 
Q 1159 2381 1159 1747 
Q 1159 1113 1420 752 
Q 1681 391 2138 391 
Q 2594 391 2855 752 
Q 3116 1113 3116 1747 
z
" transform="scale(0.015625)"/>
       <path id="DejaVuSans-69" d="M 603 3500 
L 1178 3500 
L 1178 0 
L 603 0 
L 603 3500 
z
M 603 4863 
L 1178 4863 
L 1178 4134 
L 603 4134 
L 603 4863 
z
" transform="scale(0.015625)"/>
       <path id="DejaVuSans-73" d="M 2834 3397 
L 2834 2853 
Q 2591 2978 2328 3040 
Q 2066 3103 1784 3103 
Q 1356 3103 1142 2972 
Q 928 2841 928 2578 
Q 928 2378 1081 2264 
Q 1234 2150 1697 2047 
L 1894 2003 
Q 2506 1872 2764 1633 
Q 3022 1394 3022 966 
Q 3022 478 2636 193 
Q 2250 -91 1575 -91 
Q 1294 -91 989 -36 
Q 684 19 347 128 
L 347 722 
Q 666 556 975 473 
Q 1284 391 1588 391 
Q 1994 391 2212 530 
Q 2431 669 2431 922 
Q 2431 1156 2273 1281 
Q 2116 1406 1581 1522 
L 1381 1569 
Q 847 1681 609 1914 
Q 372 2147 372 2553 
Q 372 3047 722 3315 
Q 1072 3584 1716 3584 
Q 2034 3584 2315 3537 
Q 2597 3491 2834 3397 
z
" transform="scale(0.015625)"/>
       <path id="DejaVuSans-6f" d="M 1959 3097 
Q 1497 3097 1228 2736 
Q 959 2375 959 1747 
Q 959 1119 1226 758 
Q 1494 397 1959 397 
Q 2419 397 2687 759 
Q 2956 1122 2956 1747 
Q 2956 2369 2687 2733 
Q 2419 3097 1959 3097 
z
M 1959 3584 
Q 2709 3584 3137 3096 
Q 3566 2609 3566 1747 
Q 3566 888 3137 398 
Q 2709 -91 1959 -91 
Q 1206 -91 779 398 
Q 353 888 353 1747 
Q 353 2609 779 3096 
Q 1206 3584 1959 3584 
z
" transform="scale(0.015625)"/>
      </defs>
      <use xlink:href="#DejaVuSans-4c"/>
      <use xlink:href="#DejaVuSans-65" x="53.962891"/>
      <use xlink:href="#DejaVuSans-61" x="115.486328"/>
      <use xlink:href="#DejaVuSans-72" x="176.765625"/>
      <use xlink:href="#DejaVuSans-6e" x="216.128906"/>
      <use xlink:href="#DejaVuSans-65" x="279.507812"/>
      <use xlink:href="#DejaVuSans-64" x="341.03125"/>
      <use xlink:href="#DejaVuSans-20" x="404.507812"/>
      <use xlink:href="#DejaVuSans-45" x="436.294922"/>
      <use xlink:href="#DejaVuSans-70" x="499.478516"/>
      <use xlink:href="#DejaVuSans-69" x="562.955078"/>
      <use xlink:href="#DejaVuSans-73" x="590.738281"/>
      <use xlink:href="#DejaVuSans-6f" x="642.837891"/>
      <use xlink:href="#DejaVuSans-64" x="704.019531"/>
      <use xlink:href="#DejaVuSans-65" x="767.496094"/>
      <use xlink:href="#DejaVuSans-73" x="829.019531"/>
     </g>
    </g>
   </g>
   <g id="matplotlib.axis_2">
    <g id="ytick_1">
     <g id="line2d_19">
      <path d="M 57.6 294.568152 
L 414.72 294.568152 
" clip-path="url(#p1d136d2ebe)" style="fill: none; stroke-dasharray: 2.96,1.28; stroke-dashoffset: 0; stroke: #b0b0b0; stroke-width: 0.8"/>
     </g>
     <g id="line2d_20">
      <defs>
       <path id="mb9a2ff6591" d="M 0 0 
L -3.5 0 
" style="stroke: #000000; stroke-width: 0.8"/>
      </defs>
      <g>
       <use xlink:href="#mb9a2ff6591" x="57.6" y="294.568152" style="stroke: #000000; stroke-width: 0.8"/>
      </g>
     </g>
     <g id="text_11">
      <!-- 50 -->
      <g transform="translate(37.875 298.367371)scale(0.1 -0.1)">
       <use xlink:href="#DejaVuSans-35"/>
       <use xlink:href="#DejaVuSans-30" x="63.623047"/>
      </g>
     </g>
    </g>
    <g id="ytick_2">
     <g id="line2d_21">
      <path d="M 57.6 248.575757 
L 414.72 248.575757 
" clip-path="url(#p1d136d2ebe)" style="fill: none; stroke-dasharray: 2.96,1.28; stroke-dashoffset: 0; stroke: #b0b0b0; stroke-width: 0.8"/>
     </g>
     <g id="line2d_22">
      <g>
       <use xlink:href="#mb9a2ff6591" x="57.6" y="248.575757" style="stroke: #000000; stroke-width: 0.8"/>
      </g>
     </g>
     <g id="text_12">
      <!-- 100 -->
      <g transform="translate(31.5125 252.374975)scale(0.1 -0.1)">
       <use xlink:href="#DejaVuSans-31"/>
       <use xlink:href="#DejaVuSans-30" x="63.623047"/>
       <use xlink:href="#DejaVuSans-30" x="127.246094"/>
      </g>
     </g>
    </g>
    <g id="ytick_3">
     <g id="line2d_23">
      <path d="M 57.6 202.583361 
L 414.72 202.583361 
" clip-path="url(#p1d136d2ebe)" style="fill: none; stroke-dasharray: 2.96,1.28; stroke-dashoffset: 0; stroke: #b0b0b0; stroke-width: 0.8"/>
     </g>
     <g id="line2d_24">
      <g>
       <use xlink:href="#mb9a2ff6591" x="57.6" y="202.583361" style="stroke: #000000; stroke-width: 0.8"/>
      </g>
     </g>
     <g id="text_13">
      <!-- 150 -->
      <g transform="translate(31.5125 206.38258)scale(0.1 -0.1)">
       <use xlink:href="#DejaVuSans-31"/>
       <use xlink:href="#DejaVuSans-35" x="63.623047"/>
       <use xlink:href="#DejaVuSans-30" x="127.246094"/>
      </g>
     </g>
    </g>
    <g id="ytick_4">
     <g id="line2d_25">
      <path d="M 57.6 156.590966 
L 414.72 156.590966 
" clip-path="url(#p1d136d2ebe)" style="fill: none; stroke-dasharray: 2.96,1.28; stroke-dashoffset: 0; stroke: #b0b0b0; stroke-width: 0.8"/>
     </g>
     <g id="line2d_26">
      <g>
       <use xlink:href="#mb9a2ff6591" x="57.6" y="156.590966" style="stroke: #000000; stroke-width: 0.8"/>
      </g>
     </g>
     <g id="text_14">
      <!-- 200 -->
      <g transform="translate(31.5125 160.390185)scale(0.1 -0.1)">
       <use xlink:href="#DejaVuSans-32"/>
       <use xlink:href="#DejaVuSans-30" x="63.623047"/>
       <use xlink:href="#DejaVuSans-30" x="127.246094"/>
      </g>
     </g>
    </g>
    <g id="ytick_5">
     <g id="line2d_27">
      <path d="M 57.6 110.59857 
L 414.72 110.59857 
" clip-path="url(#p1d136d2ebe)" style="fill: none; stroke-dasharray: 2.96,1.28; stroke-dashoffset: 0; stroke: #b0b0b0; stroke-width: 0.8"/>
     </g>
     <g id="line2d_28">
      <g>
       <use xlink:href="#mb9a2ff6591" x="57.6" y="110.59857" style="stroke: #000000; stroke-width: 0.8"/>
      </g>
     </g>
     <g id="text_15">
      <!-- 250 -->
      <g transform="translate(31.5125 114.397789)scale(0.1 -0.1)">
       <use xlink:href="#DejaVuSans-32"/>
       <use xlink:href="#DejaVuSans-35" x="63.623047"/>
       <use xlink:href="#DejaVuSans-30" x="127.246094"/>
      </g>
     </g>
    </g>
    <g id="ytick_6">
     <g id="line2d_29">
      <path d="M 57.6 64.606175 
L 414.72 64.606175 
" clip-path="url(#p1d136d2ebe)" style="fill: none; stroke-dasharray: 2.96,1.28; stroke-dashoffset: 0; stroke: #b0b0b0; stroke-width: 0.8"/>
     </g>
     <g id="line2d_30">
      <g>
       <use xlink:href="#mb9a2ff6591" x="57.6" y="64.606175" style="stroke: #000000; stroke-width: 0.8"/>
      </g>
     </g>
     <g id="text_16">
      <!-- 300 -->
      <g transform="translate(31.5125 68.405394)scale(0.1 -0.1)">
       <defs>
        <path id="DejaVuSans-33" d="M 2597 2516 
Q 3050 2419 3304 2112 
Q 3559 1806 3559 1356 
Q 3559 666 3084 287 
Q 2609 -91 1734 -91 
Q 1441 -91 1130 -33 
Q 819 25 488 141 
L 488 750 
Q 750 597 1062 519 
Q 1375 441 1716 441 
Q 2309 441 2620 675 
Q 2931 909 2931 1356 
Q 2931 1769 2642 2001 
Q 2353 2234 1838 2234 
L 1294 2234 
L 1294 2753 
L 1863 2753 
Q 2328 2753 2575 2939 
Q 2822 3125 2822 3475 
Q 2822 3834 2567 4026 
Q 2313 4219 1838 4219 
Q 1578 4219 1281 4162 
Q 984 4106 628 3988 
L 628 4550 
Q 988 4650 1302 4700 
Q 1616 4750 1894 4750 
Q 2613 4750 3031 4423 
Q 3450 4097 3450 3541 
Q 3450 3153 3228 2886 
Q 3006 2619 2597 2516 
z
" transform="scale(0.015625)"/>
       </defs>
       <use xlink:href="#DejaVuSans-33"/>
       <use xlink:href="#DejaVuSans-30" x="63.623047"/>
       <use xlink:href="#DejaVuSans-30" x="127.246094"/>
      </g>
     </g>
    </g>
    <g id="text_17">
     <!-- Reward Density -->
     <g transform="translate(25.432812 213.74675)rotate(-90)scale(0.1 -0.1)">
      <defs>
       <path id="DejaVuSans-52" d="M 2841 2188 
Q 3044 2119 3236 1894 
Q 3428 1669 3622 1275 
L 4263 0 
L 3584 0 
L 2988 1197 
Q 2756 1666 2539 1819 
Q 2322 1972 1947 1972 
L 1259 1972 
L 1259 0 
L 628 0 
L 628 4666 
L 2053 4666 
Q 2853 4666 3247 4331 
Q 3641 3997 3641 3322 
Q 3641 2881 3436 2590 
Q 3231 2300 2841 2188 
z
M 1259 4147 
L 1259 2491 
L 2053 2491 
Q 2509 2491 2742 2702 
Q 2975 2913 2975 3322 
Q 2975 3731 2742 3939 
Q 2509 4147 2053 4147 
L 1259 4147 
z
" transform="scale(0.015625)"/>
       <path id="DejaVuSans-77" d="M 269 3500 
L 844 3500 
L 1563 769 
L 2278 3500 
L 2956 3500 
L 3675 769 
L 4391 3500 
L 4966 3500 
L 4050 0 
L 3372 0 
L 2619 2869 
L 1863 0 
L 1184 0 
L 269 3500 
z
" transform="scale(0.015625)"/>
       <path id="DejaVuSans-44" d="M 1259 4147 
L 1259 519 
L 2022 519 
Q 2988 519 3436 956 
Q 3884 1394 3884 2338 
Q 3884 3275 3436 3711 
Q 2988 4147 2022 4147 
L 1259 4147 
z
M 628 4666 
L 1925 4666 
Q 3281 4666 3915 4102 
Q 4550 3538 4550 2338 
Q 4550 1131 3912 565 
Q 3275 0 1925 0 
L 628 0 
L 628 4666 
z
" transform="scale(0.015625)"/>
       <path id="DejaVuSans-74" d="M 1172 4494 
L 1172 3500 
L 2356 3500 
L 2356 3053 
L 1172 3053 
L 1172 1153 
Q 1172 725 1289 603 
Q 1406 481 1766 481 
L 2356 481 
L 2356 0 
L 1766 0 
Q 1100 0 847 248 
Q 594 497 594 1153 
L 594 3053 
L 172 3053 
L 172 3500 
L 594 3500 
L 594 4494 
L 1172 4494 
z
" transform="scale(0.015625)"/>
       <path id="DejaVuSans-79" d="M 2059 -325 
Q 1816 -950 1584 -1140 
Q 1353 -1331 966 -1331 
L 506 -1331 
L 506 -850 
L 844 -850 
Q 1081 -850 1212 -737 
Q 1344 -625 1503 -206 
L 1606 56 
L 191 3500 
L 800 3500 
L 1894 763 
L 2988 3500 
L 3597 3500 
L 2059 -325 
z
" transform="scale(0.015625)"/>
      </defs>
      <use xlink:href="#DejaVuSans-52"/>
      <use xlink:href="#DejaVuSans-65" x="64.982422"/>
      <use xlink:href="#DejaVuSans-77" x="126.505859"/>
      <use xlink:href="#DejaVuSans-61" x="208.292969"/>
      <use xlink:href="#DejaVuSans-72" x="269.572266"/>
      <use xlink:href="#DejaVuSans-64" x="308.935547"/>
      <use xlink:href="#DejaVuSans-20" x="372.412109"/>
      <use xlink:href="#DejaVuSans-44" x="404.199219"/>
      <use xlink:href="#DejaVuSans-65" x="481.201172"/>
      <use xlink:href="#DejaVuSans-6e" x="542.724609"/>
      <use xlink:href="#DejaVuSans-73" x="606.103516"/>
      <use xlink:href="#DejaVuSans-69" x="658.203125"/>
      <use xlink:href="#DejaVuSans-74" x="685.986328"/>
      <use xlink:href="#DejaVuSans-79" x="725.195312"/>
     </g>
    </g>
   </g>
   <g id="LineCollection_1">
    <path d="M 90.893768 176.04207 
L 125.01585 176.04207 
" clip-path="url(#p1d136d2ebe)" style="fill: none; stroke: #1f77b4; stroke-width: 1.5"/>
    <path d="M 176.198972 244.040906 
L 210.321054 244.040906 
" clip-path="url(#p1d136d2ebe)" style="fill: none; stroke: #1f77b4; stroke-width: 1.5"/>
    <path d="M 261.504176 250.441208 
L 295.626258 250.441208 
" clip-path="url(#p1d136d2ebe)" style="fill: none; stroke: #1f77b4; stroke-width: 1.5"/>
    <path d="M 346.80938 251.180766 
L 380.931462 251.180766 
" clip-path="url(#p1d136d2ebe)" style="fill: none; stroke: #1f77b4; stroke-width: 1.5"/>
    <path d="M 347.30415 259.001313 
L 381.426232 259.001313 
" clip-path="url(#p1d136d2ebe)" style="fill: none; stroke: #1f77b4; stroke-width: 1.5"/>
   </g>
   <g id="LineCollection_2">
    <path d="M 90.893768 53.568 
L 125.01585 53.568 
" clip-path="url(#p1d136d2ebe)" style="fill: none; stroke: #1f77b4; stroke-width: 1.5"/>
    <path d="M 176.198972 159.35051 
L 210.321054 159.35051 
" clip-path="url(#p1d136d2ebe)" style="fill: none; stroke: #1f77b4; stroke-width: 1.5"/>
    <path d="M 261.504176 185.106251 
L 295.626258 185.106251 
" clip-path="url(#p1d136d2ebe)" style="fill: none; stroke: #1f77b4; stroke-width: 1.5"/>
    <path d="M 346.80938 190.625338 
L 380.931462 190.625338 
" clip-path="url(#p1d136d2ebe)" style="fill: none; stroke: #1f77b4; stroke-width: 1.5"/>
    <path d="M 347.30415 191.545186 
L 381.426232 191.545186 
" clip-path="url(#p1d136d2ebe)" style="fill: none; stroke: #1f77b4; stroke-width: 1.5"/>
   </g>
   <g id="LineCollection_3">
    <path d="M 90.893768 247.655909 
L 125.01585 247.655909 
" clip-path="url(#p1d136d2ebe)" style="fill: none; stroke: #1f77b4; stroke-width: 1.5"/>
    <path d="M 176.198972 285.369673 
L 210.321054 285.369673 
" clip-path="url(#p1d136d2ebe)" style="fill: none; stroke: #1f77b4; stroke-width: 1.5"/>
    <path d="M 261.504176 290.88876 
L 295.626258 290.88876 
" clip-path="url(#p1d136d2ebe)" style="fill: none; stroke: #1f77b4; stroke-width: 1.5"/>
    <path d="M 346.80938 295.488 
L 380.931462 295.488 
" clip-path="url(#p1d136d2ebe)" style="fill: none; stroke: #1f77b4; stroke-width: 1.5"/>
    <path d="M 347.30415 294.568152 
L 381.426232 294.568152 
" clip-path="url(#p1d136d2ebe)" style="fill: none; stroke: #1f77b4; stroke-width: 1.5"/>
   </g>
   <g id="LineCollection_4">
    <path d="M 107.954809 247.655909 
L 107.954809 53.568 
" clip-path="url(#p1d136d2ebe)" style="fill: none; stroke: #1f77b4; stroke-width: 1.5"/>
    <path d="M 193.260013 285.369673 
L 193.260013 159.35051 
" clip-path="url(#p1d136d2ebe)" style="fill: none; stroke: #1f77b4; stroke-width: 1.5"/>
    <path d="M 278.565217 290.88876 
L 278.565217 185.106251 
" clip-path="url(#p1d136d2ebe)" style="fill: none; stroke: #1f77b4; stroke-width: 1.5"/>
    <path d="M 363.870421 295.488 
L 363.870421 190.625338 
" clip-path="url(#p1d136d2ebe)" style="fill: none; stroke: #1f77b4; stroke-width: 1.5"/>
    <path d="M 364.365191 294.568152 
L 364.365191 191.545186 
" clip-path="url(#p1d136d2ebe)" style="fill: none; stroke: #1f77b4; stroke-width: 1.5"/>
   </g>
   <g id="line2d_31">
    <path d="M 107.954809 176.04207 
L 193.260013 244.040906 
L 278.565217 250.441208 
L 363.870421 251.180766 
L 364.365191 259.001313 
" clip-path="url(#p1d136d2ebe)" style="fill: none; stroke: #4682b4; stroke-width: 1.5; stroke-linecap: square"/>
   </g>
   <g id="line2d_32">
    <path d="M 107.954809 176.04207 
L 193.260013 244.040906 
L 278.565217 250.441208 
L 363.870421 251.180766 
L 364.365191 259.001313 
" clip-path="url(#p1d136d2ebe)" style="fill: none; stroke: #4682b4; stroke-width: 1.5; stroke-linecap: square"/>
   </g>
   <g id="patch_3">
    <path d="M 57.6 307.584 
L 57.6 41.472 
" style="fill: none; stroke: #000000; stroke-width: 0.8; stroke-linejoin: miter; stroke-linecap: square"/>
   </g>
   <g id="patch_4">
    <path d="M 414.72 307.584 
L 414.72 41.472 
" style="fill: none; stroke: #000000; stroke-width: 0.8; stroke-linejoin: miter; stroke-linecap: square"/>
   </g>
   <g id="patch_5">
    <path d="M 57.6 307.584 
L 414.72 307.584 
" style="fill: none; stroke: #000000; stroke-width: 0.8; stroke-linejoin: miter; stroke-linecap: square"/>
   </g>
   <g id="patch_6">
    <path d="M 57.6 41.472 
L 414.72 41.472 
" style="fill: none; stroke: #000000; stroke-width: 0.8; stroke-linejoin: miter; stroke-linecap: square"/>
   </g>
   <g id="text_18">
    <!-- Violinplot for progress of customer/purchases_new -->
    <g transform="translate(84.319688 35.472)scale(0.12 -0.12)">
     <defs>
      <path id="DejaVuSans-56" d="M 1831 0 
L 50 4666 
L 709 4666 
L 2188 738 
L 3669 4666 
L 4325 4666 
L 2547 0 
L 1831 0 
z
" transform="scale(0.015625)"/>
      <path id="DejaVuSans-6c" d="M 603 4863 
L 1178 4863 
L 1178 0 
L 603 0 
L 603 4863 
z
" transform="scale(0.015625)"/>
      <path id="DejaVuSans-66" d="M 2375 4863 
L 2375 4384 
L 1825 4384 
Q 1516 4384 1395 4259 
Q 1275 4134 1275 3809 
L 1275 3500 
L 2222 3500 
L 2222 3053 
L 1275 3053 
L 1275 0 
L 697 0 
L 697 3053 
L 147 3053 
L 147 3500 
L 697 3500 
L 697 3744 
Q 697 4328 969 4595 
Q 1241 4863 1831 4863 
L 2375 4863 
z
" transform="scale(0.015625)"/>
      <path id="DejaVuSans-67" d="M 2906 1791 
Q 2906 2416 2648 2759 
Q 2391 3103 1925 3103 
Q 1463 3103 1205 2759 
Q 947 2416 947 1791 
Q 947 1169 1205 825 
Q 1463 481 1925 481 
Q 2391 481 2648 825 
Q 2906 1169 2906 1791 
z
M 3481 434 
Q 3481 -459 3084 -895 
Q 2688 -1331 1869 -1331 
Q 1566 -1331 1297 -1286 
Q 1028 -1241 775 -1147 
L 775 -588 
Q 1028 -725 1275 -790 
Q 1522 -856 1778 -856 
Q 2344 -856 2625 -561 
Q 2906 -266 2906 331 
L 2906 616 
Q 2728 306 2450 153 
Q 2172 0 1784 0 
Q 1141 0 747 490 
Q 353 981 353 1791 
Q 353 2603 747 3093 
Q 1141 3584 1784 3584 
Q 2172 3584 2450 3431 
Q 2728 3278 2906 2969 
L 2906 3500 
L 3481 3500 
L 3481 434 
z
" transform="scale(0.015625)"/>
      <path id="DejaVuSans-63" d="M 3122 3366 
L 3122 2828 
Q 2878 2963 2633 3030 
Q 2388 3097 2138 3097 
Q 1578 3097 1268 2742 
Q 959 2388 959 1747 
Q 959 1106 1268 751 
Q 1578 397 2138 397 
Q 2388 397 2633 464 
Q 2878 531 3122 666 
L 3122 134 
Q 2881 22 2623 -34 
Q 2366 -91 2075 -91 
Q 1284 -91 818 406 
Q 353 903 353 1747 
Q 353 2603 823 3093 
Q 1294 3584 2113 3584 
Q 2378 3584 2631 3529 
Q 2884 3475 3122 3366 
z
" transform="scale(0.015625)"/>
      <path id="DejaVuSans-75" d="M 544 1381 
L 544 3500 
L 1119 3500 
L 1119 1403 
Q 1119 906 1312 657 
Q 1506 409 1894 409 
Q 2359 409 2629 706 
Q 2900 1003 2900 1516 
L 2900 3500 
L 3475 3500 
L 3475 0 
L 2900 0 
L 2900 538 
Q 2691 219 2414 64 
Q 2138 -91 1772 -91 
Q 1169 -91 856 284 
Q 544 659 544 1381 
z
M 1991 3584 
L 1991 3584 
z
" transform="scale(0.015625)"/>
      <path id="DejaVuSans-6d" d="M 3328 2828 
Q 3544 3216 3844 3400 
Q 4144 3584 4550 3584 
Q 5097 3584 5394 3201 
Q 5691 2819 5691 2113 
L 5691 0 
L 5113 0 
L 5113 2094 
Q 5113 2597 4934 2840 
Q 4756 3084 4391 3084 
Q 3944 3084 3684 2787 
Q 3425 2491 3425 1978 
L 3425 0 
L 2847 0 
L 2847 2094 
Q 2847 2600 2669 2842 
Q 2491 3084 2119 3084 
Q 1678 3084 1418 2786 
Q 1159 2488 1159 1978 
L 1159 0 
L 581 0 
L 581 3500 
L 1159 3500 
L 1159 2956 
Q 1356 3278 1631 3431 
Q 1906 3584 2284 3584 
Q 2666 3584 2933 3390 
Q 3200 3197 3328 2828 
z
" transform="scale(0.015625)"/>
      <path id="DejaVuSans-2f" d="M 1625 4666 
L 2156 4666 
L 531 -594 
L 0 -594 
L 1625 4666 
z
" transform="scale(0.015625)"/>
      <path id="DejaVuSans-68" d="M 3513 2113 
L 3513 0 
L 2938 0 
L 2938 2094 
Q 2938 2591 2744 2837 
Q 2550 3084 2163 3084 
Q 1697 3084 1428 2787 
Q 1159 2491 1159 1978 
L 1159 0 
L 581 0 
L 581 4863 
L 1159 4863 
L 1159 2956 
Q 1366 3272 1645 3428 
Q 1925 3584 2291 3584 
Q 2894 3584 3203 3211 
Q 3513 2838 3513 2113 
z
" transform="scale(0.015625)"/>
      <path id="DejaVuSans-5f" d="M 3263 -1063 
L 3263 -1509 
L -63 -1509 
L -63 -1063 
L 3263 -1063 
z
" transform="scale(0.015625)"/>
     </defs>
     <use xlink:href="#DejaVuSans-56"/>
     <use xlink:href="#DejaVuSans-69" x="66.158203"/>
     <use xlink:href="#DejaVuSans-6f" x="93.941406"/>
     <use xlink:href="#DejaVuSans-6c" x="155.123047"/>
     <use xlink:href="#DejaVuSans-69" x="182.90625"/>
     <use xlink:href="#DejaVuSans-6e" x="210.689453"/>
     <use xlink:href="#DejaVuSans-70" x="274.068359"/>
     <use xlink:href="#DejaVuSans-6c" x="337.544922"/>
     <use xlink:href="#DejaVuSans-6f" x="365.328125"/>
     <use xlink:href="#DejaVuSans-74" x="426.509766"/>
     <use xlink:href="#DejaVuSans-20" x="465.71875"/>
     <use xlink:href="#DejaVuSans-66" x="497.505859"/>
     <use xlink:href="#DejaVuSans-6f" x="532.710938"/>
     <use xlink:href="#DejaVuSans-72" x="593.892578"/>
     <use xlink:href="#DejaVuSans-20" x="635.005859"/>
     <use xlink:href="#DejaVuSans-70" x="666.792969"/>
     <use xlink:href="#DejaVuSans-72" x="730.269531"/>
     <use xlink:href="#DejaVuSans-6f" x="769.132812"/>
     <use xlink:href="#DejaVuSans-67" x="830.314453"/>
     <use xlink:href="#DejaVuSans-72" x="893.791016"/>
     <use xlink:href="#DejaVuSans-65" x="932.654297"/>
     <use xlink:href="#DejaVuSans-73" x="994.177734"/>
     <use xlink:href="#DejaVuSans-73" x="1046.277344"/>
     <use xlink:href="#DejaVuSans-20" x="1098.376953"/>
     <use xlink:href="#DejaVuSans-6f" x="1130.164062"/>
     <use xlink:href="#DejaVuSans-66" x="1191.345703"/>
     <use xlink:href="#DejaVuSans-20" x="1226.550781"/>
     <use xlink:href="#DejaVuSans-63" x="1258.337891"/>
     <use xlink:href="#DejaVuSans-75" x="1313.318359"/>
     <use xlink:href="#DejaVuSans-73" x="1376.697266"/>
     <use xlink:href="#DejaVuSans-74" x="1428.796875"/>
     <use xlink:href="#DejaVuSans-6f" x="1468.005859"/>
     <use xlink:href="#DejaVuSans-6d" x="1529.1875"/>
     <use xlink:href="#DejaVuSans-65" x="1626.599609"/>
     <use xlink:href="#DejaVuSans-72" x="1688.123047"/>
     <use xlink:href="#DejaVuSans-2f" x="1729.236328"/>
     <use xlink:href="#DejaVuSans-70" x="1762.927734"/>
     <use xlink:href="#DejaVuSans-75" x="1826.404297"/>
     <use xlink:href="#DejaVuSans-72" x="1889.783203"/>
     <use xlink:href="#DejaVuSans-63" x="1928.646484"/>
     <use xlink:href="#DejaVuSans-68" x="1983.626953"/>
     <use xlink:href="#DejaVuSans-61" x="2047.005859"/>
     <use xlink:href="#DejaVuSans-73" x="2108.285156"/>
     <use xlink:href="#DejaVuSans-65" x="2160.384766"/>
     <use xlink:href="#DejaVuSans-73" x="2221.908203"/>
     <use xlink:href="#DejaVuSans-5f" x="2274.007812"/>
     <use xlink:href="#DejaVuSans-6e" x="2324.007812"/>
     <use xlink:href="#DejaVuSans-65" x="2387.386719"/>
     <use xlink:href="#DejaVuSans-77" x="2448.910156"/>
    </g>
   </g>
   <g id="legend_1">
    <g id="patch_7">
     <path d="M 276.504375 64.150125 
L 407.72 64.150125 
Q 409.72 64.150125 409.72 62.150125 
L 409.72 48.472 
Q 409.72 46.472 407.72 46.472 
L 276.504375 46.472 
Q 274.504375 46.472 274.504375 48.472 
L 274.504375 62.150125 
Q 274.504375 64.150125 276.504375 64.150125 
z
" style="fill: #ffffff; opacity: 0.8; stroke: #cccccc; stroke-linejoin: miter"/>
    </g>
    <g id="line2d_33">
     <path d="M 278.504375 54.570438 
L 288.504375 54.570438 
L 298.504375 54.570438 
" style="fill: none; stroke: #4682b4; stroke-width: 1.5; stroke-linecap: square"/>
    </g>
    <g id="text_19">
     <!-- StableBaselinesPPO -->
     <g transform="translate(306.504375 58.070438)scale(0.1 -0.1)">
      <defs>
       <path id="DejaVuSans-53" d="M 3425 4513 
L 3425 3897 
Q 3066 4069 2747 4153 
Q 2428 4238 2131 4238 
Q 1616 4238 1336 4038 
Q 1056 3838 1056 3469 
Q 1056 3159 1242 3001 
Q 1428 2844 1947 2747 
L 2328 2669 
Q 3034 2534 3370 2195 
Q 3706 1856 3706 1288 
Q 3706 609 3251 259 
Q 2797 -91 1919 -91 
Q 1588 -91 1214 -16 
Q 841 59 441 206 
L 441 856 
Q 825 641 1194 531 
Q 1563 422 1919 422 
Q 2459 422 2753 634 
Q 3047 847 3047 1241 
Q 3047 1584 2836 1778 
Q 2625 1972 2144 2069 
L 1759 2144 
Q 1053 2284 737 2584 
Q 422 2884 422 3419 
Q 422 4038 858 4394 
Q 1294 4750 2059 4750 
Q 2388 4750 2728 4690 
Q 3069 4631 3425 4513 
z
" transform="scale(0.015625)"/>
       <path id="DejaVuSans-62" d="M 3116 1747 
Q 3116 2381 2855 2742 
Q 2594 3103 2138 3103 
Q 1681 3103 1420 2742 
Q 1159 2381 1159 1747 
Q 1159 1113 1420 752 
Q 1681 391 2138 391 
Q 2594 391 2855 752 
Q 3116 1113 3116 1747 
z
M 1159 2969 
Q 1341 3281 1617 3432 
Q 1894 3584 2278 3584 
Q 2916 3584 3314 3078 
Q 3713 2572 3713 1747 
Q 3713 922 3314 415 
Q 2916 -91 2278 -91 
Q 1894 -91 1617 61 
Q 1341 213 1159 525 
L 1159 0 
L 581 0 
L 581 4863 
L 1159 4863 
L 1159 2969 
z
" transform="scale(0.015625)"/>
       <path id="DejaVuSans-42" d="M 1259 2228 
L 1259 519 
L 2272 519 
Q 2781 519 3026 730 
Q 3272 941 3272 1375 
Q 3272 1813 3026 2020 
Q 2781 2228 2272 2228 
L 1259 2228 
z
M 1259 4147 
L 1259 2741 
L 2194 2741 
Q 2656 2741 2882 2914 
Q 3109 3088 3109 3444 
Q 3109 3797 2882 3972 
Q 2656 4147 2194 4147 
L 1259 4147 
z
M 628 4666 
L 2241 4666 
Q 2963 4666 3353 4366 
Q 3744 4066 3744 3513 
Q 3744 3084 3544 2831 
Q 3344 2578 2956 2516 
Q 3422 2416 3680 2098 
Q 3938 1781 3938 1306 
Q 3938 681 3513 340 
Q 3088 0 2303 0 
L 628 0 
L 628 4666 
z
" transform="scale(0.015625)"/>
       <path id="DejaVuSans-50" d="M 1259 4147 
L 1259 2394 
L 2053 2394 
Q 2494 2394 2734 2622 
Q 2975 2850 2975 3272 
Q 2975 3691 2734 3919 
Q 2494 4147 2053 4147 
L 1259 4147 
z
M 628 4666 
L 2053 4666 
Q 2838 4666 3239 4311 
Q 3641 3956 3641 3272 
Q 3641 2581 3239 2228 
Q 2838 1875 2053 1875 
L 1259 1875 
L 1259 0 
L 628 0 
L 628 4666 
z
" transform="scale(0.015625)"/>
       <path id="DejaVuSans-4f" d="M 2522 4238 
Q 1834 4238 1429 3725 
Q 1025 3213 1025 2328 
Q 1025 1447 1429 934 
Q 1834 422 2522 422 
Q 3209 422 3611 934 
Q 4013 1447 4013 2328 
Q 4013 3213 3611 3725 
Q 3209 4238 2522 4238 
z
M 2522 4750 
Q 3503 4750 4090 4092 
Q 4678 3434 4678 2328 
Q 4678 1225 4090 567 
Q 3503 -91 2522 -91 
Q 1538 -91 948 565 
Q 359 1222 359 2328 
Q 359 3434 948 4092 
Q 1538 4750 2522 4750 
z
" transform="scale(0.015625)"/>
      </defs>
      <use xlink:href="#DejaVuSans-53"/>
      <use xlink:href="#DejaVuSans-74" x="63.476562"/>
      <use xlink:href="#DejaVuSans-61" x="102.685547"/>
      <use xlink:href="#DejaVuSans-62" x="163.964844"/>
      <use xlink:href="#DejaVuSans-6c" x="227.441406"/>
      <use xlink:href="#DejaVuSans-65" x="255.224609"/>
      <use xlink:href="#DejaVuSans-42" x="316.748047"/>
      <use xlink:href="#DejaVuSans-61" x="385.351562"/>
      <use xlink:href="#DejaVuSans-73" x="446.630859"/>
      <use xlink:href="#DejaVuSans-65" x="498.730469"/>
      <use xlink:href="#DejaVuSans-6c" x="560.253906"/>
      <use xlink:href="#DejaVuSans-69" x="588.037109"/>
      <use xlink:href="#DejaVuSans-6e" x="615.820312"/>
      <use xlink:href="#DejaVuSans-65" x="679.199219"/>
      <use xlink:href="#DejaVuSans-73" x="740.722656"/>
      <use xlink:href="#DejaVuSans-50" x="792.822266"/>
      <use xlink:href="#DejaVuSans-50" x="853.125"/>
      <use xlink:href="#DejaVuSans-4f" x="913.427734"/>
     </g>
    </g>
   </g>
  </g>
 </g>
 <defs>
  <clipPath id="p1d136d2ebe">
   <rect x="57.6" y="41.472" width="357.12" height="266.112"/>
  </clipPath>
 </defs>
</svg>
