<?xml version="1.0" encoding="utf-8" standalone="no"?>
<!DOCTYPE svg PUBLIC "-//W3C//DTD SVG 1.1//EN"
  "http://www.w3.org/Graphics/SVG/1.1/DTD/svg11.dtd">
<svg xmlns:xlink="http://www.w3.org/1999/xlink" width="460.8pt" height="345.6pt" viewBox="0 0 460.8 345.6" xmlns="http://www.w3.org/2000/svg" version="1.1">
 <metadata>
  <rdf:RDF xmlns:dc="http://purl.org/dc/elements/1.1/" xmlns:cc="http://creativecommons.org/ns#" xmlns:rdf="http://www.w3.org/1999/02/22-rdf-syntax-ns#">
   <cc:Work>
    <dc:type rdf:resource="http://purl.org/dc/dcmitype/StillImage"/>
    <dc:date>2022-06-16T13:15:13.654773</dc:date>
    <dc:format>image/svg+xml</dc:format>
    <dc:creator>
     <cc:Agent>
      <dc:title>Matplotlib v3.5.2, https://matplotlib.org/</dc:title>
     </cc:Agent>
    </dc:creator>
   </cc:Work>
  </rdf:RDF>
 </metadata>
 <defs>
  <style type="text/css">*{stroke-linejoin: round; stroke-linecap: butt}</style>
 </defs>
 <g id="figure_1">
  <g id="patch_1">
   <path d="M 0 345.6 
L 460.8 345.6 
L 460.8 0 
L 0 0 
z
" style="fill: #ffffff"/>
  </g>
  <g id="axes_1">
   <g id="patch_2">
    <path d="M 57.6 307.584 
L 414.72 307.584 
L 414.72 41.472 
L 57.6 41.472 
z
" style="fill: #ffffff"/>
   </g>
   <g id="matplotlib.axis_1">
    <g id="xtick_1">
     <g id="line2d_1">
      <defs>
       <path id="mdee837adb2" d="M 0 0 
L 0 3.5 
" style="stroke: #000000; stroke-width: 0.8"/>
      </defs>
      <g>
       <use xlink:href="#mdee837adb2" x="73.018921" y="307.584" style="stroke: #000000; stroke-width: 0.8"/>
      </g>
     </g>
     <g id="text_1">
      <!-- 0 -->
      <g transform="translate(69.837671 322.182437)scale(0.1 -0.1)">
       <defs>
        <path id="DejaVuSans-30" d="M 2034 4250 
Q 1547 4250 1301 3770 
Q 1056 3291 1056 2328 
Q 1056 1369 1301 889 
Q 1547 409 2034 409 
Q 2525 409 2770 889 
Q 3016 1369 3016 2328 
Q 3016 3291 2770 3770 
Q 2525 4250 2034 4250 
z
M 2034 4750 
Q 2819 4750 3233 4129 
Q 3647 3509 3647 2328 
Q 3647 1150 3233 529 
Q 2819 -91 2034 -91 
Q 1250 -91 836 529 
Q 422 1150 422 2328 
Q 422 3509 836 4129 
Q 1250 4750 2034 4750 
z
" transform="scale(0.015625)"/>
       </defs>
       <use xlink:href="#DejaVuSans-30"/>
      </g>
     </g>
    </g>
    <g id="xtick_2">
     <g id="line2d_2">
      <g>
       <use xlink:href="#mdee837adb2" x="127.272688" y="307.584" style="stroke: #000000; stroke-width: 0.8"/>
      </g>
     </g>
     <g id="text_2">
      <!-- 1000 -->
      <g transform="translate(114.547688 322.182437)scale(0.1 -0.1)">
       <defs>
        <path id="DejaVuSans-31" d="M 794 531 
L 1825 531 
L 1825 4091 
L 703 3866 
L 703 4441 
L 1819 4666 
L 2450 4666 
L 2450 531 
L 3481 531 
L 3481 0 
L 794 0 
L 794 531 
z
" transform="scale(0.015625)"/>
       </defs>
       <use xlink:href="#DejaVuSans-31"/>
       <use xlink:href="#DejaVuSans-30" x="63.623047"/>
       <use xlink:href="#DejaVuSans-30" x="127.246094"/>
       <use xlink:href="#DejaVuSans-30" x="190.869141"/>
      </g>
     </g>
    </g>
    <g id="xtick_3">
     <g id="line2d_3">
      <g>
       <use xlink:href="#mdee837adb2" x="181.526456" y="307.584" style="stroke: #000000; stroke-width: 0.8"/>
      </g>
     </g>
     <g id="text_3">
      <!-- 2000 -->
      <g transform="translate(168.801456 322.182437)scale(0.1 -0.1)">
       <defs>
        <path id="DejaVuSans-32" d="M 1228 531 
L 3431 531 
L 3431 0 
L 469 0 
L 469 531 
Q 828 903 1448 1529 
Q 2069 2156 2228 2338 
Q 2531 2678 2651 2914 
Q 2772 3150 2772 3378 
Q 2772 3750 2511 3984 
Q 2250 4219 1831 4219 
Q 1534 4219 1204 4116 
Q 875 4013 500 3803 
L 500 4441 
Q 881 4594 1212 4672 
Q 1544 4750 1819 4750 
Q 2544 4750 2975 4387 
Q 3406 4025 3406 3419 
Q 3406 3131 3298 2873 
Q 3191 2616 2906 2266 
Q 2828 2175 2409 1742 
Q 1991 1309 1228 531 
z
" transform="scale(0.015625)"/>
       </defs>
       <use xlink:href="#DejaVuSans-32"/>
       <use xlink:href="#DejaVuSans-30" x="63.623047"/>
       <use xlink:href="#DejaVuSans-30" x="127.246094"/>
       <use xlink:href="#DejaVuSans-30" x="190.869141"/>
      </g>
     </g>
    </g>
    <g id="xtick_4">
     <g id="line2d_4">
      <g>
       <use xlink:href="#mdee837adb2" x="235.780224" y="307.584" style="stroke: #000000; stroke-width: 0.8"/>
      </g>
     </g>
     <g id="text_4">
      <!-- 3000 -->
      <g transform="translate(223.055224 322.182437)scale(0.1 -0.1)">
       <defs>
        <path id="DejaVuSans-33" d="M 2597 2516 
Q 3050 2419 3304 2112 
Q 3559 1806 3559 1356 
Q 3559 666 3084 287 
Q 2609 -91 1734 -91 
Q 1441 -91 1130 -33 
Q 819 25 488 141 
L 488 750 
Q 750 597 1062 519 
Q 1375 441 1716 441 
Q 2309 441 2620 675 
Q 2931 909 2931 1356 
Q 2931 1769 2642 2001 
Q 2353 2234 1838 2234 
L 1294 2234 
L 1294 2753 
L 1863 2753 
Q 2328 2753 2575 2939 
Q 2822 3125 2822 3475 
Q 2822 3834 2567 4026 
Q 2313 4219 1838 4219 
Q 1578 4219 1281 4162 
Q 984 4106 628 3988 
L 628 4550 
Q 988 4650 1302 4700 
Q 1616 4750 1894 4750 
Q 2613 4750 3031 4423 
Q 3450 4097 3450 3541 
Q 3450 3153 3228 2886 
Q 3006 2619 2597 2516 
z
" transform="scale(0.015625)"/>
       </defs>
       <use xlink:href="#DejaVuSans-33"/>
       <use xlink:href="#DejaVuSans-30" x="63.623047"/>
       <use xlink:href="#DejaVuSans-30" x="127.246094"/>
       <use xlink:href="#DejaVuSans-30" x="190.869141"/>
      </g>
     </g>
    </g>
    <g id="xtick_5">
     <g id="line2d_5">
      <g>
       <use xlink:href="#mdee837adb2" x="290.033991" y="307.584" style="stroke: #000000; stroke-width: 0.8"/>
      </g>
     </g>
     <g id="text_5">
      <!-- 4000 -->
      <g transform="translate(277.308991 322.182437)scale(0.1 -0.1)">
       <defs>
        <path id="DejaVuSans-34" d="M 2419 4116 
L 825 1625 
L 2419 1625 
L 2419 4116 
z
M 2253 4666 
L 3047 4666 
L 3047 1625 
L 3713 1625 
L 3713 1100 
L 3047 1100 
L 3047 0 
L 2419 0 
L 2419 1100 
L 313 1100 
L 313 1709 
L 2253 4666 
z
" transform="scale(0.015625)"/>
       </defs>
       <use xlink:href="#DejaVuSans-34"/>
       <use xlink:href="#DejaVuSans-30" x="63.623047"/>
       <use xlink:href="#DejaVuSans-30" x="127.246094"/>
       <use xlink:href="#DejaVuSans-30" x="190.869141"/>
      </g>
     </g>
    </g>
    <g id="xtick_6">
     <g id="line2d_6">
      <g>
       <use xlink:href="#mdee837adb2" x="344.287759" y="307.584" style="stroke: #000000; stroke-width: 0.8"/>
      </g>
     </g>
     <g id="text_6">
      <!-- 5000 -->
      <g transform="translate(331.562759 322.182437)scale(0.1 -0.1)">
       <defs>
        <path id="DejaVuSans-35" d="M 691 4666 
L 3169 4666 
L 3169 4134 
L 1269 4134 
L 1269 2991 
Q 1406 3038 1543 3061 
Q 1681 3084 1819 3084 
Q 2600 3084 3056 2656 
Q 3513 2228 3513 1497 
Q 3513 744 3044 326 
Q 2575 -91 1722 -91 
Q 1428 -91 1123 -41 
Q 819 9 494 109 
L 494 744 
Q 775 591 1075 516 
Q 1375 441 1709 441 
Q 2250 441 2565 725 
Q 2881 1009 2881 1497 
Q 2881 1984 2565 2268 
Q 2250 2553 1709 2553 
Q 1456 2553 1204 2497 
Q 953 2441 691 2322 
L 691 4666 
z
" transform="scale(0.015625)"/>
       </defs>
       <use xlink:href="#DejaVuSans-35"/>
       <use xlink:href="#DejaVuSans-30" x="63.623047"/>
       <use xlink:href="#DejaVuSans-30" x="127.246094"/>
       <use xlink:href="#DejaVuSans-30" x="190.869141"/>
      </g>
     </g>
    </g>
    <g id="xtick_7">
     <g id="line2d_7">
      <g>
       <use xlink:href="#mdee837adb2" x="398.541526" y="307.584" style="stroke: #000000; stroke-width: 0.8"/>
      </g>
     </g>
     <g id="text_7">
      <!-- 6000 -->
      <g transform="translate(385.816526 322.182437)scale(0.1 -0.1)">
       <defs>
        <path id="DejaVuSans-36" d="M 2113 2584 
Q 1688 2584 1439 2293 
Q 1191 2003 1191 1497 
Q 1191 994 1439 701 
Q 1688 409 2113 409 
Q 2538 409 2786 701 
Q 3034 994 3034 1497 
Q 3034 2003 2786 2293 
Q 2538 2584 2113 2584 
z
M 3366 4563 
L 3366 3988 
Q 3128 4100 2886 4159 
Q 2644 4219 2406 4219 
Q 1781 4219 1451 3797 
Q 1122 3375 1075 2522 
Q 1259 2794 1537 2939 
Q 1816 3084 2150 3084 
Q 2853 3084 3261 2657 
Q 3669 2231 3669 1497 
Q 3669 778 3244 343 
Q 2819 -91 2113 -91 
Q 1303 -91 875 529 
Q 447 1150 447 2328 
Q 447 3434 972 4092 
Q 1497 4750 2381 4750 
Q 2619 4750 2861 4703 
Q 3103 4656 3366 4563 
z
" transform="scale(0.015625)"/>
       </defs>
       <use xlink:href="#DejaVuSans-36"/>
       <use xlink:href="#DejaVuSans-30" x="63.623047"/>
       <use xlink:href="#DejaVuSans-30" x="127.246094"/>
       <use xlink:href="#DejaVuSans-30" x="190.869141"/>
      </g>
     </g>
    </g>
    <g id="text_8">
     <!-- Episode -->
     <g transform="translate(216.5225 335.860562)scale(0.1 -0.1)">
      <defs>
       <path id="DejaVuSans-45" d="M 628 4666 
L 3578 4666 
L 3578 4134 
L 1259 4134 
L 1259 2753 
L 3481 2753 
L 3481 2222 
L 1259 2222 
L 1259 531 
L 3634 531 
L 3634 0 
L 628 0 
L 628 4666 
z
" transform="scale(0.015625)"/>
       <path id="DejaVuSans-70" d="M 1159 525 
L 1159 -1331 
L 581 -1331 
L 581 3500 
L 1159 3500 
L 1159 2969 
Q 1341 3281 1617 3432 
Q 1894 3584 2278 3584 
Q 2916 3584 3314 3078 
Q 3713 2572 3713 1747 
Q 3713 922 3314 415 
Q 2916 -91 2278 -91 
Q 1894 -91 1617 61 
Q 1341 213 1159 525 
z
M 3116 1747 
Q 3116 2381 2855 2742 
Q 2594 3103 2138 3103 
Q 1681 3103 1420 2742 
Q 1159 2381 1159 1747 
Q 1159 1113 1420 752 
Q 1681 391 2138 391 
Q 2594 391 2855 752 
Q 3116 1113 3116 1747 
z
" transform="scale(0.015625)"/>
       <path id="DejaVuSans-69" d="M 603 3500 
L 1178 3500 
L 1178 0 
L 603 0 
L 603 3500 
z
M 603 4863 
L 1178 4863 
L 1178 4134 
L 603 4134 
L 603 4863 
z
" transform="scale(0.015625)"/>
       <path id="DejaVuSans-73" d="M 2834 3397 
L 2834 2853 
Q 2591 2978 2328 3040 
Q 2066 3103 1784 3103 
Q 1356 3103 1142 2972 
Q 928 2841 928 2578 
Q 928 2378 1081 2264 
Q 1234 2150 1697 2047 
L 1894 2003 
Q 2506 1872 2764 1633 
Q 3022 1394 3022 966 
Q 3022 478 2636 193 
Q 2250 -91 1575 -91 
Q 1294 -91 989 -36 
Q 684 19 347 128 
L 347 722 
Q 666 556 975 473 
Q 1284 391 1588 391 
Q 1994 391 2212 530 
Q 2431 669 2431 922 
Q 2431 1156 2273 1281 
Q 2116 1406 1581 1522 
L 1381 1569 
Q 847 1681 609 1914 
Q 372 2147 372 2553 
Q 372 3047 722 3315 
Q 1072 3584 1716 3584 
Q 2034 3584 2315 3537 
Q 2597 3491 2834 3397 
z
" transform="scale(0.015625)"/>
       <path id="DejaVuSans-6f" d="M 1959 3097 
Q 1497 3097 1228 2736 
Q 959 2375 959 1747 
Q 959 1119 1226 758 
Q 1494 397 1959 397 
Q 2419 397 2687 759 
Q 2956 1122 2956 1747 
Q 2956 2369 2687 2733 
Q 2419 3097 1959 3097 
z
M 1959 3584 
Q 2709 3584 3137 3096 
Q 3566 2609 3566 1747 
Q 3566 888 3137 398 
Q 2709 -91 1959 -91 
Q 1206 -91 779 398 
Q 353 888 353 1747 
Q 353 2609 779 3096 
Q 1206 3584 1959 3584 
z
" transform="scale(0.015625)"/>
       <path id="DejaVuSans-64" d="M 2906 2969 
L 2906 4863 
L 3481 4863 
L 3481 0 
L 2906 0 
L 2906 525 
Q 2725 213 2448 61 
Q 2172 -91 1784 -91 
Q 1150 -91 751 415 
Q 353 922 353 1747 
Q 353 2572 751 3078 
Q 1150 3584 1784 3584 
Q 2172 3584 2448 3432 
Q 2725 3281 2906 2969 
z
M 947 1747 
Q 947 1113 1208 752 
Q 1469 391 1925 391 
Q 2381 391 2643 752 
Q 2906 1113 2906 1747 
Q 2906 2381 2643 2742 
Q 2381 3103 1925 3103 
Q 1469 3103 1208 2742 
Q 947 2381 947 1747 
z
" transform="scale(0.015625)"/>
       <path id="DejaVuSans-65" d="M 3597 1894 
L 3597 1613 
L 953 1613 
Q 991 1019 1311 708 
Q 1631 397 2203 397 
Q 2534 397 2845 478 
Q 3156 559 3463 722 
L 3463 178 
Q 3153 47 2828 -22 
Q 2503 -91 2169 -91 
Q 1331 -91 842 396 
Q 353 884 353 1716 
Q 353 2575 817 3079 
Q 1281 3584 2069 3584 
Q 2775 3584 3186 3129 
Q 3597 2675 3597 1894 
z
M 3022 2063 
Q 3016 2534 2758 2815 
Q 2500 3097 2075 3097 
Q 1594 3097 1305 2825 
Q 1016 2553 972 2059 
L 3022 2063 
z
" transform="scale(0.015625)"/>
      </defs>
      <use xlink:href="#DejaVuSans-45"/>
      <use xlink:href="#DejaVuSans-70" x="63.183594"/>
      <use xlink:href="#DejaVuSans-69" x="126.660156"/>
      <use xlink:href="#DejaVuSans-73" x="154.443359"/>
      <use xlink:href="#DejaVuSans-6f" x="206.542969"/>
      <use xlink:href="#DejaVuSans-64" x="267.724609"/>
      <use xlink:href="#DejaVuSans-65" x="331.201172"/>
     </g>
    </g>
   </g>
   <g id="matplotlib.axis_2">
    <g id="ytick_1">
     <g id="line2d_8">
      <defs>
       <path id="ma8be33fd57" d="M 0 0 
L -3.5 0 
" style="stroke: #000000; stroke-width: 0.8"/>
      </defs>
      <g>
       <use xlink:href="#ma8be33fd57" x="57.6" y="279.289017" style="stroke: #000000; stroke-width: 0.8"/>
      </g>
     </g>
     <g id="text_9">
      <!-- 250 -->
      <g transform="translate(31.5125 283.088235)scale(0.1 -0.1)">
       <use xlink:href="#DejaVuSans-32"/>
       <use xlink:href="#DejaVuSans-35" x="63.623047"/>
       <use xlink:href="#DejaVuSans-30" x="127.246094"/>
      </g>
     </g>
    </g>
    <g id="ytick_2">
     <g id="line2d_9">
      <g>
       <use xlink:href="#ma8be33fd57" x="57.6" y="248.20814" style="stroke: #000000; stroke-width: 0.8"/>
      </g>
     </g>
     <g id="text_10">
      <!-- 300 -->
      <g transform="translate(31.5125 252.007359)scale(0.1 -0.1)">
       <use xlink:href="#DejaVuSans-33"/>
       <use xlink:href="#DejaVuSans-30" x="63.623047"/>
       <use xlink:href="#DejaVuSans-30" x="127.246094"/>
      </g>
     </g>
    </g>
    <g id="ytick_3">
     <g id="line2d_10">
      <g>
       <use xlink:href="#ma8be33fd57" x="57.6" y="217.127264" style="stroke: #000000; stroke-width: 0.8"/>
      </g>
     </g>
     <g id="text_11">
      <!-- 350 -->
      <g transform="translate(31.5125 220.926483)scale(0.1 -0.1)">
       <use xlink:href="#DejaVuSans-33"/>
       <use xlink:href="#DejaVuSans-35" x="63.623047"/>
       <use xlink:href="#DejaVuSans-30" x="127.246094"/>
      </g>
     </g>
    </g>
    <g id="ytick_4">
     <g id="line2d_11">
      <g>
       <use xlink:href="#ma8be33fd57" x="57.6" y="186.046388" style="stroke: #000000; stroke-width: 0.8"/>
      </g>
     </g>
     <g id="text_12">
      <!-- 400 -->
      <g transform="translate(31.5125 189.845607)scale(0.1 -0.1)">
       <use xlink:href="#DejaVuSans-34"/>
       <use xlink:href="#DejaVuSans-30" x="63.623047"/>
       <use xlink:href="#DejaVuSans-30" x="127.246094"/>
      </g>
     </g>
    </g>
    <g id="ytick_5">
     <g id="line2d_12">
      <g>
       <use xlink:href="#ma8be33fd57" x="57.6" y="154.965512" style="stroke: #000000; stroke-width: 0.8"/>
      </g>
     </g>
     <g id="text_13">
      <!-- 450 -->
      <g transform="translate(31.5125 158.764731)scale(0.1 -0.1)">
       <use xlink:href="#DejaVuSans-34"/>
       <use xlink:href="#DejaVuSans-35" x="63.623047"/>
       <use xlink:href="#DejaVuSans-30" x="127.246094"/>
      </g>
     </g>
    </g>
    <g id="ytick_6">
     <g id="line2d_13">
      <g>
       <use xlink:href="#ma8be33fd57" x="57.6" y="123.884636" style="stroke: #000000; stroke-width: 0.8"/>
      </g>
     </g>
     <g id="text_14">
      <!-- 500 -->
      <g transform="translate(31.5125 127.683854)scale(0.1 -0.1)">
       <use xlink:href="#DejaVuSans-35"/>
       <use xlink:href="#DejaVuSans-30" x="63.623047"/>
       <use xlink:href="#DejaVuSans-30" x="127.246094"/>
      </g>
     </g>
    </g>
    <g id="ytick_7">
     <g id="line2d_14">
      <g>
       <use xlink:href="#ma8be33fd57" x="57.6" y="92.80376" style="stroke: #000000; stroke-width: 0.8"/>
      </g>
     </g>
     <g id="text_15">
      <!-- 550 -->
      <g transform="translate(31.5125 96.602978)scale(0.1 -0.1)">
       <use xlink:href="#DejaVuSans-35"/>
       <use xlink:href="#DejaVuSans-35" x="63.623047"/>
       <use xlink:href="#DejaVuSans-30" x="127.246094"/>
      </g>
     </g>
    </g>
    <g id="ytick_8">
     <g id="line2d_15">
      <g>
       <use xlink:href="#ma8be33fd57" x="57.6" y="61.722883" style="stroke: #000000; stroke-width: 0.8"/>
      </g>
     </g>
     <g id="text_16">
      <!-- 600 -->
      <g transform="translate(31.5125 65.522102)scale(0.1 -0.1)">
       <use xlink:href="#DejaVuSans-36"/>
       <use xlink:href="#DejaVuSans-30" x="63.623047"/>
       <use xlink:href="#DejaVuSans-30" x="127.246094"/>
      </g>
     </g>
    </g>
    <g id="text_17">
     <!-- customer/buy_nothing -->
     <g transform="translate(25.154687 230.648313)rotate(-90)scale(0.1 -0.1)">
      <defs>
       <path id="DejaVuSans-63" d="M 3122 3366 
L 3122 2828 
Q 2878 2963 2633 3030 
Q 2388 3097 2138 3097 
Q 1578 3097 1268 2742 
Q 959 2388 959 1747 
Q 959 1106 1268 751 
Q 1578 397 2138 397 
Q 2388 397 2633 464 
Q 2878 531 3122 666 
L 3122 134 
Q 2881 22 2623 -34 
Q 2366 -91 2075 -91 
Q 1284 -91 818 406 
Q 353 903 353 1747 
Q 353 2603 823 3093 
Q 1294 3584 2113 3584 
Q 2378 3584 2631 3529 
Q 2884 3475 3122 3366 
z
" transform="scale(0.015625)"/>
       <path id="DejaVuSans-75" d="M 544 1381 
L 544 3500 
L 1119 3500 
L 1119 1403 
Q 1119 906 1312 657 
Q 1506 409 1894 409 
Q 2359 409 2629 706 
Q 2900 1003 2900 1516 
L 2900 3500 
L 3475 3500 
L 3475 0 
L 2900 0 
L 2900 538 
Q 2691 219 2414 64 
Q 2138 -91 1772 -91 
Q 1169 -91 856 284 
Q 544 659 544 1381 
z
M 1991 3584 
L 1991 3584 
z
" transform="scale(0.015625)"/>
       <path id="DejaVuSans-74" d="M 1172 4494 
L 1172 3500 
L 2356 3500 
L 2356 3053 
L 1172 3053 
L 1172 1153 
Q 1172 725 1289 603 
Q 1406 481 1766 481 
L 2356 481 
L 2356 0 
L 1766 0 
Q 1100 0 847 248 
Q 594 497 594 1153 
L 594 3053 
L 172 3053 
L 172 3500 
L 594 3500 
L 594 4494 
L 1172 4494 
z
" transform="scale(0.015625)"/>
       <path id="DejaVuSans-6d" d="M 3328 2828 
Q 3544 3216 3844 3400 
Q 4144 3584 4550 3584 
Q 5097 3584 5394 3201 
Q 5691 2819 5691 2113 
L 5691 0 
L 5113 0 
L 5113 2094 
Q 5113 2597 4934 2840 
Q 4756 3084 4391 3084 
Q 3944 3084 3684 2787 
Q 3425 2491 3425 1978 
L 3425 0 
L 2847 0 
L 2847 2094 
Q 2847 2600 2669 2842 
Q 2491 3084 2119 3084 
Q 1678 3084 1418 2786 
Q 1159 2488 1159 1978 
L 1159 0 
L 581 0 
L 581 3500 
L 1159 3500 
L 1159 2956 
Q 1356 3278 1631 3431 
Q 1906 3584 2284 3584 
Q 2666 3584 2933 3390 
Q 3200 3197 3328 2828 
z
" transform="scale(0.015625)"/>
       <path id="DejaVuSans-72" d="M 2631 2963 
Q 2534 3019 2420 3045 
Q 2306 3072 2169 3072 
Q 1681 3072 1420 2755 
Q 1159 2438 1159 1844 
L 1159 0 
L 581 0 
L 581 3500 
L 1159 3500 
L 1159 2956 
Q 1341 3275 1631 3429 
Q 1922 3584 2338 3584 
Q 2397 3584 2469 3576 
Q 2541 3569 2628 3553 
L 2631 2963 
z
" transform="scale(0.015625)"/>
       <path id="DejaVuSans-2f" d="M 1625 4666 
L 2156 4666 
L 531 -594 
L 0 -594 
L 1625 4666 
z
" transform="scale(0.015625)"/>
       <path id="DejaVuSans-62" d="M 3116 1747 
Q 3116 2381 2855 2742 
Q 2594 3103 2138 3103 
Q 1681 3103 1420 2742 
Q 1159 2381 1159 1747 
Q 1159 1113 1420 752 
Q 1681 391 2138 391 
Q 2594 391 2855 752 
Q 3116 1113 3116 1747 
z
M 1159 2969 
Q 1341 3281 1617 3432 
Q 1894 3584 2278 3584 
Q 2916 3584 3314 3078 
Q 3713 2572 3713 1747 
Q 3713 922 3314 415 
Q 2916 -91 2278 -91 
Q 1894 -91 1617 61 
Q 1341 213 1159 525 
L 1159 0 
L 581 0 
L 581 4863 
L 1159 4863 
L 1159 2969 
z
" transform="scale(0.015625)"/>
       <path id="DejaVuSans-79" d="M 2059 -325 
Q 1816 -950 1584 -1140 
Q 1353 -1331 966 -1331 
L 506 -1331 
L 506 -850 
L 844 -850 
Q 1081 -850 1212 -737 
Q 1344 -625 1503 -206 
L 1606 56 
L 191 3500 
L 800 3500 
L 1894 763 
L 2988 3500 
L 3597 3500 
L 2059 -325 
z
" transform="scale(0.015625)"/>
       <path id="DejaVuSans-5f" d="M 3263 -1063 
L 3263 -1509 
L -63 -1509 
L -63 -1063 
L 3263 -1063 
z
" transform="scale(0.015625)"/>
       <path id="DejaVuSans-6e" d="M 3513 2113 
L 3513 0 
L 2938 0 
L 2938 2094 
Q 2938 2591 2744 2837 
Q 2550 3084 2163 3084 
Q 1697 3084 1428 2787 
Q 1159 2491 1159 1978 
L 1159 0 
L 581 0 
L 581 3500 
L 1159 3500 
L 1159 2956 
Q 1366 3272 1645 3428 
Q 1925 3584 2291 3584 
Q 2894 3584 3203 3211 
Q 3513 2838 3513 2113 
z
" transform="scale(0.015625)"/>
       <path id="DejaVuSans-68" d="M 3513 2113 
L 3513 0 
L 2938 0 
L 2938 2094 
Q 2938 2591 2744 2837 
Q 2550 3084 2163 3084 
Q 1697 3084 1428 2787 
Q 1159 2491 1159 1978 
L 1159 0 
L 581 0 
L 581 4863 
L 1159 4863 
L 1159 2956 
Q 1366 3272 1645 3428 
Q 1925 3584 2291 3584 
Q 2894 3584 3203 3211 
Q 3513 2838 3513 2113 
z
" transform="scale(0.015625)"/>
       <path id="DejaVuSans-67" d="M 2906 1791 
Q 2906 2416 2648 2759 
Q 2391 3103 1925 3103 
Q 1463 3103 1205 2759 
Q 947 2416 947 1791 
Q 947 1169 1205 825 
Q 1463 481 1925 481 
Q 2391 481 2648 825 
Q 2906 1169 2906 1791 
z
M 3481 434 
Q 3481 -459 3084 -895 
Q 2688 -1331 1869 -1331 
Q 1566 -1331 1297 -1286 
Q 1028 -1241 775 -1147 
L 775 -588 
Q 1028 -725 1275 -790 
Q 1522 -856 1778 -856 
Q 2344 -856 2625 -561 
Q 2906 -266 2906 331 
L 2906 616 
Q 2728 306 2450 153 
Q 2172 0 1784 0 
Q 1141 0 747 490 
Q 353 981 353 1791 
Q 353 2603 747 3093 
Q 1141 3584 1784 3584 
Q 2172 3584 2450 3431 
Q 2728 3278 2906 2969 
L 2906 3500 
L 3481 3500 
L 3481 434 
z
" transform="scale(0.015625)"/>
      </defs>
      <use xlink:href="#DejaVuSans-63"/>
      <use xlink:href="#DejaVuSans-75" x="54.980469"/>
      <use xlink:href="#DejaVuSans-73" x="118.359375"/>
      <use xlink:href="#DejaVuSans-74" x="170.458984"/>
      <use xlink:href="#DejaVuSans-6f" x="209.667969"/>
      <use xlink:href="#DejaVuSans-6d" x="270.849609"/>
      <use xlink:href="#DejaVuSans-65" x="368.261719"/>
      <use xlink:href="#DejaVuSans-72" x="429.785156"/>
      <use xlink:href="#DejaVuSans-2f" x="470.898438"/>
      <use xlink:href="#DejaVuSans-62" x="504.589844"/>
      <use xlink:href="#DejaVuSans-75" x="568.066406"/>
      <use xlink:href="#DejaVuSans-79" x="631.445312"/>
      <use xlink:href="#DejaVuSans-5f" x="690.625"/>
      <use xlink:href="#DejaVuSans-6e" x="740.625"/>
      <use xlink:href="#DejaVuSans-6f" x="804.003906"/>
      <use xlink:href="#DejaVuSans-74" x="865.185547"/>
      <use xlink:href="#DejaVuSans-68" x="904.394531"/>
      <use xlink:href="#DejaVuSans-69" x="967.773438"/>
      <use xlink:href="#DejaVuSans-6e" x="995.556641"/>
      <use xlink:href="#DejaVuSans-67" x="1058.935547"/>
     </g>
    </g>
   </g>
   <g id="line2d_16">
    <path d="M 73.832727 276.841398 
L 74.429519 169.009463 
L 75.080564 122.402317 
L 75.297579 115.52894 
L 75.351833 115.478671 
L 75.785863 110.72308 
L 76.057132 113.197177 
L 76.274147 111.268857 
L 76.328401 111.121424 
L 76.545416 108.607914 
L 76.653923 110.364455 
L 76.925192 108.761448 
L 77.0337 109.570856 
L 77.087953 109.448387 
L 77.142207 109.28066 
L 77.250715 109.807753 
L 77.304968 109.315475 
L 77.359222 109.495341 
L 77.521983 110.793667 
L 77.576237 110.786789 
L 77.630491 111.033055 
L 78.064521 117.827171 
L 78.444298 121.841299 
L 78.878328 110.233669 
L 79.258104 105.500759 
L 79.420865 104.466781 
L 80.343179 130.088502 
L 80.722956 134.722937 
L 80.77721 135.221462 
L 80.831463 135.018359 
L 80.939971 134.292113 
L 81.102732 136.015409 
L 81.64527 130.020801 
L 81.753777 130.654728 
L 81.862285 130.987078 
L 81.916539 130.186976 
L 82.025046 131.497912 
L 82.133554 130.063883 
L 82.187807 130.199285 
L 82.350569 128.272886 
L 82.404823 128.469834 
L 82.621838 126.414188 
L 83.272883 118.616273 
L 84.846242 83.060982 
L 84.900496 82.605539 
L 85.280272 73.909049 
L 85.38878 72.893535 
L 85.768556 65.852639 
L 85.877064 64.184735 
L 86.039825 64.320137 
L 86.094079 64.141653 
L 86.365348 61.86444 
L 86.582363 60.276546 
L 86.636616 60.467339 
L 86.69087 60.37502 
L 86.799378 60.658133 
L 86.962139 59.858031 
L 87.1249 60.147298 
L 87.287662 59.131785 
L 87.396169 59.611846 
L 87.55893 58.017797 
L 87.721692 56.029852 
L 87.775946 56.608387 
L 87.830199 56.294501 
L 87.884453 56.21449 
L 88.047214 54.774307 
L 88.101468 56.122171 
L 88.155722 55.131276 
L 88.264229 56.682242 
L 88.372737 56.30681 
L 88.481245 56.005233 
L 88.806767 53.568 
L 88.861021 53.881886 
L 89.078036 55.5621 
L 89.13229 55.05742 
L 89.186544 55.063575 
L 89.403559 57.328478 
L 89.457812 57.322324 
L 89.729081 60.141144 
L 89.891842 59.027156 
L 89.946096 58.910218 
L 90.163111 61.218204 
L 90.43438 64.215508 
L 90.597141 66.031124 
L 90.651395 64.701724 
L 90.705649 64.892517 
L 90.759903 65.071002 
L 90.814157 64.677105 
L 90.976918 66.209608 
L 91.031172 65.975732 
L 91.139679 67.409761 
L 91.30244 68.646841 
L 91.356694 68.696078 
L 91.465202 69.440788 
L 91.519456 69.410015 
L 91.573709 68.843789 
L 91.627963 69.237685 
L 91.844978 70.610168 
L 91.899232 71.293331 
L 91.953486 70.745569 
L 92.007739 70.659405 
L 92.713038 77.54028 
L 92.8758 76.980209 
L 93.038561 79.10971 
L 93.30983 83.996486 
L 93.74386 88.56322 
L 93.960875 90.914288 
L 94.069383 91.855947 
L 94.123636 91.739009 
L 94.17789 92.21907 
L 94.340651 95.474868 
L 94.449159 95.924156 
L 94.937443 102.263424 
L 95.317219 105.956202 
L 95.371473 106.374716 
L 95.588488 109.772072 
L 95.805503 111.089162 
L 95.914011 112.393943 
L 96.510802 122.235195 
L 96.836325 126.537281 
L 96.944832 127.325073 
L 97.270355 132.021055 
L 97.324609 131.928736 
L 97.378862 132.174921 
L 97.704385 136.452388 
L 98.246923 140.742164 
L 98.626699 143.499438 
L 98.680953 143.764087 
L 98.735207 143.739469 
L 98.78946 143.71485 
L 99.114983 147.001422 
L 99.223491 146.675227 
L 99.331998 147.986163 
L 99.494759 149.555593 
L 99.983043 153.974617 
L 100.037297 154.146946 
L 100.200058 155.224006 
L 100.79685 158.510578 
L 100.959611 159.698422 
L 101.013865 159.889215 
L 101.176626 160.917038 
L 101.936179 165.902288 
L 102.044686 166.043844 
L 102.370209 169.33657 
L 102.478717 169.521209 
L 102.641478 171.355289 
L 102.695732 171.022939 
L 102.858493 173.109358 
L 102.967 175.048066 
L 103.075508 174.931128 
L 103.129762 174.832654 
L 103.726553 181.535045 
L 104.648867 191.800966 
L 104.865882 192.834944 
L 105.082897 195.789166 
L 105.84245 202.473093 
L 105.896704 202.633113 
L 106.330734 206.812106 
L 106.547749 207.642981 
L 106.764764 210.067905 
L 106.873272 211.224975 
L 106.981779 211.052645 
L 107.036033 210.800306 
L 107.632825 216.253307 
L 107.687078 216.093287 
L 108.012601 217.625789 
L 108.229616 219.804528 
L 108.338123 219.675281 
L 108.392377 219.589116 
L 110.508274 236.748221 
L 110.671035 236.502036 
L 110.888051 237.536014 
L 110.942304 236.865159 
L 110.996558 237.511395 
L 111.159319 238.520754 
L 111.376334 240.674875 
L 112.244395 247.408039 
L 112.569917 252.214804 
L 112.624171 252.091711 
L 112.89544 254.670501 
L 112.949694 254.319687 
L 113.003947 254.547408 
L 113.058201 254.467398 
L 113.112455 254.707429 
L 113.32947 257.052342 
L 113.600739 259.526503 
L 113.709246 260.511244 
L 113.872008 262.511498 
L 113.980515 262.326859 
L 114.360292 265.028741 
L 114.414545 265.145679 
L 114.685814 266.7028 
L 114.794322 267.256717 
L 115.011337 268.666127 
L 115.065591 268.764601 
L 116.855965 280.341458 
L 116.910219 280.181438 
L 116.964473 280.322994 
L 117.018726 280.359922 
L 117.07298 280.230675 
L 117.398503 281.677013 
L 117.452756 281.086168 
L 117.50701 281.320044 
L 117.724025 282.003208 
L 118.103802 283.067959 
L 118.158055 282.661753 
L 118.212309 282.747918 
L 118.37507 283.12335 
L 118.483578 283.948071 
L 118.537832 283.911143 
L 118.592086 283.972689 
L 118.646339 283.751123 
L 118.700593 283.818824 
L 118.754847 283.88037 
L 118.809101 283.683422 
L 118.863354 283.78805 
L 118.971862 284.089627 
L 119.026116 283.972689 
L 119.080369 283.794205 
L 119.134623 284.138864 
L 119.188877 283.972689 
L 119.243131 283.640339 
L 119.297385 283.738813 
L 119.460146 284.095782 
L 119.5144 283.868061 
L 119.568653 284.169637 
L 119.622907 284.052699 
L 119.677161 284.009617 
L 119.731415 283.769586 
L 119.785668 283.843442 
L 119.839922 283.948071 
L 119.894176 284.323503 
L 119.94843 284.231184 
L 120.273952 283.357226 
L 120.328206 283.461855 
L 120.38246 283.412618 
L 120.436714 283.474164 
L 120.490967 282.821774 
L 120.545221 282.889475 
L 120.762236 283.584948 
L 120.81649 283.572638 
L 120.870744 284.157328 
L 120.924998 283.781896 
L 121.087759 283.640339 
L 121.359028 284.114246 
L 121.576043 284.772791 
L 121.738804 284.458905 
L 121.901565 285.388254 
L 122.064327 284.231184 
L 122.444103 285.271316 
L 122.498357 285.142069 
L 122.606864 285.788305 
L 122.661118 285.739068 
L 122.715372 285.388254 
L 122.769626 285.615975 
L 122.878133 286.052954 
L 123.040895 287.326962 
L 123.095148 287.468518 
L 123.149402 287.370044 
L 123.203656 287.437745 
L 123.366417 287.068468 
L 123.474925 287.351581 
L 123.529178 286.988457 
L 123.583432 287.074622 
L 123.637686 287.185406 
L 123.69194 287.080777 
L 123.800447 286.914602 
L 124.017462 288.114755 
L 124.12597 288.01628 
L 124.234477 287.868569 
L 124.342985 288.207074 
L 124.397239 288.120909 
L 124.451492 287.899343 
L 124.505746 288.022435 
L 124.56 288.354785 
L 124.614254 288.102445 
L 124.668508 287.930116 
L 124.722761 288.231692 
L 124.777015 287.868569 
L 124.831269 288.250156 
L 124.99403 289.561092 
L 125.048284 289.26567 
L 125.211045 289.616484 
L 125.373807 289.124114 
L 125.42806 289.339526 
L 125.482314 289.567247 
L 125.536568 289.438 
L 125.590822 289.499546 
L 125.86209 290.75509 
L 125.916344 290.582761 
L 126.024852 290.988966 
L 126.241867 289.807277 
L 126.784404 291.08744 
L 127.055673 290.016535 
L 127.109927 290.367349 
L 127.218435 289.862669 
L 127.272688 290.01038 
L 127.326942 289.905752 
L 127.381196 289.948834 
L 127.598211 290.798173 
L 127.760972 290.613534 
L 127.815226 290.619689 
L 127.923734 290.065772 
L 127.977987 289.69034 
L 128.032241 289.942679 
L 128.086495 290.195019 
L 128.140749 289.911906 
L 128.195002 290.410431 
L 128.249256 290.238102 
L 128.30351 290.188864 
L 128.520525 289.468773 
L 128.574779 289.628793 
L 128.629033 289.394917 
L 128.683286 289.438 
L 128.73754 289.462618 
L 128.791794 289.296443 
L 129.117316 290.42274 
L 129.334332 290.385813 
L 129.497093 289.794968 
L 129.714108 290.539678 
L 129.768362 290.484287 
L 129.822615 290.613534 
L 129.931123 291.09975 
L 130.093884 290.853564 
L 130.256646 291.567501 
L 130.310899 291.475182 
L 130.473661 289.499546 
L 130.582168 289.407227 
L 130.853437 290.244256 
L 131.016198 289.794968 
L 131.070452 289.887288 
L 131.233213 289.087186 
L 131.287467 289.314907 
L 131.341721 289.130268 
L 131.450228 289.370299 
L 131.504482 289.111804 
L 131.558736 289.284134 
L 131.667244 289.167196 
L 131.830005 289.376453 
L 132.04702 288.736372 
L 132.101274 288.810228 
L 132.155527 289.081031 
L 132.209781 289.044103 
L 132.264035 288.970248 
L 132.372543 289.844205 
L 132.426796 289.561092 
L 132.48105 289.542628 
L 132.698065 290.361194 
L 132.752319 290.145782 
L 132.860826 290.305802 
L 133.023588 291.124368 
L 133.132095 290.601225 
L 133.186349 290.730472 
L 133.240603 290.792018 
L 133.294857 290.668926 
L 133.457618 292.558397 
L 133.566125 291.992171 
L 133.620379 291.92447 
L 133.674633 291.647512 
L 133.728887 291.745986 
L 133.78314 291.764449 
L 133.837394 292.182964 
L 133.891648 291.838305 
L 133.945902 291.733676 
L 134.000156 291.955243 
L 134.054409 291.616738 
L 134.108663 291.838305 
L 134.162917 291.961398 
L 134.379932 291.296698 
L 134.488439 291.364399 
L 134.596947 290.810482 
L 134.651201 291.00743 
L 134.868216 291.906006 
L 134.976723 291.789068 
L 135.139485 290.945884 
L 135.193738 290.884338 
L 135.247992 291.038203 
L 135.302246 290.92742 
L 135.519261 289.85036 
L 135.682022 290.508905 
L 135.736276 290.619689 
L 135.79053 290.348885 
L 135.953291 291.665975 
L 136.007545 291.352089 
L 136.061799 291.370553 
L 136.116053 291.598275 
L 136.170306 291.561347 
L 136.22456 291.51211 
L 136.387321 291.795223 
L 136.495829 292.447613 
L 136.550083 292.041408 
L 136.65859 291.930624 
L 136.712844 292.1645 
L 136.875605 291.838305 
L 137.146874 292.896901 
L 137.309635 292.386067 
L 137.363889 292.392222 
L 137.635158 291.075131 
L 137.852173 290.176555 
L 137.906427 290.207328 
L 138.123442 291.222842 
L 138.557472 288.471723 
L 138.611726 288.465568 
L 138.882995 289.068722 
L 138.937248 288.557888 
L 138.991502 288.754836 
L 139.045756 288.588661 
L 139.154263 289.216433 
L 139.208517 289.154887 
L 139.317025 288.545579 
L 139.371279 288.742527 
L 139.425532 288.588661 
L 139.479786 288.705599 
L 139.642547 288.68098 
L 139.751055 289.197969 
L 139.805309 289.068722 
L 140.076578 289.973452 
L 140.347846 288.871774 
L 140.4021 288.994866 
L 140.456354 288.877929 
L 140.619115 289.51801 
L 140.727623 289.468773 
L 140.83613 289.991916 
L 140.998892 290.551988 
L 141.215907 289.85036 
L 141.324414 289.967298 
L 141.487175 290.201174 
L 141.704191 289.561092 
L 141.758444 289.376453 
L 141.812698 289.67803 
L 141.866952 289.450309 
L 141.975459 288.539424 
L 142.138221 289.321062 
L 142.192474 289.302598 
L 142.246728 289.450309 
L 142.300982 289.419536 
L 142.626505 288.754836 
L 142.789266 289.241052 
L 142.84352 289.167196 
L 142.897773 289.51801 
L 142.952027 289.10565 
L 143.006281 289.302598 
L 143.169042 289.794968 
L 143.223296 289.407227 
L 143.27755 289.721113 
L 143.386057 290.121164 
L 143.440311 289.911906 
L 143.603072 288.262466 
L 143.657326 288.459414 
L 143.928595 289.51801 
L 143.982849 288.865619 
L 144.037103 289.26567 
L 144.091356 289.35799 
L 144.688148 287.314653 
L 144.742402 287.640848 
L 144.850909 287.622384 
L 144.959417 287.813178 
L 145.176432 287.228488 
L 145.230685 287.105395 
L 145.284939 287.622384 
L 145.501954 285.775996 
L 145.610462 285.979098 
L 145.718969 285.234388 
L 145.827477 285.868315 
L 145.935984 285.720604 
L 145.990238 285.560584 
L 146.044492 285.585202 
L 146.261507 285.609821 
L 146.315761 285.443646 
L 146.478522 284.458905 
L 146.58703 284.354276 
L 146.641283 284.46506 
L 146.749791 284.588152 
L 146.858298 284.335812 
L 146.912552 284.385049 
L 147.075314 284.754327 
L 147.238075 284.341967 
L 147.292329 284.37274 
L 147.509344 284.994358 
L 147.726359 283.449546 
L 147.780613 283.357226 
L 147.834866 283.400309 
L 147.943374 282.667908 
L 147.997628 283.04334 
L 148.051881 282.895629 
L 148.106135 282.901784 
L 148.160389 282.791 
L 148.268896 281.96628 
L 148.32315 281.978589 
L 148.377404 282.027826 
L 148.431658 282.434032 
L 148.485912 282.237084 
L 148.702927 281.775487 
L 148.865688 280.569179 
L 148.919942 280.581489 
L 149.028449 280.002954 
L 149.082703 280.310685 
L 149.136957 280.046036 
L 149.353972 279.252089 
L 149.408226 279.079759 
L 149.462479 279.47981 
L 149.516733 279.325944 
L 149.570987 279.252089 
L 149.625241 278.888966 
L 149.679494 279.23978 
L 149.788002 278.932048 
L 149.842256 279.048986 
L 150.005017 280.439932 
L 150.059271 280.403004 
L 150.113525 280.162974 
L 150.167778 280.686117 
L 150.222032 280.403004 
L 150.276286 280.63688 
L 150.439047 279.725995 
L 150.493301 279.861397 
L 150.601808 280.119892 
L 150.656062 279.55982 
L 150.710316 279.959871 
L 150.76457 279.966026 
L 150.873077 280.206056 
L 150.927331 280.181438 
L 150.981585 279.97218 
L 151.035839 280.0645 
L 151.090092 280.119892 
L 151.252854 280.803055 
L 151.307107 280.747664 
L 151.361361 280.433778 
L 151.415615 280.618416 
L 151.524123 280.667653 
L 151.795391 279.867552 
L 151.903899 280.932303 
L 151.958153 280.864602 
L 152.229421 280.082964 
L 152.337929 280.341458 
L 152.446437 279.793696 
L 152.50069 279.990644 
L 152.554944 280.033727 
L 152.717705 280.827674 
L 152.880467 280.31684 
L 153.097482 281.307735 
L 153.151736 280.88922 
L 153.205989 281.196952 
L 153.368751 281.535456 
L 153.477258 281.110787 
L 153.531512 281.233879 
L 153.585766 281.147715 
L 153.911288 282.686372 
L 154.07405 282.920248 
L 154.236811 284.21272 
L 154.399572 283.449546 
L 154.725095 285.966789 
L 154.779349 285.745222 
L 154.94211 286.237593 
L 155.104871 286.385304 
L 155.159125 286.489932 
L 155.213379 286.889983 
L 155.267632 286.748427 
L 155.484648 285.634439 
L 155.538901 285.739068 
L 155.593155 286.022181 
L 155.701663 285.566738 
L 155.755916 285.579047 
L 156.027185 286.348376 
L 156.135693 287.086931 
L 156.189947 286.680726 
L 156.298454 285.948325 
L 156.406962 286.083727 
L 156.461215 286.791509 
L 156.515469 286.656107 
L 156.569723 286.336067 
L 156.623977 286.440695 
L 156.67823 286.60687 
L 156.786738 286.262211 
L 156.840992 286.372995 
L 156.895246 285.739068 
L 156.949499 285.825233 
L 157.003753 285.880624 
L 157.166514 284.982048 
L 157.220768 285.160533 
L 157.275022 285.068213 
L 157.383529 284.323503 
L 157.437783 284.348122 
L 157.600544 284.809719 
L 157.654798 284.378895 
L 157.763306 284.397359 
L 157.81756 284.194256 
L 157.980321 284.760482 
L 158.143082 283.609566 
L 158.305843 283.437237 
L 158.360097 283.640339 
L 158.414351 283.4557 
L 158.522859 282.637135 
L 158.577112 282.655599 
L 158.631366 283.209515 
L 158.68562 282.864856 
L 158.794127 282.864856 
L 159.445173 280.55687 
L 159.607934 281.147715 
L 159.662188 281.264653 
L 159.716441 281.104632 
L 159.879203 281.923198 
L 159.98771 281.073859 
L 160.041964 281.597002 
L 160.096218 281.47391 
L 160.204725 281.233879 
L 160.258979 281.467755 
L 160.42174 280.821519 
L 160.584502 280.218366 
L 160.693009 279.405955 
L 160.747263 279.756768 
L 160.855771 280.30453 
L 160.910024 280.119892 
L 161.127039 279.541356 
L 161.181293 279.664449 
L 161.289801 279.14746 
L 161.344054 279.516738 
L 161.56107 278.002699 
L 161.723831 277.196443 
L 161.778085 277.965771 
L 161.832338 277.571875 
L 161.940846 276.624062 
L 161.9951 276.685609 
L 162.049353 276.808701 
L 162.266368 275.731641 
L 162.374876 276.279403 
L 162.42913 276.094764 
L 162.483384 276.070146 
L 162.591891 276.654835 
L 162.700399 275.608549 
L 162.754652 275.670095 
L 162.86316 275.983981 
L 163.025921 275.4116 
L 163.080175 275.780878 
L 163.134429 275.713177 
L 163.29719 275.374673 
L 163.459951 274.242221 
L 163.514205 274.106819 
L 163.676966 273.392882 
L 163.73122 273.343645 
L 163.893982 272.18042 
L 163.948235 272.752801 
L 164.056743 272.758955 
L 164.219504 272.051173 
L 164.382265 271.638813 
L 164.436519 271.76806 
L 164.490773 272.186575 
L 164.545027 271.995781 
L 164.816296 271.078742 
L 165.358833 267.798324 
L 165.467341 268.543034 
L 165.630102 267.564448 
L 165.847117 266.518162 
L 166.009878 267.244408 
L 166.17264 267.742933 
L 166.335401 266.788965 
L 166.389655 266.881285 
L 166.823685 265.490339 
L 166.877939 265.773451 
L 167.149208 266.868975 
L 167.203461 267.010532 
L 167.257715 266.339677 
L 167.311969 266.450461 
L 167.366223 266.672027 
L 167.420476 266.635099 
L 167.47473 266.308904 
L 167.528984 266.579708 
L 167.745999 266.819738 
L 167.800253 266.30275 
L 167.854507 266.598172 
L 167.90876 266.832048 
L 168.017268 266.0381 
L 168.234283 267.441356 
L 168.288537 267.299799 
L 168.451298 266.444306 
L 168.614059 266.727419 
L 168.776821 266.155038 
L 168.885328 266.259667 
L 168.939582 266.198121 
L 168.993836 266.333523 
L 169.156597 267.527521 
L 169.210851 267.041305 
L 169.265105 267.201325 
L 169.319358 267.225944 
L 169.373612 267.946035 
L 169.427866 267.736778 
L 169.48212 267.201325 
L 169.536373 267.404428 
L 169.699135 268.733828 
L 169.753388 268.401478 
L 169.807642 268.401478 
L 169.861896 268.592272 
L 169.970404 268.087592 
L 170.024657 268.186066 
L 170.241672 269.084642 
L 170.295926 268.918467 
L 170.35018 268.918467 
L 170.512941 269.86628 
L 170.567195 269.232353 
L 170.621449 269.663177 
L 170.78421 270.734082 
L 170.838464 270.727928 
L 170.892718 270.475588 
L 170.946971 270.561753 
L 171.272494 272.278894 
L 171.489509 271.244917 
L 171.543763 271.201834 
L 171.598017 271.632658 
L 171.65227 270.814093 
L 171.706524 270.832556 
L 171.760778 271.054123 
L 171.923539 270.586371 
L 172.194808 271.060278 
L 172.249062 270.949494 
L 172.303316 271.029505 
L 172.411823 271.632658 
L 172.466077 271.521875 
L 172.574584 271.368009 
L 172.683092 271.829606 
L 172.791599 272.518925 
L 172.845853 272.475842 
L 172.900107 272.494306 
L 172.954361 273.146697 
L 173.008614 272.611244 
L 173.171376 272.617399 
L 173.22563 272.371214 
L 173.279883 272.998986 
L 173.334137 272.475842 
L 173.388391 272.340441 
L 173.442645 272.562007 
L 173.605406 273.552902 
L 173.713913 272.648172 
L 173.768167 272.678945 
L 173.930929 273.115924 
L 173.985182 272.949749 
L 174.09369 271.76806 
L 174.310705 273.756005 
L 174.419212 273.435964 
L 174.473466 274.082201 
L 174.52772 274.00219 
L 174.636228 273.078996 
L 174.798989 274.365313 
L 174.853243 273.971417 
L 174.907496 274.211448 
L 175.016004 274.703818 
L 175.070258 274.660736 
L 175.287273 275.885507 
L 175.504288 277.233371 
L 175.667049 276.901021 
L 175.82981 277.399546 
L 175.992572 277.313381 
L 176.046825 278.341204 
L 176.101079 277.756514 
L 176.155333 278.002699 
L 176.318094 277.467246 
L 176.372348 277.48571 
L 176.589363 276.882557 
L 176.643617 276.365568 
L 176.697871 276.710227 
L 176.752124 276.445578 
L 176.914886 277.528793 
L 176.96914 277.571875 
L 177.023393 277.467246 
L 177.077647 276.99334 
L 177.186155 277.81806 
L 177.240408 277.430319 
L 177.294662 277.65804 
L 177.348916 277.491865 
L 177.565931 278.833574 
L 177.728692 278.181183 
L 177.891454 277.177979 
L 177.945707 277.467246 
L 177.999961 277.565721 
L 178.216976 276.433269 
L 178.27123 276.531743 
L 178.488245 277.879607 
L 178.596753 278.261194 
L 178.70526 279.030522 
L 178.759514 278.808956 
L 178.813768 278.796646 
L 179.13929 280.181438 
L 179.193544 280.138355 
L 179.247798 279.725995 
L 179.302052 280.162974 
L 179.519067 281.443137 
L 179.736082 282.126301 
L 179.790335 282.021672 
L 179.844589 282.372486 
L 179.898843 282.052445 
L 179.953097 281.990899 
L 180.224366 282.815619 
L 180.278619 282.489424 
L 180.441381 283.04334 
L 180.549888 282.895629 
L 180.766903 281.615466 
L 180.983918 280.796901 
L 181.14668 281.572384 
L 181.309441 280.815365 
L 181.417948 281.270807 
L 181.526456 280.987694 
L 181.689217 281.486219 
L 181.797725 281.116941 
L 181.851979 281.147715 
L 181.906232 281.196952 
L 182.068994 280.501479 
L 182.123247 280.667653 
L 182.340263 279.412109 
L 182.557278 280.698427 
L 182.611531 280.507633 
L 182.665785 280.55687 
L 182.774293 280.950766 
L 182.8828 280.741509 
L 183.045561 280.98154 
L 183.099815 281.14156 
L 183.371084 283.258752 
L 183.425338 283.154124 
L 183.479592 282.791 
L 183.533845 282.864856 
L 183.588099 283.141814 
L 183.642353 283.104887 
L 183.805114 282.809464 
L 183.967876 282.120146 
L 184.022129 282.261702 
L 184.456159 279.418264 
L 184.510413 279.442882 
L 184.564667 279.565975 
L 184.618921 278.876656 
L 184.673175 278.999749 
L 184.727428 279.436728 
L 184.781682 279.030522 
L 184.944443 277.916534 
L 185.052951 277.984235 
L 185.215712 277.430319 
L 185.32422 276.962567 
L 185.432727 277.774978 
L 185.486981 277.257989 
L 185.541235 277.805751 
L 185.595489 277.516483 
L 185.866757 276.808701 
L 185.921011 276.802547 
L 185.975265 276.519434 
L 186.029519 276.66099 
L 186.083772 276.870247 
L 186.138026 276.673299 
L 186.300788 276.119383 
L 186.355041 276.347104 
L 186.409295 276.851784 
L 186.463549 276.648681 
L 186.572056 276.91333 
L 186.62631 276.605598 
L 186.680564 277.097969 
L 186.734818 276.99334 
L 186.789071 276.802547 
L 186.951833 275.540848 
L 187.168848 274.716127 
L 187.331609 275.048477 
L 187.385863 275.196188 
L 187.548624 275.75626 
L 187.602878 275.386982 
L 187.657132 275.491611 
L 187.711386 275.596239 
L 187.765639 275.319281 
L 187.819893 275.885507 
L 187.874147 274.99924 
L 187.928401 275.497765 
L 188.036908 274.783828 
L 188.091162 275.134642 
L 188.253923 274.894612 
L 188.416684 275.103869 
L 188.579446 275.350054 
L 188.959222 273.823706 
L 189.013476 274.309922 
L 189.06773 273.312872 
L 189.121983 273.466738 
L 189.230491 273.823706 
L 189.338999 273.472892 
L 189.393252 273.220552 
L 189.447506 273.368264 
L 189.610267 274.248376 
L 189.990044 275.565466 
L 190.044298 275.405446 
L 190.315566 277.054886 
L 190.36982 276.925639 
L 190.424074 277.307226 
L 190.478328 277.270298 
L 190.532581 277.177979 
L 190.641089 277.602648 
L 190.858104 277.227216 
L 190.912358 276.593289 
L 190.966612 276.851784 
L 191.129373 276.353259 
L 191.183627 276.464042 
L 191.23788 276.728691 
L 191.292134 276.611753 
L 191.346388 276.482506 
L 191.400642 275.91628 
L 191.454895 276.125537 
L 191.509149 276.16862 
L 191.834672 277.676504 
L 192.051687 276.390186 
L 192.105941 276.710227 
L 192.160194 276.476351 
L 192.214448 276.340949 
L 192.268702 276.531743 
L 192.485717 278.7351 
L 192.539971 278.519688 
L 192.594225 278.944357 
L 192.648478 278.821265 
L 192.702732 278.445832 
L 192.756986 278.821265 
L 192.919747 278.015008 
L 192.974001 278.384286 
L 193.082509 279.128996 
L 193.136762 279.061295 
L 193.24527 278.981285 
L 193.299524 278.23042 
L 193.353777 279.289017 
L 193.408031 278.679708 
L 193.516539 278.728945 
L 193.625046 277.614958 
L 193.6793 277.99039 
L 193.733554 277.904225 
L 193.950569 276.624062 
L 194.004823 276.667145 
L 194.167584 277.214907 
L 194.221838 277.196443 
L 194.330345 277.725741 
L 194.384599 277.461092 
L 194.438853 277.91038 
L 194.493106 277.565721 
L 194.710122 277.264144 
L 194.764375 276.894866 
L 194.818629 277.221061 
L 194.872883 277.122587 
L 194.927137 277.418009 
L 195.035644 276.617908 
L 195.089898 276.808701 
L 195.578182 275.097714 
L 195.632436 275.25158 
L 195.740943 274.740746 
L 195.849451 275.417755 
L 195.957958 275.245425 
L 196.012212 275.399291 
L 196.229227 273.466738 
L 196.446242 274.33454 
L 196.500496 274.149901 
L 196.609003 273.940644 
L 196.663257 273.959108 
L 196.717511 273.989881 
L 196.771765 273.76216 
L 196.826018 273.977572 
L 196.880272 274.371468 
L 196.934526 274.186829 
L 196.98878 273.940644 
L 197.043034 274.020654 
L 197.151541 274.180675 
L 197.314302 273.614449 
L 197.477064 274.309922 
L 197.639825 273.202089 
L 197.748333 273.614449 
L 198.073855 272.365059 
L 198.182363 272.580471 
L 198.236616 272.500461 
L 198.345124 272.174266 
L 198.399378 272.531234 
L 198.453632 272.309667 
L 198.616393 271.891153 
L 198.779154 272.715873 
L 198.833408 272.321977 
L 198.887662 272.60509 
L 198.941915 272.494306 
L 199.104677 273.872943 
L 199.15893 273.780624 
L 199.213184 273.17747 
L 199.267438 273.540593 
L 199.321692 273.497511 
L 199.430199 274.026809 
L 199.538707 273.072841 
L 199.647214 273.891407 
L 199.701468 273.860634 
L 199.755722 273.651376 
L 200.244006 276.365568 
L 200.406767 276.180929 
L 200.515275 276.507124 
L 200.569528 276.193238 
L 200.623782 276.451733 
L 200.840797 277.331845 
L 201.057812 279.122842 
L 201.112066 279.024368 
L 201.220574 279.929098 
L 201.274827 279.799851 
L 201.437589 279.159769 
L 201.491842 279.005904 
L 201.654604 280.101428 
L 201.817365 279.473655 
L 201.871619 279.510583 
L 202.142888 281.006158 
L 202.305649 280.335304 
L 202.414157 280.673808 
L 202.576918 280.193747 
L 202.631172 280.279912 
L 202.793933 280.655344 
L 202.848187 280.310685 
L 202.90244 280.624571 
L 202.956694 280.532252 
L 203.010948 281.344663 
L 203.065202 281.147715 
L 203.227963 280.907684 
L 203.390724 281.640085 
L 203.499232 281.264653 
L 203.553486 281.30158 
L 203.607739 281.289271 
L 203.879008 282.255548 
L 204.4758 283.898834 
L 204.584307 283.923452 
L 204.638561 283.535711 
L 204.801322 284.655853 
L 204.855576 284.526606 
L 204.90983 284.077318 
L 204.964084 284.397359 
L 205.018337 284.828183 
L 205.072591 284.397359 
L 205.126845 284.200411 
L 205.181099 284.354276 
L 205.235352 284.489678 
L 205.560875 282.427877 
L 205.669383 282.674063 
L 205.723636 282.360176 
L 205.886398 282.815619 
L 205.940651 282.21862 
L 205.994905 282.415568 
L 206.049159 282.729454 
L 206.103413 282.427877 
L 206.21192 282.47096 
L 206.374682 281.720095 
L 206.754458 280.187592 
L 206.862965 280.470705 
L 207.025727 281.166178 
L 207.296996 282.80331 
L 207.351249 282.840238 
L 207.568264 282.015517 
L 207.78528 282.932557 
L 207.839533 282.261702 
L 207.893787 282.477114 
L 208.056548 282.871011 
L 208.110802 282.354022 
L 208.165056 282.686372 
L 208.490579 282.206311 
L 208.544832 282.267857 
L 208.599086 282.594052 
L 208.816101 280.938457 
L 208.870355 281.018467 
L 209.08737 281.917043 
L 209.195877 281.960126 
L 209.304385 281.597002 
L 209.738415 280.089118 
L 209.792669 280.409159 
L 209.846923 280.359922 
L 209.95543 279.541356 
L 210.009684 279.916789 
L 210.063938 279.63983 
L 210.118192 280.403004 
L 210.172445 279.873706 
L 210.280953 279.725995 
L 210.38946 280.618416 
L 210.443714 280.341458 
L 210.552222 279.689067 
L 210.606475 279.744459 
L 210.714983 279.22747 
L 210.769237 279.455192 
L 211.094759 281.000003 
L 211.149013 280.630726 
L 211.203267 281.22157 
L 211.257521 280.883066 
L 211.311774 281.086168 
L 211.366028 280.341458 
L 211.420282 280.919993 
L 211.474536 281.3939 
L 211.528789 281.375436 
L 211.583043 281.338508 
L 211.691551 281.880115 
L 211.745805 281.670858 
L 211.96282 281.910889 
L 212.017073 281.320044 
L 212.071327 281.455446 
L 212.179835 281.31389 
L 212.234088 281.701631 
L 212.288342 281.627776 
L 212.39685 281.30158 
L 212.451104 281.597002 
L 212.722372 279.719841 
L 212.939387 280.698427 
L 212.993641 280.643035 
L 213.047895 281.215415 
L 213.102149 281.04924 
L 213.156403 281.135405 
L 213.373418 282.495578 
L 213.590433 282.286321 
L 213.807448 281.510838 
L 213.861702 281.307735 
L 213.915955 281.461601 
L 214.13297 281.178488 
L 214.295732 282.446341 
L 214.404239 281.289271 
L 214.458493 281.560075 
L 214.512747 281.436982 
L 214.621254 280.858447 
L 215.055284 283.271062 
L 215.109538 283.086423 
L 215.163792 283.21567 
L 215.218046 283.154124 
L 215.326553 282.637135 
L 215.543568 284.058854 
L 215.597822 283.78805 
L 215.652076 284.385049 
L 215.70633 284.163483 
L 215.814837 284.071163 
L 215.869091 284.145019 
L 216.086106 283.264907 
L 216.303121 282.926402 
L 216.357375 282.932557 
L 216.411629 282.760227 
L 216.465882 282.778691 
L 216.628644 283.338762 
L 216.737151 282.544815 
L 216.899912 283.646494 
L 216.954166 283.554174 
L 217.171181 283.221825 
L 217.279689 283.535711 
L 217.333943 283.498783 
L 217.44245 283.843442 
L 217.496704 283.578793 
L 217.550958 283.160278 
L 217.605211 283.431082 
L 217.822227 283.948071 
L 217.87648 283.818824 
L 217.930734 283.05565 
L 217.984988 283.554174 
L 218.039242 283.701886 
L 218.202003 284.261957 
L 218.364764 283.443391 
L 218.419018 283.04334 
L 218.527526 283.634185 
L 218.853048 280.864602 
L 218.961556 280.956921 
L 219.287078 282.360176 
L 219.341332 282.532506 
L 219.395586 282.415568 
L 219.44984 282.415568 
L 219.612601 282.754073 
L 219.721108 282.120146 
L 219.775362 282.144764 
L 219.992377 283.283371 
L 220.046631 283.209515 
L 220.100885 283.486474 
L 220.155139 283.258752 
L 220.3179 282.47096 
L 220.372154 282.581743 
L 220.534915 281.701631 
L 220.589169 281.732404 
L 220.806184 282.637135 
L 221.023199 281.184642 
L 221.077453 281.283116 
L 221.131706 281.406209 
L 221.18596 281.867806 
L 221.240214 281.824724 
L 221.348721 280.839983 
L 221.457229 281.529302 
L 221.511483 281.455446 
L 221.61999 281.960126 
L 221.837005 280.501479 
L 221.891259 281.000003 
L 221.999767 280.452241 
L 222.216782 282.107837 
L 222.488051 280.298376 
L 222.813573 281.486219 
L 222.867827 281.689322 
L 222.922081 281.080014 
L 222.976334 281.326199 
L 223.030588 281.997053 
L 223.084842 281.720095 
L 223.301857 280.544561 
L 223.356111 281.06155 
L 223.410365 281.055395 
L 223.62738 279.98449 
L 223.681633 280.513788 
L 223.735887 280.150665 
L 223.790141 280.002954 
L 223.898649 280.710736 
L 224.007156 279.89217 
L 224.386932 282.206311 
L 224.441186 282.150919 
L 224.549694 281.270807 
L 224.658201 281.400054 
L 224.766709 282.372486 
L 224.820963 282.230929 
L 224.875216 282.126301 
L 224.92947 282.606362 
L 224.983724 282.372486 
L 225.037978 282.544815 
L 225.200739 283.781896 
L 225.254993 283.695731 
L 225.309246 283.578793 
L 225.3635 283.929607 
L 225.417754 283.566484 
L 225.472008 283.535711 
L 225.634769 284.428132 
L 225.689023 284.366585 
L 225.79753 283.991153 
L 225.851784 284.095782 
L 225.906038 284.618925 
L 225.960292 284.181947 
L 226.068799 284.926657 
L 226.123053 284.501987 
L 226.285814 283.591102 
L 226.394322 283.806514 
L 226.502829 285.062059 
L 226.557083 284.7851 
L 226.719844 283.351072 
L 226.93686 285.160533 
L 226.991113 285.259007 
L 227.045367 285.000512 
L 227.099621 285.098986 
L 227.208128 285.406718 
L 227.262382 285.018976 
L 227.316636 285.70214 
L 227.37089 285.068213 
L 227.479397 286.03449 
L 227.587905 285.222079 
L 227.642158 285.382099 
L 227.696412 284.975894 
L 227.750666 285.382099 
L 227.913427 285.917552 
L 227.967681 285.745222 
L 228.076189 285.228234 
L 228.293204 284.083473 
L 228.347457 284.108091 
L 228.401711 284.181947 
L 228.455965 284.649698 
L 228.510219 284.101936 
L 228.618726 284.126555 
L 228.727234 283.621875 
L 228.781488 284.403513 
L 228.835741 284.108091 
L 228.889995 283.948071 
L 229.10701 285.228234 
L 229.215518 284.62508 
L 229.269772 284.858956 
L 229.324025 284.391204 
L 229.378279 284.778946 
L 229.486787 284.729709 
L 229.703802 285.579047 
L 229.758055 285.031285 
L 229.866563 285.055904 
L 229.920817 285.123605 
L 230.083578 286.249902 
L 230.137832 286.052954 
L 230.246339 285.868315 
L 230.354847 286.773045 
L 230.409101 286.61918 
L 230.517608 286.822282 
L 230.571862 286.791509 
L 230.897385 284.815873 
L 230.951638 284.834337 
L 231.1144 283.554174 
L 231.277161 284.366585 
L 231.385668 283.615721 
L 231.439922 284.341967 
L 231.494176 284.317348 
L 231.54843 284.194256 
L 231.711191 285.308244 
L 232.090967 284.323503 
L 232.199475 285.394409 
L 232.253729 285.277471 
L 232.362236 284.495833 
L 232.41649 284.594307 
L 232.470744 284.581998 
L 232.579251 284.206565 
L 233.013281 285.492883 
L 233.28455 283.911143 
L 233.338804 284.003462 
L 233.393058 283.621875 
L 233.555819 284.501987 
L 233.610073 284.600461 
L 233.664327 284.988203 
L 233.827088 284.071163 
L 233.989849 284.95743 
L 234.206864 286.674571 
L 234.261118 286.508396 
L 234.315372 286.637644 
L 234.369626 286.52686 
L 234.423879 286.483778 
L 234.478133 286.563788 
L 234.532387 286.680726 
L 234.586641 286.471469 
L 234.695148 286.883829 
L 234.85791 286.299139 
L 234.966417 287.037694 
L 235.074925 286.19451 
L 235.129178 286.212974 
L 235.183432 286.028335 
L 235.346193 287.025385 
L 235.454701 286.576097 
L 235.563209 285.720604 
L 235.72597 286.317603 
L 235.780224 286.145273 
L 235.942985 286.945375 
L 236.051492 286.391458 
L 236.268508 287.326962 
L 236.322761 287.228488 
L 236.377015 287.450055 
L 236.539776 286.403768 
L 236.648284 287.185406 
L 236.702538 286.828437 
L 236.756791 287.148478 
L 236.865299 287.899343 
L 236.919553 287.843951 
L 236.973807 287.702394 
L 237.02806 287.825487 
L 237.082314 287.942425 
L 237.136568 287.653157 
L 237.190822 287.813178 
L 237.245075 288.588661 
L 237.299329 288.250156 
L 237.353583 288.145528 
L 237.407837 288.416331 
L 237.46209 287.640848 
L 237.516344 288.053208 
L 237.624852 288.459414 
L 237.733359 287.923961 
L 237.787613 288.163992 
L 237.841867 288.120909 
L 238.004628 287.493137 
L 238.113136 287.942425 
L 238.330151 287.105395 
L 238.547166 285.579047 
L 238.60142 286.089882 
L 238.655673 285.714449 
L 238.981196 287.160787 
L 239.03545 287.160787 
L 239.143957 287.634693 
L 239.306719 288.588661 
L 239.360972 288.477878 
L 239.686495 290.004226 
L 239.795002 289.548783 
L 239.849256 290.59507 
L 239.90351 290.441204 
L 239.957764 290.004226 
L 240.012018 290.158091 
L 240.120525 290.51506 
L 240.283286 289.948834 
L 240.33754 290.496596 
L 240.391794 290.398122 
L 240.446048 290.42274 
L 240.554555 291.272079 
L 240.717316 291.16745 
L 240.880078 290.496596 
L 240.934332 290.311957 
L 240.988585 290.367349 
L 241.097093 290.668926 
L 241.368362 289.671876 
L 241.531123 290.416586 
L 241.585377 289.985762 
L 241.639631 290.053463 
L 242.019407 292.613788 
L 242.34493 290.588915 
L 242.616198 291.659821 
L 242.724706 290.988966 
L 242.833213 291.955243 
L 242.887467 291.92447 
L 242.941721 291.733676 
L 243.050228 292.207583 
L 243.104482 291.702903 
L 243.158736 292.1645 
L 243.21299 291.986016 
L 243.484259 292.933829 
L 243.538512 292.33683 
L 243.592766 292.687644 
L 243.809781 293.340034 
L 244.135304 295.488 
L 244.406573 294.730981 
L 244.460826 294.835609 
L 244.51508 294.737135 
L 244.623588 293.881642 
L 244.677842 294.226301 
L 244.732095 294.207837 
L 244.894857 293.721621 
L 245.003364 293.296952 
L 245.166125 292.558397 
L 245.274633 293.032303 
L 245.328887 292.632252 
L 245.38314 292.958448 
L 245.437394 293.106159 
L 245.491648 292.983066 
L 245.600156 292.743035 
L 245.762917 293.641611 
L 245.817171 293.444663 
L 245.871424 293.4939 
L 245.979932 293.99858 
L 246.088439 293.653921 
L 246.142693 293.733931 
L 246.305455 292.74919 
L 246.630977 293.801632 
L 246.902246 292.404531 
L 246.9565 292.786118 
L 247.010754 292.527623 
L 247.065007 292.706108 
L 247.173515 291.604429 
L 247.227769 291.622893 
L 247.336276 292.275284 
L 247.39053 292.244511 
L 247.499037 291.967552 
L 247.770306 293.555447 
L 247.82456 293.820096 
L 248.041575 293.100004 
L 248.150083 293.296952 
L 248.204336 293.555447 
L 248.312844 292.656871 
L 248.367098 292.706108 
L 248.421351 293.032303 
L 248.529859 292.244511 
L 248.584113 292.478386 
L 248.746874 292.66918 
L 248.801128 293.216942 
L 248.855382 292.915365 
L 248.909635 292.896901 
L 249.018143 293.143086 
L 249.072397 292.355294 
L 249.12665 292.49685 
L 249.289412 293.056922 
L 249.343666 292.853819 
L 249.452173 293.647766 
L 249.614934 292.650716 
L 249.886203 293.992425 
L 249.940457 293.90626 
L 249.994711 293.764704 
L 250.103218 294.367858 
L 250.157472 293.900106 
L 250.211726 294.084745 
L 250.26598 294.164755 
L 250.591502 293.463127 
L 250.645756 293.57391 
L 250.971279 291.782913 
L 251.025532 291.869078 
L 251.513816 289.542628 
L 251.622324 289.665721 
L 251.676578 289.696494 
L 251.839339 290.662771 
L 252.056354 290.145782 
L 252.110608 290.188864 
L 252.327623 291.321316 
L 252.381877 291.241306 
L 252.43613 290.644307 
L 252.490384 290.988966 
L 252.544638 290.952038 
L 252.653145 291.469027 
L 252.707399 291.161296 
L 252.761653 291.185914 
L 252.87016 291.278234 
L 253.521206 288.730217 
L 253.575459 288.742527 
L 253.683967 287.917806 
L 253.738221 288.262466 
L 253.846728 288.047054 
L 253.900982 288.311703 
L 253.955236 288.244002 
L 254.117997 287.887033 
L 254.172251 288.219383 
L 254.226505 288.096291 
L 254.389266 287.486982 
L 254.44352 287.794714 
L 254.497773 287.530065 
L 254.606281 287.468518 
L 254.660535 287.406972 
L 254.769042 286.249902 
L 254.823296 286.766891 
L 254.87755 286.391458 
L 254.931804 286.434541 
L 255.094565 287.222333 
L 255.31158 286.305294 
L 255.365834 286.212974 
L 255.474341 286.440695 
L 255.528595 286.28683 
L 255.582849 286.428386 
L 255.637103 286.853056 
L 255.691356 286.791509 
L 255.74561 286.7792 
L 255.799864 286.459159 
L 255.854118 286.662262 
L 255.908371 286.803819 
L 255.962625 286.588407 
L 256.071133 286.982303 
L 256.17964 286.896138 
L 256.233894 286.957684 
L 256.396655 287.566993 
L 256.450909 287.794714 
L 256.505163 287.345426 
L 256.559417 287.499292 
L 256.61367 287.733168 
L 256.667924 287.505446 
L 256.722178 287.671621 
L 256.776432 287.573147 
L 256.939193 286.662262 
L 256.993447 287.197715 
L 257.047701 286.742272 
L 257.101954 287.025385 
L 257.156208 286.926911 
L 257.210462 286.853056 
L 257.373223 287.370044 
L 257.427477 287.093086 
L 257.590238 287.647003 
L 257.807253 286.243747 
L 257.861507 286.268366 
L 257.915761 286.588407 
L 257.970015 286.323757 
L 258.024268 286.305294 
L 258.078522 285.628284 
L 258.132776 285.745222 
L 258.18703 285.751377 
L 258.241283 285.246697 
L 258.295537 285.406718 
L 258.349791 285.480573 
L 258.404045 285.997562 
L 258.458298 285.560584 
L 258.62106 285.142069 
L 258.838075 286.545324 
L 258.892329 286.120655 
L 258.946582 286.040645 
L 259.000836 286.182201 
L 259.05509 285.892933 
L 259.109344 285.95448 
L 259.326359 287.099241 
L 259.380613 286.926911 
L 259.597628 288.336321 
L 259.760389 287.505446 
L 259.814643 287.714704 
L 260.031658 289.819587 
L 260.085912 289.874978 
L 260.140165 289.062567 
L 260.194419 289.739577 
L 260.248673 289.924215 
L 260.302927 289.727267 
L 260.35718 289.893442 
L 260.519942 288.644053 
L 260.574195 288.120909 
L 260.628449 288.52096 
L 260.682703 288.447104 
L 260.953972 287.179251 
L 261.008226 287.173096 
L 261.225241 286.53917 
L 261.279494 286.60687 
L 261.333748 286.52686 
L 261.388002 286.163737 
L 261.442256 286.693035 
L 261.496509 286.182201 
L 261.605017 285.905243 
L 261.767778 286.933066 
L 261.93054 286.563788 
L 261.984793 286.52686 
L 262.039047 285.929861 
L 262.093301 286.071418 
L 262.635839 287.690085 
L 262.744346 287.093086 
L 262.7986 287.197715 
L 262.907107 287.277725 
L 263.069869 286.748427 
L 263.23263 287.542374 
L 263.286884 288.207074 
L 263.341138 288.096291 
L 263.395391 287.917806 
L 263.612406 288.951784 
L 263.720914 288.699444 
L 263.775168 288.797918 
L 263.829421 288.982557 
L 263.883675 288.834846 
L 263.937929 288.68098 
L 264.10069 290.078081 
L 264.209198 289.905752 
L 264.371959 289.247206 
L 264.588974 290.336576 
L 264.805989 288.656362 
L 264.914497 289.02564 
L 264.968751 289.419536 
L 265.185766 288.336321 
L 265.240019 288.687135 
L 265.294273 288.607125 
L 265.457035 287.794714 
L 265.565542 287.296189 
L 265.619796 287.850105 
L 265.67405 287.579302 
L 265.782557 287.979353 
L 265.836811 287.708549 
L 265.891065 287.930116 
L 265.945318 288.01628 
L 266.10808 287.671621 
L 266.54211 289.567247 
L 266.596364 289.444154 
L 266.650617 289.696494 
L 266.704871 289.376453 
L 266.867632 289.874978 
L 267.084648 290.256565 
L 267.138901 290.1027 
L 267.193155 290.071927 
L 267.301663 290.853564 
L 267.41017 290.207328 
L 267.518678 290.730472 
L 267.627185 290.01038 
L 267.681439 290.348885 
L 267.789947 291.290543 
L 267.8442 290.970502 
L 267.898454 290.792018 
L 267.952708 290.92742 
L 268.169723 291.241306 
L 268.223977 291.198224 
L 268.332484 290.607379 
L 268.386738 289.905752 
L 268.440992 290.195019 
L 268.495246 290.195019 
L 268.549499 290.022689 
L 268.658007 290.748936 
L 268.766514 290.478132 
L 268.820768 290.404276 
L 268.983529 291.038203 
L 269.037783 290.816637 
L 269.092037 290.890492 
L 269.200544 292.08449 
L 269.254798 291.893697 
L 269.363306 291.856769 
L 269.471813 292.693798 
L 269.526067 292.429149 
L 269.688828 291.875233 
L 269.743082 291.881387 
L 269.797336 292.022944 
L 269.960097 293.019994 
L 270.014351 292.650716 
L 270.068605 292.743035 
L 270.122859 292.74919 
L 270.28562 293.758549 
L 270.448381 292.656871 
L 270.611142 293.623147 
L 270.665396 293.58622 
L 270.773904 293.032303 
L 270.936665 293.653921 
L 271.045173 293.58622 
L 271.15368 294.503259 
L 271.207934 294.115518 
L 271.316441 294.152446 
L 271.370695 294.49095 
L 271.424949 293.980116 
L 271.479203 294.681744 
L 271.533456 294.183219 
L 271.858979 292.484541 
L 271.913233 293.032303 
L 271.967487 292.995375 
L 272.238755 291.684439 
L 272.293009 291.610584 
L 272.455771 290.324266 
L 272.510024 290.43505 
L 272.889801 289.044103 
L 272.944054 289.081031 
L 272.998308 289.936525 
L 273.052562 289.241052 
L 273.16107 289.85036 
L 273.432338 288.613279 
L 273.486592 288.582506 
L 273.5951 288.317857 
L 273.757861 289.074877 
L 273.812115 288.484032 
L 273.866368 289.376453 
L 273.920622 288.834846 
L 273.974876 288.994866 
L 274.191891 287.419281 
L 274.246145 287.548529 
L 274.300399 287.702394 
L 274.46316 287.068468 
L 274.571667 287.653157 
L 274.734429 286.723808 
L 274.89719 286.256057 
L 274.951444 286.311448 
L 275.005698 286.471469 
L 275.439728 284.157328 
L 275.493982 284.606616 
L 275.656743 283.646494 
L 275.76525 283.234134 
L 275.819504 283.424927 
L 275.873758 283.584948 
L 276.090773 282.077064 
L 276.253534 283.203361 
L 276.362042 282.600207 
L 276.416296 282.80331 
L 276.524803 282.624826 
L 276.579057 282.477114 
L 276.741818 281.067704 
L 276.796072 281.080014 
L 276.904579 281.326199 
L 276.958833 280.852292 
L 277.013087 281.06155 
L 277.067341 281.55392 
L 277.230102 280.679963 
L 277.284356 280.519942 
L 277.33861 281.480065 
L 277.392863 280.975385 
L 277.447117 280.796901 
L 277.609878 282.206311 
L 277.664132 281.455446 
L 277.718386 281.683167 
L 277.826894 281.941662 
L 277.881147 281.646239 
L 277.935401 282.526351 
L 277.989655 282.003208 
L 278.043909 281.923198 
L 278.098162 281.566229 
L 278.152416 282.027826 
L 278.20667 281.369281 
L 278.260924 281.695477 
L 278.369431 282.864856 
L 278.423685 282.704836 
L 278.477939 282.526351 
L 278.532193 282.987949 
L 278.749208 280.790746 
L 278.803461 281.116941 
L 278.857715 280.704581 
L 278.911969 280.913839 
L 279.020476 281.073859 
L 279.128984 280.212211 
L 279.183238 280.335304 
L 279.237491 280.366077 
L 279.50876 279.879861 
L 279.563014 280.119892 
L 279.617268 280.052191 
L 280.051298 278.131946 
L 280.214059 278.944357 
L 280.431074 277.362618 
L 280.593836 277.879607 
L 280.648089 277.621112 
L 280.919358 279.282862 
L 280.973612 278.839729 
L 281.027866 279.436728 
L 281.08212 279.31979 
L 281.190627 278.525843 
L 281.244881 278.784337 
L 281.353388 278.144256 
L 281.407642 278.279657 
L 281.461896 278.40275 
L 281.51615 278.16272 
L 281.678911 278.704327 
L 281.895926 277.781133 
L 281.95018 277.842679 
L 282.275702 278.98744 
L 282.329956 278.808956 
L 282.492718 279.849088 
L 282.546971 279.541356 
L 282.601225 280.384541 
L 282.655479 279.362872 
L 282.709733 279.762923 
L 282.763986 280.039881 
L 282.981001 279.042831 
L 283.035255 278.925894 
L 283.089509 278.341204 
L 283.198017 279.621367 
L 283.25227 279.245934 
L 283.306524 280.0645 
L 283.360778 279.504429 
L 283.523539 278.495069 
L 283.632047 278.082709 
L 283.6863 278.470451 
L 283.849062 277.541102 
L 283.957569 277.602648 
L 284.228838 279.756768 
L 284.445853 279.159769 
L 284.554361 279.387491 
L 284.717122 277.387236 
L 284.771376 278.445832 
L 284.879883 278.439678 
L 285.096898 277.257989 
L 285.313913 277.756514 
L 285.422421 276.981031 
L 285.476675 277.017959 
L 285.585182 276.513279 
L 286.019212 278.248884 
L 286.181974 277.017959 
L 286.398989 275.817806 
L 286.453243 276.162465 
L 286.507496 276.082455 
L 286.56175 275.362363 
L 286.616004 276.027063 
L 286.833019 277.042577 
L 286.887273 276.937948 
L 287.104288 275.479301 
L 287.267049 275.473147 
L 287.321303 275.854734 
L 287.375557 275.750105 
L 287.538318 273.626758 
L 287.592572 273.694459 
L 287.646825 273.983726 
L 287.755333 273.128233 
L 287.809587 273.189779 
L 287.972348 272.518925 
L 288.026602 272.715873 
L 288.080856 272.001936 
L 288.189363 272.026554 
L 288.243617 271.755751 
L 288.297871 271.829606 
L 288.460632 272.703564 
L 288.514886 272.371214 
L 288.56914 272.869739 
L 288.677647 271.638813 
L 288.731901 272.328131 
L 288.786155 271.583421 
L 288.840408 271.921926 
L 288.894662 271.989627 
L 288.948916 271.866534 
L 289.111677 272.875893 
L 289.979737 267.946035 
L 290.033991 267.902953 
L 290.142499 269.115415 
L 290.196753 269.066178 
L 290.251006 268.930776 
L 290.359514 269.263126 
L 290.413768 269.164652 
L 290.468021 269.497002 
L 290.630783 269.02925 
L 290.685036 268.986168 
L 290.793544 268.426097 
L 290.847798 268.918467 
L 290.902052 268.807684 
L 291.010559 268.863075 
L 291.498843 266.13042 
L 291.553097 266.30275 
L 291.607351 266.216585 
L 291.661604 266.30275 
L 291.770112 266.555089 
L 291.824366 266.001173 
L 291.878619 266.259667 
L 291.932873 266.118111 
L 291.987127 265.490339 
L 292.041381 266.013482 
L 292.095634 265.810379 
L 292.312649 264.050155 
L 292.366903 264.271722 
L 292.421157 265.256463 
L 292.475411 265.114906 
L 292.583918 264.825639 
L 292.638172 264.493289 
L 292.692426 264.714855 
L 292.74668 264.911803 
L 292.800933 264.499443 
L 292.855187 264.517907 
L 293.017948 266.555089 
L 293.126456 266.278131 
L 293.18071 267.262872 
L 293.234964 266.518162 
L 293.289217 266.54278 
L 293.506232 265.724214 
L 293.560486 265.816534 
L 293.668994 266.665873 
L 293.886009 265.890389 
L 294.04877 265.441101 
L 294.103024 264.813329 
L 294.157278 265.521112 
L 294.211531 264.770247 
L 294.265785 265.157989 
L 294.4828 264.89334 
L 294.537054 265.022587 
L 294.645561 264.05631 
L 294.699815 264.653309 
L 294.754069 264.29634 
L 294.808323 263.988609 
L 294.862577 264.431742 
L 294.91683 264.400969 
L 295.025338 264.130166 
L 295.405114 266.641254 
L 295.459368 266.536625 
L 295.730637 264.862566 
L 295.784891 264.727165 
L 295.947652 266.518162 
L 296.056159 267.576758 
L 296.110413 267.410583 
L 296.273175 267.041305 
L 296.49019 266.585862 
L 296.544443 267.053614 
L 296.598697 266.567399 
L 296.652951 266.696646 
L 296.707205 266.505852 
L 297.141235 267.964499 
L 297.195489 267.958345 
L 297.249742 267.675232 
L 297.466757 269.61394 
L 297.575265 269.176961 
L 297.79228 270.869484 
L 297.900788 270.272485 
L 298.009295 270.303258 
L 298.280564 271.958854 
L 298.334818 271.823452 
L 298.443325 271.497256 
L 298.551833 270.61099 
L 298.606087 271.134133 
L 298.66034 270.500206 
L 298.714594 271.152597 
L 298.768848 270.949494 
L 298.823102 271.614194 
L 298.877355 270.691 
L 298.931609 271.429555 
L 299.040117 272.118874 
L 299.148624 271.392628 
L 299.257132 272.241966 
L 299.311386 272.008091 
L 299.582654 273.165161 
L 299.745416 272.525079 
L 299.908177 273.823706 
L 299.962431 273.706768 
L 300.016684 273.417501 
L 300.070938 273.799088 
L 300.125192 273.657531 
L 300.179446 273.546748 
L 300.287953 274.709973 
L 300.342207 274.574571 
L 300.396461 274.082201 
L 300.450715 274.894612 
L 300.504968 274.716127 
L 300.776237 274.076046 
L 300.830491 273.42981 
L 300.884745 273.620603 
L 301.156014 275.368518 
L 301.264521 275.288508 
L 301.373029 275.036168 
L 301.481536 274.039118 
L 301.53579 274.106819 
L 301.590044 274.026809 
L 301.698551 274.476097 
L 301.96982 277.042577 
L 302.024074 276.48866 
L 302.186835 277.461092 
L 302.241089 277.418009 
L 302.295343 276.439423 
L 302.40385 276.451733 
L 302.566612 277.528793 
L 302.675119 277.504174 
L 302.729373 277.528793 
L 302.783627 277.707277 
L 302.83788 277.571875 
L 302.892134 277.319535 
L 302.946388 277.387236 
L 303.000642 277.701122 
L 303.054895 277.608803 
L 303.109149 277.448783 
L 303.217657 275.940898 
L 303.271911 276.519434 
L 303.326164 276.48866 
L 303.380418 275.953208 
L 303.434672 276.107073 
L 303.543179 276.894866 
L 303.597433 276.051682 
L 303.651687 276.119383 
L 303.705941 276.150156 
L 303.760194 276.008599 
L 303.868702 276.482506 
L 303.922956 276.297867 
L 303.97721 275.700868 
L 304.031463 276.66099 
L 304.085717 276.051682 
L 304.139971 276.433269 
L 304.248478 275.762414 
L 304.302732 275.799342 
L 304.356986 276.433269 
L 304.41124 276.291712 
L 304.574001 275.448528 
L 304.628255 275.485456 
L 304.736762 275.867043 
L 304.84527 275.454683 
L 304.899524 275.780878 
L 305.008031 274.734591 
L 305.170792 276.242475 
L 305.2793 275.768569 
L 305.442061 276.273248 
L 305.496315 276.16862 
L 305.604823 277.202597 
L 305.659076 277.750359 
L 305.767584 276.642526 
L 305.821838 276.704072 
L 305.930345 277.504174 
L 305.984599 277.473401 
L 306.038853 277.57803 
L 306.093106 277.251834 
L 306.14736 277.73805 
L 306.201614 277.553411 
L 306.255868 277.664195 
L 306.310122 278.501224 
L 306.364375 278.328894 
L 306.472883 278.107328 
L 306.527137 278.347358 
L 306.852659 275.386982 
L 307.015421 276.310176 
L 307.069674 276.15631 
L 307.232436 276.544052 
L 307.449451 276.020909 
L 307.503704 276.58098 
L 307.666466 275.399291 
L 307.720719 275.430064 
L 307.774973 275.854734 
L 307.829227 275.023859 
L 307.883481 275.473147 
L 308.100496 274.537643 
L 308.317511 273.405191 
L 308.371765 273.534439 
L 308.480272 272.777419 
L 308.534526 272.863584 
L 308.58878 273.011295 
L 308.697287 274.149901 
L 308.751541 274.045273 
L 308.914302 275.356209 
L 309.348333 271.675741 
L 309.402586 272.518925 
L 309.45684 273.029759 
L 309.619601 272.309667 
L 309.782363 272.857429 
L 309.836616 272.93744 
L 309.999378 271.51572 
L 310.107885 272.500461 
L 310.216393 271.004886 
L 310.270647 271.626504 
L 310.3249 271.392628 
L 310.541915 269.724723 
L 310.813184 268.253767 
L 310.867438 268.370705 
L 310.921692 268.198375 
L 310.975946 269.023096 
L 311.138707 267.441356 
L 311.192961 267.293645 
L 311.247214 267.478284 
L 311.409976 266.05041 
L 311.464229 265.921163 
L 311.572737 264.764092 
L 311.626991 264.899494 
L 311.681245 265.016432 
L 311.789752 263.847053 
L 311.952513 265.071824 
L 312.006767 265.164143 
L 312.061021 264.985659 
L 312.115275 265.287236 
L 312.169528 264.72101 
L 312.33229 266.456615 
L 312.386544 266.161193 
L 312.495051 265.54573 
L 312.549305 266.142729 
L 312.603559 265.95809 
L 312.76632 264.284031 
L 312.983335 262.89924 
L 313.037589 262.936168 
L 313.091842 263.336218 
L 313.146096 263.163889 
L 313.20035 262.665364 
L 313.254604 262.948477 
L 313.308858 263.56394 
L 313.363111 262.88693 
L 313.417365 263.330064 
L 313.63438 264.345578 
L 313.688634 264.284031 
L 313.851395 262.031437 
L 313.959903 262.763838 
L 314.06841 262.720755 
L 314.122664 262.259158 
L 314.176918 263.083879 
L 314.285425 263.05926 
L 314.393933 262.696137 
L 314.610948 265.841152 
L 314.665202 265.016432 
L 315.153486 267.835252 
L 315.207739 267.373655 
L 315.261993 267.472129 
L 315.316247 267.552139 
L 315.424754 268.838457 
L 315.479008 269.583167 
L 315.533262 269.041559 
L 315.587516 269.164652 
L 315.696023 270.395578 
L 315.750277 269.638558 
L 315.804531 270.247867 
L 315.913038 270.340186 
L 316.130053 272.549698 
L 316.184307 272.438915 
L 316.292815 273.546748 
L 316.455576 271.564957 
L 316.50983 271.977317 
L 316.564084 271.897307 
L 316.618337 271.466483 
L 316.781099 273.325181 
L 316.889606 273.68215 
L 316.998114 273.552902 
L 317.160875 274.783828 
L 317.269383 275.830115 
L 317.323636 275.405446 
L 317.486398 274.950003 
L 317.540651 275.110024 
L 317.703413 277.104123 
L 317.757667 276.944103 
L 317.81192 276.451733 
L 317.920428 277.651885 
L 317.974682 277.467246 
L 318.028935 276.611753 
L 318.083189 276.722536 
L 318.300204 278.519688 
L 318.462965 279.22747 
L 318.625727 280.095273 
L 318.788488 280.507633 
L 318.951249 279.695222 
L 319.059757 280.322994 
L 319.114011 279.855242 
L 319.168264 280.046036 
L 319.38528 282.200156 
L 319.439533 281.935507 
L 319.656548 281.738559 
L 319.81931 280.452241 
L 319.873563 280.322994 
L 320.090579 278.008854 
L 320.144832 278.476606 
L 320.199086 278.870502 
L 320.25334 278.470451 
L 320.524609 276.193238 
L 320.578862 276.48866 
L 320.633116 275.620858 
L 320.68737 276.267094 
L 320.958639 274.599189 
L 321.012893 275.208498 
L 321.067146 274.636117 
L 321.175654 273.380573 
L 321.284161 273.595985 
L 321.392669 275.054632 
L 321.501176 275.017704 
L 321.55543 275.276199 
L 321.609684 274.925385 
L 321.663938 275.479301 
L 321.718192 275.122333 
L 321.772445 274.291458 
L 321.826699 274.433014 
L 321.880953 275.226962 
L 321.935207 274.623808 
L 322.097968 275.608549 
L 322.152222 275.50392 
L 322.206475 275.300817 
L 322.314983 275.805497 
L 322.369237 275.657786 
L 322.477744 276.710227 
L 322.531998 275.719332 
L 322.586252 275.934744 
L 322.640506 276.174774 
L 322.694759 276.082455 
L 322.803267 275.190034 
L 322.911774 275.940898 
L 323.128789 275.448528 
L 323.183043 275.337745 
L 323.237297 274.863838 
L 323.291551 275.58393 
L 323.345805 275.030013 
L 323.400058 274.691509 
L 323.508566 276.531743 
L 323.56282 276.24863 
L 323.671327 275.707023 
L 323.725581 276.347104 
L 323.779835 276.137847 
L 323.888342 275.220807 
L 324.051104 276.002445 
L 324.213865 275.116178 
L 324.268119 275.122333 
L 324.376626 275.99629 
L 324.43088 275.971672 
L 324.485134 275.688559 
L 324.702149 277.448783 
L 324.756403 277.436473 
L 324.973418 276.494815 
L 325.027671 276.728691 
L 325.136179 276.796392 
L 325.29894 278.464296 
L 325.461702 278.932048 
L 325.570209 280.033727 
L 325.624463 279.849088 
L 325.949985 281.720095 
L 326.167 283.911143 
L 326.275508 283.763432 
L 326.546777 285.357481 
L 326.601031 285.400563 
L 326.709538 285.936016 
L 326.872299 285.160533 
L 326.926553 284.926657 
L 327.035061 283.252598 
L 327.089315 283.351072 
L 327.143568 283.264907 
L 327.197822 283.351072 
L 327.414837 285.332862 
L 327.523345 285.388254 
L 327.577598 285.948325 
L 327.631852 285.505192 
L 327.686106 285.443646 
L 327.794614 285.929861 
L 327.848867 285.400563 
L 327.903121 285.751377 
L 328.011629 286.889983 
L 328.065882 286.816128 
L 328.120136 286.385304 
L 328.17439 286.502242 
L 328.228644 286.551479 
L 328.337151 287.105395 
L 328.391405 286.496087 
L 328.445659 287.074622 
L 328.499912 287.450055 
L 328.662674 286.071418 
L 328.716928 286.040645 
L 328.771181 285.20977 
L 328.825435 285.671367 
L 328.988196 284.397359 
L 329.096704 284.815873 
L 329.259465 284.729709 
L 329.313719 285.462109 
L 329.367973 284.938966 
L 329.422227 284.871265 
L 329.584988 285.074368 
L 329.639242 284.711245 
L 329.693495 285.265161 
L 329.747749 284.354276 
L 329.802003 284.366585 
L 329.856257 284.489678 
L 329.964764 284.508142 
L 330.181779 282.624826 
L 330.290287 282.907938 
L 330.398794 282.686372 
L 330.561556 282.975639 
L 330.724317 282.194001 
L 330.778571 282.304785 
L 330.887078 283.227979 
L 330.941332 282.889475 
L 331.212601 280.901529 
L 331.375362 279.442882 
L 331.429616 279.799851 
L 331.972154 276.285558 
L 332.080661 277.104123 
L 332.134915 276.470197 
L 332.189169 276.544052 
L 332.243422 276.617908 
L 332.406184 275.707023 
L 332.568945 276.66099 
L 332.677453 276.427114 
L 332.731706 276.180929 
L 332.78596 276.673299 
L 332.840214 276.297867 
L 332.894468 275.75626 
L 332.948721 276.125537 
L 333.002975 276.199393 
L 333.057229 275.965517 
L 333.165737 276.679454 
L 333.274244 276.174774 
L 333.382752 277.257989 
L 333.491259 275.934744 
L 333.545513 276.082455 
L 333.708274 276.630217 
L 333.816782 277.639576 
L 333.871035 277.436473 
L 334.033797 276.777928 
L 334.196558 278.858193 
L 334.250812 278.679708 
L 334.305066 278.630471 
L 334.522081 280.187592 
L 334.576334 280.329149 
L 334.630588 280.089118 
L 334.684842 280.544561 
L 334.739096 280.218366 
L 334.79335 279.676758 
L 334.847603 280.421468 
L 334.901857 280.076809 
L 335.064618 278.81511 
L 335.173126 278.864347 
L 335.22738 279.14746 
L 335.281633 278.864347 
L 335.335887 278.98744 
L 335.552902 281.184642 
L 335.607156 281.215415 
L 336.09544 283.363381 
L 336.149694 282.877165 
L 336.203947 283.184897 
L 336.258201 283.271062 
L 336.366709 282.809464 
L 336.583724 284.409668 
L 336.800739 285.339017 
L 337.072008 288.477878 
L 337.126262 288.237847 
L 337.180515 288.434795 
L 337.289023 288.810228 
L 337.506038 287.425436 
L 337.560292 287.690085 
L 337.723053 289.210278 
L 337.831561 288.890238 
L 337.994322 289.991916 
L 338.048576 289.733422 
L 338.102829 289.924215 
L 338.157083 290.668926 
L 338.211337 290.18271 
L 338.265591 290.115009 
L 338.319844 290.26272 
L 338.374098 290.736626 
L 338.482606 290.712008 
L 338.53686 290.841255 
L 338.591113 290.785863 
L 338.862382 289.801123 
L 339.025143 290.67508 
L 339.079397 291.09975 
L 339.133651 290.84741 
L 339.187905 290.865874 
L 339.242158 290.662771 
L 339.40492 289.591865 
L 339.459174 289.702649 
L 339.513427 290.687389 
L 339.676189 288.93332 
L 339.784696 288.976403 
L 340.001711 287.714704 
L 340.218726 288.921011 
L 340.435741 289.776504 
L 340.544249 291.192069 
L 340.598503 291.161296 
L 340.652756 291.185914 
L 340.761264 292.127573 
L 340.924025 291.25977 
L 340.978279 291.456718 
L 341.032533 291.241306 
L 341.086787 290.51506 
L 341.14104 290.921265 
L 341.195294 291.253615 
L 341.303802 289.948834 
L 341.358055 290.225792 
L 341.466563 290.145782 
L 341.57507 288.342476 
L 341.629324 288.865619 
L 341.683578 289.037949 
L 341.792086 288.003971 
L 341.954847 288.508651 
L 342.009101 288.410177 
L 342.063354 288.890238 
L 342.117608 288.52096 
L 342.334623 288.059363 
L 342.388877 287.973198 
L 342.443131 288.305548 
L 342.7144 286.126809 
L 342.768653 286.693035 
L 342.822907 287.4439 
L 342.877161 286.643798 
L 342.931415 287.351581 
L 342.985668 288.096291 
L 343.039922 287.930116 
L 343.094176 287.413127 
L 343.202684 287.437745 
L 343.256937 287.056158 
L 343.311191 287.677776 
L 343.365445 287.388508 
L 343.419699 287.333117 
L 343.636714 285.739068 
L 343.799475 286.631489 
L 343.853729 286.994612 
L 344.070744 284.526606 
L 344.287759 284.982048 
L 344.45052 286.188356 
L 344.559028 285.726758 
L 344.667535 286.27452 
L 344.721789 286.040645 
L 344.776043 286.231438 
L 344.88455 287.277725 
L 344.938804 286.969994 
L 344.993058 286.256057 
L 345.047312 286.896138 
L 345.101565 286.889983 
L 345.155819 287.043849 
L 345.31858 287.751631 
L 345.372834 287.930116 
L 345.481342 288.637898 
L 345.535596 288.200919 
L 345.589849 288.539424 
L 345.644103 288.508651 
L 345.806864 287.708549 
L 345.915372 287.480828 
L 346.078133 286.649953 
L 346.132387 287.037694 
L 346.240895 285.339017 
L 346.295148 285.868315 
L 346.349402 285.314398 
L 346.403656 285.695985 
L 346.45791 285.437491 
L 346.512163 285.70214 
L 346.566417 286.36684 
L 346.620671 286.280675 
L 346.674925 285.966789 
L 346.837686 287.043849 
L 346.89194 286.969994 
L 347.054701 288.93332 
L 347.108955 288.367094 
L 347.163209 288.410177 
L 347.271716 289.321062 
L 347.32597 289.234897 
L 347.542985 287.554683 
L 347.705746 288.890238 
L 347.76 288.877929 
L 348.085523 286.785355 
L 348.139776 287.093086 
L 348.19403 287.813178 
L 348.248284 286.945375 
L 348.302538 287.056158 
L 348.356791 287.013076 
L 348.519553 285.769841 
L 348.573807 286.268366 
L 348.62806 285.505192 
L 348.682314 285.991408 
L 348.845075 287.628539 
L 348.899329 287.573147 
L 349.06209 289.130268 
L 349.116344 288.699444 
L 349.170598 288.625589 
L 349.224852 288.065517 
L 349.279105 288.151682 
L 349.333359 288.127064 
L 349.387613 288.293239 
L 349.441867 287.308498 
L 349.496121 287.757786 
L 349.604628 288.545579 
L 349.767389 287.979353 
L 349.821643 287.887033 
L 349.875897 287.216179 
L 349.930151 287.376199 
L 350.038658 287.727013 
L 350.147166 287.080777 
L 350.20142 287.185406 
L 350.309927 288.330167 
L 350.364181 288.200919 
L 350.418435 287.542374 
L 350.472688 287.874724 
L 350.526942 288.330167 
L 350.581196 288.096291 
L 350.689703 287.720858 
L 350.743957 288.231692 
L 350.852465 287.376199 
L 350.906719 287.474673 
L 351.177987 288.976403 
L 351.232241 288.804073 
L 351.395002 287.566993 
L 351.449256 287.739322 
L 351.50351 288.065517 
L 351.557764 287.917806 
L 351.612018 287.573147 
L 351.720525 288.939475 
L 351.883286 288.397867 
L 351.93754 288.687135 
L 351.991794 287.917806 
L 352.046048 288.163992 
L 352.100301 288.551733 
L 352.154555 288.508651 
L 352.317316 287.486982 
L 352.37157 287.554683 
L 352.480078 286.225283 
L 352.534332 286.680726 
L 352.588585 286.988457 
L 352.642839 286.791509 
L 352.8056 285.757532 
L 352.859854 285.757532 
L 352.968362 287.03154 
L 353.022615 286.508396 
L 353.185377 285.406718 
L 353.456646 287.345426 
L 353.619407 288.779454 
L 353.673661 288.687135 
L 353.836422 289.388763 
L 354.107691 291.333625 
L 354.270452 290.139627 
L 354.324706 290.484287 
L 354.37896 290.551988 
L 354.487467 289.290289 
L 354.541721 289.419536 
L 354.704482 289.831896 
L 354.81299 289.524165 
L 354.921497 291.105904 
L 355.084259 290.902801 
L 355.192766 290.718163 
L 355.24702 291.124368 
L 355.301274 290.7674 
L 355.355527 290.853564 
L 355.464035 289.10565 
L 355.572543 289.296443 
L 355.626796 289.536474 
L 355.68105 289.179505 
L 355.789558 287.573147 
L 355.843811 287.60392 
L 356.006573 288.434795 
L 356.223588 287.474673 
L 356.277842 287.874724 
L 356.332095 287.560838 
L 356.440603 287.290034 
L 356.494857 287.505446 
L 356.603364 286.649953 
L 356.657618 286.729963 
L 356.766125 287.080777 
L 356.820379 286.791509 
L 356.874633 287.930116 
L 356.928887 287.911652 
L 357.037394 287.843951 
L 357.091648 288.176301 
L 357.145902 287.794714 
L 357.200156 287.93627 
L 357.308663 288.564042 
L 357.579932 285.794459 
L 357.688439 286.52686 
L 357.742693 286.834592 
L 357.796947 286.754582 
L 357.905455 285.911397 
L 357.959708 286.19451 
L 358.013962 286.292984 
L 358.12247 284.809719 
L 358.176723 285.677521 
L 358.230977 285.609821 
L 358.285231 285.585202 
L 358.339485 286.268366 
L 358.393738 285.70214 
L 358.502246 284.243493 
L 358.5565 284.895884 
L 358.610754 284.643544 
L 358.665007 284.674317 
L 358.719261 284.526606 
L 358.882022 283.369536 
L 358.936276 283.283371 
L 358.99053 282.858701 
L 359.044784 283.591102 
L 359.099037 283.283371 
L 359.261799 282.704836 
L 359.316053 282.864856 
L 359.587321 280.723045 
L 359.750083 282.267857 
L 359.804336 281.880115 
L 359.85859 282.132455 
L 359.912844 282.864856 
L 359.967098 282.655599 
L 360.021351 281.566229 
L 360.075605 281.769332 
L 360.129859 281.861652 
L 360.29262 280.082964 
L 360.346874 280.458396 
L 360.401128 280.55687 
L 360.455382 281.418518 
L 360.563889 279.584439 
L 360.672397 280.55687 
L 360.72665 279.670604 
L 360.780904 280.058345 
L 360.889412 281.406209 
L 360.943666 281.246189 
L 361.160681 279.30748 
L 361.214934 280.606107 
L 361.269188 279.947562 
L 361.377696 280.661499 
L 361.486203 279.362872 
L 361.594711 279.387491 
L 361.648965 279.756768 
L 361.757472 278.051936 
L 361.811726 278.673554 
L 361.86598 278.950512 
L 361.920233 278.710481 
L 362.028741 278.341204 
L 362.082995 277.454937 
L 362.137248 277.707277 
L 362.191502 277.621112 
L 362.354263 278.962821 
L 362.408517 277.854988 
L 362.462771 278.261194 
L 362.517025 278.291967 
L 362.625532 279.215161 
L 362.679786 279.159769 
L 362.73404 278.722791 
L 362.788294 279.172079 
L 363.005309 281.744714 
L 363.113816 281.406209 
L 363.330831 279.633676 
L 363.439339 280.550716 
L 363.493593 279.978335 
L 363.6021 281.178488 
L 363.764861 278.882811 
L 363.819115 278.870502 
L 363.927623 280.458396 
L 364.03613 280.033727 
L 364.144638 279.22747 
L 364.198892 279.47981 
L 364.307399 280.193747 
L 364.415907 279.215161 
L 364.47016 279.756768 
L 364.524414 279.590593 
L 364.578668 279.31979 
L 364.632922 279.436728 
L 364.795683 279.22747 
L 364.904191 280.735354 
L 364.958444 280.30453 
L 365.066952 279.959871 
L 365.338221 278.125792 
L 365.446728 278.48276 
L 365.500982 278.925894 
L 365.555236 278.488915 
L 365.60949 277.614958 
L 365.663743 278.525843 
L 365.717997 278.298121 
L 365.772251 278.661244 
L 365.935012 276.851784 
L 365.989266 277.959617 
L 366.04352 277.602648 
L 366.152027 276.624062 
L 366.206281 277.091814 
L 366.369042 275.854734 
L 366.531804 277.399546 
L 366.586057 276.864093 
L 366.748819 277.885761 
L 366.803072 277.608803 
L 366.857326 277.694968 
L 366.91158 277.81806 
L 367.074341 279.338254 
L 367.128595 278.784337 
L 367.237103 279.701377 
L 367.454118 277.454937 
L 367.562625 278.193493 
L 367.671133 277.011804 
L 367.833894 274.642272 
L 367.888148 275.073096 
L 368.105163 272.168111 
L 368.159417 272.075791 
L 368.21367 272.549698 
L 368.430685 271.238762 
L 368.593447 270.617144 
L 368.973223 273.608294 
L 369.027477 272.340441 
L 369.081731 272.371214 
L 369.190238 274.131438 
L 369.407253 271.737287 
L 369.461507 272.211193 
L 369.624268 273.294408 
L 369.678522 273.368264 
L 369.78703 272.235812 
L 369.841283 272.518925 
L 369.895537 272.992831 
L 370.004045 272.174266 
L 370.112552 272.562007 
L 370.275314 273.411346 
L 370.383821 271.995781 
L 370.438075 272.383523 
L 370.763597 270.192475 
L 370.872105 270.967958 
L 370.926359 270.223248 
L 370.980613 270.906412 
L 371.08912 272.038864 
L 371.143374 271.43571 
L 371.197628 272.395832 
L 371.251881 272.248121 
L 371.306135 271.952699 
L 371.414643 272.666636 
L 371.468896 272.174266 
L 371.685912 274.162211 
L 371.848673 274.753055 
L 372.011434 272.223503 
L 372.174195 273.565212 
L 372.228449 273.799088 
L 372.336957 272.734337 
L 372.391211 273.208243 
L 372.662479 270.937185 
L 372.825241 272.777419 
L 372.879494 273.712923 
L 372.933748 273.306717 
L 372.988002 272.826656 
L 373.205017 275.497765 
L 373.584793 278.095019 
L 373.639047 277.854988 
L 373.693301 277.614958 
L 373.747555 277.873452 
L 373.801808 277.978081 
L 373.910316 277.424164 
L 373.96457 277.553411 
L 374.018824 278.224266 
L 374.073077 277.57803 
L 374.127331 277.16567 
L 374.181585 277.288762 
L 374.235839 277.701122 
L 374.290092 277.590339 
L 374.452854 276.753309 
L 374.507107 277.399546 
L 374.561361 277.264144 
L 374.669869 276.16862 
L 374.778376 277.688813 
L 374.83263 277.294917 
L 374.941138 278.488915 
L 375.212406 277.608803 
L 375.26666 278.415059 
L 375.320914 278.033472 
L 375.375168 277.4057 
L 375.429421 277.571875 
L 375.70069 276.870247 
L 376.026213 278.747409 
L 376.243228 280.932303 
L 376.297482 280.267603 
L 376.351736 279.922943 
L 376.405989 280.963076 
L 376.460243 280.747664 
L 376.514497 280.384541 
L 376.623004 281.129251 
L 376.677258 280.938457 
L 376.731512 280.870756 
L 376.785766 281.646239 
L 376.840019 281.418518 
L 376.894273 281.443137 
L 376.948527 282.101682 
L 377.165542 278.919739 
L 377.382557 280.249139 
L 377.491065 281.750868 
L 377.545318 281.689322 
L 377.653826 281.541611 
L 377.70808 281.043086 
L 378.14211 285.28978 
L 378.196364 283.824978 
L 378.250617 284.169637 
L 378.304871 284.003462 
L 378.359125 283.326453 
L 378.413379 283.806514 
L 378.467632 283.726504 
L 378.630394 282.907938 
L 378.684648 282.957175 
L 378.847409 283.572638 
L 378.901663 283.160278 
L 378.955916 283.431082 
L 379.01017 284.218874 
L 379.172931 282.877165 
L 379.335693 282.717145 
L 379.389947 283.018722 
L 379.4442 282.618671 
L 379.498454 283.024876 
L 379.661215 285.178997 
L 379.715469 285.006667 
L 379.769723 285.271316 
L 379.932484 284.563534 
L 380.203753 286.1145 
L 380.258007 285.302089 
L 380.312261 285.929861 
L 380.366514 285.911397 
L 380.475022 284.53276 
L 380.529276 284.895884 
L 380.583529 284.329658 
L 380.637783 284.366585 
L 380.746291 284.329658 
L 380.800544 284.828183 
L 380.854798 284.668162 
L 380.909052 284.754327 
L 381.01756 285.203615 
L 381.234575 283.271062 
L 381.288828 284.237338 
L 381.343082 283.572638 
L 381.397336 283.806514 
L 381.505843 283.197206 
L 381.560097 283.492628 
L 381.722859 282.04629 
L 381.831366 281.923198 
L 382.048381 281.080014 
L 382.102635 281.006158 
L 382.428158 278.630471 
L 382.536665 280.181438 
L 382.590919 280.132201 
L 382.807934 278.427369 
L 382.862188 278.612007 
L 383.133456 277.454937 
L 383.18771 277.811906 
L 383.241964 277.473401 
L 383.296218 277.301071 
L 383.567487 273.848325 
L 383.62174 273.362109 
L 383.784502 274.328386 
L 383.838755 274.260685 
L 383.893009 273.546748 
L 384.055771 275.159261 
L 384.272786 274.389932 
L 384.435547 275.220807 
L 384.489801 274.143747 
L 384.544054 274.734591 
L 384.598308 274.857684 
L 384.706816 274.451478 
L 384.815323 274.6792 
L 384.869577 274.340695 
L 384.923831 275.011549 
L 384.978085 274.383777 
L 385.140846 272.309667 
L 385.1951 272.377368 
L 385.303607 273.534439 
L 385.357861 272.900512 
L 385.412115 272.76511 
L 385.520622 272.094255 
L 385.62913 273.066687 
L 385.683384 272.35275 
L 385.737637 272.51277 
L 385.791891 272.438915 
L 385.846145 271.971163 
L 386.06316 274.968467 
L 386.117414 274.41455 
L 386.171667 274.802292 
L 386.280175 275.09156 
L 386.93122 279.713686 
L 386.985474 279.633676 
L 387.039728 279.381336 
L 387.148235 280.372231 
L 387.202489 279.886016 
L 387.256743 280.575334 
L 387.310997 280.107582 
L 387.36525 280.138355 
L 387.962042 283.523401 
L 388.070549 283.54802 
L 388.124803 282.895629 
L 388.233311 282.544815 
L 388.450326 284.065009 
L 388.504579 283.603412 
L 388.613087 282.704836 
L 388.667341 282.815619 
L 388.721595 283.578793 
L 388.775848 282.698681 
L 388.830102 283.603412 
L 388.884356 283.541865 
L 389.101371 286.028335 
L 389.155625 285.628284 
L 389.209878 285.763686 
L 389.318386 286.249902 
L 389.535401 284.286575 
L 389.589655 285.215924 
L 389.643909 284.858956 
L 389.860924 283.049495 
L 389.915177 283.067959 
L 389.969431 283.917298 
L 390.023685 283.486474 
L 390.2407 282.661753 
L 390.349208 283.351072 
L 390.403461 282.643289 
L 390.457715 282.951021 
L 390.620476 284.606616 
L 390.728984 283.978844 
L 390.783238 284.034236 
L 391.000253 284.581998 
L 391.054507 284.440441 
L 391.10876 284.674317 
L 391.163014 284.434286 
L 391.217268 284.501987 
L 391.271522 284.45275 
L 391.54279 282.224775 
L 391.597044 282.477114 
L 391.651298 282.815619 
L 391.814059 281.917043 
L 391.868313 282.329403 
L 391.922567 282.224775 
L 391.976821 281.843188 
L 392.031074 282.29863 
L 392.085328 281.88627 
L 392.193836 280.821519 
L 392.248089 280.883066 
L 392.356597 281.510838 
L 392.736373 279.196697 
L 392.844881 280.538406 
L 393.007642 279.135151 
L 393.061896 279.018213 
L 393.11615 279.547511 
L 393.224657 278.32274 
L 393.278911 278.932048 
L 393.333165 278.439678 
L 393.441672 279.061295 
L 393.495926 278.821265 
L 393.55018 279.048986 
L 393.712941 280.723045 
L 393.875702 279.036677 
L 394.092718 280.378386 
L 394.146971 280.089118 
L 394.743763 275.83627 
L 394.798017 275.934744 
L 395.015032 277.73805 
L 395.069285 276.808701 
L 395.123539 277.257989 
L 395.177793 277.430319 
L 395.232047 277.085659 
L 395.449062 278.144256 
L 395.503316 277.750359 
L 395.720331 280.741509 
L 395.774584 280.199902 
L 395.828838 280.390695 
L 395.991599 281.449291 
L 396.100107 280.864602 
L 396.154361 281.086168 
L 396.208614 281.455446 
L 396.262868 280.883066 
L 396.42563 281.701631 
L 396.534137 282.13861 
L 396.751152 280.895375 
L 396.805406 281.098478 
L 396.85966 280.021417 
L 396.913913 280.581489 
L 396.968167 280.175283 
L 397.022421 280.329149 
L 397.130929 280.126046 
L 397.239436 281.209261 
L 397.29369 281.184642 
L 397.402197 280.507633 
L 397.673466 282.261702 
L 397.72772 282.101682 
L 397.890481 281.160024 
L 397.944735 280.938457 
L 398.16175 282.446341 
L 398.433019 280.39685 
L 398.487273 280.550716 
" clip-path="url(#p514f4c0bec)" style="fill: none; stroke: #1f77b4; stroke-width: 1.5; stroke-linecap: square"/>
   </g>
   <g id="patch_3">
    <path d="M 57.6 307.584 
L 57.6 41.472 
" style="fill: none; stroke: #000000; stroke-width: 0.8; stroke-linejoin: miter; stroke-linecap: square"/>
   </g>
   <g id="patch_4">
    <path d="M 414.72 307.584 
L 414.72 41.472 
" style="fill: none; stroke: #000000; stroke-width: 0.8; stroke-linejoin: miter; stroke-linecap: square"/>
   </g>
   <g id="patch_5">
    <path d="M 57.6 307.584 
L 414.72 307.584 
" style="fill: none; stroke: #000000; stroke-width: 0.8; stroke-linejoin: miter; stroke-linecap: square"/>
   </g>
   <g id="patch_6">
    <path d="M 57.6 41.472 
L 414.72 41.472 
" style="fill: none; stroke: #000000; stroke-width: 0.8; stroke-linejoin: miter; stroke-linecap: square"/>
   </g>
   <g id="text_18">
    <!-- Rolling average training progress of customer/buy_nothing -->
    <g transform="translate(59.611875 35.472)scale(0.12 -0.12)">
     <defs>
      <path id="DejaVuSans-52" d="M 2841 2188 
Q 3044 2119 3236 1894 
Q 3428 1669 3622 1275 
L 4263 0 
L 3584 0 
L 2988 1197 
Q 2756 1666 2539 1819 
Q 2322 1972 1947 1972 
L 1259 1972 
L 1259 0 
L 628 0 
L 628 4666 
L 2053 4666 
Q 2853 4666 3247 4331 
Q 3641 3997 3641 3322 
Q 3641 2881 3436 2590 
Q 3231 2300 2841 2188 
z
M 1259 4147 
L 1259 2491 
L 2053 2491 
Q 2509 2491 2742 2702 
Q 2975 2913 2975 3322 
Q 2975 3731 2742 3939 
Q 2509 4147 2053 4147 
L 1259 4147 
z
" transform="scale(0.015625)"/>
      <path id="DejaVuSans-6c" d="M 603 4863 
L 1178 4863 
L 1178 0 
L 603 0 
L 603 4863 
z
" transform="scale(0.015625)"/>
      <path id="DejaVuSans-20" transform="scale(0.015625)"/>
      <path id="DejaVuSans-61" d="M 2194 1759 
Q 1497 1759 1228 1600 
Q 959 1441 959 1056 
Q 959 750 1161 570 
Q 1363 391 1709 391 
Q 2188 391 2477 730 
Q 2766 1069 2766 1631 
L 2766 1759 
L 2194 1759 
z
M 3341 1997 
L 3341 0 
L 2766 0 
L 2766 531 
Q 2569 213 2275 61 
Q 1981 -91 1556 -91 
Q 1019 -91 701 211 
Q 384 513 384 1019 
Q 384 1609 779 1909 
Q 1175 2209 1959 2209 
L 2766 2209 
L 2766 2266 
Q 2766 2663 2505 2880 
Q 2244 3097 1772 3097 
Q 1472 3097 1187 3025 
Q 903 2953 641 2809 
L 641 3341 
Q 956 3463 1253 3523 
Q 1550 3584 1831 3584 
Q 2591 3584 2966 3190 
Q 3341 2797 3341 1997 
z
" transform="scale(0.015625)"/>
      <path id="DejaVuSans-76" d="M 191 3500 
L 800 3500 
L 1894 563 
L 2988 3500 
L 3597 3500 
L 2284 0 
L 1503 0 
L 191 3500 
z
" transform="scale(0.015625)"/>
      <path id="DejaVuSans-66" d="M 2375 4863 
L 2375 4384 
L 1825 4384 
Q 1516 4384 1395 4259 
Q 1275 4134 1275 3809 
L 1275 3500 
L 2222 3500 
L 2222 3053 
L 1275 3053 
L 1275 0 
L 697 0 
L 697 3053 
L 147 3053 
L 147 3500 
L 697 3500 
L 697 3744 
Q 697 4328 969 4595 
Q 1241 4863 1831 4863 
L 2375 4863 
z
" transform="scale(0.015625)"/>
     </defs>
     <use xlink:href="#DejaVuSans-52"/>
     <use xlink:href="#DejaVuSans-6f" x="64.982422"/>
     <use xlink:href="#DejaVuSans-6c" x="126.164062"/>
     <use xlink:href="#DejaVuSans-6c" x="153.947266"/>
     <use xlink:href="#DejaVuSans-69" x="181.730469"/>
     <use xlink:href="#DejaVuSans-6e" x="209.513672"/>
     <use xlink:href="#DejaVuSans-67" x="272.892578"/>
     <use xlink:href="#DejaVuSans-20" x="336.369141"/>
     <use xlink:href="#DejaVuSans-61" x="368.15625"/>
     <use xlink:href="#DejaVuSans-76" x="429.435547"/>
     <use xlink:href="#DejaVuSans-65" x="488.615234"/>
     <use xlink:href="#DejaVuSans-72" x="550.138672"/>
     <use xlink:href="#DejaVuSans-61" x="591.251953"/>
     <use xlink:href="#DejaVuSans-67" x="652.53125"/>
     <use xlink:href="#DejaVuSans-65" x="716.007812"/>
     <use xlink:href="#DejaVuSans-20" x="777.53125"/>
     <use xlink:href="#DejaVuSans-74" x="809.318359"/>
     <use xlink:href="#DejaVuSans-72" x="848.527344"/>
     <use xlink:href="#DejaVuSans-61" x="889.640625"/>
     <use xlink:href="#DejaVuSans-69" x="950.919922"/>
     <use xlink:href="#DejaVuSans-6e" x="978.703125"/>
     <use xlink:href="#DejaVuSans-69" x="1042.082031"/>
     <use xlink:href="#DejaVuSans-6e" x="1069.865234"/>
     <use xlink:href="#DejaVuSans-67" x="1133.244141"/>
     <use xlink:href="#DejaVuSans-20" x="1196.720703"/>
     <use xlink:href="#DejaVuSans-70" x="1228.507812"/>
     <use xlink:href="#DejaVuSans-72" x="1291.984375"/>
     <use xlink:href="#DejaVuSans-6f" x="1330.847656"/>
     <use xlink:href="#DejaVuSans-67" x="1392.029297"/>
     <use xlink:href="#DejaVuSans-72" x="1455.505859"/>
     <use xlink:href="#DejaVuSans-65" x="1494.369141"/>
     <use xlink:href="#DejaVuSans-73" x="1555.892578"/>
     <use xlink:href="#DejaVuSans-73" x="1607.992188"/>
     <use xlink:href="#DejaVuSans-20" x="1660.091797"/>
     <use xlink:href="#DejaVuSans-6f" x="1691.878906"/>
     <use xlink:href="#DejaVuSans-66" x="1753.060547"/>
     <use xlink:href="#DejaVuSans-20" x="1788.265625"/>
     <use xlink:href="#DejaVuSans-63" x="1820.052734"/>
     <use xlink:href="#DejaVuSans-75" x="1875.033203"/>
     <use xlink:href="#DejaVuSans-73" x="1938.412109"/>
     <use xlink:href="#DejaVuSans-74" x="1990.511719"/>
     <use xlink:href="#DejaVuSans-6f" x="2029.720703"/>
     <use xlink:href="#DejaVuSans-6d" x="2090.902344"/>
     <use xlink:href="#DejaVuSans-65" x="2188.314453"/>
     <use xlink:href="#DejaVuSans-72" x="2249.837891"/>
     <use xlink:href="#DejaVuSans-2f" x="2290.951172"/>
     <use xlink:href="#DejaVuSans-62" x="2324.642578"/>
     <use xlink:href="#DejaVuSans-75" x="2388.119141"/>
     <use xlink:href="#DejaVuSans-79" x="2451.498047"/>
     <use xlink:href="#DejaVuSans-5f" x="2510.677734"/>
     <use xlink:href="#DejaVuSans-6e" x="2560.677734"/>
     <use xlink:href="#DejaVuSans-6f" x="2624.056641"/>
     <use xlink:href="#DejaVuSans-74" x="2685.238281"/>
     <use xlink:href="#DejaVuSans-68" x="2724.447266"/>
     <use xlink:href="#DejaVuSans-69" x="2787.826172"/>
     <use xlink:href="#DejaVuSans-6e" x="2815.609375"/>
     <use xlink:href="#DejaVuSans-67" x="2878.988281"/>
    </g>
   </g>
  </g>
 </g>
 <defs>
  <clipPath id="p514f4c0bec">
   <rect x="57.6" y="41.472" width="357.12" height="266.112"/>
  </clipPath>
 </defs>
</svg>
