<?xml version="1.0" encoding="utf-8" standalone="no"?>
<!DOCTYPE svg PUBLIC "-//W3C//DTD SVG 1.1//EN"
  "http://www.w3.org/Graphics/SVG/1.1/DTD/svg11.dtd">
<svg xmlns:xlink="http://www.w3.org/1999/xlink" width="460.8pt" height="345.6pt" viewBox="0 0 460.8 345.6" xmlns="http://www.w3.org/2000/svg" version="1.1">
 <metadata>
  <rdf:RDF xmlns:dc="http://purl.org/dc/elements/1.1/" xmlns:cc="http://creativecommons.org/ns#" xmlns:rdf="http://www.w3.org/1999/02/22-rdf-syntax-ns#">
   <cc:Work>
    <dc:type rdf:resource="http://purl.org/dc/dcmitype/StillImage"/>
    <dc:date>2022-06-21T20:54:21.579557</dc:date>
    <dc:format>image/svg+xml</dc:format>
    <dc:creator>
     <cc:Agent>
      <dc:title>Matplotlib v3.5.2, https://matplotlib.org/</dc:title>
     </cc:Agent>
    </dc:creator>
   </cc:Work>
  </rdf:RDF>
 </metadata>
 <defs>
  <style type="text/css">*{stroke-linejoin: round; stroke-linecap: butt}</style>
 </defs>
 <g id="figure_1">
  <g id="patch_1">
   <path d="M 0 345.6 
L 460.8 345.6 
L 460.8 0 
L 0 0 
L 0 345.6 
z
" style="fill: none"/>
  </g>
  <g id="axes_1">
   <g id="patch_2">
    <path d="M 57.6 307.584 
L 414.72 307.584 
L 414.72 41.472 
L 57.6 41.472 
L 57.6 307.584 
z
" style="fill: none"/>
   </g>
   <g id="matplotlib.axis_1">
    <g id="xtick_1">
     <g id="line2d_1">
      <path d="M 104.530722 307.584 
L 104.530722 41.472 
" clip-path="url(#pe0563681f2)" style="fill: none; stroke-dasharray: 2.96,1.28; stroke-dashoffset: 0; stroke: #b0b0b0; stroke-width: 0.8"/>
     </g>
     <g id="line2d_2">
      <defs>
       <path id="m93fd65147a" d="M 0 0 
L 0 3.5 
" style="stroke: #000000; stroke-width: 0.8"/>
      </defs>
      <g>
       <use xlink:href="#m93fd65147a" x="104.530722" y="307.584" style="stroke: #000000; stroke-width: 0.8"/>
      </g>
     </g>
     <g id="text_1">
      <!-- 0 -->
      <g transform="translate(101.349472 322.182437)scale(0.1 -0.1)">
       <defs>
        <path id="DejaVuSans-30" d="M 2034 4250 
Q 1547 4250 1301 3770 
Q 1056 3291 1056 2328 
Q 1056 1369 1301 889 
Q 1547 409 2034 409 
Q 2525 409 2770 889 
Q 3016 1369 3016 2328 
Q 3016 3291 2770 3770 
Q 2525 4250 2034 4250 
z
M 2034 4750 
Q 2819 4750 3233 4129 
Q 3647 3509 3647 2328 
Q 3647 1150 3233 529 
Q 2819 -91 2034 -91 
Q 1250 -91 836 529 
Q 422 1150 422 2328 
Q 422 3509 836 4129 
Q 1250 4750 2034 4750 
z
" transform="scale(0.015625)"/>
       </defs>
       <use xlink:href="#DejaVuSans-30"/>
      </g>
     </g>
    </g>
    <g id="xtick_2">
     <g id="line2d_3">
      <path d="M 156.210847 307.584 
L 156.210847 41.472 
" clip-path="url(#pe0563681f2)" style="fill: none; stroke-dasharray: 2.96,1.28; stroke-dashoffset: 0; stroke: #b0b0b0; stroke-width: 0.8"/>
     </g>
     <g id="line2d_4">
      <g>
       <use xlink:href="#m93fd65147a" x="156.210847" y="307.584" style="stroke: #000000; stroke-width: 0.8"/>
      </g>
     </g>
     <g id="text_2">
      <!-- 20 -->
      <g transform="translate(149.848347 322.182437)scale(0.1 -0.1)">
       <defs>
        <path id="DejaVuSans-32" d="M 1228 531 
L 3431 531 
L 3431 0 
L 469 0 
L 469 531 
Q 828 903 1448 1529 
Q 2069 2156 2228 2338 
Q 2531 2678 2651 2914 
Q 2772 3150 2772 3378 
Q 2772 3750 2511 3984 
Q 2250 4219 1831 4219 
Q 1534 4219 1204 4116 
Q 875 4013 500 3803 
L 500 4441 
Q 881 4594 1212 4672 
Q 1544 4750 1819 4750 
Q 2544 4750 2975 4387 
Q 3406 4025 3406 3419 
Q 3406 3131 3298 2873 
Q 3191 2616 2906 2266 
Q 2828 2175 2409 1742 
Q 1991 1309 1228 531 
z
" transform="scale(0.015625)"/>
       </defs>
       <use xlink:href="#DejaVuSans-32"/>
       <use xlink:href="#DejaVuSans-30" x="63.623047"/>
      </g>
     </g>
    </g>
    <g id="xtick_3">
     <g id="line2d_5">
      <path d="M 207.890972 307.584 
L 207.890972 41.472 
" clip-path="url(#pe0563681f2)" style="fill: none; stroke-dasharray: 2.96,1.28; stroke-dashoffset: 0; stroke: #b0b0b0; stroke-width: 0.8"/>
     </g>
     <g id="line2d_6">
      <g>
       <use xlink:href="#m93fd65147a" x="207.890972" y="307.584" style="stroke: #000000; stroke-width: 0.8"/>
      </g>
     </g>
     <g id="text_3">
      <!-- 40 -->
      <g transform="translate(201.528472 322.182437)scale(0.1 -0.1)">
       <defs>
        <path id="DejaVuSans-34" d="M 2419 4116 
L 825 1625 
L 2419 1625 
L 2419 4116 
z
M 2253 4666 
L 3047 4666 
L 3047 1625 
L 3713 1625 
L 3713 1100 
L 3047 1100 
L 3047 0 
L 2419 0 
L 2419 1100 
L 313 1100 
L 313 1709 
L 2253 4666 
z
" transform="scale(0.015625)"/>
       </defs>
       <use xlink:href="#DejaVuSans-34"/>
       <use xlink:href="#DejaVuSans-30" x="63.623047"/>
      </g>
     </g>
    </g>
    <g id="xtick_4">
     <g id="line2d_7">
      <path d="M 259.571097 307.584 
L 259.571097 41.472 
" clip-path="url(#pe0563681f2)" style="fill: none; stroke-dasharray: 2.96,1.28; stroke-dashoffset: 0; stroke: #b0b0b0; stroke-width: 0.8"/>
     </g>
     <g id="line2d_8">
      <g>
       <use xlink:href="#m93fd65147a" x="259.571097" y="307.584" style="stroke: #000000; stroke-width: 0.8"/>
      </g>
     </g>
     <g id="text_4">
      <!-- 60 -->
      <g transform="translate(253.208597 322.182437)scale(0.1 -0.1)">
       <defs>
        <path id="DejaVuSans-36" d="M 2113 2584 
Q 1688 2584 1439 2293 
Q 1191 2003 1191 1497 
Q 1191 994 1439 701 
Q 1688 409 2113 409 
Q 2538 409 2786 701 
Q 3034 994 3034 1497 
Q 3034 2003 2786 2293 
Q 2538 2584 2113 2584 
z
M 3366 4563 
L 3366 3988 
Q 3128 4100 2886 4159 
Q 2644 4219 2406 4219 
Q 1781 4219 1451 3797 
Q 1122 3375 1075 2522 
Q 1259 2794 1537 2939 
Q 1816 3084 2150 3084 
Q 2853 3084 3261 2657 
Q 3669 2231 3669 1497 
Q 3669 778 3244 343 
Q 2819 -91 2113 -91 
Q 1303 -91 875 529 
Q 447 1150 447 2328 
Q 447 3434 972 4092 
Q 1497 4750 2381 4750 
Q 2619 4750 2861 4703 
Q 3103 4656 3366 4563 
z
" transform="scale(0.015625)"/>
       </defs>
       <use xlink:href="#DejaVuSans-36"/>
       <use xlink:href="#DejaVuSans-30" x="63.623047"/>
      </g>
     </g>
    </g>
    <g id="xtick_5">
     <g id="line2d_9">
      <path d="M 311.251222 307.584 
L 311.251222 41.472 
" clip-path="url(#pe0563681f2)" style="fill: none; stroke-dasharray: 2.96,1.28; stroke-dashoffset: 0; stroke: #b0b0b0; stroke-width: 0.8"/>
     </g>
     <g id="line2d_10">
      <g>
       <use xlink:href="#m93fd65147a" x="311.251222" y="307.584" style="stroke: #000000; stroke-width: 0.8"/>
      </g>
     </g>
     <g id="text_5">
      <!-- 80 -->
      <g transform="translate(304.888722 322.182437)scale(0.1 -0.1)">
       <defs>
        <path id="DejaVuSans-38" d="M 2034 2216 
Q 1584 2216 1326 1975 
Q 1069 1734 1069 1313 
Q 1069 891 1326 650 
Q 1584 409 2034 409 
Q 2484 409 2743 651 
Q 3003 894 3003 1313 
Q 3003 1734 2745 1975 
Q 2488 2216 2034 2216 
z
M 1403 2484 
Q 997 2584 770 2862 
Q 544 3141 544 3541 
Q 544 4100 942 4425 
Q 1341 4750 2034 4750 
Q 2731 4750 3128 4425 
Q 3525 4100 3525 3541 
Q 3525 3141 3298 2862 
Q 3072 2584 2669 2484 
Q 3125 2378 3379 2068 
Q 3634 1759 3634 1313 
Q 3634 634 3220 271 
Q 2806 -91 2034 -91 
Q 1263 -91 848 271 
Q 434 634 434 1313 
Q 434 1759 690 2068 
Q 947 2378 1403 2484 
z
M 1172 3481 
Q 1172 3119 1398 2916 
Q 1625 2713 2034 2713 
Q 2441 2713 2670 2916 
Q 2900 3119 2900 3481 
Q 2900 3844 2670 4047 
Q 2441 4250 2034 4250 
Q 1625 4250 1398 4047 
Q 1172 3844 1172 3481 
z
" transform="scale(0.015625)"/>
       </defs>
       <use xlink:href="#DejaVuSans-38"/>
       <use xlink:href="#DejaVuSans-30" x="63.623047"/>
      </g>
     </g>
    </g>
    <g id="xtick_6">
     <g id="line2d_11">
      <path d="M 362.931347 307.584 
L 362.931347 41.472 
" clip-path="url(#pe0563681f2)" style="fill: none; stroke-dasharray: 2.96,1.28; stroke-dashoffset: 0; stroke: #b0b0b0; stroke-width: 0.8"/>
     </g>
     <g id="line2d_12">
      <g>
       <use xlink:href="#m93fd65147a" x="362.931347" y="307.584" style="stroke: #000000; stroke-width: 0.8"/>
      </g>
     </g>
     <g id="text_6">
      <!-- 100 -->
      <g transform="translate(353.387597 322.182437)scale(0.1 -0.1)">
       <defs>
        <path id="DejaVuSans-31" d="M 794 531 
L 1825 531 
L 1825 4091 
L 703 3866 
L 703 4441 
L 1819 4666 
L 2450 4666 
L 2450 531 
L 3481 531 
L 3481 0 
L 794 0 
L 794 531 
z
" transform="scale(0.015625)"/>
       </defs>
       <use xlink:href="#DejaVuSans-31"/>
       <use xlink:href="#DejaVuSans-30" x="63.623047"/>
       <use xlink:href="#DejaVuSans-30" x="127.246094"/>
      </g>
     </g>
    </g>
    <g id="xtick_7">
     <g id="line2d_13">
      <path d="M 414.611472 307.584 
L 414.611472 41.472 
" clip-path="url(#pe0563681f2)" style="fill: none; stroke-dasharray: 2.96,1.28; stroke-dashoffset: 0; stroke: #b0b0b0; stroke-width: 0.8"/>
     </g>
     <g id="line2d_14">
      <g>
       <use xlink:href="#m93fd65147a" x="414.611472" y="307.584" style="stroke: #000000; stroke-width: 0.8"/>
      </g>
     </g>
     <g id="text_7">
      <!-- 120 -->
      <g transform="translate(405.067722 322.182437)scale(0.1 -0.1)">
       <use xlink:href="#DejaVuSans-31"/>
       <use xlink:href="#DejaVuSans-32" x="63.623047"/>
       <use xlink:href="#DejaVuSans-30" x="127.246094"/>
      </g>
     </g>
    </g>
    <g id="text_8">
     <!-- episode_20029_state/in_storage -->
     <g transform="translate(155.296719 335.860562)scale(0.1 -0.1)">
      <defs>
       <path id="DejaVuSans-65" d="M 3597 1894 
L 3597 1613 
L 953 1613 
Q 991 1019 1311 708 
Q 1631 397 2203 397 
Q 2534 397 2845 478 
Q 3156 559 3463 722 
L 3463 178 
Q 3153 47 2828 -22 
Q 2503 -91 2169 -91 
Q 1331 -91 842 396 
Q 353 884 353 1716 
Q 353 2575 817 3079 
Q 1281 3584 2069 3584 
Q 2775 3584 3186 3129 
Q 3597 2675 3597 1894 
z
M 3022 2063 
Q 3016 2534 2758 2815 
Q 2500 3097 2075 3097 
Q 1594 3097 1305 2825 
Q 1016 2553 972 2059 
L 3022 2063 
z
" transform="scale(0.015625)"/>
       <path id="DejaVuSans-70" d="M 1159 525 
L 1159 -1331 
L 581 -1331 
L 581 3500 
L 1159 3500 
L 1159 2969 
Q 1341 3281 1617 3432 
Q 1894 3584 2278 3584 
Q 2916 3584 3314 3078 
Q 3713 2572 3713 1747 
Q 3713 922 3314 415 
Q 2916 -91 2278 -91 
Q 1894 -91 1617 61 
Q 1341 213 1159 525 
z
M 3116 1747 
Q 3116 2381 2855 2742 
Q 2594 3103 2138 3103 
Q 1681 3103 1420 2742 
Q 1159 2381 1159 1747 
Q 1159 1113 1420 752 
Q 1681 391 2138 391 
Q 2594 391 2855 752 
Q 3116 1113 3116 1747 
z
" transform="scale(0.015625)"/>
       <path id="DejaVuSans-69" d="M 603 3500 
L 1178 3500 
L 1178 0 
L 603 0 
L 603 3500 
z
M 603 4863 
L 1178 4863 
L 1178 4134 
L 603 4134 
L 603 4863 
z
" transform="scale(0.015625)"/>
       <path id="DejaVuSans-73" d="M 2834 3397 
L 2834 2853 
Q 2591 2978 2328 3040 
Q 2066 3103 1784 3103 
Q 1356 3103 1142 2972 
Q 928 2841 928 2578 
Q 928 2378 1081 2264 
Q 1234 2150 1697 2047 
L 1894 2003 
Q 2506 1872 2764 1633 
Q 3022 1394 3022 966 
Q 3022 478 2636 193 
Q 2250 -91 1575 -91 
Q 1294 -91 989 -36 
Q 684 19 347 128 
L 347 722 
Q 666 556 975 473 
Q 1284 391 1588 391 
Q 1994 391 2212 530 
Q 2431 669 2431 922 
Q 2431 1156 2273 1281 
Q 2116 1406 1581 1522 
L 1381 1569 
Q 847 1681 609 1914 
Q 372 2147 372 2553 
Q 372 3047 722 3315 
Q 1072 3584 1716 3584 
Q 2034 3584 2315 3537 
Q 2597 3491 2834 3397 
z
" transform="scale(0.015625)"/>
       <path id="DejaVuSans-6f" d="M 1959 3097 
Q 1497 3097 1228 2736 
Q 959 2375 959 1747 
Q 959 1119 1226 758 
Q 1494 397 1959 397 
Q 2419 397 2687 759 
Q 2956 1122 2956 1747 
Q 2956 2369 2687 2733 
Q 2419 3097 1959 3097 
z
M 1959 3584 
Q 2709 3584 3137 3096 
Q 3566 2609 3566 1747 
Q 3566 888 3137 398 
Q 2709 -91 1959 -91 
Q 1206 -91 779 398 
Q 353 888 353 1747 
Q 353 2609 779 3096 
Q 1206 3584 1959 3584 
z
" transform="scale(0.015625)"/>
       <path id="DejaVuSans-64" d="M 2906 2969 
L 2906 4863 
L 3481 4863 
L 3481 0 
L 2906 0 
L 2906 525 
Q 2725 213 2448 61 
Q 2172 -91 1784 -91 
Q 1150 -91 751 415 
Q 353 922 353 1747 
Q 353 2572 751 3078 
Q 1150 3584 1784 3584 
Q 2172 3584 2448 3432 
Q 2725 3281 2906 2969 
z
M 947 1747 
Q 947 1113 1208 752 
Q 1469 391 1925 391 
Q 2381 391 2643 752 
Q 2906 1113 2906 1747 
Q 2906 2381 2643 2742 
Q 2381 3103 1925 3103 
Q 1469 3103 1208 2742 
Q 947 2381 947 1747 
z
" transform="scale(0.015625)"/>
       <path id="DejaVuSans-5f" d="M 3263 -1063 
L 3263 -1509 
L -63 -1509 
L -63 -1063 
L 3263 -1063 
z
" transform="scale(0.015625)"/>
       <path id="DejaVuSans-39" d="M 703 97 
L 703 672 
Q 941 559 1184 500 
Q 1428 441 1663 441 
Q 2288 441 2617 861 
Q 2947 1281 2994 2138 
Q 2813 1869 2534 1725 
Q 2256 1581 1919 1581 
Q 1219 1581 811 2004 
Q 403 2428 403 3163 
Q 403 3881 828 4315 
Q 1253 4750 1959 4750 
Q 2769 4750 3195 4129 
Q 3622 3509 3622 2328 
Q 3622 1225 3098 567 
Q 2575 -91 1691 -91 
Q 1453 -91 1209 -44 
Q 966 3 703 97 
z
M 1959 2075 
Q 2384 2075 2632 2365 
Q 2881 2656 2881 3163 
Q 2881 3666 2632 3958 
Q 2384 4250 1959 4250 
Q 1534 4250 1286 3958 
Q 1038 3666 1038 3163 
Q 1038 2656 1286 2365 
Q 1534 2075 1959 2075 
z
" transform="scale(0.015625)"/>
       <path id="DejaVuSans-74" d="M 1172 4494 
L 1172 3500 
L 2356 3500 
L 2356 3053 
L 1172 3053 
L 1172 1153 
Q 1172 725 1289 603 
Q 1406 481 1766 481 
L 2356 481 
L 2356 0 
L 1766 0 
Q 1100 0 847 248 
Q 594 497 594 1153 
L 594 3053 
L 172 3053 
L 172 3500 
L 594 3500 
L 594 4494 
L 1172 4494 
z
" transform="scale(0.015625)"/>
       <path id="DejaVuSans-61" d="M 2194 1759 
Q 1497 1759 1228 1600 
Q 959 1441 959 1056 
Q 959 750 1161 570 
Q 1363 391 1709 391 
Q 2188 391 2477 730 
Q 2766 1069 2766 1631 
L 2766 1759 
L 2194 1759 
z
M 3341 1997 
L 3341 0 
L 2766 0 
L 2766 531 
Q 2569 213 2275 61 
Q 1981 -91 1556 -91 
Q 1019 -91 701 211 
Q 384 513 384 1019 
Q 384 1609 779 1909 
Q 1175 2209 1959 2209 
L 2766 2209 
L 2766 2266 
Q 2766 2663 2505 2880 
Q 2244 3097 1772 3097 
Q 1472 3097 1187 3025 
Q 903 2953 641 2809 
L 641 3341 
Q 956 3463 1253 3523 
Q 1550 3584 1831 3584 
Q 2591 3584 2966 3190 
Q 3341 2797 3341 1997 
z
" transform="scale(0.015625)"/>
       <path id="DejaVuSans-2f" d="M 1625 4666 
L 2156 4666 
L 531 -594 
L 0 -594 
L 1625 4666 
z
" transform="scale(0.015625)"/>
       <path id="DejaVuSans-6e" d="M 3513 2113 
L 3513 0 
L 2938 0 
L 2938 2094 
Q 2938 2591 2744 2837 
Q 2550 3084 2163 3084 
Q 1697 3084 1428 2787 
Q 1159 2491 1159 1978 
L 1159 0 
L 581 0 
L 581 3500 
L 1159 3500 
L 1159 2956 
Q 1366 3272 1645 3428 
Q 1925 3584 2291 3584 
Q 2894 3584 3203 3211 
Q 3513 2838 3513 2113 
z
" transform="scale(0.015625)"/>
       <path id="DejaVuSans-72" d="M 2631 2963 
Q 2534 3019 2420 3045 
Q 2306 3072 2169 3072 
Q 1681 3072 1420 2755 
Q 1159 2438 1159 1844 
L 1159 0 
L 581 0 
L 581 3500 
L 1159 3500 
L 1159 2956 
Q 1341 3275 1631 3429 
Q 1922 3584 2338 3584 
Q 2397 3584 2469 3576 
Q 2541 3569 2628 3553 
L 2631 2963 
z
" transform="scale(0.015625)"/>
       <path id="DejaVuSans-67" d="M 2906 1791 
Q 2906 2416 2648 2759 
Q 2391 3103 1925 3103 
Q 1463 3103 1205 2759 
Q 947 2416 947 1791 
Q 947 1169 1205 825 
Q 1463 481 1925 481 
Q 2391 481 2648 825 
Q 2906 1169 2906 1791 
z
M 3481 434 
Q 3481 -459 3084 -895 
Q 2688 -1331 1869 -1331 
Q 1566 -1331 1297 -1286 
Q 1028 -1241 775 -1147 
L 775 -588 
Q 1028 -725 1275 -790 
Q 1522 -856 1778 -856 
Q 2344 -856 2625 -561 
Q 2906 -266 2906 331 
L 2906 616 
Q 2728 306 2450 153 
Q 2172 0 1784 0 
Q 1141 0 747 490 
Q 353 981 353 1791 
Q 353 2603 747 3093 
Q 1141 3584 1784 3584 
Q 2172 3584 2450 3431 
Q 2728 3278 2906 2969 
L 2906 3500 
L 3481 3500 
L 3481 434 
z
" transform="scale(0.015625)"/>
      </defs>
      <use xlink:href="#DejaVuSans-65"/>
      <use xlink:href="#DejaVuSans-70" x="61.523438"/>
      <use xlink:href="#DejaVuSans-69" x="125"/>
      <use xlink:href="#DejaVuSans-73" x="152.783203"/>
      <use xlink:href="#DejaVuSans-6f" x="204.882812"/>
      <use xlink:href="#DejaVuSans-64" x="266.064453"/>
      <use xlink:href="#DejaVuSans-65" x="329.541016"/>
      <use xlink:href="#DejaVuSans-5f" x="391.064453"/>
      <use xlink:href="#DejaVuSans-32" x="441.064453"/>
      <use xlink:href="#DejaVuSans-30" x="504.6875"/>
      <use xlink:href="#DejaVuSans-30" x="568.310547"/>
      <use xlink:href="#DejaVuSans-32" x="631.933594"/>
      <use xlink:href="#DejaVuSans-39" x="695.556641"/>
      <use xlink:href="#DejaVuSans-5f" x="759.179688"/>
      <use xlink:href="#DejaVuSans-73" x="809.179688"/>
      <use xlink:href="#DejaVuSans-74" x="861.279297"/>
      <use xlink:href="#DejaVuSans-61" x="900.488281"/>
      <use xlink:href="#DejaVuSans-74" x="961.767578"/>
      <use xlink:href="#DejaVuSans-65" x="1000.976562"/>
      <use xlink:href="#DejaVuSans-2f" x="1062.5"/>
      <use xlink:href="#DejaVuSans-69" x="1096.191406"/>
      <use xlink:href="#DejaVuSans-6e" x="1123.974609"/>
      <use xlink:href="#DejaVuSans-5f" x="1187.353516"/>
      <use xlink:href="#DejaVuSans-73" x="1237.353516"/>
      <use xlink:href="#DejaVuSans-74" x="1289.453125"/>
      <use xlink:href="#DejaVuSans-6f" x="1328.662109"/>
      <use xlink:href="#DejaVuSans-72" x="1389.84375"/>
      <use xlink:href="#DejaVuSans-61" x="1430.957031"/>
      <use xlink:href="#DejaVuSans-67" x="1492.236328"/>
      <use xlink:href="#DejaVuSans-65" x="1555.712891"/>
     </g>
    </g>
   </g>
   <g id="matplotlib.axis_2">
    <g id="ytick_1">
     <g id="line2d_15">
      <path d="M 57.6 295.488 
L 414.72 295.488 
" clip-path="url(#pe0563681f2)" style="fill: none; stroke-dasharray: 2.96,1.28; stroke-dashoffset: 0; stroke: #b0b0b0; stroke-width: 0.8"/>
     </g>
     <g id="line2d_16">
      <defs>
       <path id="m321314ce5b" d="M 0 0 
L -3.5 0 
" style="stroke: #000000; stroke-width: 0.8"/>
      </defs>
      <g>
       <use xlink:href="#m321314ce5b" x="57.6" y="295.488" style="stroke: #000000; stroke-width: 0.8"/>
      </g>
     </g>
     <g id="text_9">
      <!-- 0.00 -->
      <g transform="translate(28.334375 299.287219)scale(0.1 -0.1)">
       <defs>
        <path id="DejaVuSans-2e" d="M 684 794 
L 1344 794 
L 1344 0 
L 684 0 
L 684 794 
z
" transform="scale(0.015625)"/>
       </defs>
       <use xlink:href="#DejaVuSans-30"/>
       <use xlink:href="#DejaVuSans-2e" x="63.623047"/>
       <use xlink:href="#DejaVuSans-30" x="95.410156"/>
       <use xlink:href="#DejaVuSans-30" x="159.033203"/>
      </g>
     </g>
    </g>
    <g id="ytick_2">
     <g id="line2d_17">
      <path d="M 57.6 260.641837 
L 414.72 260.641837 
" clip-path="url(#pe0563681f2)" style="fill: none; stroke-dasharray: 2.96,1.28; stroke-dashoffset: 0; stroke: #b0b0b0; stroke-width: 0.8"/>
     </g>
     <g id="line2d_18">
      <g>
       <use xlink:href="#m321314ce5b" x="57.6" y="260.641837" style="stroke: #000000; stroke-width: 0.8"/>
      </g>
     </g>
     <g id="text_10">
      <!-- 0.01 -->
      <g transform="translate(28.334375 264.441056)scale(0.1 -0.1)">
       <use xlink:href="#DejaVuSans-30"/>
       <use xlink:href="#DejaVuSans-2e" x="63.623047"/>
       <use xlink:href="#DejaVuSans-30" x="95.410156"/>
       <use xlink:href="#DejaVuSans-31" x="159.033203"/>
      </g>
     </g>
    </g>
    <g id="ytick_3">
     <g id="line2d_19">
      <path d="M 57.6 225.795674 
L 414.72 225.795674 
" clip-path="url(#pe0563681f2)" style="fill: none; stroke-dasharray: 2.96,1.28; stroke-dashoffset: 0; stroke: #b0b0b0; stroke-width: 0.8"/>
     </g>
     <g id="line2d_20">
      <g>
       <use xlink:href="#m321314ce5b" x="57.6" y="225.795674" style="stroke: #000000; stroke-width: 0.8"/>
      </g>
     </g>
     <g id="text_11">
      <!-- 0.02 -->
      <g transform="translate(28.334375 229.594893)scale(0.1 -0.1)">
       <use xlink:href="#DejaVuSans-30"/>
       <use xlink:href="#DejaVuSans-2e" x="63.623047"/>
       <use xlink:href="#DejaVuSans-30" x="95.410156"/>
       <use xlink:href="#DejaVuSans-32" x="159.033203"/>
      </g>
     </g>
    </g>
    <g id="ytick_4">
     <g id="line2d_21">
      <path d="M 57.6 190.949511 
L 414.72 190.949511 
" clip-path="url(#pe0563681f2)" style="fill: none; stroke-dasharray: 2.96,1.28; stroke-dashoffset: 0; stroke: #b0b0b0; stroke-width: 0.8"/>
     </g>
     <g id="line2d_22">
      <g>
       <use xlink:href="#m321314ce5b" x="57.6" y="190.949511" style="stroke: #000000; stroke-width: 0.8"/>
      </g>
     </g>
     <g id="text_12">
      <!-- 0.03 -->
      <g transform="translate(28.334375 194.74873)scale(0.1 -0.1)">
       <defs>
        <path id="DejaVuSans-33" d="M 2597 2516 
Q 3050 2419 3304 2112 
Q 3559 1806 3559 1356 
Q 3559 666 3084 287 
Q 2609 -91 1734 -91 
Q 1441 -91 1130 -33 
Q 819 25 488 141 
L 488 750 
Q 750 597 1062 519 
Q 1375 441 1716 441 
Q 2309 441 2620 675 
Q 2931 909 2931 1356 
Q 2931 1769 2642 2001 
Q 2353 2234 1838 2234 
L 1294 2234 
L 1294 2753 
L 1863 2753 
Q 2328 2753 2575 2939 
Q 2822 3125 2822 3475 
Q 2822 3834 2567 4026 
Q 2313 4219 1838 4219 
Q 1578 4219 1281 4162 
Q 984 4106 628 3988 
L 628 4550 
Q 988 4650 1302 4700 
Q 1616 4750 1894 4750 
Q 2613 4750 3031 4423 
Q 3450 4097 3450 3541 
Q 3450 3153 3228 2886 
Q 3006 2619 2597 2516 
z
" transform="scale(0.015625)"/>
       </defs>
       <use xlink:href="#DejaVuSans-30"/>
       <use xlink:href="#DejaVuSans-2e" x="63.623047"/>
       <use xlink:href="#DejaVuSans-30" x="95.410156"/>
       <use xlink:href="#DejaVuSans-33" x="159.033203"/>
      </g>
     </g>
    </g>
    <g id="ytick_5">
     <g id="line2d_23">
      <path d="M 57.6 156.103348 
L 414.72 156.103348 
" clip-path="url(#pe0563681f2)" style="fill: none; stroke-dasharray: 2.96,1.28; stroke-dashoffset: 0; stroke: #b0b0b0; stroke-width: 0.8"/>
     </g>
     <g id="line2d_24">
      <g>
       <use xlink:href="#m321314ce5b" x="57.6" y="156.103348" style="stroke: #000000; stroke-width: 0.8"/>
      </g>
     </g>
     <g id="text_13">
      <!-- 0.04 -->
      <g transform="translate(28.334375 159.902567)scale(0.1 -0.1)">
       <use xlink:href="#DejaVuSans-30"/>
       <use xlink:href="#DejaVuSans-2e" x="63.623047"/>
       <use xlink:href="#DejaVuSans-30" x="95.410156"/>
       <use xlink:href="#DejaVuSans-34" x="159.033203"/>
      </g>
     </g>
    </g>
    <g id="ytick_6">
     <g id="line2d_25">
      <path d="M 57.6 121.257185 
L 414.72 121.257185 
" clip-path="url(#pe0563681f2)" style="fill: none; stroke-dasharray: 2.96,1.28; stroke-dashoffset: 0; stroke: #b0b0b0; stroke-width: 0.8"/>
     </g>
     <g id="line2d_26">
      <g>
       <use xlink:href="#m321314ce5b" x="57.6" y="121.257185" style="stroke: #000000; stroke-width: 0.8"/>
      </g>
     </g>
     <g id="text_14">
      <!-- 0.05 -->
      <g transform="translate(28.334375 125.056404)scale(0.1 -0.1)">
       <defs>
        <path id="DejaVuSans-35" d="M 691 4666 
L 3169 4666 
L 3169 4134 
L 1269 4134 
L 1269 2991 
Q 1406 3038 1543 3061 
Q 1681 3084 1819 3084 
Q 2600 3084 3056 2656 
Q 3513 2228 3513 1497 
Q 3513 744 3044 326 
Q 2575 -91 1722 -91 
Q 1428 -91 1123 -41 
Q 819 9 494 109 
L 494 744 
Q 775 591 1075 516 
Q 1375 441 1709 441 
Q 2250 441 2565 725 
Q 2881 1009 2881 1497 
Q 2881 1984 2565 2268 
Q 2250 2553 1709 2553 
Q 1456 2553 1204 2497 
Q 953 2441 691 2322 
L 691 4666 
z
" transform="scale(0.015625)"/>
       </defs>
       <use xlink:href="#DejaVuSans-30"/>
       <use xlink:href="#DejaVuSans-2e" x="63.623047"/>
       <use xlink:href="#DejaVuSans-30" x="95.410156"/>
       <use xlink:href="#DejaVuSans-35" x="159.033203"/>
      </g>
     </g>
    </g>
    <g id="ytick_7">
     <g id="line2d_27">
      <path d="M 57.6 86.411022 
L 414.72 86.411022 
" clip-path="url(#pe0563681f2)" style="fill: none; stroke-dasharray: 2.96,1.28; stroke-dashoffset: 0; stroke: #b0b0b0; stroke-width: 0.8"/>
     </g>
     <g id="line2d_28">
      <g>
       <use xlink:href="#m321314ce5b" x="57.6" y="86.411022" style="stroke: #000000; stroke-width: 0.8"/>
      </g>
     </g>
     <g id="text_15">
      <!-- 0.06 -->
      <g transform="translate(28.334375 90.210241)scale(0.1 -0.1)">
       <use xlink:href="#DejaVuSans-30"/>
       <use xlink:href="#DejaVuSans-2e" x="63.623047"/>
       <use xlink:href="#DejaVuSans-30" x="95.410156"/>
       <use xlink:href="#DejaVuSans-36" x="159.033203"/>
      </g>
     </g>
    </g>
    <g id="ytick_8">
     <g id="line2d_29">
      <path d="M 57.6 51.564859 
L 414.72 51.564859 
" clip-path="url(#pe0563681f2)" style="fill: none; stroke-dasharray: 2.96,1.28; stroke-dashoffset: 0; stroke: #b0b0b0; stroke-width: 0.8"/>
     </g>
     <g id="line2d_30">
      <g>
       <use xlink:href="#m321314ce5b" x="57.6" y="51.564859" style="stroke: #000000; stroke-width: 0.8"/>
      </g>
     </g>
     <g id="text_16">
      <!-- 0.07 -->
      <g transform="translate(28.334375 55.364078)scale(0.1 -0.1)">
       <defs>
        <path id="DejaVuSans-37" d="M 525 4666 
L 3525 4666 
L 3525 4397 
L 1831 0 
L 1172 0 
L 2766 4134 
L 525 4134 
L 525 4666 
z
" transform="scale(0.015625)"/>
       </defs>
       <use xlink:href="#DejaVuSans-30"/>
       <use xlink:href="#DejaVuSans-2e" x="63.623047"/>
       <use xlink:href="#DejaVuSans-30" x="95.410156"/>
       <use xlink:href="#DejaVuSans-37" x="159.033203"/>
      </g>
     </g>
    </g>
    <g id="text_17">
     <!-- Probability density -->
     <g transform="translate(22.254687 220.878781)rotate(-90)scale(0.1 -0.1)">
      <defs>
       <path id="DejaVuSans-50" d="M 1259 4147 
L 1259 2394 
L 2053 2394 
Q 2494 2394 2734 2622 
Q 2975 2850 2975 3272 
Q 2975 3691 2734 3919 
Q 2494 4147 2053 4147 
L 1259 4147 
z
M 628 4666 
L 2053 4666 
Q 2838 4666 3239 4311 
Q 3641 3956 3641 3272 
Q 3641 2581 3239 2228 
Q 2838 1875 2053 1875 
L 1259 1875 
L 1259 0 
L 628 0 
L 628 4666 
z
" transform="scale(0.015625)"/>
       <path id="DejaVuSans-62" d="M 3116 1747 
Q 3116 2381 2855 2742 
Q 2594 3103 2138 3103 
Q 1681 3103 1420 2742 
Q 1159 2381 1159 1747 
Q 1159 1113 1420 752 
Q 1681 391 2138 391 
Q 2594 391 2855 752 
Q 3116 1113 3116 1747 
z
M 1159 2969 
Q 1341 3281 1617 3432 
Q 1894 3584 2278 3584 
Q 2916 3584 3314 3078 
Q 3713 2572 3713 1747 
Q 3713 922 3314 415 
Q 2916 -91 2278 -91 
Q 1894 -91 1617 61 
Q 1341 213 1159 525 
L 1159 0 
L 581 0 
L 581 4863 
L 1159 4863 
L 1159 2969 
z
" transform="scale(0.015625)"/>
       <path id="DejaVuSans-6c" d="M 603 4863 
L 1178 4863 
L 1178 0 
L 603 0 
L 603 4863 
z
" transform="scale(0.015625)"/>
       <path id="DejaVuSans-79" d="M 2059 -325 
Q 1816 -950 1584 -1140 
Q 1353 -1331 966 -1331 
L 506 -1331 
L 506 -850 
L 844 -850 
Q 1081 -850 1212 -737 
Q 1344 -625 1503 -206 
L 1606 56 
L 191 3500 
L 800 3500 
L 1894 763 
L 2988 3500 
L 3597 3500 
L 2059 -325 
z
" transform="scale(0.015625)"/>
       <path id="DejaVuSans-20" transform="scale(0.015625)"/>
      </defs>
      <use xlink:href="#DejaVuSans-50"/>
      <use xlink:href="#DejaVuSans-72" x="58.552734"/>
      <use xlink:href="#DejaVuSans-6f" x="97.416016"/>
      <use xlink:href="#DejaVuSans-62" x="158.597656"/>
      <use xlink:href="#DejaVuSans-61" x="222.074219"/>
      <use xlink:href="#DejaVuSans-62" x="283.353516"/>
      <use xlink:href="#DejaVuSans-69" x="346.830078"/>
      <use xlink:href="#DejaVuSans-6c" x="374.613281"/>
      <use xlink:href="#DejaVuSans-69" x="402.396484"/>
      <use xlink:href="#DejaVuSans-74" x="430.179688"/>
      <use xlink:href="#DejaVuSans-79" x="469.388672"/>
      <use xlink:href="#DejaVuSans-20" x="528.568359"/>
      <use xlink:href="#DejaVuSans-64" x="560.355469"/>
      <use xlink:href="#DejaVuSans-65" x="623.832031"/>
      <use xlink:href="#DejaVuSans-6e" x="685.355469"/>
      <use xlink:href="#DejaVuSans-73" x="748.734375"/>
      <use xlink:href="#DejaVuSans-69" x="800.833984"/>
      <use xlink:href="#DejaVuSans-74" x="828.617188"/>
      <use xlink:href="#DejaVuSans-79" x="867.826172"/>
     </g>
    </g>
   </g>
   <g id="line2d_31">
    <path d="M 73.832727 295.484044 
L 77.112066 295.474994 
L 80.391405 295.44865 
L 83.670744 295.378275 
L 86.950083 295.20556 
L 90.229421 294.815716 
L 93.50876 294.005585 
L 96.788099 292.454156 
L 100.067438 289.714213 
L 103.346777 285.249749 
L 106.626116 278.538495 
L 109.905455 269.23693 
L 113.184793 257.369658 
L 116.464132 243.471349 
L 119.743471 228.600713 
L 123.02281 214.179497 
L 126.302149 201.681298 
L 129.581488 192.27323 
L 132.860826 186.55124 
L 136.140165 184.475111 
L 139.419504 185.512542 
L 142.698843 188.898131 
L 145.978182 193.868144 
L 149.257521 199.773729 
L 152.53686 206.07094 
L 155.816198 212.2656 
L 159.095537 217.901113 
L 162.374876 222.619755 
L 165.654215 226.254297 
L 168.933554 228.874407 
L 172.212893 230.741538 
L 175.492231 232.189248 
L 178.77157 233.493903 
L 182.050909 234.801037 
L 185.330248 236.131083 
L 188.609587 237.438979 
L 191.888926 238.679568 
L 195.168264 239.843744 
L 198.447603 240.960926 
L 201.726942 242.085104 
L 205.006281 243.282245 
L 208.28562 244.624578 
L 211.564959 246.1879 
L 214.844298 248.047802 
L 218.123636 250.273976 
L 221.402975 252.92161 
L 224.682314 256.016629 
L 227.961653 259.533619 
L 231.240992 263.373794 
L 234.520331 267.359141 
L 237.799669 271.25797 
L 241.079008 274.842398 
L 244.358347 277.956814 
L 247.637686 280.563667 
L 250.917025 282.7409 
L 254.196364 284.63131 
L 257.475702 286.370895 
L 260.755041 288.032676 
L 264.03438 289.609917 
L 267.313719 291.038749 
L 270.593058 292.241362 
L 273.872397 293.166256 
L 277.151736 293.809833 
L 280.431074 294.215543 
L 283.710413 294.456126 
L 286.989752 294.608855 
L 290.269091 294.733933 
L 293.54843 294.863304 
L 296.827769 295.001998 
L 300.107107 295.138532 
L 303.386446 295.257658 
L 306.665785 295.349416 
L 309.945124 295.412052 
L 313.224463 295.450128 
L 316.503802 295.470825 
L 319.78314 295.480919 
L 323.062479 295.485346 
L 326.341818 295.487096 
L 329.621157 295.48772 
L 332.900496 295.487921 
L 336.179835 295.48798 
L 339.459174 295.487995 
L 342.738512 295.487999 
L 346.017851 295.488 
L 349.29719 295.488 
L 352.576529 295.488 
L 355.855868 295.488 
L 359.135207 295.488 
L 362.414545 295.488 
L 365.693884 295.488 
L 368.973223 295.488 
L 372.252562 295.488 
L 375.531901 295.488 
L 378.81124 295.488 
L 382.090579 295.488 
L 385.369917 295.488 
L 388.649256 295.488 
L 391.928595 295.488 
L 395.207934 295.488 
L 398.487273 295.488 
" clip-path="url(#pe0563681f2)" style="fill: none; stroke: #1f77b4; stroke-width: 1.5; stroke-linecap: square"/>
   </g>
   <g id="line2d_32">
    <path d="M 73.832727 295.488 
L 77.112066 295.487994 
L 80.391405 295.487911 
L 83.670744 295.487036 
L 86.950083 295.479633 
L 90.229421 295.429808 
L 93.50876 295.161973 
L 96.788099 294.009566 
L 100.067438 290.039281 
L 103.346777 279.114563 
L 106.626116 255.273845 
L 109.905455 214.592956 
L 113.184793 161.796634 
L 116.464132 112.808479 
L 119.743471 86.280513 
L 123.02281 89.234525 
L 126.302149 112.118078 
L 129.581488 138.807685 
L 132.860826 159.393279 
L 136.140165 173.281542 
L 139.419504 183.94303 
L 142.698843 193.545921 
L 145.978182 201.757342 
L 149.257521 207.577095 
L 152.53686 211.101973 
L 155.816198 213.407654 
L 159.095537 215.360237 
L 162.374876 217.007565 
L 165.654215 217.901624 
L 168.933554 217.958168 
L 172.212893 218.408677 
L 175.492231 221.680266 
L 178.77157 229.555495 
L 182.050909 241.398138 
L 185.330248 254.575973 
L 188.609587 266.436425 
L 191.888926 275.651481 
L 195.168264 282.176027 
L 198.447603 286.615431 
L 201.726942 289.699643 
L 205.006281 291.951242 
L 208.28562 293.575666 
L 211.564959 294.616235 
L 214.844298 295.163712 
L 218.123636 295.391472 
L 221.402975 295.465268 
L 224.682314 295.483793 
L 227.961653 295.487391 
L 231.240992 295.487931 
L 234.520331 295.487994 
L 237.799669 295.488 
L 241.079008 295.488 
L 244.358347 295.488 
L 247.637686 295.488 
L 250.917025 295.488 
L 254.196364 295.488 
L 257.475702 295.488 
L 260.755041 295.488 
L 264.03438 295.488 
L 267.313719 295.488 
L 270.593058 295.488 
L 273.872397 295.488 
L 277.151736 295.488 
L 280.431074 295.488 
L 283.710413 295.488 
L 286.989752 295.488 
L 290.269091 295.488 
L 293.54843 295.488 
L 296.827769 295.488 
L 300.107107 295.488 
L 303.386446 295.488 
L 306.665785 295.488 
L 309.945124 295.488 
L 313.224463 295.488 
L 316.503802 295.488 
L 319.78314 295.488 
L 323.062479 295.488 
L 326.341818 295.488 
L 329.621157 295.488 
L 332.900496 295.488 
L 336.179835 295.488 
L 339.459174 295.488 
L 342.738512 295.488 
L 346.017851 295.488 
L 349.29719 295.488 
L 352.576529 295.488 
L 355.855868 295.488 
L 359.135207 295.488 
L 362.414545 295.488 
L 365.693884 295.488 
L 368.973223 295.488 
L 372.252562 295.488 
L 375.531901 295.488 
L 378.81124 295.488 
L 382.090579 295.488 
L 385.369917 295.488 
L 388.649256 295.488 
L 391.928595 295.488 
L 395.207934 295.488 
L 398.487273 295.488 
" clip-path="url(#pe0563681f2)" style="fill: none; stroke: #ff7f0e; stroke-width: 1.5; stroke-linecap: square"/>
   </g>
   <g id="line2d_33">
    <path d="M 73.832727 295.487936 
L 77.112066 295.487741 
L 80.391405 295.487029 
L 83.670744 295.484614 
L 86.950083 295.477003 
L 90.229421 295.454749 
L 93.50876 295.394393 
L 96.788099 295.242667 
L 100.067438 294.889381 
L 103.346777 294.128058 
L 106.626116 292.611066 
L 109.905455 289.819297 
L 113.184793 285.080568 
L 116.464132 277.674752 
L 119.743471 267.042802 
L 123.02281 253.066269 
L 126.302149 236.320212 
L 129.581488 218.165201 
L 132.860826 200.574784 
L 136.140165 185.700807 
L 139.419504 175.313414 
L 142.698843 170.334354 
L 145.978182 170.651818 
L 149.257521 175.273471 
L 152.53686 182.71941 
L 155.816198 191.468697 
L 159.095537 200.29082 
L 162.374876 208.38629 
L 165.654215 215.360988 
L 168.933554 221.113624 
L 172.212893 225.713782 
L 175.492231 229.313163 
L 178.77157 232.096474 
L 182.050909 234.259454 
L 185.330248 236.000081 
L 188.609587 237.514777 
L 191.888926 238.995272 
L 195.168264 240.621366 
L 198.447603 242.544428 
L 201.726942 244.860974 
L 205.006281 247.584523 
L 208.28562 250.63118 
L 211.564959 253.832821 
L 214.844298 256.979774 
L 218.123636 259.87916 
L 221.402975 262.405781 
L 224.682314 264.526026 
L 227.961653 266.289173 
L 231.240992 267.79548 
L 234.520331 269.157832 
L 237.799669 270.47117 
L 241.079008 271.795927 
L 244.358347 273.154667 
L 247.637686 274.538039 
L 250.917025 275.915867 
L 254.196364 277.249486 
L 257.475702 278.501696 
L 260.755041 279.642422 
L 264.03438 280.651232 
L 267.313719 281.520263 
L 270.593058 282.260011 
L 273.872397 282.905948 
L 277.151736 283.519746 
L 280.431074 284.179196 
L 283.710413 284.956757 
L 286.989752 285.894422 
L 290.269091 286.986796 
L 293.54843 288.181442 
L 296.827769 289.397006 
L 300.107107 290.550492 
L 303.386446 291.580947 
L 306.665785 292.460017 
L 309.945124 293.187892 
L 313.224463 293.780667 
L 316.503802 294.257699 
L 319.78314 294.634746 
L 323.062479 294.923532 
L 326.341818 295.134617 
L 329.621157 295.279973 
L 332.900496 295.373402 
L 336.179835 295.429127 
L 339.459174 295.459862 
L 342.738512 295.47551 
L 346.017851 295.482857 
L 349.29719 295.486037 
L 352.576529 295.487306 
L 355.855868 295.487773 
L 359.135207 295.487931 
L 362.414545 295.487981 
L 365.693884 295.487995 
L 368.973223 295.487999 
L 372.252562 295.488 
L 375.531901 295.488 
L 378.81124 295.488 
L 382.090579 295.488 
L 385.369917 295.488 
L 388.649256 295.488 
L 391.928595 295.488 
L 395.207934 295.488 
L 398.487273 295.488 
" clip-path="url(#pe0563681f2)" style="fill: none; stroke: #2ca02c; stroke-width: 1.5; stroke-linecap: square"/>
   </g>
   <g id="line2d_34">
    <path d="M 73.832727 295.476312 
L 77.112066 295.466245 
L 80.391405 295.448923 
L 83.670744 295.420251 
L 86.950083 295.374605 
L 90.229421 295.304734 
L 93.50876 295.201918 
L 96.788099 295.056516 
L 100.067438 294.858946 
L 103.346777 294.601067 
L 106.626116 294.277779 
L 109.905455 293.888526 
L 113.184793 293.438289 
L 116.464132 292.937695 
L 119.743471 292.402002 
L 123.02281 291.849005 
L 126.302149 291.29625 
L 129.581488 290.758182 
L 132.860826 290.243977 
L 136.140165 289.75668 
L 139.419504 289.293899 
L 142.698843 288.849886 
L 145.978182 288.418381 
L 149.257521 287.995371 
L 152.53686 287.580953 
L 155.816198 287.179764 
L 159.095537 286.799898 
L 162.374876 286.450658 
L 165.654215 286.139832 
L 168.933554 285.871263 
L 172.212893 285.64334 
L 175.492231 285.448754 
L 178.77157 285.275491 
L 182.050909 285.108739 
L 185.330248 284.933189 
L 188.609587 284.735275 
L 191.888926 284.504957 
L 195.168264 284.236911 
L 198.447603 283.931128 
L 201.726942 283.592969 
L 205.006281 283.232739 
L 208.28562 282.864754 
L 211.564959 282.505868 
L 214.844298 282.173539 
L 218.123636 281.88365 
L 221.402975 281.648489 
L 224.682314 281.475308 
L 227.961653 281.365785 
L 231.240992 281.316373 
L 234.520331 281.319267 
L 237.799669 281.363482 
L 241.079008 281.435584 
L 244.358347 281.519838 
L 247.637686 281.597895 
L 250.917025 281.648367 
L 254.196364 281.646792 
L 257.475702 281.566324 
L 260.755041 281.379217 
L 264.03438 281.058842 
L 267.313719 280.581776 
L 270.593058 279.929397 
L 273.872397 279.088543 
L 277.151736 278.051012 
L 280.431074 276.811936 
L 283.710413 275.36728 
L 286.989752 273.710864 
L 290.269091 271.831294 
L 293.54843 269.709089 
L 296.827769 267.314169 
L 300.107107 264.603769 
L 303.386446 261.520959 
L 306.665785 257.994217 
L 309.945124 253.939018 
L 313.224463 249.262834 
L 316.503802 243.875229 
L 319.78314 237.704406 
L 323.062479 230.720522 
L 326.341818 222.964239 
L 329.621157 214.576527 
L 332.900496 205.823283 
L 336.179835 197.106704 
L 339.459174 188.955485 
L 342.738512 181.98846 
L 346.017851 176.851481 
L 349.29719 174.134061 
L 352.576529 174.279106 
L 355.855868 177.50351 
L 359.135207 183.747666 
L 362.414545 192.667205 
L 365.693884 203.671327 
L 368.973223 216.001357 
L 372.252562 228.833775 
L 375.531901 241.386808 
L 378.81124 253.010107 
L 382.090579 263.242701 
L 385.369917 271.833161 
L 388.649256 278.724919 
L 391.928595 284.016485 
L 395.207934 287.909331 
L 398.487273 290.655649 
" clip-path="url(#pe0563681f2)" style="fill: none; stroke: #d62728; stroke-width: 1.5; stroke-linecap: square"/>
   </g>
   <g id="line2d_35">
    <path d="M 73.832727 295.488 
L 77.112066 295.488 
L 80.391405 295.488 
L 83.670744 295.488 
L 86.950083 295.487998 
L 90.229421 295.487971 
L 93.50876 295.487602 
L 96.788099 295.483799 
L 100.067438 295.453409 
L 103.346777 295.263726 
L 106.626116 294.334291 
L 109.905455 290.751361 
L 113.184793 279.909351 
L 116.464132 254.354224 
L 119.743471 208.122897 
L 123.02281 145.638781 
L 126.302149 86.182596 
L 129.581488 53.568 
L 132.860826 57.422077 
L 136.140165 86.386296 
L 139.419504 120.204284 
L 142.698843 145.636565 
L 145.978182 161.144062 
L 149.257521 171.233 
L 152.53686 179.99856 
L 155.816198 189.219207 
L 159.095537 199.252719 
L 162.374876 209.691301 
L 165.654215 219.705201 
L 168.933554 228.63551 
L 172.212893 236.180811 
L 175.492231 242.331286 
L 178.77157 247.567288 
L 182.050909 252.587631 
L 185.330248 257.591106 
L 188.609587 262.288818 
L 191.888926 266.45625 
L 195.168264 270.134592 
L 198.447603 273.641956 
L 201.726942 277.470611 
L 205.006281 281.69243 
L 208.28562 285.537453 
L 211.564959 288.123655 
L 214.844298 289.531896 
L 218.123636 290.652092 
L 221.402975 292.062538 
L 224.682314 293.544521 
L 227.961653 294.63624 
L 231.240992 295.203784 
L 234.520331 295.416257 
L 237.799669 295.474347 
L 241.079008 295.486046 
L 244.358347 295.48779 
L 247.637686 295.487983 
L 250.917025 295.487999 
L 254.196364 295.488 
L 257.475702 295.488 
L 260.755041 295.488 
L 264.03438 295.488 
L 267.313719 295.488 
L 270.593058 295.488 
L 273.872397 295.488 
L 277.151736 295.488 
L 280.431074 295.488 
L 283.710413 295.488 
L 286.989752 295.488 
L 290.269091 295.488 
L 293.54843 295.488 
L 296.827769 295.488 
L 300.107107 295.488 
L 303.386446 295.488 
L 306.665785 295.488 
L 309.945124 295.488 
L 313.224463 295.488 
L 316.503802 295.488 
L 319.78314 295.488 
L 323.062479 295.488 
L 326.341818 295.488 
L 329.621157 295.488 
L 332.900496 295.488 
L 336.179835 295.488 
L 339.459174 295.488 
L 342.738512 295.488 
L 346.017851 295.488 
L 349.29719 295.488 
L 352.576529 295.488 
L 355.855868 295.488 
L 359.135207 295.488 
L 362.414545 295.488 
L 365.693884 295.488 
L 368.973223 295.488 
L 372.252562 295.488 
L 375.531901 295.488 
L 378.81124 295.488 
L 382.090579 295.488 
L 385.369917 295.488 
L 388.649256 295.488 
L 391.928595 295.488 
L 395.207934 295.488 
L 398.487273 295.488 
" clip-path="url(#pe0563681f2)" style="fill: none; stroke: #9467bd; stroke-width: 1.5; stroke-linecap: square"/>
   </g>
   <g id="patch_3">
    <path d="M 57.6 307.584 
L 57.6 41.472 
" style="fill: none; stroke: #000000; stroke-width: 0.8; stroke-linejoin: miter; stroke-linecap: square"/>
   </g>
   <g id="patch_4">
    <path d="M 414.72 307.584 
L 414.72 41.472 
" style="fill: none; stroke: #000000; stroke-width: 0.8; stroke-linejoin: miter; stroke-linecap: square"/>
   </g>
   <g id="patch_5">
    <path d="M 57.6 307.584 
L 414.72 307.584 
" style="fill: none; stroke: #000000; stroke-width: 0.8; stroke-linejoin: miter; stroke-linecap: square"/>
   </g>
   <g id="patch_6">
    <path d="M 57.6 41.472 
L 414.72 41.472 
" style="fill: none; stroke: #000000; stroke-width: 0.8; stroke-linejoin: miter; stroke-linecap: square"/>
   </g>
   <g id="text_18">
    <!-- Density plot of episode_20029_state/in_storage -->
    <g transform="translate(93.310313 35.472)scale(0.12 -0.12)">
     <defs>
      <path id="DejaVuSans-44" d="M 1259 4147 
L 1259 519 
L 2022 519 
Q 2988 519 3436 956 
Q 3884 1394 3884 2338 
Q 3884 3275 3436 3711 
Q 2988 4147 2022 4147 
L 1259 4147 
z
M 628 4666 
L 1925 4666 
Q 3281 4666 3915 4102 
Q 4550 3538 4550 2338 
Q 4550 1131 3912 565 
Q 3275 0 1925 0 
L 628 0 
L 628 4666 
z
" transform="scale(0.015625)"/>
      <path id="DejaVuSans-66" d="M 2375 4863 
L 2375 4384 
L 1825 4384 
Q 1516 4384 1395 4259 
Q 1275 4134 1275 3809 
L 1275 3500 
L 2222 3500 
L 2222 3053 
L 1275 3053 
L 1275 0 
L 697 0 
L 697 3053 
L 147 3053 
L 147 3500 
L 697 3500 
L 697 3744 
Q 697 4328 969 4595 
Q 1241 4863 1831 4863 
L 2375 4863 
z
" transform="scale(0.015625)"/>
     </defs>
     <use xlink:href="#DejaVuSans-44"/>
     <use xlink:href="#DejaVuSans-65" x="77.001953"/>
     <use xlink:href="#DejaVuSans-6e" x="138.525391"/>
     <use xlink:href="#DejaVuSans-73" x="201.904297"/>
     <use xlink:href="#DejaVuSans-69" x="254.003906"/>
     <use xlink:href="#DejaVuSans-74" x="281.787109"/>
     <use xlink:href="#DejaVuSans-79" x="320.996094"/>
     <use xlink:href="#DejaVuSans-20" x="380.175781"/>
     <use xlink:href="#DejaVuSans-70" x="411.962891"/>
     <use xlink:href="#DejaVuSans-6c" x="475.439453"/>
     <use xlink:href="#DejaVuSans-6f" x="503.222656"/>
     <use xlink:href="#DejaVuSans-74" x="564.404297"/>
     <use xlink:href="#DejaVuSans-20" x="603.613281"/>
     <use xlink:href="#DejaVuSans-6f" x="635.400391"/>
     <use xlink:href="#DejaVuSans-66" x="696.582031"/>
     <use xlink:href="#DejaVuSans-20" x="731.787109"/>
     <use xlink:href="#DejaVuSans-65" x="763.574219"/>
     <use xlink:href="#DejaVuSans-70" x="825.097656"/>
     <use xlink:href="#DejaVuSans-69" x="888.574219"/>
     <use xlink:href="#DejaVuSans-73" x="916.357422"/>
     <use xlink:href="#DejaVuSans-6f" x="968.457031"/>
     <use xlink:href="#DejaVuSans-64" x="1029.638672"/>
     <use xlink:href="#DejaVuSans-65" x="1093.115234"/>
     <use xlink:href="#DejaVuSans-5f" x="1154.638672"/>
     <use xlink:href="#DejaVuSans-32" x="1204.638672"/>
     <use xlink:href="#DejaVuSans-30" x="1268.261719"/>
     <use xlink:href="#DejaVuSans-30" x="1331.884766"/>
     <use xlink:href="#DejaVuSans-32" x="1395.507812"/>
     <use xlink:href="#DejaVuSans-39" x="1459.130859"/>
     <use xlink:href="#DejaVuSans-5f" x="1522.753906"/>
     <use xlink:href="#DejaVuSans-73" x="1572.753906"/>
     <use xlink:href="#DejaVuSans-74" x="1624.853516"/>
     <use xlink:href="#DejaVuSans-61" x="1664.0625"/>
     <use xlink:href="#DejaVuSans-74" x="1725.341797"/>
     <use xlink:href="#DejaVuSans-65" x="1764.550781"/>
     <use xlink:href="#DejaVuSans-2f" x="1826.074219"/>
     <use xlink:href="#DejaVuSans-69" x="1859.765625"/>
     <use xlink:href="#DejaVuSans-6e" x="1887.548828"/>
     <use xlink:href="#DejaVuSans-5f" x="1950.927734"/>
     <use xlink:href="#DejaVuSans-73" x="2000.927734"/>
     <use xlink:href="#DejaVuSans-74" x="2053.027344"/>
     <use xlink:href="#DejaVuSans-6f" x="2092.236328"/>
     <use xlink:href="#DejaVuSans-72" x="2153.417969"/>
     <use xlink:href="#DejaVuSans-61" x="2194.53125"/>
     <use xlink:href="#DejaVuSans-67" x="2255.810547"/>
     <use xlink:href="#DejaVuSans-65" x="2319.287109"/>
    </g>
   </g>
   <g id="legend_1">
    <g id="patch_7">
     <path d="M 161.41375 123.14075 
L 407.72 123.14075 
Q 409.72 123.14075 409.72 121.14075 
L 409.72 48.472 
Q 409.72 46.472 407.72 46.472 
L 161.41375 46.472 
Q 159.41375 46.472 159.41375 48.472 
L 159.41375 121.14075 
Q 159.41375 123.14075 161.41375 123.14075 
z
" style="fill: #ffffff; opacity: 0.8; stroke: #cccccc; stroke-linejoin: miter"/>
    </g>
    <g id="line2d_36">
     <path d="M 163.41375 54.570437 
L 173.41375 54.570437 
L 183.41375 54.570437 
" style="fill: none; stroke: #1f77b4; stroke-width: 1.5; stroke-linecap: square"/>
    </g>
    <g id="text_19">
     <!-- StableBaselinesPPO_episode_20029 -->
     <g transform="translate(191.41375 58.070437)scale(0.1 -0.1)">
      <defs>
       <path id="DejaVuSans-53" d="M 3425 4513 
L 3425 3897 
Q 3066 4069 2747 4153 
Q 2428 4238 2131 4238 
Q 1616 4238 1336 4038 
Q 1056 3838 1056 3469 
Q 1056 3159 1242 3001 
Q 1428 2844 1947 2747 
L 2328 2669 
Q 3034 2534 3370 2195 
Q 3706 1856 3706 1288 
Q 3706 609 3251 259 
Q 2797 -91 1919 -91 
Q 1588 -91 1214 -16 
Q 841 59 441 206 
L 441 856 
Q 825 641 1194 531 
Q 1563 422 1919 422 
Q 2459 422 2753 634 
Q 3047 847 3047 1241 
Q 3047 1584 2836 1778 
Q 2625 1972 2144 2069 
L 1759 2144 
Q 1053 2284 737 2584 
Q 422 2884 422 3419 
Q 422 4038 858 4394 
Q 1294 4750 2059 4750 
Q 2388 4750 2728 4690 
Q 3069 4631 3425 4513 
z
" transform="scale(0.015625)"/>
       <path id="DejaVuSans-42" d="M 1259 2228 
L 1259 519 
L 2272 519 
Q 2781 519 3026 730 
Q 3272 941 3272 1375 
Q 3272 1813 3026 2020 
Q 2781 2228 2272 2228 
L 1259 2228 
z
M 1259 4147 
L 1259 2741 
L 2194 2741 
Q 2656 2741 2882 2914 
Q 3109 3088 3109 3444 
Q 3109 3797 2882 3972 
Q 2656 4147 2194 4147 
L 1259 4147 
z
M 628 4666 
L 2241 4666 
Q 2963 4666 3353 4366 
Q 3744 4066 3744 3513 
Q 3744 3084 3544 2831 
Q 3344 2578 2956 2516 
Q 3422 2416 3680 2098 
Q 3938 1781 3938 1306 
Q 3938 681 3513 340 
Q 3088 0 2303 0 
L 628 0 
L 628 4666 
z
" transform="scale(0.015625)"/>
       <path id="DejaVuSans-4f" d="M 2522 4238 
Q 1834 4238 1429 3725 
Q 1025 3213 1025 2328 
Q 1025 1447 1429 934 
Q 1834 422 2522 422 
Q 3209 422 3611 934 
Q 4013 1447 4013 2328 
Q 4013 3213 3611 3725 
Q 3209 4238 2522 4238 
z
M 2522 4750 
Q 3503 4750 4090 4092 
Q 4678 3434 4678 2328 
Q 4678 1225 4090 567 
Q 3503 -91 2522 -91 
Q 1538 -91 948 565 
Q 359 1222 359 2328 
Q 359 3434 948 4092 
Q 1538 4750 2522 4750 
z
" transform="scale(0.015625)"/>
      </defs>
      <use xlink:href="#DejaVuSans-53"/>
      <use xlink:href="#DejaVuSans-74" x="63.476562"/>
      <use xlink:href="#DejaVuSans-61" x="102.685547"/>
      <use xlink:href="#DejaVuSans-62" x="163.964844"/>
      <use xlink:href="#DejaVuSans-6c" x="227.441406"/>
      <use xlink:href="#DejaVuSans-65" x="255.224609"/>
      <use xlink:href="#DejaVuSans-42" x="316.748047"/>
      <use xlink:href="#DejaVuSans-61" x="385.351562"/>
      <use xlink:href="#DejaVuSans-73" x="446.630859"/>
      <use xlink:href="#DejaVuSans-65" x="498.730469"/>
      <use xlink:href="#DejaVuSans-6c" x="560.253906"/>
      <use xlink:href="#DejaVuSans-69" x="588.037109"/>
      <use xlink:href="#DejaVuSans-6e" x="615.820312"/>
      <use xlink:href="#DejaVuSans-65" x="679.199219"/>
      <use xlink:href="#DejaVuSans-73" x="740.722656"/>
      <use xlink:href="#DejaVuSans-50" x="792.822266"/>
      <use xlink:href="#DejaVuSans-50" x="853.125"/>
      <use xlink:href="#DejaVuSans-4f" x="913.427734"/>
      <use xlink:href="#DejaVuSans-5f" x="992.138672"/>
      <use xlink:href="#DejaVuSans-65" x="1042.138672"/>
      <use xlink:href="#DejaVuSans-70" x="1103.662109"/>
      <use xlink:href="#DejaVuSans-69" x="1167.138672"/>
      <use xlink:href="#DejaVuSans-73" x="1194.921875"/>
      <use xlink:href="#DejaVuSans-6f" x="1247.021484"/>
      <use xlink:href="#DejaVuSans-64" x="1308.203125"/>
      <use xlink:href="#DejaVuSans-65" x="1371.679688"/>
      <use xlink:href="#DejaVuSans-5f" x="1433.203125"/>
      <use xlink:href="#DejaVuSans-32" x="1483.203125"/>
      <use xlink:href="#DejaVuSans-30" x="1546.826172"/>
      <use xlink:href="#DejaVuSans-30" x="1610.449219"/>
      <use xlink:href="#DejaVuSans-32" x="1674.072266"/>
      <use xlink:href="#DejaVuSans-39" x="1737.695312"/>
     </g>
    </g>
    <g id="line2d_37">
     <path d="M 163.41375 69.526687 
L 173.41375 69.526687 
L 183.41375 69.526687 
" style="fill: none; stroke: #ff7f0e; stroke-width: 1.5; stroke-linecap: square"/>
    </g>
    <g id="text_20">
     <!-- RuleBasedCERebuyAgentCompetitive -->
     <g transform="translate(191.41375 73.026687)scale(0.1 -0.1)">
      <defs>
       <path id="DejaVuSans-52" d="M 2841 2188 
Q 3044 2119 3236 1894 
Q 3428 1669 3622 1275 
L 4263 0 
L 3584 0 
L 2988 1197 
Q 2756 1666 2539 1819 
Q 2322 1972 1947 1972 
L 1259 1972 
L 1259 0 
L 628 0 
L 628 4666 
L 2053 4666 
Q 2853 4666 3247 4331 
Q 3641 3997 3641 3322 
Q 3641 2881 3436 2590 
Q 3231 2300 2841 2188 
z
M 1259 4147 
L 1259 2491 
L 2053 2491 
Q 2509 2491 2742 2702 
Q 2975 2913 2975 3322 
Q 2975 3731 2742 3939 
Q 2509 4147 2053 4147 
L 1259 4147 
z
" transform="scale(0.015625)"/>
       <path id="DejaVuSans-75" d="M 544 1381 
L 544 3500 
L 1119 3500 
L 1119 1403 
Q 1119 906 1312 657 
Q 1506 409 1894 409 
Q 2359 409 2629 706 
Q 2900 1003 2900 1516 
L 2900 3500 
L 3475 3500 
L 3475 0 
L 2900 0 
L 2900 538 
Q 2691 219 2414 64 
Q 2138 -91 1772 -91 
Q 1169 -91 856 284 
Q 544 659 544 1381 
z
M 1991 3584 
L 1991 3584 
z
" transform="scale(0.015625)"/>
       <path id="DejaVuSans-43" d="M 4122 4306 
L 4122 3641 
Q 3803 3938 3442 4084 
Q 3081 4231 2675 4231 
Q 1875 4231 1450 3742 
Q 1025 3253 1025 2328 
Q 1025 1406 1450 917 
Q 1875 428 2675 428 
Q 3081 428 3442 575 
Q 3803 722 4122 1019 
L 4122 359 
Q 3791 134 3420 21 
Q 3050 -91 2638 -91 
Q 1578 -91 968 557 
Q 359 1206 359 2328 
Q 359 3453 968 4101 
Q 1578 4750 2638 4750 
Q 3056 4750 3426 4639 
Q 3797 4528 4122 4306 
z
" transform="scale(0.015625)"/>
       <path id="DejaVuSans-45" d="M 628 4666 
L 3578 4666 
L 3578 4134 
L 1259 4134 
L 1259 2753 
L 3481 2753 
L 3481 2222 
L 1259 2222 
L 1259 531 
L 3634 531 
L 3634 0 
L 628 0 
L 628 4666 
z
" transform="scale(0.015625)"/>
       <path id="DejaVuSans-41" d="M 2188 4044 
L 1331 1722 
L 3047 1722 
L 2188 4044 
z
M 1831 4666 
L 2547 4666 
L 4325 0 
L 3669 0 
L 3244 1197 
L 1141 1197 
L 716 0 
L 50 0 
L 1831 4666 
z
" transform="scale(0.015625)"/>
       <path id="DejaVuSans-6d" d="M 3328 2828 
Q 3544 3216 3844 3400 
Q 4144 3584 4550 3584 
Q 5097 3584 5394 3201 
Q 5691 2819 5691 2113 
L 5691 0 
L 5113 0 
L 5113 2094 
Q 5113 2597 4934 2840 
Q 4756 3084 4391 3084 
Q 3944 3084 3684 2787 
Q 3425 2491 3425 1978 
L 3425 0 
L 2847 0 
L 2847 2094 
Q 2847 2600 2669 2842 
Q 2491 3084 2119 3084 
Q 1678 3084 1418 2786 
Q 1159 2488 1159 1978 
L 1159 0 
L 581 0 
L 581 3500 
L 1159 3500 
L 1159 2956 
Q 1356 3278 1631 3431 
Q 1906 3584 2284 3584 
Q 2666 3584 2933 3390 
Q 3200 3197 3328 2828 
z
" transform="scale(0.015625)"/>
       <path id="DejaVuSans-76" d="M 191 3500 
L 800 3500 
L 1894 563 
L 2988 3500 
L 3597 3500 
L 2284 0 
L 1503 0 
L 191 3500 
z
" transform="scale(0.015625)"/>
      </defs>
      <use xlink:href="#DejaVuSans-52"/>
      <use xlink:href="#DejaVuSans-75" x="64.982422"/>
      <use xlink:href="#DejaVuSans-6c" x="128.361328"/>
      <use xlink:href="#DejaVuSans-65" x="156.144531"/>
      <use xlink:href="#DejaVuSans-42" x="217.667969"/>
      <use xlink:href="#DejaVuSans-61" x="286.271484"/>
      <use xlink:href="#DejaVuSans-73" x="347.550781"/>
      <use xlink:href="#DejaVuSans-65" x="399.650391"/>
      <use xlink:href="#DejaVuSans-64" x="461.173828"/>
      <use xlink:href="#DejaVuSans-43" x="524.650391"/>
      <use xlink:href="#DejaVuSans-45" x="594.474609"/>
      <use xlink:href="#DejaVuSans-52" x="657.658203"/>
      <use xlink:href="#DejaVuSans-65" x="722.640625"/>
      <use xlink:href="#DejaVuSans-62" x="784.164062"/>
      <use xlink:href="#DejaVuSans-75" x="847.640625"/>
      <use xlink:href="#DejaVuSans-79" x="911.019531"/>
      <use xlink:href="#DejaVuSans-41" x="970.199219"/>
      <use xlink:href="#DejaVuSans-67" x="1038.607422"/>
      <use xlink:href="#DejaVuSans-65" x="1102.083984"/>
      <use xlink:href="#DejaVuSans-6e" x="1163.607422"/>
      <use xlink:href="#DejaVuSans-74" x="1226.986328"/>
      <use xlink:href="#DejaVuSans-43" x="1266.195312"/>
      <use xlink:href="#DejaVuSans-6f" x="1336.019531"/>
      <use xlink:href="#DejaVuSans-6d" x="1397.201172"/>
      <use xlink:href="#DejaVuSans-70" x="1494.613281"/>
      <use xlink:href="#DejaVuSans-65" x="1558.089844"/>
      <use xlink:href="#DejaVuSans-74" x="1619.613281"/>
      <use xlink:href="#DejaVuSans-69" x="1658.822266"/>
      <use xlink:href="#DejaVuSans-74" x="1686.605469"/>
      <use xlink:href="#DejaVuSans-69" x="1725.814453"/>
      <use xlink:href="#DejaVuSans-76" x="1753.597656"/>
      <use xlink:href="#DejaVuSans-65" x="1812.777344"/>
     </g>
    </g>
    <g id="line2d_38">
     <path d="M 163.41375 84.204812 
L 173.41375 84.204812 
L 183.41375 84.204812 
" style="fill: none; stroke: #2ca02c; stroke-width: 1.5; stroke-linecap: square"/>
    </g>
    <g id="text_21">
     <!-- RuleBasedCERebuyAgent -->
     <g transform="translate(191.41375 87.704812)scale(0.1 -0.1)">
      <use xlink:href="#DejaVuSans-52"/>
      <use xlink:href="#DejaVuSans-75" x="64.982422"/>
      <use xlink:href="#DejaVuSans-6c" x="128.361328"/>
      <use xlink:href="#DejaVuSans-65" x="156.144531"/>
      <use xlink:href="#DejaVuSans-42" x="217.667969"/>
      <use xlink:href="#DejaVuSans-61" x="286.271484"/>
      <use xlink:href="#DejaVuSans-73" x="347.550781"/>
      <use xlink:href="#DejaVuSans-65" x="399.650391"/>
      <use xlink:href="#DejaVuSans-64" x="461.173828"/>
      <use xlink:href="#DejaVuSans-43" x="524.650391"/>
      <use xlink:href="#DejaVuSans-45" x="594.474609"/>
      <use xlink:href="#DejaVuSans-52" x="657.658203"/>
      <use xlink:href="#DejaVuSans-65" x="722.640625"/>
      <use xlink:href="#DejaVuSans-62" x="784.164062"/>
      <use xlink:href="#DejaVuSans-75" x="847.640625"/>
      <use xlink:href="#DejaVuSans-79" x="911.019531"/>
      <use xlink:href="#DejaVuSans-41" x="970.199219"/>
      <use xlink:href="#DejaVuSans-67" x="1038.607422"/>
      <use xlink:href="#DejaVuSans-65" x="1102.083984"/>
      <use xlink:href="#DejaVuSans-6e" x="1163.607422"/>
      <use xlink:href="#DejaVuSans-74" x="1226.986328"/>
     </g>
    </g>
    <g id="line2d_39">
     <path d="M 163.41375 98.882937 
L 173.41375 98.882937 
L 183.41375 98.882937 
" style="fill: none; stroke: #d62728; stroke-width: 1.5; stroke-linecap: square"/>
    </g>
    <g id="text_22">
     <!-- FixedPriceCERebuyAgent -->
     <g transform="translate(191.41375 102.382937)scale(0.1 -0.1)">
      <defs>
       <path id="DejaVuSans-46" d="M 628 4666 
L 3309 4666 
L 3309 4134 
L 1259 4134 
L 1259 2759 
L 3109 2759 
L 3109 2228 
L 1259 2228 
L 1259 0 
L 628 0 
L 628 4666 
z
" transform="scale(0.015625)"/>
       <path id="DejaVuSans-78" d="M 3513 3500 
L 2247 1797 
L 3578 0 
L 2900 0 
L 1881 1375 
L 863 0 
L 184 0 
L 1544 1831 
L 300 3500 
L 978 3500 
L 1906 2253 
L 2834 3500 
L 3513 3500 
z
" transform="scale(0.015625)"/>
       <path id="DejaVuSans-63" d="M 3122 3366 
L 3122 2828 
Q 2878 2963 2633 3030 
Q 2388 3097 2138 3097 
Q 1578 3097 1268 2742 
Q 959 2388 959 1747 
Q 959 1106 1268 751 
Q 1578 397 2138 397 
Q 2388 397 2633 464 
Q 2878 531 3122 666 
L 3122 134 
Q 2881 22 2623 -34 
Q 2366 -91 2075 -91 
Q 1284 -91 818 406 
Q 353 903 353 1747 
Q 353 2603 823 3093 
Q 1294 3584 2113 3584 
Q 2378 3584 2631 3529 
Q 2884 3475 3122 3366 
z
" transform="scale(0.015625)"/>
      </defs>
      <use xlink:href="#DejaVuSans-46"/>
      <use xlink:href="#DejaVuSans-69" x="50.269531"/>
      <use xlink:href="#DejaVuSans-78" x="78.052734"/>
      <use xlink:href="#DejaVuSans-65" x="134.107422"/>
      <use xlink:href="#DejaVuSans-64" x="195.630859"/>
      <use xlink:href="#DejaVuSans-50" x="259.107422"/>
      <use xlink:href="#DejaVuSans-72" x="317.660156"/>
      <use xlink:href="#DejaVuSans-69" x="358.773438"/>
      <use xlink:href="#DejaVuSans-63" x="386.556641"/>
      <use xlink:href="#DejaVuSans-65" x="441.537109"/>
      <use xlink:href="#DejaVuSans-43" x="503.060547"/>
      <use xlink:href="#DejaVuSans-45" x="572.884766"/>
      <use xlink:href="#DejaVuSans-52" x="636.068359"/>
      <use xlink:href="#DejaVuSans-65" x="701.050781"/>
      <use xlink:href="#DejaVuSans-62" x="762.574219"/>
      <use xlink:href="#DejaVuSans-75" x="826.050781"/>
      <use xlink:href="#DejaVuSans-79" x="889.429688"/>
      <use xlink:href="#DejaVuSans-41" x="948.609375"/>
      <use xlink:href="#DejaVuSans-67" x="1017.017578"/>
      <use xlink:href="#DejaVuSans-65" x="1080.494141"/>
      <use xlink:href="#DejaVuSans-6e" x="1142.017578"/>
      <use xlink:href="#DejaVuSans-74" x="1205.396484"/>
     </g>
    </g>
    <g id="line2d_40">
     <path d="M 163.41375 113.561062 
L 173.41375 113.561062 
L 183.41375 113.561062 
" style="fill: none; stroke: #9467bd; stroke-width: 1.5; stroke-linecap: square"/>
    </g>
    <g id="text_23">
     <!-- RuleBasedCERebuyAgentStorageMinimizer -->
     <g transform="translate(191.41375 117.061062)scale(0.1 -0.1)">
      <defs>
       <path id="DejaVuSans-4d" d="M 628 4666 
L 1569 4666 
L 2759 1491 
L 3956 4666 
L 4897 4666 
L 4897 0 
L 4281 0 
L 4281 4097 
L 3078 897 
L 2444 897 
L 1241 4097 
L 1241 0 
L 628 0 
L 628 4666 
z
" transform="scale(0.015625)"/>
       <path id="DejaVuSans-7a" d="M 353 3500 
L 3084 3500 
L 3084 2975 
L 922 459 
L 3084 459 
L 3084 0 
L 275 0 
L 275 525 
L 2438 3041 
L 353 3041 
L 353 3500 
z
" transform="scale(0.015625)"/>
      </defs>
      <use xlink:href="#DejaVuSans-52"/>
      <use xlink:href="#DejaVuSans-75" x="64.982422"/>
      <use xlink:href="#DejaVuSans-6c" x="128.361328"/>
      <use xlink:href="#DejaVuSans-65" x="156.144531"/>
      <use xlink:href="#DejaVuSans-42" x="217.667969"/>
      <use xlink:href="#DejaVuSans-61" x="286.271484"/>
      <use xlink:href="#DejaVuSans-73" x="347.550781"/>
      <use xlink:href="#DejaVuSans-65" x="399.650391"/>
      <use xlink:href="#DejaVuSans-64" x="461.173828"/>
      <use xlink:href="#DejaVuSans-43" x="524.650391"/>
      <use xlink:href="#DejaVuSans-45" x="594.474609"/>
      <use xlink:href="#DejaVuSans-52" x="657.658203"/>
      <use xlink:href="#DejaVuSans-65" x="722.640625"/>
      <use xlink:href="#DejaVuSans-62" x="784.164062"/>
      <use xlink:href="#DejaVuSans-75" x="847.640625"/>
      <use xlink:href="#DejaVuSans-79" x="911.019531"/>
      <use xlink:href="#DejaVuSans-41" x="970.199219"/>
      <use xlink:href="#DejaVuSans-67" x="1038.607422"/>
      <use xlink:href="#DejaVuSans-65" x="1102.083984"/>
      <use xlink:href="#DejaVuSans-6e" x="1163.607422"/>
      <use xlink:href="#DejaVuSans-74" x="1226.986328"/>
      <use xlink:href="#DejaVuSans-53" x="1266.195312"/>
      <use xlink:href="#DejaVuSans-74" x="1329.671875"/>
      <use xlink:href="#DejaVuSans-6f" x="1368.880859"/>
      <use xlink:href="#DejaVuSans-72" x="1430.0625"/>
      <use xlink:href="#DejaVuSans-61" x="1471.175781"/>
      <use xlink:href="#DejaVuSans-67" x="1532.455078"/>
      <use xlink:href="#DejaVuSans-65" x="1595.931641"/>
      <use xlink:href="#DejaVuSans-4d" x="1657.455078"/>
      <use xlink:href="#DejaVuSans-69" x="1743.734375"/>
      <use xlink:href="#DejaVuSans-6e" x="1771.517578"/>
      <use xlink:href="#DejaVuSans-69" x="1834.896484"/>
      <use xlink:href="#DejaVuSans-6d" x="1862.679688"/>
      <use xlink:href="#DejaVuSans-69" x="1960.091797"/>
      <use xlink:href="#DejaVuSans-7a" x="1987.875"/>
      <use xlink:href="#DejaVuSans-65" x="2040.365234"/>
      <use xlink:href="#DejaVuSans-72" x="2101.888672"/>
     </g>
    </g>
   </g>
  </g>
 </g>
 <defs>
  <clipPath id="pe0563681f2">
   <rect x="57.6" y="41.472" width="357.12" height="266.112"/>
  </clipPath>
 </defs>
</svg>
