<?xml version="1.0" encoding="utf-8" standalone="no"?>
<!DOCTYPE svg PUBLIC "-//W3C//DTD SVG 1.1//EN"
  "http://www.w3.org/Graphics/SVG/1.1/DTD/svg11.dtd">
<svg xmlns:xlink="http://www.w3.org/1999/xlink" width="460.8pt" height="345.6pt" viewBox="0 0 460.8 345.6" xmlns="http://www.w3.org/2000/svg" version="1.1">
 <metadata>
  <rdf:RDF xmlns:dc="http://purl.org/dc/elements/1.1/" xmlns:cc="http://creativecommons.org/ns#" xmlns:rdf="http://www.w3.org/1999/02/22-rdf-syntax-ns#">
   <cc:Work>
    <dc:type rdf:resource="http://purl.org/dc/dcmitype/StillImage"/>
    <dc:date>2022-06-15T18:25:41.494952</dc:date>
    <dc:format>image/svg+xml</dc:format>
    <dc:creator>
     <cc:Agent>
      <dc:title>Matplotlib v3.5.2, https://matplotlib.org/</dc:title>
     </cc:Agent>
    </dc:creator>
   </cc:Work>
  </rdf:RDF>
 </metadata>
 <defs>
  <style type="text/css">*{stroke-linejoin: round; stroke-linecap: butt}</style>
 </defs>
 <g id="figure_1">
  <g id="patch_1">
   <path d="M 0 345.6 
L 460.8 345.6 
L 460.8 0 
L 0 0 
z
" style="fill: #ffffff"/>
  </g>
  <g id="axes_1">
   <g id="patch_2">
    <path d="M 57.6 307.584 
L 414.72 307.584 
L 414.72 41.472 
L 57.6 41.472 
z
" style="fill: #ffffff"/>
   </g>
   <g id="matplotlib.axis_1">
    <g id="xtick_1">
     <g id="line2d_1">
      <defs>
       <path id="mdb2946b849" d="M 0 0 
L 0 3.5 
" style="stroke: #000000; stroke-width: 0.8"/>
      </defs>
      <g>
       <use xlink:href="#mdb2946b849" x="71.378182" y="307.584" style="stroke: #000000; stroke-width: 0.8"/>
      </g>
     </g>
     <g id="text_1">
      <!-- 0 -->
      <g transform="translate(68.196932 322.182437)scale(0.1 -0.1)">
       <defs>
        <path id="DejaVuSans-30" d="M 2034 4250 
Q 1547 4250 1301 3770 
Q 1056 3291 1056 2328 
Q 1056 1369 1301 889 
Q 1547 409 2034 409 
Q 2525 409 2770 889 
Q 3016 1369 3016 2328 
Q 3016 3291 2770 3770 
Q 2525 4250 2034 4250 
z
M 2034 4750 
Q 2819 4750 3233 4129 
Q 3647 3509 3647 2328 
Q 3647 1150 3233 529 
Q 2819 -91 2034 -91 
Q 1250 -91 836 529 
Q 422 1150 422 2328 
Q 422 3509 836 4129 
Q 1250 4750 2034 4750 
z
" transform="scale(0.015625)"/>
       </defs>
       <use xlink:href="#DejaVuSans-30"/>
      </g>
     </g>
    </g>
    <g id="xtick_2">
     <g id="line2d_2">
      <g>
       <use xlink:href="#mdb2946b849" x="112.287273" y="307.584" style="stroke: #000000; stroke-width: 0.8"/>
      </g>
     </g>
     <g id="text_2">
      <!-- 250 -->
      <g transform="translate(102.743523 322.182437)scale(0.1 -0.1)">
       <defs>
        <path id="DejaVuSans-32" d="M 1228 531 
L 3431 531 
L 3431 0 
L 469 0 
L 469 531 
Q 828 903 1448 1529 
Q 2069 2156 2228 2338 
Q 2531 2678 2651 2914 
Q 2772 3150 2772 3378 
Q 2772 3750 2511 3984 
Q 2250 4219 1831 4219 
Q 1534 4219 1204 4116 
Q 875 4013 500 3803 
L 500 4441 
Q 881 4594 1212 4672 
Q 1544 4750 1819 4750 
Q 2544 4750 2975 4387 
Q 3406 4025 3406 3419 
Q 3406 3131 3298 2873 
Q 3191 2616 2906 2266 
Q 2828 2175 2409 1742 
Q 1991 1309 1228 531 
z
" transform="scale(0.015625)"/>
        <path id="DejaVuSans-35" d="M 691 4666 
L 3169 4666 
L 3169 4134 
L 1269 4134 
L 1269 2991 
Q 1406 3038 1543 3061 
Q 1681 3084 1819 3084 
Q 2600 3084 3056 2656 
Q 3513 2228 3513 1497 
Q 3513 744 3044 326 
Q 2575 -91 1722 -91 
Q 1428 -91 1123 -41 
Q 819 9 494 109 
L 494 744 
Q 775 591 1075 516 
Q 1375 441 1709 441 
Q 2250 441 2565 725 
Q 2881 1009 2881 1497 
Q 2881 1984 2565 2268 
Q 2250 2553 1709 2553 
Q 1456 2553 1204 2497 
Q 953 2441 691 2322 
L 691 4666 
z
" transform="scale(0.015625)"/>
       </defs>
       <use xlink:href="#DejaVuSans-32"/>
       <use xlink:href="#DejaVuSans-35" x="63.623047"/>
       <use xlink:href="#DejaVuSans-30" x="127.246094"/>
      </g>
     </g>
    </g>
    <g id="xtick_3">
     <g id="line2d_3">
      <g>
       <use xlink:href="#mdb2946b849" x="153.196364" y="307.584" style="stroke: #000000; stroke-width: 0.8"/>
      </g>
     </g>
     <g id="text_3">
      <!-- 500 -->
      <g transform="translate(143.652614 322.182437)scale(0.1 -0.1)">
       <use xlink:href="#DejaVuSans-35"/>
       <use xlink:href="#DejaVuSans-30" x="63.623047"/>
       <use xlink:href="#DejaVuSans-30" x="127.246094"/>
      </g>
     </g>
    </g>
    <g id="xtick_4">
     <g id="line2d_4">
      <g>
       <use xlink:href="#mdb2946b849" x="194.105455" y="307.584" style="stroke: #000000; stroke-width: 0.8"/>
      </g>
     </g>
     <g id="text_4">
      <!-- 750 -->
      <g transform="translate(184.561705 322.182437)scale(0.1 -0.1)">
       <defs>
        <path id="DejaVuSans-37" d="M 525 4666 
L 3525 4666 
L 3525 4397 
L 1831 0 
L 1172 0 
L 2766 4134 
L 525 4134 
L 525 4666 
z
" transform="scale(0.015625)"/>
       </defs>
       <use xlink:href="#DejaVuSans-37"/>
       <use xlink:href="#DejaVuSans-35" x="63.623047"/>
       <use xlink:href="#DejaVuSans-30" x="127.246094"/>
      </g>
     </g>
    </g>
    <g id="xtick_5">
     <g id="line2d_5">
      <g>
       <use xlink:href="#mdb2946b849" x="235.014545" y="307.584" style="stroke: #000000; stroke-width: 0.8"/>
      </g>
     </g>
     <g id="text_5">
      <!-- 1000 -->
      <g transform="translate(222.289545 322.182437)scale(0.1 -0.1)">
       <defs>
        <path id="DejaVuSans-31" d="M 794 531 
L 1825 531 
L 1825 4091 
L 703 3866 
L 703 4441 
L 1819 4666 
L 2450 4666 
L 2450 531 
L 3481 531 
L 3481 0 
L 794 0 
L 794 531 
z
" transform="scale(0.015625)"/>
       </defs>
       <use xlink:href="#DejaVuSans-31"/>
       <use xlink:href="#DejaVuSans-30" x="63.623047"/>
       <use xlink:href="#DejaVuSans-30" x="127.246094"/>
       <use xlink:href="#DejaVuSans-30" x="190.869141"/>
      </g>
     </g>
    </g>
    <g id="xtick_6">
     <g id="line2d_6">
      <g>
       <use xlink:href="#mdb2946b849" x="275.923636" y="307.584" style="stroke: #000000; stroke-width: 0.8"/>
      </g>
     </g>
     <g id="text_6">
      <!-- 1250 -->
      <g transform="translate(263.198636 322.182437)scale(0.1 -0.1)">
       <use xlink:href="#DejaVuSans-31"/>
       <use xlink:href="#DejaVuSans-32" x="63.623047"/>
       <use xlink:href="#DejaVuSans-35" x="127.246094"/>
       <use xlink:href="#DejaVuSans-30" x="190.869141"/>
      </g>
     </g>
    </g>
    <g id="xtick_7">
     <g id="line2d_7">
      <g>
       <use xlink:href="#mdb2946b849" x="316.832727" y="307.584" style="stroke: #000000; stroke-width: 0.8"/>
      </g>
     </g>
     <g id="text_7">
      <!-- 1500 -->
      <g transform="translate(304.107727 322.182437)scale(0.1 -0.1)">
       <use xlink:href="#DejaVuSans-31"/>
       <use xlink:href="#DejaVuSans-35" x="63.623047"/>
       <use xlink:href="#DejaVuSans-30" x="127.246094"/>
       <use xlink:href="#DejaVuSans-30" x="190.869141"/>
      </g>
     </g>
    </g>
    <g id="xtick_8">
     <g id="line2d_8">
      <g>
       <use xlink:href="#mdb2946b849" x="357.741818" y="307.584" style="stroke: #000000; stroke-width: 0.8"/>
      </g>
     </g>
     <g id="text_8">
      <!-- 1750 -->
      <g transform="translate(345.016818 322.182437)scale(0.1 -0.1)">
       <use xlink:href="#DejaVuSans-31"/>
       <use xlink:href="#DejaVuSans-37" x="63.623047"/>
       <use xlink:href="#DejaVuSans-35" x="127.246094"/>
       <use xlink:href="#DejaVuSans-30" x="190.869141"/>
      </g>
     </g>
    </g>
    <g id="xtick_9">
     <g id="line2d_9">
      <g>
       <use xlink:href="#mdb2946b849" x="398.650909" y="307.584" style="stroke: #000000; stroke-width: 0.8"/>
      </g>
     </g>
     <g id="text_9">
      <!-- 2000 -->
      <g transform="translate(385.925909 322.182437)scale(0.1 -0.1)">
       <use xlink:href="#DejaVuSans-32"/>
       <use xlink:href="#DejaVuSans-30" x="63.623047"/>
       <use xlink:href="#DejaVuSans-30" x="127.246094"/>
       <use xlink:href="#DejaVuSans-30" x="190.869141"/>
      </g>
     </g>
    </g>
    <g id="text_10">
     <!-- Episode -->
     <g transform="translate(216.5225 335.860562)scale(0.1 -0.1)">
      <defs>
       <path id="DejaVuSans-45" d="M 628 4666 
L 3578 4666 
L 3578 4134 
L 1259 4134 
L 1259 2753 
L 3481 2753 
L 3481 2222 
L 1259 2222 
L 1259 531 
L 3634 531 
L 3634 0 
L 628 0 
L 628 4666 
z
" transform="scale(0.015625)"/>
       <path id="DejaVuSans-70" d="M 1159 525 
L 1159 -1331 
L 581 -1331 
L 581 3500 
L 1159 3500 
L 1159 2969 
Q 1341 3281 1617 3432 
Q 1894 3584 2278 3584 
Q 2916 3584 3314 3078 
Q 3713 2572 3713 1747 
Q 3713 922 3314 415 
Q 2916 -91 2278 -91 
Q 1894 -91 1617 61 
Q 1341 213 1159 525 
z
M 3116 1747 
Q 3116 2381 2855 2742 
Q 2594 3103 2138 3103 
Q 1681 3103 1420 2742 
Q 1159 2381 1159 1747 
Q 1159 1113 1420 752 
Q 1681 391 2138 391 
Q 2594 391 2855 752 
Q 3116 1113 3116 1747 
z
" transform="scale(0.015625)"/>
       <path id="DejaVuSans-69" d="M 603 3500 
L 1178 3500 
L 1178 0 
L 603 0 
L 603 3500 
z
M 603 4863 
L 1178 4863 
L 1178 4134 
L 603 4134 
L 603 4863 
z
" transform="scale(0.015625)"/>
       <path id="DejaVuSans-73" d="M 2834 3397 
L 2834 2853 
Q 2591 2978 2328 3040 
Q 2066 3103 1784 3103 
Q 1356 3103 1142 2972 
Q 928 2841 928 2578 
Q 928 2378 1081 2264 
Q 1234 2150 1697 2047 
L 1894 2003 
Q 2506 1872 2764 1633 
Q 3022 1394 3022 966 
Q 3022 478 2636 193 
Q 2250 -91 1575 -91 
Q 1294 -91 989 -36 
Q 684 19 347 128 
L 347 722 
Q 666 556 975 473 
Q 1284 391 1588 391 
Q 1994 391 2212 530 
Q 2431 669 2431 922 
Q 2431 1156 2273 1281 
Q 2116 1406 1581 1522 
L 1381 1569 
Q 847 1681 609 1914 
Q 372 2147 372 2553 
Q 372 3047 722 3315 
Q 1072 3584 1716 3584 
Q 2034 3584 2315 3537 
Q 2597 3491 2834 3397 
z
" transform="scale(0.015625)"/>
       <path id="DejaVuSans-6f" d="M 1959 3097 
Q 1497 3097 1228 2736 
Q 959 2375 959 1747 
Q 959 1119 1226 758 
Q 1494 397 1959 397 
Q 2419 397 2687 759 
Q 2956 1122 2956 1747 
Q 2956 2369 2687 2733 
Q 2419 3097 1959 3097 
z
M 1959 3584 
Q 2709 3584 3137 3096 
Q 3566 2609 3566 1747 
Q 3566 888 3137 398 
Q 2709 -91 1959 -91 
Q 1206 -91 779 398 
Q 353 888 353 1747 
Q 353 2609 779 3096 
Q 1206 3584 1959 3584 
z
" transform="scale(0.015625)"/>
       <path id="DejaVuSans-64" d="M 2906 2969 
L 2906 4863 
L 3481 4863 
L 3481 0 
L 2906 0 
L 2906 525 
Q 2725 213 2448 61 
Q 2172 -91 1784 -91 
Q 1150 -91 751 415 
Q 353 922 353 1747 
Q 353 2572 751 3078 
Q 1150 3584 1784 3584 
Q 2172 3584 2448 3432 
Q 2725 3281 2906 2969 
z
M 947 1747 
Q 947 1113 1208 752 
Q 1469 391 1925 391 
Q 2381 391 2643 752 
Q 2906 1113 2906 1747 
Q 2906 2381 2643 2742 
Q 2381 3103 1925 3103 
Q 1469 3103 1208 2742 
Q 947 2381 947 1747 
z
" transform="scale(0.015625)"/>
       <path id="DejaVuSans-65" d="M 3597 1894 
L 3597 1613 
L 953 1613 
Q 991 1019 1311 708 
Q 1631 397 2203 397 
Q 2534 397 2845 478 
Q 3156 559 3463 722 
L 3463 178 
Q 3153 47 2828 -22 
Q 2503 -91 2169 -91 
Q 1331 -91 842 396 
Q 353 884 353 1716 
Q 353 2575 817 3079 
Q 1281 3584 2069 3584 
Q 2775 3584 3186 3129 
Q 3597 2675 3597 1894 
z
M 3022 2063 
Q 3016 2534 2758 2815 
Q 2500 3097 2075 3097 
Q 1594 3097 1305 2825 
Q 1016 2553 972 2059 
L 3022 2063 
z
" transform="scale(0.015625)"/>
      </defs>
      <use xlink:href="#DejaVuSans-45"/>
      <use xlink:href="#DejaVuSans-70" x="63.183594"/>
      <use xlink:href="#DejaVuSans-69" x="126.660156"/>
      <use xlink:href="#DejaVuSans-73" x="154.443359"/>
      <use xlink:href="#DejaVuSans-6f" x="206.542969"/>
      <use xlink:href="#DejaVuSans-64" x="267.724609"/>
      <use xlink:href="#DejaVuSans-65" x="331.201172"/>
     </g>
    </g>
   </g>
   <g id="matplotlib.axis_2">
    <g id="ytick_1">
     <g id="line2d_10">
      <defs>
       <path id="macacd001ca" d="M 0 0 
L -3.5 0 
" style="stroke: #000000; stroke-width: 0.8"/>
      </defs>
      <g>
       <use xlink:href="#macacd001ca" x="57.6" y="287.992634" style="stroke: #000000; stroke-width: 0.8"/>
      </g>
     </g>
     <g id="text_11">
      <!-- 250 -->
      <g transform="translate(31.5125 291.791853)scale(0.1 -0.1)">
       <use xlink:href="#DejaVuSans-32"/>
       <use xlink:href="#DejaVuSans-35" x="63.623047"/>
       <use xlink:href="#DejaVuSans-30" x="127.246094"/>
      </g>
     </g>
    </g>
    <g id="ytick_2">
     <g id="line2d_11">
      <g>
       <use xlink:href="#macacd001ca" x="57.6" y="258.23509" style="stroke: #000000; stroke-width: 0.8"/>
      </g>
     </g>
     <g id="text_12">
      <!-- 300 -->
      <g transform="translate(31.5125 262.034308)scale(0.1 -0.1)">
       <defs>
        <path id="DejaVuSans-33" d="M 2597 2516 
Q 3050 2419 3304 2112 
Q 3559 1806 3559 1356 
Q 3559 666 3084 287 
Q 2609 -91 1734 -91 
Q 1441 -91 1130 -33 
Q 819 25 488 141 
L 488 750 
Q 750 597 1062 519 
Q 1375 441 1716 441 
Q 2309 441 2620 675 
Q 2931 909 2931 1356 
Q 2931 1769 2642 2001 
Q 2353 2234 1838 2234 
L 1294 2234 
L 1294 2753 
L 1863 2753 
Q 2328 2753 2575 2939 
Q 2822 3125 2822 3475 
Q 2822 3834 2567 4026 
Q 2313 4219 1838 4219 
Q 1578 4219 1281 4162 
Q 984 4106 628 3988 
L 628 4550 
Q 988 4650 1302 4700 
Q 1616 4750 1894 4750 
Q 2613 4750 3031 4423 
Q 3450 4097 3450 3541 
Q 3450 3153 3228 2886 
Q 3006 2619 2597 2516 
z
" transform="scale(0.015625)"/>
       </defs>
       <use xlink:href="#DejaVuSans-33"/>
       <use xlink:href="#DejaVuSans-30" x="63.623047"/>
       <use xlink:href="#DejaVuSans-30" x="127.246094"/>
      </g>
     </g>
    </g>
    <g id="ytick_3">
     <g id="line2d_12">
      <g>
       <use xlink:href="#macacd001ca" x="57.6" y="228.477545" style="stroke: #000000; stroke-width: 0.8"/>
      </g>
     </g>
     <g id="text_13">
      <!-- 350 -->
      <g transform="translate(31.5125 232.276764)scale(0.1 -0.1)">
       <use xlink:href="#DejaVuSans-33"/>
       <use xlink:href="#DejaVuSans-35" x="63.623047"/>
       <use xlink:href="#DejaVuSans-30" x="127.246094"/>
      </g>
     </g>
    </g>
    <g id="ytick_4">
     <g id="line2d_13">
      <g>
       <use xlink:href="#macacd001ca" x="57.6" y="198.72" style="stroke: #000000; stroke-width: 0.8"/>
      </g>
     </g>
     <g id="text_14">
      <!-- 400 -->
      <g transform="translate(31.5125 202.519219)scale(0.1 -0.1)">
       <defs>
        <path id="DejaVuSans-34" d="M 2419 4116 
L 825 1625 
L 2419 1625 
L 2419 4116 
z
M 2253 4666 
L 3047 4666 
L 3047 1625 
L 3713 1625 
L 3713 1100 
L 3047 1100 
L 3047 0 
L 2419 0 
L 2419 1100 
L 313 1100 
L 313 1709 
L 2253 4666 
z
" transform="scale(0.015625)"/>
       </defs>
       <use xlink:href="#DejaVuSans-34"/>
       <use xlink:href="#DejaVuSans-30" x="63.623047"/>
       <use xlink:href="#DejaVuSans-30" x="127.246094"/>
      </g>
     </g>
    </g>
    <g id="ytick_5">
     <g id="line2d_14">
      <g>
       <use xlink:href="#macacd001ca" x="57.6" y="168.962455" style="stroke: #000000; stroke-width: 0.8"/>
      </g>
     </g>
     <g id="text_15">
      <!-- 450 -->
      <g transform="translate(31.5125 172.761674)scale(0.1 -0.1)">
       <use xlink:href="#DejaVuSans-34"/>
       <use xlink:href="#DejaVuSans-35" x="63.623047"/>
       <use xlink:href="#DejaVuSans-30" x="127.246094"/>
      </g>
     </g>
    </g>
    <g id="ytick_6">
     <g id="line2d_15">
      <g>
       <use xlink:href="#macacd001ca" x="57.6" y="139.20491" style="stroke: #000000; stroke-width: 0.8"/>
      </g>
     </g>
     <g id="text_16">
      <!-- 500 -->
      <g transform="translate(31.5125 143.004129)scale(0.1 -0.1)">
       <use xlink:href="#DejaVuSans-35"/>
       <use xlink:href="#DejaVuSans-30" x="63.623047"/>
       <use xlink:href="#DejaVuSans-30" x="127.246094"/>
      </g>
     </g>
    </g>
    <g id="ytick_7">
     <g id="line2d_16">
      <g>
       <use xlink:href="#macacd001ca" x="57.6" y="109.447366" style="stroke: #000000; stroke-width: 0.8"/>
      </g>
     </g>
     <g id="text_17">
      <!-- 550 -->
      <g transform="translate(31.5125 113.246584)scale(0.1 -0.1)">
       <use xlink:href="#DejaVuSans-35"/>
       <use xlink:href="#DejaVuSans-35" x="63.623047"/>
       <use xlink:href="#DejaVuSans-30" x="127.246094"/>
      </g>
     </g>
    </g>
    <g id="ytick_8">
     <g id="line2d_17">
      <g>
       <use xlink:href="#macacd001ca" x="57.6" y="79.689821" style="stroke: #000000; stroke-width: 0.8"/>
      </g>
     </g>
     <g id="text_18">
      <!-- 600 -->
      <g transform="translate(31.5125 83.48904)scale(0.1 -0.1)">
       <defs>
        <path id="DejaVuSans-36" d="M 2113 2584 
Q 1688 2584 1439 2293 
Q 1191 2003 1191 1497 
Q 1191 994 1439 701 
Q 1688 409 2113 409 
Q 2538 409 2786 701 
Q 3034 994 3034 1497 
Q 3034 2003 2786 2293 
Q 2538 2584 2113 2584 
z
M 3366 4563 
L 3366 3988 
Q 3128 4100 2886 4159 
Q 2644 4219 2406 4219 
Q 1781 4219 1451 3797 
Q 1122 3375 1075 2522 
Q 1259 2794 1537 2939 
Q 1816 3084 2150 3084 
Q 2853 3084 3261 2657 
Q 3669 2231 3669 1497 
Q 3669 778 3244 343 
Q 2819 -91 2113 -91 
Q 1303 -91 875 529 
Q 447 1150 447 2328 
Q 447 3434 972 4092 
Q 1497 4750 2381 4750 
Q 2619 4750 2861 4703 
Q 3103 4656 3366 4563 
z
" transform="scale(0.015625)"/>
       </defs>
       <use xlink:href="#DejaVuSans-36"/>
       <use xlink:href="#DejaVuSans-30" x="63.623047"/>
       <use xlink:href="#DejaVuSans-30" x="127.246094"/>
      </g>
     </g>
    </g>
    <g id="ytick_9">
     <g id="line2d_18">
      <g>
       <use xlink:href="#macacd001ca" x="57.6" y="49.932276" style="stroke: #000000; stroke-width: 0.8"/>
      </g>
     </g>
     <g id="text_19">
      <!-- 650 -->
      <g transform="translate(31.5125 53.731495)scale(0.1 -0.1)">
       <use xlink:href="#DejaVuSans-36"/>
       <use xlink:href="#DejaVuSans-35" x="63.623047"/>
       <use xlink:href="#DejaVuSans-30" x="127.246094"/>
      </g>
     </g>
    </g>
    <g id="text_20">
     <!-- customer/buy_nothing -->
     <g transform="translate(25.154687 230.648313)rotate(-90)scale(0.1 -0.1)">
      <defs>
       <path id="DejaVuSans-63" d="M 3122 3366 
L 3122 2828 
Q 2878 2963 2633 3030 
Q 2388 3097 2138 3097 
Q 1578 3097 1268 2742 
Q 959 2388 959 1747 
Q 959 1106 1268 751 
Q 1578 397 2138 397 
Q 2388 397 2633 464 
Q 2878 531 3122 666 
L 3122 134 
Q 2881 22 2623 -34 
Q 2366 -91 2075 -91 
Q 1284 -91 818 406 
Q 353 903 353 1747 
Q 353 2603 823 3093 
Q 1294 3584 2113 3584 
Q 2378 3584 2631 3529 
Q 2884 3475 3122 3366 
z
" transform="scale(0.015625)"/>
       <path id="DejaVuSans-75" d="M 544 1381 
L 544 3500 
L 1119 3500 
L 1119 1403 
Q 1119 906 1312 657 
Q 1506 409 1894 409 
Q 2359 409 2629 706 
Q 2900 1003 2900 1516 
L 2900 3500 
L 3475 3500 
L 3475 0 
L 2900 0 
L 2900 538 
Q 2691 219 2414 64 
Q 2138 -91 1772 -91 
Q 1169 -91 856 284 
Q 544 659 544 1381 
z
M 1991 3584 
L 1991 3584 
z
" transform="scale(0.015625)"/>
       <path id="DejaVuSans-74" d="M 1172 4494 
L 1172 3500 
L 2356 3500 
L 2356 3053 
L 1172 3053 
L 1172 1153 
Q 1172 725 1289 603 
Q 1406 481 1766 481 
L 2356 481 
L 2356 0 
L 1766 0 
Q 1100 0 847 248 
Q 594 497 594 1153 
L 594 3053 
L 172 3053 
L 172 3500 
L 594 3500 
L 594 4494 
L 1172 4494 
z
" transform="scale(0.015625)"/>
       <path id="DejaVuSans-6d" d="M 3328 2828 
Q 3544 3216 3844 3400 
Q 4144 3584 4550 3584 
Q 5097 3584 5394 3201 
Q 5691 2819 5691 2113 
L 5691 0 
L 5113 0 
L 5113 2094 
Q 5113 2597 4934 2840 
Q 4756 3084 4391 3084 
Q 3944 3084 3684 2787 
Q 3425 2491 3425 1978 
L 3425 0 
L 2847 0 
L 2847 2094 
Q 2847 2600 2669 2842 
Q 2491 3084 2119 3084 
Q 1678 3084 1418 2786 
Q 1159 2488 1159 1978 
L 1159 0 
L 581 0 
L 581 3500 
L 1159 3500 
L 1159 2956 
Q 1356 3278 1631 3431 
Q 1906 3584 2284 3584 
Q 2666 3584 2933 3390 
Q 3200 3197 3328 2828 
z
" transform="scale(0.015625)"/>
       <path id="DejaVuSans-72" d="M 2631 2963 
Q 2534 3019 2420 3045 
Q 2306 3072 2169 3072 
Q 1681 3072 1420 2755 
Q 1159 2438 1159 1844 
L 1159 0 
L 581 0 
L 581 3500 
L 1159 3500 
L 1159 2956 
Q 1341 3275 1631 3429 
Q 1922 3584 2338 3584 
Q 2397 3584 2469 3576 
Q 2541 3569 2628 3553 
L 2631 2963 
z
" transform="scale(0.015625)"/>
       <path id="DejaVuSans-2f" d="M 1625 4666 
L 2156 4666 
L 531 -594 
L 0 -594 
L 1625 4666 
z
" transform="scale(0.015625)"/>
       <path id="DejaVuSans-62" d="M 3116 1747 
Q 3116 2381 2855 2742 
Q 2594 3103 2138 3103 
Q 1681 3103 1420 2742 
Q 1159 2381 1159 1747 
Q 1159 1113 1420 752 
Q 1681 391 2138 391 
Q 2594 391 2855 752 
Q 3116 1113 3116 1747 
z
M 1159 2969 
Q 1341 3281 1617 3432 
Q 1894 3584 2278 3584 
Q 2916 3584 3314 3078 
Q 3713 2572 3713 1747 
Q 3713 922 3314 415 
Q 2916 -91 2278 -91 
Q 1894 -91 1617 61 
Q 1341 213 1159 525 
L 1159 0 
L 581 0 
L 581 4863 
L 1159 4863 
L 1159 2969 
z
" transform="scale(0.015625)"/>
       <path id="DejaVuSans-79" d="M 2059 -325 
Q 1816 -950 1584 -1140 
Q 1353 -1331 966 -1331 
L 506 -1331 
L 506 -850 
L 844 -850 
Q 1081 -850 1212 -737 
Q 1344 -625 1503 -206 
L 1606 56 
L 191 3500 
L 800 3500 
L 1894 763 
L 2988 3500 
L 3597 3500 
L 2059 -325 
z
" transform="scale(0.015625)"/>
       <path id="DejaVuSans-5f" d="M 3263 -1063 
L 3263 -1509 
L -63 -1509 
L -63 -1063 
L 3263 -1063 
z
" transform="scale(0.015625)"/>
       <path id="DejaVuSans-6e" d="M 3513 2113 
L 3513 0 
L 2938 0 
L 2938 2094 
Q 2938 2591 2744 2837 
Q 2550 3084 2163 3084 
Q 1697 3084 1428 2787 
Q 1159 2491 1159 1978 
L 1159 0 
L 581 0 
L 581 3500 
L 1159 3500 
L 1159 2956 
Q 1366 3272 1645 3428 
Q 1925 3584 2291 3584 
Q 2894 3584 3203 3211 
Q 3513 2838 3513 2113 
z
" transform="scale(0.015625)"/>
       <path id="DejaVuSans-68" d="M 3513 2113 
L 3513 0 
L 2938 0 
L 2938 2094 
Q 2938 2591 2744 2837 
Q 2550 3084 2163 3084 
Q 1697 3084 1428 2787 
Q 1159 2491 1159 1978 
L 1159 0 
L 581 0 
L 581 4863 
L 1159 4863 
L 1159 2956 
Q 1366 3272 1645 3428 
Q 1925 3584 2291 3584 
Q 2894 3584 3203 3211 
Q 3513 2838 3513 2113 
z
" transform="scale(0.015625)"/>
       <path id="DejaVuSans-67" d="M 2906 1791 
Q 2906 2416 2648 2759 
Q 2391 3103 1925 3103 
Q 1463 3103 1205 2759 
Q 947 2416 947 1791 
Q 947 1169 1205 825 
Q 1463 481 1925 481 
Q 2391 481 2648 825 
Q 2906 1169 2906 1791 
z
M 3481 434 
Q 3481 -459 3084 -895 
Q 2688 -1331 1869 -1331 
Q 1566 -1331 1297 -1286 
Q 1028 -1241 775 -1147 
L 775 -588 
Q 1028 -725 1275 -790 
Q 1522 -856 1778 -856 
Q 2344 -856 2625 -561 
Q 2906 -266 2906 331 
L 2906 616 
Q 2728 306 2450 153 
Q 2172 0 1784 0 
Q 1141 0 747 490 
Q 353 981 353 1791 
Q 353 2603 747 3093 
Q 1141 3584 1784 3584 
Q 2172 3584 2450 3431 
Q 2728 3278 2906 2969 
L 2906 3500 
L 3481 3500 
L 3481 434 
z
" transform="scale(0.015625)"/>
      </defs>
      <use xlink:href="#DejaVuSans-63"/>
      <use xlink:href="#DejaVuSans-75" x="54.980469"/>
      <use xlink:href="#DejaVuSans-73" x="118.359375"/>
      <use xlink:href="#DejaVuSans-74" x="170.458984"/>
      <use xlink:href="#DejaVuSans-6f" x="209.667969"/>
      <use xlink:href="#DejaVuSans-6d" x="270.849609"/>
      <use xlink:href="#DejaVuSans-65" x="368.261719"/>
      <use xlink:href="#DejaVuSans-72" x="429.785156"/>
      <use xlink:href="#DejaVuSans-2f" x="470.898438"/>
      <use xlink:href="#DejaVuSans-62" x="504.589844"/>
      <use xlink:href="#DejaVuSans-75" x="568.066406"/>
      <use xlink:href="#DejaVuSans-79" x="631.445312"/>
      <use xlink:href="#DejaVuSans-5f" x="690.625"/>
      <use xlink:href="#DejaVuSans-6e" x="740.625"/>
      <use xlink:href="#DejaVuSans-6f" x="804.003906"/>
      <use xlink:href="#DejaVuSans-74" x="865.185547"/>
      <use xlink:href="#DejaVuSans-68" x="904.394531"/>
      <use xlink:href="#DejaVuSans-69" x="967.773438"/>
      <use xlink:href="#DejaVuSans-6e" x="995.556641"/>
      <use xlink:href="#DejaVuSans-67" x="1058.935547"/>
     </g>
    </g>
   </g>
   <g id="line2d_19">
    <path d="M 73.832727 285.798015 
L 74.487273 248.861463 
L 74.814545 235.186518 
L 75.796364 189.984035 
L 75.96 186.673325 
L 76.450909 172.551959 
L 76.941818 163.487067 
L 77.596364 155.808094 
L 77.76 155.764984 
L 78.087273 154.197045 
L 78.578182 150.44665 
L 78.741818 150.189326 
L 78.905455 149.157859 
L 79.069091 150.289596 
L 79.232727 149.140287 
L 79.56 148.774003 
L 80.541818 142.076253 
L 81.196364 138.336576 
L 81.36 137.342664 
L 81.523636 137.655629 
L 81.850909 136.567934 
L 82.996364 127.442414 
L 83.16 127.138838 
L 83.487273 124.524522 
L 83.814545 123.421818 
L 83.978182 121.853973 
L 84.305455 120.970975 
L 85.287273 114.776042 
L 85.450909 114.885814 
L 85.614545 114.654936 
L 86.269091 111.109907 
L 87.087273 108.723368 
L 87.414545 106.898437 
L 87.578182 105.858606 
L 87.741818 105.929494 
L 88.232727 98.381095 
L 88.723636 89.277054 
L 89.214545 81.858292 
L 89.541818 76.124808 
L 89.869091 72.942813 
L 90.36 69.177453 
L 90.523636 69.360123 
L 91.178182 66.47865 
L 91.341818 66.84399 
L 91.505455 66.673105 
L 91.669091 66.148665 
L 91.996364 67.480389 
L 92.16 67.356645 
L 92.323636 68.205176 
L 92.487273 67.651274 
L 92.978182 68.664798 
L 93.632727 67.621811 
L 93.796364 67.474496 
L 93.96 67.657166 
L 94.123636 66.885238 
L 94.450909 64.545882 
L 94.778182 63.850558 
L 94.941818 63.974302 
L 96.087273 55.441841 
L 96.414545 56.072348 
L 96.578182 55.889678 
L 97.069091 54.416532 
L 97.232727 53.921555 
L 97.56 54.793657 
L 97.723636 54.658128 
L 97.887273 54.935079 
L 98.050909 53.821381 
L 98.214545 54.057084 
L 98.378182 53.568 
L 98.705455 54.546169 
L 98.869091 54.328143 
L 99.032727 55.318097 
L 99.196364 55.536123 
L 99.36 56.42001 
L 99.523636 56.172522 
L 99.687273 55.418271 
L 100.014545 55.7129 
L 100.178182 55.282742 
L 100.341818 55.312205 
L 100.505455 56.048777 
L 100.832727 55.170783 
L 101.16 56.461258 
L 101.487273 58.364563 
L 101.650909 57.946189 
L 101.814545 58.56491 
L 102.141818 58.54134 
L 102.305455 59.548972 
L 102.469091 59.666824 
L 102.632727 60.338578 
L 102.796364 60.256082 
L 103.123636 59.631468 
L 103.287273 59.649146 
L 103.450909 59.996808 
L 103.614545 59.602005 
L 103.941818 60.150015 
L 104.105455 61.222465 
L 104.269091 60.969084 
L 104.432727 60.214834 
L 104.76 60.426967 
L 104.923636 61.852972 
L 105.087273 60.621422 
L 105.250909 61.057473 
L 105.414545 60.326793 
L 106.069091 62.571867 
L 106.232727 62.306701 
L 106.396364 63.102199 
L 106.723636 62.501156 
L 107.050909 62.972563 
L 107.378182 63.591284 
L 107.541818 65.400307 
L 107.705455 65.518159 
L 107.869091 65.182281 
L 108.032727 65.518159 
L 108.196364 66.838097 
L 108.523636 65.865821 
L 109.014545 67.073801 
L 109.178182 68.28178 
L 109.341818 67.981258 
L 109.669091 68.152143 
L 109.832727 68.794435 
L 110.16 68.764972 
L 110.487273 67.663059 
L 110.650909 68.452665 
L 110.814545 68.546946 
L 110.978182 69.030138 
L 111.141818 68.364276 
L 112.287273 71.505023 
L 112.614545 73.249228 
L 112.941818 71.61109 
L 113.105455 71.776082 
L 113.432727 72.995847 
L 113.596364 73.431898 
L 113.76 74.946292 
L 113.923636 74.156685 
L 114.087273 74.256859 
L 114.250909 73.979908 
L 114.414545 74.068297 
L 114.578182 74.48667 
L 114.741818 73.968123 
L 115.232727 74.663448 
L 115.396364 75.134854 
L 115.56 74.292215 
L 115.723636 74.539703 
L 116.050909 74.292215 
L 116.378182 76.625678 
L 116.869091 78.240246 
L 117.196364 78.52309 
L 117.36 79.348051 
L 117.523636 79.530721 
L 117.687273 80.190691 
L 117.850909 79.831243 
L 118.178182 78.858967 
L 118.341818 78.800041 
L 118.505455 78.470056 
L 118.669091 78.452379 
L 118.832727 78.081146 
L 118.996364 78.758793 
L 119.16 78.800041 
L 119.814545 80.82709 
L 119.978182 80.709238 
L 120.469091 83.349115 
L 120.632727 83.089841 
L 120.796364 83.296082 
L 120.96 84.321391 
L 121.287273 84.633698 
L 121.450909 84.014977 
L 121.614545 84.839939 
L 121.778182 84.663161 
L 121.941818 85.105105 
L 122.105455 84.857616 
L 122.596364 86.442721 
L 123.087273 88.133893 
L 123.414545 90.06666 
L 123.578182 89.954701 
L 123.741818 90.938762 
L 124.069091 90.243437 
L 124.232727 90.40843 
L 125.214545 92.494404 
L 125.378182 92.223345 
L 125.705455 93.949872 
L 126.196364 94.992859 
L 127.014545 99.082312 
L 127.178182 99.105882 
L 127.669091 101.7929 
L 127.832727 101.592552 
L 128.16 102.335018 
L 128.487273 103.148194 
L 128.650909 103.460501 
L 129.469091 107.850476 
L 130.123636 109.77735 
L 130.287273 110.007161 
L 130.614545 111.35067 
L 131.432727 115.062997 
L 131.596364 115.09246 
L 132.741818 121.244317 
L 133.232727 122.269627 
L 133.396364 122.682107 
L 133.887273 124.803437 
L 134.050909 125.127529 
L 134.214545 124.8329 
L 134.378182 125.545903 
L 134.869091 129.370189 
L 135.032727 130.224614 
L 135.196364 130.477995 
L 135.36 130.277647 
L 135.687273 131.19689 
L 136.341818 135.162598 
L 136.505455 135.139028 
L 136.669091 135.798997 
L 136.832727 135.469013 
L 137.16 136.800737 
L 137.814545 139.847202 
L 137.978182 140.477708 
L 138.305455 142.657964 
L 139.614545 148.391448 
L 139.778182 148.792143 
L 139.941818 149.83513 
L 140.105455 150.076726 
L 140.269091 150.636522 
L 140.923636 155.450762 
L 141.741818 160.877831 
L 142.069091 163.06398 
L 142.232727 163.287898 
L 142.56 165.809923 
L 142.887273 168.019642 
L 143.050909 168.349627 
L 146.487273 189.020808 
L 146.650909 189.810414 
L 146.814545 190.040225 
L 147.141818 191.790322 
L 147.305455 192.114414 
L 147.796364 194.47734 
L 147.96 194.860358 
L 148.287273 196.698844 
L 148.778182 197.948072 
L 149.105455 198.19556 
L 149.596364 200.075294 
L 149.76 200.652767 
L 150.087273 202.426435 
L 150.414545 204.105821 
L 151.069091 208.307233 
L 151.56 210.128041 
L 152.214545 215.195662 
L 152.705455 216.46846 
L 152.869091 217.045934 
L 153.523636 220.929146 
L 153.687273 221.288593 
L 156.305455 232.04845 
L 156.469091 232.437361 
L 156.632727 233.763192 
L 156.796364 233.727836 
L 157.614545 235.678281 
L 157.778182 235.483826 
L 158.432727 237.216246 
L 158.596364 237.322312 
L 158.923636 238.265125 
L 159.250909 238.530292 
L 160.396364 240.893217 
L 160.887273 242.796522 
L 161.214545 243.291499 
L 161.541818 243.810046 
L 161.705455 243.745228 
L 161.869091 243.880757 
L 162.36 245.495325 
L 162.850909 246.550097 
L 163.014545 246.361535 
L 163.178182 246.76223 
L 163.341818 246.567775 
L 163.505455 246.632593 
L 163.669091 246.903652 
L 163.832727 247.999673 
L 163.996364 247.817003 
L 164.16 247.934854 
L 164.487273 248.706783 
L 164.814545 249.626026 
L 166.450909 254.304737 
L 166.614545 254.422588 
L 166.941818 255.760205 
L 167.105455 255.77199 
L 167.269091 255.070772 
L 167.432727 255.288798 
L 167.76 256.484992 
L 167.923636 256.70891 
L 168.250909 257.445483 
L 168.905455 258.158486 
L 169.232727 258.753637 
L 169.396364 258.900951 
L 169.56 259.319325 
L 169.723636 258.240982 
L 170.050909 259.407714 
L 170.214545 260.167857 
L 170.541818 259.555028 
L 170.869091 259.896798 
L 171.032727 260.256246 
L 171.196364 260.01465 
L 171.523636 260.385882 
L 172.014545 261.523151 
L 172.178182 261.440655 
L 172.505455 260.963355 
L 172.669091 261.240307 
L 172.832727 261.782425 
L 173.16 261.529043 
L 173.323636 262.265616 
L 173.487273 261.912061 
L 173.978182 262.790056 
L 174.141818 262.672205 
L 174.305455 263.420563 
L 174.469091 263.526629 
L 174.632727 263.850721 
L 174.796364 263.886077 
L 175.123636 264.428194 
L 175.287273 263.992143 
L 175.450909 264.021606 
L 175.614545 264.180706 
L 175.778182 264.092317 
L 175.941818 264.493013 
L 176.105455 264.216061 
L 176.269091 264.428194 
L 176.432727 264.074639 
L 176.596364 264.269095 
L 176.923636 265.03513 
L 177.087273 264.946742 
L 177.250909 264.705146 
L 177.578182 264.958527 
L 177.741818 265.653852 
L 177.905455 265.524215 
L 178.396364 265.883662 
L 179.214545 266.360962 
L 179.378182 266.284358 
L 179.541818 266.897187 
L 179.705455 266.920757 
L 180.032727 267.769289 
L 180.523636 268.252481 
L 180.687273 269.171724 
L 181.014545 269.395642 
L 181.178182 268.918343 
L 181.341818 269.266005 
L 181.505455 268.735673 
L 181.832727 269.372072 
L 182.323636 269.660808 
L 182.487273 270.008471 
L 182.650909 269.914189 
L 182.978182 269.442783 
L 183.141818 270.026148 
L 183.305455 269.931867 
L 183.469091 269.666701 
L 183.632727 269.749197 
L 183.796364 269.96133 
L 184.287273 269.189402 
L 184.450909 269.177616 
L 184.614545 269.030302 
L 184.778182 268.594251 
L 185.923636 270.697903 
L 186.087273 270.580051 
L 186.250909 271.970701 
L 186.578182 271.55822 
L 186.741818 271.593575 
L 187.396364 273.290639 
L 187.56 273.013688 
L 188.050909 273.738476 
L 188.541818 272.984225 
L 189.196364 274.333627 
L 189.523636 274.740215 
L 189.850909 274.669504 
L 190.014545 275.529821 
L 190.341818 276.030691 
L 190.505455 275.965872 
L 190.669091 276.55513 
L 190.832727 276.590486 
L 190.996364 276.443171 
L 191.323636 275.82445 
L 191.487273 275.765524 
L 191.650909 275.529821 
L 191.814545 275.771417 
L 191.978182 275.794987 
L 192.305455 276.678875 
L 192.469091 276.743693 
L 192.632727 277.362414 
L 192.796364 277.362414 
L 192.96 277.798465 
L 193.123636 277.869176 
L 193.287273 277.73954 
L 193.450909 278.057739 
L 193.614545 278.010598 
L 193.778182 278.582179 
L 194.105455 278.487898 
L 194.596364 279.030015 
L 194.76 279.654629 
L 195.087273 279.684092 
L 195.250909 280.220317 
L 195.578182 279.972829 
L 195.741818 280.538517 
L 195.905455 280.24978 
L 196.396364 281.499008 
L 196.56 280.844931 
L 196.723636 280.986353 
L 196.887273 280.856716 
L 197.050909 281.29866 
L 197.214545 280.75065 
L 197.541818 280.868501 
L 197.869091 281.245627 
L 198.196364 282.147192 
L 198.36 282.382895 
L 198.523636 282.312184 
L 198.687273 283.160716 
L 199.341818 284.026926 
L 199.505455 284.386373 
L 199.832727 283.543734 
L 199.996364 283.714619 
L 200.487273 284.669217 
L 200.650909 284.763499 
L 200.814545 285.464716 
L 200.978182 285.582568 
L 201.305455 286.531274 
L 201.632727 285.670957 
L 201.796364 285.818271 
L 202.287273 285.511857 
L 202.450909 285.500072 
L 202.614545 285.77113 
L 202.778182 285.653279 
L 203.105455 284.763499 
L 203.269091 285.005095 
L 203.76 284.451192 
L 203.923636 284.533688 
L 204.087273 284.409944 
L 204.741818 285.423468 
L 205.069091 286.142363 
L 205.232727 285.800593 
L 205.56 286.531274 
L 205.887273 285.641494 
L 206.050909 285.788808 
L 206.214545 286.213074 
L 206.378182 285.470609 
L 206.705455 285.164194 
L 206.869091 285.193657 
L 207.032727 285.452931 
L 207.36 285.105269 
L 207.687273 285.983263 
L 208.014545 286.672696 
L 208.669091 286.82001 
L 208.832727 286.548951 
L 208.996364 285.953801 
L 209.16 286.165934 
L 209.323636 286.06576 
L 209.650909 286.301463 
L 209.814545 286.407529 
L 209.978182 286.195396 
L 210.141818 286.201289 
L 210.305455 286.012726 
L 210.96 286.360389 
L 211.123636 286.790547 
L 211.287273 286.596092 
L 211.614545 286.814118 
L 211.778182 286.348604 
L 211.941818 286.47824 
L 212.105455 286.77287 
L 212.269091 286.501811 
L 212.432727 287.173565 
L 212.596364 286.896614 
L 212.76 287.008573 
L 212.923636 286.778762 
L 213.087273 287.468194 
L 213.250909 287.385698 
L 213.414545 287.509442 
L 213.578182 287.432839 
L 213.741818 288.122271 
L 214.069091 287.880675 
L 214.232727 288.116379 
L 214.396364 288.139949 
L 214.56 287.668542 
L 214.723636 287.727468 
L 214.887273 287.639079 
L 215.050909 287.70979 
L 215.378182 287.043928 
L 215.705455 287.285524 
L 216.850909 286.24843 
L 217.178182 286.543059 
L 217.341818 286.366281 
L 217.505455 286.472348 
L 217.669091 285.706312 
L 217.832727 285.74756 
L 218.487273 286.378066 
L 218.650909 286.383959 
L 219.141818 286.006834 
L 219.305455 286.342711 
L 219.632727 287.362128 
L 219.796364 287.197136 
L 220.123636 287.768716 
L 220.287273 287.745146 
L 220.450909 287.580153 
L 220.614545 288.257801 
L 220.778182 288.022097 
L 220.941818 288.022097 
L 221.105455 287.550691 
L 221.269091 287.668542 
L 221.432727 286.825903 
L 221.596364 286.890721 
L 222.087273 286.407529 
L 222.250909 287.020358 
L 222.578182 286.525381 
L 222.741818 285.912552 
L 222.905455 286.967325 
L 223.069091 286.990895 
L 223.396364 286.684481 
L 223.723636 286.702159 
L 223.887273 286.024512 
L 224.214545 285.777023 
L 224.541818 286.277893 
L 224.705455 286.289678 
L 224.869091 286.507703 
L 225.032727 286.507703 
L 225.196364 286.372174 
L 225.523636 287.267847 
L 225.687273 287.061606 
L 225.850909 287.474087 
L 226.178182 286.625555 
L 226.505455 286.631448 
L 226.832727 285.953801 
L 227.16 285.388113 
L 227.323636 285.370435 
L 227.487273 285.146517 
L 227.650909 284.686895 
L 227.814545 284.816532 
L 228.141818 284.557258 
L 228.305455 284.663325 
L 228.632727 284.362803 
L 228.796364 284.262629 
L 228.96 284.297985 
L 229.123636 284.563151 
L 229.287273 284.109422 
L 229.450909 284.168348 
L 229.778182 283.744082 
L 229.941818 283.797115 
L 230.432727 283.190179 
L 230.596364 283.508379 
L 230.923636 283.57909 
L 231.087273 284.109422 
L 231.250909 284.168348 
L 232.232727 283.649801 
L 232.56 283.885504 
L 232.723636 284.250844 
L 232.887273 284.993309 
L 233.050909 285.158302 
L 233.214545 285.547212 
L 233.378182 285.647386 
L 233.541818 285.299724 
L 233.705455 285.488286 
L 234.032727 285.606138 
L 234.196364 286.095223 
L 234.36 285.676849 
L 234.523636 286.213074 
L 235.014545 286.342711 
L 235.341818 286.389852 
L 235.669091 286.896614 
L 235.996364 286.124685 
L 236.487273 286.260215 
L 236.650909 285.894875 
L 236.814545 286.230752 
L 237.469091 286.030404 
L 237.632727 286.625555 
L 237.796364 286.419315 
L 237.96 287.250169 
L 238.123636 287.179458 
L 238.614545 287.409269 
L 238.778182 287.438731 
L 238.941818 287.768716 
L 239.105455 287.491765 
L 239.269091 287.898353 
L 239.596364 287.397483 
L 239.923636 287.910138 
L 240.087273 287.745146 
L 240.414545 288.487611 
L 240.578182 288.204767 
L 240.741818 288.434578 
L 240.905455 288.022097 
L 241.232727 288.440471 
L 242.378182 287.038036 
L 242.541818 287.13821 
L 242.705455 287.432839 
L 243.032727 287.155887 
L 243.36 287.969064 
L 243.523636 287.780501 
L 243.687273 288.045668 
L 244.014545 287.52712 
L 244.178182 287.880675 
L 244.996364 286.472348 
L 245.16 285.777023 
L 245.323636 285.877197 
L 245.487273 285.741668 
L 245.650909 285.411683 
L 245.814545 285.352757 
L 246.305455 286.148256 
L 246.469091 286.006834 
L 246.796364 286.560737 
L 247.450909 286.436992 
L 247.614545 286.737514 
L 247.778182 286.230752 
L 248.269091 287.403376 
L 248.76 287.409269 
L 248.923636 286.890721 
L 249.087273 287.108747 
L 249.578182 286.766977 
L 249.741818 286.389852 
L 250.069091 286.625555 
L 250.56 286.224859 
L 251.214545 286.743407 
L 251.541818 286.130578 
L 251.705455 286.4311 
L 252.196364 285.535427 
L 252.36 285.553105 
L 252.687273 286.077545 
L 252.850909 285.947908 
L 253.178182 286.360389 
L 253.341818 286.224859 
L 253.505455 286.401637 
L 253.669091 286.083437 
L 253.832727 286.224859 
L 253.996364 286.077545 
L 254.323636 286.378066 
L 254.650909 285.394005 
L 254.814545 285.800593 
L 254.978182 285.458824 
L 255.305455 285.246691 
L 255.469091 284.952061 
L 255.632727 285.90666 
L 255.796364 285.847734 
L 256.123636 286.042189 
L 256.287273 285.800593 
L 256.450909 285.264368 
L 256.614545 285.240798 
L 256.778182 285.052235 
L 256.941818 285.918445 
L 257.76 286.283785 
L 258.250909 287.409269 
L 258.414545 287.491765 
L 258.905455 287.167673 
L 259.069091 287.314987 
L 259.232727 287.220706 
L 259.723636 288.281371 
L 259.887273 288.045668 
L 260.214545 288.328512 
L 260.378182 288.411008 
L 260.541818 289.053299 
L 261.032727 288.96491 
L 261.196364 289.118118 
L 261.687273 290.284849 
L 262.014545 290.184675 
L 262.341818 290.815182 
L 262.505455 290.921248 
L 262.669091 290.815182 
L 262.832727 290.891785 
L 263.16 290.585371 
L 263.323636 289.913616 
L 263.487273 289.943079 
L 264.796364 286.943754 
L 264.96 287.303202 
L 265.287273 287.067499 
L 265.450909 287.733361 
L 265.941818 286.97911 
L 266.269091 287.609616 
L 266.76 286.920184 
L 266.923636 287.297309 
L 267.087273 287.067499 
L 267.250909 287.085176 
L 267.578182 286.672696 
L 268.069091 287.668542 
L 268.396364 287.014465 
L 268.723636 287.533013 
L 269.050909 287.621402 
L 269.214545 287.650864 
L 269.378182 288.039775 
L 269.541818 287.833535 
L 269.705455 288.05156 
L 270.032727 287.674435 
L 270.36 288.057453 
L 270.523636 288.02799 
L 270.687273 288.157627 
L 270.850909 288.033882 
L 271.178182 288.664389 
L 271.505455 288.970803 
L 271.669091 289.377391 
L 271.832727 289.330251 
L 271.996364 289.760409 
L 272.16 289.30668 
L 272.323636 289.677913 
L 272.487273 289.772194 
L 272.650909 289.701483 
L 273.141818 290.67376 
L 273.469091 289.707376 
L 273.632727 289.742731 
L 273.796364 289.459887 
L 273.96 289.453995 
L 275.105455 287.52712 
L 275.432727 288.081023 
L 275.596364 287.927816 
L 275.76 288.222445 
L 275.923636 287.927816 
L 276.087273 288.216552 
L 276.250909 287.974957 
L 276.741818 288.911877 
L 276.905455 288.776348 
L 277.069091 288.988481 
L 277.232727 288.811703 
L 277.396364 289.106332 
L 277.56 289.813442 
L 277.723636 289.837013 
L 277.887273 290.225923 
L 278.050909 290.261279 
L 278.214545 290.915355 
L 278.541818 290.67376 
L 278.705455 290.314312 
L 278.869091 290.432164 
L 279.196364 290.225923 
L 279.687273 290.255386 
L 279.850909 290.950711 
L 280.341818 291.422118 
L 280.669091 291.457473 
L 280.832727 292.017269 
L 280.996364 292.099765 
L 281.487273 293.237033 
L 281.814545 293.508092 
L 281.978182 293.237033 
L 282.141818 293.655407 
L 282.305455 293.413811 
L 282.469091 293.472737 
L 282.632727 293.407918 
L 282.796364 292.765627 
L 282.96 293.142752 
L 283.450909 292.724379 
L 283.778182 293.184 
L 284.105455 293.060256 
L 284.269091 292.376716 
L 284.596364 292.199939 
L 284.923636 293.254711 
L 285.087273 292.653668 
L 285.250909 292.612419 
L 285.414545 292.412072 
L 285.578182 292.465105 
L 285.741818 292.353146 
L 286.232727 291.675499 
L 286.396364 292.011376 
L 286.887273 291.475151 
L 287.050909 291.752102 
L 287.214545 291.616573 
L 287.705455 292.029054 
L 287.869091 291.858169 
L 288.032727 291.852276 
L 288.36 291.622465 
L 288.523636 291.616573 
L 288.687273 291.92888 
L 288.850909 291.657821 
L 289.014545 291.168737 
L 289.341818 291.363192 
L 289.669091 290.544123 
L 289.832727 291.021422 
L 289.996364 290.685545 
L 290.16 290.679652 
L 290.323636 290.815182 
L 290.487273 290.7209 
L 290.978182 291.321944 
L 291.141818 291.174629 
L 292.123636 293.737903 
L 292.287273 293.631836 
L 292.450909 293.3431 
L 292.614545 292.459212 
L 292.778182 292.541708 
L 292.941818 292.129228 
L 293.105455 292.229402 
L 293.269091 292.082087 
L 293.432727 292.199939 
L 293.596364 291.481043 
L 293.923636 292.170476 
L 294.087273 292.123335 
L 294.414545 291.42801 
L 294.578182 291.539969 
L 294.741818 290.874107 
L 295.069091 291.539969 
L 295.232727 291.787458 
L 295.56 290.933033 
L 295.887273 291.074455 
L 296.050909 291.38087 
L 296.378182 291.528184 
L 296.541818 291.598895 
L 297.032727 292.276542 
L 297.523636 291.716747 
L 297.687273 291.940665 
L 297.850909 291.834598 
L 298.178182 291.168737 
L 298.341818 291.209985 
L 298.505455 291.433903 
L 298.669091 290.980174 
L 298.996364 291.569432 
L 299.16 291.687284 
L 299.323636 291.61068 
L 299.487273 291.0391 
L 299.814545 292.288327 
L 299.978182 292.447427 
L 300.305455 292.023161 
L 300.469091 292.45332 
L 300.796364 292.600634 
L 301.123636 293.219355 
L 301.287273 293.166322 
L 301.450909 293.284174 
L 301.614545 293.637729 
L 301.778182 293.54934 
L 301.941818 293.761473 
L 302.105455 293.720225 
L 302.269091 294.144491 
L 302.432727 294.038425 
L 302.596364 294.132706 
L 302.76 294.604113 
L 302.923636 294.698394 
L 303.250909 295.482107 
L 303.414545 295.299437 
L 303.578182 295.488 
L 303.741818 294.828031 
L 303.905455 294.892849 
L 304.069091 294.374302 
L 304.723636 294.668931 
L 305.050909 294.39198 
L 305.214545 294.397872 
L 305.378182 294.162169 
L 305.705455 294.704286 
L 306.36 293.466844 
L 306.687273 293.737903 
L 307.014545 292.965974 
L 307.178182 292.724379 
L 307.341818 292.907049 
L 307.505455 292.706701 
L 307.669091 293.166322 
L 307.996364 292.040839 
L 308.16 292.040839 
L 308.323636 291.76978 
L 308.487273 291.893524 
L 308.650909 291.622465 
L 308.978182 291.699069 
L 309.305455 292.512246 
L 309.469091 292.406179 
L 309.796364 292.029054 
L 309.96 291.79335 
L 310.123636 292.176368 
L 310.287273 291.40444 
L 310.450909 291.457473 
L 310.614545 291.027315 
L 310.941818 291.775673 
L 311.105455 291.699069 
L 311.269091 292.394394 
L 311.596364 291.274803 
L 311.76 291.015529 
L 312.087273 292.08798 
L 312.250909 291.958343 
L 312.578182 291.628358 
L 312.741818 291.616573 
L 313.232727 290.838752 
L 313.56 291.204092 
L 313.723636 291.675499 
L 313.887273 291.669606 
L 314.050909 292.093872 
L 314.214545 291.887632 
L 314.378182 291.905309 
L 314.541818 291.675499 
L 314.705455 291.964235 
L 314.869091 291.58711 
L 315.196364 291.392655 
L 315.36 291.881739 
L 315.687273 290.308419 
L 316.178182 291.451581 
L 316.341818 291.545862 
L 316.669091 291.463366 
L 316.996364 290.962496 
L 317.323636 291.439795 
L 317.978182 289.418639 
L 318.141818 289.507028 
L 318.469091 289.890046 
L 318.796364 289.106332 
L 318.96 289.200614 
L 319.123636 288.959018 
L 319.450909 287.639079 
L 319.941818 286.837688 
L 320.105455 286.766977 
L 320.269091 287.203028 
L 320.432727 287.096962 
L 320.596364 287.356235 
L 320.76 287.179458 
L 320.923636 287.191243 
L 321.250909 286.867151 
L 321.414545 287.609616 
L 321.741818 287.68622 
L 322.069091 288.175304 
L 322.396364 288.169412 
L 322.887273 289.713269 
L 323.214545 289.754517 
L 323.378182 290.526445 
L 323.541818 290.69733 
L 323.869091 290.119857 
L 324.032727 290.467519 
L 324.196364 289.878261 
L 324.523636 290.69733 
L 324.687273 290.51466 
L 324.850909 289.913616 
L 325.014545 289.778087 
L 325.178182 289.483458 
L 325.505455 289.683806 
L 325.669091 289.978435 
L 325.832727 289.754517 
L 325.996364 290.078609 
L 326.16 290.113964 
L 326.323636 289.825228 
L 326.487273 289.925402 
L 326.650909 289.813442 
L 326.814545 290.225923 
L 326.978182 289.789872 
L 327.305455 290.438056 
L 327.796364 289.536491 
L 327.96 289.62488 
L 328.287273 290.414486 
L 328.614545 289.560061 
L 328.941818 289.577739 
L 329.269091 289.271325 
L 329.596364 287.945494 
L 329.76 288.487611 
L 329.923636 288.175304 
L 330.087273 288.145841 
L 330.414545 287.597831 
L 330.741818 287.426946 
L 330.905455 286.890721 
L 331.069091 286.961432 
L 331.232727 286.230752 
L 331.56 286.672696 
L 331.723636 286.148256 
L 331.887273 285.17598 
L 332.214545 286.383959 
L 332.378182 286.849473 
L 332.869091 286.29557 
L 333.36 287.18535 
L 333.523636 286.961432 
L 333.687273 287.173565 
L 333.850909 287.096962 
L 334.014545 287.385698 
L 334.178182 287.927816 
L 334.341818 288.882414 
L 334.505455 288.794026 
L 334.669091 289.017944 
L 334.832727 288.817596 
L 334.996364 288.23423 
L 335.16 288.257801 
L 335.323636 288.399223 
L 335.650909 288.134056 
L 335.814545 288.817596 
L 336.141818 289.141688 
L 336.305455 289.10044 
L 336.469091 289.353821 
L 337.123636 288.593678 
L 337.287273 288.493504 
L 337.778182 289.047407 
L 337.941818 288.475826 
L 338.105455 288.593678 
L 338.269091 288.116379 
L 338.596364 288.587785 
L 338.76 288.063345 
L 339.087273 287.89246 
L 339.414545 287.303202 
L 339.578182 287.203028 
L 339.905455 286.584307 
L 340.232727 287.291417 
L 340.396364 286.802332 
L 340.56 286.802332 
L 340.723636 286.967325 
L 340.887273 286.596092 
L 341.050909 285.818271 
L 341.378182 286.095223 
L 341.541818 285.918445 
L 341.705455 286.165934 
L 342.032727 286.059867 
L 342.196364 285.340972 
L 342.36 285.718097 
L 342.687273 285.58846 
L 342.850909 285.535427 
L 343.178182 285.04045 
L 343.341818 285.140624 
L 343.505455 285.629708 
L 343.669091 285.134731 
L 343.996364 285.287939 
L 344.16 285.735775 
L 344.323636 285.394005 
L 344.487273 285.706312 
L 344.814545 284.716358 
L 345.141818 285.217228 
L 345.796364 285.824164 
L 346.123636 287.47998 
L 346.450909 286.990895 
L 346.614545 286.878936 
L 346.941818 287.426946 
L 347.269091 286.808225 
L 347.76 288.293156 
L 347.923636 288.010312 
L 348.087273 287.47998 
L 348.414545 289.035621 
L 348.578182 288.923662 
L 348.741818 289.271325 
L 349.232727 288.481719 
L 349.396364 288.646711 
L 349.56 288.452256 
L 349.723636 287.491765 
L 350.050909 288.304941 
L 350.214545 288.139949 
L 350.378182 288.216552 
L 350.869091 287.739253 
L 351.032727 287.362128 
L 351.196364 286.590199 
L 351.36 286.63734 
L 351.523636 287.32088 
L 351.687273 287.485872 
L 352.014545 286.578414 
L 352.178182 286.719836 
L 352.341818 286.590199 
L 352.505455 286.655018 
L 352.669091 286.519488 
L 352.832727 286.66091 
L 353.16 286.425207 
L 353.487273 286.808225 
L 353.650909 286.625555 
L 353.814545 286.737514 
L 353.978182 286.030404 
L 354.305455 285.800593 
L 354.469091 285.853627 
L 354.632727 285.523642 
L 354.796364 285.900767 
L 354.96 285.971478 
L 355.123636 285.835949 
L 355.450909 286.590199 
L 355.614545 286.47824 
L 356.105455 287.862997 
L 356.432727 288.145841 
L 356.596364 287.821749 
L 356.76 287.780501 
L 356.923636 288.487611 
L 357.087273 288.163519 
L 357.250909 288.458148 
L 357.414545 288.287263 
L 357.578182 288.581893 
L 357.741818 288.316726 
L 357.905455 288.617248 
L 358.069091 288.617248 
L 358.396364 288.440471 
L 358.56 288.39333 
L 358.723636 288.617248 
L 359.050909 288.240123 
L 359.214545 288.269586 
L 359.378182 288.481719 
L 359.705455 289.182936 
L 359.869091 289.07687 
L 360.032727 288.387437 
L 360.196364 288.658496 
L 360.36 288.522967 
L 360.523636 288.617248 
L 360.687273 288.110486 
L 361.014545 288.163519 
L 361.505455 289.012051 
L 362.16 288.05156 
L 362.323636 287.851212 
L 362.487273 287.474087 
L 362.650909 286.366281 
L 362.814545 286.118793 
L 362.978182 285.494179 
L 363.632727 284.916706 
L 363.796364 285.505964 
L 364.123636 285.005095 
L 364.614545 285.505964 
L 364.941818 285.028665 
L 365.105455 285.04045 
L 365.432727 284.079959 
L 365.596364 284.339233 
L 365.76 284.091744 
L 366.087273 284.138885 
L 366.250909 284.922598 
L 366.414545 284.686895 
L 366.905455 283.573197 
L 367.069091 283.543734 
L 367.232727 283.025187 
L 367.396364 282.966261 
L 367.56 283.125361 
L 367.723636 283.632123 
L 367.887273 283.319816 
L 368.214545 283.543734 
L 368.541818 284.67511 
L 368.869091 284.462977 
L 369.032727 284.451192 
L 369.196364 284.751714 
L 369.36 284.49244 
L 369.687273 284.845995 
L 369.850909 284.533688 
L 370.014545 283.938537 
L 370.178182 283.844256 
L 370.341818 283.520164 
L 370.505455 283.856041 
L 370.832727 283.361064 
L 370.996364 283.402312 
L 371.16 283.614445 
L 371.323636 283.484808 
L 371.650909 282.076481 
L 371.814545 281.764174 
L 371.978182 281.764174 
L 372.141818 282.011662 
L 372.632727 280.662261 
L 372.796364 280.674046 
L 373.123636 280.143714 
L 373.287273 280.261565 
L 373.614545 279.70177 
L 373.778182 279.489637 
L 374.269091 280.338169 
L 374.432727 280.27335 
L 374.596364 280.697616 
L 374.76 280.727079 
L 375.087273 280.314598 
L 375.250909 280.656368 
L 375.414545 279.666414 
L 375.905455 279.195008 
L 376.069091 279.289289 
L 376.232727 279.613381 
L 376.56 279.377678 
L 376.723636 279.283396 
L 376.887273 279.395355 
L 377.214545 279.024123 
L 377.378182 279.248041 
L 377.541818 279.253934 
L 377.869091 279.507315 
L 378.032727 279.295182 
L 378.36 279.342322 
L 378.687273 278.965197 
L 378.850909 279.330537 
L 379.014545 279.418926 
L 379.178182 280.621013 
L 379.341818 280.338169 
L 379.669091 281.923274 
L 379.832727 281.793637 
L 380.16 282.094159 
L 380.487273 280.850824 
L 381.141818 281.16313 
L 381.305455 281.074742 
L 381.469091 281.48133 
L 381.632727 281.233841 
L 381.96 282.16487 
L 382.123636 282.123621 
L 382.450909 282.689309 
L 382.614545 282.524317 
L 382.778182 282.612706 
L 382.941818 282.023448 
L 383.269091 282.677524 
L 383.923636 283.867826 
L 384.087273 283.962107 
L 384.250909 283.573197 
L 384.414545 284.032818 
L 384.741818 283.249105 
L 385.069091 283.308031 
L 385.232727 283.897289 
L 385.396364 283.366957 
L 385.723636 283.814793 
L 386.214545 283.243212 
L 386.378182 283.378742 
L 387.032727 285.022772 
L 387.36 285.965586 
L 387.850909 285.594353 
L 388.014545 285.847734 
L 388.341818 286.737514 
L 388.669091 286.607877 
L 388.832727 286.902506 
L 388.996364 286.82001 
L 389.16 287.226598 
L 389.487273 287.314987 
L 389.650909 287.650864 
L 389.814545 287.291417 
L 389.978182 287.485872 
L 390.305455 287.34445 
L 390.469091 287.043928 
L 390.796364 287.639079 
L 391.287273 287.108747 
L 391.614545 287.721575 
L 391.778182 287.762824 
L 392.105455 288.894199 
L 392.432727 289.312573 
L 392.76 288.723315 
L 392.923636 288.646711 
L 393.250909 289.389176 
L 393.414545 289.224184 
L 393.741818 289.842905 
L 394.069091 289.701483 
L 394.232727 289.907724 
L 394.56 288.858844 
L 394.723636 288.746885 
L 394.887273 288.953125 
L 395.214545 289.907724 
L 395.378182 289.654343 
L 395.541818 289.895939 
L 395.705455 289.424532 
L 395.869091 289.62488 
L 396.032727 289.595417 
L 396.36 288.057453 
L 396.523636 287.627294 
L 396.687273 287.70979 
L 396.850909 287.974957 
L 397.014545 288.670281 
L 397.178182 288.157627 
L 397.341818 288.098701 
L 397.669091 287.556583 
L 398.16 287.108747 
L 398.323636 287.362128 
L 398.487273 287.144102 
L 398.487273 287.144102 
" clip-path="url(#p73736c613c)" style="fill: none; stroke: #1f77b4; stroke-width: 1.5; stroke-linecap: square"/>
   </g>
   <g id="patch_3">
    <path d="M 57.6 307.584 
L 57.6 41.472 
" style="fill: none; stroke: #000000; stroke-width: 0.8; stroke-linejoin: miter; stroke-linecap: square"/>
   </g>
   <g id="patch_4">
    <path d="M 414.72 307.584 
L 414.72 41.472 
" style="fill: none; stroke: #000000; stroke-width: 0.8; stroke-linejoin: miter; stroke-linecap: square"/>
   </g>
   <g id="patch_5">
    <path d="M 57.6 307.584 
L 414.72 307.584 
" style="fill: none; stroke: #000000; stroke-width: 0.8; stroke-linejoin: miter; stroke-linecap: square"/>
   </g>
   <g id="patch_6">
    <path d="M 57.6 41.472 
L 414.72 41.472 
" style="fill: none; stroke: #000000; stroke-width: 0.8; stroke-linejoin: miter; stroke-linecap: square"/>
   </g>
   <g id="text_21">
    <!-- Rolling average training progress of customer/buy_nothing -->
    <g transform="translate(59.611875 35.472)scale(0.12 -0.12)">
     <defs>
      <path id="DejaVuSans-52" d="M 2841 2188 
Q 3044 2119 3236 1894 
Q 3428 1669 3622 1275 
L 4263 0 
L 3584 0 
L 2988 1197 
Q 2756 1666 2539 1819 
Q 2322 1972 1947 1972 
L 1259 1972 
L 1259 0 
L 628 0 
L 628 4666 
L 2053 4666 
Q 2853 4666 3247 4331 
Q 3641 3997 3641 3322 
Q 3641 2881 3436 2590 
Q 3231 2300 2841 2188 
z
M 1259 4147 
L 1259 2491 
L 2053 2491 
Q 2509 2491 2742 2702 
Q 2975 2913 2975 3322 
Q 2975 3731 2742 3939 
Q 2509 4147 2053 4147 
L 1259 4147 
z
" transform="scale(0.015625)"/>
      <path id="DejaVuSans-6c" d="M 603 4863 
L 1178 4863 
L 1178 0 
L 603 0 
L 603 4863 
z
" transform="scale(0.015625)"/>
      <path id="DejaVuSans-20" transform="scale(0.015625)"/>
      <path id="DejaVuSans-61" d="M 2194 1759 
Q 1497 1759 1228 1600 
Q 959 1441 959 1056 
Q 959 750 1161 570 
Q 1363 391 1709 391 
Q 2188 391 2477 730 
Q 2766 1069 2766 1631 
L 2766 1759 
L 2194 1759 
z
M 3341 1997 
L 3341 0 
L 2766 0 
L 2766 531 
Q 2569 213 2275 61 
Q 1981 -91 1556 -91 
Q 1019 -91 701 211 
Q 384 513 384 1019 
Q 384 1609 779 1909 
Q 1175 2209 1959 2209 
L 2766 2209 
L 2766 2266 
Q 2766 2663 2505 2880 
Q 2244 3097 1772 3097 
Q 1472 3097 1187 3025 
Q 903 2953 641 2809 
L 641 3341 
Q 956 3463 1253 3523 
Q 1550 3584 1831 3584 
Q 2591 3584 2966 3190 
Q 3341 2797 3341 1997 
z
" transform="scale(0.015625)"/>
      <path id="DejaVuSans-76" d="M 191 3500 
L 800 3500 
L 1894 563 
L 2988 3500 
L 3597 3500 
L 2284 0 
L 1503 0 
L 191 3500 
z
" transform="scale(0.015625)"/>
      <path id="DejaVuSans-66" d="M 2375 4863 
L 2375 4384 
L 1825 4384 
Q 1516 4384 1395 4259 
Q 1275 4134 1275 3809 
L 1275 3500 
L 2222 3500 
L 2222 3053 
L 1275 3053 
L 1275 0 
L 697 0 
L 697 3053 
L 147 3053 
L 147 3500 
L 697 3500 
L 697 3744 
Q 697 4328 969 4595 
Q 1241 4863 1831 4863 
L 2375 4863 
z
" transform="scale(0.015625)"/>
     </defs>
     <use xlink:href="#DejaVuSans-52"/>
     <use xlink:href="#DejaVuSans-6f" x="64.982422"/>
     <use xlink:href="#DejaVuSans-6c" x="126.164062"/>
     <use xlink:href="#DejaVuSans-6c" x="153.947266"/>
     <use xlink:href="#DejaVuSans-69" x="181.730469"/>
     <use xlink:href="#DejaVuSans-6e" x="209.513672"/>
     <use xlink:href="#DejaVuSans-67" x="272.892578"/>
     <use xlink:href="#DejaVuSans-20" x="336.369141"/>
     <use xlink:href="#DejaVuSans-61" x="368.15625"/>
     <use xlink:href="#DejaVuSans-76" x="429.435547"/>
     <use xlink:href="#DejaVuSans-65" x="488.615234"/>
     <use xlink:href="#DejaVuSans-72" x="550.138672"/>
     <use xlink:href="#DejaVuSans-61" x="591.251953"/>
     <use xlink:href="#DejaVuSans-67" x="652.53125"/>
     <use xlink:href="#DejaVuSans-65" x="716.007812"/>
     <use xlink:href="#DejaVuSans-20" x="777.53125"/>
     <use xlink:href="#DejaVuSans-74" x="809.318359"/>
     <use xlink:href="#DejaVuSans-72" x="848.527344"/>
     <use xlink:href="#DejaVuSans-61" x="889.640625"/>
     <use xlink:href="#DejaVuSans-69" x="950.919922"/>
     <use xlink:href="#DejaVuSans-6e" x="978.703125"/>
     <use xlink:href="#DejaVuSans-69" x="1042.082031"/>
     <use xlink:href="#DejaVuSans-6e" x="1069.865234"/>
     <use xlink:href="#DejaVuSans-67" x="1133.244141"/>
     <use xlink:href="#DejaVuSans-20" x="1196.720703"/>
     <use xlink:href="#DejaVuSans-70" x="1228.507812"/>
     <use xlink:href="#DejaVuSans-72" x="1291.984375"/>
     <use xlink:href="#DejaVuSans-6f" x="1330.847656"/>
     <use xlink:href="#DejaVuSans-67" x="1392.029297"/>
     <use xlink:href="#DejaVuSans-72" x="1455.505859"/>
     <use xlink:href="#DejaVuSans-65" x="1494.369141"/>
     <use xlink:href="#DejaVuSans-73" x="1555.892578"/>
     <use xlink:href="#DejaVuSans-73" x="1607.992188"/>
     <use xlink:href="#DejaVuSans-20" x="1660.091797"/>
     <use xlink:href="#DejaVuSans-6f" x="1691.878906"/>
     <use xlink:href="#DejaVuSans-66" x="1753.060547"/>
     <use xlink:href="#DejaVuSans-20" x="1788.265625"/>
     <use xlink:href="#DejaVuSans-63" x="1820.052734"/>
     <use xlink:href="#DejaVuSans-75" x="1875.033203"/>
     <use xlink:href="#DejaVuSans-73" x="1938.412109"/>
     <use xlink:href="#DejaVuSans-74" x="1990.511719"/>
     <use xlink:href="#DejaVuSans-6f" x="2029.720703"/>
     <use xlink:href="#DejaVuSans-6d" x="2090.902344"/>
     <use xlink:href="#DejaVuSans-65" x="2188.314453"/>
     <use xlink:href="#DejaVuSans-72" x="2249.837891"/>
     <use xlink:href="#DejaVuSans-2f" x="2290.951172"/>
     <use xlink:href="#DejaVuSans-62" x="2324.642578"/>
     <use xlink:href="#DejaVuSans-75" x="2388.119141"/>
     <use xlink:href="#DejaVuSans-79" x="2451.498047"/>
     <use xlink:href="#DejaVuSans-5f" x="2510.677734"/>
     <use xlink:href="#DejaVuSans-6e" x="2560.677734"/>
     <use xlink:href="#DejaVuSans-6f" x="2624.056641"/>
     <use xlink:href="#DejaVuSans-74" x="2685.238281"/>
     <use xlink:href="#DejaVuSans-68" x="2724.447266"/>
     <use xlink:href="#DejaVuSans-69" x="2787.826172"/>
     <use xlink:href="#DejaVuSans-6e" x="2815.609375"/>
     <use xlink:href="#DejaVuSans-67" x="2878.988281"/>
    </g>
   </g>
  </g>
 </g>
 <defs>
  <clipPath id="p73736c613c">
   <rect x="57.6" y="41.472" width="357.12" height="266.112"/>
  </clipPath>
 </defs>
</svg>
