<?xml version="1.0" encoding="utf-8" standalone="no"?>
<!DOCTYPE svg PUBLIC "-//W3C//DTD SVG 1.1//EN"
  "http://www.w3.org/Graphics/SVG/1.1/DTD/svg11.dtd">
<svg xmlns:xlink="http://www.w3.org/1999/xlink" width="460.8pt" height="345.6pt" viewBox="0 0 460.8 345.6" xmlns="http://www.w3.org/2000/svg" version="1.1">
 <metadata>
  <rdf:RDF xmlns:dc="http://purl.org/dc/elements/1.1/" xmlns:cc="http://creativecommons.org/ns#" xmlns:rdf="http://www.w3.org/1999/02/22-rdf-syntax-ns#">
   <cc:Work>
    <dc:type rdf:resource="http://purl.org/dc/dcmitype/StillImage"/>
    <dc:date>2022-06-15T18:26:50.057034</dc:date>
    <dc:format>image/svg+xml</dc:format>
    <dc:creator>
     <cc:Agent>
      <dc:title>Matplotlib v3.5.2, https://matplotlib.org/</dc:title>
     </cc:Agent>
    </dc:creator>
   </cc:Work>
  </rdf:RDF>
 </metadata>
 <defs>
  <style type="text/css">*{stroke-linejoin: round; stroke-linecap: butt}</style>
 </defs>
 <g id="figure_1">
  <g id="patch_1">
   <path d="M 0 345.6 
L 460.8 345.6 
L 460.8 0 
L 0 0 
z
" style="fill: #ffffff"/>
  </g>
  <g id="axes_1">
   <g id="patch_2">
    <path d="M 57.6 307.584 
L 414.72 307.584 
L 414.72 41.472 
L 57.6 41.472 
z
" style="fill: #ffffff"/>
   </g>
   <g id="PolyCollection_1">
    <path d="M 112.346088 216.576726 
L 110.278087 216.576726 
L 110.171162 215.24346 
L 110.065108 213.910194 
L 109.959957 212.576928 
L 109.855239 211.243662 
L 109.750069 209.910396 
L 109.643278 208.57713 
L 109.533559 207.243864 
L 109.419617 205.910598 
L 109.300302 204.577332 
L 109.174719 203.244066 
L 109.042314 201.910799 
L 108.902932 200.577533 
L 108.756851 199.244267 
L 108.604788 197.911001 
L 108.447869 196.577735 
L 108.28754 195.244469 
L 108.125425 193.911203 
L 107.963102 192.577937 
L 107.801826 191.244671 
L 107.64222 189.911405 
L 107.483967 188.578139 
L 107.325581 187.244873 
L 107.164283 185.911607 
L 106.996041 184.57834 
L 106.815765 183.245074 
L 106.617639 181.911808 
L 106.395534 180.578542 
L 106.143407 179.245276 
L 105.855643 177.91201 
L 105.52727 176.578744 
L 105.154054 175.245478 
L 104.732524 173.912212 
L 104.259981 172.578946 
L 103.734589 171.24568 
L 103.155591 169.912414 
L 102.523667 168.579148 
L 101.841357 167.245881 
L 101.113466 165.912615 
L 100.347296 164.579349 
L 99.552611 163.246083 
L 98.741264 161.912817 
L 97.926513 160.579551 
L 97.122135 159.246285 
L 96.341471 157.913019 
L 95.596587 156.579753 
L 94.897655 155.246487 
L 94.252619 153.913221 
L 93.667079 152.579955 
L 93.144315 151.246689 
L 92.685273 149.913422 
L 92.288417 148.580156 
L 91.949382 147.24689 
L 91.660491 145.913624 
L 91.410256 144.580358 
L 91.183097 143.247092 
L 90.959468 141.913826 
L 90.716551 140.58056 
L 90.429585 139.247294 
L 90.073726 137.914028 
L 89.626267 136.580762 
L 89.068891 135.247496 
L 88.389658 133.91423 
L 87.584419 132.580963 
L 86.657445 131.247697 
L 85.62121 129.914431 
L 84.495368 128.581165 
L 83.305113 127.247899 
L 82.0792 125.914633 
L 80.847919 124.581367 
L 79.641313 123.248101 
L 78.487858 121.914835 
L 77.413705 120.581569 
L 76.442498 119.248303 
L 75.595647 117.915037 
L 74.892885 116.58177 
L 74.352872 115.248504 
L 73.993645 113.915238 
L 73.832727 112.581972 
L 73.886814 111.248706 
L 74.170996 109.91544 
L 74.697613 108.582174 
L 75.474843 107.248908 
L 76.505238 105.915642 
L 77.784389 104.582376 
L 79.299939 103.24911 
L 81.031099 101.915844 
L 82.948811 100.582578 
L 85.0166 99.249311 
L 87.192095 97.916045 
L 89.429118 96.582779 
L 91.680138 95.249513 
L 93.898889 93.916247 
L 96.042849 92.582981 
L 98.075365 91.249715 
L 99.967204 89.916449 
L 101.697419 88.583183 
L 103.253497 87.249917 
L 104.630846 85.916651 
L 105.831777 84.583385 
L 116.792397 84.583385 
L 116.792397 84.583385 
L 117.993329 85.916651 
L 119.370678 87.249917 
L 120.926755 88.583183 
L 122.656971 89.916449 
L 124.54881 91.249715 
L 126.581325 92.582981 
L 128.725285 93.916247 
L 130.944036 95.249513 
L 133.195057 96.582779 
L 135.432079 97.916045 
L 137.607575 99.249311 
L 139.675364 100.582578 
L 141.593076 101.915844 
L 143.324236 103.24911 
L 144.839785 104.582376 
L 146.118937 105.915642 
L 147.149332 107.248908 
L 147.926562 108.582174 
L 148.453178 109.91544 
L 148.737361 111.248706 
L 148.791447 112.581972 
L 148.63053 113.915238 
L 148.271302 115.248504 
L 147.73129 116.58177 
L 147.028527 117.915037 
L 146.181677 119.248303 
L 145.210469 120.581569 
L 144.136316 121.914835 
L 142.982861 123.248101 
L 141.776256 124.581367 
L 140.544975 125.914633 
L 139.319061 127.247899 
L 138.128807 128.581165 
L 137.002964 129.914431 
L 135.96673 131.247697 
L 135.039756 132.580963 
L 134.234516 133.91423 
L 133.555284 135.247496 
L 132.997908 136.580762 
L 132.550449 137.914028 
L 132.19459 139.247294 
L 131.907623 140.58056 
L 131.664707 141.913826 
L 131.441078 143.247092 
L 131.213919 144.580358 
L 130.963684 145.913624 
L 130.674792 147.24689 
L 130.335758 148.580156 
L 129.938902 149.913422 
L 129.47986 151.246689 
L 128.957096 152.579955 
L 128.371556 153.913221 
L 127.726519 155.246487 
L 127.027588 156.579753 
L 126.282704 157.913019 
L 125.50204 159.246285 
L 124.697662 160.579551 
L 123.882911 161.912817 
L 123.071563 163.246083 
L 122.276879 164.579349 
L 121.510709 165.912615 
L 120.782818 167.245881 
L 120.100508 168.579148 
L 119.468584 169.912414 
L 118.889586 171.24568 
L 118.364194 172.578946 
L 117.891651 173.912212 
L 117.470121 175.245478 
L 117.096905 176.578744 
L 116.768531 177.91201 
L 116.480767 179.245276 
L 116.228641 180.578542 
L 116.006535 181.911808 
L 115.80841 183.245074 
L 115.628134 184.57834 
L 115.459891 185.911607 
L 115.298594 187.244873 
L 115.140208 188.578139 
L 114.981955 189.911405 
L 114.822348 191.244671 
L 114.661072 192.577937 
L 114.498749 193.911203 
L 114.336634 195.244469 
L 114.176306 196.577735 
L 114.019387 197.911001 
L 113.867324 199.244267 
L 113.721242 200.577533 
L 113.58186 201.910799 
L 113.449456 203.244066 
L 113.323873 204.577332 
L 113.204558 205.910598 
L 113.090616 207.243864 
L 112.980897 208.57713 
L 112.874106 209.910396 
L 112.768936 211.243662 
L 112.664217 212.576928 
L 112.559066 213.910194 
L 112.453013 215.24346 
L 112.346088 216.576726 
z
" clip-path="url(#p09e47ba090)" style="fill: #1f77b4; fill-opacity: 0.3"/>
   </g>
   <g id="PolyCollection_2">
    <path d="M 195.779512 249.015768 
L 193.419597 249.015768 
L 193.263533 247.041548 
L 193.106159 245.067328 
L 192.950334 243.093108 
L 192.798429 241.118888 
L 192.651795 239.144669 
L 192.510206 237.170449 
L 192.371343 235.196229 
L 192.230465 233.222009 
L 192.080365 231.247789 
L 191.911694 229.273569 
L 191.713674 227.299349 
L 191.47511 225.325129 
L 191.185574 223.35091 
L 190.836535 221.37669 
L 190.422222 219.40247 
L 189.940073 217.42825 
L 189.390678 215.45403 
L 188.77727 213.47981 
L 188.10493 211.50559 
L 187.379726 209.53137 
L 186.608017 207.557151 
L 185.796064 205.582931 
L 184.949994 203.608711 
L 184.075992 201.634491 
L 183.180513 199.660271 
L 182.270274 197.686051 
L 181.351841 195.711831 
L 180.430789 193.737611 
L 179.510567 191.763391 
L 178.591395 189.789172 
L 177.669568 187.814952 
L 176.737531 185.840732 
L 175.784933 183.866512 
L 174.800623 181.892292 
L 173.775311 179.918072 
L 172.704385 177.943852 
L 171.590294 175.969632 
L 170.443924 173.995413 
L 169.284571 172.021193 
L 168.138377 170.046973 
L 167.035401 168.072753 
L 166.00576 166.098533 
L 165.075471 164.124313 
L 164.262693 162.150093 
L 163.575 160.175873 
L 163.008145 158.201654 
L 162.546531 156.227434 
L 162.165308 154.253214 
L 161.833777 152.278994 
L 161.519561 150.304774 
L 161.192939 148.330554 
L 160.830729 146.356334 
L 160.419225 144.382114 
L 159.955911 142.407895 
L 159.449848 140.433675 
L 158.92087 138.459455 
L 158.397838 136.485235 
L 157.916292 134.511015 
L 157.5158 132.536795 
L 157.237246 130.562575 
L 157.120194 128.588355 
L 157.20038 126.614136 
L 157.507363 124.639916 
L 158.062357 122.665696 
L 158.876346 120.691476 
L 159.948648 118.717256 
L 161.266147 116.743036 
L 162.803406 114.768816 
L 164.523825 112.794596 
L 166.381823 110.820376 
L 168.325931 108.846157 
L 170.302428 106.871937 
L 172.259116 104.897717 
L 174.148756 102.923497 
L 175.931757 100.949277 
L 177.577875 98.975057 
L 179.066842 97.000837 
L 180.388041 95.026617 
L 181.539495 93.052398 
L 182.526481 91.078178 
L 183.360056 89.103958 
L 184.055719 87.129738 
L 184.632284 85.155518 
L 185.110934 83.181298 
L 185.514362 81.207078 
L 185.865863 79.232858 
L 186.188317 77.258639 
L 186.503033 75.284419 
L 186.828546 73.310199 
L 187.179501 71.335979 
L 187.565783 69.361759 
L 187.99206 67.387539 
L 188.457799 65.413319 
L 188.957783 63.439099 
L 189.483034 61.46488 
L 190.022027 59.49066 
L 190.562004 57.51644 
L 191.090232 55.54222 
L 191.595073 53.568 
L 197.604035 53.568 
L 197.604035 53.568 
L 198.108876 55.54222 
L 198.637105 57.51644 
L 199.177081 59.49066 
L 199.716074 61.46488 
L 200.241325 63.439099 
L 200.741309 65.413319 
L 201.207048 67.387539 
L 201.633326 69.361759 
L 202.019608 71.335979 
L 202.370562 73.310199 
L 202.696075 75.284419 
L 203.010792 77.258639 
L 203.333246 79.232858 
L 203.684747 81.207078 
L 204.088174 83.181298 
L 204.566825 85.155518 
L 205.143389 87.129738 
L 205.839052 89.103958 
L 206.672627 91.078178 
L 207.659613 93.052398 
L 208.811068 95.026617 
L 210.132266 97.000837 
L 211.621233 98.975057 
L 213.267352 100.949277 
L 215.050353 102.923497 
L 216.939992 104.897717 
L 218.89668 106.871937 
L 220.873177 108.846157 
L 222.817285 110.820376 
L 224.675284 112.794596 
L 226.395702 114.768816 
L 227.932962 116.743036 
L 229.25046 118.717256 
L 230.322763 120.691476 
L 231.136752 122.665696 
L 231.691745 124.639916 
L 231.998728 126.614136 
L 232.078914 128.588355 
L 231.961862 130.562575 
L 231.683308 132.536795 
L 231.282816 134.511015 
L 230.80127 136.485235 
L 230.278238 138.459455 
L 229.74926 140.433675 
L 229.243198 142.407895 
L 228.779884 144.382114 
L 228.368379 146.356334 
L 228.006169 148.330554 
L 227.679547 150.304774 
L 227.365331 152.278994 
L 227.0338 154.253214 
L 226.652577 156.227434 
L 226.190963 158.201654 
L 225.624108 160.175873 
L 224.936415 162.150093 
L 224.123638 164.124313 
L 223.193348 166.098533 
L 222.163707 168.072753 
L 221.060731 170.046973 
L 219.914537 172.021193 
L 218.755184 173.995413 
L 217.608814 175.969632 
L 216.494724 177.943852 
L 215.423797 179.918072 
L 214.398485 181.892292 
L 213.414175 183.866512 
L 212.461577 185.840732 
L 211.52954 187.814952 
L 210.607713 189.789172 
L 209.688541 191.763391 
L 208.768319 193.737611 
L 207.847267 195.711831 
L 206.928834 197.686051 
L 206.018595 199.660271 
L 205.123116 201.634491 
L 204.249114 203.608711 
L 203.403044 205.582931 
L 202.591091 207.557151 
L 201.819382 209.53137 
L 201.094179 211.50559 
L 200.421838 213.47981 
L 199.80843 215.45403 
L 199.259035 217.42825 
L 198.776886 219.40247 
L 198.362573 221.37669 
L 198.013534 223.35091 
L 197.723999 225.325129 
L 197.485435 227.299349 
L 197.287414 229.273569 
L 197.118743 231.247789 
L 196.968643 233.222009 
L 196.827765 235.196229 
L 196.688902 237.170449 
L 196.547313 239.144669 
L 196.40068 241.118888 
L 196.248774 243.093108 
L 196.09295 245.067328 
L 195.935575 247.041548 
L 195.779512 249.015768 
z
" clip-path="url(#p09e47ba090)" style="fill: #1f77b4; fill-opacity: 0.3"/>
   </g>
   <g id="PolyCollection_3">
    <path d="M 278.867704 262.540509 
L 276.906337 262.540509 
L 276.779816 260.54061 
L 276.648281 258.540711 
L 276.512839 256.540812 
L 276.374844 254.540913 
L 276.235879 252.541014 
L 276.097669 250.541115 
L 275.961913 248.541216 
L 275.830032 246.541317 
L 275.702875 244.541417 
L 275.580404 242.541518 
L 275.461408 240.541619 
L 275.343286 238.54172 
L 275.221918 236.541821 
L 275.091663 234.541922 
L 274.945465 232.542023 
L 274.775097 230.542124 
L 274.57151 228.542224 
L 274.325297 226.542325 
L 274.027262 224.542426 
L 273.669068 222.542527 
L 273.24395 220.542628 
L 272.747442 218.542729 
L 272.178037 216.54283 
L 271.537688 214.542931 
L 270.832041 212.543032 
L 270.070314 210.543132 
L 269.264747 208.543233 
L 268.429643 206.543334 
L 267.580081 204.543435 
L 266.730446 202.543536 
L 265.892985 200.543637 
L 265.076588 198.543738 
L 264.285983 196.543839 
L 263.521437 194.543939 
L 262.778998 192.54404 
L 262.05122 190.544141 
L 261.328266 188.544242 
L 260.599258 186.544343 
L 259.853739 184.544444 
L 259.083143 182.544545 
L 258.282151 180.544646 
L 257.449838 178.544747 
L 256.590455 176.544847 
L 255.713708 174.544948 
L 254.834383 172.545049 
L 253.971205 170.54515 
L 253.144932 168.545251 
L 252.375815 166.545352 
L 251.680695 164.545453 
L 251.070164 162.545554 
L 250.546235 160.545654 
L 250.100987 158.545755 
L 249.716513 156.545856 
L 249.366307 154.545957 
L 249.018029 152.546058 
L 248.637321 150.546159 
L 248.192227 148.54626 
L 247.657612 146.546361 
L 247.019024 144.546462 
L 246.275452 142.546562 
L 245.440622 140.546663 
L 244.542628 138.546764 
L 243.621904 136.546865 
L 242.727754 134.546966 
L 241.913813 132.547067 
L 241.232989 130.547168 
L 240.732459 128.547269 
L 240.449356 126.547369 
L 240.407661 124.54747 
L 240.616684 122.547571 
L 241.0713 120.547672 
L 241.753823 118.547773 
L 242.637202 116.547874 
L 243.688968 114.547975 
L 244.875311 112.548076 
L 246.164637 110.548177 
L 247.530107 108.548277 
L 248.95086 106.548378 
L 250.411919 104.548479 
L 251.902973 102.54858 
L 253.41649 100.548681 
L 254.945636 98.548782 
L 256.48249 96.548883 
L 258.016909 94.548984 
L 259.536222 92.549084 
L 261.025728 90.549185 
L 262.469825 88.549286 
L 263.853474 86.549387 
L 265.163689 84.549488 
L 266.390763 82.549589 
L 267.529038 80.54969 
L 268.577118 78.549791 
L 269.537531 76.549892 
L 270.415946 74.549992 
L 271.220094 72.550093 
L 271.958564 70.550194 
L 272.639671 68.550295 
L 273.27053 66.550396 
L 273.856443 64.550497 
L 281.917599 64.550497 
L 281.917599 64.550497 
L 282.503512 66.550396 
L 283.13437 68.550295 
L 283.815478 70.550194 
L 284.553948 72.550093 
L 285.358095 74.549992 
L 286.236511 76.549892 
L 287.196924 78.549791 
L 288.245004 80.54969 
L 289.383279 82.549589 
L 290.610353 84.549488 
L 291.920567 86.549387 
L 293.304216 88.549286 
L 294.748313 90.549185 
L 296.237819 92.549084 
L 297.757132 94.548984 
L 299.291551 96.548883 
L 300.828405 98.548782 
L 302.357552 100.548681 
L 303.871069 102.54858 
L 305.362123 104.548479 
L 306.823181 106.548378 
L 308.243935 108.548277 
L 309.609404 110.548177 
L 310.898731 112.548076 
L 312.085074 114.547975 
L 313.13684 116.547874 
L 314.020218 118.547773 
L 314.702742 120.547672 
L 315.157357 122.547571 
L 315.366381 124.54747 
L 315.324686 126.547369 
L 315.041583 128.547269 
L 314.541053 130.547168 
L 313.860229 132.547067 
L 313.046288 134.546966 
L 312.152137 136.546865 
L 311.231414 138.546764 
L 310.33342 140.546663 
L 309.49859 142.546562 
L 308.755018 144.546462 
L 308.11643 146.546361 
L 307.581815 148.54626 
L 307.13672 150.546159 
L 306.756013 152.546058 
L 306.407734 154.545957 
L 306.057529 156.545856 
L 305.673055 158.545755 
L 305.227807 160.545654 
L 304.703878 162.545554 
L 304.093347 164.545453 
L 303.398227 166.545352 
L 302.629109 168.545251 
L 301.802837 170.54515 
L 300.939659 172.545049 
L 300.060334 174.544948 
L 299.183587 176.544847 
L 298.324203 178.544747 
L 297.49189 180.544646 
L 296.690899 182.544545 
L 295.920303 184.544444 
L 295.174784 186.544343 
L 294.445776 188.544242 
L 293.722822 190.544141 
L 292.995044 192.54404 
L 292.252604 194.543939 
L 291.488059 196.543839 
L 290.697454 198.543738 
L 289.881057 200.543637 
L 289.043595 202.543536 
L 288.19396 204.543435 
L 287.344398 206.543334 
L 286.509295 208.543233 
L 285.703727 210.543132 
L 284.942001 212.543032 
L 284.236354 214.542931 
L 283.596004 216.54283 
L 283.026599 218.542729 
L 282.530092 220.542628 
L 282.104974 222.542527 
L 281.746779 224.542426 
L 281.448744 226.542325 
L 281.202532 228.542224 
L 280.998945 230.542124 
L 280.828577 232.542023 
L 280.682379 234.541922 
L 280.552123 236.541821 
L 280.430756 238.54172 
L 280.312633 240.541619 
L 280.193638 242.541518 
L 280.071166 244.541417 
L 279.944009 246.541317 
L 279.812129 248.541216 
L 279.676372 250.541115 
L 279.538163 252.541014 
L 279.399197 254.540913 
L 279.261202 256.540812 
L 279.125761 258.540711 
L 278.994225 260.54061 
L 278.867704 262.540509 
z
" clip-path="url(#p09e47ba090)" style="fill: #1f77b4; fill-opacity: 0.3"/>
   </g>
   <g id="PolyCollection_4">
    <path d="M 363.116617 295.488 
L 358.899208 295.488 
L 358.631195 293.18714 
L 358.36093 290.88628 
L 358.093726 288.585421 
L 357.834693 286.284561 
L 357.588307 283.983701 
L 357.357964 281.682841 
L 357.145563 279.381981 
L 356.951169 277.081122 
L 356.772774 274.780262 
L 356.606195 272.479402 
L 356.445123 270.178542 
L 356.281325 267.877682 
L 356.105002 265.576823 
L 355.905264 263.275963 
L 355.670733 260.975103 
L 355.390197 258.674243 
L 355.053317 256.373383 
L 354.651311 254.072524 
L 354.177578 251.771664 
L 353.628218 249.470804 
L 353.002388 247.169944 
L 352.302455 244.869084 
L 351.533934 242.568225 
L 350.705193 240.267365 
L 349.82695 237.966505 
L 348.911604 235.665645 
L 347.972469 233.364786 
L 347.022983 231.063926 
L 346.075978 228.763066 
L 345.143089 226.462206 
L 344.234337 224.161346 
L 343.357936 221.860487 
L 342.5203 219.559627 
L 341.726213 217.258767 
L 340.979105 214.957907 
L 340.281349 212.657047 
L 339.634505 210.356188 
L 339.039445 208.055328 
L 338.496321 205.754468 
L 338.004382 203.453608 
L 337.561679 201.152748 
L 337.164728 198.851889 
L 336.808241 196.551029 
L 336.485009 194.250169 
L 336.186045 191.949309 
L 335.900996 189.648449 
L 335.618848 187.34759 
L 335.328831 185.04673 
L 335.02141 182.74587 
L 334.689216 180.44501 
L 334.327741 178.14415 
L 333.935688 175.843291 
L 333.514883 173.542431 
L 333.069753 171.241571 
L 332.606447 168.940711 
L 332.131737 166.639851 
L 331.651883 164.338992 
L 331.171642 162.038132 
L 330.693601 159.737272 
L 330.217916 157.436412 
L 329.742514 155.135552 
L 329.263704 152.834693 
L 328.777098 150.533833 
L 328.278707 148.232973 
L 327.766047 145.932113 
L 327.239119 143.631253 
L 326.701155 141.330394 
L 326.159056 139.029534 
L 325.623518 136.728674 
L 325.108841 134.427814 
L 324.632481 132.126954 
L 324.214386 129.826095 
L 323.876175 127.525235 
L 323.640204 125.224375 
L 323.528553 122.923515 
L 323.561976 120.622656 
L 323.758853 118.321796 
L 324.134172 116.020936 
L 324.698618 113.720076 
L 325.457813 111.419216 
L 326.411776 109.118357 
L 327.554658 106.817497 
L 328.874784 104.516637 
L 330.35503 102.215777 
L 331.973498 99.914917 
L 333.704457 97.614058 
L 335.519486 95.313198 
L 337.388729 93.012338 
L 339.282172 90.711478 
L 341.170861 88.410618 
L 343.027981 86.109759 
L 344.829733 83.808899 
L 346.555966 81.508039 
L 348.190542 79.207179 
L 349.721439 76.906319 
L 351.140616 74.60546 
L 352.443676 72.3046 
L 353.62939 70.00374 
L 354.699139 67.70288 
L 367.316686 67.70288 
L 367.316686 67.70288 
L 368.386435 70.00374 
L 369.572149 72.3046 
L 370.87521 74.60546 
L 372.294387 76.906319 
L 373.825284 79.207179 
L 375.459859 81.508039 
L 377.186092 83.808899 
L 378.987845 86.109759 
L 380.844965 88.410618 
L 382.733653 90.711478 
L 384.627096 93.012338 
L 386.496339 95.313198 
L 388.311369 97.614058 
L 390.042328 99.914917 
L 391.660795 102.215777 
L 393.141042 104.516637 
L 394.461168 106.817497 
L 395.604049 109.118357 
L 396.558012 111.419216 
L 397.317208 113.720076 
L 397.881654 116.020936 
L 398.256973 118.321796 
L 398.453849 120.622656 
L 398.487273 122.923515 
L 398.375621 125.224375 
L 398.13965 127.525235 
L 397.80144 129.826095 
L 397.383344 132.126954 
L 396.906984 134.427814 
L 396.392307 136.728674 
L 395.856769 139.029534 
L 395.314671 141.330394 
L 394.776706 143.631253 
L 394.249779 145.932113 
L 393.737119 148.232973 
L 393.238728 150.533833 
L 392.752122 152.834693 
L 392.273311 155.135552 
L 391.797909 157.436412 
L 391.322224 159.737272 
L 390.844183 162.038132 
L 390.363942 164.338992 
L 389.884088 166.639851 
L 389.409379 168.940711 
L 388.946073 171.241571 
L 388.500943 173.542431 
L 388.080137 175.843291 
L 387.688085 178.14415 
L 387.32661 180.44501 
L 386.994415 182.74587 
L 386.686995 185.04673 
L 386.396977 187.34759 
L 386.114829 189.648449 
L 385.82978 191.949309 
L 385.530816 194.250169 
L 385.207585 196.551029 
L 384.851097 198.851889 
L 384.454146 201.152748 
L 384.011443 203.453608 
L 383.519505 205.754468 
L 382.976381 208.055328 
L 382.381321 210.356188 
L 381.734477 212.657047 
L 381.036721 214.957907 
L 380.289612 217.258767 
L 379.495525 219.559627 
L 378.657889 221.860487 
L 377.781489 224.161346 
L 376.872737 226.462206 
L 375.939847 228.763066 
L 374.992843 231.063926 
L 374.043356 233.364786 
L 373.104221 235.665645 
L 372.188875 237.966505 
L 371.310632 240.267365 
L 370.481891 242.568225 
L 369.71337 244.869084 
L 369.013437 247.169944 
L 368.387607 249.470804 
L 367.838248 251.771664 
L 367.364515 254.072524 
L 366.962508 256.373383 
L 366.625628 258.674243 
L 366.345093 260.975103 
L 366.110561 263.275963 
L 365.910824 265.576823 
L 365.7345 267.877682 
L 365.570703 270.178542 
L 365.40963 272.479402 
L 365.243051 274.780262 
L 365.064656 277.081122 
L 364.870262 279.381981 
L 364.657862 281.682841 
L 364.427518 283.983701 
L 364.181133 286.284561 
L 363.9221 288.585421 
L 363.654895 290.88628 
L 363.38463 293.18714 
L 363.116617 295.488 
z
" clip-path="url(#p09e47ba090)" style="fill: #1f77b4; fill-opacity: 0.3"/>
   </g>
   <g id="matplotlib.axis_1">
    <g id="xtick_1">
     <g id="line2d_1">
      <defs>
       <path id="m5fddbe994f" d="M 0 0 
L 0 3.5 
" style="stroke: #000000; stroke-width: 0.8"/>
      </defs>
      <g>
       <use xlink:href="#m5fddbe994f" x="69.668354" y="307.584" style="stroke: #000000; stroke-width: 0.8"/>
      </g>
     </g>
     <g id="text_1">
      <!-- 250 -->
      <g transform="translate(60.124604 322.182437)scale(0.1 -0.1)">
       <defs>
        <path id="DejaVuSans-32" d="M 1228 531 
L 3431 531 
L 3431 0 
L 469 0 
L 469 531 
Q 828 903 1448 1529 
Q 2069 2156 2228 2338 
Q 2531 2678 2651 2914 
Q 2772 3150 2772 3378 
Q 2772 3750 2511 3984 
Q 2250 4219 1831 4219 
Q 1534 4219 1204 4116 
Q 875 4013 500 3803 
L 500 4441 
Q 881 4594 1212 4672 
Q 1544 4750 1819 4750 
Q 2544 4750 2975 4387 
Q 3406 4025 3406 3419 
Q 3406 3131 3298 2873 
Q 3191 2616 2906 2266 
Q 2828 2175 2409 1742 
Q 1991 1309 1228 531 
z
" transform="scale(0.015625)"/>
        <path id="DejaVuSans-35" d="M 691 4666 
L 3169 4666 
L 3169 4134 
L 1269 4134 
L 1269 2991 
Q 1406 3038 1543 3061 
Q 1681 3084 1819 3084 
Q 2600 3084 3056 2656 
Q 3513 2228 3513 1497 
Q 3513 744 3044 326 
Q 2575 -91 1722 -91 
Q 1428 -91 1123 -41 
Q 819 9 494 109 
L 494 744 
Q 775 591 1075 516 
Q 1375 441 1709 441 
Q 2250 441 2565 725 
Q 2881 1009 2881 1497 
Q 2881 1984 2565 2268 
Q 2250 2553 1709 2553 
Q 1456 2553 1204 2497 
Q 953 2441 691 2322 
L 691 4666 
z
" transform="scale(0.015625)"/>
        <path id="DejaVuSans-30" d="M 2034 4250 
Q 1547 4250 1301 3770 
Q 1056 3291 1056 2328 
Q 1056 1369 1301 889 
Q 1547 409 2034 409 
Q 2525 409 2770 889 
Q 3016 1369 3016 2328 
Q 3016 3291 2770 3770 
Q 2525 4250 2034 4250 
z
M 2034 4750 
Q 2819 4750 3233 4129 
Q 3647 3509 3647 2328 
Q 3647 1150 3233 529 
Q 2819 -91 2034 -91 
Q 1250 -91 836 529 
Q 422 1150 422 2328 
Q 422 3509 836 4129 
Q 1250 4750 2034 4750 
z
" transform="scale(0.015625)"/>
       </defs>
       <use xlink:href="#DejaVuSans-32"/>
       <use xlink:href="#DejaVuSans-35" x="63.623047"/>
       <use xlink:href="#DejaVuSans-30" x="127.246094"/>
      </g>
     </g>
    </g>
    <g id="xtick_2">
     <g id="line2d_2">
      <g>
       <use xlink:href="#m5fddbe994f" x="111.312087" y="307.584" style="stroke: #000000; stroke-width: 0.8"/>
      </g>
     </g>
     <g id="text_2">
      <!-- 500 -->
      <g transform="translate(101.768337 322.182437)scale(0.1 -0.1)">
       <use xlink:href="#DejaVuSans-35"/>
       <use xlink:href="#DejaVuSans-30" x="63.623047"/>
       <use xlink:href="#DejaVuSans-30" x="127.246094"/>
      </g>
     </g>
    </g>
    <g id="xtick_3">
     <g id="line2d_3">
      <g>
       <use xlink:href="#m5fddbe994f" x="152.955821" y="307.584" style="stroke: #000000; stroke-width: 0.8"/>
      </g>
     </g>
     <g id="text_3">
      <!-- 750 -->
      <g transform="translate(143.412071 322.182437)scale(0.1 -0.1)">
       <defs>
        <path id="DejaVuSans-37" d="M 525 4666 
L 3525 4666 
L 3525 4397 
L 1831 0 
L 1172 0 
L 2766 4134 
L 525 4134 
L 525 4666 
z
" transform="scale(0.015625)"/>
       </defs>
       <use xlink:href="#DejaVuSans-37"/>
       <use xlink:href="#DejaVuSans-35" x="63.623047"/>
       <use xlink:href="#DejaVuSans-30" x="127.246094"/>
      </g>
     </g>
    </g>
    <g id="xtick_4">
     <g id="line2d_4">
      <g>
       <use xlink:href="#m5fddbe994f" x="194.599554" y="307.584" style="stroke: #000000; stroke-width: 0.8"/>
      </g>
     </g>
     <g id="text_4">
      <!-- 1000 -->
      <g transform="translate(181.874554 322.182437)scale(0.1 -0.1)">
       <defs>
        <path id="DejaVuSans-31" d="M 794 531 
L 1825 531 
L 1825 4091 
L 703 3866 
L 703 4441 
L 1819 4666 
L 2450 4666 
L 2450 531 
L 3481 531 
L 3481 0 
L 794 0 
L 794 531 
z
" transform="scale(0.015625)"/>
       </defs>
       <use xlink:href="#DejaVuSans-31"/>
       <use xlink:href="#DejaVuSans-30" x="63.623047"/>
       <use xlink:href="#DejaVuSans-30" x="127.246094"/>
       <use xlink:href="#DejaVuSans-30" x="190.869141"/>
      </g>
     </g>
    </g>
    <g id="xtick_5">
     <g id="line2d_5">
      <g>
       <use xlink:href="#m5fddbe994f" x="236.243287" y="307.584" style="stroke: #000000; stroke-width: 0.8"/>
      </g>
     </g>
     <g id="text_5">
      <!-- 1250 -->
      <g transform="translate(223.518287 322.182437)scale(0.1 -0.1)">
       <use xlink:href="#DejaVuSans-31"/>
       <use xlink:href="#DejaVuSans-32" x="63.623047"/>
       <use xlink:href="#DejaVuSans-35" x="127.246094"/>
       <use xlink:href="#DejaVuSans-30" x="190.869141"/>
      </g>
     </g>
    </g>
    <g id="xtick_6">
     <g id="line2d_6">
      <g>
       <use xlink:href="#m5fddbe994f" x="277.887021" y="307.584" style="stroke: #000000; stroke-width: 0.8"/>
      </g>
     </g>
     <g id="text_6">
      <!-- 1500 -->
      <g transform="translate(265.162021 322.182437)scale(0.1 -0.1)">
       <use xlink:href="#DejaVuSans-31"/>
       <use xlink:href="#DejaVuSans-35" x="63.623047"/>
       <use xlink:href="#DejaVuSans-30" x="127.246094"/>
       <use xlink:href="#DejaVuSans-30" x="190.869141"/>
      </g>
     </g>
    </g>
    <g id="xtick_7">
     <g id="line2d_7">
      <g>
       <use xlink:href="#m5fddbe994f" x="319.530754" y="307.584" style="stroke: #000000; stroke-width: 0.8"/>
      </g>
     </g>
     <g id="text_7">
      <!-- 1750 -->
      <g transform="translate(306.805754 322.182437)scale(0.1 -0.1)">
       <use xlink:href="#DejaVuSans-31"/>
       <use xlink:href="#DejaVuSans-37" x="63.623047"/>
       <use xlink:href="#DejaVuSans-35" x="127.246094"/>
       <use xlink:href="#DejaVuSans-30" x="190.869141"/>
      </g>
     </g>
    </g>
    <g id="xtick_8">
     <g id="line2d_8">
      <g>
       <use xlink:href="#m5fddbe994f" x="361.174488" y="307.584" style="stroke: #000000; stroke-width: 0.8"/>
      </g>
     </g>
     <g id="text_8">
      <!-- 2000 -->
      <g transform="translate(348.449488 322.182437)scale(0.1 -0.1)">
       <use xlink:href="#DejaVuSans-32"/>
       <use xlink:href="#DejaVuSans-30" x="63.623047"/>
       <use xlink:href="#DejaVuSans-30" x="127.246094"/>
       <use xlink:href="#DejaVuSans-30" x="190.869141"/>
      </g>
     </g>
    </g>
    <g id="xtick_9">
     <g id="line2d_9">
      <g>
       <use xlink:href="#m5fddbe994f" x="402.818221" y="307.584" style="stroke: #000000; stroke-width: 0.8"/>
      </g>
     </g>
     <g id="text_9">
      <!-- 2250 -->
      <g transform="translate(390.093221 322.182437)scale(0.1 -0.1)">
       <use xlink:href="#DejaVuSans-32"/>
       <use xlink:href="#DejaVuSans-32" x="63.623047"/>
       <use xlink:href="#DejaVuSans-35" x="127.246094"/>
       <use xlink:href="#DejaVuSans-30" x="190.869141"/>
      </g>
     </g>
    </g>
    <g id="text_10">
     <!-- Learned Episodes -->
     <g transform="translate(192.102187 335.860562)scale(0.1 -0.1)">
      <defs>
       <path id="DejaVuSans-4c" d="M 628 4666 
L 1259 4666 
L 1259 531 
L 3531 531 
L 3531 0 
L 628 0 
L 628 4666 
z
" transform="scale(0.015625)"/>
       <path id="DejaVuSans-65" d="M 3597 1894 
L 3597 1613 
L 953 1613 
Q 991 1019 1311 708 
Q 1631 397 2203 397 
Q 2534 397 2845 478 
Q 3156 559 3463 722 
L 3463 178 
Q 3153 47 2828 -22 
Q 2503 -91 2169 -91 
Q 1331 -91 842 396 
Q 353 884 353 1716 
Q 353 2575 817 3079 
Q 1281 3584 2069 3584 
Q 2775 3584 3186 3129 
Q 3597 2675 3597 1894 
z
M 3022 2063 
Q 3016 2534 2758 2815 
Q 2500 3097 2075 3097 
Q 1594 3097 1305 2825 
Q 1016 2553 972 2059 
L 3022 2063 
z
" transform="scale(0.015625)"/>
       <path id="DejaVuSans-61" d="M 2194 1759 
Q 1497 1759 1228 1600 
Q 959 1441 959 1056 
Q 959 750 1161 570 
Q 1363 391 1709 391 
Q 2188 391 2477 730 
Q 2766 1069 2766 1631 
L 2766 1759 
L 2194 1759 
z
M 3341 1997 
L 3341 0 
L 2766 0 
L 2766 531 
Q 2569 213 2275 61 
Q 1981 -91 1556 -91 
Q 1019 -91 701 211 
Q 384 513 384 1019 
Q 384 1609 779 1909 
Q 1175 2209 1959 2209 
L 2766 2209 
L 2766 2266 
Q 2766 2663 2505 2880 
Q 2244 3097 1772 3097 
Q 1472 3097 1187 3025 
Q 903 2953 641 2809 
L 641 3341 
Q 956 3463 1253 3523 
Q 1550 3584 1831 3584 
Q 2591 3584 2966 3190 
Q 3341 2797 3341 1997 
z
" transform="scale(0.015625)"/>
       <path id="DejaVuSans-72" d="M 2631 2963 
Q 2534 3019 2420 3045 
Q 2306 3072 2169 3072 
Q 1681 3072 1420 2755 
Q 1159 2438 1159 1844 
L 1159 0 
L 581 0 
L 581 3500 
L 1159 3500 
L 1159 2956 
Q 1341 3275 1631 3429 
Q 1922 3584 2338 3584 
Q 2397 3584 2469 3576 
Q 2541 3569 2628 3553 
L 2631 2963 
z
" transform="scale(0.015625)"/>
       <path id="DejaVuSans-6e" d="M 3513 2113 
L 3513 0 
L 2938 0 
L 2938 2094 
Q 2938 2591 2744 2837 
Q 2550 3084 2163 3084 
Q 1697 3084 1428 2787 
Q 1159 2491 1159 1978 
L 1159 0 
L 581 0 
L 581 3500 
L 1159 3500 
L 1159 2956 
Q 1366 3272 1645 3428 
Q 1925 3584 2291 3584 
Q 2894 3584 3203 3211 
Q 3513 2838 3513 2113 
z
" transform="scale(0.015625)"/>
       <path id="DejaVuSans-64" d="M 2906 2969 
L 2906 4863 
L 3481 4863 
L 3481 0 
L 2906 0 
L 2906 525 
Q 2725 213 2448 61 
Q 2172 -91 1784 -91 
Q 1150 -91 751 415 
Q 353 922 353 1747 
Q 353 2572 751 3078 
Q 1150 3584 1784 3584 
Q 2172 3584 2448 3432 
Q 2725 3281 2906 2969 
z
M 947 1747 
Q 947 1113 1208 752 
Q 1469 391 1925 391 
Q 2381 391 2643 752 
Q 2906 1113 2906 1747 
Q 2906 2381 2643 2742 
Q 2381 3103 1925 3103 
Q 1469 3103 1208 2742 
Q 947 2381 947 1747 
z
" transform="scale(0.015625)"/>
       <path id="DejaVuSans-20" transform="scale(0.015625)"/>
       <path id="DejaVuSans-45" d="M 628 4666 
L 3578 4666 
L 3578 4134 
L 1259 4134 
L 1259 2753 
L 3481 2753 
L 3481 2222 
L 1259 2222 
L 1259 531 
L 3634 531 
L 3634 0 
L 628 0 
L 628 4666 
z
" transform="scale(0.015625)"/>
       <path id="DejaVuSans-70" d="M 1159 525 
L 1159 -1331 
L 581 -1331 
L 581 3500 
L 1159 3500 
L 1159 2969 
Q 1341 3281 1617 3432 
Q 1894 3584 2278 3584 
Q 2916 3584 3314 3078 
Q 3713 2572 3713 1747 
Q 3713 922 3314 415 
Q 2916 -91 2278 -91 
Q 1894 -91 1617 61 
Q 1341 213 1159 525 
z
M 3116 1747 
Q 3116 2381 2855 2742 
Q 2594 3103 2138 3103 
Q 1681 3103 1420 2742 
Q 1159 2381 1159 1747 
Q 1159 1113 1420 752 
Q 1681 391 2138 391 
Q 2594 391 2855 752 
Q 3116 1113 3116 1747 
z
" transform="scale(0.015625)"/>
       <path id="DejaVuSans-69" d="M 603 3500 
L 1178 3500 
L 1178 0 
L 603 0 
L 603 3500 
z
M 603 4863 
L 1178 4863 
L 1178 4134 
L 603 4134 
L 603 4863 
z
" transform="scale(0.015625)"/>
       <path id="DejaVuSans-73" d="M 2834 3397 
L 2834 2853 
Q 2591 2978 2328 3040 
Q 2066 3103 1784 3103 
Q 1356 3103 1142 2972 
Q 928 2841 928 2578 
Q 928 2378 1081 2264 
Q 1234 2150 1697 2047 
L 1894 2003 
Q 2506 1872 2764 1633 
Q 3022 1394 3022 966 
Q 3022 478 2636 193 
Q 2250 -91 1575 -91 
Q 1294 -91 989 -36 
Q 684 19 347 128 
L 347 722 
Q 666 556 975 473 
Q 1284 391 1588 391 
Q 1994 391 2212 530 
Q 2431 669 2431 922 
Q 2431 1156 2273 1281 
Q 2116 1406 1581 1522 
L 1381 1569 
Q 847 1681 609 1914 
Q 372 2147 372 2553 
Q 372 3047 722 3315 
Q 1072 3584 1716 3584 
Q 2034 3584 2315 3537 
Q 2597 3491 2834 3397 
z
" transform="scale(0.015625)"/>
       <path id="DejaVuSans-6f" d="M 1959 3097 
Q 1497 3097 1228 2736 
Q 959 2375 959 1747 
Q 959 1119 1226 758 
Q 1494 397 1959 397 
Q 2419 397 2687 759 
Q 2956 1122 2956 1747 
Q 2956 2369 2687 2733 
Q 2419 3097 1959 3097 
z
M 1959 3584 
Q 2709 3584 3137 3096 
Q 3566 2609 3566 1747 
Q 3566 888 3137 398 
Q 2709 -91 1959 -91 
Q 1206 -91 779 398 
Q 353 888 353 1747 
Q 353 2609 779 3096 
Q 1206 3584 1959 3584 
z
" transform="scale(0.015625)"/>
      </defs>
      <use xlink:href="#DejaVuSans-4c"/>
      <use xlink:href="#DejaVuSans-65" x="53.962891"/>
      <use xlink:href="#DejaVuSans-61" x="115.486328"/>
      <use xlink:href="#DejaVuSans-72" x="176.765625"/>
      <use xlink:href="#DejaVuSans-6e" x="216.128906"/>
      <use xlink:href="#DejaVuSans-65" x="279.507812"/>
      <use xlink:href="#DejaVuSans-64" x="341.03125"/>
      <use xlink:href="#DejaVuSans-20" x="404.507812"/>
      <use xlink:href="#DejaVuSans-45" x="436.294922"/>
      <use xlink:href="#DejaVuSans-70" x="499.478516"/>
      <use xlink:href="#DejaVuSans-69" x="562.955078"/>
      <use xlink:href="#DejaVuSans-73" x="590.738281"/>
      <use xlink:href="#DejaVuSans-6f" x="642.837891"/>
      <use xlink:href="#DejaVuSans-64" x="704.019531"/>
      <use xlink:href="#DejaVuSans-65" x="767.496094"/>
      <use xlink:href="#DejaVuSans-73" x="829.019531"/>
     </g>
    </g>
   </g>
   <g id="matplotlib.axis_2">
    <g id="ytick_1">
     <g id="line2d_10">
      <defs>
       <path id="me2cdc29449" d="M 0 0 
L -3.5 0 
" style="stroke: #000000; stroke-width: 0.8"/>
      </defs>
      <g>
       <use xlink:href="#me2cdc29449" x="57.6" y="276.777079" style="stroke: #000000; stroke-width: 0.8"/>
      </g>
     </g>
     <g id="text_11">
      <!-- −250 -->
      <g transform="translate(23.132812 280.576298)scale(0.1 -0.1)">
       <defs>
        <path id="DejaVuSans-2212" d="M 678 2272 
L 4684 2272 
L 4684 1741 
L 678 1741 
L 678 2272 
z
" transform="scale(0.015625)"/>
       </defs>
       <use xlink:href="#DejaVuSans-2212"/>
       <use xlink:href="#DejaVuSans-32" x="83.789062"/>
       <use xlink:href="#DejaVuSans-35" x="147.412109"/>
       <use xlink:href="#DejaVuSans-30" x="211.035156"/>
      </g>
     </g>
    </g>
    <g id="ytick_2">
     <g id="line2d_11">
      <g>
       <use xlink:href="#me2cdc29449" x="57.6" y="225.932187" style="stroke: #000000; stroke-width: 0.8"/>
      </g>
     </g>
     <g id="text_12">
      <!-- −200 -->
      <g transform="translate(23.132812 229.731405)scale(0.1 -0.1)">
       <use xlink:href="#DejaVuSans-2212"/>
       <use xlink:href="#DejaVuSans-32" x="83.789062"/>
       <use xlink:href="#DejaVuSans-30" x="147.412109"/>
       <use xlink:href="#DejaVuSans-30" x="211.035156"/>
      </g>
     </g>
    </g>
    <g id="ytick_3">
     <g id="line2d_12">
      <g>
       <use xlink:href="#me2cdc29449" x="57.6" y="175.087294" style="stroke: #000000; stroke-width: 0.8"/>
      </g>
     </g>
     <g id="text_13">
      <!-- −150 -->
      <g transform="translate(23.132812 178.886513)scale(0.1 -0.1)">
       <use xlink:href="#DejaVuSans-2212"/>
       <use xlink:href="#DejaVuSans-31" x="83.789062"/>
       <use xlink:href="#DejaVuSans-35" x="147.412109"/>
       <use xlink:href="#DejaVuSans-30" x="211.035156"/>
      </g>
     </g>
    </g>
    <g id="ytick_4">
     <g id="line2d_13">
      <g>
       <use xlink:href="#me2cdc29449" x="57.6" y="124.242401" style="stroke: #000000; stroke-width: 0.8"/>
      </g>
     </g>
     <g id="text_14">
      <!-- −100 -->
      <g transform="translate(23.132812 128.04162)scale(0.1 -0.1)">
       <use xlink:href="#DejaVuSans-2212"/>
       <use xlink:href="#DejaVuSans-31" x="83.789062"/>
       <use xlink:href="#DejaVuSans-30" x="147.412109"/>
       <use xlink:href="#DejaVuSans-30" x="211.035156"/>
      </g>
     </g>
    </g>
    <g id="ytick_5">
     <g id="line2d_14">
      <g>
       <use xlink:href="#me2cdc29449" x="57.6" y="73.397508" style="stroke: #000000; stroke-width: 0.8"/>
      </g>
     </g>
     <g id="text_15">
      <!-- −50 -->
      <g transform="translate(29.495313 77.196727)scale(0.1 -0.1)">
       <use xlink:href="#DejaVuSans-2212"/>
       <use xlink:href="#DejaVuSans-35" x="83.789062"/>
       <use xlink:href="#DejaVuSans-30" x="147.412109"/>
      </g>
     </g>
    </g>
    <g id="text_16">
     <!-- Reward Density -->
     <g transform="translate(17.053125 213.74675)rotate(-90)scale(0.1 -0.1)">
      <defs>
       <path id="DejaVuSans-52" d="M 2841 2188 
Q 3044 2119 3236 1894 
Q 3428 1669 3622 1275 
L 4263 0 
L 3584 0 
L 2988 1197 
Q 2756 1666 2539 1819 
Q 2322 1972 1947 1972 
L 1259 1972 
L 1259 0 
L 628 0 
L 628 4666 
L 2053 4666 
Q 2853 4666 3247 4331 
Q 3641 3997 3641 3322 
Q 3641 2881 3436 2590 
Q 3231 2300 2841 2188 
z
M 1259 4147 
L 1259 2491 
L 2053 2491 
Q 2509 2491 2742 2702 
Q 2975 2913 2975 3322 
Q 2975 3731 2742 3939 
Q 2509 4147 2053 4147 
L 1259 4147 
z
" transform="scale(0.015625)"/>
       <path id="DejaVuSans-77" d="M 269 3500 
L 844 3500 
L 1563 769 
L 2278 3500 
L 2956 3500 
L 3675 769 
L 4391 3500 
L 4966 3500 
L 4050 0 
L 3372 0 
L 2619 2869 
L 1863 0 
L 1184 0 
L 269 3500 
z
" transform="scale(0.015625)"/>
       <path id="DejaVuSans-44" d="M 1259 4147 
L 1259 519 
L 2022 519 
Q 2988 519 3436 956 
Q 3884 1394 3884 2338 
Q 3884 3275 3436 3711 
Q 2988 4147 2022 4147 
L 1259 4147 
z
M 628 4666 
L 1925 4666 
Q 3281 4666 3915 4102 
Q 4550 3538 4550 2338 
Q 4550 1131 3912 565 
Q 3275 0 1925 0 
L 628 0 
L 628 4666 
z
" transform="scale(0.015625)"/>
       <path id="DejaVuSans-74" d="M 1172 4494 
L 1172 3500 
L 2356 3500 
L 2356 3053 
L 1172 3053 
L 1172 1153 
Q 1172 725 1289 603 
Q 1406 481 1766 481 
L 2356 481 
L 2356 0 
L 1766 0 
Q 1100 0 847 248 
Q 594 497 594 1153 
L 594 3053 
L 172 3053 
L 172 3500 
L 594 3500 
L 594 4494 
L 1172 4494 
z
" transform="scale(0.015625)"/>
       <path id="DejaVuSans-79" d="M 2059 -325 
Q 1816 -950 1584 -1140 
Q 1353 -1331 966 -1331 
L 506 -1331 
L 506 -850 
L 844 -850 
Q 1081 -850 1212 -737 
Q 1344 -625 1503 -206 
L 1606 56 
L 191 3500 
L 800 3500 
L 1894 763 
L 2988 3500 
L 3597 3500 
L 2059 -325 
z
" transform="scale(0.015625)"/>
      </defs>
      <use xlink:href="#DejaVuSans-52"/>
      <use xlink:href="#DejaVuSans-65" x="64.982422"/>
      <use xlink:href="#DejaVuSans-77" x="126.505859"/>
      <use xlink:href="#DejaVuSans-61" x="208.292969"/>
      <use xlink:href="#DejaVuSans-72" x="269.572266"/>
      <use xlink:href="#DejaVuSans-64" x="308.935547"/>
      <use xlink:href="#DejaVuSans-20" x="372.412109"/>
      <use xlink:href="#DejaVuSans-44" x="404.199219"/>
      <use xlink:href="#DejaVuSans-65" x="481.201172"/>
      <use xlink:href="#DejaVuSans-6e" x="542.724609"/>
      <use xlink:href="#DejaVuSans-73" x="606.103516"/>
      <use xlink:href="#DejaVuSans-69" x="658.203125"/>
      <use xlink:href="#DejaVuSans-74" x="685.986328"/>
      <use xlink:href="#DejaVuSans-79" x="725.195312"/>
     </g>
    </g>
   </g>
   <g id="LineCollection_1">
    <path d="M 92.572407 128.382396 
L 130.051767 128.382396 
" clip-path="url(#p09e47ba090)" style="fill: none; stroke: #1f77b4; stroke-width: 1.5"/>
    <path d="M 175.859874 141.733044 
L 213.339234 141.733044 
" clip-path="url(#p09e47ba090)" style="fill: none; stroke: #1f77b4; stroke-width: 1.5"/>
    <path d="M 259.147341 141.824972 
L 296.626701 141.824972 
" clip-path="url(#p09e47ba090)" style="fill: none; stroke: #1f77b4; stroke-width: 1.5"/>
    <path d="M 342.268233 156.925498 
L 379.747593 156.925498 
" clip-path="url(#p09e47ba090)" style="fill: none; stroke: #1f77b4; stroke-width: 1.5"/>
   </g>
   <g id="LineCollection_2">
    <path d="M 92.572407 84.583385 
L 130.051767 84.583385 
" clip-path="url(#p09e47ba090)" style="fill: none; stroke: #1f77b4; stroke-width: 1.5"/>
    <path d="M 175.859874 53.568 
L 213.339234 53.568 
" clip-path="url(#p09e47ba090)" style="fill: none; stroke: #1f77b4; stroke-width: 1.5"/>
    <path d="M 259.147341 64.550497 
L 296.626701 64.550497 
" clip-path="url(#p09e47ba090)" style="fill: none; stroke: #1f77b4; stroke-width: 1.5"/>
    <path d="M 342.268233 67.70288 
L 379.747593 67.70288 
" clip-path="url(#p09e47ba090)" style="fill: none; stroke: #1f77b4; stroke-width: 1.5"/>
   </g>
   <g id="LineCollection_3">
    <path d="M 92.572407 216.576726 
L 130.051767 216.576726 
" clip-path="url(#p09e47ba090)" style="fill: none; stroke: #1f77b4; stroke-width: 1.5"/>
    <path d="M 175.859874 249.015768 
L 213.339234 249.015768 
" clip-path="url(#p09e47ba090)" style="fill: none; stroke: #1f77b4; stroke-width: 1.5"/>
    <path d="M 259.147341 262.540509 
L 296.626701 262.540509 
" clip-path="url(#p09e47ba090)" style="fill: none; stroke: #1f77b4; stroke-width: 1.5"/>
    <path d="M 342.268233 295.488 
L 379.747593 295.488 
" clip-path="url(#p09e47ba090)" style="fill: none; stroke: #1f77b4; stroke-width: 1.5"/>
   </g>
   <g id="LineCollection_4">
    <path d="M 111.312087 216.576726 
L 111.312087 84.583385 
" clip-path="url(#p09e47ba090)" style="fill: none; stroke: #1f77b4; stroke-width: 1.5"/>
    <path d="M 194.599554 249.015768 
L 194.599554 53.568 
" clip-path="url(#p09e47ba090)" style="fill: none; stroke: #1f77b4; stroke-width: 1.5"/>
    <path d="M 277.887021 262.540509 
L 277.887021 64.550497 
" clip-path="url(#p09e47ba090)" style="fill: none; stroke: #1f77b4; stroke-width: 1.5"/>
    <path d="M 361.007913 295.488 
L 361.007913 67.70288 
" clip-path="url(#p09e47ba090)" style="fill: none; stroke: #1f77b4; stroke-width: 1.5"/>
   </g>
   <g id="line2d_15">
    <path d="M 111.312087 128.382396 
L 194.599554 141.733044 
L 277.887021 141.824972 
L 361.007913 156.925498 
" clip-path="url(#p09e47ba090)" style="fill: none; stroke: #4682b4; stroke-width: 1.5; stroke-linecap: square"/>
   </g>
   <g id="patch_3">
    <path d="M 57.6 307.584 
L 57.6 41.472 
" style="fill: none; stroke: #000000; stroke-width: 0.8; stroke-linejoin: miter; stroke-linecap: square"/>
   </g>
   <g id="patch_4">
    <path d="M 414.72 307.584 
L 414.72 41.472 
" style="fill: none; stroke: #000000; stroke-width: 0.8; stroke-linejoin: miter; stroke-linecap: square"/>
   </g>
   <g id="patch_5">
    <path d="M 57.6 307.584 
L 414.72 307.584 
" style="fill: none; stroke: #000000; stroke-width: 0.8; stroke-linejoin: miter; stroke-linecap: square"/>
   </g>
   <g id="patch_6">
    <path d="M 57.6 41.472 
L 414.72 41.472 
" style="fill: none; stroke: #000000; stroke-width: 0.8; stroke-linejoin: miter; stroke-linecap: square"/>
   </g>
   <g id="text_17">
    <!-- Violinplot for progress of profits/storage_cost -->
    <g transform="translate(101.32875 35.472)scale(0.12 -0.12)">
     <defs>
      <path id="DejaVuSans-56" d="M 1831 0 
L 50 4666 
L 709 4666 
L 2188 738 
L 3669 4666 
L 4325 4666 
L 2547 0 
L 1831 0 
z
" transform="scale(0.015625)"/>
      <path id="DejaVuSans-6c" d="M 603 4863 
L 1178 4863 
L 1178 0 
L 603 0 
L 603 4863 
z
" transform="scale(0.015625)"/>
      <path id="DejaVuSans-66" d="M 2375 4863 
L 2375 4384 
L 1825 4384 
Q 1516 4384 1395 4259 
Q 1275 4134 1275 3809 
L 1275 3500 
L 2222 3500 
L 2222 3053 
L 1275 3053 
L 1275 0 
L 697 0 
L 697 3053 
L 147 3053 
L 147 3500 
L 697 3500 
L 697 3744 
Q 697 4328 969 4595 
Q 1241 4863 1831 4863 
L 2375 4863 
z
" transform="scale(0.015625)"/>
      <path id="DejaVuSans-67" d="M 2906 1791 
Q 2906 2416 2648 2759 
Q 2391 3103 1925 3103 
Q 1463 3103 1205 2759 
Q 947 2416 947 1791 
Q 947 1169 1205 825 
Q 1463 481 1925 481 
Q 2391 481 2648 825 
Q 2906 1169 2906 1791 
z
M 3481 434 
Q 3481 -459 3084 -895 
Q 2688 -1331 1869 -1331 
Q 1566 -1331 1297 -1286 
Q 1028 -1241 775 -1147 
L 775 -588 
Q 1028 -725 1275 -790 
Q 1522 -856 1778 -856 
Q 2344 -856 2625 -561 
Q 2906 -266 2906 331 
L 2906 616 
Q 2728 306 2450 153 
Q 2172 0 1784 0 
Q 1141 0 747 490 
Q 353 981 353 1791 
Q 353 2603 747 3093 
Q 1141 3584 1784 3584 
Q 2172 3584 2450 3431 
Q 2728 3278 2906 2969 
L 2906 3500 
L 3481 3500 
L 3481 434 
z
" transform="scale(0.015625)"/>
      <path id="DejaVuSans-2f" d="M 1625 4666 
L 2156 4666 
L 531 -594 
L 0 -594 
L 1625 4666 
z
" transform="scale(0.015625)"/>
      <path id="DejaVuSans-5f" d="M 3263 -1063 
L 3263 -1509 
L -63 -1509 
L -63 -1063 
L 3263 -1063 
z
" transform="scale(0.015625)"/>
      <path id="DejaVuSans-63" d="M 3122 3366 
L 3122 2828 
Q 2878 2963 2633 3030 
Q 2388 3097 2138 3097 
Q 1578 3097 1268 2742 
Q 959 2388 959 1747 
Q 959 1106 1268 751 
Q 1578 397 2138 397 
Q 2388 397 2633 464 
Q 2878 531 3122 666 
L 3122 134 
Q 2881 22 2623 -34 
Q 2366 -91 2075 -91 
Q 1284 -91 818 406 
Q 353 903 353 1747 
Q 353 2603 823 3093 
Q 1294 3584 2113 3584 
Q 2378 3584 2631 3529 
Q 2884 3475 3122 3366 
z
" transform="scale(0.015625)"/>
     </defs>
     <use xlink:href="#DejaVuSans-56"/>
     <use xlink:href="#DejaVuSans-69" x="66.158203"/>
     <use xlink:href="#DejaVuSans-6f" x="93.941406"/>
     <use xlink:href="#DejaVuSans-6c" x="155.123047"/>
     <use xlink:href="#DejaVuSans-69" x="182.90625"/>
     <use xlink:href="#DejaVuSans-6e" x="210.689453"/>
     <use xlink:href="#DejaVuSans-70" x="274.068359"/>
     <use xlink:href="#DejaVuSans-6c" x="337.544922"/>
     <use xlink:href="#DejaVuSans-6f" x="365.328125"/>
     <use xlink:href="#DejaVuSans-74" x="426.509766"/>
     <use xlink:href="#DejaVuSans-20" x="465.71875"/>
     <use xlink:href="#DejaVuSans-66" x="497.505859"/>
     <use xlink:href="#DejaVuSans-6f" x="532.710938"/>
     <use xlink:href="#DejaVuSans-72" x="593.892578"/>
     <use xlink:href="#DejaVuSans-20" x="635.005859"/>
     <use xlink:href="#DejaVuSans-70" x="666.792969"/>
     <use xlink:href="#DejaVuSans-72" x="730.269531"/>
     <use xlink:href="#DejaVuSans-6f" x="769.132812"/>
     <use xlink:href="#DejaVuSans-67" x="830.314453"/>
     <use xlink:href="#DejaVuSans-72" x="893.791016"/>
     <use xlink:href="#DejaVuSans-65" x="932.654297"/>
     <use xlink:href="#DejaVuSans-73" x="994.177734"/>
     <use xlink:href="#DejaVuSans-73" x="1046.277344"/>
     <use xlink:href="#DejaVuSans-20" x="1098.376953"/>
     <use xlink:href="#DejaVuSans-6f" x="1130.164062"/>
     <use xlink:href="#DejaVuSans-66" x="1191.345703"/>
     <use xlink:href="#DejaVuSans-20" x="1226.550781"/>
     <use xlink:href="#DejaVuSans-70" x="1258.337891"/>
     <use xlink:href="#DejaVuSans-72" x="1321.814453"/>
     <use xlink:href="#DejaVuSans-6f" x="1360.677734"/>
     <use xlink:href="#DejaVuSans-66" x="1421.859375"/>
     <use xlink:href="#DejaVuSans-69" x="1457.064453"/>
     <use xlink:href="#DejaVuSans-74" x="1484.847656"/>
     <use xlink:href="#DejaVuSans-73" x="1524.056641"/>
     <use xlink:href="#DejaVuSans-2f" x="1576.15625"/>
     <use xlink:href="#DejaVuSans-73" x="1609.847656"/>
     <use xlink:href="#DejaVuSans-74" x="1661.947266"/>
     <use xlink:href="#DejaVuSans-6f" x="1701.15625"/>
     <use xlink:href="#DejaVuSans-72" x="1762.337891"/>
     <use xlink:href="#DejaVuSans-61" x="1803.451172"/>
     <use xlink:href="#DejaVuSans-67" x="1864.730469"/>
     <use xlink:href="#DejaVuSans-65" x="1928.207031"/>
     <use xlink:href="#DejaVuSans-5f" x="1989.730469"/>
     <use xlink:href="#DejaVuSans-63" x="2039.730469"/>
     <use xlink:href="#DejaVuSans-6f" x="2094.710938"/>
     <use xlink:href="#DejaVuSans-73" x="2155.892578"/>
     <use xlink:href="#DejaVuSans-74" x="2207.992188"/>
    </g>
   </g>
   <g id="legend_1">
    <g id="patch_7">
     <path d="M 276.25125 64.150125 
L 407.72 64.150125 
Q 409.72 64.150125 409.72 62.150125 
L 409.72 48.472 
Q 409.72 46.472 407.72 46.472 
L 276.25125 46.472 
Q 274.25125 46.472 274.25125 48.472 
L 274.25125 62.150125 
Q 274.25125 64.150125 276.25125 64.150125 
z
" style="fill: #ffffff; opacity: 0.8; stroke: #cccccc; stroke-linejoin: miter"/>
    </g>
    <g id="line2d_16">
     <path d="M 278.25125 54.570438 
L 288.25125 54.570438 
L 298.25125 54.570438 
" style="fill: none; stroke: #4682b4; stroke-width: 1.5; stroke-linecap: square"/>
    </g>
    <g id="text_18">
     <!-- StableBaselinesSAC -->
     <g transform="translate(306.25125 58.070438)scale(0.1 -0.1)">
      <defs>
       <path id="DejaVuSans-53" d="M 3425 4513 
L 3425 3897 
Q 3066 4069 2747 4153 
Q 2428 4238 2131 4238 
Q 1616 4238 1336 4038 
Q 1056 3838 1056 3469 
Q 1056 3159 1242 3001 
Q 1428 2844 1947 2747 
L 2328 2669 
Q 3034 2534 3370 2195 
Q 3706 1856 3706 1288 
Q 3706 609 3251 259 
Q 2797 -91 1919 -91 
Q 1588 -91 1214 -16 
Q 841 59 441 206 
L 441 856 
Q 825 641 1194 531 
Q 1563 422 1919 422 
Q 2459 422 2753 634 
Q 3047 847 3047 1241 
Q 3047 1584 2836 1778 
Q 2625 1972 2144 2069 
L 1759 2144 
Q 1053 2284 737 2584 
Q 422 2884 422 3419 
Q 422 4038 858 4394 
Q 1294 4750 2059 4750 
Q 2388 4750 2728 4690 
Q 3069 4631 3425 4513 
z
" transform="scale(0.015625)"/>
       <path id="DejaVuSans-62" d="M 3116 1747 
Q 3116 2381 2855 2742 
Q 2594 3103 2138 3103 
Q 1681 3103 1420 2742 
Q 1159 2381 1159 1747 
Q 1159 1113 1420 752 
Q 1681 391 2138 391 
Q 2594 391 2855 752 
Q 3116 1113 3116 1747 
z
M 1159 2969 
Q 1341 3281 1617 3432 
Q 1894 3584 2278 3584 
Q 2916 3584 3314 3078 
Q 3713 2572 3713 1747 
Q 3713 922 3314 415 
Q 2916 -91 2278 -91 
Q 1894 -91 1617 61 
Q 1341 213 1159 525 
L 1159 0 
L 581 0 
L 581 4863 
L 1159 4863 
L 1159 2969 
z
" transform="scale(0.015625)"/>
       <path id="DejaVuSans-42" d="M 1259 2228 
L 1259 519 
L 2272 519 
Q 2781 519 3026 730 
Q 3272 941 3272 1375 
Q 3272 1813 3026 2020 
Q 2781 2228 2272 2228 
L 1259 2228 
z
M 1259 4147 
L 1259 2741 
L 2194 2741 
Q 2656 2741 2882 2914 
Q 3109 3088 3109 3444 
Q 3109 3797 2882 3972 
Q 2656 4147 2194 4147 
L 1259 4147 
z
M 628 4666 
L 2241 4666 
Q 2963 4666 3353 4366 
Q 3744 4066 3744 3513 
Q 3744 3084 3544 2831 
Q 3344 2578 2956 2516 
Q 3422 2416 3680 2098 
Q 3938 1781 3938 1306 
Q 3938 681 3513 340 
Q 3088 0 2303 0 
L 628 0 
L 628 4666 
z
" transform="scale(0.015625)"/>
       <path id="DejaVuSans-41" d="M 2188 4044 
L 1331 1722 
L 3047 1722 
L 2188 4044 
z
M 1831 4666 
L 2547 4666 
L 4325 0 
L 3669 0 
L 3244 1197 
L 1141 1197 
L 716 0 
L 50 0 
L 1831 4666 
z
" transform="scale(0.015625)"/>
       <path id="DejaVuSans-43" d="M 4122 4306 
L 4122 3641 
Q 3803 3938 3442 4084 
Q 3081 4231 2675 4231 
Q 1875 4231 1450 3742 
Q 1025 3253 1025 2328 
Q 1025 1406 1450 917 
Q 1875 428 2675 428 
Q 3081 428 3442 575 
Q 3803 722 4122 1019 
L 4122 359 
Q 3791 134 3420 21 
Q 3050 -91 2638 -91 
Q 1578 -91 968 557 
Q 359 1206 359 2328 
Q 359 3453 968 4101 
Q 1578 4750 2638 4750 
Q 3056 4750 3426 4639 
Q 3797 4528 4122 4306 
z
" transform="scale(0.015625)"/>
      </defs>
      <use xlink:href="#DejaVuSans-53"/>
      <use xlink:href="#DejaVuSans-74" x="63.476562"/>
      <use xlink:href="#DejaVuSans-61" x="102.685547"/>
      <use xlink:href="#DejaVuSans-62" x="163.964844"/>
      <use xlink:href="#DejaVuSans-6c" x="227.441406"/>
      <use xlink:href="#DejaVuSans-65" x="255.224609"/>
      <use xlink:href="#DejaVuSans-42" x="316.748047"/>
      <use xlink:href="#DejaVuSans-61" x="385.351562"/>
      <use xlink:href="#DejaVuSans-73" x="446.630859"/>
      <use xlink:href="#DejaVuSans-65" x="498.730469"/>
      <use xlink:href="#DejaVuSans-6c" x="560.253906"/>
      <use xlink:href="#DejaVuSans-69" x="588.037109"/>
      <use xlink:href="#DejaVuSans-6e" x="615.820312"/>
      <use xlink:href="#DejaVuSans-65" x="679.199219"/>
      <use xlink:href="#DejaVuSans-73" x="740.722656"/>
      <use xlink:href="#DejaVuSans-53" x="792.822266"/>
      <use xlink:href="#DejaVuSans-41" x="858.173828"/>
      <use xlink:href="#DejaVuSans-43" x="924.832031"/>
     </g>
    </g>
   </g>
  </g>
 </g>
 <defs>
  <clipPath id="p09e47ba090">
   <rect x="57.6" y="41.472" width="357.12" height="266.112"/>
  </clipPath>
 </defs>
</svg>
