<?xml version="1.0" encoding="utf-8" standalone="no"?>
<!DOCTYPE svg PUBLIC "-//W3C//DTD SVG 1.1//EN"
  "http://www.w3.org/Graphics/SVG/1.1/DTD/svg11.dtd">
<svg xmlns:xlink="http://www.w3.org/1999/xlink" width="460.8pt" height="345.6pt" viewBox="0 0 460.8 345.6" xmlns="http://www.w3.org/2000/svg" version="1.1">
 <metadata>
  <rdf:RDF xmlns:dc="http://purl.org/dc/elements/1.1/" xmlns:cc="http://creativecommons.org/ns#" xmlns:rdf="http://www.w3.org/1999/02/22-rdf-syntax-ns#">
   <cc:Work>
    <dc:type rdf:resource="http://purl.org/dc/dcmitype/StillImage"/>
    <dc:date>2022-06-15T18:26:49.485613</dc:date>
    <dc:format>image/svg+xml</dc:format>
    <dc:creator>
     <cc:Agent>
      <dc:title>Matplotlib v3.5.2, https://matplotlib.org/</dc:title>
     </cc:Agent>
    </dc:creator>
   </cc:Work>
  </rdf:RDF>
 </metadata>
 <defs>
  <style type="text/css">*{stroke-linejoin: round; stroke-linecap: butt}</style>
 </defs>
 <g id="figure_1">
  <g id="patch_1">
   <path d="M 0 345.6 
L 460.8 345.6 
L 460.8 0 
L 0 0 
z
" style="fill: #ffffff"/>
  </g>
  <g id="axes_1">
   <g id="patch_2">
    <path d="M 57.6 307.584 
L 414.72 307.584 
L 414.72 41.472 
L 57.6 41.472 
z
" style="fill: #ffffff"/>
   </g>
   <g id="PolyCollection_1">
    <path d="M 112.149673 295.488 
L 110.474501 295.488 
L 110.408337 293.079616 
L 110.349043 290.671232 
L 110.295243 288.262849 
L 110.244044 285.854465 
L 110.191073 283.446081 
L 110.130646 281.037697 
L 110.056094 278.629314 
L 109.96021 276.22093 
L 109.835808 273.812546 
L 109.676348 271.404162 
L 109.476576 268.995779 
L 109.233136 266.587395 
L 108.94507 264.179011 
L 108.614161 261.770627 
L 108.245036 259.362243 
L 107.844988 256.95386 
L 107.423494 254.545476 
L 106.991412 252.137092 
L 106.559911 249.728708 
L 106.139193 247.320325 
L 105.737151 244.911941 
L 105.358103 242.503557 
L 105.001782 240.095173 
L 104.662767 237.686789 
L 104.330469 235.278406 
L 103.989776 232.870022 
L 103.622293 230.461638 
L 103.208068 228.053254 
L 102.727556 225.644871 
L 102.163514 223.236487 
L 101.502551 220.828103 
L 100.736084 218.419719 
L 99.860604 216.011336 
L 98.87734 213.602952 
L 97.791499 211.194568 
L 96.611415 208.786184 
L 95.347886 206.3778 
L 94.013888 203.969417 
L 92.624698 201.561033 
L 91.198254 199.152649 
L 89.755469 196.744265 
L 88.320144 194.335882 
L 86.918238 191.927498 
L 85.576391 189.519114 
L 84.319821 187.11073 
L 83.16992 184.702347 
L 82.141979 182.293963 
L 81.243479 179.885579 
L 80.473313 177.477195 
L 79.822076 175.068811 
L 79.273408 172.660428 
L 78.806123 170.252044 
L 78.396767 167.84366 
L 78.022202 165.435276 
L 77.661856 163.026893 
L 77.299411 160.618509 
L 76.923863 158.210125 
L 76.530002 155.801741 
L 76.11847 153.393358 
L 75.695558 150.984974 
L 75.272813 148.57659 
L 74.866468 146.168206 
L 74.496581 143.759822 
L 74.185766 141.351439 
L 73.957438 138.943055 
L 73.833644 136.534671 
L 73.832727 134.126287 
L 73.967217 131.717904 
L 74.242413 129.30952 
L 74.656058 126.901136 
L 75.199293 124.492752 
L 75.858802 122.084368 
L 76.619768 119.675985 
L 77.469001 117.267601 
L 78.39756 114.859217 
L 79.402231 112.450833 
L 80.485511 110.04245 
L 81.654077 107.634066 
L 82.916051 105.225682 
L 84.277684 102.817298 
L 85.74018 100.408915 
L 87.297336 98.000531 
L 88.934489 95.592147 
L 90.628949 93.183763 
L 92.351801 90.775379 
L 94.070687 88.366996 
L 95.75303 85.958612 
L 97.369134 83.550228 
L 98.89469 81.141844 
L 100.312367 78.733461 
L 101.612367 76.325077 
L 102.79202 73.916693 
L 103.854607 71.508309 
L 104.807706 69.099926 
L 105.661381 66.691542 
L 106.426465 64.283158 
L 107.113191 61.874774 
L 107.730268 59.46639 
L 108.284454 57.058007 
L 114.339721 57.058007 
L 114.339721 57.058007 
L 114.893907 59.46639 
L 115.510984 61.874774 
L 116.19771 64.283158 
L 116.962794 66.691542 
L 117.816468 69.099926 
L 118.769568 71.508309 
L 119.832154 73.916693 
L 121.011808 76.325077 
L 122.311808 78.733461 
L 123.729484 81.141844 
L 125.25504 83.550228 
L 126.871144 85.958612 
L 128.553487 88.366996 
L 130.272374 90.775379 
L 131.995226 93.183763 
L 133.689685 95.592147 
L 135.326838 98.000531 
L 136.883995 100.408915 
L 138.346491 102.817298 
L 139.708124 105.225682 
L 140.970097 107.634066 
L 142.138663 110.04245 
L 143.221944 112.450833 
L 144.226615 114.859217 
L 145.155174 117.267601 
L 146.004407 119.675985 
L 146.765373 122.084368 
L 147.424882 124.492752 
L 147.968116 126.901136 
L 148.381762 129.30952 
L 148.656958 131.717904 
L 148.791447 134.126287 
L 148.790531 136.534671 
L 148.666737 138.943055 
L 148.438409 141.351439 
L 148.127594 143.759822 
L 147.757706 146.168206 
L 147.351361 148.57659 
L 146.928616 150.984974 
L 146.505704 153.393358 
L 146.094173 155.801741 
L 145.700311 158.210125 
L 145.324764 160.618509 
L 144.962319 163.026893 
L 144.601972 165.435276 
L 144.227407 167.84366 
L 143.818052 170.252044 
L 143.350767 172.660428 
L 142.802099 175.068811 
L 142.150862 177.477195 
L 141.380695 179.885579 
L 140.482196 182.293963 
L 139.454255 184.702347 
L 138.304354 187.11073 
L 137.047784 189.519114 
L 135.705936 191.927498 
L 134.304031 194.335882 
L 132.868706 196.744265 
L 131.425921 199.152649 
L 129.999477 201.561033 
L 128.610287 203.969417 
L 127.276289 206.3778 
L 126.01276 208.786184 
L 124.832676 211.194568 
L 123.746835 213.602952 
L 122.76357 216.011336 
L 121.888091 218.419719 
L 121.121624 220.828103 
L 120.460661 223.236487 
L 119.896619 225.644871 
L 119.416106 228.053254 
L 119.001882 230.461638 
L 118.634399 232.870022 
L 118.293705 235.278406 
L 117.961408 237.686789 
L 117.622392 240.095173 
L 117.266072 242.503557 
L 116.887024 244.911941 
L 116.484982 247.320325 
L 116.064264 249.728708 
L 115.632762 252.137092 
L 115.200681 254.545476 
L 114.779187 256.95386 
L 114.379139 259.362243 
L 114.010013 261.770627 
L 113.679105 264.179011 
L 113.391039 266.587395 
L 113.147598 268.995779 
L 112.947826 271.404162 
L 112.788366 273.812546 
L 112.663965 276.22093 
L 112.568081 278.629314 
L 112.493528 281.037697 
L 112.433101 283.446081 
L 112.38013 285.854465 
L 112.328932 288.262849 
L 112.275132 290.671232 
L 112.215837 293.079616 
L 112.149673 295.488 
z
" clip-path="url(#p569323ea63)" style="fill: #1f77b4; fill-opacity: 0.3"/>
   </g>
   <g id="PolyCollection_2">
    <path d="M 195.626551 270.694831 
L 193.572557 270.694831 
L 193.489336 268.622672 
L 193.418778 266.550512 
L 193.360395 264.478352 
L 193.311883 262.406193 
L 193.269287 260.334033 
L 193.227392 258.261873 
L 193.180264 256.189714 
L 193.121896 254.117554 
L 193.046858 252.045395 
L 192.950876 249.973235 
L 192.83125 247.901075 
L 192.687011 245.828916 
L 192.518796 243.756756 
L 192.32839 241.684597 
L 192.118002 239.612437 
L 191.889394 237.540277 
L 191.643018 235.468118 
L 191.377378 233.395958 
L 191.088774 231.323798 
L 190.771534 229.251639 
L 190.41872 227.179479 
L 190.023154 225.10732 
L 189.578547 223.03516 
L 189.080418 220.963 
L 188.526599 218.890841 
L 187.917141 216.818681 
L 187.25366 214.746521 
L 186.538246 212.674362 
L 185.772238 210.602202 
L 184.955155 208.530043 
L 184.084093 206.457883 
L 183.153792 204.385723 
L 182.157423 202.313564 
L 181.088014 200.241404 
L 179.940296 198.169244 
L 178.712646 196.097085 
L 177.408769 194.024925 
L 176.038785 191.952766 
L 174.619441 189.880606 
L 173.173318 187.808446 
L 171.727047 185.736287 
L 170.308726 183.664127 
L 168.944897 181.591967 
L 167.657556 179.519808 
L 166.461724 177.447648 
L 165.364029 175.375489 
L 164.362609 173.303329 
L 163.448411 171.231169 
L 162.60769 169.15901 
L 161.825274 167.08685 
L 161.088004 165.014691 
L 160.387712 162.942531 
L 159.723191 160.870371 
L 159.100796 158.798212 
L 158.533574 156.726052 
L 158.039084 154.653892 
L 157.636312 152.581733 
L 157.342243 150.509573 
L 157.168718 148.437414 
L 157.120194 146.365254 
L 157.192852 144.293094 
L 157.375291 142.220935 
L 157.650727 140.148775 
L 158.00031 138.076615 
L 158.40692 136.004456 
L 158.858637 133.932296 
L 159.351136 131.860137 
L 159.888441 129.787977 
L 160.481843 127.715817 
L 161.147202 125.643658 
L 161.901228 123.571498 
L 162.757592 121.499338 
L 163.723724 119.427179 
L 164.799 117.355019 
L 165.974643 115.28286 
L 167.235245 113.2107 
L 168.561451 111.13854 
L 169.933098 109.066381 
L 171.332067 106.994221 
L 172.744228 104.922061 
L 174.160179 102.849902 
L 175.574746 100.777742 
L 176.985541 98.705583 
L 178.39102 96.633423 
L 179.788562 94.561263 
L 181.17298 92.489104 
L 182.535752 90.416944 
L 183.865068 88.344785 
L 185.146608 86.272625 
L 186.364859 84.200465 
L 187.504708 82.128306 
L 188.553024 80.056146 
L 189.499989 77.983986 
L 190.340005 75.911827 
L 191.072043 73.839667 
L 191.699465 71.767508 
L 192.229343 69.695348 
L 192.671452 67.623188 
L 193.037083 65.551029 
L 196.162025 65.551029 
L 196.162025 65.551029 
L 196.527656 67.623188 
L 196.969765 69.695348 
L 197.499643 71.767508 
L 198.127065 73.839667 
L 198.859104 75.911827 
L 199.699119 77.983986 
L 200.646085 80.056146 
L 201.6944 82.128306 
L 202.834249 84.200465 
L 204.0525 86.272625 
L 205.33404 88.344785 
L 206.663356 90.416944 
L 208.026129 92.489104 
L 209.410546 94.561263 
L 210.808088 96.633423 
L 212.213568 98.705583 
L 213.624362 100.777742 
L 215.038929 102.849902 
L 216.45488 104.922061 
L 217.867042 106.994221 
L 219.26601 109.066381 
L 220.637657 111.13854 
L 221.963863 113.2107 
L 223.224465 115.28286 
L 224.400108 117.355019 
L 225.475385 119.427179 
L 226.441516 121.499338 
L 227.29788 123.571498 
L 228.051906 125.643658 
L 228.717265 127.715817 
L 229.310667 129.787977 
L 229.847972 131.860137 
L 230.340471 133.932296 
L 230.792188 136.004456 
L 231.198798 138.076615 
L 231.548381 140.148775 
L 231.823817 142.220935 
L 232.006256 144.293094 
L 232.078914 146.365254 
L 232.03039 148.437414 
L 231.856865 150.509573 
L 231.562796 152.581733 
L 231.160025 154.653892 
L 230.665534 156.726052 
L 230.098312 158.798212 
L 229.475917 160.870371 
L 228.811396 162.942531 
L 228.111104 165.014691 
L 227.373834 167.08685 
L 226.591418 169.15901 
L 225.750697 171.231169 
L 224.836499 173.303329 
L 223.835079 175.375489 
L 222.737384 177.447648 
L 221.541553 179.519808 
L 220.254212 181.591967 
L 218.890382 183.664127 
L 217.472061 185.736287 
L 216.025791 187.808446 
L 214.579667 189.880606 
L 213.160323 191.952766 
L 211.790339 194.024925 
L 210.486462 196.097085 
L 209.258812 198.169244 
L 208.111094 200.241404 
L 207.041685 202.313564 
L 206.045316 204.385723 
L 205.115015 206.457883 
L 204.243954 208.530043 
L 203.42687 210.602202 
L 202.660862 212.674362 
L 201.945449 214.746521 
L 201.281967 216.818681 
L 200.672509 218.890841 
L 200.11869 220.963 
L 199.620562 223.03516 
L 199.175954 225.10732 
L 198.780389 227.179479 
L 198.427574 229.251639 
L 198.110334 231.323798 
L 197.82173 233.395958 
L 197.55609 235.468118 
L 197.309715 237.540277 
L 197.081106 239.612437 
L 196.870718 241.684597 
L 196.680312 243.756756 
L 196.512097 245.828916 
L 196.367859 247.901075 
L 196.248232 249.973235 
L 196.152251 252.045395 
L 196.077212 254.117554 
L 196.018844 256.189714 
L 195.971717 258.261873 
L 195.929821 260.334033 
L 195.887225 262.406193 
L 195.838713 264.478352 
L 195.78033 266.550512 
L 195.709772 268.622672 
L 195.626551 270.694831 
z
" clip-path="url(#p569323ea63)" style="fill: #1f77b4; fill-opacity: 0.3"/>
   </g>
   <g id="PolyCollection_3">
    <path d="M 278.75393 247.87866 
L 277.020112 247.87866 
L 276.915684 245.977669 
L 276.809774 244.076679 
L 276.700736 242.175688 
L 276.586315 240.274697 
L 276.464111 238.373706 
L 276.332006 236.472715 
L 276.188425 234.571724 
L 276.032321 232.670733 
L 275.862881 230.769742 
L 275.679016 228.868751 
L 275.478825 226.96776 
L 275.259166 225.066769 
L 275.015491 223.165778 
L 274.741948 221.264787 
L 274.431682 219.363796 
L 274.077184 217.462805 
L 273.670571 215.561814 
L 273.203753 213.660823 
L 272.668576 211.759832 
L 272.057109 209.858841 
L 271.362254 207.95785 
L 270.578778 206.056859 
L 269.704678 204.155868 
L 268.742645 202.254877 
L 267.70126 200.353886 
L 266.595587 198.452895 
L 265.446936 196.551904 
L 264.281736 194.650913 
L 263.129644 192.749922 
L 262.021102 190.848932 
L 260.984554 188.947941 
L 260.043522 187.04695 
L 259.213707 185.145959 
L 258.500324 183.244968 
L 257.896061 181.343977 
L 257.380123 179.442986 
L 256.918926 177.541995 
L 256.468818 175.641004 
L 255.980843 173.740013 
L 255.407053 171.839022 
L 254.70735 169.938031 
L 253.855545 168.03704 
L 252.843388 166.136049 
L 251.681716 164.235058 
L 250.398593 162.334067 
L 249.035028 160.433076 
L 247.639434 158.532085 
L 246.262128 156.631094 
L 244.950971 154.730103 
L 243.748676 152.829112 
L 242.691683 150.928121 
L 241.810024 149.02713 
L 241.127422 147.126139 
L 240.661026 145.225148 
L 240.420638 143.324157 
L 240.407661 141.423166 
L 240.614383 139.522176 
L 241.024167 137.621185 
L 241.612935 135.720194 
L 242.351937 133.819203 
L 243.211385 131.918212 
L 244.164293 130.017221 
L 245.189751 128.11623 
L 246.275021 126.215239 
L 247.416049 124.314248 
L 248.616343 122.413257 
L 249.884456 120.512266 
L 251.230566 118.611275 
L 252.662825 116.710284 
L 254.184144 114.809293 
L 255.790025 112.908302 
L 257.467756 111.007311 
L 259.197033 109.10632 
L 260.951722 107.205329 
L 262.702279 105.304338 
L 264.418286 103.403347 
L 266.070656 101.502356 
L 267.63328 99.601365 
L 269.084115 97.700374 
L 270.40587 95.799383 
L 271.586486 93.898392 
L 272.619525 91.997401 
L 273.504434 90.09641 
L 274.246526 88.195419 
L 274.856494 86.294429 
L 275.349347 84.393438 
L 275.742803 82.492447 
L 276.055377 80.591456 
L 276.304515 78.690465 
L 276.505134 76.789474 
L 276.668849 74.888483 
L 276.803953 72.987492 
L 276.916054 71.086501 
L 277.009063 69.18551 
L 277.086207 67.284519 
L 277.150774 65.383528 
L 277.206411 63.482537 
L 277.256978 61.581546 
L 277.306101 59.680555 
L 278.46794 59.680555 
L 278.46794 59.680555 
L 278.517063 61.581546 
L 278.567631 63.482537 
L 278.623268 65.383528 
L 278.687835 67.284519 
L 278.764979 69.18551 
L 278.857987 71.086501 
L 278.970088 72.987492 
L 279.105193 74.888483 
L 279.268907 76.789474 
L 279.469527 78.690465 
L 279.718665 80.591456 
L 280.031239 82.492447 
L 280.424695 84.393438 
L 280.917548 86.294429 
L 281.527516 88.195419 
L 282.269608 90.09641 
L 283.154517 91.997401 
L 284.187556 93.898392 
L 285.368172 95.799383 
L 286.689927 97.700374 
L 288.140762 99.601365 
L 289.703386 101.502356 
L 291.355756 103.403347 
L 293.071762 105.304338 
L 294.82232 107.205329 
L 296.577009 109.10632 
L 298.306286 111.007311 
L 299.984017 112.908302 
L 301.589897 114.809293 
L 303.111217 116.710284 
L 304.543475 118.611275 
L 305.889586 120.512266 
L 307.157698 122.413257 
L 308.357992 124.314248 
L 309.49902 126.215239 
L 310.58429 128.11623 
L 311.609749 130.017221 
L 312.562657 131.918212 
L 313.422105 133.819203 
L 314.161106 135.720194 
L 314.749875 137.621185 
L 315.159659 139.522176 
L 315.366381 141.423166 
L 315.353404 143.324157 
L 315.113015 145.225148 
L 314.64662 147.126139 
L 313.964017 149.02713 
L 313.082359 150.928121 
L 312.025366 152.829112 
L 310.823071 154.730103 
L 309.511914 156.631094 
L 308.134608 158.532085 
L 306.739014 160.433076 
L 305.375449 162.334067 
L 304.092325 164.235058 
L 302.930653 166.136049 
L 301.918496 168.03704 
L 301.066692 169.938031 
L 300.366989 171.839022 
L 299.793199 173.740013 
L 299.305224 175.641004 
L 298.855115 177.541995 
L 298.393919 179.442986 
L 297.877981 181.343977 
L 297.273718 183.244968 
L 296.560335 185.145959 
L 295.730519 187.04695 
L 294.789488 188.947941 
L 293.75294 190.848932 
L 292.644397 192.749922 
L 291.492306 194.650913 
L 290.327105 196.551904 
L 289.178455 198.452895 
L 288.072782 200.353886 
L 287.031397 202.254877 
L 286.069364 204.155868 
L 285.195264 206.056859 
L 284.411788 207.95785 
L 283.716932 209.858841 
L 283.105465 211.759832 
L 282.570289 213.660823 
L 282.103471 215.561814 
L 281.696857 217.462805 
L 281.34236 219.363796 
L 281.032094 221.264787 
L 280.758551 223.165778 
L 280.514876 225.066769 
L 280.295216 226.96776 
L 280.095025 228.868751 
L 279.911161 230.769742 
L 279.74172 232.670733 
L 279.585617 234.571724 
L 279.442036 236.472715 
L 279.30993 238.373706 
L 279.187726 240.274697 
L 279.073306 242.175688 
L 278.964267 244.076679 
L 278.858357 245.977669 
L 278.75393 247.87866 
z
" clip-path="url(#p569323ea63)" style="fill: #1f77b4; fill-opacity: 0.3"/>
   </g>
   <g id="PolyCollection_4">
    <path d="M 364.35247 229.863771 
L 357.663355 229.863771 
L 357.199235 228.083005 
L 356.725982 226.30224 
L 356.247657 224.521474 
L 355.766916 222.740709 
L 355.285222 220.959944 
L 354.803302 219.179178 
L 354.321709 217.398413 
L 353.841319 215.617648 
L 353.363595 213.836882 
L 352.890539 212.056117 
L 352.424272 210.275352 
L 351.966353 208.494586 
L 351.516965 206.713821 
L 351.074175 204.933055 
L 350.633468 203.15229 
L 350.187696 201.371525 
L 349.727479 199.590759 
L 349.242002 197.809994 
L 348.720055 196.029229 
L 348.151074 194.248463 
L 347.525992 192.467698 
L 346.837715 190.686933 
L 346.081184 188.906167 
L 345.253081 187.125402 
L 344.351332 185.344637 
L 343.374656 183.563871 
L 342.322358 181.783106 
L 341.194555 180.00234 
L 339.992875 178.221575 
L 338.721537 176.44081 
L 337.388626 174.660044 
L 336.007234 172.879279 
L 334.596145 171.098514 
L 333.179765 169.317748 
L 331.787127 167.536983 
L 330.44995 165.756218 
L 329.199956 163.975452 
L 328.065794 162.194687 
L 327.070024 160.413922 
L 326.226678 158.633156 
L 325.539778 156.852391 
L 325.003088 155.071625 
L 324.60116 153.29086 
L 324.311517 151.510095 
L 324.107705 149.729329 
L 323.962793 147.948564 
L 323.852892 146.167799 
L 323.760289 144.387033 
L 323.675831 142.606268 
L 323.600296 140.825503 
L 323.544565 139.044737 
L 323.528553 137.263972 
L 323.578939 135.483207 
L 323.725928 133.702441 
L 323.999378 131.921676 
L 324.4248 130.14091 
L 325.019776 128.360145 
L 325.791366 126.57938 
L 326.734957 124.798614 
L 327.834791 123.017849 
L 329.06615 121.237084 
L 330.398843 119.456318 
L 331.801387 117.675553 
L 333.245118 115.894788 
L 334.707472 114.114022 
L 336.173842 112.333257 
L 337.637706 110.552491 
L 339.099111 108.771726 
L 340.56193 106.990961 
L 342.030543 105.210195 
L 343.506721 103.42943 
L 344.987339 101.648665 
L 346.46336 99.867899 
L 347.920197 98.087134 
L 349.339248 96.306369 
L 350.700178 94.525603 
L 351.983424 92.744838 
L 353.172399 90.964073 
L 354.255052 89.183307 
L 355.224613 87.402542 
L 356.079526 85.621776 
L 356.822779 83.841011 
L 357.460848 82.060246 
L 358.00252 80.27948 
L 358.457803 78.498715 
L 358.837029 76.71795 
L 359.150218 74.937184 
L 359.406685 73.156419 
L 359.614857 71.375654 
L 359.782248 69.594888 
L 359.915543 67.814123 
L 360.020745 66.033358 
L 360.103342 64.252592 
L 360.168435 62.471827 
L 360.220822 60.691061 
L 360.264982 58.910296 
L 360.304974 57.129531 
L 360.344264 55.348765 
L 360.385537 53.568 
L 361.630289 53.568 
L 361.630289 53.568 
L 361.671561 55.348765 
L 361.710852 57.129531 
L 361.750843 58.910296 
L 361.795003 60.691061 
L 361.847391 62.471827 
L 361.912484 64.252592 
L 361.99508 66.033358 
L 362.100283 67.814123 
L 362.233578 69.594888 
L 362.400968 71.375654 
L 362.60914 73.156419 
L 362.865607 74.937184 
L 363.178797 76.71795 
L 363.558023 78.498715 
L 364.013305 80.27948 
L 364.554978 82.060246 
L 365.193046 83.841011 
L 365.936299 85.621776 
L 366.791213 87.402542 
L 367.760773 89.183307 
L 368.843427 90.964073 
L 370.032401 92.744838 
L 371.315647 94.525603 
L 372.676578 96.306369 
L 374.095628 98.087134 
L 375.552465 99.867899 
L 377.028486 101.648665 
L 378.509104 103.42943 
L 379.985282 105.210195 
L 381.453896 106.990961 
L 382.916714 108.771726 
L 384.37812 110.552491 
L 385.841984 112.333257 
L 387.308353 114.114022 
L 388.770708 115.894788 
L 390.214438 117.675553 
L 391.616982 119.456318 
L 392.949676 121.237084 
L 394.181034 123.017849 
L 395.280868 124.798614 
L 396.224459 126.57938 
L 396.99605 128.360145 
L 397.591026 130.14091 
L 398.016447 131.921676 
L 398.289897 133.702441 
L 398.436886 135.483207 
L 398.487273 137.263972 
L 398.471261 139.044737 
L 398.41553 140.825503 
L 398.339994 142.606268 
L 398.255536 144.387033 
L 398.162933 146.167799 
L 398.053033 147.948564 
L 397.90812 149.729329 
L 397.704309 151.510095 
L 397.414666 153.29086 
L 397.012737 155.071625 
L 396.476048 156.852391 
L 395.789148 158.633156 
L 394.945801 160.413922 
L 393.950032 162.194687 
L 392.815869 163.975452 
L 391.565876 165.756218 
L 390.228698 167.536983 
L 388.83606 169.317748 
L 387.419681 171.098514 
L 386.008592 172.879279 
L 384.627199 174.660044 
L 383.294288 176.44081 
L 382.02295 178.221575 
L 380.82127 180.00234 
L 379.693468 181.783106 
L 378.641169 183.563871 
L 377.664493 185.344637 
L 376.762745 187.125402 
L 375.934641 188.906167 
L 375.178111 190.686933 
L 374.489833 192.467698 
L 373.864751 194.248463 
L 373.295771 196.029229 
L 372.773823 197.809994 
L 372.288347 199.590759 
L 371.828129 201.371525 
L 371.382357 203.15229 
L 370.941651 204.933055 
L 370.49886 206.713821 
L 370.049472 208.494586 
L 369.591554 210.275352 
L 369.125287 212.056117 
L 368.65223 213.836882 
L 368.174507 215.617648 
L 367.694116 217.398413 
L 367.212524 219.179178 
L 366.730604 220.959944 
L 366.248909 222.740709 
L 365.768168 224.521474 
L 365.289843 226.30224 
L 364.81659 228.083005 
L 364.35247 229.863771 
z
" clip-path="url(#p569323ea63)" style="fill: #1f77b4; fill-opacity: 0.3"/>
   </g>
   <g id="matplotlib.axis_1">
    <g id="xtick_1">
     <g id="line2d_1">
      <defs>
       <path id="m709d632537" d="M 0 0 
L 0 3.5 
" style="stroke: #000000; stroke-width: 0.8"/>
      </defs>
      <g>
       <use xlink:href="#m709d632537" x="69.668354" y="307.584" style="stroke: #000000; stroke-width: 0.8"/>
      </g>
     </g>
     <g id="text_1">
      <!-- 250 -->
      <g transform="translate(60.124604 322.182437)scale(0.1 -0.1)">
       <defs>
        <path id="DejaVuSans-32" d="M 1228 531 
L 3431 531 
L 3431 0 
L 469 0 
L 469 531 
Q 828 903 1448 1529 
Q 2069 2156 2228 2338 
Q 2531 2678 2651 2914 
Q 2772 3150 2772 3378 
Q 2772 3750 2511 3984 
Q 2250 4219 1831 4219 
Q 1534 4219 1204 4116 
Q 875 4013 500 3803 
L 500 4441 
Q 881 4594 1212 4672 
Q 1544 4750 1819 4750 
Q 2544 4750 2975 4387 
Q 3406 4025 3406 3419 
Q 3406 3131 3298 2873 
Q 3191 2616 2906 2266 
Q 2828 2175 2409 1742 
Q 1991 1309 1228 531 
z
" transform="scale(0.015625)"/>
        <path id="DejaVuSans-35" d="M 691 4666 
L 3169 4666 
L 3169 4134 
L 1269 4134 
L 1269 2991 
Q 1406 3038 1543 3061 
Q 1681 3084 1819 3084 
Q 2600 3084 3056 2656 
Q 3513 2228 3513 1497 
Q 3513 744 3044 326 
Q 2575 -91 1722 -91 
Q 1428 -91 1123 -41 
Q 819 9 494 109 
L 494 744 
Q 775 591 1075 516 
Q 1375 441 1709 441 
Q 2250 441 2565 725 
Q 2881 1009 2881 1497 
Q 2881 1984 2565 2268 
Q 2250 2553 1709 2553 
Q 1456 2553 1204 2497 
Q 953 2441 691 2322 
L 691 4666 
z
" transform="scale(0.015625)"/>
        <path id="DejaVuSans-30" d="M 2034 4250 
Q 1547 4250 1301 3770 
Q 1056 3291 1056 2328 
Q 1056 1369 1301 889 
Q 1547 409 2034 409 
Q 2525 409 2770 889 
Q 3016 1369 3016 2328 
Q 3016 3291 2770 3770 
Q 2525 4250 2034 4250 
z
M 2034 4750 
Q 2819 4750 3233 4129 
Q 3647 3509 3647 2328 
Q 3647 1150 3233 529 
Q 2819 -91 2034 -91 
Q 1250 -91 836 529 
Q 422 1150 422 2328 
Q 422 3509 836 4129 
Q 1250 4750 2034 4750 
z
" transform="scale(0.015625)"/>
       </defs>
       <use xlink:href="#DejaVuSans-32"/>
       <use xlink:href="#DejaVuSans-35" x="63.623047"/>
       <use xlink:href="#DejaVuSans-30" x="127.246094"/>
      </g>
     </g>
    </g>
    <g id="xtick_2">
     <g id="line2d_2">
      <g>
       <use xlink:href="#m709d632537" x="111.312087" y="307.584" style="stroke: #000000; stroke-width: 0.8"/>
      </g>
     </g>
     <g id="text_2">
      <!-- 500 -->
      <g transform="translate(101.768337 322.182437)scale(0.1 -0.1)">
       <use xlink:href="#DejaVuSans-35"/>
       <use xlink:href="#DejaVuSans-30" x="63.623047"/>
       <use xlink:href="#DejaVuSans-30" x="127.246094"/>
      </g>
     </g>
    </g>
    <g id="xtick_3">
     <g id="line2d_3">
      <g>
       <use xlink:href="#m709d632537" x="152.955821" y="307.584" style="stroke: #000000; stroke-width: 0.8"/>
      </g>
     </g>
     <g id="text_3">
      <!-- 750 -->
      <g transform="translate(143.412071 322.182437)scale(0.1 -0.1)">
       <defs>
        <path id="DejaVuSans-37" d="M 525 4666 
L 3525 4666 
L 3525 4397 
L 1831 0 
L 1172 0 
L 2766 4134 
L 525 4134 
L 525 4666 
z
" transform="scale(0.015625)"/>
       </defs>
       <use xlink:href="#DejaVuSans-37"/>
       <use xlink:href="#DejaVuSans-35" x="63.623047"/>
       <use xlink:href="#DejaVuSans-30" x="127.246094"/>
      </g>
     </g>
    </g>
    <g id="xtick_4">
     <g id="line2d_4">
      <g>
       <use xlink:href="#m709d632537" x="194.599554" y="307.584" style="stroke: #000000; stroke-width: 0.8"/>
      </g>
     </g>
     <g id="text_4">
      <!-- 1000 -->
      <g transform="translate(181.874554 322.182437)scale(0.1 -0.1)">
       <defs>
        <path id="DejaVuSans-31" d="M 794 531 
L 1825 531 
L 1825 4091 
L 703 3866 
L 703 4441 
L 1819 4666 
L 2450 4666 
L 2450 531 
L 3481 531 
L 3481 0 
L 794 0 
L 794 531 
z
" transform="scale(0.015625)"/>
       </defs>
       <use xlink:href="#DejaVuSans-31"/>
       <use xlink:href="#DejaVuSans-30" x="63.623047"/>
       <use xlink:href="#DejaVuSans-30" x="127.246094"/>
       <use xlink:href="#DejaVuSans-30" x="190.869141"/>
      </g>
     </g>
    </g>
    <g id="xtick_5">
     <g id="line2d_5">
      <g>
       <use xlink:href="#m709d632537" x="236.243287" y="307.584" style="stroke: #000000; stroke-width: 0.8"/>
      </g>
     </g>
     <g id="text_5">
      <!-- 1250 -->
      <g transform="translate(223.518287 322.182437)scale(0.1 -0.1)">
       <use xlink:href="#DejaVuSans-31"/>
       <use xlink:href="#DejaVuSans-32" x="63.623047"/>
       <use xlink:href="#DejaVuSans-35" x="127.246094"/>
       <use xlink:href="#DejaVuSans-30" x="190.869141"/>
      </g>
     </g>
    </g>
    <g id="xtick_6">
     <g id="line2d_6">
      <g>
       <use xlink:href="#m709d632537" x="277.887021" y="307.584" style="stroke: #000000; stroke-width: 0.8"/>
      </g>
     </g>
     <g id="text_6">
      <!-- 1500 -->
      <g transform="translate(265.162021 322.182437)scale(0.1 -0.1)">
       <use xlink:href="#DejaVuSans-31"/>
       <use xlink:href="#DejaVuSans-35" x="63.623047"/>
       <use xlink:href="#DejaVuSans-30" x="127.246094"/>
       <use xlink:href="#DejaVuSans-30" x="190.869141"/>
      </g>
     </g>
    </g>
    <g id="xtick_7">
     <g id="line2d_7">
      <g>
       <use xlink:href="#m709d632537" x="319.530754" y="307.584" style="stroke: #000000; stroke-width: 0.8"/>
      </g>
     </g>
     <g id="text_7">
      <!-- 1750 -->
      <g transform="translate(306.805754 322.182437)scale(0.1 -0.1)">
       <use xlink:href="#DejaVuSans-31"/>
       <use xlink:href="#DejaVuSans-37" x="63.623047"/>
       <use xlink:href="#DejaVuSans-35" x="127.246094"/>
       <use xlink:href="#DejaVuSans-30" x="190.869141"/>
      </g>
     </g>
    </g>
    <g id="xtick_8">
     <g id="line2d_8">
      <g>
       <use xlink:href="#m709d632537" x="361.174488" y="307.584" style="stroke: #000000; stroke-width: 0.8"/>
      </g>
     </g>
     <g id="text_8">
      <!-- 2000 -->
      <g transform="translate(348.449488 322.182437)scale(0.1 -0.1)">
       <use xlink:href="#DejaVuSans-32"/>
       <use xlink:href="#DejaVuSans-30" x="63.623047"/>
       <use xlink:href="#DejaVuSans-30" x="127.246094"/>
       <use xlink:href="#DejaVuSans-30" x="190.869141"/>
      </g>
     </g>
    </g>
    <g id="xtick_9">
     <g id="line2d_9">
      <g>
       <use xlink:href="#m709d632537" x="402.818221" y="307.584" style="stroke: #000000; stroke-width: 0.8"/>
      </g>
     </g>
     <g id="text_9">
      <!-- 2250 -->
      <g transform="translate(390.093221 322.182437)scale(0.1 -0.1)">
       <use xlink:href="#DejaVuSans-32"/>
       <use xlink:href="#DejaVuSans-32" x="63.623047"/>
       <use xlink:href="#DejaVuSans-35" x="127.246094"/>
       <use xlink:href="#DejaVuSans-30" x="190.869141"/>
      </g>
     </g>
    </g>
    <g id="text_10">
     <!-- Learned Episodes -->
     <g transform="translate(192.102187 335.860562)scale(0.1 -0.1)">
      <defs>
       <path id="DejaVuSans-4c" d="M 628 4666 
L 1259 4666 
L 1259 531 
L 3531 531 
L 3531 0 
L 628 0 
L 628 4666 
z
" transform="scale(0.015625)"/>
       <path id="DejaVuSans-65" d="M 3597 1894 
L 3597 1613 
L 953 1613 
Q 991 1019 1311 708 
Q 1631 397 2203 397 
Q 2534 397 2845 478 
Q 3156 559 3463 722 
L 3463 178 
Q 3153 47 2828 -22 
Q 2503 -91 2169 -91 
Q 1331 -91 842 396 
Q 353 884 353 1716 
Q 353 2575 817 3079 
Q 1281 3584 2069 3584 
Q 2775 3584 3186 3129 
Q 3597 2675 3597 1894 
z
M 3022 2063 
Q 3016 2534 2758 2815 
Q 2500 3097 2075 3097 
Q 1594 3097 1305 2825 
Q 1016 2553 972 2059 
L 3022 2063 
z
" transform="scale(0.015625)"/>
       <path id="DejaVuSans-61" d="M 2194 1759 
Q 1497 1759 1228 1600 
Q 959 1441 959 1056 
Q 959 750 1161 570 
Q 1363 391 1709 391 
Q 2188 391 2477 730 
Q 2766 1069 2766 1631 
L 2766 1759 
L 2194 1759 
z
M 3341 1997 
L 3341 0 
L 2766 0 
L 2766 531 
Q 2569 213 2275 61 
Q 1981 -91 1556 -91 
Q 1019 -91 701 211 
Q 384 513 384 1019 
Q 384 1609 779 1909 
Q 1175 2209 1959 2209 
L 2766 2209 
L 2766 2266 
Q 2766 2663 2505 2880 
Q 2244 3097 1772 3097 
Q 1472 3097 1187 3025 
Q 903 2953 641 2809 
L 641 3341 
Q 956 3463 1253 3523 
Q 1550 3584 1831 3584 
Q 2591 3584 2966 3190 
Q 3341 2797 3341 1997 
z
" transform="scale(0.015625)"/>
       <path id="DejaVuSans-72" d="M 2631 2963 
Q 2534 3019 2420 3045 
Q 2306 3072 2169 3072 
Q 1681 3072 1420 2755 
Q 1159 2438 1159 1844 
L 1159 0 
L 581 0 
L 581 3500 
L 1159 3500 
L 1159 2956 
Q 1341 3275 1631 3429 
Q 1922 3584 2338 3584 
Q 2397 3584 2469 3576 
Q 2541 3569 2628 3553 
L 2631 2963 
z
" transform="scale(0.015625)"/>
       <path id="DejaVuSans-6e" d="M 3513 2113 
L 3513 0 
L 2938 0 
L 2938 2094 
Q 2938 2591 2744 2837 
Q 2550 3084 2163 3084 
Q 1697 3084 1428 2787 
Q 1159 2491 1159 1978 
L 1159 0 
L 581 0 
L 581 3500 
L 1159 3500 
L 1159 2956 
Q 1366 3272 1645 3428 
Q 1925 3584 2291 3584 
Q 2894 3584 3203 3211 
Q 3513 2838 3513 2113 
z
" transform="scale(0.015625)"/>
       <path id="DejaVuSans-64" d="M 2906 2969 
L 2906 4863 
L 3481 4863 
L 3481 0 
L 2906 0 
L 2906 525 
Q 2725 213 2448 61 
Q 2172 -91 1784 -91 
Q 1150 -91 751 415 
Q 353 922 353 1747 
Q 353 2572 751 3078 
Q 1150 3584 1784 3584 
Q 2172 3584 2448 3432 
Q 2725 3281 2906 2969 
z
M 947 1747 
Q 947 1113 1208 752 
Q 1469 391 1925 391 
Q 2381 391 2643 752 
Q 2906 1113 2906 1747 
Q 2906 2381 2643 2742 
Q 2381 3103 1925 3103 
Q 1469 3103 1208 2742 
Q 947 2381 947 1747 
z
" transform="scale(0.015625)"/>
       <path id="DejaVuSans-20" transform="scale(0.015625)"/>
       <path id="DejaVuSans-45" d="M 628 4666 
L 3578 4666 
L 3578 4134 
L 1259 4134 
L 1259 2753 
L 3481 2753 
L 3481 2222 
L 1259 2222 
L 1259 531 
L 3634 531 
L 3634 0 
L 628 0 
L 628 4666 
z
" transform="scale(0.015625)"/>
       <path id="DejaVuSans-70" d="M 1159 525 
L 1159 -1331 
L 581 -1331 
L 581 3500 
L 1159 3500 
L 1159 2969 
Q 1341 3281 1617 3432 
Q 1894 3584 2278 3584 
Q 2916 3584 3314 3078 
Q 3713 2572 3713 1747 
Q 3713 922 3314 415 
Q 2916 -91 2278 -91 
Q 1894 -91 1617 61 
Q 1341 213 1159 525 
z
M 3116 1747 
Q 3116 2381 2855 2742 
Q 2594 3103 2138 3103 
Q 1681 3103 1420 2742 
Q 1159 2381 1159 1747 
Q 1159 1113 1420 752 
Q 1681 391 2138 391 
Q 2594 391 2855 752 
Q 3116 1113 3116 1747 
z
" transform="scale(0.015625)"/>
       <path id="DejaVuSans-69" d="M 603 3500 
L 1178 3500 
L 1178 0 
L 603 0 
L 603 3500 
z
M 603 4863 
L 1178 4863 
L 1178 4134 
L 603 4134 
L 603 4863 
z
" transform="scale(0.015625)"/>
       <path id="DejaVuSans-73" d="M 2834 3397 
L 2834 2853 
Q 2591 2978 2328 3040 
Q 2066 3103 1784 3103 
Q 1356 3103 1142 2972 
Q 928 2841 928 2578 
Q 928 2378 1081 2264 
Q 1234 2150 1697 2047 
L 1894 2003 
Q 2506 1872 2764 1633 
Q 3022 1394 3022 966 
Q 3022 478 2636 193 
Q 2250 -91 1575 -91 
Q 1294 -91 989 -36 
Q 684 19 347 128 
L 347 722 
Q 666 556 975 473 
Q 1284 391 1588 391 
Q 1994 391 2212 530 
Q 2431 669 2431 922 
Q 2431 1156 2273 1281 
Q 2116 1406 1581 1522 
L 1381 1569 
Q 847 1681 609 1914 
Q 372 2147 372 2553 
Q 372 3047 722 3315 
Q 1072 3584 1716 3584 
Q 2034 3584 2315 3537 
Q 2597 3491 2834 3397 
z
" transform="scale(0.015625)"/>
       <path id="DejaVuSans-6f" d="M 1959 3097 
Q 1497 3097 1228 2736 
Q 959 2375 959 1747 
Q 959 1119 1226 758 
Q 1494 397 1959 397 
Q 2419 397 2687 759 
Q 2956 1122 2956 1747 
Q 2956 2369 2687 2733 
Q 2419 3097 1959 3097 
z
M 1959 3584 
Q 2709 3584 3137 3096 
Q 3566 2609 3566 1747 
Q 3566 888 3137 398 
Q 2709 -91 1959 -91 
Q 1206 -91 779 398 
Q 353 888 353 1747 
Q 353 2609 779 3096 
Q 1206 3584 1959 3584 
z
" transform="scale(0.015625)"/>
      </defs>
      <use xlink:href="#DejaVuSans-4c"/>
      <use xlink:href="#DejaVuSans-65" x="53.962891"/>
      <use xlink:href="#DejaVuSans-61" x="115.486328"/>
      <use xlink:href="#DejaVuSans-72" x="176.765625"/>
      <use xlink:href="#DejaVuSans-6e" x="216.128906"/>
      <use xlink:href="#DejaVuSans-65" x="279.507812"/>
      <use xlink:href="#DejaVuSans-64" x="341.03125"/>
      <use xlink:href="#DejaVuSans-20" x="404.507812"/>
      <use xlink:href="#DejaVuSans-45" x="436.294922"/>
      <use xlink:href="#DejaVuSans-70" x="499.478516"/>
      <use xlink:href="#DejaVuSans-69" x="562.955078"/>
      <use xlink:href="#DejaVuSans-73" x="590.738281"/>
      <use xlink:href="#DejaVuSans-6f" x="642.837891"/>
      <use xlink:href="#DejaVuSans-64" x="704.019531"/>
      <use xlink:href="#DejaVuSans-65" x="767.496094"/>
      <use xlink:href="#DejaVuSans-73" x="829.019531"/>
     </g>
    </g>
   </g>
   <g id="matplotlib.axis_2">
    <g id="ytick_1">
     <g id="line2d_10">
      <defs>
       <path id="m228cdf15d8" d="M 0 0 
L -3.5 0 
" style="stroke: #000000; stroke-width: 0.8"/>
      </defs>
      <g>
       <use xlink:href="#m228cdf15d8" x="57.6" y="290.969147" style="stroke: #000000; stroke-width: 0.8"/>
      </g>
     </g>
     <g id="text_11">
      <!-- 0 -->
      <g transform="translate(44.2375 294.768366)scale(0.1 -0.1)">
       <use xlink:href="#DejaVuSans-30"/>
      </g>
     </g>
    </g>
    <g id="ytick_2">
     <g id="line2d_11">
      <g>
       <use xlink:href="#m228cdf15d8" x="57.6" y="250.622249" style="stroke: #000000; stroke-width: 0.8"/>
      </g>
     </g>
     <g id="text_12">
      <!-- 200 -->
      <g transform="translate(31.5125 254.421468)scale(0.1 -0.1)">
       <use xlink:href="#DejaVuSans-32"/>
       <use xlink:href="#DejaVuSans-30" x="63.623047"/>
       <use xlink:href="#DejaVuSans-30" x="127.246094"/>
      </g>
     </g>
    </g>
    <g id="ytick_3">
     <g id="line2d_12">
      <g>
       <use xlink:href="#m228cdf15d8" x="57.6" y="210.275352" style="stroke: #000000; stroke-width: 0.8"/>
      </g>
     </g>
     <g id="text_13">
      <!-- 400 -->
      <g transform="translate(31.5125 214.07457)scale(0.1 -0.1)">
       <defs>
        <path id="DejaVuSans-34" d="M 2419 4116 
L 825 1625 
L 2419 1625 
L 2419 4116 
z
M 2253 4666 
L 3047 4666 
L 3047 1625 
L 3713 1625 
L 3713 1100 
L 3047 1100 
L 3047 0 
L 2419 0 
L 2419 1100 
L 313 1100 
L 313 1709 
L 2253 4666 
z
" transform="scale(0.015625)"/>
       </defs>
       <use xlink:href="#DejaVuSans-34"/>
       <use xlink:href="#DejaVuSans-30" x="63.623047"/>
       <use xlink:href="#DejaVuSans-30" x="127.246094"/>
      </g>
     </g>
    </g>
    <g id="ytick_4">
     <g id="line2d_13">
      <g>
       <use xlink:href="#m228cdf15d8" x="57.6" y="169.928454" style="stroke: #000000; stroke-width: 0.8"/>
      </g>
     </g>
     <g id="text_14">
      <!-- 600 -->
      <g transform="translate(31.5125 173.727672)scale(0.1 -0.1)">
       <defs>
        <path id="DejaVuSans-36" d="M 2113 2584 
Q 1688 2584 1439 2293 
Q 1191 2003 1191 1497 
Q 1191 994 1439 701 
Q 1688 409 2113 409 
Q 2538 409 2786 701 
Q 3034 994 3034 1497 
Q 3034 2003 2786 2293 
Q 2538 2584 2113 2584 
z
M 3366 4563 
L 3366 3988 
Q 3128 4100 2886 4159 
Q 2644 4219 2406 4219 
Q 1781 4219 1451 3797 
Q 1122 3375 1075 2522 
Q 1259 2794 1537 2939 
Q 1816 3084 2150 3084 
Q 2853 3084 3261 2657 
Q 3669 2231 3669 1497 
Q 3669 778 3244 343 
Q 2819 -91 2113 -91 
Q 1303 -91 875 529 
Q 447 1150 447 2328 
Q 447 3434 972 4092 
Q 1497 4750 2381 4750 
Q 2619 4750 2861 4703 
Q 3103 4656 3366 4563 
z
" transform="scale(0.015625)"/>
       </defs>
       <use xlink:href="#DejaVuSans-36"/>
       <use xlink:href="#DejaVuSans-30" x="63.623047"/>
       <use xlink:href="#DejaVuSans-30" x="127.246094"/>
      </g>
     </g>
    </g>
    <g id="ytick_5">
     <g id="line2d_14">
      <g>
       <use xlink:href="#m228cdf15d8" x="57.6" y="129.581556" style="stroke: #000000; stroke-width: 0.8"/>
      </g>
     </g>
     <g id="text_15">
      <!-- 800 -->
      <g transform="translate(31.5125 133.380774)scale(0.1 -0.1)">
       <defs>
        <path id="DejaVuSans-38" d="M 2034 2216 
Q 1584 2216 1326 1975 
Q 1069 1734 1069 1313 
Q 1069 891 1326 650 
Q 1584 409 2034 409 
Q 2484 409 2743 651 
Q 3003 894 3003 1313 
Q 3003 1734 2745 1975 
Q 2488 2216 2034 2216 
z
M 1403 2484 
Q 997 2584 770 2862 
Q 544 3141 544 3541 
Q 544 4100 942 4425 
Q 1341 4750 2034 4750 
Q 2731 4750 3128 4425 
Q 3525 4100 3525 3541 
Q 3525 3141 3298 2862 
Q 3072 2584 2669 2484 
Q 3125 2378 3379 2068 
Q 3634 1759 3634 1313 
Q 3634 634 3220 271 
Q 2806 -91 2034 -91 
Q 1263 -91 848 271 
Q 434 634 434 1313 
Q 434 1759 690 2068 
Q 947 2378 1403 2484 
z
M 1172 3481 
Q 1172 3119 1398 2916 
Q 1625 2713 2034 2713 
Q 2441 2713 2670 2916 
Q 2900 3119 2900 3481 
Q 2900 3844 2670 4047 
Q 2441 4250 2034 4250 
Q 1625 4250 1398 4047 
Q 1172 3844 1172 3481 
z
" transform="scale(0.015625)"/>
       </defs>
       <use xlink:href="#DejaVuSans-38"/>
       <use xlink:href="#DejaVuSans-30" x="63.623047"/>
       <use xlink:href="#DejaVuSans-30" x="127.246094"/>
      </g>
     </g>
    </g>
    <g id="ytick_6">
     <g id="line2d_15">
      <g>
       <use xlink:href="#m228cdf15d8" x="57.6" y="89.234658" style="stroke: #000000; stroke-width: 0.8"/>
      </g>
     </g>
     <g id="text_16">
      <!-- 1000 -->
      <g transform="translate(25.15 93.033877)scale(0.1 -0.1)">
       <use xlink:href="#DejaVuSans-31"/>
       <use xlink:href="#DejaVuSans-30" x="63.623047"/>
       <use xlink:href="#DejaVuSans-30" x="127.246094"/>
       <use xlink:href="#DejaVuSans-30" x="190.869141"/>
      </g>
     </g>
    </g>
    <g id="ytick_7">
     <g id="line2d_16">
      <g>
       <use xlink:href="#m228cdf15d8" x="57.6" y="48.88776" style="stroke: #000000; stroke-width: 0.8"/>
      </g>
     </g>
     <g id="text_17">
      <!-- 1200 -->
      <g transform="translate(25.15 52.686979)scale(0.1 -0.1)">
       <use xlink:href="#DejaVuSans-31"/>
       <use xlink:href="#DejaVuSans-32" x="63.623047"/>
       <use xlink:href="#DejaVuSans-30" x="127.246094"/>
       <use xlink:href="#DejaVuSans-30" x="190.869141"/>
      </g>
     </g>
    </g>
    <g id="text_18">
     <!-- Reward Density -->
     <g transform="translate(19.070312 213.74675)rotate(-90)scale(0.1 -0.1)">
      <defs>
       <path id="DejaVuSans-52" d="M 2841 2188 
Q 3044 2119 3236 1894 
Q 3428 1669 3622 1275 
L 4263 0 
L 3584 0 
L 2988 1197 
Q 2756 1666 2539 1819 
Q 2322 1972 1947 1972 
L 1259 1972 
L 1259 0 
L 628 0 
L 628 4666 
L 2053 4666 
Q 2853 4666 3247 4331 
Q 3641 3997 3641 3322 
Q 3641 2881 3436 2590 
Q 3231 2300 2841 2188 
z
M 1259 4147 
L 1259 2491 
L 2053 2491 
Q 2509 2491 2742 2702 
Q 2975 2913 2975 3322 
Q 2975 3731 2742 3939 
Q 2509 4147 2053 4147 
L 1259 4147 
z
" transform="scale(0.015625)"/>
       <path id="DejaVuSans-77" d="M 269 3500 
L 844 3500 
L 1563 769 
L 2278 3500 
L 2956 3500 
L 3675 769 
L 4391 3500 
L 4966 3500 
L 4050 0 
L 3372 0 
L 2619 2869 
L 1863 0 
L 1184 0 
L 269 3500 
z
" transform="scale(0.015625)"/>
       <path id="DejaVuSans-44" d="M 1259 4147 
L 1259 519 
L 2022 519 
Q 2988 519 3436 956 
Q 3884 1394 3884 2338 
Q 3884 3275 3436 3711 
Q 2988 4147 2022 4147 
L 1259 4147 
z
M 628 4666 
L 1925 4666 
Q 3281 4666 3915 4102 
Q 4550 3538 4550 2338 
Q 4550 1131 3912 565 
Q 3275 0 1925 0 
L 628 0 
L 628 4666 
z
" transform="scale(0.015625)"/>
       <path id="DejaVuSans-74" d="M 1172 4494 
L 1172 3500 
L 2356 3500 
L 2356 3053 
L 1172 3053 
L 1172 1153 
Q 1172 725 1289 603 
Q 1406 481 1766 481 
L 2356 481 
L 2356 0 
L 1766 0 
Q 1100 0 847 248 
Q 594 497 594 1153 
L 594 3053 
L 172 3053 
L 172 3500 
L 594 3500 
L 594 4494 
L 1172 4494 
z
" transform="scale(0.015625)"/>
       <path id="DejaVuSans-79" d="M 2059 -325 
Q 1816 -950 1584 -1140 
Q 1353 -1331 966 -1331 
L 506 -1331 
L 506 -850 
L 844 -850 
Q 1081 -850 1212 -737 
Q 1344 -625 1503 -206 
L 1606 56 
L 191 3500 
L 800 3500 
L 1894 763 
L 2988 3500 
L 3597 3500 
L 2059 -325 
z
" transform="scale(0.015625)"/>
      </defs>
      <use xlink:href="#DejaVuSans-52"/>
      <use xlink:href="#DejaVuSans-65" x="64.982422"/>
      <use xlink:href="#DejaVuSans-77" x="126.505859"/>
      <use xlink:href="#DejaVuSans-61" x="208.292969"/>
      <use xlink:href="#DejaVuSans-72" x="269.572266"/>
      <use xlink:href="#DejaVuSans-64" x="308.935547"/>
      <use xlink:href="#DejaVuSans-20" x="372.412109"/>
      <use xlink:href="#DejaVuSans-44" x="404.199219"/>
      <use xlink:href="#DejaVuSans-65" x="481.201172"/>
      <use xlink:href="#DejaVuSans-6e" x="542.724609"/>
      <use xlink:href="#DejaVuSans-73" x="606.103516"/>
      <use xlink:href="#DejaVuSans-69" x="658.203125"/>
      <use xlink:href="#DejaVuSans-74" x="685.986328"/>
      <use xlink:href="#DejaVuSans-79" x="725.195312"/>
     </g>
    </g>
   </g>
   <g id="LineCollection_1">
    <path d="M 92.572407 150.902632 
L 130.051767 150.902632 
" clip-path="url(#p569323ea63)" style="fill: none; stroke: #1f77b4; stroke-width: 1.5"/>
    <path d="M 175.859874 149.704732 
L 213.339234 149.704732 
" clip-path="url(#p569323ea63)" style="fill: none; stroke: #1f77b4; stroke-width: 1.5"/>
    <path d="M 259.147341 149.241469 
L 296.626701 149.241469 
" clip-path="url(#p569323ea63)" style="fill: none; stroke: #1f77b4; stroke-width: 1.5"/>
    <path d="M 342.268233 148.029933 
L 379.747593 148.029933 
" clip-path="url(#p569323ea63)" style="fill: none; stroke: #1f77b4; stroke-width: 1.5"/>
   </g>
   <g id="LineCollection_2">
    <path d="M 92.572407 57.058007 
L 130.051767 57.058007 
" clip-path="url(#p569323ea63)" style="fill: none; stroke: #1f77b4; stroke-width: 1.5"/>
    <path d="M 175.859874 65.551029 
L 213.339234 65.551029 
" clip-path="url(#p569323ea63)" style="fill: none; stroke: #1f77b4; stroke-width: 1.5"/>
    <path d="M 259.147341 59.680555 
L 296.626701 59.680555 
" clip-path="url(#p569323ea63)" style="fill: none; stroke: #1f77b4; stroke-width: 1.5"/>
    <path d="M 342.268233 53.568 
L 379.747593 53.568 
" clip-path="url(#p569323ea63)" style="fill: none; stroke: #1f77b4; stroke-width: 1.5"/>
   </g>
   <g id="LineCollection_3">
    <path d="M 92.572407 295.488 
L 130.051767 295.488 
" clip-path="url(#p569323ea63)" style="fill: none; stroke: #1f77b4; stroke-width: 1.5"/>
    <path d="M 175.859874 270.694831 
L 213.339234 270.694831 
" clip-path="url(#p569323ea63)" style="fill: none; stroke: #1f77b4; stroke-width: 1.5"/>
    <path d="M 259.147341 247.87866 
L 296.626701 247.87866 
" clip-path="url(#p569323ea63)" style="fill: none; stroke: #1f77b4; stroke-width: 1.5"/>
    <path d="M 342.268233 229.863771 
L 379.747593 229.863771 
" clip-path="url(#p569323ea63)" style="fill: none; stroke: #1f77b4; stroke-width: 1.5"/>
   </g>
   <g id="LineCollection_4">
    <path d="M 111.312087 295.488 
L 111.312087 57.058007 
" clip-path="url(#p569323ea63)" style="fill: none; stroke: #1f77b4; stroke-width: 1.5"/>
    <path d="M 194.599554 270.694831 
L 194.599554 65.551029 
" clip-path="url(#p569323ea63)" style="fill: none; stroke: #1f77b4; stroke-width: 1.5"/>
    <path d="M 277.887021 247.87866 
L 277.887021 59.680555 
" clip-path="url(#p569323ea63)" style="fill: none; stroke: #1f77b4; stroke-width: 1.5"/>
    <path d="M 361.007913 229.863771 
L 361.007913 53.568 
" clip-path="url(#p569323ea63)" style="fill: none; stroke: #1f77b4; stroke-width: 1.5"/>
   </g>
   <g id="line2d_17">
    <path d="M 111.312087 150.902632 
L 194.599554 149.704732 
L 277.887021 149.241469 
L 361.007913 148.029933 
" clip-path="url(#p569323ea63)" style="fill: none; stroke: #4682b4; stroke-width: 1.5; stroke-linecap: square"/>
   </g>
   <g id="patch_3">
    <path d="M 57.6 307.584 
L 57.6 41.472 
" style="fill: none; stroke: #000000; stroke-width: 0.8; stroke-linejoin: miter; stroke-linecap: square"/>
   </g>
   <g id="patch_4">
    <path d="M 414.72 307.584 
L 414.72 41.472 
" style="fill: none; stroke: #000000; stroke-width: 0.8; stroke-linejoin: miter; stroke-linecap: square"/>
   </g>
   <g id="patch_5">
    <path d="M 57.6 307.584 
L 414.72 307.584 
" style="fill: none; stroke: #000000; stroke-width: 0.8; stroke-linejoin: miter; stroke-linecap: square"/>
   </g>
   <g id="patch_6">
    <path d="M 57.6 41.472 
L 414.72 41.472 
" style="fill: none; stroke: #000000; stroke-width: 0.8; stroke-linejoin: miter; stroke-linecap: square"/>
   </g>
   <g id="text_19">
    <!-- Violinplot for progress of profits/all -->
    <g transform="translate(132.559687 35.472)scale(0.12 -0.12)">
     <defs>
      <path id="DejaVuSans-56" d="M 1831 0 
L 50 4666 
L 709 4666 
L 2188 738 
L 3669 4666 
L 4325 4666 
L 2547 0 
L 1831 0 
z
" transform="scale(0.015625)"/>
      <path id="DejaVuSans-6c" d="M 603 4863 
L 1178 4863 
L 1178 0 
L 603 0 
L 603 4863 
z
" transform="scale(0.015625)"/>
      <path id="DejaVuSans-66" d="M 2375 4863 
L 2375 4384 
L 1825 4384 
Q 1516 4384 1395 4259 
Q 1275 4134 1275 3809 
L 1275 3500 
L 2222 3500 
L 2222 3053 
L 1275 3053 
L 1275 0 
L 697 0 
L 697 3053 
L 147 3053 
L 147 3500 
L 697 3500 
L 697 3744 
Q 697 4328 969 4595 
Q 1241 4863 1831 4863 
L 2375 4863 
z
" transform="scale(0.015625)"/>
      <path id="DejaVuSans-67" d="M 2906 1791 
Q 2906 2416 2648 2759 
Q 2391 3103 1925 3103 
Q 1463 3103 1205 2759 
Q 947 2416 947 1791 
Q 947 1169 1205 825 
Q 1463 481 1925 481 
Q 2391 481 2648 825 
Q 2906 1169 2906 1791 
z
M 3481 434 
Q 3481 -459 3084 -895 
Q 2688 -1331 1869 -1331 
Q 1566 -1331 1297 -1286 
Q 1028 -1241 775 -1147 
L 775 -588 
Q 1028 -725 1275 -790 
Q 1522 -856 1778 -856 
Q 2344 -856 2625 -561 
Q 2906 -266 2906 331 
L 2906 616 
Q 2728 306 2450 153 
Q 2172 0 1784 0 
Q 1141 0 747 490 
Q 353 981 353 1791 
Q 353 2603 747 3093 
Q 1141 3584 1784 3584 
Q 2172 3584 2450 3431 
Q 2728 3278 2906 2969 
L 2906 3500 
L 3481 3500 
L 3481 434 
z
" transform="scale(0.015625)"/>
      <path id="DejaVuSans-2f" d="M 1625 4666 
L 2156 4666 
L 531 -594 
L 0 -594 
L 1625 4666 
z
" transform="scale(0.015625)"/>
     </defs>
     <use xlink:href="#DejaVuSans-56"/>
     <use xlink:href="#DejaVuSans-69" x="66.158203"/>
     <use xlink:href="#DejaVuSans-6f" x="93.941406"/>
     <use xlink:href="#DejaVuSans-6c" x="155.123047"/>
     <use xlink:href="#DejaVuSans-69" x="182.90625"/>
     <use xlink:href="#DejaVuSans-6e" x="210.689453"/>
     <use xlink:href="#DejaVuSans-70" x="274.068359"/>
     <use xlink:href="#DejaVuSans-6c" x="337.544922"/>
     <use xlink:href="#DejaVuSans-6f" x="365.328125"/>
     <use xlink:href="#DejaVuSans-74" x="426.509766"/>
     <use xlink:href="#DejaVuSans-20" x="465.71875"/>
     <use xlink:href="#DejaVuSans-66" x="497.505859"/>
     <use xlink:href="#DejaVuSans-6f" x="532.710938"/>
     <use xlink:href="#DejaVuSans-72" x="593.892578"/>
     <use xlink:href="#DejaVuSans-20" x="635.005859"/>
     <use xlink:href="#DejaVuSans-70" x="666.792969"/>
     <use xlink:href="#DejaVuSans-72" x="730.269531"/>
     <use xlink:href="#DejaVuSans-6f" x="769.132812"/>
     <use xlink:href="#DejaVuSans-67" x="830.314453"/>
     <use xlink:href="#DejaVuSans-72" x="893.791016"/>
     <use xlink:href="#DejaVuSans-65" x="932.654297"/>
     <use xlink:href="#DejaVuSans-73" x="994.177734"/>
     <use xlink:href="#DejaVuSans-73" x="1046.277344"/>
     <use xlink:href="#DejaVuSans-20" x="1098.376953"/>
     <use xlink:href="#DejaVuSans-6f" x="1130.164062"/>
     <use xlink:href="#DejaVuSans-66" x="1191.345703"/>
     <use xlink:href="#DejaVuSans-20" x="1226.550781"/>
     <use xlink:href="#DejaVuSans-70" x="1258.337891"/>
     <use xlink:href="#DejaVuSans-72" x="1321.814453"/>
     <use xlink:href="#DejaVuSans-6f" x="1360.677734"/>
     <use xlink:href="#DejaVuSans-66" x="1421.859375"/>
     <use xlink:href="#DejaVuSans-69" x="1457.064453"/>
     <use xlink:href="#DejaVuSans-74" x="1484.847656"/>
     <use xlink:href="#DejaVuSans-73" x="1524.056641"/>
     <use xlink:href="#DejaVuSans-2f" x="1576.15625"/>
     <use xlink:href="#DejaVuSans-61" x="1609.847656"/>
     <use xlink:href="#DejaVuSans-6c" x="1671.126953"/>
     <use xlink:href="#DejaVuSans-6c" x="1698.910156"/>
    </g>
   </g>
   <g id="legend_1">
    <g id="patch_7">
     <path d="M 284.430938 64.150125 
L 407.72 64.150125 
Q 409.72 64.150125 409.72 62.150125 
L 409.72 48.472 
Q 409.72 46.472 407.72 46.472 
L 284.430938 46.472 
Q 282.430938 46.472 282.430938 48.472 
L 282.430938 62.150125 
Q 282.430938 64.150125 284.430938 64.150125 
z
" style="fill: #ffffff; opacity: 0.8; stroke: #cccccc; stroke-linejoin: miter"/>
    </g>
    <g id="line2d_18">
     <path d="M 286.430938 54.570438 
L 296.430938 54.570438 
L 306.430938 54.570438 
" style="fill: none; stroke: #4682b4; stroke-width: 1.5; stroke-linecap: square"/>
    </g>
    <g id="text_20">
     <!-- Storage-Minimizer -->
     <g transform="translate(314.430938 58.070438)scale(0.1 -0.1)">
      <defs>
       <path id="DejaVuSans-53" d="M 3425 4513 
L 3425 3897 
Q 3066 4069 2747 4153 
Q 2428 4238 2131 4238 
Q 1616 4238 1336 4038 
Q 1056 3838 1056 3469 
Q 1056 3159 1242 3001 
Q 1428 2844 1947 2747 
L 2328 2669 
Q 3034 2534 3370 2195 
Q 3706 1856 3706 1288 
Q 3706 609 3251 259 
Q 2797 -91 1919 -91 
Q 1588 -91 1214 -16 
Q 841 59 441 206 
L 441 856 
Q 825 641 1194 531 
Q 1563 422 1919 422 
Q 2459 422 2753 634 
Q 3047 847 3047 1241 
Q 3047 1584 2836 1778 
Q 2625 1972 2144 2069 
L 1759 2144 
Q 1053 2284 737 2584 
Q 422 2884 422 3419 
Q 422 4038 858 4394 
Q 1294 4750 2059 4750 
Q 2388 4750 2728 4690 
Q 3069 4631 3425 4513 
z
" transform="scale(0.015625)"/>
       <path id="DejaVuSans-2d" d="M 313 2009 
L 1997 2009 
L 1997 1497 
L 313 1497 
L 313 2009 
z
" transform="scale(0.015625)"/>
       <path id="DejaVuSans-4d" d="M 628 4666 
L 1569 4666 
L 2759 1491 
L 3956 4666 
L 4897 4666 
L 4897 0 
L 4281 0 
L 4281 4097 
L 3078 897 
L 2444 897 
L 1241 4097 
L 1241 0 
L 628 0 
L 628 4666 
z
" transform="scale(0.015625)"/>
       <path id="DejaVuSans-6d" d="M 3328 2828 
Q 3544 3216 3844 3400 
Q 4144 3584 4550 3584 
Q 5097 3584 5394 3201 
Q 5691 2819 5691 2113 
L 5691 0 
L 5113 0 
L 5113 2094 
Q 5113 2597 4934 2840 
Q 4756 3084 4391 3084 
Q 3944 3084 3684 2787 
Q 3425 2491 3425 1978 
L 3425 0 
L 2847 0 
L 2847 2094 
Q 2847 2600 2669 2842 
Q 2491 3084 2119 3084 
Q 1678 3084 1418 2786 
Q 1159 2488 1159 1978 
L 1159 0 
L 581 0 
L 581 3500 
L 1159 3500 
L 1159 2956 
Q 1356 3278 1631 3431 
Q 1906 3584 2284 3584 
Q 2666 3584 2933 3390 
Q 3200 3197 3328 2828 
z
" transform="scale(0.015625)"/>
       <path id="DejaVuSans-7a" d="M 353 3500 
L 3084 3500 
L 3084 2975 
L 922 459 
L 3084 459 
L 3084 0 
L 275 0 
L 275 525 
L 2438 3041 
L 353 3041 
L 353 3500 
z
" transform="scale(0.015625)"/>
      </defs>
      <use xlink:href="#DejaVuSans-53"/>
      <use xlink:href="#DejaVuSans-74" x="63.476562"/>
      <use xlink:href="#DejaVuSans-6f" x="102.685547"/>
      <use xlink:href="#DejaVuSans-72" x="163.867188"/>
      <use xlink:href="#DejaVuSans-61" x="204.980469"/>
      <use xlink:href="#DejaVuSans-67" x="266.259766"/>
      <use xlink:href="#DejaVuSans-65" x="329.736328"/>
      <use xlink:href="#DejaVuSans-2d" x="391.259766"/>
      <use xlink:href="#DejaVuSans-4d" x="427.34375"/>
      <use xlink:href="#DejaVuSans-69" x="513.623047"/>
      <use xlink:href="#DejaVuSans-6e" x="541.40625"/>
      <use xlink:href="#DejaVuSans-69" x="604.785156"/>
      <use xlink:href="#DejaVuSans-6d" x="632.568359"/>
      <use xlink:href="#DejaVuSans-69" x="729.980469"/>
      <use xlink:href="#DejaVuSans-7a" x="757.763672"/>
      <use xlink:href="#DejaVuSans-65" x="810.253906"/>
      <use xlink:href="#DejaVuSans-72" x="871.777344"/>
     </g>
    </g>
   </g>
  </g>
 </g>
 <defs>
  <clipPath id="p569323ea63">
   <rect x="57.6" y="41.472" width="357.12" height="266.112"/>
  </clipPath>
 </defs>
</svg>
