<?xml version="1.0" encoding="utf-8" standalone="no"?>
<!DOCTYPE svg PUBLIC "-//W3C//DTD SVG 1.1//EN"
  "http://www.w3.org/Graphics/SVG/1.1/DTD/svg11.dtd">
<svg xmlns:xlink="http://www.w3.org/1999/xlink" width="460.8pt" height="345.6pt" viewBox="0 0 460.8 345.6" xmlns="http://www.w3.org/2000/svg" version="1.1">
 <metadata>
  <rdf:RDF xmlns:dc="http://purl.org/dc/elements/1.1/" xmlns:cc="http://creativecommons.org/ns#" xmlns:rdf="http://www.w3.org/1999/02/22-rdf-syntax-ns#">
   <cc:Work>
    <dc:type rdf:resource="http://purl.org/dc/dcmitype/StillImage"/>
    <dc:date>2022-06-15T18:26:49.149466</dc:date>
    <dc:format>image/svg+xml</dc:format>
    <dc:creator>
     <cc:Agent>
      <dc:title>Matplotlib v3.5.2, https://matplotlib.org/</dc:title>
     </cc:Agent>
    </dc:creator>
   </cc:Work>
  </rdf:RDF>
 </metadata>
 <defs>
  <style type="text/css">*{stroke-linejoin: round; stroke-linecap: butt}</style>
 </defs>
 <g id="figure_1">
  <g id="patch_1">
   <path d="M 0 345.6 
L 460.8 345.6 
L 460.8 0 
L 0 0 
z
" style="fill: #ffffff"/>
  </g>
  <g id="axes_1">
   <g id="patch_2">
    <path d="M 57.6 307.584 
L 414.72 307.584 
L 414.72 41.472 
L 57.6 41.472 
z
" style="fill: #ffffff"/>
   </g>
   <g id="PolyCollection_1">
    <path d="M 113.613615 295.488 
L 109.01056 295.488 
L 108.756258 293.150609 
L 108.494665 290.813217 
L 108.219506 288.475826 
L 107.921479 286.138435 
L 107.588905 283.801043 
L 107.208854 281.463652 
L 106.768643 279.126261 
L 106.257546 276.78887 
L 105.668469 274.451478 
L 104.999359 272.114087 
L 104.254105 269.776696 
L 103.442754 267.439304 
L 102.580938 265.101913 
L 101.688537 262.764522 
L 100.787677 260.42713 
L 99.900293 258.089739 
L 99.045537 255.752348 
L 98.237368 253.414957 
L 97.482622 251.077565 
L 96.779854 248.740174 
L 96.119097 246.402783 
L 95.482621 244.065391 
L 94.846619 241.728 
L 94.183625 239.390609 
L 93.465408 237.053217 
L 92.66599 234.715826 
L 91.764469 232.378435 
L 90.747337 230.041043 
L 89.61008 227.703652 
L 88.357939 225.366261 
L 87.005812 223.02887 
L 85.577364 220.691478 
L 84.10347 218.354087 
L 82.620139 216.016696 
L 81.166085 213.679304 
L 79.780075 211.341913 
L 78.498229 209.004522 
L 77.351411 206.66713 
L 76.362929 204.329739 
L 75.546759 201.992348 
L 74.906529 199.654957 
L 74.435482 197.317565 
L 74.117538 194.980174 
L 73.929439 192.642783 
L 73.843805 190.305391 
L 73.832727 187.968 
L 73.871436 185.630609 
L 73.941474 183.293217 
L 74.032897 180.955826 
L 74.145133 178.618435 
L 74.286358 176.281043 
L 74.471487 173.943652 
L 74.71913 171.606261 
L 75.048013 169.26887 
L 75.473453 166.931478 
L 76.004478 164.594087 
L 76.642008 162.256696 
L 77.378385 159.919304 
L 78.198284 157.581913 
L 79.080808 155.244522 
L 80.002433 152.90713 
L 80.940297 150.569739 
L 81.875322 148.232348 
L 82.79467 145.894957 
L 83.693168 143.557565 
L 84.573465 141.220174 
L 85.444933 138.882783 
L 86.321487 136.545391 
L 87.218711 134.208 
L 88.150779 131.870609 
L 89.127703 129.533217 
L 90.153364 127.195826 
L 91.224661 124.858435 
L 92.331875 122.521043 
L 93.460124 120.183652 
L 94.591602 117.846261 
L 95.708126 115.50887 
L 96.793527 113.171478 
L 97.835447 110.834087 
L 98.826285 108.496696 
L 99.763216 106.159304 
L 100.647391 103.821913 
L 101.482604 101.484522 
L 102.273755 99.14713 
L 103.025445 96.809739 
L 103.740972 94.472348 
L 104.421851 92.134957 
L 105.067865 89.797565 
L 105.677533 87.460174 
L 106.248818 85.122783 
L 106.779866 82.785391 
L 107.269611 80.448 
L 107.718142 78.110609 
L 108.126779 75.773217 
L 108.497905 73.435826 
L 108.834618 71.098435 
L 109.140309 68.761043 
L 109.418259 66.423652 
L 109.671321 64.086261 
L 112.952854 64.086261 
L 112.952854 64.086261 
L 113.205916 66.423652 
L 113.483865 68.761043 
L 113.789557 71.098435 
L 114.12627 73.435826 
L 114.497395 75.773217 
L 114.906033 78.110609 
L 115.354564 80.448 
L 115.844309 82.785391 
L 116.375356 85.122783 
L 116.946641 87.460174 
L 117.55631 89.797565 
L 118.202323 92.134957 
L 118.883202 94.472348 
L 119.59873 96.809739 
L 120.35042 99.14713 
L 121.141571 101.484522 
L 121.976784 103.821913 
L 122.860959 106.159304 
L 123.797889 108.496696 
L 124.788728 110.834087 
L 125.830648 113.171478 
L 126.916049 115.50887 
L 128.032573 117.846261 
L 129.164051 120.183652 
L 130.2923 122.521043 
L 131.399513 124.858435 
L 132.470811 127.195826 
L 133.496472 129.533217 
L 134.473395 131.870609 
L 135.405464 134.208 
L 136.302688 136.545391 
L 137.179241 138.882783 
L 138.050709 141.220174 
L 138.931007 143.557565 
L 139.829505 145.894957 
L 140.748853 148.232348 
L 141.683877 150.569739 
L 142.621741 152.90713 
L 143.543367 155.244522 
L 144.425891 157.581913 
L 145.245789 159.919304 
L 145.982167 162.256696 
L 146.619697 164.594087 
L 147.150722 166.931478 
L 147.576162 169.26887 
L 147.905044 171.606261 
L 148.152688 173.943652 
L 148.337817 176.281043 
L 148.479042 178.618435 
L 148.591278 180.955826 
L 148.682701 183.293217 
L 148.752739 185.630609 
L 148.791447 187.968 
L 148.78037 190.305391 
L 148.694736 192.642783 
L 148.506637 194.980174 
L 148.188692 197.317565 
L 147.717645 199.654957 
L 147.077415 201.992348 
L 146.261245 204.329739 
L 145.272764 206.66713 
L 144.125946 209.004522 
L 142.8441 211.341913 
L 141.45809 213.679304 
L 140.004035 216.016696 
L 138.520705 218.354087 
L 137.04681 220.691478 
L 135.618363 223.02887 
L 134.266236 225.366261 
L 133.014095 227.703652 
L 131.876838 230.041043 
L 130.859705 232.378435 
L 129.958184 234.715826 
L 129.158766 237.053217 
L 128.440549 239.390609 
L 127.777556 241.728 
L 127.141553 244.065391 
L 126.505078 246.402783 
L 125.84432 248.740174 
L 125.141552 251.077565 
L 124.386807 253.414957 
L 123.578638 255.752348 
L 122.723882 258.089739 
L 121.836498 260.42713 
L 120.935638 262.764522 
L 120.043237 265.101913 
L 119.181421 267.439304 
L 118.370069 269.776696 
L 117.624816 272.114087 
L 116.955706 274.451478 
L 116.366629 276.78887 
L 115.855531 279.126261 
L 115.415321 281.463652 
L 115.035269 283.801043 
L 114.702696 286.138435 
L 114.404669 288.475826 
L 114.12951 290.813217 
L 113.867917 293.150609 
L 113.613615 295.488 
z
" clip-path="url(#p239e9bfd8e)" style="fill: #1f77b4; fill-opacity: 0.3"/>
   </g>
   <g id="PolyCollection_2">
    <path d="M 199.711996 259.258435 
L 189.487112 259.258435 
L 188.879925 257.180754 
L 188.268198 255.103072 
L 187.657471 253.025391 
L 187.051307 250.94771 
L 186.451119 248.870029 
L 185.856298 246.792348 
L 185.264655 244.714667 
L 184.673086 242.636986 
L 184.078382 240.559304 
L 183.47802 238.481623 
L 182.870797 236.403942 
L 182.257181 234.326261 
L 181.639269 232.24858 
L 181.020357 230.170899 
L 180.404128 228.093217 
L 179.793602 226.015536 
L 179.190002 223.937855 
L 178.591722 221.860174 
L 177.993609 219.782493 
L 177.386705 217.704812 
L 176.758558 215.62713 
L 176.094133 213.549449 
L 175.377259 211.471768 
L 174.592474 209.394087 
L 173.727075 207.316406 
L 172.773096 205.238725 
L 171.728975 203.161043 
L 170.600651 201.083362 
L 169.401902 199.005681 
L 168.153821 196.928 
L 166.883435 194.850319 
L 165.621592 192.772638 
L 164.400329 190.694957 
L 163.250031 188.617275 
L 162.196736 186.539594 
L 161.2599 184.461913 
L 160.450916 182.384232 
L 159.772543 180.306551 
L 159.219316 178.22887 
L 158.778836 176.151188 
L 158.433763 174.073507 
L 158.16422 171.995826 
L 157.950304 169.918145 
L 157.774376 167.840464 
L 157.622876 165.762783 
L 157.487477 163.685101 
L 157.36548 161.60742 
L 157.259491 159.529739 
L 157.176458 157.452058 
L 157.12628 155.374377 
L 157.120194 153.296696 
L 157.169182 151.219014 
L 157.282607 149.141333 
L 157.467238 147.063652 
L 157.72676 144.985971 
L 158.061777 142.90829 
L 158.470248 140.830609 
L 158.948252 138.752928 
L 159.490897 136.675246 
L 160.093251 134.597565 
L 160.751107 132.519884 
L 161.461493 130.442203 
L 162.222857 128.364522 
L 163.034913 126.286841 
L 163.898205 124.209159 
L 164.813459 122.131478 
L 165.780847 120.053797 
L 166.79929 117.976116 
L 167.865905 115.898435 
L 168.975703 113.820754 
L 170.121583 111.743072 
L 171.294626 109.665391 
L 172.484654 107.58771 
L 173.680958 105.510029 
L 174.873087 103.432348 
L 176.051579 101.354667 
L 177.208508 99.276986 
L 178.337796 97.199304 
L 179.435241 95.121623 
L 180.498279 93.043942 
L 181.525564 90.966261 
L 182.516435 88.88858 
L 183.470394 86.810899 
L 184.386673 84.733217 
L 185.263971 82.655536 
L 186.100391 80.577855 
L 186.893558 78.500174 
L 187.640892 76.422493 
L 188.339976 74.344812 
L 188.988925 72.26713 
L 189.586712 70.189449 
L 190.133388 68.111768 
L 190.630169 66.034087 
L 191.079369 63.956406 
L 191.484221 61.878725 
L 191.848592 59.801043 
L 192.176656 57.723362 
L 192.472562 55.645681 
L 192.740142 53.568 
L 196.458966 53.568 
L 196.458966 53.568 
L 196.726546 55.645681 
L 197.022452 57.723362 
L 197.350516 59.801043 
L 197.714887 61.878725 
L 198.119739 63.956406 
L 198.568939 66.034087 
L 199.06572 68.111768 
L 199.612397 70.189449 
L 200.210183 72.26713 
L 200.859132 74.344812 
L 201.558216 76.422493 
L 202.305551 78.500174 
L 203.098717 80.577855 
L 203.935137 82.655536 
L 204.812436 84.733217 
L 205.728714 86.810899 
L 206.682673 88.88858 
L 207.673545 90.966261 
L 208.700829 93.043942 
L 209.763867 95.121623 
L 210.861312 97.199304 
L 211.9906 99.276986 
L 213.147529 101.354667 
L 214.326021 103.432348 
L 215.51815 105.510029 
L 216.714454 107.58771 
L 217.904482 109.665391 
L 219.077525 111.743072 
L 220.223405 113.820754 
L 221.333203 115.898435 
L 222.399818 117.976116 
L 223.418261 120.053797 
L 224.38565 122.131478 
L 225.300903 124.209159 
L 226.164195 126.286841 
L 226.976252 128.364522 
L 227.737615 130.442203 
L 228.448001 132.519884 
L 229.105857 134.597565 
L 229.708211 136.675246 
L 230.250857 138.752928 
L 230.72886 140.830609 
L 231.137332 142.90829 
L 231.472348 144.985971 
L 231.73187 147.063652 
L 231.916501 149.141333 
L 232.029926 151.219014 
L 232.078914 153.296696 
L 232.072828 155.374377 
L 232.02265 157.452058 
L 231.939617 159.529739 
L 231.833628 161.60742 
L 231.711632 163.685101 
L 231.576232 165.762783 
L 231.424732 167.840464 
L 231.248804 169.918145 
L 231.034888 171.995826 
L 230.765345 174.073507 
L 230.420272 176.151188 
L 229.979792 178.22887 
L 229.426565 180.306551 
L 228.748192 182.384232 
L 227.939208 184.461913 
L 227.002372 186.539594 
L 225.949077 188.617275 
L 224.798779 190.694957 
L 223.577516 192.772638 
L 222.315673 194.850319 
L 221.045288 196.928 
L 219.797206 199.005681 
L 218.598457 201.083362 
L 217.470133 203.161043 
L 216.426012 205.238725 
L 215.472033 207.316406 
L 214.606634 209.394087 
L 213.82185 211.471768 
L 213.104975 213.549449 
L 212.44055 215.62713 
L 211.812403 217.704812 
L 211.205499 219.782493 
L 210.607386 221.860174 
L 210.009106 223.937855 
L 209.405506 226.015536 
L 208.794981 228.093217 
L 208.178751 230.170899 
L 207.559839 232.24858 
L 206.941928 234.326261 
L 206.328311 236.403942 
L 205.721088 238.481623 
L 205.120726 240.559304 
L 204.526022 242.636986 
L 203.934453 244.714667 
L 203.34281 246.792348 
L 202.747989 248.870029 
L 202.147801 250.94771 
L 201.541638 253.025391 
L 200.93091 255.103072 
L 200.319183 257.180754 
L 199.711996 259.258435 
z
" clip-path="url(#p239e9bfd8e)" style="fill: #1f77b4; fill-opacity: 0.3"/>
   </g>
   <g id="PolyCollection_3">
    <path d="M 279.981851 270.945391 
L 275.792191 270.945391 
L 275.484551 268.96215 
L 275.150204 266.978909 
L 274.788205 264.995668 
L 274.397631 263.012427 
L 273.977659 261.029186 
L 273.527681 259.045945 
L 273.047426 257.062704 
L 272.537088 255.079462 
L 271.997473 253.096221 
L 271.430147 251.11298 
L 270.83758 249.129739 
L 270.223279 247.146498 
L 269.591877 245.163257 
L 268.949143 243.180016 
L 268.301876 241.196775 
L 267.657647 239.213534 
L 267.024342 237.230292 
L 266.409535 235.247051 
L 265.819686 233.26381 
L 265.259242 231.280569 
L 264.729735 229.297328 
L 264.228991 227.314087 
L 263.750575 225.330846 
L 263.283598 223.347605 
L 262.81295 221.364364 
L 262.320019 219.381123 
L 261.783864 217.397881 
L 261.18277 215.41464 
L 260.496061 213.431399 
L 259.706001 211.448158 
L 258.799612 209.464917 
L 257.770216 207.481676 
L 256.61855 205.498435 
L 255.35333 203.515194 
L 253.991191 201.531953 
L 252.555984 199.548711 
L 251.077483 197.56547 
L 249.589592 195.582229 
L 248.128197 193.598988 
L 246.72887 191.615747 
L 245.424606 189.632506 
L 244.243813 187.649265 
L 243.208742 185.666024 
L 242.334477 183.682783 
L 241.628582 181.699542 
L 241.091381 179.7163 
L 240.716826 177.733059 
L 240.493797 175.749818 
L 240.407661 173.766577 
L 240.441894 171.783336 
L 240.579583 169.800095 
L 240.804641 167.816854 
L 241.10266 165.833613 
L 241.461341 163.850372 
L 241.870555 161.86713 
L 242.322084 159.883889 
L 242.809183 157.900648 
L 243.326057 155.917407 
L 243.8674 153.934166 
L 244.428063 151.950925 
L 245.002916 149.967684 
L 245.586909 147.984443 
L 246.175303 146.001202 
L 246.764004 144.01796 
L 247.349918 142.034719 
L 247.931239 140.051478 
L 248.507607 138.068237 
L 249.080079 136.084996 
L 249.650922 134.101755 
L 250.223247 132.118514 
L 250.800545 130.135273 
L 251.386226 128.152032 
L 251.98321 126.168791 
L 252.593683 124.185549 
L 253.219024 122.202308 
L 253.859935 120.219067 
L 254.516738 118.235826 
L 255.189749 116.252585 
L 255.879681 114.269344 
L 256.587937 112.286103 
L 257.316753 110.302862 
L 258.069107 108.319621 
L 258.848411 106.336379 
L 259.658004 104.353138 
L 260.500527 102.369897 
L 261.377287 100.386656 
L 262.287713 98.403415 
L 263.228991 96.420174 
L 264.195964 94.436933 
L 265.18129 92.453692 
L 266.175853 90.470451 
L 267.169351 88.487209 
L 268.150974 86.503968 
L 269.110083 84.520727 
L 270.03679 82.537486 
L 270.922412 80.554245 
L 271.759736 78.571004 
L 272.543136 76.587763 
L 273.268556 74.604522 
L 282.505486 74.604522 
L 282.505486 74.604522 
L 283.230906 76.587763 
L 284.014306 78.571004 
L 284.85163 80.554245 
L 285.737251 82.537486 
L 286.663959 84.520727 
L 287.623067 86.503968 
L 288.604691 88.487209 
L 289.598188 90.470451 
L 290.592752 92.453692 
L 291.578077 94.436933 
L 292.54505 96.420174 
L 293.486329 98.403415 
L 294.396754 100.386656 
L 295.273515 102.369897 
L 296.116038 104.353138 
L 296.92563 106.336379 
L 297.704935 108.319621 
L 298.457289 110.302862 
L 299.186105 112.286103 
L 299.894361 114.269344 
L 300.584292 116.252585 
L 301.257304 118.235826 
L 301.914106 120.219067 
L 302.555018 122.202308 
L 303.180358 124.185549 
L 303.790831 126.168791 
L 304.387816 128.152032 
L 304.973496 130.135273 
L 305.550795 132.118514 
L 306.123119 134.101755 
L 306.693963 136.084996 
L 307.266435 138.068237 
L 307.842803 140.051478 
L 308.424124 142.034719 
L 309.010037 144.01796 
L 309.598738 146.001202 
L 310.187132 147.984443 
L 310.771125 149.967684 
L 311.345978 151.950925 
L 311.906642 153.934166 
L 312.447985 155.917407 
L 312.964859 157.900648 
L 313.451957 159.883889 
L 313.903487 161.86713 
L 314.312701 163.850372 
L 314.671382 165.833613 
L 314.969401 167.816854 
L 315.194459 169.800095 
L 315.332148 171.783336 
L 315.366381 173.766577 
L 315.280245 175.749818 
L 315.057216 177.733059 
L 314.682661 179.7163 
L 314.14546 181.699542 
L 313.439564 183.682783 
L 312.5653 185.666024 
L 311.530229 187.649265 
L 310.349436 189.632506 
L 309.045171 191.615747 
L 307.645844 193.598988 
L 306.18445 195.582229 
L 304.696558 197.56547 
L 303.218058 199.548711 
L 301.782851 201.531953 
L 300.420712 203.515194 
L 299.155492 205.498435 
L 298.003826 207.481676 
L 296.97443 209.464917 
L 296.068041 211.448158 
L 295.277981 213.431399 
L 294.591271 215.41464 
L 293.990177 217.397881 
L 293.454022 219.381123 
L 292.961092 221.364364 
L 292.490444 223.347605 
L 292.023466 225.330846 
L 291.545051 227.314087 
L 291.044307 229.297328 
L 290.5148 231.280569 
L 289.954356 233.26381 
L 289.364507 235.247051 
L 288.7497 237.230292 
L 288.116395 239.213534 
L 287.472165 241.196775 
L 286.824899 243.180016 
L 286.182165 245.163257 
L 285.550763 247.146498 
L 284.936462 249.129739 
L 284.343895 251.11298 
L 283.776569 253.096221 
L 283.236954 255.079462 
L 282.726616 257.062704 
L 282.24636 259.045945 
L 281.796383 261.029186 
L 281.376411 263.012427 
L 280.985836 264.995668 
L 280.623838 266.978909 
L 280.28949 268.96215 
L 279.981851 270.945391 
z
" clip-path="url(#p239e9bfd8e)" style="fill: #1f77b4; fill-opacity: 0.3"/>
   </g>
   <g id="PolyCollection_4">
    <path d="M 366.290879 258.089739 
L 355.724946 258.089739 
L 355.092921 256.236353 
L 354.436359 254.382967 
L 353.760307 252.529581 
L 353.070308 250.676195 
L 352.372328 248.822809 
L 351.672645 246.969423 
L 350.977685 245.116037 
L 350.293812 243.262651 
L 349.627084 241.409265 
L 348.982997 239.555879 
L 348.366231 237.702493 
L 347.780442 235.849107 
L 347.228085 233.995721 
L 346.71031 232.142335 
L 346.226895 230.288949 
L 345.776227 228.435563 
L 345.355309 226.582177 
L 344.959787 224.728791 
L 344.583993 222.875404 
L 344.221015 221.022018 
L 343.86281 219.168632 
L 343.500387 217.315246 
L 343.124081 215.46186 
L 342.723923 213.608474 
L 342.290116 211.755088 
L 341.813578 209.901702 
L 341.286523 208.048316 
L 340.703024 206.19493 
L 340.059488 204.341544 
L 339.355002 202.488158 
L 338.591497 200.634772 
L 337.773714 198.781386 
L 336.908971 196.928 
L 336.006759 195.074614 
L 335.078208 193.221228 
L 334.135468 191.367842 
L 333.191067 189.514456 
L 332.257288 187.66107 
L 331.345601 185.807684 
L 330.46619 183.954298 
L 329.62758 182.100912 
L 328.836394 180.247526 
L 328.097249 178.39414 
L 327.412797 176.540754 
L 326.783935 174.687368 
L 326.210177 172.833982 
L 325.690183 170.980596 
L 325.222403 169.127209 
L 324.805797 167.273823 
L 324.440529 165.420437 
L 324.128561 163.567051 
L 323.874031 161.713665 
L 323.683346 159.860279 
L 323.564917 158.006893 
L 323.528553 156.153507 
L 323.584532 154.300121 
L 323.742479 152.446735 
L 324.010158 150.593349 
L 324.392371 148.739963 
L 324.890101 146.886577 
L 325.500039 145.033191 
L 326.214566 143.179805 
L 327.022212 141.326419 
L 327.908518 139.473033 
L 328.857211 137.619647 
L 329.851497 135.766261 
L 330.875336 133.912875 
L 331.914505 132.059489 
L 332.957336 130.206103 
L 333.995061 128.352717 
L 335.021745 126.499331 
L 336.033861 124.645945 
L 337.029622 122.792559 
L 338.00819 120.939173 
L 338.968901 119.085787 
L 339.910649 117.232401 
L 340.831496 115.379014 
L 341.728572 113.525628 
L 342.598249 111.672242 
L 343.436555 109.818856 
L 344.239731 107.96547 
L 345.004833 106.112084 
L 345.730288 104.258698 
L 346.416302 102.405312 
L 347.065068 100.551926 
L 347.680738 98.69854 
L 348.269162 96.845154 
L 348.837444 94.991768 
L 349.393346 93.138382 
L 349.944635 91.284996 
L 350.498427 89.43161 
L 351.060601 87.578224 
L 351.635336 85.724838 
L 352.224803 83.871452 
L 352.829023 82.018066 
L 353.445906 80.16468 
L 354.07144 78.311294 
L 354.700016 76.457908 
L 355.324844 74.604522 
L 366.690981 74.604522 
L 366.690981 74.604522 
L 367.315809 76.457908 
L 367.944385 78.311294 
L 368.56992 80.16468 
L 369.186803 82.018066 
L 369.791023 83.871452 
L 370.380489 85.724838 
L 370.955225 87.578224 
L 371.517399 89.43161 
L 372.07119 91.284996 
L 372.622479 93.138382 
L 373.178381 94.991768 
L 373.746663 96.845154 
L 374.335088 98.69854 
L 374.950757 100.551926 
L 375.599523 102.405312 
L 376.285538 104.258698 
L 377.010992 106.112084 
L 377.776094 107.96547 
L 378.57927 109.818856 
L 379.417577 111.672242 
L 380.287254 113.525628 
L 381.184329 115.379014 
L 382.105176 117.232401 
L 383.046924 119.085787 
L 384.007636 120.939173 
L 384.986203 122.792559 
L 385.981965 124.645945 
L 386.994081 126.499331 
L 388.020764 128.352717 
L 389.05849 130.206103 
L 390.101321 132.059489 
L 391.140489 133.912875 
L 392.164328 135.766261 
L 393.158615 137.619647 
L 394.107307 139.473033 
L 394.993614 141.326419 
L 395.801259 143.179805 
L 396.515786 145.033191 
L 397.125724 146.886577 
L 397.623454 148.739963 
L 398.005668 150.593349 
L 398.273347 152.446735 
L 398.431293 154.300121 
L 398.487273 156.153507 
L 398.450908 158.006893 
L 398.332479 159.860279 
L 398.141794 161.713665 
L 397.887264 163.567051 
L 397.575296 165.420437 
L 397.210028 167.273823 
L 396.793422 169.127209 
L 396.325643 170.980596 
L 395.805648 172.833982 
L 395.231891 174.687368 
L 394.603028 176.540754 
L 393.918576 178.39414 
L 393.179431 180.247526 
L 392.388246 182.100912 
L 391.549635 183.954298 
L 390.670224 185.807684 
L 389.758537 187.66107 
L 388.824758 189.514456 
L 387.880357 191.367842 
L 386.937618 193.221228 
L 386.009066 195.074614 
L 385.106854 196.928 
L 384.242111 198.781386 
L 383.424328 200.634772 
L 382.660823 202.488158 
L 381.956337 204.341544 
L 381.312801 206.19493 
L 380.729302 208.048316 
L 380.202247 209.901702 
L 379.725709 211.755088 
L 379.291902 213.608474 
L 378.891745 215.46186 
L 378.515438 217.315246 
L 378.153016 219.168632 
L 377.79481 221.022018 
L 377.431832 222.875404 
L 377.056039 224.728791 
L 376.660517 226.582177 
L 376.239599 228.435563 
L 375.78893 230.288949 
L 375.305515 232.142335 
L 374.78774 233.995721 
L 374.235384 235.849107 
L 373.649594 237.702493 
L 373.032829 239.555879 
L 372.388741 241.409265 
L 371.722014 243.262651 
L 371.03814 245.116037 
L 370.34318 246.969423 
L 369.643497 248.822809 
L 368.945518 250.676195 
L 368.255519 252.529581 
L 367.579467 254.382967 
L 366.922904 256.236353 
L 366.290879 258.089739 
z
" clip-path="url(#p239e9bfd8e)" style="fill: #1f77b4; fill-opacity: 0.3"/>
   </g>
   <g id="matplotlib.axis_1">
    <g id="xtick_1">
     <g id="line2d_1">
      <defs>
       <path id="md6eaf5867c" d="M 0 0 
L 0 3.5 
" style="stroke: #000000; stroke-width: 0.8"/>
      </defs>
      <g>
       <use xlink:href="#md6eaf5867c" x="69.668354" y="307.584" style="stroke: #000000; stroke-width: 0.8"/>
      </g>
     </g>
     <g id="text_1">
      <!-- 250 -->
      <g transform="translate(60.124604 322.182437)scale(0.1 -0.1)">
       <defs>
        <path id="DejaVuSans-32" d="M 1228 531 
L 3431 531 
L 3431 0 
L 469 0 
L 469 531 
Q 828 903 1448 1529 
Q 2069 2156 2228 2338 
Q 2531 2678 2651 2914 
Q 2772 3150 2772 3378 
Q 2772 3750 2511 3984 
Q 2250 4219 1831 4219 
Q 1534 4219 1204 4116 
Q 875 4013 500 3803 
L 500 4441 
Q 881 4594 1212 4672 
Q 1544 4750 1819 4750 
Q 2544 4750 2975 4387 
Q 3406 4025 3406 3419 
Q 3406 3131 3298 2873 
Q 3191 2616 2906 2266 
Q 2828 2175 2409 1742 
Q 1991 1309 1228 531 
z
" transform="scale(0.015625)"/>
        <path id="DejaVuSans-35" d="M 691 4666 
L 3169 4666 
L 3169 4134 
L 1269 4134 
L 1269 2991 
Q 1406 3038 1543 3061 
Q 1681 3084 1819 3084 
Q 2600 3084 3056 2656 
Q 3513 2228 3513 1497 
Q 3513 744 3044 326 
Q 2575 -91 1722 -91 
Q 1428 -91 1123 -41 
Q 819 9 494 109 
L 494 744 
Q 775 591 1075 516 
Q 1375 441 1709 441 
Q 2250 441 2565 725 
Q 2881 1009 2881 1497 
Q 2881 1984 2565 2268 
Q 2250 2553 1709 2553 
Q 1456 2553 1204 2497 
Q 953 2441 691 2322 
L 691 4666 
z
" transform="scale(0.015625)"/>
        <path id="DejaVuSans-30" d="M 2034 4250 
Q 1547 4250 1301 3770 
Q 1056 3291 1056 2328 
Q 1056 1369 1301 889 
Q 1547 409 2034 409 
Q 2525 409 2770 889 
Q 3016 1369 3016 2328 
Q 3016 3291 2770 3770 
Q 2525 4250 2034 4250 
z
M 2034 4750 
Q 2819 4750 3233 4129 
Q 3647 3509 3647 2328 
Q 3647 1150 3233 529 
Q 2819 -91 2034 -91 
Q 1250 -91 836 529 
Q 422 1150 422 2328 
Q 422 3509 836 4129 
Q 1250 4750 2034 4750 
z
" transform="scale(0.015625)"/>
       </defs>
       <use xlink:href="#DejaVuSans-32"/>
       <use xlink:href="#DejaVuSans-35" x="63.623047"/>
       <use xlink:href="#DejaVuSans-30" x="127.246094"/>
      </g>
     </g>
    </g>
    <g id="xtick_2">
     <g id="line2d_2">
      <g>
       <use xlink:href="#md6eaf5867c" x="111.312087" y="307.584" style="stroke: #000000; stroke-width: 0.8"/>
      </g>
     </g>
     <g id="text_2">
      <!-- 500 -->
      <g transform="translate(101.768337 322.182437)scale(0.1 -0.1)">
       <use xlink:href="#DejaVuSans-35"/>
       <use xlink:href="#DejaVuSans-30" x="63.623047"/>
       <use xlink:href="#DejaVuSans-30" x="127.246094"/>
      </g>
     </g>
    </g>
    <g id="xtick_3">
     <g id="line2d_3">
      <g>
       <use xlink:href="#md6eaf5867c" x="152.955821" y="307.584" style="stroke: #000000; stroke-width: 0.8"/>
      </g>
     </g>
     <g id="text_3">
      <!-- 750 -->
      <g transform="translate(143.412071 322.182437)scale(0.1 -0.1)">
       <defs>
        <path id="DejaVuSans-37" d="M 525 4666 
L 3525 4666 
L 3525 4397 
L 1831 0 
L 1172 0 
L 2766 4134 
L 525 4134 
L 525 4666 
z
" transform="scale(0.015625)"/>
       </defs>
       <use xlink:href="#DejaVuSans-37"/>
       <use xlink:href="#DejaVuSans-35" x="63.623047"/>
       <use xlink:href="#DejaVuSans-30" x="127.246094"/>
      </g>
     </g>
    </g>
    <g id="xtick_4">
     <g id="line2d_4">
      <g>
       <use xlink:href="#md6eaf5867c" x="194.599554" y="307.584" style="stroke: #000000; stroke-width: 0.8"/>
      </g>
     </g>
     <g id="text_4">
      <!-- 1000 -->
      <g transform="translate(181.874554 322.182437)scale(0.1 -0.1)">
       <defs>
        <path id="DejaVuSans-31" d="M 794 531 
L 1825 531 
L 1825 4091 
L 703 3866 
L 703 4441 
L 1819 4666 
L 2450 4666 
L 2450 531 
L 3481 531 
L 3481 0 
L 794 0 
L 794 531 
z
" transform="scale(0.015625)"/>
       </defs>
       <use xlink:href="#DejaVuSans-31"/>
       <use xlink:href="#DejaVuSans-30" x="63.623047"/>
       <use xlink:href="#DejaVuSans-30" x="127.246094"/>
       <use xlink:href="#DejaVuSans-30" x="190.869141"/>
      </g>
     </g>
    </g>
    <g id="xtick_5">
     <g id="line2d_5">
      <g>
       <use xlink:href="#md6eaf5867c" x="236.243287" y="307.584" style="stroke: #000000; stroke-width: 0.8"/>
      </g>
     </g>
     <g id="text_5">
      <!-- 1250 -->
      <g transform="translate(223.518287 322.182437)scale(0.1 -0.1)">
       <use xlink:href="#DejaVuSans-31"/>
       <use xlink:href="#DejaVuSans-32" x="63.623047"/>
       <use xlink:href="#DejaVuSans-35" x="127.246094"/>
       <use xlink:href="#DejaVuSans-30" x="190.869141"/>
      </g>
     </g>
    </g>
    <g id="xtick_6">
     <g id="line2d_6">
      <g>
       <use xlink:href="#md6eaf5867c" x="277.887021" y="307.584" style="stroke: #000000; stroke-width: 0.8"/>
      </g>
     </g>
     <g id="text_6">
      <!-- 1500 -->
      <g transform="translate(265.162021 322.182437)scale(0.1 -0.1)">
       <use xlink:href="#DejaVuSans-31"/>
       <use xlink:href="#DejaVuSans-35" x="63.623047"/>
       <use xlink:href="#DejaVuSans-30" x="127.246094"/>
       <use xlink:href="#DejaVuSans-30" x="190.869141"/>
      </g>
     </g>
    </g>
    <g id="xtick_7">
     <g id="line2d_7">
      <g>
       <use xlink:href="#md6eaf5867c" x="319.530754" y="307.584" style="stroke: #000000; stroke-width: 0.8"/>
      </g>
     </g>
     <g id="text_7">
      <!-- 1750 -->
      <g transform="translate(306.805754 322.182437)scale(0.1 -0.1)">
       <use xlink:href="#DejaVuSans-31"/>
       <use xlink:href="#DejaVuSans-37" x="63.623047"/>
       <use xlink:href="#DejaVuSans-35" x="127.246094"/>
       <use xlink:href="#DejaVuSans-30" x="190.869141"/>
      </g>
     </g>
    </g>
    <g id="xtick_8">
     <g id="line2d_8">
      <g>
       <use xlink:href="#md6eaf5867c" x="361.174488" y="307.584" style="stroke: #000000; stroke-width: 0.8"/>
      </g>
     </g>
     <g id="text_8">
      <!-- 2000 -->
      <g transform="translate(348.449488 322.182437)scale(0.1 -0.1)">
       <use xlink:href="#DejaVuSans-32"/>
       <use xlink:href="#DejaVuSans-30" x="63.623047"/>
       <use xlink:href="#DejaVuSans-30" x="127.246094"/>
       <use xlink:href="#DejaVuSans-30" x="190.869141"/>
      </g>
     </g>
    </g>
    <g id="xtick_9">
     <g id="line2d_9">
      <g>
       <use xlink:href="#md6eaf5867c" x="402.818221" y="307.584" style="stroke: #000000; stroke-width: 0.8"/>
      </g>
     </g>
     <g id="text_9">
      <!-- 2250 -->
      <g transform="translate(390.093221 322.182437)scale(0.1 -0.1)">
       <use xlink:href="#DejaVuSans-32"/>
       <use xlink:href="#DejaVuSans-32" x="63.623047"/>
       <use xlink:href="#DejaVuSans-35" x="127.246094"/>
       <use xlink:href="#DejaVuSans-30" x="190.869141"/>
      </g>
     </g>
    </g>
    <g id="text_10">
     <!-- Learned Episodes -->
     <g transform="translate(192.102187 335.860562)scale(0.1 -0.1)">
      <defs>
       <path id="DejaVuSans-4c" d="M 628 4666 
L 1259 4666 
L 1259 531 
L 3531 531 
L 3531 0 
L 628 0 
L 628 4666 
z
" transform="scale(0.015625)"/>
       <path id="DejaVuSans-65" d="M 3597 1894 
L 3597 1613 
L 953 1613 
Q 991 1019 1311 708 
Q 1631 397 2203 397 
Q 2534 397 2845 478 
Q 3156 559 3463 722 
L 3463 178 
Q 3153 47 2828 -22 
Q 2503 -91 2169 -91 
Q 1331 -91 842 396 
Q 353 884 353 1716 
Q 353 2575 817 3079 
Q 1281 3584 2069 3584 
Q 2775 3584 3186 3129 
Q 3597 2675 3597 1894 
z
M 3022 2063 
Q 3016 2534 2758 2815 
Q 2500 3097 2075 3097 
Q 1594 3097 1305 2825 
Q 1016 2553 972 2059 
L 3022 2063 
z
" transform="scale(0.015625)"/>
       <path id="DejaVuSans-61" d="M 2194 1759 
Q 1497 1759 1228 1600 
Q 959 1441 959 1056 
Q 959 750 1161 570 
Q 1363 391 1709 391 
Q 2188 391 2477 730 
Q 2766 1069 2766 1631 
L 2766 1759 
L 2194 1759 
z
M 3341 1997 
L 3341 0 
L 2766 0 
L 2766 531 
Q 2569 213 2275 61 
Q 1981 -91 1556 -91 
Q 1019 -91 701 211 
Q 384 513 384 1019 
Q 384 1609 779 1909 
Q 1175 2209 1959 2209 
L 2766 2209 
L 2766 2266 
Q 2766 2663 2505 2880 
Q 2244 3097 1772 3097 
Q 1472 3097 1187 3025 
Q 903 2953 641 2809 
L 641 3341 
Q 956 3463 1253 3523 
Q 1550 3584 1831 3584 
Q 2591 3584 2966 3190 
Q 3341 2797 3341 1997 
z
" transform="scale(0.015625)"/>
       <path id="DejaVuSans-72" d="M 2631 2963 
Q 2534 3019 2420 3045 
Q 2306 3072 2169 3072 
Q 1681 3072 1420 2755 
Q 1159 2438 1159 1844 
L 1159 0 
L 581 0 
L 581 3500 
L 1159 3500 
L 1159 2956 
Q 1341 3275 1631 3429 
Q 1922 3584 2338 3584 
Q 2397 3584 2469 3576 
Q 2541 3569 2628 3553 
L 2631 2963 
z
" transform="scale(0.015625)"/>
       <path id="DejaVuSans-6e" d="M 3513 2113 
L 3513 0 
L 2938 0 
L 2938 2094 
Q 2938 2591 2744 2837 
Q 2550 3084 2163 3084 
Q 1697 3084 1428 2787 
Q 1159 2491 1159 1978 
L 1159 0 
L 581 0 
L 581 3500 
L 1159 3500 
L 1159 2956 
Q 1366 3272 1645 3428 
Q 1925 3584 2291 3584 
Q 2894 3584 3203 3211 
Q 3513 2838 3513 2113 
z
" transform="scale(0.015625)"/>
       <path id="DejaVuSans-64" d="M 2906 2969 
L 2906 4863 
L 3481 4863 
L 3481 0 
L 2906 0 
L 2906 525 
Q 2725 213 2448 61 
Q 2172 -91 1784 -91 
Q 1150 -91 751 415 
Q 353 922 353 1747 
Q 353 2572 751 3078 
Q 1150 3584 1784 3584 
Q 2172 3584 2448 3432 
Q 2725 3281 2906 2969 
z
M 947 1747 
Q 947 1113 1208 752 
Q 1469 391 1925 391 
Q 2381 391 2643 752 
Q 2906 1113 2906 1747 
Q 2906 2381 2643 2742 
Q 2381 3103 1925 3103 
Q 1469 3103 1208 2742 
Q 947 2381 947 1747 
z
" transform="scale(0.015625)"/>
       <path id="DejaVuSans-20" transform="scale(0.015625)"/>
       <path id="DejaVuSans-45" d="M 628 4666 
L 3578 4666 
L 3578 4134 
L 1259 4134 
L 1259 2753 
L 3481 2753 
L 3481 2222 
L 1259 2222 
L 1259 531 
L 3634 531 
L 3634 0 
L 628 0 
L 628 4666 
z
" transform="scale(0.015625)"/>
       <path id="DejaVuSans-70" d="M 1159 525 
L 1159 -1331 
L 581 -1331 
L 581 3500 
L 1159 3500 
L 1159 2969 
Q 1341 3281 1617 3432 
Q 1894 3584 2278 3584 
Q 2916 3584 3314 3078 
Q 3713 2572 3713 1747 
Q 3713 922 3314 415 
Q 2916 -91 2278 -91 
Q 1894 -91 1617 61 
Q 1341 213 1159 525 
z
M 3116 1747 
Q 3116 2381 2855 2742 
Q 2594 3103 2138 3103 
Q 1681 3103 1420 2742 
Q 1159 2381 1159 1747 
Q 1159 1113 1420 752 
Q 1681 391 2138 391 
Q 2594 391 2855 752 
Q 3116 1113 3116 1747 
z
" transform="scale(0.015625)"/>
       <path id="DejaVuSans-69" d="M 603 3500 
L 1178 3500 
L 1178 0 
L 603 0 
L 603 3500 
z
M 603 4863 
L 1178 4863 
L 1178 4134 
L 603 4134 
L 603 4863 
z
" transform="scale(0.015625)"/>
       <path id="DejaVuSans-73" d="M 2834 3397 
L 2834 2853 
Q 2591 2978 2328 3040 
Q 2066 3103 1784 3103 
Q 1356 3103 1142 2972 
Q 928 2841 928 2578 
Q 928 2378 1081 2264 
Q 1234 2150 1697 2047 
L 1894 2003 
Q 2506 1872 2764 1633 
Q 3022 1394 3022 966 
Q 3022 478 2636 193 
Q 2250 -91 1575 -91 
Q 1294 -91 989 -36 
Q 684 19 347 128 
L 347 722 
Q 666 556 975 473 
Q 1284 391 1588 391 
Q 1994 391 2212 530 
Q 2431 669 2431 922 
Q 2431 1156 2273 1281 
Q 2116 1406 1581 1522 
L 1381 1569 
Q 847 1681 609 1914 
Q 372 2147 372 2553 
Q 372 3047 722 3315 
Q 1072 3584 1716 3584 
Q 2034 3584 2315 3537 
Q 2597 3491 2834 3397 
z
" transform="scale(0.015625)"/>
       <path id="DejaVuSans-6f" d="M 1959 3097 
Q 1497 3097 1228 2736 
Q 959 2375 959 1747 
Q 959 1119 1226 758 
Q 1494 397 1959 397 
Q 2419 397 2687 759 
Q 2956 1122 2956 1747 
Q 2956 2369 2687 2733 
Q 2419 3097 1959 3097 
z
M 1959 3584 
Q 2709 3584 3137 3096 
Q 3566 2609 3566 1747 
Q 3566 888 3137 398 
Q 2709 -91 1959 -91 
Q 1206 -91 779 398 
Q 353 888 353 1747 
Q 353 2609 779 3096 
Q 1206 3584 1959 3584 
z
" transform="scale(0.015625)"/>
      </defs>
      <use xlink:href="#DejaVuSans-4c"/>
      <use xlink:href="#DejaVuSans-65" x="53.962891"/>
      <use xlink:href="#DejaVuSans-61" x="115.486328"/>
      <use xlink:href="#DejaVuSans-72" x="176.765625"/>
      <use xlink:href="#DejaVuSans-6e" x="216.128906"/>
      <use xlink:href="#DejaVuSans-65" x="279.507812"/>
      <use xlink:href="#DejaVuSans-64" x="341.03125"/>
      <use xlink:href="#DejaVuSans-20" x="404.507812"/>
      <use xlink:href="#DejaVuSans-45" x="436.294922"/>
      <use xlink:href="#DejaVuSans-70" x="499.478516"/>
      <use xlink:href="#DejaVuSans-69" x="562.955078"/>
      <use xlink:href="#DejaVuSans-73" x="590.738281"/>
      <use xlink:href="#DejaVuSans-6f" x="642.837891"/>
      <use xlink:href="#DejaVuSans-64" x="704.019531"/>
      <use xlink:href="#DejaVuSans-65" x="767.496094"/>
      <use xlink:href="#DejaVuSans-73" x="829.019531"/>
     </g>
    </g>
   </g>
   <g id="matplotlib.axis_2">
    <g id="ytick_1">
     <g id="line2d_10">
      <defs>
       <path id="m075e3530e9" d="M 0 0 
L -3.5 0 
" style="stroke: #000000; stroke-width: 0.8"/>
      </defs>
      <g>
       <use xlink:href="#m075e3530e9" x="57.6" y="270.945391" style="stroke: #000000; stroke-width: 0.8"/>
      </g>
     </g>
     <g id="text_11">
      <!-- 100 -->
      <g transform="translate(31.5125 274.74461)scale(0.1 -0.1)">
       <use xlink:href="#DejaVuSans-31"/>
       <use xlink:href="#DejaVuSans-30" x="63.623047"/>
       <use xlink:href="#DejaVuSans-30" x="127.246094"/>
      </g>
     </g>
    </g>
    <g id="ytick_2">
     <g id="line2d_11">
      <g>
       <use xlink:href="#m075e3530e9" x="57.6" y="212.510609" style="stroke: #000000; stroke-width: 0.8"/>
      </g>
     </g>
     <g id="text_12">
      <!-- 150 -->
      <g transform="translate(31.5125 216.309827)scale(0.1 -0.1)">
       <use xlink:href="#DejaVuSans-31"/>
       <use xlink:href="#DejaVuSans-35" x="63.623047"/>
       <use xlink:href="#DejaVuSans-30" x="127.246094"/>
      </g>
     </g>
    </g>
    <g id="ytick_3">
     <g id="line2d_12">
      <g>
       <use xlink:href="#m075e3530e9" x="57.6" y="154.075826" style="stroke: #000000; stroke-width: 0.8"/>
      </g>
     </g>
     <g id="text_13">
      <!-- 200 -->
      <g transform="translate(31.5125 157.875045)scale(0.1 -0.1)">
       <use xlink:href="#DejaVuSans-32"/>
       <use xlink:href="#DejaVuSans-30" x="63.623047"/>
       <use xlink:href="#DejaVuSans-30" x="127.246094"/>
      </g>
     </g>
    </g>
    <g id="ytick_4">
     <g id="line2d_13">
      <g>
       <use xlink:href="#m075e3530e9" x="57.6" y="95.641043" style="stroke: #000000; stroke-width: 0.8"/>
      </g>
     </g>
     <g id="text_14">
      <!-- 250 -->
      <g transform="translate(31.5125 99.440262)scale(0.1 -0.1)">
       <use xlink:href="#DejaVuSans-32"/>
       <use xlink:href="#DejaVuSans-35" x="63.623047"/>
       <use xlink:href="#DejaVuSans-30" x="127.246094"/>
      </g>
     </g>
    </g>
    <g id="text_15">
     <!-- Reward Density -->
     <g transform="translate(25.432812 213.74675)rotate(-90)scale(0.1 -0.1)">
      <defs>
       <path id="DejaVuSans-52" d="M 2841 2188 
Q 3044 2119 3236 1894 
Q 3428 1669 3622 1275 
L 4263 0 
L 3584 0 
L 2988 1197 
Q 2756 1666 2539 1819 
Q 2322 1972 1947 1972 
L 1259 1972 
L 1259 0 
L 628 0 
L 628 4666 
L 2053 4666 
Q 2853 4666 3247 4331 
Q 3641 3997 3641 3322 
Q 3641 2881 3436 2590 
Q 3231 2300 2841 2188 
z
M 1259 4147 
L 1259 2491 
L 2053 2491 
Q 2509 2491 2742 2702 
Q 2975 2913 2975 3322 
Q 2975 3731 2742 3939 
Q 2509 4147 2053 4147 
L 1259 4147 
z
" transform="scale(0.015625)"/>
       <path id="DejaVuSans-77" d="M 269 3500 
L 844 3500 
L 1563 769 
L 2278 3500 
L 2956 3500 
L 3675 769 
L 4391 3500 
L 4966 3500 
L 4050 0 
L 3372 0 
L 2619 2869 
L 1863 0 
L 1184 0 
L 269 3500 
z
" transform="scale(0.015625)"/>
       <path id="DejaVuSans-44" d="M 1259 4147 
L 1259 519 
L 2022 519 
Q 2988 519 3436 956 
Q 3884 1394 3884 2338 
Q 3884 3275 3436 3711 
Q 2988 4147 2022 4147 
L 1259 4147 
z
M 628 4666 
L 1925 4666 
Q 3281 4666 3915 4102 
Q 4550 3538 4550 2338 
Q 4550 1131 3912 565 
Q 3275 0 1925 0 
L 628 0 
L 628 4666 
z
" transform="scale(0.015625)"/>
       <path id="DejaVuSans-74" d="M 1172 4494 
L 1172 3500 
L 2356 3500 
L 2356 3053 
L 1172 3053 
L 1172 1153 
Q 1172 725 1289 603 
Q 1406 481 1766 481 
L 2356 481 
L 2356 0 
L 1766 0 
Q 1100 0 847 248 
Q 594 497 594 1153 
L 594 3053 
L 172 3053 
L 172 3500 
L 594 3500 
L 594 4494 
L 1172 4494 
z
" transform="scale(0.015625)"/>
       <path id="DejaVuSans-79" d="M 2059 -325 
Q 1816 -950 1584 -1140 
Q 1353 -1331 966 -1331 
L 506 -1331 
L 506 -850 
L 844 -850 
Q 1081 -850 1212 -737 
Q 1344 -625 1503 -206 
L 1606 56 
L 191 3500 
L 800 3500 
L 1894 763 
L 2988 3500 
L 3597 3500 
L 2059 -325 
z
" transform="scale(0.015625)"/>
      </defs>
      <use xlink:href="#DejaVuSans-52"/>
      <use xlink:href="#DejaVuSans-65" x="64.982422"/>
      <use xlink:href="#DejaVuSans-77" x="126.505859"/>
      <use xlink:href="#DejaVuSans-61" x="208.292969"/>
      <use xlink:href="#DejaVuSans-72" x="269.572266"/>
      <use xlink:href="#DejaVuSans-64" x="308.935547"/>
      <use xlink:href="#DejaVuSans-20" x="372.412109"/>
      <use xlink:href="#DejaVuSans-44" x="404.199219"/>
      <use xlink:href="#DejaVuSans-65" x="481.201172"/>
      <use xlink:href="#DejaVuSans-6e" x="542.724609"/>
      <use xlink:href="#DejaVuSans-73" x="606.103516"/>
      <use xlink:href="#DejaVuSans-69" x="658.203125"/>
      <use xlink:href="#DejaVuSans-74" x="685.986328"/>
      <use xlink:href="#DejaVuSans-79" x="725.195312"/>
     </g>
    </g>
   </g>
   <g id="LineCollection_1">
    <path d="M 92.572407 181.011923 
L 130.051767 181.011923 
" clip-path="url(#p239e9bfd8e)" style="fill: none; stroke: #1f77b4; stroke-width: 1.5"/>
    <path d="M 175.859874 160.695318 
L 213.339234 160.695318 
" clip-path="url(#p239e9bfd8e)" style="fill: none; stroke: #1f77b4; stroke-width: 1.5"/>
    <path d="M 259.147341 163.925593 
L 296.626701 163.925593 
" clip-path="url(#p239e9bfd8e)" style="fill: none; stroke: #1f77b4; stroke-width: 1.5"/>
    <path d="M 342.268233 164.360348 
L 379.747593 164.360348 
" clip-path="url(#p239e9bfd8e)" style="fill: none; stroke: #1f77b4; stroke-width: 1.5"/>
   </g>
   <g id="LineCollection_2">
    <path d="M 92.572407 64.086261 
L 130.051767 64.086261 
" clip-path="url(#p239e9bfd8e)" style="fill: none; stroke: #1f77b4; stroke-width: 1.5"/>
    <path d="M 175.859874 53.568 
L 213.339234 53.568 
" clip-path="url(#p239e9bfd8e)" style="fill: none; stroke: #1f77b4; stroke-width: 1.5"/>
    <path d="M 259.147341 74.604522 
L 296.626701 74.604522 
" clip-path="url(#p239e9bfd8e)" style="fill: none; stroke: #1f77b4; stroke-width: 1.5"/>
    <path d="M 342.268233 74.604522 
L 379.747593 74.604522 
" clip-path="url(#p239e9bfd8e)" style="fill: none; stroke: #1f77b4; stroke-width: 1.5"/>
   </g>
   <g id="LineCollection_3">
    <path d="M 92.572407 295.488 
L 130.051767 295.488 
" clip-path="url(#p239e9bfd8e)" style="fill: none; stroke: #1f77b4; stroke-width: 1.5"/>
    <path d="M 175.859874 259.258435 
L 213.339234 259.258435 
" clip-path="url(#p239e9bfd8e)" style="fill: none; stroke: #1f77b4; stroke-width: 1.5"/>
    <path d="M 259.147341 270.945391 
L 296.626701 270.945391 
" clip-path="url(#p239e9bfd8e)" style="fill: none; stroke: #1f77b4; stroke-width: 1.5"/>
    <path d="M 342.268233 258.089739 
L 379.747593 258.089739 
" clip-path="url(#p239e9bfd8e)" style="fill: none; stroke: #1f77b4; stroke-width: 1.5"/>
   </g>
   <g id="LineCollection_4">
    <path d="M 111.312087 295.488 
L 111.312087 64.086261 
" clip-path="url(#p239e9bfd8e)" style="fill: none; stroke: #1f77b4; stroke-width: 1.5"/>
    <path d="M 194.599554 259.258435 
L 194.599554 53.568 
" clip-path="url(#p239e9bfd8e)" style="fill: none; stroke: #1f77b4; stroke-width: 1.5"/>
    <path d="M 277.887021 270.945391 
L 277.887021 74.604522 
" clip-path="url(#p239e9bfd8e)" style="fill: none; stroke: #1f77b4; stroke-width: 1.5"/>
    <path d="M 361.007913 258.089739 
L 361.007913 74.604522 
" clip-path="url(#p239e9bfd8e)" style="fill: none; stroke: #1f77b4; stroke-width: 1.5"/>
   </g>
   <g id="line2d_14">
    <path d="M 111.312087 181.011923 
L 194.599554 160.695318 
L 277.887021 163.925593 
L 361.007913 164.360348 
" clip-path="url(#p239e9bfd8e)" style="fill: none; stroke: #4682b4; stroke-width: 1.5; stroke-linecap: square"/>
   </g>
   <g id="patch_3">
    <path d="M 57.6 307.584 
L 57.6 41.472 
" style="fill: none; stroke: #000000; stroke-width: 0.8; stroke-linejoin: miter; stroke-linecap: square"/>
   </g>
   <g id="patch_4">
    <path d="M 414.72 307.584 
L 414.72 41.472 
" style="fill: none; stroke: #000000; stroke-width: 0.8; stroke-linejoin: miter; stroke-linecap: square"/>
   </g>
   <g id="patch_5">
    <path d="M 57.6 307.584 
L 414.72 307.584 
" style="fill: none; stroke: #000000; stroke-width: 0.8; stroke-linejoin: miter; stroke-linecap: square"/>
   </g>
   <g id="patch_6">
    <path d="M 57.6 41.472 
L 414.72 41.472 
" style="fill: none; stroke: #000000; stroke-width: 0.8; stroke-linejoin: miter; stroke-linecap: square"/>
   </g>
   <g id="text_16">
    <!-- Violinplot for progress of customer/purchases_refurbished -->
    <g transform="translate(62.41125 35.472)scale(0.12 -0.12)">
     <defs>
      <path id="DejaVuSans-56" d="M 1831 0 
L 50 4666 
L 709 4666 
L 2188 738 
L 3669 4666 
L 4325 4666 
L 2547 0 
L 1831 0 
z
" transform="scale(0.015625)"/>
      <path id="DejaVuSans-6c" d="M 603 4863 
L 1178 4863 
L 1178 0 
L 603 0 
L 603 4863 
z
" transform="scale(0.015625)"/>
      <path id="DejaVuSans-66" d="M 2375 4863 
L 2375 4384 
L 1825 4384 
Q 1516 4384 1395 4259 
Q 1275 4134 1275 3809 
L 1275 3500 
L 2222 3500 
L 2222 3053 
L 1275 3053 
L 1275 0 
L 697 0 
L 697 3053 
L 147 3053 
L 147 3500 
L 697 3500 
L 697 3744 
Q 697 4328 969 4595 
Q 1241 4863 1831 4863 
L 2375 4863 
z
" transform="scale(0.015625)"/>
      <path id="DejaVuSans-67" d="M 2906 1791 
Q 2906 2416 2648 2759 
Q 2391 3103 1925 3103 
Q 1463 3103 1205 2759 
Q 947 2416 947 1791 
Q 947 1169 1205 825 
Q 1463 481 1925 481 
Q 2391 481 2648 825 
Q 2906 1169 2906 1791 
z
M 3481 434 
Q 3481 -459 3084 -895 
Q 2688 -1331 1869 -1331 
Q 1566 -1331 1297 -1286 
Q 1028 -1241 775 -1147 
L 775 -588 
Q 1028 -725 1275 -790 
Q 1522 -856 1778 -856 
Q 2344 -856 2625 -561 
Q 2906 -266 2906 331 
L 2906 616 
Q 2728 306 2450 153 
Q 2172 0 1784 0 
Q 1141 0 747 490 
Q 353 981 353 1791 
Q 353 2603 747 3093 
Q 1141 3584 1784 3584 
Q 2172 3584 2450 3431 
Q 2728 3278 2906 2969 
L 2906 3500 
L 3481 3500 
L 3481 434 
z
" transform="scale(0.015625)"/>
      <path id="DejaVuSans-63" d="M 3122 3366 
L 3122 2828 
Q 2878 2963 2633 3030 
Q 2388 3097 2138 3097 
Q 1578 3097 1268 2742 
Q 959 2388 959 1747 
Q 959 1106 1268 751 
Q 1578 397 2138 397 
Q 2388 397 2633 464 
Q 2878 531 3122 666 
L 3122 134 
Q 2881 22 2623 -34 
Q 2366 -91 2075 -91 
Q 1284 -91 818 406 
Q 353 903 353 1747 
Q 353 2603 823 3093 
Q 1294 3584 2113 3584 
Q 2378 3584 2631 3529 
Q 2884 3475 3122 3366 
z
" transform="scale(0.015625)"/>
      <path id="DejaVuSans-75" d="M 544 1381 
L 544 3500 
L 1119 3500 
L 1119 1403 
Q 1119 906 1312 657 
Q 1506 409 1894 409 
Q 2359 409 2629 706 
Q 2900 1003 2900 1516 
L 2900 3500 
L 3475 3500 
L 3475 0 
L 2900 0 
L 2900 538 
Q 2691 219 2414 64 
Q 2138 -91 1772 -91 
Q 1169 -91 856 284 
Q 544 659 544 1381 
z
M 1991 3584 
L 1991 3584 
z
" transform="scale(0.015625)"/>
      <path id="DejaVuSans-6d" d="M 3328 2828 
Q 3544 3216 3844 3400 
Q 4144 3584 4550 3584 
Q 5097 3584 5394 3201 
Q 5691 2819 5691 2113 
L 5691 0 
L 5113 0 
L 5113 2094 
Q 5113 2597 4934 2840 
Q 4756 3084 4391 3084 
Q 3944 3084 3684 2787 
Q 3425 2491 3425 1978 
L 3425 0 
L 2847 0 
L 2847 2094 
Q 2847 2600 2669 2842 
Q 2491 3084 2119 3084 
Q 1678 3084 1418 2786 
Q 1159 2488 1159 1978 
L 1159 0 
L 581 0 
L 581 3500 
L 1159 3500 
L 1159 2956 
Q 1356 3278 1631 3431 
Q 1906 3584 2284 3584 
Q 2666 3584 2933 3390 
Q 3200 3197 3328 2828 
z
" transform="scale(0.015625)"/>
      <path id="DejaVuSans-2f" d="M 1625 4666 
L 2156 4666 
L 531 -594 
L 0 -594 
L 1625 4666 
z
" transform="scale(0.015625)"/>
      <path id="DejaVuSans-68" d="M 3513 2113 
L 3513 0 
L 2938 0 
L 2938 2094 
Q 2938 2591 2744 2837 
Q 2550 3084 2163 3084 
Q 1697 3084 1428 2787 
Q 1159 2491 1159 1978 
L 1159 0 
L 581 0 
L 581 4863 
L 1159 4863 
L 1159 2956 
Q 1366 3272 1645 3428 
Q 1925 3584 2291 3584 
Q 2894 3584 3203 3211 
Q 3513 2838 3513 2113 
z
" transform="scale(0.015625)"/>
      <path id="DejaVuSans-5f" d="M 3263 -1063 
L 3263 -1509 
L -63 -1509 
L -63 -1063 
L 3263 -1063 
z
" transform="scale(0.015625)"/>
      <path id="DejaVuSans-62" d="M 3116 1747 
Q 3116 2381 2855 2742 
Q 2594 3103 2138 3103 
Q 1681 3103 1420 2742 
Q 1159 2381 1159 1747 
Q 1159 1113 1420 752 
Q 1681 391 2138 391 
Q 2594 391 2855 752 
Q 3116 1113 3116 1747 
z
M 1159 2969 
Q 1341 3281 1617 3432 
Q 1894 3584 2278 3584 
Q 2916 3584 3314 3078 
Q 3713 2572 3713 1747 
Q 3713 922 3314 415 
Q 2916 -91 2278 -91 
Q 1894 -91 1617 61 
Q 1341 213 1159 525 
L 1159 0 
L 581 0 
L 581 4863 
L 1159 4863 
L 1159 2969 
z
" transform="scale(0.015625)"/>
     </defs>
     <use xlink:href="#DejaVuSans-56"/>
     <use xlink:href="#DejaVuSans-69" x="66.158203"/>
     <use xlink:href="#DejaVuSans-6f" x="93.941406"/>
     <use xlink:href="#DejaVuSans-6c" x="155.123047"/>
     <use xlink:href="#DejaVuSans-69" x="182.90625"/>
     <use xlink:href="#DejaVuSans-6e" x="210.689453"/>
     <use xlink:href="#DejaVuSans-70" x="274.068359"/>
     <use xlink:href="#DejaVuSans-6c" x="337.544922"/>
     <use xlink:href="#DejaVuSans-6f" x="365.328125"/>
     <use xlink:href="#DejaVuSans-74" x="426.509766"/>
     <use xlink:href="#DejaVuSans-20" x="465.71875"/>
     <use xlink:href="#DejaVuSans-66" x="497.505859"/>
     <use xlink:href="#DejaVuSans-6f" x="532.710938"/>
     <use xlink:href="#DejaVuSans-72" x="593.892578"/>
     <use xlink:href="#DejaVuSans-20" x="635.005859"/>
     <use xlink:href="#DejaVuSans-70" x="666.792969"/>
     <use xlink:href="#DejaVuSans-72" x="730.269531"/>
     <use xlink:href="#DejaVuSans-6f" x="769.132812"/>
     <use xlink:href="#DejaVuSans-67" x="830.314453"/>
     <use xlink:href="#DejaVuSans-72" x="893.791016"/>
     <use xlink:href="#DejaVuSans-65" x="932.654297"/>
     <use xlink:href="#DejaVuSans-73" x="994.177734"/>
     <use xlink:href="#DejaVuSans-73" x="1046.277344"/>
     <use xlink:href="#DejaVuSans-20" x="1098.376953"/>
     <use xlink:href="#DejaVuSans-6f" x="1130.164062"/>
     <use xlink:href="#DejaVuSans-66" x="1191.345703"/>
     <use xlink:href="#DejaVuSans-20" x="1226.550781"/>
     <use xlink:href="#DejaVuSans-63" x="1258.337891"/>
     <use xlink:href="#DejaVuSans-75" x="1313.318359"/>
     <use xlink:href="#DejaVuSans-73" x="1376.697266"/>
     <use xlink:href="#DejaVuSans-74" x="1428.796875"/>
     <use xlink:href="#DejaVuSans-6f" x="1468.005859"/>
     <use xlink:href="#DejaVuSans-6d" x="1529.1875"/>
     <use xlink:href="#DejaVuSans-65" x="1626.599609"/>
     <use xlink:href="#DejaVuSans-72" x="1688.123047"/>
     <use xlink:href="#DejaVuSans-2f" x="1729.236328"/>
     <use xlink:href="#DejaVuSans-70" x="1762.927734"/>
     <use xlink:href="#DejaVuSans-75" x="1826.404297"/>
     <use xlink:href="#DejaVuSans-72" x="1889.783203"/>
     <use xlink:href="#DejaVuSans-63" x="1928.646484"/>
     <use xlink:href="#DejaVuSans-68" x="1983.626953"/>
     <use xlink:href="#DejaVuSans-61" x="2047.005859"/>
     <use xlink:href="#DejaVuSans-73" x="2108.285156"/>
     <use xlink:href="#DejaVuSans-65" x="2160.384766"/>
     <use xlink:href="#DejaVuSans-73" x="2221.908203"/>
     <use xlink:href="#DejaVuSans-5f" x="2274.007812"/>
     <use xlink:href="#DejaVuSans-72" x="2324.007812"/>
     <use xlink:href="#DejaVuSans-65" x="2362.871094"/>
     <use xlink:href="#DejaVuSans-66" x="2424.394531"/>
     <use xlink:href="#DejaVuSans-75" x="2459.599609"/>
     <use xlink:href="#DejaVuSans-72" x="2522.978516"/>
     <use xlink:href="#DejaVuSans-62" x="2564.091797"/>
     <use xlink:href="#DejaVuSans-69" x="2627.568359"/>
     <use xlink:href="#DejaVuSans-73" x="2655.351562"/>
     <use xlink:href="#DejaVuSans-68" x="2707.451172"/>
     <use xlink:href="#DejaVuSans-65" x="2770.830078"/>
     <use xlink:href="#DejaVuSans-64" x="2832.353516"/>
    </g>
   </g>
   <g id="legend_1">
    <g id="patch_7">
     <path d="M 284.430938 64.150125 
L 407.72 64.150125 
Q 409.72 64.150125 409.72 62.150125 
L 409.72 48.472 
Q 409.72 46.472 407.72 46.472 
L 284.430938 46.472 
Q 282.430938 46.472 282.430938 48.472 
L 282.430938 62.150125 
Q 282.430938 64.150125 284.430938 64.150125 
z
" style="fill: #ffffff; opacity: 0.8; stroke: #cccccc; stroke-linejoin: miter"/>
    </g>
    <g id="line2d_15">
     <path d="M 286.430938 54.570438 
L 296.430938 54.570438 
L 306.430938 54.570438 
" style="fill: none; stroke: #4682b4; stroke-width: 1.5; stroke-linecap: square"/>
    </g>
    <g id="text_17">
     <!-- Storage-Minimizer -->
     <g transform="translate(314.430938 58.070438)scale(0.1 -0.1)">
      <defs>
       <path id="DejaVuSans-53" d="M 3425 4513 
L 3425 3897 
Q 3066 4069 2747 4153 
Q 2428 4238 2131 4238 
Q 1616 4238 1336 4038 
Q 1056 3838 1056 3469 
Q 1056 3159 1242 3001 
Q 1428 2844 1947 2747 
L 2328 2669 
Q 3034 2534 3370 2195 
Q 3706 1856 3706 1288 
Q 3706 609 3251 259 
Q 2797 -91 1919 -91 
Q 1588 -91 1214 -16 
Q 841 59 441 206 
L 441 856 
Q 825 641 1194 531 
Q 1563 422 1919 422 
Q 2459 422 2753 634 
Q 3047 847 3047 1241 
Q 3047 1584 2836 1778 
Q 2625 1972 2144 2069 
L 1759 2144 
Q 1053 2284 737 2584 
Q 422 2884 422 3419 
Q 422 4038 858 4394 
Q 1294 4750 2059 4750 
Q 2388 4750 2728 4690 
Q 3069 4631 3425 4513 
z
" transform="scale(0.015625)"/>
       <path id="DejaVuSans-2d" d="M 313 2009 
L 1997 2009 
L 1997 1497 
L 313 1497 
L 313 2009 
z
" transform="scale(0.015625)"/>
       <path id="DejaVuSans-4d" d="M 628 4666 
L 1569 4666 
L 2759 1491 
L 3956 4666 
L 4897 4666 
L 4897 0 
L 4281 0 
L 4281 4097 
L 3078 897 
L 2444 897 
L 1241 4097 
L 1241 0 
L 628 0 
L 628 4666 
z
" transform="scale(0.015625)"/>
       <path id="DejaVuSans-7a" d="M 353 3500 
L 3084 3500 
L 3084 2975 
L 922 459 
L 3084 459 
L 3084 0 
L 275 0 
L 275 525 
L 2438 3041 
L 353 3041 
L 353 3500 
z
" transform="scale(0.015625)"/>
      </defs>
      <use xlink:href="#DejaVuSans-53"/>
      <use xlink:href="#DejaVuSans-74" x="63.476562"/>
      <use xlink:href="#DejaVuSans-6f" x="102.685547"/>
      <use xlink:href="#DejaVuSans-72" x="163.867188"/>
      <use xlink:href="#DejaVuSans-61" x="204.980469"/>
      <use xlink:href="#DejaVuSans-67" x="266.259766"/>
      <use xlink:href="#DejaVuSans-65" x="329.736328"/>
      <use xlink:href="#DejaVuSans-2d" x="391.259766"/>
      <use xlink:href="#DejaVuSans-4d" x="427.34375"/>
      <use xlink:href="#DejaVuSans-69" x="513.623047"/>
      <use xlink:href="#DejaVuSans-6e" x="541.40625"/>
      <use xlink:href="#DejaVuSans-69" x="604.785156"/>
      <use xlink:href="#DejaVuSans-6d" x="632.568359"/>
      <use xlink:href="#DejaVuSans-69" x="729.980469"/>
      <use xlink:href="#DejaVuSans-7a" x="757.763672"/>
      <use xlink:href="#DejaVuSans-65" x="810.253906"/>
      <use xlink:href="#DejaVuSans-72" x="871.777344"/>
     </g>
    </g>
   </g>
  </g>
 </g>
 <defs>
  <clipPath id="p239e9bfd8e">
   <rect x="57.6" y="41.472" width="357.12" height="266.112"/>
  </clipPath>
 </defs>
</svg>
