<?xml version="1.0" encoding="utf-8" standalone="no"?>
<!DOCTYPE svg PUBLIC "-//W3C//DTD SVG 1.1//EN"
  "http://www.w3.org/Graphics/SVG/1.1/DTD/svg11.dtd">
<svg xmlns:xlink="http://www.w3.org/1999/xlink" width="460.8pt" height="345.6pt" viewBox="0 0 460.8 345.6" xmlns="http://www.w3.org/2000/svg" version="1.1">
 <metadata>
  <rdf:RDF xmlns:dc="http://purl.org/dc/elements/1.1/" xmlns:cc="http://creativecommons.org/ns#" xmlns:rdf="http://www.w3.org/1999/02/22-rdf-syntax-ns#">
   <cc:Work>
    <dc:type rdf:resource="http://purl.org/dc/dcmitype/StillImage"/>
    <dc:date>2022-06-15T18:26:49.355606</dc:date>
    <dc:format>image/svg+xml</dc:format>
    <dc:creator>
     <cc:Agent>
      <dc:title>Matplotlib v3.5.2, https://matplotlib.org/</dc:title>
     </cc:Agent>
    </dc:creator>
   </cc:Work>
  </rdf:RDF>
 </metadata>
 <defs>
  <style type="text/css">*{stroke-linejoin: round; stroke-linecap: butt}</style>
 </defs>
 <g id="figure_1">
  <g id="patch_1">
   <path d="M 0 345.6 
L 460.8 345.6 
L 460.8 0 
L 0 0 
z
" style="fill: #ffffff"/>
  </g>
  <g id="axes_1">
   <g id="patch_2">
    <path d="M 57.6 307.584 
L 414.72 307.584 
L 414.72 41.472 
L 57.6 41.472 
z
" style="fill: #ffffff"/>
   </g>
   <g id="PolyCollection_1">
    <path d="M 112.280499 295.488 
L 110.343676 295.488 
L 110.289889 293.466182 
L 110.248342 291.444364 
L 110.215252 289.422545 
L 110.184016 287.400727 
L 110.14537 285.378909 
L 110.087832 283.357091 
L 109.998419 281.335273 
L 109.863575 279.313455 
L 109.670211 277.291636 
L 109.406771 275.269818 
L 109.064189 273.248 
L 108.636642 271.226182 
L 108.121974 269.204364 
L 107.521721 267.182545 
L 106.840677 265.160727 
L 106.086006 263.138909 
L 105.26598 261.117091 
L 104.388487 259.095273 
L 103.459504 257.073455 
L 102.481832 255.051636 
L 101.454311 253.029818 
L 100.371763 251.008 
L 99.225774 248.986182 
L 98.0063 246.964364 
L 96.70392 244.942545 
L 95.312434 242.920727 
L 93.831371 240.898909 
L 92.267983 238.877091 
L 90.638313 236.855273 
L 88.96709 234.833455 
L 87.286359 232.811636 
L 85.632994 230.789818 
L 84.04539 228.768 
L 82.559798 226.746182 
L 81.206778 224.724364 
L 80.00827 222.702545 
L 78.97564 220.680727 
L 78.108953 218.658909 
L 77.397551 216.637091 
L 76.821859 214.615273 
L 76.356181 212.593455 
L 75.972149 210.571636 
L 75.642385 208.549818 
L 75.343898 206.528 
L 75.060782 204.506182 
L 74.785826 202.484364 
L 74.520858 200.462545 
L 74.27579 198.440727 
L 74.066573 196.418909 
L 73.912411 194.397091 
L 73.832727 192.375273 
L 73.844322 190.353455 
L 73.959146 188.331636 
L 74.182914 186.309818 
L 74.514657 184.288 
L 74.947137 182.266182 
L 75.467966 180.244364 
L 76.061214 178.222545 
L 76.709287 176.200727 
L 77.394893 174.178909 
L 78.102905 172.157091 
L 78.821968 170.135273 
L 79.545682 168.113455 
L 80.273212 166.091636 
L 81.009213 164.069818 
L 81.763022 162.048 
L 82.54718 160.026182 
L 83.375448 158.004364 
L 84.26057 155.982545 
L 85.212098 153.960727 
L 86.234561 151.938909 
L 87.326241 149.917091 
L 88.478712 147.895273 
L 89.677198 145.873455 
L 90.901714 143.851636 
L 92.128894 141.829818 
L 93.334286 139.808 
L 94.494873 137.786182 
L 95.591531 135.764364 
L 96.611057 133.742545 
L 97.547509 131.720727 
L 98.402581 129.698909 
L 99.184942 127.677091 
L 99.908605 125.655273 
L 100.590572 123.633455 
L 101.248154 121.611636 
L 101.896414 119.589818 
L 102.546176 117.568 
L 103.202885 115.546182 
L 103.866461 113.524364 
L 104.532057 111.502545 
L 105.191478 109.480727 
L 105.834922 107.458909 
L 106.452669 105.437091 
L 107.036425 103.415273 
L 107.580149 101.393455 
L 108.080318 99.371636 
L 108.535707 97.349818 
L 108.946871 95.328 
L 113.677304 95.328 
L 113.677304 95.328 
L 114.088468 97.349818 
L 114.543857 99.371636 
L 115.044025 101.393455 
L 115.58775 103.415273 
L 116.171506 105.437091 
L 116.789253 107.458909 
L 117.432697 109.480727 
L 118.092118 111.502545 
L 118.757714 113.524364 
L 119.42129 115.546182 
L 120.077999 117.568 
L 120.727761 119.589818 
L 121.376021 121.611636 
L 122.033602 123.633455 
L 122.71557 125.655273 
L 123.439233 127.677091 
L 124.221594 129.698909 
L 125.076665 131.720727 
L 126.013117 133.742545 
L 127.032644 135.764364 
L 128.129301 137.786182 
L 129.289889 139.808 
L 130.49528 141.829818 
L 131.722461 143.851636 
L 132.946977 145.873455 
L 134.145462 147.895273 
L 135.297934 149.917091 
L 136.389614 151.938909 
L 137.412076 153.960727 
L 138.363604 155.982545 
L 139.248727 158.004364 
L 140.076995 160.026182 
L 140.861153 162.048 
L 141.614962 164.069818 
L 142.350963 166.091636 
L 143.078493 168.113455 
L 143.802207 170.135273 
L 144.521269 172.157091 
L 145.229281 174.178909 
L 145.914887 176.200727 
L 146.562961 178.222545 
L 147.156209 180.244364 
L 147.677038 182.266182 
L 148.109518 184.288 
L 148.441261 186.309818 
L 148.665029 188.331636 
L 148.779852 190.353455 
L 148.791447 192.375273 
L 148.711763 194.397091 
L 148.557602 196.418909 
L 148.348384 198.440727 
L 148.103317 200.462545 
L 147.838349 202.484364 
L 147.563393 204.506182 
L 147.280277 206.528 
L 146.98179 208.549818 
L 146.652025 210.571636 
L 146.267993 212.593455 
L 145.802316 214.615273 
L 145.226624 216.637091 
L 144.515222 218.658909 
L 143.648535 220.680727 
L 142.615904 222.702545 
L 141.417396 224.724364 
L 140.064377 226.746182 
L 138.578784 228.768 
L 136.991181 230.789818 
L 135.337815 232.811636 
L 133.657084 234.833455 
L 131.985861 236.855273 
L 130.356192 238.877091 
L 128.792804 240.898909 
L 127.311741 242.920727 
L 125.920254 244.942545 
L 124.617875 246.964364 
L 123.398401 248.986182 
L 122.252412 251.008 
L 121.169864 253.029818 
L 120.142342 255.051636 
L 119.16467 257.073455 
L 118.235688 259.095273 
L 117.358194 261.117091 
L 116.538169 263.138909 
L 115.783498 265.160727 
L 115.102453 267.182545 
L 114.502201 269.204364 
L 113.987533 271.226182 
L 113.559985 273.248 
L 113.217404 275.269818 
L 112.953963 277.291636 
L 112.7606 279.313455 
L 112.625755 281.335273 
L 112.536343 283.357091 
L 112.478805 285.378909 
L 112.440159 287.400727 
L 112.408923 289.422545 
L 112.375832 291.444364 
L 112.334286 293.466182 
L 112.280499 295.488 
z
" clip-path="url(#p1b8d4007b7)" style="fill: #1f77b4; fill-opacity: 0.3"/>
   </g>
   <g id="PolyCollection_2">
    <path d="M 196.134077 255.168 
L 193.065031 255.168 
L 192.808358 253.189818 
L 192.513437 251.211636 
L 192.173837 249.233455 
L 191.783583 247.255273 
L 191.337979 245.277091 
L 190.834339 243.298909 
L 190.272471 241.320727 
L 189.654796 239.342545 
L 188.986017 237.364364 
L 188.272378 235.386182 
L 187.520628 233.408 
L 186.736873 231.429818 
L 185.92554 229.451636 
L 185.088654 227.473455 
L 184.225567 225.495273 
L 183.333185 223.517091 
L 182.40664 221.538909 
L 181.440234 219.560727 
L 180.428491 217.582545 
L 179.367086 215.604364 
L 178.253507 213.626182 
L 177.087382 211.648 
L 175.870473 209.669818 
L 174.60645 207.691636 
L 173.300586 205.713455 
L 171.95953 203.735273 
L 170.591281 201.757091 
L 169.205392 199.778909 
L 167.813379 197.800727 
L 166.429192 195.822545 
L 165.06956 193.844364 
L 163.754026 191.866182 
L 162.504475 189.888 
L 161.344091 187.909818 
L 160.295771 185.931636 
L 159.380153 183.953455 
L 158.613554 181.975273 
L 158.006165 179.997091 
L 157.560889 178.018909 
L 157.273114 176.040727 
L 157.131564 174.062545 
L 157.120194 172.084364 
L 157.220836 170.106182 
L 157.416156 168.128 
L 157.692361 166.149818 
L 158.041093 164.171636 
L 158.460119 162.193455 
L 158.952615 160.215273 
L 159.525155 158.237091 
L 160.184805 156.258909 
L 160.935894 154.280727 
L 161.777154 152.302545 
L 162.699833 150.324364 
L 163.687219 148.346182 
L 164.715711 146.368 
L 165.757274 144.389818 
L 166.782851 142.411636 
L 167.766106 140.433455 
L 168.686848 138.455273 
L 169.533542 136.477091 
L 170.304507 134.498909 
L 171.007658 132.520727 
L 171.658894 130.542545 
L 172.27946 128.564364 
L 172.892756 126.586182 
L 173.521111 124.608 
L 174.182988 122.629818 
L 174.890983 120.651636 
L 175.650808 118.673455 
L 176.461287 116.695273 
L 177.315225 114.717091 
L 178.20093 112.738909 
L 179.104066 110.760727 
L 180.009546 108.782545 
L 180.903196 106.804364 
L 181.772997 104.826182 
L 182.609822 102.848 
L 183.407656 100.869818 
L 184.163405 98.891636 
L 184.876398 96.913455 
L 185.547775 94.935273 
L 186.179868 92.957091 
L 186.77569 90.978909 
L 187.338564 89.000727 
L 187.871888 87.022545 
L 188.37898 85.044364 
L 188.862951 83.066182 
L 189.326568 81.088 
L 189.772078 79.109818 
L 190.201027 77.131636 
L 190.61412 75.153455 
L 191.011156 73.175273 
L 191.391104 71.197091 
L 191.752291 69.218909 
L 192.092707 67.240727 
L 192.410349 65.262545 
L 192.703544 63.284364 
L 192.971194 61.306182 
L 193.2129 59.328 
L 195.986208 59.328 
L 195.986208 59.328 
L 196.227914 61.306182 
L 196.495564 63.284364 
L 196.788759 65.262545 
L 197.106401 67.240727 
L 197.446817 69.218909 
L 197.808004 71.197091 
L 198.187952 73.175273 
L 198.584989 75.153455 
L 198.998081 77.131636 
L 199.42703 79.109818 
L 199.87254 81.088 
L 200.336157 83.066182 
L 200.820129 85.044364 
L 201.32722 87.022545 
L 201.860544 89.000727 
L 202.423418 90.978909 
L 203.01924 92.957091 
L 203.651333 94.935273 
L 204.32271 96.913455 
L 205.035703 98.891636 
L 205.791452 100.869818 
L 206.589286 102.848 
L 207.426111 104.826182 
L 208.295912 106.804364 
L 209.189562 108.782545 
L 210.095042 110.760727 
L 210.998178 112.738909 
L 211.883884 114.717091 
L 212.737822 116.695273 
L 213.5483 118.673455 
L 214.308125 120.651636 
L 215.01612 122.629818 
L 215.677998 124.608 
L 216.306353 126.586182 
L 216.919649 128.564364 
L 217.540214 130.542545 
L 218.19145 132.520727 
L 218.894601 134.498909 
L 219.665567 136.477091 
L 220.51226 138.455273 
L 221.433003 140.433455 
L 222.416257 142.411636 
L 223.441834 144.389818 
L 224.483397 146.368 
L 225.511889 148.346182 
L 226.499275 150.324364 
L 227.421954 152.302545 
L 228.263214 154.280727 
L 229.014303 156.258909 
L 229.673953 158.237091 
L 230.246494 160.215273 
L 230.738989 162.193455 
L 231.158015 164.171636 
L 231.506747 166.149818 
L 231.782952 168.128 
L 231.978272 170.106182 
L 232.078914 172.084364 
L 232.067544 174.062545 
L 231.925995 176.040727 
L 231.638219 178.018909 
L 231.192943 179.997091 
L 230.585554 181.975273 
L 229.818955 183.953455 
L 228.903338 185.931636 
L 227.855018 187.909818 
L 226.694633 189.888 
L 225.445082 191.866182 
L 224.129548 193.844364 
L 222.769917 195.822545 
L 221.385729 197.800727 
L 219.993716 199.778909 
L 218.607827 201.757091 
L 217.239578 203.735273 
L 215.898523 205.713455 
L 214.592658 207.691636 
L 213.328635 209.669818 
L 212.111726 211.648 
L 210.945601 213.626182 
L 209.832022 215.604364 
L 208.770617 217.582545 
L 207.758874 219.560727 
L 206.792468 221.538909 
L 205.865923 223.517091 
L 204.973542 225.495273 
L 204.110454 227.473455 
L 203.273568 229.451636 
L 202.462235 231.429818 
L 201.67848 233.408 
L 200.92673 235.386182 
L 200.213091 237.364364 
L 199.544312 239.342545 
L 198.926637 241.320727 
L 198.36477 243.298909 
L 197.861129 245.277091 
L 197.415525 247.255273 
L 197.025271 249.233455 
L 196.685671 251.211636 
L 196.390751 253.189818 
L 196.134077 255.168 
z
" clip-path="url(#p1b8d4007b7)" style="fill: #1f77b4; fill-opacity: 0.3"/>
   </g>
   <g id="PolyCollection_3">
    <path d="M 279.231208 268.128 
L 276.542833 268.128 
L 276.313125 266.120727 
L 276.057555 264.113455 
L 275.776146 262.106182 
L 275.469886 260.098909 
L 275.140655 258.091636 
L 274.790888 256.084364 
L 274.422986 254.077091 
L 274.038494 252.069818 
L 273.637178 250.062545 
L 273.216129 248.055273 
L 272.769086 246.048 
L 272.286143 244.040727 
L 271.753961 242.033455 
L 271.156545 240.026182 
L 270.476547 238.018909 
L 269.696976 236.011636 
L 268.803093 234.004364 
L 267.784265 231.997091 
L 266.635498 229.989818 
L 265.358449 227.982545 
L 263.961777 225.975273 
L 262.460793 223.968 
L 260.876486 221.960727 
L 259.234062 219.953455 
L 257.561198 217.946182 
L 255.886236 215.938909 
L 254.236477 213.931636 
L 252.636742 211.924364 
L 251.108272 209.917091 
L 249.668024 207.909818 
L 248.328377 205.902545 
L 247.097233 203.895273 
L 245.978466 201.888 
L 244.972655 199.880727 
L 244.077984 197.873455 
L 243.29117 195.866182 
L 242.608274 193.858909 
L 242.025257 191.851636 
L 241.538246 189.844364 
L 241.143507 187.837091 
L 240.837252 185.829818 
L 240.61544 183.822545 
L 240.473727 181.815273 
L 240.407661 179.808 
L 240.413102 177.800727 
L 240.486751 175.793455 
L 240.626566 173.786182 
L 240.831872 171.778909 
L 241.103042 169.771636 
L 241.440764 167.764364 
L 241.845076 165.757091 
L 242.314456 163.749818 
L 242.845271 161.742545 
L 243.431813 159.735273 
L 244.066971 157.728 
L 244.743376 155.720727 
L 245.454721 153.713455 
L 246.196842 151.706182 
L 246.968247 149.698909 
L 247.769863 147.691636 
L 248.604062 145.684364 
L 249.473142 143.677091 
L 250.377665 141.669818 
L 251.315018 139.662545 
L 252.278553 137.655273 
L 253.257503 135.648 
L 254.237709 133.640727 
L 255.203025 131.633455 
L 256.137186 129.626182 
L 257.025815 127.618909 
L 257.858299 125.611636 
L 258.629248 123.604364 
L 259.339347 121.597091 
L 259.995484 119.589818 
L 260.610109 117.582545 
L 261.199895 115.575273 
L 261.783857 113.568 
L 262.381145 111.560727 
L 263.008827 109.553455 
L 263.679923 107.546182 
L 264.401984 105.538909 
L 265.176382 103.531636 
L 265.998386 101.524364 
L 266.857957 99.517091 
L 267.74112 97.509818 
L 268.63164 95.502545 
L 269.51277 93.495273 
L 270.3688 91.488 
L 271.186259 89.480727 
L 271.954659 87.473455 
L 272.666791 85.466182 
L 273.318637 83.458909 
L 273.908997 81.451636 
L 274.438958 79.444364 
L 274.911307 77.437091 
L 275.32996 75.429818 
L 275.699462 73.422545 
L 276.024579 71.415273 
L 276.309978 69.408 
L 279.464064 69.408 
L 279.464064 69.408 
L 279.749463 71.415273 
L 280.074579 73.422545 
L 280.444082 75.429818 
L 280.862735 77.437091 
L 281.335084 79.444364 
L 281.865045 81.451636 
L 282.455404 83.458909 
L 283.10725 85.466182 
L 283.819383 87.473455 
L 284.587782 89.480727 
L 285.405241 91.488 
L 286.261272 93.495273 
L 287.142401 95.502545 
L 288.032922 97.509818 
L 288.916085 99.517091 
L 289.775656 101.524364 
L 290.597659 103.531636 
L 291.372058 105.538909 
L 292.094119 107.546182 
L 292.765214 109.553455 
L 293.392896 111.560727 
L 293.990185 113.568 
L 294.574146 115.575273 
L 295.163933 117.582545 
L 295.778558 119.589818 
L 296.434695 121.597091 
L 297.144794 123.604364 
L 297.915742 125.611636 
L 298.748226 127.618909 
L 299.636856 129.626182 
L 300.571016 131.633455 
L 301.536333 133.640727 
L 302.516538 135.648 
L 303.495489 137.655273 
L 304.459024 139.662545 
L 305.396377 141.669818 
L 306.3009 143.677091 
L 307.16998 145.684364 
L 308.004178 147.691636 
L 308.805795 149.698909 
L 309.577199 151.706182 
L 310.319321 153.713455 
L 311.030665 155.720727 
L 311.707071 157.728 
L 312.342228 159.735273 
L 312.928771 161.742545 
L 313.459586 163.749818 
L 313.928965 165.757091 
L 314.333278 167.764364 
L 314.671 169.771636 
L 314.94217 171.778909 
L 315.147476 173.786182 
L 315.28729 175.793455 
L 315.360939 177.800727 
L 315.366381 179.808 
L 315.300314 181.815273 
L 315.158602 183.822545 
L 314.93679 185.829818 
L 314.630535 187.837091 
L 314.235795 189.844364 
L 313.748785 191.851636 
L 313.165768 193.858909 
L 312.482871 195.866182 
L 311.696058 197.873455 
L 310.801387 199.880727 
L 309.795576 201.888 
L 308.676809 203.895273 
L 307.445665 205.902545 
L 306.106018 207.909818 
L 304.66577 209.917091 
L 303.137299 211.924364 
L 301.537565 213.931636 
L 299.887806 215.938909 
L 298.212844 217.946182 
L 296.53998 219.953455 
L 294.897555 221.960727 
L 293.313249 223.968 
L 291.812265 225.975273 
L 290.415592 227.982545 
L 289.138543 229.989818 
L 287.989776 231.997091 
L 286.970949 234.004364 
L 286.077066 236.011636 
L 285.297494 238.018909 
L 284.617497 240.026182 
L 284.020081 242.033455 
L 283.487899 244.040727 
L 283.004956 246.048 
L 282.557913 248.055273 
L 282.136863 250.062545 
L 281.735547 252.069818 
L 281.351056 254.077091 
L 280.983154 256.084364 
L 280.633387 258.091636 
L 280.304155 260.098909 
L 279.997896 262.106182 
L 279.716486 264.113455 
L 279.460916 266.120727 
L 279.231208 268.128 
z
" clip-path="url(#p1b8d4007b7)" style="fill: #1f77b4; fill-opacity: 0.3"/>
   </g>
   <g id="PolyCollection_4">
    <path d="M 362.837606 260.928 
L 359.17822 260.928 
L 358.978563 258.833455 
L 358.770178 256.738909 
L 358.545662 254.644364 
L 358.294481 252.549818 
L 358.003302 250.455273 
L 357.656623 248.360727 
L 357.237656 246.266182 
L 356.729396 244.171636 
L 356.115811 242.077091 
L 355.383086 239.982545 
L 354.520852 237.888 
L 353.523331 235.793455 
L 352.390286 233.698909 
L 351.127661 231.604364 
L 349.747783 229.509818 
L 348.268992 227.415273 
L 346.714653 225.320727 
L 345.11156 223.226182 
L 343.487866 221.131636 
L 341.870793 219.037091 
L 340.284415 216.942545 
L 338.747881 214.848 
L 337.274338 212.753455 
L 335.870743 210.658909 
L 334.538573 208.564364 
L 333.275284 206.469818 
L 332.076255 204.375273 
L 330.93684 202.280727 
L 329.854209 200.186182 
L 328.828669 198.091636 
L 327.864304 195.997091 
L 326.968879 193.902545 
L 326.153083 191.808 
L 325.429266 189.713455 
L 324.809867 187.618909 
L 324.305769 185.524364 
L 323.924754 183.429818 
L 323.670265 181.335273 
L 323.540584 179.240727 
L 323.528553 177.146182 
L 323.621861 175.051636 
L 323.803932 172.957091 
L 324.055332 170.862545 
L 324.355568 168.768 
L 324.685091 166.673455 
L 325.02723 164.578909 
L 325.369803 162.484364 
L 325.706143 160.389818 
L 326.035382 158.295273 
L 326.361927 156.200727 
L 326.694232 154.106182 
L 327.043076 152.011636 
L 327.419656 149.917091 
L 327.833844 147.822545 
L 328.292884 145.728 
L 328.800729 143.633455 
L 329.358058 141.538909 
L 329.962868 139.444364 
L 330.611434 137.349818 
L 331.299363 135.255273 
L 332.022491 133.160727 
L 332.777447 131.066182 
L 333.561804 128.971636 
L 334.373876 126.877091 
L 335.212281 124.782545 
L 336.075472 122.688 
L 336.961383 120.593455 
L 337.867322 118.498909 
L 338.790109 116.404364 
L 339.726433 114.309818 
L 340.673272 112.215273 
L 341.628259 110.120727 
L 342.58986 108.026182 
L 343.557303 105.931636 
L 344.530266 103.837091 
L 345.508387 101.742545 
L 346.490709 99.648 
L 347.475177 97.553455 
L 348.458297 95.458909 
L 349.434994 93.364364 
L 350.398706 91.269818 
L 351.341679 89.175273 
L 352.255414 87.080727 
L 353.131209 84.986182 
L 353.960733 82.891636 
L 354.736586 80.797091 
L 355.452794 78.702545 
L 356.105214 76.608 
L 356.691802 74.513455 
L 357.212724 72.418909 
L 357.670306 70.324364 
L 358.0688 68.229818 
L 358.414002 66.135273 
L 358.712756 64.040727 
L 358.972384 61.946182 
L 359.200124 59.851636 
L 359.402614 57.757091 
L 359.5855 55.662545 
L 359.753176 53.568 
L 362.26265 53.568 
L 362.26265 53.568 
L 362.430325 55.662545 
L 362.613211 57.757091 
L 362.815702 59.851636 
L 363.043441 61.946182 
L 363.30307 64.040727 
L 363.601823 66.135273 
L 363.947025 68.229818 
L 364.345519 70.324364 
L 364.803101 72.418909 
L 365.324024 74.513455 
L 365.910611 76.608 
L 366.563031 78.702545 
L 367.27924 80.797091 
L 368.055092 82.891636 
L 368.884616 84.986182 
L 369.760411 87.080727 
L 370.674146 89.175273 
L 371.617119 91.269818 
L 372.580831 93.364364 
L 373.557528 95.458909 
L 374.540648 97.553455 
L 375.525117 99.648 
L 376.507438 101.742545 
L 377.485559 103.837091 
L 378.458522 105.931636 
L 379.425966 108.026182 
L 380.387566 110.120727 
L 381.342553 112.215273 
L 382.289393 114.309818 
L 383.225716 116.404364 
L 384.148504 118.498909 
L 385.054442 120.593455 
L 385.940354 122.688 
L 386.803544 124.782545 
L 387.641949 126.877091 
L 388.454021 128.971636 
L 389.238379 131.066182 
L 389.993335 133.160727 
L 390.716463 135.255273 
L 391.404391 137.349818 
L 392.052957 139.444364 
L 392.657767 141.538909 
L 393.215096 143.633455 
L 393.722941 145.728 
L 394.181981 147.822545 
L 394.596169 149.917091 
L 394.972749 152.011636 
L 395.321593 154.106182 
L 395.653899 156.200727 
L 395.980444 158.295273 
L 396.309683 160.389818 
L 396.646023 162.484364 
L 396.988595 164.578909 
L 397.330734 166.673455 
L 397.660257 168.768 
L 397.960494 170.862545 
L 398.211893 172.957091 
L 398.393965 175.051636 
L 398.487273 177.146182 
L 398.475241 179.240727 
L 398.345561 181.335273 
L 398.091071 183.429818 
L 397.710056 185.524364 
L 397.205958 187.618909 
L 396.58656 189.713455 
L 395.862742 191.808 
L 395.046946 193.902545 
L 394.151521 195.997091 
L 393.187156 198.091636 
L 392.161616 200.186182 
L 391.078985 202.280727 
L 389.93957 204.375273 
L 388.740541 206.469818 
L 387.477253 208.564364 
L 386.145082 210.658909 
L 384.741487 212.753455 
L 383.267944 214.848 
L 381.73141 216.942545 
L 380.145033 219.037091 
L 378.527959 221.131636 
L 376.904266 223.226182 
L 375.301172 225.320727 
L 373.746833 227.415273 
L 372.268042 229.509818 
L 370.888164 231.604364 
L 369.625539 233.698909 
L 368.492494 235.793455 
L 367.494973 237.888 
L 366.63274 239.982545 
L 365.900015 242.077091 
L 365.28643 244.171636 
L 364.77817 246.266182 
L 364.359202 248.360727 
L 364.012523 250.455273 
L 363.721344 252.549818 
L 363.470163 254.644364 
L 363.245647 256.738909 
L 363.037262 258.833455 
L 362.837606 260.928 
z
" clip-path="url(#p1b8d4007b7)" style="fill: #1f77b4; fill-opacity: 0.3"/>
   </g>
   <g id="matplotlib.axis_1">
    <g id="xtick_1">
     <g id="line2d_1">
      <defs>
       <path id="md7d7f1d27c" d="M 0 0 
L 0 3.5 
" style="stroke: #000000; stroke-width: 0.8"/>
      </defs>
      <g>
       <use xlink:href="#md7d7f1d27c" x="69.668354" y="307.584" style="stroke: #000000; stroke-width: 0.8"/>
      </g>
     </g>
     <g id="text_1">
      <!-- 250 -->
      <g transform="translate(60.124604 322.182437)scale(0.1 -0.1)">
       <defs>
        <path id="DejaVuSans-32" d="M 1228 531 
L 3431 531 
L 3431 0 
L 469 0 
L 469 531 
Q 828 903 1448 1529 
Q 2069 2156 2228 2338 
Q 2531 2678 2651 2914 
Q 2772 3150 2772 3378 
Q 2772 3750 2511 3984 
Q 2250 4219 1831 4219 
Q 1534 4219 1204 4116 
Q 875 4013 500 3803 
L 500 4441 
Q 881 4594 1212 4672 
Q 1544 4750 1819 4750 
Q 2544 4750 2975 4387 
Q 3406 4025 3406 3419 
Q 3406 3131 3298 2873 
Q 3191 2616 2906 2266 
Q 2828 2175 2409 1742 
Q 1991 1309 1228 531 
z
" transform="scale(0.015625)"/>
        <path id="DejaVuSans-35" d="M 691 4666 
L 3169 4666 
L 3169 4134 
L 1269 4134 
L 1269 2991 
Q 1406 3038 1543 3061 
Q 1681 3084 1819 3084 
Q 2600 3084 3056 2656 
Q 3513 2228 3513 1497 
Q 3513 744 3044 326 
Q 2575 -91 1722 -91 
Q 1428 -91 1123 -41 
Q 819 9 494 109 
L 494 744 
Q 775 591 1075 516 
Q 1375 441 1709 441 
Q 2250 441 2565 725 
Q 2881 1009 2881 1497 
Q 2881 1984 2565 2268 
Q 2250 2553 1709 2553 
Q 1456 2553 1204 2497 
Q 953 2441 691 2322 
L 691 4666 
z
" transform="scale(0.015625)"/>
        <path id="DejaVuSans-30" d="M 2034 4250 
Q 1547 4250 1301 3770 
Q 1056 3291 1056 2328 
Q 1056 1369 1301 889 
Q 1547 409 2034 409 
Q 2525 409 2770 889 
Q 3016 1369 3016 2328 
Q 3016 3291 2770 3770 
Q 2525 4250 2034 4250 
z
M 2034 4750 
Q 2819 4750 3233 4129 
Q 3647 3509 3647 2328 
Q 3647 1150 3233 529 
Q 2819 -91 2034 -91 
Q 1250 -91 836 529 
Q 422 1150 422 2328 
Q 422 3509 836 4129 
Q 1250 4750 2034 4750 
z
" transform="scale(0.015625)"/>
       </defs>
       <use xlink:href="#DejaVuSans-32"/>
       <use xlink:href="#DejaVuSans-35" x="63.623047"/>
       <use xlink:href="#DejaVuSans-30" x="127.246094"/>
      </g>
     </g>
    </g>
    <g id="xtick_2">
     <g id="line2d_2">
      <g>
       <use xlink:href="#md7d7f1d27c" x="111.312087" y="307.584" style="stroke: #000000; stroke-width: 0.8"/>
      </g>
     </g>
     <g id="text_2">
      <!-- 500 -->
      <g transform="translate(101.768337 322.182437)scale(0.1 -0.1)">
       <use xlink:href="#DejaVuSans-35"/>
       <use xlink:href="#DejaVuSans-30" x="63.623047"/>
       <use xlink:href="#DejaVuSans-30" x="127.246094"/>
      </g>
     </g>
    </g>
    <g id="xtick_3">
     <g id="line2d_3">
      <g>
       <use xlink:href="#md7d7f1d27c" x="152.955821" y="307.584" style="stroke: #000000; stroke-width: 0.8"/>
      </g>
     </g>
     <g id="text_3">
      <!-- 750 -->
      <g transform="translate(143.412071 322.182437)scale(0.1 -0.1)">
       <defs>
        <path id="DejaVuSans-37" d="M 525 4666 
L 3525 4666 
L 3525 4397 
L 1831 0 
L 1172 0 
L 2766 4134 
L 525 4134 
L 525 4666 
z
" transform="scale(0.015625)"/>
       </defs>
       <use xlink:href="#DejaVuSans-37"/>
       <use xlink:href="#DejaVuSans-35" x="63.623047"/>
       <use xlink:href="#DejaVuSans-30" x="127.246094"/>
      </g>
     </g>
    </g>
    <g id="xtick_4">
     <g id="line2d_4">
      <g>
       <use xlink:href="#md7d7f1d27c" x="194.599554" y="307.584" style="stroke: #000000; stroke-width: 0.8"/>
      </g>
     </g>
     <g id="text_4">
      <!-- 1000 -->
      <g transform="translate(181.874554 322.182437)scale(0.1 -0.1)">
       <defs>
        <path id="DejaVuSans-31" d="M 794 531 
L 1825 531 
L 1825 4091 
L 703 3866 
L 703 4441 
L 1819 4666 
L 2450 4666 
L 2450 531 
L 3481 531 
L 3481 0 
L 794 0 
L 794 531 
z
" transform="scale(0.015625)"/>
       </defs>
       <use xlink:href="#DejaVuSans-31"/>
       <use xlink:href="#DejaVuSans-30" x="63.623047"/>
       <use xlink:href="#DejaVuSans-30" x="127.246094"/>
       <use xlink:href="#DejaVuSans-30" x="190.869141"/>
      </g>
     </g>
    </g>
    <g id="xtick_5">
     <g id="line2d_5">
      <g>
       <use xlink:href="#md7d7f1d27c" x="236.243287" y="307.584" style="stroke: #000000; stroke-width: 0.8"/>
      </g>
     </g>
     <g id="text_5">
      <!-- 1250 -->
      <g transform="translate(223.518287 322.182437)scale(0.1 -0.1)">
       <use xlink:href="#DejaVuSans-31"/>
       <use xlink:href="#DejaVuSans-32" x="63.623047"/>
       <use xlink:href="#DejaVuSans-35" x="127.246094"/>
       <use xlink:href="#DejaVuSans-30" x="190.869141"/>
      </g>
     </g>
    </g>
    <g id="xtick_6">
     <g id="line2d_6">
      <g>
       <use xlink:href="#md7d7f1d27c" x="277.887021" y="307.584" style="stroke: #000000; stroke-width: 0.8"/>
      </g>
     </g>
     <g id="text_6">
      <!-- 1500 -->
      <g transform="translate(265.162021 322.182437)scale(0.1 -0.1)">
       <use xlink:href="#DejaVuSans-31"/>
       <use xlink:href="#DejaVuSans-35" x="63.623047"/>
       <use xlink:href="#DejaVuSans-30" x="127.246094"/>
       <use xlink:href="#DejaVuSans-30" x="190.869141"/>
      </g>
     </g>
    </g>
    <g id="xtick_7">
     <g id="line2d_7">
      <g>
       <use xlink:href="#md7d7f1d27c" x="319.530754" y="307.584" style="stroke: #000000; stroke-width: 0.8"/>
      </g>
     </g>
     <g id="text_7">
      <!-- 1750 -->
      <g transform="translate(306.805754 322.182437)scale(0.1 -0.1)">
       <use xlink:href="#DejaVuSans-31"/>
       <use xlink:href="#DejaVuSans-37" x="63.623047"/>
       <use xlink:href="#DejaVuSans-35" x="127.246094"/>
       <use xlink:href="#DejaVuSans-30" x="190.869141"/>
      </g>
     </g>
    </g>
    <g id="xtick_8">
     <g id="line2d_8">
      <g>
       <use xlink:href="#md7d7f1d27c" x="361.174488" y="307.584" style="stroke: #000000; stroke-width: 0.8"/>
      </g>
     </g>
     <g id="text_8">
      <!-- 2000 -->
      <g transform="translate(348.449488 322.182437)scale(0.1 -0.1)">
       <use xlink:href="#DejaVuSans-32"/>
       <use xlink:href="#DejaVuSans-30" x="63.623047"/>
       <use xlink:href="#DejaVuSans-30" x="127.246094"/>
       <use xlink:href="#DejaVuSans-30" x="190.869141"/>
      </g>
     </g>
    </g>
    <g id="xtick_9">
     <g id="line2d_9">
      <g>
       <use xlink:href="#md7d7f1d27c" x="402.818221" y="307.584" style="stroke: #000000; stroke-width: 0.8"/>
      </g>
     </g>
     <g id="text_9">
      <!-- 2250 -->
      <g transform="translate(390.093221 322.182437)scale(0.1 -0.1)">
       <use xlink:href="#DejaVuSans-32"/>
       <use xlink:href="#DejaVuSans-32" x="63.623047"/>
       <use xlink:href="#DejaVuSans-35" x="127.246094"/>
       <use xlink:href="#DejaVuSans-30" x="190.869141"/>
      </g>
     </g>
    </g>
    <g id="text_10">
     <!-- Learned Episodes -->
     <g transform="translate(192.102187 335.860562)scale(0.1 -0.1)">
      <defs>
       <path id="DejaVuSans-4c" d="M 628 4666 
L 1259 4666 
L 1259 531 
L 3531 531 
L 3531 0 
L 628 0 
L 628 4666 
z
" transform="scale(0.015625)"/>
       <path id="DejaVuSans-65" d="M 3597 1894 
L 3597 1613 
L 953 1613 
Q 991 1019 1311 708 
Q 1631 397 2203 397 
Q 2534 397 2845 478 
Q 3156 559 3463 722 
L 3463 178 
Q 3153 47 2828 -22 
Q 2503 -91 2169 -91 
Q 1331 -91 842 396 
Q 353 884 353 1716 
Q 353 2575 817 3079 
Q 1281 3584 2069 3584 
Q 2775 3584 3186 3129 
Q 3597 2675 3597 1894 
z
M 3022 2063 
Q 3016 2534 2758 2815 
Q 2500 3097 2075 3097 
Q 1594 3097 1305 2825 
Q 1016 2553 972 2059 
L 3022 2063 
z
" transform="scale(0.015625)"/>
       <path id="DejaVuSans-61" d="M 2194 1759 
Q 1497 1759 1228 1600 
Q 959 1441 959 1056 
Q 959 750 1161 570 
Q 1363 391 1709 391 
Q 2188 391 2477 730 
Q 2766 1069 2766 1631 
L 2766 1759 
L 2194 1759 
z
M 3341 1997 
L 3341 0 
L 2766 0 
L 2766 531 
Q 2569 213 2275 61 
Q 1981 -91 1556 -91 
Q 1019 -91 701 211 
Q 384 513 384 1019 
Q 384 1609 779 1909 
Q 1175 2209 1959 2209 
L 2766 2209 
L 2766 2266 
Q 2766 2663 2505 2880 
Q 2244 3097 1772 3097 
Q 1472 3097 1187 3025 
Q 903 2953 641 2809 
L 641 3341 
Q 956 3463 1253 3523 
Q 1550 3584 1831 3584 
Q 2591 3584 2966 3190 
Q 3341 2797 3341 1997 
z
" transform="scale(0.015625)"/>
       <path id="DejaVuSans-72" d="M 2631 2963 
Q 2534 3019 2420 3045 
Q 2306 3072 2169 3072 
Q 1681 3072 1420 2755 
Q 1159 2438 1159 1844 
L 1159 0 
L 581 0 
L 581 3500 
L 1159 3500 
L 1159 2956 
Q 1341 3275 1631 3429 
Q 1922 3584 2338 3584 
Q 2397 3584 2469 3576 
Q 2541 3569 2628 3553 
L 2631 2963 
z
" transform="scale(0.015625)"/>
       <path id="DejaVuSans-6e" d="M 3513 2113 
L 3513 0 
L 2938 0 
L 2938 2094 
Q 2938 2591 2744 2837 
Q 2550 3084 2163 3084 
Q 1697 3084 1428 2787 
Q 1159 2491 1159 1978 
L 1159 0 
L 581 0 
L 581 3500 
L 1159 3500 
L 1159 2956 
Q 1366 3272 1645 3428 
Q 1925 3584 2291 3584 
Q 2894 3584 3203 3211 
Q 3513 2838 3513 2113 
z
" transform="scale(0.015625)"/>
       <path id="DejaVuSans-64" d="M 2906 2969 
L 2906 4863 
L 3481 4863 
L 3481 0 
L 2906 0 
L 2906 525 
Q 2725 213 2448 61 
Q 2172 -91 1784 -91 
Q 1150 -91 751 415 
Q 353 922 353 1747 
Q 353 2572 751 3078 
Q 1150 3584 1784 3584 
Q 2172 3584 2448 3432 
Q 2725 3281 2906 2969 
z
M 947 1747 
Q 947 1113 1208 752 
Q 1469 391 1925 391 
Q 2381 391 2643 752 
Q 2906 1113 2906 1747 
Q 2906 2381 2643 2742 
Q 2381 3103 1925 3103 
Q 1469 3103 1208 2742 
Q 947 2381 947 1747 
z
" transform="scale(0.015625)"/>
       <path id="DejaVuSans-20" transform="scale(0.015625)"/>
       <path id="DejaVuSans-45" d="M 628 4666 
L 3578 4666 
L 3578 4134 
L 1259 4134 
L 1259 2753 
L 3481 2753 
L 3481 2222 
L 1259 2222 
L 1259 531 
L 3634 531 
L 3634 0 
L 628 0 
L 628 4666 
z
" transform="scale(0.015625)"/>
       <path id="DejaVuSans-70" d="M 1159 525 
L 1159 -1331 
L 581 -1331 
L 581 3500 
L 1159 3500 
L 1159 2969 
Q 1341 3281 1617 3432 
Q 1894 3584 2278 3584 
Q 2916 3584 3314 3078 
Q 3713 2572 3713 1747 
Q 3713 922 3314 415 
Q 2916 -91 2278 -91 
Q 1894 -91 1617 61 
Q 1341 213 1159 525 
z
M 3116 1747 
Q 3116 2381 2855 2742 
Q 2594 3103 2138 3103 
Q 1681 3103 1420 2742 
Q 1159 2381 1159 1747 
Q 1159 1113 1420 752 
Q 1681 391 2138 391 
Q 2594 391 2855 752 
Q 3116 1113 3116 1747 
z
" transform="scale(0.015625)"/>
       <path id="DejaVuSans-69" d="M 603 3500 
L 1178 3500 
L 1178 0 
L 603 0 
L 603 3500 
z
M 603 4863 
L 1178 4863 
L 1178 4134 
L 603 4134 
L 603 4863 
z
" transform="scale(0.015625)"/>
       <path id="DejaVuSans-73" d="M 2834 3397 
L 2834 2853 
Q 2591 2978 2328 3040 
Q 2066 3103 1784 3103 
Q 1356 3103 1142 2972 
Q 928 2841 928 2578 
Q 928 2378 1081 2264 
Q 1234 2150 1697 2047 
L 1894 2003 
Q 2506 1872 2764 1633 
Q 3022 1394 3022 966 
Q 3022 478 2636 193 
Q 2250 -91 1575 -91 
Q 1294 -91 989 -36 
Q 684 19 347 128 
L 347 722 
Q 666 556 975 473 
Q 1284 391 1588 391 
Q 1994 391 2212 530 
Q 2431 669 2431 922 
Q 2431 1156 2273 1281 
Q 2116 1406 1581 1522 
L 1381 1569 
Q 847 1681 609 1914 
Q 372 2147 372 2553 
Q 372 3047 722 3315 
Q 1072 3584 1716 3584 
Q 2034 3584 2315 3537 
Q 2597 3491 2834 3397 
z
" transform="scale(0.015625)"/>
       <path id="DejaVuSans-6f" d="M 1959 3097 
Q 1497 3097 1228 2736 
Q 959 2375 959 1747 
Q 959 1119 1226 758 
Q 1494 397 1959 397 
Q 2419 397 2687 759 
Q 2956 1122 2956 1747 
Q 2956 2369 2687 2733 
Q 2419 3097 1959 3097 
z
M 1959 3584 
Q 2709 3584 3137 3096 
Q 3566 2609 3566 1747 
Q 3566 888 3137 398 
Q 2709 -91 1959 -91 
Q 1206 -91 779 398 
Q 353 888 353 1747 
Q 353 2609 779 3096 
Q 1206 3584 1959 3584 
z
" transform="scale(0.015625)"/>
      </defs>
      <use xlink:href="#DejaVuSans-4c"/>
      <use xlink:href="#DejaVuSans-65" x="53.962891"/>
      <use xlink:href="#DejaVuSans-61" x="115.486328"/>
      <use xlink:href="#DejaVuSans-72" x="176.765625"/>
      <use xlink:href="#DejaVuSans-6e" x="216.128906"/>
      <use xlink:href="#DejaVuSans-65" x="279.507812"/>
      <use xlink:href="#DejaVuSans-64" x="341.03125"/>
      <use xlink:href="#DejaVuSans-20" x="404.507812"/>
      <use xlink:href="#DejaVuSans-45" x="436.294922"/>
      <use xlink:href="#DejaVuSans-70" x="499.478516"/>
      <use xlink:href="#DejaVuSans-69" x="562.955078"/>
      <use xlink:href="#DejaVuSans-73" x="590.738281"/>
      <use xlink:href="#DejaVuSans-6f" x="642.837891"/>
      <use xlink:href="#DejaVuSans-64" x="704.019531"/>
      <use xlink:href="#DejaVuSans-65" x="767.496094"/>
      <use xlink:href="#DejaVuSans-73" x="829.019531"/>
     </g>
    </g>
   </g>
   <g id="matplotlib.axis_2">
    <g id="ytick_1">
     <g id="line2d_10">
      <defs>
       <path id="m8816840b94" d="M 0 0 
L -3.5 0 
" style="stroke: #000000; stroke-width: 0.8"/>
      </defs>
      <g>
       <use xlink:href="#m8816840b94" x="57.6" y="296.928" style="stroke: #000000; stroke-width: 0.8"/>
      </g>
     </g>
     <g id="text_11">
      <!-- 25 -->
      <g transform="translate(37.875 300.727219)scale(0.1 -0.1)">
       <use xlink:href="#DejaVuSans-32"/>
       <use xlink:href="#DejaVuSans-35" x="63.623047"/>
      </g>
     </g>
    </g>
    <g id="ytick_2">
     <g id="line2d_11">
      <g>
       <use xlink:href="#m8816840b94" x="57.6" y="260.928" style="stroke: #000000; stroke-width: 0.8"/>
      </g>
     </g>
     <g id="text_12">
      <!-- 50 -->
      <g transform="translate(37.875 264.727219)scale(0.1 -0.1)">
       <use xlink:href="#DejaVuSans-35"/>
       <use xlink:href="#DejaVuSans-30" x="63.623047"/>
      </g>
     </g>
    </g>
    <g id="ytick_3">
     <g id="line2d_12">
      <g>
       <use xlink:href="#m8816840b94" x="57.6" y="224.928" style="stroke: #000000; stroke-width: 0.8"/>
      </g>
     </g>
     <g id="text_13">
      <!-- 75 -->
      <g transform="translate(37.875 228.727219)scale(0.1 -0.1)">
       <use xlink:href="#DejaVuSans-37"/>
       <use xlink:href="#DejaVuSans-35" x="63.623047"/>
      </g>
     </g>
    </g>
    <g id="ytick_4">
     <g id="line2d_13">
      <g>
       <use xlink:href="#m8816840b94" x="57.6" y="188.928" style="stroke: #000000; stroke-width: 0.8"/>
      </g>
     </g>
     <g id="text_14">
      <!-- 100 -->
      <g transform="translate(31.5125 192.727219)scale(0.1 -0.1)">
       <use xlink:href="#DejaVuSans-31"/>
       <use xlink:href="#DejaVuSans-30" x="63.623047"/>
       <use xlink:href="#DejaVuSans-30" x="127.246094"/>
      </g>
     </g>
    </g>
    <g id="ytick_5">
     <g id="line2d_14">
      <g>
       <use xlink:href="#m8816840b94" x="57.6" y="152.928" style="stroke: #000000; stroke-width: 0.8"/>
      </g>
     </g>
     <g id="text_15">
      <!-- 125 -->
      <g transform="translate(31.5125 156.727219)scale(0.1 -0.1)">
       <use xlink:href="#DejaVuSans-31"/>
       <use xlink:href="#DejaVuSans-32" x="63.623047"/>
       <use xlink:href="#DejaVuSans-35" x="127.246094"/>
      </g>
     </g>
    </g>
    <g id="ytick_6">
     <g id="line2d_15">
      <g>
       <use xlink:href="#m8816840b94" x="57.6" y="116.928" style="stroke: #000000; stroke-width: 0.8"/>
      </g>
     </g>
     <g id="text_16">
      <!-- 150 -->
      <g transform="translate(31.5125 120.727219)scale(0.1 -0.1)">
       <use xlink:href="#DejaVuSans-31"/>
       <use xlink:href="#DejaVuSans-35" x="63.623047"/>
       <use xlink:href="#DejaVuSans-30" x="127.246094"/>
      </g>
     </g>
    </g>
    <g id="ytick_7">
     <g id="line2d_16">
      <g>
       <use xlink:href="#m8816840b94" x="57.6" y="80.928" style="stroke: #000000; stroke-width: 0.8"/>
      </g>
     </g>
     <g id="text_17">
      <!-- 175 -->
      <g transform="translate(31.5125 84.727219)scale(0.1 -0.1)">
       <use xlink:href="#DejaVuSans-31"/>
       <use xlink:href="#DejaVuSans-37" x="63.623047"/>
       <use xlink:href="#DejaVuSans-35" x="127.246094"/>
      </g>
     </g>
    </g>
    <g id="ytick_8">
     <g id="line2d_17">
      <g>
       <use xlink:href="#m8816840b94" x="57.6" y="44.928" style="stroke: #000000; stroke-width: 0.8"/>
      </g>
     </g>
     <g id="text_18">
      <!-- 200 -->
      <g transform="translate(31.5125 48.727219)scale(0.1 -0.1)">
       <use xlink:href="#DejaVuSans-32"/>
       <use xlink:href="#DejaVuSans-30" x="63.623047"/>
       <use xlink:href="#DejaVuSans-30" x="127.246094"/>
      </g>
     </g>
    </g>
    <g id="text_19">
     <!-- Reward Density -->
     <g transform="translate(25.432812 213.74675)rotate(-90)scale(0.1 -0.1)">
      <defs>
       <path id="DejaVuSans-52" d="M 2841 2188 
Q 3044 2119 3236 1894 
Q 3428 1669 3622 1275 
L 4263 0 
L 3584 0 
L 2988 1197 
Q 2756 1666 2539 1819 
Q 2322 1972 1947 1972 
L 1259 1972 
L 1259 0 
L 628 0 
L 628 4666 
L 2053 4666 
Q 2853 4666 3247 4331 
Q 3641 3997 3641 3322 
Q 3641 2881 3436 2590 
Q 3231 2300 2841 2188 
z
M 1259 4147 
L 1259 2491 
L 2053 2491 
Q 2509 2491 2742 2702 
Q 2975 2913 2975 3322 
Q 2975 3731 2742 3939 
Q 2509 4147 2053 4147 
L 1259 4147 
z
" transform="scale(0.015625)"/>
       <path id="DejaVuSans-77" d="M 269 3500 
L 844 3500 
L 1563 769 
L 2278 3500 
L 2956 3500 
L 3675 769 
L 4391 3500 
L 4966 3500 
L 4050 0 
L 3372 0 
L 2619 2869 
L 1863 0 
L 1184 0 
L 269 3500 
z
" transform="scale(0.015625)"/>
       <path id="DejaVuSans-44" d="M 1259 4147 
L 1259 519 
L 2022 519 
Q 2988 519 3436 956 
Q 3884 1394 3884 2338 
Q 3884 3275 3436 3711 
Q 2988 4147 2022 4147 
L 1259 4147 
z
M 628 4666 
L 1925 4666 
Q 3281 4666 3915 4102 
Q 4550 3538 4550 2338 
Q 4550 1131 3912 565 
Q 3275 0 1925 0 
L 628 0 
L 628 4666 
z
" transform="scale(0.015625)"/>
       <path id="DejaVuSans-74" d="M 1172 4494 
L 1172 3500 
L 2356 3500 
L 2356 3053 
L 1172 3053 
L 1172 1153 
Q 1172 725 1289 603 
Q 1406 481 1766 481 
L 2356 481 
L 2356 0 
L 1766 0 
Q 1100 0 847 248 
Q 594 497 594 1153 
L 594 3053 
L 172 3053 
L 172 3500 
L 594 3500 
L 594 4494 
L 1172 4494 
z
" transform="scale(0.015625)"/>
       <path id="DejaVuSans-79" d="M 2059 -325 
Q 1816 -950 1584 -1140 
Q 1353 -1331 966 -1331 
L 506 -1331 
L 506 -850 
L 844 -850 
Q 1081 -850 1212 -737 
Q 1344 -625 1503 -206 
L 1606 56 
L 191 3500 
L 800 3500 
L 1894 763 
L 2988 3500 
L 3597 3500 
L 2059 -325 
z
" transform="scale(0.015625)"/>
      </defs>
      <use xlink:href="#DejaVuSans-52"/>
      <use xlink:href="#DejaVuSans-65" x="64.982422"/>
      <use xlink:href="#DejaVuSans-77" x="126.505859"/>
      <use xlink:href="#DejaVuSans-61" x="208.292969"/>
      <use xlink:href="#DejaVuSans-72" x="269.572266"/>
      <use xlink:href="#DejaVuSans-64" x="308.935547"/>
      <use xlink:href="#DejaVuSans-20" x="372.412109"/>
      <use xlink:href="#DejaVuSans-44" x="404.199219"/>
      <use xlink:href="#DejaVuSans-65" x="481.201172"/>
      <use xlink:href="#DejaVuSans-6e" x="542.724609"/>
      <use xlink:href="#DejaVuSans-73" x="606.103516"/>
      <use xlink:href="#DejaVuSans-69" x="658.203125"/>
      <use xlink:href="#DejaVuSans-74" x="685.986328"/>
      <use xlink:href="#DejaVuSans-79" x="725.195312"/>
     </g>
    </g>
   </g>
   <g id="LineCollection_1">
    <path d="M 92.572407 188.89344 
L 130.051767 188.89344 
" clip-path="url(#p1b8d4007b7)" style="fill: none; stroke: #1f77b4; stroke-width: 1.5"/>
    <path d="M 175.859874 162.6624 
L 213.339234 162.6624 
" clip-path="url(#p1b8d4007b7)" style="fill: none; stroke: #1f77b4; stroke-width: 1.5"/>
    <path d="M 259.147341 168.96384 
L 296.626701 168.96384 
" clip-path="url(#p1b8d4007b7)" style="fill: none; stroke: #1f77b4; stroke-width: 1.5"/>
    <path d="M 342.268233 162.9504 
L 379.747593 162.9504 
" clip-path="url(#p1b8d4007b7)" style="fill: none; stroke: #1f77b4; stroke-width: 1.5"/>
   </g>
   <g id="LineCollection_2">
    <path d="M 92.572407 95.328 
L 130.051767 95.328 
" clip-path="url(#p1b8d4007b7)" style="fill: none; stroke: #1f77b4; stroke-width: 1.5"/>
    <path d="M 175.859874 59.328 
L 213.339234 59.328 
" clip-path="url(#p1b8d4007b7)" style="fill: none; stroke: #1f77b4; stroke-width: 1.5"/>
    <path d="M 259.147341 69.408 
L 296.626701 69.408 
" clip-path="url(#p1b8d4007b7)" style="fill: none; stroke: #1f77b4; stroke-width: 1.5"/>
    <path d="M 342.268233 53.568 
L 379.747593 53.568 
" clip-path="url(#p1b8d4007b7)" style="fill: none; stroke: #1f77b4; stroke-width: 1.5"/>
   </g>
   <g id="LineCollection_3">
    <path d="M 92.572407 295.488 
L 130.051767 295.488 
" clip-path="url(#p1b8d4007b7)" style="fill: none; stroke: #1f77b4; stroke-width: 1.5"/>
    <path d="M 175.859874 255.168 
L 213.339234 255.168 
" clip-path="url(#p1b8d4007b7)" style="fill: none; stroke: #1f77b4; stroke-width: 1.5"/>
    <path d="M 259.147341 268.128 
L 296.626701 268.128 
" clip-path="url(#p1b8d4007b7)" style="fill: none; stroke: #1f77b4; stroke-width: 1.5"/>
    <path d="M 342.268233 260.928 
L 379.747593 260.928 
" clip-path="url(#p1b8d4007b7)" style="fill: none; stroke: #1f77b4; stroke-width: 1.5"/>
   </g>
   <g id="LineCollection_4">
    <path d="M 111.312087 295.488 
L 111.312087 95.328 
" clip-path="url(#p1b8d4007b7)" style="fill: none; stroke: #1f77b4; stroke-width: 1.5"/>
    <path d="M 194.599554 255.168 
L 194.599554 59.328 
" clip-path="url(#p1b8d4007b7)" style="fill: none; stroke: #1f77b4; stroke-width: 1.5"/>
    <path d="M 277.887021 268.128 
L 277.887021 69.408 
" clip-path="url(#p1b8d4007b7)" style="fill: none; stroke: #1f77b4; stroke-width: 1.5"/>
    <path d="M 361.007913 260.928 
L 361.007913 53.568 
" clip-path="url(#p1b8d4007b7)" style="fill: none; stroke: #1f77b4; stroke-width: 1.5"/>
   </g>
   <g id="line2d_18">
    <path d="M 111.312087 188.89344 
L 194.599554 162.6624 
L 277.887021 168.96384 
L 361.007913 162.9504 
" clip-path="url(#p1b8d4007b7)" style="fill: none; stroke: #4682b4; stroke-width: 1.5; stroke-linecap: square"/>
   </g>
   <g id="patch_3">
    <path d="M 57.6 307.584 
L 57.6 41.472 
" style="fill: none; stroke: #000000; stroke-width: 0.8; stroke-linejoin: miter; stroke-linecap: square"/>
   </g>
   <g id="patch_4">
    <path d="M 414.72 307.584 
L 414.72 41.472 
" style="fill: none; stroke: #000000; stroke-width: 0.8; stroke-linejoin: miter; stroke-linecap: square"/>
   </g>
   <g id="patch_5">
    <path d="M 57.6 307.584 
L 414.72 307.584 
" style="fill: none; stroke: #000000; stroke-width: 0.8; stroke-linejoin: miter; stroke-linecap: square"/>
   </g>
   <g id="patch_6">
    <path d="M 57.6 41.472 
L 414.72 41.472 
" style="fill: none; stroke: #000000; stroke-width: 0.8; stroke-linejoin: miter; stroke-linecap: square"/>
   </g>
   <g id="text_20">
    <!-- Violinplot for progress of owner/throw_away -->
    <g transform="translate(104.22375 35.472)scale(0.12 -0.12)">
     <defs>
      <path id="DejaVuSans-56" d="M 1831 0 
L 50 4666 
L 709 4666 
L 2188 738 
L 3669 4666 
L 4325 4666 
L 2547 0 
L 1831 0 
z
" transform="scale(0.015625)"/>
      <path id="DejaVuSans-6c" d="M 603 4863 
L 1178 4863 
L 1178 0 
L 603 0 
L 603 4863 
z
" transform="scale(0.015625)"/>
      <path id="DejaVuSans-66" d="M 2375 4863 
L 2375 4384 
L 1825 4384 
Q 1516 4384 1395 4259 
Q 1275 4134 1275 3809 
L 1275 3500 
L 2222 3500 
L 2222 3053 
L 1275 3053 
L 1275 0 
L 697 0 
L 697 3053 
L 147 3053 
L 147 3500 
L 697 3500 
L 697 3744 
Q 697 4328 969 4595 
Q 1241 4863 1831 4863 
L 2375 4863 
z
" transform="scale(0.015625)"/>
      <path id="DejaVuSans-67" d="M 2906 1791 
Q 2906 2416 2648 2759 
Q 2391 3103 1925 3103 
Q 1463 3103 1205 2759 
Q 947 2416 947 1791 
Q 947 1169 1205 825 
Q 1463 481 1925 481 
Q 2391 481 2648 825 
Q 2906 1169 2906 1791 
z
M 3481 434 
Q 3481 -459 3084 -895 
Q 2688 -1331 1869 -1331 
Q 1566 -1331 1297 -1286 
Q 1028 -1241 775 -1147 
L 775 -588 
Q 1028 -725 1275 -790 
Q 1522 -856 1778 -856 
Q 2344 -856 2625 -561 
Q 2906 -266 2906 331 
L 2906 616 
Q 2728 306 2450 153 
Q 2172 0 1784 0 
Q 1141 0 747 490 
Q 353 981 353 1791 
Q 353 2603 747 3093 
Q 1141 3584 1784 3584 
Q 2172 3584 2450 3431 
Q 2728 3278 2906 2969 
L 2906 3500 
L 3481 3500 
L 3481 434 
z
" transform="scale(0.015625)"/>
      <path id="DejaVuSans-2f" d="M 1625 4666 
L 2156 4666 
L 531 -594 
L 0 -594 
L 1625 4666 
z
" transform="scale(0.015625)"/>
      <path id="DejaVuSans-68" d="M 3513 2113 
L 3513 0 
L 2938 0 
L 2938 2094 
Q 2938 2591 2744 2837 
Q 2550 3084 2163 3084 
Q 1697 3084 1428 2787 
Q 1159 2491 1159 1978 
L 1159 0 
L 581 0 
L 581 4863 
L 1159 4863 
L 1159 2956 
Q 1366 3272 1645 3428 
Q 1925 3584 2291 3584 
Q 2894 3584 3203 3211 
Q 3513 2838 3513 2113 
z
" transform="scale(0.015625)"/>
      <path id="DejaVuSans-5f" d="M 3263 -1063 
L 3263 -1509 
L -63 -1509 
L -63 -1063 
L 3263 -1063 
z
" transform="scale(0.015625)"/>
     </defs>
     <use xlink:href="#DejaVuSans-56"/>
     <use xlink:href="#DejaVuSans-69" x="66.158203"/>
     <use xlink:href="#DejaVuSans-6f" x="93.941406"/>
     <use xlink:href="#DejaVuSans-6c" x="155.123047"/>
     <use xlink:href="#DejaVuSans-69" x="182.90625"/>
     <use xlink:href="#DejaVuSans-6e" x="210.689453"/>
     <use xlink:href="#DejaVuSans-70" x="274.068359"/>
     <use xlink:href="#DejaVuSans-6c" x="337.544922"/>
     <use xlink:href="#DejaVuSans-6f" x="365.328125"/>
     <use xlink:href="#DejaVuSans-74" x="426.509766"/>
     <use xlink:href="#DejaVuSans-20" x="465.71875"/>
     <use xlink:href="#DejaVuSans-66" x="497.505859"/>
     <use xlink:href="#DejaVuSans-6f" x="532.710938"/>
     <use xlink:href="#DejaVuSans-72" x="593.892578"/>
     <use xlink:href="#DejaVuSans-20" x="635.005859"/>
     <use xlink:href="#DejaVuSans-70" x="666.792969"/>
     <use xlink:href="#DejaVuSans-72" x="730.269531"/>
     <use xlink:href="#DejaVuSans-6f" x="769.132812"/>
     <use xlink:href="#DejaVuSans-67" x="830.314453"/>
     <use xlink:href="#DejaVuSans-72" x="893.791016"/>
     <use xlink:href="#DejaVuSans-65" x="932.654297"/>
     <use xlink:href="#DejaVuSans-73" x="994.177734"/>
     <use xlink:href="#DejaVuSans-73" x="1046.277344"/>
     <use xlink:href="#DejaVuSans-20" x="1098.376953"/>
     <use xlink:href="#DejaVuSans-6f" x="1130.164062"/>
     <use xlink:href="#DejaVuSans-66" x="1191.345703"/>
     <use xlink:href="#DejaVuSans-20" x="1226.550781"/>
     <use xlink:href="#DejaVuSans-6f" x="1258.337891"/>
     <use xlink:href="#DejaVuSans-77" x="1319.519531"/>
     <use xlink:href="#DejaVuSans-6e" x="1401.306641"/>
     <use xlink:href="#DejaVuSans-65" x="1464.685547"/>
     <use xlink:href="#DejaVuSans-72" x="1526.208984"/>
     <use xlink:href="#DejaVuSans-2f" x="1567.322266"/>
     <use xlink:href="#DejaVuSans-74" x="1601.013672"/>
     <use xlink:href="#DejaVuSans-68" x="1640.222656"/>
     <use xlink:href="#DejaVuSans-72" x="1703.601562"/>
     <use xlink:href="#DejaVuSans-6f" x="1742.464844"/>
     <use xlink:href="#DejaVuSans-77" x="1803.646484"/>
     <use xlink:href="#DejaVuSans-5f" x="1885.433594"/>
     <use xlink:href="#DejaVuSans-61" x="1935.433594"/>
     <use xlink:href="#DejaVuSans-77" x="1996.712891"/>
     <use xlink:href="#DejaVuSans-61" x="2078.5"/>
     <use xlink:href="#DejaVuSans-79" x="2139.779297"/>
    </g>
   </g>
  </g>
 </g>
 <defs>
  <clipPath id="p1b8d4007b7">
   <rect x="57.6" y="41.472" width="357.12" height="266.112"/>
  </clipPath>
 </defs>
</svg>
