<?xml version="1.0" encoding="utf-8" standalone="no"?>
<!DOCTYPE svg PUBLIC "-//W3C//DTD SVG 1.1//EN"
  "http://www.w3.org/Graphics/SVG/1.1/DTD/svg11.dtd">
<svg xmlns:xlink="http://www.w3.org/1999/xlink" width="460.8pt" height="345.6pt" viewBox="0 0 460.8 345.6" xmlns="http://www.w3.org/2000/svg" version="1.1">
 <metadata>
  <rdf:RDF xmlns:dc="http://purl.org/dc/elements/1.1/" xmlns:cc="http://creativecommons.org/ns#" xmlns:rdf="http://www.w3.org/1999/02/22-rdf-syntax-ns#">
   <cc:Work>
    <dc:type rdf:resource="http://purl.org/dc/dcmitype/StillImage"/>
    <dc:date>2022-06-15T18:26:49.783021</dc:date>
    <dc:format>image/svg+xml</dc:format>
    <dc:creator>
     <cc:Agent>
      <dc:title>Matplotlib v3.5.2, https://matplotlib.org/</dc:title>
     </cc:Agent>
    </dc:creator>
   </cc:Work>
  </rdf:RDF>
 </metadata>
 <defs>
  <style type="text/css">*{stroke-linejoin: round; stroke-linecap: butt}</style>
 </defs>
 <g id="figure_1">
  <g id="patch_1">
   <path d="M 0 345.6 
L 460.8 345.6 
L 460.8 0 
L 0 0 
z
" style="fill: #ffffff"/>
  </g>
  <g id="axes_1">
   <g id="patch_2">
    <path d="M 57.6 307.584 
L 414.72 307.584 
L 414.72 41.472 
L 57.6 41.472 
z
" style="fill: #ffffff"/>
   </g>
   <g id="PolyCollection_1">
    <path d="M 112.767256 295.488 
L 109.856919 295.488 
L 109.82521 293.044364 
L 109.834704 290.600727 
L 109.881001 288.157091 
L 109.955263 285.713455 
L 110.04527 283.269818 
L 110.136947 280.826182 
L 110.216073 278.382545 
L 110.269873 275.938909 
L 110.288232 273.495273 
L 110.264366 271.051636 
L 110.194898 268.608 
L 110.079411 266.164364 
L 109.919628 263.720727 
L 109.718412 261.277091 
L 109.478839 258.833455 
L 109.203502 256.389818 
L 108.894189 253.946182 
L 108.551956 251.502545 
L 108.177492 249.058909 
L 107.771588 246.615273 
L 107.33546 244.171636 
L 106.870711 241.728 
L 106.378795 239.284364 
L 105.860065 236.840727 
L 105.312621 234.397091 
L 104.73134 231.953455 
L 104.107457 229.509818 
L 103.428971 227.066182 
L 102.681898 224.622545 
L 101.852162 222.178909 
L 100.927653 219.735273 
L 99.899992 217.291636 
L 98.765588 214.848 
L 97.52586 212.404364 
L 96.186769 209.960727 
L 94.758031 207.517091 
L 93.252459 205.073455 
L 91.685742 202.629818 
L 90.076696 200.186182 
L 88.447751 197.742545 
L 86.825184 195.298909 
L 85.238593 192.855273 
L 83.71928 190.411636 
L 82.297563 187.968 
L 80.999427 185.524364 
L 79.843228 183.080727 
L 78.837303 180.637091 
L 77.979154 178.193455 
L 77.256537 175.749818 
L 76.650269 173.306182 
L 76.138111 170.862545 
L 75.698809 168.418909 
L 75.315342 165.975273 
L 74.97672 163.531636 
L 74.678096 161.088 
L 74.419473 158.644364 
L 74.203658 156.200727 
L 74.034249 153.757091 
L 73.914344 151.313455 
L 73.846335 148.869818 
L 73.832727 146.426182 
L 73.87758 143.982545 
L 73.98796 141.538909 
L 74.17479 139.095273 
L 74.452662 136.651636 
L 74.838506 134.208 
L 75.349311 131.764364 
L 75.99937 129.320727 
L 76.797649 126.877091 
L 77.745884 124.433455 
L 78.8378 121.989818 
L 80.05966 119.546182 
L 81.391989 117.102545 
L 82.812111 114.658909 
L 84.296956 112.215273 
L 85.825551 109.771636 
L 87.380733 107.328 
L 88.949782 104.884364 
L 90.523977 102.440727 
L 92.097259 99.997091 
L 93.664411 97.553455 
L 95.219206 95.109818 
L 96.752971 92.666182 
L 98.253878 90.222545 
L 99.707111 87.778909 
L 101.095851 85.335273 
L 102.402865 82.891636 
L 103.612355 80.448 
L 104.711724 78.004364 
L 105.692925 75.560727 
L 106.553181 73.117091 
L 107.295017 70.673455 
L 107.925643 68.229818 
L 108.455878 65.786182 
L 108.898797 63.342545 
L 109.268352 60.898909 
L 109.578129 58.455273 
L 109.840368 56.011636 
L 110.065328 53.568 
L 112.558847 53.568 
L 112.558847 53.568 
L 112.783806 56.011636 
L 113.046046 58.455273 
L 113.355822 60.898909 
L 113.725378 63.342545 
L 114.168297 65.786182 
L 114.698531 68.229818 
L 115.329158 70.673455 
L 116.070993 73.117091 
L 116.93125 75.560727 
L 117.912451 78.004364 
L 119.01182 80.448 
L 120.22131 82.891636 
L 121.528323 85.335273 
L 122.917064 87.778909 
L 124.370297 90.222545 
L 125.871204 92.666182 
L 127.404968 95.109818 
L 128.959763 97.553455 
L 130.526915 99.997091 
L 132.100198 102.440727 
L 133.674392 104.884364 
L 135.243442 107.328 
L 136.798623 109.771636 
L 138.327219 112.215273 
L 139.812064 114.658909 
L 141.232186 117.102545 
L 142.564515 119.546182 
L 143.786375 121.989818 
L 144.878291 124.433455 
L 145.826525 126.877091 
L 146.624805 129.320727 
L 147.274863 131.764364 
L 147.785669 134.208 
L 148.171513 136.651636 
L 148.449385 139.095273 
L 148.636214 141.538909 
L 148.746595 143.982545 
L 148.791447 146.426182 
L 148.777839 148.869818 
L 148.709831 151.313455 
L 148.589926 153.757091 
L 148.420516 156.200727 
L 148.204701 158.644364 
L 147.946079 161.088 
L 147.647454 163.531636 
L 147.308832 165.975273 
L 146.925366 168.418909 
L 146.486063 170.862545 
L 145.973906 173.306182 
L 145.367637 175.749818 
L 144.64502 178.193455 
L 143.786871 180.637091 
L 142.780946 183.080727 
L 141.624748 185.524364 
L 140.326612 187.968 
L 138.904895 190.411636 
L 137.385582 192.855273 
L 135.79899 195.298909 
L 134.176424 197.742545 
L 132.547479 200.186182 
L 130.938432 202.629818 
L 129.371715 205.073455 
L 127.866144 207.517091 
L 126.437406 209.960727 
L 125.098314 212.404364 
L 123.858587 214.848 
L 122.724183 217.291636 
L 121.696521 219.735273 
L 120.772012 222.178909 
L 119.942276 224.622545 
L 119.195204 227.066182 
L 118.516717 229.509818 
L 117.892834 231.953455 
L 117.311554 234.397091 
L 116.76411 236.840727 
L 116.24538 239.284364 
L 115.753464 241.728 
L 115.288714 244.171636 
L 114.852587 246.615273 
L 114.446682 249.058909 
L 114.072218 251.502545 
L 113.729985 253.946182 
L 113.420673 256.389818 
L 113.145335 258.833455 
L 112.905763 261.277091 
L 112.704547 263.720727 
L 112.544763 266.164364 
L 112.429277 268.608 
L 112.359809 271.051636 
L 112.335943 273.495273 
L 112.354302 275.938909 
L 112.408102 278.382545 
L 112.487227 280.826182 
L 112.578904 283.269818 
L 112.668912 285.713455 
L 112.743174 288.157091 
L 112.789471 290.600727 
L 112.798965 293.044364 
L 112.767256 295.488 
z
" clip-path="url(#pbf2dad85d1)" style="fill: #1f77b4; fill-opacity: 0.3"/>
   </g>
   <g id="PolyCollection_2">
    <path d="M 195.560753 261.612808 
L 193.638355 261.612808 
L 193.64305 259.734081 
L 193.677204 257.855354 
L 193.737542 255.976627 
L 193.818485 254.0979 
L 193.912915 252.219173 
L 194.013081 250.340446 
L 194.111472 248.461719 
L 194.201517 246.582992 
L 194.278009 244.704265 
L 194.337259 242.825538 
L 194.377011 240.946811 
L 194.396218 239.068084 
L 194.394774 237.189357 
L 194.373266 235.31063 
L 194.332807 233.431903 
L 194.274912 231.553176 
L 194.201385 229.674449 
L 194.114152 227.795722 
L 194.014967 225.916995 
L 193.904971 224.038268 
L 193.784109 222.159541 
L 193.650476 220.280814 
L 193.499717 218.402087 
L 193.324619 216.52336 
L 193.115058 214.644633 
L 192.858408 212.765906 
L 192.540449 210.887179 
L 192.146719 209.008452 
L 191.664135 207.129725 
L 191.082638 205.250997 
L 190.396571 203.37227 
L 189.605545 201.493543 
L 188.714637 199.614816 
L 187.733893 197.736089 
L 186.677254 195.857362 
L 185.561091 193.978635 
L 184.402604 192.099908 
L 183.218264 190.221181 
L 182.022446 188.342454 
L 180.826311 186.463727 
L 179.636991 184.585 
L 178.45714 182.706273 
L 177.284942 180.827546 
L 176.114713 178.948819 
L 174.938168 177.070092 
L 173.74632 175.191365 
L 172.531813 173.312638 
L 171.291301 171.433911 
L 170.027406 169.555184 
L 168.749774 167.676457 
L 167.474894 165.79773 
L 166.224597 163.919003 
L 165.023427 162.040276 
L 163.895361 160.161549 
L 162.860477 158.282822 
L 161.932247 156.404095 
L 161.11595 154.525368 
L 160.408544 152.646641 
L 159.799979 150.767914 
L 159.275703 148.889187 
L 158.819858 147.010459 
L 158.418578 145.131732 
L 158.062793 143.253005 
L 157.750084 141.374278 
L 157.485355 139.495551 
L 157.280299 137.616824 
L 157.151886 135.738097 
L 157.120194 133.85937 
L 157.205964 131.980643 
L 157.428209 130.101916 
L 157.80209 128.223189 
L 158.337186 126.344462 
L 159.03618 124.465735 
L 159.894036 122.587008 
L 160.897689 120.708281 
L 162.026393 118.829554 
L 163.2528 116.950827 
L 164.544828 115.0721 
L 165.868201 113.193373 
L 167.189419 111.314646 
L 168.478742 109.435919 
L 169.712758 107.557192 
L 170.876118 105.678465 
L 171.962221 103.799738 
L 172.972818 101.921011 
L 173.916746 100.042284 
L 174.808107 98.163557 
L 175.664293 96.28483 
L 176.504138 94.406103 
L 177.346367 92.527376 
L 178.208346 90.648648 
L 179.105033 88.769921 
L 180.047974 86.891194 
L 181.044293 85.012467 
L 182.095713 83.13374 
L 183.197763 81.255013 
L 184.339442 79.376286 
L 185.503546 77.497559 
L 186.667802 75.618832 
L 202.531306 75.618832 
L 202.531306 75.618832 
L 203.695562 77.497559 
L 204.859666 79.376286 
L 206.001345 81.255013 
L 207.103395 83.13374 
L 208.154815 85.012467 
L 209.151134 86.891194 
L 210.094075 88.769921 
L 210.990762 90.648648 
L 211.852742 92.527376 
L 212.69497 94.406103 
L 213.534815 96.28483 
L 214.391001 98.163557 
L 215.282363 100.042284 
L 216.22629 101.921011 
L 217.236887 103.799738 
L 218.32299 105.678465 
L 219.48635 107.557192 
L 220.720366 109.435919 
L 222.009689 111.314646 
L 223.330907 113.193373 
L 224.65428 115.0721 
L 225.946308 116.950827 
L 227.172715 118.829554 
L 228.301419 120.708281 
L 229.305072 122.587008 
L 230.162928 124.465735 
L 230.861922 126.344462 
L 231.397018 128.223189 
L 231.7709 130.101916 
L 231.993144 131.980643 
L 232.078914 133.85937 
L 232.047222 135.738097 
L 231.91881 137.616824 
L 231.713753 139.495551 
L 231.449024 141.374278 
L 231.136315 143.253005 
L 230.78053 145.131732 
L 230.37925 147.010459 
L 229.923405 148.889187 
L 229.399129 150.767914 
L 228.790564 152.646641 
L 228.083158 154.525368 
L 227.266861 156.404095 
L 226.338631 158.282822 
L 225.303747 160.161549 
L 224.175681 162.040276 
L 222.974511 163.919003 
L 221.724214 165.79773 
L 220.449334 167.676457 
L 219.171703 169.555184 
L 217.907807 171.433911 
L 216.667295 173.312638 
L 215.452788 175.191365 
L 214.26094 177.070092 
L 213.084395 178.948819 
L 211.914166 180.827546 
L 210.741968 182.706273 
L 209.562117 184.585 
L 208.372798 186.463727 
L 207.176662 188.342454 
L 205.980844 190.221181 
L 204.796504 192.099908 
L 203.638017 193.978635 
L 202.521854 195.857362 
L 201.465215 197.736089 
L 200.484472 199.614816 
L 199.593563 201.493543 
L 198.802537 203.37227 
L 198.11647 205.250997 
L 197.534973 207.129725 
L 197.05239 209.008452 
L 196.658659 210.887179 
L 196.3407 212.765906 
L 196.08405 214.644633 
L 195.874489 216.52336 
L 195.699392 218.402087 
L 195.548632 220.280814 
L 195.414999 222.159541 
L 195.294137 224.038268 
L 195.184141 225.916995 
L 195.084956 227.795722 
L 194.997723 229.674449 
L 194.924196 231.553176 
L 194.866301 233.431903 
L 194.825842 235.31063 
L 194.804335 237.189357 
L 194.80289 239.068084 
L 194.822097 240.946811 
L 194.861849 242.825538 
L 194.921099 244.704265 
L 194.997591 246.582992 
L 195.087636 248.461719 
L 195.186027 250.340446 
L 195.286193 252.219173 
L 195.380624 254.0979 
L 195.461566 255.976627 
L 195.521904 257.855354 
L 195.556058 259.734081 
L 195.560753 261.612808 
z
" clip-path="url(#pbf2dad85d1)" style="fill: #1f77b4; fill-opacity: 0.3"/>
   </g>
   <g id="PolyCollection_3">
    <path d="M 279.824677 228.057194 
L 275.949365 228.057194 
L 275.788787 226.439939 
L 275.643018 224.822685 
L 275.512462 223.20543 
L 275.395617 221.588175 
L 275.289145 219.970921 
L 275.18813 218.353666 
L 275.086479 216.736411 
L 274.977394 215.119156 
L 274.853844 213.501902 
L 274.708972 211.884647 
L 274.536377 210.267392 
L 274.330256 208.650138 
L 274.085414 207.032883 
L 273.797157 205.415628 
L 273.461149 203.798373 
L 273.073264 202.181119 
L 272.629516 200.563864 
L 272.1261 198.946609 
L 271.55957 197.329355 
L 270.927161 195.7121 
L 270.227224 194.094845 
L 269.459718 192.47759 
L 268.626697 190.860336 
L 267.732712 189.243081 
L 266.785035 187.625826 
L 265.793656 186.008572 
L 264.770991 184.391317 
L 263.7313 182.774062 
L 262.689828 181.156807 
L 261.661748 179.539553 
L 260.660997 177.922298 
L 259.699145 176.305043 
L 258.784438 174.687789 
L 257.921156 173.070534 
L 257.109409 171.453279 
L 256.345439 169.836024 
L 255.622439 168.21877 
L 254.931819 166.601515 
L 254.264781 164.98426 
L 253.613977 163.367006 
L 252.975015 161.749751 
L 252.347531 160.132496 
L 251.735627 158.515242 
L 251.147519 156.897987 
L 250.59439 155.280732 
L 250.08855 153.663477 
L 249.641159 152.046223 
L 249.259835 150.428968 
L 248.946539 148.811713 
L 248.696096 147.194459 
L 248.495635 145.577204 
L 248.325103 143.959949 
L 248.158856 142.342694 
L 247.968172 140.72544 
L 247.724403 139.108185 
L 247.402385 137.49093 
L 246.983695 135.873676 
L 246.459348 134.256421 
L 245.831591 132.639166 
L 245.114566 131.021911 
L 244.333721 129.404657 
L 243.524028 127.787402 
L 242.727158 126.170147 
L 241.987962 124.552893 
L 241.350619 122.935638 
L 240.854923 121.318383 
L 240.533119 119.701128 
L 240.407661 118.083874 
L 240.49009 116.466619 
L 240.781138 114.849364 
L 241.271931 113.23211 
L 241.946061 111.614855 
L 242.782177 109.9976 
L 243.75671 108.380345 
L 244.846344 106.763091 
L 246.029959 105.145836 
L 247.289839 103.528581 
L 248.612085 101.911327 
L 249.986306 100.294072 
L 251.404722 98.676817 
L 252.860912 97.059562 
L 254.348447 95.442308 
L 255.859655 93.825053 
L 257.384715 92.207798 
L 258.911233 90.590544 
L 260.424363 88.973289 
L 261.907467 87.356034 
L 263.34322 85.738779 
L 264.714988 84.121525 
L 266.008274 82.50427 
L 267.212004 80.887015 
L 268.31945 79.269761 
L 269.328629 77.652506 
L 270.242143 76.035251 
L 271.066455 74.417996 
L 271.810756 72.800742 
L 272.485599 71.183487 
L 273.101507 69.566232 
L 273.667795 67.948978 
L 282.106247 67.948978 
L 282.106247 67.948978 
L 282.672534 69.566232 
L 283.288443 71.183487 
L 283.963285 72.800742 
L 284.707587 74.417996 
L 285.531899 76.035251 
L 286.445412 77.652506 
L 287.454592 79.269761 
L 288.562037 80.887015 
L 289.765768 82.50427 
L 291.059054 84.121525 
L 292.430822 85.738779 
L 293.866575 87.356034 
L 295.349679 88.973289 
L 296.862808 90.590544 
L 298.389326 92.207798 
L 299.914387 93.825053 
L 301.425595 95.442308 
L 302.91313 97.059562 
L 304.369319 98.676817 
L 305.787735 100.294072 
L 307.161956 101.911327 
L 308.484203 103.528581 
L 309.744082 105.145836 
L 310.927698 106.763091 
L 312.017332 108.380345 
L 312.991864 109.9976 
L 313.827981 111.614855 
L 314.502111 113.23211 
L 314.992904 114.849364 
L 315.283952 116.466619 
L 315.366381 118.083874 
L 315.240922 119.701128 
L 314.919119 121.318383 
L 314.423423 122.935638 
L 313.786079 124.552893 
L 313.046883 126.170147 
L 312.250014 127.787402 
L 311.44032 129.404657 
L 310.659476 131.021911 
L 309.94245 132.639166 
L 309.314693 134.256421 
L 308.790346 135.873676 
L 308.371657 137.49093 
L 308.049639 139.108185 
L 307.80587 140.72544 
L 307.615186 142.342694 
L 307.448939 143.959949 
L 307.278407 145.577204 
L 307.077946 147.194459 
L 306.827503 148.811713 
L 306.514207 150.428968 
L 306.132883 152.046223 
L 305.685492 153.663477 
L 305.179652 155.280732 
L 304.626522 156.897987 
L 304.038414 158.515242 
L 303.42651 160.132496 
L 302.799027 161.749751 
L 302.160065 163.367006 
L 301.509261 164.98426 
L 300.842223 166.601515 
L 300.151603 168.21877 
L 299.428603 169.836024 
L 298.664633 171.453279 
L 297.852886 173.070534 
L 296.989604 174.687789 
L 296.074897 176.305043 
L 295.113045 177.922298 
L 294.112294 179.539553 
L 293.084214 181.156807 
L 292.042742 182.774062 
L 291.003051 184.391317 
L 289.980386 186.008572 
L 288.989007 187.625826 
L 288.04133 189.243081 
L 287.147344 190.860336 
L 286.314324 192.47759 
L 285.546817 194.094845 
L 284.84688 195.7121 
L 284.214472 197.329355 
L 283.647942 198.946609 
L 283.144526 200.563864 
L 282.700778 202.181119 
L 282.312893 203.798373 
L 281.976885 205.415628 
L 281.688628 207.032883 
L 281.443785 208.650138 
L 281.237665 210.267392 
L 281.065069 211.884647 
L 280.920197 213.501902 
L 280.796648 215.119156 
L 280.687563 216.736411 
L 280.585912 218.353666 
L 280.484897 219.970921 
L 280.378425 221.588175 
L 280.26158 223.20543 
L 280.131024 224.822685 
L 279.985255 226.439939 
L 279.824677 228.057194 
z
" clip-path="url(#pbf2dad85d1)" style="fill: #1f77b4; fill-opacity: 0.3"/>
   </g>
   <g id="PolyCollection_4">
    <path d="M 364.140155 215.274103 
L 357.875671 215.274103 
L 357.544301 213.698813 
L 357.223822 212.123523 
L 356.919777 210.548233 
L 356.636293 208.972943 
L 356.375693 207.397653 
L 356.138214 205.822363 
L 355.921866 204.247073 
L 355.722437 202.671783 
L 355.533615 201.096493 
L 355.347238 199.521203 
L 355.153619 197.945913 
L 354.941931 196.370623 
L 354.700603 194.795333 
L 354.417721 193.220043 
L 354.08139 191.644753 
L 353.680065 190.069463 
L 353.202849 188.494173 
L 352.63976 186.918883 
L 351.981992 185.343593 
L 351.222186 183.768303 
L 350.354725 182.193013 
L 349.376063 180.617723 
L 348.285063 179.042433 
L 347.083358 177.467143 
L 345.775668 175.891853 
L 344.370057 174.316563 
L 342.878095 172.741272 
L 341.314862 171.165982 
L 339.698802 169.590692 
L 338.051381 168.015402 
L 336.396555 166.440112 
L 334.760051 164.864822 
L 333.168461 163.289532 
L 331.648199 161.714242 
L 330.224336 160.138952 
L 328.919384 158.563662 
L 327.752101 156.988372 
L 326.736409 155.413082 
L 325.880532 153.837792 
L 325.186442 152.262502 
L 324.64971 150.687212 
L 324.259797 149.111922 
L 324.000803 147.536632 
L 323.852601 145.961342 
L 323.792278 144.386052 
L 323.79573 142.810762 
L 323.839267 141.235472 
L 323.901079 139.660182 
L 323.962451 138.084892 
L 324.008663 136.509602 
L 324.029546 134.934312 
L 324.019721 133.359022 
L 323.978557 131.783732 
L 323.909904 130.208442 
L 323.821619 128.633152 
L 323.724923 127.057862 
L 323.633576 125.482572 
L 323.562882 123.907282 
L 323.528553 122.331992 
L 323.545498 120.756702 
L 323.626631 119.181412 
L 323.781845 117.606122 
L 324.01729 116.030832 
L 324.335088 114.455542 
L 324.733535 112.880252 
L 325.207793 111.304962 
L 325.750959 109.729672 
L 326.355356 108.154382 
L 327.01381 106.579092 
L 327.720719 105.003802 
L 328.472723 103.428512 
L 329.26889 101.853222 
L 330.110396 100.277932 
L 330.99979 98.702642 
L 331.939976 97.127352 
L 332.933114 95.552061 
L 333.979611 93.976771 
L 335.077358 92.401481 
L 336.22132 90.826191 
L 337.403517 89.250901 
L 338.613372 87.675611 
L 339.838379 86.100321 
L 341.064979 84.525031 
L 342.279545 82.949741 
L 343.469356 81.374451 
L 344.623475 79.799161 
L 345.733421 78.223871 
L 346.793601 76.648581 
L 347.801451 75.073291 
L 348.757282 73.498001 
L 349.663855 71.922711 
L 350.525744 70.347421 
L 351.348543 68.772131 
L 352.138022 67.196841 
L 352.899331 65.621551 
L 353.636324 64.046261 
L 354.351097 62.470971 
L 355.043775 60.895681 
L 355.712555 59.320391 
L 366.30327 59.320391 
L 366.30327 59.320391 
L 366.972051 60.895681 
L 367.664728 62.470971 
L 368.379502 64.046261 
L 369.116495 65.621551 
L 369.877803 67.196841 
L 370.667282 68.772131 
L 371.490081 70.347421 
L 372.35197 71.922711 
L 373.258544 73.498001 
L 374.214374 75.073291 
L 375.222224 76.648581 
L 376.282404 78.223871 
L 377.39235 79.799161 
L 378.546469 81.374451 
L 379.736281 82.949741 
L 380.950846 84.525031 
L 382.177446 86.100321 
L 383.402453 87.675611 
L 384.612308 89.250901 
L 385.794505 90.826191 
L 386.938468 92.401481 
L 388.036215 93.976771 
L 389.082711 95.552061 
L 390.075849 97.127352 
L 391.016035 98.702642 
L 391.905429 100.277932 
L 392.746936 101.853222 
L 393.543103 103.428512 
L 394.295106 105.003802 
L 395.002015 106.579092 
L 395.660469 108.154382 
L 396.264866 109.729672 
L 396.808033 111.304962 
L 397.28229 112.880252 
L 397.680737 114.455542 
L 397.998535 116.030832 
L 398.23398 117.606122 
L 398.389194 119.181412 
L 398.470327 120.756702 
L 398.487273 122.331992 
L 398.452944 123.907282 
L 398.382249 125.482572 
L 398.290902 127.057862 
L 398.194207 128.633152 
L 398.105922 130.208442 
L 398.037268 131.783732 
L 397.996104 133.359022 
L 397.986279 134.934312 
L 398.007162 136.509602 
L 398.053374 138.084892 
L 398.114747 139.660182 
L 398.176558 141.235472 
L 398.220096 142.810762 
L 398.223548 144.386052 
L 398.163225 145.961342 
L 398.015022 147.536632 
L 397.756028 149.111922 
L 397.366116 150.687212 
L 396.829383 152.262502 
L 396.135293 153.837792 
L 395.279416 155.413082 
L 394.263725 156.988372 
L 393.096441 158.563662 
L 391.791489 160.138952 
L 390.367627 161.714242 
L 388.847365 163.289532 
L 387.255775 164.864822 
L 385.61927 166.440112 
L 383.964445 168.015402 
L 382.317024 169.590692 
L 380.700964 171.165982 
L 379.137731 172.741272 
L 377.645768 174.316563 
L 376.240158 175.891853 
L 374.932467 177.467143 
L 373.730762 179.042433 
L 372.639763 180.617723 
L 371.6611 182.193013 
L 370.79364 183.768303 
L 370.033834 185.343593 
L 369.376065 186.918883 
L 368.812976 188.494173 
L 368.33576 190.069463 
L 367.934436 191.644753 
L 367.598104 193.220043 
L 367.315222 194.795333 
L 367.073895 196.370623 
L 366.862206 197.945913 
L 366.668587 199.521203 
L 366.48221 201.096493 
L 366.293388 202.671783 
L 366.093959 204.247073 
L 365.877612 205.822363 
L 365.640132 207.397653 
L 365.379532 208.972943 
L 365.096049 210.548233 
L 364.792003 212.123523 
L 364.471524 213.698813 
L 364.140155 215.274103 
z
" clip-path="url(#pbf2dad85d1)" style="fill: #1f77b4; fill-opacity: 0.3"/>
   </g>
   <g id="matplotlib.axis_1">
    <g id="xtick_1">
     <g id="line2d_1">
      <defs>
       <path id="m1ad2512da4" d="M 0 0 
L 0 3.5 
" style="stroke: #000000; stroke-width: 0.8"/>
      </defs>
      <g>
       <use xlink:href="#m1ad2512da4" x="69.668354" y="307.584" style="stroke: #000000; stroke-width: 0.8"/>
      </g>
     </g>
     <g id="text_1">
      <!-- 250 -->
      <g transform="translate(60.124604 322.182437)scale(0.1 -0.1)">
       <defs>
        <path id="DejaVuSans-32" d="M 1228 531 
L 3431 531 
L 3431 0 
L 469 0 
L 469 531 
Q 828 903 1448 1529 
Q 2069 2156 2228 2338 
Q 2531 2678 2651 2914 
Q 2772 3150 2772 3378 
Q 2772 3750 2511 3984 
Q 2250 4219 1831 4219 
Q 1534 4219 1204 4116 
Q 875 4013 500 3803 
L 500 4441 
Q 881 4594 1212 4672 
Q 1544 4750 1819 4750 
Q 2544 4750 2975 4387 
Q 3406 4025 3406 3419 
Q 3406 3131 3298 2873 
Q 3191 2616 2906 2266 
Q 2828 2175 2409 1742 
Q 1991 1309 1228 531 
z
" transform="scale(0.015625)"/>
        <path id="DejaVuSans-35" d="M 691 4666 
L 3169 4666 
L 3169 4134 
L 1269 4134 
L 1269 2991 
Q 1406 3038 1543 3061 
Q 1681 3084 1819 3084 
Q 2600 3084 3056 2656 
Q 3513 2228 3513 1497 
Q 3513 744 3044 326 
Q 2575 -91 1722 -91 
Q 1428 -91 1123 -41 
Q 819 9 494 109 
L 494 744 
Q 775 591 1075 516 
Q 1375 441 1709 441 
Q 2250 441 2565 725 
Q 2881 1009 2881 1497 
Q 2881 1984 2565 2268 
Q 2250 2553 1709 2553 
Q 1456 2553 1204 2497 
Q 953 2441 691 2322 
L 691 4666 
z
" transform="scale(0.015625)"/>
        <path id="DejaVuSans-30" d="M 2034 4250 
Q 1547 4250 1301 3770 
Q 1056 3291 1056 2328 
Q 1056 1369 1301 889 
Q 1547 409 2034 409 
Q 2525 409 2770 889 
Q 3016 1369 3016 2328 
Q 3016 3291 2770 3770 
Q 2525 4250 2034 4250 
z
M 2034 4750 
Q 2819 4750 3233 4129 
Q 3647 3509 3647 2328 
Q 3647 1150 3233 529 
Q 2819 -91 2034 -91 
Q 1250 -91 836 529 
Q 422 1150 422 2328 
Q 422 3509 836 4129 
Q 1250 4750 2034 4750 
z
" transform="scale(0.015625)"/>
       </defs>
       <use xlink:href="#DejaVuSans-32"/>
       <use xlink:href="#DejaVuSans-35" x="63.623047"/>
       <use xlink:href="#DejaVuSans-30" x="127.246094"/>
      </g>
     </g>
    </g>
    <g id="xtick_2">
     <g id="line2d_2">
      <g>
       <use xlink:href="#m1ad2512da4" x="111.312087" y="307.584" style="stroke: #000000; stroke-width: 0.8"/>
      </g>
     </g>
     <g id="text_2">
      <!-- 500 -->
      <g transform="translate(101.768337 322.182437)scale(0.1 -0.1)">
       <use xlink:href="#DejaVuSans-35"/>
       <use xlink:href="#DejaVuSans-30" x="63.623047"/>
       <use xlink:href="#DejaVuSans-30" x="127.246094"/>
      </g>
     </g>
    </g>
    <g id="xtick_3">
     <g id="line2d_3">
      <g>
       <use xlink:href="#m1ad2512da4" x="152.955821" y="307.584" style="stroke: #000000; stroke-width: 0.8"/>
      </g>
     </g>
     <g id="text_3">
      <!-- 750 -->
      <g transform="translate(143.412071 322.182437)scale(0.1 -0.1)">
       <defs>
        <path id="DejaVuSans-37" d="M 525 4666 
L 3525 4666 
L 3525 4397 
L 1831 0 
L 1172 0 
L 2766 4134 
L 525 4134 
L 525 4666 
z
" transform="scale(0.015625)"/>
       </defs>
       <use xlink:href="#DejaVuSans-37"/>
       <use xlink:href="#DejaVuSans-35" x="63.623047"/>
       <use xlink:href="#DejaVuSans-30" x="127.246094"/>
      </g>
     </g>
    </g>
    <g id="xtick_4">
     <g id="line2d_4">
      <g>
       <use xlink:href="#m1ad2512da4" x="194.599554" y="307.584" style="stroke: #000000; stroke-width: 0.8"/>
      </g>
     </g>
     <g id="text_4">
      <!-- 1000 -->
      <g transform="translate(181.874554 322.182437)scale(0.1 -0.1)">
       <defs>
        <path id="DejaVuSans-31" d="M 794 531 
L 1825 531 
L 1825 4091 
L 703 3866 
L 703 4441 
L 1819 4666 
L 2450 4666 
L 2450 531 
L 3481 531 
L 3481 0 
L 794 0 
L 794 531 
z
" transform="scale(0.015625)"/>
       </defs>
       <use xlink:href="#DejaVuSans-31"/>
       <use xlink:href="#DejaVuSans-30" x="63.623047"/>
       <use xlink:href="#DejaVuSans-30" x="127.246094"/>
       <use xlink:href="#DejaVuSans-30" x="190.869141"/>
      </g>
     </g>
    </g>
    <g id="xtick_5">
     <g id="line2d_5">
      <g>
       <use xlink:href="#m1ad2512da4" x="236.243287" y="307.584" style="stroke: #000000; stroke-width: 0.8"/>
      </g>
     </g>
     <g id="text_5">
      <!-- 1250 -->
      <g transform="translate(223.518287 322.182437)scale(0.1 -0.1)">
       <use xlink:href="#DejaVuSans-31"/>
       <use xlink:href="#DejaVuSans-32" x="63.623047"/>
       <use xlink:href="#DejaVuSans-35" x="127.246094"/>
       <use xlink:href="#DejaVuSans-30" x="190.869141"/>
      </g>
     </g>
    </g>
    <g id="xtick_6">
     <g id="line2d_6">
      <g>
       <use xlink:href="#m1ad2512da4" x="277.887021" y="307.584" style="stroke: #000000; stroke-width: 0.8"/>
      </g>
     </g>
     <g id="text_6">
      <!-- 1500 -->
      <g transform="translate(265.162021 322.182437)scale(0.1 -0.1)">
       <use xlink:href="#DejaVuSans-31"/>
       <use xlink:href="#DejaVuSans-35" x="63.623047"/>
       <use xlink:href="#DejaVuSans-30" x="127.246094"/>
       <use xlink:href="#DejaVuSans-30" x="190.869141"/>
      </g>
     </g>
    </g>
    <g id="xtick_7">
     <g id="line2d_7">
      <g>
       <use xlink:href="#m1ad2512da4" x="319.530754" y="307.584" style="stroke: #000000; stroke-width: 0.8"/>
      </g>
     </g>
     <g id="text_7">
      <!-- 1750 -->
      <g transform="translate(306.805754 322.182437)scale(0.1 -0.1)">
       <use xlink:href="#DejaVuSans-31"/>
       <use xlink:href="#DejaVuSans-37" x="63.623047"/>
       <use xlink:href="#DejaVuSans-35" x="127.246094"/>
       <use xlink:href="#DejaVuSans-30" x="190.869141"/>
      </g>
     </g>
    </g>
    <g id="xtick_8">
     <g id="line2d_8">
      <g>
       <use xlink:href="#m1ad2512da4" x="361.174488" y="307.584" style="stroke: #000000; stroke-width: 0.8"/>
      </g>
     </g>
     <g id="text_8">
      <!-- 2000 -->
      <g transform="translate(348.449488 322.182437)scale(0.1 -0.1)">
       <use xlink:href="#DejaVuSans-32"/>
       <use xlink:href="#DejaVuSans-30" x="63.623047"/>
       <use xlink:href="#DejaVuSans-30" x="127.246094"/>
       <use xlink:href="#DejaVuSans-30" x="190.869141"/>
      </g>
     </g>
    </g>
    <g id="xtick_9">
     <g id="line2d_9">
      <g>
       <use xlink:href="#m1ad2512da4" x="402.818221" y="307.584" style="stroke: #000000; stroke-width: 0.8"/>
      </g>
     </g>
     <g id="text_9">
      <!-- 2250 -->
      <g transform="translate(390.093221 322.182437)scale(0.1 -0.1)">
       <use xlink:href="#DejaVuSans-32"/>
       <use xlink:href="#DejaVuSans-32" x="63.623047"/>
       <use xlink:href="#DejaVuSans-35" x="127.246094"/>
       <use xlink:href="#DejaVuSans-30" x="190.869141"/>
      </g>
     </g>
    </g>
    <g id="text_10">
     <!-- Learned Episodes -->
     <g transform="translate(192.102187 335.860562)scale(0.1 -0.1)">
      <defs>
       <path id="DejaVuSans-4c" d="M 628 4666 
L 1259 4666 
L 1259 531 
L 3531 531 
L 3531 0 
L 628 0 
L 628 4666 
z
" transform="scale(0.015625)"/>
       <path id="DejaVuSans-65" d="M 3597 1894 
L 3597 1613 
L 953 1613 
Q 991 1019 1311 708 
Q 1631 397 2203 397 
Q 2534 397 2845 478 
Q 3156 559 3463 722 
L 3463 178 
Q 3153 47 2828 -22 
Q 2503 -91 2169 -91 
Q 1331 -91 842 396 
Q 353 884 353 1716 
Q 353 2575 817 3079 
Q 1281 3584 2069 3584 
Q 2775 3584 3186 3129 
Q 3597 2675 3597 1894 
z
M 3022 2063 
Q 3016 2534 2758 2815 
Q 2500 3097 2075 3097 
Q 1594 3097 1305 2825 
Q 1016 2553 972 2059 
L 3022 2063 
z
" transform="scale(0.015625)"/>
       <path id="DejaVuSans-61" d="M 2194 1759 
Q 1497 1759 1228 1600 
Q 959 1441 959 1056 
Q 959 750 1161 570 
Q 1363 391 1709 391 
Q 2188 391 2477 730 
Q 2766 1069 2766 1631 
L 2766 1759 
L 2194 1759 
z
M 3341 1997 
L 3341 0 
L 2766 0 
L 2766 531 
Q 2569 213 2275 61 
Q 1981 -91 1556 -91 
Q 1019 -91 701 211 
Q 384 513 384 1019 
Q 384 1609 779 1909 
Q 1175 2209 1959 2209 
L 2766 2209 
L 2766 2266 
Q 2766 2663 2505 2880 
Q 2244 3097 1772 3097 
Q 1472 3097 1187 3025 
Q 903 2953 641 2809 
L 641 3341 
Q 956 3463 1253 3523 
Q 1550 3584 1831 3584 
Q 2591 3584 2966 3190 
Q 3341 2797 3341 1997 
z
" transform="scale(0.015625)"/>
       <path id="DejaVuSans-72" d="M 2631 2963 
Q 2534 3019 2420 3045 
Q 2306 3072 2169 3072 
Q 1681 3072 1420 2755 
Q 1159 2438 1159 1844 
L 1159 0 
L 581 0 
L 581 3500 
L 1159 3500 
L 1159 2956 
Q 1341 3275 1631 3429 
Q 1922 3584 2338 3584 
Q 2397 3584 2469 3576 
Q 2541 3569 2628 3553 
L 2631 2963 
z
" transform="scale(0.015625)"/>
       <path id="DejaVuSans-6e" d="M 3513 2113 
L 3513 0 
L 2938 0 
L 2938 2094 
Q 2938 2591 2744 2837 
Q 2550 3084 2163 3084 
Q 1697 3084 1428 2787 
Q 1159 2491 1159 1978 
L 1159 0 
L 581 0 
L 581 3500 
L 1159 3500 
L 1159 2956 
Q 1366 3272 1645 3428 
Q 1925 3584 2291 3584 
Q 2894 3584 3203 3211 
Q 3513 2838 3513 2113 
z
" transform="scale(0.015625)"/>
       <path id="DejaVuSans-64" d="M 2906 2969 
L 2906 4863 
L 3481 4863 
L 3481 0 
L 2906 0 
L 2906 525 
Q 2725 213 2448 61 
Q 2172 -91 1784 -91 
Q 1150 -91 751 415 
Q 353 922 353 1747 
Q 353 2572 751 3078 
Q 1150 3584 1784 3584 
Q 2172 3584 2448 3432 
Q 2725 3281 2906 2969 
z
M 947 1747 
Q 947 1113 1208 752 
Q 1469 391 1925 391 
Q 2381 391 2643 752 
Q 2906 1113 2906 1747 
Q 2906 2381 2643 2742 
Q 2381 3103 1925 3103 
Q 1469 3103 1208 2742 
Q 947 2381 947 1747 
z
" transform="scale(0.015625)"/>
       <path id="DejaVuSans-20" transform="scale(0.015625)"/>
       <path id="DejaVuSans-45" d="M 628 4666 
L 3578 4666 
L 3578 4134 
L 1259 4134 
L 1259 2753 
L 3481 2753 
L 3481 2222 
L 1259 2222 
L 1259 531 
L 3634 531 
L 3634 0 
L 628 0 
L 628 4666 
z
" transform="scale(0.015625)"/>
       <path id="DejaVuSans-70" d="M 1159 525 
L 1159 -1331 
L 581 -1331 
L 581 3500 
L 1159 3500 
L 1159 2969 
Q 1341 3281 1617 3432 
Q 1894 3584 2278 3584 
Q 2916 3584 3314 3078 
Q 3713 2572 3713 1747 
Q 3713 922 3314 415 
Q 2916 -91 2278 -91 
Q 1894 -91 1617 61 
Q 1341 213 1159 525 
z
M 3116 1747 
Q 3116 2381 2855 2742 
Q 2594 3103 2138 3103 
Q 1681 3103 1420 2742 
Q 1159 2381 1159 1747 
Q 1159 1113 1420 752 
Q 1681 391 2138 391 
Q 2594 391 2855 752 
Q 3116 1113 3116 1747 
z
" transform="scale(0.015625)"/>
       <path id="DejaVuSans-69" d="M 603 3500 
L 1178 3500 
L 1178 0 
L 603 0 
L 603 3500 
z
M 603 4863 
L 1178 4863 
L 1178 4134 
L 603 4134 
L 603 4863 
z
" transform="scale(0.015625)"/>
       <path id="DejaVuSans-73" d="M 2834 3397 
L 2834 2853 
Q 2591 2978 2328 3040 
Q 2066 3103 1784 3103 
Q 1356 3103 1142 2972 
Q 928 2841 928 2578 
Q 928 2378 1081 2264 
Q 1234 2150 1697 2047 
L 1894 2003 
Q 2506 1872 2764 1633 
Q 3022 1394 3022 966 
Q 3022 478 2636 193 
Q 2250 -91 1575 -91 
Q 1294 -91 989 -36 
Q 684 19 347 128 
L 347 722 
Q 666 556 975 473 
Q 1284 391 1588 391 
Q 1994 391 2212 530 
Q 2431 669 2431 922 
Q 2431 1156 2273 1281 
Q 2116 1406 1581 1522 
L 1381 1569 
Q 847 1681 609 1914 
Q 372 2147 372 2553 
Q 372 3047 722 3315 
Q 1072 3584 1716 3584 
Q 2034 3584 2315 3537 
Q 2597 3491 2834 3397 
z
" transform="scale(0.015625)"/>
       <path id="DejaVuSans-6f" d="M 1959 3097 
Q 1497 3097 1228 2736 
Q 959 2375 959 1747 
Q 959 1119 1226 758 
Q 1494 397 1959 397 
Q 2419 397 2687 759 
Q 2956 1122 2956 1747 
Q 2956 2369 2687 2733 
Q 2419 3097 1959 3097 
z
M 1959 3584 
Q 2709 3584 3137 3096 
Q 3566 2609 3566 1747 
Q 3566 888 3137 398 
Q 2709 -91 1959 -91 
Q 1206 -91 779 398 
Q 353 888 353 1747 
Q 353 2609 779 3096 
Q 1206 3584 1959 3584 
z
" transform="scale(0.015625)"/>
      </defs>
      <use xlink:href="#DejaVuSans-4c"/>
      <use xlink:href="#DejaVuSans-65" x="53.962891"/>
      <use xlink:href="#DejaVuSans-61" x="115.486328"/>
      <use xlink:href="#DejaVuSans-72" x="176.765625"/>
      <use xlink:href="#DejaVuSans-6e" x="216.128906"/>
      <use xlink:href="#DejaVuSans-65" x="279.507812"/>
      <use xlink:href="#DejaVuSans-64" x="341.03125"/>
      <use xlink:href="#DejaVuSans-20" x="404.507812"/>
      <use xlink:href="#DejaVuSans-45" x="436.294922"/>
      <use xlink:href="#DejaVuSans-70" x="499.478516"/>
      <use xlink:href="#DejaVuSans-69" x="562.955078"/>
      <use xlink:href="#DejaVuSans-73" x="590.738281"/>
      <use xlink:href="#DejaVuSans-6f" x="642.837891"/>
      <use xlink:href="#DejaVuSans-64" x="704.019531"/>
      <use xlink:href="#DejaVuSans-65" x="767.496094"/>
      <use xlink:href="#DejaVuSans-73" x="829.019531"/>
     </g>
    </g>
   </g>
   <g id="matplotlib.axis_2">
    <g id="ytick_1">
     <g id="line2d_10">
      <defs>
       <path id="mf941fbf43e" d="M 0 0 
L -3.5 0 
" style="stroke: #000000; stroke-width: 0.8"/>
      </defs>
      <g>
       <use xlink:href="#mf941fbf43e" x="57.6" y="302.838277" style="stroke: #000000; stroke-width: 0.8"/>
      </g>
     </g>
     <g id="text_11">
      <!-- −100 -->
      <g transform="translate(23.132812 306.637496)scale(0.1 -0.1)">
       <defs>
        <path id="DejaVuSans-2212" d="M 678 2272 
L 4684 2272 
L 4684 1741 
L 678 1741 
L 678 2272 
z
" transform="scale(0.015625)"/>
       </defs>
       <use xlink:href="#DejaVuSans-2212"/>
       <use xlink:href="#DejaVuSans-31" x="83.789062"/>
       <use xlink:href="#DejaVuSans-30" x="147.412109"/>
       <use xlink:href="#DejaVuSans-30" x="211.035156"/>
      </g>
     </g>
    </g>
    <g id="ytick_2">
     <g id="line2d_11">
      <g>
       <use xlink:href="#mf941fbf43e" x="57.6" y="270.88055" style="stroke: #000000; stroke-width: 0.8"/>
      </g>
     </g>
     <g id="text_12">
      <!-- 0 -->
      <g transform="translate(44.2375 274.679768)scale(0.1 -0.1)">
       <use xlink:href="#DejaVuSans-30"/>
      </g>
     </g>
    </g>
    <g id="ytick_3">
     <g id="line2d_12">
      <g>
       <use xlink:href="#mf941fbf43e" x="57.6" y="238.922822" style="stroke: #000000; stroke-width: 0.8"/>
      </g>
     </g>
     <g id="text_13">
      <!-- 100 -->
      <g transform="translate(31.5125 242.72204)scale(0.1 -0.1)">
       <use xlink:href="#DejaVuSans-31"/>
       <use xlink:href="#DejaVuSans-30" x="63.623047"/>
       <use xlink:href="#DejaVuSans-30" x="127.246094"/>
      </g>
     </g>
    </g>
    <g id="ytick_4">
     <g id="line2d_13">
      <g>
       <use xlink:href="#mf941fbf43e" x="57.6" y="206.965094" style="stroke: #000000; stroke-width: 0.8"/>
      </g>
     </g>
     <g id="text_14">
      <!-- 200 -->
      <g transform="translate(31.5125 210.764313)scale(0.1 -0.1)">
       <use xlink:href="#DejaVuSans-32"/>
       <use xlink:href="#DejaVuSans-30" x="63.623047"/>
       <use xlink:href="#DejaVuSans-30" x="127.246094"/>
      </g>
     </g>
    </g>
    <g id="ytick_5">
     <g id="line2d_14">
      <g>
       <use xlink:href="#mf941fbf43e" x="57.6" y="175.007366" style="stroke: #000000; stroke-width: 0.8"/>
      </g>
     </g>
     <g id="text_15">
      <!-- 300 -->
      <g transform="translate(31.5125 178.806585)scale(0.1 -0.1)">
       <defs>
        <path id="DejaVuSans-33" d="M 2597 2516 
Q 3050 2419 3304 2112 
Q 3559 1806 3559 1356 
Q 3559 666 3084 287 
Q 2609 -91 1734 -91 
Q 1441 -91 1130 -33 
Q 819 25 488 141 
L 488 750 
Q 750 597 1062 519 
Q 1375 441 1716 441 
Q 2309 441 2620 675 
Q 2931 909 2931 1356 
Q 2931 1769 2642 2001 
Q 2353 2234 1838 2234 
L 1294 2234 
L 1294 2753 
L 1863 2753 
Q 2328 2753 2575 2939 
Q 2822 3125 2822 3475 
Q 2822 3834 2567 4026 
Q 2313 4219 1838 4219 
Q 1578 4219 1281 4162 
Q 984 4106 628 3988 
L 628 4550 
Q 988 4650 1302 4700 
Q 1616 4750 1894 4750 
Q 2613 4750 3031 4423 
Q 3450 4097 3450 3541 
Q 3450 3153 3228 2886 
Q 3006 2619 2597 2516 
z
" transform="scale(0.015625)"/>
       </defs>
       <use xlink:href="#DejaVuSans-33"/>
       <use xlink:href="#DejaVuSans-30" x="63.623047"/>
       <use xlink:href="#DejaVuSans-30" x="127.246094"/>
      </g>
     </g>
    </g>
    <g id="ytick_6">
     <g id="line2d_15">
      <g>
       <use xlink:href="#mf941fbf43e" x="57.6" y="143.049638" style="stroke: #000000; stroke-width: 0.8"/>
      </g>
     </g>
     <g id="text_16">
      <!-- 400 -->
      <g transform="translate(31.5125 146.848857)scale(0.1 -0.1)">
       <defs>
        <path id="DejaVuSans-34" d="M 2419 4116 
L 825 1625 
L 2419 1625 
L 2419 4116 
z
M 2253 4666 
L 3047 4666 
L 3047 1625 
L 3713 1625 
L 3713 1100 
L 3047 1100 
L 3047 0 
L 2419 0 
L 2419 1100 
L 313 1100 
L 313 1709 
L 2253 4666 
z
" transform="scale(0.015625)"/>
       </defs>
       <use xlink:href="#DejaVuSans-34"/>
       <use xlink:href="#DejaVuSans-30" x="63.623047"/>
       <use xlink:href="#DejaVuSans-30" x="127.246094"/>
      </g>
     </g>
    </g>
    <g id="ytick_7">
     <g id="line2d_16">
      <g>
       <use xlink:href="#mf941fbf43e" x="57.6" y="111.09191" style="stroke: #000000; stroke-width: 0.8"/>
      </g>
     </g>
     <g id="text_17">
      <!-- 500 -->
      <g transform="translate(31.5125 114.891129)scale(0.1 -0.1)">
       <use xlink:href="#DejaVuSans-35"/>
       <use xlink:href="#DejaVuSans-30" x="63.623047"/>
       <use xlink:href="#DejaVuSans-30" x="127.246094"/>
      </g>
     </g>
    </g>
    <g id="ytick_8">
     <g id="line2d_17">
      <g>
       <use xlink:href="#mf941fbf43e" x="57.6" y="79.134182" style="stroke: #000000; stroke-width: 0.8"/>
      </g>
     </g>
     <g id="text_18">
      <!-- 600 -->
      <g transform="translate(31.5125 82.933401)scale(0.1 -0.1)">
       <defs>
        <path id="DejaVuSans-36" d="M 2113 2584 
Q 1688 2584 1439 2293 
Q 1191 2003 1191 1497 
Q 1191 994 1439 701 
Q 1688 409 2113 409 
Q 2538 409 2786 701 
Q 3034 994 3034 1497 
Q 3034 2003 2786 2293 
Q 2538 2584 2113 2584 
z
M 3366 4563 
L 3366 3988 
Q 3128 4100 2886 4159 
Q 2644 4219 2406 4219 
Q 1781 4219 1451 3797 
Q 1122 3375 1075 2522 
Q 1259 2794 1537 2939 
Q 1816 3084 2150 3084 
Q 2853 3084 3261 2657 
Q 3669 2231 3669 1497 
Q 3669 778 3244 343 
Q 2819 -91 2113 -91 
Q 1303 -91 875 529 
Q 447 1150 447 2328 
Q 447 3434 972 4092 
Q 1497 4750 2381 4750 
Q 2619 4750 2861 4703 
Q 3103 4656 3366 4563 
z
" transform="scale(0.015625)"/>
       </defs>
       <use xlink:href="#DejaVuSans-36"/>
       <use xlink:href="#DejaVuSans-30" x="63.623047"/>
       <use xlink:href="#DejaVuSans-30" x="127.246094"/>
      </g>
     </g>
    </g>
    <g id="ytick_9">
     <g id="line2d_18">
      <g>
       <use xlink:href="#mf941fbf43e" x="57.6" y="47.176454" style="stroke: #000000; stroke-width: 0.8"/>
      </g>
     </g>
     <g id="text_19">
      <!-- 700 -->
      <g transform="translate(31.5125 50.975673)scale(0.1 -0.1)">
       <use xlink:href="#DejaVuSans-37"/>
       <use xlink:href="#DejaVuSans-30" x="63.623047"/>
       <use xlink:href="#DejaVuSans-30" x="127.246094"/>
      </g>
     </g>
    </g>
    <g id="text_20">
     <!-- Reward Density -->
     <g transform="translate(17.053125 213.74675)rotate(-90)scale(0.1 -0.1)">
      <defs>
       <path id="DejaVuSans-52" d="M 2841 2188 
Q 3044 2119 3236 1894 
Q 3428 1669 3622 1275 
L 4263 0 
L 3584 0 
L 2988 1197 
Q 2756 1666 2539 1819 
Q 2322 1972 1947 1972 
L 1259 1972 
L 1259 0 
L 628 0 
L 628 4666 
L 2053 4666 
Q 2853 4666 3247 4331 
Q 3641 3997 3641 3322 
Q 3641 2881 3436 2590 
Q 3231 2300 2841 2188 
z
M 1259 4147 
L 1259 2491 
L 2053 2491 
Q 2509 2491 2742 2702 
Q 2975 2913 2975 3322 
Q 2975 3731 2742 3939 
Q 2509 4147 2053 4147 
L 1259 4147 
z
" transform="scale(0.015625)"/>
       <path id="DejaVuSans-77" d="M 269 3500 
L 844 3500 
L 1563 769 
L 2278 3500 
L 2956 3500 
L 3675 769 
L 4391 3500 
L 4966 3500 
L 4050 0 
L 3372 0 
L 2619 2869 
L 1863 0 
L 1184 0 
L 269 3500 
z
" transform="scale(0.015625)"/>
       <path id="DejaVuSans-44" d="M 1259 4147 
L 1259 519 
L 2022 519 
Q 2988 519 3436 956 
Q 3884 1394 3884 2338 
Q 3884 3275 3436 3711 
Q 2988 4147 2022 4147 
L 1259 4147 
z
M 628 4666 
L 1925 4666 
Q 3281 4666 3915 4102 
Q 4550 3538 4550 2338 
Q 4550 1131 3912 565 
Q 3275 0 1925 0 
L 628 0 
L 628 4666 
z
" transform="scale(0.015625)"/>
       <path id="DejaVuSans-74" d="M 1172 4494 
L 1172 3500 
L 2356 3500 
L 2356 3053 
L 1172 3053 
L 1172 1153 
Q 1172 725 1289 603 
Q 1406 481 1766 481 
L 2356 481 
L 2356 0 
L 1766 0 
Q 1100 0 847 248 
Q 594 497 594 1153 
L 594 3053 
L 172 3053 
L 172 3500 
L 594 3500 
L 594 4494 
L 1172 4494 
z
" transform="scale(0.015625)"/>
       <path id="DejaVuSans-79" d="M 2059 -325 
Q 1816 -950 1584 -1140 
Q 1353 -1331 966 -1331 
L 506 -1331 
L 506 -850 
L 844 -850 
Q 1081 -850 1212 -737 
Q 1344 -625 1503 -206 
L 1606 56 
L 191 3500 
L 800 3500 
L 1894 763 
L 2988 3500 
L 3597 3500 
L 2059 -325 
z
" transform="scale(0.015625)"/>
      </defs>
      <use xlink:href="#DejaVuSans-52"/>
      <use xlink:href="#DejaVuSans-65" x="64.982422"/>
      <use xlink:href="#DejaVuSans-77" x="126.505859"/>
      <use xlink:href="#DejaVuSans-61" x="208.292969"/>
      <use xlink:href="#DejaVuSans-72" x="269.572266"/>
      <use xlink:href="#DejaVuSans-64" x="308.935547"/>
      <use xlink:href="#DejaVuSans-20" x="372.412109"/>
      <use xlink:href="#DejaVuSans-44" x="404.199219"/>
      <use xlink:href="#DejaVuSans-65" x="481.201172"/>
      <use xlink:href="#DejaVuSans-6e" x="542.724609"/>
      <use xlink:href="#DejaVuSans-73" x="606.103516"/>
      <use xlink:href="#DejaVuSans-69" x="658.203125"/>
      <use xlink:href="#DejaVuSans-74" x="685.986328"/>
      <use xlink:href="#DejaVuSans-79" x="725.195312"/>
     </g>
    </g>
   </g>
   <g id="LineCollection_1">
    <path d="M 92.572407 155.341858 
L 130.051767 155.341858 
" clip-path="url(#pbf2dad85d1)" style="fill: none; stroke: #1f77b4; stroke-width: 1.5"/>
    <path d="M 175.859874 138.042501 
L 213.339234 138.042501 
" clip-path="url(#pbf2dad85d1)" style="fill: none; stroke: #1f77b4; stroke-width: 1.5"/>
    <path d="M 259.147341 134.460679 
L 296.626701 134.460679 
" clip-path="url(#pbf2dad85d1)" style="fill: none; stroke: #1f77b4; stroke-width: 1.5"/>
    <path d="M 342.268233 129.684916 
L 379.747593 129.684916 
" clip-path="url(#pbf2dad85d1)" style="fill: none; stroke: #1f77b4; stroke-width: 1.5"/>
   </g>
   <g id="LineCollection_2">
    <path d="M 92.572407 53.568 
L 130.051767 53.568 
" clip-path="url(#pbf2dad85d1)" style="fill: none; stroke: #1f77b4; stroke-width: 1.5"/>
    <path d="M 175.859874 75.618832 
L 213.339234 75.618832 
" clip-path="url(#pbf2dad85d1)" style="fill: none; stroke: #1f77b4; stroke-width: 1.5"/>
    <path d="M 259.147341 67.948978 
L 296.626701 67.948978 
" clip-path="url(#pbf2dad85d1)" style="fill: none; stroke: #1f77b4; stroke-width: 1.5"/>
    <path d="M 342.268233 59.320391 
L 379.747593 59.320391 
" clip-path="url(#pbf2dad85d1)" style="fill: none; stroke: #1f77b4; stroke-width: 1.5"/>
   </g>
   <g id="LineCollection_3">
    <path d="M 92.572407 295.488 
L 130.051767 295.488 
" clip-path="url(#pbf2dad85d1)" style="fill: none; stroke: #1f77b4; stroke-width: 1.5"/>
    <path d="M 175.859874 261.612808 
L 213.339234 261.612808 
" clip-path="url(#pbf2dad85d1)" style="fill: none; stroke: #1f77b4; stroke-width: 1.5"/>
    <path d="M 259.147341 228.057194 
L 296.626701 228.057194 
" clip-path="url(#pbf2dad85d1)" style="fill: none; stroke: #1f77b4; stroke-width: 1.5"/>
    <path d="M 342.268233 215.274103 
L 379.747593 215.274103 
" clip-path="url(#pbf2dad85d1)" style="fill: none; stroke: #1f77b4; stroke-width: 1.5"/>
   </g>
   <g id="LineCollection_4">
    <path d="M 111.312087 295.488 
L 111.312087 53.568 
" clip-path="url(#pbf2dad85d1)" style="fill: none; stroke: #1f77b4; stroke-width: 1.5"/>
    <path d="M 194.599554 261.612808 
L 194.599554 75.618832 
" clip-path="url(#pbf2dad85d1)" style="fill: none; stroke: #1f77b4; stroke-width: 1.5"/>
    <path d="M 277.887021 228.057194 
L 277.887021 67.948978 
" clip-path="url(#pbf2dad85d1)" style="fill: none; stroke: #1f77b4; stroke-width: 1.5"/>
    <path d="M 361.007913 215.274103 
L 361.007913 59.320391 
" clip-path="url(#pbf2dad85d1)" style="fill: none; stroke: #1f77b4; stroke-width: 1.5"/>
   </g>
   <g id="line2d_19">
    <path d="M 111.312087 155.341858 
L 194.599554 138.042501 
L 277.887021 134.460679 
L 361.007913 129.684916 
" clip-path="url(#pbf2dad85d1)" style="fill: none; stroke: #4682b4; stroke-width: 1.5; stroke-linecap: square"/>
   </g>
   <g id="patch_3">
    <path d="M 57.6 307.584 
L 57.6 41.472 
" style="fill: none; stroke: #000000; stroke-width: 0.8; stroke-linejoin: miter; stroke-linecap: square"/>
   </g>
   <g id="patch_4">
    <path d="M 414.72 307.584 
L 414.72 41.472 
" style="fill: none; stroke: #000000; stroke-width: 0.8; stroke-linejoin: miter; stroke-linecap: square"/>
   </g>
   <g id="patch_5">
    <path d="M 57.6 307.584 
L 414.72 307.584 
" style="fill: none; stroke: #000000; stroke-width: 0.8; stroke-linejoin: miter; stroke-linecap: square"/>
   </g>
   <g id="patch_6">
    <path d="M 57.6 41.472 
L 414.72 41.472 
" style="fill: none; stroke: #000000; stroke-width: 0.8; stroke-linejoin: miter; stroke-linecap: square"/>
   </g>
   <g id="text_21">
    <!-- Violinplot for progress of profits/by_selling_refurbished -->
    <g transform="translate(72.470625 35.472)scale(0.12 -0.12)">
     <defs>
      <path id="DejaVuSans-56" d="M 1831 0 
L 50 4666 
L 709 4666 
L 2188 738 
L 3669 4666 
L 4325 4666 
L 2547 0 
L 1831 0 
z
" transform="scale(0.015625)"/>
      <path id="DejaVuSans-6c" d="M 603 4863 
L 1178 4863 
L 1178 0 
L 603 0 
L 603 4863 
z
" transform="scale(0.015625)"/>
      <path id="DejaVuSans-66" d="M 2375 4863 
L 2375 4384 
L 1825 4384 
Q 1516 4384 1395 4259 
Q 1275 4134 1275 3809 
L 1275 3500 
L 2222 3500 
L 2222 3053 
L 1275 3053 
L 1275 0 
L 697 0 
L 697 3053 
L 147 3053 
L 147 3500 
L 697 3500 
L 697 3744 
Q 697 4328 969 4595 
Q 1241 4863 1831 4863 
L 2375 4863 
z
" transform="scale(0.015625)"/>
      <path id="DejaVuSans-67" d="M 2906 1791 
Q 2906 2416 2648 2759 
Q 2391 3103 1925 3103 
Q 1463 3103 1205 2759 
Q 947 2416 947 1791 
Q 947 1169 1205 825 
Q 1463 481 1925 481 
Q 2391 481 2648 825 
Q 2906 1169 2906 1791 
z
M 3481 434 
Q 3481 -459 3084 -895 
Q 2688 -1331 1869 -1331 
Q 1566 -1331 1297 -1286 
Q 1028 -1241 775 -1147 
L 775 -588 
Q 1028 -725 1275 -790 
Q 1522 -856 1778 -856 
Q 2344 -856 2625 -561 
Q 2906 -266 2906 331 
L 2906 616 
Q 2728 306 2450 153 
Q 2172 0 1784 0 
Q 1141 0 747 490 
Q 353 981 353 1791 
Q 353 2603 747 3093 
Q 1141 3584 1784 3584 
Q 2172 3584 2450 3431 
Q 2728 3278 2906 2969 
L 2906 3500 
L 3481 3500 
L 3481 434 
z
" transform="scale(0.015625)"/>
      <path id="DejaVuSans-2f" d="M 1625 4666 
L 2156 4666 
L 531 -594 
L 0 -594 
L 1625 4666 
z
" transform="scale(0.015625)"/>
      <path id="DejaVuSans-62" d="M 3116 1747 
Q 3116 2381 2855 2742 
Q 2594 3103 2138 3103 
Q 1681 3103 1420 2742 
Q 1159 2381 1159 1747 
Q 1159 1113 1420 752 
Q 1681 391 2138 391 
Q 2594 391 2855 752 
Q 3116 1113 3116 1747 
z
M 1159 2969 
Q 1341 3281 1617 3432 
Q 1894 3584 2278 3584 
Q 2916 3584 3314 3078 
Q 3713 2572 3713 1747 
Q 3713 922 3314 415 
Q 2916 -91 2278 -91 
Q 1894 -91 1617 61 
Q 1341 213 1159 525 
L 1159 0 
L 581 0 
L 581 4863 
L 1159 4863 
L 1159 2969 
z
" transform="scale(0.015625)"/>
      <path id="DejaVuSans-5f" d="M 3263 -1063 
L 3263 -1509 
L -63 -1509 
L -63 -1063 
L 3263 -1063 
z
" transform="scale(0.015625)"/>
      <path id="DejaVuSans-75" d="M 544 1381 
L 544 3500 
L 1119 3500 
L 1119 1403 
Q 1119 906 1312 657 
Q 1506 409 1894 409 
Q 2359 409 2629 706 
Q 2900 1003 2900 1516 
L 2900 3500 
L 3475 3500 
L 3475 0 
L 2900 0 
L 2900 538 
Q 2691 219 2414 64 
Q 2138 -91 1772 -91 
Q 1169 -91 856 284 
Q 544 659 544 1381 
z
M 1991 3584 
L 1991 3584 
z
" transform="scale(0.015625)"/>
      <path id="DejaVuSans-68" d="M 3513 2113 
L 3513 0 
L 2938 0 
L 2938 2094 
Q 2938 2591 2744 2837 
Q 2550 3084 2163 3084 
Q 1697 3084 1428 2787 
Q 1159 2491 1159 1978 
L 1159 0 
L 581 0 
L 581 4863 
L 1159 4863 
L 1159 2956 
Q 1366 3272 1645 3428 
Q 1925 3584 2291 3584 
Q 2894 3584 3203 3211 
Q 3513 2838 3513 2113 
z
" transform="scale(0.015625)"/>
     </defs>
     <use xlink:href="#DejaVuSans-56"/>
     <use xlink:href="#DejaVuSans-69" x="66.158203"/>
     <use xlink:href="#DejaVuSans-6f" x="93.941406"/>
     <use xlink:href="#DejaVuSans-6c" x="155.123047"/>
     <use xlink:href="#DejaVuSans-69" x="182.90625"/>
     <use xlink:href="#DejaVuSans-6e" x="210.689453"/>
     <use xlink:href="#DejaVuSans-70" x="274.068359"/>
     <use xlink:href="#DejaVuSans-6c" x="337.544922"/>
     <use xlink:href="#DejaVuSans-6f" x="365.328125"/>
     <use xlink:href="#DejaVuSans-74" x="426.509766"/>
     <use xlink:href="#DejaVuSans-20" x="465.71875"/>
     <use xlink:href="#DejaVuSans-66" x="497.505859"/>
     <use xlink:href="#DejaVuSans-6f" x="532.710938"/>
     <use xlink:href="#DejaVuSans-72" x="593.892578"/>
     <use xlink:href="#DejaVuSans-20" x="635.005859"/>
     <use xlink:href="#DejaVuSans-70" x="666.792969"/>
     <use xlink:href="#DejaVuSans-72" x="730.269531"/>
     <use xlink:href="#DejaVuSans-6f" x="769.132812"/>
     <use xlink:href="#DejaVuSans-67" x="830.314453"/>
     <use xlink:href="#DejaVuSans-72" x="893.791016"/>
     <use xlink:href="#DejaVuSans-65" x="932.654297"/>
     <use xlink:href="#DejaVuSans-73" x="994.177734"/>
     <use xlink:href="#DejaVuSans-73" x="1046.277344"/>
     <use xlink:href="#DejaVuSans-20" x="1098.376953"/>
     <use xlink:href="#DejaVuSans-6f" x="1130.164062"/>
     <use xlink:href="#DejaVuSans-66" x="1191.345703"/>
     <use xlink:href="#DejaVuSans-20" x="1226.550781"/>
     <use xlink:href="#DejaVuSans-70" x="1258.337891"/>
     <use xlink:href="#DejaVuSans-72" x="1321.814453"/>
     <use xlink:href="#DejaVuSans-6f" x="1360.677734"/>
     <use xlink:href="#DejaVuSans-66" x="1421.859375"/>
     <use xlink:href="#DejaVuSans-69" x="1457.064453"/>
     <use xlink:href="#DejaVuSans-74" x="1484.847656"/>
     <use xlink:href="#DejaVuSans-73" x="1524.056641"/>
     <use xlink:href="#DejaVuSans-2f" x="1576.15625"/>
     <use xlink:href="#DejaVuSans-62" x="1609.847656"/>
     <use xlink:href="#DejaVuSans-79" x="1673.324219"/>
     <use xlink:href="#DejaVuSans-5f" x="1732.503906"/>
     <use xlink:href="#DejaVuSans-73" x="1782.503906"/>
     <use xlink:href="#DejaVuSans-65" x="1834.603516"/>
     <use xlink:href="#DejaVuSans-6c" x="1896.126953"/>
     <use xlink:href="#DejaVuSans-6c" x="1923.910156"/>
     <use xlink:href="#DejaVuSans-69" x="1951.693359"/>
     <use xlink:href="#DejaVuSans-6e" x="1979.476562"/>
     <use xlink:href="#DejaVuSans-67" x="2042.855469"/>
     <use xlink:href="#DejaVuSans-5f" x="2106.332031"/>
     <use xlink:href="#DejaVuSans-72" x="2156.332031"/>
     <use xlink:href="#DejaVuSans-65" x="2195.195312"/>
     <use xlink:href="#DejaVuSans-66" x="2256.71875"/>
     <use xlink:href="#DejaVuSans-75" x="2291.923828"/>
     <use xlink:href="#DejaVuSans-72" x="2355.302734"/>
     <use xlink:href="#DejaVuSans-62" x="2396.416016"/>
     <use xlink:href="#DejaVuSans-69" x="2459.892578"/>
     <use xlink:href="#DejaVuSans-73" x="2487.675781"/>
     <use xlink:href="#DejaVuSans-68" x="2539.775391"/>
     <use xlink:href="#DejaVuSans-65" x="2603.154297"/>
     <use xlink:href="#DejaVuSans-64" x="2664.677734"/>
    </g>
   </g>
   <g id="legend_1">
    <g id="patch_7">
     <path d="M 284.430938 64.150125 
L 407.72 64.150125 
Q 409.72 64.150125 409.72 62.150125 
L 409.72 48.472 
Q 409.72 46.472 407.72 46.472 
L 284.430938 46.472 
Q 282.430938 46.472 282.430938 48.472 
L 282.430938 62.150125 
Q 282.430938 64.150125 284.430938 64.150125 
z
" style="fill: #ffffff; opacity: 0.8; stroke: #cccccc; stroke-linejoin: miter"/>
    </g>
    <g id="line2d_20">
     <path d="M 286.430938 54.570438 
L 296.430938 54.570438 
L 306.430938 54.570438 
" style="fill: none; stroke: #4682b4; stroke-width: 1.5; stroke-linecap: square"/>
    </g>
    <g id="text_22">
     <!-- Storage-Minimizer -->
     <g transform="translate(314.430938 58.070438)scale(0.1 -0.1)">
      <defs>
       <path id="DejaVuSans-53" d="M 3425 4513 
L 3425 3897 
Q 3066 4069 2747 4153 
Q 2428 4238 2131 4238 
Q 1616 4238 1336 4038 
Q 1056 3838 1056 3469 
Q 1056 3159 1242 3001 
Q 1428 2844 1947 2747 
L 2328 2669 
Q 3034 2534 3370 2195 
Q 3706 1856 3706 1288 
Q 3706 609 3251 259 
Q 2797 -91 1919 -91 
Q 1588 -91 1214 -16 
Q 841 59 441 206 
L 441 856 
Q 825 641 1194 531 
Q 1563 422 1919 422 
Q 2459 422 2753 634 
Q 3047 847 3047 1241 
Q 3047 1584 2836 1778 
Q 2625 1972 2144 2069 
L 1759 2144 
Q 1053 2284 737 2584 
Q 422 2884 422 3419 
Q 422 4038 858 4394 
Q 1294 4750 2059 4750 
Q 2388 4750 2728 4690 
Q 3069 4631 3425 4513 
z
" transform="scale(0.015625)"/>
       <path id="DejaVuSans-2d" d="M 313 2009 
L 1997 2009 
L 1997 1497 
L 313 1497 
L 313 2009 
z
" transform="scale(0.015625)"/>
       <path id="DejaVuSans-4d" d="M 628 4666 
L 1569 4666 
L 2759 1491 
L 3956 4666 
L 4897 4666 
L 4897 0 
L 4281 0 
L 4281 4097 
L 3078 897 
L 2444 897 
L 1241 4097 
L 1241 0 
L 628 0 
L 628 4666 
z
" transform="scale(0.015625)"/>
       <path id="DejaVuSans-6d" d="M 3328 2828 
Q 3544 3216 3844 3400 
Q 4144 3584 4550 3584 
Q 5097 3584 5394 3201 
Q 5691 2819 5691 2113 
L 5691 0 
L 5113 0 
L 5113 2094 
Q 5113 2597 4934 2840 
Q 4756 3084 4391 3084 
Q 3944 3084 3684 2787 
Q 3425 2491 3425 1978 
L 3425 0 
L 2847 0 
L 2847 2094 
Q 2847 2600 2669 2842 
Q 2491 3084 2119 3084 
Q 1678 3084 1418 2786 
Q 1159 2488 1159 1978 
L 1159 0 
L 581 0 
L 581 3500 
L 1159 3500 
L 1159 2956 
Q 1356 3278 1631 3431 
Q 1906 3584 2284 3584 
Q 2666 3584 2933 3390 
Q 3200 3197 3328 2828 
z
" transform="scale(0.015625)"/>
       <path id="DejaVuSans-7a" d="M 353 3500 
L 3084 3500 
L 3084 2975 
L 922 459 
L 3084 459 
L 3084 0 
L 275 0 
L 275 525 
L 2438 3041 
L 353 3041 
L 353 3500 
z
" transform="scale(0.015625)"/>
      </defs>
      <use xlink:href="#DejaVuSans-53"/>
      <use xlink:href="#DejaVuSans-74" x="63.476562"/>
      <use xlink:href="#DejaVuSans-6f" x="102.685547"/>
      <use xlink:href="#DejaVuSans-72" x="163.867188"/>
      <use xlink:href="#DejaVuSans-61" x="204.980469"/>
      <use xlink:href="#DejaVuSans-67" x="266.259766"/>
      <use xlink:href="#DejaVuSans-65" x="329.736328"/>
      <use xlink:href="#DejaVuSans-2d" x="391.259766"/>
      <use xlink:href="#DejaVuSans-4d" x="427.34375"/>
      <use xlink:href="#DejaVuSans-69" x="513.623047"/>
      <use xlink:href="#DejaVuSans-6e" x="541.40625"/>
      <use xlink:href="#DejaVuSans-69" x="604.785156"/>
      <use xlink:href="#DejaVuSans-6d" x="632.568359"/>
      <use xlink:href="#DejaVuSans-69" x="729.980469"/>
      <use xlink:href="#DejaVuSans-7a" x="757.763672"/>
      <use xlink:href="#DejaVuSans-65" x="810.253906"/>
      <use xlink:href="#DejaVuSans-72" x="871.777344"/>
     </g>
    </g>
   </g>
  </g>
 </g>
 <defs>
  <clipPath id="pbf2dad85d1">
   <rect x="57.6" y="41.472" width="357.12" height="266.112"/>
  </clipPath>
 </defs>
</svg>
