<?xml version="1.0" encoding="utf-8" standalone="no"?>
<!DOCTYPE svg PUBLIC "-//W3C//DTD SVG 1.1//EN"
  "http://www.w3.org/Graphics/SVG/1.1/DTD/svg11.dtd">
<svg xmlns:xlink="http://www.w3.org/1999/xlink" width="460.8pt" height="345.6pt" viewBox="0 0 460.8 345.6" xmlns="http://www.w3.org/2000/svg" version="1.1">
 <metadata>
  <rdf:RDF xmlns:dc="http://purl.org/dc/elements/1.1/" xmlns:cc="http://creativecommons.org/ns#" xmlns:rdf="http://www.w3.org/1999/02/22-rdf-syntax-ns#">
   <cc:Work>
    <dc:type rdf:resource="http://purl.org/dc/dcmitype/StillImage"/>
    <dc:date>2022-06-15T18:26:48.935414</dc:date>
    <dc:format>image/svg+xml</dc:format>
    <dc:creator>
     <cc:Agent>
      <dc:title>Matplotlib v3.5.2, https://matplotlib.org/</dc:title>
     </cc:Agent>
    </dc:creator>
   </cc:Work>
  </rdf:RDF>
 </metadata>
 <defs>
  <style type="text/css">*{stroke-linejoin: round; stroke-linecap: butt}</style>
 </defs>
 <g id="figure_1">
  <g id="patch_1">
   <path d="M 0 345.6 
L 460.8 345.6 
L 460.8 0 
L 0 0 
z
" style="fill: #ffffff"/>
  </g>
  <g id="axes_1">
   <g id="patch_2">
    <path d="M 57.6 307.584 
L 414.72 307.584 
L 414.72 41.472 
L 57.6 41.472 
z
" style="fill: #ffffff"/>
   </g>
   <g id="PolyCollection_1">
    <path d="M 119.372171 295.488 
L 103.252004 295.488 
L 101.918344 294.101706 
L 100.487768 292.715413 
L 98.971857 291.329119 
L 97.383378 289.942825 
L 95.735729 288.556531 
L 94.042569 287.170238 
L 92.317703 285.783944 
L 90.575221 284.39765 
L 88.829851 283.011357 
L 87.097404 281.625063 
L 85.395181 280.238769 
L 83.742163 278.852476 
L 82.158875 277.466182 
L 80.666819 276.079888 
L 79.287492 274.693594 
L 78.041072 273.307301 
L 76.944909 271.921007 
L 76.012055 270.534713 
L 75.250042 269.14842 
L 74.660106 267.762126 
L 74.237008 266.375832 
L 73.969484 264.989538 
L 73.841293 263.603245 
L 73.832727 262.216951 
L 73.922371 260.830657 
L 74.08889 259.444364 
L 74.312617 258.05807 
L 74.576749 256.671776 
L 74.868038 255.285483 
L 75.176957 253.899189 
L 75.497372 252.512895 
L 75.825842 251.126601 
L 76.1607 249.740308 
L 76.501089 248.354014 
L 76.846094 246.96772 
L 77.194101 245.581427 
L 77.542436 244.195133 
L 77.887318 242.808839 
L 78.224095 241.422545 
L 78.547703 240.036252 
L 78.853269 238.649958 
L 79.136786 237.263664 
L 79.395778 235.877371 
L 79.629886 234.491077 
L 79.841327 233.104783 
L 80.035186 231.71849 
L 80.219495 230.332196 
L 80.4051 228.945902 
L 80.605265 227.559608 
L 80.835051 226.173315 
L 81.110456 224.787021 
L 81.447374 223.400727 
L 81.860438 222.014434 
L 82.361832 220.62814 
L 82.960198 219.241846 
L 83.659742 217.855552 
L 84.459649 216.469259 
L 85.353882 215.082965 
L 86.331415 213.696671 
L 87.376871 212.310378 
L 88.471517 210.924084 
L 89.594515 209.53779 
L 90.724295 208.151497 
L 91.839941 206.765203 
L 92.922445 205.378909 
L 93.955753 203.992615 
L 94.927547 202.606322 
L 95.829718 201.220028 
L 96.658548 199.833734 
L 97.414607 198.447441 
L 98.102398 197.061147 
L 98.729788 195.674853 
L 99.307252 194.288559 
L 99.846984 192.902266 
L 100.36192 191.515972 
L 100.864738 190.129678 
L 101.366909 188.743385 
L 101.87786 187.357091 
L 102.404341 185.970797 
L 102.950019 184.584503 
L 103.515351 183.19821 
L 104.097725 181.811916 
L 104.691842 180.425622 
L 105.290297 179.039329 
L 105.884275 177.653035 
L 106.464316 176.266741 
L 107.021062 174.880448 
L 107.545946 173.494154 
L 108.031758 172.10786 
L 108.473079 170.721566 
L 108.866544 169.335273 
L 109.210941 167.948979 
L 109.507138 166.562685 
L 109.757861 165.176392 
L 109.967347 163.790098 
L 110.140901 162.403804 
L 110.284408 161.01751 
L 110.40385 159.631217 
L 110.504862 158.244923 
L 112.119312 158.244923 
L 112.119312 158.244923 
L 112.220325 159.631217 
L 112.339766 161.01751 
L 112.483274 162.403804 
L 112.656827 163.790098 
L 112.866313 165.176392 
L 113.117037 166.562685 
L 113.413233 167.948979 
L 113.75763 169.335273 
L 114.151096 170.721566 
L 114.592417 172.10786 
L 115.078229 173.494154 
L 115.603113 174.880448 
L 116.159859 176.266741 
L 116.739899 177.653035 
L 117.333877 179.039329 
L 117.932332 180.425622 
L 118.52645 181.811916 
L 119.108824 183.19821 
L 119.674156 184.584503 
L 120.219833 185.970797 
L 120.746315 187.357091 
L 121.257266 188.743385 
L 121.759436 190.129678 
L 122.262255 191.515972 
L 122.777191 192.902266 
L 123.316923 194.288559 
L 123.894387 195.674853 
L 124.521777 197.061147 
L 125.209568 198.447441 
L 125.965626 199.833734 
L 126.794456 201.220028 
L 127.696627 202.606322 
L 128.668421 203.992615 
L 129.70173 205.378909 
L 130.784233 206.765203 
L 131.89988 208.151497 
L 133.02966 209.53779 
L 134.152657 210.924084 
L 135.247304 212.310378 
L 136.29276 213.696671 
L 137.270293 215.082965 
L 138.164526 216.469259 
L 138.964432 217.855552 
L 139.663977 219.241846 
L 140.262343 220.62814 
L 140.763737 222.014434 
L 141.1768 223.400727 
L 141.513719 224.787021 
L 141.789124 226.173315 
L 142.01891 227.559608 
L 142.219075 228.945902 
L 142.404679 230.332196 
L 142.588989 231.71849 
L 142.782848 233.104783 
L 142.994289 234.491077 
L 143.228397 235.877371 
L 143.487389 237.263664 
L 143.770906 238.649958 
L 144.076472 240.036252 
L 144.400079 241.422545 
L 144.736857 242.808839 
L 145.081739 244.195133 
L 145.430073 245.581427 
L 145.77808 246.96772 
L 146.123086 248.354014 
L 146.463475 249.740308 
L 146.798333 251.126601 
L 147.126802 252.512895 
L 147.447218 253.899189 
L 147.756137 255.285483 
L 148.047426 256.671776 
L 148.311557 258.05807 
L 148.535285 259.444364 
L 148.701804 260.830657 
L 148.791447 262.216951 
L 148.782881 263.603245 
L 148.654691 264.989538 
L 148.387166 266.375832 
L 147.964069 267.762126 
L 147.374133 269.14842 
L 146.61212 270.534713 
L 145.679266 271.921007 
L 144.583102 273.307301 
L 143.336682 274.693594 
L 141.957356 276.079888 
L 140.465299 277.466182 
L 138.882011 278.852476 
L 137.228994 280.238769 
L 135.526771 281.625063 
L 133.794324 283.011357 
L 132.048953 284.39765 
L 130.306472 285.783944 
L 128.581606 287.170238 
L 126.888446 288.556531 
L 125.240796 289.942825 
L 123.652317 291.329119 
L 122.136406 292.715413 
L 120.70583 294.101706 
L 119.372171 295.488 
z
" clip-path="url(#pfdbe1cafb4)" style="fill: #1f77b4; fill-opacity: 0.3"/>
   </g>
   <g id="PolyCollection_2">
    <path d="M 205.086656 255.943385 
L 184.112453 255.943385 
L 182.429085 253.899189 
L 180.662184 251.854993 
L 178.842043 249.810797 
L 177.001089 247.766601 
L 175.171605 245.722406 
L 173.383406 243.67821 
L 171.661759 241.634014 
L 170.025847 239.589818 
L 168.487969 237.545622 
L 167.053629 235.501427 
L 165.722482 233.457231 
L 164.490001 231.413035 
L 163.349618 229.368839 
L 162.29498 227.324643 
L 161.321964 225.280448 
L 160.430132 223.236252 
L 159.623381 221.192056 
L 158.909698 219.14786 
L 158.300058 217.103664 
L 157.806667 215.059469 
L 157.440843 213.015273 
L 157.210871 210.971077 
L 157.120194 208.926881 
L 157.16619 206.882685 
L 157.33973 204.83849 
L 157.625552 202.794294 
L 158.003376 200.750098 
L 158.449591 198.705902 
L 158.93928 196.661706 
L 159.448323 194.61751 
L 159.955339 192.573315 
L 160.443261 190.529119 
L 160.900402 188.484923 
L 161.320942 186.440727 
L 161.704808 184.396531 
L 162.057011 182.352336 
L 162.386522 180.30814 
L 162.704847 178.263944 
L 163.024462 176.219748 
L 163.357281 174.175552 
L 163.713341 172.131357 
L 164.099831 170.087161 
L 164.520533 168.042965 
L 164.975713 165.998769 
L 165.462392 163.954573 
L 165.974906 161.910378 
L 166.505619 159.866182 
L 167.04568 157.821986 
L 167.585696 155.77779 
L 168.116311 153.733594 
L 168.628668 151.689399 
L 169.114806 149.645203 
L 169.568076 147.601007 
L 169.983599 145.556811 
L 170.35883 143.512615 
L 170.694163 141.46842 
L 170.993525 139.424224 
L 171.264817 137.380028 
L 171.520084 135.335832 
L 171.775267 133.291636 
L 172.049487 131.247441 
L 172.363834 129.203245 
L 172.739736 127.159049 
L 173.197073 125.114853 
L 173.752221 123.070657 
L 174.416287 121.026462 
L 175.193761 118.982266 
L 176.081775 116.93807 
L 177.070095 114.893874 
L 178.141864 112.849678 
L 179.275017 110.805483 
L 180.444208 108.761287 
L 181.622997 106.717091 
L 182.786034 104.672895 
L 183.910975 102.628699 
L 184.979917 100.584503 
L 185.98021 98.540308 
L 186.904607 96.496112 
L 187.750806 94.451916 
L 188.520517 92.40772 
L 189.218246 90.363524 
L 189.849995 88.319329 
L 190.422085 86.275133 
L 190.940233 84.230937 
L 191.408982 82.186741 
L 191.831507 80.142545 
L 192.209737 78.09835 
L 192.54474 76.054154 
L 192.83722 74.009958 
L 193.088051 71.965762 
L 193.298722 69.921566 
L 193.471637 67.877371 
L 193.610229 65.833175 
L 193.718884 63.788979 
L 193.802718 61.744783 
L 193.867224 59.700587 
L 193.917888 57.656392 
L 193.959799 55.612196 
L 193.99732 53.568 
L 195.201789 53.568 
L 195.201789 53.568 
L 195.23931 55.612196 
L 195.28122 57.656392 
L 195.331885 59.700587 
L 195.396391 61.744783 
L 195.480224 63.788979 
L 195.58888 65.833175 
L 195.727471 67.877371 
L 195.900386 69.921566 
L 196.111057 71.965762 
L 196.361888 74.009958 
L 196.654368 76.054154 
L 196.989371 78.09835 
L 197.367602 80.142545 
L 197.790126 82.186741 
L 198.258875 84.230937 
L 198.777023 86.275133 
L 199.349113 88.319329 
L 199.980862 90.363524 
L 200.678591 92.40772 
L 201.448302 94.451916 
L 202.294501 96.496112 
L 203.218898 98.540308 
L 204.219191 100.584503 
L 205.288133 102.628699 
L 206.413074 104.672895 
L 207.576111 106.717091 
L 208.7549 108.761287 
L 209.924091 110.805483 
L 211.057245 112.849678 
L 212.129013 114.893874 
L 213.117333 116.93807 
L 214.005347 118.982266 
L 214.782821 121.026462 
L 215.446887 123.070657 
L 216.002035 125.114853 
L 216.459372 127.159049 
L 216.835274 129.203245 
L 217.149621 131.247441 
L 217.423842 133.291636 
L 217.679025 135.335832 
L 217.934291 137.380028 
L 218.205584 139.424224 
L 218.504945 141.46842 
L 218.840278 143.512615 
L 219.215509 145.556811 
L 219.631033 147.601007 
L 220.084302 149.645203 
L 220.570441 151.689399 
L 221.082797 153.733594 
L 221.613412 155.77779 
L 222.153428 157.821986 
L 222.693489 159.866182 
L 223.224203 161.910378 
L 223.736716 163.954573 
L 224.223395 165.998769 
L 224.678575 168.042965 
L 225.099277 170.087161 
L 225.485767 172.131357 
L 225.841828 174.175552 
L 226.174646 176.219748 
L 226.494261 178.263944 
L 226.812586 180.30814 
L 227.142097 182.352336 
L 227.4943 184.396531 
L 227.878166 186.440727 
L 228.298706 188.484923 
L 228.755848 190.529119 
L 229.243769 192.573315 
L 229.750785 194.61751 
L 230.259828 196.661706 
L 230.749517 198.705902 
L 231.195732 200.750098 
L 231.573556 202.794294 
L 231.859379 204.83849 
L 232.032919 206.882685 
L 232.078914 208.926881 
L 231.988237 210.971077 
L 231.758265 213.015273 
L 231.392441 215.059469 
L 230.89905 217.103664 
L 230.28941 219.14786 
L 229.575727 221.192056 
L 228.768976 223.236252 
L 227.877144 225.280448 
L 226.904128 227.324643 
L 225.84949 229.368839 
L 224.709108 231.413035 
L 223.476627 233.457231 
L 222.145479 235.501427 
L 220.711139 237.545622 
L 219.173262 239.589818 
L 217.537349 241.634014 
L 215.815703 243.67821 
L 214.027503 245.722406 
L 212.198019 247.766601 
L 210.357065 249.810797 
L 208.536924 251.854993 
L 206.770023 253.899189 
L 205.086656 255.943385 
z
" clip-path="url(#pfdbe1cafb4)" style="fill: #1f77b4; fill-opacity: 0.3"/>
   </g>
   <g id="PolyCollection_3">
    <path d="M 281.978951 273.389538 
L 273.795091 273.389538 
L 272.988693 271.333594 
L 272.086819 269.27765 
L 271.091807 267.221706 
L 270.009078 265.165762 
L 268.847123 263.109818 
L 267.61717 261.053874 
L 266.332518 258.99793 
L 265.007558 256.941986 
L 263.656584 254.886042 
L 262.292554 252.830098 
L 260.925969 250.774154 
L 259.564091 248.71821 
L 258.210639 246.662266 
L 256.866068 244.606322 
L 255.528428 242.550378 
L 254.194707 240.494434 
L 252.862472 238.43849 
L 251.53156 236.382545 
L 250.205554 234.326601 
L 248.892795 232.270657 
L 247.606734 230.214713 
L 246.365539 228.158769 
L 245.190949 226.102825 
L 244.106493 224.046881 
L 243.135289 221.990937 
L 242.297699 219.934993 
L 241.60916 217.879049 
L 241.078481 215.823105 
L 240.706859 213.767161 
L 240.487758 211.711217 
L 240.407661 209.655273 
L 240.447583 207.599329 
L 240.585132 205.543385 
L 240.796795 203.487441 
L 241.060158 201.431497 
L 241.355745 199.375552 
L 241.668293 197.319608 
L 241.987347 195.263664 
L 242.307193 193.20772 
L 242.626245 191.151776 
L 242.946031 189.095832 
L 243.269995 187.039888 
L 243.602283 184.983944 
L 243.946669 182.928 
L 244.30573 180.872056 
L 244.680311 178.816112 
L 245.069317 176.760168 
L 245.469817 174.704224 
L 245.877412 172.64828 
L 246.286855 170.592336 
L 246.692838 168.536392 
L 247.090901 166.480448 
L 247.478368 164.424503 
L 247.855228 162.368559 
L 248.224845 160.312615 
L 248.594401 158.256671 
L 248.974967 156.200727 
L 249.381126 154.144783 
L 249.830129 152.088839 
L 250.340582 150.032895 
L 250.930779 147.976951 
L 251.616821 145.921007 
L 252.410726 143.865063 
L 253.318788 141.809119 
L 254.340403 139.753175 
L 255.467567 137.697231 
L 256.685149 135.641287 
L 257.971939 133.585343 
L 259.302359 131.529399 
L 260.648616 129.473455 
L 261.983023 127.41751 
L 263.280175 125.361566 
L 264.518732 123.305622 
L 265.6826 121.249678 
L 266.761452 119.193734 
L 267.750589 117.13779 
L 268.650272 115.081846 
L 269.464675 113.025902 
L 270.200675 110.969958 
L 270.866638 108.914014 
L 271.471358 106.85807 
L 272.02322 104.802126 
L 272.529636 102.746182 
L 272.996747 100.690238 
L 273.429343 98.634294 
L 273.830947 96.57835 
L 274.204015 94.522406 
L 274.550189 92.466462 
L 274.870563 90.410517 
L 275.165938 88.354573 
L 275.437046 86.298629 
L 275.684719 84.242685 
L 275.910019 82.186741 
L 276.114301 80.130797 
L 276.299226 78.074853 
L 276.466704 76.018909 
L 276.618801 73.962965 
L 276.757596 71.907021 
L 276.885032 69.851077 
L 278.88901 69.851077 
L 278.88901 69.851077 
L 279.016446 71.907021 
L 279.155241 73.962965 
L 279.307337 76.018909 
L 279.474816 78.074853 
L 279.65974 80.130797 
L 279.864023 82.186741 
L 280.089323 84.242685 
L 280.336996 86.298629 
L 280.608103 88.354573 
L 280.903479 90.410517 
L 281.223853 92.466462 
L 281.570027 94.522406 
L 281.943095 96.57835 
L 282.344699 98.634294 
L 282.777295 100.690238 
L 283.244406 102.746182 
L 283.750822 104.802126 
L 284.302683 106.85807 
L 284.907404 108.914014 
L 285.573367 110.969958 
L 286.309367 113.025902 
L 287.12377 115.081846 
L 288.023452 117.13779 
L 289.01259 119.193734 
L 290.091442 121.249678 
L 291.25531 123.305622 
L 292.493866 125.361566 
L 293.791019 127.41751 
L 295.125426 129.473455 
L 296.471683 131.529399 
L 297.802102 133.585343 
L 299.088892 135.641287 
L 300.306474 137.697231 
L 301.433639 139.753175 
L 302.455254 141.809119 
L 303.363315 143.865063 
L 304.157221 145.921007 
L 304.843262 147.976951 
L 305.43346 150.032895 
L 305.943913 152.088839 
L 306.392915 154.144783 
L 306.799075 156.200727 
L 307.179641 158.256671 
L 307.549197 160.312615 
L 307.918814 162.368559 
L 308.295674 164.424503 
L 308.683141 166.480448 
L 309.081204 168.536392 
L 309.487187 170.592336 
L 309.896629 172.64828 
L 310.304225 174.704224 
L 310.704724 176.760168 
L 311.093731 178.816112 
L 311.468312 180.872056 
L 311.827372 182.928 
L 312.171759 184.983944 
L 312.504047 187.039888 
L 312.828011 189.095832 
L 313.147797 191.151776 
L 313.466849 193.20772 
L 313.786695 195.263664 
L 314.105748 197.319608 
L 314.418296 199.375552 
L 314.713884 201.431497 
L 314.977247 203.487441 
L 315.18891 205.543385 
L 315.326458 207.599329 
L 315.366381 209.655273 
L 315.286284 211.711217 
L 315.067183 213.767161 
L 314.695561 215.823105 
L 314.164881 217.879049 
L 313.476342 219.934993 
L 312.638753 221.990937 
L 311.667549 224.046881 
L 310.583092 226.102825 
L 309.408502 228.158769 
L 308.167308 230.214713 
L 306.881247 232.270657 
L 305.568487 234.326601 
L 304.242482 236.382545 
L 302.91157 238.43849 
L 301.579334 240.494434 
L 300.245613 242.550378 
L 298.907973 244.606322 
L 297.563402 246.662266 
L 296.20995 248.71821 
L 294.848073 250.774154 
L 293.481488 252.830098 
L 292.117457 254.886042 
L 290.766484 256.941986 
L 289.441523 258.99793 
L 288.156871 261.053874 
L 286.926919 263.109818 
L 285.764963 265.165762 
L 284.682234 267.221706 
L 283.687223 269.27765 
L 282.785349 271.333594 
L 281.978951 273.389538 
z
" clip-path="url(#pfdbe1cafb4)" style="fill: #1f77b4; fill-opacity: 0.3"/>
   </g>
   <g id="PolyCollection_4">
    <path d="M 369.303287 262.921846 
L 352.712538 262.921846 
L 351.623636 261.042126 
L 350.475836 259.162406 
L 349.276707 257.282685 
L 348.034604 255.402965 
L 346.758413 253.523245 
L 345.457279 251.643524 
L 344.140314 249.763804 
L 342.816324 247.884084 
L 341.493551 246.004364 
L 340.179471 244.124643 
L 338.880655 242.244923 
L 337.602728 240.365203 
L 336.350432 238.485483 
L 335.12779 236.605762 
L 333.938371 234.726042 
L 332.785623 232.846322 
L 331.673238 230.966601 
L 330.605489 229.086881 
L 329.587496 227.207161 
L 328.625357 225.327441 
L 327.726103 223.44772 
L 326.897467 221.568 
L 326.147452 219.68828 
L 325.48374 217.808559 
L 324.912997 215.928839 
L 324.440154 214.049119 
L 324.067751 212.169399 
L 323.795438 210.289678 
L 323.619708 208.409958 
L 323.533907 206.530238 
L 323.528553 204.650517 
L 323.59192 202.770797 
L 323.710849 200.891077 
L 323.87168 199.011357 
L 324.061201 197.131636 
L 324.267516 195.251916 
L 324.480708 193.372196 
L 324.693251 191.492476 
L 324.90012 189.612755 
L 325.098602 187.733035 
L 325.287872 185.853315 
L 325.468393 183.973594 
L 325.641242 182.093874 
L 325.807479 180.214154 
L 325.967635 178.334434 
L 326.121404 176.454713 
L 326.26758 174.574993 
L 326.404229 172.695273 
L 326.529079 170.815552 
L 326.640058 168.935832 
L 326.735898 167.056112 
L 326.816712 165.176392 
L 326.88446 163.296671 
L 326.943235 161.416951 
L 326.99932 159.537231 
L 327.061015 157.65751 
L 327.138239 155.77779 
L 327.241963 153.89807 
L 327.383544 152.01835 
L 327.574031 150.138629 
L 327.823518 148.258909 
L 328.140606 146.379189 
L 328.532014 144.499469 
L 329.002345 142.619748 
L 329.554003 140.740028 
L 330.187232 138.860308 
L 330.900221 136.980587 
L 331.68925 135.100867 
L 332.548831 133.221147 
L 333.47184 131.341427 
L 334.449628 129.461706 
L 335.472152 127.581986 
L 336.528137 125.702266 
L 337.605317 123.822545 
L 338.690785 121.942825 
L 339.77145 120.063105 
L 340.834599 118.183385 
L 341.868527 116.303664 
L 342.863174 114.423944 
L 343.810714 112.544224 
L 344.706002 110.664503 
L 345.546846 108.784783 
L 346.334039 106.905063 
L 347.071153 105.025343 
L 347.764099 103.145622 
L 348.420505 101.265902 
L 349.048973 99.386182 
L 349.658287 97.506462 
L 350.256662 95.626741 
L 350.851099 93.747021 
L 351.446892 91.867301 
L 352.047335 89.98758 
L 352.653612 88.10786 
L 353.264889 86.22814 
L 353.878539 84.34842 
L 354.490498 82.468699 
L 355.095669 80.588979 
L 355.688362 78.709259 
L 356.262713 76.829538 
L 365.753112 76.829538 
L 365.753112 76.829538 
L 366.327463 78.709259 
L 366.920156 80.588979 
L 367.525327 82.468699 
L 368.137286 84.34842 
L 368.750937 86.22814 
L 369.362213 88.10786 
L 369.968491 89.98758 
L 370.568933 91.867301 
L 371.164727 93.747021 
L 371.759163 95.626741 
L 372.357539 97.506462 
L 372.966852 99.386182 
L 373.59532 101.265902 
L 374.251727 103.145622 
L 374.944673 105.025343 
L 375.681787 106.905063 
L 376.46898 108.784783 
L 377.309823 110.664503 
L 378.205111 112.544224 
L 379.152651 114.423944 
L 380.147299 116.303664 
L 381.181226 118.183385 
L 382.244375 120.063105 
L 383.32504 121.942825 
L 384.410509 123.822545 
L 385.487689 125.702266 
L 386.543673 127.581986 
L 387.566197 129.461706 
L 388.543986 131.341427 
L 389.466994 133.221147 
L 390.326575 135.100867 
L 391.115604 136.980587 
L 391.828593 138.860308 
L 392.461823 140.740028 
L 393.013481 142.619748 
L 393.483811 144.499469 
L 393.875219 146.379189 
L 394.192308 148.258909 
L 394.441795 150.138629 
L 394.632282 152.01835 
L 394.773863 153.89807 
L 394.877586 155.77779 
L 394.95481 157.65751 
L 395.016505 159.537231 
L 395.072591 161.416951 
L 395.131365 163.296671 
L 395.199113 165.176392 
L 395.279927 167.056112 
L 395.375768 168.935832 
L 395.486747 170.815552 
L 395.611597 172.695273 
L 395.748245 174.574993 
L 395.894421 176.454713 
L 396.048191 178.334434 
L 396.208346 180.214154 
L 396.374583 182.093874 
L 396.547433 183.973594 
L 396.727953 185.853315 
L 396.917224 187.733035 
L 397.115706 189.612755 
L 397.322574 191.492476 
L 397.535118 193.372196 
L 397.74831 195.251916 
L 397.954624 197.131636 
L 398.144146 199.011357 
L 398.304976 200.891077 
L 398.423905 202.770797 
L 398.487273 204.650517 
L 398.481918 206.530238 
L 398.396117 208.409958 
L 398.220387 210.289678 
L 397.948074 212.169399 
L 397.575671 214.049119 
L 397.102828 215.928839 
L 396.532085 217.808559 
L 395.868373 219.68828 
L 395.118358 221.568 
L 394.289723 223.44772 
L 393.390469 225.327441 
L 392.428329 227.207161 
L 391.410337 229.086881 
L 390.342588 230.966601 
L 389.230203 232.846322 
L 388.077455 234.726042 
L 386.888035 236.605762 
L 385.665393 238.485483 
L 384.413097 240.365203 
L 383.135171 242.244923 
L 381.836354 244.124643 
L 380.522274 246.004364 
L 379.199501 247.884084 
L 377.875511 249.763804 
L 376.558547 251.643524 
L 375.257412 253.523245 
L 373.981222 255.402965 
L 372.739119 257.282685 
L 371.53999 259.162406 
L 370.39219 261.042126 
L 369.303287 262.921846 
z
" clip-path="url(#pfdbe1cafb4)" style="fill: #1f77b4; fill-opacity: 0.3"/>
   </g>
   <g id="matplotlib.axis_1">
    <g id="xtick_1">
     <g id="line2d_1">
      <defs>
       <path id="m5c139b6ba5" d="M 0 0 
L 0 3.5 
" style="stroke: #000000; stroke-width: 0.8"/>
      </defs>
      <g>
       <use xlink:href="#m5c139b6ba5" x="69.668354" y="307.584" style="stroke: #000000; stroke-width: 0.8"/>
      </g>
     </g>
     <g id="text_1">
      <!-- 250 -->
      <g transform="translate(60.124604 322.182437)scale(0.1 -0.1)">
       <defs>
        <path id="DejaVuSans-32" d="M 1228 531 
L 3431 531 
L 3431 0 
L 469 0 
L 469 531 
Q 828 903 1448 1529 
Q 2069 2156 2228 2338 
Q 2531 2678 2651 2914 
Q 2772 3150 2772 3378 
Q 2772 3750 2511 3984 
Q 2250 4219 1831 4219 
Q 1534 4219 1204 4116 
Q 875 4013 500 3803 
L 500 4441 
Q 881 4594 1212 4672 
Q 1544 4750 1819 4750 
Q 2544 4750 2975 4387 
Q 3406 4025 3406 3419 
Q 3406 3131 3298 2873 
Q 3191 2616 2906 2266 
Q 2828 2175 2409 1742 
Q 1991 1309 1228 531 
z
" transform="scale(0.015625)"/>
        <path id="DejaVuSans-35" d="M 691 4666 
L 3169 4666 
L 3169 4134 
L 1269 4134 
L 1269 2991 
Q 1406 3038 1543 3061 
Q 1681 3084 1819 3084 
Q 2600 3084 3056 2656 
Q 3513 2228 3513 1497 
Q 3513 744 3044 326 
Q 2575 -91 1722 -91 
Q 1428 -91 1123 -41 
Q 819 9 494 109 
L 494 744 
Q 775 591 1075 516 
Q 1375 441 1709 441 
Q 2250 441 2565 725 
Q 2881 1009 2881 1497 
Q 2881 1984 2565 2268 
Q 2250 2553 1709 2553 
Q 1456 2553 1204 2497 
Q 953 2441 691 2322 
L 691 4666 
z
" transform="scale(0.015625)"/>
        <path id="DejaVuSans-30" d="M 2034 4250 
Q 1547 4250 1301 3770 
Q 1056 3291 1056 2328 
Q 1056 1369 1301 889 
Q 1547 409 2034 409 
Q 2525 409 2770 889 
Q 3016 1369 3016 2328 
Q 3016 3291 2770 3770 
Q 2525 4250 2034 4250 
z
M 2034 4750 
Q 2819 4750 3233 4129 
Q 3647 3509 3647 2328 
Q 3647 1150 3233 529 
Q 2819 -91 2034 -91 
Q 1250 -91 836 529 
Q 422 1150 422 2328 
Q 422 3509 836 4129 
Q 1250 4750 2034 4750 
z
" transform="scale(0.015625)"/>
       </defs>
       <use xlink:href="#DejaVuSans-32"/>
       <use xlink:href="#DejaVuSans-35" x="63.623047"/>
       <use xlink:href="#DejaVuSans-30" x="127.246094"/>
      </g>
     </g>
    </g>
    <g id="xtick_2">
     <g id="line2d_2">
      <g>
       <use xlink:href="#m5c139b6ba5" x="111.312087" y="307.584" style="stroke: #000000; stroke-width: 0.8"/>
      </g>
     </g>
     <g id="text_2">
      <!-- 500 -->
      <g transform="translate(101.768337 322.182437)scale(0.1 -0.1)">
       <use xlink:href="#DejaVuSans-35"/>
       <use xlink:href="#DejaVuSans-30" x="63.623047"/>
       <use xlink:href="#DejaVuSans-30" x="127.246094"/>
      </g>
     </g>
    </g>
    <g id="xtick_3">
     <g id="line2d_3">
      <g>
       <use xlink:href="#m5c139b6ba5" x="152.955821" y="307.584" style="stroke: #000000; stroke-width: 0.8"/>
      </g>
     </g>
     <g id="text_3">
      <!-- 750 -->
      <g transform="translate(143.412071 322.182437)scale(0.1 -0.1)">
       <defs>
        <path id="DejaVuSans-37" d="M 525 4666 
L 3525 4666 
L 3525 4397 
L 1831 0 
L 1172 0 
L 2766 4134 
L 525 4134 
L 525 4666 
z
" transform="scale(0.015625)"/>
       </defs>
       <use xlink:href="#DejaVuSans-37"/>
       <use xlink:href="#DejaVuSans-35" x="63.623047"/>
       <use xlink:href="#DejaVuSans-30" x="127.246094"/>
      </g>
     </g>
    </g>
    <g id="xtick_4">
     <g id="line2d_4">
      <g>
       <use xlink:href="#m5c139b6ba5" x="194.599554" y="307.584" style="stroke: #000000; stroke-width: 0.8"/>
      </g>
     </g>
     <g id="text_4">
      <!-- 1000 -->
      <g transform="translate(181.874554 322.182437)scale(0.1 -0.1)">
       <defs>
        <path id="DejaVuSans-31" d="M 794 531 
L 1825 531 
L 1825 4091 
L 703 3866 
L 703 4441 
L 1819 4666 
L 2450 4666 
L 2450 531 
L 3481 531 
L 3481 0 
L 794 0 
L 794 531 
z
" transform="scale(0.015625)"/>
       </defs>
       <use xlink:href="#DejaVuSans-31"/>
       <use xlink:href="#DejaVuSans-30" x="63.623047"/>
       <use xlink:href="#DejaVuSans-30" x="127.246094"/>
       <use xlink:href="#DejaVuSans-30" x="190.869141"/>
      </g>
     </g>
    </g>
    <g id="xtick_5">
     <g id="line2d_5">
      <g>
       <use xlink:href="#m5c139b6ba5" x="236.243287" y="307.584" style="stroke: #000000; stroke-width: 0.8"/>
      </g>
     </g>
     <g id="text_5">
      <!-- 1250 -->
      <g transform="translate(223.518287 322.182437)scale(0.1 -0.1)">
       <use xlink:href="#DejaVuSans-31"/>
       <use xlink:href="#DejaVuSans-32" x="63.623047"/>
       <use xlink:href="#DejaVuSans-35" x="127.246094"/>
       <use xlink:href="#DejaVuSans-30" x="190.869141"/>
      </g>
     </g>
    </g>
    <g id="xtick_6">
     <g id="line2d_6">
      <g>
       <use xlink:href="#m5c139b6ba5" x="277.887021" y="307.584" style="stroke: #000000; stroke-width: 0.8"/>
      </g>
     </g>
     <g id="text_6">
      <!-- 1500 -->
      <g transform="translate(265.162021 322.182437)scale(0.1 -0.1)">
       <use xlink:href="#DejaVuSans-31"/>
       <use xlink:href="#DejaVuSans-35" x="63.623047"/>
       <use xlink:href="#DejaVuSans-30" x="127.246094"/>
       <use xlink:href="#DejaVuSans-30" x="190.869141"/>
      </g>
     </g>
    </g>
    <g id="xtick_7">
     <g id="line2d_7">
      <g>
       <use xlink:href="#m5c139b6ba5" x="319.530754" y="307.584" style="stroke: #000000; stroke-width: 0.8"/>
      </g>
     </g>
     <g id="text_7">
      <!-- 1750 -->
      <g transform="translate(306.805754 322.182437)scale(0.1 -0.1)">
       <use xlink:href="#DejaVuSans-31"/>
       <use xlink:href="#DejaVuSans-37" x="63.623047"/>
       <use xlink:href="#DejaVuSans-35" x="127.246094"/>
       <use xlink:href="#DejaVuSans-30" x="190.869141"/>
      </g>
     </g>
    </g>
    <g id="xtick_8">
     <g id="line2d_8">
      <g>
       <use xlink:href="#m5c139b6ba5" x="361.174488" y="307.584" style="stroke: #000000; stroke-width: 0.8"/>
      </g>
     </g>
     <g id="text_8">
      <!-- 2000 -->
      <g transform="translate(348.449488 322.182437)scale(0.1 -0.1)">
       <use xlink:href="#DejaVuSans-32"/>
       <use xlink:href="#DejaVuSans-30" x="63.623047"/>
       <use xlink:href="#DejaVuSans-30" x="127.246094"/>
       <use xlink:href="#DejaVuSans-30" x="190.869141"/>
      </g>
     </g>
    </g>
    <g id="xtick_9">
     <g id="line2d_9">
      <g>
       <use xlink:href="#m5c139b6ba5" x="402.818221" y="307.584" style="stroke: #000000; stroke-width: 0.8"/>
      </g>
     </g>
     <g id="text_9">
      <!-- 2250 -->
      <g transform="translate(390.093221 322.182437)scale(0.1 -0.1)">
       <use xlink:href="#DejaVuSans-32"/>
       <use xlink:href="#DejaVuSans-32" x="63.623047"/>
       <use xlink:href="#DejaVuSans-35" x="127.246094"/>
       <use xlink:href="#DejaVuSans-30" x="190.869141"/>
      </g>
     </g>
    </g>
    <g id="text_10">
     <!-- Learned Episodes -->
     <g transform="translate(192.102187 335.860562)scale(0.1 -0.1)">
      <defs>
       <path id="DejaVuSans-4c" d="M 628 4666 
L 1259 4666 
L 1259 531 
L 3531 531 
L 3531 0 
L 628 0 
L 628 4666 
z
" transform="scale(0.015625)"/>
       <path id="DejaVuSans-65" d="M 3597 1894 
L 3597 1613 
L 953 1613 
Q 991 1019 1311 708 
Q 1631 397 2203 397 
Q 2534 397 2845 478 
Q 3156 559 3463 722 
L 3463 178 
Q 3153 47 2828 -22 
Q 2503 -91 2169 -91 
Q 1331 -91 842 396 
Q 353 884 353 1716 
Q 353 2575 817 3079 
Q 1281 3584 2069 3584 
Q 2775 3584 3186 3129 
Q 3597 2675 3597 1894 
z
M 3022 2063 
Q 3016 2534 2758 2815 
Q 2500 3097 2075 3097 
Q 1594 3097 1305 2825 
Q 1016 2553 972 2059 
L 3022 2063 
z
" transform="scale(0.015625)"/>
       <path id="DejaVuSans-61" d="M 2194 1759 
Q 1497 1759 1228 1600 
Q 959 1441 959 1056 
Q 959 750 1161 570 
Q 1363 391 1709 391 
Q 2188 391 2477 730 
Q 2766 1069 2766 1631 
L 2766 1759 
L 2194 1759 
z
M 3341 1997 
L 3341 0 
L 2766 0 
L 2766 531 
Q 2569 213 2275 61 
Q 1981 -91 1556 -91 
Q 1019 -91 701 211 
Q 384 513 384 1019 
Q 384 1609 779 1909 
Q 1175 2209 1959 2209 
L 2766 2209 
L 2766 2266 
Q 2766 2663 2505 2880 
Q 2244 3097 1772 3097 
Q 1472 3097 1187 3025 
Q 903 2953 641 2809 
L 641 3341 
Q 956 3463 1253 3523 
Q 1550 3584 1831 3584 
Q 2591 3584 2966 3190 
Q 3341 2797 3341 1997 
z
" transform="scale(0.015625)"/>
       <path id="DejaVuSans-72" d="M 2631 2963 
Q 2534 3019 2420 3045 
Q 2306 3072 2169 3072 
Q 1681 3072 1420 2755 
Q 1159 2438 1159 1844 
L 1159 0 
L 581 0 
L 581 3500 
L 1159 3500 
L 1159 2956 
Q 1341 3275 1631 3429 
Q 1922 3584 2338 3584 
Q 2397 3584 2469 3576 
Q 2541 3569 2628 3553 
L 2631 2963 
z
" transform="scale(0.015625)"/>
       <path id="DejaVuSans-6e" d="M 3513 2113 
L 3513 0 
L 2938 0 
L 2938 2094 
Q 2938 2591 2744 2837 
Q 2550 3084 2163 3084 
Q 1697 3084 1428 2787 
Q 1159 2491 1159 1978 
L 1159 0 
L 581 0 
L 581 3500 
L 1159 3500 
L 1159 2956 
Q 1366 3272 1645 3428 
Q 1925 3584 2291 3584 
Q 2894 3584 3203 3211 
Q 3513 2838 3513 2113 
z
" transform="scale(0.015625)"/>
       <path id="DejaVuSans-64" d="M 2906 2969 
L 2906 4863 
L 3481 4863 
L 3481 0 
L 2906 0 
L 2906 525 
Q 2725 213 2448 61 
Q 2172 -91 1784 -91 
Q 1150 -91 751 415 
Q 353 922 353 1747 
Q 353 2572 751 3078 
Q 1150 3584 1784 3584 
Q 2172 3584 2448 3432 
Q 2725 3281 2906 2969 
z
M 947 1747 
Q 947 1113 1208 752 
Q 1469 391 1925 391 
Q 2381 391 2643 752 
Q 2906 1113 2906 1747 
Q 2906 2381 2643 2742 
Q 2381 3103 1925 3103 
Q 1469 3103 1208 2742 
Q 947 2381 947 1747 
z
" transform="scale(0.015625)"/>
       <path id="DejaVuSans-20" transform="scale(0.015625)"/>
       <path id="DejaVuSans-45" d="M 628 4666 
L 3578 4666 
L 3578 4134 
L 1259 4134 
L 1259 2753 
L 3481 2753 
L 3481 2222 
L 1259 2222 
L 1259 531 
L 3634 531 
L 3634 0 
L 628 0 
L 628 4666 
z
" transform="scale(0.015625)"/>
       <path id="DejaVuSans-70" d="M 1159 525 
L 1159 -1331 
L 581 -1331 
L 581 3500 
L 1159 3500 
L 1159 2969 
Q 1341 3281 1617 3432 
Q 1894 3584 2278 3584 
Q 2916 3584 3314 3078 
Q 3713 2572 3713 1747 
Q 3713 922 3314 415 
Q 2916 -91 2278 -91 
Q 1894 -91 1617 61 
Q 1341 213 1159 525 
z
M 3116 1747 
Q 3116 2381 2855 2742 
Q 2594 3103 2138 3103 
Q 1681 3103 1420 2742 
Q 1159 2381 1159 1747 
Q 1159 1113 1420 752 
Q 1681 391 2138 391 
Q 2594 391 2855 752 
Q 3116 1113 3116 1747 
z
" transform="scale(0.015625)"/>
       <path id="DejaVuSans-69" d="M 603 3500 
L 1178 3500 
L 1178 0 
L 603 0 
L 603 3500 
z
M 603 4863 
L 1178 4863 
L 1178 4134 
L 603 4134 
L 603 4863 
z
" transform="scale(0.015625)"/>
       <path id="DejaVuSans-73" d="M 2834 3397 
L 2834 2853 
Q 2591 2978 2328 3040 
Q 2066 3103 1784 3103 
Q 1356 3103 1142 2972 
Q 928 2841 928 2578 
Q 928 2378 1081 2264 
Q 1234 2150 1697 2047 
L 1894 2003 
Q 2506 1872 2764 1633 
Q 3022 1394 3022 966 
Q 3022 478 2636 193 
Q 2250 -91 1575 -91 
Q 1294 -91 989 -36 
Q 684 19 347 128 
L 347 722 
Q 666 556 975 473 
Q 1284 391 1588 391 
Q 1994 391 2212 530 
Q 2431 669 2431 922 
Q 2431 1156 2273 1281 
Q 2116 1406 1581 1522 
L 1381 1569 
Q 847 1681 609 1914 
Q 372 2147 372 2553 
Q 372 3047 722 3315 
Q 1072 3584 1716 3584 
Q 2034 3584 2315 3537 
Q 2597 3491 2834 3397 
z
" transform="scale(0.015625)"/>
       <path id="DejaVuSans-6f" d="M 1959 3097 
Q 1497 3097 1228 2736 
Q 959 2375 959 1747 
Q 959 1119 1226 758 
Q 1494 397 1959 397 
Q 2419 397 2687 759 
Q 2956 1122 2956 1747 
Q 2956 2369 2687 2733 
Q 2419 3097 1959 3097 
z
M 1959 3584 
Q 2709 3584 3137 3096 
Q 3566 2609 3566 1747 
Q 3566 888 3137 398 
Q 2709 -91 1959 -91 
Q 1206 -91 779 398 
Q 353 888 353 1747 
Q 353 2609 779 3096 
Q 1206 3584 1959 3584 
z
" transform="scale(0.015625)"/>
      </defs>
      <use xlink:href="#DejaVuSans-4c"/>
      <use xlink:href="#DejaVuSans-65" x="53.962891"/>
      <use xlink:href="#DejaVuSans-61" x="115.486328"/>
      <use xlink:href="#DejaVuSans-72" x="176.765625"/>
      <use xlink:href="#DejaVuSans-6e" x="216.128906"/>
      <use xlink:href="#DejaVuSans-65" x="279.507812"/>
      <use xlink:href="#DejaVuSans-64" x="341.03125"/>
      <use xlink:href="#DejaVuSans-20" x="404.507812"/>
      <use xlink:href="#DejaVuSans-45" x="436.294922"/>
      <use xlink:href="#DejaVuSans-70" x="499.478516"/>
      <use xlink:href="#DejaVuSans-69" x="562.955078"/>
      <use xlink:href="#DejaVuSans-73" x="590.738281"/>
      <use xlink:href="#DejaVuSans-6f" x="642.837891"/>
      <use xlink:href="#DejaVuSans-64" x="704.019531"/>
      <use xlink:href="#DejaVuSans-65" x="767.496094"/>
      <use xlink:href="#DejaVuSans-73" x="829.019531"/>
     </g>
    </g>
   </g>
   <g id="matplotlib.axis_2">
    <g id="ytick_1">
     <g id="line2d_10">
      <defs>
       <path id="m45c3d0787e" d="M 0 0 
L -3.5 0 
" style="stroke: #000000; stroke-width: 0.8"/>
      </defs>
      <g>
       <use xlink:href="#m45c3d0787e" x="57.6" y="264.084923" style="stroke: #000000; stroke-width: 0.8"/>
      </g>
     </g>
     <g id="text_11">
      <!-- 50 -->
      <g transform="translate(37.875 267.884142)scale(0.1 -0.1)">
       <use xlink:href="#DejaVuSans-35"/>
       <use xlink:href="#DejaVuSans-30" x="63.623047"/>
      </g>
     </g>
    </g>
    <g id="ytick_2">
     <g id="line2d_11">
      <g>
       <use xlink:href="#m45c3d0787e" x="57.6" y="205.931077" style="stroke: #000000; stroke-width: 0.8"/>
      </g>
     </g>
     <g id="text_12">
      <!-- 100 -->
      <g transform="translate(31.5125 209.730296)scale(0.1 -0.1)">
       <use xlink:href="#DejaVuSans-31"/>
       <use xlink:href="#DejaVuSans-30" x="63.623047"/>
       <use xlink:href="#DejaVuSans-30" x="127.246094"/>
      </g>
     </g>
    </g>
    <g id="ytick_3">
     <g id="line2d_12">
      <g>
       <use xlink:href="#m45c3d0787e" x="57.6" y="147.777231" style="stroke: #000000; stroke-width: 0.8"/>
      </g>
     </g>
     <g id="text_13">
      <!-- 150 -->
      <g transform="translate(31.5125 151.57645)scale(0.1 -0.1)">
       <use xlink:href="#DejaVuSans-31"/>
       <use xlink:href="#DejaVuSans-35" x="63.623047"/>
       <use xlink:href="#DejaVuSans-30" x="127.246094"/>
      </g>
     </g>
    </g>
    <g id="ytick_4">
     <g id="line2d_13">
      <g>
       <use xlink:href="#m45c3d0787e" x="57.6" y="89.623385" style="stroke: #000000; stroke-width: 0.8"/>
      </g>
     </g>
     <g id="text_14">
      <!-- 200 -->
      <g transform="translate(31.5125 93.422603)scale(0.1 -0.1)">
       <use xlink:href="#DejaVuSans-32"/>
       <use xlink:href="#DejaVuSans-30" x="63.623047"/>
       <use xlink:href="#DejaVuSans-30" x="127.246094"/>
      </g>
     </g>
    </g>
    <g id="text_15">
     <!-- Reward Density -->
     <g transform="translate(25.432812 213.74675)rotate(-90)scale(0.1 -0.1)">
      <defs>
       <path id="DejaVuSans-52" d="M 2841 2188 
Q 3044 2119 3236 1894 
Q 3428 1669 3622 1275 
L 4263 0 
L 3584 0 
L 2988 1197 
Q 2756 1666 2539 1819 
Q 2322 1972 1947 1972 
L 1259 1972 
L 1259 0 
L 628 0 
L 628 4666 
L 2053 4666 
Q 2853 4666 3247 4331 
Q 3641 3997 3641 3322 
Q 3641 2881 3436 2590 
Q 3231 2300 2841 2188 
z
M 1259 4147 
L 1259 2491 
L 2053 2491 
Q 2509 2491 2742 2702 
Q 2975 2913 2975 3322 
Q 2975 3731 2742 3939 
Q 2509 4147 2053 4147 
L 1259 4147 
z
" transform="scale(0.015625)"/>
       <path id="DejaVuSans-77" d="M 269 3500 
L 844 3500 
L 1563 769 
L 2278 3500 
L 2956 3500 
L 3675 769 
L 4391 3500 
L 4966 3500 
L 4050 0 
L 3372 0 
L 2619 2869 
L 1863 0 
L 1184 0 
L 269 3500 
z
" transform="scale(0.015625)"/>
       <path id="DejaVuSans-44" d="M 1259 4147 
L 1259 519 
L 2022 519 
Q 2988 519 3436 956 
Q 3884 1394 3884 2338 
Q 3884 3275 3436 3711 
Q 2988 4147 2022 4147 
L 1259 4147 
z
M 628 4666 
L 1925 4666 
Q 3281 4666 3915 4102 
Q 4550 3538 4550 2338 
Q 4550 1131 3912 565 
Q 3275 0 1925 0 
L 628 0 
L 628 4666 
z
" transform="scale(0.015625)"/>
       <path id="DejaVuSans-74" d="M 1172 4494 
L 1172 3500 
L 2356 3500 
L 2356 3053 
L 1172 3053 
L 1172 1153 
Q 1172 725 1289 603 
Q 1406 481 1766 481 
L 2356 481 
L 2356 0 
L 1766 0 
Q 1100 0 847 248 
Q 594 497 594 1153 
L 594 3053 
L 172 3053 
L 172 3500 
L 594 3500 
L 594 4494 
L 1172 4494 
z
" transform="scale(0.015625)"/>
       <path id="DejaVuSans-79" d="M 2059 -325 
Q 1816 -950 1584 -1140 
Q 1353 -1331 966 -1331 
L 506 -1331 
L 506 -850 
L 844 -850 
Q 1081 -850 1212 -737 
Q 1344 -625 1503 -206 
L 1606 56 
L 191 3500 
L 800 3500 
L 1894 763 
L 2988 3500 
L 3597 3500 
L 2059 -325 
z
" transform="scale(0.015625)"/>
      </defs>
      <use xlink:href="#DejaVuSans-52"/>
      <use xlink:href="#DejaVuSans-65" x="64.982422"/>
      <use xlink:href="#DejaVuSans-77" x="126.505859"/>
      <use xlink:href="#DejaVuSans-61" x="208.292969"/>
      <use xlink:href="#DejaVuSans-72" x="269.572266"/>
      <use xlink:href="#DejaVuSans-64" x="308.935547"/>
      <use xlink:href="#DejaVuSans-20" x="372.412109"/>
      <use xlink:href="#DejaVuSans-44" x="404.199219"/>
      <use xlink:href="#DejaVuSans-65" x="481.201172"/>
      <use xlink:href="#DejaVuSans-6e" x="542.724609"/>
      <use xlink:href="#DejaVuSans-73" x="606.103516"/>
      <use xlink:href="#DejaVuSans-69" x="658.203125"/>
      <use xlink:href="#DejaVuSans-74" x="685.986328"/>
      <use xlink:href="#DejaVuSans-79" x="725.195312"/>
     </g>
    </g>
   </g>
   <g id="LineCollection_1">
    <path d="M 92.572407 242.916923 
L 130.051767 242.916923 
" clip-path="url(#pfdbe1cafb4)" style="fill: none; stroke: #1f77b4; stroke-width: 1.5"/>
    <path d="M 175.859874 181.827471 
L 213.339234 181.827471 
" clip-path="url(#pfdbe1cafb4)" style="fill: none; stroke: #1f77b4; stroke-width: 1.5"/>
    <path d="M 259.147341 188.587274 
L 296.626701 188.587274 
" clip-path="url(#pfdbe1cafb4)" style="fill: none; stroke: #1f77b4; stroke-width: 1.5"/>
    <path d="M 342.268233 178.608074 
L 379.747593 178.608074 
" clip-path="url(#pfdbe1cafb4)" style="fill: none; stroke: #1f77b4; stroke-width: 1.5"/>
   </g>
   <g id="LineCollection_2">
    <path d="M 92.572407 158.244923 
L 130.051767 158.244923 
" clip-path="url(#pfdbe1cafb4)" style="fill: none; stroke: #1f77b4; stroke-width: 1.5"/>
    <path d="M 175.859874 53.568 
L 213.339234 53.568 
" clip-path="url(#pfdbe1cafb4)" style="fill: none; stroke: #1f77b4; stroke-width: 1.5"/>
    <path d="M 259.147341 69.851077 
L 296.626701 69.851077 
" clip-path="url(#pfdbe1cafb4)" style="fill: none; stroke: #1f77b4; stroke-width: 1.5"/>
    <path d="M 342.268233 76.829538 
L 379.747593 76.829538 
" clip-path="url(#pfdbe1cafb4)" style="fill: none; stroke: #1f77b4; stroke-width: 1.5"/>
   </g>
   <g id="LineCollection_3">
    <path d="M 92.572407 295.488 
L 130.051767 295.488 
" clip-path="url(#pfdbe1cafb4)" style="fill: none; stroke: #1f77b4; stroke-width: 1.5"/>
    <path d="M 175.859874 255.943385 
L 213.339234 255.943385 
" clip-path="url(#pfdbe1cafb4)" style="fill: none; stroke: #1f77b4; stroke-width: 1.5"/>
    <path d="M 259.147341 273.389538 
L 296.626701 273.389538 
" clip-path="url(#pfdbe1cafb4)" style="fill: none; stroke: #1f77b4; stroke-width: 1.5"/>
    <path d="M 342.268233 262.921846 
L 379.747593 262.921846 
" clip-path="url(#pfdbe1cafb4)" style="fill: none; stroke: #1f77b4; stroke-width: 1.5"/>
   </g>
   <g id="LineCollection_4">
    <path d="M 111.312087 295.488 
L 111.312087 158.244923 
" clip-path="url(#pfdbe1cafb4)" style="fill: none; stroke: #1f77b4; stroke-width: 1.5"/>
    <path d="M 194.599554 255.943385 
L 194.599554 53.568 
" clip-path="url(#pfdbe1cafb4)" style="fill: none; stroke: #1f77b4; stroke-width: 1.5"/>
    <path d="M 277.887021 273.389538 
L 277.887021 69.851077 
" clip-path="url(#pfdbe1cafb4)" style="fill: none; stroke: #1f77b4; stroke-width: 1.5"/>
    <path d="M 361.007913 262.921846 
L 361.007913 76.829538 
" clip-path="url(#pfdbe1cafb4)" style="fill: none; stroke: #1f77b4; stroke-width: 1.5"/>
   </g>
   <g id="line2d_14">
    <path d="M 111.312087 242.916923 
L 194.599554 181.827471 
L 277.887021 188.587274 
L 361.007913 178.608074 
" clip-path="url(#pfdbe1cafb4)" style="fill: none; stroke: #4682b4; stroke-width: 1.5; stroke-linecap: square"/>
   </g>
   <g id="patch_3">
    <path d="M 57.6 307.584 
L 57.6 41.472 
" style="fill: none; stroke: #000000; stroke-width: 0.8; stroke-linejoin: miter; stroke-linecap: square"/>
   </g>
   <g id="patch_4">
    <path d="M 414.72 307.584 
L 414.72 41.472 
" style="fill: none; stroke: #000000; stroke-width: 0.8; stroke-linejoin: miter; stroke-linecap: square"/>
   </g>
   <g id="patch_5">
    <path d="M 57.6 307.584 
L 414.72 307.584 
" style="fill: none; stroke: #000000; stroke-width: 0.8; stroke-linejoin: miter; stroke-linecap: square"/>
   </g>
   <g id="patch_6">
    <path d="M 57.6 41.472 
L 414.72 41.472 
" style="fill: none; stroke: #000000; stroke-width: 0.8; stroke-linejoin: miter; stroke-linecap: square"/>
   </g>
   <g id="text_16">
    <!-- Violinplot for progress of customer/purchases_new -->
    <g transform="translate(84.319688 35.472)scale(0.12 -0.12)">
     <defs>
      <path id="DejaVuSans-56" d="M 1831 0 
L 50 4666 
L 709 4666 
L 2188 738 
L 3669 4666 
L 4325 4666 
L 2547 0 
L 1831 0 
z
" transform="scale(0.015625)"/>
      <path id="DejaVuSans-6c" d="M 603 4863 
L 1178 4863 
L 1178 0 
L 603 0 
L 603 4863 
z
" transform="scale(0.015625)"/>
      <path id="DejaVuSans-66" d="M 2375 4863 
L 2375 4384 
L 1825 4384 
Q 1516 4384 1395 4259 
Q 1275 4134 1275 3809 
L 1275 3500 
L 2222 3500 
L 2222 3053 
L 1275 3053 
L 1275 0 
L 697 0 
L 697 3053 
L 147 3053 
L 147 3500 
L 697 3500 
L 697 3744 
Q 697 4328 969 4595 
Q 1241 4863 1831 4863 
L 2375 4863 
z
" transform="scale(0.015625)"/>
      <path id="DejaVuSans-67" d="M 2906 1791 
Q 2906 2416 2648 2759 
Q 2391 3103 1925 3103 
Q 1463 3103 1205 2759 
Q 947 2416 947 1791 
Q 947 1169 1205 825 
Q 1463 481 1925 481 
Q 2391 481 2648 825 
Q 2906 1169 2906 1791 
z
M 3481 434 
Q 3481 -459 3084 -895 
Q 2688 -1331 1869 -1331 
Q 1566 -1331 1297 -1286 
Q 1028 -1241 775 -1147 
L 775 -588 
Q 1028 -725 1275 -790 
Q 1522 -856 1778 -856 
Q 2344 -856 2625 -561 
Q 2906 -266 2906 331 
L 2906 616 
Q 2728 306 2450 153 
Q 2172 0 1784 0 
Q 1141 0 747 490 
Q 353 981 353 1791 
Q 353 2603 747 3093 
Q 1141 3584 1784 3584 
Q 2172 3584 2450 3431 
Q 2728 3278 2906 2969 
L 2906 3500 
L 3481 3500 
L 3481 434 
z
" transform="scale(0.015625)"/>
      <path id="DejaVuSans-63" d="M 3122 3366 
L 3122 2828 
Q 2878 2963 2633 3030 
Q 2388 3097 2138 3097 
Q 1578 3097 1268 2742 
Q 959 2388 959 1747 
Q 959 1106 1268 751 
Q 1578 397 2138 397 
Q 2388 397 2633 464 
Q 2878 531 3122 666 
L 3122 134 
Q 2881 22 2623 -34 
Q 2366 -91 2075 -91 
Q 1284 -91 818 406 
Q 353 903 353 1747 
Q 353 2603 823 3093 
Q 1294 3584 2113 3584 
Q 2378 3584 2631 3529 
Q 2884 3475 3122 3366 
z
" transform="scale(0.015625)"/>
      <path id="DejaVuSans-75" d="M 544 1381 
L 544 3500 
L 1119 3500 
L 1119 1403 
Q 1119 906 1312 657 
Q 1506 409 1894 409 
Q 2359 409 2629 706 
Q 2900 1003 2900 1516 
L 2900 3500 
L 3475 3500 
L 3475 0 
L 2900 0 
L 2900 538 
Q 2691 219 2414 64 
Q 2138 -91 1772 -91 
Q 1169 -91 856 284 
Q 544 659 544 1381 
z
M 1991 3584 
L 1991 3584 
z
" transform="scale(0.015625)"/>
      <path id="DejaVuSans-6d" d="M 3328 2828 
Q 3544 3216 3844 3400 
Q 4144 3584 4550 3584 
Q 5097 3584 5394 3201 
Q 5691 2819 5691 2113 
L 5691 0 
L 5113 0 
L 5113 2094 
Q 5113 2597 4934 2840 
Q 4756 3084 4391 3084 
Q 3944 3084 3684 2787 
Q 3425 2491 3425 1978 
L 3425 0 
L 2847 0 
L 2847 2094 
Q 2847 2600 2669 2842 
Q 2491 3084 2119 3084 
Q 1678 3084 1418 2786 
Q 1159 2488 1159 1978 
L 1159 0 
L 581 0 
L 581 3500 
L 1159 3500 
L 1159 2956 
Q 1356 3278 1631 3431 
Q 1906 3584 2284 3584 
Q 2666 3584 2933 3390 
Q 3200 3197 3328 2828 
z
" transform="scale(0.015625)"/>
      <path id="DejaVuSans-2f" d="M 1625 4666 
L 2156 4666 
L 531 -594 
L 0 -594 
L 1625 4666 
z
" transform="scale(0.015625)"/>
      <path id="DejaVuSans-68" d="M 3513 2113 
L 3513 0 
L 2938 0 
L 2938 2094 
Q 2938 2591 2744 2837 
Q 2550 3084 2163 3084 
Q 1697 3084 1428 2787 
Q 1159 2491 1159 1978 
L 1159 0 
L 581 0 
L 581 4863 
L 1159 4863 
L 1159 2956 
Q 1366 3272 1645 3428 
Q 1925 3584 2291 3584 
Q 2894 3584 3203 3211 
Q 3513 2838 3513 2113 
z
" transform="scale(0.015625)"/>
      <path id="DejaVuSans-5f" d="M 3263 -1063 
L 3263 -1509 
L -63 -1509 
L -63 -1063 
L 3263 -1063 
z
" transform="scale(0.015625)"/>
     </defs>
     <use xlink:href="#DejaVuSans-56"/>
     <use xlink:href="#DejaVuSans-69" x="66.158203"/>
     <use xlink:href="#DejaVuSans-6f" x="93.941406"/>
     <use xlink:href="#DejaVuSans-6c" x="155.123047"/>
     <use xlink:href="#DejaVuSans-69" x="182.90625"/>
     <use xlink:href="#DejaVuSans-6e" x="210.689453"/>
     <use xlink:href="#DejaVuSans-70" x="274.068359"/>
     <use xlink:href="#DejaVuSans-6c" x="337.544922"/>
     <use xlink:href="#DejaVuSans-6f" x="365.328125"/>
     <use xlink:href="#DejaVuSans-74" x="426.509766"/>
     <use xlink:href="#DejaVuSans-20" x="465.71875"/>
     <use xlink:href="#DejaVuSans-66" x="497.505859"/>
     <use xlink:href="#DejaVuSans-6f" x="532.710938"/>
     <use xlink:href="#DejaVuSans-72" x="593.892578"/>
     <use xlink:href="#DejaVuSans-20" x="635.005859"/>
     <use xlink:href="#DejaVuSans-70" x="666.792969"/>
     <use xlink:href="#DejaVuSans-72" x="730.269531"/>
     <use xlink:href="#DejaVuSans-6f" x="769.132812"/>
     <use xlink:href="#DejaVuSans-67" x="830.314453"/>
     <use xlink:href="#DejaVuSans-72" x="893.791016"/>
     <use xlink:href="#DejaVuSans-65" x="932.654297"/>
     <use xlink:href="#DejaVuSans-73" x="994.177734"/>
     <use xlink:href="#DejaVuSans-73" x="1046.277344"/>
     <use xlink:href="#DejaVuSans-20" x="1098.376953"/>
     <use xlink:href="#DejaVuSans-6f" x="1130.164062"/>
     <use xlink:href="#DejaVuSans-66" x="1191.345703"/>
     <use xlink:href="#DejaVuSans-20" x="1226.550781"/>
     <use xlink:href="#DejaVuSans-63" x="1258.337891"/>
     <use xlink:href="#DejaVuSans-75" x="1313.318359"/>
     <use xlink:href="#DejaVuSans-73" x="1376.697266"/>
     <use xlink:href="#DejaVuSans-74" x="1428.796875"/>
     <use xlink:href="#DejaVuSans-6f" x="1468.005859"/>
     <use xlink:href="#DejaVuSans-6d" x="1529.1875"/>
     <use xlink:href="#DejaVuSans-65" x="1626.599609"/>
     <use xlink:href="#DejaVuSans-72" x="1688.123047"/>
     <use xlink:href="#DejaVuSans-2f" x="1729.236328"/>
     <use xlink:href="#DejaVuSans-70" x="1762.927734"/>
     <use xlink:href="#DejaVuSans-75" x="1826.404297"/>
     <use xlink:href="#DejaVuSans-72" x="1889.783203"/>
     <use xlink:href="#DejaVuSans-63" x="1928.646484"/>
     <use xlink:href="#DejaVuSans-68" x="1983.626953"/>
     <use xlink:href="#DejaVuSans-61" x="2047.005859"/>
     <use xlink:href="#DejaVuSans-73" x="2108.285156"/>
     <use xlink:href="#DejaVuSans-65" x="2160.384766"/>
     <use xlink:href="#DejaVuSans-73" x="2221.908203"/>
     <use xlink:href="#DejaVuSans-5f" x="2274.007812"/>
     <use xlink:href="#DejaVuSans-6e" x="2324.007812"/>
     <use xlink:href="#DejaVuSans-65" x="2387.386719"/>
     <use xlink:href="#DejaVuSans-77" x="2448.910156"/>
    </g>
   </g>
   <g id="legend_1">
    <g id="patch_7">
     <path d="M 276.25125 64.150125 
L 407.72 64.150125 
Q 409.72 64.150125 409.72 62.150125 
L 409.72 48.472 
Q 409.72 46.472 407.72 46.472 
L 276.25125 46.472 
Q 274.25125 46.472 274.25125 48.472 
L 274.25125 62.150125 
Q 274.25125 64.150125 276.25125 64.150125 
z
" style="fill: #ffffff; opacity: 0.8; stroke: #cccccc; stroke-linejoin: miter"/>
    </g>
    <g id="line2d_15">
     <path d="M 278.25125 54.570438 
L 288.25125 54.570438 
L 298.25125 54.570438 
" style="fill: none; stroke: #4682b4; stroke-width: 1.5; stroke-linecap: square"/>
    </g>
    <g id="text_17">
     <!-- StableBaselinesSAC -->
     <g transform="translate(306.25125 58.070438)scale(0.1 -0.1)">
      <defs>
       <path id="DejaVuSans-53" d="M 3425 4513 
L 3425 3897 
Q 3066 4069 2747 4153 
Q 2428 4238 2131 4238 
Q 1616 4238 1336 4038 
Q 1056 3838 1056 3469 
Q 1056 3159 1242 3001 
Q 1428 2844 1947 2747 
L 2328 2669 
Q 3034 2534 3370 2195 
Q 3706 1856 3706 1288 
Q 3706 609 3251 259 
Q 2797 -91 1919 -91 
Q 1588 -91 1214 -16 
Q 841 59 441 206 
L 441 856 
Q 825 641 1194 531 
Q 1563 422 1919 422 
Q 2459 422 2753 634 
Q 3047 847 3047 1241 
Q 3047 1584 2836 1778 
Q 2625 1972 2144 2069 
L 1759 2144 
Q 1053 2284 737 2584 
Q 422 2884 422 3419 
Q 422 4038 858 4394 
Q 1294 4750 2059 4750 
Q 2388 4750 2728 4690 
Q 3069 4631 3425 4513 
z
" transform="scale(0.015625)"/>
       <path id="DejaVuSans-62" d="M 3116 1747 
Q 3116 2381 2855 2742 
Q 2594 3103 2138 3103 
Q 1681 3103 1420 2742 
Q 1159 2381 1159 1747 
Q 1159 1113 1420 752 
Q 1681 391 2138 391 
Q 2594 391 2855 752 
Q 3116 1113 3116 1747 
z
M 1159 2969 
Q 1341 3281 1617 3432 
Q 1894 3584 2278 3584 
Q 2916 3584 3314 3078 
Q 3713 2572 3713 1747 
Q 3713 922 3314 415 
Q 2916 -91 2278 -91 
Q 1894 -91 1617 61 
Q 1341 213 1159 525 
L 1159 0 
L 581 0 
L 581 4863 
L 1159 4863 
L 1159 2969 
z
" transform="scale(0.015625)"/>
       <path id="DejaVuSans-42" d="M 1259 2228 
L 1259 519 
L 2272 519 
Q 2781 519 3026 730 
Q 3272 941 3272 1375 
Q 3272 1813 3026 2020 
Q 2781 2228 2272 2228 
L 1259 2228 
z
M 1259 4147 
L 1259 2741 
L 2194 2741 
Q 2656 2741 2882 2914 
Q 3109 3088 3109 3444 
Q 3109 3797 2882 3972 
Q 2656 4147 2194 4147 
L 1259 4147 
z
M 628 4666 
L 2241 4666 
Q 2963 4666 3353 4366 
Q 3744 4066 3744 3513 
Q 3744 3084 3544 2831 
Q 3344 2578 2956 2516 
Q 3422 2416 3680 2098 
Q 3938 1781 3938 1306 
Q 3938 681 3513 340 
Q 3088 0 2303 0 
L 628 0 
L 628 4666 
z
" transform="scale(0.015625)"/>
       <path id="DejaVuSans-41" d="M 2188 4044 
L 1331 1722 
L 3047 1722 
L 2188 4044 
z
M 1831 4666 
L 2547 4666 
L 4325 0 
L 3669 0 
L 3244 1197 
L 1141 1197 
L 716 0 
L 50 0 
L 1831 4666 
z
" transform="scale(0.015625)"/>
       <path id="DejaVuSans-43" d="M 4122 4306 
L 4122 3641 
Q 3803 3938 3442 4084 
Q 3081 4231 2675 4231 
Q 1875 4231 1450 3742 
Q 1025 3253 1025 2328 
Q 1025 1406 1450 917 
Q 1875 428 2675 428 
Q 3081 428 3442 575 
Q 3803 722 4122 1019 
L 4122 359 
Q 3791 134 3420 21 
Q 3050 -91 2638 -91 
Q 1578 -91 968 557 
Q 359 1206 359 2328 
Q 359 3453 968 4101 
Q 1578 4750 2638 4750 
Q 3056 4750 3426 4639 
Q 3797 4528 4122 4306 
z
" transform="scale(0.015625)"/>
      </defs>
      <use xlink:href="#DejaVuSans-53"/>
      <use xlink:href="#DejaVuSans-74" x="63.476562"/>
      <use xlink:href="#DejaVuSans-61" x="102.685547"/>
      <use xlink:href="#DejaVuSans-62" x="163.964844"/>
      <use xlink:href="#DejaVuSans-6c" x="227.441406"/>
      <use xlink:href="#DejaVuSans-65" x="255.224609"/>
      <use xlink:href="#DejaVuSans-42" x="316.748047"/>
      <use xlink:href="#DejaVuSans-61" x="385.351562"/>
      <use xlink:href="#DejaVuSans-73" x="446.630859"/>
      <use xlink:href="#DejaVuSans-65" x="498.730469"/>
      <use xlink:href="#DejaVuSans-6c" x="560.253906"/>
      <use xlink:href="#DejaVuSans-69" x="588.037109"/>
      <use xlink:href="#DejaVuSans-6e" x="615.820312"/>
      <use xlink:href="#DejaVuSans-65" x="679.199219"/>
      <use xlink:href="#DejaVuSans-73" x="740.722656"/>
      <use xlink:href="#DejaVuSans-53" x="792.822266"/>
      <use xlink:href="#DejaVuSans-41" x="858.173828"/>
      <use xlink:href="#DejaVuSans-43" x="924.832031"/>
     </g>
    </g>
   </g>
  </g>
 </g>
 <defs>
  <clipPath id="pfdbe1cafb4">
   <rect x="57.6" y="41.472" width="357.12" height="266.112"/>
  </clipPath>
 </defs>
</svg>
